<?xml version="1.0" encoding="utf-8" ?>
<svg baseProfile="tiny" height="512px" version="1.2" viewBox="0,0,512,512" width="512px" xmlns="http://www.w3.org/2000/svg" xmlns:ev="http://www.w3.org/2001/xml-events" xmlns:xlink="http://www.w3.org/1999/xlink"><defs /><polygon fill="none" points="313,350 303,361 298,362 296,367 291,368 288,374 249,382 215,381 213,375 202,372 184,353 180,353 183,353 201,372 212,375 214,381 249,382 289,374 291,369 311,355" stroke="#00E5FF" stroke-width="1.2" /><polygon fill="none" points="209,220 202,222 179,242 170,261 165,265 162,302 166,332 162,302 165,265 171,262 170,257 179,243 202,222" stroke="#00E5FF" stroke-width="1.2" /><polygon fill="none" points="248,511 250,506 264,497 291,489 305,489 330,495 334,500 343,503 325,493 291,489 263,497 253,506 249,506" stroke="#00E5FF" stroke-width="1.2" /></svg>