<?xml version="1.0" encoding="utf-8" ?>
<svg baseProfile="tiny" height="512px" version="1.2" viewBox="0,0,512,512" width="512px" xmlns="http://www.w3.org/2000/svg" xmlns:ev="http://www.w3.org/2001/xml-events" xmlns:xlink="http://www.w3.org/1999/xlink"><defs /><polygon fill="none" points="381,222 380,233 391,235 391,270 403,272 404,236 415,231 416,223" stroke="#00E5FF" stroke-width="1.2" /><polygon fill="none" points="421,238 419,269 421,273 430,273 431,239" stroke="#00E5FF" stroke-width="1.2" /><polygon fill="none" points="417,330 418,353 425,357 434,356 439,349 439,331 433,330 432,348 427,351 423,344 423,330" stroke="#00E5FF" stroke-width="1.2" /><polygon fill="none" points="461,329 446,331 447,356 453,355 453,340 461,334" stroke="#00E5FF" stroke-width="1.2" /><polygon fill="none" points="369,362 392,363 393,359 373,358" stroke="#00E5FF" stroke-width="1.2" /><polygon fill="none" points="429,223 421,224 421,233 431,232" stroke="#00E5FF" stroke-width="1.2" /><polygon fill="none" points="323,337 321,346 327,348 330,340" stroke="#00E5FF" stroke-width="1.2" /><polygon fill="none" points="335,194 325,194 321,198 320,261 311,270 305,270 295,259 298,248 312,242 310,229 311,242 302,244 296,250 297,265 304,270 311,270 320,262 323,195 334,194 339,206 358,219 358,230 352,232 337,227 336,265 331,274 317,284 297,284 288,277 283,267 284,253 295,237 309,231 295,237 292,235 294,237 285,250 282,265 286,275 293,282 312,285 324,281 335,268 336,229 340,227 352,232 358,231 359,219 339,205" stroke="#00E5FF" stroke-width="1.2" /><polygon fill="none" points="312,325 303,340 306,354 317,362 337,363 337,358 317,356 311,350 309,341 317,329 332,327 341,337 339,348 341,337 338,330 333,327 320,327 311,334 309,341 311,351 316,356 336,358 336,363 321,363 312,359 304,349 303,340 313,325 319,322 333,322 345,332 346,347 339,353 331,350 326,353 320,352 315,346 315,339 322,332 333,332 336,335 336,348 336,335 333,332 319,333 315,339 315,347 321,353 340,353 346,348 345,331 333,322" stroke="#00E5FF" stroke-width="1.2" /><polygon fill="none" points="437,222 436,272 447,272 451,257 464,273 474,273 475,269 461,250 474,234 460,234 450,243 461,234 473,235 460,247 474,272 464,272 453,257 449,258 448,270 445,273 436,271 436,224 448,224 448,243 448,223" stroke="#00E5FF" stroke-width="1.2" /><polygon fill="none" points="480,344 473,346 474,352 481,349" stroke="#00E5FF" stroke-width="1.2" /><polygon fill="none" points="404,322 399,327 404,322 406,329 411,332 406,336 406,348 411,353 408,357 399,352 399,339 395,332 399,329 395,333 399,339 399,353 405,357 411,355 406,348 406,337 411,331 406,328" stroke="#00E5FF" stroke-width="1.2" /></svg>