<?xml version="1.0" encoding="utf-8" ?>
<svg baseProfile="tiny" height="512px" version="1.2" viewBox="0,0,512,512" width="512px" xmlns="http://www.w3.org/2000/svg" xmlns:ev="http://www.w3.org/2001/xml-events" xmlns:xlink="http://www.w3.org/1999/xlink"><defs /><polygon fill="none" points="0,326 12,329 24,341 29,364 21,379 29,364 25,341 13,329" stroke="#00E5FF" stroke-width="1.2" /><polygon fill="none" points="182,318 177,316 166,320 164,326 157,324 156,327 159,324 165,327 157,336 165,330 167,320 177,316" stroke="#00E5FF" stroke-width="1.2" /><polygon fill="none" points="0,314 24,323 36,335 38,342 36,334 18,318" stroke="#00E5FF" stroke-width="1.2" /><polygon fill="none" points="17,19 25,41 42,55 25,40" stroke="#00E5FF" stroke-width="1.2" /><polygon fill="none" points="449,336 432,356 440,350" stroke="#00E5FF" stroke-width="1.2" /><polygon fill="none" points="327,342 329,345 328,342 335,335 346,330 356,330 370,337 367,333 346,330 334,335" stroke="#00E5FF" stroke-width="1.2" /><polygon fill="none" points="414,369 421,370 424,379 429,381 431,390 436,395 448,395 448,391 446,396 438,396 437,391 431,389 429,380 424,378 421,369" stroke="#00E5FF" stroke-width="1.2" /><polygon fill="none" points="450,333 432,335 419,352 415,351 418,355 414,357 433,335" stroke="#00E5FF" stroke-width="1.2" /></svg>