<?xml version="1.0" encoding="utf-8" ?>
<svg baseProfile="tiny" height="512px" version="1.2" viewBox="0,0,512,512" width="512px" xmlns="http://www.w3.org/2000/svg" xmlns:ev="http://www.w3.org/2001/xml-events" xmlns:xlink="http://www.w3.org/1999/xlink"><defs /><polygon fill="none" points="318,206 309,217 313,233 318,237 335,237 344,226 342,211 333,205" stroke="#00E5FF" stroke-width="1.2" /><polygon fill="none" points="351,197 351,239 360,238 362,226 372,238 381,238 370,220 381,207 369,207 361,215 360,198" stroke="#00E5FF" stroke-width="1.2" /><polygon fill="none" points="145,281 138,291 141,307 150,312 166,312 165,308 148,306 143,300 143,291 151,283 163,284 168,291 167,299 164,298 163,288 152,287 148,290 147,300 151,304 166,305 173,299 172,286 164,279 153,278" stroke="#00E5FF" stroke-width="1.2" /><polygon fill="none" points="378,278 365,291 363,300 375,301 378,307 381,307 387,296 383,292 384,281" stroke="#00E5FF" stroke-width="1.2" /><polygon fill="none" points="342,278 338,286 343,286 347,282 352,286 339,299 339,307 358,307 358,302 346,300 357,290 357,281 354,278" stroke="#00E5FF" stroke-width="1.2" /><polygon fill="none" points="273,286 272,290 283,291 271,297 271,304 274,307 289,306 287,286" stroke="#00E5FF" stroke-width="1.2" /><polygon fill="none" points="233,210 233,237 241,238 242,211" stroke="#00E5FF" stroke-width="1.2" /><polygon fill="none" points="218,279 211,288 216,293 216,304 225,307 221,293 226,286" stroke="#00E5FF" stroke-width="1.2" /><polygon fill="none" points="267,285 254,287 255,306 260,305 260,294" stroke="#00E5FF" stroke-width="1.2" /><polygon fill="none" points="192,309 195,313 211,312 208,308" stroke="#00E5FF" stroke-width="1.2" /><polygon fill="none" points="237,197 233,200 233,205 239,207 243,202" stroke="#00E5FF" stroke-width="1.2" /><polygon fill="none" points="162,182 150,182 150,236 138,244 129,236 129,228 142,220 141,211 142,219 129,227 129,237 135,243 144,242 151,236 151,182 161,182 165,192 180,203 177,210 180,209 180,202 165,191" stroke="#00E5FF" stroke-width="1.2" /></svg>