<?xml version="1.0" encoding="UTF-8"?>
<!-- Generator: visioncortex VTracer 0.6.4 -->
<svg version="1.1" xmlns="http://www.w3.org/2000/svg" width="1024" height="1024">
<path d="M0,0 L1024,0 L1024,1024 L0,1024 Z " fill="#000000" transform="translate(0,0)"/>
<path d="M0,0 L6,0 L6,2 L8,2 L8,0 L38,0 L38,2 L46,2 L46,4 L58,4 L58,6 L66,6 L66,8 L68,8 L68,6 L78,6 L78,8 L96,8 L96,6 L102,6 L102,8 L138,8 L138,10 L158,10 L158,12 L178,12 L178,14 L188,14 L188,12 L202,12 L202,14 L208,14 L208,16 L214,16 L214,18 L220,18 L222,21 L228,22 L230,25 L262,26 L266,30 L266,34 L270,34 L270,40 L268,40 L268,42 L270,42 L270,48 L272,48 L272,54 L276,56 L278,60 L280,60 L280,64 L282,64 L282,70 L284,70 L284,74 L286,74 L286,80 L288,80 L288,90 L290,90 L290,100 L288,100 L288,106 L290,106 L290,112 L292,112 L292,116 L294,116 L294,122 L296,122 L296,126 L302,126 L302,130 L310,130 L310,134 L314,134 L314,136 L316,136 L316,142 L318,142 L318,144 L320,144 L320,152 L322,152 L322,158 L324,158 L324,170 L322,170 L322,174 L324,174 L324,186 L322,186 L322,190 L320,190 L320,200 L318,200 L318,202 L316,202 L316,204 L312,204 L312,206 L310,206 L310,208 L302,208 L302,210 L298,210 L298,216 L296,216 L296,220 L294,220 L294,224 L292,224 L292,228 L290,228 L290,232 L288,232 L288,238 L286,238 L286,252 L284,252 L284,262 L282,262 L282,284 L280,284 L280,286 L278,286 L278,288 L276,288 L276,292 L274,292 L274,302 L272,302 L272,306 L270,306 L270,310 L268,310 L268,312 L263,316 L262,318 L240,318 L240,316 L212,316 L212,314 L206,314 L206,316 L198,316 L198,314 L196,314 L196,316 L184,316 L184,318 L174,318 L172,314 L156,314 L156,312 L132,312 L132,310 L104,310 L104,312 L88,312 L88,314 L76,314 L76,316 L48,316 L48,314 L42,314 L42,312 L24,312 L24,314 L4,314 L4,312 L-6,312 L-6,310 L-14,310 L-16,306 L-28,306 L-28,304 L-32,304 L-32,306 L-36,306 L-36,308 L-44,308 L-44,306 L-48,306 L-48,304 L-52,304 L-52,302 L-54,302 L-54,298 L-56,298 L-58,293 L-60,292 L-62,287 L-64,286 L-64,266 L-66,266 L-66,250 L-64,250 L-64,228 L-62,228 L-62,222 L-58,222 L-58,214 L-56,214 L-57,198 L-60,196 L-60,188 L-58,188 L-58,182 L-60,182 L-60,180 L-64,180 L-64,176 L-68,176 L-68,174 L-72,174 L-72,130 L-74,130 L-74,110 L-72,110 L-72,108 L-74,108 L-74,80 L-72,80 L-72,46 L-70,46 L-70,34 L-68,34 L-68,32 L-66,32 L-66,28 L-64,28 L-64,26 L-60,26 L-60,24 L-58,24 L-58,22 L-54,22 L-52,18 L-48,16 L-48,14 L-44,14 L-44,12 L-28,12 L-28,10 L-24,10 L-24,8 L-20,8 L-20,6 L-16,6 L-16,4 L-8,4 L-8,2 L0,2 Z " fill="#B6536E" transform="translate(378,356)"/>
<path d="M0,0 L6,0 L6,10 L4,10 L4,16 L2,16 L2,18 L-4,18 L-4,20 L-8,20 L-8,24 L-10,24 L-10,34 L-16,34 L-16,42 L-14,42 L-14,48 L-16,48 L-16,50 L-20,50 L-20,214 L-22,214 L-22,216 L-20,216 L-20,234 L-18,234 L-18,240 L-20,240 L-20,246 L-22,246 L-22,250 L-20,250 L-20,290 L-22,290 L-22,300 L-20,300 L-20,304 L-16,304 L-16,316 L-20,316 L-20,318 L-16,318 L-16,328 L-12,328 L-12,334 L-22,334 L-22,336 L-20,336 L-20,338 L-18,338 L-18,342 L-16,342 L-16,352 L-14,352 L-14,346 L-10,346 L-10,342 L-4,342 L-4,346 L0,346 L0,362 L4,362 L4,376 L6,376 L6,382 L4,382 L4,384 L6,384 L6,390 L8,390 L8,406 L12,406 L12,408 L28,408 L28,410 L32,410 L32,412 L34,412 L34,416 L44,416 L44,420 L48,420 L48,422 L50,422 L50,420 L58,420 L58,430 L62,432 L64,434 L64,440 L66,440 L66,438 L74,438 L74,440 L84,440 L84,442 L88,442 L88,444 L92,444 L92,442 L98,442 L98,444 L142,444 L142,442 L150,442 L150,444 L162,444 L162,442 L198,442 L198,440 L204,440 L204,442 L214,442 L214,444 L220,444 L220,442 L242,442 L242,440 L248,440 L248,442 L250,442 L250,446 L252,446 L252,440 L258,440 L258,444 L274,444 L274,442 L282,442 L282,444 L322,444 L322,442 L330,442 L330,440 L340,440 L340,442 L344,442 L344,446 L346,446 L346,442 L364,442 L364,440 L382,440 L382,442 L390,442 L390,444 L394,444 L394,442 L396,442 L396,440 L404,440 L404,442 L406,442 L406,440 L412,440 L412,442 L416,442 L416,436 L422,436 L422,442 L424,442 L424,440 L426,440 L426,436 L428,436 L428,434 L426,434 L426,430 L424,430 L424,424 L432,424 L432,422 L442,422 L442,420 L470,420 L470,424 L474,424 L474,426 L480,426 L480,430 L482,430 L482,440 L480,440 L480,442 L476,446 L472,446 L472,448 L468,448 L468,452 L464,452 L464,454 L436,454 L436,456 L434,456 L434,458 L426,458 L426,460 L424,460 L424,462 L418,462 L418,466 L414,466 L414,470 L408,470 L408,472 L406,472 L406,488 L408,488 L408,490 L410,490 L410,498 L408,498 L408,500 L406,500 L406,504 L404,504 L404,506 L398,506 L398,504 L396,504 L396,506 L382,506 L382,498 L386,498 L386,494 L374,494 L374,498 L376,498 L376,504 L372,504 L372,506 L352,506 L352,508 L348,508 L348,510 L342,510 L342,508 L338,508 L338,506 L308,506 L308,508 L304,508 L304,510 L280,510 L280,508 L276,508 L276,510 L270,510 L270,508 L260,508 L260,510 L244,510 L244,512 L240,512 L240,514 L212,514 L212,516 L206,516 L206,512 L200,512 L200,510 L196,510 L196,514 L182,514 L182,512 L150,512 L150,510 L134,510 L134,508 L130,508 L130,506 L122,506 L122,502 L74,502 L74,498 L70,498 L70,490 L82,490 L82,482 L74,482 L74,478 L62,478 L62,474 L34,474 L34,470 L30,470 L30,466 L26,466 L26,462 L14,462 L14,458 L-6,458 L-6,460 L-8,460 L-8,462 L-14,462 L-14,458 L-22,458 L-22,454 L-26,454 L-26,450 L-28,450 L-28,448 L-30,448 L-30,444 L-32,444 L-32,440 L-34,440 L-34,396 L-32,396 L-32,392 L-30,392 L-31,334 L-34,332 L-34,316 L-32,316 L-32,312 L-30,312 L-30,304 L-32,304 L-32,300 L-34,300 L-34,284 L-32,284 L-32,280 L-30,280 L-30,272 L-32,272 L-32,268 L-34,268 L-34,244 L-36,244 L-36,234 L-34,234 L-34,216 L-32,216 L-32,206 L-30,206 L-30,108 L-28,104 L-30,104 L-30,64 L-28,64 L-28,60 L-26,60 L-26,36 L-28,36 L-28,32 L-30,32 L-30,24 L-28,24 L-28,20 L-26,20 L-26,12 L-24,12 L-24,8 L-22,8 L-22,6 L-10,6 L-10,4 L-8,4 L-8,2 L0,2 Z " fill="#3B0006" transform="translate(236,308)"/>
<path d="M0,0 L14,0 L14,4 L22,4 L22,6 L26,6 L26,8 L30,8 L30,12 L32,12 L32,16 L36,16 L36,32 L34,32 L34,34 L32,34 L32,36 L34,36 L34,40 L46,40 L46,42 L56,42 L56,40 L78,40 L78,44 L82,44 L82,50 L78,50 L78,52 L82,52 L82,54 L84,54 L84,60 L81,62 L80,66 L74,66 L74,68 L66,68 L66,70 L64,70 L64,72 L52,72 L52,70 L44,70 L44,66 L42,66 L42,70 L36,70 L36,64 L28,64 L28,60 L26,60 L26,62 L20,62 L20,60 L10,60 L10,56 L2,56 L2,58 L0,58 L0,60 L-24,60 L-24,54 L-12,54 L-12,50 L-18,50 L-18,48 L-22,48 L-22,44 L-26,44 L-26,50 L-36,50 L-36,54 L-44,54 L-44,56 L-40,56 L-40,62 L-50,62 L-50,66 L-56,66 L-56,68 L-58,68 L-58,70 L-62,70 L-62,72 L-94,72 L-94,74 L-124,74 L-124,76 L-140,76 L-140,74 L-144,74 L-144,76 L-150,76 L-150,74 L-176,74 L-176,72 L-182,72 L-182,74 L-204,74 L-204,68 L-202,68 L-202,66 L-196,66 L-196,64 L-188,64 L-188,62 L-176,62 L-176,60 L-170,60 L-170,62 L-154,62 L-154,60 L-152,60 L-152,58 L-148,58 L-148,54 L-144,54 L-144,50 L-140,50 L-140,46 L-130,46 L-130,44 L-124,44 L-124,46 L-114,46 L-114,42 L-94,42 L-94,44 L-88,44 L-88,42 L-36,42 L-36,40 L-32,40 L-32,38 L-24,38 L-24,34 L-32,34 L-32,26 L-36,26 L-36,14 L-32,14 L-32,10 L-24,10 L-24,8 L-20,8 L-20,6 L-12,6 L-12,4 L-4,4 L-4,2 L0,2 Z " fill="#3C0007" transform="translate(510,200)"/>
<path d="M0,0 L6,0 L6,2 L8,2 L8,0 L38,0 L38,2 L46,2 L46,3 L38,3 L38,5 L32,7 L28,6 L28,4 L12,4 L12,6 L10,6 L10,9 L7,8 L7,6 L0,6 L-6,8 L-14,10 L-13,13 L-15,17 L-21,22 L-21,27 L-26,28 L-26,24 L-24,24 L-24,22 L-29,24 L-30,27 L-34,27 L-38,24 L-36,16 L-42,18 L-47,23 L-50,28 L-52,29 L-52,27 L-56,29 L-58,31 L-58,29 L-63,34 L-65,39 L-65,47 L-67,50 L-66,60 L-65,75 L-66,82 L-62,82 L-61,86 L-65,85 L-65,87 L-69,89 L-69,108 L-67,109 L-68,111 L-69,130 L-67,131 L-67,170 L-63,173 L-63,175 L-59,177 L-56,179 L-56,181 L-53,182 L-53,187 L-55,190 L-54,195 L-52,197 L-52,214 L-53,221 L-55,224 L-57,224 L-58,231 L-59,232 L-59,244 L-58,246 L-59,251 L-59,283 L-58,287 L-55,288 L-49,299 L-40,303 L-33,300 L-18,300 L-18,302 L-14,303 L-10,304 L-10,306 L-3,307 L6,308 L10,307 L10,309 L27,307 L38,308 L38,306 L45,308 L47,308 L48,306 L50,311 L58,312 L58,310 L55,309 L64,308 L86,308 L92,307 L103,307 L104,306 L138,306 L138,308 L142,308 L142,305 L147,305 L148,308 L157,308 L163,309 L167,308 L167,310 L175,308 L182,308 L190,306 L206,307 L209,309 L213,309 L213,311 L215,311 L215,309 L220,310 L222,306 L223,308 L238,309 L242,310 L242,312 L256,311 L255,313 L261,312 L261,306 L264,304 L267,299 L269,296 L269,291 L267,292 L265,286 L267,284 L268,277 L264,279 L264,276 L266,276 L266,274 L268,274 L269,265 L272,256 L274,256 L276,252 L276,232 L278,226 L280,226 L281,222 L284,223 L282,226 L282,230 L284,230 L285,226 L287,225 L286,220 L291,217 L294,209 L300,204 L309,202 L310,200 L315,199 L314,191 L317,187 L319,187 L319,189 L321,189 L319,176 L316,176 L317,169 L319,169 L319,160 L317,155 L316,155 L315,146 L312,144 L310,138 L306,136 L304,136 L304,134 L301,133 L301,131 L296,132 L296,129 L301,129 L301,127 L296,127 L296,126 L302,126 L302,130 L310,130 L310,134 L314,134 L314,136 L316,136 L316,142 L318,142 L318,144 L320,144 L320,152 L322,152 L322,158 L324,158 L324,170 L322,170 L322,174 L324,174 L324,186 L322,186 L322,190 L320,190 L320,200 L318,200 L318,202 L316,202 L316,204 L312,204 L312,206 L310,206 L310,208 L302,208 L302,210 L298,210 L298,216 L296,216 L296,220 L294,220 L294,224 L292,224 L292,228 L290,228 L290,232 L288,232 L288,238 L286,238 L286,252 L284,252 L284,262 L282,262 L282,284 L280,284 L280,286 L278,286 L278,288 L276,288 L276,292 L274,292 L274,302 L272,302 L272,306 L270,306 L270,310 L268,310 L268,312 L263,316 L262,318 L240,318 L240,316 L212,316 L212,314 L206,314 L206,316 L198,316 L198,314 L196,314 L196,316 L184,316 L184,318 L174,318 L172,314 L156,314 L156,312 L132,312 L132,310 L104,310 L104,312 L88,312 L88,314 L76,314 L76,316 L48,316 L48,314 L42,314 L42,312 L24,312 L24,314 L4,314 L4,312 L-6,312 L-6,310 L-14,310 L-16,306 L-28,306 L-28,304 L-32,304 L-32,306 L-36,306 L-36,308 L-44,308 L-44,306 L-48,306 L-48,304 L-52,304 L-52,302 L-54,302 L-54,298 L-56,298 L-58,293 L-60,292 L-62,287 L-64,286 L-64,266 L-66,266 L-66,250 L-64,250 L-64,228 L-62,228 L-62,222 L-58,222 L-58,214 L-56,214 L-57,198 L-60,196 L-60,188 L-58,188 L-58,182 L-60,182 L-60,180 L-64,180 L-64,176 L-68,176 L-68,174 L-72,174 L-72,130 L-74,130 L-74,110 L-72,110 L-72,108 L-74,108 L-74,80 L-72,80 L-72,46 L-70,46 L-70,34 L-68,34 L-68,32 L-66,32 L-66,28 L-64,28 L-64,26 L-60,26 L-60,24 L-58,24 L-58,22 L-54,22 L-52,18 L-48,16 L-48,14 L-44,14 L-44,12 L-28,12 L-28,10 L-24,10 L-24,8 L-20,8 L-20,6 L-16,6 L-16,4 L-8,4 L-8,2 L0,2 Z M288,221 Z M262,288 L264,290 L261,292 Z M264,288 Z M92,305 Z M258,308 Z M256,309 L258,310 L256,311 Z " fill="#96465D" transform="translate(378,356)"/>
<path d="M0,0 L6,0 L6,10 L4,10 L4,16 L2,16 L2,18 L-4,18 L-4,20 L-8,20 L-8,24 L-10,24 L-10,34 L-16,34 L-16,42 L-14,42 L-14,48 L-16,48 L-16,50 L-20,50 L-20,214 L-21,214 L-22,143 L-22,124 L-24,124 L-24,136 L-25,141 L-25,145 L-27,145 L-27,172 L-28,180 L-28,215 L-29,215 L-29,207 L-31,207 L-31,216 L-32,216 L-32,206 L-30,206 L-30,108 L-28,104 L-30,104 L-30,64 L-28,64 L-28,60 L-26,60 L-26,36 L-28,36 L-28,32 L-30,32 L-30,24 L-28,24 L-28,20 L-26,20 L-26,12 L-24,12 L-24,8 L-22,8 L-22,6 L-10,6 L-10,4 L-8,4 L-8,2 L0,2 Z " fill="#360005" transform="translate(236,308)"/>
<path d="M0,0 L12,0 L12,2 L20,2 L20,4 L22,4 L22,2 L32,2 L32,4 L50,4 L50,2 L56,2 L56,4 L92,4 L92,6 L112,6 L112,8 L132,8 L132,10 L142,10 L142,8 L156,8 L156,10 L162,10 L162,12 L168,12 L168,14 L174,14 L176,17 L182,18 L184,21 L216,22 L220,26 L220,30 L224,30 L224,36 L222,36 L222,38 L224,38 L224,44 L226,44 L226,50 L230,52 L232,56 L234,56 L234,60 L236,60 L236,66 L238,66 L238,70 L240,70 L240,76 L242,76 L242,86 L244,86 L244,96 L242,96 L242,102 L244,102 L244,108 L246,108 L246,112 L248,112 L248,118 L250,118 L249,122 L249,119 L247,119 L246,122 L247,113 L245,113 L244,116 L242,113 L238,103 L237,95 L239,95 L238,87 L238,82 L235,81 L235,73 L233,74 L230,71 L230,61 L227,56 L225,55 L225,53 L223,53 L219,40 L218,35 L217,32 L215,28 L207,27 L204,27 L192,26 L192,28 L189,28 L189,26 L184,27 L181,24 L178,25 L178,22 L173,20 L153,13 L145,13 L141,15 L132,15 L128,13 L118,14 L118,12 L111,12 L106,10 L104,15 L100,14 L101,11 L97,11 L96,13 L94,13 L93,11 L90,11 L90,9 L86,10 L86,8 L78,10 L73,9 L66,10 L61,9 L57,10 L57,8 L52,9 L52,7 L50,8 L31,8 L30,7 L25,7 L20,11 L18,8 L14,9 L12,12 L10,12 L7,8 L4,9 L4,7 L2,7 L2,4 L0,3 L11,3 L11,1 L0,1 Z M31,6 Z M155,12 Z " fill="#924254" transform="translate(424,360)"/>
<path d="M0,0 L2,0 L3,19 L3,90 L2,92 L4,92 L4,110 L6,110 L6,116 L4,116 L4,122 L2,122 L2,126 L4,126 L4,166 L1,165 L0,156 L-5,156 L-5,147 L-7,147 L-7,144 L-10,144 L-10,120 L-12,120 L-12,110 L-10,110 L-10,92 L-7,92 L-7,83 L-5,82 L-5,56 L-4,48 L-3,21 L-1,21 L-2,13 L-1,12 Z " fill="#3A000E" transform="translate(212,432)"/>
<path d="M0,0 L6,0 L6,2 L8,2 L8,0 L38,0 L38,2 L46,2 L46,3 L38,3 L38,5 L32,7 L28,6 L28,4 L12,4 L12,6 L10,6 L10,9 L7,8 L7,6 L0,6 L-6,8 L-14,10 L-13,13 L-15,17 L-21,22 L-21,27 L-26,28 L-26,24 L-24,24 L-24,22 L-29,24 L-30,27 L-34,27 L-38,24 L-36,16 L-42,18 L-47,23 L-50,28 L-52,29 L-52,27 L-56,29 L-58,31 L-58,29 L-63,34 L-65,39 L-65,47 L-67,49 L-68,81 L-69,83 L-71,83 L-71,81 L-73,81 L-72,108 L-74,108 L-74,80 L-72,80 L-72,46 L-70,46 L-70,34 L-68,34 L-68,32 L-66,32 L-66,28 L-64,28 L-64,26 L-60,26 L-60,24 L-58,24 L-58,22 L-54,22 L-52,18 L-48,16 L-48,14 L-44,14 L-44,12 L-28,12 L-28,10 L-24,10 L-24,8 L-20,8 L-20,6 L-16,6 L-16,4 L-8,4 L-8,2 L0,2 Z " fill="#A04659" transform="translate(378,356)"/>
<path d="M0,0 L6,0 L6,2 L16,2 L16,4 L22,4 L22,2 L44,2 L44,0 L50,0 L50,2 L52,2 L52,6 L54,6 L54,0 L60,0 L60,4 L83,3 L83,5 L76,8 L66,8 L59,7 L59,5 L57,5 L55,10 L49,7 L48,5 L42,6 L26,6 L21,7 L20,9 L20,7 L13,9 L10,12 L0,13 L-2,13 L-2,11 L-6,11 L-6,9 L-8,9 L-8,5 L-10,6 L-21,6 L-21,8 L-27,9 L-28,11 L-30,10 L-35,7 L-40,7 L-39,10 L-40,12 L-44,12 L-44,9 L-49,9 L-50,6 L-56,8 L-66,7 L-72,6 L-72,5 L-57,4 L-56,2 L-48,2 L-48,4 L-36,4 L-36,2 L0,2 Z " fill="#4D0015" transform="translate(434,748)"/>
<path d="M0,0 L5,1 L7,3 L15,2 L17,3 L35,4 L35,1 L73,2 L73,3 L43,3 L43,5 L39,5 L39,7 L15,7 L15,5 L11,5 L11,7 L5,7 L5,5 L-5,5 L-5,7 L-21,7 L-21,9 L-25,9 L-25,11 L-53,11 L-53,13 L-59,13 L-59,9 L-65,9 L-65,7 L-69,7 L-69,11 L-83,11 L-83,9 L-115,9 L-115,7 L-131,7 L-131,5 L-135,4 L-129,3 L-116,4 L-111,6 L-111,3 L-109,3 L-109,5 L-107,5 L-107,3 L-105,3 L-105,5 L-99,5 L-99,3 L-97,3 L-97,5 L-95,5 L-95,3 L-93,3 L-93,5 L-91,5 L-91,3 L-89,3 L-89,5 L-82,5 L-81,8 L-82,10 L-70,10 L-69,4 L-66,2 L-65,4 L-59,6 L-58,10 L-52,7 L-25,7 L-22,8 L-22,6 L-25,5 L-9,3 L-5,2 Z M-81,5 Z " fill="#320000" transform="translate(501,811)"/>
<path d="M0,0 L3,1 L1,4 L2,10 L1,15 L2,39 L0,40 L0,61 L-2,61 L-2,56 L-4,56 L-6,63 L-4,63 L-4,65 L-6,66 L-6,69 L-8,69 L-8,67 L-10,67 L-11,69 L-14,70 L-16,64 L-14,62 L-13,55 L-17,57 L-17,54 L-15,54 L-15,52 L-13,52 L-12,43 L-9,34 L-7,34 L-5,30 L-5,10 L-3,4 L-1,4 Z M-19,66 L-17,68 L-20,70 Z M-17,66 Z " fill="#A34D62" transform="translate(659,578)"/>
<path d="M0,0 L6,0 L6,1 L1,1 L1,3 L5,4 L-9,3 L-9,7 L-13,7 L-13,11 L-17,11 L-18,18 L-22,18 L-22,21 L-26,23 L-31,22 L-30,27 L-45,27 L-45,29 L-20,29 L-20,30 L-46,30 L-46,28 L-52,28 L-52,30 L-74,30 L-74,24 L-72,24 L-72,22 L-66,22 L-66,20 L-58,20 L-58,18 L-46,18 L-46,16 L-40,16 L-40,18 L-24,18 L-24,16 L-22,16 L-22,14 L-18,14 L-18,10 L-14,10 L-14,6 L-10,6 L-10,2 L0,2 Z " fill="#360001" transform="translate(380,244)"/>
<path d="M0,0 L12,0 L12,2 L20,2 L20,4 L22,4 L22,2 L32,2 L32,4 L50,4 L50,2 L56,2 L56,4 L92,4 L92,7 L111,7 L111,9 L98,10 L96,13 L94,13 L93,11 L90,11 L90,9 L86,10 L86,8 L78,10 L73,9 L66,10 L61,9 L57,10 L57,8 L52,9 L52,7 L50,8 L31,8 L30,7 L25,7 L20,11 L18,8 L14,9 L12,12 L10,12 L7,8 L4,9 L4,7 L2,7 L2,4 L0,3 L11,3 L11,1 L0,1 Z M31,6 Z " fill="#944556" transform="translate(424,360)"/>
<path d="M0,0 L18,1 L21,3 L25,3 L25,5 L27,5 L27,3 L32,4 L34,0 L35,2 L50,3 L54,4 L54,6 L68,5 L66,8 L57,8 L53,7 L52,9 L24,9 L18,8 L18,10 L10,10 L10,8 L8,9 L-15,9 L-16,7 L-31,7 L-31,5 L-22,5 L-21,2 L-21,4 L-13,2 L-6,2 Z M70,2 Z M68,3 L70,4 L68,5 Z " fill="#A14761" transform="translate(566,662)"/>
<path d="M0,0 L4,1 L1,1 L1,3 L3,4 L-15,3 L-15,5 L0,5 L0,6 L-13,7 L-19,12 L-21,17 L-24,19 L-24,17 L-28,19 L-30,21 L-30,19 L-35,24 L-37,29 L-37,37 L-39,39 L-40,71 L-41,73 L-43,73 L-43,71 L-45,71 L-44,98 L-46,98 L-46,70 L-44,70 L-44,36 L-42,36 L-42,24 L-40,24 L-40,22 L-38,22 L-38,18 L-36,18 L-36,16 L-32,16 L-32,14 L-30,14 L-30,12 L-26,12 L-24,8 L-20,6 L-20,4 L-16,4 L-16,2 L0,2 Z " fill="#924358" transform="translate(350,366)"/>
<path d="M0,0 L8,0 L8,1 L1,1 L1,3 L3,4 L-3,3 L-3,5 L-1,6 L-11,5 L-11,9 L-15,9 L-15,19 L-11,19 L-11,27 L-3,27 L-1,28 L-2,33 L-4,36 L-2,38 L-6,38 L-6,44 L-16,44 L-16,43 L-7,43 L-7,38 L-9,38 L-9,41 L-42,40 L-67,40 L-74,39 L-74,38 L-68,38 L-68,36 L-16,36 L-16,34 L-12,34 L-12,32 L-4,32 L-4,28 L-12,28 L-12,20 L-16,20 L-16,8 L-12,8 L-12,4 L-4,4 L-4,2 L0,2 Z " fill="#320005" transform="translate(490,206)"/>
<path d="M0,0 L2,0 L2,5 L6,6 L9,9 L9,11 L11,11 L11,15 L13,15 L13,21 L15,21 L15,25 L17,25 L17,31 L19,31 L19,41 L21,41 L21,51 L19,51 L19,57 L21,57 L21,63 L23,63 L23,67 L25,67 L25,73 L27,73 L26,77 L26,74 L24,74 L23,77 L24,68 L22,68 L21,71 L19,68 L15,58 L14,50 L16,50 L15,42 L15,37 L12,36 L12,28 L10,29 L7,26 L7,16 L4,11 L2,10 L2,8 L0,8 L-1,2 Z " fill="#924D5E" transform="translate(647,405)"/>
<path d="M0,0 L6,2 L3,3 L3,6 L8,6 L8,4 L10,4 L9,8 L13,8 L13,11 L17,12 L25,12 L25,14 L28,15 L28,17 L13,16 L13,12 L5,12 L5,14 L3,14 L3,16 L-21,16 L-21,10 L-9,10 L-9,5 L-14,5 L-14,3 Z " fill="#42000C" transform="translate(507,244)"/>
<path d="M0,0 L10,0 L10,2 L14,2 L14,6 L16,6 L16,2 L34,2 L34,0 L52,0 L52,3 L59,3 L59,5 L44,5 L44,3 L35,5 L34,6 L18,6 L17,9 L13,12 L10,12 L10,4 L2,4 L-1,6 L-6,7 L-10,9 L-18,9 L-24,8 L-44,7 L-48,5 L-8,5 L-8,2 L0,2 Z " fill="#430010" transform="translate(566,748)"/>
<path d="M0,0 L1,0 L1,10 L-1,10 L-1,32 L-3,32 L-3,34 L-5,34 L-5,36 L-7,36 L-7,40 L-9,40 L-9,50 L-11,50 L-11,54 L-13,54 L-13,58 L-15,58 L-15,60 L-20,64 L-21,66 L-43,66 L-43,64 L-71,64 L-71,63 L-43,63 L-42,60 L-38,61 L-25,61 L-22,60 L-22,54 L-19,52 L-16,47 L-14,44 L-12,37 L-10,37 L-10,39 L-8,39 L-9,34 L-6,35 L-6,33 L-8,33 L-7,28 L-6,26 L-4,26 L-4,31 L-2,31 L-3,1 L-2,1 L-2,9 L0,9 Z " fill="#8F3B54" transform="translate(661,608)"/>
<path d="M0,0 L1,3 L4,3 L4,13 L6,13 L6,7 L10,7 L10,3 L16,3 L16,7 L20,7 L20,23 L24,23 L24,37 L26,37 L26,43 L24,43 L24,45 L26,45 L27,51 L27,67 L25,67 L24,61 L25,52 L23,52 L21,42 L23,42 L23,38 L21,38 L20,35 L20,28 L19,23 L17,23 L16,13 L16,8 L14,8 L14,6 L10,10 L8,14 L7,16 L3,16 L3,13 L-3,14 L-5,15 L-4,4 Z " fill="#3A000E" transform="translate(216,647)"/>
<path d="M0,0 L5,0 L8,3 L14,2 L13,7 L9,7 L9,9 L-23,9 L-23,11 L-53,12 L-68,12 L-67,10 L-54,9 L-51,8 L-51,4 L-49,4 L-49,8 L-47,8 L-47,4 L-45,4 L-45,8 L-39,8 L-39,4 L-37,4 L-37,8 L-35,8 L-35,4 L-33,4 L-33,8 L-25,7 L-24,6 L-11,5 L-1,6 L-1,1 Z " fill="#450009" transform="translate(439,263)"/>
<path d="M0,0 L3,0 L3,6 L2,13 L6,12 L6,6 L7,6 L7,22 L5,22 L3,29 L5,29 L5,31 L3,32 L3,35 L1,35 L1,33 L-1,33 L-2,35 L-5,36 L-7,30 L-5,28 L-4,21 L-8,23 L-8,20 L-6,20 L-6,18 L-4,18 L-3,9 Z M-10,32 L-8,34 L-11,36 Z M-8,32 Z " fill="#A94A62" transform="translate(650,612)"/>
<path d="M0,0 L5,0 L6,3 L15,3 L21,4 L24,5 L24,6 L15,6 L15,8 L33,7 L31,8 L32,9 L42,9 L54,10 L54,11 L42,11 L42,13 L32,13 L30,9 L14,9 L14,7 L-10,7 L-10,5 L-38,5 L-38,4 L-10,4 L-10,2 L-4,1 L-4,3 L0,3 Z " fill="#914259" transform="translate(520,661)"/>
<path d="M0,0 L5,4 L6,7 L2,12 L10,12 L12,16 L-2,16 L-2,8 L2,8 L2,4 L-10,4 L-10,8 L-8,8 L-8,14 L-12,14 L-12,16 L-32,16 L-32,18 L-36,17 L-33,17 L-33,15 L-35,14 L-32,13 L-12,12 L-13,4 L-10,1 Z " fill="#330001" transform="translate(620,798)"/>
<path d="M0,0 L8,0 L8,2 L12,2 L12,6 L16,8 L16,10 L20,10 L20,16 L8,16 L6,12 L0,12 L0,10 L-2,10 L-2,4 L0,4 Z " fill="#350006" transform="translate(628,258)"/>
<path d="M0,0 L20,0 L20,2 L40,2 L40,4 L50,4 L50,2 L64,2 L64,3 L51,3 L51,6 L53,7 L49,9 L40,9 L36,7 L26,8 L26,6 L19,6 L14,4 L12,9 L8,8 L9,5 L6,3 L19,3 L19,1 L0,1 Z " fill="#974457" transform="translate(516,366)"/>
<path d="M0,0 L1,0 L1,33 L3,33 L3,0 L4,0 L4,34 L2,34 L2,62 L4,62 L4,64 L2,64 L2,84 L4,84 L4,128 L3,128 L3,85 L1,85 L1,128 L0,128 Z " fill="#13090C" transform="translate(302,402)"/>
<path d="M0,0 L9,0 L9,3 L14,3 L14,5 L16,5 L16,3 L24,3 L24,13 L28,15 L30,17 L30,23 L32,23 L32,21 L40,21 L40,24 L49,24 L49,27 L40,28 L39,24 L34,24 L34,27 L29,26 L26,23 L24,17 L20,13 L21,6 L17,6 L16,9 L11,7 L10,4 L7,4 L7,2 L0,2 Z " fill="#3B010F" transform="translate(270,725)"/>
<path d="M0,0 L1,0 L1,10 L-1,10 L-1,12 L-5,16 L-9,16 L-9,18 L-13,18 L-13,22 L-17,22 L-17,24 L-45,24 L-45,26 L-47,26 L-47,28 L-55,28 L-55,30 L-57,30 L-57,32 L-63,32 L-61,31 L-61,28 L-57,28 L-56,26 L-48,27 L-48,25 L-50,24 L-48,24 L-48,22 L-45,22 L-44,20 L-17,20 L-14,21 L-14,17 L-10,17 L-10,15 L-13,14 L-8,14 L-9,12 L-2,7 L-1,8 Z " fill="#380006" transform="translate(717,738)"/>
<path d="M0,0 L36,0 L36,2 L55,2 L55,4 L42,5 L40,8 L38,8 L37,6 L34,6 L34,4 L30,5 L30,3 L22,5 L17,4 L10,5 L5,4 L1,5 L1,3 L-4,4 L-3,1 Z " fill="#A0495C" transform="translate(480,365)"/>
<path d="M0,0 L6,0 L6,2 L8,2 L8,0 L38,0 L38,2 L46,2 L46,3 L38,3 L38,5 L32,7 L28,6 L28,4 L12,4 L12,6 L10,6 L10,9 L7,8 L7,6 L0,5 L0,3 L-8,3 L-8,2 L0,2 Z " fill="#A1535F" transform="translate(378,356)"/>
<path d="M0,0 L4,1 L1,1 L1,3 L3,4 L-15,3 L-15,5 L0,5 L0,6 L-13,7 L-19,12 L-21,17 L-24,19 L-24,17 L-28,19 L-30,21 L-30,19 L-36,24 L-36,22 L-38,22 L-38,18 L-36,18 L-36,16 L-32,16 L-32,14 L-30,14 L-30,12 L-26,12 L-24,8 L-20,6 L-20,4 L-16,4 L-16,2 L0,2 Z " fill="#8F394D" transform="translate(350,366)"/>
<path d="M0,0 L1,0 L2,10 L3,25 L2,32 L6,32 L7,36 L3,35 L3,37 L-1,39 L-1,58 L1,59 L0,61 L-1,74 L-2,74 L-2,60 L-4,60 L-5,57 L-5,31 L-3,31 L-3,33 L-1,33 Z " fill="#9F4B62" transform="translate(310,406)"/>
<path d="M0,0 L6,0 L6,2 L8,2 L8,6 L10,6 L10,0 L16,0 L16,4 L39,3 L39,5 L32,8 L22,8 L15,7 L15,5 L13,5 L11,10 L5,7 L4,5 L0,5 L0,3 L-22,3 L-22,2 L0,2 Z " fill="#3E000F" transform="translate(478,748)"/>
<path d="M0,0 L2,2 L3,5 L11,6 L11,4 L8,3 L17,2 L38,2 L40,4 L28,4 L28,9 L1,9 L1,7 L-4,7 L-4,3 L0,2 Z " fill="#9F4A62" transform="translate(425,662)"/>
<path d="M0,0 L32,0 L36,4 L36,8 L40,8 L40,14 L38,14 L38,16 L40,16 L40,22 L42,22 L42,28 L41,28 L41,23 L39,23 L38,25 L34,17 L34,11 L32,10 L31,6 L23,5 L20,5 L8,4 L8,6 L5,6 L5,4 L0,5 L0,3 L31,3 L31,1 L0,1 Z " fill="#863D4D" transform="translate(608,382)"/>
<path d="M0,0 L4,1 L1,1 L1,6 L3,7 L3,21 L2,29 L0,29 L1,44 L-1,44 L-1,64 L-2,64 L-2,44 L-4,44 L-4,28 L-2,28 L-2,6 L0,6 Z " fill="#904359" transform="translate(316,578)"/>
<path d="M0,0 L12,0 L12,1 L1,1 L1,7 L5,7 L5,9 L8,8 L52,9 L53,15 L60,15 L60,16 L52,16 L52,12 L4,12 L4,8 L0,8 Z " fill="#300000" transform="translate(306,798)"/>
<path d="M0,0 L4,1 L6,3 L15,5 L23,6 L24,9 L28,11 L37,12 L37,7 L39,7 L40,13 L39,15 L27,15 L27,13 L19,13 L19,9 L17,9 L17,13 L11,13 L11,7 L3,7 L3,2 L0,1 Z " fill="#3F010D" transform="translate(535,257)"/>
<path d="M0,0 L1,0 L1,12 L-1,12 L-1,16 L-3,16 L-3,26 L-5,26 L-5,28 L-7,28 L-7,30 L-11,30 L-11,32 L-13,32 L-13,34 L-21,34 L-21,36 L-25,35 L-22,35 L-22,33 L-25,32 L-23,30 L-14,28 L-13,26 L-8,25 L-9,17 L-6,13 L-4,13 L-4,15 L-2,15 L-3,6 L-2,6 L-2,11 L0,11 Z " fill="#9A4C5E" transform="translate(701,530)"/>
<path d="M0,0 L8,0 L8,2 L20,2 L20,0 L56,0 L56,1 L21,1 L21,5 L16,5 L17,8 L16,10 L12,10 L12,7 L7,7 L6,4 L0,6 L-10,5 L-16,4 L-16,3 L-1,2 Z " fill="#440010" transform="translate(378,750)"/>
<path d="M0,0 L1,0 L1,10 L3,10 L3,20 L1,20 L1,26 L3,26 L3,32 L5,32 L5,36 L7,36 L7,42 L9,42 L8,46 L8,43 L6,43 L5,46 L6,37 L4,37 L3,40 L1,37 L-3,27 L-4,19 L-2,19 L-3,11 L-3,6 L-2,10 L0,10 Z " fill="#91505F" transform="translate(665,436)"/>
<path d="M0,0 L1,4 L-3,4 L-3,8 L-9,8 L-9,10 L-11,10 L-11,26 L-9,26 L-9,28 L-7,28 L-7,36 L-9,36 L-9,38 L-11,38 L-11,42 L-13,42 L-13,44 L-19,44 L-19,42 L-21,42 L-21,38 L-18,39 L-18,43 L-14,43 L-15,39 L-13,38 L-12,34 L-11,29 L-13,28 L-15,23 L-14,11 L-13,8 L-11,8 L-11,6 L-9,6 L-8,4 L0,3 Z " fill="#300002" transform="translate(653,770)"/>
<path d="M0,0 L4,0 L4,2 L8,2 L8,6 L10,6 L10,10 L14,10 L14,26 L12,26 L12,28 L10,28 L10,30 L12,30 L12,34 L24,34 L24,35 L11,35 L11,31 L9,31 L8,33 L8,26 L10,26 L10,17 L8,17 L8,15 L2,16 L2,10 L5,8 L7,3 L2,4 L3,1 Z " fill="#330007" transform="translate(532,206)"/>
<path d="M0,0 L2,0 L2,5 L-7,5 L-7,10 L-15,10 L-15,12 L-11,12 L-11,18 L-22,18 L-22,21 L-27,21 L-27,19 L-22,15 L-16,15 L-16,11 L-19,12 L-19,9 L-13,6 L-13,2 L0,3 Z " fill="#3C0008" transform="translate(481,244)"/>
<path d="M0,0 L2,0 L2,4 L4,4 L4,0 L6,0 L6,4 L12,4 L12,0 L14,0 L14,4 L16,4 L16,0 L18,0 L18,4 L27,4 L28,7 L-2,8 L-17,8 L-16,6 L-3,5 L0,4 Z " fill="#460004" transform="translate(388,267)"/>
<path d="M0,0 L1,0 L1,10 L-1,10 L-1,32 L-3,32 L-3,34 L-5,34 L-5,36 L-7,36 L-7,40 L-9,40 L-9,50 L-11,50 L-11,54 L-13,54 L-13,58 L-15,58 L-16,60 L-17,57 L-14,57 L-15,51 L-14,53 L-12,53 L-13,50 L-13,39 L-12,37 L-10,37 L-10,39 L-8,39 L-9,34 L-6,35 L-6,33 L-8,33 L-7,28 L-6,26 L-4,26 L-4,31 L-2,31 L-3,1 L-2,1 L-2,9 L0,9 Z " fill="#8B3E52" transform="translate(661,608)"/>
<path d="M0,0 L23,1 L23,5 L36,4 L35,9 L39,9 L39,13 L43,13 L43,17 L71,17 L71,21 L83,21 L83,25 L91,25 L91,34 L90,34 L90,26 L82,26 L82,22 L70,22 L70,18 L42,18 L42,14 L38,14 L38,10 L34,10 L34,6 L22,6 L22,2 L2,2 L2,4 L0,4 L0,6 L-6,6 L-5,2 L-5,5 L-3,4 L-3,2 L0,2 Z " fill="#290001" transform="translate(228,764)"/>
<path d="M0,0 L2,1 L2,3 L0,3 L0,7 L-2,7 L-4,11 L-8,12 L-8,15 L-12,16 L-14,15 L-14,12 L-19,12 L-20,10 L-19,8 L-24,9 L-24,7 L-18,7 L-18,9 L-14,9 L-14,3 L-8,3 L-8,9 L-6,9 L-6,7 L-4,7 L-4,3 L-1,3 Z " fill="#3A000B" transform="translate(666,741)"/>
<path d="M0,0 L5,0 L5,14 L7,14 L7,20 L5,20 L5,22 L7,22 L8,28 L8,44 L6,44 L5,38 L6,29 L4,29 L2,19 L4,19 L4,15 L2,15 L1,12 L1,5 Z " fill="#45011A" transform="translate(235,670)"/>
<path d="M0,0 L6,0 L6,4 L14,4 L14,8 L18,8 L18,10 L20,10 L20,16 L22,16 L22,18 L24,18 L24,26 L23,26 L23,19 L21,19 L21,26 L20,26 L19,20 L16,18 L14,12 L10,10 L8,10 L8,8 L5,7 L5,5 L0,6 L0,3 L5,3 L5,1 L0,1 Z " fill="#A05368" transform="translate(674,482)"/>
<path d="M0,0 L4,0 L5,20 L3,20 L3,63 L6,64 L2,64 L2,20 L0,20 Z " fill="#8A4458" transform="translate(304,466)"/>
<path d="M0,0 Z M-4,1 L0,2 L3,3 L4,1 L3,7 L1,14 L-1,23 L-3,23 L-3,25 L-5,25 L-6,21 L-6,7 L-3,5 L-2,2 Z " fill="#AD4D65" transform="translate(647,607)"/>
<path d="M0,0 L48,1 L48,2 L39,3 L37,5 L4,4 L4,2 L0,2 Z " fill="#3C010D" transform="translate(329,751)"/>
<path d="M0,0 L1,0 L1,16 L-1,16 L-3,23 L-1,23 L-1,25 L-3,26 L-3,29 L-5,29 L-5,27 L-7,27 L-8,29 L-11,30 L-11,25 L-7,20 L-3,10 L-2,6 L0,6 Z " fill="#A1455D" transform="translate(656,618)"/>
<path d="M0,0 L10,0 L10,4 L18,4 L18,6 L14,6 L14,8 L10,8 L10,10 L4,10 L4,12 L2,12 L2,4 L0,4 Z " fill="#060000" transform="translate(500,766)"/>
<path d="M0,0 L6,0 L6,1 L1,1 L1,3 L5,4 L-9,3 L-9,7 L-13,7 L-13,11 L-17,11 L-18,18 L-22,18 L-22,21 L-24,21 L-24,19 L-40,20 L-44,21 L-43,19 L-41,19 L-41,17 L-46,17 L-46,16 L-40,16 L-40,18 L-24,18 L-24,16 L-22,16 L-22,14 L-18,14 L-18,10 L-14,10 L-14,6 L-10,6 L-10,2 L0,2 Z M-39,21 L-24,21 L-26,23 L-39,22 Z " fill="#2D0002" transform="translate(380,244)"/>
<path d="M0,0 L1,2 L0,7 L-1,7 L-1,1 Z M-3,7 L-1,7 L0,34 L0,39 L0,43 L-4,42 L-4,22 L-3,21 Z " fill="#9E4A61" transform="translate(319,600)"/>
<path d="M0,0 L10,1 L10,2 L3,4 L-3,6 L-15,6 L-16,7 L-31,7 L-31,5 L-22,5 L-21,2 L-21,4 L-13,2 L-6,2 Z " fill="#A14962" transform="translate(566,662)"/>
<path d="M0,0 L1,0 L1,15 L3,15 L4,13 L3,19 L5,19 L6,17 L6,31 L5,29 L3,29 L5,35 L4,36 L4,48 L2,49 L0,48 L0,32 L2,32 L2,28 L4,28 L4,20 L2,20 L2,16 L0,16 Z " fill="#2F0006" transform="translate(202,592)"/>
<path d="M0,0 Z M-28,1 L-20,1 L-16,2 L-16,4 L-2,3 L-4,6 L-13,6 L-18,5 L-45,5 L-45,4 L-36,3 L-35,2 Z M-2,1 L0,2 L-2,3 Z " fill="#9D435D" transform="translate(636,664)"/>
<path d="M0,0 L20,0 L20,2 L30,2 L30,0 L44,0 L44,1 L31,1 L31,4 L33,5 L29,7 L20,7 L17,4 L19,4 L19,1 L0,1 Z " fill="#8C4151" transform="translate(536,368)"/>
<path d="M0,0 L6,0 L8,4 L39,4 L39,6 L6,6 L3,6 L2,3 L0,3 Z " fill="#A44A5F" transform="translate(600,379)"/>
<path d="M0,0 L12,0 L12,6 L10,6 L10,8 L0,8 Z " fill="#320004" transform="translate(438,218)"/>
<path d="M0,0 L6,0 L10,3 L9,10 L4,11 L4,7 L-2,7 L-3,2 Z " fill="#320001" transform="translate(343,778)"/>
<path d="M0,0 L2,0 L2,17 L5,17 L5,23 L2,23 L2,28 L0,28 L-1,24 L-1,7 Z " fill="#410014" transform="translate(213,525)"/>
<path d="M0,0 L14,0 L14,4 L22,4 L22,5 L4,5 L-3,3 L-2,6 L-12,5 L-12,4 L-4,4 L-4,2 L0,2 Z " fill="#31000B" transform="translate(510,200)"/>
<path d="M0,0 L4,1 L1,1 L1,3 L3,4 L-15,3 L-15,5 L0,5 L0,6 L-13,7 L-18,11 L-21,11 L-21,9 L-25,10 L-22,6 L-20,6 L-20,4 L-16,4 L-16,2 L0,2 Z " fill="#8D3C4D" transform="translate(350,366)"/>
<path d="M0,0 L1,0 L2,9 L0,10 L0,13 L-2,14 L-3,17 L-11,18 L-10,16 L-8,16 L-8,10 L-5,8 L-2,3 Z " fill="#9F455D" transform="translate(647,652)"/>
<path d="M0,0 L10,0 L10,2 L14,2 L14,6 L16,6 L16,2 L34,2 L34,3 L17,3 L18,8 L13,12 L10,12 L10,4 L8,3 L9,1 L0,1 Z " fill="#3B0010" transform="translate(566,748)"/>
<path d="M0,0 L28,0 L28,3 L0,3 Z " fill="#A24A64" transform="translate(482,662)"/>
<path d="M0,0 L1,0 L1,12 L-1,12 L-1,16 L-3,16 L-3,26 L-5,26 L-6,28 L-8,21 L-9,17 L-6,13 L-4,13 L-4,15 L-2,15 L-3,6 L-2,6 L-2,11 L0,11 Z " fill="#8F4759" transform="translate(701,530)"/>
<path d="M0,0 L38,1 L38,2 L8,2 L8,4 L4,4 L4,6 L-20,6 L-20,5 L3,5 L3,3 L0,3 Z " fill="#2B0001" transform="translate(536,812)"/>
<path d="M0,0 L1,0 L2,28 L1,52 L0,52 L0,28 L-2,28 L-2,18 L0,18 Z " fill="#2D0009" transform="translate(202,524)"/>
<path d="M0,0 L2,1 L2,40 L6,43 L6,45 L10,47 L9,49 L6,49 L6,46 L1,46 L0,43 Z " fill="#97475E" transform="translate(309,486)"/>
<path d="M0,0 L6,0 L6,2 L42,2 L42,3 L6,3 L5,5 L0,5 L0,3 L-18,3 L-18,2 L0,2 Z " fill="#813B4A" transform="translate(474,362)"/>
<path d="M0,0 L30,0 L30,2 L38,2 L38,3 L30,3 L30,5 L24,7 L20,6 L20,4 L7,4 L7,3 L29,3 L29,1 L0,2 Z " fill="#83434D" transform="translate(386,356)"/>
<path d="M0,0 L9,0 L9,3 L14,3 L14,5 L23,4 L23,13 L20,13 L21,6 L17,6 L16,9 L11,7 L10,4 L7,4 L7,2 L0,2 Z " fill="#4A0014" transform="translate(270,725)"/>
<path d="M0,0 L4,0 L4,2 L1,2 L1,9 L-1,9 L-1,13 L-4,13 L-4,16 L-9,15 L-11,16 L-11,13 L-6,10 L-3,2 Z " fill="#954B5D" transform="translate(675,563)"/>
<path d="M0,0 L8,0 L4,2 L0,6 L-13,5 L-13,7 L-11,8 L-12,13 L-15,16 L-15,11 L-17,11 L-17,18 L-18,18 L-18,10 L-16,10 L-16,6 L-14,6 L-14,4 L-2,4 L-2,2 L0,2 Z " fill="#2F0001" transform="translate(228,310)"/>
<path d="M0,0 L3,1 L2,2 L12,2 L24,3 L24,4 L12,4 L12,6 L2,6 L0,2 L-16,2 L-16,1 Z " fill="#863A50" transform="translate(550,668)"/>
<path d="M0,0 L1,0 L1,9 L3,9 L3,0 L4,0 L4,26 L3,31 L5,31 L5,26 L6,26 L6,36 L4,36 L4,32 L2,32 L2,26 L0,26 L0,20 L2,20 L2,10 L0,10 Z " fill="#140B0D" transform="translate(666,436)"/>
<path d="M0,0 L31,1 L31,2 L3,2 L3,4 L1,4 L1,6 L-7,6 L-7,8 L-9,8 L-9,10 L-15,10 L-13,9 L-13,6 L-9,6 L-8,4 L0,5 L0,3 L-2,2 L0,2 Z " fill="#2D0005" transform="translate(669,760)"/>
<path d="M0,0 L2,4 L1,6 L-1,5 L-1,11 L1,11 L2,7 L4,6 L5,15 L4,16 L3,40 L2,40 L2,16 L0,16 L0,12 L-2,12 L-2,4 L0,4 Z " fill="#2D0000" transform="translate(208,328)"/>
<path d="M0,0 L16,0 L20,1 L21,7 L18,7 L14,3 L8,3 L7,7 L7,2 L0,4 L-1,1 Z " fill="#4A0016" transform="translate(248,717)"/>
<path d="M0,0 L1,3 L6,2 L8,3 L8,5 L11,6 L11,11 L9,14 L9,19 L7,19 L7,13 L5,13 L5,20 L4,20 L4,12 L6,12 L6,6 L4,6 L4,4 L0,4 Z " fill="#8E3F56" transform="translate(314,532)"/>
<path d="M0,0 L2,1 L3,3 L7,5 L16,6 L16,1 L18,1 L19,7 L18,9 L6,9 L6,6 L-1,6 Z " fill="#510111" transform="translate(556,263)"/>
<path d="M0,0 L10,0 L9,3 L2,3 L-3,6 L-3,10 L-5,10 L-5,7 L-8,7 L-8,1 Z " fill="#3F0112" transform="translate(668,731)"/>
<path d="M0,0 L2,0 L0,8 L-6,17 L-9,18 L-7,14 L-6,6 L-1,2 Z M-12,18 L-10,20 L-13,22 Z M-10,18 Z " fill="#A6465F" transform="translate(652,626)"/>
<path d="M0,0 L2,0 L4,3 L3,7 L-2,11 L-3,13 L-5,13 L-5,3 Z " fill="#A95569" transform="translate(654,456)"/>
<path d="M0,0 L26,0 L27,3 L30,4 L30,6 L26,5 L21,3 L0,2 Z " fill="#450013" transform="translate(679,729)"/>
<path d="M0,0 L1,0 L2,14 L0,19 L-3,19 L-3,3 L-1,3 Z " fill="#B65D73" transform="translate(657,515)"/>
<path d="M0,0 L4,0 L4,2 L6,2 L6,8 L8,8 L8,10 L10,10 L10,18 L9,18 L9,11 L7,11 L7,18 L6,18 L5,12 L2,10 L0,3 L3,3 L3,1 Z " fill="#8F485B" transform="translate(688,490)"/>
<path d="M0,0 L9,0 L9,2 L16,2 L15,5 L12,5 L10,8 L8,8 L5,4 L2,5 L2,3 L0,3 Z " fill="#9D495A" transform="translate(426,364)"/>
<path d="M0,0 L4,0 L4,6 L2,6 L2,8 L4,8 L4,14 L6,14 L6,20 L5,20 L5,15 L3,15 L2,17 L-2,9 L-2,5 L0,5 L1,3 L1,5 L3,5 L3,1 Z " fill="#8D4657" transform="translate(644,390)"/>
<path d="M0,0 L5,0 L5,6 L-6,6 L-6,9 L-11,9 L-11,7 L-6,3 L0,3 Z " fill="#44000B" transform="translate(465,256)"/>
<path d="M0,0 L1,0 L1,10 L-1,10 L-1,12 L-5,16 L-9,16 L-9,18 L-13,18 L-13,22 L-17,21 L-14,21 L-14,17 L-10,17 L-10,15 L-13,14 L-8,14 L-9,12 L-2,7 L-1,8 Z " fill="#2F0006" transform="translate(717,738)"/>
<path d="M0,0 L12,0 L12,2 L20,2 L20,4 L22,5 L18,7 L11,6 L11,4 L0,4 L0,3 L11,3 L11,1 L0,1 Z " fill="#8E4453" transform="translate(424,360)"/>
<path d="M0,0 L22,0 L21,4 L21,1 L6,1 L6,3 L10,4 L5,6 L0,4 L-10,3 L-10,2 L0,2 Z " fill="#2F0009" transform="translate(566,240)"/>
<path d="M0,0 L2,0 L2,5 L5,5 L5,9 L7,9 L7,15 L9,15 L8,19 L8,16 L6,16 L5,19 L6,10 L4,10 L3,13 L1,10 L-2,4 L-1,1 Z " fill="#945462" transform="translate(665,463)"/>
<path d="M0,0 L25,0 L25,3 L0,3 Z " fill="#370000" transform="translate(273,778)"/>
<path d="M0,0 L2,0 L1,5 L-3,6 L-23,6 L-23,5 L-7,4 L-7,1 L-1,1 Z " fill="#4E010D" transform="translate(451,265)"/>
<path d="M0,0 L24,0 L24,1 L13,1 L13,3 L7,4 L6,6 L4,5 L0,2 Z " fill="#480012" transform="translate(400,753)"/>
<path d="M0,0 L1,0 L1,28 L3,28 L3,30 L1,30 L1,50 L0,50 L-1,28 Z " fill="#1F0F13" transform="translate(303,436)"/>
<path d="M0,0 L18,0 L18,3 L-1,3 Z " fill="#A0485C" transform="translate(456,365)"/>
<path d="M0,0 Z M-4,1 L0,2 L-1,7 L-1,15 L-3,15 L-3,17 L-5,17 L-6,7 L-3,5 L-2,2 Z " fill="#B34D68" transform="translate(647,607)"/>
<path d="M0,0 L8,0 L8,2 L19,2 L19,4 L4,4 L2,3 L2,5 L0,5 Z " fill="#A1505E" transform="translate(416,359)"/>
<path d="M0,0 L20,0 L20,1 L9,2 L0,6 L-10,5 L-10,4 L0,4 Z " fill="#300006" transform="translate(396,242)"/>
<path d="M0,0 L8,0 L7,4 L-1,5 L-1,7 L-6,8 L-7,6 L-6,4 L-2,4 L-2,2 L0,2 Z " fill="#3B000B" transform="translate(632,748)"/>
<path d="M0,0 L2,0 L3,9 L6,10 L6,14 L-3,14 L-3,12 L-1,12 Z " fill="#42000D" transform="translate(217,627)"/>
<path d="M0,0 L6,0 L6,10 L4,10 L4,16 L3,16 L2,4 L0,4 Z " fill="#340006" transform="translate(236,308)"/>
<path d="M0,0 L13,0 L13,2 L18,2 L18,4 L5,4 L0,3 Z " fill="#A14A5D" transform="translate(567,369)"/>
<path d="M0,0 L2,0 L2,2 L4,3 L2,8 L-1,10 L-1,8 L-4,9 L-4,6 L-6,6 L-6,4 L-2,4 L-2,1 Z " fill="#A03E55" transform="translate(327,375)"/>
<path d="M0,0 L4,0 L3,3 L4,5 L6,2 L6,7 L2,9 L2,12 L-3,12 L-2,9 L1,9 L1,4 L-2,3 L0,2 Z " fill="#45000E" transform="translate(587,253)"/>
<path d="M0,0 L1,0 L1,20 L5,22 L5,26 L8,27 L6,28 L1,26 L-1,20 Z M0,21 Z " fill="#211014" transform="translate(313,622)"/>
<path d="M0,0 L2,0 L2,5 L4,5 L4,15 L2,15 L2,11 L-2,10 Z " fill="#A05667" transform="translate(661,431)"/>
<path d="M0,0 L4,0 L4,2 L10,2 L11,6 L11,15 L9,14 L9,7 L3,5 L3,1 Z M7,5 Z " fill="#38000B" transform="translate(706,732)"/>
<path d="M0,0 L2,0 L2,5 L4,5 L4,21 L2,21 L1,15 L2,6 L0,6 Z " fill="#490018" transform="translate(239,693)"/>
<path d="M0,0 L2,0 L2,8 L-1,11 L-8,12 L-12,13 L-12,9 L-1,8 Z " fill="#380000" transform="translate(319,790)"/>
<path d="M0,0 L1,0 L1,16 L5,16 L5,18 L21,18 L21,19 L3,20 L0,19 Z " fill="#3B0112" transform="translate(243,698)"/>
<path d="M0,0 L9,2 L10,0 L10,3 L16,3 L16,4 L10,4 L10,6 L2,6 L2,4 L0,3 L2,3 L2,1 Z " fill="#904057" transform="translate(574,666)"/>
<path d="M0,0 L6,2 L12,3 L10,5 L6,5 L6,7 L13,7 L13,8 L5,8 L5,6 L1,6 L1,4 L-3,3 L1,3 Z " fill="#8D4258" transform="translate(329,656)"/>
<path d="M0,0 L7,0 L7,2 L16,2 L16,5 L7,6 L6,2 L0,2 Z " fill="#460012" transform="translate(303,747)"/>
<path d="M0,0 L3,0 L5,5 L4,8 L-1,11 L-3,10 L-3,8 L-5,8 L-5,5 L-3,5 L-3,7 L1,5 L2,2 L0,2 Z " fill="#3F0010" transform="translate(220,703)"/>
<path d="M0,0 L8,0 L7,4 L2,5 L-7,4 L-7,2 L0,2 Z " fill="#A14E5D" transform="translate(370,359)"/>
<path d="M0,0 L2,0 L2,9 L0,9 L-1,16 L-3,17 L-4,8 L-1,7 Z " fill="#A14964" transform="translate(321,571)"/>
<path d="M0,0 L4,1 L4,3 L6,3 L7,13 L5,13 L4,9 L2,8 Z " fill="#995264" transform="translate(652,413)"/>
<path d="M0,0 L6,1 L8,3 L6,7 L2,7 L-2,4 Z " fill="#A44058" transform="translate(342,376)"/>
<path d="M0,0 L22,1 L22,2 L0,4 Z " fill="#9C455E" transform="translate(551,667)"/>
<path d="M0,0 L1,0 L2,16 L1,28 L0,28 L0,16 L-2,16 L-2,12 L0,12 Z " fill="#1A0D10" transform="translate(702,514)"/>
<path d="M0,0 L1,4 L5,4 L5,20 L4,20 L4,5 L1,6 L0,8 L-5,8 L-5,5 L0,5 Z " fill="#240004" transform="translate(541,212)"/>
<path d="M0,0 L4,2 L5,8 L3,12 L1,7 L-1,6 L-2,1 Z " fill="#934359" transform="translate(319,642)"/>
<path d="M0,0 L1,4 L-1,4 L-1,8 L-3,8 L-4,12 L-4,8 L-6,8 L-7,11 L-6,5 L-4,2 L-2,1 L-2,3 L0,3 Z " fill="#8F4659" transform="translate(671,576)"/>
<path d="M0,0 L8,0 L8,1 L1,1 L1,3 L8,3 L4,6 L0,5 L0,3 L-3,3 L-3,5 L-1,6 L-4,7 L-4,5 L-8,4 L-4,4 L-4,2 L0,2 Z " fill="#89424F" transform="translate(362,360)"/>
<path d="M0,0 L2,0 L1,4 L-22,4 L-22,3 L0,2 Z " fill="#4C010F" transform="translate(509,255)"/>
<path d="M0,0 L9,0 L9,2 L0,4 L-4,5 L-7,4 L-7,2 L0,2 Z " fill="#480014" transform="translate(566,749)"/>
<path d="M0,0 L3,0 L3,15 L1,15 L0,5 Z " fill="#480016" transform="translate(232,655)"/>
<path d="M0,0 L1,0 L1,16 L3,16 L3,18 L5,18 L5,26 L4,26 L3,20 L-1,18 Z " fill="#2A0000" transform="translate(641,780)"/>
<path d="M0,0 L6,0 L6,6 L0,6 Z " fill="#34010D" transform="translate(644,740)"/>
<path d="M0,0 L2,0 L2,7 L4,7 L4,13 L1,13 L-1,10 Z " fill="#A15166" transform="translate(695,501)"/>
<path d="M0,0 L8,0 L6,5 L0,5 L-2,4 Z " fill="#A7475F" transform="translate(506,380)"/>
<path d="M0,0 L6,0 L6,2 L8,3 L0,5 L0,3 L-8,3 L-8,2 L0,2 Z " fill="#8A4651" transform="translate(378,356)"/>
<path d="M0,0 L4,2 L1,6 L-5,5 L-5,1 Z " fill="#40000B" transform="translate(293,751)"/>
<path d="M0,0 L6,0 L6,4 L14,4 L13,8 L13,5 L6,5 L5,7 L5,5 L0,6 L0,3 L5,3 L5,1 L0,1 Z " fill="#864959" transform="translate(674,482)"/>
<path d="M0,0 L2,0 L2,7 L4,7 L3,12 L0,11 L0,5 L-2,5 L-1,1 Z " fill="#AF4A67" transform="translate(326,431)"/>
<path d="M0,0 L2,4 L2,10 L-2,10 L-2,8 L-8,8 L-6,6 L0,6 Z " fill="#0A0002" transform="translate(650,740)"/>
<path d="M0,0 L6,0 L8,2 L7,6 L4,5 L2,6 L2,3 L0,3 Z " fill="#9F495D" transform="translate(600,379)"/>
<path d="M0,0 L2,0 L2,8 L0,8 L0,10 L-2,10 L-3,6 L-2,2 L0,2 Z " fill="#B04964" transform="translate(644,622)"/>
<path d="M0,0 L7,0 L7,2 L4,5 L4,8 L2,8 L2,5 L0,5 Z " fill="#470113" transform="translate(661,733)"/>
<path d="M0,0 L1,0 L1,16 L-1,16 L-3,20 L-2,12 L-1,10 Z " fill="#9C455B" transform="translate(656,618)"/>
<path d="M0,0 L1,2 L5,2 L5,5 L-3,5 L-4,1 Z " fill="#A04B63" transform="translate(367,660)"/>
<path d="M0,0 L4,0 L4,2 L1,3 L0,8 L-4,8 L-3,2 Z " fill="#A05163" transform="translate(675,563)"/>
<path d="M0,0 L4,2 L4,5 L7,5 L7,7 L0,7 Z " fill="#380005" transform="translate(479,226)"/>
<path d="M0,0 L2,1 L4,2 L4,6 L2,6 L2,11 L0,11 L-1,2 Z " fill="#A14F64" transform="translate(663,582)"/>
<path d="M0,0 L3,0 L4,3 L7,4 L7,8 L3,8 L0,5 Z " fill="#A14C60" transform="translate(640,387)"/>
<path d="M0,0 L3,0 L3,2 L16,1 L16,3 L-2,3 Z " fill="#9C4862" transform="translate(385,663)"/>
<path d="M0,0 L5,1 L5,4 L-5,4 L-5,2 Z " fill="#360000" transform="translate(501,811)"/>
<path d="M0,0 L4,0 L4,3 L1,3 L1,5 L-6,5 L-6,3 L0,2 Z " fill="#A24C64" transform="translate(341,658)"/>
<path d="M0,0 L2,0 L3,6 L2,8 L-10,8 L-10,7 L0,6 Z " fill="#46010F" transform="translate(572,264)"/>
<path d="M0,0 L4,0 L4,4 L8,6 L7,8 L2,8 L3,1 Z " fill="#2E0004" transform="translate(636,260)"/>
<path d="M0,0 L1,0 L1,6 L-1,6 L-1,8 L1,8 L1,14 L0,14 L0,9 L-2,9 L-3,11 L-4,5 L0,5 Z " fill="#3D0117" transform="translate(241,684)"/>
<path d="M0,0 L1,3 L3,3 L2,6 L-6,7 L-5,5 L-3,5 L-2,1 Z " fill="#9B425B" transform="translate(642,663)"/>
<path d="M0,0 L4,1 L4,3 L-14,3 L-14,1 L0,2 Z " fill="#9A4760" transform="translate(416,662)"/>
<path d="M0,0 L3,0 L3,3 L-9,3 L-9,1 Z " fill="#390001" transform="translate(428,818)"/>
<path d="M0,0 L4,0 L4,6 L2,4 L0,7 L-5,7 L-1,5 Z " fill="#45010E" transform="translate(653,745)"/>
<path d="M0,0 L1,2 L3,2 L2,6 L-2,7 L-3,3 Z " fill="#3A000E" transform="translate(219,703)"/>
<path d="M0,0 L4,1 L2,1 L2,3 L10,3 L10,4 L2,4 L2,6 L-2,5 L1,5 L1,3 L-2,2 Z " fill="#884454" transform="translate(678,560)"/>
<path d="M0,0 L1,0 L1,11 L-1,11 L-2,6 Z " fill="#370000" transform="translate(640,784)"/>
<path d="M0,0 L2,0 L3,3 L8,4 L8,6 L2,7 L0,4 Z " fill="#A35A6D" transform="translate(671,479)"/>
<path d="M0,0 L2,0 L2,9 L-3,9 L-3,7 L0,7 Z " fill="#430103" transform="translate(223,332)"/>
<path d="M0,0 L4,1 L6,3 L11,4 L11,6 L4,6 L3,3 Z " fill="#4B010F" transform="translate(535,257)"/>
<path d="M0,0 L2,0 L2,8 L0,8 L0,6 L-4,6 L-4,4 L0,4 Z " fill="#090001" transform="translate(516,218)"/>
<path d="M0,0 L7,2 L8,5 L5,5 L5,3 L-2,3 L-2,1 Z " fill="#370000" transform="translate(361,810)"/>
<path d="M0,0 L9,1 L9,3 L-2,3 L-2,1 Z " fill="#380000" transform="translate(301,782)"/>
<path d="M0,0 L9,0 L10,4 L7,4 L7,2 L0,2 Z " fill="#4F0017" transform="translate(270,725)"/>
<path d="M0,0 L4,1 L4,5 L7,6 L5,7 L0,5 L-1,1 Z " fill="#11080A" transform="translate(314,643)"/>
<path d="M0,0 L3,0 L3,10 L1,10 L1,2 L-1,1 Z " fill="#450010" transform="translate(216,613)"/>
<path d="M0,0 L2,0 L2,6 L1,7 L-5,7 L-5,5 L0,5 Z " fill="#410007" transform="translate(237,318)"/>
<path d="M0,0 L1,0 L1,7 L-3,8 L-3,5 Z " fill="#370001" transform="translate(644,799)"/>
<path d="M0,0 L1,4 L11,4 L10,8 L10,5 L1,5 L0,7 L0,5 L-2,4 L0,4 Z " fill="#3D0112" transform="translate(269,720)"/>
<path d="M0,0 L4,1 L3,3 L2,16 L1,16 Z " fill="#9F4C63" transform="translate(307,464)"/>
<path d="M0,0 L4,0 L4,2 L8,4 L7,6 L4,6 L3,3 L0,2 Z " fill="#A34A64" transform="translate(311,529)"/>
<path d="M0,0 L2,0 L2,4 L7,4 L7,6 L1,6 L0,5 Z " fill="#40010A" transform="translate(627,263)"/>
<path d="M0,0 L8,0 L8,4 L6,4 L6,2 L0,2 Z " fill="#090000" transform="translate(342,782)"/>
<path d="M0,0 L3,1 L3,8 L0,7 Z " fill="#480013" transform="translate(296,741)"/>
<path d="M0,0 L3,1 L2,6 L-2,5 L-2,2 L0,2 Z " fill="#A8435D" transform="translate(354,378)"/>
<path d="M0,0 L5,0 L3,5 L-1,4 Z " fill="#9F4559" transform="translate(525,370)"/>
<path d="M0,0 L4,2 L3,5 L-2,5 L-2,2 Z " fill="#280008" transform="translate(512,245)"/>
<path d="M0,0 L4,1 L4,4 L-2,4 Z " fill="#C45979" transform="translate(508,488)"/>
<path d="M0,0 L2,0 L1,8 L-2,5 Z " fill="#A15A6A" transform="translate(669,473)"/>
<path d="M0,0 L12,0 L8,1 L8,3 L5,3 L5,1 L0,2 Z " fill="#994658" transform="translate(608,385)"/>
<path d="M0,0 L4,1 L1,1 L1,5 L-5,6 L-2,2 L0,2 Z " fill="#7F3444" transform="translate(330,370)"/>
<path d="M0,0 L5,1 L0,6 L-1,1 Z " fill="#9D475A" transform="translate(444,365)"/>
<path d="M0,0 L2,0 L1,6 L-4,7 L-1,4 Z " fill="#390000" transform="translate(351,782)"/>
<path d="M0,0 L1,2 L4,3 L-1,4 L-2,6 L-2,3 L-6,1 Z " fill="#440010" transform="translate(456,751)"/>
<path d="M0,0 L4,0 L4,4 L2,4 L2,6 L0,6 Z " fill="#0A0002" transform="translate(658,744)"/>
<path d="M0,0 L2,1 L2,3 L0,3 L0,7 L-3,7 L-2,3 Z " fill="#42000E" transform="translate(666,741)"/>
<path d="M0,0 L1,4 L-2,7 L-4,7 L-4,4 Z M-5,7 Z " fill="#A5445F" transform="translate(644,648)"/>
<path d="M0,0 L1,4 L-3,9 L-3,1 Z " fill="#BB5872" transform="translate(645,551)"/>
<path d="M0,0 L4,1 L6,4 L2,5 L0,3 Z " fill="#3F0010" transform="translate(293,738)"/>
<path d="M0,0 L5,0 L6,3 L0,3 Z " fill="#9D4A62" transform="translate(520,661)"/>
<path d="M0,0 L2,2 L2,6 L-1,6 L-2,2 Z " fill="#AB5B6F" transform="translate(664,496)"/>
<path d="M0,0 L2,0 L2,5 L-3,6 L-3,4 L0,4 Z " fill="#3F0103" transform="translate(219,351)"/>
<path d="M0,0 L4,1 L4,5 L0,5 Z " fill="#520111" transform="translate(547,264)"/>
<path d="M0,0 L2,0 L2,6 L-2,6 L-2,4 L0,4 Z " fill="#0B0000" transform="translate(444,778)"/>
<path d="M0,0 L5,0 L4,4 L0,3 Z " fill="#210005" transform="translate(274,750)"/>
<path d="M0,0 L4,0 L4,4 L0,4 Z " fill="#4C0113" transform="translate(645,741)"/>
<path d="M0,0 L4,1 L4,3 L6,3 L5,5 L3,6 L0,3 Z " fill="#9E5265" transform="translate(654,428)"/>
<path d="M0,0 L0,3 L-6,6 L-4,1 Z " fill="#A83F59" transform="translate(336,382)"/>
<path d="M0,0 L9,0 L5,3 L0,2 Z " fill="#9D4F5B" transform="translate(406,360)"/>
<path d="M0,0 L5,1 L5,3 L-2,3 L-2,1 Z " fill="#380000" transform="translate(313,786)"/>
<path d="M0,0 L2,0 L2,3 L5,3 L5,5 L0,4 Z " fill="#A24C64" transform="translate(325,654)"/>
<path d="M0,0 L2,0 L3,4 L-1,7 Z " fill="#40000D" transform="translate(213,609)"/>
<path d="M0,0 L5,3 L4,7 L4,4 L0,5 Z " fill="#8E4153" transform="translate(639,383)"/>
<path d="M0,0 L5,0 L6,4 L0,2 Z " fill="#4B0114" transform="translate(479,749)"/>
<path d="M0,0 L6,0 L6,3 L0,2 Z " fill="#49000E" transform="translate(633,749)"/>
<path d="M0,0 L3,1 L2,5 L0,6 Z " fill="#450012" transform="translate(223,655)"/>
<path d="M0,0 L4,0 L4,4 L0,3 Z " fill="#B3516A" transform="translate(448,412)"/>
<path d="M0,0 L4,0 L3,3 L1,2 L1,4 L-1,4 Z " fill="#A1425A" transform="translate(314,383)"/>
<path d="M0,0 L2,0 L1,4 L-3,4 L-3,2 Z " fill="#4E010D" transform="translate(451,265)"/>
<path d="M0,0 L6,0 L5,3 L0,2 Z " fill="#4F0014" transform="translate(379,751)"/>
<path d="M0,0 L4,0 L4,3 L0,4 Z " fill="#310001" transform="translate(208,368)"/>
<path d="M0,0 L3,1 L2,5 L0,4 Z " fill="#340000" transform="translate(632,808)"/>
<path d="M0,0 L2,4 L2,7 L0,7 L-1,3 Z " fill="#A25264" transform="translate(697,538)"/>
<path d="M0,0 L2,0 L3,4 L0,6 Z " fill="#A6495C" transform="translate(368,372)"/>
<path d="M0,0 L2,0 L2,3 L-3,3 Z " fill="#360001" transform="translate(582,814)"/>
<path d="M0,0 L4,1 L4,3 L0,3 Z " fill="#360002" transform="translate(574,812)"/>
<path d="M0,0 L4,0 L4,2 L0,3 Z " fill="#44000C" transform="translate(626,753)"/>
<path d="M0,0 L2,4 L1,6 L-1,6 Z " fill="#A24A62" transform="translate(324,647)"/>
<path d="M0,0 L2,2 L-3,6 L-1,1 Z " fill="#AD4561" transform="translate(642,637)"/>
<path d="M0,0 L5,0 L3,4 L2,1 Z " fill="#994558" transform="translate(600,381)"/>
<path d="M0,0 L2,0 L1,4 L-2,4 L-2,2 L0,2 Z " fill="#993D52" transform="translate(331,373)"/>
<path d="M0,0 L2,1 L1,4 L-2,3 L-2,1 Z " fill="#43000D" transform="translate(488,754)"/>
<path d="M0,0 L2,0 L0,4 L-2,4 Z " fill="#120004" transform="translate(220,706)"/>
<path d="M0,0 L2,1 L1,6 L-1,3 Z " fill="#A34B61" transform="translate(323,619)"/>
<path d="M0,0 L3,0 L3,2 L5,3 L0,2 Z " fill="#9F4660" transform="translate(319,535)"/>
<path d="M0,0 L3,1 L3,3 L-1,3 Z " fill="#44000D" transform="translate(275,746)"/>
<path d="M0,0 L2,0 L1,3 L-2,3 L-2,1 Z " fill="#420011" transform="translate(676,731)"/>
<path d="M0,0 L2,0 L1,3 L-2,3 L-2,1 Z " fill="#AB5266" transform="translate(600,414)"/>
<path d="M0,0 L3,0 L2,3 L0,2 Z " fill="#4E0016" transform="translate(280,729)"/>
<path d="M0,0 L2,0 L1,3 L-1,1 Z " fill="#AA566B" transform="translate(659,558)"/>
</svg>
