<?xml version="1.0" encoding="UTF-8"?>
<!-- Generator: visioncortex VTracer 0.6.4 -->
<svg version="1.1" xmlns="http://www.w3.org/2000/svg" width="1024" height="1024">
<path d="M0,0 L1024,0 L1024,1024 L0,1024 Z " fill="#000000" transform="translate(0,0)"/>
<path d="M0,0 L28,0 L28,206 L22,206 L22,204 L14,204 L14,206 L6,206 L6,208 L4,208 L4,210 L0,210 L0,212 L-4,216 L-6,216 L-6,220 L-10,220 L-10,222 L-12,222 L-12,226 L-14,226 L-14,230 L-16,230 L-16,232 L-21,236 L-22,238 L-24,238 L-24,242 L-26,242 L-26,244 L-34,251 L-38,256 L-40,256 L-40,260 L-42,260 L-42,262 L-44,262 L-44,264 L-46,264 L-46,268 L-48,268 L-48,270 L-50,270 L-50,274 L-52,274 L-52,276 L-54,276 L-54,280 L-56,280 L-56,286 L-58,286 L-58,290 L-60,290 L-60,294 L-62,294 L-62,298 L-64,298 L-64,300 L-66,300 L-66,306 L-68,306 L-68,308 L-70,308 L-70,312 L-72,312 L-72,314 L-76,318 L-78,318 L-78,322 L-82,322 L-82,326 L-84,326 L-84,330 L-86,330 L-86,332 L-88,332 L-88,334 L-92,334 L-92,336 L-100,343 L-102,346 L-106,346 L-106,348 L-108,348 L-108,352 L-110,352 L-110,354 L-114,358 L-122,358 L-122,360 L-124,360 L-124,364 L-126,364 L-126,366 L-130,370 L-134,370 L-134,372 L-136,372 L-136,376 L-138,376 L-138,378 L-143,382 L-144,384 L-150,384 L-150,382 L-156,382 L-156,384 L-158,384 L-158,386 L-162,386 L-162,402 L-168,402 L-168,408 L-170,408 L-170,426 L-162,426 L-162,442 L-164,442 L-164,448 L-166,448 L-166,452 L-164,452 L-164,458 L-162,458 L-162,462 L-160,462 L-160,464 L-158,464 L-158,472 L-156,472 L-156,490 L-158,490 L-158,498 L-162,498 L-162,500 L-164,500 L-164,502 L-168,506 L-172,506 L-172,508 L-176,508 L-176,510 L-180,510 L-180,512 L-182,512 L-182,514 L-188,514 L-188,516 L-190,516 L-190,518 L-197,524 L-198,526 L-202,526 L-202,530 L-206,530 L-206,532 L-210,532 L-210,534 L-212,534 L-212,536 L-214,536 L-214,538 L-220,538 L-220,540 L-224,540 L-224,542 L-226,542 L-226,544 L-228,544 L-228,546 L-234,546 L-234,548 L-236,548 L-236,550 L-242,550 L-242,552 L-244,552 L-244,554 L-248,554 L-248,556 L-250,556 L-250,558 L-254,558 L-254,560 L-256,560 L-256,564 L-258,564 L-258,566 L-262,570 L-264,570 L-264,574 L-268,574 L-268,584 L-270,584 L-270,590 L-272,590 L-272,594 L-274,594 L-274,600 L-276,600 L-276,604 L-278,604 L-278,610 L-280,610 L-280,614 L-282,614 L-282,616 L-284,616 L-284,618 L-286,618 L-286,622 L-288,622 L-288,624 L-295,630 L-296,632 L-300,632 L-300,634 L-302,634 L-302,636 L-306,636 L-306,638 L-310,638 L-310,642 L-312,642 L-312,644 L-319,650 L-320,652 L-322,652 L-322,656 L-324,656 L-324,658 L-326,658 L-326,664 L-328,664 L-328,666 L-330,666 L-330,670 L-332,670 L-332,672 L-334,672 L-334,676 L-336,676 L-336,678 L-340,682 L-344,682 L-344,684 L-346,684 L-346,688 L-352,688 L-352,690 L-356,690 L-356,692 L-358,692 L-358,694 L-364,694 L-364,696 L-368,696 L-368,698 L-376,698 L-376,700 L-378,700 L-378,702 L-382,702 L-382,704 L-384,704 L-384,706 L-388,706 L-388,708 L-390,708 L-390,710 L-392,710 L-392,712 L-396,712 L-396,714 L-398,714 L-398,716 L-400,716 L-400,722 L-402,722 L-402,724 L-410,731 L-412,734 L-416,734 L-416,738 L-422,738 L-422,740 L-424,740 L-424,742 L-428,742 L-428,744 L-430,744 L-430,746 L-438,746 L-438,748 L-440,748 L-440,750 L-444,750 L-444,752 L-448,752 L-448,754 L-454,754 L-454,756 L-456,756 L-456,758 L-460,762 L-470,762 L-470,752 L-476,752 L-476,750 L-490,750 L-492,743 L-494,742 L-494,722 L-492,722 L-492,720 L-486,720 L-486,712 L-484,712 L-484,710 L-480,710 L-480,706 L-476,706 L-476,702 L-478,702 L-478,684 L-476,684 L-476,680 L-474,680 L-474,678 L-470,678 L-470,672 L-468,672 L-468,668 L-466,668 L-466,662 L-464,662 L-464,660 L-462,660 L-462,654 L-460,654 L-460,650 L-458,650 L-458,640 L-456,640 L-456,630 L-454,630 L-454,618 L-456,618 L-456,590 L-452,590 L-452,584 L-450,584 L-450,578 L-448,578 L-447,573 L-440,566 L-438,566 L-438,564 L-434,564 L-434,562 L-432,562 L-432,560 L-428,560 L-428,558 L-426,558 L-426,556 L-422,556 L-422,554 L-416,554 L-416,552 L-412,552 L-412,550 L-408,550 L-408,548 L-404,548 L-404,546 L-400,546 L-400,544 L-396,544 L-396,542 L-392,542 L-392,540 L-390,540 L-390,536 L-384,536 L-382,532 L-378,530 L-378,528 L-374,528 L-372,524 L-368,520 L-366,520 L-366,518 L-362,518 L-361,513 L-358,510 L-356,510 L-356,508 L-354,508 L-354,502 L-352,502 L-352,490 L-354,490 L-354,484 L-356,484 L-356,480 L-358,480 L-358,474 L-360,474 L-360,462 L-362,462 L-362,456 L-360,456 L-360,454 L-358,454 L-358,446 L-352,440 L-350,440 L-350,438 L-346,438 L-344,434 L-340,432 L-340,430 L-336,430 L-334,426 L-322,414 L-320,414 L-320,412 L-316,412 L-316,410 L-314,410 L-314,408 L-310,408 L-310,406 L-308,406 L-308,404 L-304,404 L-304,402 L-302,402 L-302,398 L-298,398 L-298,396 L-296,396 L-296,394 L-288,394 L-288,392 L-282,392 L-282,396 L-278,396 L-278,394 L-272,394 L-272,392 L-268,392 L-268,390 L-264,390 L-264,388 L-262,388 L-262,386 L-258,386 L-256,382 L-252,380 L-252,378 L-248,378 L-246,374 L-244,374 L-244,372 L-240,372 L-240,366 L-238,366 L-238,364 L-236,364 L-236,340 L-234,340 L-234,330 L-232,330 L-232,324 L-230,324 L-230,318 L-226,318 L-226,312 L-224,312 L-224,308 L-222,308 L-222,304 L-220,304 L-220,300 L-218,300 L-218,286 L-220,286 L-220,280 L-218,280 L-218,276 L-216,276 L-216,274 L-210,274 L-210,268 L-208,268 L-208,264 L-206,264 L-206,262 L-204,262 L-204,256 L-202,256 L-202,250 L-200,250 L-200,246 L-198,246 L-198,232 L-196,232 L-196,218 L-192,218 L-192,206 L-190,206 L-190,202 L-188,202 L-188,198 L-186,198 L-186,196 L-184,196 L-183,191 L-180,190 L-180,188 L-178,188 L-178,184 L-176,184 L-176,182 L-172,182 L-172,180 L-170,180 L-169,175 L-166,172 L-164,172 L-164,170 L-162,170 L-161,165 L-158,162 L-156,162 L-156,160 L-154,160 L-153,155 L-150,152 L-148,152 L-148,150 L-146,150 L-146,146 L-142,146 L-142,144 L-140,144 L-139,139 L-136,136 L-134,136 L-134,134 L-132,134 L-131,129 L-122,120 L-120,120 L-120,118 L-116,118 L-116,116 L-114,116 L-113,111 L-110,108 L-108,108 L-108,106 L-106,106 L-106,102 L-104,102 L-104,100 L-102,100 L-102,96 L-100,96 L-100,94 L-98,94 L-98,88 L-96,88 L-96,86 L-94,86 L-93,81 L-90,78 L-88,78 L-88,76 L-86,76 L-85,71 L-64,50 L-62,50 L-62,48 L-60,48 L-60,42 L-56,42 L-54,38 L-46,30 L-44,30 L-44,28 L-42,28 L-42,24 L-38,24 L-38,22 L-34,22 L-32,18 L-30,18 L-30,16 L-26,16 L-26,14 L-20,14 L-20,12 L-18,12 L-18,10 L-14,10 L-14,8 L-12,8 L-12,6 L-8,6 L-8,4 L-6,4 L-6,2 L0,2 Z " fill="#C1B3A7" transform="translate(996,164)"/>
<path d="M0,0 L6,0 L6,30 L4,30 L4,32 L-3,38 L-8,43 L-10,46 L-12,46 L-12,48 L-14,48 L-14,54 L-16,54 L-16,58 L-18,58 L-18,62 L-20,62 L-20,68 L-22,68 L-22,72 L-24,72 L-24,76 L-26,76 L-26,78 L-28,78 L-28,82 L-30,82 L-30,84 L-34,88 L-38,88 L-38,90 L-43,94 L-44,96 L-48,96 L-48,98 L-50,98 L-50,100 L-54,100 L-54,102 L-60,102 L-60,106 L-66,106 L-66,100 L-62,100 L-62,96 L-58,96 L-58,92 L-62,92 L-62,84 L-58,82 L-58,80 L-54,80 L-52,76 L-48,74 L-48,72 L-40,72 L-38,68 L-36,68 L-36,66 L-34,66 L-34,64 L-36,64 L-36,56 L-50,56 L-50,48 L-40,38 L-38,38 L-38,36 L-28,36 L-28,34 L-26,34 L-26,32 L-22,32 L-22,26 L-18,24 L-18,22 L-16,22 L-15,17 L-10,12 L-8,12 L-8,10 L-6,10 L-5,5 L-2,2 L0,2 Z " fill="#7C6B5E" transform="translate(756,834)"/>
<path d="M0,0 L6,0 L6,8 L2,8 L2,10 L0,10 L0,12 L-7,18 L-8,20 L-10,20 L-10,24 L-14,24 L-14,26 L-16,26 L-16,28 L-21,32 L-22,34 L-26,34 L-26,36 L-28,36 L-28,38 L-32,38 L-32,40 L-36,40 L-36,42 L-38,42 L-38,44 L-42,44 L-42,46 L-44,46 L-44,48 L-49,52 L-50,54 L-52,54 L-52,58 L-56,58 L-56,62 L-62,62 L-62,54 L-60,54 L-59,49 L-54,44 L-52,44 L-52,42 L-50,42 L-50,36 L-46,36 L-46,34 L-44,34 L-44,32 L-40,32 L-40,30 L-36,30 L-36,28 L-34,28 L-34,26 L-30,26 L-28,22 L-26,22 L-26,20 L-22,20 L-20,16 L-16,14 L-16,12 L-10,12 L-8,8 L-2,2 L0,2 Z " fill="#736958" transform="translate(876,696)"/>
<path d="M0,0 L4,1 L1,1 L1,3 L3,3 L3,5 L-1,7 L-5,5 L-5,7 L-2,7 L-2,9 L-10,16 L-14,25 L-16,32 L-19,35 L-19,55 L-17,61 L-18,71 L-21,83 L-23,93 L-25,94 L-25,91 L-27,91 L-28,94 L-28,90 L-26,90 L-26,80 L-24,80 L-24,70 L-22,70 L-22,58 L-24,58 L-24,30 L-20,30 L-20,24 L-18,24 L-18,18 L-16,18 L-15,13 L-8,6 L-6,6 L-6,4 L-2,4 L-2,2 L0,2 Z " fill="#B2A295" transform="translate(564,724)"/>
<path d="M0,0 L1,0 L1,5 L3,5 L3,0 L4,0 L4,6 L2,6 L2,24 L10,24 L10,40 L8,40 L8,46 L6,46 L6,50 L8,50 L8,56 L7,56 L7,51 L5,51 L5,56 L3,52 L2,51 L3,42 L5,37 L5,29 L1,27 L1,25 L-2,24 L-2,6 Z " fill="#B3AB98" transform="translate(824,566)"/>
<path d="M0,0 L1,4 L-1,4 L-1,6 L-8,12 L-9,14 L-11,14 L-11,18 L-13,18 L-13,20 L-15,20 L-15,26 L-17,26 L-17,28 L-19,28 L-19,32 L-21,32 L-21,34 L-23,34 L-23,38 L-25,38 L-25,40 L-29,44 L-33,44 L-33,46 L-35,46 L-35,50 L-41,50 L-41,49 L-36,49 L-37,45 L-34,45 L-34,43 L-36,42 L-33,39 L-29,37 L-22,26 L-18,18 L-12,10 L-5,3 L-4,1 L-2,1 L-2,3 L0,3 Z " fill="#A7988A" transform="translate(685,802)"/>
<path d="M0,0 L4,1 L1,1 L1,6 L3,6 L4,3 L4,5 L12,7 L8,8 L8,10 L6,10 L6,12 L1,16 L0,18 L-2,18 L-2,22 L-6,22 L-6,26 L-12,26 L-12,18 L-10,18 L-9,13 L-4,8 L-2,8 L-2,6 L0,6 Z " fill="#756959" transform="translate(826,732)"/>
<path d="M0,0 L4,1 L2,1 L2,5 L0,5 L0,7 L-4,11 L-8,11 L-8,13 L-13,17 L-14,19 L-18,19 L-18,21 L-20,21 L-20,23 L-24,23 L-24,25 L-30,25 L-30,29 L-36,29 L-36,23 L-32,23 L-32,19 L-28,19 L-27,15 L-27,19 L-25,19 L-25,14 L-24,14 L-24,19 L-19,16 L-15,18 L-15,16 L-18,16 L-17,13 L-14,13 L-14,10 L-5,5 L-1,1 L-1,4 L1,4 Z " fill="#6F5E53" transform="translate(726,911)"/>
<path d="M0,0 L6,0 L6,1 L1,1 L1,3 L6,3 L3,5 L0,5 L0,3 L-3,3 L-3,5 L-1,5 L-3,9 L-7,11 L-11,9 L-11,11 L-9,11 L-11,15 L-29,33 L-31,29 L-33,29 L-33,34 L-34,34 L-34,28 L-30,28 L-28,24 L-20,16 L-18,16 L-18,14 L-16,14 L-16,10 L-12,10 L-12,8 L-8,8 L-6,4 L-4,4 L-4,2 L0,2 Z " fill="#A79B93" transform="translate(970,178)"/>
<path d="M0,0 L2,1 L1,3 L3,3 L1,7 L-19,27 L-23,31 L-23,29 L-25,29 L-25,33 L-31,34 L-28,30 L-26,30 L-26,28 L-24,28 L-23,23 L-2,2 L0,2 Z " fill="#B4A79E" transform="translate(934,212)"/>
<path d="M0,0 L28,0 L28,4 L3,5 L-9,11 L-14,12 L-17,11 L-17,13 L-20,14 L-20,12 L-18,12 L-18,10 L-14,10 L-14,8 L-12,8 L-12,6 L-8,6 L-8,4 L-6,4 L-6,2 L0,2 Z " fill="#B0A39B" transform="translate(996,164)"/>
<path d="M0,0 L4,1 L1,1 L1,3 L3,3 L1,7 L-7,15 L-11,21 L-17,28 L-21,27 L-21,29 L-19,30 L-25,29 L-26,32 L-26,28 L-22,28 L-22,26 L-20,26 L-19,21 L-16,18 L-14,18 L-14,16 L-12,16 L-11,11 L-2,2 L0,2 Z " fill="#B0A39A" transform="translate(876,282)"/>
<path d="M0,0 L4,1 L2,1 L2,5 L0,5 L0,9 L-2,9 L-2,11 L-7,15 L-8,17 L-10,17 L-10,21 L-12,21 L-12,23 L-20,30 L-24,35 L-26,35 L-26,39 L-28,39 L-29,41 L-30,38 L-27,38 L-28,33 L-26,33 L-25,29 L-16,20 L-12,14 L-5,6 L-3,2 L-1,2 L-1,4 L1,4 Z " fill="#AB9F98" transform="translate(982,385)"/>
<path d="M0,0 L1,0 L1,8 L3,9 L-3,14 L-3,27 L-1,32 L-3,32 L-3,37 L10,37 L10,35 L16,36 L16,37 L11,37 L11,39 L16,39 L16,40 L10,40 L10,38 L-4,38 L-6,31 L-8,30 L-8,10 L-6,10 L-6,8 L0,8 Z " fill="#ADA096" transform="translate(510,876)"/>
<path d="M0,0 L10,0 L15,2 L15,6 L9,6 L9,4 L1,4 L1,6 L-7,6 L-7,8 L-9,8 L-9,10 L-13,10 L-13,12 L-17,16 L-19,16 L-19,20 L-23,19 L-20,19 L-21,15 L-18,15 L-18,13 L-20,12 L-12,5 L-7,2 Z " fill="#AEA299" transform="translate(1009,364)"/>
<path d="M0,0 L1,0 L1,6 L3,6 L4,3 L3,8 L-4,13 L-5,16 L-4,20 L-2,20 L-5,35 L-7,36 L-7,33 L-9,33 L-10,36 L-10,32 L-8,32 L-8,18 L-10,18 L-10,12 L-8,12 L-8,8 L-6,8 L-6,6 L0,6 Z " fill="#AD9F94" transform="translate(786,432)"/>
<path d="M0,0 L1,0 L1,12 L3,12 L3,1 L4,1 L5,7 L3,14 L1,17 L0,27 L-1,29 L-2,40 L-3,43 L-5,43 L-5,41 L-7,41 L-8,44 L-8,40 L-6,40 L-6,26 L-4,26 L-4,12 L0,12 Z " fill="#B2A49A" transform="translate(804,370)"/>
<path d="M0,0 L1,0 L1,11 L3,11 L3,2 L5,5 L6,12 L7,18 L5,18 L5,21 L7,21 L7,19 L9,19 L12,28 L12,40 L10,46 L9,46 L9,41 L7,41 L7,46 L6,46 L6,40 L8,40 L8,28 L6,28 L6,22 L4,22 L4,18 L2,18 L2,12 L0,12 Z " fill="#B0A393" transform="translate(636,626)"/>
<path d="M0,0 L1,0 L1,6 L3,7 L1,9 L1,7 L-1,7 L-1,16 L1,16 L1,33 L-1,43 L-5,48 L-5,43 L-7,43 L-7,48 L-8,48 L-8,42 L-6,42 L-6,40 L-4,40 L-4,16 L-2,16 L-2,6 L0,6 Z " fill="#AA9D90" transform="translate(764,488)"/>
<path d="M0,0 L1,3 L3,4 L0,4 L-3,3 L-3,5 L-1,5 L-3,9 L-9,14 L-17,20 L-21,22 L-30,21 L-26,20 L-26,18 L-22,18 L-22,16 L-18,16 L-18,14 L-16,14 L-16,10 L-10,10 L-8,6 L-4,4 L-4,2 L0,2 Z " fill="#BBAC9F" transform="translate(622,690)"/>
<path d="M0,0 L4,1 L1,1 L1,3 L3,3 L3,5 L-1,7 L-5,5 L-5,7 L-2,7 L-2,9 L-10,16 L-14,25 L-16,30 L-17,30 L-17,25 L-19,25 L-19,30 L-20,30 L-20,24 L-18,24 L-18,18 L-16,18 L-15,13 L-8,6 L-6,6 L-6,4 L-2,4 L-2,2 L0,2 Z " fill="#AFA293" transform="translate(564,724)"/>
<path d="M0,0 L4,1 L2,1 L2,7 L0,7 L0,9 L-8,16 L-10,19 L-14,19 L-14,23 L-20,23 L-20,25 L-22,25 L-22,27 L-26,27 L-27,29 L-28,25 L-25,25 L-25,22 L-18,18 L-15,18 L-13,14 L-5,7 L-2,1 L-1,1 L-1,6 L1,6 Z " fill="#A5958C" transform="translate(594,879)"/>
<path d="M0,0 L4,1 L1,1 L1,3 L3,3 L1,7 L-13,21 L-19,19 L-19,23 L-25,24 L-22,20 L-20,20 L-20,18 L-16,18 L-14,14 L-2,2 L0,2 Z " fill="#B4A797" transform="translate(676,576)"/>
<path d="M0,0 L6,0 L6,30 L4,30 L4,32 L-3,38 L-8,43 L-10,46 L-12,46 L-13,48 L-14,42 L-6,35 L-2,30 L0,30 L2,20 L3,20 L3,29 L5,29 L5,1 L0,1 Z " fill="#675A4E" transform="translate(756,834)"/>
<path d="M0,0 L2,0 L2,2 L6,3 L2,3 L2,5 L-6,12 L-8,15 L-12,15 L-12,17 L-14,17 L-14,21 L-16,21 L-16,23 L-20,27 L-28,27 L-28,26 L-21,26 L-21,24 L-28,24 L-28,23 L-21,21 L-19,18 L-17,18 L-17,20 L-15,20 L-16,16 L-13,16 L-13,14 L-15,13 L-12,10 L-7,7 L-6,4 L-1,1 Z " fill="#AFA299" transform="translate(902,495)"/>
<path d="M0,0 L1,3 L5,4 L1,4 L1,6 L-1,6 L-1,8 L-3,8 L-3,10 L-9,10 L-9,12 L-11,12 L-11,14 L-17,14 L-17,16 L-19,16 L-19,18 L-23,18 L-24,20 L-25,14 L-20,12 L-19,10 L-12,8 L-10,6 L-3,3 Z " fill="#A99D8D" transform="translate(771,700)"/>
<path d="M0,0 L1,0 L1,6 L3,7 L-3,15 L-3,27 L-2,34 L-3,30 L-5,30 L-6,34 L-6,30 L-8,30 L-8,12 L-6,12 L-6,8 L-4,8 L-4,6 L0,6 Z " fill="#AD9F92" transform="translate(526,836)"/>
<path d="M0,0 L1,3 L9,3 L9,4 L1,4 L1,6 L-1,6 L-1,8 L-5,8 L-5,10 L-7,10 L-7,12 L-11,12 L-11,14 L-13,14 L-13,16 L-15,16 L-15,18 L-19,18 L-20,20 L-20,17 L-22,16 L-13,9 L-1,1 Z " fill="#AA9B8E" transform="translate(619,858)"/>
<path d="M0,0 L6,0 L4,1 L4,5 L2,5 L2,7 L-2,11 L-4,11 L-4,15 L-8,15 L-8,19 L-10,19 L-10,23 L-12,23 L-13,25 L-13,23 L-15,22 L-11,22 L-12,13 L-2,4 Z " fill="#A99D96" transform="translate(922,471)"/>
<path d="M0,0 L4,1 L2,1 L2,5 L0,5 L0,7 L-7,13 L-8,15 L-12,15 L-12,17 L-14,17 L-14,19 L-18,19 L-18,21 L-22,20 L-19,20 L-19,18 L-21,18 L-21,16 L-13,11 L-7,7 L-3,2 L-1,2 L-1,4 L1,4 Z " fill="#AA9B8C" transform="translate(708,781)"/>
<path d="M0,0 L1,3 L3,4 L-3,3 L-3,5 L-1,5 L-3,9 L-7,13 L-9,20 L-12,23 L-12,21 L-15,21 L-15,26 L-16,26 L-16,20 L-14,20 L-14,18 L-12,18 L-12,10 L-6,4 L-4,4 L-4,2 L0,2 Z " fill="#B8AB9B" transform="translate(650,600)"/>
<path d="M0,0 L1,0 L1,28 L3,28 L3,40 L1,40 L1,50 L-1,50 L-1,60 L-2,60 L-3,50 L-3,40 L-2,40 L-2,49 L0,49 L-1,40 Z " fill="#191615" transform="translate(539,754)"/>
<path d="M0,0 L8,0 L8,16 L6,16 L6,22 L4,22 L4,26 L6,26 L6,32 L5,32 L5,27 L3,27 L3,32 L1,28 L0,27 L1,18 L3,13 L3,5 L0,3 L5,3 L5,15 L7,15 L7,1 L0,1 Z " fill="#A69C8B" transform="translate(826,590)"/>
<path d="M0,0 L4,1 L1,1 L1,3 L4,4 L-2,9 L-10,16 L-14,16 L-17,15 L-17,17 L-20,18 L-20,16 L-18,16 L-18,14 L-14,14 L-12,10 L-8,8 L-8,6 L-4,6 L-2,2 L0,2 Z " fill="#AC9F90" transform="translate(752,536)"/>
<path d="M0,0 L5,0 L6,6 L4,7 L4,10 L0,10 L-1,12 L-5,13 L-10,14 L-10,8 L-7,8 L-6,5 L0,4 Z " fill="#7B6F5D" transform="translate(861,709)"/>
<path d="M0,0 L1,4 L-1,4 L-1,6 L-8,12 L-9,14 L-11,14 L-11,18 L-16,20 L-16,25 L-18,25 L-19,19 L-12,10 L-5,3 L-4,1 L-2,1 L-2,3 L0,3 Z " fill="#B0A091" transform="translate(685,802)"/>
<path d="M0,0 L4,1 L2,1 L2,5 L0,5 L0,11 L-2,11 L-2,15 L-4,15 L-4,19 L-6,19 L-6,23 L-8,23 L-8,25 L-10,25 L-10,31 L-11,31 L-12,20 L-9,20 L-9,22 L-7,22 L-9,18 L-8,14 L-3,14 L-3,11 L-6,10 L-3,2 L-1,2 L-1,4 L1,4 Z " fill="#9F948E" transform="translate(940,439)"/>
<path d="M0,0 L2,1 L1,5 L-1,5 L-1,7 L-3,7 L-3,9 L-5,9 L-5,11 L-7,11 L-7,13 L-9,13 L-9,15 L-11,15 L-11,17 L-13,17 L-13,19 L-15,19 L-15,21 L-17,21 L-17,23 L-23,24 L-17,17 L-2,2 L0,2 Z " fill="#A1958E" transform="translate(934,212)"/>
<path d="M0,0 L1,0 L1,6 L-1,6 L-1,10 L-3,10 L-3,14 L-5,14 L-5,20 L-7,20 L-7,24 L-9,24 L-10,28 L-10,24 L-12,24 L-12,27 L-14,27 L-12,21 L-10,21 L-10,23 L-8,23 L-9,20 L-9,13 L-5,7 L-4,9 L-2,9 L-3,1 L-2,5 L0,5 Z " fill="#6C5D51" transform="translate(741,882)"/>
<path d="M0,0 L6,0 L5,4 L5,1 L1,1 L1,3 L4,3 L3,7 L3,5 L-6,8 L-9,11 L-11,11 L-11,7 L-13,7 L-12,12 L-16,12 L-16,10 L-14,10 L-14,6 L-10,6 L-10,4 L-8,4 L-8,2 L0,2 Z " fill="#A89A8B" transform="translate(708,556)"/>
<path d="M0,0 L2,0 L2,3 L6,4 L2,4 L2,6 L0,6 L0,8 L-6,8 L-6,10 L-8,10 L-8,12 L-15,18 L-16,20 L-20,19 L-17,19 L-17,17 L-19,16 L-17,16 L-16,14 L-10,9 L-7,9 L-8,4 L-1,2 Z " fill="#A89C8E" transform="translate(814,670)"/>
<path d="M0,0 L1,4 L3,4 L4,6 L8,8 L4,8 L4,10 L-2,10 L-2,14 L-8,14 L-8,8 L-4,8 L-4,4 L0,4 Z " fill="#6B5B52" transform="translate(698,926)"/>
<path d="M0,0 L4,1 L2,1 L2,5 L0,5 L0,9 L-2,9 L-2,11 L-8,16 L-11,17 L-11,20 L-15,20 L-13,15 L-6,8 L-3,2 L-1,2 L-1,4 L1,4 Z " fill="#B8ABA3" transform="translate(982,385)"/>
<path d="M0,0 L6,0 L6,1 L1,1 L2,6 L2,20 L6,21 L-1,21 L-1,23 L6,23 L6,24 L-2,24 L-2,6 L0,6 Z " fill="#131210" transform="translate(828,566)"/>
<path d="M0,0 L2,1 L1,3 L3,3 L1,7 L-4,13 L-5,11 L-9,11 L-9,15 L-11,15 L-11,17 L-17,18 L-12,12 L-10,12 L-10,10 L-6,10 L-5,5 L-2,2 L0,2 Z " fill="#A5998A" transform="translate(640,672)"/>
<path d="M0,0 L2,4 L1,9 L-5,16 L-9,15 L-9,17 L-7,18 L-13,17 L-14,20 L-14,16 L-10,16 L-10,14 L-8,14 L-7,9 L-4,6 L-2,6 L-2,4 L0,4 Z " fill="#B3A69D" transform="translate(864,294)"/>
<path d="M0,0 L1,0 L1,10 L-1,10 L-1,16 L-3,16 L-3,20 L-5,20 L-5,26 L-6,26 L-6,20 L-9,19 L-4,7 L-3,1 L-2,1 L-2,9 L0,9 Z " fill="#A8998B" transform="translate(727,738)"/>
<path d="M0,0 L2,0 L2,2 L8,2 L9,0 L13,2 L9,2 L9,4 L14,4 L14,5 L8,5 L8,3 L2,3 L2,5 L0,5 L0,7 L-4,7 L-4,23 L-10,23 L-10,22 L-5,22 L-5,7 L-7,6 L-5,3 Z " fill="#A09988" transform="translate(838,543)"/>
<path d="M0,0 L1,3 L7,3 L7,4 L1,4 L1,6 L-1,6 L-1,8 L-5,12 L-15,12 L-15,2 L-14,2 L-14,11 L-6,11 L-6,9 L-12,9 L-12,2 L-10,6 L-10,8 L-4,4 Z " fill="#A69790" transform="translate(541,914)"/>
<path d="M0,0 L1,0 L1,6 L3,6 L3,20 L1,20 L1,24 L-1,24 L-2,28 L-3,20 L-2,23 L0,23 L-1,21 L-1,6 Z " fill="#12100F" transform="translate(775,444)"/>
<path d="M0,0 L1,4 L3,4 L3,6 L5,6 L5,14 L7,14 L7,32 L6,32 L6,15 L4,15 L4,24 L3,24 L0,7 L0,6 L-2,6 L-2,4 L0,4 Z " fill="#A39989" transform="translate(833,622)"/>
<path d="M0,0 L1,0 L1,8 L-3,8 L-3,10 L-5,10 L-5,12 L-9,16 L-13,16 L-13,18 L-17,17 L-14,17 L-14,15 L-17,15 L-17,13 L-9,9 L-6,6 L0,7 Z " fill="#AAA08F" transform="translate(837,654)"/>
<path d="M0,0 L1,3 L3,3 L2,8 L-1,15 L-4,20 L-5,20 L-5,15 L-7,15 L-7,20 L-8,20 L-8,14 L-4,14 L-4,8 L-2,8 L-2,4 L0,4 Z " fill="#BBADA1" transform="translate(774,468)"/>
<path d="M0,0 L4,1 L1,1 L1,3 L4,4 L-3,3 L-3,5 L-1,5 L-1,7 L-4,7 L-4,5 L-7,5 L-7,7 L-5,7 L-5,9 L-12,12 L-14,11 L-14,9 L-17,9 L-17,11 L-20,12 L-20,10 L-18,10 L-18,8 L-14,8 L-14,6 L-8,6 L-8,4 L-4,4 L-4,2 L0,2 Z " fill="#A5998C" transform="translate(588,712)"/>
<path d="M0,0 L2,1 L1,3 L-1,3 L0,10 L-6,17 L-12,18 L-12,16 L-10,16 L-9,11 L-6,8 L-4,8 L-4,6 L-2,6 L-2,2 L0,2 Z " fill="#A79B93" transform="translate(892,264)"/>
<path d="M0,0 L3,1 L-12,16 L-14,12 L-16,12 L-16,17 L-17,17 L-17,11 L-13,11 L-11,7 L-4,6 L-4,4 L-2,4 L-2,2 L0,2 Z " fill="#B5A89F" transform="translate(953,195)"/>
<path d="M0,0 L1,3 L3,3 L4,1 L5,7 L7,7 L6,2 L10,4 L8,4 L8,8 L4,8 L4,12 L-2,12 L-2,4 L0,4 Z " fill="#665C4E" transform="translate(816,746)"/>
<path d="M0,0 L1,0 L1,11 L3,11 L3,2 L5,5 L6,12 L7,18 L5,18 L5,21 L7,21 L7,19 L9,19 L10,22 L7,22 L7,28 L6,28 L6,22 L4,22 L4,18 L2,18 L2,12 L0,12 Z " fill="#A4988A" transform="translate(636,626)"/>
<path d="M0,0 L2,4 L2,9 L-5,20 L-6,18 L-5,15 L-7,15 L-8,18 L-8,14 L-6,14 L-6,12 L-4,12 L-4,6 L-2,6 L-2,4 L0,4 Z " fill="#AB9E96" transform="translate(902,246)"/>
<path d="M0,0 L1,0 L1,6 L3,6 L4,3 L3,8 L-4,13 L-6,15 L-6,13 L-9,13 L-9,18 L-10,18 L-10,12 L-8,12 L-8,8 L-6,8 L-6,6 L0,6 Z " fill="#BFADA3" transform="translate(786,432)"/>
<path d="M0,0 L2,1 L1,3 L4,4 L-4,13 L-5,11 L-7,11 L-7,13 L-9,13 L-10,17 L-13,15 L-10,12 L-8,12 L-8,10 L-6,10 L-5,5 L-2,2 L0,2 Z " fill="#A49890" transform="translate(848,314)"/>
<path d="M0,0 L1,3 L3,3 L3,5 L5,6 L2,10 L0,10 L0,14 L-4,14 L-4,16 L-6,16 L-7,18 L-8,15 L-6,13 L-4,12 L-1,13 L-2,8 L-1,7 L0,3 L-5,3 L-5,7 L-11,8 L-8,4 L-6,4 L-6,2 L0,2 Z " fill="#6D6353" transform="translate(866,706)"/>
<path d="M0,0 L4,1 L2,1 L2,5 L0,5 L0,7 L-4,11 L-8,11 L-8,13 L-10,13 L-10,17 L-12,17 L-13,19 L-14,16 L-11,16 L-12,12 L-9,12 L-9,10 L-11,9 L-8,6 L-4,4 L-3,2 L-1,2 L-1,4 L1,4 Z " fill="#A79C8D" transform="translate(870,523)"/>
<path d="M0,0 L2,0 L2,17 L0,17 L0,24 L-5,23 L-3,22 L-3,16 L-1,9 Z " fill="#BDB29F" transform="translate(837,637)"/>
<path d="M0,0 L1,3 L3,4 L0,4 L-3,3 L-3,5 L-1,5 L-3,9 L-7,13 L-15,11 L-16,14 L-16,10 L-10,10 L-8,6 L-4,4 L-4,2 L0,2 Z " fill="#A4978B" transform="translate(622,690)"/>
<path d="M0,0 L1,4 L3,4 L3,10 L5,10 L5,22 L3,22 L3,28 L2,28 L1,22 L1,10 L2,5 L-1,5 Z " fill="#141311" transform="translate(639,644)"/>
<path d="M0,0 L1,0 L1,10 L3,10 L2,21 L-1,24 L-1,21 L-3,21 L-4,24 L-4,20 L-2,20 L-2,10 L0,10 Z " fill="#A7988C" transform="translate(540,794)"/>
<path d="M0,0 L1,2 L5,3 L1,3 L1,7 L-5,7 L-5,9 L-7,9 L-7,11 L-11,11 L-12,13 L-13,9 L-10,9 L-10,6 L-3,2 L0,2 Z " fill="#AF9F96" transform="translate(579,895)"/>
<path d="M0,0 L2,0 L2,2 L-1,2 L-1,4 L3,5 L-1,5 L-1,7 L-3,7 L-3,11 L-5,11 L-5,13 L-9,17 L-11,17 L-11,21 L-15,20 L-12,20 L-13,16 L-10,16 L-10,14 L-12,13 L-8,8 L-6,8 L-6,10 L-4,10 L-5,6 L-2,6 L-2,4 L-4,3 L-3,1 Z " fill="#A5998A" transform="translate(743,717)"/>
<path d="M0,0 L1,0 L1,6 L3,6 L3,1 L4,1 L4,7 L1,14 L-3,18 L-3,15 L-5,15 L-6,18 L-6,14 L-4,14 L-4,12 L-2,12 L-2,6 L0,6 Z " fill="#A99C92" transform="translate(794,414)"/>
<path d="M0,0 L4,1 L1,1 L1,6 L3,6 L4,3 L4,5 L12,7 L8,8 L8,10 L6,10 L5,12 L5,10 L-5,10 L-4,8 L-2,8 L-2,6 L0,6 Z " fill="#6C6153" transform="translate(826,732)"/>
<path d="M0,0 L2,0 L2,2 L6,3 L2,3 L2,5 L0,5 L0,9 L-2,9 L-2,11 L-6,15 L-14,15 L-14,14 L-7,14 L-7,12 L-14,12 L-14,11 L-7,9 L-5,6 L-3,6 L-3,8 L-1,8 L-2,4 L1,4 L1,2 L-1,1 Z " fill="#A5988D" transform="translate(888,507)"/>
<path d="M0,0 L4,0 L4,28 L2,28 L2,2 L0,2 Z " fill="#807061" transform="translate(757,835)"/>
<path d="M0,0 L4,1 L1,1 L1,3 L3,3 L3,5 L-1,7 L-5,5 L-5,9 L-7,9 L-7,11 L-9,11 L-9,13 L-15,14 L-9,7 L-6,6 L-6,4 L-2,4 L-2,2 L0,2 Z " fill="#968A7F" transform="translate(564,724)"/>
<path d="M0,0 L2,0 L0,4 L-16,20 L-18,24 L-18,18 L-16,18 L-16,16 L-14,16 L-12,12 L-8,10 L-6,6 L-2,2 L0,2 Z " fill="#14110F" transform="translate(760,864)"/>
<path d="M0,0 L1,0 L1,6 L3,6 L2,10 L-1,17 L-3,17 L-3,15 L-5,15 L-6,18 L-6,14 L-4,14 L-4,8 L-2,8 L-2,6 L0,6 Z " fill="#A8998D" transform="translate(534,818)"/>
<path d="M0,0 L1,3 L4,3 L5,0 L5,4 L1,4 L1,6 L-3,6 L-3,8 L-5,8 L-5,10 L-7,10 L-7,12 L-13,12 L-13,11 L-8,11 L-8,8 L-11,7 L-5,6 L-5,2 Z " fill="#9F9585" transform="translate(789,690)"/>
<path d="M0,0 L2,4 L1,7 L1,5 L-1,5 L-1,7 L-3,7 L-3,9 L0,10 L-5,16 L-10,16 L-10,14 L-8,14 L-7,9 L-4,6 L-2,6 L-2,4 L0,4 Z " fill="#A49890" transform="translate(834,330)"/>
<path d="M0,0 L4,1 L2,1 L2,5 L0,5 L0,7 L-4,11 L-8,11 L-9,13 L-10,8 L-4,4 L-1,1 L-1,4 L1,4 Z " fill="#6D5E52" transform="translate(726,911)"/>
<path d="M0,0 L1,0 L1,12 L3,12 L3,3 L4,3 L4,13 L2,22 L-1,22 L-1,12 Z " fill="#AF9F92" transform="translate(542,782)"/>
<path d="M0,0 L4,1 L1,1 L1,5 L-1,5 L-1,7 L-3,7 L-3,9 L-5,9 L-5,11 L-7,11 L-7,13 L-13,14 L-7,7 L-2,2 L0,2 Z " fill="#A29687" transform="translate(676,576)"/>
<path d="M0,0 L4,1 L1,1 L1,3 L3,3 L3,5 L0,5 L0,3 L-3,3 L-3,5 L-1,5 L-1,7 L-10,9 L-10,7 L-14,6 L-10,6 L-10,4 L-4,4 L-4,2 L0,2 Z " fill="#A79B8C" transform="translate(728,554)"/>
<path d="M0,0 L1,2 L4,3 L2,3 L2,7 L0,7 L0,9 L-2,9 L-3,13 L-7,12 L-5,7 Z " fill="#ADA09A" transform="translate(948,425)"/>
<path d="M0,0 L1,0 L1,12 L3,12 L3,1 L4,1 L5,7 L3,14 L0,17 L-1,13 L-3,13 L-3,26 L-4,26 L-4,12 L0,12 Z " fill="#9E9389" transform="translate(804,370)"/>
<path d="M0,0 L2,0 L2,4 L14,4 L14,6 L16,6 L16,14 L14,14 L13,7 L0,6 Z " fill="#8D796C" transform="translate(707,883)"/>
<path d="M0,0 L1,0 L1,8 L3,9 L1,11 L-7,11 L-7,30 L-8,30 L-8,10 L-6,10 L-6,8 L0,8 Z " fill="#988D83" transform="translate(510,876)"/>
<path d="M0,0 L1,3 L9,3 L9,4 L1,4 L1,6 L-1,6 L-1,8 L-5,8 L-5,10 L-9,9 L-6,9 L-6,7 L-9,6 Z " fill="#A6978F" transform="translate(557,906)"/>
<path d="M0,0 L2,0 L2,2 L6,3 L2,3 L2,5 L0,5 L0,7 L-6,7 L-6,9 L-10,8 L-7,8 L-7,3 Z " fill="#A99A8C" transform="translate(638,851)"/>
<path d="M0,0 L4,1 L1,1 L1,8 L-2,14 L-5,14 L-5,6 L-4,4 L0,4 Z " fill="#A4988C" transform="translate(516,870)"/>
<path d="M0,0 L3,0 L3,2 L1,3 L1,6 L-2,7 L-3,16 L-5,16 L-6,6 L-1,1 Z " fill="#BFB1A0" transform="translate(730,731)"/>
<path d="M0,0 L1,3 L5,4 L1,4 L1,6 L-1,6 L-1,8 L-3,9 L-9,9 L-9,6 L-3,3 Z " fill="#AFA493" transform="translate(771,700)"/>
<path d="M0,0 L4,0 L5,4 L-1,9 L-1,7 L-3,7 L-3,9 L-7,10 L-6,8 L-4,8 L-4,6 L-2,6 L-2,2 L0,2 Z " fill="#A2968E" transform="translate(820,346)"/>
<path d="M0,0 L2,0 L0,4 L-12,16 L-14,18 L-14,14 L-12,14 L-10,10 L-2,2 L0,2 Z " fill="#221F1E" transform="translate(970,406)"/>
<path d="M0,0 L1,0 L1,6 L3,7 L-2,13 L-6,12 L-6,8 L-4,8 L-4,6 L0,6 Z " fill="#A29488" transform="translate(526,836)"/>
<path d="M0,0 L5,1 L3,2 L3,6 L-2,8 L-2,13 L-4,13 L-5,7 Z " fill="#B3A394" transform="translate(671,814)"/>
<path d="M0,0 L1,4 L-1,4 L-1,10 L-3,10 L-3,14 L-5,14 L-6,16 L-7,13 L-4,13 L-4,10 L-6,10 L-5,3 L0,3 Z " fill="#A69789" transform="translate(719,764)"/>
<path d="M0,0 L5,1 L5,3 L2,3 L2,8 L0,8 L0,12 L-2,12 L-3,14 L-3,12 L-5,11 L-1,11 L-2,2 Z " fill="#AEA199" transform="translate(912,482)"/>
<path d="M0,0 L2,1 L2,10 L1,15 L3,15 L3,10 L4,10 L4,20 L2,20 L2,16 L0,16 L0,10 L-2,10 L-2,6 L0,6 Z " fill="#191815" transform="translate(832,606)"/>
<path d="M0,0 L3,0 L2,5 L0,5 L0,7 L-4,7 L-5,9 L-5,6 L-7,5 Z " fill="#AD9D91" transform="translate(604,869)"/>
<path d="M0,0 L3,0 L5,4 L4,16 L2,16 L2,5 L0,5 Z " fill="#C2B3A3" transform="translate(635,621)"/>
<path d="M0,0 L4,3 L2,7 L-2,8 L-2,6 L-4,6 L-3,1 Z " fill="#746859" transform="translate(871,703)"/>
<path d="M0,0 L4,1 L-4,8 L-11,16 L-12,12 L-10,12 L-8,8 L-4,4 L-2,4 L-2,2 L0,2 Z " fill="#14120F" transform="translate(878,704)"/>
<path d="M0,0 L2,0 L2,4 L-1,4 L-1,6 L-9,6 L-9,3 L-4,3 L-3,1 Z " fill="#BAA99B" transform="translate(629,855)"/>
<path d="M0,0 L3,0 L3,2 L1,3 L1,6 L-4,6 L-4,8 L-8,8 L-9,5 L-1,1 Z " fill="#BBAA9B" transform="translate(648,845)"/>
<path d="M0,0 L4,1 L2,1 L2,5 L0,5 L0,7 L-5,10 L-8,10 L-6,6 L-3,2 L-1,2 L-1,4 L1,4 Z " fill="#A59788" transform="translate(708,781)"/>
<path d="M0,0 L4,1 L1,1 L1,3 L4,4 L0,8 L-3,7 L-2,2 L0,2 Z M-7,7 L-2,8 L-2,9 L-7,9 Z " fill="#B8AA9B" transform="translate(752,536)"/>
<path d="M0,0 L1,0 L1,12 L-5,17 L-5,14 L-4,10 L-2,10 Z " fill="#756456" transform="translate(758,854)"/>
<path d="M0,0 L1,3 L3,4 L-3,3 L-3,5 L-1,5 L-1,7 L-8,8 L-12,6 L-8,6 L-8,4 L-4,4 L-4,2 L0,2 Z " fill="#A5988C" transform="translate(604,704)"/>
<path d="M0,0 L2,0 L2,5 L-3,10 L-8,10 L-8,8 L-5,6 Z " fill="#BBAF9D" transform="translate(855,537)"/>
<path d="M0,0 L2,0 L1,5 L-4,8 L-6,7 L-5,3 Z " fill="#827164" transform="translate(715,875)"/>
<path d="M0,0 L2,0 L1,5 L-2,6 L-2,8 L-4,8 L-4,13 L-6,13 L-6,6 L-3,5 L-3,3 L0,3 Z " fill="#837364" transform="translate(741,853)"/>
<path d="M0,0 L2,0 L2,3 L6,4 L2,4 L2,6 L0,7 L-6,7 L-6,4 L-1,2 Z " fill="#B0A495" transform="translate(814,670)"/>
<path d="M0,0 L2,1 L-2,6 L-4,10 L-9,11 L-8,7 Z " fill="#B2A197" transform="translate(589,886)"/>
<path d="M0,0 L3,0 L3,3 L1,4 L0,7 L-3,8 L-3,11 L-5,11 L-6,6 L-1,1 Z " fill="#B9A999" transform="translate(712,774)"/>
<path d="M0,0 L4,0 L4,3 L-5,10 L-8,10 L-8,7 L-2,6 L-2,4 L0,4 Z " fill="#B7AA9A" transform="translate(631,683)"/>
<path d="M0,0 L1,3 L3,4 L1,4 L0,7 L-5,5 L-5,9 L-11,10 L-8,6 L-6,6 L-6,4 L-2,4 Z " fill="#968B7E" transform="translate(662,590)"/>
<path d="M0,0 L9,0 L9,2 L2,2 L2,4 L-1,5 L-1,8 L-3,8 L-4,4 Z " fill="#BCAF9F" transform="translate(872,519)"/>
<path d="M0,0 L4,1 L2,1 L2,5 L0,5 L0,9 L-2,9 L-3,11 L-5,6 L-3,2 L-1,2 L-1,4 L1,4 Z " fill="#A69A93" transform="translate(982,385)"/>
<path d="M0,0 L2,0 L3,3 L-4,11 L-6,9 L-6,5 L-3,4 L-2,2 L0,2 Z " fill="#B8ABA2" transform="translate(841,325)"/>
<path d="M0,0 L1,4 L3,4 L4,6 L8,8 L4,8 L4,10 L-2,10 L-2,9 L3,9 L3,7 L-1,8 L-1,5 L-3,5 L-4,8 L-4,4 L0,4 Z " fill="#65564E" transform="translate(698,926)"/>
<path d="M0,0 L1,0 L1,5 L0,3 L-3,3 L-4,11 L-5,7 L-7,7 L-7,13 L-4,14 L-8,14 L-8,6 L-4,4 L-4,2 L0,2 Z " fill="#6C5D53" transform="translate(702,912)"/>
<path d="M0,0 L3,0 L3,2 L-5,9 L-10,10 L-10,7 L-4,6 L-4,4 L-2,4 L-2,2 L0,2 Z " fill="#B5A79A" transform="translate(559,731)"/>
<path d="M0,0 L6,0 L2,2 L-8,12 L-10,12 L-8,8 L-4,4 L-2,4 L-2,2 L0,2 Z " fill="#211E1C" transform="translate(808,678)"/>
<path d="M0,0 L2,3 L1,6 L-6,12 L-10,16 L-10,12 L-8,12 L-6,8 L-2,6 L-2,4 L0,4 Z " fill="#1E1C1A" transform="translate(982,390)"/>
<path d="M0,0 L4,1 L-4,8 L-9,14 L-10,10 L-8,10 L-6,6 L-2,4 L-2,2 L0,2 Z " fill="#14110F" transform="translate(834,740)"/>
<path d="M0,0 L4,1 L-4,8 L-8,12 L-10,12 L-8,8 L-2,2 L0,2 Z " fill="#23201E" transform="translate(904,498)"/>
<path d="M0,0 L2,1 L1,5 L-1,5 L-1,7 L-3,7 L-3,9 L-9,10 L-3,3 L0,2 Z " fill="#A2968E" transform="translate(952,192)"/>
<path d="M0,0 L2,0 L0,4 L-8,12 L-10,14 L-10,10 L-8,10 L-6,6 L-2,2 L0,2 Z " fill="#201E1B" transform="translate(684,806)"/>
<path d="M0,0 L4,1 L2,1 L2,5 L-1,5 L-1,10 L-5,10 L-3,2 L-1,2 L-1,4 L1,4 Z " fill="#AFA29C" transform="translate(940,439)"/>
<path d="M0,0 L2,4 L1,9 L0,7 L1,5 L-1,5 L-1,7 L-3,7 L-3,9 L-1,9 L-1,13 L-3,13 L-3,11 L-5,11 L-6,14 L-6,10 L-4,10 L-4,6 L-2,6 L-2,4 L0,4 Z " fill="#9C9089" transform="translate(812,356)"/>
<path d="M0,0 L3,1 L2,3 L0,2 Z M-4,2 L2,3 L-2,8 L-6,8 Z " fill="#BAADA4" transform="translate(855,309)"/>
<path d="M0,0 L2,0 L0,4 L-8,12 L-10,12 L-8,8 L-2,2 L0,2 Z " fill="#221F1D" transform="translate(594,886)"/>
<path d="M0,0 L3,0 L3,6 L1,6 L1,9 L-3,9 Z " fill="#BAA999" transform="translate(718,758)"/>
<path d="M0,0 L1,0 L1,8 L4,9 L0,13 L0,11 L-3,11 L-3,16 L-4,16 L-4,10 L-2,10 L-2,8 L0,8 Z " fill="#9F9287" transform="translate(638,610)"/>
<path d="M0,0 L4,1 L4,3 L-2,7 L-6,6 L-6,4 L0,2 Z " fill="#B9AC9B" transform="translate(735,551)"/>
<path d="M0,0 L2,0 L1,5 L-1,8 L-3,8 L-3,12 L-7,11 L-4,11 L-5,7 L-2,7 L-2,5 L-4,4 Z " fill="#A99D95" transform="translate(993,372)"/>
<path d="M0,0 L2,0 L1,5 L-4,11 L-6,9 L-6,5 L0,4 Z " fill="#B8ABA2" transform="translate(909,241)"/>
<path d="M0,0 L3,1 L2,5 L-6,5 L-6,2 Z " fill="#BAA9A0" transform="translate(564,904)"/>
<path d="M0,0 L2,0 L1,6 L-3,6 L-4,8 L-5,2 Z " fill="#AEA292" transform="translate(751,712)"/>
<path d="M0,0 L6,0 L6,3 L1,3 L1,5 L-3,5 L-3,1 Z " fill="#BAAE9C" transform="translate(775,698)"/>
<path d="M0,0 L1,3 L3,4 L-3,3 L-3,7 L-7,7 L-8,11 L-11,9 L-6,4 L-4,4 L-4,2 L0,2 Z " fill="#998D81" transform="translate(650,600)"/>
<path d="M0,0 L4,1 L1,1 L1,3 L3,3 L3,5 L-1,7 L-5,5 L-5,7 L-8,8 L-8,6 L-6,6 L-6,4 L-2,4 L-2,2 L0,2 Z " fill="#A29586" transform="translate(688,568)"/>
<path d="M0,0 L2,0 L3,5 L-2,9 L-6,8 L-6,6 L0,4 Z " fill="#BFB09F" transform="translate(695,563)"/>
<path d="M0,0 L2,0 L2,8 L1,11 L-2,11 L-2,5 L0,5 Z " fill="#BDAEA1" transform="translate(767,483)"/>
<path d="M0,0 L1,3 L3,3 L3,1 L5,1 L3,6 L-1,5 L-1,7 L1,8 L-5,7 L-6,10 L-6,6 L-2,6 L-2,4 L0,4 Z " fill="#A1958D" transform="translate(856,304)"/>
<path d="M0,0 L6,0 L6,1 L1,1 L1,3 L6,3 L3,5 L0,5 L0,3 L-3,3 L-3,7 L-7,5 L-4,4 L-4,2 L0,2 Z " fill="#A3978F" transform="translate(970,178)"/>
<path d="M0,0 L4,1 L1,1 L1,3 L3,3 L2,6 L-5,5 L-5,7 L-8,8 L-8,6 L-6,6 L-6,4 L-2,4 L-2,2 L0,2 Z " fill="#A2968E" transform="translate(984,170)"/>
<path d="M0,0 L3,0 L2,4 L-1,5 L-1,10 L-3,10 L-4,3 Z " fill="#BAA99D" transform="translate(596,875)"/>
<path d="M0,0 L3,1 L3,4 L0,5 L-1,8 L-4,8 L-4,3 Z " fill="#BBAE9E" transform="translate(794,685)"/>
<path d="M0,0 L5,0 L4,4 L1,8 L1,3 L-1,3 L-1,8 L-2,8 L-2,2 L0,2 Z " fill="#A89C8D" transform="translate(758,528)"/>
<path d="M0,0 L2,0 L3,3 L-2,9 L-4,7 L-4,3 L0,2 Z " fill="#B9ACA3" transform="translate(817,353)"/>
<path d="M0,0 L2,0 L3,4 L1,9 L-2,9 L-2,3 L0,3 Z " fill="#BBAA9D" transform="translate(529,833)"/>
<path d="M0,0 L2,0 L4,3 L3,7 L-1,10 L-2,6 Z " fill="#BBAC9C" transform="translate(545,749)"/>
<path d="M0,0 L4,0 L5,3 L9,4 L9,7 L3,7 L3,2 L0,2 Z " fill="#BDAE9D" transform="translate(709,557)"/>
<path d="M0,0 L5,1 L3,9 L0,9 Z " fill="#BCADA0" transform="translate(763,495)"/>
<path d="M0,0 L1,0 L1,6 L3,7 L0,12 L-1,12 L-1,7 L-3,7 L-3,12 L-4,12 L-4,6 L0,6 Z " fill="#9F9389" transform="translate(770,476)"/>
<path d="M0,0 L4,0 L4,15 L3,15 L2,2 L0,2 Z " fill="#89796A" transform="translate(757,835)"/>
<path d="M0,0 L4,1 L1,1 L1,5 L-1,5 L-1,7 L-7,8 L-2,2 L0,2 Z " fill="#9A8E81" transform="translate(630,682)"/>
<path d="M0,0 L2,2 L2,5 L0,6 L-1,9 L-4,9 L-3,5 Z " fill="#B8ABA5" transform="translate(953,418)"/>
<path d="M0,0 L4,1 L1,1 L1,5 L-1,5 L-1,7 L-7,8 L-2,2 L0,2 Z " fill="#9A8E87" transform="translate(876,282)"/>
<path d="M0,0 L5,0 L0,5 L-6,4 L-6,2 Z " fill="#BAADA4" transform="translate(977,177)"/>
<path d="M0,0 L6,0 L6,2 L3,2 L3,4 L-3,4 L-3,1 Z " fill="#BBAAA1" transform="translate(545,913)"/>
<path d="M0,0 L1,0 L1,6 L3,7 L1,9 L-6,10 L-6,8 L-4,8 L-4,6 L0,6 Z " fill="#75685A" transform="translate(734,860)"/>
<path d="M0,0 L2,0 L1,9 L-2,9 L-2,3 L0,3 Z " fill="#BBAB9D" transform="translate(537,815)"/>
<path d="M0,0 L2,0 L0,4 L-6,10 L-8,10 L-6,6 L-2,2 L0,2 Z " fill="#221F1C" transform="translate(708,786)"/>
<path d="M0,0 L6,1 L4,2 L4,7 L2,7 L1,4 L-1,5 Z " fill="#78685B" transform="translate(737,880)"/>
<path d="M0,0 L2,0 L0,4 L-10,4 L-10,2 L-1,1 Z " fill="#917F70" transform="translate(729,869)"/>
<path d="M0,0 L7,1 L3,4 L0,5 L-3,4 L-3,2 L0,2 Z " fill="#B8AA9D" transform="translate(592,711)"/>
<path d="M0,0 L1,3 L3,4 L0,4 L-3,3 L-3,7 L-9,8 L-6,4 L-4,4 L-4,2 L0,2 Z " fill="#9A8E82" transform="translate(622,690)"/>
<path d="M0,0 L1,3 L4,3 L5,0 L5,4 L-3,5 L-5,2 Z " fill="#ACA091" transform="translate(789,690)"/>
<path d="M0,0 L1,0 L1,13 L-2,13 L-2,7 Z " fill="#B4A897" transform="translate(830,550)"/>
<path d="M0,0 L4,0 L2,4 L-3,5 L-4,2 Z " fill="#B7AB9F" transform="translate(893,504)"/>
<path d="M0,0 L2,2 L2,8 L0,9 L-2,8 L-1,1 Z " fill="#B8AAA3" transform="translate(927,462)"/>
<path d="M0,0 L3,0 L3,2 L1,3 L1,6 L-2,6 L-3,8 L-3,6 L-5,5 Z " fill="#B9ACA3" transform="translate(988,377)"/>
<path d="M0,0 L8,0 L8,1 L1,1 L1,5 L-5,6 L-2,2 L0,2 Z " fill="#6C5D52" transform="translate(708,906)"/>
<path d="M0,0 L10,0 L10,1 L1,1 L1,5 L-5,6 L-2,2 L0,2 Z " fill="#706156" transform="translate(718,870)"/>
<path d="M0,0 L4,1 L4,3 L1,4 L0,7 L-2,7 L-3,2 Z " fill="#BBAB9B" transform="translate(685,798)"/>
<path d="M0,0 L2,0 L2,5 L4,5 L4,9 L1,9 L-1,5 Z " fill="#BCB19E" transform="translate(829,617)"/>
<path d="M0,0 L1,0 L1,6 L3,6 L4,3 L3,8 L0,10 L0,7 L-6,7 L-6,6 L0,6 Z " fill="#A09389" transform="translate(786,432)"/>
<path d="M0,0 L2,4 L1,7 L1,5 L-1,5 L-1,9 L-7,10 L-4,6 L-2,6 L-2,4 L0,4 Z " fill="#998E86" transform="translate(910,236)"/>
<path d="M0,0 L1,3 L3,4 L-2,6 L-5,5 L-5,10 L-6,10 L-6,4 L-2,4 Z " fill="#9B8F88" transform="translate(942,202)"/>
<path d="M0,0 L1,0 L1,5 L6,4 L5,8 L0,7 Z " fill="#77645A" transform="translate(701,925)"/>
<path d="M0,0 L1,2 L5,3 L1,3 L1,7 L-5,7 L-5,6 L0,6 L0,4 L-5,4 L-3,2 L0,2 Z " fill="#9E8F86" transform="translate(579,895)"/>
<path d="M0,0 L2,1 L1,6 L-3,6 L-4,8 L-4,5 L-6,4 L0,5 L0,3 L-3,3 L-3,1 Z " fill="#6C6151" transform="translate(853,724)"/>
<path d="M0,0 L5,1 L5,3 L2,3 L2,5 L-2,5 L-2,1 Z " fill="#BAAE9D" transform="translate(818,668)"/>
<path d="M0,0 L2,0 L0,4 L-2,6 L-6,6 L-6,3 L0,2 Z " fill="#B6A999" transform="translate(657,597)"/>
<path d="M0,0 L2,4 L-3,3 L-3,7 L-9,8 L-6,4 L-4,4 L-4,2 L0,2 Z " fill="#988D80" transform="translate(748,540)"/>
<path d="M0,0 L2,0 L2,6 L0,6 L0,9 L-2,9 L-2,3 L0,3 Z " fill="#BCAEA2" transform="translate(789,429)"/>
<path d="M0,0 L2,0 L3,4 L0,9 L-2,9 L-2,3 L0,3 Z " fill="#BDAEA3" transform="translate(797,411)"/>
<path d="M0,0 L4,1 L-4,8 L-6,10 L-6,6 L-4,6 L-2,2 L0,2 Z " fill="#1F1D1B" transform="translate(996,374)"/>
<path d="M0,0 L2,0 L3,6 L1,8 L-2,8 Z " fill="#BCAEA5" transform="translate(937,207)"/>
<path d="M0,0 L5,0 L4,2 L1,3 L1,6 L-3,6 L-1,1 Z " fill="#B8A798" transform="translate(660,833)"/>
<path d="M0,0 L5,0 L2,1 L2,3 L6,4 L2,4 L2,6 L-2,5 L1,5 L1,3 L-2,3 L-2,1 Z " fill="#A3998A" transform="translate(822,666)"/>
<path d="M0,0 L2,0 L1,8 L-2,10 L-2,4 Z " fill="#BDAFA6" transform="translate(895,261)"/>
<path d="M0,0 L1,3 L4,3 L3,8 L2,5 L-1,5 L-1,10 L-2,10 L-2,4 L0,4 Z " fill="#A09388" transform="translate(548,738)"/>
<path d="M0,0 L2,0 L0,4 L-5,10 L-6,6 L-4,6 L-2,2 L0,2 Z " fill="#1E1C19" transform="translate(738,728)"/>
<path d="M0,0 L4,1 L1,1 L1,3 L3,3 L3,5 L-1,7 L-2,2 L0,2 Z " fill="#A89A8E" transform="translate(564,724)"/>
<path d="M0,0 L4,1 L-4,8 L-6,8 L-4,4 L-2,4 L-2,2 L0,2 Z " fill="#1E1C19" transform="translate(834,662)"/>
<path d="M0,0 L10,1 L10,2 L4,2 L4,4 L0,4 Z " fill="#1D1B18" transform="translate(714,556)"/>
<path d="M0,0 L2,0 L2,6 L0,8 L-4,8 L-4,6 L-1,5 Z " fill="#BEB1A0" transform="translate(757,531)"/>
<path d="M0,0 L2,0 L0,4 L-5,10 L-6,6 L-4,6 L-2,2 L0,2 Z " fill="#1E1C1B" transform="translate(924,476)"/>
<path d="M0,0 L3,1 L1,5 L-1,6 L-4,4 Z " fill="#B4A79F" transform="translate(976,393)"/>
<path d="M0,0 L4,1 L4,7 L2,5 L0,7 L-1,1 Z " fill="#0F0D0D" transform="translate(502,907)"/>
<path d="M0,0 L3,0 L3,2 L1,2 L1,9 L-1,9 L-1,1 Z " fill="#BFB0A4" transform="translate(512,875)"/>
<path d="M0,0 L2,0 L0,4 L-3,7 L-6,7 L-6,5 Z " fill="#766556" transform="translate(749,872)"/>
<path d="M0,0 L4,0 L4,6 L1,6 Z " fill="#7E7161" transform="translate(877,697)"/>
<path d="M0,0 L3,0 L3,3 L-2,6 L-6,9 L-4,5 Z " fill="#B2A697" transform="translate(804,676)"/>
<path d="M0,0 L2,0 L3,6 L1,8 L-2,8 Z " fill="#BDAF9F" transform="translate(643,667)"/>
<path d="M0,0 L1,2 L3,2 L1,14 L0,14 Z " fill="#B2A499" transform="translate(781,450)"/>
<path d="M0,0 L3,0 L2,4 L-2,6 L-2,2 L0,2 Z " fill="#B9AB9D" transform="translate(571,721)"/>
<path d="M0,0 L3,0 L5,4 L4,7 L4,5 L0,5 Z " fill="#B8AA9D" transform="translate(635,621)"/>
<path d="M0,0 L5,0 L4,2 L1,3 L1,6 L-1,6 L-2,1 Z " fill="#BAACA6" transform="translate(940,437)"/>
<path d="M0,0 L1,3 L7,3 L7,4 L1,4 L1,6 L-1,6 L-2,8 L-3,5 L-1,4 Z " fill="#998B84" transform="translate(541,914)"/>
<path d="M0,0 L2,0 L2,5 L-2,9 L-1,4 Z " fill="#B9AB9E" transform="translate(521,866)"/>
<path d="M0,0 L1,0 L1,5 L0,3 L-3,3 L-3,7 L-7,5 L-4,4 L-4,2 L0,2 Z " fill="#6C6353" transform="translate(854,714)"/>
<path d="M0,0 L4,1 L1,1 L1,5 L-5,6 L-2,2 L0,2 Z " fill="#968B7E" transform="translate(676,576)"/>
<path d="M0,0 L1,3 L3,3 L2,8 L1,5 L-1,5 L-2,8 L-2,4 L0,4 Z " fill="#A1948A" transform="translate(774,468)"/>
<path d="M0,0 L2,0 L2,6 L0,7 L-2,6 L-2,3 L0,3 Z " fill="#BBADA2" transform="translate(777,465)"/>
<path d="M0,0 L4,0 L3,8 L1,4 Z " fill="#AEA19B" transform="translate(931,454)"/>
<path d="M0,0 L1,3 L4,4 L2,7 L2,5 L-1,5 L-1,10 L-2,10 L-2,4 L0,4 Z " fill="#9B8D84" transform="translate(778,440)"/>
<path d="M0,0 L2,0 L2,3 L4,3 L4,6 L0,6 Z " fill="#807363" transform="translate(815,751)"/>
<path d="M0,0 L2,0 L2,2 L0,2 L0,4 L-6,5 L-3,1 Z " fill="#A19489" transform="translate(555,733)"/>
<path d="M0,0 L1,4 L-3,4 L-3,6 L-5,6 L-6,8 L-7,5 L-5,3 L-3,2 L0,3 Z " fill="#625949" transform="translate(865,716)"/>
<path d="M0,0 L1,3 L3,4 L1,4 L0,7 L-2,6 L-1,1 Z " fill="#A5988A" transform="translate(662,590)"/>
<path d="M0,0 L3,0 L3,2 L1,3 L1,6 L-1,6 L-1,4 L-3,4 L-3,2 Z " fill="#BCAEA2" transform="translate(886,509)"/>
<path d="M0,0 L2,0 L1,5 L-2,7 L-3,5 L-2,3 L0,3 Z " fill="#756558" transform="translate(715,920)"/>
<path d="M0,0 L2,0 L0,4 L-5,5 L-5,3 Z " fill="#BAA89E" transform="translate(585,892)"/>
<path d="M0,0 L2,1 L1,5 L-5,6 L-2,2 L0,2 Z " fill="#6F6155" transform="translate(748,844)"/>
<path d="M0,0 L1,4 L-5,5 Z " fill="#746659" transform="translate(756,835)"/>
<path d="M0,0 L2,0 L1,5 L-3,5 L-2,1 Z " fill="#BAA999" transform="translate(693,794)"/>
<path d="M0,0 L2,0 L2,5 L-3,6 L-1,2 Z " fill="#B3A797" transform="translate(855,537)"/>
<path d="M0,0 L3,0 L4,5 L0,5 Z " fill="#BAA99F" transform="translate(777,445)"/>
<path d="M0,0 L2,1 L1,5 L-5,6 L-2,2 L0,2 Z " fill="#978C85" transform="translate(862,298)"/>
<path d="M0,0 L2,1 L1,5 L-5,6 L-2,2 L0,2 Z " fill="#978C85" transform="translate(934,212)"/>
<path d="M0,0 L2,1 L1,5 L-5,6 L-2,2 L0,2 Z " fill="#978C85" transform="translate(952,192)"/>
<path d="M0,0 L3,0 L3,2 L1,3 L1,6 L-1,6 L-2,2 Z " fill="#BDAF9E" transform="translate(738,721)"/>
<path d="M0,0 L7,1 L7,3 L1,4 Z " fill="#776C5A" transform="translate(849,721)"/>
<path d="M0,0 L3,0 L3,2 L1,3 L1,6 L-1,6 L-2,2 Z " fill="#BCB09F" transform="translate(858,533)"/>
<path d="M0,0 L4,1 L3,4 L-1,4 Z " fill="#B8AAA1" transform="translate(905,493)"/>
<path d="M0,0 L3,0 L3,2 L1,3 L1,6 L-1,6 L-2,2 Z " fill="#BDAFA7" transform="translate(982,383)"/>
<path d="M0,0 L2,0 L1,5 L-3,5 L-3,3 L0,3 Z " fill="#78675B" transform="translate(729,906)"/>
<path d="M0,0 L2,0 L0,4 L-4,6 L-2,2 L0,2 Z " fill="#1F1C19" transform="translate(660,840)"/>
<path d="M0,0 L6,1 L5,3 L-1,2 Z " fill="#766A59" transform="translate(833,736)"/>
<path d="M0,0 L2,0 L1,5 L-3,5 L-3,3 L0,3 Z " fill="#BAAD9C" transform="translate(745,716)"/>
<path d="M0,0 L3,1 L3,3 L-1,4 L-3,3 L-3,1 Z " fill="#B9AC9B" transform="translate(692,568)"/>
<path d="M0,0 L2,0 L0,4 L-4,6 L-2,2 L0,2 Z " fill="#1F1D1A" transform="translate(870,528)"/>
<path d="M0,0 L2,3 L2,6 L-2,6 Z " fill="#B9ABA1" transform="translate(909,487)"/>
<path d="M0,0 L2,0 L0,4 L-4,4 L-4,1 L0,2 Z " fill="#B5A89F" transform="translate(967,183)"/>
<path d="M0,0 L2,0 L1,5 L-2,6 Z " fill="#8A796A" transform="translate(751,841)"/>
<path d="M0,0 L3,1 L2,4 L-2,5 Z " fill="#B5A898" transform="translate(726,734)"/>
<path d="M0,0 L4,0 L2,4 L0,5 Z " fill="#B6A999" transform="translate(639,675)"/>
<path d="M0,0 L4,1 L1,1 L1,5 L-3,3 L0,2 Z " fill="#9B8F82" transform="translate(752,536)"/>
<path d="M0,0 L2,0 L3,4 L1,6 L1,4 L-2,3 L0,3 Z " fill="#B9ACA3" transform="translate(807,367)"/>
<path d="M0,0 L2,0 L2,4 L0,4 L0,2 L-2,2 L-3,5 L-3,1 Z " fill="#A69A92" transform="translate(809,365)"/>
<path d="M0,0 L3,2 L-1,4 L-3,3 L-3,1 Z " fill="#BAACA3" transform="translate(880,282)"/>
<path d="M0,0 L4,1 L1,1 L1,5 L-3,3 L0,2 Z " fill="#9B8F87" transform="translate(966,180)"/>
<path d="M0,0 L5,0 L6,3 L1,2 Z " fill="#B4A69D" transform="translate(503,905)"/>
<path d="M0,0 L6,0 L3,1 L3,3 L-1,2 Z " fill="#A4978D" transform="translate(504,884)"/>
<path d="M0,0 L2,0 L0,4 L-5,4 Z " fill="#897869" transform="translate(729,869)"/>
<path d="M0,0 L3,0 L2,5 L1,3 L-1,3 Z " fill="#B0A093" transform="translate(604,869)"/>
<path d="M0,0 L4,0 L4,2 L0,4 Z " fill="#B6A998" transform="translate(681,575)"/>
<path d="M0,0 L2,0 L3,3 L-2,4 L-2,2 L0,2 Z " fill="#BAADA4" transform="translate(833,335)"/>
<path d="M0,0 L2,0 L2,2 L4,2 L4,4 L0,4 Z " fill="#826E63" transform="translate(691,935)"/>
<path d="M0,0 L2,0 L0,4 L-3,4 Z " fill="#B6A59B" transform="translate(589,888)"/>
<path d="M0,0 L2,0 L0,4 L-3,4 Z " fill="#B6A595" transform="translate(705,786)"/>
<path d="M0,0 L2,0 L2,3 L-2,4 L-2,1 Z " fill="#BAAB9E" transform="translate(615,697)"/>
<path d="M0,0 L3,0 L3,2 L1,2 L1,4 L-1,4 Z " fill="#806F62" transform="translate(720,901)"/>
<path d="M0,0 L3,0 L3,2 L1,2 L1,4 L-1,4 Z " fill="#BEAEA0" transform="translate(522,843)"/>
<path d="M0,0 L6,1 L2,3 L0,2 Z " fill="#BCAEA0" transform="translate(585,715)"/>
<path d="M0,0 L6,1 L2,3 L0,2 Z " fill="#BCAEA0" transform="translate(593,711)"/>
<path d="M0,0 L4,1 L3,4 L2,2 L0,2 Z M1,4 Z " fill="#BCAF9E" transform="translate(619,693)"/>
<path d="M0,0 L1,4 L-3,4 L-2,1 Z " fill="#B4A79F" transform="translate(916,479)"/>
<path d="M0,0 L3,0 L3,2 L1,2 L1,4 L-1,4 Z " fill="#BEB0A7" transform="translate(820,347)"/>
<path d="M0,0 L3,0 L3,2 L-1,4 Z " fill="#030302" transform="translate(608,873)"/>
<path d="M0,0 L5,1 L4,3 L0,2 Z " fill="#BDAF9F" transform="translate(647,603)"/>
<path d="M0,0 L5,0 L2,3 L0,3 Z " fill="#B1A097" transform="translate(781,441)"/>
<path d="M0,0 L3,0 L3,2 L-1,4 Z " fill="#030302" transform="translate(996,377)"/>
<path d="M0,0 L2,0 L3,3 L0,5 Z " fill="#B8ABA2" transform="translate(817,353)"/>
<path d="M0,0 L3,1 L0,4 Z " fill="#B8ABA2" transform="translate(825,345)"/>
<path d="M0,0 L3,0 L4,3 L0,3 Z " fill="#C0B2A8" transform="translate(955,189)"/>
<path d="M0,0 L2,0 L1,4 L-2,2 L0,2 Z " fill="#B8A79F" transform="translate(565,905)"/>
<path d="M0,0 L2,0 L1,4 L0,2 L-2,1 Z " fill="#746957" transform="translate(847,729)"/>
<path d="M0,0 L4,1 L4,3 L0,2 Z " fill="#BEAFA1" transform="translate(565,725)"/>
<path d="M0,0 L3,0 L3,3 L0,3 Z " fill="#B8AC9C" transform="translate(804,676)"/>
<path d="M0,0 L4,1 L4,3 L0,2 Z " fill="#BEB09F" transform="translate(657,595)"/>
<path d="M0,0 L4,1 L4,3 L0,2 Z " fill="#BEB09F" transform="translate(677,577)"/>
<path d="M0,0 L4,1 L4,3 L0,2 Z " fill="#BEB09E" transform="translate(683,573)"/>
<path d="M0,0 L4,1 L4,3 L0,2 Z " fill="#BEB09F" transform="translate(735,551)"/>
<path d="M0,0 L3,1 L3,4 L1,4 Z " fill="#BEB0AA" transform="translate(930,457)"/>
<path d="M0,0 L3,0 L1,4 Z " fill="#B3A69D" transform="translate(893,267)"/>
<path d="M0,0 L1,3 L-2,4 Z " fill="#76655B" transform="translate(695,933)"/>
<path d="M0,0 L3,2 L-2,3 Z " fill="#080707" transform="translate(632,676)"/>
<path d="M0,0 L2,2 L0,4 L-1,1 Z " fill="#A5958F" transform="translate(539,918)"/>
<path d="M0,0 L2,2 L0,4 L-1,1 Z " fill="#A59A8B" transform="translate(783,696)"/>
</svg>
