<?xml version="1.0" encoding="utf-8" ?>
<svg baseProfile="tiny" height="512px" version="1.2" viewBox="0,0,512,512" width="512px" xmlns="http://www.w3.org/2000/svg" xmlns:ev="http://www.w3.org/2001/xml-events" xmlns:xlink="http://www.w3.org/1999/xlink"><defs /><polygon fill="none" points="191,221 195,236 188,241 188,264 191,264 200,279 208,284 226,285 226,294 234,291 230,288 233,291 228,292 227,285 210,285 201,279 196,268 188,263 188,241 195,237 196,229 191,225" stroke="#00E5FF" stroke-width="1.2" /><polygon fill="none" points="294,181 277,162 259,169 258,174 263,179 264,186 267,185 263,184 263,179 258,173 261,168 271,163 284,169 291,178 291,183" stroke="#00E5FF" stroke-width="1.2" /><polygon fill="none" points="229,295 233,297 236,293 249,303 238,291 233,296" stroke="#00E5FF" stroke-width="1.2" /><polygon fill="none" points="174,182 169,194 171,204 175,209 180,209 187,199 179,209 172,205 170,194" stroke="#00E5FF" stroke-width="1.2" /><polygon fill="none" points="209,311 224,329 248,328 227,330" stroke="#00E5FF" stroke-width="1.2" /></svg>