<?xml version="1.0" encoding="UTF-8"?>
<!-- Generator: visioncortex VTracer 0.6.4 -->
<svg version="1.1" xmlns="http://www.w3.org/2000/svg" width="1024" height="1024">
<path d="M0,0 L1024,0 L1024,1024 L0,1024 Z " fill="#000000" transform="translate(0,0)"/>
<path d="M0,0 L8,0 L8,2 L12,2 L14,5 L18,6 L22,10 L22,8 L24,8 L24,6 L28,6 L28,2 L40,2 L40,0 L56,0 L56,2 L64,2 L64,4 L68,4 L68,6 L76,6 L76,8 L84,8 L84,10 L102,10 L102,12 L108,12 L108,14 L114,14 L114,16 L118,16 L118,18 L124,18 L128,22 L128,26 L132,26 L132,30 L134,30 L134,48 L138,50 L140,54 L142,54 L142,58 L144,58 L144,62 L146,62 L146,66 L148,66 L148,70 L150,70 L152,73 L156,74 L156,72 L162,72 L162,74 L170,74 L170,76 L172,76 L172,82 L174,82 L174,86 L176,86 L176,92 L178,92 L178,100 L180,100 L180,102 L182,102 L182,106 L186,106 L186,116 L188,116 L188,118 L190,118 L190,124 L192,124 L192,128 L194,128 L194,130 L196,130 L196,138 L198,138 L198,146 L200,146 L200,154 L202,154 L202,158 L204,158 L204,166 L206,166 L206,168 L208,168 L208,172 L210,172 L210,180 L214,180 L214,184 L216,184 L216,192 L218,192 L218,198 L220,198 L220,206 L222,206 L222,228 L224,228 L224,238 L222,238 L222,262 L220,262 L220,266 L222,266 L222,278 L220,278 L220,302 L214,302 L214,304 L206,304 L206,306 L204,306 L204,308 L200,308 L200,310 L198,310 L198,314 L196,314 L196,320 L194,320 L194,324 L192,324 L192,328 L190,328 L190,330 L188,330 L188,338 L186,338 L186,348 L184,348 L184,352 L182,352 L182,354 L180,354 L180,356 L178,356 L178,360 L176,360 L176,362 L174,362 L174,366 L172,366 L172,370 L168,370 L168,372 L166,372 L166,374 L160,374 L160,376 L152,376 L152,378 L148,378 L148,380 L144,384 L138,384 L138,388 L134,388 L134,392 L132,392 L132,394 L130,394 L130,396 L128,396 L128,400 L126,400 L126,402 L124,402 L124,406 L122,406 L122,408 L120,408 L120,410 L118,410 L118,414 L116,414 L116,416 L114,416 L114,418 L112,418 L112,420 L106,420 L106,422 L104,422 L104,424 L100,424 L100,426 L94,426 L94,428 L90,428 L90,430 L78,430 L78,432 L54,432 L54,430 L38,430 L38,428 L32,428 L32,426 L22,426 L22,424 L14,424 L14,422 L-16,422 L-16,424 L-36,424 L-36,422 L-44,422 L-44,420 L-48,420 L-48,418 L-52,418 L-52,416 L-56,416 L-56,412 L-58,412 L-58,410 L-63,409 L-68,404 L-68,402 L-72,402 L-72,392 L-70,392 L-70,388 L-68,388 L-70,381 L-78,373 L-80,372 L-80,368 L-82,368 L-82,366 L-86,366 L-86,362 L-90,366 L-96,366 L-98,362 L-104,362 L-106,357 L-108,356 L-108,350 L-110,350 L-110,346 L-112,346 L-113,330 L-116,328 L-117,320 L-120,318 L-120,312 L-122,312 L-122,308 L-124,308 L-124,278 L-122,278 L-122,254 L-120,254 L-120,232 L-118,232 L-118,228 L-116,228 L-116,220 L-114,220 L-114,216 L-112,216 L-112,210 L-110,210 L-110,208 L-108,208 L-108,202 L-106,202 L-106,200 L-104,200 L-104,194 L-102,194 L-102,188 L-100,188 L-100,182 L-94,182 L-92,185 L-88,186 L-88,182 L-84,182 L-82,178 L-80,178 L-80,176 L-76,176 L-76,170 L-72,170 L-72,162 L-70,162 L-70,160 L-68,160 L-68,150 L-66,150 L-66,148 L-64,148 L-64,138 L-62,138 L-62,134 L-60,134 L-60,128 L-56,128 L-56,122 L-52,120 L-52,118 L-46,118 L-46,116 L-40,116 L-40,118 L-38,118 L-38,116 L-36,116 L-36,110 L-34,110 L-34,108 L-32,108 L-32,98 L-30,98 L-30,84 L-28,84 L-28,78 L-26,78 L-26,74 L-24,74 L-24,70 L-22,70 L-22,66 L-20,66 L-20,62 L-18,62 L-18,56 L-16,56 L-16,52 L-14,52 L-14,36 L-12,36 L-12,26 L-10,26 L-10,22 L-8,22 L-8,12 L-6,12 L-6,6 L-4,6 L-4,2 L0,2 Z " fill="#D190B5" transform="translate(466,308)"/>
<path d="M0,0 L8,0 L8,2 L12,2 L14,5 L18,6 L22,10 L22,8 L24,8 L24,6 L28,6 L28,2 L40,2 L40,0 L56,0 L56,2 L64,2 L64,4 L68,4 L68,6 L76,6 L76,8 L84,8 L84,10 L102,10 L102,12 L108,12 L108,14 L114,14 L114,16 L118,16 L118,18 L124,18 L128,22 L128,26 L132,26 L132,30 L134,30 L134,48 L138,50 L140,54 L142,54 L142,58 L144,58 L144,62 L146,62 L146,66 L148,66 L148,70 L150,70 L152,73 L156,74 L156,72 L162,72 L162,74 L170,74 L170,76 L172,76 L172,82 L174,82 L174,86 L176,86 L176,92 L178,92 L178,100 L180,100 L180,102 L182,102 L182,106 L186,106 L186,116 L188,116 L188,118 L190,118 L190,124 L192,124 L192,128 L194,128 L194,130 L196,130 L196,138 L198,138 L198,146 L200,146 L200,154 L202,154 L202,158 L204,158 L204,166 L206,166 L206,168 L208,168 L208,172 L210,172 L210,180 L214,180 L214,184 L216,184 L216,192 L218,192 L218,198 L220,198 L220,206 L222,206 L222,228 L224,228 L224,238 L222,238 L222,262 L220,262 L220,266 L222,266 L222,278 L220,278 L220,302 L214,302 L214,304 L206,304 L206,306 L204,306 L204,308 L200,308 L200,310 L198,310 L198,314 L196,314 L196,320 L194,320 L194,324 L192,324 L192,328 L190,328 L190,330 L188,330 L188,338 L186,338 L186,348 L184,348 L184,352 L182,352 L182,354 L180,354 L180,356 L178,356 L178,360 L176,360 L176,362 L174,362 L174,366 L172,366 L172,370 L168,370 L168,372 L166,372 L166,374 L160,374 L160,376 L152,376 L152,378 L148,378 L148,380 L144,384 L138,384 L138,388 L134,388 L134,392 L132,392 L132,394 L130,394 L130,396 L128,396 L128,400 L126,400 L126,402 L124,402 L124,406 L122,406 L122,408 L120,408 L120,410 L118,410 L118,414 L116,414 L116,416 L114,416 L114,418 L112,418 L112,420 L106,420 L106,422 L104,422 L104,424 L100,424 L100,426 L94,426 L94,428 L90,428 L90,430 L78,430 L78,432 L54,432 L54,430 L38,430 L38,428 L32,428 L32,426 L22,426 L22,424 L14,424 L14,422 L-16,422 L-16,424 L-36,424 L-36,422 L-44,422 L-44,420 L-48,420 L-48,418 L-52,418 L-52,416 L-56,416 L-56,412 L-58,412 L-58,410 L-63,409 L-68,404 L-68,402 L-72,402 L-72,392 L-70,392 L-70,388 L-68,388 L-70,381 L-78,373 L-80,372 L-80,368 L-82,368 L-82,366 L-86,366 L-86,362 L-90,366 L-96,366 L-98,362 L-104,362 L-106,357 L-108,356 L-108,350 L-110,350 L-110,346 L-112,346 L-113,330 L-116,328 L-117,320 L-120,318 L-120,312 L-122,312 L-122,308 L-124,308 L-124,278 L-122,278 L-122,254 L-120,254 L-120,232 L-118,232 L-118,228 L-116,228 L-116,220 L-114,220 L-114,216 L-112,216 L-112,210 L-110,210 L-110,208 L-108,208 L-108,202 L-106,202 L-106,200 L-104,200 L-104,194 L-102,194 L-102,188 L-100,188 L-100,182 L-94,182 L-92,185 L-88,186 L-88,182 L-84,182 L-82,178 L-80,178 L-80,176 L-76,176 L-76,170 L-72,170 L-72,162 L-70,162 L-70,160 L-68,160 L-68,150 L-66,150 L-66,148 L-64,148 L-64,138 L-62,138 L-62,134 L-60,134 L-60,128 L-56,128 L-56,122 L-52,120 L-52,118 L-46,118 L-46,116 L-40,116 L-40,118 L-38,118 L-38,116 L-36,116 L-36,110 L-34,110 L-34,108 L-32,108 L-32,98 L-30,98 L-30,84 L-28,84 L-28,78 L-26,78 L-26,74 L-24,74 L-24,70 L-22,70 L-22,66 L-20,66 L-20,62 L-18,62 L-18,56 L-16,56 L-16,52 L-14,52 L-14,36 L-12,36 L-12,26 L-10,26 L-10,22 L-8,22 L-8,12 L-6,12 L-6,6 L-4,6 L-4,2 L0,2 Z M4,4 L-2,9 L-4,16 L-2,16 L-4,23 L-2,23 L-4,30 L-5,35 L-3,38 L-3,52 L-5,52 L-6,56 L-8,57 L-10,62 L-12,70 L-15,76 L-18,78 L-21,100 L-21,108 L-24,108 L-25,110 L-27,126 L-29,128 L-30,126 L-31,126 L-31,124 L-29,124 L-29,116 L-33,118 L-38,121 L-42,122 L-42,120 L-49,122 L-52,125 L-53,129 L-54,132 L-52,133 L-57,136 L-59,140 L-59,147 L-62,153 L-63,160 L-66,163 L-71,174 L-76,180 L-86,187 L-85,192 L-83,193 L-82,198 L-87,200 L-91,203 L-95,198 L-98,198 L-102,203 L-104,209 L-107,212 L-108,217 L-111,222 L-110,230 L-113,231 L-114,236 L-114,238 L-115,239 L-115,246 L-113,254 L-114,260 L-114,274 L-113,279 L-114,284 L-111,284 L-110,302 L-106,304 L-106,316 L-104,322 L-103,329 L-103,350 L-102,353 L-99,354 L-97,359 L-93,362 L-88,357 L-85,357 L-84,361 L-82,361 L-82,363 L-78,364 L-78,368 L-75,368 L-74,372 L-72,374 L-67,374 L-67,379 L-65,379 L-64,385 L-66,391 L-66,399 L-61,404 L-58,403 L-57,394 L-56,393 L-56,388 L-54,388 L-54,390 L-52,390 L-50,385 L-44,384 L-44,387 L-40,387 L-39,397 L-40,400 L-39,402 L-36,402 L-34,400 L-29,401 L-20,403 L-18,402 L-17,401 L-16,403 L6,403 L14,404 L14,406 L19,406 L19,408 L24,410 L29,410 L29,412 L40,414 L42,415 L66,415 L68,414 L68,411 L73,411 L73,409 L79,408 L79,406 L83,405 L86,400 L90,396 L89,389 L93,385 L95,378 L99,377 L101,378 L110,377 L116,376 L116,364 L119,359 L119,354 L112,356 L110,356 L111,353 L120,350 L129,347 L130,345 L134,347 L135,349 L140,349 L144,338 L141,335 L138,335 L138,333 L141,332 L139,330 L145,327 L146,328 L150,329 L154,329 L154,331 L150,331 L150,336 L147,337 L148,340 L150,341 L149,348 L147,351 L150,351 L155,349 L162,349 L165,344 L166,342 L166,336 L163,338 L162,342 L158,342 L157,332 L164,333 L170,324 L171,314 L169,314 L169,304 L167,304 L171,297 L171,282 L170,278 L171,277 L171,268 L168,268 L170,253 L172,235 L172,237 L172,254 L175,257 L175,263 L177,263 L176,266 L179,265 L181,256 L181,264 L183,264 L183,262 L189,262 L190,261 L190,243 L191,232 L194,232 L193,228 L192,227 L195,225 L195,214 L192,213 L194,207 L195,202 L194,202 L194,175 L193,146 L192,141 L192,133 L189,131 L186,120 L183,117 L181,108 L177,103 L174,103 L174,95 L173,92 L171,92 L170,85 L167,78 L156,77 L154,78 L149,75 L147,74 L146,88 L147,95 L147,105 L146,104 L145,80 L143,80 L142,93 L140,93 L138,86 L136,78 L130,78 L129,74 L128,70 L126,70 L125,65 L123,62 L123,60 L119,59 L120,50 L121,43 L120,42 L120,31 L118,27 L113,27 L113,29 L109,31 L102,30 L95,30 L90,32 L89,29 L86,29 L85,27 L84,28 L74,29 L74,27 L68,28 L64,30 L64,32 L57,30 L57,29 L51,28 L50,31 L46,30 L45,27 L42,27 L39,27 L46,25 L52,25 L52,21 L61,20 L63,14 L67,12 L62,11 L61,10 L61,8 L54,7 L53,5 L44,4 L40,5 L33,6 L27,11 L23,13 L18,12 L14,10 L10,6 Z M61,7 Z M-4,38 Z M-108,214 Z M145,329 Z M141,330 Z M141,334 Z M166,335 Z M132,346 Z M166,316 Z M108,356 Z M88,394 Z " fill="#A37388" transform="translate(466,308)"/>
<path d="M0,0 L8,0 L8,2 L12,2 L14,5 L18,6 L22,10 L22,8 L24,8 L24,6 L28,6 L28,2 L40,2 L40,0 L56,0 L56,2 L64,2 L64,4 L68,4 L68,6 L76,6 L76,8 L84,8 L84,10 L102,10 L102,12 L108,12 L108,14 L114,14 L114,16 L118,16 L118,18 L124,18 L128,22 L128,26 L132,26 L132,30 L134,30 L134,48 L138,50 L140,54 L142,54 L142,58 L144,58 L144,62 L146,62 L146,66 L148,66 L148,70 L150,70 L152,73 L156,74 L156,72 L162,72 L162,74 L170,74 L170,76 L172,76 L172,82 L174,82 L174,86 L176,86 L176,92 L178,92 L178,100 L180,100 L180,102 L182,102 L182,106 L186,106 L186,116 L188,116 L188,118 L190,118 L190,124 L192,124 L192,128 L194,128 L194,130 L196,130 L196,138 L198,138 L198,146 L200,146 L200,154 L199,154 L199,147 L197,147 L197,153 L195,150 L193,142 L191,141 L192,133 L188,132 L189,129 L187,128 L185,124 L184,124 L180,108 L177,105 L177,103 L174,103 L173,92 L171,92 L167,79 L156,78 L154,79 L150,78 L148,75 L147,88 L148,95 L148,105 L146,107 L145,104 L145,80 L143,80 L143,95 L142,93 L140,93 L138,88 L136,83 L136,78 L130,78 L128,74 L128,70 L126,70 L123,64 L122,62 L123,60 L119,59 L119,47 L120,43 L119,42 L119,31 L118,27 L113,27 L113,29 L109,32 L102,31 L95,31 L90,32 L89,30 L85,28 L84,29 L76,30 L74,29 L74,27 L65,30 L64,32 L56,31 L52,29 L48,31 L45,28 L42,28 L38,27 L46,24 L52,25 L52,21 L61,19 L61,16 L63,16 L63,14 L66,12 L59,12 L61,8 L54,7 L47,5 L33,7 L27,12 L23,14 L18,13 L13,10 L13,8 L6,6 L4,5 L-1,9 L-3,15 L-2,16 L-2,21 L-2,23 L-3,30 L-4,34 L-2,38 L-3,52 L-5,52 L-6,57 L-8,57 L-10,68 L-15,77 L-17,78 L-21,108 L-24,108 L-26,126 L-29,130 L-30,127 L-32,128 L-31,124 L-29,124 L-29,116 L-35,121 L-42,122 L-42,120 L-50,124 L-53,131 L-51,133 L-54,137 L-55,135 L-58,140 L-58,147 L-61,153 L-62,160 L-65,163 L-70,174 L-76,181 L-85,187 L-85,191 L-82,193 L-82,198 L-88,202 L-92,205 L-94,201 L-95,199 L-98,198 L-100,202 L-103,209 L-106,212 L-107,217 L-110,222 L-110,230 L-112,231 L-113,235 L-113,238 L-114,239 L-115,255 L-117,258 L-118,279 L-120,288 L-121,288 L-121,279 L-123,279 L-123,308 L-124,308 L-124,278 L-122,278 L-122,254 L-120,254 L-120,232 L-118,232 L-118,228 L-116,228 L-116,220 L-114,220 L-114,216 L-112,216 L-112,210 L-110,210 L-110,208 L-108,208 L-108,202 L-106,202 L-106,200 L-104,200 L-104,194 L-102,194 L-102,188 L-100,188 L-100,182 L-94,182 L-92,185 L-88,186 L-88,182 L-84,182 L-82,178 L-80,178 L-80,176 L-76,176 L-76,170 L-72,170 L-72,162 L-70,162 L-70,160 L-68,160 L-68,150 L-66,150 L-66,148 L-64,148 L-64,138 L-62,138 L-62,134 L-60,134 L-60,128 L-56,128 L-56,122 L-52,120 L-52,118 L-46,118 L-46,116 L-40,116 L-40,118 L-38,118 L-38,116 L-36,116 L-36,110 L-34,110 L-34,108 L-32,108 L-32,98 L-30,98 L-30,84 L-28,84 L-28,78 L-26,78 L-26,74 L-24,74 L-24,70 L-22,70 L-22,66 L-20,66 L-20,62 L-18,62 L-18,56 L-16,56 L-16,52 L-14,52 L-14,36 L-12,36 L-12,26 L-10,26 L-10,22 L-8,22 L-8,12 L-6,12 L-6,6 L-4,6 L-4,2 L0,2 Z M61,7 Z M-4,38 Z M-108,214 Z " fill="#A56A8C" transform="translate(466,308)"/>
<path d="M0,0 L2,0 L3,7 L4,11 L2,19 L2,24 L0,30 L0,32 L0,41 L2,41 L1,50 L0,56 L1,58 L4,59 L2,64 L2,76 L0,76 L-1,96 L-4,97 L-7,102 L-9,103 L-11,114 L-15,114 L-16,112 L-19,126 L-22,128 L-26,144 L-27,148 L-32,151 L-37,153 L-41,154 L-44,157 L-48,157 L-49,160 L-56,166 L-62,166 L-65,170 L-66,173 L-73,177 L-78,178 L-82,185 L-85,188 L-87,194 L-89,194 L-89,198 L-93,198 L-93,203 L-95,203 L-96,206 L-99,208 L-103,208 L-103,212 L-110,215 L-112,218 L-124,219 L-124,221 L-148,221 L-154,219 L-168,218 L-185,212 L-198,210 L-198,208 L-212,209 L-212,212 L-224,213 L-229,211 L-229,209 L-232,207 L-238,206 L-240,204 L-240,201 L-245,200 L-246,195 L-245,183 L-242,180 L-242,182 L-240,182 L-240,185 L-236,185 L-234,195 L-235,200 L-232,200 L-231,197 L-225,199 L-224,197 L-223,199 L-214,200 L-214,198 L-212,199 L-210,200 L-190,200 L-182,202 L-182,204 L-177,204 L-177,206 L-167,208 L-167,210 L-160,210 L-154,212 L-128,212 L-128,209 L-123,209 L-123,207 L-117,206 L-117,204 L-114,203 L-110,197 L-107,194 L-108,187 L-105,186 L-102,176 L-98,174 L-95,175 L-86,174 L-80,174 L-81,162 L-78,157 L-77,152 L-86,156 L-87,151 L-83,149 L-76,147 L-66,143 L-61,144 L-61,146 L-56,147 L-54,138 L-53,135 L-58,133 L-58,131 L-58,130 L-57,127 L-51,124 L-48,124 L-48,126 L-41,126 L-42,129 L-46,129 L-46,134 L-48,136 L-48,138 L-45,139 L-46,146 L-48,149 L-43,146 L-34,146 L-31,140 L-31,135 L-34,141 L-38,140 L-39,130 L-32,131 L-30,127 L-27,122 L-26,113 L-29,113 L-28,112 L-28,103 L-30,104 L-28,99 L-26,95 L-26,81 L-27,81 L-27,76 L-26,75 L-25,66 L-28,66 L-28,55 L-26,46 L-25,33 L-22,31 L-23,40 L-23,52 L-21,52 L-20,55 L-21,61 L-19,61 L-18,63 L-16,54 L-14,53 L-15,62 L-13,62 L-13,60 L-7,59 L-7,41 L-5,30 L-2,30 L-5,27 L-4,24 L-2,23 L-2,12 L-4,11 L-4,6 Z M-51,127 Z M-55,128 Z M-55,132 Z M-30,133 Z M-64,144 Z M-30,114 Z M-88,154 Z M-108,192 Z " fill="#AF7992" transform="translate(662,510)"/>
<path d="M0,0 L8,0 L8,6 L3,10 L2,12 L-10,12 L-10,10 L-18,11 L-21,14 L-22,18 L-24,18 L-24,38 L-32,39 L-35,42 L-36,62 L-40,62 L-40,66 L-44,66 L-44,68 L-46,68 L-46,70 L-52,70 L-54,74 L-60,74 L-60,72 L-74,72 L-74,74 L-128,74 L-128,72 L-133,71 L-134,68 L-136,68 L-136,62 L-142,62 L-142,60 L-144,60 L-144,54 L-140,54 L-140,40 L-134,40 L-134,50 L-130,50 L-130,52 L-128,52 L-128,48 L-122,48 L-122,52 L-120,52 L-120,50 L-114,50 L-110,54 L-110,52 L-98,52 L-98,50 L-76,50 L-76,44 L-74,44 L-74,42 L-70,42 L-69,37 L-66,34 L-64,34 L-64,32 L-58,32 L-56,28 L-54,28 L-54,26 L-50,26 L-50,24 L-48,24 L-48,22 L-42,22 L-42,20 L-40,20 L-40,16 L-38,16 L-38,14 L-34,14 L-34,12 L-32,12 L-32,10 L-30,10 L-30,8 L-24,8 L-24,6 L-18,6 L-18,4 L-8,4 L-8,2 L0,2 Z " fill="#1C0218" transform="translate(634,804)"/>
<path d="M0,0 L2,2 L3,8 L2,14 L2,28 L3,33 L2,38 L5,34 L5,56 L9,57 L10,62 L10,70 L12,76 L13,83 L13,107 L17,108 L19,113 L22,115 L25,112 L27,110 L30,111 L31,115 L33,115 L33,117 L37,118 L38,121 L40,122 L43,127 L48,128 L48,133 L50,133 L52,139 L50,145 L50,155 L56,157 L57,147 L59,147 L59,142 L61,142 L61,144 L63,144 L65,137 L66,137 L66,155 L71,157 L73,161 L80,162 L80,164 L83,165 L84,167 L91,168 L99,168 L99,165 L101,164 L113,164 L113,166 L126,167 L143,173 L157,174 L163,176 L187,177 L187,175 L199,174 L201,170 L204,168 L208,168 L208,164 L215,161 L216,159 L218,160 L218,165 L219,166 L219,171 L216,172 L213,176 L214,179 L209,179 L209,182 L205,182 L205,184 L193,184 L193,186 L169,186 L169,184 L153,184 L153,182 L147,182 L147,180 L137,180 L137,178 L129,178 L129,176 L99,176 L99,178 L79,178 L79,176 L71,176 L71,174 L67,174 L67,172 L63,172 L63,170 L59,170 L59,166 L57,166 L57,164 L52,163 L47,158 L47,156 L43,156 L43,146 L45,146 L45,142 L47,142 L45,135 L37,127 L35,126 L35,122 L33,122 L33,120 L29,120 L29,116 L25,120 L19,120 L17,116 L11,116 L9,111 L7,110 L7,104 L5,104 L5,100 L3,100 L2,84 L-1,82 L-2,74 L-5,72 L-5,66 L-7,66 L-8,62 L-8,33 L-6,33 L-5,35 L-4,33 L-3,12 L-1,9 Z " fill="#9C718D" transform="translate(351,554)"/>
<path d="M0,0 L3,1 L2,4 L4,5 L2,12 L7,12 L4,16 L2,25 L3,28 L3,41 L5,41 L4,46 L2,49 L2,54 L3,56 L5,57 L4,64 L-1,70 L-3,77 L-5,88 L-5,94 L-7,94 L-9,110 L-9,157 L-11,157 L-10,164 L-9,169 L-12,175 L-13,176 L-15,188 L-17,196 L-19,197 L-20,200 L-22,222 L-24,228 L-26,228 L-27,230 L-27,218 L-25,218 L-25,196 L-21,193 L-21,189 L-25,193 L-27,193 L-26,181 L-22,173 L-25,172 L-22,172 L-21,168 L-19,168 L-19,166 L-17,166 L-17,163 L-19,163 L-19,160 L-17,160 L-18,153 L-19,151 L-22,156 L-21,162 L-25,164 L-27,163 L-26,159 L-26,150 L-23,144 L-23,139 L-24,135 L-23,131 L-23,128 L-24,125 L-24,122 L-25,114 L-25,85 L-25,82 L-22,74 L-20,58 L-19,56 L-16,56 L-15,40 L-13,26 L-10,24 L-6,16 L-4,8 L-3,5 L-1,4 Z M-27,85 Z M-28,86 Z M-26,122 L-24,123 Z M-26,126 L-24,127 Z M-19,156 L-17,157 Z " fill="#C586AB" transform="translate(461,360)"/>
<path d="M0,0 L5,1 L14,0 L20,0 L16,7 L12,8 L10,13 L9,16 L7,16 L6,22 L4,23 L3,27 L0,30 L-1,34 L-3,34 L-3,38 L-10,41 L-12,44 L-24,45 L-24,47 L-48,47 L-54,45 L-68,44 L-85,38 L-98,36 L-98,34 L-112,35 L-112,38 L-124,39 L-129,37 L-129,35 L-132,33 L-138,32 L-140,30 L-140,27 L-145,26 L-146,21 L-145,9 L-142,6 L-142,8 L-140,8 L-140,11 L-136,11 L-134,21 L-135,26 L-132,26 L-131,23 L-125,25 L-124,23 L-123,25 L-114,26 L-114,24 L-112,25 L-110,26 L-90,26 L-82,28 L-82,30 L-77,30 L-77,32 L-67,34 L-67,36 L-60,36 L-54,38 L-28,38 L-28,35 L-23,35 L-23,33 L-17,32 L-17,30 L-14,29 L-10,23 L-7,20 L-8,13 L-5,12 L-2,2 Z M-8,18 Z " fill="#B886A6" transform="translate(562,684)"/>
<path d="M0,0 L1,0 L1,9 L-2,9 L-4,19 L-7,23 L-7,33 L-9,36 L-11,42 L-13,45 L-14,50 L-16,51 L-18,58 L-21,63 L-18,64 L-18,66 L-22,66 L-23,71 L-29,71 L-29,73 L-37,73 L-37,75 L-41,75 L-41,77 L-45,81 L-51,81 L-51,85 L-55,85 L-55,89 L-57,89 L-57,91 L-59,91 L-59,93 L-61,93 L-61,97 L-63,97 L-63,99 L-65,99 L-65,103 L-67,103 L-67,105 L-69,105 L-69,107 L-71,107 L-71,111 L-73,111 L-73,113 L-75,113 L-75,115 L-77,115 L-77,117 L-83,117 L-83,119 L-85,119 L-85,121 L-89,121 L-89,123 L-95,123 L-95,122 L-90,122 L-90,120 L-93,119 L-88,114 L-85,114 L-85,109 L-87,108 L-86,97 L-82,97 L-82,93 L-80,92 L-78,86 L-73,80 L-71,76 L-62,73 L-59,72 L-58,67 L-55,64 L-49,64 L-44,59 L-42,59 L-41,55 L-36,54 L-33,51 L-26,50 L-23,47 L-20,47 L-19,37 L-16,27 L-12,25 L-10,9 L-8,13 L-4,13 L-3,2 Z " fill="#AC6991" transform="translate(655,611)"/>
<path d="M0,0 L8,0 L8,2 L26,2 L26,4 L32,4 L32,6 L38,6 L38,8 L42,8 L42,10 L48,10 L52,14 L52,18 L56,18 L56,22 L58,22 L58,40 L62,42 L64,46 L66,46 L66,50 L68,50 L68,54 L70,54 L70,58 L72,58 L72,62 L74,62 L76,65 L80,66 L80,64 L86,64 L86,66 L94,66 L94,68 L96,68 L96,74 L98,74 L98,78 L100,78 L100,84 L102,84 L102,92 L104,92 L104,94 L106,94 L106,98 L110,98 L110,108 L112,108 L112,110 L114,110 L114,116 L116,116 L116,120 L118,120 L118,122 L120,122 L120,130 L122,130 L122,138 L124,138 L124,146 L123,146 L123,139 L121,139 L121,145 L119,142 L117,134 L115,133 L116,125 L112,124 L113,121 L111,120 L109,116 L108,116 L104,100 L101,97 L101,95 L98,95 L97,84 L95,84 L91,71 L80,70 L78,71 L74,70 L72,67 L71,80 L72,87 L72,97 L70,99 L69,96 L69,72 L67,72 L67,87 L66,85 L64,85 L62,80 L60,75 L60,70 L54,70 L52,66 L52,62 L50,62 L47,56 L46,54 L47,52 L43,51 L43,39 L44,35 L43,34 L43,23 L42,22 L42,17 L34,16 L34,13 L22,11 L22,8 L20,8 L20,5 L25,5 L25,3 L0,4 L0,3 L7,3 L7,1 L0,1 Z " fill="#97607B" transform="translate(542,316)"/>
<path d="M0,0 L1,0 L1,18 L6,20 L8,24 L15,25 L15,27 L18,28 L19,30 L26,31 L34,31 L34,28 L36,27 L48,27 L48,29 L61,30 L78,36 L92,37 L98,39 L122,40 L122,38 L134,37 L136,33 L139,31 L143,31 L143,27 L150,24 L151,22 L153,23 L153,28 L154,29 L154,34 L151,35 L148,39 L149,42 L144,42 L144,45 L140,45 L140,47 L128,47 L128,49 L104,49 L104,47 L88,47 L88,45 L82,45 L82,43 L72,43 L72,41 L64,41 L64,39 L34,40 L15,40 L16,36 L3,36 L2,34 L-1,34 L-1,32 L4,29 L2,25 L0,25 L-3,20 L-5,13 L-4,7 L-2,7 Z M-6,13 Z " fill="#A2829A" transform="translate(416,691)"/>
<path d="M0,0 L2,4 L3,9 L4,6 L5,10 L3,10 L3,17 L4,21 L3,23 L4,27 L6,25 L9,32 L11,33 L10,41 L9,45 L18,45 L17,50 L16,52 L18,52 L18,54 L22,53 L26,54 L26,52 L28,52 L28,54 L33,52 L38,53 L45,51 L47,46 L49,43 L47,43 L47,40 L42,41 L42,35 L45,35 L47,31 L49,24 L53,23 L52,29 L58,30 L58,27 L65,27 L66,30 L70,29 L71,33 L74,31 L73,38 L69,42 L69,47 L65,50 L62,52 L60,56 L53,58 L52,61 L48,63 L42,64 L20,64 L6,60 L5,58 L-6,55 L-6,49 L-1,48 L0,44 L4,40 L5,30 L2,30 L2,36 L0,37 L-2,30 L-2,25 L-1,25 L-1,19 L-2,18 L-2,5 L0,5 Z M18,44 L20,45 Z " fill="#D38FBA" transform="translate(486,655)"/>
<path d="M0,0 L1,0 L1,16 L0,19 L-1,30 L-3,40 L-4,41 L-5,66 L-6,71 L-6,105 L-7,114 L-4,113 L-4,120 L-1,119 L-2,126 L0,126 L1,133 L-2,139 L-2,146 L-4,146 L-4,152 L-7,152 L-8,143 L-10,148 L-9,152 L-12,156 L-15,156 L-16,160 L-18,160 L-18,168 L-20,172 L-22,172 L-22,174 L-24,174 L-24,178 L-26,178 L-26,173 L-28,173 L-28,164 L-27,162 L-25,162 L-22,134 L-20,130 L-18,130 L-18,125 L-17,120 L-15,110 L-13,108 L-11,103 L-12,98 L-12,91 L-10,91 L-11,85 L-11,44 L-10,33 L-8,28 L-6,28 L-7,20 L-5,11 L-2,2 Z M-8,146 Z M-8,152 Z " fill="#CD8BB3" transform="translate(462,426)"/>
<path d="M0,0 L3,1 L2,4 L4,5 L2,12 L7,12 L4,16 L1,28 L0,32 L0,38 L-1,39 L-2,50 L-5,55 L-10,72 L-12,74 L-13,88 L-15,93 L-14,98 L-15,102 L-16,116 L-18,123 L-19,134 L-18,138 L-18,150 L-22,156 L-21,162 L-25,164 L-27,163 L-26,159 L-26,150 L-23,144 L-23,139 L-24,135 L-23,131 L-23,128 L-24,125 L-24,122 L-25,114 L-25,85 L-25,82 L-22,74 L-20,58 L-19,56 L-16,56 L-15,40 L-13,26 L-10,24 L-6,16 L-4,8 L-3,5 L-1,4 Z M-27,85 Z M-28,86 Z M-26,122 L-24,123 Z M-26,126 L-24,127 Z " fill="#B5789A" transform="translate(461,360)"/>
<path d="M0,0 L6,0 L8,2 L8,5 L12,6 L13,10 L15,13 L15,16 L17,16 L19,21 L19,24 L25,24 L28,34 L29,39 L31,39 L32,26 L34,26 L35,50 L37,56 L35,57 L37,63 L37,77 L35,81 L33,73 L31,73 L31,67 L30,66 L30,61 L28,61 L27,50 L24,51 L22,53 L22,51 L19,51 L19,61 L17,69 L15,67 L14,62 L12,67 L8,66 L10,61 L7,61 L7,59 L9,58 L8,50 L10,50 L8,49 L7,45 L9,43 L8,33 L8,26 L6,26 L6,23 L-1,22 L-1,24 L-15,24 L-19,25 L-21,21 L-13,20 L-13,17 L-6,16 L-4,14 L3,14 L3,16 L8,17 L10,18 L9,15 L10,13 L4,12 L3,11 L-7,11 L-9,7 L-9,2 L-3,1 L0,2 Z " fill="#B57394" transform="translate(577,362)"/>
<path d="M0,0 L2,1 L1,3 L-1,3 L-1,8 L2,8 L3,5 L4,8 L-1,13 L-8,14 L-8,12 L-16,16 L-19,23 L-17,25 L-20,29 L-21,27 L-24,32 L-24,39 L-27,45 L-28,52 L-31,55 L-36,66 L-42,73 L-51,79 L-51,83 L-48,85 L-48,90 L-54,94 L-58,97 L-60,93 L-61,91 L-64,90 L-66,94 L-69,101 L-72,104 L-73,109 L-76,114 L-76,122 L-78,123 L-79,127 L-79,130 L-80,131 L-81,147 L-83,150 L-84,171 L-86,180 L-87,180 L-87,171 L-89,171 L-89,200 L-90,200 L-90,170 L-88,170 L-88,146 L-86,146 L-86,124 L-84,124 L-84,120 L-82,120 L-82,112 L-80,112 L-80,108 L-78,108 L-78,102 L-76,102 L-76,100 L-74,100 L-74,94 L-72,94 L-72,92 L-70,92 L-70,86 L-68,86 L-68,80 L-66,80 L-66,74 L-60,74 L-58,77 L-54,78 L-54,74 L-50,74 L-48,70 L-46,70 L-46,68 L-42,68 L-42,62 L-38,62 L-38,54 L-36,54 L-36,52 L-34,52 L-34,42 L-32,42 L-32,40 L-30,40 L-30,30 L-28,30 L-28,26 L-26,26 L-26,20 L-22,20 L-22,14 L-18,12 L-18,10 L-12,10 L-12,8 L-6,8 L-6,10 L-4,10 L-4,8 L-2,8 L-2,2 L0,2 Z M-74,106 Z " fill="#956D88" transform="translate(432,416)"/>
<path d="M0,0 L7,0 L8,2 L11,2 L12,4 L20,4 L20,6 L27,6 L28,8 L45,8 L45,10 L40,10 L40,13 L42,13 L42,16 L51,17 L54,18 L54,21 L62,22 L62,24 L57,24 L57,26 L53,29 L46,28 L39,28 L34,29 L33,27 L29,25 L28,26 L20,27 L18,26 L18,24 L9,27 L8,29 L0,28 L-4,26 L-8,28 L-11,25 L-14,25 L-18,24 L-10,21 L-4,22 L-4,18 L5,16 L5,13 L7,13 L7,11 L10,9 L3,9 L5,5 L-2,4 L-8,2 L-8,1 Z M5,4 Z " fill="#A36781" transform="translate(522,311)"/>
<path d="M0,0 L1,3 L0,8 L0,21 L2,21 L3,24 L2,30 L4,30 L5,32 L7,23 L9,22 L8,31 L10,31 L10,29 L13,30 L11,32 L10,41 L9,47 L8,59 L6,64 L6,69 L5,70 L4,80 L1,87 L-1,95 L-3,99 L-4,105 L-7,106 L-8,104 L-11,110 L-15,109 L-16,99 L-9,100 L-7,96 L-4,91 L-3,82 L-6,82 L-5,81 L-5,72 L-7,73 L-5,68 L-3,64 L-3,50 L-4,50 L-4,45 L-3,44 L-2,35 L-5,35 L-5,24 L-3,15 L-2,2 Z M-7,102 Z M-7,83 Z " fill="#B9759C" transform="translate(639,541)"/>
<path d="M0,0 L2,2 L3,8 L2,14 L2,28 L3,33 L2,38 L5,34 L5,56 L9,57 L10,62 L10,70 L12,76 L13,83 L13,97 L8,94 L9,89 L5,81 L3,76 L0,67 L-2,66 L-2,71 L-4,71 L-4,66 L-7,66 L-8,62 L-8,33 L-6,33 L-5,35 L-4,33 L-3,12 L-1,9 Z " fill="#A07F98" transform="translate(351,554)"/>
<path d="M0,0 L3,0 L3,13 L5,13 L4,18 L2,21 L1,30 L-2,40 L-4,46 L-6,46 L-7,51 L-9,58 L-10,76 L-12,76 L-12,112 L-14,116 L-14,130 L-17,135 L-19,135 L-19,132 L-17,132 L-19,110 L-20,100 L-19,94 L-17,88 L-16,74 L-15,69 L-16,65 L-14,59 L-13,46 L-11,44 L-8,33 L-4,23 L-3,22 L-2,11 L-1,10 L-1,2 Z M-19,128 L-17,129 Z " fill="#BF80A3" transform="translate(461,388)"/>
<path d="M0,0 L4,1 L3,8 L1,8 L1,19 L-2,28 L-4,28 L-5,30 L-7,32 L-12,33 L-13,35 L-25,39 L-26,42 L-54,42 L-54,40 L-67,40 L-80,35 L-94,31 L-94,29 L-110,29 L-117,30 L-118,31 L-124,31 L-124,28 L-130,26 L-129,24 L-125,25 L-124,23 L-123,25 L-114,26 L-114,24 L-112,25 L-110,26 L-90,26 L-82,28 L-82,30 L-77,30 L-77,32 L-67,34 L-67,36 L-60,36 L-54,38 L-28,38 L-28,35 L-23,35 L-23,33 L-17,32 L-17,30 L-14,29 L-10,23 L-7,20 L-8,13 L-5,12 L-2,2 Z M-8,18 Z " fill="#C08CAE" transform="translate(562,684)"/>
<path d="M0,0 L2,4 L3,9 L4,6 L5,10 L3,10 L3,17 L4,21 L3,23 L4,27 L6,25 L9,32 L11,33 L10,41 L9,45 L18,45 L17,50 L16,52 L18,52 L18,54 L22,53 L26,54 L26,52 L28,52 L28,54 L33,52 L38,53 L45,51 L47,46 L49,43 L47,43 L47,40 L42,41 L42,35 L45,35 L47,31 L49,24 L53,23 L51,30 L51,47 L50,53 L44,56 L32,59 L18,58 L10,57 L5,54 L4,49 L2,49 L2,41 L4,40 L5,30 L2,30 L2,36 L0,37 L-2,30 L-2,25 L-1,25 L-1,19 L-2,18 L-2,5 L0,5 Z M18,44 L20,45 Z " fill="#DFA3C9" transform="translate(486,655)"/>
<path d="M0,0 L3,1 L2,4 L4,5 L1,10 L-2,18 L-4,22 L-6,22 L-8,35 L-8,50 L-11,56 L-14,72 L-18,80 L-21,100 L-24,104 L-25,98 L-25,85 L-25,82 L-22,74 L-20,58 L-19,56 L-16,56 L-15,40 L-13,26 L-10,24 L-6,16 L-4,8 L-3,5 L-1,4 Z M-27,85 Z M-28,86 Z " fill="#AF7394" transform="translate(461,360)"/>
<path d="M0,0 L4,0 L4,2 L11,2 L10,5 L6,5 L6,10 L4,12 L4,14 L7,15 L6,18 L3,20 L1,25 L-4,29 L-11,31 L-15,33 L-16,36 L-18,36 L-18,38 L-24,43 L-26,46 L-28,46 L-29,38 L-26,33 L-25,28 L-34,32 L-35,27 L-31,25 L-24,23 L-14,19 L-9,20 L-9,22 L-4,23 L-2,14 L-1,11 L-6,9 L-6,7 L-6,6 L-5,3 Z M1,3 Z M-3,4 Z M-3,8 Z M-12,20 Z M-36,30 Z " fill="#BF77A2" transform="translate(610,634)"/>
<path d="M0,0 L2,1 L2,14 L6,15 L7,22 L10,21 L14,23 L16,23 L17,30 L18,34 L21,40 L25,41 L26,44 L28,46 L27,55 L28,62 L28,72 L26,74 L25,71 L25,47 L23,47 L23,62 L22,60 L20,60 L18,55 L16,50 L16,45 L10,45 L8,41 L8,37 L6,37 L3,31 L2,29 L3,27 L-1,26 L-1,14 L0,10 L-1,9 Z " fill="#A86988" transform="translate(586,341)"/>
<path d="M0,0 L10,0 L8,4 L16,4 L16,5 L11,5 L11,7 L17,7 L17,8 L11,8 L11,10 L3,10 L3,12 L-1,12 L-1,14 L-5,18 L-11,18 L-11,22 L-15,22 L-15,26 L-17,26 L-17,28 L-19,28 L-19,30 L-21,30 L-21,34 L-23,34 L-23,36 L-25,36 L-25,40 L-27,40 L-27,42 L-29,42 L-29,44 L-31,44 L-31,48 L-33,48 L-33,50 L-35,50 L-36,52 L-37,49 L-36,47 L-32,47 L-33,42 L-32,41 L-32,38 L-34,38 L-33,34 L-30,29 L-28,29 L-28,23 L-23,17 L-16,11 L-7,10 L-4,7 L-2,7 L-2,2 Z M-35,38 Z M-36,39 Z " fill="#A26188" transform="translate(615,674)"/>
<path d="M0,0 L1,3 L9,3 L9,4 L1,4 L1,6 L-1,6 L-1,8 L-5,8 L-5,10 L-7,10 L-7,14 L-9,14 L-9,20 L-11,20 L-11,24 L-13,24 L-13,28 L-15,28 L-15,30 L-17,30 L-17,38 L-19,38 L-19,48 L-21,48 L-21,52 L-23,52 L-23,54 L-25,54 L-25,56 L-27,56 L-27,60 L-29,60 L-29,62 L-31,62 L-31,66 L-33,66 L-33,70 L-37,70 L-38,72 L-39,68 L-34,69 L-34,67 L-38,66 L-34,59 L-32,53 L-30,53 L-30,48 L-27,44 L-25,38 L-24,36 L-24,26 L-21,22 L-18,12 L-15,12 L-14,6 L-9,4 L-8,5 L-4,6 L-4,4 L0,5 L0,3 L-2,2 Z " fill="#A16683" transform="translate(671,608)"/>
<path d="M0,0 L3,1 L0,7 L5,4 L8,5 L4,9 L2,9 L2,11 L-3,14 L-6,14 L-6,16 L-8,16 L-8,18 L-13,20 L-14,22 L-18,23 L-21,28 L-24,28 L-24,30 L-26,31 L-27,35 L-30,36 L-34,43 L-37,46 L-39,52 L-41,52 L-41,56 L-45,56 L-45,61 L-47,61 L-48,64 L-53,66 L-52,60 L-49,59 L-48,54 L-46,54 L-45,48 L-43,48 L-42,43 L-38,39 L-36,39 L-35,35 L-33,33 L-32,28 L-28,24 L-26,24 L-24,20 L-22,20 L-22,18 L-20,18 L-19,14 L-14,11 L-7,9 L-3,6 L-1,1 Z " fill="#B5719B" transform="translate(614,652)"/>
<path d="M0,0 L14,0 L31,1 L40,4 L56,8 L68,9 L68,11 L53,11 L53,13 L68,12 L92,12 L103,13 L103,11 L101,10 L108,11 L104,12 L104,14 L92,14 L92,16 L68,16 L68,14 L52,14 L52,12 L46,12 L46,10 L36,10 L36,8 L28,8 L28,6 L-2,6 L-2,5 L6,4 L-2,3 L-2,1 Z " fill="#A37C97" transform="translate(452,724)"/>
<path d="M0,0 L2,0 L3,7 L-1,11 L-2,16 L-5,21 L-5,29 L-7,30 L-8,34 L-8,37 L-9,38 L-10,54 L-12,57 L-13,78 L-15,87 L-16,87 L-16,78 L-18,78 L-18,107 L-19,107 L-19,77 L-17,77 L-17,53 L-15,53 L-15,31 L-13,31 L-13,27 L-11,27 L-11,19 L-9,19 L-9,15 L-7,15 L-7,9 L-5,9 L-5,7 L-2,7 L-2,2 L0,2 Z M-3,13 Z " fill="#97768F" transform="translate(361,509)"/>
<path d="M0,0 L8,0 L8,2 L12,2 L14,5 L18,6 L22,10 L22,8 L24,8 L24,6 L28,6 L28,2 L40,2 L40,0 L56,0 L56,2 L64,2 L64,4 L68,4 L68,6 L76,6 L76,7 L64,8 L67,7 L67,5 L64,6 L56,6 L56,5 L63,5 L63,3 L44,5 L40,6 L33,7 L27,12 L23,14 L18,13 L13,10 L13,8 L6,6 L4,5 L-1,9 L-3,15 L-2,16 L-2,21 L-7,25 L-7,23 L-9,23 L-9,26 L-7,26 L-7,29 L-9,29 L-9,27 L-11,27 L-11,36 L-12,36 L-12,26 L-10,26 L-10,22 L-8,22 L-8,12 L-6,12 L-6,6 L-4,6 L-4,2 L0,2 Z " fill="#8C5F74" transform="translate(466,308)"/>
<path d="M0,0 L7,0 L7,2 L12,3 L14,8 L12,9 L15,14 L17,20 L19,21 L18,27 L20,28 L20,40 L22,40 L23,47 L21,55 L19,53 L18,48 L16,53 L12,52 L14,47 L11,47 L11,45 L13,44 L12,36 L14,36 L12,35 L11,31 L13,29 L12,19 L12,12 L10,12 L10,9 L3,8 L3,10 L-11,10 L-15,11 L-17,7 L-9,6 L-9,3 L-2,2 Z " fill="#C479A0" transform="translate(573,376)"/>
<path d="M0,0 L8,0 L8,2 L26,2 L26,4 L32,4 L32,6 L38,6 L38,8 L42,8 L42,11 L47,11 L47,13 L45,14 L48,21 L52,19 L55,19 L55,22 L53,22 L54,24 L55,47 L51,47 L49,40 L46,39 L45,33 L45,26 L42,22 L42,17 L34,16 L34,13 L22,11 L22,8 L20,8 L20,5 L25,5 L25,3 L0,4 L0,3 L7,3 L7,1 L0,1 Z " fill="#A26380" transform="translate(542,316)"/>
<path d="M0,0 L5,0 L4,2 L5,14 L8,15 L4,19 L3,24 L5,24 L4,28 L2,29 L2,34 L3,32 L9,31 L6,44 L8,45 L6,49 L5,65 L2,64 L2,61 L4,61 L4,55 L2,55 L1,46 L-1,54 L-7,59 L-7,57 L-10,56 L-7,56 L-7,53 L-10,52 L-8,52 L-8,44 L-5,36 L-4,34 L-2,34 L-2,28 L0,28 L-1,21 L2,14 L2,8 L0,8 Z M2,24 Z M1,25 Z M8,12 L10,13 L8,14 Z " fill="#DA96BF" transform="translate(460,544)"/>
<path d="M0,0 L2,1 L2,6 L3,7 L3,12 L0,13 L-3,17 L-2,20 L-7,20 L-7,22 L-12,22 L-12,24 L-62,24 L-62,22 L-47,22 L-47,20 L-29,19 L-19,17 L-15,16 L-15,13 L-9,10 L-8,5 L-1,2 Z " fill="#A47C9B" transform="translate(567,713)"/>
<path d="M0,0 L4,2 L9,2 L9,4 L12,5 L13,7 L20,8 L28,8 L28,5 L30,4 L42,4 L42,6 L55,7 L72,13 L86,14 L92,16 L116,17 L116,15 L128,14 L130,10 L133,8 L137,9 L133,12 L130,12 L130,15 L122,18 L116,19 L86,19 L77,17 L68,14 L61,12 L50,9 L32,6 L32,8 L28,10 L22,10 L22,12 L16,13 L11,11 L6,10 L6,6 L1,6 Z " fill="#AA809E" transform="translate(422,714)"/>
<path d="M0,0 L14,0 L14,2 L18,1 L25,3 L31,4 L31,6 L38,6 L43,9 L43,11 L34,12 L33,10 L29,8 L28,9 L20,10 L18,9 L18,7 L9,10 L8,12 L0,11 L-4,9 L-8,11 L-11,8 L-14,8 L-18,7 L-10,4 L-4,5 L-4,1 Z " fill="#B57492" transform="translate(522,328)"/>
<path d="M0,0 L1,0 L1,10 L-1,18 L-4,20 L-8,36 L-9,40 L-14,43 L-19,45 L-23,46 L-26,49 L-30,49 L-31,52 L-38,58 L-44,58 L-47,62 L-48,65 L-55,69 L-57,69 L-56,64 L-54,64 L-54,62 L-51,62 L-50,58 L-46,55 L-44,56 L-42,52 L-38,52 L-38,50 L-36,50 L-36,48 L-31,45 L-28,45 L-28,43 L-20,38 L-15,37 L-12,29 L-9,28 L-9,22 L-6,16 L-4,16 L-2,11 Z " fill="#B26D95" transform="translate(644,618)"/>
<path d="M0,0 L3,0 L4,7 L1,16 L0,42 L-2,42 L-2,54 L-5,54 L-7,50 L-9,59 L-13,64 L-12,55 L-10,51 L-9,41 L-8,40 L-8,34 L-6,34 L-7,31 L-6,30 L-5,14 L-4,12 L-3,3 Z " fill="#B27594" transform="translate(652,570)"/>
<path d="M0,0 L3,1 L2,8 L-1,15 L-2,27 L-4,27 L-2,32 L-2,35 L-4,36 L-5,39 L-7,61 L-9,67 L-11,67 L-12,69 L-12,57 L-10,57 L-10,35 L-6,32 L-6,28 L-10,32 L-12,32 L-11,20 L-7,12 L-10,11 L-7,11 L-6,7 L-4,7 L-4,5 L-2,5 Z " fill="#C183A9" transform="translate(446,521)"/>
<path d="M0,0 L1,2 L3,2 L3,5 L7,5 L9,15 L8,20 L11,20 L11,22 L17,24 L18,26 L33,28 L31,29 L31,32 L19,33 L14,31 L14,29 L11,27 L5,26 L3,24 L3,21 L-2,20 L-3,15 L-2,3 Z " fill="#B37D9E" transform="translate(419,690)"/>
<path d="M0,0 L7,1 L19,4 L39,6 L41,10 L47,11 L47,13 L50,13 L50,15 L46,18 L36,16 L31,13 L24,12 L17,9 L7,8 L7,6 L-2,6 L-2,2 L0,2 Z " fill="#A96B86" transform="translate(529,322)"/>
<path d="M0,0 L1,0 L1,16 L3,17 L1,19 L1,17 L-1,17 L-1,20 L1,20 L0,25 L-1,21 L-3,21 L-3,26 L-1,26 L-2,29 L-3,27 L-5,27 L-4,30 L-4,40 L-6,42 L-7,48 L-9,48 L-9,56 L-11,64 L-13,72 L-15,72 L-15,63 L-17,63 L-17,72 L-18,72 L-18,62 L-16,62 L-16,48 L-14,48 L-14,42 L-12,42 L-12,38 L-10,38 L-10,34 L-8,34 L-8,30 L-6,30 L-6,26 L-4,26 L-4,20 L-2,20 L-2,16 L0,16 Z " fill="#9A5F82" transform="translate(452,344)"/>
<path d="M0,0 L1,3 L0,8 L0,21 L2,21 L3,24 L2,30 L4,30 L4,43 L3,44 L1,54 L0,67 L-3,72 L-7,73 L-5,68 L-3,64 L-3,50 L-4,50 L-4,45 L-3,44 L-2,35 L-5,35 L-5,24 L-3,15 L-2,2 Z " fill="#C684AA" transform="translate(639,541)"/>
<path d="M0,0 L1,2 L0,6 L-2,6 L-2,10 L-9,13 L-11,16 L-23,17 L-23,19 L-47,19 L-53,17 L-67,16 L-84,10 L-97,8 L-97,6 L-109,6 L-107,4 L-97,4 L-78,9 L-69,12 L-49,15 L-23,16 L-23,13 L-16,12 L-6,7 L-3,6 L-1,1 Z " fill="#B083A3" transform="translate(561,712)"/>
<path d="M0,0 L1,0 L1,6 L-1,9 L-3,15 L-5,18 L-6,23 L-8,24 L-10,31 L-13,36 L-10,37 L-10,39 L-14,39 L-15,43 L-21,43 L-21,41 L-25,40 L-23,37 L-33,36 L-31,35 L-30,30 L-25,30 L-22,29 L-20,25 L-17,28 L-11,24 L-9,20 L-7,20 L-8,17 L-4,10 Z " fill="#A46287" transform="translate(647,638)"/>
<path d="M0,0 L1,0 L3,11 L4,8 L6,8 L6,15 L8,15 L8,19 L6,19 L7,21 L7,28 L12,28 L11,34 L13,35 L11,37 L8,30 L5,34 L5,45 L3,51 L5,52 L2,56 L3,58 L1,63 L0,63 L0,36 L-1,3 Z " fill="#A17889" transform="translate(659,447)"/>
<path d="M0,0 L7,1 L2,7 L1,12 L3,13 L3,20 L4,24 L1,27 L0,30 L-3,30 L-3,32 L-11,33 L-33,33 L-40,31 L-41,28 L-19,29 L-5,25 L-1,24 L-1,1 Z M2,21 Z M3,19 Z " fill="#DB97C2" transform="translate(537,684)"/>
<path d="M0,0 L2,1 L1,3 L-1,3 L-1,8 L2,8 L3,5 L4,8 L-1,13 L-8,14 L-8,12 L-16,16 L-19,23 L-17,25 L-20,29 L-21,27 L-25,29 L-25,27 L-27,27 L-26,30 L-26,42 L-29,43 L-29,41 L-31,41 L-31,43 L-33,43 L-33,52 L-34,52 L-34,42 L-32,42 L-32,40 L-30,40 L-30,30 L-28,30 L-28,26 L-26,26 L-26,20 L-22,20 L-22,14 L-18,12 L-18,10 L-12,10 L-12,8 L-6,8 L-6,10 L-4,10 L-4,8 L-2,8 L-2,2 L0,2 Z " fill="#8D5E7A" transform="translate(432,416)"/>
<path d="M0,0 L8,0 L8,6 L3,10 L2,12 L-10,12 L-10,10 L-18,11 L-22,14 L-26,13 L-26,11 L-24,11 L-24,9 L-30,9 L-30,8 L-24,8 L-24,6 L-18,6 L-18,4 L-8,4 L-8,2 L0,2 Z " fill="#180313" transform="translate(634,804)"/>
<path d="M0,0 L4,0 L7,0 L6,7 L5,8 L4,21 L2,22 L0,31 L-2,37 L-4,37 L-4,45 L-8,47 L-8,53 L-9,53 L-10,40 L-7,41 L-6,39 L-8,39 L-8,34 L-6,34 L-5,36 L-4,33 L-6,33 L-6,30 L-3,30 L-4,29 L-4,13 L-2,13 L-2,4 L0,4 L0,6 L2,6 L2,3 L0,3 Z " fill="#A26B86" transform="translate(457,331)"/>
<path d="M0,0 L2,2 L1,7 L3,7 L5,10 L5,20 L6,29 L5,44 L3,44 L3,47 L1,47 L0,43 L-3,41 L-3,21 L-1,16 L-1,7 Z " fill="#C384A3" transform="translate(607,428)"/>
<path d="M0,0 L6,0 L10,4 L10,8 L14,8 L14,12 L16,12 L16,30 L20,32 L22,36 L24,36 L24,40 L26,40 L26,44 L28,44 L28,48 L30,48 L30,52 L32,52 L31,54 L26,53 L27,45 L25,45 L24,47 L25,41 L23,41 L22,43 L22,41 L20,41 L19,37 L13,37 L12,35 L11,12 L13,12 L13,9 L8,12 L5,11 L3,7 L3,5 L0,3 L5,3 L5,1 L0,1 Z " fill="#965D76" transform="translate(584,326)"/>
<path d="M0,0 L1,0 L0,9 L2,9 L2,7 L5,8 L3,10 L2,19 L-1,24 L-1,34 L-4,40 L-6,49 L-9,50 L-10,59 L-14,61 L-13,59 L-12,50 L-9,45 L-8,32 L-6,22 L-5,21 L-4,11 L-2,4 Z M-15,61 Z " fill="#BD7E9F" transform="translate(647,563)"/>
<path d="M0,0 L4,1 L3,8 L1,8 L1,19 L-2,28 L-4,28 L-5,30 L-7,32 L-15,32 L-20,33 L-17,32 L-17,30 L-14,29 L-10,23 L-7,20 L-8,13 L-5,12 L-2,2 Z M-8,18 Z " fill="#C885B0" transform="translate(562,684)"/>
<path d="M0,0 L1,4 L3,5 L1,8 L1,11 L2,15 L-1,18 L-2,14 L-4,16 L-5,28 L-3,28 L-1,31 L-2,36 L-5,47 L-6,59 L-9,57 L-9,26 L-7,20 L-7,12 L-3,8 L-2,4 L0,4 Z M-6,28 Z " fill="#CF93B7" transform="translate(445,594)"/>
<path d="M0,0 L2,0 L3,7 L4,11 L2,19 L2,24 L0,30 L0,32 L0,41 L-2,50 L-7,51 L-7,41 L-5,30 L-2,30 L-5,27 L-4,24 L-2,23 L-2,12 L-4,11 L-4,6 Z " fill="#AD7E93" transform="translate(662,510)"/>
<path d="M0,0 L2,0 L3,5 L6,5 L7,7 L10,8 L11,13 L15,12 L15,19 L13,18 L12,22 L15,23 L13,32 L15,32 L14,35 L14,33 L11,33 L10,37 L8,36 L7,29 L7,24 L6,20 L7,17 L3,15 L1,8 L-1,3 L1,3 Z " fill="#BE769C" transform="translate(585,380)"/>
<path d="M0,0 L2,0 L0,4 L-2,11 L-4,11 L-5,15 L-8,20 L-6,20 L-4,25 L-6,26 L-6,29 L-10,29 L-11,36 L-17,36 L-17,38 L-19,38 L-19,40 L-23,40 L-23,42 L-29,42 L-29,41 L-24,41 L-24,39 L-27,38 L-22,33 L-19,33 L-19,29 L-14,26 L-12,20 L-10,20 L-10,15 L-8,11 L-6,11 L-4,5 Z M-9,20 Z M-10,21 Z " fill="#A7628E" transform="translate(589,692)"/>
<path d="M0,0 L12,0 L8,7 L4,8 L2,13 L1,16 L-1,16 L-2,22 L-4,23 L-5,27 L-8,28 L-8,19 L-7,8 L-5,8 L-5,3 Z " fill="#BC78A3" transform="translate(570,684)"/>
<path d="M0,0 L1,2 L4,3 L2,8 L2,20 L0,20 L-1,40 L-4,41 L-7,46 L-9,47 L-11,58 L-12,58 L-12,46 L-10,46 L-9,42 L-8,40 L-6,40 L-7,30 L-5,19 L-3,14 L-2,4 Z " fill="#AA758D" transform="translate(662,566)"/>
<path d="M0,0 L1,2 L0,6 L-1,20 L-3,27 L-4,38 L-3,42 L-3,54 L-7,60 L-6,66 L-10,68 L-12,67 L-11,63 L-11,54 L-8,48 L-8,43 L-9,39 L-8,35 L-8,32 L-6,32 L-5,17 L-3,4 L-1,4 Z " fill="#B77C9F" transform="translate(446,456)"/>
<path d="M0,0 L6,0 L9,2 L10,13 L11,14 L12,21 L12,35 L7,32 L8,27 L4,19 L2,14 L-1,5 L-3,2 L-1,2 Z " fill="#A37A96" transform="translate(352,616)"/>
<path d="M0,0 L3,1 L2,10 L2,14 L-1,26 L-4,32 L-6,37 L-10,39 L-10,30 L-9,28 L-7,28 L-4,2 L0,2 Z " fill="#C687AE" transform="translate(444,560)"/>
<path d="M0,0 L2,1 L0,7 L0,24 L-1,30 L-7,33 L-19,36 L-33,35 L-33,34 L-21,33 L-20,31 L-6,28 L-4,23 L-2,20 L-4,20 L-4,17 L-9,18 L-9,12 L-6,12 L-4,8 L-2,1 Z " fill="#DF9BC6" transform="translate(537,678)"/>
<path d="M0,0 L2,1 L2,3 L4,3 L5,0 L5,4 L1,4 L1,8 L-1,8 L-1,10 L-3,10 L-3,12 L-5,12 L-5,16 L-7,16 L-7,18 L-9,18 L-9,22 L-11,22 L-11,24 L-13,24 L-13,26 L-15,26 L-15,30 L-17,30 L-17,32 L-19,32 L-20,34 L-21,31 L-20,29 L-16,29 L-17,24 L-16,23 L-16,20 L-18,19 L-12,15 L-9,8 L-8,3 L-1,1 Z M-19,20 Z M-20,21 Z " fill="#9F5A85" transform="translate(599,692)"/>
<path d="M0,0 L3,1 L1,8 L0,13 L2,14 L0,18 L-1,34 L-4,33 L-4,30 L-2,30 L-2,24 L-4,24 L-5,15 L-7,23 L-10,25 L-11,13 L-9,11 L-6,3 L-4,3 L-3,1 Z " fill="#E59FC8" transform="translate(466,575)"/>
<path d="M0,0 L4,1 L2,3 L0,9 L-1,10 L-24,11 L-27,13 L-34,13 L-37,14 L-41,12 L-41,10 L-46,10 L-46,12 L-49,12 L-50,8 L-53,9 L-53,6 L-49,6 L-49,9 L-46,9 L-46,7 L-40,7 L-36,11 L-36,9 L-24,9 L-24,7 L-2,7 L-2,1 Z " fill="#20061C" transform="translate(560,847)"/>
<path d="M0,0 L1,0 L1,9 L-2,9 L-4,19 L-7,23 L-9,31 L-14,43 L-15,47 L-17,47 L-19,52 L-23,55 L-25,55 L-26,57 L-27,53 L-25,53 L-25,51 L-19,49 L-18,43 L-13,30 L-10,21 L-8,13 L-4,13 L-3,2 Z " fill="#A9658B" transform="translate(655,611)"/>
<path d="M0,0 L3,1 L-1,7 L-2,8 L-3,19 L-5,25 L-7,25 L-9,32 L-14,34 L-16,32 L-15,21 L-11,21 L-11,17 L-9,16 L-7,10 L-2,4 Z " fill="#AE6A95" transform="translate(584,687)"/>
<path d="M0,0 L1,0 L1,6 L-2,12 L-3,22 L-5,30 L-6,38 L-7,58 L-9,62 L-10,70 L-11,70 L-11,44 L-10,33 L-8,28 L-6,28 L-7,20 L-5,11 L-2,2 Z " fill="#C989AD" transform="translate(462,426)"/>
<path d="M0,0 L6,2 L2,8 L0,14 L0,24 L-5,27 L-10,30 L-11,23 L-7,17 L-4,15 L-6,14 L-7,7 L-5,7 L-4,3 Z M-6,9 Z M6,1 Z M-12,25 Z " fill="#D18BB7" transform="translate(566,659)"/>
<path d="M0,0 L6,0 L6,2 L8,2 L8,4 L10,4 L10,6 L12,6 L12,8 L14,8 L14,10 L16,10 L16,12 L22,12 L22,18 L14,18 L14,16 L10,16 L10,14 L4,14 L4,8 L2,8 L2,6 L0,6 Z " fill="#170308" transform="translate(680,222)"/>
<path d="M0,0 L1,3 L9,3 L9,4 L1,4 L1,6 L-1,6 L-1,8 L-5,8 L-5,10 L-7,10 L-7,14 L-10,14 L-10,19 L-15,18 L-19,26 L-21,26 L-22,30 L-24,30 L-23,24 L-21,22 L-18,12 L-15,12 L-14,6 L-9,4 L-8,5 L-4,6 L-4,4 L0,5 L0,3 L-2,2 Z " fill="#99667C" transform="translate(671,608)"/>
<path d="M0,0 L1,0 L1,10 L0,13 L-1,24 L-3,34 L-4,35 L-5,60 L-8,63 L-9,60 L-9,53 L-8,52 L-7,32 L-5,18 L-4,16 L-3,6 Z " fill="#CE8DB1" transform="translate(462,432)"/>
<path d="M0,0 L1,2 L0,4 L2,4 L0,14 L-1,16 L1,16 L1,21 L2,22 L2,27 L1,28 L-2,48 L-4,49 L-6,21 L-5,20 L-2,4 Z M-3,16 L-2,19 L-1,16 Z " fill="#D291B6" transform="translate(463,446)"/>
<path d="M0,0 L16,0 L16,2 L24,2 L24,4 L28,4 L28,6 L36,6 L36,7 L24,8 L27,7 L27,5 L24,6 L16,6 L16,5 L23,5 L23,3 L4,5 L0,6 L-7,7 L-10,9 L-15,7 L-15,9 L-18,10 L-18,8 L-16,8 L-16,6 L-12,6 L-12,2 L0,2 Z " fill="#905B72" transform="translate(506,308)"/>
<path d="M0,0 L14,0 L14,2 L18,1 L25,3 L31,4 L31,6 L38,6 L43,9 L43,11 L34,12 L33,10 L30,9 L30,7 L16,5 L2,5 L-4,4 L-4,1 Z M2,3 Z " fill="#B1718F" transform="translate(522,328)"/>
<path d="M0,0 L3,0 L4,7 L1,16 L-2,21 L-4,32 L-5,42 L-8,42 L-9,46 L-9,41 L-8,40 L-8,34 L-6,34 L-7,31 L-6,30 L-5,14 L-4,12 L-3,3 Z " fill="#B67B99" transform="translate(652,570)"/>
<path d="M0,0 L1,0 L1,24 L-1,24 L-1,28 L1,28 L1,40 L-1,40 L-1,64 L-7,64 L-7,63 L-2,63 L-2,40 L-4,40 L-4,61 L-7,60 L-6,59 L-5,38 L-4,37 L-4,30 L-5,23 L-4,22 L-3,14 L-2,14 L-2,23 L0,23 Z " fill="#8D5F73" transform="translate(687,546)"/>
<path d="M0,0 L2,2 L11,3 L11,1 L13,2 L15,3 L27,3 L39,6 L56,13 L56,15 L45,12 L31,8 L31,6 L15,6 L8,7 L7,8 L1,8 L1,5 L-5,3 L-4,1 L0,2 Z " fill="#BE88AA" transform="translate(437,707)"/>
<path d="M0,0 L3,1 L-1,9 L-4,9 L-4,11 L-8,14 L-14,16 L-15,20 L-20,22 L-23,22 L-25,28 L-29,28 L-29,33 L-34,35 L-32,28 L-28,24 L-26,24 L-24,20 L-22,20 L-22,18 L-20,18 L-19,14 L-14,11 L-7,9 L-3,6 L-1,1 Z " fill="#BA749E" transform="translate(614,652)"/>
<path d="M0,0 L10,0 L8,4 L16,4 L16,5 L11,5 L11,7 L17,7 L17,8 L11,8 L11,10 L3,10 L3,12 L-1,12 L-1,14 L-5,18 L-11,18 L-11,17 L-6,17 L-6,15 L-11,15 L-8,13 L-6,13 L-6,11 L-4,11 L-4,13 L-2,13 L-3,10 L2,11 L2,9 L-2,7 L-2,2 Z " fill="#A26186" transform="translate(615,674)"/>
<path d="M0,0 L4,1 L5,5 L10,5 L10,9 L12,9 L11,17 L18,18 L19,21 L23,21 L22,25 L17,24 L15,21 L13,24 L12,20 L7,19 L3,12 L3,4 L-2,2 Z " fill="#A16481" transform="translate(599,362)"/>
<path d="M0,0 L8,0 L8,2 L26,2 L26,4 L32,4 L32,6 L38,6 L38,8 L42,9 L37,11 L36,12 L27,12 L22,11 L22,8 L20,8 L20,5 L25,5 L25,3 L0,4 L0,3 L7,3 L7,1 L0,1 Z " fill="#935C74" transform="translate(542,316)"/>
<path d="M0,0 L9,0 L9,1 L1,1 L1,3 L16,2 L40,2 L51,3 L51,1 L49,0 L56,1 L52,2 L52,4 L40,4 L40,6 L16,6 L16,4 L0,4 L0,2 L-6,2 L-6,1 Z " fill="#8D6B85" transform="translate(504,734)"/>
<path d="M0,0 L2,4 L4,7 L4,11 L8,11 L9,18 L7,26 L5,24 L4,19 L2,24 L-2,23 L0,18 L-3,18 L-3,16 L-1,15 L-2,7 L0,7 L-2,6 L-3,2 Z " fill="#CA7FA6" transform="translate(587,405)"/>
<path d="M0,0 L1,3 L-1,6 L-2,11 L-7,15 L-16,16 L-19,17 L-21,21 L-26,22 L-28,26 L-32,33 L-34,33 L-33,28 L-30,25 L-27,19 L-22,16 L-19,16 L-18,13 L-11,13 L-11,11 L-8,8 L-3,3 Z M-13,10 Z M-14,11 Z M-15,12 Z " fill="#A96690" transform="translate(615,670)"/>
<path d="M0,0 L5,0 L4,25 L2,34 L1,34 L1,25 L-1,25 L-1,54 L-2,54 L-2,24 L0,24 Z " fill="#907389" transform="translate(344,562)"/>
<path d="M0,0 L18,0 L28,2 L31,3 L31,5 L36,6 L45,7 L49,11 L48,13 L38,11 L33,8 L26,7 L19,4 L9,3 L9,1 L0,1 Z " fill="#AD6D8A" transform="translate(527,327)"/>
<path d="M0,0 L2,0 L2,5 L5,5 L5,9 L7,9 L7,11 L9,11 L9,19 L11,19 L11,27 L13,27 L13,35 L12,35 L12,28 L10,28 L10,34 L8,31 L6,23 L4,22 L5,14 L1,13 L2,10 L0,9 Z " fill="#926B7C" transform="translate(653,427)"/>
<path d="M0,0 L2,3 L1,9 L3,9 L3,22 L2,23 L0,33 L-1,46 L-4,51 L-8,52 L-6,47 L-3,40 L-2,26 L-2,14 L-1,3 Z " fill="#C381A5" transform="translate(640,562)"/>
<path d="M0,0 L6,0 L6,2 L16,2 L16,8 L14,8 L14,10 L0,10 Z " fill="#170313" transform="translate(458,852)"/>
<path d="M0,0 L2,1 L2,6 L4,6 L5,2 L6,7 L9,7 L12,14 L12,23 L8,24 L8,20 L6,20 L3,14 L2,12 L3,10 L-1,9 Z " fill="#AB6A89" transform="translate(586,358)"/>
<path d="M0,0 L2,0 L4,14 L2,16 L2,22 L-1,26 L-4,25 L-5,15 L-5,6 L-2,6 L-2,4 L0,4 Z " fill="#E69BC6" transform="translate(590,503)"/>
<path d="M0,0 L2,0 L3,3 L1,10 L1,16 L0,17 L-1,28 L-4,33 L-7,42 L-8,42 L-7,32 L-4,28 L-4,17 L-5,16 L-4,6 L-3,2 L0,2 Z " fill="#BA799D" transform="translate(460,382)"/>
<path d="M0,0 L4,0 L4,2 L11,2 L10,5 L6,5 L6,10 L4,12 L5,15 L0,16 L0,18 L-2,18 L-1,11 L-6,9 L-6,7 L-6,6 L-5,3 Z M1,3 Z M-3,4 Z M-3,8 Z " fill="#C580A8" transform="translate(610,634)"/>
<path d="M0,0 L1,0 L1,8 L3,8 L3,30 L5,30 L5,40 L4,40 L4,31 L2,31 L2,39 L1,39 L0,34 L-3,34 L-3,29 L-2,28 L-1,8 Z " fill="#93677B" transform="translate(685,506)"/>
<path d="M0,0 L6,0 L6,2 L14,2 L14,4 L16,4 L16,10 L18,10 L18,14 L20,14 L20,20 L19,20 L19,15 L17,15 L17,20 L15,20 L11,7 L2,6 L0,5 L0,3 L-4,2 L0,2 Z " fill="#915774" transform="translate(622,380)"/>
<path d="M0,0 L1,2 L4,2 L4,4 L10,6 L11,8 L26,10 L24,11 L24,14 L12,15 L7,13 L6,7 L0,6 L-2,5 L-2,3 L0,3 Z " fill="#B284A1" transform="translate(426,708)"/>
<path d="M0,0 L2,1 L2,6 L3,7 L3,12 L0,13 L-3,17 L-2,20 L-7,20 L-7,22 L-23,22 L-23,21 L-12,19 L-5,14 L-5,5 Z " fill="#A87096" transform="translate(567,713)"/>
<path d="M0,0 L2,0 L1,14 L-1,19 L-1,24 L-4,31 L-6,34 L-8,46 L-10,46 L-9,27 L-5,26 L-4,17 L-1,10 L-1,1 Z M-11,46 Z M-12,47 Z M-13,48 Z " fill="#BC799E" transform="translate(646,586)"/>
<path d="M0,0 L1,0 L1,22 L5,23 L6,28 L2,29 L-3,28 L-3,4 L-1,4 Z " fill="#A7809B" transform="translate(355,588)"/>
<path d="M0,0 L2,0 L3,5 L3,12 L1,15 Z M-4,14 L-2,14 L-2,16 L0,17 L0,23 L-4,28 L-7,35 L-10,35 L-10,28 L-8,28 L-6,16 L-4,16 Z M0,15 Z " fill="#A2718F" transform="translate(405,443)"/>
<path d="M0,0 L4,2 L5,15 L7,19 L7,24 L5,24 L5,27 L3,27 L2,23 L-1,21 L-1,1 Z " fill="#C787A8" transform="translate(605,448)"/>
<path d="M0,0 L1,0 L1,30 L-1,34 L-1,48 L-4,53 L-6,53 L-6,50 L-4,50 L-4,28 L-2,26 L-2,17 L-4,16 L-3,11 L-2,10 L-1,1 Z " fill="#C082A7" transform="translate(448,470)"/>
<path d="M0,0 L2,1 Z M-4,1 L0,1 L-1,6 L-2,8 L0,8 L0,10 L4,9 L8,10 L8,8 L10,8 L10,10 L15,8 L17,10 L13,11 L16,13 L-1,13 L-3,12 L-3,10 L-8,10 L-8,3 Z " fill="#E5A3CD" transform="translate(504,699)"/>
<path d="M0,0 L1,0 L1,5 L3,5 L3,0 L7,2 L10,14 L13,19 L11,19 L11,33 L9,33 L9,18 L4,16 L3,8 L0,6 Z " fill="#A17995" transform="translate(346,620)"/>
<path d="M0,0 L7,1 L16,5 L30,8 L44,8 L54,7 L54,10 L52,11 L28,11 L22,9 L15,8 L15,6 L8,5 L5,4 L5,2 L0,2 Z " fill="#C790B4" transform="translate(480,712)"/>
<path d="M0,0 L1,0 L1,6 L-1,6 L-1,10 L-3,10 L-3,14 L-5,14 L-5,16 L-7,16 L-7,24 L-9,24 L-9,34 L-11,34 L-11,38 L-13,38 L-14,40 L-15,37 L-12,37 L-13,34 L-13,23 L-11,23 L-11,18 L-10,18 L-10,23 L-8,23 L-9,14 L-8,11 L-6,11 L-6,13 L-4,13 L-5,5 L-3,5 L-2,3 L-2,5 L0,5 Z " fill="#935977" transform="translate(661,622)"/>
<path d="M0,0 L5,1 L4,5 L-2,6 L-8,9 L-11,12 L-11,9 L-20,13 L-21,8 L-17,6 L-10,4 Z M2,1 Z M-22,11 Z " fill="#C97DAB" transform="translate(596,653)"/>
<path d="M0,0 L1,0 L1,18 L6,20 L6,26 L0,25 L-3,20 L-5,13 L-4,7 L-2,7 Z M-6,13 Z " fill="#AC7797" transform="translate(416,691)"/>
<path d="M0,0 L3,1 L1,3 L7,4 L2,9 L-1,12 L-5,13 L-7,12 L-7,10 L-13,13 L-11,9 L-9,8 L-7,2 L0,2 Z " fill="#EBA0CE" transform="translate(541,662)"/>
<path d="M0,0 L1,4 L-3,10 L-11,15 L-16,17 L-23,17 L-23,19 L-25,19 L-24,14 L-15,11 L-12,11 L-11,8 L-6,8 L-5,5 L-1,3 Z " fill="#BA84A9" transform="translate(561,708)"/>
<path d="M0,0 L2,4 L1,18 L-1,18 L-2,23 L-4,23 L-5,28 L-9,32 L-9,26 L-7,26 L-6,20 L-4,11 L-1,10 L-1,1 Z M0,4 Z " fill="#A66F89" transform="translate(462,342)"/>
<path d="M0,0 L2,0 L3,6 L2,9 L4,9 L5,21 L3,27 L5,28 L2,32 L3,34 L1,39 L0,39 Z " fill="#AA8192" transform="translate(659,471)"/>
<path d="M0,0 L4,0 L4,8 L8,9 L7,14 L4,23 L2,24 L2,11 L-2,11 Z " fill="#AD829E" transform="translate(358,568)"/>
<path d="M0,0 L1,0 L1,6 L3,6 L4,11 L9,13 L9,14 L-1,14 L-7,12 L-7,6 L-2,5 L-1,1 Z " fill="#D99DC1" transform="translate(487,698)"/>
<path d="M0,0 L1,2 L-5,9 L-7,12 L-10,12 L-10,14 L-16,15 L-16,17 L-25,18 L-25,16 L-20,14 L-17,14 L-16,10 L-9,8 L-6,3 Z " fill="#CD8BB5" transform="translate(555,702)"/>
<path d="M0,0 L2,1 L1,3 L-1,3 L-1,8 L2,8 L3,5 L4,8 L-1,13 L-8,14 L-8,12 L-12,13 L-12,11 L-17,11 L-17,15 L-21,15 L-21,20 L-22,20 L-22,14 L-18,12 L-18,10 L-12,10 L-12,8 L-6,8 L-6,10 L-4,10 L-4,8 L-2,8 L-2,2 L0,2 Z " fill="#925A7A" transform="translate(432,416)"/>
<path d="M0,0 L1,0 L2,28 L2,64 L1,64 L1,41 L-1,41 L-1,64 L-2,64 L-2,40 L0,40 L0,28 L-2,28 L-2,24 L0,24 Z " fill="#181013" transform="translate(688,546)"/>
<path d="M0,0 L5,1 L5,2 L-1,4 L-2,7 L-11,10 L-12,12 L-16,12 L-17,17 L-20,17 L-18,12 L-13,5 L-3,1 Z " fill="#C379A6" transform="translate(601,656)"/>
<path d="M0,0 L2,0 L2,6 L0,10 L-2,10 L-2,18 L-4,18 L-4,22 L-5,26 L-8,27 L-7,15 L-3,7 L-6,6 L-3,6 L-2,2 L0,2 Z " fill="#BE81A6" transform="translate(442,526)"/>
<path d="M0,0 L1,0 L1,15 L3,15 L3,1 L7,5 L6,10 L9,12 L10,22 L8,24 L6,19 L5,16 L3,16 L2,20 L2,16 L0,16 Z " fill="#946C87" transform="translate(354,638)"/>
<path d="M0,0 L5,1 L10,3 L12,6 L17,6 L17,4 L22,5 L20,9 L15,11 L10,10 L5,7 L5,5 L-2,3 L-3,1 Z " fill="#9C6C82" transform="translate(474,311)"/>
<path d="M0,0 L2,2 L2,19 L3,23 L2,32 L-1,31 L-2,34 L-3,22 L-2,18 L-2,16 L1,13 L-1,12 Z " fill="#E499C2" transform="translate(586,461)"/>
<path d="M0,0 L4,1 L15,4 L16,7 L27,9 L30,10 L54,10 L54,12 L48,13 L34,13 L17,9 L8,5 L0,2 Z " fill="#CD93B8" transform="translate(476,708)"/>
<path d="M0,0 L2,0 L3,15 L4,17 L3,21 L5,21 L5,24 L2,24 L1,19 L-3,19 L-2,1 Z " fill="#D693BB" transform="translate(462,512)"/>
<path d="M0,0 L1,0 L1,16 L3,17 L1,19 L1,17 L-1,17 L-1,20 L1,20 L0,25 L-1,21 L-3,21 L-3,26 L-1,26 L-2,29 L-3,27 L-5,27 L-4,33 L-5,31 L-7,31 L-5,39 L-7,39 L-7,41 L-9,41 L-9,39 L-11,39 L-12,42 L-12,38 L-10,38 L-10,34 L-8,34 L-8,30 L-6,30 L-6,26 L-4,26 L-4,20 L-2,20 L-2,16 L0,16 Z " fill="#85576E" transform="translate(452,344)"/>
<path d="M0,0 L1,0 L2,13 L4,13 L6,17 L10,18 L10,20 L12,21 L5,21 L0,18 L-1,13 L-3,13 L-3,5 L-1,4 Z " fill="#DEA1C6" transform="translate(491,691)"/>
<path d="M0,0 L6,0 L6,10 L5,10 L5,1 L1,1 L2,15 L3,20 L7,21 L6,28 L4,28 L4,22 L-2,22 L-2,20 L-4,20 L-4,14 L0,14 Z " fill="#170515" transform="translate(494,844)"/>
<path d="M0,0 L1,0 L1,9 L3,9 L4,6 L7,7 L7,9 L11,11 L15,13 L15,15 L17,15 L17,17 L15,17 L16,20 L14,20 L14,18 L9,17 L4,12 L4,10 L0,10 Z " fill="#906781" transform="translate(394,700)"/>
<path d="M0,0 L1,0 L1,9 L-2,18 L-4,18 L-5,20 L-7,22 L-12,22 L-11,19 L-7,19 L-6,12 L-3,8 L-3,3 Z " fill="#C580AC" transform="translate(562,694)"/>
<path d="M0,0 L1,3 L3,3 L3,1 L7,2 L5,3 L5,5 L11,4 L9,5 L9,7 L12,6 L22,6 L23,8 L21,8 L21,11 L40,11 L40,12 L20,12 L20,10 L12,10 L12,8 L8,8 L8,6 L4,6 L4,4 L0,4 Z " fill="#8B7185" transform="translate(410,720)"/>
<path d="M0,0 L1,0 L1,9 L-2,9 L-4,19 L-9,26 L-11,26 L-9,17 L-8,13 L-4,13 L-3,2 Z " fill="#A96D8B" transform="translate(655,611)"/>
<path d="M0,0 L8,0 L26,4 L26,5 L-2,5 L-6,6 L-6,4 L-3,2 L0,2 Z " fill="#A77C98" transform="translate(454,720)"/>
<path d="M0,0 L5,0 L6,3 L13,4 L41,4 L37,7 L15,7 L1,3 Z " fill="#D296BC" transform="translate(491,712)"/>
<path d="M0,0 L9,0 L9,2 L14,2 L14,3 L9,3 L9,5 L18,5 L18,6 L8,6 L8,4 L0,4 L0,2 L-30,2 L-30,1 Z " fill="#86687D" transform="translate(480,728)"/>
<path d="M0,0 L1,4 L5,6 L13,14 L13,20 L11,20 L10,24 L8,15 L1,9 L-1,3 Z " fill="#130F12" transform="translate(385,676)"/>
<path d="M0,0 L2,4 L3,9 L4,6 L5,10 L3,10 L3,17 L4,21 L0,21 L-2,18 L-2,5 L0,5 Z " fill="#E3A3CB" transform="translate(486,655)"/>
<path d="M0,0 L3,0 L2,8 L-1,20 L-4,22 L-5,10 L-3,8 Z " fill="#E09CC5" transform="translate(460,578)"/>
<path d="M0,0 L1,0 L2,11 L-1,14 L-2,28 L-4,29 L-5,38 L-9,40 L-8,38 L-7,29 L-4,24 L-3,11 L-1,1 Z M0,8 Z M-10,40 Z " fill="#C07DA3" transform="translate(642,584)"/>
<path d="M0,0 L4,1 L6,6 L11,8 L11,15 L6,15 L6,12 L1,10 Z " fill="#9C718D" transform="translate(357,654)"/>
<path d="M0,0 L1,4 L-4,13 L-6,14 L-9,36 L-11,36 L-10,21 L-9,20 L-8,12 L-6,12 L-6,6 L-1,1 Z " fill="#A76B8E" transform="translate(455,372)"/>
<path d="M0,0 L2,0 L2,6 L4,6 L3,1 L7,3 L5,3 L5,7 L3,7 L3,9 L1,9 L1,13 L-1,13 L-1,17 L-5,17 L-6,19 L-7,15 L-2,16 L-2,14 L-6,13 L-2,6 Z " fill="#95577B" transform="translate(639,661)"/>
<path d="M0,0 L6,2 L2,8 L-1,9 L-3,14 L-6,14 L-7,7 L-5,7 L-4,3 Z M-6,9 Z M6,1 Z " fill="#D68AB9" transform="translate(566,659)"/>
<path d="M0,0 L2,0 L2,23 L-3,23 L-3,25 L-11,25 L-11,22 L0,21 Z " fill="#A46D85" transform="translate(683,586)"/>
<path d="M0,0 L4,0 L4,2 L-6,5 L-19,5 L-27,4 L-28,1 L-6,2 Z " fill="#DD9BC5" transform="translate(524,711)"/>
<path d="M0,0 L5,0 L5,3 L0,6 L-1,10 L-2,12 L0,14 L-3,18 L-5,16 L-8,15 L-8,10 L-5,9 L-4,4 L0,4 Z M-6,16 Z " fill="#A16587" transform="translate(415,427)"/>
<path d="M0,0 Z M-2,1 L1,2 L0,6 L-3,11 L-6,11 L-6,13 L-14,14 L-36,14 L-38,12 L-15,12 L-7,9 L-4,8 Z M-1,2 Z " fill="#D795BF" transform="translate(540,703)"/>
<path d="M0,0 L1,3 L1,21 L-2,27 L-4,35 L-5,35 L-4,25 L-1,15 L-3,15 L-1,1 Z " fill="#B27396" transform="translate(452,389)"/>
<path d="M0,0 L2,0 L2,9 L4,9 L4,3 L6,1 L5,11 L2,17 L0,15 L-1,17 L-4,17 L-4,12 L-2,12 Z " fill="#A26789" transform="translate(435,407)"/>
<path d="M0,0 L3,0 L4,4 L2,10 L-3,10 L-3,12 L-7,14 L-15,14 L-11,12 L-7,11 L-7,8 L-1,5 Z " fill="#A87B9C" transform="translate(559,718)"/>
<path d="M0,0 L1,2 L-1,6 L-4,20 L-6,34 L-8,35 L-7,20 L-5,6 L-2,4 Z " fill="#AB6D91" transform="translate(453,380)"/>
<path d="M0,0 L2,0 L2,5 L3,6 L3,11 L2,12 L-1,32 L-2,32 L-2,8 L-1,1 Z M-3,32 Z " fill="#D593B8" transform="translate(462,462)"/>
<path d="M0,0 L1,0 L2,10 L0,18 L-2,22 L-4,32 L-6,33 L-7,27 L-3,18 L-1,2 Z M-8,29 Z M-9,30 Z " fill="#AA7091" transform="translate(442,416)"/>
<path d="M0,0 L2,0 L0,10 L-3,18 L-6,25 L-9,27 L-7,18 L-5,18 L-4,12 L-2,3 L0,2 Z " fill="#C98AB1" transform="translate(444,572)"/>
<path d="M0,0 L2,4 L4,6 L6,23 L4,24 L2,23 L2,14 L0,14 Z " fill="#A57C8E" transform="translate(659,457)"/>
<path d="M0,0 L1,0 L1,8 L5,8 L5,12 L7,12 L7,20 L9,20 L9,26 L8,26 L8,21 L6,21 L5,23 L3,21 L3,12 L4,9 L2,9 L1,13 L-1,9 Z " fill="#8E6777" transform="translate(675,480)"/>
<path d="M0,0 L8,0 L8,2 L36,2 L38,4 L12,4 L4,3 L4,1 Z " fill="#B888AA" transform="translate(500,724)"/>
<path d="M0,0 L14,0 L28,2 L28,3 L-2,3 L-2,1 Z " fill="#9F7792" transform="translate(452,724)"/>
<path d="M0,0 L1,3 L6,3 L6,1 L3,0 L8,1 L11,3 L14,0 L18,1 L16,1 L16,3 L18,4 L14,8 L8,8 L6,4 L0,4 Z " fill="#916A83" transform="translate(362,666)"/>
<path d="M0,0 L4,2 L5,6 L7,6 L10,9 L11,14 L5,12 L5,14 L3,14 L1,8 L3,8 L3,6 L1,6 L-1,2 Z " fill="#A17592" transform="translate(408,709)"/>
<path d="M0,0 L3,1 L3,3 L8,3 L8,9 L-1,10 L-2,8 L-5,8 L-5,6 L0,3 Z " fill="#A47C98" transform="translate(420,717)"/>
<path d="M0,0 L1,3 L-1,6 L-2,11 L-7,15 L-13,15 L-11,11 L-8,8 L-3,3 Z " fill="#A6678B" transform="translate(615,670)"/>
<path d="M0,0 L6,0 L3,7 L5,7 L4,9 L3,9 L3,19 L1,19 L1,17 L-1,17 L-1,7 Z " fill="#DF99C4" transform="translate(460,640)"/>
<path d="M0,0 L1,0 L1,16 L-2,26 L-3,34 L-6,34 L-5,24 L-3,20 Z " fill="#B17798" transform="translate(442,440)"/>
<path d="M0,0 L1,3 L-4,6 L-14,9 L-28,8 L-28,7 L-16,6 L-15,4 L-1,1 Z " fill="#E29ECA" transform="translate(532,705)"/>
<path d="M0,0 L5,0 L4,2 L5,14 L8,15 L3,20 L-1,23 L1,16 L2,14 L2,8 L0,8 Z M8,12 L10,13 L8,14 Z " fill="#D993BD" transform="translate(460,544)"/>
<path d="M0,0 L6,0 L6,1 L1,1 L1,6 L3,6 L3,3 L5,3 L6,8 L1,13 L0,18 L-1,18 L-1,13 L-3,13 L-3,18 L-4,18 L-4,12 L-2,12 L-2,6 L0,6 Z " fill="#8F6681" transform="translate(366,490)"/>
<path d="M0,0 L12,0 L12,4 L5,5 L2,7 L-3,5 L-3,7 L-6,8 L-6,6 L-4,6 L-4,4 L0,4 Z " fill="#936378" transform="translate(494,310)"/>
<path d="M0,0 L1,4 L-3,13 L-7,12 L-8,2 L-1,3 Z " fill="#BC759D" transform="translate(631,638)"/>
<path d="M0,0 L2,2 L1,7 L3,7 L5,10 L5,28 L4,28 L3,16 L1,16 L-1,11 Z " fill="#BE7F9F" transform="translate(607,428)"/>
<path d="M0,0 L1,0 L2,11 L0,12 L-1,15 L-4,16 L-4,19 L-6,19 L-7,15 L-6,10 L-4,10 L-4,8 L-2,8 Z " fill="#A15F82" transform="translate(647,648)"/>
<path d="M0,0 L2,0 L4,3 L3,8 L0,19 L-1,26 L-2,26 L-1,1 Z " fill="#D295BA" transform="translate(440,622)"/>
<path d="M0,0 L1,2 L6,3 L7,7 L7,17 L6,15 L4,15 L2,10 L0,5 Z " fill="#AE6D8F" transform="translate(602,386)"/>
<path d="M0,0 L16,0 L16,2 L18,3 L16,4 L2,5 L0,3 Z " fill="#D287AE" transform="translate(512,380)"/>
<path d="M0,0 L4,0 L6,4 L6,7 L9,7 L9,13 L5,14 L5,10 L3,10 L0,4 L-1,2 Z " fill="#AE6C8D" transform="translate(589,368)"/>
<path d="M0,0 L5,0 L0,6 L-22,6 L-25,4 L0,3 Z " fill="#C28CB0" transform="translate(534,719)"/>
<path d="M0,0 L1,2 L0,6 L-2,6 L-2,10 L-9,13 L-11,16 L-13,16 L-13,14 L-16,14 L-15,11 L-7,8 L-3,6 L-1,1 Z " fill="#B57DA3" transform="translate(561,712)"/>
<path d="M0,0 L2,0 L3,5 L3,12 L1,15 Z M-4,14 L-2,14 L-2,16 L0,17 L0,23 L-4,25 Z M0,15 Z " fill="#9E6A89" transform="translate(405,443)"/>
<path d="M0,0 L1,3 L-1,9 L-3,9 L-5,16 L-10,18 L-12,16 L-8,13 L-6,7 L-2,6 L-1,1 Z " fill="#A86791" transform="translate(580,703)"/>
<path d="M0,0 L6,0 L6,10 L0,10 Z " fill="#160112" transform="translate(606,850)"/>
<path d="M0,0 L7,1 L12,3 L8,4 L-2,4 L-4,5 L-15,5 L-19,3 L-6,2 Z " fill="#B783A4" transform="translate(456,713)"/>
<path d="M0,0 L5,0 L5,2 L11,2 L11,3 L5,3 L5,5 L3,5 L3,7 L-1,7 L-1,9 L-7,9 L-7,8 L-2,8 L-2,6 L-5,5 Z " fill="#906685" transform="translate(567,725)"/>
<path d="M0,0 L1,0 L1,6 L-1,6 L-1,10 L-3,10 L-3,14 L-5,14 L-5,16 L-7,16 L-7,24 L-8,24 L-9,14 L-8,11 L-6,11 L-6,13 L-4,13 L-5,5 L-3,5 L-2,3 L-2,5 L0,5 Z " fill="#88576E" transform="translate(661,622)"/>
<path d="M0,0 L1,0 L1,20 L-3,20 L-3,24 L-7,24 L-7,26 L-9,26 L-9,28 L-15,28 L-15,27 L-10,27 L-9,22 L-4,23 L-5,19 L-1,16 Z " fill="#130011" transform="translate(597,846)"/>
<path d="M0,0 L0,3 L0,7 L-5,7 L-5,9 L-21,9 L-21,8 L-10,6 L-2,1 Z " fill="#A07696" transform="translate(565,726)"/>
<path d="M0,0 L3,0 L3,5 L3,9 L-3,9 L-3,7 L-5,7 L-5,3 Z " fill="#A0698E" transform="translate(575,718)"/>
<path d="M0,0 L2,0 L2,2 L7,2 L5,4 L4,12 L2,12 L2,5 L-2,5 L-2,9 L-4,9 L-6,5 L-5,1 L-3,2 L-3,4 L0,4 Z " fill="#E09BC6" transform="translate(468,658)"/>
<path d="M0,0 L1,4 L-3,10 L-9,14 L-11,14 L-12,9 L-11,8 L-6,8 L-5,5 L-1,3 Z " fill="#BE7EA8" transform="translate(561,708)"/>
<path d="M0,0 L3,1 L-1,7 L-3,13 L-8,18 L-11,20 L-11,17 L-9,16 L-7,10 L-2,4 Z " fill="#B16C98" transform="translate(584,687)"/>
<path d="M0,0 L1,2 L-1,7 L-5,8 L-11,10 L-12,5 L-8,3 L-1,1 Z M-13,8 Z " fill="#CD80B0" transform="translate(587,656)"/>
<path d="M0,0 L1,4 L3,4 L3,10 L7,12 L7,20 L10,21 L6,22 L5,20 L6,16 L4,16 L3,20 L2,13 L1,10 L2,5 L-1,5 Z M2,11 Z " fill="#151014" transform="translate(343,616)"/>
<path d="M0,0 L1,4 L3,4 L3,12 L5,12 L5,14 L7,14 L6,18 L6,15 L1,14 L-1,13 L-2,4 L0,4 Z " fill="#906C7B" transform="translate(667,462)"/>
<path d="M0,0 L2,0 L1,5 L-7,11 L-9,7 L-10,2 L-8,2 L-8,4 L-1,3 Z " fill="#A27895" transform="translate(381,502)"/>
<path d="M0,0 L2,2 L2,9 L4,9 L4,16 L2,15 L0,17 L-1,14 L-1,4 Z " fill="#DA8EB5" transform="translate(587,439)"/>
<path d="M0,0 L2,1 L-4,4 L-3,1 Z M-8,4 L-4,5 L-5,10 L-5,12 L-9,16 L-11,16 L-11,10 L-9,8 Z M-7,10 Z " fill="#C077A4" transform="translate(593,664)"/>
<path d="M0,0 L2,1 L1,3 L-1,3 L-1,8 L2,8 L3,5 L4,8 L-1,13 L-8,14 L-8,12 L-4,11 L-4,8 L-2,8 L-2,2 L0,2 Z " fill="#945E7D" transform="translate(432,416)"/>
<path d="M0,0 L7,0 L17,2 L17,4 L1,4 L-3,1 Z " fill="#C783A5" transform="translate(527,368)"/>
<path d="M0,0 L3,1 L1,6 L-5,6 L-10,9 L-8,4 L-6,1 Z " fill="#E195C4" transform="translate(570,635)"/>
<path d="M0,0 L2,2 L1,12 L-2,19 L-5,19 L-6,26 L-8,27 L-6,18 L-2,16 Z " fill="#AF6E91" transform="translate(645,620)"/>
<path d="M0,0 L2,0 L2,2 L-6,6 L-12,11 L-12,6 L-9,3 L-7,3 L-7,1 Z " fill="#21071E" transform="translate(577,835)"/>
<path d="M0,0 L4,1 L2,5 L1,21 L-2,20 L-2,17 L0,17 L0,11 L-2,11 L-1,1 Z " fill="#E8A3CD" transform="translate(464,588)"/>
<path d="M0,0 L3,1 L-1,12 L-3,13 L-5,19 L-7,20 L-4,8 L-3,5 L-1,4 Z " fill="#AB728F" transform="translate(461,360)"/>
<path d="M0,0 L10,0 L20,3 L20,5 L10,4 L10,2 L-2,2 Z " fill="#B37FA0" transform="translate(454,716)"/>
<path d="M0,0 L2,1 L2,5 L5,5 L8,9 L0,8 L-3,7 L-3,1 Z " fill="#D399BC" transform="translate(483,703)"/>
<path d="M0,0 L3,0 L5,10 L3,13 L1,13 L1,9 L-2,9 L-2,5 L1,5 Z " fill="#B781A1" transform="translate(423,695)"/>
<path d="M0,0 L8,0 L3,5 L0,8 L-4,9 L-3,4 L-2,1 Z " fill="#E69CCA" transform="translate(540,666)"/>
<path d="M0,0 L2,0 L4,5 L2,6 L2,9 L-2,9 L-2,11 L-4,11 L-4,4 Z " fill="#9E6288" transform="translate(581,712)"/>
<path d="M0,0 L3,0 L2,4 L-10,8 L-12,9 L-11,6 L-9,5 L-8,2 L-1,1 Z " fill="#C286AD" transform="translate(547,715)"/>
<path d="M0,0 L1,0 L1,5 L3,5 L3,0 L7,2 L8,8 L5,8 L5,16 L4,16 L3,8 L0,6 Z " fill="#907087" transform="translate(346,620)"/>
<path d="M0,0 L2,0 L3,7 L-2,13 L-4,10 L-2,2 L0,2 Z " fill="#9E738F" transform="translate(361,509)"/>
<path d="M0,0 L2,0 L3,7 L0,15 L-2,15 L-2,5 L0,5 Z " fill="#A16F85" transform="translate(461,315)"/>
<path d="M0,0 L1,0 L1,5 L-1,6 L-1,1 Z M-6,6 L-1,6 L-4,9 L-10,12 L-18,12 L-18,10 L-6,8 Z " fill="#A47899" transform="translate(562,722)"/>
<path d="M0,0 L1,0 L2,7 L1,11 L6,11 L2,13 L-5,10 L-5,6 L-1,5 Z " fill="#D095B9" transform="translate(469,674)"/>
<path d="M0,0 L1,0 L2,9 L3,11 L2,15 L4,15 L4,18 L1,18 L0,13 L-2,13 L-3,9 Z " fill="#D995BE" transform="translate(463,518)"/>
<path d="M0,0 L4,4 L3,11 L5,11 L4,17 L0,16 L2,11 L-1,11 L-1,9 L1,8 Z " fill="#CF83AC" transform="translate(585,412)"/>
<path d="M0,0 L2,0 L3,2 L3,10 L1,10 L0,12 L-2,12 L-2,3 L0,3 Z " fill="#A17692" transform="translate(397,697)"/>
<path d="M0,0 L1,0 L0,14 L-4,22 L-5,22 L-4,13 L-1,4 Z " fill="#B57397" transform="translate(644,612)"/>
<path d="M0,0 L1,0 L3,8 L3,16 L0,20 L-1,14 L0,11 L-3,10 L-1,10 Z M1,8 Z M1,14 Z " fill="#D491BA" transform="translate(453,564)"/>
<path d="M0,0 L1,0 L1,18 L6,20 L6,22 L1,21 L-1,20 L-2,15 L-1,2 Z " fill="#AF799B" transform="translate(416,691)"/>
<path d="M0,0 L8,1 L8,8 L4,7 L0,3 Z " fill="#9C7590" transform="translate(391,681)"/>
<path d="M0,0 L1,4 L0,7 L-1,11 L0,15 L-4,17 L-3,5 Z " fill="#BB7FA3" transform="translate(438,536)"/>
<path d="M0,0 L2,1 L3,6 L3,9 L-1,11 L-1,9 L-3,9 L-4,12 L-4,8 L-2,8 L-2,2 L0,2 Z " fill="#926D86" transform="translate(356,516)"/>
<path d="M0,0 L6,0 L6,2 L14,2 L14,3 L6,3 L6,5 L2,6 L0,5 L0,3 L-4,2 L0,2 Z " fill="#8D5571" transform="translate(622,380)"/>
<path d="M0,0 L9,0 L8,2 L0,2 Z M-11,2 L0,2 L-3,5 L-11,4 Z " fill="#240721" transform="translate(536,855)"/>
<path d="M0,0 L2,0 L1,6 L-1,14 L-3,14 L-4,18 L-6,18 L-5,12 L-3,10 Z " fill="#A46A87" transform="translate(653,620)"/>
<path d="M0,0 L2,0 L3,8 L-1,13 L-1,11 L-4,10 L-1,10 L-1,7 L-4,6 L-2,6 Z " fill="#DC99C2" transform="translate(454,590)"/>
<path d="M0,0 L4,0 L4,10 L6,10 L6,12 L8,12 L8,18 L7,18 L7,13 L5,13 L5,18 L2,18 L3,1 Z " fill="#895F73" transform="translate(648,414)"/>
<path d="M0,0 L2,3 L1,8 L-6,12 L-8,13 L-6,9 L-4,6 L-2,6 L-1,1 Z " fill="#CD88B4" transform="translate(564,676)"/>
<path d="M0,0 L2,0 L2,5 L4,5 L4,10 L6,10 L5,14 L1,13 L2,10 L0,9 Z " fill="#A07287" transform="translate(653,427)"/>
<path d="M0,0 L2,0 L3,3 L6,4 L6,13 L4,15 L3,14 L1,5 Z " fill="#A26D86" transform="translate(645,411)"/>
<path d="M0,0 L1,3 L5,3 L4,6 L11,6 L10,14 L8,14 L8,8 L2,8 L2,6 L0,6 Z " fill="#150212" transform="translate(490,858)"/>
<path d="M0,0 L2,4 L3,9 L4,6 L5,10 L3,10 L3,14 L0,13 L-2,9 L-2,5 L0,5 Z " fill="#EAA6D0" transform="translate(486,655)"/>
<path d="M0,0 L2,4 L4,4 L4,15 L-1,12 L0,7 Z " fill="#A27692" transform="translate(360,636)"/>
<path d="M0,0 L8,0 L8,1 L1,3 L-2,6 L-3,24 L-4,24 L-4,4 Z " fill="#050004" transform="translate(602,842)"/>
<path d="M0,0 L3,0 L2,10 L1,13 L-1,13 L-1,1 Z " fill="#CF8EB0" transform="translate(610,492)"/>
<path d="M0,0 L1,0 L1,5 L5,6 L6,16 L4,16 L3,12 L0,10 Z " fill="#CC8BAD" transform="translate(604,459)"/>
<path d="M0,0 L3,1 L2,6 L1,14 L-4,14 L-4,12 L-2,12 L-1,1 Z " fill="#D98DBC" transform="translate(586,626)"/>
<path d="M0,0 L1,3 L-2,8 L-5,13 L-7,10 L-7,7 L-5,7 L-4,3 Z M-6,9 Z " fill="#DA8EBD" transform="translate(566,659)"/>
<path d="M0,0 L5,0 L4,6 L2,5 L2,8 L1,11 L-1,11 L-1,1 Z " fill="#EA9EC8" transform="translate(584,496)"/>
<path d="M0,0 L2,1 L1,3 L-1,3 L-1,10 L1,10 L0,14 L-3,15 L-3,11 L-5,11 L-5,16 L-6,16 L-6,10 L-2,10 L-2,2 L0,2 Z " fill="#88617A" transform="translate(396,468)"/>
<path d="M0,0 L3,1 L2,6 L-1,15 L-2,15 L-1,2 Z " fill="#B183A1" transform="translate(363,576)"/>
<path d="M0,0 L1,4 L3,4 L3,8 L5,8 L5,12 L7,12 L6,14 L1,13 L2,5 L0,5 L-1,7 Z " fill="#8D5770" transform="translate(609,366)"/>
<path d="M0,0 L6,0 L6,2 L10,3 L5,5 L-4,5 L-6,4 L-6,2 L5,3 L5,1 L0,1 Z " fill="#915A73" transform="translate(574,322)"/>
<path d="M0,0 L6,1 L2,2 L2,4 L-2,8 L-8,8 L-8,7 L-3,7 L-3,5 L-8,5 L-5,3 L-3,3 L-3,1 L-1,1 L-1,3 L1,3 Z " fill="#8C5575" transform="translate(612,684)"/>
<path d="M0,0 L4,2 L3,7 L-3,8 L-2,4 Z " fill="#DA9CC3" transform="translate(477,672)"/>
<path d="M0,0 L2,0 L3,3 L1,10 L1,16 L-1,17 L-1,2 Z " fill="#BC7AA0" transform="translate(460,382)"/>
<path d="M0,0 L4,2 L4,5 L8,6 L7,9 L-1,5 L-2,1 Z " fill="#B3708F" transform="translate(581,362)"/>
<path d="M0,0 L5,0 L5,3 L1,7 L0,7 Z M-2,7 L0,8 L-3,11 L-5,10 Z M-6,11 Z " fill="#BB7D9C" transform="translate(500,363)"/>
<path d="M0,0 L4,2 L2,2 L2,6 L0,6 L0,8 L-2,8 L-2,12 L-4,12 L-5,14 L-5,12 L-7,11 L-3,11 L-4,6 L-3,3 L-1,3 L-1,5 L1,5 Z " fill="#8A4D73" transform="translate(592,702)"/>
<path d="M0,0 L4,0 L4,2 L-1,6 L-3,9 L-6,9 L-6,7 L-6,6 L-5,3 Z M-3,4 Z " fill="#CC87AF" transform="translate(610,634)"/>
<path d="M0,0 L2,0 L2,5 L4,6 L2,6 L2,13 L-1,12 L-1,2 Z " fill="#9E7386" transform="translate(681,501)"/>
<path d="M0,0 L9,0 L9,1 L4,1 L4,3 L10,3 L10,4 L4,4 L4,6 L-4,6 L-4,5 L3,5 L3,3 L-2,3 L0,2 Z " fill="#8B5273" transform="translate(622,678)"/>
<path d="M0,0 L1,4 L3,5 L1,8 L1,11 L2,15 L-1,18 L-1,4 Z " fill="#D594BC" transform="translate(445,594)"/>
<path d="M0,0 L3,4 L2,8 L3,12 L1,16 L-1,8 L-2,4 L0,4 Z " fill="#D68AB2" transform="translate(588,431)"/>
<path d="M0,0 L3,1 L3,9 L0,16 L-1,16 Z " fill="#C17CA8" transform="translate(563,692)"/>
<path d="M0,0 L2,1 L2,3 L4,3 L5,0 L5,4 L1,4 L1,8 L-1,8 L-2,10 L-3,7 L-1,1 Z " fill="#8F5277" transform="translate(599,692)"/>
<path d="M0,0 L4,2 L4,7 L3,3 L1,3 L0,7 L-6,7 L-4,3 L0,3 Z " fill="#926B88" transform="translate(380,499)"/>
<path d="M0,0 L2,0 L3,8 L-2,9 L-1,1 Z " fill="#B07A9C" transform="translate(414,680)"/>
<path d="M0,0 L1,3 L-3,14 L-5,14 L-5,16 L-7,16 L-5,11 L-1,2 Z " fill="#A26184" transform="translate(648,642)"/>
<path d="M0,0 L2,0 L1,10 L-3,10 L-3,8 L-1,7 L-5,6 L-5,4 L-1,3 Z " fill="#A37796" transform="translate(379,491)"/>
<path d="M0,0 L4,1 L2,6 L-3,11 L-3,9 L-5,8 L-1,5 Z M-4,11 Z " fill="#C781A6" transform="translate(501,376)"/>
<path d="M0,0 L3,1 L4,5 L6,5 L7,9 L5,13 L4,13 L2,6 L0,3 Z " fill="#A66583" transform="translate(584,335)"/>
<path d="M0,0 L1,4 L3,4 L3,10 L2,10 L2,5 L0,5 L0,10 L-2,10 L-3,4 L-2,1 Z " fill="#915975" transform="translate(639,390)"/>
<path d="M0,0 L4,0 L5,5 L3,5 L3,7 L1,7 L1,5 L-1,5 L-2,8 L-2,4 L0,4 Z " fill="#915B7A" transform="translate(442,378)"/>
<path d="M0,0 L5,0 L5,2 L-3,5 L-5,7 L-8,7 L-7,3 L0,2 Z " fill="#24071F" transform="translate(587,827)"/>
<path d="M0,0 L2,0 L2,4 L4,5 L-2,10 L-2,8 L-4,8 L-4,6 L-1,5 Z " fill="#A27592" transform="translate(391,479)"/>
<path d="M0,0 L5,1 L10,3 L9,5 L3,5 L-3,2 Z " fill="#986A7E" transform="translate(474,311)"/>
<path d="M0,0 L4,0 L4,3 L12,2 L12,4 L7,4 L7,6 L4,6 L3,2 L0,3 Z " fill="#240721" transform="translate(507,853)"/>
<path d="M0,0 L1,3 L3,3 L3,1 L7,2 L5,3 L5,5 L11,4 L9,5 L9,7 L12,8 L8,8 L8,6 L4,6 L4,4 L0,4 Z " fill="#86657C" transform="translate(410,720)"/>
<path d="M0,0 L5,1 L5,3 L7,3 L7,7 L1,5 L1,3 L-1,2 Z M1,2 Z " fill="#0D090C" transform="translate(403,717)"/>
<path d="M0,0 L2,0 L1,4 L-1,4 L-1,9 L-6,11 L-4,4 Z " fill="#BB75A1" transform="translate(586,676)"/>
<path d="M0,0 L4,2 L2,2 L2,6 L0,6 L0,8 L-2,8 L-3,12 L-4,6 L-3,3 L-1,3 L-1,5 L1,5 Z " fill="#895070" transform="translate(642,662)"/>
<path d="M0,0 L2,0 L3,4 L1,6 L0,11 L-2,11 L-2,3 L0,3 Z " fill="#A27B97" transform="translate(353,525)"/>
<path d="M0,0 L2,4 L1,16 L-2,13 Z " fill="#B07393" transform="translate(636,435)"/>
<path d="M0,0 L2,4 L3,14 L1,18 L-1,10 L1,10 Z " fill="#B87A99" transform="translate(611,425)"/>
<path d="M0,0 L2,1 L2,3 L4,3 L4,11 L2,12 L0,5 Z " fill="#D9A0C3" transform="translate(484,680)"/>
<path d="M0,0 L4,2 L2,2 L2,8 L0,8 L0,10 L-2,10 L-2,8 L-8,8 L-8,7 L-1,7 L-1,5 L1,5 Z " fill="#170E13" transform="translate(428,416)"/>
<path d="M0,0 L3,0 L3,5 L6,5 L8,11 L5,10 L5,8 L2,8 Z " fill="#B97196" transform="translate(586,377)"/>
<path d="M0,0 L7,0 L8,2 L6,2 L6,4 L2,5 L0,3 Z " fill="#CF84AB" transform="translate(512,380)"/>
<path d="M0,0 L3,0 L7,5 L5,5 L5,7 L8,8 L3,7 L2,4 L0,4 Z " fill="#150D11" transform="translate(614,374)"/>
<path d="M0,0 L1,0 L1,9 L3,9 L4,6 L7,7 L7,9 L5,9 L6,13 L4,12 L4,10 L0,10 Z " fill="#825F76" transform="translate(394,700)"/>
<path d="M0,0 L1,4 L-1,9 L-2,10 L-3,18 L-4,18 L-4,9 Z " fill="#B87B9D" transform="translate(451,424)"/>
<path d="M0,0 L8,0 L9,1 L9,7 L7,7 L7,2 L0,2 Z " fill="#A36282" transform="translate(628,383)"/>
<path d="M0,0 L2,0 L2,5 L-5,8 L-4,4 L0,2 Z " fill="#A37093" transform="translate(568,720)"/>
<path d="M0,0 L7,3 L6,7 L1,6 Z " fill="#AB7E9B" transform="translate(422,714)"/>
<path d="M0,0 L4,2 L5,8 L3,8 L3,6 L1,6 L-1,2 Z " fill="#A37190" transform="translate(408,709)"/>
<path d="M0,0 L2,0 L2,2 L7,0 L9,2 L4,4 L-6,3 L-4,1 L0,2 Z " fill="#E8A3CF" transform="translate(512,707)"/>
<path d="M0,0 L4,1 L1,7 L3,7 L2,9 L-1,11 Z " fill="#E49EC8" transform="translate(462,640)"/>
<path d="M0,0 L5,2 L1,5 L-3,6 L-3,2 Z " fill="#CA8AAD" transform="translate(483,410)"/>
<path d="M0,0 L5,0 L2,4 L0,10 L-2,10 L-1,4 Z " fill="#B87A9B" transform="translate(463,372)"/>
<path d="M0,0 L4,0 L2,4 L0,6 L-4,5 L-2,1 Z " fill="#B57B97" transform="translate(494,362)"/>
<path d="M0,0 L3,0 L4,4 L2,8 L-1,8 Z " fill="#AB779B" transform="translate(559,718)"/>
<path d="M0,0 L1,2 L10,4 L9,7 L2,5 L0,3 Z " fill="#B0809E" transform="translate(422,711)"/>
<path d="M0,0 L1,0 L1,6 L-3,6 L-3,4 L-5,3 L-3,3 L-3,1 Z " fill="#BE87A8" transform="translate(431,674)"/>
<path d="M0,0 L2,1 L2,6 L1,7 L0,14 L-1,14 L-1,1 Z " fill="#D896BB" transform="translate(463,467)"/>
<path d="M0,0 L8,0 L8,1 L1,3 L-4,8 L-3,3 Z " fill="#040004" transform="translate(616,814)"/>
<path d="M0,0 L1,0 L1,6 L-3,10 L-5,12 L-4,6 L-1,5 Z " fill="#B775A0" transform="translate(566,706)"/>
<path d="M0,0 L4,1 L5,5 L7,6 L6,9 L4,9 L3,6 L1,5 Z " fill="#A27995" transform="translate(377,664)"/>
<path d="M0,0 L6,0 L6,1 L1,1 L1,5 L-3,5 L-3,10 L-4,10 L-4,4 L0,2 Z " fill="#814F6B" transform="translate(414,426)"/>
<path d="M0,0 L5,1 L3,5 L-2,4 L-2,2 L0,2 Z " fill="#A06F85" transform="translate(491,315)"/>
<path d="M0,0 L7,1 L12,3 L9,4 L1,3 Z " fill="#D89BC2" transform="translate(496,712)"/>
<path d="M0,0 L2,0 L4,5 L-4,6 L-2,2 Z " fill="#A2608A" transform="translate(581,712)"/>
<path d="M0,0 L4,1 L3,5 L-3,5 L-3,3 Z " fill="#A15F85" transform="translate(629,676)"/>
<path d="M0,0 L1,4 L-1,4 L-2,9 L-5,9 L-3,4 Z " fill="#C57AA8" transform="translate(586,664)"/>
<path d="M0,0 L6,0 L2,2 L-1,7 L-4,8 L-2,3 Z " fill="#E598C7" transform="translate(564,636)"/>
<path d="M0,0 L3,3 L2,8 L1,13 L0,13 Z " fill="#D596BE" transform="translate(441,622)"/>
<path d="M0,0 L1,0 L0,9 L-2,11 L-2,1 Z " fill="#AA7A90" transform="translate(663,551)"/>
<path d="M0,0 L13,1 L9,3 L2,4 Z " fill="#CA7EA7" transform="translate(556,383)"/>
<path d="M0,0 L4,2 L2,2 L2,6 L0,6 L0,8 L-2,8 L-3,10 L-4,7 L-3,5 L1,5 Z " fill="#895677" transform="translate(582,716)"/>
<path d="M0,0 L2,1 L1,6 L-2,11 L-3,7 Z M-4,11 Z " fill="#A47491" transform="translate(408,688)"/>
<path d="M0,0 L2,1 L1,6 L-3,7 L-3,2 Z " fill="#E29CC8" transform="translate(537,678)"/>
<path d="M0,0 L2,1 L2,3 L5,4 L3,4 L3,8 L1,8 L-1,4 Z " fill="#DC96C2" transform="translate(463,659)"/>
<path d="M0,0 Z M-1,1 Z M-3,2 L0,3 L0,8 L-5,7 Z M-2,3 Z " fill="#C884AB" transform="translate(612,637)"/>
<path d="M0,0 L2,0 L1,9 L-1,11 L-2,6 Z " fill="#A27894" transform="translate(359,511)"/>
<path d="M0,0 L6,0 L10,4 L9,8 L9,5 L6,5 L5,7 L5,1 L0,1 Z " fill="#88526A" transform="translate(584,326)"/>
<path d="M0,0 L3,0 L3,2 L-3,6 L-5,6 L-5,3 L0,2 Z " fill="#B97FA6" transform="translate(555,716)"/>
<path d="M0,0 L2,1 L0,6 L-5,7 L-3,3 Z " fill="#AE7099" transform="translate(567,713)"/>
<path d="M0,0 Z M-2,2 L0,4 L-1,10 L-4,11 Z " fill="#B7729A" transform="translate(636,636)"/>
<path d="M0,0 L3,0 L3,3 L5,4 L3,4 L3,11 L2,11 L2,4 L0,4 Z " fill="#9C7484" transform="translate(670,477)"/>
<path d="M0,0 L1,3 L-1,3 L-2,6 L-6,8 L-4,3 Z " fill="#B3719C" transform="translate(568,710)"/>
<path d="M0,0 L3,0 L1,5 L-1,7 L-4,6 Z " fill="#D08BB3" transform="translate(609,630)"/>
<path d="M0,0 L2,0 L2,2 L4,2 L2,9 L0,6 L1,2 L-1,1 Z M-1,6 Z " fill="#CD8BAE" transform="translate(610,480)"/>
<path d="M0,0 L1,0 L1,6 L-2,6 L-2,9 L-4,9 L-5,5 L-3,5 L-2,3 L-2,5 L0,5 Z " fill="#926076" transform="translate(661,622)"/>
<path d="M0,0 L2,0 L2,6 L-1,7 L-1,1 Z " fill="#9D7791" transform="translate(354,530)"/>
<path d="M0,0 L1,0 L1,6 L4,7 L2,11 L0,9 Z " fill="#C180A2" transform="translate(636,506)"/>
<path d="M0,0 L1,2 L3,3 L-2,7 L-2,2 Z " fill="#E296C5" transform="translate(586,610)"/>
<path d="M0,0 L1,0 L1,9 L-2,11 L-1,5 Z " fill="#E8A3CD" transform="translate(492,524)"/>
<path d="M0,0 L1,0 L2,13 L-1,11 Z " fill="#8A6674" transform="translate(675,480)"/>
<path d="M0,0 L5,1 L6,3 L1,4 Z " fill="#9F718E" transform="translate(399,709)"/>
<path d="M0,0 L4,0 L4,4 L0,5 Z " fill="#B16C98" transform="translate(569,708)"/>
<path d="M0,0 L1,0 L1,6 L-5,9 L-3,5 L-1,4 Z " fill="#EDA3D1" transform="translate(533,666)"/>
<path d="M0,0 L5,0 L4,4 L0,4 Z " fill="#D592BB" transform="translate(456,664)"/>
<path d="M0,0 L1,3 L-1,4 L-3,7 L-4,2 Z M-5,5 Z " fill="#D183B3" transform="translate(579,659)"/>
<path d="M0,0 Z M-3,1 L0,1 L-2,5 L-8,4 L-7,2 Z " fill="#B1708E" transform="translate(512,332)"/>
<path d="M0,0 L4,1 L4,5 L0,4 L-1,1 Z " fill="#0B080A" transform="translate(358,665)"/>
<path d="M0,0 L4,1 L4,5 L0,3 Z " fill="#9F728F" transform="translate(364,661)"/>
<path d="M0,0 L7,1 L3,3 L1,5 Z " fill="#BE79A1" transform="translate(623,640)"/>
<path d="M0,0 L3,1 L0,8 L-1,8 L-1,1 Z " fill="#DD91C0" transform="translate(586,626)"/>
<path d="M0,0 L2,3 L3,6 L1,7 L-1,6 L-1,1 Z " fill="#AE8195" transform="translate(659,515)"/>
<path d="M0,0 L2,0 L2,6 L0,8 L-1,5 Z " fill="#CE8DAF" transform="translate(611,507)"/>
<path d="M0,0 L2,0 L2,3 L5,3 L5,5 L0,5 Z " fill="#1D060C" transform="translate(685,230)"/>
<path d="M0,0 L1,3 L-5,5 L-3,1 Z " fill="#C27FA9" transform="translate(570,684)"/>
<path d="M0,0 L2,1 L1,4 L-3,6 L-3,2 Z " fill="#BF7BA1" transform="translate(615,648)"/>
<path d="M0,0 L1,3 L4,4 L0,7 L-1,4 Z " fill="#DB8EBE" transform="translate(576,638)"/>
<path d="M0,0 L1,2 L4,3 L0,6 L0,2 L-2,1 Z " fill="#946D89" transform="translate(376,505)"/>
<path d="M0,0 L4,0 L4,2 L-2,4 Z " fill="#2B2028" transform="translate(376,502)"/>
<path d="M0,0 L4,0 L4,2 L2,2 L2,5 L0,5 Z " fill="#A87897" transform="translate(367,491)"/>
<path d="M0,0 L4,1 L1,1 L1,5 L-3,3 L0,2 Z " fill="#856078" transform="translate(386,484)"/>
<path d="M0,0 L3,4 L1,8 L0,6 Z " fill="#D287AE" transform="translate(588,431)"/>
<path d="M0,0 L2,0 L3,7 L0,4 Z " fill="#C57EA3" transform="translate(593,416)"/>
<path d="M0,0 L5,1 L4,4 L0,2 Z " fill="#B97997" transform="translate(526,336)"/>
<path d="M0,0 L3,0 L2,5 L0,4 Z " fill="#BF8BAA" transform="translate(434,696)"/>
<path d="M0,0 L2,1 L2,5 L-1,5 Z " fill="#AB7899" transform="translate(413,684)"/>
<path d="M0,0 L3,0 L2,6 L0,4 Z M-1,4 Z " fill="#E69BC4" transform="translate(586,496)"/>
<path d="M0,0 L2,0 L2,6 L-1,3 Z " fill="#B57695" transform="translate(635,445)"/>
<path d="M0,0 L4,0 L3,4 L0,3 Z " fill="#A06281" transform="translate(618,383)"/>
<path d="M0,0 L3,0 L3,2 L5,3 L3,4 L0,3 Z M2,4 Z " fill="#A37087" transform="translate(463,311)"/>
<path d="M0,0 L4,0 L3,3 L0,4 Z " fill="#1F071D" transform="translate(495,845)"/>
<path d="M0,0 L4,1 L2,4 L-1,4 Z " fill="#20061C" transform="translate(580,830)"/>
<path d="M0,0 L2,1 L1,8 L-1,4 Z " fill="#C38CAE" transform="translate(436,676)"/>
<path d="M0,0 L1,2 L3,3 L-2,4 L-2,1 Z " fill="#9A597F" transform="translate(636,671)"/>
<path d="M0,0 L2,0 L2,5 L0,6 L-1,2 Z " fill="#9A5B7C" transform="translate(645,657)"/>
<path d="M0,0 L2,0 L1,4 L-2,5 L-1,1 Z " fill="#DC98C1" transform="translate(463,568)"/>
<path d="M0,0 L4,1 L2,4 L-1,3 Z " fill="#C37FA4" transform="translate(501,376)"/>
<path d="M0,0 L3,0 L2,4 L0,4 Z " fill="#B1789E" transform="translate(559,718)"/>
<path d="M0,0 L2,0 L2,4 L-2,2 Z " fill="#21181E" transform="translate(378,670)"/>
<path d="M0,0 L3,1 L-2,4 L-2,1 Z " fill="#E69AC9" transform="translate(550,660)"/>
<path d="M0,0 L2,3 L2,6 L0,6 L-1,2 Z " fill="#A26984" transform="translate(655,629)"/>
<path d="M0,0 L2,0 L3,4 L1,6 Z " fill="#A36B8C" transform="translate(405,443)"/>
<path d="M0,0 L3,1 L3,4 L0,4 Z " fill="#BE7B9C" transform="translate(561,368)"/>
<path d="M0,0 L4,1 L3,4 L0,2 Z " fill="#9B5A84" transform="translate(583,713)"/>
<path d="M0,0 L2,0 L2,4 L-1,4 Z " fill="#AB7899" transform="translate(409,679)"/>
<path d="M0,0 L2,1 L1,5 L1,3 L-1,3 Z " fill="#E89CCA" transform="translate(588,566)"/>
<path d="M0,0 L2,2 L-1,5 Z " fill="#BA82A5" transform="translate(426,703)"/>
<path d="M0,0 L2,0 L0,4 Z " fill="#B17F95" transform="translate(658,534)"/>
<path d="M0,0 L3,0 L2,3 L0,3 Z " fill="#BB7F9D" transform="translate(640,480)"/>
<path d="M0,0 Z M-3,1 L0,2 L-3,4 Z " fill="#C2809E" transform="translate(516,364)"/>
</svg>
