<?xml version="1.0" encoding="UTF-8"?>
<!-- Generator: visioncortex VTracer 0.6.4 -->
<svg version="1.1" xmlns="http://www.w3.org/2000/svg" width="1024" height="1024">
<path d="M0,0 L1024,0 L1024,1024 L0,1024 Z " fill="#000000" transform="translate(0,0)"/>
<path d="M0,0 L30,0 L30,2 L58,2 L58,4 L86,4 L88,7 L92,8 L92,10 L94,10 L94,16 L92,16 L92,20 L90,20 L90,24 L94,24 L96,27 L110,28 L110,30 L112,30 L112,34 L114,34 L114,36 L116,36 L116,42 L118,42 L118,60 L120,60 L120,70 L122,70 L122,92 L124,92 L124,98 L126,98 L126,114 L128,114 L130,119 L132,120 L132,116 L138,116 L138,120 L144,120 L144,124 L146,124 L146,128 L148,128 L148,136 L150,136 L150,174 L152,174 L152,184 L154,184 L154,196 L156,196 L156,202 L154,202 L154,218 L156,218 L156,234 L154,234 L154,268 L152,268 L152,272 L150,272 L150,274 L148,274 L148,278 L146,278 L146,280 L144,280 L144,290 L142,290 L142,300 L138,300 L138,304 L130,304 L130,306 L126,306 L126,312 L124,312 L124,314 L122,314 L122,328 L120,328 L120,334 L118,334 L118,338 L114,342 L110,342 L110,344 L94,344 L94,346 L92,346 L92,348 L94,348 L94,354 L92,354 L92,358 L86,358 L86,360 L70,360 L70,362 L62,362 L62,364 L58,364 L58,366 L56,366 L56,368 L38,368 L38,370 L34,370 L34,372 L28,372 L28,374 L26,374 L26,386 L22,386 L22,388 L18,388 L18,390 L12,390 L12,388 L8,388 L8,392 L6,392 L6,394 L2,394 L2,398 L0,398 L0,400 L-6,400 L-6,402 L-8,402 L-8,404 L-10,404 L-10,406 L-12,406 L-12,412 L-14,412 L-14,414 L-16,414 L-16,416 L-28,416 L-28,402 L-36,402 L-36,400 L-44,400 L-44,398 L-46,398 L-46,400 L-56,400 L-56,396 L-60,396 L-60,394 L-62,394 L-64,389 L-68,386 L-68,378 L-66,378 L-66,374 L-68,374 L-68,370 L-76,370 L-76,368 L-78,368 L-78,370 L-84,370 L-84,368 L-88,368 L-88,366 L-92,366 L-94,361 L-96,360 L-96,346 L-100,346 L-100,342 L-102,342 L-102,340 L-108,340 L-108,338 L-116,338 L-116,336 L-122,336 L-124,332 L-128,332 L-132,328 L-132,322 L-130,322 L-132,316 L-136,316 L-136,314 L-144,314 L-144,312 L-148,312 L-148,310 L-153,309 L-156,306 L-156,304 L-166,304 L-166,302 L-168,302 L-168,304 L-176,304 L-180,300 L-180,296 L-182,296 L-182,288 L-180,288 L-180,284 L-182,284 L-182,280 L-184,280 L-184,276 L-186,276 L-186,272 L-188,272 L-188,268 L-190,268 L-190,262 L-192,262 L-192,246 L-198,246 L-198,248 L-204,248 L-206,243 L-208,242 L-208,234 L-210,234 L-210,218 L-208,218 L-208,206 L-205,203 L-204,200 L-206,200 L-206,188 L-200,188 L-200,192 L-196,192 L-194,188 L-192,188 L-192,178 L-190,178 L-190,148 L-188,148 L-188,122 L-186,122 L-186,116 L-184,116 L-184,112 L-186,112 L-186,96 L-184,96 L-184,90 L-182,90 L-182,88 L-180,88 L-180,80 L-178,80 L-178,70 L-176,70 L-176,68 L-164,68 L-164,66 L-158,66 L-158,64 L-156,64 L-156,60 L-152,60 L-152,58 L-150,58 L-150,56 L-142,56 L-142,54 L-136,54 L-136,56 L-126,56 L-126,54 L-124,54 L-124,42 L-122,42 L-121,37 L-118,36 L-118,34 L-102,34 L-102,36 L-100,36 L-100,34 L-92,34 L-92,32 L-86,32 L-86,30 L-56,30 L-56,28 L-52,28 L-52,26 L-40,26 L-40,24 L-34,24 L-34,22 L-32,22 L-32,16 L-36,16 L-36,8 L-32,8 L-32,6 L-24,6 L-24,4 L-12,4 L-12,2 L0,2 Z " fill="#5939BA" transform="translate(514,314)"/>
<path d="M0,0 L6,0 L8,3 L12,4 L12,10 L16,12 L16,14 L20,14 L20,12 L26,12 L26,10 L42,10 L42,8 L48,8 L48,10 L68,10 L68,14 L70,14 L70,20 L66,20 L66,22 L48,22 L48,26 L44,26 L44,30 L36,30 L36,32 L32,32 L32,34 L24,34 L24,36 L22,36 L22,38 L28,38 L28,44 L24,44 L24,46 L18,46 L18,48 L16,48 L16,50 L10,50 L10,52 L2,52 L2,54 L-14,54 L-14,56 L-18,56 L-18,58 L-22,58 L-22,60 L-26,60 L-26,64 L-30,64 L-30,68 L-26,68 L-26,76 L-28,76 L-28,78 L-32,78 L-32,80 L-50,80 L-50,82 L-58,82 L-58,84 L-74,84 L-74,86 L-106,86 L-106,84 L-110,84 L-110,86 L-116,86 L-116,88 L-132,88 L-132,84 L-136,84 L-136,86 L-148,86 L-148,84 L-154,84 L-154,86 L-164,86 L-164,84 L-172,84 L-172,82 L-176,82 L-176,80 L-180,80 L-180,64 L-182,64 L-182,60 L-192,60 L-192,58 L-196,58 L-196,56 L-200,56 L-200,54 L-210,54 L-210,52 L-228,52 L-228,50 L-232,50 L-232,48 L-236,48 L-236,46 L-240,46 L-240,38 L-238,38 L-238,36 L-232,36 L-232,32 L-224,32 L-224,34 L-200,34 L-200,32 L-192,32 L-190,35 L-184,36 L-180,41 L-176,42 L-176,36 L-162,36 L-162,38 L-150,38 L-150,40 L-146,40 L-146,42 L-132,42 L-132,40 L-128,40 L-128,38 L-118,38 L-116,41 L-108,42 L-108,44 L-104,44 L-104,42 L-92,42 L-92,40 L-90,40 L-90,38 L-84,38 L-84,36 L-72,36 L-72,34 L-68,34 L-68,30 L-64,30 L-64,28 L-52,28 L-52,32 L-36,32 L-34,28 L-32,28 L-32,18 L-26,18 L-26,28 L-23,26 L-20,26 L-20,24 L-18,24 L-18,22 L-16,22 L-16,16 L-14,16 L-14,12 L-12,12 L-12,10 L-8,10 L-8,6 L-4,6 L-2,2 L0,2 Z " fill="#170B3B" transform="translate(594,744)"/>
<path d="M0,0 L30,0 L30,2 L58,2 L58,4 L86,4 L88,7 L92,8 L92,10 L94,10 L94,16 L92,16 L92,20 L90,20 L90,24 L94,24 L96,27 L110,28 L110,30 L112,30 L112,34 L114,34 L114,36 L116,36 L116,42 L118,42 L118,60 L120,60 L120,70 L122,70 L122,92 L124,92 L124,98 L126,98 L126,114 L128,114 L130,119 L132,120 L132,116 L138,116 L138,120 L144,120 L144,124 L146,124 L146,128 L148,128 L148,136 L150,136 L150,174 L152,174 L152,184 L154,184 L154,196 L156,196 L156,202 L154,202 L154,218 L156,218 L156,234 L154,234 L154,268 L152,268 L152,272 L150,272 L150,274 L148,274 L148,278 L146,278 L146,280 L144,280 L144,290 L142,290 L142,300 L138,300 L138,304 L130,304 L130,306 L126,306 L126,312 L124,312 L124,314 L122,314 L122,328 L120,328 L120,334 L118,334 L118,338 L114,342 L110,342 L110,344 L94,344 L94,346 L92,346 L92,348 L94,348 L94,354 L92,354 L92,358 L86,358 L86,360 L70,360 L70,362 L62,362 L62,364 L58,364 L58,366 L56,366 L56,368 L38,368 L38,370 L34,370 L34,372 L28,372 L28,374 L26,374 L26,386 L22,386 L22,388 L18,388 L18,390 L12,390 L12,388 L8,388 L8,392 L6,392 L6,394 L2,394 L2,398 L0,398 L0,400 L-6,400 L-6,402 L-8,402 L-8,404 L-10,404 L-10,406 L-12,406 L-12,412 L-14,412 L-14,414 L-16,414 L-16,416 L-28,416 L-28,402 L-36,402 L-36,400 L-44,400 L-44,398 L-46,398 L-46,400 L-56,400 L-56,396 L-60,396 L-60,394 L-62,394 L-64,389 L-68,386 L-68,378 L-66,378 L-66,374 L-68,374 L-68,370 L-76,370 L-76,368 L-78,368 L-78,370 L-84,370 L-84,368 L-88,368 L-88,366 L-92,366 L-94,361 L-96,360 L-96,346 L-100,346 L-100,342 L-102,342 L-102,340 L-108,340 L-108,338 L-116,338 L-116,336 L-122,336 L-124,332 L-128,332 L-132,328 L-132,322 L-130,322 L-132,316 L-136,316 L-136,314 L-144,314 L-144,312 L-148,312 L-148,310 L-153,309 L-156,306 L-156,304 L-166,304 L-166,302 L-168,302 L-168,304 L-176,304 L-180,300 L-180,296 L-182,296 L-182,288 L-180,288 L-180,284 L-182,284 L-182,280 L-184,280 L-184,276 L-186,276 L-186,272 L-188,272 L-188,268 L-190,268 L-190,262 L-192,262 L-192,246 L-198,246 L-198,248 L-204,248 L-206,243 L-208,242 L-208,234 L-210,234 L-210,218 L-208,218 L-208,206 L-205,203 L-204,200 L-206,200 L-206,188 L-200,188 L-200,192 L-196,192 L-194,188 L-192,188 L-192,178 L-190,178 L-190,148 L-188,148 L-188,122 L-186,122 L-186,116 L-184,116 L-184,112 L-186,112 L-186,96 L-184,96 L-184,90 L-182,90 L-182,88 L-180,88 L-180,80 L-178,80 L-178,70 L-176,70 L-176,68 L-164,68 L-164,66 L-158,66 L-158,64 L-156,64 L-156,60 L-152,60 L-152,58 L-150,58 L-150,56 L-142,56 L-142,54 L-136,54 L-136,56 L-126,56 L-126,54 L-124,54 L-124,42 L-122,42 L-121,37 L-118,36 L-118,34 L-102,34 L-102,36 L-100,36 L-100,34 L-92,34 L-92,32 L-86,32 L-86,30 L-56,30 L-56,28 L-52,28 L-52,26 L-40,26 L-40,24 L-34,24 L-34,22 L-32,22 L-32,16 L-36,16 L-36,8 L-32,8 L-32,6 L-24,6 L-24,4 L-12,4 L-12,2 L0,2 Z M19,4 L16,6 L4,6 L0,5 L-2,9 L-6,9 L-6,7 L-21,8 L-30,11 L-31,13 L-28,18 L-31,26 L-36,29 L-36,32 L-31,32 L-28,29 L-28,26 L-24,25 L-24,27 L-22,27 L-22,25 L-20,25 L-19,27 L-18,27 L-18,30 L-13,32 L-10,33 L-10,31 L-4,31 L-4,33 L2,32 L2,27 L4,27 L4,30 L8,29 L8,34 L4,35 L3,33 L-4,35 L-7,39 L-12,39 L-12,42 L-25,42 L-27,39 L-32,40 L-33,38 L-37,37 L-38,38 L-43,38 L-42,35 L-45,34 L-47,38 L-51,39 L-54,35 L-63,35 L-66,35 L-67,38 L-73,36 L-83,36 L-90,37 L-92,39 L-97,40 L-100,39 L-110,38 L-115,38 L-118,41 L-118,61 L-116,61 L-116,63 L-109,63 L-110,66 L-109,69 L-106,71 L-112,72 L-113,71 L-118,68 L-122,69 L-123,82 L-126,82 L-126,69 L-132,69 L-134,71 L-134,74 L-138,73 L-139,71 L-145,71 L-149,69 L-151,72 L-150,78 L-152,78 L-153,71 L-157,74 L-158,70 L-164,71 L-166,73 L-171,73 L-174,78 L-174,86 L-174,88 L-174,91 L-172,91 L-177,96 L-178,104 L-176,107 L-175,114 L-177,116 L-178,126 L-181,136 L-179,137 L-179,144 L-181,145 L-181,152 L-179,152 L-179,150 L-177,150 L-178,154 L-178,157 L-179,161 L-178,170 L-178,178 L-174,180 L-176,190 L-176,193 L-176,195 L-179,199 L-180,208 L-184,210 L-184,220 L-183,225 L-183,230 L-186,230 L-185,222 L-185,212 L-186,205 L-189,207 L-189,212 L-191,212 L-190,205 L-189,201 L-193,203 L-197,203 L-198,201 L-200,201 L-204,209 L-205,219 L-206,221 L-206,231 L-203,241 L-201,243 L-194,242 L-186,249 L-188,253 L-188,259 L-185,262 L-185,256 L-183,257 L-182,268 L-181,270 L-178,270 L-176,280 L-175,291 L-175,299 L-171,300 L-166,298 L-162,296 L-162,294 L-154,294 L-154,297 L-146,297 L-146,302 L-150,303 L-148,307 L-144,309 L-135,311 L-131,312 L-131,314 L-127,315 L-126,325 L-122,326 L-121,331 L-112,334 L-104,334 L-101,337 L-100,339 L-98,339 L-98,342 L-94,343 L-93,345 L-91,345 L-91,349 L-92,352 L-89,361 L-87,363 L-83,363 L-82,365 L-76,363 L-76,361 L-72,364 L-63,365 L-63,367 L-61,367 L-63,385 L-60,390 L-56,393 L-54,393 L-54,395 L-51,396 L-47,395 L-43,394 L-43,399 L-26,399 L-24,407 L-24,412 L-17,411 L-16,406 L-14,405 L-15,403 L-13,403 L-10,399 L-10,395 L-3,394 L-3,392 L5,393 L3,390 L6,386 L6,384 L8,384 L8,382 L10,382 L10,384 L13,386 L17,385 L22,380 L22,372 L26,370 L26,368 L34,368 L36,365 L46,361 L46,363 L48,363 L48,361 L53,360 L56,358 L72,356 L85,356 L86,352 L89,353 L89,344 L91,343 L90,340 L96,339 L102,340 L102,338 L109,340 L113,341 L113,339 L111,338 L113,335 L114,329 L118,325 L118,320 L116,319 L118,305 L121,306 L125,301 L126,294 L130,295 L130,299 L137,297 L138,296 L139,289 L140,288 L140,280 L142,280 L142,274 L144,273 L146,263 L147,259 L147,248 L145,247 L142,238 L144,238 L144,212 L147,212 L147,188 L147,186 L148,182 L146,166 L146,164 L146,152 L145,149 L145,139 L143,133 L142,127 L140,124 L138,124 L138,122 L134,123 L132,124 L126,125 L126,133 L123,133 L123,126 L119,118 L118,99 L116,99 L115,94 L112,94 L113,88 L113,86 L113,78 L111,78 L114,62 L113,61 L114,50 L114,44 L112,46 L111,43 L111,37 L109,37 L107,32 L98,33 L93,33 L93,29 L87,24 L88,17 L89,19 L91,19 L90,15 L88,10 L83,8 L63,8 L59,8 L55,6 L28,5 L24,8 L23,4 Z M57,6 Z M-153,70 Z M-152,72 Z M-177,193 Z M127,295 Z M119,306 Z M-99,342 L-99,345 L-97,345 L-98,342 Z M-55,395 Z M54,8 Z M112,50 Z M112,54 Z M114,320 Z " fill="#52389C" transform="translate(514,314)"/>
<path d="M0,0 L6,0 L8,3 L12,4 L12,10 L16,12 L16,14 L20,14 L20,12 L26,12 L26,10 L42,10 L42,8 L48,8 L48,10 L68,10 L68,14 L70,14 L70,20 L66,20 L66,22 L48,22 L48,26 L44,26 L44,30 L36,30 L36,32 L32,32 L32,34 L21,35 L19,37 L18,45 L15,47 L7,47 L0,49 L-4,49 L-4,47 L-11,47 L-12,49 L-16,48 L-20,47 L-24,51 L-34,55 L-36,55 L-36,51 L-41,54 L-43,56 L-49,57 L-50,53 L-48,53 L-47,49 L-44,49 L-44,46 L-48,47 L-48,49 L-56,50 L-59,51 L-60,53 L-62,53 L-62,51 L-64,51 L-64,49 L-70,51 L-73,50 L-74,52 L-74,50 L-80,54 L-84,55 L-89,57 L-94,56 L-110,57 L-112,56 L-112,53 L-120,56 L-124,55 L-127,56 L-131,54 L-135,56 L-139,55 L-139,53 L-144,53 L-144,51 L-147,51 L-148,49 L-164,49 L-171,48 L-174,46 L-175,37 L-162,37 L-150,38 L-150,40 L-146,40 L-146,42 L-132,42 L-132,40 L-128,40 L-128,38 L-118,38 L-116,41 L-108,42 L-108,44 L-104,44 L-104,42 L-92,42 L-92,40 L-90,40 L-90,38 L-84,38 L-84,36 L-72,36 L-72,34 L-68,34 L-68,30 L-64,30 L-64,28 L-52,28 L-52,32 L-36,32 L-34,28 L-32,28 L-32,18 L-26,18 L-26,28 L-23,26 L-20,26 L-20,24 L-18,24 L-18,22 L-16,22 L-16,16 L-14,16 L-14,12 L-12,12 L-12,10 L-8,10 L-8,6 L-4,6 L-2,2 L0,2 Z M-93,53 L-94,55 L-92,55 Z M-50,57 Z " fill="#160B3B" transform="translate(594,744)"/>
<path d="M0,0 L18,0 L18,2 L22,2 L22,8 L28,8 L28,4 L36,4 L36,8 L38,8 L38,44 L42,44 L42,60 L44,60 L44,64 L46,64 L46,72 L42,72 L42,86 L44,86 L44,118 L46,118 L46,138 L40,138 L40,146 L42,146 L42,152 L36,152 L36,148 L34,148 L34,136 L40,136 L40,132 L34,132 L34,128 L32,128 L32,122 L30,122 L30,116 L34,116 L34,106 L32,106 L32,94 L30,94 L30,88 L32,88 L32,76 L28,76 L28,72 L26,72 L26,62 L24,62 L24,52 L22,52 L22,44 L18,44 L18,46 L16,46 L16,52 L10,52 L10,54 L2,54 L2,44 L-2,44 L-2,42 L-4,42 L-4,32 L2,32 L3,27 L4,24 L2,24 L2,20 L0,20 L0,22 L-6,22 L-6,8 L-2,8 L-2,4 L0,4 Z " fill="#190A36" transform="translate(710,254)"/>
<path d="M0,0 L6,0 L6,4 L10,4 L11,2 L11,5 L13,5 L15,9 L13,9 L13,14 L9,12 L9,10 L7,10 L6,16 L3,21 L2,31 L1,33 L1,43 L4,53 L8,54 L12,53 L18,57 L21,61 L19,65 L19,71 L20,73 L21,68 L24,69 L25,82 L28,82 L31,89 L31,97 L32,103 L31,111 L37,110 L43,108 L44,106 L52,106 L52,109 L60,109 L60,114 L56,115 L62,120 L71,122 L75,124 L75,126 L79,127 L81,137 L84,138 L85,142 L94,145 L102,145 L106,149 L106,151 L108,151 L108,154 L113,153 L113,157 L115,157 L115,159 L117,160 L115,164 L118,173 L124,175 L124,177 L127,175 L130,175 L130,173 L134,175 L143,177 L143,179 L145,179 L146,182 L144,197 L146,199 L146,202 L150,204 L152,205 L152,207 L159,206 L163,206 L163,208 L165,209 L163,209 L163,211 L170,210 L181,210 L183,219 L182,224 L189,223 L190,218 L191,215 L193,215 L195,211 L196,207 L198,207 L199,205 L203,206 L203,204 L207,203 L207,205 L209,204 L209,201 L212,196 L214,196 L214,194 L216,194 L216,196 L222,197 L227,192 L228,184 L232,180 L239,179 L242,176 L246,176 L247,174 L252,173 L252,175 L254,175 L254,173 L260,172 L258,176 L261,177 L244,177 L244,179 L262,179 L262,180 L244,180 L244,182 L240,182 L240,184 L234,184 L234,186 L232,186 L232,198 L228,198 L228,200 L224,200 L224,202 L218,202 L218,200 L214,200 L214,204 L212,204 L212,206 L208,206 L208,210 L206,210 L206,212 L200,212 L200,214 L198,214 L198,216 L196,216 L196,218 L194,218 L194,224 L192,224 L192,226 L190,226 L190,228 L178,228 L178,214 L170,214 L170,212 L162,212 L162,210 L160,210 L160,212 L150,212 L150,208 L146,208 L146,206 L144,206 L142,201 L138,198 L138,190 L140,190 L140,186 L138,186 L138,182 L130,182 L130,180 L128,180 L128,182 L122,182 L122,180 L118,180 L118,178 L114,178 L112,173 L110,172 L110,158 L106,158 L106,154 L104,154 L104,152 L98,152 L98,150 L90,150 L90,148 L84,148 L82,144 L78,144 L74,140 L74,134 L76,134 L74,128 L70,128 L70,126 L62,126 L62,124 L58,124 L58,122 L53,121 L50,118 L50,116 L40,116 L40,114 L38,114 L38,116 L30,116 L26,112 L26,108 L24,108 L24,100 L26,100 L26,96 L24,96 L24,92 L22,92 L22,88 L20,88 L20,84 L18,84 L18,80 L16,80 L16,74 L14,74 L14,58 L8,58 L8,60 L2,60 L0,55 L-2,54 L-2,46 L-4,46 L-4,30 L-2,30 L-2,18 L1,15 L2,12 L0,12 Z M107,154 L107,157 L109,157 L108,154 Z M151,207 Z " fill="#493091" transform="translate(308,502)"/>
<path d="M0,0 L6,0 L6,2 L14,2 L14,4 L24,4 L24,8 L30,8 L32,11 L36,12 L36,18 L34,18 L34,20 L30,20 L30,22 L22,22 L22,24 L14,24 L14,26 L20,26 L20,32 L18,32 L18,36 L26,36 L26,42 L18,42 L18,44 L10,44 L10,46 L2,46 L2,50 L-4,50 L-4,48 L-10,48 L-10,50 L-12,50 L-12,52 L-14,52 L-14,54 L-16,54 L-16,56 L-20,56 L-20,58 L-22,58 L-22,70 L-24,70 L-24,72 L-26,72 L-26,74 L-30,74 L-30,76 L-40,76 L-40,62 L-38,62 L-38,60 L-36,60 L-36,58 L-34,58 L-33,53 L-30,52 L-30,50 L-28,50 L-28,40 L-24,40 L-24,38 L-14,38 L-14,36 L-12,36 L-12,26 L-8,26 L-8,24 L-4,24 L-4,20 L-12,20 L-12,8 L-8,8 L-6,4 L-2,4 L-2,2 L0,2 Z " fill="#1F0C3B" transform="translate(366,194)"/>
<path d="M0,0 L2,0 L3,3 L13,2 L16,3 L27,3 L32,1 L37,2 L37,0 L39,0 L39,2 L44,1 L46,2 L46,8 L50,10 L43,12 L41,13 L40,9 L34,8 L33,22 L29,21 L29,8 L22,10 L21,13 L16,12 L16,10 L9,11 L6,9 L5,11 L5,17 L3,17 L1,11 L-3,14 L-3,9 L-9,10 L-10,13 L-16,13 L-18,17 L-18,24 L-16,26 L-18,27 L-19,30 L-17,30 L-19,34 L-21,35 L-22,43 L-20,46 L-19,53 L-21,55 L-22,65 L-25,75 L-23,74 L-23,84 L-25,84 L-26,91 L-24,91 L-24,89 L-22,89 L-20,85 L-21,90 L-21,93 L-23,99 L-22,109 L-23,117 L-18,117 L-20,129 L-20,131 L-20,134 L-23,138 L-25,152 L-26,148 L-28,149 L-28,159 L-27,164 L-28,169 L-31,169 L-31,151 L-32,145 L-34,151 L-36,151 L-36,144 L-35,141 L-38,143 L-43,142 L-44,137 L-42,137 L-39,140 L-37,135 L-38,132 L-40,132 L-39,127 L-37,127 L-37,117 L-35,117 L-35,87 L-33,87 L-33,61 L-31,61 L-31,55 L-29,55 L-29,51 L-31,51 L-31,35 L-29,35 L-29,29 L-27,29 L-27,27 L-25,27 L-25,19 L-23,19 L-23,9 L-21,9 L-21,7 L-9,7 L-9,5 L0,4 Z M2,9 Z M3,11 Z M-22,132 Z " fill="#53389D" transform="translate(359,375)"/>
<path d="M0,0 L12,0 L12,1 L1,1 L1,3 L12,3 L10,7 L6,7 L6,5 L0,6 L-12,8 L-18,10 L-15,16 L-18,24 L-23,27 L-24,30 L-18,28 L-16,24 L-12,23 L-12,25 L-10,25 L-10,23 L-6,23 L-4,22 L-6,27 L-1,29 L2,31 L2,29 L8,29 L8,31 L14,30 L14,25 L16,25 L16,28 L20,27 L20,32 L16,33 L14,33 L8,33 L6,37 L2,38 L0,37 L0,40 L-14,41 L-15,38 L-21,39 L-21,36 L-32,37 L-30,33 L-34,34 L-38,38 L-42,36 L-42,33 L-51,34 L-54,34 L-55,36 L-60,36 L-61,35 L-71,35 L-78,36 L-80,38 L-86,39 L-86,37 L-91,38 L-98,37 L-103,37 L-105,39 L-105,58 L-106,61 L-115,62 L-116,63 L-127,63 L-134,62 L-140,63 L-141,59 L-143,59 L-142,64 L-146,64 L-146,62 L-144,62 L-144,58 L-140,58 L-140,56 L-138,56 L-138,54 L-130,54 L-130,52 L-124,52 L-124,54 L-114,54 L-114,52 L-112,52 L-112,40 L-110,40 L-109,35 L-106,34 L-106,32 L-90,32 L-90,34 L-88,34 L-88,32 L-80,32 L-80,30 L-74,30 L-74,28 L-44,28 L-44,26 L-40,26 L-40,24 L-28,24 L-28,22 L-22,22 L-22,20 L-20,20 L-20,14 L-24,14 L-24,6 L-20,6 L-20,4 L-12,4 L-12,2 L0,2 Z " fill="#4C2D98" transform="translate(502,316)"/>
<path d="M0,0 L12,0 L12,5 L28,5 L28,7 L22,8 L10,7 L7,9 L6,6 L4,6 L4,3 L1,3 L0,6 L-2,6 L-3,9 L-8,12 L-12,13 L-19,13 L-22,14 L-23,18 L-18,17 L-11,18 L-11,20 L-2,18 L1,18 L4,17 L6,18 L14,18 L10,22 L5,23 L4,25 L2,25 L2,23 L0,23 L0,21 L-6,23 L-9,22 L-10,24 L-10,22 L-16,26 L-20,27 L-25,29 L-30,28 L-46,29 L-48,28 L-48,25 L-56,28 L-60,27 L-63,28 L-67,26 L-71,28 L-75,27 L-75,25 L-80,25 L-80,23 L-83,23 L-84,21 L-100,21 L-107,20 L-110,18 L-111,9 L-98,9 L-86,10 L-86,12 L-82,12 L-82,14 L-68,14 L-68,12 L-64,12 L-64,10 L-54,10 L-52,13 L-44,14 L-44,16 L-40,16 L-40,14 L-28,14 L-28,12 L-26,12 L-26,10 L-20,10 L-20,8 L-8,8 L-8,6 L-4,6 L-4,2 L0,2 Z M-29,25 L-30,27 L-28,27 Z " fill="#201150" transform="translate(530,772)"/>
<path d="M0,0 L18,0 L18,2 L22,2 L22,4 L30,4 L30,8 L50,8 L50,18 L48,18 L48,20 L40,20 L40,16 L36,16 L36,20 L34,20 L34,28 L28,28 L28,24 L24,24 L24,22 L20,22 L20,26 L18,26 L18,28 L12,28 L12,30 L10,30 L10,32 L8,32 L8,36 L10,36 L10,42 L6,42 L6,48 L0,48 L0,30 L-4,30 L-4,26 L-6,26 L-6,14 L-4,14 L-4,10 L-2,10 L-2,6 L0,6 Z " fill="#1D0C3C" transform="translate(214,370)"/>
<path d="M0,0 L6,0 L6,4 L10,4 L11,2 L11,5 L13,5 L15,9 L13,9 L13,14 L9,12 L9,10 L7,10 L6,16 L3,21 L2,31 L1,33 L1,43 L4,53 L8,54 L12,53 L18,57 L21,61 L19,65 L19,71 L20,73 L21,68 L24,69 L25,82 L28,82 L31,89 L31,97 L32,103 L31,111 L37,110 L43,108 L44,106 L52,106 L52,109 L60,109 L60,114 L56,115 L62,120 L71,122 L75,124 L75,126 L79,127 L81,137 L84,138 L84,142 L79,143 L79,141 L81,140 L78,139 L79,134 L77,134 L76,130 L70,128 L70,126 L62,126 L62,124 L58,124 L58,122 L53,121 L50,118 L50,116 L40,116 L40,114 L38,114 L38,116 L30,116 L26,112 L26,108 L24,108 L24,100 L26,100 L26,96 L24,96 L24,92 L22,92 L22,88 L20,88 L20,84 L18,84 L18,80 L16,80 L16,74 L14,74 L14,58 L8,58 L8,60 L2,60 L0,55 L-2,54 L-2,46 L-4,46 L-4,30 L-2,30 L-2,18 L1,15 L2,12 L0,12 Z " fill="#4C3394" transform="translate(308,502)"/>
<path d="M0,0 L30,0 L30,2 L58,2 L58,4 L86,4 L88,7 L92,8 L92,10 L94,10 L94,16 L92,16 L92,20 L90,20 L90,24 L94,24 L96,27 L110,28 L110,30 L112,30 L112,34 L114,34 L114,36 L116,36 L116,42 L118,42 L118,60 L120,60 L120,70 L122,70 L122,92 L124,92 L124,98 L126,98 L126,114 L125,114 L125,99 L123,99 L123,108 L122,108 L122,98 L123,93 L121,93 L121,98 L118,94 L117,72 L116,71 L116,61 L114,61 L113,47 L110,45 L111,37 L109,37 L106,33 L98,34 L93,33 L93,29 L90,28 L86,24 L87,17 L89,16 L89,19 L91,19 L88,10 L80,9 L63,9 L59,9 L55,8 L55,6 L28,6 L24,8 L22,7 L22,5 L17,6 L16,7 L4,7 L2,6 L-11,5 L-11,3 L0,3 Z M57,6 Z M54,8 Z M112,50 Z M112,54 Z " fill="#4C308F" transform="translate(514,314)"/>
<path d="M0,0 L6,0 L6,2 L10,2 L10,4 L14,4 L14,10 L10,10 L10,14 L8,14 L8,16 L-8,16 L-8,14 L-32,14 L-32,12 L-40,12 L-40,14 L-52,14 L-52,18 L-54,18 L-54,20 L-64,20 L-64,18 L-68,18 L-68,16 L-72,16 L-72,8 L-70,8 L-70,6 L-62,6 L-62,12 L-52,12 L-52,8 L-48,8 L-48,4 L-34,4 L-34,2 L-28,2 L-28,4 L-16,4 L-16,2 L0,2 Z " fill="#1F0D3E" transform="translate(526,194)"/>
<path d="M0,0 L5,0 L6,2 L10,2 L10,5 L12,5 L12,3 L17,1 L18,4 L22,3 L26,4 L29,1 L32,2 L29,7 L28,11 L21,14 L18,15 L9,16 L8,17 L-4,17 L-6,17 L-13,18 L-12,15 L-18,17 L-19,16 L-21,18 L-28,19 L-33,18 L-37,19 L-37,17 L-41,16 L-44,17 L-46,12 L-48,12 L-47,9 L-41,10 L-39,8 L-36,9 L-35,5 L-28,3 L-25,4 L-22,3 L-22,5 L-20,5 L-20,3 L-18,3 L-18,5 L-16,5 L-16,3 L-14,3 L-14,5 L-12,5 L-12,3 L-10,3 L-10,5 L-4,4 L0,4 Z M-30,5 Z M-31,6 L-32,9 L-30,9 Z M-7,3 Z M29,6 Z " fill="#4D2FB0" transform="translate(456,368)"/>
<path d="M0,0 L6,0 L6,1 L1,1 L1,3 L5,4 L3,11 L5,10 L12,10 L12,12 L23,12 L23,10 L32,11 L32,13 L38,12 L41,14 L44,13 L44,17 L46,18 L47,20 L57,20 L59,21 L59,24 L62,27 L62,35 L63,40 L72,40 L76,41 L76,45 L80,43 L84,43 L84,41 L95,41 L103,44 L103,47 L107,46 L114,46 L114,44 L128,45 L128,47 L132,48 L128,48 L128,50 L122,50 L122,52 L106,52 L106,48 L102,48 L102,50 L90,50 L90,48 L84,48 L84,50 L74,50 L74,48 L66,48 L66,46 L62,46 L62,44 L58,44 L58,28 L56,28 L56,24 L46,24 L46,22 L42,22 L42,20 L38,20 L38,18 L28,18 L28,16 L10,16 L10,14 L6,14 L6,12 L2,12 L2,10 L-2,10 L-2,2 L0,2 Z M46,16 Z " fill="#120932" transform="translate(356,780)"/>
<path d="M0,0 L1,0 L2,8 L-1,12 L0,16 L1,18 L-1,24 L-1,25 L-6,25 L-6,27 L0,27 L0,28 L-6,28 L-6,30 L-8,30 L-8,32 L-10,32 L-10,34 L-12,34 L-12,36 L-16,36 L-16,38 L-18,38 L-18,50 L-20,50 L-20,52 L-22,52 L-22,54 L-26,54 L-26,56 L-36,56 L-36,42 L-34,42 L-34,40 L-32,40 L-32,38 L-30,38 L-29,33 L-26,32 L-26,30 L-24,30 L-24,20 L-20,20 L-20,18 L-10,18 L-10,16 L-8,16 L-8,6 L-4,6 L-4,4 L0,4 Z " fill="#180933" transform="translate(362,214)"/>
<path d="M0,0 L6,0 L6,14 L4,14 L4,16 L0,16 L0,20 L-4,20 L-4,22 L-8,22 L-8,24 L-14,24 L-14,22 L-19,24 L-20,26 L-26,26 L-26,24 L-28,24 L-28,26 L-38,26 L-38,12 L-36,12 L-36,8 L-30,8 L-30,6 L-22,6 L-22,8 L-18,8 L-18,6 L-6,6 L-6,4 L-4,4 L-4,2 L0,2 Z " fill="#120B35" transform="translate(720,716)"/>
<path d="M0,0 L6,0 L6,2 L12,2 L12,6 L28,6 L28,8 L32,8 L32,12 L34,12 L34,18 L30,18 L30,20 L22,20 L22,18 L20,18 L20,16 L18,16 L18,18 L16,18 L16,22 L-6,22 L-6,20 L-12,20 L-12,6 L-8,6 L-8,4 L-4,4 L-4,2 L0,2 Z " fill="#130B38" transform="translate(714,690)"/>
<path d="M0,0 L13,0 L25,1 L25,3 L29,3 L29,5 L43,5 L43,6 L29,6 L29,8 L37,8 L37,12 L45,12 L45,14 L49,15 L51,16 L52,12 L57,13 L58,15 L59,14 L70,14 L73,16 L79,16 L85,15 L85,13 L94,10 L100,9 L100,11 L109,9 L112,9 L115,8 L117,9 L125,9 L121,13 L116,14 L115,16 L113,16 L113,14 L111,14 L111,12 L105,14 L102,13 L101,15 L101,13 L95,17 L91,18 L86,20 L81,19 L65,20 L63,19 L63,16 L55,19 L51,18 L48,19 L44,17 L40,19 L36,18 L36,16 L31,16 L31,14 L28,14 L27,12 L11,12 L4,11 L1,9 Z M82,16 L81,18 L83,18 Z " fill="#1C0F4B" transform="translate(419,781)"/>
<path d="M0,0 L4,2 L2,2 L2,4 L8,4 L8,10 L4,10 L4,12 L-2,12 L-2,14 L-4,14 L-4,16 L-10,16 L-10,18 L-18,18 L-18,20 L-34,20 L-34,22 L-38,22 L-38,24 L-42,24 L-42,26 L-46,26 L-46,30 L-50,30 L-50,34 L-46,34 L-46,42 L-48,42 L-48,44 L-52,44 L-52,46 L-70,46 L-70,48 L-78,48 L-78,50 L-94,50 L-94,52 L-126,52 L-126,51 L-114,50 L-114,48 L-98,47 L-93,45 L-78,46 L-77,43 L-71,44 L-66,45 L-66,43 L-70,42 L-52,42 L-49,35 L-51,35 L-51,33 L-53,33 L-52,28 L-49,29 L-49,23 L-52,21 L-52,19 L-44,16 L-40,12 L-35,13 L-32,15 L-31,12 L-24,13 L-24,15 L-19,13 L-11,12 L-4,12 L-3,11 L-2,2 Z " fill="#0F072C" transform="translate(614,778)"/>
<path d="M0,0 L3,1 L1,5 L-1,6 L-2,14 L0,17 L1,24 L-1,26 L-2,36 L-5,46 L-3,45 L-3,55 L-5,55 L-6,62 L-4,62 L-4,60 L-2,60 L0,56 L-1,61 L-1,64 L-3,70 L-2,80 L-3,88 L2,88 L0,100 L0,102 L0,105 L-3,109 L-5,123 L-6,119 L-8,120 L-8,130 L-7,135 L-8,140 L-11,140 L-11,108 L-10,100 L-11,96 L-10,86 L-10,66 L-9,64 L-8,46 L-7,33 L-6,31 L-5,9 L-3,4 L0,4 Z M-2,103 Z " fill="#5339A7" transform="translate(339,404)"/>
<path d="M0,0 L6,0 L8,5 L11,5 L11,17 L6,26 L3,29 L0,27 L0,29 L-11,29 L-11,27 L-9,26 L-9,24 L-12,25 L-12,27 L-14,27 L-15,25 L-17,25 L-17,27 L-15,27 L-15,29 L-18,30 L-19,32 L-23,33 L-26,34 L-30,34 L-30,32 L-33,32 L-34,34 L-35,29 L-32,28 L-32,18 L-26,18 L-26,28 L-23,26 L-20,26 L-20,24 L-18,24 L-18,22 L-16,22 L-16,16 L-14,16 L-14,12 L-12,12 L-12,10 L-8,10 L-8,6 L-4,6 L-2,2 L0,2 Z M-26,31 Z " fill="#1B0D44" transform="translate(594,744)"/>
<path d="M0,0 L8,0 L8,2 L32,2 L32,0 L40,0 L40,1 L33,1 L33,3 L39,4 L48,9 L50,11 L50,16 L45,17 L44,19 L38,21 L38,17 L34,19 L34,17 L26,17 L26,15 L17,14 L17,16 L6,16 L6,14 L-3,15 L-2,8 L-5,7 L-5,5 L0,5 Z " fill="#130A38" transform="translate(362,776)"/>
<path d="M0,0 L30,0 L30,1 L1,1 L1,3 L30,3 L30,4 L21,5 L19,8 L14,8 L13,7 L3,7 L-4,8 L-6,10 L-12,11 L-12,9 L-17,10 L-24,9 L-29,9 L-31,11 L-31,30 L-32,33 L-41,34 L-42,35 L-53,35 L-60,34 L-66,35 L-67,31 L-69,31 L-68,36 L-72,36 L-72,34 L-70,34 L-70,30 L-66,30 L-66,28 L-64,28 L-64,26 L-56,26 L-56,24 L-50,24 L-50,26 L-40,26 L-40,24 L-38,24 L-38,12 L-36,12 L-35,7 L-32,6 L-32,4 L-16,4 L-16,6 L-14,6 L-14,4 L-6,4 L-6,2 L0,2 Z " fill="#412993" transform="translate(428,344)"/>
<path d="M0,0 L7,0 L8,2 L15,3 L15,6 L20,4 L20,8 L14,8 L15,12 L17,12 L18,17 L17,18 L16,32 L13,36 L13,34 L11,34 L10,32 L10,16 L3,14 L1,15 L1,12 L-7,14 L-9,13 L-9,11 L-17,13 L-26,13 L-31,14 L-35,14 L-47,14 L-47,12 L-35,12 L-35,3 L-33,2 L-33,7 L-31,7 L-31,4 L-27,5 L-26,1 L-18,1 L-19,6 L-16,5 L-15,1 L-7,1 L-8,4 L-3,4 L-2,1 Z " fill="#5436AC" transform="translate(587,339)"/>
<path d="M0,0 L2,0 L2,2 L21,2 L20,6 L26,6 L27,8 L24,8 L25,13 L20,12 L20,10 L18,10 L18,13 L12,14 L9,14 L8,17 L4,19 L2,16 L2,13 L-1,14 L-18,14 L-23,13 L-28,16 L-30,16 L-30,14 L-34,14 L-34,10 L-40,12 L-42,8 L-45,7 L-38,6 L-38,8 L-33,8 L-33,6 L-30,4 L-25,4 L-24,1 L-13,2 L-8,3 L0,2 Z " fill="#603CCF" transform="translate(540,399)"/>
<path d="M0,0 L6,0 L6,6 L10,6 L10,8 L12,8 L12,14 L10,14 L10,18 L4,18 L4,20 L6,20 L6,24 L8,24 L8,26 L12,26 L12,38 L10,38 L10,46 L4,46 L4,44 L-2,44 L-2,42 L-6,42 L-6,34 L-4,34 L-4,28 L-2,28 L-4,21 L-6,20 L-6,12 L-2,12 L-2,4 L0,4 Z " fill="#180B35" transform="translate(272,692)"/>
<path d="M0,0 L8,0 L8,14 L6,14 L6,28 L8,28 L8,34 L6,34 L6,36 L0,36 L0,42 L-12,42 L-12,26 L-8,26 L-8,24 L-6,24 L-6,22 L-4,22 L-4,2 L0,2 Z " fill="#180B34" transform="translate(250,320)"/>
<path d="M0,0 L2,0 L2,7 L4,8 L3,15 L3,21 L2,23 L2,34 L3,45 L3,52 L5,57 L2,64 L0,68 L2,68 L3,77 L2,83 L0,79 L0,73 L-1,69 L-5,73 L-5,82 L-8,84 L-8,66 L-6,53 L-5,52 L-4,37 L-6,37 L-7,27 L-5,24 L-5,17 L-7,17 L-6,7 L-3,4 L0,7 Z " fill="#6041C2" transform="translate(605,408)"/>
<path d="M0,0 L3,0 L4,5 L6,5 L7,24 L11,32 L11,39 L13,39 L13,49 L10,51 L7,60 L12,59 L13,62 L14,77 L12,79 L11,69 L9,70 L8,83 L6,90 L4,90 L4,81 L3,73 L0,72 L1,65 L3,62 L4,37 L1,21 L1,13 L2,9 Z " fill="#593DAE" transform="translate(626,408)"/>
<path d="M0,0 L2,0 L3,3 L13,2 L16,3 L27,3 L32,1 L37,2 L37,0 L39,0 L39,2 L44,1 L46,2 L46,8 L50,10 L43,12 L41,13 L40,9 L34,8 L33,22 L29,21 L29,8 L22,10 L21,13 L16,12 L16,10 L9,11 L6,9 L5,11 L5,17 L3,17 L1,11 L-3,14 L-3,8 L-8,8 L-8,6 L0,4 Z M2,9 Z M3,11 Z " fill="#4A32A6" transform="translate(359,375)"/>
<path d="M0,0 L1,0 L1,5 L3,5 L4,15 L5,16 L6,37 L10,37 L10,43 L12,43 L12,58 L15,58 L16,65 L19,65 L19,67 L13,69 L14,74 L13,77 L10,77 L8,68 L5,62 L5,43 L3,43 L2,38 L-1,38 L0,32 L-2,31 L-1,30 L0,22 L-2,22 L-1,12 L1,6 L-1,5 Z " fill="#5439A0" transform="translate(627,370)"/>
<path d="M0,0 L0,3 L-1,5 L4,7 L7,9 L7,7 L13,7 L13,9 L19,8 L19,3 L21,3 L21,6 L25,5 L25,10 L21,11 L19,11 L13,11 L11,15 L7,16 L5,15 L5,18 L-9,19 L-10,16 L-16,17 L-16,14 L-23,15 L-19,9 L-19,8 L-13,6 L-11,2 L-7,1 L-7,3 L-5,3 L-5,1 L-1,1 Z " fill="#5131A9" transform="translate(497,338)"/>
<path d="M0,0 L14,0 L14,2 L18,2 L18,14 L16,14 L16,18 L12,18 L12,20 L2,20 L2,18 L-4,18 L-4,2 L0,2 Z " fill="#180A32" transform="translate(270,316)"/>
<path d="M0,0 L6,0 L6,1 L1,1 L1,3 L5,4 L3,11 L5,10 L12,10 L12,12 L23,12 L23,10 L32,11 L32,13 L38,12 L41,14 L44,13 L44,17 L46,18 L47,20 L57,20 L59,21 L59,24 L62,27 L61,31 L61,28 L59,28 L59,43 L62,44 L58,44 L58,28 L56,28 L56,24 L46,24 L46,22 L42,22 L42,20 L38,20 L38,18 L28,18 L28,16 L10,16 L10,14 L6,14 L6,12 L2,12 L2,10 L-2,10 L-2,2 L0,2 Z M46,16 Z " fill="#0F062E" transform="translate(356,780)"/>
<path d="M0,0 L6,0 L6,1 L1,1 L1,3 L6,3 L4,5 L0,5 L-1,8 L-7,8 L-9,12 L-9,19 L-7,21 L-10,24 L-11,28 L-14,28 L-16,46 L-19,46 L-20,50 L-20,46 L-22,46 L-22,30 L-20,30 L-20,24 L-18,24 L-18,22 L-16,22 L-16,14 L-14,14 L-14,4 L-12,4 L-12,2 L0,2 Z " fill="#51389E" transform="translate(350,380)"/>
<path d="M0,0 L7,0 L8,2 L15,3 L15,6 L20,4 L20,8 L14,8 L15,12 L17,12 L17,14 L12,13 L10,12 L10,9 L8,9 L7,7 L-3,7 L-15,8 L-15,10 L-24,10 L-35,9 L-35,3 L-33,2 L-33,7 L-31,7 L-31,4 L-27,5 L-26,1 L-18,1 L-19,6 L-16,5 L-15,1 L-7,1 L-8,4 L-3,4 L-2,1 Z " fill="#5335A4" transform="translate(587,339)"/>
<path d="M0,0 L5,0 L4,4 L2,4 L2,7 L-6,8 L-10,9 L-12,9 L-16,9 L-16,12 L-18,12 L-19,10 L-24,15 L-33,15 L-33,13 L-42,15 L-44,17 L-46,12 L-48,12 L-47,9 L-41,10 L-39,8 L-36,9 L-35,5 L-28,3 L-25,4 L-22,3 L-22,5 L-20,5 L-20,3 L-18,3 L-18,5 L-16,5 L-16,3 L-14,3 L-14,5 L-12,5 L-12,3 L-10,3 L-10,5 L-4,4 L0,4 Z M-30,5 Z M0,5 Z M-31,6 L-32,9 L-30,9 Z M-7,3 Z " fill="#4A2EAA" transform="translate(456,368)"/>
<path d="M0,0 L1,4 L3,4 L3,6 L5,6 L5,12 L7,12 L7,30 L9,30 L9,40 L11,40 L11,62 L13,62 L13,68 L15,68 L15,84 L14,84 L14,69 L12,69 L12,78 L11,78 L11,68 L12,63 L10,63 L10,68 L7,64 L6,42 L5,41 L5,31 L3,31 L2,17 L0,16 L1,6 L-1,6 Z M1,20 Z M1,24 Z " fill="#4A3290" transform="translate(625,344)"/>
<path d="M0,0 L3,1 L1,5 L-1,6 L-2,14 L0,17 L1,24 L-1,26 L-2,36 L-5,46 L-3,45 L-3,55 L-5,55 L-6,63 L-7,94 L-9,100 L-11,96 L-10,86 L-10,66 L-9,64 L-8,46 L-7,33 L-6,31 L-5,9 L-3,4 L0,4 Z " fill="#5238A3" transform="translate(339,404)"/>
<path d="M0,0 L4,2 L2,2 L2,4 L4,4 L4,10 L2,10 L2,14 L-4,14 L-4,16 L-20,16 L-20,18 L-28,18 L-28,20 L-32,20 L-32,22 L-34,23 L-52,23 L-52,21 L-38,20 L-37,16 L-38,14 L-30,13 L-29,12 L-12,11 L-5,12 L-4,8 L-2,8 L-1,4 L1,4 Z " fill="#51349D" transform="translate(604,658)"/>
<path d="M0,0 L10,0 L10,2 L12,2 L12,24 L10,24 L10,26 L12,26 L12,32 L6,32 L6,30 L4,30 L4,24 L6,24 L6,16 L0,16 L0,8 L2,8 L2,6 L0,6 Z " fill="#140A2E" transform="translate(770,406)"/>
<path d="M0,0 L19,0 L19,9 L18,11 L10,11 L10,7 L6,7 L6,11 L4,11 L4,19 L-2,19 L-2,14 L-5,14 L-4,5 L-2,5 Z " fill="#240F46" transform="translate(244,379)"/>
<path d="M0,0 L6,0 L6,3 L17,3 L17,1 L21,3 L19,5 L24,6 L24,9 L15,10 L14,11 L3,11 L-4,10 L-10,11 L-11,7 L-13,7 L-12,12 L-16,12 L-16,10 L-14,10 L-14,6 L-10,6 L-10,4 L-8,4 L-8,2 L0,2 Z M21,1 Z " fill="#48309E" transform="translate(372,368)"/>
<path d="M0,0 L3,1 L2,5 L2,9 L4,9 L4,30 L-3,38 L-4,45 L-5,45 L-6,31 L-12,33 L-11,29 L-7,28 L-6,24 L-5,21 L-6,18 L-3,11 L-1,10 Z " fill="#6340D3" transform="translate(573,438)"/>
<path d="M0,0 L2,0 L2,2 L21,2 L20,7 L-4,9 L-8,10 L-12,10 L-20,8 L-27,8 L-27,5 L-30,4 L-25,4 L-24,1 L-13,2 L-8,3 L0,2 Z " fill="#5F3DC6" transform="translate(540,399)"/>
<path d="M0,0 L18,0 L18,2 L22,2 L22,4 L30,4 L29,8 L29,5 L16,7 L11,6 L7,5 L3,10 L2,16 L-1,16 L0,27 L-3,27 L-3,29 L0,30 L-4,30 L-4,26 L-6,26 L-6,14 L-4,14 L-4,10 L-2,10 L-2,6 L0,6 Z M14,4 Z " fill="#14072C" transform="translate(214,370)"/>
<path d="M0,0 L3,1 L2,4 L5,3 L4,18 L2,18 L2,20 L0,20 L0,22 L-4,23 L-13,23 L-13,11 L-11,11 L-10,13 L-9,11 L-7,11 L-7,9 L-5,9 L-3,5 Z " fill="#180B35" transform="translate(340,246)"/>
<path d="M0,0 L3,1 L0,6 L-1,10 L-8,13 L-11,14 L-20,15 L-21,16 L-33,16 L-35,16 L-42,17 L-41,14 L-35,14 L-35,12 L-30,11 L-19,10 L-19,8 L-12,5 L-9,2 L-3,3 Z M0,5 Z " fill="#5132B6" transform="translate(485,369)"/>
<path d="M0,0 L8,0 L8,2 L14,2 L14,4 L16,4 L16,10 L14,10 L14,12 L12,12 L12,16 L0,16 L0,14 L-2,14 L-2,4 L0,4 Z " fill="#160B34" transform="translate(302,282)"/>
<path d="M0,0 L2,2 L2,5 L0,6 L-1,18 L-3,18 L-3,28 L-7,28 L-7,32 L-15,32 L-15,34 L-19,34 L-19,40 L-21,40 L-22,42 L-23,39 L-20,39 L-22,30 L-19,22 L-14,22 L-15,27 L-8,24 L-7,17 L-6,16 L-5,8 L-3,8 L-4,1 Z M-18,23 Z " fill="#4E358D" transform="translate(659,586)"/>
<path d="M0,0 L1,4 L-1,4 L-1,6 L-5,6 L-5,10 L-7,10 L-7,12 L-13,12 L-13,14 L-15,14 L-15,16 L-17,16 L-17,18 L-19,18 L-19,24 L-21,24 L-21,26 L-23,26 L-23,28 L-35,28 L-35,14 L-34,14 L-34,27 L-24,27 L-24,25 L-32,25 L-32,14 L-30,18 L-31,24 L-24,23 L-23,18 L-22,15 L-20,15 L-18,11 L-17,7 L-15,7 L-14,5 L-10,6 L-10,4 L-6,3 L-6,5 L-4,4 L-5,2 L0,3 Z " fill="#472F93" transform="translate(521,702)"/>
<path d="M0,0 Z M-20,1 L-16,1 L-16,3 L-10,2 L-8,3 L-8,5 L-6,5 L-6,3 L0,1 L1,6 L-4,11 L-8,10 L-6,7 L-10,8 L-14,12 L-18,10 L-18,7 L-27,8 L-28,6 L-49,5 L-49,3 L-20,3 Z " fill="#492BA0" transform="translate(478,342)"/>
<path d="M0,0 L2,0 L2,6 L3,7 L3,20 L2,22 L4,22 L6,18 L12,17 L12,22 L7,22 L7,25 L-1,25 L-1,15 L-5,15 L-5,13 L-7,13 L-7,3 L0,3 Z " fill="#220F46" transform="translate(713,283)"/>
<path d="M0,0 L4,1 L5,7 L4,15 L10,14 L15,13 L23,16 L23,17 L14,17 L14,19 L25,18 L25,20 L28,21 L26,25 L23,22 L23,20 L13,20 L13,18 L11,18 L11,20 L3,20 L-1,16 L-1,12 L-3,12 L-3,4 L0,4 Z " fill="#493396" transform="translate(335,598)"/>
<path d="M0,0 L4,1 L1,1 L2,10 L3,15 L-2,16 L-2,14 L-4,13 L-4,15 L-12,16 L-12,18 L-15,18 L-14,27 L-17,32 L-19,35 L-21,35 L-21,37 L-23,37 L-24,40 L-25,37 L-27,37 L-27,49 L-18,49 L-18,50 L-28,50 L-28,36 L-26,36 L-26,34 L-24,34 L-24,32 L-22,32 L-21,27 L-18,26 L-18,24 L-16,24 L-16,14 L-12,14 L-12,12 L-2,12 L-2,10 L0,10 Z " fill="#13072C" transform="translate(354,220)"/>
<path d="M0,0 L6,0 L6,2 L10,2 L10,12 L8,12 L8,14 L10,14 L10,20 L2,20 L2,18 L0,18 Z " fill="#150A30" transform="translate(242,666)"/>
<path d="M0,0 L6,0 L6,2 L14,2 L14,4 L24,4 L23,8 L23,5 L21,5 L21,8 L13,8 L12,7 L2,6 L-2,9 L-7,14 L-9,14 L-9,9 L-11,9 L-11,19 L-4,19 L-4,20 L-12,20 L-12,8 L-8,8 L-6,4 L-2,4 L-2,2 L0,2 Z " fill="#1A0B33" transform="translate(366,194)"/>
<path d="M0,0 L4,1 L2,4 L6,4 L5,8 L8,7 L15,7 L17,3 L24,3 L24,7 L17,7 L17,10 L9,10 L9,12 L1,12 L1,16 L-5,16 L-5,13 L-11,13 L-11,11 L-4,10 L-1,2 Z " fill="#200E3F" transform="translate(367,228)"/>
<path d="M0,0 L1,0 L1,26 L3,27 L2,57 L0,57 L0,65 L-1,65 L-1,57 L-3,57 L-3,66 L-1,66 L-1,69 L-3,69 L-3,67 L-7,68 L-6,66 L-4,66 L-4,56 L-2,56 L-2,26 L0,26 Z " fill="#4B338D" transform="translate(326,436)"/>
<path d="M0,0 L16,0 L16,2 L20,2 L20,6 L22,6 L22,12 L18,12 L18,14 L10,14 L10,12 L8,12 L8,10 L6,10 L5,12 L4,8 L6,8 L6,3 L15,3 L15,1 L0,1 Z " fill="#110B30" transform="translate(726,696)"/>
<path d="M0,0 L2,0 L2,16 L4,16 L4,31 L2,32 L2,65 L0,65 L-1,32 L-2,22 Z " fill="#5338A1" transform="translate(665,516)"/>
<path d="M0,0 L1,0 L1,5 L3,5 L4,15 L5,16 L5,32 L4,43 L2,40 L2,38 L-1,38 L0,32 L-2,31 L-1,30 L0,22 L-2,22 L-1,12 L1,6 L-1,5 Z " fill="#5034A3" transform="translate(627,370)"/>
<path d="M0,0 L6,0 L6,14 L4,14 L4,16 L0,16 L0,20 L-4,20 L-4,22 L-8,22 L-8,24 L-14,24 L-14,22 L-19,24 L-20,26 L-26,26 L-26,24 L-28,23 L-26,23 L-26,21 L-24,21 L-25,25 L-22,25 L-21,21 L-17,20 L-17,16 L-6,17 L-6,15 L-1,14 L1,15 L2,10 L4,12 L5,1 L0,1 Z " fill="#0E072C" transform="translate(720,716)"/>
<path d="M0,0 L18,0 L18,2 L22,2 L22,8 L28,8 L28,4 L36,4 L36,8 L38,8 L38,44 L42,44 L42,60 L41,60 L41,45 L37,45 L37,9 L35,9 L34,13 L34,7 L35,5 L29,5 L29,9 L22,10 L19,11 L16,9 L16,7 L13,6 L12,3 L17,3 L17,1 L1,1 L0,4 Z " fill="#100625" transform="translate(710,254)"/>
<path d="M0,0 L5,1 L8,3 L9,0 L16,1 L16,2 L9,4 L21,5 L21,7 L6,7 L6,9 L1,9 L1,11 L-9,11 L-12,9 L-12,7 L-4,4 Z " fill="#120834" transform="translate(574,790)"/>
<path d="M0,0 L5,0 L3,12 L3,14 L3,17 L0,21 L-2,35 L-3,31 L-5,31 L-5,20 L-4,10 L-2,10 L-2,4 Z M1,15 Z " fill="#5538AE" transform="translate(336,492)"/>
<path d="M0,0 L2,0 L2,13 L5,13 L5,17 L7,17 L7,25 L3,25 L3,39 L2,39 L1,19 L-4,19 L-5,18 L-5,13 L-1,8 L-1,5 Z " fill="#180A33" transform="translate(749,301)"/>
<path d="M0,0 L6,0 L6,6 L10,6 L10,8 L12,8 L12,14 L9,14 L9,17 L3,17 L3,15 L1,14 L1,12 L-1,12 L-1,4 Z " fill="#1B0E3E" transform="translate(272,692)"/>
<path d="M0,0 L1,3 L4,3 L4,26 L2,29 L3,34 L0,38 L-2,29 L0,29 L-1,22 L-1,3 Z " fill="#5235A5" transform="translate(658,523)"/>
<path d="M0,0 L1,0 L1,18 L-4,18 L-4,27 L-2,27 L-2,33 L-8,33 L-8,29 L-10,29 L-10,17 L-3,17 L-3,13 L-1,13 L-1,1 Z " fill="#190D37" transform="translate(754,373)"/>
<path d="M0,0 L6,0 L6,1 L1,1 L1,3 L6,3 L4,5 L0,5 L-1,8 L-7,8 L-11,18 L-13,20 L-13,15 L-15,15 L-15,22 L-16,22 L-16,14 L-14,14 L-14,4 L-12,4 L-12,2 L0,2 Z " fill="#493196" transform="translate(350,380)"/>
<path d="M0,0 L7,0 L7,2 L9,3 L7,3 L7,5 L14,4 L25,4 L26,8 L25,19 L33,19 L33,21 L23,21 L23,8 L14,8 L14,6 L6,6 L6,4 L4,5 L-5,5 L-4,1 Z " fill="#462E92" transform="translate(464,708)"/>
<path d="M0,0 L6,0 L6,4 L10,4 L11,2 L11,5 L13,5 L15,9 L13,9 L13,14 L9,12 L9,10 L7,10 L6,16 L3,16 L2,13 L0,12 Z " fill="#4A308C" transform="translate(308,502)"/>
<path d="M0,0 L14,2 L14,4 L-1,4 L-1,7 L-33,7 L-33,6 L-21,5 L-21,3 L-5,2 Z " fill="#13092E" transform="translate(521,823)"/>
<path d="M0,0 L1,3 L3,3 L4,1 L4,3 L6,3 L7,7 L6,15 L8,17 L8,20 L12,22 L14,23 L13,29 L22,29 L22,30 L12,30 L12,26 L8,26 L8,24 L6,24 L4,19 L0,16 L0,8 L2,8 L2,4 L0,4 Z " fill="#442E8E" transform="translate(446,684)"/>
<path d="M0,0 L5,1 L5,7 L9,9 L2,11 L0,12 L-1,8 L-7,7 L-8,21 L-12,20 L-12,8 L-6,3 L0,2 Z " fill="#4B2FAA" transform="translate(400,376)"/>
<path d="M0,0 L1,0 L1,16 L-1,16 L-1,50 L-3,50 L-3,54 L-5,54 L-5,56 L-7,56 L-7,60 L-9,60 L-10,62 L-11,59 L-8,59 L-10,55 L-11,52 L-8,49 L-5,49 L-5,32 L-4,32 L-4,49 L-2,49 L-3,16 L-3,1 L-2,1 L-2,15 L0,15 Z " fill="#452E86" transform="translate(669,532)"/>
<path d="M0,0 L3,0 L3,2 L1,3 L1,14 L-2,14 L-2,17 L-6,17 L-6,19 L-12,19 L-12,17 L-17,17 L-17,20 L-21,18 L-18,13 L-16,13 L-16,11 L-14,11 L-14,13 L-8,14 L-3,9 L-2,1 Z " fill="#4E329C" transform="translate(538,685)"/>
<path d="M0,0 L28,0 L30,2 L34,3 L35,10 L31,10 L30,5 L22,4 L5,4 L1,4 L-1,2 Z " fill="#50339C" transform="translate(572,319)"/>
<path d="M0,0 L1,2 L3,2 L6,6 L9,5 L9,9 L11,9 L11,11 L14,11 L14,13 L8,15 L9,20 L8,23 L5,23 L3,14 L0,8 Z " fill="#573DA1" transform="translate(632,424)"/>
<path d="M0,0 L3,1 L3,5 L5,5 L4,10 L9,11 L5,12 L5,14 L11,13 L20,16 L24,18 L17,18 L17,20 L30,19 L30,20 L25,20 L25,22 L30,22 L30,23 L24,23 L24,21 L16,21 L16,19 L10,19 L8,15 L4,15 L0,11 L0,5 L2,5 Z " fill="#412D88" transform="translate(382,631)"/>
<path d="M0,0 L6,0 L6,2 L8,2 L8,8 L12,8 L12,16 L6,16 L6,12 L2,12 L2,6 L0,6 Z " fill="#1A0E3B" transform="translate(770,470)"/>
<path d="M0,0 L8,0 L8,8 L4,8 L4,10 L-8,10 L-8,4 L0,4 Z " fill="#200D38" transform="translate(414,202)"/>
<path d="M0,0 L6,1 L8,6 L10,6 L10,9 L15,8 L15,12 L17,12 L17,14 L19,15 L16,17 L15,26 L13,26 L13,13 L8,13 L8,9 L6,9 L6,6 L1,6 L0,4 L-7,4 L-7,2 L0,2 Z M9,9 L9,12 L11,12 L10,9 Z " fill="#4B359B" transform="translate(406,647)"/>
<path d="M0,0 L30,0 L30,1 L1,1 L1,3 L30,3 L30,4 L21,5 L19,8 L14,8 L13,7 L4,6 L0,5 L0,3 L-6,3 L-6,2 L0,2 Z " fill="#40278E" transform="translate(428,344)"/>
<path d="M0,0 L6,0 L6,2 L10,2 L9,4 L0,6 L-16,7 L-16,5 L-28,5 L-28,4 L-16,4 L-16,2 L0,2 Z M-17,7 Z " fill="#1A0D39" transform="translate(526,194)"/>
<path d="M0,0 L2,0 L2,16 L1,33 L-5,36 L-4,29 L-3,25 Z " fill="#4F349C" transform="translate(663,548)"/>
<path d="M0,0 L6,2 L5,6 L14,7 L14,8 L2,9 L-5,11 L-5,8 L-12,9 L-8,3 L-8,2 L-1,1 Z " fill="#4E2FA9" transform="translate(486,344)"/>
<path d="M0,0 L9,1 L11,2 L6,5 L2,6 L1,8 L-1,8 L-1,6 L-3,6 L-3,4 L-9,6 L-12,5 L-13,7 L-13,5 L-19,9 L-22,9 L-22,6 L-19,4 L-12,3 L-8,1 L-3,2 Z M-27,9 L-23,10 L-28,12 L-29,10 Z " fill="#1B0B45" transform="translate(533,789)"/>
<path d="M0,0 L2,2 L2,8 L0,9 L0,11 L-2,11 L-2,24 L-4,24 L-5,17 L-8,17 L-7,9 L-5,2 L-1,1 Z M-4,3 Z M-9,17 Z " fill="#593D9F" transform="translate(637,617)"/>
<path d="M0,0 L6,0 L6,11 L8,11 L8,13 L4,16 L2,16 L2,14 L-1,14 L-2,16 L-3,11 L0,10 Z " fill="#1D0F45" transform="translate(562,762)"/>
<path d="M0,0 L1,0 L1,38 L3,38 L3,48 L5,48 L5,60 L4,60 L4,49 L2,49 L2,60 L1,60 L1,49 L-1,49 Z " fill="#473184" transform="translate(663,450)"/>
<path d="M0,0 L1,0 L0,7 L-2,7 L-2,11 L-14,11 L-15,6 L-13,6 L-13,8 L-11,8 L-10,4 Z " fill="#190C39" transform="translate(316,287)"/>
<path d="M0,0 L5,0 L5,2 L3,3 L1,7 L-7,11 L-14,11 L-19,6 L-15,6 L-15,4 L-3,4 L-1,4 Z " fill="#211257" transform="translate(505,783)"/>
<path d="M0,0 L6,0 L6,4 L12,4 L12,8 L14,8 L14,12 L16,12 L16,20 L15,20 L15,13 L13,13 L13,19 L12,19 L12,12 L13,9 L11,9 L11,11 L9,11 L6,8 L6,6 L0,9 L-2,7 L0,7 L0,5 L-3,5 L-2,3 L0,4 Z " fill="#4A338B" transform="translate(646,430)"/>
<path d="M0,0 L1,0 L1,6 L-3,6 L-3,8 L-21,8 L-21,12 L-25,12 L-25,16 L-33,16 L-33,18 L-37,18 L-37,20 L-45,20 L-45,19 L-38,19 L-38,17 L-40,16 L-38,14 L-26,15 L-27,10 L-22,11 L-22,7 L-6,6 L-10,4 L-3,4 L0,5 Z " fill="#0E0728" transform="translate(663,758)"/>
<path d="M0,0 L3,1 L4,14 L7,14 L10,21 L9,26 L6,23 L6,21 L4,21 L4,23 L2,23 L2,11 L-1,11 Z " fill="#5238A0" transform="translate(329,570)"/>
<path d="M0,0 L6,0 L6,2 L26,2 L27,11 L23,10 L24,5 L20,6 L7,6 L6,4 L2,4 L2,2 Z " fill="#120B32" transform="translate(636,752)"/>
<path d="M0,0 L2,2 L2,5 L0,6 L-1,18 L-3,18 L-3,28 L-7,27 L-4,27 L-4,18 L-6,18 L-6,25 L-7,25 L-7,17 L-6,16 L-5,8 L-3,8 L-4,1 Z " fill="#4D3391" transform="translate(659,586)"/>
<path d="M0,0 L3,1 L-1,4 L0,7 L-4,7 L-5,11 L-23,11 L-23,9 L-9,8 L-8,4 L-9,2 L-1,1 Z " fill="#52359F" transform="translate(575,670)"/>
<path d="M0,0 L1,0 L2,6 L2,22 L1,38 L0,38 L0,22 L-2,22 L-2,6 L0,6 Z " fill="#080510" transform="translate(670,510)"/>
<path d="M0,0 L6,0 L6,1 L1,1 L1,3 L6,3 L1,7 L-2,7 L-2,9 L-4,9 L-4,7 L-12,7 L-12,5 L-16,4 L-12,4 L-12,2 L0,2 Z " fill="#452A91" transform="translate(474,338)"/>
<path d="M0,0 L2,1 L1,3 L-1,3 L-1,8 L1,8 L1,22 L2,24 L-1,24 L-2,28 L-2,24 L-4,24 L-4,8 L-2,8 L-2,2 L0,2 Z " fill="#4B348E" transform="translate(332,402)"/>
<path d="M0,0 L2,0 L2,2 L-4,5 L-7,10 L-12,10 L-12,12 L-26,11 L-26,9 L-16,8 L-12,5 L-8,5 L-8,3 Z " fill="#5534BB" transform="translate(492,374)"/>
<path d="M0,0 L14,0 L18,1 L18,3 L26,3 L25,7 L25,4 L12,6 L7,5 L4,5 L3,3 L0,2 Z M10,3 Z " fill="#170B33" transform="translate(218,371)"/>
<path d="M0,0 L1,0 L1,11 L0,13 L-2,13 L-2,15 L-6,16 L-15,16 L-15,14 L-7,14 L-8,11 L-4,7 L-3,3 L0,3 Z " fill="#1A0D3B" transform="translate(342,253)"/>
<path d="M0,0 L5,2 L5,4 L9,5 L11,15 L14,16 L14,20 L9,21 L9,19 L11,18 L8,17 L9,12 L7,12 L6,8 L0,6 L0,4 L-8,4 L-8,3 L0,3 Z " fill="#473293" transform="translate(378,624)"/>
<path d="M0,0 L10,0 L10,5 L8,5 L8,7 L-2,7 L-2,4 L-5,4 L-5,2 Z " fill="#220E40" transform="translate(464,207)"/>
<path d="M0,0 L6,0 L6,1 L1,1 L2,10 L3,14 L10,14 L10,20 L2,20 L2,18 L0,18 Z " fill="#130A2D" transform="translate(242,666)"/>
<path d="M0,0 L1,0 L1,13 L3,13 L3,0 L4,0 L7,13 L11,17 L11,19 L9,19 L9,21 L12,22 L8,22 L8,20 L4,20 L2,15 L0,14 Z " fill="#422D8A" transform="translate(418,660)"/>
<path d="M0,0 L7,0 L10,2 L17,3 L17,5 L2,5 L2,7 L-1,8 L-1,10 L-4,10 L-3,5 L-1,5 L-4,1 Z " fill="#563A9E" transform="translate(606,652)"/>
<path d="M0,0 L5,0 L12,3 L12,4 L3,4 L3,6 L14,5 L14,7 L17,8 L15,12 L12,9 L12,7 L2,7 L2,5 L0,5 L0,7 L-8,7 L-8,6 L-1,6 L-1,4 L-7,4 L-3,2 Z " fill="#463192" transform="translate(346,611)"/>
<path d="M0,0 L6,0 L6,11 L8,11 L8,16 L6,16 L6,12 L1,14 L-1,7 L0,3 L-2,2 Z " fill="#5439A1" transform="translate(661,499)"/>
<path d="M0,0 L18,0 L18,2 L22,2 L22,10 L19,11 L16,9 L16,7 L13,6 L12,3 L17,3 L17,1 L1,1 L0,4 Z " fill="#14082D" transform="translate(710,254)"/>
<path d="M0,0 L14,0 L14,1 L1,1 L1,3 L8,3 L8,7 L16,7 L16,8 L8,8 L8,10 L-4,10 L-4,9 L7,9 L7,7 L-1,8 L-1,5 L-3,5 L-4,8 L-4,4 L0,4 Z " fill="#1C0C36" transform="translate(478,198)"/>
<path d="M0,0 L6,0 L6,2 L14,2 L14,3 L5,3 L5,1 L1,1 L1,3 L-1,3 L-1,5 L-5,5 L-5,7 L-3,7 L-5,11 L-7,14 L-9,14 L-9,9 L-11,9 L-11,19 L-4,19 L-4,20 L-12,20 L-12,8 L-8,8 L-6,4 L-2,4 L-2,2 L0,2 Z " fill="#130829" transform="translate(366,194)"/>
<path d="M0,0 L6,0 L6,3 L22,3 L22,4 L6,4 L6,6 L-2,6 L-2,8 L-6,8 L-7,10 L-8,6 L-3,7 L-3,5 L-5,4 Z " fill="#482F8B" transform="translate(578,670)"/>
<path d="M0,0 L6,0 L6,2 L11,1 L9,4 L2,5 L0,7 L-6,8 L-6,6 L-11,7 L-13,5 L-7,4 L-7,2 L0,2 Z " fill="#462B9E" transform="translate(422,347)"/>
<path d="M0,0 L7,0 L7,4 L0,4 L0,7 L-16,8 L-16,6 L-9,4 L-2,4 Z " fill="#251046" transform="translate(384,231)"/>
<path d="M0,0 L1,0 L1,5 L3,5 L3,0 L4,0 L4,6 L2,6 L2,10 L-2,14 L-6,14 L-6,16 L-22,16 L-22,15 L-7,15 L-7,13 L-14,13 L-14,10 L-7,11 L-3,13 L-3,11 L-6,10 L-3,9 L-1,7 L-1,9 L1,9 Z " fill="#4A3288" transform="translate(630,642)"/>
<path d="M0,0 L3,0 L4,5 L6,5 L6,21 L4,21 L1,15 L2,9 Z " fill="#563AAA" transform="translate(626,408)"/>
<path d="M0,0 L9,1 L9,3 L11,3 L12,6 L10,10 L5,9 L4,6 L-3,5 L-3,3 L0,2 Z " fill="#4D349B" transform="translate(442,678)"/>
<path d="M0,0 L0,3 L-1,5 L3,6 L3,8 L-9,8 L-12,8 L-12,5 L-11,2 L-7,1 L-7,3 L-5,3 L-5,1 L-1,1 Z " fill="#5031A1" transform="translate(497,338)"/>
<path d="M0,0 L10,0 L10,8 L4,8 L4,6 L0,6 Z " fill="#10092C" transform="translate(340,782)"/>
<path d="M0,0 L8,0 L8,4 L10,4 L10,8 L8,8 L8,16 L12,18 L14,20 L14,24 L16,24 L15,26 L12,25 L11,21 L7,19 L6,16 L6,3 L7,1 L0,1 Z M7,17 Z " fill="#0C0819" transform="translate(438,684)"/>
<path d="M0,0 L6,0 L6,2 L8,2 L8,10 L2,10 L2,8 L0,8 Z " fill="#1F0F45" transform="translate(744,466)"/>
<path d="M0,0 L6,0 L6,1 L1,1 L1,3 L5,4 L0,5 L0,3 L-7,3 L-7,6 L-2,6 L-5,7 L-4,10 L-10,11 L-11,7 L-13,7 L-12,12 L-16,12 L-16,10 L-14,10 L-14,6 L-10,6 L-10,4 L-8,4 L-8,2 L0,2 Z " fill="#402C89" transform="translate(372,368)"/>
<path d="M0,0 L8,0 L8,14 L7,14 L7,1 L1,1 L1,3 L5,4 L2,4 L1,8 L-1,11 L-1,6 L-3,6 L-3,22 L-4,22 L-4,2 L0,2 Z " fill="#13092A" transform="translate(250,320)"/>
<path d="M0,0 L12,0 L12,6 L0,6 Z " fill="#200D38" transform="translate(430,202)"/>
<path d="M0,0 L5,3 L10,8 L8,12 L7,12 L6,20 L4,20 L3,5 L-3,4 L-3,1 Z " fill="#563BA0" transform="translate(319,555)"/>
<path d="M0,0 L1,0 L1,13 L11,13 L11,11 L3,11 L3,0 L5,4 L4,10 L11,9 L12,4 L13,4 L13,9 L15,9 L16,5 L16,10 L14,10 L14,12 L12,12 L12,14 L0,14 Z " fill="#3C2886" transform="translate(486,716)"/>
<path d="M0,0 L3,1 L4,8 L6,8 L7,5 L8,16 L4,14 L1,18 L0,11 L-1,2 Z " fill="#5C3CC1" transform="translate(596,393)"/>
<path d="M0,0 L3,0 L4,4 L3,15 L11,15 L11,17 L1,17 L0,4 L-7,3 L-7,1 Z " fill="#4B32A3" transform="translate(486,712)"/>
<path d="M0,0 L2,1 L2,10 L5,10 L5,16 L-1,16 L-1,14 L-3,14 L-3,8 L0,8 Z " fill="#170B32" transform="translate(777,422)"/>
<path d="M0,0 L3,0 L3,2 L1,3 L1,14 L-2,14 L-2,16 L-8,15 L-3,9 L-2,1 Z " fill="#4E329D" transform="translate(538,685)"/>
<path d="M0,0 L6,1 L3,4 L1,9 L-1,16 L-4,15 L-4,4 L-1,4 Z " fill="#1B0839" transform="translate(217,382)"/>
<path d="M0,0 L1,3 L5,2 L6,3 L5,11 L7,11 L7,9 L9,9 L12,14 L12,16 L9,16 L8,20 L8,16 L6,16 L6,12 L4,12 L4,8 L2,8 L2,4 L0,4 Z " fill="#473391" transform="translate(326,582)"/>
<path d="M0,0 L4,0 L4,16 L0,16 Z " fill="#553ABD" transform="translate(384,480)"/>
<path d="M0,0 L2,0 L2,15 L5,15 L6,20 L3,21 L4,16 L2,16 L1,18 L-3,13 L-3,7 L-2,9 L0,9 Z " fill="#553B9B" transform="translate(637,413)"/>
<path d="M0,0 L1,2 L3,2 L4,9 L1,12 L-4,13 L-3,4 L-1,4 Z " fill="#5E3EB1" transform="translate(605,606)"/>
<path d="M0,0 L2,0 L3,9 L6,9 L6,7 L8,7 L8,11 L5,12 L4,17 L0,17 Z " fill="#1F0F41" transform="translate(215,400)"/>
<path d="M0,0 L3,0 L3,2 L19,3 L17,8 L21,8 L20,10 L11,8 L9,5 L0,2 Z " fill="#170C44" transform="translate(415,789)"/>
<path d="M0,0 L1,0 L1,8 L3,8 L4,6 L5,9 L5,13 L11,13 L12,10 L12,14 L5,14 L5,16 L3,16 L2,13 L0,12 L-1,15 L-3,15 L-3,9 L0,9 Z " fill="#180C37" transform="translate(270,696)"/>
<path d="M0,0 L8,0 L8,6 L6,6 L6,8 L0,8 Z " fill="#140A2D" transform="translate(250,702)"/>
<path d="M0,0 L3,1 L4,18 L2,20 L1,10 L-3,11 L-2,2 Z " fill="#583DA8" transform="translate(636,467)"/>
<path d="M0,0 Z M-16,1 L0,1 L-2,2 L-2,5 L-16,6 Z " fill="#5030B0" transform="translate(504,351)"/>
<path d="M0,0 L7,2 L3,3 L3,5 L-3,5 L-3,7 L-5,7 L-5,19 L-9,18 L-6,18 L-6,7 L-8,6 L-4,6 L-4,4 L-6,3 L-5,1 Z " fill="#452D88" transform="translate(545,681)"/>
<path d="M0,0 L1,4 L3,4 L3,12 L-1,12 L-1,26 L-2,26 L-3,6 L-1,5 Z " fill="#150A2B" transform="translate(753,314)"/>
<path d="M0,0 L1,0 L1,7 L4,6 L13,6 L13,9 L11,9 L11,11 L15,11 L15,4 L16,4 L16,12 L10,12 L10,10 L4,10 L4,8 L0,8 Z " fill="#150A2D" transform="translate(266,726)"/>
<path d="M0,0 L1,0 L1,15 L3,15 L3,0 L4,0 L4,17 L12,17 L12,18 L6,18 L6,22 L2,20 L2,16 L0,16 Z M3,17 Z " fill="#0A0712" transform="translate(640,412)"/>
<path d="M0,0 L1,0 L1,5 L3,5 L4,15 L5,16 L5,32 L4,32 L1,15 L0,8 L1,6 L-1,5 Z " fill="#4E339E" transform="translate(627,370)"/>
<path d="M0,0 L12,0 L12,1 L1,1 L1,3 L12,3 L10,7 L6,7 L6,5 L3,6 L0,5 L0,3 L-12,3 L-12,2 L0,2 Z " fill="#442A82" transform="translate(502,316)"/>
<path d="M0,0 L3,0 L3,2 L7,3 L3,3 L3,5 L-3,5 L-3,7 L-19,7 L-18,3 L-18,6 L-10,5 L-8,2 L2,4 L2,2 L0,2 Z " fill="#110A2B" transform="translate(481,825)"/>
<path d="M0,0 L2,0 L3,4 L3,7 L1,11 L-3,14 L-3,8 L-8,8 L-8,6 L0,4 Z " fill="#4E35A0" transform="translate(359,375)"/>
<path d="M0,0 L5,1 L6,4 L4,10 L6,10 L6,12 L9,12 L9,14 L4,14 L4,11 L1,11 Z " fill="#1B0E3D" transform="translate(741,371)"/>
<path d="M0,0 L2,0 L2,4 L4,4 L3,27 L1,26 L1,14 L-1,8 L-1,2 Z " fill="#53399F" transform="translate(657,439)"/>
<path d="M0,0 L4,1 L5,12 L2,12 L2,14 L5,15 L1,15 L0,11 Z " fill="#190A31" transform="translate(209,385)"/>
<path d="M0,0 L1,3 L3,3 L4,0 L4,4 L2,4 L2,16 L0,16 L0,18 L-10,18 L-10,16 L-8,15 L-1,15 L-1,13 L1,13 Z " fill="#080513" transform="translate(388,352)"/>
<path d="M0,0 L3,3 L-5,8 L-12,9 L-8,3 L-8,2 L-1,1 Z " fill="#4C2EA4" transform="translate(486,344)"/>
<path d="M0,0 L6,0 L6,3 L11,3 L11,5 L5,5 L2,4 L-4,7 L-7,7 L-7,5 L-4,5 L-4,2 L0,2 Z " fill="#150D36" transform="translate(714,690)"/>
<path d="M0,0 L6,0 L6,1 L1,1 L1,3 L5,4 L3,11 L-2,10 L-2,2 L0,2 Z " fill="#110A2E" transform="translate(356,780)"/>
<path d="M0,0 L7,0 L7,2 L-4,5 L-6,13 L-7,13 L-7,5 L-6,1 Z " fill="#170E3F" transform="translate(690,723)"/>
<path d="M0,0 L1,0 L1,15 L-3,14 L-3,2 Z " fill="#4E36AE" transform="translate(391,382)"/>
<path d="M0,0 L2,1 L1,3 L3,4 L1,6 L-5,5 L-5,19 L5,19 L5,14 L6,14 L6,20 L-6,20 L-6,4 L-2,4 L-2,2 L0,2 Z " fill="#120927" transform="translate(244,342)"/>
<path d="M0,0 L14,0 L15,5 L17,7 L16,15 L14,16 L15,8 L13,8 L12,4 L13,2 L0,2 Z " fill="#50349F" transform="translate(610,343)"/>
<path d="M0,0 L12,0 L12,3 L3,4 L-7,4 L-7,2 L0,2 Z " fill="#51319F" transform="translate(490,319)"/>
<path d="M0,0 L6,0 L12,3 L10,7 L6,6 L4,4 L-1,6 L-2,3 Z " fill="#160C39" transform="translate(601,770)"/>
<path d="M0,0 L1,0 L1,9 L7,9 L7,7 L5,7 L7,3 L13,2 L13,7 L8,7 L8,10 L0,10 Z " fill="#1E0E3E" transform="translate(712,298)"/>
<path d="M0,0 L7,1 L7,2 L1,2 L1,4 L-1,4 L-1,6 L-3,6 L-3,8 L-5,9 L-6,13 L-8,13 L-8,5 L-6,5 L-5,2 L0,3 Z " fill="#432D91" transform="translate(507,712)"/>
<path d="M0,0 L2,0 L1,7 L-6,7 L-6,12 L-13,12 L-12,10 L-8,10 L-7,5 L0,4 Z " fill="#190C37" transform="translate(255,349)"/>
<path d="M0,0 L2,0 L2,9 L-1,10 L-2,13 L-9,13 L-9,11 L-6,8 L-1,6 Z " fill="#563AA0" transform="translate(653,604)"/>
<path d="M0,0 L1,0 L1,6 L-1,6 L-1,22 L-2,22 L-2,6 L-4,6 L-4,14 L-5,14 L-5,6 L-7,5 L-4,1 L-2,1 L-2,5 L0,5 Z " fill="#473089" transform="translate(669,510)"/>
<path d="M0,0 L2,4 L-3,8 L-7,10 L-9,11 L-8,7 L-5,1 Z " fill="#5A3AC8" transform="translate(456,404)"/>
<path d="M0,0 L8,0 L8,6 L0,6 Z " fill="#231353" transform="translate(590,732)"/>
<path d="M0,0 L8,0 L8,6 L0,6 Z " fill="#220F42" transform="translate(410,230)"/>
<path d="M0,0 L5,0 L5,2 L8,2 L8,10 L6,10 L6,4 L3,4 L1,10 L0,10 Z " fill="#180D38" transform="translate(243,667)"/>
<path d="M0,0 L3,1 L-2,7 L-5,8 L-5,6 L-9,6 L-9,8 L-11,7 L-12,5 L-9,2 L-3,3 Z " fill="#5132B1" transform="translate(485,369)"/>
<path d="M0,0 L1,4 L7,3 L9,4 L9,2 L6,1 L10,1 L10,9 L4,9 L4,5 L0,5 Z " fill="#190C36" transform="translate(772,477)"/>
<path d="M0,0 L4,1 L4,3 L8,2 L6,6 L1,7 L-1,6 L-6,7 Z " fill="#5B3AC7" transform="translate(466,400)"/>
<path d="M0,0 L1,4 L3,4 L4,6 L4,12 L1,16 L1,5 L-1,5 L-1,16 L-2,16 L-2,4 L0,4 Z M2,6 Z " fill="#3C278B" transform="translate(392,352)"/>
<path d="M0,0 L2,0 L2,3 L6,2 L6,7 L2,8 L0,8 L-4,8 L-4,5 L0,5 Z " fill="#5335A5" transform="translate(516,341)"/>
<path d="M0,0 L2,0 L2,2 L14,2 L14,4 L0,4 L0,6 L-2,6 L-2,4 L-4,4 L-4,2 L0,2 Z " fill="#030209" transform="translate(580,772)"/>
<path d="M0,0 L5,0 L2,8 L-2,11 L-8,11 L-8,9 L1,5 L-1,1 Z " fill="#5F3CD2" transform="translate(488,401)"/>
<path d="M0,0 L2,0 L3,3 L2,8 L2,14 L1,16 L4,17 L2,18 L1,20 L1,17 L-1,16 L-1,2 Z " fill="#5B3EB6" transform="translate(606,391)"/>
<path d="M0,0 L4,0 L5,3 L9,4 L9,6 L7,6 L6,8 L3,7 L3,2 L2,3 L2,10 L0,10 Z " fill="#5638A6" transform="translate(309,503)"/>
<path d="M0,0 L16,0 L13,3 L1,3 L-1,1 Z " fill="#52339B" transform="translate(517,318)"/>
<path d="M0,0 L4,1 L1,1 L1,3 L4,4 L2,4 L1,7 L-4,9 L-4,7 L-16,7 L-16,6 L-4,6 L-4,4 L0,4 Z " fill="#1C0E3E" transform="translate(526,774)"/>
<path d="M0,0 Z M-4,1 L0,1 L0,5 L-4,7 L-10,7 L-10,3 L-4,3 Z " fill="#5A37C4" transform="translate(442,529)"/>
<path d="M0,0 L1,3 L3,3 L5,7 L3,7 L3,12 L-1,10 L-2,5 L0,5 L0,3 L-4,2 L0,2 Z " fill="#4C328D" transform="translate(318,504)"/>
<path d="M0,0 L2,1 L1,5 L3,6 L1,19 L-1,16 L-2,4 Z " fill="#5237A2" transform="translate(608,356)"/>
<path d="M0,0 L2,0 L0,6 L2,6 L2,9 L4,10 L0,13 L-2,12 L-3,15 L-2,7 L-1,1 Z " fill="#1D0D39" transform="translate(715,271)"/>
<path d="M0,0 L4,1 L2,4 L6,4 L4,9 L0,9 L-2,7 L-1,2 Z " fill="#200C40" transform="translate(367,228)"/>
<path d="M0,0 L16,0 L16,1 L2,2 L2,14 L1,11 L-1,11 L-2,14 L-2,10 L0,10 L0,4 L-2,4 L-2,2 L0,2 Z " fill="#0E091B" transform="translate(608,658)"/>
<path d="M0,0 L4,2 L2,2 L2,4 L4,4 L4,10 L2,10 L2,14 L-4,14 L-4,13 L1,13 L-1,4 L1,4 Z " fill="#483088" transform="translate(604,658)"/>
<path d="M0,0 L2,1 L2,6 L0,9 L3,9 L3,11 L0,11 L0,18 L-2,18 L-3,20 L-4,17 L-1,17 L-3,8 Z " fill="#533994" transform="translate(640,608)"/>
<path d="M0,0 L2,0 L4,6 L4,9 L-2,9 L-2,3 Z " fill="#170B34" transform="translate(773,412)"/>
<path d="M0,0 L2,2 L3,14 L0,17 L-2,17 L-2,12 L0,12 Z " fill="#1B0D3C" transform="translate(743,330)"/>
<path d="M0,0 L8,0 L8,1 L1,1 L1,3 L8,3 L8,4 L1,6 L-1,7 L-1,3 L-3,3 L-3,9 L0,10 L-4,10 L-4,2 L0,2 Z " fill="#412784" transform="translate(482,320)"/>
<path d="M0,0 L2,0 L2,5 L-1,8 L-8,9 L-6,5 Z " fill="#583CA5" transform="translate(633,610)"/>
<path d="M0,0 L1,3 L4,3 L4,14 L2,11 L2,9 L-1,9 L0,3 L-2,2 Z " fill="#5337A6" transform="translate(627,399)"/>
<path d="M0,0 L5,0 L4,9 L0,10 Z " fill="#1D0F42" transform="translate(745,391)"/>
<path d="M0,0 L3,1 L4,9 L5,12 L0,12 Z " fill="#220F41" transform="translate(705,263)"/>
<path d="M0,0 L4,2 L2,2 L2,4 L8,4 L8,10 L4,9 L7,9 L7,5 L1,6 L0,8 L-2,8 L-2,2 Z " fill="#0D082A" transform="translate(614,778)"/>
<path d="M0,0 L1,4 L3,4 L3,8 L5,8 L5,12 L3,12 L3,20 L2,20 L1,7 L2,5 L-1,5 Z " fill="#0B0816" transform="translate(329,590)"/>
<path d="M0,0 L1,4 L3,4 L4,6 L4,12 L2,17 L0,16 L1,6 L-1,6 Z " fill="#4A3195" transform="translate(625,344)"/>
<path d="M0,0 L4,0 L4,9 L0,9 Z " fill="#251458" transform="translate(563,763)"/>
<path d="M0,0 L6,0 L6,6 L0,6 Z " fill="#1F0D38" transform="translate(428,228)"/>
<path d="M0,0 L2,0 L2,5 L5,4 L5,10 L0,10 Z " fill="#180B34" transform="translate(355,203)"/>
<path d="M0,0 L9,0 L17,1 L17,3 L4,3 L4,1 Z " fill="#110832" transform="translate(544,820)"/>
<path d="M0,0 L7,0 L9,4 L14,4 L14,6 L9,6 L3,3 L0,2 Z " fill="#190F43" transform="translate(395,777)"/>
<path d="M0,0 L8,0 L8,4 L1,5 Z " fill="#653CCC" transform="translate(552,508)"/>
<path d="M0,0 L9,0 L8,4 L0,5 Z " fill="#563BBF" transform="translate(388,440)"/>
<path d="M0,0 L2,0 L1,4 L-14,4 L-14,2 L0,2 Z " fill="#241046" transform="translate(533,205)"/>
<path d="M0,0 L1,0 L2,10 L-4,11 L-2,2 Z " fill="#54389C" transform="translate(629,641)"/>
<path d="M0,0 L3,1 L6,1 L3,6 L-5,9 L-4,5 L0,4 Z " fill="#653FD7" transform="translate(566,462)"/>
<path d="M0,0 L6,0 L2,2 L0,5 L-1,14 L-2,14 L-2,8 L-4,8 L-4,4 L-2,4 L-2,2 L0,2 Z " fill="#05020A" transform="translate(226,398)"/>
<path d="M0,0 L2,0 L2,2 L8,2 L7,4 L-4,6 L-2,1 Z " fill="#5435A9" transform="translate(532,347)"/>
<path d="M0,0 L2,0 L2,12 L5,12 L5,14 L0,14 Z " fill="#1D0D39" transform="translate(267,319)"/>
<path d="M0,0 L8,0 L8,1 L1,1 L1,3 L6,3 L1,7 L1,5 L-1,5 L-1,14 L-2,14 L-2,4 L0,4 Z " fill="#110929" transform="translate(302,282)"/>
<path d="M0,0 L1,0 L1,11 L-2,14 L-6,14 L-6,12 L-3,12 L-3,10 L-1,10 L-1,3 Z " fill="#200F41" transform="translate(342,253)"/>
<path d="M0,0 L2,0 L1,5 L-1,5 L-1,7 L-7,8 L-7,6 L-5,6 L-5,3 L0,2 Z " fill="#190B31" transform="translate(353,241)"/>
<path d="M0,0 L3,1 L1,1 L1,3 L7,2 L8,6 L4,6 L4,4 L0,4 L0,2 L-10,2 L-10,1 Z " fill="#0C0529" transform="translate(394,796)"/>
<path d="M0,0 L10,2 L6,3 L6,5 L0,5 L0,3 L-4,2 L0,2 Z " fill="#442C8B" transform="translate(526,699)"/>
<path d="M0,0 L2,1 L2,3 L5,3 L5,7 L0,7 L0,5 L-3,5 L-3,3 L-1,3 Z " fill="#4D339D" transform="translate(430,676)"/>
<path d="M0,0 L4,0 L4,8 L0,9 Z " fill="#553BB4" transform="translate(356,480)"/>
<path d="M0,0 L1,0 L1,10 L4,10 L3,14 L1,16 L1,11 L-1,11 L-1,18 L-2,18 L-2,10 L0,10 Z " fill="#422D83" transform="translate(336,384)"/>
<path d="M0,0 L8,0 L8,2 L1,2 L1,4 L-7,4 L-7,2 Z " fill="#27124B" transform="translate(375,235)"/>
<path d="M0,0 L6,0 L6,5 L4,5 L4,8 L1,8 L1,2 Z " fill="#230F42" transform="translate(379,221)"/>
<path d="M0,0 L8,0 L9,4 L6,5 L6,3 L2,4 L0,3 Z " fill="#5034AF" transform="translate(490,672)"/>
<path d="M0,0 L1,0 L1,8 L5,10 L5,14 L1,14 L-1,8 Z M0,9 Z " fill="#0B0715" transform="translate(305,548)"/>
<path d="M0,0 L3,0 L3,10 L0,9 L-1,5 L0,3 L-2,2 Z " fill="#51379D" transform="translate(661,499)"/>
<path d="M0,0 L6,0 L6,3 L5,5 L-3,5 L-3,3 L0,2 Z " fill="#4F369F" transform="translate(442,678)"/>
<path d="M0,0 L2,0 L2,9 L1,10 L-6,10 L-6,8 L0,8 Z " fill="#29124E" transform="translate(261,379)"/>
<path d="M0,0 L2,0 L2,10 L5,10 L5,12 L0,12 Z " fill="#180F43" transform="translate(703,697)"/>
<path d="M0,0 L1,3 L5,2 L6,3 L5,12 L4,8 L2,8 L2,4 L0,4 Z " fill="#483388" transform="translate(326,582)"/>
<path d="M0,0 L3,0 L4,9 L1,9 L0,7 Z " fill="#52369E" transform="translate(307,548)"/>
<path d="M0,0 L2,0 L2,2 L8,3 L5,5 L-2,5 L-2,1 Z " fill="#4C339E" transform="translate(473,708)"/>
<path d="M0,0 L5,2 L6,7 L8,7 L7,9 L4,8 L3,4 L-1,2 Z " fill="#070510" transform="translate(446,701)"/>
<path d="M0,0 L1,0 L2,7 L5,8 L5,12 L0,13 L0,11 L2,10 L-1,9 Z " fill="#4A339B" transform="translate(387,632)"/>
<path d="M0,0 L13,0 L13,2 L2,3 Z " fill="#4C3298" transform="translate(610,345)"/>
<path d="M0,0 L2,0 L2,4 L7,4 L8,7 L3,8 L0,5 Z " fill="#4E3397" transform="translate(601,334)"/>
<path d="M0,0 L9,0 L9,2 L1,4 L-3,4 L-3,2 L0,2 Z " fill="#27165C" transform="translate(466,783)"/>
<path d="M0,0 L6,0 L6,5 L2,6 L2,3 L0,3 Z " fill="#4C349F" transform="translate(362,611)"/>
<path d="M0,0 L4,0 L4,4 L2,4 L1,6 L-1,5 L-1,12 L-2,12 L-2,4 L0,4 Z " fill="#06020C" transform="translate(250,386)"/>
<path d="M0,0 L6,0 L13,2 L12,4 L6,5 L4,6 L3,2 Z " fill="#4D31B0" transform="translate(396,382)"/>
<path d="M0,0 L2,0 L2,4 L-1,6 L-4,6 L-4,8 L-6,8 L-5,3 L0,3 Z " fill="#1E1047" transform="translate(587,751)"/>
<path d="M0,0 L2,0 L2,4 L-1,5 L-2,10 L-6,10 L-6,8 L-3,8 L-3,2 L0,2 Z " fill="#211048" transform="translate(221,407)"/>
<path d="M0,0 L1,3 L8,4 L8,5 L-1,5 L-1,3 L-4,3 L-4,1 Z " fill="#241042" transform="translate(463,208)"/>
<path d="M0,0 L7,0 L7,2 L0,4 L0,2 L-5,2 L-6,5 L-6,1 Z " fill="#150D39" transform="translate(690,723)"/>
<path d="M0,0 L2,1 L5,3 L3,7 L0,4 L0,2 L-10,2 L-10,1 Z " fill="#3D2B7C" transform="translate(358,616)"/>
<path d="M0,0 L2,0 L2,2 L12,2 L12,3 L0,4 L-8,3 L-8,2 L0,2 Z " fill="#0D091C" transform="translate(346,616)"/>
<path d="M0,0 L4,0 L4,2 L8,2 L7,6 L7,3 L-2,5 L0,4 Z " fill="#05020B" transform="translate(234,392)"/>
<path d="M0,0 L2,0 L2,5 L4,5 L4,7 L7,7 L7,9 L2,9 L2,6 L0,6 Z " fill="#1D0F42" transform="translate(743,376)"/>
<path d="M0,0 L1,2 L9,2 L9,3 L1,3 L1,7 L-5,7 L-5,6 L0,6 L0,4 L-2,4 L-2,1 Z " fill="#1D0D38" transform="translate(367,237)"/>
<path d="M0,0 L1,2 L4,3 L8,4 L8,6 L1,6 L-1,2 Z " fill="#4D369E" transform="translate(337,611)"/>
<path d="M0,0 L3,0 L4,3 L1,7 L-1,7 L-1,1 Z " fill="#5435A4" transform="translate(527,342)"/>
<path d="M0,0 L4,1 L2,4 L-6,4 L-6,2 Z " fill="#4F309F" transform="translate(481,337)"/>
<path d="M0,0 L5,0 L5,2 L10,2 L10,4 L4,4 L0,2 Z " fill="#190F41" transform="translate(715,691)"/>
<path d="M0,0 L2,0 L2,6 L-2,7 L-3,2 Z " fill="#593EB1" transform="translate(358,436)"/>
<path d="M0,0 L2,0 L2,7 L-2,8 Z " fill="#100731" transform="translate(565,813)"/>
<path d="M0,0 L6,1 L4,5 L0,4 Z " fill="#140C33" transform="translate(607,772)"/>
<path d="M0,0 L7,1 L7,4 L1,4 Z " fill="#4B349D" transform="translate(391,645)"/>
<path d="M0,0 L2,1 L10,1 L10,2 L4,2 L4,6 L0,4 Z " fill="#0F0A1C" transform="translate(642,428)"/>
<path d="M0,0 L3,0 L3,10 L1,10 Z " fill="#1E0F44" transform="translate(280,719)"/>
<path d="M0,0 L4,0 L4,2 L10,2 L10,3 L0,4 Z " fill="#0B0717" transform="translate(522,702)"/>
<path d="M0,0 L1,0 L2,8 L-3,8 L-3,3 L-1,3 Z " fill="#52369E" transform="translate(603,663)"/>
<path d="M0,0 L4,1 L1,1 L1,3 L4,4 L2,4 L1,7 L-3,7 L-3,5 L0,5 Z " fill="#211049" transform="translate(526,774)"/>
<path d="M0,0 L2,0 L2,5 L1,6 L-5,6 L-5,4 L0,4 Z " fill="#1C0E3E" transform="translate(255,349)"/>
<path d="M0,0 L1,4 L-1,4 L-1,6 L-11,6 L-11,5 L-4,4 L0,2 Z " fill="#1C0E34" transform="translate(473,208)"/>
<path d="M0,0 L7,0 L7,2 L4,2 L4,4 L0,3 Z " fill="#22104B" transform="translate(534,775)"/>
<path d="M0,0 L6,2 L5,7 L2,4 L2,2 L0,2 Z " fill="#4E369D" transform="translate(333,589)"/>
<path d="M0,0 L6,2 L6,4 L4,4 L3,6 L0,5 Z " fill="#53369B" transform="translate(312,505)"/>
<path d="M0,0 L8,0 L8,2 L2,2 L2,4 L0,4 Z " fill="#180C36" transform="translate(771,407)"/>
<path d="M0,0 Z M-2,1 L0,2 L0,9 L-2,9 L-3,2 Z M-2,3 Z " fill="#4F37A6" transform="translate(364,383)"/>
<path d="M0,0 L4,0 L2,5 L-1,5 Z " fill="#230E45" transform="translate(369,232)"/>
<path d="M0,0 L2,0 L1,5 L-5,5 L-5,3 L0,3 Z " fill="#4E34A0" transform="translate(513,708)"/>
<path d="M0,0 L2,0 L2,4 L6,5 L6,6 L0,6 Z " fill="#1A0D39" transform="translate(771,415)"/>
<path d="M0,0 L6,0 L3,6 L2,4 L0,4 Z M1,6 Z " fill="#442B9C" transform="translate(393,352)"/>
<path d="M0,0 L2,0 L2,7 L-2,7 L-2,5 L0,5 Z " fill="#1B0E3C" transform="translate(279,730)"/>
<path d="M0,0 L3,0 L4,3 L3,7 L1,7 Z " fill="#4D339D" transform="translate(449,688)"/>
<path d="M0,0 L3,3 L0,3 L0,5 L3,6 L-1,6 L-1,4 L-5,3 L-1,3 Z " fill="#412E87" transform="translate(367,620)"/>
<path d="M0,0 L2,1 L1,3 L3,4 L1,6 L-2,6 L-2,2 L0,2 Z " fill="#140A2D" transform="translate(244,342)"/>
<path d="M0,0 L6,0 L3,4 L-1,3 Z " fill="#52339B" transform="translate(537,318)"/>
<path d="M0,0 L6,0 L6,5 L4,5 L4,2 L0,2 Z " fill="#210F42" transform="translate(457,201)"/>
<path d="M0,0 L6,0 L6,3 L0,3 Z " fill="#240F40" transform="translate(433,203)"/>
<path d="M0,0 L3,1 L3,6 L-1,5 Z " fill="#120B33" transform="translate(660,757)"/>
<path d="M0,0 L4,1 L4,5 L0,5 L-1,1 Z " fill="#05030A" transform="translate(418,675)"/>
<path d="M0,0 L4,4 L2,8 L0,5 Z " fill="#52389B" transform="translate(325,559)"/>
<path d="M0,0 L5,0 L4,4 L0,3 Z " fill="#5E3CCB" transform="translate(488,401)"/>
<path d="M0,0 L8,0 L7,3 L3,3 L3,1 L0,2 Z " fill="#51319B" transform="translate(505,320)"/>
<path d="M0,0 L5,0 L5,2 L1,2 L1,4 L-2,4 Z " fill="#1D0D3B" transform="translate(727,295)"/>
<path d="M0,0 L2,1 L0,5 L-3,5 L-4,8 L-3,3 L0,2 Z " fill="#110627" transform="translate(336,244)"/>
<path d="M0,0 L4,2 L3,5 L0,5 L0,2 L-2,1 Z " fill="#4A339C" transform="translate(423,674)"/>
<path d="M0,0 L4,0 L4,4 L0,4 Z " fill="#5936C4" transform="translate(432,544)"/>
<path d="M0,0 L4,0 L4,4 L0,4 Z " fill="#583BAE" transform="translate(356,536)"/>
<path d="M0,0 L2,0 L2,6 L-2,6 L-2,4 L0,4 Z " fill="#261252" transform="translate(749,469)"/>
<path d="M0,0 L1,4 L-1,4 L-1,6 L-7,6 L-3,3 Z " fill="#1C0D38" transform="translate(233,392)"/>
<path d="M0,0 L2,0 L3,3 L0,7 L-1,2 Z " fill="#583BB2" transform="translate(606,391)"/>
<path d="M0,0 L2,1 L2,3 L6,4 L2,4 L1,8 L1,3 L-1,3 Z " fill="#210E41" transform="translate(248,382)"/>
<path d="M0,0 L4,0 L4,4 L0,4 Z " fill="#2C1250" transform="translate(429,229)"/>
<path d="M0,0 L2,0 L2,5 L-3,6 L-2,4 L0,4 Z " fill="#250E3F" transform="translate(399,207)"/>
<path d="M0,0 L4,1 L4,6 L2,6 L2,2 L0,2 Z " fill="#201048" transform="translate(279,699)"/>
<path d="M0,0 L4,0 L5,3 L3,3 L2,5 L0,1 Z " fill="#07050E" transform="translate(378,630)"/>
<path d="M0,0 L3,1 L0,6 L-1,6 L-1,1 Z M3,0 Z " fill="#5839AE" transform="translate(631,582)"/>
<path d="M0,0 L5,0 L5,3 L0,3 Z " fill="#543AA1" transform="translate(652,435)"/>
<path d="M0,0 L4,1 L4,6 L2,6 L2,2 L0,2 Z " fill="#5336A1" transform="translate(603,323)"/>
<path d="M0,0 L5,1 L5,3 L-1,2 Z " fill="#110931" transform="translate(625,772)"/>
<path d="M0,0 L3,0 L3,5 L0,5 Z " fill="#170B33" transform="translate(267,726)"/>
<path d="M0,0 L3,0 L2,3 L-3,4 L-3,2 L0,2 Z " fill="#1A1044" transform="translate(710,693)"/>
<path d="M0,0 L5,1 L5,3 L0,3 Z " fill="#4A349A" transform="translate(406,647)"/>
<path d="M0,0 L4,0 L4,3 L-1,3 Z " fill="#1E0E3E" transform="translate(721,300)"/>
<path d="M0,0 L1,0 L1,5 L-3,6 L-3,4 L-1,4 Z " fill="#1E0E3F" transform="translate(316,287)"/>
<path d="M0,0 L2,1 L-1,3 L-3,6 L-4,2 Z M-4,6 Z " fill="#583AC5" transform="translate(419,440)"/>
<path d="M0,0 L2,0 L0,6 L-2,6 L-1,1 Z " fill="#200D40" transform="translate(715,271)"/>
<path d="M0,0 L1,2 L3,3 L-3,4 L-3,2 L0,2 Z " fill="#241457" transform="translate(466,783)"/>
<path d="M0,0 L3,0 L4,4 L0,4 Z " fill="#49319A" transform="translate(486,712)"/>
<path d="M0,0 L2,1 L1,4 L-2,5 L-1,1 Z M-3,5 Z " fill="#6037C5" transform="translate(519,548)"/>
<path d="M0,0 L4,0 L4,2 L2,2 L2,4 L0,4 Z " fill="#1F1044" transform="translate(771,471)"/>
<path d="M0,0 L4,0 L4,3 L0,3 Z " fill="#563BBE" transform="translate(400,417)"/>
<path d="M0,0 L3,0 L3,2 L1,2 L1,4 L-1,4 Z " fill="#21124E" transform="translate(582,755)"/>
<path d="M0,0 L3,0 L4,3 L2,4 L0,3 Z " fill="#150B30" transform="translate(253,705)"/>
<path d="M0,0 L2,0 L2,4 L-2,3 Z " fill="#1B0E3C" transform="translate(779,433)"/>
<path d="M0,0 L1,3 L-2,7 L-2,2 Z " fill="#593CC0" transform="translate(418,430)"/>
<path d="M0,0 L4,0 L4,3 L0,2 Z " fill="#06040D" transform="translate(326,426)"/>
<path d="M0,0 L3,1 L3,3 L-1,4 Z " fill="#473198" transform="translate(362,374)"/>
<path d="M0,0 L3,4 L0,5 L-1,2 Z " fill="#4D2D99" transform="translate(482,325)"/>
<path d="M0,0 L2,0 L1,3 L-3,3 L-3,1 Z " fill="#1D0D39" transform="translate(349,246)"/>
<path d="M0,0 L3,0 L2,4 L0,3 Z " fill="#0C071E" transform="translate(608,772)"/>
<path d="M0,0 L2,2 L2,5 L0,5 L-1,1 Z " fill="#573B9F" transform="translate(629,646)"/>
<path d="M0,0 L3,0 L2,4 L0,3 Z " fill="#31215A" transform="translate(318,512)"/>
<path d="M0,0 L1,4 L-3,2 Z " fill="#3B2688" transform="translate(396,349)"/>
<path d="M0,0 L3,0 L3,2 L1,2 L0,4 L-1,1 Z " fill="#10082E" transform="translate(344,785)"/>
<path d="M0,0 L1,2 L3,3 L-1,4 Z " fill="#4E3597" transform="translate(662,583)"/>
<path d="M0,0 L3,0 L3,3 L0,3 Z " fill="#4B2CA0" transform="translate(459,343)"/>
<path d="M0,0 L2,0 L1,4 L-1,4 Z " fill="#1D0D37" transform="translate(353,241)"/>
<path d="M0,0 L3,1 L2,3 L0,3 Z " fill="#643DD4" transform="translate(558,412)"/>
<path d="M0,0 L2,2 L-1,3 Z " fill="#593BAC" transform="translate(593,641)"/>
</svg>
