<?xml version="1.0" encoding="UTF-8"?>
<!-- Generator: visioncortex VTracer 0.6.4 -->
<svg version="1.1" xmlns="http://www.w3.org/2000/svg" width="1024" height="1024">
<path d="M0,0 L1024,0 L1024,1024 L0,1024 Z " fill="#000000" transform="translate(0,0)"/>
<path d="M0,0 L24,0 L24,2 L34,2 L34,4 L40,4 L40,6 L44,6 L44,8 L48,8 L48,10 L54,10 L54,20 L58,20 L58,24 L60,24 L60,26 L62,26 L62,30 L66,32 L66,34 L68,34 L68,56 L70,56 L70,64 L72,64 L72,96 L70,96 L70,130 L68,130 L68,132 L66,132 L66,140 L64,140 L64,146 L62,146 L62,154 L60,154 L60,160 L58,160 L58,176 L56,176 L56,184 L54,184 L54,192 L50,192 L50,198 L48,198 L48,216 L46,216 L46,218 L44,218 L44,224 L42,224 L42,230 L40,230 L40,232 L38,232 L38,238 L36,238 L36,242 L34,242 L34,246 L32,246 L32,248 L30,248 L30,254 L28,254 L28,258 L26,258 L26,264 L24,264 L24,268 L22,268 L22,272 L20,272 L20,276 L18,276 L18,280 L14,280 L14,284 L12,284 L12,288 L10,288 L10,294 L8,294 L8,296 L6,296 L6,298 L2,298 L2,304 L-2,304 L-2,308 L-4,308 L-4,310 L-9,314 L-10,316 L-14,316 L-14,320 L-18,320 L-18,324 L-22,324 L-22,328 L-28,328 L-28,332 L-30,332 L-30,338 L-32,338 L-32,342 L-36,342 L-36,344 L-42,344 L-42,346 L-44,346 L-44,348 L-50,348 L-50,350 L-52,350 L-52,352 L-56,356 L-60,356 L-60,358 L-68,358 L-68,360 L-70,360 L-70,364 L-72,364 L-72,366 L-74,366 L-74,370 L-76,370 L-76,372 L-80,372 L-80,374 L-84,374 L-84,376 L-102,376 L-102,378 L-110,378 L-110,380 L-117,382 L-118,384 L-122,384 L-122,386 L-126,386 L-126,388 L-134,388 L-134,390 L-142,390 L-142,392 L-160,392 L-160,390 L-168,390 L-168,388 L-188,388 L-188,386 L-194,386 L-194,384 L-202,384 L-202,380 L-210,380 L-210,378 L-214,378 L-214,376 L-222,376 L-222,374 L-227,373 L-228,370 L-232,370 L-232,366 L-236,364 L-236,362 L-240,362 L-240,360 L-250,360 L-250,358 L-254,358 L-254,356 L-258,356 L-258,354 L-262,354 L-262,352 L-266,352 L-266,348 L-270,348 L-270,346 L-278,346 L-278,344 L-283,343 L-284,340 L-290,340 L-290,336 L-294,336 L-294,330 L-298,328 L-298,326 L-308,326 L-308,324 L-314,324 L-314,318 L-316,318 L-316,314 L-318,314 L-318,312 L-322,312 L-326,308 L-326,304 L-328,304 L-328,298 L-330,298 L-330,294 L-332,294 L-332,284 L-334,284 L-334,280 L-336,280 L-338,273 L-340,272 L-340,262 L-342,262 L-342,258 L-344,258 L-344,252 L-342,252 L-342,236 L-340,236 L-339,231 L-336,230 L-336,228 L-334,228 L-334,224 L-332,224 L-332,216 L-330,216 L-330,210 L-328,210 L-328,208 L-326,208 L-326,202 L-322,200 L-322,198 L-320,198 L-320,196 L-318,196 L-318,194 L-316,194 L-316,190 L-314,190 L-314,188 L-312,188 L-311,183 L-308,182 L-308,180 L-300,180 L-300,176 L-298,176 L-298,172 L-296,172 L-296,166 L-294,166 L-294,162 L-290,162 L-290,158 L-286,158 L-286,156 L-284,156 L-284,150 L-282,150 L-282,146 L-280,146 L-280,140 L-278,140 L-278,136 L-274,136 L-274,134 L-270,134 L-270,132 L-268,132 L-268,130 L-262,130 L-262,124 L-264,124 L-264,116 L-262,116 L-262,112 L-260,112 L-260,110 L-254,110 L-254,114 L-252,114 L-252,104 L-254,104 L-254,108 L-262,108 L-262,104 L-266,102 L-266,100 L-278,100 L-278,86 L-280,86 L-280,72 L-278,72 L-278,68 L-266,68 L-266,72 L-262,72 L-262,68 L-254,68 L-254,66 L-250,66 L-250,64 L-226,64 L-222,68 L-222,90 L-220,90 L-220,92 L-214,92 L-214,98 L-216,98 L-216,104 L-210,104 L-210,112 L-196,112 L-196,110 L-194,110 L-194,108 L-190,108 L-190,106 L-188,106 L-188,102 L-186,102 L-186,100 L-162,100 L-162,94 L-154,94 L-154,96 L-150,96 L-148,92 L-144,88 L-142,88 L-142,86 L-138,86 L-138,84 L-134,84 L-134,82 L-130,82 L-130,68 L-126,68 L-126,66 L-124,66 L-124,64 L-122,64 L-122,60 L-108,60 L-107,55 L-104,52 L-102,52 L-102,50 L-98,50 L-98,48 L-94,48 L-94,42 L-88,36 L-86,36 L-86,34 L-82,34 L-82,30 L-80,30 L-80,28 L-78,28 L-78,24 L-72,24 L-72,22 L-66,22 L-66,20 L-58,20 L-58,18 L-50,18 L-50,14 L-44,14 L-44,12 L-40,12 L-40,10 L-38,10 L-38,8 L-34,8 L-34,4 L-26,4 L-26,2 L0,2 Z " fill="#ECAF9C" transform="translate(640,322)"/>
<path d="M0,0 L24,0 L24,2 L34,2 L34,4 L40,4 L40,6 L44,6 L44,8 L48,8 L48,10 L54,10 L54,20 L58,20 L58,24 L60,24 L60,26 L62,26 L62,30 L66,32 L66,34 L68,34 L68,56 L70,56 L70,64 L72,64 L72,96 L70,96 L70,130 L68,130 L68,132 L66,132 L66,140 L64,140 L64,146 L62,146 L62,154 L60,154 L60,160 L58,160 L58,176 L56,176 L56,184 L54,184 L54,192 L50,192 L50,198 L48,198 L48,216 L46,216 L46,218 L44,218 L44,224 L42,224 L42,230 L40,230 L40,232 L38,232 L38,238 L36,238 L36,242 L34,242 L34,246 L32,246 L32,248 L30,248 L30,254 L28,254 L28,258 L26,258 L26,264 L24,264 L24,268 L22,268 L22,272 L20,272 L20,276 L18,276 L18,280 L14,280 L14,284 L12,284 L12,288 L10,288 L10,294 L8,294 L8,296 L6,296 L6,298 L2,298 L2,304 L-2,304 L-2,308 L-4,308 L-4,310 L-9,314 L-10,316 L-14,316 L-14,320 L-18,320 L-18,324 L-22,324 L-22,328 L-28,328 L-28,332 L-30,332 L-30,338 L-32,338 L-32,342 L-36,342 L-36,344 L-42,344 L-42,346 L-44,346 L-44,348 L-50,348 L-50,350 L-52,350 L-52,352 L-56,356 L-60,356 L-60,358 L-68,358 L-68,360 L-70,360 L-70,364 L-72,364 L-72,366 L-74,366 L-74,370 L-76,370 L-76,372 L-80,372 L-80,374 L-84,374 L-84,376 L-102,376 L-102,378 L-110,378 L-110,380 L-117,382 L-118,384 L-122,384 L-122,386 L-126,386 L-126,388 L-134,388 L-134,390 L-142,390 L-142,392 L-160,392 L-160,390 L-168,390 L-168,389 L-160,389 L-161,386 L-159,386 L-159,388 L-142,388 L-135,389 L-135,387 L-137,387 L-137,385 L-133,382 L-130,382 L-130,377 L-134,376 L-136,375 L-136,373 L-144,374 L-159,374 L-165,372 L-165,371 L-150,370 L-128,370 L-128,372 L-122,372 L-125,370 L-125,368 L-130,367 L-126,366 L-120,368 L-119,366 L-111,366 L-108,368 L-98,367 L-88,367 L-80,362 L-76,357 L-73,357 L-72,350 L-68,349 L-68,351 L-66,351 L-66,349 L-64,349 L-65,343 L-63,340 L-58,340 L-56,341 L-43,338 L-41,334 L-38,334 L-38,337 L-35,337 L-35,331 L-39,330 L-42,331 L-48,329 L-46,325 L-42,324 L-42,322 L-38,323 L-34,324 L-32,319 L-27,314 L-25,314 L-25,312 L-30,312 L-31,310 L-34,311 L-33,308 L-27,308 L-28,304 L-25,300 L-23,300 L-23,297 L-26,298 L-25,294 L-23,292 L-18,292 L-17,290 L-11,288 L-10,285 L-12,284 L-12,279 L-8,278 L-8,276 L0,276 L4,275 L4,261 L7,260 L8,253 L9,252 L16,252 L16,250 L20,246 L20,220 L21,218 L23,218 L21,215 L22,209 L23,204 L23,199 L27,194 L32,189 L34,189 L34,178 L36,180 L38,176 L35,166 L34,164 L36,164 L34,156 L36,156 L36,151 L39,144 L41,134 L44,138 L44,150 L42,152 L43,158 L44,159 L44,164 L46,164 L44,170 L44,172 L47,173 L46,176 L52,174 L52,169 L50,166 L52,159 L52,153 L54,146 L53,142 L52,132 L52,126 L51,125 L51,117 L53,118 L52,101 L51,100 L52,92 L52,82 L51,75 L52,70 L50,70 L50,68 L48,68 L48,61 L49,59 L52,58 L52,39 L41,38 L41,31 L38,30 L35,23 L34,18 L32,18 L32,16 L28,15 L28,12 L22,12 L18,11 L-12,11 L-20,10 L-20,12 L-22,12 L-23,16 L-27,18 L-28,20 L-36,21 L-36,24 L-38,24 L-38,26 L-47,27 L-50,28 L-51,26 L-53,27 L-53,25 L-56,25 L-56,27 L-62,28 L-63,26 L-69,31 L-70,36 L-68,42 L-72,46 L-71,40 L-76,41 L-76,37 L-80,38 L-82,37 L-84,41 L-86,44 L-89,45 L-90,49 L-95,53 L-102,58 L-105,63 L-117,65 L-125,73 L-126,82 L-131,87 L-134,87 L-135,90 L-140,92 L-147,99 L-154,100 L-158,101 L-162,104 L-183,105 L-186,110 L-196,116 L-210,116 L-214,112 L-214,108 L-217,107 L-217,105 L-220,104 L-220,96 L-224,95 L-226,90 L-227,70 L-229,69 L-246,69 L-254,72 L-259,74 L-264,77 L-270,73 L-274,74 L-275,75 L-275,83 L-273,93 L-272,94 L-267,94 L-262,99 L-260,103 L-256,103 L-255,100 L-251,100 L-251,103 L-248,104 L-248,114 L-251,118 L-256,117 L-258,117 L-259,120 L-257,126 L-259,132 L-261,134 L-270,137 L-271,140 L-275,143 L-277,152 L-283,161 L-291,169 L-291,172 L-293,172 L-292,177 L-295,180 L-294,181 L-291,181 L-289,185 L-292,189 L-290,191 L-295,199 L-296,196 L-306,198 L-307,199 L-308,208 L-310,211 L-310,217 L-313,218 L-314,222 L-310,222 L-310,228 L-312,231 L-314,231 L-315,233 L-319,234 L-322,236 L-323,239 L-324,254 L-322,254 L-321,271 L-319,280 L-319,286 L-317,286 L-315,289 L-313,289 L-311,298 L-311,309 L-304,309 L-300,310 L-294,308 L-286,310 L-286,313 L-291,314 L-291,325 L-283,324 L-281,324 L-281,326 L-277,327 L-277,325 L-279,325 L-280,319 L-277,319 L-276,317 L-272,318 L-272,323 L-266,324 L-266,327 L-260,327 L-259,332 L-256,333 L-258,334 L-258,339 L-256,339 L-256,341 L-252,340 L-249,340 L-230,340 L-229,342 L-230,350 L-227,351 L-229,355 L-224,355 L-224,359 L-222,359 L-223,361 L-227,362 L-229,363 L-231,369 L-228,369 L-227,366 L-222,367 L-221,370 L-218,369 L-214,368 L-214,370 L-212,370 L-210,374 L-206,370 L-202,372 L-201,377 L-198,376 L-196,380 L-192,379 L-191,381 L-187,382 L-187,384 L-185,385 L-187,385 L-187,387 L-168,387 L-168,388 L-188,388 L-188,386 L-194,386 L-194,384 L-202,384 L-202,380 L-210,380 L-210,378 L-214,378 L-214,376 L-222,376 L-222,374 L-227,373 L-228,370 L-232,370 L-232,366 L-236,364 L-236,362 L-240,362 L-240,360 L-250,360 L-250,358 L-254,358 L-254,356 L-258,356 L-258,354 L-262,354 L-262,352 L-266,352 L-266,348 L-270,348 L-270,346 L-278,346 L-278,344 L-283,343 L-284,340 L-290,340 L-290,336 L-294,336 L-294,330 L-298,328 L-298,326 L-308,326 L-308,324 L-314,324 L-314,318 L-316,318 L-316,314 L-318,314 L-318,312 L-322,312 L-326,308 L-326,304 L-328,304 L-328,298 L-330,298 L-330,294 L-332,294 L-332,284 L-334,284 L-334,280 L-336,280 L-338,273 L-340,272 L-340,262 L-342,262 L-342,258 L-344,258 L-344,252 L-342,252 L-342,236 L-340,236 L-339,231 L-336,230 L-336,228 L-334,228 L-334,224 L-332,224 L-332,216 L-330,216 L-330,210 L-328,210 L-328,208 L-326,208 L-326,202 L-322,200 L-322,198 L-320,198 L-320,196 L-318,196 L-318,194 L-316,194 L-316,190 L-314,190 L-314,188 L-312,188 L-311,183 L-308,182 L-308,180 L-300,180 L-300,176 L-298,176 L-298,172 L-296,172 L-296,166 L-294,166 L-294,162 L-290,162 L-290,158 L-286,158 L-286,156 L-284,156 L-284,150 L-282,150 L-282,146 L-280,146 L-280,140 L-278,140 L-278,136 L-274,136 L-274,134 L-270,134 L-270,132 L-268,132 L-268,130 L-262,130 L-262,124 L-264,124 L-264,116 L-262,116 L-262,112 L-260,112 L-260,110 L-254,110 L-254,114 L-252,114 L-252,104 L-254,104 L-254,108 L-262,108 L-262,104 L-266,102 L-266,100 L-278,100 L-278,86 L-280,86 L-280,72 L-278,72 L-278,68 L-266,68 L-266,72 L-262,72 L-262,68 L-254,68 L-254,66 L-250,66 L-250,64 L-226,64 L-222,68 L-222,90 L-220,90 L-220,92 L-214,92 L-214,98 L-216,98 L-216,104 L-210,104 L-210,112 L-196,112 L-196,110 L-194,110 L-194,108 L-190,108 L-190,106 L-188,106 L-188,102 L-186,102 L-186,100 L-162,100 L-162,94 L-154,94 L-154,96 L-150,96 L-148,92 L-144,88 L-142,88 L-142,86 L-138,86 L-138,84 L-134,84 L-134,82 L-130,82 L-130,68 L-126,68 L-126,66 L-124,66 L-124,64 L-122,64 L-122,60 L-108,60 L-107,55 L-104,52 L-102,52 L-102,50 L-98,50 L-98,48 L-94,48 L-94,42 L-88,36 L-86,36 L-86,34 L-82,34 L-82,30 L-80,30 L-80,28 L-78,28 L-78,24 L-72,24 L-72,22 L-66,22 L-66,20 L-58,20 L-58,18 L-50,18 L-50,14 L-44,14 L-44,12 L-40,12 L-40,10 L-38,10 L-38,8 L-34,8 L-34,4 L-26,4 L-26,2 L0,2 Z M-72,36 Z M40,156 Z M43,172 Z M-39,337 Z M52,142 Z M35,152 Z M47,171 Z M19,222 Z " fill="#DAA192" transform="translate(640,322)"/>
<path d="M0,0 L4,1 L1,1 L1,3 L3,3 L2,7 L0,10 L-3,11 L-4,15 L-9,19 L-16,24 L-19,29 L-31,31 L-39,39 L-40,48 L-45,53 L-48,53 L-49,56 L-54,58 L-61,65 L-68,66 L-72,67 L-76,70 L-97,71 L-100,76 L-110,82 L-124,82 L-128,78 L-128,74 L-131,73 L-131,71 L-134,70 L-134,62 L-138,61 L-140,56 L-141,36 L-143,35 L-160,35 L-168,38 L-173,40 L-178,43 L-184,39 L-188,40 L-189,41 L-189,49 L-187,59 L-186,60 L-181,60 L-176,65 L-174,69 L-170,69 L-169,66 L-165,66 L-165,69 L-162,70 L-162,80 L-165,84 L-170,83 L-172,83 L-173,86 L-171,92 L-173,98 L-175,100 L-184,103 L-185,106 L-189,109 L-191,118 L-197,127 L-205,135 L-205,138 L-207,138 L-206,143 L-209,146 L-208,147 L-205,147 L-203,151 L-206,155 L-204,157 L-209,165 L-210,162 L-220,164 L-221,165 L-222,174 L-224,177 L-224,183 L-227,184 L-228,188 L-224,188 L-224,194 L-226,197 L-228,197 L-229,199 L-233,200 L-236,202 L-237,205 L-238,220 L-236,220 L-235,237 L-233,246 L-233,252 L-231,252 L-229,255 L-227,255 L-225,264 L-225,275 L-218,275 L-214,276 L-208,274 L-200,276 L-200,279 L-205,280 L-205,291 L-197,290 L-195,290 L-195,292 L-191,293 L-191,291 L-193,291 L-194,285 L-191,285 L-190,283 L-186,284 L-186,289 L-180,290 L-180,293 L-174,293 L-173,298 L-170,299 L-172,300 L-172,305 L-170,305 L-170,307 L-166,306 L-163,306 L-144,306 L-143,308 L-144,316 L-141,317 L-143,321 L-138,321 L-138,325 L-136,325 L-137,327 L-141,328 L-143,329 L-145,335 L-142,335 L-141,332 L-136,333 L-135,336 L-132,335 L-128,334 L-128,336 L-126,336 L-124,340 L-120,336 L-116,338 L-115,343 L-112,342 L-110,346 L-106,345 L-105,347 L-101,348 L-101,350 L-99,351 L-101,351 L-101,353 L-82,353 L-82,354 L-102,354 L-102,352 L-108,352 L-108,350 L-116,350 L-116,346 L-124,346 L-124,344 L-128,344 L-128,342 L-136,342 L-136,340 L-141,339 L-142,336 L-146,336 L-146,332 L-150,330 L-150,328 L-154,328 L-154,326 L-164,326 L-164,324 L-168,324 L-168,322 L-172,322 L-172,320 L-176,320 L-176,318 L-180,318 L-180,314 L-184,314 L-184,312 L-192,312 L-192,310 L-197,309 L-198,306 L-204,306 L-204,302 L-208,302 L-208,296 L-212,294 L-212,292 L-222,292 L-222,290 L-228,290 L-228,284 L-230,284 L-230,280 L-232,280 L-232,278 L-236,278 L-240,274 L-240,270 L-242,270 L-242,264 L-244,264 L-244,260 L-246,260 L-246,250 L-248,250 L-248,246 L-250,246 L-252,239 L-254,238 L-254,228 L-256,228 L-256,224 L-258,224 L-258,218 L-256,218 L-256,202 L-254,202 L-253,197 L-250,196 L-250,194 L-248,194 L-248,190 L-246,190 L-246,182 L-244,182 L-244,176 L-242,176 L-242,174 L-240,174 L-240,168 L-236,166 L-236,164 L-234,164 L-234,162 L-232,162 L-232,160 L-230,160 L-230,156 L-228,156 L-228,154 L-226,154 L-225,149 L-222,148 L-222,146 L-214,146 L-214,142 L-212,142 L-212,138 L-210,138 L-210,132 L-208,132 L-208,128 L-204,128 L-204,124 L-200,124 L-200,122 L-198,122 L-198,116 L-196,116 L-196,112 L-194,112 L-194,106 L-192,106 L-192,102 L-188,102 L-188,100 L-184,100 L-184,98 L-182,98 L-182,96 L-176,96 L-176,90 L-178,90 L-178,82 L-176,82 L-176,78 L-174,78 L-174,76 L-168,76 L-168,80 L-166,80 L-166,70 L-168,70 L-168,74 L-176,74 L-176,70 L-180,68 L-180,66 L-192,66 L-192,52 L-194,52 L-194,38 L-192,38 L-192,34 L-180,34 L-180,38 L-176,38 L-176,34 L-168,34 L-168,32 L-164,32 L-164,30 L-140,30 L-136,34 L-136,56 L-134,56 L-134,58 L-128,58 L-128,64 L-130,64 L-130,70 L-124,70 L-124,78 L-110,78 L-110,76 L-108,76 L-108,74 L-104,74 L-104,72 L-102,72 L-102,68 L-100,68 L-100,66 L-76,66 L-76,60 L-68,60 L-68,62 L-64,62 L-62,58 L-58,54 L-56,54 L-56,52 L-52,52 L-52,50 L-48,50 L-48,48 L-44,48 L-44,34 L-40,34 L-40,32 L-38,32 L-38,30 L-36,30 L-36,26 L-22,26 L-21,21 L-18,18 L-16,18 L-16,16 L-12,16 L-12,14 L-8,14 L-8,8 L-2,2 L0,2 Z " fill="#D79A88" transform="translate(554,356)"/>
<path d="M0,0 L26,0 L26,2 L65,2 L66,4 L69,4 L70,6 L73,6 L73,8 L71,9 L74,11 L74,20 L80,20 L81,18 L83,18 L83,21 L85,23 L84,30 L87,39 L87,42 L90,41 L91,58 L92,67 L91,69 L91,74 L93,74 L93,85 L91,85 L91,107 L90,108 L88,117 L84,133 L82,141 L79,139 L78,129 L78,123 L77,122 L77,114 L79,115 L78,98 L77,97 L78,89 L78,79 L77,72 L78,67 L76,67 L76,65 L74,65 L74,58 L75,56 L78,55 L78,36 L67,35 L67,28 L64,27 L61,20 L60,15 L58,15 L58,13 L54,12 L54,9 L48,9 L44,8 L14,8 L6,7 L6,9 L4,9 L3,13 L-1,15 L-2,17 L-10,18 L-10,21 L-12,21 L-12,23 L-21,24 L-24,25 L-25,23 L-27,24 L-27,22 L-30,22 L-30,24 L-36,25 L-37,23 L-43,28 L-44,33 L-42,39 L-46,43 L-45,37 L-50,38 L-50,34 L-54,35 L-56,34 L-57,36 L-57,34 L-59,34 L-59,32 L-56,32 L-56,27 L-54,27 L-54,25 L-52,25 L-52,21 L-46,21 L-46,19 L-40,19 L-40,17 L-32,17 L-32,15 L-24,15 L-24,11 L-18,11 L-18,9 L-14,9 L-14,7 L-12,7 L-12,5 L-8,5 L-8,1 Z M-46,33 Z M90,74 Z M78,139 Z " fill="#DC9C92" transform="translate(614,325)"/>
<path d="M0,0 L4,1 L1,1 L1,3 L3,3 L2,7 L0,10 L-3,11 L-4,15 L-9,19 L-16,24 L-19,29 L-31,31 L-39,39 L-40,48 L-45,53 L-48,53 L-49,56 L-54,58 L-61,65 L-68,66 L-72,67 L-76,70 L-97,71 L-100,76 L-110,82 L-124,82 L-128,78 L-128,74 L-131,73 L-131,71 L-134,70 L-134,62 L-138,61 L-140,56 L-141,36 L-143,35 L-160,35 L-168,38 L-173,40 L-178,43 L-184,39 L-188,40 L-189,41 L-189,49 L-187,59 L-186,60 L-181,60 L-176,65 L-174,69 L-170,69 L-169,66 L-165,66 L-165,69 L-162,70 L-162,80 L-165,84 L-170,83 L-172,83 L-173,86 L-171,92 L-173,98 L-175,100 L-184,103 L-185,106 L-189,109 L-191,118 L-197,127 L-205,135 L-205,138 L-207,138 L-206,143 L-209,146 L-210,149 L-213,149 L-213,147 L-221,147 L-222,155 L-224,153 L-226,154 L-225,149 L-222,148 L-222,146 L-214,146 L-214,142 L-212,142 L-212,138 L-210,138 L-210,132 L-208,132 L-208,128 L-204,128 L-204,124 L-200,124 L-200,122 L-198,122 L-198,116 L-196,116 L-196,112 L-194,112 L-194,106 L-192,106 L-192,102 L-188,102 L-188,100 L-184,100 L-184,98 L-182,98 L-182,96 L-176,96 L-176,90 L-178,90 L-178,82 L-176,82 L-176,78 L-174,78 L-174,76 L-168,76 L-168,80 L-166,80 L-166,70 L-168,70 L-168,74 L-176,74 L-176,70 L-180,68 L-180,66 L-192,66 L-192,52 L-194,52 L-194,38 L-192,38 L-192,34 L-180,34 L-180,38 L-176,38 L-176,34 L-168,34 L-168,32 L-164,32 L-164,30 L-140,30 L-136,34 L-136,56 L-134,56 L-134,58 L-128,58 L-128,64 L-130,64 L-130,70 L-124,70 L-124,78 L-110,78 L-110,76 L-108,76 L-108,74 L-104,74 L-104,72 L-102,72 L-102,68 L-100,68 L-100,66 L-76,66 L-76,60 L-68,60 L-68,62 L-64,62 L-62,58 L-58,54 L-56,54 L-56,52 L-52,52 L-52,50 L-48,50 L-48,48 L-44,48 L-44,34 L-40,34 L-40,32 L-38,32 L-38,30 L-36,30 L-36,26 L-22,26 L-21,21 L-18,18 L-16,18 L-16,16 L-12,16 L-12,14 L-8,14 L-8,8 L-2,2 L0,2 Z " fill="#CD8D84" transform="translate(554,356)"/>
<path d="M0,0 L24,0 L24,2 L34,2 L34,4 L40,4 L40,6 L44,6 L44,8 L48,8 L48,10 L54,10 L54,20 L58,20 L58,24 L60,24 L60,26 L62,26 L62,30 L66,32 L66,34 L68,34 L68,56 L70,56 L70,64 L72,64 L72,96 L70,96 L70,130 L68,130 L68,132 L66,132 L66,140 L64,140 L64,146 L62,146 L62,154 L60,154 L60,160 L58,160 L58,176 L56,176 L56,184 L54,184 L54,192 L50,192 L50,198 L48,198 L48,216 L46,216 L46,218 L44,218 L44,224 L42,224 L42,230 L41,230 L41,224 L39,224 L39,229 L38,229 L38,223 L40,223 L40,218 L41,218 L41,223 L43,223 L41,215 L43,215 L43,194 L47,192 L47,197 L49,197 L49,191 L44,190 L45,180 L48,175 L52,174 L52,169 L50,166 L52,159 L52,153 L55,144 L59,128 L62,118 L63,111 L64,109 L64,90 L65,88 L67,88 L67,77 L65,77 L64,71 L65,67 L64,57 L63,45 L61,45 L57,33 L58,26 L56,24 L57,21 L55,21 L54,24 L48,23 L47,14 L44,11 L47,11 L47,9 L40,10 L43,9 L43,7 L34,8 L34,7 L39,7 L39,5 L34,6 L22,6 L0,5 L0,3 L-26,3 L-26,2 L0,2 Z M64,77 Z " fill="#D49C8C" transform="translate(640,322)"/>
<path d="M0,0 L2,1 L4,5 L1,9 L3,11 L-2,19 L-3,16 L-13,18 L-14,19 L-15,28 L-18,35 L-23,37 L-23,40 L-25,40 L-25,42 L-27,42 L-28,46 L-32,48 L-35,56 L-37,68 L-36,87 L-33,114 L-34,123 L-32,123 L-32,118 L-30,122 L-29,127 L-24,128 L-28,129 L-28,131 L-22,130 L-20,131 L-19,129 L-17,132 L-16,141 L-18,141 L-18,138 L-20,138 L-20,143 L-15,143 L-15,144 L-21,144 L-21,138 L-23,138 L-23,134 L-25,134 L-25,132 L-29,132 L-33,128 L-33,124 L-35,124 L-35,118 L-37,118 L-37,114 L-39,114 L-39,104 L-41,104 L-41,100 L-43,100 L-45,93 L-47,92 L-47,82 L-49,82 L-49,78 L-51,78 L-51,72 L-49,72 L-49,56 L-47,56 L-46,51 L-43,50 L-43,48 L-41,48 L-41,44 L-39,44 L-39,36 L-37,36 L-37,30 L-35,30 L-35,28 L-33,28 L-33,22 L-29,20 L-29,18 L-27,18 L-27,16 L-25,16 L-25,14 L-23,14 L-23,10 L-21,10 L-21,8 L-18,8 L-17,5 L-16,7 L-14,1 L-6,1 L-6,3 L-1,1 Z " fill="#D4998E" transform="translate(347,502)"/>
<path d="M0,0 L1,3 L3,3 L4,0 L4,4 L2,4 L2,10 L0,10 L0,14 L-4,14 L-4,16 L-10,16 L-10,18 L-12,18 L-12,20 L-18,20 L-18,22 L-20,22 L-20,24 L-24,28 L-28,28 L-28,30 L-36,30 L-36,32 L-38,32 L-38,36 L-40,36 L-40,38 L-42,38 L-42,42 L-44,42 L-44,44 L-48,44 L-48,46 L-52,46 L-52,48 L-70,48 L-70,50 L-78,50 L-78,52 L-85,54 L-86,56 L-90,56 L-90,58 L-94,58 L-94,60 L-102,60 L-102,62 L-110,62 L-110,64 L-128,64 L-128,62 L-136,62 L-136,61 L-128,61 L-129,58 L-127,58 L-127,60 L-110,60 L-103,61 L-103,59 L-105,59 L-105,57 L-101,54 L-98,54 L-98,49 L-102,48 L-104,47 L-104,45 L-112,46 L-127,46 L-133,44 L-133,43 L-118,42 L-96,42 L-96,44 L-90,44 L-93,42 L-93,40 L-98,39 L-94,38 L-88,40 L-87,38 L-79,38 L-76,40 L-66,39 L-56,39 L-48,34 L-44,29 L-41,29 L-40,22 L-36,21 L-36,23 L-34,23 L-34,21 L-32,21 L-33,15 L-31,12 L-26,12 L-24,13 L-11,10 L-9,6 L-6,6 L-6,9 L-3,9 L-3,4 L0,3 Z M-7,9 Z " fill="#D5A294" transform="translate(608,650)"/>
<path d="M0,0 L26,0 L26,2 L65,2 L66,4 L69,4 L70,6 L73,6 L73,8 L71,9 L74,11 L74,20 L69,20 L69,18 L60,18 L60,15 L58,15 L58,13 L54,12 L54,9 L48,9 L44,8 L14,8 L6,7 L6,9 L4,9 L3,13 L-1,15 L-2,17 L-10,18 L-10,21 L-12,21 L-12,23 L-21,24 L-24,25 L-25,23 L-27,24 L-27,22 L-30,22 L-30,24 L-36,25 L-37,23 L-43,28 L-44,33 L-42,39 L-46,43 L-45,37 L-50,38 L-50,34 L-54,35 L-56,34 L-57,36 L-57,34 L-59,34 L-59,32 L-56,32 L-56,27 L-54,27 L-54,25 L-52,25 L-52,21 L-46,21 L-46,19 L-40,19 L-40,17 L-32,17 L-32,15 L-24,15 L-24,11 L-18,11 L-18,9 L-14,9 L-14,7 L-12,7 L-12,5 L-8,5 L-8,1 Z M-46,33 Z " fill="#D89F94" transform="translate(614,325)"/>
<path d="M0,0 L3,0 L2,3 L0,3 L-1,7 L3,7 L3,13 L1,16 L-1,16 L-2,18 L-6,19 L-9,21 L-10,24 L-11,39 L-9,39 L-8,56 L-6,65 L-6,71 L-4,71 L-2,74 L0,74 L2,83 L2,94 L9,94 L13,95 L19,93 L27,95 L27,98 L22,99 L22,110 L24,111 L20,112 L16,112 L16,110 L18,110 L16,105 L14,105 L15,110 L5,110 L5,108 L0,108 L0,103 L2,103 L2,106 L4,106 L2,97 L-2,96 L-8,96 L-8,94 L-6,93 L-9,92 L-11,87 L-14,88 L-15,67 L-17,50 L-18,33 L-16,21 L-12,12 L-8,10 L-7,7 L-5,7 L-5,5 L-3,5 L-3,2 Z " fill="#DEA295" transform="translate(327,537)"/>
<path d="M0,0 L12,1 L38,1 L46,3 L46,6 L50,7 L50,9 L52,9 L56,17 L57,21 L59,22 L58,25 L55,25 L52,19 L49,18 L47,24 L44,26 L40,22 L40,19 L23,19 L24,17 L30,18 L30,15 L23,15 L20,15 L14,16 L14,14 L4,16 L-2,15 L-11,15 L-17,18 L-18,25 L-12,25 L-12,27 L-19,30 L-24,33 L-26,33 L-26,31 L-24,29 L-22,23 L-22,17 L-20,17 L-20,15 L-18,15 L-18,12 L-16,11 L-10,11 L-9,8 L-5,6 L-4,3 L-2,3 L-2,1 Z " fill="#E5AC9F" transform="translate(622,331)"/>
<path d="M0,0 L3,0 L3,7 L5,7 L5,2 L6,2 L6,7 L8,7 L7,0 L11,2 L9,2 L9,8 L7,8 L7,12 L5,12 L5,16 L3,16 L3,18 L1,18 L1,24 L-1,24 L-1,28 L-3,28 L-3,34 L-5,34 L-5,38 L-7,38 L-7,42 L-9,42 L-9,46 L-11,46 L-11,50 L-15,50 L-15,54 L-17,54 L-17,58 L-19,58 L-19,64 L-21,64 L-21,66 L-23,66 L-23,68 L-27,68 L-27,74 L-31,74 L-31,78 L-33,78 L-33,80 L-38,84 L-39,86 L-43,86 L-43,90 L-47,90 L-47,94 L-51,94 L-51,98 L-57,98 L-57,97 L-52,97 L-53,92 L-52,88 L-54,88 L-53,84 L-45,78 L-43,78 L-42,74 L-39,70 L-37,70 L-35,64 L-29,61 L-25,58 L-24,51 L-21,47 L-18,37 L-13,36 L-12,32 L-7,27 L-4,15 L-3,14 L-1,1 Z " fill="#D69C8B" transform="translate(669,552)"/>
<path d="M0,0 L2,0 L2,3 L4,5 L3,12 L6,21 L6,24 L9,23 L10,40 L11,49 L10,51 L10,56 L12,56 L12,67 L10,67 L10,89 L9,90 L7,99 L3,115 L1,123 L-2,121 L-1,113 L0,90 L0,79 L2,79 L2,69 L5,58 L2,57 L4,49 L2,48 L3,43 L4,39 L3,35 L3,23 L3,20 L0,9 L-3,8 L-3,6 L-7,6 L-7,2 L-1,2 Z M9,56 Z M2,28 Z M-3,121 Z " fill="#D89F8F" transform="translate(695,343)"/>
<path d="M0,0 L2,1 L4,5 L1,9 L3,11 L-2,19 L-3,16 L-13,18 L-14,19 L-15,28 L-18,35 L-23,37 L-23,40 L-25,40 L-25,42 L-27,42 L-28,46 L-32,48 L-35,56 L-37,68 L-38,68 L-38,57 L-36,48 L-34,48 L-33,38 L-31,35 L-27,33 L-27,28 L-30,28 L-30,23 L-32,23 L-32,28 L-33,28 L-33,22 L-29,20 L-29,18 L-27,18 L-27,16 L-25,16 L-25,14 L-23,14 L-23,10 L-21,10 L-21,8 L-18,8 L-17,5 L-16,7 L-14,1 L-6,1 L-6,3 L-1,1 Z " fill="#D89889" transform="translate(347,502)"/>
<path d="M0,0 L1,2 L3,2 L1,8 L1,10 L4,11 L4,17 L2,22 L1,28 L6,29 L6,35 L4,35 L4,30 L1,32 L0,53 L-2,53 L0,56 L0,61 L-5,61 L-2,62 L-2,68 L-6,70 L-6,75 L-11,75 L-11,68 L-14,69 L-16,82 L-19,90 L-21,96 L-26,101 L-27,104 L-31,105 L-33,111 L-34,111 L-33,104 L-31,98 L-26,97 L-25,93 L-22,92 L-23,88 L-20,78 L-18,78 L-18,70 L-14,64 L-13,60 L-11,60 L-8,50 L-9,44 L-7,44 L-6,28 L-4,20 L-2,5 Z M0,10 Z M4,9 Z " fill="#D99F8D" transform="translate(683,484)"/>
<path d="M0,0 L1,0 L1,13 L12,13 L13,11 L18,15 L18,17 L22,17 L23,14 L27,14 L27,17 L30,18 L30,28 L27,32 L22,31 L20,31 L19,34 L21,40 L19,46 L17,48 L8,51 L7,54 L3,57 L1,66 L-5,75 L-13,83 L-13,86 L-15,86 L-14,91 L-17,94 L-18,97 L-21,97 L-21,95 L-29,95 L-30,103 L-32,101 L-34,102 L-33,97 L-30,96 L-30,94 L-22,94 L-22,90 L-20,90 L-20,86 L-18,86 L-18,80 L-16,80 L-16,76 L-12,76 L-12,72 L-8,72 L-8,70 L-6,70 L-6,64 L-4,64 L-4,60 L-2,60 L-2,54 L0,54 L0,50 L4,50 L4,48 L8,48 L8,46 L10,46 L10,44 L16,44 L16,38 L14,38 L14,30 L16,30 L16,26 L18,26 L18,24 L24,24 L24,28 L26,28 L26,18 L24,18 L24,22 L16,22 L16,18 L12,16 L12,14 L0,14 Z " fill="#C68678" transform="translate(362,408)"/>
<path d="M0,0 L3,4 L3,16 L1,18 L2,24 L3,28 L0,38 L-2,54 L-3,56 L-5,72 L-7,72 L-6,78 L-8,80 L-14,81 L-13,86 L-15,88 L-18,104 L-21,108 L-21,86 L-20,84 L-18,84 L-20,81 L-19,75 L-18,70 L-18,65 L-14,60 L-9,55 L-7,55 L-7,44 L-5,46 L-3,42 L-6,32 L-7,30 L-5,30 L-7,22 L-5,22 L-5,17 L-2,10 Z M-1,22 Z M-6,18 Z M-22,88 Z " fill="#E0A692" transform="translate(681,456)"/>
<path d="M0,0 L2,0 L4,5 L3,6 L9,6 L12,4 L18,4 L19,7 L29,10 L34,15 L35,19 L39,22 L38,29 L34,29 L34,31 L40,30 L38,31 L38,33 L41,33 L41,31 L44,32 L42,33 L42,35 L45,35 L45,33 L48,33 L48,35 L46,35 L46,37 L49,36 L61,36 L63,39 L60,39 L60,41 L65,40 L65,45 L63,44 L63,42 L59,42 L59,40 L49,40 L49,38 L45,38 L45,36 L41,36 L41,34 L37,34 L37,32 L33,32 L33,28 L29,28 L29,26 L21,26 L21,24 L16,23 L15,20 L9,20 L9,16 L5,16 L5,10 L1,8 L1,6 L-9,6 L-9,5 L1,5 Z " fill="#D79582" transform="translate(341,642)"/>
<path d="M0,0 L24,0 L24,2 L34,2 L34,4 L40,4 L40,6 L44,6 L44,8 L48,8 L48,10 L54,10 L54,20 L58,20 L58,24 L60,24 L60,26 L62,26 L62,30 L66,32 L66,34 L68,34 L68,56 L70,56 L70,64 L72,64 L72,96 L71,96 L71,65 L69,65 L68,67 L68,65 L66,65 L66,57 L64,57 L63,45 L61,45 L57,33 L58,26 L56,24 L57,21 L55,21 L54,24 L48,23 L47,14 L44,11 L47,11 L47,9 L40,10 L43,9 L43,7 L34,8 L34,7 L39,7 L39,5 L34,6 L22,6 L0,5 L0,3 L-26,3 L-26,2 L0,2 Z " fill="#D59A8E" transform="translate(640,322)"/>
<path d="M0,0 L7,1 L10,2 L11,0 L19,0 L23,4 L22,6 L18,7 L27,9 L27,11 L19,11 L19,13 L14,13 L12,18 L8,18 L8,20 L4,20 L4,22 L-4,22 L-4,24 L-12,24 L-12,26 L-30,26 L-30,24 L-38,24 L-38,23 L-30,23 L-31,20 L-29,20 L-29,22 L-12,22 L-5,23 L-5,21 L-7,21 L-7,19 L-3,16 L0,16 L0,11 L-4,10 L-6,9 L-6,7 L-14,8 L-29,8 L-35,6 L-35,5 L-20,4 L2,4 L2,6 L8,6 L5,4 L5,2 L0,1 Z " fill="#D6A496" transform="translate(510,688)"/>
<path d="M0,0 L4,1 L1,1 L1,3 L3,3 L2,7 L0,10 L-3,11 L-4,15 L-9,19 L-16,24 L-19,29 L-31,31 L-39,39 L-40,48 L-45,53 L-48,53 L-49,56 L-54,58 L-61,65 L-68,66 L-72,67 L-76,69 L-76,67 L-100,67 L-100,66 L-76,66 L-76,60 L-68,60 L-68,62 L-64,62 L-62,58 L-58,54 L-56,54 L-56,52 L-52,52 L-52,50 L-48,50 L-48,48 L-44,48 L-44,34 L-40,34 L-40,32 L-38,32 L-38,30 L-36,30 L-36,26 L-22,26 L-21,21 L-18,18 L-16,18 L-16,16 L-12,16 L-12,14 L-8,14 L-8,8 L-2,2 L0,2 Z " fill="#CF9388" transform="translate(554,356)"/>
<path d="M0,0 L2,1 L2,7 L5,7 L5,9 L9,9 L9,11 L11,11 L12,8 L16,21 L16,23 L23,23 L27,24 L33,22 L41,24 L41,27 L36,28 L36,39 L38,40 L34,41 L30,41 L30,39 L32,39 L30,34 L28,34 L29,39 L19,39 L19,37 L14,37 L14,32 L16,32 L16,35 L18,35 L16,26 L12,25 L6,25 L6,23 L8,22 L5,21 L3,16 L0,17 Z " fill="#D59A8B" transform="translate(313,608)"/>
<path d="M0,0 L12,1 L38,1 L46,3 L46,6 L50,7 L50,9 L52,9 L51,13 L49,14 L47,13 L34,12 L32,11 L32,9 L26,9 L26,7 L10,8 L11,11 L7,12 L-4,12 L-14,14 L-18,14 L-18,12 L-16,11 L-10,11 L-9,8 L-5,6 L-4,3 L-2,3 L-2,1 Z " fill="#DEA499" transform="translate(622,331)"/>
<path d="M0,0 L1,2 L-2,6 L-4,12 L-6,33 L-8,33 L-7,37 L-3,41 L-4,49 L-3,54 L-6,60 L-10,58 L-11,45 L-12,43 L-13,28 L-12,26 L-14,26 L-14,11 L-12,7 L-8,4 L-4,3 Z " fill="#E8A99B" transform="translate(330,550)"/>
<path d="M0,0 L1,0 L1,5 L3,5 L3,0 L4,0 L4,6 L2,6 L2,22 L0,22 L0,30 L-2,30 L-2,38 L-6,38 L-6,44 L-8,44 L-8,62 L-10,62 L-10,64 L-12,64 L-12,70 L-14,70 L-14,76 L-15,76 L-15,70 L-17,70 L-17,75 L-18,75 L-18,69 L-16,69 L-16,64 L-15,64 L-15,69 L-13,69 L-15,61 L-13,61 L-13,40 L-9,38 L-9,43 L-7,43 L-7,37 L-12,36 L-11,26 L-8,21 L-4,20 L-2,6 L-1,6 L-1,21 L1,21 Z " fill="#D09685" transform="translate(696,476)"/>
<path d="M0,0 L2,0 L2,21 L5,21 L5,23 L11,23 L11,29 L9,29 L9,35 L15,35 L15,43 L29,43 L29,41 L31,41 L31,39 L35,39 L35,37 L37,37 L37,33 L39,32 L63,32 L63,35 L42,36 L39,41 L29,47 L15,47 L11,43 L11,39 L8,38 L8,36 L5,35 L5,27 L1,26 L0,23 Z " fill="#C48A7B" transform="translate(415,391)"/>
<path d="M0,0 L3,0 L3,7 L5,7 L5,2 L6,2 L6,7 L8,7 L7,0 L11,2 L9,2 L9,8 L7,8 L7,12 L5,12 L5,16 L3,16 L3,18 L1,18 L1,24 L-1,24 L-1,28 L-3,28 L-3,34 L-5,34 L-5,38 L-7,38 L-7,42 L-9,42 L-9,46 L-11,46 L-11,50 L-15,49 L-12,49 L-12,47 L-18,48 L-17,41 L-13,38 L-10,31 L-7,27 L-4,15 L-3,14 L-1,1 Z " fill="#D39989" transform="translate(669,552)"/>
<path d="M0,0 L3,0 L3,2 L8,3 L8,5 L6,6 L4,12 L7,12 L8,9 L13,10 L14,13 L17,12 L21,11 L21,13 L23,13 L25,17 L29,13 L33,15 L34,20 L37,19 L39,23 L43,22 L44,24 L48,25 L48,27 L50,28 L48,28 L48,30 L67,30 L67,31 L47,31 L47,29 L41,29 L41,27 L33,27 L33,23 L25,23 L25,21 L21,21 L21,19 L13,19 L13,17 L8,16 L7,13 L3,13 L3,9 L1,8 L4,8 L4,5 L2,5 L2,2 L0,2 Z " fill="#C39282" transform="translate(405,679)"/>
<path d="M0,0 L3,0 L3,7 L6,8 L8,18 L11,20 L8,41 L6,41 L7,59 L6,75 L4,79 L3,79 L3,67 L2,66 L2,58 L4,59 L3,42 L2,41 L3,33 L3,23 L2,16 L3,11 L1,11 L1,9 L-1,9 L-1,2 Z " fill="#DFA594" transform="translate(689,381)"/>
<path d="M0,0 L8,0 L8,1 L1,1 L1,3 L8,3 L8,4 L3,5 L2,9 L-4,10 L-5,8 L-11,13 L-12,18 L-10,24 L-14,28 L-13,22 L-18,23 L-18,19 L-22,20 L-24,19 L-25,21 L-25,19 L-27,19 L-27,17 L-24,17 L-24,12 L-22,12 L-22,10 L-20,10 L-20,6 L-14,6 L-14,4 L-8,4 L-8,2 L0,2 Z M-14,18 Z " fill="#D49A90" transform="translate(582,340)"/>
<path d="M0,0 L26,0 L26,2 L65,2 L65,4 L54,5 L4,5 L-2,7 L-2,9 L-6,9 L-6,11 L-14,11 L-17,10 L-17,12 L-15,12 L-15,14 L-18,14 L-18,12 L-23,12 L-24,15 L-24,11 L-18,11 L-18,9 L-14,9 L-14,7 L-12,7 L-12,5 L-8,5 L-8,1 Z " fill="#D69E91" transform="translate(614,325)"/>
<path d="M0,0 L7,1 L3,8 L2,14 L-1,17 L-4,22 L-7,22 L-9,26 L-10,28 L-13,29 L-14,33 L-16,33 L-16,36 L-22,36 L-23,34 L-26,35 L-25,32 L-19,32 L-20,28 L-17,24 L-15,24 L-15,21 L-18,22 L-17,18 L-15,16 L-10,16 L-9,14 L-3,12 L-2,9 L-4,8 L-4,3 L0,2 Z " fill="#DFA694" transform="translate(632,598)"/>
<path d="M0,0 L2,1 L2,9 L0,17 L-2,17 L-3,19 L-3,17 L-5,17 L-3,23 L-3,28 L-7,31 L-8,42 L-11,46 L-11,50 L-13,50 L-13,53 L-11,53 L-11,51 L-8,52 L-8,63 L-9,63 L-9,54 L-11,54 L-11,64 L-12,64 L-12,54 L-14,54 L-14,50 L-16,50 L-16,44 L-14,44 L-14,28 L-12,28 L-11,23 L-8,22 L-8,20 L-6,20 L-6,16 L-4,16 L-4,8 L-2,8 L-2,2 L0,2 Z " fill="#D19489" transform="translate(312,530)"/>
<path d="M0,0 L14,0 L17,4 L17,10 L15,14 L8,17 L-2,13 L-2,11 L-5,10 L-4,4 L-1,3 Z " fill="#CE8C7E" transform="translate(395,448)"/>
<path d="M0,0 L20,0 L21,2 L20,10 L23,11 L21,15 L26,15 L26,19 L28,19 L27,21 L20,20 L15,15 L13,12 L12,14 L8,13 L7,9 L3,10 L1,6 L-1,5 Z " fill="#E0A390" transform="translate(390,662)"/>
<path d="M0,0 L2,0 L4,5 L3,6 L9,6 L12,4 L13,6 L17,7 L17,10 L22,11 L18,13 L18,19 L24,18 L32,18 L28,21 L28,23 L22,23 L22,25 L29,25 L29,23 L32,23 L32,25 L30,25 L30,27 L33,28 L29,28 L29,26 L21,26 L21,24 L16,23 L15,20 L9,20 L9,16 L5,16 L5,10 L1,8 L1,6 L-9,6 L-9,5 L1,5 Z " fill="#D29483" transform="translate(341,642)"/>
<path d="M0,0 L2,0 L2,3 L4,5 L3,12 L6,21 L6,24 L9,23 L10,40 L11,49 L8,55 L5,58 L2,57 L4,49 L2,48 L3,43 L4,39 L3,35 L3,23 L3,20 L0,9 L-3,8 L-3,6 L-7,6 L-7,2 L-1,2 Z M2,28 Z " fill="#D79B90" transform="translate(695,343)"/>
<path d="M0,0 L3,0 L2,3 L0,3 L-1,13 L-8,15 L-11,21 L-14,39 L-14,53 L-12,62 L-11,63 L-11,73 L-9,73 L-7,80 L-9,80 L-9,78 L-12,78 L-14,71 L-17,50 L-18,33 L-16,21 L-12,12 L-8,10 L-7,7 L-5,7 L-5,5 L-3,5 L-3,2 Z " fill="#DA9F93" transform="translate(327,537)"/>
<path d="M0,0 L2,1 L-2,10 L-4,10 L-5,15 L-8,20 L-9,28 L-11,28 L-12,36 L-13,42 L-16,44 L-17,47 L-21,48 L-21,46 L-24,49 L-26,53 L-27,62 L-29,63 L-30,52 L-29,48 L-27,48 L-26,41 L-25,40 L-18,40 L-18,38 L-14,34 L-13,27 L-12,26 L-10,16 L-9,9 L-6,8 L-8,3 Z M-30,63 Z " fill="#DDA38F" transform="translate(674,534)"/>
<path d="M0,0 L1,3 L3,3 L4,0 L4,4 L2,4 L2,10 L0,10 L0,14 L-4,14 L-4,16 L-10,16 L-10,18 L-12,18 L-12,20 L-18,20 L-18,22 L-20,22 L-20,24 L-24,28 L-28,28 L-28,30 L-36,30 L-36,29 L-29,29 L-30,24 L-28,24 L-28,27 L-25,27 L-25,17 L-22,12 L-11,10 L-9,6 L-6,6 L-6,9 L-3,9 L-3,4 L0,3 Z M-7,9 Z " fill="#D59E8F" transform="translate(608,650)"/>
<path d="M0,0 L1,2 L-1,7 L-5,9 L-5,15 L-3,14 L0,15 L0,17 L-3,17 L-3,22 L-5,22 L-5,26 L-7,26 L-7,32 L-9,32 L-9,34 L-11,34 L-11,36 L-16,36 L-16,41 L-18,41 L-18,36 L-23,38 L-25,42 L-26,38 L-22,31 L-17,29 L-13,26 L-12,19 L-9,15 L-6,5 L-1,4 Z " fill="#D59B8E" transform="translate(657,584)"/>
<path d="M0,0 Z M-3,1 L0,2 L0,8 L-2,13 L-3,19 L2,20 L2,26 L0,26 L0,21 L-3,23 L-4,44 L-6,44 L-4,47 L-4,52 L-9,52 L-6,53 L-6,59 L-10,61 L-10,66 L-15,66 L-15,57 L-11,53 L-11,50 L-9,50 L-8,45 L-8,27 L-6,13 L-6,5 Z " fill="#D59C8C" transform="translate(687,493)"/>
<path d="M0,0 L24,0 L24,2 L34,2 L34,4 L40,4 L40,6 L44,6 L44,8 L48,8 L48,10 L54,10 L54,20 L53,20 L53,11 L48,11 L48,13 L51,13 L51,19 L50,19 L50,14 L45,13 L44,11 L47,11 L47,9 L40,10 L43,9 L43,7 L34,8 L34,7 L39,7 L39,5 L34,6 L22,6 L0,5 L0,3 L-26,3 L-26,2 L0,2 Z " fill="#BF8B80" transform="translate(640,322)"/>
<path d="M0,0 L4,4 L3,12 L0,15 L-4,15 L-5,18 L-8,20 L-14,20 L-17,14 L-30,14 L-33,16 L-36,16 L-47,16 L-45,12 L-34,12 L-18,11 L-16,12 L-16,8 L-10,9 L-8,13 L-4,13 L-2,7 L-1,5 L-3,4 Z " fill="#E2B1A3" transform="translate(558,667)"/>
<path d="M0,0 L5,1 L5,6 L11,7 L11,10 L17,10 L18,15 L21,16 L19,17 L19,22 L21,22 L21,24 L25,23 L26,26 L16,25 L12,22 L10,15 L1,12 L-4,10 L-2,9 L0,10 L0,8 L-2,8 L-3,2 L0,2 Z " fill="#DD9B88" transform="translate(363,639)"/>
<path d="M0,0 L16,0 L16,2 L22,2 L22,4 L37,5 L40,6 L43,5 L46,10 L47,14 L49,15 L48,18 L45,18 L42,12 L36,11 L31,10 L31,7 L21,6 L14,7 L14,5 L0,5 L-1,1 Z " fill="#E2A89D" transform="translate(632,338)"/>
<path d="M0,0 L1,0 L1,5 L6,5 L8,9 L9,18 L10,24 L9,29 L11,29 L11,24 L13,28 L14,33 L19,34 L15,35 L15,37 L21,36 L23,37 L24,35 L26,38 L27,47 L25,47 L25,44 L23,44 L23,49 L28,49 L28,50 L22,50 L22,44 L20,44 L20,40 L18,40 L18,38 L14,38 L10,34 L10,30 L8,30 L8,24 L6,24 L6,20 L4,20 L4,10 L2,10 L2,6 L0,6 Z " fill="#C18A7D" transform="translate(304,596)"/>
<path d="M0,0 L2,0 L2,31 L0,31 L0,64 L-3,64 L-3,30 L-2,29 L-1,2 Z " fill="#D79F91" transform="translate(709,387)"/>
<path d="M0,0 L2,2 L-1,9 L1,9 L1,17 L0,20 L-3,51 L-5,52 L-6,48 L-6,41 L-5,38 L-7,38 L-6,35 L-4,34 L-5,24 L-6,17 L-6,13 L-3,13 L-4,2 L-2,2 L-2,4 L0,4 Z M-6,31 L-4,32 Z " fill="#F1B29C" transform="translate(666,469)"/>
<path d="M0,0 L6,2 L5,6 L7,6 L7,9 L9,9 L9,11 L11,11 L11,8 L15,8 L17,10 L17,17 L19,17 L20,26 L19,30 L17,30 L17,19 L6,18 L6,11 L3,10 L0,3 Z " fill="#E2A098" transform="translate(675,342)"/>
<path d="M0,0 L5,1 L5,3 L2,3 L2,5 L6,6 L2,6 L2,8 L-2,8 L-2,10 L-10,10 L-10,12 L-18,12 L-18,14 L-36,14 L-36,12 L-44,12 L-44,11 L-36,11 L-37,8 L-35,8 L-35,10 L-18,10 L-11,11 L-11,9 L-13,9 L-13,7 L-11,6 L-2,6 L1,7 L1,5 L-2,4 Z " fill="#C39A8F" transform="translate(516,700)"/>
<path d="M0,0 L2,0 L0,11 L-5,21 L-6,25 L-10,36 L-12,33 L-11,29 L-9,29 L-11,26 L-10,20 L-9,15 L-9,10 L-5,5 Z M-13,33 Z M-12,36 Z " fill="#E7AA96" transform="translate(672,511)"/>
<path d="M0,0 L4,2 L5,7 L8,6 L10,10 L14,9 L15,11 L19,12 L19,14 L21,15 L19,15 L19,17 L38,17 L38,18 L18,18 L18,16 L12,16 L12,14 L4,14 L4,9 L-3,9 L-4,7 L-7,7 L-7,5 L-2,3 Z " fill="#D6A291" transform="translate(434,692)"/>
<path d="M0,0 L24,0 L28,4 L28,26 L27,26 L27,5 L25,5 L25,26 L24,26 L23,6 L21,5 L4,5 L2,6 L0,5 L0,3 L-4,2 L0,2 Z " fill="#C1887D" transform="translate(390,386)"/>
<path d="M0,0 L2,1 L1,3 L3,3 L3,8 L1,8 L1,15 L-2,15 L-2,23 L-3,25 L-6,25 L-6,20 L-9,20 L-9,15 L-11,15 L-11,20 L-12,20 L-12,14 L-8,12 L-8,10 L-6,10 L-6,8 L-4,8 L-4,6 L-2,6 L-2,2 L0,2 Z " fill="#D39483" transform="translate(326,510)"/>
<path d="M0,0 L3,4 L3,16 L1,18 L-1,26 L-2,42 L-4,40 L-6,32 L-7,30 L-5,30 L-7,22 L-5,22 L-5,17 L-2,10 Z M-6,18 Z " fill="#E5AC99" transform="translate(681,456)"/>
<path d="M0,0 L3,0 L3,7 L5,7 L5,2 L6,2 L6,7 L8,7 L7,0 L11,2 L9,2 L9,8 L7,8 L7,12 L5,12 L5,16 L3,16 L3,18 L1,18 L1,24 L-1,24 L-2,28 L-3,24 L-3,17 L-2,10 L-1,1 Z " fill="#C58F7E" transform="translate(669,552)"/>
<path d="M0,0 L2,1 L1,3 L3,4 L0,8 L-1,17 L-4,17 L-6,21 L-12,26 L-15,27 L-15,25 L-18,24 L-14,20 L-9,18 L-7,12 L-8,6 L-4,6 L-2,1 Z " fill="#DAAA9C" transform="translate(568,662)"/>
<path d="M0,0 L3,0 L3,7 L6,8 L8,21 L6,35 L4,42 L2,41 L3,33 L3,23 L2,16 L3,11 L1,11 L1,9 L-1,9 L-1,2 Z " fill="#E3A798" transform="translate(689,381)"/>
<path d="M0,0 L8,0 L8,1 L1,1 L1,3 L8,3 L8,4 L1,6 L-7,7 L-17,13 L-21,17 L-21,13 L-23,13 L-24,16 L-24,12 L-22,12 L-22,10 L-20,10 L-20,6 L-14,6 L-14,4 L-8,4 L-8,2 L0,2 Z " fill="#C08D86" transform="translate(582,340)"/>
<path d="M0,0 L4,2 L2,2 L2,6 L0,6 L0,8 L-2,8 L-2,12 L-4,12 L-4,14 L-8,14 L-8,16 L-12,16 L-12,18 L-30,18 L-30,17 L-13,17 L-13,15 L-24,15 L-24,14 L-13,13 L-11,9 L-8,8 L-5,3 L-2,1 L-1,5 L1,5 Z " fill="#C49688" transform="translate(568,680)"/>
<path d="M0,0 L11,0 L11,2 L20,2 L22,6 L5,6 L5,9 L-3,9 L-3,11 L-9,11 L-9,10 L-4,10 L-4,8 L-9,8 L-9,7 L4,8 L4,6 L-9,5 L-5,3 L-1,3 Z " fill="#CF9F91" transform="translate(533,691)"/>
<path d="M0,0 L4,1 L1,2 L0,4 L-8,5 L-8,8 L-10,8 L-10,10 L-19,11 L-22,12 L-23,10 L-25,11 L-25,9 L-28,9 L-27,6 L-29,5 L-29,3 L-21,3 L-21,5 L-18,4 L-10,4 L-8,2 Z " fill="#D8A199" transform="translate(612,338)"/>
<path d="M0,0 L5,0 L1,8 L-2,16 L-9,19 L-16,27 L-18,32 L-20,28 L-17,24 L-15,24 L-15,21 L-18,22 L-17,18 L-15,16 L-10,16 L-9,14 L-3,12 L-2,9 L-4,8 L-4,3 L0,2 Z " fill="#E3A996" transform="translate(632,598)"/>
<path d="M0,0 L4,0 L4,5 L6,5 L6,0 L7,0 L7,6 L3,6 L3,10 L1,10 L1,12 L-4,16 L-5,18 L-9,18 L-9,22 L-13,21 L-10,21 L-10,19 L-15,20 L-15,18 L-10,15 L-10,17 L-6,17 L-6,15 L-9,14 L-7,14 L-7,9 L-3,5 Z " fill="#D19786" transform="translate(635,620)"/>
<path d="M0,0 L3,0 L4,2 L7,2 L7,4 L5,5 L8,7 L8,16 L3,16 L3,14 L0,14 L-2,5 L-6,4 L-6,1 Z " fill="#D59B90" transform="translate(680,329)"/>
<path d="M0,0 L28,0 L28,2 L33,2 L33,3 L20,5 L20,3 L12,4 L-3,4 L-9,2 L-9,1 Z " fill="#DEA99B" transform="translate(484,692)"/>
<path d="M0,0 L1,0 L1,34 L-1,34 L-1,36 L-3,36 L-3,44 L-5,44 L-5,50 L-7,50 L-7,58 L-8,58 L-8,50 L-12,52 L-11,46 L-7,36 L-6,36 L-6,43 L-4,43 L-5,36 L-6,33 L-4,33 L-3,34 L0,33 Z " fill="#B8897A" transform="translate(709,418)"/>
<path d="M0,0 L10,2 L11,5 L17,6 L16,13 L13,14 L9,10 L9,7 L-8,7 L-7,5 L-1,6 L-1,1 Z " fill="#E9ACA0" transform="translate(653,343)"/>
<path d="M0,0 L8,0 L8,2 L10,2 L9,5 L5,6 L4,9 L0,11 L-1,16 L-7,18 L-6,15 L-4,15 L-4,10 L-6,10 L-4,4 L-2,6 Z " fill="#D49282" transform="translate(333,503)"/>
<path d="M0,0 L2,0 L2,8 L0,8 L0,13 L-2,14 L-2,29 L-4,29 L-5,22 L-8,23 L-9,20 L-5,8 Z " fill="#D89C88" transform="translate(699,468)"/>
<path d="M0,0 L2,0 L1,7 L3,7 L3,9 L1,10 L1,13 L-1,13 L-3,10 L-6,13 L-8,17 L-12,19 L-13,21 L-24,21 L-24,19 L-33,19 L-32,17 L-16,17 L-8,12 L-4,7 L-1,7 Z " fill="#D6A697" transform="translate(568,672)"/>
<path d="M0,0 L2,4 L1,16 L0,19 L0,30 L-1,48 L-2,49 L-3,57 L-5,56 L-4,48 L-3,25 L-3,14 L-1,14 L-1,4 Z M-6,56 Z " fill="#DCA291" transform="translate(698,408)"/>
<path d="M0,0 L1,4 L3,4 L4,21 L6,30 L5,36 L4,36 L3,27 L1,27 L-1,23 L-1,4 Z " fill="#E1A699" transform="translate(315,572)"/>
<path d="M0,0 L2,0 L3,10 L5,12 L6,20 L7,21 L12,21 L13,26 L2,26 L2,13 L0,13 Z " fill="#D38E85" transform="translate(361,395)"/>
<path d="M0,0 L8,0 L8,1 L1,1 L1,3 L12,3 L8,6 L6,6 L6,8 L2,8 L2,10 L-6,10 L-9,9 L-9,11 L-7,11 L-7,13 L-10,13 L-10,11 L-15,11 L-16,14 L-16,10 L-10,10 L-10,8 L-6,8 L-6,6 L-4,6 L-4,4 L0,4 Z " fill="#C7928A" transform="translate(606,326)"/>
<path d="M0,0 L1,0 L1,5 L3,5 L3,0 L4,0 L4,6 L2,6 L2,22 L0,22 L0,30 L-2,30 L-2,38 L-6,37 L-3,37 L-3,30 L-5,30 L-5,35 L-6,35 L-6,29 L-4,29 L-4,21 L-2,6 L-1,6 L-1,21 L1,21 Z " fill="#BC8675" transform="translate(696,476)"/>
<path d="M0,0 L6,1 L8,7 L3,7 L-1,6 L-14,6 L-17,8 L-20,8 L-31,8 L-29,4 L-18,4 L-2,3 L0,4 Z " fill="#E5B3A5" transform="translate(542,675)"/>
<path d="M0,0 L5,0 L6,4 L10,5 L11,2 L15,7 L13,8 L13,10 L15,10 L15,13 L17,13 L17,16 L14,16 L12,12 L9,12 L9,8 L-5,8 L-5,6 L0,4 Z " fill="#D69F8E" transform="translate(392,671)"/>
<path d="M0,0 L8,0 L8,2 L12,2 L13,0 L13,3 L15,3 L15,5 L8,6 L4,7 L0,9 L0,7 L-24,7 L-24,6 L0,6 Z " fill="#B07E70" transform="translate(478,416)"/>
<path d="M0,0 L2,1 L1,10 L-2,17 L-7,19 L-7,22 L-9,22 L-9,24 L-11,24 L-11,16 L-6,14 L-4,10 L-1,1 Z " fill="#DC9B8A" transform="translate(331,520)"/>
<path d="M0,0 L1,0 L1,13 L12,13 L13,11 L18,15 L18,17 L22,17 L23,14 L27,15 L24,15 L24,17 L26,18 L24,18 L24,22 L16,22 L16,18 L12,16 L12,14 L0,14 Z " fill="#BB7F75" transform="translate(362,408)"/>
<path d="M0,0 L14,0 L14,1 L1,1 L1,3 L14,3 L14,4 L5,5 L-3,13 L-4,22 L-5,22 L-5,9 L-7,9 L-7,22 L-8,22 L-8,8 L-4,8 L-4,6 L-2,6 L-2,4 L0,4 Z " fill="#BC8479" transform="translate(518,382)"/>
<path d="M0,0 L1,2 L9,2 L9,0 L15,0 L15,2 L24,3 L25,7 L17,7 L17,5 L-2,5 L-2,1 Z " fill="#D9AA9D" transform="translate(455,704)"/>
<path d="M0,0 L1,3 L7,2 L5,3 L5,5 L8,5 L8,3 L11,4 L9,5 L9,7 L12,7 L12,5 L15,5 L15,7 L13,7 L13,9 L16,8 L28,8 L30,11 L27,11 L27,13 L32,12 L32,17 L30,16 L30,14 L26,14 L26,12 L16,12 L16,10 L12,10 L12,8 L8,8 L8,6 L4,6 L4,4 L0,4 Z " fill="#BB8B7C" transform="translate(374,670)"/>
<path d="M0,0 L4,1 L-3,5 L-4,12 L2,12 L2,14 L-5,17 L-10,20 L-12,20 L-12,18 L-10,16 L-8,10 L-8,4 L-6,4 L-6,2 Z " fill="#E0A89D" transform="translate(608,344)"/>
<path d="M0,0 L1,0 L1,22 L3,22 L3,30 L5,30 L5,62 L4,62 L4,31 L2,31 L1,33 L1,31 L-1,31 L-1,23 L-3,22 L0,22 Z " fill="#B08277" transform="translate(707,356)"/>
<path d="M0,0 L2,1 L2,9 L0,17 L-2,17 L-3,19 L-3,17 L-5,17 L-4,24 L-7,25 L-7,23 L-11,24 L-10,22 L-8,22 L-8,20 L-6,20 L-6,16 L-4,16 L-4,8 L-2,8 L-2,2 L0,2 Z " fill="#CB9083" transform="translate(312,530)"/>
<path d="M0,0 L1,3 L4,3 L5,0 L5,4 L1,4 L1,6 L-5,6 L-5,8 L-7,8 L-7,10 L-13,10 L-13,12 L-15,12 L-15,14 L-19,18 L-23,18 L-23,20 L-31,20 L-31,19 L-24,19 L-25,14 L-23,14 L-23,17 L-20,17 L-20,8 L-17,8 L-17,11 L-14,11 L-15,8 L-10,8 L-6,7 L-7,4 L0,5 L0,3 L-4,2 Z " fill="#B38478" transform="translate(603,660)"/>
<path d="M0,0 L1,4 L3,4 L5,13 L4,17 L7,18 L5,25 L3,25 L1,15 L-1,14 L-1,6 Z " fill="#DFA295" transform="translate(693,374)"/>
<path d="M0,0 L10,1 L9,5 L5,8 L-6,8 L-7,5 L-6,2 L-1,2 L-1,4 L2,4 L2,2 L0,2 Z " fill="#D49E96" transform="translate(597,335)"/>
<path d="M0,0 L4,1 L2,7 L-1,13 L-2,22 L-4,23 L-5,12 L-4,8 L-2,8 L-1,1 Z M-5,23 Z " fill="#DEA595" transform="translate(649,574)"/>
<path d="M0,0 L5,1 L5,6 L11,7 L11,10 L13,10 L13,12 L9,11 L-2,8 L-3,2 L0,2 Z " fill="#E29F8D" transform="translate(363,639)"/>
<path d="M0,0 L8,0 L8,6 L6,6 L6,8 L2,8 L2,6 L-6,6 L-6,2 L0,2 Z " fill="#18100E" transform="translate(400,452)"/>
<path d="M0,0 L5,1 L5,3 L2,3 L2,5 L6,6 L2,6 L2,8 L-2,8 L-2,10 L-10,10 L-10,12 L-18,12 L-18,11 L-11,11 L-11,9 L-13,9 L-13,7 L-11,6 L-2,6 L1,7 L1,5 L-2,4 Z " fill="#C1978C" transform="translate(516,700)"/>
<path d="M0,0 L10,2 L10,5 L5,6 L4,12 L2,12 L2,10 L-1,9 L-1,5 L-4,5 L-4,2 Z " fill="#DA9D8F" transform="translate(344,630)"/>
<path d="M0,0 L4,1 L6,8 L10,10 L5,12 L4,9 L0,10 L-3,10 L-4,6 L-3,2 Z " fill="#E7AB9C" transform="translate(339,608)"/>
<path d="M0,0 L1,0 L1,5 L6,5 L8,9 L9,23 L7,23 L7,20 L4,20 L4,10 L2,10 L2,6 L0,6 Z " fill="#C68E84" transform="translate(304,596)"/>
<path d="M0,0 L24,0 L24,3 L3,4 L1,5 L-1,4 Z " fill="#D69787" transform="translate(454,423)"/>
<path d="M0,0 L2,0 L2,2 L8,2 L10,7 L16,9 L16,11 L18,11 L17,13 L10,12 L5,7 L3,4 L2,6 L-2,5 L-2,1 Z " fill="#D9A291" transform="translate(400,670)"/>
<path d="M0,0 L12,0 L8,3 L8,5 L2,5 L2,7 L9,7 L9,5 L12,5 L12,7 L10,7 L10,9 L13,10 L9,10 L9,8 L1,8 L1,6 L-4,5 L-5,3 L-4,1 Z " fill="#C78977" transform="translate(361,660)"/>
<path d="M0,0 L2,2 L6,3 L6,5 L8,6 L6,6 L6,8 L25,8 L25,9 L5,9 L5,7 L-1,7 L-1,4 L-8,4 L-8,2 Z " fill="#C1968A" transform="translate(447,701)"/>
<path d="M0,0 L1,0 L1,16 L3,16 L3,22 L1,22 L1,25 L3,25 L3,23 L6,24 L6,35 L5,35 L5,26 L3,26 L3,36 L2,36 L2,26 L0,26 L0,22 L-2,22 L-2,16 L0,16 Z " fill="#B37F75" transform="translate(298,558)"/>
<path d="M0,0 L2,0 L3,5 L-2,11 L-2,13 L-6,16 L-6,14 L-8,14 L-9,17 L-9,13 L-7,13 L-7,7 L-5,7 L-5,3 L0,3 Z " fill="#BF8574" transform="translate(351,481)"/>
<path d="M0,0 L2,0 L2,21 L5,21 L5,24 L10,24 L10,28 L8,28 L8,26 L1,26 L0,23 Z " fill="#DD9D8D" transform="translate(415,391)"/>
<path d="M0,0 L7,1 L10,2 L11,0 L19,0 L23,4 L22,5 L12,6 L8,7 L8,5 L5,4 L5,2 L0,1 Z " fill="#DBA99B" transform="translate(510,688)"/>
<path d="M0,0 L6,0 L6,6 L4,6 L4,12 L10,12 L10,20 L9,20 L9,13 L7,13 L7,20 L6,16 L3,15 L3,13 L0,12 L0,3 L3,3 L3,5 L5,5 L5,1 L0,1 Z " fill="#B58071" transform="translate(420,414)"/>
<path d="M0,0 L1,4 L1,13 L2,15 L0,20 L-3,19 L-4,10 L-4,4 Z " fill="#F3B1A2" transform="translate(329,566)"/>
<path d="M0,0 L3,0 L2,3 L0,3 L-1,13 L-10,14 L-11,17 L-10,12 L-7,7 L-5,7 L-5,5 L-3,5 L-3,2 Z " fill="#E09F90" transform="translate(327,537)"/>
<path d="M0,0 L2,0 L2,5 L5,5 L6,11 L1,13 L-1,21 L-3,21 L-2,8 Z " fill="#D59687" transform="translate(315,525)"/>
<path d="M0,0 L6,0 L5,14 L0,13 L-1,3 Z " fill="#F3AC9D" transform="translate(359,616)"/>
<path d="M0,0 L1,4 L-1,4 L-1,8 L-3,8 L-3,14 L-5,14 L-5,16 L-7,16 L-7,18 L-11,17 L-8,17 L-8,15 L-10,14 L-10,10 L-7,7 L-5,7 L-4,5 L-4,7 L-2,7 L-3,1 L-2,3 L0,3 Z " fill="#C79086" transform="translate(653,602)"/>
<path d="M0,0 L1,2 L3,2 L3,4 L5,4 L5,2 L7,2 L8,0 L8,2 L13,3 L17,5 L16,8 L9,7 L8,9 L6,8 L6,6 L1,5 Z " fill="#EDA696" transform="translate(351,627)"/>
<path d="M0,0 L1,0 L1,6 L-1,6 L-1,10 L-3,10 L-3,14 L-5,14 L-5,18 L-7,18 L-7,22 L-11,21 L-8,21 L-8,19 L-11,19 L-11,17 L-9,17 L-9,13 L-7,13 L-6,11 L-6,13 L-4,13 L-5,5 L-2,3 L-2,5 L0,5 Z " fill="#BA8679" transform="translate(665,580)"/>
<path d="M0,0 L2,1 L1,9 L-2,14 L-3,19 L-10,22 L-9,17 L-6,17 L-3,6 L-1,6 Z " fill="#E5AC98" transform="translate(650,563)"/>
<path d="M0,0 L2,2 L-1,9 L1,9 L0,14 L-3,19 L-4,24 L-6,21 L-6,13 L-3,13 L-4,2 L-2,2 L-2,4 L0,4 Z " fill="#F3B59E" transform="translate(666,469)"/>
<path d="M0,0 L5,0 L4,16 L0,16 Z " fill="#FCBFA9" transform="translate(608,488)"/>
<path d="M0,0 L1,0 L1,6 L3,6 L2,10 L-5,13 L-14,10 L-14,9 L-7,9 L-7,7 L-14,7 L-14,6 L-6,6 L-6,8 L-2,8 L-2,6 L0,6 Z " fill="#B87E71" transform="translate(408,452)"/>
<path d="M0,0 L4,1 L2,6 L-3,11 L-9,14 L-9,11 L-7,11 L-6,6 L-3,6 L-1,2 Z M-10,14 Z " fill="#DCA191" transform="translate(625,620)"/>
<path d="M0,0 L2,0 L3,7 L17,8 L17,11 L3,11 L0,8 Z " fill="#D79887" transform="translate(427,427)"/>
<path d="M0,0 L12,0 L11,4 L11,1 L1,1 L1,3 L9,3 L5,5 L3,7 L2,17 L1,17 L1,5 L-1,5 L-1,18 L-2,18 L-2,4 L0,4 Z " fill="#B37A72" transform="translate(362,390)"/>
<path d="M0,0 L1,3 L3,3 L4,0 L4,4 L2,4 L2,10 L-1,10 L-1,13 L-4,13 L-5,11 L-9,12 L-6,9 L-3,9 L-3,4 L0,3 Z " fill="#C99588" transform="translate(608,650)"/>
<path d="M0,0 L5,2 L5,11 L0,11 L-1,9 L-1,1 Z " fill="#D2988D" transform="translate(683,334)"/>
<path d="M0,0 L3,2 L0,11 L-3,11 L-4,8 L-6,6 L-5,1 Z M-4,11 Z " fill="#ECADA1" transform="translate(681,371)"/>
<path d="M0,0 L3,0 L3,6 L1,9 L-1,9 L-2,11 L-7,12 L-6,7 L-1,6 L-1,1 Z " fill="#E5A395" transform="translate(327,544)"/>
<path d="M0,0 L4,1 L1,1 L1,3 L3,3 L2,7 L0,10 L-1,7 L-3,7 L-3,9 L-7,9 L-7,14 L-8,14 L-8,8 L-2,2 L0,2 Z " fill="#D09488" transform="translate(554,356)"/>
<path d="M0,0 L2,0 L3,7 L2,13 L0,13 L0,15 L-2,15 L-2,4 Z " fill="#E4A699" transform="translate(318,557)"/>
<path d="M0,0 L4,0 L4,5 L6,5 L6,0 L7,0 L7,6 L3,6 L3,10 L1,10 L0,12 L-2,2 Z " fill="#C38C80" transform="translate(635,620)"/>
<path d="M0,0 L5,0 L8,2 L2,6 L-2,10 L-2,6 L-4,6 L-5,9 L-5,5 L-3,5 L-3,3 L0,3 Z " fill="#CC948B" transform="translate(563,347)"/>
<path d="M0,0 L6,2 L5,6 L7,6 L7,9 L9,9 L7,15 L6,11 L3,10 L0,3 Z " fill="#DFA499" transform="translate(675,342)"/>
<path d="M0,0 L1,4 L0,8 L-1,24 L-3,22 L-4,14 L-2,2 Z " fill="#E2A795" transform="translate(680,474)"/>
<path d="M0,0 L3,1 L1,3 L4,6 L3,9 L1,5 L-3,8 L-12,9 L-12,6 L-9,6 L-9,4 L-2,4 Z " fill="#DCA195" transform="translate(562,372)"/>
<path d="M0,0 L1,0 L1,5 L3,5 L3,0 L5,0 L5,2 L8,1 L10,3 L10,6 L5,7 L5,9 L10,9 L10,10 L4,10 L4,6 L0,6 Z " fill="#BE8475" transform="translate(346,652)"/>
<path d="M0,0 L2,2 L5,13 L5,15 L12,15 L13,17 L5,18 L3,15 L3,11 L1,11 L0,7 Z " fill="#DB9F8E" transform="translate(324,616)"/>
<path d="M0,0 L2,1 L1,3 L3,3 L3,8 L1,8 L1,10 L-3,11 L-3,9 L-6,8 L-4,8 L-4,6 L-2,6 L-2,2 L0,2 Z " fill="#C48677" transform="translate(326,510)"/>
<path d="M0,0 L10,0 L10,2 L3,5 L-2,8 L-4,8 L-4,6 L-2,4 Z " fill="#E6A89A" transform="translate(600,356)"/>
<path d="M0,0 L3,0 L3,2 L8,3 L8,5 L6,6 L4,12 L7,12 L8,9 L10,12 L8,12 L9,16 L7,15 L7,13 L3,13 L3,9 L1,8 L4,8 L4,5 L2,5 L2,2 L0,2 Z " fill="#C19181" transform="translate(405,679)"/>
<path d="M0,0 L2,0 L2,5 L4,5 L4,0 L5,0 L5,6 L3,6 L3,24 L2,24 L2,6 L-1,7 L-2,2 Z " fill="#B58374" transform="translate(685,514)"/>
<path d="M0,0 L3,0 L3,2 L8,2 L7,7 L6,10 L4,10 L4,8 L2,8 L2,5 L0,5 Z " fill="#DBA095" transform="translate(680,343)"/>
<path d="M0,0 L3,0 L4,3 L3,6 L-3,6 L-7,5 L-10,6 L-10,4 L-7,2 Z " fill="#D49F91" transform="translate(608,647)"/>
<path d="M0,0 L2,0 L2,11 L11,11 L11,13 L0,13 Z " fill="#DD958A" transform="translate(363,408)"/>
<path d="M0,0 L4,0 L4,4 L6,4 L6,6 L8,6 L8,10 L12,12 L11,14 L9,13 L8,15 L7,12 L4,11 L4,6 L2,4 L3,1 Z " fill="#B7847B" transform="translate(694,342)"/>
<path d="M0,0 L3,0 L4,6 L1,10 L-3,10 L-3,12 L-11,12 L-11,11 L-4,11 L-5,6 L-3,6 L-3,9 L0,9 Z " fill="#C09285" transform="translate(583,668)"/>
<path d="M0,0 L1,0 L1,6 L4,7 L-1,13 L-3,13 L-3,9 L-5,9 L-6,12 L-6,8 L-2,8 L-2,6 L0,6 Z " fill="#B57B6C" transform="translate(356,472)"/>
<path d="M0,0 L2,0 L2,14 L0,17 L-4,16 L-4,14 L-1,13 Z " fill="#DA9B8C" transform="translate(511,391)"/>
<path d="M0,0 L2,0 L0,5 L-2,9 L-6,11 L-8,10 L-8,8 L-5,7 L-4,2 L0,2 Z " fill="#D2958A" transform="translate(551,363)"/>
<path d="M0,0 L6,1 L18,4 L18,5 L6,6 L6,3 L-2,3 L-3,1 Z " fill="#E8A794" transform="translate(378,644)"/>
<path d="M0,0 L1,2 L5,2 L5,4 L7,4 L7,8 L9,8 L9,14 L8,14 L8,9 L3,8 L3,6 L1,6 L1,4 L-1,3 Z M1,3 Z " fill="#18110F" transform="translate(317,632)"/>
<path d="M0,0 L1,0 L1,8 L4,9 L2,9 L1,11 L1,9 L-1,9 L0,16 L-3,17 L-3,15 L-7,16 L-6,14 L-4,14 L-4,12 L-2,12 L-2,8 L0,8 Z " fill="#B68077" transform="translate(308,538)"/>
<path d="M0,0 L3,0 L3,2 L6,3 L6,13 L3,13 L2,3 L0,2 Z " fill="#D79588" transform="translate(386,423)"/>
<path d="M0,0 L6,0 L8,6 L4,10 L5,4 L0,5 Z " fill="#D89D90" transform="translate(564,358)"/>
<path d="M0,0 L17,0 L17,2 L14,4 L8,4 L8,2 L-1,2 Z " fill="#D9A89A" transform="translate(536,689)"/>
<path d="M0,0 L4,2 L2,2 L2,6 L0,6 L0,8 L-2,8 L-3,12 L-5,5 L-3,1 L-1,5 L1,5 Z " fill="#BC9083" transform="translate(568,680)"/>
<path d="M0,0 L2,1 L1,3 L5,2 L0,10 L-1,10 L-1,5 L-3,5 L-3,10 L-4,10 L-4,4 L0,2 Z " fill="#BC8476" transform="translate(318,520)"/>
<path d="M0,0 L2,0 L2,2 L4,3 L2,8 L-2,9 L-2,3 L0,3 Z M4,0 Z " fill="#D48F7F" transform="translate(359,469)"/>
<path d="M0,0 L5,0 L7,5 L3,4 L3,6 L6,7 L2,7 L-1,3 Z " fill="#C88A7C" transform="translate(415,453)"/>
<path d="M0,0 L8,0 L8,1 L1,1 L1,3 L8,3 L7,5 L0,6 L-3,5 L-3,7 L-6,8 L-6,6 L-4,6 L-4,4 L0,4 Z " fill="#B7867C" transform="translate(606,326)"/>
<path d="M0,0 L6,1 L8,7 L3,7 L0,5 Z " fill="#E7B6A9" transform="translate(542,675)"/>
<path d="M0,0 Z M-1,1 Z M-3,2 L-1,4 L-3,10 L-4,13 L-7,13 L-7,7 L-5,7 L-5,4 L-3,4 Z " fill="#EBB197" transform="translate(635,582)"/>
<path d="M0,0 L4,1 L2,5 L-4,8 L-6,7 L-4,3 L0,2 Z " fill="#DCA597" transform="translate(598,644)"/>
<path d="M0,0 L1,4 L-1,9 L-3,12 L-5,11 L-4,3 L-1,2 Z " fill="#D89686" transform="translate(328,522)"/>
<path d="M0,0 L6,0 L6,2 L9,3 L6,6 L3,5 L2,3 L-2,3 L-2,1 Z M-3,3 Z " fill="#E3AFA2" transform="translate(482,683)"/>
<path d="M0,0 L2,1 L1,3 L3,4 L-2,9 L-4,4 Z " fill="#DEA797" transform="translate(568,662)"/>
<path d="M0,0 L1,0 L0,14 L-3,15 L-4,12 Z " fill="#D49986" transform="translate(694,476)"/>
<path d="M0,0 L2,0 L2,12 L-1,14 L-1,1 Z " fill="#E1AA96" transform="translate(682,460)"/>
<path d="M0,0 L4,1 L7,4 L6,9 L1,9 L1,7 L4,6 L3,4 L-2,3 Z " fill="#D69585" transform="translate(417,450)"/>
<path d="M0,0 L5,0 L5,3 L10,3 L10,7 L8,7 L8,5 L1,5 Z " fill="#D39685" transform="translate(415,412)"/>
<path d="M0,0 L1,2 L9,2 L9,0 L15,0 L15,2 L17,3 L0,3 L-2,1 Z " fill="#CEA093" transform="translate(455,704)"/>
<path d="M0,0 L5,0 L7,3 L-4,4 L-4,2 L-7,1 Z " fill="#DAA698" transform="translate(429,680)"/>
<path d="M0,0 L3,1 L-3,13 L-5,12 L-4,8 L-2,8 L-1,1 Z " fill="#E1A897" transform="translate(649,574)"/>
<path d="M0,0 L4,0 L4,8 L0,9 Z " fill="#FCC1AA" transform="translate(636,472)"/>
<path d="M0,0 L2,0 L2,10 L0,10 L0,6 L-8,5 L-8,4 L0,4 Z " fill="#1F1513" transform="translate(386,426)"/>
<path d="M0,0 L5,0 L4,4 L0,4 L0,8 L-4,7 L-1,7 L-1,5 L-6,6 L-6,4 L-1,1 L-1,3 L3,3 L3,1 Z " fill="#BD8A7B" transform="translate(626,634)"/>
<path d="M0,0 L10,2 L10,5 L4,5 L0,2 Z " fill="#E1A191" transform="translate(344,630)"/>
<path d="M0,0 L1,0 L1,10 L3,11 L1,14 L-2,13 L0,13 L0,11 L-3,12 L-3,7 L-8,7 L-8,6 L-2,6 L-2,10 L0,10 Z " fill="#A9756A" transform="translate(388,426)"/>
<path d="M0,0 L2,0 L3,5 L-8,5 L-7,1 L-1,1 Z " fill="#DEA095" transform="translate(584,355)"/>
<path d="M0,0 L4,1 L-1,9 L-2,6 L-4,6 L-3,2 Z " fill="#E09D8D" transform="translate(346,512)"/>
<path d="M0,0 L3,0 L4,4 L11,5 L11,7 L3,7 L3,5 L0,4 Z " fill="#D89385" transform="translate(390,454)"/>
<path d="M0,0 L4,1 L1,1 L1,3 L3,3 L3,5 L0,5 L0,3 L-3,3 L-3,7 L-9,8 L-6,4 L-4,4 L-4,2 L0,2 Z " fill="#B17D77" transform="translate(542,370)"/>
<path d="M0,0 L5,1 L5,3 L2,3 L2,5 L6,6 L2,6 L2,8 L-2,7 L1,7 L1,5 L-2,4 Z " fill="#C09487" transform="translate(516,700)"/>
<path d="M0,0 L2,0 L2,2 L6,1 L5,6 L3,8 L2,5 L0,5 Z " fill="#F1AC9C" transform="translate(348,537)"/>
<path d="M0,0 L8,0 L8,1 L1,1 L0,9 L-2,7 L-4,8 L-3,3 L0,2 Z " fill="#B2796B" transform="translate(332,502)"/>
<path d="M0,0 L2,0 L0,4 L-6,9 L-8,8 L-8,5 L-2,4 L-2,2 L0,2 Z " fill="#CF9484" transform="translate(499,411)"/>
<path d="M0,0 L5,0 L5,6 L3,6 L2,10 L1,6 Z " fill="#E1AD9E" transform="translate(560,668)"/>
<path d="M0,0 L3,1 L3,12 L2,12 L2,3 L0,3 L0,13 L-1,13 L-2,2 L0,2 Z " fill="#BB857B" transform="translate(301,581)"/>
<path d="M0,0 L2,0 L3,5 L3,12 L1,12 L-1,8 L-1,1 Z " fill="#D8A18F" transform="translate(702,449)"/>
<path d="M0,0 L4,0 L3,4 L-7,4 L-7,2 L0,2 Z " fill="#D9988C" transform="translate(386,389)"/>
<path d="M0,0 L2,0 L2,5 L4,5 L5,2 L5,6 L1,6 L1,10 L-5,10 L-5,9 L0,9 L-1,4 Z " fill="#B3867B" transform="translate(617,640)"/>
<path d="M0,0 L1,2 L5,3 L5,8 L0,8 Z " fill="#F1AF9F" transform="translate(348,608)"/>
<path d="M0,0 L4,1 L1,1 L1,5 L-1,5 L-1,7 L-7,8 L-2,2 L0,2 Z " fill="#B07E71" transform="translate(498,408)"/>
<path d="M0,0 L4,1 L6,2 L6,4 L-1,4 L-4,2 Z " fill="#D7A99E" transform="translate(499,707)"/>
<path d="M0,0 L1,4 L6,0 L8,2 L1,7 L-1,7 L-1,1 Z " fill="#EAB3A6" transform="translate(537,668)"/>
<path d="M0,0 L3,0 L4,5 L7,6 L4,8 L1,8 L1,3 L-1,2 Z " fill="#E1A08E" transform="translate(377,649)"/>
<path d="M0,0 L2,0 L4,5 L2,5 L3,9 L1,8 L1,6 L-9,6 L-9,5 L1,5 Z " fill="#B38174" transform="translate(341,642)"/>
<path d="M0,0 L2,0 L3,5 L-1,8 L-4,6 L-4,4 L-1,3 Z M-2,8 Z " fill="#D89382" transform="translate(351,481)"/>
<path d="M0,0 L5,0 L6,4 L8,4 L8,6 L5,7 L3,2 L1,2 L1,4 L-1,4 Z " fill="#DB9689" transform="translate(380,433)"/>
<path d="M0,0 L1,3 L3,3 L2,7 L1,5 L-1,5 L0,8 L-5,7 L-5,9 L-8,10 L-8,8 L-6,8 L-6,6 L-2,6 L-2,4 L0,4 Z " fill="#B57F72" transform="translate(452,424)"/>
<path d="M0,0 L3,2 L3,4 L-2,5 L-2,7 L5,7 L5,8 L-3,8 L-2,1 Z " fill="#BC9083" transform="translate(441,698)"/>
<path d="M0,0 L7,1 L10,2 L11,0 L13,2 L10,5 L5,4 L5,2 L0,1 Z " fill="#DEAB9E" transform="translate(510,688)"/>
<path d="M0,0 L1,2 L3,2 L3,4 L8,5 L10,7 L8,9 L6,8 L6,6 L1,5 Z " fill="#E7A493" transform="translate(351,627)"/>
<path d="M0,0 L3,1 L4,5 L3,7 L-1,7 L-2,3 Z " fill="#D39D8D" transform="translate(415,688)"/>
<path d="M0,0 L1,2 L14,2 L14,3 L4,4 L2,5 L0,4 L0,2 L-4,1 Z " fill="#C3887F" transform="translate(390,387)"/>
<path d="M0,0 L1,4 L-4,4 L-4,6 L-8,5 L-4,1 Z " fill="#DDAD9F" transform="translate(558,681)"/>
<path d="M0,0 L6,0 L2,2 L-4,8 L-6,8 L-4,4 L-2,4 L-2,2 L0,2 Z " fill="#231B18" transform="translate(590,670)"/>
<path d="M0,0 L0,3 L-5,9 L-8,8 L-6,7 L-6,5 L-4,5 L-4,3 L-2,3 L-2,1 Z " fill="#DB9A8A" transform="translate(350,505)"/>
<path d="M0,0 L5,0 L5,9 L3,9 L3,2 L0,2 Z " fill="#DC9B91" transform="translate(688,333)"/>
<path d="M0,0 L1,0 L1,6 L-1,6 L-1,8 L-3,8 L-3,10 L-7,9 L-4,9 L-4,7 L-6,6 L0,5 Z " fill="#B08079" transform="translate(649,610)"/>
<path d="M0,0 L3,1 L2,6 L0,10 L-2,10 L0,4 L1,2 L-1,1 Z " fill="#E6B3A5" transform="translate(556,670)"/>
<path d="M0,0 L6,1 L6,3 L4,3 L3,5 L3,3 L-2,3 L-2,1 Z " fill="#D4927F" transform="translate(353,658)"/>
<path d="M0,0 L2,0 L0,4 L-4,8 L-6,8 L-4,4 L0,2 Z " fill="#251A18" transform="translate(636,630)"/>
<path d="M0,0 L5,1 L4,3 L-3,5 L-2,1 Z " fill="#E6AC97" transform="translate(600,630)"/>
<path d="M0,0 L2,0 L1,8 L-3,7 L0,7 L0,5 L-3,5 L-3,3 L0,3 Z " fill="#C28C7E" transform="translate(657,594)"/>
<path d="M0,0 L4,1 L4,7 L2,5 L0,7 L-1,1 Z " fill="#110C0B" transform="translate(300,595)"/>
<path d="M0,0 L5,0 L6,3 L-2,5 Z " fill="#DCA495" transform="translate(577,662)"/>
<path d="M0,0 L6,0 L6,2 L3,3 L2,6 L0,6 Z " fill="#DAA193" transform="translate(619,639)"/>
<path d="M0,0 L2,0 L0,4 L-2,9 L-4,8 L-4,3 L0,2 Z " fill="#E6AC94" transform="translate(632,598)"/>
<path d="M0,0 L4,0 L4,3 L2,4 L2,7 L0,7 L-1,3 Z " fill="#D99D8B" transform="translate(671,560)"/>
<path d="M0,0 L4,2 L1,4 L-4,4 L-4,2 Z " fill="#D68F7E" transform="translate(371,455)"/>
<path d="M0,0 L8,1 L3,5 L1,4 Z " fill="#EDB1A5" transform="translate(677,391)"/>
<path d="M0,0 L4,1 L1,1 L1,5 L-5,6 L-2,2 L0,2 Z " fill="#AA7A70" transform="translate(554,356)"/>
<path d="M0,0 L4,0 L2,4 L-2,5 Z " fill="#E8B099" transform="translate(594,631)"/>
<path d="M0,0 L2,0 L3,3 L1,4 L-5,4 L-5,2 L0,2 Z " fill="#D69384" transform="translate(407,459)"/>
<path d="M0,0 L3,0 L3,6 L0,6 Z " fill="#D69284" transform="translate(409,452)"/>
<path d="M0,0 L2,0 L2,2 L8,2 L8,3 L2,3 L1,7 L1,3 L-1,3 Z " fill="#B57B6F" transform="translate(392,451)"/>
<path d="M0,0 L1,3 L-1,8 L-3,7 L-3,1 Z " fill="#F6BBA3" transform="translate(665,439)"/>
<path d="M0,0 L3,0 L3,6 L0,6 Z " fill="#D69687" transform="translate(420,420)"/>
<path d="M0,0 L6,0 L6,2 L2,2 L2,5 L0,5 Z " fill="#DE9E8D" transform="translate(479,417)"/>
<path d="M0,0 L6,0 L6,2 L-2,5 Z " fill="#E8AB9D" transform="translate(604,356)"/>
<path d="M0,0 L4,0 L2,4 L-1,4 Z " fill="#CD9383" transform="translate(631,630)"/>
<path d="M0,0 L1,3 L4,3 L4,7 L1,7 Z " fill="#C38877" transform="translate(340,498)"/>
<path d="M0,0 L3,3 L2,9 L0,8 Z " fill="#E2A897" transform="translate(691,439)"/>
<path d="M0,0 L2,0 L2,3 L5,3 L5,5 L0,5 Z " fill="#DD9C8C" transform="translate(327,640)"/>
<path d="M0,0 L3,0 L6,6 L1,5 Z " fill="#D1978B" transform="translate(317,624)"/>
<path d="M0,0 L3,1 L1,1 L0,5 L-3,6 L-2,2 Z " fill="#E5AC9C" transform="translate(617,614)"/>
<path d="M0,0 L4,1 L4,4 L-2,3 Z " fill="#D29182" transform="translate(417,450)"/>
<path d="M0,0 L3,2 L1,8 L-1,4 Z " fill="#E9A99F" transform="translate(681,371)"/>
<path d="M0,0 L2,1 L-1,4 L-3,7 L-4,4 Z " fill="#E2AA98" transform="translate(568,662)"/>
<path d="M0,0 L2,0 L2,6 L-1,5 Z " fill="#E3A496" transform="translate(325,611)"/>
<path d="M0,0 L3,0 L1,5 L-1,5 Z " fill="#DDA593" transform="translate(641,598)"/>
<path d="M0,0 L3,1 L1,4 L-3,5 L-3,2 L0,2 Z " fill="#D89C90" transform="translate(553,376)"/>
<path d="M0,0 L3,1 L3,3 L-1,3 L-1,8 L-2,8 L-2,2 Z " fill="#AD7B71" transform="translate(548,362)"/>
<path d="M0,0 L2,3 L-2,7 L-1,1 Z " fill="#DEA395" transform="translate(570,361)"/>
<path d="M0,0 L6,0 L3,3 L-1,3 Z " fill="#D09A90" transform="translate(601,333)"/>
<path d="M0,0 L6,0 L2,2 L-2,4 Z " fill="#29201D" transform="translate(524,702)"/>
<path d="M0,0 L3,0 L4,4 L0,4 Z " fill="#CF9280" transform="translate(375,667)"/>
<path d="M0,0 L1,3 L1,5 L-4,5 L-4,3 L-1,3 Z " fill="#D09C8F" transform="translate(616,642)"/>
<path d="M0,0 L5,1 L5,3 L0,3 Z " fill="#D49887" transform="translate(486,419)"/>
<path d="M0,0 L3,0 L2,4 L-2,5 Z " fill="#FBBDA8" transform="translate(642,380)"/>
<path d="M0,0 L2,0 L1,4 L-3,4 L-3,2 L0,2 Z " fill="#D6A596" transform="translate(521,701)"/>
<path d="M0,0 L3,1 L2,2 L4,4 L-1,3 L-2,1 Z " fill="#AB7565" transform="translate(358,662)"/>
<path d="M0,0 L6,0 L5,3 L1,2 Z " fill="#CD9388" transform="translate(301,593)"/>
<path d="M0,0 L4,1 L1,4 L-1,3 Z " fill="#D28E7D" transform="translate(355,479)"/>
<path d="M0,0 L2,3 L2,6 L-1,6 Z " fill="#EEB3A1" transform="translate(569,410)"/>
<path d="M0,0 L2,1 L2,5 L-1,5 Z " fill="#D8A191" transform="translate(410,686)"/>
<path d="M0,0 L7,1 L3,3 L-1,1 Z " fill="#C1847B" transform="translate(371,393)"/>
<path d="M0,0 L6,0 L2,2 L-1,3 Z " fill="#E4A997" transform="translate(607,630)"/>
<path d="M0,0 L2,3 L2,6 L0,6 L-1,2 Z " fill="#D89C91" transform="translate(649,603)"/>
<path d="M0,0 L2,3 L2,6 L0,6 L-1,2 Z " fill="#D89C8D" transform="translate(659,587)"/>
<path d="M0,0 L2,0 L3,4 L1,6 Z " fill="#D8998D" transform="translate(307,547)"/>
<path d="M0,0 L5,0 L5,3 L2,3 L2,1 Z " fill="#845B51" transform="translate(415,453)"/>
<path d="M0,0 L2,4 L-1,5 Z " fill="#EDB4A8" transform="translate(521,669)"/>
<path d="M0,0 L4,1 L4,3 L0,3 Z " fill="#F4B09D" transform="translate(376,629)"/>
<path d="M0,0 Z M-3,1 L1,2 L-2,5 Z " fill="#E9A38F" transform="translate(362,517)"/>
<path d="M0,0 L3,0 L3,2 L-1,4 Z " fill="#E09D8C" transform="translate(385,509)"/>
<path d="M0,0 L2,0 L3,3 L1,5 Z " fill="#F5B9A0" transform="translate(662,471)"/>
<path d="M0,0 L3,0 L4,3 L0,3 Z " fill="#DB9281" transform="translate(363,459)"/>
<path d="M0,0 L1,4 L-2,5 Z " fill="#F6BBA2" transform="translate(664,420)"/>
<path d="M0,0 L4,0 L4,3 L0,2 Z " fill="#DA9B91" transform="translate(543,371)"/>
<path d="M0,0 L3,1 L3,4 L1,4 Z " fill="#DA9E8B" transform="translate(664,575)"/>
<path d="M0,0 L1,2 L3,3 L-1,4 Z " fill="#CE9582" transform="translate(670,565)"/>
<path d="M0,0 L3,0 L1,4 Z " fill="#CD9489" transform="translate(561,353)"/>
<path d="M0,0 L2,3 L-1,4 Z " fill="#E0A597" transform="translate(322,608)"/>
<path d="M0,0 L2,1 L1,4 L-1,3 Z " fill="#CF958A" transform="translate(693,342)"/>
</svg>
