<?xml version="1.0" encoding="UTF-8"?>
<!-- Generator: visioncortex VTracer 0.6.4 -->
<svg version="1.1" xmlns="http://www.w3.org/2000/svg" width="1024" height="1024">
<path d="M0,0 L1024,0 L1024,1024 L0,1024 Z " fill="#000000" transform="translate(0,0)"/>
<path d="M0,0 L22,0 L22,2 L46,2 L46,0 L74,0 L74,2 L106,2 L106,4 L118,4 L120,7 L128,8 L128,10 L138,10 L138,12 L196,12 L196,14 L220,14 L220,16 L228,16 L228,18 L232,18 L232,20 L238,20 L238,22 L252,22 L252,24 L260,24 L260,26 L276,26 L276,28 L278,28 L278,36 L276,36 L276,38 L278,38 L278,42 L282,42 L282,44 L286,44 L286,48 L290,50 L292,54 L294,54 L294,62 L300,62 L300,66 L302,66 L302,68 L304,68 L304,76 L306,76 L306,84 L308,84 L308,92 L310,92 L310,94 L312,94 L312,120 L314,120 L314,146 L312,146 L312,150 L310,150 L310,158 L308,158 L308,160 L306,160 L306,168 L304,168 L304,172 L302,172 L302,176 L300,176 L300,180 L296,180 L296,182 L292,182 L292,184 L290,184 L290,186 L288,186 L288,194 L286,194 L286,198 L284,198 L284,200 L278,200 L278,202 L276,202 L276,204 L272,208 L264,208 L264,210 L262,210 L262,212 L254,212 L254,214 L252,214 L252,218 L248,218 L248,220 L246,220 L246,222 L242,222 L242,224 L240,224 L240,226 L228,226 L228,224 L220,224 L220,226 L216,226 L216,228 L210,228 L210,230 L206,230 L206,232 L198,232 L198,234 L196,234 L196,236 L188,236 L188,238 L172,238 L172,240 L166,240 L166,242 L162,242 L162,244 L158,244 L158,246 L156,246 L156,248 L148,248 L148,250 L136,250 L136,252 L124,252 L124,254 L120,254 L120,256 L112,256 L112,258 L108,258 L108,260 L102,260 L102,262 L96,262 L96,264 L80,264 L80,266 L74,266 L74,268 L70,268 L70,270 L68,270 L68,272 L66,272 L66,274 L60,274 L60,276 L58,276 L58,278 L52,278 L52,280 L46,280 L46,282 L48,282 L48,288 L44,288 L44,290 L28,290 L28,292 L20,292 L20,290 L16,290 L16,292 L2,292 L2,294 L-3,296 L-6,300 L-28,300 L-28,298 L-30,298 L-30,292 L-34,292 L-34,290 L-44,290 L-44,288 L-88,288 L-88,286 L-102,286 L-102,284 L-108,284 L-108,282 L-112,282 L-112,280 L-116,280 L-116,276 L-120,276 L-120,264 L-124,264 L-128,260 L-130,255 L-132,254 L-132,250 L-134,250 L-134,244 L-136,244 L-136,236 L-138,236 L-138,232 L-140,232 L-140,226 L-142,226 L-142,114 L-140,114 L-140,98 L-138,98 L-138,90 L-136,90 L-136,80 L-134,80 L-134,74 L-132,74 L-132,70 L-130,70 L-130,64 L-128,64 L-128,52 L-122,52 L-122,50 L-118,50 L-117,45 L-114,42 L-112,42 L-110,38 L-108,38 L-108,36 L-106,36 L-106,30 L-104,30 L-104,28 L-100,28 L-100,26 L-92,26 L-92,24 L-88,24 L-86,20 L-82,18 L-82,16 L-78,16 L-78,14 L-62,14 L-62,12 L-54,12 L-54,10 L-50,10 L-50,8 L-38,8 L-38,6 L-36,6 L-36,4 L-30,4 L-30,2 L-16,2 L-16,4 L-10,4 L-10,2 L0,2 Z " fill="#D59373" transform="translate(432,354)"/>
<path d="M0,0 L22,0 L22,2 L46,2 L46,0 L74,0 L74,2 L106,2 L106,4 L118,4 L120,7 L128,8 L128,10 L138,10 L138,12 L196,12 L196,14 L220,14 L220,16 L228,16 L228,18 L232,18 L232,20 L238,20 L238,22 L252,22 L252,24 L260,24 L260,26 L276,26 L276,28 L278,28 L278,36 L276,36 L276,38 L278,38 L278,42 L282,42 L282,44 L286,44 L286,48 L290,50 L292,54 L294,54 L294,62 L300,62 L300,66 L302,66 L302,68 L304,68 L304,76 L306,76 L306,84 L308,84 L308,92 L310,92 L310,94 L312,94 L312,120 L314,120 L314,146 L312,146 L312,150 L310,150 L310,158 L308,158 L308,160 L306,160 L306,168 L304,168 L304,172 L302,172 L302,176 L300,176 L300,180 L296,180 L296,182 L292,182 L292,184 L290,184 L290,186 L288,186 L288,194 L286,194 L286,198 L284,198 L284,200 L278,200 L278,202 L276,202 L276,204 L272,208 L264,208 L264,210 L262,210 L262,212 L254,212 L254,214 L252,214 L252,218 L248,218 L248,220 L246,220 L246,222 L242,222 L242,224 L240,224 L240,226 L228,226 L228,224 L220,224 L220,226 L216,226 L216,228 L210,228 L210,230 L206,230 L206,232 L198,232 L198,234 L196,234 L196,236 L188,236 L188,238 L172,238 L172,240 L166,240 L166,242 L162,242 L162,244 L158,244 L158,246 L156,246 L156,248 L148,248 L148,250 L136,250 L136,252 L124,252 L124,254 L120,254 L120,256 L112,256 L112,258 L108,258 L108,260 L102,260 L102,262 L96,262 L96,264 L80,264 L80,266 L74,266 L74,268 L70,268 L70,270 L68,270 L68,272 L66,272 L66,274 L60,274 L60,276 L58,276 L58,278 L52,278 L52,280 L46,280 L46,282 L48,282 L48,288 L44,288 L44,290 L28,290 L28,292 L20,292 L20,290 L16,290 L16,292 L2,292 L2,294 L-3,296 L-6,300 L-28,300 L-28,298 L-30,298 L-30,292 L-34,292 L-34,290 L-44,290 L-44,288 L-88,288 L-88,286 L-102,286 L-102,284 L-108,284 L-108,282 L-112,282 L-112,280 L-116,280 L-116,276 L-120,276 L-120,264 L-124,264 L-128,260 L-130,255 L-132,254 L-132,250 L-134,250 L-134,244 L-136,244 L-136,236 L-138,236 L-138,232 L-140,232 L-140,226 L-142,226 L-142,114 L-140,114 L-140,98 L-138,98 L-138,90 L-136,90 L-136,80 L-134,80 L-134,74 L-132,74 L-132,70 L-130,70 L-130,64 L-128,64 L-128,52 L-122,52 L-122,50 L-118,50 L-117,45 L-114,42 L-112,42 L-110,38 L-108,38 L-108,36 L-106,36 L-106,30 L-104,30 L-104,28 L-100,28 L-100,26 L-92,26 L-92,24 L-88,24 L-86,20 L-82,18 L-82,16 L-78,16 L-78,14 L-62,14 L-62,12 L-54,12 L-54,10 L-50,10 L-50,8 L-38,8 L-38,6 L-36,6 L-36,4 L-30,4 L-30,2 L-16,2 L-16,4 L-10,4 L-10,2 L0,2 Z M22,26 L-18,28 L-22,30 L-31,30 L-34,30 L-44,29 L-55,31 L-56,39 L-60,38 L-80,42 L-80,44 L-85,46 L-90,50 L-91,55 L-96,55 L-100,59 L-102,68 L-110,72 L-113,77 L-116,82 L-117,94 L-119,96 L-121,109 L-121,115 L-122,116 L-122,126 L-124,126 L-124,120 L-126,122 L-128,132 L-128,225 L-125,227 L-123,231 L-121,231 L-120,237 L-116,245 L-113,251 L-110,251 L-110,253 L-108,253 L-107,257 L-102,260 L-100,267 L-101,274 L-84,279 L-70,281 L-33,280 L-33,278 L-28,278 L-28,276 L-23,275 L-24,271 L-26,271 L-23,262 L-16,259 L-15,254 L-13,254 L-11,257 L-3,250 L0,247 L14,247 L16,246 L16,244 L20,243 L18,248 L21,249 L24,247 L23,252 L22,256 L24,257 L30,257 L28,263 L32,263 L32,259 L37,257 L38,254 L32,253 L32,251 L28,250 L28,246 L38,248 L46,247 L46,245 L53,248 L56,249 L60,248 L64,249 L64,251 L66,251 L66,247 L72,247 L72,237 L79,237 L80,234 L82,235 L107,235 L108,236 L116,236 L116,234 L120,235 L125,234 L126,235 L160,235 L160,230 L164,230 L164,226 L155,225 L145,225 L142,224 L149,223 L160,221 L160,223 L172,223 L179,222 L184,223 L184,217 L178,217 L176,212 L174,212 L176,206 L180,204 L179,196 L182,199 L182,202 L188,203 L190,196 L198,198 L200,197 L200,200 L202,200 L202,198 L204,198 L204,190 L194,190 L193,188 L189,187 L188,182 L205,181 L216,176 L216,174 L218,175 L215,178 L215,180 L212,181 L212,183 L220,183 L222,179 L228,179 L228,184 L233,184 L236,184 L240,184 L240,182 L244,184 L240,186 L240,189 L243,190 L239,194 L239,198 L240,202 L242,202 L242,199 L244,199 L245,197 L254,196 L256,195 L256,190 L258,190 L257,187 L254,186 L260,184 L259,178 L261,178 L262,180 L268,178 L272,170 L276,164 L275,161 L273,162 L275,156 L273,156 L274,151 L286,150 L286,140 L285,138 L287,138 L287,129 L289,130 L288,136 L289,139 L292,139 L290,148 L290,152 L288,154 L289,160 L287,163 L288,167 L294,169 L296,168 L298,158 L299,153 L299,142 L298,134 L296,133 L296,129 L298,129 L296,117 L296,110 L301,110 L301,106 L299,106 L299,98 L300,89 L301,87 L300,81 L301,78 L299,78 L299,74 L296,71 L289,72 L289,80 L287,83 L283,83 L279,79 L275,82 L274,76 L275,70 L273,70 L272,67 L267,67 L266,60 L257,62 L256,67 L253,65 L251,66 L249,63 L246,59 L241,61 L237,62 L240,59 L238,55 L235,55 L233,53 L230,55 L226,54 L232,52 L232,47 L229,46 L228,44 L224,45 L222,46 L220,39 L214,38 L210,38 L208,32 L202,33 L202,31 L199,30 L198,34 L187,34 L185,34 L183,31 L179,31 L179,29 L175,30 L170,29 L167,30 L168,34 L174,37 L176,42 L160,42 L158,43 L158,41 L150,39 L150,34 L124,34 L124,39 L116,38 L116,35 L103,32 L102,31 L92,31 L92,29 L82,32 L76,32 L75,29 L46,27 L40,26 Z M274,78 Z M290,168 Z M36,252 Z M175,36 Z M207,37 Z M272,162 Z M246,182 Z M196,196 Z M118,233 Z " fill="#A27061" transform="translate(432,354)"/>
<path d="M0,0 L19,0 L24,1 L54,3 L54,6 L61,6 L70,3 L70,5 L80,5 L85,7 L94,9 L94,12 L102,13 L102,8 L128,8 L128,13 L136,15 L136,17 L140,16 L152,16 L155,18 L154,20 L156,20 L156,23 L151,26 L148,27 L146,25 L148,22 L146,22 L146,20 L142,21 L142,28 L140,29 L134,27 L133,22 L128,24 L121,21 L119,22 L118,26 L116,26 L115,20 L114,26 L112,26 L111,18 L110,26 L108,26 L107,22 L100,27 L96,27 L93,20 L91,19 L91,17 L74,17 L68,16 L55,17 L51,14 L43,13 L37,15 L31,14 L27,14 L26,15 L6,15 L-44,16 L-60,18 L-60,21 L-66,23 L-70,23 L-70,25 L-74,26 L-76,27 L-97,28 L-102,29 L-102,31 L-104,31 L-104,35 L-108,36 L-109,47 L-109,52 L-111,53 L-110,62 L-113,67 L-116,68 L-120,67 L-122,69 L-122,81 L-123,87 L-124,87 L-125,92 L-129,93 L-130,96 L-132,96 L-133,101 L-135,100 L-137,106 L-136,165 L-135,198 L-133,198 L-131,200 L-131,205 L-126,206 L-121,210 L-115,211 L-115,209 L-113,210 L-110,213 L-109,211 L-106,211 L-106,224 L-104,223 L-102,219 L-100,224 L-94,222 L-82,222 L-82,224 L-74,223 L-74,220 L-56,220 L-57,215 L-58,213 L-53,213 L-51,218 L-51,222 L-49,223 L-50,225 L-54,227 L-53,236 L-48,233 L-44,229 L-44,224 L-40,222 L-25,222 L-25,224 L-33,231 L-35,228 L-37,228 L-38,233 L-42,235 L-46,237 L-48,245 L-46,245 L-45,249 L-50,250 L-50,252 L-55,252 L-55,254 L-92,255 L-110,252 L-123,248 L-122,241 L-125,233 L-129,231 L-130,227 L-132,227 L-132,225 L-135,225 L-139,217 L-143,209 L-143,205 L-146,204 L-148,200 L-150,199 L-150,106 L-147,94 L-146,94 L-146,100 L-144,100 L-144,90 L-143,89 L-143,80 L-141,70 L-139,68 L-138,56 L-134,50 L-132,46 L-124,42 L-122,33 L-118,29 L-113,29 L-112,24 L-104,18 L-102,18 L-102,16 L-82,12 L-78,13 L-77,5 L-64,3 L-56,4 L-53,4 L-44,4 L-40,2 Z M112,16 Z M-56,230 Z M-57,231 Z M-51,216 Z M-86,221 Z " fill="#C38065" transform="translate(454,380)"/>
<path d="M0,0 L6,0 L10,1 L46,1 L54,0 L58,1 L62,0 L62,2 L71,1 L72,3 L97,4 L104,4 L104,6 L108,7 L109,6 L115,6 L116,7 L124,8 L125,10 L130,9 L145,9 L146,12 L158,13 L158,16 L156,16 L156,14 L150,15 L150,19 L156,21 L159,25 L158,28 L140,28 L140,26 L132,24 L132,19 L106,19 L106,24 L98,23 L98,20 L85,18 L84,17 L74,16 L74,14 L71,16 L64,18 L58,17 L56,15 L28,13 L22,12 L4,12 L-36,14 L-40,16 L-50,16 L-54,16 L-62,15 L-73,16 L-74,24 L-82,25 L-98,27 L-98,29 L-107,35 L-109,40 L-115,42 L-117,44 L-119,53 L-121,55 L-128,57 L-129,61 L-133,67 L-134,79 L-136,81 L-138,94 L-138,100 L-139,101 L-140,111 L-142,111 L-143,107 L-145,117 L-146,210 L-142,212 L-141,215 L-139,216 L-136,224 L-131,234 L-131,236 L-128,236 L-128,238 L-126,238 L-125,242 L-120,244 L-119,245 L-119,251 L-117,252 L-119,259 L-114,259 L-106,262 L-88,265 L-51,265 L-51,263 L-46,263 L-46,261 L-42,259 L-42,256 L-44,256 L-43,248 L-40,245 L-36,244 L-34,243 L-33,239 L-30,238 L-29,241 L-23,235 L-21,235 L-19,231 L-2,231 L-2,229 L3,227 L1,231 L0,233 L6,232 L7,235 L5,240 L6,241 L12,241 L12,244 L11,247 L14,248 L14,244 L19,241 L20,239 L14,238 L14,236 L9,237 L10,231 L28,232 L28,230 L37,232 L40,232 L43,233 L46,234 L46,236 L48,236 L48,232 L54,232 L54,228 L50,227 L54,227 L54,222 L61,221 L62,219 L89,219 L90,220 L98,221 L98,219 L107,218 L108,219 L126,219 L125,221 L109,223 L110,225 L102,227 L102,224 L97,227 L90,228 L90,231 L80,236 L77,241 L74,240 L74,243 L76,244 L74,245 L61,246 L61,250 L56,250 L56,252 L52,252 L51,251 L51,254 L41,256 L36,259 L31,260 L30,255 L22,255 L22,257 L21,258 L22,258 L22,271 L3,272 L-3,270 L-8,272 L-9,270 L-7,266 L-3,264 L-1,259 L-8,260 L-8,258 L-12,258 L-12,261 L-16,261 L-17,264 L-23,265 L-27,269 L-78,269 L-103,267 L-110,264 L-119,261 L-126,258 L-130,256 L-129,247 L-131,247 L-132,242 L-136,242 L-136,236 L-138,236 L-138,234 L-142,233 L-144,227 L-144,222 L-146,222 L-146,218 L-148,218 L-152,202 L-152,177 L-151,165 L-153,158 L-152,117 L-151,107 L-148,106 L-145,79 L-143,79 L-141,69 L-139,67 L-137,61 L-133,61 L-132,53 L-130,50 L-128,50 L-128,47 L-126,47 L-125,42 L-121,40 L-118,28 L-114,25 L-104,23 L-104,21 L-101,20 L-100,17 L-95,16 L-93,13 L-78,13 L-76,12 L-70,12 L-68,8 L-50,6 L-50,8 L-40,6 L-38,5 L-30,5 L-26,4 L-20,3 Z M18,237 Z M19,259 Z M157,21 Z M100,218 Z " fill="#AE7460" transform="translate(450,369)"/>
<path d="M0,0 L22,0 L22,2 L46,2 L46,0 L74,0 L74,2 L106,2 L106,4 L118,4 L120,7 L128,8 L128,10 L138,10 L138,11 L128,11 L127,14 L120,15 L88,15 L88,13 L81,11 L66,10 L44,11 L32,11 L24,10 L24,13 L20,13 L20,10 L15,10 L15,12 L5,14 L0,14 L-1,15 L-8,16 L-26,16 L-30,17 L-40,17 L-54,18 L-64,21 L-64,23 L-76,25 L-82,29 L-86,29 L-88,35 L-94,35 L-103,42 L-104,47 L-106,47 L-106,50 L-109,51 L-110,54 L-112,55 L-113,64 L-114,74 L-115,76 L-119,77 L-121,83 L-124,92 L-125,94 L-127,94 L-127,106 L-129,121 L-133,122 L-134,173 L-132,180 L-133,197 L-133,217 L-130,233 L-128,233 L-128,237 L-126,237 L-123,248 L-120,249 L-120,251 L-118,251 L-118,257 L-114,257 L-113,262 L-111,262 L-111,271 L-103,274 L-96,277 L-87,280 L-85,281 L-60,283 L-9,283 L-6,282 L-5,279 L1,278 L2,276 L6,276 L6,273 L10,273 L10,275 L17,274 L15,280 L11,282 L10,286 L16,284 L16,286 L40,286 L39,274 L38,272 L40,272 L40,270 L48,270 L50,274 L52,274 L53,272 L57,272 L62,269 L69,269 L68,265 L70,264 L70,267 L74,268 L70,268 L70,270 L68,270 L68,272 L66,272 L66,274 L60,274 L60,276 L58,276 L58,278 L52,278 L52,280 L46,280 L46,282 L48,282 L48,288 L44,288 L44,290 L28,290 L28,292 L20,292 L20,290 L16,290 L16,292 L2,292 L2,294 L-3,296 L-6,300 L-28,300 L-28,298 L-30,298 L-30,292 L-34,292 L-34,290 L-44,290 L-44,288 L-88,288 L-88,286 L-102,286 L-102,284 L-108,284 L-108,282 L-112,282 L-112,280 L-116,280 L-116,276 L-120,276 L-120,264 L-124,264 L-128,260 L-130,255 L-132,254 L-132,250 L-134,250 L-134,244 L-136,244 L-136,236 L-138,236 L-138,232 L-140,232 L-140,226 L-142,226 L-142,114 L-140,114 L-140,98 L-138,98 L-138,90 L-136,90 L-136,80 L-134,80 L-134,74 L-132,74 L-132,70 L-130,70 L-130,64 L-128,64 L-128,52 L-122,52 L-122,50 L-118,50 L-117,45 L-114,42 L-112,42 L-110,38 L-108,38 L-108,36 L-106,36 L-106,30 L-104,30 L-104,28 L-100,28 L-100,26 L-92,26 L-92,24 L-88,24 L-86,20 L-82,18 L-82,16 L-78,16 L-78,14 L-62,14 L-62,12 L-54,12 L-54,10 L-50,10 L-50,8 L-38,8 L-38,6 L-36,6 L-36,4 L-30,4 L-30,2 L-16,2 L-16,4 L-10,4 L-10,2 L0,2 Z M37,274 Z " fill="#A26958" transform="translate(432,354)"/>
<path d="M0,0 L15,1 L22,3 L23,5 L54,5 L61,4 L62,2 L72,2 L72,4 L129,4 L130,6 L153,6 L154,8 L161,8 L161,10 L154,11 L152,15 L150,15 L150,13 L146,15 L146,13 L141,13 L143,17 L148,17 L148,20 L150,20 L150,18 L152,18 L152,20 L168,20 L171,22 L184,22 L184,24 L187,21 L190,21 L188,27 L189,33 L190,29 L196,30 L196,33 L198,33 L200,37 L206,35 L206,40 L209,41 L209,44 L216,45 L219,50 L219,57 L224,59 L225,63 L223,63 L224,70 L224,72 L222,72 L221,75 L219,75 L217,78 L215,72 L212,72 L210,74 L208,74 L207,67 L207,64 L206,58 L201,59 L200,54 L200,51 L191,54 L190,59 L187,57 L184,57 L180,51 L175,53 L170,55 L171,52 L173,50 L172,47 L169,47 L167,45 L164,47 L159,46 L162,43 L166,43 L166,38 L162,37 L162,35 L156,37 L156,35 L152,34 L155,34 L154,30 L146,30 L142,28 L142,23 L136,24 L136,22 L133,22 L132,25 L128,26 L121,26 L118,26 L117,23 L113,22 L113,20 L98,18 L96,16 L80,16 L76,17 L76,14 L68,14 L67,13 L61,13 L58,13 L56,12 L56,10 L49,11 L24,10 L22,8 L14,8 L14,6 L9,8 L2,7 L-2,8 L-40,8 L-42,7 L-54,8 L-68,10 L-75,11 L-78,12 L-87,12 L-92,14 L-98,14 L-98,12 L-106,14 L-116,15 L-118,18 L-126,20 L-141,20 L-143,23 L-148,24 L-148,27 L-152,27 L-152,29 L-164,33 L-166,39 L-169,46 L-173,49 L-174,53 L-176,53 L-176,56 L-178,56 L-179,58 L-180,51 L-178,45 L-176,45 L-175,41 L-172,41 L-172,38 L-170,38 L-170,33 L-160,25 L-154,25 L-152,20 L-145,17 L-139,14 L-130,14 L-130,12 L-123,9 L-120,8 L-104,7 L-96,7 L-87,6 L-74,6 L-67,5 L-65,4 L-51,3 L-51,1 L-46,1 L-46,4 L-42,4 L-42,1 L-17,1 Z M186,31 Z M199,38 Z M208,69 Z M141,28 Z " fill="#A57160" transform="translate(498,363)"/>
<path d="M0,0 Z M6,0 L8,1 L26,1 L25,3 L9,5 L10,7 L2,9 L2,6 L-3,9 L-10,10 L-10,13 L-20,18 L-23,23 L-26,22 L-26,25 L-24,26 L-26,27 L-39,28 L-39,32 L-44,32 L-44,34 L-48,34 L-49,33 L-49,36 L-59,38 L-64,41 L-69,42 L-70,37 L-78,37 L-78,39 L-79,40 L-78,40 L-78,53 L-97,54 L-103,52 L-108,54 L-109,52 L-107,48 L-103,46 L-101,41 L-108,42 L-108,40 L-112,40 L-112,43 L-116,43 L-117,46 L-123,47 L-127,51 L-133,51 L-134,48 L-140,49 L-170,50 L-182,49 L-182,47 L-151,47 L-151,45 L-146,45 L-146,43 L-142,41 L-142,38 L-144,38 L-143,30 L-140,27 L-136,26 L-134,25 L-133,21 L-130,20 L-129,23 L-123,17 L-121,17 L-119,13 L-102,13 L-102,11 L-97,9 L-99,13 L-100,15 L-94,14 L-93,17 L-95,22 L-94,23 L-88,23 L-88,26 L-89,29 L-86,30 L-86,26 L-81,23 L-80,21 L-86,20 L-86,18 L-91,19 L-90,13 L-72,14 L-72,12 L-63,14 L-60,14 L-57,15 L-54,16 L-54,18 L-52,18 L-52,14 L-46,14 L-46,10 L-50,9 L-46,9 L-46,4 L-39,3 L-38,1 L-11,1 L-10,2 L-2,3 L-2,1 Z M-82,19 Z M-81,41 Z " fill="#AC7861" transform="translate(550,587)"/>
<path d="M0,0 L4,0 L3,11 L6,11 L6,17 L5,20 L5,24 L3,26 L4,32 L2,35 L3,38 L5,38 L8,42 L6,42 L4,46 L2,46 L2,50 L0,50 L-1,54 L-4,56 L-8,57 L-11,58 L-11,68 L-21,69 L-26,74 L-34,75 L-36,74 L-36,78 L-38,79 L-38,81 L-58,81 L-58,76 L-63,76 L-70,79 L-74,80 L-74,82 L-82,86 L-82,83 L-78,82 L-79,78 L-83,79 L-84,81 L-86,81 L-85,84 L-90,84 L-91,82 L-98,86 L-101,87 L-104,90 L-109,89 L-110,85 L-112,84 L-110,78 L-112,77 L-106,76 L-107,68 L-104,69 L-103,72 L-104,74 L-99,74 L-96,68 L-86,69 L-86,72 L-84,72 L-84,70 L-82,70 L-82,62 L-88,63 L-94,61 L-94,59 L-98,60 L-98,54 L-94,53 L-81,52 L-72,48 L-70,48 L-70,46 L-67,47 L-71,52 L-74,55 L-66,54 L-64,50 L-58,50 L-57,52 L-58,56 L-53,56 L-52,54 L-46,56 L-46,54 L-40,55 L-43,58 L-46,58 L-46,61 L-42,62 L-47,68 L-45,69 L-46,74 L-44,74 L-44,71 L-42,71 L-41,68 L-30,67 L-30,62 L-28,62 L-30,60 L-33,58 L-27,56 L-27,50 L-24,49 L-24,52 L-18,50 L-16,44 L-11,36 L-11,34 L-13,34 L-12,29 L-13,28 L-13,23 L-10,22 L0,22 L-1,16 L-1,10 L1,10 Z M4,40 Z M-14,34 Z M-40,54 Z M-90,68 Z " fill="#AD7A67" transform="translate(718,482)"/>
<path d="M0,0 L13,1 L13,3 L29,3 L44,4 L46,9 L63,9 L67,8 L73,9 L73,12 L79,12 L79,13 L63,13 L57,12 L44,13 L40,10 L32,9 L26,11 L20,10 L16,10 L15,11 L-5,11 L-55,12 L-71,14 L-71,17 L-77,19 L-81,19 L-81,21 L-85,22 L-87,23 L-108,24 L-113,25 L-113,27 L-115,27 L-115,31 L-119,32 L-120,43 L-120,48 L-122,49 L-121,58 L-124,63 L-127,64 L-131,63 L-133,65 L-133,77 L-134,83 L-135,83 L-136,88 L-140,89 L-141,92 L-143,92 L-144,97 L-146,96 L-148,102 L-147,161 L-146,194 L-144,194 L-142,196 L-142,201 L-137,202 L-137,203 L-143,203 L-146,199 L-146,195 L-148,195 L-149,186 L-149,173 L-152,177 L-154,159 L-152,153 L-153,153 L-154,130 L-155,126 L-154,124 L-156,124 L-156,121 L-158,121 L-158,105 L-154,98 L-151,98 L-151,96 L-149,96 L-147,78 L-145,63 L-142,62 L-142,53 L-140,50 L-137,50 L-136,48 L-134,48 L-133,43 L-129,41 L-129,38 L-125,36 L-122,36 L-122,26 L-115,20 L-112,20 L-112,18 L-109,18 L-109,16 L-99,16 L-89,14 L-85,14 L-85,12 L-83,11 L-73,10 L-67,8 L-55,8 L-52,7 L-43,8 L-43,6 L-41,6 L-41,8 L-19,8 L-17,3 L-1,1 Z " fill="#CA8469" transform="translate(465,384)"/>
<path d="M0,0 L5,1 L5,6 L17,5 L25,6 L21,9 L18,10 L17,13 L15,13 L16,17 L13,17 L13,15 L7,17 L5,8 L1,7 L-4,8 L4,10 L5,15 L4,17 L-4,17 L-4,22 L-8,22 L-8,24 L-14,24 L-14,26 L-26,25 L-26,29 L-28,30 L-28,32 L-35,32 L-35,35 L-51,35 L-51,37 L-57,37 L-57,39 L-61,39 L-61,41 L-65,41 L-65,43 L-67,43 L-67,45 L-75,45 L-75,47 L-87,47 L-87,49 L-99,49 L-99,51 L-103,51 L-103,53 L-111,53 L-111,55 L-115,55 L-115,57 L-121,57 L-121,59 L-127,59 L-127,61 L-143,61 L-143,63 L-149,63 L-149,62 L-144,62 L-144,60 L-149,60 L-145,58 L-144,57 L-131,56 L-131,52 L-128,52 L-125,47 L-115,42 L-115,39 L-108,38 L-103,36 L-103,39 L-97,36 L-96,34 L-80,32 L-79,31 L-67,31 L-63,32 L-63,27 L-59,27 L-59,23 L-63,24 L-63,22 L-74,23 L-81,22 L-83,20 L-74,19 L-63,18 L-63,20 L-51,19 L-44,18 L-39,20 L-39,12 L-35,10 L-27,6 L-26,8 L-23,8 L-23,6 L-21,6 L-20,3 L-15,2 L-14,4 L-15,7 L-19,8 L-18,10 L-13,7 L-11,7 L-11,5 L-6,2 Z " fill="#A5765F" transform="translate(655,557)"/>
<path d="M0,0 L1,0 L1,53 L3,60 L2,77 L2,97 L5,113 L7,113 L7,117 L9,117 L12,128 L15,129 L15,131 L17,131 L17,137 L21,137 L22,142 L24,142 L24,151 L32,154 L39,157 L48,160 L50,161 L75,163 L126,163 L129,162 L130,159 L136,158 L137,156 L141,156 L141,153 L145,153 L145,155 L152,154 L150,160 L146,162 L145,166 L151,164 L151,166 L175,166 L174,154 L173,152 L175,152 L175,150 L183,150 L185,154 L187,154 L188,152 L192,152 L197,149 L204,149 L203,145 L205,144 L205,147 L209,148 L205,148 L205,150 L203,150 L203,152 L201,152 L201,154 L195,154 L195,156 L193,156 L193,158 L187,158 L187,160 L181,160 L181,162 L183,162 L183,168 L179,168 L179,170 L163,170 L163,172 L155,172 L155,170 L151,170 L151,172 L137,172 L137,174 L132,176 L129,180 L107,180 L107,178 L105,178 L105,172 L101,172 L101,170 L91,170 L91,167 L48,167 L48,162 L28,163 L28,161 L32,160 L31,157 L24,157 L22,156 L22,159 L20,159 L20,143 L12,143 L11,139 L8,139 L8,133 L6,129 L6,120 L4,114 L2,112 L0,115 L-2,115 L-2,111 L-4,111 L-4,106 L-2,106 L-3,102 L-3,54 L-2,10 Z M172,154 Z " fill="#A2735E" transform="translate(297,474)"/>
<path d="M0,0 L2,1 L0,5 L-6,5 L-15,12 L-16,17 L-18,17 L-18,20 L-21,21 L-22,24 L-24,25 L-25,34 L-26,44 L-27,46 L-31,47 L-33,53 L-36,62 L-37,64 L-39,64 L-39,76 L-41,91 L-45,92 L-45,102 L-46,102 L-47,94 L-48,100 L-49,144 L-49,196 L-51,196 L-51,201 L-49,201 L-48,198 L-49,205 L-47,205 L-45,201 L-41,205 L-40,213 L-40,219 L-38,223 L-39,229 L-37,229 L-36,227 L-33,231 L-35,231 L-35,233 L-27,232 L-26,233 L-26,246 L-27,249 L-25,249 L-25,246 L-16,247 L-14,251 L-19,251 L-19,253 L-14,252 L1,252 L1,254 L26,254 L26,255 L1,255 L1,257 L44,257 L44,258 L0,258 L0,256 L-14,256 L-14,254 L-20,254 L-20,252 L-24,252 L-24,250 L-28,250 L-28,246 L-32,246 L-32,234 L-36,234 L-40,230 L-42,225 L-44,224 L-44,220 L-46,220 L-46,214 L-48,214 L-48,206 L-50,206 L-50,202 L-52,202 L-52,196 L-54,196 L-54,84 L-52,84 L-52,68 L-50,68 L-50,60 L-48,60 L-48,50 L-46,50 L-46,44 L-44,44 L-44,40 L-42,40 L-42,34 L-40,34 L-40,22 L-34,22 L-34,20 L-29,20 L-29,17 L-23,17 L-23,11 L-19,9 L-19,11 L-17,11 L-17,9 L-10,5 L-8,5 L-8,3 L-1,3 Z " fill="#AE7052" transform="translate(344,384)"/>
<path d="M0,0 L2,1 L5,4 L6,2 L9,2 L9,15 L11,14 L13,10 L15,15 L21,13 L33,13 L33,15 L41,14 L41,11 L59,11 L58,6 L57,4 L62,4 L64,9 L64,13 L66,14 L65,16 L61,18 L62,27 L67,24 L71,20 L71,15 L75,13 L90,13 L90,15 L82,22 L80,19 L78,19 L77,24 L73,26 L69,28 L66,37 L65,38 L51,41 L25,42 L13,41 L11,38 L11,28 L9,28 L9,26 L-3,24 L-3,19 L-7,19 L-8,8 L-6,1 L0,2 Z M59,21 Z M58,22 Z M64,7 Z M29,12 Z " fill="#CA7D65" transform="translate(339,589)"/>
<path d="M0,0 L3,1 L2,8 L-4,10 L-6,12 L-8,21 L-10,23 L-17,25 L-18,29 L-22,35 L-23,47 L-25,49 L-27,62 L-27,68 L-28,69 L-29,79 L-31,79 L-32,75 L-34,85 L-35,178 L-31,180 L-30,183 L-28,184 L-25,192 L-20,202 L-20,204 L-17,204 L-17,206 L-15,206 L-14,210 L-9,212 L-8,213 L-8,219 L-6,220 L-8,227 L-3,227 L5,230 L29,234 L45,235 L77,234 L77,236 L67,237 L33,237 L8,235 L1,232 L-8,229 L-15,226 L-19,224 L-18,215 L-20,215 L-21,210 L-25,210 L-25,204 L-27,204 L-27,202 L-31,201 L-33,195 L-33,190 L-35,190 L-35,186 L-37,186 L-41,170 L-41,145 L-40,133 L-42,126 L-41,85 L-40,75 L-37,74 L-34,47 L-32,47 L-30,37 L-28,35 L-26,29 L-22,29 L-21,21 L-19,18 L-17,18 L-17,15 L-15,15 L-14,10 L-10,8 L-8,1 L-5,2 Z " fill="#B7785B" transform="translate(339,401)"/>
<path d="M0,0 L6,1 L6,4 L8,4 L10,8 L16,6 L16,11 L19,12 L19,15 L26,16 L29,21 L29,28 L34,30 L35,34 L33,34 L34,41 L34,43 L32,43 L31,46 L29,46 L27,49 L25,43 L22,43 L20,45 L18,45 L17,38 L17,35 L16,29 L11,30 L10,25 L10,22 L1,25 L0,30 L-3,28 L-6,28 L-10,22 L-15,24 L-20,26 L-19,23 L-17,21 L-18,18 L-21,18 L-23,16 L-26,18 L-31,17 L-28,14 L-24,14 L-24,9 L-28,8 L-28,6 L-34,8 L-34,6 L-38,5 L-35,5 L-36,2 L-34,2 L-34,4 L-32,4 L-31,2 L-8,4 L-8,7 L-3,7 L-2,4 Z M9,9 Z M18,40 Z " fill="#B27C67" transform="translate(688,392)"/>
<path d="M0,0 L1,0 L2,17 L3,48 L4,50 L4,57 L5,59 L5,71 L3,86 L5,86 L3,90 L8,93 L11,93 L11,96 L13,96 L15,103 L19,105 L21,111 L24,109 L25,116 L28,115 L28,122 L32,122 L32,127 L39,127 L47,131 L47,141 L48,144 L64,144 L86,143 L100,140 L104,139 L105,143 L100,144 L100,146 L95,146 L95,148 L58,149 L40,146 L27,142 L28,135 L25,127 L21,125 L20,121 L18,121 L18,119 L15,119 L11,111 L7,103 L7,99 L4,98 L2,94 L0,93 Z " fill="#BA8062" transform="translate(304,486)"/>
<path d="M0,0 L8,2 L9,4 L16,3 L46,3 L50,2 L60,3 L64,2 L64,4 L70,3 L72,4 L72,6 L74,6 L74,4 L78,4 L78,6 L90,5 L106,5 L106,7 L127,8 L156,9 L158,10 L159,8 L164,9 L164,13 L170,15 L173,19 L172,22 L154,22 L154,20 L146,18 L146,13 L120,13 L120,18 L112,17 L112,14 L99,12 L98,11 L88,10 L88,8 L85,10 L78,12 L72,11 L70,9 L42,7 L36,6 L18,6 L-22,8 L-26,10 L-36,10 L-40,10 L-46,9 L-46,8 L-20,5 L-14,2 L0,2 Z M171,15 Z " fill="#BA7A63" transform="translate(436,375)"/>
<path d="M0,0 L3,1 L-1,6 L-4,9 L4,8 L6,4 L12,4 L13,6 L12,10 L17,10 L18,8 L24,10 L24,8 L30,9 L27,12 L24,12 L24,15 L28,16 L23,22 L25,23 L21,24 L20,20 L14,24 L11,23 L3,23 L0,22 L0,24 L-8,26 L-8,29 L-14,32 L-16,33 L-17,29 L-23,33 L-24,35 L-40,36 L-41,34 L-40,32 L-42,31 L-36,30 L-37,22 L-34,23 L-33,26 L-34,28 L-29,28 L-26,22 L-16,23 L-16,26 L-14,26 L-14,24 L-12,24 L-12,16 L-18,17 L-24,15 L-24,13 L-28,14 L-28,8 L-24,7 L-11,6 L-2,2 L0,2 Z M30,8 Z M-20,22 Z " fill="#B58167" transform="translate(648,528)"/>
<path d="M0,0 L10,1 L14,3 L20,2 L36,3 L35,5 L27,5 L24,9 L20,7 L16,7 L10,6 L8,7 L7,5 L1,4 L0,8 L-11,11 L-14,11 L-14,9 L-21,12 L-25,12 L-30,11 L-40,13 L-44,17 L-46,17 L-45,20 L-48,22 L-58,24 L-80,25 L-80,28 L-84,29 L-86,26 L-85,17 L-82,12 L-74,11 L-70,12 L-69,9 L-66,10 L-64,13 L-60,14 L-60,12 L-55,9 L-36,9 L-36,7 L-32,7 L-32,5 L-30,5 L-30,3 L-20,2 L-16,1 L-4,2 Z " fill="#DE8F76" transform="translate(438,400)"/>
<path d="M0,0 L1,0 L1,16 L3,16 L3,128 L1,128 L1,133 L3,133 L4,130 L3,137 L5,137 L7,133 L11,137 L12,145 L12,151 L14,155 L13,161 L15,161 L16,159 L19,163 L17,163 L17,165 L25,164 L26,165 L26,178 L25,181 L27,181 L27,178 L36,179 L38,183 L33,183 L33,185 L38,184 L53,184 L53,186 L78,186 L78,187 L53,187 L53,189 L96,189 L96,190 L52,190 L52,188 L38,188 L38,186 L32,186 L32,184 L28,184 L28,182 L24,182 L24,178 L20,178 L20,166 L16,166 L12,162 L10,157 L8,156 L8,152 L6,152 L6,146 L4,146 L4,138 L2,138 L2,134 L0,134 L0,128 L-2,128 L-2,16 L0,16 Z " fill="#966551" transform="translate(292,452)"/>
<path d="M0,0 L7,0 L7,3 L14,3 L23,0 L23,2 L33,2 L38,4 L47,6 L47,9 L55,10 L55,5 L81,5 L81,10 L89,12 L89,14 L93,13 L105,13 L108,15 L107,17 L109,17 L109,20 L104,23 L101,24 L99,22 L101,19 L99,19 L99,17 L95,18 L95,25 L93,26 L87,24 L86,19 L81,21 L74,18 L72,19 L71,23 L69,23 L68,17 L67,23 L65,23 L64,15 L63,23 L61,23 L60,19 L53,24 L49,24 L46,17 L43,14 L37,13 L35,6 L31,5 L9,5 L1,3 Z M65,13 Z " fill="#BE8067" transform="translate(501,383)"/>
<path d="M0,0 L84,0 L96,1 L98,4 L106,5 L106,7 L116,7 L116,8 L106,8 L105,11 L98,12 L66,12 L66,10 L59,8 L44,7 L22,8 L10,8 L2,7 L2,10 L-2,10 L-2,7 L-6,7 L-6,5 L0,3 Z " fill="#A16B5B" transform="translate(454,357)"/>
<path d="M0,0 L1,0 L1,53 L3,60 L2,77 L2,97 L5,113 L7,113 L7,117 L9,117 L12,128 L15,129 L15,131 L17,131 L17,137 L21,137 L22,142 L24,142 L24,151 L32,154 L39,157 L48,160 L50,161 L75,163 L75,164 L48,164 L48,162 L28,163 L28,161 L32,160 L31,157 L24,157 L22,156 L22,159 L20,159 L20,143 L12,143 L11,139 L8,139 L8,133 L6,129 L6,120 L4,114 L2,112 L0,115 L-2,115 L-2,111 L-4,111 L-4,106 L-2,106 L-3,102 L-3,54 L-2,10 Z " fill="#A76F59" transform="translate(297,474)"/>
<path d="M0,0 L16,0 L12,3 L8,4 L6,3 L6,5 L-8,6 L-14,9 L-42,12 L-53,13 L-54,21 L-62,22 L-78,24 L-78,26 L-88,32 L-91,30 L-95,31 L-97,33 L-98,31 L-98,25 L-94,22 L-84,20 L-84,18 L-81,17 L-80,14 L-75,13 L-73,10 L-58,10 L-56,9 L-50,9 L-48,5 L-30,3 L-30,5 L-20,3 L-18,2 L-10,2 L-6,1 Z " fill="#B4725B" transform="translate(430,372)"/>
<path d="M0,0 L1,0 L2,54 L3,68 L4,72 L4,105 L6,105 L7,107 L7,113 L9,113 L9,115 L12,115 L13,123 L12,125 L14,125 L14,127 L20,127 L20,129 L23,129 L23,131 L25,131 L26,135 L31,137 L32,138 L32,144 L34,145 L32,152 L37,152 L45,155 L69,159 L85,160 L117,159 L117,161 L107,162 L73,162 L48,160 L41,157 L32,154 L25,151 L21,149 L22,140 L20,140 L19,135 L15,135 L15,129 L13,129 L13,127 L9,126 L7,120 L7,115 L5,115 L5,111 L3,111 L-1,95 L-1,70 L0,58 L-2,51 L-1,10 Z " fill="#AE7359" transform="translate(299,476)"/>
<path d="M0,0 L14,0 L17,2 L22,2 L22,5 L24,5 L24,3 L26,3 L26,5 L42,5 L45,7 L58,7 L58,9 L61,6 L64,6 L62,12 L62,19 L61,21 L56,21 L56,18 L33,17 L30,18 L30,16 L20,15 L16,13 L16,8 L10,9 L10,7 L7,7 L6,10 L2,11 L-5,11 L-8,11 L-9,8 L-13,7 L-13,5 L-6,2 L0,2 Z M60,16 Z M15,13 Z " fill="#AB765F" transform="translate(624,378)"/>
<path d="M0,0 L58,0 L58,2 L82,2 L82,4 L90,4 L90,6 L94,6 L94,8 L100,8 L100,10 L114,10 L114,12 L122,12 L122,14 L138,14 L138,16 L140,16 L140,24 L138,24 L138,26 L140,26 L139,30 L139,27 L134,27 L132,18 L122,19 L118,20 L118,18 L115,18 L114,21 L112,21 L112,19 L98,20 L98,18 L88,18 L80,17 L80,15 L78,15 L78,17 L76,17 L74,15 L70,15 L69,10 L74,10 L78,10 L78,12 L80,12 L82,7 L89,7 L89,5 L76,6 L76,5 L81,5 L81,3 L58,4 L0,4 L0,3 L57,3 L57,1 L0,1 Z " fill="#A4705C" transform="translate(570,366)"/>
<path d="M0,0 L2,0 L2,2 L4,1 L27,2 L27,3 L11,3 L11,5 L5,5 L5,7 L1,7 L1,9 L-3,9 L-3,11 L-5,11 L-5,13 L-13,13 L-13,15 L-25,15 L-25,17 L-37,17 L-37,19 L-41,19 L-41,21 L-49,21 L-49,23 L-53,23 L-53,25 L-59,25 L-59,27 L-65,27 L-65,29 L-81,29 L-81,31 L-87,31 L-87,30 L-82,30 L-82,28 L-87,28 L-83,26 L-82,25 L-69,24 L-69,20 L-66,20 L-63,15 L-62,14 L-49,14 L-49,12 L-26,12 L-25,13 L-14,14 L-14,12 L-25,12 L-25,10 L-18,8 L-17,5 L-12,2 L-5,2 Z " fill="#A3715A" transform="translate(593,589)"/>
<path d="M0,0 L5,0 L5,3 L1,5 L-15,5 L-15,7 L-39,7 L-39,9 L-46,10 L-53,13 L-65,14 L-67,17 L-75,19 L-90,19 L-92,22 L-97,23 L-97,26 L-101,26 L-101,28 L-113,32 L-115,38 L-118,45 L-122,48 L-123,52 L-125,52 L-125,55 L-127,55 L-128,57 L-129,50 L-127,44 L-125,44 L-124,40 L-121,40 L-121,37 L-119,37 L-119,32 L-109,24 L-103,24 L-101,19 L-94,16 L-88,13 L-79,13 L-79,11 L-72,8 L-69,7 L-53,6 L-45,6 L-36,5 L-23,5 L-16,4 L-14,3 L0,2 Z " fill="#A96D5A" transform="translate(447,364)"/>
<path d="M0,0 L13,1 L13,3 L29,3 L44,4 L46,9 L63,9 L67,8 L73,9 L73,12 L79,12 L79,13 L63,13 L57,12 L44,13 L40,10 L32,9 L26,11 L20,10 L16,10 L15,11 L-43,11 L-41,10 L-41,8 L-19,8 L-17,3 L-1,1 Z " fill="#C98670" transform="translate(465,384)"/>
<path d="M0,0 L2,1 L5,4 L6,2 L9,2 L9,15 L11,14 L13,10 L15,15 L21,13 L33,13 L33,15 L41,14 L41,11 L59,11 L58,6 L57,4 L62,4 L64,9 L61,12 L59,12 L59,14 L50,15 L46,15 L42,19 L39,20 L37,19 L37,17 L33,18 L32,17 L23,20 L12,19 L13,27 L9,28 L9,26 L-3,24 L-3,19 L-7,19 L-8,8 L-6,1 L0,2 Z M64,7 Z M29,12 Z " fill="#C68766" transform="translate(339,589)"/>
<path d="M0,0 Z M6,0 L8,1 L26,1 L25,3 L9,5 L10,7 L2,9 L2,6 L-3,9 L-10,10 L-10,13 L-16,16 L-22,16 L-22,14 L-34,14 L-44,18 L-46,18 L-46,15 L-52,16 L-52,14 L-46,14 L-46,10 L-50,9 L-46,9 L-46,4 L-39,3 L-38,1 L-11,1 L-10,2 L-2,3 L-2,1 Z " fill="#AF7D64" transform="translate(550,587)"/>
<path d="M0,0 L1,3 L5,4 L1,4 L1,6 L-1,6 L-1,8 L-3,8 L-3,10 L-9,10 L-9,12 L-11,12 L-11,14 L-17,14 L-17,16 L-23,16 L-23,18 L-21,18 L-21,24 L-25,24 L-25,26 L-41,26 L-41,28 L-49,28 L-49,26 L-53,26 L-53,28 L-67,28 L-67,30 L-72,32 L-75,36 L-97,36 L-97,34 L-99,34 L-99,28 L-103,28 L-103,26 L-113,26 L-113,25 L-103,25 L-102,22 L-102,24 L-100,25 L-102,25 L-102,27 L-99,27 L-99,25 L-96,25 L-94,32 L-85,32 L-85,27 L-82,25 L-74,25 L-72,28 L-68,29 L-68,27 L-70,26 L-68,26 L-67,24 L-67,27 L-54,27 L-54,25 L-59,25 L-59,24 L-49,24 L-42,22 L-29,22 L-30,10 L-31,8 L-29,8 L-29,6 L-21,6 L-19,10 L-17,10 L-16,8 L-12,8 L-7,5 L0,5 L-1,1 Z M-32,10 Z " fill="#926754" transform="translate(501,618)"/>
<path d="M0,0 L1,0 L1,8 L-1,8 L0,61 L2,66 L4,66 L4,76 L6,77 L6,87 L10,87 L11,95 L10,99 L12,99 L14,104 L17,105 L18,107 L26,107 L26,112 L28,112 L28,114 L30,114 L29,117 L29,115 L26,115 L25,118 L24,115 L21,116 L20,115 L13,115 L11,111 L4,109 L2,105 L2,102 L0,102 L-1,98 L-2,69 L-3,10 Z M0,66 Z " fill="#CD8C6F" transform="translate(319,476)"/>
<path d="M0,0 L6,0 L10,1 L46,1 L54,0 L58,1 L62,0 L62,2 L71,1 L72,4 L70,5 L70,3 L61,4 L57,6 L57,9 L50,10 L50,8 L44,10 L34,9 L32,10 L-2,10 L-6,11 L-6,9 L-10,6 L-7,4 L-12,3 L-12,2 Z " fill="#B07766" transform="translate(450,369)"/>
<path d="M0,0 L12,0 L12,1 L-2,3 L-3,5 L-6,5 L-6,7 L-10,8 L-10,10 L-4,7 L-2,8 L-2,10 L-4,10 L-4,12 L-8,12 L-8,14 L-21,15 L-27,15 L-32,17 L-32,19 L-37,19 L-38,15 L-41,15 L-42,17 L-50,17 L-55,19 L-57,27 L-57,38 L-59,38 L-59,36 L-63,37 L-65,41 L-63,41 L-65,46 L-68,42 L-67,37 L-65,37 L-66,26 L-64,21 L-60,20 L-60,16 L-58,16 L-58,14 L-53,12 L-30,11 L-29,9 L-26,10 L-26,8 L-21,6 L-16,6 L-16,3 L-14,2 Z " fill="#D78A70" transform="translate(410,395)"/>
<path d="M0,0 L22,0 L22,2 L46,2 L46,0 L74,0 L74,2 L106,2 L106,3 L74,4 L46,4 L22,3 L23,6 L20,6 L20,4 L0,5 L0,3 L-9,3 L-9,5 L-7,6 L-9,6 L-10,8 L-10,5 L-16,5 L-16,7 L-27,7 L-31,9 L-34,14 L-36,15 L-54,15 L-54,13 L-62,13 L-62,12 L-54,12 L-54,10 L-50,10 L-50,8 L-38,8 L-38,6 L-36,6 L-36,4 L-30,4 L-30,2 L-16,2 L-16,4 L-10,4 L-10,2 L0,2 Z " fill="#8E5B4C" transform="translate(432,354)"/>
<path d="M0,0 L5,2 L11,1 L16,0 L23,1 L27,4 L43,3 L49,4 L49,9 L45,10 L47,13 L42,14 L35,13 L32,13 L28,13 L28,11 L22,9 L18,9 L16,9 L16,7 L11,6 L10,8 L8,8 L8,4 L-12,7 L-22,6 L-70,6 L-70,11 L-77,11 L-82,13 L-82,11 L-78,10 L-78,8 L-75,8 L-74,5 L-60,3 L-19,2 L-2,2 Z " fill="#CF8C73" transform="translate(482,392)"/>
<path d="M0,0 L4,0 L3,11 L6,11 L6,17 L5,20 L5,24 L3,26 L4,32 L-1,40 L-8,40 L-8,43 L-13,46 L-15,51 L-19,57 L-25,60 L-26,62 L-28,62 L-30,60 L-33,58 L-27,56 L-27,50 L-24,49 L-24,52 L-18,50 L-16,44 L-11,36 L-11,34 L-13,34 L-12,29 L-13,28 L-13,23 L-10,22 L0,22 L-1,16 L-1,10 L1,10 Z M-14,34 Z " fill="#B37C6C" transform="translate(718,482)"/>
<path d="M0,0 L1,0 L1,7 L3,7 L3,0 L4,0 L4,8 L2,8 L2,10 L0,10 L0,18 L-2,18 L-2,22 L-4,22 L-4,26 L-6,26 L-6,30 L-10,30 L-10,32 L-14,32 L-14,34 L-16,34 L-16,36 L-18,36 L-18,44 L-20,44 L-20,48 L-22,48 L-22,50 L-28,50 L-28,52 L-30,52 L-30,54 L-34,58 L-42,58 L-43,60 L-44,56 L-35,57 L-35,55 L-42,55 L-38,53 L-34,51 L-34,47 L-31,48 L-31,51 L-29,51 L-30,48 L-23,49 L-23,47 L-30,47 L-30,40 L-26,33 L-22,32 L-20,28 L-18,28 L-18,24 L-14,20 L-12,20 L-12,18 L-9,18 L-8,14 L-5,9 L0,8 Z " fill="#9C6A5C" transform="translate(738,504)"/>
<path d="M0,0 L4,1 L5,3 L11,6 L21,8 L28,10 L28,12 L33,13 L33,11 L39,13 L44,19 L46,20 L46,22 L50,22 L49,28 L48,31 L46,31 L44,37 L41,37 L40,30 L40,27 L39,21 L34,22 L33,17 L33,14 L24,17 L23,22 L20,20 L17,20 L13,14 L8,16 L3,18 L4,15 L6,13 L5,10 L2,10 L0,8 L-3,10 L-8,9 L-5,6 L-1,6 L-1,1 Z M41,32 Z " fill="#BA806B" transform="translate(665,400)"/>
<path d="M0,0 Z M-44,0 L-42,0 L-42,3 L-39,1 L-22,1 L-22,3 L-16,2 L-11,1 L-8,0 L4,2 L8,3 L10,4 L10,2 L17,1 L19,3 L18,7 L5,7 L-4,10 L-6,11 L-18,10 L-24,9 L-26,7 L-42,7 L-46,8 L-46,5 L-54,5 L-55,4 L-61,4 L-64,4 L-66,2 L-59,1 Z " fill="#A8725E" transform="translate(620,372)"/>
<path d="M0,0 L5,4 L6,12 L6,18 L8,22 L7,28 L9,28 L10,26 L13,30 L11,30 L11,32 L19,31 L20,32 L20,45 L19,48 L21,48 L21,45 L30,46 L32,50 L27,50 L27,52 L32,51 L47,51 L47,53 L72,53 L72,54 L47,54 L47,56 L90,56 L90,57 L46,57 L46,55 L32,55 L32,53 L26,53 L26,51 L22,51 L22,49 L18,49 L18,45 L14,45 L14,33 L10,33 L6,29 L4,24 L2,23 L2,19 L0,19 L0,13 L-2,13 L-2,4 Z " fill="#8F644E" transform="translate(298,585)"/>
<path d="M0,0 L8,0 L6,4 L0,5 L0,7 L-21,9 L-23,11 L-25,10 L-26,13 L-31,16 L-36,22 L-37,30 L-42,31 L-42,33 L-46,35 L-48,40 L-50,40 L-50,44 L-55,46 L-57,50 L-59,50 L-58,56 L-61,68 L-65,74 L-67,75 L-65,62 L-63,60 L-62,48 L-58,42 L-56,38 L-48,34 L-46,25 L-42,21 L-37,21 L-36,16 L-28,10 L-26,10 L-26,8 L-6,4 L-2,5 L-1,1 Z " fill="#BC7C63" transform="translate(378,388)"/>
<path d="M0,0 L2,3 L2,15 L4,15 L5,21 L3,26 L4,27 L3,42 L5,43 L5,46 L3,46 L3,49 L6,50 L7,63 L8,96 L10,96 L12,98 L12,103 L17,104 L17,105 L11,105 L8,101 L8,97 L6,97 L5,88 L5,75 L2,79 L0,61 L2,55 L1,55 L0,32 L-1,28 L0,26 L-2,26 L-2,23 L-4,23 L-4,7 Z " fill="#C78669" transform="translate(311,482)"/>
<path d="M0,0 L10,0 L12,3 L12,9 L17,9 L18,12 L21,13 L22,15 L25,15 L25,17 L23,17 L23,22 L27,23 L28,25 L28,33 L27,38 L24,36 L24,28 L22,24 L15,23 L14,20 L11,17 L11,15 L6,17 L4,15 L4,12 L2,12 L2,9 L-4,8 L-4,13 L-7,10 L-6,3 Z M-8,10 Z M5,17 Z " fill="#A27266" transform="translate(692,384)"/>
<path d="M0,0 L1,2 L3,2 L3,6 L5,6 L8,17 L11,18 L11,20 L13,20 L13,26 L17,26 L18,31 L20,31 L20,40 L28,43 L35,46 L44,49 L46,50 L71,52 L71,53 L44,53 L44,51 L24,52 L24,50 L28,49 L27,46 L20,46 L18,45 L18,48 L16,48 L16,32 L8,32 L7,28 L4,28 L4,22 L2,18 L2,9 Z " fill="#A57253" transform="translate(301,585)"/>
<path d="M0,0 L1,0 L1,5 L3,5 L5,16 L6,17 L6,29 L5,43 L4,45 L3,54 L2,55 L0,65 L-2,65 L-2,54 L-3,47 L-5,43 L-4,41 L-2,41 L-4,38 L-5,26 L-4,22 L-1,21 L1,22 L1,18 L-1,18 L-2,10 L-1,1 Z " fill="#A86F60" transform="translate(732,442)"/>
<path d="M0,0 L12,0 L12,7 L15,7 L14,10 L12,10 L12,8 L7,8 L0,11 L-4,12 L-4,14 L-12,18 L-12,15 L-8,14 L-9,10 L-13,11 L-14,13 L-16,13 L-15,16 L-20,16 L-21,14 L-28,18 L-31,19 L-34,22 L-39,21 L-40,17 L-42,16 L-41,13 L-24,12 L-24,10 L-16,6 L-15,10 L-11,7 L-8,7 L-8,4 L0,2 Z " fill="#AD7B64" transform="translate(648,550)"/>
<path d="M0,0 L4,1 L1,1 L1,3 L5,4 L4,7 L3,7 L1,14 L-1,16 L-3,21 L-4,28 L-6,28 L-6,44 L-9,44 L-10,53 L-12,54 L-13,41 L-15,41 L-15,48 L-16,48 L-16,40 L-14,40 L-14,30 L-12,30 L-12,24 L-10,24 L-10,20 L-8,20 L-8,14 L-6,14 L-6,2 L0,2 Z " fill="#A3674A" transform="translate(310,404)"/>
<path d="M0,0 L4,0 L4,2 L8,2 L8,6 L12,8 L14,12 L16,12 L16,20 L22,20 L22,24 L24,24 L24,26 L26,26 L26,34 L28,34 L29,43 L27,43 L27,51 L23,51 L21,43 L22,38 L23,36 L21,36 L21,32 L18,31 L18,29 L12,29 L12,26 L9,26 L9,13 L4,10 L5,5 L7,5 L7,3 L0,4 L3,3 L3,1 Z " fill="#9E6D5F" transform="translate(710,396)"/>
<path d="M0,0 L3,1 L-1,6 L-4,9 L4,8 L6,4 L12,4 L13,6 L12,10 L16,11 L10,13 L-1,13 L-8,19 L-12,19 L-12,16 L-18,17 L-24,15 L-24,13 L-28,14 L-28,8 L-24,7 L-11,6 L-2,2 L0,2 Z " fill="#BB866B" transform="translate(648,528)"/>
<path d="M0,0 L3,0 L6,4 L4,4 L2,8 L0,8 L0,12 L-2,12 L-3,16 L-6,18 L-10,19 L-13,20 L-13,30 L-23,31 L-28,36 L-36,37 L-41,36 L-36,31 L-27,30 L-25,26 L-27,23 L-25,21 L-16,21 L-15,17 L-10,10 L-6,10 L-5,5 Z M2,2 Z M-24,24 Z " fill="#A67464" transform="translate(720,520)"/>
<path d="M0,0 L50,0 L51,3 L59,4 L81,4 L85,6 L87,10 L78,10 L75,11 L62,11 L59,8 L58,6 L27,4 L27,2 L14,2 L9,4 L-3,4 Z " fill="#C4826B" transform="translate(451,383)"/>
<path d="M0,0 L2,0 L4,2 L3,7 L1,35 L-1,36 L-1,46 L1,50 L3,50 L3,68 L1,69 L-2,66 L-4,61 L-4,8 L-2,8 L-1,4 Z M-3,66 Z " fill="#D39073" transform="translate(322,476)"/>
<path d="M0,0 L16,0 L16,1 L1,1 L1,3 L16,3 L16,4 L0,5 L0,3 L-3,3 L-3,5 L-1,5 L-2,10 L-3,13 L-8,14 L-8,16 L-11,19 L-18,19 L-18,21 L-24,25 L-27,25 L-27,27 L-29,27 L-29,25 L-32,27 L-33,33 L-36,33 L-37,35 L-37,33 L-39,33 L-40,36 L-39,31 L-36,28 L-34,28 L-32,24 L-30,24 L-30,22 L-28,22 L-28,16 L-26,16 L-26,14 L-22,14 L-22,12 L-14,12 L-14,10 L-10,10 L-8,6 L-4,4 L-4,2 L0,2 Z " fill="#9E6653" transform="translate(354,368)"/>
<path d="M0,0 L3,0 L4,2 L11,2 L12,4 L37,6 L59,5 L73,2 L77,1 L78,5 L73,6 L73,8 L68,8 L68,10 L31,11 L13,8 L0,4 Z " fill="#B6775E" transform="translate(331,624)"/>
<path d="M0,0 L1,0 L0,22 L-1,30 L0,38 L0,54 L1,66 L1,111 L5,113 L6,116 L8,117 L11,125 L15,135 L10,135 L10,133 L8,133 L8,128 L7,125 L8,123 L5,123 L5,121 L3,121 L2,113 L0,113 L-1,80 L-2,76 L-3,62 L-3,8 L-1,7 Z " fill="#B3755A" transform="translate(303,468)"/>
<path d="M0,0 L6,1 L6,4 L8,4 L10,8 L16,6 L16,11 L19,12 L19,15 L26,16 L29,21 L29,28 L34,30 L35,34 L33,34 L34,41 L34,43 L32,43 L31,36 L29,36 L28,30 L23,26 L20,25 L18,16 L16,16 L16,14 L8,15 L5,15 L1,14 L1,10 L-4,9 L-2,4 Z M9,9 Z " fill="#A97668" transform="translate(688,392)"/>
<path d="M0,0 L2,1 L0,5 L-6,5 L-15,12 L-16,17 L-18,17 L-18,20 L-21,21 L-22,24 L-24,25 L-25,34 L-25,37 L-27,37 L-27,39 L-31,41 L-32,44 L-34,44 L-34,46 L-36,46 L-36,48 L-38,48 L-38,41 L-35,35 L-33,33 L-32,26 L-30,26 L-30,24 L-33,23 L-33,21 L-30,20 L-29,17 L-23,17 L-23,11 L-19,9 L-19,11 L-17,11 L-17,9 L-10,5 L-8,5 L-8,3 L-1,3 Z " fill="#A46B57" transform="translate(344,384)"/>
<path d="M0,0 L2,0 L2,2 L4,1 L27,2 L27,3 L11,3 L11,5 L5,5 L5,7 L1,7 L1,9 L-3,9 L-3,11 L-5,11 L-5,13 L-13,13 L-13,15 L-25,15 L-25,17 L-37,17 L-37,16 L-26,16 L-26,14 L-37,14 L-38,12 L-26,12 L-25,13 L-14,14 L-14,12 L-25,12 L-25,10 L-18,8 L-17,5 L-12,2 L-5,2 Z " fill="#986A54" transform="translate(593,589)"/>
<path d="M0,0 L1,3 L5,4 L1,4 L1,6 L-1,6 L-1,8 L-3,8 L-3,10 L-9,10 L-9,12 L-11,12 L-11,14 L-17,14 L-17,16 L-23,16 L-23,18 L-21,18 L-21,24 L-25,25 L-41,25 L-41,22 L-29,22 L-30,10 L-31,8 L-29,8 L-29,6 L-21,6 L-19,10 L-17,10 L-16,8 L-12,8 L-7,5 L0,5 L-1,1 Z M-32,10 Z " fill="#9F6D58" transform="translate(501,618)"/>
<path d="M0,0 L84,0 L96,1 L98,4 L106,5 L106,7 L116,7 L116,8 L106,8 L105,11 L105,9 L98,9 L98,8 L105,8 L105,6 L95,7 L95,2 L84,2 L84,4 L22,4 L1,3 Z " fill="#A16A5A" transform="translate(454,357)"/>
<path d="M0,0 L1,0 L2,17 L3,48 L4,50 L4,57 L5,59 L5,71 L3,86 L5,86 L3,90 L7,93 L7,96 L5,96 L4,98 L2,94 L0,93 Z " fill="#BC7B60" transform="translate(304,486)"/>
<path d="M0,0 L10,1 L10,2 L25,2 L29,4 L65,4 L77,6 L74,7 L73,10 L71,10 L71,8 L67,9 L37,8 L21,6 L21,4 L19,5 L-7,5 L-7,3 L-11,3 L-11,5 L-13,5 L-13,3 L-15,2 L-6,1 L-3,2 Z " fill="#B4765F" transform="translate(521,376)"/>
<path d="M0,0 L2,0 L1,3 L1,10 L3,14 L1,19 L2,24 L1,26 L3,27 L2,28 L2,38 L1,43 L-2,42 L-1,45 L2,47 L0,51 L-1,57 L-4,56 L-4,43 L-5,35 L-3,31 L-3,20 L-6,20 L-6,9 L-3,2 Z M-4,28 Z " fill="#E19575" transform="translate(332,482)"/>
<path d="M0,0 L10,1 L10,2 L2,2 L2,4 L0,4 L0,8 L-4,8 L-4,10 L-6,10 L-6,12 L-10,12 L-10,14 L-12,14 L-12,16 L-24,16 L-24,14 L-32,14 L-32,16 L-36,16 L-36,18 L-42,18 L-42,20 L-46,20 L-46,22 L-54,22 L-54,24 L-56,24 L-56,26 L-64,26 L-64,25 L-57,25 L-57,23 L-64,23 L-64,22 L-55,22 L-55,18 L-46,18 L-43,19 L-43,17 L-45,16 L-37,17 L-37,15 L-42,15 L-42,14 L-33,15 L-33,13 L-35,12 L-33,12 L-33,10 L-23,10 L-22,11 L-13,12 L-11,13 L-12,10 L-9,10 L-10,7 L-7,7 L-6,2 L-1,1 L-1,3 L1,3 Z " fill="#8D6451" transform="translate(684,564)"/>
<path d="M0,0 L2,1 L2,3 L-21,6 L-25,6 L-26,14 L-34,15 L-50,17 L-50,19 L-60,25 L-58,18 L-48,14 L-46,14 L-44,10 L-43,9 L-34,8 L-30,5 L-21,2 L-2,1 L0,2 Z " fill="#B8775E" transform="translate(402,379)"/>
<path d="M0,0 L15,1 L22,3 L22,4 L0,5 L-6,6 L-38,6 L-43,5 L-42,1 L-17,1 Z " fill="#A56F61" transform="translate(498,363)"/>
<path d="M0,0 L12,0 L15,1 L21,0 L37,1 L36,3 L28,3 L25,7 L21,5 L17,5 L11,4 L9,5 L8,3 L2,2 L1,6 L-10,9 L-13,9 L-13,7 L-20,10 L-24,10 L-29,8 L-25,5 L-18,4 L-15,2 L-5,2 L-1,3 Z " fill="#DF9477" transform="translate(437,402)"/>
<path d="M0,0 L5,0 L7,5 L4,8 L2,8 L2,10 L-7,11 L-11,11 L-15,15 L-18,16 L-20,15 L-20,13 L-24,14 L-25,13 L-34,16 L-41,15 L-47,12 L-45,6 L-42,9 L-42,11 L-36,9 L-24,9 L-24,11 L-16,10 L-16,7 L2,7 L1,2 Z M7,3 Z M-28,8 Z " fill="#D18668" transform="translate(396,593)"/>
<path d="M0,0 L2,1 L2,6 L0,7 L1,16 L-2,21 L-5,22 L-9,21 L-12,26 L-13,28 L-15,28 L-15,22 L-14,21 L-14,10 L-6,3 L-5,5 L-3,5 L-3,2 Z " fill="#D08664" transform="translate(343,426)"/>
<path d="M0,0 L14,0 L14,2 L22,2 L22,4 L38,4 L38,6 L40,6 L40,14 L38,14 L38,16 L40,16 L39,20 L39,17 L34,17 L32,8 L22,9 L18,10 L18,8 L14,7 L12,6 L-2,5 L-2,3 L-5,4 L-5,2 L0,3 L13,3 L13,1 L0,1 Z " fill="#A17165" transform="translate(670,376)"/>
<path d="M0,0 L2,1 L2,6 L-2,8 L-4,8 L-2,9 L-2,17 L-3,21 L-5,21 L-5,23 L-11,23 L-11,25 L-13,25 L-13,27 L-17,31 L-25,31 L-26,33 L-27,29 L-18,30 L-18,28 L-25,28 L-21,26 L-17,24 L-17,20 L-14,21 L-14,24 L-12,24 L-13,21 L-6,22 L-6,20 L-13,20 L-13,13 L-9,6 L-5,5 L-3,1 Z " fill="#9F6F5F" transform="translate(721,531)"/>
<path d="M0,0 L2,0 L4,12 L5,12 L5,27 L4,29 L2,29 L1,39 L0,83 L-1,83 L-1,26 L0,23 L-2,23 L-2,7 L0,7 Z " fill="#A56D54" transform="translate(295,445)"/>
<path d="M0,0 L58,0 L58,2 L82,2 L82,4 L90,4 L90,6 L94,6 L94,8 L100,8 L100,9 L94,9 L93,12 L93,10 L88,10 L86,11 L81,9 L82,7 L89,7 L89,5 L76,6 L76,5 L81,5 L81,3 L58,4 L0,4 L0,3 L57,3 L57,1 L0,1 Z " fill="#895E51" transform="translate(570,366)"/>
<path d="M0,0 L15,0 L15,2 L7,9 L5,6 L3,6 L2,11 L-2,13 L-6,15 L-9,24 L-13,25 L-13,14 L-8,11 L-4,7 L-4,2 Z " fill="#BF8167" transform="translate(414,602)"/>
<path d="M0,0 L2,0 L3,8 L2,12 L4,12 L6,17 L9,18 L10,20 L18,20 L18,25 L20,25 L20,27 L22,27 L21,30 L21,28 L18,28 L17,31 L16,28 L13,29 L12,26 L9,25 L9,23 L3,21 L1,17 L-3,15 L-4,11 L-4,4 L-3,1 Z " fill="#D38F6F" transform="translate(327,563)"/>
<path d="M0,0 L4,2 L2,3 L0,12 L17,12 L18,13 L32,13 L44,12 L47,12 L47,4 L49,3 L50,12 L42,15 L38,16 L12,17 L0,16 L-2,13 L-2,2 L0,2 Z M28,12 Z " fill="#C47A62" transform="translate(352,614)"/>
<path d="M0,0 L1,4 L-1,9 L-3,9 L-3,13 L-8,15 L-10,19 L-12,19 L-11,25 L-14,37 L-18,43 L-20,44 L-18,31 L-16,29 L-15,17 L-11,11 L-9,7 L-1,3 Z " fill="#BE7D5F" transform="translate(331,419)"/>
<path d="M0,0 L2,4 L1,5 L1,32 L0,44 L-1,47 L-3,47 L-3,36 L-4,29 L-6,25 L-5,23 L-3,23 L-5,20 L-6,8 L-5,4 L-2,3 L0,4 Z " fill="#AB7163" transform="translate(733,460)"/>
<path d="M0,0 L12,0 L12,1 L-2,3 L-3,5 L-6,5 L-6,7 L-8,8 L-14,8 L-14,11 L-42,14 L-54,14 L-53,12 L-30,11 L-29,9 L-26,10 L-26,8 L-21,6 L-16,6 L-16,3 L-14,2 Z " fill="#D2856C" transform="translate(410,395)"/>
<path d="M0,0 L6,1 L11,1 L11,3 L13,3 L15,12 L20,13 L21,16 L24,17 L24,23 L26,23 L27,32 L24,33 L22,36 L20,30 L18,29 L18,26 L20,26 L22,17 L18,17 L18,15 L14,13 L11,9 L5,7 L3,7 L2,3 L0,2 Z " fill="#AF7869" transform="translate(693,405)"/>
<path d="M0,0 L7,1 L3,2 L3,4 L-5,4 L-5,6 L-9,6 L-9,8 L-15,8 L-15,10 L-21,10 L-21,12 L-37,12 L-37,14 L-43,14 L-43,13 L-38,13 L-38,11 L-43,11 L-39,9 L-38,8 L-25,7 L-25,3 L-21,2 L-16,1 L-18,5 L-10,7 L-10,5 L-15,5 L-15,4 L-6,5 L-6,3 L-9,2 L2,3 L2,1 Z " fill="#936754" transform="translate(549,606)"/>
<path d="M0,0 L32,3 L49,2 L50,0 L53,0 L53,2 L57,4 L51,6 L41,5 L39,6 L5,6 L1,7 L1,5 L-3,2 Z " fill="#B77966" transform="translate(443,373)"/>
<path d="M0,0 L5,0 L5,3 L1,5 L-15,5 L-15,7 L-39,7 L-39,9 L-46,10 L-53,13 L-68,14 L-67,10 L-59,9 L-52,9 L-51,7 L-41,5 L-23,5 L-16,4 L-14,3 L0,2 Z " fill="#AA6F5D" transform="translate(447,364)"/>
<path d="M0,0 L16,0 L12,3 L8,4 L6,3 L6,5 L-8,6 L-14,9 L-24,10 L-24,4 L-18,2 L-10,2 L-6,1 Z " fill="#B47562" transform="translate(430,372)"/>
<path d="M0,0 L6,4 L23,4 L21,14 L19,14 L18,10 L11,15 L7,15 L4,8 L1,5 L-5,4 L-5,1 Z " fill="#C3846A" transform="translate(543,392)"/>
<path d="M0,0 L3,1 L-1,6 L-3,7 L-4,11 L-17,13 L-20,16 L-24,15 L-24,13 L-28,14 L-28,8 L-24,7 L-11,6 L-2,2 L0,2 Z " fill="#C68D70" transform="translate(648,528)"/>
<path d="M0,0 L2,0 L2,2 L4,2 L2,6 L-3,11 L-5,11 L-4,22 L-5,23 L-6,33 L-10,33 L-11,12 L-9,9 L-6,9 L-5,7 L-3,7 L-2,2 Z " fill="#CA8262" transform="translate(334,425)"/>
<path d="M0,0 L5,0 L4,4 L1,9 L-1,10 L-19,10 L-19,8 L-27,8 L-27,7 L-19,7 L-19,5 L-15,5 L-15,3 L0,2 Z " fill="#A06653" transform="translate(397,359)"/>
<path d="M0,0 L2,4 L5,2 L3,7 L1,7 L2,10 L-3,10 L-4,8 L-11,12 L-14,13 L-17,16 L-22,15 L-23,11 L-25,10 L-24,7 L-7,6 L-7,4 Z " fill="#AE8168" transform="translate(631,556)"/>
<path d="M0,0 L4,0 L1,26 L-2,29 L-9,32 L-13,34 L-12,29 L-13,28 L-13,23 L-10,22 L0,22 L-1,16 L-1,10 L1,10 Z M-14,34 Z " fill="#B77E70" transform="translate(718,482)"/>
<path d="M0,0 L10,1 L16,2 L16,7 L10,10 L3,7 L1,8 L0,12 L-2,12 L-3,6 L-4,12 L-6,12 L-6,3 L-4,1 Z " fill="#C3866D" transform="translate(572,394)"/>
<path d="M0,0 L2,1 L-1,5 L-8,5 L-8,7 L-19,12 L-36,13 L-37,11 L-31,10 L-28,11 L-28,9 L-24,9 L-23,5 L-18,5 L-18,2 L-15,1 L-12,2 L-4,2 Z " fill="#CB9174" transform="translate(656,523)"/>
<path d="M0,0 L16,0 L16,1 L1,1 L1,3 L16,3 L16,4 L0,5 L0,3 L-3,3 L-3,5 L-1,5 L-2,10 L-3,13 L-8,14 L-8,16 L-11,19 L-18,19 L-18,21 L-25,25 L-23,21 L-21,18 L-12,15 L-11,14 L-13,13 L-13,11 L-9,11 L-8,6 L-4,4 L-4,2 L0,2 Z " fill="#A26855" transform="translate(354,368)"/>
<path d="M0,0 L23,0 L26,3 L37,5 L37,6 L24,6 L22,4 L14,4 L14,2 L9,4 L2,3 L-2,4 L-38,3 L-38,2 L-2,1 Z " fill="#A97364" transform="translate(498,367)"/>
<path d="M0,0 L4,1 L1,1 L1,3 L5,4 L4,7 L3,7 L1,14 L-3,15 L-4,20 L-5,23 L-7,23 L-7,21 L-9,21 L-10,24 L-10,20 L-8,20 L-8,14 L-6,14 L-6,2 L0,2 Z " fill="#965F47" transform="translate(310,404)"/>
<path d="M0,0 L6,2 L11,8 L13,9 L13,11 L17,11 L16,17 L15,20 L13,20 L11,26 L8,26 L7,19 L7,16 L6,7 L4,7 L1,2 Z M8,21 Z " fill="#B47C6D" transform="translate(698,411)"/>
<path d="M0,0 L4,0 L3,7 L2,16 L-2,24 L-3,27 L-5,27 L-5,29 L-7,29 L-7,31 L-9,31 L-9,24 L-6,18 L-4,16 L-3,9 L-1,9 L-1,7 L-4,6 L-4,4 L-1,3 Z " fill="#A36951" transform="translate(315,401)"/>
<path d="M0,0 L9,0 L14,2 L14,4 L18,4 L18,6 L23,6 L23,8 L27,6 L31,7 L31,9 L29,10 L30,15 L27,15 L23,14 L19,8 L14,10 L9,12 L10,9 L12,7 L11,4 L8,4 L6,2 L3,4 L-2,3 Z M31,6 Z " fill="#BE836F" transform="translate(659,406)"/>
<path d="M0,0 L10,2 L10,4 L12,4 L12,6 L6,7 L6,5 L3,5 L2,8 L-2,9 L-9,9 L-12,9 L-13,6 L-15,4 L-6,1 Z " fill="#B2785F" transform="translate(628,380)"/>
<path d="M0,0 L2,0 L2,50 L-2,49 L-1,46 L1,46 L1,43 L-2,42 L-1,27 L-2,24 L0,21 L0,15 L-2,15 L-2,4 Z " fill="#CA8A6D" transform="translate(315,482)"/>
<path d="M0,0 L1,0 L1,26 L3,26 L3,52 L1,52 L0,56 L-1,52 L-1,26 Z " fill="#8E6257" transform="translate(743,448)"/>
<path d="M0,0 L1,2 L4,2 L4,4 L6,4 L7,8 L12,10 L13,11 L13,17 L15,18 L11,25 L6,24 L6,19 L8,18 L9,14 L2,12 L2,3 L0,3 Z " fill="#AD7658" transform="translate(318,603)"/>
<path d="M0,0 L4,0 L4,6 L-2,7 L-3,12 L-6,13 L-7,12 L-11,13 L-13,15 L-14,13 L-14,7 L-10,4 L0,2 Z " fill="#AD7360" transform="translate(346,390)"/>
<path d="M0,0 L5,1 L5,4 L3,5 L3,7 L-4,7 L-4,9 L-29,9 L-29,7 L-18,4 L-14,5 L-8,6 L-6,2 Z " fill="#A0745E" transform="translate(624,582)"/>
<path d="M0,0 L13,1 L9,4 L6,5 L5,8 L3,8 L4,12 L1,12 L1,10 L-5,12 L-7,2 Z " fill="#A37965" transform="translate(667,562)"/>
<path d="M0,0 L1,2 L3,2 L3,10 L5,10 L6,19 L4,19 L4,27 L0,27 L-2,19 L-1,11 L-1,2 Z " fill="#A06A5B" transform="translate(733,420)"/>
<path d="M0,0 L4,0 L4,2 L11,1 L9,7 L8,8 L2,8 L2,6 L-3,6 L-8,11 L-12,10 L-12,12 L-17,13 L-20,11 L-12,9 L-11,6 L-5,5 L-4,3 L0,3 Z " fill="#AA745F" transform="translate(438,627)"/>
<path d="M0,0 L5,4 L6,12 L6,20 L5,22 L3,22 L3,19 L0,19 L0,13 L-2,13 L-2,4 Z " fill="#9B684F" transform="translate(298,585)"/>
<path d="M0,0 L6,0 L5,3 L1,5 L-7,6 L-29,6 L-33,7 L-33,5 L-43,4 L-43,3 L-29,3 L-7,2 Z " fill="#BD775F" transform="translate(397,627)"/>
<path d="M0,0 L3,1 L4,4 L3,6 L8,6 L9,9 L14,8 L13,13 L-3,14 L-4,12 L-3,10 L-5,9 L1,8 Z " fill="#B3846A" transform="translate(611,550)"/>
<path d="M0,0 L9,1 L9,3 L13,4 L9,6 L-7,8 L-7,10 L-17,16 L-15,9 L-5,5 L-3,5 L-1,1 Z " fill="#B87761" transform="translate(359,388)"/>
<path d="M0,0 L5,0 L5,5 L0,10 L-2,15 L-4,15 L-4,18 L-6,18 L-7,20 L-8,13 L-6,7 L-4,7 L-3,3 L0,3 Z " fill="#AB6F56" transform="translate(326,401)"/>
<path d="M0,0 L10,1 L10,2 L2,2 L2,4 L0,4 L0,8 L-4,8 L-4,10 L-6,10 L-6,12 L-10,12 L-10,14 L-12,15 L-23,15 L-23,13 L-21,12 L-13,12 L-11,13 L-12,10 L-9,10 L-10,7 L-7,7 L-6,2 L-1,1 L-1,3 L1,3 Z " fill="#916A59" transform="translate(684,564)"/>
<path d="M0,0 L1,2 L7,1 L12,3 L16,4 L19,5 L17,5 L17,8 L7,8 L6,9 L1,9 L-2,6 L-4,3 L-3,1 Z " fill="#B88168" transform="translate(631,392)"/>
<path d="M0,0 L5,1 L12,4 L21,7 L23,8 L48,10 L48,11 L21,11 L21,9 L12,9 L9,7 L9,5 L0,2 Z " fill="#A67158" transform="translate(324,627)"/>
<path d="M0,0 L5,0 L5,2 L17,1 L24,0 L26,2 L18,3 L16,5 L5,6 L5,4 L-6,5 L-13,4 L-15,2 L-6,1 Z " fill="#AC7B5F" transform="translate(587,575)"/>
<path d="M0,0 L1,0 L1,8 L3,8 L4,10 L4,36 L2,39 L1,37 L0,22 L0,11 L2,11 L2,9 L-1,10 Z " fill="#9D6B5F" transform="translate(739,438)"/>
<path d="M0,0 L2,0 L2,2 L4,1 L27,2 L27,3 L11,3 L11,5 L5,5 L5,7 L1,7 L1,9 L-3,9 L-4,11 L-5,7 L0,8 L0,6 L-3,5 L-7,5 L-7,3 L-3,1 Z " fill="#956A55" transform="translate(593,589)"/>
<path d="M0,0 L9,2 L8,4 L3,4 L-6,7 L-14,8 L-14,6 L-19,7 L-18,1 L0,2 Z " fill="#B48067" transform="translate(478,599)"/>
<path d="M0,0 L14,0 L14,2 L22,2 L22,4 L38,4 L38,5 L12,6 L-2,5 L-2,3 L-5,4 L-5,2 L0,3 L13,3 L13,1 L0,1 Z " fill="#8F6354" transform="translate(670,376)"/>
<path d="M0,0 L3,1 L3,4 L11,5 L13,7 L11,8 L1,6 L-9,7 L-20,8 L-19,6 L-15,6 L-15,4 L-11,2 L-1,1 Z " fill="#BC826C" transform="translate(577,389)"/>
<path d="M0,0 L27,0 L30,3 L23,4 L22,5 L17,5 L17,3 L12,7 L8,5 L12,4 L5,4 L2,6 L2,4 L-2,3 Z M2,3 Z " fill="#B17F68" transform="translate(512,588)"/>
<path d="M0,0 L1,0 L2,9 L1,15 L0,15 L-1,20 L-5,21 L-6,24 L-8,24 L-7,19 L-6,11 L-3,8 L-2,2 L0,2 Z " fill="#D38B6A" transform="translate(330,452)"/>
<path d="M0,0 L1,3 L-4,6 L-8,8 L-11,17 L-15,18 L-15,7 L-10,4 L-7,2 Z " fill="#BA8068" transform="translate(416,609)"/>
<path d="M0,0 L2,4 L1,6 L-7,8 L-23,8 L-22,5 L-7,4 L-7,2 Z M2,2 Z M-26,8 L-23,8 L-24,11 L-28,11 L-28,9 Z " fill="#AF6E57" transform="translate(379,375)"/>
<path d="M0,0 L1,3 L-2,23 L-3,25 L-5,25 L-5,27 L-7,27 L-6,13 L-4,6 Z " fill="#C48566" transform="translate(319,455)"/>
<path d="M0,0 L2,0 L3,6 L3,19 L1,19 L1,27 L-1,31 L0,23 L-2,23 L-2,7 L0,7 Z " fill="#A26A51" transform="translate(295,445)"/>
<path d="M0,0 L6,1 L7,5 L2,5 L2,7 L-2,7 L-3,6 L-3,9 L-7,8 L-7,7 L-12,6 L-13,3 L-7,1 Z " fill="#A1735C" transform="translate(504,614)"/>
<path d="M0,0 L4,2 L4,4 L6,4 L8,14 L17,16 L19,21 L19,24 L22,24 L22,26 L18,25 L13,22 L12,18 L10,18 L10,16 L7,16 L3,8 L0,2 Z " fill="#B67C5E" transform="translate(312,589)"/>
<path d="M0,0 L9,1 L8,3 L1,5 L-4,9 L-6,13 L-3,13 L-2,17 L-6,18 L-8,15 L-7,6 L-4,1 Z " fill="#DB8D75" transform="translate(360,411)"/>
<path d="M0,0 L1,2 L6,2 L6,8 L2,9 L-14,9 L-14,6 L-2,6 L-2,1 Z " fill="#9C6E5A" transform="translate(474,634)"/>
<path d="M0,0 L2,4 L2,6 L7,7 L10,14 L13,15 L14,19 L6,20 L5,16 L2,16 L2,10 L0,6 Z " fill="#A36E4F" transform="translate(303,597)"/>
<path d="M0,0 L2,1 L2,21 L0,21 L-1,26 L-3,22 L-2,20 L0,20 L-2,17 L-3,5 L-2,1 Z " fill="#AE7467" transform="translate(730,463)"/>
<path d="M0,0 L1,4 L-4,10 L-5,19 L-8,21 L-9,26 L-11,26 L-12,28 L-12,20 L-10,20 L-8,10 L-6,8 L-4,2 L0,2 Z " fill="#B47455" transform="translate(317,428)"/>
<path d="M0,0 L9,2 L9,6 L6,9 L5,11 L0,11 L-5,9 L-7,9 L-7,6 L-3,5 L-2,7 L1,6 Z M-1,2 Z M-2,10 Z " fill="#B9876A" transform="translate(589,554)"/>
<path d="M0,0 L15,0 L16,3 L9,7 L3,7 L0,4 Z " fill="#CD8167" transform="translate(351,608)"/>
<path d="M0,0 L2,4 L3,37 L5,37 L7,39 L7,44 L12,45 L12,46 L6,46 L3,42 L3,38 L1,38 L0,29 Z " fill="#C6896C" transform="translate(316,541)"/>
<path d="M0,0 L2,1 L3,4 L5,5 L8,13 L12,23 L7,23 L7,21 L5,21 L5,16 L4,13 L5,11 L2,11 L2,9 L0,9 Z " fill="#B1795C" transform="translate(306,580)"/>
<path d="M0,0 L9,0 L9,2 L-1,3 L-35,3 L-39,1 L-23,1 Z " fill="#A9755E" transform="translate(407,635)"/>
<path d="M0,0 L3,0 L5,5 L6,10 L11,11 L13,12 L12,17 L10,17 L10,21 L6,20 L7,11 L5,11 L4,6 L0,6 Z " fill="#A77556" transform="translate(314,605)"/>
<path d="M0,0 L1,4 L5,4 L6,12 L9,15 L8,18 L3,16 L0,13 L0,9 L-2,9 L-1,3 Z M0,4 Z " fill="#D99170" transform="translate(331,566)"/>
<path d="M0,0 L1,3 L3,3 L3,1 L5,1 L6,6 L5,9 L7,9 L8,7 L11,11 L9,11 L9,13 L17,12 L16,23 L15,23 L15,14 L13,14 L13,25 L16,26 L12,26 L12,14 L8,14 L4,10 L2,5 L0,4 Z " fill="#8D6343" transform="translate(300,604)"/>
<path d="M0,0 L8,0 L6,6 L2,8 L-4,8 L-8,7 L-7,4 L0,3 Z M-11,7 L-8,8 L-12,9 Z " fill="#BE8A6D" transform="translate(562,558)"/>
<path d="M0,0 L1,3 L17,3 L17,4 L1,4 L1,6 L-7,6 L-7,4 L-11,4 L-11,6 L-25,6 L-25,5 L-12,5 L-12,3 L-17,3 L-17,2 L-7,2 Z " fill="#886150" transform="translate(459,640)"/>
<path d="M0,0 L4,1 L5,2 L6,9 L8,8 L8,10 L12,9 L14,11 L17,12 L17,14 L6,13 L3,11 L3,4 L-6,3 L-5,1 Z " fill="#A0745F" transform="translate(656,563)"/>
<path d="M0,0 L1,0 L1,7 L3,7 L3,0 L4,0 L4,8 L2,8 L2,10 L0,10 L0,18 L-2,18 L-2,22 L-4,22 L-4,26 L-6,26 L-6,30 L-10,29 L-7,29 L-7,27 L-10,27 L-10,25 L-8,25 L-7,23 L-7,25 L-5,25 L-6,17 L-4,17 L-3,15 L-3,17 L-1,17 L-2,8 L0,8 Z " fill="#8A5D51" transform="translate(738,504)"/>
<path d="M0,0 L12,0 L12,1 L-2,3 L-3,5 L-6,5 L-6,7 L-11,8 L-16,6 L-16,3 L-14,2 Z M-11,6 Z " fill="#CE876F" transform="translate(410,395)"/>
<path d="M0,0 L4,0 L4,2 L8,2 L8,6 L12,8 L14,12 L16,12 L16,20 L15,20 L14,14 L13,20 L12,20 L12,12 L10,11 L11,9 L9,9 L8,12 L4,10 L5,5 L7,5 L7,3 L0,4 L3,3 L3,1 Z " fill="#895F54" transform="translate(710,396)"/>
<path d="M0,0 L2,4 L-3,3 L-3,5 L0,6 L-2,8 L-12,8 L-14,13 L-15,9 L-17,9 L-17,14 L-18,14 L-18,8 L-16,8 L-16,6 L-12,6 L-12,4 L-4,4 L-4,2 L0,2 Z " fill="#97604D" transform="translate(344,376)"/>
<path d="M0,0 L2,0 L0,6 L-1,8 L-2,19 L-5,21 L-6,20 L-6,9 L-3,2 Z " fill="#DE9573" transform="translate(332,482)"/>
<path d="M0,0 L2,0 L2,9 L0,9 L0,14 L-5,17 L-6,16 L-6,10 L-4,5 L0,4 Z " fill="#CD896F" transform="translate(350,411)"/>
<path d="M0,0 Z M-2,0 L0,2 L-11,5 L-14,5 L-14,3 L-21,6 L-25,6 L-27,4 L-24,2 L-18,1 Z " fill="#E59779" transform="translate(438,406)"/>
<path d="M0,0 L4,0 L4,4 L2,5 L2,7 L-18,7 L-18,4 L-15,3 L-15,6 L-10,4 L-5,2 L0,3 Z " fill="#A87C68" transform="translate(678,556)"/>
<path d="M0,0 L1,4 L-1,4 L-1,6 L-7,6 L-7,8 L-9,8 L-9,10 L-13,14 L-21,14 L-22,16 L-23,12 L-14,13 L-14,11 L-21,11 L-17,9 L-13,7 L-13,3 L-10,4 L-10,7 L-8,7 L-9,4 L-2,5 L-1,1 Z " fill="#8E6355" transform="translate(717,548)"/>
<path d="M0,0 L9,0 L6,6 L1,12 L-1,12 L0,7 L-1,6 L-1,1 Z M-2,12 Z " fill="#BA816F" transform="translate(706,504)"/>
<path d="M0,0 L3,1 L1,2 L0,6 L-13,8 L-16,11 L-20,10 L-20,8 L-14,4 L-4,4 L-4,2 Z " fill="#C18B6E" transform="translate(644,533)"/>
<path d="M0,0 L3,2 L1,12 L2,14 L1,16 L3,17 L2,18 L2,28 L1,33 L-1,32 L-1,2 Z " fill="#E69876" transform="translate(332,492)"/>
<path d="M0,0 L9,0 L10,2 L8,2 L8,8 L0,8 Z " fill="#C8906B" transform="translate(496,548)"/>
<path d="M0,0 L1,0 L2,6 L2,16 L0,23 L-1,23 L-1,17 L-3,17 L-3,24 L-4,24 L-4,16 L-2,16 L-2,6 L0,6 Z " fill="#8F5B43" transform="translate(298,428)"/>
<path d="M0,0 L2,1 L2,3 L-21,6 L-27,6 L-26,4 L-21,2 L-2,1 L0,2 Z " fill="#BB745C" transform="translate(402,379)"/>
<path d="M0,0 L4,0 L4,3 L-2,4 L-3,9 L-6,10 L-10,9 L-9,4 L-6,2 Z " fill="#B07662" transform="translate(346,393)"/>
<path d="M0,0 L1,0 L1,13 L0,16 L2,16 L2,13 L6,15 L4,16 L4,18 L7,19 L3,19 L3,17 L-1,17 L-1,12 L-4,12 L-4,1 L-2,1 L-1,3 Z " fill="#996B4B" transform="translate(317,617)"/>
<path d="M0,0 L19,0 L18,2 L2,4 L3,6 L-5,8 L-5,2 Z " fill="#AA7963" transform="translate(557,588)"/>
<path d="M0,0 L4,1 L1,1 L1,3 L5,4 L4,7 L3,7 L2,13 L-2,12 L-2,6 L0,3 L-5,3 L-5,14 L-6,14 L-6,2 L0,2 Z " fill="#925B45" transform="translate(310,404)"/>
<path d="M0,0 L2,3 L0,15 L-3,21 L-4,21 L-4,7 Z " fill="#C58566" transform="translate(311,482)"/>
<path d="M0,0 L7,1 L6,5 L2,6 L-5,6 L-8,6 L-7,2 L-2,1 Z " fill="#B67B61" transform="translate(624,383)"/>
<path d="M0,0 L1,2 L3,2 L3,10 L5,10 L5,18 L4,18 L4,11 L2,11 L2,18 L0,18 L-1,11 L-1,2 Z " fill="#916153" transform="translate(733,420)"/>
<path d="M0,0 L8,0 L11,3 L11,6 L13,6 L13,9 L8,10 L7,5 L7,2 L-3,5 L-4,3 L-1,3 Z " fill="#B78071" transform="translate(691,412)"/>
<path d="M0,0 L9,0 L9,4 L1,4 L1,6 L-1,6 L-1,8 L-9,8 L-9,7 L-2,7 L-2,5 L-9,5 L-9,4 L0,4 Z " fill="#916A56" transform="translate(629,582)"/>
<path d="M0,0 L10,1 L8,5 L2,7 L-2,7 L-1,2 Z M6,0 Z " fill="#B98364" transform="translate(622,550)"/>
<path d="M0,0 L3,1 L4,4 L3,6 L8,6 L8,9 L1,11 L-5,10 L-3,8 L1,8 Z " fill="#B68569" transform="translate(611,550)"/>
<path d="M0,0 L3,0 L0,10 L-2,11 L-9,11 L-9,8 L-6,8 Z " fill="#A77462" transform="translate(685,384)"/>
<path d="M0,0 L16,0 L16,1 L1,1 L1,3 L16,3 L16,4 L0,5 L0,3 L-3,3 L-3,7 L-9,8 L-6,4 L-4,4 L-4,2 L0,2 Z " fill="#8B5B4D" transform="translate(354,368)"/>
<path d="M0,0 L1,2 L4,2 L4,4 L6,4 L7,8 L12,10 L13,14 L5,11 L5,9 L2,9 L2,3 L0,3 Z " fill="#B1795B" transform="translate(318,603)"/>
<path d="M0,0 L1,3 L5,4 L1,4 L1,6 L-1,6 L-1,8 L-3,8 L-3,10 L-9,10 L-10,12 L-11,7 L-7,5 L0,5 L-1,1 Z " fill="#916751" transform="translate(501,618)"/>
<path d="M0,0 L4,0 L5,4 L2,6 L-8,8 L-12,8 L-12,5 L-2,4 Z " fill="#E4947C" transform="translate(388,416)"/>
<path d="M0,0 L12,0 L8,3 L2,4 L-4,4 L-8,4 L-14,3 L-14,2 Z " fill="#BE785F" transform="translate(404,381)"/>
<path d="M0,0 L12,0 L14,3 L22,4 L22,6 L32,6 L32,7 L22,7 L21,10 L21,8 L14,8 L14,7 L21,7 L21,5 L11,6 L11,1 L0,1 Z " fill="#86594C" transform="translate(538,358)"/>
<path d="M0,0 L2,0 L2,5 L22,5 L22,7 L1,7 L0,6 Z " fill="#A5745D" transform="translate(403,646)"/>
<path d="M0,0 L2,1 L1,4 L-11,4 L-14,3 L-15,5 L-15,3 L-26,3 L-27,1 L-1,1 Z " fill="#CA8C6D" transform="translate(610,420)"/>
<path d="M0,0 L12,0 L12,1 L1,1 L1,3 L3,4 L2,7 L-4,7 L-4,5 L-12,5 L-12,4 L-4,4 L-4,2 L0,2 Z " fill="#865645" transform="translate(382,362)"/>
<path d="M0,0 L4,0 L7,7 L10,8 L10,12 L4,11 L2,6 L2,3 L0,3 Z " fill="#BF8769" transform="translate(315,579)"/>
<path d="M0,0 L3,2 L1,7 L-2,12 L-7,12 L-7,10 L-9,9 L-4,6 L-2,6 L-2,4 L0,2 Z " fill="#AE796C" transform="translate(719,510)"/>
<path d="M0,0 L3,0 L4,6 L2,14 L0,14 L-1,16 L-1,6 Z " fill="#D98F6D" transform="translate(329,466)"/>
<path d="M0,0 L8,1 L12,5 L3,5 L-6,3 L-4,1 Z " fill="#CB8B74" transform="translate(497,392)"/>
<path d="M0,0 L1,4 L5,7 L5,12 L3,12 L1,15 L-1,9 L-3,8 L-3,5 L-1,5 Z " fill="#B1796A" transform="translate(714,426)"/>
<path d="M0,0 L6,1 L6,4 L4,4 L2,10 L-1,10 L-2,3 Z M-1,5 Z " fill="#B77E6D" transform="translate(707,427)"/>
<path d="M0,0 L3,1 L3,3 L7,3 L6,8 L4,9 L1,8 L0,5 L-3,7 L-3,4 L-1,4 Z " fill="#D58E70" transform="translate(397,585)"/>
<path d="M0,0 L5,0 L5,2 L0,3 L-2,5 L-10,5 L-15,3 L-11,1 L-3,1 Z " fill="#B17F62" transform="translate(587,575)"/>
<path d="M0,0 L2,1 L0,9 L-5,10 L-7,9 L-7,7 L-5,7 L-4,3 L0,2 Z " fill="#AD7155" transform="translate(317,421)"/>
<path d="M0,0 L2,0 L2,6 L3,10 L-1,14 L-3,12 L-2,3 Z " fill="#BE8470" transform="translate(707,453)"/>
<path d="M0,0 L2,0 L2,10 L0,12 L-2,17 L-3,15 L-3,6 L-2,2 L0,2 Z " fill="#B07769" transform="translate(719,441)"/>
<path d="M0,0 L9,1 L8,3 L-4,3 L-4,8 L-6,8 L-7,10 L-6,3 L-4,1 Z " fill="#DA8873" transform="translate(360,411)"/>
<path d="M0,0 L6,0 L6,3 L4,3 L4,5 L1,4 L-1,7 L-4,6 L-4,2 Z " fill="#C38369" transform="translate(414,602)"/>
<path d="M0,0 L1,3 L5,2 L3,7 L-5,11 L-8,9 L-2,7 L-2,1 Z M5,1 Z " fill="#B17E6D" transform="translate(693,531)"/>
<path d="M0,0 L1,0 L1,8 L-1,29 L-2,29 L-2,6 Z " fill="#BF7E5F" transform="translate(307,474)"/>
<path d="M0,0 L2,0 L3,2 L5,3 L4,5 L0,7 L-2,10 L-3,5 L-6,7 L-7,4 L-2,3 L-2,1 Z " fill="#CA8467" transform="translate(400,600)"/>
<path d="M0,0 L13,0 L13,3 L5,4 L2,6 L2,4 L-2,3 Z M2,3 Z " fill="#B5836C" transform="translate(512,588)"/>
<path d="M0,0 L10,0 L10,4 L0,5 Z " fill="#B8755E" transform="translate(406,377)"/>
<path d="M0,0 L1,0 L1,7 L3,7 L2,12 L-2,13 L-2,2 Z " fill="#BD7D64" transform="translate(403,614)"/>
<path d="M0,0 L2,0 L3,3 L1,8 L1,11 L-2,12 L-3,7 L-4,4 Z M-5,7 Z M-6,8 Z " fill="#B67E66" transform="translate(454,601)"/>
<path d="M0,0 L6,0 L7,2 L4,7 L-2,5 L-1,1 Z " fill="#BD866B" transform="translate(654,532)"/>
<path d="M0,0 L6,1 L2,2 L2,4 L0,5 L-11,5 L-11,3 L-9,2 L-1,2 L1,3 Z " fill="#9A6D5C" transform="translate(672,574)"/>
<path d="M0,0 L1,4 L5,4 L4,9 L1,11 L-2,9 L-1,3 Z M0,4 Z " fill="#DC9171" transform="translate(331,566)"/>
<path d="M0,0 L1,2 L5,0 L6,5 L0,7 L-5,7 L-3,4 L-3,2 Z " fill="#DC9275" transform="translate(493,403)"/>
<path d="M0,0 L5,1 L3,4 L12,4 L10,6 L-3,6 L-2,4 L0,4 Z " fill="#9F705C" transform="translate(514,608)"/>
<path d="M0,0 L11,1 L11,2 L5,2 L5,4 L1,4 L1,6 L-3,6 L-4,8 L-5,4 L0,5 L0,3 L-2,2 Z " fill="#8C634E" transform="translate(593,592)"/>
<path d="M0,0 L1,0 L1,5 L-2,10 L0,10 L-2,15 L-5,11 L-4,6 L-2,6 L-1,1 Z " fill="#D48A6A" transform="translate(347,426)"/>
<path d="M0,0 L9,0 L9,4 L5,5 L0,4 Z " fill="#BF876E" transform="translate(679,524)"/>
<path d="M0,0 L7,2 L6,6 L8,7 L3,6 L3,4 L-6,2 L-6,1 Z " fill="#B37C6D" transform="translate(690,406)"/>
<path d="M0,0 L10,1 L9,3 L-8,4 L-9,2 L-3,1 L0,2 Z " fill="#C99172" transform="translate(628,532)"/>
<path d="M0,0 L4,0 L4,2 L10,3 L10,5 L6,6 L4,6 L2,7 L0,4 Z " fill="#BC8369" transform="translate(616,394)"/>
<path d="M0,0 L0,3 L-1,9 L-4,9 L-5,11 L-5,9 L-7,9 L-8,12 L-7,7 L-4,4 L-2,4 Z " fill="#845947" transform="translate(322,392)"/>
<path d="M0,0 L8,0 L8,1 L1,1 L1,3 L4,4 L0,4 L-2,9 L-3,5 L-5,5 L-5,10 L-6,10 L-6,4 L-4,4 L-4,2 L0,2 Z " fill="#875544" transform="translate(332,380)"/>
<path d="M0,0 L5,1 L5,3 L9,2 L10,7 L7,7 L3,6 L0,2 Z " fill="#BF8672" transform="translate(679,414)"/>
<path d="M0,0 L5,2 L8,6 L-3,7 L-3,5 L1,4 Z " fill="#A46E55" transform="translate(328,630)"/>
<path d="M0,0 L1,4 L5,6 L5,10 L8,11 L6,12 L1,10 L-1,3 Z " fill="#150E0A" transform="translate(299,604)"/>
<path d="M0,0 L5,0 L7,5 L4,8 L2,8 L1,2 Z M7,3 Z " fill="#CF8A6C" transform="translate(396,593)"/>
<path d="M0,0 L3,0 L3,8 L2,10 L-1,10 Z " fill="#A96C4E" transform="translate(301,448)"/>
<path d="M0,0 L4,0 L4,2 L-6,8 L-4,1 Z " fill="#B67A65" transform="translate(348,396)"/>
<path d="M0,0 L8,0 L8,2 L5,3 L-7,3 L-7,1 Z " fill="#B97E68" transform="translate(597,394)"/>
<path d="M0,0 L1,0 L1,8 L-1,8 L-1,10 L1,10 L0,14 L0,11 L-5,11 L-5,5 L-4,7 L0,7 Z " fill="#8A6058" transform="translate(709,382)"/>
<path d="M0,0 L8,0 L6,4 L0,5 L0,3 L-2,2 Z " fill="#C07961" transform="translate(378,388)"/>
<path d="M0,0 L9,0 L13,2 L7,3 L5,3 L3,4 L-2,3 Z " fill="#BE836D" transform="translate(659,406)"/>
<path d="M0,0 L1,2 L1,12 L3,13 L0,13 L0,15 L3,16 L-1,16 L-1,12 L-3,12 L-3,10 L-1,10 L-1,2 L-3,1 Z " fill="#19110F" transform="translate(711,380)"/>
<path d="M0,0 L6,0 L4,4 L2,6 L-1,6 L-1,1 Z " fill="#BE8371" transform="translate(706,504)"/>
<path d="M0,0 L4,1 L2,5 L0,5 L0,7 L-2,7 L-3,9 L-3,3 Z " fill="#A96D51" transform="translate(310,423)"/>
<path d="M0,0 L6,1 L6,4 L8,4 L7,6 L2,4 L2,6 L0,6 Z " fill="#A5766C" transform="translate(688,392)"/>
<path d="M0,0 L2,1 L6,0 L7,4 L6,5 L0,5 Z " fill="#9F6F57" transform="translate(484,626)"/>
<path d="M0,0 L5,0 L5,2 L2,2 L2,11 L0,11 Z " fill="#A6674D" transform="translate(305,407)"/>
<path d="M0,0 L1,2 L10,1 L7,6 L3,6 L3,3 L-1,4 Z " fill="#C88F6E" transform="translate(545,550)"/>
<path d="M0,0 L2,0 L2,12 L0,12 L-1,4 Z " fill="#AB7164" transform="translate(731,448)"/>
<path d="M0,0 L4,1 L4,4 L-8,4 L-4,2 Z " fill="#9E6D56" transform="translate(552,603)"/>
<path d="M0,0 L5,0 L2,3 L0,3 L0,5 L-5,5 L-6,3 Z " fill="#DB8B72" transform="translate(378,409)"/>
<path d="M0,0 L1,3 L3,3 L3,1 L5,1 L6,6 L6,10 L4,10 L2,5 L0,4 Z " fill="#8C5D42" transform="translate(300,604)"/>
<path d="M0,0 L6,1 L3,4 L-4,4 L-6,3 L-6,1 L0,2 Z M6,0 Z " fill="#B8866E" transform="translate(672,536)"/>
<path d="M0,0 L3,0 L2,6 L1,15 L0,15 Z " fill="#AB6C4D" transform="translate(304,432)"/>
<path d="M0,0 L2,0 L2,3 L8,3 L8,4 L2,4 L2,6 L-4,6 L-4,5 L1,5 L1,3 L-2,3 L-2,1 Z " fill="#875E4B" transform="translate(482,628)"/>
<path d="M0,0 L2,0 L3,3 L-2,5 L-6,4 L-3,1 Z " fill="#B78165" transform="translate(546,576)"/>
<path d="M0,0 L2,3 L1,6 L-1,6 L-2,9 L-4,6 Z " fill="#C47E66" transform="translate(399,610)"/>
<path d="M0,0 L4,0 L3,5 L2,7 L0,7 Z " fill="#D3856E" transform="translate(352,409)"/>
<path d="M0,0 L1,0 L1,8 L-1,8 L-2,10 L-2,2 L0,2 Z " fill="#D38966" transform="translate(330,452)"/>
<path d="M0,0 L2,4 L3,6 L3,13 L1,13 L-1,5 Z " fill="#A46C5D" transform="translate(732,434)"/>
<path d="M0,0 L3,0 L3,7 L1,7 L-1,4 Z " fill="#EA9F7D" transform="translate(338,496)"/>
<path d="M0,0 L3,0 L2,10 L0,11 Z " fill="#B47A6C" transform="translate(716,447)"/>
<path d="M0,0 L7,0 L8,2 L6,4 L2,3 L2,1 Z " fill="#B17A64" transform="translate(444,614)"/>
<path d="M0,0 L7,1 L6,3 L-2,3 L-2,1 Z " fill="#BA7E66" transform="translate(434,605)"/>
<path d="M0,0 L5,0 L4,5 L0,5 Z " fill="#C99371" transform="translate(612,532)"/>
<path d="M0,0 L4,1 L6,3 L-1,4 Z " fill="#BA816E" transform="translate(695,524)"/>
<path d="M0,0 L1,2 L-1,1 Z M-4,2 L-1,3 L-5,7 L-8,8 L-6,4 L-4,4 Z " fill="#B8886D" transform="translate(492,586)"/>
<path d="M0,0 L4,0 L3,4 L1,5 L-1,4 Z " fill="#DF9474" transform="translate(332,570)"/>
<path d="M0,0 L3,1 L4,4 L3,8 L1,8 Z " fill="#BB8666" transform="translate(611,550)"/>
<path d="M0,0 L2,0 L1,5 L-4,6 L-4,4 L-2,4 L-2,2 L0,2 Z " fill="#9C6454" transform="translate(351,373)"/>
<path d="M0,0 L4,1 L1,1 L1,5 L-5,6 L-2,2 L0,2 Z " fill="#7F5346" transform="translate(350,370)"/>
<path d="M0,0 L5,1 L1,5 L-2,4 L0,4 Z " fill="#A3735D" transform="translate(514,608)"/>
<path d="M0,0 L3,0 L2,5 L-1,5 Z " fill="#D08D72" transform="translate(401,588)"/>
<path d="M0,0 L5,1 L4,3 L-4,4 L-3,1 Z " fill="#B5876D" transform="translate(500,588)"/>
<path d="M0,0 L5,1 L4,3 L-3,3 L-3,1 Z " fill="#B88566" transform="translate(519,578)"/>
<path d="M0,0 L3,1 L1,7 L-1,6 Z M-2,7 Z M-3,8 Z " fill="#C48672" transform="translate(705,497)"/>
<path d="M0,0 L3,0 L4,3 L1,3 L1,9 L0,9 Z " fill="#8D6552" transform="translate(402,643)"/>
<path d="M0,0 Z M-2,1 L0,2 L-2,6 L-6,6 L-4,2 Z " fill="#A6735D" transform="translate(458,624)"/>
<path d="M0,0 L3,1 L2,5 L-2,5 L-2,3 L0,3 Z " fill="#D29075" transform="translate(402,583)"/>
<path d="M0,0 L3,1 L1,5 L-2,4 Z " fill="#BF8A6B" transform="translate(466,580)"/>
<path d="M0,0 L2,4 L-1,7 L-2,1 Z " fill="#B68170" transform="translate(693,531)"/>
<path d="M0,0 L2,1 L-1,5 L-4,5 L-4,2 Z " fill="#C88D6F" transform="translate(656,523)"/>
<path d="M0,0 L4,2 L5,5 L0,3 Z " fill="#9D6C4B" transform="translate(308,610)"/>
<path d="M0,0 L2,2 L1,8 L-1,6 L-1,1 Z " fill="#EB9F7D" transform="translate(349,513)"/>
<path d="M0,0 L1,2 L-2,4 L-4,7 L-4,1 Z " fill="#E69C79" transform="translate(340,484)"/>
<path d="M0,0 L2,1 L0,6 L-3,7 L-3,4 L0,4 Z " fill="#E59A7A" transform="translate(343,474)"/>
<path d="M0,0 L2,0 L2,7 L-1,5 Z " fill="#C38672" transform="translate(705,460)"/>
<path d="M0,0 L1,2 L4,2 L3,5 L0,5 Z " fill="#D09073" transform="translate(416,581)"/>
<path d="M0,0 L7,0 L4,3 L0,1 Z " fill="#B98366" transform="translate(524,578)"/>
<path d="M0,0 L3,1 L0,4 L-2,1 Z M-2,3 Z " fill="#C08D6C" transform="translate(574,555)"/>
<path d="M0,0 L3,0 L3,3 L-1,4 Z " fill="#D2997A" transform="translate(617,513)"/>
<path d="M0,0 L3,1 L-2,4 L-2,1 Z " fill="#C28973" transform="translate(671,414)"/>
<path d="M0,0 L3,0 L3,2 L5,3 L3,4 L0,2 Z " fill="#99705D" transform="translate(674,571)"/>
<path d="M0,0 L3,1 L2,3 L-2,4 Z " fill="#E6987A" transform="translate(408,414)"/>
<path d="M0,0 L4,1 L3,3 L-1,2 Z " fill="#CB8969" transform="translate(561,409)"/>
<path d="M0,0 L3,0 L2,3 L-1,3 Z " fill="#BD8A6E" transform="translate(461,584)"/>
<path d="M0,0 L3,1 L2,3 L-2,4 L-2,2 L0,2 Z " fill="#BD8A6D" transform="translate(478,584)"/>
<path d="M0,0 L4,2 L2,2 L2,4 L0,4 Z " fill="#9A6C5F" transform="translate(715,401)"/>
<path d="M0,0 L3,1 L2,3 L-2,2 Z " fill="#CB8A74" transform="translate(482,392)"/>
<path d="M0,0 L4,1 L0,3 Z " fill="#BB8368" transform="translate(636,547)"/>
<path d="M0,0 L3,0 L3,3 L0,3 Z " fill="#A36854" transform="translate(379,365)"/>
<path d="M0,0 L3,0 L2,3 L0,3 Z " fill="#9D6E5C" transform="translate(472,637)"/>
<path d="M0,0 L3,0 L2,3 L0,3 Z " fill="#CB8D6C" transform="translate(520,550)"/>
<path d="M0,0 L2,3 L-1,5 Z " fill="#BA836F" transform="translate(706,442)"/>
<path d="M0,0 L4,2 L0,3 Z " fill="#CD8768" transform="translate(576,409)"/>
<path d="M0,0 L2,0 L2,3 L-1,3 Z " fill="#A06551" transform="translate(395,361)"/>
<path d="M0,0 L3,1 L2,3 L0,3 Z " fill="#C18B6F" transform="translate(456,584)"/>
<path d="M0,0 L2,2 L0,3 L-2,1 Z " fill="#B77D66" transform="translate(416,615)"/>
<path d="M0,0 L2,1 L2,3 L-1,2 Z " fill="#D19775" transform="translate(631,523)"/>
</svg>
