<?xml version="1.0" encoding="UTF-8"?>
<!-- Generator: visioncortex VTracer 0.6.4 -->
<svg version="1.1" xmlns="http://www.w3.org/2000/svg" width="1024" height="1024">
<path d="M0,0 L1024,0 L1024,1024 L0,1024 Z " fill="#000000" transform="translate(0,0)"/>
<path d="M0,0 L40,0 L40,2 L46,2 L48,5 L52,6 L52,10 L54,10 L54,12 L56,12 L56,16 L60,16 L60,18 L62,18 L62,36 L64,36 L64,42 L66,42 L66,52 L68,52 L68,56 L70,56 L70,64 L74,64 L74,72 L76,72 L76,92 L74,92 L74,98 L70,98 L70,100 L68,100 L68,122 L66,122 L66,124 L68,124 L68,128 L70,128 L70,136 L68,136 L68,152 L66,152 L66,160 L64,160 L64,166 L66,166 L66,172 L64,172 L64,202 L66,202 L66,210 L64,210 L64,226 L62,226 L62,230 L60,230 L60,238 L58,238 L58,240 L56,240 L56,244 L54,244 L54,246 L52,246 L52,252 L50,252 L50,258 L48,258 L48,262 L44,262 L44,268 L42,268 L42,270 L36,270 L36,268 L34,268 L34,276 L32,276 L32,284 L30,284 L30,292 L28,292 L28,304 L26,304 L26,306 L16,306 L16,310 L14,310 L14,316 L10,316 L10,320 L6,320 L6,324 L2,324 L2,326 L0,326 L0,332 L-2,332 L-2,336 L-6,336 L-6,338 L-12,338 L-12,340 L-14,340 L-14,344 L-18,344 L-18,352 L-20,352 L-20,354 L-30,354 L-30,356 L-36,356 L-36,358 L-48,358 L-48,362 L-56,362 L-56,366 L-60,366 L-60,368 L-62,368 L-62,370 L-66,370 L-66,372 L-76,372 L-76,374 L-84,374 L-84,376 L-96,376 L-96,378 L-106,378 L-106,380 L-128,380 L-128,378 L-132,378 L-132,376 L-134,376 L-134,378 L-144,378 L-144,376 L-156,376 L-156,374 L-180,374 L-180,372 L-182,372 L-182,374 L-190,374 L-190,372 L-204,372 L-204,370 L-208,370 L-212,366 L-212,358 L-214,358 L-214,356 L-224,356 L-228,352 L-228,342 L-232,340 L-232,338 L-236,338 L-238,333 L-240,332 L-240,322 L-242,322 L-242,298 L-244,298 L-244,286 L-242,286 L-242,284 L-244,284 L-244,254 L-248,252 L-252,248 L-252,246 L-258,246 L-260,242 L-272,242 L-272,240 L-274,240 L-274,230 L-276,230 L-276,220 L-278,220 L-278,212 L-280,212 L-280,200 L-284,200 L-284,192 L-286,192 L-286,180 L-288,180 L-288,172 L-290,172 L-290,156 L-292,156 L-292,124 L-290,124 L-290,102 L-288,102 L-288,98 L-284,98 L-284,96 L-280,96 L-280,92 L-278,92 L-278,84 L-276,84 L-276,80 L-272,80 L-272,66 L-268,66 L-268,64 L-264,64 L-262,60 L-258,58 L-258,56 L-256,56 L-256,54 L-246,54 L-246,52 L-242,52 L-242,50 L-240,50 L-240,48 L-228,48 L-228,44 L-212,44 L-212,42 L-210,42 L-210,38 L-204,38 L-204,34 L-196,34 L-196,32 L-184,32 L-184,30 L-178,30 L-178,32 L-176,32 L-176,30 L-170,30 L-170,32 L-150,32 L-150,30 L-128,30 L-128,28 L-120,28 L-120,26 L-110,26 L-110,24 L-104,24 L-104,22 L-92,22 L-92,20 L-80,20 L-80,18 L-72,18 L-72,16 L-48,16 L-48,14 L-42,14 L-42,16 L-36,16 L-36,14 L-24,14 L-24,12 L-16,12 L-16,10 L-14,10 L-14,8 L-12,8 L-12,6 L-6,6 L-6,4 L-4,4 L-4,2 L0,2 Z " fill="#F3A78C" transform="translate(618,326)"/>
<path d="M0,0 L40,0 L40,2 L46,2 L48,5 L52,6 L52,10 L54,10 L54,12 L56,12 L55,16 L54,14 L52,15 L53,11 L50,10 L51,7 L49,7 L48,9 L42,8 L42,6 L35,5 L32,5 L24,5 L22,6 L16,5 L12,5 L3,5 L0,9 L-6,11 L-10,13 L-8,13 L-7,16 L-8,17 L2,17 L6,16 L6,18 L13,17 L15,20 L12,23 L6,23 L2,24 L-3,24 L-8,25 L-9,23 L-10,24 L-24,25 L-26,25 L-32,27 L-32,25 L-39,26 L-39,29 L-44,34 L-48,36 L-49,34 L-50,35 L-56,35 L-58,35 L-62,36 L-62,34 L-66,34 L-67,32 L-68,33 L-75,33 L-75,31 L-80,31 L-85,35 L-92,34 L-92,32 L-100,33 L-102,34 L-102,32 L-107,31 L-107,29 L-115,36 L-118,37 L-128,36 L-135,36 L-138,37 L-139,36 L-149,36 L-164,38 L-171,36 L-182,36 L-193,37 L-198,41 L-199,39 L-204,45 L-207,45 L-209,45 L-209,43 L-211,43 L-209,47 L-210,50 L-218,53 L-224,56 L-226,58 L-234,58 L-234,55 L-239,56 L-240,58 L-245,60 L-248,64 L-254,64 L-254,66 L-258,67 L-260,72 L-260,75 L-262,82 L-265,82 L-265,79 L-267,79 L-269,83 L-275,81 L-275,83 L-272,83 L-274,87 L-274,85 L-277,85 L-277,92 L-274,93 L-276,93 L-277,96 L-277,93 L-279,93 L-276,101 L-277,108 L-278,115 L-277,125 L-277,141 L-276,146 L-275,146 L-275,152 L-276,154 L-271,154 L-271,160 L-273,166 L-274,171 L-272,171 L-272,183 L-273,188 L-272,193 L-273,195 L-274,209 L-272,209 L-272,215 L-273,217 L-270,220 L-270,229 L-268,237 L-261,237 L-257,239 L-257,241 L-250,243 L-249,245 L-251,245 L-250,249 L-252,248 L-252,246 L-258,246 L-260,242 L-272,242 L-272,240 L-274,240 L-274,230 L-276,230 L-276,220 L-278,220 L-278,212 L-280,212 L-280,200 L-284,200 L-284,192 L-286,192 L-286,180 L-288,180 L-288,172 L-290,172 L-290,156 L-292,156 L-292,124 L-290,124 L-290,102 L-288,102 L-288,98 L-284,98 L-284,96 L-280,96 L-280,92 L-278,92 L-278,84 L-276,84 L-276,80 L-272,80 L-272,66 L-268,66 L-268,64 L-264,64 L-262,60 L-258,58 L-258,56 L-256,56 L-256,54 L-246,54 L-246,52 L-242,52 L-242,50 L-240,50 L-240,48 L-228,48 L-228,44 L-212,44 L-212,42 L-210,42 L-210,38 L-204,38 L-204,34 L-196,34 L-196,32 L-184,32 L-184,30 L-178,30 L-178,32 L-176,32 L-176,30 L-170,30 L-170,32 L-150,32 L-150,30 L-128,30 L-128,28 L-120,28 L-120,26 L-110,26 L-110,24 L-104,24 L-104,22 L-92,22 L-92,20 L-80,20 L-80,18 L-72,18 L-72,16 L-48,16 L-48,14 L-42,14 L-42,16 L-36,16 L-36,14 L-24,14 L-24,12 L-16,12 L-16,10 L-14,10 L-14,8 L-12,8 L-12,6 L-6,6 L-6,4 L-4,4 L-4,2 L0,2 Z M-102,31 Z M-234,53 Z " fill="#E19286" transform="translate(618,326)"/>
<path d="M0,0 L3,0 L3,21 L5,21 L5,0 L6,0 L6,22 L4,22 L4,24 L6,24 L6,28 L8,28 L8,36 L6,36 L6,52 L4,52 L4,60 L2,60 L2,66 L4,66 L4,72 L2,72 L2,102 L4,102 L4,110 L2,110 L2,126 L0,126 L0,130 L-2,130 L-2,138 L-4,138 L-4,140 L-6,140 L-6,144 L-8,144 L-8,146 L-10,146 L-10,152 L-12,152 L-12,158 L-14,158 L-14,162 L-18,162 L-18,168 L-20,168 L-20,170 L-26,170 L-26,168 L-28,168 L-28,176 L-30,176 L-30,184 L-32,184 L-32,192 L-34,192 L-34,204 L-36,204 L-36,206 L-46,206 L-46,205 L-37,205 L-37,203 L-46,203 L-46,202 L-38,202 L-38,192 L-37,192 L-36,201 L-36,172 L-34,171 L-33,165 L-34,165 L-33,158 L-36,159 L-36,157 L-34,157 L-33,152 L-27,152 L-28,156 L-19,156 L-17,151 L-17,148 L-19,149 L-18,143 L-20,144 L-19,140 L-16,138 L-12,138 L-12,136 L-10,136 L-10,134 L-8,134 L-7,129 L-5,129 L-4,123 L-5,110 L-2,110 L-4,94 L-4,39 L-5,42 L-7,41 L-3,28 L-1,28 L-1,7 Z " fill="#E29885" transform="translate(680,426)"/>
<path d="M0,0 L6,1 L6,3 L1,4 L6,6 L24,6 L24,9 L30,9 L30,10 L24,10 L24,12 L12,12 L12,16 L4,16 L4,20 L0,20 L0,22 L-2,22 L-2,24 L-6,24 L-6,26 L-16,26 L-16,28 L-24,28 L-24,30 L-36,30 L-36,32 L-46,32 L-46,34 L-68,34 L-68,32 L-72,32 L-72,30 L-74,30 L-74,32 L-84,32 L-84,30 L-96,30 L-96,28 L-120,28 L-120,26 L-122,25 L-120,25 L-120,23 L-110,21 L-101,22 L-101,20 L-96,20 L-96,22 L-92,22 L-90,20 L-90,22 L-87,22 L-86,20 L-86,22 L-64,23 L-62,21 L-56,22 L-53,20 L-46,21 L-46,23 L-41,19 L-38,18 L-38,21 L-30,20 L-30,22 L-24,22 L-24,20 L-22,20 L-22,17 L-18,16 L-17,11 L-12,8 L-8,8 L-8,5 L-5,4 L-5,1 Z " fill="#E49D85" transform="translate(558,672)"/>
<path d="M0,0 L1,4 L2,14 L2,30 L3,35 L4,35 L4,41 L3,43 L8,43 L8,49 L6,55 L5,60 L7,60 L7,72 L6,77 L7,82 L6,84 L5,98 L7,98 L7,104 L6,106 L9,109 L9,118 L11,126 L18,126 L22,128 L22,130 L29,132 L30,134 L28,134 L29,138 L27,137 L27,135 L21,135 L19,131 L7,131 L7,129 L5,129 L5,119 L3,119 L3,109 L1,109 L1,101 L-1,101 L-1,89 L-5,89 L-5,81 L-7,81 L-7,69 L-9,69 L-10,61 L-10,45 L-9,44 L-9,14 L-7,13 L-5,7 L-1,5 Z " fill="#E39881" transform="translate(339,437)"/>
<path d="M0,0 L40,0 L40,2 L46,2 L48,5 L52,6 L52,10 L54,10 L54,12 L56,12 L55,16 L54,14 L52,15 L53,11 L50,10 L51,7 L49,7 L48,9 L42,8 L42,6 L35,5 L32,5 L24,5 L22,6 L16,5 L12,5 L3,5 L0,9 L-6,11 L-10,13 L-8,13 L-7,16 L-8,17 L2,17 L6,16 L6,18 L13,17 L15,20 L12,23 L6,23 L2,24 L-3,24 L-8,25 L-9,23 L-10,24 L-24,25 L-26,25 L-32,27 L-32,25 L-39,26 L-39,29 L-44,34 L-48,36 L-49,34 L-50,35 L-56,35 L-58,35 L-62,36 L-62,34 L-66,34 L-67,32 L-68,33 L-75,33 L-72,30 L-70,30 L-70,28 L-66,25 L-60,25 L-52,22 L-49,22 L-44,20 L-47,17 L-47,15 L-36,16 L-36,14 L-24,14 L-24,12 L-16,12 L-16,10 L-14,10 L-14,8 L-12,8 L-12,6 L-6,6 L-6,4 L-4,4 L-4,2 L0,2 Z " fill="#EA9990" transform="translate(618,326)"/>
<path d="M0,0 L7,1 L5,5 L-1,10 L-2,12 L-8,12 L-8,14 L-12,15 L-14,20 L-14,23 L-16,30 L-19,30 L-19,27 L-21,27 L-23,31 L-29,29 L-29,31 L-26,31 L-28,35 L-28,33 L-31,33 L-31,40 L-28,41 L-30,41 L-31,44 L-31,41 L-33,41 L-30,49 L-31,56 L-34,64 L-38,67 L-40,73 L-42,73 L-42,103 L-40,104 L-43,104 L-43,120 L-44,120 L-44,104 L-46,104 L-46,72 L-44,72 L-44,50 L-42,50 L-42,46 L-38,46 L-38,44 L-34,44 L-34,40 L-32,40 L-32,32 L-30,32 L-30,28 L-26,28 L-26,14 L-22,14 L-22,12 L-18,12 L-16,8 L-12,6 L-12,4 L-10,4 L-10,2 L0,2 Z " fill="#E39684" transform="translate(372,378)"/>
<path d="M0,0 L5,4 L9,3 L10,39 L9,41 L9,50 L10,51 L11,73 L13,77 L17,77 L18,80 L16,86 L22,88 L23,89 L23,95 L26,96 L26,103 L31,104 L31,102 L35,102 L36,108 L34,108 L35,111 L33,111 L33,109 L23,109 L19,105 L19,95 L15,93 L15,91 L11,91 L9,86 L7,85 L7,75 L5,75 L5,51 L3,51 L3,39 L5,39 L5,37 L3,37 L3,7 L-1,5 L-3,2 L0,2 Z " fill="#D99279" transform="translate(371,573)"/>
<path d="M0,0 L4,0 L4,2 L6,2 L6,20 L8,20 L8,26 L10,26 L10,36 L12,36 L12,40 L14,40 L14,48 L18,48 L18,56 L20,56 L20,76 L18,76 L18,82 L14,82 L13,84 L12,80 L17,81 L17,76 L15,76 L14,79 L13,74 L11,75 L10,80 L9,80 L9,62 L7,62 L7,59 L5,59 L2,38 L2,25 L0,20 L1,7 L-1,3 L3,3 L3,1 Z " fill="#E39586" transform="translate(674,342)"/>
<path d="M0,0 L5,1 L5,4 L0,6 L-4,7 L-6,8 L-6,5 L-10,4 L-10,2 Z M-12,4 L-10,5 L-12,8 L-12,16 L-16,25 L-21,29 L-22,36 L-24,36 L-25,44 L-26,47 L-27,52 L-27,55 L-28,58 L-26,58 L-26,77 L-27,88 L-29,92 L-32,92 L-32,85 L-33,85 L-34,78 L-34,63 L-35,51 L-33,43 L-34,35 L-35,31 L-32,31 L-33,30 L-33,23 L-29,23 L-28,21 L-31,21 L-31,19 L-25,20 L-23,17 L-21,17 L-21,20 L-18,20 L-18,15 L-18,12 L-14,5 Z M-14,8 Z " fill="#E79A88" transform="translate(374,388)"/>
<path d="M0,0 L5,0 L5,2 L9,2 L11,0 L11,2 L14,2 L15,0 L15,2 L45,4 L49,5 L49,8 L53,7 L64,7 L65,8 L77,9 L77,10 L65,10 L65,12 L55,12 L55,14 L33,14 L33,12 L29,12 L29,10 L27,10 L27,12 L17,12 L17,10 L5,10 L5,8 L-19,8 L-19,6 L-21,5 L-19,5 L-19,3 L-9,1 L0,2 Z " fill="#E2937E" transform="translate(457,692)"/>
<path d="M0,0 L40,0 L40,2 L46,2 L48,5 L52,6 L52,10 L54,10 L54,12 L56,12 L55,16 L54,14 L52,15 L53,11 L50,10 L51,7 L49,7 L48,9 L42,8 L42,6 L35,5 L32,5 L24,5 L22,6 L16,5 L12,5 L3,5 L0,9 L-6,11 L-10,13 L-8,13 L-7,16 L-9,18 L-36,19 L-36,17 L-42,17 L-42,16 L-36,16 L-36,14 L-24,14 L-24,12 L-16,12 L-16,10 L-14,10 L-14,8 L-12,8 L-12,6 L-6,6 L-6,4 L-4,4 L-4,2 L0,2 Z " fill="#D3887D" transform="translate(618,326)"/>
<path d="M0,0 L4,2 L2,2 L2,6 L0,6 L0,8 L-2,8 L-2,14 L-4,14 L-4,20 L-6,20 L-6,24 L-10,24 L-10,30 L-12,30 L-12,32 L-18,32 L-18,30 L-20,30 L-20,38 L-22,38 L-22,46 L-24,46 L-24,54 L-26,54 L-26,66 L-28,66 L-28,68 L-38,68 L-38,67 L-29,67 L-29,65 L-38,65 L-38,64 L-30,64 L-30,54 L-29,54 L-28,63 L-28,34 L-26,33 L-25,27 L-26,27 L-25,20 L-28,21 L-28,19 L-26,19 L-25,14 L-19,14 L-20,18 L-11,18 L-9,14 L-7,14 L-7,19 L-5,19 L-6,8 L-5,8 L-5,13 L-3,13 L-4,6 L-1,3 L-1,5 L1,5 Z " fill="#E39582" transform="translate(672,564)"/>
<path d="M0,0 L5,1 L5,31 L8,31 L8,39 L6,39 L6,55 L4,55 L4,59 L2,59 L2,67 L-3,68 L-3,72 L-7,73 L-7,80 L-9,81 L-9,86 L-13,86 L-13,77 L-15,78 L-14,72 L-16,73 L-15,69 L-12,67 L-8,67 L-8,65 L-6,65 L-6,63 L-4,63 L-3,58 L-1,58 L0,52 L-1,39 L2,39 L0,23 Z " fill="#D9927F" transform="translate(676,497)"/>
<path d="M0,0 L1,0 L3,13 L3,21 L5,21 L5,24 L7,24 L8,37 L12,35 L13,38 L15,38 L15,43 L11,43 L11,46 L9,46 L9,67 L7,67 L7,46 L4,46 L4,58 L3,74 L2,72 L-1,71 L-2,65 L-1,63 L0,52 L2,51 L2,45 L0,49 L0,24 L-1,20 L-1,14 L-2,11 L-2,7 L-3,9 L-5,8 L-4,4 Z " fill="#E69B89" transform="translate(676,380)"/>
<path d="M0,0 L7,0 L7,2 L4,4 L-1,10 L-4,10 L-6,10 L-6,8 L-8,8 L-6,12 L-7,15 L-15,18 L-21,21 L-23,23 L-31,23 L-31,20 L-36,20 L-36,18 L-39,17 L-39,15 L-37,15 L-37,13 L-25,13 L-25,9 L-9,9 L-9,7 L-7,7 L-7,3 L0,3 Z M-31,18 Z M-37,20 Z M-38,21 L-37,23 L-40,22 Z " fill="#E3998B" transform="translate(415,361)"/>
<path d="M0,0 L1,4 L-1,4 L-1,10 L-5,10 L-5,14 L-9,14 L-9,18 L-13,18 L-13,20 L-15,20 L-15,26 L-17,26 L-17,30 L-21,30 L-21,32 L-27,32 L-27,34 L-29,34 L-29,38 L-33,38 L-33,46 L-35,46 L-35,48 L-45,48 L-45,47 L-36,47 L-37,45 L-45,44 L-41,43 L-40,40 L-38,40 L-37,35 L-34,30 L-29,28 L-22,27 L-20,23 L-18,17 L-16,17 L-16,19 L-14,19 L-15,13 L-13,13 L-13,11 L-10,9 L-8,6 L-6,7 L-5,2 L-2,1 L-2,3 L0,3 Z " fill="#D39079" transform="translate(633,632)"/>
<path d="M0,0 L3,1 L5,0 L5,3 L8,1 L13,2 L14,4 L14,7 L9,12 L5,14 L4,12 L3,13 L-3,13 L-5,13 L-9,14 L-9,12 L-13,12 L-14,10 L-15,11 L-22,11 L-19,8 L-17,8 L-17,6 L-13,3 L-7,3 Z " fill="#EC978C" transform="translate(565,348)"/>
<path d="M0,0 L13,0 L13,3 L19,3 L19,4 L13,4 L13,6 L1,6 L1,10 L-7,10 L-7,14 L-11,14 L-11,16 L-13,16 L-13,18 L-17,18 L-17,20 L-27,20 L-27,22 L-35,22 L-35,21 L-28,21 L-28,19 L-35,19 L-35,18 L-28,18 L-28,16 L-20,14 L-17,7 L-13,7 L-12,10 L-10,10 L-10,13 L-8,13 L-10,8 L-7,4 L-5,4 L-5,2 Z " fill="#E59E87" transform="translate(569,678)"/>
<path d="M0,0 L6,0 L6,2 L8,2 L8,0 L14,0 L14,2 L34,2 L34,0 L56,0 L56,1 L35,1 L35,3 L56,3 L56,4 L35,4 L35,6 L20,8 L13,6 L2,6 L-9,7 L-14,11 L-14,8 L-17,7 L-12,7 L-12,5 L-19,5 L-20,8 L-20,4 L-12,4 L-12,2 L0,2 Z " fill="#E69789" transform="translate(434,356)"/>
<path d="M0,0 L7,0 L11,1 L11,4 L15,3 L26,3 L27,4 L39,5 L39,6 L27,6 L27,8 L17,8 L17,10 L-5,10 L-5,7 L-8,7 L-8,5 L-6,5 L-7,1 Z " fill="#E59A86" transform="translate(495,696)"/>
<path d="M0,0 L4,1 L1,1 L1,3 L3,4 L0,5 L0,3 L-3,3 L-3,6 L0,7 L-2,7 L-2,29 L-4,29 L-4,59 L-2,60 L-5,60 L-5,76 L-6,76 L-6,60 L-8,60 L-8,28 L-6,28 L-6,6 L-4,6 L-4,2 L0,2 Z " fill="#D18974" transform="translate(334,422)"/>
<path d="M0,0 L2,4 L1,15 L-1,17 L0,19 L-1,22 L1,22 L1,41 L0,52 L-2,56 L-5,56 L-5,18 L-3,2 Z " fill="#EA9E89" transform="translate(347,424)"/>
<path d="M0,0 L1,0 L1,10 L3,10 L3,14 L5,14 L5,22 L9,22 L9,30 L11,30 L11,50 L9,50 L9,56 L5,56 L4,58 L3,54 L8,55 L8,50 L6,50 L5,53 L4,37 L4,26 L2,25 L2,23 L4,23 L4,15 L2,15 L2,22 L1,22 L1,14 L2,11 L0,11 L-1,13 L-1,11 L-3,11 L-3,6 L-2,10 L0,10 Z " fill="#D08878" transform="translate(683,368)"/>
<path d="M0,0 L6,0 L6,1 L1,1 L1,3 L5,4 L0,6 L-23,6 L-23,8 L-31,8 L-31,10 L-42,11 L-43,12 L-50,12 L-50,11 L-44,11 L-44,9 L-56,9 L-56,8 L-44,8 L-44,6 L-32,6 L-32,4 L-24,4 L-24,2 L0,2 Z " fill="#D38B7F" transform="translate(570,340)"/>
<path d="M0,0 L6,1 L3,6 L-3,8 L-7,10 L-5,10 L-4,13 L-6,15 L-33,16 L-33,14 L-39,14 L-39,13 L-33,13 L-33,11 L-21,11 L-21,9 L-10,8 L-10,10 L-8,10 L-8,4 L2,4 L2,2 L0,2 Z " fill="#D99086" transform="translate(615,329)"/>
<path d="M0,0 L1,0 L2,14 L2,74 L1,74 L1,59 L-1,59 L-1,74 L-2,74 L-2,58 L0,58 L0,50 L-2,50 L-2,20 L0,20 L0,14 L-2,14 L-2,8 L0,8 Z " fill="#150E0C" transform="translate(684,478)"/>
<path d="M0,0 L1,3 L6,2 L6,4 L9,4 L10,2 L12,2 L12,8 L15,9 L15,16 L20,17 L20,15 L24,15 L25,21 L23,21 L24,24 L22,24 L22,22 L12,22 L8,18 L8,8 L4,6 L4,4 L0,4 Z " fill="#E39480" transform="translate(382,660)"/>
<path d="M0,0 L25,0 L25,3 L38,3 L38,4 L45,5 L45,6 L37,6 L37,8 L46,8 L46,9 L36,9 L36,7 L24,7 L24,5 L0,5 L0,3 L-2,2 L0,2 Z " fill="#D38A77" transform="translate(438,695)"/>
<path d="M0,0 L20,0 L19,3 L24,5 L24,7 L15,7 L15,9 L9,9 L8,7 L-7,7 L-6,2 L0,2 Z " fill="#E4A188" transform="translate(573,672)"/>
<path d="M0,0 L1,0 L1,9 L3,9 L3,0 L4,0 L4,9 L6,9 L8,17 L15,17 L19,19 L19,21 L26,23 L27,25 L25,25 L26,29 L24,28 L24,26 L18,26 L16,22 L4,22 L4,20 L2,20 L2,10 L0,10 Z " fill="#C9866E" transform="translate(342,546)"/>
<path d="M0,0 L2,2 L3,12 L3,24 L5,24 L5,30 L4,32 L7,35 L7,43 L2,44 L2,35 L-1,35 L-1,27 L-3,27 L-3,15 L-2,15 L-2,26 L0,26 L0,14 L-1,8 Z " fill="#D49079" transform="translate(341,511)"/>
<path d="M0,0 L4,1 L4,9 L0,11 L0,14 L-4,15 L-4,22 L-6,23 L-6,28 L-10,28 L-10,19 L-12,20 L-11,14 L-13,15 L-12,11 L-9,9 L-5,9 L-5,7 L-3,7 L-3,5 L-1,5 Z " fill="#E39680" transform="translate(673,555)"/>
<path d="M0,0 L4,1 L1,1 L1,3 L3,4 L1,6 L-4,6 L-4,8 L-8,8 L-9,12 L-15,13 L-15,11 L-17,11 L-16,14 L-21,13 L-21,15 L-19,15 L-19,17 L-21,18 L-22,27 L-23,27 L-23,15 L-25,15 L-25,28 L-26,28 L-26,14 L-22,14 L-22,12 L-18,12 L-16,8 L-12,6 L-12,4 L-10,4 L-10,2 L0,2 Z " fill="#D38C7F" transform="translate(372,378)"/>
<path d="M0,0 L1,0 L2,22 L4,26 L8,26 L9,29 L7,35 L13,37 L11,41 L7,41 L6,39 L3,39 L3,36 L-1,34 L-1,24 L0,23 Z " fill="#E1947D" transform="translate(380,624)"/>
<path d="M0,0 L1,0 L4,21 L4,27 L5,28 L5,35 L2,44 L1,49 L0,49 L0,24 L-1,20 L-1,14 L-2,11 L-2,7 L-3,9 L-5,8 L-4,4 Z " fill="#EA9D8C" transform="translate(676,380)"/>
<path d="M0,0 L4,0 L5,3 L7,3 L7,6 L9,6 L10,3 L10,7 L6,7 L6,9 L4,9 L4,11 L0,11 L0,13 L-10,13 L-10,15 L-18,15 L-18,14 L-11,14 L-11,12 L-18,12 L-18,11 L-11,11 L-11,9 L-3,7 Z " fill="#D59179" transform="translate(552,685)"/>
<path d="M0,0 L1,0 L1,7 L3,7 L3,0 L5,0 L6,4 L8,5 L7,8 L11,9 L24,10 L27,13 L23,13 L23,15 L30,15 L30,16 L22,16 L22,14 L8,14 L8,12 L4,12 L0,8 Z " fill="#D08976" transform="translate(406,684)"/>
<path d="M0,0 L1,0 L1,7 L3,7 L3,0 L4,0 L4,8 L2,8 L2,16 L0,16 L0,24 L-2,24 L-2,36 L-4,36 L-4,38 L-14,38 L-14,37 L-5,37 L-5,35 L-14,35 L-14,34 L-6,34 L-6,24 L-5,24 L-4,33 L-4,14 L-3,14 L-2,7 L0,7 Z " fill="#CB8774" transform="translate(648,594)"/>
<path d="M0,0 L6,1 L6,3 L1,4 L8,7 L8,8 L-9,10 L-13,12 L-13,18 L-16,19 L-22,19 L-22,17 L-18,16 L-17,11 L-12,8 L-8,8 L-8,5 L-5,4 L-5,1 Z " fill="#E7A088" transform="translate(558,672)"/>
<path d="M0,0 L3,2 L3,8 L8,8 L9,15 L4,16 L3,21 L2,18 L-3,19 L-4,18 L-4,12 L0,10 L-1,1 Z " fill="#F5A491" transform="translate(664,404)"/>
<path d="M0,0 L1,0 L1,8 L-1,8 L-1,14 L1,14 L1,20 L-1,20 L-1,50 L-2,50 L-2,20 L-4,20 L-4,32 L-5,32 L-5,19 L-7,19 L-7,14 L-5,14 L-5,7 L-3,7 L-2,5 L-2,7 L0,7 Z " fill="#CA8978" transform="translate(683,478)"/>
<path d="M0,0 L16,0 L16,1 L1,1 L1,3 L5,5 L0,10 L-10,11 L-11,9 L-14,8 L-14,6 L-12,6 L-12,4 L0,4 Z M-6,9 Z M-12,11 Z M-13,12 L-12,14 L-15,13 Z " fill="#D18D81" transform="translate(390,370)"/>
<path d="M0,0 L1,0 L2,8 L2,19 L0,17 L-1,18 L-9,18 L-9,13 L-7,9 L-5,8 L-4,4 Z " fill="#E59A84" transform="translate(643,610)"/>
<path d="M0,0 L5,0 L5,2 L11,2 L11,4 L29,3 L29,4 L20,6 L18,8 L18,6 L12,10 L2,9 L-1,10 L0,6 L3,5 L0,2 Z " fill="#E6988D" transform="translate(571,341)"/>
<path d="M0,0 L1,2 L5,3 L2,6 L0,13 L-7,13 L-12,12 L-10,7 L-10,5 L-6,6 L-4,7 L-4,3 L0,3 Z M-15,12 L-12,12 L-14,17 L-15,17 Z M-16,17 Z " fill="#EBA087" transform="translate(646,570)"/>
<path d="M0,0 L3,0 L3,21 L5,21 L5,0 L6,0 L6,22 L4,22 L3,24 L3,22 L-1,23 L-1,7 Z " fill="#D28E7E" transform="translate(680,426)"/>
<path d="M0,0 L4,2 L2,2 L2,6 L0,6 L0,8 L-2,8 L-2,14 L-4,14 L-4,20 L-6,20 L-6,24 L-10,24 L-10,30 L-11,30 L-13,21 L-19,19 L-19,18 L-11,18 L-9,14 L-7,14 L-7,19 L-5,19 L-6,8 L-5,8 L-5,13 L-3,13 L-4,6 L-1,3 L-1,5 L1,5 Z " fill="#E2937F" transform="translate(672,564)"/>
<path d="M0,0 L6,0 L6,2 L8,2 L8,0 L14,0 L14,2 L34,2 L34,0 L56,0 L56,1 L35,1 L35,3 L56,3 L56,4 L35,4 L34,6 L34,3 L5,4 L5,1 L0,1 Z " fill="#BF7D72" transform="translate(434,356)"/>
<path d="M0,0 L9,0 L3,7 L-9,6 L-16,6 L-19,7 L-20,6 L-29,6 L-30,4 L-8,4 L-8,2 L0,2 Z " fill="#E09184" transform="translate(499,356)"/>
<path d="M0,0 Z M-1,1 Z M-3,2 L-1,2 L1,6 L1,9 L-2,9 L-2,18 L-4,18 L-4,20 L-14,20 L-14,19 L-5,19 L-6,17 L-14,16 L-10,15 L-9,12 L-7,12 L-6,7 Z " fill="#D3937D" transform="translate(602,660)"/>
<path d="M0,0 L5,0 L8,4 L8,11 L7,13 L1,13 L1,11 L-1,10 L1,10 L1,8 L-2,8 L-1,1 Z " fill="#E0907E" transform="translate(653,583)"/>
<path d="M0,0 L1,0 L1,30 L3,30 L3,32 L1,32 L1,44 L3,44 L3,68 L2,68 L2,45 L0,45 L0,68 L-1,68 L-1,30 Z " fill="#1B120F" transform="translate(373,580)"/>
<path d="M0,0 L4,0 L4,2 L6,2 L6,20 L8,20 L8,26 L7,26 L7,21 L5,21 L4,23 L4,21 L2,21 L1,7 L-1,3 L3,3 L3,1 Z " fill="#D1897F" transform="translate(674,342)"/>
<path d="M0,0 L11,0 L12,1 L24,2 L24,3 L12,3 L12,5 L2,5 L2,7 L-20,7 L-20,6 L1,6 Z " fill="#C68974" transform="translate(510,699)"/>
<path d="M0,0 L5,4 L9,3 L9,23 L8,23 L7,7 L4,7 L5,37 L3,37 L3,7 L-1,5 L-3,2 L0,2 Z " fill="#C5836C" transform="translate(371,573)"/>
<path d="M0,0 L1,0 L1,7 L3,7 L3,0 L4,0 L4,7 L7,8 L7,20 L5,20 L5,27 L8,28 L4,28 L4,20 L2,20 L2,8 L0,8 Z " fill="#CD8872" transform="translate(330,498)"/>
<path d="M0,0 L7,0 L2,5 L-2,7 L-3,5 L-4,6 L-10,6 L-12,6 L-16,7 L-16,5 L-20,5 L-20,3 L-14,1 L-12,2 L-2,1 Z " fill="#F39B8E" transform="translate(572,355)"/>
<path d="M0,0 L25,0 L26,4 L24,4 L24,6 L27,7 L23,7 L23,5 L21,6 L12,6 L12,2 L0,1 Z " fill="#DD937F" transform="translate(463,697)"/>
<path d="M0,0 L9,2 L4,6 L-1,8 L-3,10 L-11,10 L-9,6 L-4,4 Z M12,0 L13,2 L9,1 Z " fill="#E1988A" transform="translate(395,374)"/>
<path d="M0,0 L6,0 L6,15 L4,16 L4,19 L0,19 L1,13 Z " fill="#E59B87" transform="translate(675,536)"/>
<path d="M0,0 L1,0 L1,5 L-10,6 L-11,7 L-18,7 L-18,6 L-12,6 L-12,4 L-24,4 L-24,3 L-12,3 L-12,1 Z " fill="#CE887C" transform="translate(538,345)"/>
<path d="M0,0 L2,0 L2,6 L0,12 L-1,17 L1,17 L1,29 L-1,31 L-1,21 L-3,21 L-3,9 Z " fill="#E69D85" transform="translate(345,480)"/>
<path d="M0,0 L1,4 L3,4 L3,12 L1,12 L1,28 L0,28 L0,12 L-2,12 L-2,27 L-3,27 L-3,9 L-2,9 Z " fill="#C88374" transform="translate(685,450)"/>
<path d="M0,0 L1,0 L3,30 L2,32 L1,41 L0,41 L-1,28 Z " fill="#DF967D" transform="translate(378,582)"/>
<path d="M0,0 L3,0 L4,5 L7,8 L7,16 L2,17 L2,8 L0,8 Z " fill="#E49B82" transform="translate(341,538)"/>
<path d="M0,0 L1,3 L7,3 L7,4 L1,4 L1,6 L-11,6 L-11,10 L-19,10 L-19,9 L-12,9 L-12,7 L-19,7 L-15,4 L-12,3 L-12,5 L0,5 L0,3 L-11,3 L-11,2 L0,2 Z " fill="#C38773" transform="translate(581,678)"/>
<path d="M0,0 L2,0 L2,16 L0,16 L0,23 L-2,23 L-3,21 L-3,7 L-2,7 L-2,15 L0,15 Z " fill="#E79988" transform="translate(683,462)"/>
<path d="M0,0 L1,4 L3,5 L1,7 L3,11 L-4,17 L-6,10 L-2,6 Z " fill="#F09F8E" transform="translate(361,404)"/>
<path d="M0,0 L1,2 L5,1 L5,3 L3,3 L3,5 L1,5 L1,3 L-1,3 L0,6 L-5,5 L-5,7 L-3,7 L-3,9 L-5,10 L-6,19 L-7,19 L-7,7 L-9,7 L-9,20 L-10,20 L-10,6 L-6,6 L-6,4 L-2,4 Z " fill="#C38072" transform="translate(356,386)"/>
<path d="M0,0 L1,4 L-1,4 L-1,10 L-5,10 L-5,14 L-9,13 L-6,13 L-6,11 L-8,11 L-9,6 L-6,7 L-5,2 L-2,1 L-2,3 L0,3 Z " fill="#CE8A71" transform="translate(633,632)"/>
<path d="M0,0 L1,2 L4,2 L5,0 L5,2 L25,3 L28,5 L7,5 L-1,3 Z " fill="#E49681" transform="translate(467,692)"/>
<path d="M0,0 L1,0 L1,14 L-2,23 L-5,20 L-3,14 L-6,13 L-4,13 L-4,11 L-2,11 Z " fill="#E99F86" transform="translate(666,541)"/>
<path d="M0,0 L3,0 L4,4 L7,7 L6,19 L4,19 L3,8 L0,7 Z " fill="#E89B82" transform="translate(335,518)"/>
<path d="M0,0 L6,0 L8,2 L12,3 L12,7 L14,7 L14,9 L16,9 L15,13 L14,11 L12,12 L13,8 L10,7 L11,4 L9,4 L8,6 L2,5 L2,3 L0,3 Z " fill="#D1877D" transform="translate(658,329)"/>
<path d="M0,0 L1,0 L1,30 L3,30 L3,32 L1,32 L1,44 L0,44 L-1,30 Z " fill="#31211B" transform="translate(373,580)"/>
<path d="M0,0 L1,0 L1,7 L3,7 L3,0 L5,0 L6,4 L8,5 L8,9 L8,11 L3,10 L0,8 Z " fill="#D58F7A" transform="translate(406,684)"/>
<path d="M0,0 L7,0 L7,2 L4,4 L-1,10 L-6,6 L-6,4 L-1,3 Z " fill="#E6988A" transform="translate(415,361)"/>
<path d="M0,0 L6,1 L3,6 L-3,8 L-6,9 L-8,8 L-8,4 L2,4 L2,2 L0,2 Z " fill="#E49186" transform="translate(615,329)"/>
<path d="M0,0 L12,0 L12,2 L3,4 L-3,5 L-5,4 L-5,2 L0,2 Z " fill="#E69689" transform="translate(514,349)"/>
<path d="M0,0 L3,1 L3,8 L2,8 L1,24 L0,24 L-1,5 Z M-2,12 Z " fill="#DE9383" transform="translate(681,453)"/>
<path d="M0,0 L4,1 L0,4 L0,30 L-2,30 L-2,26 L-4,26 L-4,24 L-2,24 L-2,2 L0,2 Z " fill="#2C1D1A" transform="translate(688,424)"/>
<path d="M0,0 L10,0 L6,2 L0,4 L-1,7 L-3,7 L-3,3 L-7,4 L-7,2 Z " fill="#ED9D8B" transform="translate(387,390)"/>
<path d="M0,0 L1,2 L8,2 L8,4 L-10,4 L-10,2 L-1,1 Z " fill="#DB9481" transform="translate(503,699)"/>
<path d="M0,0 L3,0 L3,8 L-5,8 L-4,4 L-2,4 Z " fill="#DE967E" transform="translate(639,620)"/>
<path d="M0,0 L12,0 L12,1 L1,1 L1,3 L3,3 L1,7 L-2,9 L-2,6 L-5,5 L0,5 L0,3 L-7,3 L-8,6 L-8,2 L0,2 Z " fill="#C17F73" transform="translate(422,358)"/>
<path d="M0,0 L7,0 L7,1 L2,1 L2,3 L8,3 L8,4 L2,4 L2,6 L0,6 L0,10 L-4,9 L-1,9 L-3,5 L-2,1 Z " fill="#CA8A73" transform="translate(604,660)"/>
<path d="M0,0 L4,2 L2,2 L2,6 L0,6 L0,8 L-2,8 L-2,14 L-4,14 L-4,20 L-5,20 L-6,8 L-5,8 L-5,13 L-3,13 L-4,6 L-1,3 L-1,5 L1,5 Z " fill="#BB7C69" transform="translate(672,564)"/>
<path d="M0,0 L2,0 L2,9 L13,9 L13,11 L1,11 L0,10 Z " fill="#EA9D82" transform="translate(345,556)"/>
<path d="M0,0 L10,1 L10,3 L1,3 L1,6 L-7,6 L-7,5 L0,5 L0,3 L-7,3 L-7,2 L0,2 Z " fill="#D8947B" transform="translate(541,694)"/>
<path d="M0,0 L12,1 L12,3 L3,4 L2,7 L-2,7 L-1,2 Z " fill="#E69A80" transform="translate(631,628)"/>
<path d="M0,0 L1,3 L6,2 L6,4 L11,5 L9,18 L8,18 L8,8 L4,6 L4,4 L0,4 Z " fill="#BE7B68" transform="translate(382,660)"/>
<path d="M0,0 L2,0 L2,2 L26,2 L26,3 L0,4 L-8,3 L-8,2 L0,2 Z " fill="#32201C" transform="translate(436,698)"/>
<path d="M0,0 L4,0 L5,6 L3,6 L4,9 L2,9 L2,7 L-8,7 L-8,6 L2,6 L2,4 L-7,4 L-7,3 L2,3 L0,2 Z " fill="#CB8975" transform="translate(402,675)"/>
<path d="M0,0 L6,1 L6,3 L-4,6 L-8,7 L-8,5 L-5,4 L-5,1 Z " fill="#EBA48B" transform="translate(558,672)"/>
<path d="M0,0 L6,0 L5,6 L-3,7 L-3,5 L-1,5 Z " fill="#E59885" transform="translate(647,578)"/>
<path d="M0,0 L2,0 L2,8 L-2,10 L-2,13 L-4,13 L-5,9 L-4,7 L-2,7 L-2,1 Z " fill="#E59A84" transform="translate(675,556)"/>
<path d="M0,0 L2,0 L2,2 L4,2 L4,4 L1,5 L0,8 L-5,7 L-5,4 L-3,4 L-3,2 Z " fill="#E49A81" transform="translate(623,641)"/>
<path d="M0,0 L4,1 L1,1 L1,3 L4,3 L2,7 L2,5 L-1,5 L-1,12 L2,13 L0,13 L-1,16 L-1,13 L-3,13 L-4,16 L-4,12 L-2,12 L-2,4 L0,4 Z " fill="#BF8071" transform="translate(342,406)"/>
<path d="M0,0 L1,0 L1,10 L5,12 L5,16 L1,16 L-1,10 Z M0,11 Z " fill="#1E1310" transform="translate(377,648)"/>
<path d="M0,0 L7,0 L6,2 L8,4 L5,7 L4,4 L0,6 L-2,4 L0,2 Z M3,7 Z " fill="#F59F90" transform="translate(662,387)"/>
<path d="M0,0 L8,0 L7,3 L5,3 L5,5 L-2,5 L-2,1 Z " fill="#E49582" transform="translate(431,694)"/>
<path d="M0,0 L9,0 L8,4 L0,4 Z " fill="#F9AC91" transform="translate(396,452)"/>
<path d="M0,0 L20,0 L20,1 L6,3 L0,1 Z " fill="#DB9082" transform="translate(448,361)"/>
<path d="M0,0 L2,0 L2,5 L-2,5 L-2,7 L3,7 L3,8 L-3,8 L-3,6 L-5,5 L-3,5 L-3,3 L-5,2 Z " fill="#CC8272" transform="translate(657,588)"/>
<path d="M0,0 L2,0 L2,6 L-1,15 L-2,15 L-2,5 Z " fill="#EAA089" transform="translate(345,480)"/>
<path d="M0,0 L1,0 L1,8 L5,10 L4,14 L0,12 L-1,8 Z M0,9 Z " fill="#1C1310" transform="translate(405,684)"/>
<path d="M0,0 Z M-6,0 L0,1 L0,4 L-12,4 L-13,2 Z " fill="#F8AF93" transform="translate(544,662)"/>
<path d="M0,0 L2,1 L1,11 L-5,16 L-6,13 L-2,11 Z " fill="#F59C92" transform="translate(666,371)"/>
<path d="M0,0 L3,2 L3,8 L0,10 L-1,1 Z " fill="#FAA394" transform="translate(664,404)"/>
<path d="M0,0 L3,3 L2,11 L0,11 L-1,4 L-2,1 Z " fill="#EC9F88" transform="translate(407,680)"/>
<path d="M0,0 L1,0 L1,5 L-1,5 L-1,13 L-3,12 L-3,2 Z " fill="#DF9480" transform="translate(647,596)"/>
<path d="M0,0 L8,2 L4,4 L-3,6 Z " fill="#EBA58C" transform="translate(542,677)"/>
<path d="M0,0 L2,0 L0,7 L-2,10 L-4,10 L-3,13 L-5,13 L-4,8 L-3,5 L-1,4 Z " fill="#E29980" transform="translate(639,614)"/>
<path d="M0,0 L5,0 L5,4 L1,4 L1,10 L0,10 L-1,1 Z " fill="#C6806E" transform="translate(661,584)"/>
<path d="M0,0 L1,0 L2,8 L0,14 L-2,11 L-2,7 L0,7 Z " fill="#EDA185" transform="translate(662,513)"/>
<path d="M0,0 L3,0 L3,7 L0,10 Z " fill="#DF917D" transform="translate(332,429)"/>
<path d="M0,0 L5,2 L5,4 L3,4 L3,2 L1,2 L0,8 L-2,7 L-2,1 Z " fill="#E19B84" transform="translate(614,647)"/>
<path d="M0,0 L6,0 L6,1 L1,1 L1,3 L4,4 L3,7 L1,7 L1,5 L-2,6 L-2,4 L0,4 Z " fill="#C38277" transform="translate(408,364)"/>
<path d="M0,0 L2,0 L2,2 L6,3 L0,4 L-10,3 L-10,2 L0,2 Z " fill="#271A16" transform="translate(484,702)"/>
<path d="M0,0 L1,4 L3,5 L-1,7 L-3,6 L-3,3 L-1,3 Z " fill="#F2A08E" transform="translate(383,393)"/>
<path d="M0,0 L1,0 L1,7 L3,7 L3,12 L0,9 L-1,2 Z " fill="#E09085" transform="translate(675,356)"/>
<path d="M0,0 L2,3 L5,4 L5,6 L-1,6 L-2,2 Z " fill="#E5988E" transform="translate(672,339)"/>
<path d="M0,0 L2,0 L2,3 L4,4 L2,8 L-3,1 Z " fill="#E4948A" transform="translate(667,333)"/>
<path d="M0,0 L2,0 L2,6 L1,7 L-4,7 L-4,5 L0,5 Z " fill="#EA9581" transform="translate(659,588)"/>
<path d="M0,0 L2,1 L2,3 L-1,5 L-2,10 L-4,10 L-3,1 Z " fill="#E69389" transform="translate(670,351)"/>
<path d="M0,0 L4,0 L4,2 L2,2 L2,14 L1,14 Z " fill="#261A15" transform="translate(372,610)"/>
<path d="M0,0 L2,0 L2,4 L-4,6 L-3,2 Z " fill="#E69A82" transform="translate(664,564)"/>
<path d="M0,0 L7,0 L6,3 L0,3 Z " fill="#F1A288" transform="translate(358,512)"/>
<path d="M0,0 L2,0 L1,5 L-3,7 L-4,4 L-1,3 Z " fill="#DE9585" transform="translate(350,402)"/>
<path d="M0,0 L2,0 L2,3 L4,3 L5,0 L5,4 L1,4 L0,6 L-1,1 Z " fill="#C3836E" transform="translate(557,688)"/>
<path d="M0,0 L4,2 L2,2 L2,6 L-3,7 L-1,3 L-1,5 L1,5 Z " fill="#C88572" transform="translate(672,564)"/>
<path d="M0,0 L2,0 L2,5 L-4,4 L-4,2 L0,2 Z " fill="#E59684" transform="translate(355,389)"/>
<path d="M0,0 L2,1 L1,7 L-1,5 L-4,6 L-4,4 L0,3 Z " fill="#EFA38D" transform="translate(668,444)"/>
<path d="M0,0 L3,0 L2,8 L-1,6 Z " fill="#F5A691" transform="translate(662,436)"/>
<path d="M0,0 L1,0 L1,6 L-1,6 L-1,4 L-4,5 L-4,3 L-2,3 L-2,1 Z " fill="#CD857B" transform="translate(606,333)"/>
<path d="M0,0 L2,0 L2,4 L-8,3 L-8,2 L0,2 Z " fill="#221613" transform="translate(436,698)"/>
<path d="M0,0 L7,1 L3,3 L-2,2 Z " fill="#EA9F87" transform="translate(505,692)"/>
<path d="M0,0 L3,1 L4,4 L0,6 L-2,4 L0,2 Z " fill="#FAA294" transform="translate(662,387)"/>
<path d="M0,0 Z M-1,1 Z M-3,2 L-1,2 L1,7 L-3,7 Z " fill="#DE997F" transform="translate(602,660)"/>
<path d="M0,0 L2,3 L2,6 L-2,6 L-1,1 Z " fill="#E49B86" transform="translate(677,549)"/>
<path d="M0,0 L2,2 L0,4 L-4,4 L-4,2 Z " fill="#EBA28A" transform="translate(519,690)"/>
<path d="M0,0 L4,0 L4,4 L1,4 Z " fill="#E29479" transform="translate(367,571)"/>
<path d="M0,0 L4,0 L4,6 L2,6 L2,2 L0,2 Z " fill="#201513" transform="translate(684,448)"/>
<path d="M0,0 L2,0 L0,5 L-2,6 L-1,1 Z " fill="#F9A793" transform="translate(662,414)"/>
<path d="M0,0 L5,0 L6,3 L1,3 Z " fill="#E59783" transform="translate(443,689)"/>
<path d="M0,0 L3,3 L-1,4 L-2,1 Z " fill="#E29985" transform="translate(407,680)"/>
<path d="M0,0 L2,1 L2,5 L-1,5 Z " fill="#EAA282" transform="translate(610,619)"/>
<path d="M0,0 L1,0 L1,5 L3,6 L-2,7 L-2,5 L0,5 Z " fill="#D88D79" transform="translate(664,578)"/>
<path d="M0,0 L3,0 L3,4 L0,5 Z " fill="#EBA188" transform="translate(664,480)"/>
<path d="M0,0 L5,0 L5,2 L1,3 L-1,1 Z " fill="#E69E86" transform="translate(598,667)"/>
<path d="M0,0 L4,0 L4,3 L0,3 Z " fill="#FEB49C" transform="translate(528,648)"/>
<path d="M0,0 L3,0 L3,3 L-2,3 L0,2 Z " fill="#EFA48F" transform="translate(503,681)"/>
<path d="M0,0 L2,0 L1,3 L-2,4 L-2,1 Z " fill="#E7A187" transform="translate(590,665)"/>
<path d="M0,0 L2,0 L2,3 L-2,3 L-2,1 Z " fill="#EB9D85" transform="translate(490,415)"/>
<path d="M0,0 L5,0 L2,3 L0,2 Z " fill="#DA8C82" transform="translate(607,335)"/>
<path d="M0,0 L3,1 L2,3 L-2,1 Z " fill="#F5AE92" transform="translate(548,664)"/>
<path d="M0,0 L3,0 L3,3 L0,3 Z " fill="#F4A086" transform="translate(545,428)"/>
<path d="M0,0 L4,1 L4,3 L0,2 Z " fill="#E79C8D" transform="translate(373,379)"/>
<path d="M0,0 L3,1 L0,3 Z " fill="#E29D83" transform="translate(608,647)"/>
<path d="M0,0 L2,0 L1,3 L-1,3 Z " fill="#ECA78B" transform="translate(593,642)"/>
</svg>
