<?xml version="1.0" encoding="UTF-8"?>
<!-- Generator: visioncortex VTracer 0.6.4 -->
<svg version="1.1" xmlns="http://www.w3.org/2000/svg" width="1024" height="1024">
<path d="M0,0 L1024,0 L1024,1024 L0,1024 Z " fill="#000000" transform="translate(0,0)"/>
<path d="M0,0 L30,0 L34,5 L36,6 L36,16 L38,16 L38,20 L42,20 L42,22 L44,22 L44,28 L46,28 L48,31 L54,32 L54,34 L58,34 L58,42 L60,42 L60,48 L62,48 L62,72 L60,72 L60,76 L58,76 L58,84 L56,84 L56,86 L54,86 L54,90 L52,90 L52,92 L50,92 L50,98 L48,98 L48,100 L46,100 L46,108 L44,108 L44,112 L42,112 L42,116 L40,116 L40,120 L38,120 L38,126 L36,126 L36,132 L34,132 L34,144 L32,144 L32,146 L26,146 L26,148 L22,148 L22,150 L14,150 L14,156 L10,160 L14,160 L14,162 L12,162 L12,172 L10,172 L10,176 L12,176 L12,178 L9,180 L8,192 L10,192 L10,200 L14,200 L14,204 L10,204 L10,228 L8,228 L8,234 L6,234 L8,237 L8,240 L6,240 L6,244 L4,244 L4,248 L2,248 L2,254 L0,254 L0,256 L-2,256 L-2,258 L-4,258 L-4,264 L-6,264 L-6,270 L-8,270 L-8,276 L-10,276 L-10,278 L-12,278 L-12,282 L-14,282 L-14,288 L-16,288 L-16,296 L-18,296 L-18,298 L-20,298 L-20,300 L-26,300 L-26,298 L-28,298 L-28,300 L-64,300 L-64,302 L-66,302 L-66,300 L-70,304 L-74,304 L-78,300 L-78,304 L-84,304 L-84,306 L-86,306 L-88,303 L-91,304 L-92,306 L-96,306 L-96,308 L-94,308 L-94,312 L-96,312 L-96,314 L-98,314 L-98,316 L-100,316 L-100,322 L-102,322 L-102,320 L-104,320 L-104,324 L-106,324 L-106,328 L-108,328 L-108,330 L-110,330 L-110,342 L-112,342 L-112,350 L-114,350 L-114,352 L-112,352 L-112,356 L-116,356 L-116,358 L-118,358 L-118,360 L-124,360 L-124,362 L-128,362 L-128,364 L-150,364 L-150,362 L-156,362 L-156,360 L-164,360 L-164,358 L-168,358 L-168,356 L-174,356 L-174,354 L-176,354 L-176,348 L-181,347 L-182,344 L-198,344 L-198,346 L-202,346 L-202,344 L-206,344 L-206,346 L-212,346 L-212,348 L-220,348 L-220,350 L-222,350 L-222,356 L-226,360 L-234,360 L-234,362 L-242,362 L-242,364 L-244,364 L-244,368 L-246,368 L-246,370 L-260,370 L-260,372 L-262,372 L-262,374 L-264,374 L-264,376 L-266,376 L-266,374 L-270,374 L-270,376 L-286,376 L-286,378 L-288,378 L-288,380 L-292,384 L-294,384 L-294,382 L-296,382 L-296,384 L-300,384 L-300,386 L-304,386 L-304,388 L-306,388 L-306,394 L-309,396 L-310,400 L-312,400 L-312,404 L-316,404 L-316,400 L-320,400 L-320,408 L-322,408 L-322,410 L-324,410 L-324,412 L-330,412 L-330,408 L-334,412 L-346,412 L-348,407 L-354,402 L-356,397 L-358,396 L-358,392 L-360,392 L-360,388 L-358,388 L-358,384 L-362,384 L-362,378 L-366,379 L-370,376 L-370,374 L-368,374 L-368,348 L-366,348 L-366,342 L-364,342 L-364,326 L-362,326 L-362,306 L-360,306 L-360,302 L-354,302 L-354,298 L-352,298 L-352,288 L-350,288 L-350,276 L-354,276 L-354,268 L-358,266 L-362,262 L-362,260 L-378,260 L-378,258 L-382,258 L-382,256 L-410,256 L-410,252 L-398,252 L-398,248 L-396,248 L-394,242 L-396,242 L-396,244 L-410,244 L-410,232 L-408,232 L-408,230 L-410,230 L-410,228 L-398,228 L-398,224 L-402,225 L-404,224 L-404,218 L-402,218 L-402,216 L-400,216 L-400,218 L-394,218 L-394,214 L-392,214 L-392,212 L-394,212 L-394,206 L-390,206 L-390,204 L-392,204 L-392,202 L-388,202 L-388,200 L-386,200 L-386,202 L-383,202 L-383,200 L-378,200 L-378,196 L-376,196 L-376,192 L-374,192 L-370,197 L-354,198 L-354,194 L-346,194 L-346,192 L-344,192 L-344,190 L-342,190 L-342,186 L-340,186 L-340,182 L-336,182 L-336,176 L-332,176 L-332,174 L-334,174 L-334,172 L-332,172 L-332,160 L-334,160 L-334,128 L-332,128 L-332,112 L-330,112 L-330,108 L-326,108 L-326,106 L-324,106 L-324,96 L-326,96 L-326,92 L-318,92 L-318,90 L-306,90 L-306,88 L-300,88 L-300,90 L-296,90 L-296,88 L-292,88 L-290,84 L-286,84 L-286,86 L-280,86 L-280,84 L-278,84 L-278,80 L-276,80 L-276,78 L-272,78 L-272,76 L-268,76 L-268,74 L-264,74 L-264,72 L-252,72 L-252,70 L-248,70 L-248,68 L-244,68 L-244,66 L-240,66 L-240,64 L-234,64 L-234,62 L-228,62 L-228,60 L-224,60 L-224,58 L-220,58 L-220,56 L-208,56 L-208,54 L-206,54 L-206,52 L-198,52 L-198,50 L-194,50 L-194,46 L-192,46 L-192,44 L-182,44 L-182,42 L-166,42 L-166,44 L-162,44 L-162,46 L-158,46 L-158,44 L-156,44 L-156,46 L-152,46 L-152,48 L-132,48 L-132,50 L-122,50 L-122,48 L-118,48 L-118,46 L-112,46 L-112,44 L-106,44 L-106,42 L-98,42 L-98,36 L-92,36 L-92,38 L-90,38 L-90,36 L-82,36 L-82,34 L-78,34 L-78,32 L-76,32 L-76,30 L-64,30 L-64,28 L-54,28 L-53,23 L-50,22 L-50,20 L-42,20 L-42,18 L-40,18 L-40,16 L-36,16 L-36,14 L-30,14 L-30,12 L-26,12 L-26,10 L-24,10 L-24,12 L-22,12 L-22,10 L-20,10 L-20,8 L-12,8 L-12,6 L-10,6 L-10,4 L-6,4 L-6,2 L0,2 Z " fill="#8C7FBD" transform="translate(706,288)"/>
<path d="M0,0 L30,0 L34,5 L36,6 L36,16 L35,16 L35,7 L33,7 L33,15 L31,15 L30,8 L20,10 L14,9 L2,9 L2,12 L-11,15 L-20,19 L-33,19 L-33,21 L-38,22 L-38,27 L-42,28 L-42,30 L-54,33 L-63,34 L-68,36 L-69,44 L-74,46 L-74,48 L-77,48 L-78,51 L-83,50 L-92,52 L-92,55 L-94,55 L-93,59 L-96,60 L-97,63 L-98,64 L-98,72 L-103,73 L-105,87 L-105,93 L-98,101 L-99,105 L-101,103 L-102,105 L-104,105 L-105,101 L-106,103 L-108,103 L-107,108 L-115,108 L-118,111 L-118,114 L-120,114 L-121,117 L-123,114 L-126,116 L-122,123 L-117,127 L-114,128 L-113,137 L-112,135 L-108,134 L-107,139 L-105,140 L-104,138 L-104,140 L-102,140 L-101,136 L-96,137 L-97,142 L-85,141 L-75,139 L-74,142 L-63,143 L-63,145 L-55,144 L-54,147 L-54,161 L-55,164 L-60,165 L-59,172 L-54,173 L-52,176 L-52,184 L-50,184 L-51,189 L-55,193 L-56,191 L-62,196 L-64,200 L-62,202 L-62,214 L-65,219 L-74,222 L-77,223 L-79,229 L-81,231 L-82,235 L-86,237 L-86,234 L-94,236 L-118,236 L-120,235 L-129,235 L-133,236 L-134,238 L-138,234 L-140,237 L-141,229 L-144,229 L-143,221 L-148,219 L-151,216 L-153,215 L-153,213 L-156,212 L-156,203 L-155,199 L-155,195 L-159,196 L-162,199 L-162,187 L-164,185 L-166,177 L-169,177 L-172,164 L-172,160 L-178,160 L-178,136 L-176,128 L-169,128 L-169,122 L-167,122 L-167,120 L-162,120 L-163,112 L-164,110 L-163,107 L-168,109 L-169,107 L-176,106 L-176,105 L-168,104 L-167,100 L-169,100 L-168,95 L-165,90 L-166,87 L-170,89 L-174,89 L-174,87 L-176,87 L-176,89 L-178,89 L-178,87 L-184,88 L-187,88 L-188,92 L-194,90 L-193,81 L-193,79 L-194,74 L-193,67 L-190,63 L-194,62 L-197,66 L-202,65 L-214,65 L-218,66 L-218,64 L-225,65 L-234,69 L-236,71 L-234,73 L-239,78 L-240,75 L-244,74 L-247,76 L-245,78 L-254,81 L-255,79 L-262,79 L-268,81 L-277,88 L-280,90 L-288,90 L-293,94 L-296,93 L-296,91 L-306,93 L-306,91 L-317,91 L-317,93 L-315,94 L-320,100 L-317,101 L-319,114 L-321,120 L-324,122 L-324,119 L-327,121 L-329,131 L-330,158 L-328,159 L-331,160 L-330,173 L-334,174 L-334,172 L-332,172 L-332,160 L-334,160 L-334,128 L-332,128 L-332,112 L-330,112 L-330,108 L-326,108 L-326,106 L-324,106 L-324,96 L-326,96 L-326,92 L-318,92 L-318,90 L-306,90 L-306,88 L-300,88 L-300,90 L-296,90 L-296,88 L-292,88 L-290,84 L-286,84 L-286,86 L-280,86 L-280,84 L-278,84 L-278,80 L-276,80 L-276,78 L-272,78 L-272,76 L-268,76 L-268,74 L-264,74 L-264,72 L-252,72 L-252,70 L-248,70 L-248,68 L-244,68 L-244,66 L-240,66 L-240,64 L-234,64 L-234,62 L-228,62 L-228,60 L-224,60 L-224,58 L-220,58 L-220,56 L-208,56 L-208,54 L-206,54 L-206,52 L-198,52 L-198,50 L-194,50 L-194,46 L-192,46 L-192,44 L-182,44 L-182,42 L-166,42 L-166,44 L-162,44 L-162,46 L-158,46 L-158,44 L-156,44 L-156,46 L-152,46 L-152,48 L-132,48 L-132,50 L-122,50 L-122,48 L-118,48 L-118,46 L-112,46 L-112,44 L-106,44 L-106,42 L-98,42 L-98,36 L-92,36 L-92,38 L-90,38 L-90,36 L-82,36 L-82,34 L-78,34 L-78,32 L-76,32 L-76,30 L-64,30 L-64,28 L-54,28 L-53,23 L-50,22 L-50,20 L-42,20 L-42,18 L-40,18 L-40,16 L-36,16 L-36,14 L-30,14 L-30,12 L-26,12 L-26,10 L-24,10 L-24,12 L-22,12 L-22,10 L-20,10 L-20,8 L-12,8 L-12,6 L-10,6 L-10,4 L-6,4 L-6,2 L0,2 Z M-190,61 Z M-239,74 Z M-318,99 Z M-168,109 Z M-169,110 Z M-325,122 Z M-135,238 Z " fill="#8978B8" transform="translate(706,288)"/>
<path d="M0,0 L4,2 L6,5 L10,6 L10,10 L14,12 L18,16 L18,18 L16,18 L16,20 L20,20 L20,22 L16,22 L16,24 L20,24 L20,26 L24,26 L24,28 L28,28 L28,30 L40,30 L40,32 L48,32 L48,34 L60,34 L60,36 L64,36 L64,42 L68,42 L68,44 L72,44 L72,46 L74,46 L74,48 L72,48 L72,52 L74,52 L74,60 L76,60 L76,62 L74,62 L74,64 L76,64 L76,70 L74,70 L74,76 L76,76 L76,78 L72,78 L72,82 L70,82 L70,84 L68,84 L68,86 L70,86 L70,90 L72,90 L72,98 L70,98 L70,100 L68,100 L68,102 L60,102 L60,104 L58,104 L58,106 L54,106 L54,108 L52,108 L52,110 L56,110 L56,112 L54,112 L54,114 L44,114 L44,118 L20,118 L20,116 L6,116 L6,118 L4,118 L4,114 L0,114 L0,106 L-4,104 L-8,100 L-8,98 L-12,98 L-12,94 L-14,94 L-14,90 L-12,90 L-12,88 L-10,88 L-10,82 L-14,80 L-14,78 L-16,78 L-16,72 L-18,72 L-18,70 L-22,70 L-22,62 L-24,62 L-24,58 L-28,58 L-28,50 L-30,50 L-30,46 L-24,46 L-24,38 L-20,36 L-20,34 L-18,34 L-20,30 L-20,26 L-16,26 L-16,14 L-14,14 L-14,12 L-12,12 L-12,6 L-8,6 L-8,2 L0,2 Z " fill="#010102" transform="translate(568,402)"/>
<path d="M0,0 L24,1 L26,15 L29,23 L31,34 L34,39 L35,43 L35,51 L30,65 L29,66 L28,77 L27,78 L26,92 L24,92 L23,99 L18,102 L16,103 L13,108 L10,118 L8,120 L-5,122 L-6,119 L-10,120 L-10,118 L-15,117 L-17,115 L-15,108 L-20,109 L-24,102 L-23,99 L-20,100 L-20,102 L-10,101 L-8,102 L-8,91 L-2,91 L-2,89 L-16,88 L-20,87 L-20,83 L-17,83 L-18,73 L-16,67 L-14,68 L-15,72 L-12,73 L-14,77 L-8,75 L-4,74 L-4,76 L-2,75 L0,71 L2,71 L3,67 L8,65 L11,65 L9,62 L8,57 L8,50 L6,49 L9,49 L9,47 L3,48 L4,51 L1,51 L-2,50 L-2,48 L-4,48 L-4,51 L-8,50 L-8,48 L-6,48 L-4,44 L-3,43 L9,43 L10,36 L1,37 L-12,37 L-14,38 L-18,39 L-18,41 L-14,45 L-13,48 L-10,50 L-12,55 L-19,56 L-22,54 L-22,51 L-19,49 L-24,48 L-24,46 L-28,47 L-33,48 L-39,50 L-39,57 L-39,60 L-44,61 L-47,62 L-48,61 L-48,54 L-46,52 L-46,40 L-45,43 L-40,42 L-40,37 L-50,37 L-57,40 L-57,43 L-55,44 L-57,46 L-61,47 L-63,51 L-63,46 L-70,48 L-72,52 L-76,51 L-80,56 L-81,62 L-82,71 L-82,73 L-74,73 L-74,71 L-71,70 L-67,74 L-67,77 L-66,75 L-60,74 L-58,72 L-56,73 L-55,78 L-46,78 L-43,80 L-42,82 L-38,83 L-30,86 L-30,88 L-28,88 L-28,90 L-24,91 L-23,95 L-26,94 L-26,92 L-39,92 L-44,93 L-47,92 L-48,88 L-64,87 L-66,86 L-63,83 L-64,80 L-69,82 L-71,87 L-72,85 L-74,84 L-71,83 L-74,80 L-87,78 L-88,74 L-90,74 L-90,71 L-88,71 L-88,67 L-86,66 L-85,63 L-83,63 L-83,53 L-78,44 L-71,43 L-69,38 L-67,38 L-67,35 L-69,35 L-66,25 L-64,24 L-63,21 L-48,18 L-41,14 L-39,9 L-38,8 L-20,7 L-13,4 L-12,2 L-1,1 Z M-20,53 Z M-10,49 Z M-38,57 Z M-43,78 Z " fill="#AA9ADA" transform="translate(712,301)"/>
<path d="M0,0 L2,1 L1,11 L13,11 L13,9 L8,9 L12,6 L17,6 L21,11 L21,15 L24,16 L24,19 L30,21 L32,23 L29,23 L29,25 L35,23 L42,24 L42,20 L44,20 L44,23 L60,24 L61,33 L65,37 L64,43 L65,51 L63,60 L65,60 L64,67 L68,68 L73,64 L75,62 L76,59 L79,60 L77,65 L80,66 L78,66 L76,70 L74,70 L74,72 L72,72 L72,75 L65,76 L64,91 L61,96 L59,101 L58,104 L60,106 L58,108 L57,114 L55,114 L55,136 L56,141 L60,143 L65,148 L77,152 L78,154 L81,155 L81,157 L93,158 L95,162 L97,163 L97,167 L99,167 L98,162 L99,149 L101,144 L103,137 L107,131 L115,127 L118,125 L126,124 L134,124 L141,126 L143,126 L144,124 L142,123 L149,123 L158,124 L160,123 L170,123 L171,116 L174,115 L174,111 L182,111 L182,109 L186,105 L186,102 L184,102 L186,96 L190,95 L192,89 L200,87 L200,85 L206,84 L214,84 L218,89 L218,92 L224,92 L221,96 L215,94 L215,89 L209,88 L201,89 L199,92 L200,96 L198,108 L204,107 L210,108 L214,107 L220,107 L226,106 L226,100 L229,101 L230,105 L232,105 L233,109 L242,109 L244,110 L244,115 L248,116 L248,118 L245,120 L245,123 L243,123 L243,125 L246,124 L255,124 L263,127 L280,127 L285,124 L294,122 L295,118 L293,117 L294,109 L296,109 L297,107 L297,109 L299,109 L298,92 L299,83 L299,73 L304,72 L305,74 L310,73 L310,68 L312,68 L313,66 L331,66 L334,67 L335,64 L342,64 L342,67 L346,66 L381,67 L381,65 L358,65 L358,62 L360,61 L386,60 L388,59 L391,49 L394,49 L395,47 L395,49 L397,49 L396,44 L398,38 L399,38 L399,43 L401,43 L400,32 L401,32 L401,37 L403,37 L403,32 L404,32 L404,38 L402,38 L402,44 L400,44 L400,46 L398,46 L398,50 L396,50 L396,56 L394,56 L394,64 L392,64 L392,66 L390,66 L390,68 L384,68 L384,66 L382,66 L382,68 L346,68 L346,70 L344,70 L344,68 L340,72 L336,72 L332,68 L332,72 L326,72 L326,74 L324,74 L322,71 L319,72 L318,74 L314,74 L314,76 L316,76 L316,80 L314,80 L314,82 L312,82 L312,84 L310,84 L310,90 L308,90 L308,88 L306,88 L306,92 L304,92 L304,96 L302,96 L302,98 L300,98 L300,110 L298,110 L298,118 L296,118 L296,120 L298,120 L298,124 L294,124 L294,126 L292,126 L292,128 L286,128 L286,130 L282,130 L282,132 L260,132 L260,130 L254,130 L254,128 L246,128 L246,126 L242,126 L242,124 L236,124 L236,122 L234,122 L234,116 L229,115 L228,112 L212,112 L212,114 L208,114 L208,112 L204,112 L204,114 L198,114 L198,116 L190,116 L190,118 L188,118 L188,124 L184,128 L176,128 L176,130 L168,130 L168,132 L166,132 L166,136 L164,136 L164,138 L150,138 L150,140 L148,140 L148,142 L146,142 L146,144 L144,144 L144,142 L140,142 L140,144 L124,144 L124,146 L122,146 L122,148 L118,152 L116,152 L116,150 L114,150 L114,152 L110,152 L110,154 L106,154 L106,156 L104,156 L104,162 L101,164 L100,168 L98,168 L98,172 L94,172 L94,168 L90,168 L90,176 L88,176 L88,178 L86,178 L86,180 L80,180 L80,176 L76,180 L64,180 L62,175 L56,170 L54,165 L52,164 L52,160 L50,160 L50,156 L52,156 L52,152 L48,152 L48,146 L44,147 L40,144 L40,142 L42,142 L42,116 L44,116 L44,110 L46,110 L46,94 L48,94 L48,74 L50,74 L50,70 L56,70 L56,66 L58,66 L58,56 L60,56 L60,44 L56,44 L56,36 L52,34 L48,30 L48,28 L32,28 L32,26 L28,26 L28,24 L0,24 L0,20 L12,20 L12,16 L14,16 L16,10 L14,10 L14,12 L0,12 Z M22,19 Z M172,117 Z " fill="#8880B7" transform="translate(296,520)"/>
<path d="M0,0 L9,2 L10,5 L12,3 L14,1 L16,3 L20,3 L21,0 L22,3 L24,3 L25,9 L26,9 L26,14 L19,17 L20,21 L18,25 L16,26 L15,29 L13,26 L10,28 L14,35 L19,39 L22,40 L23,49 L24,47 L28,46 L29,51 L31,52 L32,50 L32,52 L34,52 L35,48 L40,49 L39,54 L51,53 L61,51 L62,54 L73,55 L73,57 L81,56 L82,59 L82,73 L81,76 L76,77 L77,84 L82,85 L84,88 L84,96 L86,96 L85,101 L81,105 L80,103 L74,108 L72,112 L74,114 L74,126 L71,131 L62,134 L59,135 L57,141 L55,143 L54,147 L50,149 L50,146 L42,148 L18,148 L16,147 L7,147 L3,148 L2,150 L-2,146 L-4,149 L-5,141 L-8,141 L-7,133 L-12,131 L-15,128 L-17,127 L-17,125 L-20,124 L-20,115 L-19,111 L-19,107 L-23,108 L-26,111 L-26,99 L-28,97 L-30,89 L-33,89 L-36,76 L-36,72 L-42,72 L-42,48 L-40,40 L-33,40 L-33,34 L-31,34 L-31,32 L-26,32 L-27,24 L-28,22 L-26,17 L-19,12 L-14,11 L-13,6 L-6,4 L-3,1 Z M-2,26 L-2,28 L-10,28 L-10,32 L-14,32 L-14,38 L-16,38 L-16,40 L-18,40 L-18,52 L-22,52 L-21,57 L-20,60 L-22,60 L-22,62 L-26,64 L-26,72 L-32,72 L-32,76 L-30,76 L-30,84 L-26,84 L-26,88 L-24,88 L-24,96 L-20,96 L-20,98 L-18,98 L-18,104 L-16,104 L-14,108 L-12,108 L-12,114 L-14,114 L-14,116 L-16,116 L-16,120 L-14,120 L-14,124 L-10,124 L-8,128 L-4,132 L-2,132 L-2,140 L2,140 L2,144 L4,144 L4,142 L18,142 L18,144 L42,144 L42,140 L52,140 L52,138 L54,138 L54,136 L50,136 L50,134 L52,134 L52,132 L56,132 L56,130 L58,130 L58,128 L66,128 L66,126 L68,126 L68,124 L70,124 L70,116 L68,116 L68,112 L66,112 L66,110 L68,110 L68,108 L70,108 L70,104 L74,104 L74,102 L72,102 L72,96 L74,96 L74,90 L72,90 L72,88 L74,88 L74,86 L72,86 L72,78 L70,78 L70,74 L72,74 L72,72 L70,72 L70,70 L66,70 L66,68 L62,68 L62,62 L58,62 L58,60 L46,60 L46,58 L38,58 L38,56 L26,56 L26,54 L22,54 L22,52 L18,52 L18,50 L14,50 L14,48 L18,48 L18,46 L14,46 L14,44 L16,44 L14,40 L10,36 L8,36 L8,32 L3,30 L0,26 Z M1,150 Z " fill="#8068AB" transform="translate(570,376)"/>
<path d="M0,0 L2,0 L2,9 L4,9 L4,22 L7,28 L7,35 L11,37 L14,51 L13,65 L11,65 L9,77 L7,81 L4,84 L1,98 L-1,113 L-3,113 L-3,122 L-10,122 L-10,124 L-12,124 L-14,133 L-16,136 L-26,137 L-26,139 L-31,140 L-33,139 L-33,141 L-39,141 L-39,139 L-49,138 L-48,134 L-51,134 L-51,132 L-55,133 L-56,140 L-58,137 L-59,133 L-57,127 L-53,127 L-49,123 L-42,122 L-36,125 L-33,125 L-32,127 L-19,125 L-16,119 L-14,113 L-11,108 L-5,105 L-3,98 L-1,98 L-1,84 L0,83 L1,72 L6,61 L7,57 L7,49 L4,42 L2,36 L0,25 L-2,21 L-3,7 L-27,7 L-28,8 L-39,8 L-40,11 L-47,14 L-65,15 L-68,21 L-75,25 L-86,27 L-90,27 L-91,31 L-93,31 L-95,39 L-96,41 L-94,41 L-94,44 L-96,44 L-98,49 L-105,51 L-109,59 L-110,69 L-112,69 L-113,73 L-115,73 L-115,77 L-117,77 L-117,80 L-115,80 L-114,82 L-114,88 L-120,90 L-121,88 L-124,90 L-123,96 L-115,97 L-115,101 L-111,101 L-110,108 L-108,107 L-101,107 L-99,100 L-96,101 L-93,105 L-93,107 L-87,106 L-83,107 L-82,109 L-79,110 L-79,112 L-74,113 L-75,120 L-77,124 L-82,124 L-87,121 L-87,119 L-97,119 L-100,117 L-102,118 L-102,116 L-112,116 L-113,114 L-119,113 L-124,108 L-124,102 L-127,101 L-127,99 L-131,99 L-133,93 L-134,90 L-138,88 L-139,86 L-138,73 L-137,66 L-132,65 L-132,56 L-127,52 L-127,48 L-125,48 L-125,45 L-122,43 L-115,42 L-115,44 L-111,43 L-110,41 L-107,41 L-107,39 L-102,37 L-102,29 L-96,26 L-82,24 L-75,23 L-75,21 L-72,20 L-71,15 L-66,14 L-66,12 L-53,11 L-41,6 L-31,5 L-31,2 L-29,1 L-19,1 L-11,2 L-3,1 L-2,8 L0,8 Z " fill="#9481C5" transform="translate(739,295)"/>
<path d="M0,0 L22,0 L30,1 L34,2 L41,2 L42,4 L43,13 L45,18 L47,29 L47,36 L45,41 L40,42 L39,58 L35,61 L30,60 L29,64 L27,66 L26,74 L23,77 L7,77 L7,74 L13,74 L13,72 L-1,71 L-5,70 L-5,66 L-2,66 L-3,56 L-1,50 L1,51 L0,55 L3,56 L1,60 L7,58 L11,57 L11,59 L13,58 L15,54 L17,54 L18,50 L23,48 L26,48 L24,45 L23,40 L23,33 L21,32 L24,32 L24,30 L18,31 L19,34 L16,34 L13,33 L13,31 L11,31 L11,34 L7,33 L7,31 L9,31 L11,27 L12,26 L24,26 L25,19 L16,20 L3,20 L1,21 L-3,22 L-3,24 L1,28 L2,31 L5,33 L3,38 L-4,39 L-7,37 L-7,34 L-4,32 L-9,31 L-9,29 L-13,30 L-18,31 L-24,33 L-24,40 L-24,43 L-29,44 L-32,45 L-33,44 L-33,37 L-31,35 L-31,23 L-30,26 L-25,25 L-25,20 L-33,20 L-33,18 L-26,17 L-23,16 L-21,17 L-19,13 L-17,13 L-17,8 L-11,8 L-11,6 L-2,3 L-2,1 Z M-5,36 Z M5,32 Z M-23,40 Z " fill="#AD90E4" transform="translate(697,318)"/>
<path d="M0,0 L1,4 L5,4 L5,6 L7,6 L7,12 L9,12 L11,15 L17,16 L17,18 L21,18 L21,26 L23,26 L23,32 L25,32 L25,56 L23,56 L23,60 L21,60 L21,68 L19,68 L19,70 L17,70 L17,74 L15,74 L15,76 L13,76 L13,82 L11,82 L11,84 L9,84 L9,92 L7,92 L7,96 L5,96 L5,100 L3,100 L3,104 L1,104 L1,110 L-1,110 L-1,116 L-3,116 L-3,128 L-5,128 L-5,130 L-11,130 L-11,132 L-15,132 L-15,134 L-23,134 L-23,140 L-27,144 L-23,144 L-23,146 L-25,146 L-25,156 L-27,156 L-27,160 L-25,160 L-25,162 L-28,164 L-29,176 L-27,176 L-27,184 L-23,184 L-23,188 L-27,188 L-27,212 L-29,212 L-29,218 L-31,218 L-29,221 L-29,224 L-31,224 L-31,228 L-33,228 L-33,232 L-35,232 L-35,238 L-37,238 L-37,240 L-39,240 L-39,242 L-41,242 L-41,248 L-42,248 L-43,240 L-40,241 L-40,239 L-42,239 L-42,229 L-37,228 L-37,199 L-33,191 L-35,191 L-36,185 L-35,180 L-36,173 L-36,163 L-31,164 L-32,155 L-31,153 L-32,145 L-34,147 L-36,153 L-37,153 L-36,139 L-34,133 L-32,133 L-32,130 L-30,130 L-30,128 L-28,127 L-20,127 L-17,118 L-16,115 L-14,115 L-14,113 L-7,113 L-7,104 L-5,104 L-4,89 L0,73 L3,71 L7,56 L9,56 L9,42 L6,28 L2,26 L2,18 L-1,13 L-1,4 Z M-37,140 Z M-33,156 Z " fill="#896EBA" transform="translate(743,304)"/>
<path d="M0,0 L4,1 L1,1 L1,3 L3,3 L3,5 L0,5 L-2,11 L-5,13 L-14,13 L-15,9 L-23,9 L-23,11 L-16,11 L-18,12 L-18,14 L-22,15 L-24,21 L-30,24 L-39,23 L-46,25 L-52,27 L-52,25 L-49,25 L-48,20 L-52,19 L-59,19 L-62,23 L-64,24 L-66,18 L-75,17 L-80,19 L-81,18 L-86,18 L-88,22 L-84,22 L-84,25 L-87,25 L-87,23 L-96,22 L-110,24 L-114,32 L-120,31 L-132,31 L-136,32 L-136,30 L-143,31 L-152,35 L-154,37 L-152,39 L-157,44 L-158,41 L-162,40 L-165,42 L-163,44 L-172,47 L-173,45 L-180,45 L-186,47 L-195,54 L-198,56 L-206,56 L-211,60 L-214,59 L-214,57 L-224,59 L-224,57 L-235,57 L-235,59 L-233,60 L-238,66 L-235,67 L-237,80 L-239,86 L-242,88 L-242,85 L-245,87 L-247,97 L-248,124 L-246,125 L-249,126 L-248,139 L-252,140 L-252,138 L-250,138 L-250,126 L-252,126 L-252,94 L-250,94 L-250,78 L-248,78 L-248,74 L-244,74 L-244,72 L-242,72 L-242,62 L-244,62 L-244,58 L-236,58 L-236,56 L-224,56 L-224,54 L-218,54 L-218,56 L-214,56 L-214,54 L-210,54 L-208,50 L-204,50 L-204,52 L-198,52 L-198,50 L-196,50 L-196,46 L-194,46 L-194,44 L-190,44 L-190,42 L-186,42 L-186,40 L-182,40 L-182,38 L-170,38 L-170,36 L-166,36 L-166,34 L-162,34 L-162,32 L-158,32 L-158,30 L-152,30 L-152,28 L-146,28 L-146,26 L-142,26 L-142,24 L-138,24 L-138,22 L-126,22 L-126,20 L-124,20 L-124,18 L-116,18 L-116,16 L-112,16 L-112,12 L-110,12 L-110,10 L-100,10 L-100,8 L-84,8 L-84,10 L-80,10 L-80,12 L-76,12 L-76,10 L-74,10 L-74,12 L-70,12 L-70,14 L-50,14 L-50,16 L-40,16 L-40,14 L-36,14 L-36,12 L-30,12 L-30,10 L-24,10 L-24,8 L-16,8 L-16,2 L-10,2 L-10,4 L-8,4 L-8,2 L0,2 Z M-157,40 Z M-236,65 Z M-243,88 Z " fill="#887EAF" transform="translate(624,322)"/>
<path d="M0,0 L1,0 L1,5 L3,5 L3,0 L4,0 L4,6 L2,6 L2,12 L0,12 L0,14 L-2,14 L-2,18 L-4,18 L-4,24 L-6,24 L-6,32 L-8,32 L-8,34 L-10,34 L-10,36 L-16,36 L-16,34 L-18,34 L-18,36 L-54,36 L-54,38 L-56,38 L-56,36 L-60,40 L-64,40 L-68,36 L-68,40 L-74,40 L-74,42 L-76,42 L-78,39 L-81,40 L-82,42 L-86,42 L-86,44 L-84,44 L-84,48 L-86,48 L-86,50 L-88,50 L-88,52 L-90,52 L-90,58 L-92,58 L-92,56 L-94,56 L-94,60 L-96,60 L-96,64 L-98,64 L-98,66 L-100,66 L-100,78 L-102,78 L-102,86 L-104,86 L-104,88 L-102,88 L-102,92 L-106,92 L-106,94 L-108,94 L-108,96 L-114,96 L-114,98 L-118,98 L-118,100 L-140,100 L-140,98 L-146,98 L-146,96 L-154,96 L-154,94 L-158,94 L-158,92 L-164,92 L-164,90 L-166,90 L-166,84 L-171,83 L-172,80 L-188,80 L-188,82 L-192,82 L-192,80 L-196,80 L-196,82 L-202,82 L-202,84 L-210,84 L-210,86 L-212,86 L-212,92 L-216,96 L-224,96 L-224,98 L-232,98 L-232,100 L-234,100 L-234,104 L-236,104 L-236,106 L-250,106 L-250,108 L-252,108 L-252,110 L-254,110 L-254,112 L-256,112 L-256,110 L-260,110 L-260,112 L-276,112 L-276,114 L-278,114 L-278,116 L-281,117 L-282,113 L-282,111 L-279,111 L-279,113 L-277,113 L-278,110 L-261,111 L-261,109 L-276,109 L-276,108 L-268,108 L-268,106 L-253,106 L-251,107 L-252,104 L-239,104 L-250,103 L-250,102 L-238,101 L-236,93 L-226,92 L-224,86 L-222,86 L-222,84 L-218,82 L-215,82 L-214,78 L-210,78 L-210,80 L-204,79 L-204,78 L-197,76 L-190,76 L-186,75 L-180,75 L-174,74 L-174,68 L-171,69 L-170,73 L-168,73 L-167,77 L-158,77 L-156,78 L-156,83 L-152,84 L-152,86 L-155,88 L-155,91 L-157,91 L-157,93 L-154,92 L-145,92 L-137,95 L-120,95 L-115,92 L-106,90 L-105,86 L-107,85 L-106,77 L-104,77 L-103,75 L-103,77 L-101,77 L-102,60 L-101,51 L-101,41 L-96,40 L-95,42 L-90,41 L-90,36 L-88,36 L-87,34 L-69,34 L-66,35 L-65,32 L-58,32 L-58,35 L-54,34 L-19,35 L-19,33 L-42,33 L-42,30 L-40,29 L-14,28 L-12,27 L-9,17 L-6,17 L-5,15 L-5,17 L-3,17 L-4,12 L-2,6 L-1,6 L-1,11 L1,11 Z " fill="#8379AC" transform="translate(696,552)"/>
<path d="M0,0 L8,0 L12,5 L12,8 L18,8 L15,12 L9,10 L9,5 L3,4 L-5,5 L-7,8 L-6,12 L-8,24 L-2,23 L-5,26 L-9,28 L-16,28 L-20,27 L-21,30 L-28,32 L-28,34 L-30,34 L-31,38 L-34,41 L-42,41 L-43,49 L-45,51 L-43,53 L-57,53 L-57,55 L-68,55 L-74,54 L-74,56 L-67,57 L-67,59 L-83,59 L-83,61 L-85,61 L-85,59 L-88,59 L-87,66 L-88,68 L-90,68 L-90,66 L-92,66 L-92,68 L-96,68 L-96,70 L-100,70 L-100,72 L-103,72 L-103,77 L-107,76 L-107,65 L-105,60 L-103,53 L-99,47 L-91,43 L-88,41 L-80,40 L-72,40 L-65,42 L-63,42 L-62,40 L-64,39 L-57,39 L-48,40 L-46,39 L-36,39 L-35,32 L-32,31 L-32,27 L-24,27 L-24,25 L-20,21 L-20,18 L-22,18 L-20,12 L-16,11 L-14,5 L-6,3 L-6,1 Z M-34,33 Z " fill="#847BB1" transform="translate(502,604)"/>
<path d="M0,0 L22,0 L30,1 L34,2 L41,2 L42,4 L43,13 L45,18 L47,29 L47,36 L45,41 L40,42 L39,58 L35,61 L30,60 L30,48 L32,42 L32,37 L33,35 L32,32 L33,26 L37,22 L38,18 L32,19 L30,18 L25,17 L25,7 L12,7 L7,5 L-1,5 L-2,10 L0,10 L0,14 L-3,14 L-3,18 L-5,18 L-5,31 L-9,31 L-9,29 L-13,30 L-18,31 L-24,33 L-24,40 L-24,43 L-29,44 L-32,45 L-33,44 L-33,37 L-31,35 L-31,23 L-30,26 L-25,25 L-25,20 L-33,20 L-33,18 L-26,17 L-23,16 L-21,17 L-19,13 L-17,13 L-17,8 L-11,8 L-11,6 L-2,3 L-2,1 Z M-23,40 Z " fill="#AE9BE1" transform="translate(697,318)"/>
<path d="M0,0 L4,1 L5,3 L3,3 L3,5 L9,4 L15,4 L17,3 L24,5 L26,4 L26,17 L25,20 L20,21 L21,28 L26,29 L28,32 L28,40 L30,40 L29,45 L25,49 L24,47 L18,52 L16,56 L18,58 L18,70 L15,75 L6,78 L3,79 L1,85 L-1,87 L-2,91 L-6,93 L-6,90 L-14,92 L-38,92 L-40,91 L-49,91 L-53,92 L-54,94 L-58,90 L-60,93 L-61,85 L-64,85 L-63,77 L-68,75 L-71,72 L-73,71 L-73,69 L-76,68 L-76,59 L-75,55 L-75,51 L-79,52 L-82,55 L-82,43 L-84,41 L-85,33 L-83,29 L-86,28 L-82,28 L-82,32 L-80,32 L-80,40 L-76,40 L-76,42 L-74,42 L-74,48 L-72,48 L-68,52 L-68,58 L-70,58 L-70,60 L-72,60 L-72,64 L-70,64 L-70,68 L-66,68 L-60,75 L-58,76 L-58,84 L-54,84 L-54,88 L-52,88 L-52,86 L-38,86 L-38,88 L-14,88 L-14,84 L-4,84 L-4,82 L-2,82 L-2,80 L-6,80 L-6,78 L-4,78 L-4,76 L0,76 L0,74 L2,74 L2,72 L10,72 L10,70 L12,70 L12,68 L14,68 L14,60 L12,60 L12,56 L10,56 L10,54 L12,54 L12,52 L14,52 L14,48 L18,48 L18,46 L16,46 L16,40 L18,40 L18,34 L16,34 L16,32 L18,32 L18,30 L16,30 L16,22 L14,22 L14,18 L16,18 L16,16 L14,16 L14,14 L10,14 L10,12 L6,12 L6,6 L2,6 L2,4 L-10,4 L-10,3 L2,3 L2,1 Z M-55,94 Z " fill="#7668A1" transform="translate(626,432)"/>
<path d="M0,0 L2,0 L5,15 L8,20 L9,24 L9,32 L4,46 L3,47 L2,58 L1,59 L0,73 L-2,73 L-3,80 L-8,83 L-10,84 L-13,89 L-16,99 L-18,101 L-31,103 L-32,100 L-36,101 L-36,99 L-41,98 L-43,96 L-41,89 L-46,90 L-50,83 L-49,80 L-46,81 L-46,83 L-36,82 L-34,83 L-34,75 L-18,74 L-16,72 L-15,63 L-12,61 L-11,58 L-6,58 L-3,56 L-2,40 L-1,39 L4,39 L5,34 L4,21 L2,12 L1,11 Z " fill="#A689DC" transform="translate(738,320)"/>
<path d="M0,0 L4,1 L4,12 L8,12 L8,14 L12,14 L12,3 L16,4 L16,8 L18,8 L18,12 L16,12 L16,14 L14,14 L14,16 L12,16 L12,24 L14,24 L14,28 L12,28 L12,32 L9,34 L8,42 L4,42 L4,48 L2,48 L2,46 L-2,46 L-2,48 L-6,48 L-6,50 L-12,50 L-12,52 L-16,52 L-16,50 L-20,50 L-20,46 L-22,46 L-22,48 L-24,48 L-24,46 L-26,46 L-26,48 L-30,46 L-29,41 L-26,40 L-26,42 L-22,42 L-22,38 L-20,38 L-22,34 L-22,30 L-20,30 L-20,24 L-18,24 L-18,22 L-16,22 L-16,16 L-10,16 L-10,24 L-8,24 L-8,12 L-6,12 L-6,10 L-4,10 L-2,6 L0,6 Z " fill="#16071E" transform="translate(808,386)"/>
<path d="M0,0 L4,1 L7,5 L7,12 L11,14 L14,28 L13,42 L11,42 L9,54 L7,58 L4,61 L1,75 L-1,90 L-3,90 L-3,99 L-10,99 L-10,101 L-12,101 L-14,110 L-16,113 L-26,114 L-26,116 L-31,117 L-33,116 L-33,118 L-39,118 L-39,116 L-49,115 L-48,111 L-51,111 L-51,109 L-55,110 L-56,117 L-58,114 L-59,110 L-57,104 L-53,104 L-49,100 L-42,99 L-36,102 L-33,102 L-32,104 L-19,102 L-16,96 L-14,90 L-11,85 L-5,82 L-3,75 L-1,75 L-1,61 L0,60 L1,49 L6,38 L7,34 L7,26 L4,19 L2,13 Z " fill="#9778C5" transform="translate(739,318)"/>
<path d="M0,0 L1,0 L1,16 L3,17 L1,24 L-1,25 L-1,23 L-3,23 L-3,48 L-1,48 L-1,45 L3,46 L9,47 L9,51 L11,51 L11,53 L13,53 L13,55 L17,56 L19,63 L19,71 L22,71 L22,73 L27,71 L30,64 L37,63 L47,64 L49,68 L51,69 L51,73 L53,73 L52,68 L54,66 L57,67 L57,62 L58,62 L58,68 L55,70 L54,74 L52,74 L52,78 L48,78 L48,74 L44,74 L44,82 L42,82 L42,84 L40,84 L40,86 L34,86 L34,82 L30,86 L18,86 L16,81 L10,76 L8,71 L6,70 L6,66 L4,66 L4,62 L6,62 L6,58 L2,58 L2,52 L-2,53 L-6,50 L-6,48 L-4,48 L-4,22 L-2,22 L-2,16 L0,16 Z " fill="#7C73A9" transform="translate(342,614)"/>
<path d="M0,0 L1,0 L1,12 L-1,12 L-1,14 L-7,14 L-7,16 L-11,16 L-11,18 L-19,18 L-19,24 L-23,28 L-19,28 L-19,30 L-21,30 L-21,40 L-23,40 L-23,44 L-21,44 L-21,46 L-24,48 L-25,60 L-23,60 L-23,68 L-19,68 L-19,72 L-23,72 L-23,96 L-25,96 L-25,102 L-27,102 L-25,105 L-25,108 L-27,108 L-27,112 L-29,112 L-29,116 L-31,116 L-31,122 L-33,122 L-33,124 L-35,124 L-35,126 L-37,126 L-37,132 L-38,132 L-39,124 L-36,125 L-36,123 L-38,123 L-38,113 L-33,112 L-33,83 L-29,75 L-31,75 L-32,69 L-31,64 L-32,57 L-32,47 L-27,48 L-28,39 L-27,37 L-28,29 L-30,31 L-32,37 L-33,37 L-32,23 L-30,17 L-28,17 L-28,15 L-24,13 L-15,11 L-12,10 L-3,10 L-2,6 L-1,10 Z M-33,24 Z M-29,40 Z " fill="#846EAF" transform="translate(739,420)"/>
<path d="M0,0 L3,2 L1,6 L2,11 L4,12 L3,16 L-1,17 L-1,15 L-4,17 L-3,23 L5,24 L5,28 L9,28 L10,35 L12,34 L19,34 L21,27 L24,28 L27,32 L27,34 L33,33 L37,34 L38,36 L41,37 L41,39 L46,40 L45,47 L43,51 L38,51 L33,48 L33,46 L23,46 L20,44 L18,45 L18,43 L8,43 L7,41 L1,40 L-4,35 L-4,29 L-7,28 L-7,26 L-11,26 L-13,20 L-14,17 L-18,15 L-19,13 L-18,4 L-15,5 L-15,9 L-5,10 L-2,1 Z " fill="#937DC2" transform="translate(619,368)"/>
<path d="M0,0 L2,1 L1,11 L13,11 L13,9 L8,9 L12,6 L17,6 L21,11 L21,15 L24,16 L24,19 L30,21 L32,23 L29,23 L29,25 L35,23 L42,24 L42,20 L44,20 L44,23 L60,24 L61,33 L65,37 L64,43 L65,51 L63,60 L65,60 L64,67 L67,68 L59,73 L57,73 L57,86 L55,94 L51,94 L51,75 L49,75 L49,94 L48,94 L48,74 L50,74 L50,70 L56,70 L56,66 L58,66 L58,56 L60,56 L60,44 L56,44 L56,36 L52,34 L48,30 L48,28 L32,28 L32,26 L28,26 L28,24 L0,24 L0,20 L12,20 L12,16 L14,16 L16,10 L14,10 L14,12 L0,12 Z M22,19 Z " fill="#7C73AD" transform="translate(296,520)"/>
<path d="M0,0 L30,0 L34,5 L36,6 L36,16 L35,16 L35,7 L33,7 L33,15 L31,15 L30,8 L20,10 L14,9 L2,9 L2,12 L-11,15 L-20,19 L-33,19 L-33,21 L-38,22 L-38,27 L-42,28 L-42,30 L-49,32 L-64,32 L-75,31 L-75,33 L-78,34 L-78,32 L-76,32 L-76,30 L-64,30 L-64,28 L-54,28 L-53,23 L-50,22 L-50,20 L-42,20 L-42,18 L-40,18 L-40,16 L-36,16 L-36,14 L-30,14 L-30,12 L-26,12 L-26,10 L-24,10 L-24,12 L-22,12 L-22,10 L-20,10 L-20,8 L-12,8 L-12,6 L-10,6 L-10,4 L-6,4 L-6,2 L0,2 Z " fill="#8D87B3" transform="translate(706,288)"/>
<path d="M0,0 L24,1 L26,15 L27,19 L24,19 L23,17 L15,17 L10,16 L11,10 L3,9 L-8,9 L-10,13 L-11,14 L-22,16 L-25,14 L-27,16 L-36,17 L-36,19 L-42,21 L-60,24 L-60,35 L-69,35 L-66,25 L-64,24 L-63,21 L-48,18 L-41,14 L-39,9 L-38,8 L-20,7 L-13,4 L-12,2 L-1,1 Z " fill="#9A92C4" transform="translate(712,301)"/>
<path d="M0,0 L6,0 L6,1 L1,1 L1,3 L3,3 L3,5 L0,6 L0,3 L-3,3 L-3,5 L-1,6 L-4,8 L-11,7 L-11,9 L-9,10 L-11,12 L-24,13 L-24,11 L-27,11 L-26,15 L-37,24 L-40,26 L-48,26 L-53,30 L-56,29 L-56,27 L-66,29 L-66,27 L-77,27 L-77,29 L-75,30 L-80,36 L-77,37 L-79,50 L-81,56 L-84,58 L-84,55 L-87,57 L-89,67 L-90,94 L-88,95 L-91,96 L-90,109 L-94,110 L-94,108 L-92,108 L-92,96 L-94,96 L-94,64 L-92,64 L-92,48 L-90,48 L-90,44 L-86,44 L-86,42 L-84,42 L-84,32 L-86,32 L-86,28 L-78,28 L-78,26 L-66,26 L-66,24 L-60,24 L-60,26 L-56,26 L-56,24 L-52,24 L-50,20 L-46,20 L-46,22 L-40,22 L-40,20 L-38,20 L-38,16 L-36,16 L-36,14 L-32,14 L-32,12 L-28,12 L-28,10 L-24,10 L-24,8 L-12,8 L-12,6 L-8,6 L-8,4 L-4,4 L-4,2 L0,2 Z M-78,35 Z M-85,58 Z " fill="#847CAE" transform="translate(466,352)"/>
<path d="M0,0 L6,0 L5,4 L-1,6 L-2,11 L0,12 L-3,13 L-5,17 L-9,16 L-13,21 L-14,27 L-15,36 L-15,38 L-7,38 L-7,36 L-4,35 L0,39 L0,42 L1,40 L7,39 L9,37 L11,38 L12,43 L21,43 L24,45 L25,47 L29,48 L37,51 L37,53 L39,53 L39,55 L43,56 L44,60 L41,59 L41,57 L28,57 L23,58 L20,57 L19,53 L3,52 L1,51 L4,48 L3,45 L-2,47 L-4,52 L-5,50 L-7,49 L-4,48 L-7,45 L-20,43 L-21,39 L-23,39 L-23,36 L-21,36 L-21,32 L-19,31 L-18,28 L-16,28 L-16,18 L-11,9 L-4,8 L-2,3 L0,3 Z M24,43 Z " fill="#A68FE1" transform="translate(645,336)"/>
<path d="M0,0 L1,2 L3,2 L4,0 L5,3 L1,7 L-2,12 L-7,17 L-7,13 L-9,13 L-8,19 L-15,28 L-20,30 L-26,32 L-36,29 L-36,31 L-40,33 L-41,35 L-43,35 L-43,32 L-48,33 L-50,37 L-55,34 L-56,37 L-57,44 L-60,47 L-62,55 L-65,58 L-72,60 L-74,61 L-75,57 L-66,57 L-66,55 L-78,56 L-78,54 L-66,54 L-66,50 L-70,51 L-72,50 L-72,44 L-70,44 L-70,42 L-68,42 L-68,44 L-62,44 L-62,40 L-60,40 L-60,38 L-62,38 L-62,32 L-58,32 L-58,30 L-60,30 L-60,28 L-56,28 L-56,26 L-54,26 L-54,28 L-51,28 L-51,26 L-46,26 L-46,22 L-44,22 L-44,18 L-42,18 L-38,23 L-22,24 L-22,20 L-14,20 L-14,18 L-12,18 L-12,16 L-10,16 L-10,12 L-8,12 L-8,8 L-4,8 L-4,2 L0,2 Z " fill="#8179A9" transform="translate(374,462)"/>
<path d="M0,0 L4,1 L14,2 L21,2 L22,3 L22,13 L24,14 L25,19 L23,21 L23,29 L23,32 L22,42 L20,41 L19,36 L19,29 L17,28 L20,28 L20,26 L14,27 L15,30 L12,30 L9,29 L9,27 L7,27 L7,30 L3,29 L3,27 L5,27 L7,23 L8,22 L20,22 L21,15 L12,16 L-1,16 L-3,17 L-7,18 L-7,20 L-3,24 L-2,27 L1,29 L-1,34 L-8,35 L-11,33 L-11,30 L-8,28 L-9,26 L-9,14 L-7,14 L-7,10 L-4,10 L-4,6 L-6,6 L-7,3 L-5,3 L-5,1 Z M-9,32 Z M1,28 Z " fill="#B498EE" transform="translate(701,322)"/>
<path d="M0,0 L4,1 L1,1 L1,3 L3,3 L3,5 L0,5 L-2,11 L-5,13 L-14,13 L-15,9 L-23,9 L-23,11 L-16,11 L-18,12 L-18,14 L-22,15 L-24,21 L-30,24 L-39,23 L-46,25 L-52,27 L-52,25 L-49,25 L-48,20 L-52,19 L-59,19 L-62,23 L-64,24 L-66,18 L-73,17 L-73,15 L-71,15 L-71,13 L-76,14 L-80,13 L-81,16 L-81,14 L-83,13 L-81,13 L-81,11 L-84,10 L-80,10 L-80,12 L-76,12 L-76,10 L-74,10 L-74,12 L-70,12 L-70,14 L-50,14 L-50,16 L-40,16 L-40,14 L-36,14 L-36,12 L-30,12 L-30,10 L-24,10 L-24,8 L-16,8 L-16,2 L-10,2 L-10,4 L-8,4 L-8,2 L0,2 Z " fill="#8577AD" transform="translate(624,322)"/>
<path d="M0,0 L1,0 L1,5 L3,5 L3,0 L4,0 L4,6 L2,6 L2,12 L0,12 L0,14 L-2,14 L-2,18 L-4,18 L-4,24 L-6,24 L-6,32 L-8,32 L-8,34 L-10,34 L-10,36 L-16,36 L-16,34 L-18,34 L-18,36 L-54,36 L-54,38 L-56,38 L-56,36 L-60,40 L-64,40 L-68,36 L-68,40 L-74,40 L-74,42 L-76,42 L-78,39 L-81,40 L-82,42 L-86,42 L-86,44 L-84,44 L-84,48 L-86,48 L-86,50 L-88,50 L-88,52 L-90,52 L-90,58 L-92,58 L-92,49 L-90,45 L-91,42 L-90,37 L-88,36 L-87,34 L-69,34 L-66,35 L-65,32 L-58,32 L-58,35 L-54,34 L-19,35 L-19,33 L-42,33 L-42,30 L-40,29 L-14,28 L-12,27 L-9,17 L-6,17 L-5,15 L-5,17 L-3,17 L-4,12 L-2,6 L-1,6 L-1,11 L1,11 Z " fill="#8370AE" transform="translate(696,552)"/>
<path d="M0,0 L2,2 L2,5 L-4,5 L-6,15 L-9,17 L-37,18 L-37,21 L-14,21 L-14,23 L-53,23 L-55,21 L-60,21 L-61,23 L-82,23 L-83,22 L-83,15 L-78,13 L-69,13 L-63,14 L-39,14 L-38,13 L-11,14 L-11,11 L-7,10 L-7,4 L-6,2 L-1,1 Z " fill="#8372B2" transform="translate(691,564)"/>
<path d="M0,0 L2,0 L2,19 L6,19 L7,17 L7,26 L5,28 L2,27 L3,31 L1,39 L0,49 L0,64 L7,64 L7,66 L11,68 L16,73 L28,77 L29,79 L32,80 L32,82 L27,84 L25,90 L23,92 L19,92 L19,90 L16,90 L15,86 L14,75 L10,74 L10,72 L8,72 L8,70 L6,70 L5,67 L0,66 L-4,64 L-4,67 L-6,67 L-6,42 L-2,42 L-1,36 L-2,35 L-2,19 L0,19 Z " fill="#847EAF" transform="translate(345,595)"/>
<path d="M0,0 L3,1 L3,9 L6,9 L6,11 L11,9 L14,2 L21,1 L31,2 L33,6 L35,7 L35,11 L37,11 L36,6 L38,4 L41,5 L41,0 L42,0 L42,6 L39,8 L38,12 L36,12 L36,16 L32,16 L32,12 L28,12 L28,20 L26,20 L26,22 L24,22 L24,24 L18,24 L18,19 L6,17 L2,15 L2,11 L-1,10 L-2,2 L0,2 Z " fill="#8077AF" transform="translate(358,676)"/>
<path d="M0,0 L4,0 L4,8 L6,8 L6,14 L8,14 L8,38 L6,38 L6,42 L4,42 L4,50 L2,50 L2,52 L0,52 L0,56 L-2,56 L-2,58 L-4,58 L-4,64 L-6,64 L-6,66 L-8,66 L-8,74 L-10,74 L-10,78 L-12,78 L-12,82 L-14,82 L-14,86 L-16,86 L-16,92 L-18,92 L-18,98 L-19,98 L-20,92 L-20,82 L-17,73 L-14,66 L-11,65 L-10,56 L-8,45 L-6,45 L-6,51 L-4,51 L-4,45 L1,40 L3,38 L3,41 L5,41 L4,38 L4,14 L5,9 L3,9 L2,11 L0,9 L0,3 L1,3 L1,8 L3,8 L3,1 Z " fill="#8365B1" transform="translate(760,322)"/>
<path d="M0,0 L2,2 L2,4 L6,2 L6,11 L2,13 L0,24 L0,30 L0,33 L1,45 L6,45 L10,46 L18,45 L18,41 L20,41 L20,43 L22,43 L23,39 L24,41 L28,40 L27,49 L28,53 L27,55 L14,54 L2,50 L-1,45 L-5,42 L-7,34 L-7,17 L-2,16 Z " fill="#918ABF" transform="translate(360,618)"/>
<path d="M0,0 L2,0 L3,2 L4,11 L6,16 L8,27 L8,34 L6,39 L1,40 L0,56 L-4,59 L-9,58 L-9,46 L-7,40 L-7,35 L-6,33 L-7,30 L-5,25 L-1,24 L0,16 L-1,14 Z " fill="#A98EDC" transform="translate(736,320)"/>
<path d="M0,0 L1,0 L1,6 L-1,6 L-2,13 L-7,16 L-9,17 L-12,22 L-15,32 L-17,34 L-30,36 L-31,33 L-35,34 L-35,32 L-40,31 L-42,29 L-40,22 L-45,23 L-48,16 L-46,16 L-46,18 L-39,19 L-37,24 L-34,24 L-33,23 L-23,23 L-23,21 L-18,21 L-15,15 L-13,8 L-3,7 Z " fill="#9D80D7" transform="translate(737,387)"/>
<path d="M0,0 L4,1 L5,3 L3,3 L3,5 L9,4 L15,4 L17,3 L24,5 L26,4 L26,17 L25,20 L20,21 L21,28 L24,29 L22,29 L22,31 L25,32 L25,44 L22,43 L21,46 L19,46 L18,48 L18,46 L16,46 L16,40 L18,40 L18,34 L16,34 L16,32 L18,32 L18,30 L16,30 L16,22 L14,22 L14,18 L16,18 L16,16 L14,16 L14,14 L10,14 L10,12 L6,12 L6,6 L2,6 L2,4 L-10,4 L-10,3 L2,3 L2,1 Z " fill="#7867A5" transform="translate(626,432)"/>
<path d="M0,0 L4,0 L4,4 L8,4 L9,11 L11,10 L18,10 L20,3 L23,4 L26,8 L26,10 L32,9 L36,10 L37,12 L40,13 L40,15 L45,16 L44,23 L42,27 L37,27 L32,23 L32,19 L23,19 L20,18 L20,16 L12,16 L8,15 L8,12 L4,12 L3,10 L0,10 Z " fill="#947FC8" transform="translate(620,392)"/>
<path d="M0,0 L4,1 L5,2 L7,0 L7,9 L0,9 L0,11 L-2,11 L-4,20 L-6,23 L-16,24 L-16,26 L-21,27 L-23,26 L-23,28 L-29,28 L-29,26 L-39,25 L-38,21 L-41,21 L-41,19 L-45,20 L-46,27 L-48,24 L-49,20 L-47,14 L-43,14 L-39,10 L-32,12 L-31,15 L-29,16 L-29,19 L-26,19 L-26,21 L-15,21 L-10,20 L-9,15 L-7,15 L-6,10 L-2,9 L-2,2 Z " fill="#9175CA" transform="translate(729,408)"/>
<path d="M0,0 L2,0 L2,4 L4,4 L4,8 L6,8 L6,4 L8,4 L8,10 L6,10 L6,12 L8,12 L8,62 L10,62 L10,64 L4,64 L4,61 L1,63 L0,72 L2,72 L2,75 L0,75 L-2,72 L-2,62 L2,58 L4,58 L4,46 L6,46 L6,40 L4,40 L4,30 L0,30 L0,28 L-2,28 L-2,12 L0,12 L0,10 L-2,10 L-2,4 L0,4 Z " fill="#180B24" transform="translate(816,322)"/>
<path d="M0,0 L2,0 L2,9 L4,9 L4,24 L-1,23 L-3,14 L-3,7 L-27,7 L-28,8 L-39,8 L-40,11 L-47,14 L-65,15 L-68,21 L-75,25 L-88,27 L-87,25 L-80,23 L-75,23 L-75,21 L-72,20 L-71,15 L-66,14 L-66,12 L-53,11 L-41,6 L-31,5 L-31,2 L-29,1 L-19,1 L-11,2 L-3,1 L-2,8 L0,8 Z " fill="#938DBB" transform="translate(739,295)"/>
<path d="M0,0 L0,3 L0,5 L2,5 L2,9 L-1,9 L-1,13 L-3,13 L-3,26 L-7,26 L-7,24 L-11,25 L-16,26 L-22,28 L-22,35 L-22,38 L-27,39 L-30,40 L-31,39 L-31,32 L-29,30 L-29,18 L-28,21 L-23,20 L-22,15 L-17,14 L-9,14 L-4,8 L-3,1 Z M-21,35 Z " fill="#B49EEB" transform="translate(695,323)"/>
<path d="M0,0 L2,0 L2,4 L4,4 L4,12 L1,13 L-4,12 L-6,16 L-7,18 L-4,18 L-5,22 L-8,23 L-18,22 L-24,18 L-26,8 L-24,2 L-22,3 L-23,7 L-20,8 L-22,12 L-16,10 L-12,9 L-12,11 L-10,10 L-8,6 L-6,6 L-5,2 Z " fill="#B497EB" transform="translate(720,366)"/>
<path d="M0,0 L5,1 L6,3 L1,3 L0,8 L-6,16 L-9,17 L-11,17 L-13,32 L-15,42 L-19,43 L-19,60 L-16,69 L-13,71 L-14,73 L-21,69 L-23,63 L-23,48 L-22,42 L-20,42 L-20,36 L-18,34 L-20,30 L-18,28 L-15,21 L-14,19 L-13,4 L-12,3 L-4,2 Z M-9,14 Z " fill="#8D86BA" transform="translate(373,592)"/>
<path d="M0,0 L13,0 L16,2 L15,8 L28,8 L29,11 L21,12 L20,11 L12,10 L-10,10 L-15,12 L-43,15 L-49,15 L-45,13 L-35,11 L-31,11 L-31,9 L-22,7 L-20,5 L-15,7 L-6,5 L-3,1 Z " fill="#A699D3" transform="translate(707,309)"/>
<path d="M0,0 L6,0 L6,1 L1,1 L1,3 L3,3 L3,5 L0,6 L0,3 L-3,3 L-3,5 L-1,6 L-4,8 L-11,7 L-11,9 L-9,10 L-11,12 L-24,13 L-24,11 L-27,11 L-26,15 L-37,24 L-40,26 L-48,26 L-53,30 L-56,29 L-56,27 L-66,29 L-66,27 L-77,27 L-77,29 L-75,30 L-80,34 L-78,29 L-85,29 L-84,32 L-86,32 L-86,28 L-78,28 L-78,26 L-66,26 L-66,24 L-60,24 L-60,26 L-56,26 L-56,24 L-52,24 L-50,20 L-46,20 L-46,22 L-40,22 L-40,20 L-38,20 L-38,16 L-36,16 L-36,14 L-32,14 L-32,12 L-28,12 L-28,10 L-24,10 L-24,8 L-12,8 L-12,6 L-8,6 L-8,4 L-4,4 L-4,2 L0,2 Z " fill="#736A9A" transform="translate(466,352)"/>
<path d="M0,0 L10,0 L13,3 L23,3 L23,5 L25,5 L25,8 L28,8 L29,11 L32,13 L31,19 L29,19 L29,21 L33,22 L49,23 L49,24 L32,24 L24,21 L12,21 L14,15 L17,14 L17,12 L13,11 L13,6 L2,5 Z " fill="#897AB1" transform="translate(527,624)"/>
<path d="M0,0 L2,2 L0,6 L-1,12 L1,12 L0,24 L2,24 L2,26 L0,27 L0,33 L-2,33 L-2,38 L-4,39 L-4,44 L-6,44 L-7,41 L-9,45 L-10,37 L-9,36 L-9,15 L-12,16 L-13,11 L-9,6 L-3,1 Z " fill="#8774B3" transform="translate(701,519)"/>
<path d="M0,0 L4,0 L4,29 L2,34 L-5,33 L-5,29 L-7,29 L-7,31 L-9,31 L-9,29 L-11,29 L-11,31 L-15,29 L-14,24 L-11,23 L-11,25 L-7,25 L-7,21 L-5,21 L-7,17 L-7,13 L-5,13 L-5,7 L-3,7 L-3,5 L0,5 Z " fill="#1A0D33" transform="translate(793,403)"/>
<path d="M0,0 L2,2 L2,10 L9,9 L8,13 L10,29 L15,30 L15,52 L10,57 L8,57 L8,66 L6,71 L3,73 L-1,93 L-3,93 L-3,85 L1,69 L4,67 L8,52 L10,52 L10,38 L7,24 L3,22 L3,14 L0,9 Z " fill="#8F73BF" transform="translate(742,308)"/>
<path d="M0,0 L2,0 L3,2 L3,12 L1,12 L2,21 L0,31 L-8,37 L-10,39 L-12,38 L-11,17 L-15,17 L-15,22 L-16,22 L-16,16 L-10,16 L-10,24 L-8,24 L-8,12 L-6,12 L-6,10 L-4,10 L-2,6 L0,6 Z " fill="#1E0B26" transform="translate(808,386)"/>
<path d="M0,0 L4,1 L14,2 L21,2 L22,3 L22,14 L-7,14 L-7,10 L-4,10 L-4,6 L-6,6 L-7,3 L-5,3 L-5,1 Z " fill="#B9A3EC" transform="translate(701,322)"/>
<path d="M0,0 L1,4 L5,4 L5,6 L7,6 L7,12 L9,12 L11,15 L17,16 L17,19 L20,19 L20,26 L18,27 L22,27 L22,59 L18,59 L15,63 L13,63 L13,69 L11,69 L11,62 L15,61 L15,57 L17,57 L17,55 L19,55 L19,36 L18,33 L14,33 L14,29 L9,28 L6,15 L6,14 L1,14 Z " fill="#846BB4" transform="translate(743,304)"/>
<path d="M0,0 L4,0 L6,3 L8,14 L5,14 L4,12 L-4,12 L-9,11 L-8,5 L-16,4 L-27,4 L-29,8 L-30,9 L-41,11 L-44,9 L-46,11 L-55,12 L-53,11 L-52,7 L-45,4 L-15,1 L-5,2 L-1,4 Z " fill="#A197CD" transform="translate(731,306)"/>
<path d="M0,0 L4,0 L4,2 L10,2 L10,4 L12,4 L12,12 L10,12 L10,14 L8,14 L8,18 L6,18 L6,20 L2,20 L2,18 L0,18 L0,14 L-4,12 L-4,10 L-10,10 L-10,12 L-12,12 L-12,14 L-14,14 L-14,4 L-2,4 Z " fill="#05191C" transform="translate(456,262)"/>
<path d="M0,0 L6,0 L5,4 L-1,6 L-2,11 L0,12 L-3,13 L-5,17 L-9,16 L-13,21 L-14,27 L-15,36 L-15,38 L-6,38 L-4,43 L1,45 L-2,47 L-4,52 L-5,50 L-7,49 L-4,48 L-7,45 L-20,43 L-21,39 L-23,39 L-23,36 L-21,36 L-21,32 L-19,31 L-18,28 L-16,28 L-16,18 L-11,9 L-4,8 L-2,3 L0,3 Z " fill="#9C86D8" transform="translate(645,336)"/>
<path d="M0,0 L1,2 L3,2 L4,0 L5,3 L1,7 L-2,12 L-7,17 L-7,13 L-9,13 L-8,19 L-15,28 L-20,30 L-26,32 L-36,29 L-36,31 L-40,33 L-41,35 L-43,35 L-43,32 L-46,31 L-42,27 L-38,25 L-18,25 L-16,24 L-21,23 L-21,21 L-14,21 L-14,18 L-12,18 L-12,16 L-10,16 L-10,12 L-8,12 L-8,8 L-4,8 L-4,2 L0,2 Z " fill="#8077AD" transform="translate(374,462)"/>
<path d="M0,0 L8,0 L8,3 L12,2 L48,3 L48,4 L12,4 L12,6 L10,6 L10,4 L6,8 L2,8 L-2,4 L-2,8 L-8,8 L-8,10 L-10,10 L-12,7 L-15,8 L-16,10 L-20,10 L-20,12 L-18,12 L-18,16 L-20,16 L-20,18 L-22,18 L-22,20 L-24,20 L-24,26 L-26,26 L-26,17 L-24,13 L-25,10 L-24,5 L-22,4 L-21,2 L-3,2 L0,3 Z " fill="#7666A4" transform="translate(630,584)"/>
<path d="M0,0 L8,0 L6,2 L-1,4 L-1,11 L-9,18 L-14,19 L-14,23 L-19,23 L-20,28 L-23,30 L-29,30 L-32,33 L-32,35 L-35,36 L-36,30 L-31,26 L-31,22 L-29,22 L-29,19 L-26,17 L-19,16 L-19,18 L-15,17 L-14,15 L-11,15 L-11,13 L-6,11 L-6,3 Z " fill="#9182BB" transform="translate(643,321)"/>
<path d="M0,0 L2,1 L1,11 L13,11 L13,9 L8,9 L12,6 L17,6 L21,11 L21,15 L24,16 L24,19 L30,21 L32,23 L29,23 L29,25 L35,23 L35,25 L33,25 L33,27 L48,27 L48,28 L32,28 L32,26 L28,26 L28,24 L0,24 L0,20 L12,20 L12,16 L14,16 L16,10 L14,10 L14,12 L0,12 Z M22,19 Z " fill="#655E8A" transform="translate(296,520)"/>
<path d="M0,0 L5,1 L4,6 L16,5 L26,3 L27,6 L38,7 L38,9 L46,8 L47,12 L45,15 L45,13 L37,12 L36,13 L24,13 L23,9 L23,11 L11,11 L3,10 L3,7 L-8,7 L-8,5 L-4,5 L-3,2 L-3,4 L-1,4 Z " fill="#806EAF" transform="translate(605,424)"/>
<path d="M0,0 L8,0 L8,1 L1,1 L1,3 L9,3 L9,5 L-4,6 L-9,5 L-9,7 L-7,7 L-8,10 L-16,10 L-19,9 L-19,11 L-21,11 L-19,15 L-21,15 L-22,22 L-29,24 L-44,24 L-55,23 L-55,25 L-58,26 L-58,24 L-56,24 L-56,22 L-44,22 L-44,20 L-34,20 L-33,15 L-30,14 L-30,12 L-22,12 L-22,10 L-20,10 L-20,8 L-16,8 L-16,6 L-10,6 L-10,4 L-6,4 L-6,2 L-4,2 L-4,4 L-2,4 L-2,2 L0,2 Z " fill="#8179A8" transform="translate(686,296)"/>
<path d="M0,0 L1,0 L1,12 L3,12 L3,20 L7,20 L7,24 L3,24 L3,48 L1,48 L1,54 L-1,54 L1,57 L1,60 L-1,60 L-1,64 L-3,64 L-3,68 L-5,68 L-5,74 L-7,74 L-7,76 L-9,76 L-9,78 L-11,78 L-11,84 L-12,84 L-13,76 L-10,77 L-10,75 L-12,75 L-12,65 L-7,64 L-6,54 L-4,52 L-2,48 L-2,53 L0,53 L-1,48 L-1,24 L0,24 L0,47 L2,47 L1,21 L2,13 L0,13 L0,21 L-1,21 L-1,13 L-3,12 L0,12 Z " fill="#7D69A7" transform="translate(713,468)"/>
<path d="M0,0 L4,0 L3,3 L1,3 L-1,11 L-2,13 L0,13 L0,16 L-2,16 L-4,21 L-11,23 L-15,31 L-16,41 L-18,41 L-19,45 L-21,45 L-21,49 L-23,49 L-23,52 L-21,52 L-20,54 L-20,60 L-22,61 L-22,57 L-26,55 L-26,50 L-24,47 L-26,44 L-23,41 L-21,41 L-21,31 L-20,29 L-17,29 L-15,21 L-11,20 L-8,13 L-4,9 L-3,2 Z M-27,45 Z " fill="#9885CF" transform="translate(645,323)"/>
<path d="M0,0 L13,0 L11,4 L10,5 L10,17 L9,30 L9,41 L4,41 L4,49 L5,52 L2,55 L-1,56 L0,43 L2,40 L3,32 L3,25 L5,23 L6,16 L6,5 L2,4 L1,7 Z " fill="#8674B4" transform="translate(586,588)"/>
<path d="M0,0 L4,1 L1,1 L1,3 L3,3 L3,5 L0,5 L-2,11 L-5,13 L-14,13 L-15,9 L-23,9 L-23,11 L-16,11 L-16,12 L-23,12 L-23,15 L-36,17 L-36,15 L-40,14 L-36,14 L-36,12 L-30,12 L-30,10 L-24,10 L-24,8 L-16,8 L-16,2 L-10,2 L-10,4 L-8,4 L-8,2 L0,2 Z " fill="#8075A3" transform="translate(624,322)"/>
<path d="M0,0 L1,4 L4,3 L9,4 L13,4 L11,8 L8,11 L2,12 L1,16 L-6,19 L-9,22 L-11,22 L-12,25 L-16,26 L-15,19 L-12,15 L-11,11 L-5,9 L-4,3 Z M-17,26 Z M-18,27 Z " fill="#8871B3" transform="translate(555,371)"/>
<path d="M0,0 L2,0 L4,3 L5,12 L10,17 L11,19 L11,41 L6,49 L5,56 L3,56 L2,61 L0,69 L-1,69 L-1,61 L0,60 L1,49 L6,38 L7,34 L7,26 L4,19 L2,13 Z " fill="#9F7FCF" transform="translate(739,318)"/>
<path d="M0,0 L6,0 L6,8 L4,10 L8,17 L13,21 L16,22 L17,31 L18,29 L22,28 L23,33 L25,35 L21,35 L21,37 L32,37 L32,38 L20,38 L20,36 L16,36 L16,34 L12,34 L12,32 L8,32 L8,30 L12,30 L12,28 L8,28 L8,26 L10,26 L4,19 L2,18 L2,14 L-3,13 L-5,9 L-1,8 L-3,9 L-3,11 L0,8 L2,8 L3,1 L0,2 Z " fill="#7C61A4" transform="translate(576,394)"/>
<path d="M0,0 L2,0 L2,2 L8,2 L8,6 L10,6 L10,12 L8,12 L8,14 L10,14 L10,18 L8,18 L8,20 L10,20 L10,26 L6,25 L4,24 L4,20 L2,20 L2,18 L0,18 L0,12 L-2,12 L-2,8 L-6,8 L-6,2 L-1,1 Z " fill="#1E0822" transform="translate(802,292)"/>
<path d="M0,0 L4,1 L6,0 L9,4 L7,6 L6,12 L4,12 L4,34 L5,37 L-2,37 L-3,35 L-3,22 L-2,12 L0,2 Z " fill="#8983B2" transform="translate(347,622)"/>
<path d="M0,0 L2,2 L2,5 L-4,5 L-6,15 L-9,17 L-65,17 L-79,15 L-78,13 L-69,13 L-63,14 L-39,14 L-38,13 L-11,14 L-11,11 L-7,10 L-7,4 L-6,2 L-1,1 Z " fill="#8675B3" transform="translate(691,564)"/>
<path d="M0,0 L1,3 L1,7 L3,7 L3,32 L-1,35 L-6,34 L-6,22 L-4,16 L-4,11 L-3,9 L-4,6 L-2,1 Z " fill="#A98CE4" transform="translate(733,344)"/>
<path d="M0,0 L3,1 L3,3 L13,2 L19,2 L25,1 L33,0 L34,3 L30,9 L25,8 L25,10 L15,11 L12,13 L9,10 L8,7 L4,6 L2,5 L2,3 L-1,3 Z " fill="#A385DD" transform="translate(689,400)"/>
<path d="M0,0 L7,2 L17,6 L20,7 L21,9 L24,10 L24,12 L19,14 L17,20 L15,22 L11,22 L11,20 L8,20 L7,16 L6,5 L2,4 L2,2 L0,2 Z " fill="#857BB3" transform="translate(353,665)"/>
<path d="M0,0 L3,1 L2,8 L5,9 L-3,14 L-5,14 L-5,27 L-7,35 L-11,35 L-11,16 L-13,16 L-13,35 L-14,35 L-14,15 L-12,15 L-12,11 L-5,11 L-5,8 L-1,8 Z " fill="#8179AE" transform="translate(358,579)"/>
<path d="M0,0 L2,0 L2,2 L6,0 L6,3 L9,3 L9,10 L21,10 L22,5 L27,1 L28,1 L28,9 L27,11 L19,14 L2,14 L-2,12 L-2,10 L0,10 L0,4 L-2,2 Z " fill="#8E7EB5" transform="translate(558,633)"/>
<path d="M0,0 L16,0 L16,1 L1,1 L1,3 L13,3 L15,5 L13,6 L12,9 L8,9 L8,7 L-6,9 L-11,10 L-15,9 L-15,11 L-13,12 L-15,12 L-15,14 L-26,14 L-26,12 L-24,12 L-24,10 L-16,10 L-16,8 L-12,8 L-12,4 L-10,4 L-10,2 L0,2 Z " fill="#79719F" transform="translate(524,330)"/>
<path d="M0,0 L3,1 L4,5 L6,5 L7,9 L16,9 L18,10 L18,15 L22,16 L22,18 L19,20 L19,23 L17,23 L16,25 L10,24 L10,22 L8,22 L8,15 L5,14 L4,13 L3,11 L5,11 L5,7 L1,7 Z " fill="#8474B0" transform="translate(522,620)"/>
<path d="M0,0 L4,0 L4,8 L6,8 L6,14 L8,14 L8,38 L6,38 L6,42 L4,42 L4,50 L2,50 L2,52 L0,52 L0,56 L-2,56 L-3,58 L-3,56 L-5,55 L-1,55 L-2,52 L-2,44 L2,38 L3,41 L5,41 L4,38 L4,14 L5,9 L3,9 L2,11 L0,9 L0,3 L1,3 L1,8 L3,8 L3,1 Z " fill="#7361A3" transform="translate(760,322)"/>
<path d="M0,0 L5,1 L4,15 L1,18 L1,20 L3,21 L1,23 L-3,24 L-5,28 L-5,23 L-11,23 L-11,18 L-9,16 L-4,16 L-3,10 L-2,1 Z " fill="#A492DA" transform="translate(654,324)"/>
<path d="M0,0 L20,0 L22,3 L18,6 L4,6 L4,8 L-7,8 L-13,10 L-17,8 L-12,6 L-12,4 L-10,3 L-1,3 Z " fill="#8E84C0" transform="translate(434,628)"/>
<path d="M0,0 L9,1 L9,5 L8,6 L11,7 L10,8 L12,10 L7,9 L6,6 L-10,6 L-10,8 L-14,8 L-14,6 L-18,6 L-18,8 L-24,8 L-24,10 L-32,10 L-32,9 L-25,9 L-25,7 L-32,7 L-32,6 L-26,5 L-26,4 L-19,2 L-12,2 L-8,1 L-2,1 Z " fill="#7E71AF" transform="translate(518,626)"/>
<path d="M0,0 L4,1 L1,1 L1,3 L4,3 L2,12 L1,12 L1,5 L-1,5 L-1,20 L1,20 L0,50 L2,51 L-1,52 L0,65 L-4,66 L-4,64 L-2,64 L-2,52 L-4,52 L-4,20 L-2,20 L-2,4 L0,4 Z " fill="#756D9B" transform="translate(376,396)"/>
<path d="M0,0 L7,1 L11,3 L14,3 L15,5 L28,3 L31,3 L30,6 L28,6 L27,11 L22,13 L13,13 L11,12 L11,10 L8,10 L8,7 L5,6 L2,3 L0,2 Z " fill="#9478D3" transform="translate(692,417)"/>
<path d="M0,0 L4,1 L3,3 L2,14 L1,15 L-1,26 L-3,32 L-4,30 L-14,32 L-16,34 L-15,30 L-12,23 L-10,23 L-9,18 L-3,18 L-3,16 L-1,16 L-1,2 Z " fill="#A184D6" transform="translate(738,364)"/>
<path d="M0,0 L2,0 L2,2 L5,2 L6,5 L10,6 L14,7 L14,9 L20,9 L20,7 L25,8 L25,10 L23,10 L23,15 L19,17 L18,12 L9,13 L5,15 L2,15 L1,13 L2,8 L-3,8 L-2,1 Z M18,17 Z " fill="#8D75BE" transform="translate(686,427)"/>
<path d="M0,0 L3,1 L0,6 L-1,4 Z M-3,6 L-1,7 L-3,17 L-4,18 L-5,36 L-7,36 L-7,32 L-10,31 L-11,27 L-21,27 L-23,26 L-23,24 L-27,23 L-27,21 L-36,19 L-41,16 L-41,13 L-38,16 L-26,20 L-18,21 L-18,24 L-9,23 L-5,14 L-4,7 Z " fill="#8C83B9" transform="translate(400,651)"/>
<path d="M0,0 L5,0 L5,2 L9,1 L9,10 L28,10 L26,11 L26,13 L21,14 L19,13 L19,15 L13,15 L13,13 L3,12 L4,8 L1,8 L1,6 L-3,7 L-4,14 L-6,11 L-7,7 L-5,1 Z " fill="#8E75C5" transform="translate(687,421)"/>
<path d="M0,0 L1,0 L1,16 L3,17 L1,24 L-1,25 L-1,23 L-3,23 L-3,48 L-1,48 L-1,45 L3,46 L9,47 L9,51 L11,51 L11,53 L13,53 L13,55 L17,57 L9,57 L9,53 L5,52 L5,57 L3,57 L3,52 L-2,53 L-6,50 L-6,48 L-4,48 L-4,22 L-2,22 L-2,16 L0,16 Z " fill="#8178AC" transform="translate(342,614)"/>
<path d="M0,0 L2,0 L5,7 L4,12 L0,22 L-1,23 L-10,23 L-10,7 L-7,7 L-7,11 L1,10 L-1,5 Z " fill="#9585BD" transform="translate(577,620)"/>
<path d="M0,0 L5,0 L9,1 L14,1 L14,16 L15,21 L13,25 L8,27 L8,25 L12,21 L13,17 L7,18 L5,16 L4,4 L0,3 Z " fill="#AC95DF" transform="translate(722,319)"/>
<path d="M0,0 L30,0 L34,5 L36,6 L36,16 L35,16 L35,7 L33,7 L33,15 L32,15 L31,5 L0,4 L-5,3 L-5,5 L0,5 L0,6 L-9,5 L-9,7 L-12,8 L-12,6 L-10,6 L-10,4 L-6,4 L-6,2 L0,2 Z " fill="#7D76A1" transform="translate(706,288)"/>
<path d="M0,0 L1,0 L1,11 L0,22 L-12,24 L-21,26 L-25,27 L-23,26 L-23,24 L-21,23 L-13,23 L-10,14 L-9,11 L-7,11 L-7,9 L0,9 Z " fill="#8B70C2" transform="translate(736,408)"/>
<path d="M0,0 L1,0 L1,50 L3,50 L3,52 L-3,52 L-3,49 L-6,51 L-7,60 L-5,60 L-5,63 L-7,63 L-9,60 L-9,50 L-5,46 L-3,46 L-3,34 L-1,34 L-1,28 L-3,28 L-3,18 L-2,18 L-2,27 L0,27 Z " fill="#11081A" transform="translate(823,334)"/>
<path d="M0,0 L4,0 L10,7 L12,8 L12,16 L16,16 L16,20 L18,20 L18,18 L32,18 L32,19 L19,19 L19,21 L21,21 L21,23 L17,24 L16,26 L12,22 L10,25 L9,17 L6,17 L7,9 L2,7 L0,3 L3,3 L3,1 Z M15,26 Z " fill="#7567A0" transform="translate(556,500)"/>
<path d="M0,0 L4,1 L4,5 L6,5 L6,9 L4,9 L4,11 L2,11 L2,13 L0,13 L0,21 L2,21 L2,25 L0,25 L0,29 L-4,31 L-5,28 L-6,12 L-5,10 L-8,9 L-4,9 L-4,11 L0,11 Z " fill="#10071B" transform="translate(820,389)"/>
<path d="M0,0 L10,1 L10,2 L4,2 L4,4 L0,4 L0,6 L-8,6 L-8,12 L-12,16 L-8,16 L-8,18 L-10,18 L-10,28 L-12,28 L-12,32 L-10,32 L-10,34 L-14,32 L-15,25 L-16,25 L-16,14 L-15,16 L-13,16 L-14,14 L-14,5 L-9,4 L-1,5 L-1,3 L-7,3 L-7,2 L1,2 L3,3 L3,1 Z " fill="#725B9C" transform="translate(728,432)"/>
<path d="M0,0 L1,0 L2,8 L0,19 L-4,26 L-13,26 L-13,24 L-8,24 L-8,19 L-9,18 L-9,13 L-6,7 L-1,7 Z " fill="#8F87BD" transform="translate(395,649)"/>
<path d="M0,0 L5,1 L6,3 L1,3 L0,8 L-6,16 L-9,17 L-11,17 L-12,21 L-14,21 L-13,4 L-12,3 L-4,2 Z M-9,14 Z " fill="#8D84BD" transform="translate(373,592)"/>
<path d="M0,0 L16,0 L20,2 L15,3 L0,3 L-2,4 L-6,5 L-6,7 L-2,11 L-1,14 L2,16 L0,21 L-7,22 L-10,20 L-10,17 L-7,15 L-8,13 L-8,1 Z M-8,19 Z M2,15 Z " fill="#BAA0F4" transform="translate(700,335)"/>
<path d="M0,0 L3,1 L6,5 L6,7 L12,6 L16,7 L17,9 L20,10 L20,12 L25,13 L23,15 L19,14 L15,15 L6,14 L1,12 L1,7 L-2,7 Z " fill="#9882D0" transform="translate(640,395)"/>
<path d="M0,0 L4,2 L2,2 L2,6 L0,6 L0,8 L-14,8 L-14,10 L-16,10 L-16,12 L-18,12 L-18,14 L-20,14 L-20,12 L-24,12 L-24,14 L-40,14 L-40,16 L-42,16 L-42,18 L-45,19 L-46,15 L-46,13 L-43,13 L-43,15 L-41,15 L-42,12 L-25,13 L-25,11 L-40,11 L-40,10 L-32,10 L-32,8 L-17,8 L-15,9 L-16,6 L-3,6 L-14,5 L-14,4 L-1,3 L-1,5 L1,5 Z " fill="#7F77A9" transform="translate(460,650)"/>
<path d="M0,0 L2,0 L2,10 L0,10 L-1,18 L-5,19 L-5,22 L-22,22 L-26,20 L-22,19 L-21,16 L-13,13 L-12,17 L-3,17 L-2,3 Z " fill="#8B7AB8" transform="translate(685,556)"/>
<path d="M0,0 L5,0 L5,2 L10,3 L11,7 L9,9 L9,16 L7,15 L7,13 L4,13 L5,19 L3,19 L0,16 L-1,20 L-1,1 Z " fill="#7F6DAF" transform="translate(596,592)"/>
<path d="M0,0 L4,0 L4,2 L8,2 L8,0 L10,0 L10,2 L14,2 L14,4 L34,4 L34,6 L44,6 L44,7 L34,7 L34,9 L25,9 L22,13 L20,14 L18,8 L11,7 L11,5 L13,5 L13,3 L8,4 L4,3 L3,6 L3,4 L1,3 L3,3 L3,1 Z " fill="#776CA0" transform="translate(540,332)"/>
<path d="M0,0 L16,0 L16,2 L14,2 L14,4 L12,4 L12,6 L10,6 L10,10 L4,10 L4,8 L7,8 L7,6 L4,6 L4,4 L2,4 L2,8 L-2,8 L-2,10 L-8,10 L-8,2 L-4,2 L-4,6 L0,6 L0,4 L-2,4 Z " fill="#0B0718" transform="translate(368,320)"/>
<path d="M0,0 L3,1 L1,6 L4,7 L-4,12 L-6,15 L-12,15 L-14,20 L-16,23 L-19,33 L-20,33 L-19,14 L-13,10 L-7,8 L-3,5 L-1,3 Z " fill="#857CB4" transform="translate(372,579)"/>
<path d="M0,0 L13,0 L22,2 L22,8 L1,8 L0,7 Z " fill="#8070AE" transform="translate(608,579)"/>
<path d="M0,0 L4,0 L4,6 L3,4 L-1,4 L-2,8 L-17,6 L-36,7 L-32,4 L-26,2 L-13,1 L-8,2 L-1,2 Z " fill="#9E95C8" transform="translate(732,302)"/>
<path d="M0,0 L11,0 L21,1 L21,2 L12,3 L7,5 L6,13 L1,15 L1,17 L-2,17 L-3,20 L-7,20 L-6,16 L-5,12 L-2,12 L0,6 L5,4 L6,2 L0,2 Z " fill="#8A7DBC" transform="translate(631,319)"/>
<path d="M0,0 L7,0 L7,8 L4,10 L0,10 L-1,16 L-3,18 L-6,25 L-7,23 L-14,22 L-14,21 L-6,20 L-5,16 L-7,16 L-6,11 L-3,6 L-1,2 Z " fill="#8E75B9" transform="translate(544,372)"/>
<path d="M0,0 L1,0 L2,15 L0,20 L-7,19 L-7,15 L-9,15 L-9,17 L-11,17 L-11,15 L-13,15 L-13,17 L-17,15 L-16,10 L-13,9 L-13,11 L-9,11 L-8,7 L-8,11 L-3,13 Z " fill="#170C2E" transform="translate(795,417)"/>
<path d="M0,0 L15,0 L15,2 L18,2 L18,5 L23,4 L28,4 L28,6 L19,10 L18,9 L3,10 L3,8 L-8,10 L-10,11 L-12,9 L-7,7 L7,6 L7,8 L11,8 L12,3 L0,2 Z " fill="#837AAF" transform="translate(525,331)"/>
<path d="M0,0 L2,0 L6,5 L22,6 L22,2 L30,2 L30,3 L23,3 L23,5 L30,5 L26,8 L6,8 L0,12 L-2,13 L-10,11 L-11,13 L-16,12 L-16,10 L-12,10 L-12,8 L-10,8 L-10,10 L-7,10 L-7,8 L-2,8 L-2,4 L0,4 Z " fill="#7D74A8" transform="translate(330,480)"/>
<path d="M0,0 L6,0 L5,4 L-1,6 L-2,11 L0,12 L-3,13 L-5,17 L-9,16 L-13,21 L-15,27 L-16,27 L-16,18 L-11,9 L-4,8 L-2,3 L0,3 Z " fill="#9D8BD6" transform="translate(645,336)"/>
<path d="M0,0 L8,0 L12,5 L12,8 L18,8 L15,12 L9,10 L9,5 L3,4 L-7,6 L-12,8 L-14,9 L-14,5 L-6,3 L-6,1 Z M-15,9 L-14,12 L-19,17 L-22,18 L-20,12 L-16,11 Z " fill="#887BB9" transform="translate(502,604)"/>
<path d="M0,0 L7,1 L6,9 L-4,13 L-8,12 L-24,10 L-24,6 L-21,6 L-20,4 L-16,8 L-14,9 L-2,10 L0,6 L-3,6 L-1,2 Z " fill="#B093E7" transform="translate(716,378)"/>
<path d="M0,0 L1,3 L6,2 L7,4 L6,6 L10,6 L10,8 L7,10 L7,17 L7,20 L2,21 L-1,22 L-2,21 L-2,14 L0,12 Z M5,6 Z M8,17 Z " fill="#AD98E9" transform="translate(666,341)"/>
<path d="M0,0 L1,0 L1,9 L-3,11 L-5,22 L-5,28 L-5,31 L-4,41 L-8,39 L-9,37 L-9,28 L-7,28 L-9,18 L-6,14 L-4,3 Z " fill="#958DC4" transform="translate(365,620)"/>
<path d="M0,0 L1,0 L2,12 L2,16 L0,16 L0,28 L-1,29 L-1,36 L-4,36 L-6,25 L-6,15 L-1,16 L-2,7 Z M-3,8 Z " fill="#826BAF" transform="translate(713,452)"/>
<path d="M0,0 L4,1 L5,3 L5,12 L4,19 L2,21 L2,30 L0,38 L-2,39 L-1,22 L1,17 L-1,15 L-1,3 Z " fill="#8B78B9" transform="translate(588,592)"/>
<path d="M0,0 L5,0 L5,7 L-1,10 L-2,13 L-9,15 L-19,12 L-18,9 L-18,11 L-12,9 L-8,8 L-8,10 L-6,9 L-4,5 L-2,5 L-1,1 Z M-17,7 Z M-18,8 Z " fill="#B495F7" transform="translate(716,367)"/>
<path d="M0,0 L16,0 L27,1 L28,2 L28,15 L23,14 L23,4 L10,4 L5,2 L-3,2 Z " fill="#B4A0E5" transform="translate(699,321)"/>
<path d="M0,0 L8,0 L6,2 L-1,4 L-1,11 L-9,18 L-14,19 L-15,23 L-18,21 L-18,18 L-15,17 L-14,15 L-11,15 L-11,13 L-6,11 L-6,3 Z " fill="#8F82C2" transform="translate(643,321)"/>
<path d="M0,0 L3,0 L4,3 L2,3 L2,7 L0,7 L0,11 L-2,11 L-2,13 L-4,13 L-4,25 L-6,25 L-6,33 L-8,33 L-8,35 L-6,35 L-6,39 L-10,38 L-7,38 L-7,36 L-10,37 L-9,33 L-11,32 L-10,24 L-8,24 L-7,22 L-7,24 L-5,24 L-6,7 L-4,7 L-4,3 L-1,4 L-1,6 L1,6 Z " fill="#726398" transform="translate(600,605)"/>
<path d="M0,0 L5,1 L4,6 L12,6 L12,8 L21,8 L23,9 L23,11 L11,11 L3,10 L3,7 L-8,7 L-8,5 L-4,5 L-3,2 L-3,4 L-1,4 Z " fill="#7F6CAB" transform="translate(605,424)"/>
<path d="M0,0 L2,2 L1,4 L-1,4 L-1,8 L-8,10 L-8,12 L-10,12 L-11,16 L-14,19 L-22,19 L-22,17 L-16,17 L-15,10 L-12,9 L-12,5 L-4,5 L-4,3 Z M-14,11 Z " fill="#8880B3" transform="translate(482,626)"/>
<path d="M0,0 L10,0 L13,3 L23,3 L23,5 L25,5 L25,8 L27,9 L13,9 L13,6 L2,5 Z " fill="#8979B8" transform="translate(527,624)"/>
<path d="M0,0 L18,0 L19,5 L10,7 L2,8 L0,7 Z " fill="#A789E1" transform="translate(704,395)"/>
<path d="M0,0 L4,1 L4,5 L8,5 L8,9 L10,9 L9,11 L0,10 L-5,12 L-5,9 L-9,8 L-7,5 L-4,5 L-3,1 Z " fill="#9780CF" transform="translate(680,407)"/>
<path d="M0,0 L4,0 L4,2 L-2,4 L-20,7 L-20,18 L-29,18 L-26,8 L-23,5 L-4,2 Z " fill="#9F94CC" transform="translate(672,318)"/>
<path d="M0,0 L1,0 L1,5 L3,5 L3,7 L1,8 L1,14 L-1,14 L-1,19 L-3,20 L-3,25 L-5,25 L-6,22 L-8,26 L-9,18 L-6,10 L-3,5 L0,5 Z " fill="#8471AF" transform="translate(700,538)"/>
<path d="M0,0 L2,0 L2,3 L18,4 L18,10 L15,10 L15,8 L6,9 L6,7 L-9,7 L-9,5 L-2,3 L0,4 Z " fill="#7D73AD" transform="translate(338,540)"/>
<path d="M0,0 L2,2 L2,29 L0,29 L0,20 L-5,20 L-6,18 L-6,3 L-4,3 L-4,17 L-1,17 L-1,2 Z " fill="#170C24" transform="translate(821,332)"/>
<path d="M0,0 L2,0 L3,4 L6,5 L8,4 L19,5 L24,7 L25,11 L20,11 L17,8 L13,10 L4,9 L1,9 L1,7 L-4,7 L-3,3 L0,4 Z " fill="#8574B9" transform="translate(642,424)"/>
<path d="M0,0 L13,0 L13,2 L37,2 L37,5 L13,5 L11,4 L2,3 L0,2 Z " fill="#7F6FAB" transform="translate(575,519)"/>
<path d="M0,0 L14,0 L14,2 L18,2 L18,4 L12,4 L12,6 L-4,6 L-6,2 L0,2 Z " fill="#0A071B" transform="translate(636,264)"/>
<path d="M0,0 L2,3 L3,8 L4,6 L8,5 L9,10 L11,12 L7,12 L7,14 L18,14 L18,15 L6,15 L6,13 L2,13 L2,11 L-2,11 L-2,9 L-6,9 L-6,7 L-2,7 L-2,5 L-6,5 L-6,3 L-1,4 Z " fill="#6E5899" transform="translate(590,417)"/>
<path d="M0,0 L1,2 L-2,7 L-15,9 L-16,6 L-20,7 L-20,5 L-25,4 L-27,2 L-18,3 L-14,2 L-3,2 L-1,3 Z " fill="#987CD4" transform="translate(722,414)"/>
<path d="M0,0 L1,0 L0,15 L-3,18 L-4,16 L-8,17 L-9,24 L-14,26 L-12,16 L-8,10 L-2,7 Z " fill="#967ACD" transform="translate(736,393)"/>
<path d="M0,0 L1,0 L1,6 L-1,6 L-1,8 L-3,8 L-3,16 L-5,16 L-5,20 L-7,20 L-7,24 L-9,24 L-9,28 L-11,28 L-11,34 L-13,34 L-13,40 L-14,40 L-15,34 L-15,24 L-14,24 L-14,33 L-12,33 L-13,23 L-10,21 L-10,23 L-8,23 L-9,14 L-6,13 L-6,15 L-4,15 L-5,6 L0,5 Z " fill="#75589E" transform="translate(755,380)"/>
<path d="M0,0 L6,0 L6,1 L1,1 L1,3 L3,3 L3,5 L0,6 L0,3 L-3,3 L-3,5 L-1,6 L-4,8 L-11,7 L-11,9 L-9,10 L-11,12 L-24,13 L-24,8 L-12,8 L-12,6 L-8,6 L-8,4 L-4,4 L-4,2 L0,2 Z " fill="#786F9D" transform="translate(466,352)"/>
<path d="M0,0 L4,0 L3,2 L0,3 L-1,5 L-3,5 L-2,11 L0,12 L0,14 L-4,12 L-4,10 L-10,10 L-10,12 L-12,12 L-12,14 L-14,14 L-14,4 L-2,4 Z " fill="#061319" transform="translate(456,262)"/>
<path d="M0,0 L1,2 L3,2 L4,0 L5,3 L1,7 L-2,12 L-7,17 L-7,13 L-9,13 L-8,19 L-9,17 L-11,17 L-11,19 L-14,20 L-14,18 L-12,18 L-12,16 L-10,16 L-10,12 L-8,12 L-8,8 L-4,8 L-4,2 L0,2 Z " fill="#7F76AA" transform="translate(374,462)"/>
<path d="M0,0 L4,0 L6,3 L6,11 L8,11 L7,16 L3,20 L2,18 L-3,22 L-7,22 L-7,20 L-4,19 L0,14 L2,14 L2,3 L0,2 Z " fill="#7A69A7" transform="translate(648,461)"/>
<path d="M0,0 L2,2 L0,15 L-9,21 L-9,16 L-6,12 L-5,8 L-4,6 L-1,6 L-1,1 Z M-10,21 Z " fill="#1D0722" transform="translate(808,402)"/>
<path d="M0,0 L6,1 L10,1 L8,5 L5,8 L-1,9 L-2,13 L-7,15 L-8,13 L-6,13 L-7,9 L-4,8 L-4,6 L-2,6 L-1,1 Z " fill="#836DAE" transform="translate(558,374)"/>
<path d="M0,0 L6,0 L6,1 L1,1 L1,3 L6,3 L4,5 L5,5 L5,18 L2,19 L2,24 L1,24 L1,5 L-1,5 L-1,24 L-2,24 L-2,4 L0,4 Z " fill="#7F78A9" transform="translate(346,590)"/>
<path d="M0,0 L2,0 L2,3 L8,3 L4,4 L4,6 L2,6 L2,17 L-2,17 L-2,15 L-6,15 L-5,1 L-4,1 L-3,11 L-2,14 L0,14 L0,11 L-2,11 L-2,2 Z " fill="#030105" transform="translate(818,383)"/>
<path d="M0,0 L8,0 L8,1 L1,1 L1,3 L9,3 L9,5 L-4,6 L-9,5 L-9,7 L-7,7 L-8,10 L-16,10 L-19,9 L-19,11 L-22,12 L-22,10 L-20,10 L-20,8 L-16,8 L-16,6 L-10,6 L-10,4 L-6,4 L-6,2 L-4,2 L-4,4 L-2,4 L-2,2 L0,2 Z " fill="#7B769C" transform="translate(686,296)"/>
<path d="M0,0 L2,2 L2,10 L9,9 L8,13 L10,28 L8,28 L7,24 L3,22 L3,14 L0,9 Z " fill="#9273BD" transform="translate(742,308)"/>
<path d="M0,0 L4,3 L16,7 L23,10 L23,12 L33,12 L33,16 L37,18 L37,23 L35,23 L35,19 L32,18 L31,14 L21,14 L19,13 L19,11 L15,10 L15,8 L6,6 L1,3 Z " fill="#897FB6" transform="translate(358,664)"/>
<path d="M0,0 L3,0 L5,3 L5,19 L4,22 L2,22 L2,24 L0,24 Z " fill="#8470B7" transform="translate(758,337)"/>
<path d="M0,0 L14,0 L22,1 L22,4 L24,5 L21,6 L21,4 L-2,4 L-2,1 Z " fill="#7E6DAB" transform="translate(656,581)"/>
<path d="M0,0 L2,0 L2,8 L1,11 L3,11 L3,24 L-1,25 L-2,28 L-2,18 L-2,15 L-2,7 L0,4 Z " fill="#B094EB" transform="translate(725,336)"/>
<path d="M0,0 L4,0 L4,7 L2,8 L-12,8 L-12,6 L-10,6 L-10,2 L-8,2 L-8,4 L-6,4 L-6,2 L0,2 Z " fill="#06170F" transform="translate(432,280)"/>
<path d="M0,0 L1,3 L5,3 L5,6 L12,6 L12,9 L9,10 L8,12 L7,9 L-5,7 L-8,3 L-5,1 Z " fill="#9080BF" transform="translate(549,620)"/>
<path d="M0,0 L4,0 L4,3 L8,2 L44,3 L44,4 L8,4 L8,6 L6,6 L6,4 L2,8 L-2,8 L-3,1 Z " fill="#6B5D93" transform="translate(634,584)"/>
<path d="M0,0 L3,0 L3,12 L0,11 L-1,14 L-3,14 L-4,16 L-4,14 L-6,14 L-6,8 L-4,8 L-4,2 L-3,4 L0,4 Z " fill="#635588" transform="translate(648,464)"/>
<path d="M0,0 L1,0 L1,6 L-1,6 L-2,13 L-7,16 L-9,17 L-12,22 L-14,21 L-12,15 L-10,15 L-9,10 L-6,7 L-3,7 Z M-15,21 Z " fill="#9C7ED1" transform="translate(737,387)"/>
<path d="M0,0 L2,0 L2,32 L-2,32 L-5,36 L-7,36 L-7,42 L-9,42 L-9,35 L-5,34 L-5,30 L-3,30 L-3,28 L-1,28 L-1,9 L-3,3 L-1,4 Z " fill="#816BB3" transform="translate(763,331)"/>
<path d="M0,0 L34,1 L36,2 L35,4 L7,4 L-4,5 L-4,2 L0,2 Z " fill="#8882AF" transform="translate(701,291)"/>
<path d="M0,0 L22,0 L25,1 L25,4 L2,4 L-2,5 L-2,1 Z " fill="#AF9FDD" transform="translate(697,318)"/>
<path d="M0,0 L11,1 L12,3 L19,6 L20,8 L25,10 L23,12 L17,11 L16,7 L0,6 L-2,5 L1,2 Z " fill="#9D89DA" transform="translate(648,382)"/>
<path d="M0,0 L12,0 L12,1 L1,1 L1,3 L10,5 L6,7 L2,7 L-4,9 L-14,7 L-14,6 L-8,6 L-8,4 L-4,4 L-4,2 L0,2 Z " fill="#7B729C" transform="translate(486,344)"/>
<path d="M0,0 L2,0 L5,15 L8,20 L9,24 L9,32 L7,38 L6,38 L4,21 L2,12 L1,11 Z " fill="#A587D3" transform="translate(738,320)"/>
<path d="M0,0 L6,0 L6,13 L4,13 L0,23 L-3,22 L1,12 L2,7 L0,4 Z " fill="#9381BE" transform="translate(579,620)"/>
<path d="M0,0 L2,1 L1,11 L13,11 L13,9 L8,9 L12,6 L17,6 L21,11 L21,15 L24,16 L23,19 L17,14 L17,10 L14,10 L14,12 L0,12 Z " fill="#706894" transform="translate(296,520)"/>
<path d="M0,0 L6,0 L8,1 L8,9 L6,9 L6,11 L4,11 L4,15 L-1,16 L-1,14 L1,14 L2,7 Z " fill="#091F20" transform="translate(460,265)"/>
<path d="M0,0 L1,0 L1,32 L3,32 L3,44 L1,44 L0,46 L-1,45 Z " fill="#110F16" transform="translate(371,416)"/>
<path d="M0,0 L3,1 L4,6 L13,6 L16,8 L17,10 L21,11 L26,13 L26,14 L19,14 L7,9 L0,6 L-1,3 Z M16,6 Z " fill="#A993E5" transform="translate(653,373)"/>
<path d="M0,0 L2,0 L2,2 L8,2 L8,3 L2,3 L2,7 L6,6 L5,12 L8,13 L5,16 L-2,18 L-4,19 L-5,15 L4,15 L4,13 L-8,14 L-8,12 L4,12 L4,8 L0,9 L-2,8 L-2,2 L0,2 Z " fill="#746D96" transform="translate(304,504)"/>
<path d="M0,0 L2,1 L-1,4 L0,8 L3,7 L2,18 L-4,23 L-3,2 Z " fill="#8B79B8" transform="translate(690,526)"/>
<path d="M0,0 L2,4 L-3,3 L-3,5 L-1,6 L-4,7 L-4,5 L-14,7 L-14,5 L-25,5 L-25,7 L-23,8 L-28,12 L-26,7 L-33,7 L-32,10 L-34,10 L-34,6 L-26,6 L-26,4 L-14,4 L-14,2 L-8,2 L-8,4 L-4,4 L-4,2 L0,2 Z " fill="#6F6693" transform="translate(414,374)"/>
<path d="M0,0 L1,3 L3,4 L1,8 L-6,10 L-12,12 L-12,10 L-9,10 L-8,5 L-10,5 L-10,2 L0,2 Z " fill="#8273AC" transform="translate(584,337)"/>
<path d="M0,0 L8,0 L8,1 L1,1 L1,3 L8,3 L8,4 L1,4 L1,7 L-12,9 L-12,7 L-16,6 L-12,6 L-12,4 L-6,4 L-6,2 L0,2 Z " fill="#766A9A" transform="translate(600,330)"/>
<path d="M0,0 L6,2 L8,1 L14,1 L10,3 L-1,6 L-8,6 L-8,8 L-22,10 L-28,10 L-24,8 L-14,6 L-10,6 L-10,4 L-1,2 Z " fill="#A498CF" transform="translate(686,314)"/>
<path d="M0,0 L10,0 L10,2 L2,3 L3,8 L2,10 L11,12 L11,14 L-1,14 L-1,4 Z " fill="#857DAD" transform="translate(298,517)"/>
<path d="M0,0 L1,0 L1,12 L3,12 L3,20 L7,20 L7,24 L3,24 L3,48 L2,48 L1,21 L2,13 L0,13 L0,21 L-1,21 L-1,13 L-3,12 L0,12 Z " fill="#665488" transform="translate(713,468)"/>
<path d="M0,0 L11,0 L13,3 L-12,3 L-17,5 L-23,6 L-31,6 L-31,4 L-15,1 Z " fill="#A99CD5" transform="translate(709,316)"/>
<path d="M0,0 L2,0 L2,2 L4,2 L4,0 L6,0 L6,2 L18,3 L18,4 L0,4 L-1,5 L-12,5 L-13,8 L-20,11 L-25,11 L-22,10 L-22,8 L-13,4 L-3,3 Z " fill="#9690BF" transform="translate(712,298)"/>
<path d="M0,0 L2,0 L5,7 L4,12 L0,16 L-6,15 L-8,12 L-8,7 L-7,11 L1,10 L-1,5 Z " fill="#9887C4" transform="translate(577,620)"/>
<path d="M0,0 L2,0 L4,3 L5,12 L10,17 L11,19 L11,41 L10,41 L8,20 L6,19 L4,14 L2,13 Z " fill="#9C7FC9" transform="translate(739,318)"/>
<path d="M0,0 L1,2 L8,2 L8,4 L6,4 L6,14 L4,14 L4,18 L6,18 L6,20 L2,18 L1,11 L0,11 Z " fill="#765E9E" transform="translate(712,446)"/>
<path d="M0,0 L5,1 L4,11 L0,12 L-3,10 L-2,1 Z " fill="#A396D5" transform="translate(654,324)"/>
<path d="M0,0 L2,0 L2,2 L8,2 L8,6 L10,6 L10,12 L8,12 L8,14 L10,14 L10,18 L8,18 L8,20 L10,20 L10,26 L7,23 L7,18 L5,18 L5,14 L7,14 L6,5 L7,3 L-4,4 Z " fill="#18091E" transform="translate(802,292)"/>
<path d="M0,0 L6,0 L8,2 L6,2 L6,5 L9,6 L5,6 L5,4 L1,4 L1,6 L-5,6 L-5,8 L-13,8 L-13,7 L-6,7 L-6,5 L-13,5 L-13,4 L-7,3 L-7,2 Z " fill="#746A9E" transform="translate(499,628)"/>
<path d="M0,0 L1,0 L1,16 L3,17 L1,24 L-1,25 L-1,23 L-3,23 L-3,48 L-4,48 L-4,22 L-2,22 L-2,16 L0,16 Z " fill="#6B668F" transform="translate(342,614)"/>
<path d="M0,0 L1,2 L18,3 L18,7 L2,7 L-1,2 Z " fill="#0A090D" transform="translate(334,479)"/>
<path d="M0,0 L3,0 L3,2 L1,2 L1,4 L-1,4 L-1,6 L-3,6 L-3,10 L-9,10 L-9,8 L-6,8 L-6,6 L-9,6 L-9,3 L-12,3 L-12,1 Z " fill="#120A24" transform="translate(381,320)"/>
<path d="M0,0 L3,0 L3,10 L-5,10 L-5,2 Z " fill="#876FBE" transform="translate(733,420)"/>
<path d="M0,0 L4,2 L5,7 L6,5 L8,5 L8,9 L15,10 L15,13 L1,9 L-2,3 L-2,1 Z " fill="#A08CDE" transform="translate(640,371)"/>
<path d="M0,0 L5,0 L5,2 L7,0 L13,0 L15,2 L11,6 L-1,6 L-2,1 Z " fill="#746BA1" transform="translate(361,694)"/>
<path d="M0,0 L7,0 L7,2 L10,2 L10,7 L9,5 L7,5 L8,8 L7,15 L10,16 L6,16 L6,8 L2,6 L-2,1 Z " fill="#736AA1" transform="translate(346,548)"/>
<path d="M0,0 L2,1 L1,3 L-9,3 L-9,5 L0,5 L0,7 L-9,10 L-10,7 L-34,7 L-34,6 L-10,6 L-10,2 L0,2 Z " fill="#6A5D91" transform="translate(622,514)"/>
<path d="M0,0 L2,0 L1,5 L-4,11 L-27,11 L-27,10 L-11,10 L-10,8 L-5,7 L-10,6 L-10,4 L-3,3 L0,2 Z " fill="#7C73AA" transform="translate(363,479)"/>
<path d="M0,0 L4,0 L4,18 L0,18 Z " fill="#0A0717" transform="translate(836,340)"/>
<path d="M0,0 L2,0 L2,2 L6,1 L5,8 L4,9 L-6,8 L-13,6 L-12,4 L-8,5 L0,4 Z " fill="#968DC5" transform="translate(378,659)"/>
<path d="M0,0 L4,2 L2,2 L2,6 L0,6 L0,8 L-14,8 L-14,10 L-16,10 L-16,12 L-18,12 L-18,14 L-20,14 L-20,12 L-24,11 L-20,11 L-20,8 L-15,9 L-16,6 L-3,6 L-14,5 L-14,4 L-1,3 L-1,5 L1,5 Z " fill="#6F6894" transform="translate(460,650)"/>
<path d="M0,0 L4,0 L4,2 L2,2 L2,6 L4,6 L4,14 L6,14 L6,16 L4,16 L4,18 L6,18 L6,24 L4,24 L4,29 L3,29 L2,18 L3,7 L1,7 L1,14 L0,14 Z " fill="#0E0C14" transform="translate(638,448)"/>
<path d="M0,0 L4,2 L2,2 L2,8 L-2,12 L-10,12 L-10,14 L-18,14 L-18,13 L-11,13 L-11,11 L-13,10 L-11,10 L-11,8 L-3,7 L-2,2 L-1,2 L-1,7 L1,7 Z " fill="#756E9A" transform="translate(482,636)"/>
<path d="M0,0 L7,1 L7,3 L15,3 L15,5 L-12,5 L-12,3 L-1,2 Z " fill="#867DB4" transform="translate(309,538)"/>
<path d="M0,0 L2,1 L2,3 L13,4 L13,6 L21,5 L18,8 L7,6 L4,5 L-13,4 L-9,2 Z " fill="#8470B4" transform="translate(630,427)"/>
<path d="M0,0 L9,1 L8,3 L2,5 L-2,8 L0,10 L-5,15 L-6,12 L-8,10 L-4,10 L-3,4 L-5,4 L-5,2 L0,2 Z M-5,11 Z " fill="#877EAF" transform="translate(472,351)"/>
<path d="M0,0 L6,0 L6,3 L9,3 L9,10 L7,11 L9,13 L8,16 L2,11 L2,4 L0,3 L5,3 L5,1 L0,1 Z " fill="#7C66AE" transform="translate(754,320)"/>
<path d="M0,0 L4,0 L10,7 L12,8 L12,16 L11,16 L11,9 L9,9 L9,17 L6,17 L7,9 L2,7 L0,3 L3,3 L3,1 Z " fill="#73649F" transform="translate(556,500)"/>
<path d="M0,0 L2,2 L1,13 L3,13 L3,6 L4,6 L5,12 L8,13 L6,13 L6,15 L8,16 L6,16 L6,20 L3,20 L3,18 L0,18 L0,16 L2,16 L2,14 L0,14 L0,6 L-2,6 L-2,2 L0,2 Z " fill="#72629C" transform="translate(642,448)"/>
<path d="M0,0 L1,0 L1,12 L4,13 L2,23 L-1,25 L-1,23 L-3,23 L-4,26 L-4,22 L-2,22 L-2,12 L0,12 Z " fill="#6E669A" transform="translate(356,564)"/>
<path d="M0,0 L4,1 L1,1 L1,3 L4,4 L2,8 L4,10 L4,20 L3,20 L3,12 L1,12 L1,20 L0,20 L0,12 L-2,12 L-2,8 L-4,8 L-4,6 L-2,6 L-2,4 L0,4 Z " fill="#6E6099" transform="translate(640,480)"/>
<path d="M0,0 L8,0 L5,1 L5,3 L13,3 L13,4 L5,4 L5,8 L1,8 L1,14 L-1,14 L-2,16 L-2,14 L-4,13 L0,13 L-1,1 Z " fill="#765E9F" transform="translate(555,400)"/>
<path d="M0,0 L8,0 L7,3 L2,5 L0,10 L-7,10 L-5,6 L-2,6 L-2,4 L-4,4 L-4,2 Z " fill="#8479B3" transform="translate(629,321)"/>
<path d="M0,0 L1,0 L1,12 L-1,13 L-8,13 L-8,15 L-18,14 L-15,11 L-12,10 L-3,10 L-2,6 L-1,10 Z " fill="#7B62AD" transform="translate(739,420)"/>
<path d="M0,0 L1,0 L1,8 L-3,8 L-3,14 L-5,14 L-5,12 L-9,12 L-9,14 L-13,13 L-10,13 L-10,11 L-12,10 L-9,8 L-7,11 L-6,6 L-4,2 L-2,3 L0,5 Z " fill="#110618" transform="translate(815,420)"/>
<path d="M0,0 L1,0 L1,16 L3,16 L3,18 L-3,18 L-3,15 L-6,17 L-7,26 L-5,26 L-5,29 L-7,29 L-9,26 L-9,16 L-4,12 L-4,14 L-2,14 L-2,17 L0,17 Z " fill="#0F0819" transform="translate(823,368)"/>
<path d="M0,0 L1,2 L5,1 L4,10 L5,12 L4,14 L-3,14 L-7,13 L-7,11 L-1,10 L0,4 L-1,1 Z " fill="#948BC2" transform="translate(383,657)"/>
<path d="M0,0 L4,1 L1,5 L-2,15 L-7,17 L-14,18 L-14,14 L-4,14 L-5,11 L-4,8 L-2,8 L-1,1 Z " fill="#8D83BF" transform="translate(472,614)"/>
<path d="M0,0 L1,4 L5,4 L5,6 L7,6 L7,12 L9,12 L8,14 L1,14 Z " fill="#7A6B9B" transform="translate(743,304)"/>
<path d="M0,0 L3,1 L3,3 L11,4 L11,9 L25,9 L25,10 L15,11 L12,13 L9,10 L8,7 L4,6 L2,5 L2,3 L-1,3 Z " fill="#A084D9" transform="translate(689,400)"/>
<path d="M0,0 L6,0 L7,8 L4,8 L1,7 L1,5 L-1,5 L-1,8 L-5,7 L-5,5 L-3,5 L-1,1 Z " fill="#BCA1F5" transform="translate(709,344)"/>
<path d="M0,0 L1,0 L1,6 L-1,6 L-1,14 L-3,14 L-3,16 L-5,16 L-5,18 L-11,18 L-11,17 L-6,17 L-6,15 L-10,14 L-5,14 L-5,5 L-3,5 L-2,3 L-2,5 L0,5 Z " fill="#75649A" transform="translate(691,570)"/>
<path d="M0,0 L5,1 L5,14 L0,13 Z " fill="#B19CE3" transform="translate(722,322)"/>
<path d="M0,0 L6,1 L19,1 L20,3 L27,4 L28,6 L19,5 L3,5 L2,2 Z " fill="#9083C3" transform="translate(489,599)"/>
<path d="M0,0 L4,2 L4,8 L6,8 L6,3 L7,3 L7,9 L5,9 L5,11 L3,11 L3,13 L1,13 L1,19 L0,19 L-1,11 L2,12 L2,10 L0,10 Z " fill="#76649D" transform="translate(701,533)"/>
<path d="M0,0 L2,0 L2,6 L-1,8 L-5,21 L-7,23 L-5,9 L-2,2 Z " fill="#8869B5" transform="translate(747,381)"/>
<path d="M0,0 L1,0 L1,5 L3,5 L3,0 L7,1 L7,5 L9,5 L8,11 L3,11 L4,14 L2,14 L2,10 L4,10 L4,6 L0,6 Z " fill="#736B9B" transform="translate(344,666)"/>
<path d="M0,0 L2,0 L2,2 L8,2 L8,3 L0,4 L-35,3 L-35,5 L-39,6 L-40,2 L-38,2 L-38,4 L-36,4 L-36,2 L0,2 Z " fill="#1A1623" transform="translate(678,586)"/>
<path d="M0,0 L6,0 L6,1 L0,3 L-3,5 L-5,11 L-4,15 L-8,24 L-9,24 L-8,10 L-6,4 L-4,4 L-4,2 Z M-9,11 Z " fill="#876DB3" transform="translate(715,433)"/>
<path d="M0,0 L4,0 L4,7 L-1,13 L-4,13 L-4,8 L-2,8 Z " fill="#21103D" transform="translate(793,403)"/>
<path d="M0,0 L7,0 L5,7 L8,8 L6,12 L2,13 L1,3 Z M7,6 Z " fill="#857CAE" transform="translate(381,381)"/>
<path d="M0,0 L2,0 L2,2 L4,2 L3,16 L-1,15 L0,9 L-2,9 L-1,3 Z " fill="#AC8FED" transform="translate(724,361)"/>
<path d="M0,0 L2,0 L3,10 L1,11 L1,13 L-1,13 L-1,18 L-5,18 L-5,12 L-3,11 L-2,8 L0,8 Z " fill="#7E65AD" transform="translate(756,367)"/>
<path d="M0,0 L9,0 L20,2 L35,3 L35,4 L13,4 L-1,2 Z " fill="#8474B4" transform="translate(613,577)"/>
<path d="M0,0 Z M-1,1 Z M6,1 L9,1 L9,3 L15,4 L15,6 L8,8 L-2,5 L-1,2 L-1,4 L5,2 Z " fill="#B799F2" transform="translate(699,374)"/>
<path d="M0,0 L5,1 L6,3 L1,3 L0,8 L-5,14 L-7,10 L-6,6 L-4,6 L-2,1 Z " fill="#9187C3" transform="translate(373,592)"/>
<path d="M0,0 L2,0 L3,4 L0,7 L-1,11 L-5,13 L-5,9 L-3,9 L-3,7 L-12,7 L-12,5 L-2,5 Z " fill="#7E6FAC" transform="translate(625,512)"/>
<path d="M0,0 L2,0 L1,7 L-1,13 L-4,13 L-4,8 L-7,8 L-7,4 L-1,3 Z " fill="#827AA8" transform="translate(313,503)"/>
<path d="M0,0 L1,0 L1,6 L-5,13 L-17,13 L-19,14 L-19,11 L-7,9 L-1,5 Z " fill="#B19DE5" transform="translate(691,325)"/>
<path d="M0,0 L2,0 L2,9 L4,9 L4,24 L1,21 L0,12 L-1,8 Z " fill="#9185B9" transform="translate(739,295)"/>
<path d="M0,0 L3,0 L4,3 L2,3 L2,7 L0,7 L0,11 L-6,12 L-6,7 L-4,7 L-4,3 L-1,4 L-1,6 L1,6 Z " fill="#7D6DAD" transform="translate(600,605)"/>
<path d="M0,0 L1,2 L-1,10 L-2,14 L-5,16 L-5,6 L-6,1 L-3,2 Z M-6,16 Z " fill="#857CAC" transform="translate(387,394)"/>
<path d="M0,0 L4,0 L5,2 L8,4 L3,9 L2,5 L-4,6 L-5,3 Z " fill="#826FB4" transform="translate(574,360)"/>
<path d="M0,0 L2,0 L2,4 L4,4 L4,12 L1,13 L-4,13 L-6,14 L-5,10 L1,8 Z " fill="#B193F0" transform="translate(720,366)"/>
<path d="M0,0 L4,0 L3,3 L1,3 L-1,11 L-6,14 L-8,13 L-4,9 L-3,2 Z " fill="#9689C8" transform="translate(645,323)"/>
<path d="M0,0 L1,0 L1,6 L-2,8 L-3,12 L-5,12 L-5,16 L-9,16 L-9,12 L-13,11 L-8,11 L-8,9 L-6,9 L-6,11 L-4,11 L-5,6 L-3,4 L0,5 Z " fill="#6F6695" transform="translate(399,676)"/>
<path d="M0,0 L25,0 L26,2 L26,8 L24,6 L24,1 L14,3 L0,1 Z " fill="#918BB5" transform="translate(712,295)"/>
<path d="M0,0 L9,0 L11,3 L9,3 L9,5 L14,5 L14,6 L8,6 L8,4 L0,4 L0,2 L-4,1 Z " fill="#786B9C" transform="translate(542,644)"/>
<path d="M0,0 L1,2 L3,2 L3,6 L1,6 L1,8 L-1,8 L-1,10 L-3,10 L-3,16 L-5,16 L-5,7 L-2,2 L0,2 Z " fill="#6E5C9A" transform="translate(609,594)"/>
<path d="M0,0 L5,1 L3,7 L-8,7 L-8,5 L-4,5 L-3,2 L-3,4 L-1,4 Z " fill="#826AB3" transform="translate(605,424)"/>
<path d="M0,0 L4,0 L7,6 L8,17 L5,17 L3,8 L3,1 Z " fill="#998FC1" transform="translate(733,301)"/>
<path d="M0,0 L9,0 L8,5 L3,5 L3,7 L8,7 L8,8 L2,8 L2,6 L0,6 Z " fill="#76689C" transform="translate(530,636)"/>
<path d="M0,0 L4,0 L4,2 L6,2 L6,8 L8,8 L9,11 L6,12 L5,11 L3,11 L0,6 L1,3 L3,3 L3,1 Z " fill="#72649C" transform="translate(546,472)"/>
<path d="M0,0 L2,1 L1,5 L3,5 L1,12 L4,13 L4,18 L0,16 L-2,6 Z " fill="#B196EC" transform="translate(696,368)"/>
<path d="M0,0 L1,4 L5,6 L9,10 L9,14 L5,13 L0,8 L-1,3 Z " fill="#0F0E15" transform="translate(351,686)"/>
<path d="M0,0 L2,0 L2,2 L-1,2 L-1,5 L-3,5 L-3,7 L-9,7 L-9,9 L-13,8 L-10,8 L-10,3 Z " fill="#7E6DA3" transform="translate(591,641)"/>
<path d="M0,0 L1,2 L3,3 L2,7 L0,7 L0,13 L-2,13 L-2,19 L-3,19 L-4,13 L-4,3 L-3,3 L-3,12 L-1,12 L-2,2 Z " fill="#72569C" transform="translate(744,401)"/>
<path d="M0,0 L1,0 L0,7 L-3,9 L-4,16 L-6,16 L-6,6 L-4,6 L-3,2 Z " fill="#250C2A" transform="translate(807,393)"/>
<path d="M0,0 L16,0 L20,2 L15,3 L0,3 L-2,4 L-4,3 L-4,1 Z " fill="#BDA4F3" transform="translate(700,335)"/>
<path d="M0,0 L4,1 L1,3 L0,13 L-6,13 L-3,3 Z " fill="#9C8ECD" transform="translate(649,323)"/>
<path d="M0,0 L5,4 L8,8 L7,12 L5,10 L4,12 L2,12 L0,8 Z " fill="#8C77B7" transform="translate(600,381)"/>
<path d="M0,0 L7,0 L14,2 L12,5 L1,4 L2,1 Z M0,4 Z " fill="#867BB3" transform="translate(438,643)"/>
<path d="M0,0 L2,0 L3,10 L7,9 L8,10 L8,15 L5,14 L5,12 L1,12 L-1,6 Z " fill="#917ABD" transform="translate(607,382)"/>
<path d="M0,0 L1,0 L1,7 L3,7 L3,0 L4,0 L4,8 L2,8 L2,10 L0,10 L0,12 L-6,12 L-5,8 L-5,11 L-3,10 L-2,5 L0,5 Z " fill="#6B6395" transform="translate(382,688)"/>
<path d="M0,0 L2,0 L2,5 L6,6 L8,9 L8,14 L3,12 L3,8 L1,8 L0,6 Z " fill="#1F0C27" transform="translate(803,304)"/>
<path d="M0,0 L1,0 L1,5 L3,5 L3,0 L4,0 L4,6 L2,6 L2,12 L0,12 L0,14 L-2,14 L-3,18 L-4,12 L-2,6 L-1,6 L-1,11 L1,11 Z " fill="#726095" transform="translate(696,552)"/>
<path d="M0,0 L8,0 L8,1 L1,1 L1,3 L-1,3 L0,10 L-1,8 L-3,8 L-4,10 L-4,8 L-8,8 L-8,6 L-6,6 L-6,4 L-2,4 L-2,2 L0,2 Z " fill="#6A5D94" transform="translate(628,504)"/>
<path d="M0,0 L1,0 L1,11 L3,11 L3,0 L4,0 L4,12 L0,12 L-1,16 L-1,12 L-3,12 L-4,16 L-4,11 L-2,11 Z " fill="#6D5895" transform="translate(548,416)"/>
<path d="M0,0 L7,1 L6,3 L4,3 L2,7 L-2,6 L-4,7 L-4,4 L-2,4 Z M-5,7 Z M-6,8 Z " fill="#9F8DDA" transform="translate(638,346)"/>
<path d="M0,0 L2,2 L3,8 L5,11 L5,16 L3,16 L2,23 L1,23 L1,10 Z " fill="#9277C2" transform="translate(751,336)"/>
<path d="M0,0 L6,1 L6,4 L1,5 L1,10 L-3,11 L-1,5 L-2,2 L0,2 Z " fill="#8E86B5" transform="translate(667,305)"/>
<path d="M0,0 L2,4 L6,8 L6,9 L-2,9 L-4,10 L-4,6 L-2,6 Z " fill="#5E577D" transform="translate(312,530)"/>
<path d="M0,0 L8,0 L8,1 L1,1 L1,3 L8,3 L4,6 L-16,5 L-16,4 L0,4 Z " fill="#675F8E" transform="translate(352,482)"/>
<path d="M0,0 L2,0 L3,2 L4,11 L6,16 L5,20 L1,12 Z " fill="#A68ED6" transform="translate(736,320)"/>
<path d="M0,0 L4,1 L1,1 L1,5 L3,5 L3,3 L5,3 L6,9 L4,13 L3,9 L1,9 L0,12 L0,8 L2,8 L2,6 L0,6 Z " fill="#716A97" transform="translate(312,494)"/>
<path d="M0,0 L2,0 L3,7 L6,8 L5,12 L1,12 L-1,8 L-1,2 Z " fill="#8172AC" transform="translate(537,453)"/>
<path d="M0,0 L1,3 L-1,3 L-1,5 L-4,7 L-5,15 L-11,15 L-11,14 L-6,14 L-6,7 L-8,7 L-6,2 L0,2 Z " fill="#6E5E96" transform="translate(549,433)"/>
<path d="M0,0 L2,0 L2,3 L0,3 L-2,8 L-8,9 L-6,3 L-5,2 L0,2 Z " fill="#9B89D3" transform="translate(643,336)"/>
<path d="M0,0 L6,0 L6,1 L1,1 L1,3 L6,3 L1,7 L1,5 L-1,5 L-1,24 L-2,24 L-2,4 L0,4 Z " fill="#605A81" transform="translate(346,590)"/>
<path d="M0,0 L4,2 L2,2 L2,8 L8,8 L8,12 L-4,12 L-4,11 L3,10 L-2,9 L1,8 Z " fill="#1A1821" transform="translate(300,504)"/>
<path d="M0,0 L5,0 L9,1 L14,1 L13,4 L10,5 L0,3 Z " fill="#AC98DA" transform="translate(722,319)"/>
<path d="M0,0 L13,0 L17,1 L17,3 L11,4 L3,4 L7,2 L0,1 Z " fill="#0E0A21" transform="translate(637,265)"/>
<path d="M0,0 L18,1 L18,2 L2,2 L2,4 L0,4 L0,6 L-3,7 L-4,3 L-4,1 L-1,1 L-1,3 L1,3 Z " fill="#706792" transform="translate(418,662)"/>
<path d="M0,0 L1,0 L1,7 L-7,7 L-6,2 L0,2 Z " fill="#A689D7" transform="translate(735,380)"/>
<path d="M0,0 L1,0 L1,8 L-1,8 L-1,10 L-3,10 L-3,14 L-5,14 L-6,16 L-6,14 L-8,13 L-4,13 L-5,8 L-3,2 L-2,2 L-2,7 L0,7 Z " fill="#6A5895" transform="translate(763,364)"/>
<path d="M0,0 L2,0 L5,11 L0,11 L0,14 L-4,13 L-1,13 L-2,10 L0,10 Z " fill="#160922" transform="translate(796,424)"/>
<path d="M0,0 L11,0 L11,2 L16,1 L12,4 L2,3 L0,2 Z " fill="#857BAF" transform="translate(389,379)"/>
<path d="M0,0 L3,0 L3,2 L6,1 L15,1 L15,3 L9,4 L2,5 L0,3 Z " fill="#8177AB" transform="translate(439,363)"/>
<path d="M0,0 L11,0 L21,1 L21,2 L6,3 L0,2 Z " fill="#897EB6" transform="translate(631,319)"/>
<path d="M0,0 L8,0 L8,1 L1,1 L1,3 L3,4 L2,8 L-2,7 L-4,8 L-3,3 L0,2 Z " fill="#746D95" transform="translate(656,308)"/>
<path d="M0,0 L1,2 L4,1 L5,5 L3,5 L3,3 L1,3 L1,5 L-3,5 L-3,7 L-7,7 L-8,9 L-9,5 L-4,6 L-4,4 L-6,4 L-5,1 L-3,1 L-3,4 L0,4 L0,2 L-2,1 Z " fill="#716896" transform="translate(409,667)"/>
<path d="M0,0 L2,1 L2,7 L-3,8 L-3,16 L-4,16 L-4,5 L-2,2 L0,2 Z " fill="#8980B4" transform="translate(399,664)"/>
<path d="M0,0 L16,0 L16,1 L2,2 L-5,9 L-8,8 L-6,8 L-4,4 L-2,4 L-2,2 L0,2 Z " fill="#17151F" transform="translate(420,664)"/>
<path d="M0,0 L1,0 L2,12 L2,16 L-1,16 L-2,7 Z M-3,8 Z " fill="#7F66AA" transform="translate(713,452)"/>
<path d="M0,0 L5,2 L8,3 L7,6 L6,5 L5,8 L2,8 L-1,3 Z " fill="#7962A6" transform="translate(584,413)"/>
<path d="M0,0 L2,0 L2,14 L5,14 L5,16 L0,15 Z " fill="#1B0D2A" transform="translate(815,335)"/>
<path d="M0,0 L2,2 L2,10 L9,9 L8,14 L1,12 L0,9 Z " fill="#8C79B3" transform="translate(742,308)"/>
<path d="M0,0 L7,0 L3,2 L0,3 L-1,8 L-10,11 L-6,7 L-3,6 L-1,1 Z " fill="#968EC2" transform="translate(674,309)"/>
<path d="M0,0 L2,2 L4,9 L2,11 L-1,11 L-2,6 Z " fill="#021E1F" transform="translate(459,265)"/>
<path d="M0,0 L1,0 L1,8 L0,10 L-6,11 L-3,8 L-4,4 Z " fill="#8A79B2" transform="translate(585,634)"/>
<path d="M0,0 L2,0 L2,8 L4,8 L4,10 L2,10 L2,12 L0,12 L0,10 L-4,10 L-4,8 L0,8 Z " fill="#090616" transform="translate(180,496)"/>
<path d="M0,0 L5,1 L4,5 L1,4 L0,6 L-2,6 L-4,4 L-6,3 L-6,1 Z " fill="#8770B4" transform="translate(582,375)"/>
<path d="M0,0 L2,0 L2,16 L0,16 L0,13 L-2,13 L-2,11 L0,11 Z " fill="#180C23" transform="translate(821,369)"/>
<path d="M0,0 L2,0 L2,8 L1,11 L3,11 L2,15 L1,12 L-2,12 L-2,7 L0,4 Z " fill="#B297E8" transform="translate(725,336)"/>
<path d="M0,0 L8,0 L15,2 L15,3 L2,4 L2,1 Z " fill="#867EB7" transform="translate(422,644)"/>
<path d="M0,0 L3,1 L3,5 L-3,8 L-4,7 L-4,1 Z " fill="#877DB7" transform="translate(348,501)"/>
<path d="M0,0 L2,0 L2,3 L7,3 L6,5 L2,5 L2,8 L-2,6 L-1,1 Z " fill="#1A1137" transform="translate(780,426)"/>
<path d="M0,0 L7,1 L9,2 L10,6 L5,6 L1,3 L-1,1 Z " fill="#8978BA" transform="translate(657,429)"/>
<path d="M0,0 L3,1 L3,5 L7,6 L4,8 L-1,8 Z " fill="#927BC0" transform="translate(601,372)"/>
<path d="M0,0 L4,2 L2,2 L2,6 L0,6 L0,8 L-6,8 L-5,4 L0,2 Z " fill="#0D0C12" transform="translate(426,366)"/>
<path d="M0,0 L8,0 L8,1 L1,1 L1,3 L8,3 L8,4 L1,4 L1,7 L-4,7 L-5,3 L0,3 Z " fill="#7D72A1" transform="translate(600,330)"/>
<path d="M0,0 L2,1 L4,2 L4,5 L2,6 L1,24 L0,24 Z " fill="#211A2B" transform="translate(716,492)"/>
<path d="M0,0 L2,0 L3,10 L0,15 L-1,13 L0,11 L-2,11 Z " fill="#7D6EAE" transform="translate(641,492)"/>
<path d="M0,0 L4,1 L1,1 L1,3 L4,3 L4,5 L2,5 L1,9 L1,5 L-1,5 L0,11 L-1,9 L-3,9 L-3,11 L-6,12 L-6,10 L-4,10 L-4,8 L-2,8 L-2,4 L0,4 Z " fill="#6A6292" transform="translate(366,470)"/>
<path d="M0,0 L2,1 L2,18 L-2,16 L0,16 L0,14 L-2,14 L-2,10 L0,10 Z " fill="#130F1A" transform="translate(718,450)"/>
<path d="M0,0 L5,0 L3,7 L1,12 L0,12 Z " fill="#7E76A5" transform="translate(377,448)"/>
<path d="M0,0 L6,0 L6,3 L9,3 L9,10 L5,10 L3,3 L5,3 L5,1 L0,1 Z " fill="#7561A6" transform="translate(754,320)"/>
<path d="M0,0 L2,1 L-1,6 L-16,8 L-15,6 L-8,4 L-2,4 L-2,1 Z " fill="#918CB9" transform="translate(710,296)"/>
<path d="M0,0 L2,0 L2,2 L6,1 L5,5 L7,5 L7,9 L5,9 L5,6 L0,6 Z " fill="#230B26" transform="translate(796,294)"/>
<path d="M0,0 L5,1 L15,4 L15,6 L19,7 L12,6 L2,3 Z " fill="#8F85BC" transform="translate(360,665)"/>
<path d="M0,0 L2,1 L5,3 L4,4 L6,6 L1,5 L0,2 L-16,2 L-16,1 Z " fill="#65598A" transform="translate(524,630)"/>
<path d="M0,0 L1,3 L5,3 L5,5 L-5,5 L-5,1 Z " fill="#9383C2" transform="translate(549,620)"/>
<path d="M0,0 L3,0 L3,2 L1,2 L1,7 L-3,9 L-4,4 L-1,3 Z M-4,9 Z " fill="#8D74B8" transform="translate(708,435)"/>
<path d="M0,0 L5,0 L4,8 L2,9 L-1,3 Z " fill="#8876B6" transform="translate(570,560)"/>
<path d="M0,0 L2,1 L-2,8 L-7,10 L-6,6 L-2,1 Z " fill="#8776B9" transform="translate(655,512)"/>
<path d="M0,0 L4,0 L4,2 L2,2 L2,6 L4,6 L4,14 L3,14 L3,7 L1,7 L1,14 L0,14 Z " fill="#1B1726" transform="translate(638,448)"/>
<path d="M0,0 L6,0 L6,6 L3,6 L3,8 L6,9 L2,9 L2,1 Z " fill="#0D0C12" transform="translate(538,451)"/>
<path d="M0,0 L2,0 L2,2 L4,2 L5,9 L3,11 L0,11 L0,7 L2,7 Z " fill="#1C1238" transform="translate(787,417)"/>
<path d="M0,0 L5,0 L2,1 L2,3 L10,3 L10,4 L2,4 L2,8 L-2,7 L1,7 L1,5 L-2,5 Z " fill="#6E5693" transform="translate(558,400)"/>
<path d="M0,0 L4,0 L5,2 L5,13 L3,13 L2,3 L0,2 Z " fill="#8370B3" transform="translate(648,461)"/>
<path d="M0,0 L3,1 L4,7 L0,9 L-2,11 L-3,17 L-4,17 L-4,9 L0,7 L0,5 L2,5 Z " fill="#171320" transform="translate(548,431)"/>
<path d="M0,0 L4,1 L2,5 L-8,5 L-8,3 L0,2 L2,3 L2,1 Z " fill="#7D61A7" transform="translate(568,398)"/>
<path d="M0,0 L2,0 L2,8 L1,15 L-1,15 L-1,7 Z " fill="#9377C6" transform="translate(737,393)"/>
<path d="M0,0 L2,0 L2,11 L-1,11 L-2,5 Z " fill="#A091D1" transform="translate(650,325)"/>
<path d="M0,0 L18,0 L18,1 L8,3 L2,3 L0,2 Z " fill="#8B85B0" transform="translate(677,301)"/>
<path d="M0,0 L3,2 L4,3 L8,2 L7,5 L2,5 L2,7 L-1,8 L-2,5 Z " fill="#7664A3" transform="translate(607,589)"/>
<path d="M0,0 L3,1 L1,7 L-4,10 L-8,9 L-3,5 L-1,3 Z " fill="#8279B5" transform="translate(372,579)"/>
<path d="M0,0 L1,2 L4,2 L5,0 L5,3 L3,3 L3,7 L1,7 L0,11 L-1,2 Z " fill="#72609A" transform="translate(709,525)"/>
<path d="M0,0 L1,0 L1,5 L3,6 L3,11 L0,11 L0,9 L-2,9 L-1,4 Z " fill="#7F6BAA" transform="translate(710,516)"/>
<path d="M0,0 L5,0 L6,3 L9,4 L9,6 L5,7 L3,6 L3,4 L0,3 Z " fill="#7E6EAE" transform="translate(550,497)"/>
<path d="M0,0 L6,2 L2,4 L0,10 L-1,6 L-2,3 Z M4,0 Z " fill="#8E7EB8" transform="translate(512,349)"/>
<path d="M0,0 L1,3 L0,6 L-6,7 L-6,2 L0,2 Z " fill="#B89DF0" transform="translate(721,342)"/>
<path d="M0,0 L2,0 L2,2 L6,1 L4,5 L1,7 L-8,6 L-8,5 L0,4 Z " fill="#998FC8" transform="translate(378,659)"/>
<path d="M0,0 L12,1 L13,5 L3,4 L2,1 Z " fill="#907DC5" transform="translate(640,410)"/>
<path d="M0,0 L2,1 L-2,5 L-4,5 L-5,8 L-9,9 L-9,6 L-5,6 L-4,2 Z M-10,9 Z M-11,10 Z " fill="#876DB0" transform="translate(548,388)"/>
<path d="M0,0 L2,0 L2,2 L0,2 L1,5 L-4,9 L-6,7 L-6,4 L-2,4 L-2,1 Z " fill="#8076AC" transform="translate(417,373)"/>
<path d="M0,0 L5,0 L1,1 L0,6 L-6,8 L-7,5 L-5,2 L-4,4 L-1,5 Z " fill="#867EAE" transform="translate(659,311)"/>
<path d="M0,0 L1,3 L3,4 L1,4 L1,6 L3,7 L-1,8 L-5,5 L-5,3 L0,3 Z " fill="#79719F" transform="translate(341,659)"/>
<path d="M0,0 L1,0 L1,6 L-3,8 L-4,3 L-3,1 Z M-5,4 Z " fill="#938BC6" transform="translate(386,648)"/>
<path d="M0,0 L4,1 L1,1 L1,3 L4,4 L1,6 L-1,5 L0,8 L-2,12 L-2,8 L-4,8 L-4,6 L-2,6 L-2,4 L0,4 Z " fill="#625589" transform="translate(640,480)"/>
<path d="M0,0 L7,2 L9,6 L13,6 L13,8 L8,7 L8,5 L1,3 Z " fill="#A28DDD" transform="translate(659,383)"/>
<path d="M0,0 L4,0 L4,10 L2,10 L2,4 L0,4 Z " fill="#070D16" transform="translate(400,308)"/>
<path d="M0,0 L2,2 L2,14 L0,14 L0,6 L-2,6 L-2,2 L0,2 Z " fill="#685A8F" transform="translate(642,448)"/>
<path d="M0,0 L1,0 L2,13 L-1,13 L-1,5 Z " fill="#8467B7" transform="translate(739,407)"/>
<path d="M0,0 L9,0 L9,2 L0,6 L-1,4 L2,3 L0,2 Z " fill="#837AB0" transform="translate(544,335)"/>
<path d="M0,0 L4,0 L4,2 L8,2 L8,0 L10,0 L10,2 L14,3 L8,4 L4,3 L3,6 L3,4 L1,3 L3,3 L3,1 Z " fill="#6E6692" transform="translate(540,332)"/>
<path d="M0,0 L2,0 L2,4 L4,4 L3,8 L1,9 L1,5 L-1,5 L0,10 L-2,10 L-2,4 L0,4 Z " fill="#140A1E" transform="translate(816,322)"/>
<path d="M0,0 L3,2 L2,6 L-8,6 L-8,5 L1,5 L1,3 L-8,3 L-8,2 L-1,1 Z " fill="#100F15" transform="translate(650,310)"/>
<path d="M0,0 L5,1 L5,11 L4,11 L4,2 L2,2 L2,10 L1,10 Z " fill="#83729C" transform="translate(737,293)"/>
<path d="M0,0 L6,2 L7,8 L2,6 L2,2 L0,2 Z " fill="#8C7ABA" transform="translate(580,586)"/>
<path d="M0,0 L2,1 L4,9 L0,8 L-1,1 Z " fill="#8C79B9" transform="translate(568,560)"/>
<path d="M0,0 L4,0 L5,6 L0,6 Z " fill="#997ECB" transform="translate(624,396)"/>
<path d="M0,0 L1,0 L1,10 L6,8 L4,12 L1,13 L1,11 L-2,12 L-2,10 L0,10 Z " fill="#726B95" transform="translate(382,384)"/>
<path d="M0,0 L1,0 L1,6 L-1,6 L-1,8 L-3,8 L-3,16 L-4,16 L-5,6 L0,5 Z " fill="#68518F" transform="translate(755,380)"/>
<path d="M0,0 L5,0 L4,4 L7,4 L7,9 L3,9 L3,7 L6,7 L6,5 L3,5 L3,2 L0,2 Z " fill="#0F0A20" transform="translate(369,321)"/>
<path d="M0,0 L4,1 L2,1 L2,4 L-6,5 L-4,1 Z " fill="#8E8AB6" transform="translate(706,296)"/>
<path d="M0,0 L6,0 L6,6 L3,6 Z " fill="#7F75B1" transform="translate(350,544)"/>
<path d="M0,0 L1,0 L1,6 L3,6 L3,8 L1,8 L1,12 L-5,12 L-5,11 L0,11 L0,9 L-2,8 Z " fill="#17151E" transform="translate(311,494)"/>
<path d="M0,0 L2,0 L5,5 L3,5 L3,7 L1,7 L1,5 L-1,5 L-2,8 L-2,4 L0,4 Z " fill="#6D6596" transform="translate(330,480)"/>
<path d="M0,0 L11,1 L11,3 L3,3 L-1,1 Z " fill="#8368B5" transform="translate(716,434)"/>
<path d="M0,0 L2,0 L1,8 L-2,9 L-4,11 L-3,7 Z " fill="#A487DA" transform="translate(726,387)"/>
<path d="M0,0 L10,0 L10,2 L1,2 L1,4 L-1,4 Z " fill="#857DB0" transform="translate(514,333)"/>
<path d="M0,0 L2,0 L2,3 L5,3 L6,1 L6,4 L11,4 L11,5 L0,5 Z " fill="#071B15" transform="translate(422,282)"/>
<path d="M0,0 L1,3 L3,3 L3,1 L6,1 L7,5 L5,5 L4,7 L0,4 Z " fill="#736B9E" transform="translate(352,686)"/>
<path d="M0,0 L6,1 L8,3 L1,3 L1,8 L0,8 L-1,2 Z " fill="#8272AC" transform="translate(531,633)"/>
<path d="M0,0 L3,1 L2,8 L-2,10 Z " fill="#7B72AB" transform="translate(358,579)"/>
<path d="M0,0 L2,2 L2,5 L-4,5 L-5,8 L-5,2 L-1,1 Z " fill="#8672B1" transform="translate(691,564)"/>
<path d="M0,0 L6,0 L6,2 L2,4 L1,6 L-1,6 L-1,1 Z " fill="#8279B0" transform="translate(332,491)"/>
<path d="M0,0 L2,0 L2,2 L10,3 L10,4 L4,4 L2,3 L1,5 L-4,4 L-4,2 L0,2 Z " fill="#706994" transform="translate(318,488)"/>
<path d="M0,0 L2,0 L2,10 L0,10 L0,6 L-2,6 L-2,4 L0,4 Z " fill="#14111C" transform="translate(648,464)"/>
<path d="M0,0 L11,0 L11,2 L6,4 L6,2 L0,1 Z " fill="#AD93EA" transform="translate(682,377)"/>
<path d="M0,0 L1,2 L3,2 L2,6 L-2,10 L-1,1 Z " fill="#907DC2" transform="translate(603,360)"/>
<path d="M0,0 L3,2 L0,5 L-6,6 L-5,3 Z " fill="#8A81B9" transform="translate(410,644)"/>
<path d="M0,0 L7,0 L5,3 L-1,4 L-2,1 Z " fill="#9888C8" transform="translate(533,587)"/>
<path d="M0,0 L1,0 L2,6 L-4,7 L-4,5 L-2,5 L-3,1 Z " fill="#7D64AE" transform="translate(597,422)"/>
<path d="M0,0 L1,3 L3,3 L4,0 L7,5 L4,7 L0,4 Z " fill="#745C9D" transform="translate(578,408)"/>
<path d="M0,0 L2,0 L2,9 L0,12 L-1,8 Z " fill="#9C86B7" transform="translate(739,295)"/>
<path d="M0,0 L2,0 L2,2 L8,2 L7,6 L7,3 L-4,4 Z " fill="#150819" transform="translate(802,292)"/>
<path d="M0,0 L10,0 L7,3 L0,4 Z " fill="#9087C0" transform="translate(458,628)"/>
<path d="M0,0 L4,0 L6,4 L-1,4 Z " fill="#7F76AD" transform="translate(487,628)"/>
<path d="M0,0 L9,1 L8,5 L6,4 L6,2 L-2,2 Z " fill="#7F70AE" transform="translate(518,626)"/>
<path d="M0,0 L8,1 L7,4 L0,3 Z " fill="#8B7BBA" transform="translate(531,621)"/>
<path d="M0,0 L3,0 L4,3 L2,3 L2,7 L0,7 L-1,11 L-2,4 L-1,6 L1,6 Z " fill="#695A92" transform="translate(600,605)"/>
<path d="M0,0 L4,2 L2,4 L-6,6 L-6,4 L-2,4 Z " fill="#161320" transform="translate(616,590)"/>
<path d="M0,0 L1,2 L3,2 L3,4 L1,4 L1,16 L0,16 L-1,2 Z " fill="#1C1A24" transform="translate(295,516)"/>
<path d="M0,0 L5,0 L5,4 L0,4 Z " fill="#725D9A" transform="translate(715,488)"/>
<path d="M0,0 L1,3 L3,3 L3,0 L6,0 L7,5 L0,4 Z " fill="#130B2A" transform="translate(788,432)"/>
<path d="M0,0 L2,3 L1,7 L-1,7 L-1,5 L-6,5 L-6,3 L-1,4 Z " fill="#715B9D" transform="translate(590,417)"/>
<path d="M0,0 L1,4 L-1,7 L-2,14 L-3,14 L-3,6 L-1,1 Z " fill="#7E76A6" transform="translate(380,402)"/>
<path d="M0,0 L2,1 L1,5 L3,5 L1,10 L-1,6 L-1,1 Z " fill="#B295F5" transform="translate(696,368)"/>
<path d="M0,0 L2,3 L1,7 L-2,8 L-2,1 Z " fill="#8373AB" transform="translate(589,635)"/>
<path d="M0,0 L8,1 L7,3 L-1,4 L-1,1 Z " fill="#9088C3" transform="translate(385,592)"/>
<path d="M0,0 L3,1 L3,2 L5,2 L4,7 L-2,2 Z " fill="#635C8B" transform="translate(346,548)"/>
<path d="M0,0 L2,1 L6,3 L6,8 L4,8 L4,4 L0,4 Z " fill="#7E6FAC" transform="translate(551,481)"/>
<path d="M0,0 L1,2 L3,2 L4,0 L5,3 L0,4 L-3,3 L-3,8 L-4,8 L-4,2 L0,2 Z M2,4 Z " fill="#6D6692" transform="translate(374,462)"/>
<path d="M0,0 L1,0 L1,8 L-3,13 L-5,13 L-4,10 L-2,9 Z " fill="#9272C1" transform="translate(748,366)"/>
<path d="M0,0 L10,0 L8,4 L0,2 Z " fill="#937DC2" transform="translate(518,375)"/>
<path d="M0,0 L6,1 L6,4 L0,4 Z " fill="#8B84B0" transform="translate(667,305)"/>
<path d="M0,0 L4,1 L4,8 L2,8 Z " fill="#0B2627" transform="translate(463,265)"/>
<path d="M0,0 L6,0 L6,1 L1,1 L1,3 L6,3 L1,7 L1,5 L-1,4 Z " fill="#6F6894" transform="translate(346,590)"/>
<path d="M0,0 L4,4 L3,7 L-1,7 Z " fill="#9384C4" transform="translate(512,520)"/>
<path d="M0,0 L4,0 L7,5 L3,6 L0,3 L3,3 L3,1 Z " fill="#70619B" transform="translate(556,500)"/>
<path d="M0,0 L2,0 L2,7 L-3,7 L-3,5 L0,5 Z " fill="#8471B2" transform="translate(541,440)"/>
<path d="M0,0 L2,0 L0,6 L-2,9 L-4,8 L-3,4 L-1,3 Z " fill="#AA8DDE" transform="translate(727,378)"/>
<path d="M0,0 L2,0 L3,3 L0,6 L-2,6 L-2,1 Z " fill="#947BBF" transform="translate(538,375)"/>
<path d="M0,0 L10,0 L7,2 L-1,3 Z " fill="#8A81B9" transform="translate(415,643)"/>
<path d="M0,0 L3,0 L2,8 L0,9 Z " fill="#9789C8" transform="translate(511,534)"/>
<path d="M0,0 L5,0 L2,1 L2,3 L4,4 L1,5 L1,3 L-4,3 Z " fill="#7971A0" transform="translate(308,526)"/>
<path d="M0,0 L2,2 L1,7 L1,10 L-1,10 L-2,4 Z M-2,10 Z " fill="#8B74B8" transform="translate(515,406)"/>
<path d="M0,0 L1,4 L3,4 L3,8 L1,8 L0,10 L-1,6 Z " fill="#0E0716" transform="translate(823,390)"/>
<path d="M0,0 L1,3 L6,4 L4,6 L-4,5 L0,4 Z " fill="#756C97" transform="translate(512,334)"/>
<path d="M0,0 L3,0 L4,6 L1,6 Z " fill="#052222" transform="translate(460,265)"/>
<path d="M0,0 L1,0 L1,6 L-2,8 L-5,8 L-3,4 L0,5 Z " fill="#766D9D" transform="translate(399,676)"/>
<path d="M0,0 L3,0 L3,5 L-2,4 L-2,1 Z " fill="#8277AB" transform="translate(412,665)"/>
<path d="M0,0 L2,1 L2,5 L5,6 L4,9 L1,6 Z " fill="#7B72A7" transform="translate(315,530)"/>
<path d="M0,0 L2,0 L2,5 L0,5 L0,7 L-2,7 L-2,3 L0,3 Z " fill="#826FB2" transform="translate(645,470)"/>
<path d="M0,0 L4,0 L3,5 L0,5 L-1,1 Z " fill="#897AB8" transform="translate(510,434)"/>
<path d="M0,0 L2,3 L1,5 L4,6 L0,6 L0,4 L-4,4 L-4,2 L0,2 Z " fill="#644E8B" transform="translate(588,422)"/>
<path d="M0,0 L1,0 L2,12 L-4,11 L0,10 Z " fill="#0F0615" transform="translate(820,390)"/>
<path d="M0,0 L6,0 L6,3 L0,3 Z " fill="#8176AC" transform="translate(420,375)"/>
<path d="M0,0 L2,0 L1,6 L-3,4 L-3,1 Z M-1,3 Z " fill="#B49BF1" transform="translate(693,351)"/>
<path d="M0,0 L4,1 L4,4 L0,5 L-1,1 Z " fill="#826CAD" transform="translate(750,318)"/>
<path d="M0,0 L2,0 L1,3 L-1,3 L-1,10 L-3,11 L-2,2 Z " fill="#8576AF" transform="translate(588,633)"/>
<path d="M0,0 L1,3 L5,2 L5,6 L3,6 L3,4 L0,5 L0,3 L-2,2 L0,2 Z " fill="#73639B" transform="translate(637,584)"/>
<path d="M0,0 L1,0 L1,8 L-2,9 Z " fill="#867BB8" transform="translate(394,564)"/>
<path d="M0,0 L2,0 L3,3 L0,5 L-4,5 L-4,3 L-1,2 Z " fill="#7D6DAE" transform="translate(645,478)"/>
<path d="M0,0 L2,0 L2,7 L-1,6 Z " fill="#231238" transform="translate(795,403)"/>
<path d="M0,0 L2,0 L2,4 L-2,5 L-2,2 Z M-4,4 Z " fill="#9782CA" transform="translate(622,364)"/>
<path d="M0,0 L6,0 L5,6 L3,6 L3,1 Z " fill="#150D2A" transform="translate(373,324)"/>
<path d="M0,0 L1,0 L3,11 L0,11 Z " fill="#9E94CA" transform="translate(736,309)"/>
<path d="M0,0 L5,3 L6,6 L0,4 Z " fill="#877FB3" transform="translate(353,661)"/>
<path d="M0,0 L1,2 L0,6 L-4,5 L-2,1 Z " fill="#8C7DB4" transform="translate(585,634)"/>
<path d="M0,0 L8,1 L4,4 L1,4 Z " fill="#7B6CAA" transform="translate(627,507)"/>
<path d="M0,0 L6,0 L6,2 L2,2 L2,4 L0,4 Z " fill="#867FAD" transform="translate(306,507)"/>
<path d="M0,0 L3,1 L2,3 L-4,4 L-4,1 Z " fill="#847BB3" transform="translate(348,501)"/>
<path d="M0,0 L1,4 L3,5 L1,8 L-1,8 Z " fill="#8071AC" transform="translate(529,440)"/>
<path d="M0,0 L2,0 L1,6 L-2,5 L-1,1 Z " fill="#1B143E" transform="translate(780,426)"/>
<path d="M0,0 L3,3 L1,9 L0,9 Z " fill="#A88AE9" transform="translate(727,366)"/>
<path d="M0,0 L4,0 L4,3 L-4,2 Z " fill="#7A729F" transform="translate(458,357)"/>
<path d="M0,0 L3,1 L2,4 L-3,3 L-3,1 Z " fill="#B09CE4" transform="translate(670,343)"/>
<path d="M0,0 L2,0 L2,2 L5,2 L5,4 L2,4 L1,6 Z " fill="#020105" transform="translate(370,324)"/>
<path d="M0,0 L4,0 L4,4 L0,4 Z " fill="#030C08" transform="translate(432,280)"/>
<path d="M0,0 L4,0 L4,3 L2,3 L1,5 L1,3 L-1,2 Z " fill="#7A6AA8" transform="translate(614,586)"/>
<path d="M0,0 L2,4 L-2,5 L-3,2 Z " fill="#8B77BB" transform="translate(674,502)"/>
<path d="M0,0 L2,0 L1,8 L-2,8 Z " fill="#241341" transform="translate(793,403)"/>
<path d="M0,0 L4,1 L4,6 L2,6 L2,2 L0,2 Z " fill="#8A7CB0" transform="translate(745,309)"/>
<path d="M0,0 L3,0 L2,7 L0,4 Z " fill="#9280B4" transform="translate(740,304)"/>
<path d="M0,0 L5,0 L1,1 L1,4 L-3,3 Z " fill="#7C73A9" transform="translate(385,684)"/>
<path d="M0,0 L3,0 L4,6 L2,6 Z " fill="#827AB0" transform="translate(347,677)"/>
<path d="M0,0 L3,1 L-3,6 L-2,1 Z " fill="#948AC6" transform="translate(370,600)"/>
<path d="M0,0 L2,0 L3,6 L1,5 L1,3 L-1,3 Z " fill="#7C69AC" transform="translate(602,602)"/>
<path d="M0,0 L2,0 L2,2 L8,2 L8,3 L0,4 Z " fill="#120F18" transform="translate(678,586)"/>
<path d="M0,0 L2,1 L1,8 L-1,8 L-2,5 Z " fill="#927FC0" transform="translate(678,560)"/>
<path d="M0,0 L4,1 L1,1 L1,3 L4,4 L1,6 L0,5 Z " fill="#685A91" transform="translate(640,480)"/>
<path d="M0,0 L4,2 L3,4 L-1,3 Z " fill="#7D64A9" transform="translate(584,413)"/>
<path d="M0,0 L2,0 L2,2 L5,3 L2,3 L1,6 L0,5 Z " fill="#937CBF" transform="translate(530,375)"/>
<path d="M0,0 L1,3 L4,4 L2,6 L-2,6 L-2,4 L0,4 Z " fill="#6E6593" transform="translate(428,368)"/>
<path d="M0,0 L4,1 L-1,6 Z " fill="#7F69B0" transform="translate(758,361)"/>
<path d="M0,0 L2,0 L2,6 L-2,4 L0,4 Z " fill="#0F081A" transform="translate(822,326)"/>
<path d="M0,0 L4,2 L3,5 L0,4 Z " fill="#8078AC" transform="translate(442,654)"/>
<path d="M0,0 L1,0 L1,5 L-2,6 L-2,1 Z " fill="#9086C2" transform="translate(366,603)"/>
<path d="M0,0 L3,0 L3,4 L0,5 Z " fill="#9481C1" transform="translate(582,604)"/>
<path d="M0,0 L2,2 L2,5 L-1,5 L-1,3 L-3,2 L0,2 Z " fill="#7C68A7" transform="translate(711,522)"/>
<path d="M0,0 L4,1 L0,5 Z " fill="#8777B6" transform="translate(640,524)"/>
<path d="M0,0 L3,1 L2,6 L0,6 Z M3,0 Z " fill="#7C6BAD" transform="translate(639,485)"/>
<path d="M0,0 L1,4 L-2,5 L-1,1 Z M-3,5 Z M-4,6 Z " fill="#8B72B4" transform="translate(708,438)"/>
<path d="M0,0 L1,3 L-1,6 L-3,2 Z " fill="#876BAE" transform="translate(587,390)"/>
<path d="M0,0 L4,0 L4,3 L-1,3 Z " fill="#8177AC" transform="translate(406,379)"/>
<path d="M0,0 L2,1 L-2,5 L-2,1 Z " fill="#8A79BD" transform="translate(651,520)"/>
<path d="M0,0 L1,3 L-1,3 L-1,5 L-4,4 L-4,2 L0,2 Z " fill="#6D5B94" transform="translate(549,433)"/>
<path d="M0,0 L2,0 L1,5 L-1,6 Z " fill="#7E67AC" transform="translate(596,416)"/>
<path d="M0,0 L4,2 L3,5 L0,2 Z M4,1 Z " fill="#BCA0F9" transform="translate(698,349)"/>
<path d="M0,0 L2,0 L4,5 L2,6 Z " fill="#8075AC" transform="translate(558,340)"/>
<path d="M0,0 L2,0 L2,2 L6,3 L0,4 Z " fill="#6B658E" transform="translate(548,332)"/>
<path d="M0,0 L2,0 L2,2 L4,2 L4,4 L0,4 Z " fill="#020105" transform="translate(364,322)"/>
<path d="M0,0 L4,1 L2,3 L-1,3 Z " fill="#7D74A9" transform="translate(372,691)"/>
<path d="M0,0 L4,1 L3,3 L-1,2 Z " fill="#7E76A8" transform="translate(455,651)"/>
<path d="M0,0 L1,2 L3,3 L-2,4 L-2,2 L0,2 Z " fill="#7868A6" transform="translate(596,613)"/>
<path d="M0,0 L4,0 L5,3 L0,2 Z " fill="#7C6AA9" transform="translate(648,461)"/>
<path d="M0,0 L1,0 L1,5 L-3,4 Z " fill="#7967A3" transform="translate(540,440)"/>
<path d="M0,0 L2,0 L4,4 L1,5 Z " fill="#826DB2" transform="translate(607,418)"/>
<path d="M0,0 Z M-2,1 L1,2 L-1,6 L-2,6 Z " fill="#837AA9" transform="translate(388,387)"/>
<path d="M0,0 L3,0 L3,2 L1,2 L1,4 L-1,4 Z " fill="#8379AF" transform="translate(430,367)"/>
<path d="M0,0 L2,0 L1,4 L-2,2 Z " fill="#1C1A26" transform="translate(374,696)"/>
<path d="M0,0 L2,0 L0,4 L-2,4 Z " fill="#170B22" transform="translate(732,638)"/>
<path d="M0,0 L3,0 L4,3 L0,3 Z " fill="#494364" transform="translate(314,536)"/>
<path d="M0,0 L2,3 L0,7 L-1,4 Z " fill="#826EAE" transform="translate(707,522)"/>
<path d="M0,0 L1,2 L3,2 L3,4 L-1,4 Z " fill="#111016" transform="translate(295,516)"/>
<path d="M0,0 L2,0 L1,5 L-1,3 Z " fill="#857CB0" transform="translate(313,503)"/>
<path d="M0,0 L3,1 L0,4 L-2,3 Z " fill="#8B76BA" transform="translate(680,446)"/>
<path d="M0,0 L2,4 L2,7 L0,6 Z " fill="#7D62B0" transform="translate(736,426)"/>
<path d="M0,0 L4,1 L1,4 Z " fill="#826BAF" transform="translate(601,417)"/>
</svg>
