<?xml version="1.0" encoding="UTF-8"?>
<!-- Generator: visioncortex VTracer 0.6.4 -->
<svg version="1.1" xmlns="http://www.w3.org/2000/svg" width="1024" height="1024">
<path d="M0,0 L1024,0 L1024,1024 L0,1024 Z " fill="#000000" transform="translate(0,0)"/>
<path d="M0,0 L10,0 L10,2 L12,2 L12,0 L14,0 L14,2 L16,2 L16,0 L18,0 L18,2 L20,2 L20,0 L22,0 L22,2 L24,2 L24,0 L26,0 L26,2 L28,2 L28,0 L30,0 L30,2 L32,2 L32,0 L34,0 L34,2 L36,2 L36,0 L50,0 L50,2 L52,2 L52,0 L54,0 L54,2 L56,2 L56,0 L58,0 L58,2 L60,2 L60,0 L74,0 L74,2 L76,2 L76,0 L78,0 L78,4 L80,4 L80,2 L82,2 L82,4 L85,2 L88,2 L88,0 L90,0 L90,2 L94,2 L94,4 L96,4 L96,2 L98,2 L98,4 L104,4 L104,6 L150,6 L150,8 L162,8 L162,6 L312,6 L312,4 L320,4 L320,6 L348,6 L350,9 L358,10 L358,12 L354,12 L354,16 L364,16 L364,18 L376,18 L376,20 L378,20 L378,24 L380,24 L380,26 L384,26 L384,30 L386,30 L386,32 L388,32 L388,36 L390,36 L390,38 L392,38 L392,42 L396,42 L396,46 L400,46 L400,48 L398,48 L398,56 L396,56 L396,58 L400,60 L400,64 L402,64 L404,67 L408,68 L408,78 L412,78 L412,86 L408,90 L412,90 L412,98 L414,98 L414,104 L410,108 L408,108 L408,116 L404,120 L402,120 L402,122 L396,122 L396,126 L390,126 L390,130 L392,130 L392,132 L389,134 L388,138 L386,138 L386,140 L382,140 L382,142 L380,142 L380,140 L376,140 L376,142 L374,142 L374,144 L372,144 L372,146 L374,146 L374,148 L370,152 L368,152 L368,156 L366,156 L366,166 L364,166 L364,168 L360,168 L360,160 L358,160 L358,166 L356,166 L356,168 L354,168 L354,172 L350,172 L350,174 L342,174 L342,176 L337,180 L336,184 L334,184 L334,186 L332,186 L332,188 L326,188 L326,190 L318,190 L318,192 L316,192 L316,194 L312,194 L312,198 L308,198 L308,202 L303,204 L300,208 L296,207 L294,206 L294,208 L290,208 L290,212 L288,212 L288,214 L286,214 L286,218 L280,218 L280,214 L277,216 L276,220 L274,220 L274,222 L272,222 L272,224 L267,226 L266,228 L264,228 L264,226 L260,226 L260,228 L256,228 L256,230 L242,231 L240,234 L235,236 L234,238 L136,238 L136,236 L134,236 L134,238 L124,238 L124,236 L116,236 L116,238 L106,238 L106,236 L104,236 L104,238 L66,238 L66,240 L64,240 L64,238 L56,238 L56,236 L12,236 L12,234 L7,236 L3,236 L2,238 L0,238 L0,236 L-4,236 L-4,234 L-8,234 L-8,230 L-12,228 L-12,226 L-18,226 L-20,223 L-23,224 L-24,226 L-26,226 L-26,224 L-28,224 L-28,220 L-32,220 L-32,218 L-36,218 L-36,212 L-44,212 L-48,208 L-48,206 L-52,206 L-52,202 L-56,202 L-56,200 L-60,200 L-62,195 L-68,190 L-68,186 L-70,186 L-70,178 L-72,178 L-72,180 L-74,180 L-74,178 L-78,178 L-82,173 L-84,172 L-84,168 L-88,168 L-88,166 L-94,166 L-94,164 L-92,164 L-92,162 L-94,162 L-94,160 L-112,160 L-112,154 L-114,154 L-114,152 L-118,152 L-118,150 L-120,150 L-120,144 L-129,144 L-132,142 L-132,140 L-126,140 L-126,138 L-130,136 L-130,134 L-136,134 L-136,126 L-138,126 L-138,124 L-146,124 L-146,112 L-142,113 L-140,114 L-140,110 L-136,110 L-136,108 L-134,108 L-134,106 L-130,106 L-130,104 L-128,104 L-128,102 L-120,102 L-120,94 L-116,94 L-116,92 L-114,92 L-114,90 L-110,90 L-108,86 L-106,86 L-106,88 L-104,88 L-104,86 L-102,86 L-102,80 L-104,80 L-104,78 L-102,78 L-102,76 L-100,76 L-100,70 L-96,70 L-96,60 L-94,60 L-94,54 L-96,54 L-96,50 L-92,50 L-92,46 L-86,46 L-86,42 L-80,42 L-80,28 L-78,28 L-78,26 L-66,26 L-66,24 L-64,24 L-64,22 L-54,22 L-54,20 L-50,20 L-50,18 L-48,18 L-48,16 L-44,16 L-44,12 L-42,12 L-42,10 L-38,10 L-38,8 L-36,8 L-36,6 L-30,6 L-28,2 L-24,2 L-24,4 L-16,4 L-16,2 L0,2 Z " fill="#405982" transform="translate(376,398)"/>
<path d="M0,0 L10,0 L10,2 L12,2 L12,0 L14,0 L14,2 L16,2 L16,0 L18,0 L18,2 L20,2 L20,0 L22,0 L22,2 L24,2 L24,0 L26,0 L26,2 L28,2 L28,0 L30,0 L30,2 L32,2 L32,0 L34,0 L34,2 L36,2 L36,0 L50,0 L50,2 L52,2 L52,0 L54,0 L54,2 L56,2 L56,0 L58,0 L58,2 L60,2 L60,0 L74,0 L74,2 L76,2 L76,0 L78,0 L78,4 L80,4 L80,2 L82,2 L82,4 L85,2 L88,2 L88,0 L90,0 L90,2 L94,2 L94,4 L96,4 L96,2 L98,2 L98,4 L104,4 L104,6 L150,6 L150,8 L162,8 L162,6 L312,6 L312,4 L320,4 L320,6 L348,6 L350,9 L358,10 L358,12 L354,12 L354,16 L364,16 L364,18 L376,18 L376,20 L378,20 L378,24 L380,24 L380,26 L384,26 L384,30 L386,30 L386,32 L388,32 L388,36 L390,36 L390,38 L392,38 L392,42 L396,42 L396,46 L400,46 L400,48 L398,48 L398,56 L396,56 L396,58 L400,60 L400,64 L402,64 L404,67 L408,68 L408,78 L412,78 L412,86 L408,90 L412,90 L412,98 L414,98 L414,104 L410,108 L408,108 L408,116 L404,120 L402,120 L402,122 L396,122 L396,126 L390,126 L390,130 L392,130 L392,132 L389,134 L388,138 L386,138 L386,140 L382,140 L382,142 L380,142 L380,140 L376,140 L376,142 L374,142 L374,144 L372,144 L372,146 L374,146 L374,148 L370,152 L368,152 L368,156 L366,156 L366,166 L364,166 L364,168 L360,168 L360,160 L358,160 L358,166 L356,166 L356,168 L354,168 L354,172 L350,172 L350,174 L342,174 L342,176 L337,180 L336,184 L334,184 L334,186 L332,186 L332,188 L326,188 L326,190 L318,190 L318,192 L316,192 L316,194 L312,194 L312,198 L308,198 L308,202 L303,204 L300,208 L296,207 L294,206 L294,208 L290,208 L290,212 L288,212 L288,214 L286,214 L286,218 L280,218 L280,214 L277,216 L276,220 L274,220 L274,222 L272,222 L272,224 L267,226 L266,228 L264,228 L264,226 L260,226 L260,228 L256,228 L256,230 L242,231 L240,234 L235,236 L234,238 L136,238 L136,236 L134,236 L134,238 L124,238 L124,236 L116,236 L116,238 L106,238 L106,236 L104,236 L104,238 L66,238 L66,240 L64,240 L64,238 L56,238 L56,236 L12,236 L12,234 L7,236 L3,236 L2,238 L0,238 L0,236 L-4,236 L-4,234 L-8,234 L-8,230 L-12,228 L-12,226 L-18,226 L-20,223 L-23,224 L-24,226 L-26,226 L-26,224 L-28,224 L-28,220 L-32,220 L-32,218 L-36,218 L-36,212 L-44,212 L-48,208 L-48,206 L-52,206 L-52,202 L-56,202 L-56,200 L-60,200 L-62,195 L-68,190 L-68,186 L-70,186 L-70,178 L-72,178 L-72,180 L-74,180 L-74,178 L-78,178 L-82,173 L-84,172 L-84,168 L-88,168 L-88,166 L-94,166 L-94,164 L-92,164 L-92,162 L-94,162 L-94,160 L-112,160 L-112,154 L-114,154 L-114,152 L-118,152 L-118,150 L-120,150 L-120,144 L-129,144 L-132,142 L-132,140 L-126,140 L-126,138 L-130,136 L-130,134 L-136,134 L-136,126 L-138,126 L-138,124 L-146,124 L-146,112 L-142,113 L-140,114 L-140,110 L-136,110 L-136,108 L-134,108 L-134,106 L-130,106 L-130,104 L-128,104 L-128,102 L-120,102 L-120,94 L-116,94 L-116,92 L-114,92 L-114,90 L-110,90 L-108,86 L-106,86 L-106,88 L-104,88 L-104,86 L-102,86 L-102,80 L-104,80 L-104,78 L-102,78 L-102,76 L-100,76 L-100,70 L-96,70 L-96,60 L-94,60 L-94,54 L-96,54 L-96,50 L-92,50 L-92,46 L-86,46 L-86,42 L-80,42 L-80,28 L-78,28 L-78,26 L-66,26 L-66,24 L-64,24 L-64,22 L-54,22 L-54,20 L-50,20 L-50,18 L-48,18 L-48,16 L-44,16 L-44,12 L-42,12 L-42,10 L-38,10 L-38,8 L-36,8 L-36,6 L-30,6 L-28,2 L-24,2 L-24,4 L-16,4 L-16,2 L0,2 Z M65,19 L48,20 L41,21 L24,22 L16,24 L16,22 L14,22 L14,24 L9,25 L6,22 L1,21 L-7,21 L-10,21 L-25,21 L-27,24 L-26,27 L-28,40 L-32,46 L-32,50 L-35,51 L-40,61 L-43,64 L-43,68 L-47,69 L-48,82 L-47,84 L-49,84 L-55,92 L-53,92 L-52,94 L-48,93 L-52,98 L-55,103 L-61,103 L-64,106 L-67,111 L-66,101 L-68,98 L-66,98 L-67,94 L-71,94 L-72,92 L-68,93 L-67,85 L-71,82 L-74,82 L-79,83 L-80,88 L-80,99 L-84,101 L-86,104 L-88,105 L-89,106 L-92,106 L-94,110 L-93,117 L-95,114 L-96,109 L-100,111 L-104,112 L-105,110 L-110,111 L-112,113 L-115,111 L-116,116 L-115,125 L-116,126 L-116,123 L-118,123 L-119,125 L-119,122 L-121,112 L-124,112 L-127,114 L-129,111 L-136,111 L-137,116 L-139,118 L-138,122 L-133,126 L-131,130 L-127,134 L-125,134 L-125,136 L-122,137 L-120,139 L-119,135 L-120,142 L-118,142 L-117,144 L-114,143 L-113,146 L-107,147 L-104,143 L-104,138 L-101,137 L-100,136 L-100,143 L-96,143 L-94,138 L-89,136 L-85,134 L-84,138 L-82,143 L-80,142 L-78,140 L-78,151 L-72,151 L-69,151 L-67,150 L-68,142 L-64,144 L-60,144 L-60,151 L-58,152 L-52,150 L-49,152 L-51,153 L-50,157 L-48,158 L-50,162 L-52,163 L-51,168 L-45,169 L-43,168 L-40,169 L-42,171 L-42,175 L-40,175 L-40,177 L-38,177 L-37,175 L-27,175 L-24,174 L-25,178 L-24,179 L-24,186 L-17,186 L-14,186 L-16,190 L-9,190 L-10,194 L-8,193 L-8,191 L-5,191 L-5,194 L-2,195 L0,194 L0,197 L7,198 L5,202 L8,203 L14,201 L40,201 L40,193 L44,191 L44,187 L40,186 L40,183 L43,183 L43,185 L52,186 L65,186 L68,187 L69,184 L78,185 L72,187 L72,190 L80,191 L80,193 L76,194 L73,196 L77,198 L78,201 L83,201 L83,199 L87,199 L87,201 L77,202 L72,205 L72,210 L72,211 L63,212 L62,217 L64,217 L64,219 L66,219 L66,221 L77,221 L72,223 L71,227 L102,226 L103,229 L106,224 L108,223 L108,225 L122,225 L128,223 L128,225 L142,225 L147,223 L146,219 L168,219 L166,225 L170,225 L171,222 L200,221 L202,219 L206,220 L211,218 L212,217 L212,212 L210,209 L220,209 L222,208 L219,214 L215,216 L214,219 L218,219 L217,221 L232,222 L232,226 L237,225 L237,223 L239,223 L239,226 L257,226 L258,222 L263,222 L263,220 L266,221 L271,219 L273,215 L277,212 L277,210 L286,208 L289,209 L288,202 L298,203 L304,198 L304,195 L308,193 L310,191 L315,189 L315,187 L324,186 L324,184 L331,183 L332,177 L320,178 L315,176 L309,178 L304,177 L304,175 L298,176 L294,177 L290,178 L288,179 L289,175 L287,175 L286,172 L280,175 L274,179 L273,180 L272,176 L268,177 L266,177 L264,176 L266,176 L267,171 L266,169 L272,168 L273,162 L278,160 L291,159 L293,156 L298,157 L304,153 L318,151 L319,148 L322,147 L322,143 L324,143 L327,136 L330,135 L333,131 L335,126 L335,120 L342,120 L343,118 L344,106 L345,103 L348,102 L349,92 L352,87 L354,86 L351,77 L350,74 L349,55 L346,51 L344,51 L343,42 L339,42 L338,37 L331,33 L325,33 L325,27 L317,25 L302,24 L302,21 L300,20 L290,19 L198,20 L188,22 L180,24 L166,24 L146,26 L134,25 L116,24 L113,21 L110,22 L104,23 L100,24 L92,24 L88,25 L86,26 L86,24 L82,25 L82,22 L79,22 L79,20 L68,20 Z M-28,24 Z M-96,108 Z M-135,125 Z M-106,112 Z M202,217 Z " fill="#2D3556" transform="translate(376,398)"/>
<path d="M0,0 L54,0 L62,1 L81,1 L104,2 L110,4 L124,4 L126,3 L126,5 L188,6 L188,4 L196,3 L322,3 L327,6 L326,9 L335,11 L337,17 L343,20 L345,25 L347,26 L349,33 L352,33 L355,38 L355,41 L359,42 L361,43 L361,47 L363,47 L365,57 L368,58 L372,69 L370,73 L371,76 L368,77 L368,74 L365,76 L364,83 L361,88 L359,88 L359,92 L362,92 L362,88 L365,89 L366,92 L370,83 L373,85 L376,84 L375,90 L369,92 L368,102 L365,108 L363,108 L362,112 L359,111 L359,107 L356,110 L354,117 L353,118 L352,125 L347,129 L344,139 L338,143 L336,146 L331,148 L331,150 L328,152 L320,151 L320,153 L315,154 L313,159 L309,161 L300,161 L300,163 L296,167 L291,167 L290,165 L284,168 L279,171 L276,174 L276,169 L272,170 L270,171 L270,169 L264,169 L268,167 L270,168 L270,161 L266,160 L276,160 L276,154 L282,151 L295,151 L297,147 L302,148 L308,144 L313,143 L322,143 L323,139 L326,139 L326,135 L328,135 L330,128 L334,127 L336,123 L338,118 L339,112 L346,112 L347,98 L349,94 L352,94 L352,84 L356,78 L357,77 L356,77 L354,69 L353,66 L352,47 L348,43 L347,34 L343,34 L342,29 L336,27 L329,25 L329,19 L308,17 L306,16 L306,13 L294,12 L202,13 L192,15 L184,17 L170,17 L150,19 L138,18 L120,17 L117,14 L114,15 L108,16 L104,17 L96,17 L92,18 L90,18 L90,16 L86,17 L86,14 L83,14 L83,12 L72,13 L69,12 L52,13 L45,14 L28,15 L26,16 L20,16 L20,14 L18,14 L18,16 L13,18 L10,15 L5,14 L-3,14 L-6,14 L-21,14 L-22,16 L-21,19 L-23,32 L-27,38 L-28,42 L-30,43 L-35,53 L-38,56 L-39,60 L-42,61 L-43,74 L-43,76 L-45,76 L-47,80 L-50,83 L-48,85 L-43,83 L-45,87 L-47,91 L-52,96 L-57,96 L-63,104 L-64,104 L-64,99 L-63,94 L-64,90 L-62,90 L-63,87 L-68,87 L-68,84 L-64,85 L-64,77 L-67,75 L-69,77 L-70,75 L-75,76 L-75,92 L-79,93 L-81,97 L-83,97 L-84,99 L-87,98 L-89,102 L-88,109 L-90,110 L-93,102 L-96,104 L-100,105 L-101,102 L-106,104 L-109,106 L-111,104 L-111,114 L-110,118 L-112,118 L-112,115 L-114,115 L-115,119 L-117,115 L-116,112 L-117,110 L-117,104 L-113,100 L-110,99 L-109,95 L-104,93 L-100,93 L-99,86 L-95,84 L-94,82 L-90,82 L-89,78 L-84,78 L-83,73 L-80,72 L-80,69 L-66,68 L-66,63 L-63,62 L-64,60 L-66,61 L-64,57 L-62,56 L-62,47 L-64,46 L-64,44 L-60,40 L-60,34 L-58,31 L-56,31 L-55,27 L-57,22 L-52,18 L-46,15 L-44,15 L-44,13 L-42,13 L-43,17 L-47,22 L-48,24 L-50,24 L-48,26 L-48,29 L-47,24 L-44,21 L-42,23 L-38,21 L-37,18 L-32,19 L-31,14 L-28,14 L-28,11 L-25,11 L-25,9 L-23,9 L-22,5 L-18,2 Z M-24,16 Z M-92,100 Z M-42,12 Z M-43,19 Z M-44,20 Z M-102,104 Z " fill="#32405E" transform="translate(372,406)"/>
<path d="M0,0 L3,0 L6,8 L10,6 L11,12 L10,17 L16,16 L19,16 L21,16 L20,14 L20,8 L28,10 L29,17 L36,15 L40,18 L37,19 L38,22 L41,24 L39,29 L37,29 L37,34 L43,34 L45,33 L49,35 L47,37 L46,41 L48,41 L48,43 L50,43 L51,40 L64,40 L65,45 L64,52 L70,51 L74,50 L77,51 L72,56 L79,56 L79,59 L80,57 L83,57 L83,60 L88,60 L88,63 L95,64 L95,68 L101,68 L102,66 L125,66 L128,67 L127,59 L131,57 L132,53 L127,53 L128,49 L131,49 L131,51 L153,51 L156,52 L157,50 L166,50 L167,52 L161,53 L160,56 L168,57 L168,59 L162,62 L166,64 L166,67 L171,67 L171,65 L175,65 L175,67 L179,68 L165,69 L160,71 L160,76 L162,77 L160,78 L151,79 L150,83 L152,83 L152,85 L154,85 L154,87 L165,86 L166,88 L160,90 L159,93 L161,92 L190,92 L191,94 L194,89 L196,89 L196,91 L210,90 L216,89 L216,91 L223,90 L230,90 L234,88 L234,85 L231,84 L256,84 L257,86 L255,90 L258,93 L256,95 L241,95 L240,98 L238,98 L237,95 L236,97 L234,97 L232,95 L224,93 L224,95 L222,96 L204,97 L189,97 L188,100 L144,101 L101,101 L103,96 L107,94 L104,93 L97,92 L98,97 L100,97 L100,99 L98,99 L97,102 L92,101 L90,104 L88,104 L88,102 L84,102 L84,100 L80,100 L80,96 L76,94 L76,92 L70,92 L68,89 L65,90 L64,92 L62,92 L62,90 L60,90 L60,86 L56,86 L56,84 L52,84 L52,78 L44,78 L40,74 L40,72 L36,72 L36,68 L32,68 L32,66 L28,66 L26,61 L20,56 L20,52 L18,52 L18,44 L16,44 L16,46 L14,46 L14,44 L10,44 L6,39 L4,38 L4,34 L0,34 L0,32 L-6,32 L-6,30 L-4,30 L-4,28 L-6,28 L-6,25 L-23,25 L-23,20 L-21,20 L-21,23 L-15,22 L-22,19 L-25,19 L-26,17 L-29,17 L-29,9 L-26,8 L-25,12 L-19,12 L-18,9 L-16,9 L-16,4 L-12,2 L-12,9 L-8,9 L-7,2 L-6,4 Z " fill="#2B3A56" transform="translate(288,532)"/>
<path d="M0,0 L1,0 L1,8 L3,8 L2,0 L6,1 L4,1 L4,9 L0,13 L-2,13 L-2,15 L-8,15 L-8,19 L-14,19 L-14,23 L-12,23 L-12,25 L-15,27 L-16,31 L-18,31 L-18,33 L-22,33 L-22,35 L-24,35 L-24,33 L-28,33 L-28,35 L-30,35 L-30,37 L-32,37 L-32,39 L-30,39 L-30,41 L-34,45 L-36,45 L-36,49 L-38,49 L-38,59 L-40,59 L-40,61 L-44,61 L-44,53 L-46,53 L-46,59 L-48,59 L-48,61 L-50,61 L-50,65 L-54,65 L-54,67 L-62,67 L-62,69 L-67,73 L-68,77 L-70,77 L-70,79 L-72,79 L-72,81 L-78,81 L-78,83 L-86,83 L-86,85 L-88,85 L-88,87 L-92,87 L-92,91 L-96,91 L-96,95 L-101,97 L-104,101 L-108,100 L-110,99 L-110,101 L-114,101 L-114,105 L-116,105 L-116,107 L-118,107 L-118,111 L-124,111 L-124,107 L-127,109 L-128,113 L-130,113 L-130,115 L-132,115 L-132,117 L-137,119 L-138,121 L-140,121 L-140,119 L-144,119 L-144,121 L-148,121 L-148,123 L-162,124 L-164,127 L-169,129 L-170,131 L-268,131 L-268,129 L-270,129 L-270,131 L-280,131 L-280,129 L-288,129 L-288,131 L-298,131 L-298,129 L-300,129 L-300,131 L-338,131 L-338,133 L-340,133 L-340,131 L-348,131 L-348,129 L-392,129 L-392,127 L-394,126 L-392,126 L-392,124 L-394,124 L-395,119 L-386,119 L-384,121 L-389,124 L-391,128 L-304,126 L-303,124 L-300,123 L-280,123 L-268,122 L-268,120 L-262,120 L-258,121 L-258,124 L-256,124 L-255,121 L-254,125 L-252,125 L-251,121 L-236,121 L-233,114 L-204,113 L-202,111 L-198,112 L-193,110 L-193,105 L-194,102 L-188,101 L-182,101 L-184,107 L-189,110 L-190,112 L-185,111 L-186,113 L-171,114 L-172,119 L-168,118 L-167,116 L-165,116 L-165,119 L-148,118 L-146,117 L-146,115 L-141,115 L-141,113 L-134,112 L-131,107 L-125,102 L-118,100 L-115,102 L-116,95 L-110,94 L-106,95 L-101,91 L-100,88 L-97,86 L-95,83 L-89,82 L-89,80 L-87,79 L-80,79 L-80,77 L-73,76 L-72,70 L-84,72 L-89,70 L-95,72 L-100,70 L-98,66 L-95,64 L-92,64 L-92,62 L-85,61 L-82,59 L-75,59 L-76,62 L-72,61 L-72,55 L-69,52 L-66,47 L-60,43 L-58,39 L-53,34 L-49,20 L-46,19 L-45,14 L-40,10 L-38,13 L-34,14 L-32,17 L-32,20 L-32,23 L-27,19 L-24,18 L-24,21 L-20,20 L-19,17 L-9,18 L-9,14 L-3,14 L-3,12 L-8,12 L-4,11 L-3,7 L0,7 Z M-202,110 Z " fill="#273552" transform="translate(780,505)"/>
<path d="M0,0 L22,0 L22,3 L26,3 L26,6 L39,7 L40,10 L47,11 L50,15 L50,17 L55,18 L57,17 L57,24 L59,24 L60,31 L64,32 L65,35 L64,43 L64,61 L62,64 L59,74 L56,75 L56,80 L54,80 L54,83 L52,84 L49,98 L46,98 L46,100 L42,100 L41,107 L38,111 L30,112 L28,111 L26,116 L20,117 L4,117 L4,119 L-16,119 L-16,117 L-21,116 L-18,114 L2,114 L5,113 L6,108 L10,107 L16,107 L20,108 L29,107 L36,107 L36,105 L39,105 L39,103 L36,103 L36,100 L40,99 L40,97 L41,96 L40,92 L37,93 L35,91 L29,91 L32,89 L36,88 L38,81 L40,82 L41,83 L46,82 L48,79 L50,73 L52,72 L52,63 L55,63 L53,48 L49,52 L48,47 L49,39 L50,41 L55,41 L54,33 L55,26 L49,27 L49,17 L46,18 L46,16 L42,16 L42,14 L36,16 L32,16 L19,14 L19,12 L14,14 L10,14 L10,12 L4,16 L2,16 L2,24 L4,25 L3,26 L-4,26 L-9,25 L-12,25 L-12,23 L-38,24 L-43,25 L-62,26 L-72,28 L-76,29 L-76,27 L-87,25 L-90,25 L-95,25 L-99,27 L-106,24 L-106,18 L-110,16 L-92,15 L-90,15 L-90,11 L-84,9 L-83,6 L-76,6 L-76,8 L-7,8 L-4,9 L-3,7 L-1,6 Z M39,84 Z M4,23 Z " fill="#485E84" transform="translate(652,425)"/>
<path d="M0,0 L18,0 L28,1 L30,2 L30,5 L45,6 L53,8 L53,14 L59,14 L66,18 L67,23 L71,23 L72,32 L76,34 L77,36 L78,57 L80,60 L81,65 L82,67 L79,70 L77,73 L76,83 L73,84 L72,87 L71,99 L70,101 L63,101 L63,107 L60,113 L58,116 L55,117 L52,124 L50,124 L50,128 L47,129 L46,132 L32,134 L25,138 L21,137 L19,140 L6,141 L0,143 L-5,145 L-7,146 L-7,141 L1,134 L7,132 L22,132 L26,131 L36,131 L37,126 L42,127 L43,123 L48,120 L51,117 L54,105 L56,101 L60,100 L62,91 L66,89 L68,83 L69,74 L70,73 L70,40 L68,37 L68,33 L66,33 L65,27 L63,27 L62,21 L60,21 L60,19 L55,19 L45,15 L42,11 L34,10 L34,8 L28,7 L-8,7 L-84,8 L-89,11 L-92,11 L-92,9 L-94,10 L-103,11 L-104,14 L-102,15 L-105,18 L-122,19 L-120,18 L-120,16 L-136,16 L-137,15 L-144,16 L-158,15 L-158,14 L-138,14 L-137,11 L-135,11 L-134,8 L-139,9 L-141,8 L-150,9 L-160,10 L-163,9 L-168,12 L-168,9 L-174,9 L-177,11 L-180,11 L-183,9 L-188,10 L-195,10 L-199,11 L-200,8 L-203,6 L-192,5 L-192,3 L-190,3 L-190,6 L-186,5 L-186,7 L-182,5 L-178,5 L-169,5 L-165,3 L-160,3 L-158,2 L-156,5 L-138,6 L-126,7 L-104,5 L-92,5 L-76,2 L-74,1 Z M-92,8 Z " fill="#3C5178" transform="translate(648,417)"/>
<path d="M0,0 L28,0 L34,1 L34,3 L54,3 L54,5 L61,6 L116,8 L142,8 L170,7 L174,6 L276,5 L282,7 L298,8 L300,12 L311,18 L312,23 L319,25 L321,32 L317,32 L316,27 L310,25 L303,23 L303,17 L282,15 L280,14 L280,11 L268,10 L176,11 L166,13 L158,15 L144,15 L124,17 L112,16 L94,15 L91,12 L88,13 L82,14 L78,15 L70,15 L66,16 L64,16 L64,14 L60,15 L60,12 L57,12 L57,10 L46,11 L43,10 L26,11 L19,12 L2,13 L0,14 L-6,14 L-6,12 L-8,12 L-8,14 L-13,16 L-16,13 L-21,12 L-29,12 L-32,12 L-42,12 L-44,10 L-40,7 L-31,6 L-28,4 L-26,5 L-26,3 L-17,1 Z " fill="#38496B" transform="translate(398,408)"/>
<path d="M0,0 L4,1 L4,3 L6,3 L9,11 L10,13 L13,14 L17,24 L21,24 L25,35 L23,39 L24,42 L21,43 L21,40 L18,42 L17,49 L14,54 L12,54 L12,58 L15,58 L15,54 L18,55 L19,58 L23,49 L26,51 L29,50 L28,56 L22,58 L21,68 L18,74 L16,74 L15,78 L12,77 L12,73 L9,76 L7,83 L6,84 L5,91 L0,95 L-3,105 L-9,109 L-11,112 L-16,114 L-16,116 L-19,118 L-27,117 L-27,119 L-32,120 L-34,125 L-38,127 L-47,127 L-47,129 L-51,133 L-56,133 L-57,131 L-63,134 L-68,137 L-71,140 L-71,135 L-75,136 L-77,137 L-77,135 L-83,135 L-79,133 L-77,134 L-77,127 L-81,126 L-71,126 L-71,120 L-65,117 L-52,117 L-50,113 L-45,114 L-39,110 L-34,109 L-25,109 L-24,105 L-21,105 L-21,101 L-19,101 L-17,94 L-13,93 L-11,89 L-9,84 L-8,78 L-1,78 L0,64 L2,60 L5,60 L5,50 L9,44 L10,43 L9,43 L7,35 L6,32 L5,13 L1,9 Z " fill="#30446F" transform="translate(719,440)"/>
<path d="M0,0 L9,0 L10,2 L13,1 L14,4 L16,3 L19,9 L15,14 L14,21 L11,25 L9,25 L11,27 L12,27 L12,37 L9,40 L10,43 L8,44 L7,49 L1,50 L-7,50 L-7,53 L-10,55 L-11,59 L-16,60 L-17,63 L-21,63 L-22,66 L-25,67 L-27,74 L-36,76 L-37,81 L-42,84 L-47,86 L-50,88 L-52,85 L-58,85 L-60,90 L-61,94 L-55,99 L-54,102 L-48,107 L-48,109 L-44,109 L-42,105 L-41,108 L-42,114 L-40,117 L-40,124 L-35,123 L-36,126 L-33,125 L-23,129 L-23,130 L-32,130 L-32,127 L-34,127 L-34,132 L-17,132 L-17,133 L-35,133 L-35,127 L-37,127 L-37,125 L-41,125 L-41,123 L-43,123 L-43,117 L-52,117 L-55,115 L-55,113 L-49,113 L-49,111 L-53,109 L-53,107 L-59,107 L-59,99 L-61,99 L-61,97 L-69,97 L-69,85 L-65,86 L-63,87 L-63,83 L-59,83 L-59,81 L-57,81 L-57,79 L-53,79 L-53,77 L-51,77 L-51,75 L-43,75 L-43,67 L-39,67 L-39,65 L-37,65 L-37,63 L-33,63 L-31,59 L-29,59 L-29,61 L-27,61 L-27,59 L-25,59 L-25,53 L-27,53 L-27,51 L-25,51 L-25,49 L-23,49 L-23,43 L-19,43 L-19,33 L-17,33 L-17,27 L-19,27 L-19,23 L-15,23 L-15,19 L-9,19 L-9,15 L-2,15 L-2,4 L2,4 L3,3 L0,2 Z M-58,98 Z " fill="#2E3B55" transform="translate(299,425)"/>
<path d="M0,0 L1,0 L1,8 L3,8 L2,0 L6,1 L4,1 L4,9 L0,13 L-2,13 L-2,15 L-8,15 L-8,19 L-14,19 L-14,23 L-12,23 L-12,25 L-15,27 L-16,31 L-18,31 L-18,33 L-22,33 L-22,35 L-24,35 L-24,33 L-28,33 L-28,35 L-30,35 L-30,37 L-32,37 L-32,39 L-30,39 L-30,41 L-34,45 L-36,45 L-36,49 L-38,49 L-38,59 L-40,59 L-40,61 L-44,61 L-44,53 L-47,53 L-47,58 L-49,56 L-49,60 L-63,62 L-66,66 L-68,66 L-68,63 L-70,63 L-70,69 L-75,71 L-84,72 L-89,70 L-95,72 L-100,70 L-98,66 L-95,64 L-92,64 L-92,62 L-85,61 L-82,59 L-75,59 L-76,62 L-72,61 L-72,55 L-69,52 L-66,47 L-60,43 L-58,39 L-53,34 L-49,20 L-46,19 L-45,14 L-40,10 L-38,13 L-34,14 L-32,17 L-32,20 L-32,23 L-27,19 L-24,18 L-24,21 L-20,20 L-19,17 L-9,18 L-9,14 L-3,14 L-3,12 L-8,12 L-4,11 L-3,7 L0,7 Z " fill="#273456" transform="translate(780,505)"/>
<path d="M0,0 L36,0 L42,2 L42,4 L50,4 L53,7 L53,9 L59,10 L68,13 L68,15 L70,15 L71,21 L73,21 L74,27 L76,27 L79,34 L79,57 L76,66 L75,63 L75,41 L76,35 L72,33 L71,26 L69,26 L67,22 L65,20 L62,19 L59,15 L59,13 L52,12 L51,10 L38,8 L38,5 L34,5 L34,2 L12,2 L12,8 L8,11 L-64,10 L-64,8 L-71,9 L-74,12 L-76,11 L-76,10 L-80,9 L-82,11 L-87,11 L-88,14 L-90,14 L-90,12 L-94,16 L-99,15 L-108,18 L-112,19 L-112,17 L-128,17 L-128,13 L-114,13 L-110,12 L-97,11 L-95,9 L-96,5 L-95,4 L-84,3 L-84,5 L-76,1 Z M-84,2 Z " fill="#42597E" transform="translate(640,423)"/>
<path d="M0,0 L2,1 L0,6 L-3,7 L-4,20 L-4,22 L-6,22 L-8,26 L-11,29 L-9,31 L-4,29 L-6,33 L-8,37 L-13,42 L-18,42 L-24,50 L-25,50 L-25,45 L-24,40 L-25,36 L-23,36 L-24,33 L-29,33 L-29,30 L-25,31 L-25,23 L-28,21 L-30,23 L-31,21 L-36,22 L-36,38 L-40,39 L-42,43 L-44,43 L-45,45 L-48,44 L-50,48 L-49,55 L-51,56 L-54,48 L-57,50 L-61,51 L-62,48 L-67,50 L-70,52 L-72,50 L-72,60 L-71,64 L-73,64 L-73,61 L-75,61 L-76,65 L-78,61 L-77,58 L-78,56 L-78,50 L-74,46 L-71,45 L-70,41 L-65,39 L-61,39 L-60,32 L-56,30 L-55,28 L-51,28 L-50,24 L-45,24 L-44,19 L-41,18 L-41,15 L-27,14 L-27,9 L-24,8 L-23,4 L-22,5 L-20,2 L-18,3 L-20,6 L-16,7 L-17,11 L-15,11 L-15,14 L-10,12 L-9,8 L-2,4 Z M-53,46 Z M-15,10 Z M-63,50 Z " fill="#334661" transform="translate(333,460)"/>
<path d="M0,0 L3,0 L3,2 L25,2 L28,3 L29,1 L38,1 L39,3 L33,4 L32,7 L40,8 L40,10 L34,13 L38,15 L38,18 L43,18 L43,16 L47,16 L47,18 L51,19 L37,20 L32,22 L32,27 L34,28 L32,29 L23,30 L18,32 L13,31 L9,31 L8,29 L6,30 L0,30 L0,28 L-11,29 L-12,26 L-17,28 L-24,29 L-27,31 L-27,28 L-33,28 L-35,26 L-35,19 L-27,19 L-26,17 L-3,17 L0,18 L-1,10 L3,8 L4,4 L-1,4 Z " fill="#354666" transform="translate(416,581)"/>
<path d="M0,0 L2,1 L2,3 L7,4 L9,3 L9,10 L11,10 L12,17 L16,18 L17,21 L16,29 L16,47 L14,50 L11,60 L8,61 L8,66 L6,66 L6,69 L4,70 L1,84 L-2,84 L-2,86 L-6,86 L-7,93 L-10,97 L-18,98 L-20,97 L-22,102 L-28,103 L-44,103 L-44,105 L-64,105 L-64,103 L-69,102 L-66,100 L-46,100 L-43,99 L-42,94 L-38,93 L-32,93 L-28,94 L-19,93 L-12,93 L-12,91 L-9,91 L-9,89 L-12,89 L-12,86 L-8,85 L-8,83 L-7,82 L-8,78 L-11,79 L-13,77 L-19,77 L-16,75 L-12,74 L-10,67 L-8,68 L-7,69 L-2,68 L0,65 L2,59 L4,58 L4,49 L7,49 L5,34 L1,38 L0,33 L1,25 L2,27 L7,27 L6,19 L7,12 L1,13 Z M-9,70 Z " fill="#435D88" transform="translate(700,439)"/>
<path d="M0,0 L54,0 L54,1 L8,2 L4,3 L-10,3 L-16,4 L-16,8 L-18,8 L-18,10 L-22,10 L-23,14 L-25,14 L-25,20 L-24,23 L-25,27 L-26,32 L-28,32 L-28,34 L-33,36 L-37,38 L-39,39 L-41,44 L-44,45 L-45,50 L-47,51 L-49,63 L-49,66 L-54,68 L-54,65 L-56,65 L-56,61 L-59,60 L-59,57 L-62,60 L-64,60 L-66,61 L-64,57 L-62,56 L-62,47 L-64,46 L-64,44 L-60,40 L-60,34 L-58,31 L-56,31 L-55,27 L-57,22 L-52,18 L-46,15 L-44,15 L-44,13 L-42,13 L-43,17 L-47,22 L-48,24 L-50,24 L-48,26 L-48,29 L-47,24 L-44,21 L-42,23 L-38,21 L-37,18 L-32,19 L-31,14 L-28,14 L-28,11 L-25,11 L-25,9 L-23,9 L-22,5 L-18,2 Z M-54,64 Z M-42,12 Z M-43,19 Z M-44,20 Z " fill="#2D3D5D" transform="translate(372,406)"/>
<path d="M0,0 L28,0 L34,1 L34,3 L54,3 L54,5 L61,6 L116,8 L142,8 L170,7 L174,6 L276,5 L282,7 L298,8 L298,9 L182,9 L144,11 L114,11 L114,9 L102,10 L68,10 L20,8 L-16,7 L-33,10 L-36,12 L-42,12 L-44,10 L-40,7 L-31,6 L-28,4 L-26,5 L-26,3 L-17,1 Z " fill="#374664" transform="translate(398,408)"/>
<path d="M0,0 L2,3 L4,0 L4,6 L2,6 L2,8 L0,8 L0,12 L-4,12 L-4,14 L-12,14 L-12,16 L-17,20 L-18,24 L-20,24 L-20,26 L-22,26 L-22,28 L-28,28 L-28,30 L-36,30 L-36,32 L-38,32 L-38,34 L-42,34 L-42,38 L-46,38 L-46,42 L-51,44 L-54,48 L-58,47 L-60,46 L-60,48 L-64,48 L-64,52 L-66,52 L-66,54 L-68,54 L-68,58 L-74,58 L-74,54 L-77,56 L-78,60 L-80,60 L-80,62 L-82,62 L-82,64 L-87,66 L-88,68 L-90,68 L-90,66 L-94,66 L-94,68 L-98,68 L-98,70 L-112,71 L-114,74 L-119,76 L-120,78 L-218,78 L-218,77 L-121,77 L-121,75 L-217,75 L-217,74 L-122,74 L-122,72 L-119,71 L-117,72 L-116,68 L-114,68 L-114,66 L-98,65 L-96,64 L-96,62 L-91,62 L-91,60 L-84,59 L-81,54 L-75,49 L-68,47 L-65,49 L-66,42 L-60,41 L-56,42 L-51,38 L-50,35 L-47,33 L-45,30 L-39,29 L-39,27 L-37,26 L-30,26 L-30,24 L-23,23 L-22,16 L-20,16 L-20,10 L-18,10 L-18,13 L-13,8 L-3,7 L-1,6 L1,7 Z M-119,70 Z " fill="#212D48" transform="translate(730,558)"/>
<path d="M0,0 L3,0 L6,8 L10,6 L11,12 L10,17 L16,16 L19,16 L21,16 L20,14 L20,8 L28,10 L29,17 L36,15 L40,18 L37,19 L38,22 L41,24 L39,29 L37,29 L37,34 L43,34 L45,33 L49,35 L47,37 L45,44 L44,42 L32,42 L30,44 L25,43 L24,36 L20,34 L19,28 L15,28 L15,26 L5,24 L3,22 L4,17 L-2,18 L-2,16 L-5,16 L-4,11 L-6,11 L-6,9 L-8,9 L-7,2 L-6,4 Z M43,44 Z " fill="#374761" transform="translate(288,532)"/>
<path d="M0,0 L18,0 L28,1 L30,2 L30,5 L32,6 L28,5 L24,4 L-2,3 L-2,5 L-14,6 L-82,6 L-98,8 L-100,9 L-107,9 L-117,10 L-118,14 L-127,15 L-134,14 L-135,11 L-134,8 L-139,9 L-141,8 L-150,9 L-160,10 L-163,9 L-168,12 L-168,9 L-174,9 L-177,11 L-180,11 L-183,9 L-188,10 L-195,10 L-199,11 L-200,8 L-203,6 L-192,5 L-192,3 L-190,3 L-190,6 L-186,5 L-186,7 L-182,5 L-178,5 L-169,5 L-165,3 L-160,3 L-158,2 L-156,5 L-138,6 L-126,7 L-104,5 L-92,5 L-76,2 L-74,1 Z " fill="#384C72" transform="translate(648,417)"/>
<path d="M0,0 L5,0 L5,23 L-1,23 L-3,20 L-7,24 L-8,28 L-10,29 L-14,43 L-18,48 L-20,49 L-23,54 L-29,58 L-32,63 L-34,70 L-38,71 L-38,69 L-45,69 L-49,71 L-54,71 L-54,73 L-60,76 L-67,79 L-72,80 L-78,81 L-77,77 L-74,77 L-72,73 L-70,73 L-70,71 L-60,70 L-56,66 L-55,64 L-50,63 L-50,61 L-42,61 L-38,56 L-34,55 L-30,50 L-27,49 L-24,39 L-19,35 L-18,28 L-16,26 L-14,18 L-11,17 L-11,21 L-8,21 L-7,18 L-5,18 L-4,14 L-3,12 L-2,2 Z " fill="#293A63" transform="translate(742,496)"/>
<path d="M0,0 L4,1 L4,3 L6,3 L9,11 L10,13 L13,14 L17,24 L21,24 L25,35 L23,39 L24,42 L21,43 L21,40 L18,42 L17,49 L14,54 L12,54 L12,56 L7,59 L8,68 L6,75 L3,79 L1,79 L0,84 L-2,85 L-7,84 L-6,87 L-7,92 L-9,92 L-9,94 L-14,95 L-15,99 L-16,101 L-14,102 L-18,107 L-25,109 L-24,105 L-21,105 L-21,101 L-19,101 L-17,94 L-13,93 L-11,89 L-9,84 L-8,78 L-1,78 L0,64 L2,60 L5,60 L5,50 L9,44 L10,43 L9,43 L7,35 L6,32 L5,13 L1,9 Z " fill="#37476E" transform="translate(719,440)"/>
<path d="M0,0 Z M-2,1 L0,1 L0,3 L4,1 L64,2 L68,2 L78,2 L78,10 L80,11 L79,12 L72,12 L67,11 L64,11 L64,9 L38,10 L33,11 L14,12 L4,14 L0,15 L0,13 L-11,11 L-14,11 L-13,8 L-6,5 L-2,3 Z M80,9 Z " fill="#4F658F" transform="translate(576,439)"/>
<path d="M0,0 L3,3 L4,8 L5,10 L2,13 L0,16 L-1,26 L-4,27 L-5,30 L-6,42 L-7,44 L-14,44 L-14,50 L-17,56 L-19,59 L-22,60 L-25,67 L-27,67 L-27,71 L-30,72 L-31,75 L-45,77 L-52,81 L-56,80 L-58,83 L-71,84 L-77,86 L-82,88 L-84,89 L-84,84 L-76,77 L-70,75 L-55,75 L-51,74 L-41,74 L-40,69 L-35,70 L-34,66 L-29,63 L-26,60 L-23,48 L-21,44 L-17,43 L-15,34 L-11,32 L-7,22 L-4,15 L-1,14 L0,6 Z " fill="#384D78" transform="translate(725,474)"/>
<path d="M0,0 L1,0 L1,10 L0,11 L-1,20 L-3,27 L-8,28 L-9,37 L-14,39 L-16,44 L-18,54 L-24,60 L-27,60 L-28,64 L-33,63 L-34,68 L-48,70 L-65,70 L-71,74 L-76,78 L-78,77 L-76,74 L-76,70 L-70,66 L-66,64 L-62,64 L-62,62 L-46,61 L-40,61 L-38,56 L-28,56 L-26,52 L-25,45 L-23,44 L-20,45 L-20,43 L-17,43 L-15,29 L-12,28 L-12,25 L-10,25 L-10,20 L-8,19 L-5,9 L-2,8 Z " fill="#3E5782" transform="translate(718,480)"/>
<path d="M0,0 L13,0 L13,4 L15,4 L15,6 L9,7 L7,11 L11,10 L13,11 L13,15 L15,16 L14,18 L16,23 L13,24 L1,24 L-3,26 L-3,24 L-7,23 L-6,27 L-11,28 L-15,27 L-16,25 L-19,26 L-21,20 L-21,17 L-19,17 L-19,15 L-15,14 L-15,11 L-9,11 L-9,8 L-17,7 L-18,2 L-11,2 L-11,4 L-8,2 L-1,1 Z " fill="#374A73" transform="translate(499,585)"/>
<path d="M0,0 L46,0 L46,2 L58,2 L58,0 L208,0 L208,1 L186,2 L184,4 L0,4 L0,3 L20,3 L20,1 L0,1 Z " fill="#23324D" transform="translate(480,404)"/>
<path d="M0,0 L16,0 L31,1 L38,3 L40,9 L37,10 L37,8 L33,8 L33,6 L27,8 L23,8 L10,6 L10,4 L5,6 L1,6 L1,4 L-5,8 L-17,9 L-19,8 L-20,10 L-21,9 L-82,8 L-85,9 L-85,7 L-87,7 L-87,9 L-94,14 L-104,17 L-108,19 L-113,17 L-113,15 L-103,14 L-95,8 L-93,8 L-93,6 L-88,4 L-73,3 L-1,3 Z M-85,6 Z " fill="#4C618A" transform="translate(661,433)"/>
<path d="M0,0 L8,0 L8,3 L23,3 L20,6 L22,10 L27,12 L30,15 L30,21 L35,23 L38,28 L38,30 L45,31 L48,31 L43,39 L41,39 L42,45 L39,45 L36,39 L36,37 L33,37 L31,34 L31,30 L28,29 L26,24 L20,21 L19,15 L10,13 L9,9 L6,8 L-120,7 L-120,6 L-28,5 L-28,4 L-22,3 L0,3 Z " fill="#2A3C5B" transform="translate(688,402)"/>
<path d="M0,0 L3,0 L3,2 L25,2 L28,3 L29,1 L38,1 L39,3 L33,4 L32,7 L40,8 L40,10 L34,13 L38,15 L38,18 L43,18 L43,16 L47,16 L47,18 L51,19 L37,20 L32,22 L33,19 L24,20 L17,18 L0,18 L-1,10 L3,8 L4,4 L-1,4 Z " fill="#3B4E75" transform="translate(416,581)"/>
<path d="M0,0 L36,0 L36,1 L4,2 L-4,3 L-4,5 L-8,5 L-8,3 L-48,3 L-48,7 L-50,7 L-50,5 L-54,5 L-54,7 L-56,7 L-56,5 L-60,5 L-60,7 L-71,9 L-74,12 L-76,11 L-76,10 L-80,9 L-82,11 L-87,11 L-88,14 L-90,14 L-90,12 L-94,16 L-99,15 L-108,18 L-112,19 L-112,17 L-128,17 L-128,13 L-114,13 L-110,12 L-97,11 L-95,9 L-96,5 L-95,4 L-84,3 L-84,5 L-76,1 Z M-84,2 Z " fill="#40557C" transform="translate(640,423)"/>
<path d="M0,0 L3,1 L3,10 L1,19 L2,25 L-3,30 L-4,32 L-3,40 L-8,40 L-10,44 L-14,45 L-15,41 L-15,22 L-13,12 L-17,14 L-16,10 L-14,10 L-14,3 L-11,1 L-11,3 L-5,1 L-2,3 L-2,1 Z " fill="#303757" transform="translate(761,478)"/>
<path d="M0,0 L2,0 L2,2 L4,3 L2,3 L2,5 L4,6 L-3,9 L-6,16 L-11,20 L-14,23 L-17,25 L-19,29 L-21,26 L-27,26 L-29,31 L-30,35 L-24,40 L-23,43 L-17,48 L-17,50 L-13,50 L-11,46 L-10,49 L-11,55 L-9,58 L-9,65 L-4,64 L-5,67 L-2,66 L8,70 L8,71 L-1,71 L-1,68 L-3,68 L-3,73 L14,73 L14,74 L-4,74 L-4,68 L-6,68 L-6,66 L-10,66 L-10,64 L-12,64 L-12,58 L-21,58 L-24,56 L-24,54 L-18,54 L-18,52 L-22,50 L-22,48 L-28,48 L-28,40 L-30,40 L-30,38 L-38,38 L-38,26 L-34,27 L-32,28 L-32,24 L-28,24 L-28,22 L-26,22 L-26,20 L-22,20 L-22,18 L-20,18 L-20,16 L-12,16 L-12,8 L-8,8 L-8,6 L-6,6 L-6,4 L-2,4 Z M-27,39 Z " fill="#293850" transform="translate(268,484)"/>
<path d="M0,0 L4,0 L4,2 L12,2 L12,0 L28,0 L28,1 L13,1 L13,3 L28,3 L28,4 L12,5 L12,3 L4,3 L4,5 L6,6 L-1,8 L-3,9 L-3,14 L-6,16 L-4,17 L-4,20 L-7,20 L-8,25 L-13,25 L-18,30 L-21,28 L-22,33 L-22,35 L-24,35 L-26,33 L-26,30 L-24,30 L-22,25 L-20,25 L-18,19 L-20,19 L-20,21 L-23,23 L-26,23 L-28,27 L-31,27 L-36,30 L-36,26 L-39,28 L-42,27 L-40,27 L-40,25 L-49,25 L-49,27 L-44,27 L-47,30 L-48,40 L-49,40 L-49,29 L-51,29 L-51,40 L-52,40 L-52,26 L-50,26 L-50,24 L-38,24 L-38,22 L-36,22 L-36,20 L-26,20 L-26,18 L-22,18 L-22,16 L-20,16 L-20,14 L-16,14 L-16,10 L-14,10 L-14,8 L-10,8 L-10,6 L-8,6 L-8,4 L-2,4 Z M-18,18 Z M-19,25 Z M-20,26 Z " fill="#273653" transform="translate(348,400)"/>
<path d="M0,0 L2,0 L2,2 L7,1 L6,4 L4,4 L3,10 L0,15 L-3,19 L-3,21 L-1,21 L-2,24 L-7,24 L-7,26 L-10,26 L-10,29 L-13,29 L-16,37 L-19,39 L-21,44 L-22,50 L-27,52 L-36,53 L-41,51 L-47,53 L-52,51 L-50,47 L-47,45 L-44,45 L-44,43 L-37,42 L-34,40 L-27,40 L-28,43 L-24,42 L-24,36 L-21,33 L-18,28 L-12,24 L-10,20 L-5,15 L-1,1 Z " fill="#29375C" transform="translate(732,524)"/>
<path d="M0,0 L2,1 L0,6 L-3,7 L-4,20 L-4,22 L-6,22 L-8,26 L-11,29 L-9,31 L-4,29 L-6,33 L-8,37 L-13,42 L-18,42 L-24,50 L-25,50 L-25,45 L-24,40 L-25,36 L-23,36 L-24,33 L-29,33 L-29,30 L-25,31 L-25,24 L-20,22 L-19,20 L-17,20 L-17,14 L-10,12 L-9,8 L-2,4 Z " fill="#344B6D" transform="translate(333,460)"/>
<path d="M0,0 L10,0 L10,2 L12,2 L12,0 L14,0 L14,2 L16,2 L16,0 L18,0 L18,2 L20,2 L20,0 L22,0 L22,2 L24,2 L24,0 L26,0 L26,2 L28,2 L28,0 L30,0 L30,2 L32,2 L32,0 L34,0 L34,2 L36,2 L36,0 L50,0 L50,2 L52,2 L52,0 L54,0 L54,2 L56,2 L56,0 L58,0 L58,2 L60,2 L60,0 L74,0 L74,2 L76,2 L76,0 L78,0 L78,4 L80,4 L80,2 L82,2 L82,4 L85,2 L88,2 L88,0 L90,0 L90,2 L94,2 L94,4 L96,4 L96,2 L98,2 L98,4 L104,4 L104,5 L94,6 L89,7 L82,6 L78,8 L54,8 L44,7 L20,6 L18,5 L18,3 L8,4 L9,1 L0,1 Z " fill="#2F3A55" transform="translate(376,398)"/>
<path d="M0,0 L9,0 L11,2 L6,5 L4,9 L91,7 L92,5 L95,4 L103,4 L114,6 L114,7 L107,7 L107,9 L115,9 L116,6 L123,5 L127,7 L125,7 L125,9 L127,10 L125,10 L125,12 L115,12 L115,10 L107,10 L107,12 L97,12 L97,10 L95,10 L95,12 L57,12 L57,14 L55,14 L55,12 L47,12 L47,10 L3,10 L3,8 L1,7 L3,7 L3,5 L1,5 Z " fill="#26314E" transform="translate(385,624)"/>
<path d="M0,0 L1,0 L1,8 L3,8 L2,0 L6,1 L4,1 L4,9 L0,13 L-2,13 L-2,15 L-8,15 L-8,19 L-14,19 L-14,23 L-12,23 L-12,25 L-15,27 L-16,31 L-18,31 L-18,33 L-22,33 L-22,35 L-24,35 L-24,33 L-28,33 L-28,35 L-30,35 L-30,37 L-32,37 L-32,39 L-30,39 L-30,41 L-34,45 L-36,45 L-36,49 L-38,49 L-38,59 L-40,59 L-40,61 L-44,61 L-44,53 L-46,52 L-41,50 L-40,53 L-40,41 L-38,41 L-36,36 L-34,33 L-33,24 L-27,19 L-24,18 L-24,21 L-20,20 L-19,17 L-9,18 L-9,14 L-3,14 L-3,12 L-8,12 L-4,11 L-3,7 L0,7 Z " fill="#2B3050" transform="translate(780,505)"/>
<path d="M0,0 L28,0 L30,3 L38,4 L38,6 L34,6 L34,10 L44,10 L43,12 L38,13 L38,15 L40,16 L35,20 L32,26 L34,27 L30,28 L27,23 L27,21 L22,19 L22,13 L19,12 L19,10 L12,9 L12,4 L1,4 L1,3 L14,2 L0,1 Z " fill="#263453" transform="translate(696,404)"/>
<path d="M0,0 L2,3 L4,0 L4,6 L2,6 L2,8 L0,8 L0,12 L-4,12 L-4,14 L-12,14 L-12,16 L-17,20 L-18,24 L-20,24 L-20,26 L-22,26 L-22,28 L-28,28 L-28,30 L-36,30 L-36,32 L-38,32 L-38,34 L-42,34 L-42,38 L-46,38 L-46,42 L-51,44 L-54,48 L-58,47 L-60,46 L-60,48 L-65,48 L-66,47 L-66,42 L-60,41 L-56,42 L-51,38 L-50,35 L-47,33 L-45,30 L-39,29 L-39,27 L-37,26 L-30,26 L-30,24 L-23,23 L-22,16 L-20,16 L-20,10 L-18,10 L-18,13 L-13,8 L-3,7 L-1,6 L1,7 Z " fill="#252C4D" transform="translate(730,558)"/>
<path d="M0,0 L5,4 L8,6 L6,11 L4,11 L4,16 L10,16 L12,15 L16,17 L14,19 L12,26 L11,24 L-1,24 L-3,26 L-8,25 L-9,18 L-13,16 L-14,10 L-18,10 L-18,8 L-24,7 L-24,6 L-17,4 L-14,4 L-14,7 L-6,8 L-5,7 L-7,6 L-5,2 Z M10,26 Z " fill="#314263" transform="translate(321,550)"/>
<path d="M0,0 L18,0 L28,1 L30,2 L30,5 L32,6 L28,5 L24,4 L-2,3 L-2,5 L-14,6 L-86,6 L-84,5 L-84,3 L-74,1 Z " fill="#3D5070" transform="translate(648,417)"/>
<path d="M0,0 L9,0 L10,2 L18,2 L18,4 L44,5 L54,6 L93,8 L93,9 L53,9 L50,8 L-4,8 L-22,10 L-26,13 L-27,16 L-29,16 L-29,18 L-35,18 L-32,15 L-32,10 L-28,7 L-24,6 L-24,4 L-16,4 L-16,6 L-12,5 L-15,4 L-15,2 L0,2 Z " fill="#2F3C59" transform="translate(376,399)"/>
<path d="M0,0 L2,0 L2,3 L4,1 L6,0 L6,3 L17,3 L16,5 L8,5 L5,6 L2,11 L-2,12 L-18,12 L-22,13 L-30,13 L-30,11 L-33,11 L-33,9 L-18,9 L-18,7 L-32,7 L-33,3 L-28,1 L-28,3 L-26,3 L-26,1 L-18,3 L-18,1 Z " fill="#4D6DA0" transform="translate(642,506)"/>
<path d="M0,0 L126,0 L131,3 L130,6 L116,4 L106,2 L78,3 L16,3 L4,4 L-6,4 L-8,3 L-8,1 Z " fill="#2E3F5E" transform="translate(568,409)"/>
<path d="M0,0 L66,2 L72,3 L72,4 L62,5 L59,4 L42,5 L35,6 L18,7 L16,8 L10,8 L10,6 L8,6 L8,8 L3,10 L0,7 L-5,6 L-13,6 L-16,6 L-18,6 L-17,3 Z " fill="#3C4968" transform="translate(382,414)"/>
<path d="M0,0 L7,1 L4,7 L2,9 L1,15 L-3,16 L-3,14 L-10,14 L-14,16 L-19,16 L-19,18 L-25,21 L-32,24 L-37,25 L-43,26 L-42,22 L-39,22 L-37,18 L-35,18 L-35,16 L-25,15 L-21,11 L-20,9 L-15,8 L-15,6 L-7,6 L-3,1 Z " fill="#2D3A61" transform="translate(707,551)"/>
<path d="M0,0 L3,3 L4,8 L5,10 L2,13 L0,16 L-1,26 L-4,27 L-5,30 L-6,42 L-7,44 L-14,44 L-14,50 L-17,56 L-19,59 L-22,60 L-24,62 L-25,56 L-23,48 L-21,44 L-17,43 L-15,34 L-11,32 L-7,22 L-4,15 L-1,14 L0,6 Z " fill="#33507E" transform="translate(725,474)"/>
<path d="M0,0 L6,1 L6,5 L4,5 L4,7 L-1,10 L0,19 L-2,26 L-5,30 L-7,30 L-8,35 L-10,36 L-15,35 L-14,38 L-15,43 L-17,43 L-17,45 L-22,46 L-23,50 L-24,52 L-22,53 L-26,58 L-33,60 L-32,56 L-29,56 L-29,52 L-27,52 L-25,45 L-21,44 L-19,40 L-17,35 L-16,29 L-9,29 L-8,15 L-6,11 L-3,11 L-2,2 Z " fill="#2E4571" transform="translate(727,489)"/>
<path d="M0,0 L2,3 L0,16 L-4,22 L-5,26 L-7,27 L-12,37 L-16,39 L-18,43 L-23,46 L-25,46 L-26,48 L-27,44 L-25,35 L-22,34 L-21,29 L-18,27 L-16,22 L-12,19 L-5,18 L-5,16 L-3,16 L-3,8 L-2,4 Z M-3,4 Z " fill="#324569" transform="translate(349,422)"/>
<path d="M0,0 L1,2 L7,2 L7,6 L9,6 L11,21 L10,28 L8,35 L2,37 L-1,46 L-3,53 L-12,54 L-14,52 L-20,52 L-17,50 L-13,49 L-11,42 L-9,43 L-8,44 L-3,43 L-1,40 L1,34 L3,33 L3,24 L6,24 L4,9 L0,13 L-1,8 Z M-10,45 Z " fill="#426292" transform="translate(701,464)"/>
<path d="M0,0 L2,1 L2,3 L7,4 L9,3 L9,10 L11,10 L12,17 L16,18 L17,21 L16,29 L16,47 L12,51 L10,39 L10,31 L8,31 L6,23 L6,15 L7,12 L1,13 Z " fill="#445D87" transform="translate(700,439)"/>
<path d="M0,0 L7,0 L2,6 L9,6 L9,9 L10,7 L13,7 L13,10 L18,10 L18,13 L25,14 L23,18 L18,20 L18,14 L16,14 L16,19 L11,19 L8,21 L4,19 L1,20 L-6,18 L-5,11 L-1,9 L-3,2 Z " fill="#344564" transform="translate(358,582)"/>
<path d="M0,0 L3,0 L3,7 L2,9 L6,9 L6,11 L3,13 L2,17 L-3,18 L-4,21 L-8,21 L-9,24 L-12,25 L-14,32 L-23,34 L-24,39 L-29,42 L-34,44 L-36,45 L-35,41 L-30,39 L-28,35 L-24,32 L-21,25 L-16,22 L-16,20 L-11,18 L-5,16 L-5,7 Z " fill="#2D3F58" transform="translate(286,467)"/>
<path d="M0,0 L3,1 L3,10 L-5,13 L-8,13 L-10,19 L-11,39 L-13,45 L-15,44 L-15,22 L-13,12 L-17,14 L-16,10 L-14,10 L-14,3 L-11,1 L-11,3 L-5,1 L-2,3 L-2,1 Z " fill="#30395C" transform="translate(761,478)"/>
<path d="M0,0 L1,0 L1,10 L0,11 L-1,20 L-3,27 L-8,28 L-9,37 L-14,39 L-16,44 L-18,52 L-23,53 L-26,56 L-28,56 L-26,52 L-25,45 L-23,44 L-20,45 L-20,43 L-17,43 L-15,29 L-12,28 L-12,25 L-10,25 L-10,20 L-8,19 L-5,9 L-2,8 Z " fill="#395684" transform="translate(718,480)"/>
<path d="M0,0 L49,0 L71,2 L71,4 L68,5 L51,5 L52,2 L48,3 L46,2 L18,2 L1,3 L-8,4 L-8,6 L-12,7 L-14,8 L-22,9 L-26,11 L-27,13 L-31,15 L-34,19 L-33,13 L-31,13 L-30,9 L-26,9 L-26,7 L-24,7 L-24,3 L-16,1 L-4,1 Z " fill="#33415F" transform="translate(380,407)"/>
<path d="M0,0 L5,1 L5,9 L1,10 L-1,14 L-3,14 L-4,16 L-7,15 L-9,19 L-8,26 L-10,27 L-13,19 L-16,21 L-20,22 L-21,19 L-14,9 L-12,9 L-12,4 L-10,4 L-10,2 L-1,1 Z M-12,17 Z M-22,21 Z " fill="#3A4C66" transform="translate(292,489)"/>
<path d="M0,0 L3,1 L1,1 L1,11 L10,10 L14,14 L15,17 L21,22 L21,24 L25,24 L27,20 L28,23 L27,29 L29,32 L29,39 L34,38 L33,41 L36,40 L46,44 L46,45 L37,45 L37,42 L35,42 L35,47 L52,47 L52,48 L34,48 L34,42 L32,42 L32,40 L28,40 L28,38 L26,38 L26,32 L17,32 L14,30 L14,28 L20,28 L20,26 L16,24 L16,22 L10,22 L10,14 L8,14 L8,12 L0,12 Z M11,13 Z " fill="#233043" transform="translate(230,510)"/>
<path d="M0,0 L14,0 L15,5 L14,17 L16,18 L13,20 L7,20 L6,24 L5,20 L4,15 L5,12 L0,12 L0,9 L-2,9 L-2,3 L0,3 Z M16,16 Z " fill="#314364" transform="translate(338,572)"/>
<path d="M0,0 L2,0 L1,6 L-1,10 L-3,10 L-3,15 L-5,15 L-5,18 L-7,19 L-10,33 L-13,33 L-13,35 L-17,35 L-18,42 L-21,46 L-29,47 L-31,46 L-33,50 L-35,50 L-34,46 L-32,43 L-23,42 L-23,40 L-20,40 L-20,38 L-23,38 L-23,35 L-19,34 L-19,32 L-18,31 L-19,28 L-13,26 L-11,18 L-8,10 L-2,8 L-1,2 Z " fill="#3E5B8A" transform="translate(711,490)"/>
<path d="M0,0 L8,0 L8,3 L23,3 L20,6 L22,10 L27,12 L30,15 L30,22 L26,21 L26,18 L24,18 L24,16 L22,16 L22,13 L16,13 L15,8 L8,7 L-24,6 L-28,4 L-22,3 L0,3 Z " fill="#293A57" transform="translate(688,402)"/>
<path d="M0,0 L8,0 L5,2 L-1,3 L-5,6 L-11,8 L-17,8 L-17,10 L-23,11 L-25,14 L-30,17 L-35,18 L-36,21 L-39,22 L-40,26 L-43,28 L-43,26 L-49,26 L-45,24 L-43,25 L-43,18 L-47,17 L-37,17 L-37,11 L-31,8 L-18,8 L-16,4 L-11,5 L-5,1 Z " fill="#354671" transform="translate(685,549)"/>
<path d="M0,0 L4,1 L1,1 L1,3 L6,2 L5,8 L1,7 L1,9 L-6,11 L-6,13 L-9,15 L-12,15 L-14,19 L-17,19 L-22,22 L-22,18 L-25,20 L-28,19 L-26,19 L-26,17 L-35,17 L-35,19 L-30,19 L-33,22 L-34,32 L-35,32 L-35,21 L-37,21 L-37,32 L-38,32 L-38,18 L-36,18 L-36,16 L-24,16 L-24,14 L-22,14 L-22,12 L-12,12 L-12,10 L-8,10 L-8,8 L-6,8 L-6,6 L-2,6 L-2,2 L0,2 Z " fill="#263551" transform="translate(334,408)"/>
<path d="M0,0 L6,0 L6,3 L9,3 L9,1 L15,0 L15,3 L19,2 L47,2 L59,4 L63,4 L59,7 L54,7 L54,5 L47,6 L20,6 L13,5 L0,6 L-7,4 L-7,3 L-1,2 Z " fill="#33486E" transform="translate(529,588)"/>
<path d="M0,0 L3,2 L6,1 L5,7 L-1,9 L-2,19 L-5,25 L-7,25 L-8,29 L-11,28 L-14,20 L-10,9 L-8,9 L-8,5 L-5,6 L-4,9 Z " fill="#2F416A" transform="translate(742,489)"/>
<path d="M0,0 L9,0 L7,6 L2,9 L1,11 L6,10 L5,12 L8,14 L3,15 L-43,16 L-42,13 L-13,12 L-11,10 L-7,11 L-2,9 L-2,4 L-3,1 Z M-11,9 Z " fill="#2A3A59" transform="translate(589,606)"/>
<path d="M0,0 L24,0 L29,2 L38,2 L37,9 L17,9 L17,6 L13,6 L13,3 L5,4 L5,2 L1,4 L-1,3 Z " fill="#344669" transform="translate(411,598)"/>
<path d="M0,0 L3,0 L5,6 L11,9 L13,14 L15,15 L17,22 L20,22 L23,27 L23,30 L27,31 L29,32 L29,36 L31,36 L33,46 L31,50 L29,42 L28,37 L24,36 L21,30 L21,26 L19,26 L19,24 L15,23 L13,21 L12,16 L6,14 L4,9 L-4,5 L-3,1 Z " fill="#314267" transform="translate(704,417)"/>
<path d="M0,0 L9,0 L11,2 L6,5 L4,9 L59,8 L94,9 L94,11 L47,11 L3,10 L3,8 L1,7 L3,7 L3,5 L1,5 Z " fill="#293552" transform="translate(385,624)"/>
<path d="M0,0 Z M-2,1 L1,2 L3,7 L0,8 L-12,8 L-16,10 L-16,8 L-20,7 L-19,11 L-24,12 L-28,11 L-29,9 L-32,10 L-32,4 L-14,3 L-12,2 Z " fill="#324563" transform="translate(512,601)"/>
<path d="M0,0 L13,0 L13,4 L15,4 L15,6 L9,7 L3,8 L3,11 L1,11 L1,8 L-8,8 L-17,7 L-18,2 L-11,2 L-11,4 L-8,2 L-1,1 Z " fill="#395075" transform="translate(499,585)"/>
<path d="M0,0 L4,2 L9,0 L7,4 L5,8 L0,13 L-5,13 L-11,21 L-12,21 L-12,16 L-11,11 L-12,7 L-10,7 L-11,3 L-2,1 L0,2 Z " fill="#3A5476" transform="translate(320,489)"/>
<path d="M0,0 L8,0 L7,3 L2,5 L2,7 L-1,9 L-9,8 L-9,10 L-14,11 L-16,16 L-20,18 L-29,18 L-29,16 L-27,16 L-29,12 L-25,9 L-24,10 L-17,10 L-15,7 L-5,5 Z " fill="#2F3E67" transform="translate(701,549)"/>
<path d="M0,0 L2,1 L2,4 L9,4 L9,7 L11,7 L11,9 L13,9 L13,11 L21,10 L23,17 L22,19 L28,18 L24,22 L23,20 L21,20 L21,17 L4,17 L4,12 L6,12 L6,15 L12,14 L5,11 L2,11 L1,9 L-2,9 L-2,1 Z " fill="#2A3A50" transform="translate(261,540)"/>
<path d="M0,0 L10,0 L10,2 L12,2 L12,0 L14,0 L14,2 L16,2 L16,0 L18,0 L18,2 L20,2 L20,0 L22,0 L22,2 L24,2 L24,0 L26,0 L26,2 L28,2 L28,0 L30,0 L30,2 L32,2 L32,0 L34,0 L34,2 L36,2 L36,0 L50,0 L50,2 L52,2 L52,0 L54,0 L54,2 L56,2 L56,0 L58,0 L58,2 L60,3 L54,4 L38,3 L38,5 L44,5 L44,6 L20,6 L18,5 L18,3 L8,4 L9,1 L0,1 Z " fill="#303953" transform="translate(376,398)"/>
<path d="M0,0 L58,0 L58,1 L41,2 L34,3 L17,4 L15,5 L9,5 L9,3 L7,3 L7,5 L2,7 L-1,4 L-5,2 Z " fill="#3D4D6C" transform="translate(383,417)"/>
<path d="M0,0 L6,0 L6,1 L1,1 L1,3 L4,4 L-1,10 L-3,10 L-3,16 L-5,17 L-5,12 L-7,12 L-7,18 L-5,19 L-7,22 L-7,19 L-9,19 L-8,30 L-11,36 L-12,41 L-13,39 L-15,39 L-14,46 L-18,46 L-18,44 L-16,44 L-16,38 L-18,38 L-18,36 L-16,36 L-16,34 L-14,34 L-14,28 L-10,28 L-10,18 L-8,18 L-8,12 L-10,12 L-10,8 L-6,8 L-6,4 L0,4 Z " fill="#2A324B" transform="translate(290,440)"/>
<path d="M0,0 L2,1 L2,7 L-2,13 L-3,16 L0,16 L-1,19 L-5,21 L-8,26 L-9,35 L-14,38 L-15,31 L-13,31 L-9,21 L-9,11 L-6,11 L-7,10 L-7,4 L-5,4 L-4,8 L-3,2 Z " fill="#2B3B52" transform="translate(290,448)"/>
<path d="M0,0 L12,0 L11,5 L15,6 L7,8 L7,6 L3,7 L-2,6 L-1,2 L-9,4 L-18,5 L-20,6 L-20,4 L-41,4 L-49,3 L-49,2 L-5,1 Z " fill="#2A3855" transform="translate(597,619)"/>
<path d="M0,0 L7,1 L7,4 L11,2 L13,0 L13,6 L8,8 L-1,9 L-6,7 L-12,9 L-17,7 L-15,3 L-9,1 Z M-12,1 Z " fill="#2A3257" transform="translate(697,568)"/>
<path d="M0,0 L3,0 L4,5 L1,14 L2,17 L0,20 L-2,27 L-3,28 L-4,35 L-9,38 L-9,27 L-8,23 L-6,23 L-4,19 L-2,12 L-3,3 Z M-10,38 Z " fill="#2A416C" transform="translate(728,496)"/>
<path d="M0,0 L4,0 L3,10 L2,12 L0,12 L0,14 L-5,16 L-9,18 L-11,19 L-13,24 L-16,25 L-17,30 L-22,31 L-20,22 L-18,22 L-18,20 L-12,15 L-5,14 L-5,9 L-2,3 Z " fill="#2F4163" transform="translate(344,426)"/>
<path d="M0,0 L6,0 L13,4 L14,9 L18,9 L19,18 L23,20 L24,22 L25,42 L23,43 L22,35 L20,35 L20,30 L23,29 L23,26 L21,26 L19,24 L18,19 L15,18 L13,11 L7,7 L6,5 L3,4 L3,2 L0,1 Z " fill="#3A4E75" transform="translate(701,431)"/>
<path d="M0,0 L3,0 L3,2 L7,0 L7,2 L11,1 L15,6 L15,13 L18,14 L18,17 L20,21 L17,23 L11,18 L11,14 L9,14 L9,6 L7,6 L7,8 L5,8 L5,6 L1,6 L-2,1 Z " fill="#27354E" transform="translate(297,570)"/>
<path d="M0,0 L9,1 L9,3 L16,2 L25,3 L20,7 L17,9 L-3,9 L-3,3 L-1,3 Z " fill="#3C5B88" transform="translate(627,541)"/>
<path d="M0,0 L8,0 L4,4 L-68,3 L-68,1 Z " fill="#455D7E" transform="translate(644,430)"/>
<path d="M0,0 L1,0 L1,5 L7,4 L7,6 L11,6 L16,8 L23,10 L19,11 L19,13 L26,12 L34,15 L33,20 L35,20 L36,18 L36,21 L36,22 L38,26 L36,26 L36,24 L32,24 L32,22 L28,22 L28,18 L24,16 L24,14 L18,14 L16,11 L13,12 L12,14 L10,14 L10,12 L8,12 L8,8 L4,8 L4,6 L0,6 Z " fill="#243048" transform="translate(340,610)"/>
<path d="M0,0 L2,0 L2,5 L-1,5 L-1,15 L-3,19 L-3,25 L-5,25 L-5,27 L-10,28 L-11,33 L-13,37 L-15,37 L-15,39 L-20,39 L-19,35 L-14,32 L-11,22 L-6,18 L-5,11 L-3,9 L-1,1 Z " fill="#283D67" transform="translate(729,513)"/>
<path d="M0,0 L46,0 L46,2 L58,2 L58,3 L46,4 L0,4 L0,3 L20,3 L20,1 L0,1 Z " fill="#212D4B" transform="translate(480,404)"/>
<path d="M0,0 L2,3 L5,3 L5,6 L13,5 L16,2 L20,3 L17,8 L13,9 L-3,9 L-7,10 L-15,10 L-15,8 L-18,8 L-18,6 L-3,6 L-3,4 L-7,3 L-3,1 Z " fill="#4A6A9B" transform="translate(627,509)"/>
<path d="M0,0 L16,1 L27,5 L29,11 L36,13 L38,20 L34,20 L33,15 L27,13 L20,11 L20,5 L-1,3 L-3,1 Z " fill="#374C70" transform="translate(681,420)"/>
<path d="M0,0 L2,0 L2,7 L8,7 L8,9 L10,9 L9,14 L12,14 L12,16 L18,15 L18,20 L22,22 L22,25 L18,25 L15,22 L15,18 L9,17 L8,15 L-1,14 L-2,11 L-2,9 L-4,7 L-2,7 L-2,2 Z " fill="#304059" transform="translate(274,534)"/>
<path d="M0,0 L3,2 L-1,4 L-11,5 L-13,6 L-32,7 L-34,4 L-31,3 L-31,1 Z " fill="#34476C" transform="translate(511,599)"/>
<path d="M0,0 L3,3 L4,8 L5,10 L2,13 L0,16 L-1,26 L-4,27 L-5,30 L-6,42 L-8,44 L-9,42 L-9,34 L-7,22 L-4,15 L-1,14 L0,6 Z " fill="#304C78" transform="translate(725,474)"/>
<path d="M0,0 L8,2 L9,9 L16,7 L20,10 L17,11 L16,14 L13,11 L7,13 L6,11 L-2,12 L-12,10 L-8,8 L-2,9 L1,8 L0,6 Z " fill="#3A4D6E" transform="translate(308,540)"/>
<path d="M0,0 L25,0 L26,2 L25,5 L21,7 L9,7 L3,4 L3,1 Z M9,5 Z " fill="#2D3C5D" transform="translate(519,616)"/>
<path d="M0,0 L6,0 L6,6 L1,6 L2,9 L1,14 L-1,14 L-1,16 L-6,17 L-7,21 L-8,23 L-6,24 L-10,29 L-17,31 L-16,27 L-13,27 L-13,23 L-11,23 L-9,16 L-5,15 L-3,11 L-1,6 Z " fill="#304976" transform="translate(711,518)"/>
<path d="M0,0 L28,0 L30,3 L38,4 L38,6 L34,6 L34,10 L44,10 L43,12 L38,13 L38,15 L40,16 L37,18 L34,17 L33,13 L30,12 L30,7 L24,6 L24,4 L22,3 L27,3 L27,1 L0,1 Z " fill="#1F2B44" transform="translate(696,404)"/>
<path d="M0,0 L8,0 L8,2 L12,1 L22,1 L20,2 L20,4 L2,6 L-2,9 L-3,12 L-5,12 L-5,14 L-11,14 L-8,11 L-8,6 L-4,3 L0,2 Z " fill="#2B3954" transform="translate(352,403)"/>
<path d="M0,0 L2,1 L2,3 L7,4 L9,3 L10,11 L10,31 L8,31 L6,23 L6,15 L7,12 L1,13 Z " fill="#486089" transform="translate(700,439)"/>
<path d="M0,0 L22,0 L22,3 L26,3 L26,6 L14,6 L14,3 L12,3 L11,6 L2,6 L0,5 Z " fill="#465C82" transform="translate(652,425)"/>
<path d="M0,0 L5,0 L2,3 L15,2 L22,3 L22,5 L24,5 L24,3 L32,1 L35,1 L35,3 L32,4 L27,4 L27,6 L6,6 L2,5 L1,8 L0,6 L-16,6 L-16,5 L-7,4 L-6,2 L0,3 Z " fill="#5A75A0" transform="translate(608,462)"/>
<path d="M0,0 L2,0 L2,2 L5,3 L3,3 L3,5 L5,5 L5,7 L1,11 L-1,11 L-1,15 L-3,15 L-3,25 L-5,25 L-5,27 L-9,27 L-9,19 L-11,18 L-6,16 L-5,19 L-5,7 L-3,7 L-1,2 Z " fill="#253051" transform="translate(745,539)"/>
<path d="M0,0 L0,3 L-2,8 L-7,8 L-11,8 L-17,7 L-27,7 L-34,8 L-35,5 L-40,5 L-41,2 L-35,3 L-29,4 L-13,3 L-9,2 L-8,4 L-4,5 Z " fill="#5B79A8" transform="translate(651,482)"/>
<path d="M0,0 L16,0 L46,1 L53,1 L50,3 L43,5 L40,7 L40,4 L0,4 L-3,3 L-3,1 Z " fill="#384F76" transform="translate(544,582)"/>
<path d="M0,0 L1,2 L7,2 L8,14 L8,24 L5,33 L3,33 L3,24 L6,24 L4,9 L0,13 L-1,8 Z " fill="#496693" transform="translate(701,464)"/>
<path d="M0,0 L4,4 L6,5 L3,8 L7,8 L10,8 L10,9 L15,10 L14,12 L9,13 L7,18 L1,21 L-1,16 L1,15 L2,11 L-2,10 L-1,9 L-1,1 Z M4,1 Z M3,3 Z M9,4 L11,4 L10,7 Z " fill="#273558" transform="translate(642,590)"/>
<path d="M0,0 L9,0 L10,1 L10,10 L4,11 L-3,9 L-2,2 Z " fill="#31415D" transform="translate(355,591)"/>
<path d="M0,0 L1,2 L3,2 L3,4 L14,3 L15,5 L9,7 L-1,6 L-1,5 L-23,5 L-25,3 L-24,2 L-3,1 Z " fill="#2E3D5C" transform="translate(439,615)"/>
<path d="M0,0 L2,1 L46,2 L44,4 L35,5 L30,7 L25,6 L21,6 L20,4 L18,5 L12,5 L12,3 L1,4 Z " fill="#324361" transform="translate(404,606)"/>
<path d="M0,0 L3,1 L0,4 L-2,4 L-2,9 L-4,9 L-6,13 L-13,16 L-15,17 L-15,13 L-10,11 L-6,11 L-5,4 L-1,2 Z M-16,17 L-15,20 L-20,22 L-20,28 L-18,28 L-16,36 L-18,36 L-18,33 L-20,33 L-21,37 L-23,33 L-22,30 L-23,28 L-23,22 L-19,18 Z " fill="#31435C" transform="translate(278,488)"/>
<path d="M0,0 L4,1 L1,1 L1,3 L6,2 L5,8 L1,7 L1,9 L-6,11 L-6,13 L-9,15 L-12,15 L-12,13 L-21,13 L-21,15 L-24,16 L-24,14 L-22,14 L-22,12 L-12,12 L-12,10 L-8,10 L-8,8 L-6,8 L-6,6 L-2,6 L-2,2 L0,2 Z M-17,15 L-12,15 L-13,17 Z " fill="#202C43" transform="translate(334,408)"/>
<path d="M0,0 L37,0 L38,3 L0,3 Z " fill="#293852" transform="translate(394,630)"/>
<path d="M0,0 L14,0 L14,2 L10,6 L5,6 L4,4 L-2,7 L-7,10 L-10,13 L-10,7 L-7,6 L-4,1 Z " fill="#303F66" transform="translate(658,567)"/>
<path d="M0,0 L1,2 L7,0 L11,2 L10,7 L3,11 L-5,13 L-4,9 L-2,9 L-2,2 Z " fill="#373D5E" transform="translate(749,479)"/>
<path d="M0,0 L6,0 L4,4 L0,8 L-3,8 L-4,12 L-9,11 L-10,16 L-20,16 L-20,14 L-18,14 L-18,12 L-14,11 L-12,12 L-12,9 L-6,7 L-2,7 L-1,3 Z " fill="#3B517E" transform="translate(694,532)"/>
<path d="M0,0 L5,0 L6,6 L13,9 L14,15 L21,17 L22,24 L25,25 L26,31 L23,31 L20,25 L20,23 L17,23 L15,20 L15,16 L12,15 L10,10 L4,7 L3,1 Z " fill="#2C3E62" transform="translate(704,416)"/>
<path d="M0,0 L3,2 L6,1 L5,7 L-1,9 L-2,19 L-5,25 L-7,25 L-8,29 L-9,27 L-6,19 L-5,10 L-2,5 Z " fill="#2E3D65" transform="translate(742,489)"/>
<path d="M0,0 L5,2 L8,7 L8,9 L15,10 L18,10 L13,18 L8,17 L7,10 L1,8 Z " fill="#24385C" transform="translate(718,423)"/>
<path d="M0,0 L8,0 L12,1 L21,0 L18,3 L9,6 L4,7 L-3,7 L-2,1 Z " fill="#43608D" transform="translate(660,532)"/>
<path d="M0,0 L9,0 L10,2 L18,2 L18,4 L20,5 L0,5 L-15,4 L-15,2 L0,2 Z " fill="#303A54" transform="translate(376,399)"/>
<path d="M0,0 L4,0 L4,2 L12,2 L12,0 L28,0 L28,1 L13,1 L13,3 L28,3 L28,4 L12,5 L12,3 L4,3 L4,5 L6,6 L-2,6 L-7,5 L-7,7 L-10,8 L-10,6 L-8,6 L-8,4 L-2,4 Z " fill="#262F46" transform="translate(348,400)"/>
<path d="M0,0 L9,0 L11,2 L6,5 L4,9 L47,9 L47,10 L3,10 L3,8 L1,7 L3,7 L3,5 L1,5 Z " fill="#232F44" transform="translate(385,624)"/>
<path d="M0,0 L7,1 L6,3 L3,4 L1,8 L-1,8 L-2,10 L-5,9 L-7,13 L-6,20 L-8,21 L-10,17 L-10,10 L-8,5 L-4,5 Z M-11,11 Z M-12,12 Z " fill="#3E506B" transform="translate(290,495)"/>
<path d="M0,0 L3,1 L2,5 L4,5 L2,14 L0,14 L-1,17 L-5,18 L-7,15 L-4,8 L-1,8 L-2,4 Z M4,4 Z " fill="#314767" transform="translate(314,466)"/>
<path d="M0,0 L3,1 L1,5 L0,9 L-8,9 L-8,11 L-12,12 L-14,11 L-14,9 L-20,8 L-16,6 L-4,6 L-4,3 Z M1,4 Z " fill="#3D527C" transform="translate(612,566)"/>
<path d="M0,0 L23,1 L19,3 L2,3 L-4,7 L-9,11 L-11,10 L-9,7 L-9,3 Z " fill="#3B537D" transform="translate(651,547)"/>
<path d="M0,0 L4,0 L4,4 L8,4 L8,6 L6,6 L6,14 L4,14 L4,16 L7,17 L3,18 L0,17 L0,3 L3,3 L3,1 Z " fill="#252945" transform="translate(768,440)"/>
<path d="M0,0 L6,2 L6,5 L11,5 L11,3 L15,3 L15,5 L19,6 L5,7 L0,9 L1,6 L-8,7 L-3,1 Z " fill="#384A70" transform="translate(448,594)"/>
<path d="M0,0 L4,2 L9,0 L7,4 L2,6 L-3,3 L-4,9 L-7,9 L-7,11 L-11,10 L-12,7 L-10,7 L-11,3 L-2,1 L0,2 Z " fill="#365173" transform="translate(320,489)"/>
<path d="M0,0 L2,0 L2,4 L4,4 L4,2 L6,2 L6,4 L9,2 L12,2 L12,0 L14,0 L14,2 L18,2 L18,4 L20,4 L20,2 L22,2 L22,4 L28,4 L28,5 L18,6 L13,7 L4,6 L0,7 L-2,5 L1,5 Z " fill="#2D3853" transform="translate(452,398)"/>
<path d="M0,0 L1,0 L1,9 L-2,14 L-5,14 L-6,26 L-7,28 L-11,28 L-11,21 L-8,20 L-8,17 L-6,17 L-6,12 L-4,11 L-1,1 Z " fill="#395889" transform="translate(714,488)"/>
<path d="M0,0 L3,0 L3,2 L-6,8 L-7,9 L-19,10 L-19,4 L-15,5 L-10,4 L-1,1 Z " fill="#485F87" transform="translate(565,439)"/>
<path d="M0,0 L3,0 L4,9 L3,13 L-2,18 L-3,16 L-2,4 Z " fill="#2C4874" transform="translate(721,500)"/>
<path d="M0,0 L2,1 L2,7 L-3,15 L-4,17 L-6,17 L-7,19 L-6,11 L-7,10 L-7,4 L-5,4 L-4,8 L-3,2 Z " fill="#2B364E" transform="translate(290,448)"/>
<path d="M0,0 L1,4 L3,4 L3,6 L0,8 L-1,12 L-3,12 L-3,14 L-7,14 L-7,16 L-9,16 L-9,14 L-13,13 L-9,13 L-9,10 L-7,10 L-5,6 L0,4 Z " fill="#272D4D" transform="translate(765,524)"/>
<path d="M0,0 L15,1 L16,4 L22,6 L26,9 L26,11 L29,12 L24,11 L15,8 L12,4 L4,3 L4,1 Z " fill="#3E5579" transform="translate(678,424)"/>
<path d="M0,0 L10,0 L16,2 L12,4 L7,6 L6,5 L-7,3 L-7,1 Z " fill="#51648D" transform="translate(678,436)"/>
<path d="M0,0 L6,0 L6,3 L9,3 L9,1 L15,0 L15,3 L13,3 L13,5 L0,6 L-7,4 L-7,3 L-1,2 Z " fill="#344C72" transform="translate(529,588)"/>
<path d="M0,0 L2,1 L2,4 L7,4 L7,8 L7,10 L9,12 L7,15 L3,13 L2,7 L-2,7 L-2,5 L-8,4 L-8,3 L-1,1 Z " fill="#313F5B" transform="translate(305,553)"/>
<path d="M0,0 L2,0 L2,3 L6,2 L6,5 L9,6 L4,7 L-3,7 L-7,8 L-8,5 L-11,3 L0,2 Z " fill="#3C4F72" transform="translate(456,420)"/>
<path d="M0,0 L10,0 L10,2 L12,2 L12,0 L14,0 L14,2 L16,2 L16,0 L18,0 L18,2 L20,2 L20,0 L22,0 L22,2 L24,2 L24,0 L26,0 L26,2 L28,2 L28,0 L30,0 L30,2 L32,2 L32,0 L34,0 L34,2 L36,3 L28,4 L8,4 L9,1 L0,1 Z " fill="#292E43" transform="translate(376,398)"/>
<path d="M0,0 L3,0 L3,3 L8,3 L8,6 L15,7 L13,11 L8,13 L8,7 L1,6 L-1,2 Z " fill="#374868" transform="translate(368,589)"/>
<path d="M0,0 L1,0 L1,8 L3,8 L2,0 L6,1 L4,1 L4,9 L0,13 L-2,13 L-2,15 L-8,15 L-8,19 L-14,19 L-14,18 L-9,18 L-9,14 L-3,14 L-3,12 L-8,12 L-4,11 L-3,7 L0,7 Z " fill="#272945" transform="translate(780,505)"/>
<path d="M0,0 L21,1 L21,2 L2,3 L-8,5 L-12,6 L-12,4 L-16,3 L-16,1 Z " fill="#536992" transform="translate(588,448)"/>
<path d="M0,0 L2,0 L2,2 L6,1 L11,3 L14,6 L14,13 L10,12 L10,9 L8,9 L8,7 L6,7 L6,4 L0,4 Z " fill="#2A3958" transform="translate(704,411)"/>
<path d="M0,0 L1,4 L-1,4 L-1,6 L-3,6 L-3,8 L-9,8 L-9,10 L-17,10 L-17,9 L-10,9 L-10,7 L-18,7 L-18,6 L-11,6 L-11,4 L-4,3 L-4,1 L-2,1 L-2,3 L0,3 Z M-19,7 Z " fill="#232747" transform="translate(711,578)"/>
<path d="M0,0 L3,0 L3,5 L13,5 L12,7 L7,8 L7,10 L9,11 L6,13 L3,12 L2,8 L-1,7 Z " fill="#283250" transform="translate(727,409)"/>
<path d="M0,0 L6,0 L6,2 L26,2 L26,4 L2,4 L-4,3 Z " fill="#283558" transform="translate(474,403)"/>
<path d="M0,0 L9,0 L7,6 L2,9 L-1,9 L-3,1 Z " fill="#2F4061" transform="translate(589,606)"/>
<path d="M0,0 L2,0 L4,15 L3,22 L1,29 L-1,26 L0,18 Z " fill="#45618F" transform="translate(708,470)"/>
<path d="M0,0 L5,1 L8,3 L9,8 L16,10 L18,17 L14,17 L13,12 L7,10 L5,4 L1,3 Z " fill="#34486E" transform="translate(701,423)"/>
<path d="M0,0 L4,0 L2,9 L-5,13 L-4,3 L-1,2 Z " fill="#2D406A" transform="translate(714,536)"/>
<path d="M0,0 L5,0 L5,4 L10,3 L14,6 L20,7 L20,11 L12,11 L8,7 L8,5 L4,5 L4,1 Z " fill="#1F2D45" transform="translate(320,599)"/>
<path d="M0,0 L2,3 L3,7 L1,9 L2,12 L-1,13 L-1,10 L-5,12 L-5,3 L0,2 Z " fill="#36436C" transform="translate(741,470)"/>
<path d="M0,0 L2,0 L2,6 L-1,12 L-3,15 L-6,16 L-8,18 L-7,12 L-5,8 L-1,4 Z " fill="#2F4E7B" transform="translate(709,518)"/>
<path d="M0,0 L2,0 L2,2 L4,3 L2,3 L2,5 L4,6 L-3,6 L-5,5 L-5,7 L-7,7 L-6,10 L-9,13 L-11,12 L-12,16 L-12,8 L-8,8 L-8,6 L-6,6 L-6,4 L-2,4 Z " fill="#202F44" transform="translate(268,484)"/>
<path d="M0,0 L14,0 L18,5 L1,4 Z " fill="#374969" transform="translate(682,417)"/>
<path d="M0,0 L5,0 L6,3 L8,4 L6,11 L1,10 L1,6 L-1,4 Z " fill="#3E587C" transform="translate(317,501)"/>
<path d="M0,0 L3,3 L4,8 L5,10 L2,13 L-1,18 L-5,19 L-4,15 L-1,14 L0,6 Z " fill="#374D78" transform="translate(725,474)"/>
<path d="M0,0 L24,0 L27,3 L5,4 L5,2 L1,4 L-1,3 Z " fill="#37496C" transform="translate(411,598)"/>
<path d="M0,0 L40,1 L40,2 L2,2 L2,4 L0,4 L0,2 L-8,2 L-8,1 Z " fill="#1C253A" transform="translate(440,634)"/>
<path d="M0,0 L3,0 L4,5 L-4,6 L-14,4 L-10,2 L-4,3 L0,2 Z " fill="#394A68" transform="translate(310,546)"/>
<path d="M0,0 L2,1 L3,2 L7,3 L6,6 L4,6 L3,9 L-9,10 L-6,8 L-2,7 Z M1,3 Z " fill="#446596" transform="translate(690,506)"/>
<path d="M0,0 L2,3 L4,0 L4,6 L2,6 L2,8 L0,8 L0,12 L-4,12 L-4,14 L-12,14 L-13,16 L-12,12 L-5,13 L-5,11 L-12,11 L-12,10 L-3,9 L-3,11 L-1,11 L-2,6 L1,7 Z " fill="#212944" transform="translate(730,558)"/>
<path d="M0,0 L6,0 L10,1 L14,0 L11,4 L-6,5 L-4,4 L-3,1 Z " fill="#3D5477" transform="translate(532,431)"/>
<path d="M0,0 L12,0 L12,1 L1,1 L1,3 L6,3 L3,6 L2,16 L1,16 L1,5 L-1,5 L-1,16 L-2,16 L-2,2 L0,2 Z " fill="#242E44" transform="translate(298,424)"/>
<path d="M0,0 L2,0 L2,2 L8,1 L11,1 L10,3 L8,3 L7,5 L2,7 L-2,7 L-2,5 L-6,3 L0,2 Z " fill="#436190" transform="translate(488,486)"/>
<path d="M0,0 L1,0 L1,10 L-1,10 L-1,12 L-5,12 L-5,4 L-7,3 L-2,1 L-1,4 Z " fill="#202A47" transform="translate(741,554)"/>
<path d="M0,0 L12,0 L12,2 L14,2 L14,6 L16,6 L15,8 L9,7 L8,4 L1,4 L1,3 L11,3 L11,1 L0,1 Z " fill="#262C47" transform="translate(740,416)"/>
<path d="M0,0 L14,0 L14,2 L16,3 L12,5 L2,3 L0,2 Z " fill="#2B3247" transform="translate(436,398)"/>
<path d="M0,0 L7,2 L11,5 L2,5 L2,2 L0,2 L0,7 L17,7 L17,8 L-1,8 L-1,1 Z " fill="#233044" transform="translate(265,550)"/>
<path d="M0,0 L4,1 L4,8 L1,9 L0,13 L-1,9 L-2,4 Z " fill="#304161" transform="translate(344,583)"/>
<path d="M0,0 L14,0 L14,2 L16,2 L16,0 L18,0 L18,2 L20,2 L20,0 L22,0 L22,2 L24,3 L18,4 L0,2 Z " fill="#242A3D" transform="translate(412,398)"/>
<path d="M0,0 L14,1 L13,3 L1,4 L-3,5 L-5,5 L-7,6 L-8,2 L0,2 Z " fill="#384868" transform="translate(389,598)"/>
<path d="M0,0 L8,0 L8,1 L1,1 L1,3 L-1,3 L0,7 L-3,10 L-8,9 L-8,6 L-6,6 L-6,4 L-2,4 L-2,2 L0,2 Z " fill="#243247" transform="translate(248,500)"/>
<path d="M0,0 L2,0 L1,12 L0,10 L-2,10 L-1,17 L-5,17 L-5,15 L-3,15 L-3,9 L-5,9 L-5,7 L-3,7 L-3,5 L0,5 Z " fill="#293A51" transform="translate(277,469)"/>
<path d="M0,0 L3,0 L3,7 L5,8 L4,9 L-3,9 L-3,6 Z M5,6 Z " fill="#536992" transform="translate(651,442)"/>
<path d="M0,0 L1,4 L3,4 L5,7 L9,8 L9,18 L8,18 L8,9 L6,9 L6,19 L5,19 L4,11 L1,7 L2,5 L0,5 L-1,7 Z " fill="#262B45" transform="translate(775,458)"/>
<path d="M0,0 L1,0 L1,6 L3,7 L1,10 L1,7 L-1,7 L0,18 L-3,24 L-4,22 L-3,17 L-5,17 L-5,22 L-6,22 L-6,16 L-2,16 L-2,6 L0,6 Z " fill="#232F44" transform="translate(282,452)"/>
<path d="M0,0 L2,1 L-3,9 L-8,8 L-8,2 L-1,1 Z " fill="#29375A" transform="translate(734,432)"/>
<path d="M0,0 L2,0 L2,8 L1,10 L4,11 L0,12 L-3,11 L-3,2 L-1,4 Z " fill="#292E4C" transform="translate(771,446)"/>
<path d="M0,0 L1,2 L3,3 L1,11 L-5,13 L-4,9 L-2,9 L-2,2 Z " fill="#353F64" transform="translate(749,479)"/>
<path d="M0,0 L2,2 L2,5 L0,7 L0,10 L-4,10 L-4,3 L-6,2 Z " fill="#212F50" transform="translate(661,605)"/>
<path d="M0,0 L5,1 L4,3 L-5,5 L-12,6 L-12,4 L-10,4 L-10,2 L-1,1 Z " fill="#384963" transform="translate(292,489)"/>
<path d="M0,0 L3,0 L4,5 L3,12 L0,11 L-1,2 Z " fill="#35476B" transform="translate(349,572)"/>
<path d="M0,0 L5,2 L4,4 L2,4 L1,7 L-2,4 L-8,6 L-9,1 L-5,2 Z " fill="#354B6D" transform="translate(323,547)"/>
<path d="M0,0 L4,0 L3,2 L0,4 L0,9 L-6,14 L-8,16 L-8,12 L-6,12 L-4,8 L-2,8 L-2,6 L-4,6 L-4,4 L-2,4 L-2,2 L0,2 Z " fill="#07080D" transform="translate(752,538)"/>
<path d="M0,0 L1,0 L1,9 L-2,14 L-5,14 L-6,16 L-6,12 L-4,11 L-1,1 Z " fill="#3E5987" transform="translate(714,488)"/>
<path d="M0,0 Z M-2,1 L0,2 L-2,10 L-6,9 L-7,6 L-5,6 L-6,2 Z " fill="#394F70" transform="translate(315,490)"/>
<path d="M0,0 L5,1 L6,5 L5,7 L7,8 L3,9 L0,4 Z " fill="#223358" transform="translate(723,423)"/>
<path d="M0,0 L1,3 L9,3 L9,4 L1,4 L1,6 L10,6 L10,7 L0,7 L0,5 L-3,6 L-4,2 Z " fill="#232D48" transform="translate(482,629)"/>
<path d="M0,0 L8,0 L7,2 L2,3 L0,8 L-6,11 L-5,7 L-1,6 Z " fill="#263154" transform="translate(649,600)"/>
<path d="M0,0 L4,2 L2,2 L2,4 L4,4 L4,6 L0,10 L-2,10 L-3,14 L-4,8 L-1,4 L1,4 Z " fill="#222B46" transform="translate(746,540)"/>
<path d="M0,0 L15,1 L15,3 L11,4 L3,4 L3,2 L0,2 Z " fill="#476798" transform="translate(609,515)"/>
<path d="M0,0 L8,0 L3,4 L0,5 L-1,8 L-4,8 L-3,4 L0,3 Z " fill="#30445D" transform="translate(292,475)"/>
<path d="M0,0 L5,0 L5,2 L7,2 L8,0 L8,3 L8,4 L10,8 L8,8 L8,6 L4,6 L4,4 L0,4 Z " fill="#202A3E" transform="translate(368,628)"/>
<path d="M0,0 L6,1 L6,4 L3,4 L3,6 L-1,7 L-2,6 L-2,1 Z " fill="#253051" transform="translate(666,599)"/>
<path d="M0,0 L2,1 L0,5 L-3,11 L-4,15 L-6,15 L-5,9 L-2,1 Z " fill="#405F8E" transform="translate(705,499)"/>
<path d="M0,0 L2,1 L1,3 L3,3 L1,7 L-4,8 L-6,11 L-5,6 L-2,1 Z " fill="#354974" transform="translate(730,483)"/>
<path d="M0,0 L5,0 L1,4 L-6,6 L-16,6 L-16,5 L-7,4 L-6,2 L0,3 Z " fill="#59729C" transform="translate(608,462)"/>
<path d="M0,0 L4,4 L6,5 L3,8 L4,10 L-2,11 L-1,9 L-1,1 Z M4,1 Z M3,3 Z " fill="#2C3B60" transform="translate(642,590)"/>
<path d="M0,0 L3,0 L4,5 L3,7 L-5,7 L-5,5 L-1,5 Z " fill="#2B3A50" transform="translate(252,534)"/>
<path d="M0,0 L2,0 L3,4 L7,6 L7,9 L5,14 L3,12 L3,6 L1,6 Z " fill="#3C516E" transform="translate(289,519)"/>
<path d="M0,0 L6,1 L6,3 L11,5 L12,10 L8,8 L3,3 L3,1 Z " fill="#465A83" transform="translate(696,435)"/>
<path d="M0,0 L2,1 L2,4 L7,4 L5,6 L-2,7 L-2,5 L-8,4 L-8,3 L-1,1 Z " fill="#34425D" transform="translate(305,553)"/>
<path d="M0,0 L1,4 L-1,4 L-1,6 L-3,6 L-3,10 L-9,10 L-8,6 L-8,9 L-4,9 L-5,4 L-4,3 L-3,1 Z " fill="#1C2742" transform="translate(665,606)"/>
<path d="M0,0 L3,0 L3,2 L6,3 L2,3 L2,5 L7,4 L9,6 L7,6 L7,8 L5,8 L5,6 L1,6 L-2,1 Z " fill="#29354D" transform="translate(297,570)"/>
<path d="M0,0 L8,0 L8,4 L0,4 Z " fill="#28344B" transform="translate(688,402)"/>
<path d="M0,0 L19,0 L16,2 L9,3 L7,4 L6,2 L0,1 Z " fill="#2D3C5F" transform="translate(600,607)"/>
<path d="M0,0 L2,0 L4,6 L2,6 L2,8 L-4,8 L-3,6 L-1,6 Z " fill="#344368" transform="translate(670,559)"/>
<path d="M0,0 L4,0 L3,2 L-2,3 L-2,5 L0,6 L-3,8 L-6,7 L-7,3 L-3,4 L-3,1 Z " fill="#232B45" transform="translate(736,414)"/>
<path d="M0,0 L10,0 L7,2 L5,9 L-2,9 L2,7 L4,8 L4,1 Z " fill="#344772" transform="translate(638,566)"/>
<path d="M0,0 L2,1 L3,4 L5,6 L4,8 L-1,8 L-1,1 Z " fill="#2A3951" transform="translate(242,523)"/>
<path d="M0,0 L2,0 L2,8 L7,8 L7,10 L0,10 Z " fill="#2B3B52" transform="translate(231,511)"/>
<path d="M0,0 L7,1 L7,3 L4,4 L3,7 L1,7 L-1,3 Z " fill="#282D50" transform="translate(684,588)"/>
<path d="M0,0 L8,0 L8,1 L1,3 L-5,10 L-6,6 L-2,2 L0,2 Z " fill="#07080E" transform="translate(718,572)"/>
<path d="M0,0 L7,2 L4,4 L-7,3 L-7,1 Z " fill="#2F3E5E" transform="translate(492,616)"/>
<path d="M0,0 L3,1 L2,4 L0,5 L-2,9 L-4,6 L-3,2 Z " fill="#35496D" transform="translate(342,444)"/>
<path d="M0,0 L1,0 L1,6 L-3,9 L-4,5 L-3,2 Z " fill="#304267" transform="translate(331,449)"/>
<path d="M0,0 L6,0 L6,1 L1,1 L1,3 L4,4 L1,6 L-5,5 L-6,8 L-6,4 L0,4 Z M0,6 Z " fill="#252C41" transform="translate(290,440)"/>
<path d="M0,0 L2,0 L2,2 L0,2 L-2,7 L-6,10 L-5,5 Z " fill="#384862" transform="translate(278,496)"/>
<path d="M0,0 L2,0 L2,4 L4,4 L4,2 L6,2 L6,4 L9,3 L9,5 L2,6 L0,7 L-2,5 L1,5 Z " fill="#262E45" transform="translate(452,398)"/>
<path d="M0,0 L2,0 L0,4 L-2,6 L-2,13 L-6,12 L-4,12 L-4,4 L-2,4 Z " fill="#07080E" transform="translate(788,502)"/>
<path d="M0,0 L1,2 L-1,9 L-5,10 L-4,6 L-2,1 Z " fill="#37537F" transform="translate(716,498)"/>
<path d="M0,0 L2,0 L2,5 L-1,8 L-5,8 L-5,6 L0,4 Z " fill="#2C2F4F" transform="translate(787,497)"/>
<path d="M0,0 L2,0 L3,10 L-2,12 L0,6 Z " fill="#5874A2" transform="translate(580,480)"/>
<path d="M0,0 L10,1 L10,2 L0,5 Z M10,0 Z " fill="#46618C" transform="translate(512,464)"/>
<path d="M0,0 L2,0 L2,9 L-1,9 L-1,1 Z " fill="#323C60" transform="translate(741,457)"/>
<path d="M0,0 L7,0 L5,2 L-2,3 L-5,5 L-6,1 Z " fill="#344360" transform="translate(394,607)"/>
<path d="M0,0 L8,0 L7,3 L2,2 L-2,5 L-4,3 L0,2 Z " fill="#4C6B9C" transform="translate(672,506)"/>
<path d="M0,0 L6,0 L6,3 L-4,3 Z " fill="#293452" transform="translate(474,403)"/>
<path d="M0,0 L5,5 L2,8 L-1,5 Z " fill="#26334E" transform="translate(312,585)"/>
<path d="M0,0 L8,0 L4,5 L2,5 Z " fill="#4E6D9C" transform="translate(590,502)"/>
<path d="M0,0 L4,0 L4,8 L1,9 L-1,8 L0,3 L2,5 L3,1 Z " fill="#262C43" transform="translate(784,476)"/>
<path d="M0,0 L1,0 L1,6 L-1,6 L-1,8 L-3,8 L-3,6 L-5,5 L-2,5 L-1,1 Z " fill="#05070A" transform="translate(273,478)"/>
<path d="M0,0 L2,1 L2,12 L-2,12 L-2,10 L0,10 L0,4 L-2,4 L-2,2 L0,2 Z " fill="#212E41" transform="translate(274,474)"/>
<path d="M0,0 L5,1 L3,7 L0,5 L2,5 L2,3 L0,3 Z " fill="#28364D" transform="translate(386,626)"/>
<path d="M0,0 L4,0 L2,5 L-2,5 L-2,2 L0,2 Z " fill="#405E8F" transform="translate(620,531)"/>
<path d="M0,0 L3,0 L3,2 L9,2 L9,3 L-1,4 Z " fill="#3C5279" transform="translate(416,581)"/>
<path d="M0,0 L0,3 L-3,9 L-4,9 L-4,1 Z " fill="#2F3E67" transform="translate(647,581)"/>
<path d="M0,0 L6,0 L7,2 L3,3 L2,5 L0,5 Z " fill="#3A5783" transform="translate(634,549)"/>
<path d="M0,0 L2,1 L5,3 L1,7 L-1,7 Z M1,3 Z " fill="#476799" transform="translate(690,506)"/>
<path d="M0,0 L2,3 L5,4 L5,6 L2,6 L1,9 L-1,1 Z " fill="#2B2F51" transform="translate(766,437)"/>
<path d="M0,0 L6,0 L5,3 L-2,3 L-3,1 Z " fill="#303F5C" transform="translate(407,615)"/>
<path d="M0,0 L3,2 L1,2 L1,4 L4,5 L0,5 L0,3 L-6,3 L-6,1 L-1,1 Z " fill="#263142" transform="translate(288,561)"/>
<path d="M0,0 L3,0 L4,4 L2,4 L2,6 L-2,5 L1,5 L1,3 L-2,2 Z " fill="#222744" transform="translate(760,532)"/>
<path d="M0,0 L6,0 L4,5 L2,5 L2,3 L0,3 Z " fill="#5A729E" transform="translate(644,464)"/>
<path d="M0,0 L2,0 L3,3 L-2,4 L-5,3 L-2,1 Z " fill="#333E59" transform="translate(302,460)"/>
<path d="M0,0 L3,0 L1,6 L3,7 L2,10 L0,8 Z " fill="#394B71" transform="translate(348,440)"/>
<path d="M0,0 L4,1 L5,8 L3,8 Z " fill="#293B5F" transform="translate(721,432)"/>
<path d="M0,0 L3,1 L3,3 L-6,3 L-6,1 L-1,1 Z " fill="#334163" transform="translate(465,608)"/>
<path d="M0,0 L2,0 L2,2 L4,3 L2,3 L2,5 L4,6 L-1,5 Z " fill="#25344B" transform="translate(268,484)"/>
<path d="M0,0 L2,0 L4,3 L4,6 L0,5 Z " fill="#5E77A6" transform="translate(604,480)"/>
<path d="M0,0 L0,3 L-2,6 L-5,5 L-4,1 Z " fill="#536C99" transform="translate(552,467)"/>
<path d="M0,0 L3,1 L3,4 L5,5 L3,5 L2,9 L1,5 Z " fill="#2E3F5C" transform="translate(342,587)"/>
<path d="M0,0 L4,2 L5,7 L1,6 Z " fill="#3A4C71" transform="translate(710,433)"/>
<path d="M0,0 L2,0 L2,2 L4,2 L4,6 L1,6 Z " fill="#030510" transform="translate(860,420)"/>
<path d="M0,0 L3,1 L2,4 L-3,4 L-3,2 Z " fill="#293352" transform="translate(737,415)"/>
<path d="M0,0 L2,0 L2,4 L0,4 L0,2 L-8,2 L-8,1 Z " fill="#202A40" transform="translate(440,634)"/>
<path d="M0,0 L2,2 L5,1 L4,6 L2,6 L2,4 L0,4 Z " fill="#232C45" transform="translate(348,618)"/>
<path d="M0,0 L3,0 L4,3 L3,5 L0,5 Z " fill="#263550" transform="translate(341,610)"/>
<path d="M0,0 L2,0 L3,6 L1,7 L-1,1 Z " fill="#3B4C69" transform="translate(296,538)"/>
<path d="M0,0 L1,4 L3,4 L3,6 L0,7 L-3,5 L0,4 Z " fill="#242745" transform="translate(765,524)"/>
<path d="M0,0 L2,1 L3,7 L0,7 Z " fill="#2B2D4D" transform="translate(766,516)"/>
<path d="M0,0 L6,2 L5,5 L1,4 L1,2 L-1,1 Z " fill="#486697" transform="translate(671,515)"/>
<path d="M0,0 L3,1 L1,5 L-2,4 L-2,1 Z " fill="#4F6E9C" transform="translate(546,475)"/>
<path d="M0,0 L1,3 L3,4 L2,7 L-2,4 Z " fill="#2B3150" transform="translate(762,431)"/>
<path d="M0,0 L4,1 L6,8 L3,7 Z " fill="#34466B" transform="translate(713,432)"/>
<path d="M0,0 L2,0 L2,2 L8,2 L8,3 L0,4 L-2,2 L0,2 Z " fill="#222A41" transform="translate(472,400)"/>
<path d="M0,0 L2,0 L2,2 L6,2 L5,4 L-3,3 L0,2 Z " fill="#252E41" transform="translate(464,398)"/>
<path d="M0,0 L5,3 L2,4 L1,6 L-1,1 Z " fill="#202D47" transform="translate(330,603)"/>
<path d="M0,0 L2,1 L1,5 L-2,7 Z " fill="#2F4169" transform="translate(742,489)"/>
<path d="M0,0 L2,0 L2,3 L5,4 L0,5 Z " fill="#5A73A1" transform="translate(572,468)"/>
<path d="M0,0 L4,1 L1,5 L-1,5 Z " fill="#293750" transform="translate(374,625)"/>
<path d="M0,0 L2,0 L2,3 L0,3 L0,6 L-2,6 L-1,1 Z " fill="#243050" transform="translate(651,611)"/>
<path d="M0,0 L5,0 L5,2 L-2,3 L-2,1 Z " fill="#2A375B" transform="translate(626,607)"/>
<path d="M0,0 L7,0 L2,4 L0,2 Z " fill="#36486B" transform="translate(358,582)"/>
<path d="M0,0 L4,2 L2,2 L2,4 L0,4 L0,2 L-4,1 Z " fill="#212C40" transform="translate(302,574)"/>
<path d="M0,0 L7,0 L4,3 L2,3 L2,1 Z " fill="#2F4262" transform="translate(524,607)"/>
<path d="M0,0 L6,0 L6,2 L2,3 L0,2 Z " fill="#394F78" transform="translate(598,575)"/>
<path d="M0,0 L4,2 L0,5 L-1,1 Z " fill="#272C4C" transform="translate(713,572)"/>
<path d="M0,0 L5,2 L2,4 L-1,3 Z " fill="#36456C" transform="translate(332,565)"/>
<path d="M0,0 L4,1 L-1,5 Z " fill="#3D567F" transform="translate(329,500)"/>
<path d="M0,0 L7,0 L4,3 L0,1 Z " fill="#404F71" transform="translate(383,421)"/>
<path d="M0,0 L4,1 L0,4 L-2,4 Z " fill="#07090F" transform="translate(644,622)"/>
<path d="M0,0 L4,1 L0,4 L-2,1 Z " fill="#273458" transform="translate(634,607)"/>
<path d="M0,0 L4,1 L4,4 L1,4 Z " fill="#2C3851" transform="translate(247,531)"/>
<path d="M0,0 L2,0 L3,5 L0,5 Z " fill="#343F63" transform="translate(740,461)"/>
<path d="M0,0 L2,1 L2,3 L-1,4 L-3,3 L-3,1 Z " fill="#24344F" transform="translate(326,418)"/>
<path d="M0,0 L4,1 L4,4 L0,3 Z " fill="#354667" transform="translate(338,572)"/>
<path d="M0,0 L2,2 L4,1 L3,5 L0,4 Z " fill="#263144" transform="translate(292,566)"/>
<path d="M0,0 L2,2 L2,5 L-1,5 Z " fill="#2F3A60" transform="translate(734,446)"/>
<path d="M0,0 L1,4 L4,5 L-1,6 Z " fill="#222A42" transform="translate(729,410)"/>
<path d="M0,0 L3,0 L3,3 L-1,2 Z " fill="#384D66" transform="translate(288,532)"/>
<path d="M0,0 L2,4 L-1,4 Z " fill="#2B365A" transform="translate(747,518)"/>
<path d="M0,0 L2,1 L1,4 L-2,3 L-2,1 Z " fill="#2A3A54" transform="translate(272,486)"/>
<path d="M0,0 L2,0 L3,4 L0,4 Z " fill="#5E76A4" transform="translate(588,480)"/>
<path d="M0,0 L5,0 L1,3 L-1,1 Z " fill="#485F8B" transform="translate(481,465)"/>
<path d="M0,0 L3,0 L4,3 L0,3 Z " fill="#121320" transform="translate(380,392)"/>
</svg>
