<?xml version="1.0" encoding="UTF-8"?>
<!-- Generator: visioncortex VTracer 0.6.4 -->
<svg version="1.1" xmlns="http://www.w3.org/2000/svg" width="1024" height="1024">
<path d="M0,0 L1024,0 L1024,1024 L0,1024 Z " fill="#000000" transform="translate(0,0)"/>
<path d="M0,0 L16,0 L16,2 L18,2 L18,6 L22,6 L26,10 L26,16 L24,16 L24,20 L26,20 L26,22 L34,22 L34,24 L42,24 L42,26 L56,26 L58,28 L58,32 L64,32 L64,30 L74,30 L76,32 L76,36 L78,36 L78,42 L72,42 L74,45 L84,46 L88,50 L88,54 L93,55 L96,58 L96,73 L100,72 L100,66 L106,66 L106,68 L108,68 L108,82 L112,84 L112,88 L114,88 L114,96 L112,96 L112,104 L114,104 L114,116 L118,118 L118,122 L120,122 L120,130 L116,130 L116,134 L114,134 L114,144 L112,144 L112,160 L110,160 L110,166 L108,166 L108,170 L112,170 L112,176 L110,176 L110,188 L112,188 L114,195 L116,196 L116,226 L118,226 L118,230 L120,230 L120,250 L124,250 L124,226 L130,226 L130,232 L132,232 L132,246 L134,246 L134,282 L132,282 L132,298 L127,300 L126,302 L121,304 L120,310 L118,310 L118,314 L116,314 L116,338 L113,340 L112,346 L109,348 L108,374 L106,374 L106,376 L101,376 L94,370 L94,374 L96,374 L96,378 L98,378 L98,384 L96,384 L96,390 L92,390 L92,392 L86,392 L86,394 L80,394 L80,396 L76,396 L76,398 L68,398 L68,402 L60,402 L60,408 L58,408 L58,410 L30,410 L30,412 L22,412 L22,424 L8,424 L8,422 L-4,422 L-4,424 L-10,424 L-10,426 L-58,426 L-58,428 L-68,428 L-68,426 L-74,426 L-74,424 L-80,424 L-80,426 L-86,426 L-88,423 L-92,422 L-92,414 L-108,414 L-108,416 L-114,416 L-116,414 L-116,410 L-160,410 L-160,402 L-164,402 L-164,400 L-172,400 L-172,398 L-184,398 L-184,402 L-192,402 L-192,394 L-196,394 L-196,398 L-202,398 L-204,396 L-204,392 L-208,392 L-209,376 L-212,374 L-212,362 L-214,362 L-214,358 L-216,358 L-217,346 L-224,339 L-226,338 L-226,318 L-224,318 L-224,308 L-220,306 L-220,290 L-216,288 L-216,282 L-218,282 L-218,272 L-214,268 L-212,268 L-212,256 L-210,256 L-210,250 L-208,250 L-208,242 L-204,240 L-204,234 L-202,232 L-196,232 L-196,230 L-202,230 L-202,224 L-196,224 L-196,220 L-188,220 L-188,226 L-182,226 L-182,224 L-172,224 L-172,204 L-168,202 L-167,197 L-164,196 L-164,190 L-160,188 L-160,180 L-154,174 L-148,174 L-148,178 L-144,178 L-144,174 L-140,174 L-140,160 L-138,160 L-138,156 L-136,156 L-136,150 L-130,150 L-130,148 L-128,148 L-128,144 L-124,144 L-122,140 L-120,140 L-120,134 L-116,130 L-120,130 L-120,122 L-116,122 L-116,118 L-112,118 L-112,116 L-118,114 L-118,106 L-116,106 L-116,100 L-110,100 L-110,102 L-108,102 L-108,94 L-98,94 L-97,90 L-112,90 L-112,82 L-96,82 L-95,77 L-92,76 L-92,62 L-88,60 L-88,50 L-86,48 L-82,48 L-82,46 L-72,46 L-72,38 L-70,38 L-69,33 L-64,32 L-64,24 L-58,24 L-58,22 L-50,22 L-50,20 L-46,20 L-46,18 L-42,18 L-42,16 L-40,16 L-40,10 L-38,8 L-32,8 L-32,2 L-22,2 L-22,6 L-4,6 L-4,4 L0,4 Z " fill="#37597C" transform="translate(574,296)"/>
<path d="M0,0 L16,0 L16,2 L18,2 L18,6 L22,6 L26,10 L26,16 L24,16 L24,20 L26,20 L26,22 L34,22 L34,24 L42,24 L42,26 L56,26 L58,28 L58,32 L64,32 L64,30 L74,30 L76,32 L76,36 L78,36 L78,42 L72,42 L74,45 L84,46 L88,50 L88,54 L93,55 L96,58 L96,73 L100,72 L100,66 L106,66 L106,68 L108,68 L108,82 L112,84 L112,88 L114,88 L114,96 L112,96 L112,104 L114,104 L114,116 L117,117 L113,118 L112,116 L113,105 L111,105 L111,116 L110,116 L110,108 L108,108 L109,105 L108,103 L108,88 L106,88 L106,82 L104,82 L104,73 L98,78 L94,77 L94,74 L92,74 L91,59 L86,55 L83,52 L83,50 L76,51 L74,50 L74,48 L70,47 L68,42 L71,41 L72,34 L65,35 L64,34 L55,33 L52,31 L43,30 L42,29 L34,28 L34,26 L27,26 L22,23 L20,21 L20,16 L22,16 L21,11 L17,7 L17,3 L15,3 L15,1 L1,1 L1,5 L-3,5 L-3,7 L-23,7 L-23,3 L-31,3 L-31,9 L-35,13 L-37,16 L-42,21 L-46,22 L-47,25 L-50,26 L-58,26 L-58,28 L-60,28 L-61,33 L-66,38 L-71,39 L-71,47 L-81,47 L-81,49 L-78,50 L-83,53 L-84,59 L-85,61 L-86,74 L-89,78 L-95,85 L-107,86 L-96,87 L-92,89 L-93,93 L-95,93 L-96,96 L-103,99 L-105,103 L-107,103 L-108,106 L-111,105 L-113,107 L-113,113 L-115,113 L-115,107 L-117,107 L-117,114 L-118,114 L-118,106 L-116,106 L-116,100 L-110,100 L-110,102 L-108,102 L-108,94 L-98,94 L-97,90 L-112,90 L-112,82 L-96,82 L-95,77 L-92,76 L-92,62 L-88,60 L-88,50 L-86,48 L-82,48 L-82,46 L-72,46 L-72,38 L-70,38 L-69,33 L-64,32 L-64,24 L-58,24 L-58,22 L-50,22 L-50,20 L-46,20 L-46,18 L-42,18 L-42,16 L-40,16 L-40,10 L-38,8 L-32,8 L-32,2 L-22,2 L-22,6 L-4,6 L-4,4 L0,4 Z M-48,25 Z " fill="#283E66" transform="translate(574,296)"/>
<path d="M0,0 L1,4 L-1,4 L-1,28 L-4,30 L-5,36 L-8,38 L-9,64 L-11,64 L-11,66 L-16,66 L-23,60 L-23,64 L-21,64 L-21,68 L-19,68 L-19,74 L-21,74 L-21,80 L-25,80 L-25,82 L-31,82 L-31,84 L-37,84 L-37,86 L-41,86 L-41,88 L-49,88 L-49,92 L-57,92 L-57,98 L-59,98 L-59,100 L-87,100 L-87,102 L-95,102 L-95,101 L-88,101 L-88,99 L-95,99 L-95,98 L-87,97 L-86,96 L-61,96 L-61,92 L-58,91 L-50,91 L-49,84 L-41,83 L-39,80 L-31,80 L-31,78 L-27,78 L-26,76 L-25,77 L-25,74 L-23,74 L-25,64 L-23,56 L-18,59 L-13,62 L-13,39 L-10,34 L-8,29 L-6,27 L-2,27 L-3,2 L0,3 Z " fill="#244362" transform="translate(691,606)"/>
<path d="M0,0 L1,0 L1,9 L-9,9 L-9,11 L3,11 L3,0 L4,0 L4,12 L-10,12 L-10,10 L-22,10 L-22,12 L-28,12 L-28,14 L-76,14 L-76,16 L-86,16 L-86,14 L-92,14 L-92,12 L-98,12 L-98,14 L-104,14 L-106,11 L-110,10 L-110,2 L-126,2 L-126,1 L-109,1 L-106,2 L-106,8 L-101,7 L-98,8 L-92,8 L-86,11 L-76,11 L-75,10 L-28,10 L-28,8 L-21,6 L-11,6 L-9,7 L0,8 Z " fill="#2E5171" transform="translate(592,708)"/>
<path d="M0,0 L2,0 L1,22 L-2,26 L-8,33 L-20,34 L-9,35 L-5,37 L-6,41 L-8,41 L-9,44 L-16,47 L-18,51 L-20,51 L-21,54 L-24,53 L-26,55 L-26,61 L-28,61 L-28,55 L-30,55 L-30,62 L-31,62 L-31,54 L-29,54 L-29,48 L-23,48 L-23,50 L-21,50 L-21,42 L-11,42 L-10,38 L-25,38 L-25,30 L-9,30 L-8,25 L-5,24 L-5,10 L-3,8 L0,8 Z " fill="#2A4666" transform="translate(487,348)"/>
<path d="M0,0 L6,0 L6,6 L8,6 L8,20 L10,20 L10,56 L8,56 L8,72 L3,74 L2,76 L-3,78 L-4,84 L-5,84 L-6,74 L1,75 L1,73 L-1,72 L3,69 L4,56 L6,56 L5,22 L3,24 L3,6 L5,6 L5,1 L1,1 L1,24 L0,24 Z " fill="#355072" transform="translate(698,522)"/>
<path d="M0,0 L16,0 L16,2 L18,2 L18,6 L22,6 L23,9 L21,9 L21,7 L17,7 L17,3 L15,3 L15,1 L1,1 L1,5 L-3,5 L-3,7 L-23,7 L-23,3 L-31,3 L-31,9 L-35,13 L-37,16 L-42,21 L-46,22 L-47,25 L-50,26 L-58,26 L-58,28 L-60,28 L-61,33 L-66,38 L-71,39 L-71,47 L-81,47 L-81,49 L-78,50 L-83,53 L-84,59 L-85,59 L-85,52 L-87,52 L-87,60 L-88,60 L-88,50 L-86,48 L-82,48 L-82,46 L-72,46 L-72,38 L-70,38 L-69,33 L-64,32 L-64,24 L-58,24 L-58,22 L-50,22 L-50,20 L-46,20 L-46,18 L-42,18 L-42,16 L-40,16 L-40,10 L-38,8 L-32,8 L-32,2 L-22,2 L-22,6 L-4,6 L-4,4 L0,4 Z M-48,25 Z " fill="#293658" transform="translate(574,296)"/>
<path d="M0,0 L8,0 L8,6 L14,6 L14,4 L24,4 L24,5 L15,5 L15,7 L24,7 L24,8 L14,8 L9,7 L10,10 L4,9 L4,11 L1,11 L1,13 L3,14 L-5,13 L-5,15 L-1,16 L-3,17 L-7,25 L-9,31 L-10,42 L-12,48 L-13,48 L-13,37 L-15,37 L-15,48 L-16,48 L-16,36 L-14,36 L-14,30 L-12,30 L-12,22 L-8,20 L-8,14 L-6,12 L0,12 L0,10 L-6,10 L-6,4 L0,4 Z " fill="#345169" transform="translate(378,516)"/>
<path d="M0,0 L4,0 L4,6 L2,6 L2,18 L4,18 L6,25 L8,26 L8,56 L10,56 L10,60 L12,60 L12,80 L16,81 L11,81 L11,61 L8,61 L9,57 L3,58 L3,27 L2,24 L0,24 L0,18 L-2,18 L-2,6 L0,6 L1,3 L1,5 L3,5 L3,1 Z " fill="#2E4C6A" transform="translate(682,466)"/>
<path d="M0,0 L17,0 L20,1 L20,7 L25,6 L28,7 L34,7 L40,10 L50,11 L98,12 L98,13 L50,13 L50,15 L40,15 L40,13 L34,13 L34,11 L28,11 L28,13 L22,13 L20,10 L16,9 L16,1 L0,1 Z " fill="#26435E" transform="translate(466,709)"/>
<path d="M0,0 L2,0 L1,5 L-3,6 L-5,5 L-4,10 L-5,12 L-8,14 L-11,16 L-13,21 L-14,28 L-15,28 L-15,21 L-17,21 L-16,35 L-21,40 L-27,41 L-28,39 L-32,40 L-34,48 L-35,48 L-35,41 L-37,41 L-37,48 L-38,48 L-38,40 L-32,34 L-26,34 L-26,38 L-22,38 L-22,34 L-18,34 L-18,20 L-16,20 L-16,16 L-14,16 L-14,10 L-8,10 L-8,8 L-6,8 L-6,4 L-2,4 Z " fill="#28445C" transform="translate(452,436)"/>
<path d="M0,0 L3,0 L3,2 L8,3 L8,9 L6,9 L6,13 L8,13 L8,15 L16,15 L16,17 L24,17 L24,19 L38,19 L39,20 L39,25 L36,25 L34,24 L25,23 L24,22 L16,21 L16,19 L9,19 L4,16 L2,14 L2,9 L4,9 L3,4 L0,2 Z " fill="#2F4068" transform="translate(592,303)"/>
<path d="M0,0 L2,1 L1,3 L-1,3 L1,31 L3,32 L3,34 L5,34 L5,36 L8,37 L8,40 L10,40 L11,43 L10,56 L8,56 L8,52 L6,52 L5,40 L-2,33 L-4,32 L-4,12 L-2,12 L-2,2 Z " fill="#385065" transform="translate(352,602)"/>
<path d="M0,0 L16,0 L16,1 L1,1 L1,7 L16,7 L18,8 L19,6 L20,9 L19,11 L17,11 L16,14 L9,17 L7,21 L5,21 L4,24 L1,23 L-1,25 L-1,31 L-3,31 L-3,25 L-5,25 L-5,32 L-6,32 L-6,24 L-4,24 L-4,18 L2,18 L2,20 L4,20 L4,12 L14,12 L15,8 L0,8 Z " fill="#284361" transform="translate(462,378)"/>
<path d="M0,0 L6,0 L6,6 L8,6 L8,20 L10,20 L10,56 L9,56 L9,21 L7,21 L7,34 L6,34 L5,22 L3,24 L3,6 L5,6 L5,1 L1,1 L1,24 L0,24 Z " fill="#2C4360" transform="translate(698,522)"/>
<path d="M0,0 L8,0 L8,6 L14,6 L14,4 L24,4 L24,5 L15,5 L15,7 L24,7 L24,8 L14,8 L9,7 L10,10 L-6,10 L-6,4 L0,4 Z " fill="#2B4156" transform="translate(378,516)"/>
<path d="M0,0 L2,0 L3,6 L2,8 L-26,8 L-26,10 L-34,10 L-34,9 L-27,9 L-27,7 L-34,7 L-34,6 L-26,5 L-25,4 L0,4 Z " fill="#294866" transform="translate(630,698)"/>
<path d="M0,0 L1,0 L1,7 L7,7 L7,3 L29,2 L29,4 L31,5 L29,5 L29,7 L33,7 L33,15 L77,15 L79,20 L84,21 L84,22 L78,22 L76,20 L76,16 L32,16 L32,8 L28,8 L28,6 L20,6 L20,4 L8,4 L8,8 L0,8 Z " fill="#263E52" transform="translate(382,690)"/>
<path d="M0,0 L2,1 L2,5 L14,4 L35,5 L43,6 L42,8 L-1,8 L-1,1 Z " fill="#345772" transform="translate(416,697)"/>
<path d="M0,0 L1,4 L-1,4 L-1,28 L-4,30 L-5,36 L-10,38 L-10,62 L-12,62 L-13,39 L-10,34 L-8,29 L-6,27 L-2,27 L-3,2 L0,3 Z " fill="#2C5071" transform="translate(691,606)"/>
<path d="M0,0 L3,2 L3,17 L7,16 L7,10 L13,10 L13,12 L15,12 L15,26 L18,27 L16,28 L14,27 L13,29 L13,26 L11,26 L11,17 L7,20 L2,18 L1,4 Z " fill="#243B61" transform="translate(667,352)"/>
<path d="M0,0 L4,0 L4,6 L2,6 L2,18 L4,18 L6,25 L8,26 L8,56 L7,56 L7,27 L2,26 L2,24 L0,24 L0,18 L-2,18 L-2,6 L0,6 L1,3 L1,5 L3,5 L3,1 Z " fill="#27425D" transform="translate(682,466)"/>
<path d="M0,0 L1,0 L1,11 L3,11 L3,0 L4,0 L5,11 L6,14 L8,14 L9,19 L8,27 L5,27 L5,29 L9,29 L11,34 L15,35 L16,32 L16,36 L10,36 L8,34 L8,30 L4,30 L3,14 L0,12 Z " fill="#2F4C63" transform="translate(362,658)"/>
<path d="M0,0 L3,1 L2,7 L-4,16 L-5,17 L-6,36 L-7,36 L-7,17 L-9,17 L-9,36 L-10,36 L-10,16 L-6,14 L-5,9 L-2,8 L-2,2 Z " fill="#2F4A63" transform="translate(412,484)"/>
<path d="M0,0 L1,0 L1,9 L-9,9 L-9,11 L3,11 L3,0 L4,0 L4,12 L-10,12 L-10,10 L-22,10 L-22,12 L-28,12 L-28,11 L-23,11 L-23,9 L-28,9 L-28,8 L-21,6 L-11,6 L-9,7 L0,8 Z " fill="#284764" transform="translate(592,708)"/>
<path d="M0,0 L2,0 L1,5 L-3,6 L-5,5 L-4,10 L-5,12 L-8,14 L-11,16 L-13,21 L-14,28 L-15,28 L-15,21 L-17,20 L-16,16 L-14,16 L-14,10 L-8,10 L-8,8 L-6,8 L-6,4 L-2,4 Z " fill="#2C4B69" transform="translate(452,436)"/>
<path d="M0,0 L2,0 L1,4 L4,4 L4,23 L1,23 L1,9 L-2,10 L-3,8 L-3,1 Z " fill="#345272" transform="translate(689,523)"/>
<path d="M0,0 L4,1 L1,1 L2,5 L0,5 L0,7 L-3,7 L-3,15 L-13,15 L-13,17 L-10,18 L-15,21 L-16,27 L-17,27 L-17,20 L-19,20 L-19,28 L-20,28 L-20,18 L-18,16 L-14,16 L-14,14 L-4,14 L-4,6 L-2,6 L-1,1 Z " fill="#243858" transform="translate(506,328)"/>
<path d="M0,0 L2,1 L1,5 L-3,5 L-3,13 L-1,13 L0,23 L-1,24 L-2,38 L-3,38 L-3,23 L-5,23 L-5,38 L-6,38 L-6,22 L-2,20 L-2,14 L-4,14 L-4,4 Z " fill="#364F62" transform="translate(360,564)"/>
<path d="M0,0 L2,0 L2,12 L-2,16 Z M-6,16 L-2,17 L-3,25 L-1,25 L-1,31 L-4,31 L-4,24 L-6,24 Z " fill="#3C5A72" transform="translate(363,553)"/>
<path d="M0,0 L2,0 L1,4 L0,6 L-12,7 L-1,8 L-1,11 L-16,10 L-16,4 L-1,3 Z " fill="#304F73" transform="translate(479,375)"/>
<path d="M0,0 L17,0 L20,1 L20,7 L25,6 L27,7 L27,12 L22,12 L20,10 L16,9 L16,1 L0,1 Z " fill="#2B4B66" transform="translate(466,709)"/>
<path d="M0,0 L5,0 L7,0 L23,0 L23,3 L7,3 L7,5 L2,5 L0,3 Z " fill="#335571" transform="translate(459,706)"/>
<path d="M0,0 L4,1 L1,1 L1,3 L3,4 L-5,3 L-5,5 L-1,6 L-3,7 L-7,15 L-8,20 L-9,20 L-9,13 L-11,13 L-11,20 L-12,20 L-12,12 L-8,10 L-8,4 L-6,2 L0,2 Z " fill="#334E66" transform="translate(378,526)"/>
<path d="M0,0 L5,1 L7,4 L8,19 L11,22 L8,23 L6,22 L6,19 L4,19 L3,4 L0,2 Z " fill="#294571" transform="translate(662,351)"/>
<path d="M0,0 L1,0 L1,7 L7,7 L7,3 L29,2 L29,4 L31,5 L29,5 L28,7 L20,6 L20,4 L8,4 L8,8 L0,8 Z " fill="#2B495F" transform="translate(382,690)"/>
<path d="M0,0 L3,0 L3,23 L0,23 Z " fill="#325173" transform="translate(686,610)"/>
<path d="M0,0 L1,4 L3,4 L3,12 L-1,12 L-1,16 L-3,16 L-3,26 L-4,26 L-4,16 L-7,15 L-3,10 L-1,10 L-1,3 Z " fill="#2B4362" transform="translate(691,414)"/>
<path d="M0,0 L2,0 L2,15 L0,18 L-1,27 L-4,27 L-4,18 L-2,18 L-1,15 Z " fill="#405C74" transform="translate(355,587)"/>
<path d="M0,0 L3,0 L2,3 L-1,5 L-19,5 L-19,2 L0,2 Z " fill="#364672" transform="translate(571,301)"/>
<path d="M0,0 L1,0 L1,15 L3,15 L3,0 L4,0 L4,16 L2,16 L2,22 L0,22 L-1,26 L-2,16 L0,16 Z " fill="#2A4360" transform="translate(682,440)"/>
<path d="M0,0 L3,0 L3,10 L1,10 L1,25 L-1,25 L-1,10 Z " fill="#324F72" transform="translate(684,430)"/>
<path d="M0,0 L1,0 L1,16 L-4,18 L-5,20 L-10,22 L-11,28 L-12,28 L-13,18 L-6,19 L-6,17 L-8,16 L-3,14 L0,15 Z " fill="#2B435E" transform="translate(705,578)"/>
<path d="M0,0 L4,0 L4,5 L2,5 L2,22 L0,22 Z " fill="#355174" transform="translate(699,523)"/>
<path d="M0,0 L2,0 L2,9 L-1,13 L-2,24 L-4,24 L-4,11 L-2,11 Z " fill="#2E4E73" transform="translate(487,348)"/>
<path d="M0,0 L14,0 L14,2 L16,2 L15,6 L13,5 L13,3 L0,3 Z " fill="#384774" transform="translate(575,297)"/>
<path d="M0,0 L1,4 L-1,4 L-1,28 L-4,30 L-5,36 L-6,36 L-7,28 L-2,27 L-3,2 L0,3 Z " fill="#263C54" transform="translate(691,606)"/>
<path d="M0,0 L8,0 L8,6 L0,6 Z " fill="#08132E" transform="translate(744,250)"/>
<path d="M0,0 L4,2 L7,5 L12,6 L12,4 L14,5 L13,7 L6,8 L5,14 L4,14 L4,8 L2,8 L2,4 L0,4 Z " fill="#080E14" transform="translate(668,666)"/>
<path d="M0,0 L10,0 L10,4 L0,4 L0,2 L-6,2 L-6,1 Z " fill="#2A4764" transform="translate(506,720)"/>
<path d="M0,0 L4,0 L4,3 L-1,5 L-3,13 L-4,13 L-4,6 L-6,6 L-6,13 L-7,13 L-7,5 Z " fill="#2D4E6A" transform="translate(421,471)"/>
<path d="M0,0 L1,4 L3,4 L3,12 L1,12 L1,20 L0,20 L-1,12 L-1,3 Z " fill="#273C61" transform="translate(685,380)"/>
<path d="M0,0 L4,1 L4,14 L2,14 L2,20 L1,20 L1,5 L-1,5 Z " fill="#2C4570" transform="translate(681,379)"/>
<path d="M0,0 L2,1 L1,12 L-11,12 L-11,10 L-1,10 L-1,1 Z " fill="#2F5174" transform="translate(594,707)"/>
<path d="M0,0 L2,0 L3,6 L0,7 L0,5 L-25,5 L-25,4 L0,4 Z " fill="#2B4D6F" transform="translate(630,698)"/>
<path d="M0,0 L5,0 L5,3 L3,3 L2,8 L-3,12 L-4,8 L-1,7 Z M-5,12 L-3,13 L-5,14 Z " fill="#314772" transform="translate(511,321)"/>
<path d="M0,0 L10,0 L14,4 L14,8 L19,9 L17,10 L11,9 L9,6 L9,1 L0,1 Z " fill="#23385E" transform="translate(648,342)"/>
<path d="M0,0 L2,1 L1,5 L-1,5 L-2,8 L-13,7 L-13,14 L-14,14 L-14,6 L-2,5 L-2,2 L0,2 Z " fill="#294462" transform="translate(480,384)"/>
<path d="M0,0 L12,0 L12,3 L0,3 Z " fill="#345771" transform="translate(390,690)"/>
<path d="M0,0 L4,1 L1,1 L1,3 L3,4 L-5,3 L-5,5 L-1,6 L-3,7 L-5,10 L-5,6 L-7,6 L-8,10 L-8,4 L-6,2 L0,2 Z " fill="#2F485E" transform="translate(378,526)"/>
<path d="M0,0 L4,0 L4,6 L2,6 L2,18 L1,18 L0,11 L-1,11 L0,3 L1,5 L3,5 L3,1 Z " fill="#27425E" transform="translate(682,466)"/>
<path d="M0,0 L2,1 L4,5 L5,9 L-1,9 L-1,2 Z " fill="#365772" transform="translate(384,688)"/>
<path d="M0,0 L6,1 L4,4 L3,10 L2,10 L2,3 L0,3 L0,11 L-1,11 L-1,1 Z " fill="#284164" transform="translate(487,345)"/>
<path d="M0,0 L5,3 L7,7 L11,7 L11,9 L6,9 L2,5 L2,3 L0,3 Z " fill="#2A4C6F" transform="translate(668,662)"/>
<path d="M0,0 L1,0 L1,11 L3,11 L3,0 L4,0 L5,15 L0,12 Z " fill="#304B5F" transform="translate(362,658)"/>
<path d="M0,0 L2,1 L1,5 L-3,5 L-3,13 L-1,13 L-1,20 L-2,20 L-2,14 L-4,14 L-4,4 Z " fill="#2C4152" transform="translate(360,564)"/>
<path d="M0,0 L2,0 L3,13 L0,13 Z " fill="#315472" transform="translate(435,457)"/>
<path d="M0,0 L2,0 L3,4 L3,15 L1,15 L0,4 Z " fill="#3A5A73" transform="translate(362,654)"/>
<path d="M0,0 L4,1 L1,1 L1,3 L4,4 L2,6 L0,9 L-1,14 L-2,14 L-2,4 L0,4 Z " fill="#070C11" transform="translate(690,426)"/>
<path d="M0,0 L8,0 L9,4 L-3,3 L0,2 Z " fill="#315875" transform="translate(424,685)"/>
<path d="M0,0 L9,0 L9,3 L2,4 L0,3 Z " fill="#2B4472" transform="translate(648,343)"/>
<path d="M0,0 L4,1 L3,4 L-7,4 L-7,2 Z M2,4 Z " fill="#344571" transform="translate(524,317)"/>
<path d="M0,0 L4,0 L4,6 L2,6 L1,10 Z " fill="#2D4765" transform="translate(680,456)"/>
<path d="M0,0 L3,0 L3,4 L-5,4 L-5,1 Z " fill="#325976" transform="translate(453,680)"/>
<path d="M0,0 L3,4 L3,12 L0,12 Z " fill="#2F5071" transform="translate(680,472)"/>
<path d="M0,0 L8,0 L8,2 L2,5 L0,5 Z " fill="#374773" transform="translate(543,299)"/>
<path d="M0,0 L2,0 L1,5 L-3,6 L-5,5 L-6,8 L-6,4 L-2,4 Z " fill="#2A4762" transform="translate(452,436)"/>
<path d="M0,0 L2,0 L3,3 L1,11 L-1,11 L-1,4 Z " fill="#3C5A72" transform="translate(360,642)"/>
<path d="M0,0 L6,0 L6,4 L-1,4 Z " fill="#3A5673" transform="translate(379,517)"/>
<path d="M0,0 L6,0 L6,1 L1,1 L2,8 L-2,10 L-4,8 L-1,8 Z " fill="#233A5F" transform="translate(674,362)"/>
<path d="M0,0 L8,0 L8,2 L4,2 L4,4 L0,4 Z " fill="#0C1218" transform="translate(378,522)"/>
<path d="M0,0 L4,1 L4,7 L1,7 Z " fill="#305079" transform="translate(672,416)"/>
<path d="M0,0 L2,0 L1,5 L-3,3 L-12,2 L-12,1 Z " fill="#2E436F" transform="translate(629,324)"/>
<path d="M0,0 L1,0 L0,10 L-1,10 L-1,5 L-3,5 L-3,10 L-4,10 L-4,4 Z " fill="#294660" transform="translate(458,426)"/>
<path d="M0,0 L9,0 L8,3 L0,2 Z " fill="#304972" transform="translate(493,343)"/>
<path d="M0,0 L2,0 L1,9 L0,9 L0,2 L-2,2 L-2,9 L-3,9 L-3,1 Z " fill="#2B4963" transform="translate(417,475)"/>
<path d="M0,0 L4,1 L1,1 L2,5 L0,5 L0,7 L-3,6 L-1,1 Z " fill="#263C5F" transform="translate(506,328)"/>
<path d="M0,0 L14,0 L13,4 L11,3 L11,1 L0,1 Z " fill="#364570" transform="translate(577,299)"/>
<path d="M0,0 L7,0 L7,3 L0,3 Z " fill="#2A4E73" transform="translate(634,694)"/>
<path d="M0,0 L2,0 L2,6 L5,7 L1,8 L0,7 Z " fill="#2F5072" transform="translate(457,403)"/>
<path d="M0,0 L4,2 L5,4 L3,4 L4,8 L2,8 L2,4 L0,4 Z " fill="#0B151E" transform="translate(668,666)"/>
<path d="M0,0 L2,0 L2,8 L0,10 L-1,7 Z " fill="#335472" transform="translate(415,477)"/>
<path d="M0,0 L6,2 L6,3 L-3,4 L-2,1 Z " fill="#325069" transform="translate(376,687)"/>
<path d="M0,0 L4,1 L2,3 L1,9 L0,9 L-1,1 Z " fill="#294462" transform="translate(685,633)"/>
<path d="M0,0 L3,0 L3,6 L0,5 Z " fill="#335070" transform="translate(690,600)"/>
<path d="M0,0 L5,0 L4,4 L0,4 Z " fill="#3A5674" transform="translate(373,521)"/>
<path d="M0,0 L1,0 L3,7 L4,9 L-1,8 Z " fill="#284560" transform="translate(685,484)"/>
<path d="M0,0 L6,0 L2,5 L0,4 Z " fill="#344671" transform="translate(535,307)"/>
<path d="M0,0 L2,0 L0,12 L-1,12 L-1,1 Z " fill="#3E596F" transform="translate(354,602)"/>
<path d="M0,0 L4,0 L4,4 L0,4 Z " fill="#3C6080" transform="translate(448,544)"/>
<path d="M0,0 L3,1 L1,5 L1,3 L-1,3 L-2,6 L-1,1 Z " fill="#28405D" transform="translate(480,372)"/>
<path d="M0,0 L5,0 L6,3 L0,3 Z " fill="#2D4572" transform="translate(632,329)"/>
<path d="M0,0 L4,1 L3,6 L1,5 Z " fill="#304B70" transform="translate(687,413)"/>
<path d="M0,0 L4,0 L4,2 L2,2 L3,6 L1,6 Z " fill="#2A4573" transform="translate(675,363)"/>
<path d="M0,0 L2,0 L0,4 L-5,5 L-5,3 L-1,3 Z " fill="#354672" transform="translate(534,312)"/>
<path d="M0,0 L5,0 L6,2 L1,3 Z " fill="#395873" transform="translate(387,523)"/>
<path d="M0,0 L3,0 L4,5 L0,4 Z " fill="#325071" transform="translate(678,462)"/>
<path d="M0,0 L1,2 L3,2 L1,7 L0,7 L-1,1 Z M-1,7 Z " fill="#2F5171" transform="translate(459,424)"/>
<path d="M0,0 L4,0 L4,2 L2,2 L2,5 L0,5 Z " fill="#305274" transform="translate(459,397)"/>
<path d="M0,0 L3,0 L3,7 L0,4 Z " fill="#2E4871" transform="translate(503,335)"/>
<path d="M0,0 L3,0 L3,5 L1,5 Z " fill="#2C4F73" transform="translate(666,680)"/>
<path d="M0,0 L2,1 L1,5 L-2,5 L-1,1 Z " fill="#31495D" transform="translate(360,564)"/>
<path d="M0,0 L1,2 L3,3 L-1,5 L-3,4 L-3,2 L0,2 Z " fill="#385570" transform="translate(382,525)"/>
<path d="M0,0 L4,0 L4,3 L0,4 Z " fill="#305077" transform="translate(664,412)"/>
<path d="M0,0 L3,0 L3,4 L0,5 Z " fill="#344671" transform="translate(594,312)"/>
<path d="M0,0 L4,0 L4,3 L0,3 Z " fill="#385872" transform="translate(378,686)"/>
<path d="M0,0 L6,1 L4,2 L3,4 Z " fill="#3A5469" transform="translate(349,633)"/>
<path d="M0,0 L5,2 L5,4 L1,4 Z " fill="#0F1A25" transform="translate(457,410)"/>
<path d="M0,0 L3,0 L3,4 L0,4 Z " fill="#2C4E72" transform="translate(664,666)"/>
<path d="M0,0 L3,0 L3,4 L1,4 L1,2 L-1,1 Z " fill="#325273" transform="translate(682,467)"/>
<path d="M0,0 L2,0 L1,4 L-2,4 Z " fill="#264059" transform="translate(452,436)"/>
<path d="M0,0 L3,1 L3,4 L0,4 Z " fill="#2F5172" transform="translate(455,419)"/>
<path d="M0,0 L4,0 L3,4 Z " fill="#335169" transform="translate(363,669)"/>
</svg>
