<?xml version="1.0" encoding="UTF-8"?>
<!-- Generator: visioncortex VTracer 0.6.4 -->
<svg version="1.1" xmlns="http://www.w3.org/2000/svg" width="1024" height="1024">
<path d="M0,0 L1024,0 L1024,1024 L0,1024 Z " fill="#000000" transform="translate(0,0)"/>
<path d="M0,0 L6,0 L6,2 L14,2 L14,0 L16,0 L16,2 L20,2 L24,6 L24,10 L26,10 L26,12 L30,12 L30,14 L32,14 L32,18 L34,18 L34,22 L36,22 L36,32 L38,32 L40,35 L44,36 L45,40 L44,42 L46,42 L46,46 L48,46 L48,48 L52,48 L52,54 L56,54 L56,56 L58,56 L58,60 L60,60 L62,65 L64,66 L64,64 L66,64 L68,67 L74,68 L74,70 L78,70 L78,72 L88,72 L88,74 L94,74 L94,76 L98,76 L98,78 L102,78 L102,80 L106,80 L110,85 L112,86 L112,94 L110,94 L110,98 L112,98 L112,106 L114,106 L114,110 L112,110 L112,120 L110,120 L110,126 L108,126 L108,130 L110,130 L110,142 L108,142 L109,150 L108,166 L106,166 L107,170 L106,182 L108,182 L108,186 L106,186 L106,194 L108,194 L108,198 L106,198 L106,200 L108,200 L108,202 L110,202 L110,210 L112,210 L112,220 L116,220 L116,226 L118,226 L118,236 L116,236 L116,238 L118,238 L118,242 L120,242 L120,246 L122,246 L122,250 L124,250 L124,256 L126,256 L126,254 L128,254 L130,259 L138,267 L144,268 L144,266 L146,266 L146,268 L150,268 L150,270 L152,270 L152,276 L154,276 L154,282 L156,282 L156,284 L162,284 L162,286 L172,286 L172,294 L176,296 L176,298 L180,298 L184,303 L190,304 L190,306 L196,306 L196,308 L200,308 L200,306 L208,306 L208,308 L224,308 L228,312 L228,320 L234,320 L234,324 L238,324 L238,328 L240,328 L240,332 L242,332 L242,336 L244,336 L244,340 L246,340 L246,344 L242,344 L242,350 L244,350 L244,356 L250,356 L250,364 L248,364 L248,358 L246,358 L246,364 L244,364 L244,366 L250,366 L250,368 L252,368 L252,370 L250,370 L250,378 L248,378 L248,386 L246,386 L246,392 L244,392 L244,400 L242,400 L242,402 L238,406 L236,406 L236,410 L234,410 L234,414 L230,414 L230,416 L214,416 L214,418 L206,418 L206,420 L208,420 L208,424 L196,424 L196,426 L192,426 L192,428 L180,428 L180,430 L174,430 L174,432 L176,432 L176,434 L170,434 L170,436 L156,436 L156,438 L152,438 L152,440 L138,440 L138,442 L126,442 L126,446 L118,446 L118,448 L108,448 L108,450 L100,450 L100,448 L96,448 L96,450 L84,450 L84,452 L72,452 L72,454 L26,454 L26,452 L18,452 L18,450 L12,450 L12,448 L6,448 L6,446 L0,446 L0,444 L2,444 L2,442 L-20,442 L-20,440 L-24,440 L-24,438 L-32,438 L-32,436 L-36,436 L-36,432 L-40,432 L-40,430 L-45,429 L-52,422 L-52,420 L-56,420 L-56,418 L-58,418 L-58,414 L-62,414 L-62,408 L-64,408 L-64,410 L-66,410 L-66,406 L-68,406 L-68,404 L-72,404 L-78,397 L-80,396 L-80,392 L-84,392 L-84,388 L-88,388 L-92,383 L-94,382 L-94,378 L-98,376 L-100,372 L-104,372 L-104,368 L-108,366 L-108,364 L-113,363 L-116,360 L-116,358 L-120,358 L-124,354 L-124,350 L-126,350 L-126,348 L-124,348 L-128,343 L-130,342 L-130,334 L-132,334 L-132,322 L-134,322 L-134,316 L-136,316 L-136,324 L-138,324 L-138,322 L-140,322 L-140,296 L-142,296 L-142,292 L-140,292 L-140,290 L-142,290 L-142,280 L-140,280 L-140,276 L-136,277 L-134,278 L-134,262 L-132,262 L-132,242 L-130,242 L-130,240 L-128,240 L-128,238 L-130,238 L-130,226 L-128,226 L-128,224 L-126,224 L-126,220 L-124,220 L-124,218 L-126,218 L-126,216 L-124,216 L-124,210 L-120,210 L-120,198 L-118,198 L-118,190 L-116,190 L-116,186 L-114,186 L-114,180 L-110,178 L-110,176 L-108,176 L-108,170 L-104,168 L-104,160 L-106,160 L-106,154 L-104,154 L-104,150 L-102,150 L-102,148 L-100,148 L-100,146 L-98,146 L-98,138 L-96,138 L-96,132 L-94,132 L-94,126 L-92,126 L-92,120 L-88,116 L-86,116 L-86,114 L-84,114 L-84,108 L-82,108 L-82,102 L-80,102 L-80,98 L-78,98 L-78,94 L-76,94 L-76,92 L-74,92 L-74,84 L-72,84 L-72,80 L-66,80 L-66,78 L-64,78 L-63,73 L-60,72 L-59,67 L-56,66 L-56,64 L-54,64 L-54,58 L-50,56 L-50,44 L-48,44 L-48,40 L-46,40 L-45,35 L-42,34 L-42,32 L-38,32 L-38,26 L-36,26 L-36,24 L-34,24 L-34,22 L-36,22 L-36,20 L-32,20 L-32,18 L-30,18 L-30,16 L-22,16 L-22,14 L-14,14 L-12,10 L-10,10 L-10,8 L-4,8 L-4,6 L0,6 Z " fill="#6669CF" transform="translate(416,264)"/>
<path d="M0,0 L6,0 L6,2 L14,2 L14,0 L16,0 L16,2 L20,2 L24,6 L24,10 L26,10 L26,12 L30,12 L30,14 L32,14 L32,18 L34,18 L34,22 L36,22 L36,32 L38,32 L40,35 L44,36 L45,40 L44,42 L46,42 L46,46 L48,46 L48,48 L52,48 L52,54 L56,54 L56,56 L58,56 L58,60 L60,60 L62,65 L64,66 L64,64 L66,64 L68,67 L74,68 L74,70 L78,70 L78,72 L88,72 L88,74 L94,74 L94,76 L98,76 L98,78 L102,78 L102,80 L106,80 L110,85 L112,86 L112,94 L110,94 L110,98 L112,98 L112,106 L114,106 L114,110 L112,110 L112,120 L110,120 L110,126 L108,126 L108,130 L110,130 L110,142 L108,142 L109,150 L108,166 L106,166 L107,170 L106,182 L108,182 L108,186 L106,186 L106,194 L108,194 L108,198 L106,198 L106,200 L108,200 L108,202 L110,202 L110,210 L112,210 L112,220 L116,220 L116,226 L118,226 L118,236 L116,236 L116,238 L118,238 L118,242 L120,242 L120,246 L122,246 L122,250 L124,250 L124,256 L126,256 L126,254 L128,254 L130,259 L138,267 L144,268 L144,266 L146,266 L146,268 L150,268 L150,270 L152,270 L152,276 L154,276 L154,282 L156,282 L156,284 L162,284 L162,286 L172,286 L172,294 L176,296 L176,298 L180,298 L184,303 L190,304 L190,306 L196,306 L196,308 L200,308 L200,306 L208,306 L208,308 L224,308 L228,312 L228,320 L234,320 L234,324 L238,324 L238,328 L240,328 L240,332 L242,332 L242,336 L244,336 L244,340 L246,340 L246,344 L242,344 L242,350 L244,350 L244,356 L250,356 L250,364 L248,364 L248,358 L246,358 L246,364 L244,364 L244,366 L250,366 L250,368 L252,368 L252,370 L250,370 L250,378 L248,378 L248,386 L246,386 L246,392 L244,392 L244,400 L242,400 L242,402 L238,406 L236,406 L236,410 L234,410 L234,414 L230,414 L230,416 L214,416 L214,418 L206,418 L206,420 L208,420 L208,424 L196,424 L196,426 L192,426 L192,428 L180,428 L180,430 L174,430 L174,432 L176,432 L176,434 L170,434 L170,436 L156,436 L156,438 L152,438 L152,440 L138,440 L138,442 L126,442 L126,446 L118,446 L118,448 L108,448 L108,450 L100,450 L100,448 L96,448 L96,450 L84,450 L84,452 L72,452 L72,454 L26,454 L26,452 L18,452 L18,450 L12,450 L12,448 L6,448 L6,446 L0,446 L0,444 L2,444 L2,442 L-20,442 L-20,440 L-24,440 L-24,438 L-32,438 L-32,436 L-36,436 L-36,432 L-40,432 L-40,430 L-45,429 L-52,422 L-52,420 L-56,420 L-56,418 L-58,418 L-58,414 L-62,414 L-62,408 L-64,408 L-64,410 L-66,410 L-66,406 L-68,406 L-68,404 L-72,404 L-78,397 L-80,396 L-80,392 L-84,392 L-84,388 L-88,388 L-92,383 L-94,382 L-94,378 L-98,376 L-100,372 L-104,372 L-104,368 L-108,366 L-108,364 L-113,363 L-116,360 L-116,358 L-120,358 L-124,354 L-124,350 L-126,350 L-126,348 L-124,348 L-128,343 L-130,342 L-130,334 L-132,334 L-132,322 L-134,322 L-134,316 L-136,316 L-136,324 L-138,324 L-138,322 L-140,322 L-140,296 L-142,296 L-142,292 L-140,292 L-140,290 L-142,290 L-142,280 L-140,280 L-140,276 L-136,277 L-134,278 L-134,262 L-132,262 L-132,242 L-130,242 L-130,240 L-128,240 L-128,238 L-130,238 L-130,226 L-128,226 L-128,224 L-126,224 L-126,220 L-124,220 L-124,218 L-126,218 L-126,216 L-124,216 L-124,210 L-120,210 L-120,198 L-118,198 L-118,190 L-116,190 L-116,186 L-114,186 L-114,180 L-110,178 L-110,176 L-108,176 L-108,170 L-104,168 L-104,160 L-106,160 L-106,154 L-104,154 L-104,150 L-102,150 L-102,148 L-100,148 L-100,146 L-98,146 L-98,138 L-96,138 L-96,132 L-94,132 L-94,126 L-92,126 L-92,120 L-88,116 L-86,116 L-86,114 L-84,114 L-84,108 L-82,108 L-82,102 L-80,102 L-80,98 L-78,98 L-78,94 L-76,94 L-76,92 L-74,92 L-74,84 L-72,84 L-72,80 L-66,80 L-66,78 L-64,78 L-63,73 L-60,72 L-59,67 L-56,66 L-56,64 L-54,64 L-54,58 L-50,56 L-50,44 L-48,44 L-48,40 L-46,40 L-45,35 L-42,34 L-42,32 L-38,32 L-38,26 L-36,26 L-36,24 L-34,24 L-34,22 L-36,22 L-36,20 L-32,20 L-32,18 L-30,18 L-30,16 L-22,16 L-22,14 L-14,14 L-12,10 L-10,10 L-10,8 L-4,8 L-4,6 L0,6 Z M14,27 L2,30 L1,33 L-3,35 L-10,39 L-10,37 L-15,37 L-18,37 L-21,40 L-21,42 L-28,43 L-29,41 L-32,46 L-31,53 L-33,53 L-38,68 L-37,76 L-40,76 L-40,82 L-41,85 L-45,87 L-43,88 L-45,93 L-46,101 L-51,101 L-52,104 L-51,105 L-51,119 L-57,121 L-56,118 L-56,99 L-60,101 L-60,108 L-65,107 L-70,112 L-71,120 L-76,123 L-78,129 L-79,136 L-83,138 L-86,138 L-89,141 L-89,144 L-87,144 L-88,149 L-86,151 L-84,150 L-84,156 L-82,157 L-80,156 L-78,150 L-74,148 L-75,154 L-79,160 L-79,162 L-83,162 L-87,165 L-90,165 L-92,167 L-93,172 L-87,173 L-87,180 L-84,180 L-85,185 L-88,182 L-91,185 L-92,188 L-91,193 L-89,194 L-92,200 L-96,207 L-95,208 L-102,210 L-103,217 L-101,221 L-99,220 L-99,222 L-92,222 L-97,227 L-96,234 L-95,236 L-95,240 L-103,240 L-104,244 L-104,256 L-110,264 L-109,269 L-109,271 L-110,278 L-112,280 L-114,281 L-113,288 L-115,292 L-113,293 L-111,298 L-109,300 L-110,305 L-108,313 L-105,313 L-104,323 L-101,322 L-101,330 L-97,331 L-97,333 L-94,333 L-94,336 L-92,336 L-91,341 L-88,341 L-87,347 L-85,349 L-87,352 L-86,353 L-87,358 L-86,361 L-88,362 L-84,367 L-80,367 L-79,361 L-75,362 L-77,369 L-77,371 L-79,371 L-82,368 L-86,371 L-86,376 L-83,377 L-85,380 L-83,382 L-80,382 L-79,387 L-74,386 L-74,392 L-76,393 L-72,397 L-69,395 L-68,393 L-65,393 L-65,391 L-61,388 L-60,392 L-56,393 L-52,394 L-52,392 L-44,392 L-44,402 L-42,404 L-38,404 L-37,406 L-36,415 L-33,418 L-32,418 L-32,412 L-24,413 L-23,417 L-14,417 L-14,419 L-5,421 L-4,423 L20,424 L20,428 L64,430 L68,433 L70,433 L73,430 L82,428 L89,422 L90,423 L98,423 L101,420 L106,418 L106,416 L122,414 L125,412 L130,413 L130,415 L132,415 L133,412 L134,414 L138,414 L139,416 L142,415 L150,415 L153,415 L159,414 L160,415 L174,414 L174,412 L208,412 L208,414 L212,413 L214,404 L218,405 L225,403 L224,412 L229,411 L234,406 L236,401 L239,399 L242,388 L242,386 L244,381 L244,377 L241,377 L240,382 L236,383 L235,382 L235,380 L231,382 L230,377 L227,377 L229,374 L229,366 L225,366 L226,362 L226,354 L225,352 L226,343 L227,342 L228,329 L226,321 L221,320 L219,322 L216,317 L212,318 L211,321 L207,320 L206,323 L203,320 L200,320 L201,317 L202,316 L209,316 L208,311 L195,311 L186,309 L178,309 L173,310 L171,309 L161,308 L160,302 L161,299 L152,297 L153,293 L155,292 L154,289 L151,286 L146,286 L146,284 L134,283 L128,282 L130,272 L123,272 L122,275 L120,276 L119,272 L113,269 L114,263 L111,260 L114,258 L114,261 L118,260 L119,251 L117,251 L116,245 L114,245 L114,243 L112,243 L112,227 L109,224 L105,223 L106,219 L108,219 L108,213 L105,209 L103,209 L105,203 L103,203 L102,200 L99,201 L99,209 L98,208 L98,189 L97,189 L96,183 L94,184 L92,187 L91,184 L93,184 L93,176 L94,169 L92,160 L94,159 L92,139 L93,133 L93,115 L94,104 L98,100 L99,91 L97,90 L97,88 L99,87 L98,84 L94,85 L93,86 L92,79 L89,79 L85,79 L84,81 L77,81 L76,83 L78,84 L76,90 L78,90 L78,93 L82,93 L80,98 L78,98 L78,96 L74,97 L74,95 L70,95 L70,93 L65,93 L65,91 L60,92 L57,93 L57,91 L55,91 L55,89 L53,89 L51,82 L47,78 L46,72 L41,67 L38,61 L36,60 L35,48 L33,48 L32,43 L28,42 L28,38 L25,37 L24,35 L21,35 L20,29 L19,27 Z M-88,180 Z M-103,220 Z M195,310 Z M-58,111 Z M92,172 Z M-91,220 Z M-94,234 Z M138,413 Z " fill="#5950A8" transform="translate(416,264)"/>
<path d="M0,0 L2,0 L3,3 L-1,11 L-6,17 L-8,15 L-12,18 L-14,18 L-16,23 L-11,24 L-10,26 L-11,32 L-8,32 L-8,37 L-10,38 L-10,35 L-13,35 L-15,40 L-14,44 L-12,45 L-14,50 L-18,57 L-19,61 L-26,62 L-26,69 L-24,72 L-23,70 L-21,71 L-22,73 L-15,73 L-20,79 L-19,86 L-18,88 L-19,92 L-25,93 L-27,92 L-27,108 L-33,116 L-31,122 L-32,125 L-33,130 L-36,133 L-37,135 L-36,140 L-38,143 L-36,145 L-35,149 L-32,152 L-33,157 L-31,164 L-28,165 L-27,174 L-25,174 L-24,178 L-24,182 L-21,183 L-21,185 L-18,185 L-18,188 L-16,188 L-15,193 L-12,193 L-11,199 L-8,200 L-10,203 L-9,205 L-10,213 L-10,215 L-8,219 L-4,219 L-5,216 L-3,212 L2,213 L0,221 L-1,224 L-4,223 L-4,221 L-8,222 L-10,228 L-3,228 L-7,230 L-7,233 L-4,234 L-2,238 L2,238 L2,244 L1,247 L5,248 L7,245 L5,244 L10,245 L11,242 L13,242 L14,239 L16,240 L16,244 L18,244 L19,242 L20,244 L24,244 L32,244 L33,254 L38,255 L40,258 L41,269 L43,269 L44,264 L53,264 L53,268 L62,269 L62,271 L72,272 L72,275 L87,275 L96,276 L96,280 L112,280 L140,281 L146,285 L147,282 L152,280 L159,278 L165,273 L166,274 L174,274 L177,271 L182,270 L182,268 L188,266 L198,265 L201,263 L206,265 L206,267 L208,267 L209,263 L210,266 L215,267 L218,266 L226,266 L228,263 L229,266 L233,266 L235,263 L236,266 L250,266 L250,264 L281,264 L281,267 L276,269 L260,269 L252,270 L252,275 L247,277 L244,280 L233,280 L216,282 L206,282 L206,285 L172,289 L168,290 L158,290 L158,292 L146,293 L146,295 L139,297 L136,299 L129,299 L124,297 L124,295 L108,294 L107,295 L93,295 L79,293 L57,293 L58,290 L56,289 L56,291 L53,291 L52,289 L45,289 L45,287 L50,286 L48,282 L43,282 L42,281 L33,281 L35,280 L33,275 L25,275 L24,272 L20,272 L20,270 L18,270 L18,266 L14,266 L14,260 L12,260 L12,262 L10,262 L10,258 L8,258 L8,256 L4,256 L-2,249 L-4,248 L-4,244 L-8,244 L-8,240 L-12,240 L-16,235 L-18,234 L-18,230 L-22,228 L-24,224 L-28,224 L-28,220 L-32,218 L-32,216 L-37,215 L-40,212 L-40,210 L-44,210 L-48,206 L-48,202 L-50,202 L-50,200 L-48,200 L-53,194 L-53,186 L-52,185 L-55,185 L-55,174 L-55,173 L-57,173 L-57,167 L-55,167 L-56,164 L-57,131 L-57,115 L-52,115 L-52,113 L-49,110 L-47,100 L-46,99 L-46,75 L-44,65 L-43,63 L-43,51 L-41,51 L-40,59 L-39,58 L-38,50 L-36,50 L-36,44 L-33,43 L-32,38 L-30,36 L-27,36 L-26,32 L-24,31 L-23,28 L-21,27 L-20,20 L-18,17 L-19,15 L-17,8 L-15,8 L-13,4 L-9,1 L-7,2 L-7,8 L-4,8 L-3,2 Z M-12,32 Z M-27,72 Z M-15,72 Z M-18,86 Z M214,265 Z " fill="#4D59AB" transform="translate(340,412)"/>
<path d="M0,0 L6,0 L6,2 L14,2 L14,0 L16,0 L16,2 L20,2 L24,6 L24,10 L26,10 L26,12 L30,12 L30,14 L32,14 L32,18 L34,18 L34,22 L36,22 L36,32 L38,32 L37,34 L34,32 L35,23 L33,23 L33,27 L30,26 L30,24 L28,24 L28,22 L22,22 L18,20 L16,13 L4,12 L-6,13 L-8,19 L-12,20 L-15,23 L-20,23 L-20,25 L-28,28 L-28,31 L-35,33 L-37,40 L-41,48 L-42,57 L-44,61 L-44,67 L-45,72 L-48,72 L-48,76 L-50,77 L-51,82 L-49,82 L-50,90 L-53,95 L-55,95 L-57,99 L-59,101 L-60,108 L-64,109 L-65,108 L-69,112 L-71,123 L-72,121 L-75,123 L-77,129 L-79,136 L-84,139 L-86,139 L-89,144 L-87,144 L-87,151 L-91,156 L-93,157 L-94,164 L-94,167 L-95,172 L-97,176 L-99,176 L-100,180 L-102,180 L-103,184 L-107,186 L-109,191 L-111,192 L-112,198 L-114,198 L-114,206 L-117,210 L-117,199 L-119,199 L-118,212 L-119,216 L-121,223 L-121,247 L-122,248 L-124,258 L-126,261 L-128,261 L-128,263 L-130,263 L-130,277 L-131,277 L-131,263 L-133,263 L-132,279 L-131,315 L-133,315 L-133,321 L-131,321 L-131,316 L-130,316 L-130,321 L-128,322 L-131,322 L-131,333 L-129,333 L-128,331 L-128,333 L-126,333 L-126,341 L-127,341 L-127,334 L-129,334 L-129,342 L-130,342 L-130,334 L-132,334 L-132,322 L-134,322 L-134,316 L-136,316 L-136,324 L-138,324 L-138,322 L-140,322 L-140,296 L-142,296 L-142,292 L-140,292 L-140,290 L-142,290 L-142,280 L-140,280 L-140,276 L-136,277 L-134,278 L-134,262 L-132,262 L-132,242 L-130,242 L-130,240 L-128,240 L-128,238 L-130,238 L-130,226 L-128,226 L-128,224 L-126,224 L-126,220 L-124,220 L-124,218 L-126,218 L-126,216 L-124,216 L-124,210 L-120,210 L-120,198 L-118,198 L-118,190 L-116,190 L-116,186 L-114,186 L-114,180 L-110,178 L-110,176 L-108,176 L-108,170 L-104,168 L-104,160 L-106,160 L-106,154 L-104,154 L-104,150 L-102,150 L-102,148 L-100,148 L-100,146 L-98,146 L-98,138 L-96,138 L-96,132 L-94,132 L-94,126 L-92,126 L-92,120 L-88,116 L-86,116 L-86,114 L-84,114 L-84,108 L-82,108 L-82,102 L-80,102 L-80,98 L-78,98 L-78,94 L-76,94 L-76,92 L-74,92 L-74,84 L-72,84 L-72,80 L-66,80 L-66,78 L-64,78 L-63,73 L-60,72 L-59,67 L-56,66 L-56,64 L-54,64 L-54,58 L-50,56 L-50,44 L-48,44 L-48,40 L-46,40 L-45,35 L-42,34 L-42,32 L-38,32 L-38,26 L-36,26 L-36,24 L-34,24 L-34,22 L-36,22 L-36,20 L-32,20 L-32,18 L-30,18 L-30,16 L-22,16 L-22,14 L-14,14 L-12,10 L-10,10 L-10,8 L-4,8 L-4,6 L0,6 Z " fill="#505EB0" transform="translate(416,264)"/>
<path d="M0,0 L2,0 L3,3 L-1,11 L-6,17 L-8,15 L-12,18 L-14,18 L-16,23 L-11,24 L-10,26 L-11,32 L-8,32 L-8,37 L-10,38 L-10,35 L-13,35 L-15,40 L-14,44 L-12,45 L-14,50 L-18,57 L-19,61 L-26,62 L-26,69 L-24,72 L-23,70 L-21,71 L-22,73 L-15,73 L-20,79 L-19,86 L-18,88 L-19,92 L-25,93 L-27,92 L-27,108 L-33,116 L-31,122 L-32,125 L-33,130 L-36,133 L-37,135 L-36,140 L-38,143 L-36,145 L-35,149 L-32,152 L-33,157 L-31,164 L-28,165 L-27,174 L-25,174 L-24,178 L-24,182 L-21,183 L-21,185 L-18,185 L-18,188 L-16,188 L-15,193 L-12,193 L-11,199 L-8,200 L-10,203 L-9,205 L-10,213 L-10,215 L-8,219 L-4,219 L-5,216 L-3,212 L2,213 L0,221 L-1,224 L-4,223 L-4,221 L-8,222 L-11,223 L-11,220 L-14,219 L-17,212 L-19,211 L-19,204 L-21,203 L-22,196 L-27,197 L-26,204 L-30,205 L-30,207 L-32,207 L-35,195 L-36,191 L-39,191 L-41,195 L-41,191 L-44,190 L-44,181 L-48,180 L-46,176 L-45,173 L-48,172 L-49,164 L-49,148 L-49,145 L-49,130 L-48,117 L-46,116 L-45,102 L-44,101 L-44,89 L-42,84 L-40,84 L-39,81 L-36,81 L-36,74 L-31,69 L-29,60 L-29,55 L-28,54 L-27,39 L-22,37 L-22,30 L-20,30 L-20,20 L-18,17 L-19,15 L-17,8 L-15,8 L-13,4 L-9,1 L-7,2 L-7,8 L-4,8 L-3,2 Z M-12,32 Z M-27,72 Z M-15,72 Z M-18,86 Z " fill="#5663BB" transform="translate(340,412)"/>
<path d="M0,0 L4,0 L4,4 L6,4 L6,8 L8,8 L8,12 L10,12 L10,16 L12,16 L12,20 L8,20 L8,26 L10,26 L10,32 L16,32 L16,40 L14,40 L14,34 L12,34 L12,40 L10,40 L10,42 L16,42 L16,44 L18,44 L18,46 L16,46 L16,54 L14,54 L14,62 L12,62 L12,68 L10,68 L10,76 L8,76 L8,78 L4,82 L2,82 L2,86 L0,86 L0,90 L-4,90 L-4,92 L-20,92 L-20,94 L-28,94 L-28,96 L-26,96 L-26,100 L-38,100 L-38,102 L-42,102 L-42,104 L-54,104 L-54,106 L-60,106 L-60,108 L-58,108 L-58,110 L-64,110 L-64,112 L-78,112 L-78,114 L-82,114 L-82,116 L-96,116 L-96,118 L-108,118 L-108,122 L-116,122 L-116,124 L-126,124 L-126,126 L-134,126 L-134,124 L-138,124 L-138,126 L-150,126 L-150,128 L-162,128 L-162,130 L-208,130 L-208,128 L-216,128 L-216,126 L-222,126 L-222,124 L-228,124 L-228,122 L-234,122 L-234,120 L-232,120 L-232,118 L-254,118 L-254,116 L-258,116 L-258,114 L-266,114 L-266,112 L-270,112 L-270,108 L-274,108 L-274,106 L-279,105 L-284,99 L-276,98 L-275,104 L-268,104 L-265,105 L-261,106 L-260,110 L-258,111 L-265,111 L-265,113 L-255,112 L-257,113 L-257,115 L-254,115 L-254,113 L-233,114 L-233,115 L-253,115 L-253,117 L-228,116 L-214,118 L-203,118 L-198,117 L-188,118 L-186,119 L-186,121 L-181,122 L-174,122 L-169,119 L-164,119 L-164,117 L-152,116 L-152,114 L-122,110 L-104,109 L-104,106 L-82,104 L-74,103 L-64,103 L-63,100 L-58,99 L-58,94 L-50,92 L-34,92 L-29,91 L-29,88 L-26,88 L-26,90 L-22,89 L-22,83 L-20,80 L-9,79 L-10,88 L-4,85 L-2,82 L0,82 L1,77 L4,75 L7,64 L6,62 L8,62 L10,53 L7,53 L6,58 L3,59 L1,63 L0,58 L2,53 L2,42 L4,36 L7,36 L7,33 L9,33 L9,27 L7,27 L7,32 L6,32 L6,17 L5,12 L7,12 L7,9 L5,9 L4,11 L3,8 L5,8 L5,5 L3,5 L2,7 L0,3 L3,3 L3,1 Z " fill="#494CAB" transform="translate(650,588)"/>
<path d="M0,0 L8,1 L12,2 L14,9 L24,11 L24,13 L26,13 L29,16 L29,12 L31,12 L31,21 L35,23 L35,26 L33,26 L33,28 L35,28 L35,32 L41,32 L41,35 L39,35 L39,37 L43,36 L43,38 L41,38 L43,47 L46,49 L46,55 L48,55 L47,61 L52,60 L57,67 L57,69 L66,67 L76,67 L82,66 L86,67 L85,69 L81,68 L80,71 L73,71 L75,73 L72,79 L74,79 L74,82 L78,82 L76,87 L74,87 L74,85 L70,86 L70,84 L66,84 L66,82 L61,82 L61,80 L56,82 L53,82 L53,80 L51,80 L51,78 L49,78 L46,71 L42,67 L42,61 L38,59 L34,52 L34,50 L31,49 L31,37 L29,37 L27,32 L24,31 L24,27 L20,26 L20,24 L17,24 L15,16 L5,18 L-2,20 L-7,25 L-11,28 L-14,28 L-14,26 L-20,27 L-22,27 L-27,32 L-32,32 L-34,32 L-35,37 L-34,40 L-35,42 L-37,42 L-38,49 L-41,58 L-41,65 L-44,65 L-43,71 L-48,76 L-47,79 L-49,90 L-51,91 L-55,90 L-54,94 L-54,108 L-61,110 L-61,87 L-57,83 L-54,75 L-53,71 L-55,71 L-55,66 L-52,65 L-52,61 L-49,61 L-50,57 L-49,52 L-48,47 L-46,40 L-45,35 L-39,22 L-36,20 L-32,20 L-33,17 L-28,14 L-24,14 L-24,12 L-18,10 L-15,7 L-13,7 L-10,2 Z M-62,100 Z " fill="#5160AD" transform="translate(420,275)"/>
<path d="M0,0 L6,2 L6,4 L8,4 L9,0 L10,3 L15,4 L18,3 L26,3 L28,0 L29,3 L33,3 L35,0 L36,3 L50,3 L50,1 L81,1 L81,4 L76,6 L60,6 L52,7 L52,12 L47,14 L44,17 L33,17 L16,19 L6,19 L6,22 L-28,26 L-32,27 L-42,27 L-42,29 L-48,30 L-60,30 L-60,28 L-68,28 L-68,26 L-72,26 L-72,28 L-88,28 L-99,27 L-100,24 L-114,23 L-113,19 L-132,16 L-132,14 L-146,13 L-155,10 L-156,1 L-147,1 L-147,5 L-138,6 L-138,8 L-128,9 L-128,12 L-113,12 L-104,13 L-104,17 L-88,17 L-60,18 L-54,22 L-53,19 L-48,17 L-41,15 L-35,10 L-34,11 L-26,11 L-23,8 L-18,7 L-18,5 L-12,3 L-2,2 Z M14,2 Z " fill="#5455BB" transform="translate(540,675)"/>
<path d="M0,0 L5,0 L7,5 L7,8 L10,8 L11,10 L14,11 L14,15 L18,16 L19,21 L21,21 L22,33 L26,37 L29,43 L32,45 L34,53 L37,55 L39,60 L41,73 L43,73 L42,76 L40,76 L38,82 L36,83 L36,71 L32,71 L33,61 L30,54 L30,50 L28,50 L24,44 L22,36 L19,36 L19,34 L17,34 L18,25 L12,23 L12,16 L8,17 L8,15 L4,15 L3,11 L2,15 L0,15 L0,10 L-7,12 L-10,15 L-12,16 L-14,25 L-21,29 L-26,34 L-28,36 L-35,37 L-36,42 L-38,48 L-39,57 L-37,57 L-39,65 L-44,67 L-42,68 L-41,75 L-48,80 L-52,80 L-52,75 L-54,77 L-59,77 L-58,80 L-60,85 L-59,87 L-59,97 L-59,101 L-58,107 L-61,111 L-64,110 L-65,107 L-63,107 L-65,104 L-65,78 L-66,76 L-65,74 L-60,74 L-58,63 L-57,61 L-59,60 L-55,58 L-54,49 L-51,49 L-52,41 L-47,26 L-45,26 L-46,19 L-43,14 L-42,16 L-35,15 L-33,11 L-30,9 L-29,10 L-24,10 L-24,12 L-17,8 L-13,6 L-12,3 Z M-66,109 Z " fill="#5E6BC2" transform="translate(430,291)"/>
<path d="M0,0 L2,0 L3,6 L2,9 L4,17 L3,19 L5,19 L7,24 L7,29 L3,28 L3,34 L11,34 L12,32 L14,32 L13,28 L18,29 L18,33 L24,33 L26,31 L27,35 L30,35 L30,33 L36,32 L38,32 L45,31 L46,28 L49,28 L49,23 L54,28 L54,31 L56,31 L56,33 L66,33 L72,34 L71,37 L74,37 L75,30 L78,29 L78,26 L84,26 L84,24 L86,24 L87,22 L87,24 L90,24 L90,22 L94,21 L95,30 L97,30 L96,39 L88,39 L89,44 L87,44 L86,50 L85,51 L80,51 L80,47 L75,47 L76,52 L72,54 L66,50 L61,52 L60,54 L58,54 L58,52 L56,52 L56,54 L54,54 L54,51 L32,51 L24,52 L21,51 L16,52 L16,50 L10,50 L8,49 L8,47 L10,47 L10,45 L6,45 L6,38 L1,37 L1,28 L-2,27 L-2,2 Z M18,28 Z " fill="#6467DC" transform="translate(426,630)"/>
<path d="M0,0 L3,1 L4,6 L7,7 L9,11 L14,12 L14,20 L19,20 L18,12 L16,12 L18,6 L22,10 L21,13 L28,13 L31,15 L30,21 L37,24 L37,28 L39,27 L40,24 L47,24 L45,34 L63,36 L63,43 L64,46 L67,48 L67,55 L68,59 L74,60 L75,67 L77,73 L77,76 L82,76 L81,86 L76,87 L76,85 L72,84 L74,84 L74,81 L71,80 L72,72 L59,69 L57,68 L57,61 L50,62 L37,61 L32,59 L32,55 L34,50 L32,50 L31,48 L26,46 L21,47 L19,41 L16,35 L15,32 L13,32 L12,25 L15,25 L12,19 L12,17 L8,16 L4,10 L4,7 L2,7 L2,5 L-1,5 L-1,3 L-3,3 L-3,1 Z " fill="#685EC6" transform="translate(499,512)"/>
<path d="M0,0 L5,1 L6,5 L5,7 L7,7 L7,11 L9,11 L9,13 L13,13 L13,19 L17,19 L17,21 L19,21 L19,25 L21,25 L23,30 L25,31 L25,29 L27,29 L29,32 L35,33 L35,35 L39,35 L39,37 L49,37 L49,39 L55,39 L55,41 L59,41 L59,43 L63,43 L63,45 L67,45 L71,50 L73,51 L73,59 L71,59 L71,63 L73,63 L73,71 L75,71 L75,75 L73,75 L73,85 L70,85 L70,90 L65,90 L65,119 L62,119 L60,119 L59,141 L59,154 L57,155 L56,149 L54,153 L52,152 L52,149 L54,149 L53,147 L53,141 L54,134 L53,125 L54,124 L52,104 L53,98 L53,80 L54,69 L56,67 L58,65 L60,56 L57,55 L58,52 L60,52 L59,50 L56,50 L54,52 L53,51 L52,44 L45,43 L41,44 L30,44 L28,45 L22,45 L17,37 L14,38 L12,37 L13,31 L11,31 L11,25 L7,23 L6,21 L6,14 L8,14 L8,12 L4,13 L4,11 L6,11 L6,8 L4,8 L3,10 L3,8 L0,8 L0,4 L-2,4 L-2,2 L0,2 Z M53,137 Z " fill="#5A56A9" transform="translate(455,299)"/>
<path d="M0,0 L4,0 L4,4 L6,4 L6,8 L8,8 L8,12 L10,12 L10,16 L12,16 L12,20 L8,20 L8,26 L10,26 L10,32 L16,32 L16,40 L14,40 L14,34 L12,34 L12,40 L10,40 L10,42 L16,42 L16,44 L18,44 L18,46 L16,46 L16,54 L14,54 L14,62 L12,62 L12,68 L10,68 L10,76 L8,76 L8,78 L4,82 L2,82 L2,86 L0,86 L0,90 L-4,90 L-4,92 L-20,92 L-20,94 L-28,94 L-28,96 L-26,96 L-26,100 L-38,100 L-38,102 L-42,102 L-42,104 L-54,104 L-54,106 L-60,106 L-60,108 L-58,108 L-58,110 L-64,110 L-64,112 L-78,112 L-78,114 L-82,114 L-82,116 L-96,116 L-96,118 L-108,118 L-108,117 L-97,117 L-97,112 L-86,110 L-77,103 L-64,103 L-63,100 L-58,99 L-58,94 L-50,92 L-34,92 L-29,91 L-29,88 L-26,88 L-26,90 L-22,89 L-22,83 L-20,80 L-9,79 L-10,88 L-4,85 L-2,82 L0,82 L1,77 L4,75 L7,64 L6,62 L8,62 L10,53 L7,53 L6,58 L3,59 L1,63 L0,58 L2,53 L2,42 L4,36 L7,36 L7,33 L9,33 L9,27 L7,27 L7,32 L6,32 L6,17 L5,12 L7,12 L7,9 L5,9 L4,11 L3,8 L5,8 L5,5 L3,5 L2,7 L0,3 L3,3 L3,1 Z " fill="#47439C" transform="translate(650,588)"/>
<path d="M0,0 L3,0 L5,5 L5,9 L7,10 L5,13 L7,14 L5,19 L9,19 L9,21 L13,19 L13,21 L15,21 L15,19 L17,19 L17,22 L1,24 L1,26 L-5,29 L-9,31 L-15,31 L-18,31 L-23,36 L-32,38 L-35,41 L-40,39 L-41,38 L-85,36 L-85,32 L-109,31 L-111,29 L-119,27 L-119,25 L-122,24 L-117,25 L-115,26 L-108,26 L-106,22 L-106,16 L-104,20 L-104,22 L-85,23 L-79,24 L-79,26 L-72,24 L-69,25 L-58,24 L-41,25 L-41,28 L-39,28 L-39,26 L-37,26 L-37,28 L-35,28 L-33,24 L-29,23 L-22,27 L-20,25 L-20,21 L-15,21 L-15,25 L-10,24 L-8,18 L-6,18 L-7,13 L-3,12 L1,13 L2,4 L0,4 Z " fill="#5F62D4" transform="translate(521,656)"/>
<path d="M0,0 L6,0 L6,2 L16,2 L16,10 L20,12 L20,14 L24,14 L28,19 L34,20 L34,22 L40,22 L40,24 L44,24 L44,22 L52,22 L52,24 L68,24 L72,28 L72,36 L78,36 L78,41 L81,41 L81,43 L78,43 L80,46 L83,45 L83,48 L81,48 L82,50 L85,49 L85,52 L83,52 L85,59 L85,67 L87,67 L87,73 L85,73 L85,76 L82,76 L81,82 L81,93 L80,96 L76,98 L74,101 L73,96 L74,93 L71,93 L72,90 L72,83 L68,83 L69,78 L69,70 L68,68 L69,59 L70,58 L71,45 L70,37 L65,37 L62,39 L60,33 L56,35 L55,37 L51,37 L50,39 L47,38 L47,36 L44,36 L43,32 L46,31 L53,32 L52,28 L39,28 L32,26 L32,24 L28,23 L33,23 L33,21 L24,22 L22,23 L14,22 L16,18 L19,13 L17,13 L16,15 L15,11 L14,13 L14,11 L7,10 L2,8 L1,3 L5,3 L5,1 L0,1 Z M39,26 Z " fill="#4A469C" transform="translate(572,548)"/>
<path d="M0,0 L2,0 L3,3 L-1,11 L-6,17 L-8,15 L-12,18 L-14,18 L-16,23 L-11,24 L-10,26 L-11,32 L-8,32 L-8,37 L-10,38 L-10,35 L-13,35 L-15,40 L-14,44 L-12,45 L-14,50 L-18,57 L-19,61 L-26,62 L-26,69 L-24,75 L-26,75 L-27,79 L-33,78 L-32,84 L-31,96 L-38,97 L-38,100 L-40,116 L-43,117 L-42,127 L-40,127 L-40,129 L-42,129 L-44,134 L-46,134 L-45,148 L-45,161 L-44,170 L-45,173 L-48,172 L-49,164 L-49,148 L-49,145 L-49,130 L-48,117 L-46,116 L-45,102 L-44,101 L-44,89 L-42,84 L-40,84 L-39,81 L-36,81 L-36,74 L-31,69 L-29,60 L-29,55 L-28,54 L-27,39 L-22,37 L-22,30 L-20,30 L-20,20 L-18,17 L-19,15 L-17,8 L-15,8 L-13,4 L-9,1 L-7,2 L-7,8 L-4,8 L-3,2 Z M-12,32 Z M-27,72 Z " fill="#515EB4" transform="translate(340,412)"/>
<path d="M0,0 L6,0 L6,2 L14,2 L14,0 L16,0 L16,2 L20,2 L24,6 L24,10 L26,10 L26,12 L30,12 L30,14 L32,14 L32,18 L34,18 L34,22 L36,22 L36,32 L38,32 L37,34 L34,32 L35,23 L33,23 L33,27 L30,26 L30,24 L28,24 L28,22 L22,22 L18,20 L16,13 L4,12 L-6,13 L-8,19 L-12,20 L-15,23 L-20,23 L-20,25 L-28,28 L-28,31 L-35,33 L-37,40 L-41,48 L-42,57 L-46,63 L-48,66 L-50,71 L-55,72 L-56,76 L-57,69 L-59,69 L-58,74 L-63,74 L-62,72 L-60,72 L-59,67 L-56,66 L-56,64 L-54,64 L-54,58 L-50,56 L-50,44 L-48,44 L-48,40 L-46,40 L-45,35 L-42,34 L-42,32 L-38,32 L-38,26 L-36,26 L-36,24 L-34,24 L-34,22 L-36,22 L-36,20 L-32,20 L-32,18 L-30,18 L-30,16 L-22,16 L-22,14 L-14,14 L-12,10 L-10,10 L-10,8 L-4,8 L-4,6 L0,6 Z " fill="#4E5DA7" transform="translate(416,264)"/>
<path d="M0,0 L2,1 L2,12 L1,15 L-1,16 L-2,22 L-4,22 L-4,30 L-7,34 L-7,23 L-9,23 L-8,36 L-9,40 L-11,47 L-11,71 L-12,72 L-14,82 L-16,85 L-18,85 L-18,87 L-20,87 L-20,101 L-21,101 L-21,87 L-23,87 L-22,103 L-21,139 L-23,139 L-23,145 L-21,145 L-21,140 L-20,140 L-20,145 L-18,146 L-21,146 L-21,157 L-19,157 L-18,155 L-18,157 L-16,157 L-16,165 L-17,165 L-17,158 L-19,158 L-19,166 L-20,166 L-20,158 L-22,158 L-22,146 L-24,146 L-24,140 L-26,140 L-26,148 L-28,148 L-28,146 L-30,146 L-30,120 L-32,120 L-32,116 L-30,116 L-30,114 L-32,114 L-32,104 L-30,104 L-30,100 L-26,101 L-24,102 L-24,86 L-22,86 L-22,66 L-20,66 L-20,64 L-18,64 L-18,62 L-20,62 L-20,50 L-18,50 L-18,48 L-16,48 L-16,44 L-14,44 L-14,42 L-16,42 L-16,40 L-14,40 L-14,34 L-10,34 L-10,22 L-8,22 L-8,14 L-6,14 L-6,10 L-4,10 L-4,4 L0,2 Z " fill="#4A55A9" transform="translate(306,440)"/>
<path d="M0,0 L1,0 L1,5 L3,5 L3,0 L4,0 L4,6 L2,6 L2,10 L4,10 L4,22 L2,22 L3,30 L2,46 L0,46 L1,50 L0,62 L2,62 L2,66 L0,66 L0,74 L2,74 L2,78 L0,78 L0,80 L2,80 L2,82 L4,82 L4,90 L6,90 L6,100 L10,100 L10,106 L12,106 L12,116 L10,116 L10,118 L12,118 L12,122 L14,122 L14,126 L16,126 L16,130 L18,130 L18,136 L20,136 L20,134 L22,134 L23,139 L21,139 L19,143 L18,141 L14,140 L12,137 L13,131 L11,131 L10,125 L8,125 L8,123 L6,123 L5,105 L-1,103 L0,99 L2,99 L0,91 L-3,89 L-1,83 L-3,83 L-4,81 L-6,81 L-7,89 L-9,88 L-9,48 L-8,36 L-7,34 L-5,34 L-4,32 L-3,33 L-3,14 L-2,5 L0,5 Z " fill="#5751A9" transform="translate(522,384)"/>
<path d="M0,0 L1,3 L3,3 L4,1 L6,5 L11,5 L13,17 L13,19 L17,20 L17,23 L26,25 L40,27 L40,29 L54,30 L60,31 L58,36 L68,36 L72,37 L73,39 L100,41 L100,39 L104,39 L104,41 L112,41 L112,43 L118,43 L118,45 L111,47 L108,49 L101,49 L96,47 L96,45 L80,44 L79,45 L71,45 L65,43 L65,41 L56,41 L48,39 L36,38 L36,34 L29,35 L28,31 L21,31 L16,29 L15,26 L12,25 L8,21 L8,19 L4,18 L3,5 L0,5 Z " fill="#4D54AF" transform="translate(368,662)"/>
<path d="M0,0 L3,1 L3,3 L11,5 L12,26 L15,26 L14,31 L13,41 L11,46 L14,47 L13,56 L14,58 L19,58 L18,61 L18,75 L20,76 L19,81 L20,84 L20,90 L18,91 L14,90 L14,83 L9,81 L11,66 L6,69 L4,70 L3,61 L4,58 L2,57 L3,50 L2,47 L3,42 L5,41 L6,26 L1,28 L0,25 L1,24 L2,12 L0,11 L1,8 L-1,7 L1,7 Z M13,71 Z M12,72 Z M11,73 Z M-2,8 Z " fill="#6A72D9" transform="translate(438,326)"/>
<path d="M0,0 L6,2 L6,4 L8,4 L9,0 L10,3 L15,4 L18,3 L26,3 L28,0 L28,5 L6,8 L5,6 L2,14 L0,14 L0,11 L-3,14 L-4,17 L-7,17 L-8,13 L-16,18 L-33,19 L-42,20 L-50,20 L-50,23 L-55,25 L-71,25 L-97,23 L-98,20 L-104,20 L-104,19 L-90,19 L-86,20 L-85,18 L-60,18 L-54,22 L-53,19 L-48,17 L-41,15 L-35,10 L-34,11 L-26,11 L-23,8 L-18,7 L-18,5 L-12,3 L-2,2 Z M14,2 Z " fill="#5A58C4" transform="translate(540,675)"/>
<path d="M0,0 L5,2 L10,7 L10,11 L12,11 L14,15 L19,17 L22,31 L26,32 L27,41 L31,42 L31,45 L37,44 L42,51 L42,53 L51,51 L61,51 L67,50 L71,51 L70,53 L66,52 L65,55 L58,55 L60,57 L57,63 L59,63 L59,66 L63,66 L61,71 L59,71 L59,69 L55,70 L55,68 L51,68 L51,66 L46,66 L46,64 L41,66 L38,66 L38,64 L36,64 L36,62 L34,62 L31,55 L27,51 L27,45 L23,43 L19,36 L19,34 L16,33 L16,21 L14,21 L12,16 L9,15 L9,11 L5,10 L5,8 L2,8 Z " fill="#5B5CB5" transform="translate(435,291)"/>
<path d="M0,0 L31,0 L31,3 L26,5 L10,5 L2,6 L2,11 L-3,13 L-6,16 L-17,16 L-34,18 L-44,18 L-44,21 L-78,25 L-82,26 L-92,26 L-92,28 L-104,29 L-99,25 L-90,24 L-86,24 L-85,21 L-79,21 L-74,19 L-73,20 L-68,20 L-67,19 L-46,18 L-44,13 L-40,12 L-28,12 L-23,11 L-21,5 L-14,4 L-14,3 L0,2 Z " fill="#564FB5" transform="translate(590,676)"/>
<path d="M0,0 L1,4 L0,12 L-2,16 L-4,18 L-5,24 L-1,23 L-5,38 L-9,44 L-10,48 L-9,52 L-9,59 L-11,65 L-10,68 L-7,68 L-7,74 L-11,74 L-12,81 L-16,81 L-18,73 L-17,67 L-20,65 L-21,61 L-23,59 L-21,56 L-22,49 L-19,48 L-17,44 L-17,39 L-17,37 L-18,32 L-12,24 L-12,12 L-11,8 L-3,8 L-2,3 Z " fill="#5D6CCA" transform="translate(324,496)"/>
<path d="M0,0 L5,0 L6,6 L13,6 L16,7 L20,8 L21,12 L23,13 L16,13 L16,15 L26,14 L24,15 L24,17 L27,17 L27,15 L48,16 L48,17 L28,17 L28,19 L53,18 L64,20 L66,26 L76,26 L76,28 L118,28 L118,26 L121,25 L130,25 L131,26 L142,27 L142,25 L140,24 L143,23 L143,25 L147,25 L147,23 L151,22 L151,24 L154,22 L163,20 L170,20 L170,21 L165,21 L165,23 L172,23 L173,20 L173,24 L165,24 L165,26 L155,26 L155,28 L147,28 L147,26 L143,26 L143,28 L131,28 L131,30 L119,30 L119,32 L73,32 L73,30 L65,30 L65,28 L59,28 L59,26 L53,26 L53,24 L47,24 L47,22 L49,22 L49,20 L27,20 L27,18 L23,18 L23,16 L15,16 L15,14 L11,14 L11,10 L7,10 L7,8 L2,7 L-3,1 Z " fill="#424C94" transform="translate(369,686)"/>
<path d="M0,0 L2,1 L1,3 L3,3 L1,20 L-1,26 L-3,30 L-1,30 L-1,37 L-5,42 L-7,43 L-8,50 L-8,53 L-9,58 L-11,62 L-13,62 L-14,66 L-16,66 L-17,70 L-22,72 L-23,70 L-22,56 L-18,54 L-18,46 L-20,46 L-20,40 L-18,40 L-18,36 L-16,36 L-16,34 L-14,34 L-14,32 L-12,32 L-12,24 L-10,24 L-10,18 L-8,18 L-8,12 L-6,12 L-6,6 L-2,2 L0,2 Z " fill="#4E5AAA" transform="translate(330,378)"/>
<path d="M0,0 L4,4 L3,7 L10,7 L13,9 L12,15 L19,18 L19,22 L21,21 L22,18 L29,18 L27,28 L45,30 L45,37 L46,40 L49,42 L49,49 L50,53 L56,54 L57,61 L58,66 L49,63 L48,56 L45,51 L46,44 L35,45 L34,41 L29,41 L27,34 L27,32 L21,32 L14,28 L14,26 L12,26 L13,22 L8,22 L8,18 L6,18 L6,16 L2,17 L0,9 L0,6 L-2,6 Z " fill="#5F56B6" transform="translate(517,518)"/>
<path d="M0,0 L3,0 L3,2 L7,1 L8,5 L1,5 L1,8 L3,8 L3,12 L-9,12 L-9,14 L-13,14 L-13,16 L-25,16 L-25,18 L-31,18 L-31,20 L-29,20 L-29,22 L-35,22 L-35,24 L-49,24 L-49,26 L-53,26 L-53,28 L-67,28 L-67,30 L-79,30 L-79,29 L-68,29 L-68,24 L-57,22 L-48,15 L-35,15 L-34,12 L-29,11 L-29,6 L-21,4 L-5,4 L0,3 Z " fill="#4D45A6" transform="translate(621,676)"/>
<path d="M0,0 L2,0 L3,6 L2,9 L4,17 L3,19 L5,19 L7,24 L7,29 L3,28 L3,34 L11,34 L12,32 L14,32 L13,28 L18,29 L18,33 L24,33 L26,31 L27,35 L30,35 L30,33 L36,32 L38,32 L45,31 L46,28 L49,28 L49,23 L54,28 L54,31 L56,31 L56,33 L66,33 L72,34 L71,36 L62,37 L50,37 L49,39 L38,40 L32,40 L28,41 L26,43 L26,41 L6,41 L6,38 L1,37 L1,28 L-2,27 L-2,2 Z M18,28 Z " fill="#6D71E6" transform="translate(426,630)"/>
<path d="M0,0 L1,3 L2,8 L1,10 L-1,10 L-2,17 L-5,26 L-5,33 L-8,33 L-7,39 L-12,44 L-11,47 L-13,58 L-15,59 L-19,58 L-18,62 L-18,76 L-25,78 L-25,55 L-21,51 L-18,43 L-17,39 L-19,39 L-19,34 L-16,33 L-16,29 L-13,29 L-14,25 L-13,20 L-12,15 L-7,12 L-6,3 L-3,1 Z M-26,68 Z " fill="#5465BD" transform="translate(384,307)"/>
<path d="M0,0 L5,1 L6,5 L5,7 L7,7 L7,11 L9,11 L9,13 L13,13 L13,19 L17,19 L17,21 L19,21 L19,25 L21,25 L23,30 L25,31 L25,29 L27,29 L29,32 L35,33 L35,35 L39,35 L39,37 L49,37 L49,39 L55,39 L55,41 L59,41 L58,43 L45,43 L41,44 L30,44 L28,45 L22,45 L17,37 L14,38 L12,37 L13,31 L11,31 L11,25 L7,23 L6,21 L6,14 L8,14 L8,12 L4,13 L4,11 L6,11 L6,8 L4,8 L3,10 L3,8 L0,8 L0,4 L-2,4 L-2,2 L0,2 Z " fill="#5455A7" transform="translate(455,299)"/>
<path d="M0,0 L6,0 L6,12 L8,12 L6,20 L1,22 L3,23 L4,30 L-3,35 L-7,35 L-7,30 L-9,32 L-14,32 L-13,35 L-15,40 L-14,42 L-14,52 L-14,56 L-13,62 L-16,66 L-19,65 L-20,62 L-18,62 L-20,59 L-20,33 L-21,31 L-20,29 L-15,29 L-12,24 L-9,24 L-7,18 L-6,17 L-5,10 L-2,7 L-5,7 L-4,3 Z M-21,64 Z " fill="#5B6BC8" transform="translate(385,336)"/>
<path d="M0,0 L5,1 L7,2 L14,2 L16,0 L33,0 L33,2 L41,2 L41,8 L46,7 L55,7 L55,9 L60,9 L65,10 L70,9 L75,7 L93,7 L100,8 L100,6 L103,4 L115,4 L115,2 L121,2 L116,6 L112,7 L107,7 L104,7 L99,12 L90,14 L87,17 L82,15 L81,14 L37,12 L37,8 L13,7 L11,5 L3,3 L3,1 Z " fill="#5C60CC" transform="translate(399,680)"/>
<path d="M0,0 L2,0 L3,9 L5,9 L4,18 L-4,18 L-3,23 L-5,23 L-6,29 L-7,30 L-12,30 L-12,26 L-17,26 L-16,31 L-20,33 L-26,29 L-30,29 L-30,23 L-26,21 L-20,22 L-19,18 L-17,18 L-16,11 L-14,5 L-8,5 L-8,3 L-6,3 L-5,1 L-5,3 L-2,3 L-2,1 Z " fill="#6E62DB" transform="translate(518,651)"/>
<path d="M0,0 L12,0 L19,1 L19,6 L22,7 L19,9 L7,11 L-4,20 L-7,20 L-7,18 L-13,19 L-15,19 L-20,24 L-25,24 L-28,24 L-27,20 L-22,15 L-17,11 L-12,6 L-4,6 L-1,5 Z " fill="#5563B4" transform="translate(413,283)"/>
<path d="M0,0 L1,4 L-1,4 L-1,12 L1,12 L1,16 L-1,16 L-1,18 L1,18 L1,20 L3,20 L3,28 L5,28 L5,38 L9,38 L9,44 L11,44 L11,54 L9,54 L9,56 L11,56 L11,60 L13,60 L13,64 L15,64 L15,68 L17,68 L17,74 L19,74 L19,72 L21,72 L22,77 L20,77 L18,81 L17,79 L13,78 L11,75 L12,69 L10,69 L9,63 L7,63 L7,61 L5,61 L4,43 L-2,41 L-1,37 L1,37 L-1,29 L-4,27 L-2,21 L-4,21 L-7,16 L-8,10 L-5,3 L0,3 Z " fill="#4E4A9B" transform="translate(523,446)"/>
<path d="M0,0 L2,0 L2,8 L14,8 L14,15 L16,15 L16,21 L14,21 L14,24 L11,24 L10,30 L10,41 L9,44 L5,46 L3,49 L2,44 L3,41 L0,41 L1,38 L1,31 L-3,31 L-2,26 L-2,18 L-3,16 L-2,7 Z " fill="#504BAB" transform="translate(643,600)"/>
<path d="M0,0 L1,0 L2,17 L3,53 L1,53 L1,59 L3,59 L3,54 L4,54 L4,59 L6,60 L3,60 L3,71 L5,71 L6,69 L6,71 L8,71 L8,79 L7,79 L7,72 L5,72 L5,80 L4,80 L4,72 L2,72 L2,60 L0,60 L0,54 L-2,54 L-2,62 L-4,62 L-4,60 L-6,60 L-6,34 L-8,34 L-8,30 L-6,30 L-6,28 L-8,28 L-8,18 L-6,18 L-6,14 L-2,15 L0,16 Z " fill="#46529F" transform="translate(282,526)"/>
<path d="M0,0 L5,0 L5,2 L8,3 L7,13 L6,21 L6,47 L8,51 L10,71 L10,80 L8,80 L7,82 L4,79 L4,71 L5,70 L2,70 L2,59 L2,58 L0,58 L0,52 L2,52 L1,49 L0,16 Z " fill="#4B56AA" transform="translate(283,527)"/>
<path d="M0,0 L1,3 L3,3 L4,1 L6,5 L11,5 L13,17 L13,19 L17,20 L17,23 L26,25 L40,27 L40,29 L54,30 L60,31 L58,36 L68,36 L72,38 L55,37 L48,36 L47,34 L39,33 L36,33 L31,32 L21,31 L16,29 L15,26 L12,25 L8,21 L8,19 L4,18 L3,5 L0,5 Z " fill="#505CB2" transform="translate(368,662)"/>
<path d="M0,0 L2,0 L2,5 L4,5 L5,0 L6,0 L6,5 L14,6 L15,13 L20,13 L21,19 L19,24 L21,24 L21,26 L24,26 L28,35 L30,40 L32,40 L36,51 L36,57 L34,62 L33,62 L33,54 L28,56 L28,48 L24,47 L23,28 L16,27 L15,26 L15,17 L9,16 L9,14 L7,14 L7,10 L0,10 L0,5 L-8,5 L-6,1 Z " fill="#666CC9" transform="translate(428,301)"/>
<path d="M0,0 L1,0 L2,5 L7,6 L8,10 L10,9 L19,9 L19,16 L22,21 L22,28 L31,31 L32,35 L37,35 L36,45 L31,46 L31,44 L27,43 L29,43 L29,40 L26,39 L27,31 L14,28 L12,27 L12,20 L5,21 L5,18 L2,18 L3,10 L0,7 L-2,1 Z " fill="#6458BE" transform="translate(544,553)"/>
<path d="M0,0 L9,0 L9,4 L18,5 L18,7 L28,8 L28,11 L43,11 L52,12 L52,16 L68,16 L71,17 L70,21 L70,19 L46,19 L38,17 L24,15 L24,13 L10,12 L1,9 Z " fill="#5861C2" transform="translate(384,676)"/>
<path d="M0,0 L6,0 L4,4 L0,8 L-4,9 L-7,18 L-5,18 L-5,25 L-9,27 L-10,31 L-16,34 L-18,38 L-14,37 L-16,41 L-18,41 L-18,48 L-21,53 L-22,55 L-25,56 L-27,58 L-26,49 L-25,47 L-27,46 L-23,44 L-22,35 L-19,35 L-20,27 L-15,12 L-11,13 L-12,14 L-10,15 L-10,17 L-8,17 L-8,9 L-6,9 L-6,7 L-2,7 L-2,1 Z " fill="#5968C0" transform="translate(398,305)"/>
<path d="M0,0 L1,3 L3,3 L3,1 L5,1 L3,16 L1,23 L-1,28 L-4,29 L-7,28 L-9,23 L-11,23 L-11,21 L-13,21 L-12,24 L-10,25 L-11,36 L-15,40 L-17,40 L-17,35 L-19,35 L-19,40 L-20,40 L-20,34 L-18,34 L-18,28 L-16,28 L-16,24 L-14,24 L-14,20 L-12,20 L-12,18 L-10,18 L-10,10 L-8,10 L-8,6 L-2,6 L-2,4 L0,4 Z " fill="#4D59A8" transform="translate(352,338)"/>
<path d="M0,0 L8,0 L11,0 L16,2 L18,3 L18,7 L20,7 L20,9 L24,9 L24,11 L26,11 L26,15 L28,15 L28,19 L30,19 L30,29 L32,29 L31,31 L28,29 L29,20 L27,20 L27,24 L24,23 L24,21 L22,21 L22,19 L16,19 L12,17 L10,10 L-6,9 L-5,6 L-9,6 L-9,4 L-2,5 L-2,3 L0,2 Z " fill="#525CA8" transform="translate(422,267)"/>
<path d="M0,0 L7,4 L9,1 L13,2 L20,9 L26,10 L26,8 L28,8 L28,10 L32,10 L32,12 L34,12 L34,18 L36,18 L36,24 L38,24 L37,26 L34,26 L35,19 L33,19 L32,23 L17,22 L14,14 L8,13 L7,11 L5,11 L6,7 L1,5 Z " fill="#5850A5" transform="translate(534,522)"/>
<path d="M0,0 L2,2 L1,6 L0,11 L1,12 L1,21 L-1,26 L1,26 L1,32 L2,34 L1,36 L2,51 L4,59 L3,60 L8,61 L8,63 L12,63 L12,68 L11,66 L8,69 L4,69 L4,67 L1,66 L1,64 L-1,64 L-2,47 L-2,42 L-4,42 L-7,33 L-7,21 L-4,17 L-2,17 L-3,12 L-5,12 L-5,6 L-4,4 L-2,4 Z " fill="#6663C9" transform="translate(468,447)"/>
<path d="M0,0 L31,0 L31,3 L26,5 L10,5 L2,6 L2,11 L-3,13 L-6,16 L-19,16 L-18,11 L-13,7 L-12,4 L-7,4 L-7,2 L0,2 Z " fill="#5048AD" transform="translate(590,676)"/>
<path d="M0,0 L2,0 L2,2 L4,2 L5,0 L6,7 L10,8 L9,15 L7,15 L7,25 L5,28 L5,26 L2,28 L0,34 L-2,41 L-7,44 L-9,43 L-8,27 L-6,22 L-8,22 L-6,14 L-4,14 L-4,19 L-2,19 L-1,16 L1,15 L2,6 L3,4 L0,3 Z " fill="#4C5BAB" transform="translate(339,359)"/>
<path d="M0,0 L11,1 L13,3 L13,7 L15,7 L16,19 L20,23 L23,29 L26,31 L28,39 L31,41 L33,46 L35,59 L37,59 L36,62 L34,62 L32,68 L30,69 L30,57 L26,57 L27,47 L24,40 L24,36 L22,36 L18,30 L16,22 L13,22 L13,20 L11,20 L12,11 L6,9 L6,2 L2,3 L2,1 Z " fill="#6369C1" transform="translate(436,305)"/>
<path d="M0,0 L3,0 L5,5 L5,9 L7,10 L5,13 L7,14 L5,19 L9,19 L9,21 L13,19 L13,21 L15,21 L15,19 L17,19 L17,22 L1,24 L1,26 L-7,26 L-7,28 L-19,29 L-22,30 L-22,32 L-29,32 L-27,28 L-21,26 L-20,21 L-15,21 L-15,25 L-10,24 L-8,18 L-6,18 L-7,13 L-3,12 L1,13 L2,4 L0,4 Z " fill="#655FD3" transform="translate(521,656)"/>
<path d="M0,0 L1,2 L5,3 L4,20 L4,50 L2,57 L2,70 L-1,70 L-1,64 L-2,58 L-1,57 L-3,37 L-2,31 L-2,13 L-1,2 Z M-2,70 Z " fill="#5E59B0" transform="translate(510,366)"/>
<path d="M0,0 L6,0 L6,2 L16,2 L16,10 L20,12 L20,14 L24,14 L28,19 L34,20 L34,22 L40,22 L40,24 L44,24 L44,22 L52,22 L52,24 L68,24 L68,25 L45,27 L44,28 L37,27 L32,26 L32,24 L28,23 L33,23 L33,21 L24,22 L22,23 L14,22 L16,18 L19,13 L17,13 L16,15 L15,11 L14,13 L14,11 L7,10 L2,8 L1,3 L5,3 L5,1 L0,1 Z M39,26 Z " fill="#4D4597" transform="translate(572,548)"/>
<path d="M0,0 L7,0 L7,1 L2,1 L2,3 L9,3 L10,0 L10,4 L2,4 L2,6 L-8,6 L-8,8 L-16,8 L-16,6 L-20,6 L-20,8 L-32,8 L-32,10 L-44,11 L-89,11 L-89,9 L-74,8 L-45,8 L-45,6 L-42,5 L-33,5 L-32,6 L-21,7 L-21,5 L-23,4 L-20,3 L-20,5 L-16,5 L-16,3 L-12,2 L-12,4 L-9,2 Z " fill="#4449A4" transform="translate(532,706)"/>
<path d="M0,0 L5,0 L0,5 L-4,6 L-11,6 L-11,11 L-22,12 L-23,15 L-30,15 L-30,13 L-41,15 L-45,15 L-48,15 L-48,17 L-52,17 L-52,15 L-55,17 L-64,17 L-60,16 L-59,13 L-52,13 L-52,11 L-32,10 L-32,6 L-10,5 L-9,2 Z " fill="#4E48A8" transform="translate(564,694)"/>
<path d="M0,0 L1,4 L0,7 L2,11 L1,14 L0,19 L-3,22 L-4,24 L-3,29 L-5,32 L-3,34 L-2,38 L1,41 L0,46 L2,53 L4,53 L2,60 L0,59 L0,53 L-5,53 L-7,40 L-10,33 L-11,31 L-11,24 L-9,20 L-5,16 L-5,5 L-2,5 Z M-6,53 Z " fill="#5966C2" transform="translate(307,523)"/>
<path d="M0,0 L2,0 L3,6 L2,9 L4,17 L3,19 L5,19 L7,24 L7,29 L3,28 L3,34 L11,34 L14,33 L18,35 L18,38 L21,37 L22,35 L25,35 L27,39 L26,43 L26,41 L6,41 L6,38 L1,37 L1,28 L-2,27 L-2,2 Z " fill="#666FDE" transform="translate(426,630)"/>
<path d="M0,0 L3,0 L3,3 L6,4 L6,6 L9,4 L13,4 L15,6 L15,11 L19,12 L19,15 L21,15 L22,24 L21,26 L24,26 L23,30 L19,30 L17,30 L16,24 L13,24 L12,19 L10,19 L10,16 L7,16 L7,14 L3,13 L3,5 L0,6 Z " fill="#5E6DC9" transform="translate(312,581)"/>
<path d="M0,0 L8,1 L12,0 L15,2 L13,2 L14,7 L12,7 L11,13 L10,14 L5,14 L5,10 L0,10 L1,15 L-3,17 L-9,13 L-13,13 L-13,7 L-9,5 L-3,6 L-2,2 L0,2 Z " fill="#6863D9" transform="translate(501,667)"/>
<path d="M0,0 L3,1 L-4,3 L-10,3 L-11,5 L-13,5 L-14,7 L-18,8 L-36,8 L-36,12 L-50,12 L-66,13 L-68,14 L-82,15 L-82,13 L-70,12 L-70,10 L-40,6 L-22,5 L-22,2 Z " fill="#504CAE" transform="translate(568,692)"/>
<path d="M0,0 L2,1 L2,12 L1,15 L-1,16 L-2,22 L-4,22 L-4,30 L-7,34 L-7,23 L-9,23 L-8,36 L-9,40 L-12,49 L-15,50 L-17,49 L-17,51 L-19,51 L-18,62 L-20,62 L-20,50 L-18,50 L-18,48 L-16,48 L-16,44 L-14,44 L-14,42 L-16,42 L-16,40 L-14,40 L-14,34 L-10,34 L-10,22 L-8,22 L-8,14 L-6,14 L-6,10 L-4,10 L-4,4 L0,2 Z " fill="#4D56A4" transform="translate(306,440)"/>
<path d="M0,0 L1,3 L2,8 L1,10 L-1,10 L-2,17 L-5,26 L-5,33 L-9,34 L-10,30 L-14,30 L-15,34 L-18,35 L-19,39 L-19,34 L-16,33 L-16,29 L-13,29 L-14,25 L-13,20 L-12,15 L-7,12 L-6,3 L-3,1 Z " fill="#5464B3" transform="translate(384,307)"/>
<path d="M0,0 L3,0 L6,8 L6,15 L9,16 L12,23 L14,24 L15,32 L22,32 L18,34 L16,35 L13,32 L9,24 L5,23 L4,26 L1,25 L0,24 L0,27 L-2,27 L-4,21 L-2,21 L-3,17 L-2,10 L-5,9 L-2,8 L-2,1 Z " fill="#5360B0" transform="translate(315,608)"/>
<path d="M0,0 L5,0 L4,10 L5,12 L10,12 L9,15 L9,29 L11,30 L10,35 L11,38 L11,44 L9,45 L5,44 L5,37 L0,35 L1,29 L4,26 L6,26 L2,18 L3,12 L-1,16 L-3,16 L-2,11 L0,11 L-2,5 Z " fill="#696DD6" transform="translate(447,372)"/>
<path d="M0,0 L4,0 L4,4 L6,4 L6,8 L8,8 L8,12 L10,12 L10,16 L12,16 L12,20 L8,20 L8,26 L10,26 L10,32 L16,32 L16,40 L14,40 L14,34 L12,34 L12,40 L10,40 L10,42 L16,42 L16,44 L18,44 L18,46 L16,46 L16,54 L14,54 L14,62 L13,62 L12,46 L8,45 L8,48 L6,48 L6,39 L7,33 L9,33 L9,27 L7,27 L7,32 L6,32 L6,17 L5,12 L7,12 L7,9 L5,9 L4,11 L3,8 L5,8 L5,5 L3,5 L2,7 L0,3 L3,3 L3,1 Z " fill="#464599" transform="translate(650,588)"/>
<path d="M0,0 L3,0 L6,4 L9,10 L9,15 L13,15 L14,13 L20,16 L20,18 L22,18 L20,26 L25,28 L22,30 L19,31 L13,29 L13,31 L11,31 L11,29 L9,29 L7,33 L5,34 L4,30 L-2,28 L1,26 L17,27 L16,18 L7,17 L7,14 L1,15 L-1,8 L1,4 L-1,4 Z " fill="#6C61CF" transform="translate(511,544)"/>
<path d="M0,0 L2,3 L3,6 L-5,7 L-7,13 L-16,14 L-27,14 L-30,16 L-38,15 L-37,11 L-34,11 L-34,14 L-32,14 L-31,7 L-28,5 L-27,7 L-14,5 L-6,5 L-5,3 L-1,3 Z " fill="#5B51BD" transform="translate(574,675)"/>
<path d="M0,0 L4,0 L4,3 L6,3 L7,0 L7,2 L9,2 L9,5 L15,6 L13,11 L16,10 L16,13 L20,12 L23,14 L25,21 L35,23 L35,26 L24,26 L18,24 L19,15 L13,15 L13,18 L10,18 L8,13 L2,12 L3,5 L0,2 Z " fill="#5A52AB" transform="translate(526,522)"/>
<path d="M0,0 L25,0 L29,3 L35,2 L35,5 L30,7 L14,7 L-12,5 L-13,2 L-19,2 L-19,1 L-5,1 L-1,2 Z " fill="#565AC3" transform="translate(455,693)"/>
<path d="M0,0 L6,0 L7,3 L10,4 L10,6 L7,6 L9,9 L12,8 L12,11 L10,11 L11,13 L14,12 L14,15 L12,15 L14,22 L12,23 L12,29 L11,29 L11,23 L2,23 L2,15 L0,14 L-1,1 Z " fill="#4F4BA6" transform="translate(643,585)"/>
<path d="M0,0 L1,2 L3,2 L6,5 L6,1 L8,1 L8,10 L12,12 L12,15 L10,15 L10,17 L12,17 L12,21 L18,21 L18,24 L16,24 L16,26 L20,25 L20,27 L18,27 L20,36 L23,38 L23,44 L25,44 L24,50 L22,47 L19,46 L18,37 L13,36 L10,22 L8,20 L6,14 L4,8 L2,8 L2,3 L0,3 Z " fill="#575DA9" transform="translate(443,286)"/>
<path d="M0,0 L4,0 L4,2 L8,2 L12,7 L14,8 L14,16 L12,16 L12,20 L14,20 L14,28 L16,28 L16,32 L14,32 L14,42 L13,42 L13,32 L9,32 L8,36 L7,36 L6,25 L7,22 L7,14 L6,13 L6,7 L4,7 L4,5 L0,5 L0,3 L3,3 L3,1 Z " fill="#524F9B" transform="translate(514,342)"/>
<path d="M0,0 L1,0 L2,21 L0,25 L-3,25 L-3,23 L-5,24 L-6,27 L-7,38 L-13,40 L-12,33 L-11,24 L-10,23 L-10,11 L-8,11 L-7,19 L-6,18 L-5,10 L-3,10 L-3,4 L0,3 Z " fill="#4D58A7" transform="translate(307,452)"/>
<path d="M0,0 L2,1 L1,3 L3,3 L1,20 L0,23 L-7,25 L-8,32 L-9,32 L-9,25 L-11,25 L-11,32 L-12,32 L-12,24 L-10,24 L-10,18 L-8,18 L-8,12 L-6,12 L-6,6 L-2,2 L0,2 Z " fill="#4758A5" transform="translate(330,378)"/>
<path d="M0,0 L4,1 L4,5 L6,5 L6,7 L10,6 L13,8 L13,17 L20,19 L22,38 L25,39 L25,48 L22,52 L20,59 L18,61 L20,47 L22,42 L19,42 L18,34 L18,21 L15,22 L15,20 L10,19 L9,15 L9,11 L3,9 L1,4 L-4,3 L-3,1 Z " fill="#696ED2" transform="translate(431,310)"/>
<path d="M0,0 L3,2 L2,12 L-2,14 L-2,9 L-4,11 L-4,16 L-2,16 L-2,18 L6,17 L9,18 L10,13 L17,13 L18,16 L17,20 L12,24 L10,28 L7,26 L7,22 L0,24 L-3,21 L-3,18 L-6,18 L-6,6 L-1,7 Z " fill="#6071CE" transform="translate(318,563)"/>
<path d="M0,0 L3,1 L3,3 L11,5 L11,12 L10,16 L10,23 L6,27 L1,28 L0,25 L1,24 L2,12 L0,11 L1,8 L-1,7 L1,7 Z M-2,8 Z " fill="#6D75D8" transform="translate(438,326)"/>
<path d="M0,0 L5,1 L7,2 L14,2 L16,0 L33,0 L33,2 L41,2 L41,11 L38,8 L13,7 L11,5 L3,3 L3,1 Z " fill="#5E68CB" transform="translate(399,680)"/>
<path d="M0,0 L14,0 L18,2 L14,2 L14,4 L2,4 L2,6 L-4,6 L-4,8 L-2,8 L-2,10 L-8,10 L-8,12 L-22,12 L-22,14 L-26,14 L-26,16 L-40,16 L-40,18 L-52,18 L-52,17 L-41,17 L-41,12 L-26,12 L-23,13 L-23,11 L-26,10 L-9,11 L-9,9 L-11,8 L-7,4 L1,5 L1,3 L-1,2 Z " fill="#443C93" transform="translate(594,688)"/>
<path d="M0,0 L4,1 L3,8 L6,8 L6,13 L4,14 L4,11 L1,11 L-1,16 L0,20 L2,21 L0,26 L-4,33 L-5,37 L-7,36 L-8,29 L-6,15 L-4,14 L-4,12 L-6,11 L-4,8 L-2,8 L-2,2 Z M2,8 Z " fill="#5462B5" transform="translate(326,436)"/>
<path d="M0,0 L3,1 L4,6 L7,7 L9,11 L14,12 L14,20 L19,20 L21,22 L24,22 L24,24 L26,24 L26,28 L31,27 L31,30 L30,32 L32,32 L35,35 L39,38 L31,38 L27,35 L25,34 L24,26 L17,26 L16,22 L13,21 L12,17 L8,16 L4,10 L4,7 L2,7 L2,5 L-1,5 L-1,3 L-3,3 L-3,1 Z " fill="#635CBF" transform="translate(499,512)"/>
<path d="M0,0 L3,1 L2,4 L5,6 L1,10 L-1,16 L-6,19 L-10,22 L-15,27 L-17,31 L-22,32 L-22,35 L-23,41 L-23,43 L-26,44 L-27,39 L-25,29 L-23,27 L-22,23 L-19,23 L-18,21 L-14,20 L-9,15 L-7,13 L-1,11 Z " fill="#6371CB" transform="translate(417,305)"/>
<path d="M0,0 L7,0 L7,6 L5,11 L6,13 L6,23 L6,27 L7,33 L4,37 L1,36 L0,33 L2,33 L0,30 L0,4 L-1,2 Z M-1,35 Z " fill="#5669C3" transform="translate(365,365)"/>
<path d="M0,0 L3,0 L2,12 L4,12 L3,9 L5,7 L8,10 L9,26 L7,26 L7,31 L4,31 L2,26 L4,26 L6,17 L3,17 L2,22 L-1,23 L-3,27 L-4,22 L-2,17 L-2,6 Z " fill="#4646A1" transform="translate(654,624)"/>
<path d="M0,0 L4,1 L1,1 L1,12 L-3,12 L-3,9 L-5,9 L-4,15 L-5,13 L-7,13 L-6,27 L-8,37 L-10,40 L-13,40 L-14,44 L-15,37 L-17,37 L-16,42 L-21,42 L-20,40 L-18,40 L-17,35 L-14,34 L-14,32 L-12,32 L-12,26 L-8,24 L-8,12 L-6,12 L-6,8 L-4,8 L-3,3 L0,2 Z " fill="#435092" transform="translate(374,296)"/>
<path d="M0,0 L13,0 L16,1 L16,12 L11,11 L6,12 L6,10 L0,10 L-2,9 L-2,7 L0,7 L0,5 L-4,5 L-4,1 Z " fill="#636BDA" transform="translate(436,670)"/>
<path d="M0,0 L6,0 L6,2 L14,2 L14,0 L16,0 L16,2 L20,2 L19,4 L17,3 L16,5 L6,3 L6,5 L13,5 L13,6 L4,6 L4,8 L-3,7 L-3,9 L-1,9 L-1,11 L-4,11 L-4,9 L-9,9 L-9,15 L-11,15 L-13,19 L-22,19 L-22,17 L-29,17 L-29,19 L-32,20 L-32,18 L-30,18 L-30,16 L-22,16 L-22,14 L-14,14 L-12,10 L-10,10 L-10,8 L-4,8 L-4,6 L0,6 Z " fill="#445098" transform="translate(416,264)"/>
<path d="M0,0 L7,0 L7,4 L10,5 L7,7 L-5,9 L-16,18 L-19,18 L-19,16 L-17,16 L-17,11 L-15,11 L-15,9 L-13,8 L-12,3 L-2,2 Z " fill="#5868B7" transform="translate(425,285)"/>
<path d="M0,0 L9,0 L9,4 L12,7 L12,9 L18,10 L28,13 L30,14 L52,17 L52,19 L46,19 L38,17 L24,15 L24,13 L10,12 L1,9 Z " fill="#555FBB" transform="translate(384,676)"/>
<path d="M0,0 L1,4 L6,5 L10,13 L10,15 L12,15 L12,17 L10,17 L10,20 L14,22 L10,22 L10,24 L13,25 L9,25 L5,20 L3,19 L3,15 L-1,13 L-3,9 L-7,9 L-6,5 L-6,8 L-4,8 L-4,5 L0,7 Z " fill="#4C5AA8" transform="translate(319,627)"/>
<path d="M0,0 L4,0 L4,3 L9,4 L8,12 L15,12 L16,17 L18,17 L18,20 L11,21 L13,20 L11,15 L3,15 L2,12 L-2,12 L-2,10 L-4,10 L-4,6 L0,5 Z " fill="#4855A5" transform="translate(362,672)"/>
<path d="M0,0 L5,5 L6,9 L15,7 L25,7 L31,6 L35,7 L34,9 L30,8 L29,11 L22,11 L24,13 L14,13 L10,12 L8,14 L8,12 L3,12 L2,9 L-4,8 L-4,1 Z " fill="#5856AA" transform="translate(471,335)"/>
<path d="M0,0 L13,2 L12,6 L11,8 L13,8 L13,11 L17,11 L15,16 L13,16 L13,14 L9,15 L9,13 L5,13 L5,11 L0,11 L-2,6 Z " fill="#5D5AB2" transform="translate(481,346)"/>
<path d="M0,0 L4,1 L3,6 L4,8 L3,10 L3,32 L4,34 L6,35 L5,38 L5,48 L3,49 L1,53 L0,51 L0,13 L-1,2 Z M6,33 Z " fill="#7D74F1" transform="translate(475,576)"/>
<path d="M0,0 L7,2 L7,9 L9,9 L9,14 L14,15 L13,18 L15,19 L15,17 L19,16 L20,21 L18,21 L19,24 L15,22 L15,20 L10,19 L7,16 L7,14 L3,14 L-1,10 L-1,6 L-3,6 L-3,4 L-1,4 L-2,1 Z " fill="#4E59A4" transform="translate(293,608)"/>
<path d="M0,0 L1,0 L1,5 L3,5 L3,0 L4,0 L4,6 L2,6 L2,10 L4,10 L4,22 L2,22 L3,30 L2,46 L0,46 L1,50 L0,62 L-1,62 L-2,48 L-1,46 L-4,45 L1,45 L0,28 L1,22 L-2,22 L-3,14 L-2,5 L0,5 Z " fill="#5551A5" transform="translate(522,384)"/>
<path d="M0,0 L5,2 L10,7 L10,11 L12,11 L14,15 L17,16 L19,23 L20,31 L23,34 L23,39 L26,40 L27,45 L23,43 L19,36 L19,34 L16,33 L16,21 L14,21 L12,16 L9,15 L9,11 L5,10 L5,8 L2,8 Z " fill="#5E64B8" transform="translate(435,291)"/>
<path d="M0,0 L2,4 L2,6 L21,7 L27,8 L27,10 L34,8 L40,12 L40,14 L43,15 L43,17 L39,17 L39,15 L25,16 L25,10 L17,10 L17,8 L1,8 L0,6 Z " fill="#5F67D1" transform="translate(415,672)"/>
<path d="M0,0 L1,2 L4,2 L5,8 L8,9 L6,12 L7,14 L5,19 L1,17 L0,13 L-5,13 L-6,4 L-4,3 L0,4 Z " fill="#5766BA" transform="translate(324,603)"/>
<path d="M0,0 L13,2 L13,4 L15,4 L13,9 L10,13 L19,13 L24,12 L29,12 L27,17 L18,17 L13,18 L7,15 L8,5 L6,5 L6,3 L2,2 Z " fill="#544CA5" transform="translate(576,557)"/>
<path d="M0,0 L3,0 L2,4 L10,3 L10,5 L25,5 L51,6 L51,8 L9,8 L9,6 L-1,6 L-2,1 Z " fill="#464BA7" transform="translate(436,706)"/>
<path d="M0,0 L9,0 L14,1 L14,3 L28,4 L34,5 L32,10 L42,10 L46,12 L29,11 L22,10 L18,5 L3,4 L2,1 Z " fill="#525DB6" transform="translate(394,688)"/>
<path d="M0,0 L4,1 L2,6 L6,6 L6,8 L10,6 L10,8 L12,8 L12,6 L14,6 L14,9 L-2,11 L-2,13 L-10,13 L-10,15 L-22,16 L-25,17 L-25,19 L-32,19 L-30,15 L-12,13 L-8,10 L-3,9 L-1,4 L-1,1 Z " fill="#615ECF" transform="translate(524,669)"/>
<path d="M0,0 L6,0 L6,4 L3,6 L3,16 L1,19 L-1,19 L1,32 L-1,32 L-2,35 L-4,35 L-4,33 L-2,33 L-2,31 L-4,31 L-5,29 L-5,21 L-3,20 L-1,4 Z " fill="#5461BC" transform="translate(302,508)"/>
<path d="M0,0 L1,0 L2,19 L-3,19 L-4,30 L-4,34 L-4,60 L-6,60 L-6,34 L-8,34 L-8,30 L-6,30 L-6,28 L-8,28 L-8,18 L-6,18 L-6,14 L-2,15 L0,16 Z " fill="#3C468B" transform="translate(282,526)"/>
<path d="M0,0 L1,0 L1,8 L3,8 L2,20 L1,20 L1,9 L-1,9 L0,22 L-1,26 L-4,35 L-7,36 L-9,35 L-9,37 L-11,37 L-10,48 L-12,48 L-12,36 L-10,36 L-10,34 L-8,34 L-8,30 L-6,30 L-6,28 L-8,28 L-8,26 L-6,26 L-6,20 L-2,20 L-2,8 L0,8 Z " fill="#454C95" transform="translate(298,454)"/>
<path d="M0,0 L4,0 L5,7 L2,10 L0,10 L-1,14 L-3,18 L-4,26 L-9,31 L-10,31 L-11,25 L-7,21 L-4,13 L-4,5 L-1,3 Z " fill="#5362B9" transform="translate(370,337)"/>
<path d="M0,0 L15,0 L15,2 L6,3 L6,5 L8,6 L3,12 L-1,12 L-2,14 L-5,13 L-5,11 L-8,11 L-9,7 L-6,6 L1,7 L0,3 L-6,3 L-7,1 Z " fill="#5047A5" transform="translate(624,573)"/>
<path d="M0,0 L6,1 L6,4 L8,4 L8,9 L10,9 L14,16 L15,22 L11,21 L10,17 L8,17 L6,12 L3,10 L3,8 L-1,7 L-5,4 L-4,1 L0,3 Z " fill="#5962B0" transform="translate(437,285)"/>
<path d="M0,0 L2,1 L1,3 L3,3 L2,6 L3,12 L1,16 L0,22 L-1,22 L-1,14 L-3,14 L-2,24 L-5,23 L-4,30 L-6,27 L-8,30 L-8,24 L-4,22 L-4,14 L-6,14 L-6,8 L-4,8 L-4,4 L-2,4 L-2,2 L0,2 Z " fill="#47529A" transform="translate(316,410)"/>
<path d="M0,0 L7,0 L7,1 L2,1 L2,3 L9,3 L10,0 L10,4 L2,4 L2,6 L-8,6 L-8,8 L-16,8 L-16,6 L-20,6 L-20,8 L-32,8 L-32,7 L-21,7 L-21,5 L-23,4 L-20,3 L-20,5 L-16,5 L-16,3 L-12,2 L-12,4 L-9,2 Z " fill="#3E3D90" transform="translate(532,706)"/>
<path d="M0,0 L10,0 L10,1 L2,2 L2,7 L-3,9 L-6,12 L-18,12 L-18,10 L-15,10 L-15,7 L-6,5 L-5,2 Z " fill="#5047AB" transform="translate(590,680)"/>
<path d="M0,0 L2,1 L2,5 L8,6 L10,10 L12,11 L13,19 L20,19 L16,21 L14,22 L11,19 L7,11 L3,10 L2,13 L-1,12 L-2,11 L-2,14 L-4,14 L-6,8 L-2,7 Z " fill="#505EAD" transform="translate(317,621)"/>
<path d="M0,0 L6,0 L6,2 L16,2 L17,11 L15,11 L14,13 L14,11 L7,10 L2,8 L1,3 L5,3 L5,1 L0,1 Z " fill="#4E4695" transform="translate(572,548)"/>
<path d="M0,0 L1,3 L-1,10 L-6,11 L-26,12 L-27,14 L-28,12 L-38,12 L-38,11 L-27,10 L-26,7 L-5,7 L-2,8 L-1,1 Z " fill="#6C68E0" transform="translate(502,659)"/>
<path d="M0,0 L7,0 L7,4 L6,6 L-5,7 L-11,7 L-15,8 L-18,4 L-9,2 Z " fill="#6B6DE3" transform="translate(469,663)"/>
<path d="M0,0 L5,1 L6,5 L5,7 L7,7 L7,11 L9,11 L9,13 L13,13 L13,19 L17,19 L17,21 L19,21 L19,25 L21,25 L20,29 L20,26 L18,26 L17,28 L15,24 L12,24 L11,20 L12,14 L7,15 L8,12 L4,13 L4,11 L6,11 L6,8 L4,8 L3,10 L3,8 L0,8 L0,4 L-2,4 L-2,2 L0,2 Z " fill="#49498D" transform="translate(455,299)"/>
<path d="M0,0 L2,0 L2,2 L4,2 L5,0 L5,20 L3,24 L0,23 L0,20 L-4,20 L-5,23 L-8,22 L-6,14 L-4,14 L-4,19 L-2,19 L-1,16 L1,15 L2,6 L3,4 L0,3 Z " fill="#4B5AA8" transform="translate(339,359)"/>
<path d="M0,0 L6,0 L6,2 L10,2 L10,4 L20,4 L20,6 L26,6 L26,8 L30,8 L29,10 L12,10 L7,9 L6,5 L9,5 L9,3 L3,4 L5,3 L5,1 L0,1 Z " fill="#52519E" transform="translate(484,332)"/>
<path d="M0,0 L6,2 L10,1 L10,6 L19,4 L20,8 L22,9 L22,15 L24,17 L20,16 L20,11 L13,11 L10,12 L10,10 L8,10 L6,5 L4,6 L4,4 L0,3 Z " fill="#554DB1" transform="translate(588,581)"/>
<path d="M0,0 L2,2 L1,6 L0,11 L1,12 L1,21 L-1,26 L1,26 L1,32 L2,34 L-1,37 L-2,34 L-3,12 L-5,12 L-5,6 L-4,4 L-2,4 Z " fill="#625FC6" transform="translate(468,447)"/>
<path d="M0,0 L1,2 L11,2 L11,4 L24,4 L24,5 L9,5 L9,7 L54,7 L54,8 L8,8 L8,6 L0,6 L0,4 L-6,4 L-6,3 L0,3 Z " fill="#3A408C" transform="translate(434,710)"/>
<path d="M0,0 L14,2 L15,3 L15,9 L3,8 L3,6 L-3,6 L-3,4 L-1,4 Z " fill="#434B9A" transform="translate(419,704)"/>
<path d="M0,0 L2,0 L3,6 L2,9 L4,17 L3,19 L5,19 L7,24 L7,29 L2,28 L1,16 L-2,15 L-2,2 Z " fill="#6A73E3" transform="translate(426,630)"/>
<path d="M0,0 L2,0 L2,2 L6,2 L6,4 L8,4 L8,10 L10,10 L10,16 L12,16 L11,18 L8,18 L9,11 L7,11 L6,15 L2,14 L3,10 L1,10 L-1,8 L-2,6 L-6,5 L0,5 L0,3 L-6,3 L-6,2 L0,2 Z " fill="#554FA4" transform="translate(560,530)"/>
<path d="M0,0 L3,1 L2,5 L-5,5 L-5,3 L-16,5 L-20,5 L-23,5 L-23,7 L-27,7 L-27,5 L-30,7 L-39,7 L-35,6 L-34,3 L-25,2 L-9,1 Z " fill="#4847A5" transform="translate(539,704)"/>
<path d="M0,0 L1,0 L1,6 L-1,6 L-1,14 L-3,14 L-3,16 L-7,20 L-9,20 L-9,24 L-11,24 L-11,28 L-15,27 L-12,27 L-12,25 L-15,24 L-13,20 L-11,20 L-10,15 L-7,13 L-4,4 L0,5 Z " fill="#403D94" transform="translate(661,650)"/>
<path d="M0,0 L1,0 L2,34 L0,34 L0,40 L2,40 L2,35 L3,35 L3,40 L5,41 L2,41 L2,52 L4,52 L5,50 L5,52 L7,52 L7,60 L6,60 L6,53 L4,53 L4,61 L3,61 L3,53 L1,53 L1,41 L-1,41 L-1,34 L-3,34 L-3,32 L-1,32 L-1,17 Z " fill="#444E97" transform="translate(283,545)"/>
<path d="M0,0 L2,1 L1,3 L3,3 L2,23 L0,23 L0,37 L-1,37 L-1,23 L-3,22 L-2,2 L0,2 Z " fill="#434D9C" transform="translate(286,504)"/>
<path d="M0,0 L1,4 L1,10 L3,15 L1,18 L1,14 L-2,15 L-5,23 L-2,24 L-3,27 L-5,27 L-7,31 L-9,30 L-10,23 L-7,20 L-3,10 L-1,2 Z " fill="#6072D2" transform="translate(323,518)"/>
<path d="M0,0 L2,1 L1,3 L-1,3 L0,6 L2,7 L1,18 L-3,22 L-5,22 L-5,17 L-7,17 L-7,22 L-8,22 L-8,16 L-6,16 L-6,10 L-4,10 L-4,6 L-2,6 L-2,2 L0,2 Z " fill="#455199" transform="translate(340,356)"/>
<path d="M0,0 L4,1 L4,4 L7,4 L10,17 L8,18 L7,16 L2,21 L2,15 L1,10 Z " fill="#6462CA" transform="translate(460,376)"/>
<path d="M0,0 L7,0 L7,3 L12,4 L12,12 L14,12 L14,14 L8,13 L7,10 L4,10 L5,8 L3,8 L3,4 L-1,3 Z " fill="#5F67BF" transform="translate(364,632)"/>
<path d="M0,0 L6,0 L6,4 L0,5 L-3,6 L-21,7 L-17,5 L-17,2 L-9,1 Z " fill="#5657BD" transform="translate(507,693)"/>
<path d="M0,0 L3,0 L4,9 L6,10 L8,7 L8,10 L11,10 L14,16 L15,26 L12,23 L11,18 L4,15 L4,13 L2,13 L0,4 Z " fill="#515EAE" transform="translate(293,593)"/>
<path d="M0,0 L4,0 L4,6 L2,7 L-1,14 L-2,16 L-5,17 L-8,20 L-7,12 L-8,8 L-3,8 L-1,1 Z " fill="#5362B9" transform="translate(350,392)"/>
<path d="M0,0 L4,1 L4,5 L6,5 L6,7 L10,6 L13,8 L13,17 L19,19 L18,22 L15,22 L15,20 L10,19 L9,15 L9,11 L3,9 L1,4 L-4,3 L-3,1 Z " fill="#6872CF" transform="translate(431,310)"/>
<path d="M0,0 L2,0 L2,4 L4,4 L4,7 L7,7 L7,13 L9,13 L9,11 L11,11 L12,16 L10,16 L8,20 L7,18 L3,17 L1,14 L2,8 L0,8 Z " fill="#504997" transform="translate(533,507)"/>
<path d="M0,0 L4,1 L4,6 L6,6 L6,18 L5,20 L0,22 L-1,19 L0,18 L1,6 L-1,5 L0,2 L-2,1 Z M-3,2 Z " fill="#6E77DE" transform="translate(439,332)"/>
<path d="M0,0 L7,0 L7,3 L4,4 L3,6 L5,8 L-4,10 L-4,14 L-6,14 L-6,10 L-8,10 L-8,15 L-9,15 L-9,9 L-7,9 L-7,7 L-5,7 L-5,5 L-7,5 L-7,3 L0,2 Z " fill="#49579C" transform="translate(387,281)"/>
<path d="M0,0 L3,1 L2,4 L-5,7 L-8,10 L-15,11 L-15,14 L-18,14 L-19,16 L-18,11 L-13,7 L-12,4 L-7,4 L-7,2 L0,2 Z " fill="#544AB1" transform="translate(590,676)"/>
<path d="M0,0 L13,0 L13,2 L15,2 L16,0 L16,2 L18,2 L18,6 L3,7 L3,5 L0,4 Z " fill="#49439C" transform="translate(606,682)"/>
<path d="M0,0 L3,1 L3,14 L4,23 L3,26 L0,25 L-1,17 L-1,1 Z " fill="#535DB3" transform="translate(292,559)"/>
<path d="M0,0 L3,0 L3,5 L1,6 L1,3 L-2,3 L-4,8 L-3,12 L-1,13 L-3,18 L-7,25 L-8,29 L-10,28 L-9,18 L-6,18 L-6,3 Z " fill="#5664B9" transform="translate(329,444)"/>
<path d="M0,0 L3,0 L2,22 L-1,23 L-3,27 L-4,22 L-2,17 L-2,6 Z " fill="#4A47A6" transform="translate(654,624)"/>
<path d="M0,0 L2,0 L3,3 L-1,11 L-6,17 L-8,15 L-12,18 L-10,14 L-8,9 L-4,8 L-3,2 Z " fill="#5662B8" transform="translate(340,412)"/>
<path d="M0,0 L5,4 L7,9 L9,22 L11,22 L10,25 L8,25 L6,31 L4,32 L4,5 L0,4 Z " fill="#6260C0" transform="translate(462,342)"/>
<path d="M0,0 L1,0 L2,8 L4,8 L4,10 L6,10 L10,14 L10,20 L12,20 L11,26 L9,23 L6,22 L5,13 L0,12 Z " fill="#575AAC" transform="translate(456,310)"/>
<path d="M0,0 L6,0 L6,2 L14,2 L14,0 L16,0 L16,2 L20,2 L19,4 L17,3 L16,5 L6,3 L6,5 L13,5 L13,6 L4,6 L4,8 L-3,7 L-3,9 L-1,9 L-1,11 L-4,11 L-4,6 L0,6 Z " fill="#465292" transform="translate(416,264)"/>
<path d="M0,0 L3,0 L3,11 L2,13 L4,13 L5,11 L4,27 L2,34 L1,34 L1,21 L2,16 L0,16 Z " fill="#4751A5" transform="translate(287,491)"/>
<path d="M0,0 L8,0 L11,0 L16,2 L18,3 L18,7 L20,7 L20,9 L24,9 L23,11 L17,12 L17,10 L19,10 L19,8 L16,7 L17,4 L15,4 L14,8 L14,4 L5,5 L-2,4 Z " fill="#4B579C" transform="translate(422,267)"/>
<path d="M0,0 L4,0 L4,3 L6,3 L8,9 L12,11 L13,18 L10,18 L8,13 L2,12 L3,5 L0,2 Z " fill="#5B54B0" transform="translate(526,522)"/>
<path d="M0,0 L1,0 L1,6 L3,7 L0,19 L-2,26 L-3,26 L-3,19 L-5,19 L-5,26 L-6,26 L-6,18 L-4,18 L-4,12 L-2,12 L-2,6 L0,6 Z " fill="#424F95" transform="translate(324,384)"/>
<path d="M0,0 L5,5 L6,9 L10,10 L8,14 L8,12 L3,12 L2,9 L-4,8 L-4,1 Z " fill="#5456AE" transform="translate(471,335)"/>
<path d="M0,0 L4,0 L4,2 L12,2 L12,6 L4,6 L-5,4 L-20,3 L-20,1 L0,2 Z " fill="#4F53B5" transform="translate(468,701)"/>
<path d="M0,0 L1,3 L3,3 L4,0 L4,4 L2,4 L2,14 L4,14 L4,16 L2,16 L2,20 L4,20 L4,42 L3,42 L3,21 L1,21 L1,42 L0,42 Z " fill="#080913" transform="translate(272,540)"/>
<path d="M0,0 L2,0 L4,2 L5,8 L2,13 L1,23 L-1,29 L-3,29 L-3,23 L-1,19 L-2,12 L0,12 L0,10 L-2,10 Z M-4,29 Z " fill="#4C58A5" transform="translate(319,403)"/>
<path d="M0,0 L6,2 L6,4 L0,6 L-14,7 L-18,7 L-18,5 L-12,3 L-2,2 Z " fill="#5E59CA" transform="translate(540,675)"/>
<path d="M0,0 L7,0 L8,4 L13,5 L12,8 L14,9 L10,14 L8,14 L6,9 L4,6 L4,2 L0,1 Z " fill="#5B6AC0" transform="translate(344,625)"/>
<path d="M0,0 Z M-3,1 L4,1 L3,3 L0,5 L0,28 L-4,30 L-4,3 Z M-5,30 Z " fill="#7174E5" transform="translate(454,575)"/>
<path d="M0,0 L2,0 L4,9 L3,15 L1,15 L0,19 L-2,25 L-3,21 L-1,8 L0,6 L-2,6 L-2,8 L-4,8 L-4,5 L0,3 Z " fill="#4E59AA" transform="translate(357,333)"/>
<path d="M0,0 L4,0 L3,5 L8,4 L9,13 L7,13 L7,17 L10,18 L6,19 L4,12 L5,7 L1,8 L1,5 L-2,5 L-2,1 Z " fill="#5C50BD" transform="translate(586,592)"/>
<path d="M0,0 L5,3 L8,5 L8,7 L12,7 L12,11 L18,12 L18,16 L24,16 L24,17 L17,17 L12,15 L11,12 L8,11 L4,7 L4,5 L0,4 Z " fill="#4E59AD" transform="translate(372,676)"/>
<path d="M0,0 L4,4 L3,7 L10,7 L13,9 L12,13 L3,13 L3,9 L0,9 L0,6 L-2,6 Z " fill="#5D58B4" transform="translate(517,518)"/>
<path d="M0,0 L2,2 L3,8 L6,9 L7,14 L7,28 L6,24 L2,24 L3,14 L0,7 Z " fill="#6565C4" transform="translate(460,338)"/>
<path d="M0,0 L1,4 L3,4 L3,8 L5,8 L5,18 L7,18 L6,20 L3,18 L4,9 L2,9 L2,13 L-1,12 L-1,10 L-3,10 L-5,1 L-2,1 L-2,4 L0,4 Z " fill="#4E5597" transform="translate(447,278)"/>
<path d="M0,0 L16,0 L16,2 L20,2 L20,4 L0,4 Z " fill="#070D22" transform="translate(410,828)"/>
<path d="M0,0 L1,3 L6,4 L9,3 L17,3 L19,0 L19,5 L-3,8 L-5,4 L-1,4 Z M5,2 Z " fill="#5E54C2" transform="translate(549,675)"/>
<path d="M0,0 L3,0 L4,5 L3,8 L-3,12 L-8,14 L-10,15 L-9,11 L-6,10 L-3,3 Z " fill="#6254C5" transform="translate(573,632)"/>
<path d="M0,0 L4,0 L4,10 L2,10 L2,15 L-2,15 L-3,7 Z " fill="#5753A4" transform="translate(523,374)"/>
<path d="M0,0 L4,1 L7,2 L9,6 L13,6 L13,12 L11,12 L8,9 L6,8 L6,11 L4,11 L3,8 L0,7 L0,5 L2,4 L0,3 Z " fill="#4D5BAA" transform="translate(329,644)"/>
<path d="M0,0 L3,1 L2,7 L4,14 L1,18 L-2,17 L-3,14 L-1,14 L-2,1 Z M-4,16 Z " fill="#596CC8" transform="translate(368,384)"/>
<path d="M0,0 L5,1 L7,2 L14,2 L18,1 L18,3 L27,5 L27,7 L13,7 L11,5 L3,3 L3,1 Z " fill="#5B66C6" transform="translate(399,680)"/>
<path d="M0,0 L3,0 L5,3 L5,5 L7,5 L7,7 L12,9 L12,10 L18,11 L16,12 L16,14 L10,14 L0,4 Z " fill="#0B0A15" transform="translate(544,518)"/>
<path d="M0,0 L4,1 L4,3 L2,3 L2,5 L5,5 L5,3 L11,5 L13,9 L12,15 L15,16 L11,16 L11,10 L9,10 L9,12 L7,12 L7,8 L5,8 L5,6 L1,6 L-2,1 Z " fill="#414B90" transform="translate(343,662)"/>
<path d="M0,0 L1,0 L1,10 L-1,10 L-1,12 L1,12 L1,16 L3,16 L3,20 L5,20 L4,24 L4,21 L2,21 L1,24 L2,17 L0,17 L-1,21 L-1,19 L-3,19 L-3,17 L-5,17 L-5,12 L-2,12 L-2,10 L-4,9 L0,9 Z " fill="#474289" transform="translate(533,490)"/>
<path d="M0,0 L4,1 L3,6 L4,8 L3,10 L3,23 L2,28 L0,28 L0,13 L-1,2 Z " fill="#796FEC" transform="translate(475,576)"/>
<path d="M0,0 L13,1 L19,2 L18,4 L9,5 L-1,5 L-3,1 Z " fill="#7169E4" transform="translate(479,662)"/>
<path d="M0,0 L1,2 L4,2 L5,8 L8,9 L6,12 L7,14 L5,19 L3,18 L1,6 L-4,5 L0,4 Z " fill="#5969BF" transform="translate(324,603)"/>
<path d="M0,0 L9,0 L9,6 L8,8 L4,9 L0,8 Z " fill="#6F6EE2" transform="translate(460,560)"/>
<path d="M0,0 L2,0 L2,5 L4,5 L4,14 L2,15 L2,17 L-1,17 L-2,4 L0,4 Z " fill="#5551A5" transform="translate(529,485)"/>
<path d="M0,0 L7,0 L8,3 L7,7 L1,11 L-1,5 Z M-3,6 L-1,7 Z " fill="#6376D5" transform="translate(328,576)"/>
<path d="M0,0 L1,3 L5,2 L6,3 L7,12 L5,15 L3,15 L3,11 L0,11 Z " fill="#5B53B0" transform="translate(505,477)"/>
<path d="M0,0 L2,1 L5,2 L7,3 L6,6 L8,7 L8,5 L12,4 L13,9 L11,9 L12,12 L8,10 L8,8 L3,7 L0,4 L0,2 L-4,1 Z " fill="#41498B" transform="translate(300,620)"/>
<path d="M0,0 L17,1 L18,3 L13,3 L13,5 L11,5 L11,3 L9,3 L7,7 L5,8 L4,4 L-2,2 Z " fill="#6F62D8" transform="translate(511,570)"/>
<path d="M0,0 L10,0 L10,4 L20,4 L24,6 L7,5 L0,4 L-1,1 Z " fill="#5058B5" transform="translate(416,694)"/>
<path d="M0,0 L5,0 L9,2 L9,4 L6,4 L8,7 L11,6 L11,9 L7,10 L2,8 Z " fill="#4D49A2" transform="translate(644,587)"/>
<path d="M0,0 L4,1 L3,2 L5,3 L5,5 L1,5 L1,12 L-2,15 L-2,19 L-4,19 L-5,15 Z " fill="#5766BA" transform="translate(383,317)"/>
<path d="M0,0 L6,0 L6,2 L8,2 L8,4 L6,4 L6,12 L4,12 L4,20 L3,20 L2,4 L0,3 L5,3 L5,1 L0,1 Z " fill="#3D3E8F" transform="translate(660,630)"/>
<path d="M0,0 L4,1 L4,7 L-1,6 L-6,7 L-6,5 L-12,5 L-14,4 L-14,2 L-2,3 Z " fill="#6168D7" transform="translate(448,675)"/>
<path d="M0,0 L2,0 L2,2 L5,3 L1,6 L0,10 L-2,10 L-2,13 L0,13 L-1,15 L-4,15 L-5,10 L-8,8 L-6,8 L-5,6 L-1,6 Z M1,2 Z " fill="#6273D1" transform="translate(392,350)"/>
<path d="M0,0 L5,5 L5,8 L7,8 L7,10 L-5,10 L-3,5 L0,5 Z " fill="#7570EB" transform="translate(475,653)"/>
<path d="M0,0 L2,1 L2,12 L1,10 L-3,13 L-3,11 L-5,11 L-6,14 L-6,10 L-4,10 L-4,4 L0,2 Z " fill="#465094" transform="translate(306,440)"/>
<path d="M0,0 L4,1 L4,7 L2,7 L3,11 L1,10 L1,8 L-3,8 L-3,6 L-5,6 L-4,2 L-4,5 L-2,5 L-1,1 Z " fill="#414C97" transform="translate(363,676)"/>
<path d="M0,0 L2,1 L3,8 L3,18 L0,21 L0,15 L-1,8 L-2,4 L0,4 Z " fill="#696AD3" transform="translate(458,402)"/>
<path d="M0,0 L4,0 L5,4 L-2,6 L-7,11 L-10,12 L-10,10 L-8,10 L-8,7 L-4,5 Z M-14,12 L-10,13 L-14,14 Z " fill="#5B6ABC" transform="translate(420,289)"/>
<path d="M0,0 L1,3 L3,3 L3,0 L8,2 L9,7 L11,7 L9,11 L4,8 L4,4 L0,4 Z " fill="#46529C" transform="translate(332,652)"/>
<path d="M0,0 L2,1 L-4,8 L-6,10 L-7,14 L-9,17 L-10,10 L-8,3 L-2,1 Z " fill="#5A68C2" transform="translate(335,467)"/>
<path d="M0,0 L4,1 L1,1 L1,12 L-3,12 L-3,9 L-5,8 L-3,3 L0,2 Z " fill="#4D5EA5" transform="translate(374,296)"/>
<path d="M0,0 L5,0 L6,6 L10,7 L8,7 L8,9 L11,10 L7,10 L7,8 L2,7 L-3,1 Z " fill="#3F498E" transform="translate(369,686)"/>
<path d="M0,0 L4,0 L5,4 L0,9 L-4,5 Z M-2,9 Z M-4,10 L-2,10 L-4,14 L-6,13 Z " fill="#534BAE" transform="translate(626,659)"/>
<path d="M0,0 L4,0 L4,14 L-2,12 L-1,8 L1,8 Z " fill="#514FA4" transform="translate(523,475)"/>
<path d="M0,0 L1,2 L-1,1 Z M-3,2 L-1,3 L1,5 L0,10 L-1,11 L-1,17 L-4,16 L-5,3 Z M-3,4 Z " fill="#6072CE" transform="translate(383,380)"/>
<path d="M0,0 L5,1 L4,5 L0,6 L-5,9 L-8,8 L-7,6 L-5,6 L-4,2 Z " fill="#6975D9" transform="translate(386,580)"/>
<path d="M0,0 L7,0 L7,2 L5,2 L3,8 L1,15 L-1,11 L-1,4 Z " fill="#5B68C5" transform="translate(313,504)"/>
<path d="M0,0 L7,0 L7,1 L2,1 L2,3 L9,3 L10,0 L10,4 L2,5 L-8,5 L-8,3 Z " fill="#43419A" transform="translate(532,706)"/>
<path d="M0,0 L8,0 L8,2 L24,2 L24,3 L0,5 Z " fill="#473E8F" transform="translate(616,570)"/>
<path d="M0,0 Z M-3,1 L0,2 L-5,7 L-4,14 L-3,16 L-5,20 L-8,8 L-7,2 Z M-3,14 Z " fill="#5A67C3" transform="translate(325,484)"/>
<path d="M0,0 L1,0 L1,5 L3,5 L3,0 L4,0 L4,6 L2,6 L2,10 L4,10 L4,22 L3,22 L3,11 L-2,11 L-2,5 L0,5 Z " fill="#4B488F" transform="translate(522,384)"/>
<path d="M0,0 L4,1 L5,5 L9,7 L9,12 L4,11 L4,8 L0,6 Z " fill="#7465E0" transform="translate(493,560)"/>
<path d="M0,0 L1,2 L3,3 L2,11 L-4,9 L-3,3 Z " fill="#696FD8" transform="translate(451,398)"/>
<path d="M0,0 Z M-1,1 L0,4 L-2,6 L-3,12 L1,11 L-2,22 L-4,18 L-5,6 L-3,2 Z " fill="#5F70CD" transform="translate(322,508)"/>
<path d="M0,0 L3,1 L4,9 L1,10 L-1,9 L-1,11 L-3,11 L-2,22 L-4,22 L-4,10 L-2,10 L-2,8 L0,8 L0,4 L2,4 L2,2 L0,2 Z " fill="#3D448B" transform="translate(290,480)"/>
<path d="M0,0 L2,2 L3,9 L1,14 L-1,15 L-2,13 L-2,6 Z " fill="#4D5BA5" transform="translate(309,435)"/>
<path d="M0,0 L2,0 L4,7 L6,11 L8,11 L8,13 L10,13 L10,19 L9,17 L7,17 L4,10 L0,6 Z " fill="#5D5FBB" transform="translate(462,336)"/>
<path d="M0,0 L2,0 L3,5 L2,8 L-2,9 L-4,8 L-5,3 L-3,3 L-2,1 L0,2 Z " fill="#51509D" transform="translate(480,328)"/>
<path d="M0,0 L5,1 L6,8 L4,8 L3,10 L3,8 L0,8 L0,4 L-2,4 L-2,2 L0,2 Z " fill="#50549B" transform="translate(455,299)"/>
<path d="M0,0 L4,0 L3,5 L-7,5 L-7,1 Z " fill="#4B44A2" transform="translate(637,667)"/>
<path d="M0,0 L7,0 L7,3 L12,4 L12,8 L7,8 L7,5 L4,5 L3,1 Z " fill="#626BC3" transform="translate(364,632)"/>
<path d="M0,0 L4,0 L4,4 L6,4 L6,8 L8,8 L8,12 L10,12 L9,16 L9,13 L7,13 L6,15 L5,12 L7,12 L7,9 L5,9 L4,11 L3,8 L5,8 L5,5 L3,5 L2,7 L0,3 L3,3 L3,1 Z " fill="#41418E" transform="translate(650,588)"/>
<path d="M0,0 L2,0 L2,4 L4,4 L4,7 L6,7 L6,13 L2,14 L2,8 L0,8 Z " fill="#5750A4" transform="translate(533,507)"/>
<path d="M0,0 L2,0 L0,7 L-1,10 L-6,13 L-6,6 L-2,4 Z " fill="#4F5EAF" transform="translate(338,390)"/>
<path d="M0,0 L8,1 L7,6 L6,8 L3,7 L3,5 L0,5 L-1,1 Z " fill="#534AA9" transform="translate(616,579)"/>
<path d="M0,0 L2,1 L1,3 L3,3 L0,12 L-2,12 L-3,6 L-5,5 L-2,2 L0,2 Z " fill="#414F96" transform="translate(330,378)"/>
<path d="M0,0 L13,0 L10,4 L-1,4 Z " fill="#4B40A0" transform="translate(573,693)"/>
<path d="M0,0 L5,0 L4,9 L2,10 L0,12 L-1,8 L-1,1 Z " fill="#616CD2" transform="translate(416,660)"/>
<path d="M0,0 L3,1 L3,8 L0,7 L-1,6 L-1,9 L-3,9 L-5,3 L-1,2 Z " fill="#4D59A7" transform="translate(316,626)"/>
<path d="M0,0 Z M-4,1 L0,2 L-1,5 L-1,15 L-4,16 Z " fill="#8172F3" transform="translate(481,609)"/>
<path d="M0,0 L6,0 L6,2 L10,2 L10,4 L20,4 L20,5 L10,5 L10,8 L12,9 L7,9 L6,5 L9,5 L9,3 L3,4 L5,3 L5,1 L0,1 Z " fill="#46478C" transform="translate(484,332)"/>
<path d="M0,0 L1,4 L-1,7 L-4,7 L-5,11 L-6,4 L-8,4 L-7,9 L-12,9 L-11,7 L-9,7 L-9,3 L-5,2 L-4,4 L-2,4 L-2,2 L0,2 Z " fill="#47539B" transform="translate(365,329)"/>
<path d="M0,0 L2,0 L3,6 L2,9 L1,13 L-2,10 L-2,2 Z " fill="#6E76E5" transform="translate(426,630)"/>
<path d="M0,0 L1,0 L1,16 L-1,16 L0,20 L-1,32 L-2,32 L-3,18 L-2,16 L-5,15 L0,15 Z " fill="#444085" transform="translate(523,414)"/>
<path d="M0,0 L3,0 L3,3 L5,3 L6,14 L3,13 L3,5 L0,6 Z " fill="#5D6BC6" transform="translate(312,581)"/>
<path d="M0,0 L10,1 L10,5 L3,4 L-2,3 Z M5,3 Z " fill="#4E479E" transform="translate(606,571)"/>
<path d="M0,0 L1,0 L1,6 L3,6 L3,12 L5,12 L4,14 L1,14 L2,7 L0,7 L-1,11 L-5,10 L-4,5 L0,6 Z " fill="#4B4591" transform="translate(567,534)"/>
<path d="M0,0 L5,1 L9,5 L9,9 L5,9 L5,6 L1,5 L1,3 L-1,2 Z M1,2 Z " fill="#05060B" transform="translate(303,627)"/>
<path d="M0,0 L2,1 L1,3 L3,3 L3,5 L1,5 L1,7 L-1,7 L-1,5 L-3,5 L-3,8 L-1,9 L-3,13 L-3,9 L-5,9 L-5,14 L-6,14 L-6,8 L-4,8 L-4,4 L-2,4 L-2,2 L0,2 Z " fill="#414B8D" transform="translate(316,410)"/>
<path d="M0,0 L3,0 L7,4 L9,1 L10,2 L10,7 L13,8 L11,9 L6,7 L6,5 L-1,4 Z " fill="#6471CC" transform="translate(357,617)"/>
<path d="M0,0 L3,2 L2,12 L-2,14 L-2,7 Z " fill="#6474D2" transform="translate(318,563)"/>
<path d="M0,0 L1,2 L1,22 L-1,22 L-1,14 L-3,14 L-3,10 L-1,10 L-1,2 L-3,1 Z " fill="#0D0C19" transform="translate(529,348)"/>
<path d="M0,0 L10,0 L10,4 L2,4 Z " fill="#091224" transform="translate(750,480)"/>
<path d="M0,0 L6,0 L6,1 L1,1 L1,3 L6,3 L3,7 L2,12 L1,12 L1,5 L-1,5 L-1,12 L-2,12 L-2,4 L0,4 Z " fill="#414A8F" transform="translate(344,344)"/>
<path d="M0,0 L2,0 L2,3 L7,2 L9,7 L13,8 L12,11 L12,9 L7,9 L6,6 L0,5 Z " fill="#5658B2" transform="translate(467,338)"/>
<path d="M0,0 L4,1 L-1,7 L-8,8 L-4,3 Z " fill="#5865B7" transform="translate(396,299)"/>
<path d="M0,0 L1,0 L1,16 L-1,15 L0,10 L-3,10 L-3,4 L0,4 Z " fill="#1B1F3E" transform="translate(281,526)"/>
<path d="M0,0 L1,0 L2,13 L1,15 L3,15 L4,12 L4,20 L2,20 L2,16 L0,16 L0,12 L-2,12 L-2,10 L0,10 Z " fill="#0D0C19" transform="translate(534,490)"/>
<path d="M0,0 L2,1 L1,22 L0,22 L0,10 L-2,10 L-2,6 L0,6 Z " fill="#0D0D1A" transform="translate(526,384)"/>
<path d="M0,0 L11,0 L11,5 L9,5 L9,3 L5,4 L5,2 L-1,4 Z " fill="#505EA5" transform="translate(425,271)"/>
<path d="M0,0 L2,0 L0,6 L4,6 L4,4 L6,4 L6,8 L-2,8 L-2,2 Z " fill="#070C1E" transform="translate(450,840)"/>
<path d="M0,0 L7,1 L8,4 L10,4 L10,6 L4,5 L1,4 Z " fill="#535EB6" transform="translate(384,681)"/>
<path d="M0,0 L6,2 L6,5 L9,4 L10,2 L13,2 L13,4 L10,6 L3,6 L-1,1 Z " fill="#686FE2" transform="translate(438,663)"/>
<path d="M0,0 L4,2 L4,10 L0,11 Z " fill="#636FD5" transform="translate(416,647)"/>
<path d="M0,0 L5,1 L5,3 L7,4 L3,10 L2,10 L1,3 L-3,2 Z M5,0 Z " fill="#7562E2" transform="translate(509,637)"/>
<path d="M0,0 L3,0 L5,3 L8,2 L8,5 L10,6 L6,7 L1,6 Z " fill="#5253A4" transform="translate(467,323)"/>
<path d="M0,0 L4,1 L2,1 L2,5 L0,5 L0,9 L-4,8 L-1,8 L-1,6 L-4,5 L-2,1 Z " fill="#423D90" transform="translate(650,669)"/>
<path d="M0,0 L4,1 L4,7 L1,12 L0,12 Z " fill="#5C69C7" transform="translate(400,660)"/>
<path d="M0,0 L3,1 L3,13 L-1,14 L0,9 Z " fill="#544EB3" transform="translate(641,617)"/>
<path d="M0,0 L6,0 L5,2 L2,3 L0,7 L-5,6 L-5,4 Z " fill="#7379E7" transform="translate(444,610)"/>
<path d="M0,0 L3,4 L2,7 L5,7 L5,12 L3,12 L1,8 L-2,6 Z " fill="#5F6AC5" transform="translate(390,641)"/>
<path d="M0,0 L4,1 L2,6 L-3,10 L-5,10 L-3,5 L-1,3 Z " fill="#7A67EC" transform="translate(499,639)"/>
<path d="M0,0 L1,3 L3,3 L3,0 L7,2 L9,3 L9,5 L7,5 L8,9 L4,6 L4,4 L0,4 Z " fill="#3E4989" transform="translate(312,632)"/>
<path d="M0,0 L2,0 L3,5 L5,4 L6,9 L4,9 L3,11 L0,8 Z " fill="#4B54A4" transform="translate(287,598)"/>
<path d="M0,0 L1,3 L3,3 L4,0 L4,4 L2,4 L2,14 L4,14 L4,16 L2,16 L1,20 L0,14 Z " fill="#0B0D1B" transform="translate(272,540)"/>
<path d="M0,0 L2,0 L2,2 L4,2 L4,8 L2,8 L2,10 L0,10 Z " fill="#0A172C" transform="translate(736,514)"/>
<path d="M0,0 L1,2 L5,2 L5,5 L-1,5 L-1,3 L-6,3 L-6,1 Z " fill="#474FA7" transform="translate(429,708)"/>
<path d="M0,0 L3,0 L5,5 L5,9 L1,12 L2,4 L0,4 Z " fill="#6A5ED5" transform="translate(521,656)"/>
<path d="M0,0 L7,2 L7,7 L5,6 L5,4 L-1,4 L-5,1 Z " fill="#6258BB" transform="translate(539,546)"/>
<path d="M0,0 L8,1 L9,4 L7,5 L7,3 L-3,5 L-4,3 Z " fill="#534AB0" transform="translate(599,668)"/>
<path d="M0,0 L1,2 L5,2 L5,4 L7,4 L7,8 L1,6 L1,4 L-1,3 Z M1,3 Z " fill="#070810" transform="translate(343,666)"/>
<path d="M0,0 L2,4 L0,8 L-5,9 L-3,4 L-1,3 Z " fill="#47439E" transform="translate(655,660)"/>
<path d="M0,0 L3,0 L2,4 L1,6 L3,6 L5,10 L4,13 L4,11 L0,10 L2,10 L2,7 L-1,6 Z " fill="#665AC4" transform="translate(571,586)"/>
<path d="M0,0 L1,0 L1,10 L5,10 L5,16 L4,16 L4,11 L2,11 L2,15 L0,15 L-1,11 Z " fill="#434187" transform="translate(527,474)"/>
<path d="M0,0 L3,3 L5,9 L3,10 L0,9 Z " fill="#4957A5" transform="translate(355,668)"/>
<path d="M0,0 L11,1 L11,3 L5,4 L-3,2 Z " fill="#746BE7" transform="translate(479,662)"/>
<path d="M0,0 L4,2 L3,6 L1,7 L-1,6 L-1,2 L-3,1 Z " fill="#45529A" transform="translate(323,640)"/>
<path d="M0,0 L5,1 L3,7 L-2,5 Z " fill="#5A69C0" transform="translate(337,624)"/>
<path d="M0,0 L1,2 L0,4 L2,4 L3,2 L3,7 L0,7 L1,10 L-1,10 L-1,6 L-3,6 L-3,4 L-1,4 L-2,1 Z " fill="#455092" transform="translate(293,608)"/>
<path d="M0,0 L1,2 L9,3 L7,7 L5,8 L4,4 L-2,2 Z " fill="#7162DE" transform="translate(511,570)"/>
<path d="M0,0 L9,0 L9,7 L7,7 L7,2 L0,2 Z " fill="#594FA9" transform="translate(578,551)"/>
<path d="M0,0 L6,2 L10,7 L5,7 L5,4 L0,3 Z " fill="#6F67DB" transform="translate(484,547)"/>
<path d="M0,0 L3,0 L1,6 L-2,10 L-4,12 L-4,6 L0,4 Z " fill="#5E6ECE" transform="translate(316,532)"/>
<path d="M0,0 L2,0 L1,9 L-3,10 L-3,7 Z " fill="#6762CB" transform="translate(467,411)"/>
<path d="M0,0 L2,0 L2,2 L6,0 L8,4 L5,4 L-2,4 Z " fill="#6A75DC" transform="translate(422,336)"/>
<path d="M0,0 L2,0 L3,5 L1,5 L2,8 L-2,6 L-2,1 Z " fill="#475298" transform="translate(310,624)"/>
<path d="M0,0 L10,1 L5,5 L1,4 Z " fill="#6D5FD0" transform="translate(541,581)"/>
<path d="M0,0 L4,1 L1,5 L-1,5 L-1,3 L-6,6 L-6,2 L-2,1 L0,2 Z " fill="#6272CC" transform="translate(336,486)"/>
<path d="M0,0 L1,0 L1,6 L-1,6 L-1,8 L1,8 L1,10 L-1,10 L-2,14 L-3,6 L-2,2 L-2,5 L0,5 Z " fill="#0B0C18" transform="translate(291,474)"/>
<path d="M0,0 L1,0 L2,6 L1,13 L-1,14 L-1,1 Z " fill="#6460C5" transform="translate(476,393)"/>
<path d="M0,0 L1,4 L3,4 L2,8 L2,5 L0,5 L0,7 L-2,7 L-2,5 L-5,4 L-5,1 L-2,1 L-2,4 L0,4 Z " fill="#4B4F91" transform="translate(447,278)"/>
<path d="M0,0 L4,2 L4,7 L0,9 Z " fill="#7C67ED" transform="translate(500,591)"/>
<path d="M0,0 L9,1 L8,4 L-3,2 Z " fill="#6B5DCA" transform="translate(536,570)"/>
<path d="M0,0 L1,0 L1,12 L5,12 L5,15 L1,15 L0,13 Z " fill="#544EA6" transform="translate(518,434)"/>
<path d="M0,0 L5,1 L5,3 L9,3 L8,7 L8,4 L2,5 L-1,2 Z M1,2 Z " fill="#080A13" transform="translate(371,693)"/>
<path d="M0,0 L2,0 L2,6 L4,6 L4,8 L-2,8 L-2,6 L0,6 Z " fill="#0A0A18" transform="translate(662,622)"/>
<path d="M0,0 L2,0 L3,3 L1,8 L-3,4 L-2,1 Z " fill="#5964BA" transform="translate(340,412)"/>
<path d="M0,0 L2,3 L3,8 L7,9 L5,13 L4,10 L1,9 Z " fill="#595BAF" transform="translate(461,323)"/>
<path d="M0,0 L4,1 L1,1 L1,9 L0,5 L-3,5 L-4,8 L-3,3 L0,2 Z " fill="#42508B" transform="translate(374,296)"/>
<path d="M0,0 L1,3 L3,3 L3,1 L5,1 L5,3 L7,3 L5,7 L0,4 Z " fill="#444F98" transform="translate(336,656)"/>
<path d="M0,0 L1,3 L3,3 L3,1 L5,1 L3,7 L1,8 L1,5 L-2,6 L-2,4 L0,4 Z " fill="#455094" transform="translate(352,338)"/>
<path d="M0,0 L1,4 L1,10 L-1,10 L-1,6 L-3,6 L-3,1 Z " fill="#10101F" transform="translate(463,300)"/>
<path d="M0,0 L2,0 L2,2 L6,2 L5,4 L3,3 L2,5 L-8,3 L-8,2 L0,2 Z " fill="#3F4987" transform="translate(430,264)"/>
<path d="M0,0 L2,0 L0,4 L-5,10 L-6,6 L-4,6 L-2,2 L0,2 Z " fill="#0B0B1A" transform="translate(658,664)"/>
<path d="M0,0 L6,0 L4,5 L0,6 Z " fill="#544CB2" transform="translate(614,657)"/>
<path d="M0,0 L6,2 L2,3 L2,5 L5,6 L1,6 L-2,1 Z " fill="#435097" transform="translate(327,646)"/>
<path d="M0,0 L6,0 L6,8 L4,8 L4,2 Z " fill="#3B3B84" transform="translate(660,620)"/>
<path d="M0,0 L4,0 L4,4 L6,4 L5,8 L5,5 L3,5 L2,7 L0,3 L3,3 L3,1 Z " fill="#403D8A" transform="translate(650,588)"/>
<path d="M0,0 L2,4 L4,5 L2,10 L0,11 Z " fill="#5966BC" transform="translate(324,452)"/>
<path d="M0,0 L3,3 L2,8 L1,6 L-2,7 L-1,3 Z M-3,7 Z " fill="#4F5FB1" transform="translate(343,379)"/>
<path d="M0,0 L5,2 L8,3 L5,7 L3,7 L1,2 Z " fill="#5966BC" transform="translate(349,632)"/>
<path d="M0,0 Z M-2,1 L1,2 L-2,5 L-4,5 L-8,7 L-6,3 Z " fill="#6772D6" transform="translate(390,581)"/>
<path d="M0,0 L5,0 L4,6 L2,6 L2,4 L0,4 Z " fill="#5550A5" transform="translate(528,503)"/>
<path d="M0,0 L2,1 L-4,8 L-6,10 L-6,5 Z " fill="#5D6AC6" transform="translate(335,467)"/>
<path d="M0,0 L3,0 L3,9 L1,9 Z " fill="#030306" transform="translate(525,406)"/>
<path d="M0,0 L2,0 L2,10 L0,10 L-1,3 Z " fill="#5451A2" transform="translate(520,395)"/>
<path d="M0,0 L5,0 L5,4 L0,4 Z " fill="#6661D4" transform="translate(501,677)"/>
<path d="M0,0 L6,1 L7,3 L0,4 Z " fill="#5C67BB" transform="translate(428,288)"/>
<path d="M0,0 L2,0 L3,3 L1,10 L0,10 Z " fill="#7D75F3" transform="translate(475,630)"/>
<path d="M0,0 L2,1 L2,3 L4,3 L3,7 L-1,8 L1,2 L-1,1 Z " fill="#5B50BC" transform="translate(626,616)"/>
<path d="M0,0 L2,0 L2,2 L6,2 L5,4 L-6,3 L-6,2 L0,2 Z " fill="#454084" transform="translate(560,530)"/>
<path d="M0,0 L6,0 L8,1 L7,5 L7,2 L1,3 Z " fill="#6760CC" transform="translate(484,522)"/>
<path d="M0,0 L1,4 L-3,9 L-5,9 L-5,6 L-2,3 L0,3 Z " fill="#6460C9" transform="translate(468,438)"/>
<path d="M0,0 L1,3 L5,3 L5,5 L-1,5 Z M5,2 Z " fill="#5F57C8" transform="translate(549,675)"/>
<path d="M0,0 L4,1 L3,4 L-1,5 Z " fill="#7565E5" transform="translate(501,652)"/>
<path d="M0,0 L7,1 L2,5 L0,4 Z " fill="#5360B5" transform="translate(360,648)"/>
<path d="M0,0 L1,0 L2,6 L2,9 L-1,9 Z " fill="#7B71F0" transform="translate(476,640)"/>
<path d="M0,0 L1,0 L1,6 L4,7 L0,8 L-2,1 Z " fill="#6154C3" transform="translate(592,603)"/>
<path d="M0,0 L1,0 L2,7 L3,9 L-1,9 L-1,1 Z " fill="#5C52B4" transform="translate(572,572)"/>
<path d="M0,0 L4,2 L2,3 L1,7 L1,3 L-3,2 Z M-4,3 Z " fill="#4C579E" transform="translate(435,268)"/>
<path d="M0,0 L4,0 L2,7 L0,7 Z " fill="#636FD5" transform="translate(417,660)"/>
<path d="M0,0 L3,2 L3,8 L1,5 L1,3 L-3,2 Z " fill="#7764E7" transform="translate(509,637)"/>
<path d="M0,0 L2,0 L2,7 L0,9 L-1,6 Z " fill="#7A67E6" transform="translate(511,606)"/>
<path d="M0,0 L2,0 L1,9 L-2,8 Z " fill="#514DA2" transform="translate(521,465)"/>
<path d="M0,0 L2,0 L2,4 L5,4 L5,6 L0,5 Z " fill="#657ADB" transform="translate(415,387)"/>
<path d="M0,0 L2,2 L4,7 L1,7 L1,5 L-1,5 Z " fill="#636BC5" transform="translate(448,320)"/>
<path d="M0,0 L4,1 L4,3 L2,3 L1,5 L-2,1 Z " fill="#47529D" transform="translate(343,662)"/>
<path d="M0,0 L5,1 L3,5 L0,5 Z " fill="#4F48A5" transform="translate(624,580)"/>
<path d="M0,0 L3,1 L2,7 L0,7 Z " fill="#677CD9" transform="translate(333,576)"/>
<path d="M0,0 L3,0 L4,3 L-1,4 Z " fill="#615CB7" transform="translate(501,388)"/>
<path d="M0,0 L3,1 L2,6 L2,8 L-1,9 Z " fill="#6271CF" transform="translate(392,340)"/>
<path d="M0,0 L4,1 L5,5 L2,5 Z " fill="#6168BB" transform="translate(444,306)"/>
<path d="M0,0 L6,0 L6,1 L1,1 L1,5 L-3,3 L0,2 Z " fill="#3E4986" transform="translate(406,272)"/>
<path d="M0,0 L4,0 L4,5 L2,5 L-1,1 Z " fill="#4E5AA3" transform="translate(432,271)"/>
<path d="M0,0 L6,0 L6,3 L0,2 Z " fill="#6F6FE7" transform="translate(470,663)"/>
<path d="M0,0 L7,1 L6,4 L1,2 Z " fill="#4A55A4" transform="translate(349,664)"/>
<path d="M0,0 L4,1 L4,5 L1,5 Z " fill="#6170CE" transform="translate(327,592)"/>
<path d="M0,0 L2,1 L0,6 L-2,4 L-2,1 Z M-3,5 Z M-4,6 Z " fill="#6375D1" transform="translate(336,499)"/>
<path d="M0,0 L3,0 L2,5 L-1,5 Z " fill="#6465C8" transform="translate(461,364)"/>
<path d="M0,0 L1,0 L2,6 L-2,6 L-1,2 Z " fill="#010307" transform="translate(452,840)"/>
<path d="M0,0 L2,0 L4,6 L0,4 Z " fill="#070C1F" transform="translate(566,826)"/>
<path d="M0,0 L4,1 L4,3 L1,3 L0,5 L0,2 L-2,1 Z " fill="#4A44A2" transform="translate(645,674)"/>
<path d="M0,0 L2,1 L1,4 L-1,4 L-1,6 L-3,6 L-1,1 Z " fill="#6274D4" transform="translate(319,541)"/>
<path d="M0,0 L3,2 L-6,4 L-6,2 Z " fill="#6173D0" transform="translate(328,510)"/>
<path d="M0,0 L3,1 L3,3 L1,3 L1,5 L-1,5 Z " fill="#4C57A1" transform="translate(342,356)"/>
<path d="M0,0 L2,0 L2,3 L4,4 L0,5 L-1,3 Z " fill="#5555A0" transform="translate(463,315)"/>
<path d="M0,0 L4,0 L4,2 L2,2 L2,5 L0,5 Z " fill="#515FAC" transform="translate(417,265)"/>
<path d="M0,0 L2,1 L0,2 Z M-1,2 Z M-3,3 L-1,3 L-3,7 L-5,6 Z " fill="#5049AA" transform="translate(625,666)"/>
<path d="M0,0 L2,0 L1,4 L-3,4 L-3,2 L0,2 Z " fill="#4946A2" transform="translate(653,665)"/>
<path d="M0,0 L4,0 L4,2 L2,2 L3,6 L1,5 Z " fill="#444F96" transform="translate(317,635)"/>
<path d="M0,0 L4,1 L3,4 L-1,2 Z " fill="#5866BC" transform="translate(336,627)"/>
<path d="M0,0 L4,0 L4,3 L-1,3 Z " fill="#534AA7" transform="translate(612,573)"/>
<path d="M0,0 L4,1 L3,5 L2,3 L0,3 Z " fill="#7064DC" transform="translate(493,560)"/>
<path d="M0,0 L3,0 L3,5 L0,4 Z " fill="#4F4A9D" transform="translate(562,535)"/>
<path d="M0,0 L3,1 L2,8 L1,8 L1,3 L-1,2 Z " fill="#5762B9" transform="translate(327,436)"/>
<path d="M0,0 L4,2 L4,5 L2,5 L1,3 L-1,4 Z " fill="#625EB9" transform="translate(493,368)"/>
<path d="M0,0 L4,1 L4,5 L2,5 L2,2 L0,2 Z " fill="#5455A6" transform="translate(469,319)"/>
<path d="M0,0 L4,0 L4,4 L0,2 Z " fill="#6268BD" transform="translate(440,302)"/>
<path d="M0,0 L3,2 L3,5 L-1,4 Z " fill="#4954A4" transform="translate(387,693)"/>
<path d="M0,0 L2,0 L0,4 L-3,5 L-3,3 L-1,3 Z " fill="#5950B7" transform="translate(603,661)"/>
<path d="M0,0 L3,4 L2,6 L-2,5 L0,5 Z " fill="#7972EF" transform="translate(475,653)"/>
<path d="M0,0 L4,0 L4,2 L2,2 L1,6 Z " fill="#090B17" transform="translate(272,554)"/>
<path d="M0,0 L2,0 L0,4 L-2,5 L-2,1 Z " fill="#5E6EC8" transform="translate(332,487)"/>
<path d="M0,0 L1,0 L2,8 L-1,8 Z " fill="#49458D" transform="translate(523,406)"/>
<path d="M0,0 L3,3 L1,7 Z " fill="#6762CC" transform="translate(466,402)"/>
<path d="M0,0 L6,0 L5,3 L0,1 Z " fill="#594EB6" transform="translate(614,657)"/>
<path d="M0,0 L4,1 L0,4 L-2,2 L0,2 Z " fill="#5F70CC" transform="translate(386,356)"/>
<path d="M0,0 L2,0 L1,5 L0,2 L-2,1 Z " fill="#4A599E" transform="translate(371,303)"/>
<path d="M0,0 L2,0 L0,4 L-2,4 Z " fill="#070B1D" transform="translate(386,806)"/>
<path d="M0,0 L3,1 L2,3 L-3,2 Z " fill="#4B459F" transform="translate(539,704)"/>
<path d="M0,0 L4,0 L4,3 L0,2 Z " fill="#6A79DD" transform="translate(380,578)"/>
<path d="M0,0 L2,0 L3,3 L0,4 L-1,1 Z " fill="#7665E7" transform="translate(492,571)"/>
<path d="M0,0 L3,1 L1,5 Z " fill="#6975DC" transform="translate(391,555)"/>
<path d="M0,0 L2,0 L1,5 L-1,2 Z " fill="#6C68D6" transform="translate(470,527)"/>
<path d="M0,0 L2,0 L2,4 L-1,4 Z " fill="#534FA3" transform="translate(522,483)"/>
</svg>
