<?xml version="1.0" encoding="UTF-8"?>
<!-- Generator: visioncortex VTracer 0.6.4 -->
<svg version="1.1" xmlns="http://www.w3.org/2000/svg" width="1024" height="1024">
<path d="M0,0 L1024,0 L1024,1024 L0,1024 Z " fill="#000000" transform="translate(0,0)"/>
<path d="M0,0 L12,0 L12,6 L16,6 L16,8 L36,8 L36,10 L56,10 L56,8 L78,8 L80,10 L80,20 L82,20 L82,22 L88,22 L88,24 L92,24 L92,22 L96,22 L96,20 L105,20 L108,22 L108,16 L148,16 L148,18 L152,18 L152,24 L157,25 L158,28 L164,28 L164,34 L168,34 L168,26 L176,26 L176,24 L184,24 L184,30 L186,30 L186,34 L194,34 L194,40 L196,40 L198,45 L210,56 L210,58 L220,58 L220,60 L225,61 L226,64 L228,64 L228,88 L234,88 L234,90 L244,90 L244,96 L246,96 L246,102 L244,102 L244,104 L252,106 L252,118 L248,118 L248,162 L252,162 L252,186 L248,190 L244,190 L244,230 L248,230 L248,236 L246,236 L246,238 L242,238 L242,240 L238,240 L238,242 L228,242 L228,270 L223,272 L221,274 L220,280 L218,280 L218,282 L208,282 L208,290 L204,290 L204,294 L194,295 L192,298 L196,298 L196,318 L192,318 L192,326 L188,326 L188,332 L181,338 L180,348 L172,348 L172,350 L165,352 L164,356 L162,356 L162,360 L160,360 L160,366 L158,366 L158,376 L156,376 L156,388 L154,388 L154,390 L142,391 L140,398 L148,398 L148,406 L140,407 L138,410 L134,410 L134,412 L128,412 L128,414 L122,414 L122,416 L112,416 L112,412 L108,412 L108,410 L104,410 L104,406 L100,406 L100,412 L92,412 L92,410 L87,414 L86,416 L72,416 L72,410 L36,410 L36,414 L-2,414 L-2,416 L-10,416 L-10,414 L-28,414 L-28,418 L-22,418 L-22,426 L-38,426 L-38,424 L-40,424 L-40,418 L-36,418 L-36,414 L-40,414 L-40,408 L-48,408 L-48,406 L-54,406 L-54,398 L-52,398 L-52,394 L-54,394 L-54,390 L-58,390 L-58,392 L-64,392 L-64,386 L-60,386 L-60,380 L-66,380 L-66,378 L-78,378 L-78,376 L-86,376 L-88,374 L-90,369 L-92,368 L-93,358 L-96,355 L-100,354 L-104,350 L-104,290 L-80,290 L-81,278 L-90,274 L-90,266 L-92,266 L-92,254 L-88,250 L-78,250 L-78,252 L-76,252 L-76,238 L-84,238 L-84,230 L-66,230 L-66,232 L-64,232 L-64,134 L-66,134 L-66,128 L-64,128 L-64,94 L-70,94 L-70,92 L-72,92 L-72,84 L-70,82 L-64,82 L-64,66 L-62,66 L-62,58 L-40,58 L-40,54 L-48,54 L-48,48 L-50,48 L-52,43 L-58,42 L-58,56 L-64,56 L-64,46 L-66,46 L-66,40 L-60,40 L-60,26 L-52,26 L-52,22 L-44,22 L-44,18 L-32,18 L-32,24 L-34,24 L-34,26 L-38,26 L-38,38 L-34,38 L-34,42 L-28,42 L-28,52 L-26,52 L-26,22 L-20,22 L-20,12 L-22,12 L-22,6 L-20,4 L0,4 Z " fill="#611F68" transform="translate(446,316)"/>
<path d="M0,0 L8,0 L8,4 L10,4 L10,10 L16,10 L16,20 L24,20 L24,22 L34,22 L34,28 L28,28 L28,32 L32,32 L34,37 L42,38 L44,36 L48,36 L48,34 L56,34 L58,39 L66,40 L66,34 L72,34 L72,46 L70,46 L70,48 L56,48 L56,46 L54,46 L54,48 L40,48 L38,47 L38,50 L32,50 L34,53 L40,54 L40,70 L50,70 L50,76 L60,76 L60,82 L58,82 L58,84 L42,84 L42,86 L38,86 L38,88 L40,88 L40,94 L42,94 L42,102 L38,106 L28,106 L28,108 L10,108 L10,110 L8,110 L8,112 L2,112 L2,110 L0,110 L0,112 L-10,112 L-10,110 L-16,110 L-16,108 L-20,108 L-20,104 L-24,104 L-24,100 L-28,100 L-28,92 L-44,92 L-44,88 L-64,88 L-64,76 L-60,76 L-60,72 L-44,72 L-44,68 L-48,68 L-48,64 L-56,64 L-56,60 L-60,60 L-60,68 L-64,72 L-72,72 L-72,68 L-76,68 L-76,64 L-80,64 L-80,60 L-84,60 L-84,50 L-76,50 L-76,48 L-84,48 L-84,40 L-88,40 L-88,42 L-92,42 L-92,48 L-100,48 L-100,36 L-94,36 L-94,34 L-84,34 L-84,32 L-78,32 L-78,34 L-76,34 L-76,38 L-68,38 L-68,42 L-62,42 L-62,48 L-52,48 L-52,42 L-46,42 L-46,48 L-48,48 L-48,50 L-38,50 L-38,52 L-30,52 L-30,50 L-28,50 L-28,28 L-8,28 L-8,24 L-4,24 L-4,4 L0,4 Z " fill="#340F3E" transform="translate(410,754)"/>
<path d="M0,0 L16,0 L16,2 L18,2 L18,10 L13,12 L12,14 L30,14 L30,16 L46,16 L46,22 L50,22 L50,30 L26,30 L26,28 L12,28 L12,30 L-38,30 L-38,28 L-42,28 L-42,22 L-34,22 L-34,16 L-32,16 L-32,8 L-18,8 L-18,22 L-12,22 L-10,18 L-2,18 L-2,20 L4,20 L4,18 L10,18 L10,14 L6,14 L6,10 L2,10 L2,6 L0,6 Z " fill="#381345" transform="translate(532,772)"/>
<path d="M0,0 L12,0 L12,6 L16,6 L16,8 L36,8 L36,10 L56,10 L56,8 L78,8 L80,10 L80,20 L82,20 L81,22 L78,22 L77,20 L35,21 L34,24 L30,24 L30,20 L22,20 L22,16 L18,16 L16,11 L9,8 L9,6 L7,6 L7,22 L-1,22 L-1,17 L-4,18 L-4,8 L-17,9 L-19,22 L-20,22 L-20,12 L-22,12 L-22,6 L-20,4 L0,4 Z " fill="#561F5D" transform="translate(446,316)"/>
<path d="M0,0 L1,0 L2,14 L4,18 L4,34 L2,40 L4,40 L4,102 L7,103 L6,134 L0,142 L-9,143 L-10,144 L-10,166 L-14,167 L-14,162 L-22,162 L-23,161 L-24,172 L-22,172 L-21,179 L-23,179 L-24,181 L-26,180 L-26,172 L-28,172 L-28,160 L-24,156 L-14,156 L-14,158 L-12,158 L-12,144 L-20,144 L-20,136 L-2,136 L-2,138 L0,138 L0,40 L-2,40 L-2,34 L0,34 Z M-23,157 L-23,159 L-20,160 L-15,159 L-15,157 Z " fill="#591A59" transform="translate(382,410)"/>
<path d="M0,0 L6,0 L8,2 L8,31 L12,30 L12,26 L24,26 L24,28 L32,28 L32,26 L38,26 L40,28 L40,38 L32,38 L32,40 L0,40 L0,38 L-4,38 L-4,2 L0,2 Z " fill="#4B1654" transform="translate(298,666)"/>
<path d="M0,0 L2,0 L2,10 L4,10 L4,3 L5,3 L6,10 L7,14 L8,17 L26,17 L33,19 L34,22 L37,23 L39,31 L43,35 L44,38 L44,45 L48,48 L46,48 L46,50 L54,50 L54,56 L58,54 L59,56 L63,57 L64,56 L91,55 L128,56 L127,52 L129,49 L158,49 L166,50 L168,55 L176,55 L180,51 L185,50 L188,52 L186,52 L186,54 L192,54 L192,49 L193,49 L193,55 L185,55 L185,53 L180,57 L179,59 L165,59 L165,53 L129,53 L129,57 L91,57 L91,59 L83,59 L83,57 L65,57 L65,61 L71,61 L71,69 L55,69 L55,67 L53,67 L53,61 L57,61 L57,57 L53,57 L53,51 L45,51 L45,49 L39,49 L39,41 L41,41 L41,37 L39,37 L39,33 L35,33 L35,35 L29,35 L29,29 L33,29 L33,23 L27,23 L27,21 L15,21 L15,19 L7,19 L5,17 L3,12 L1,11 Z " fill="#521959" transform="translate(353,673)"/>
<path d="M0,0 L2,4 L15,16 L15,18 L25,18 L25,20 L30,21 L31,24 L33,24 L33,48 L39,48 L39,50 L49,50 L49,56 L51,56 L51,62 L49,62 L49,64 L57,66 L57,78 L53,78 L53,122 L57,122 L57,146 L53,150 L49,150 L49,190 L53,190 L53,196 L52,196 L52,191 L48,191 L48,149 L52,149 L52,147 L50,146 L52,145 L53,140 L53,125 L52,123 L52,100 L50,100 L49,91 L43,91 L43,94 L39,95 L41,91 L42,85 L45,84 L43,82 L47,82 L47,80 L49,80 L49,78 L51,78 L51,76 L53,75 L53,70 L51,70 L51,68 L47,67 L47,57 L43,53 L48,53 L48,51 L34,52 L31,51 L32,25 L30,25 L29,29 L28,25 L19,25 L16,24 L15,20 L13,20 L13,18 L11,17 L6,13 L-1,5 Z M13,17 Z M51,67 Z " fill="#4C1D56" transform="translate(641,356)"/>
<path d="M0,0 L8,0 L8,4 L10,4 L10,12 L8,12 L8,40 L6,40 L6,42 L0,42 L0,38 L-4,38 L-4,2 L0,2 Z " fill="#3A103A" transform="translate(274,438)"/>
<path d="M0,0 L40,0 L40,2 L44,2 L44,8 L49,9 L50,12 L56,12 L56,18 L60,18 L60,10 L68,10 L68,8 L76,8 L76,14 L78,14 L78,18 L86,18 L86,24 L85,24 L85,19 L77,19 L70,16 L70,13 L64,14 L63,19 L60,24 L55,24 L53,19 L53,16 L50,16 L50,14 L42,12 L41,8 L39,5 L5,5 L3,6 L3,3 L39,3 L39,1 L1,1 L0,10 L-6,8 L-13,8 L-15,7 L-15,9 L-21,9 L-21,7 L-26,7 L-26,6 L-20,6 L-20,8 L-16,8 L-16,6 L-12,6 L-12,4 L-3,4 L0,6 Z " fill="#521D5B" transform="translate(554,332)"/>
<path d="M0,0 L8,0 L10,5 L18,6 L18,0 L24,0 L24,12 L22,12 L22,14 L8,14 L8,12 L6,12 L6,14 L-8,14 L-8,11 L-10,11 L-10,7 L-15,7 L-14,5 L-5,6 L-4,2 L0,2 Z " fill="#371343" transform="translate(458,788)"/>
<path d="M0,0 L12,0 L12,2 L20,2 L20,0 L26,0 L28,2 L28,12 L20,13 L-11,13 L-11,11 L2,11 L2,7 L-1,7 Z " fill="#4B1652" transform="translate(310,692)"/>
<path d="M0,0 L12,0 L12,6 L16,6 L15,8 L10,9 L9,6 L7,6 L7,22 L-1,22 L-1,17 L-4,18 L-4,8 L-17,9 L-19,22 L-20,22 L-20,12 L-22,12 L-22,6 L-20,4 L0,4 Z " fill="#4B194F" transform="translate(446,316)"/>
<path d="M0,0 L4,0 L4,64 L1,65 L0,72 L-4,72 L-4,68 L-8,68 L-8,64 L0,64 Z " fill="#68226E" transform="translate(616,480)"/>
<path d="M0,0 L18,0 L18,2 L20,3 L18,4 L20,6 L11,7 L10,8 L10,30 L6,31 L6,26 L-2,26 L-3,25 L-4,36 L-2,36 L-1,43 L-3,43 L-4,45 L-6,44 L-6,36 L-8,36 L-8,24 L-4,20 L6,20 L6,22 L8,22 L8,8 L0,8 Z M-3,21 L-3,23 L0,24 L5,23 L5,21 Z " fill="#541A56" transform="translate(362,546)"/>
<path d="M0,0 L6,0 L6,48 L0,48 L0,12 L-2,12 L-2,6 L0,6 Z " fill="#3D113D" transform="translate(276,486)"/>
<path d="M0,0 L6,0 L6,1 L1,1 L1,3 L5,3 L4,7 L2,8 L1,15 L9,15 L9,19 L1,19 L1,27 L5,27 L5,31 L9,31 L9,35 L13,35 L13,37 L20,36 L21,34 L23,35 L23,27 L28,27 L24,28 L24,36 L20,40 L12,40 L12,36 L8,36 L8,32 L4,32 L4,28 L0,28 L0,18 L8,18 L8,16 L0,16 L0,8 L-4,8 L-4,10 L-8,10 L-8,16 L-16,16 L-16,4 L-10,4 L-10,2 L0,2 Z " fill="#2C0E34" transform="translate(326,786)"/>
<path d="M0,0 L29,0 L37,1 L39,6 L47,6 L51,2 L56,1 L59,3 L57,3 L57,5 L63,5 L63,0 L64,0 L64,6 L56,6 L56,4 L51,8 L50,10 L36,10 L36,4 L-2,5 Z " fill="#501C5B" transform="translate(482,722)"/>
<path d="M0,0 L10,0 L10,6 L20,6 L20,12 L18,12 L18,14 L2,14 L2,16 L-2,16 L-2,18 L0,18 L0,24 L2,24 L2,32 L1,32 L1,25 L-1,25 L-1,31 L-2,31 L-3,24 L-3,15 L1,15 L1,13 L-2,12 L-1,4 L9,5 L9,1 L0,1 Z " fill="#31113B" transform="translate(450,824)"/>
<path d="M0,0 L6,0 L6,12 L-12,12 L-12,10 L-14,10 L-14,2 L0,2 Z " fill="#290E33" transform="translate(570,830)"/>
<path d="M0,0 L12,0 L12,6 L10,6 L10,8 L6,8 L6,20 L10,20 L10,24 L16,24 L16,34 L18,34 L18,4 L24,4 L24,5 L19,5 L19,13 L21,13 L21,7 L23,8 L22,14 L24,14 L23,19 L22,28 L24,29 L21,33 L21,31 L19,31 L19,35 L14,35 L13,33 L15,33 L15,25 L9,25 L9,21 L5,21 L5,7 L9,7 L9,5 L5,5 L5,3 L0,4 Z " fill="#4D1750" transform="translate(402,334)"/>
<path d="M0,0 L1,0 L1,44 L5,44 L5,68 L1,72 L-3,72 L-3,112 L1,112 L1,118 L0,118 L0,113 L-4,113 L-4,71 L0,71 L0,69 L-2,68 L0,67 L1,62 L1,47 L0,45 Z " fill="#481A4D" transform="translate(693,434)"/>
<path d="M0,0 L8,0 L10,2 L10,12 L-8,12 L-8,4 L-4,4 L-4,2 L0,2 Z " fill="#361343" transform="translate(568,770)"/>
<path d="M0,0 L6,0 L8,2 L8,6 L10,6 L10,12 L18,12 L18,16 L-4,16 L-6,14 L0,14 Z " fill="#160617" transform="translate(388,358)"/>
<path d="M0,0 L22,0 L22,1 L7,2 L5,5 L8,7 L4,9 L-1,9 L0,34 L-4,33 L-4,35 L-2,36 L-8,36 L-8,34 L-10,34 L-10,26 L-8,24 L-2,24 L-2,8 L0,8 Z M3,6 Z " fill="#541754" transform="translate(384,374)"/>
<path d="M0,0 L24,0 L24,1 L1,1 L3,4 L4,52 L5,59 L7,61 L5,61 L5,63 L10,62 L12,65 L10,67 L8,65 L4,64 L0,60 Z " fill="#4C1951" transform="translate(342,606)"/>
<path d="M0,0 L6,0 L6,3 L9,3 L9,11 L6,11 L6,38 L4,38 L4,25 L1,25 L1,3 Z " fill="#401141" transform="translate(275,439)"/>
<path d="M0,0 L8,0 L8,1 L1,1 L1,3 L7,3 L3,5 L1,5 L0,7 L0,5 L-7,5 L-7,18 L0,19 L0,20 L-6,20 L-6,34 L-12,34 L-12,24 L-14,24 L-14,18 L-8,18 L-8,4 L0,4 Z M-5,10 L-4,10 L-4,16 L0,17 L-5,18 Z " fill="#47174B" transform="translate(394,338)"/>
<path d="M0,0 L16,0 L16,1 L1,1 L0,12 L16,12 L17,19 L33,19 L33,27 L37,27 L37,31 L40,32 L36,32 L36,28 L32,28 L32,20 L16,20 L16,16 L-4,16 L-4,4 L0,4 Z " fill="#250D2F" transform="translate(350,826)"/>
<path d="M0,0 L4,0 L4,10 L1,11 L0,33 L-2,33 L-3,24 L-9,24 L-9,27 L-13,28 L-11,24 L-10,18 L-7,17 L-9,15 L-5,15 L-5,13 L-3,13 L-3,11 L-1,11 L-1,9 L1,8 L1,3 L-1,3 Z " fill="#5A2061" transform="translate(693,423)"/>
<path d="M0,0 L1,0 L1,62 L4,63 L3,94 L0,97 Z " fill="#5F1A5F" transform="translate(385,450)"/>
<path d="M0,0 L3,0 L3,10 L5,10 L5,0 L6,0 L6,12 L4,12 L4,14 L-8,15 L-10,22 L-2,22 L-2,30 L-10,30 L-10,29 L-3,29 L-3,23 L-11,23 L-14,22 L-14,16 L-12,16 L-10,11 L-8,10 L-1,10 Z " fill="#4C1856" transform="translate(596,692)"/>
<path d="M0,0 L5,0 L5,4 L7,4 L8,1 L8,3 L12,4 L15,7 L23,5 L24,3 L27,3 L28,1 L38,0 L39,3 L38,5 L34,5 L34,7 L28,7 L28,9 L22,9 L22,11 L12,11 L12,7 L8,7 L8,5 L4,5 L4,1 Z " fill="#501B5E" transform="translate(546,721)"/>
<path d="M0,0 L23,0 L22,3 L4,4 L3,33 L2,33 L1,56 L0,56 Z " fill="#5A1E60" transform="translate(343,607)"/>
<path d="M0,0 L6,0 L8,2 L8,31 L11,30 L11,33 L14,33 L14,37 L1,37 L1,39 L32,39 L32,40 L0,40 L0,38 L-4,38 L-4,2 L0,3 L-3,3 L-3,37 L10,34 L7,32 L6,3 L0,1 Z " fill="#3A1240" transform="translate(298,666)"/>
<path d="M0,0 L1,3 L3,2 L10,2 L13,4 L16,5 L18,4 L25,4 L26,2 L41,2 L35,1 L35,0 L58,1 L58,2 L48,2 L48,4 L30,4 L30,6 L28,6 L28,8 L22,8 L22,6 L20,6 L20,8 L10,8 L10,6 L4,6 L4,4 L0,4 Z M8,4 Z M12,5 L13,7 Z " fill="#220A2A" transform="translate(390,858)"/>
<path d="M0,0 L8,0 L9,9 L6,9 L7,5 L3,5 L0,9 L0,17 L-1,24 L-5,28 L-7,28 L-7,25 L-4,25 L-4,4 L0,4 Z " fill="#3F1446" transform="translate(410,754)"/>
<path d="M0,0 L5,0 L4,8 L1,9 L0,20 L-3,21 L-4,24 L-8,24 L-8,16 L-4,16 L-4,4 L0,4 Z " fill="#68216D" transform="translate(592,568)"/>
<path d="M0,0 L4,0 L4,4 L12,4 L12,8 L16,8 L16,12 L0,12 L-1,10 Z " fill="#040105" transform="translate(350,814)"/>
<path d="M0,0 L12,0 L12,4 L20,4 L20,8 L0,8 Z " fill="#66216E" transform="translate(564,472)"/>
<path d="M0,0 L2,0 L2,40 L-1,39 L-1,2 Z " fill="#592161" transform="translate(687,506)"/>
<path d="M0,0 L40,0 L39,2 L1,1 L0,10 L-6,8 L-13,8 L-15,7 L-15,9 L-21,9 L-21,7 L-26,7 L-26,6 L-20,6 L-20,8 L-16,8 L-16,6 L-12,6 L-12,4 L-3,4 L0,6 Z " fill="#49194E" transform="translate(554,332)"/>
<path d="M0,0 L8,0 L8,4 L12,4 L12,10 L10,10 L10,12 L4,12 L4,8 L0,8 Z " fill="#49154E" transform="translate(310,710)"/>
<path d="M0,0 L1,0 L1,7 L9,7 L9,11 L1,11 L1,19 L5,19 L5,23 L9,23 L9,27 L13,27 L13,29 L20,28 L21,26 L23,27 L23,19 L28,19 L24,20 L24,28 L20,32 L12,32 L12,28 L8,28 L8,24 L4,24 L4,20 L0,20 L0,10 L8,10 L8,8 L0,8 Z " fill="#210C29" transform="translate(326,794)"/>
<path d="M0,0 L10,0 L9,2 L1,1 L1,3 L3,4 L1,5 L0,16 L2,16 L3,23 L1,23 L0,25 L-2,24 L-2,16 L-4,16 L-4,4 Z " fill="#521C55" transform="translate(358,566)"/>
<path d="M0,0 L6,0 L8,2 L8,10 L6,10 L6,14 L0,14 Z " fill="#3A113B" transform="translate(274,540)"/>
<path d="M0,0 L6,0 L6,16 L0,16 L0,10 L-2,10 L-2,8 L0,8 Z " fill="#0A030A" transform="translate(446,322)"/>
<path d="M0,0 L12,0 L12,4 L9,5 L8,8 L5,9 L4,12 L0,12 Z " fill="#682170" transform="translate(576,556)"/>
<path d="M0,0 L1,0 L2,14 L4,18 L4,34 L1,41 L-2,40 L-2,34 L0,34 Z " fill="#541854" transform="translate(382,410)"/>
<path d="M0,0 L16,0 L16,6 L0,6 Z " fill="#2B0F35" transform="translate(562,820)"/>
<path d="M0,0 L1,4 L-37,4 L-37,6 L-45,6 L-45,4 L-63,4 L-64,8 L-64,3 L-37,2 L0,3 Z " fill="#44174C" transform="translate(481,726)"/>
<path d="M0,0 L8,0 L8,6 L10,6 L10,10 L18,10 L18,16 L17,16 L17,11 L9,11 L2,8 L2,5 L-7,3 L-7,10 L-8,10 L-8,2 L0,2 Z " fill="#481B53" transform="translate(622,340)"/>
<path d="M0,0 L7,0 L6,3 L3,3 L2,8 L-1,13 L-6,13 L-8,8 L-8,5 L-11,5 L-10,2 L-6,2 L-6,7 L0,7 Z " fill="#55205E" transform="translate(615,343)"/>
<path d="M0,0 L4,0 L4,28 L0,27 L3,27 L3,25 L0,25 L0,10 L2,10 L0,7 Z " fill="#541D57" transform="translate(670,558)"/>
<path d="M0,0 L8,0 L8,2 L10,2 L10,8 L6,8 L6,10 L0,10 Z " fill="#4C174C" transform="translate(366,436)"/>
<path d="M0,0 L4,2 L3,3 L4,14 L3,15 L3,25 L2,27 L3,29 L3,37 L1,39 L-1,27 L-3,26 L-3,24 L1,25 L0,16 Z " fill="#5E1A60" transform="translate(383,383)"/>
<path d="M0,0 L19,0 L18,2 L4,3 L3,8 L3,19 L2,21 L0,21 Z " fill="#3F1448" transform="translate(383,783)"/>
<path d="M0,0 L9,1 L9,2 L2,4 L1,8 L-1,8 L-1,12 L-3,12 L-3,18 L-5,18 L-5,28 L-6,28 L-7,18 L-7,8 L-3,8 L-2,5 L-2,7 L0,7 L-1,1 Z " fill="#511D56" transform="translate(609,664)"/>
<path d="M0,0 L1,0 L1,8 L-3,8 L-3,14 L-10,20 L-11,30 L-19,30 L-19,29 L-12,29 L-13,18 L-8,12 L-7,8 L-5,8 L-5,6 L0,7 Z " fill="#521D57" transform="translate(637,634)"/>
<path d="M0,0 L14,0 L14,6 L0,6 Z " fill="#2B0F35" transform="translate(532,820)"/>
<path d="M0,0 L10,0 L10,6 L12,6 L12,12 L10,12 L10,14 L18,16 L18,28 L14,27 L17,27 L17,17 L10,18 L8,17 L8,7 L4,3 L9,3 L9,1 L0,1 Z " fill="#471A4F" transform="translate(680,406)"/>
<path d="M0,0 L38,0 L38,2 L2,2 L2,5 L0,5 Z " fill="#591F62" transform="translate(555,333)"/>
<path d="M0,0 L35,0 L37,1 L37,3 L0,3 Z " fill="#571E62" transform="translate(444,726)"/>
<path d="M0,0 L8,0 L8,10 L0,10 Z " fill="#501956" transform="translate(410,310)"/>
<path d="M0,0 L8,0 L8,10 L2,10 L0,8 Z " fill="#35113B" transform="translate(666,710)"/>
<path d="M0,0 L5,0 L7,2 L7,10 L0,10 L1,4 L-8,4 L-7,2 L0,2 Z " fill="#511757" transform="translate(330,693)"/>
<path d="M0,0 L2,3 L2,13 L0,13 L0,23 L-2,23 L-2,13 L-6,12 L-2,6 Z " fill="#571E60" transform="translate(601,679)"/>
<path d="M0,0 L3,2 L2,8 L0,8 L0,10 L-10,10 L-10,18 L-14,17 L-11,17 L-11,15 L-14,15 L-13,10 L-11,8 L-1,9 L-1,7 L-10,7 L-10,6 L-2,6 L-2,2 L0,2 Z " fill="#521D55" transform="translate(664,588)"/>
<path d="M0,0 L12,0 L12,14 L10,13 L9,5 L10,2 L3,3 L0,13 L-2,13 L-2,7 L0,7 Z " fill="#3E154D" transform="translate(501,781)"/>
<path d="M0,0 L5,1 L6,5 L9,5 L9,12 L16,12 L16,14 L7,14 L7,7 L0,7 Z " fill="#070207" transform="translate(389,359)"/>
<path d="M0,0 L18,1 L18,7 L11,7 L10,5 L0,2 Z " fill="#3F1449" transform="translate(426,775)"/>
<path d="M0,0 L10,0 L10,8 L4,8 L4,6 L0,6 Z " fill="#461754" transform="translate(534,734)"/>
<path d="M0,0 L10,0 L10,6 L20,6 L20,12 L19,12 L19,7 L11,7 L11,9 L0,9 L0,5 L9,5 L9,1 L0,1 Z " fill="#1D0A23" transform="translate(450,824)"/>
<path d="M0,0 L2,0 L2,10 L4,10 L4,3 L5,3 L6,10 L7,14 L8,17 L26,17 L26,18 L16,18 L16,20 L27,20 L27,21 L15,21 L15,19 L7,19 L5,17 L3,12 L1,11 Z " fill="#47164C" transform="translate(353,673)"/>
<path d="M0,0 L3,0 L3,2 L19,2 L19,3 L3,3 L3,5 L-1,5 L-1,7 L1,7 L1,13 L3,13 L3,21 L2,21 L2,14 L0,14 L0,20 L-1,20 L-2,13 L-2,4 L2,4 L2,2 L-1,1 Z " fill="#270D2F" transform="translate(449,835)"/>
<path d="M0,0 L1,0 L1,6 L-7,6 L-7,4 L-12,8 L-13,10 L-27,10 L-27,4 L-26,4 L-26,9 L-14,9 L-14,7 L-16,6 L-12,2 L-7,1 L-4,3 L-6,3 L-6,5 L0,5 Z " fill="#441750" transform="translate(545,722)"/>
<path d="M0,0 L6,0 L6,14 L2,14 L1,5 Z " fill="#5E1C62" transform="translate(381,357)"/>
<path d="M0,0 L2,4 L15,16 L14,18 L11,17 L6,13 L-1,5 Z " fill="#441A4E" transform="translate(641,356)"/>
<path d="M0,0 L4,0 L4,2 L1,2 L1,4 L-1,4 L-1,6 L11,6 L11,1 L13,0 L13,8 L-3,8 L-3,2 L0,2 Z " fill="#3F164E" transform="translate(564,773)"/>
<path d="M0,0 L4,0 L4,20 L0,19 L3,19 L3,17 L0,16 L0,3 L3,3 L3,1 Z " fill="#521D55" transform="translate(638,614)"/>
<path d="M0,0 L8,0 L9,9 L6,9 L7,5 L3,5 L-2,10 L-3,5 L0,5 Z " fill="#501859" transform="translate(410,754)"/>
<path d="M0,0 L8,0 L8,6 L6,6 L6,8 L0,8 Z " fill="#290E33" transform="translate(542,830)"/>
<path d="M0,0 L2,0 L2,9 L-5,9 L-5,11 L-11,11 L-11,8 L-7,8 L-7,6 L-1,6 L-1,1 Z " fill="#5A2060" transform="translate(623,654)"/>
<path d="M0,0 L6,1 L11,2 L10,7 L3,9 L1,4 Z " fill="#2D0F36" transform="translate(369,823)"/>
<path d="M0,0 L2,0 L3,9 L-1,11 L-2,14 L-5,13 L-5,19 L-7,19 L-7,11 L-2,10 L-1,1 Z M-4,14 Z " fill="#5D1E61" transform="translate(428,328)"/>
<path d="M0,0 L20,0 L19,8 L17,8 L17,2 L1,2 L1,6 L-1,6 Z " fill="#5D2062" transform="translate(426,321)"/>
<path d="M0,0 L2,0 L2,23 L-1,24 L-1,4 Z " fill="#562262" transform="translate(671,381)"/>
<path d="M0,0 L3,1 L3,23 L0,23 Z " fill="#5A2161" transform="translate(690,455)"/>
<path d="M0,0 L12,0 L12,6 L9,7 L9,5 L5,5 L5,3 L0,4 Z " fill="#4F1A53" transform="translate(402,334)"/>
<path d="M0,0 L12,0 L17,1 L18,4 L18,11 L17,11 L17,5 L11,5 L11,2 L0,2 Z " fill="#531A59" transform="translate(369,691)"/>
<path d="M0,0 L10,0 L10,2 L6,2 L6,4 L-21,4 L-21,3 L0,3 Z " fill="#511C57" transform="translate(447,317)"/>
<path d="M0,0 L6,0 L6,12 L2,13 L2,11 L-8,11 L-8,9 L1,8 L3,7 L3,11 L5,11 L5,1 L1,1 L1,6 L0,6 Z " fill="#33123F" transform="translate(476,788)"/>
<path d="M0,0 L4,0 L4,10 L2,10 L1,7 L0,8 L-9,8 L-9,6 L-1,5 Z " fill="#3D154B" transform="translate(477,789)"/>
<path d="M0,0 L15,0 L17,1 L17,3 L-1,3 Z " fill="#581D61" transform="translate(419,726)"/>
<path d="M0,0 L5,0 L6,4 L8,4 L7,8 L7,6 L1,6 L1,9 L-3,10 L-1,6 Z " fill="#511B54" transform="translate(683,441)"/>
<path d="M0,0 L17,0 L17,2 L1,3 L-2,6 L-7,6 L-7,4 L-2,3 Z " fill="#3D154B" transform="translate(544,787)"/>
<path d="M0,0 L8,0 L8,6 L0,6 Z " fill="#210C2A" transform="translate(586,814)"/>
<path d="M0,0 L8,0 L8,6 L0,6 Z " fill="#250D2C" transform="translate(452,812)"/>
<path d="M0,0 L8,0 L8,6 L0,6 Z " fill="#280E31" transform="translate(590,794)"/>
<path d="M0,0 L4,1 L1,1 L1,3 L6,4 L3,5 L3,7 L17,7 L17,1 L12,1 L12,0 L18,0 L18,8 L2,8 L2,6 L0,6 Z " fill="#3D1342" transform="translate(406,734)"/>
<path d="M0,0 L6,0 L6,8 L0,8 Z " fill="#4C1A53" transform="translate(412,284)"/>
<path d="M0,0 L2,0 L3,2 L3,16 L0,16 Z " fill="#5C1F60" transform="translate(453,322)"/>
<path d="M0,0 L3,1 L2,6 L-4,6 L-4,4 L-6,5 L-13,5 L-13,3 L-3,2 L-1,2 Z " fill="#240B2E" transform="translate(416,860)"/>
<path d="M0,0 L15,0 L14,3 L0,3 Z " fill="#5D1A60" transform="translate(391,375)"/>
<path d="M0,0 L5,0 L5,4 L7,4 L8,1 L8,3 L12,4 L13,10 L22,10 L22,11 L12,11 L12,7 L8,7 L8,5 L4,5 L4,1 Z " fill="#43174E" transform="translate(546,721)"/>
<path d="M0,0 L4,2 L3,13 L1,15 L0,14 Z " fill="#5D1E62" transform="translate(371,554)"/>
<path d="M0,0 L1,3 L3,3 L4,0 L7,2 L6,4 L24,4 L24,5 L6,6 L4,8 L4,4 L0,4 Z " fill="#31113C" transform="translate(538,782)"/>
<path d="M0,0 L6,0 L7,1 L7,6 L0,6 Z " fill="#5F1E61" transform="translate(363,547)"/>
<path d="M0,0 L5,0 L5,5 L7,5 L6,9 L4,10 L4,5 L-2,4 Z " fill="#531F60" transform="translate(634,351)"/>
<path d="M0,0 L7,0 L6,3 L3,4 L2,13 L0,13 Z " fill="#5B1D61" transform="translate(387,343)"/>
<path d="M0,0 L1,0 L1,25 L4,24 L4,28 L0,29 Z " fill="#130614" transform="translate(306,668)"/>
<path d="M0,0 L7,0 L8,1 L8,6 L6,6 L6,2 L2,2 L2,6 L4,6 L4,8 L0,8 Z " fill="#611D61" transform="translate(367,437)"/>
<path d="M0,0 L1,0 L1,6 L3,7 L1,9 L-5,9 L-5,7 L-7,7 L-7,11 L-4,12 L-8,12 L-8,6 L0,6 Z " fill="#32113E" transform="translate(498,788)"/>
<path d="M0,0 L5,0 L1,1 L1,9 L-3,12 L-10,12 L-10,10 L-3,9 L-2,7 L0,8 Z " fill="#290E33" transform="translate(349,813)"/>
<path d="M0,0 L2,3 L1,5 L-3,5 L-3,7 L-9,7 L-9,6 L-4,6 L-4,4 L-7,4 L-6,1 Z " fill="#4A1956" transform="translate(583,721)"/>
<path d="M0,0 L5,0 L5,6 L-2,6 L-2,8 L-4,8 L-4,5 L2,4 L2,2 L-1,1 Z " fill="#551D61" transform="translate(588,715)"/>
<path d="M0,0 L1,2 L3,2 L2,11 L10,11 L10,16 L9,12 L1,12 L1,6 L-1,6 L-2,1 Z " fill="#4D164F" transform="translate(397,358)"/>
<path d="M0,0 L6,0 L6,6 L0,6 Z " fill="#3F1443" transform="translate(382,716)"/>
<path d="M0,0 L6,0 L6,6 L0,6 Z " fill="#401644" transform="translate(348,590)"/>
<path d="M0,0 L1,0 L1,8 L10,11 L8,12 L3,11 L2,14 L1,12 L-1,14 Z " fill="#120613" transform="translate(355,582)"/>
<path d="M0,0 L6,0 L6,6 L0,6 Z " fill="#2C0D2E" transform="translate(276,430)"/>
<path d="M0,0 L6,0 L6,6 L0,6 Z " fill="#3F1241" transform="translate(390,366)"/>
<path d="M0,0 L5,1 L6,2 L6,10 L-1,10 L-1,8 L4,8 L4,2 L0,2 Z " fill="#55195B" transform="translate(331,693)"/>
<path d="M0,0 L2,1 L1,5 L0,6 L-1,16 L-9,16 L-9,15 L-2,15 L-3,4 Z " fill="#4B1C51" transform="translate(627,648)"/>
<path d="M0,0 L8,2 L8,4 L16,4 L12,7 L3,4 L0,2 Z " fill="#5B1F60" transform="translate(525,337)"/>
<path d="M0,0 L9,1 L9,2 L2,4 L1,8 L-1,8 L-2,12 L-3,5 L-2,7 L0,7 L-1,1 Z " fill="#4D1A52" transform="translate(609,664)"/>
<path d="M0,0 Z M-8,1 L0,1 L-1,3 L-5,5 L-6,9 L-8,9 Z " fill="#2F1039" transform="translate(335,804)"/>
<path d="M0,0 L4,0 L4,8 L0,8 Z " fill="#641F6F" transform="translate(528,632)"/>
<path d="M0,0 L4,4 L2,16 L1,16 L0,4 L-6,2 L-6,1 Z " fill="#4E1A52" transform="translate(365,590)"/>
<path d="M0,0 L8,0 L8,4 L0,4 Z " fill="#69226E" transform="translate(600,564)"/>
<path d="M0,0 L4,0 L4,8 L0,8 Z " fill="#68216D" transform="translate(604,440)"/>
<path d="M0,0 L8,0 L9,9 L6,9 L7,5 L5,5 L5,3 L7,3 L7,1 L1,1 L0,4 Z " fill="#44154B" transform="translate(410,754)"/>
<path d="M0,0 L2,0 L2,10 L4,10 L4,3 L5,3 L6,10 L7,14 L1,11 Z " fill="#4E1A54" transform="translate(353,673)"/>
<path d="M0,0 L1,0 L1,11 L-2,12 L-2,3 Z " fill="#5C2060" transform="translate(369,594)"/>
<path d="M0,0 L5,1 L6,4 L12,4 L12,10 L11,10 L11,5 L4,6 L1,3 L3,3 L3,1 Z " fill="#461B4D" transform="translate(598,340)"/>
<path d="M0,0 L4,0 L4,6 L2,6 L2,8 L-4,8 L-3,4 L-3,6 L-1,6 L0,3 L1,5 L3,5 L3,1 Z " fill="#3F1243" transform="translate(318,714)"/>
<path d="M0,0 L1,0 L2,14 L1,18 L-1,18 L-1,8 Z " fill="#140615" transform="translate(419,350)"/>
<path d="M0,0 L14,1 L13,3 L0,3 Z " fill="#2C1037" transform="translate(367,842)"/>
<path d="M0,0 L1,4 L-9,5 L-12,8 L-13,3 L-9,2 L0,3 Z " fill="#4F1C51" transform="translate(649,606)"/>
<path d="M0,0 L8,0 L10,2 L9,3 L-1,3 Z " fill="#2B0D35" transform="translate(439,856)"/>
<path d="M0,0 L12,0 L12,2 L2,2 L2,4 L0,4 Z " fill="#401650" transform="translate(533,773)"/>
<path d="M0,0 L7,0 L7,4 L-1,3 Z " fill="#501F59" transform="translate(673,404)"/>
<path d="M0,0 L5,0 L5,8 L3,8 L1,3 L-1,1 Z " fill="#5F1B61" transform="translate(412,359)"/>
<path d="M0,0 L2,0 L2,8 L0,13 L-1,13 L-1,2 Z " fill="#5B1D60" transform="translate(405,342)"/>
<path d="M0,0 L13,1 L12,3 L1,3 L-1,1 Z " fill="#2C0C35" transform="translate(419,858)"/>
<path d="M0,0 L7,1 L9,6 L4,7 L3,4 L0,3 Z " fill="#2B0E36" transform="translate(387,854)"/>
<path d="M0,0 L6,1 L4,2 L4,4 L9,3 L11,6 L9,8 L7,6 L3,5 Z " fill="#4E1954" transform="translate(343,665)"/>
<path d="M0,0 L1,0 L1,8 L-4,7 L-6,4 L-2,4 L-2,2 L0,2 Z " fill="#591E5F" transform="translate(690,434)"/>
<path d="M0,0 L9,0 L9,3 L0,3 Z " fill="#5D2161" transform="translate(640,606)"/>
<path d="M0,0 L4,0 L4,6 L2,7 L0,6 Z " fill="#561957" transform="translate(380,444)"/>
<path d="M0,0 L3,0 L3,2 L7,3 L6,5 L0,5 Z " fill="#5E1A60" transform="translate(399,364)"/>
<path d="M0,0 L4,0 L4,10 L2,10 L2,2 L0,2 Z " fill="#30103B" transform="translate(571,831)"/>
<path d="M0,0 L6,0 L6,4 L0,4 Z " fill="#2F113D" transform="translate(587,815)"/>
<path d="M0,0 L6,0 L6,4 L0,4 Z " fill="#371241" transform="translate(453,813)"/>
<path d="M0,0 L6,0 L6,4 L0,4 Z " fill="#3A1447" transform="translate(591,795)"/>
<path d="M0,0 L5,0 L8,2 L8,4 L6,4 L6,6 L4,6 L4,2 L-1,2 Z " fill="#3F154B" transform="translate(444,793)"/>
<path d="M0,0 L1,3 L3,2 L10,2 L8,5 L0,4 Z " fill="#250C2F" transform="translate(390,858)"/>
<path d="M0,0 L5,0 L4,5 L0,6 Z " fill="#250C2A" transform="translate(372,826)"/>
<path d="M0,0 L1,0 L1,7 L6,7 L6,9 L8,10 L2,10 L2,8 L0,8 Z " fill="#4B154C" transform="translate(374,400)"/>
<path d="M0,0 L5,1 L7,5 L5,5 L4,9 L3,5 L1,3 L3,3 L3,1 Z " fill="#471C52" transform="translate(666,376)"/>
<path d="M0,0 L2,0 L2,5 L9,5 L9,6 L1,6 L-1,5 Z " fill="#561D5A" transform="translate(443,333)"/>
<path d="M0,0 L10,0 L9,2 L0,3 Z " fill="#2F103B" transform="translate(351,827)"/>
<path d="M0,0 L6,1 L6,6 L4,7 L4,4 L1,3 Z " fill="#491652" transform="translate(419,764)"/>
<path d="M0,0 L7,2 L7,4 L0,4 L-1,2 Z " fill="#5A1D60" transform="translate(361,687)"/>
<path d="M0,0 L4,1 L3,6 L2,11 L1,11 Z " fill="#3E1348" transform="translate(383,785)"/>
<path d="M0,0 L4,1 L1,1 L1,3 L6,4 L3,5 L2,7 L0,6 Z " fill="#48164E" transform="translate(406,734)"/>
<path d="M0,0 L3,1 L2,5 L-3,5 Z " fill="#2B0B33" transform="translate(416,860)"/>
<path d="M0,0 L2,2 L2,5 L-4,5 L-4,3 Z " fill="#531C62" transform="translate(543,722)"/>
<path d="M0,0 L9,0 L9,2 L2,3 L0,2 Z " fill="#572162" transform="translate(680,407)"/>
<path d="M0,0 L5,1 L4,5 L-1,5 Z " fill="#592361" transform="translate(610,351)"/>
<path d="M0,0 L4,0 L4,6 L2,5 L2,3 L-1,3 Z " fill="#582261" transform="translate(605,345)"/>
<path d="M0,0 L5,0 L5,5 L3,6 L3,2 L-1,1 Z " fill="#391345" transform="translate(444,809)"/>
<path d="M0,0 L2,0 L2,2 L5,2 L5,5 L0,5 Z " fill="#3C1447" transform="translate(442,798)"/>
<path d="M0,0 L3,2 L3,8 L0,9 Z " fill="#4A1753" transform="translate(407,761)"/>
<path d="M0,0 L2,0 L2,6 L4,7 L0,8 Z " fill="#401140" transform="translate(277,543)"/>
<path d="M0,0 L5,1 L4,4 L0,4 Z " fill="#010001" transform="translate(389,359)"/>
<path d="M0,0 L1,0 L1,5 L3,6 L-1,9 L-1,7 L-3,6 L-1,5 Z " fill="#541E5A" transform="translate(694,496)"/>
<path d="M0,0 L2,4 L4,7 L0,7 L-1,3 Z " fill="#4A1D55" transform="translate(641,356)"/>
<path d="M0,0 L4,1 L3,3 L-3,3 L-3,1 Z " fill="#5B1D61" transform="translate(402,720)"/>
<path d="M0,0 L4,0 L4,4 L0,4 Z " fill="#5C1D62" transform="translate(383,717)"/>
<path d="M0,0 L1,0 L1,6 L-4,9 L-5,6 L0,5 Z " fill="#4A1B50" transform="translate(633,642)"/>
<path d="M0,0 L4,0 L4,4 L0,4 Z " fill="#682171" transform="translate(512,608)"/>
<path d="M0,0 L4,0 L4,4 L0,4 Z " fill="#5D2063" transform="translate(349,591)"/>
<path d="M0,0 L4,0 L4,4 L0,4 Z " fill="#150716" transform="translate(684,442)"/>
<path d="M0,0 L4,0 L4,4 L0,4 Z " fill="#411243" transform="translate(277,431)"/>
<path d="M0,0 L4,0 L4,4 L0,4 Z " fill="#5F1B63" transform="translate(391,367)"/>
<path d="M0,0 L6,0 L5,3 L0,2 Z " fill="#5D1F63" transform="translate(446,339)"/>
<path d="M0,0 L6,0 L5,4 L4,2 L0,2 Z " fill="#581B5D" transform="translate(407,337)"/>
<path d="M0,0 L2,4 L1,7 L-1,7 L-1,1 Z " fill="#2E0F37" transform="translate(384,846)"/>
<path d="M0,0 L5,1 L5,3 L0,3 Z " fill="#5C1F62" transform="translate(612,662)"/>
<path d="M0,0 L3,1 L-1,5 L-2,2 Z " fill="#561D5B" transform="translate(668,584)"/>
<path d="M0,0 L3,0 L4,3 L0,4 Z " fill="#5D1A60" transform="translate(407,370)"/>
<path d="M0,0 L2,0 L1,8 L0,8 L-1,2 Z " fill="#591D5E" transform="translate(383,359)"/>
<path d="M0,0 L4,1 L4,3 L-1,4 Z " fill="#582260" transform="translate(597,340)"/>
<path d="M0,0 L4,0 L4,4 L2,4 L2,2 L0,2 Z " fill="#3A1243" transform="translate(359,797)"/>
<path d="M0,0 L2,0 L2,2 L4,2 L4,4 L0,4 Z " fill="#5D1D63" transform="translate(383,703)"/>
<path d="M0,0 L2,2 L2,7 L1,5 L-1,5 Z " fill="#5C2061" transform="translate(635,634)"/>
<path d="M0,0 L6,0 L3,3 L0,2 Z " fill="#5C2061" transform="translate(684,447)"/>
<path d="M0,0 L4,0 L4,3 L0,2 Z " fill="#0C040E" transform="translate(372,826)"/>
<path d="M0,0 L3,1 L2,3 L-2,4 Z " fill="#541B60" transform="translate(547,718)"/>
<path d="M0,0 L2,0 L1,3 L-3,3 L-3,1 Z " fill="#5B1D62" transform="translate(384,692)"/>
<path d="M0,0 L3,3 L1,5 L-1,1 Z " fill="#541B5A" transform="translate(351,668)"/>
<path d="M0,0 L2,1 L2,3 L-3,3 L-3,1 Z " fill="#5D2061" transform="translate(362,588)"/>
<path d="M0,0 L1,4 L-2,4 L-2,1 Z " fill="#0A030B" transform="translate(309,692)"/>
<path d="M0,0 L3,1 L3,4 L-1,2 Z " fill="#51205E" transform="translate(648,367)"/>
</svg>
