<?xml version="1.0" encoding="UTF-8"?>
<!-- Generator: visioncortex VTracer 0.6.4 -->
<svg version="1.1" xmlns="http://www.w3.org/2000/svg" width="1024" height="1024">
<path d="M0,0 L1024,0 L1024,1024 L0,1024 Z " fill="#000000" transform="translate(0,0)"/>
<path d="M0,0 L22,0 L22,2 L32,2 L32,4 L38,4 L38,6 L46,6 L46,8 L54,8 L58,10 L58,8 L80,8 L82,12 L86,12 L88,17 L92,20 L92,34 L94,34 L96,39 L98,40 L100,45 L102,46 L104,51 L106,52 L106,54 L110,54 L112,59 L116,62 L116,66 L118,66 L120,71 L122,72 L122,76 L128,76 L128,80 L133,81 L134,82 L134,88 L140,88 L140,94 L142,94 L142,100 L144,100 L144,106 L146,106 L146,124 L143,126 L142,136 L138,136 L138,138 L133,140 L132,144 L128,144 L128,148 L123,152 L122,164 L120,164 L120,176 L118,176 L118,182 L116,182 L116,188 L114,188 L114,196 L112,196 L112,202 L110,202 L110,206 L108,206 L108,210 L105,212 L104,216 L102,216 L102,220 L98,220 L98,228 L96,228 L96,234 L94,234 L94,238 L92,238 L92,242 L89,244 L88,248 L80,255 L77,258 L74,258 L74,260 L70,260 L70,262 L62,262 L62,264 L56,264 L56,268 L51,272 L50,276 L45,280 L44,284 L41,286 L40,290 L38,290 L38,296 L35,298 L34,304 L32,304 L32,308 L30,308 L30,312 L28,312 L28,316 L25,318 L24,322 L21,324 L20,328 L18,328 L18,338 L16,338 L16,346 L14,346 L14,352 L10,352 L10,354 L-2,354 L-2,352 L-6,352 L-6,350 L-12,350 L-12,352 L-17,354 L-19,356 L-20,362 L-22,362 L-22,372 L-25,374 L-26,378 L-28,378 L-28,382 L-32,382 L-32,386 L-37,388 L-40,392 L-47,394 L-48,396 L-53,398 L-54,400 L-66,400 L-66,402 L-96,402 L-96,404 L-102,404 L-102,402 L-104,402 L-104,404 L-122,404 L-122,402 L-136,402 L-136,404 L-146,404 L-146,402 L-154,402 L-154,398 L-158,398 L-158,396 L-164,396 L-168,391 L-172,390 L-174,387 L-178,386 L-178,384 L-182,384 L-182,380 L-186,380 L-186,372 L-191,371 L-192,370 L-192,364 L-196,362 L-198,360 L-198,356 L-210,356 L-210,354 L-214,354 L-214,352 L-220,352 L-222,349 L-227,347 L-228,342 L-230,342 L-230,330 L-234,328 L-234,322 L-238,322 L-238,320 L-242,320 L-242,316 L-246,316 L-246,308 L-250,308 L-250,304 L-254,302 L-254,286 L-256,286 L-256,270 L-254,270 L-253,265 L-250,264 L-250,248 L-248,248 L-248,232 L-250,232 L-250,224 L-248,224 L-248,220 L-246,220 L-246,210 L-240,204 L-238,204 L-238,196 L-234,194 L-234,188 L-232,188 L-232,184 L-230,184 L-230,176 L-232,176 L-232,172 L-234,172 L-235,163 L-238,160 L-238,152 L-236,152 L-236,148 L-232,148 L-230,144 L-228,142 L-222,142 L-222,140 L-218,140 L-218,138 L-212,138 L-212,136 L-204,136 L-204,134 L-192,134 L-192,132 L-182,132 L-182,130 L-172,130 L-172,128 L-164,128 L-160,124 L-158,124 L-158,120 L-154,120 L-154,116 L-150,116 L-149,111 L-146,110 L-146,106 L-144,106 L-144,100 L-146,100 L-146,80 L-142,80 L-142,76 L-138,76 L-138,74 L-134,74 L-134,68 L-130,68 L-130,66 L-128,66 L-128,62 L-126,62 L-125,57 L-122,56 L-121,51 L-114,44 L-110,44 L-108,40 L-100,32 L-98,32 L-98,28 L-94,28 L-94,20 L-90,20 L-90,16 L-86,16 L-86,14 L-80,14 L-80,12 L-74,12 L-74,14 L-52,14 L-52,12 L-40,12 L-40,10 L-30,10 L-30,8 L-22,8 L-22,6 L-16,6 L-16,4 L-10,4 L-10,2 L0,2 Z " fill="#9E9FDF" transform="translate(584,314)"/>
<path d="M0,0 L22,0 L22,2 L32,2 L32,4 L38,4 L38,6 L46,6 L46,8 L54,8 L58,10 L58,8 L80,8 L82,12 L86,12 L88,17 L92,20 L92,34 L94,34 L96,39 L98,40 L100,45 L102,46 L104,51 L106,52 L106,54 L110,54 L112,59 L116,62 L116,66 L118,66 L120,71 L122,72 L122,76 L128,76 L128,80 L133,81 L134,82 L134,88 L140,88 L140,94 L142,94 L142,100 L144,100 L144,106 L146,106 L146,124 L143,126 L142,136 L138,136 L138,138 L133,140 L132,144 L128,144 L128,148 L123,152 L122,164 L120,164 L120,176 L119,176 L118,164 L118,153 L119,153 L119,163 L121,163 L120,146 L122,146 L122,144 L125,143 L125,147 L127,147 L126,139 L126,136 L128,133 L135,133 L136,130 L138,130 L139,123 L140,121 L142,121 L142,118 L140,118 L139,102 L138,98 L136,98 L136,95 L131,93 L130,91 L130,84 L126,83 L126,81 L124,81 L126,85 L122,85 L121,87 L119,82 L113,81 L111,78 L113,83 L114,87 L114,91 L111,91 L110,87 L108,86 L109,80 L104,79 L104,74 L106,74 L104,73 L103,65 L102,65 L102,60 L100,60 L100,56 L97,56 L97,52 L91,50 L91,47 L86,47 L85,46 L84,55 L83,53 L81,53 L82,44 L80,44 L80,33 L81,26 L79,20 L76,18 L76,15 L74,16 L64,17 L60,19 L55,19 L49,16 L48,18 L42,17 L32,14 L32,11 L25,12 L24,15 L20,15 L20,17 L15,17 L11,19 L0,18 L-8,18 L-9,12 L-11,12 L-12,14 L-19,18 L-21,17 L-19,14 L-32,19 L-32,14 L-39,15 L-40,18 L-39,22 L-41,25 L-52,24 L-55,25 L-52,26 L-52,28 L-47,29 L-48,35 L-46,35 L-46,37 L-42,36 L-44,42 L-39,43 L-40,45 L-43,46 L-40,48 L-45,50 L-48,47 L-56,47 L-57,46 L-58,49 L-72,51 L-73,48 L-78,49 L-78,47 L-76,46 L-80,47 L-83,52 L-89,54 L-88,50 L-92,51 L-95,51 L-99,53 L-104,58 L-108,59 L-111,63 L-112,73 L-114,75 L-112,79 L-115,84 L-115,92 L-113,99 L-112,109 L-116,113 L-118,119 L-123,124 L-125,125 L-127,120 L-128,118 L-126,118 L-126,109 L-129,117 L-134,120 L-135,120 L-135,114 L-141,114 L-147,120 L-148,128 L-151,130 L-155,140 L-156,145 L-151,144 L-150,147 L-154,148 L-157,147 L-161,148 L-164,151 L-171,151 L-174,151 L-174,149 L-184,148 L-188,152 L-198,151 L-201,151 L-203,150 L-210,151 L-215,152 L-216,154 L-223,156 L-225,159 L-223,159 L-224,162 L-226,164 L-223,171 L-226,178 L-224,178 L-224,183 L-222,184 L-226,188 L-225,197 L-225,199 L-227,199 L-229,197 L-231,201 L-231,207 L-234,206 L-239,211 L-241,215 L-243,221 L-244,258 L-247,266 L-247,270 L-252,271 L-252,286 L-249,287 L-249,300 L-245,305 L-244,306 L-242,308 L-239,315 L-236,316 L-236,318 L-231,318 L-229,323 L-228,330 L-226,330 L-225,341 L-224,344 L-221,344 L-221,346 L-212,348 L-212,350 L-209,350 L-209,352 L-197,352 L-193,358 L-190,361 L-188,364 L-188,368 L-186,368 L-185,370 L-182,372 L-182,377 L-177,379 L-177,382 L-171,382 L-170,386 L-165,388 L-164,389 L-156,390 L-156,394 L-150,394 L-148,395 L-148,398 L-144,398 L-144,400 L-137,400 L-137,398 L-133,396 L-134,394 L-139,392 L-139,390 L-133,390 L-132,388 L-132,390 L-128,391 L-128,394 L-126,395 L-125,390 L-116,386 L-116,388 L-112,387 L-114,382 L-105,381 L-104,378 L-100,379 L-100,382 L-90,381 L-86,380 L-86,382 L-83,380 L-79,380 L-80,385 L-76,385 L-76,383 L-66,384 L-65,382 L-61,382 L-57,380 L-57,376 L-50,374 L-50,376 L-45,373 L-44,370 L-42,368 L-42,364 L-39,364 L-39,370 L-37,370 L-38,380 L-36,380 L-34,374 L-29,373 L-29,371 L-31,371 L-32,366 L-28,364 L-28,360 L-25,358 L-25,354 L-28,355 L-28,353 L-33,355 L-38,359 L-42,358 L-42,353 L-43,352 L-47,359 L-52,360 L-57,365 L-58,362 L-60,362 L-60,357 L-59,354 L-56,354 L-56,350 L-60,351 L-60,349 L-57,346 L-54,342 L-52,343 L-51,348 L-52,351 L-48,350 L-46,342 L-40,342 L-39,340 L-32,340 L-32,344 L-30,344 L-29,342 L-25,344 L-21,340 L-22,343 L-17,344 L-20,348 L-14,348 L-14,346 L-3,346 L-3,348 L8,347 L10,348 L11,339 L12,329 L13,324 L12,317 L9,316 L11,312 L13,312 L13,305 L16,302 L19,296 L22,296 L22,294 L24,294 L24,292 L28,292 L29,288 L35,280 L37,276 L39,276 L40,269 L44,265 L46,260 L48,260 L50,256 L54,253 L66,250 L74,246 L77,246 L78,242 L81,241 L84,231 L86,228 L88,228 L89,224 L91,224 L93,219 L95,219 L95,214 L100,208 L102,203 L105,201 L109,193 L111,189 L111,195 L113,195 L112,181 L115,179 L115,181 L117,181 L117,176 L118,176 L118,182 L116,182 L116,188 L114,188 L114,196 L112,196 L112,202 L110,202 L110,206 L108,206 L108,210 L105,212 L104,216 L102,216 L102,220 L98,220 L98,228 L96,228 L96,234 L94,234 L94,238 L92,238 L92,242 L89,244 L88,248 L80,255 L77,258 L74,258 L74,260 L70,260 L70,262 L62,262 L62,264 L56,264 L56,268 L51,272 L50,276 L45,280 L44,284 L41,286 L40,290 L38,290 L38,296 L35,298 L34,304 L32,304 L32,308 L30,308 L30,312 L28,312 L28,316 L25,318 L24,322 L21,324 L20,328 L18,328 L18,338 L16,338 L16,346 L14,346 L14,352 L10,352 L10,354 L-2,354 L-2,352 L-6,352 L-6,350 L-12,350 L-12,352 L-17,354 L-19,356 L-20,362 L-22,362 L-22,372 L-25,374 L-26,378 L-28,378 L-28,382 L-32,382 L-32,386 L-37,388 L-40,392 L-47,394 L-48,396 L-53,398 L-54,400 L-66,400 L-66,402 L-96,402 L-96,404 L-102,404 L-102,402 L-104,402 L-104,404 L-122,404 L-122,402 L-136,402 L-136,404 L-146,404 L-146,402 L-154,402 L-154,398 L-158,398 L-158,396 L-164,396 L-168,391 L-172,390 L-174,387 L-178,386 L-178,384 L-182,384 L-182,380 L-186,380 L-186,372 L-191,371 L-192,370 L-192,364 L-196,362 L-198,360 L-198,356 L-210,356 L-210,354 L-214,354 L-214,352 L-220,352 L-222,349 L-227,347 L-228,342 L-230,342 L-230,330 L-234,328 L-234,322 L-238,322 L-238,320 L-242,320 L-242,316 L-246,316 L-246,308 L-250,308 L-250,304 L-254,302 L-254,286 L-256,286 L-256,270 L-254,270 L-253,265 L-250,264 L-250,248 L-248,248 L-248,232 L-250,232 L-250,224 L-248,224 L-248,220 L-246,220 L-246,210 L-240,204 L-238,204 L-238,196 L-234,194 L-234,188 L-232,188 L-232,184 L-230,184 L-230,176 L-232,176 L-232,172 L-234,172 L-235,163 L-238,160 L-238,152 L-236,152 L-236,148 L-232,148 L-230,144 L-228,142 L-222,142 L-222,140 L-218,140 L-218,138 L-212,138 L-212,136 L-204,136 L-204,134 L-192,134 L-192,132 L-182,132 L-182,130 L-172,130 L-172,128 L-164,128 L-160,124 L-158,124 L-158,120 L-154,120 L-154,116 L-150,116 L-149,111 L-146,110 L-146,106 L-144,106 L-144,100 L-146,100 L-146,80 L-142,80 L-142,76 L-138,76 L-138,74 L-134,74 L-134,68 L-130,68 L-130,66 L-128,66 L-128,62 L-126,62 L-125,57 L-122,56 L-121,51 L-114,44 L-110,44 L-108,40 L-100,32 L-98,32 L-98,28 L-94,28 L-94,20 L-90,20 L-90,16 L-86,16 L-86,14 L-80,14 L-80,12 L-74,12 L-74,14 L-52,14 L-52,12 L-40,12 L-40,10 L-30,10 L-30,8 L-22,8 L-22,6 L-16,6 L-16,4 L-10,4 L-10,2 L0,2 Z M8,17 Z M-91,46 Z M-92,47 Z M-93,48 Z M-87,48 Z M-88,49 Z M-113,66 Z M-116,76 Z M-117,77 Z M126,80 Z M-198,354 Z M-27,366 L-28,370 L-26,370 Z M-93,54 L-89,54 L-90,58 L-93,59 L-94,55 Z M-150,145 Z M-222,182 Z M-228,199 Z M-74,382 Z " fill="#8585BE" transform="translate(584,314)"/>
<path d="M0,0 L20,0 L22,5 L34,6 L34,8 L50,8 L50,14 L46,14 L46,18 L56,18 L56,24 L48,24 L48,28 L52,28 L52,30 L80,30 L80,28 L60,28 L60,22 L68,22 L68,20 L80,20 L80,18 L88,18 L88,24 L83,26 L82,28 L88,28 L88,40 L83,42 L82,44 L68,44 L68,40 L60,40 L60,36 L48,36 L48,40 L36,40 L36,38 L32,38 L32,36 L28,36 L28,40 L-4,41 L-7,44 L-12,44 L-12,48 L0,48 L0,44 L12,44 L12,48 L20,48 L20,52 L28,52 L28,60 L24,60 L24,68 L4,68 L4,70 L-8,70 L-8,72 L-70,72 L-70,70 L-78,70 L-78,68 L-86,68 L-90,63 L-94,62 L-94,56 L-96,56 L-96,48 L-88,48 L-88,46 L-96,46 L-96,40 L-104,40 L-106,36 L-112,36 L-112,28 L-104,28 L-104,26 L-96,26 L-96,20 L-92,20 L-92,16 L-84,16 L-82,20 L-78,20 L-78,22 L-74,22 L-74,28 L-64,28 L-64,30 L-42,30 L-42,28 L-32,28 L-32,26 L-28,26 L-28,22 L-24,22 L-24,20 L-22,20 L-22,16 L-16,16 L-16,14 L-10,14 L-10,12 L-12,12 L-12,4 L-2,4 Z " fill="#070D27" transform="translate(446,838)"/>
<path d="M0,0 L2,1 L2,5 L0,5 L-1,8 L-7,8 L-7,5 L-11,5 L-11,7 L-21,7 L-21,9 L-12,9 L-12,10 L-19,11 L-20,12 L-32,12 L-43,11 L-43,13 L-32,13 L-32,14 L-40,14 L-40,16 L-44,14 L-51,13 L-51,15 L-44,15 L-48,19 L-53,20 L-54,23 L-56,23 L-56,26 L-60,26 L-60,30 L-65,35 L-63,35 L-64,38 L-66,40 L-63,47 L-66,54 L-64,54 L-64,59 L-62,60 L-66,64 L-65,73 L-65,75 L-67,75 L-69,73 L-71,77 L-71,83 L-74,82 L-79,87 L-81,91 L-83,97 L-84,134 L-87,142 L-87,146 L-92,147 L-92,162 L-89,163 L-89,176 L-85,181 L-84,182 L-82,184 L-79,191 L-76,192 L-76,194 L-71,194 L-69,199 L-68,206 L-66,206 L-65,217 L-64,220 L-61,220 L-61,222 L-52,224 L-52,226 L-49,226 L-49,228 L-37,228 L-33,234 L-30,237 L-28,240 L-28,244 L-26,244 L-25,246 L-22,248 L-22,253 L-17,255 L-17,258 L-11,258 L-10,262 L-5,264 L-4,265 L4,266 L4,270 L10,270 L12,271 L12,274 L16,274 L16,276 L23,276 L23,274 L27,272 L26,270 L21,268 L21,266 L27,266 L28,264 L28,266 L32,267 L32,270 L34,271 L35,266 L44,262 L44,264 L48,263 L46,258 L55,257 L56,254 L60,255 L60,258 L70,257 L74,256 L74,258 L77,256 L81,256 L80,261 L84,261 L84,259 L94,260 L95,258 L99,258 L103,256 L103,252 L110,250 L110,252 L115,249 L116,246 L118,244 L118,240 L121,240 L121,246 L123,246 L122,256 L124,256 L126,250 L131,249 L131,247 L129,247 L128,242 L132,240 L132,236 L135,234 L135,230 L132,231 L132,229 L127,231 L122,235 L118,234 L118,229 L117,228 L113,235 L108,236 L103,241 L102,238 L100,238 L100,233 L101,230 L104,230 L104,226 L100,227 L100,225 L103,222 L106,218 L108,219 L109,224 L108,227 L112,226 L114,218 L120,218 L121,216 L128,216 L128,220 L130,220 L131,218 L135,220 L139,216 L138,219 L143,220 L140,224 L146,224 L146,222 L157,222 L157,224 L168,223 L170,224 L171,215 L172,205 L173,200 L172,193 L169,192 L171,188 L173,188 L173,181 L176,178 L179,172 L182,172 L182,170 L184,170 L184,168 L188,168 L189,164 L195,156 L197,152 L199,152 L200,145 L204,141 L206,136 L208,136 L210,132 L214,129 L226,126 L234,122 L237,122 L238,118 L241,117 L244,107 L246,104 L248,104 L249,100 L251,100 L253,95 L255,95 L255,90 L260,84 L262,79 L265,77 L269,69 L271,65 L271,71 L273,71 L272,57 L275,55 L275,57 L277,57 L277,52 L278,52 L278,58 L276,58 L276,64 L274,64 L274,72 L272,72 L272,78 L270,78 L270,82 L268,82 L268,86 L265,88 L264,92 L262,92 L262,96 L258,96 L258,104 L256,104 L256,110 L254,110 L254,114 L252,114 L252,118 L249,120 L248,124 L240,131 L237,134 L234,134 L234,136 L230,136 L230,138 L222,138 L222,140 L216,140 L216,144 L211,148 L210,152 L205,156 L204,160 L201,162 L200,166 L198,166 L198,172 L195,174 L194,180 L192,180 L192,184 L190,184 L190,188 L188,188 L188,192 L185,194 L184,198 L181,200 L180,204 L178,204 L178,214 L176,214 L176,222 L174,222 L174,228 L170,228 L170,230 L158,230 L158,228 L154,228 L154,226 L148,226 L148,228 L143,230 L141,232 L140,238 L138,238 L138,248 L135,250 L134,254 L132,254 L132,258 L128,258 L128,262 L123,264 L120,268 L113,270 L112,272 L107,274 L106,276 L94,276 L94,278 L64,278 L64,280 L58,280 L58,278 L56,278 L56,280 L38,280 L38,278 L24,278 L24,280 L14,280 L14,278 L6,278 L6,274 L2,274 L2,272 L-4,272 L-8,267 L-12,266 L-14,263 L-18,262 L-18,260 L-22,260 L-22,256 L-26,256 L-26,248 L-31,247 L-32,246 L-32,240 L-36,238 L-38,236 L-38,232 L-50,232 L-50,230 L-54,230 L-54,228 L-60,228 L-62,225 L-67,223 L-68,218 L-70,218 L-70,206 L-74,204 L-74,198 L-78,198 L-78,196 L-82,196 L-82,192 L-86,192 L-86,184 L-90,184 L-90,180 L-94,178 L-94,162 L-96,162 L-96,146 L-94,146 L-93,141 L-90,140 L-90,124 L-88,124 L-88,108 L-90,108 L-90,100 L-88,100 L-88,96 L-86,96 L-86,86 L-80,80 L-78,80 L-78,72 L-74,70 L-74,64 L-72,64 L-72,60 L-70,60 L-70,52 L-72,52 L-72,48 L-74,48 L-75,39 L-78,36 L-78,28 L-76,28 L-76,24 L-72,24 L-70,20 L-68,18 L-62,18 L-62,16 L-58,16 L-58,14 L-52,14 L-52,12 L-44,12 L-44,10 L-32,10 L-32,8 L-22,8 L-22,6 L-12,6 L-12,4 L-4,4 Z M-38,230 Z M133,242 L132,246 L134,246 Z M-62,58 Z M-68,75 Z M86,258 Z " fill="#6A69AA" transform="translate(424,438)"/>
<path d="M0,0 L6,0 L6,2 L12,2 L12,6 L16,7 L16,4 L22,4 L24,7 L28,8 L28,10 L32,10 L32,12 L38,12 L40,15 L48,16 L54,16 L56,19 L64,20 L64,18 L72,18 L76,20 L76,16 L88,16 L88,14 L94,14 L96,17 L102,18 L102,20 L108,20 L108,22 L118,22 L118,34 L116,34 L116,38 L113,40 L112,44 L110,44 L110,46 L104,46 L104,48 L98,48 L98,52 L96,52 L96,56 L94,56 L94,60 L88,60 L88,52 L86,52 L86,58 L84,58 L91,66 L94,68 L94,72 L96,72 L96,80 L104,80 L104,84 L106,84 L106,86 L110,86 L110,94 L112,94 L112,98 L114,98 L114,104 L112,104 L112,110 L114,110 L114,120 L108,120 L108,124 L102,124 L102,122 L100,122 L100,116 L92,116 L92,112 L88,112 L88,108 L84,108 L84,104 L80,104 L80,101 L78,102 L72,102 L68,100 L68,96 L64,96 L64,92 L56,92 L56,76 L52,76 L50,71 L46,70 L46,64 L40,64 L40,52 L36,52 L36,56 L32,56 L32,60 L24,60 L24,46 L30,46 L30,44 L34,44 L34,40 L40,40 L40,34 L36,34 L36,32 L32,32 L32,28 L24,28 L24,26 L17,26 L16,25 L16,20 L12,20 L12,16 L8,16 L8,12 L2,12 L0,10 Z " fill="#0A0929" transform="translate(198,742)"/>
<path d="M0,0 L22,0 L22,2 L32,2 L32,4 L38,4 L38,6 L46,6 L46,8 L54,8 L58,10 L58,8 L80,8 L82,12 L86,12 L88,17 L92,20 L92,34 L94,34 L96,39 L98,40 L100,45 L102,46 L104,51 L106,52 L106,54 L110,54 L112,59 L116,62 L116,66 L118,66 L120,71 L122,72 L122,76 L128,76 L128,80 L133,81 L134,82 L134,88 L140,88 L140,94 L142,94 L142,100 L144,100 L144,106 L146,106 L146,124 L143,126 L142,136 L138,136 L138,138 L133,140 L132,144 L128,144 L128,148 L123,152 L122,164 L120,164 L120,176 L119,176 L118,164 L118,153 L119,153 L119,163 L121,163 L120,146 L122,146 L122,144 L125,143 L125,147 L127,147 L126,139 L126,136 L128,133 L135,133 L136,130 L138,130 L139,123 L140,121 L142,121 L142,118 L140,118 L139,102 L138,98 L136,98 L136,95 L131,93 L130,91 L130,84 L126,83 L126,81 L124,81 L126,85 L122,85 L121,87 L119,82 L113,81 L111,78 L113,83 L114,87 L114,91 L111,91 L110,87 L108,86 L109,80 L104,79 L104,74 L106,74 L104,73 L103,65 L102,65 L102,60 L100,60 L100,56 L97,56 L97,52 L91,50 L91,47 L86,47 L85,46 L84,55 L83,53 L81,53 L82,44 L80,44 L80,33 L81,26 L79,20 L76,18 L76,15 L74,16 L64,17 L60,19 L55,19 L49,16 L48,18 L42,17 L32,14 L32,11 L25,12 L24,15 L20,15 L20,17 L15,17 L11,19 L0,18 L-8,18 L-9,12 L-11,12 L-12,14 L-19,18 L-21,17 L-19,14 L-32,19 L-32,14 L-51,13 L-51,15 L-74,15 L-74,18 L-85,19 L-88,21 L-89,25 L-89,28 L-91,28 L-91,21 L-93,21 L-93,28 L-94,28 L-94,20 L-90,20 L-90,16 L-86,16 L-86,14 L-80,14 L-80,12 L-74,12 L-74,14 L-52,14 L-52,12 L-40,12 L-40,10 L-30,10 L-30,8 L-22,8 L-22,6 L-16,6 L-16,4 L-10,4 L-10,2 L0,2 Z M8,17 Z M126,80 Z " fill="#7E7FB9" transform="translate(584,314)"/>
<path d="M0,0 L1,0 L1,6 L-1,6 L-1,12 L-3,12 L-3,20 L-5,20 L-5,26 L-7,26 L-7,30 L-9,30 L-9,34 L-12,36 L-13,40 L-15,40 L-15,44 L-19,44 L-19,52 L-21,52 L-21,58 L-23,58 L-23,62 L-25,62 L-25,66 L-28,68 L-29,72 L-37,79 L-40,82 L-43,82 L-43,84 L-47,84 L-47,86 L-55,86 L-55,88 L-61,88 L-61,92 L-66,96 L-67,100 L-72,104 L-73,108 L-76,110 L-77,114 L-79,114 L-79,120 L-82,122 L-83,128 L-85,128 L-85,132 L-87,132 L-87,136 L-89,136 L-89,140 L-92,142 L-93,146 L-96,148 L-97,152 L-99,152 L-99,162 L-101,162 L-101,170 L-103,170 L-103,176 L-107,176 L-107,178 L-119,178 L-119,176 L-123,176 L-123,174 L-129,174 L-129,176 L-134,178 L-138,179 L-138,177 L-145,179 L-145,177 L-150,179 L-155,183 L-159,182 L-159,177 L-160,176 L-164,183 L-169,184 L-174,189 L-175,186 L-177,186 L-177,181 L-176,178 L-173,178 L-173,174 L-177,175 L-177,173 L-174,170 L-171,166 L-169,167 L-168,172 L-169,175 L-165,174 L-163,166 L-157,166 L-156,164 L-149,164 L-149,168 L-147,168 L-146,166 L-142,168 L-138,164 L-139,167 L-134,168 L-137,172 L-131,172 L-131,170 L-120,170 L-120,172 L-109,171 L-107,172 L-106,163 L-105,153 L-104,148 L-105,141 L-108,140 L-106,136 L-104,136 L-104,129 L-101,126 L-98,120 L-95,120 L-95,118 L-93,118 L-93,116 L-89,116 L-88,112 L-82,104 L-80,100 L-78,100 L-77,93 L-73,89 L-71,84 L-69,84 L-67,80 L-63,77 L-51,74 L-43,70 L-40,70 L-39,66 L-36,65 L-33,55 L-31,52 L-29,52 L-28,48 L-26,48 L-24,43 L-22,43 L-22,38 L-17,32 L-15,27 L-12,25 L-8,17 L-6,13 L-6,19 L-4,19 L-5,5 L-2,3 L-2,5 L0,5 Z " fill="#8B8BBF" transform="translate(701,490)"/>
<path d="M0,0 L2,0 L2,5 L0,8 L2,8 L2,15 L6,16 L7,19 L7,22 L8,28 L8,32 L6,32 L5,29 L3,29 L3,31 L1,31 L2,37 L2,48 L0,49 L0,61 L-2,61 L-2,66 L-6,66 L-6,80 L-8,80 L-9,78 L-14,87 L-17,89 L-20,96 L-22,96 L-24,104 L-27,107 L-28,109 L-30,109 L-31,113 L-33,113 L-36,123 L-41,128 L-42,131 L-55,137 L-67,140 L-71,145 L-73,145 L-75,151 L-78,154 L-80,161 L-82,161 L-84,167 L-90,174 L-91,177 L-95,177 L-95,179 L-97,179 L-97,181 L-100,181 L-102,187 L-105,190 L-107,190 L-108,183 L-106,183 L-106,179 L-111,180 L-111,178 L-109,178 L-109,175 L-107,175 L-105,170 L-107,170 L-107,168 L-103,165 L-101,165 L-99,161 L-95,159 L-89,158 L-85,147 L-82,145 L-78,145 L-77,139 L-75,139 L-73,135 L-71,131 L-68,130 L-58,131 L-56,127 L-51,126 L-51,115 L-42,115 L-42,111 L-44,110 L-44,107 L-42,107 L-42,103 L-39,103 L-38,98 L-33,93 L-31,93 L-29,89 L-27,89 L-25,85 L-20,77 L-18,77 L-15,67 L-14,66 L-10,35 L-9,28 L-10,26 L-9,18 L-9,14 L-7,14 L-7,3 L-1,3 Z M-104,168 Z M6,13 L8,14 L6,15 Z " fill="#9596CB" transform="translate(703,429)"/>
<path d="M0,0 L2,0 L2,2 L4,3 L3,9 L1,9 L1,19 L-2,21 L-3,25 L-5,25 L-5,29 L-9,29 L-9,33 L-14,35 L-17,39 L-24,41 L-25,43 L-30,45 L-31,47 L-43,47 L-43,49 L-73,49 L-73,51 L-79,51 L-79,49 L-81,49 L-81,51 L-99,51 L-99,48 L-113,48 L-111,44 L-111,41 L-116,39 L-116,37 L-110,37 L-109,35 L-109,37 L-105,38 L-105,41 L-103,42 L-102,37 L-93,33 L-93,35 L-89,34 L-91,29 L-82,28 L-81,25 L-77,26 L-77,29 L-67,28 L-63,27 L-63,29 L-60,27 L-56,27 L-57,32 L-53,32 L-53,30 L-43,31 L-42,29 L-38,29 L-34,27 L-34,23 L-27,21 L-27,23 L-22,20 L-21,17 L-19,15 L-19,11 L-16,11 L-16,17 L-14,17 L-15,27 L-13,27 L-11,21 L-6,20 L-6,18 L-8,18 L-9,13 L-5,11 L-5,7 L-2,5 Z M-4,13 L-5,17 L-3,17 Z M-51,29 Z " fill="#7470C7" transform="translate(561,667)"/>
<path d="M0,0 L10,0 L10,4 L14,4 L14,10 L12,10 L12,20 L10,20 L10,22 L6,22 L6,26 L-4,26 L-4,24 L-14,24 L-16,20 L-20,20 L-20,18 L-28,18 L-28,22 L-32,22 L-32,26 L-36,26 L-36,28 L-38,28 L-38,30 L-40,30 L-40,32 L-42,32 L-42,34 L-44,34 L-44,36 L-50,36 L-50,40 L-52,40 L-52,44 L-58,44 L-58,46 L-60,46 L-60,48 L-76,48 L-76,34 L-72,34 L-72,24 L-68,24 L-68,20 L-64,20 L-62,16 L-58,16 L-58,14 L-54,14 L-54,12 L-40,12 L-40,10 L-36,10 L-36,8 L-24,8 L-24,4 L0,4 Z " fill="#080927" transform="translate(418,238)"/>
<path d="M0,0 L6,0 L8,3 L8,6 L10,6 L11,16 L14,18 L14,16 L22,16 L22,20 L30,20 L30,22 L35,23 L36,24 L36,32 L38,32 L38,40 L40,40 L40,56 L42,56 L42,62 L44,62 L44,78 L46,78 L46,90 L48,90 L48,96 L50,96 L50,106 L44,106 L44,104 L39,103 L38,98 L36,98 L36,94 L34,94 L34,90 L32,90 L32,86 L30,86 L30,66 L28,66 L28,56 L26,56 L23,51 L20,48 L20,44 L17,44 L14,39 L10,36 L10,32 L6,32 L6,28 L4,28 L2,23 L-2,20 L-2,4 L0,4 Z " fill="#0C0727" transform="translate(766,304)"/>
<path d="M0,0 L2,1 L1,3 L-1,3 L1,7 L0,15 L-3,17 L-5,23 L-7,28 L-8,50 L-8,56 L-9,57 L-17,58 L-23,64 L-24,72 L-27,74 L-31,84 L-32,89 L-27,88 L-26,91 L-30,92 L-33,91 L-37,92 L-40,95 L-47,95 L-50,95 L-50,93 L-60,92 L-64,96 L-74,95 L-77,95 L-79,94 L-86,95 L-91,96 L-92,98 L-96,98 L-96,94 L-92,94 L-92,91 L-89,88 L-84,87 L-83,84 L-87,83 L-87,81 L-80,81 L-76,84 L-76,82 L-79,81 L-79,79 L-56,79 L-55,78 L-57,77 L-57,75 L-47,75 L-47,73 L-43,73 L-42,75 L-37,75 L-36,73 L-34,73 L-35,69 L-34,64 L-30,64 L-30,60 L-26,60 L-25,55 L-22,54 L-22,50 L-20,50 L-20,44 L-22,44 L-22,24 L-18,24 L-18,20 L-14,20 L-14,18 L-10,18 L-10,12 L-6,12 L-6,10 L-4,10 L-4,6 L-2,6 L-1,1 Z M-26,89 Z M-97,98 Z " fill="#7F81B9" transform="translate(460,370)"/>
<path d="M0,0 L8,0 L8,4 L10,4 L10,20 L12,20 L12,28 L10,28 L10,54 L8,54 L8,56 L10,56 L10,64 L8,64 L8,74 L6,74 L6,84 L2,84 L2,90 L-2,90 L-2,96 L-5,98 L-6,102 L-12,102 L-12,68 L-8,66 L-7,29 L-4,29 L-4,20 L0,20 L-2,16 L-2,8 L0,8 Z " fill="#0A0927" transform="translate(214,498)"/>
<path d="M0,0 L22,0 L21,6 L23,6 L23,8 L27,7 L25,13 L30,14 L29,16 L26,17 L29,19 L24,21 L21,18 L13,18 L12,17 L11,20 L-3,22 L-4,19 L-9,20 L-9,18 L-7,17 L-11,18 L-14,23 L-20,25 L-19,21 L-23,22 L-26,22 L-30,24 L-35,29 L-39,30 L-42,34 L-43,44 L-45,46 L-43,50 L-46,55 L-46,63 L-44,70 L-43,80 L-47,84 L-49,90 L-54,95 L-56,96 L-58,91 L-59,89 L-57,89 L-56,53 L-54,45 L-51,43 L-49,38 L-46,32 L-43,31 L-39,23 L-34,22 L-33,20 L-28,17 L-25,16 L-25,14 L-18,13 L-17,10 L-14,11 L-14,12 L-7,12 L-7,8 L-9,6 L-7,6 L-7,3 Z M-22,17 Z M-23,18 Z M-24,19 Z M-18,19 Z M-19,20 Z M-44,37 Z M-47,47 Z M-48,48 Z M-15,9 Z M-24,25 L-20,25 L-21,29 L-24,30 L-25,26 Z " fill="#9091C7" transform="translate(515,343)"/>
<path d="M0,0 L2,0 L2,2 L5,3 L5,5 L8,5 L8,11 L12,10 L13,6 L15,6 L15,20 L17,20 L17,22 L14,22 L14,27 L18,28 L19,26 L21,26 L21,34 L23,34 L23,32 L25,32 L24,36 L30,37 L30,39 L34,39 L36,44 L40,47 L40,51 L42,51 L44,56 L46,57 L46,61 L52,61 L52,65 L57,66 L58,67 L58,73 L64,73 L64,79 L66,79 L66,85 L68,85 L68,91 L70,91 L70,109 L67,111 L66,121 L62,121 L62,123 L57,125 L56,129 L52,129 L52,133 L47,137 L46,149 L44,149 L44,161 L43,161 L42,149 L42,138 L43,138 L43,148 L45,148 L44,131 L46,131 L46,129 L49,128 L49,132 L51,132 L50,124 L50,121 L52,118 L59,118 L60,115 L62,115 L63,108 L64,106 L66,106 L66,103 L64,103 L63,87 L62,83 L60,83 L60,80 L55,78 L54,76 L54,69 L50,68 L50,66 L48,66 L50,70 L46,70 L45,72 L43,67 L37,66 L35,63 L37,68 L38,72 L38,76 L35,76 L34,72 L32,71 L33,65 L28,64 L28,59 L30,59 L28,58 L27,50 L26,50 L26,45 L24,45 L24,41 L21,41 L21,37 L15,35 L15,32 L10,32 L9,31 L8,40 L7,38 L5,38 L6,29 L4,29 L4,18 L5,11 L3,5 L0,3 Z M50,65 Z " fill="#8989BB" transform="translate(660,329)"/>
<path d="M0,0 L11,0 L22,10 L22,12 L26,13 L26,17 L33,18 L35,20 L37,25 L45,28 L49,30 L49,40 L45,40 L45,42 L31,42 L31,40 L25,40 L25,38 L21,38 L21,36 L16,35 L13,32 L13,28 L11,28 L11,22 L9,22 L9,18 L7,18 L5,13 L1,10 L1,6 L-1,6 L-1,1 Z " fill="#080828" transform="translate(701,242)"/>
<path d="M0,0 L1,4 L-1,7 L-3,7 L-5,15 L-8,18 L-9,20 L-11,20 L-12,24 L-14,24 L-17,34 L-22,39 L-23,42 L-36,48 L-48,51 L-52,56 L-54,56 L-56,62 L-59,65 L-61,72 L-63,72 L-65,78 L-71,85 L-72,88 L-76,88 L-76,90 L-78,90 L-78,92 L-81,92 L-83,98 L-86,101 L-88,101 L-89,94 L-87,94 L-87,90 L-92,91 L-92,89 L-90,89 L-90,86 L-88,86 L-86,81 L-88,81 L-88,79 L-84,76 L-82,76 L-80,72 L-76,70 L-70,69 L-66,58 L-63,56 L-59,56 L-58,50 L-56,50 L-54,46 L-52,42 L-49,41 L-45,42 L-37,42 L-29,38 L-23,35 L-22,26 L-20,26 L-19,20 L-16,20 L-15,15 L-12,16 L-10,12 L-6,8 L-4,8 L-2,4 Z M-85,79 Z M-14,14 Z " fill="#8F8FC6" transform="translate(684,518)"/>
<path d="M0,0 L6,0 L8,5 L12,6 L12,8 L20,8 L24,12 L24,40 L22,40 L22,42 L20,42 L20,44 L12,44 L12,36 L4,36 L4,30 L0,30 L0,24 L-4,24 L-4,8 L0,8 Z " fill="#0B0D2B" transform="translate(210,662)"/>
<path d="M0,0 L1,0 L1,6 L-1,6 L-1,12 L-3,12 L-3,20 L-5,20 L-5,26 L-7,26 L-7,30 L-9,30 L-9,34 L-12,36 L-13,40 L-15,40 L-15,44 L-19,44 L-19,52 L-21,52 L-21,58 L-23,58 L-23,62 L-25,62 L-25,66 L-28,68 L-29,72 L-37,79 L-40,82 L-43,82 L-43,84 L-47,84 L-47,86 L-55,86 L-55,88 L-61,88 L-61,92 L-66,96 L-67,100 L-72,103 L-72,101 L-74,101 L-72,91 L-70,91 L-68,86 L-66,86 L-64,80 L-53,78 L-47,74 L-41,73 L-41,71 L-38,70 L-34,66 L-31,57 L-29,56 L-28,48 L-26,48 L-24,43 L-22,43 L-22,38 L-17,32 L-15,27 L-12,25 L-8,17 L-6,13 L-6,19 L-4,19 L-5,5 L-2,3 L-2,5 L0,5 Z " fill="#8585BA" transform="translate(701,490)"/>
<path d="M0,0 L2,4 L2,26 L4,26 L6,21 L9,21 L9,18 L11,19 L13,25 L13,30 L11,35 L10,41 L8,41 L7,45 L5,45 L4,49 L1,49 L0,54 L-3,60 L-5,62 L-10,62 L-10,64 L-15,65 L-27,65 L-27,63 L-36,63 L-36,61 L-31,59 L-28,59 L-28,61 L-26,61 L-26,63 L-21,64 L-20,59 L-13,58 L-12,53 L-9,49 L-11,46 L-5,43 L-4,40 L-6,40 L-5,30 L-7,33 L-7,20 L-6,9 L-3,10 L-2,15 Z " fill="#B2B1EA" transform="translate(667,459)"/>
<path d="M0,0 L2,0 L2,2 L4,3 L3,9 L1,9 L1,19 L-2,21 L-3,25 L-5,25 L-5,29 L-9,29 L-9,33 L-14,35 L-17,39 L-24,41 L-25,43 L-30,45 L-31,47 L-43,47 L-43,49 L-73,49 L-73,51 L-79,51 L-79,49 L-81,49 L-81,51 L-99,51 L-99,50 L-82,50 L-82,48 L-85,47 L-79,46 L-78,42 L-55,43 L-35,43 L-35,39 L-33,39 L-33,37 L-30,36 L-27,33 L-25,33 L-25,30 L-23,30 L-23,28 L-18,27 L-16,25 L-15,27 L-13,27 L-11,21 L-6,20 L-6,18 L-8,18 L-9,13 L-5,11 L-5,7 L-2,5 Z M-4,13 L-5,17 L-3,17 Z " fill="#6A67B2" transform="translate(561,667)"/>
<path d="M0,0 L6,0 L8,3 L14,4 L14,6 L20,6 L20,8 L30,8 L30,20 L28,20 L28,24 L25,26 L24,30 L22,30 L22,32 L16,32 L16,34 L10,34 L10,37 L7,37 L7,35 L9,35 L9,33 L11,31 L13,27 L16,28 L16,25 L5,25 L3,24 L3,22 L1,21 L2,17 L1,12 L3,11 L1,8 L1,5 L-6,6 L-11,6 L-11,3 L-1,2 Z " fill="#111142" transform="translate(286,756)"/>
<path d="M0,0 L5,0 L1,2 Z M0,2 Z M-1,3 L-1,6 Z M-3,6 L-2,8 L-3,10 L-10,11 L-10,13 L-15,17 L-18,17 L-19,20 L-24,22 L-28,29 L-31,30 L-33,35 L-36,41 L-39,42 L-40,50 L-41,76 L-43,78 L-45,85 L-50,88 L-51,88 L-51,82 L-49,80 L-49,66 L-48,52 L-45,46 L-43,40 L-40,39 L-40,31 L-41,27 L-39,27 L-37,21 L-35,21 L-35,23 L-30,19 L-28,15 L-28,13 L-25,13 L-25,11 L-11,10 L-6,7 Z " fill="#8A8BBF" transform="translate(500,346)"/>
<path d="M0,0 L2,1 L1,3 L-1,3 L1,7 L0,15 L-3,17 L-5,23 L-7,28 L-8,50 L-8,56 L-9,57 L-22,59 L-23,55 L-22,50 L-20,50 L-20,44 L-22,44 L-22,24 L-18,24 L-18,20 L-14,20 L-14,18 L-10,18 L-10,12 L-6,12 L-6,10 L-4,10 L-4,6 L-2,6 L-1,1 Z " fill="#8082B9" transform="translate(460,370)"/>
<path d="M0,0 L2,0 L2,5 L0,8 L2,8 L2,15 L3,20 L1,25 L-1,25 L-3,32 L-4,45 L-5,46 L-6,56 L-9,58 L-13,75 L-18,85 L-20,85 L-21,88 L-27,92 L-29,95 L-31,95 L-33,99 L-35,100 L-39,107 L-42,111 L-44,110 L-44,107 L-42,107 L-42,103 L-39,103 L-38,98 L-33,93 L-31,93 L-29,89 L-27,89 L-25,85 L-20,77 L-18,77 L-15,67 L-14,66 L-10,35 L-9,28 L-10,26 L-9,18 L-9,14 L-7,14 L-7,3 L-1,3 Z " fill="#9B99C8" transform="translate(703,429)"/>
<path d="M0,0 L1,4 L-3,11 L-8,11 L-8,13 L-10,13 L-10,16 L-14,17 L-15,20 L-18,20 L-18,22 L-20,22 L-20,26 L-41,27 L-63,26 L-64,29 L-67,31 L-67,33 L-84,33 L-84,31 L-98,31 L-96,27 L-96,24 L-101,22 L-101,20 L-95,20 L-94,18 L-94,20 L-90,21 L-90,24 L-78,22 L-74,23 L-52,23 L-32,20 L-22,17 L-18,17 L-18,14 L-12,14 L-10,9 L-8,7 L-3,5 Z " fill="#706DC1" transform="translate(546,684)"/>
<path d="M0,0 L1,0 L3,6 L5,7 L5,19 L7,19 L7,8 L8,8 L9,19 L10,22 L13,22 L13,24 L22,26 L22,28 L25,28 L25,30 L37,30 L41,36 L44,39 L46,42 L46,46 L48,46 L49,48 L52,50 L52,55 L57,57 L57,60 L63,60 L64,64 L69,66 L70,67 L78,68 L78,72 L84,72 L86,73 L86,76 L90,76 L90,78 L97,78 L97,76 L99,77 L98,79 L112,79 L112,80 L98,80 L98,82 L88,82 L88,80 L80,80 L80,76 L76,76 L76,74 L70,74 L66,69 L62,68 L60,65 L56,64 L56,62 L52,62 L52,58 L48,58 L48,50 L43,49 L42,48 L42,42 L38,40 L36,38 L36,34 L24,34 L24,32 L20,32 L20,30 L14,30 L12,27 L7,25 L6,20 L4,20 L4,8 L0,6 Z M36,32 Z " fill="#565895" transform="translate(350,636)"/>
<path d="M0,0 L2,4 L5,6 L5,10 L11,10 L11,14 L16,15 L17,16 L17,22 L23,22 L23,28 L25,28 L25,34 L27,34 L27,40 L29,40 L29,58 L26,60 L25,70 L21,70 L21,72 L16,74 L15,78 L11,78 L11,82 L6,86 L5,98 L3,98 L3,110 L2,110 L1,98 L1,87 L2,87 L2,97 L4,97 L3,80 L5,80 L5,78 L8,77 L8,81 L10,81 L9,73 L9,70 L11,67 L18,67 L19,64 L21,64 L22,57 L23,55 L25,55 L25,52 L23,52 L22,36 L21,32 L19,32 L19,29 L14,27 L13,25 L13,18 L9,17 L9,15 L4,13 L1,12 L1,9 L-1,9 Z M9,14 Z " fill="#7C7AA8" transform="translate(701,380)"/>
<path d="M0,0 L4,2 L1,29 L0,36 L-5,47 L-7,47 L-9,53 L-14,59 L-18,63 L-20,63 L-22,67 L-25,69 L-26,73 L-35,76 L-38,78 L-39,73 L-35,73 L-34,70 L-29,67 L-24,64 L-23,57 L-18,54 L-17,49 L-15,49 L-14,45 L-12,41 L-10,40 L-9,37 L-7,37 L-7,17 L-6,15 L-6,9 L-4,9 L-3,3 L-1,3 Z " fill="#A0A0D4" transform="translate(690,459)"/>
<path d="M0,0 L10,0 L10,2 L16,2 L16,4 L24,4 L24,6 L32,6 L36,8 L36,6 L58,6 L60,10 L64,10 L66,15 L70,18 L70,32 L72,32 L74,37 L76,38 L78,43 L80,44 L81,49 L78,49 L79,45 L77,45 L77,47 L75,47 L74,41 L75,39 L73,39 L72,43 L72,41 L68,40 L68,35 L71,35 L71,33 L68,34 L68,21 L69,19 L67,19 L67,32 L66,32 L65,25 L62,24 L61,20 L62,18 L59,18 L56,15 L56,13 L23,12 L17,10 L4,6 L4,4 L0,3 L9,3 L9,1 L0,1 Z " fill="#8081B9" transform="translate(606,316)"/>
<path d="M0,0 L8,0 L8,4 L10,4 L11,2 L15,4 L19,0 L18,3 L23,4 L21,6 L21,15 L19,15 L19,13 L12,15 L12,13 L7,15 L2,19 L-2,18 L-2,13 L-3,12 L-7,19 L-12,20 L-17,25 L-18,22 L-20,22 L-20,17 L-19,14 L-16,14 L-16,10 L-20,11 L-20,9 L-17,6 L-14,2 L-12,3 L-11,8 L-12,11 L-8,10 L-6,2 L0,2 Z " fill="#807DCF" transform="translate(544,654)"/>
<path d="M0,0 L2,0 L3,5 L5,5 L5,16 L4,18 L4,29 L3,37 L1,37 L0,41 L-2,41 L-4,46 L-5,49 L-7,49 L-7,54 L-10,57 L-13,57 L-13,64 L-21,70 L-24,71 L-25,73 L-32,72 L-32,70 L-37,71 L-39,73 L-42,73 L-42,69 L-49,71 L-52,74 L-52,70 L-56,69 L-55,66 L-52,66 L-52,68 L-40,66 L-40,65 L-23,64 L-23,62 L-17,60 L-14,54 L-12,49 L-9,49 L-8,45 L-6,44 L-5,41 L-3,41 L-3,34 L0,25 L-2,24 L0,14 Z " fill="#A9A8DE" transform="translate(680,459)"/>
<path d="M0,0 L1,4 L-1,4 L-1,8 L-3,8 L-3,12 L-6,14 L-7,18 L-10,20 L-11,24 L-13,24 L-13,34 L-15,34 L-15,42 L-17,42 L-17,48 L-21,48 L-21,50 L-33,50 L-33,48 L-37,48 L-37,46 L-43,46 L-43,48 L-48,50 L-51,50 L-51,44 L-45,44 L-45,42 L-34,42 L-34,44 L-23,43 L-21,44 L-20,35 L-19,25 L-18,20 L-17,14 L-13,14 L-13,12 L-9,11 L-8,6 L-6,8 L-6,11 L-4,11 L-5,9 L-5,3 L-2,1 L-2,3 L0,3 Z " fill="#7677B8" transform="translate(615,618)"/>
<path d="M0,0 L1,2 L8,3 L8,7 L13,6 L14,9 L17,10 L17,14 L22,15 L22,10 L26,11 L26,25 L24,25 L23,28 L11,28 L11,32 L7,32 L7,36 L-1,36 L-1,22 L5,22 L5,20 L9,20 L9,16 L15,16 L15,10 L11,10 L11,8 L7,8 L7,4 L-1,4 L-1,2 L-8,2 L-8,1 Z M16,14 Z " fill="#070421" transform="translate(223,766)"/>
<path d="M0,0 L2,1 L-1,8 L-2,13 L3,12 L4,15 L0,16 L-3,15 L-7,16 L-10,19 L-17,19 L-20,19 L-20,17 L-30,16 L-34,20 L-44,19 L-46,16 L-40,12 L-33,10 L-31,7 L-24,6 L-21,6 L-17,7 L-12,8 L-9,6 L-4,6 L-3,2 Z M4,13 Z " fill="#8484C2" transform="translate(430,446)"/>
<path d="M0,0 L8,0 L8,6 L10,6 L10,14 L12,14 L12,4 L18,4 L18,14 L16,14 L16,20 L12,24 L10,24 L10,26 L6,26 L6,28 L0,28 L0,24 L-4,24 L-4,16 L-2,12 L-2,6 L0,6 Z " fill="#0A0C28" transform="translate(338,302)"/>
<path d="M0,0 L29,0 L42,3 L43,4 L73,5 L72,7 L62,8 L58,10 L53,10 L47,7 L46,9 L40,8 L30,5 L30,2 L23,3 L22,6 L18,6 L18,8 L13,8 L9,10 L-2,9 L-10,9 L-10,2 Z M6,8 Z " fill="#8585BE" transform="translate(586,323)"/>
<path d="M0,0 L6,0 L6,2 L10,2 L10,18 L8,18 L8,20 L6,20 L6,22 L2,26 L4,26 L4,32 L-4,32 L-4,20 L-6,20 L-6,8 L-4,8 L-3,3 Z " fill="#080A23" transform="translate(616,750)"/>
<path d="M0,0 L3,1 L-1,6 L-3,6 L-4,12 L-10,14 L-14,25 L-17,27 L-23,27 L-27,32 L-31,35 L-33,35 L-33,38 L-38,40 L-42,40 L-45,37 L-45,35 L-50,37 L-55,38 L-55,36 L-51,34 L-41,33 L-40,30 L-32,30 L-30,25 L-27,23 L-24,18 L-17,19 L-17,13 L-11,11 L-9,11 L-9,5 L-3,2 L0,2 Z " fill="#9798CE" transform="translate(629,562)"/>
<path d="M0,0 L1,0 L1,6 L-1,6 L-1,12 L-3,12 L-3,20 L-5,20 L-5,26 L-7,26 L-7,30 L-9,30 L-9,34 L-12,36 L-13,40 L-15,40 L-15,44 L-19,44 L-19,52 L-21,52 L-21,58 L-23,58 L-23,62 L-25,62 L-26,66 L-27,61 L-24,61 L-26,57 L-30,60 L-32,65 L-33,62 L-31,57 L-29,56 L-28,48 L-26,48 L-24,43 L-22,43 L-22,38 L-17,32 L-15,27 L-12,25 L-8,17 L-6,13 L-6,19 L-4,19 L-5,5 L-2,3 L-2,5 L0,5 Z " fill="#8989BA" transform="translate(701,490)"/>
<path d="M0,0 L8,0 L8,4 L12,4 L12,24 L10,24 L10,36 L4,36 L4,28 L0,28 Z " fill="#090823" transform="translate(214,458)"/>
<path d="M0,0 L2,1 L0,2 Z M-3,2 L0,3 L1,6 L1,9 L2,15 L2,19 L0,19 L-1,16 L-3,16 L-3,18 L-5,18 L-4,24 L-4,35 L-6,36 L-6,48 L-8,48 L-8,53 L-12,53 L-12,67 L-14,67 L-15,65 L-20,74 L-21,72 L-17,59 L-15,52 L-13,43 L-12,33 L-11,32 L-10,19 L-7,12 L-5,12 L-4,3 Z " fill="#9592BC" transform="translate(709,442)"/>
<path d="M0,0 L1,0 L1,6 L4,7 L1,10 L0,14 L-8,17 L-9,23 L-11,23 L-12,25 L-16,25 L-17,31 L-24,31 L-27,36 L-32,38 L-34,35 L-31,34 L-32,27 L-29,27 L-28,24 L-27,22 L-25,22 L-25,19 L-22,18 L-21,13 L-10,14 L-6,12 L-5,6 L-3,6 L-2,4 Z M0,6 Z " fill="#9DA0D3" transform="translate(629,550)"/>
<path d="M0,0 L22,0 L21,6 L23,6 L23,8 L27,7 L24,13 L11,14 L11,12 L-5,12 L-7,11 L-7,8 L-9,6 L-7,6 L-7,3 Z " fill="#9191C7" transform="translate(515,343)"/>
<path d="M0,0 L2,1 L1,3 L-1,3 L-3,9 L-5,10 L-2,1 Z M-6,10 Z M-8,11 L-6,12 L-8,19 L-10,19 L-12,25 L-18,32 L-19,35 L-23,35 L-23,37 L-25,37 L-25,39 L-28,39 L-30,45 L-33,48 L-35,48 L-36,41 L-34,41 L-34,37 L-39,38 L-39,36 L-33,32 L-28,27 L-23,26 L-22,23 L-20,23 L-18,19 L-9,16 Z " fill="#8D8EC4" transform="translate(631,571)"/>
<path d="M0,0 L2,1 L2,5 L0,5 L-1,8 L-7,8 L-7,5 L-11,5 L-11,7 L-21,7 L-21,9 L-12,9 L-12,10 L-19,11 L-20,12 L-32,12 L-43,11 L-43,13 L-32,13 L-32,14 L-40,14 L-40,16 L-44,14 L-51,13 L-51,15 L-44,15 L-48,19 L-53,20 L-54,23 L-56,23 L-56,26 L-60,26 L-60,30 L-65,35 L-63,35 L-64,38 L-67,39 L-68,32 L-65,27 L-63,22 L-67,21 L-67,19 L-61,19 L-61,17 L-58,17 L-58,14 L-52,14 L-52,12 L-44,12 L-44,10 L-32,10 L-32,8 L-22,8 L-22,6 L-12,6 L-12,4 L-4,4 Z " fill="#7371BF" transform="translate(424,438)"/>
<path d="M0,0 L5,1 L4,6 L1,8 L0,12 L-2,12 L-2,18 L-5,20 L-6,26 L-9,26 L-9,29 L-13,29 L-13,37 L-15,37 L-17,34 L-18,37 L-22,38 L-22,40 L-26,40 L-27,42 L-28,38 L-24,37 L-22,32 L-20,32 L-18,23 L-14,20 L-12,20 L-12,15 L-9,12 L-6,7 L-2,5 L-2,3 L0,3 Z " fill="#7D7EBB" transform="translate(624,592)"/>
<path d="M0,0 L1,2 L3,2 L3,4 L1,4 L1,6 L-3,7 L-4,9 L-7,9 L-7,11 L-19,14 L-39,14 L-44,13 L-53,13 L-61,12 L-63,8 L-54,7 L-53,4 L-49,5 L-49,8 L-39,7 L-35,6 L-35,8 L-32,6 L-28,6 L-29,11 L-25,11 L-25,9 L-15,10 L-14,8 L-10,8 L-6,6 L-6,2 Z M-23,8 Z " fill="#7873CF" transform="translate(533,688)"/>
<path d="M0,0 L22,0 L21,2 L1,1 L1,3 L-9,3 L-9,5 L3,4 L2,6 L-10,6 L-15,5 L-15,7 L-13,8 L-21,7 L-21,9 L-19,9 L-20,12 L-27,14 L-40,14 L-51,13 L-51,15 L-74,15 L-74,18 L-85,19 L-88,21 L-89,25 L-89,28 L-91,28 L-91,21 L-93,21 L-93,28 L-94,28 L-94,20 L-90,20 L-90,16 L-86,16 L-86,14 L-80,14 L-80,12 L-74,12 L-74,14 L-52,14 L-52,12 L-40,12 L-40,10 L-30,10 L-30,8 L-22,8 L-22,6 L-16,6 L-16,4 L-10,4 L-10,2 L0,2 Z " fill="#68699A" transform="translate(584,314)"/>
<path d="M0,0 L6,0 L6,6 L8,6 L8,2 L18,2 L18,8 L12,8 L12,10 L16,10 L16,16 L10,16 L10,18 L4,18 L4,16 L-4,16 L-4,12 L-6,12 L-6,6 L0,6 Z " fill="#0C0F2C" transform="translate(670,232)"/>
<path d="M0,0 L2,0 L2,7 L6,5 L5,10 L6,13 L5,18 L-1,21 L-2,22 L-14,23 L-16,22 L-16,24 L-19,24 L-19,26 L-16,27 L-19,28 L-24,34 L-26,34 L-26,32 L-28,32 L-29,35 L-28,30 L-21,23 L-17,23 L-15,19 L-7,11 L-5,11 L-5,7 L0,7 Z " fill="#8586BA" transform="translate(491,335)"/>
<path d="M0,0 L2,4 L2,31 L1,33 L0,45 L-1,47 L-5,47 L-5,51 L-7,51 L-7,53 L-11,54 L-11,56 L-13,56 L-11,52 L-9,49 L-11,46 L-5,43 L-4,40 L-6,40 L-5,30 L-7,33 L-7,20 L-6,9 L-3,10 L-2,15 Z " fill="#B8B7F2" transform="translate(667,459)"/>
<path d="M0,0 L2,3 L-1,8 L-1,16 L1,23 L2,33 L-2,37 L-4,43 L-9,48 L-11,49 L-12,44 L-9,34 L-7,34 L-7,22 L-9,22 L-8,18 L-7,16 L-6,6 L0,4 Z " fill="#9395CD" transform="translate(470,390)"/>
<path d="M0,0 L6,2 L5,4 L-1,6 L-4,11 L-6,11 L-7,20 L-9,23 L-11,23 L-12,28 L-21,32 L-26,38 L-34,42 L-38,47 L-40,47 L-40,45 L-38,45 L-36,40 L-38,40 L-38,38 L-34,35 L-32,35 L-30,31 L-26,29 L-20,28 L-16,17 L-13,15 L-9,15 L-8,9 L-6,9 L-4,5 L-2,1 Z M-35,38 Z " fill="#9191C6" transform="translate(634,559)"/>
<path d="M0,0 L11,0 L17,1 L13,3 L13,7 L9,7 L9,10 L5,13 L3,13 L2,16 L0,15 L-7,16 L-12,17 L-13,19 L-17,19 L-17,15 L-13,15 L-13,12 L-10,9 L-5,8 L-4,5 L-8,4 L-8,2 L-1,2 L3,5 L3,3 L0,2 Z M-18,19 Z " fill="#7676BD" transform="translate(381,449)"/>
<path d="M0,0 L1,2 L5,3 L5,6 L13,5 L17,8 L31,8 L31,11 L28,13 L28,15 L11,15 L11,13 L-3,13 L-1,9 L-1,6 L-6,4 L-6,2 L0,2 Z " fill="#6F6FBA" transform="translate(451,702)"/>
<path d="M0,0 L3,1 L0,8 L-3,13 L0,14 L0,11 L4,10 L5,12 L5,15 L15,16 L12,19 L11,17 L6,19 L4,21 L4,17 L-7,18 L-11,20 L-12,15 L-16,14 L-16,9 L-8,9 L-8,11 L-4,8 L-8,7 L-8,5 L-10,4 L-7,3 L-7,1 Z M3,21 Z " fill="#9394DD" transform="translate(552,615)"/>
<path d="M0,0 L3,1 L2,3 L0,3 L0,5 L11,5 L13,6 L13,4 L6,4 L10,2 L12,0 L19,1 L21,3 L18,3 L18,5 L14,5 L14,7 L6,7 L6,9 L0,9 L0,13 L-5,17 L-6,21 L-11,24 L-11,22 L-13,22 L-11,12 L-9,12 L-7,7 L-5,7 L-3,1 Z " fill="#8787BA" transform="translate(640,569)"/>
<path d="M0,0 L4,1 L4,14 L8,19 L9,20 L11,22 L14,29 L17,30 L17,32 L22,32 L24,37 L25,41 L26,44 L26,55 L24,55 L24,43 L20,41 L20,36 L15,36 L15,34 L11,34 L11,30 L7,30 L7,22 L3,22 L0,15 Z " fill="#6D70B8" transform="translate(331,600)"/>
<path d="M0,0 L2,0 L3,4 L8,6 L9,7 L17,8 L17,12 L23,12 L25,13 L25,16 L29,16 L29,18 L36,18 L36,16 L38,17 L37,19 L51,19 L51,20 L37,20 L37,22 L27,22 L27,20 L19,20 L19,16 L15,16 L15,14 L9,14 L5,9 L5,7 L2,7 L1,3 L-4,3 L-4,1 Z " fill="#5F5EA3" transform="translate(411,696)"/>
<path d="M0,0 L2,1 L1,3 L-1,3 L1,7 L0,15 L-9,13 L-8,19 L-10,22 L-12,22 L-13,24 L-13,22 L-17,21 L-17,23 L-14,23 L-15,27 L-17,29 L-17,42 L-16,42 L-16,50 L-17,50 L-17,44 L-19,44 L-18,53 L-19,51 L-21,51 L-22,54 L-22,50 L-20,50 L-20,44 L-22,44 L-22,24 L-18,24 L-18,20 L-14,20 L-14,18 L-10,18 L-10,12 L-6,12 L-6,10 L-4,10 L-4,6 L-2,6 L-1,1 Z " fill="#7274A9" transform="translate(460,370)"/>
<path d="M0,0 L4,2 L1,29 L0,36 L-5,47 L-7,47 L-9,53 L-12,55 L-13,52 L-10,51 L-9,46 L-6,37 L-5,35 L-4,25 L-2,25 L-2,4 Z " fill="#A3A0D0" transform="translate(690,459)"/>
<path d="M0,0 L10,0 L10,1 L1,1 L1,5 L-23,5 L-23,9 L-35,9 L-35,11 L-39,11 L-39,13 L-52,14 L-56,15 L-57,18 L-63,21 L-65,21 L-66,34 L-75,35 L-75,47 L-60,47 L-60,48 L-76,48 L-76,34 L-72,34 L-72,24 L-68,24 L-68,20 L-64,20 L-62,16 L-58,16 L-58,14 L-54,14 L-54,12 L-40,12 L-40,10 L-36,10 L-36,8 L-24,8 L-24,4 L0,4 Z " fill="#040519" transform="translate(418,238)"/>
<path d="M0,0 L5,0 L5,2 L8,2 L12,14 L13,18 L17,16 L22,16 L24,23 L20,23 L19,25 L17,20 L11,19 L9,16 L11,21 L12,25 L12,29 L9,29 L8,25 L6,24 L7,18 L2,17 L2,12 L4,12 L2,11 L1,3 Z " fill="#908EBF" transform="translate(686,376)"/>
<path d="M0,0 L1,0 L1,8 L-1,8 L-1,14 L-5,14 L-5,16 L-17,16 L-17,14 L-21,14 L-21,12 L-27,12 L-27,14 L-32,16 L-35,16 L-35,10 L-29,10 L-29,8 L-18,8 L-18,10 L-7,9 L-5,10 L-3,1 L-2,1 L-2,7 L0,7 Z " fill="#706EB7" transform="translate(599,652)"/>
<path d="M0,0 L8,1 L8,5 L4,5 L4,7 L-1,7 L-5,9 L-16,8 L-24,8 L-24,1 Z M-8,7 Z " fill="#8787C3" transform="translate(600,324)"/>
<path d="M0,0 L1,3 L-1,8 L-2,10 L-2,14 L-8,16 L-8,26 L-11,32 L-9,32 L-8,40 L-9,44 L-11,44 L-12,52 L-14,54 L-16,54 L-16,52 L-14,52 L-13,21 L-7,10 L-5,10 L-4,2 Z M-4,10 Z M-5,11 Z " fill="#9091C8" transform="translate(472,380)"/>
<path d="M0,0 L2,4 L5,6 L5,10 L11,10 L11,14 L16,15 L17,16 L17,22 L23,22 L23,28 L25,28 L25,34 L24,34 L24,29 L22,29 L22,34 L21,32 L19,32 L19,29 L14,27 L13,25 L13,18 L9,17 L9,15 L4,13 L1,12 L1,9 L-1,9 Z M9,14 Z " fill="#7E7CAD" transform="translate(701,380)"/>
<path d="M0,0 L11,0 L10,12 L12,14 L13,18 L16,25 L16,28 L19,30 L19,32 L24,31 L25,36 L18,35 L14,31 L14,27 L12,27 L12,21 L10,21 L10,17 L8,17 L6,12 L2,9 L2,5 L0,5 Z M15,29 Z " fill="#090925" transform="translate(700,243)"/>
<path d="M0,0 L2,2 L1,7 L-1,7 L-1,13 L-6,13 L-8,18 L-13,20 L-14,22 L-26,22 L-26,21 L-15,21 L-15,19 L-26,19 L-26,18 L-18,18 L-18,14 L-16,14 L-16,12 L-13,11 L-10,8 L-8,8 L-8,5 L-6,5 L-6,3 L-1,2 Z " fill="#6B67BC" transform="translate(544,692)"/>
<path d="M0,0 L8,0 L8,4 L10,4 L10,20 L9,20 L9,5 L7,5 L7,14 L5,14 L5,20 L3,22 L-3,21 L-3,28 L-4,28 L-4,20 L0,20 L-2,16 L-2,8 L0,8 Z " fill="#080821" transform="translate(214,498)"/>
<path d="M0,0 L4,1 L4,21 L2,27 L2,34 L0,37 L-1,44 L-3,51 L-4,56 L-5,56 L-5,45 L-2,28 L-3,23 L-2,15 L-2,11 L0,11 Z " fill="#9E9BC8" transform="translate(696,432)"/>
<path d="M0,0 L2,0 L2,11 L1,9 L-1,9 L0,11 L0,20 L-1,21 L-1,31 L-4,30 L-9,35 L-13,37 L-13,35 L-15,35 L-15,44 L-16,44 L-16,34 L-10,28 L-8,28 L-8,20 L-4,18 L-4,12 L-2,12 L-2,8 L0,8 Z " fill="#6766A9" transform="translate(354,490)"/>
<path d="M0,0 L1,0 L1,6 L-1,6 L-1,12 L-3,12 L-3,20 L-5,20 L-5,26 L-8,26 L-8,29 L-10,30 L-10,33 L-14,33 L-14,39 L-17,39 L-16,43 L-18,43 L-18,40 L-22,41 L-21,37 L-17,32 L-15,27 L-12,25 L-8,17 L-6,13 L-6,19 L-4,19 L-5,5 L-2,3 L-2,5 L0,5 Z " fill="#8F8EBA" transform="translate(701,490)"/>
<path d="M0,0 L2,1 L4,7 L4,12 L2,17 L1,23 L-1,23 L-2,27 L-4,27 L-5,31 L-8,31 L-9,36 L-12,42 L-14,44 L-19,44 L-19,46 L-21,46 L-20,42 L-15,41 L-11,34 L-8,28 L-6,21 L-3,16 L-2,8 L-1,7 Z " fill="#AEACE5" transform="translate(676,477)"/>
<path d="M0,0 L1,0 L1,6 L3,6 L3,22 L5,22 L5,34 L7,34 L7,40 L9,40 L9,50 L3,50 L3,48 L-2,47 L-3,42 L0,46 L3,47 L3,39 L1,39 L1,23 L2,7 L0,7 Z " fill="#0C0921" transform="translate(807,360)"/>
<path d="M0,0 L6,0 L6,2 L12,2 L12,6 L16,7 L16,4 L22,4 L22,5 L17,5 L17,8 L11,9 L10,15 L13,15 L13,17 L17,18 L17,25 L16,25 L16,20 L12,20 L12,16 L8,16 L8,12 L2,12 L0,10 Z " fill="#0B0921" transform="translate(198,742)"/>
<path d="M0,0 L7,1 L6,5 L1,7 L0,9 L-2,9 L-2,11 L-3,12 L4,12 L4,18 L-3,18 L-6,23 L-11,25 L-13,22 L-10,21 L-11,14 L-8,14 L-7,11 L-6,9 L-4,9 L-4,6 L-1,5 Z " fill="#9D9FD8" transform="translate(608,563)"/>
<path d="M0,0 L2,0 L2,6 L0,9 L-3,22 L-7,31 L-10,32 L-12,37 L-17,42 L-22,48 L-25,48 L-27,52 L-27,47 L-22,42 L-21,39 L-14,33 L-11,28 L-9,28 L-7,22 L-4,14 L-1,1 Z M-24,46 Z " fill="#9695C3" transform="translate(694,486)"/>
<path d="M0,0 L12,0 L17,1 L16,3 L13,4 L16,6 L11,8 L8,5 L0,5 L-1,4 L-2,7 L-16,9 L-17,6 L-22,7 L-22,5 L-19,3 L-13,1 L-8,1 L-3,2 L0,2 Z " fill="#9898D0" transform="translate(528,356)"/>
<path d="M0,0 L8,0 L8,6 L1,9 L-19,9 L-19,5 L-13,4 L-12,2 L0,2 Z " fill="#0B1129" transform="translate(526,856)"/>
<path d="M0,0 L2,0 L2,5 L0,8 L2,8 L2,15 L3,20 L1,25 L-1,25 L-3,32 L-4,45 L-5,46 L-6,56 L-7,56 L-7,45 L-6,30 L-4,24 L-4,15 L-3,4 L-1,3 Z " fill="#9996C4" transform="translate(703,429)"/>
<path d="M0,0 L5,0 L4,6 L-1,9 L-4,18 L-6,18 L-8,24 L-14,25 L-14,22 L-13,20 L-11,20 L-11,13 L-8,10 L-5,4 L-2,4 L-2,2 L0,2 Z " fill="#8082C2" transform="translate(608,606)"/>
<path d="M0,0 L32,0 L34,1 L33,5 L31,5 L31,3 L18,4 L10,8 L1,8 L1,5 L-1,2 Z " fill="#ADADE9" transform="translate(576,392)"/>
<path d="M0,0 L2,1 L2,5 L0,5 L-1,8 L-7,8 L-7,5 L-11,5 L-11,7 L-21,7 L-21,9 L-12,9 L-12,10 L-19,11 L-20,12 L-32,12 L-43,11 L-43,13 L-32,13 L-32,14 L-40,14 L-40,16 L-44,14 L-51,13 L-51,15 L-48,16 L-58,15 L-58,14 L-52,14 L-52,12 L-44,12 L-44,10 L-32,10 L-32,8 L-22,8 L-22,6 L-12,6 L-12,4 L-4,4 Z " fill="#7474AC" transform="translate(424,438)"/>
<path d="M0,0 L4,1 L1,1 L1,3 L3,4 L-5,3 L-5,5 L0,5 L-2,9 L-7,14 L-10,18 L-10,11 L-12,11 L-12,21 L-11,22 L-11,31 L-9,31 L-9,23 L-8,23 L-8,36 L-10,36 L-10,32 L-12,32 L-13,23 L-16,20 L-16,12 L-14,12 L-14,8 L-10,8 L-8,4 L-6,2 L0,2 Z " fill="#6E6CB9" transform="translate(362,454)"/>
<path d="M0,0 L2,1 L-4,8 L-5,11 L-9,11 L-9,13 L-11,13 L-11,15 L-14,15 L-16,21 L-19,24 L-21,24 L-22,17 L-20,17 L-19,11 L-16,11 L-15,7 L-9,6 L-4,4 L-4,2 Z " fill="#8687C4" transform="translate(617,595)"/>
<path d="M0,0 L22,0 L21,6 L19,7 L13,7 L13,5 L-3,7 L-7,8 L-9,6 L-7,6 L-7,3 Z " fill="#8C8CC2" transform="translate(515,343)"/>
<path d="M0,0 L10,0 L10,2 L16,2 L16,4 L24,4 L24,6 L32,6 L36,8 L36,6 L58,6 L60,9 L57,8 L37,7 L37,9 L32,9 L29,8 L9,8 L4,6 L4,4 L0,3 L9,3 L9,1 L0,1 Z " fill="#6D6E9F" transform="translate(606,316)"/>
<path d="M0,0 L2,0 L2,2 L0,2 L1,6 L3,6 L3,9 L1,9 L0,13 L2,13 L0,17 L-1,18 L-1,30 L-4,30 L-5,20 L-7,19 L-7,7 L-5,7 L-5,3 Z M-1,7 Z " fill="#0B0F2B" transform="translate(617,751)"/>
<path d="M0,0 L1,0 L1,22 L-1,22 L-1,32 L-9,46 L-11,46 L-12,50 L-14,50 L-14,46 L-12,46 L-11,42 L-9,38 L-7,37 L-6,34 L-4,34 L-4,14 L-3,12 L-3,6 L-1,6 Z " fill="#A6A4D7" transform="translate(687,462)"/>
<path d="M0,0 L16,0 L16,8 L8,8 L8,10 L0,10 Z " fill="#050A20" transform="translate(510,894)"/>
<path d="M0,0 L13,2 L15,4 L13,7 L3,6 L-1,10 L-11,9 L-13,6 L-7,2 Z M15,2 Z " fill="#8484C9" transform="translate(397,456)"/>
<path d="M0,0 L2,1 L3,6 L2,9 L5,9 L5,14 L-2,23 L-4,22 L-4,20 L-6,20 L-6,15 L-5,12 L-2,12 L-2,8 L-6,9 L-6,7 L-3,4 Z " fill="#837EDA" transform="translate(530,656)"/>
<path d="M0,0 L35,0 L34,2 L29,4 L26,6 L8,7 L8,4 L5,4 L5,2 L0,3 Z " fill="#0C112A" transform="translate(376,867)"/>
<path d="M0,0 L0,3 L5,4 L3,6 L3,15 L1,15 L1,13 L-6,15 L-6,13 L-11,15 L-16,19 L-18,19 L-17,16 L-14,16 L-12,11 L-9,8 L-7,4 L-3,4 Z " fill="#7674BC" transform="translate(562,654)"/>
<path d="M0,0 L2,3 L0,7 L-2,8 L-3,13 L-8,15 L-12,15 L-15,12 L-15,10 L-20,12 L-25,13 L-25,11 L-21,9 L-11,8 L-10,5 L-2,5 Z " fill="#989ADE" transform="translate(599,587)"/>
<path d="M0,0 L4,0 L3,8 L-4,10 L-7,10 L-14,11 L-17,15 L-23,15 L-23,13 L-19,13 L-19,9 L-15,7 L-8,5 L-10,4 L-10,2 L0,2 Z " fill="#7E7EBC" transform="translate(413,443)"/>
<path d="M0,0 L1,4 L-1,7 L-3,7 L-5,15 L-8,18 L-9,20 L-11,20 L-12,24 L-14,24 L-17,34 L-20,37 L-18,26 L-16,26 L-16,16 L-14,15 L-12,16 L-10,12 L-6,8 L-4,8 L-2,4 Z M-14,14 Z " fill="#8D8EBF" transform="translate(684,518)"/>
<path d="M0,0 L16,2 L16,4 L-6,5 L-19,7 L-20,9 L-27,13 L-29,12 L-27,9 L-30,8 L-21,4 L-10,3 Z " fill="#8181BD" transform="translate(592,319)"/>
<path d="M0,0 L11,0 L12,2 L9,6 L-23,5 L-23,2 L0,2 Z " fill="#7E7FB8" transform="translate(533,327)"/>
<path d="M0,0 L6,0 L6,6 L8,6 L8,2 L18,2 L18,8 L12,8 L11,10 L8,9 L-5,7 L-4,12 L-6,12 L-6,6 L0,6 Z " fill="#090B21" transform="translate(670,232)"/>
<path d="M0,0 L4,0 L6,5 L10,8 L10,22 L12,22 L14,27 L16,28 L18,33 L20,34 L21,39 L18,39 L19,35 L17,35 L17,37 L15,37 L14,31 L15,29 L13,29 L12,33 L12,31 L8,30 L8,25 L11,25 L11,23 L8,24 L8,11 L9,9 L6,10 L2,7 L3,1 Z " fill="#7D7EAE" transform="translate(666,326)"/>
<path d="M0,0 L2,0 L4,4 L2,10 L1,47 L-1,48 L-2,37 L-2,9 L0,9 Z " fill="#7376B7" transform="translate(339,525)"/>
<path d="M0,0 L2,1 L3,4 L6,5 L0,12 L-2,12 L-2,14 L-4,14 L-4,19 L-9,19 L-9,17 L-11,17 L-10,10 L-6,10 L-6,6 L-2,6 L-1,1 Z " fill="#7679AD" transform="translate(436,424)"/>
<path d="M0,0 L11,0 L22,10 L22,12 L26,14 L24,15 L15,14 L15,12 L11,13 L11,10 L9,10 L9,3 L10,1 L0,1 Z " fill="#060522" transform="translate(701,242)"/>
<path d="M0,0 L1,0 L1,9 L3,9 L3,0 L4,0 L4,10 L2,10 L2,14 L0,14 L0,22 L2,22 L2,38 L0,38 L0,54 L-1,54 L-2,37 L-2,22 L-1,11 L0,10 Z " fill="#0F0F17" transform="translate(334,524)"/>
<path d="M0,0 L5,1 L4,5 L-1,6 L-2,9 L-5,10 L-17,10 L-17,8 L-26,8 L-26,6 L-21,4 L-18,4 L-18,6 L-16,6 L-16,8 L-11,9 L-10,4 L-1,1 Z " fill="#B0AFE8" transform="translate(657,514)"/>
<path d="M0,0 L1,0 L1,11 L3,12 L1,12 L1,17 L-3,17 L-3,31 L-5,31 L-6,29 L-11,38 L-12,36 L-8,23 L-6,16 L-5,14 L-3,14 L-3,8 L-2,6 L0,6 Z " fill="#918FBB" transform="translate(700,478)"/>
<path d="M0,0 L16,0 L17,4 L15,7 L8,6 L-12,5 L-8,4 L-8,2 L0,2 Z " fill="#8283BB" transform="translate(528,332)"/>
<path d="M0,0 L4,1 L4,4 L14,3 L18,2 L18,4 L21,2 L25,2 L24,7 L2,7 L-2,6 L-8,6 L-10,4 L-1,3 Z " fill="#7C78D3" transform="translate(480,692)"/>
<path d="M0,0 L2,1 L4,8 L5,18 L1,22 L-1,28 L-6,32 L-5,22 L-1,13 L1,8 Z " fill="#9698D0" transform="translate(467,405)"/>
<path d="M0,0 L8,1 L8,3 L4,6 L2,6 L1,9 L-1,8 L-8,9 L-13,10 L-14,12 L-18,12 L-18,8 L-14,8 L-14,6 L-6,6 L-6,4 L-4,4 L-4,2 L0,2 Z M-19,12 Z " fill="#7877C4" transform="translate(382,456)"/>
<path d="M0,0 L6,2 L13,2 L13,5 L15,5 L15,7 L17,7 L17,9 L21,10 L25,14 L25,19 L33,19 L33,25 L35,25 L35,27 L39,27 L40,24 L40,28 L34,28 L34,26 L32,26 L32,20 L24,20 L24,16 L20,16 L20,12 L16,12 L16,8 L12,8 L12,5 L10,6 L4,6 L0,4 Z " fill="#04051C" transform="translate(266,838)"/>
<path d="M0,0 L5,1 L4,6 L1,8 L0,12 L-2,12 L-2,18 L-5,20 L-6,26 L-7,26 L-8,17 L-5,17 L-5,12 L-8,12 L-7,8 L-4,5 L-2,5 L-2,3 L0,3 Z " fill="#8182B9" transform="translate(624,592)"/>
<path d="M0,0 L3,1 L5,12 L4,23 L4,30 L0,31 L1,21 L-1,24 L-1,11 Z " fill="#BBBAF6" transform="translate(661,468)"/>
<path d="M0,0 L2,0 L2,2 L5,3 L5,5 L8,5 L8,11 L12,10 L13,6 L15,6 L15,20 L17,20 L17,22 L14,22 L14,27 L12,23 L10,21 L10,18 L7,17 L7,15 L5,14 L4,6 L0,3 Z " fill="#8585BB" transform="translate(660,329)"/>
<path d="M0,0 L2,0 L2,10 L1,12 L-3,12 L-3,16 L-13,16 L-13,14 L-23,14 L-25,12 L-25,9 L-12,11 L-12,12 L-6,12 L-4,9 L0,9 Z " fill="#0C0C2C" transform="translate(427,248)"/>
<path d="M0,0 L6,0 L6,6 L-5,7 L-8,9 L-9,13 L-9,16 L-11,16 L-11,9 L-13,9 L-13,16 L-14,16 L-14,8 L-10,8 L-10,4 L-6,4 L-6,2 L0,2 Z " fill="#7576AA" transform="translate(504,326)"/>
<path d="M0,0 L8,0 L8,6 L7,6 L7,1 L1,1 L1,7 L-1,7 L-1,11 L2,10 L2,24 L1,27 L6,27 L6,28 L0,28 L0,24 L-4,24 L-4,16 L-2,12 L-2,6 L0,6 Z " fill="#07091E" transform="translate(338,302)"/>
<path d="M0,0 L2,0 L1,13 L-8,14 L-8,26 L7,26 L7,27 L-9,27 L-9,13 L-5,13 L-5,3 L0,3 Z " fill="#06061F" transform="translate(351,259)"/>
<path d="M0,0 L2,0 L2,2 L4,2 L2,6 L-4,13 L-7,18 L-10,18 L-10,12 L-8,12 L-7,6 L-3,4 Z M-9,16 Z " fill="#ADAFE3" transform="translate(484,448)"/>
<path d="M0,0 L1,0 L1,6 L-3,8 L-5,15 L-6,17 L-8,17 L-10,12 L-12,12 L-15,15 L-17,14 L-14,11 L-13,8 L-9,8 L-7,4 L-5,4 L-4,1 Z M-8,10 Z " fill="#9799D3" transform="translate(466,438)"/>
<path d="M0,0 L2,0 L3,13 L2,20 L5,21 L6,29 L4,29 L4,26 L1,26 L1,22 L-1,22 L-2,18 L-2,8 L-1,8 Z " fill="#100B2B" transform="translate(799,372)"/>
<path d="M0,0 L8,0 L8,4 L12,4 L12,10 L4,10 L4,8 L0,8 Z " fill="#06041F" transform="translate(230,814)"/>
<path d="M0,0 L6,0 L6,6 L0,6 L0,10 L-10,10 L-10,4 L0,4 Z " fill="#07081A" transform="translate(662,724)"/>
<path d="M0,0 L1,2 L5,0 L25,0 L29,3 L19,5 L14,4 L11,3 L4,4 L-1,5 L-6,4 L-2,1 Z " fill="#7774C9" transform="translate(467,700)"/>
<path d="M0,0 L4,1 L4,14 L8,19 L9,20 L10,21 L10,29 L8,29 L8,22 L3,22 L0,15 Z " fill="#6D6EAB" transform="translate(331,600)"/>
<path d="M0,0 L1,0 L1,5 L6,4 L7,7 L3,8 L0,7 L-4,8 L-7,11 L-12,10 L-13,5 L-11,4 L-5,3 Z M7,5 Z " fill="#8A8AC9" transform="translate(427,454)"/>
<path d="M0,0 L9,0 L9,2 L4,3 L5,8 L1,12 L-6,14 L-10,18 L-12,18 L-11,11 L-5,11 L-5,9 L1,9 Z " fill="#0F1335" transform="translate(435,843)"/>
<path d="M0,0 L4,2 L4,7 L6,8 L2,12 L3,21 L3,23 L1,23 L-1,21 L-4,25 L-3,20 L-3,9 L-1,9 Z M6,6 Z M0,23 Z " fill="#7070BA" transform="translate(356,490)"/>
<path d="M0,0 L7,0 L7,4 L3,4 L3,6 L-2,6 L-6,8 L-21,6 L-21,5 L-15,5 L-15,3 L-12,3 L-12,5 L-9,5 L-8,3 Z M-9,6 Z " fill="#8B8BC7" transform="translate(601,325)"/>
<path d="M0,0 L1,0 L3,6 L5,7 L5,19 L7,19 L7,8 L8,8 L9,19 L10,22 L13,22 L13,24 L16,25 L15,29 L20,29 L20,30 L14,30 L12,27 L7,25 L6,20 L4,20 L4,8 L0,6 Z " fill="#5A5C9A" transform="translate(350,636)"/>
<path d="M0,0 L6,0 L8,3 L8,6 L10,6 L11,16 L14,18 L14,16 L22,16 L22,20 L30,20 L29,22 L21,21 L21,17 L15,17 L15,20 L10,20 L10,17 L8,17 L8,8 L3,8 L4,3 L5,1 L1,1 L0,4 Z " fill="#09041D" transform="translate(766,304)"/>
<path d="M0,0 L3,2 L3,7 L8,9 L8,12 L12,13 L8,13 L8,15 L13,14 L14,19 L17,20 L13,20 L11,17 L7,16 L7,14 L3,14 L3,10 L-1,10 L-1,1 Z " fill="#5E5EA4" transform="translate(399,684)"/>
<path d="M0,0 L1,0 L1,6 L-1,10 L1,10 L1,12 L-4,11 L-4,14 L-6,14 L-6,16 L-11,20 L-14,25 L-16,25 L-15,21 L-9,13 L-7,9 L-5,9 L-4,5 L-2,5 L-2,3 L0,3 Z " fill="#8888BC" transform="translate(628,581)"/>
<path d="M0,0 L2,3 L2,44 L1,44 L1,29 L-1,29 L-1,44 L-2,44 L-2,28 L0,28 L0,12 L-2,12 L-2,4 L0,4 Z " fill="#62649B" transform="translate(336,534)"/>
<path d="M0,0 L2,0 L3,6 L5,5 L6,10 L3,9 L-2,14 L-6,16 L-6,14 L-8,14 L-8,23 L-9,23 L-9,13 L-3,7 L0,7 Z " fill="#7273B8" transform="translate(347,511)"/>
<path d="M0,0 L3,3 L1,9 L0,17 L-3,18 L-4,23 L-7,23 L-7,18 L-3,16 L-3,8 L-4,4 L-2,4 Z " fill="#8789BB" transform="translate(463,369)"/>
<path d="M0,0 L1,0 L1,9 L3,9 L3,6 L5,6 L4,10 L2,10 L3,14 L2,31 L6,30 L6,34 L0,34 Z " fill="#0A071E" transform="translate(202,566)"/>
<path d="M0,0 L1,0 L1,6 L3,6 L3,22 L5,22 L5,34 L7,34 L7,40 L5,36 L3,37 L3,35 L1,35 L1,23 L2,7 L0,7 Z " fill="#09051E" transform="translate(807,360)"/>
<path d="M0,0 L2,0 L4,4 L6,9 L6,15 L2,20 L0,20 L0,10 L-1,5 L-3,4 L-2,2 L0,2 Z " fill="#ACABEC" transform="translate(491,424)"/>
<path d="M0,0 L2,0 L2,12 L-2,16 L-8,16 L-8,12 L-4,12 L-4,4 L0,4 Z " fill="#010004" transform="translate(246,778)"/>
<path d="M0,0 L6,2 L5,4 L-1,6 L-4,11 L-6,11 L-8,17 L-15,22 L-17,21 L-15,16 L-11,15 L-9,15 L-8,9 L-6,9 L-4,5 L-2,1 Z " fill="#9596CA" transform="translate(634,559)"/>
<path d="M0,0 L6,1 L5,6 L1,8 L-3,14 L-7,17 L-9,17 L-8,14 L-5,12 L-5,6 L-3,5 Z " fill="#999AD4" transform="translate(605,580)"/>
<path d="M0,0 L3,1 L4,5 L7,12 L7,15 L10,17 L10,19 L15,18 L16,23 L9,22 L5,18 L5,14 L3,14 L3,8 L1,8 Z M6,16 Z " fill="#0C0C2A" transform="translate(709,256)"/>
<path d="M0,0 L14,0 L10,4 L-3,8 L-6,10 L-5,7 L-9,6 L-9,4 L-3,4 L-3,2 L0,2 Z " fill="#7171B8" transform="translate(366,453)"/>
<path d="M0,0 L4,2 L1,5 L2,13 L-1,16 L-11,20 L-10,17 L-7,14 L-5,14 L-5,8 L-3,8 Z " fill="#B6BAE8" transform="translate(495,446)"/>
<path d="M0,0 L42,1 L42,2 L12,2 L12,4 L6,4 L6,2 L4,2 L4,4 L-14,4 L-14,3 L3,3 L3,1 Z " fill="#57578F" transform="translate(476,714)"/>
<path d="M0,0 L1,0 L1,8 L-1,8 L-1,14 L-5,14 L-5,16 L-17,16 L-17,14 L-21,13 L-18,12 L-4,12 L-2,13 L-3,8 L-3,1 L-2,1 L-2,7 L0,7 Z " fill="#605F9F" transform="translate(599,652)"/>
<path d="M0,0 L1,4 L-2,8 L-4,8 L-6,12 L-8,13 L-12,20 L-15,24 L-17,23 L-17,20 L-15,20 L-15,16 L-12,16 L-11,11 L-6,6 L-4,6 L-2,2 L0,2 Z " fill="#9C9CCF" transform="translate(676,516)"/>
<path d="M0,0 L3,0 L3,4 L5,4 L6,2 L7,4 L3,11 L1,11 L-1,16 L-7,18 L-5,12 L0,8 L1,4 L-1,1 Z " fill="#7A77C7" transform="translate(549,654)"/>
<path d="M0,0 L2,0 L2,4 L9,5 L10,12 L10,22 L8,22 L8,13 L5,13 L2,8 L-1,5 Z " fill="#110B2A" transform="translate(787,347)"/>
<path d="M0,0 L1,2 L1,11 L-1,15 L-3,15 L-4,12 L-7,14 L-8,10 L-6,10 L-6,7 L-8,7 L-6,2 L-1,1 Z " fill="#9B9DDA" transform="translate(428,496)"/>
<path d="M0,0 L1,4 L3,4 L4,1 L4,5 L-1,9 L-2,21 L-4,21 L-4,33 L-5,33 L-6,21 L-6,10 L-5,10 L-5,20 L-3,20 L-4,3 L-2,3 L-2,1 Z " fill="#7F7DA1" transform="translate(708,457)"/>
<path d="M0,0 L6,1 L9,2 L9,4 L6,4 L4,11 L-1,11 L-3,4 Z " fill="#8E8BB7" transform="translate(712,447)"/>
<path d="M0,0 L2,2 L2,5 L12,6 L9,9 L8,7 L3,9 L1,11 L1,7 L-10,8 L-14,10 L-11,6 L-6,4 L-3,4 L-3,1 Z M0,11 Z " fill="#8C8DD3" transform="translate(555,625)"/>
<path d="M0,0 L1,4 L3,4 L3,10 L5,10 L6,15 L4,14 L3,23 L2,21 L0,21 L1,12 L-1,12 L-1,1 Z " fill="#8D8DC3" transform="translate(665,346)"/>
<path d="M0,0 L4,1 L1,1 L2,3 L2,13 L3,14 L3,23 L5,23 L5,15 L6,15 L6,28 L4,28 L4,24 L2,24 L1,15 L-2,12 L-2,4 L0,4 Z " fill="#5B5A9A" transform="translate(348,462)"/>
<path d="M0,0 L3,3 L3,10 L5,14 L1,18 L-4,20 L-4,14 L0,9 Z " fill="#9A9BD5" transform="translate(471,413)"/>
<path d="M0,0 L5,0 L5,4 L8,5 L10,11 L16,16 L16,18 L12,17 L5,11 L5,7 L1,7 Z " fill="#120C2C" transform="translate(771,329)"/>
<path d="M0,0 L7,1 L6,5 L1,7 L0,9 L-2,9 L-2,11 L-4,11 L-4,13 L-11,17 L-11,14 L-8,14 L-7,11 L-6,9 L-4,9 L-4,6 L-1,5 Z " fill="#A2A4DA" transform="translate(608,563)"/>
<path d="M0,0 L1,3 L8,2 L17,2 L17,0 L19,1 L18,3 L32,3 L32,4 L18,4 L18,6 L8,6 L8,4 L0,4 Z " fill="#5D5D9B" transform="translate(430,712)"/>
<path d="M0,0 L15,1 L15,3 L4,3 L3,5 L3,3 L-26,3 L-26,2 L-6,1 Z " fill="#6B69B6" transform="translate(514,710)"/>
<path d="M0,0 L1,0 L1,8 L-1,8 L-1,14 L-3,14 L-3,18 L-5,18 L-6,22 L-7,17 L-4,17 L-6,6 L-3,1 L-2,1 L-2,7 L0,7 Z " fill="#7778A2" transform="translate(681,534)"/>
<path d="M0,0 L1,3 L-7,9 L-10,10 L-11,12 L-18,11 L-14,7 L-12,7 L-12,5 L-2,2 Z " fill="#A6A5DD" transform="translate(666,520)"/>
<path d="M0,0 L11,0 L17,1 L13,3 L13,7 L5,8 L3,6 L7,5 L7,3 L0,2 Z " fill="#7A79BB" transform="translate(381,449)"/>
<path d="M0,0 L4,0 L4,10 L2,10 L2,17 L0,17 L0,11 L-2,10 L-1,1 Z " fill="#7373B7" transform="translate(597,642)"/>
<path d="M0,0 L2,3 L0,7 L-2,8 L-3,13 L-8,15 L-12,15 L-14,12 L-5,11 L-6,6 L-2,5 Z " fill="#989ADA" transform="translate(599,587)"/>
<path d="M0,0 L2,0 L0,4 L-1,8 L1,17 L3,22 L1,24 L1,21 L-2,20 L-4,13 L-5,12 L-5,6 Z " fill="#6F6DBC" transform="translate(358,463)"/>
<path d="M0,0 L1,2 L0,4 L-3,4 L-3,6 L0,7 L-3,8 L-8,14 L-10,14 L-10,12 L-12,12 L-13,15 L-12,10 L-5,3 L-1,3 Z " fill="#7779A0" transform="translate(475,355)"/>
<path d="M0,0 L7,1 L9,3 L6,3 L6,5 L2,5 L2,7 L-6,7 L-6,9 L-12,9 L-12,8 L-7,8 L-8,5 L-1,5 L1,6 L1,4 L-6,4 L-2,2 Z " fill="#7273A3" transform="translate(652,569)"/>
<path d="M0,0 L1,3 L-1,4 L-3,9 L-11,9 L-13,6 L-7,2 Z " fill="#7F7FCA" transform="translate(397,456)"/>
<path d="M0,0 L6,2 L9,9 L10,13 L10,17 L7,17 L6,13 L4,12 L5,6 L0,5 Z " fill="#9896C8" transform="translate(688,388)"/>
<path d="M0,0 L2,0 L2,3 L4,3 L3,12 L5,12 L4,17 L2,17 L-2,7 Z " fill="#8D8BBB" transform="translate(697,377)"/>
<path d="M0,0 L1,2 L8,3 L8,7 L13,6 L14,9 L17,10 L16,17 L10,17 L9,20 L9,16 L15,16 L15,10 L11,10 L11,8 L7,8 L7,4 L-1,4 L-1,2 L-8,2 L-8,1 Z " fill="#04031C" transform="translate(223,766)"/>
<path d="M0,0 L3,0 L3,4 L1,5 L-3,14 L-6,16 L-7,10 L-5,10 L-4,4 L-1,4 Z " fill="#8789CB" transform="translate(602,602)"/>
<path d="M0,0 L3,1 L3,3 L7,3 L9,8 L13,11 L12,15 L12,12 L10,12 L9,18 L7,16 L7,13 L5,13 L5,6 L6,4 L4,4 L3,7 L3,5 L1,4 L2,2 L0,2 Z " fill="#7E7DA7" transform="translate(687,365)"/>
<path d="M0,0 L8,0 L8,8 L2,8 L0,6 Z " fill="#05091E" transform="translate(478,886)"/>
<path d="M0,0 L1,4 L-5,12 L-8,14 L-9,17 L-16,18 L-15,15 L-10,12 L-5,9 L-4,2 Z " fill="#A3A3D8" transform="translate(671,514)"/>
<path d="M0,0 L1,0 L1,6 L-1,6 L-1,12 L-3,12 L-3,20 L-5,20 L-5,26 L-6,26 L-7,13 L-6,13 L-6,19 L-4,19 L-5,5 L-2,3 L-2,5 L0,5 Z " fill="#7A779D" transform="translate(701,490)"/>
<path d="M0,0 L27,0 L26,2 L8,3 L5,4 L1,3 Z " fill="#0A1127" transform="translate(499,869)"/>
<path d="M0,0 L1,4 L-1,4 L-1,20 L1,20 L1,36 L0,36 L0,21 L-2,21 L-2,36 L-3,36 L-3,20 L-2,1 Z " fill="#101018" transform="translate(329,580)"/>
<path d="M0,0 L3,1 L2,4 L0,4 L0,6 L-3,7 L-5,12 L-10,18 L-12,18 L-12,16 L-10,16 L-8,11 L-10,11 L-10,9 L-6,6 L-4,6 L-2,2 Z M-7,9 Z " fill="#9394D3" transform="translate(606,588)"/>
<path d="M0,0 L6,2 L9,8 L17,11 L21,13 L21,23 L17,22 L20,22 L20,14 L16,13 L12,11 L7,12 L5,5 L3,5 L3,2 L0,2 Z " fill="#04041A" transform="translate(729,259)"/>
<path d="M0,0 L1,0 L1,7 L-4,18 L-6,18 L-8,24 L-11,26 L-12,23 L-9,22 L-8,17 L-5,11 L-3,10 Z " fill="#9E9DCE" transform="translate(689,488)"/>
<path d="M0,0 L2,1 L0,2 Z M-2,2 L0,3 L1,6 L1,9 L2,15 L2,19 L0,19 L-1,16 L-3,16 L-4,18 L-4,9 Z " fill="#9290BA" transform="translate(709,442)"/>
<path d="M0,0 L2,4 L5,6 L5,11 L10,11 L9,15 L4,13 L1,12 L1,9 L-1,9 Z " fill="#8887B7" transform="translate(701,380)"/>
<path d="M0,0 L19,0 L19,3 L6,2 L5,5 L0,5 L-1,2 Z " fill="#121642" transform="translate(446,839)"/>
<path d="M0,0 L2,4 L2,13 L0,13 L-1,8 L-4,13 L-6,13 L-7,8 L-3,6 L-3,2 Z " fill="#6E69B9" transform="translate(559,672)"/>
<path d="M0,0 L3,1 L1,6 L-1,7 L-8,7 L-8,5 L-10,4 L-7,3 L-7,1 Z " fill="#9497DE" transform="translate(552,615)"/>
<path d="M0,0 L2,0 L2,21 L-3,22 L-4,18 L-2,18 L-1,15 Z " fill="#7779B9" transform="translate(335,563)"/>
<path d="M0,0 L2,0 L2,3 L4,3 L5,0 L5,4 L-3,11 L-6,13 L-7,9 L-5,5 L-3,5 L-3,3 L0,3 Z " fill="#8181B6" transform="translate(667,558)"/>
<path d="M0,0 L2,3 L2,9 L0,9 L0,12 L-2,13 L-2,16 L-5,16 L-5,9 Z " fill="#8E8DB7" transform="translate(693,507)"/>
<path d="M0,0 L7,0 L7,3 L3,8 L0,8 L0,4 L-4,4 L-4,1 Z " fill="#BBBBF7" transform="translate(560,424)"/>
<path d="M0,0 L5,0 L6,3 L1,3 L1,8 L-4,11 L-5,5 L-5,3 Z " fill="#7F7FB0" transform="translate(639,574)"/>
<path d="M0,0 L1,4 L2,13 L0,23 L-4,22 L-1,13 L-3,12 Z " fill="#ACA9DF" transform="translate(681,471)"/>
<path d="M0,0 L3,0 L3,6 L1,6 L-1,17 L-6,19 L-4,15 L-3,6 L-1,6 Z " fill="#9191C6" transform="translate(665,538)"/>
<path d="M0,0 L7,1 L5,5 L1,5 L1,7 L-2,9 L-4,13 L-7,13 L-5,9 L-3,4 L-3,2 L0,2 Z " fill="#898BB9" transform="translate(475,357)"/>
<path d="M0,0 L2,0 L2,5 L4,5 L3,23 L1,23 L0,7 L-1,5 Z " fill="#8886B8" transform="translate(723,409)"/>
<path d="M0,0 L4,1 L1,1 L3,7 L-1,10 L-3,10 L-3,12 L-10,13 L-4,6 L0,4 Z " fill="#6C6D95" transform="translate(486,342)"/>
<path d="M0,0 L1,0 L1,11 L6,8 L7,6 L9,6 L7,10 L6,11 L6,23 L3,23 L2,13 L0,12 Z " fill="#0A0C26" transform="translate(610,758)"/>
<path d="M0,0 L2,1 L2,5 L0,5 L-1,8 L-7,8 L-7,5 L-11,5 L-11,7 L-22,7 L-22,6 L-12,6 L-12,4 L-4,4 Z " fill="#646592" transform="translate(424,438)"/>
<path d="M0,0 L1,0 L1,6 L4,7 L-1,13 L-5,13 L-5,6 L-3,6 L-2,4 Z M0,6 Z " fill="#9E9FD2" transform="translate(629,550)"/>
<path d="M0,0 L3,0 L5,4 L4,6 L-1,8 L-2,10 L-14,10 L-14,9 L-3,9 L-3,7 L-14,7 L-14,6 L-2,5 L1,4 L3,5 L3,3 L0,3 Z " fill="#5B599D" transform="translate(532,704)"/>
<path d="M0,0 L3,1 L3,4 L7,4 L7,6 L5,7 L-2,7 L-3,4 L-6,3 L-6,1 Z " fill="#6C6BB8" transform="translate(433,708)"/>
<path d="M0,0 L11,0 L11,1 L1,1 L1,3 L12,3 L12,4 L4,4 L4,6 L0,4 L-7,3 L-7,5 L-4,6 L-14,5 L-14,4 L-8,4 L-8,2 L0,2 Z " fill="#626299" transform="translate(380,448)"/>
<path d="M0,0 L4,2 L2,6 L-4,8 L-10,9 L-12,6 L-8,5 L-4,6 L-2,2 L0,2 Z " fill="#8282BD" transform="translate(424,446)"/>
<path d="M0,0 Z M-12,1 L0,1 L0,4 L-14,6 L-14,2 Z " fill="#999AD2" transform="translate(526,359)"/>
<path d="M0,0 L1,3 L0,5 L-2,5 L-2,7 L-4,7 L-4,9 L-6,9 L-6,11 L-13,11 L-12,8 L-6,7 L-6,5 L-4,5 L-4,3 L-2,3 L-2,1 Z " fill="#0C0D29" transform="translate(380,263)"/>
<path d="M0,0 L6,0 L6,2 L15,2 L15,12 L13,12 L13,4 L6,5 L5,2 L0,2 Z " fill="#14164A" transform="translate(300,763)"/>
<path d="M0,0 L2,1 L1,9 L-4,11 L-9,15 L-11,15 L-10,12 L-7,12 L-5,7 L-2,4 Z " fill="#7774C2" transform="translate(555,658)"/>
<path d="M0,0 L1,0 L1,7 L3,7 L3,0 L5,4 L9,9 L9,13 L12,14 L8,14 L8,12 L4,12 L4,8 L0,8 Z " fill="#61639E" transform="translate(338,622)"/>
<path d="M0,0 L2,0 L0,4 L-4,9 L-10,11 L-9,6 L-6,6 L-6,4 L-4,4 L-3,1 Z " fill="#9091CD" transform="translate(612,588)"/>
<path d="M0,0 L2,1 L1,3 L-1,3 L1,7 L0,15 L-5,13 L-4,6 L-2,6 L-1,1 Z " fill="#797BA6" transform="translate(460,370)"/>
<path d="M0,0 L1,4 L-1,4 L-1,6 L-7,6 L-7,8 L-13,8 L-13,11 L-16,11 L-16,9 L-14,9 L-14,7 L-12,5 L-10,1 L-7,4 L-2,5 L-1,2 Z " fill="#0F1034" transform="translate(309,782)"/>
<path d="M0,0 L3,0 L2,4 L-3,7 L-5,7 L-3,2 Z M-9,7 L-5,7 L-6,11 L-9,12 L-10,8 Z " fill="#9697D1" transform="translate(500,361)"/>
<path d="M0,0 L8,0 L14,1 L14,2 L8,2 L8,4 L3,6 L0,6 Z " fill="#6966A8" transform="translate(564,662)"/>
<path d="M0,0 L2,0 L2,2 L4,2 L5,0 L5,4 L2,6 L1,10 L-1,10 L-1,20 L-2,20 L-2,10 L-5,9 L0,9 L-2,2 Z " fill="#65659E" transform="translate(603,632)"/>
<path d="M0,0 L2,1 L-2,7 L-2,9 L-8,12 L-11,13 L-11,8 L-4,5 L-2,1 Z " fill="#8F90D9" transform="translate(551,621)"/>
<path d="M0,0 L4,0 L6,5 L10,8 L10,22 L9,22 L9,9 L6,10 L2,7 L3,1 Z " fill="#696996" transform="translate(666,326)"/>
<path d="M0,0 L6,2 L18,3 L18,5 L5,5 L-1,4 Z " fill="#0C0D2B" transform="translate(727,278)"/>
<path d="M0,0 L3,0 L3,2 L1,2 L1,4 L-1,5 L-2,8 L-5,8 L-5,10 L-11,11 L-11,9 L-5,5 Z " fill="#8C8DD0" transform="translate(603,598)"/>
<path d="M0,0 L5,1 L4,3 L1,3 L1,5 L-4,8 L-6,8 L-7,10 L-8,6 L-6,6 L-6,3 Z " fill="#8A8BC7" transform="translate(612,594)"/>
<path d="M0,0 L12,0 L14,1 L13,5 L11,5 L11,3 L-2,3 L-2,1 Z " fill="#B0B0EC" transform="translate(596,392)"/>
<path d="M0,0 L1,0 L1,6 L3,6 L3,16 L-3,16 L-3,13 L-1,13 Z " fill="#090B21" transform="translate(309,846)"/>
<path d="M0,0 L4,1 L4,9 L2,15 L0,15 Z " fill="#7879B8" transform="translate(331,600)"/>
<path d="M0,0 L2,0 L2,13 L1,16 L-1,16 L-1,1 Z " fill="#8485BC" transform="translate(450,399)"/>
<path d="M0,0 L2,0 L3,8 L2,14 L4,14 L6,18 L2,17 L0,15 Z " fill="#110C2C" transform="translate(765,309)"/>
<path d="M0,0 L3,0 L3,3 L5,3 L6,0 L6,4 L1,6 L-2,10 L-8,10 L-8,9 L-3,9 L-3,3 Z " fill="#5C59A1" transform="translate(546,696)"/>
<path d="M0,0 L1,4 L-1,7 L-3,7 L-4,10 L-10,15 L-11,17 L-14,18 L-16,20 L-15,15 L-12,16 L-10,12 L-6,8 L-4,8 L-2,4 Z M-14,14 Z " fill="#9291C1" transform="translate(684,518)"/>
<path d="M0,0 L2,4 L2,25 L0,24 L-1,14 L-1,5 Z " fill="#B5B4F0" transform="translate(667,459)"/>
<path d="M0,0 L6,1 L2,4 L-2,6 L-11,6 L-10,4 Z " fill="#B0B1EB" transform="translate(588,394)"/>
<path d="M0,0 L2,1 L1,3 L-3,3 L-2,9 L-4,12 L-6,12 L-7,14 L-7,12 L-11,11 L-12,14 L-12,10 L-8,10 L-8,8 L-4,8 L-4,2 L0,2 Z " fill="#6B6C98" transform="translate(454,380)"/>
<path d="M0,0 L9,0 L9,2 L4,3 L5,8 L2,9 L0,6 Z " fill="#121640" transform="translate(435,843)"/>
<path d="M0,0 L9,1 L10,3 L7,6 L1,6 L1,2 L-1,1 Z " fill="#8485C6" transform="translate(567,626)"/>
<path d="M0,0 L1,4 L-1,4 L-1,8 L-4,10 L-5,14 L-7,14 L-7,18 L-11,17 L-8,17 L-9,13 L-6,13 L-7,7 L-5,6 L-2,7 L-3,1 L-2,3 L0,3 Z " fill="#757497" transform="translate(693,516)"/>
<path d="M0,0 L2,1 L1,6 L-2,7 L-3,9 L-3,7 L-5,7 L-5,16 L-6,16 L-6,6 Z " fill="#5B5C91" transform="translate(344,518)"/>
<path d="M0,0 L2,1 L3,6 L0,9 L-6,9 L-6,7 L-3,4 Z " fill="#8984DE" transform="translate(530,656)"/>
<path d="M0,0 L4,2 L3,6 L-2,9 L-2,7 L-4,7 L-3,3 L-1,3 Z " fill="#8282B4" transform="translate(631,584)"/>
<path d="M0,0 L1,0 L1,5 L-1,6 L-13,7 L-12,4 L-5,3 Z " fill="#8989C5" transform="translate(427,454)"/>
<path d="M0,0 Z M-2,1 L0,1 L2,10 L-2,9 L-6,5 L-6,3 Z " fill="#BABAF7" transform="translate(530,432)"/>
<path d="M0,0 L4,0 L4,5 L-1,5 L-1,7 L-4,6 L-3,2 Z " fill="#6763B6" transform="translate(539,700)"/>
<path d="M0,0 L4,1 L4,4 L14,3 L18,2 L16,5 L1,5 L-1,3 Z " fill="#7F7BD6" transform="translate(480,692)"/>
<path d="M0,0 L2,0 L3,6 L-1,11 L-3,11 L-2,3 Z " fill="#AFB0EB" transform="translate(494,433)"/>
<path d="M0,0 L1,0 L1,16 L-1,16 L-1,18 L-3,18 L-3,20 L-6,21 L-7,18 L-3,14 L-1,14 Z " fill="#05061B" transform="translate(625,752)"/>
<path d="M0,0 L2,0 L2,7 L1,8 L0,16 L-2,16 L-2,6 Z " fill="#0E0D2E" transform="translate(221,555)"/>
<path d="M0,0 L2,0 L2,5 L4,6 L0,9 L-2,12 L-3,4 L-1,3 Z " fill="#8281CC" transform="translate(395,485)"/>
<path d="M0,0 L6,0 L6,6 L0,6 Z " fill="#07081A" transform="translate(692,238)"/>
<path d="M0,0 L4,1 L4,15 L2,15 L1,18 L-1,18 L1,14 L3,14 L3,2 L1,2 L1,6 L-3,5 L0,5 Z " fill="#06041A" transform="translate(245,776)"/>
<path d="M0,0 L1,3 L3,2 L9,2 L5,3 L5,5 L10,4 L11,9 L14,10 L10,10 L8,7 L4,6 L4,4 L0,4 Z " fill="#59589A" transform="translate(402,694)"/>
<path d="M0,0 L2,0 L3,4 L8,6 L8,9 L5,9 L5,7 L2,7 L1,3 L-4,3 L-4,1 Z " fill="#6968B6" transform="translate(411,696)"/>
<path d="M0,0 L1,3 L3,3 L4,0 L4,4 L2,4 L2,10 L-1,12 L-2,18 L-3,18 L-4,9 L1,9 Z " fill="#696998" transform="translate(620,600)"/>
<path d="M0,0 L9,0 L8,4 L0,5 Z " fill="#BEC1EE" transform="translate(520,500)"/>
<path d="M0,0 L2,0 L2,9 L-1,14 L-2,14 L-2,7 Z " fill="#B5B4EF" transform="translate(669,485)"/>
<path d="M0,0 L4,1 L1,1 L1,3 L3,4 L-5,3 L-5,5 L-3,6 L-5,8 L-10,8 L-8,4 L-6,2 L0,2 Z " fill="#595994" transform="translate(362,454)"/>
<path d="M0,0 L1,0 L1,10 L-3,10 L-3,12 L-7,11 L-4,11 L-4,9 L-7,8 L-5,4 L-3,4 L-2,9 L0,9 Z " fill="#75739B" transform="translate(725,440)"/>
<path d="M0,0 L9,0 L8,4 L0,4 Z " fill="#090B24" transform="translate(653,729)"/>
<path d="M0,0 L6,0 L6,2 L10,2 L9,4 L0,4 L-4,2 L0,2 Z " fill="#100F1A" transform="translate(572,664)"/>
<path d="M0,0 L1,4 L-1,4 L-1,8 L-3,8 L-4,12 L-5,3 L-2,1 L-2,3 L0,3 Z " fill="#6B6CA0" transform="translate(615,618)"/>
<path d="M0,0 L0,3 L-5,6 L-9,8 L-12,7 L-8,6 L-6,1 Z " fill="#8A8DCF" transform="translate(570,618)"/>
<path d="M0,0 L6,0 L4,6 L0,8 Z " fill="#9495D0" transform="translate(426,466)"/>
<path d="M0,0 L1,4 L-2,7 L-6,9 L-10,11 L-9,8 L-7,7 L-6,4 L-2,4 Z " fill="#9494CE" transform="translate(459,442)"/>
<path d="M0,0 L9,0 L9,4 L2,4 L2,2 L0,2 Z " fill="#0C132D" transform="translate(492,857)"/>
<path d="M0,0 L20,0 L22,7 L20,8 L19,1 L0,1 Z M19,8 Z " fill="#0E1133" transform="translate(446,838)"/>
<path d="M0,0 L7,0 L7,2 L10,2 L10,4 L5,5 L5,3 L0,3 Z " fill="#6A6CB6" transform="translate(365,662)"/>
<path d="M0,0 L2,0 L2,5 L4,6 L2,6 L2,9 L-2,9 L-3,6 Z " fill="#7B7CB5" transform="translate(613,612)"/>
<path d="M0,0 L2,0 L2,10 L-1,12 L-2,8 L0,8 L0,5 L-2,5 Z " fill="#9799D8" transform="translate(422,498)"/>
<path d="M0,0 L1,0 L1,11 L3,12 L1,12 L1,17 L-1,17 L-2,10 L-1,9 Z " fill="#8E8BB5" transform="translate(700,478)"/>
<path d="M0,0 L1,0 L3,9 L0,17 L-1,17 L-1,4 Z " fill="#BEBDFB" transform="translate(661,475)"/>
<path d="M0,0 L2,1 L2,13 L-1,17 L-2,11 L0,11 Z " fill="#9F9CCC" transform="translate(696,432)"/>
<path d="M0,0 L6,0 L6,4 L11,5 L12,6 L12,12 L11,12 L10,7 L4,7 L5,1 L0,1 Z " fill="#6B6991" transform="translate(706,390)"/>
<path d="M0,0 L2,0 L2,8 L8,8 L8,9 L0,10 L-2,6 L0,6 Z " fill="#03030B" transform="translate(284,794)"/>
<path d="M0,0 L3,0 L3,2 L-2,6 L-5,11 L-7,11 L-6,7 Z " fill="#8485BD" transform="translate(619,595)"/>
<path d="M0,0 L8,0 L8,2 L3,4 L-1,4 L-3,1 Z " fill="#9396DC" transform="translate(588,598)"/>
<path d="M0,0 L5,5 L4,7 L2,8 L1,14 L0,14 L0,3 L-2,4 Z " fill="#8284CE" transform="translate(394,503)"/>
<path d="M0,0 L12,0 L17,1 L16,3 L7,3 L7,1 L0,1 Z " fill="#9695CD" transform="translate(528,356)"/>
<path d="M0,0 L7,0 L6,3 L-5,3 L-5,1 Z " fill="#6D6EB9" transform="translate(380,666)"/>
<path d="M0,0 L3,4 L9,4 L10,6 L9,9 L14,9 L14,10 L8,10 L6,7 L1,5 Z " fill="#565794" transform="translate(356,656)"/>
<path d="M0,0 L4,1 L0,4 L-2,4 L-3,7 L-5,6 L-12,7 L-11,5 L0,2 Z " fill="#7B7AC8" transform="translate(386,458)"/>
<path d="M0,0 L2,0 L2,2 L5,1 L3,7 L-1,8 L-2,4 Z " fill="#7D7FB7" transform="translate(439,421)"/>
<path d="M0,0 L6,0 L6,4 L-6,3 L-6,2 L0,2 Z " fill="#6B6C9D" transform="translate(504,326)"/>
<path d="M0,0 L2,3 L2,12 L0,12 L-1,10 L-1,2 Z " fill="#8B89B9" transform="translate(723,437)"/>
<path d="M0,0 L1,2 L0,4 L2,4 L0,8 L-2,8 L-2,6 L-4,6 L-5,9 L-4,4 Z " fill="#707397" transform="translate(467,361)"/>
<path d="M0,0 L2,4 L5,6 L6,11 L3,11 L4,7 L2,7 L2,9 L0,9 L-1,3 Z " fill="#7576A1" transform="translate(681,354)"/>
<path d="M0,0 L3,0 L4,2 L4,14 L3,14 L2,7 L0,6 Z " fill="#8180B6" transform="translate(669,334)"/>
<path d="M0,0 L5,0 L3,4 L-2,9 L-4,9 L-3,6 L0,4 Z " fill="#9697D6" transform="translate(600,588)"/>
<path d="M0,0 L3,1 L3,4 L-3,3 L-7,4 L-9,6 L-8,2 Z M4,1 Z " fill="#8E8EC9" transform="translate(430,458)"/>
<path d="M0,0 L3,1 L4,3 L4,13 L2,13 L1,4 Z " fill="#140D30" transform="translate(793,356)"/>
<path d="M0,0 L1,3 L5,3 L5,5 L9,6 L9,13 L8,13 L8,8 L4,8 L4,4 L0,4 Z " fill="#05051C" transform="translate(206,754)"/>
<path d="M0,0 L3,0 L3,5 L-1,9 L-2,4 Z " fill="#817CD6" transform="translate(532,665)"/>
<path d="M0,0 L7,1 L4,4 L3,2 L-2,4 L-4,6 L-5,1 Z M-5,6 Z " fill="#8586C9" transform="translate(560,630)"/>
<path d="M0,0 L3,1 L5,7 L1,7 L0,9 L-1,1 Z " fill="#8B89BA" transform="translate(705,392)"/>
<path d="M0,0 L11,0 L11,1 L1,1 L1,5 L-2,7 L-5,7 L-4,4 L0,4 Z " fill="#0E0E30" transform="translate(274,758)"/>
<path d="M0,0 L1,4 L-1,4 L-1,20 L-2,20 L-2,1 Z " fill="#1D1D2C" transform="translate(329,580)"/>
<path d="M0,0 L3,0 L3,3 L5,4 L0,7 L-2,3 Z " fill="#8080B2" transform="translate(670,552)"/>
<path d="M0,0 L3,0 L3,2 L7,2 L5,7 L3,8 L3,4 L-1,3 Z " fill="#AEAEE2" transform="translate(625,525)"/>
<path d="M0,0 L2,1 L2,10 L-1,9 L-1,7 L-3,6 L-1,6 Z " fill="#9999D5" transform="translate(427,480)"/>
<path d="M0,0 L1,0 L1,8 L-3,7 L-4,4 L-2,4 Z " fill="#100B2A" transform="translate(809,399)"/>
<path d="M0,0 L2,1 L4,13 L2,13 L2,10 L0,10 Z " fill="#140E31" transform="translate(797,380)"/>
<path d="M0,0 L3,1 L4,6 L4,13 L3,11 L1,11 L2,2 L0,2 Z " fill="#9293C9" transform="translate(664,356)"/>
<path d="M0,0 L5,1 L4,6 L1,7 L0,6 Z " fill="#7979A8" transform="translate(624,592)"/>
<path d="M0,0 L1,2 L9,2 L10,4 L6,5 L2,5 L-1,5 Z " fill="#ADAEE7" transform="translate(613,391)"/>
<path d="M0,0 L2,4 L5,6 L4,10 L4,7 L1,7 L1,9 L-1,9 Z " fill="#77769F" transform="translate(701,380)"/>
<path d="M0,0 L2,1 L2,5 L4,5 L3,8 L-1,6 L-1,1 Z " fill="#696BB7" transform="translate(394,677)"/>
<path d="M0,0 L1,0 L1,6 L0,8 L-5,10 L-5,6 L-3,6 L-2,4 Z " fill="#A1A2D6" transform="translate(629,550)"/>
<path d="M0,0 L11,0 L11,2 L2,3 L0,2 Z " fill="#10143A" transform="translate(468,845)"/>
<path d="M0,0 L3,2 L2,9 L0,9 L-1,1 Z " fill="#6A6AB8" transform="translate(399,684)"/>
<path d="M0,0 L1,0 L2,7 L0,7 L0,5 L-6,6 L-5,3 L-1,2 Z " fill="#726FB8" transform="translate(563,662)"/>
<path d="M0,0 L2,0 L0,4 L-4,9 L-6,9 L-6,7 L-4,7 L-2,2 Z " fill="#8F90D3" transform="translate(600,597)"/>
<path d="M0,0 L3,1 L2,8 L1,8 L1,3 L-1,3 L-1,10 L-2,10 L-2,2 Z " fill="#5D5D97" transform="translate(348,508)"/>
<path d="M0,0 L2,3 L2,9 L-1,9 L-1,1 Z " fill="#8C8AB4" transform="translate(693,507)"/>
<path d="M0,0 L1,4 L-6,9 L-5,4 L-1,2 Z M-7,9 Z " fill="#A1A1DC" transform="translate(465,456)"/>
<path d="M0,0 L3,0 L5,4 L4,6 L-1,7 L-2,4 L3,5 L3,3 L0,3 Z " fill="#5E5CA5" transform="translate(532,704)"/>
<path d="M0,0 L2,2 L2,5 L4,6 L2,8 L-1,8 L-1,2 Z " fill="#7476B1" transform="translate(607,624)"/>
<path d="M0,0 L2,0 L1,11 L-2,11 Z " fill="#A29FCC" transform="translate(692,461)"/>
<path d="M0,0 L2,0 L2,5 L4,6 L2,6 L2,12 L1,12 L-1,5 Z " fill="#8482B5" transform="translate(723,409)"/>
<path d="M0,0 L1,0 L1,5 L-1,8 L-3,8 L-4,4 L-2,4 Z " fill="#8588B6" transform="translate(463,369)"/>
<path d="M0,0 L3,1 L6,7 L2,6 L0,4 Z " fill="#0C0C2A" transform="translate(703,248)"/>
<path d="M0,0 L1,4 L-6,9 L-5,4 L-3,4 L-2,2 L0,3 Z " fill="#7272A0" transform="translate(671,558)"/>
<path d="M0,0 L3,0 L3,4 L-4,5 L-4,3 L0,2 Z " fill="#6B6AB9" transform="translate(425,704)"/>
<path d="M0,0 L5,0 L4,4 L-1,4 Z " fill="#7271C1" transform="translate(459,704)"/>
<path d="M0,0 L2,2 L2,5 L6,5 L6,7 L0,7 Z " fill="#0E1030" transform="translate(223,698)"/>
<path d="M0,0 L7,1 L6,5 L2,5 Z " fill="#9CA0E6" transform="translate(462,583)"/>
<path d="M0,0 L2,1 L1,6 L-1,7 L-1,5 L-3,5 L-1,1 Z " fill="#60619A" transform="translate(344,518)"/>
<path d="M0,0 L2,3 L-2,7 L-5,7 L-5,5 Z " fill="#9D9DD8" transform="translate(474,424)"/>
<path d="M0,0 L8,0 L4,3 L1,4 L-1,2 Z " fill="#A9A9E5" transform="translate(576,392)"/>
<path d="M0,0 L2,0 L2,3 L4,4 L2,4 L1,8 L1,6 L-1,6 Z " fill="#8886B4" transform="translate(697,377)"/>
<path d="M0,0 L5,3 L4,7 L4,4 L2,4 L1,6 L1,4 L-1,4 Z " fill="#737299" transform="translate(695,373)"/>
<path d="M0,0 L4,1 L1,1 L3,7 L0,9 L-1,5 Z " fill="#7576A4" transform="translate(486,342)"/>
<path d="M0,0 L5,0 L1,1 L1,3 L4,4 L1,7 L-1,7 Z " fill="#0C112D" transform="translate(424,854)"/>
<path d="M0,0 L4,1 L9,0 L8,2 L-1,5 Z " fill="#9292C9" transform="translate(646,556)"/>
<path d="M0,0 L2,4 L1,12 L-1,10 Z " fill="#B1B0EC" transform="translate(667,459)"/>
<path d="M0,0 L3,1 L-3,5 L-5,4 L-5,1 Z " fill="#9393CE" transform="translate(445,457)"/>
<path d="M0,0 L2,1 L2,9 L0,9 L-1,1 Z " fill="#7476BA" transform="translate(339,620)"/>
<path d="M0,0 L9,0 L9,2 L2,3 Z " fill="#9B9CE4" transform="translate(546,606)"/>
<path d="M0,0 L1,4 L-1,4 L-1,12 L-2,12 L-2,1 Z " fill="#131321" transform="translate(347,462)"/>
<path d="M0,0 L1,0 L1,6 L-3,7 L-2,2 Z " fill="#9A9DD5" transform="translate(466,438)"/>
<path d="M0,0 L4,0 L5,3 L0,5 Z " fill="#B4B4F4" transform="translate(504,432)"/>
<path d="M0,0 L2,0 L1,6 L-3,4 L-2,2 L0,2 Z " fill="#A8A7EA" transform="translate(491,424)"/>
<path d="M0,0 L4,2 L5,6 L2,6 L2,3 L-1,3 Z " fill="#8B8BBE" transform="translate(673,358)"/>
<path d="M0,0 L2,0 L1,4 L-5,5 L-5,3 Z " fill="#0C112C" transform="translate(349,322)"/>
<path d="M0,0 L2,0 L2,4 L0,4 L0,6 L-2,6 L-1,1 Z " fill="#9C9DD7" transform="translate(462,452)"/>
<path d="M0,0 L4,2 L3,6 L-1,5 L2,5 L2,3 L-1,3 Z " fill="#7B799E" transform="translate(713,452)"/>
<path d="M0,0 L3,0 L3,2 L7,3 L-3,3 Z " fill="#C6C8FC" transform="translate(593,420)"/>
<path d="M0,0 L6,0 L5,3 L0,3 Z " fill="#0F1434" transform="translate(355,855)"/>
<path d="M0,0 L2,3 L0,5 L-3,4 L-6,2 L0,2 Z " fill="#0D102F" transform="translate(436,850)"/>
<path d="M0,0 L5,0 L6,5 L4,4 L4,2 L0,2 Z " fill="#151649" transform="translate(287,757)"/>
<path d="M0,0 L1,0 L2,12 L0,13 L-2,11 L0,11 Z " fill="#6769B1" transform="translate(357,644)"/>
<path d="M0,0 L5,1 L3,4 L0,4 Z " fill="#A7A7DD" transform="translate(638,528)"/>
<path d="M0,0 L2,0 L1,5 L-2,7 Z " fill="#A19ECC" transform="translate(695,450)"/>
<path d="M0,0 L3,1 L1,5 L-2,5 Z " fill="#A5A5EC" transform="translate(500,395)"/>
<path d="M0,0 L4,0 L4,4 L0,4 Z " fill="#0B0C26" transform="translate(693,239)"/>
<path d="M0,0 L7,0 L6,3 L0,2 Z " fill="#0E0E32" transform="translate(294,823)"/>
<path d="M0,0 L7,0 L7,2 L2,3 L0,2 Z " fill="#0E0F30" transform="translate(222,671)"/>
<path d="M0,0 L1,4 L-4,7 L-5,4 L0,3 Z " fill="#71719D" transform="translate(633,586)"/>
<path d="M0,0 L2,0 L0,9 L-1,9 L-1,1 Z " fill="#8988B5" transform="translate(681,530)"/>
<path d="M0,0 L4,0 L4,5 L2,5 L2,2 L0,2 Z " fill="#0E1433" transform="translate(367,861)"/>
<path d="M0,0 L3,0 L3,6 L-1,1 Z " fill="#7E7BC8" transform="translate(549,654)"/>
<path d="M0,0 L4,2 L0,5 L-1,1 Z " fill="#7778A9" transform="translate(661,566)"/>
<path d="M0,0 L1,4 L-4,7 L-5,4 L0,3 Z " fill="#7B799C" transform="translate(711,458)"/>
<path d="M0,0 L3,0 L1,4 L-2,4 Z M-3,4 Z " fill="#A1A2DA" transform="translate(469,444)"/>
<path d="M0,0 L2,0 L1,4 L-2,6 L-2,2 L0,2 Z " fill="#A3A4DE" transform="translate(478,432)"/>
<path d="M0,0 L3,0 L1,4 L-2,4 L-2,1 Z " fill="#A6A7E0" transform="translate(570,392)"/>
<path d="M0,0 L3,1 L-2,5 L-3,3 Z " fill="#9898D6" transform="translate(482,386)"/>
<path d="M0,0 L3,1 L2,5 L0,5 Z " fill="#0D1230" transform="translate(351,859)"/>
<path d="M0,0 L6,0 L6,2 L1,3 Z " fill="#110F35" transform="translate(263,761)"/>
<path d="M0,0 L5,0 L1,3 L-3,3 L-2,1 Z " fill="#9798DC" transform="translate(559,606)"/>
<path d="M0,0 L4,2 L2,2 L2,5 L0,5 L-1,1 Z " fill="#7F7FB4" transform="translate(621,598)"/>
<path d="M0,0 L1,0 L1,5 L-3,6 L-1,1 Z " fill="#0D0B2B" transform="translate(214,582)"/>
<path d="M0,0 L1,4 L-2,8 L-2,3 Z " fill="#9592BE" transform="translate(695,492)"/>
<path d="M0,0 L3,1 L2,8 L1,8 Z " fill="#7F7ECA" transform="translate(392,489)"/>
<path d="M0,0 L3,1 L4,6 L2,6 L2,3 L0,3 Z " fill="#130D2F" transform="translate(801,395)"/>
<path d="M0,0 L4,0 L4,3 L0,4 Z " fill="#A4A6E1" transform="translate(556,393)"/>
<path d="M0,0 L2,0 L0,4 L-2,6 L-1,1 Z " fill="#04040D" transform="translate(312,780)"/>
<path d="M0,0 L3,2 L2,5 L0,5 L-1,1 Z " fill="#6C6CB6" transform="translate(387,668)"/>
<path d="M0,0 L2,0 L0,4 L-2,6 L-1,1 Z " fill="#030208" transform="translate(210,594)"/>
<path d="M0,0 L3,1 L0,4 L-2,3 L-2,1 Z " fill="#A6A7E1" transform="translate(464,465)"/>
<path d="M0,0 L4,1 L1,4 L-1,3 Z " fill="#6C6AB5" transform="translate(353,461)"/>
<path d="M0,0 L2,0 L1,4 L-2,3 L-2,1 Z " fill="#8384B1" transform="translate(478,354)"/>
<path d="M0,0 L1,2 L3,2 L2,5 L-1,4 Z " fill="#7575AF" transform="translate(562,321)"/>
<path d="M0,0 L2,0 L1,3 L-4,4 Z " fill="#030422" transform="translate(360,253)"/>
<path d="M0,0 L3,1 L2,4 L-1,3 Z " fill="#0D1330" transform="translate(419,861)"/>
<path d="M0,0 L4,0 L2,4 Z " fill="#0E1334" transform="translate(363,859)"/>
<path d="M0,0 L3,1 L2,4 L0,4 L-1,1 Z " fill="#0F1339" transform="translate(437,848)"/>
<path d="M0,0 L4,0 L3,3 L0,3 Z " fill="#0B0D26" transform="translate(663,725)"/>
<path d="M0,0 L3,1 L0,4 L-2,4 Z " fill="#7D7ACC" transform="translate(544,663)"/>
<path d="M0,0 L3,0 L2,4 L-1,2 Z " fill="#A3A3E9" transform="translate(554,594)"/>
<path d="M0,0 L4,0 L4,2 L0,3 Z M-1,3 Z " fill="#8E8EC2" transform="translate(636,565)"/>
<path d="M0,0 L4,1 L-1,4 Z " fill="#A7A7E3" transform="translate(441,496)"/>
<path d="M0,0 L2,0 L2,3 L-2,4 L-2,1 Z " fill="#9999CF" transform="translate(626,356)"/>
<path d="M0,0 L3,1 L2,5 L0,4 Z " fill="#040522" transform="translate(735,266)"/>
<path d="M0,0 L3,1 L3,4 L1,4 L1,2 L-1,1 Z " fill="#0C0C2E" transform="translate(288,809)"/>
<path d="M0,0 L4,0 L3,4 Z " fill="#6161AA" transform="translate(417,705)"/>
<path d="M0,0 L2,1 L2,5 L0,5 L-1,1 Z " fill="#716EBF" transform="translate(550,674)"/>
<path d="M0,0 L1,4 L-2,4 L-2,1 Z " fill="#0F0F17" transform="translate(329,580)"/>
</svg>
