<?xml version="1.0" encoding="UTF-8"?>
<!-- Generator: visioncortex VTracer 0.6.4 -->
<svg version="1.1" xmlns="http://www.w3.org/2000/svg" width="1024" height="1024">
<path d="M0,0 L1024,0 L1024,1024 L0,1024 Z " fill="#000000" transform="translate(0,0)"/>
<path d="M0,0 L16,0 L16,2 L44,2 L44,4 L54,4 L54,6 L76,6 L76,8 L82,8 L82,10 L94,10 L98,12 L104,12 L108,17 L112,18 L112,22 L114,22 L114,26 L116,26 L116,30 L118,30 L120,35 L122,36 L122,44 L124,44 L124,48 L126,48 L128,53 L132,56 L132,70 L136,72 L141,77 L146,78 L146,80 L152,80 L158,86 L158,88 L162,88 L162,90 L167,91 L168,94 L174,94 L180,101 L182,102 L182,108 L184,108 L184,128 L182,128 L182,132 L180,132 L180,136 L178,136 L178,140 L180,140 L180,144 L184,146 L184,148 L189,149 L190,154 L192,154 L192,158 L196,158 L196,160 L201,161 L202,164 L206,164 L206,166 L211,167 L212,172 L214,172 L214,174 L218,174 L218,178 L220,178 L220,186 L222,186 L222,194 L220,194 L220,200 L216,204 L210,204 L210,208 L208,208 L208,212 L206,212 L206,214 L200,214 L200,216 L192,217 L189,220 L185,222 L184,228 L182,228 L182,290 L184,290 L184,294 L190,294 L190,296 L198,296 L198,298 L202,298 L204,303 L208,304 L208,308 L210,308 L212,313 L216,316 L216,322 L218,322 L218,334 L220,334 L220,350 L218,350 L218,354 L216,354 L216,358 L209,360 L208,362 L204,362 L204,364 L192,364 L192,362 L182,362 L182,360 L178,360 L178,358 L174,358 L172,355 L168,354 L168,352 L166,352 L166,354 L150,354 L150,352 L140,352 L140,354 L132,354 L132,352 L124,352 L124,358 L118,358 L116,355 L112,354 L112,352 L104,352 L104,346 L108,346 L108,344 L100,344 L100,336 L84,336 L84,338 L70,338 L70,336 L68,336 L68,338 L60,338 L60,336 L40,336 L40,338 L28,338 L28,336 L20,336 L20,338 L14,338 L14,336 L0,336 L0,338 L-18,338 L-18,334 L-28,334 L-28,330 L-36,330 L-42,323 L-48,322 L-48,320 L-54,320 L-54,318 L-58,318 L-58,316 L-60,316 L-60,312 L-65,311 L-68,308 L-68,298 L-70,298 L-70,294 L-74,294 L-74,298 L-80,298 L-82,296 L-82,290 L-84,290 L-84,284 L-86,284 L-87,272 L-92,270 L-94,267 L-100,266 L-100,264 L-112,264 L-114,260 L-124,260 L-124,258 L-130,258 L-134,254 L-134,250 L-136,250 L-138,245 L-140,243 L-144,242 L-144,240 L-146,240 L-146,230 L-152,230 L-152,234 L-168,234 L-168,238 L-192,238 L-192,254 L-188,254 L-188,258 L-184,258 L-184,268 L-188,268 L-188,272 L-186,272 L-186,282 L-188,282 L-188,286 L-196,286 L-196,280 L-194,280 L-194,270 L-202,270 L-202,264 L-204,264 L-204,230 L-202,230 L-202,226 L-204,226 L-204,214 L-206,214 L-206,210 L-208,210 L-208,202 L-206,202 L-206,200 L-210,200 L-210,196 L-212,196 L-212,132 L-214,132 L-214,98 L-212,98 L-212,94 L-210,94 L-210,90 L-206,90 L-206,88 L-208,88 L-208,82 L-206,80 L-182,80 L-182,82 L-180,82 L-180,90 L-176,90 L-176,92 L-172,92 L-172,94 L-162,94 L-162,96 L-158,96 L-158,98 L-154,98 L-154,104 L-148,104 L-148,106 L-144,106 L-144,104 L-142,104 L-142,98 L-138,98 L-136,94 L-134,94 L-134,90 L-132,90 L-132,86 L-128,86 L-128,82 L-126,82 L-126,74 L-124,74 L-124,64 L-122,62 L-114,62 L-114,54 L-112,54 L-112,46 L-108,46 L-108,44 L-96,44 L-96,42 L-92,42 L-92,34 L-86,28 L-82,28 L-82,22 L-80,20 L-72,20 L-72,18 L-62,18 L-61,13 L-58,10 L-48,10 L-48,8 L-20,8 L-20,6 L-12,6 L-12,4 L-6,4 L-6,2 L0,2 Z " fill="#408F6A" transform="translate(526,244)"/>
<path d="M0,0 L8,0 L12,4 L12,6 L26,6 L26,8 L30,8 L30,18 L32,18 L34,23 L38,26 L38,36 L40,36 L40,46 L44,46 L45,54 L48,56 L48,60 L62,60 L64,62 L64,66 L68,68 L70,73 L74,74 L74,76 L82,76 L82,78 L88,78 L88,92 L90,92 L92,97 L96,100 L96,104 L98,104 L100,109 L104,112 L104,122 L106,122 L106,126 L114,126 L114,128 L116,128 L116,140 L114,140 L114,142 L108,142 L108,146 L106,146 L106,148 L114,148 L114,150 L118,150 L118,158 L120,158 L121,165 L126,170 L126,172 L132,172 L132,178 L134,178 L134,184 L136,184 L136,198 L134,198 L134,200 L128,200 L128,196 L126,196 L126,184 L124,184 L124,180 L122,180 L122,176 L120,176 L120,184 L118,184 L118,186 L110,186 L110,184 L105,183 L104,180 L96,180 L96,178 L92,178 L92,176 L90,176 L90,172 L88,172 L88,168 L86,168 L84,160 L78,160 L78,158 L76,158 L76,150 L78,148 L84,148 L84,136 L78,136 L78,126 L84,126 L84,116 L78,116 L78,104 L76,104 L76,100 L70,100 L70,98 L66,98 L66,92 L54,92 L54,90 L52,90 L52,92 L48,96 L42,96 L42,92 L38,92 L38,90 L34,90 L34,88 L32,88 L32,74 L34,74 L34,70 L26,70 L26,68 L24,68 L24,64 L22,64 L22,48 L23,46 L21,46 L20,44 L19,35 L16,32 L16,30 L10,30 L10,24 L16,24 L16,20 L10,20 L10,18 L2,18 L2,16 L-4,16 L-4,14 L-8,14 L-8,12 L-12,12 L-12,4 L0,4 Z " fill="#012D20" transform="translate(646,228)"/>
<path d="M0,0 L16,0 L16,2 L44,2 L44,4 L54,4 L54,6 L76,6 L76,8 L82,8 L82,10 L94,10 L98,12 L104,12 L108,17 L112,18 L112,22 L114,22 L114,26 L116,26 L116,30 L118,30 L120,35 L122,36 L122,44 L124,44 L124,48 L126,48 L128,53 L132,56 L132,70 L136,72 L141,77 L146,78 L146,80 L152,80 L158,86 L158,88 L162,88 L162,90 L167,91 L168,94 L174,94 L180,101 L182,102 L182,108 L184,108 L184,128 L182,128 L182,132 L180,132 L180,136 L178,136 L178,140 L180,140 L180,144 L184,146 L184,148 L189,149 L190,154 L192,154 L192,158 L196,158 L196,160 L201,161 L202,164 L206,164 L206,166 L211,167 L212,172 L214,172 L214,174 L218,174 L218,178 L220,178 L220,186 L222,186 L222,194 L220,194 L220,200 L216,204 L210,204 L210,208 L208,208 L208,212 L206,212 L206,214 L200,214 L200,216 L192,217 L189,220 L185,222 L184,228 L182,228 L182,290 L184,290 L184,294 L190,294 L190,296 L198,296 L198,298 L202,298 L204,303 L208,304 L208,308 L210,308 L212,313 L216,316 L216,322 L218,322 L218,334 L220,334 L220,350 L218,350 L218,354 L216,354 L216,358 L210,358 L210,357 L215,357 L214,352 L217,353 L216,348 L217,348 L217,336 L216,336 L215,324 L214,322 L215,317 L210,316 L210,313 L208,313 L209,309 L206,310 L206,308 L197,306 L197,304 L195,304 L195,302 L188,302 L181,300 L181,298 L178,297 L176,291 L172,289 L170,285 L171,240 L172,216 L174,216 L174,213 L181,213 L182,205 L183,204 L197,202 L201,198 L207,197 L212,192 L214,192 L212,185 L212,180 L208,180 L204,176 L204,173 L200,173 L200,171 L197,170 L197,168 L191,168 L187,164 L182,161 L178,158 L178,151 L172,149 L170,128 L170,126 L172,126 L171,122 L175,119 L175,107 L173,104 L173,101 L169,102 L168,104 L166,104 L166,106 L162,107 L159,98 L156,93 L146,91 L144,89 L139,88 L139,86 L137,86 L137,83 L129,82 L127,78 L127,75 L124,76 L120,72 L118,56 L117,52 L115,43 L114,40 L111,37 L110,32 L107,29 L107,25 L105,25 L105,22 L101,23 L99,26 L98,31 L90,31 L87,30 L86,26 L82,25 L82,20 L77,19 L77,15 L75,15 L75,11 L50,10 L36,7 L24,6 L24,4 L3,5 L-5,8 L-9,12 L-11,13 L-55,12 L-56,13 L-52,14 L-59,16 L-61,15 L-60,21 L-61,19 L-67,20 L-71,19 L-71,21 L-79,21 L-79,23 L-72,23 L-75,25 L-71,26 L-71,28 L-78,30 L-82,30 L-87,30 L-86,28 L-82,28 L-82,22 L-80,20 L-72,20 L-72,18 L-62,18 L-61,13 L-58,10 L-48,10 L-48,8 L-20,8 L-20,6 L-12,6 L-12,4 L-6,4 L-6,2 L0,2 Z " fill="#3B826A" transform="translate(526,244)"/>
<path d="M0,0 L2,4 L1,5 L0,13 L-3,13 L-4,16 L-8,18 L-19,19 L-22,30 L-19,31 L-21,37 L-23,37 L-24,33 L-26,36 L-31,37 L-32,47 L-24,46 L-20,41 L-19,46 L-19,53 L-7,52 L-7,55 L-12,54 L-14,58 L-16,59 L-19,58 L-19,68 L-20,71 L-21,78 L-23,79 L-24,62 L-23,60 L-31,60 L-32,61 L-32,68 L-35,70 L-39,67 L-42,72 L-39,75 L-43,79 L-49,79 L-53,82 L-53,79 L-66,82 L-72,83 L-74,82 L-75,85 L-75,82 L-77,82 L-76,87 L-78,94 L-83,98 L-86,98 L-86,100 L-84,101 L-89,104 L-97,106 L-101,105 L-109,106 L-111,105 L-111,103 L-113,103 L-112,108 L-114,109 L-115,101 L-113,101 L-114,96 L-98,99 L-97,95 L-87,91 L-85,88 L-85,83 L-91,79 L-91,77 L-93,77 L-93,73 L-95,73 L-95,71 L-100,70 L-109,70 L-113,76 L-113,87 L-116,94 L-117,96 L-117,107 L-118,116 L-119,121 L-119,142 L-118,145 L-119,150 L-119,157 L-118,159 L-119,164 L-116,172 L-115,181 L-117,181 L-116,184 L-118,184 L-118,180 L-120,180 L-120,172 L-118,172 L-118,170 L-122,170 L-122,166 L-124,166 L-124,102 L-126,102 L-126,68 L-124,68 L-124,64 L-122,64 L-122,60 L-118,60 L-118,58 L-120,58 L-120,52 L-118,50 L-94,50 L-94,52 L-92,52 L-92,60 L-88,60 L-88,62 L-84,62 L-84,64 L-74,64 L-74,66 L-70,66 L-70,68 L-66,68 L-66,74 L-60,74 L-60,76 L-56,76 L-56,74 L-54,74 L-54,68 L-50,68 L-48,64 L-46,64 L-46,60 L-44,60 L-44,56 L-40,56 L-40,52 L-38,52 L-38,44 L-36,44 L-36,34 L-34,32 L-26,32 L-26,24 L-24,24 L-24,16 L-20,16 L-20,14 L-8,14 L-8,12 L-4,12 L-4,4 Z M-100,103 Z M-54,82 Z " fill="#4C8C6C" transform="translate(438,274)"/>
<path d="M0,0 L1,0 L1,11 L3,11 L3,0 L5,3 L4,10 L7,11 L6,22 L11,23 L13,20 L25,20 L23,17 L22,14 L29,12 L33,15 L28,21 L35,19 L36,16 L48,16 L53,12 L59,12 L59,14 L61,15 L62,24 L64,24 L64,26 L68,28 L76,39 L81,41 L90,42 L93,45 L104,46 L104,48 L110,48 L113,51 L117,53 L120,54 L120,57 L124,56 L125,61 L123,63 L124,66 L123,69 L125,71 L124,74 L127,75 L127,76 L137,76 L138,83 L140,83 L141,94 L144,95 L145,97 L148,98 L150,101 L159,102 L162,104 L162,106 L166,107 L169,111 L176,112 L177,119 L203,119 L204,118 L219,118 L220,116 L222,116 L223,119 L224,118 L234,118 L234,120 L242,119 L243,118 L264,118 L264,120 L271,118 L276,118 L276,120 L278,120 L278,118 L281,118 L281,120 L288,120 L288,118 L305,118 L305,121 L305,129 L315,129 L320,126 L320,124 L327,126 L327,129 L330,130 L329,133 L328,134 L339,134 L339,136 L347,133 L347,127 L348,124 L353,126 L356,129 L356,132 L355,135 L369,135 L373,135 L376,135 L377,128 L378,128 L379,136 L385,138 L387,142 L389,143 L389,145 L387,145 L387,147 L396,146 L409,146 L411,147 L411,144 L413,144 L412,148 L408,148 L408,150 L396,150 L396,148 L386,148 L386,146 L382,146 L382,144 L378,144 L376,141 L372,140 L372,138 L370,138 L370,140 L354,140 L354,138 L344,138 L344,140 L336,140 L336,138 L328,138 L328,144 L322,144 L320,141 L316,140 L316,138 L308,138 L308,132 L312,132 L312,130 L304,130 L304,122 L288,122 L288,124 L274,124 L274,122 L272,122 L272,124 L264,124 L264,122 L244,122 L244,124 L232,124 L232,122 L224,122 L224,124 L218,124 L218,122 L204,122 L204,124 L186,124 L186,120 L176,120 L176,116 L168,116 L162,109 L156,108 L156,106 L150,106 L150,104 L146,104 L146,102 L144,102 L144,98 L139,97 L136,94 L136,84 L134,84 L134,80 L130,80 L130,84 L124,84 L122,82 L122,76 L120,76 L120,70 L118,70 L117,58 L112,56 L110,53 L104,52 L104,50 L92,50 L90,46 L80,46 L80,44 L74,44 L70,40 L70,36 L68,36 L66,31 L64,29 L60,28 L60,26 L58,26 L58,16 L52,16 L52,20 L36,20 L36,24 L12,24 L12,40 L16,40 L16,44 L20,44 L20,54 L16,54 L16,58 L18,58 L18,68 L16,68 L16,72 L8,72 L8,66 L10,66 L10,56 L2,56 L2,50 L0,50 L0,16 L2,16 L2,12 L0,12 Z " fill="#326F56" transform="translate(322,458)"/>
<path d="M0,0 L12,0 L12,4 L16,5 L16,7 L23,8 L23,10 L29,10 L29,14 L36,14 L37,17 L36,30 L38,30 L39,36 L38,43 L45,42 L46,43 L46,55 L50,56 L49,63 L52,68 L54,77 L54,82 L84,81 L85,84 L89,83 L91,91 L96,94 L97,103 L99,103 L102,111 L104,115 L104,120 L106,120 L108,124 L110,127 L109,132 L109,141 L111,140 L110,146 L113,146 L114,149 L117,150 L117,156 L114,158 L115,166 L116,167 L125,168 L125,170 L130,171 L130,179 L129,181 L121,181 L121,179 L116,178 L115,175 L107,175 L107,173 L103,173 L103,171 L101,171 L101,167 L99,167 L99,163 L97,163 L95,155 L89,155 L89,153 L87,153 L87,145 L89,143 L95,143 L95,131 L89,131 L89,121 L95,121 L95,111 L89,111 L89,99 L87,99 L87,95 L81,95 L81,93 L77,93 L77,87 L65,87 L65,85 L63,85 L63,87 L59,91 L53,91 L53,87 L49,87 L49,85 L45,85 L45,83 L43,83 L43,69 L45,69 L45,65 L37,65 L37,63 L35,63 L35,59 L33,59 L33,43 L34,41 L32,41 L31,39 L30,30 L27,27 L27,25 L21,25 L21,19 L27,19 L27,15 L21,15 L21,13 L13,13 L13,11 L7,11 L7,9 L3,9 L3,6 L0,6 Z M82,82 Z " fill="#043C2B" transform="translate(635,233)"/>
<path d="M0,0 L8,0 L11,1 L26,2 L30,3 L30,5 L65,6 L71,8 L71,10 L73,10 L74,14 L78,15 L79,20 L82,21 L83,25 L94,26 L94,21 L98,20 L100,21 L103,26 L103,28 L98,30 L96,34 L96,42 L94,40 L94,37 L92,37 L90,35 L86,34 L84,30 L84,27 L74,27 L72,24 L72,20 L65,20 L60,21 L58,20 L56,24 L51,24 L47,21 L30,21 L25,23 L23,25 L17,23 L12,25 L10,25 L8,26 L8,21 L2,24 L0,23 L0,20 L-2,19 L-2,23 L-6,22 L-5,20 L-17,21 L-19,23 L-27,23 L-36,21 L-47,21 L-52,26 L-56,28 L-57,20 L-55,16 L-48,14 L-18,14 L-14,13 L-13,9 L-11,9 L-11,7 L-5,3 Z M-23,20 L-24,22 L-21,21 Z " fill="#499772" transform="translate(530,249)"/>
<path d="M0,0 L9,0 L9,5 L13,7 L20,12 L20,14 L28,15 L31,18 L31,20 L35,20 L35,23 L37,23 L38,39 L37,41 L30,42 L30,45 L28,45 L27,48 L15,50 L9,50 L8,53 L5,55 L3,60 L1,60 L1,63 L-1,64 L-1,75 L-3,82 L-5,86 L-7,82 L-6,75 L-4,75 L-4,67 L-7,67 L-6,59 L-3,59 L-3,56 L3,55 L3,51 L1,50 L5,48 L5,45 L8,45 L9,42 L1,43 L3,39 L4,32 L2,29 L-1,32 L-11,31 L-11,26 L-19,26 L-19,24 L-16,21 L-14,21 L-15,15 L-11,11 L-6,11 L-4,7 L-1,6 Z " fill="#469178" transform="translate(695,397)"/>
<path d="M0,0 L16,0 L16,2 L44,2 L44,4 L54,4 L54,6 L76,6 L76,8 L82,8 L82,10 L94,10 L98,12 L104,12 L108,17 L112,18 L112,22 L114,22 L114,26 L116,26 L116,30 L118,30 L120,35 L122,36 L122,44 L124,44 L124,48 L126,48 L128,53 L132,56 L132,70 L136,72 L141,77 L146,78 L146,80 L152,80 L158,86 L158,88 L162,88 L162,90 L167,91 L168,94 L174,94 L180,101 L182,102 L182,108 L184,108 L184,128 L183,128 L183,109 L180,110 L178,106 L176,105 L173,100 L172,99 L163,99 L163,97 L159,95 L154,89 L146,88 L139,84 L139,81 L132,81 L130,79 L128,72 L128,63 L124,62 L124,60 L126,60 L121,55 L120,44 L120,38 L116,37 L111,31 L108,23 L105,21 L100,22 L98,24 L97,28 L89,27 L88,21 L86,20 L86,16 L84,16 L84,14 L75,13 L75,11 L50,10 L36,7 L24,6 L24,4 L3,5 L-5,8 L-9,12 L-11,13 L-55,12 L-56,13 L-52,14 L-59,16 L-61,15 L-60,21 L-61,19 L-67,20 L-71,19 L-71,21 L-79,21 L-79,23 L-72,23 L-75,25 L-71,26 L-71,28 L-78,30 L-82,30 L-87,30 L-86,28 L-82,28 L-82,22 L-80,20 L-72,20 L-72,18 L-62,18 L-61,13 L-58,10 L-48,10 L-48,8 L-20,8 L-20,6 L-12,6 L-12,4 L-6,4 L-6,2 L0,2 Z " fill="#387F5E" transform="translate(526,244)"/>
<path d="M0,0 L10,0 L12,1 L13,10 L20,12 L23,21 L25,21 L24,28 L26,28 L28,33 L28,44 L25,47 L22,47 L21,51 L17,52 L5,52 L2,51 L2,49 L-1,48 L-5,39 L-5,35 L-8,34 L-13,24 L-13,10 L-11,7 L-9,7 L-8,3 L-3,3 Z " fill="#45837B" transform="translate(713,549)"/>
<path d="M0,0 L2,4 L1,5 L0,13 L-3,13 L-4,16 L-8,18 L-19,19 L-22,30 L-19,31 L-21,37 L-23,37 L-24,33 L-26,36 L-31,37 L-32,47 L-24,46 L-20,41 L-19,46 L-19,53 L-7,52 L-7,55 L-12,54 L-14,58 L-16,59 L-19,58 L-19,68 L-20,71 L-21,78 L-23,79 L-24,62 L-23,60 L-31,60 L-32,61 L-32,68 L-35,70 L-39,67 L-42,72 L-39,75 L-43,79 L-49,79 L-53,82 L-53,79 L-66,82 L-72,83 L-72,80 L-77,79 L-78,75 L-81,74 L-81,71 L-84,71 L-85,73 L-86,68 L-90,67 L-95,64 L-95,62 L-103,62 L-103,60 L-106,60 L-104,56 L-103,55 L-106,53 L-96,53 L-96,51 L-119,52 L-118,50 L-94,50 L-94,52 L-92,52 L-92,60 L-88,60 L-88,62 L-84,62 L-84,64 L-74,64 L-74,66 L-70,66 L-70,68 L-66,68 L-66,74 L-60,74 L-60,76 L-56,76 L-56,74 L-54,74 L-54,68 L-50,68 L-48,64 L-46,64 L-46,60 L-44,60 L-44,56 L-40,56 L-40,52 L-38,52 L-38,44 L-36,44 L-36,34 L-34,32 L-26,32 L-26,24 L-24,24 L-24,16 L-20,16 L-20,14 L-8,14 L-8,12 L-4,12 L-4,4 Z M-54,82 Z " fill="#468467" transform="translate(438,274)"/>
<path d="M0,0 L8,0 L12,4 L12,6 L26,6 L26,8 L30,8 L30,18 L32,18 L34,23 L38,26 L38,36 L40,36 L40,46 L44,46 L45,54 L48,56 L48,60 L62,60 L64,62 L64,66 L68,68 L70,73 L74,74 L74,76 L63,76 L62,79 L56,81 L48,79 L44,79 L41,76 L37,67 L39,61 L35,60 L34,48 L30,47 L29,49 L27,48 L27,35 L25,35 L25,20 L18,19 L18,15 L12,15 L12,13 L5,12 L5,10 L1,9 L1,5 L-11,5 L-11,11 L-8,12 L-12,12 L-12,4 L0,4 Z M66,69 L63,74 L66,75 L67,69 Z " fill="#012A18" transform="translate(646,228)"/>
<path d="M0,0 L6,0 L6,88 L4,88 L4,130 L6,130 L6,140 L-4,140 L-4,134 L-6,134 L-6,74 L-4,74 L-4,50 L-2,50 L-2,46 L0,46 L0,36 L-2,36 L-2,8 L0,8 Z " fill="#072C20" transform="translate(792,462)"/>
<path d="M0,0 L6,0 L6,16 L1,16 L1,18 L6,18 L6,34 L4,34 L4,36 L0,36 L0,38 L-2,38 L-2,42 L-4,42 L-4,52 L-8,52 L-8,54 L-14,54 L-14,56 L-24,56 L-24,54 L-26,54 L-26,34 L-24,32 L-18,32 L-18,30 L-22,30 L-22,28 L-28,28 L-28,22 L-22,22 L-22,24 L-16,24 L-14,20 L-12,20 L-12,16 L-10,16 L-10,2 L0,2 Z " fill="#093026" transform="translate(372,266)"/>
<path d="M0,0 L4,0 L4,4 L6,4 L6,12 L8,12 L8,20 L6,20 L6,26 L2,30 L-4,30 L-4,34 L-6,34 L-6,38 L-8,38 L-8,40 L-14,40 L-14,42 L-22,43 L-25,46 L-29,48 L-30,54 L-32,54 L-32,116 L-30,116 L-30,120 L-24,120 L-24,122 L-16,122 L-16,124 L-12,124 L-10,129 L-6,130 L-6,134 L-4,134 L-2,139 L2,142 L2,148 L4,148 L4,160 L6,160 L6,176 L4,176 L4,180 L2,180 L2,184 L-4,184 L-4,183 L1,183 L0,178 L3,179 L2,174 L3,174 L3,162 L2,162 L1,150 L0,148 L1,143 L-4,142 L-4,139 L-6,139 L-5,135 L-8,136 L-8,134 L-17,132 L-17,130 L-19,130 L-19,128 L-26,128 L-33,126 L-33,124 L-36,123 L-38,117 L-41,116 L-41,83 L-40,64 L-39,58 L-37,54 L-34,47 L-33,42 L-24,39 L-24,37 L-15,37 L-15,34 L-13,34 L-12,30 L-7,28 L-4,25 L1,24 L3,21 L3,24 L5,24 L4,21 L4,5 L2,5 L3,1 Z " fill="#347B68" transform="translate(740,418)"/>
<path d="M0,0 L21,0 L21,2 L33,2 L40,3 L47,5 L68,6 L72,7 L72,9 L66,8 L39,7 L31,6 L31,4 L12,3 L9,2 L1,2 L-4,5 L-8,8 L-10,8 L-10,10 L-12,10 L-13,14 L-17,16 L-47,16 L-54,18 L-55,26 L-54,29 L-52,30 L-53,38 L-54,39 L-54,54 L-57,57 L-63,57 L-64,49 L-62,42 L-65,41 L-66,25 L-66,21 L-69,21 L-70,24 L-74,24 L-74,22 L-81,21 L-82,17 L-74,17 L-74,15 L-64,15 L-64,11 L-59,10 L-58,7 L-14,8 L-9,6 L-8,3 Z " fill="#448767" transform="translate(529,248)"/>
<path d="M0,0 L7,0 L13,3 L13,7 L16,6 L26,8 L26,6 L28,6 L28,3 L33,4 L38,11 L39,19 L43,18 L43,16 L45,16 L46,13 L50,13 L53,19 L53,31 L49,35 L49,38 L45,37 L45,35 L41,36 L36,38 L35,42 L33,47 L30,48 L30,54 L26,57 L25,50 L26,44 L25,42 L26,40 L24,39 L26,35 L28,35 L26,27 L25,13 L22,12 L15,12 L15,9 L3,9 L0,8 L-2,11 L-2,9 L-7,11 L-7,8 L-4,7 L-4,4 L1,4 L5,3 L5,1 L0,1 Z " fill="#489272" transform="translate(649,332)"/>
<path d="M0,0 L8,0 L11,1 L26,2 L30,3 L30,5 L65,6 L71,8 L71,10 L73,10 L74,14 L78,15 L79,20 L82,21 L83,25 L94,26 L94,21 L98,20 L100,21 L103,26 L103,28 L98,30 L96,34 L96,42 L94,40 L94,37 L92,37 L90,35 L86,34 L84,30 L84,27 L74,27 L72,24 L72,19 L67,17 L64,15 L65,9 L46,9 L23,7 L11,5 L-3,5 L-3,7 L-6,8 L-7,15 L-10,17 L-16,17 L-16,19 L-23,20 L-30,22 L-38,21 L-47,21 L-52,26 L-56,28 L-57,20 L-55,16 L-48,14 L-18,14 L-14,13 L-13,9 L-11,9 L-11,7 L-5,3 Z " fill="#498F6D" transform="translate(530,249)"/>
<path d="M0,0 L9,1 L9,3 L11,3 L11,7 L14,8 L14,14 L22,15 L23,10 L26,7 L31,8 L35,11 L38,20 L42,24 L45,25 L46,31 L47,42 L51,45 L51,47 L49,47 L49,49 L53,50 L55,62 L57,67 L64,68 L64,71 L68,72 L71,74 L79,75 L86,83 L88,84 L88,86 L97,85 L101,89 L101,92 L105,91 L106,96 L108,96 L108,115 L106,115 L106,118 L104,118 L104,116 L102,116 L102,118 L100,118 L97,128 L96,128 L95,113 L97,113 L96,109 L100,106 L100,94 L98,91 L98,88 L94,89 L93,91 L91,91 L91,93 L87,94 L84,85 L81,80 L71,78 L69,76 L64,75 L64,73 L62,73 L62,70 L54,69 L52,65 L52,62 L49,63 L45,59 L43,43 L42,39 L40,30 L39,27 L36,24 L35,19 L32,16 L32,12 L30,12 L30,9 L26,10 L24,13 L23,18 L15,18 L12,17 L11,13 L7,12 L7,7 L2,6 L2,2 L0,2 Z " fill="#418466" transform="translate(601,257)"/>
<path d="M0,0 L1,2 L3,2 L3,0 L6,0 L6,2 L13,2 L13,0 L30,0 L30,3 L30,11 L40,11 L45,8 L45,6 L52,8 L52,11 L55,12 L54,15 L53,16 L64,16 L64,18 L72,15 L72,9 L73,6 L78,8 L81,11 L81,14 L80,17 L94,17 L98,17 L101,17 L102,10 L103,10 L104,18 L110,20 L112,24 L114,25 L114,27 L112,27 L112,29 L121,28 L134,28 L136,29 L136,26 L138,26 L137,30 L133,30 L133,32 L121,32 L121,30 L111,30 L111,28 L107,28 L107,26 L103,26 L101,23 L97,22 L97,20 L95,20 L95,22 L79,22 L79,20 L69,20 L69,22 L61,22 L61,20 L53,20 L53,26 L47,26 L45,23 L41,22 L41,20 L33,20 L33,14 L37,14 L37,12 L29,12 L29,4 L13,5 L0,5 Z " fill="#2B6E56" transform="translate(597,576)"/>
<path d="M0,0 L2,0 L2,4 L5,5 L6,7 L8,30 L11,40 L12,48 L16,50 L15,61 L17,61 L18,65 L23,65 L23,67 L33,68 L38,69 L38,76 L37,78 L29,78 L29,76 L24,75 L23,72 L15,72 L15,70 L11,70 L11,68 L9,68 L9,64 L7,64 L7,60 L5,60 L3,52 L-3,52 L-3,50 L-5,50 L-5,42 L-3,40 L3,40 L3,28 L-3,28 L-3,18 L3,18 L3,7 L-2,7 L-1,2 Z " fill="#0C3E30" transform="translate(727,336)"/>
<path d="M0,0 L1,0 L1,11 L3,11 L3,0 L5,3 L4,10 L7,11 L6,22 L10,23 L11,24 L11,40 L16,40 L16,44 L20,44 L20,54 L16,54 L16,58 L18,58 L18,68 L16,68 L16,72 L8,72 L8,66 L10,66 L10,56 L2,56 L2,50 L0,50 L0,16 L2,16 L2,12 L0,12 Z " fill="#367861" transform="translate(322,458)"/>
<path d="M0,0 L9,0 L14,2 L14,4 L16,4 L16,8 L18,8 L20,11 L25,14 L24,21 L16,26 L12,27 L11,30 L3,30 L-4,28 L-5,18 L-5,7 L-1,1 Z " fill="#519273" transform="translate(329,343)"/>
<path d="M0,0 L1,3 L5,1 L8,2 L5,5 L0,5 L-1,8 L-3,8 L-4,11 L-4,25 L-1,31 L1,35 L3,36 L8,49 L10,50 L10,52 L25,52 L29,51 L30,48 L33,48 L34,45 L36,45 L35,34 L34,29 L32,29 L33,22 L31,22 L28,13 L21,11 L20,9 L20,2 L27,4 L30,5 L29,9 L31,9 L31,12 L36,13 L36,19 L37,19 L38,31 L39,31 L39,45 L38,49 L36,50 L36,53 L31,53 L30,55 L28,54 L28,57 L4,57 L4,55 L6,55 L6,53 L3,52 L1,48 L-5,46 L-6,35 L-8,35 L-9,28 L-9,19 L-7,17 L-5,4 L-1,2 Z " fill="#3C7D73" transform="translate(705,548)"/>
<path d="M0,0 L24,0 L24,2 L26,2 L26,10 L30,10 L30,12 L34,12 L34,14 L44,14 L44,16 L48,16 L48,18 L52,18 L52,24 L58,24 L58,26 L62,26 L62,24 L64,24 L64,18 L68,18 L70,14 L72,14 L72,10 L74,10 L74,6 L78,7 L76,7 L76,9 L78,10 L73,11 L75,15 L74,20 L72,24 L74,24 L74,26 L72,26 L72,28 L67,31 L65,32 L65,29 L52,32 L46,33 L46,30 L41,29 L40,25 L37,24 L37,21 L34,21 L33,23 L32,18 L28,17 L23,14 L23,12 L15,12 L15,10 L12,10 L14,6 L15,5 L12,3 L22,3 L22,1 L-1,2 Z M64,32 Z " fill="#467E64" transform="translate(320,324)"/>
<path d="M0,0 L12,0 L12,4 L16,5 L16,7 L23,8 L23,10 L29,10 L29,14 L36,14 L37,17 L36,30 L38,30 L39,36 L38,43 L45,42 L46,43 L46,55 L50,56 L49,62 L47,62 L47,59 L40,58 L39,55 L40,48 L37,47 L34,44 L35,53 L33,51 L33,43 L34,41 L32,41 L31,39 L30,30 L27,27 L27,25 L21,25 L21,19 L27,19 L27,15 L21,15 L21,13 L13,13 L13,11 L7,11 L7,9 L3,9 L3,6 L0,6 Z " fill="#08311D" transform="translate(635,233)"/>
<path d="M0,0 L1,2 L0,6 L-3,5 Z M-3,6 L15,8 L15,11 L19,12 L20,15 L22,34 L21,38 L27,39 L29,40 L32,48 L30,62 L29,62 L29,56 L27,56 L24,47 L22,43 L22,39 L20,39 L18,30 L13,27 L11,20 L8,20 L7,18 L-23,18 L-25,11 L-25,7 L-22,8 L-22,10 L-17,9 L-8,11 L-4,10 Z M5,18 L7,19 Z " fill="#032C1F" transform="translate(712,297)"/>
<path d="M0,0 L2,1 L2,3 L6,3 L8,11 L8,15 L3,18 L1,21 L-7,22 L-9,26 L-23,28 L-25,36 L-32,36 L-32,39 L-34,39 L-34,63 L-35,93 L-44,96 L-42,92 L-44,92 L-43,89 L-40,89 L-39,83 L-41,83 L-42,77 L-39,77 L-39,74 L-42,74 L-43,62 L-40,57 L-39,50 L-39,40 L-36,39 L-36,36 L-34,36 L-32,30 L-28,26 L-10,23 L-9,21 L-7,21 L-7,18 L0,17 Z " fill="#408C73" transform="translate(732,421)"/>
<path d="M0,0 L9,0 L6,1 L7,6 L6,7 L5,20 L4,21 L2,35 L-2,40 L-1,48 L-5,51 L-13,51 L-13,33 L-15,33 L-15,52 L-16,52 L-16,32 L-14,30 L-8,30 L-8,28 L-12,28 L-12,26 L-18,26 L-18,20 L-12,20 L-12,22 L-6,22 L-4,18 L-2,18 L-2,14 L0,14 Z " fill="#052B21" transform="translate(362,268)"/>
<path d="M0,0 L4,2 L5,6 L8,6 L8,8 L13,9 L13,16 L21,16 L24,19 L23,25 L21,25 L21,27 L18,29 L16,34 L13,34 L13,32 L1,35 L-3,35 L-1,31 L0,24 L-2,21 L-5,24 L-7,24 L-6,20 L-4,13 L-1,6 L0,3 Z " fill="#509E82" transform="translate(699,405)"/>
<path d="M0,0 L16,0 L16,3 L34,3 L40,4 L40,5 L50,6 L50,7 L69,8 L69,10 L50,10 L36,7 L24,6 L24,4 L3,5 L-5,8 L-9,12 L-11,13 L-55,12 L-56,13 L-52,14 L-59,16 L-61,15 L-60,21 L-61,19 L-67,20 L-71,19 L-71,21 L-79,21 L-79,23 L-72,23 L-75,25 L-71,26 L-71,28 L-78,30 L-82,30 L-87,30 L-86,28 L-82,28 L-82,22 L-80,20 L-72,20 L-72,18 L-62,18 L-61,13 L-58,10 L-48,10 L-48,8 L-20,8 L-20,6 L-12,6 L-12,4 L-6,4 L-6,2 L0,2 Z " fill="#3E7F61" transform="translate(526,244)"/>
<path d="M0,0 L4,0 L4,2 L8,1 L11,6 L16,8 L19,20 L19,29 L18,31 L4,33 L2,28 L2,25 L-1,25 L-3,15 L-5,14 L-5,5 Z " fill="#55978B" transform="translate(714,561)"/>
<path d="M0,0 L1,0 L1,5 L4,4 L4,6 L6,6 L6,8 L-1,9 L-1,42 L1,52 L3,53 L2,64 L1,69 L1,90 L2,93 L1,98 L1,105 L2,107 L1,112 L4,120 L5,129 L3,129 L4,132 L2,132 L2,128 L0,128 L0,120 L2,120 L2,118 L-2,118 L-2,114 L-4,114 L-4,50 L-6,50 L-6,16 L-4,16 L-4,12 L-2,12 L-2,8 L2,8 L2,6 L0,6 Z " fill="#3F7D5E" transform="translate(318,326)"/>
<path d="M0,0 L21,0 L21,2 L15,3 L11,9 L14,9 L14,11 L22,11 L22,13 L27,15 L31,17 L33,20 L36,20 L37,23 L40,26 L41,28 L45,29 L45,31 L43,31 L42,34 L42,31 L38,31 L38,28 L32,27 L28,22 L28,19 L26,19 L22,15 L10,14 L9,12 L5,12 L4,20 L-1,25 L-1,42 L0,45 L0,52 L-2,54 L-4,51 L-5,43 L-5,14 L-4,10 L3,9 L3,7 L-2,6 L-2,1 Z " fill="#4B8267" transform="translate(321,325)"/>
<path d="M0,0 L8,0 L12,4 L12,6 L26,6 L26,8 L30,8 L30,18 L32,18 L34,23 L38,26 L38,36 L40,36 L40,46 L44,46 L44,54 L43,54 L43,47 L37,47 L35,41 L37,27 L32,27 L32,25 L28,26 L30,28 L25,29 L25,20 L18,19 L18,15 L12,15 L12,13 L5,12 L5,10 L1,9 L1,5 L-11,5 L-11,11 L-8,12 L-12,12 L-12,4 L0,4 Z " fill="#042E16" transform="translate(646,228)"/>
<path d="M0,0 L5,1 L10,8 L11,16 L15,15 L15,13 L17,13 L18,10 L22,10 L25,16 L25,28 L21,32 L21,35 L17,34 L17,32 L13,33 L8,35 L4,37 L6,27 L3,27 L4,22 L8,21 L6,12 L5,8 L0,8 L-2,3 L0,3 Z " fill="#468B6F" transform="translate(677,335)"/>
<path d="M0,0 L3,1 L6,4 L6,13 L13,15 L18,24 L20,33 L20,38 L42,37 L42,39 L34,40 L27,40 L27,44 L25,47 L19,47 L19,43 L15,43 L15,41 L11,41 L11,39 L9,39 L9,25 L11,25 L11,21 L3,21 L3,19 L1,19 L1,15 L-1,15 L-1,9 L1,9 Z " fill="#083521" transform="translate(669,277)"/>
<path d="M0,0 L9,0 L9,5 L13,7 L20,12 L20,14 L28,15 L31,18 L31,20 L35,20 L35,23 L37,23 L36,26 L36,24 L29,23 L28,19 L25,19 L25,17 L16,15 L10,10 L5,5 L1,5 L0,15 L-3,28 L-9,31 L-11,31 L-11,26 L-19,26 L-19,24 L-16,21 L-14,21 L-15,15 L-11,11 L-6,11 L-4,7 L-1,6 Z " fill="#449074" transform="translate(695,397)"/>
<path d="M0,0 L12,0 L16,5 L18,6 L18,12 L16,12 L16,14 L14,14 L14,18 L12,18 L12,20 L0,20 L0,18 L-2,18 L-2,14 L-6,14 L-6,12 L-10,12 L-10,6 L-8,4 L-4,4 L-4,2 L0,2 Z " fill="#083B20" transform="translate(612,228)"/>
<path d="M0,0 L18,0 L18,2 L24,2 L24,8 L20,8 L20,10 L24,10 L24,16 L12,16 L12,18 L20,18 L20,24 L10,24 L10,20 L4,20 L4,14 L10,14 L10,12 L6,12 L6,10 L2,10 L2,6 L0,6 Z " fill="#082B1F" transform="translate(358,798)"/>
<path d="M0,0 L4,0 L4,4 L6,4 L6,12 L8,12 L8,20 L6,20 L6,26 L2,30 L-4,30 L-4,34 L-6,34 L-6,38 L-8,38 L-8,40 L-14,40 L-14,42 L-22,43 L-25,46 L-29,48 L-30,54 L-32,54 L-32,116 L-33,116 L-34,47 L-33,42 L-24,39 L-24,37 L-15,37 L-15,34 L-13,34 L-12,30 L-7,28 L-4,25 L1,24 L3,21 L3,24 L5,24 L4,21 L4,5 L2,5 L3,1 Z " fill="#357E67" transform="translate(740,418)"/>
<path d="M0,0 L8,0 L8,2 L14,2 L14,16 L16,16 L18,21 L22,24 L22,28 L24,28 L26,33 L30,36 L30,46 L32,46 L32,50 L40,50 L40,52 L42,52 L42,64 L40,64 L40,66 L34,66 L34,65 L39,65 L36,57 L36,54 L38,54 L38,51 L32,51 L31,54 L28,53 L23,52 L24,48 L22,48 L23,40 L21,36 L21,33 L13,31 L13,24 L11,8 L11,5 L7,4 L7,1 L0,1 Z " fill="#00271C" transform="translate(720,304)"/>
<path d="M0,0 L5,3 L5,17 L9,19 L14,24 L19,25 L19,27 L25,27 L31,33 L31,35 L35,35 L35,37 L40,38 L41,41 L47,41 L53,48 L55,49 L55,55 L57,55 L57,75 L56,75 L56,56 L53,57 L51,53 L49,52 L46,47 L45,46 L36,46 L36,44 L32,42 L27,36 L19,35 L12,31 L12,28 L10,28 L7,24 L3,20 L4,4 L1,4 Z " fill="#2F7B58" transform="translate(653,297)"/>
<path d="M0,0 L6,0 L6,88 L4,88 L4,130 L6,130 L6,140 L-4,140 L-4,134 L-3,134 L-3,139 L5,139 L4,135 L2,134 L2,126 L0,126 L1,122 L2,105 L2,48 L3,47 L4,10 L5,1 L1,1 L1,8 L0,8 Z " fill="#052319" transform="translate(792,462)"/>
<path d="M0,0 L2,0 L3,3 L4,2 L14,2 L14,4 L22,3 L23,2 L44,2 L44,4 L51,2 L55,2 L55,7 L68,7 L68,8 L54,8 L54,6 L52,6 L52,8 L44,8 L44,6 L24,6 L24,8 L12,8 L12,6 L4,6 L4,8 L-2,8 L-2,6 L-16,7 L-33,7 L-33,4 L-17,3 L-16,2 L-1,2 Z " fill="#296E4F" transform="translate(542,574)"/>
<path d="M0,0 L5,2 L7,6 L11,8 L16,11 L22,13 L22,15 L25,15 L27,21 L27,33 L26,35 L24,35 L24,38 L8,42 L1,47 L-2,46 L2,44 L2,41 L5,41 L6,38 L10,36 L14,36 L14,38 L17,37 L19,32 L22,31 L22,29 L24,29 L24,21 L14,20 L13,13 L9,12 L9,10 L6,10 L3,5 L1,4 L2,9 L-1,13 L-3,23 L-6,27 L-10,26 L-6,24 L-5,13 L-2,1 Z " fill="#4B997D" transform="translate(698,401)"/>
<path d="M0,0 L1,4 L-1,4 L-1,8 L-3,8 L-3,12 L-1,12 L-1,16 L3,18 L3,20 L8,21 L9,26 L11,26 L11,30 L15,30 L15,32 L20,33 L21,36 L25,36 L25,38 L30,39 L31,44 L33,44 L32,46 L29,45 L28,44 L26,43 L26,40 L13,39 L13,37 L11,37 L8,32 L1,29 L1,24 L-3,22 L-7,19 L-9,14 L-9,8 L-6,3 L-4,3 L-4,1 L-2,1 L-2,3 L0,3 Z " fill="#367E65" transform="translate(707,372)"/>
<path d="M0,0 L4,1 L4,3 L8,2 L10,10 L15,13 L16,22 L18,22 L19,29 L16,29 L16,27 L12,26 L13,22 L11,22 L9,29 L14,29 L14,30 L8,30 L8,18 L6,18 L6,14 L0,14 L0,12 L-4,12 L-4,6 L-16,6 L-16,4 L-18,4 L-19,6 L-19,4 L-27,4 L-27,3 L-13,2 L-5,1 Z M1,1 Z " fill="#083326" transform="translate(716,314)"/>
<path d="M0,0 L1,4 L3,4 L4,0 L15,0 L16,7 L18,7 L19,18 L22,19 L23,21 L26,22 L28,25 L37,26 L40,28 L40,30 L44,31 L47,35 L54,36 L55,43 L65,43 L65,47 L82,47 L82,48 L64,48 L64,44 L54,44 L54,40 L46,40 L40,33 L34,32 L34,30 L28,30 L28,28 L24,28 L24,26 L22,26 L22,22 L17,21 L14,18 L14,8 L12,8 L12,4 L8,4 L8,8 L2,8 L0,6 Z " fill="#327255" transform="translate(444,534)"/>
<path d="M0,0 L2,0 L3,3 L8,4 L12,2 L12,4 L19,6 L17,9 L21,11 L19,12 L18,16 L7,16 L7,13 L1,14 L0,16 L-11,17 L-11,22 L-13,23 L-14,21 L-14,14 L-16,13 L-12,8 L-7,8 L-4,5 L0,6 Z M10,4 Z " fill="#478968" transform="translate(438,320)"/>
<path d="M0,0 L1,0 L2,5 L2,67 L5,67 L5,71 L11,71 L10,73 L6,73 L6,75 L3,75 L4,68 L1,69 L1,45 L-3,46 L-3,43 L-6,42 L-5,15 L-4,9 L-2,5 Z " fill="#327C66" transform="translate(705,467)"/>
<path d="M0,0 L4,1 L2,1 L2,3 L4,4 L-1,5 L1,9 L0,14 L-2,18 L0,18 L0,20 L-2,20 L-2,22 L-7,25 L-9,26 L-9,23 L-24,22 L-24,20 L-31,19 L-33,13 L-38,12 L-38,11 L-43,10 L-41,9 L-41,7 L-44,6 L-40,6 L-40,8 L-30,8 L-30,10 L-26,10 L-26,12 L-22,12 L-22,18 L-16,18 L-16,20 L-12,20 L-12,18 L-10,18 L-10,12 L-6,12 L-4,8 L-2,8 L-2,4 L0,4 Z M-10,26 Z " fill="#387D5C" transform="translate(394,330)"/>
<path d="M0,0 L14,0 L14,12 L8,12 L8,14 L-4,14 L-4,12 L-6,12 L-6,14 L-20,14 L-20,8 L-6,8 L-6,6 L-2,6 L-2,4 L0,4 Z " fill="#072620" transform="translate(436,210)"/>
<path d="M0,0 L9,1 L9,3 L11,3 L11,7 L14,8 L14,14 L22,15 L23,10 L26,7 L31,8 L35,11 L38,20 L42,24 L45,25 L46,31 L46,59 L45,59 L43,43 L42,39 L40,30 L39,27 L36,24 L35,19 L32,16 L32,12 L30,12 L30,9 L26,10 L24,13 L23,18 L15,18 L12,17 L11,13 L7,12 L7,7 L2,6 L2,2 L0,2 Z " fill="#448666" transform="translate(601,257)"/>
<path d="M0,0 L3,0 L3,2 L6,2 L6,7 L13,7 L14,11 L17,12 L18,16 L29,17 L29,12 L33,11 L35,12 L38,17 L38,19 L33,21 L31,25 L31,33 L29,31 L29,28 L27,28 L25,26 L21,25 L19,21 L19,18 L9,18 L7,15 L7,10 L2,8 L-1,6 Z " fill="#3F946D" transform="translate(595,258)"/>
<path d="M0,0 L11,2 L11,8 L13,8 L13,14 L15,14 L15,28 L13,28 L13,30 L7,30 L7,26 L5,26 L5,14 L3,14 L3,10 L1,10 L1,6 L-1,6 L-1,14 L-2,14 L-2,6 L-5,5 L-3,5 L-3,3 L-1,3 Z " fill="#082C20" transform="translate(767,398)"/>
<path d="M0,0 L2,4 L1,5 L0,13 L-3,13 L-4,16 L-8,18 L-19,19 L-22,30 L-19,31 L-21,37 L-23,37 L-24,33 L-26,36 L-31,37 L-32,48 L-35,51 L-35,45 L-37,45 L-36,55 L-37,53 L-39,53 L-40,56 L-40,52 L-38,52 L-38,44 L-36,44 L-36,34 L-34,32 L-26,32 L-26,24 L-24,24 L-24,16 L-20,16 L-20,14 L-8,14 L-8,12 L-4,12 L-4,4 Z " fill="#3E7B5C" transform="translate(438,274)"/>
<path d="M0,0 L7,0 L7,15 L6,17 L2,17 L2,19 L0,19 L0,23 L-2,23 L-2,33 L-6,33 L-6,35 L-12,35 L-12,37 L-22,37 L-23,35 L-23,16 L-21,16 L-21,34 L-13,33 L-7,31 L-5,31 L-5,21 L-3,21 L-4,13 L-1,1 Z " fill="#0B3527" transform="translate(370,285)"/>
<path d="M0,0 L6,0 L6,10 L10,10 L10,12 L18,12 L18,20 L6,20 L6,24 L-4,24 L-4,18 L-2,18 L-2,10 L0,10 Z " fill="#0A2F24" transform="translate(352,774)"/>
<path d="M0,0 L11,0 L14,1 L14,7 L11,4 L11,2 L7,3 L7,1 L2,3 L-1,4 L-1,14 L1,16 L2,26 L5,26 L7,33 L21,32 L21,21 L19,11 L19,9 L16,8 L22,9 L24,19 L26,20 L27,26 L24,34 L15,37 L6,36 L1,33 L-1,26 L-3,16 L-3,4 Z " fill="#4C8E81" transform="translate(711,560)"/>
<path d="M0,0 L9,1 L9,2 L0,2 L0,4 L-9,7 L-10,14 L-13,20 L-14,23 L-15,29 L-16,57 L-16,76 L-18,80 L-20,76 L-19,31 L-18,11 L-12,9 L-10,5 L-4,4 L-4,2 Z " fill="#36806A" transform="translate(716,453)"/>
<path d="M0,0 L10,0 L10,7 L12,7 L12,9 L-2,9 L-4,12 L-4,24 L-2,34 L0,41 L8,44 L18,43 L22,42 L19,46 L15,47 L7,47 L0,44 L-3,41 L-5,36 L-5,32 L-7,32 L-9,18 L-10,17 L-10,11 L-7,10 L-7,7 L-4,7 L-4,4 L-2,4 Z " fill="#478B7B" transform="translate(713,552)"/>
<path d="M0,0 L7,0 L5,1 L3,7 L3,12 L6,13 L6,28 L2,32 L-1,30 L-2,14 L-2,10 L-5,10 L-6,13 L-10,13 L-10,11 L-17,10 L-18,6 L-10,6 L-10,4 L0,4 Z " fill="#428563" transform="translate(465,259)"/>
<path d="M0,0 L3,4 L4,12 L8,14 L7,25 L9,25 L10,29 L15,29 L15,31 L25,32 L30,33 L30,40 L29,42 L21,42 L21,40 L16,39 L15,36 L7,36 L7,35 L15,35 L15,33 L9,33 L4,24 L0,21 L3,16 L5,16 L5,14 L1,13 L0,9 Z " fill="#0A3B2B" transform="translate(735,372)"/>
<path d="M0,0 L10,0 L10,2 L30,2 L32,4 L32,12 L26,12 L26,10 L16,10 L16,8 L4,8 L4,6 L0,6 Z " fill="#072917" transform="translate(576,216)"/>
<path d="M0,0 L1,4 L3,4 L3,8 L5,8 L7,13 L9,14 L9,22 L11,22 L11,26 L13,26 L15,35 L18,35 L18,51 L19,54 L23,54 L24,59 L19,59 L17,57 L15,50 L15,41 L11,40 L11,38 L13,38 L8,33 L7,22 L7,16 L3,15 L-1,11 L-1,3 Z " fill="#3F785C" transform="translate(639,266)"/>
<path d="M0,0 L9,3 L8,19 L9,22 L9,36 L7,36 L6,24 L2,23 L1,25 L-1,24 L-1,11 L-3,11 L-3,5 L0,3 Z " fill="#052E1B" transform="translate(674,252)"/>
<path d="M0,0 L2,3 L2,12 L1,13 L-4,13 L-4,15 L-14,19 L-13,20 L-14,26 L-23,26 L-27,27 L-27,29 L-33,31 L-35,35 L-41,36 L-41,32 L-39,32 L-39,29 L-32,29 L-31,21 L-30,20 L-16,18 L-12,14 L-6,13 L-1,8 L1,8 Z " fill="#3B876E" transform="translate(739,428)"/>
<path d="M0,0 L16,0 L15,2 L1,1 L1,3 L-5,3 L-5,5 L-11,5 L-10,8 L-17,8 L-19,7 L-19,9 L-12,9 L-16,12 L-20,12 L-20,9 L-47,9 L-47,11 L-56,11 L-56,13 L-52,14 L-59,16 L-61,15 L-60,21 L-61,19 L-67,20 L-71,19 L-71,21 L-79,21 L-79,23 L-72,23 L-75,25 L-71,26 L-71,28 L-78,30 L-82,30 L-87,30 L-86,28 L-82,28 L-82,22 L-80,20 L-72,20 L-72,18 L-62,18 L-61,13 L-58,10 L-48,10 L-48,8 L-20,8 L-20,6 L-12,6 L-12,4 L-6,4 L-6,2 L0,2 Z " fill="#2E5F48" transform="translate(526,244)"/>
<path d="M0,0 L7,0 L7,9 L10,10 L10,17 L14,18 L19,25 L19,28 L25,28 L25,30 L17,30 L13,29 L13,27 L11,27 L11,23 L9,23 L9,19 L7,19 L5,11 L-1,11 L-1,9 L-3,9 L-3,1 Z " fill="#0E4C38" transform="translate(725,377)"/>
<path d="M0,0 L1,0 L2,8 L8,10 L10,14 L12,15 L12,17 L10,17 L10,19 L19,18 L32,18 L34,19 L34,16 L36,16 L35,20 L31,20 L31,22 L19,22 L19,20 L9,20 L9,18 L5,18 L5,16 L1,16 L-1,13 L-5,12 L-5,10 L-7,11 L-22,11 L-22,9 L-8,7 L-4,7 L-1,7 Z " fill="#377C6C" transform="translate(699,586)"/>
<path d="M0,0 L3,3 L2,8 L2,17 L4,16 L3,22 L6,22 L7,25 L10,26 L10,32 L7,34 L8,42 L9,43 L18,44 L18,46 L23,47 L20,49 L8,46 L8,44 L5,43 L4,40 L2,39 L2,33 L4,31 L4,28 L0,27 L-2,23 L-1,5 Z " fill="#013625" transform="translate(742,357)"/>
<path d="M0,0 L33,0 L45,1 L45,3 L41,2 L39,6 L34,6 L30,3 L13,3 L8,5 L6,7 L0,5 L-5,7 L-7,7 L-9,8 L-9,3 L-15,6 L-17,5 L-15,1 L-3,1 Z " fill="#439C71" transform="translate(547,267)"/>
<path d="M0,0 L10,0 L12,1 L13,10 L18,11 L14,13 L12,13 L12,10 L10,10 L10,3 L3,4 L-1,5 L-2,7 L-4,7 L-4,10 L-7,10 L-7,13 L-9,14 L-9,20 L-7,26 L-7,34 L-11,29 L-13,24 L-13,10 L-11,7 L-9,7 L-8,3 L-3,3 Z " fill="#438977" transform="translate(713,549)"/>
<path d="M0,0 L21,0 L21,2 L11,2 L5,1 L6,7 L3,14 L-1,15 L-2,19 L-2,43 L0,52 L-2,54 L-4,51 L-5,43 L-5,14 L-4,10 L3,9 L3,7 L-2,6 L-2,1 Z " fill="#477D64" transform="translate(321,325)"/>
<path d="M0,0 L4,0 L4,3 L6,3 L7,9 L10,10 L11,17 L14,18 L17,27 L17,33 L18,34 L18,40 L12,36 L11,38 L9,38 L9,30 L10,23 L7,23 L7,14 L4,8 L3,4 L-1,3 Z " fill="#48906E" transform="translate(627,266)"/>
<path d="M0,0 L10,0 L10,6 L14,6 L14,12 L12,12 L12,14 L0,14 L0,12 L-4,12 L-4,4 L0,4 Z " fill="#082818" transform="translate(560,210)"/>
<path d="M0,0 L8,2 L20,2 L28,0 L32,0 L31,2 L28,2 L28,4 L30,5 L25,8 L17,10 L13,9 L5,10 L3,9 L3,7 L1,7 L2,12 L0,13 L-1,5 L1,5 Z M14,7 Z " fill="#478A68" transform="translate(324,370)"/>
<path d="M0,0 L13,0 L19,2 L28,4 L26,7 L17,9 L3,10 L-2,7 Z " fill="#4D9D76" transform="translate(527,254)"/>
<path d="M0,0 L1,0 L1,63 L3,63 L3,24 L5,28 L5,40 L6,43 L5,48 L5,55 L6,57 L5,62 L8,70 L9,79 L7,79 L8,82 L6,82 L6,78 L4,78 L4,70 L6,70 L6,68 L2,68 L2,64 L0,64 Z " fill="#2F694B" transform="translate(314,376)"/>
<path d="M0,0 L2,1 L2,5 L2,12 L14,11 L14,14 L9,13 L7,17 L5,18 L2,17 L2,15 L0,15 L0,12 L-6,11 L-9,13 L-12,13 L-13,16 L-16,17 L-17,19 L-21,18 L-21,16 L-19,15 L-18,12 L-16,11 L-16,4 L-14,4 L-13,8 L-11,6 L-3,5 Z " fill="#428063" transform="translate(417,315)"/>
<path d="M0,0 L12,0 L16,1 L16,3 L51,4 L57,6 L57,8 L59,8 L60,12 L64,14 L57,14 L57,9 L54,9 L54,7 L32,7 L9,5 L6,4 L6,2 L0,2 Z " fill="#438F6C" transform="translate(544,251)"/>
<path d="M0,0 L8,0 L8,2 L12,2 L14,7 L18,8 L18,12 L20,12 L22,17 L26,20 L26,26 L28,26 L28,38 L30,38 L30,54 L28,54 L28,58 L26,58 L26,62 L20,62 L20,61 L25,61 L24,56 L27,57 L26,52 L27,52 L27,40 L26,40 L25,28 L24,26 L25,21 L20,20 L20,17 L18,17 L19,13 L16,14 L16,12 L11,11 L9,10 L10,5 L11,3 L4,4 L4,2 L0,2 Z " fill="#30665D" transform="translate(716,540)"/>
<path d="M0,0 L1,0 L1,9 L3,9 L3,11 L8,10 L14,17 L18,23 L23,25 L32,26 L35,29 L46,30 L46,31 L36,32 L46,33 L46,34 L34,34 L32,30 L22,30 L22,28 L16,28 L12,24 L12,20 L10,20 L8,15 L6,13 L2,12 L2,10 L0,10 Z " fill="#317255" transform="translate(380,474)"/>
<path d="M0,0 L3,1 L3,3 L8,2 L17,4 L21,3 L26,5 L25,10 L23,11 L2,11 L0,4 Z " fill="#01321E" transform="translate(687,304)"/>
<path d="M0,0 L2,0 L2,3 L6,2 L12,4 L13,7 L19,7 L25,14 L27,15 L27,21 L29,21 L29,41 L28,41 L28,22 L25,23 L23,19 L21,18 L18,13 L17,12 L8,12 L8,10 L4,8 L-1,1 Z " fill="#3A7B60" transform="translate(681,331)"/>
<path d="M0,0 L14,0 L14,2 L18,2 L18,12 L20,12 L22,17 L26,20 L26,30 L28,30 L28,40 L32,40 L32,48 L31,48 L31,41 L25,41 L23,35 L25,21 L20,21 L20,19 L16,18 L16,6 L14,6 L14,4 L6,5 L6,2 L0,1 Z " fill="#042514" transform="translate(658,234)"/>
<path d="M0,0 L1,3 L5,1 L8,2 L5,5 L0,5 L-1,8 L-3,8 L-4,11 L-4,25 L-1,31 L1,35 L3,36 L8,49 L10,50 L10,52 L28,52 L27,54 L23,55 L14,55 L9,53 L4,48 L2,46 L-1,37 L-2,37 L-2,32 L-5,32 L-7,17 L-5,4 L-1,2 Z " fill="#3F8474" transform="translate(705,548)"/>
<path d="M0,0 L7,0 L13,3 L13,7 L16,6 L27,8 L28,11 L23,13 L22,12 L15,12 L15,9 L3,9 L0,8 L-2,11 L-2,9 L-7,11 L-7,8 L-4,7 L-4,4 L1,4 L5,3 L5,1 L0,1 Z " fill="#439670" transform="translate(649,332)"/>
<path d="M0,0 L1,0 L1,18 L0,48 L-9,51 L-7,47 L-9,47 L-8,44 L-5,44 L-4,38 L-6,38 L-7,32 L-4,32 L-2,16 Z " fill="#3C8770" transform="translate(697,466)"/>
<path d="M0,0 L12,0 L16,5 L18,6 L18,12 L17,12 L17,7 L11,10 L3,10 L-4,7 L-9,6 L-8,4 L-4,4 L-4,2 L0,2 Z " fill="#092F19" transform="translate(612,228)"/>
<path d="M0,0 L9,0 L9,1 L1,1 L1,15 L-1,15 L0,19 L2,20 L-1,23 L-3,30 L-8,32 L-15,32 L-14,30 L-8,30 L-8,28 L-12,28 L-12,26 L-18,26 L-18,20 L-12,20 L-12,22 L-6,22 L-4,18 L-2,18 L-2,14 L0,14 Z " fill="#05221B" transform="translate(362,268)"/>
<path d="M0,0 L1,4 L-1,4 L-1,8 L-3,8 L-3,10 L-9,10 L-9,12 L-17,13 L-20,16 L-24,18 L-25,24 L-27,24 L-27,86 L-28,86 L-29,17 L-26,14 L-21,13 L-23,12 L-20,10 L-10,11 L-11,8 L-9,7 L-2,7 L-3,3 L0,3 Z " fill="#256452" transform="translate(735,448)"/>
<path d="M0,0 L1,0 L2,5 L4,5 L4,24 L2,24 L2,27 L0,27 L0,25 L-2,25 L-2,27 L-4,27 L-7,37 L-8,37 L-7,23 L-5,23 L-5,19 L-2,16 L-1,2 Z " fill="#3D8069" transform="translate(705,348)"/>
<path d="M0,0 L2,0 L3,8 L4,9 L4,16 L8,17 L8,19 L16,19 L14,23 L13,25 L7,25 L7,21 L3,21 L3,19 L-1,19 L-1,17 L-3,17 L-3,3 L0,3 Z " fill="#0A3D27" transform="translate(681,299)"/>
<path d="M0,0 L2,0 L2,7 L-1,9 L-7,9 L-7,11 L-14,12 L-21,14 L-29,13 L-43,11 L-42,9 L-38,8 L-11,8 L-3,7 L-1,1 Z " fill="#49946F" transform="translate(521,257)"/>
<path d="M0,0 L2,0 L3,18 L1,24 L0,61 L0,82 L-2,82 L-2,23 L0,23 Z " fill="#0A3326" transform="translate(789,513)"/>
<path d="M0,0 L0,3 L-1,17 L-2,20 L-16,20 L-16,18 L-13,15 L-11,15 L-12,9 L-8,5 L-3,5 L-1,1 Z " fill="#409571" transform="translate(692,403)"/>
<path d="M0,0 L1,2 L9,2 L9,4 L13,4 L13,12 L15,12 L16,19 L21,24 L20,26 L16,25 L13,26 L12,22 L9,21 L11,10 L8,10 L7,8 L0,6 L-1,3 Z " fill="#00261A" transform="translate(751,374)"/>
<path d="M0,0 L9,0 L7,2 L10,3 L12,6 L12,9 L19,10 L19,12 L32,12 L31,14 L21,16 L15,17 L15,14 L10,13 L9,9 L6,8 L6,5 L3,5 L2,7 Z " fill="#3E8161" transform="translate(351,340)"/>
<path d="M0,0 L2,1 L3,5 L10,10 L11,15 L17,17 L20,20 L20,23 L22,23 L22,25 L27,25 L27,27 L29,27 L29,29 L34,30 L34,34 L32,34 L32,31 L28,31 L28,29 L25,28 L25,26 L19,26 L15,22 L10,19 L6,16 L6,9 L0,7 Z " fill="#3E876E" transform="translate(698,386)"/>
<path d="M0,0 L2,0 L2,6 L6,6 L8,9 L9,14 L11,15 L11,26 L12,30 L15,31 L15,33 L12,36 L10,38 L9,32 L7,31 L7,22 L-2,23 L-1,21 L5,21 L5,8 L0,8 Z " fill="#0B4333" transform="translate(725,355)"/>
<path d="M0,0 L1,4 L-1,4 L-1,8 L-3,8 L-3,12 L-1,12 L-1,16 L3,18 L3,20 L8,21 L9,26 L11,26 L10,30 L10,27 L8,27 L7,29 L5,27 L5,24 L-1,22 L-1,17 L-6,15 L-6,13 L-8,13 L-8,6 L-6,3 L-4,3 L-4,1 L-2,1 L-2,3 L0,3 Z M6,24 L7,26 L8,24 Z " fill="#327B60" transform="translate(707,372)"/>
<path d="M0,0 L5,1 L8,6 L8,8 L3,10 L1,14 L1,22 L-1,20 L-1,17 L-3,17 L-5,15 L-9,14 L-10,10 L-5,10 L-3,6 L-1,6 L-1,1 Z " fill="#46926E" transform="translate(625,269)"/>
<path d="M0,0 L9,1 L9,3 L11,3 L11,7 L14,8 L14,14 L23,14 L23,18 L15,18 L12,17 L11,13 L7,12 L7,7 L2,6 L2,2 L0,2 Z " fill="#3E8765" transform="translate(601,257)"/>
<path d="M0,0 L2,2 L3,14 L6,14 L10,24 L12,29 L12,32 L10,32 L9,30 L3,28 L2,17 L0,17 L-1,10 L-1,1 Z " fill="#3B7F6F" transform="translate(697,566)"/>
<path d="M0,0 L4,1 L2,1 L2,3 L4,4 L-1,5 L1,9 L0,14 L-2,18 L0,18 L0,20 L-2,20 L-2,22 L-7,25 L-9,26 L-9,23 L-16,22 L-16,21 L-11,21 L-11,19 L-9,19 L-7,16 L-6,15 L-9,15 L-9,13 L-6,13 L-5,9 L-2,8 L-2,4 L0,4 Z M-10,26 Z " fill="#397D5D" transform="translate(394,330)"/>
<path d="M0,0 L3,0 L5,6 L5,14 L2,17 L-4,17 L-5,9 L-3,3 Z " fill="#3C8961" transform="translate(470,288)"/>
<path d="M0,0 L3,1 L6,4 L6,13 L10,14 L11,20 L3,20 L1,19 L1,15 L-1,15 L-1,9 L1,9 Z " fill="#0C3D28" transform="translate(669,277)"/>
<path d="M0,0 L4,0 L4,32 L0,32 Z " fill="#4B9972" transform="translate(548,416)"/>
<path d="M0,0 L17,1 L18,4 L21,5 L22,8 L29,11 L29,15 L31,15 L31,19 L29,19 L29,16 L26,16 L26,12 L20,12 L20,10 L16,10 L16,4 L4,4 L4,2 L2,2 L1,4 L1,2 L-7,2 L-7,1 Z " fill="#0C392A" transform="translate(696,316)"/>
<path d="M0,0 L7,0 L5,1 L3,7 L1,10 L-5,10 L-6,13 L-10,13 L-10,11 L-17,10 L-18,6 L-10,6 L-10,4 L0,4 Z " fill="#447C63" transform="translate(465,259)"/>
<path d="M0,0 L12,0 L10,1 L8,6 L-36,5 L-36,4 L-28,4 L-28,2 L-1,2 L-1,5 L5,3 L0,2 Z " fill="#3B7D5D" transform="translate(507,251)"/>
<path d="M0,0 L4,0 L4,6 L-8,6 L-8,8 L0,8 L0,14 L-10,14 L-10,10 L-16,10 L-16,4 L-10,4 L-9,2 L-9,5 L3,5 L3,1 Z " fill="#07241A" transform="translate(378,808)"/>
<path d="M0,0 L10,0 L10,7 L12,7 L12,9 L-2,9 L-4,12 L-5,24 L-6,24 L-6,11 L-4,4 L-2,4 Z " fill="#498E7E" transform="translate(713,552)"/>
<path d="M0,0 L7,0 L7,15 L2,16 L2,14 L0,14 L-1,16 L-2,9 L-1,1 Z " fill="#0A372C" transform="translate(370,285)"/>
<path d="M0,0 L22,0 L22,2 L28,2 L28,4 L40,4 L44,6 L50,6 L54,11 L58,12 L57,16 L57,13 L50,12 L49,8 L41,9 L37,10 L37,8 L32,8 L32,7 L23,6 L21,4 L21,1 L0,1 Z " fill="#2B6549" transform="translate(580,250)"/>
<path d="M0,0 L1,4 L3,4 L2,15 L1,18 L0,57 L-2,57 L-2,10 L-1,10 Z " fill="#397D5B" transform="translate(317,382)"/>
<path d="M0,0 L4,1 L6,5 L6,10 L8,10 L9,19 L8,21 L6,21 L5,24 L3,22 L2,18 L2,9 L0,9 Z " fill="#063829" transform="translate(733,343)"/>
<path d="M0,0 L3,4 L4,12 L8,14 L7,25 L9,25 L10,29 L13,29 L13,32 L15,33 L9,33 L4,24 L0,21 L3,16 L5,16 L5,14 L1,13 L0,9 Z " fill="#05412F" transform="translate(735,372)"/>
<path d="M0,0 L3,1 L4,10 L10,11 L12,12 L15,20 L13,34 L12,34 L12,28 L10,28 L7,19 L5,15 L5,11 L3,11 L1,2 Z " fill="#033023" transform="translate(729,325)"/>
<path d="M0,0 L1,0 L1,11 L3,11 L3,0 L5,3 L4,16 L4,32 L3,35 L1,35 L2,50 L0,50 L0,16 L2,16 L2,12 L0,12 Z " fill="#2F6A55" transform="translate(322,458)"/>
<path d="M0,0 L6,0 L6,6 L8,6 L8,12 L10,12 L10,26 L8,26 L8,28 L2,28 L2,27 L7,27 L7,25 L5,25 L4,12 L4,1 Z " fill="#05251A" transform="translate(772,400)"/>
<path d="M0,0 L2,0 L3,4 L4,1 L6,1 L6,5 L8,5 L9,9 L5,13 L4,13 L4,19 L0,22 L-1,15 L0,9 L-1,7 L0,5 L-2,4 Z " fill="#459370" transform="translate(675,367)"/>
<path d="M0,0 L1,2 L5,3 L-2,5 L-4,4 L-3,10 L-4,8 L-10,9 L-14,8 L-14,10 L-22,10 L-22,12 L-15,12 L-18,14 L-14,15 L-14,17 L-21,19 L-25,19 L-30,19 L-29,17 L-25,17 L-25,11 L-23,9 L-15,9 L-15,7 L-5,7 L-5,3 Z " fill="#396D55" transform="translate(469,255)"/>
<path d="M0,0 L3,0 L2,5 L1,7 L5,8 L5,12 L2,13 L-5,12 L-9,7 L-8,3 L-1,1 Z " fill="#002D1B" transform="translate(759,388)"/>
<path d="M0,0 L8,1 L12,6 L19,7 L20,14 L30,14 L30,18 L47,18 L47,19 L29,19 L29,15 L19,15 L19,11 L11,11 L5,4 L5,2 L0,2 Z " fill="#2B6449" transform="translate(479,563)"/>
<path d="M0,0 L1,0 L2,5 L2,67 L5,67 L5,71 L11,71 L10,73 L6,73 L6,75 L3,75 L4,68 L1,69 L0,13 L-1,13 L-1,3 Z " fill="#2F7C65" transform="translate(705,467)"/>
<path d="M0,0 L1,0 L1,5 L4,4 L4,6 L6,6 L6,8 L-1,9 L-2,19 L-3,19 L-4,50 L-6,50 L-6,16 L-4,16 L-4,12 L-2,12 L-2,8 L2,8 L2,6 L0,6 Z " fill="#346A4E" transform="translate(318,326)"/>
<path d="M0,0 L6,0 L6,2 L8,3 L9,12 L11,12 L10,15 L8,15 L8,13 L6,13 L6,4 L-2,4 L-2,7 L-17,7 L-17,4 L-5,4 Z " fill="#377C5F" transform="translate(375,470)"/>
<path d="M0,0 L7,0 L12,2 L14,7 L20,8 L20,3 L22,6 L21,11 L9,11 L9,9 L7,9 L7,5 L3,5 L3,2 L0,2 Z " fill="#0C3F25" transform="translate(603,237)"/>
<path d="M0,0 L2,0 L3,4 L-2,5 L-16,5 L-16,7 L-33,7 L-33,4 L-17,3 L-16,2 L-1,2 Z " fill="#327C57" transform="translate(542,574)"/>
<path d="M0,0 L10,0 L10,2 L14,2 L14,8 L0,8 Z " fill="#092C29" transform="translate(224,602)"/>
<path d="M0,0 L2,0 L2,3 L10,3 L10,5 L12,5 L13,7 L18,8 L21,10 L21,12 L13,12 L7,11 L7,9 L3,9 L3,6 L0,6 Z " fill="#0B3820" transform="translate(635,233)"/>
<path d="M0,0 L5,2 L9,4 L11,7 L14,7 L15,10 L18,13 L19,15 L23,16 L23,18 L21,18 L20,21 L20,18 L16,18 L16,15 L10,14 L6,9 L6,6 L4,6 L0,2 Z " fill="#438566" transform="translate(343,338)"/>
<path d="M0,0 L35,1 L44,2 L44,4 L39,5 L32,5 L32,3 L6,4 L2,5 L0,3 Z " fill="#3E8363" transform="translate(470,255)"/>
<path d="M0,0 L5,0 L8,6 L9,13 L3,15 L0,12 Z M1,14 Z " fill="#4C9476" transform="translate(677,343)"/>
<path d="M0,0 L1,2 L3,3 L2,4 L3,8 L2,9 L2,33 L4,42 L2,44 L0,41 L-1,33 L-1,4 Z " fill="#437F62" transform="translate(317,335)"/>
<path d="M0,0 L1,2 L3,2 L3,0 L6,0 L6,2 L13,2 L13,0 L30,0 L28,3 L13,3 L13,5 L0,5 Z " fill="#2E7D5C" transform="translate(597,576)"/>
<path d="M0,0 L6,0 L8,3 L8,8 L5,10 L6,6 L-2,6 L-3,7 L-3,14 L-6,16 L-7,14 L-6,8 L-9,7 L-4,4 Z " fill="#48876A" transform="translate(409,328)"/>
<path d="M0,0 L4,0 L4,2 L8,1 L11,7 L7,6 L6,3 L0,5 L-2,7 L-1,13 L1,16 L1,25 L-1,25 L-3,15 L-5,14 L-5,5 Z " fill="#519485" transform="translate(714,561)"/>
<path d="M0,0 L24,0 L24,1 L1,1 L1,3 L24,3 L24,4 L4,4 L4,13 L1,13 L1,15 L4,16 L0,16 Z " fill="#070F0C" transform="translate(334,482)"/>
<path d="M0,0 L2,1 L2,3 L6,3 L8,11 L8,15 L3,18 L1,21 L-6,22 L-6,20 L-3,18 L1,18 L2,11 Z " fill="#428871" transform="translate(732,421)"/>
<path d="M0,0 L8,0 L8,1 L1,1 L1,3 L8,3 L8,4 L3,5 L2,16 L-1,19 L-1,13 L-3,13 L-2,23 L-3,21 L-5,21 L-6,24 L-6,20 L-4,20 L-4,12 L-2,12 L-2,2 Z " fill="#3B735B" transform="translate(404,306)"/>
<path d="M0,0 L5,1 L9,8 L11,9 L14,16 L15,17 L15,27 L14,25 L12,25 L13,18 L11,18 L8,9 L1,7 Z " fill="#408176" transform="translate(725,552)"/>
<path d="M0,0 L6,0 L8,2 L8,5 L10,5 L10,20 L8,23 L6,23 L6,27 L4,27 L4,34 L2,30 L2,26 L4,26 L3,22 L7,19 L7,7 L5,4 L5,1 L1,2 L-1,4 Z " fill="#42846D" transform="translate(694,344)"/>
<path d="M0,0 L5,1 L6,4 L12,4 L18,11 L20,12 L20,18 L22,18 L22,38 L21,38 L21,19 L18,20 L14,9 L11,6 L6,6 L2,7 L1,3 L3,3 L3,1 Z " fill="#2D624F" transform="translate(688,334)"/>
<path d="M0,0 L6,1 L9,4 L16,5 L17,8 L25,10 L25,13 L15,13 L15,9 L4,6 L3,2 L0,2 Z " fill="#43926D" transform="translate(647,326)"/>
<path d="M0,0 L4,0 L4,4 L6,4 L6,12 L8,12 L8,20 L6,20 L6,26 L2,30 L-4,30 L-4,29 L1,29 L0,26 L2,26 L2,21 L3,24 L5,24 L4,21 L4,5 L2,5 L3,1 Z " fill="#2E6956" transform="translate(740,418)"/>
<path d="M0,0 L24,0 L24,2 L26,2 L26,10 L30,10 L29,12 L24,11 L24,5 L23,4 L23,10 L14,9 L15,7 L20,7 L20,5 L17,3 L22,3 L22,1 L-1,2 Z " fill="#396953" transform="translate(320,324)"/>
<path d="M0,0 L3,1 L6,10 L6,16 L7,17 L7,23 L2,20 L1,18 Z " fill="#458A6A" transform="translate(638,283)"/>
<path d="M0,0 L7,0 L10,1 L9,5 L8,6 L1,6 L-2,5 L-4,8 L-4,6 L-9,8 L-9,5 L-6,4 L-6,1 L-1,1 Z " fill="#479C74" transform="translate(651,335)"/>
<path d="M0,0 L5,2 L3,3 L3,5 L8,4 L9,9 L15,8 L13,9 L13,11 L16,12 L12,12 L12,10 L8,10 L6,7 L2,6 L2,4 L0,5 L-15,5 L-15,3 L-1,1 Z " fill="#357D6B" transform="translate(692,592)"/>
<path d="M0,0 L3,1 L3,3 L7,3 L7,5 L14,4 L12,11 L10,11 L10,9 L8,9 L8,7 L1,7 L-6,5 L-6,3 L-8,2 L-2,3 L-2,1 Z " fill="#397E6F" transform="translate(713,539)"/>
<path d="M0,0 L4,0 L4,2 L9,3 L10,6 L14,6 L14,8 L19,9 L20,14 L22,14 L21,16 L18,15 L17,14 L15,13 L15,10 L7,9 L7,7 L5,7 L5,4 L1,3 L3,3 L3,1 Z " fill="#2C6A55" transform="translate(718,402)"/>
<path d="M0,0 L4,0 L4,6 L10,6 L10,8 L14,8 L14,6 L16,6 L16,0 L20,1 L17,1 L17,3 L20,3 L19,6 L17,9 L17,7 L15,7 L15,9 L10,10 L2,10 L2,8 L0,8 L0,3 L3,3 L3,1 Z " fill="#306E4F" transform="translate(368,342)"/>
<path d="M0,0 L5,1 L8,13 L8,22 L6,24 L5,12 L2,12 L0,6 Z " fill="#519187" transform="translate(725,568)"/>
<path d="M0,0 L1,0 L1,7 L-2,20 L-8,23 L-10,23 L-10,18 L-14,17 L-4,18 L-4,9 L-2,3 L0,3 Z " fill="#459A76" transform="translate(694,405)"/>
<path d="M0,0 L3,0 L3,16 L4,19 L8,19 L9,24 L4,24 L2,22 L0,15 Z " fill="#387F5D" transform="translate(654,301)"/>
<path d="M0,0 L8,0 L12,5 L9,4 L8,6 L1,7 L1,5 L-11,5 L-11,11 L-8,12 L-12,12 L-12,4 L0,4 Z " fill="#072510" transform="translate(646,228)"/>
<path d="M0,0 L15,3 L14,6 L4,8 L1,7 L2,12 L0,13 L-1,5 L1,5 Z " fill="#4A8B6A" transform="translate(324,370)"/>
<path d="M0,0 L2,0 L2,8 L3,16 L2,21 L7,20 L7,22 L15,22 L15,24 L7,24 L0,22 L-1,12 L-1,1 Z " fill="#508F6F" transform="translate(325,349)"/>
<path d="M0,0 L2,4 L1,5 L0,13 L-3,13 L-4,16 L-20,15 L-20,14 L-8,14 L-8,12 L-4,12 L-4,4 Z " fill="#377054" transform="translate(438,274)"/>
<path d="M0,0 L2,0 L3,3 L8,4 L12,2 L12,4 L19,6 L18,8 L4,8 L-6,7 L-4,5 L0,6 Z M10,4 Z " fill="#3F8261" transform="translate(438,320)"/>
<path d="M0,0 L10,0 L8,5 L5,6 L4,11 L-1,10 L0,8 L2,8 L2,3 L0,3 L-1,5 L-3,5 L-3,1 Z M9,2 Z M-5,5 L-3,6 L-5,7 Z " fill="#3A7E59" transform="translate(445,286)"/>
<path d="M0,0 L5,0 L7,3 L7,8 L3,10 L1,14 L1,12 L-1,12 L-1,2 Z " fill="#4B8C73" transform="translate(694,350)"/>
<path d="M0,0 L3,3 L4,5 L8,4 L9,8 L7,9 L2,8 L1,13 L-1,15 L-2,8 L-2,4 L-4,4 L-4,1 Z " fill="#419C71" transform="translate(608,284)"/>
<path d="M0,0 L8,0 L8,2 L12,2 L14,7 L18,8 L19,13 L16,14 L16,12 L11,11 L9,10 L10,5 L11,3 L4,4 L4,2 L0,2 Z " fill="#2E6B5E" transform="translate(716,540)"/>
<path d="M0,0 L2,0 L2,19 L0,19 L0,22 L-2,22 L-2,20 L-4,20 L-3,15 L-1,15 L-1,1 Z " fill="#3A7C65" transform="translate(707,353)"/>
<path d="M0,0 L5,3 L5,17 L9,19 L14,24 L19,25 L18,27 L9,25 L5,23 L3,20 L4,4 L1,4 Z " fill="#2B6C4E" transform="translate(653,297)"/>
<path d="M0,0 L4,0 L7,6 L7,18 L2,21 L1,20 L1,15 L5,13 L5,8 L4,5 L-1,5 Z " fill="#488871" transform="translate(695,345)"/>
<path d="M0,0 L2,0 L2,3 L4,3 L3,7 L0,12 L3,15 L-1,19 L-4,18 L-4,16 L-2,16 L-2,14 L-4,14 L-2,5 L-3,1 Z " fill="#408162" transform="translate(396,334)"/>
<path d="M0,0 L2,1 L4,8 L6,9 L5,17 L2,21 L2,19 L-1,18 Z " fill="#448D67" transform="translate(471,269)"/>
<path d="M0,0 L14,0 L14,2 L18,2 L18,12 L16,8 L16,6 L14,6 L14,4 L6,5 L6,2 L0,1 Z " fill="#02230F" transform="translate(658,234)"/>
<path d="M0,0 L5,1 L5,5 L0,10 L0,27 L0,31 L-2,28 L-2,4 Z " fill="#498768" transform="translate(320,340)"/>
<path d="M0,0 L2,0 L1,4 L-3,4 L-3,6 L-15,6 L-15,4 L-25,4 L-25,3 L-15,2 L-2,2 L0,3 Z " fill="#326C61" transform="translate(733,602)"/>
<path d="M0,0 L1,4 L3,4 L3,14 L1,14 L1,18 L-7,18 L-7,12 L-6,12 L-6,17 L0,17 L-2,12 L-2,5 Z " fill="#2F6A56" transform="translate(337,512)"/>
<path d="M0,0 L16,1 L19,4 L19,6 L6,5 L6,3 L-6,3 L-6,2 L0,1 Z " fill="#092B19" transform="translate(586,221)"/>
<path d="M0,0 L9,3 L8,7 L2,6 L1,10 L1,6 L-1,6 L-1,14 L-2,14 L-2,6 L-5,5 L-3,5 L-3,3 L-1,3 Z " fill="#06281C" transform="translate(767,398)"/>
<path d="M0,0 L2,1 L1,3 L-2,3 L-3,7 L-7,8 L-19,8 L-22,7 L-22,5 L-25,4 L-24,2 L-17,5 L-9,5 L-4,3 Z " fill="#448379" transform="translate(737,593)"/>
<path d="M0,0 L3,0 L3,2 L6,2 L6,7 L13,7 L12,11 L3,9 L-1,6 Z " fill="#45916E" transform="translate(595,258)"/>
<path d="M0,0 L21,0 L21,3 L1,3 L-1,1 Z " fill="#2D7C59" transform="translate(565,576)"/>
<path d="M0,0 L10,2 L10,5 L14,6 L21,9 L22,13 L16,11 L10,9 L10,7 L8,7 L8,4 L0,3 Z " fill="#3B8864" transform="translate(655,323)"/>
<path d="M0,0 L3,0 L4,7 L26,6 L26,8 L18,9 L4,9 L0,7 Z " fill="#043822" transform="translate(685,308)"/>
<path d="M0,0 L28,0 L28,2 L38,2 L37,4 L22,4 L18,2 L0,1 Z " fill="#2F624A" transform="translate(542,246)"/>
<path d="M0,0 L20,0 L22,2 L22,10 L16,10 L16,9 L21,9 L21,4 L16,3 L0,2 Z " fill="#032011" transform="translate(586,218)"/>
<path d="M0,0 L5,1 L6,10 L9,17 L7,25 L-3,27 L-7,25 L5,24 L5,13 L3,3 L3,1 Z " fill="#4E8D84" transform="translate(727,568)"/>
<path d="M0,0 L6,0 L6,10 L0,10 Z " fill="#092D2A" transform="translate(226,618)"/>
<path d="M0,0 L10,0 L10,6 L0,6 Z " fill="#09291E" transform="translate(258,340)"/>
<path d="M0,0 L5,1 L5,5 L7,5 L6,8 L0,9 L-3,8 L-3,3 L-1,3 Z " fill="#002819" transform="translate(352,308)"/>
<path d="M0,0 L4,1 L7,5 L16,6 L16,10 L8,10 L5,9 L4,5 L0,4 Z " fill="#3C8F69" transform="translate(608,265)"/>
<path d="M0,0 L16,0 L18,1 L18,5 L14,4 L15,2 L3,3 L1,5 L-4,5 L-2,3 L-3,1 Z M-7,2 L-3,3 L-7,5 Z " fill="#459A70" transform="translate(510,267)"/>
<path d="M0,0 L3,0 L5,3 L14,4 L17,7 L12,7 L12,9 L17,9 L17,10 L11,10 L11,8 L5,8 L5,5 L2,5 L2,3 L0,3 Z " fill="#327054" transform="translate(467,556)"/>
<path d="M0,0 L3,2 L3,4 L8,5 L9,10 L11,10 L10,14 L10,11 L8,11 L7,13 L5,11 L5,8 L-1,6 L-1,1 Z M6,8 L7,10 L8,8 Z " fill="#2C7257" transform="translate(707,388)"/>
<path d="M0,0 L9,0 L7,3 L-2,5 L-6,5 L-7,11 L-8,7 L-10,6 L-6,1 L-1,1 Z " fill="#458565" transform="translate(432,327)"/>
<path d="M0,0 L1,0 L1,9 L4,8 L4,10 L8,10 L8,14 L-2,14 L-2,8 L0,8 Z " fill="#08281E" transform="translate(350,784)"/>
<path d="M0,0 L11,0 L11,2 L16,1 L16,3 L26,3 L26,4 L16,4 L16,6 L8,6 L8,1 L0,1 Z " fill="#2C6F58" transform="translate(650,592)"/>
<path d="M0,0 L8,1 L9,4 L12,4 L11,6 L15,7 L18,8 L17,11 L13,10 L6,5 L2,4 L2,2 L0,2 Z " fill="#397E67" transform="translate(725,411)"/>
<path d="M0,0 L7,0 L11,1 L11,4 L13,4 L12,13 L10,11 L8,5 L5,3 L0,4 L-3,6 L-1,2 Z " fill="#417F60" transform="translate(626,262)"/>
<path d="M0,0 L1,0 L1,9 L3,9 L3,0 L4,0 L5,10 L8,11 L9,17 L11,17 L11,19 L14,20 L10,20 L10,18 L8,18 L8,14 L3,13 L0,10 Z " fill="#2E674B" transform="translate(458,542)"/>
<path d="M0,0 L6,1 L6,3 L19,3 L18,5 L8,7 L3,6 L3,2 L0,2 Z " fill="#3A7E5D" transform="translate(364,349)"/>
<path d="M0,0 L5,4 L8,5 L9,11 L9,22 L7,19 L5,12 L5,6 L1,4 Z " fill="#447E63" transform="translate(638,277)"/>
<path d="M0,0 L8,0 L7,5 L-4,5 L-4,1 Z " fill="#50A179" transform="translate(532,256)"/>
<path d="M0,0 L1,0 L2,6 L4,7 L4,9 L6,9 L7,13 L10,13 L10,16 L12,17 L6,17 L1,8 L-3,5 Z " fill="#074531" transform="translate(738,388)"/>
<path d="M0,0 L8,0 L8,2 L14,2 L14,16 L12,16 L11,5 L7,4 L7,1 L0,1 Z " fill="#002116" transform="translate(720,304)"/>
<path d="M0,0 L2,0 L2,9 L6,10 L7,16 L2,16 L2,14 L0,14 Z " fill="#093A25" transform="translate(673,281)"/>
<path d="M0,0 L12,0 L13,3 L11,4 L0,4 L-4,2 L0,2 Z " fill="#062411" transform="translate(612,228)"/>
<path d="M0,0 L1,3 L1,12 L2,17 L-4,17 L-4,12 L-2,12 L-2,2 L0,2 Z " fill="#377C65" transform="translate(335,512)"/>
<path d="M0,0 L2,0 L1,4 L-2,5 L-5,12 L-8,12 L-7,4 L-4,4 L-4,1 Z " fill="#489779" transform="translate(696,452)"/>
<path d="M0,0 L9,1 L9,2 L0,2 L0,4 L-9,7 L-9,11 L-13,12 L-11,6 L-8,4 L-4,4 L-4,2 Z " fill="#36836B" transform="translate(716,453)"/>
<path d="M0,0 L1,3 L5,3 L7,15 L5,15 L6,18 L4,18 L4,14 L2,14 L2,6 L4,6 L4,4 L0,4 Z " fill="#2F6A4E" transform="translate(316,440)"/>
<path d="M0,0 L5,1 L4,9 L0,12 L-1,9 L-1,1 Z " fill="#3B8A68" transform="translate(689,377)"/>
<path d="M0,0 L2,0 L2,6 L6,6 L8,9 L8,21 L6,21 L5,9 L0,8 Z " fill="#104A3A" transform="translate(725,355)"/>
<path d="M0,0 L6,0 L12,6 L12,8 L16,8 L15,10 L11,10 L11,7 L5,8 L4,2 Z " fill="#346E56" transform="translate(672,324)"/>
<path d="M0,0 L4,2 L4,4 L10,5 L10,8 L1,7 L-4,5 L-4,3 L0,3 Z " fill="#012A11" transform="translate(654,231)"/>
<path d="M0,0 L5,1 L3,3 L1,5 L-1,8 L-1,16 L-3,14 L-3,11 L-5,11 L-3,3 Z " fill="#4C9875" transform="translate(627,275)"/>
<path d="M0,0 L7,0 L4,5 L0,8 L-2,8 L-3,1 Z " fill="#47916B" transform="translate(476,269)"/>
<path d="M0,0 L17,0 L17,2 L13,3 L3,3 L-1,4 L-5,2 Z " fill="#4E906F" transform="translate(483,265)"/>
<path d="M0,0 L1,2 L5,0 L13,1 L13,2 L6,2 L8,4 L7,7 L1,7 L-1,3 Z " fill="#347656" transform="translate(616,258)"/>
<path d="M0,0 L8,1 L9,5 L-2,5 L-2,3 L-5,3 L-5,1 Z " fill="#0A341E" transform="translate(562,218)"/>
<path d="M0,0 L1,0 L2,21 L4,30 L2,32 L0,29 Z " fill="#458364" transform="translate(317,347)"/>
<path d="M0,0 L2,0 L2,7 L1,10 L0,17 L-2,18 L-3,3 Z " fill="#448968" transform="translate(417,335)"/>
<path d="M0,0 L6,0 L6,8 L0,8 Z " fill="#0A2B1C" transform="translate(276,340)"/>
<path d="M0,0 L10,1 L8,5 L7,7 L1,7 Z " fill="#0E412C" transform="translate(687,317)"/>
<path d="M0,0 L3,1 L3,5 L6,6 L4,12 L2,12 L1,8 L-1,10 L-8,10 L-8,8 L-1,7 Z " fill="#417C63" transform="translate(413,299)"/>
<path d="M0,0 L3,1 L14,2 L14,3 L4,4 L14,5 L14,6 L2,6 L0,2 L-10,2 L-10,1 Z " fill="#2B664B" transform="translate(412,502)"/>
<path d="M0,0 L4,3 L0,7 L-4,7 L-6,5 L-7,2 Z " fill="#35765B" transform="translate(351,470)"/>
<path d="M0,0 L6,1 L9,4 L12,5 L12,7 L5,7 L1,6 Z " fill="#0E4432" transform="translate(751,406)"/>
<path d="M0,0 L4,0 L4,3 L6,3 L7,9 L10,10 L11,17 L9,16 L9,11 L6,11 L3,7 L3,4 L-1,3 Z " fill="#478C6A" transform="translate(627,266)"/>
<path d="M0,0 L5,0 L6,9 L4,9 L1,10 L0,9 Z " fill="#0A3823" transform="translate(667,263)"/>
<path d="M0,0 L14,1 L14,2 L6,2 L6,4 L0,4 L0,2 L-14,2 L-14,1 Z " fill="#296648" transform="translate(540,578)"/>
<path d="M0,0 L4,0 L5,8 L-2,7 L-2,1 Z " fill="#498B7E" transform="translate(727,561)"/>
<path d="M0,0 L1,0 L1,9 L3,9 L3,11 L8,10 L12,14 L12,20 L10,20 L8,15 L6,13 L2,12 L2,10 L0,10 Z " fill="#2F684D" transform="translate(380,474)"/>
<path d="M0,0 L4,1 L-1,4 L-9,6 L-12,4 L-8,3 L-8,1 Z " fill="#428764" transform="translate(350,374)"/>
<path d="M0,0 L1,0 L1,16 L4,16 L4,20 L10,20 L9,22 L5,22 L5,24 L2,24 L3,17 L0,18 Z " fill="#2E7361" transform="translate(706,518)"/>
<path d="M0,0 L1,4 L-1,4 L-1,8 L-3,8 L-3,10 L-9,10 L-9,12 L-17,12 L-17,11 L-10,11 L-11,8 L-9,7 L-2,7 L-3,3 L0,3 Z " fill="#286553" transform="translate(735,448)"/>
<path d="M0,0 L4,2 L9,5 L15,7 L15,9 L18,9 L17,12 L13,12 L12,9 L5,6 Z " fill="#48947A" transform="translate(705,407)"/>
<path d="M0,0 L1,0 L2,7 L7,12 L6,14 L2,13 L-1,14 L-1,6 Z " fill="#04281A" transform="translate(765,386)"/>
<path d="M0,0 L4,2 L6,2 L8,8 L14,9 L14,11 L8,11 L5,8 L5,6 L1,6 Z " fill="#3F8A67" transform="translate(647,317)"/>
<path d="M0,0 L3,1 L4,3 L5,12 L6,15 L1,14 L2,5 L0,5 Z " fill="#073622" transform="translate(673,276)"/>
<path d="M0,0 L2,0 L1,4 L3,4 L3,10 L-1,13 L-2,6 Z " fill="#40956E" transform="translate(676,376)"/>
<path d="M0,0 L4,0 L4,2 L14,2 L14,4 L18,4 L17,6 L10,5 L1,4 L3,3 L3,1 Z " fill="#336750" transform="translate(350,336)"/>
<path d="M0,0 L7,2 L5,5 L-1,4 L-2,8 L-5,9 L-7,8 L-7,6 L0,2 Z " fill="#2F7A5D" transform="translate(642,582)"/>
<path d="M0,0 L10,0 L17,2 L16,4 L10,4 L10,2 L-1,2 Z " fill="#357E5B" transform="translate(416,505)"/>
<path d="M0,0 L5,0 L10,6 L10,10 L8,10 L5,5 L-1,3 Z " fill="#3E7C65" transform="translate(694,339)"/>
<path d="M0,0 L2,1 L3,5 L10,10 L11,16 L9,16 L8,11 L6,11 L6,9 L0,7 Z " fill="#3A8569" transform="translate(698,386)"/>
<path d="M0,0 L1,4 L-1,4 L-1,8 L-3,8 L-3,12 L-1,12 L-2,16 L-2,13 L-5,14 L-6,7 L-4,5 L-4,7 L-2,7 L-3,1 L-2,3 L0,3 Z " fill="#296951" transform="translate(707,372)"/>
<path d="M0,0 L5,2 L8,5 L8,8 L6,11 L4,11 L2,5 Z " fill="#307861" transform="translate(670,582)"/>
<path d="M0,0 L2,0 L2,3 L7,4 L13,5 L13,7 L5,7 L1,6 Z " fill="#124E3B" transform="translate(737,400)"/>
<path d="M0,0 L5,0 L9,2 L9,4 L7,4 L8,7 L4,6 L1,4 Z " fill="#427C61" transform="translate(344,335)"/>
<path d="M0,0 L1,4 L3,4 L3,8 L5,8 L6,13 L3,13 L4,9 L2,9 L1,11 L-1,9 Z " fill="#326B50" transform="translate(639,266)"/>
<path d="M0,0 L2,0 L2,7 L-3,7 L-4,6 L-4,1 Z " fill="#05321C" transform="translate(669,250)"/>
<path d="M0,0 L12,2 L12,5 L4,5 L1,4 Z " fill="#043218" transform="translate(611,233)"/>
<path d="M0,0 L4,0 L4,9 L1,10 L0,7 Z " fill="#0B382B" transform="translate(353,775)"/>
<path d="M0,0 L3,1 L1,1 L1,3 L6,2 L7,7 L13,6 L11,7 L11,9 L14,10 L10,10 L10,8 L6,8 L4,5 L0,4 L0,2 L-2,1 Z " fill="#2D695B" transform="translate(694,594)"/>
<path d="M0,0 L6,2 L6,4 L-3,4 L-4,10 L-5,10 L-5,3 Z " fill="#418C6F" transform="translate(698,393)"/>
<path d="M0,0 L5,1 L10,8 L10,10 L7,10 L6,6 L3,6 L2,3 L0,2 Z " fill="#45866B" transform="translate(677,335)"/>
<path d="M0,0 L6,1 L11,2 L12,6 L7,6 L0,2 Z " fill="#35825E" transform="translate(665,326)"/>
<path d="M0,0 L2,1 L3,6 L3,15 L0,15 Z " fill="#468F6C" transform="translate(644,310)"/>
<path d="M0,0 L2,0 L2,15 L-3,16 L-3,14 L0,14 Z " fill="#0C3C2F" transform="translate(375,285)"/>
<path d="M0,0 L6,0 L6,6 L0,6 Z " fill="#061D17" transform="translate(336,288)"/>
<path d="M0,0 L3,0 L5,0 L4,4 L10,5 L10,13 L8,9 L8,7 L4,6 L0,2 Z " fill="#3A7257" transform="translate(638,275)"/>
<path d="M0,0 L5,0 L4,5 L8,7 L5,8 L2,8 L0,5 Z " fill="#409870" transform="translate(602,268)"/>
<path d="M0,0 L7,1 L8,6 L5,7 L5,5 L0,4 L-2,2 L0,2 Z " fill="#357366" transform="translate(727,547)"/>
<path d="M0,0 L1,0 L1,19 L-1,19 L-1,22 L-3,22 L-4,18 L-1,17 Z " fill="#387A64" transform="translate(708,353)"/>
<path d="M0,0 L2,0 L3,12 L4,14 L2,16 L2,14 L0,14 L-1,1 Z " fill="#489875" transform="translate(675,343)"/>
<path d="M0,0 L7,0 L5,1 L5,3 L16,3 L16,4 L4,4 L4,2 L2,2 L1,4 L1,2 L-7,2 L-7,1 Z " fill="#0B3624" transform="translate(696,316)"/>
<path d="M0,0 L3,0 L4,8 L6,8 L6,10 L1,9 Z " fill="#0E412B" transform="translate(669,287)"/>
<path d="M0,0 L8,0 L8,5 L0,4 Z " fill="#388662" transform="translate(615,267)"/>
<path d="M0,0 L2,1 L2,5 L4,6 L3,15 L1,15 L0,6 L-1,3 Z " fill="#387D5B" transform="translate(458,536)"/>
<path d="M0,0 L2,0 L3,7 L3,19 L1,19 L0,15 Z " fill="#377D66" transform="translate(742,423)"/>
<path d="M0,0 L9,0 L8,4 L0,4 Z " fill="#479770" transform="translate(496,392)"/>
<path d="M0,0 L1,0 L1,5 L4,4 L4,6 L6,6 L6,8 L-1,9 L-1,13 L-3,13 L-4,16 L-4,12 L-2,12 L-2,8 L2,8 L2,6 L0,6 Z " fill="#36624D" transform="translate(318,326)"/>
<path d="M0,0 L8,0 L8,1 L1,1 L1,3 L8,3 L8,4 L1,5 L-1,4 L-1,12 L-2,12 L-2,2 Z " fill="#346451" transform="translate(404,306)"/>
<path d="M0,0 L5,1 L5,5 L-2,7 L-2,5 L-4,3 L0,2 Z " fill="#397B5B" transform="translate(625,257)"/>
<path d="M0,0 L3,0 L3,4 L7,5 L7,7 L0,7 Z " fill="#2F7D5E" transform="translate(627,580)"/>
<path d="M0,0 L2,4 L2,15 L0,15 L-1,4 L-2,1 Z " fill="#3A7E62" transform="translate(323,454)"/>
<path d="M0,0 L4,1 L2,1 L2,3 L4,4 L-1,5 L-2,12 L-6,12 L-4,8 L-2,8 L-2,4 L0,4 Z " fill="#2D6049" transform="translate(394,330)"/>
<path d="M0,0 L7,1 L7,4 L-3,4 L-5,2 Z " fill="#438564" transform="translate(449,324)"/>
<path d="M0,0 L5,0 L5,2 L7,2 L7,0 L12,1 L12,3 L-1,3 Z M12,0 L15,1 Z " fill="#3B9368" transform="translate(509,318)"/>
<path d="M0,0 L4,1 L0,4 L0,2 L-2,2 L-2,21 L-3,21 L-3,1 Z " fill="#0A291F" transform="translate(349,299)"/>
<path d="M0,0 L2,0 L0,8 L-6,8 L-8,6 L-7,3 L-5,4 L-5,6 L-3,6 L-3,4 L-1,3 Z " fill="#469771" transform="translate(623,276)"/>
<path d="M0,0 L2,1 L2,14 L-2,15 L0,4 L-1,1 Z " fill="#47867E" transform="translate(737,579)"/>
<path d="M0,0 L4,1 L4,14 L2,14 L1,3 Z " fill="#0B3325" transform="translate(771,409)"/>
<path d="M0,0 L3,0 L6,6 L7,13 L4,14 L2,4 Z " fill="#4B8F74" transform="translate(679,343)"/>
<path d="M0,0 L2,0 L2,12 L4,12 L4,14 L0,13 Z " fill="#104A31" transform="translate(679,303)"/>
<path d="M0,0 L5,1 L5,8 L0,9 L1,3 Z M-1,2 Z " fill="#3D7F5E" transform="translate(448,306)"/>
<path d="M0,0 L5,0 L11,2 L11,6 L7,6 L5,3 L0,2 Z " fill="#0B3426" transform="translate(370,799)"/>
<path d="M0,0 L7,1 L7,5 L0,5 Z " fill="#225744" transform="translate(642,586)"/>
<path d="M0,0 L2,4 L7,6 L7,8 L-3,8 L-1,7 Z " fill="#032317" transform="translate(713,296)"/>
<path d="M0,0 L2,2 L3,11 L-1,10 L-1,1 Z " fill="#3D8270" transform="translate(697,566)"/>
<path d="M0,0 L3,1 L2,12 L0,12 L-1,2 Z " fill="#377B62" transform="translate(326,468)"/>
<path d="M0,0 L6,0 L6,2 L8,3 L7,5 L-1,4 Z " fill="#357659" transform="translate(375,470)"/>
<path d="M0,0 L3,1 L2,4 L5,5 L3,10 L1,10 L-1,3 Z " fill="#367C5E" transform="translate(444,528)"/>
<path d="M0,0 L3,0 L5,5 L7,6 L7,8 L9,8 L9,10 L5,9 L4,6 L2,6 L2,2 L0,2 Z " fill="#4D8E6F" transform="translate(343,345)"/>
<path d="M0,0 L2,0 L2,2 L14,2 L14,8 L13,8 L13,3 L-3,4 L-2,2 L0,2 Z " fill="#04110B" transform="translate(698,318)"/>
<path d="M0,0 L4,1 L1,1 L1,7 L3,7 L2,11 L-1,9 L-1,16 L-2,16 L-2,8 L0,8 Z " fill="#34634E" transform="translate(414,290)"/>
<path d="M0,0 L9,1 L9,4 L1,4 Z " fill="#377B5A" transform="translate(489,569)"/>
<path d="M0,0 L1,0 L3,16 L1,14 L-1,10 L-1,3 Z " fill="#3E8261" transform="translate(653,307)"/>
<path d="M0,0 L4,1 L4,5 L8,5 L8,0 L9,0 L9,6 L3,6 L1,3 L-3,1 Z " fill="#26634D" transform="translate(641,596)"/>
<path d="M0,0 L2,4 L5,11 L0,10 Z " fill="#438677" transform="translate(707,584)"/>
<path d="M0,0 L9,0 L9,3 L0,3 Z " fill="#357D58" transform="translate(499,574)"/>
<path d="M0,0 L2,4 L7,8 L7,14 L6,14 L6,9 L1,8 L1,5 L-1,5 Z " fill="#2F685E" transform="translate(735,552)"/>
<path d="M0,0 L7,2 L5,4 L3,3 L3,5 L6,6 L2,6 L0,3 L-6,2 L-6,1 Z " fill="#2C6A4C" transform="translate(432,508)"/>
<path d="M0,0 L6,0 L7,5 L2,5 L2,3 L0,3 Z " fill="#0C3D28" transform="translate(673,292)"/>
<path d="M0,0 L5,0 L5,3 L7,3 L6,12 L4,10 L4,1 Z " fill="#3A7B5B" transform="translate(632,263)"/>
<path d="M0,0 L2,0 L2,3 L8,3 L8,4 L-4,4 L-4,1 Z " fill="#4B9A75" transform="translate(584,264)"/>
<path d="M0,0 L1,2 L5,3 L-2,5 L-4,4 L-3,10 L-4,8 L-6,7 L-5,3 Z " fill="#3C735B" transform="translate(469,255)"/>
<path d="M0,0 L3,0 L5,3 L5,6 L0,6 Z " fill="#255A48" transform="translate(669,585)"/>
<path d="M0,0 L2,0 L2,6 L7,6 L7,8 L1,8 L0,7 Z " fill="#125540" transform="translate(723,379)"/>
<path d="M0,0 L1,4 L3,4 L5,9 L8,12 L1,10 L2,5 L-1,5 Z " fill="#002016" transform="translate(741,328)"/>
<path d="M0,0 L6,0 L11,6 L6,6 L4,2 Z " fill="#285E47" transform="translate(672,324)"/>
<path d="M0,0 L7,1 L7,2 L1,2 L1,4 L-9,4 L-6,1 Z " fill="#0D3123" transform="translate(357,318)"/>
<path d="M0,0 L2,4 L-1,7 L-1,5 L-3,5 L-3,12 L-4,12 L-4,4 Z " fill="#2E6148" transform="translate(438,274)"/>
<path d="M0,0 L5,0 L7,6 L0,4 Z " fill="#0E3C23" transform="translate(657,253)"/>
<path d="M0,0 L5,1 L6,6 L8,6 L7,10 L7,7 L5,7 L4,9 L2,7 L4,3 Z " fill="#26614C" transform="translate(710,392)"/>
<path d="M0,0 L4,0 L4,6 L0,6 Z " fill="#0D3E29" transform="translate(277,341)"/>
<path d="M0,0 L6,2 L6,5 L9,5 L9,7 L5,7 L5,5 L1,3 Z " fill="#3B7F63" transform="translate(684,336)"/>
<path d="M0,0 L5,3 L5,17 L4,17 L4,4 L1,4 Z " fill="#265740" transform="translate(653,297)"/>
<path d="M0,0 L13,1 L13,4 L4,3 Z " fill="#02281B" transform="translate(714,304)"/>
<path d="M0,0 L1,2 L3,2 L3,0 L6,0 L6,2 L13,2 L12,5 L12,3 L0,3 Z " fill="#2A7858" transform="translate(597,576)"/>
<path d="M0,0 L3,0 L3,7 L0,8 Z " fill="#062917" transform="translate(680,255)"/>
<path d="M0,0 L8,0 L8,3 L1,3 Z " fill="#052C15" transform="translate(614,232)"/>
<path d="M0,0 L4,0 L4,2 L7,2 L7,4 L0,4 Z " fill="#307E5F" transform="translate(631,591)"/>
<path d="M0,0 L3,0 L2,3 L0,3 Z M-7,3 L0,3 L0,5 L-7,5 Z " fill="#317D62" transform="translate(649,588)"/>
<path d="M0,0 L4,1 L4,7 L0,6 Z " fill="#063225" transform="translate(748,382)"/>
<path d="M0,0 L1,2 L4,1 L2,6 L7,6 L7,7 L1,7 L-1,3 Z " fill="#357B5A" transform="translate(616,258)"/>
<path d="M0,0 L2,3 L1,7 L-10,7 L-10,6 L0,5 Z " fill="#0F4328" transform="translate(623,240)"/>
<path d="M0,0 L2,0 L1,5 L-1,5 L-2,9 L-3,2 L0,2 Z " fill="#0D3C23" transform="translate(627,237)"/>
<path d="M0,0 L5,3 L5,13 L4,13 L4,4 L-1,4 Z " fill="#042012" transform="translate(679,251)"/>
<path d="M0,0 L4,0 L4,2 L2,2 L2,11 L1,11 L1,3 L-2,2 L0,2 Z " fill="#092C21" transform="translate(764,401)"/>
<path d="M0,0 L3,3 L-1,6 L-1,4 L-4,4 L-4,2 Z " fill="#377C5B" transform="translate(389,341)"/>
<path d="M0,0 L1,0 L1,6 L3,6 L3,9 L-5,8 L-4,6 L0,6 Z " fill="#31644B" transform="translate(444,266)"/>
<path d="M0,0 L2,0 L2,7 L-3,7 L-3,5 L0,5 Z " fill="#092F27" transform="translate(447,214)"/>
<path d="M0,0 L7,0 L6,2 L2,2 L2,4 L-1,4 Z " fill="#2E6D5E" transform="translate(709,538)"/>
<path d="M0,0 L6,0 L6,3 L0,3 Z " fill="#337A58" transform="translate(426,506)"/>
<path d="M0,0 L1,0 L1,6 L-1,6 L-1,8 L-5,7 L-2,7 L-2,5 L-4,4 L0,3 Z " fill="#09150F" transform="translate(383,342)"/>
<path d="M0,0 L4,0 L4,2 L0,4 L-7,4 L-6,2 L0,2 Z " fill="#05221A" transform="translate(354,296)"/>
<path d="M0,0 L4,2 L3,7 L0,6 Z " fill="#417D61" transform="translate(415,291)"/>
<path d="M0,0 L4,1 L0,5 L-2,4 L-2,1 Z " fill="#397A5C" transform="translate(441,273)"/>
<path d="M0,0 L2,0 L2,2 L0,2 L0,4 L-2,4 L-2,6 L1,7 L-3,7 L-3,1 Z " fill="#0C3521" transform="translate(605,233)"/>
<path d="M0,0 L3,1 L2,3 L0,3 L-1,5 L-1,3 L-8,3 L-8,2 L-1,1 Z " fill="#327866" transform="translate(692,592)"/>
<path d="M0,0 L2,0 L3,7 L-2,2 Z " fill="#2D664C" transform="translate(487,566)"/>
<path d="M0,0 L4,4 L3,7 L1,7 L-1,1 Z " fill="#387C5C" transform="translate(392,490)"/>
<path d="M0,0 L3,1 L5,5 L7,7 L5,7 L4,11 L4,7 L2,7 Z " fill="#0E3F2F" transform="translate(730,389)"/>
<path d="M0,0 L2,0 L3,8 L1,9 L0,7 Z " fill="#3E7D62" transform="translate(401,319)"/>
<path d="M0,0 L4,0 L5,4 L0,4 Z " fill="#082A21" transform="translate(345,289)"/>
<path d="M0,0 L2,0 L4,8 L0,7 Z " fill="#0C3B26" transform="translate(667,265)"/>
<path d="M0,0 L1,3 L3,3 L4,0 L4,4 L0,5 L-6,4 L-6,3 L0,3 Z " fill="#0B1410" transform="translate(460,258)"/>
<path d="M0,0 L7,0 L4,3 L-2,2 Z " fill="#367E6A" transform="translate(686,576)"/>
<path d="M0,0 L6,0 L7,3 L1,3 Z " fill="#307B64" transform="translate(718,456)"/>
<path d="M0,0 L1,2 L3,3 L1,6 L0,3 L-8,3 L-8,2 L0,2 Z " fill="#0E3B2E" transform="translate(750,405)"/>
<path d="M0,0 L1,0 L2,7 L4,10 L-1,9 Z " fill="#011C12" transform="translate(765,386)"/>
<path d="M0,0 L4,2 L5,5 L1,5 L1,3 L-3,2 L0,2 Z " fill="#0E3F2A" transform="translate(683,315)"/>
<path d="M0,0 L3,1 L2,5 L-1,5 Z " fill="#042E1C" transform="translate(705,300)"/>
<path d="M0,0 L5,3 L5,5 L0,5 Z " fill="#458064" transform="translate(647,299)"/>
<path d="M0,0 L4,1 L4,5 L0,4 Z " fill="#418D69" transform="translate(608,265)"/>
<path d="M0,0 L5,0 L5,3 L1,3 Z " fill="#408964" transform="translate(521,546)"/>
<path d="M0,0 L3,0 L3,4 L0,5 L-1,1 Z " fill="#489873" transform="translate(545,412)"/>
<path d="M0,0 L1,0 L1,7 L-1,7 L-2,2 Z " fill="#419D72" transform="translate(659,376)"/>
<path d="M0,0 L4,2 L10,3 L10,4 L1,4 Z " fill="#143F2D" transform="translate(347,317)"/>
<path d="M0,0 L6,5 L4,6 L0,4 Z " fill="#245941" transform="translate(659,314)"/>
<path d="M0,0 L4,0 L4,4 L0,4 Z " fill="#092A21" transform="translate(337,289)"/>
<path d="M0,0 L3,0 L5,4 L2,5 L2,3 L0,3 Z " fill="#387C5B" transform="translate(467,556)"/>
<path d="M0,0 L2,0 L0,5 L-3,3 L-3,1 Z " fill="#387D6E" transform="translate(725,543)"/>
<path d="M0,0 L1,4 L1,7 L-1,7 L-1,3 L-5,2 Z " fill="#2E674C" transform="translate(457,535)"/>
<path d="M0,0 L2,0 L2,3 L5,3 L5,5 L0,4 Z " fill="#155843" transform="translate(737,400)"/>
<path d="M0,0 L4,1 L2,1 L2,3 L4,4 L-1,5 Z " fill="#376852" transform="translate(394,330)"/>
<path d="M0,0 L2,0 L2,5 L-2,5 L-2,3 L0,3 Z " fill="#307E61" transform="translate(647,596)"/>
<path d="M0,0 L2,0 L2,2 L5,2 L5,4 L0,4 Z " fill="#0B1D16" transform="translate(642,586)"/>
<path d="M0,0 L4,1 L3,4 L-1,3 Z " fill="#367A64" transform="translate(739,418)"/>
<path d="M0,0 L4,2 L2,2 L2,5 L0,5 L-1,1 Z " fill="#34795F" transform="translate(705,370)"/>
<path d="M0,0 L2,1 L2,3 L5,3 L5,5 L0,4 L-1,1 Z " fill="#337E5A" transform="translate(663,321)"/>
<path d="M0,0 L5,0 L6,3 L1,3 Z " fill="#3B795B" transform="translate(574,249)"/>
<path d="M0,0 L1,0 L1,5 L3,5 L2,8 L0,8 Z " fill="#377A5B" transform="translate(383,477)"/>
<path d="M0,0 L2,0 L1,3 L-4,3 L-4,1 Z " fill="#134F35" transform="translate(693,320)"/>
<path d="M0,0 L2,0 L2,3 L4,3 L4,5 L0,4 Z " fill="#10452F" transform="translate(671,292)"/>
<path d="M0,0 L3,0 L2,4 L-1,4 Z " fill="#082922" transform="translate(352,291)"/>
<path d="M0,0 L4,0 L4,3 L-1,2 Z " fill="#0C2F28" transform="translate(372,267)"/>
<path d="M0,0 L3,1 L2,6 L1,2 L-3,1 Z " fill="#0D3922" transform="translate(609,240)"/>
<path d="M0,0 L3,0 L3,4 L0,4 Z " fill="#337C64" transform="translate(666,586)"/>
<path d="M0,0 L4,1 L3,3 L-2,3 Z " fill="#367F5C" transform="translate(537,567)"/>
<path d="M0,0 L2,1 L2,5 L-1,5 Z " fill="#377D59" transform="translate(318,438)"/>
<path d="M0,0 L2,2 L3,7 L1,7 L-1,1 Z " fill="#53A385" transform="translate(698,422)"/>
<path d="M0,0 L3,2 L2,4 L-3,3 L-3,1 Z " fill="#042016" transform="translate(769,396)"/>
<path d="M0,0 L4,1 L2,3 L-2,2 Z " fill="#438462" transform="translate(330,384)"/>
<path d="M0,0 L3,1 L2,5 L0,4 Z " fill="#053628" transform="translate(746,384)"/>
<path d="M0,0 L4,3 L3,6 L0,3 Z " fill="#3F8262" transform="translate(638,277)"/>
<path d="M0,0 L3,1 L3,4 L0,4 Z " fill="#0C1F18" transform="translate(670,586)"/>
<path d="M0,0 L3,1 L1,4 L-1,4 Z " fill="#397B5F" transform="translate(345,471)"/>
<path d="M0,0 L4,1 L3,3 L-1,2 Z " fill="#2E7862" transform="translate(709,462)"/>
<path d="M0,0 L4,1 L3,4 L1,4 Z " fill="#387B5A" transform="translate(321,444)"/>
<path d="M0,0 L3,1 L3,4 L0,4 Z " fill="#4A977C" transform="translate(715,415)"/>
<path d="M0,0 L1,0 L1,5 L-1,6 L-2,3 Z M-3,4 Z " fill="#439D72" transform="translate(660,344)"/>
<path d="M0,0 L5,0 L3,1 L3,3 L0,3 Z " fill="#08251C" transform="translate(714,317)"/>
<path d="M0,0 L3,1 L2,5 L0,4 Z " fill="#40785D" transform="translate(650,295)"/>
<path d="M0,0 L4,2 L2,5 Z " fill="#2F775F" transform="translate(670,582)"/>
<path d="M0,0 L3,1 L0,3 L-3,3 L-3,1 Z " fill="#3F8060" transform="translate(478,540)"/>
<path d="M0,0 L3,0 L3,3 L0,4 Z " fill="#25513E" transform="translate(347,472)"/>
<path d="M0,0 L2,3 L-2,3 L-2,1 Z " fill="#377B5E" transform="translate(323,454)"/>
<path d="M0,0 L2,0 L1,5 L-1,2 Z " fill="#0B3B2D" transform="translate(727,336)"/>
<path d="M0,0 L4,4 L1,5 Z " fill="#00251A" transform="translate(737,325)"/>
<path d="M0,0 L4,2 L4,4 L1,4 Z " fill="#30644C" transform="translate(653,297)"/>
</svg>
