<?xml version="1.0" encoding="UTF-8"?>
<!-- Generator: visioncortex VTracer 0.6.4 -->
<svg version="1.1" xmlns="http://www.w3.org/2000/svg" width="1024" height="1024">
<path d="M0,0 L1024,0 L1024,1024 L0,1024 Z " fill="#000000" transform="translate(0,0)"/>
<path d="M0,0 L5,1 L6,4 L10,4 L10,6 L12,6 L12,4 L14,4 L14,6 L18,6 L18,8 L20,8 L20,6 L22,6 L24,9 L28,10 L28,12 L32,12 L32,16 L42,16 L46,20 L46,26 L50,28 L50,30 L52,30 L52,48 L54,48 L54,50 L56,50 L56,58 L54,58 L54,60 L58,60 L58,62 L56,62 L56,64 L60,64 L60,70 L62,70 L62,74 L64,74 L64,82 L66,82 L66,86 L68,86 L68,90 L66,90 L66,104 L64,104 L66,109 L66,112 L64,112 L64,116 L66,116 L66,124 L64,124 L64,136 L62,136 L62,142 L59,142 L60,138 L58,138 L58,141 L56,141 L56,144 L58,144 L58,146 L56,146 L58,149 L58,152 L56,152 L56,158 L58,158 L58,162 L60,162 L60,166 L62,166 L62,174 L60,174 L60,176 L62,176 L62,184 L64,184 L64,194 L66,194 L66,204 L68,204 L68,218 L70,218 L70,226 L72,226 L72,222 L74,222 L74,242 L72,242 L72,250 L70,250 L70,256 L68,256 L68,258 L70,258 L70,261 L68,261 L68,274 L66,274 L66,288 L64,288 L64,292 L62,292 L62,296 L60,296 L60,300 L58,300 L58,302 L56,302 L56,306 L52,306 L52,310 L48,310 L48,316 L46,316 L46,318 L40,318 L40,320 L34,320 L34,322 L24,322 L24,324 L6,324 L6,326 L2,330 L-10,330 L-10,328 L-16,328 L-16,330 L-20,330 L-20,328 L-24,328 L-24,326 L-26,326 L-26,322 L-30,322 L-32,317 L-34,316 L-34,310 L-39,312 L-40,314 L-37,314 L-38,320 L-42,320 L-42,322 L-48,322 L-48,314 L-46,314 L-46,312 L-42,312 L-42,310 L-44,310 L-44,304 L-46,304 L-50,300 L-50,298 L-55,297 L-56,294 L-62,294 L-62,296 L-64,296 L-64,298 L-68,298 L-68,302 L-72,302 L-72,304 L-76,308 L-82,308 L-82,312 L-84,312 L-84,314 L-88,314 L-88,318 L-92,318 L-92,320 L-90,320 L-90,322 L-92,322 L-92,324 L-90,324 L-90,332 L-78,332 L-78,330 L-76,330 L-76,332 L-68,332 L-68,334 L-72,335 L-80,334 L-80,336 L-72,336 L-72,338 L-84,338 L-84,340 L-80,340 L-80,342 L-83,344 L-84,348 L-88,348 L-88,350 L-100,350 L-100,348 L-104,348 L-104,354 L-106,354 L-106,352 L-110,356 L-114,356 L-114,358 L-118,358 L-118,360 L-126,360 L-126,362 L-130,362 L-130,364 L-136,364 L-136,362 L-154,362 L-154,364 L-176,364 L-178,360 L-182,360 L-182,356 L-184,356 L-184,358 L-190,358 L-190,356 L-198,356 L-198,354 L-200,354 L-200,350 L-206,350 L-206,348 L-210,348 L-210,352 L-212,352 L-212,340 L-208,340 L-208,344 L-202,344 L-202,336 L-208,336 L-208,330 L-210,330 L-210,332 L-212,332 L-212,330 L-214,330 L-214,332 L-216,332 L-216,328 L-220,328 L-220,324 L-223,326 L-224,330 L-230,330 L-230,328 L-232,328 L-232,330 L-240,330 L-240,328 L-244,328 L-244,326 L-252,326 L-252,324 L-256,324 L-256,322 L-260,322 L-260,320 L-266,320 L-270,316 L-270,312 L-282,312 L-282,310 L-284,310 L-284,312 L-288,310 L-288,308 L-292,308 L-292,306 L-296,306 L-296,304 L-300,304 L-300,302 L-304,302 L-304,300 L-308,300 L-308,298 L-312,298 L-312,296 L-317,295 L-318,292 L-322,292 L-322,288 L-328,288 L-329,274 L-332,272 L-332,268 L-334,268 L-334,264 L-336,264 L-336,260 L-338,260 L-338,252 L-340,252 L-340,234 L-338,234 L-338,232 L-340,232 L-340,222 L-338,222 L-338,218 L-336,218 L-336,210 L-334,210 L-334,208 L-332,208 L-332,194 L-330,194 L-330,192 L-328,192 L-330,186 L-328,186 L-328,176 L-326,176 L-326,178 L-322,178 L-322,176 L-324,176 L-324,174 L-322,174 L-322,168 L-320,168 L-320,160 L-316,160 L-316,148 L-314,148 L-314,144 L-312,144 L-312,138 L-310,138 L-310,136 L-308,136 L-308,132 L-298,132 L-298,130 L-296,130 L-296,126 L-290,126 L-290,130 L-288,130 L-288,140 L-290,140 L-290,144 L-284,144 L-284,136 L-280,136 L-280,134 L-278,134 L-280,128 L-272,128 L-272,142 L-270,142 L-270,144 L-264,144 L-262,147 L-258,148 L-256,144 L-252,144 L-252,148 L-244,148 L-244,156 L-242,156 L-242,154 L-240,154 L-240,150 L-238,150 L-238,148 L-236,148 L-230,155 L-226,156 L-226,154 L-224,154 L-224,148 L-222,148 L-222,146 L-220,146 L-220,144 L-224,144 L-225,140 L-228,139 L-228,144 L-232,144 L-232,136 L-236,136 L-236,134 L-232,134 L-232,130 L-224,130 L-224,132 L-222,132 L-222,130 L-220,130 L-220,132 L-216,132 L-216,128 L-212,128 L-212,116 L-210,116 L-210,122 L-206,122 L-206,118 L-204,118 L-204,112 L-201,112 L-202,116 L-192,114 L-192,112 L-190,112 L-190,110 L-192,110 L-190,104 L-192,104 L-192,98 L-190,98 L-190,96 L-192,96 L-192,88 L-190,88 L-190,86 L-192,86 L-192,82 L-188,82 L-188,80 L-184,80 L-184,78 L-186,78 L-186,76 L-188,76 L-188,66 L-184,66 L-184,64 L-182,64 L-182,54 L-184,54 L-184,48 L-186,48 L-186,46 L-184,46 L-184,44 L-180,44 L-180,42 L-178,42 L-178,40 L-176,40 L-176,38 L-178,38 L-178,36 L-176,36 L-176,32 L-168,32 L-168,30 L-166,30 L-166,28 L-162,28 L-160,24 L-156,22 L-155,19 L-148,20 L-148,18 L-151,18 L-151,16 L-144,16 L-144,14 L-152,14 L-152,12 L-148,12 L-148,10 L-144,10 L-144,12 L-136,12 L-136,10 L-132,10 L-132,8 L-124,8 L-124,6 L-110,6 L-110,8 L-94,8 L-94,10 L-84,10 L-84,8 L-82,8 L-82,10 L-80,10 L-80,8 L-78,8 L-78,10 L-76,10 L-76,8 L-32,8 L-32,6 L-8,6 L-8,4 L-2,4 Z " fill="#4975AE" transform="translate(648,336)"/>
<path d="M0,0 L2,4 L5,11 L5,14 L9,16 L12,30 L13,30 L14,38 L17,38 L19,38 L19,33 L21,33 L21,53 L19,53 L19,61 L17,61 L17,67 L15,67 L15,69 L17,69 L17,72 L15,72 L15,85 L13,85 L13,99 L11,99 L11,103 L9,103 L9,107 L7,107 L7,111 L5,111 L5,113 L3,113 L3,117 L-2,117 L-2,120 L-4,120 L-4,117 L-8,120 L-9,123 L-14,124 L-15,127 L-29,127 L-49,129 L-49,131 L-53,132 L-53,129 L-57,130 L-65,128 L-68,127 L-68,125 L-70,125 L-71,123 L-73,124 L-73,122 L-78,122 L-76,115 L-74,115 L-74,112 L-81,110 L-84,110 L-85,104 L-93,103 L-93,98 L-96,98 L-96,95 L-98,95 L-98,88 L-101,88 L-103,83 L-105,83 L-105,77 L-108,76 L-107,72 L-106,70 L-109,69 L-109,67 L-107,65 L-103,62 L-102,63 L-102,69 L-100,70 L-102,76 L-102,81 L-96,82 L-92,86 L-91,91 L-89,92 L-89,99 L-82,99 L-80,102 L-78,102 L-77,99 L-76,102 L-69,104 L-69,106 L-64,104 L-62,105 L-52,104 L-51,109 L-44,110 L-41,113 L-33,114 L-32,111 L-29,110 L-33,106 L-29,105 L-21,102 L-17,102 L-17,99 L-13,99 L-13,97 L-10,97 L-8,87 L-5,87 L-3,78 L-5,77 L-5,68 L-3,67 L-3,60 L-5,57 L-6,51 L-10,50 L-8,37 L-4,39 L-4,36 L-2,36 L-2,30 L-11,30 L-11,25 L-16,25 L-18,29 L-23,30 L-25,30 L-44,30 L-47,33 L-49,32 L-44,27 L-29,27 L-25,25 L-10,24 L-9,27 L-3,29 L-3,15 L-2,13 L-3,10 L-3,2 L0,2 Z M-32,109 Z " fill="#4B7EAC" transform="translate(701,525)"/>
<path d="M0,0 L6,0 L6,4 L8,4 L8,14 L6,14 L6,18 L12,18 L12,10 L16,10 L16,8 L18,8 L16,2 L24,2 L24,16 L26,16 L26,18 L32,18 L34,21 L38,22 L40,18 L44,18 L43,22 L43,19 L41,19 L41,24 L38,26 L32,26 L29,23 L23,21 L23,18 L21,18 L20,11 L17,13 L15,19 L13,22 L6,22 L5,19 L2,20 L3,7 L-2,10 L-8,12 L-12,21 L-14,22 L-16,30 L-14,31 L-16,35 L-14,36 L-16,36 L-17,39 L-19,39 L-23,49 L-21,50 L-23,55 L-29,61 L-27,68 L-30,70 L-30,93 L-28,95 L-34,100 L-37,104 L-35,108 L-36,112 L-39,120 L-38,122 L-36,120 L-34,120 L-32,116 L-31,126 L-29,128 L-30,134 L-23,134 L-23,139 L-21,141 L-21,144 L-19,144 L-19,146 L-16,147 L-16,154 L-12,154 L-11,163 L-12,166 L-2,166 L3,168 L12,169 L15,173 L29,175 L29,177 L37,179 L46,179 L49,177 L47,182 L45,186 L44,190 L42,191 L49,192 L49,190 L53,191 L65,191 L65,195 L73,194 L74,192 L77,193 L80,194 L87,196 L90,197 L89,199 L92,199 L93,197 L92,203 L94,207 L91,207 L91,204 L89,204 L89,209 L94,209 L94,210 L88,210 L88,204 L86,204 L86,206 L84,206 L84,204 L82,204 L82,206 L80,206 L80,202 L76,202 L76,198 L73,200 L72,204 L66,204 L66,202 L64,202 L64,204 L56,204 L56,202 L52,202 L52,200 L44,200 L44,198 L40,198 L40,196 L36,196 L36,194 L30,194 L26,190 L26,186 L14,186 L14,184 L12,184 L12,186 L8,184 L8,182 L4,182 L4,180 L0,180 L0,178 L-4,178 L-4,176 L-8,176 L-8,174 L-12,174 L-12,172 L-16,172 L-16,170 L-21,169 L-22,166 L-26,166 L-26,162 L-32,162 L-33,148 L-36,146 L-36,142 L-38,142 L-38,138 L-40,138 L-40,134 L-42,134 L-42,126 L-44,126 L-44,108 L-42,108 L-42,106 L-44,106 L-44,96 L-42,96 L-42,92 L-40,92 L-40,84 L-38,84 L-38,82 L-36,82 L-36,68 L-34,68 L-34,66 L-32,66 L-34,60 L-32,60 L-32,50 L-30,50 L-30,52 L-26,52 L-26,50 L-28,50 L-28,48 L-26,48 L-26,42 L-24,42 L-24,34 L-20,34 L-20,22 L-18,22 L-18,18 L-16,18 L-16,12 L-14,12 L-14,10 L-12,10 L-12,6 L-2,6 L-2,4 L0,4 Z M25,20 Z M-27,66 Z " fill="#4467A4" transform="translate(352,462)"/>
<path d="M0,0 L5,1 L6,4 L10,4 L10,6 L12,6 L12,4 L14,4 L14,6 L18,6 L18,8 L20,8 L20,6 L22,6 L24,9 L28,10 L28,12 L32,12 L32,16 L42,16 L46,20 L46,26 L50,28 L50,30 L52,30 L52,48 L54,48 L54,50 L56,50 L56,58 L54,58 L54,60 L58,60 L58,62 L56,62 L56,64 L60,64 L60,70 L62,70 L62,74 L64,74 L64,82 L66,82 L66,86 L68,86 L68,90 L66,90 L66,104 L65,104 L65,90 L63,90 L63,101 L61,103 L61,92 L58,93 L58,90 L55,90 L55,83 L57,80 L56,73 L56,67 L57,70 L59,70 L59,65 L52,68 L47,67 L48,64 L46,63 L48,63 L49,59 L51,53 L51,51 L48,51 L46,48 L46,44 L48,44 L47,37 L46,33 L40,30 L33,30 L32,32 L32,30 L29,31 L27,33 L25,28 L24,28 L24,23 L16,25 L13,24 L10,26 L5,23 L6,21 L8,21 L9,14 L8,12 L10,12 L8,10 L5,11 L5,9 L0,11 L-4,16 L-7,16 L-9,10 L-30,11 L-32,12 L-69,12 L-70,14 L-78,14 L-80,13 L-80,11 L-84,14 L-97,14 L-101,14 L-106,14 L-106,12 L-120,11 L-124,12 L-134,14 L-135,17 L-148,18 L-151,18 L-151,16 L-144,16 L-144,14 L-152,14 L-152,12 L-148,12 L-148,10 L-144,10 L-144,12 L-136,12 L-136,10 L-132,10 L-132,8 L-124,8 L-124,6 L-110,6 L-110,8 L-94,8 L-94,10 L-84,10 L-84,8 L-82,8 L-82,10 L-80,10 L-80,8 L-78,8 L-78,10 L-76,10 L-76,8 L-32,8 L-32,6 L-8,6 L-8,4 L-2,4 Z " fill="#4661A3" transform="translate(648,336)"/>
<path d="M0,0 L1,0 L3,9 L6,10 L8,20 L9,35 L11,31 L12,33 L13,51 L12,54 L8,55 L7,85 L5,85 L4,97 L2,101 L-4,105 L-6,105 L-6,107 L-8,108 L-18,109 L-25,114 L-44,116 L-59,116 L-61,109 L-66,108 L-67,106 L-73,105 L-77,102 L-77,100 L-75,100 L-74,97 L-73,100 L-66,102 L-66,104 L-61,102 L-59,103 L-49,102 L-48,107 L-41,108 L-38,111 L-30,112 L-29,109 L-26,108 L-30,104 L-26,103 L-18,100 L-14,100 L-14,97 L-10,97 L-10,95 L-7,95 L-5,85 L-2,85 L0,76 L-2,75 L-2,66 L0,65 L0,58 L-2,55 L-3,49 L-7,48 L-5,35 L-1,37 L-1,34 L1,34 L1,28 L-8,28 L-8,23 L-13,23 L-15,27 L-20,28 L-22,28 L-41,28 L-44,31 L-46,30 L-41,25 L-26,25 L-22,23 L-7,22 L-6,25 L0,27 L0,13 L1,11 L0,8 Z M-29,107 Z " fill="#518EB6" transform="translate(698,527)"/>
<path d="M0,0 L7,1 L8,4 L15,4 L17,2 L17,5 L23,6 L24,12 L28,11 L34,14 L34,17 L32,17 L31,23 L38,25 L38,27 L40,27 L40,29 L52,31 L55,31 L55,34 L59,33 L59,31 L63,30 L79,28 L90,28 L93,29 L94,25 L99,25 L100,21 L104,19 L104,22 L106,22 L107,19 L107,23 L103,23 L103,29 L101,29 L101,31 L95,31 L95,33 L89,33 L89,35 L79,35 L79,37 L61,37 L61,39 L57,43 L45,43 L45,41 L39,41 L39,43 L35,43 L35,41 L31,41 L31,39 L29,39 L29,35 L25,35 L23,30 L21,29 L21,23 L16,25 L15,27 L18,27 L17,33 L13,33 L13,35 L7,35 L7,27 L9,27 L9,25 L13,25 L13,23 L11,23 L11,17 L9,17 L5,13 L5,11 L0,10 L-1,7 L-7,7 L-7,9 L-9,9 L-9,11 L-13,10 L-12,7 L-8,8 L-8,6 L-10,6 L-8,2 Z " fill="#4978A7" transform="translate(593,623)"/>
<path d="M0,0 L2,4 L5,11 L5,14 L9,16 L12,30 L13,30 L14,38 L17,38 L20,37 L20,52 L18,52 L17,43 L16,52 L16,66 L11,67 L10,84 L9,85 L9,98 L10,102 L5,102 L6,110 L3,109 L-6,110 L-8,115 L-13,117 L-22,117 L-25,120 L-28,119 L-29,121 L-53,123 L-65,122 L-72,119 L-72,110 L-77,109 L-76,106 L-69,108 L-67,110 L-63,111 L-62,118 L-28,115 L-21,110 L-9,109 L-9,107 L-1,102 L2,87 L4,87 L4,56 L7,55 L9,56 L8,35 L5,38 L4,22 L3,19 L3,12 L-1,11 L-2,2 L0,2 Z " fill="#4F8BB1" transform="translate(701,525)"/>
<path d="M0,0 L1,0 L1,6 L-8,12 L-13,12 L-12,16 L-15,21 L-19,24 L-18,29 L-17,33 L-19,42 L-23,47 L-21,53 L-21,57 L-24,58 L-27,57 L-27,60 L-25,61 L-24,63 L-24,71 L-27,77 L-25,85 L-27,91 L-32,94 L-35,96 L-41,98 L-46,103 L-51,108 L-56,112 L-61,113 L-59,118 L-56,120 L-57,124 L-61,132 L-66,136 L-72,137 L-73,133 L-76,132 L-79,135 L-84,137 L-88,133 L-88,128 L-92,127 L-87,127 L-87,132 L-85,132 L-85,125 L-92,125 L-92,124 L-84,124 L-84,132 L-82,132 L-82,130 L-80,130 L-80,126 L-78,126 L-78,124 L-76,124 L-70,131 L-66,132 L-66,130 L-64,130 L-64,124 L-62,124 L-62,122 L-60,122 L-60,120 L-64,120 L-65,116 L-68,115 L-68,120 L-72,120 L-72,112 L-76,112 L-76,110 L-72,110 L-72,106 L-64,106 L-64,108 L-62,108 L-62,106 L-60,106 L-60,108 L-56,108 L-56,104 L-52,104 L-52,92 L-50,92 L-50,98 L-46,98 L-46,94 L-44,94 L-44,88 L-41,88 L-42,92 L-32,90 L-32,88 L-30,88 L-30,86 L-32,86 L-30,80 L-32,80 L-32,74 L-30,74 L-30,72 L-32,72 L-32,64 L-30,64 L-30,62 L-32,62 L-32,58 L-28,58 L-28,56 L-24,56 L-24,54 L-26,54 L-26,52 L-28,52 L-28,42 L-24,42 L-24,40 L-22,40 L-22,30 L-24,30 L-24,24 L-26,24 L-26,22 L-24,22 L-24,20 L-20,20 L-20,18 L-18,18 L-18,16 L-16,16 L-16,14 L-18,14 L-18,12 L-16,12 L-16,8 L-8,8 L-8,6 L-6,6 L-6,4 L-2,4 Z " fill="#3D5B9A" transform="translate(488,360)"/>
<path d="M0,0 L2,4 L3,8 L1,8 L1,12 L3,12 L3,20 L1,20 L1,32 L-1,32 L-1,38 L-4,38 L-3,34 L-5,34 L-5,37 L-7,37 L-7,40 L-5,40 L-5,42 L-7,42 L-5,45 L-5,48 L-7,48 L-7,54 L-5,54 L-5,58 L-3,58 L-3,62 L-1,62 L-1,70 L-3,70 L-3,72 L-1,72 L-1,80 L1,80 L1,90 L3,90 L3,100 L5,100 L5,114 L7,114 L7,122 L9,123 L5,125 L3,123 L2,116 L1,116 L-2,101 L-5,99 L-9,89 L-11,77 L-12,77 L-12,71 L-15,71 L-16,60 L-15,63 L-12,63 L-12,53 L-14,47 L-16,47 L-17,40 L-14,39 L-13,29 L-9,25 L-8,22 L-4,23 L-3,14 L-6,13 L-5,10 L-4,10 L-3,4 L0,4 Z M-7,23 Z M-18,44 Z " fill="#4881AA" transform="translate(711,440)"/>
<path d="M0,0 L3,0 L4,4 L3,7 L13,7 L18,9 L27,10 L30,14 L44,16 L44,18 L52,20 L61,20 L64,18 L62,23 L60,27 L59,31 L57,32 L64,33 L64,31 L68,32 L80,32 L80,36 L88,35 L89,33 L92,34 L95,35 L102,37 L105,38 L104,40 L107,40 L108,38 L107,44 L109,48 L106,48 L106,45 L104,45 L104,50 L109,50 L109,51 L103,51 L103,45 L101,45 L101,47 L99,47 L99,45 L97,45 L97,47 L95,47 L95,43 L91,43 L91,39 L88,41 L87,45 L81,45 L81,43 L79,43 L79,45 L71,45 L71,43 L67,43 L67,41 L59,41 L59,39 L55,39 L55,37 L51,37 L51,35 L45,35 L41,31 L41,26 L30,26 L30,22 L29,16 L27,16 L27,14 L25,14 L24,12 L16,12 L13,14 L12,10 L7,10 L7,8 L1,8 Z " fill="#466BA8" transform="translate(337,621)"/>
<path d="M0,0 L2,0 L2,4 L8,5 L8,8 L2,8 L2,10 L8,10 L8,12 L6,12 L6,16 L14,16 L14,14 L16,14 L20,18 L20,24 L22,24 L22,22 L24,22 L23,26 L22,28 L18,28 L18,30 L12,30 L12,28 L6,28 L6,32 L0,32 L0,36 L-4,36 L-4,40 L-6,40 L-6,38 L-8,38 L-8,32 L-16,32 L-16,30 L-14,30 L-14,28 L-38,28 L-40,26 L-40,22 L-34,22 L-34,24 L-32,24 L-32,22 L-26,22 L-26,18 L-24,18 L-24,22 L-16,22 L-16,20 L-20,20 L-20,18 L-12,18 L-12,14 L-10,14 L-10,12 L-12,12 L-12,10 L-6,12 L-6,10 L-2,10 L-2,8 L-12,8 L-12,6 L-10,6 L-10,4 L-12,4 L-12,2 L-6,2 L-6,4 L-2,4 Z " fill="#0D192F" transform="translate(616,740)"/>
<path d="M0,0 L4,0 L4,2 L6,2 L6,4 L12,4 L12,2 L14,2 L14,4 L16,4 L16,8 L18,8 L18,6 L20,6 L20,10 L28,10 L28,8 L30,8 L30,10 L37,10 L37,13 L42,12 L41,17 L37,18 L37,20 L20,20 L21,28 L18,28 L16,25 L10,27 L7,28 L6,30 L4,30 L4,32 L-2,32 L-4,28 L-2,28 L-2,26 L-4,26 L-4,22 L-2,22 L-2,24 L0,24 L-2,17 L-4,16 L-4,6 L0,6 Z " fill="#0B172D" transform="translate(220,648)"/>
<path d="M0,0 L6,0 L6,4 L8,4 L8,14 L6,14 L6,18 L12,18 L12,10 L16,10 L16,8 L18,8 L16,2 L24,2 L24,16 L26,16 L26,18 L32,18 L34,21 L38,22 L40,18 L44,18 L43,22 L43,19 L41,19 L41,24 L38,26 L32,26 L29,23 L23,21 L23,18 L21,18 L20,11 L17,13 L15,19 L13,22 L6,22 L5,19 L2,20 L3,7 L-2,10 L-8,12 L-12,21 L-14,22 L-16,30 L-14,31 L-16,35 L-14,36 L-16,36 L-17,39 L-19,39 L-23,49 L-21,50 L-23,55 L-29,61 L-28,66 L-32,66 L-34,60 L-32,60 L-32,50 L-30,50 L-30,52 L-26,52 L-26,50 L-28,50 L-28,48 L-26,48 L-26,42 L-24,42 L-24,34 L-20,34 L-20,22 L-18,22 L-18,18 L-16,18 L-16,12 L-14,12 L-14,10 L-12,10 L-12,6 L-2,6 L-2,4 L0,4 Z M25,20 Z " fill="#384F91" transform="translate(352,462)"/>
<path d="M0,0 L1,0 L1,8 L3,8 L3,0 L5,4 L6,7 L4,11 L7,12 L10,12 L10,15 L20,15 L22,19 L26,21 L26,23 L46,23 L50,19 L56,20 L64,20 L67,20 L67,23 L71,22 L80,19 L86,16 L87,14 L91,13 L92,11 L97,9 L102,8 L117,11 L118,8 L118,12 L114,12 L114,14 L102,14 L102,12 L98,12 L98,18 L96,18 L96,16 L92,20 L88,20 L88,22 L84,22 L84,24 L76,24 L76,26 L72,26 L72,28 L66,28 L66,26 L48,26 L48,28 L26,28 L24,24 L20,24 L20,20 L18,20 L18,22 L12,22 L12,20 L4,20 L4,18 L2,18 L2,14 L-4,14 L-4,12 L-8,12 L-8,16 L-10,16 L-10,4 L-6,4 L-6,8 L0,8 Z M3,12 Z " fill="#3A589B" transform="translate(446,672)"/>
<path d="M0,0 L2,0 L2,2 L7,2 L7,4 L9,4 L9,9 L11,9 L11,4 L14,4 L14,10 L18,10 L18,12 L16,12 L16,14 L18,14 L20,17 L20,20 L16,20 L16,16 L11,16 L10,14 L5,16 L4,18 L8,18 L8,20 L12,20 L12,22 L14,22 L14,26 L16,26 L16,28 L20,28 L20,32 L22,32 L22,36 L16,36 L16,32 L14,32 L14,36 L12,36 L12,32 L8,32 L8,36 L0,36 L0,34 L-6,34 L-6,32 L-8,32 L-8,26 L-1,25 L2,24 L2,26 L6,26 L6,20 L-4,20 L-6,16 L-11,15 L-12,10 L-10,10 L-10,8 L-8,8 L-8,4 L-4,4 L-4,2 L0,2 Z " fill="#0B142C" transform="translate(312,708)"/>
<path d="M0,0 L14,0 L14,2 L30,2 L30,4 L40,4 L40,2 L42,2 L42,4 L44,4 L44,2 L46,2 L46,4 L48,4 L48,2 L92,2 L92,0 L116,0 L116,1 L93,1 L93,3 L116,3 L116,4 L94,5 L92,6 L55,6 L54,8 L46,8 L44,7 L44,5 L40,8 L27,8 L23,8 L18,8 L18,6 L4,5 L0,6 L-10,8 L-11,11 L-24,12 L-27,12 L-27,10 L-20,10 L-20,8 L-28,8 L-28,6 L-24,6 L-24,4 L-20,4 L-20,6 L-12,6 L-12,4 L-8,4 L-8,2 L0,2 Z " fill="#415B98" transform="translate(524,342)"/>
<path d="M0,0 L1,0 L2,20 L3,24 L-2,24 L-1,32 L-4,31 L-13,32 L-15,37 L-20,39 L-29,39 L-32,42 L-35,41 L-36,43 L-60,45 L-72,44 L-79,41 L-79,32 L-84,31 L-83,28 L-76,30 L-74,32 L-70,33 L-69,40 L-35,37 L-28,32 L-16,31 L-16,29 L-11,28 L-8,27 L-4,21 L-2,3 Z " fill="#4D84B0" transform="translate(708,603)"/>
<path d="M0,0 L7,1 L8,4 L15,4 L16,8 L19,7 L22,17 L26,23 L26,25 L30,26 L31,32 L26,32 L26,34 L29,35 L25,35 L23,30 L21,29 L21,23 L16,25 L15,27 L18,27 L17,33 L13,33 L13,35 L7,35 L7,27 L9,27 L9,25 L13,25 L13,23 L11,23 L11,17 L9,17 L5,13 L5,11 L0,10 L-1,7 L-7,7 L-7,9 L-9,9 L-9,11 L-13,10 L-12,7 L-8,8 L-8,6 L-10,6 L-8,2 Z " fill="#4477A5" transform="translate(593,623)"/>
<path d="M0,0 L10,0 L14,4 L14,10 L18,12 L18,14 L20,14 L20,32 L22,32 L22,34 L24,34 L24,42 L22,42 L22,44 L26,44 L26,46 L24,46 L24,48 L28,48 L28,54 L30,54 L30,58 L32,58 L32,66 L34,66 L34,70 L36,70 L36,74 L34,74 L34,88 L33,88 L33,74 L31,74 L31,85 L29,87 L29,76 L26,77 L26,74 L23,74 L23,67 L25,64 L24,57 L24,51 L25,54 L27,54 L27,49 L20,52 L15,51 L16,48 L14,47 L16,47 L17,43 L19,37 L19,35 L16,35 L14,32 L14,28 L16,28 L15,21 L17,13 L14,14 L13,13 L11,13 L9,5 L9,1 L0,1 Z " fill="#4666A6" transform="translate(680,352)"/>
<path d="M0,0 L7,0 L8,3 L14,5 L14,1 L16,1 L18,3 L19,12 L20,13 L20,45 L18,45 L16,57 L12,53 L12,44 L14,43 L14,36 L12,33 L11,27 L7,26 L9,13 L13,15 L13,12 L15,12 L15,6 L6,6 L6,1 L1,1 L-1,5 L-6,6 L-8,6 L-27,6 L-30,9 L-32,8 L-27,3 L-12,3 L-8,1 Z " fill="#5696BD" transform="translate(684,549)"/>
<path d="M0,0 L7,1 L4,4 L4,27 L6,29 L0,34 L-3,38 L-1,42 L-2,46 L-5,54 L-5,60 L-7,60 L-7,67 L-4,67 L-3,65 L-2,66 L-2,71 L-3,68 L-5,68 L-6,72 L-6,68 L-8,68 L-8,60 L-10,60 L-10,42 L-8,42 L-8,40 L-10,40 L-10,30 L-8,30 L-8,26 L-6,26 L-6,18 L-4,18 L-4,16 L-2,16 L-2,2 L0,2 Z M7,0 Z " fill="#4163A4" transform="translate(318,528)"/>
<path d="M0,0 L8,0 L8,2 L6,2 L8,7 L9,10 L8,12 L-20,12 L-20,14 L-22,14 L-22,12 L-36,12 L-38,8 L-50,8 L-50,4 L0,4 Z " fill="#070F1F" transform="translate(530,792)"/>
<path d="M0,0 L2,4 L3,8 L1,8 L1,12 L3,12 L3,20 L1,20 L1,32 L-1,32 L-1,38 L-4,38 L-3,34 L-5,34 L-5,37 L-7,37 L-7,40 L-5,40 L-5,42 L-7,42 L-5,45 L-5,48 L-7,48 L-7,54 L-5,54 L-5,58 L-3,58 L-4,62 L-4,59 L-9,59 L-9,55 L-11,55 L-14,47 L-16,47 L-17,40 L-14,39 L-13,29 L-9,25 L-8,22 L-4,23 L-3,14 L-6,13 L-5,10 L-4,10 L-3,4 L0,4 Z M-7,23 Z M-18,44 Z " fill="#4775A7" transform="translate(711,440)"/>
<path d="M0,0 L1,2 L3,3 L1,3 L1,5 L7,4 L5,5 L5,7 L16,5 L37,4 L38,2 L41,3 L44,4 L51,6 L54,7 L53,9 L56,9 L57,7 L56,13 L58,17 L55,17 L55,14 L53,14 L53,19 L58,19 L58,20 L52,20 L52,14 L50,14 L50,16 L48,16 L48,14 L46,14 L46,16 L44,16 L44,12 L40,12 L40,8 L37,10 L36,14 L30,14 L30,12 L28,12 L28,14 L20,14 L20,12 L16,12 L16,10 L8,10 L8,8 L4,8 L4,6 L0,6 L0,4 L-6,4 L-6,3 L0,3 Z " fill="#3F65A3" transform="translate(388,652)"/>
<path d="M0,0 L5,1 L6,4 L10,4 L10,6 L12,6 L12,4 L14,4 L14,6 L18,6 L18,8 L20,8 L20,6 L22,6 L24,9 L28,10 L28,12 L32,12 L31,16 L31,13 L28,13 L27,16 L25,13 L27,13 L27,11 L23,13 L22,16 L20,16 L20,18 L18,18 L18,16 L16,16 L15,12 L10,12 L8,10 L5,11 L5,9 L0,11 L-4,16 L-7,16 L-9,10 L-31,9 L-31,7 L-8,7 L-8,4 L-2,4 Z " fill="#4965A8" transform="translate(648,336)"/>
<path d="M0,0 L2,0 L2,20 L0,20 L0,28 L-2,28 L-2,34 L-4,34 L-4,36 L-2,36 L-2,39 L-4,39 L-4,52 L-6,52 L-6,66 L-8,66 L-8,70 L-10,70 L-10,74 L-12,74 L-12,78 L-14,78 L-14,80 L-16,80 L-16,84 L-20,83 L-17,83 L-19,79 L-21,80 L-20,76 L-15,75 L-15,77 L-13,77 L-14,69 L-12,69 L-11,67 L-11,69 L-9,69 L-11,65 L-11,52 L-10,51 L-9,34 L-8,28 L-5,28 L-5,33 L-3,33 L-4,28 L-4,19 L-2,7 L-1,7 L-1,19 L1,19 Z " fill="#437C9A" transform="translate(720,558)"/>
<path d="M0,0 L6,0 L6,4 L8,4 L8,14 L6,14 L6,18 L12,18 L12,10 L16,10 L16,8 L18,8 L16,2 L24,2 L24,16 L26,16 L26,18 L32,18 L34,21 L38,22 L40,18 L44,18 L43,22 L43,19 L41,19 L41,24 L38,26 L32,26 L29,23 L23,21 L23,18 L21,18 L20,11 L17,13 L15,19 L13,22 L6,22 L5,19 L2,20 L3,10 L5,1 L1,1 L0,4 Z M25,20 Z " fill="#3C5BA3" transform="translate(352,462)"/>
<path d="M0,0 L2,0 L2,6 L6,6 L6,22 L4,22 L4,18 L2,18 L2,28 L0,28 L0,30 L-2,30 L-2,32 L-6,32 L-6,20 L-8,20 L-7,8 L-10,8 L-10,4 L-7,4 L-7,6 L-2,2 L0,2 Z " fill="#071221" transform="translate(802,694)"/>
<path d="M0,0 L18,0 L18,2 L14,2 L14,7 L20,7 L20,10 L26,10 L26,8 L42,8 L43,12 L0,12 L-1,7 L-2,3 L0,3 Z " fill="#020407" transform="translate(450,764)"/>
<path d="M0,0 Z M14,-2 L15,-2 L15,4 L17,4 L17,2 L19,2 L18,6 L17,8 L13,8 L13,10 L7,10 L7,8 L1,8 L1,12 L-5,12 L-5,16 L-9,16 L-9,20 L-11,20 L-11,18 L-13,18 L-13,12 L-21,12 L-21,10 L-14,11 L-14,9 L-16,8 L-14,8 L-14,4 L-10,4 L-10,6 L-4,1 L1,2 L1,4 L6,3 L14,3 Z " fill="#0C1932" transform="translate(621,760)"/>
<path d="M0,0 L1,0 L2,10 L4,12 L3,18 L10,18 L10,23 L12,25 L12,28 L14,28 L15,31 L12,34 L11,31 L5,30 L5,26 L3,26 L2,29 L-2,29 L-1,25 L-4,25 L-4,22 L-6,22 L-6,18 L-4,18 L-5,17 L-8,17 L-8,10 L-6,6 L-3,4 L-1,4 Z " fill="#456AA6" transform="translate(319,578)"/>
<path d="M0,0 L2,1 L2,7 L4,8 L2,14 L2,19 L8,20 L12,24 L13,29 L15,30 L15,37 L22,37 L25,42 L26,44 L21,43 L21,41 L11,41 L11,36 L8,36 L8,33 L6,33 L6,26 L3,26 L1,21 L-1,21 L-1,15 L-4,14 L-3,10 L-2,8 L-5,7 L-5,5 L-3,3 Z " fill="#4D84AD" transform="translate(597,587)"/>
<path d="M0,0 L2,0 L2,4 L10,4 L10,2 L12,2 L12,4 L19,4 L19,7 L24,6 L23,11 L19,12 L19,14 L2,14 L3,22 L0,22 L-4,17 L-3,14 L0,14 L0,12 L-2,12 L-3,8 L0,7 L0,5 L-3,4 L0,3 Z " fill="#0D1B33" transform="translate(238,654)"/>
<path d="M0,0 L2,0 L2,3 L4,3 L5,0 L5,4 L1,4 L1,10 L-1,10 L-1,12 L-7,12 L-7,14 L-13,14 L-13,16 L-23,16 L-23,18 L-41,18 L-42,20 L-43,16 L-24,17 L-24,15 L-41,15 L-39,14 L-39,11 L-23,9 L-12,9 L-9,10 L-8,6 L-3,6 L-2,2 Z " fill="#4275A4" transform="translate(695,642)"/>
<path d="M0,0 L8,0 L8,8 L12,8 L12,3 L16,4 L16,8 L20,8 L20,10 L18,10 L18,12 L16,12 L16,18 L14,18 L14,20 L9,19 L4,14 L4,12 L2,12 L2,14 L0,14 L0,18 L-2,18 L-2,20 L-4,20 L-4,12 L-3,10 L2,10 L1,7 L4,7 L4,5 L0,5 Z " fill="#04070D" transform="translate(408,472)"/>
<path d="M0,0 L2,0 L2,4 L8,5 L8,8 L2,8 L2,10 L8,10 L8,12 L6,13 L5,16 L-1,18 L-3,17 L-3,19 L-1,19 L-1,22 L-3,22 L-6,18 L-5,15 L-9,15 L-8,19 L-12,22 L-20,20 L-20,18 L-12,18 L-12,14 L-10,14 L-10,12 L-12,12 L-12,10 L-6,12 L-6,10 L-2,10 L-2,8 L-12,8 L-12,6 L-10,6 L-10,4 L-12,4 L-12,2 L-6,2 L-6,4 L-2,4 Z " fill="#102039" transform="translate(616,740)"/>
<path d="M0,0 L3,1 L5,1 L6,6 L3,7 L2,10 L0,10 L0,7 L-4,10 L-5,13 L-10,14 L-11,17 L-25,17 L-45,19 L-45,21 L-49,22 L-49,19 L-53,20 L-57,18 L-46,16 L-41,13 L-9,11 L-2,5 Z " fill="#477BA9" transform="translate(697,635)"/>
<path d="M0,0 L1,0 L1,8 L-1,8 L-1,10 L1,10 L1,18 L3,18 L3,28 L5,28 L5,38 L7,38 L7,52 L9,52 L9,60 L11,61 L7,63 L5,61 L4,54 L3,54 L2,40 L0,30 L0,28 L2,28 L2,19 L0,19 L0,27 L-1,27 L-1,19 L-3,19 L-5,11 L-4,1 L-2,5 L-2,7 L0,7 Z " fill="#497DA0" transform="translate(709,502)"/>
<path d="M0,0 L7,1 L7,3 L26,5 L26,7 L24,7 L24,9 L26,10 L25,12 L13,12 L13,10 L7,10 L7,12 L3,12 L3,10 L-1,10 L-1,8 L-3,8 L-2,4 L-1,5 Z " fill="#3F6B99" transform="translate(625,654)"/>
<path d="M0,0 L4,3 L5,2 L17,2 L16,6 L14,7 L21,8 L21,6 L25,7 L37,7 L37,11 L13,13 L12,11 L9,11 L9,8 L8,9 L2,9 L-2,6 L-2,2 L0,2 Z " fill="#4268A5" transform="translate(380,646)"/>
<path d="M0,0 L5,0 L7,3 L5,3 L5,5 L9,4 L13,6 L13,10 L15,10 L16,6 L16,10 L18,10 L18,12 L20,13 L16,13 L16,15 L20,16 L15,18 L14,20 L17,20 L16,26 L12,26 L12,28 L6,28 L6,20 L8,20 L8,18 L12,18 L12,16 L10,16 L10,10 L8,10 L4,6 L4,4 L-1,3 L-2,1 Z " fill="#3E6A99" transform="translate(594,630)"/>
<path d="M0,0 L1,0 L1,5 L3,5 L3,7 L7,8 L7,10 L11,10 L11,12 L14,12 L16,16 L20,19 L18,19 L17,21 L17,19 L14,20 L12,22 L10,17 L9,17 L9,12 L1,14 L-2,13 L-5,15 L-10,12 L-9,10 L-7,10 L-6,3 L-7,1 Z " fill="#4866AC" transform="translate(663,347)"/>
<path d="M0,0 L1,4 L-3,4 L-3,6 L-1,6 L-1,8 L-3,8 L-3,10 L-1,10 L-1,18 L11,18 L11,16 L13,16 L13,18 L21,18 L21,20 L17,21 L9,20 L9,22 L17,22 L17,24 L5,24 L5,26 L9,26 L8,28 L4,27 L4,23 L2,23 L1,26 L1,22 L-2,21 L-2,19 L-5,18 L-6,11 L-8,8 L-6,2 L0,3 Z " fill="#3C5D94" transform="translate(559,650)"/>
<path d="M0,0 L4,0 L4,8 L8,10 L8,20 L6,20 L6,22 L8,22 L8,28 L6,28 L6,32 L4,32 L4,28 L2,28 L2,26 L0,26 Z " fill="#081324" transform="translate(200,640)"/>
<path d="M0,0 L2,0 L2,4 L0,4 L0,15 L-5,15 L-6,21 L-15,22 L-18,27 L-24,28 L-29,23 L-25,22 L-17,19 L-13,19 L-13,16 L-9,16 L-9,14 L-6,14 L-4,4 L-1,4 Z M-28,26 Z " fill="#5694BE" transform="translate(697,608)"/>
<path d="M0,0 L4,2 L7,1 L7,8 L10,8 L10,12 L12,12 L12,16 L10,16 L10,30 L9,30 L9,16 L7,16 L7,27 L5,29 L5,18 L2,19 L2,16 L-1,16 L-1,9 L1,6 Z " fill="#496DA4" transform="translate(704,410)"/>
<path d="M0,0 L1,0 L1,15 L-1,15 L-2,6 L-3,15 L-3,29 L-8,30 L-9,47 L-11,48 L-11,37 L-10,22 L-8,18 L-6,1 L-3,2 Z " fill="#5088A9" transform="translate(720,562)"/>
<path d="M0,0 L2,3 L9,5 L9,7 L14,5 L16,6 L26,5 L27,10 L32,11 L28,16 L20,16 L20,12 L16,11 L11,9 L4,9 L-2,5 L-2,3 L0,3 Z " fill="#548BB7" transform="translate(623,624)"/>
<path d="M0,0 L1,2 L3,3 L1,3 L1,5 L7,4 L5,5 L5,7 L16,5 L21,5 L22,9 L28,9 L28,11 L30,11 L30,9 L35,8 L37,10 L36,14 L30,14 L30,12 L28,12 L28,14 L20,14 L20,12 L16,12 L16,10 L8,10 L8,8 L4,8 L4,6 L0,6 L0,4 L-6,4 L-6,3 L0,3 Z " fill="#395D95" transform="translate(388,652)"/>
<path d="M0,0 L3,0 L3,5 L1,6 L1,13 L2,16 L0,18 L-1,25 L2,25 L1,30 L-1,32 L-2,28 L-4,27 L-3,23 L-5,23 L-5,20 L-8,19 L-7,15 L-6,11 L-5,7 L-3,2 Z M-2,32 Z " fill="#476EA5" transform="translate(704,401)"/>
<path d="M0,0 L2,0 L2,20 L0,20 L0,28 L-2,28 L-2,34 L-4,34 L-3,38 L-5,38 L-5,51 L-7,51 L-8,42 L-9,42 L-9,34 L-8,28 L-5,28 L-5,33 L-3,33 L-4,28 L-4,19 L-2,7 L-1,7 L-1,19 L1,19 Z " fill="#48809E" transform="translate(720,558)"/>
<path d="M0,0 L1,3 L3,3 L4,0 L4,3 L12,3 L12,1 L14,1 L17,5 L17,10 L4,11 L3,9 L-2,10 L-5,13 L-7,13 L-8,10 L-6,10 L-5,7 L-5,9 L-3,9 L-3,6 L-5,6 L-5,4 L-1,4 Z M3,7 Z " fill="#0E1C35" transform="translate(618,753)"/>
<path d="M0,0 L4,1 L1,1 L1,8 L3,8 L3,3 L4,3 L4,9 L1,15 L3,16 L1,21 L-5,27 L-4,32 L-8,32 L-10,26 L-8,26 L-8,16 L-6,16 L-6,18 L-2,18 L-2,16 L-4,16 L-4,14 L-2,14 L-2,8 L0,8 Z " fill="#3A5495" transform="translate(328,496)"/>
<path d="M0,0 L2,0 L2,2 L6,2 L6,4 L10,6 L10,14 L0,14 L0,10 L-8,10 L-8,8 L-4,8 L-4,4 L-2,4 Z " fill="#10233E" transform="translate(718,702)"/>
<path d="M0,0 L1,2 L3,2 L3,7 L5,7 L5,2 L8,2 L8,8 L12,8 L12,10 L10,10 L10,12 L12,12 L14,15 L14,18 L10,18 L10,14 L5,14 L4,12 L-1,14 L-1,12 L-4,12 L-4,10 L-2,10 L-2,8 L-4,8 L-4,6 L-2,6 L-2,2 L0,2 Z " fill="#010306" transform="translate(318,710)"/>
<path d="M0,0 L2,0 L2,4 L7,4 L7,7 L9,7 L9,14 L7,14 L6,12 L5,18 L6,26 L8,26 L8,34 L5,36 L3,31 L3,24 L1,16 Z " fill="#467DA5" transform="translate(700,495)"/>
<path d="M0,0 L8,0 L10,1 L10,10 L14,10 L14,12 L12,12 L12,14 L-1,14 L0,11 L1,9 L-2,8 L0,8 L0,6 L-4,6 L-4,4 L8,4 L8,2 L0,2 Z " fill="#0A101A" transform="translate(568,670)"/>
<path d="M0,0 L2,1 L2,19 L1,21 L0,26 L-3,29 L-5,29 L-5,27 L-7,27 L-8,30 L-8,26 L-6,26 L-6,18 L-4,18 L-4,16 L-2,16 L-2,2 L0,2 Z " fill="#3C5C9A" transform="translate(318,528)"/>
<path d="M0,0 L39,0 L39,3 L2,3 L1,5 L-7,5 L-7,2 L-1,1 Z " fill="#4461AC" transform="translate(577,345)"/>
<path d="M0,0 L1,0 L1,14 L3,14 L3,32 L0,41 L-1,41 L-1,32 L1,31 L1,24 L-1,21 L-2,15 L-6,14 L-4,1 L0,3 Z " fill="#5C9EC4" transform="translate(697,561)"/>
<path d="M0,0 L24,0 L24,1 L1,1 L1,3 L24,3 L24,4 L0,5 L0,3 L-39,4 L-44,6 L-48,7 L-48,5 L-52,7 L-52,5 L-62,5 L-62,4 L-52,4 L-52,2 L-50,2 L-50,4 L-48,4 L-48,2 L-46,2 L-46,4 L-44,4 L-44,2 L0,2 Z " fill="#384E86" transform="translate(616,342)"/>
<path d="M0,0 L2,4 L5,11 L5,14 L9,16 L12,30 L13,30 L13,41 L10,37 L8,22 L6,26 L4,22 L3,19 L3,12 L-1,11 L-2,2 L0,2 Z " fill="#4C87AE" transform="translate(701,525)"/>
<path d="M0,0 L8,0 L8,2 L6,3 L5,6 L1,7 L-49,7 L-49,5 L0,5 Z " fill="#091324" transform="translate(530,792)"/>
<path d="M0,0 L2,0 L2,4 L6,4 L6,8 L8,8 L8,6 L10,6 L10,8 L12,9 L8,11 L8,16 L6,16 L6,11 L-6,11 L-7,9 L-9,9 L-9,7 L-18,7 L-18,6 L-10,6 L-10,4 L-8,4 L-8,6 L-2,6 L-1,1 Z " fill="#080E17" transform="translate(426,660)"/>
<path d="M0,0 L6,0 L6,2 L12,2 L12,0 L28,0 L29,4 L-14,4 L-14,2 L0,2 Z " fill="#0C182F" transform="translate(464,772)"/>
<path d="M0,0 L8,0 L8,4 L10,4 L10,8 L14,8 L14,10 L16,10 L16,4 L20,4 L20,6 L18,6 L18,8 L22,8 L22,10 L20,10 L20,12 L22,12 L22,14 L12,14 L12,10 L6,10 L6,8 L2,8 L4,2 L0,2 Z " fill="#0E1934" transform="translate(360,738)"/>
<path d="M0,0 L4,0 L4,2 L6,2 L6,0 L8,0 L8,2 L12,2 L12,4 L14,4 L14,2 L16,2 L18,5 L22,6 L22,8 L26,8 L25,12 L25,9 L22,9 L21,12 L19,9 L21,9 L21,7 L17,9 L16,12 L14,12 L14,14 L12,14 L12,12 L10,12 L9,8 L4,8 L4,5 L6,5 L6,3 L3,4 L3,1 Z " fill="#405A99" transform="translate(654,340)"/>
<path d="M0,0 L8,0 L8,2 L20,2 L20,6 L10,6 L10,8 L6,8 L6,10 L4,10 L4,8 L-2,8 L-2,4 L2,4 L2,2 L0,2 Z " fill="#091020" transform="translate(416,798)"/>
<path d="M0,0 L1,0 L1,6 L3,6 L3,2 L10,2 L10,4 L12,4 L12,7 L7,10 L6,12 L4,12 L4,14 L-2,14 L-4,10 L-2,10 L-2,8 L-4,8 L-4,4 L-2,4 L-2,6 L0,6 Z " fill="#091123" transform="translate(220,666)"/>
<path d="M0,0 L3,1 L3,3 L8,3 L8,5 L6,5 L6,7 L10,7 L10,13 L12,13 L12,17 L14,17 L14,25 L13,25 L13,18 L11,18 L10,20 L6,16 L6,10 L7,13 L9,13 L9,8 L2,11 L-3,10 L-2,7 L-4,6 L-2,6 L-1,2 Z " fill="#486BA7" transform="translate(698,393)"/>
<path d="M0,0 L8,0 L8,14 L10,14 L10,16 L16,16 L18,19 L22,20 L24,16 L28,16 L27,20 L27,17 L25,17 L25,22 L22,24 L16,24 L13,21 L7,19 L7,16 L5,16 L5,14 L7,14 L7,1 L0,2 Z M9,18 Z " fill="#3B5CA3" transform="translate(368,464)"/>
<path d="M0,0 L2,0 L2,8 L6,8 L6,10 L8,10 L8,14 L6,14 L6,16 L4,16 L4,14 L2,14 L2,16 L0,16 L0,14 L-6,14 L-6,12 L-8,12 L-6,8 L-4,8 L-4,6 L0,6 Z " fill="#101D3E" transform="translate(350,722)"/>
<path d="M0,0 L1,0 L1,8 L-1,8 L-1,10 L1,10 L1,18 L3,18 L3,28 L5,28 L5,38 L4,38 L4,29 L2,29 L2,38 L1,38 L0,28 L2,28 L2,19 L0,19 L0,27 L-1,27 L-1,19 L-3,19 L-5,11 L-4,1 L-2,5 L-2,7 L0,7 Z " fill="#407297" transform="translate(709,502)"/>
<path d="M0,0 L2,4 L3,8 L1,8 L1,12 L3,12 L3,20 L1,20 L1,32 L-1,32 L-1,38 L-4,38 L-3,34 L-5,34 L-6,36 L-7,31 L-3,30 L-2,26 L-2,31 L0,31 L-1,12 L0,8 L-2,8 L-3,12 L-3,4 L0,4 Z " fill="#3A5F8E" transform="translate(711,440)"/>
<path d="M0,0 L4,0 L4,2 L2,2 L2,4 L6,4 L6,10 L4,10 L4,12 L2,12 L2,8 L0,8 L0,12 L-10,12 L-10,10 L-8,10 L-8,8 L-6,8 L-6,6 L-8,6 L-8,4 L-2,4 L-2,2 L0,2 Z " fill="#091123" transform="translate(238,388)"/>
<path d="M0,0 L1,0 L1,9 L3,9 L4,5 L5,30 L3,30 L3,37 L6,37 L7,35 L8,36 L8,41 L7,38 L5,38 L4,42 L4,38 L2,38 L2,30 L0,30 L0,12 L2,12 L2,10 L0,10 Z " fill="#3D5C93" transform="translate(308,558)"/>
<path d="M0,0 L2,2 L2,5 L4,5 L4,7 L2,7 L4,10 L4,13 L2,13 L2,19 L4,19 L4,23 L6,23 L5,27 L5,24 L0,24 L0,20 L-2,20 L-5,12 L-5,9 L-1,7 L-1,9 L1,9 L0,5 L1,3 L-1,2 Z " fill="#4578A5" transform="translate(702,475)"/>
<path d="M0,0 L2,0 L2,4 L8,5 L8,8 L1,8 L1,15 L-1,15 L-1,8 L-12,8 L-12,6 L-10,6 L-10,4 L-12,4 L-12,2 L-6,2 L-6,4 L-2,4 Z " fill="#122340" transform="translate(616,740)"/>
<path d="M0,0 L8,0 L8,2 L10,2 L10,0 L12,0 L12,2 L16,3 L9,5 L8,6 L7,9 L4,9 L4,14 L0,14 L0,6 L-4,6 L-4,4 L0,4 Z " fill="#2F477C" transform="translate(416,466)"/>
<path d="M0,0 L1,0 L1,6 L-8,12 L-13,12 L-12,16 L-15,21 L-19,21 L-19,19 L-17,19 L-17,17 L-15,16 L-15,14 L-18,14 L-18,12 L-16,12 L-16,8 L-8,8 L-8,6 L-6,6 L-6,4 L-2,4 Z " fill="#4463A6" transform="translate(488,360)"/>
<path d="M0,0 L2,0 L2,6 L4,6 L4,2 L8,2 L8,4 L12,4 L12,6 L8,6 L8,10 L-5,10 L-8,8 L-8,6 L-4,6 L-4,2 L0,2 Z " fill="#0B142C" transform="translate(364,758)"/>
<path d="M0,0 L4,1 L9,10 L9,12 L13,13 L14,19 L9,19 L9,21 L12,22 L8,22 L6,17 L4,16 L4,9 L0,9 L0,7 L2,6 L2,4 L0,4 Z " fill="#4476A5" transform="translate(610,636)"/>
<path d="M0,0 L2,0 L2,2 L8,2 L7,11 L-5,11 L-4,6 L-8,3 L0,3 Z " fill="#11203F" transform="translate(248,656)"/>
<path d="M0,0 L7,0 L8,3 L14,5 L14,6 L6,6 L6,1 L1,1 L-1,5 L-6,6 L-8,6 L-27,6 L-30,9 L-32,8 L-27,3 L-12,3 L-8,1 Z " fill="#5A9AC2" transform="translate(684,549)"/>
<path d="M0,0 L2,0 L2,2 L10,2 L10,8 L14,8 L14,16 L10,15 L6,12 L6,8 L2,6 L2,4 L-2,4 Z " fill="#0C122A" transform="translate(274,696)"/>
<path d="M0,0 L2,0 L2,6 L6,6 L6,22 L4,22 L1,9 L-2,11 L-3,14 L-5,14 L-5,5 L-2,2 L0,2 Z " fill="#071420" transform="translate(802,694)"/>
<path d="M0,0 L3,0 L2,4 L9,3 L9,5 L4,6 L2,5 L1,9 L1,7 L-1,7 L-1,10 L1,11 L-3,16 L-9,21 L-9,17 L-11,17 L-12,20 L-12,16 L-8,16 L-8,4 L-6,4 L-6,10 L-2,10 L-2,6 L0,6 Z " fill="#38528F" transform="translate(444,448)"/>
<path d="M0,0 L12,0 L12,2 L10,2 L10,4 L12,5 L11,7 L-1,7 L-1,4 L-7,4 L-7,1 Z " fill="#426C9D" transform="translate(639,659)"/>
<path d="M0,0 L1,0 L1,8 L3,8 L3,0 L5,4 L6,7 L3,11 L0,12 L2,14 L-4,14 L-4,12 L-8,12 L-8,16 L-10,16 L-10,4 L-6,4 L-6,8 L0,8 Z " fill="#334F8A" transform="translate(446,672)"/>
<path d="M0,0 L6,0 L6,4 L14,4 L14,6 L10,6 L10,8 L0,8 L0,6 L-8,6 L-8,2 L-2,2 L-2,4 L0,4 Z " fill="#090F20" transform="translate(312,746)"/>
<path d="M0,0 L2,0 L2,23 L-1,22 L-4,23 L-7,16 L-6,14 L-2,15 L-1,6 L-4,5 L-3,2 L-1,2 Z M-5,15 Z " fill="#4570A6" transform="translate(709,448)"/>
<path d="M0,0 L9,2 L18,2 L21,0 L19,5 L16,10 L4,7 L4,2 L0,3 Z " fill="#456BA9" transform="translate(380,639)"/>
<path d="M0,0 L4,0 L4,3 L1,3 L1,5 L6,6 L6,9 L2,9 L2,13 L4,13 L4,11 L8,11 L7,4 L13,4 L12,7 L14,7 L15,4 L15,8 L9,8 L9,12 L5,12 L5,16 L3,16 L3,14 L1,14 L1,8 L-7,8 L-7,6 L0,7 L0,5 L-2,4 L0,4 Z " fill="#0A1324" transform="translate(607,764)"/>
<path d="M0,0 L16,0 L16,2 L26,2 L26,5 L13,5 L9,5 L4,5 L4,3 L0,3 Z " fill="#435FA5" transform="translate(538,345)"/>
<path d="M0,0 L11,0 L17,1 L17,2 L11,2 L11,4 L1,4 L1,6 L-17,6 L-18,8 L-19,4 L0,5 L0,3 L-17,3 L-17,2 L0,2 Z " fill="#3D6692" transform="translate(671,654)"/>
<path d="M0,0 L3,0 L3,3 L5,3 L6,0 L6,4 L2,4 L2,6 L-2,10 L-8,10 L-8,14 L-10,14 L-10,16 L-14,15 L-11,15 L-11,13 L-14,13 L-14,11 L-8,6 L-3,4 Z " fill="#3D6392" transform="translate(574,634)"/>
<path d="M0,0 L3,0 L4,2 L7,2 L7,6 L12,7 L12,5 L14,5 L17,11 L14,11 L14,8 L12,8 L12,13 L17,13 L17,14 L11,14 L11,8 L9,8 L9,10 L7,10 L7,8 L5,8 L5,10 L3,10 L3,6 L-1,6 L-1,2 L-3,1 Z " fill="#3B619C" transform="translate(429,658)"/>
<path d="M0,0 L2,4 L-1,3 L-1,5 L-3,5 L-3,7 L-1,8 L-3,10 L-2,15 L-1,19 L-2,26 L-3,26 L-3,16 L-5,16 L-5,26 L-6,26 L-6,16 L-8,16 L-8,10 L-10,10 L-10,8 L-8,8 L-8,6 L-4,6 L-4,4 L-2,4 L-2,2 L0,2 Z " fill="#3A5692" transform="translate(472,374)"/>
<path d="M0,0 L6,1 L14,1 L17,1 L16,6 L-2,6 L-3,2 Z " fill="#3B5CA2" transform="translate(496,691)"/>
<path d="M0,0 L9,0 L9,6 L5,6 L5,4 L2,6 L-5,6 L-5,12 L-6,12 L-6,2 Z " fill="#010206" transform="translate(309,728)"/>
<path d="M0,0 L1,0 L1,14 L-1,14 L-1,18 L-3,18 L-3,22 L-5,22 L-5,26 L-7,26 L-7,28 L-9,28 L-9,32 L-13,31 L-10,31 L-12,27 L-14,28 L-13,24 L-8,23 L-8,25 L-6,25 L-7,17 L-5,17 L-4,15 L-4,17 L-2,17 L-3,10 L-2,13 L0,13 Z " fill="#3E6E8C" transform="translate(713,610)"/>
<path d="M0,0 L4,0 L4,8 L3,8 L3,1 L1,1 L1,25 L3,25 L5,20 L6,22 L8,22 L8,28 L6,28 L6,32 L4,32 L4,28 L2,28 L2,26 L0,26 Z " fill="#070F1D" transform="translate(200,640)"/>
<path d="M0,0 L4,0 L8,4 L8,6 L10,6 L10,12 L12,12 L12,14 L8,14 L8,16 L6,16 L6,24 L5,24 L4,14 L7,15 L4,6 L0,4 Z " fill="#070E14" transform="translate(594,634)"/>
<path d="M0,0 L7,1 L7,3 L12,5 L15,7 L7,8 L-1,8 L-1,3 L-5,2 Z " fill="#4268AB" transform="translate(449,652)"/>
<path d="M0,0 L2,0 L2,6 L0,6 L-1,8 L-7,7 L-7,9 L-9,9 L-9,11 L-13,10 L-12,7 L-8,8 L-8,6 L-10,6 L-8,2 Z " fill="#406E9A" transform="translate(593,623)"/>
<path d="M0,0 L4,0 L5,3 L15,4 L15,5 L4,5 L4,7 L15,7 L15,8 L3,8 L3,6 L1,6 L1,8 L-3,6 L-3,4 L-7,3 Z " fill="#3A5A92" transform="translate(363,640)"/>
<path d="M0,0 L5,0 L7,3 L5,3 L5,5 L9,4 L13,6 L13,10 L15,11 L11,11 L12,16 L10,16 L10,10 L8,10 L4,6 L4,4 L-1,3 L-2,1 Z " fill="#3C6A94" transform="translate(594,630)"/>
<path d="M0,0 L16,0 L16,4 L10,4 L10,6 L6,6 L6,4 L2,4 L2,2 L0,2 Z " fill="#101B3C" transform="translate(252,672)"/>
<path d="M0,0 L3,1 L13,0 L14,5 L19,6 L18,8 L8,6 L8,4 L2,4 L-1,1 Z " fill="#5790BD" transform="translate(636,629)"/>
<path d="M0,0 L10,1 L11,5 L8,5 L8,7 L14,6 L12,7 L12,9 L18,8 L16,9 L16,11 L19,12 L15,12 L15,10 L11,10 L11,8 L7,8 L7,6 L3,6 L3,4 L-1,3 L3,3 L3,1 Z " fill="#3C5D94" transform="translate(337,630)"/>
<path d="M0,0 L5,0 L3,2 L7,2 L7,0 L15,0 L15,2 L17,2 L17,4 L-6,4 L-4,2 Z " fill="#0F1E38" transform="translate(585,763)"/>
<path d="M0,0 L1,3 L6,3 L6,7 L10,8 L5,8 L6,13 L4,13 L4,9 L2,9 L2,7 L-2,7 L-2,5 L-6,5 L-5,1 L-1,1 Z " fill="#010306" transform="translate(322,721)"/>
<path d="M0,0 L14,0 L14,2 L16,2 L16,4 L12,4 L12,6 L10,6 L10,4 L-2,4 Z " fill="#0B142B" transform="translate(254,692)"/>
<path d="M0,0 L1,0 L1,6 L3,6 L3,4 L5,4 L4,8 L3,10 L-1,10 L-1,12 L-7,12 L-7,10 L-13,10 L-13,9 L-5,7 L0,6 Z " fill="#0B162B" transform="translate(635,758)"/>
<path d="M0,0 L1,4 L12,4 L12,2 L14,2 L15,7 L17,7 L17,11 L12,10 L11,5 L2,8 L-1,7 L-2,4 L0,4 Z " fill="#4E75B4" transform="translate(367,624)"/>
<path d="M0,0 L2,0 L2,20 L-1,20 L-1,27 L-3,27 L-4,19 L-2,7 L-1,7 L-1,19 L1,19 Z " fill="#487795" transform="translate(720,558)"/>
<path d="M0,0 L1,3 L3,3 L4,0 L4,4 L2,4 L2,14 L4,14 L4,16 L2,16 L2,34 L4,34 L4,42 L3,42 L3,35 L1,35 L1,42 L0,42 Z " fill="#0B101A" transform="translate(306,554)"/>
<path d="M0,0 L4,1 L3,4 L-25,4 L-25,2 L0,1 Z " fill="#091325" transform="translate(535,799)"/>
<path d="M0,0 L2,0 L2,6 L6,6 L6,8 L4,8 L4,10 L6,10 L8,13 L8,16 L4,16 L4,12 L0,12 L0,8 L-2,8 L-2,6 L0,6 Z " fill="#101C3B" transform="translate(324,712)"/>
<path d="M0,0 L1,0 L1,18 L3,18 L3,20 L5,20 L5,28 L3,28 L2,30 L2,28 L0,28 L0,21 L1,20 L-1,18 Z " fill="#3C598F" transform="translate(699,366)"/>
<path d="M0,0 L1,4 L-3,4 L-3,6 L-15,6 L-15,4 L-19,3 L-15,3 L-15,1 L-3,2 L0,3 Z " fill="#395893" transform="translate(563,680)"/>
<path d="M0,0 L1,2 L7,1 L9,1 L9,7 L8,9 L3,8 L-2,2 Z " fill="#090F19" transform="translate(414,483)"/>
<path d="M0,0 L40,1 L40,2 L3,2 L2,4 L-6,4 L-6,1 Z " fill="#405A9F" transform="translate(576,346)"/>
<path d="M0,0 L14,0 L14,2 L10,2 L10,6 L4,6 L4,4 L0,4 Z " fill="#101F3A" transform="translate(454,764)"/>
<path d="M0,0 L2,0 L2,2 L4,3 L0,5 L0,10 L-2,10 L-2,5 L-14,5 L-14,2 L0,2 Z " fill="#1F3355" transform="translate(434,666)"/>
<path d="M0,0 L2,1 L1,3 L-3,3 L-3,5 L0,6 L-2,8 L-2,10 L-4,10 L-5,19 L6,19 L6,20 L-6,20 L-6,12 L-8,12 L-8,10 L-6,10 L-6,8 L-8,8 L-8,6 L-4,6 L-4,2 L0,2 Z " fill="#0A101A" transform="translate(564,648)"/>
<path d="M0,0 L6,0 L6,4 L8,4 L8,14 L6,14 L5,18 L5,14 L3,14 L4,4 L5,1 L1,1 L0,4 Z " fill="#375090" transform="translate(352,462)"/>
<path d="M0,0 L5,1 L5,5 L5,7 L0,9 L-4,8 L-2,8 L-2,5 L-8,5 L-8,4 L-2,4 Z " fill="#405994" transform="translate(648,336)"/>
<path d="M0,0 L1,4 L3,4 L3,8 L1,8 L1,22 L0,22 L0,8 L-2,8 L-2,19 L-4,21 L-3,1 L-2,4 L0,4 Z " fill="#3D5E8E" transform="translate(713,418)"/>
<path d="M0,0 L2,1 L2,9 L-1,15 L-3,12 L-5,9 L-5,3 L0,2 Z " fill="#405DA1" transform="translate(462,422)"/>
<path d="M0,0 L2,4 L-3,3 L-3,6 L-1,7 L-2,10 L-4,10 L-4,17 L-5,17 L-5,11 L-7,11 L-6,18 L-8,18 L-8,10 L-6,10 L-6,8 L-8,8 L-8,4 L-4,4 L-4,2 L0,2 Z " fill="#39528F" transform="translate(464,414)"/>
<path d="M0,0 L1,2 L7,2 L7,4 L5,5 L4,8 L-2,10 L-4,9 L-4,11 L-2,11 L-2,14 L-4,14 L-7,10 L-6,7 L-2,6 L0,7 Z " fill="#0F1F3A" transform="translate(617,748)"/>
<path d="M0,0 L1,3 L3,3 L4,0 L5,4 L3,4 L3,7 L5,7 L6,5 L7,6 L8,4 L10,4 L9,9 L8,10 L7,23 L12,23 L12,24 L6,24 L5,10 L2,8 L2,4 L0,4 Z " fill="#3C5B8E" transform="translate(314,600)"/>
<path d="M0,0 L1,2 L3,2 L4,0 L6,3 L6,6 L4,6 L4,8 L0,8 L0,16 L-6,16 L-6,12 L-4,13 L-5,15 L-1,15 L-1,2 Z " fill="#080B14" transform="translate(364,464)"/>
<path d="M0,0 L3,1 L1,4 L0,11 L3,11 L2,16 L0,18 L-1,14 L-3,13 L-2,9 L-4,9 L-2,2 Z M-1,18 Z " fill="#4B70A7" transform="translate(703,415)"/>
<path d="M0,0 L9,0 L6,6 L0,7 L-5,2 L-1,1 Z M-4,5 Z " fill="#538FBB" transform="translate(673,629)"/>
<path d="M0,0 L2,0 L3,11 L5,13 L3,13 L2,16 L-1,16 L-2,19 L-4,19 L-4,12 L-1,11 Z " fill="#415EA9" transform="translate(333,485)"/>
<path d="M0,0 L1,4 L3,4 L3,6 L1,6 L1,14 L3,14 L3,16 L1,16 L1,22 L3,22 L2,26 L1,28 L3,28 L3,30 L-1,28 L-1,4 Z " fill="#090E1A" transform="translate(455,418)"/>
<path d="M0,0 L11,0 L14,3 L14,6 L10,5 L10,10 L7,10 L7,4 L9,4 L9,2 L0,2 Z " fill="#03060B" transform="translate(724,734)"/>
<path d="M0,0 L2,0 L2,4 L6,4 L6,6 L4,6 L4,8 L-4,8 L-4,6 L-6,6 L-6,4 L-4,4 L-4,2 L0,2 Z " fill="#395790" transform="translate(576,676)"/>
<path d="M0,0 L1,0 L1,6 L3,6 L3,10 L0,9 L-12,8 L-13,10 L-13,6 L-6,6 L-6,3 L-4,3 L-4,5 L0,5 Z " fill="#0C132C" transform="translate(318,729)"/>
<path d="M0,0 L2,1 L1,2 L-24,3 L-29,2 L-29,7 L-32,7 L-33,4 L-32,1 Z " fill="#3B5FA5" transform="translate(512,685)"/>
<path d="M0,0 L2,0 L2,6 L8,6 L8,14 L2,14 L3,10 L3,13 L7,13 L7,7 L-3,7 L-4,10 L-5,4 L0,3 Z " fill="#080D17" transform="translate(438,666)"/>
<path d="M0,0 L2,0 L2,14 L0,14 L0,18 L-5,19 L-5,14 L-3,14 L-2,12 L-1,11 Z " fill="#4770A8" transform="translate(711,426)"/>
<path d="M0,0 L5,0 L6,12 L4,12 L4,8 L2,8 L2,6 L-4,6 L-4,4 L0,4 Z " fill="#060F1A" transform="translate(328,756)"/>
<path d="M0,0 L6,0 L6,2 L8,2 L8,6 L-2,6 L-2,2 L0,2 Z " fill="#091020" transform="translate(338,770)"/>
<path d="M0,0 L1,3 L7,2 L4,4 L10,5 L10,3 L16,3 L16,5 L18,6 L16,6 L16,8 L10,8 L10,6 L2,6 L2,4 L0,4 Z " fill="#365190" transform="translate(448,686)"/>
<path d="M0,0 L6,0 L7,4 L6,6 L-4,6 L-4,4 L-2,4 Z " fill="#11233E" transform="translate(728,698)"/>
<path d="M0,0 L4,0 L3,6 L-2,8 L-12,8 L-12,6 L-3,6 L-3,3 L0,3 Z " fill="#415AA5" transform="translate(353,463)"/>
<path d="M0,0 L4,0 L4,6 L6,6 L6,10 L8,10 L8,18 L7,18 L7,11 L5,11 L4,13 L0,9 L0,3 L1,6 L3,6 L3,1 Z " fill="#3F5E8F" transform="translate(704,400)"/>
<path d="M0,0 L8,0 L8,1 L1,1 L1,3 L8,3 L8,4 L3,4 L4,8 L1,13 L-3,13 L-3,11 L-1,11 L-1,9 L1,8 L1,6 L-2,6 L-2,4 L0,4 Z " fill="#3D5996" transform="translate(472,368)"/>
<path d="M0,0 L16,0 L17,4 L0,3 Z " fill="#0F1D37" transform="translate(476,772)"/>
<path d="M0,0 L2,0 L4,6 L4,13 L3,15 L5,15 L6,12 L6,20 L4,20 L4,16 L2,16 L2,12 L0,12 L0,6 L2,6 Z " fill="#091015" transform="translate(704,482)"/>
<path d="M0,0 L1,3 L5,3 L5,1 L2,0 L6,0 L6,4 L8,4 L8,8 L2,8 L2,4 L0,4 L0,8 L-2,8 L-2,3 L0,3 Z " fill="#0B132B" transform="translate(326,736)"/>
<path d="M0,0 L1,2 L4,2 L3,8 L-1,8 L-1,10 L-7,10 L-7,2 L-6,2 L-6,9 L-2,9 L-3,3 L0,3 Z " fill="#39628E" transform="translate(607,648)"/>
<path d="M0,0 L4,0 L4,4 L8,4 L8,6 L-4,6 L-4,2 L0,2 Z " fill="#0F1C37" transform="translate(400,754)"/>
<path d="M0,0 L2,0 L2,2 L8,2 L8,8 L7,8 L7,3 L2,3 L0,9 L-4,9 L-4,6 L-8,3 L0,3 Z " fill="#0E1D38" transform="translate(248,656)"/>
<path d="M0,0 L3,3 L6,3 L6,9 L4,9 L4,7 L-2,12 L-3,5 L0,4 Z M-4,9 Z " fill="#4879AA" transform="translate(697,475)"/>
<path d="M0,0 L6,0 L6,6 L-1,6 L-4,4 L-4,2 L0,2 Z " fill="#122243" transform="translate(376,730)"/>
<path d="M0,0 L3,0 L2,7 L-1,12 L-3,12 L-3,3 Z " fill="#091626" transform="translate(800,696)"/>
<path d="M0,0 L10,2 L6,3 L6,5 L0,5 L0,3 L-18,3 L-18,2 L0,2 Z " fill="#344F89" transform="translate(512,695)"/>
<path d="M0,0 L6,1 L6,3 L4,4 L5,12 L2,12 L-2,7 L-1,4 L2,4 L2,2 L0,2 Z " fill="#080F1E" transform="translate(236,664)"/>
<path d="M0,0 L15,0 L15,3 L11,4 L5,4 L2,4 L-1,1 Z M2,5 L4,9 L2,10 L1,6 Z " fill="#496AB1" transform="translate(609,364)"/>
<path d="M0,0 L4,0 L4,2 L6,2 L6,0 L8,0 L8,2 L12,2 L11,4 L9,3 L9,6 L12,6 L11,9 L4,8 L4,5 L6,5 L6,3 L3,4 L3,1 Z " fill="#3F5995" transform="translate(654,340)"/>
<path d="M0,0 L3,2 L3,5 L8,6 L8,9 L2,9 L-2,6 L-2,2 L0,2 Z " fill="#4164A0" transform="translate(380,646)"/>
<path d="M0,0 L8,0 L8,14 L10,14 L10,16 L16,16 L16,17 L7,19 L7,16 L5,16 L5,14 L7,14 L7,1 L0,2 Z " fill="#314B86" transform="translate(368,464)"/>
<path d="M0,0 L2,1 L-2,6 L-10,9 L-14,9 L-14,6 L-12,6 L-11,4 L-4,4 L-4,2 L0,2 Z " fill="#415FA4" transform="translate(457,449)"/>
<path d="M0,0 L2,0 L2,3 L4,3 L5,0 L5,4 L1,4 L1,10 L-1,10 L-1,12 L-7,12 L-7,11 L-2,11 L-3,3 Z " fill="#3F709A" transform="translate(695,642)"/>
<path d="M0,0 L8,0 L8,8 L10,8 L11,6 L12,10 L8,9 L8,11 L10,12 L7,12 L4,9 L4,4 L0,3 L5,3 L5,8 L7,8 L7,1 L0,1 Z " fill="#35528E" transform="translate(396,484)"/>
<path d="M0,0 L1,0 L1,8 L-1,8 L-1,10 L1,10 L1,18 L0,18 L0,11 L-2,11 L-3,13 L-3,11 L-5,11 L-4,1 L-2,5 L-2,7 L0,7 Z " fill="#3B6B8E" transform="translate(709,502)"/>
<path d="M0,0 L2,0 L1,8 L-4,12 L-9,12 L-9,10 L-4,10 L-2,2 L0,2 Z " fill="#3F63A4" transform="translate(427,483)"/>
<path d="M0,0 L2,0 L2,7 L4,7 L4,10 L2,10 L2,17 L0,20 Z " fill="#0A1629" transform="translate(201,641)"/>
<path d="M0,0 L1,0 L1,5 L3,6 L-2,8 L-5,8 L-4,3 L-7,2 L-7,1 Z " fill="#4763A8" transform="translate(663,347)"/>
<path d="M0,0 L6,0 L5,3 L7,3 L8,0 L8,4 L2,4 L2,8 L-2,8 L-2,12 L-4,12 L-5,9 L-3,9 L-3,7 L1,7 Z " fill="#0A1527" transform="translate(614,768)"/>
<path d="M0,0 L4,1 L4,4 L8,5 L4,5 L4,8 L-1,7 L-2,3 L0,3 Z " fill="#040910" transform="translate(450,764)"/>
<path d="M0,0 L4,0 L4,2 L6,2 L8,8 L2,8 L0,4 Z " fill="#08111E" transform="translate(708,740)"/>
<path d="M0,0 L3,2 L3,10 L-7,10 L-6,6 L-6,9 L2,9 L1,7 L-4,7 L-2,3 L0,3 Z " fill="#0D1D34" transform="translate(725,706)"/>
<path d="M0,0 L6,2 L9,9 L10,12 L6,12 L5,7 L3,7 L2,2 L0,2 Z " fill="#5086B2" transform="translate(601,606)"/>
<path d="M0,0 L2,0 L1,5 L-1,7 L-7,9 L-10,10 L-10,5 L-5,4 L-1,3 Z " fill="#3F5FA4" transform="translate(433,465)"/>
<path d="M0,0 L2,0 L2,2 L4,2 L4,0 L6,0 L6,2 L8,2 L8,0 L10,0 L10,2 L12,3 L4,5 L4,3 L0,5 L0,3 L-10,3 L-10,2 L0,2 Z " fill="#374F89" transform="translate(564,344)"/>
<path d="M0,0 L1,0 L1,5 L3,5 L4,1 L5,4 L7,5 L7,7 L10,7 L10,9 L5,9 L5,11 L8,12 L4,12 L2,7 L0,6 Z " fill="#3C6892" transform="translate(614,646)"/>
<path d="M0,0 L4,0 L3,7 L-3,7 L-3,2 Z " fill="#050913" transform="translate(324,694)"/>
<path d="M0,0 L2,0 L2,2 L10,2 L10,4 L6,5 L-12,3 L-12,2 L0,2 Z " fill="#365486" transform="translate(570,666)"/>
<path d="M0,0 L6,0 L6,2 L1,2 L1,7 L-1,7 L-1,9 L-5,8 L-2,8 L-2,6 L-5,6 L-5,4 Z " fill="#406799" transform="translate(565,641)"/>
<path d="M0,0 L9,2 L18,2 L21,0 L19,5 L16,5 L4,4 L4,2 L0,3 Z " fill="#486EAC" transform="translate(380,639)"/>
<path d="M0,0 L7,1 L7,3 L3,2 L3,4 L5,5 L2,6 L1,9 L-1,9 L-2,5 L0,4 L-1,3 L-8,2 L-8,1 Z " fill="#4773A6" transform="translate(578,628)"/>
<path d="M0,0 L11,0 L10,4 L1,4 Z " fill="#4D74B4" transform="translate(354,624)"/>
<path d="M0,0 L2,0 L3,3 L1,8 L-1,7 L-2,3 Z M-4,8 L-1,8 L-3,12 L-9,17 L-7,12 L-5,11 Z " fill="#4263AA" transform="translate(340,516)"/>
<path d="M0,0 L4,0 L5,4 L3,4 L3,8 L1,8 L1,10 L-1,10 L-1,2 Z " fill="#080C16" transform="translate(405,482)"/>
<path d="M0,0 L4,0 L4,2 L10,2 L10,4 L6,4 L6,8 L4,8 L4,4 L2,4 L2,6 L0,6 Z " fill="#0A1027" transform="translate(248,390)"/>
<path d="M0,0 L8,0 L8,6 L4,6 L4,4 L0,4 Z " fill="#080D1C" transform="translate(644,212)"/>
<path d="M0,0 L7,0 L10,5 L11,7 L6,6 L6,4 L0,4 Z " fill="#5084B0" transform="translate(612,624)"/>
<path d="M0,0 L2,0 L3,6 L1,13 L-4,17 L-6,15 L-3,14 L0,9 Z " fill="#599EC7" transform="translate(690,595)"/>
<path d="M0,0 L7,0 L7,8 L5,8 L5,5 L1,4 Z " fill="#0E1734" transform="translate(276,699)"/>
<path d="M0,0 L1,2 L4,2 L4,4 L-3,4 L-3,6 L-9,5 L-6,2 Z " fill="#3B5CA4" transform="translate(525,691)"/>
<path d="M0,0 L2,0 L5,6 L2,6 L2,3 L0,3 L0,8 L5,8 L5,9 L-1,9 L-1,3 L-3,3 L-3,5 L-5,5 L-5,3 L-7,2 L-3,1 L0,2 Z " fill="#35548F" transform="translate(441,663)"/>
<path d="M0,0 L1,3 L3,3 L4,0 L4,6 L2,6 L2,10 L-2,10 L-2,4 L0,4 Z " fill="#080C15" transform="translate(440,448)"/>
<path d="M0,0 L2,0 L2,2 L6,2 L6,4 L3,7 L-3,5 L-3,3 L0,3 Z M-1,6 L1,10 L-1,10 Z " fill="#101E3A" transform="translate(312,708)"/>
<path d="M0,0 L5,1 L5,3 L2,3 L2,5 L0,5 L0,7 L-4,7 L-4,2 Z " fill="#112645" transform="translate(718,704)"/>
<path d="M0,0 L2,0 L2,4 L6,5 L2,7 L2,10 L-4,9 L-1,6 Z " fill="#4163A4" transform="translate(561,673)"/>
<path d="M0,0 L2,1 L1,10 L3,11 L4,16 L0,16 L-2,10 L0,10 Z " fill="#36528D" transform="translate(320,512)"/>
<path d="M0,0 L1,0 L1,5 L3,6 L2,12 L-1,12 L0,8 L-2,8 L-3,10 L-4,5 L0,4 Z " fill="#416B9A" transform="translate(708,466)"/>
<path d="M0,0 L2,2 L3,8 L1,8 L1,13 L-2,14 L0,8 L-2,8 L-2,2 L0,2 Z " fill="#37518E" transform="translate(458,432)"/>
<path d="M0,0 L4,1 L1,1 L1,3 L4,3 L5,9 L2,11 L0,10 Z " fill="#0A1426" transform="translate(216,654)"/>
<path d="M0,0 L1,2 L-2,7 L-8,8 L-12,7 L-12,5 L-2,4 Z " fill="#436DAD" transform="translate(448,640)"/>
<path d="M0,0 L16,0 L17,3 L15,3 L15,1 L10,3 L2,3 Z " fill="#466DAB" transform="translate(400,644)"/>
<path d="M0,0 L2,0 L1,12 L3,13 L-1,17 L-1,13 L-3,13 L-4,16 L-4,12 L0,12 Z " fill="#354F8A" transform="translate(436,452)"/>
<path d="M0,0 L9,0 L9,6 L5,5 L8,5 L8,1 L1,1 L1,4 L-5,4 L-5,1 Z " fill="#050914" transform="translate(309,728)"/>
<path d="M0,0 L1,3 L6,2 L5,7 L1,8 L0,10 Z " fill="#070E1B" transform="translate(256,658)"/>
<path d="M0,0 L4,0 L4,6 L7,7 L5,8 L0,7 L1,4 L-2,4 Z " fill="#0D1822" transform="translate(610,646)"/>
<path d="M0,0 L1,3 L4,3 L5,17 L4,17 L4,11 L1,11 Z " fill="#4B81AD" transform="translate(695,500)"/>
<path d="M0,0 L2,0 L3,3 L10,4 L10,11 L8,11 L8,6 L2,6 L2,4 L0,4 Z " fill="#4061AA" transform="translate(393,481)"/>
<path d="M0,0 L2,1 L4,8 L3,20 L2,20 L2,12 L0,12 L0,8 L2,8 L0,4 Z " fill="#0B121C" transform="translate(712,440)"/>
<path d="M0,0 L1,0 L1,10 L3,10 L3,12 L5,12 L5,14 L1,14 L1,16 L-3,15 L0,15 L0,13 L-2,12 L-1,10 Z " fill="#090E19" transform="translate(459,402)"/>
<path d="M0,0 L2,0 L2,4 L10,4 L10,5 L2,5 L2,7 L-3,8 L-2,6 L-6,6 L-6,4 L0,4 Z " fill="#0D192F" transform="translate(590,758)"/>
<path d="M0,0 L2,0 L3,3 L2,10 L0,10 L0,3 L-11,3 L-11,1 L0,2 Z " fill="#112340" transform="translate(615,745)"/>
<path d="M0,0 L8,0 L9,4 L0,4 Z " fill="#080F1F" transform="translate(224,692)"/>
<path d="M0,0 L5,1 L4,6 L-2,6 L-2,1 Z " fill="#3C5E97" transform="translate(420,660)"/>
<path d="M0,0 L1,0 L1,6 L3,6 L3,10 L5,10 L4,14 L4,11 L-1,11 L-1,7 L-3,7 L-2,5 L0,6 Z " fill="#3F6D92" transform="translate(703,488)"/>
<path d="M0,0 L7,0 L7,2 L5,2 L5,6 L1,8 L0,6 Z M-1,7 Z " fill="#43659B" transform="translate(699,396)"/>
<path d="M0,0 L4,0 L4,2 L2,2 L2,4 L6,4 L6,10 L5,10 L5,5 L0,4 L-6,6 L-8,6 L-8,4 L-2,4 L-2,2 L0,2 Z " fill="#080D1D" transform="translate(238,388)"/>
<path d="M0,0 L2,2 L2,9 L1,12 L-3,12 L-3,10 L-1,10 L-1,2 L-3,1 Z M0,2 Z " fill="#070A11" transform="translate(705,384)"/>
<path d="M0,0 L1,2 L11,2 L11,4 L7,4 L7,6 L3,5 L1,4 L0,6 Z " fill="#02060A" transform="translate(603,746)"/>
<path d="M0,0 L6,0 L2,2 L0,4 L-1,8 L-6,8 L-6,4 L-2,4 L-2,2 L0,2 Z " fill="#0F1924" transform="translate(586,630)"/>
<path d="M0,0 L4,3 L5,7 L3,7 L2,5 L-6,6 L-9,4 L-3,3 L-1,4 Z " fill="#507EBE" transform="translate(412,572)"/>
<path d="M0,0 L4,0 L4,6 L-2,6 L-1,1 Z " fill="#0A1127" transform="translate(270,384)"/>
<path d="M0,0 L2,4 L-4,3 L-4,5 L0,6 L-11,6 L-10,4 L-8,4 L-7,1 L0,2 Z " fill="#3D568D" transform="translate(500,354)"/>
<path d="M0,0 L4,0 L5,7 L-1,7 Z " fill="#08101D" transform="translate(607,755)"/>
<path d="M0,0 L2,0 L2,11 L5,11 L5,13 L0,13 Z " fill="#476DAB" transform="translate(321,610)"/>
<path d="M0,0 L6,0 L6,2 L2,2 L2,12 L0,12 Z " fill="#4365B0" transform="translate(417,467)"/>
<path d="M0,0 L8,0 L8,4 L0,4 Z " fill="#4462A8" transform="translate(556,372)"/>
<path d="M0,0 L4,0 L4,2 L12,2 L12,3 L-4,4 L-4,2 L0,2 Z " fill="#3C5387" transform="translate(500,346)"/>
<path d="M0,0 L4,0 L4,2 L10,2 L10,6 L12,6 L11,8 L8,7 L9,3 L0,4 Z " fill="#090E1A" transform="translate(438,684)"/>
<path d="M0,0 L1,4 L3,4 L3,6 L5,7 L1,7 L1,9 L5,10 L0,11 L0,9 L-2,9 L-2,5 L0,5 Z " fill="#3E6E9B" transform="translate(609,636)"/>
<path d="M0,0 L1,2 L3,3 L2,5 L0,5 L0,9 L-4,8 L-1,8 L-3,4 L-5,5 L-4,1 Z " fill="#407297" transform="translate(704,633)"/>
<path d="M0,0 L3,0 L4,4 L10,5 L10,7 L3,7 L3,5 L0,6 Z " fill="#3E5CA5" transform="translate(354,476)"/>
<path d="M0,0 L2,4 L3,8 L-2,8 L-3,12 L-3,4 L0,4 Z " fill="#3F669A" transform="translate(711,440)"/>
<path d="M0,0 L2,0 L2,2 L4,2 L4,0 L6,0 L6,4 L2,8 L0,8 Z " fill="#090F1F" transform="translate(220,424)"/>
<path d="M0,0 L2,0 L2,2 L6,2 L6,4 L1,8 L-2,8 L-2,6 L0,6 Z " fill="#081421" transform="translate(704,746)"/>
<path d="M0,0 L1,0 L2,8 L1,11 L-2,11 L-1,7 L0,5 L-3,4 L-3,2 Z " fill="#4E85AB" transform="translate(595,590)"/>
<path d="M0,0 L6,0 L6,6 L2,7 L1,3 Z " fill="#010103" transform="translate(417,484)"/>
<path d="M0,0 L4,0 L3,4 L3,1 L1,1 L1,6 L-2,7 L-2,5 L-6,5 L-7,7 L-6,3 L-2,4 Z " fill="#334F8B" transform="translate(392,480)"/>
<path d="M0,0 L4,1 L1,1 L1,8 L3,9 L1,12 L-6,12 L-6,11 L0,11 L0,9 L-6,9 L-6,8 L0,8 Z " fill="#334D8A" transform="translate(364,472)"/>
<path d="M0,0 L10,0 L14,4 L14,10 L13,10 L13,5 L11,5 L10,9 L9,1 L0,1 Z " fill="#3C5289" transform="translate(680,352)"/>
<path d="M0,0 L1,3 L3,3 L4,0 L4,2 L6,2 L8,5 L8,8 L4,8 L4,4 L0,4 Z " fill="#0F1A36" transform="translate(324,720)"/>
<path d="M0,0 L4,1 L1,1 L1,3 L4,4 L3,7 L-2,7 L-3,3 L0,3 Z " fill="#0D1A34" transform="translate(308,710)"/>
<path d="M0,0 L3,0 L4,8 L2,8 L2,10 L-2,9 L0,4 L2,4 L2,2 L0,2 Z " fill="#070F19" transform="translate(722,694)"/>
<path d="M0,0 L3,1 L-3,4 L-7,5 L-8,7 L-13,7 L-11,4 Z " fill="#517DBD" transform="translate(403,606)"/>
<path d="M0,0 L2,0 L2,13 L-1,13 L-1,6 L0,1 Z " fill="#3D5EA7" transform="translate(373,465)"/>
<path d="M0,0 L5,1 L4,6 L2,8 L2,6 L-1,7 L-1,5 L1,5 Z " fill="#385496" transform="translate(369,465)"/>
<path d="M0,0 L2,0 L2,5 L6,6 L6,9 L3,9 L2,8 L0,8 L-1,4 Z " fill="#405C99" transform="translate(691,357)"/>
<path d="M0,0 L8,0 L8,2 L1,2 L1,4 L4,4 L4,6 L-2,5 Z " fill="#0B0F1A" transform="translate(496,350)"/>
<path d="M0,0 L11,0 L13,4 L0,2 Z " fill="#0A1524" transform="translate(724,734)"/>
<path d="M0,0 L4,0 L4,6 L0,5 L-2,4 Z " fill="#091523" transform="translate(796,674)"/>
<path d="M0,0 L6,0 L6,2 L8,2 L8,4 L0,4 Z " fill="#010307" transform="translate(224,668)"/>
<path d="M0,0 L2,1 L3,7 L1,9 L0,14 L-2,13 Z " fill="#5EA2C8" transform="translate(693,562)"/>
<path d="M0,0 L2,0 L3,5 L0,8 L-5,8 L-5,6 L-2,6 L-2,3 L0,3 Z " fill="#3D62A3" transform="translate(409,487)"/>
<path d="M0,0 L4,2 L6,4 L2,6 L2,9 L0,9 Z " fill="#4B7CAC" transform="translate(621,492)"/>
<path d="M0,0 L6,2 L4,6 L0,6 Z " fill="#3E5EA3" transform="translate(437,458)"/>
<path d="M0,0 L4,1 L4,3 L6,3 L6,6 L0,6 Z " fill="#0F1C37" transform="translate(304,696)"/>
<path d="M0,0 L5,0 L2,1 L2,3 L6,4 L2,4 L2,6 L-6,6 L-6,5 L1,5 L1,3 L-2,2 Z " fill="#334F8C" transform="translate(528,690)"/>
<path d="M0,0 L9,0 L11,2 L4,4 L0,4 Z " fill="#4672A5" transform="translate(589,493)"/>
<path d="M0,0 L5,1 L3,8 L2,5 L0,5 Z " fill="#4059A2" transform="translate(337,475)"/>
<path d="M0,0 L5,0 L4,4 L0,6 L-4,6 L-4,4 L0,4 Z " fill="#4B7CB1" transform="translate(672,468)"/>
<path d="M0,0 L2,0 L2,3 L4,3 L4,8 L1,8 L1,6 L-1,5 Z " fill="#132144" transform="translate(365,739)"/>
<path d="M0,0 L1,3 L-1,3 L-1,5 L1,5 L1,7 L-1,7 L-1,9 L-4,9 L-4,5 L-2,5 L-3,1 L0,2 Z " fill="#0D1932" transform="translate(315,713)"/>
<path d="M0,0 L2,0 L2,3 L3,0 L7,2 L6,4 L-2,5 Z " fill="#39579B" transform="translate(532,688)"/>
<path d="M0,0 L9,0 L9,3 L-2,3 L-2,1 Z " fill="#3F66A7" transform="translate(450,657)"/>
<path d="M0,0 L1,0 L0,8 L-2,14 L-3,14 L-3,5 L-1,4 Z " fill="#589CC1" transform="translate(699,588)"/>
<path d="M0,0 L1,0 L1,8 L4,8 L4,11 L2,13 L0,14 Z " fill="#10192C" transform="translate(376,464)"/>
<path d="M0,0 L1,0 L1,6 L-2,7 L-2,5 L-5,5 L-5,7 L-8,8 L-8,6 L-6,6 L-6,4 L-2,4 Z " fill="#38538B" transform="translate(488,360)"/>
<path d="M0,0 L4,0 L2,4 L-2,7 L-2,1 Z " fill="#4462A1" transform="translate(491,359)"/>
<path d="M0,0 L3,0 L4,3 L-14,2 L-14,1 Z " fill="#060B16" transform="translate(468,762)"/>
<path d="M0,0 L4,0 L4,6 L0,6 Z " fill="#04080F" transform="translate(216,648)"/>
<path d="M0,0 L4,0 L4,6 L0,6 Z " fill="#0F1B36" transform="translate(258,412)"/>
<path d="M0,0 L8,1 L4,3 L1,4 L-7,4 L-7,2 L0,2 Z " fill="#3F568F" transform="translate(504,350)"/>
<path d="M0,0 L5,0 L5,2 L2,2 L1,5 L-4,5 L-4,3 L0,3 Z " fill="#121F42" transform="translate(377,746)"/>
<path d="M0,0 L2,0 L2,8 L-3,9 L-3,7 L0,7 Z " fill="#122245" transform="translate(350,722)"/>
<path d="M0,0 L2,0 L2,4 L9,4 L5,6 L0,7 Z " fill="#4064AE" transform="translate(437,677)"/>
<path d="M0,0 L3,0 L3,4 L5,5 L1,5 L2,10 L0,10 Z " fill="#26435D" transform="translate(604,636)"/>
<path d="M0,0 L6,1 L4,5 L-2,4 L0,3 Z " fill="#537ABB" transform="translate(376,620)"/>
<path d="M0,0 L5,2 L5,4 L2,4 L2,9 L0,9 Z " fill="#415FA7" transform="translate(321,513)"/>
<path d="M0,0 L3,0 L3,2 L8,2 L8,4 L0,4 Z " fill="#152B4E" transform="translate(606,743)"/>
<path d="M0,0 L7,0 L7,4 L1,3 Z " fill="#000001" transform="translate(310,729)"/>
<path d="M0,0 L2,0 L1,9 L-1,9 L-2,3 Z " fill="#091122" transform="translate(205,663)"/>
<path d="M0,0 L5,1 L3,2 L3,6 L1,6 L-3,1 Z " fill="#37648C" transform="translate(601,634)"/>
<path d="M0,0 L4,0 L4,4 L-1,5 Z " fill="#070D1E" transform="translate(264,391)"/>
<path d="M0,0 L9,0 L12,1 L12,4 L8,4 L8,1 L0,1 Z " fill="#060D16" transform="translate(718,716)"/>
<path d="M0,0 L9,0 L9,4 L5,4 L5,1 L0,1 Z " fill="#030509" transform="translate(436,675)"/>
<path d="M0,0 L1,4 L3,4 L3,6 L1,6 L0,8 L0,5 L-3,5 L-3,2 L0,2 Z " fill="#02050A" transform="translate(215,670)"/>
<path d="M0,0 L2,0 L2,3 L7,3 L6,6 L0,5 Z " fill="#3F63A9" transform="translate(441,666)"/>
<path d="M0,0 L1,0 L1,10 L3,11 L2,13 L-1,13 Z " fill="#03060C" transform="translate(215,654)"/>
<path d="M0,0 L1,0 L1,6 L-1,6 L-1,8 L-7,8 L-7,7 L-2,7 L-2,2 L0,2 Z " fill="#37658C" transform="translate(695,646)"/>
<path d="M0,0 L2,0 L3,4 L0,6 L-2,3 L-2,5 L-6,4 L-3,4 L-3,2 L0,2 Z " fill="#3C5996" transform="translate(459,446)"/>
<path d="M0,0 L2,0 L4,4 L7,6 L2,7 L0,4 Z " fill="#4566A5" transform="translate(694,380)"/>
<path d="M0,0 L5,0 L5,3 L1,3 L1,8 L0,8 Z " fill="#060D18" transform="translate(608,770)"/>
<path d="M0,0 L1,0 L1,6 L-3,7 L-4,2 L0,2 Z " fill="#0C1A2E" transform="translate(614,748)"/>
<path d="M0,0 L6,1 L6,5 L3,6 L3,2 L0,2 Z " fill="#122045" transform="translate(352,731)"/>
<path d="M0,0 L3,0 L3,6 L-1,5 Z " fill="#0D1734" transform="translate(284,705)"/>
<path d="M0,0 L3,0 L4,2 L4,10 L3,10 L3,4 L0,4 Z " fill="#040B12" transform="translate(792,698)"/>
<path d="M0,0 L2,0 L3,7 L4,10 L1,9 Z " fill="#4C88B2" transform="translate(699,527)"/>
<path d="M0,0 L4,0 L4,2 L0,2 L1,6 L-2,6 L-1,1 Z " fill="#122140" transform="translate(324,694)"/>
<path d="M0,0 L2,1 L2,4 L-2,3 L-2,5 L0,6 L-3,6 L-4,1 Z " fill="#3C5DA4" transform="translate(537,685)"/>
<path d="M0,0 L4,0 L4,2 L6,4 L0,4 L0,2 L-4,1 Z " fill="#35518C" transform="translate(442,682)"/>
<path d="M0,0 L5,0 L8,2 L8,4 L4,5 L3,2 L0,1 Z " fill="#3D63A1" transform="translate(432,659)"/>
<path d="M0,0 L6,0 L5,6 L3,3 L0,2 Z " fill="#4476A7" transform="translate(619,655)"/>
<path d="M0,0 L2,1 L1,6 L-3,5 L-1,1 Z " fill="#456EA4" transform="translate(558,647)"/>
<path d="M0,0 Z M-4,1 L0,2 L-4,6 L-6,5 L-6,2 Z " fill="#4670A5" transform="translate(610,475)"/>
<path d="M0,0 L3,0 L3,2 L6,2 L6,4 L0,4 Z " fill="#0A1524" transform="translate(478,764)"/>
<path d="M0,0 L2,0 L2,6 L-3,6 L-3,4 L0,4 Z " fill="#0F1939" transform="translate(369,761)"/>
<path d="M0,0 L3,1 L3,4 L-1,4 L-1,2 L-5,1 Z " fill="#0F1937" transform="translate(259,674)"/>
<path d="M0,0 L3,0 L2,3 L0,3 L0,5 L3,6 L-1,6 L-1,2 L-3,1 Z " fill="#36598D" transform="translate(429,658)"/>
<path d="M0,0 L2,0 L3,4 L-4,4 L-4,2 L0,2 Z " fill="#0F1938" transform="translate(313,723)"/>
<path d="M0,0 L1,0 L1,7 L-4,8 L-4,4 L-2,4 L-2,6 L0,6 Z " fill="#080F1E" transform="translate(220,666)"/>
<path d="M0,0 L2,0 L2,4 L4,4 L4,7 L1,7 Z " fill="#4374A5" transform="translate(605,641)"/>
<path d="M0,0 L4,0 L2,4 L-2,7 Z " fill="#4C81AD" transform="translate(624,508)"/>
<path d="M0,0 L2,0 L3,5 L1,6 L1,3 L-1,3 L-2,6 L-2,2 L0,2 Z " fill="#36558E" transform="translate(410,484)"/>
<path d="M0,0 L3,1 L1,5 L3,5 L3,7 L-1,5 Z " fill="#060910" transform="translate(455,441)"/>
<path d="M0,0 L3,2 L7,1 L7,3 L1,5 L-1,1 Z " fill="#4868A9" transform="translate(681,376)"/>
<path d="M0,0 L2,0 L2,2 L4,2 L4,6 L1,6 Z " fill="#050F16" transform="translate(764,312)"/>
<path d="M0,0 L6,0 L6,2 L2,2 L2,4 L0,4 Z " fill="#06101C" transform="translate(468,800)"/>
<path d="M0,0 L4,1 L6,2 L6,4 L1,3 Z " fill="#0D1A31" transform="translate(448,768)"/>
<path d="M0,0 L4,0 L4,4 L0,4 Z " fill="#07111D" transform="translate(796,730)"/>
<path d="M0,0 L4,0 L4,4 L0,4 Z " fill="#0C162D" transform="translate(246,674)"/>
<path d="M0,0 L2,0 L2,4 L4,4 L4,6 L0,6 Z " fill="#4475AB" transform="translate(601,651)"/>
<path d="M0,0 L9,0 L6,3 L4,3 L4,1 L0,2 Z " fill="#59A0C8" transform="translate(678,606)"/>
<path d="M0,0 L4,1 L4,4 L0,5 Z M4,0 Z " fill="#5594BD" transform="translate(692,540)"/>
<path d="M0,0 L5,0 L6,2 L0,4 Z " fill="#5494BD" transform="translate(684,539)"/>
<path d="M0,0 L2,1 L1,7 L-1,8 L-1,2 Z " fill="#4C82AB" transform="translate(607,521)"/>
<path d="M0,0 L2,2 L2,5 L4,5 L4,7 L2,7 L1,9 L0,5 L1,3 L-1,2 Z " fill="#3F6991" transform="translate(702,475)"/>
<path d="M0,0 L2,0 L1,4 L4,5 L-2,6 L-2,3 L0,3 Z " fill="#1A2C3D" transform="translate(706,474)"/>
<path d="M0,0 L4,0 L4,4 L0,4 Z " fill="#354F8D" transform="translate(396,476)"/>
<path d="M0,0 L4,0 L4,4 L0,4 Z " fill="#35508C" transform="translate(408,472)"/>
<path d="M0,0 L4,0 L4,4 L0,4 Z " fill="#0A1427" transform="translate(236,426)"/>
<path d="M0,0 L4,0 L4,4 L0,4 Z " fill="#070C1A" transform="translate(258,408)"/>
<path d="M0,0 L6,0 L6,3 L0,3 Z " fill="#435FA5" transform="translate(570,347)"/>
<path d="M0,0 L6,0 L6,4 L4,4 L4,2 L0,2 Z " fill="#0C132A" transform="translate(645,213)"/>
<path d="M0,0 L5,0 L5,2 L0,4 Z " fill="#0A1625" transform="translate(705,748)"/>
<path d="M0,0 L4,1 L4,6 L2,6 Z " fill="#0B192C" transform="translate(709,741)"/>
<path d="M0,0 L1,2 L3,2 L3,6 L-1,5 Z " fill="#42689F" transform="translate(552,654)"/>
<path d="M0,0 L5,0 L5,3 L0,3 Z " fill="#4B7CB4" transform="translate(451,605)"/>
<path d="M0,0 L4,1 L4,4 L0,4 Z " fill="#0A1123" transform="translate(257,420)"/>
<path d="M0,0 L5,0 L4,4 L1,3 Z " fill="#4863A6" transform="translate(500,353)"/>
<path d="M0,0 L4,0 L4,3 L0,4 Z " fill="#070E1B" transform="translate(456,800)"/>
<path d="M0,0 L5,0 L3,5 L1,5 Z " fill="#112442" transform="translate(618,751)"/>
<path d="M0,0 L5,1 L5,4 L-1,4 Z " fill="#060E17" transform="translate(733,736)"/>
<path d="M0,0 L4,1 L3,4 L0,4 Z " fill="#3D5FA7" transform="translate(467,691)"/>
<path d="M0,0 L4,0 L4,3 L-1,3 Z " fill="#4063A4" transform="translate(544,680)"/>
<path d="M0,0 L2,0 L2,2 L4,2 L4,4 L0,5 Z " fill="#0D1A33" transform="translate(221,649)"/>
<path d="M0,0 L2,0 L4,6 L0,5 Z " fill="#010102" transform="translate(601,641)"/>
<path d="M0,0 L2,0 L1,3 L-8,2 L-8,1 Z " fill="#4871A1" transform="translate(578,628)"/>
<path d="M0,0 L2,0 L3,5 L5,6 L1,5 Z " fill="#5179B6" transform="translate(379,626)"/>
<path d="M0,0 L4,0 L4,3 L0,4 Z " fill="#070D1A" transform="translate(184,512)"/>
<path d="M0,0 L4,1 L3,5 L2,3 L0,5 Z " fill="#0B111E" transform="translate(420,475)"/>
<path d="M0,0 L3,1 L1,7 L-1,4 Z " fill="#477AAD" transform="translate(639,470)"/>
<path d="M0,0 L3,0 L3,3 L1,3 L1,5 L-3,4 L0,4 Z " fill="#080C16" transform="translate(367,467)"/>
<path d="M0,0 L4,0 L4,2 L6,2 L6,4 L2,5 L3,1 Z " fill="#16213B" transform="translate(444,447)"/>
<path d="M0,0 L3,3 L3,5 L-1,5 Z " fill="#4F78B5" transform="translate(670,422)"/>
<path d="M0,0 L2,0 L2,4 L-2,4 Z " fill="#08131F" transform="translate(618,780)"/>
<path d="M0,0 L3,0 L3,3 L-3,4 L0,3 Z " fill="#080D1E" transform="translate(323,736)"/>
<path d="M0,0 L2,0 L2,4 L-2,4 Z " fill="#0E2033" transform="translate(764,676)"/>
<path d="M0,0 L2,0 L4,5 L1,5 Z " fill="#0D1831" transform="translate(237,671)"/>
<path d="M0,0 L1,3 L-1,5 L-6,3 L-6,2 Z " fill="#4168A4" transform="translate(534,659)"/>
<path d="M0,0 L4,1 L4,5 L1,4 Z " fill="#05090D" transform="translate(614,653)"/>
<path d="M0,0 L7,0 L4,2 L0,3 Z " fill="#476BAA" transform="translate(333,616)"/>
<path d="M0,0 L4,1 L2,5 L0,4 Z " fill="#030507" transform="translate(706,480)"/>
<path d="M0,0 L2,0 L1,3 L-4,4 L-4,2 Z " fill="#3E5EA9" transform="translate(369,471)"/>
<path d="M0,0 L2,3 L1,5 L-3,4 L-2,2 L0,2 Z " fill="#081020" transform="translate(232,394)"/>
<path d="M0,0 L2,0 L2,4 L-2,4 Z " fill="#101A3B" transform="translate(271,385)"/>
<path d="M0,0 L1,2 L4,2 L4,4 L-2,3 Z " fill="#1C263E" transform="translate(496,352)"/>
<path d="M0,0 L4,0 L4,2 L2,2 L2,4 L0,4 Z " fill="#101C3B" transform="translate(376,742)"/>
<path d="M0,0 L4,0 L4,4 L2,4 L2,2 L0,2 Z " fill="#182E58" transform="translate(377,731)"/>
<path d="M0,0 L0,3 L-2,6 L-3,2 Z " fill="#142B4C" transform="translate(718,704)"/>
<path d="M0,0 L2,0 L2,2 L4,2 L4,5 L0,3 Z " fill="#091222" transform="translate(306,697)"/>
<path d="M0,0 L4,2 L2,2 L2,4 L0,4 L0,2 L-2,1 Z " fill="#325389" transform="translate(436,664)"/>
<path d="M0,0 L5,1 L2,3 L-2,2 Z " fill="#3E66A1" transform="translate(402,655)"/>
<path d="M0,0 L3,1 L4,5 L0,4 Z " fill="#4C74B5" transform="translate(349,607)"/>
<path d="M0,0 L3,1 L3,3 L5,4 L1,4 L1,2 L-1,1 Z " fill="#4D7DB9" transform="translate(446,597)"/>
<path d="M0,0 L3,1 L-2,5 L-1,1 Z " fill="#5995B8" transform="translate(622,556)"/>
<path d="M0,0 L5,1 L4,3 L0,2 Z " fill="#5C9DC5" transform="translate(678,552)"/>
<path d="M0,0 L3,1 L2,5 L0,5 Z " fill="#466FAE" transform="translate(425,528)"/>
<path d="M0,0 L3,0 L2,4 L0,5 Z " fill="#3D5B9D" transform="translate(323,517)"/>
<path d="M0,0 L5,0 L5,3 L1,2 Z " fill="#426EAB" transform="translate(442,516)"/>
<path d="M0,0 L3,0 L4,4 L0,3 Z " fill="#17233D" transform="translate(406,482)"/>
<path d="M0,0 L1,0 L1,6 L-2,6 Z " fill="#3A6088" transform="translate(709,472)"/>
<path d="M0,0 L3,0 L1,6 L0,6 Z " fill="#364D8A" transform="translate(444,448)"/>
<path d="M0,0 L3,0 L3,2 L-1,3 L-2,5 L-1,1 Z " fill="#4563A7" transform="translate(672,347)"/>
<path d="M0,0 L2,0 L2,2 L4,3 L0,4 L-2,2 L0,2 Z " fill="#384F8A" transform="translate(572,344)"/>
<path d="M0,0 L5,2 L5,4 L0,3 Z " fill="#4765A8" transform="translate(663,343)"/>
<path d="M0,0 L4,0 L2,4 Z " fill="#3C5BA0" transform="translate(471,695)"/>
<path d="M0,0 L2,0 L2,4 L-1,4 Z " fill="#0D1D32" transform="translate(797,675)"/>
<path d="M0,0 L2,3 L0,3 L0,5 L-3,4 L-2,2 L0,2 Z " fill="#04060C" transform="translate(367,464)"/>
<path d="M0,0 L3,0 L3,2 L1,2 L1,4 L-1,4 Z " fill="#0D152E" transform="translate(257,404)"/>
<path d="M0,0 L3,0 L4,3 L0,3 Z " fill="#070F19" transform="translate(486,766)"/>
<path d="M0,0 L3,0 L4,3 L0,3 Z " fill="#091021" transform="translate(348,716)"/>
<path d="M0,0 L1,2 L3,3 L-1,6 Z " fill="#02050B" transform="translate(251,672)"/>
<path d="M0,0 L2,0 L0,4 L-2,4 Z " fill="#0F2335" transform="translate(764,658)"/>
<path d="M0,0 L4,0 L4,3 L0,2 Z " fill="#4366A0" transform="translate(329,624)"/>
<path d="M0,0 L1,3 L-1,5 L-3,4 L-3,2 Z " fill="#4164AB" transform="translate(329,540)"/>
<path d="M0,0 L4,0 L2,4 Z " fill="#538BB2" transform="translate(620,534)"/>
<path d="M0,0 L2,1 L1,5 L-1,1 Z " fill="#3E5AA0" transform="translate(332,496)"/>
<path d="M0,0 L3,0 L3,3 L-1,2 Z " fill="#486EA5" transform="translate(712,423)"/>
<path d="M0,0 L2,0 L2,4 L-2,2 L0,2 Z " fill="#080E1D" transform="translate(224,424)"/>
<path d="M0,0 L4,1 L3,3 L0,3 Z " fill="#4461A7" transform="translate(461,417)"/>
<path d="M0,0 L3,1 L0,4 L0,2 L-2,1 Z " fill="#4769A9" transform="translate(690,380)"/>
<path d="M0,0 L3,0 L3,3 L0,4 Z " fill="#4A65AA" transform="translate(676,349)"/>
</svg>
