<?xml version="1.0" encoding="UTF-8"?>
<!-- Generator: visioncortex VTracer 0.6.4 -->
<svg version="1.1" xmlns="http://www.w3.org/2000/svg" width="1024" height="1024">
<path d="M0,0 L1024,0 L1024,1024 L0,1024 Z " fill="#000000" transform="translate(0,0)"/>
<path d="M0,0 L6,0 L6,18 L24,18 L24,16 L33,16 L33,11 L35,11 L35,14 L40,13 L40,15 L59,15 L59,22 L62,22 L62,24 L66,24 L66,26 L74,26 L78,30 L78,36 L76,36 L77,44 L80,46 L80,52 L82,52 L82,54 L86,54 L86,60 L90,60 L90,58 L96,58 L96,54 L102,54 L102,58 L104,58 L104,64 L106,64 L106,66 L108,66 L108,72 L104,72 L104,80 L106,80 L106,88 L96,88 L96,90 L102,90 L102,96 L106,96 L106,108 L96,108 L96,106 L94,106 L96,111 L102,112 L102,116 L114,116 L114,118 L142,118 L142,120 L144,120 L144,124 L148,124 L148,126 L150,126 L150,130 L152,130 L152,134 L160,134 L160,142 L166,142 L166,144 L168,144 L168,152 L170,152 L170,154 L176,154 L176,160 L192,160 L192,162 L194,162 L194,168 L198,168 L198,170 L204,170 L206,173 L212,174 L212,176 L214,176 L214,180 L218,182 L218,184 L220,184 L220,194 L222,194 L222,198 L224,198 L224,218 L222,218 L222,228 L224,228 L224,234 L222,234 L222,240 L220,240 L220,244 L218,244 L218,246 L213,250 L212,252 L214,252 L214,258 L212,258 L212,260 L206,260 L206,262 L204,262 L204,264 L202,264 L202,268 L200,268 L200,274 L198,274 L200,279 L204,282 L204,286 L206,286 L206,288 L208,288 L208,292 L212,292 L216,297 L218,298 L218,302 L220,302 L220,330 L212,330 L212,332 L210,332 L210,340 L208,340 L208,342 L200,349 L198,352 L192,352 L192,354 L184,354 L184,356 L178,356 L178,354 L176,354 L176,356 L170,356 L170,358 L167,360 L166,364 L162,364 L162,366 L152,366 L152,368 L142,368 L142,366 L140,366 L140,368 L128,368 L128,370 L126,370 L126,372 L120,372 L120,370 L114,370 L114,372 L100,372 L100,374 L96,374 L96,378 L88,378 L88,380 L80,380 L80,384 L76,388 L60,388 L60,390 L58,390 L58,392 L50,392 L50,394 L48,394 L48,398 L46,398 L46,400 L42,400 L42,402 L20,402 L16,398 L16,402 L10,402 L8,398 L-6,398 L-6,396 L-8,396 L-8,398 L-14,398 L-14,396 L-22,396 L-22,394 L-26,394 L-26,392 L-38,392 L-38,390 L-68,390 L-68,388 L-98,388 L-98,386 L-102,386 L-102,384 L-108,384 L-112,380 L-114,375 L-120,370 L-120,364 L-126,364 L-126,362 L-128,362 L-128,358 L-132,358 L-132,354 L-134,354 L-134,358 L-140,358 L-140,356 L-144,356 L-150,349 L-152,348 L-152,342 L-156,342 L-156,340 L-162,340 L-162,334 L-160,334 L-160,324 L-158,324 L-158,320 L-156,320 L-156,314 L-152,314 L-152,312 L-142,312 L-142,310 L-138,310 L-136,306 L-132,304 L-130,300 L-128,300 L-128,298 L-136,298 L-136,296 L-138,296 L-138,292 L-140,292 L-140,290 L-150,290 L-150,288 L-154,288 L-154,284 L-156,284 L-156,280 L-168,280 L-168,278 L-170,278 L-171,270 L-174,268 L-174,264 L-179,263 L-180,260 L-190,260 L-190,254 L-192,254 L-192,240 L-188,240 L-188,218 L-184,218 L-184,192 L-182,192 L-182,190 L-180,190 L-180,178 L-178,178 L-178,176 L-176,176 L-176,170 L-174,170 L-174,164 L-172,164 L-172,144 L-170,144 L-170,142 L-168,142 L-168,136 L-166,136 L-166,118 L-164,118 L-164,116 L-146,116 L-146,114 L-140,114 L-140,108 L-136,108 L-136,104 L-128,104 L-128,98 L-124,96 L-124,94 L-116,94 L-116,92 L-114,92 L-114,90 L-110,90 L-110,88 L-108,88 L-108,86 L-112,86 L-112,80 L-108,80 L-108,74 L-102,74 L-102,72 L-98,72 L-98,70 L-96,70 L-96,68 L-98,68 L-98,64 L-102,64 L-102,58 L-98,58 L-98,56 L-92,56 L-90,61 L-88,62 L-88,46 L-86,46 L-86,44 L-84,44 L-84,38 L-78,38 L-78,36 L-70,36 L-70,28 L-66,28 L-66,26 L-64,26 L-64,24 L-68,24 L-68,10 L-66,10 L-66,8 L-54,8 L-54,10 L-46,10 L-46,8 L0,8 Z " fill="#503EF6" transform="translate(506,270)"/>
<path d="M0,0 L6,0 L6,18 L24,18 L24,16 L33,16 L33,11 L35,11 L35,14 L40,13 L40,15 L59,15 L59,22 L62,22 L62,24 L66,24 L66,26 L74,26 L78,30 L78,36 L76,36 L77,44 L80,46 L80,52 L82,52 L82,54 L86,54 L86,60 L90,60 L90,58 L96,58 L96,54 L102,54 L102,58 L104,58 L104,64 L106,64 L106,66 L108,66 L108,72 L104,72 L104,80 L106,80 L106,88 L96,88 L96,90 L102,90 L102,96 L106,96 L106,108 L96,108 L96,106 L94,106 L96,111 L102,112 L102,116 L114,116 L114,118 L142,118 L142,120 L144,120 L144,124 L148,124 L148,126 L150,126 L150,130 L152,130 L152,134 L160,134 L160,142 L166,142 L166,144 L168,144 L168,152 L170,152 L170,154 L176,154 L176,160 L175,160 L175,155 L170,155 L170,157 L173,157 L172,159 L166,158 L167,155 L169,155 L169,153 L166,152 L167,145 L165,145 L165,152 L162,150 L162,148 L158,147 L156,143 L151,143 L151,140 L149,140 L146,131 L143,128 L128,125 L126,124 L126,122 L122,124 L107,124 L106,121 L103,121 L103,127 L98,129 L99,122 L100,118 L95,116 L95,118 L91,119 L89,114 L91,111 L87,113 L86,117 L83,116 L83,111 L76,115 L69,114 L72,113 L72,109 L74,109 L74,111 L77,111 L75,107 L75,103 L75,91 L73,90 L75,84 L72,85 L58,84 L56,80 L56,75 L52,76 L52,82 L45,81 L45,77 L39,77 L39,75 L42,74 L45,75 L45,73 L48,72 L48,70 L41,70 L39,63 L36,63 L36,61 L29,63 L21,60 L20,63 L16,65 L8,68 L5,67 L6,58 L8,58 L5,55 L4,49 L-6,50 L-13,49 L-14,52 L-14,55 L-22,55 L-24,51 L-22,48 L-33,49 L-30,51 L-34,51 L-34,54 L-28,55 L-28,57 L-42,56 L-54,57 L-56,58 L-62,58 L-65,60 L-67,60 L-69,61 L-70,65 L-64,64 L-64,66 L-68,67 L-69,74 L-70,76 L-68,76 L-68,78 L-61,81 L-58,83 L-69,83 L-69,81 L-74,83 L-73,78 L-78,83 L-82,87 L-89,87 L-89,89 L-87,90 L-91,94 L-90,98 L-84,98 L-82,94 L-80,94 L-79,99 L-76,99 L-74,94 L-74,89 L-64,90 L-64,97 L-67,102 L-71,103 L-71,105 L-67,106 L-71,111 L-67,111 L-67,114 L-65,115 L-66,117 L-70,119 L-74,118 L-75,117 L-74,104 L-80,107 L-87,108 L-89,107 L-90,109 L-94,111 L-98,111 L-98,109 L-106,110 L-106,106 L-120,106 L-120,111 L-122,111 L-123,108 L-125,114 L-127,119 L-130,123 L-133,123 L-133,121 L-143,124 L-144,128 L-150,129 L-152,129 L-156,136 L-158,137 L-155,138 L-155,141 L-152,142 L-153,146 L-151,147 L-155,149 L-157,151 L-162,146 L-162,143 L-165,145 L-166,152 L-167,157 L-164,158 L-166,162 L-168,174 L-169,178 L-173,179 L-175,186 L-176,191 L-178,194 L-178,212 L-177,221 L-177,240 L-170,242 L-171,245 L-177,246 L-179,250 L-184,251 L-184,255 L-178,255 L-173,249 L-171,250 L-170,255 L-170,256 L-162,257 L-164,260 L-171,260 L-170,264 L-168,264 L-168,266 L-165,267 L-165,268 L-157,268 L-152,271 L-154,277 L-155,283 L-153,283 L-153,281 L-151,281 L-147,285 L-140,285 L-140,287 L-149,287 L-149,289 L-140,289 L-140,290 L-150,290 L-150,288 L-154,288 L-154,284 L-156,284 L-156,280 L-168,280 L-168,278 L-170,278 L-171,270 L-174,268 L-174,264 L-179,263 L-180,260 L-190,260 L-190,254 L-192,254 L-192,240 L-188,240 L-188,218 L-184,218 L-184,192 L-182,192 L-182,190 L-180,190 L-180,178 L-178,178 L-178,176 L-176,176 L-176,170 L-174,170 L-174,164 L-172,164 L-172,144 L-170,144 L-170,142 L-168,142 L-168,136 L-166,136 L-166,118 L-164,118 L-164,116 L-146,116 L-146,114 L-140,114 L-140,108 L-136,108 L-136,104 L-128,104 L-128,98 L-124,96 L-124,94 L-116,94 L-116,92 L-114,92 L-114,90 L-110,90 L-110,88 L-108,88 L-108,86 L-112,86 L-112,80 L-108,80 L-108,74 L-102,74 L-102,72 L-98,72 L-98,70 L-96,70 L-96,68 L-98,68 L-98,64 L-102,64 L-102,58 L-98,58 L-98,56 L-92,56 L-90,61 L-88,62 L-88,46 L-86,46 L-86,44 L-84,44 L-84,38 L-78,38 L-78,36 L-70,36 L-70,28 L-66,28 L-66,26 L-64,26 L-64,24 L-68,24 L-68,10 L-66,10 L-66,8 L-54,8 L-54,10 L-46,10 L-46,8 L0,8 Z M-67,81 Z M-154,146 Z M-168,162 Z M-58,81 Z M74,94 Z M73,95 Z M-148,128 Z " fill="#2515E7" transform="translate(506,270)"/>
<path d="M0,0 L6,0 L6,18 L24,18 L24,16 L33,16 L33,11 L35,11 L35,14 L40,13 L40,15 L59,15 L59,22 L62,22 L62,24 L66,24 L66,26 L74,26 L78,30 L78,36 L76,36 L77,44 L80,46 L80,52 L82,52 L82,54 L86,54 L86,60 L90,60 L90,58 L96,58 L96,54 L102,54 L102,58 L104,58 L104,64 L106,64 L106,66 L108,66 L108,72 L104,72 L104,80 L106,80 L106,88 L96,88 L96,90 L102,90 L102,96 L101,96 L101,91 L96,91 L96,93 L99,93 L98,95 L93,93 L93,91 L95,91 L95,89 L91,90 L91,88 L93,88 L94,83 L96,83 L96,81 L93,81 L92,75 L87,74 L83,71 L81,71 L82,79 L77,78 L77,71 L76,69 L71,67 L70,63 L61,63 L57,58 L44,54 L44,48 L24,46 L5,44 L4,39 L-6,39 L-14,37 L-25,36 L-26,32 L-49,33 L-58,34 L-62,33 L-62,36 L-66,38 L-77,37 L-77,39 L-83,39 L-82,44 L-75,44 L-74,42 L-74,46 L-82,47 L-84,54 L-85,54 L-85,47 L-87,47 L-87,62 L-88,62 L-88,46 L-86,46 L-86,44 L-84,44 L-84,38 L-78,38 L-78,36 L-70,36 L-70,28 L-66,28 L-66,26 L-64,26 L-64,24 L-68,24 L-68,10 L-66,10 L-66,8 L-54,8 L-54,10 L-46,10 L-46,8 L0,8 Z " fill="#2013A7" transform="translate(506,270)"/>
<path d="M0,0 L23,0 L24,3 L39,5 L53,7 L54,12 L73,13 L87,14 L93,16 L93,22 L99,23 L106,25 L110,30 L119,31 L121,35 L126,37 L127,40 L127,46 L130,46 L129,38 L133,39 L137,42 L141,43 L142,49 L145,49 L145,51 L143,52 L142,56 L140,56 L140,58 L144,57 L144,59 L142,59 L142,61 L147,62 L148,61 L145,61 L145,59 L150,59 L150,64 L155,64 L155,76 L145,76 L145,74 L143,74 L142,78 L142,74 L140,74 L140,78 L136,77 L136,72 L135,69 L128,69 L127,68 L125,52 L108,49 L107,42 L100,41 L99,38 L101,36 L106,37 L105,35 L101,34 L101,32 L93,31 L90,28 L89,21 L83,20 L83,17 L55,16 L31,15 L15,13 L-15,15 L-20,18 L-21,20 L-23,20 L-23,22 L-27,22 L-27,24 L-29,24 L-30,30 L-31,34 L-43,37 L-44,40 L-48,39 L-48,41 L-46,41 L-47,46 L-51,45 L-53,49 L-56,53 L-58,53 L-59,56 L-59,54 L-63,54 L-63,48 L-59,48 L-59,42 L-53,42 L-53,40 L-49,40 L-49,38 L-47,38 L-47,36 L-49,36 L-49,32 L-53,32 L-53,26 L-49,26 L-49,24 L-43,24 L-41,29 L-38,30 L-38,15 L-36,15 L-35,20 L-33,15 L-31,14 L-25,14 L-26,12 L-33,13 L-34,12 L-34,7 L-28,7 L-28,5 L-17,5 L-13,4 L-13,1 L-5,1 Z " fill="#1F13D5" transform="translate(457,302)"/>
<path d="M0,0 L10,1 L10,8 L7,13 L3,14 L3,16 L7,17 L3,22 L7,22 L7,25 L9,26 L8,28 L4,30 L0,29 L-1,28 L0,15 L-6,18 L-13,19 L-15,18 L-16,20 L-20,22 L-24,22 L-24,20 L-32,21 L-32,17 L-46,17 L-46,22 L-48,22 L-49,19 L-51,25 L-53,30 L-56,34 L-59,34 L-59,32 L-69,35 L-70,39 L-76,40 L-78,40 L-82,47 L-84,48 L-81,49 L-81,52 L-78,53 L-79,57 L-77,58 L-81,60 L-83,62 L-88,57 L-88,54 L-91,56 L-92,63 L-93,68 L-90,69 L-92,73 L-94,85 L-95,89 L-99,90 L-101,97 L-102,102 L-104,105 L-104,123 L-103,132 L-103,151 L-96,153 L-97,156 L-103,157 L-105,161 L-110,162 L-110,166 L-104,166 L-99,160 L-97,161 L-96,166 L-96,167 L-88,168 L-90,171 L-97,171 L-96,175 L-94,175 L-94,177 L-91,178 L-91,179 L-83,179 L-78,182 L-80,188 L-81,194 L-79,194 L-79,192 L-77,192 L-73,196 L-66,196 L-66,198 L-75,198 L-75,200 L-66,200 L-66,201 L-76,201 L-76,199 L-80,199 L-80,195 L-82,195 L-82,191 L-94,191 L-94,189 L-96,189 L-97,181 L-100,179 L-100,175 L-105,174 L-106,171 L-116,171 L-116,165 L-118,165 L-118,151 L-114,151 L-114,129 L-110,129 L-110,103 L-108,103 L-108,101 L-106,101 L-106,89 L-104,89 L-104,87 L-102,87 L-102,81 L-100,81 L-100,75 L-98,75 L-98,55 L-96,55 L-96,53 L-94,53 L-94,47 L-92,47 L-92,29 L-90,29 L-90,27 L-72,27 L-72,25 L-65,25 L-65,20 L-59,21 L-58,19 L-61,18 L-61,16 L-51,16 L-38,15 L-38,13 L-36,13 L-36,10 L-26,9 L-10,9 L-8,5 L-6,5 L-5,10 L-2,10 L0,5 Z M-80,57 Z M-94,73 Z M-74,39 Z " fill="#3824EF" transform="translate(432,359)"/>
<path d="M0,0 L3,0 L5,2 L19,2 L23,1 L23,3 L40,6 L41,9 L45,11 L46,19 L48,19 L48,22 L53,21 L55,26 L59,27 L61,30 L62,24 L64,24 L64,31 L66,32 L66,34 L64,34 L65,37 L70,36 L67,36 L67,34 L72,34 L72,39 L89,39 L89,41 L91,41 L91,47 L95,47 L95,49 L101,49 L103,52 L109,53 L109,55 L111,55 L111,59 L115,61 L115,63 L117,63 L117,73 L116,73 L116,64 L114,64 L114,72 L113,72 L111,64 L105,61 L95,62 L90,60 L89,57 L87,55 L88,51 L74,50 L73,52 L71,45 L68,47 L62,46 L62,44 L51,43 L47,43 L47,40 L44,39 L44,37 L47,36 L47,38 L55,38 L56,34 L57,32 L52,33 L52,30 L48,29 L44,30 L41,30 L39,29 L36,27 L38,23 L36,24 L21,25 L17,26 L9,26 L9,24 L1,26 L-5,27 L-5,23 L-7,21 L-2,17 L0,17 L-1,10 L-7,10 L-8,8 L-11,6 L-5,6 L-5,8 L-1,6 Z " fill="#3529F2" transform="translate(609,391)"/>
<path d="M0,0 L10,0 L10,2 L22,2 L22,4 L26,4 L26,6 L45,6 L49,6 L54,6 L54,8 L56,8 L56,16 L62,16 L62,32 L60,32 L60,34 L52,34 L52,32 L38,32 L38,34 L48,34 L48,36 L58,36 L58,42 L44,42 L44,48 L43,48 L43,41 L30,42 L24,41 L24,39 L19,40 L19,37 L17,37 L17,42 L16,42 L16,36 L20,36 L20,34 L32,34 L32,32 L28,32 L28,26 L52,26 L52,24 L34,24 L34,22 L30,22 L30,24 L24,24 L24,20 L16,20 L16,18 L4,18 L4,16 L-4,16 L-4,14 L-6,14 L-6,16 L-12,16 L-12,14 L-24,14 L-24,8 L-16,8 L-16,6 L-12,6 L-12,4 L-10,4 L-10,2 L0,2 Z " fill="#070425" transform="translate(522,244)"/>
<path d="M0,0 L14,0 L14,2 L16,2 L16,10 L18,10 L18,14 L20,14 L20,18 L22,18 L22,24 L18,24 L18,26 L14,26 L14,30 L12,30 L14,35 L16,36 L16,38 L18,38 L18,40 L26,40 L26,42 L28,42 L28,46 L34,46 L34,52 L28,52 L28,64 L26,64 L26,72 L18,72 L18,66 L20,66 L20,64 L16,64 L16,60 L2,60 L2,54 L18,54 L18,52 L8,52 L4,47 L2,46 L2,36 L5,33 L6,30 L4,30 L4,28 L0,28 L0,30 L-8,30 L-8,26 L-10,26 L-10,28 L-16,28 L-16,18 L-8,18 L-8,14 L-14,14 L-14,12 L-20,12 L-20,16 L-26,16 L-26,10 L-24,10 L-24,8 L-28,8 L-28,2 L-18,2 L-18,4 L-10,4 L-10,6 L-2,6 L-2,4 L0,4 Z " fill="#070423" transform="translate(630,278)"/>
<path d="M0,0 L6,0 L6,18 L24,18 L24,16 L33,16 L33,11 L35,11 L35,14 L40,13 L40,15 L59,15 L59,22 L62,22 L62,24 L66,24 L66,26 L74,26 L78,30 L78,36 L76,36 L76,44 L75,44 L75,37 L73,38 L61,38 L58,35 L58,31 L34,29 L24,28 L23,27 L7,26 L5,21 L3,21 L3,18 L1,18 L1,23 L4,23 L4,26 L-2,26 L-2,19 L-6,20 L-18,15 L-34,13 L-44,13 L-45,17 L-52,20 L-63,19 L-63,21 L-65,21 L-65,19 L-67,19 L-67,23 L-64,24 L-68,24 L-68,10 L-66,10 L-66,8 L-54,8 L-54,10 L-46,10 L-46,8 L0,8 Z " fill="#140C75" transform="translate(506,270)"/>
<path d="M0,0 L22,0 L30,3 L30,5 L40,6 L47,8 L49,14 L74,16 L81,18 L84,20 L98,22 L101,24 L102,31 L112,31 L118,34 L120,37 L120,48 L118,46 L113,44 L112,40 L103,40 L99,35 L86,31 L86,25 L66,23 L47,21 L46,16 L36,16 L28,14 L17,13 L16,9 L-7,10 L-16,11 L-20,10 L-20,13 L-24,15 L-35,14 L-35,16 L-41,16 L-40,21 L-33,21 L-32,19 L-32,23 L-40,24 L-42,31 L-43,31 L-43,24 L-45,24 L-45,39 L-46,39 L-46,23 L-44,23 L-44,21 L-42,21 L-42,15 L-36,15 L-36,13 L-27,13 L-27,6 L-23,6 L-23,4 L-6,4 L-6,1 Z " fill="#1D0EB7" transform="translate(464,293)"/>
<path d="M0,0 L4,1 L5,4 L13,5 L13,7 L15,7 L15,14 L17,21 L21,20 L24,23 L25,25 L32,28 L34,29 L36,33 L40,34 L49,35 L55,36 L65,37 L67,38 L66,40 L64,40 L63,45 L72,46 L72,47 L87,48 L87,49 L65,50 L31,50 L31,52 L27,52 L27,50 L22,50 L22,48 L24,47 L23,43 L21,43 L18,39 L14,35 L12,30 L8,27 L8,25 L5,24 L4,20 L-1,18 L-5,12 L-6,2 L0,2 Z " fill="#5544F1" transform="translate(377,603)"/>
<path d="M0,0 L3,1 L2,6 L8,5 L8,7 L4,8 L3,15 L2,17 L4,17 L4,19 L11,22 L14,24 L3,24 L3,22 L-2,24 L-1,19 L-6,24 L-10,28 L-17,28 L-17,30 L-15,31 L-19,35 L-19,39 L-28,40 L-38,40 L-38,43 L-40,43 L-40,45 L-42,46 L-54,47 L-63,46 L-63,48 L-57,48 L-60,49 L-61,52 L-67,50 L-67,55 L-68,55 L-68,49 L-64,49 L-64,45 L-56,45 L-56,39 L-52,37 L-52,35 L-44,35 L-44,33 L-42,33 L-42,31 L-38,31 L-38,29 L-35,29 L-35,26 L-33,26 L-31,22 L-28,18 L-24,19 L-23,14 L-25,14 L-25,12 L-21,12 L-18,9 L-10,7 L-6,7 L-6,3 Z M5,22 Z M14,22 Z " fill="#3420F4" transform="translate(434,329)"/>
<path d="M0,0 L2,0 L3,7 L3,21 L4,30 L4,49 L11,51 L10,54 L4,55 L2,59 L-3,60 L-3,64 L3,64 L8,58 L10,59 L11,64 L11,65 L19,66 L17,69 L10,69 L11,73 L13,73 L13,75 L16,76 L16,77 L24,77 L29,80 L27,86 L26,92 L28,92 L28,90 L30,90 L34,94 L41,94 L41,96 L32,96 L32,98 L41,98 L41,99 L31,99 L31,97 L27,97 L27,93 L25,93 L25,89 L13,89 L13,87 L11,87 L10,79 L7,77 L7,73 L2,72 L1,69 L-9,69 L-9,63 L-11,63 L-11,49 L-7,49 L-7,27 L-2,27 L-2,2 L0,2 Z " fill="#4130EF" transform="translate(325,461)"/>
<path d="M0,0 L6,0 L6,2 L8,2 L8,6 L14,6 L14,8 L22,8 L22,14 L26,14 L26,6 L36,6 L36,8 L38,8 L39,14 L43,15 L44,20 L40,20 L40,22 L30,22 L30,30 L28,30 L28,32 L26,32 L26,40 L20,40 L20,36 L16,36 L16,40 L10,40 L10,34 L14,34 L14,32 L12,32 L12,26 L0,26 L0,22 L-6,22 L-6,16 L8,16 L8,14 L0,14 Z " fill="#050118" transform="translate(666,316)"/>
<path d="M0,0 L11,0 L22,1 L33,7 L33,9 L43,10 L45,12 L61,14 L78,14 L80,18 L88,16 L88,19 L95,19 L95,21 L97,21 L97,23 L106,24 L106,26 L111,28 L113,30 L112,36 L116,37 L116,43 L114,42 L114,40 L108,38 L98,37 L97,30 L80,27 L76,24 L58,22 L45,21 L42,14 L26,11 L26,9 L18,7 L-10,7 L-10,10 L-23,9 L-22,7 L-12,7 L-12,4 L-7,1 Z " fill="#180D94" transform="translate(468,287)"/>
<path d="M0,0 L7,1 L17,1 L18,6 L26,6 L27,10 L30,10 L29,2 L33,3 L37,6 L41,7 L42,13 L45,13 L45,15 L43,16 L42,20 L40,20 L40,22 L44,21 L44,23 L42,23 L42,25 L47,26 L48,25 L45,25 L45,23 L50,23 L50,28 L55,28 L55,40 L45,40 L45,38 L43,38 L42,42 L42,38 L40,38 L40,42 L36,41 L36,36 L35,33 L28,33 L27,32 L25,16 L8,13 L7,6 L0,5 L-1,2 Z " fill="#2619DF" transform="translate(557,338)"/>
<path d="M0,0 L10,0 L10,2 L22,2 L22,4 L26,4 L26,6 L45,6 L49,6 L54,6 L54,8 L56,8 L56,16 L62,16 L62,32 L61,32 L61,21 L56,20 L56,18 L52,18 L52,21 L39,21 L39,19 L36,19 L36,15 L34,15 L34,13 L21,14 L14,13 L12,14 L5,14 L4,12 L-9,12 L-14,11 L-23,11 L-24,14 L-24,8 L-16,8 L-16,6 L-12,6 L-12,4 L-10,4 L-10,2 L0,2 Z " fill="#04001B" transform="translate(522,244)"/>
<path d="M0,0 L4,1 L1,1 L1,3 L4,3 L3,7 L-2,8 L-5,18 L-7,20 L-8,27 L-4,27 L-3,30 L3,32 L3,35 L9,35 L13,41 L17,43 L19,47 L21,48 L21,50 L26,52 L29,60 L33,61 L34,66 L36,66 L37,69 L40,71 L35,71 L35,73 L40,73 L40,74 L34,74 L30,70 L28,65 L22,60 L22,54 L16,54 L16,52 L14,52 L14,48 L10,48 L10,44 L8,44 L8,48 L2,48 L2,46 L-2,46 L-8,39 L-10,38 L-10,32 L-14,32 L-14,30 L-20,30 L-20,24 L-18,24 L-18,14 L-16,14 L-16,10 L-14,10 L-14,4 L-10,4 L-10,2 L0,2 Z " fill="#4E3CE9" transform="translate(364,580)"/>
<path d="M0,0 L10,1 L12,4 L11,9 L15,10 L15,6 L17,6 L17,10 L26,12 L26,16 L38,16 L38,18 L66,18 L66,20 L68,20 L68,24 L72,24 L72,26 L74,26 L74,30 L76,30 L76,34 L84,34 L84,42 L90,42 L90,44 L92,44 L92,52 L94,52 L94,54 L100,54 L100,60 L99,60 L99,55 L94,55 L94,57 L97,57 L96,59 L90,58 L91,55 L93,55 L93,53 L90,52 L91,45 L89,45 L89,52 L86,50 L86,48 L82,47 L80,43 L75,43 L75,40 L73,40 L70,31 L67,28 L52,25 L50,24 L50,22 L46,24 L31,24 L30,21 L27,21 L27,27 L22,29 L23,22 L24,18 L19,16 L19,18 L15,19 L13,14 L15,11 L11,13 L10,17 L7,16 L7,11 L0,15 L-7,14 L-4,13 L-4,9 L-2,9 L-2,11 L1,11 L-1,7 L-1,3 Z " fill="#2F1EEB" transform="translate(582,370)"/>
<path d="M0,0 L6,2 L7,5 L8,2 L10,2 L10,11 L12,11 L11,32 L10,35 L12,35 L12,45 L10,50 L6,52 L3,52 L1,56 L-3,60 L-7,63 L-11,62 L-11,60 L-1,55 L-1,52 L-3,51 L-3,46 L1,44 L1,37 L4,37 L5,34 L8,34 L8,28 L9,26 L4,28 L1,35 L-1,35 L-1,38 L-7,39 L-8,37 L-4,35 L-1,28 L1,26 L2,14 L0,14 L0,11 L-7,11 L-7,9 L-14,9 L-16,10 L-18,7 L-23,6 L-23,8 L-27,8 L-28,13 L-32,15 L-34,16 L-35,11 L-34,7 L-23,3 L-22,1 L-19,1 L-18,3 L-4,2 Z M-4,51 Z " fill="#4F4CF2" transform="translate(715,453)"/>
<path d="M0,0 L1,4 L3,4 L3,24 L1,24 L1,34 L3,34 L3,40 L1,40 L1,46 L-1,46 L-1,50 L-3,50 L-3,52 L-8,56 L-9,58 L-7,58 L-7,64 L-9,64 L-9,66 L-15,66 L-15,68 L-17,68 L-17,70 L-19,70 L-19,74 L-21,74 L-21,80 L-23,80 L-21,85 L-17,88 L-17,92 L-15,92 L-16,94 L-21,93 L-18,92 L-18,89 L-24,89 L-24,87 L-32,87 L-33,82 L-31,80 L-26,78 L-25,70 L-23,66 L-26,65 L-24,64 L-25,58 L-23,58 L-23,52 L-18,50 L-14,47 L-12,47 L-10,43 L-9,41 L-2,38 L0,24 L-2,24 L-2,34 L-3,34 L-3,23 L-2,21 L-1,4 Z " fill="#4940EE" transform="translate(727,464)"/>
<path d="M0,0 L10,0 L26,2 L38,7 L42,7 L42,14 L48,14 L48,11 L45,11 L45,6 L47,6 L47,9 L50,8 L51,14 L67,14 L68,15 L86,17 L102,18 L104,21 L102,21 L103,25 L119,25 L119,32 L124,34 L124,40 L126,40 L126,42 L130,42 L130,48 L129,48 L129,43 L127,43 L127,47 L125,47 L123,43 L125,43 L125,41 L122,40 L123,35 L119,36 L112,31 L112,29 L103,28 L103,26 L101,26 L101,24 L94,24 L94,21 L86,23 L84,20 L67,20 L51,18 L49,16 L38,15 L38,12 L28,7 L17,6 L6,6 L-1,7 L-6,9 L-6,12 L-16,13 L-10,14 L-10,15 L-19,16 L-21,15 L-21,17 L-25,17 L-25,24 L-26,24 L-26,16 L-22,16 L-22,14 L-20,14 L-20,11 L-23,11 L-23,7 L-21,7 L-21,9 L-19,9 L-19,7 L-8,7 L-4,5 L-1,5 Z " fill="#160D87" transform="translate(462,282)"/>
<path d="M0,0 L4,2 L4,4 L13,3 L14,2 L11,2 L11,0 L16,0 L16,5 L33,5 L33,7 L35,7 L35,13 L39,13 L39,15 L45,15 L47,18 L53,19 L53,21 L55,21 L55,25 L59,27 L59,29 L61,29 L61,39 L60,39 L60,30 L58,30 L58,38 L57,38 L55,30 L49,27 L39,28 L34,26 L33,23 L31,21 L32,17 L18,16 L17,18 L15,11 L12,13 L6,12 L6,10 L-5,9 L-9,9 L-9,6 L-12,5 L-12,3 L-9,2 L-9,4 L-1,4 Z " fill="#413CF6" transform="translate(665,425)"/>
<path d="M0,0 L1,4 L5,4 L9,9 L11,10 L11,14 L13,14 L13,42 L5,42 L5,44 L3,44 L3,52 L1,52 L1,54 L-7,61 L-9,64 L-15,64 L-15,66 L-23,66 L-23,68 L-29,68 L-29,66 L-31,67 L-38,67 L-38,69 L-40,69 L-40,67 L-44,67 L-45,63 L-43,63 L-42,58 L-39,54 L-31,53 L-29,56 L-34,58 L-33,61 L-11,62 L-15,61 L-15,59 L-13,59 L-13,54 L-10,50 L-7,50 L-7,48 L-5,48 L-4,37 L-1,32 L3,35 L3,40 L12,41 L12,15 L10,15 L10,39 L5,39 L9,38 L8,16 L3,13 L3,10 L1,10 L2,7 L4,7 L4,5 L-2,6 L-2,4 L0,4 Z " fill="#5346EE" transform="translate(713,558)"/>
<path d="M0,0 L10,1 L10,8 L7,13 L3,14 L3,16 L7,17 L3,22 L7,22 L7,25 L9,26 L8,28 L4,30 L0,29 L-1,28 L0,15 L-6,18 L-13,19 L-15,18 L-16,20 L-20,22 L-24,22 L-24,20 L-32,21 L-32,17 L-38,17 L-36,13 L-36,10 L-26,9 L-10,9 L-8,5 L-6,5 L-5,10 L-2,10 L0,5 Z " fill="#3827F4" transform="translate(432,359)"/>
<path d="M0,0 L4,0 L4,2 L1,5 L3,5 L4,8 L9,11 L9,33 L10,34 L10,10 L12,10 L12,36 L5,36 L3,35 L3,30 L-1,28 L-3,33 L-4,41 L-5,43 L-7,43 L-7,45 L-10,45 L-12,49 L-15,50 L-19,49 L-19,47 L-11,43 L-9,43 L-10,37 L-7,37 L-9,36 L-9,33 L-7,33 L-7,26 L-5,23 L-5,14 L-7,14 L-7,10 L-13,11 L-13,5 L-15,1 L-11,1 L-8,7 L-4,9 L-2,7 L-2,5 L0,5 L-1,1 Z M-20,49 Z " fill="#5047F0" transform="translate(713,563)"/>
<path d="M0,0 L14,0 L14,2 L16,2 L16,10 L18,10 L18,14 L20,14 L20,18 L22,18 L22,24 L18,24 L18,26 L14,25 L17,25 L17,23 L13,22 L10,23 L10,21 L5,21 L3,18 L3,11 L7,10 L6,8 L-1,5 L-1,7 L-10,7 L-10,9 L-8,9 L-8,13 L-8,14 L-14,14 L-14,12 L-20,12 L-20,16 L-26,16 L-26,10 L-24,10 L-24,8 L-28,8 L-28,2 L-18,2 L-18,4 L-10,4 L-10,6 L-2,6 L-2,4 L0,4 Z " fill="#06031D" transform="translate(630,278)"/>
<path d="M0,0 L14,0 L30,3 L34,4 L34,6 L32,6 L32,8 L44,8 L46,9 L46,11 L22,11 L6,9 L-10,10 L-26,10 L-24,9 L-22,4 L-24,4 L-24,2 L-7,1 Z " fill="#210FD3" transform="translate(466,306)"/>
<path d="M0,0 L16,0 L15,2 L11,4 L10,6 L8,6 L8,8 L4,8 L4,10 L2,10 L1,16 L0,20 L-12,23 L-13,26 L-17,25 L-17,27 L-15,27 L-16,32 L-20,31 L-22,35 L-25,39 L-27,39 L-28,42 L-28,40 L-32,40 L-32,34 L-28,34 L-28,28 L-22,28 L-22,26 L-18,26 L-18,24 L-16,24 L-16,22 L-18,22 L-18,18 L-22,18 L-22,12 L-18,12 L-18,10 L-12,10 L-10,15 L-7,16 L-7,1 L-5,1 L-4,6 L-2,1 Z " fill="#2B18DC" transform="translate(426,316)"/>
<path d="M0,0 L57,0 L61,2 L62,4 L67,3 L74,5 L74,8 L76,9 L74,9 L74,11 L77,12 L73,12 L73,10 L61,10 L61,8 L31,8 L31,6 L1,6 L1,4 L-3,3 L1,3 Z " fill="#4D3BEA" transform="translate(407,652)"/>
<path d="M0,0 L7,2 L8,6 L13,5 L14,9 L23,11 L24,16 L24,27 L23,35 L15,35 L15,29 L17,29 L17,27 L13,27 L13,23 L-1,23 L-1,17 L15,17 L15,15 L5,15 L0,9 Z " fill="#09052F" transform="translate(633,315)"/>
<path d="M0,0 L18,0 L18,1 L3,1 L2,21 L1,24 L2,27 L-1,29 L-2,36 L-3,41 L0,42 L-2,46 L-4,58 L-5,62 L-9,63 L-11,70 L-12,75 L-13,77 L-15,77 L-15,75 L-17,75 L-17,77 L-19,77 L-19,102 L-20,102 L-20,76 L-18,76 L-18,74 L-16,74 L-16,62 L-14,62 L-14,60 L-12,60 L-12,54 L-10,54 L-10,48 L-8,48 L-8,28 L-6,28 L-6,26 L-4,26 L-4,20 L-2,20 L-2,2 L0,2 Z M-4,46 Z " fill="#3927F2" transform="translate(342,386)"/>
<path d="M0,0 L3,1 L1,7 L-4,6 L-4,9 L-6,9 L-7,14 L-2,14 L-3,18 L-6,21 L-12,22 L-12,20 L-17,20 L-19,24 L-19,27 L-22,29 L-27,29 L-28,32 L-30,32 L-30,34 L-37,35 L-41,36 L-41,34 L-44,35 L-44,33 L-42,33 L-42,31 L-38,31 L-38,29 L-35,29 L-35,26 L-33,26 L-31,22 L-28,18 L-24,19 L-23,14 L-25,14 L-25,12 L-21,12 L-18,9 L-10,7 L-6,7 L-6,3 Z " fill="#311CED" transform="translate(434,329)"/>
<path d="M0,0 L10,3 L15,4 L15,7 L20,6 L22,11 L26,12 L28,15 L29,9 L31,9 L31,16 L33,17 L33,19 L31,19 L30,23 L27,23 L24,19 L24,17 L19,18 L19,15 L15,14 L11,15 L8,15 L6,14 L3,12 L5,8 L3,9 L-12,10 L-16,11 L-24,11 L-24,9 L-32,11 L-38,12 L-38,8 L-40,6 L-35,2 L-33,2 L-34,6 L-3,6 L-2,2 Z " fill="#362FF2" transform="translate(642,406)"/>
<path d="M0,0 L22,0 L30,3 L30,5 L40,6 L40,7 L24,7 L18,6 L0,6 L-3,7 L-4,9 L-12,11 L-20,10 L-20,13 L-24,15 L-35,14 L-35,16 L-41,16 L-40,21 L-33,21 L-32,19 L-32,23 L-40,24 L-42,31 L-43,31 L-43,24 L-45,24 L-45,39 L-46,39 L-46,23 L-44,23 L-44,21 L-42,21 L-42,15 L-36,15 L-36,13 L-27,13 L-27,6 L-23,6 L-23,4 L-6,4 L-6,1 Z " fill="#1E0EB3" transform="translate(464,293)"/>
<path d="M0,0 L12,0 L17,2 L17,4 L23,5 L30,7 L31,8 L31,1 L38,2 L38,0 L42,0 L42,2 L44,2 L44,4 L35,4 L35,13 L33,13 L33,15 L31,15 L31,23 L25,23 L25,19 L21,19 L21,23 L15,23 L15,17 L19,17 L19,15 L17,15 L17,9 L5,9 L5,5 L-1,5 Z " fill="#080327" transform="translate(661,333)"/>
<path d="M0,0 L21,0 L22,2 L32,2 L31,7 L23,7 L23,5 L9,5 L9,7 L19,7 L19,9 L29,9 L29,15 L15,15 L15,21 L14,21 L14,14 L1,15 L-5,14 L-5,12 L-10,13 L-10,10 L-12,10 L-12,15 L-13,15 L-13,9 L-9,9 L-9,7 L3,7 L3,4 L0,4 Z " fill="#0C073D" transform="translate(551,271)"/>
<path d="M0,0 L2,0 L2,3 L7,2 L7,4 L26,4 L26,11 L29,11 L29,13 L33,13 L33,15 L41,15 L45,19 L45,25 L44,25 L44,20 L38,21 L26,19 L24,15 L9,13 L8,11 L-20,11 L-20,10 L-9,10 L-9,8 L-27,8 L-27,7 L-9,7 L-9,5 L0,5 Z " fill="#120A69" transform="translate(539,281)"/>
<path d="M0,0 L10,0 L10,2 L20,2 L20,0 L49,0 L54,2 L63,4 L63,6 L61,6 L62,10 L59,11 L47,6 L31,4 L21,4 L20,8 L13,11 L2,10 L2,12 L0,12 L-2,6 L-2,2 L0,2 Z " fill="#140D78" transform="translate(441,279)"/>
<path d="M0,0 L2,1 L3,6 L3,7 L11,8 L9,11 L2,11 L3,15 L5,15 L5,17 L8,18 L8,19 L16,19 L21,22 L19,28 L18,34 L20,34 L20,32 L22,32 L26,36 L33,36 L33,38 L24,38 L24,40 L33,40 L33,41 L23,41 L23,39 L19,39 L19,35 L17,35 L17,31 L5,31 L5,29 L3,29 L2,21 L0,19 L-1,11 L-6,12 L-3,3 Z " fill="#4533DE" transform="translate(333,519)"/>
<path d="M0,0 L14,0 L14,6 L4,6 L4,10 L2,10 L2,12 L0,12 L0,16 L-24,16 L-24,8 L-16,8 L-16,6 L-10,6 L-10,4 L-4,4 L-4,2 L0,2 Z " fill="#040116" transform="translate(426,246)"/>
<path d="M0,0 L12,0 L12,2 L40,2 L40,4 L42,4 L42,8 L46,8 L46,10 L48,10 L48,14 L50,14 L50,18 L58,18 L58,26 L64,26 L64,28 L66,28 L66,36 L68,36 L68,38 L74,38 L74,44 L73,44 L73,39 L68,39 L68,41 L71,41 L70,43 L64,42 L65,39 L67,39 L67,37 L64,36 L65,29 L63,29 L63,36 L60,34 L60,32 L56,31 L54,27 L49,27 L49,24 L47,24 L44,15 L41,12 L35,10 L36,7 L26,6 L26,5 L36,5 L36,3 L12,3 L11,5 L0,4 L0,3 L11,3 L11,1 L0,1 Z " fill="#322BEE" transform="translate(608,386)"/>
<path d="M0,0 L2,2 L-4,7 L-14,12 L-20,17 L-21,15 L-29,18 L-32,21 L-35,20 L-37,28 L-33,29 L-33,32 L-30,33 L-29,40 L-27,43 L-27,47 L-32,47 L-32,44 L-38,43 L-39,39 L-43,39 L-43,32 L-41,30 L-38,20 L-32,18 L-31,15 L-34,15 L-34,13 L-29,11 L-29,13 L-23,12 L-21,9 L-13,7 L-11,5 L-5,5 L-5,2 Z " fill="#5541F9" transform="translate(399,568)"/>
<path d="M0,0 L2,0 L4,6 L5,5 L16,5 L19,6 L20,11 L21,15 L30,16 L36,15 L38,17 L33,20 L19,21 L18,18 L14,17 L11,16 L11,13 L6,14 L2,12 L2,14 L0,14 L-1,12 L-2,14 L-4,14 L-4,11 L-6,11 L-7,8 L-5,8 L-6,1 L-1,1 Z " fill="#4544F9" transform="translate(678,436)"/>
<path d="M0,0 L20,0 L28,1 L28,4 L34,5 L35,12 L38,13 L38,15 L44,15 L46,16 L46,18 L51,19 L51,22 L44,20 L44,18 L38,18 L38,16 L36,16 L36,14 L31,14 L31,12 L18,10 L18,8 L11,9 L7,7 L6,5 L0,5 Z " fill="#2011DF" transform="translate(512,318)"/>
<path d="M0,0 L26,0 L26,1 L15,2 L18,4 L14,4 L14,7 L20,8 L20,10 L6,9 L-6,10 L-8,11 L-14,11 L-17,13 L-19,13 L-26,14 L-30,15 L-29,13 L-27,13 L-27,11 L-18,9 L-18,7 L-16,7 L-14,1 Z " fill="#2B17ED" transform="translate(458,317)"/>
<path d="M0,0 L2,4 L35,5 L36,6 L51,7 L52,14 L68,14 L69,19 L68,21 L72,22 L72,28 L70,27 L70,25 L64,23 L54,22 L53,15 L36,12 L32,9 L14,7 L1,6 L0,5 Z " fill="#1B0FA7" transform="translate(512,302)"/>
<path d="M0,0 L22,0 L32,2 L35,11 L40,11 L40,13 L52,15 L54,17 L54,26 L52,24 L47,22 L46,18 L37,18 L33,13 L20,9 L20,3 L0,1 Z " fill="#1D10C0" transform="translate(530,315)"/>
<path d="M0,0 L6,0 L6,18 L5,18 L5,10 L3,10 L3,17 L-1,16 L0,18 L0,24 L4,24 L4,26 L-2,26 L-3,19 L-4,15 L-2,15 L-2,13 L-11,12 L-16,10 L-45,9 L-45,11 L-55,11 L-55,9 L-65,9 L-65,11 L-67,11 L-66,19 L-67,23 L-64,24 L-68,24 L-68,10 L-66,10 L-66,8 L-54,8 L-54,10 L-46,10 L-46,8 L0,8 Z " fill="#0F0B56" transform="translate(506,270)"/>
<path d="M0,0 L4,1 L8,4 L12,5 L13,11 L16,11 L16,13 L14,14 L13,18 L11,18 L11,20 L15,19 L15,21 L13,21 L13,23 L18,24 L19,23 L16,23 L16,21 L21,21 L21,26 L26,26 L26,38 L16,38 L16,37 L25,37 L25,35 L20,35 L18,27 L7,22 L4,10 L3,9 L3,4 L1,4 Z " fill="#2416BF" transform="translate(586,340)"/>
<path d="M0,0 L10,0 L12,4 L12,10 L4,10 L4,12 L6,12 L6,18 L0,18 L0,12 L-2,12 L-2,18 L-8,18 L-8,12 L-4,12 L-4,10 L-6,10 L-6,8 L-8,8 L-8,2 L0,2 Z " fill="#040523" transform="translate(484,250)"/>
<path d="M0,0 L10,1 L10,8 L7,13 L3,14 L3,16 L7,17 L3,22 L7,22 L7,25 L9,26 L8,28 L4,30 L0,29 L-1,28 L0,15 L-6,18 L-10,18 L-9,14 L-6,11 L-2,10 L0,5 Z " fill="#3E2DF5" transform="translate(432,359)"/>
<path d="M0,0 L5,3 L16,2 L12,3 L12,5 L22,5 L22,6 L12,6 L12,8 L2,8 L2,6 L0,6 L0,8 L-12,8 L-12,10 L-14,10 L-14,12 L-20,12 L-20,10 L-26,10 L-26,12 L-40,12 L-40,14 L-44,13 L-41,13 L-41,11 L-44,10 L-41,10 L-41,8 L-26,7 L-26,9 L-20,9 L-20,7 L-14,5 L-6,1 L-6,4 L-3,4 L-2,2 Z " fill="#4B3AD9" transform="translate(646,630)"/>
<path d="M0,0 L5,1 L8,3 L8,5 L3,5 L3,7 L10,7 L11,4 L11,8 L3,8 L3,10 L-5,10 L-5,14 L-9,18 L-25,18 L-25,20 L-27,20 L-27,22 L-35,22 L-35,24 L-37,24 L-37,28 L-39,28 L-39,30 L-43,29 L-40,29 L-39,24 L-39,18 L-27,17 L-25,16 L-11,16 L-25,15 L-25,14 L-10,13 L-8,3 L-6,1 L-2,2 L-1,4 Z " fill="#4E3CE2" transform="translate(591,640)"/>
<path d="M0,0 L8,0 L8,2 L26,2 L26,8 L16,8 L16,10 L12,10 L12,16 L6,16 L6,10 L2,10 L2,8 L-2,8 L-2,2 L0,2 Z " fill="#0A0736" transform="translate(366,278)"/>
<path d="M0,0 L14,0 L19,2 L20,3 L36,4 L37,5 L53,7 L55,7 L54,20 L53,20 L53,13 L51,14 L39,14 L36,11 L36,7 L12,5 L2,4 Z " fill="#13097B" transform="translate(528,294)"/>
<path d="M0,0 L4,3 L17,5 L16,10 L24,12 L24,13 L17,15 L14,17 L8,18 L4,22 L-2,20 L0,16 L4,14 L6,10 L8,10 L8,8 L0,8 L0,6 L-2,6 L-2,2 L0,2 Z " fill="#4F3CEE" transform="translate(370,560)"/>
<path d="M0,0 L5,2 L14,1 L19,3 L23,4 L23,6 L26,6 L27,3 L30,6 L49,7 L49,8 L29,8 L29,10 L50,10 L50,11 L28,11 L24,7 L24,11 L18,11 L16,7 L2,7 L2,5 L0,5 L0,7 L-6,7 L-6,5 L-14,5 L-14,4 L-6,4 L-5,1 Z " fill="#4635DC" transform="translate(498,661)"/>
<path d="M0,0 L26,0 L26,3 L28,5 L54,7 L54,8 L30,8 L14,6 L-2,7 L-14,7 L-14,5 L-4,4 Z " fill="#2310DD" transform="translate(458,309)"/>
<path d="M0,0 L4,0 L7,6 L10,7 L10,10 L14,12 L15,15 L15,24 L12,28 L12,36 L10,42 L8,42 L8,44 L5,44 L3,48 L0,49 L-4,48 L-4,46 L4,42 L6,42 L5,36 L8,36 L6,35 L6,32 L8,32 L8,25 L10,22 L10,13 L8,13 L8,9 L2,10 L2,4 Z M-5,48 Z " fill="#574BF4" transform="translate(698,564)"/>
<path d="M0,0 L5,1 L3,2 L3,4 L0,6 L-15,6 L-15,8 L-13,8 L-15,13 L-17,14 L-25,14 L-26,12 L-33,13 L-34,12 L-34,7 L-28,7 L-28,5 L-17,5 L-13,4 L-13,1 L-5,1 Z " fill="#2615BD" transform="translate(457,302)"/>
<path d="M0,0 L14,0 L14,2 L16,2 L16,10 L18,10 L18,14 L20,14 L20,18 L22,18 L22,24 L18,24 L18,26 L14,25 L17,25 L17,23 L13,22 L10,23 L11,16 L10,11 L11,6 L12,4 L4,5 L3,1 L1,1 L0,4 Z " fill="#040118" transform="translate(630,278)"/>
<path d="M0,0 L5,0 L6,3 L17,4 L17,7 L18,6 L42,6 L43,10 L41,13 L32,12 L30,11 L30,9 L26,11 L11,11 L10,8 L7,8 L7,14 L2,16 L3,9 L4,5 L0,2 Z " fill="#2E21F1" transform="translate(602,383)"/>
<path d="M0,0 L17,0 L18,1 L24,1 L25,3 L24,17 L16,17 L16,11 L18,11 L18,9 L14,9 L14,5 L0,5 Z " fill="#0E0944" transform="translate(632,333)"/>
<path d="M0,0 L6,0 L6,4 L8,4 L8,10 L10,10 L10,12 L12,12 L12,18 L8,18 L8,26 L7,26 L7,18 L4,18 L4,16 L-1,14 L-4,11 L-9,10 L-6,9 L-6,7 L-10,6 L-6,6 L-6,4 L0,4 Z " fill="#190E8E" transform="translate(602,324)"/>
<path d="M0,0 L4,1 L1,1 L1,22 L3,22 L3,3 L4,3 L4,23 L1,25 L-3,23 L-3,35 L-1,35 L-1,25 L0,25 L1,34 L3,30 L6,30 L7,21 L9,20 L9,28 L8,31 L5,31 L4,37 L10,37 L9,43 L14,41 L15,42 L15,50 L14,46 L9,45 L8,42 L-2,42 L-2,36 L-4,36 L-4,22 L0,22 Z " fill="#4231EB" transform="translate(318,488)"/>
<path d="M0,0 L16,0 L17,3 L32,5 L46,7 L47,12 L66,13 L66,14 L48,14 L46,13 L34,12 L34,10 L36,10 L36,8 L29,7 L16,5 L2,5 L-7,6 L-6,4 L-4,4 L-4,2 Z " fill="#2010C7" transform="translate(464,302)"/>
<path d="M0,0 L16,0 L16,2 L18,2 L18,8 L22,8 L22,10 L28,10 L30,13 L36,14 L35,16 L27,16 L21,14 L16,13 L16,11 L3,9 L0,4 L13,2 L0,1 Z " fill="#3E39EE" transform="translate(682,430)"/>
<path d="M0,0 L12,1 L12,3 L-2,4 L-28,4 L-30,10 L-32,10 L-32,12 L-35,14 L-41,14 L-41,16 L-43,17 L-44,22 L-46,22 L-45,16 L-44,12 L-42,12 L-42,10 L-38,10 L-38,8 L-36,8 L-34,4 L-30,2 Z " fill="#2916E4" transform="translate(472,314)"/>
<path d="M0,0 L22,0 L30,3 L30,5 L40,6 L40,7 L24,7 L18,6 L18,3 L-4,3 L-5,6 L-7,7 L-24,8 L-25,12 L-25,6 L-23,6 L-23,4 L-6,4 L-6,1 Z " fill="#1B0FA5" transform="translate(464,293)"/>
<path d="M0,0 L1,4 L5,4 L9,9 L11,10 L11,14 L13,14 L13,42 L5,42 L5,44 L3,44 L3,52 L1,52 L0,54 L-1,52 L-1,43 L2,41 L2,43 L4,43 L3,40 L12,41 L12,15 L10,15 L10,39 L5,39 L9,38 L8,16 L3,13 L3,10 L1,10 L2,7 L4,7 L4,5 L-2,6 L-2,4 L0,4 Z " fill="#4138CA" transform="translate(713,558)"/>
<path d="M0,0 L21,0 L22,2 L32,2 L31,7 L23,7 L23,5 L9,5 L9,7 L19,7 L19,8 L3,9 L-9,8 L-9,7 L3,7 L3,4 L0,4 Z " fill="#0A0734" transform="translate(551,271)"/>
<path d="M0,0 L8,0 L8,1 L1,1 L1,3 L8,3 L14,5 L14,8 L12,8 L12,10 L10,11 L-2,12 L-11,11 L-11,13 L-5,13 L-8,14 L-9,17 L-15,15 L-15,20 L-16,20 L-16,14 L-12,14 L-12,10 L-4,10 L-4,4 L0,2 Z " fill="#301FE8" transform="translate(382,364)"/>
<path d="M0,0 L26,0 L26,8 L18,8 L18,6 L0,6 Z " fill="#05041E" transform="translate(376,262)"/>
<path d="M0,0 L2,2 L-4,7 L-14,12 L-20,17 L-21,15 L-29,18 L-32,21 L-35,20 L-38,30 L-40,30 L-39,23 L-37,19 L-32,18 L-31,15 L-34,15 L-34,13 L-29,11 L-29,13 L-23,12 L-21,9 L-13,7 L-11,5 L-5,5 L-5,2 Z " fill="#5341F0" transform="translate(399,568)"/>
<path d="M0,0 L3,0 L4,2 L17,3 L21,5 L22,10 L15,10 L15,8 L8,8 L6,9 L4,6 L-1,5 L-1,7 L-5,7 L-6,12 L-10,14 L-12,15 L-13,10 L-12,6 L-1,2 Z " fill="#504DFA" transform="translate(693,454)"/>
<path d="M0,0 L2,0 L4,6 L7,18 L17,22 L19,28 L18,31 L8,26 L3,23 L2,16 L1,13 L2,9 L-3,8 L-1,7 Z " fill="#2717D0" transform="translate(587,344)"/>
<path d="M0,0 L6,1 L13,3 L17,8 L26,9 L28,13 L33,15 L34,18 L33,20 L31,20 L30,22 L30,20 L25,20 L24,14 L22,14 L22,12 L16,12 L14,8 L10,7 L0,6 Z " fill="#1E15C9" transform="translate(550,324)"/>
<path d="M0,0 L6,0 L6,6 L4,6 L6,9 L6,18 L-8,18 L-8,12 L-2,12 L-2,4 L0,4 Z " fill="#060217" transform="translate(818,654)"/>
<path d="M0,0 L2,0 L1,7 L8,8 L8,11 L10,11 L10,13 L7,13 L7,16 L-1,16 L-1,12 L-3,12 L-3,14 L-9,14 L-9,4 L0,4 Z " fill="#070528" transform="translate(623,292)"/>
<path d="M0,0 L4,3 L5,1 L6,5 L3,5 L2,7 L1,5 L-4,7 L-17,7 L-18,10 L-21,11 L-14,12 L-13,15 L-14,17 L-18,18 L-18,15 L-23,16 L-24,15 L-30,15 L-30,13 L-24,12 L-24,10 L-19,6 L-16,3 L-12,4 L-11,1 L-1,1 Z " fill="#402DF5" transform="translate(578,401)"/>
<path d="M0,0 L2,0 L2,2 L-4,4 L-8,9 L-13,14 L-16,14 L-16,16 L-19,18 L-20,24 L-28,29 L-31,29 L-31,27 L-34,28 L-34,26 L-32,26 L-32,24 L-28,24 L-28,22 L-25,22 L-25,19 L-23,19 L-21,15 L-18,11 L-14,12 L-13,7 L-15,7 L-15,5 L-11,5 L-8,2 Z " fill="#2D1AE7" transform="translate(424,336)"/>
<path d="M0,0 L2,0 L1,4 L39,4 L40,6 L38,7 L23,8 L19,9 L11,9 L11,7 L3,9 L-3,10 L-3,6 L-5,4 Z " fill="#3D31F4" transform="translate(607,408)"/>
<path d="M0,0 L12,0 L12,2 L40,2 L40,4 L42,4 L42,8 L46,8 L46,10 L48,10 L48,14 L50,14 L49,18 L49,15 L47,15 L46,17 L41,12 L35,10 L36,7 L26,6 L26,5 L36,5 L36,3 L12,3 L11,5 L0,4 L0,3 L11,3 L11,1 L0,1 Z " fill="#281ED4" transform="translate(608,386)"/>
<path d="M0,0 L9,0 L12,1 L12,5 L16,7 L16,9 L18,9 L18,19 L17,19 L17,10 L15,10 L15,18 L14,18 L12,10 L6,7 L-4,8 L-9,6 L-9,4 L0,3 Z " fill="#4443F0" transform="translate(708,445)"/>
<path d="M0,0 L24,1 L23,7 L-1,7 Z " fill="#03031B" transform="translate(403,255)"/>
<path d="M0,0 L5,2 L7,9 L8,17 L6,22 L4,22 L1,18 L-3,14 L-4,8 L-3,5 L0,5 Z " fill="#5143F0" transform="translate(394,624)"/>
<path d="M0,0 L16,0 L18,2 L19,7 L44,9 L51,11 L54,14 L44,14 L44,12 L40,14 L36,13 L36,10 L19,10 L15,5 L10,4 L10,2 L0,1 Z " fill="#1C0DAE" transform="translate(494,300)"/>
<path d="M0,0 L6,3 L6,25 L7,26 L7,2 L9,2 L9,28 L2,28 L0,27 L0,21 L2,21 L2,19 L4,19 L3,5 L0,6 Z " fill="#4E43F0" transform="translate(716,571)"/>
<path d="M0,0 L14,0 L13,11 L7,11 L7,7 L3,7 L3,11 L-3,11 L-3,5 L1,5 Z " fill="#0B0530" transform="translate(679,345)"/>
<path d="M0,0 L3,3 L-2,5 L-1,8 L3,8 L3,12 L1,12 L1,14 L-6,14 L-6,16 L-8,16 L-8,14 L-12,14 L-13,10 L-11,10 L-10,5 L-7,1 Z " fill="#594AF1" transform="translate(681,611)"/>
<path d="M0,0 L2,0 L4,6 L5,5 L16,5 L16,6 L9,6 L7,12 L4,13 L2,12 L2,14 L0,14 L-1,12 L-2,14 L-4,14 L-4,11 L-6,11 L-7,8 L-5,8 L-6,1 L-1,1 Z " fill="#4442F8" transform="translate(678,436)"/>
<path d="M0,0 L2,0 L2,3 L7,2 L7,4 L26,4 L26,8 L24,8 L23,10 L-8,6 L-8,8 L-27,8 L-27,7 L-9,7 L-9,5 L0,5 Z " fill="#100A50" transform="translate(539,281)"/>
<path d="M0,0 L10,0 L10,3 L25,4 L28,8 L42,10 L43,14 L28,14 L27,9 L8,5 L8,3 L0,1 Z " fill="#1D1296" transform="translate(486,293)"/>
<path d="M0,0 L1,4 L3,4 L3,24 L1,24 L1,34 L3,34 L3,40 L1,40 L1,46 L0,46 L0,40 L-3,39 L-1,34 L0,24 L-2,24 L-2,34 L-3,34 L-3,23 L-2,21 L-1,4 Z " fill="#4945DE" transform="translate(727,464)"/>
<path d="M0,0 L3,2 L3,4 L6,4 L7,1 L9,3 L9,15 L4,17 L1,24 L-1,24 L-1,27 L-7,28 L-8,26 L-4,24 L-1,17 L1,15 L2,3 L0,3 Z " fill="#5655F7" transform="translate(715,464)"/>
<path d="M0,0 L10,0 L10,3 L17,3 L17,5 L13,5 L14,9 L8,9 L8,14 L2,14 L2,8 L4,8 L4,6 L0,6 Z " fill="#080421" transform="translate(602,280)"/>
<path d="M0,0 L7,1 L9,6 L10,9 L16,10 L23,13 L26,17 L25,19 L22,17 L11,14 L11,12 L6,11 L-7,11 L-7,9 L7,9 L7,6 L0,6 Z " fill="#07021F" transform="translate(667,323)"/>
<path d="M0,0 L1,3 L3,3 L4,1 L4,4 L8,5 L8,3 L12,4 L15,12 L19,13 L20,18 L22,18 L23,21 L26,23 L21,23 L21,25 L26,25 L26,26 L20,26 L16,22 L14,17 L8,12 L8,6 L2,6 L2,4 L0,4 Z " fill="#493AE1" transform="translate(378,628)"/>
<path d="M0,0 L1,4 L-1,4 L-1,10 L-3,10 L-1,15 L3,18 L3,22 L5,22 L4,24 L-1,23 L2,22 L2,19 L-4,19 L-4,17 L-12,17 L-13,12 L-11,10 L-6,8 L-6,3 L-3,3 L-2,1 L-2,3 L0,3 Z " fill="#4C3FEE" transform="translate(707,534)"/>
<path d="M0,0 L4,2 L4,4 L13,3 L14,2 L11,2 L11,0 L16,0 L17,5 L32,6 L30,8 L18,10 L19,13 L16,12 L16,10 L8,9 L7,6 L3,6 L2,4 L-1,3 Z " fill="#3E37F2" transform="translate(665,425)"/>
<path d="M0,0 L17,1 L31,3 L34,2 L34,5 L37,5 L37,7 L41,7 L41,9 L49,9 L49,10 L35,11 L31,6 L24,7 L24,5 L19,4 L-1,3 Z " fill="#12095E" transform="translate(531,287)"/>
<path d="M0,0 L2,0 L2,7 L4,8 L4,10 L2,10 L1,14 L-2,14 L-5,10 L-5,8 L-10,9 L-10,6 L-14,5 L-18,6 L-21,6 L-23,5 L-26,3 L-25,1 L-18,2 L-18,4 L-15,4 L-15,2 L-8,1 L-8,3 L-3,3 L-1,6 Z " fill="#3834F3" transform="translate(671,415)"/>
<path d="M0,0 L8,0 L8,8 L-4,8 L-4,10 L-10,10 L-10,4 L-8,4 L-8,2 L0,2 Z " fill="#0A0836" transform="translate(536,266)"/>
<path d="M0,0 L1,2 L5,3 L0,8 L-2,11 L-8,11 L-8,13 L-16,13 L-16,15 L-22,15 L-22,13 L-24,12 L-22,12 L-22,9 L-4,9 L-8,8 L-8,6 L-5,5 L-3,6 L-3,1 Z " fill="#5142DE" transform="translate(706,611)"/>
<path d="M0,0 L2,0 L3,7 L3,25 L2,29 L-2,30 L-3,27 L-2,2 L0,2 Z " fill="#3F2DEE" transform="translate(325,461)"/>
<path d="M0,0 L10,0 L10,6 L6,6 L6,8 L10,8 L10,14 L2,14 L2,12 L0,12 Z " fill="#2315AE" transform="translate(368,352)"/>
<path d="M0,0 L5,3 L16,2 L12,3 L12,5 L22,5 L22,6 L12,6 L12,8 L2,8 L2,6 L0,7 L-12,7 L-11,3 L-6,1 L-6,4 L-3,4 L-2,2 Z " fill="#4F3FE2" transform="translate(646,630)"/>
<path d="M0,0 L6,0 L6,6 L4,6 L4,10 L10,10 L10,16 L0,16 L0,12 L-2,12 L-2,6 L0,6 Z " fill="#050318" transform="translate(334,798)"/>
<path d="M0,0 L3,0 L3,7 L6,7 L6,11 L10,12 L10,14 L15,13 L21,15 L20,19 L23,20 L19,20 L19,16 L17,16 L17,20 L11,20 L11,18 L7,18 L1,11 L-1,10 L-1,4 L0,4 L0,9 L2,9 L2,3 L0,3 Z " fill="#4C38EC" transform="translate(355,608)"/>
<path d="M0,0 L2,0 L2,2 L18,2 L18,9 L23,11 L23,17 L25,17 L25,19 L29,19 L29,25 L28,25 L28,20 L26,20 L26,24 L24,24 L22,20 L24,20 L24,18 L21,17 L22,12 L18,13 L11,8 L11,6 L2,5 L2,3 L0,3 Z " fill="#190F8D" transform="translate(563,305)"/>
<path d="M0,0 L8,0 L8,2 L26,2 L26,8 L16,8 L16,7 L25,7 L25,3 L10,4 L15,5 L14,7 L3,7 L3,9 L6,10 L2,10 L2,8 L-2,8 L-2,2 L0,2 Z " fill="#07052F" transform="translate(366,278)"/>
<path d="M0,0 L5,1 L6,6 L9,7 L14,8 L14,9 L4,11 L-3,11 L-6,13 L-6,10 L-10,9 L-8,9 L-8,7 L-5,7 L-5,5 L-2,4 Z " fill="#5642F9" transform="translate(538,466)"/>
<path d="M0,0 L4,0 L4,2 L16,4 L18,6 L18,15 L16,13 L11,11 L10,7 L1,7 L-2,4 L-2,2 L0,2 Z " fill="#1E15C0" transform="translate(566,326)"/>
<path d="M0,0 L7,2 L8,6 L11,6 L11,9 L13,9 L13,13 L15,14 L6,14 L0,9 Z " fill="#070434" transform="translate(633,315)"/>
<path d="M0,0 L1,4 L-3,8 L-19,8 L-19,10 L-21,10 L-21,12 L-29,12 L-29,14 L-31,14 L-31,18 L-33,18 L-33,20 L-37,19 L-34,19 L-33,14 L-33,8 L-21,7 L-19,6 L-5,6 L-19,5 L-19,4 L0,3 Z " fill="#4233D4" transform="translate(585,650)"/>
<path d="M0,0 L20,0 L20,6 L0,6 Z " fill="#080523" transform="translate(366,800)"/>
<path d="M0,0 L2,1 L4,5 L8,6 L17,7 L23,8 L33,9 L35,10 L34,12 L17,12 L6,11 L1,8 Z " fill="#5A49F7" transform="translate(409,631)"/>
<path d="M0,0 L2,1 L3,6 L3,7 L11,8 L9,11 L2,11 L3,15 L5,15 L6,20 L1,20 L0,19 L-1,11 L-6,12 L-3,3 Z " fill="#4633F7" transform="translate(333,519)"/>
<path d="M0,0 L8,1 L8,3 L15,3 L13,4 L12,7 L8,9 L0,12 L-3,11 L-2,2 L0,2 Z " fill="#2616EC" transform="translate(514,326)"/>
<path d="M0,0 L9,0 L10,5 L18,5 L19,9 L21,10 L21,12 L15,13 L9,11 L9,6 L7,6 L7,4 L1,5 Z " fill="#2519D7" transform="translate(565,339)"/>
<path d="M0,0 L5,0 L9,6 L13,8 L15,12 L17,13 L17,15 L19,16 L18,18 L13,18 L13,16 L11,16 L10,13 L7,12 L7,9 L0,6 Z " fill="#503FEF" transform="translate(368,615)"/>
<path d="M0,0 L18,0 L18,1 L3,1 L2,21 L-1,25 L-1,21 L-3,21 L-3,26 L-4,26 L-4,20 L-2,20 L-2,2 L0,2 Z " fill="#3321D5" transform="translate(342,386)"/>
<path d="M0,0 L2,0 L2,10 L0,15 L-4,17 L-7,17 L-9,21 L-13,25 L-17,28 L-21,27 L-21,25 L-11,20 L-10,15 L-7,14 L-5,15 L-3,8 L-1,8 Z " fill="#4E48F4" transform="translate(725,488)"/>
<path d="M0,0 L2,1 L2,4 L5,3 L7,6 L6,11 L0,13 L-3,13 L-3,11 L-5,11 L-6,6 L-1,1 Z " fill="#442FF8" transform="translate(410,412)"/>
<path d="M0,0 L10,1 L10,8 L7,13 L-2,10 L0,5 Z " fill="#3D2BF9" transform="translate(432,359)"/>
<path d="M0,0 L6,0 L6,4 L8,4 L8,10 L10,10 L10,12 L12,12 L12,18 L8,18 L8,26 L7,26 L6,10 L7,5 L5,5 L4,8 L0,6 L-6,5 L-6,4 L0,4 Z " fill="#140D6D" transform="translate(602,324)"/>
<path d="M0,0 L14,1 L17,3 L18,10 L28,10 L34,13 L36,18 L22,14 L22,12 L17,12 L14,4 L0,1 Z " fill="#1B11B3" transform="translate(548,314)"/>
<path d="M0,0 L8,0 L22,3 L22,4 L-6,5 L-6,8 L-19,7 L-18,5 L-1,3 Z " fill="#170B9B" transform="translate(464,289)"/>
<path d="M0,0 L2,1 L-3,4 L-10,7 L-11,8 L-21,8 L-21,6 L-23,5 L-21,1 L-1,1 Z M-12,2 Z " fill="#5645F6" transform="translate(563,647)"/>
<path d="M0,0 L5,2 L14,1 L16,3 L16,6 L2,6 L0,5 L0,7 L-6,7 L-6,5 L-14,5 L-14,4 L-6,4 L-5,1 Z " fill="#4B38EE" transform="translate(498,661)"/>
<path d="M0,0 L4,3 L17,5 L16,10 L12,11 L11,8 L9,8 L10,12 L6,10 L8,10 L8,8 L0,8 L0,6 L-2,6 L-2,2 L0,2 Z " fill="#4634DC" transform="translate(370,560)"/>
<path d="M0,0 L17,0 L22,2 L22,4 L15,4 L15,8 L18,9 L14,9 L14,5 L0,5 Z " fill="#0B0942" transform="translate(632,333)"/>
<path d="M0,0 L1,2 L3,3 L-1,7 L-1,11 L-18,12 L-18,9 L-17,8 L-11,8 L-10,5 L-4,5 Z " fill="#3522F7" transform="translate(416,357)"/>
<path d="M0,0 L12,0 L11,2 L5,1 L8,5 L17,6 L20,8 L20,12 L18,12 L17,15 L17,9 L5,9 L5,5 L-1,5 Z " fill="#0A052B" transform="translate(661,333)"/>
<path d="M0,0 L1,2 L8,1 L12,2 L19,3 L25,2 L27,4 L22,7 L8,8 L7,5 L3,4 L0,3 Z " fill="#4948F8" transform="translate(689,449)"/>
<path d="M0,0 L16,0 L16,2 L18,2 L18,8 L22,8 L22,10 L28,10 L27,12 L19,12 L21,11 L21,9 L15,10 L9,9 L8,3 L13,2 L0,1 Z " fill="#3630D7" transform="translate(682,430)"/>
<path d="M0,0 L21,0 L30,2 L30,5 L18,6 L17,2 L-3,3 L-3,1 Z " fill="#1C0BBF" transform="translate(463,300)"/>
<path d="M0,0 L0,3 L-3,6 L0,7 L0,10 L3,11 L2,15 L4,16 L0,18 L-2,20 L-7,14 L-5,5 Z M1,15 Z " fill="#3826F1" transform="translate(351,401)"/>
<path d="M0,0 L2,1 L3,14 L1,17 L-1,17 L-1,15 L-3,15 L-3,17 L-5,17 L-5,42 L-6,42 L-6,16 L-4,16 L-4,14 L-2,14 L-2,2 L0,2 Z " fill="#3826D1" transform="translate(328,446)"/>
<path d="M0,0 L1,4 L-1,4 L-1,6 L-6,10 L-7,12 L-5,12 L-5,18 L-7,18 L-7,20 L-13,20 L-13,22 L-15,22 L-16,24 L-15,18 L-8,19 L-8,17 L-13,17 L-11,16 L-11,12 L-8,12 L-10,7 L-6,7 L-6,3 L0,3 Z " fill="#3D35D4" transform="translate(725,510)"/>
<path d="M0,0 L10,0 L26,2 L38,7 L38,10 L28,7 L28,5 L5,3 L-1,2 Z " fill="#130B82" transform="translate(462,282)"/>
<path d="M0,0 L10,0 L11,4 L13,5 L8,6 L8,9 L4,9 L4,6 L1,7 L-1,9 L-2,2 L0,2 Z " fill="#140E6C" transform="translate(441,279)"/>
<path d="M0,0 L13,0 L13,2 L15,3 L13,3 L13,5 L16,6 L12,6 L12,4 L0,4 L0,2 L-30,2 L-30,1 Z " fill="#4231CF" transform="translate(468,658)"/>
<path d="M0,0 L4,1 L3,4 L5,4 L5,6 L11,5 L13,1 L15,2 L12,10 L8,13 L4,11 L2,8 L-1,6 L-1,1 Z " fill="#4C38F6" transform="translate(355,529)"/>
<path d="M0,0 L5,0 L5,3 L8,3 L8,9 L2,9 L2,3 L0,3 L0,9 L-6,9 L-6,3 L-1,3 Z " fill="#07072F" transform="translate(482,259)"/>
<path d="M0,0 L10,2 L11,4 L27,7 L27,9 L18,9 L16,8 L15,12 L15,8 L13,8 L13,12 L9,11 L9,6 L8,3 L1,3 Z " fill="#2C1BE2" transform="translate(584,368)"/>
<path d="M0,0 L4,1 L4,4 L2,4 L2,6 L0,7 L-12,8 L-21,7 L-21,9 L-15,9 L-18,10 L-19,13 L-25,11 L-25,16 L-26,16 L-26,10 L-22,10 L-22,6 L-13,6 L-13,1 L-11,1 L-11,6 L0,4 Z " fill="#3322EF" transform="translate(392,368)"/>
<path d="M0,0 L2,0 L2,2 L4,2 L4,0 L9,0 L9,2 L17,3 L17,5 L7,6 L13,7 L13,8 L4,9 L2,8 L2,10 L-2,10 L-2,17 L-3,17 L-3,9 L1,9 L1,7 L3,7 L3,4 L0,4 Z " fill="#1A118A" transform="translate(439,289)"/>
<path d="M0,0 L1,0 L1,10 L3,10 L3,1 L4,1 L7,10 L8,15 L5,15 L5,17 L8,18 L4,18 L4,16 L-2,16 L-2,10 L0,10 Z " fill="#4432D4" transform="translate(346,594)"/>
<path d="M0,0 L4,1 L4,3 L19,4 L20,7 L4,7 L2,5 L-6,3 L-6,1 Z " fill="#110870" transform="translate(544,291)"/>
<path d="M0,0 L6,0 L6,14 L0,14 Z " fill="#140D69" transform="translate(622,336)"/>
<path d="M0,0 L8,0 L8,2 L10,2 L10,6 L16,6 L16,12 L10,12 L10,24 L9,24 L7,8 L7,1 L0,1 Z " fill="#09051F" transform="translate(648,318)"/>
<path d="M0,0 L6,0 L8,1 L8,9 L10,9 L10,11 L16,11 L16,17 L15,17 L15,12 L10,12 L10,14 L13,14 L12,16 L6,15 L7,12 L9,12 L9,10 L6,9 L7,2 L5,2 L5,9 L2,7 L2,5 L-2,4 Z " fill="#3330EE" transform="translate(666,413)"/>
<path d="M0,0 L8,0 L8,1 L1,1 L1,3 L-5,3 L-4,8 L3,8 L4,6 L4,10 L-4,11 L-6,18 L-7,18 L-7,11 L-9,11 L-9,26 L-10,26 L-10,10 L-8,10 L-8,8 L-6,8 L-6,2 L0,2 Z " fill="#1F139F" transform="translate(428,306)"/>
<path d="M0,0 L5,1 L3,2 L3,4 L0,6 L-17,6 L-13,4 L-13,1 L-5,1 Z " fill="#2111BE" transform="translate(457,302)"/>
<path d="M0,0 L12,0 L12,5 L16,7 L4,6 L4,4 L-1,5 L-1,2 L-3,2 L-3,7 L-4,7 L-4,1 Z " fill="#0D0846" transform="translate(542,279)"/>
<path d="M0,0 L17,0 L14,3 L15,5 L-1,5 L-1,6 L-10,6 L-6,5 L-5,2 L-1,1 Z " fill="#4C3AEF" transform="translate(566,652)"/>
<path d="M0,0 L1,0 L2,30 L2,42 L1,42 L1,37 L-1,37 L-1,42 L-2,42 L-2,36 L0,36 L0,30 L-2,30 L-2,20 L0,20 Z " fill="#09091E" transform="translate(730,468)"/>
<path d="M0,0 L2,4 L3,8 L2,10 L7,10 L3,12 L1,16 L-2,17 L-2,15 L-6,16 L-8,15 L-8,11 L-2,11 L-2,7 L0,5 Z " fill="#5B4AFA" transform="translate(512,560)"/>
<path d="M0,0 L2,0 L2,2 L-2,3 L-3,8 L-7,9 L-13,9 L-12,4 L-10,4 L-10,1 Z " fill="#321BF4" transform="translate(440,334)"/>
<path d="M0,0 L8,0 L8,2 L10,2 L10,8 L0,8 Z " fill="#07041C" transform="translate(344,800)"/>
<path d="M0,0 L2,0 L2,2 L8,2 L8,0 L16,0 L22,1 L19,3 L16,4 L-4,4 L-9,10 L-10,6 L-6,4 L-6,2 L0,2 Z " fill="#04030D" transform="translate(682,624)"/>
<path d="M0,0 L0,3 L-1,14 L-2,16 L-6,17 L-8,23 L-9,23 L-10,15 L-8,9 L-4,9 L-1,1 Z " fill="#3D2AEF" transform="translate(339,432)"/>
<path d="M0,0 L5,0 L6,3 L17,4 L17,6 L6,6 L7,8 L7,14 L2,16 L3,9 L4,5 L0,2 Z " fill="#3323F2" transform="translate(602,383)"/>
<path d="M0,0 L4,1 L4,7 L5,8 L5,15 L10,17 L15,21 L10,21 L9,18 L4,17 L1,15 Z " fill="#2817DA" transform="translate(585,352)"/>
<path d="M0,0 L10,0 L10,2 L22,2 L22,4 L26,4 L25,6 L21,6 L21,3 L9,3 L9,1 L1,1 L1,4 L-8,3 L-9,8 L-16,8 L-16,6 L-12,6 L-12,4 L-10,4 L-10,2 L0,2 Z " fill="#030012" transform="translate(522,244)"/>
<path d="M0,0 L4,1 L1,1 L1,22 L3,22 L3,3 L4,3 L4,23 L1,25 L-3,23 L-3,36 L-4,36 L-4,22 L0,22 Z " fill="#3528C1" transform="translate(318,488)"/>
<path d="M0,0 L6,0 L7,5 L1,7 L2,12 L0,12 L0,8 L-4,8 L-4,2 L0,2 Z " fill="#2315B2" transform="translate(408,326)"/>
<path d="M0,0 L10,0 L10,3 L25,4 L27,8 L24,8 L8,5 L8,3 L0,1 Z " fill="#1B119C" transform="translate(486,293)"/>
<path d="M0,0 L6,0 L6,2 L8,2 L8,10 L2,10 L2,6 L0,6 Z " fill="#040115" transform="translate(286,784)"/>
<path d="M0,0 L12,0 L19,2 L22,5 L12,5 L12,3 L8,5 L4,4 L4,1 Z " fill="#190DB3" transform="translate(526,309)"/>
<path d="M0,0 L2,0 L2,4 L0,4 L0,6 L-7,6 L-7,8 L-9,8 L-9,6 L-13,6 L-14,2 Z " fill="#5847EE" transform="translate(682,619)"/>
<path d="M0,0 L4,1 L0,3 L7,4 L8,7 L7,9 L3,10 L3,7 L-2,8 L-3,7 L-9,7 L-9,5 L-3,4 L-3,2 Z " fill="#4632F6" transform="translate(557,409)"/>
<path d="M0,0 L2,2 L1,5 L0,7 L-3,7 L-3,9 L-24,9 L-24,7 L-5,6 L-4,4 L-2,4 Z " fill="#4E3BF9" transform="translate(551,662)"/>
<path d="M0,0 L2,0 L2,6 L0,9 L-8,10 L-8,5 L-4,3 L-4,1 Z M-9,10 Z " fill="#514BF6" transform="translate(720,494)"/>
<path d="M0,0 L2,1 L1,3 L-1,3 L-1,22 L1,22 L0,29 L-3,31 L-3,29 L-5,29 L-5,34 L-6,34 L-6,28 L-4,28 L-4,22 L-2,22 L-2,2 L0,2 Z " fill="#3222CC" transform="translate(336,412)"/>
<path d="M0,0 L1,2 L0,4 L2,4 L2,2 L6,3 L1,10 L-3,11 L-7,9 L-5,5 L-1,3 Z M6,1 Z " fill="#4E3CE9" transform="translate(375,571)"/>
<path d="M0,0 L6,0 L6,2 L4,2 L4,4 L0,4 L0,8 L-2,8 L-2,10 L-4,10 L-5,12 L-5,9 L-7,9 L-7,1 L-5,1 L-4,6 L-2,1 Z " fill="#2616C8" transform="translate(426,316)"/>
<path d="M0,0 L1,4 L3,5 L1,10 L-2,9 L-2,4 L-9,8 L-16,7 L-13,6 L-13,2 L-11,2 L-11,4 L-1,2 Z " fill="#301FEB" transform="translate(591,377)"/>
<path d="M0,0 L32,0 L38,2 L38,8 L35,8 L33,4 L30,3 L30,1 L0,1 Z " fill="#1F10CE" transform="translate(512,316)"/>
<path d="M0,0 L8,0 L8,8 L0,8 Z " fill="#050521" transform="translate(430,256)"/>
<path d="M0,0 L14,0 L10,5 L4,5 L0,4 L-4,5 L-6,4 L-5,2 Z " fill="#463AF6" transform="translate(620,444)"/>
<path d="M0,0 L1,0 L1,8 L-9,8 L-9,10 L-3,10 L-3,16 L-4,16 L-4,11 L-9,11 L-9,13 L-6,13 L-7,15 L-12,13 L-12,11 L-10,11 L-10,9 L-14,10 L-14,8 L-12,8 L-12,4 L-8,4 L-8,7 L0,7 Z " fill="#1F13A5" transform="translate(611,350)"/>
<path d="M0,0 L2,0 L2,26 L-5,26 L-5,24 L0,24 Z " fill="#5045F9" transform="translate(723,573)"/>
<path d="M0,0 L1,2 L5,2 L5,5 L7,6 L6,8 L2,10 L-2,9 L-3,8 L-3,3 Z " fill="#4331FB" transform="translate(434,379)"/>
<path d="M0,0 L9,1 L9,3 L14,5 L14,6 L-1,6 Z " fill="#1C1195" transform="translate(565,310)"/>
<path d="M0,0 L6,0 L6,6 L10,8 L14,12 L14,16 L17,17 L15,18 L12,17 L8,13 L8,11 L6,11 L4,6 L5,1 L0,1 Z M5,7 Z " fill="#0A0821" transform="translate(380,634)"/>
<path d="M0,0 L5,1 L5,3 L10,6 L13,9 L15,10 L15,12 L18,13 L15,14 L11,13 L11,11 L8,10 L8,6 L2,8 L0,4 Z " fill="#1E129A" transform="translate(591,330)"/>
<path d="M0,0 L8,0 L8,2 L26,2 L26,8 L16,8 L16,7 L25,7 L25,3 L7,3 L7,1 L2,2 L1,5 L1,3 L-1,3 L-1,7 L2,8 L-2,8 L-2,2 L0,2 Z " fill="#070624" transform="translate(366,278)"/>
<path d="M0,0 L10,0 L10,6 L0,6 Z " fill="#030518" transform="translate(822,486)"/>
<path d="M0,0 L16,0 L18,1 L18,3 L-4,3 L-4,1 Z " fill="#1D0EAE" transform="translate(464,295)"/>
<path d="M0,0 L4,0 L4,2 L14,2 L14,4 L16,4 L16,8 L18,8 L17,10 L14,9 L13,5 L3,6 L0,3 L3,3 L3,1 Z " fill="#070516" transform="translate(352,558)"/>
<path d="M0,0 L8,0 L17,1 L16,14 L15,14 L15,6 L9,5 L8,3 L1,2 Z " fill="#140B73" transform="translate(566,300)"/>
<path d="M0,0 L9,0 L9,2 L11,2 L11,8 L4,7 L4,3 L-2,3 L-2,1 Z " fill="#2819F3" transform="translate(547,344)"/>
<path d="M0,0 L6,1 L6,3 L8,4 L9,7 L8,8 L0,8 L-2,4 Z " fill="#2512E8" transform="translate(484,317)"/>
<path d="M0,0 L8,0 L8,8 L-4,8 L-4,7 L7,7 L7,1 L5,1 L5,5 L-2,5 L-2,3 L-8,3 L-8,2 L0,2 Z " fill="#070529" transform="translate(536,266)"/>
<path d="M0,0 L3,1 L34,2 L37,1 L44,3 L44,4 L31,4 L2,3 L1,5 Z " fill="#4B39E6" transform="translate(437,654)"/>
<path d="M0,0 L2,0 L2,2 L4,2 L4,4 L7,4 L7,6 L3,6 L3,11 L-3,11 L-3,5 L1,5 Z " fill="#0D0736" transform="translate(679,345)"/>
<path d="M0,0 L6,1 L7,5 L-2,7 L-3,9 L-4,2 Z " fill="#2818D1" transform="translate(413,331)"/>
<path d="M0,0 L3,0 L3,2 L1,2 L1,4 L13,4 L15,6 L-3,6 L-7,4 L-5,4 L-5,2 Z " fill="#2312D2" transform="translate(497,310)"/>
<path d="M0,0 L7,0 L8,5 L-3,5 L-4,8 L-5,5 L-4,1 L0,2 Z " fill="#070319" transform="translate(432,247)"/>
<path d="M0,0 L5,1 L5,6 L1,6 L0,8 L-7,8 L-5,4 L-4,2 Z " fill="#4A43F0" transform="translate(722,503)"/>
<path d="M0,0 L10,0 L13,1 L13,3 L10,4 L1,4 L-10,3 L-10,2 L0,2 Z " fill="#070514" transform="translate(658,636)"/>
<path d="M0,0 L9,1 L9,17 L8,17 L8,6 L3,5 L3,3 L-1,3 L-1,6 L-3,6 L-3,2 Z " fill="#07031E" transform="translate(575,259)"/>
<path d="M0,0 L2,0 L3,2 L22,3 L22,4 L2,4 L2,6 L23,6 L23,7 L1,7 Z " fill="#4132D0" transform="translate(525,665)"/>
<path d="M0,0 L4,0 L4,6 L8,8 L12,12 L10,16 L4,11 L2,6 L3,1 Z M3,7 Z " fill="#09061C" transform="translate(350,612)"/>
<path d="M0,0 L12,0 L26,2 L28,5 L27,9 L26,4 L16,4 L0,1 Z " fill="#2010BE" transform="translate(484,305)"/>
<path d="M0,0 L10,0 L11,4 L1,4 L-7,3 L-7,8 L-8,8 L-8,2 L0,2 Z " fill="#03051A" transform="translate(484,250)"/>
<path d="M0,0 L6,2 L7,8 L10,8 L10,10 L7,11 L1,9 Z " fill="#2516B5" transform="translate(592,343)"/>
<path d="M0,0 L4,0 L4,2 L6,2 L6,8 L2,8 L2,16 L1,16 Z " fill="#150E74" transform="translate(608,334)"/>
<path d="M0,0 L7,0 L8,1 L24,3 L23,6 L16,6 L16,3 L8,5 L6,2 L0,1 Z " fill="#16098E" transform="translate(540,300)"/>
<path d="M0,0 L8,2 L7,6 L10,7 L6,7 L6,3 L4,3 L4,7 L-2,7 L-2,5 L-6,4 L-2,4 L-2,2 L0,2 Z " fill="#4535D1" transform="translate(368,621)"/>
<path d="M0,0 L4,0 L4,4 L8,6 L8,14 L10,14 L9,16 L6,16 L7,10 L5,10 L4,14 L2,4 L0,3 L3,3 L3,1 Z M3,5 Z " fill="#09061B" transform="translate(328,534)"/>
<path d="M0,0 L5,3 L9,4 L8,7 L2,8 L0,12 L-4,13 L-4,11 L-1,11 Z " fill="#4432F5" transform="translate(327,508)"/>
<path d="M0,0 L24,1 L26,4 L8,3 L7,2 L0,1 Z " fill="#130887" transform="translate(540,299)"/>
<path d="M0,0 L14,0 L14,2 L22,2 L20,4 L10,4 L10,2 L0,2 Z " fill="#020108" transform="translate(560,276)"/>
<path d="M0,0 L2,0 L1,5 L-7,5 L-7,3 L-21,3 L-21,2 Z " fill="#0B062E" transform="translate(581,273)"/>
<path d="M0,0 L2,3 L2,6 L-1,6 L-1,8 L-11,8 L-11,4 L-4,4 Z " fill="#5542EF" transform="translate(669,627)"/>
<path d="M0,0 L8,0 L8,2 L14,2 L14,5 L8,7 L3,2 L-1,1 Z M-2,2 Z " fill="#4F42EF" transform="translate(695,551)"/>
<path d="M0,0 L3,1 L3,3 L0,4 L-1,9 L-4,7 L-7,7 L-9,4 L-8,2 L-1,1 Z M-7,8 Z " fill="#6151F9" transform="translate(513,536)"/>
<path d="M0,0 L8,0 L7,3 L8,6 L10,6 L11,11 L6,11 L5,10 L4,2 L-1,3 Z " fill="#4735EC" transform="translate(328,528)"/>
<path d="M0,0 L4,0 L4,2 L6,2 L6,4 L-3,4 L-3,13 L-4,13 L-5,7 L-7,3 L-7,1 L0,2 Z " fill="#070420" transform="translate(699,333)"/>
<path d="M0,0 L2,1 L2,3 L8,3 L10,4 L10,6 L15,7 L15,10 L8,8 L8,6 L2,6 L2,4 L0,4 Z " fill="#2115DD" transform="translate(548,330)"/>
<path d="M0,0 L8,0 L8,6 L0,6 Z " fill="#050319" transform="translate(322,802)"/>
<path d="M0,0 L3,2 L2,4 L0,4 L0,7 L-6,7 L-6,5 L-14,5 L-14,4 L-6,4 L-5,1 Z " fill="#4534DA" transform="translate(498,661)"/>
<path d="M0,0 L2,1 L-3,4 L-10,7 L-11,8 L-21,8 L-19,5 L-11,6 L-11,4 L-9,4 L-8,1 L-1,1 Z " fill="#5342F3" transform="translate(563,647)"/>
<path d="M0,0 L18,1 L16,3 L4,3 L1,6 L1,8 L-3,8 L-3,10 L-5,9 L-4,7 L-2,7 Z " fill="#5340ED" transform="translate(608,630)"/>
<path d="M0,0 L6,0 L6,8 L0,8 Z " fill="#040313" transform="translate(814,606)"/>
<path d="M0,0 L6,0 L6,8 L0,8 Z " fill="#060413" transform="translate(596,270)"/>
<path d="M0,0 L1,4 L-1,4 L-1,10 L-3,10 L-4,14 L-4,10 L-6,10 L-7,13 L-6,3 L-3,3 L-2,1 L-2,3 L0,3 Z " fill="#4539D9" transform="translate(707,534)"/>
<path d="M0,0 L7,0 L7,7 L-1,5 L-2,1 Z " fill="#080326" transform="translate(648,319)"/>
<path d="M0,0 L2,0 L3,5 L5,3 L12,3 L15,5 L7,4 L7,7 L3,9 L-1,9 Z " fill="#2012B5" transform="translate(437,299)"/>
<path d="M0,0 L1,4 L12,3 L11,6 L16,4 L17,5 L17,13 L16,9 L11,8 L10,5 L0,5 Z " fill="#3D2EC8" transform="translate(316,525)"/>
<path d="M0,0 L9,1 L8,5 L8,2 L3,2 L3,4 L6,5 L2,5 L2,7 L-2,8 L-4,4 Z " fill="#2E1FDF" transform="translate(599,381)"/>
<path d="M0,0 L6,2 L6,4 L8,4 L8,10 L2,10 L3,2 L0,2 Z " fill="#110B5D" transform="translate(647,339)"/>
<path d="M0,0 L11,0 L11,3 L13,4 L0,4 Z " fill="#0C0A4F" transform="translate(633,333)"/>
<path d="M0,0 L7,1 L8,2 L17,3 L15,5 L3,5 L0,2 Z " fill="#170D7F" transform="translate(564,303)"/>
<path d="M0,0 L18,1 L28,2 L28,3 L17,4 L1,2 Z " fill="#180D8B" transform="translate(512,298)"/>
<path d="M0,0 L5,1 L6,2 L6,7 L6,9 L6,12 L2,12 L3,4 L0,4 Z " fill="#08052A" transform="translate(603,281)"/>
<path d="M0,0 L10,0 L10,3 L-1,4 L-1,7 L-3,7 L-3,2 L0,2 Z " fill="#523FF1" transform="translate(354,583)"/>
<path d="M0,0 L4,0 L4,2 L9,1 L9,4 L1,7 L-2,6 Z " fill="#2919F2" transform="translate(513,331)"/>
<path d="M0,0 L2,3 L2,8 L4,8 L4,10 L6,10 L6,12 L13,12 L15,14 L6,14 L0,9 Z " fill="#0B0840" transform="translate(633,315)"/>
<path d="M0,0 L9,0 L8,5 L1,6 L0,5 Z " fill="#2415B3" transform="translate(423,309)"/>
<path d="M0,0 L4,1 L4,3 L9,2 L18,2 L18,4 L11,4 L10,7 L10,4 L5,5 L3,7 L3,5 L1,5 Z " fill="#06082C" transform="translate(477,255)"/>
<path d="M0,0 L12,0 L17,5 L14,6 L11,4 L11,2 L3,3 L1,4 L1,2 L-1,1 Z " fill="#5640F5" transform="translate(603,503)"/>
<path d="M0,0 L1,4 L5,6 L5,8 L7,8 L7,18 L6,18 L6,9 L4,9 L4,17 L3,17 L1,7 L2,5 L-1,6 Z " fill="#3E3CCC" transform="translate(719,446)"/>
<path d="M0,0 L2,0 L2,2 L8,2 L7,6 L6,5 L1,5 L0,4 L-17,3 L-17,2 L0,2 Z " fill="#090639" transform="translate(649,330)"/>
<path d="M0,0 L6,4 L6,2 L8,2 L9,7 L1,7 L1,5 L-2,5 L-2,1 Z " fill="#4D3AEF" transform="translate(483,658)"/>
<path d="M0,0 L1,2 L5,3 L0,8 L-8,7 L-5,5 L-3,6 L-3,1 Z " fill="#5345EC" transform="translate(706,611)"/>
<path d="M0,0 L1,0 L1,10 L3,10 L3,16 L1,16 L1,22 L0,22 L0,16 L-3,15 L-1,10 Z " fill="#413BCC" transform="translate(727,488)"/>
<path d="M0,0 L6,0 L6,2 L12,2 L12,3 L1,4 L-14,3 L-14,2 L0,2 Z " fill="#0C0924" transform="translate(620,640)"/>
<path d="M0,0 L1,2 L3,3 L2,11 L0,11 L-1,13 L-2,11 L-2,2 Z " fill="#4D40DD" transform="translate(714,599)"/>
<path d="M0,0 L2,3 L1,6 L-4,11 L-4,20 L-8,18 L-6,18 L-6,12 L-8,12 L-6,8 L-2,6 L-2,4 L0,4 Z " fill="#0A0926" transform="translate(726,510)"/>
<path d="M0,0 L4,1 L3,5 L2,10 L-2,10 L-6,11 L-4,7 L0,3 Z " fill="#433AF6" transform="translate(647,428)"/>
<path d="M0,0 L3,1 L11,1 L11,5 L7,6 L3,6 L1,6 Z " fill="#3E2CF3" transform="translate(351,423)"/>
<path d="M0,0 L5,2 L6,0 L8,0 L7,7 L1,7 L-1,2 Z " fill="#160E81" transform="translate(601,329)"/>
<path d="M0,0 L2,0 L2,5 L4,6 L4,10 L4,12 L6,12 L6,14 L3,14 L0,7 L-3,6 L-2,1 Z " fill="#1D129E" transform="translate(583,317)"/>
<path d="M0,0 L2,0 L3,2 L8,1 L9,5 L14,5 L14,7 L8,7 L8,4 L0,5 Z " fill="#090630" transform="translate(615,300)"/>
<path d="M0,0 L17,1 L17,3 L-1,3 Z " fill="#110B62" transform="translate(531,287)"/>
<path d="M0,0 L3,0 L3,2 L1,2 L1,5 L-16,5 L-15,3 L-1,3 Z " fill="#040521" transform="translate(424,256)"/>
<path d="M0,0 L1,0 L1,8 L3,8 L3,10 L9,10 L9,16 L8,16 L8,11 L3,11 L3,13 L6,13 L5,15 L-1,14 L0,11 L2,11 L2,9 L-1,8 Z " fill="#312DCB" transform="translate(673,414)"/>
<path d="M0,0 L9,0 L5,2 L4,6 L-2,7 L-2,2 Z M0,6 Z " fill="#3A27F7" transform="translate(358,392)"/>
<path d="M0,0 L5,2 L11,2 L17,3 L27,4 L27,5 L5,5 L0,2 Z " fill="#5D4BFA" transform="translate(415,636)"/>
<path d="M0,0 L2,0 L2,6 L1,9 L-2,10 L-3,6 L-5,5 L-3,1 Z " fill="#5847F5" transform="translate(690,556)"/>
<path d="M0,0 L10,1 L10,5 L2,6 Z " fill="#3A27FC" transform="translate(432,359)"/>
<path d="M0,0 L4,1 L1,1 L4,4 L4,2 L8,2 L7,5 L0,7 L0,3 L-4,4 L-6,2 Z " fill="#3422F6" transform="translate(502,350)"/>
<path d="M0,0 L9,0 L9,4 L-2,4 L-2,2 L0,2 Z " fill="#2213CA" transform="translate(500,310)"/>
<path d="M0,0 L19,0 L24,1 L24,4 L17,4 L17,1 L0,1 Z " fill="#070625" transform="translate(377,266)"/>
<path d="M0,0 L17,0 L26,1 L26,2 L16,3 L1,2 Z " fill="#5B49F9" transform="translate(512,631)"/>
<path d="M0,0 L5,0 L6,4 L1,7 L-1,8 L-3,3 L-1,3 Z " fill="#5542FA" transform="translate(585,477)"/>
<path d="M0,0 L5,1 L3,6 L-4,7 L-3,3 Z " fill="#3B2BF2" transform="translate(426,370)"/>
<path d="M0,0 L4,1 L8,2 L9,0 L12,0 L12,8 L8,7 L8,5 L0,1 Z " fill="#181088" transform="translate(492,289)"/>
<path d="M0,0 L2,0 L3,10 L0,11 L0,8 L-2,8 L-2,13 L1,14 L-3,14 L-4,6 L0,7 Z " fill="#130D6D" transform="translate(509,280)"/>
<path d="M0,0 L6,1 L12,0 L14,2 L8,5 L0,4 Z " fill="#4747F2" transform="translate(702,451)"/>
<path d="M0,0 L7,1 L14,3 L13,5 L5,5 L-3,2 Z " fill="#3E3AEE" transform="translate(704,441)"/>
<path d="M0,0 L1,0 L1,5 L3,5 L3,0 L10,0 L10,4 L4,4 L4,6 L0,6 Z " fill="#030211" transform="translate(592,324)"/>
<path d="M0,0 L7,1 L7,3 L15,3 L15,4 L1,5 L-1,1 Z " fill="#110B58" transform="translate(565,293)"/>
<path d="M0,0 L7,1 L7,3 L1,3 L2,7 L0,6 L0,4 L-14,4 L-14,3 L0,3 Z " fill="#4031CD" transform="translate(514,664)"/>
<path d="M0,0 L2,4 L2,8 L9,7 L9,9 L7,9 L7,11 L10,12 L8,13 L1,10 L0,7 Z " fill="#2516C7" transform="translate(592,352)"/>
<path d="M0,0 L6,0 L2,1 L2,4 L-11,3 L-10,1 Z " fill="#1B1099" transform="translate(456,293)"/>
<path d="M0,0 L6,0 L6,6 L0,6 Z " fill="#06031B" transform="translate(404,808)"/>
<path d="M0,0 L6,0 L6,6 L0,6 Z " fill="#050317" transform="translate(316,792)"/>
<path d="M0,0 L4,1 L4,3 L1,4 L0,7 L-7,7 L-7,5 L-2,5 L-2,3 L-6,2 Z " fill="#5440F1" transform="translate(601,640)"/>
<path d="M0,0 L1,2 L0,7 L4,8 L4,10 L6,10 L6,13 L2,12 L2,9 L-2,9 L-2,2 Z " fill="#523DF8" transform="translate(358,598)"/>
<path d="M0,0 L6,1 L8,5 L1,4 L-6,3 L-6,1 Z " fill="#4935EC" transform="translate(346,538)"/>
<path d="M0,0 L5,2 L3,11 L1,12 L1,10 L-1,9 L-1,4 Z " fill="#4E43F4" transform="translate(693,520)"/>
<path d="M0,0 L1,4 L-1,4 L-1,6 L-6,10 L-10,9 L-10,7 L-6,7 L-6,3 L0,3 Z " fill="#433DE9" transform="translate(725,510)"/>
<path d="M0,0 L5,2 L11,2 L9,5 L2,4 L1,7 L-1,7 L-2,2 Z " fill="#5C48F8" transform="translate(509,482)"/>
<path d="M0,0 L6,0 L6,6 L0,6 Z " fill="#06041A" transform="translate(762,400)"/>
<path d="M0,0 L6,0 L6,6 L0,6 Z " fill="#1A1080" transform="translate(646,370)"/>
<path d="M0,0 L6,0 L6,6 L0,6 Z " fill="#080521" transform="translate(288,346)"/>
<path d="M0,0 L6,0 L6,6 L0,6 Z " fill="#07062E" transform="translate(498,264)"/>
<path d="M0,0 L2,0 L2,2 L8,2 L8,3 L-4,4 L-9,10 L-10,6 L-6,4 L-6,2 L0,2 Z " fill="#0D0A27" transform="translate(682,624)"/>
<path d="M0,0 L8,1 L8,2 L2,2 L2,4 L-1,6 L-2,10 L-6,9 L-3,9 L-4,2 L-1,1 L-1,3 L1,3 Z " fill="#4939CF" transform="translate(674,624)"/>
<path d="M0,0 L9,2 L9,4 L0,4 L-2,3 L-3,7 L-3,2 L-6,1 Z " fill="#2A1ADB" transform="translate(602,373)"/>
<path d="M0,0 L4,2 L12,3 L12,4 L4,4 L4,6 L0,8 L-8,7 L-8,6 L0,6 Z " fill="#070526" transform="translate(378,360)"/>
<path d="M0,0 L3,0 L3,2 L11,3 L11,5 L0,6 L-2,4 Z " fill="#190F8F" transform="translate(445,289)"/>
<path d="M0,0 L4,2 L-1,3 L-1,6 L-5,6 L-5,3 L-8,3 L-8,1 Z " fill="#130C73" transform="translate(450,282)"/>
<path d="M0,0 L8,0 L8,1 L1,1 L1,3 L7,3 L4,4 L3,7 L-3,5 L-3,10 L-4,10 L-4,4 L0,4 Z " fill="#2E1DC9" transform="translate(370,374)"/>
<path d="M0,0 L4,1 L1,1 L1,3 L4,3 L3,16 L2,16 L2,8 L0,8 Z " fill="#040314" transform="translate(610,342)"/>
<path d="M0,0 L2,0 L2,2 L4,2 L2,7 L0,8 L-8,8 L-8,7 L-2,7 Z " fill="#2614C8" transform="translate(440,308)"/>
<path d="M0,0 L1,4 L5,4 L6,9 L4,9 L5,14 L3,13 L3,10 L1,10 L2,7 L4,7 L4,5 L-2,6 L-2,4 L0,4 Z " fill="#483FDA" transform="translate(713,558)"/>
<path d="M0,0 L3,2 L3,4 L6,4 L7,1 L9,5 L6,8 L2,8 L2,3 L0,3 Z " fill="#5251F5" transform="translate(715,464)"/>
<path d="M0,0 L5,1 L5,5 L7,5 L6,9 L6,6 L4,6 L3,8 L-1,5 L0,3 L2,4 L2,2 L0,2 Z " fill="#2B24DC" transform="translate(651,395)"/>
<path d="M0,0 L8,0 L8,1 L2,1 L2,4 L-4,8 L-6,8 L-6,4 L-2,4 L-2,2 L0,2 Z " fill="#2715D1" transform="translate(432,316)"/>
<path d="M0,0 L2,0 L2,3 L9,3 L9,5 L0,5 L0,3 L-5,3 L-4,1 Z " fill="#180B92" transform="translate(554,303)"/>
<path d="M0,0 L4,3 L4,7 L0,8 L-2,5 L-2,2 L0,2 Z " fill="#4A41EA" transform="translate(719,565)"/>
<path d="M0,0 L4,1 L0,6 L-1,8 L-3,8 L-4,2 Z " fill="#5B4AF9" transform="translate(644,501)"/>
<path d="M0,0 L1,0 L1,6 L3,6 L3,8 L7,8 L7,14 L6,14 L6,9 L4,9 L4,13 L2,13 L0,9 L2,9 L2,7 L-1,6 Z " fill="#191181" transform="translate(585,316)"/>
<path d="M0,0 L16,0 L16,2 L4,3 L4,1 Z " fill="#1E0CC6" transform="translate(464,302)"/>
<path d="M0,0 L5,0 L5,2 L7,1 L13,1 L13,2 L7,4 L7,6 L5,6 L5,4 L1,4 Z " fill="#5543ED" transform="translate(668,621)"/>
<path d="M0,0 L15,0 L15,3 L7,3 L7,1 L0,1 Z " fill="#190BA3" transform="translate(548,309)"/>
<path d="M0,0 L5,3 L5,9 L4,9 L4,4 L-2,5 L-5,3 L-3,3 L-3,1 Z " fill="#140B61" transform="translate(579,297)"/>
<path d="M0,0 L9,1 L9,3 L7,3 L6,6 L6,4 L3,5 L1,4 Z " fill="#130D72" transform="translate(495,282)"/>
<path d="M0,0 L1,4 L-4,7 L-5,6 L-19,5 L-19,4 L0,3 Z " fill="#4837E4" transform="translate(585,650)"/>
<path d="M0,0 L8,0 L8,8 L14,8 L14,9 L5,11 L4,8 L7,8 L7,1 L0,1 Z " fill="#2722C2" transform="translate(658,404)"/>
<path d="M0,0 L2,0 L2,2 L6,1 L6,5 L2,6 L-3,5 L0,4 Z " fill="#3120F3" transform="translate(578,379)"/>
<path d="M0,0 L2,1 L1,3 L-3,3 L-3,5 L-1,6 L-7,7 L-7,5 L-9,5 L-9,10 L-10,10 L-10,4 L-4,4 L-4,2 L0,2 Z " fill="#2516B8" transform="translate(408,340)"/>
<path d="M0,0 L2,0 L2,2 L11,2 L15,4 L0,4 Z " fill="#1C129C" transform="translate(564,312)"/>
<path d="M0,0 L4,2 L4,8 L8,8 L8,10 L2,10 L1,3 Z " fill="#030314" transform="translate(502,286)"/>
<path d="M0,0 L7,1 L7,8 L4,8 L4,2 L0,2 Z " fill="#08041B" transform="translate(287,785)"/>
<path d="M0,0 L1,3 L3,3 L4,1 L4,3 L10,4 L10,5 L5,5 L5,7 L10,7 L10,8 L4,8 L0,4 Z " fill="#4235D1" transform="translate(394,646)"/>
<path d="M0,0 L3,1 L2,5 L4,6 L0,8 L-2,10 L-3,7 Z M1,5 Z " fill="#3D29F5" transform="translate(351,411)"/>
<path d="M0,0 L1,3 L0,4 L2,6 L2,8 L-3,9 L-3,6 L-3,1 Z " fill="#412EF9" transform="translate(435,408)"/>
<path d="M0,0 L6,1 L2,2 L2,4 L0,5 L-8,5 L-8,3 L-1,2 Z " fill="#02010F" transform="translate(390,358)"/>
<path d="M0,0 L5,0 L5,3 L8,4 L-1,5 Z " fill="#3522F5" transform="translate(443,342)"/>
<path d="M0,0 L2,0 L2,2 L16,2 L16,3 L0,4 L-6,3 L-6,2 L0,2 Z " fill="#0D0A2B" transform="translate(498,666)"/>
<path d="M0,0 L1,2 L0,6 L-2,6 L-2,8 L-4,8 L-5,10 L-7,9 L-5,5 L-1,3 Z " fill="#4333C9" transform="translate(375,571)"/>
<path d="M0,0 L7,1 L7,5 L4,6 L4,4 L0,3 Z " fill="#5045ED" transform="translate(706,557)"/>
<path d="M0,0 L4,0 L6,5 L4,9 L3,2 L1,5 L-1,5 Z " fill="#473BF8" transform="translate(608,435)"/>
<path d="M0,0 L1,0 L1,8 L-11,8 L-11,4 L-8,4 L-8,7 L0,7 Z " fill="#140D61" transform="translate(611,350)"/>
<path d="M0,0 L10,0 L10,3 L0,3 L-2,4 L-2,1 Z " fill="#1D10AE" transform="translate(442,300)"/>
<path d="M0,0 L2,1 L2,3 L4,4 L3,6 L-2,5 L-4,2 Z " fill="#4B36E9" transform="translate(363,619)"/>
<path d="M0,0 L8,0 L8,2 L10,2 L9,5 L5,2 L1,4 Z " fill="#5B4BF7" transform="translate(382,608)"/>
<path d="M0,0 L11,0 L12,2 L10,2 L11,5 L9,5 L9,2 L0,2 Z " fill="#4B38ED" transform="translate(357,557)"/>
<path d="M0,0 L2,0 L2,2 L4,2 L4,0 L8,0 L8,4 L1,4 Z " fill="#2D1BE2" transform="translate(369,361)"/>
<path d="M0,0 L2,1 L2,4 L0,4 L0,7 L-3,7 L-3,5 L-6,6 L-6,4 L-4,4 L-4,2 L0,2 Z " fill="#2919D3" transform="translate(396,358)"/>
<path d="M0,0 L4,1 L1,1 L1,5 L3,5 L4,2 L8,3 L7,5 L5,5 L4,8 L4,6 L0,6 Z " fill="#2617C1" transform="translate(394,350)"/>
<path d="M0,0 L2,0 L3,7 L-1,8 L-2,10 L-4,10 L-4,6 L-1,5 Z " fill="#2E1BE3" transform="translate(399,345)"/>
<path d="M0,0 L4,0 L4,2 L12,3 L12,4 L0,4 Z " fill="#1C15B9" transform="translate(566,326)"/>
<path d="M0,0 L4,0 L5,2 L9,4 L9,6 L4,6 L4,4 L2,4 L2,2 L0,2 Z " fill="#09053A" transform="translate(635,321)"/>
<path d="M0,0 L11,0 L7,2 L-1,4 L-2,8 L-2,2 L0,2 Z " fill="#1D12A2" transform="translate(441,297)"/>
<path d="M0,0 L2,0 L2,5 L-11,5 L-10,2 L-7,2 L-7,4 L0,4 Z " fill="#090633" transform="translate(541,267)"/>
<path d="M0,0 L2,2 L1,5 L0,7 L-3,7 L-4,9 L-5,5 L-2,4 Z " fill="#4B39EC" transform="translate(551,662)"/>
<path d="M0,0 L3,1 L5,5 L9,7 L9,8 L4,8 L2,6 L2,3 L-2,1 Z " fill="#5A4AF8" transform="translate(397,623)"/>
<path d="M0,0 L7,1 L7,7 L4,6 L3,4 L0,3 Z " fill="#4E3AEE" transform="translate(361,616)"/>
<path d="M0,0 L3,0 L2,7 L6,7 L5,10 L0,8 Z " fill="#5E4BFA" transform="translate(604,600)"/>
<path d="M0,0 L1,0 L1,10 L-3,11 L-3,8 L-1,8 L-1,1 Z " fill="#5A50F3" transform="translate(707,588)"/>
<path d="M0,0 L5,3 L5,7 L7,7 L6,9 L1,8 L4,7 L4,4 L-2,4 L-2,2 L0,2 Z " fill="#473CD7" transform="translate(705,549)"/>
<path d="M0,0 L2,0 L4,6 L1,10 L-1,3 Z " fill="#5D49F4" transform="translate(631,526)"/>
<path d="M0,0 L8,0 L8,1 L1,1 L1,5 L-3,5 L-3,10 L-4,10 L-4,4 L0,2 Z " fill="#2719BE" transform="translate(382,364)"/>
<path d="M0,0 L6,4 L6,6 L9,7 L6,8 L2,7 L2,5 L0,5 Z " fill="#1C1095" transform="translate(600,336)"/>
<path d="M0,0 L7,0 L8,6 L6,6 L6,4 L0,2 Z " fill="#0E084C" transform="translate(647,337)"/>
<path d="M0,0 L5,0 L4,4 L0,4 L0,6 L-4,5 L-2,5 Z " fill="#2513D1" transform="translate(444,310)"/>
<path d="M0,0 L3,1 L4,5 L0,5 L0,3 L-5,3 L-5,1 Z " fill="#4F3FF1" transform="translate(404,650)"/>
<path d="M0,0 L2,1 L6,3 L7,5 L-6,4 L-2,2 Z " fill="#5648F1" transform="translate(696,616)"/>
<path d="M0,0 L10,0 L10,3 L0,3 Z " fill="#3C29F3" transform="translate(566,402)"/>
<path d="M0,0 L5,1 L6,2 L6,8 L4,7 L4,4 L0,3 Z " fill="#1F14BA" transform="translate(578,330)"/>
<path d="M0,0 L2,0 L2,2 L8,0 L12,1 L5,4 L0,4 Z " fill="#170F84" transform="translate(449,286)"/>
<path d="M0,0 L10,0 L11,4 L4,3 Z " fill="#010311" transform="translate(484,250)"/>
<path d="M0,0 L4,0 L4,6 L0,6 Z " fill="#07031B" transform="translate(815,607)"/>
<path d="M0,0 L2,0 L1,3 L-7,5 L-8,2 Z " fill="#584AF5" transform="translate(528,564)"/>
<path d="M0,0 L2,0 L2,3 L9,3 L9,5 L0,5 Z " fill="#4937F7" transform="translate(317,524)"/>
<path d="M0,0 L4,0 L4,2 L2,2 L3,5 L-4,6 L-5,4 L0,3 Z " fill="#473BF8" transform="translate(594,430)"/>
<path d="M0,0 L7,0 L7,7 L5,7 L5,2 L0,2 Z " fill="#3029F8" transform="translate(658,405)"/>
<path d="M0,0 L1,2 L9,2 L9,4 L11,5 L8,6 L-1,2 Z " fill="#150E7B" transform="translate(492,284)"/>
<path d="M0,0 L4,0 L4,6 L0,6 Z " fill="#08041D" transform="translate(597,271)"/>
<path d="M0,0 L3,1 L3,3 L8,3 L9,5 L7,5 L6,7 L6,5 L1,5 Z " fill="#2317CE" transform="translate(574,339)"/>
<path d="M0,0 L2,0 L3,9 L-1,9 Z " fill="#2416AF" transform="translate(437,299)"/>
<path d="M0,0 L4,0 L4,4 L7,5 L3,6 L3,4 L0,4 Z " fill="#6151F8" transform="translate(684,588)"/>
<path d="M0,0 L1,2 L0,5 L-3,7 L-6,7 L-4,3 Z " fill="#5D4AF6" transform="translate(612,567)"/>
<path d="M0,0 L4,1 L2,4 L-3,7 L-2,2 Z " fill="#544EFB" transform="translate(684,462)"/>
<path d="M0,0 L4,0 L4,5 L0,5 Z " fill="#140D70" transform="translate(623,337)"/>
<path d="M0,0 L9,2 L9,3 L-4,3 L-3,1 Z " fill="#4E3BEB" transform="translate(472,655)"/>
<path d="M0,0 L2,0 L2,2 L9,2 L9,4 L1,4 Z " fill="#4F3BF5" transform="translate(369,563)"/>
<path d="M0,0 L4,1 L4,8 L1,8 Z " fill="#291AD6" transform="translate(585,352)"/>
<path d="M0,0 L1,0 L2,8 L-2,8 L-2,2 L0,2 Z " fill="#170E76" transform="translate(586,341)"/>
<path d="M0,0 L1,0 L0,13 L-1,13 L-1,5 L-5,4 L-1,3 Z " fill="#160E6F" transform="translate(582,301)"/>
<path d="M0,0 L7,0 L10,2 L10,4 L5,4 L5,1 L0,1 Z " fill="#191090" transform="translate(491,292)"/>
<path d="M0,0 L1,3 L6,3 L6,4 L-5,4 L-2,1 Z " fill="#523FE6" transform="translate(639,631)"/>
<path d="M0,0 L4,0 L5,4 L2,4 L-1,4 Z M-2,4 Z " fill="#6455FC" transform="translate(508,540)"/>
<path d="M0,0 L5,0 L4,4 L-1,4 Z " fill="#504AF5" transform="translate(699,510)"/>
<path d="M0,0 L4,1 L5,3 L-8,3 L-8,1 Z " fill="#443EF7" transform="translate(664,431)"/>
<path d="M0,0 L5,0 L5,5 L1,4 Z " fill="#2E27EA" transform="translate(658,407)"/>
<path d="M0,0 L2,0 L1,4 L-2,6 L-3,1 Z " fill="#2D1ADC" transform="translate(404,346)"/>
<path d="M0,0 L6,1 L7,6 L2,4 L2,2 L0,2 Z " fill="#1E12AC" transform="translate(584,332)"/>
<path d="M0,0 L1,0 L1,8 L-2,7 L-2,2 Z " fill="#070318" transform="translate(577,252)"/>
<path d="M0,0 L3,0 L1,7 L-3,9 L-2,6 L0,6 L1,2 L-1,1 Z " fill="#5C4BF7" transform="translate(482,542)"/>
<path d="M0,0 L5,0 L4,2 L2,1 L2,5 L-2,4 Z " fill="#433CEB" transform="translate(717,512)"/>
<path d="M0,0 L1,4 L3,5 L1,5 L1,8 L-2,8 L-1,3 Z " fill="#4741E9" transform="translate(724,505)"/>
<path d="M0,0 L5,0 L6,3 L2,3 L-2,4 Z " fill="#473CF8" transform="translate(643,435)"/>
<path d="M0,0 L2,0 L2,2 L12,2 L12,3 L2,3 L1,5 Z " fill="#0A0633" transform="translate(600,376)"/>
<path d="M0,0 L8,0 L11,2 L10,4 L0,1 Z " fill="#160E84" transform="translate(490,288)"/>
<path d="M0,0 L2,1 L2,2 L7,3 L3,5 L-1,6 Z " fill="#5B4AF9" transform="translate(449,637)"/>
<path d="M0,0 L1,3 L4,3 L5,6 L1,8 L-1,3 Z " fill="#6352FA" transform="translate(656,596)"/>
<path d="M0,0 L2,0 L3,6 L0,6 L0,3 L-2,2 L0,2 Z " fill="#4B38EC" transform="translate(353,551)"/>
<path d="M0,0 L1,4 L-1,4 L-1,6 L-4,7 L-4,5 L-6,5 L-6,3 L0,3 Z " fill="#3C36D2" transform="translate(725,510)"/>
<path d="M0,0 L7,1 L5,2 L4,4 L0,3 Z " fill="#3F3CEE" transform="translate(712,445)"/>
<path d="M0,0 L5,0 L3,1 L3,5 L-1,4 Z " fill="#2F1EE4" transform="translate(594,375)"/>
<path d="M0,0 L2,0 L3,3 L2,5 L0,5 L-2,3 L-4,4 L-3,1 Z " fill="#3322F5" transform="translate(483,342)"/>
<path d="M0,0 L5,0 L4,3 L-4,2 Z " fill="#1B1087" transform="translate(596,329)"/>
<path d="M0,0 L10,0 L9,4 L6,2 L0,1 Z " fill="#180BAE" transform="translate(538,309)"/>
<path d="M0,0 L1,0 L2,8 L1,14 L0,14 L-1,6 Z " fill="#030110" transform="translate(437,280)"/>
<path d="M0,0 L4,0 L4,7 L1,4 Z " fill="#0E0B54" transform="translate(507,271)"/>
<path d="M0,0 L7,0 L6,4 L0,4 L4,2 Z " fill="#493CD3" transform="translate(698,618)"/>
<path d="M0,0 L1,0 L1,5 L6,5 L4,9 L0,6 Z " fill="#4331D0" transform="translate(354,612)"/>
<path d="M0,0 L2,0 L2,6 L0,7 L0,4 L-2,3 Z " fill="#6253FB" transform="translate(672,575)"/>
<path d="M0,0 L4,2 L0,6 L-1,1 Z " fill="#644EF8" transform="translate(648,540)"/>
<path d="M0,0 L6,1 L8,3 L3,3 L1,4 L1,2 L-1,1 Z " fill="#5A42FA" transform="translate(603,503)"/>
<path d="M0,0 L1,0 L1,5 L-3,5 L-3,1 Z " fill="#0B073B" transform="translate(690,350)"/>
<path d="M0,0 L5,0 L5,2 L2,2 L1,6 L0,5 Z " fill="#2617B9" transform="translate(423,309)"/>
<path d="M0,0 L4,1 L4,5 L0,5 Z " fill="#0A0841" transform="translate(485,262)"/>
<path d="M0,0 L1,0 L1,5 L-3,5 L-3,1 Z " fill="#0B0844" transform="translate(480,262)"/>
<path d="M0,0 L4,0 L4,4 L0,4 Z " fill="#080426" transform="translate(405,809)"/>
<path d="M0,0 L4,0 L4,4 L0,4 Z " fill="#070420" transform="translate(317,793)"/>
<path d="M0,0 L2,4 L3,6 L-1,6 L-2,2 Z " fill="#5A49F5" transform="translate(391,617)"/>
<path d="M0,0 L2,4 L-3,5 L-4,2 Z " fill="#6052FA" transform="translate(677,598)"/>
<path d="M0,0 L3,1 L2,5 L-1,5 Z " fill="#5543F8" transform="translate(416,547)"/>
<path d="M0,0 L8,1 L7,3 L-1,3 L-2,1 Z " fill="#3735D1" transform="translate(710,443)"/>
<path d="M0,0 L5,0 L5,5 L3,5 L3,2 L0,2 Z " fill="#3D38F8" transform="translate(676,425)"/>
<path d="M0,0 L1,3 L4,4 L0,8 Z " fill="#3826F0" transform="translate(338,424)"/>
<path d="M0,0 L8,1 L5,3 L-1,4 Z " fill="#4235F8" transform="translate(605,414)"/>
<path d="M0,0 L4,2 L3,4 L-4,4 L0,3 Z " fill="#402CF9" transform="translate(380,405)"/>
<path d="M0,0 L4,0 L4,4 L0,4 Z " fill="#090524" transform="translate(763,401)"/>
<path d="M0,0 L4,0 L4,3 L-2,3 L-2,1 Z " fill="#3727F1" transform="translate(556,392)"/>
<path d="M0,0 L4,0 L4,4 L0,4 Z " fill="#2516B7" transform="translate(647,371)"/>
<path d="M0,0 L2,0 L2,5 L-2,5 L-1,1 Z " fill="#3B29FA" transform="translate(424,364)"/>
<path d="M0,0 L4,0 L4,4 L0,4 Z " fill="#0B0630" transform="translate(289,347)"/>
<path d="M0,0 L7,0 L3,3 L-1,3 Z " fill="#2C19EF" transform="translate(497,333)"/>
<path d="M0,0 L2,0 L0,5 L-3,8 L-2,2 L0,2 Z " fill="#2A17D2" transform="translate(424,324)"/>
<path d="M0,0 L3,0 L3,5 L-1,3 Z " fill="#2815EB" transform="translate(483,320)"/>
<path d="M0,0 L3,2 L2,5 L-6,3 L-6,2 L0,2 Z " fill="#1A0E9B" transform="translate(510,297)"/>
<path d="M0,0 L4,0 L4,4 L0,4 Z " fill="#0A0842" transform="translate(499,265)"/>
<path d="M0,0 L6,0 L5,3 L2,4 L2,2 L0,2 Z " fill="#4E40DD" transform="translate(705,613)"/>
<path d="M0,0 L2,1 L1,6 L-2,9 Z " fill="#614FF9" transform="translate(502,544)"/>
<path d="M0,0 L6,1 L5,3 L1,4 Z " fill="#504AF6" transform="translate(688,509)"/>
<path d="M0,0 L4,1 L4,4 L0,4 Z " fill="#0E0A48" transform="translate(677,351)"/>
<path d="M0,0 L4,0 L3,4 L2,3 L0,5 Z " fill="#07041F" transform="translate(335,799)"/>
<path d="M0,0 L6,1 L6,3 L0,3 Z " fill="#4F3CE5" transform="translate(593,642)"/>
<path d="M0,0 L2,3 L2,6 L-1,6 L-1,1 Z " fill="#5744F0" transform="translate(669,627)"/>
<path d="M0,0 L4,1 L-3,6 L-1,1 Z " fill="#5B4DF5" transform="translate(674,612)"/>
<path d="M0,0 L2,0 L2,2 L5,2 L5,4 L0,4 Z " fill="#4E39F9" transform="translate(345,605)"/>
<path d="M0,0 Z M-2,1 L0,2 L-5,6 L-6,4 L-5,2 Z " fill="#5745F2" transform="translate(384,579)"/>
<path d="M0,0 L6,0 L3,2 L-2,4 Z " fill="#5643F3" transform="translate(389,574)"/>
<path d="M0,0 L2,0 L2,2 L6,2 L5,4 L0,3 Z " fill="#4B37EE" transform="translate(333,535)"/>
<path d="M0,0 L3,1 L3,5 L-1,4 Z " fill="#5440F8" transform="translate(595,463)"/>
<path d="M0,0 L8,1 L4,2 L0,3 Z " fill="#4A3CF6" transform="translate(632,447)"/>
<path d="M0,0 L6,2 L7,4 L1,3 Z " fill="#3D38ED" transform="translate(672,428)"/>
<path d="M0,0 L1,3 L-3,5 L-3,1 Z " fill="#3D2BF6" transform="translate(435,408)"/>
<path d="M0,0 L5,0 L6,3 L1,3 Z M3,1 Z " fill="#4331F9" transform="translate(481,397)"/>
<path d="M0,0 L1,4 L5,5 L-2,6 L-2,4 L0,4 Z " fill="#261EC7" transform="translate(649,390)"/>
<path d="M0,0 L2,0 L2,3 L4,3 L4,5 L0,5 Z " fill="#0A083A" transform="translate(615,300)"/>
<path d="M0,0 L2,1 L0,2 Z M-1,2 L1,6 L-2,6 Z " fill="#5C46F4" transform="translate(621,541)"/>
<path d="M0,0 L3,1 L1,7 L0,7 Z " fill="#4A36F9" transform="translate(422,439)"/>
<path d="M0,0 L4,1 L2,2 L1,4 L-3,2 L0,2 Z " fill="#312DE7" transform="translate(669,413)"/>
<path d="M0,0 L2,0 L3,5 L-2,3 Z " fill="#4732F6" transform="translate(568,414)"/>
<path d="M0,0 L4,0 L5,3 L0,3 Z " fill="#170D88" transform="translate(602,333)"/>
<path d="M0,0 L4,0 L4,3 L-3,2 Z " fill="#1C1091" transform="translate(596,332)"/>
<path d="M0,0 L2,0 L2,2 L5,2 L5,4 L0,3 Z " fill="#2B1ADB" transform="translate(413,331)"/>
<path d="M0,0 L3,3 L-3,3 L-3,1 Z " fill="#4A37E6" transform="translate(511,662)"/>
<path d="M0,0 L1,4 L-3,6 L-4,3 L0,3 Z " fill="#4433D0" transform="translate(585,650)"/>
<path d="M0,0 L5,1 L5,3 L-1,2 Z " fill="#5542F4" transform="translate(469,648)"/>
<path d="M0,0 Z M-4,0 L0,2 L-3,4 L-6,1 Z " fill="#5E4DF8" transform="translate(628,608)"/>
<path d="M0,0 L2,2 L-3,5 L-3,2 Z " fill="#4837F9" transform="translate(412,447)"/>
<path d="M0,0 L3,1 L2,5 L0,5 Z " fill="#3623EB" transform="translate(369,379)"/>
<path d="M0,0 L1,3 L-1,6 L-1,3 L-3,3 L-3,1 Z " fill="#2315B9" transform="translate(374,354)"/>
<path d="M0,0 L2,0 L2,2 L4,2 L4,4 L0,4 Z " fill="#0D0A43" transform="translate(527,271)"/>
<path d="M0,0 L2,0 L2,4 L-1,4 Z " fill="#4C3AEF" transform="translate(522,663)"/>
<path d="M0,0 L4,1 L3,3 L-1,2 Z " fill="#5D4DF8" transform="translate(405,624)"/>
<path d="M0,0 L6,3 L6,4 L1,4 Z " fill="#4D3BEE" transform="translate(383,561)"/>
<path d="M0,0 L3,0 L2,4 L0,4 Z " fill="#584AF5" transform="translate(496,512)"/>
<path d="M0,0 L2,1 L2,3 L-3,5 L-1,1 Z " fill="#554FFA" transform="translate(703,501)"/>
<path d="M0,0 L4,1 L1,4 Z " fill="#4F40F1" transform="translate(632,472)"/>
<path d="M0,0 L3,1 L3,5 L1,5 Z " fill="#2314CE" transform="translate(605,370)"/>
<path d="M0,0 L2,0 L3,4 L-2,3 L0,2 Z " fill="#2215A9" transform="translate(602,351)"/>
<path d="M0,0 L3,1 L3,4 L0,4 Z " fill="#030210" transform="translate(699,328)"/>
<path d="M0,0 L2,1 L1,4 L-2,4 L-2,1 Z " fill="#0D094C" transform="translate(448,284)"/>
<path d="M0,0 L3,0 L2,4 L0,3 Z " fill="#5041E8" transform="translate(704,615)"/>
<path d="M0,0 L3,0 L2,4 L0,4 Z " fill="#4E3AF3" transform="translate(351,549)"/>
<path d="M0,0 L3,1 L2,4 L0,4 Z " fill="#5A48F9" transform="translate(640,495)"/>
<path d="M0,0 L3,0 L3,4 L1,4 Z " fill="#1F12A7" transform="translate(604,351)"/>
<path d="M0,0 L3,1 L0,4 L0,2 L-2,1 Z " fill="#2216B4" transform="translate(421,315)"/>
<path d="M0,0 L2,0 L3,4 L0,4 Z " fill="#0A052A" transform="translate(603,281)"/>
<path d="M0,0 L2,3 L-2,5 Z " fill="#5B4AF4" transform="translate(682,558)"/>
<path d="M0,0 L3,0 L3,3 L0,3 Z " fill="#4F3CFB" transform="translate(413,481)"/>
<path d="M0,0 L2,0 L2,2 L4,3 L1,4 Z " fill="#2818C0" transform="translate(369,355)"/>
<path d="M0,0 L3,0 L1,4 Z " fill="#2C19D0" transform="translate(401,347)"/>
<path d="M0,0 L2,1 L1,4 L-1,3 Z " fill="#4E3EE9" transform="translate(378,624)"/>
<path d="M0,0 L2,0 L1,3 L-2,2 Z " fill="#6250F7" transform="translate(681,598)"/>
<path d="M0,0 L3,0 L3,3 L0,2 Z " fill="#4C38EE" transform="translate(367,559)"/>
<path d="M0,0 L2,0 L0,4 L-1,1 Z " fill="#5B4DF8" transform="translate(561,551)"/>
<path d="M0,0 L2,2 L0,6 L-1,1 Z " fill="#5544F1" transform="translate(684,547)"/>
<path d="M0,0 L2,0 L0,4 L-1,1 Z " fill="#5C46F9" transform="translate(615,524)"/>
<path d="M0,0 L4,1 L1,3 Z " fill="#402FE8" transform="translate(318,510)"/>
<path d="M0,0 L3,2 L-1,4 Z " fill="#4D41F9" transform="translate(651,452)"/>
<path d="M0,0 L3,1 L3,3 L0,3 Z " fill="#412FF5" transform="translate(424,417)"/>
<path d="M0,0 L3,1 L0,4 Z " fill="#3120F7" transform="translate(512,350)"/>
<path d="M0,0 L4,1 L3,3 L1,3 Z " fill="#2416BA" transform="translate(586,340)"/>
<path d="M0,0 L4,2 L1,3 Z " fill="#070528" transform="translate(502,286)"/>
<path d="M0,0 L4,2 L0,3 Z " fill="#5A48F6" transform="translate(488,565)"/>
<path d="M0,0 L2,0 L2,3 L-1,2 Z " fill="#4B37F7" transform="translate(371,501)"/>
<path d="M0,0 L3,0 L2,3 L0,2 Z " fill="#5549F9" transform="translate(654,488)"/>
<path d="M0,0 L4,1 L2,3 Z " fill="#4232F6" transform="translate(347,476)"/>
<path d="M0,0 L2,1 L2,3 L-1,3 Z " fill="#0D0841" transform="translate(679,351)"/>
</svg>
