<?xml version="1.0" encoding="UTF-8"?>
<!-- Generator: visioncortex VTracer 0.6.4 -->
<svg version="1.1" xmlns="http://www.w3.org/2000/svg" width="1024" height="1024">
<path d="M0,0 L1024,0 L1024,1024 L0,1024 Z " fill="#000000" transform="translate(0,0)"/>
<path d="M0,0 L6,0 L6,2 L18,2 L20,4 L21,12 L24,15 L30,16 L44,16 L44,18 L50,18 L50,20 L56,20 L56,18 L76,18 L76,16 L94,16 L96,18 L96,24 L94,24 L94,28 L104,28 L104,36 L98,36 L98,38 L94,38 L94,44 L92,44 L92,46 L78,47 L77,52 L82,54 L82,56 L87,57 L88,62 L96,62 L98,67 L100,69 L110,70 L112,72 L112,78 L110,78 L110,82 L112,82 L112,90 L114,90 L114,92 L120,92 L120,94 L126,94 L128,99 L130,100 L130,104 L132,104 L132,108 L134,108 L134,106 L152,106 L154,110 L160,110 L160,108 L176,108 L178,112 L184,112 L186,114 L186,120 L188,120 L188,122 L194,122 L196,124 L196,130 L202,130 L204,132 L204,136 L206,136 L206,138 L211,139 L212,142 L218,142 L222,146 L222,148 L230,148 L230,154 L235,155 L236,160 L244,160 L246,165 L248,167 L253,169 L256,172 L256,176 L258,176 L258,184 L260,184 L260,194 L262,194 L262,208 L260,208 L260,214 L258,214 L258,230 L250,237 L245,242 L244,248 L242,248 L242,252 L239,254 L238,262 L236,262 L236,270 L241,271 L242,272 L242,278 L246,280 L250,284 L250,286 L256,286 L256,318 L254,318 L254,320 L250,320 L250,322 L246,322 L246,328 L242,332 L238,332 L238,334 L233,336 L232,340 L228,340 L228,342 L218,342 L218,344 L213,346 L212,348 L194,348 L194,350 L187,352 L186,356 L176,356 L176,358 L172,358 L172,360 L156,360 L156,362 L146,362 L146,364 L124,364 L124,368 L114,369 L112,372 L105,374 L104,380 L97,382 L96,384 L80,384 L80,388 L70,388 L70,386 L68,386 L68,390 L36,390 L36,386 L32,386 L32,390 L24,390 L24,384 L16,384 L16,382 L14,382 L14,384 L8,384 L8,382 L-2,382 L-2,380 L-4,380 L-4,382 L-28,382 L-28,380 L-38,380 L-38,382 L-44,382 L-44,380 L-58,380 L-58,378 L-62,378 L-62,376 L-68,376 L-68,374 L-72,374 L-72,370 L-76,368 L-78,365 L-83,363 L-84,362 L-84,356 L-86,356 L-86,350 L-92,350 L-94,347 L-106,346 L-106,344 L-111,343 L-114,339 L-118,338 L-118,334 L-122,332 L-122,328 L-124,328 L-124,310 L-116,302 L-106,302 L-106,300 L-100,300 L-98,296 L-96,296 L-97,284 L-98,283 L-106,282 L-110,277 L-116,276 L-116,274 L-122,274 L-126,270 L-126,266 L-132,266 L-137,261 L-138,256 L-142,256 L-142,248 L-147,247 L-148,242 L-152,242 L-152,240 L-156,240 L-156,230 L-152,228 L-152,222 L-148,222 L-148,218 L-154,218 L-154,212 L-148,212 L-148,204 L-146,204 L-146,200 L-144,200 L-144,176 L-140,174 L-140,168 L-136,166 L-136,130 L-128,130 L-128,116 L-118,106 L-114,106 L-113,101 L-110,98 L-104,98 L-102,94 L-96,94 L-94,90 L-92,88 L-88,88 L-86,84 L-78,78 L-72,78 L-71,73 L-70,72 L-58,72 L-58,66 L-56,64 L-52,64 L-52,62 L-50,62 L-50,56 L-46,56 L-46,54 L-44,54 L-44,46 L-36,46 L-36,38 L-24,38 L-24,36 L-28,36 L-28,30 L-20,30 L-20,28 L-14,28 L-14,22 L-12,22 L-12,16 L-8,16 L-8,14 L-10,14 L-10,10 L-12,10 L-12,4 L-2,4 Z " fill="#4F3EF6" transform="translate(470,280)"/>
<path d="M0,0 L6,0 L6,2 L18,2 L20,4 L21,12 L24,15 L30,16 L44,16 L44,18 L50,18 L50,20 L56,20 L56,18 L76,18 L76,16 L94,16 L96,18 L96,24 L94,24 L94,28 L104,28 L104,36 L98,36 L98,38 L94,38 L94,44 L92,44 L92,46 L78,47 L77,52 L82,54 L82,56 L87,57 L88,62 L96,62 L98,67 L100,69 L110,70 L112,72 L112,78 L110,78 L110,82 L112,82 L112,90 L114,90 L114,92 L120,92 L120,94 L126,94 L128,99 L130,100 L130,104 L132,104 L132,108 L134,108 L134,106 L152,106 L154,110 L160,110 L160,108 L176,108 L178,112 L184,112 L186,114 L186,120 L188,120 L188,122 L194,122 L196,124 L196,130 L202,130 L204,132 L204,136 L206,136 L206,138 L211,139 L212,142 L218,142 L222,146 L222,148 L230,148 L230,154 L229,154 L229,149 L221,149 L217,144 L209,144 L205,142 L204,139 L205,137 L202,137 L201,139 L199,134 L197,134 L197,132 L186,131 L186,129 L184,129 L184,125 L176,124 L176,118 L175,117 L168,118 L146,118 L143,117 L143,114 L139,113 L138,115 L133,115 L131,109 L128,108 L128,106 L126,106 L125,109 L122,109 L120,109 L117,104 L116,96 L111,95 L111,93 L108,92 L107,85 L105,80 L107,75 L98,74 L93,67 L91,66 L92,72 L88,76 L88,73 L90,73 L90,70 L87,70 L86,66 L83,65 L81,67 L79,65 L75,66 L72,69 L68,69 L69,72 L64,74 L64,72 L60,73 L60,71 L58,71 L58,74 L56,74 L54,72 L54,69 L51,69 L51,67 L48,67 L47,64 L56,62 L49,61 L52,56 L58,57 L62,56 L63,61 L66,61 L66,59 L71,58 L71,56 L67,56 L67,54 L69,53 L69,51 L59,50 L50,51 L47,51 L46,53 L41,52 L42,48 L35,48 L32,51 L32,49 L26,49 L22,45 L22,42 L15,43 L11,45 L10,47 L12,48 L9,48 L6,47 L3,38 L-2,39 L-3,36 L-6,36 L-6,34 L-8,36 L-8,38 L-6,39 L-6,41 L-11,43 L-13,48 L-18,47 L-18,45 L-21,45 L-21,52 L-25,53 L-26,57 L-28,57 L-28,53 L-33,53 L-35,57 L-37,59 L-41,58 L-41,61 L-42,62 L-39,62 L-40,64 L-47,70 L-51,74 L-54,80 L-54,85 L-58,84 L-56,84 L-57,80 L-64,84 L-65,81 L-71,88 L-72,92 L-80,95 L-84,95 L-83,99 L-84,104 L-88,103 L-89,97 L-94,101 L-99,101 L-104,106 L-104,102 L-107,103 L-110,108 L-113,113 L-116,114 L-119,117 L-121,118 L-122,121 L-120,122 L-124,124 L-124,127 L-119,126 L-117,123 L-116,125 L-116,134 L-115,136 L-120,135 L-124,134 L-124,138 L-123,147 L-125,148 L-127,141 L-127,134 L-131,135 L-131,159 L-133,168 L-135,173 L-137,175 L-140,184 L-137,185 L-137,193 L-138,200 L-136,201 L-141,205 L-145,213 L-148,216 L-144,218 L-143,224 L-148,229 L-151,232 L-151,237 L-148,239 L-151,239 L-151,241 L-148,242 L-152,242 L-152,240 L-156,240 L-156,230 L-152,228 L-152,222 L-148,222 L-148,218 L-154,218 L-154,212 L-148,212 L-148,204 L-146,204 L-146,200 L-144,200 L-144,176 L-140,174 L-140,168 L-136,166 L-136,130 L-128,130 L-128,116 L-118,106 L-114,106 L-113,101 L-110,98 L-104,98 L-102,94 L-96,94 L-94,90 L-92,88 L-88,88 L-86,84 L-78,78 L-72,78 L-71,73 L-70,72 L-58,72 L-58,66 L-56,64 L-52,64 L-52,62 L-50,62 L-50,56 L-46,56 L-46,54 L-44,54 L-44,46 L-36,46 L-36,38 L-24,38 L-24,36 L-28,36 L-28,30 L-20,30 L-20,28 L-14,28 L-14,22 L-12,22 L-12,16 L-8,16 L-8,14 L-10,14 L-10,10 L-12,10 L-12,4 L-2,4 Z M-40,56 Z M-106,106 L-104,107 L-106,108 Z M-107,108 Z M-108,109 Z " fill="#2211E2" transform="translate(470,280)"/>
<path d="M0,0 L1,3 L3,3 L4,0 L6,5 L12,6 L13,4 L16,5 L16,9 L21,9 L22,14 L29,16 L31,18 L38,19 L38,22 L42,22 L42,24 L44,23 L43,18 L50,20 L51,23 L53,24 L54,27 L56,29 L51,32 L54,35 L64,34 L73,29 L78,29 L75,32 L69,35 L65,36 L62,41 L59,41 L58,45 L53,50 L53,53 L47,53 L51,48 L53,46 L56,46 L56,41 L53,40 L51,44 L46,44 L43,46 L41,50 L45,52 L40,52 L42,64 L43,68 L42,75 L52,75 L55,74 L58,75 L61,79 L61,81 L63,81 L62,87 L64,92 L68,93 L69,94 L69,100 L68,104 L68,115 L67,117 L69,117 L70,114 L70,116 L86,116 L86,118 L96,119 L101,118 L118,118 L118,121 L132,121 L133,120 L146,120 L146,122 L154,122 L155,120 L160,120 L165,117 L168,117 L168,121 L190,121 L190,119 L196,118 L201,119 L202,120 L208,120 L211,119 L212,122 L218,122 L226,119 L230,119 L230,117 L233,115 L238,115 L238,112 L244,111 L244,108 L258,108 L259,104 L265,100 L270,100 L272,104 L284,104 L294,105 L294,106 L284,106 L284,108 L262,108 L262,112 L252,113 L250,116 L243,118 L242,124 L235,126 L234,128 L218,128 L218,132 L208,132 L208,130 L206,130 L206,134 L174,134 L174,130 L170,130 L170,134 L162,134 L162,128 L154,128 L154,126 L152,126 L152,128 L146,128 L146,126 L136,126 L136,124 L134,124 L134,126 L110,126 L110,124 L100,124 L100,126 L94,126 L94,124 L80,124 L80,122 L76,122 L76,120 L70,120 L70,118 L66,118 L66,114 L62,112 L60,109 L55,107 L54,106 L54,100 L52,100 L52,94 L46,94 L44,91 L32,90 L32,88 L27,87 L24,83 L20,82 L20,78 L16,76 L16,72 L14,72 L14,54 L22,46 L32,46 L32,44 L38,44 L40,40 L42,40 L41,28 L40,27 L32,26 L28,21 L22,20 L22,18 L16,18 L12,14 L12,10 L6,10 L1,5 Z M78,28 Z " fill="#5340F1" transform="translate(332,536)"/>
<path d="M0,0 L6,0 L6,2 L18,2 L20,4 L21,12 L24,15 L30,16 L44,16 L44,18 L50,18 L50,20 L56,20 L56,18 L76,18 L76,16 L94,16 L96,18 L96,24 L94,24 L94,28 L104,28 L104,36 L98,36 L98,38 L94,38 L94,44 L92,44 L92,46 L78,46 L78,45 L91,45 L91,43 L80,43 L76,41 L72,40 L72,38 L63,39 L63,36 L49,36 L48,33 L36,32 L38,31 L38,29 L35,28 L35,25 L28,26 L15,23 L8,21 L-7,21 L-11,24 L-13,23 L-12,30 L-19,29 L-19,31 L-27,31 L-27,35 L-24,36 L-28,36 L-28,30 L-20,30 L-20,28 L-14,28 L-14,22 L-12,22 L-12,16 L-8,16 L-8,14 L-10,14 L-10,10 L-12,10 L-12,4 L-2,4 Z " fill="#1C0DAD" transform="translate(470,280)"/>
<path d="M0,0 L2,4 L1,12 L5,12 L11,10 L11,12 L13,12 L13,22 L12,24 L14,24 L15,21 L15,23 L31,23 L31,25 L41,26 L46,25 L63,25 L63,28 L77,28 L78,27 L91,27 L91,29 L99,29 L100,27 L105,27 L110,24 L113,24 L113,28 L135,28 L135,26 L141,25 L146,26 L147,27 L153,27 L156,26 L157,29 L163,29 L171,26 L175,26 L175,24 L178,22 L183,22 L183,19 L189,18 L189,15 L203,15 L204,11 L210,7 L215,7 L217,11 L229,11 L239,12 L239,13 L229,13 L229,15 L207,15 L207,19 L197,20 L195,23 L188,25 L187,31 L180,33 L179,35 L163,35 L163,39 L153,39 L153,37 L151,37 L151,41 L119,41 L119,37 L115,37 L115,41 L107,41 L107,35 L99,35 L99,33 L97,33 L97,35 L91,35 L91,33 L81,33 L81,31 L79,31 L79,33 L55,33 L55,31 L45,31 L45,33 L39,33 L39,31 L25,31 L25,29 L21,29 L21,27 L15,27 L15,25 L11,25 L11,21 L7,19 L5,16 L0,14 L-1,13 L-1,7 L-3,7 L-3,1 L-2,1 L-2,6 L0,6 Z " fill="#4A39EC" transform="translate(387,629)"/>
<path d="M0,0 L15,0 L20,2 L20,4 L24,4 L24,6 L30,6 L30,8 L42,8 L42,10 L50,10 L50,12 L62,12 L62,14 L70,14 L70,12 L74,12 L74,10 L80,10 L80,12 L88,12 L88,14 L92,14 L92,20 L82,20 L80,16 L78,16 L78,22 L74,26 L54,26 L54,28 L50,28 L50,34 L42,34 L42,36 L35,36 L33,26 L29,26 L10,26 L9,25 L0,24 L0,18 L-2,18 L-2,16 L-6,16 L-6,10 L-2,10 L-2,8 L0,8 Z " fill="#04011E" transform="translate(644,308)"/>
<path d="M0,0 L3,1 L2,2 L5,2 L4,4 L-3,10 L-7,14 L-10,20 L-10,25 L-14,24 L-12,24 L-13,20 L-20,24 L-21,21 L-27,28 L-28,32 L-36,35 L-40,35 L-39,39 L-40,44 L-44,43 L-45,37 L-50,41 L-55,41 L-60,46 L-60,42 L-63,43 L-66,48 L-69,53 L-72,54 L-75,57 L-77,58 L-78,61 L-76,62 L-80,64 L-80,67 L-75,66 L-73,63 L-72,65 L-72,74 L-71,76 L-76,75 L-80,74 L-80,78 L-79,87 L-81,88 L-83,81 L-83,74 L-87,75 L-87,99 L-89,108 L-91,113 L-93,115 L-96,124 L-93,125 L-93,133 L-94,140 L-92,141 L-97,145 L-101,153 L-104,156 L-100,158 L-99,164 L-104,169 L-107,172 L-107,177 L-104,179 L-107,179 L-107,181 L-104,182 L-108,182 L-108,180 L-112,180 L-112,170 L-108,168 L-108,162 L-104,162 L-104,158 L-110,158 L-110,152 L-104,152 L-104,144 L-102,144 L-102,140 L-100,140 L-100,116 L-96,114 L-96,108 L-92,106 L-92,70 L-84,70 L-84,56 L-74,46 L-70,46 L-69,41 L-66,38 L-60,38 L-58,34 L-52,34 L-50,30 L-48,28 L-44,28 L-42,24 L-34,18 L-28,18 L-27,13 L-26,12 L-13,12 L-13,8 L-6,9 L-4,5 L-1,4 Z M-62,46 L-60,47 L-62,48 Z M-63,48 Z M-64,49 Z " fill="#311FED" transform="translate(426,340)"/>
<path d="M0,0 L5,2 L5,5 L30,5 L37,4 L39,7 L38,12 L44,12 L46,13 L46,17 L48,17 L48,19 L55,19 L59,20 L59,22 L61,22 L63,26 L67,25 L67,30 L74,31 L79,31 L83,35 L83,37 L91,37 L91,42 L96,42 L98,44 L98,48 L106,48 L108,53 L110,55 L115,57 L118,60 L117,64 L114,59 L106,56 L106,53 L104,53 L105,49 L103,49 L103,52 L96,52 L92,50 L92,47 L87,45 L82,42 L82,44 L75,44 L68,41 L68,39 L59,39 L58,41 L56,41 L56,37 L48,36 L49,27 L43,27 L39,30 L37,24 L35,24 L32,27 L32,24 L27,23 L27,19 L36,19 L36,17 L31,16 L24,18 L18,16 L18,14 L20,14 L20,12 L10,13 L7,18 L6,16 L1,17 L-1,11 L-4,11 L-3,6 Z " fill="#3B34F4" transform="translate(608,392)"/>
<path d="M0,0 L3,0 L3,5 L5,5 L5,13 L14,14 L14,16 L20,16 L22,21 L24,22 L24,26 L26,26 L26,30 L28,30 L28,28 L46,28 L48,32 L54,32 L54,30 L70,30 L72,34 L78,34 L80,36 L80,42 L82,42 L82,44 L88,44 L90,46 L90,52 L96,52 L98,54 L98,58 L100,58 L100,60 L105,61 L106,64 L112,64 L116,68 L116,70 L124,70 L124,76 L123,76 L123,71 L115,71 L111,66 L103,66 L99,64 L98,61 L99,59 L96,59 L95,61 L93,56 L91,56 L91,54 L80,53 L80,51 L78,51 L78,47 L70,46 L70,40 L69,39 L62,40 L40,40 L37,39 L37,36 L33,35 L32,37 L27,37 L25,31 L22,30 L22,28 L20,28 L19,31 L16,31 L14,31 L11,26 L10,18 L5,17 L5,15 L2,14 L1,7 L-1,2 Z " fill="#3025EE" transform="translate(576,358)"/>
<path d="M0,0 L29,2 L33,3 L39,3 L41,8 L48,9 L48,11 L54,11 L54,13 L59,13 L59,15 L62,15 L62,17 L74,17 L76,19 L64,20 L61,20 L60,22 L55,21 L56,17 L49,17 L46,20 L46,18 L40,18 L36,14 L36,11 L29,12 L25,14 L24,16 L26,17 L23,17 L20,16 L17,7 L12,8 L11,5 L8,5 L8,3 L6,5 L6,7 L8,8 L8,10 L3,12 L1,17 L-4,16 L-4,14 L-7,14 L-7,21 L-11,22 L-12,26 L-14,26 L-14,22 L-19,22 L-21,26 L-23,28 L-27,27 L-31,33 L-34,33 L-35,26 L-31,26 L-31,24 L-29,24 L-28,19 L-26,18 L-26,17 L-20,17 L-20,11 L-13,10 L-13,8 L-9,7 L-9,5 L-4,4 L-4,2 Z M-26,25 Z " fill="#2714ED" transform="translate(456,311)"/>
<path d="M0,0 L4,1 L4,4 L12,4 L13,0 L34,0 L44,2 L49,3 L50,5 L59,7 L59,5 L62,5 L62,11 L57,11 L57,14 L53,14 L53,20 L51,20 L51,22 L37,22 L37,21 L50,21 L50,19 L39,19 L35,17 L31,16 L31,14 L22,15 L22,12 L8,12 L7,9 L-5,8 L-3,7 L-3,5 L-5,4 L0,3 Z " fill="#1D0EC0" transform="translate(511,304)"/>
<path d="M0,0 L3,0 L18,0 L28,3 L38,5 L45,5 L46,8 L48,9 L48,11 L58,13 L59,15 L73,16 L73,19 L82,18 L82,20 L91,21 L91,22 L101,23 L101,25 L88,25 L86,32 L85,28 L78,27 L82,25 L83,24 L80,22 L58,20 L53,19 L53,15 L43,14 L27,10 L26,7 L22,6 L22,4 L0,5 L2,8 L7,10 L8,12 L-4,12 L-8,13 L-8,15 L-10,15 L-11,18 L-11,16 L-13,16 L-12,19 L-17,19 L-17,21 L-22,22 L-23,25 L-24,28 L-26,30 L-30,30 L-31,34 L-33,36 L-35,35 L-34,38 L-36,38 L-37,42 L-37,37 L-39,37 L-37,45 L-42,50 L-47,48 L-48,52 L-48,46 L-46,44 L-42,44 L-42,42 L-40,42 L-40,36 L-36,36 L-36,34 L-34,34 L-34,26 L-26,26 L-26,18 L-14,18 L-14,15 L-17,15 L-17,11 L-9,11 L-9,9 L-2,10 L-3,3 L-1,3 Z " fill="#2011D1" transform="translate(460,300)"/>
<path d="M0,0 L18,0 L19,1 L33,2 L38,4 L38,2 L58,2 L58,4 L60,4 L62,9 L62,18 L56,18 L56,16 L52,16 L52,18 L40,18 L40,12 L35,11 L0,10 Z " fill="#020117" transform="translate(518,248)"/>
<path d="M0,0 L2,2 L2,11 L3,13 L-2,12 L-6,11 L-6,15 L-5,24 L-7,25 L-9,18 L-9,11 L-13,12 L-13,36 L-15,45 L-17,50 L-19,52 L-22,61 L-19,62 L-19,70 L-20,77 L-18,78 L-23,82 L-27,90 L-30,93 L-26,95 L-25,101 L-30,106 L-33,109 L-33,114 L-30,116 L-33,116 L-33,118 L-30,119 L-34,119 L-34,117 L-38,117 L-38,107 L-34,105 L-34,99 L-30,99 L-30,95 L-36,95 L-36,89 L-30,89 L-30,81 L-28,81 L-28,77 L-26,77 L-26,53 L-22,51 L-22,45 L-20,43 L-17,43 L-17,8 L-6,9 L-6,4 L-1,3 Z " fill="#3828EC" transform="translate(352,403)"/>
<path d="M0,0 L4,0 L4,3 L12,3 L12,5 L23,7 L23,15 L24,15 L25,24 L25,43 L23,44 L23,50 L21,52 L18,52 L15,58 L12,60 L11,63 L5,64 L4,66 L2,66 L0,67 L0,65 L-2,65 L-3,67 L-4,62 L0,59 L6,59 L8,53 L10,49 L8,48 L11,48 L11,46 L7,46 L8,43 L12,42 L13,35 L16,33 L19,30 L20,18 L17,19 L17,16 L12,16 L11,10 L1,10 L0,7 L-6,8 L-8,6 L0,6 Z M18,15 Z " fill="#4A4CF1" transform="translate(704,450)"/>
<path d="M0,0 L6,0 L6,2 L10,3 L11,4 L11,10 L23,11 L24,12 L24,18 L33,20 L37,22 L38,28 L37,29 L46,29 L48,30 L48,32 L41,32 L41,35 L34,35 L32,25 L28,25 L9,25 L8,24 L-1,23 L-1,17 L-3,17 L-3,15 L-7,15 L-7,9 L-3,9 L-3,7 L-1,6 Z " fill="#070325" transform="translate(645,309)"/>
<path d="M0,0 L5,2 L5,5 L30,5 L37,4 L39,7 L38,12 L44,12 L46,13 L46,17 L48,17 L48,19 L55,19 L59,20 L59,22 L61,22 L63,26 L66,29 L66,32 L61,32 L61,27 L51,26 L48,22 L42,20 L38,20 L36,19 L36,17 L31,16 L24,18 L18,16 L18,14 L20,14 L20,12 L10,13 L7,18 L6,16 L1,17 L-1,11 L-4,11 L-3,6 Z " fill="#3529F5" transform="translate(608,392)"/>
<path d="M0,0 L20,0 L20,2 L26,2 L26,4 L32,4 L32,2 L52,2 L52,0 L70,0 L72,2 L72,8 L70,8 L70,12 L80,12 L80,20 L74,20 L74,19 L79,19 L79,13 L76,13 L76,15 L67,14 L66,11 L59,10 L47,9 L31,9 L29,10 L29,12 L21,12 L21,9 L17,8 L17,11 L11,12 L11,7 L7,5 L0,1 Z " fill="#180B8E" transform="translate(494,296)"/>
<path d="M0,0 L2,4 L1,12 L5,12 L11,10 L11,12 L13,12 L13,22 L12,24 L14,24 L15,21 L15,23 L31,23 L31,25 L41,26 L46,25 L63,25 L63,28 L83,29 L82,32 L99,31 L102,32 L100,32 L100,34 L107,34 L107,35 L99,35 L99,33 L97,33 L97,35 L91,35 L91,33 L81,33 L81,31 L79,31 L79,33 L55,33 L55,31 L45,31 L45,33 L39,33 L39,31 L25,31 L25,29 L21,29 L21,27 L15,27 L15,25 L11,25 L11,21 L7,19 L5,16 L0,14 L-1,13 L-1,7 L-3,7 L-3,1 L-2,1 L-2,6 L0,6 Z " fill="#4C39EC" transform="translate(387,629)"/>
<path d="M0,0 L6,0 L6,4 L8,4 L8,8 L12,8 L12,12 L14,12 L14,16 L16,16 L16,26 L8,26 L8,22 L4,20 L4,18 L2,18 L2,22 L-1,24 L-6,24 L-6,22 L-10,22 L-10,20 L-12,20 L-12,14 L-9,14 L-10,7 L-8,2 L0,2 Z " fill="#020119" transform="translate(638,280)"/>
<path d="M0,0 L15,0 L20,2 L20,4 L24,4 L24,6 L30,6 L30,8 L42,8 L42,10 L50,10 L50,12 L62,12 L62,14 L70,14 L70,12 L74,12 L74,10 L80,10 L80,12 L88,12 L88,14 L92,14 L92,20 L82,20 L80,16 L78,16 L78,22 L74,26 L54,26 L54,28 L50,27 L53,27 L52,24 L54,23 L54,25 L72,24 L72,21 L74,20 L75,14 L72,16 L60,16 L61,13 L50,14 L44,12 L44,14 L38,14 L36,13 L28,13 L24,11 L17,11 L13,9 L10,4 L7,3 L7,1 L1,1 L1,7 L0,7 Z " fill="#030017" transform="translate(644,308)"/>
<path d="M0,0 L1,3 L3,3 L4,0 L6,5 L12,6 L13,4 L16,5 L16,9 L21,9 L22,14 L29,16 L31,18 L38,19 L38,22 L42,22 L42,24 L44,23 L43,18 L50,20 L51,23 L53,24 L54,27 L56,29 L51,32 L47,37 L45,42 L38,44 L40,40 L42,40 L41,28 L40,27 L32,26 L28,21 L22,20 L22,18 L16,18 L12,14 L12,10 L6,10 L1,5 Z " fill="#4938EA" transform="translate(332,536)"/>
<path d="M0,0 L1,0 L1,8 L3,8 L3,18 L5,18 L5,32 L3,32 L3,38 L1,38 L1,54 L-7,61 L-12,66 L-13,72 L-15,72 L-15,76 L-18,78 L-19,86 L-21,86 L-21,94 L-22,94 L-22,86 L-24,86 L-25,90 L-25,84 L-22,83 L-22,85 L-20,85 L-21,73 L-23,72 L-21,68 L-21,64 L-19,64 L-18,58 L-12,57 L-11,53 L-8,51 L-5,45 L-1,44 L-1,32 L0,32 L0,37 L2,37 L1,32 L1,14 L-1,8 Z " fill="#4641EB" transform="translate(727,456)"/>
<path d="M0,0 L6,0 L6,6 L4,6 L4,8 L-2,10 L-2,12 L-8,12 L-12,10 L-12,14 L-14,14 L-14,16 L-26,16 L-26,20 L-30,22 L-36,22 L-36,20 L-38,20 L-38,14 L-36,14 L-35,9 L-34,8 L-14,8 L-14,4 L-6,4 L-6,2 L0,2 Z " fill="#020218" transform="translate(442,242)"/>
<path d="M0,0 L6,0 L7,1 L15,2 L16,3 L32,4 L32,8 L36,8 L36,4 L42,4 L42,10 L36,10 L36,14 L30,14 L30,10 L26,10 L26,12 L22,14 L10,14 L6,12 L6,10 L4,10 L4,14 L-2,14 L-2,8 L0,8 Z " fill="#03051D" transform="translate(470,246)"/>
<path d="M0,0 L1,2 L12,2 L11,10 L13,11 L12,14 L10,12 L6,13 L3,16 L-1,16 L0,19 L-5,21 L-5,19 L-9,20 L-9,18 L-11,18 L-11,21 L-13,21 L-15,19 L-15,16 L-18,16 L-18,14 L-21,14 L-22,11 L-13,9 L-20,8 L-17,3 L-11,4 L-7,3 L-6,8 L-3,8 L-3,6 L2,5 L2,3 L-2,3 L-2,1 Z " fill="#2819F3" transform="translate(539,333)"/>
<path d="M0,0 L3,3 L5,7 L0,9 L-2,14 L-7,13 L-7,11 L-10,11 L-10,18 L-14,19 L-15,23 L-17,23 L-17,19 L-22,19 L-24,23 L-26,25 L-30,24 L-34,30 L-37,30 L-38,23 L-34,23 L-34,21 L-32,21 L-31,16 L-29,15 L-29,14 L-23,14 L-23,8 L-16,7 L-16,5 L-7,5 L-4,2 Z M-29,22 Z " fill="#2B17EC" transform="translate(459,314)"/>
<path d="M0,0 L21,0 L31,2 L36,3 L37,5 L46,7 L46,5 L49,5 L49,11 L44,11 L44,14 L40,14 L40,20 L38,20 L38,22 L24,22 L24,21 L37,21 L37,19 L34,19 L34,16 L36,16 L35,12 L37,12 L37,10 L27,8 L2,7 L-8,5 L-8,4 L-1,4 Z " fill="#1B0DAA" transform="translate(524,304)"/>
<path d="M0,0 L1,4 L-3,4 L-3,6 L-13,6 L-13,8 L-18,10 L-19,12 L-37,12 L-37,14 L-44,16 L-45,20 L-55,20 L-55,22 L-59,22 L-59,24 L-75,24 L-75,23 L-60,23 L-60,21 L-75,21 L-75,20 L-59,20 L-56,21 L-56,19 L-59,18 L-56,16 L-47,14 L-45,8 L-35,7 L-33,4 L-25,3 L-25,5 L-20,4 L-17,2 L-3,2 L0,3 Z " fill="#4E3CDB" transform="translate(701,616)"/>
<path d="M0,0 L3,4 L0,7 L-1,10 L3,11 L3,13 L-6,12 L-5,18 L-7,18 L-7,21 L-20,20 L-20,18 L-22,17 L-22,16 L-27,16 L-29,17 L-29,15 L-36,16 L-45,15 L-46,13 L-44,11 L-44,10 L-34,10 L-28,11 L-22,11 L-22,8 L-10,8 L-8,3 L-2,2 Z M-6,2 Z " fill="#5A48F1" transform="translate(708,598)"/>
<path d="M0,0 L6,0 L6,2 L18,2 L20,4 L21,12 L23,15 L19,16 L19,14 L10,13 L-6,13 L2,14 L2,15 L-6,15 L-6,17 L-11,17 L-11,22 L-12,22 L-12,16 L-8,16 L-8,14 L-10,14 L-10,10 L-12,10 L-12,4 L-2,4 Z " fill="#160B8F" transform="translate(470,280)"/>
<path d="M0,0 L20,0 L20,2 L25,3 L25,6 L33,7 L51,11 L51,15 L78,17 L83,21 L74,22 L74,20 L64,20 L62,18 L52,17 L50,16 L38,15 L35,14 L34,10 L26,8 L6,8 L1,5 L-1,6 L-2,1 Z " fill="#2110DA" transform="translate(462,304)"/>
<path d="M0,0 L18,0 L20,4 L26,4 L26,2 L42,2 L44,6 L50,6 L52,8 L52,14 L54,14 L54,16 L60,16 L62,18 L62,24 L68,24 L70,26 L70,30 L72,30 L72,32 L77,33 L78,36 L84,36 L88,40 L88,42 L96,42 L96,48 L95,48 L95,43 L87,43 L83,38 L75,38 L71,36 L70,33 L71,31 L68,31 L67,33 L65,28 L63,28 L63,26 L52,25 L50,18 L50,9 L49,8 L41,8 L40,7 L19,5 L17,2 L1,1 L1,3 L-2,2 L0,2 Z " fill="#302AEB" transform="translate(604,386)"/>
<path d="M0,0 L5,0 L5,2 L19,5 L19,3 L24,5 L29,8 L30,11 L40,13 L40,10 L42,10 L41,14 L43,14 L43,17 L50,18 L54,22 L54,25 L56,26 L48,26 L45,24 L45,22 L37,22 L36,20 L25,17 L25,14 L23,14 L23,11 L19,12 L19,10 L17,10 L16,7 L1,5 Z " fill="#3E3BF3" transform="translate(671,431)"/>
<path d="M0,0 L4,0 L4,2 L2,2 L2,4 L10,3 L9,10 L12,13 L12,17 L15,16 L15,18 L10,23 L5,24 L3,26 L3,24 L1,24 L1,26 L-1,26 L-1,23 L-4,23 L-4,14 L-6,12 L-4,11 L-3,3 L0,2 Z " fill="#5C4CF5" transform="translate(544,541)"/>
<path d="M0,0 L6,0 L6,1 L1,1 L1,3 L6,3 L6,4 L-9,3 L-9,5 L-7,6 L-10,7 L-11,9 L-12,10 L-13,12 L-14,29 L-15,31 L-13,31 L-13,29 L-11,29 L-11,31 L-3,33 L-3,35 L0,34 L0,40 L10,41 L11,43 L1,43 L1,45 L14,44 L15,49 L20,49 L20,50 L14,50 L12,47 L0,46 L0,44 L-5,43 L-8,39 L-12,38 L-12,34 L-16,32 L-16,28 L-18,28 L-18,10 L-10,2 L0,2 Z " fill="#4736D8" transform="translate(364,580)"/>
<path d="M0,0 L1,0 L2,18 L0,19 L0,25 L-2,27 L-5,27 L-8,33 L-11,35 L-12,38 L-18,39 L-19,41 L-21,41 L-23,42 L-23,40 L-25,40 L-26,42 L-27,37 L-23,34 L-17,34 L-15,28 L-13,24 L-15,23 L-12,22 L-10,19 L-8,19 L-7,14 L-6,12 L-1,12 L-1,5 Z " fill="#4E4AF3" transform="translate(727,475)"/>
<path d="M0,0 L3,1 L1,5 L1,3 L-1,3 L-1,26 L4,24 L4,26 L6,27 L1,31 L-3,39 L-6,42 L-2,44 L-1,50 L-6,55 L-9,58 L-9,63 L-6,65 L-9,65 L-9,67 L-6,68 L-10,68 L-10,66 L-14,66 L-14,56 L-10,54 L-10,48 L-6,48 L-6,44 L-12,44 L-12,38 L-6,38 L-6,30 L-4,30 L-4,26 L-2,26 L-2,2 Z " fill="#3C2BD3" transform="translate(328,454)"/>
<path d="M0,0 L2,4 L-5,3 L-5,5 L-3,5 L-5,11 L-9,17 L-12,18 L-15,21 L-17,22 L-18,25 L-16,26 L-20,28 L-20,36 L-31,35 L-31,70 L-32,70 L-32,34 L-24,34 L-24,20 L-14,10 L-10,10 L-9,5 L-6,2 L0,2 Z " fill="#3323DC" transform="translate(366,376)"/>
<path d="M0,0 L5,1 L6,2 L6,8 L10,10 L14,14 L14,16 L20,16 L20,48 L18,48 L18,50 L14,50 L14,52 L9,52 L9,57 L5,57 L6,49 L9,47 L11,42 L13,36 L14,28 L16,28 L16,20 L14,19 L17,19 L17,46 L19,46 L19,17 L11,19 L11,17 L9,17 L9,15 L7,15 L7,13 L5,13 L4,8 L4,3 Z " fill="#4D40EB" transform="translate(706,550)"/>
<path d="M0,0 L7,1 L9,4 L-3,4 L-7,5 L-7,7 L-9,7 L-10,10 L-10,8 L-12,8 L-11,11 L-16,11 L-16,13 L-21,14 L-22,17 L-23,20 L-25,22 L-29,22 L-30,26 L-32,28 L-34,27 L-33,30 L-35,30 L-36,34 L-36,29 L-38,29 L-36,37 L-41,42 L-46,40 L-47,44 L-47,38 L-45,36 L-41,36 L-41,34 L-39,34 L-39,28 L-35,28 L-35,26 L-33,26 L-33,18 L-25,18 L-25,10 L-13,10 L-13,7 L-16,7 L-16,3 L-8,3 L-8,1 L0,2 Z " fill="#2713D8" transform="translate(459,308)"/>
<path d="M0,0 L15,1 L16,5 L18,5 L18,7 L22,6 L22,9 L24,9 L24,12 L32,13 L31,16 L22,14 L21,11 L15,13 L10,12 L8,11 L8,9 L5,9 L4,14 L1,15 L0,22 L-1,22 L-1,12 L1,9 L4,8 L4,5 L0,9 L-2,9 L-2,1 Z M2,10 Z M-3,9 Z M-4,10 Z " fill="#4440F6" transform="translate(672,436)"/>
<path d="M0,0 L5,0 L7,2 L7,6 L15,6 L17,11 L19,13 L29,14 L31,16 L31,22 L29,22 L29,26 L31,26 L31,34 L33,34 L32,36 L29,36 L30,27 L27,28 L28,22 L26,22 L26,19 L17,18 L12,11 L10,10 L11,16 L7,20 L7,17 L9,17 L9,14 L6,14 L5,10 L-1,8 L-2,4 L-2,1 Z " fill="#2214CE" transform="translate(551,336)"/>
<path d="M0,0 L3,0 L3,5 L10,6 L15,6 L19,10 L19,12 L27,12 L27,17 L32,17 L34,19 L34,23 L42,23 L44,28 L46,30 L51,32 L54,35 L53,39 L50,34 L42,31 L42,28 L40,28 L41,24 L39,24 L39,27 L32,27 L28,25 L28,22 L23,20 L20,18 L21,15 L24,15 L24,13 L17,13 L16,12 L11,12 L8,13 L7,9 L2,8 Z " fill="#3531E9" transform="translate(672,417)"/>
<path d="M0,0 L3,0 L3,5 L5,5 L5,13 L14,14 L14,16 L20,16 L22,21 L24,22 L24,26 L26,26 L25,30 L25,27 L23,27 L22,30 L22,28 L20,28 L19,31 L16,31 L14,31 L11,26 L10,18 L5,17 L5,15 L2,14 L1,7 L-1,2 Z " fill="#2E1BEC" transform="translate(576,358)"/>
<path d="M0,0 L1,4 L-9,5 L-11,8 L-18,10 L-19,16 L-26,18 L-27,20 L-43,20 L-43,24 L-53,24 L-53,22 L-55,21 L-53,20 L-47,20 L-46,17 L-44,16 L-29,16 L-29,14 L-20,15 L-20,10 L-22,10 L-22,13 L-25,13 L-24,9 L-22,9 L-21,5 L-12,4 L-12,2 L0,3 Z " fill="#4635E3" transform="translate(593,644)"/>
<path d="M0,0 L7,2 L8,5 L10,6 L11,9 L13,11 L8,14 L4,19 L2,24 L-5,26 L-3,22 L-1,22 L-2,10 L-3,7 L-10,7 L-10,5 L-1,4 L-1,6 L1,5 Z " fill="#4A38E8" transform="translate(375,554)"/>
<path d="M0,0 L44,0 L43,3 L60,2 L63,3 L61,3 L61,5 L68,5 L68,6 L60,6 L60,4 L58,4 L58,6 L52,6 L52,4 L42,4 L42,2 L40,2 L40,4 L16,4 L16,2 L6,2 L6,4 L0,4 L0,2 L-14,2 L-14,1 Z " fill="#4332D8" transform="translate(426,658)"/>
<path d="M0,0 L3,0 L18,0 L28,3 L38,5 L45,5 L46,8 L48,9 L48,11 L44,12 L36,11 L34,9 L34,6 L22,6 L22,4 L0,5 L-1,10 L-3,7 L-3,3 L-1,3 Z " fill="#2011C3" transform="translate(460,300)"/>
<path d="M0,0 L4,1 L5,4 L15,6 L40,7 L50,10 L50,12 L48,12 L49,16 L45,16 L45,14 L43,14 L43,11 L21,11 L21,9 L2,8 L2,6 L-5,5 L-2,3 L0,3 Z " fill="#1F0FB5" transform="translate(511,304)"/>
<path d="M0,0 L1,2 L21,2 L21,4 L24,5 L24,7 L21,7 L21,10 L9,10 L5,8 L5,6 L3,6 L3,10 L-3,10 L-3,4 L-1,3 Z " fill="#030622" transform="translate(471,250)"/>
<path d="M0,0 L6,3 L10,4 L12,6 L15,6 L18,3 L18,13 L20,13 L20,15 L22,15 L23,21 L18,23 L16,25 L17,18 L15,18 L15,13 L10,12 L9,9 L9,14 L7,14 L7,11 L3,10 L3,6 L-1,5 L-1,3 L-3,2 Z " fill="#5246EF" transform="translate(693,550)"/>
<path d="M0,0 L18,0 L19,4 L15,5 L14,9 L12,9 L12,5 L7,5 L5,9 L3,11 L-1,10 L-5,16 L-8,16 L-9,9 L-5,9 L-5,7 L-3,7 L-2,2 L0,1 Z M0,8 Z " fill="#2F1BF1" transform="translate(430,328)"/>
<path d="M0,0 L5,1 L6,3 L13,4 L13,6 L6,6 L7,9 L13,10 L13,14 L17,14 L17,12 L21,12 L21,16 L10,16 L1,15 L1,9 L-1,9 L-1,6 L-4,6 L-4,2 L0,2 Z " fill="#070430" transform="translate(643,317)"/>
<path d="M0,0 L6,0 L8,4 L20,4 L30,5 L30,6 L20,6 L20,8 L-3,8 L-3,11 L-12,11 L-12,8 L-6,8 L-5,4 Z " fill="#4C3ADF" transform="translate(596,636)"/>
<path d="M0,0 L8,1 L9,6 L15,7 L19,13 L16,16 L14,16 L14,14 L10,15 L10,13 L8,13 L8,16 L6,16 L4,14 L4,11 L1,11 L1,9 L-2,9 L-3,6 L6,4 L-1,3 Z " fill="#2D1FF4" transform="translate(520,338)"/>
<path d="M0,0 L4,1 L2,1 L3,9 L2,15 L0,15 L0,19 L-3,21 L-4,29 L-6,29 L-6,37 L-7,37 L-7,29 L-9,29 L-10,33 L-10,27 L-7,26 L-7,28 L-5,28 L-6,16 L-8,15 L-6,11 L-6,7 L-4,7 L-3,1 Z " fill="#4941EE" transform="translate(712,513)"/>
<path d="M0,0 L3,0 L3,4 L28,4 L27,6 L16,7 L15,6 L-1,6 L-11,8 L-28,8 L-29,6 L-33,4 L-32,3 L-19,3 L-19,5 L-11,5 L-10,3 L-5,3 Z " fill="#4C3AED" transform="translate(497,653)"/>
<path d="M0,0 L29,2 L33,3 L39,3 L41,8 L48,9 L48,10 L30,9 L29,4 L8,3 L-1,6 L-4,9 L-11,9 L-9,5 L-4,4 L-4,2 Z " fill="#2512E7" transform="translate(456,311)"/>
<path d="M0,0 L18,0 L20,4 L26,4 L26,2 L42,2 L44,6 L50,6 L52,8 L52,14 L54,14 L54,16 L60,16 L62,18 L62,24 L61,20 L53,18 L53,15 L50,16 L50,9 L49,8 L41,8 L40,7 L19,5 L17,2 L1,1 L1,3 L-2,2 L0,2 Z " fill="#281DC6" transform="translate(604,386)"/>
<path d="M0,0 L6,0 L6,7 L8,12 L10,14 L8,16 L4,20 L-2,22 L-5,22 L-5,13 L-3,11 L-1,7 L-1,11 L2,9 L2,2 L0,2 Z M2,1 Z M7,13 Z " fill="#5859F8" transform="translate(706,467)"/>
<path d="M0,0 L18,0 L20,2 L20,8 L18,8 L17,12 L17,7 L2,6 L2,4 L-19,3 L-19,5 L-26,5 L-26,4 L-20,4 L-20,2 L0,2 Z " fill="#110969" transform="translate(546,296)"/>
<path d="M0,0 L1,2 L4,0 L9,0 L9,29 L7,29 L7,2 L6,3 L6,11 L4,11 L4,19 L2,24 L1,24 L1,19 L-1,18 L0,17 Z M0,24 Z " fill="#4F42F1" transform="translate(716,567)"/>
<path d="M0,0 L3,1 L4,6 L1,9 L-2,18 L1,19 L1,27 L-1,33 L-5,34 L-5,11 L-2,11 L-2,2 Z " fill="#3D2CEB" transform="translate(332,446)"/>
<path d="M0,0 L2,0 L2,2 L10,4 L10,6 L13,5 L13,11 L23,12 L24,14 L14,14 L14,16 L27,15 L28,20 L33,20 L33,21 L27,21 L25,18 L13,17 L13,15 L8,14 L5,10 L5,8 L2,8 L2,6 L5,6 L5,4 L0,4 L-1,2 Z " fill="#4B39E9" transform="translate(351,609)"/>
<path d="M0,0 L2,0 L3,4 L10,6 L14,8 L14,10 L11,10 L11,15 L9,17 L4,17 L4,15 L0,15 L0,13 L-2,13 L-2,7 L1,7 Z " fill="#060320" transform="translate(628,287)"/>
<path d="M0,0 L5,1 L4,5 L0,7 L-10,6 L-15,8 L-17,7 L-26,7 L-31,5 L-30,2 L-22,2 L-22,4 L-20,4 L-19,2 L-16,5 L-15,2 L-12,1 L-12,3 L-7,1 Z " fill="#3A28F4" transform="translate(592,396)"/>
<path d="M0,0 L19,1 L19,4 L22,5 L28,7 L28,9 L22,9 L21,12 L21,9 L17,8 L17,11 L11,12 L11,7 L7,5 L0,1 Z " fill="#1A0D9D" transform="translate(494,296)"/>
<path d="M0,0 L16,1 L25,5 L31,5 L33,6 L33,8 L26,9 L13,6 L6,4 L-9,4 L-11,5 L-10,2 Z " fill="#1D0DB9" transform="translate(472,297)"/>
<path d="M0,0 L2,1 L-3,4 L-8,5 L-9,7 L-27,9 L-36,8 L-37,6 L-35,4 L-35,3 L-25,3 L-19,4 L-13,4 L-13,1 L-1,1 Z " fill="#5E4AF5" transform="translate(699,605)"/>
<path d="M0,0 L5,0 L6,1 L15,2 L15,4 L20,2 L24,2 L24,8 L15,7 L15,9 L3,9 L3,2 L0,2 Z " fill="#060220" transform="translate(555,257)"/>
<path d="M0,0 L6,0 L6,2 L18,2 L20,4 L20,12 L19,12 L19,6 L14,7 L-11,5 L-11,9 L-9,9 L-8,14 L-10,14 L-10,10 L-12,10 L-12,4 L-2,4 Z " fill="#130A78" transform="translate(470,280)"/>
<path d="M0,0 L17,0 L18,4 L17,9 L13,8 L12,2 L7,6 L2,6 L-3,11 L-3,7 L-8,6 L-8,4 L-2,4 L-2,1 Z M-5,11 L-3,12 L-5,13 Z M-6,13 Z M-7,14 Z " fill="#3923ED" transform="translate(369,375)"/>
<path d="M0,0 L2,4 L1,12 L5,12 L11,10 L11,12 L13,12 L13,22 L12,24 L14,24 L15,21 L15,23 L18,24 L16,24 L16,26 L25,25 L22,26 L22,28 L25,29 L21,29 L21,27 L15,27 L15,25 L11,25 L11,21 L7,19 L5,16 L0,14 L-1,13 L-1,7 L-3,7 L-3,1 L-2,1 L-2,6 L0,6 Z " fill="#4232C8" transform="translate(387,629)"/>
<path d="M0,0 L5,1 L6,2 L6,8 L10,10 L14,14 L14,16 L20,16 L20,48 L18,48 L18,50 L14,50 L14,52 L10,51 L13,51 L13,49 L11,48 L17,49 L17,46 L19,46 L19,17 L11,19 L11,17 L9,17 L9,15 L7,15 L7,13 L5,13 L4,8 L4,3 Z " fill="#3F35BB" transform="translate(706,550)"/>
<path d="M0,0 L4,1 L5,10 L7,11 L5,23 L0,23 L-2,30 L-6,33 L-10,32 L-9,29 L-5,28 L-4,21 L-1,19 L2,16 L3,4 L0,5 Z M1,1 Z " fill="#5151F5" transform="translate(721,464)"/>
<path d="M0,0 L1,4 L-3,4 L-3,6 L-19,7 L-21,8 L-35,8 L-33,4 L-25,3 L-25,5 L-20,4 L-17,2 L-3,2 L0,3 Z " fill="#513FE0" transform="translate(701,616)"/>
<path d="M0,0 L9,1 L16,3 L17,5 L26,7 L26,5 L29,5 L29,11 L24,11 L24,14 L20,14 L20,20 L19,20 L18,8 L2,4 Z " fill="#190C9C" transform="translate(544,304)"/>
<path d="M0,0 L12,0 L12,1 L1,1 L1,3 L8,3 L8,4 L2,4 L1,6 L1,8 L-1,10 L-9,10 L-13,11 L-13,13 L-11,14 L-13,14 L-13,16 L-17,15 L-18,18 L-22,19 L-24,23 L-24,24 L-33,24 L-32,22 L-26,22 L-24,18 L-22,16 L-18,16 L-16,12 L-8,6 L-2,6 L-1,1 Z " fill="#2B1BD6" transform="translate(400,352)"/>
<path d="M0,0 L14,0 L14,2 L20,2 L20,0 L30,0 L30,2 L54,2 L54,0 L56,0 L56,2 L66,2 L65,4 L0,4 L0,3 L13,3 L13,1 L0,1 Z " fill="#08061B" transform="translate(412,660)"/>
<path d="M0,0 L16,0 L20,1 L20,4 L28,5 L27,8 L18,6 L17,3 L11,5 L6,4 L4,3 L4,1 L1,1 L0,6 L-3,7 L-4,14 L-5,14 L-5,4 L-3,1 Z M-2,2 Z " fill="#4846F6" transform="translate(676,444)"/>
<path d="M0,0 Z M-5,1 L0,1 L-3,4 L-9,7 L-13,8 L-16,13 L-19,13 L-20,17 L-25,22 L-25,25 L-31,25 L-27,20 L-25,18 L-22,18 L-22,13 L-25,12 L-25,10 L-22,10 L-21,7 L-14,6 Z " fill="#5241F1" transform="translate(410,564)"/>
<path d="M0,0 L1,0 L1,8 L3,8 L3,18 L5,18 L5,32 L3,32 L3,38 L1,38 L1,54 L0,54 L-1,32 L0,32 L0,37 L2,37 L1,32 L1,14 L-1,8 Z " fill="#3C3CC7" transform="translate(727,456)"/>
<path d="M0,0 L4,2 L6,3 L5,7 L9,6 L7,17 L11,20 L7,23 L2,18 L1,14 L2,10 L0,10 Z " fill="#5848F2" transform="translate(667,534)"/>
<path d="M0,0 L1,2 L6,1 L8,3 L8,6 L17,6 L19,11 L21,13 L26,15 L29,18 L28,22 L25,17 L17,14 L17,11 L15,11 L16,7 L14,7 L14,10 L7,10 L3,8 L3,5 L-2,3 L-3,1 Z " fill="#393AEB" transform="translate(697,434)"/>
<path d="M0,0 L2,0 L3,3 L6,4 L6,2 L22,2 L23,5 L14,5 L14,9 L10,8 L9,10 L4,10 L2,4 L0,4 Z " fill="#3525EB" transform="translate(599,385)"/>
<path d="M0,0 L7,0 L10,2 L17,3 L23,6 L19,8 L19,6 L10,5 L-6,5 L2,6 L2,7 L-6,7 L-6,9 L-11,9 L-11,14 L-12,14 L-12,8 L-8,8 L-9,3 Z " fill="#190C9A" transform="translate(470,288)"/>
<path d="M0,0 L5,0 L5,6 L9,6 L8,9 L7,9 L6,14 L3,13 L0,14 L-3,9 L-4,1 Z " fill="#311EEA" transform="translate(590,375)"/>
<path d="M0,0 L1,2 L8,2 L12,3 L12,5 L14,5 L16,9 L19,12 L19,15 L14,15 L14,10 L4,9 L0,3 Z " fill="#3530F1" transform="translate(655,409)"/>
<path d="M0,0 L5,2 L6,5 L12,6 L12,4 L15,3 L15,5 L20,5 L17,8 L12,8 L9,13 L8,11 L3,12 L1,6 L-2,6 L-1,1 Z " fill="#392AF6" transform="translate(606,397)"/>
<path d="M0,0 L9,0 L7,3 L3,3 L2,7 L0,9 L-2,8 L-1,11 L-3,11 L-4,15 L-4,10 L-6,10 L-4,18 L-9,23 L-14,21 L-15,25 L-15,19 L-13,17 L-9,17 L-9,15 L-7,15 L-7,9 L-3,9 L-3,7 L0,7 Z " fill="#2B1ADD" transform="translate(427,327)"/>
<path d="M0,0 L1,0 L1,30 L0,28 L-2,28 L-1,30 L-1,46 L-2,46 L-2,34 L-4,34 L-4,46 L-5,46 L-5,30 L-3,30 L-3,24 L-1,24 L-1,10 L-3,10 L-3,1 L-2,1 L-2,6 L0,6 Z " fill="#070719" transform="translate(733,464)"/>
<path d="M0,0 L4,5 L5,6 L17,6 L19,8 L26,9 L26,12 L28,13 L21,13 L21,15 L28,15 L28,16 L20,16 L16,11 L10,10 L10,8 L4,8 L0,4 Z " fill="#4332D3" transform="translate(344,546)"/>
<path d="M0,0 L6,0 L6,14 L-2,14 L-2,8 L0,8 Z " fill="#050216" transform="translate(816,628)"/>
<path d="M0,0 L7,0 L9,1 L9,6 L20,6 L20,14 L14,14 L14,13 L19,13 L19,7 L16,7 L16,9 L7,8 L6,5 L-1,4 L-9,3 L-9,2 L0,2 Z " fill="#170C88" transform="translate(554,302)"/>
<path d="M0,0 L20,0 L22,3 L30,5 L27,6 L19,5 L2,5 L0,6 L-8,5 L-8,4 L-1,4 Z " fill="#1B0DA1" transform="translate(524,304)"/>
<path d="M0,0 L1,0 L1,6 L-1,8 L-4,8 L-7,14 L-10,16 L-11,19 L-17,20 L-18,22 L-18,18 L-13,16 L-14,12 L-9,6 L-3,5 Z " fill="#4945EF" transform="translate(726,494)"/>
<path d="M0,0 L4,1 L29,2 L39,5 L39,7 L37,7 L38,11 L34,11 L34,9 L32,9 L32,6 L24,6 L22,5 L22,3 L3,3 Z " fill="#1C0DB3" transform="translate(522,309)"/>
<path d="M0,0 L13,1 L13,4 L22,7 L26,8 L26,10 L28,11 L20,11 L17,9 L17,7 L9,7 L8,5 L-3,2 Z " fill="#4345F1" transform="translate(699,446)"/>
<path d="M0,0 L4,0 L3,9 L2,11 L6,12 L5,20 L7,20 L10,20 L13,23 L11,27 L11,23 L8,24 L2,23 L2,14 L0,5 Z " fill="#5947F4" transform="translate(372,588)"/>
<path d="M0,0 L4,2 L7,3 L6,5 L3,5 L2,11 L-4,11 L-9,13 L-12,13 L-11,10 L-5,8 L-3,3 Z " fill="#503EEB" transform="translate(382,569)"/>
<path d="M0,0 L1,0 L1,5 L7,5 L5,0 L14,0 L15,1 L30,2 L30,3 L13,3 L13,5 L43,5 L44,2 L44,6 L12,6 L12,2 L8,2 L8,6 L0,6 Z " fill="#3B2CBE" transform="translate(494,664)"/>
<path d="M0,0 L6,1 L7,6 L5,6 L5,9 L-8,8 L-8,6 L-6,6 L-4,2 Z " fill="#5643ED" transform="translate(696,610)"/>
<path d="M0,0 L20,1 L20,3 L5,3 L5,5 L-5,5 L-14,4 L-10,2 L-1,1 Z " fill="#523FEE" transform="translate(621,636)"/>
<path d="M0,0 L6,0 L8,2 L8,6 L10,6 L10,8 L15,9 L16,12 L22,12 L26,16 L26,18 L34,18 L34,24 L33,24 L33,19 L25,19 L21,14 L13,14 L9,12 L8,9 L9,7 L6,7 L5,2 L0,1 Z " fill="#2927BA" transform="translate(666,410)"/>
<path d="M0,0 L3,1 L1,5 L1,3 L-1,3 L-1,26 L4,24 L4,26 L6,27 L1,31 L-1,30 L-1,27 L-3,27 L-2,31 L-5,31 L-5,38 L-6,38 L-6,30 L-4,30 L-4,26 L-2,26 L-2,2 Z " fill="#3829D5" transform="translate(328,454)"/>
<path d="M0,0 L4,1 L4,5 L7,3 L12,3 L13,4 L20,5 L20,7 L14,9 L6,9 L3,8 L1,2 Z " fill="#3833F1" transform="translate(676,425)"/>
<path d="M0,0 L1,0 L2,33 L3,0 L4,0 L4,36 L1,37 L0,35 Z " fill="#07051E" transform="translate(330,410)"/>
<path d="M0,0 L4,0 L4,2 L2,2 L2,4 L10,3 L9,5 L4,8 L1,12 L-4,12 L-3,3 L0,2 Z " fill="#6052F8" transform="translate(544,541)"/>
<path d="M0,0 L2,0 L3,5 L3,12 L1,12 L1,10 L-1,11 L-2,17 L-4,16 L-4,10 L-2,7 L-5,6 L-3,1 Z " fill="#4A3EED" transform="translate(704,529)"/>
<path d="M0,0 L1,0 L1,23 L3,23 L3,0 L4,0 L4,24 L2,24 L2,28 L0,28 L0,36 L-6,36 L-6,35 L-1,35 Z " fill="#090724" transform="translate(322,456)"/>
<path d="M0,0 L2,0 L1,4 L3,4 L3,7 L10,8 L14,13 L11,14 L1,9 L1,5 L-7,5 L-9,4 L-9,2 L0,3 Z " fill="#3E3FEA" transform="translate(711,441)"/>
<path d="M0,0 L2,0 L2,2 L9,4 L9,7 L12,8 L12,12 L10,12 L10,14 L13,15 L8,14 L5,10 L5,8 L2,8 L2,6 L5,6 L5,4 L0,4 L-1,2 Z " fill="#4837E9" transform="translate(351,609)"/>
<path d="M0,0 L8,1 L12,0 L14,6 L24,7 L22,9 L8,8 L8,6 L6,6 L6,3 L2,4 L2,2 L0,2 Z " fill="#4040F3" transform="translate(688,439)"/>
<path d="M0,0 L1,3 L30,3 L33,5 L-1,5 Z " fill="#05031E" transform="translate(520,252)"/>
<path d="M0,0 L3,0 L3,2 L19,2 L19,3 L3,3 L3,7 L-7,7 L-7,5 L-9,4 L-7,3 L-1,3 Z " fill="#4030CD" transform="translate(547,661)"/>
<path d="M0,0 L7,0 L9,5 L10,12 L7,12 L7,8 L-1,7 Z " fill="#3F3AF7" transform="translate(657,421)"/>
<path d="M0,0 L4,2 L4,5 L9,5 L7,7 L2,8 L-3,7 L-5,9 L-19,10 L-18,8 L-16,8 L-15,6 L-13,7 L-7,7 L-2,3 L0,3 Z " fill="#5A49F7" transform="translate(415,570)"/>
<path d="M0,0 L4,0 L5,2 L19,3 L19,6 L28,5 L28,7 L17,7 L6,6 L3,3 L3,1 Z " fill="#2010CA" transform="translate(514,313)"/>
<path d="M0,0 L12,0 L28,3 L28,4 L16,4 L16,2 L-6,3 L-7,8 L-9,5 L-9,1 Z " fill="#200ECC" transform="translate(466,302)"/>
<path d="M0,0 L2,0 L2,2 L-3,7 L-8,8 L-10,10 L-10,8 L-12,8 L-12,10 L-14,10 L-14,7 L-9,5 L-8,1 L-1,1 Z " fill="#5848F4" transform="translate(557,557)"/>
<path d="M0,0 L2,0 L3,8 L7,10 L6,16 L5,14 L1,15 L0,12 L-4,12 L-3,10 L0,11 L-2,7 Z " fill="#4C41EE" transform="translate(703,542)"/>
<path d="M0,0 L4,0 L4,2 L-1,2 L-2,6 L-6,8 L-8,8 L-8,6 L-4,4 Z M-10,7 L-8,9 L-10,14 L-12,16 L-16,15 L-14,15 L-15,9 Z " fill="#4A38F5" transform="translate(430,439)"/>
<path d="M0,0 L4,1 L2,1 L2,8 L-2,12 L-22,12 L-22,14 L-26,13 L-23,13 L-24,10 L-22,9 L-22,11 L-4,10 L-4,7 L-2,6 Z " fill="#060219" transform="translate(720,322)"/>
<path d="M0,0 L1,0 L2,9 L1,7 L-1,7 L0,11 L-3,15 L-3,13 L-5,13 L-4,25 L-7,25 L-7,27 L-4,28 L-8,28 L-8,20 L-6,20 L-6,12 L-2,10 L-2,6 L0,6 Z " fill="#0C0A28" transform="translate(714,522)"/>
<path d="M0,0 L1,0 L1,6 L-1,6 L-1,10 L-4,12 L-5,20 L-7,20 L-7,28 L-8,28 L-8,20 L-10,20 L-11,24 L-11,18 L-8,17 L-8,19 L-6,19 L-7,6 L-5,6 L-5,9 L-2,9 L-3,2 L-2,5 L0,5 Z " fill="#3D35C7" transform="translate(713,522)"/>
<path d="M0,0 L16,0 L16,2 L19,3 L16,4 L2,4 L2,2 L0,2 Z " fill="#5847F6" transform="translate(496,644)"/>
<path d="M0,0 L7,1 L11,3 L1,5 L-2,6 L-2,4 L-5,4 L-4,9 L-6,10 L-7,1 L0,2 Z " fill="#432FF6" transform="translate(484,383)"/>
<path d="M0,0 L2,1 L2,10 L4,10 L9,15 L11,16 L11,18 L3,16 L1,15 L1,13 L-1,13 L-1,15 L-3,15 L-2,8 L0,9 Z " fill="#4D3AEE" transform="translate(352,596)"/>
<path d="M0,0 L1,0 L2,18 L0,18 L-1,24 L-5,25 L-7,23 L-4,20 L-3,13 L-2,12 Z " fill="#4B4AEE" transform="translate(727,475)"/>
<path d="M0,0 L1,2 L12,2 L10,10 L5,9 L2,6 L2,3 L-2,3 L-2,1 Z " fill="#2516EE" transform="translate(539,333)"/>
<path d="M0,0 L12,0 L9,1 L9,3 L4,4 L3,7 L2,9 L-7,9 L-7,16 L-8,16 L-8,8 L0,8 Z " fill="#2313B8" transform="translate(434,318)"/>
<path d="M0,0 Z M-23,1 L-20,1 L-20,3 L-12,2 L-11,1 L0,1 L-1,3 L-6,4 L-30,5 L-29,3 Z " fill="#5B49F7" transform="translate(452,636)"/>
<path d="M0,0 Z M-1,1 L0,5 L5,6 L5,8 L1,8 L1,10 L-2,11 L-3,16 L-7,16 L-6,8 L-3,6 Z " fill="#5344EC" transform="translate(718,591)"/>
<path d="M0,0 L9,0 L12,2 L4,5 L1,5 L-1,9 L-5,12 L-4,4 L1,3 Z " fill="#513EEC" transform="translate(355,583)"/>
<path d="M0,0 L4,1 L5,14 L-2,17 L-2,14 L1,13 Z " fill="#4737DB" transform="translate(373,563)"/>
<path d="M0,0 L20,0 L24,2 L12,3 L1,3 L-2,6 L-3,8 L-5,6 L-4,1 Z " fill="#5B4AF7" transform="translate(524,481)"/>
<path d="M0,0 L2,1 L2,3 L6,3 L6,5 L11,8 L11,9 L4,9 L3,6 L-2,5 L-2,7 L-6,7 L-6,11 L-3,12 L-7,12 L-7,6 L-3,6 L-3,4 L-1,3 Z " fill="#070329" transform="translate(645,312)"/>
<path d="M0,0 L6,0 L7,1 L15,2 L16,3 L32,4 L31,6 L10,5 L3,4 L3,1 Z " fill="#010412" transform="translate(470,246)"/>
<path d="M0,0 L8,0 L9,4 L8,9 L4,8 L3,2 L-2,6 L-6,5 Z " fill="#3823F0" transform="translate(378,375)"/>
<path d="M0,0 L5,1 L4,3 L-18,4 L-32,4 L-34,5 L-33,2 L-27,1 L-16,1 L0,2 Z " fill="#5340F2" transform="translate(464,645)"/>
<path d="M0,0 L3,0 L3,6 L-2,6 L-2,9 L-6,9 L-6,15 L-7,15 L-7,5 L-4,6 L-4,3 L-6,2 L0,2 Z " fill="#180D95" transform="translate(570,309)"/>
<path d="M0,0 L2,2 L0,7 L-4,10 L-4,18 L-5,16 L-7,16 L-8,11 L-10,10 L-9,7 L-5,5 L-2,4 Z " fill="#504CF8" transform="translate(688,455)"/>
<path d="M0,0 L3,0 L18,0 L30,4 L26,5 L18,3 L0,3 Z " fill="#1F0DC3" transform="translate(460,300)"/>
<path d="M0,0 L2,0 L3,6 L0,12 L-3,15 L-3,16 L-8,16 L-8,12 L-3,11 L-2,4 L1,4 Z " fill="#4130EE" transform="translate(325,481)"/>
<path d="M0,0 L2,1 L1,3 L5,4 L6,8 L-6,7 L-7,3 L0,3 Z " fill="#04031D" transform="translate(656,320)"/>
<path d="M0,0 L4,2 L4,19 L8,21 L7,23 L2,18 L1,14 L2,10 L0,10 Z " fill="#5B4AF6" transform="translate(667,534)"/>
<path d="M0,0 L6,0 L6,2 L12,2 L14,7 L16,8 L16,12 L18,12 L17,16 L17,13 L15,13 L14,16 L14,14 L12,14 L13,11 L15,9 L11,9 L10,5 L11,3 L6,4 L-1,4 L-1,3 L5,3 L5,1 L0,1 Z " fill="#291AC5" transform="translate(584,372)"/>
<path d="M0,0 L0,3 L-3,3 L-3,5 L-1,6 L-3,6 L-3,8 L-7,7 L-8,10 L-12,11 L-14,15 L-14,16 L-23,16 L-22,14 L-16,14 L-14,10 L-12,8 L-8,8 L-6,4 Z " fill="#2718B4" transform="translate(390,360)"/>
<path d="M0,0 L2,0 L0,6 L-1,10 L-1,13 L-5,12 L-3,12 L-4,8 L-11,12 L-11,8 L-5,6 L-3,2 Z " fill="#3220F1" transform="translate(417,352)"/>
<path d="M0,0 L5,1 L3,2 L2,5 L-3,8 L-4,9 L-11,9 L-9,5 L-4,4 L-4,2 Z " fill="#2914E3" transform="translate(456,311)"/>
<path d="M0,0 L3,1 L-2,10 L-8,10 L-9,4 L-1,4 Z " fill="#4A37F6" transform="translate(558,430)"/>
<path d="M0,0 L6,0 L6,1 L1,1 L1,5 L9,5 L11,9 L10,12 L3,11 L3,16 L2,16 L2,10 L6,10 L6,6 L0,6 Z " fill="#3627C6" transform="translate(316,492)"/>
<path d="M0,0 L6,0 L7,2 L11,4 L5,5 L1,5 L0,11 L-3,12 L-2,6 Z " fill="#4134F6" transform="translate(608,412)"/>
<path d="M0,0 L14,0 L14,1 L1,1 L1,3 L14,3 L14,4 L1,5 L1,7 L4,8 L-1,7 L-2,2 Z " fill="#050323" transform="translate(548,326)"/>
<path d="M0,0 L2,0 L2,4 L9,6 L8,8 L-1,8 L-3,7 L-4,2 Z " fill="#2114E1" transform="translate(543,328)"/>
<path d="M0,0 L11,0 L9,1 L9,3 L16,3 L16,4 L8,4 L8,2 L6,2 L6,4 L0,4 L0,2 L-10,2 L-10,1 Z " fill="#3D2EC3" transform="translate(478,660)"/>
<path d="M0,0 L25,1 L25,2 L7,2 L7,4 L0,5 L-1,1 Z " fill="#4736C7" transform="translate(657,626)"/>
<path d="M0,0 L2,1 L2,3 L10,3 L11,6 L1,7 L0,4 L-6,5 L-8,3 L0,3 Z " fill="#4E4FF7" transform="translate(704,453)"/>
<path d="M0,0 L16,1 L16,2 L6,2 L6,4 L0,4 L0,2 L-14,2 L-14,1 Z " fill="#3C2CBE" transform="translate(426,658)"/>
<path d="M0,0 L1,0 L1,6 L-3,10 L-7,10 L-7,12 L-12,13 L-13,8 L-6,8 L-4,9 L-4,7 L-6,6 L-5,5 L0,5 Z " fill="#4F3DDA" transform="translate(715,602)"/>
<path d="M0,0 L1,0 L1,18 L3,18 L5,23 L7,24 L6,28 L6,25 L2,25 L-1,22 Z " fill="#0B0824" transform="translate(345,590)"/>
<path d="M0,0 L3,0 L3,2 L11,0 L10,3 L3,6 L-1,7 L-2,4 L-4,5 L-3,2 Z " fill="#4B37F7" transform="translate(401,455)"/>
<path d="M0,0 L8,0 L8,6 L0,6 Z " fill="#08021D" transform="translate(702,336)"/>
<path d="M0,0 L4,2 L23,3 L23,5 L11,6 L11,4 L3,4 L-3,3 L0,2 Z " fill="#1D0CBA" transform="translate(521,309)"/>
<path d="M0,0 L8,0 L8,6 L0,6 Z " fill="#060428" transform="translate(556,268)"/>
<path d="M0,0 L6,0 L6,1 L1,1 L1,3 L6,3 L6,4 L-9,3 L-9,5 L-7,6 L-10,7 L-11,9 L-11,7 L-16,9 L-10,2 L0,2 Z " fill="#3F31BB" transform="translate(364,580)"/>
<path d="M0,0 L7,0 L9,2 L9,14 L6,15 L5,13 L5,4 L-1,4 L-1,3 L6,3 L6,10 L8,10 L7,3 L0,1 Z " fill="#0A0821" transform="translate(365,562)"/>
<path d="M0,0 L4,1 L-1,4 L-4,10 L-9,11 L-9,24 L-10,24 L-10,10 Z " fill="#271AAF" transform="translate(352,386)"/>
<path d="M0,0 L7,0 L6,5 L-6,5 L-4,1 Z " fill="#442FF6" transform="translate(570,408)"/>
<path d="M0,0 L5,0 L7,2 L7,8 L9,8 L9,10 L15,10 L17,12 L17,18 L16,14 L8,12 L8,9 L5,10 L5,3 L0,1 Z " fill="#2420B5" transform="translate(649,392)"/>
<path d="M0,0 L6,1 L5,3 L2,3 L1,7 L-4,12 L-4,15 L-10,15 L-6,10 L-4,8 L-1,8 L-1,1 Z " fill="#5949F3" transform="translate(389,574)"/>
<path d="M0,0 L6,0 L6,6 L5,2 L3,2 L2,5 L-5,3 L-5,5 L-13,5 L-14,7 L-14,4 L-6,4 L-6,2 L0,2 Z " fill="#020112" transform="translate(442,242)"/>
<path d="M0,0 L9,0 L11,2 L11,6 L8,5 L8,3 L4,4 L-2,3 L-2,1 Z " fill="#2815E8" transform="translate(570,351)"/>
<path d="M0,0 L3,0 L3,3 L5,3 L5,6 L8,6 L8,10 L4,11 L2,13 L3,6 L1,6 Z " fill="#564AF3" transform="translate(707,562)"/>
<path d="M0,0 L2,0 L2,2 L12,2 L11,4 L-23,3 L-23,2 L0,2 Z " fill="#100C36" transform="translate(466,660)"/>
<path d="M0,0 L4,2 L-3,9 L-6,5 L-5,2 Z " fill="#433DE6" transform="translate(719,512)"/>
<path d="M0,0 L4,0 L4,2 L13,3 L12,6 L4,7 L4,3 L0,1 Z " fill="#443AF3" transform="translate(616,440)"/>
<path d="M0,0 L1,3 L3,3 L4,0 L6,5 L12,6 L12,7 L7,7 L7,9 L12,9 L12,10 L6,10 L1,5 Z " fill="#3F30C9" transform="translate(332,536)"/>
<path d="M0,0 L1,0 L1,10 L0,24 L-1,24 L-1,10 L-3,10 L-3,1 L-2,1 L-2,6 L0,6 Z " fill="#0A0A23" transform="translate(733,464)"/>
<path d="M0,0 L5,0 L6,2 L13,3 L13,5 L1,5 L1,3 L-1,2 Z " fill="#140982" transform="translate(547,297)"/>
<path d="M0,0 L6,0 L6,2 L18,2 L19,4 L-2,4 Z " fill="#0F095F" transform="translate(470,280)"/>
<path d="M0,0 L8,0 L10,5 L12,7 L17,9 L20,12 L19,16 L16,11 L8,8 L8,5 L6,5 L7,1 L0,1 Z " fill="#2F2FB6" transform="translate(706,440)"/>
<path d="M0,0 L5,0 L4,2 L5,8 L1,12 L1,9 L3,9 L3,6 L0,6 L-1,2 L-3,1 Z " fill="#271AEE" transform="translate(557,344)"/>
<path d="M0,0 L7,2 L8,5 L10,6 L11,9 L13,11 L9,10 L5,6 L1,5 Z " fill="#4C39EE" transform="translate(375,554)"/>
<path d="M0,0 L3,2 L4,0 L8,0 L7,5 L0,7 L-2,4 L0,4 Z " fill="#4F3CEB" transform="translate(389,636)"/>
<path d="M0,0 L4,2 L2,2 L2,7 L0,8 L0,11 L-3,11 L-3,4 Z " fill="#463EE9" transform="translate(711,520)"/>
<path d="M0,0 L3,4 L7,5 L7,3 L11,4 L11,9 L9,8 L9,6 L7,6 L7,13 L10,14 L6,14 L6,6 L1,5 Z " fill="#3B2CC2" transform="translate(322,522)"/>
<path d="M0,0 L2,0 L4,4 L7,6 L6,11 L4,11 L3,8 L0,7 Z " fill="#4938EB" transform="translate(329,528)"/>
<path d="M0,0 L4,0 L5,4 L4,10 L1,11 L0,8 Z " fill="#534FF7" transform="translate(682,476)"/>
<path d="M0,0 L2,0 L2,4 L7,4 L9,6 L8,10 L6,6 L1,6 L0,5 L-5,5 L-4,2 L-1,2 Z " fill="#3331D6" transform="translate(697,430)"/>
<path d="M0,0 L2,4 L-5,3 L-5,5 L-3,5 L-5,9 L-7,9 L-7,7 L-9,7 L-10,10 L-9,5 L-6,2 L0,2 Z " fill="#2F1DC1" transform="translate(366,376)"/>
<path d="M0,0 L1,4 L3,6 L-4,8 L-9,7 L-9,5 L-3,4 Z " fill="#3927F4" transform="translate(416,368)"/>
<path d="M0,0 L6,0 L6,6 L0,6 Z " fill="#030212" transform="translate(334,800)"/>
<path d="M0,0 L1,4 L-9,5 L-11,8 L-17,8 L-17,7 L-12,7 L-12,5 L-17,5 L-17,4 L-12,4 L-12,2 L0,3 Z " fill="#3F30C3" transform="translate(593,644)"/>
<path d="M0,0 L3,1 L1,5 L1,3 L-1,3 L-1,26 L-2,26 L-2,2 Z " fill="#2D21A9" transform="translate(328,454)"/>
<path d="M0,0 L6,0 L6,6 L0,6 Z " fill="#150C7B" transform="translate(590,336)"/>
<path d="M0,0 L1,0 L2,8 L-5,7 L-5,9 L-13,9 L-13,13 L-10,14 L-14,14 L-14,8 L-6,8 L-6,6 L0,6 Z " fill="#1A0D8C" transform="translate(456,302)"/>
<path d="M0,0 L7,1 L7,3 L10,3 L10,5 L0,5 Z " fill="#060324" transform="translate(559,260)"/>
<path d="M0,0 L3,0 L3,10 L-1,13 L-2,10 L0,10 Z " fill="#4542EA" transform="translate(724,500)"/>
<path d="M0,0 L3,1 L3,9 L1,15 L0,15 Z " fill="#3D2CEA" transform="translate(330,464)"/>
<path d="M0,0 L5,0 L9,3 L6,4 L4,3 L4,8 L15,8 L15,9 L3,9 L3,2 L0,2 Z " fill="#03031C" transform="translate(555,257)"/>
<path d="M0,0 L7,0 L7,3 L9,4 L7,5 L-4,5 L-4,3 L5,2 L0,1 Z " fill="#4E3CED" transform="translate(369,620)"/>
<path d="M0,0 L7,1 L9,4 L10,10 L8,10 L8,7 L4,6 L4,2 Z " fill="#564AF4" transform="translate(692,554)"/>
<path d="M0,0 L5,1 L10,5 L10,8 L5,7 L3,3 L0,2 Z " fill="#4533EB" transform="translate(319,519)"/>
<path d="M0,0 L8,2 L8,4 L14,4 L10,6 L2,5 L0,3 Z " fill="#2212CA" transform="translate(494,306)"/>
<path d="M0,0 L7,1 L5,5 L-1,5 L-2,1 Z " fill="#3722ED" transform="translate(369,375)"/>
<path d="M0,0 L4,0 L3,12 L1,12 Z " fill="#5C49F8" transform="translate(372,588)"/>
<path d="M0,0 L1,4 L-6,11 L-7,9 L-3,1 Z " fill="#5043F8" transform="translate(647,465)"/>
<path d="M0,0 L5,5 L6,3 L8,14 L6,14 L6,10 L4,10 L4,6 L0,4 Z M7,5 Z " fill="#080528" transform="translate(596,374)"/>
<path d="M0,0 L2,0 L3,11 L2,19 L1,19 L1,11 L-1,11 L-1,7 L1,7 Z " fill="#070427" transform="translate(581,351)"/>
<path d="M0,0 L2,1 L-3,6 L-10,4 L-12,5 L-11,2 L-7,1 L-1,1 Z " fill="#3321F3" transform="translate(451,341)"/>
<path d="M0,0 L8,1 L9,6 L-1,6 L-1,5 L6,4 L-1,3 Z " fill="#2B1CF7" transform="translate(520,338)"/>
<path d="M0,0 L3,0 L2,7 L3,10 L0,11 L-1,8 L-1,4 L-3,2 L0,2 Z " fill="#5A49F7" transform="translate(447,562)"/>
<path d="M0,0 L9,0 L7,5 L6,3 L1,4 Z " fill="#3E2EF5" transform="translate(608,405)"/>
<path d="M0,0 L12,0 L12,1 L1,1 L1,3 L8,3 L8,4 L2,4 L1,6 L1,4 L-1,4 L-2,6 L-1,1 Z " fill="#2517BE" transform="translate(400,352)"/>
<path d="M0,0 L2,2 L3,5 L7,6 L8,7 L8,13 L5,9 L0,7 Z " fill="#5644F2" transform="translate(393,623)"/>
<path d="M0,0 L6,0 L6,5 L0,5 Z " fill="#050216" transform="translate(582,257)"/>
<path d="M0,0 L3,1 L3,5 L8,5 L8,6 L2,6 L0,3 L-12,2 L-12,1 Z " fill="#3E2FBB" transform="translate(376,624)"/>
<path d="M0,0 L6,0 L6,5 L4,3 L-2,3 L-3,1 Z M4,5 L5,7 L3,9 Z " fill="#5A46F3" transform="translate(650,616)"/>
<path d="M0,0 L3,1 L3,4 L-1,3 L0,6 L-5,5 L-5,7 L-11,8 L-10,6 L-6,6 L-6,4 L-2,4 Z " fill="#0E0B2A" transform="translate(714,608)"/>
<path d="M0,0 L9,1 L9,8 L6,7 L6,3 L0,3 Z " fill="#4748ED" transform="translate(718,456)"/>
<path d="M0,0 L5,1 L5,3 L-8,3 L-7,1 Z " fill="#3725F3" transform="translate(592,396)"/>
<path d="M0,0 L6,0 L5,2 L3,2 L3,5 L-3,5 L-2,1 Z " fill="#2B16E6" transform="translate(440,321)"/>
<path d="M0,0 L3,3 L3,14 L1,13 L0,10 Z " fill="#584CF4" transform="translate(707,583)"/>
<path d="M0,0 L8,0 L9,3 L2,5 L-2,7 L2,2 Z " fill="#5D51F7" transform="translate(528,552)"/>
<path d="M0,0 L5,3 L5,5 L11,5 L10,9 L10,6 L4,7 L4,4 L1,5 L-1,4 Z " fill="#0C0926" transform="translate(333,541)"/>
<path d="M0,0 L5,0 L9,1 L9,3 L11,4 L3,4 L0,2 Z " fill="#4344E9" transform="translate(716,453)"/>
<path d="M0,0 L4,2 L3,6 L-1,7 L-2,5 Z " fill="#2C1BF3" transform="translate(564,369)"/>
<path d="M0,0 L7,1 L9,4 L-1,4 Z " fill="#2813DA" transform="translate(459,308)"/>
<path d="M0,0 L2,0 L2,2 L10,2 L10,8 L9,8 L9,3 L0,4 L-6,3 L-6,2 L0,2 Z " fill="#0F0C33" transform="translate(484,662)"/>
<path d="M0,0 L6,1 L2,3 L-1,5 L-1,3 L-12,3 L-12,2 L-2,1 Z " fill="#513FE1" transform="translate(682,622)"/>
<path d="M0,0 L3,1 L7,3 L-3,6 L-4,3 L-3,1 Z " fill="#5745F2" transform="translate(370,585)"/>
<path d="M0,0 L1,3 L3,3 L3,5 L5,5 L5,7 L7,7 L6,11 L0,6 Z " fill="#03030B" transform="translate(712,552)"/>
<path d="M0,0 L14,0 L12,3 L6,4 L0,2 Z " fill="#382DF4" transform="translate(626,406)"/>
<path d="M0,0 L7,1 L5,3 L-8,4 L-8,2 L0,2 Z " fill="#2613D0" transform="translate(451,309)"/>
<path d="M0,0 L3,1 L1,2 L1,5 L-4,6 L-4,1 Z " fill="#1A0E94" transform="translate(510,302)"/>
<path d="M0,0 L6,0 L6,6 L0,6 L0,5 L5,5 L5,3 L0,4 Z " fill="#020316" transform="translate(506,250)"/>
<path d="M0,0 L4,0 L4,2 L7,2 L6,6 L1,5 Z " fill="#4F3DEA" transform="translate(378,624)"/>
<path d="M0,0 L6,2 L5,8 L4,6 L2,6 L0,3 Z " fill="#4D42E8" transform="translate(704,550)"/>
<path d="M0,0 L4,0 L4,5 L1,5 L1,7 L4,8 L0,8 Z " fill="#09081E" transform="translate(706,542)"/>
<path d="M0,0 L5,3 L7,6 L3,7 L0,4 Z " fill="#2517DF" transform="translate(564,345)"/>
<path d="M0,0 L4,0 L4,2 L2,3 L1,6 L-3,6 L-3,2 Z " fill="#040728" transform="translate(472,253)"/>
<path d="M0,0 L3,0 L4,4 L-1,7 L-6,5 L-6,4 L0,3 L2,4 L2,1 Z " fill="#4D44F6" transform="translate(657,454)"/>
<path d="M0,0 L2,0 L2,2 L11,2 L8,6 L8,4 L2,4 L0,3 Z " fill="#2916F1" transform="translate(494,325)"/>
<path d="M0,0 L1,0 L1,6 L5,6 L5,8 L-1,9 L-7,8 L-7,7 L0,7 Z " fill="#09052D" transform="translate(441,310)"/>
<path d="M0,0 L3,1 L1,2 L1,4 L-6,4 L-6,1 Z " fill="#110961" transform="translate(522,304)"/>
<path d="M0,0 L3,4 L8,5 L8,7 L5,7 L5,9 L8,10 L4,10 L4,6 L0,4 Z " fill="#392BBA" transform="translate(348,608)"/>
<path d="M0,0 L2,2 L-2,8 L-5,8 L-3,3 Z " fill="#5B46F5" transform="translate(614,547)"/>
<path d="M0,0 L7,0 L2,5 L-2,4 L-2,2 L0,2 Z " fill="#4A44F6" transform="translate(658,445)"/>
<path d="M0,0 L5,0 L7,4 L8,6 L4,7 L4,3 L0,3 Z " fill="#4538F4" transform="translate(604,432)"/>
<path d="M0,0 L3,1 L4,7 L11,7 L11,8 L2,8 Z " fill="#08053A" transform="translate(643,323)"/>
<path d="M0,0 L1,0 L1,6 L-3,10 L-7,9 L-4,9 L-4,7 L-6,6 L-5,5 L0,5 Z " fill="#4637C3" transform="translate(715,602)"/>
<path d="M0,0 L3,0 L2,4 L-4,9 L-3,5 L0,1 Z " fill="#04030C" transform="translate(351,580)"/>
<path d="M0,0 L7,1 L4,4 L0,5 Z M7,0 Z " fill="#4130ED" transform="translate(319,503)"/>
<path d="M0,0 L2,2 L2,11 L3,13 L0,13 L-1,9 Z M-2,11 Z " fill="#3A2AF3" transform="translate(352,403)"/>
<path d="M0,0 L1,4 L-4,6 L-8,9 L-7,5 L-5,2 L0,3 Z " fill="#06031A" transform="translate(355,382)"/>
<path d="M0,0 L11,1 L10,4 L4,3 Z " fill="#180D8F" transform="translate(494,296)"/>
<path d="M0,0 L5,0 L2,3 L-4,5 L-5,2 Z " fill="#5A49F8" transform="translate(484,636)"/>
<path d="M0,0 L2,0 L2,5 L9,5 L9,6 L1,6 L-2,1 Z " fill="#3B2DBD" transform="translate(363,556)"/>
<path d="M0,0 L10,1 L10,3 L5,3 L2,3 L0,4 Z " fill="#6052F7" transform="translate(512,548)"/>
<path d="M0,0 L2,0 L2,2 L4,3 L3,11 L2,11 L2,3 L0,3 L-1,7 L-1,1 Z " fill="#4135D0" transform="translate(703,539)"/>
<path d="M0,0 L2,1 L1,6 L-5,6 Z " fill="#0C0B2A" transform="translate(726,510)"/>
<path d="M0,0 L6,0 L6,3 L1,5 Z " fill="#5846FA" transform="translate(485,496)"/>
<path d="M0,0 L10,1 L6,3 L6,5 L4,4 L5,2 L0,2 Z " fill="#5441F4" transform="translate(544,469)"/>
<path d="M0,0 L6,0 L5,3 L1,6 Z " fill="#3F34F8" transform="translate(646,416)"/>
<path d="M0,0 L3,0 L3,10 L0,6 L-1,2 Z " fill="#2A16E9" transform="translate(576,358)"/>
<path d="M0,0 L11,0 L14,1 L14,4 L9,2 L0,1 Z " fill="#1D0DD4" transform="translate(531,320)"/>
<path d="M0,0 L4,0 L3,5 L-1,8 Z " fill="#4E3BEA" transform="translate(351,587)"/>
<path d="M0,0 L5,2 L4,5 L1,5 L-1,5 L-3,1 Z " fill="#3322EC" transform="translate(591,384)"/>
<path d="M0,0 L7,0 L3,2 L2,7 L0,4 Z " fill="#2311C8" transform="translate(457,303)"/>
<path d="M0,0 L6,1 L4,3 L-5,3 L-1,1 Z " fill="#523FE4" transform="translate(651,630)"/>
<path d="M0,0 L2,0 L2,2 L4,3 L2,3 L2,5 L5,6 L0,5 L-2,1 Z " fill="#3E2FC5" transform="translate(359,618)"/>
<path d="M0,0 L5,1 L3,5 L0,5 Z " fill="#3C2CED" transform="translate(331,449)"/>
<path d="M0,0 L1,2 L4,3 L-1,6 L-3,2 Z " fill="#3624F7" transform="translate(491,350)"/>
<path d="M0,0 L9,0 L9,1 L2,2 L-1,6 L-2,1 Z " fill="#2310D3" transform="translate(462,304)"/>
<path d="M0,0 L7,0 L7,3 L0,3 Z " fill="#5441E7" transform="translate(681,620)"/>
<path d="M0,0 L3,2 L2,7 L0,7 L-1,3 Z " fill="#443ACF" transform="translate(717,562)"/>
<path d="M0,0 L5,0 L5,5 L0,4 Z " fill="#5C4BF8" transform="translate(476,543)"/>
<path d="M0,0 L7,1 L7,2 L2,2 L2,4 L7,4 L7,5 L1,5 Z " fill="#4131CE" transform="translate(337,541)"/>
<path d="M0,0 L2,0 L3,6 L1,11 L0,11 Z " fill="#3E2EEA" transform="translate(325,481)"/>
<path d="M0,0 L4,0 L2,4 L-3,4 L-2,1 Z " fill="#3120F6" transform="translate(475,338)"/>
<path d="M0,0 L7,0 L7,2 L1,2 L0,5 L0,2 L-2,1 Z " fill="#1E0EA6" transform="translate(515,303)"/>
<path d="M0,0 L5,0 L5,2 L2,2 L2,4 L-3,4 L-2,2 L0,2 Z " fill="#03031D" transform="translate(410,259)"/>
<path d="M0,0 L2,0 L2,2 L4,3 L2,3 L3,6 L-1,4 L-2,1 Z " fill="#4131C9" transform="translate(395,644)"/>
<path d="M0,0 L5,0 L5,5 L4,3 L-1,3 Z " fill="#4F3DE3" transform="translate(621,636)"/>
<path d="M0,0 L1,0 L1,5 L-3,7 L-2,1 Z " fill="#6454FA" transform="translate(672,570)"/>
<path d="M0,0 L1,3 L1,6 L-5,6 Z " fill="#0D0C31" transform="translate(720,516)"/>
<path d="M0,0 L3,1 L1,5 L1,3 L-1,3 L-1,8 L-2,8 L-2,2 Z " fill="#2F22BF" transform="translate(332,446)"/>
<path d="M0,0 L1,3 L-4,7 L-7,6 L-2,2 L0,2 Z " fill="#4C39F6" transform="translate(472,436)"/>
<path d="M0,0 L8,0 L7,2 L-1,3 Z " fill="#4632F6" transform="translate(493,405)"/>
<path d="M0,0 L3,1 L2,6 L-2,5 L-2,2 L0,2 Z " fill="#3925F5" transform="translate(384,378)"/>
<path d="M0,0 L4,1 L1,1 L2,5 L-1,4 L-2,8 L-2,2 Z " fill="#2517B8" transform="translate(414,344)"/>
<path d="M0,0 L5,0 L5,2 L-3,3 L-3,1 Z " fill="#2010BC" transform="translate(516,309)"/>
<path d="M0,0 L5,0 L5,3 L-1,3 Z " fill="#523FE8" transform="translate(635,633)"/>
<path d="M0,0 L2,2 L1,3 L1,10 L-3,9 Z " fill="#5A4AF8" transform="translate(545,620)"/>
<path d="M0,0 L1,3 L5,4 L5,6 L-2,5 L-2,3 L0,3 Z " fill="#5644EE" transform="translate(706,605)"/>
<path d="M0,0 L1,0 L1,8 L-2,8 L-2,4 L0,4 Z " fill="#010107" transform="translate(731,456)"/>
<path d="M0,0 L4,0 L4,4 L0,4 Z " fill="#05031B" transform="translate(335,801)"/>
<path d="M0,0 L2,4 L-2,5 L-3,2 Z " fill="#4B39E6" transform="translate(394,640)"/>
<path d="M0,0 L9,0 L9,1 L3,1 L3,3 L-1,2 Z " fill="#5846F6" transform="translate(529,639)"/>
<path d="M0,0 L6,1 L5,3 L1,3 L0,5 L-1,1 Z " fill="#5545F3" transform="translate(389,574)"/>
<path d="M0,0 L3,2 L-3,7 L-2,2 L0,2 Z " fill="#3D37D6" transform="translate(720,512)"/>
<path d="M0,0 L2,2 L1,11 L0,11 L-1,4 Z " fill="#5B49F7" transform="translate(566,504)"/>
<path d="M0,0 L4,0 L4,4 L0,4 Z " fill="#5541FA" transform="translate(460,508)"/>
<path d="M0,0 L1,3 L-3,7 L-4,2 L0,2 Z " fill="#4F49F7" transform="translate(675,464)"/>
<path d="M0,0 L7,0 L7,3 L0,2 Z " fill="#3A23F7" transform="translate(429,352)"/>
<path d="M0,0 L4,0 L4,4 L0,4 Z " fill="#1F11B5" transform="translate(591,337)"/>
<path d="M0,0 L5,0 L1,4 L-3,3 L0,3 Z " fill="#5442EE" transform="translate(620,628)"/>
<path d="M0,0 L2,0 L3,3 L2,5 L-1,5 Z " fill="#5542F4" transform="translate(480,508)"/>
<path d="M0,0 L1,0 L3,8 L0,10 Z " fill="#5342F5" transform="translate(629,487)"/>
<path d="M0,0 L3,1 L3,5 L6,6 L2,6 L2,4 L0,4 Z " fill="#080827" transform="translate(674,412)"/>
<path d="M0,0 L4,2 L3,3 L-4,2 Z " fill="#4532F6" transform="translate(592,412)"/>
<path d="M0,0 L6,3 L5,7 L5,4 L1,4 Z " fill="#2B1BCC" transform="translate(594,377)"/>
<path d="M0,0 L1,0 L1,7 L-2,5 L-2,1 Z " fill="#4C3AE9" transform="translate(399,644)"/>
<path d="M0,0 L3,1 L-1,4 L-4,3 Z " fill="#5C4BF9" transform="translate(511,564)"/>
<path d="M0,0 L3,0 L4,4 L0,4 Z " fill="#5449F2" transform="translate(672,508)"/>
<path d="M0,0 L3,0 L2,4 L-1,4 Z " fill="#5143F8" transform="translate(634,475)"/>
<path d="M0,0 L3,0 L2,5 L0,5 Z " fill="#4530F7" transform="translate(445,411)"/>
<path d="M0,0 L6,1 L2,3 L-1,5 Z " fill="#05031B" transform="translate(376,366)"/>
<path d="M0,0 L3,0 L2,4 L0,6 Z " fill="#5A48F2" transform="translate(392,617)"/>
<path d="M0,0 L5,2 L3,4 L0,4 Z " fill="#5341E5" transform="translate(698,613)"/>
<path d="M0,0 L1,3 L3,3 L2,7 L0,6 Z " fill="#0B0A22" transform="translate(712,552)"/>
<path d="M0,0 L2,0 L3,4 L0,5 L-2,3 L0,3 Z " fill="#524CF6" transform="translate(696,506)"/>
<path d="M0,0 L1,0 L1,6 L-2,7 L-2,3 L0,3 Z " fill="#0A0723" transform="translate(317,502)"/>
<path d="M0,0 L1,0 L1,6 L-2,7 L-2,3 L0,3 Z " fill="#080623" transform="translate(329,448)"/>
<path d="M0,0 L3,1 L3,3 L-2,4 Z " fill="#4031BE" transform="translate(372,576)"/>
<path d="M0,0 L5,1 L3,4 L1,4 Z " fill="#5B4AF6" transform="translate(567,527)"/>
<path d="M0,0 L4,1 L2,5 Z " fill="#574DF7" transform="translate(664,520)"/>
<path d="M0,0 L3,1 L1,5 L1,3 L-1,3 Z " fill="#3224CA" transform="translate(328,454)"/>
<path d="M0,0 L3,3 L3,6 L0,5 Z " fill="#4B37F4" transform="translate(511,445)"/>
<path d="M0,0 L3,1 L1,4 L-1,4 Z M-2,4 Z M-3,5 Z " fill="#4541FA" transform="translate(671,441)"/>
<path d="M0,0 L1,3 L-3,6 L-2,2 Z " fill="#02010D" transform="translate(346,389)"/>
<path d="M0,0 L7,1 L7,2 L2,2 L1,4 Z " fill="#3521E3" transform="translate(367,376)"/>
<path d="M0,0 L4,2 L4,3 L-3,3 L0,2 Z " fill="#2512E0" transform="translate(464,309)"/>
<path d="M0,0 L4,0 L4,2 L2,2 L2,4 L0,4 Z " fill="#090531" transform="translate(506,304)"/>
<path d="M0,0 L2,0 L1,7 L0,7 L0,2 L-2,1 Z " fill="#150B78" transform="translate(563,301)"/>
<path d="M0,0 L2,0 L1,4 L-1,5 Z " fill="#4130DC" transform="translate(566,658)"/>
<path d="M0,0 L4,1 L5,3 L0,2 Z " fill="#04030C" transform="translate(342,550)"/>
<path d="M0,0 L2,2 L1,6 L-1,3 Z " fill="#554BF7" transform="translate(668,524)"/>
<path d="M0,0 L3,2 L-1,5 L-2,2 L0,2 Z " fill="#3E38D5" transform="translate(724,508)"/>
<path d="M0,0 L6,0 L4,3 L0,2 Z " fill="#4D37F6" transform="translate(391,473)"/>
<path d="M0,0 L4,1 L4,3 L0,3 Z " fill="#423DF9" transform="translate(672,433)"/>
<path d="M0,0 L4,1 L3,3 L-1,2 Z " fill="#2C22DF" transform="translate(645,391)"/>
<path d="M0,0 L3,0 L3,2 L-2,3 L-2,1 Z " fill="#2B16ED" transform="translate(470,316)"/>
<path d="M0,0 L6,1 L2,3 L0,3 Z " fill="#4838C8" transform="translate(682,622)"/>
<path d="M0,0 L3,1 L3,3 L0,4 Z " fill="#5D4DF8" transform="translate(447,569)"/>
<path d="M0,0 L2,0 L3,4 L0,4 Z " fill="#5C4BFB" transform="translate(496,564)"/>
<path d="M0,0 L3,0 L2,5 L0,3 Z " fill="#5A48F8" transform="translate(574,520)"/>
<path d="M0,0 L5,1 L1,3 Z " fill="#5D4DF8" transform="translate(648,519)"/>
<path d="M0,0 L1,4 L-2,4 L-2,1 Z " fill="#08061E" transform="translate(323,480)"/>
<path d="M0,0 L3,3 L2,5 L0,5 Z " fill="#5543F8" transform="translate(536,469)"/>
<path d="M0,0 L4,0 L3,3 L0,2 Z " fill="#4734F4" transform="translate(415,448)"/>
<path d="M0,0 L3,3 L0,4 L-3,2 L0,2 Z " fill="#2E2CE7" transform="translate(670,411)"/>
<path d="M0,0 L4,2 L0,3 Z M4,0 Z " fill="#2F1EF5" transform="translate(563,373)"/>
<path d="M0,0 L3,0 L1,4 L-1,1 Z " fill="#3222F5" transform="translate(544,370)"/>
</svg>
