<?xml version="1.0" encoding="UTF-8"?>
<!-- Generator: visioncortex VTracer 0.6.4 -->
<svg version="1.1" xmlns="http://www.w3.org/2000/svg" width="1024" height="1024">
<path d="M0,0 L1024,0 L1024,1024 L0,1024 Z " fill="#000000" transform="translate(0,0)"/>
<path d="M0,0 L24,0 L24,2 L28,2 L28,0 L50,0 L50,2 L60,2 L60,4 L78,4 L78,6 L84,6 L88,10 L88,8 L90,8 L90,10 L100,10 L100,12 L112,12 L112,16 L116,16 L116,18 L122,18 L122,20 L124,20 L124,24 L130,24 L134,29 L136,30 L136,34 L142,34 L142,52 L144,52 L144,54 L140,54 L140,56 L138,56 L138,58 L134,58 L134,62 L128,62 L128,64 L126,64 L126,66 L122,70 L116,69 L114,74 L120,74 L120,80 L116,80 L116,84 L114,84 L114,86 L112,86 L112,92 L108,92 L108,88 L106,88 L106,84 L104,84 L104,86 L102,86 L102,84 L98,84 L98,82 L94,82 L94,80 L86,80 L86,78 L80,78 L80,82 L60,82 L60,84 L56,84 L56,86 L48,86 L48,88 L46,88 L48,93 L43,94 L42,102 L40,102 L40,104 L42,104 L42,106 L32,106 L32,108 L34,108 L34,114 L30,114 L30,116 L28,116 L28,118 L26,118 L26,122 L24,122 L24,124 L26,124 L26,136 L30,136 L30,138 L36,138 L42,145 L44,146 L44,158 L46,158 L46,186 L44,186 L44,194 L42,194 L42,196 L40,196 L41,202 L40,206 L36,206 L36,208 L38,208 L38,214 L36,214 L36,216 L40,216 L40,220 L42,220 L42,224 L44,224 L44,226 L48,226 L48,230 L64,230 L64,232 L72,232 L72,236 L80,236 L80,232 L114,232 L114,234 L120,234 L120,236 L128,236 L128,234 L122,234 L122,232 L134,232 L134,234 L130,234 L130,236 L136,236 L136,234 L168,234 L168,232 L186,232 L186,230 L188,230 L188,228 L202,228 L202,226 L204,226 L206,222 L208,222 L208,224 L212,224 L212,222 L214,222 L214,220 L216,220 L216,210 L218,210 L218,204 L216,204 L216,192 L218,192 L218,186 L216,186 L216,184 L218,184 L218,182 L220,182 L220,172 L222,172 L222,166 L224,166 L224,162 L226,162 L226,156 L228,156 L228,154 L230,154 L228,150 L228,146 L232,146 L232,144 L234,144 L234,142 L236,142 L236,140 L238,140 L238,138 L236,138 L236,136 L238,136 L238,130 L242,130 L242,128 L244,128 L244,126 L254,126 L254,124 L260,124 L260,130 L266,130 L266,132 L272,132 L272,130 L274,130 L275,134 L274,136 L278,136 L278,138 L282,138 L289,146 L292,148 L292,154 L296,154 L296,162 L298,162 L298,166 L300,166 L300,170 L304,170 L304,176 L306,176 L306,178 L308,178 L308,184 L310,184 L310,188 L312,188 L312,196 L316,196 L316,202 L318,202 L318,206 L320,206 L320,210 L322,210 L322,220 L324,220 L324,224 L326,224 L326,228 L328,228 L328,234 L330,234 L330,238 L332,238 L332,244 L334,244 L334,250 L336,250 L336,262 L334,262 L334,264 L332,264 L332,270 L330,270 L330,272 L328,272 L328,276 L326,276 L326,278 L324,278 L324,280 L322,280 L322,286 L320,286 L320,290 L316,290 L316,294 L314,294 L314,296 L307,302 L306,304 L304,304 L304,308 L300,308 L300,312 L298,312 L298,314 L296,314 L296,318 L293,320 L292,326 L288,326 L288,330 L286,330 L286,336 L284,336 L284,338 L280,338 L280,342 L278,342 L278,356 L274,356 L274,360 L272,360 L272,362 L268,362 L268,364 L266,364 L266,366 L262,370 L260,370 L260,372 L256,372 L256,370 L246,370 L246,372 L248,372 L248,374 L224,374 L224,372 L228,372 L228,370 L226,370 L226,368 L220,368 L220,370 L218,370 L218,368 L212,368 L212,370 L210,370 L210,372 L206,372 L206,370 L198,370 L198,372 L192,372 L192,370 L164,370 L164,374 L128,374 L128,372 L118,372 L118,370 L114,370 L114,372 L110,372 L112,377 L114,378 L114,380 L110,380 L110,382 L108,382 L108,378 L104,378 L104,376 L96,376 L96,374 L90,374 L90,370 L88,370 L88,366 L84,366 L84,358 L82,358 L82,354 L80,354 L80,358 L78,358 L78,344 L80,344 L80,334 L78,334 L78,332 L74,332 L74,334 L68,334 L64,330 L64,332 L60,332 L60,330 L28,330 L28,328 L22,328 L22,330 L16,330 L16,328 L6,328 L6,330 L2,330 L2,332 L-4,332 L-4,334 L-6,334 L-6,344 L-12,344 L-12,360 L-14,360 L-14,368 L-16,368 L-16,374 L-14,374 L-14,386 L-18,386 L-18,392 L-20,392 L-20,398 L-22,398 L-22,400 L-24,400 L-24,402 L-42,402 L-44,398 L-52,398 L-52,396 L-57,395 L-60,392 L-60,390 L-66,390 L-66,388 L-68,388 L-68,392 L-70,392 L-70,394 L-72,394 L-72,384 L-70,384 L-70,382 L-66,382 L-66,380 L-72,380 L-72,378 L-70,378 L-70,376 L-72,376 L-72,344 L-78,344 L-78,340 L-82,338 L-86,334 L-86,332 L-90,332 L-90,328 L-94,326 L-98,322 L-98,320 L-102,320 L-102,318 L-112,318 L-114,314 L-120,314 L-120,312 L-124,312 L-124,310 L-132,310 L-132,302 L-134,302 L-134,298 L-136,298 L-136,292 L-138,292 L-140,287 L-144,284 L-144,274 L-148,274 L-150,267 L-152,266 L-154,259 L-156,258 L-156,252 L-154,252 L-154,244 L-152,244 L-152,242 L-150,242 L-150,238 L-148,238 L-147,233 L-144,232 L-144,228 L-142,228 L-142,220 L-140,220 L-138,216 L-136,216 L-136,208 L-134,208 L-134,204 L-132,204 L-132,194 L-130,194 L-129,189 L-126,188 L-126,182 L-124,182 L-122,178 L-120,178 L-120,168 L-118,168 L-117,163 L-114,162 L-114,154 L-112,154 L-112,144 L-110,144 L-110,140 L-108,140 L-108,138 L-110,138 L-110,136 L-108,136 L-108,124 L-106,124 L-106,118 L-108,118 L-108,114 L-106,114 L-108,110 L-108,106 L-106,106 L-106,92 L-102,88 L-100,88 L-100,86 L-98,86 L-98,82 L-96,82 L-96,74 L-94,74 L-94,70 L-92,70 L-91,65 L-88,64 L-88,62 L-84,62 L-84,60 L-82,60 L-82,58 L-80,58 L-80,50 L-78,50 L-78,46 L-72,46 L-72,40 L-66,40 L-66,36 L-64,36 L-64,34 L-60,34 L-59,29 L-56,26 L-54,26 L-54,24 L-48,24 L-48,22 L-42,22 L-42,18 L-40,18 L-40,16 L-36,16 L-36,12 L-30,12 L-30,10 L-18,10 L-18,6 L-14,6 L-14,4 L-8,4 L-8,2 L-6,2 L-6,4 L-3,2 L0,2 Z " fill="#926F77" transform="translate(432,278)"/>
<path d="M0,0 L24,0 L24,2 L28,2 L28,0 L50,0 L50,2 L60,2 L60,4 L78,4 L78,6 L84,6 L88,10 L88,8 L90,8 L90,10 L100,10 L100,12 L112,12 L112,16 L116,16 L116,18 L122,18 L122,20 L124,20 L124,24 L130,24 L134,29 L136,30 L136,34 L142,34 L142,52 L144,52 L144,54 L140,54 L140,56 L138,56 L138,58 L134,58 L134,62 L128,62 L128,64 L126,64 L126,66 L122,70 L116,69 L114,74 L120,74 L120,80 L116,80 L116,84 L114,84 L114,86 L112,86 L112,92 L108,92 L108,88 L106,88 L106,84 L104,84 L104,86 L102,86 L102,84 L98,84 L98,82 L94,82 L94,80 L86,80 L86,78 L80,78 L80,82 L60,82 L60,84 L56,84 L56,86 L48,86 L48,88 L46,88 L48,93 L43,94 L42,102 L40,102 L40,104 L42,104 L42,106 L32,106 L32,108 L34,108 L34,114 L30,114 L30,116 L28,116 L28,118 L26,118 L26,122 L24,122 L24,124 L26,124 L26,136 L30,136 L30,138 L36,138 L42,145 L44,146 L44,158 L46,158 L46,186 L44,186 L44,194 L42,194 L42,196 L40,196 L41,202 L40,206 L36,206 L36,208 L38,208 L38,214 L36,214 L36,216 L40,216 L40,220 L42,220 L42,224 L44,224 L44,226 L48,226 L48,230 L64,230 L64,232 L72,232 L72,236 L80,236 L80,232 L114,232 L114,234 L120,234 L120,236 L128,236 L128,234 L122,234 L122,232 L134,232 L134,234 L130,234 L130,236 L136,236 L136,234 L168,234 L168,232 L186,232 L186,230 L188,230 L188,228 L202,228 L202,226 L204,226 L206,222 L208,222 L208,224 L212,224 L212,222 L214,222 L214,220 L216,220 L216,210 L218,210 L218,204 L216,204 L216,192 L218,192 L218,186 L216,186 L216,184 L218,184 L218,182 L220,182 L220,172 L222,172 L222,166 L224,166 L224,162 L226,162 L226,156 L228,156 L228,154 L230,154 L228,150 L228,146 L232,146 L232,144 L234,144 L234,142 L236,142 L236,140 L238,140 L238,138 L236,138 L236,136 L238,136 L238,130 L242,130 L242,128 L244,128 L244,126 L254,126 L254,124 L260,124 L260,130 L266,130 L266,132 L272,132 L272,130 L274,130 L275,134 L274,136 L278,136 L278,138 L282,138 L289,146 L292,148 L292,154 L296,154 L296,162 L298,162 L298,166 L300,166 L300,170 L304,170 L304,176 L306,176 L306,178 L308,178 L308,184 L310,184 L310,188 L312,188 L312,196 L311,196 L311,189 L309,189 L309,195 L308,195 L306,189 L304,189 L303,187 L301,189 L303,178 L301,178 L299,182 L297,181 L298,180 L299,173 L297,173 L295,167 L291,168 L288,165 L286,168 L284,147 L280,145 L280,143 L275,145 L269,144 L272,143 L272,138 L259,138 L255,139 L251,138 L250,141 L245,142 L243,144 L242,142 L235,148 L229,147 L229,149 L234,150 L234,156 L227,170 L229,171 L227,173 L226,183 L223,190 L222,201 L223,207 L221,221 L215,226 L212,226 L212,228 L209,229 L206,232 L203,233 L203,236 L202,239 L201,237 L193,237 L189,237 L170,238 L164,242 L160,243 L160,238 L151,240 L139,239 L136,242 L132,242 L132,240 L120,243 L119,239 L113,241 L112,246 L86,246 L79,245 L77,244 L71,244 L68,245 L68,243 L65,243 L63,249 L54,250 L38,248 L38,244 L33,244 L35,242 L34,235 L31,234 L29,229 L29,225 L25,225 L23,222 L22,204 L21,199 L24,198 L25,202 L24,206 L29,206 L29,202 L32,203 L31,205 L33,203 L36,202 L35,195 L39,191 L41,184 L41,159 L40,158 L39,149 L38,145 L34,143 L25,142 L25,139 L23,139 L22,137 L21,125 L20,120 L18,121 L16,125 L14,122 L14,118 L18,114 L23,113 L22,106 L17,107 L18,99 L19,101 L22,99 L23,84 L21,85 L20,81 L25,78 L23,76 L26,76 L26,74 L28,73 L30,70 L32,70 L34,77 L39,75 L40,71 L44,66 L45,64 L56,64 L56,59 L51,59 L51,58 L71,57 L75,53 L79,52 L82,53 L83,50 L83,53 L85,54 L81,55 L80,63 L88,62 L89,66 L83,70 L80,74 L87,75 L95,76 L95,78 L99,79 L106,80 L104,76 L104,73 L107,73 L107,70 L112,70 L112,64 L120,64 L125,60 L127,60 L127,58 L132,57 L133,54 L137,52 L138,38 L135,37 L130,33 L130,41 L129,41 L128,30 L124,29 L123,26 L119,23 L117,26 L115,26 L115,24 L110,24 L106,22 L104,19 L99,16 L96,16 L94,19 L85,16 L73,15 L69,17 L64,17 L62,11 L52,11 L48,11 L8,11 L4,17 L-7,18 L-10,20 L-13,20 L-14,23 L-22,24 L-25,27 L-35,27 L-35,30 L-37,30 L-38,33 L-48,36 L-53,41 L-56,47 L-58,49 L-60,62 L-59,66 L-61,67 L-64,66 L-65,71 L-67,74 L-67,62 L-63,52 L-67,53 L-66,47 L-70,47 L-71,50 L-75,54 L-76,66 L-78,73 L-79,73 L-80,65 L-83,65 L-88,71 L-86,73 L-90,75 L-90,78 L-92,78 L-91,86 L-89,88 L-97,94 L-99,96 L-97,101 L-100,105 L-97,104 L-99,109 L-100,112 L-99,119 L-100,129 L-100,148 L-103,154 L-105,154 L-108,172 L-109,182 L-111,183 L-114,191 L-115,201 L-116,203 L-118,203 L-119,212 L-121,218 L-124,221 L-128,226 L-130,226 L-129,230 L-131,238 L-134,238 L-136,250 L-139,251 L-138,259 L-135,260 L-134,262 L-127,266 L-127,268 L-125,268 L-125,274 L-119,274 L-119,282 L-114,285 L-113,292 L-114,298 L-111,301 L-111,303 L-106,303 L-106,305 L-102,304 L-102,306 L-100,306 L-100,308 L-94,308 L-93,310 L-89,310 L-88,308 L-80,310 L-75,314 L-75,316 L-73,317 L-74,319 L-77,319 L-75,322 L-74,327 L-68,326 L-68,331 L-62,330 L-64,333 L-66,333 L-65,343 L-63,343 L-64,347 L-66,347 L-67,372 L-65,378 L-61,381 L-65,385 L-59,387 L-58,389 L-59,391 L-57,391 L-56,389 L-56,395 L-60,392 L-60,390 L-66,390 L-66,388 L-68,388 L-68,392 L-70,392 L-70,394 L-72,394 L-72,384 L-70,384 L-70,382 L-66,382 L-66,380 L-72,380 L-72,378 L-70,378 L-70,376 L-72,376 L-72,344 L-78,344 L-78,340 L-82,338 L-86,334 L-86,332 L-90,332 L-90,328 L-94,326 L-98,322 L-98,320 L-102,320 L-102,318 L-112,318 L-114,314 L-120,314 L-120,312 L-124,312 L-124,310 L-132,310 L-132,302 L-134,302 L-134,298 L-136,298 L-136,292 L-138,292 L-140,287 L-144,284 L-144,274 L-148,274 L-150,267 L-152,266 L-154,259 L-156,258 L-156,252 L-154,252 L-154,244 L-152,244 L-152,242 L-150,242 L-150,238 L-148,238 L-147,233 L-144,232 L-144,228 L-142,228 L-142,220 L-140,220 L-138,216 L-136,216 L-136,208 L-134,208 L-134,204 L-132,204 L-132,194 L-130,194 L-129,189 L-126,188 L-126,182 L-124,182 L-122,178 L-120,178 L-120,168 L-118,168 L-117,163 L-114,162 L-114,154 L-112,154 L-112,144 L-110,144 L-110,140 L-108,140 L-108,138 L-110,138 L-110,136 L-108,136 L-108,124 L-106,124 L-106,118 L-108,118 L-108,114 L-106,114 L-108,110 L-108,106 L-106,106 L-106,92 L-102,88 L-100,88 L-100,86 L-98,86 L-98,82 L-96,82 L-96,74 L-94,74 L-94,70 L-92,70 L-91,65 L-88,64 L-88,62 L-84,62 L-84,60 L-82,60 L-82,58 L-80,58 L-80,50 L-78,50 L-78,46 L-72,46 L-72,40 L-66,40 L-66,36 L-64,36 L-64,34 L-60,34 L-59,29 L-56,26 L-54,26 L-54,24 L-48,24 L-48,22 L-42,22 L-42,18 L-40,18 L-40,16 L-36,16 L-36,12 L-30,12 L-30,10 L-18,10 L-18,6 L-14,6 L-14,4 L-8,4 L-8,2 L-6,2 L-6,4 L-3,2 L0,2 Z M99,14 Z M-73,56 L-71,57 L-74,57 Z M-75,58 Z M242,144 Z M224,188 Z M223,189 Z " fill="#774D56" transform="translate(432,278)"/>
<path d="M0,0 L2,1 L2,7 L-1,7 L-2,2 Z M31,-40 L32,-40 L32,-34 L34,-34 L34,-22 L32,-22 L32,-20 L30,-20 L30,-14 L28,-14 L28,-12 L26,-12 L26,-8 L24,-8 L24,-6 L22,-6 L22,-4 L20,-4 L20,2 L18,2 L18,6 L14,6 L14,10 L12,10 L12,12 L5,18 L4,20 L2,20 L2,24 L-2,24 L-2,28 L-4,28 L-4,30 L-6,30 L-6,34 L-9,36 L-10,42 L-14,42 L-14,46 L-16,46 L-16,52 L-18,52 L-18,54 L-22,54 L-22,58 L-24,58 L-24,72 L-28,72 L-28,76 L-30,76 L-30,78 L-34,78 L-34,80 L-36,80 L-36,82 L-40,86 L-42,86 L-42,88 L-46,88 L-46,86 L-56,86 L-56,88 L-54,88 L-54,90 L-78,90 L-78,88 L-74,88 L-74,86 L-76,86 L-76,84 L-82,84 L-82,86 L-84,86 L-84,84 L-90,84 L-90,86 L-92,86 L-92,88 L-96,88 L-96,86 L-104,86 L-104,88 L-110,88 L-110,86 L-138,86 L-138,90 L-174,90 L-174,88 L-184,88 L-184,86 L-188,86 L-188,88 L-192,88 L-190,93 L-188,94 L-188,96 L-192,96 L-192,98 L-194,98 L-194,94 L-198,94 L-198,92 L-206,92 L-206,90 L-212,90 L-212,86 L-214,86 L-214,82 L-218,82 L-218,74 L-220,74 L-220,70 L-222,70 L-222,74 L-224,74 L-224,60 L-222,60 L-222,50 L-224,50 L-224,48 L-228,48 L-228,50 L-234,50 L-238,46 L-238,48 L-242,48 L-242,46 L-274,46 L-274,44 L-280,44 L-280,46 L-286,46 L-286,44 L-296,44 L-296,46 L-300,46 L-300,48 L-306,48 L-306,50 L-308,50 L-308,60 L-314,60 L-314,76 L-316,76 L-316,84 L-318,84 L-318,90 L-316,90 L-316,102 L-320,102 L-320,108 L-322,108 L-322,114 L-324,114 L-324,116 L-326,116 L-326,118 L-344,118 L-346,114 L-354,114 L-354,112 L-358,111 L-354,111 L-354,109 L-350,108 L-350,110 L-343,110 L-341,113 L-333,112 L-328,114 L-328,112 L-326,112 L-327,108 L-324,101 L-321,98 L-321,92 L-322,90 L-322,69 L-321,67 L-321,52 L-322,48 L-321,43 L-313,44 L-306,42 L-304,36 L-302,33 L-298,33 L-298,35 L-289,34 L-290,30 L-270,32 L-235,33 L-235,36 L-226,37 L-224,38 L-224,40 L-214,41 L-212,48 L-207,49 L-205,53 L-203,54 L-203,60 L-201,59 L-201,53 L-194,55 L-194,57 L-190,57 L-190,60 L-186,60 L-185,66 L-161,66 L-154,65 L-154,67 L-148,66 L-148,68 L-143,68 L-141,66 L-138,66 L-138,70 L-108,70 L-106,69 L-90,71 L-76,74 L-49,73 L-42,73 L-40,71 L-35,71 L-34,63 L-30,59 L-28,59 L-26,53 L-23,47 L-21,43 L-19,42 L-16,33 L-13,30 L-11,30 L-9,26 L-6,25 L-5,20 L-2,17 L1,17 L1,12 L3,11 L5,5 L4,1 L2,0 L5,-1 L5,1 L7,1 L7,-1 L11,-5 L16,-4 L18,-8 L19,-10 L20,-11 L19,-11 L19,-18 L22,-20 L23,-26 L26,-25 L29,-23 Z M-270,31 Z " fill="#7F6465" transform="translate(734,562)"/>
<path d="M0,0 L2,0 L2,2 L5,1 L3,6 L2,9 L3,16 L2,26 L2,45 L-1,51 L-3,51 L-6,69 L-7,79 L-9,80 L-12,88 L-13,98 L-14,100 L-16,100 L-17,109 L-19,115 L-22,118 L-26,123 L-28,123 L-27,127 L-29,135 L-32,135 L-34,147 L-37,148 L-36,156 L-33,157 L-32,159 L-25,163 L-25,165 L-23,165 L-23,171 L-17,171 L-17,179 L-12,182 L-11,189 L-12,195 L-9,198 L-9,200 L-4,200 L-4,202 L0,201 L0,203 L2,203 L2,205 L8,205 L9,207 L13,207 L14,205 L22,207 L27,211 L27,213 L29,214 L28,216 L25,216 L27,219 L28,224 L34,223 L34,228 L40,227 L38,230 L36,230 L37,240 L39,240 L38,244 L36,244 L35,269 L37,275 L41,278 L37,282 L43,284 L44,286 L43,288 L45,288 L46,286 L46,292 L42,289 L42,287 L36,287 L36,285 L34,285 L34,289 L32,289 L32,291 L30,291 L30,281 L32,281 L32,279 L36,279 L36,277 L30,277 L30,275 L32,275 L32,273 L30,273 L30,241 L24,241 L24,237 L20,235 L16,231 L16,229 L12,229 L12,225 L8,223 L4,219 L4,217 L0,217 L0,215 L-10,215 L-12,211 L-18,211 L-18,209 L-22,209 L-22,207 L-30,207 L-30,199 L-32,199 L-32,195 L-34,195 L-34,189 L-36,189 L-38,184 L-42,181 L-42,171 L-46,171 L-48,164 L-50,163 L-52,156 L-54,155 L-54,149 L-52,149 L-52,141 L-50,141 L-50,139 L-48,139 L-48,135 L-46,135 L-45,130 L-42,129 L-42,125 L-40,125 L-40,117 L-38,117 L-36,113 L-34,113 L-34,105 L-32,105 L-32,101 L-30,101 L-30,91 L-28,91 L-27,86 L-24,85 L-24,79 L-22,79 L-20,75 L-18,75 L-18,65 L-16,65 L-15,60 L-11,59 L-11,52 L-8,53 L-7,51 L-9,51 L-9,42 L-7,41 L-7,38 L-5,37 L-5,35 L-3,35 L-2,25 L0,25 L-1,21 L-3,21 L-3,15 L-1,12 Z " fill="#886566" transform="translate(330,381)"/>
<path d="M0,0 L6,0 L6,6 L12,6 L12,8 L18,8 L18,6 L20,6 L21,10 L20,12 L24,12 L24,14 L28,14 L35,22 L38,24 L38,30 L42,30 L42,38 L44,38 L44,42 L46,42 L46,46 L50,46 L50,52 L52,52 L52,54 L54,54 L54,60 L56,60 L56,64 L58,64 L58,72 L57,72 L57,65 L55,65 L55,71 L54,71 L52,65 L50,65 L49,63 L47,65 L49,54 L47,54 L45,58 L43,57 L44,56 L45,49 L43,49 L41,43 L37,44 L34,41 L32,44 L30,23 L26,21 L26,19 L21,21 L15,20 L18,19 L18,14 L5,14 L1,15 L-3,14 L-4,17 L-9,18 L-11,20 L-12,18 L-19,24 L-25,23 L-25,25 L-20,26 L-20,32 L-27,46 L-25,47 L-27,49 L-28,59 L-31,66 L-32,77 L-31,83 L-33,97 L-39,102 L-42,102 L-42,104 L-45,105 L-48,108 L-51,109 L-51,112 L-52,115 L-53,113 L-61,113 L-65,113 L-84,114 L-90,118 L-94,119 L-94,114 L-103,116 L-115,115 L-118,118 L-122,118 L-122,116 L-134,119 L-135,115 L-141,117 L-142,122 L-168,122 L-175,121 L-177,120 L-183,120 L-186,121 L-186,119 L-189,119 L-191,125 L-200,126 L-216,124 L-216,120 L-221,120 L-219,118 L-220,111 L-223,110 L-225,105 L-225,101 L-229,101 L-231,98 L-232,80 L-233,75 L-230,74 L-229,78 L-230,82 L-225,82 L-224,85 L-222,83 L-220,88 L-221,89 L-219,90 L-219,92 L-214,92 L-214,96 L-212,96 L-212,100 L-210,100 L-210,102 L-206,102 L-206,106 L-190,106 L-190,108 L-182,108 L-182,112 L-174,112 L-174,108 L-140,108 L-140,110 L-134,110 L-134,112 L-126,112 L-126,110 L-132,110 L-132,108 L-120,108 L-120,110 L-124,110 L-124,112 L-118,112 L-118,110 L-86,110 L-86,108 L-68,108 L-68,106 L-66,106 L-66,104 L-52,104 L-52,102 L-50,102 L-48,98 L-46,98 L-46,100 L-42,100 L-42,98 L-40,98 L-40,96 L-38,96 L-38,86 L-36,86 L-36,80 L-38,80 L-38,68 L-36,68 L-36,62 L-38,62 L-38,60 L-36,60 L-36,58 L-34,58 L-34,48 L-32,48 L-32,42 L-30,42 L-30,38 L-28,38 L-28,32 L-26,32 L-26,30 L-24,30 L-26,26 L-26,22 L-22,22 L-22,20 L-20,20 L-20,18 L-18,18 L-18,16 L-16,16 L-16,14 L-18,14 L-18,12 L-16,12 L-16,6 L-12,6 L-12,4 L-10,4 L-10,2 L0,2 Z M-12,20 Z M-30,64 Z M-31,65 Z " fill="#7A5964" transform="translate(686,402)"/>
<path d="M0,0 L1,0 L1,6 L3,6 L3,18 L1,18 L1,20 L-1,20 L-1,26 L-3,26 L-3,28 L-5,28 L-5,32 L-7,32 L-7,34 L-9,34 L-9,36 L-11,36 L-11,42 L-13,42 L-13,46 L-17,46 L-17,50 L-19,50 L-19,52 L-26,58 L-27,60 L-29,60 L-29,64 L-33,64 L-33,68 L-35,68 L-35,70 L-37,70 L-37,74 L-40,76 L-41,82 L-45,82 L-45,86 L-47,86 L-47,92 L-49,92 L-49,94 L-53,94 L-53,98 L-55,98 L-55,112 L-59,112 L-59,116 L-61,116 L-61,118 L-65,118 L-65,120 L-67,120 L-67,122 L-71,126 L-73,126 L-73,128 L-77,128 L-77,126 L-87,126 L-87,128 L-85,128 L-85,130 L-109,130 L-109,128 L-105,128 L-105,126 L-107,126 L-107,123 L-121,123 L-121,120 L-125,121 L-129,122 L-129,119 L-141,119 L-145,118 L-156,118 L-161,120 L-175,119 L-196,120 L-202,119 L-202,113 L-206,112 L-211,113 L-211,107 L-208,106 L-192,106 L-185,105 L-185,107 L-179,106 L-179,108 L-174,108 L-172,106 L-169,106 L-169,110 L-139,110 L-137,109 L-121,111 L-107,114 L-80,113 L-73,113 L-71,111 L-66,111 L-65,103 L-61,99 L-59,99 L-57,93 L-54,87 L-52,83 L-50,82 L-47,73 L-44,70 L-42,70 L-40,66 L-37,65 L-36,60 L-33,57 L-30,57 L-30,52 L-28,51 L-26,45 L-27,41 L-29,40 L-26,39 L-26,41 L-24,41 L-24,39 L-20,35 L-15,36 L-13,32 L-12,30 L-11,29 L-12,29 L-12,22 L-9,20 L-8,14 L-5,15 L-2,17 Z M-31,40 L-29,41 L-29,47 L-32,47 L-33,42 Z " fill="#887172" transform="translate(765,522)"/>
<path d="M0,0 L4,1 L5,3 L12,7 L12,9 L14,9 L14,15 L20,15 L20,23 L25,26 L26,33 L25,39 L28,42 L28,44 L33,44 L33,46 L37,45 L37,47 L39,47 L39,49 L45,49 L46,51 L50,51 L51,49 L59,51 L64,55 L64,57 L66,58 L65,60 L62,60 L64,63 L65,68 L71,67 L71,72 L77,71 L75,74 L73,74 L74,84 L76,84 L75,88 L73,88 L72,113 L74,119 L78,122 L74,126 L80,128 L81,130 L80,132 L82,132 L83,130 L83,136 L79,133 L79,131 L73,131 L73,129 L71,129 L71,133 L69,133 L69,135 L67,135 L67,125 L69,125 L69,123 L73,123 L73,121 L67,121 L67,119 L69,119 L69,117 L67,117 L67,85 L61,85 L61,81 L57,79 L53,75 L53,73 L49,73 L49,69 L45,67 L41,63 L41,60 L38,60 L38,57 L37,58 L28,58 L28,56 L26,56 L25,48 L19,48 L18,47 L17,32 L14,31 L13,25 L10,25 L6,19 L2,19 L2,11 L1,8 L-1,7 Z " fill="#896C69" transform="translate(293,537)"/>
<path d="M0,0 L24,0 L24,2 L28,2 L28,0 L50,0 L50,2 L60,2 L60,4 L78,4 L78,6 L84,6 L84,7 L78,7 L78,9 L83,9 L83,10 L76,10 L75,7 L77,7 L77,5 L60,6 L48,6 L32,4 L29,3 L23,5 L4,7 L1,10 L-6,11 L-13,10 L-15,15 L-25,20 L-30,21 L-30,23 L-37,24 L-42,30 L-49,30 L-50,33 L-54,36 L-56,36 L-57,40 L-59,40 L-61,45 L-63,52 L-67,53 L-66,47 L-70,47 L-71,50 L-75,54 L-76,66 L-78,73 L-79,73 L-80,65 L-83,65 L-88,71 L-86,73 L-90,75 L-90,78 L-92,78 L-91,86 L-89,88 L-97,94 L-99,96 L-97,101 L-99,103 L-102,103 L-102,115 L-104,118 L-105,124 L-103,124 L-103,118 L-102,118 L-102,128 L-104,128 L-104,140 L-105,138 L-107,138 L-106,143 L-107,141 L-109,141 L-108,147 L-109,145 L-111,145 L-111,154 L-109,154 L-110,160 L-111,160 L-111,155 L-113,155 L-113,162 L-114,162 L-114,154 L-112,154 L-112,144 L-110,144 L-110,140 L-108,140 L-108,138 L-110,138 L-110,136 L-108,136 L-108,124 L-106,124 L-106,118 L-108,118 L-108,114 L-106,114 L-108,110 L-108,106 L-106,106 L-106,92 L-102,88 L-100,88 L-100,86 L-98,86 L-98,82 L-96,82 L-96,74 L-94,74 L-94,70 L-92,70 L-91,65 L-88,64 L-88,62 L-84,62 L-84,60 L-82,60 L-82,58 L-80,58 L-80,50 L-78,50 L-78,46 L-72,46 L-72,40 L-66,40 L-66,36 L-64,36 L-64,34 L-60,34 L-59,29 L-56,26 L-54,26 L-54,24 L-48,24 L-48,22 L-42,22 L-42,18 L-40,18 L-40,16 L-36,16 L-36,12 L-30,12 L-30,10 L-18,10 L-18,6 L-14,6 L-14,4 L-8,4 L-8,2 L-6,2 L-6,4 L-3,2 L0,2 Z M-73,56 L-71,57 L-74,57 Z M-75,58 Z " fill="#7C505A" transform="translate(432,278)"/>
<path d="M0,0 L13,2 L15,3 L15,8 L18,9 L14,10 L5,11 L4,14 L-1,14 L-1,10 L-8,11 L-9,13 L-21,13 L-21,9 L-29,8 L-29,6 L-34,5 L-42,15 L-53,16 L-55,20 L-60,21 L-70,21 L-72,26 L-73,32 L-78,32 L-81,33 L-87,34 L-90,37 L-92,36 L-90,33 L-95,34 L-97,37 L-99,37 L-101,40 L-100,45 L-101,47 L-101,59 L-102,67 L-103,69 L-102,72 L-105,71 L-107,73 L-111,72 L-110,66 L-112,65 L-110,65 L-111,61 L-109,57 L-110,52 L-108,40 L-105,37 L-103,32 L-100,29 L-98,29 L-97,26 L-87,23 L-86,21 L-84,21 L-84,18 L-74,17 L-71,14 L-63,13 L-62,11 L-56,8 L-45,7 L-42,1 L-1,1 Z M-61,21 Z " fill="#8E5F6C" transform="translate(481,287)"/>
<path d="M0,0 L3,1 L19,3 L48,3 L47,8 L49,7 L49,5 L55,5 L56,9 L59,9 L60,13 L61,12 L70,12 L67,14 L65,17 L56,14 L44,13 L40,15 L35,15 L33,9 L23,9 L19,9 L-21,9 L-25,15 L-36,16 L-39,18 L-42,18 L-43,21 L-51,22 L-54,25 L-64,25 L-64,28 L-66,28 L-67,31 L-77,34 L-82,39 L-85,45 L-87,47 L-89,60 L-88,64 L-90,65 L-93,64 L-94,69 L-96,72 L-96,60 L-93,52 L-92,44 L-88,38 L-86,37 L-85,34 L-79,30 L-78,28 L-71,27 L-66,21 L-59,21 L-59,19 L-54,17 L-44,12 L-42,8 L-34,8 L-26,7 L-25,4 L-6,2 Z " fill="#835965" transform="translate(461,280)"/>
<path d="M0,0 L1,0 L1,6 L3,6 L3,18 L1,18 L1,20 L-1,20 L-1,26 L-3,26 L-3,28 L-5,28 L-5,32 L-7,32 L-7,34 L-9,34 L-9,36 L-11,36 L-11,42 L-13,42 L-13,46 L-17,46 L-17,50 L-19,50 L-19,52 L-26,58 L-27,60 L-29,60 L-29,64 L-33,64 L-33,68 L-35,68 L-35,70 L-37,70 L-37,74 L-40,76 L-41,82 L-45,82 L-45,86 L-47,86 L-47,92 L-49,92 L-49,94 L-53,94 L-53,98 L-55,98 L-55,112 L-59,112 L-59,116 L-61,116 L-61,118 L-65,118 L-65,120 L-67,120 L-67,122 L-71,126 L-73,126 L-73,128 L-77,128 L-77,126 L-87,126 L-87,128 L-85,128 L-85,130 L-109,130 L-109,128 L-105,128 L-105,126 L-107,125 L-99,124 L-88,123 L-81,121 L-77,119 L-66,119 L-67,116 L-64,116 L-66,112 L-62,109 L-60,109 L-60,101 L-58,100 L-58,111 L-56,111 L-57,93 L-54,87 L-52,83 L-50,82 L-47,73 L-44,70 L-42,70 L-40,66 L-37,65 L-36,60 L-33,57 L-30,57 L-30,52 L-28,51 L-26,45 L-27,41 L-29,40 L-26,39 L-26,41 L-24,41 L-24,39 L-20,35 L-15,36 L-13,32 L-12,30 L-11,29 L-12,29 L-12,22 L-9,20 L-8,14 L-5,15 L-2,17 Z M-31,40 L-29,41 L-29,47 L-32,47 L-33,42 Z " fill="#7F6876" transform="translate(765,522)"/>
<path d="M0,0 L1,3 L3,4 L-1,5 L-2,13 L6,12 L7,16 L1,20 L-2,24 L5,25 L4,27 L-12,27 L-12,25 L-18,25 L-26,27 L-26,30 L-33,31 L-44,32 L-44,34 L-47,35 L-46,32 L-54,31 L-55,34 L-58,35 L-61,35 L-62,31 L-57,28 L-59,26 L-56,26 L-56,24 L-54,23 L-52,20 L-50,20 L-48,27 L-43,25 L-42,21 L-38,16 L-37,14 L-26,14 L-26,9 L-31,9 L-31,8 L-11,7 L-7,3 L-3,2 L0,3 Z " fill="#855661" transform="translate(514,328)"/>
<path d="M0,0 L2,0 L3,4 L2,8 L7,8 L8,11 L10,9 L12,14 L11,15 L13,16 L13,18 L18,18 L18,22 L20,22 L20,26 L22,26 L22,28 L26,28 L26,33 L41,33 L41,37 L39,37 L42,40 L43,47 L41,51 L32,52 L16,50 L16,46 L11,46 L13,44 L12,37 L9,36 L7,31 L7,27 L3,27 L1,24 L0,6 L-1,1 Z " fill="#836066" transform="translate(454,476)"/>
<path d="M0,0 L6,0 L6,6 L12,6 L12,8 L18,8 L18,6 L20,6 L21,10 L20,12 L24,12 L24,14 L28,14 L35,22 L38,24 L38,30 L42,30 L42,38 L44,38 L44,42 L46,42 L46,46 L50,46 L50,52 L52,52 L52,54 L54,54 L54,60 L56,60 L56,64 L58,64 L58,72 L57,72 L57,65 L55,65 L55,71 L54,71 L52,65 L50,65 L49,63 L47,65 L49,54 L47,54 L45,58 L43,57 L44,56 L45,49 L43,49 L41,43 L37,44 L34,41 L32,44 L30,23 L26,21 L26,19 L21,21 L15,20 L18,19 L18,14 L5,14 L1,15 L-3,14 L-4,17 L-9,18 L-11,20 L-12,18 L-16,21 L-17,17 L-16,14 L-18,14 L-18,12 L-16,12 L-16,6 L-12,6 L-12,4 L-10,4 L-10,2 L0,2 Z M-12,20 Z " fill="#785F6B" transform="translate(686,402)"/>
<path d="M0,0 L5,0 L5,2 L15,1 L20,6 L25,10 L22,10 L22,12 L26,12 L26,10 L29,11 L27,12 L28,15 L26,15 L26,13 L22,13 L22,15 L16,15 L12,11 L12,13 L8,13 L8,11 L-24,11 L-24,9 L-30,9 L-30,11 L-36,11 L-36,9 L-46,9 L-46,11 L-50,11 L-50,13 L-56,13 L-56,15 L-58,15 L-58,25 L-64,25 L-64,41 L-65,41 L-66,19 L-61,10 L-60,9 L-50,9 L-47,10 L-47,8 L-50,7 L-36,8 L-36,6 L-46,6 L-46,3 L-42,1 L-20,2 L-18,1 Z " fill="#7F5E63" transform="translate(484,597)"/>
<path d="M0,0 L118,0 L122,1 L122,3 L113,3 L113,5 L121,6 L121,7 L97,8 L5,7 L5,3 L1,4 Z " fill="#8F6E7A" transform="translate(495,532)"/>
<path d="M0,0 L2,0 L2,2 L14,3 L15,6 L18,8 L18,12 L24,14 L24,18 L30,18 L30,24 L32,24 L31,28 L29,28 L28,53 L30,59 L34,62 L30,66 L36,68 L37,70 L36,72 L38,72 L39,70 L39,76 L35,73 L35,71 L29,71 L29,69 L27,69 L27,73 L25,73 L25,75 L23,75 L23,65 L25,65 L25,63 L29,63 L29,61 L23,61 L23,59 L25,59 L25,57 L23,57 L23,25 L17,25 L17,21 L13,19 L9,15 L9,13 L5,13 L5,9 L1,7 L-3,2 Z " fill="#7D6863" transform="translate(337,597)"/>
<path d="M0,0 L2,3 L2,16 L0,16 L-1,6 L-2,14 L-7,17 L-6,20 L-4,22 L-8,22 L-8,24 L-19,25 L-23,27 L-29,27 L-30,30 L-30,28 L-44,30 L-49,30 L-49,28 L-63,28 L-63,25 L-67,26 L-71,27 L-71,24 L-83,24 L-87,23 L-98,23 L-103,25 L-117,24 L-138,25 L-144,24 L-144,18 L-147,16 L-132,16 L-130,21 L-128,21 L-126,18 L-119,18 L-114,21 L-101,21 L-99,20 L-83,20 L-82,19 L-77,19 L-77,22 L-52,23 L-50,24 L-35,24 L-19,22 L-14,22 L-13,18 L-9,16 L-6,7 L-3,4 L-1,4 Z " fill="#826D6D" transform="translate(707,617)"/>
<path d="M0,0 L2,0 L2,2 L12,2 L12,4 L24,4 L24,8 L28,8 L28,10 L34,10 L34,12 L36,12 L36,16 L42,16 L46,21 L48,22 L48,26 L54,26 L54,44 L56,44 L56,46 L52,46 L52,48 L50,48 L50,50 L46,50 L46,54 L40,54 L40,56 L38,56 L38,58 L34,62 L28,61 L27,62 L27,69 L25,70 L24,66 L20,66 L19,68 L16,68 L16,65 L19,65 L19,62 L24,62 L24,56 L32,56 L37,52 L39,52 L39,50 L44,49 L45,46 L49,44 L50,30 L47,29 L42,25 L42,33 L41,33 L40,22 L36,21 L35,18 L31,15 L29,18 L27,18 L27,16 L22,16 L18,14 L16,11 L11,8 L11,7 L2,7 L0,8 L0,6 L-2,5 L0,5 L0,3 L-3,3 L-2,1 L0,2 Z " fill="#76535D" transform="translate(520,286)"/>
<path d="M0,0 L7,0 L7,2 L16,0 L20,0 L18,6 L17,7 L6,8 L3,10 L0,10 L-1,13 L-9,14 L-12,17 L-22,17 L-22,20 L-24,20 L-25,23 L-35,26 L-40,31 L-43,37 L-45,39 L-47,52 L-46,56 L-48,57 L-51,56 L-52,61 L-54,64 L-54,52 L-51,44 L-50,36 L-46,30 L-44,29 L-43,26 L-37,22 L-36,20 L-29,19 L-24,13 L-17,13 L-17,11 L-12,9 L-2,4 Z " fill="#8A5861" transform="translate(419,288)"/>
<path d="M0,0 L1,3 L3,3 L2,16 L-1,19 L-6,32 L-8,33 L-10,43 L-13,43 L-13,45 L-15,45 L-15,43 L-17,43 L-15,47 L-15,56 L-16,58 L-19,59 L-20,61 L-22,61 L-23,64 L-23,59 L-25,59 L-25,66 L-23,66 L-23,69 L-25,69 L-25,67 L-27,67 L-26,72 L-29,71 L-29,73 L-27,73 L-27,81 L-32,86 L-33,90 L-35,90 L-35,83 L-37,83 L-36,90 L-34,95 L-35,104 L-36,104 L-38,97 L-40,96 L-40,90 L-38,90 L-38,82 L-36,82 L-36,80 L-34,80 L-34,76 L-32,76 L-31,71 L-28,70 L-28,66 L-26,66 L-26,58 L-24,58 L-22,54 L-20,54 L-20,46 L-18,46 L-18,42 L-16,42 L-16,32 L-14,32 L-13,27 L-10,26 L-10,20 L-8,20 L-6,16 L-4,16 L-4,6 L-2,6 L-1,1 Z " fill="#765456" transform="translate(316,440)"/>
<path d="M0,0 L5,0 L10,13 L14,14 L14,17 L16,17 L16,24 L21,23 L23,29 L26,29 L27,40 L33,40 L34,44 L36,45 L34,45 L34,49 L41,48 L37,50 L45,51 L46,48 L46,50 L48,51 L46,51 L46,53 L49,54 L45,54 L45,52 L35,52 L33,48 L27,48 L27,46 L23,46 L23,44 L15,44 L15,36 L13,36 L13,32 L11,32 L11,26 L9,26 L7,21 L3,18 L3,8 L-1,8 L-2,1 Z " fill="#7B5D5C" transform="translate(285,544)"/>
<path d="M0,0 L1,0 L1,6 L0,8 L4,8 L2,13 L2,25 L0,26 L0,24 L-2,25 L-3,31 L-3,38 L-4,40 L-6,40 L-7,38 L-10,41 L-10,55 L-12,60 L-13,63 L-16,63 L-18,72 L-15,71 L-16,80 L-16,83 L-19,83 L-21,87 L-24,89 L-25,93 L-28,93 L-28,95 L-30,95 L-30,103 L-33,107 L-34,116 L-35,116 L-35,102 L-34,96 L-29,91 L-27,88 L-25,88 L-25,83 L-24,78 L-22,73 L-20,73 L-19,61 L-15,52 L-13,52 L-13,42 L-10,26 L-9,24 L-7,24 L-6,20 L-5,18 L-4,7 L-1,5 Z " fill="#8F676B" transform="translate(336,408)"/>
<path d="M0,0 L5,1 L6,2 L6,1 L12,1 L12,7 L8,7 L8,11 L6,11 L6,13 L4,13 L4,19 L0,19 L0,15 L-2,15 L-2,11 L-4,11 L-4,13 L-6,13 L-6,11 L-10,11 L-10,9 L-14,9 L-14,7 L-22,7 L-22,5 L-28,5 L-28,9 L-48,9 L-48,11 L-52,11 L-52,13 L-60,13 L-60,15 L-62,15 L-60,20 L-65,20 L-65,18 L-67,18 L-66,15 L-64,15 L-63,10 L-61,10 L-60,7 L-52,7 L-52,4 L-47,2 L-42,1 L-38,2 L-38,4 L-29,3 L-13,3 L-13,5 L-9,6 L-2,7 L-3,3 L-1,3 Z " fill="#7E4D59" transform="translate(540,351)"/>
<path d="M0,0 L9,0 L8,3 L10,3 L10,1 L19,0 L19,2 L17,2 L16,7 L13,10 L15,10 L15,13 L13,13 L13,20 L2,22 L1,24 L-8,26 L-11,26 L-10,18 L-9,20 L-6,18 L-4,4 Z " fill="#80505C" transform="translate(460,359)"/>
<path d="M0,0 L5,5 L1,8 L1,11 L-1,11 L0,19 L2,21 L-6,27 L-8,29 L-6,34 L-8,36 L-11,36 L-11,48 L-13,51 L-14,57 L-12,57 L-12,51 L-11,51 L-11,61 L-13,61 L-13,73 L-14,71 L-16,71 L-15,76 L-16,74 L-18,74 L-17,80 L-18,78 L-20,78 L-20,87 L-18,87 L-19,93 L-20,93 L-20,88 L-22,88 L-22,95 L-23,95 L-23,87 L-21,87 L-21,77 L-19,77 L-19,73 L-17,73 L-17,71 L-19,71 L-19,69 L-17,69 L-17,57 L-15,57 L-15,51 L-17,51 L-17,47 L-15,47 L-17,43 L-17,39 L-15,39 L-15,25 L-11,21 L-9,21 L-9,19 L-7,19 L-7,15 L-5,15 L-5,7 L-2,7 L-2,4 L0,3 Z " fill="#715056" transform="translate(341,345)"/>
<path d="M0,0 L6,0 L6,2 L15,3 L22,3 L22,5 L25,5 L25,9 L66,9 L67,13 L74,14 L74,16 L79,16 L86,18 L87,21 L90,21 L90,23 L92,23 L93,27 L97,27 L98,31 L98,38 L100,39 L96,39 L95,35 L96,33 L93,32 L92,29 L87,27 L85,20 L75,19 L75,17 L66,16 L64,15 L64,12 L29,12 L12,10 L9,9 L7,4 L3,3 L-3,8 L-5,8 L-5,5 L-3,5 L-3,2 Z M29,10 Z " fill="#8B6A6F" transform="translate(435,583)"/>
<path d="M0,0 L4,1 L5,3 L12,7 L12,9 L14,9 L14,15 L20,15 L20,23 L25,26 L26,31 L21,32 L19,47 L18,47 L17,32 L14,31 L13,25 L10,25 L6,19 L2,19 L2,11 L1,8 L-1,7 Z " fill="#8B6A68" transform="translate(293,537)"/>
<path d="M0,0 L2,0 L2,2 L5,1 L3,6 L2,9 L3,16 L1,37 L-3,41 L-4,51 L-6,51 L-7,61 L-9,65 L-11,82 L-14,88 L-16,88 L-17,95 L-21,101 L-24,102 L-23,92 L-20,91 L-19,85 L-14,75 L-12,75 L-12,67 L-11,62 L-13,62 L-13,59 L-11,59 L-11,52 L-8,53 L-7,51 L-9,51 L-9,42 L-7,41 L-7,38 L-5,37 L-5,35 L-3,35 L-2,25 L0,25 L-1,21 L-3,21 L-3,15 L-1,12 Z " fill="#825C61" transform="translate(330,381)"/>
<path d="M0,0 L2,1 L2,6 L-1,8 L-7,7 L-7,9 L-2,10 L-2,16 L-9,30 L-7,31 L-9,33 L-10,43 L-13,50 L-15,54 L-17,70 L-15,70 L-16,80 L-17,80 L-17,71 L-19,71 L-19,80 L-20,80 L-20,70 L-18,70 L-18,64 L-20,64 L-20,52 L-18,52 L-18,46 L-20,46 L-20,44 L-18,44 L-18,42 L-16,42 L-16,32 L-14,32 L-14,26 L-12,26 L-12,22 L-10,22 L-10,16 L-8,16 L-8,14 L-6,14 L-8,10 L-8,6 L-4,6 L-4,4 L-2,4 L-2,2 L0,2 Z M-12,48 Z M-13,49 Z " fill="#795A65" transform="translate(668,418)"/>
<path d="M0,0 L2,4 L1,9 L-1,12 L3,11 L1,29 L-3,31 L-4,33 L-17,33 L-21,34 L-40,34 L-50,32 L-56,30 L-65,31 L-67,27 L-58,28 L-48,27 L-45,29 L-41,28 L-37,27 L-28,27 L-14,29 L-11,30 L-6,28 L-4,25 L-2,25 L-3,19 L-5,15 L-2,14 L-3,8 L-1,6 L-1,1 Z " fill="#927C7F" transform="translate(697,600)"/>
<path d="M0,0 L118,0 L122,1 L122,3 L113,3 L111,5 L87,5 L87,3 L66,4 L65,5 L58,5 L58,4 L7,3 L7,5 L5,5 L5,3 L1,4 Z M13,3 Z " fill="#8A6976" transform="translate(495,532)"/>
<path d="M0,0 L4,1 L4,2 L-3,4 L-4,8 L-13,10 L-14,12 L-17,13 L-20,20 L-22,23 L-21,28 L-22,30 L-22,42 L-23,50 L-24,52 L-23,55 L-26,54 L-28,56 L-32,55 L-31,49 L-33,48 L-31,48 L-32,44 L-30,40 L-31,35 L-29,23 L-26,20 L-24,15 L-21,12 L-19,12 L-18,9 L-8,6 L-7,4 L-5,4 L-5,1 Z " fill="#905E66" transform="translate(402,304)"/>
<path d="M0,0 L11,0 L27,2 L27,5 L32,2 L41,3 L41,4 L35,4 L35,6 L43,5 L49,6 L49,7 L43,7 L43,9 L41,9 L41,7 L35,7 L35,9 L33,9 L33,11 L29,11 L29,9 L21,9 L21,11 L15,11 L15,9 L-13,9 L-13,8 L15,8 L15,6 L-13,6 L-12,2 L-5,2 Z " fill="#7D6769" transform="translate(609,639)"/>
<path d="M0,0 L1,4 L-1,4 L-1,18 L-5,18 L-5,22 L-7,22 L-7,24 L-11,24 L-11,26 L-13,26 L-13,28 L-17,32 L-19,32 L-19,34 L-23,34 L-23,32 L-33,32 L-33,34 L-31,34 L-31,36 L-55,36 L-55,34 L-51,34 L-51,32 L-53,31 L-45,30 L-34,29 L-27,27 L-23,25 L-12,25 L-13,22 L-10,22 L-12,18 L-8,15 L-6,15 L-6,7 L-4,6 L-4,17 L-2,17 L-3,1 L-2,3 L0,3 Z " fill="#786766" transform="translate(711,616)"/>
<path d="M0,0 L7,1 L6,5 L34,5 L34,7 L6,8 L5,11 L-29,11 L-29,9 L-13,8 L-10,6 L-24,5 L-23,1 Z " fill="#806767" transform="translate(590,640)"/>
<path d="M0,0 L1,0 L1,8 L-1,8 L-1,14 L1,14 L1,26 L-3,26 L-3,32 L-5,32 L-5,38 L-7,38 L-7,40 L-9,40 L-9,42 L-27,42 L-29,38 L-37,38 L-37,36 L-41,35 L-37,35 L-37,33 L-33,32 L-33,34 L-26,34 L-24,37 L-16,36 L-11,38 L-11,36 L-9,36 L-10,32 L-7,25 L-4,22 L-4,14 L-2,14 L-3,2 L-2,2 L-2,7 L0,7 Z " fill="#75615C" transform="translate(417,638)"/>
<path d="M0,0 L9,2 L14,6 L14,8 L16,9 L15,11 L12,11 L14,14 L15,19 L21,18 L21,23 L27,22 L25,25 L23,25 L23,29 L18,29 L18,25 L12,23 L11,19 L8,17 L8,14 L6,14 L6,10 L-3,10 L-5,3 L0,2 Z " fill="#86716C" transform="translate(343,586)"/>
<path d="M0,0 L3,1 L19,3 L48,3 L47,8 L29,7 L27,6 L-9,5 L-9,7 L-18,6 L-19,8 L-29,10 L-35,10 L-34,8 L-26,7 L-25,4 L-6,2 Z " fill="#815864" transform="translate(461,280)"/>
<path d="M0,0 L6,0 L6,6 L5,6 L5,1 L1,1 L1,3 L3,3 L3,7 L-2,7 L-2,11 L-4,11 L-4,17 L-9,18 L-11,20 L-12,18 L-16,21 L-17,17 L-16,14 L-18,14 L-18,12 L-16,12 L-16,6 L-12,6 L-12,4 L-10,4 L-10,2 L0,2 Z M-12,20 Z " fill="#7E606A" transform="translate(686,402)"/>
<path d="M0,0 L1,0 L1,6 L3,6 L3,18 L1,18 L1,20 L-1,20 L-1,26 L-3,26 L-3,28 L-5,28 L-5,32 L-7,32 L-7,34 L-9,34 L-9,36 L-11,36 L-11,42 L-13,42 L-13,46 L-17,45 L-14,45 L-14,43 L-17,43 L-16,40 L-12,41 L-13,34 L-12,33 L-12,30 L-11,29 L-12,29 L-12,22 L-9,20 L-8,14 L-5,15 L-2,17 Z " fill="#7C6974" transform="translate(765,522)"/>
<path d="M0,0 L1,0 L1,6 L0,8 L4,8 L2,13 L2,25 L0,26 L0,24 L-2,25 L-3,31 L-3,38 L-4,40 L-6,40 L-7,38 L-12,38 L-10,26 L-9,24 L-7,24 L-6,20 L-5,18 L-4,7 L-1,5 Z " fill="#8C666D" transform="translate(336,408)"/>
<path d="M0,0 L5,1 L6,2 L6,1 L12,1 L12,7 L8,7 L8,11 L6,11 L6,13 L4,13 L4,19 L0,19 L0,15 L-2,15 L-2,11 L-4,11 L-4,13 L-6,13 L-6,11 L-10,11 L-10,9 L-14,9 L-14,6 L-21,6 L-21,4 L-13,3 L-13,5 L-9,6 L-2,7 L-3,3 L-1,3 Z " fill="#6C4850" transform="translate(540,351)"/>
<path d="M0,0 L5,0 L7,3 L17,2 L25,5 L32,6 L51,6 L61,5 L68,6 L69,3 L72,2 L71,6 L67,9 L55,9 L33,10 L19,7 L2,5 L1,6 L-5,6 L-5,1 Z " fill="#8E797B" transform="translate(625,627)"/>
<path d="M0,0 L1,0 L1,31 L3,31 L3,0 L5,2 L6,10 L5,19 L5,28 L7,34 L11,37 L7,41 L13,43 L14,45 L13,47 L15,47 L16,45 L16,51 L12,48 L12,46 L6,46 L6,44 L4,44 L4,48 L2,48 L2,50 L0,50 L0,40 L2,40 L2,38 L6,38 L6,36 L0,36 L0,34 L2,34 L2,32 L0,32 Z " fill="#6E5B56" transform="translate(360,622)"/>
<path d="M0,0 L1,4 L-1,4 L-1,6 L-3,6 L-3,10 L-6,12 L-7,18 L-11,18 L-11,22 L-13,22 L-13,28 L-15,28 L-15,30 L-20,30 L-20,33 L-22,33 L-23,29 L-20,23 L-18,19 L-16,18 L-13,9 L-10,6 L-8,6 L-6,2 L-2,1 L-2,3 L0,3 Z " fill="#826775" transform="translate(731,586)"/>
<path d="M0,0 L8,0 L8,12 L2,12 L2,14 L-2,13 L-2,15 L-8,15 L-7,11 L-3,11 L-3,9 L-10,10 L-10,14 L-16,14 L-16,12 L-20,12 L-20,10 L-16,10 L-16,8 L-8,8 L-8,4 L0,4 Z " fill="#2D1113" transform="translate(320,280)"/>
<path d="M0,0 L1,3 L3,4 L-1,5 L-2,13 L-12,15 L-20,16 L-28,16 L-32,14 L-26,14 L-26,9 L-31,9 L-31,8 L-11,7 L-7,3 L-3,2 L0,3 Z " fill="#8B5D68" transform="translate(514,328)"/>
<path d="M0,0 L6,1 L2,4 L1,9 L-25,9 L-32,8 L-31,4 L-21,1 L-3,1 Z " fill="#7F5E69" transform="translate(543,515)"/>
<path d="M0,0 L5,1 L2,7 L2,17 L-3,19 L-8,21 L-9,25 L-10,34 L-17,36 L-19,43 L-20,43 L-20,36 L-17,32 L-16,24 L-14,24 L-14,22 L-11,22 L-10,17 L-5,12 L-2,12 L-3,4 Z " fill="#957273" transform="translate(322,479)"/>
<path d="M0,0 L32,0 L32,2 L34,3 L28,7 L24,8 L24,3 L15,5 L3,4 L0,7 L-4,7 L-4,5 L-16,8 L-16,2 L-1,1 Z " fill="#7E5C6C" transform="translate(568,513)"/>
<path d="M0,0 L7,2 L7,4 L20,4 L19,8 L11,8 L11,10 L23,10 L23,12 L31,12 L31,14 L29,14 L29,18 L27,18 L25,15 L19,14 L19,16 L15,16 L15,14 L11,14 L11,16 L7,15 L5,14 L5,12 L7,12 L7,6 L-1,6 L-1,4 L-3,4 L-3,2 Z " fill="#6C5D55" transform="translate(473,714)"/>
<path d="M0,0 L2,0 L2,2 L4,2 L4,0 L7,0 L8,9 L7,14 L3,14 L2,19 L-1,22 L-2,28 L-4,28 L-5,32 L-7,33 L-8,38 L-10,38 L-10,30 L-12,30 L-12,28 L-10,27 L-10,24 L-8,24 L-8,26 L-6,26 L-6,23 L-8,23 L-8,16 L-6,16 L-5,18 L-3,18 L-2,15 L1,15 L1,4 Z " fill="#826161" transform="translate(299,483)"/>
<path d="M0,0 L21,0 L20,4 L13,5 L12,8 L9,9 L8,12 L-8,12 L-8,8 L0,8 Z " fill="#997679" transform="translate(392,532)"/>
<path d="M0,0 L4,0 L2,6 L1,7 L-10,8 L-13,10 L-16,10 L-17,13 L-25,14 L-28,17 L-36,17 L-31,13 L-22,11 L-20,7 L-16,6 L-15,2 L-14,1 L-3,1 Z " fill="#8B5766" transform="translate(435,288)"/>
<path d="M0,0 L5,1 L7,6 L7,9 L16,9 L16,13 L12,14 L6,12 L6,10 L1,12 L1,10 L-2,10 L-2,7 L-3,8 L-12,8 L-12,6 L-14,6 L-14,2 L-12,1 L-6,1 L-4,1 Z " fill="#866D69" transform="translate(333,587)"/>
<path d="M0,0 L6,1 L34,1 L33,5 L14,5 L14,7 L48,7 L49,4 L49,8 L13,8 L13,6 L3,6 L3,4 L-1,4 L-1,6 L-5,5 L-2,5 L-2,3 L-4,2 L-1,1 L-1,3 L3,3 L3,1 Z " fill="#705A5A" transform="translate(547,644)"/>
<path d="M0,0 L5,0 L9,2 L9,0 L45,0 L47,1 L47,3 L49,4 L41,4 L37,4 L-3,4 L-1,3 Z " fill="#855C68" transform="translate(443,285)"/>
<path d="M0,0 L5,5 L1,8 L1,11 L-1,11 L0,19 L2,21 L-6,27 L-8,29 L-6,34 L-8,36 L-11,36 L-11,26 L-10,22 L-8,22 L-7,15 L-5,15 L-5,7 L-2,7 L-2,4 L0,3 Z " fill="#784E52" transform="translate(341,345)"/>
<path d="M0,0 L2,1 L-1,7 L-1,29 L-3,29 L-3,36 L-5,37 L-5,43 L-8,43 L-8,22 L-7,20 L-6,9 L-4,9 L-2,5 Z " fill="#806764" transform="translate(420,609)"/>
<path d="M0,0 L34,0 L34,2 L40,2 L40,4 L48,4 L48,2 L42,2 L42,0 L54,0 L54,2 L50,2 L50,4 L55,4 L55,5 L40,5 L39,7 L31,6 L28,7 L5,7 L3,5 L30,5 L29,2 L1,1 L0,4 Z " fill="#7C5A67" transform="translate(512,510)"/>
<path d="M0,0 L22,0 L22,2 L32,2 L32,4 L50,4 L50,6 L56,6 L56,7 L50,7 L50,9 L55,9 L55,10 L48,10 L47,7 L49,7 L49,5 L32,6 L20,6 L4,4 L-3,3 L0,2 Z " fill="#704D57" transform="translate(460,278)"/>
<path d="M0,0 L1,0 L1,8 L-1,8 L-1,10 L1,10 L1,12 L-9,12 L-9,14 L-7,14 L-7,20 L-11,20 L-11,22 L-13,22 L-13,24 L-18,23 L-18,15 L-18,12 L-12,11 L-11,8 L-7,7 L0,7 Z " fill="#784B56" transform="translate(473,372)"/>
<path d="M0,0 L14,1 L14,2 L4,2 L4,4 L0,4 L0,6 L-6,6 L-6,8 L-8,8 L-8,18 L-14,18 L-14,34 L-15,34 L-16,12 L-11,3 L-10,2 L0,2 L3,3 L3,1 Z " fill="#705857" transform="translate(434,604)"/>
<path d="M0,0 L20,2 L55,3 L55,6 L47,8 L45,7 L45,5 L5,6 L-1,5 L1,4 Z M20,1 Z " fill="#87656A" transform="translate(444,592)"/>
<path d="M0,0 L30,0 L30,2 L34,4 L26,5 L-2,6 L-2,3 Z " fill="#957682" transform="translate(514,541)"/>
<path d="M0,0 L44,0 L44,2 L46,3 L44,3 L44,5 L47,6 L43,6 L43,4 L11,4 L11,2 L5,2 L5,4 L-1,4 L-1,3 L4,3 L4,1 Z " fill="#735358" transform="translate(449,604)"/>
<path d="M0,0 L3,0 L3,8 L2,10 L0,10 L1,16 L0,20 L-4,20 L-4,22 L-2,22 L-2,28 L-4,28 L-5,30 L-5,28 L-8,27 L-8,23 L-11,25 L-11,16 L-8,17 L-9,19 L-7,17 L-4,16 L-5,9 L-1,5 Z " fill="#7E565E" transform="translate(472,464)"/>
<path d="M0,0 L2,0 L2,3 L4,3 L2,8 L-8,13 L-13,15 L-22,15 L-22,12 L-20,12 L-20,10 L-12,9 L-12,4 L-1,3 Z " fill="#814D5B" transform="translate(415,285)"/>
<path d="M0,0 L12,0 L15,3 L18,4 L18,6 L22,7 L18,7 L18,9 L23,9 L23,10 L17,10 L17,8 L-11,8 L-11,7 L17,7 L17,5 L-11,5 L-10,1 L-3,1 Z " fill="#745F5F" transform="translate(607,640)"/>
<path d="M0,0 L3,1 L3,2 L8,2 L10,0 L13,0 L13,4 L43,4 L45,3 L61,5 L69,7 L69,8 L55,8 L48,7 L3,6 L0,5 L-2,1 Z " fill="#8C7476" transform="translate(583,628)"/>
<path d="M0,0 L4,1 L13,7 L10,8 L10,10 L14,10 L14,8 L17,9 L15,10 L16,13 L14,13 L14,11 L10,11 L10,13 L4,13 L2,10 L-3,10 L-3,5 L-10,5 L-9,3 Z " fill="#7A595D" transform="translate(496,599)"/>
<path d="M0,0 L5,0 L5,2 L0,3 L-2,13 L-7,13 L-10,14 L-16,15 L-19,18 L-21,17 L-19,14 L-22,13 L-16,10 L-12,9 L-10,8 L-10,5 L-7,1 L-1,1 Z " fill="#976370" transform="translate(410,306)"/>
<path d="M0,0 L0,3 L-4,5 L-3,9 L-5,17 L-8,17 L-10,29 L-12,25 L-17,30 L-17,22 L-15,22 L-15,17 L-12,16 L-11,12 L-9,12 L-9,6 L-2,2 Z " fill="#886968" transform="translate(306,499)"/>
<path d="M0,0 L1,2 L3,3 L1,3 L1,5 L4,6 L0,6 L0,4 L-10,4 L-10,6 L-8,6 L-8,8 L-32,8 L-32,6 L-28,6 L-28,4 L-30,3 L-22,2 L-11,1 L-11,3 L0,3 Z " fill="#72615F" transform="translate(688,644)"/>
<path d="M0,0 L3,1 L2,4 L7,4 L7,7 L9,7 L9,9 L11,9 L11,11 L13,11 L13,20 L8,21 L5,25 L4,23 L5,13 L1,9 L-1,9 Z " fill="#93726E" transform="translate(313,552)"/>
<path d="M0,0 L4,1 L0,3 L-1,6 L-6,7 L-19,7 L-24,6 L-40,6 L-40,3 L-2,2 Z " fill="#897675" transform="translate(694,633)"/>
<path d="M0,0 L1,0 L1,12 L3,12 L3,40 L1,40 L1,48 L0,48 L0,40 L-3,39 L-2,38 L-2,12 L0,12 Z " fill="#714A50" transform="translate(475,424)"/>
<path d="M0,0 L6,0 L6,6 L8,6 L7,10 L5,10 L4,12 L3,9 L2,38 L0,38 L-1,7 L-6,6 L-6,4 L0,4 Z " fill="#806A65" transform="translate(361,615)"/>
<path d="M0,0 L1,2 L0,5 L5,4 L5,6 L14,5 L18,7 L18,15 L12,15 L12,17 L17,17 L17,18 L11,18 L11,14 L7,12 L3,8 L3,6 L-1,6 L-1,2 L-3,1 Z " fill="#73605B" transform="translate(343,604)"/>
<path d="M0,0 L4,0 L5,11 L11,11 L12,15 L14,16 L12,16 L12,20 L19,19 L15,21 L23,22 L24,19 L24,21 L26,22 L24,22 L24,24 L27,25 L23,25 L23,23 L13,23 L11,21 L11,18 L6,18 L5,16 L2,16 L2,14 L4,14 L4,12 L0,11 Z " fill="#7C635F" transform="translate(307,573)"/>
<path d="M0,0 L1,2 L0,9 L0,12 L-3,12 L-5,16 L-8,18 L-9,22 L-12,22 L-12,24 L-14,24 L-14,32 L-17,36 L-18,45 L-19,45 L-19,31 L-18,25 L-13,20 L-8,15 L-4,5 L-2,1 Z " fill="#906E6E" transform="translate(320,479)"/>
<path d="M0,0 L1,0 L1,9 L3,9 L4,5 L5,9 L7,9 L7,11 L9,11 L7,17 L9,17 L9,15 L11,15 L14,20 L14,27 L16,27 L16,32 L18,33 L15,33 L15,28 L13,28 L13,35 L20,35 L20,36 L12,36 L12,28 L10,28 L10,24 L8,24 L8,18 L6,18 L4,13 L0,10 Z " fill="#795759" transform="translate(288,552)"/>
<path d="M0,0 L1,2 L3,2 L4,0 L4,8 L-1,13 L-2,17 L-4,17 L-4,10 L-6,10 L-5,17 L-3,22 L-4,31 L-5,31 L-7,24 L-9,23 L-9,17 L-7,17 L-7,9 L-5,9 L-5,7 L-2,7 L-2,4 L0,4 L0,6 L2,6 L2,3 L0,3 Z " fill="#80605E" transform="translate(285,513)"/>
<path d="M0,0 L1,3 L3,3 L2,16 L-1,19 L-6,32 L-9,33 L-8,29 L-5,23 L-4,6 L-2,6 L-1,1 Z " fill="#82585D" transform="translate(316,440)"/>
<path d="M0,0 L3,0 L5,7 L9,5 L13,5 L13,7 L7,11 L-1,11 L-2,14 L-5,15 L-8,15 L-9,11 L-4,8 L-6,6 L-3,6 L-3,4 L-1,3 Z " fill="#8B5B67" transform="translate(461,348)"/>
<path d="M0,0 L10,0 L10,3 L8,3 L8,5 L11,6 L10,12 L5,14 L5,12 L0,12 L-1,11 L-1,6 L0,3 L-2,1 Z " fill="#9E868C" transform="translate(673,596)"/>
<path d="M0,0 L11,1 L10,5 L18,5 L19,1 L27,2 L23,7 L19,8 L18,7 L8,7 L4,9 L0,6 Z " fill="#96757C" transform="translate(478,539)"/>
<path d="M0,0 L2,0 L1,4 L-4,9 L-7,17 L-9,17 L-10,21 L-16,33 L-21,37 L-23,45 L-26,44 L-21,32 L-18,32 L-15,23 L-13,19 L-11,19 L-10,14 L-8,12 L-5,5 L-2,4 L-2,2 L0,2 Z " fill="#867076" transform="translate(722,588)"/>
<path d="M0,0 L1,0 L1,19 L-2,25 L-4,25 L-6,38 L-11,43 L-10,37 L-7,25 L-5,25 L-5,15 L-1,13 Z " fill="#856065" transform="translate(331,407)"/>
<path d="M0,0 L7,0 L7,1 L1,3 L0,6 L-4,8 L-6,12 L-15,14 L-20,17 L-22,17 L-22,19 L-29,20 L-24,13 L-17,13 L-17,11 L-12,9 L-2,4 Z " fill="#865260" transform="translate(419,288)"/>
<path d="M0,0 L6,1 L6,3 L15,2 L30,2 L30,3 L23,3 L23,5 L30,5 L30,6 L22,6 L22,4 L15,4 L15,7 L-4,7 L-3,4 L-6,2 Z " fill="#7A4C57" transform="translate(496,352)"/>
<path d="M0,0 L1,4 L7,4 L11,9 L13,10 L13,14 L19,14 L19,32 L18,32 L18,15 L10,15 L7,13 L7,21 L6,21 L5,10 L1,9 L0,6 L-2,4 L0,4 Z " fill="#7C5A63" transform="translate(555,298)"/>
<path d="M0,0 L1,0 L1,6 L3,6 L3,18 L-4,19 L-6,19 L-7,23 L-11,29 L-12,29 L-12,22 L-9,20 L-8,14 L-5,15 L-2,17 Z " fill="#796772" transform="translate(765,522)"/>
<path d="M0,0 L9,2 L14,6 L14,8 L16,9 L15,11 L12,11 L11,9 L9,10 L8,6 L2,6 L1,9 L-4,7 L-5,3 L0,2 Z " fill="#8B726E" transform="translate(343,586)"/>
<path d="M0,0 L4,1 L2,5 L1,7 L-5,6 L-6,7 L-6,14 L-8,15 L-9,11 L-13,11 L-14,13 L-17,13 L-17,10 L-14,10 L-14,7 L-9,7 L-9,1 L-1,1 Z " fill="#77525C" transform="translate(553,341)"/>
<path d="M0,0 L3,3 L1,4 L1,9 L-9,10 L-13,13 L-14,9 L-16,8 L-13,7 L-13,9 L-11,9 L-11,7 L-7,3 L-2,4 Z M-18,8 L-16,9 L-16,15 L-19,15 L-20,10 Z " fill="#816B78" transform="translate(752,554)"/>
<path d="M0,0 L3,0 L4,6 L3,8 L1,24 L3,24 L2,34 L1,34 L1,25 L-1,25 L-1,34 L-2,34 L-2,24 L0,24 L0,18 L-2,18 L-2,6 L0,6 Z " fill="#72545E" transform="translate(650,464)"/>
<path d="M0,0 L10,0 L24,2 L21,5 L-3,5 L-4,2 Z " fill="#988484" transform="translate(659,627)"/>
<path d="M0,0 L8,0 L8,1 L1,1 L1,3 L6,3 L6,8 L8,9 L6,9 L6,11 L0,11 L1,7 L5,7 L5,5 L-2,6 L-2,10 L-8,10 L-8,8 L-12,8 L-12,6 L-8,6 L-8,4 L0,4 Z " fill="#1E0C0D" transform="translate(312,284)"/>
<path d="M0,0 L3,1 L7,0 L6,4 L4,4 L2,13 L-1,17 L-4,17 L-5,21 L-7,24 L-6,12 L-1,11 Z " fill="#8B747B" transform="translate(705,603)"/>
<path d="M0,0 L1,3 L1,11 L2,15 L0,29 L-4,33 L-8,33 L-8,31 L-6,31 L-4,19 L-1,20 L0,18 L-2,18 L-1,2 Z " fill="#7D5D68" transform="translate(653,470)"/>
<path d="M0,0 L1,0 L1,16 L0,20 L-1,23 L-3,20 L-7,25 L-8,22 L-5,10 L-2,10 L-1,1 Z " fill="#8A6C76" transform="translate(676,438)"/>
<path d="M0,0 L9,1 L11,2 L11,4 L15,4 L16,10 L16,12 L12,13 L13,10 L11,9 L11,11 L7,11 L7,7 L1,3 Z " fill="#836366" transform="translate(499,598)"/>
<path d="M0,0 L1,4 L3,4 L3,8 L5,8 L5,14 L7,14 L7,18 L9,18 L9,24 L8,24 L8,19 L5,20 L6,15 L4,15 L4,17 L2,17 L2,15 L-2,14 L-2,5 Z " fill="#75626D" transform="translate(755,498)"/>
<path d="M0,0 L2,1 L1,3 L-1,3 L-1,5 L1,6 L-2,6 L-2,8 L-5,9 L-6,11 L-11,11 L-12,10 L-25,9 L-25,11 L-28,12 L-28,10 L-26,10 L-26,8 L-12,8 L-12,6 L-10,6 L-8,2 L-6,2 L-6,4 L-2,4 L-2,2 L0,2 Z " fill="#6E515B" transform="translate(646,498)"/>
<path d="M0,0 L2,1 L2,6 L-1,8 L-7,7 L-7,9 L-2,10 L-2,16 L-5,21 L-6,17 L-9,17 L-9,22 L-10,22 L-10,16 L-8,16 L-8,14 L-6,14 L-8,10 L-8,6 L-4,6 L-4,4 L-2,4 L-2,2 L0,2 Z " fill="#755862" transform="translate(668,418)"/>
<path d="M0,0 L23,1 L20,5 L11,6 L4,6 L0,4 Z M3,6 Z " fill="#8C636C" transform="translate(354,402)"/>
<path d="M0,0 L1,0 L1,13 L3,13 L3,0 L4,0 L4,14 L2,14 L4,19 L4,22 L2,22 L2,26 L4,26 L4,32 L2,32 L2,44 L1,44 L0,26 Z " fill="#0F0A0B" transform="translate(322,370)"/>
<path d="M0,0 L1,0 L2,14 L-3,15 L-9,20 L-10,20 L-11,23 L-11,21 L-13,21 L-14,24 L-14,20 L-12,20 L-11,15 L-8,14 L-8,12 L-4,12 L-4,10 L-2,10 L-2,8 L0,8 Z " fill="#6D474A" transform="translate(352,328)"/>
<path d="M0,0 L2,0 L2,8 L3,15 L2,18 L0,18 L-1,16 L-3,19 L-4,2 L-2,3 Z " fill="#7F6572" transform="translate(721,427)"/>
<path d="M0,0 L2,1 L-6,6 L-8,11 L-10,14 L-12,14 L-12,19 L-13,19 L-13,10 L-14,6 L-13,1 L-5,2 Z " fill="#826866" transform="translate(426,604)"/>
<path d="M0,0 L17,0 L30,1 L29,4 L3,4 L-4,3 L-3,1 Z " fill="#83626D" transform="translate(515,520)"/>
<path d="M0,0 L2,3 L-1,12 L-3,13 L-4,17 L-9,17 L-9,13 L-6,13 L-6,11 L-11,11 L-11,16 L-12,16 L-12,10 L-6,10 L-6,6 L-4,6 L-4,4 L0,4 Z " fill="#764B51" transform="translate(372,308)"/>
<path d="M0,0 L2,0 L2,2 L9,2 L11,6 L9,6 L9,9 L26,9 L26,10 L8,10 L6,6 L-2,6 L-2,4 L-6,3 L-2,3 L-2,1 Z " fill="#6F5B58" transform="translate(382,670)"/>
<path d="M0,0 L16,0 L16,2 L24,2 L24,6 L32,6 L32,7 L17,8 L13,7 L12,3 L15,3 L15,1 L0,1 Z " fill="#715058" transform="translate(480,508)"/>
<path d="M0,0 L4,0 L4,3 L6,3 L6,10 L11,9 L12,18 L11,14 L7,15 L4,11 L4,9 L2,9 L2,11 L0,11 L1,5 Z " fill="#825F60" transform="translate(295,558)"/>
<path d="M0,0 L1,0 L2,10 L0,11 L-1,20 L-4,29 L-8,30 L-8,28 L-6,28 L-6,22 L-8,22 L-8,20 L-4,20 L-4,10 L-2,10 L-2,8 L0,8 Z " fill="#110C0C" transform="translate(476,464)"/>
<path d="M0,0 L9,1 L9,2 L3,2 L3,4 L11,3 L17,4 L17,5 L11,5 L11,7 L9,7 L9,5 L3,5 L3,7 L1,7 L1,9 L-3,9 L-3,7 L-11,7 L-11,6 L-3,6 L-2,2 Z " fill="#746162" transform="translate(641,641)"/>
<path d="M0,0 L1,4 L-1,18 L-2,20 L-7,20 L-5,8 L-4,6 L-2,6 L-1,2 Z " fill="#8B6469" transform="translate(331,426)"/>
<path d="M0,0 L6,0 L7,4 L10,4 L11,8 L12,7 L21,7 L18,9 L16,12 L7,9 L2,6 L2,4 L0,3 Z " fill="#7F5662" transform="translate(510,285)"/>
<path d="M0,0 L3,0 L3,3 L5,3 L6,0 L6,4 L4,4 L4,6 L-3,12 L-4,14 L-6,14 L-6,18 L-10,17 L-7,17 L-8,12 L-5,13 L-5,7 L-3,7 L-3,2 Z " fill="#7A6371" transform="translate(742,568)"/>
<path d="M0,0 L3,0 L3,8 L2,10 L0,10 L1,16 L0,20 L-4,19 L-1,19 L-1,17 L-4,17 L-5,9 L-1,5 Z " fill="#724D52" transform="translate(472,464)"/>
<path d="M0,0 L21,1 L21,2 L4,2 L4,4 L23,4 L24,1 L24,5 L4,5 L4,7 L0,7 L0,9 L-8,9 L-8,8 L-1,8 L-1,6 L-4,5 L3,6 L3,4 L0,4 Z " fill="#6C434D" transform="translate(488,355)"/>
<path d="M0,0 L1,4 L-1,4 L-1,18 L-6,18 L-6,21 L-11,21 L-11,17 L-6,15 L-6,7 L-4,6 L-4,17 L-2,17 L-3,1 L-2,3 L0,3 Z " fill="#715F62" transform="translate(711,616)"/>
<path d="M0,0 L2,0 L2,2 L12,2 L12,4 L24,4 L23,8 L23,5 L2,7 L0,8 L0,6 L-2,5 L0,5 L0,3 L-3,3 L-2,1 L0,2 Z " fill="#764E59" transform="translate(520,286)"/>
<path d="M0,0 L1,0 L2,11 L0,12 L0,10 L-2,11 L-3,17 L-3,24 L-4,26 L-6,26 L-7,22 L-5,8 L-4,6 L-1,5 Z " fill="#91696F" transform="translate(336,422)"/>
<path d="M0,0 L1,0 L1,10 L3,10 L3,15 L4,19 L3,24 L2,20 L0,20 L0,24 L-2,24 L-2,10 L0,10 Z " fill="#6E5556" transform="translate(512,612)"/>
<path d="M0,0 L1,3 L3,4 L-4,5 L-4,7 L-12,10 L-24,10 L-26,11 L-26,9 L-31,9 L-31,8 L-11,7 L-7,3 L-3,2 L0,3 Z " fill="#90626D" transform="translate(514,328)"/>
<path d="M0,0 L3,0 L4,2 L10,2 L11,7 L7,6 L5,9 L3,9 L3,7 L-2,7 L-3,3 Z M-4,5 Z " fill="#7D5863" transform="translate(544,295)"/>
<path d="M0,0 L1,0 L1,7 L3,7 L3,0 L5,4 L9,11 L7,12 L7,15 L12,15 L13,13 L20,14 L20,15 L13,15 L13,17 L20,17 L20,18 L12,18 L12,16 L6,16 L6,12 L4,12 L4,8 L0,8 Z " fill="#685251" transform="translate(516,636)"/>
<path d="M0,0 L5,1 L1,5 L-4,6 L-10,9 L-12,12 L-13,9 L-11,4 L-8,4 L-7,1 Z " fill="#94606C" transform="translate(396,312)"/>
<path d="M0,0 L12,0 L20,1 L20,3 L18,3 L18,7 L16,7 L14,4 L8,3 L8,5 L4,5 L4,2 L0,2 Z " fill="#76665F" transform="translate(484,725)"/>
<path d="M0,0 L12,0 L12,1 L1,1 L1,3 L6,3 L6,4 L1,4 L1,6 L-5,8 L-7,7 L-7,9 L-11,9 L-12,12 L-12,8 L-10,8 L-10,6 L-6,6 L-6,2 L0,2 Z " fill="#72414F" transform="translate(402,288)"/>
<path d="M0,0 L4,0 L4,6 L6,6 L6,10 L8,10 L8,14 L10,14 L10,24 L9,24 L9,15 L5,16 L2,13 L1,6 L3,6 L3,1 Z " fill="#6E5A66" transform="translate(744,474)"/>
<path d="M0,0 L7,0 L7,2 L10,2 L10,6 L-2,6 L-2,1 Z " fill="#8E6E72" transform="translate(450,586)"/>
<path d="M0,0 L6,0 L6,6 L5,6 L5,1 L1,1 L1,3 L3,3 L3,6 L-12,6 L-12,4 L-10,4 L-10,2 L0,2 Z " fill="#70555E" transform="translate(686,402)"/>
<path d="M0,0 L5,0 L7,4 L7,7 L4,7 L5,10 L2,10 L2,5 L0,7 L-2,11 L-4,8 L-4,4 Z " fill="#7E535D" transform="translate(450,392)"/>
<path d="M0,0 L5,1 L6,2 L6,1 L12,1 L12,7 L8,7 L7,11 L7,7 L2,6 L2,3 L0,3 Z " fill="#6A4951" transform="translate(540,351)"/>
<path d="M0,0 L2,0 L2,4 L4,4 L4,9 L6,9 L6,15 L1,15 L-1,10 L-1,2 Z M-1,15 L1,16 Z " fill="#806E79" transform="translate(759,513)"/>
<path d="M0,0 L8,1 L6,3 L-4,4 L-6,8 L-11,9 L-14,7 L-12,7 L-11,3 L-1,1 Z M-12,9 Z " fill="#976470" transform="translate(432,299)"/>
<path d="M0,0 L0,3 L-4,5 L-3,9 L-5,17 L-8,17 L-10,29 L-11,29 L-12,23 L-10,14 L-8,11 L-6,11 L-5,4 Z " fill="#8D6B6A" transform="translate(306,499)"/>
<path d="M0,0 L1,4 L3,4 L3,0 L6,1 L6,8 L8,8 L8,13 L10,14 L7,14 L7,9 L5,9 L5,16 L12,16 L12,17 L4,17 L4,9 L2,9 L2,5 L0,5 Z " fill="#6F5352" transform="translate(296,571)"/>
<path d="M0,0 L28,0 L28,2 L0,3 Z " fill="#775664" transform="translate(513,513)"/>
<path d="M0,0 L4,0 L4,4 L6,4 L6,8 L8,8 L8,10 L12,10 L11,14 L11,11 L9,11 L10,14 L7,15 L6,11 L7,9 L4,10 L5,5 L3,5 L3,9 L-1,9 L0,3 L3,3 L3,1 Z " fill="#725157" transform="translate(468,494)"/>
<path d="M0,0 L1,0 L1,6 L-1,6 L-1,18 L1,18 L1,24 L-1,24 L-1,34 L-2,34 L-3,18 L-3,1 L-2,5 L0,5 Z " fill="#120D0E" transform="translate(649,464)"/>
<path d="M0,0 L2,1 L1,5 L1,13 L-2,18 L-7,19 L-6,11 L-5,13 L-2,11 L-1,1 Z " fill="#83545E" transform="translate(456,366)"/>
<path d="M0,0 L6,0 L6,1 L1,1 L1,3 L6,3 L6,4 L1,4 L1,6 L-8,9 L-11,7 L-8,4 L-6,4 L-6,2 L0,2 Z " fill="#774A51" transform="translate(384,300)"/>
<path d="M0,0 L2,0 L2,2 L5,1 L5,3 L2,3 L2,5 L4,6 L-3,8 L-7,8 L-7,5 L-9,5 L-10,8 L-10,4 L-6,4 L-6,2 L0,2 Z " fill="#7D4C5B" transform="translate(424,280)"/>
<path d="M0,0 L16,2 L16,6 L12,7 L6,5 L6,3 L1,5 L1,3 L-2,3 L-2,1 Z " fill="#806B66" transform="translate(333,594)"/>
<path d="M0,0 L2,0 L2,7 L4,7 L5,3 L6,7 L5,8 L6,20 L4,20 L3,22 L2,21 L2,12 L0,7 Z " fill="#816260" transform="translate(279,523)"/>
<path d="M0,0 L2,0 L3,11 L-3,11 L-3,13 L-5,13 L-6,7 L-5,6 L0,6 Z " fill="#331417" transform="translate(325,281)"/>
<path d="M0,0 L1,0 L1,5 L3,5 L3,1 L12,1 L12,2 L4,2 L4,4 L16,4 L16,5 L4,5 L4,7 L8,8 L4,8 L4,10 L0,9 L-2,8 L-2,6 L0,6 Z " fill="#5C4F49" transform="translate(480,720)"/>
<path d="M0,0 L2,1 L1,3 L-1,3 L0,10 L2,15 L1,24 L0,24 L-2,17 L-4,16 L-4,10 L-2,10 L-2,2 L0,2 Z " fill="#6F5351" transform="translate(280,520)"/>
<path d="M0,0 L34,0 L34,2 L40,2 L39,4 L31,4 L31,2 L1,1 L0,4 Z " fill="#5B424B" transform="translate(512,510)"/>
<path d="M0,0 L9,0 L9,3 L14,0 L14,4 L-1,4 L-4,2 Z " fill="#786161" transform="translate(581,645)"/>
<path d="M0,0 L2,1 L2,15 L4,16 L2,16 L2,23 L0,23 L-1,18 Z " fill="#7C6461" transform="translate(415,622)"/>
<path d="M0,0 L4,0 L5,2 L11,3 L14,7 L2,7 L-1,5 Z " fill="#9B7A84" transform="translate(548,578)"/>
<path d="M0,0 L6,0 L6,4 L9,4 L9,7 L0,7 L0,5 L-2,5 L-2,1 Z " fill="#836A66" transform="translate(321,588)"/>
<path d="M0,0 L5,0 L5,5 L0,8 L-1,11 L-3,11 L-4,7 L-1,1 Z " fill="#826B70" transform="translate(712,608)"/>
<path d="M0,0 L11,1 L11,7 L6,7 L6,5 L1,5 Z " fill="#907075" transform="translate(503,592)"/>
<path d="M0,0 L12,0 L15,2 L13,2 L13,4 L6,6 L2,3 L2,1 Z " fill="#7C595F" transform="translate(480,511)"/>
<path d="M0,0 L2,0 L2,2 L4,2 L4,0 L6,0 L6,11 L2,13 L1,4 Z " fill="#825E60" transform="translate(299,483)"/>
<path d="M0,0 L2,0 L2,3 L4,3 L2,8 L-2,9 L-1,6 L-12,6 L-12,4 L-1,3 Z " fill="#824D5C" transform="translate(415,285)"/>
<path d="M0,0 L1,2 L3,2 L4,0 L10,2 L11,4 L10,6 L12,6 L13,4 L13,10 L9,7 L9,5 L3,5 L3,3 L1,3 L0,7 Z " fill="#6C5955" transform="translate(363,663)"/>
<path d="M0,0 L2,0 L2,9 L4,9 L3,14 L2,23 L1,23 L1,9 L-1,9 L-2,1 Z " fill="#816A78" transform="translate(751,489)"/>
<path d="M0,0 L4,1 L4,5 L10,5 L10,23 L9,23 L9,6 L1,6 L-2,4 L-2,1 Z " fill="#6A4D55" transform="translate(564,307)"/>
<path d="M0,0 L1,0 L1,5 L3,5 L3,0 L4,0 L4,6 L0,6 L0,10 L-2,10 L-2,16 L-4,16 L-4,18 L-8,17 L-7,15 L-3,15 L-3,10 L-6,9 L-3,7 L-3,9 L-1,9 L-2,3 Z " fill="#6C565F" transform="translate(720,598)"/>
<path d="M0,0 L2,0 L1,4 L-4,9 L-7,17 L-10,17 L-11,19 L-10,14 L-8,12 L-5,5 L-2,4 L-2,2 L0,2 Z " fill="#856B78" transform="translate(722,588)"/>
<path d="M0,0 L6,1 L8,5 L8,8 L10,8 L10,13 L7,14 L7,6 L2,5 L0,4 Z " fill="#8F7583" transform="translate(704,456)"/>
<path d="M0,0 L2,1 L1,3 L-1,3 L-1,5 L1,6 L-1,7 L-2,19 L-3,19 L-4,9 L-5,20 L-6,20 L-6,6 L-2,2 L0,2 Z " fill="#6A464C" transform="translate(332,364)"/>
<path d="M0,0 L5,5 L1,8 L1,11 L-1,11 L-1,15 L-4,15 L-4,7 L-2,7 L-2,4 L0,3 Z " fill="#805357" transform="translate(341,345)"/>
<path d="M0,0 L3,0 L5,6 L0,6 L0,8 L-4,12 L-9,13 L-9,11 L-4,8 L-6,6 L-3,6 L-3,4 L-1,3 Z " fill="#90606C" transform="translate(461,348)"/>
<path d="M0,0 L8,0 L8,8 L4,8 L4,4 L0,4 Z " fill="#967876" transform="translate(408,544)"/>
<path d="M0,0 L6,0 L6,32 L8,32 L8,34 L6,34 L5,36 L4,32 L5,1 L0,1 Z " fill="#1B1615" transform="translate(354,622)"/>
<path d="M0,0 L3,1 L2,5 L-3,8 L-7,11 L-6,5 L-9,5 L-9,3 L-2,2 Z " fill="#81555F" transform="translate(518,340)"/>
<path d="M0,0 L1,0 L1,12 L-2,20 L-3,20 L-3,8 Z " fill="#88575E" transform="translate(368,332)"/>
<path d="M0,0 L1,0 L2,14 L1,26 L0,26 L0,14 L-2,14 L-2,8 L0,8 Z " fill="#120E0E" transform="translate(418,638)"/>
<path d="M0,0 L4,1 L1,1 L2,6 L-2,8 L-10,16 L-12,18 L-12,14 L-10,14 L-8,10 L-4,6 L-2,6 L-2,4 L0,4 Z " fill="#151114" transform="translate(748,568)"/>
<path d="M0,0 L2,1 L2,6 L-1,8 L-7,7 L-5,10 L-6,14 L-8,10 L-8,6 L-4,6 L-4,4 L-2,4 L-2,2 L0,2 Z " fill="#6B5159" transform="translate(668,418)"/>
<path d="M0,0 L5,1 L4,7 L2,7 L2,13 L-2,13 L-1,9 L-1,12 L1,12 L1,7 L-1,7 L-1,5 L-3,4 L3,2 L0,2 Z " fill="#714C54" transform="translate(542,357)"/>
<path d="M0,0 L5,0 L5,17 L7,18 L3,17 L3,2 L-1,1 Z " fill="#805D67" transform="translate(568,313)"/>
<path d="M0,0 L20,1 L20,2 L13,4 L13,6 L8,6 L8,2 L0,3 Z " fill="#906370" transform="translate(472,295)"/>
<path d="M0,0 L1,2 L3,3 L1,3 L1,5 L4,6 L0,6 L0,4 L-10,4 L-11,6 L-25,5 L-25,4 L-14,3 L-11,2 L0,3 Z " fill="#6C5C5A" transform="translate(688,644)"/>
<path d="M0,0 L12,0 L12,2 L8,2 L8,4 L13,4 L13,5 L-2,5 L-2,4 L6,4 L6,2 L0,2 Z " fill="#634754" transform="translate(554,510)"/>
<path d="M0,0 L2,3 L1,9 L0,15 L-1,15 L-1,7 L-3,7 L-3,16 L-4,16 L-4,6 L-2,6 L-1,1 Z " fill="#6F494E" transform="translate(316,440)"/>
<path d="M0,0 L6,0 L6,2 L12,2 L12,0 L14,0 L15,4 L13,6 L12,4 L6,3 L6,5 L11,5 L11,6 L4,6 L0,3 L5,3 L5,1 L0,1 Z " fill="#705A65" transform="translate(692,408)"/>
<path d="M0,0 L7,0 L7,2 L11,3 L10,5 L2,6 Z " fill="#875B68" transform="translate(494,289)"/>
<path d="M0,0 L3,3 L1,12 L-6,17 L-6,12 L-1,11 Z " fill="#8E777D" transform="translate(705,603)"/>
<path d="M0,0 L2,4 L1,9 L0,12 L-1,17 L-3,17 L-4,19 L-5,15 L-2,14 L-3,8 L-1,6 L-1,1 Z " fill="#967D85" transform="translate(697,600)"/>
<path d="M0,0 L4,1 L3,8 L5,9 L0,10 L-1,10 L-2,2 L0,2 Z " fill="#9A7886" transform="translate(609,544)"/>
<path d="M0,0 L1,0 L3,14 L3,17 L3,19 L1,19 L1,14 L-4,14 L-4,12 L-2,12 L-2,10 L0,10 Z M4,16 Z M3,17 Z " fill="#70535D" transform="translate(652,450)"/>
<path d="M0,0 L4,1 L-2,6 L-3,21 L0,22 L-4,22 L-4,10 L-6,10 L-6,8 L-4,8 L-4,4 L-2,4 L-2,2 L0,2 Z " fill="#140D0F" transform="translate(462,392)"/>
<path d="M0,0 L2,2 L2,21 L0,21 L-2,14 L-1,13 Z " fill="#825860" transform="translate(327,371)"/>
<path d="M0,0 L3,2 L2,4 L2,16 L-1,15 L-1,1 Z " fill="#94626B" transform="translate(378,330)"/>
<path d="M0,0 L4,1 L1,1 L1,3 L3,3 L1,7 L-2,8 L-3,11 L-3,9 L-5,9 L-6,12 L-6,8 L-4,8 L-3,3 L0,2 Z " fill="#6F494C" transform="translate(344,340)"/>
<path d="M0,0 L32,0 L32,1 L14,2 L10,3 L0,1 Z " fill="#846167" transform="translate(452,597)"/>
<path d="M0,0 L3,0 L3,2 L5,3 L1,7 L-1,11 L-3,7 L-2,2 L0,2 Z " fill="#8D656D" transform="translate(447,478)"/>
<path d="M0,0 L8,0 L8,1 L2,2 L2,5 L0,9 L-2,9 L-2,11 L0,12 L-2,12 L-3,15 L-4,6 L0,7 L-2,2 L0,2 Z " fill="#150C0E" transform="translate(480,364)"/>
<path d="M0,0 L2,0 L3,7 L6,8 L6,13 L3,13 L1,10 L-1,6 Z " fill="#806775" transform="translate(741,467)"/>
<path d="M0,0 L10,0 L12,2 L12,5 L14,6 L11,7 L11,5 L8,5 L6,3 L0,1 Z " fill="#8D6E73" transform="translate(514,599)"/>
<path d="M0,0 L1,4 L-1,4 L-1,6 L-3,6 L-3,10 L-6,11 L-9,9 L-7,9 L-6,7 L-6,9 L-4,9 L-6,5 L-5,1 L-2,1 L-2,3 L0,3 Z " fill="#735C68" transform="translate(731,586)"/>
<path d="M0,0 L3,0 L4,4 L2,4 L0,11 L-2,11 L-2,1 Z " fill="#75615C" transform="translate(362,661)"/>
<path d="M0,0 L4,0 L4,2 L6,2 L6,12 L5,12 L4,6 L1,4 L-6,3 L-6,2 L0,2 Z " fill="#120D0D" transform="translate(506,610)"/>
<path d="M0,0 L4,2 L2,2 L2,8 L0,8 L0,10 L-2,10 L-2,14 L-4,14 L-5,16 L-6,13 L-3,13 L-4,8 L-2,2 L-1,2 L-1,7 L1,7 Z " fill="#6B5A64" transform="translate(762,540)"/>
<path d="M0,0 L11,1 L8,4 L0,4 L-2,2 Z " fill="#8D6C77" transform="translate(608,534)"/>
<path d="M0,0 L6,3 L6,10 L2,9 L0,4 Z " fill="#866369" transform="translate(461,503)"/>
<path d="M0,0 L4,0 L3,5 L0,10 L-1,15 L-3,12 Z " fill="#876872" transform="translate(671,448)"/>
<path d="M0,0 L4,0 L4,6 L0,6 L0,8 L-2,8 L-2,2 Z " fill="#6B454E" transform="translate(542,374)"/>
<path d="M0,0 L5,0 L2,3 L-9,4 L-12,5 L-12,3 L-14,2 L-6,1 Z " fill="#776563" transform="translate(672,645)"/>
<path d="M0,0 L8,0 L8,4 L16,4 L16,5 L1,6 L-2,6 L-2,4 L7,3 L7,1 L0,1 Z " fill="#6C4E56" transform="translate(496,510)"/>
<path d="M0,0 L2,3 L0,9 L-3,11 L-3,7 L-5,7 L-6,10 L-6,6 L-4,6 L-4,4 L0,4 Z " fill="#71484E" transform="translate(372,308)"/>
<path d="M0,0 L15,0 L16,3 L2,2 Z " fill="#7C5560" transform="translate(492,285)"/>
<path d="M0,0 L1,3 L-4,7 L-11,7 L-16,6 L-16,5 L-3,4 L-2,1 Z " fill="#8B7878" transform="translate(696,629)"/>
<path d="M0,0 L2,2 L9,3 L8,7 L6,8 L6,6 L1,6 L0,5 Z " fill="#A18B8E" transform="translate(672,602)"/>
<path d="M0,0 L1,0 L1,8 L-1,8 L-1,10 L1,10 L1,12 L-9,12 L-9,11 L-4,11 L-5,7 L0,7 Z " fill="#683E49" transform="translate(473,372)"/>
<path d="M0,0 L3,0 L4,4 L5,8 L3,10 L0,10 Z " fill="#7D545B" transform="translate(330,371)"/>
<path d="M0,0 L1,2 L3,2 L3,9 L-1,10 L-1,1 Z " fill="#997785" transform="translate(637,543)"/>
<path d="M0,0 L6,0 L6,4 L-2,5 L-2,3 L-4,3 L-4,1 Z " fill="#94736E" transform="translate(312,540)"/>
<path d="M0,0 L0,3 L-9,3 L-9,7 L-11,7 L-12,1 Z " fill="#85736B" transform="translate(492,718)"/>
<path d="M0,0 L12,0 L12,3 L11,1 L9,1 L9,3 L0,3 Z " fill="#3B2F2F" transform="translate(564,655)"/>
<path d="M0,0 L1,2 L3,2 L3,8 L1,8 L0,10 L0,8 L-3,7 L-2,2 L0,2 Z " fill="#714F55" transform="translate(467,484)"/>
<path d="M0,0 L8,0 L8,4 L4,5 L0,4 Z " fill="#9A747C" transform="translate(396,476)"/>
<path d="M0,0 L3,0 L3,6 L1,11 L0,9 L-2,9 L-2,5 L0,5 Z " fill="#7D5F69" transform="translate(659,435)"/>
<path d="M0,0 L1,0 L1,7 L3,7 L3,0 L5,4 L7,7 L7,11 L5,11 L5,8 L0,8 Z " fill="#705757" transform="translate(516,636)"/>
<path d="M0,0 L8,0 L8,4 L0,4 Z " fill="#997778" transform="translate(380,564)"/>
<path d="M0,0 L5,1 L3,2 L3,9 L-2,9 Z " fill="#7C4A57" transform="translate(470,370)"/>
<path d="M0,0 L6,0 L6,1 L1,1 L1,3 L4,4 L3,6 L-1,5 L-1,7 L-5,7 L-6,10 L-6,6 L-4,6 L-4,4 L0,4 Z " fill="#6C3F4A" transform="translate(396,290)"/>
<path d="M0,0 L2,4 L5,6 L5,8 L1,8 L1,10 L-1,10 L-1,6 L-5,5 L-1,4 Z " fill="#624B4B" transform="translate(541,650)"/>
<path d="M0,0 L1,3 L1,12 L0,18 L-2,18 L-1,2 Z " fill="#805F6B" transform="translate(653,470)"/>
<path d="M0,0 L2,3 L0,7 L-1,5 L-3,5 L-2,12 L-7,12 L-6,10 L-4,10 L-4,4 L-2,4 Z " fill="#68464A" transform="translate(310,456)"/>
<path d="M0,0 L3,1 L3,5 L1,5 L0,7 L0,5 L-7,5 L-7,3 L0,3 Z " fill="#7B605F" transform="translate(536,648)"/>
<path d="M0,0 L3,0 L3,8 L-1,9 Z " fill="#7D5359" transform="translate(472,464)"/>
<path d="M0,0 L5,0 L5,2 L2,2 L1,6 L0,8 L-6,8 L-6,6 L-1,5 Z " fill="#84555A" transform="translate(361,319)"/>
<path d="M0,0 L5,0 L2,1 L2,3 L-6,5 L-9,4 L-5,3 L-5,1 Z " fill="#7C4858" transform="translate(408,291)"/>
<path d="M0,0 L9,2 L8,5 L7,3 L-9,3 L-9,2 Z " fill="#78625E" transform="translate(400,674)"/>
<path d="M0,0 L2,0 L2,2 L8,2 L8,3 L2,3 L2,5 L7,5 L6,7 L-1,5 L-1,7 L-4,6 L-2,6 L-2,4 L0,4 Z " fill="#110D0D" transform="translate(364,666)"/>
<path d="M0,0 L6,1 L4,5 L1,6 L0,9 L-1,5 Z " fill="#856C6B" transform="translate(413,605)"/>
<path d="M0,0 L12,0 L13,2 L5,4 L5,2 L0,2 Z " fill="#8E6B71" transform="translate(481,532)"/>
<path d="M0,0 L1,2 L4,3 L2,3 L4,8 L-1,8 L-1,6 L-3,6 L-2,3 L0,3 Z " fill="#724550" transform="translate(476,363)"/>
<path d="M0,0 L1,2 L5,3 L4,5 L0,5 L0,3 L-7,3 L-7,1 Z " fill="#7E515C" transform="translate(526,354)"/>
<path d="M0,0 L9,0 L12,2 L11,3 L-1,3 Z " fill="#7E515C" transform="translate(507,352)"/>
<path d="M0,0 L6,0 L5,5 L-1,5 Z " fill="#2D1112" transform="translate(305,289)"/>
<path d="M0,0 L2,0 L1,3 L-5,3 L-5,5 L-3,6 L-7,8 L-7,5 L-9,5 L-10,8 L-10,4 L-6,4 L-6,2 L0,2 Z " fill="#693F4B" transform="translate(424,280)"/>
<path d="M0,0 L5,1 L5,5 L0,6 Z " fill="#866E6E" transform="translate(554,629)"/>
<path d="M0,0 L4,2 L2,2 L2,8 L0,8 L0,12 L-4,11 L-1,11 L-1,9 L-4,9 L-3,6 L1,7 Z " fill="#695761" transform="translate(752,556)"/>
<path d="M0,0 L1,0 L1,9 L3,9 L4,5 L5,9 L7,10 L5,10 L4,13 L0,10 Z " fill="#6E5050" transform="translate(288,552)"/>
<path d="M0,0 L1,4 L3,4 L3,6 L7,6 L6,10 L6,7 L4,7 L5,10 L2,11 L1,7 L2,5 L-1,6 Z " fill="#6B4D52" transform="translate(473,498)"/>
<path d="M0,0 L1,4 L-5,4 L-5,6 L-7,6 L-8,8 L-8,6 L-10,6 L-8,2 L0,3 Z " fill="#6C4D55" transform="translate(565,336)"/>
<path d="M0,0 L6,0 L6,1 L1,1 L1,4 L3,5 L-2,7 L-5,5 L-2,2 L0,2 Z " fill="#6B4348" transform="translate(378,302)"/>
<path d="M0,0 L6,0 L13,3 L13,5 L5,4 L5,2 L0,1 Z " fill="#957E81" transform="translate(643,627)"/>
<path d="M0,0 L2,0 L2,2 L7,0 L6,6 L0,4 Z " fill="#84726B" transform="translate(355,605)"/>
<path d="M0,0 L2,0 L2,7 L4,7 L4,5 L6,5 L5,9 L0,8 Z " fill="#9B7D87" transform="translate(614,576)"/>
<path d="M0,0 L1,0 L0,11 L-4,12 L-4,7 L-1,5 Z " fill="#88636B" transform="translate(336,408)"/>
<path d="M0,0 L6,0 L8,3 L11,4 L11,6 L5,5 L5,2 L0,2 Z " fill="#7F6774" transform="translate(698,411)"/>
<path d="M0,0 L7,0 L7,2 L9,3 L1,5 Z " fill="#987F83" transform="translate(624,605)"/>
<path d="M0,0 L9,2 L11,3 L11,6 L5,5 L5,2 L0,2 Z " fill="#8F7572" transform="translate(343,586)"/>
<path d="M0,0 L1,0 L2,10 L0,11 L-1,16 L-3,13 L-2,8 L0,8 Z " fill="#0E090A" transform="translate(476,464)"/>
<path d="M0,0 L2,0 L2,7 L-3,8 L-1,1 Z " fill="#855C60" transform="translate(316,456)"/>
<path d="M0,0 L4,0 L4,2 L-1,4 L-3,8 L-5,4 Z " fill="#816874" transform="translate(708,421)"/>
<path d="M0,0 L1,0 L1,5 L-1,11 L-4,8 L-4,4 Z " fill="#815660" transform="translate(450,392)"/>
<path d="M0,0 L10,0 L16,1 L16,2 L10,2 L10,4 L8,4 L8,2 L2,2 L1,4 Z " fill="#675857" transform="translate(642,644)"/>
<path d="M0,0 L5,0 L2,4 L-1,4 L-1,8 L-3,8 L-1,1 Z " fill="#9B8286" transform="translate(681,620)"/>
<path d="M0,0 L5,0 L5,5 L0,5 Z " fill="#7F676E" transform="translate(712,608)"/>
<path d="M0,0 L6,0 L6,4 L1,5 Z " fill="#8E6F6C" transform="translate(307,552)"/>
<path d="M0,0 L2,0 L2,2 L5,2 L5,8 L7,9 L3,9 L2,5 L3,3 L0,2 Z " fill="#86686A" transform="translate(528,613)"/>
<path d="M0,0 L2,0 L2,9 L-3,9 L-3,7 L0,7 Z " fill="#816664" transform="translate(423,612)"/>
<path d="M0,0 L4,1 L4,3 L8,3 L8,5 L3,5 L3,3 L-2,3 L-2,1 Z " fill="#8C6D72" transform="translate(506,594)"/>
<path d="M0,0 L2,0 L2,5 L7,5 L7,7 L0,7 Z " fill="#836462" transform="translate(301,580)"/>
<path d="M0,0 L12,0 L15,2 L8,3 L8,1 L0,1 Z " fill="#78565D" transform="translate(480,511)"/>
<path d="M0,0 L2,0 L1,5 L0,8 L-1,11 L-4,8 L-2,3 L0,3 Z " fill="#946B6F" transform="translate(324,460)"/>
<path d="M0,0 L2,1 L-3,6 L-6,8 L-5,3 L-4,1 Z " fill="#997074" transform="translate(337,443)"/>
<path d="M0,0 L1,0 L1,11 L-2,11 L-1,1 Z " fill="#7B686B" transform="translate(706,622)"/>
<path d="M0,0 L2,0 L0,4 L-1,6 L-3,6 L-3,10 L-7,9 L-4,9 L-5,4 L-2,5 L-1,1 Z " fill="#6F5B66" transform="translate(739,576)"/>
<path d="M0,0 L2,0 L1,4 L-1,5 L-2,10 L-4,10 L-3,3 L-1,3 Z " fill="#846465" transform="translate(293,511)"/>
<path d="M0,0 L4,1 L5,3 L8,4 L8,6 L5,6 L4,8 L0,2 Z " fill="#7E5B61" transform="translate(463,491)"/>
<path d="M0,0 L2,1 L-3,7 L-5,9 L-6,4 Z " fill="#92616A" transform="translate(440,364)"/>
<path d="M0,0 L9,0 L5,2 L-1,5 Z " fill="#875C67" transform="translate(524,331)"/>
<path d="M0,0 L3,0 L3,4 L-5,3 L-5,1 Z " fill="#18090D" transform="translate(361,251)"/>
<path d="M0,0 L5,1 L3,5 L1,7 Z " fill="#786667" transform="translate(692,641)"/>
<path d="M0,0 L1,2 L5,0 L3,4 L-2,5 L-4,3 L0,2 Z " fill="#8E7171" transform="translate(414,597)"/>
<path d="M0,0 L2,4 L0,8 L-2,8 L-3,3 L0,2 Z " fill="#7F6775" transform="translate(731,581)"/>
<path d="M0,0 L0,3 L-3,6 L-4,12 L-6,11 L-5,4 Z " fill="#856566" transform="translate(301,499)"/>
<path d="M0,0 L3,2 L-5,8 L-7,6 L-3,4 L-2,1 Z " fill="#82555B" transform="translate(340,364)"/>
<path d="M0,0 L2,0 L2,2 L12,2 L12,3 L0,4 L-3,3 L-2,1 L0,2 Z " fill="#65434D" transform="translate(520,286)"/>
<path d="M0,0 L1,0 L1,5 L3,5 L3,9 L-2,8 L-2,6 L0,6 Z " fill="#6F6159" transform="translate(480,720)"/>
<path d="M0,0 L6,0 L5,4 L3,4 L2,6 Z " fill="#7C6762" transform="translate(363,621)"/>
<path d="M0,0 L2,0 L2,3 L4,3 L5,0 L5,2 L7,3 L5,3 L4,5 L-1,5 Z " fill="#78565A" transform="translate(494,604)"/>
<path d="M0,0 L1,4 L-1,4 L-2,6 L-2,4 L-6,5 L-5,1 L-2,1 L-2,3 L0,3 Z " fill="#6F5A66" transform="translate(747,568)"/>
<path d="M0,0 L1,2 L5,0 L3,4 L-1,8 Z " fill="#865761" transform="translate(450,377)"/>
<path d="M0,0 L1,0 L1,6 L-1,13 L-2,13 L-2,4 Z " fill="#7F5359" transform="translate(355,338)"/>
<path d="M0,0 L4,2 L1,5 L-5,5 L-2,2 Z " fill="#845B64" transform="translate(536,331)"/>
<path d="M0,0 L3,0 L3,2 L0,2 L1,7 L-2,7 L-3,3 Z M-4,5 Z " fill="#825A65" transform="translate(544,295)"/>
<path d="M0,0 L5,0 L5,4 L0,4 Z " fill="#846F6A" transform="translate(361,611)"/>
<path d="M0,0 L4,1 L3,6 L1,7 Z " fill="#917785" transform="translate(703,594)"/>
<path d="M0,0 L3,2 L5,2 L4,7 L-2,2 Z " fill="#64534F" transform="translate(336,598)"/>
<path d="M0,0 L4,2 L2,5 L-2,5 L-2,2 L0,2 Z " fill="#7D4B57" transform="translate(395,295)"/>
<path d="M0,0 L5,1 L7,0 L6,4 L3,5 L2,3 L-1,1 Z " fill="#8D6C75" transform="translate(625,533)"/>
<path d="M0,0 L4,1 L1,1 L2,7 L0,10 L0,8 L-2,8 L-2,6 L0,6 Z " fill="#644B53" transform="translate(670,408)"/>
<path d="M0,0 L2,0 L3,4 L1,6 L0,4 L-6,3 L-6,2 L0,2 Z " fill="#68525D" transform="translate(704,408)"/>
<path d="M0,0 L2,0 L2,2 L4,2 L4,7 L2,7 L2,4 L0,4 Z " fill="#825660" transform="translate(539,362)"/>
<path d="M0,0 L2,0 L2,4 L0,4 L-1,6 L-2,1 Z " fill="#7D5E5C" transform="translate(283,539)"/>
<path d="M0,0 L2,0 L2,2 L5,3 L4,5 L0,5 Z " fill="#8C696F" transform="translate(451,498)"/>
<path d="M0,0 L3,0 L2,4 L-3,4 Z " fill="#885363" transform="translate(411,296)"/>
<path d="M0,0 L4,2 L4,5 L0,5 L-1,2 Z " fill="#7C6762" transform="translate(376,668)"/>
<path d="M0,0 L2,0 L3,4 L-4,4 L-1,3 Z " fill="#7E6B6D" transform="translate(696,637)"/>
<path d="M0,0 L6,0 L6,2 L-2,3 Z " fill="#857371" transform="translate(687,637)"/>
<path d="M0,0 L4,0 L4,4 L0,4 Z " fill="#997778" transform="translate(400,544)"/>
<path d="M0,0 L4,0 L4,4 L0,4 Z " fill="#997873" transform="translate(314,540)"/>
<path d="M0,0 L2,0 L2,3 L-5,3 L-5,1 Z " fill="#7D525C" transform="translate(536,358)"/>
<path d="M0,0 L2,0 L2,3 L-2,5 L-4,4 L-4,2 Z " fill="#7D5256" transform="translate(349,339)"/>
<path d="M0,0 Z M-4,1 L0,2 L-2,5 L-5,5 L-6,2 Z " fill="#7F5661" transform="translate(543,295)"/>
<path d="M0,0 L4,0 L4,5 L2,5 Z " fill="#74655E" transform="translate(498,727)"/>
<path d="M0,0 L3,0 L3,4 L-1,4 Z " fill="#72635B" transform="translate(489,726)"/>
<path d="M0,0 L4,0 L3,6 L1,6 Z " fill="#827167" transform="translate(480,719)"/>
<path d="M0,0 L3,0 L3,4 L-1,4 Z " fill="#433333" transform="translate(429,615)"/>
<path d="M0,0 L2,1 L2,3 L4,4 L3,6 L0,6 Z " fill="#8D7774" transform="translate(355,591)"/>
<path d="M0,0 L3,1 L0,4 L-4,2 Z " fill="#9B787E" transform="translate(484,544)"/>
<path d="M0,0 L6,1 L3,3 L-3,2 Z " fill="#7E5C6C" transform="translate(580,515)"/>
<path d="M0,0 L4,4 L2,4 L1,6 L-1,2 Z " fill="#785E6B" transform="translate(715,419)"/>
<path d="M0,0 L3,1 L-3,6 L-2,2 Z " fill="#7D525C" transform="translate(514,345)"/>
<path d="M0,0 L3,2 L2,6 L-2,5 L1,5 L1,3 L-2,2 Z " fill="#0F090A" transform="translate(370,306)"/>
<path d="M0,0 L7,1 L8,3 L5,4 L0,1 Z " fill="#7E5460" transform="translate(531,293)"/>
<path d="M0,0 L8,0 L4,2 L0,3 Z " fill="#836069" transform="translate(500,520)"/>
<path d="M0,0 L2,4 L-4,4 L-4,2 L0,2 Z " fill="#160F12" transform="translate(566,510)"/>
<path d="M0,0 L2,1 L1,6 L-1,6 L-1,1 Z " fill="#795B65" transform="translate(674,408)"/>
<path d="M0,0 L4,1 L1,1 L1,5 L-3,3 L0,2 Z " fill="#674346" transform="translate(344,340)"/>
<path d="M0,0 L4,0 L4,3 L0,4 Z " fill="#7C4E54" transform="translate(363,321)"/>
<path d="M0,0 L1,4 L7,4 L7,5 L0,6 L-2,4 L0,4 Z " fill="#644750" transform="translate(555,298)"/>
<path d="M0,0 L5,1 L5,3 L0,3 Z " fill="#73595A" transform="translate(541,655)"/>
<path d="M0,0 L2,0 L1,5 L-2,5 L-2,3 L0,3 Z " fill="#806261" transform="translate(539,650)"/>
<path d="M0,0 L2,0 L4,5 L0,4 Z " fill="#816E68" transform="translate(355,605)"/>
<path d="M0,0 L4,0 L4,2 L2,2 L1,6 Z " fill="#120D0E" transform="translate(320,416)"/>
<path d="M0,0 L0,3 L-3,7 L-3,2 Z " fill="#825962" transform="translate(334,382)"/>
<path d="M0,0 L2,2 L-2,5 L-3,2 Z M-3,5 Z " fill="#9A6872" transform="translate(409,353)"/>
<path d="M0,0 L2,0 L1,4 L-3,3 L-3,1 Z " fill="#805660" transform="translate(543,348)"/>
<path d="M0,0 L6,2 L6,3 L-2,3 Z " fill="#1E1417" transform="translate(548,346)"/>
<path d="M0,0 L4,2 L2,2 L2,4 L-2,2 Z " fill="#150E10" transform="translate(518,284)"/>
<path d="M0,0 L5,1 L3,4 L1,4 Z " fill="#876D6B" transform="translate(406,615)"/>
<path d="M0,0 L1,3 L-3,7 L-2,2 Z " fill="#886E7B" transform="translate(714,600)"/>
<path d="M0,0 L2,0 L2,3 L-2,5 L-1,1 Z " fill="#8F7582" transform="translate(698,534)"/>
<path d="M0,0 L2,0 L1,5 L-1,5 Z " fill="#7B616E" transform="translate(713,418)"/>
<path d="M0,0 L4,2 L3,4 L0,6 Z " fill="#8F5F6B" transform="translate(384,396)"/>
<path d="M0,0 Z M-1,1 L1,3 L-5,5 L-5,3 Z M-6,5 Z " fill="#9B6774" transform="translate(426,303)"/>
<path d="M0,0 L3,4 L1,6 L-1,4 Z " fill="#78635E" transform="translate(364,650)"/>
<path d="M0,0 L1,3 L0,5 L-3,4 Z " fill="#886D7C" transform="translate(718,592)"/>
<path d="M0,0 L3,0 L2,5 L0,3 Z " fill="#7D5558" transform="translate(311,456)"/>
<path d="M0,0 L4,1 L4,4 L2,4 L2,2 L0,2 Z " fill="#150E10" transform="translate(540,352)"/>
<path d="M0,0 L5,0 L4,3 L0,2 Z " fill="#785860" transform="translate(556,305)"/>
<path d="M0,0 L4,0 L4,2 L2,2 L1,4 Z " fill="#100D0C" transform="translate(358,654)"/>
<path d="M0,0 L2,1 L1,4 L-2,3 Z " fill="#7A6262" transform="translate(594,645)"/>
<path d="M0,0 L2,0 L3,4 L0,4 Z " fill="#806B66" transform="translate(349,600)"/>
<path d="M0,0 L0,3 L-3,5 L-3,2 Z " fill="#8B6F6E" transform="translate(418,597)"/>
<path d="M0,0 L3,1 L2,4 L0,4 Z " fill="#7D4F56" transform="translate(375,309)"/>
</svg>
