<?xml version="1.0" encoding="UTF-8"?>
<!-- Generator: visioncortex VTracer 0.6.4 -->
<svg version="1.1" xmlns="http://www.w3.org/2000/svg" width="1024" height="1024">
<path d="M0,0 L1024,0 L1024,1024 L0,1024 Z " fill="#000000" transform="translate(0,0)"/>
<path d="M0,0 L16,0 L16,2 L28,2 L30,5 L40,6 L42,9 L46,10 L46,12 L50,12 L50,16 L52,16 L52,18 L58,18 L58,14 L62,14 L62,18 L64,18 L64,24 L66,24 L66,32 L68,32 L68,36 L70,36 L70,44 L68,44 L68,48 L72,48 L72,52 L76,54 L78,57 L82,58 L82,60 L88,60 L88,62 L90,62 L90,70 L92,70 L92,72 L96,72 L96,74 L100,74 L100,76 L102,76 L102,80 L106,82 L108,85 L114,86 L114,96 L116,96 L116,98 L122,98 L124,101 L128,102 L128,106 L134,106 L134,108 L138,108 L138,110 L150,110 L150,112 L154,112 L154,116 L156,116 L156,120 L158,120 L158,124 L162,124 L162,126 L168,126 L168,124 L170,124 L170,122 L172,122 L172,116 L174,116 L174,112 L176,112 L176,110 L186,110 L186,112 L190,112 L194,116 L194,120 L196,120 L196,124 L200,124 L200,126 L202,126 L202,139 L204,138 L212,138 L216,142 L216,148 L214,148 L214,150 L208,150 L208,148 L204,148 L204,142 L202,142 L202,156 L200,156 L200,160 L198,160 L198,174 L196,174 L196,182 L194,182 L194,184 L192,184 L192,190 L190,190 L190,210 L188,210 L188,212 L190,212 L190,232 L188,232 L188,252 L190,252 L190,266 L188,266 L188,268 L190,268 L190,270 L188,270 L188,272 L190,272 L190,284 L192,284 L192,292 L190,292 L190,300 L192,300 L192,304 L196,306 L196,308 L198,308 L198,322 L202,322 L204,325 L214,326 L214,332 L216,332 L216,334 L220,334 L220,338 L222,338 L222,340 L224,340 L224,348 L228,348 L228,350 L232,350 L232,352 L240,352 L240,354 L248,354 L248,356 L262,356 L266,361 L268,362 L268,392 L266,392 L266,402 L264,402 L264,408 L262,408 L262,410 L256,410 L256,408 L252,408 L252,410 L250,410 L250,412 L248,412 L248,414 L246,414 L246,420 L242,420 L242,422 L240,422 L240,426 L234,426 L234,428 L232,428 L232,430 L228,430 L228,432 L226,432 L226,434 L221,438 L220,440 L218,440 L218,446 L212,446 L212,448 L210,448 L210,446 L160,446 L160,444 L158,444 L158,438 L152,438 L152,436 L142,436 L142,434 L134,434 L134,432 L128,432 L124,428 L124,430 L122,430 L122,428 L120,428 L120,430 L118,430 L118,428 L116,428 L116,430 L114,430 L114,428 L112,428 L112,430 L110,430 L110,428 L108,428 L108,430 L106,430 L106,426 L110,426 L110,424 L112,424 L112,422 L108,422 L108,418 L106,418 L106,414 L104,414 L104,406 L102,406 L102,402 L100,402 L100,394 L98,394 L98,386 L96,386 L96,382 L94,382 L94,376 L92,376 L92,372 L90,372 L90,366 L88,366 L88,362 L86,362 L86,360 L82,360 L82,358 L74,358 L74,356 L52,356 L52,358 L42,358 L42,360 L38,360 L38,382 L36,382 L36,386 L34,386 L34,384 L30,384 L30,390 L28,390 L28,400 L26,400 L26,406 L24,406 L24,404 L20,404 L20,402 L18,402 L18,398 L16,398 L16,402 L14,402 L14,406 L12,406 L12,408 L10,408 L10,410 L6,410 L6,414 L4,414 L4,416 L2,416 L2,414 L-2,418 L-8,418 L-8,420 L-12,420 L-12,422 L-16,422 L-16,424 L-24,424 L-24,426 L-28,426 L-28,424 L-34,424 L-34,422 L-50,422 L-52,418 L-56,418 L-56,416 L-58,416 L-58,412 L-68,412 L-68,414 L-72,413 L-78,408 L-80,403 L-84,400 L-84,396 L-86,396 L-86,380 L-88,380 L-88,374 L-90,374 L-90,370 L-92,370 L-92,358 L-90,358 L-90,354 L-88,354 L-88,350 L-86,350 L-86,338 L-84,338 L-84,332 L-82,332 L-82,324 L-80,324 L-80,322 L-78,322 L-78,312 L-76,312 L-76,308 L-74,308 L-74,294 L-72,294 L-72,278 L-70,278 L-70,274 L-64,274 L-63,269 L-60,268 L-60,262 L-62,262 L-62,260 L-60,260 L-60,254 L-58,254 L-58,224 L-62,222 L-62,220 L-74,220 L-74,212 L-78,212 L-80,207 L-82,206 L-80,200 L-82,200 L-82,196 L-86,196 L-86,192 L-88,192 L-88,186 L-90,186 L-90,180 L-92,180 L-92,172 L-96,172 L-96,168 L-98,168 L-100,161 L-106,156 L-108,151 L-110,150 L-110,146 L-112,146 L-112,136 L-114,136 L-114,132 L-116,132 L-116,126 L-120,126 L-120,120 L-122,120 L-122,114 L-114,106 L-112,106 L-112,104 L-110,104 L-110,98 L-104,98 L-104,96 L-102,96 L-102,92 L-100,92 L-100,90 L-92,90 L-88,95 L-86,96 L-86,88 L-84,88 L-84,86 L-82,86 L-82,82 L-80,82 L-80,80 L-78,80 L-78,74 L-74,74 L-74,66 L-72,66 L-72,62 L-66,62 L-66,64 L-64,64 L-62,60 L-58,58 L-58,54 L-56,54 L-55,49 L-52,48 L-52,46 L-50,46 L-50,38 L-46,36 L-46,34 L-44,34 L-44,32 L-38,32 L-38,30 L-34,30 L-34,28 L-32,28 L-31,23 L-28,22 L-28,20 L-26,20 L-26,12 L-22,10 L-22,8 L-10,8 L-10,6 L-6,6 L-6,4 L-4,4 L-4,2 L0,2 Z " fill="#988BD8" transform="translate(454,258)"/>
<path d="M0,0 L16,0 L16,2 L28,2 L30,5 L40,6 L42,9 L46,10 L46,12 L50,12 L50,16 L52,16 L52,18 L58,18 L58,14 L62,14 L62,18 L64,18 L64,24 L66,24 L66,32 L68,32 L68,36 L70,36 L70,44 L68,44 L68,48 L72,48 L72,52 L76,54 L78,57 L82,58 L82,60 L88,60 L88,62 L90,62 L90,70 L92,70 L92,72 L96,72 L96,74 L100,74 L100,76 L102,76 L102,80 L106,82 L108,85 L114,86 L114,96 L116,96 L116,98 L122,98 L124,101 L128,102 L128,106 L134,106 L134,108 L138,108 L138,110 L150,110 L150,112 L154,112 L154,116 L156,116 L156,120 L158,120 L158,124 L162,124 L162,126 L168,126 L168,124 L170,124 L170,122 L172,122 L172,116 L174,116 L174,112 L176,112 L176,110 L186,110 L186,112 L190,112 L194,116 L194,120 L196,120 L196,124 L200,124 L200,126 L202,126 L202,139 L204,138 L212,138 L216,142 L216,148 L214,148 L214,150 L208,150 L208,148 L204,148 L204,142 L202,142 L202,156 L200,156 L200,160 L198,160 L198,174 L196,174 L196,182 L194,182 L194,184 L192,184 L192,190 L190,190 L190,210 L188,210 L188,212 L190,212 L190,232 L188,232 L188,252 L190,252 L190,266 L188,266 L188,268 L190,268 L190,270 L188,270 L188,272 L190,272 L190,284 L192,284 L192,292 L190,292 L190,300 L192,300 L192,304 L196,306 L196,308 L198,308 L198,322 L202,322 L204,325 L214,326 L214,332 L216,332 L216,334 L220,334 L220,338 L222,338 L222,340 L224,340 L224,348 L228,348 L228,350 L232,350 L232,352 L240,352 L240,354 L248,354 L248,356 L262,356 L266,361 L268,362 L268,392 L266,392 L266,402 L264,402 L264,408 L262,408 L262,410 L256,410 L256,408 L252,408 L252,410 L250,410 L250,412 L248,412 L248,414 L246,414 L246,420 L242,420 L242,422 L240,422 L240,426 L234,426 L234,428 L232,428 L232,430 L228,430 L228,432 L226,432 L226,434 L221,438 L220,440 L218,440 L218,446 L212,446 L212,448 L210,448 L210,446 L160,446 L160,444 L158,444 L158,438 L152,438 L152,436 L142,436 L142,434 L134,434 L134,432 L128,432 L124,428 L124,430 L122,430 L122,428 L120,428 L120,430 L118,430 L118,428 L116,428 L116,430 L114,430 L114,428 L112,428 L112,430 L110,430 L110,428 L108,428 L108,430 L106,430 L106,426 L110,426 L110,424 L112,424 L112,422 L108,422 L108,418 L106,418 L106,414 L104,414 L104,406 L102,406 L102,402 L100,402 L100,394 L98,394 L98,386 L96,386 L96,382 L94,382 L94,376 L92,376 L92,372 L90,372 L90,366 L88,366 L88,362 L86,362 L86,360 L82,360 L82,358 L74,358 L74,356 L52,356 L52,358 L42,358 L42,360 L38,360 L38,382 L36,382 L36,386 L34,386 L34,384 L30,384 L30,390 L28,390 L28,400 L26,400 L26,406 L24,406 L24,404 L20,404 L20,402 L18,402 L18,398 L16,398 L16,402 L14,402 L14,406 L12,406 L12,408 L10,408 L10,410 L6,410 L6,414 L4,414 L4,416 L2,416 L2,414 L-2,418 L-8,418 L-8,420 L-12,420 L-12,422 L-16,422 L-16,424 L-24,424 L-24,426 L-28,426 L-28,424 L-34,424 L-34,422 L-50,422 L-52,418 L-56,418 L-56,416 L-58,416 L-58,412 L-68,412 L-68,414 L-72,413 L-78,408 L-80,403 L-84,400 L-84,396 L-86,396 L-86,380 L-88,380 L-88,374 L-90,374 L-90,370 L-92,370 L-92,358 L-90,358 L-90,354 L-88,354 L-88,350 L-86,350 L-86,338 L-84,338 L-84,332 L-82,332 L-82,324 L-80,324 L-80,322 L-78,322 L-78,312 L-76,312 L-76,308 L-74,308 L-74,294 L-72,294 L-72,278 L-70,278 L-70,274 L-64,274 L-63,269 L-60,268 L-60,262 L-62,262 L-62,260 L-60,260 L-60,254 L-58,254 L-58,224 L-62,222 L-62,220 L-74,220 L-74,212 L-78,212 L-80,207 L-82,206 L-80,200 L-82,200 L-82,196 L-86,196 L-86,192 L-88,192 L-88,186 L-90,186 L-90,180 L-92,180 L-92,172 L-96,172 L-96,168 L-98,168 L-100,161 L-106,156 L-108,151 L-110,150 L-110,146 L-112,146 L-112,136 L-114,136 L-114,132 L-116,132 L-116,126 L-120,126 L-120,120 L-122,120 L-122,114 L-114,106 L-112,106 L-112,104 L-110,104 L-110,98 L-104,98 L-104,96 L-102,96 L-102,92 L-100,92 L-100,90 L-92,90 L-88,95 L-86,96 L-86,88 L-84,88 L-84,86 L-82,86 L-82,82 L-80,82 L-80,80 L-78,80 L-78,74 L-74,74 L-74,66 L-72,66 L-72,62 L-66,62 L-66,64 L-64,64 L-62,60 L-58,58 L-58,54 L-56,54 L-55,49 L-52,48 L-52,46 L-50,46 L-50,38 L-46,36 L-46,34 L-44,34 L-44,32 L-38,32 L-38,30 L-34,30 L-34,28 L-32,28 L-31,23 L-28,22 L-28,20 L-26,20 L-26,12 L-22,10 L-22,8 L-10,8 L-10,6 L-6,6 L-6,4 L-4,4 L-4,2 L0,2 Z M2,10 L-5,13 L-6,20 L-10,20 L-11,22 L-20,22 L-25,27 L-26,28 L-26,33 L-28,33 L-28,35 L-33,36 L-33,39 L-37,39 L-37,42 L-39,42 L-40,46 L-46,48 L-46,52 L-42,52 L-42,55 L-47,55 L-47,60 L-44,63 L-46,63 L-50,70 L-55,79 L-56,81 L-65,82 L-66,83 L-66,88 L-70,89 L-75,92 L-74,101 L-77,106 L-78,116 L-77,134 L-78,143 L-78,153 L-80,153 L-80,151 L-82,151 L-82,137 L-79,137 L-79,131 L-82,130 L-82,111 L-83,110 L-83,101 L-85,101 L-85,100 L-92,98 L-98,100 L-98,102 L-102,104 L-102,106 L-98,106 L-98,110 L-102,110 L-106,111 L-109,115 L-110,122 L-111,126 L-108,126 L-107,123 L-107,130 L-109,132 L-107,132 L-108,140 L-107,142 L-102,143 L-99,147 L-99,157 L-95,159 L-92,168 L-89,172 L-87,172 L-87,179 L-84,187 L-81,195 L-77,199 L-75,199 L-74,203 L-75,207 L-73,211 L-70,214 L-69,216 L-65,215 L-61,217 L-61,221 L-55,221 L-54,223 L-54,208 L-51,208 L-49,213 L-47,235 L-46,255 L-47,263 L-47,271 L-49,274 L-44,274 L-46,280 L-48,286 L-49,290 L-51,290 L-53,293 L-55,302 L-57,304 L-60,320 L-66,322 L-70,326 L-71,331 L-70,335 L-73,340 L-73,367 L-71,373 L-75,389 L-73,390 L-73,397 L-70,403 L-65,398 L-61,398 L-61,401 L-59,401 L-59,403 L-55,404 L-55,406 L-49,408 L-42,409 L-26,409 L-25,402 L-23,403 L-22,409 L-10,409 L-9,406 L-6,406 L-7,410 L-2,411 L0,406 L4,407 L9,404 L12,398 L14,397 L14,394 L19,394 L19,397 L23,399 L26,387 L26,384 L29,383 L26,382 L26,373 L23,374 L22,372 L26,372 L34,371 L34,358 L41,352 L46,351 L46,347 L48,349 L62,349 L62,347 L70,347 L70,349 L76,350 L75,353 L82,352 L83,355 L87,357 L93,364 L95,370 L99,374 L101,374 L102,383 L102,386 L103,393 L105,399 L106,403 L109,414 L114,421 L116,421 L118,425 L124,426 L125,423 L132,424 L132,426 L134,426 L135,429 L145,432 L158,433 L159,437 L162,437 L163,442 L212,442 L214,441 L214,438 L216,438 L217,434 L222,432 L222,427 L225,426 L228,423 L231,423 L238,420 L240,414 L244,411 L246,409 L244,409 L244,407 L249,405 L251,402 L251,398 L259,399 L260,401 L262,398 L263,392 L263,363 L261,363 L261,361 L255,361 L252,360 L252,362 L246,360 L246,362 L237,361 L234,361 L233,359 L230,360 L220,360 L224,354 L223,350 L218,348 L215,348 L214,351 L214,337 L213,335 L209,334 L201,334 L202,328 L197,325 L196,322 L194,322 L194,310 L188,303 L187,301 L187,291 L188,287 L187,285 L186,275 L185,268 L176,270 L174,271 L174,267 L170,268 L167,268 L162,276 L160,277 L160,275 L163,274 L165,264 L164,260 L163,260 L164,237 L164,221 L165,216 L164,216 L164,206 L165,204 L165,190 L166,192 L167,198 L167,206 L166,211 L167,217 L165,226 L168,226 L168,222 L176,222 L175,230 L177,235 L175,237 L175,249 L181,249 L182,251 L184,251 L185,232 L186,230 L186,215 L185,210 L186,209 L187,189 L189,181 L191,181 L191,162 L193,160 L193,157 L197,156 L199,142 L200,140 L198,140 L198,132 L197,128 L194,125 L192,125 L190,119 L186,115 L180,114 L178,116 L176,121 L172,128 L160,130 L157,134 L158,138 L156,140 L156,142 L158,142 L159,146 L158,145 L154,149 L152,156 L151,130 L153,130 L152,125 L146,124 L137,125 L137,123 L129,123 L129,118 L124,118 L124,116 L122,116 L122,114 L120,114 L119,111 L116,111 L114,114 L111,113 L111,111 L106,111 L102,111 L99,111 L98,104 L95,98 L94,97 L89,97 L90,89 L82,89 L81,88 L86,86 L86,82 L78,81 L76,79 L82,78 L83,75 L77,73 L75,68 L71,67 L69,61 L68,57 L65,57 L65,54 L58,52 L53,49 L51,49 L50,38 L48,38 L47,33 L45,26 L43,23 L41,23 L39,17 L37,14 L32,14 L30,12 L25,12 L25,10 Z M192,317 Z " fill="#8880B4" transform="translate(454,258)"/>
<path d="M0,0 L12,0 L12,2 L16,2 L16,6 L18,6 L18,10 L20,10 L20,14 L24,14 L24,16 L30,16 L30,14 L32,14 L32,12 L34,12 L34,6 L36,6 L36,2 L38,2 L38,0 L48,0 L48,2 L52,2 L56,6 L56,10 L58,10 L58,14 L62,14 L62,16 L64,16 L64,29 L66,28 L74,28 L78,32 L78,38 L76,38 L76,40 L70,40 L70,38 L66,38 L66,32 L64,32 L64,46 L62,46 L62,50 L60,50 L60,64 L58,64 L58,72 L56,72 L56,74 L54,74 L54,80 L52,80 L52,100 L50,100 L50,102 L52,102 L52,122 L50,122 L50,142 L52,142 L52,156 L50,156 L50,158 L52,158 L52,160 L50,160 L50,162 L52,162 L52,174 L54,174 L54,182 L52,182 L52,190 L54,190 L54,194 L58,196 L58,198 L60,198 L60,212 L64,212 L66,215 L76,216 L76,222 L78,222 L78,224 L82,224 L82,228 L84,228 L84,230 L86,230 L86,238 L90,238 L90,240 L94,240 L94,242 L102,242 L102,244 L110,244 L110,246 L124,246 L128,251 L130,252 L130,282 L128,282 L128,292 L126,292 L126,298 L124,298 L124,300 L118,300 L118,298 L114,298 L114,300 L112,300 L112,302 L110,302 L110,304 L108,304 L108,310 L104,310 L104,312 L102,312 L102,316 L96,316 L96,318 L94,318 L94,320 L90,320 L90,322 L88,322 L88,324 L83,328 L82,330 L80,330 L80,336 L74,336 L74,338 L72,338 L72,336 L22,336 L22,334 L20,334 L20,328 L14,328 L14,326 L4,326 L4,324 L-4,324 L-4,322 L-10,322 L-14,318 L-14,320 L-16,320 L-16,318 L-18,318 L-18,320 L-20,320 L-20,318 L-22,318 L-22,320 L-24,320 L-24,318 L-26,318 L-26,320 L-28,320 L-28,318 L-30,318 L-30,320 L-32,320 L-32,316 L-28,316 L-28,314 L-26,314 L-26,312 L-30,312 L-30,308 L-32,308 L-32,304 L-34,304 L-34,296 L-36,296 L-36,292 L-38,292 L-38,284 L-40,284 L-40,276 L-42,276 L-42,272 L-44,272 L-44,266 L-46,266 L-46,262 L-48,262 L-48,256 L-50,256 L-50,252 L-52,252 L-52,250 L-56,250 L-56,248 L-64,248 L-64,246 L-86,246 L-86,248 L-96,248 L-96,250 L-100,250 L-100,272 L-102,272 L-102,276 L-104,276 L-104,274 L-108,274 L-108,280 L-110,280 L-110,290 L-112,290 L-112,296 L-114,296 L-114,294 L-118,294 L-118,292 L-120,292 L-120,288 L-122,288 L-122,292 L-124,292 L-124,296 L-126,296 L-126,298 L-128,298 L-128,300 L-132,300 L-132,304 L-134,304 L-134,306 L-136,306 L-136,304 L-140,308 L-146,308 L-146,310 L-150,310 L-150,312 L-154,312 L-154,314 L-162,314 L-162,316 L-166,315 L-163,315 L-163,313 L-165,312 L-163,312 L-163,310 L-154,310 L-151,311 L-151,309 L-154,309 L-154,304 L-147,301 L-146,300 L-141,300 L-138,296 L-131,295 L-128,291 L-126,287 L-124,287 L-124,284 L-119,284 L-119,287 L-115,287 L-113,277 L-112,274 L-110,273 L-113,270 L-112,263 L-116,265 L-116,262 L-112,260 L-112,262 L-106,260 L-104,261 L-104,249 L-106,248 L-104,248 L-103,246 L-97,241 L-92,241 L-92,237 L-89,238 L-76,239 L-76,237 L-68,236 L-67,238 L-61,239 L-63,243 L-56,242 L-55,244 L-52,244 L-44,254 L-43,260 L-40,261 L-39,263 L-36,263 L-35,273 L-35,276 L-34,283 L-32,289 L-31,293 L-28,304 L-24,310 L-20,314 L-15,315 L-14,312 L-8,312 L-8,314 L-6,314 L-6,316 L-4,316 L-1,319 L15,322 L20,322 L22,326 L24,327 L25,331 L76,331 L76,328 L78,328 L79,324 L83,322 L84,317 L87,314 L89,312 L93,311 L96,311 L100,309 L102,302 L104,302 L105,300 L106,297 L108,297 L109,295 L112,292 L113,288 L122,288 L122,290 L124,282 L124,255 L125,253 L123,253 L123,251 L116,252 L116,250 L114,250 L114,252 L110,251 L108,250 L108,252 L99,252 L95,250 L92,251 L82,251 L82,248 L84,248 L85,240 L77,238 L78,241 L76,241 L75,225 L65,225 L63,224 L63,221 L61,220 L64,220 L61,217 L58,215 L58,212 L56,212 L55,205 L55,200 L49,193 L48,191 L48,181 L49,177 L48,175 L47,165 L46,160 L47,158 L38,161 L36,161 L36,157 L31,159 L29,159 L27,165 L22,167 L22,165 L24,164 L26,151 L24,152 L25,127 L25,111 L26,107 L25,107 L25,96 L26,94 L26,84 L27,80 L29,81 L30,88 L30,96 L29,101 L30,107 L27,116 L30,116 L30,112 L38,111 L39,115 L37,120 L39,121 L38,124 L40,125 L38,127 L38,138 L43,138 L44,141 L46,141 L46,122 L47,120 L47,105 L46,100 L47,99 L48,79 L51,71 L53,71 L52,55 L53,51 L55,47 L58,46 L60,32 L60,30 L59,18 L56,17 L56,15 L54,15 L50,7 L45,5 L41,6 L39,11 L35,19 L22,21 L20,24 L21,29 L19,31 L22,37 L15,36 L14,28 L14,22 L17,21 L17,16 L19,11 L17,11 L16,13 L17,7 L15,7 L15,11 L12,10 L11,6 L15,5 L15,3 L12,4 L2,4 L2,3 L11,3 L11,1 L0,1 Z M54,207 Z " fill="#7C6DBA" transform="translate(592,368)"/>
<path d="M0,0 L16,0 L16,2 L28,2 L30,5 L40,6 L42,9 L46,10 L46,12 L50,12 L50,16 L52,16 L52,18 L58,18 L58,14 L62,14 L62,18 L64,18 L64,24 L66,24 L66,32 L68,32 L68,36 L70,36 L70,44 L68,44 L68,48 L72,48 L72,52 L76,54 L78,57 L82,58 L82,60 L88,60 L88,62 L90,62 L90,70 L92,70 L92,72 L96,72 L96,74 L100,74 L100,76 L102,76 L102,80 L106,82 L108,85 L114,86 L114,96 L116,96 L116,98 L122,98 L124,101 L128,102 L128,106 L134,106 L134,108 L138,108 L138,111 L149,111 L150,113 L153,113 L153,115 L150,116 L151,120 L153,121 L153,117 L155,117 L155,121 L157,121 L156,131 L153,133 L153,146 L156,147 L154,154 L151,157 L151,148 L150,133 L151,130 L153,130 L152,126 L146,125 L137,125 L137,123 L129,123 L129,118 L124,118 L124,116 L122,116 L122,114 L120,114 L119,112 L116,111 L115,115 L111,113 L111,111 L106,112 L102,112 L99,111 L95,99 L89,97 L90,89 L82,90 L80,88 L86,85 L86,83 L78,82 L75,78 L80,77 L82,78 L82,76 L77,74 L75,71 L75,68 L71,69 L69,66 L68,57 L65,57 L65,54 L59,54 L51,49 L50,45 L50,38 L48,38 L44,26 L43,23 L41,23 L37,16 L37,14 L32,15 L30,13 L25,12 L25,10 L2,11 L-5,13 L-6,20 L-10,20 L-11,23 L-20,23 L-25,28 L-26,33 L-28,33 L-28,35 L-33,36 L-33,39 L-37,39 L-37,42 L-39,42 L-40,47 L-45,48 L-46,52 L-42,52 L-42,55 L-47,55 L-46,60 L-44,60 L-44,63 L-46,63 L-48,67 L-52,75 L-56,82 L-65,83 L-66,88 L-74,92 L-73,101 L-76,106 L-77,116 L-76,134 L-77,143 L-77,150 L-78,153 L-80,153 L-80,151 L-82,151 L-82,137 L-79,137 L-80,131 L-82,130 L-83,125 L-83,115 L-82,111 L-84,110 L-84,102 L-86,103 L-86,101 L-90,99 L-86,97 L-82,97 L-78,87 L-72,79 L-62,80 L-62,75 L-58,72 L-55,72 L-54,66 L-52,66 L-52,58 L-53,57 L-53,51 L-51,51 L-50,38 L-46,36 L-46,34 L-44,34 L-44,32 L-38,32 L-38,30 L-34,30 L-34,28 L-32,28 L-31,23 L-28,22 L-28,20 L-26,20 L-26,12 L-22,10 L-22,8 L-10,8 L-10,6 L-6,6 L-6,4 L-4,4 L-4,2 L0,2 Z " fill="#9D8AC5" transform="translate(454,258)"/>
<path d="M0,0 L3,1 L3,2 L9,3 L7,7 L14,6 L15,8 L18,8 L26,18 L27,24 L30,25 L31,27 L34,27 L35,37 L35,40 L36,47 L38,53 L39,57 L42,68 L46,74 L50,78 L55,79 L56,76 L62,76 L62,78 L64,78 L64,80 L66,80 L69,83 L85,86 L90,86 L92,90 L94,91 L95,95 L146,95 L146,92 L148,92 L149,88 L153,86 L154,81 L157,78 L159,76 L163,75 L166,75 L170,73 L172,66 L174,66 L175,64 L176,61 L178,61 L179,59 L182,56 L183,52 L192,52 L192,54 L194,46 L195,40 L196,17 L197,17 L197,45 L199,45 L199,16 L200,16 L200,46 L198,46 L198,56 L196,56 L196,62 L194,62 L194,64 L188,64 L188,62 L184,62 L184,64 L182,64 L182,66 L180,66 L180,68 L178,68 L178,74 L174,74 L174,76 L172,76 L172,80 L166,80 L166,82 L164,82 L164,84 L160,84 L160,86 L158,86 L158,88 L153,92 L152,94 L150,94 L150,100 L144,100 L144,102 L142,102 L142,100 L92,100 L92,98 L90,98 L90,92 L84,92 L84,90 L74,90 L74,88 L66,88 L66,86 L60,86 L56,82 L56,84 L54,84 L54,82 L52,82 L52,84 L50,84 L50,82 L48,82 L48,84 L46,84 L46,82 L44,82 L44,84 L42,84 L42,82 L40,82 L40,84 L38,84 L38,80 L42,80 L42,78 L44,78 L44,76 L40,76 L40,72 L38,72 L38,68 L36,68 L36,60 L34,60 L34,56 L32,56 L32,48 L30,48 L30,40 L28,40 L28,36 L26,36 L26,30 L24,30 L24,26 L22,26 L22,20 L20,20 L20,16 L18,16 L18,14 L14,14 L14,12 L6,12 L6,10 L-16,10 L-16,12 L-26,12 L-26,14 L-30,14 L-30,36 L-32,36 L-32,40 L-34,40 L-34,38 L-38,38 L-38,44 L-40,44 L-40,54 L-42,54 L-42,60 L-44,60 L-44,58 L-48,58 L-48,56 L-50,56 L-50,52 L-52,52 L-52,56 L-54,56 L-54,60 L-56,60 L-56,62 L-58,62 L-58,64 L-62,64 L-62,68 L-64,68 L-64,70 L-66,70 L-66,68 L-70,72 L-76,72 L-76,74 L-80,74 L-80,76 L-84,76 L-84,78 L-92,78 L-92,80 L-96,79 L-93,79 L-93,77 L-95,76 L-93,76 L-93,74 L-84,74 L-81,75 L-81,73 L-84,73 L-84,68 L-77,65 L-76,64 L-71,64 L-68,60 L-61,59 L-58,55 L-56,51 L-54,51 L-54,48 L-49,48 L-49,51 L-45,51 L-43,41 L-42,38 L-40,37 L-43,34 L-42,27 L-46,29 L-46,26 L-42,24 L-42,26 L-36,24 L-34,25 L-34,13 L-36,12 L-34,12 L-33,10 L-27,5 L-22,5 L-22,1 L-19,2 L-6,3 L-6,1 Z " fill="#6B64AE" transform="translate(522,604)"/>
<path d="M0,0 L10,0 L14,4 L14,2 L16,2 L16,8 L14,8 L14,16 L12,16 L12,20 L26,20 L27,30 L34,32 L34,28 L42,28 L42,32 L44,32 L44,34 L42,34 L42,36 L38,35 L36,34 L36,36 L30,36 L30,38 L32,38 L32,42 L34,42 L36,47 L42,48 L42,46 L52,46 L52,50 L56,50 L56,62 L58,62 L58,60 L60,60 L60,66 L58,66 L62,70 L62,76 L60,76 L60,80 L58,80 L58,82 L54,82 L54,86 L56,86 L56,94 L54,94 L54,98 L56,98 L55,103 L52,104 L52,102 L54,102 L54,100 L50,100 L50,98 L52,98 L52,94 L48,94 L48,92 L42,92 L40,85 L38,84 L38,80 L36,80 L36,76 L32,76 L32,74 L30,74 L30,72 L22,72 L18,68 L18,62 L16,62 L16,56 L18,56 L18,54 L16,54 L16,50 L14,50 L14,46 L10,44 L11,36 L8,34 L8,30 L6,30 L4,25 L2,24 L2,20 L6,21 L6,23 L8,23 L6,19 L0,14 L0,6 L-2,6 L-2,4 L0,4 Z " fill="#100720" transform="translate(742,412)"/>
<path d="M0,0 L2,2 L2,11 L0,13 L4,14 L4,12 L6,13 L2,22 L1,26 L-1,30 L-3,30 L-6,42 L-8,44 L-11,60 L-19,64 L-22,69 L-21,75 L-24,80 L-24,107 L-22,113 L-23,119 L-25,119 L-26,129 L-24,129 L-24,137 L-22,142 L-17,137 L-13,138 L-13,141 L-11,141 L-11,143 L-5,143 L-7,144 L-7,146 L-1,147 L22,149 L23,142 L26,143 L27,148 L38,148 L39,146 L42,146 L41,150 L36,154 L32,154 L32,159 L35,159 L35,161 L23,160 L23,165 L14,164 L14,162 L-2,162 L-4,158 L-8,158 L-8,156 L-10,156 L-10,152 L-20,152 L-20,154 L-24,153 L-30,148 L-32,143 L-36,140 L-36,136 L-38,136 L-38,120 L-40,120 L-41,110 L-38,111 L-39,99 L-41,98 L-41,95 L-39,94 L-39,91 L-37,91 L-36,93 L-32,88 L-30,88 L-30,86 L-28,86 L-26,66 L-25,62 L-23,62 L-22,56 L-17,54 L-13,52 L-11,44 L-10,38 L-8,37 L-6,26 L-3,26 L-4,20 L-2,20 L-2,11 L0,11 Z " fill="#8885CA" transform="translate(406,518)"/>
<path d="M0,0 L23,0 L23,2 L28,2 L32,4 L35,4 L39,11 L39,13 L41,13 L44,18 L46,24 L46,28 L48,28 L49,39 L54,41 L57,43 L63,44 L63,47 L66,47 L68,57 L64,59 L61,58 L65,52 L60,50 L57,49 L54,50 L53,48 L49,48 L47,42 L45,42 L44,48 L46,49 L43,50 L42,52 L38,51 L38,48 L37,44 L35,43 L37,43 L34,23 L34,21 L36,20 L36,16 L27,15 L26,17 L19,16 L4,16 L0,18 L0,16 L-3,16 L-4,23 L-6,27 L0,26 L0,24 L2,25 L2,30 L1,34 L1,37 L-2,36 L-1,31 L-7,34 L-12,35 L-14,28 L-16,27 L-23,27 L-26,31 L-27,33 L-27,43 L-28,45 L-22,44 L-22,46 L-16,44 L-18,48 L-14,47 L-14,50 L-22,50 L-27,47 L-28,54 L-29,58 L-30,58 L-30,50 L-35,48 L-36,44 L-38,47 L-38,45 L-44,45 L-44,42 L-48,42 L-47,37 L-42,36 L-41,32 L-39,32 L-39,29 L-35,29 L-35,26 L-30,25 L-30,23 L-28,23 L-28,18 L-23,13 L-18,12 L-13,12 L-12,10 L-8,10 L-7,3 Z M-14,26 Z M-1,18 Z M36,48 Z M60,59 Z " fill="#A692D1" transform="translate(456,268)"/>
<path d="M0,0 L16,0 L16,2 L28,2 L30,5 L40,6 L42,9 L46,11 L41,13 L42,15 L38,14 L37,13 L25,12 L25,10 L2,11 L-5,13 L-6,20 L-10,20 L-11,23 L-20,23 L-25,28 L-26,33 L-28,33 L-28,35 L-33,36 L-33,39 L-37,39 L-37,42 L-39,42 L-40,47 L-45,48 L-46,52 L-42,52 L-42,55 L-47,55 L-46,60 L-44,60 L-44,63 L-46,63 L-48,67 L-52,75 L-56,82 L-65,83 L-66,88 L-74,92 L-73,101 L-76,106 L-77,116 L-76,134 L-77,143 L-77,150 L-78,153 L-80,153 L-80,151 L-82,151 L-82,137 L-79,137 L-80,131 L-82,130 L-83,125 L-83,115 L-82,111 L-84,110 L-84,102 L-86,103 L-86,101 L-90,99 L-86,97 L-82,97 L-78,87 L-72,79 L-62,80 L-62,75 L-58,72 L-55,72 L-54,66 L-52,66 L-52,58 L-53,57 L-53,51 L-51,51 L-50,38 L-46,36 L-46,34 L-44,34 L-44,32 L-38,32 L-38,30 L-34,30 L-34,28 L-32,28 L-31,23 L-28,22 L-28,20 L-26,20 L-26,12 L-22,10 L-22,8 L-10,8 L-10,6 L-6,6 L-6,4 L-4,4 L-4,2 L0,2 Z " fill="#9E8EC4" transform="translate(454,258)"/>
<path d="M0,0 L8,0 L8,2 L12,2 L12,4 L16,4 L16,6 L34,6 L34,8 L36,8 L36,12 L38,12 L38,16 L40,16 L40,12 L42,12 L42,10 L48,10 L48,12 L50,12 L50,14 L52,14 L52,30 L54,30 L54,62 L56,62 L56,76 L54,76 L54,78 L50,76 L50,74 L45,73 L44,70 L40,70 L40,66 L38,66 L38,58 L40,58 L40,42 L38,42 L38,40 L34,40 L34,44 L32,44 L31,40 L26,40 L27,34 L30,34 L32,37 L36,38 L36,36 L38,36 L38,34 L40,34 L38,27 L36,26 L36,22 L28,22 L28,26 L26,26 L26,24 L24,24 L24,18 L22,18 L22,16 L6,16 L6,18 L4,18 L4,24 L0,24 L0,22 L-4,22 L-4,18 L-6,18 L-6,16 L-12,16 L-12,14 L-10,14 L-10,12 L-8,12 L-8,8 L-4,8 L-4,6 L0,6 Z " fill="#110821" transform="translate(668,278)"/>
<path d="M0,0 L5,1 L5,3 L11,3 L11,5 L13,5 L13,13 L15,13 L15,15 L19,15 L19,17 L23,17 L23,19 L25,19 L25,23 L29,25 L31,28 L37,29 L37,39 L39,39 L39,41 L45,41 L47,44 L51,45 L51,49 L57,49 L57,51 L61,51 L61,54 L72,54 L73,56 L76,56 L76,58 L73,59 L74,63 L76,64 L76,60 L78,60 L78,64 L80,64 L79,74 L76,76 L76,89 L79,90 L77,97 L74,100 L74,91 L73,76 L74,73 L76,73 L75,69 L69,68 L60,68 L60,66 L52,66 L52,61 L47,61 L47,59 L45,59 L45,57 L43,57 L42,55 L36,54 L36,52 L31,52 L29,46 L29,42 L26,42 L22,32 L22,30 L20,30 L19,26 L14,26 L12,21 L8,17 L0,15 L0,13 L4,12 L3,9 L0,9 L0,5 L4,4 L4,2 L-1,3 Z " fill="#9577C0" transform="translate(531,315)"/>
<path d="M0,0 L2,0 L2,2 L7,2 L10,4 L10,2 L12,2 L12,4 L16,4 L16,6 L20,6 L20,8 L24,8 L24,10 L26,10 L26,14 L28,14 L28,18 L26,18 L26,22 L52,22 L52,24 L62,24 L62,26 L68,26 L68,28 L72,28 L72,30 L76,30 L76,32 L78,32 L78,36 L80,36 L80,40 L78,40 L78,42 L71,43 L68,44 L68,42 L66,42 L66,38 L56,38 L54,34 L40,34 L40,32 L38,32 L38,34 L30,34 L30,32 L28,32 L28,34 L25,34 L26,28 L24,28 L24,32 L22,32 L22,34 L18,34 L18,36 L16,36 L16,34 L12,34 L12,32 L10,32 L10,30 L14,30 L14,26 L16,26 L16,28 L18,28 L18,22 L12,24 L12,21 L14,21 L14,18 L8,18 L6,14 L2,14 L2,8 L-2,8 L-2,4 L0,4 Z " fill="#120821" transform="translate(578,234)"/>
<path d="M0,0 L2,1 L1,4 L4,4 L4,12 L1,12 L2,18 L4,19 L4,14 L7,14 L8,18 L5,39 L1,44 L-3,48 L-7,48 L-7,51 L-13,53 L-14,56 L-15,60 L-17,63 L-19,63 L-20,66 L-24,66 L-26,70 L-27,74 L-33,79 L-38,76 L-44,77 L-46,72 L-41,71 L-40,66 L-38,66 L-38,62 L-40,61 L-32,59 L-30,56 L-31,53 L-32,48 L-30,48 L-29,46 L-26,47 L-26,44 L-22,45 L-20,44 L-18,45 L-17,39 L-10,39 L-6,38 L-6,18 L-4,12 L-1,12 L-1,1 Z " fill="#9F92E2" transform="translate(572,468)"/>
<path d="M0,0 L1,0 L1,30 L3,30 L3,10 L4,10 L4,31 L2,36 L1,36 L1,31 L-1,31 L0,38 L-1,44 L1,44 L1,47 L-1,47 L-2,51 L-2,62 L-3,80 L-4,84 L-8,85 L-8,87 L-11,88 L-13,98 L-15,98 L-17,120 L-18,122 L-20,122 L-20,124 L-25,129 L-27,130 L-27,127 L-29,127 L-28,133 L-29,131 L-31,131 L-31,134 L-28,135 L-27,147 L-29,149 L-29,146 L-31,146 L-32,150 L-32,146 L-34,146 L-34,134 L-32,134 L-32,130 L-30,130 L-30,126 L-28,126 L-28,114 L-26,114 L-26,108 L-24,108 L-24,100 L-22,100 L-22,98 L-20,98 L-20,88 L-18,88 L-18,84 L-16,84 L-16,70 L-14,70 L-14,54 L-12,54 L-12,50 L-6,50 L-5,45 L-2,44 L-2,38 L-4,38 L-4,36 L-2,36 L-2,30 L0,30 Z " fill="#7D7CBD" transform="translate(396,482)"/>
<path d="M0,0 L3,1 L3,2 L9,3 L8,5 L6,5 L6,9 L-16,9 L-16,12 L-26,12 L-26,14 L-30,14 L-30,36 L-32,36 L-32,40 L-34,40 L-34,38 L-38,38 L-38,44 L-40,44 L-40,54 L-42,54 L-42,60 L-44,60 L-44,58 L-48,58 L-48,56 L-50,56 L-50,52 L-52,52 L-52,56 L-54,56 L-54,60 L-56,60 L-56,62 L-58,62 L-58,64 L-62,64 L-62,68 L-64,68 L-64,70 L-66,70 L-66,68 L-70,72 L-76,72 L-76,74 L-80,74 L-80,76 L-84,76 L-84,78 L-92,78 L-92,80 L-96,79 L-93,79 L-93,77 L-95,76 L-93,76 L-93,74 L-84,74 L-81,75 L-81,73 L-84,73 L-84,68 L-77,65 L-76,64 L-71,64 L-68,60 L-61,59 L-58,55 L-56,51 L-54,51 L-54,48 L-49,48 L-49,51 L-45,51 L-43,41 L-42,38 L-40,37 L-43,34 L-42,27 L-46,29 L-46,26 L-42,24 L-42,26 L-36,24 L-34,25 L-34,13 L-36,12 L-34,12 L-33,10 L-27,5 L-22,5 L-22,1 L-19,2 L-6,3 L-6,1 Z " fill="#7670AD" transform="translate(522,604)"/>
<path d="M0,0 L2,0 L2,3 L6,3 L6,14 L8,14 L8,24 L10,24 L10,38 L8,38 L8,46 L6,46 L6,50 L4,50 L4,58 L2,58 L2,62 L0,62 L0,64 L-2,64 L-2,68 L-4,68 L-4,72 L-12,72 L-14,66 L-12,66 L-12,58 L-10,58 L-11,43 L-11,39 L-8,38 L-8,34 L-6,34 L-6,32 L-4,32 L-4,12 L-2,12 L-2,8 L0,8 Z " fill="#070A1C" transform="translate(768,740)"/>
<path d="M0,0 L1,0 L1,5 L3,5 L3,0 L6,4 L8,11 L7,17 L9,17 L10,10 L12,9 L12,16 L10,16 L11,19 L14,22 L16,32 L23,31 L38,34 L42,35 L62,36 L67,34 L78,34 L79,32 L82,32 L81,36 L76,40 L72,40 L72,45 L75,45 L75,47 L63,46 L63,51 L54,50 L54,48 L38,48 L36,44 L32,44 L32,42 L30,42 L30,38 L20,38 L20,40 L16,39 L10,34 L8,29 L4,26 L4,22 L2,22 L2,6 L0,6 Z " fill="#8C83C1" transform="translate(366,632)"/>
<path d="M0,0 L1,0 L3,8 L5,30 L6,50 L4,55 L3,66 L1,66 L1,75 L0,76 L0,81 L-3,81 L-3,88 L-5,93 L-7,93 L-8,105 L-11,108 L-15,111 L-19,111 L-20,114 L-19,107 L-15,106 L-15,104 L-11,103 L-10,70 L-8,66 L-6,66 L-6,63 L-8,63 L-8,50 L-6,50 L-5,52 L-4,49 L-6,49 L-7,19 L-8,17 L-4,16 L-3,3 L0,3 Z " fill="#8985C9" transform="translate(403,463)"/>
<path d="M0,0 L12,0 L12,2 L16,2 L16,6 L18,6 L18,10 L20,10 L20,14 L24,14 L24,16 L30,16 L30,14 L32,14 L32,12 L34,12 L34,6 L36,6 L36,2 L38,2 L38,0 L48,0 L48,2 L52,2 L56,6 L56,10 L58,10 L58,14 L62,14 L62,16 L64,16 L64,29 L66,28 L74,28 L78,32 L78,38 L76,38 L76,40 L70,40 L70,38 L66,38 L66,32 L64,32 L64,46 L62,46 L62,50 L60,50 L60,64 L58,64 L58,72 L53,73 L53,79 L49,79 L50,73 L51,71 L53,71 L52,55 L53,51 L55,47 L58,46 L60,32 L60,30 L59,18 L56,17 L56,15 L54,15 L50,7 L45,5 L41,6 L39,11 L35,19 L22,21 L20,24 L21,29 L19,31 L22,37 L15,36 L14,28 L14,22 L17,21 L17,16 L19,11 L17,11 L16,13 L17,7 L15,7 L15,11 L12,10 L11,6 L15,5 L15,3 L12,4 L2,4 L2,3 L11,3 L11,1 L0,1 Z " fill="#8069AB" transform="translate(592,368)"/>
<path d="M0,0 L7,0 L9,2 L9,4 L11,5 L12,2 L17,2 L17,4 L23,3 L27,4 L28,1 L29,3 L33,2 L34,4 L35,2 L51,3 L51,1 L53,1 L57,5 L59,11 L64,13 L65,17 L60,15 L61,22 L58,27 L61,28 L61,26 L67,28 L67,26 L69,26 L68,30 L69,33 L67,39 L65,35 L62,34 L62,32 L60,34 L58,38 L54,41 L53,39 L53,32 L56,32 L53,26 L53,17 L52,12 L46,12 L42,15 L37,14 L37,18 L31,18 L31,13 L29,13 L29,15 L23,16 L24,13 L22,12 L21,9 L11,9 L7,13 L5,12 L4,5 L0,5 L-5,10 L-7,10 L-9,11 L-9,4 L-7,3 L-5,4 L-5,2 L-3,2 L-3,4 L-1,4 Z M15,1 Z " fill="#B293E1" transform="translate(513,380)"/>
<path d="M0,0 L2,2 L2,7 L6,7 L7,17 L10,20 L11,37 L12,45 L13,60 L15,60 L15,62 L17,62 L18,73 L20,73 L20,76 L22,76 L24,85 L24,98 L22,101 L16,102 L16,100 L14,100 L13,82 L11,60 L9,55 L6,55 L6,47 L3,48 L2,50 L0,50 L0,42 L-2,42 L-3,34 L-1,31 L0,10 Z " fill="#918ACF" transform="translate(394,411)"/>
<path d="M0,0 L2,1 L3,8 L3,16 L2,21 L3,27 L0,36 L3,36 L3,32 L11,31 L12,35 L10,40 L12,41 L11,44 L13,45 L11,47 L11,58 L16,58 L15,61 L13,62 L13,65 L15,65 L15,67 L12,67 L13,76 L15,77 L15,79 L9,81 L9,77 L4,79 L2,79 L0,85 L-5,87 L-5,85 L-3,84 L-1,71 L-3,72 L-2,47 L-2,31 L-1,27 L-2,27 L-2,16 L-1,14 L-1,4 Z " fill="#8373BF" transform="translate(619,448)"/>
<path d="M0,0 L23,0 L23,2 L28,2 L32,4 L35,4 L39,11 L39,13 L41,13 L44,18 L46,24 L46,28 L48,28 L49,39 L47,38 L42,27 L40,19 L40,15 L35,13 L35,9 L30,10 L26,9 L26,4 L17,4 L4,3 L-1,6 L-4,6 L-5,13 L-7,14 L-10,22 L-16,24 L-24,24 L-27,25 L-28,28 L-30,28 L-30,30 L-34,34 L-35,44 L-38,47 L-38,45 L-44,45 L-44,42 L-48,42 L-47,37 L-42,36 L-41,32 L-39,32 L-39,29 L-35,29 L-35,26 L-30,25 L-30,23 L-28,23 L-28,18 L-23,13 L-18,12 L-13,12 L-12,10 L-8,10 L-7,3 Z " fill="#A293C8" transform="translate(456,268)"/>
<path d="M0,0 L2,0 L2,6 L4,6 L5,11 L7,11 L7,14 L5,14 L3,18 L-1,26 L-5,33 L-14,34 L-15,39 L-23,43 L-22,52 L-25,57 L-26,67 L-25,85 L-26,94 L-26,101 L-27,104 L-29,104 L-29,102 L-31,102 L-31,88 L-28,88 L-29,82 L-31,81 L-32,76 L-32,66 L-31,62 L-33,61 L-33,53 L-35,54 L-35,52 L-39,50 L-35,48 L-31,48 L-27,38 L-21,30 L-11,31 L-11,26 L-7,23 L-4,23 L-3,17 L-1,17 L-1,9 L-2,8 L-2,2 L0,2 Z " fill="#958FCC" transform="translate(403,307)"/>
<path d="M0,0 L4,0 L4,4 L6,4 L6,6 L12,6 L12,2 L16,2 L16,6 L18,6 L18,12 L20,12 L20,20 L22,20 L22,24 L24,24 L24,32 L22,32 L22,36 L26,36 L26,40 L29,41 L25,42 L24,40 L25,37 L23,37 L22,41 L12,39 L12,37 L7,36 L6,27 L5,25 L5,17 L6,14 L3,13 L3,11 L1,11 L-1,6 L-3,4 L3,3 L3,1 Z " fill="#9888C0" transform="translate(500,270)"/>
<path d="M0,0 L1,2 L8,1 L9,3 L12,3 L20,13 L21,19 L24,20 L25,22 L28,22 L29,32 L29,35 L30,42 L32,48 L33,52 L36,63 L40,69 L44,73 L49,74 L52,77 L50,77 L50,79 L48,79 L48,77 L46,77 L46,79 L44,79 L44,77 L42,77 L42,79 L40,79 L40,77 L38,77 L38,79 L36,79 L36,77 L34,77 L34,79 L32,79 L32,75 L36,75 L36,73 L38,73 L38,71 L34,71 L34,67 L32,67 L32,63 L30,63 L30,55 L28,55 L28,51 L26,51 L26,43 L24,43 L24,35 L22,35 L22,31 L20,31 L20,25 L18,25 L18,21 L16,21 L16,15 L14,15 L14,11 L12,11 L12,9 L8,9 L8,7 L0,7 L0,5 L-22,5 L-22,4 L0,4 Z " fill="#6D65B2" transform="translate(528,609)"/>
<path d="M0,0 L2,1 L1,5 L-1,5 L1,14 L0,20 L-2,20 L-3,26 L-8,29 L-10,29 L-9,34 L-14,35 L-20,34 L-25,41 L-30,52 L-36,52 L-38,53 L-36,49 L-34,50 L-34,42 L-32,42 L-32,40 L-30,40 L-30,36 L-28,36 L-28,34 L-26,34 L-26,28 L-22,28 L-22,20 L-20,20 L-20,16 L-14,16 L-14,18 L-12,18 L-10,14 L-6,12 L-6,8 L-4,8 L-3,3 L0,2 Z " fill="#887FC3" transform="translate(402,304)"/>
<path d="M0,0 L2,0 L2,3 L8,4 L8,6 L13,6 L12,8 L5,7 L-10,7 L-14,9 L-14,7 L-17,7 L-18,14 L-20,18 L-14,17 L-14,15 L-12,16 L-12,21 L-13,25 L-13,28 L-16,27 L-15,22 L-21,25 L-26,26 L-28,19 L-30,18 L-37,18 L-40,22 L-41,24 L-41,34 L-42,36 L-36,35 L-36,37 L-30,35 L-32,39 L-28,38 L-28,41 L-36,41 L-41,38 L-42,45 L-43,49 L-44,49 L-44,41 L-49,39 L-49,24 L-46,21 L-44,21 L-44,19 L-38,14 L-28,14 L-25,13 L-23,9 L-21,9 L-20,5 L-16,3 L-12,3 L-12,1 L-7,1 L-7,4 L-2,4 L-2,1 Z M-28,17 Z M-15,9 Z " fill="#A89BD1" transform="translate(470,277)"/>
<path d="M0,0 L3,0 L4,27 L-1,33 L-11,36 L-15,39 L-16,42 L-18,42 L-18,44 L-20,44 L-22,49 L-25,50 L-28,53 L-32,54 L-29,56 L-30,61 L-35,61 L-35,64 L-40,65 L-42,60 L-37,59 L-36,54 L-34,54 L-34,50 L-36,49 L-28,47 L-26,44 L-27,41 L-28,36 L-26,36 L-25,34 L-22,35 L-22,32 L-18,33 L-16,32 L-14,33 L-13,27 L-6,27 L-2,26 L-2,6 Z " fill="#A89BEA" transform="translate(568,480)"/>
<path d="M0,0 L3,1 L4,8 L2,11 L4,11 L5,17 L7,27 L6,29 L3,29 L3,36 L4,33 L7,32 L7,34 L10,35 L13,38 L15,40 L12,46 L10,51 L6,51 L5,44 L3,44 L2,47 L1,43 L-1,43 L-4,34 L-6,34 L-7,25 L-11,24 L-11,13 L-10,7 L-5,3 L-7,10 L-8,14 L-8,16 L-2,18 L-2,20 L1,20 L0,5 L-1,2 Z " fill="#A69DEA" transform="translate(454,492)"/>
<path d="M0,0 L2,0 L0,6 L-2,6 L-1,14 L2,14 L2,23 L3,24 L3,34 L5,34 L6,41 L8,41 L8,49 L10,54 L15,49 L19,50 L19,53 L21,53 L21,55 L27,55 L25,56 L25,58 L31,59 L54,61 L55,54 L58,55 L59,59 L58,62 L48,63 L34,62 L20,59 L10,58 L8,58 L5,46 L2,45 L2,42 L4,42 L3,37 L2,41 L1,43 L-1,43 L-2,32 L-7,31 L-7,26 L-9,26 L-9,22 L-6,23 L-7,11 L-9,10 L-9,7 L-7,6 L-7,3 L-5,3 L-4,5 Z " fill="#8D85C3" transform="translate(374,606)"/>
<path d="M0,0 L2,0 L2,3 L6,3 L7,14 L7,24 L6,29 L3,41 L-4,45 L-7,45 L-6,49 L-7,58 L-9,58 L-10,40 L-8,34 L-6,34 L-6,32 L-4,32 L-4,12 L-2,12 L-2,8 L0,8 Z M4,27 Z M3,28 Z " fill="#0A0C24" transform="translate(768,740)"/>
<path d="M0,0 L7,0 L9,2 L9,4 L11,5 L12,2 L17,2 L17,4 L23,3 L27,4 L28,1 L29,3 L33,2 L34,4 L37,4 L39,8 L46,11 L42,15 L37,14 L37,18 L31,18 L31,13 L29,13 L29,15 L23,16 L24,13 L22,12 L21,9 L11,9 L7,13 L5,12 L4,5 L0,5 L-5,10 L-7,10 L-9,11 L-9,4 L-7,3 L-5,4 L-5,2 L-3,2 L-3,4 L-1,4 Z M15,1 Z " fill="#B69CE9" transform="translate(513,380)"/>
<path d="M0,0 L3,1 L5,22 L5,50 L3,50 L-1,62 L-5,72 L-7,75 L-7,65 L-5,61 L-3,61 L-3,58 L-5,58 L-5,45 L-3,45 L-2,47 L-1,44 L-3,44 L-4,14 L-5,12 L-1,11 Z " fill="#837EC0" transform="translate(400,468)"/>
<path d="M0,0 L4,0 L4,4 L6,5 L6,2 L17,3 L17,5 L25,5 L25,7 L39,7 L44,13 L44,42 L42,42 L41,37 L39,33 L39,16 L40,14 L38,14 L38,12 L31,13 L31,11 L29,11 L29,13 L25,12 L23,11 L23,13 L14,13 L10,11 L7,12 L-3,12 L-3,9 L-1,9 Z " fill="#796EC1" transform="translate(677,607)"/>
<path d="M0,0 L5,1 L5,3 L11,3 L11,5 L13,5 L13,13 L15,13 L15,16 L18,16 L19,18 L22,18 L21,27 L26,31 L27,36 L29,37 L31,40 L36,45 L38,49 L38,53 L45,53 L50,54 L50,61 L47,61 L47,59 L45,59 L45,57 L43,57 L42,55 L36,54 L36,52 L31,52 L29,46 L29,42 L26,42 L22,32 L22,30 L20,30 L19,26 L14,26 L12,21 L8,17 L0,15 L0,13 L4,12 L3,9 L0,9 L0,5 L4,4 L4,2 L-1,3 Z " fill="#A084C4" transform="translate(531,315)"/>
<path d="M0,0 L16,0 L16,2 L28,2 L30,5 L40,6 L42,9 L46,11 L41,13 L42,15 L38,14 L37,13 L30,12 L30,10 L16,8 L6,6 L2,7 L2,9 L-6,8 L-9,7 L-9,9 L-6,10 L-21,9 L-21,11 L-10,11 L-11,13 L-22,13 L-22,15 L-24,15 L-25,20 L-26,20 L-26,12 L-22,10 L-22,8 L-10,8 L-10,6 L-6,6 L-6,4 L-4,4 L-4,2 L0,2 Z " fill="#9783C0" transform="translate(454,258)"/>
<path d="M0,0 L14,0 L16,3 L20,4 L20,8 L14,8 L14,12 L4,12 L4,14 L-14,14 L-14,12 L-18,12 L-18,10 L-22,10 L-22,6 L-16,6 L-16,2 L-14,2 L-14,6 L-4,6 L-2,2 L0,2 Z " fill="#1D081D" transform="translate(380,214)"/>
<path d="M0,0 L2,1 L3,8 L3,16 L2,21 L3,27 L0,36 L3,36 L3,32 L7,32 L6,35 L6,64 L4,65 L2,74 L-1,76 L-1,71 L-3,72 L-2,47 L-2,31 L-1,27 L-2,27 L-2,16 L-1,14 L-1,4 Z " fill="#8D78C6" transform="translate(619,448)"/>
<path d="M0,0 L8,0 L11,4 L10,9 L2,10 L2,12 L-2,16 L2,16 L2,20 L0,21 L-2,24 L-2,20 L-5,21 L-8,25 L-9,32 L-10,36 L-8,33 L-7,28 L-6,28 L-6,40 L-7,42 L-7,49 L-9,45 L-12,41 L-15,41 L-15,35 L-13,35 L-13,28 L-11,24 L-9,24 L-8,18 L-7,17 L-11,17 L-10,8 L-4,8 L-4,6 L-2,6 L-2,2 L0,2 Z " fill="#928BC0" transform="translate(354,348)"/>
<path d="M0,0 L3,1 L3,2 L9,3 L8,5 L6,5 L6,9 L-16,9 L-16,12 L-26,12 L-26,14 L-31,14 L-31,35 L-33,35 L-33,30 L-35,30 L-35,27 L-33,27 L-34,14 L-36,12 L-34,12 L-33,10 L-27,5 L-22,5 L-22,1 L-19,2 L-6,3 L-6,1 Z " fill="#766DBE" transform="translate(522,604)"/>
<path d="M0,0 L4,0 L4,2 L8,2 L8,4 L10,4 L10,8 L14,10 L16,13 L22,14 L22,24 L24,24 L24,27 L29,27 L29,33 L32,31 L35,31 L35,35 L33,35 L33,37 L35,37 L35,39 L23,38 L20,30 L15,26 L14,22 L11,21 L9,15 L5,12 L7,3 L0,4 L3,3 L3,1 Z " fill="#997BC0" transform="translate(546,330)"/>
<path d="M0,0 L2,0 L2,2 L4,2 L3,6 L1,11 L2,26 L0,42 L-4,52 L-8,57 L-11,56 L-8,52 L-7,45 L-7,16 L-6,5 L-3,5 L-3,7 L-1,7 Z " fill="#9991DC" transform="translate(427,584)"/>
<path d="M0,0 L4,1 L4,3 L9,4 L13,5 L17,15 L17,17 L20,17 L22,27 L27,27 L27,29 L30,29 L29,33 L25,31 L25,29 L20,30 L16,30 L13,29 L9,17 L3,15 L4,7 L-4,8 L-6,6 L0,3 Z " fill="#A98ED0" transform="translate(540,340)"/>
<path d="M0,0 L2,0 L2,6 L4,6 L5,11 L7,11 L7,14 L5,14 L3,18 L-1,26 L-5,33 L-14,34 L-23,37 L-26,45 L-28,51 L-33,53 L-35,54 L-35,52 L-39,50 L-35,48 L-31,48 L-27,38 L-21,30 L-11,31 L-11,26 L-7,23 L-4,23 L-3,17 L-1,17 L-1,9 L-2,8 L-2,2 L0,2 Z " fill="#8B83C6" transform="translate(403,307)"/>
<path d="M0,0 L6,1 L2,7 L1,10 L3,11 L0,16 L-1,26 L-6,28 L-7,33 L-7,39 L-10,42 L-12,51 L-15,52 L-14,48 L-12,41 L-15,42 L-14,36 L-13,35 L-10,19 L-8,17 L-6,8 L-4,5 L-2,5 Z " fill="#8F8DD4" transform="translate(407,543)"/>
<path d="M0,0 L1,0 L1,13 L-1,13 L-1,16 L1,16 L1,21 L3,21 L3,0 L4,0 L4,22 L2,22 L2,26 L0,26 L0,24 L-4,24 L-4,30 L-6,30 L-6,40 L-8,40 L-8,46 L-10,46 L-10,44 L-14,44 L-14,42 L-16,42 L-16,38 L-18,37 L-16,37 L-15,35 L-15,37 L-11,37 L-9,27 L-8,24 L-6,23 L-9,20 L-8,13 L-12,15 L-12,12 L-8,10 L-8,12 L-2,10 L0,11 Z " fill="#6C64B0" transform="translate(488,618)"/>
<path d="M0,0 L23,0 L23,2 L28,2 L32,4 L35,4 L39,11 L39,13 L41,13 L44,18 L46,24 L46,28 L48,28 L49,39 L47,38 L42,27 L40,19 L40,15 L35,13 L35,9 L30,10 L26,9 L26,4 L17,4 L4,3 L-1,6 L-4,6 L-4,11 L-5,12 L-10,12 L-7,3 Z " fill="#A08CCB" transform="translate(456,268)"/>
<path d="M0,0 L1,0 L1,10 L-1,20 L-3,20 L-3,22 L-8,27 L-10,28 L-10,25 L-12,25 L-11,31 L-12,29 L-14,29 L-14,32 L-11,33 L-10,45 L-12,47 L-12,44 L-14,44 L-15,48 L-15,44 L-17,44 L-17,32 L-15,32 L-15,28 L-13,28 L-13,24 L-11,24 L-11,12 L-8,12 L-8,7 L-6,7 L-6,9 L-4,9 L-4,7 L-1,4 Z " fill="#8681C1" transform="translate(379,584)"/>
<path d="M0,0 L12,0 L12,2 L16,2 L16,6 L18,6 L18,10 L20,10 L20,14 L24,14 L24,16 L30,16 L30,14 L32,14 L32,12 L35,12 L35,7 L37,7 L37,15 L34,19 L22,21 L20,24 L21,29 L19,31 L22,37 L15,36 L14,28 L14,22 L17,21 L17,16 L19,11 L17,11 L16,13 L17,7 L15,7 L15,11 L12,10 L11,6 L15,5 L15,3 L12,4 L2,4 L2,3 L11,3 L11,1 L0,1 Z " fill="#9176C1" transform="translate(592,368)"/>
<path d="M0,0 L2,0 L2,3 L8,4 L8,6 L13,6 L12,8 L5,7 L-10,7 L-14,9 L-14,7 L-17,7 L-18,14 L-20,18 L-14,17 L-14,15 L-12,16 L-12,21 L-13,25 L-13,28 L-16,27 L-15,22 L-21,25 L-26,26 L-28,18 L-25,17 L-24,15 L-22,15 L-21,6 L-16,3 L-12,3 L-12,1 L-7,1 L-7,4 L-2,4 L-2,1 Z M-15,9 Z " fill="#AB98D7" transform="translate(470,277)"/>
<path d="M0,0 L2,1 L1,5 L-1,5 L1,14 L0,20 L-2,20 L-2,16 L-5,18 L-6,22 L-9,22 L-10,25 L-12,25 L-12,27 L-19,28 L-19,21 L-21,21 L-21,29 L-19,30 L-23,35 L-23,29 L-25,29 L-25,34 L-26,34 L-26,28 L-22,28 L-22,20 L-20,20 L-20,16 L-14,16 L-14,18 L-12,18 L-10,14 L-6,12 L-6,8 L-4,8 L-3,3 L0,2 Z " fill="#887DC2" transform="translate(402,304)"/>
<path d="M0,0 L3,0 L2,4 L-3,8 L-7,8 L-7,13 L-4,13 L-4,15 L-16,14 L-16,19 L-19,19 L-19,17 L-24,17 L-24,15 L-22,14 L-24,13 L-25,6 L-24,5 L-13,3 L-8,2 L-1,2 Z " fill="#8781C1" transform="translate(445,664)"/>
<path d="M0,0 L5,0 L5,2 L0,5 L-2,7 L3,8 L3,10 L-6,11 L-11,13 L-11,10 L-18,11 L-21,13 L-24,11 L-34,11 L-36,12 L-36,9 L-30,4 L-9,3 Z M3,7 Z M-22,13 Z " fill="#8C83D5" transform="translate(535,557)"/>
<path d="M0,0 L9,0 L9,5 L12,5 L12,7 L16,7 L16,11 L18,11 L18,13 L20,13 L20,21 L24,21 L24,23 L28,24 L25,24 L25,27 L22,26 L21,24 L23,24 L23,22 L17,23 L11,21 L12,24 L10,24 L9,8 L-1,8 L-3,7 L-3,4 L-5,3 L0,2 Z " fill="#7669B9" transform="translate(658,585)"/>
<path d="M0,0 L2,1 L2,12 L5,12 L6,9 L6,12 L8,12 L10,28 L10,33 L3,31 L2,28 L-2,28 L-2,24 L-4,24 L-4,16 L-2,15 L-1,1 Z " fill="#170A27" transform="translate(710,320)"/>
<path d="M0,0 L3,0 L3,14 L2,18 L0,18 L0,32 L-2,32 L-2,40 L-7,41 L-7,47 L-11,47 L-10,41 L-9,39 L-7,39 L-8,23 L-7,19 L-5,15 L-2,14 Z " fill="#7F6AB1" transform="translate(652,400)"/>
<path d="M0,0 L7,0 L14,1 L19,0 L30,0 L29,3 L22,5 L14,7 L-7,8 L-10,9 L-10,11 L-12,11 L-14,5 L-20,4 L-20,3 L-10,2 L-9,1 Z " fill="#968DDD" transform="translate(512,554)"/>
<path d="M0,0 L2,0 L2,4 L22,4 L22,6 L28,6 L28,8 L34,8 L34,12 L24,12 L24,14 L22,14 L22,12 L20,12 L20,14 L18,14 L18,12 L10,12 L10,10 L8,10 L8,12 L6,12 L6,10 L2,10 L0,5 L-2,4 Z " fill="#726BBB" transform="translate(542,692)"/>
<path d="M0,0 L4,0 L4,2 L12,2 L12,0 L16,0 L16,2 L26,2 L26,4 L30,4 L30,6 L28,6 L28,8 L26,8 L26,10 L20,10 L16,10 L14,10 L14,8 L8,8 L8,10 L6,10 L6,8 L0,8 L-2,4 L-8,4 L-8,2 L0,2 Z " fill="#200A25" transform="translate(492,212)"/>
<path d="M0,0 L1,3 L14,2 L16,5 L24,4 L35,7 L36,11 L41,12 L41,13 L36,13 L36,15 L41,15 L41,16 L35,16 L35,14 L19,14 L17,10 L13,10 L13,8 L11,8 L11,4 L1,4 L1,6 L-2,5 L0,5 L0,3 L-2,2 L0,2 Z " fill="#7E76B1" transform="translate(385,666)"/>
<path d="M0,0 L16,3 L24,5 L24,7 L19,7 L19,5 L-4,6 L-11,8 L-11,11 L-16,11 L-16,13 L-22,13 L-22,11 L-26,12 L-29,15 L-28,8 L-17,7 L-27,6 L-27,4 L-15,4 L-15,2 L-4,4 L-4,2 Z " fill="#9A87C3" transform="translate(460,263)"/>
<path d="M0,0 L2,0 L3,9 L3,20 L5,26 L4,32 L2,32 L1,38 L0,35 L-2,35 L-3,25 L-4,20 L-3,15 L-7,16 L-7,7 L-2,7 L-2,5 L0,5 Z " fill="#9089CB" transform="translate(379,605)"/>
<path d="M0,0 L4,2 L2,2 L2,8 L0,8 L0,28 L-2,28 L-2,30 L0,30 L0,50 L-2,50 L-2,70 L-3,70 L-3,50 L-5,50 L-5,33 L-6,28 L-5,27 L-4,7 L-2,7 L-1,5 L-1,7 L1,7 Z " fill="#7864AC" transform="translate(644,440)"/>
<path d="M0,0 L4,0 L5,7 L8,7 L9,9 L10,6 L13,5 L13,7 L16,8 L19,11 L21,13 L18,19 L16,24 L12,24 L11,17 L9,17 L8,20 L7,16 L5,16 L2,7 L0,7 Z " fill="#A498E7" transform="translate(448,519)"/>
<path d="M0,0 L2,1 L3,7 L2,21 L1,23 L-15,23 L-24,21 L-28,20 L-28,18 L-32,17 L-32,15 L-34,15 L-35,11 L-33,11 L-33,13 L-25,13 L-24,16 L-18,17 L-18,19 L-7,19 L-5,16 L-3,16 L-1,12 L0,8 Z " fill="#958CCE" transform="translate(427,644)"/>
<path d="M0,0 L1,0 L1,8 L-1,8 L-1,16 L1,16 L1,20 L5,22 L5,24 L7,24 L7,38 L11,38 L13,41 L23,42 L23,48 L22,48 L22,43 L13,43 L13,45 L8,43 L5,41 L5,38 L3,38 L2,31 L2,26 L-4,19 L-5,17 L-5,7 L-4,5 L-2,5 L-2,7 L0,7 Z M1,33 Z " fill="#695FA8" transform="translate(645,542)"/>
<path d="M0,0 L6,3 L7,7 L10,7 L10,12 L15,12 L15,14 L17,15 L12,16 L12,18 L20,19 L26,25 L26,29 L31,29 L32,33 L25,31 L24,29 L13,28 L10,24 L15,23 L17,24 L17,22 L12,20 L10,17 L10,14 L6,15 L4,12 L3,3 L0,3 Z " fill="#A08BC5" transform="translate(519,312)"/>
<path d="M0,0 L2,0 L2,2 L4,2 L5,13 L7,13 L7,16 L9,16 L11,25 L11,38 L9,41 L8,32 L3,30 L2,29 L0,12 Z " fill="#928DD1" transform="translate(407,471)"/>
<path d="M0,0 L11,0 L12,7 L8,8 L5,9 L5,11 L3,11 L3,13 L1,14 L1,23 L-1,24 L-4,31 L-7,32 L-8,27 L-6,20 L-1,11 L1,8 L3,8 L0,5 Z M-9,29 Z M-11,30 L-9,31 L-11,32 Z M-12,32 Z " fill="#9489D1" transform="translate(407,313)"/>
<path d="M0,0 L1,3 L2,10 L3,13 L8,8 L12,9 L12,12 L14,12 L14,14 L20,14 L18,15 L18,17 L24,18 L47,20 L48,13 L51,14 L52,18 L51,21 L41,22 L27,21 L13,18 L3,17 L1,17 L-2,7 L-3,3 Z " fill="#8F87C7" transform="translate(381,647)"/>
<path d="M0,0 L6,0 L6,2 L10,2 L10,4 L14,4 L14,6 L16,6 L16,10 L18,10 L18,14 L16,14 L16,16 L9,17 L6,18 L6,16 L4,16 L4,12 L-6,12 L-6,11 L4,11 L4,6 L1,5 L3,2 Z " fill="#0F081F" transform="translate(640,260)"/>
<path d="M0,0 L1,0 L1,11 L-1,17 L-3,17 L-3,23 L-6,26 L-7,29 L-9,49 L-13,55 L-15,57 L-19,57 L-20,60 L-19,53 L-15,52 L-15,50 L-11,49 L-10,27 L-6,14 L-2,5 Z " fill="#8583C5" transform="translate(403,517)"/>
<path d="M0,0 L3,1 L1,2 L-2,10 L-8,12 L-16,12 L-19,13 L-20,16 L-22,16 L-22,18 L-26,22 L-27,32 L-29,31 L-28,20 L-27,18 L-25,18 L-24,15 L-20,12 L-16,4 L-15,3 L-8,3 L-1,1 Z " fill="#A496CC" transform="translate(448,280)"/>
<path d="M0,0 L1,0 L2,6 L1,11 L1,30 L-1,32 L-2,31 L-3,33 L-4,53 L-6,49 L-6,32 L-5,30 L-7,30 L-6,27 L-4,7 L-1,4 Z " fill="#9893DA" transform="translate(400,578)"/>
<path d="M0,0 L2,2 L2,11 L0,13 L4,14 L4,12 L6,13 L2,22 L1,26 L-1,30 L-3,30 L-6,42 L-8,44 L-11,60 L-13,61 L-13,52 L-11,44 L-10,38 L-8,37 L-6,26 L-3,26 L-4,20 L-2,20 L-2,11 L0,11 Z " fill="#8B89CD" transform="translate(406,518)"/>
<path d="M0,0 L2,0 L3,5 L2,10 L4,10 L4,16 L13,17 L14,20 L16,20 L16,22 L19,22 L19,24 L21,24 L24,29 L24,32 L26,32 L26,34 L28,34 L28,38 L32,37 L32,40 L34,40 L34,42 L25,41 L23,34 L21,33 L21,29 L19,29 L19,25 L15,25 L15,23 L13,23 L13,21 L5,21 L1,17 L1,11 L-1,11 L-1,5 L1,5 Z " fill="#150C28" transform="translate(759,463)"/>
<path d="M0,0 L2,0 L6,19 L8,15 L10,16 L10,21 L8,28 L10,29 L7,30 L6,32 L2,31 L2,28 L1,24 L-1,23 L1,23 L-2,3 L-2,1 Z M0,28 Z " fill="#AA97D7" transform="translate(492,288)"/>
<path d="M0,0 L1,3 L3,3 L4,0 L5,3 L9,3 L8,11 L10,14 L13,17 L13,20 L18,18 L18,20 L22,21 L21,25 L25,24 L24,28 L20,26 L20,24 L8,24 L8,16 L4,16 L2,11 L0,10 L2,4 L0,4 Z " fill="#746EA5" transform="translate(372,454)"/>
<path d="M0,0 L2,0 L4,5 L6,8 L7,26 L6,29 L3,30 L2,32 L0,32 L0,24 L-2,24 L-3,16 L-1,13 Z " fill="#8F89C8" transform="translate(394,429)"/>
<path d="M0,0 L4,0 L3,3 L3,32 L1,33 L-1,42 L-4,44 L-3,12 L-3,5 L0,4 Z " fill="#8778C5" transform="translate(622,480)"/>
<path d="M0,0 L2,1 L1,4 L4,4 L4,12 L1,12 L2,18 L1,32 L3,32 L3,39 L0,41 L-3,46 L-8,48 L-14,48 L-15,52 L-20,54 L-19,50 L-15,47 L-10,45 L-5,45 L-3,41 L-1,39 L-1,1 Z " fill="#A496E7" transform="translate(572,468)"/>
<path d="M0,0 L4,0 L4,6 L2,6 L2,22 L0,22 L0,26 L-2,26 L-2,22 L-6,22 L-6,14 L-4,14 L-4,10 L-8,10 L-8,8 L-6,8 L-6,6 L-4,6 L-4,4 L-2,4 Z " fill="#08091A" transform="translate(790,726)"/>
<path d="M0,0 L2,1 L1,3 L3,3 L3,5 L1,5 L-1,9 L-2,8 L-3,10 L-5,9 L-5,11 L-3,11 L-3,13 L-5,13 L-7,17 L-10,17 L-10,20 L-14,21 L-16,20 L-17,25 L-19,26 L-19,19 L-21,19 L-21,26 L-22,26 L-22,18 L-18,16 L-18,14 L-16,14 L-16,12 L-10,12 L-10,10 L-6,10 L-6,8 L-4,8 L-3,3 L0,2 Z " fill="#8A7FAD" transform="translate(426,278)"/>
<path d="M0,0 L1,2 L8,1 L9,3 L12,3 L20,13 L20,21 L18,25 L18,21 L16,21 L16,15 L14,15 L14,11 L12,11 L12,9 L8,9 L8,7 L0,7 L0,5 L-22,5 L-22,4 L0,4 Z " fill="#6B62B3" transform="translate(528,609)"/>
<path d="M0,0 L4,1 L8,8 L7,17 L3,17 L3,15 L-1,15 L-1,11 L-3,11 L-3,9 L-9,9 L-9,7 L-7,7 L-7,5 L-4,5 L-4,2 L0,2 Z " fill="#170D2C" transform="translate(665,285)"/>
<path d="M0,0 L1,0 L2,7 L0,9 L-1,9 L-3,15 L-4,25 L-6,25 L-6,34 L-7,34 L-7,25 L-9,25 L-8,42 L-9,39 L-11,39 L-12,42 L-12,38 L-10,38 L-10,24 L-8,24 L-8,8 L-6,8 L-6,4 L0,4 Z " fill="#7271AD" transform="translate(390,528)"/>
<path d="M0,0 L5,1 L5,3 L11,3 L11,5 L13,5 L13,13 L15,13 L14,15 L12,14 L12,16 L3,16 L0,15 L0,13 L4,12 L3,9 L0,9 L0,5 L4,4 L4,2 L-1,3 Z " fill="#927EB3" transform="translate(531,315)"/>
<path d="M0,0 L2,0 L2,2 L4,2 L4,18 L6,18 L6,50 L8,50 L8,64 L7,64 L7,56 L4,56 L3,50 L5,50 L5,19 L3,19 L3,21 L1,21 L-2,9 Z " fill="#0E051A" transform="translate(716,290)"/>
<path d="M0,0 L6,1 L8,2 L21,3 L21,5 L23,4 L32,4 L33,7 L32,9 L21,9 L20,6 L6,6 L6,4 L4,4 L4,6 L-4,6 L-5,2 L-1,2 Z " fill="#120A23" transform="translate(612,262)"/>
<path d="M0,0 L2,0 L2,2 L7,2 L10,4 L10,2 L12,2 L12,4 L16,4 L16,6 L20,6 L20,8 L24,8 L24,10 L26,10 L26,14 L28,14 L28,18 L26,18 L25,22 L25,11 L23,11 L23,9 L16,12 L16,10 L5,9 L5,7 L-1,5 L-1,7 L2,8 L-2,8 L-2,4 L0,4 Z " fill="#10061D" transform="translate(578,234)"/>
<path d="M0,0 L4,0 L4,2 L8,2 L8,4 L10,4 L10,8 L14,10 L16,13 L22,14 L22,24 L24,24 L23,26 L20,24 L21,15 L16,15 L16,25 L14,26 L14,22 L11,21 L9,15 L5,12 L7,3 L0,4 L3,3 L3,1 Z " fill="#8D71AE" transform="translate(546,330)"/>
<path d="M0,0 L6,0 L6,2 L8,2 L8,4 L10,4 L13,7 L28,10 L28,13 L18,13 L10,12 L10,10 L4,10 L2,5 L0,5 Z " fill="#6D66B0" transform="translate(578,680)"/>
<path d="M0,0 L2,0 L6,10 L6,12 L9,12 L11,22 L16,22 L16,24 L19,24 L18,28 L14,26 L14,24 L9,25 L5,23 L4,13 L2,13 L2,10 L-1,9 Z " fill="#A588CA" transform="translate(551,345)"/>
<path d="M0,0 L2,0 L2,9 L0,9 L0,12 L-7,13 L-7,15 L-15,19 L-22,21 L-26,23 L-27,18 L-25,18 L-24,16 L-21,17 L-21,14 L-17,15 L-15,14 L-13,15 L-12,9 L-5,9 L-1,8 Z " fill="#AC9FEF" transform="translate(567,498)"/>
<path d="M0,0 L12,0 L14,2 L24,3 L26,6 L30,8 L25,10 L26,12 L22,11 L21,10 L14,9 L14,7 L11,7 L11,4 L0,3 Z " fill="#9680C1" transform="translate(470,261)"/>
<path d="M0,0 L2,0 L4,3 L3,8 L-1,15 L-5,23 L-11,23 L-13,24 L-11,20 L-9,21 L-9,13 L-7,13 L-7,11 L-5,11 L-5,7 L-3,7 L-3,5 L0,5 Z " fill="#8780BC" transform="translate(377,333)"/>
<path d="M0,0 L2,0 L3,5 L0,9 L-2,9 L-3,12 L-7,12 L-9,16 L-10,20 L-16,25 L-17,25 L-17,20 L-14,20 L-14,13 L-11,12 L-11,10 L-9,10 L-7,6 L-3,6 L-3,2 L0,2 Z " fill="#9C91E2" transform="translate(555,522)"/>
<path d="M0,0 L2,2 L2,7 L6,7 L7,17 L10,20 L10,25 L8,26 L7,33 L6,33 L4,24 L2,22 L0,14 Z " fill="#948DD0" transform="translate(394,411)"/>
<path d="M0,0 L5,0 L4,3 L2,3 L2,8 L0,8 L0,12 L-2,12 L-2,14 L-4,14 L-4,16 L-8,16 L-8,20 L-10,20 L-10,22 L-12,22 L-12,20 L-15,21 L-16,18 L-12,19 L-12,17 L-14,17 L-13,12 L-7,11 L-4,7 L-2,3 L0,3 Z " fill="#6F68AA" transform="translate(468,652)"/>
<path d="M0,0 L2,0 L2,4 L6,4 L6,6 L2,6 L2,12 L6,12 L6,16 L4,16 L4,18 L2,18 L2,20 L4,20 L4,34 L2,34 L2,36 L0,36 Z " fill="#201237" transform="translate(718,396)"/>
<path d="M0,0 L2,0 L6,4 L6,16 L4,16 L4,18 L-1,17 L-2,14 L-4,14 L-4,12 L-2,12 L-2,2 Z " fill="#0C0A21" transform="translate(304,692)"/>
<path d="M0,0 L1,0 L1,12 L3,12 L4,8 L3,15 L1,16 L1,13 L-1,13 L0,19 L-1,17 L-3,17 L-3,20 L0,21 L1,33 L-1,35 L-1,32 L-3,32 L-4,36 L-4,32 L-6,32 L-6,20 L-4,20 L-4,16 L-2,16 L-2,12 L0,12 Z " fill="#7E76AC" transform="translate(368,596)"/>
<path d="M0,0 L24,0 L24,3 L2,3 L2,6 L-8,6 L-8,8 L-12,7 L-9,7 L-9,5 L-11,4 L-9,4 L-9,2 L0,1 Z " fill="#7068B7" transform="translate(504,610)"/>
<path d="M0,0 L1,0 L2,20 L2,40 L1,55 L-2,56 L-2,54 L0,54 L0,40 L-2,40 L-2,20 L0,20 Z " fill="#0E0C15" transform="translate(644,470)"/>
<path d="M0,0 L1,0 L1,8 L3,9 L4,15 L3,20 L7,21 L7,32 L4,32 L2,23 L2,19 L0,19 L-3,16 L-3,7 L-1,7 L-1,1 Z " fill="#9993D7" transform="translate(414,468)"/>
<path d="M0,0 L1,0 L1,7 L3,7 L3,0 L5,0 L6,7 L9,15 L11,20 L11,23 L13,23 L13,27 L11,27 L11,24 L6,24 L6,20 L4,20 L4,14 L2,14 L2,8 L0,8 Z " fill="#837BB1" transform="translate(362,430)"/>
<path d="M0,0 L6,5 L8,9 L8,13 L15,13 L20,14 L20,21 L17,21 L17,19 L15,19 L15,17 L13,17 L12,15 L6,14 L6,12 L1,12 L-1,6 L-1,2 L-4,1 Z " fill="#A083C6" transform="translate(561,355)"/>
<path d="M0,0 L1,0 L1,30 L-1,30 L-1,40 L-3,40 L-3,46 L-4,46 L-4,40 L-6,40 L-4,24 L-3,1 L-2,1 L-2,29 L0,29 Z " fill="#6960AA" transform="translate(721,620)"/>
<path d="M0,0 L4,1 L2,6 L1,11 L-2,12 L-3,14 L-7,15 L-9,15 L-11,20 L-12,20 L-13,14 L-9,8 L-7,5 L-3,4 L-2,2 L0,2 Z M-7,12 Z M-13,20 Z M-14,21 Z " fill="#948BDD" transform="translate(555,529)"/>
<path d="M0,0 L2,4 L0,9 L-5,15 L-5,16 L-14,16 L-17,15 L-17,13 L-23,13 L-24,9 L-32,9 L-33,4 L-30,5 L-30,7 L-19,8 L-19,12 L-7,12 L-2,6 Z " fill="#978DD3" transform="translate(426,648)"/>
<path d="M0,0 L1,0 L4,25 L6,25 L10,30 L10,36 L6,38 L4,38 L4,36 L2,36 L1,18 L0,11 Z " fill="#8E88CC" transform="translate(406,475)"/>
<path d="M0,0 L2,0 L2,5 L51,5 L51,7 L1,7 L0,6 Z " fill="#7871C3" transform="translate(613,696)"/>
<path d="M0,0 L0,3 L-2,3 L-2,6 L-4,6 L-5,11 L-10,12 L-11,16 L-7,16 L-7,19 L-14,19 L-14,13 L-16,13 L-14,3 L-12,3 L-11,9 L-9,4 L-3,4 L-3,1 Z " fill="#9B92C1" transform="translate(419,294)"/>
<path d="M0,0 L4,0 L4,4 L6,5 L6,2 L9,2 L9,4 L16,4 L16,6 L9,6 L9,8 L11,8 L9,12 L-3,12 L-3,9 L-1,9 Z " fill="#7D6FC0" transform="translate(677,607)"/>
<path d="M0,0 L2,1 L-1,5 L-2,12 L-3,16 L-1,13 L0,8 L1,8 L1,20 L0,22 L0,29 L-2,25 L-5,21 L-8,21 L-8,15 L-6,15 L-6,8 L-4,4 Z " fill="#948DC1" transform="translate(347,368)"/>
<path d="M0,0 L1,4 L3,4 L3,12 L1,12 L1,16 L5,16 L5,20 L8,21 L4,22 L3,20 L4,17 L2,17 L2,20 L-5,18 L-5,10 L-3,10 L-3,4 L0,4 Z " fill="#8879AD" transform="translate(521,290)"/>
<path d="M0,0 L8,0 L8,2 L12,2 L12,4 L16,4 L16,6 L34,6 L34,8 L36,8 L36,12 L38,12 L38,16 L40,16 L40,12 L42,12 L42,10 L48,10 L46,14 L42,16 L37,17 L37,13 L35,13 L34,10 L32,11 L33,7 L15,7 L15,5 L10,6 L11,3 L3,4 L2,2 L0,6 Z " fill="#0B0517" transform="translate(668,278)"/>
<path d="M0,0 L1,0 L1,5 L3,5 L3,0 L6,4 L8,11 L8,25 L7,22 L5,22 L4,26 L4,22 L2,22 L2,6 L0,6 Z " fill="#827AB1" transform="translate(366,632)"/>
<path d="M0,0 L2,3 L9,3 L9,5 L15,3 L13,7 L17,6 L17,9 L9,9 L4,6 L3,13 L2,17 L1,17 L1,9 L-4,7 L-4,1 L0,2 Z " fill="#A398D6" transform="translate(425,309)"/>
<path d="M0,0 L6,1 L4,2 L4,8 L-2,8 L-2,10 L-4,10 L-4,8 L-54,8 L-54,7 L-4,7 L-4,4 L0,3 Z " fill="#5D5898" transform="translate(668,696)"/>
<path d="M0,0 L2,1 L3,7 L2,21 L1,23 L-15,23 L-24,21 L-28,20 L-28,18 L-22,19 L-18,20 L-1,20 L0,8 Z " fill="#928ACA" transform="translate(427,644)"/>
<path d="M0,0 L4,0 L5,7 L8,7 L10,11 L12,11 L12,19 L11,17 L9,17 L8,20 L7,16 L5,16 L2,7 L0,7 Z " fill="#A197E5" transform="translate(448,519)"/>
<path d="M0,0 L4,0 L4,9 L1,14 L-3,21 L-4,21 L-4,7 L-3,3 L0,3 Z " fill="#0E0F2D" transform="translate(769,745)"/>
<path d="M0,0 L8,0 L8,4 L10,4 L10,6 L8,6 L8,8 L4,7 L2,6 L2,8 L-4,8 L-4,10 L-2,10 L-2,14 L0,14 L-1,18 L-1,15 L-3,15 L-3,11 L-5,11 L-5,5 L-7,5 L-6,3 L0,4 Z M-8,5 Z " fill="#0C0218" transform="translate(776,440)"/>
<path d="M0,0 L2,1 L3,7 L9,7 L9,12 L20,12 L21,14 L5,14 L4,17 L2,12 L0,8 L-4,6 L-4,8 L-8,8 L-9,11 L-9,7 L-5,7 L-5,5 L0,5 Z " fill="#140B27" transform="translate(669,279)"/>
<path d="M0,0 L1,3 L7,2 L7,0 L9,1 L9,6 L8,10 L8,13 L5,12 L6,7 L0,10 L-5,11 L-6,5 Z " fill="#B09FDE" transform="translate(449,292)"/>
<path d="M0,0 L4,0 L4,4 L6,4 L6,6 L8,6 L8,14 L12,14 L12,16 L16,17 L13,17 L13,20 L10,19 L9,17 L11,17 L11,15 L5,16 L2,15 Z " fill="#7265B2" transform="translate(670,592)"/>
<path d="M0,0 L2,1 L1,14 L-1,26 L-3,28 L-5,33 L-12,36 L-14,36 L-14,38 L-16,37 L-15,34 L-9,32 L-6,27 L-4,27 L-3,15 L-1,2 Z " fill="#9C8EDD" transform="translate(580,482)"/>
<path d="M0,0 L26,0 L26,2 L36,2 L35,4 L18,4 L18,2 L4,1 L3,5 L1,5 L2,12 L-1,12 L0,6 L-2,5 L0,5 Z " fill="#0E061A" transform="translate(604,256)"/>
<path d="M0,0 L1,4 L4,5 L5,7 L8,7 L9,17 L5,19 L3,19 L3,16 L4,15 L1,15 L1,10 L-1,10 Z " fill="#7168BD" transform="translate(548,624)"/>
<path d="M0,0 L2,0 L2,18 L0,18 L0,20 L-2,20 L-2,14 L-4,14 L-4,4 Z " fill="#1B0F2D" transform="translate(722,360)"/>
<path d="M0,0 L1,4 L-2,4 L-2,8 L-7,10 L-8,12 L-10,12 L-10,14 L-12,15 L-13,22 L-16,23 L-18,25 L-21,23 L-21,21 L-16,20 L-17,16 L-18,14 L-12,12 L-11,9 L-8,9 L-6,4 L-4,4 L-4,2 Z " fill="#A096E6" transform="translate(554,520)"/>
<path d="M0,0 L1,0 L1,30 L3,30 L3,10 L4,10 L4,31 L2,36 L1,36 L1,31 L-1,31 L0,38 L-1,44 L1,44 L1,47 L-1,47 L-1,45 L-5,46 L-4,44 L-2,44 L-2,38 L-4,38 L-4,36 L-2,36 L-2,30 L0,30 Z " fill="#6F6BA3" transform="translate(396,482)"/>
<path d="M0,0 L2,0 L2,18 L1,16 L-5,16 L-5,13 L-9,13 L-8,8 L-3,7 L-2,3 L0,3 Z " fill="#9C92C6" transform="translate(417,297)"/>
<path d="M0,0 L3,0 L3,14 L2,18 L-1,18 L-1,31 L-3,31 L-3,17 L-1,5 Z " fill="#8A73BC" transform="translate(652,400)"/>
<path d="M0,0 L5,0 L3,5 L0,9 L7,9 L6,11 L1,14 L-1,15 L-3,12 L-6,14 L-5,10 L-6,5 L-1,4 Z " fill="#AB9BE9" transform="translate(470,408)"/>
<path d="M0,0 L2,4 L2,16 L1,19 L1,23 L-2,22 L-2,17 L-4,17 L-5,11 L-3,11 L-3,4 L0,4 Z " fill="#9B93D9" transform="translate(425,412)"/>
<path d="M0,0 L7,0 L11,3 L11,9 L9,9 L9,11 L3,11 L3,8 L0,8 L0,3 L3,3 L0,2 Z " fill="#8F77BE" transform="translate(659,397)"/>
<path d="M0,0 L3,0 L3,2 L11,2 L11,4 L14,4 L14,6 L9,7 L8,9 L6,9 L6,7 L0,7 L-2,3 L-8,3 L-8,1 Z " fill="#220C2A" transform="translate(492,213)"/>
<path d="M0,0 L2,0 L3,2 L6,2 L8,6 L15,9 L11,13 L6,12 L4,11 L4,9 L2,9 L-2,5 L-2,1 Z " fill="#B59AE7" transform="translate(544,382)"/>
<path d="M0,0 L8,0 L11,5 L9,5 L9,7 L6,7 L6,5 L3,5 L3,8 L-1,9 L-1,7 L-3,7 L-3,9 L-9,9 L-9,14 L-10,14 L-10,8 L-4,8 L-4,6 L-2,6 L-2,2 L0,2 Z " fill="#7E76AB" transform="translate(354,348)"/>
<path d="M0,0 L16,0 L16,2 L28,2 L28,3 L16,3 L16,5 L0,5 L0,3 L-3,3 L-3,5 L-6,6 L-6,4 L-4,4 L-4,2 L0,2 Z " fill="#8975AB" transform="translate(454,258)"/>
<path d="M0,0 L1,0 L2,11 L2,25 L1,40 L-2,42 L-1,17 L-1,1 Z " fill="#8C7CCA" transform="translate(618,478)"/>
<path d="M0,0 L2,0 L2,5 L10,5 L10,7 L15,7 L12,12 L9,11 L9,8 L7,9 L7,12 L0,12 Z M10,10 Z " fill="#A183CC" transform="translate(581,376)"/>
<path d="M0,0 L10,0 L10,2 L14,2 L13,4 L10,3 L10,5 L4,5 L1,11 L-1,12 L-1,7 L-3,7 L-3,12 L-4,12 L-4,6 L-2,6 L-2,2 L0,2 Z " fill="#8066AF" transform="translate(630,368)"/>
<path d="M0,0 L2,2 L2,11 L1,19 L3,19 L4,23 L-2,31 L-3,27 L-2,21 L-1,4 Z " fill="#948BD5" transform="translate(428,610)"/>
<path d="M0,0 L2,0 L2,8 L-1,12 L-4,13 L-12,13 L-12,11 L-14,10 L-12,10 L-12,8 L-15,7 L-11,7 L-11,9 L-5,9 L-5,7 L-3,7 L-3,5 L0,5 Z " fill="#8068AC" transform="translate(627,375)"/>
<path d="M0,0 L2,0 L2,4 L12,4 L12,5 L4,5 L3,11 L20,11 L20,12 L2,12 L2,10 L-2,10 L-2,8 L-6,8 L-6,4 L0,4 Z " fill="#180714" transform="translate(364,216)"/>
<path d="M0,0 L2,1 L4,8 L5,11 L2,19 L-1,22 L-2,19 L-1,1 Z " fill="#9B94E1" transform="translate(422,588)"/>
<path d="M0,0 L4,0 L4,2 L8,2 L8,4 L10,4 L10,8 L12,8 L12,12 L10,12 L10,14 L2,15 L2,13 L8,12 L4,10 L2,8 L3,1 Z " fill="#0B071B" transform="translate(646,262)"/>
<path d="M0,0 L2,1 L1,5 L0,9 L2,10 L1,13 L3,14 L1,16 L1,27 L6,27 L5,30 L0,31 L-1,34 L-3,34 L-2,27 L-1,1 Z " fill="#8170BA" transform="translate(629,479)"/>
<path d="M0,0 L2,1 L1,3 L3,3 L3,5 L1,5 L-1,9 L-2,8 L-3,10 L-5,9 L-5,11 L-3,11 L-3,13 L-5,13 L-7,17 L-10,17 L-10,20 L-14,21 L-17,19 L-15,19 L-15,17 L-7,15 L-7,13 L-9,13 L-9,11 L-6,11 L-6,8 L-4,8 L-3,3 L0,2 Z " fill="#9A8FBF" transform="translate(426,278)"/>
<path d="M0,0 L4,0 L4,4 L6,4 L6,10 L8,10 L8,18 L7,18 L7,11 L5,11 L5,18 L4,18 L4,11 L2,10 L5,10 L5,5 L1,5 L0,9 L-6,10 L-7,8 L-5,8 L-6,4 L0,4 Z " fill="#8675A8" transform="translate(512,272)"/>
<path d="M0,0 L2,4 L4,5 L3,11 L-1,11 L-1,13 L-3,13 L-3,11 L-7,11 L-7,9 L-9,9 L-9,7 L-5,7 L-5,3 L-3,3 L-3,5 L0,5 Z " fill="#170D29" transform="translate(597,257)"/>
<path d="M0,0 L2,0 L3,5 L5,5 L5,8 L3,8 L1,12 L-3,20 L-7,27 L-9,27 L-7,18 L-4,15 L-2,15 Z " fill="#9085CB" transform="translate(405,313)"/>
<path d="M0,0 L8,0 L7,7 L4,9 L3,12 L0,13 L-2,11 L-2,8 L0,8 Z M0,9 Z " fill="#9E97DD" transform="translate(440,436)"/>
<path d="M0,0 L2,0 L2,2 L7,3 L7,5 L9,5 L9,7 L14,7 L15,11 L8,9 L7,7 L-4,6 L-7,2 L-2,1 L0,2 Z " fill="#A48BCA" transform="translate(536,334)"/>
<path d="M0,0 L1,0 L1,22 L-1,22 L-1,26 L-3,26 L-3,24 L-7,24 L-7,14 L-2,16 L-2,21 L0,21 Z " fill="#5C5597" transform="translate(491,618)"/>
<path d="M0,0 L3,1 L4,8 L2,11 L4,11 L5,17 L6,24 L2,23 L0,8 L-1,2 Z " fill="#B1A6F3" transform="translate(454,492)"/>
<path d="M0,0 L3,1 L0,7 L-1,14 L1,15 L1,20 L2,22 L1,29 L-1,30 L-2,28 L-3,7 L-2,1 Z M-1,20 Z " fill="#856FBB" transform="translate(630,447)"/>
<path d="M0,0 L1,4 L5,6 L5,10 L9,12 L13,16 L13,22 L10,19 L10,17 L6,16 L3,11 L3,9 L1,9 L-1,3 Z " fill="#0E0D13" transform="translate(343,404)"/>
<path d="M0,0 L6,1 L8,2 L19,3 L20,5 L6,5 L4,4 L4,6 L-4,6 L-5,2 L-1,2 Z " fill="#160C27" transform="translate(612,262)"/>
<path d="M0,0 L4,0 L4,6 L10,6 L10,8 L-8,8 L-8,4 L-2,4 Z " fill="#150F2D" transform="translate(708,796)"/>
<path d="M0,0 L1,0 L1,11 L3,11 L3,0 L4,0 L4,32 L2,32 L2,28 L0,28 L0,20 L2,20 L2,12 L0,12 Z " fill="#0E0C16" transform="translate(644,530)"/>
<path d="M0,0 L6,0 L8,3 L12,4 L12,8 L18,8 L18,10 L22,11 L15,14 L11,13 L11,11 L9,11 L9,9 L11,9 L11,5 L5,7 L5,1 L0,1 Z " fill="#8A6EB2" transform="translate(570,356)"/>
<path d="M0,0 L1,0 L2,12 L4,13 L4,20 L-1,18 L-1,16 L-3,16 L-6,10 L-5,7 L-5,9 L-1,9 Z " fill="#9088BE" transform="translate(352,391)"/>
<path d="M0,0 L6,0 L6,2 L8,2 L9,0 L10,4 L3,5 L3,7 L1,7 L1,5 L-1,5 L-1,13 L1,14 L-3,19 L-3,13 L-5,13 L-5,18 L-6,18 L-6,12 L-2,12 L-2,4 L0,4 Z " fill="#7168A6" transform="translate(382,320)"/>
<path d="M0,0 L3,0 L3,8 L1,15 L-2,24 L-6,24 L-3,20 L-1,1 Z " fill="#9D94DF" transform="translate(422,616)"/>
<path d="M0,0 L2,0 L2,5 L0,5 L-1,8 L-3,8 L-3,10 L-10,11 L-10,6 L-8,6 L-8,4 L-3,2 L-1,2 Z " fill="#8178BB" transform="translate(393,321)"/>
<path d="M0,0 L4,0 L4,4 L6,4 L6,7 L8,8 L7,11 L8,13 L10,14 L4,14 L3,11 L1,11 L-1,6 L-3,4 L3,3 L3,1 Z " fill="#9984BE" transform="translate(500,270)"/>
<path d="M0,0 L1,0 L1,5 L4,5 L5,3 L5,6 L3,6 L3,9 L5,9 L6,7 L6,9 L9,10 L10,18 L7,18 L7,26 L6,26 L6,18 L4,18 L4,10 L2,10 L2,6 L0,6 Z " fill="#645CA8" transform="translate(548,634)"/>
<path d="M0,0 L8,0 L8,2 L16,2 L16,4 L30,4 L30,5 L16,5 L16,7 L7,6 L0,4 L0,3 L7,3 L7,1 L0,1 Z " fill="#6A5FA7" transform="translate(686,610)"/>
<path d="M0,0 L5,1 L5,13 L4,16 L2,16 L2,14 L0,14 Z " fill="#8E87C4" transform="translate(372,395)"/>
<path d="M0,0 L13,0 L19,1 L15,3 L2,2 L-3,5 L-6,5 L-6,10 L-7,11 L-12,11 L-10,7 L-8,7 L-8,3 Z " fill="#A28ECD" transform="translate(458,269)"/>
<path d="M0,0 L2,1 L1,4 L4,4 L4,12 L1,12 L2,18 L2,23 L0,20 L-1,18 L-1,1 Z " fill="#AA96E4" transform="translate(572,468)"/>
<path d="M0,0 L1,0 L1,13 L3,12 L11,12 L11,13 L4,13 L4,15 L10,15 L7,16 L6,19 L6,16 L4,16 L4,21 L7,22 L3,22 L3,16 L1,16 L1,30 L0,30 L0,16 L-2,15 L-1,14 Z " fill="#6D5B92" transform="translate(655,384)"/>
<path d="M0,0 L5,0 L5,2 L2,2 L3,11 L5,12 L5,14 L-1,16 L-1,12 L-4,12 L-3,7 L0,6 Z " fill="#7E70BE" transform="translate(629,513)"/>
<path d="M0,0 L4,1 L1,1 L1,3 L4,4 L-11,3 L-11,5 L0,5 L-1,7 L-12,7 L-12,9 L-14,9 L-15,14 L-16,14 L-16,6 L-12,4 L-12,2 L0,2 Z " fill="#8375A5" transform="translate(444,264)"/>
<path d="M0,0 L5,1 L4,6 L-1,6 L-1,9 L-6,10 L-8,5 L-3,4 Z " fill="#A19AEB" transform="translate(534,535)"/>
<path d="M0,0 L2,1 L2,15 L4,15 L5,25 L4,28 L2,28 L0,19 Z " fill="#9A92D9" transform="translate(404,417)"/>
<path d="M0,0 L12,0 L12,2 L16,2 L16,6 L18,6 L18,10 L20,10 L19,14 L19,11 L17,11 L16,13 L17,7 L15,7 L15,11 L12,10 L11,6 L15,5 L15,3 L12,4 L2,4 L2,3 L11,3 L11,1 L0,1 Z " fill="#7E65A4" transform="translate(592,368)"/>
<path d="M0,0 L4,1 L5,8 L6,9 L6,19 L4,19 L4,12 L1,12 L0,8 Z " fill="#6E65B7" transform="translate(555,652)"/>
<path d="M0,0 L2,0 L2,10 L-1,13 L-3,22 L-6,23 L-5,19 L-4,18 L-2,2 Z " fill="#9290D6" transform="translate(398,572)"/>
<path d="M0,0 L4,0 L4,2 L8,2 L8,4 L10,4 L11,11 L13,11 L13,13 L10,13 L9,15 L5,12 L7,3 L0,4 L3,3 L3,1 Z " fill="#9279B2" transform="translate(546,330)"/>
<path d="M0,0 L9,0 L9,3 L13,4 L2,5 L-1,6 L-1,8 L-3,8 L-4,2 Z " fill="#938ADB" transform="translate(503,557)"/>
<path d="M0,0 L2,1 L2,11 L-2,16 L-3,20 L-8,22 L-8,20 L-6,19 L-3,10 L-1,3 Z " fill="#8275C4" transform="translate(622,513)"/>
<path d="M0,0 L3,1 L5,22 L5,28 L3,25 L3,16 L1,16 L0,12 Z " fill="#8680C4" transform="translate(400,468)"/>
<path d="M0,0 L4,0 L4,4 L-4,8 L-6,13 L-8,14 L-7,6 L-4,1 Z " fill="#8E8ACB" transform="translate(384,342)"/>
<path d="M0,0 L4,0 L4,2 L12,2 L12,0 L16,0 L16,2 L26,2 L26,4 L30,4 L29,6 L25,5 L25,3 L20,5 L11,5 L11,3 L3,3 L3,1 Z " fill="#19081E" transform="translate(492,212)"/>
<path d="M0,0 L1,0 L1,7 L3,8 L2,14 L0,14 L0,12 L-4,12 L-4,10 L-6,10 L-6,6 L-8,5 L-6,5 L-5,3 L-5,5 L-1,5 Z " fill="#675FA5" transform="translate(478,650)"/>
<path d="M0,0 L2,0 L2,2 L4,2 L3,6 L1,11 L2,26 L0,30 L-1,13 L-2,13 L-2,8 L-1,3 Z " fill="#948FDA" transform="translate(427,584)"/>
<path d="M0,0 L3,0 L3,2 L6,2 L6,0 L8,0 L6,4 L-1,5 L-1,7 L-6,9 L-7,8 L-10,9 L-10,6 L-7,6 L-6,2 L-4,2 L-4,4 L0,3 Z " fill="#8E86BD" transform="translate(357,353)"/>
<path d="M0,0 L5,0 L6,4 L8,4 L8,10 L7,11 L2,11 L1,5 Z " fill="#7168BB" transform="translate(709,656)"/>
<path d="M0,0 L2,0 L2,2 L4,2 L4,4 L6,4 L6,12 L0,12 Z " fill="#0E0A1D" transform="translate(816,520)"/>
<path d="M0,0 L6,2 L7,4 L10,4 L9,10 L7,10 L7,8 L2,7 L-3,4 L-4,2 L0,2 Z " fill="#9D87C0" transform="translate(543,329)"/>
<path d="M0,0 L2,0 L2,4 L22,4 L22,5 L6,6 L5,9 L8,9 L8,12 L6,12 L6,10 L2,10 L0,5 L-2,4 Z " fill="#605A9D" transform="translate(542,692)"/>
<path d="M0,0 L2,0 L2,10 L-2,10 L-2,12 L2,12 L1,16 L-3,17 L-4,10 L-3,8 L0,8 L0,6 L-3,7 L-2,2 L0,2 Z " fill="#7465AB" transform="translate(634,507)"/>
<path d="M0,0 L2,1 L3,5 L5,6 L4,9 L3,10 L2,17 L-3,21 L-4,19 L-2,19 Z " fill="#9D92D7" transform="translate(419,311)"/>
<path d="M0,0 L2,1 L-2,10 L-3,14 L-6,18 L-5,2 L0,2 Z " fill="#8E8BD2" transform="translate(410,530)"/>
<path d="M0,0 L2,0 L2,16 L5,17 L3,24 L0,27 L0,18 L-1,3 Z " fill="#957CC6" transform="translate(605,388)"/>
<path d="M0,0 L7,0 L7,5 L4,5 L3,7 L1,7 L1,13 L-3,11 L-2,8 L-1,5 Z " fill="#9C80CB" transform="translate(593,388)"/>
<path d="M0,0 L3,1 L2,10 L0,16 L2,16 L1,25 L-1,27 L-2,15 L-2,9 L0,9 Z " fill="#9693DF" transform="translate(406,560)"/>
<path d="M0,0 L1,2 L8,1 L8,4 L1,4 L1,6 L8,6 L8,7 L0,7 L0,5 L-22,5 L-22,4 L0,4 Z " fill="#6059A1" transform="translate(528,609)"/>
<path d="M0,0 L6,2 L6,0 L8,0 L7,4 L8,7 L6,13 L4,9 L1,8 Z " fill="#A990DB" transform="translate(574,406)"/>
<path d="M0,0 L2,0 L3,13 L7,13 L7,16 L0,16 L0,10 L-2,10 Z " fill="#9A90C5" transform="translate(405,297)"/>
<path d="M0,0 L1,0 L1,7 L3,7 L3,0 L5,4 L8,11 L9,15 L5,15 L5,12 L2,12 L2,8 L0,8 Z " fill="#6B63AF" transform="translate(558,664)"/>
<path d="M0,0 L7,0 L14,1 L19,0 L24,1 L22,3 L5,3 L1,2 L-9,2 L-9,1 Z " fill="#988FE1" transform="translate(512,554)"/>
<path d="M0,0 L1,0 L1,5 L4,5 L5,3 L8,9 L7,19 L5,19 L5,10 L2,10 L2,6 L0,6 Z " fill="#8A83B5" transform="translate(338,384)"/>
<path d="M0,0 L4,0 L5,5 L9,5 L9,7 L5,8 L5,12 L3,12 L3,7 L0,7 L-1,1 Z " fill="#9A85BD" transform="translate(526,312)"/>
<path d="M0,0 L6,0 L15,2 L15,5 L5,5 L5,3 L-2,3 L-2,1 Z " fill="#756EBE" transform="translate(591,688)"/>
<path d="M0,0 L1,3 L0,5 L2,5 L2,7 L-1,7 L-2,11 L-8,11 L-8,6 L-2,3 Z " fill="#7D76BA" transform="translate(454,664)"/>
<path d="M0,0 L6,0 L5,3 L9,4 L5,4 L5,8 L3,8 L3,10 L1,10 L1,8 L-2,9 L-3,6 L1,7 L1,5 L-1,5 Z " fill="#716BAC" transform="translate(455,664)"/>
<path d="M0,0 L2,1 L-3,7 L-4,12 L-4,22 L-5,22 L-7,8 L-10,7 L-10,4 L-7,4 L-6,2 L-5,5 Z M-7,6 Z M-8,14 L-6,15 Z M-6,22 Z " fill="#7F76C7" transform="translate(610,536)"/>
<path d="M0,0 L1,0 L1,10 L-2,12 L-5,11 L-4,1 Z " fill="#948CC7" transform="translate(375,357)"/>
<path d="M0,0 L5,2 L8,4 L14,5 L14,7 L4,8 L1,9 Z " fill="#A290CB" transform="translate(505,307)"/>
<path d="M0,0 L2,0 L3,2 L5,2 L5,6 L10,6 L10,10 L13,11 L9,12 L8,10 L9,7 L7,7 L7,10 L0,8 Z " fill="#8E7EB1" transform="translate(516,300)"/>
<path d="M0,0 L3,3 L3,5 L1,6 L1,8 L-3,8 L-3,10 L-5,10 L-5,8 L-8,8 L-8,6 L-5,3 L-3,1 Z " fill="#746CBB" transform="translate(684,679)"/>
<path d="M0,0 L6,2 L8,13 L6,14 L3,11 Z " fill="#AB8ED2" transform="translate(549,356)"/>
<path d="M0,0 L1,4 L-1,4 L-2,9 L-8,12 L-10,12 L-10,10 L-8,10 L-8,6 L-10,5 L-2,3 Z " fill="#A89DEB" transform="translate(542,524)"/>
<path d="M0,0 L4,0 L4,2 L10,0 L8,4 L12,3 L12,6 L4,6 L-2,3 L-2,1 Z " fill="#AB9FDB" transform="translate(430,312)"/>
<path d="M0,0 L2,0 L1,3 L-6,5 L-14,7 L-22,7 L-21,5 L-14,4 L-13,3 L-4,1 Z " fill="#9189DC" transform="translate(540,554)"/>
<path d="M0,0 L2,3 L8,4 L8,6 L11,6 L10,10 L6,8 L6,6 L1,7 L-3,5 L-3,1 Z " fill="#A88AD0" transform="translate(559,363)"/>
<path d="M0,0 L1,0 L1,9 L-5,12 L-7,13 L-7,11 L-11,9 L-7,7 L-3,7 Z " fill="#8E86C1" transform="translate(375,348)"/>
<path d="M0,0 L2,1 L3,7 L9,7 L9,12 L6,12 L6,9 L1,9 L-4,6 L-4,8 L-8,8 L-9,11 L-9,7 L-5,7 L-5,5 L0,5 Z " fill="#120A22" transform="translate(669,279)"/>
<path d="M0,0 L2,0 L2,2 L8,2 L8,4 L6,4 L6,8 L4,8 L4,10 L2,10 L2,8 L0,8 Z " fill="#150C25" transform="translate(328,270)"/>
<path d="M0,0 L2,1 L3,7 L2,21 L-1,19 L0,8 Z " fill="#9187CF" transform="translate(427,644)"/>
<path d="M0,0 L4,0 L4,4 L6,4 L5,8 L4,10 L8,12 L8,16 L4,15 L2,10 L3,1 Z M3,11 Z " fill="#121119" transform="translate(368,454)"/>
<path d="M0,0 L5,1 L3,7 L1,8 L1,13 L4,14 L0,14 L0,8 L-2,8 L-2,2 Z " fill="#847DAE" transform="translate(334,370)"/>
<path d="M0,0 L3,1 L3,5 L6,5 L6,7 L8,8 L8,11 L4,10 L-1,6 L-2,1 Z " fill="#877FB8" transform="translate(377,660)"/>
<path d="M0,0 L1,0 L2,9 L2,20 L4,26 L2,28 L-1,16 Z " fill="#928CD1" transform="translate(380,605)"/>
<path d="M0,0 L2,1 L4,17 L3,19 L1,19 L1,11 L-1,11 L-2,3 Z " fill="#8B85C2" transform="translate(393,442)"/>
<path d="M0,0 L2,0 L2,2 L5,3 L0,8 L-2,8 L-4,9 L-4,2 L-2,1 L0,2 Z " fill="#B59EEC" transform="translate(508,382)"/>
<path d="M0,0 L1,4 L-1,4 L-1,8 L-6,12 L-7,14 L-9,14 L-9,12 L-15,12 L-15,11 L-7,10 L-7,8 L-5,8 L-4,4 L0,3 Z " fill="#0E0D13" transform="translate(397,308)"/>
<path d="M0,0 L2,2 L0,2 Z M-2,2 L0,2 L-1,12 L-3,12 L-3,15 L-8,15 L-8,11 L-4,9 Z " fill="#756CBC" transform="translate(696,668)"/>
<path d="M0,0 L3,1 L1,1 L1,3 L4,4 L2,4 L2,10 L-2,10 L-3,12 L-4,7 L-2,2 L0,2 Z " fill="#6B63AD" transform="translate(698,668)"/>
<path d="M0,0 L1,4 L5,6 L7,8 L7,12 L10,13 L8,14 L5,13 L5,11 L3,11 L3,9 L0,8 L-1,3 Z " fill="#121119" transform="translate(369,654)"/>
<path d="M0,0 L4,0 L4,2 L7,2 L7,4 L3,6 L5,8 L4,12 L3,9 L0,8 L-2,3 Z " fill="#9883C2" transform="translate(496,269)"/>
<path d="M0,0 L6,0 L6,4 L-4,4 L-4,6 L-6,6 L-6,4 L-8,4 L-8,6 L-10,6 L-10,4 L-18,4 L-18,3 L-8,2 L-6,3 L-5,1 L-5,3 L5,3 L5,1 L0,1 Z " fill="#5B5695" transform="translate(570,700)"/>
<path d="M0,0 L1,3 L3,3 L4,0 L4,6 L2,6 L2,8 L0,8 L0,10 L-6,10 L-5,6 L0,6 Z " fill="#0D0B12" transform="translate(622,374)"/>
<path d="M0,0 L11,1 L11,8 L8,8 L8,6 L6,6 L6,4 L4,4 L3,2 Z " fill="#9D7FC7" transform="translate(570,368)"/>
<path d="M0,0 L1,0 L1,5 L-1,5 L-1,8 L-10,8 L-11,6 L-14,5 L-13,1 L-12,3 L-5,4 L-4,6 L-2,6 Z M-5,3 Z " fill="#9D93DB" transform="translate(420,651)"/>
<path d="M0,0 L2,0 L1,6 L0,13 L-5,14 L-4,9 L-2,8 L-2,1 Z " fill="#7E7CBB" transform="translate(393,527)"/>
<path d="M0,0 L1,2 L-1,7 L-2,11 L-2,13 L1,14 L0,17 L-3,17 L-5,13 L-4,4 Z " fill="#A8A2EC" transform="translate(448,495)"/>
<path d="M0,0 L4,4 L4,11 L1,11 L2,14 L0,14 Z " fill="#796CBE" transform="translate(668,595)"/>
<path d="M0,0 L6,0 L8,2 L8,7 L1,6 Z " fill="#1B0F33" transform="translate(663,294)"/>
<path d="M0,0 L3,0 L2,16 L1,16 L0,6 L-1,15 L-2,15 L-3,5 Z " fill="#856FB8" transform="translate(647,415)"/>
<path d="M0,0 L2,4 L1,11 L-7,12 L-4,8 L-2,8 L-2,4 L0,4 Z " fill="#776EA7" transform="translate(398,308)"/>
<path d="M0,0 L2,0 L1,9 L-2,8 L-1,3 L-7,6 L-12,7 L-12,4 L-5,2 L0,2 Z " fill="#B2A2E0" transform="translate(456,296)"/>
<path d="M0,0 L15,3 L11,5 L10,7 L8,7 L8,5 L2,5 L0,3 Z " fill="#260E2E" transform="translate(490,215)"/>
<path d="M0,0 L2,0 L3,7 L1,11 L0,13 L-2,13 L-2,3 L0,3 Z " fill="#7E7DC3" transform="translate(379,567)"/>
<path d="M0,0 L1,4 L5,5 L6,9 L2,10 L2,8 L0,8 L0,5 L-2,5 L-3,1 Z " fill="#ACA0EE" transform="translate(455,511)"/>
<path d="M0,0 L4,0 L4,12 L6,13 L3,13 L3,10 L1,10 Z " fill="#0D031A" transform="translate(794,462)"/>
<path d="M0,0 L2,3 L-1,3 L-1,5 L3,5 L4,3 L4,5 L6,6 L4,6 L4,8 L2,8 L2,6 L0,6 L0,8 L-2,8 L-2,6 L-4,6 L-4,8 L-6,8 L-6,4 L-2,4 L-2,2 L0,2 Z " fill="#5E589A" transform="translate(566,680)"/>
<path d="M0,0 L4,0 L4,2 L10,2 L10,3 L0,4 L-4,8 L-6,12 L-6,6 L-4,6 L-4,4 L-2,4 L-2,2 L0,2 Z " fill="#141220" transform="translate(706,666)"/>
<path d="M0,0 L4,0 L6,3 L16,4 L16,10 L15,10 L15,5 L6,5 L6,7 L1,5 L0,3 L3,3 L3,1 Z " fill="#665BA1" transform="translate(652,580)"/>
<path d="M0,0 L1,0 L2,13 L5,14 L5,16 L1,17 L-1,13 L-1,1 Z " fill="#7A6DC4" transform="translate(650,567)"/>
<path d="M0,0 L2,0 L3,4 L1,6 L-6,6 L-8,7 L-9,4 Z M-3,4 Z M3,2 Z " fill="#9589DB" transform="translate(575,514)"/>
<path d="M0,0 L2,0 L2,4 L6,4 L6,6 L2,6 L1,18 L0,18 Z " fill="#1E1033" transform="translate(718,396)"/>
<path d="M0,0 L2,2 L2,12 L1,10 L-2,10 L-2,1 Z " fill="#1F1033" transform="translate(721,363)"/>
<path d="M0,0 L2,0 L2,5 L4,6 L-4,6 L-7,2 L-2,1 L0,2 Z " fill="#A68ECB" transform="translate(536,334)"/>
<path d="M0,0 L2,0 L2,3 L4,3 L4,5 L7,5 L7,7 L-2,7 L-4,6 L-4,4 L0,4 Z " fill="#1B0E2E" transform="translate(592,260)"/>
<path d="M0,0 L4,1 L-4,8 L-8,12 L-10,16 L-10,10 L-8,10 L-6,6 L-2,4 L-2,2 L0,2 Z " fill="#141220" transform="translate(682,688)"/>
<path d="M0,0 L2,0 L4,4 L2,8 L0,9 L-2,12 L-3,5 Z " fill="#A891DE" transform="translate(578,428)"/>
<path d="M0,0 L3,1 L1,1 L1,3 L4,4 L2,6 L0,9 L-3,8 L-5,9 L-3,4 L-2,1 Z M4,2 Z " fill="#B4A2E3" transform="translate(464,310)"/>
<path d="M0,0 L5,2 L15,3 L15,5 L12,6 L2,5 Z " fill="#A994D5" transform="translate(476,278)"/>
<path d="M0,0 L4,0 L4,2 L8,2 L8,4 L10,4 L10,8 L12,8 L12,12 L10,12 L9,16 L9,5 L7,5 L7,3 L2,4 L2,1 Z " fill="#0B0218" transform="translate(594,240)"/>
<path d="M0,0 L1,3 L6,4 L5,14 L4,10 L2,10 L2,4 L0,4 Z " fill="#635CA8" transform="translate(542,620)"/>
<path d="M0,0 L3,0 L3,8 L2,10 L0,10 L0,8 L-2,8 L-2,13 L-3,13 L-3,7 L0,7 Z " fill="#7C78B5" transform="translate(373,583)"/>
<path d="M0,0 L2,1 L2,7 L11,7 L11,9 L0,9 L-1,1 Z " fill="#8680C2" transform="translate(381,468)"/>
<path d="M0,0 L4,5 L5,7 L5,15 L3,15 L2,8 L-1,7 Z " fill="#8F86BF" transform="translate(360,422)"/>
<path d="M0,0 L2,1 L1,3 L3,3 L3,5 L1,5 L-1,9 L-2,8 L-3,10 L-6,10 L-6,8 L-4,8 L-3,3 L0,2 Z " fill="#887BA9" transform="translate(426,278)"/>
<path d="M0,0 L2,1 L-1,6 L-2,16 L-4,14 L-4,5 L-2,1 Z M-5,15 Z " fill="#938FDA" transform="translate(408,553)"/>
<path d="M0,0 L3,0 L3,2 L11,2 L11,5 L3,6 Z M11,1 Z " fill="#A89DEB" transform="translate(477,530)"/>
<path d="M0,0 L2,0 L2,5 L4,5 L3,14 L0,13 Z " fill="#847FC2" transform="translate(395,513)"/>
<path d="M0,0 L1,0 L2,9 L5,10 L4,15 L2,17 L0,11 Z " fill="#9790D5" transform="translate(404,436)"/>
<path d="M0,0 L2,0 L1,7 L-2,9 L-3,12 L-6,13 L-5,8 L-3,7 Z " fill="#A39BE1" transform="translate(446,436)"/>
<path d="M0,0 L4,1 L2,7 L-2,10 L-1,6 L-2,1 Z " fill="#AB99E6" transform="translate(466,412)"/>
<path d="M0,0 L2,1 L1,3 L3,3 L1,7 L-7,8 L-2,2 L0,2 Z " fill="#827BAA" transform="translate(342,362)"/>
<path d="M0,0 L1,0 L1,14 L-1,14 L-1,16 L1,16 L1,18 L-1,18 L-2,20 L-2,18 L-4,18 L-4,16 L-2,16 L-2,14 L-4,13 L-2,11 L-2,13 L0,13 Z " fill="#675A9A" transform="translate(643,510)"/>
<path d="M0,0 L1,0 L1,14 L-1,17 L-2,4 Z " fill="#AB95E3" transform="translate(574,416)"/>
<path d="M0,0 L13,1 L13,3 L11,3 L12,8 L10,8 L10,4 L8,4 L8,2 L3,2 L2,5 L0,3 Z " fill="#A689D1" transform="translate(568,380)"/>
<path d="M0,0 L2,0 L2,8 L-1,12 L-4,10 L-4,8 L-2,8 Z " fill="#8E73BF" transform="translate(627,375)"/>
<path d="M0,0 L5,1 L5,4 L3,5 L2,8 L-1,8 L0,5 L-2,4 L-2,2 L0,2 Z " fill="#746BBA" transform="translate(700,663)"/>
<path d="M0,0 L1,4 L-1,14 L-3,14 L-3,5 Z " fill="#8783C5" transform="translate(379,590)"/>
<path d="M0,0 L1,4 L5,6 L5,10 L8,11 L6,12 L3,11 L3,9 L1,9 L-1,3 Z " fill="#14131B" transform="translate(343,404)"/>
<path d="M0,0 L4,1 L4,15 L2,15 L2,2 L0,2 Z " fill="#9178C1" transform="translate(651,383)"/>
<path d="M0,0 L4,0 L4,8 L3,10 L-1,8 L1,7 Z " fill="#160922" transform="translate(719,346)"/>
<path d="M0,0 L6,0 L7,7 L5,7 L5,5 L2,5 L2,3 L0,3 Z " fill="#978CCF" transform="translate(412,313)"/>
<path d="M0,0 L1,2 L9,3 L9,4 L2,4 L2,9 L0,9 L-1,7 L-1,1 Z " fill="#140B25" transform="translate(694,295)"/>
<path d="M0,0 L8,2 L8,6 L2,6 L2,4 L0,4 Z " fill="#100E14" transform="translate(504,270)"/>
<path d="M0,0 L2,0 L2,2 L4,1 L12,1 L10,4 L-2,4 L-2,1 Z " fill="#7E72C4" transform="translate(676,615)"/>
<path d="M0,0 L4,0 L4,5 L0,5 L0,3 L-7,3 L-7,1 Z " fill="#7169BF" transform="translate(536,612)"/>
<path d="M0,0 L1,2 L3,2 L3,4 L5,4 L5,6 L-4,8 L-2,7 L-2,5 L-4,4 Z " fill="#7969B3" transform="translate(636,520)"/>
<path d="M0,0 L1,3 L5,4 L5,6 L1,7 L1,5 L-1,5 L-1,7 L-7,7 L-7,12 L-8,12 L-8,6 L-2,6 L-2,4 L0,4 Z " fill="#7972A1" transform="translate(352,350)"/>
<path d="M0,0 L2,1 L1,3 L-1,3 L-1,10 L2,10 L3,7 L2,12 L-4,12 L-6,13 L-4,9 L-2,10 L-2,2 L0,2 Z " fill="#7B73A6" transform="translate(370,344)"/>
<path d="M0,0 L3,0 L3,2 L-2,3 L-3,6 L-12,6 L-12,4 L-5,4 L-5,2 Z " fill="#240B26" transform="translate(396,219)"/>
<path d="M0,0 L7,0 L7,3 L12,3 L12,4 L6,4 L2,4 L0,4 L0,2 L-5,2 L-5,1 Z " fill="#200A24" transform="translate(506,218)"/>
<path d="M0,0 L14,0 L14,1 L1,1 L1,3 L3,4 L-1,6 L-4,4 L0,2 Z " fill="#150617" transform="translate(380,214)"/>
<path d="M0,0 L2,0 L2,4 L4,4 L4,6 L8,6 L7,8 L1,8 L1,5 L-1,5 L-2,8 L-2,4 L0,4 Z " fill="#13111E" transform="translate(470,656)"/>
<path d="M0,0 L1,2 L4,3 L5,7 L-2,6 L-2,1 Z " fill="#A99CEB" transform="translate(460,524)"/>
<path d="M0,0 L1,0 L2,8 L1,14 L3,14 L3,17 L1,17 L1,15 L-3,16 L-2,14 L0,14 L0,8 L-2,8 L-2,6 L0,6 Z " fill="#6A669C" transform="translate(394,512)"/>
<path d="M0,0 L5,1 L7,3 L7,7 L4,8 L2,4 L0,3 Z " fill="#896EBB" transform="translate(640,371)"/>
<path d="M0,0 L3,2 L5,7 L4,12 L1,9 Z " fill="#A28DC9" transform="translate(522,315)"/>
<path d="M0,0 L2,0 L3,7 L0,9 L0,2 L-2,2 L-2,9 L-3,9 L-3,1 Z " fill="#8C84AF" transform="translate(407,295)"/>
<path d="M0,0 L10,0 L12,3 L16,5 L9,7 L9,5 L6,4 L9,4 L9,1 L0,1 Z " fill="#7F6DA6" transform="translate(484,264)"/>
<path d="M0,0 L2,0 L2,3 L6,3 L6,14 L5,14 L5,5 L1,5 L0,8 Z " fill="#080919" transform="translate(768,740)"/>
<path d="M0,0 L3,1 L3,7 L1,7 L1,9 L-5,9 L-5,8 L0,8 L-1,2 Z " fill="#7B66A3" transform="translate(667,399)"/>
<path d="M0,0 L1,4 L6,3 L5,7 L-1,8 L0,5 L-2,4 Z " fill="#BA9EEF" transform="translate(537,388)"/>
<path d="M0,0 L5,0 L5,2 L10,2 L7,7 L4,6 L4,2 L0,2 Z M5,5 Z " fill="#9C7EC7" transform="translate(586,381)"/>
<path d="M0,0 L5,0 L5,3 L7,3 L7,5 L5,5 L5,10 L4,6 L1,5 Z " fill="#140B23" transform="translate(597,256)"/>
<path d="M0,0 L3,2 L2,4 L6,6 L6,10 L2,9 L0,4 Z M1,5 Z " fill="#0C0B14" transform="translate(538,692)"/>
<path d="M0,0 L4,2 L6,4 L4,4 L4,6 L2,6 L2,4 L0,4 L0,6 L-2,6 L-2,1 Z " fill="#6760A8" transform="translate(574,682)"/>
<path d="M0,0 L4,1 L4,11 L2,11 L2,4 L0,4 Z " fill="#756CBF" transform="translate(557,660)"/>
<path d="M0,0 L4,0 L4,4 L-1,7 L-3,5 L-2,1 Z " fill="#837CB9" transform="translate(377,457)"/>
<path d="M0,0 L5,0 L4,8 L1,8 Z " fill="#ACA4EB" transform="translate(444,456)"/>
<path d="M0,0 L2,0 L2,12 L0,12 L0,5 L-3,5 L-3,3 L0,3 Z " fill="#130A21" transform="translate(743,413)"/>
<path d="M0,0 L4,0 L4,6 L1,9 L0,7 Z " fill="#B199E9" transform="translate(566,412)"/>
<path d="M0,0 L2,0 L2,2 L4,2 L4,7 L0,9 Z " fill="#AF9CEB" transform="translate(492,383)"/>
<path d="M0,0 L1,0 L1,12 L-3,13 L-2,8 Z " fill="#9890C5" transform="translate(347,376)"/>
<path d="M0,0 L2,0 L0,6 L-1,7 L-8,7 L-8,5 L-3,5 L-3,3 Z " fill="#857CBE" transform="translate(393,326)"/>
<path d="M0,0 L4,0 L4,4 L6,4 L5,6 L3,5 L1,9 L-3,4 L3,3 L3,1 Z " fill="#8876AC" transform="translate(500,270)"/>
<path d="M0,0 L1,4 L5,4 L4,8 L0,9 L-1,2 Z " fill="#6B5DA1" transform="translate(631,515)"/>
<path d="M0,0 L4,0 L2,9 L2,12 L0,12 L-1,6 L2,2 L-2,1 Z " fill="#8C85B8" transform="translate(337,369)"/>
<path d="M0,0 L2,0 L2,18 L1,18 L0,5 L-3,3 Z " fill="#150B20" transform="translate(722,360)"/>
<path d="M0,0 L1,4 L-2,8 L-6,7 L-6,5 Z " fill="#AE9FD8" transform="translate(449,292)"/>
<path d="M0,0 L2,1 L0,5 L-1,8 L-4,8 L-4,4 L-6,3 Z " fill="#AEA2EC" transform="translate(458,439)"/>
<path d="M0,0 L5,0 L6,5 L5,7 L2,6 Z M-1,2 Z " fill="#B89FEE" transform="translate(551,408)"/>
<path d="M0,0 L2,0 L3,4 L1,6 L-1,10 L-2,10 L-2,3 Z " fill="#AF93E2" transform="translate(572,408)"/>
<path d="M0,0 L4,1 L4,6 L1,8 L1,4 L-2,5 L-1,1 Z M0,8 Z " fill="#9276BF" transform="translate(611,382)"/>
<path d="M0,0 L6,0 L8,3 L12,4 L11,8 L11,5 L5,7 L5,1 L0,1 Z " fill="#8268A3" transform="translate(570,356)"/>
<path d="M0,0 L6,0 L7,1 L7,9 L5,9 L5,2 L0,2 Z " fill="#9D87C3" transform="translate(536,319)"/>
<path d="M0,0 L1,4 L-2,6 L-4,10 L-4,5 L-6,5 L-6,7 L-8,7 L-8,4 L-6,3 L0,3 Z " fill="#857ABE" transform="translate(399,316)"/>
<path d="M0,0 L5,1 L5,4 L-4,4 L-4,1 Z " fill="#140B24" transform="translate(644,288)"/>
<path d="M0,0 L2,0 L2,2 L5,3 L6,11 L4,7 L2,7 L0,3 Z " fill="#9F94E2" transform="translate(451,528)"/>
<path d="M0,0 L1,4 L6,5 L6,7 L0,9 Z " fill="#7D6CBA" transform="translate(628,520)"/>
<path d="M0,0 L1,4 L5,3 L5,6 L7,6 L7,8 L4,8 L4,6 L-1,6 L-1,1 Z " fill="#150E2E" transform="translate(786,497)"/>
<path d="M0,0 L3,0 L4,5 L6,6 L6,13 L4,9 L0,5 Z " fill="#918ABD" transform="translate(341,384)"/>
<path d="M0,0 L4,0 L4,7 L1,8 Z " fill="#9578B8" transform="translate(561,347)"/>
<path d="M0,0 L2,0 L1,7 L-2,9 L-5,8 L-3,7 L-2,3 L0,3 Z " fill="#9E94C5" transform="translate(417,297)"/>
<path d="M0,0 L4,1 L4,3 L0,5 L-4,9 L-2,1 Z " fill="#0C0D27" transform="translate(762,773)"/>
<path d="M0,0 L6,2 L6,5 L4,5 L3,7 L0,4 Z " fill="#8981BC" transform="translate(371,654)"/>
<path d="M0,0 L4,2 L4,6 L2,6 L2,8 L0,8 Z " fill="#141221" transform="translate(484,632)"/>
<path d="M0,0 L3,1 L3,8 L0,8 L0,3 L-2,2 L0,2 Z " fill="#6E65BA" transform="translate(549,631)"/>
<path d="M0,0 L3,1 L3,7 L1,7 L0,11 L-1,6 Z " fill="#0E081A" transform="translate(801,481)"/>
<path d="M0,0 L2,1 L2,11 L0,10 L-1,3 Z " fill="#8881BD" transform="translate(375,437)"/>
<path d="M0,0 L3,0 L3,4 L7,5 L7,9 L5,9 L5,6 L0,4 Z " fill="#150B23" transform="translate(744,432)"/>
<path d="M0,0 L5,0 L6,5 L0,5 Z " fill="#B99DF1" transform="translate(544,393)"/>
<path d="M0,0 L6,0 L4,4 L-1,6 Z " fill="#0B021B" transform="translate(710,288)"/>
<path d="M0,0 L2,0 L2,4 L5,4 L5,6 L-4,5 L-4,3 L0,3 Z " fill="#847EBD" transform="translate(436,673)"/>
<path d="M0,0 L5,0 L4,3 L2,4 L1,7 L-1,7 L-2,3 L0,3 Z " fill="#7971BE" transform="translate(468,652)"/>
<path d="M0,0 L9,0 L9,5 L7,5 L7,2 L0,2 Z " fill="#7C6EC3" transform="translate(658,585)"/>
<path d="M0,0 L3,0 L3,8 L0,8 Z " fill="#A893E0" transform="translate(573,472)"/>
<path d="M0,0 L10,1 L10,4 L1,3 Z M10,0 Z " fill="#B495E4" transform="translate(554,388)"/>
<path d="M0,0 L5,0 L5,9 L3,9 L3,2 L0,2 Z " fill="#9F7FC6" transform="translate(562,345)"/>
<path d="M0,0 L6,0 L5,2 L6,5 L0,6 L-1,4 L1,4 Z " fill="#70618B" transform="translate(506,276)"/>
<path d="M0,0 L2,0 L2,2 L6,1 L6,6 L1,5 Z " fill="#726BB7" transform="translate(473,657)"/>
<path d="M0,0 L1,0 L1,8 L3,9 L2,11 L0,11 L-1,9 L-1,1 Z " fill="#9C95D9" transform="translate(414,468)"/>
<path d="M0,0 L3,0 L5,10 L3,9 L3,5 L0,5 Z " fill="#A386CA" transform="translate(557,357)"/>
<path d="M0,0 L3,1 L3,12 L1,9 Z " fill="#100D2B" transform="translate(306,695)"/>
<path d="M0,0 L3,0 L4,3 L-2,5 L-6,4 L-4,4 L-3,2 L0,3 Z " fill="#AFA2F2" transform="translate(546,512)"/>
<path d="M0,0 L1,0 L2,5 L4,6 L4,10 L0,9 Z " fill="#9E81C1" transform="translate(556,346)"/>
<path d="M0,0 L7,1 L4,7 L3,7 L3,1 L1,1 L1,6 L0,6 Z " fill="#776FA9" transform="translate(376,332)"/>
<path d="M0,0 L7,0 L7,2 L4,2 L3,5 L3,3 L1,3 L0,5 Z " fill="#180D2B" transform="translate(329,272)"/>
<path d="M0,0 L2,0 L2,6 L1,7 L-4,7 L-4,5 L0,5 Z " fill="#776EC5" transform="translate(715,660)"/>
<path d="M0,0 L3,0 L2,4 L-2,7 L-3,3 Z " fill="#817CBD" transform="translate(445,664)"/>
<path d="M0,0 L3,1 L-3,5 L-5,6 L-6,2 Z " fill="#B0A2EC" transform="translate(474,417)"/>
<path d="M0,0 L1,4 L0,9 L-2,9 L-2,4 L-4,3 Z " fill="#8E87BE" transform="translate(359,416)"/>
<path d="M0,0 L1,3 L3,3 L2,10 L1,10 L1,5 L-1,5 L-1,10 L-2,10 L-2,4 L0,4 Z " fill="#7760A1" transform="translate(628,370)"/>
<path d="M0,0 L5,0 L5,2 L8,2 L7,6 L3,4 L3,1 Z " fill="#A486CE" transform="translate(562,367)"/>
<path d="M0,0 L7,1 L6,5 L6,3 L0,3 Z " fill="#9B90CB" transform="translate(412,310)"/>
<path d="M0,0 L2,1 L1,5 L-1,5 L-2,9 L-3,8 L-3,3 L0,2 Z " fill="#857DAD" transform="translate(402,304)"/>
<path d="M0,0 L4,0 L5,4 L12,5 L9,7 L3,6 L3,1 Z " fill="#A18CCE" transform="translate(479,271)"/>
<path d="M0,0 L3,0 L3,6 L1,6 L1,4 L-3,2 Z " fill="#030206" transform="translate(593,256)"/>
<path d="M0,0 L3,1 L3,3 L9,5 L9,6 L2,6 L2,4 L-1,3 Z " fill="#120821" transform="translate(581,237)"/>
<path d="M0,0 L2,0 L2,8 L-1,10 Z " fill="#8B80C9" transform="translate(445,632)"/>
<path d="M0,0 L2,0 L3,4 L-1,9 L-1,2 Z " fill="#8D87CF" transform="translate(382,589)"/>
<path d="M0,0 L3,1 L-3,6 L-4,6 L-4,1 Z " fill="#9690E2" transform="translate(542,541)"/>
<path d="M0,0 L3,0 L4,4 L3,6 L-1,5 Z " fill="#A390DF" transform="translate(576,482)"/>
<path d="M0,0 L2,1 L1,12 L-2,13 Z " fill="#847EBD" transform="translate(395,466)"/>
<path d="M0,0 L1,2 L3,2 L3,8 L1,9 L-1,4 Z " fill="#9B93D9" transform="translate(424,436)"/>
<path d="M0,0 Z M-4,1 L0,2 L-5,8 L-6,4 Z " fill="#9088BF" transform="translate(368,392)"/>
<path d="M0,0 L2,0 L2,6 L-2,6 L-2,2 L0,2 Z " fill="#8D84BA" transform="translate(403,307)"/>
<path d="M0,0 L8,2 L8,4 L1,4 Z " fill="#291034" transform="translate(490,215)"/>
<path d="M0,0 L5,0 L3,4 L0,6 Z " fill="#877DC4" transform="translate(444,650)"/>
<path d="M0,0 L4,0 L4,2 L8,3 L5,3 L5,6 L2,5 L1,3 L3,3 L3,1 Z " fill="#6B5FA4" transform="translate(678,606)"/>
<path d="M0,0 L0,3 L-6,6 L-6,2 Z " fill="#A299E9" transform="translate(519,537)"/>
<path d="M0,0 L3,2 L2,6 L-4,6 L-4,5 L1,5 L1,3 L-4,3 Z " fill="#100F17" transform="translate(388,526)"/>
<path d="M0,0 L1,2 L-1,7 L-4,8 L-4,4 Z " fill="#ABA4EF" transform="translate(448,495)"/>
<path d="M0,0 L1,0 L2,14 L-1,13 Z " fill="#938CC3" transform="translate(352,391)"/>
<path d="M0,0 L6,0 L2,3 L0,8 L-1,4 Z " fill="#876DB7" transform="translate(631,371)"/>
<path d="M0,0 L7,0 L7,2 L1,2 L1,4 L-1,4 Z " fill="#8E85C2" transform="translate(354,349)"/>
<path d="M0,0 L8,1 L8,2 L0,4 L-2,3 L-2,1 Z " fill="#7D73C3" transform="translate(668,680)"/>
<path d="M0,0 L3,0 L3,4 L5,5 L3,5 L2,7 L2,5 L0,5 Z " fill="#7169B7" transform="translate(578,680)"/>
<path d="M0,0 L5,0 L6,7 L3,5 L4,1 L0,2 Z " fill="#6F63B0" transform="translate(665,590)"/>
<path d="M0,0 L6,0 L4,4 L-1,5 Z " fill="#A9A1E8" transform="translate(444,448)"/>
<path d="M0,0 L2,1 L1,7 L-3,5 L-2,2 Z " fill="#A385D1" transform="translate(593,394)"/>
<path d="M0,0 L5,2 L6,6 L1,4 Z " fill="#AC8FDD" transform="translate(572,391)"/>
<path d="M0,0 L2,0 L2,4 L0,5 L-2,8 L-2,2 Z " fill="#958DC6" transform="translate(354,364)"/>
<path d="M0,0 L2,0 L2,6 L-1,6 L-2,2 L0,2 Z " fill="#1C0D2E" transform="translate(715,345)"/>
<path d="M0,0 L5,0 L5,3 L0,5 Z " fill="#9489CC" transform="translate(407,313)"/>
<path d="M0,0 L2,0 L2,2 L6,2 L5,4 L-3,3 L-2,1 L0,2 Z " fill="#0C0318" transform="translate(588,236)"/>
<path d="M0,0 L5,0 L5,2 L7,2 L7,4 L3,4 L3,2 L0,2 Z " fill="#210A1A" transform="translate(359,221)"/>
<path d="M0,0 L4,1 L5,4 L0,4 Z " fill="#191136" transform="translate(700,800)"/>
<path d="M0,0 L3,0 L3,5 L-1,5 Z " fill="#746BBD" transform="translate(480,642)"/>
<path d="M0,0 L8,1 L5,3 L0,3 Z " fill="#A69BE7" transform="translate(480,533)"/>
<path d="M0,0 L2,0 L2,9 L0,9 L-1,1 Z " fill="#9D97E1" transform="translate(432,504)"/>
<path d="M0,0 L4,0 L4,2 L6,2 L6,4 L0,3 Z " fill="#0A0511" transform="translate(816,486)"/>
<path d="M0,0 L3,0 L3,6 L1,7 Z " fill="#AE99E8" transform="translate(568,436)"/>
<path d="M0,0 L3,1 L2,8 L0,4 Z " fill="#AD91DE" transform="translate(574,406)"/>
<path d="M0,0 L2,0 L2,5 L-3,5 L-3,3 L0,3 Z " fill="#7972C4" transform="translate(669,698)"/>
<path d="M0,0 L3,0 L3,3 L-6,3 L-6,2 Z " fill="#7B72C1" transform="translate(617,679)"/>
<path d="M0,0 Z M-4,1 L-1,2 L-5,6 L-6,3 Z M-1,1 Z " fill="#867ACA" transform="translate(610,531)"/>
<path d="M0,0 L5,0 L5,2 L2,2 L2,5 L0,5 Z " fill="#988FC6" transform="translate(345,357)"/>
<path d="M0,0 L4,0 L4,4 L0,4 Z " fill="#180E2B" transform="translate(652,288)"/>
<path d="M0,0 L2,0 L2,3 L5,3 L5,5 L0,4 Z " fill="#8A82BF" transform="translate(397,670)"/>
<path d="M0,0 L0,3 L-4,5 L-4,1 Z " fill="#817CB9" transform="translate(442,671)"/>
<path d="M0,0 L1,2 L-2,7 L-3,7 L-3,2 Z " fill="#9A90D7" transform="translate(424,638)"/>
<path d="M0,0 L4,1 L3,4 L-1,3 Z " fill="#A49CEF" transform="translate(527,539)"/>
<path d="M0,0 L7,1 L7,3 L0,3 Z " fill="#06040E" transform="translate(790,514)"/>
<path d="M0,0 L1,0 L1,7 L3,8 L1,8 L1,10 L-1,10 Z " fill="#8069B6" transform="translate(640,460)"/>
<path d="M0,0 L2,0 L2,3 L7,3 L7,4 L-1,4 Z " fill="#836CB0" transform="translate(647,379)"/>
<path d="M0,0 L3,1 L3,3 L-1,3 L-1,8 L-2,8 L-2,2 Z " fill="#726C98" transform="translate(334,370)"/>
<path d="M0,0 L3,2 L-2,3 L-2,1 Z M-4,3 L-2,4 L-4,7 Z " fill="#7E75B8" transform="translate(387,324)"/>
<path d="M0,0 L3,0 L3,2 L5,3 L0,4 Z " fill="#9C87BF" transform="translate(531,324)"/>
<path d="M0,0 L5,0 L5,3 L0,3 Z " fill="#988DC8" transform="translate(407,310)"/>
<path d="M0,0 L3,0 L3,2 L5,3 L3,5 L3,3 L0,4 Z " fill="#6D66AF" transform="translate(676,687)"/>
<path d="M0,0 L9,1 L9,2 L0,3 Z " fill="#0B0A13" transform="translate(707,667)"/>
<path d="M0,0 L4,1 L3,5 L0,3 Z " fill="#7468BC" transform="translate(645,563)"/>
<path d="M0,0 L2,4 L-3,5 L-3,2 L0,2 Z " fill="#847ACD" transform="translate(603,538)"/>
<path d="M0,0 L2,2 L0,8 L-2,4 L-2,1 Z " fill="#B6A3F1" transform="translate(554,444)"/>
<path d="M0,0 L2,0 L2,5 L-1,5 Z " fill="#968DC2" transform="translate(345,384)"/>
<path d="M0,0 L1,4 L-5,5 L-2,4 L-2,1 Z " fill="#07030C" transform="translate(651,288)"/>
<path d="M0,0 L4,2 L0,4 L-2,2 L0,2 Z " fill="#141220" transform="translate(578,686)"/>
<path d="M0,0 L2,0 L2,3 L-4,4 Z " fill="#7A73BC" transform="translate(465,660)"/>
<path d="M0,0 L2,0 L3,4 L0,7 Z " fill="#9087D1" transform="translate(429,629)"/>
<path d="M0,0 L3,1 L1,6 L-1,3 Z " fill="#756CBC" transform="translate(482,616)"/>
<path d="M0,0 L5,1 L5,3 L1,4 Z " fill="#786BBF" transform="translate(650,580)"/>
<path d="M0,0 L4,0 L2,4 L0,4 Z " fill="#1B1729" transform="translate(632,520)"/>
<path d="M0,0 L3,2 L3,5 L1,5 L0,3 L-3,1 Z " fill="#040208" transform="translate(747,430)"/>
<path d="M0,0 L4,0 L4,2 L-2,3 Z " fill="#BDA0F4" transform="translate(538,393)"/>
<path d="M0,0 L5,1 L3,2 L2,5 L0,3 Z " fill="#AA8CD5" transform="translate(568,380)"/>
<path d="M0,0 L2,0 L1,3 L-4,3 L-4,1 Z " fill="#290E2F" transform="translate(517,218)"/>
<path d="M0,0 L5,0 L6,2 L2,3 Z " fill="#877FBA" transform="translate(399,669)"/>
<path d="M0,0 L6,1 L5,3 L-1,3 Z " fill="#0C0B14" transform="translate(472,661)"/>
<path d="M0,0 L2,0 L0,4 L-3,4 Z " fill="#776EBE" transform="translate(621,540)"/>
<path d="M0,0 L3,0 L1,6 L-1,3 Z " fill="#9482CF" transform="translate(605,484)"/>
<path d="M0,0 L2,0 L3,3 L0,6 Z " fill="#AE97E5" transform="translate(570,412)"/>
<path d="M0,0 L3,1 L3,3 L-3,4 Z " fill="#736D97" transform="translate(338,366)"/>
<path d="M0,0 L5,0 L6,4 L3,3 L3,1 Z " fill="#A386C8" transform="translate(545,341)"/>
<path d="M0,0 L3,4 L-1,6 Z " fill="#0D0715" transform="translate(695,312)"/>
<path d="M0,0 L4,1 L3,3 L-1,3 Z " fill="#978DBE" transform="translate(404,304)"/>
<path d="M0,0 L4,0 L4,2 L-1,3 Z " fill="#9581BA" transform="translate(449,263)"/>
<path d="M0,0 L3,0 L3,4 L0,4 Z " fill="#090510" transform="translate(603,264)"/>
<path d="M0,0 L6,0 L3,3 Z M2,3 Z " fill="#887FCE" transform="translate(511,567)"/>
<path d="M0,0 L3,0 L3,2 L5,3 L0,3 Z " fill="#796AB6" transform="translate(638,528)"/>
<path d="M0,0 L3,1 L0,5 L-1,1 Z " fill="#09090D" transform="translate(371,459)"/>
<path d="M0,0 L0,3 L0,5 L-3,4 L-2,1 Z " fill="#8D7AC7" transform="translate(618,443)"/>
<path d="M0,0 L3,1 L1,5 L0,5 Z M-1,5 Z " fill="#8C70BA" transform="translate(612,385)"/>
<path d="M0,0 L1,0 L1,5 L-2,6 L-2,3 L0,3 Z " fill="#100819" transform="translate(592,252)"/>
<path d="M0,0 L2,4 L-2,5 L-2,3 L0,3 Z " fill="#0E0C26" transform="translate(307,704)"/>
<path d="M0,0 L1,2 L3,3 L1,3 L1,5 L-1,5 Z " fill="#615CA0" transform="translate(569,683)"/>
<path d="M0,0 L3,0 L3,3 L0,4 Z " fill="#4A406D" transform="translate(631,510)"/>
<path d="M0,0 L1,0 L2,7 L-1,7 Z " fill="#8873BE" transform="translate(628,448)"/>
<path d="M0,0 L3,0 L4,3 L1,3 Z M0,3 Z " fill="#BEA5F6" transform="translate(544,406)"/>
<path d="M0,0 L2,4 L-1,4 L-2,2 L0,2 Z " fill="#BB9CEC" transform="translate(554,400)"/>
</svg>
