<?xml version="1.0" encoding="UTF-8"?>
<!-- Generator: visioncortex VTracer 0.6.4 -->
<svg version="1.1" xmlns="http://www.w3.org/2000/svg" width="1024" height="1024">
<path d="M0,0 L1024,0 L1024,1024 L0,1024 Z " fill="#000000" transform="translate(0,0)"/>
<path d="M0,0 L10,0 L10,2 L14,2 L14,0 L20,0 L20,2 L24,2 L28,6 L28,10 L30,10 L30,12 L34,12 L34,14 L36,14 L36,18 L38,18 L38,22 L40,22 L40,32 L42,32 L44,35 L48,36 L48,38 L50,38 L50,46 L52,46 L52,48 L56,48 L56,54 L60,54 L60,56 L62,56 L62,60 L64,60 L64,64 L70,64 L72,67 L78,68 L78,70 L82,70 L82,72 L92,72 L92,74 L98,74 L98,76 L102,76 L102,78 L106,78 L106,80 L110,80 L114,85 L116,86 L116,106 L118,106 L118,114 L116,114 L116,124 L114,124 L114,146 L112,146 L112,148 L114,148 L114,154 L112,154 L112,174 L110,174 L110,182 L112,182 L112,190 L110,190 L110,194 L112,194 L112,202 L114,202 L114,210 L116,210 L116,220 L120,220 L120,226 L122,226 L122,242 L124,242 L124,246 L126,246 L126,250 L128,250 L128,254 L132,254 L132,258 L136,260 L142,267 L144,268 L144,266 L150,266 L150,268 L154,268 L154,270 L156,270 L156,276 L158,276 L158,282 L160,282 L160,284 L166,284 L166,286 L176,286 L176,294 L178,294 L180,297 L184,298 L188,303 L194,304 L194,306 L212,306 L212,308 L228,308 L232,312 L232,320 L238,320 L238,324 L242,324 L242,328 L244,328 L244,332 L246,332 L246,336 L248,336 L248,340 L250,340 L250,348 L246,348 L246,350 L248,350 L248,356 L254,356 L254,368 L256,368 L256,374 L254,374 L254,382 L252,382 L252,390 L250,390 L250,396 L248,396 L248,404 L246,404 L246,406 L242,410 L240,410 L240,414 L238,414 L238,418 L234,418 L234,420 L218,420 L218,422 L212,422 L212,428 L200,428 L200,430 L196,430 L196,432 L184,432 L184,434 L180,434 L180,438 L174,438 L174,440 L160,440 L160,442 L156,442 L156,444 L142,444 L142,446 L130,446 L130,450 L122,450 L122,452 L112,452 L112,454 L88,454 L88,456 L76,456 L76,458 L68,458 L68,462 L62,462 L62,458 L58,458 L58,462 L52,462 L52,458 L26,458 L26,456 L18,456 L18,454 L12,454 L12,452 L6,452 L6,450 L0,450 L0,446 L-20,446 L-20,444 L-24,444 L-24,442 L-32,442 L-32,440 L-36,440 L-36,436 L-40,436 L-40,434 L-45,433 L-52,426 L-52,424 L-56,424 L-56,422 L-58,422 L-58,418 L-62,418 L-62,414 L-66,414 L-66,410 L-68,410 L-68,408 L-72,408 L-78,401 L-80,400 L-80,396 L-84,396 L-84,392 L-88,392 L-92,387 L-94,386 L-94,382 L-98,380 L-100,376 L-104,376 L-104,372 L-108,370 L-108,368 L-113,367 L-116,364 L-116,362 L-120,362 L-124,358 L-124,354 L-126,354 L-128,347 L-130,346 L-130,338 L-132,338 L-132,328 L-138,328 L-138,326 L-140,326 L-140,300 L-142,300 L-142,280 L-140,280 L-140,276 L-138,276 L-138,266 L-134,266 L-134,262 L-132,262 L-132,242 L-130,242 L-130,226 L-128,226 L-128,224 L-126,224 L-126,216 L-124,216 L-124,210 L-120,210 L-120,198 L-118,198 L-118,190 L-116,190 L-116,186 L-114,186 L-114,180 L-110,178 L-110,176 L-108,176 L-108,170 L-106,170 L-104,164 L-106,164 L-106,154 L-104,154 L-103,149 L-100,148 L-100,146 L-98,146 L-98,138 L-96,138 L-96,132 L-94,132 L-94,126 L-92,126 L-92,120 L-88,116 L-86,116 L-86,114 L-84,114 L-84,108 L-82,108 L-82,102 L-80,102 L-80,98 L-78,98 L-77,93 L-74,92 L-74,84 L-72,84 L-72,80 L-66,80 L-66,78 L-64,78 L-64,74 L-62,74 L-62,72 L-60,72 L-59,67 L-56,66 L-56,64 L-54,64 L-54,58 L-52,58 L-52,56 L-50,56 L-50,44 L-48,44 L-48,40 L-46,40 L-45,35 L-42,34 L-42,32 L-38,32 L-38,26 L-36,26 L-36,20 L-32,20 L-32,18 L-30,18 L-30,16 L-22,16 L-22,14 L-14,14 L-12,10 L-10,10 L-10,8 L-4,8 L-4,6 L0,6 Z " fill="#6569CF" transform="translate(414,262)"/>
<path d="M0,0 L10,0 L10,2 L14,2 L14,0 L20,0 L20,2 L24,2 L28,6 L28,10 L30,10 L30,12 L34,12 L34,14 L36,14 L36,18 L38,18 L38,22 L40,22 L40,32 L42,32 L44,35 L48,36 L48,38 L50,38 L50,46 L52,46 L52,48 L56,48 L56,54 L60,54 L60,56 L62,56 L62,60 L64,60 L64,64 L70,64 L72,67 L78,68 L78,70 L82,70 L82,72 L92,72 L92,74 L98,74 L98,76 L102,76 L102,78 L106,78 L106,80 L110,80 L114,85 L116,86 L116,106 L118,106 L118,114 L116,114 L116,124 L114,124 L114,146 L112,146 L112,148 L114,148 L114,154 L112,154 L112,174 L110,174 L110,182 L112,182 L112,190 L110,190 L110,194 L112,194 L112,202 L114,202 L114,210 L116,210 L116,220 L120,220 L120,226 L122,226 L122,242 L124,242 L124,246 L126,246 L126,250 L128,250 L128,254 L132,254 L132,258 L136,260 L142,267 L144,268 L144,266 L150,266 L150,268 L154,268 L154,270 L156,270 L156,276 L158,276 L158,282 L160,282 L160,284 L166,284 L166,286 L176,286 L176,294 L178,294 L180,297 L184,298 L188,303 L194,304 L194,306 L212,306 L212,308 L228,308 L232,312 L232,320 L238,320 L238,324 L242,324 L242,328 L244,328 L244,332 L246,332 L246,336 L248,336 L248,340 L250,340 L250,348 L246,348 L246,350 L248,350 L248,356 L254,356 L254,368 L256,368 L256,374 L254,374 L254,382 L252,382 L252,390 L250,390 L250,396 L248,396 L248,404 L246,404 L246,406 L242,410 L240,410 L240,414 L238,414 L238,418 L234,418 L234,420 L218,420 L218,422 L212,422 L212,428 L200,428 L200,430 L196,430 L196,432 L184,432 L184,434 L180,434 L180,438 L174,438 L174,440 L160,440 L160,442 L156,442 L156,444 L142,444 L142,446 L130,446 L130,450 L122,450 L122,452 L112,452 L112,454 L88,454 L88,456 L76,456 L76,458 L68,458 L68,462 L62,462 L62,458 L58,458 L58,462 L52,462 L52,458 L26,458 L26,456 L18,456 L18,454 L12,454 L12,452 L6,452 L6,450 L0,450 L0,446 L-20,446 L-20,444 L-24,444 L-24,442 L-32,442 L-32,440 L-36,440 L-36,436 L-40,436 L-40,434 L-45,433 L-52,426 L-52,424 L-56,424 L-56,422 L-58,422 L-58,418 L-62,418 L-62,414 L-66,414 L-66,410 L-68,410 L-68,408 L-72,408 L-78,401 L-80,400 L-80,396 L-84,396 L-84,392 L-88,392 L-92,387 L-94,386 L-94,382 L-98,380 L-100,376 L-104,376 L-104,372 L-108,370 L-108,368 L-113,367 L-116,364 L-116,362 L-120,362 L-124,358 L-124,354 L-126,354 L-128,347 L-130,346 L-130,338 L-132,338 L-132,328 L-138,328 L-138,326 L-140,326 L-140,300 L-142,300 L-142,280 L-140,280 L-140,276 L-138,276 L-138,266 L-134,266 L-134,262 L-132,262 L-132,242 L-130,242 L-130,226 L-128,226 L-128,224 L-126,224 L-126,216 L-124,216 L-124,210 L-120,210 L-120,198 L-118,198 L-118,190 L-116,190 L-116,186 L-114,186 L-114,180 L-110,178 L-110,176 L-108,176 L-108,170 L-106,170 L-104,164 L-106,164 L-106,154 L-104,154 L-103,149 L-100,148 L-100,146 L-98,146 L-98,138 L-96,138 L-96,132 L-94,132 L-94,126 L-92,126 L-92,120 L-88,116 L-86,116 L-86,114 L-84,114 L-84,108 L-82,108 L-82,102 L-80,102 L-80,98 L-78,98 L-77,93 L-74,92 L-74,84 L-72,84 L-72,80 L-66,80 L-66,78 L-64,78 L-64,74 L-62,74 L-62,72 L-60,72 L-59,67 L-56,66 L-56,64 L-54,64 L-54,58 L-52,58 L-52,56 L-50,56 L-50,44 L-48,44 L-48,40 L-46,40 L-45,35 L-42,34 L-42,32 L-38,32 L-38,26 L-36,26 L-36,20 L-32,20 L-32,18 L-30,18 L-30,16 L-22,16 L-22,14 L-14,14 L-12,10 L-10,10 L-10,8 L-4,8 L-4,6 L0,6 Z M16,29 L4,32 L3,35 L-1,37 L-8,41 L-8,39 L-13,39 L-16,39 L-19,42 L-19,44 L-26,45 L-27,43 L-30,48 L-29,55 L-31,55 L-36,70 L-35,78 L-38,78 L-38,84 L-39,87 L-43,89 L-41,90 L-43,95 L-44,103 L-49,103 L-50,106 L-49,107 L-49,121 L-55,123 L-54,120 L-54,101 L-58,103 L-58,110 L-63,109 L-68,114 L-69,122 L-74,125 L-76,131 L-77,138 L-81,140 L-84,140 L-90,145 L-89,152 L-93,156 L-97,170 L-102,173 L-102,182 L-104,183 L-105,187 L-106,188 L-106,211 L-107,215 L-110,215 L-110,213 L-114,215 L-115,220 L-115,228 L-119,229 L-120,232 L-120,249 L-121,250 L-122,265 L-124,272 L-126,282 L-126,298 L-125,300 L-123,325 L-121,331 L-118,331 L-118,340 L-115,341 L-114,345 L-113,341 L-110,341 L-109,345 L-106,357 L-104,357 L-104,355 L-100,354 L-101,347 L-96,346 L-97,351 L-96,360 L-92,365 L-89,365 L-87,370 L-85,370 L-84,378 L-81,379 L-83,382 L-81,384 L-78,384 L-77,389 L-74,389 L-74,396 L-73,398 L-68,398 L-66,395 L-63,395 L-63,393 L-59,390 L-58,394 L-54,395 L-50,396 L-50,394 L-42,394 L-42,404 L-40,406 L-36,406 L-35,408 L-34,417 L-31,420 L-30,420 L-30,414 L-22,415 L-21,419 L-12,419 L-12,421 L-3,423 L-2,425 L22,426 L22,430 L66,432 L70,435 L72,435 L75,432 L84,430 L91,424 L92,425 L100,425 L103,422 L108,420 L108,418 L124,416 L127,414 L132,415 L132,417 L134,417 L135,414 L136,416 L140,416 L141,418 L144,417 L152,417 L155,417 L161,416 L162,417 L176,416 L176,414 L210,414 L210,416 L216,417 L232,416 L236,413 L235,409 L236,406 L241,404 L244,401 L244,396 L244,395 L246,392 L246,381 L249,380 L250,374 L252,374 L250,369 L245,369 L244,367 L243,372 L243,379 L242,384 L238,385 L237,384 L237,382 L233,384 L232,379 L229,379 L231,376 L231,368 L227,368 L228,364 L228,356 L227,354 L228,345 L229,344 L230,331 L228,323 L223,322 L221,324 L218,319 L214,320 L213,323 L209,322 L208,325 L205,322 L202,322 L203,319 L204,318 L211,318 L212,314 L210,314 L210,312 L202,313 L202,311 L198,312 L194,311 L191,311 L180,311 L175,312 L173,311 L163,310 L162,304 L163,301 L154,299 L155,295 L157,294 L156,291 L153,288 L147,287 L148,296 L151,298 L151,306 L153,306 L153,309 L158,311 L160,318 L161,322 L152,319 L152,312 L149,307 L149,300 L140,300 L138,301 L137,297 L132,296 L130,288 L122,286 L118,284 L117,282 L115,282 L117,278 L114,277 L111,278 L111,274 L109,274 L109,272 L105,271 L103,262 L101,262 L103,257 L105,260 L107,260 L105,264 L112,263 L113,261 L116,260 L116,263 L120,262 L120,259 L123,258 L122,249 L119,246 L114,246 L117,234 L118,233 L118,228 L114,226 L111,226 L107,225 L110,221 L110,218 L112,218 L111,210 L109,203 L107,203 L107,205 L105,205 L107,199 L106,186 L102,189 L101,196 L101,211 L100,210 L100,191 L99,191 L98,185 L96,186 L94,189 L93,186 L95,186 L95,178 L96,171 L94,162 L96,161 L94,141 L95,135 L95,117 L96,106 L100,102 L101,93 L99,92 L99,90 L101,89 L100,86 L97,86 L96,79 L89,80 L86,83 L79,83 L78,85 L80,86 L78,92 L80,92 L80,95 L84,95 L82,100 L80,100 L80,98 L76,99 L76,97 L72,97 L72,95 L67,95 L67,93 L62,94 L59,95 L59,93 L57,93 L57,91 L55,91 L53,84 L49,80 L48,74 L43,69 L40,63 L38,62 L37,50 L35,50 L34,45 L30,44 L30,40 L27,39 L26,37 L23,37 L22,31 L21,29 Z M-125,316 Z M-56,113 Z M94,174 Z M113,246 Z M228,414 Z M140,415 Z " fill="#5653A3" transform="translate(414,262)"/>
<path d="M0,0 L4,1 L1,1 L1,3 L3,3 L4,7 L2,8 L3,12 L-1,14 L-3,24 L-1,24 L-2,30 L-4,30 L-4,37 L-6,42 L-7,46 L-11,51 L-12,54 L-14,54 L-15,58 L-20,70 L-23,73 L-27,73 L-28,85 L-30,89 L-35,87 L-37,91 L-40,94 L-41,104 L-42,107 L-44,108 L-46,113 L-48,113 L-46,120 L-50,122 L-54,138 L-57,141 L-60,141 L-60,150 L-62,155 L-63,156 L-63,179 L-65,183 L-68,183 L-68,181 L-72,184 L-72,196 L-77,198 L-77,217 L-78,218 L-79,233 L-81,240 L-83,250 L-83,266 L-82,268 L-80,293 L-79,298 L-76,299 L-75,308 L-73,309 L-71,306 L-71,309 L-68,309 L-65,315 L-64,325 L-62,325 L-62,323 L-59,322 L-59,315 L-54,314 L-53,328 L-50,331 L-50,333 L-47,333 L-45,337 L-43,338 L-42,346 L-35,346 L-39,348 L-39,351 L-36,352 L-34,356 L-30,357 L-32,357 L-31,366 L-26,365 L-25,363 L-27,362 L-22,363 L-21,360 L-19,360 L-18,357 L-16,358 L-16,362 L-14,362 L-13,360 L-12,362 L-8,362 L0,362 L1,367 L-1,371 L-3,371 L-4,373 L-1,373 L0,375 L0,386 L8,387 L8,389 L12,389 L12,393 L18,394 L18,398 L24,398 L25,403 L32,402 L32,406 L43,405 L46,408 L61,409 L61,411 L64,411 L64,413 L62,413 L63,416 L65,417 L76,417 L88,419 L108,419 L128,415 L130,412 L140,413 L140,411 L164,411 L184,413 L184,414 L172,414 L172,418 L164,418 L164,420 L154,420 L154,422 L130,422 L130,424 L118,424 L118,426 L110,426 L110,430 L104,430 L104,426 L100,426 L100,430 L94,430 L94,426 L68,426 L68,424 L60,424 L60,422 L54,422 L54,420 L48,420 L48,418 L42,418 L42,414 L22,414 L22,412 L18,412 L18,410 L10,410 L10,408 L6,408 L6,404 L2,404 L2,402 L-3,401 L-10,394 L-10,392 L-14,392 L-14,390 L-16,390 L-16,386 L-20,386 L-20,382 L-24,382 L-24,378 L-26,378 L-26,376 L-30,376 L-36,369 L-38,368 L-38,364 L-42,364 L-42,360 L-46,360 L-50,355 L-52,354 L-52,350 L-56,348 L-58,344 L-62,344 L-62,340 L-66,338 L-66,336 L-71,335 L-74,332 L-74,330 L-78,330 L-82,326 L-82,322 L-84,322 L-86,315 L-88,314 L-88,306 L-90,306 L-90,296 L-96,296 L-96,294 L-98,294 L-98,268 L-100,268 L-100,248 L-98,248 L-98,244 L-96,244 L-96,234 L-92,234 L-92,230 L-90,230 L-90,210 L-88,210 L-88,194 L-86,194 L-86,192 L-84,192 L-84,184 L-82,184 L-82,178 L-78,178 L-78,166 L-76,166 L-76,158 L-74,158 L-74,154 L-72,154 L-72,148 L-68,146 L-68,144 L-66,144 L-66,138 L-64,138 L-62,132 L-64,132 L-64,122 L-62,122 L-61,117 L-58,116 L-58,114 L-56,114 L-56,106 L-54,106 L-54,100 L-52,100 L-52,94 L-50,94 L-50,88 L-46,84 L-44,84 L-44,82 L-42,82 L-42,76 L-40,76 L-40,70 L-38,70 L-38,66 L-36,66 L-35,61 L-32,60 L-32,52 L-30,52 L-30,48 L-24,48 L-24,46 L-22,46 L-22,42 L-20,42 L-20,40 L-18,40 L-17,35 L-14,34 L-14,32 L-12,32 L-12,26 L-10,26 L-10,24 L-8,24 L-8,12 L-6,12 L-6,8 L-4,8 L-3,3 L0,2 Z M-83,284 Z M4,5 Z " fill="#4B57A5" transform="translate(372,294)"/>
<path d="M0,0 L1,3 L3,3 L4,1 L6,5 L11,5 L13,17 L13,19 L15,19 L16,14 L25,14 L25,18 L34,19 L34,21 L44,22 L44,25 L59,25 L68,26 L68,30 L84,30 L112,31 L118,35 L119,32 L124,30 L131,28 L137,23 L138,24 L146,24 L149,21 L154,20 L154,18 L160,16 L170,15 L173,13 L178,15 L178,17 L180,17 L181,13 L182,16 L187,17 L190,16 L198,16 L200,13 L201,16 L205,16 L207,13 L208,16 L222,16 L222,14 L255,14 L250,19 L242,21 L238,20 L238,24 L225,27 L222,30 L218,30 L218,32 L210,34 L210,36 L205,37 L205,41 L199,40 L201,41 L201,43 L188,43 L188,45 L175,45 L162,44 L152,44 L144,43 L144,45 L134,45 L132,48 L120,50 L112,52 L92,52 L79,50 L69,50 L66,48 L66,45 L68,45 L68,43 L65,43 L65,41 L50,41 L47,38 L36,38 L36,34 L29,35 L28,30 L22,30 L22,26 L16,25 L16,21 L12,21 L12,19 L6,19 L4,18 L3,5 L0,5 Z M186,15 Z " fill="#4C4DAD" transform="translate(368,662)"/>
<path d="M0,0 L10,0 L10,2 L14,2 L14,0 L20,0 L20,2 L24,2 L28,6 L28,10 L30,10 L30,12 L34,12 L34,14 L36,14 L36,18 L38,18 L38,22 L40,22 L40,32 L42,32 L43,37 L38,37 L40,46 L44,53 L44,56 L46,56 L46,58 L48,58 L52,62 L52,68 L54,68 L53,81 L59,81 L60,85 L66,85 L70,84 L71,85 L80,86 L79,90 L78,92 L80,92 L80,95 L84,95 L82,100 L80,100 L80,98 L76,99 L76,97 L72,97 L72,95 L67,95 L67,93 L62,95 L59,95 L59,93 L57,93 L57,91 L55,91 L52,84 L48,80 L48,74 L44,72 L40,65 L40,63 L37,62 L37,50 L35,50 L33,45 L30,44 L30,40 L26,39 L26,37 L23,37 L21,29 L11,31 L4,33 L-1,38 L-5,41 L-8,41 L-8,39 L-14,40 L-16,40 L-21,45 L-26,45 L-28,45 L-29,50 L-28,53 L-29,55 L-31,55 L-32,62 L-35,71 L-35,78 L-38,78 L-37,84 L-42,89 L-41,92 L-43,103 L-45,104 L-49,103 L-48,107 L-48,121 L-55,123 L-55,111 L-54,101 L-57,103 L-58,110 L-62,111 L-63,110 L-67,114 L-69,125 L-70,123 L-73,125 L-75,131 L-77,138 L-82,141 L-84,141 L-87,143 L-86,139 L-84,139 L-83,125 L-78,121 L-77,119 L-72,120 L-71,117 L-70,105 L-65,104 L-63,104 L-61,98 L-56,86 L-54,86 L-53,82 L-49,77 L-48,72 L-46,62 L-44,62 L-43,56 L-45,56 L-45,50 L-43,46 L-40,43 L-40,39 L-39,35 L-41,35 L-41,33 L-38,33 L-38,26 L-36,26 L-36,20 L-32,20 L-32,18 L-30,18 L-30,16 L-22,16 L-22,14 L-14,14 L-12,10 L-10,10 L-10,8 L-4,8 L-4,6 L0,6 Z M-38,37 Z M-56,113 Z " fill="#5260AD" transform="translate(414,262)"/>
<path d="M0,0 L1,2 L3,2 L3,7 L7,8 L7,14 L10,14 L11,8 L16,6 L17,9 L13,17 L8,23 L6,21 L2,24 L0,24 L-2,29 L3,30 L4,32 L3,38 L6,38 L6,43 L4,44 L4,41 L1,41 L-1,46 L0,50 L2,51 L0,56 L-4,63 L-5,67 L-12,68 L-12,75 L-10,78 L-9,76 L-7,77 L-8,79 L-1,79 L-6,85 L-5,92 L-4,94 L-5,98 L-11,99 L-13,98 L-13,114 L-19,122 L-17,128 L-18,131 L-19,136 L-22,139 L-23,141 L-22,146 L-24,149 L-22,151 L-21,155 L-18,158 L-19,163 L-17,170 L-14,171 L-13,180 L-11,180 L-10,184 L-10,188 L-7,189 L-7,191 L-4,191 L-4,194 L-2,194 L-1,199 L2,199 L3,205 L6,206 L4,209 L5,211 L4,219 L4,221 L6,225 L10,225 L9,222 L11,218 L16,219 L14,227 L13,230 L10,229 L10,227 L6,228 L3,229 L3,226 L0,225 L-1,221 L-4,221 L-8,216 L-9,206 L-8,202 L-13,203 L-12,210 L-16,211 L-16,213 L-18,213 L-21,201 L-22,197 L-25,197 L-27,201 L-27,197 L-30,196 L-30,187 L-34,186 L-36,172 L-37,156 L-38,152 L-38,138 L-35,122 L-34,121 L-33,106 L-32,105 L-32,86 L-28,84 L-27,84 L-27,72 L-24,69 L-22,69 L-22,71 L-19,71 L-18,64 L-18,44 L-16,42 L-16,38 L-14,38 L-14,29 L-9,26 L-5,12 L-1,8 L-2,1 Z M2,38 Z M-13,78 Z M-1,78 Z M-4,92 Z M-37,172 Z " fill="#5663BB" transform="translate(326,406)"/>
<path d="M0,0 L6,0 L6,2 L16,2 L16,10 L18,10 L20,13 L24,14 L28,19 L34,20 L34,22 L52,22 L52,24 L68,24 L72,28 L72,36 L78,36 L78,40 L82,40 L82,44 L84,44 L84,48 L86,48 L86,52 L88,52 L88,56 L90,56 L90,64 L86,64 L86,66 L88,66 L88,72 L94,72 L94,84 L96,84 L96,90 L94,90 L94,98 L92,98 L92,106 L90,106 L90,112 L88,112 L88,120 L86,120 L86,122 L82,126 L80,126 L80,130 L78,130 L78,134 L74,134 L74,136 L58,136 L58,138 L52,138 L52,144 L40,144 L40,146 L36,146 L36,148 L24,148 L24,150 L20,150 L20,154 L14,154 L14,156 L0,156 L0,158 L-4,158 L-4,160 L-18,160 L-18,159 L-5,159 L-5,157 L-17,157 L-17,156 L-5,155 L-1,157 L-1,155 L-3,154 L-2,152 L4,152 L4,150 L8,148 L12,148 L12,146 L17,144 L22,141 L32,140 L32,136 L42,135 L48,131 L50,130 L50,132 L72,131 L75,129 L74,124 L82,118 L83,113 L83,110 L85,108 L85,100 L86,97 L89,94 L90,90 L91,89 L88,86 L84,84 L84,95 L82,100 L79,101 L77,105 L76,100 L77,98 L74,100 L72,103 L71,98 L72,95 L69,95 L70,92 L70,85 L66,85 L67,80 L67,72 L66,70 L67,61 L68,60 L69,47 L68,39 L63,39 L60,41 L58,35 L54,37 L53,39 L49,39 L48,41 L45,40 L45,38 L42,38 L41,34 L44,33 L51,34 L50,28 L44,30 L42,29 L42,27 L38,29 L34,29 L31,28 L16,28 L16,26 L14,26 L14,24 L11,24 L11,22 L9,22 L10,16 L8,16 L8,14 L4,13 L2,12 L2,10 L0,10 L0,3 L5,3 L5,1 L0,1 Z M68,130 Z " fill="#4E49A3" transform="translate(574,546)"/>
<path d="M0,0 L5,0 L7,5 L7,8 L10,8 L11,10 L14,11 L14,15 L18,16 L19,21 L21,21 L22,33 L26,37 L29,43 L32,45 L34,53 L37,55 L39,60 L41,73 L43,73 L42,76 L40,76 L38,82 L36,83 L36,71 L32,71 L33,61 L30,54 L30,50 L28,50 L24,44 L22,36 L19,36 L19,34 L17,34 L18,25 L12,23 L12,16 L8,17 L8,15 L4,15 L3,11 L2,15 L0,15 L0,10 L-7,12 L-10,15 L-12,16 L-14,25 L-21,29 L-26,34 L-28,36 L-35,37 L-36,42 L-38,48 L-39,57 L-37,57 L-39,65 L-44,67 L-42,68 L-41,75 L-48,80 L-52,80 L-52,75 L-54,77 L-59,77 L-58,80 L-60,85 L-59,87 L-59,97 L-59,101 L-58,107 L-61,111 L-64,110 L-65,107 L-63,107 L-65,104 L-65,78 L-66,76 L-65,74 L-60,74 L-58,63 L-57,61 L-59,60 L-55,58 L-54,49 L-51,49 L-52,41 L-47,26 L-45,26 L-46,19 L-43,14 L-42,16 L-35,15 L-33,11 L-30,9 L-29,10 L-24,10 L-24,12 L-17,8 L-13,6 L-12,3 Z M-66,109 Z " fill="#5E6BC2" transform="translate(430,291)"/>
<path d="M0,0 L1,2 L3,2 L3,7 L7,8 L7,14 L10,14 L11,8 L16,6 L17,9 L13,17 L8,23 L6,21 L2,24 L0,24 L-2,29 L3,30 L4,32 L3,38 L6,38 L6,43 L4,44 L4,41 L1,41 L-1,46 L0,50 L2,51 L0,56 L-4,63 L-5,67 L-12,68 L-12,75 L-10,81 L-12,81 L-13,85 L-19,84 L-18,90 L-17,102 L-24,103 L-24,106 L-26,122 L-29,123 L-28,133 L-26,133 L-26,135 L-28,135 L-30,140 L-32,140 L-31,154 L-31,167 L-30,176 L-31,178 L-30,183 L-34,184 L-36,172 L-37,156 L-38,152 L-38,138 L-35,122 L-34,121 L-33,106 L-32,105 L-32,86 L-28,84 L-27,84 L-27,72 L-24,69 L-22,69 L-22,71 L-19,71 L-18,64 L-18,44 L-16,42 L-16,38 L-14,38 L-14,29 L-9,26 L-5,12 L-1,8 L-2,1 Z M2,38 Z M-13,78 Z M-37,172 Z " fill="#515EB4" transform="translate(326,406)"/>
<path d="M0,0 L6,2 L6,4 L8,4 L9,0 L10,3 L15,4 L18,3 L26,3 L28,0 L29,3 L33,3 L35,0 L37,6 L29,7 L27,13 L18,14 L7,14 L6,17 L4,17 L4,19 L-2,20 L-17,21 L-18,22 L-23,22 L-27,22 L-33,23 L-35,23 L-36,25 L-49,27 L-54,30 L-60,30 L-60,28 L-68,28 L-68,26 L-72,26 L-72,28 L-88,28 L-99,27 L-100,24 L-114,23 L-113,19 L-132,16 L-132,14 L-146,13 L-155,10 L-156,1 L-147,1 L-147,5 L-138,6 L-138,8 L-128,9 L-128,12 L-113,12 L-104,13 L-104,17 L-88,17 L-60,18 L-54,22 L-53,19 L-48,17 L-41,15 L-35,10 L-34,11 L-26,11 L-23,8 L-18,7 L-18,5 L-12,3 L-2,2 Z M14,2 Z " fill="#5455BB" transform="translate(540,675)"/>
<path d="M0,0 L2,0 L3,6 L2,9 L4,17 L3,19 L5,19 L7,24 L7,29 L3,28 L3,34 L11,34 L12,32 L14,32 L13,28 L18,29 L18,33 L24,33 L26,31 L27,35 L30,35 L30,33 L36,32 L38,32 L45,31 L46,28 L49,28 L49,23 L54,28 L54,31 L56,31 L56,33 L66,33 L72,34 L71,37 L74,37 L75,30 L78,29 L78,26 L84,26 L84,24 L86,24 L87,22 L87,24 L90,24 L90,22 L94,21 L95,30 L97,30 L96,39 L88,39 L89,44 L87,44 L86,50 L85,51 L80,51 L80,47 L75,47 L76,52 L72,54 L66,50 L61,52 L60,54 L58,54 L58,52 L56,52 L56,54 L54,54 L54,51 L32,51 L24,52 L21,51 L16,52 L16,50 L10,50 L8,49 L8,47 L10,47 L10,45 L6,45 L6,38 L1,37 L1,28 L-2,27 L-2,2 Z M18,28 Z " fill="#6467DC" transform="translate(426,630)"/>
<path d="M0,0 L4,0 L4,3 L9,4 L9,10 L16,11 L17,16 L21,17 L27,20 L34,21 L35,25 L42,24 L42,28 L53,27 L56,30 L71,31 L71,33 L74,33 L74,35 L72,35 L73,38 L75,39 L86,39 L98,41 L118,41 L138,37 L140,34 L150,35 L150,33 L174,33 L194,35 L194,36 L182,36 L182,40 L174,40 L174,42 L164,42 L164,44 L140,44 L140,46 L128,46 L128,48 L120,48 L120,52 L114,52 L114,48 L110,48 L110,52 L104,52 L104,48 L78,48 L78,46 L70,46 L70,44 L64,44 L64,42 L58,42 L58,40 L52,40 L52,36 L32,36 L32,34 L28,34 L28,32 L20,32 L20,30 L16,30 L16,26 L12,26 L12,24 L7,23 L0,16 L0,14 L-4,14 L-4,12 L-6,12 L-5,8 L-5,11 L-3,11 L-4,7 L-2,7 L0,10 L4,11 L5,5 L3,5 L3,3 L0,4 Z " fill="#4648A3" transform="translate(362,672)"/>
<path d="M0,0 L4,4 L3,7 L9,6 L9,4 L13,4 L13,7 L15,7 L16,4 L18,3 L26,6 L26,8 L30,8 L30,11 L34,11 L34,13 L36,13 L36,15 L41,13 L42,15 L45,15 L45,19 L49,18 L49,21 L54,21 L54,27 L62,29 L62,31 L57,31 L58,36 L57,38 L59,38 L59,40 L65,42 L65,44 L67,44 L66,50 L68,50 L68,52 L71,52 L71,54 L73,54 L74,57 L60,55 L58,51 L59,47 L60,45 L53,44 L51,43 L52,38 L54,38 L52,36 L50,32 L45,32 L46,40 L49,42 L49,49 L50,53 L56,54 L57,61 L58,66 L49,63 L48,56 L45,51 L46,44 L35,45 L34,41 L29,41 L27,34 L27,32 L21,32 L14,28 L14,26 L12,26 L13,22 L8,22 L8,18 L6,18 L6,16 L2,17 L0,9 L0,6 L-2,6 Z " fill="#5951A9" transform="translate(517,518)"/>
<path d="M0,0 L1,0 L1,9 L3,9 L3,0 L4,0 L4,10 L2,10 L2,32 L0,32 L0,34 L2,34 L2,40 L0,40 L0,60 L-2,60 L-2,68 L0,68 L0,76 L-2,76 L-2,80 L0,80 L0,88 L2,88 L2,96 L4,96 L4,106 L8,106 L8,112 L10,112 L10,128 L12,128 L12,132 L14,132 L14,136 L16,136 L16,140 L20,140 L20,144 L24,146 L30,153 L32,154 L32,152 L38,152 L38,154 L42,154 L42,156 L44,156 L44,162 L46,162 L46,168 L48,168 L47,170 L44,170 L45,163 L43,163 L43,168 L42,168 L42,163 L40,163 L40,160 L36,161 L36,157 L30,158 L32,157 L32,155 L27,157 L27,155 L25,155 L25,153 L21,153 L21,150 L17,150 L17,148 L11,147 L9,145 L10,142 L9,135 L5,133 L2,132 L3,124 L5,119 L5,114 L2,112 L1,114 L-5,111 L-3,107 L-2,104 L0,104 L-3,89 L-5,89 L-5,91 L-7,91 L-6,81 L-7,73 L-9,75 L-10,82 L-11,97 L-13,96 L-13,56 L-11,49 L-10,42 L-6,41 L-7,22 L-6,14 L-4,14 L-1,7 Z M1,132 Z " fill="#5650A8" transform="translate(526,376)"/>
<path d="M0,0 L3,0 L5,5 L5,9 L7,10 L5,13 L7,14 L5,19 L9,19 L9,21 L13,19 L13,21 L15,21 L15,19 L17,19 L17,22 L1,24 L1,26 L-5,29 L-9,31 L-15,31 L-18,31 L-23,36 L-32,38 L-35,41 L-40,39 L-41,38 L-85,36 L-85,32 L-109,31 L-111,29 L-119,27 L-119,25 L-122,24 L-117,25 L-115,26 L-108,26 L-106,24 L-89,24 L-89,26 L-76,25 L-72,24 L-69,25 L-58,24 L-41,25 L-41,28 L-39,28 L-39,26 L-37,26 L-37,28 L-35,28 L-33,24 L-29,23 L-22,27 L-20,25 L-20,21 L-15,21 L-15,25 L-10,24 L-8,18 L-6,18 L-7,13 L-3,12 L1,13 L2,4 L0,4 Z " fill="#5F62D4" transform="translate(521,656)"/>
<path d="M0,0 L1,0 L1,6 L4,7 L3,9 L1,9 L1,7 L-1,7 L0,13 L-1,11 L-3,11 L-3,18 L-1,18 L-2,31 L-4,33 L-7,46 L-9,46 L-9,82 L-12,83 L-11,92 L-14,104 L-16,104 L-16,130 L-17,130 L-18,136 L-16,136 L-16,148 L-17,157 L-15,157 L-15,148 L-13,152 L-13,157 L-14,158 L-15,165 L-13,165 L-13,158 L-11,162 L-9,162 L-10,168 L-11,173 L-9,173 L-9,168 L-8,168 L-8,178 L-10,178 L-10,174 L-12,174 L-14,167 L-16,166 L-16,158 L-18,158 L-18,148 L-24,148 L-24,146 L-26,146 L-26,120 L-28,120 L-28,100 L-26,100 L-26,96 L-24,96 L-24,86 L-20,86 L-20,82 L-18,82 L-18,62 L-16,62 L-16,46 L-14,46 L-14,44 L-12,44 L-12,36 L-10,36 L-10,30 L-6,30 L-6,18 L-4,18 L-4,10 L-2,10 L-2,6 L0,6 Z " fill="#4752A1" transform="translate(300,442)"/>
<path d="M0,0 L3,1 L4,6 L7,7 L9,11 L14,12 L14,20 L19,20 L21,22 L24,22 L24,24 L26,24 L26,28 L31,27 L31,30 L30,32 L32,32 L35,35 L39,37 L45,38 L47,46 L52,47 L53,51 L55,50 L64,50 L64,57 L67,62 L67,69 L76,72 L77,76 L82,76 L81,86 L76,87 L76,85 L72,84 L74,84 L74,81 L71,80 L72,72 L59,69 L57,68 L57,61 L50,62 L37,61 L32,59 L32,55 L34,50 L32,50 L31,48 L26,46 L21,47 L19,41 L16,35 L15,32 L13,32 L12,25 L15,25 L12,19 L12,17 L8,16 L4,10 L4,7 L2,7 L2,5 L-1,5 L-1,3 L-3,3 L-3,1 Z " fill="#685EC6" transform="translate(499,512)"/>
<path d="M0,0 L6,1 L8,9 L7,21 L8,29 L10,28 L12,29 L12,35 L8,43 L7,43 L6,51 L6,69 L3,70 L1,83 L0,86 L0,105 L-2,106 L-3,100 L-5,104 L-7,103 L-7,100 L-5,100 L-6,98 L-6,92 L-5,85 L-6,76 L-5,75 L-7,55 L-6,49 L-6,31 L-5,20 L-3,18 L-1,16 L1,7 L-2,6 L-1,3 L1,3 Z M-6,88 Z " fill="#5955A8" transform="translate(514,348)"/>
<path d="M0,0 L6,0 L6,12 L8,12 L8,18 L6,18 L6,26 L4,26 L4,34 L2,34 L2,40 L0,40 L0,48 L-2,48 L-2,50 L-6,54 L-8,54 L-8,58 L-10,58 L-10,62 L-14,62 L-14,64 L-30,64 L-30,66 L-36,66 L-36,72 L-48,72 L-48,74 L-52,74 L-52,76 L-64,76 L-64,78 L-68,78 L-68,82 L-74,82 L-74,84 L-88,84 L-88,86 L-92,86 L-92,88 L-106,88 L-106,87 L-93,87 L-93,85 L-105,85 L-105,84 L-93,83 L-89,85 L-89,83 L-91,82 L-90,80 L-84,80 L-84,78 L-80,76 L-76,76 L-76,74 L-71,72 L-66,69 L-56,68 L-56,64 L-46,63 L-40,59 L-38,58 L-38,60 L-16,59 L-13,57 L-14,52 L-6,46 L-5,41 L-5,38 L-3,36 L-3,28 L-2,25 L1,22 L2,18 L3,17 L2,17 L2,12 L5,12 L5,1 L0,1 Z M-20,58 Z " fill="#4C46A3" transform="translate(662,618)"/>
<path d="M0,0 L3,1 L3,3 L11,5 L12,26 L15,26 L14,31 L13,41 L11,46 L14,47 L13,56 L14,58 L19,58 L18,61 L18,75 L20,76 L19,81 L20,84 L20,90 L18,91 L14,90 L14,83 L9,81 L11,66 L6,69 L4,70 L3,61 L4,58 L2,57 L3,50 L2,47 L3,42 L5,41 L6,26 L1,28 L0,25 L1,24 L2,12 L0,11 L1,8 L-1,7 L1,7 Z M13,71 Z M12,72 Z M11,73 Z M-2,8 Z " fill="#6A72D9" transform="translate(438,326)"/>
<path d="M0,0 L6,2 L6,4 L8,4 L9,0 L10,3 L15,4 L18,3 L26,3 L28,0 L28,5 L6,8 L5,6 L2,14 L0,14 L0,11 L-3,14 L-4,17 L-7,17 L-8,13 L-16,18 L-33,19 L-42,20 L-50,20 L-50,23 L-55,25 L-71,25 L-97,23 L-98,20 L-104,20 L-104,19 L-90,19 L-86,20 L-85,18 L-60,18 L-54,22 L-53,19 L-48,17 L-41,15 L-35,10 L-34,11 L-26,11 L-23,8 L-18,7 L-18,5 L-12,3 L-2,2 Z M14,2 Z " fill="#5A58C4" transform="translate(540,675)"/>
<path d="M0,0 L10,0 L10,2 L14,2 L14,0 L20,0 L20,2 L24,2 L28,6 L28,10 L30,10 L30,12 L34,12 L34,14 L36,14 L36,18 L38,18 L38,22 L40,22 L40,32 L42,32 L41,34 L38,32 L39,23 L37,23 L37,28 L35,28 L34,25 L31,23 L31,20 L27,19 L25,18 L24,15 L22,14 L22,12 L17,11 L16,10 L6,9 L4,13 L-4,16 L-6,16 L-6,21 L-18,21 L-18,24 L-23,26 L-32,27 L-33,32 L-35,32 L-35,27 L-37,27 L-37,32 L-38,32 L-38,26 L-36,26 L-36,20 L-32,20 L-32,18 L-30,18 L-30,16 L-22,16 L-22,14 L-14,14 L-12,10 L-10,10 L-10,8 L-4,8 L-4,6 L0,6 Z " fill="#4D59A2" transform="translate(414,262)"/>
<path d="M0,0 L7,0 L15,4 L15,6 L17,6 L17,10 L20,11 L21,15 L24,16 L24,22 L27,22 L29,34 L32,37 L36,38 L37,47 L41,48 L42,51 L42,58 L48,58 L49,62 L55,62 L59,61 L60,62 L69,63 L68,67 L67,69 L69,69 L69,72 L73,72 L71,77 L69,77 L69,75 L65,76 L65,74 L61,74 L61,72 L56,72 L56,70 L51,72 L48,72 L48,70 L46,70 L46,68 L44,68 L41,61 L37,57 L37,51 L33,49 L29,42 L29,40 L26,39 L26,27 L24,27 L22,22 L19,21 L19,17 L15,16 L15,14 L12,14 L10,6 L0,8 L-7,10 L-12,15 L-16,18 L-19,18 L-19,16 L-17,16 L-17,11 L-15,11 L-15,9 L-13,8 L-12,3 L-2,2 Z " fill="#5C5FB7" transform="translate(425,285)"/>
<path d="M0,0 L30,0 L25,5 L17,7 L13,6 L13,10 L0,13 L-3,16 L-7,16 L-7,18 L-15,20 L-15,22 L-20,23 L-20,27 L-26,26 L-24,27 L-24,29 L-37,29 L-37,31 L-50,31 L-61,29 L-61,24 L-43,23 L-38,22 L-38,20 L-33,18 L-23,17 L-21,14 L-18,14 L-18,11 L-9,9 L-8,6 L-1,4 Z " fill="#4D46A5" transform="translate(593,676)"/>
<path d="M0,0 L1,2 L3,2 L3,9 L-1,14 L-3,15 L-4,22 L-4,25 L-5,30 L-6,36 L-8,36 L-7,43 L-12,45 L-13,60 L-14,62 L-15,71 L-17,76 L-21,80 L-22,87 L-25,88 L-28,91 L-29,95 L-29,107 L-30,110 L-29,120 L-30,121 L-30,134 L-32,138 L-33,153 L-34,154 L-34,170 L-33,178 L-30,181 L-31,183 L-34,184 L-36,172 L-37,156 L-38,152 L-38,138 L-35,122 L-34,121 L-33,106 L-32,105 L-32,86 L-28,84 L-27,84 L-27,72 L-24,69 L-22,69 L-22,71 L-19,71 L-18,64 L-18,44 L-16,42 L-16,38 L-14,38 L-14,29 L-9,26 L-5,12 L-1,8 L-2,1 Z M-37,172 Z " fill="#4F5BAE" transform="translate(326,406)"/>
<path d="M0,0 L1,4 L0,12 L-2,16 L-4,18 L-5,24 L-1,23 L-5,38 L-9,44 L-10,48 L-9,52 L-9,59 L-11,65 L-10,68 L-7,68 L-7,74 L-11,74 L-12,81 L-16,81 L-18,73 L-17,67 L-20,65 L-21,61 L-23,59 L-21,56 L-22,49 L-19,48 L-17,44 L-17,39 L-17,37 L-18,32 L-12,24 L-12,12 L-11,8 L-3,8 L-2,3 Z " fill="#5D6CCA" transform="translate(324,496)"/>
<path d="M0,0 L4,4 L3,7 L10,7 L13,9 L12,15 L19,18 L19,22 L21,21 L22,18 L29,18 L27,28 L45,30 L45,37 L46,40 L49,42 L49,49 L50,53 L56,54 L57,61 L58,66 L49,63 L48,56 L45,51 L46,44 L35,45 L34,41 L29,41 L27,34 L27,32 L21,32 L14,28 L14,26 L12,26 L13,22 L8,22 L8,18 L6,18 L6,16 L2,17 L0,9 L0,6 L-2,6 Z " fill="#5F56B6" transform="translate(517,518)"/>
<path d="M0,0 L1,3 L3,3 L4,1 L6,5 L11,5 L13,17 L13,19 L17,20 L17,23 L26,25 L40,27 L40,29 L54,30 L60,31 L58,36 L68,36 L72,37 L73,39 L100,41 L100,39 L104,39 L104,41 L112,41 L112,45 L104,45 L95,43 L80,42 L79,45 L71,45 L65,43 L65,41 L50,41 L47,38 L36,38 L36,34 L29,35 L28,30 L22,30 L22,26 L16,25 L16,21 L12,21 L12,19 L6,19 L4,18 L3,5 L0,5 Z " fill="#4F55B4" transform="translate(368,662)"/>
<path d="M0,0 L1,0 L1,8 L3,8 L3,16 L1,16 L1,20 L3,20 L3,28 L5,28 L5,36 L7,36 L7,46 L11,46 L11,52 L13,52 L13,68 L15,68 L15,72 L17,72 L17,76 L19,76 L19,80 L23,80 L23,84 L27,86 L33,93 L35,94 L35,92 L41,92 L41,94 L45,94 L45,96 L47,96 L47,102 L49,102 L49,108 L51,108 L50,110 L47,110 L48,103 L46,103 L46,108 L45,108 L45,103 L43,103 L43,100 L39,101 L39,97 L33,98 L35,97 L35,95 L30,97 L30,95 L28,95 L28,93 L24,93 L24,90 L20,90 L20,88 L14,87 L12,85 L13,82 L12,75 L8,73 L5,72 L6,64 L8,59 L8,54 L5,52 L4,54 L-2,51 L0,47 L1,44 L3,44 L-1,29 L-1,8 Z M4,72 Z " fill="#534C9C" transform="translate(523,436)"/>
<path d="M0,0 L2,0 L3,6 L2,9 L4,17 L3,19 L5,19 L7,24 L7,29 L3,28 L3,34 L11,34 L12,32 L14,32 L13,28 L18,29 L18,33 L24,33 L26,31 L27,35 L30,35 L30,33 L36,32 L38,32 L45,31 L46,28 L49,28 L49,23 L54,28 L54,31 L56,31 L56,33 L66,33 L72,34 L71,36 L62,37 L50,37 L49,39 L38,40 L32,40 L28,41 L26,43 L26,41 L6,41 L6,38 L1,37 L1,28 L-2,27 L-2,2 Z M18,28 Z " fill="#6D71E6" transform="translate(426,630)"/>
<path d="M0,0 L1,3 L2,8 L1,10 L-1,10 L-2,17 L-5,26 L-5,33 L-8,33 L-7,39 L-12,44 L-11,47 L-13,58 L-15,59 L-19,58 L-18,62 L-18,76 L-25,78 L-25,55 L-21,51 L-18,43 L-17,39 L-19,39 L-19,34 L-16,33 L-16,29 L-13,29 L-14,25 L-13,20 L-12,15 L-7,12 L-6,3 L-3,1 Z M-26,68 Z " fill="#5465BD" transform="translate(384,307)"/>
<path d="M0,0 L6,2 L13,5 L17,7 L12,7 L12,9 L17,8 L24,8 L24,9 L18,9 L18,11 L25,11 L26,9 L67,9 L71,10 L71,8 L73,7 L86,7 L87,8 L110,9 L110,7 L87,7 L87,6 L111,6 L120,7 L120,5 L111,5 L111,4 L119,4 L119,1 L117,0 L128,0 L141,1 L141,2 L129,2 L129,6 L121,6 L121,8 L111,8 L111,10 L87,10 L87,12 L75,12 L75,14 L67,14 L67,18 L61,18 L61,14 L57,14 L57,18 L51,18 L51,14 L25,14 L25,12 L17,12 L17,10 L11,10 L11,8 L5,8 L5,6 L-1,6 L-1,2 L-21,2 L-21,1 Z " fill="#4249A1" transform="translate(415,706)"/>
<path d="M0,0 L1,0 L1,8 L4,9 L2,12 L2,14 L0,14 L1,18 L-1,22 L1,22 L1,28 L-5,31 L-7,31 L-9,40 L-10,42 L-12,42 L-14,48 L-18,50 L-20,70 L-22,70 L-22,76 L-27,80 L-29,80 L-28,87 L-33,87 L-31,95 L-33,95 L-33,97 L-35,97 L-35,95 L-39,96 L-38,94 L-36,94 L-36,92 L-34,92 L-34,86 L-32,86 L-30,80 L-32,80 L-32,70 L-30,70 L-29,65 L-26,64 L-26,62 L-24,62 L-24,54 L-22,54 L-22,48 L-20,48 L-20,42 L-18,42 L-18,36 L-14,32 L-12,32 L-12,30 L-10,30 L-10,24 L-8,24 L-8,18 L-6,18 L-6,14 L-4,14 L-3,9 L0,8 Z " fill="#4956A1" transform="translate(340,346)"/>
<path d="M0,0 L3,1 L2,4 L-5,7 L-8,10 L-15,11 L-15,14 L-18,14 L-20,18 L-32,19 L-33,21 L-35,20 L-35,22 L-60,24 L-66,26 L-92,26 L-92,28 L-104,29 L-99,25 L-90,24 L-86,24 L-85,21 L-79,21 L-74,19 L-73,20 L-68,20 L-67,19 L-46,18 L-44,13 L-40,12 L-28,12 L-23,11 L-21,5 L-14,4 L-14,3 L0,2 Z " fill="#574EB5" transform="translate(590,676)"/>
<path d="M0,0 L6,0 L6,12 L8,12 L6,20 L1,22 L3,23 L4,30 L-3,35 L-7,35 L-7,30 L-9,32 L-14,32 L-13,35 L-15,40 L-14,42 L-14,52 L-14,56 L-13,62 L-16,66 L-19,65 L-20,62 L-18,62 L-20,59 L-20,33 L-21,31 L-20,29 L-15,29 L-12,24 L-9,24 L-7,18 L-6,17 L-5,10 L-2,7 L-5,7 L-4,3 Z M-21,64 Z " fill="#5B6BC8" transform="translate(385,336)"/>
<path d="M0,0 L6,0 L6,2 L16,2 L16,10 L18,10 L20,13 L24,14 L28,19 L34,20 L34,22 L52,22 L52,24 L68,24 L72,28 L72,36 L71,36 L71,29 L69,29 L69,35 L67,31 L67,25 L52,25 L52,27 L34,26 L33,29 L31,28 L16,28 L16,26 L14,26 L14,24 L11,24 L11,22 L9,22 L10,16 L8,16 L8,14 L4,13 L2,12 L2,10 L0,10 L0,3 L5,3 L5,1 L0,1 Z " fill="#524AA1" transform="translate(574,546)"/>
<path d="M0,0 L5,1 L7,2 L14,2 L16,0 L33,0 L33,2 L41,2 L41,8 L46,7 L55,7 L55,9 L60,9 L65,10 L70,9 L75,7 L93,7 L100,8 L100,6 L103,4 L115,4 L115,2 L121,2 L116,6 L112,7 L107,7 L104,7 L99,12 L90,14 L87,17 L82,15 L81,14 L37,12 L37,8 L13,7 L11,5 L3,3 L3,1 Z " fill="#5C60CC" transform="translate(399,680)"/>
<path d="M0,0 L2,1 L2,5 L4,5 L5,3 L6,5 L10,5 L18,5 L19,10 L17,14 L15,14 L14,16 L17,16 L18,18 L18,29 L26,30 L26,32 L30,32 L30,36 L36,37 L36,41 L42,41 L42,42 L35,42 L29,39 L25,37 L24,32 L17,31 L17,25 L12,24 L10,22 L8,21 L9,24 L11,24 L11,26 L13,26 L13,32 L11,34 L11,32 L7,31 L6,28 L5,32 L3,32 L2,29 L-1,28 L-1,26 L2,26 L1,20 L2,14 L-7,13 L-10,12 L-11,9 L-8,8 L-7,6 L-9,5 L-4,6 L-3,3 L-1,3 Z " fill="#4B59AA" transform="translate(354,651)"/>
<path d="M0,0 L3,0 L4,9 L6,10 L8,7 L8,10 L11,10 L14,16 L15,26 L17,26 L17,24 L20,23 L20,16 L25,15 L26,29 L29,32 L29,34 L32,34 L34,38 L36,39 L37,47 L44,47 L40,49 L40,52 L43,53 L45,57 L49,58 L47,58 L48,62 L46,64 L46,62 L42,64 L38,64 L38,62 L41,61 L36,60 L34,60 L34,58 L36,58 L36,56 L34,56 L34,54 L32,54 L31,49 L24,48 L25,43 L24,39 L20,39 L19,32 L19,29 L16,29 L16,27 L12,26 L7,16 L4,15 L4,13 L2,13 L0,4 Z " fill="#515EAD" transform="translate(293,593)"/>
<path d="M0,0 L4,0 L4,3 L9,4 L9,10 L16,11 L17,16 L21,17 L27,20 L34,21 L35,25 L42,24 L42,28 L53,27 L56,30 L71,31 L71,33 L74,33 L74,35 L69,36 L66,34 L58,34 L58,32 L48,31 L33,31 L31,28 L20,27 L20,29 L17,29 L17,26 L12,26 L12,24 L7,23 L0,16 L0,14 L-4,14 L-4,12 L-6,12 L-5,8 L-5,11 L-3,11 L-4,7 L-2,7 L0,10 L4,11 L5,5 L3,5 L3,3 L0,4 Z " fill="#4B55A6" transform="translate(362,672)"/>
<path d="M0,0 L4,0 L4,2 L6,2 L6,6 L8,6 L8,10 L14,10 L16,13 L22,14 L22,16 L26,16 L26,18 L36,18 L36,20 L42,20 L42,22 L46,22 L46,24 L50,24 L50,26 L54,26 L58,31 L60,32 L60,52 L62,52 L62,60 L61,60 L61,53 L59,53 L59,59 L58,59 L59,33 L57,33 L57,48 L56,48 L56,33 L53,33 L53,31 L50,30 L53,27 L47,28 L49,27 L49,25 L43,26 L45,25 L45,23 L42,24 L32,24 L26,27 L15,27 L10,28 L10,21 L6,20 L3,15 L2,12 L-1,11 L-2,5 L0,5 L0,3 L3,3 L3,1 Z " fill="#5251A0" transform="translate(470,316)"/>
<path d="M0,0 L2,0 L3,9 L5,9 L4,18 L-4,18 L-3,23 L-5,23 L-6,29 L-7,30 L-12,30 L-12,26 L-17,26 L-16,31 L-20,33 L-26,29 L-30,29 L-30,23 L-26,21 L-20,22 L-19,18 L-17,18 L-16,11 L-14,5 L-8,5 L-8,3 L-6,3 L-5,1 L-5,3 L-2,3 L-2,1 Z " fill="#6E62DB" transform="translate(518,651)"/>
<path d="M0,0 L10,0 L16,3 L16,5 L19,6 L19,9 L25,11 L26,14 L29,16 L29,19 L31,19 L31,14 L33,14 L33,23 L37,25 L37,28 L30,29 L29,26 L27,26 L25,23 L25,18 L22,18 L23,12 L16,12 L14,8 L4,5 L-2,6 L-10,12 L-15,17 L-31,20 L-32,24 L-39,25 L-42,34 L-44,39 L-45,44 L-47,49 L-49,49 L-49,47 L-51,47 L-51,41 L-49,37 L-46,34 L-46,30 L-45,26 L-47,26 L-47,24 L-44,23 L-43,18 L-41,18 L-41,23 L-39,23 L-39,18 L-38,17 L-24,15 L-24,12 L-13,11 L-12,7 L-2,3 Z M-44,28 Z " fill="#4E5DA7" transform="translate(420,271)"/>
<path d="M0,0 L4,1 L2,5 L2,11 L1,16 L-2,16 L-2,20 L-4,21 L-5,26 L-3,26 L-4,34 L-7,39 L-9,39 L-11,43 L-13,45 L-14,52 L-18,53 L-19,52 L-23,56 L-25,67 L-26,65 L-29,67 L-31,73 L-33,80 L-38,83 L-40,83 L-43,85 L-42,81 L-40,81 L-39,67 L-34,63 L-33,61 L-28,62 L-27,59 L-26,47 L-21,46 L-19,46 L-17,40 L-12,28 L-10,28 L-9,24 L-5,19 L-4,14 L-2,4 L0,4 Z " fill="#505EB0" transform="translate(370,320)"/>
<path d="M0,0 L2,0 L2,8 L12,8 L13,14 L13,28 L9,44 L5,46 L3,49 L2,44 L3,41 L0,41 L1,38 L1,31 L-3,31 L-2,26 L-2,18 L-3,16 L-2,7 Z " fill="#504AAB" transform="translate(643,600)"/>
<path d="M0,0 L5,2 L5,4 L7,4 L6,7 L14,7 L15,11 L19,11 L21,15 L20,19 L26,20 L27,21 L27,26 L29,26 L29,28 L31,28 L31,30 L29,30 L29,32 L35,31 L37,34 L35,35 L33,34 L33,36 L38,34 L41,34 L43,39 L48,41 L52,43 L58,44 L58,56 L55,56 L55,58 L58,59 L54,59 L54,55 L50,55 L50,51 L48,51 L48,49 L44,49 L38,42 L36,41 L36,37 L32,37 L32,33 L28,33 L24,28 L22,27 L22,23 L18,21 L16,17 L12,17 L12,13 L8,11 L8,9 L3,8 L0,5 L0,3 L-4,2 L0,2 Z " fill="#404B91" transform="translate(298,621)"/>
<path d="M0,0 L4,1 L1,1 L1,3 L3,3 L4,7 L2,8 L3,12 L-1,14 L-3,24 L-1,24 L-2,30 L-5,32 L-7,38 L-11,42 L-13,42 L-13,46 L-15,46 L-16,51 L-18,52 L-19,50 L-23,52 L-27,51 L-24,51 L-24,49 L-29,49 L-30,52 L-30,48 L-24,48 L-24,46 L-22,46 L-22,42 L-20,42 L-20,40 L-18,40 L-17,35 L-14,34 L-14,32 L-12,32 L-12,26 L-10,26 L-10,24 L-8,24 L-8,12 L-6,12 L-6,8 L-4,8 L-3,3 L0,2 Z M4,5 Z " fill="#48539B" transform="translate(372,294)"/>
<path d="M0,0 L5,1 L5,3 L7,3 L7,11 L9,11 L9,13 L13,13 L13,20 L16,20 L16,22 L13,22 L13,24 L11,24 L13,30 L18,35 L19,39 L24,39 L23,47 L20,47 L15,39 L12,40 L10,39 L11,33 L9,33 L9,27 L5,25 L5,23 L3,23 L3,21 L1,21 L-3,12 L-5,8 L-5,2 L0,2 Z " fill="#5456A6" transform="translate(457,297)"/>
<path d="M0,0 L2,0 L2,5 L4,5 L5,0 L6,0 L6,5 L14,6 L15,13 L20,13 L21,19 L19,24 L21,24 L21,26 L24,26 L28,35 L30,40 L32,40 L36,51 L36,57 L34,62 L33,62 L33,54 L28,56 L28,48 L24,47 L23,28 L16,27 L15,26 L15,17 L9,16 L9,14 L7,14 L7,10 L0,10 L0,5 L-8,5 L-6,1 Z " fill="#666CC9" transform="translate(428,301)"/>
<path d="M0,0 L1,0 L2,5 L7,6 L8,10 L10,9 L19,9 L19,16 L22,21 L22,28 L31,31 L32,35 L37,35 L36,45 L31,46 L31,44 L27,43 L29,43 L29,40 L26,39 L27,31 L14,28 L12,27 L12,20 L5,21 L5,18 L2,18 L3,10 L0,7 L-2,1 Z " fill="#6458BE" transform="translate(544,553)"/>
<path d="M0,0 L9,0 L9,4 L18,5 L18,7 L28,8 L28,11 L43,11 L52,12 L52,16 L68,16 L71,17 L70,21 L70,19 L46,19 L38,17 L24,15 L24,13 L10,12 L1,9 Z " fill="#5861C2" transform="translate(384,676)"/>
<path d="M0,0 L6,0 L4,4 L0,8 L-4,9 L-7,18 L-5,18 L-5,25 L-9,27 L-10,31 L-16,34 L-18,38 L-14,37 L-16,41 L-18,41 L-18,48 L-21,53 L-22,55 L-25,56 L-27,58 L-26,49 L-25,47 L-27,46 L-23,44 L-22,35 L-19,35 L-20,27 L-15,12 L-11,13 L-12,14 L-10,15 L-10,17 L-8,17 L-8,9 L-6,9 L-6,7 L-2,7 L-2,1 Z " fill="#5968C0" transform="translate(398,305)"/>
<path d="M0,0 L9,3 L9,5 L13,5 L13,8 L17,8 L17,10 L19,10 L19,12 L24,10 L25,12 L28,12 L28,16 L32,15 L32,18 L37,18 L37,24 L45,26 L45,28 L40,28 L41,33 L39,33 L39,29 L30,27 L27,26 L27,24 L17,23 L16,18 L14,18 L14,14 L8,14 L7,12 L5,12 L6,7 L1,6 Z " fill="#5850A6" transform="translate(534,521)"/>
<path d="M0,0 L2,2 L1,6 L0,11 L1,12 L1,21 L-1,26 L1,26 L1,32 L2,34 L1,36 L2,51 L4,59 L3,60 L8,61 L8,63 L12,63 L12,68 L11,66 L8,69 L4,69 L4,67 L1,66 L1,64 L-1,64 L-2,47 L-2,42 L-7,42 L-6,38 L-7,33 L-7,21 L-4,17 L-2,17 L-3,12 L-5,12 L-5,6 L-4,4 L-2,4 Z " fill="#6663C9" transform="translate(468,447)"/>
<path d="M0,0 L30,0 L25,5 L17,7 L13,6 L13,10 L-3,12 L-5,13 L-9,12 L-11,16 L-21,16 L-21,14 L-18,14 L-18,11 L-9,9 L-8,6 L-1,4 Z " fill="#4F48AA" transform="translate(593,676)"/>
<path d="M0,0 L11,1 L13,3 L13,7 L15,7 L16,19 L20,23 L23,29 L26,31 L28,39 L31,41 L33,46 L35,59 L37,59 L36,62 L34,62 L32,68 L30,69 L30,57 L26,57 L27,47 L24,40 L24,36 L22,36 L18,30 L16,22 L13,22 L13,20 L11,20 L12,11 L6,9 L6,2 L2,3 L2,1 Z " fill="#6369C1" transform="translate(436,305)"/>
<path d="M0,0 L3,0 L5,5 L5,9 L7,10 L5,13 L7,14 L5,19 L9,19 L9,21 L13,19 L13,21 L15,21 L15,19 L17,19 L17,22 L1,24 L1,26 L-7,26 L-7,28 L-19,29 L-22,30 L-22,32 L-29,32 L-27,28 L-21,26 L-20,21 L-15,21 L-15,25 L-10,24 L-8,18 L-6,18 L-7,13 L-3,12 L1,13 L2,4 L0,4 Z " fill="#655FD3" transform="translate(521,656)"/>
<path d="M0,0 L1,2 L5,3 L4,20 L4,50 L2,57 L2,70 L-1,70 L-1,64 L-2,58 L-1,57 L-3,37 L-2,31 L-2,13 L-1,2 Z M-2,70 Z " fill="#5E59B0" transform="translate(510,366)"/>
<path d="M0,0 L12,0 L19,1 L19,2 L12,3 L10,5 L0,5 L0,10 L-3,11 L-5,18 L-13,19 L-15,19 L-20,24 L-25,24 L-28,24 L-27,20 L-22,15 L-17,11 L-12,6 L-4,6 L-1,5 Z " fill="#5563B4" transform="translate(413,283)"/>
<path d="M0,0 L1,4 L0,7 L2,11 L1,14 L0,19 L-3,22 L-4,24 L-3,29 L-5,32 L-3,34 L-2,38 L1,41 L0,46 L2,53 L4,53 L2,60 L0,59 L0,53 L-5,53 L-7,40 L-10,33 L-11,31 L-11,24 L-9,20 L-5,16 L-5,5 L-2,5 Z M-6,53 Z " fill="#5966C2" transform="translate(307,523)"/>
<path d="M0,0 L1,3 L3,3 L4,1 L6,5 L11,5 L13,17 L13,19 L17,20 L17,23 L26,25 L40,27 L40,29 L54,30 L60,31 L58,34 L58,32 L48,33 L39,33 L36,33 L31,32 L22,30 L22,26 L16,25 L16,21 L12,21 L12,19 L6,19 L4,18 L3,5 L0,5 Z " fill="#505CB1" transform="translate(368,662)"/>
<path d="M0,0 L2,0 L3,6 L2,9 L4,17 L3,19 L5,19 L7,24 L7,29 L3,28 L3,34 L11,34 L14,33 L18,35 L18,38 L21,37 L22,35 L25,35 L27,39 L26,43 L26,41 L6,41 L6,38 L1,37 L1,28 L-2,27 L-2,2 Z " fill="#666FDE" transform="translate(426,630)"/>
<path d="M0,0 L6,0 L6,12 L8,12 L8,18 L6,18 L6,26 L4,26 L4,34 L2,34 L2,40 L0,40 L0,48 L-2,48 L-2,50 L-6,54 L-8,54 L-8,58 L-10,58 L-10,62 L-14,61 L-11,61 L-14,55 L-13,52 L-10,49 L-5,45 L-6,38 L-4,38 L-3,31 L-2,25 L1,22 L2,18 L3,17 L2,17 L2,12 L5,12 L5,1 L0,1 Z " fill="#424299" transform="translate(662,618)"/>
<path d="M0,0 L2,4 L1,8 L1,18 L-3,19 L-3,15 L-5,15 L-4,18 L-3,35 L-2,37 L-1,55 L0,60 L0,62 L2,63 L-3,63 L-3,65 L2,65 L2,66 L-4,66 L-4,64 L-6,64 L-6,38 L-8,38 L-8,18 L-6,18 L-6,14 L-4,14 L-4,4 L0,4 Z " fill="#404A95" transform="translate(280,524)"/>
<path d="M0,0 L1,0 L1,17 L0,18 L-1,33 L-3,40 L-5,50 L-5,66 L-4,68 L-4,84 L-6,84 L-5,91 L-8,90 L-8,83 L-9,78 L-10,52 L-8,52 L-7,44 L-6,35 L-6,31 L-4,30 L-4,21 L-2,6 L0,6 Z " fill="#4B56AC" transform="translate(294,494)"/>
<path d="M0,0 L1,0 L1,8 L3,8 L3,16 L1,16 L1,20 L3,20 L3,28 L5,28 L5,36 L7,36 L7,46 L11,46 L11,52 L13,52 L13,68 L15,68 L14,72 L14,69 L12,69 L11,71 L12,53 L10,53 L10,68 L9,68 L8,54 L5,52 L4,54 L-2,51 L0,47 L1,44 L3,44 L-1,29 L-1,8 Z " fill="#4C4997" transform="translate(523,436)"/>
<path d="M0,0 L8,1 L5,2 L5,4 L9,5 L5,5 L5,7 L-7,7 L-7,9 L-11,9 L-11,13 L-17,13 L-17,15 L-31,15 L-31,17 L-35,17 L-35,19 L-49,19 L-49,18 L-36,18 L-36,16 L-48,16 L-48,15 L-36,14 L-32,16 L-32,14 L-34,13 L-33,11 L-27,11 L-27,9 L-23,7 L-11,4 L-7,2 Z " fill="#443C95" transform="translate(605,687)"/>
<path d="M0,0 L3,0 L3,3 L6,4 L6,6 L9,4 L13,4 L15,6 L15,11 L19,12 L19,15 L21,15 L22,24 L21,26 L24,26 L23,30 L19,30 L17,30 L16,24 L13,24 L12,19 L10,19 L10,16 L7,16 L7,14 L3,13 L3,5 L0,6 Z " fill="#5E6DC9" transform="translate(312,581)"/>
<path d="M0,0 L8,1 L12,0 L15,2 L13,2 L14,7 L12,7 L11,13 L10,14 L5,14 L5,10 L0,10 L1,15 L-3,17 L-9,13 L-13,13 L-13,7 L-9,5 L-3,6 L-2,2 L0,2 Z " fill="#6863D9" transform="translate(501,667)"/>
<path d="M0,0 L6,0 L7,4 L13,4 L17,3 L18,4 L27,5 L26,9 L25,11 L27,11 L27,14 L31,14 L29,19 L27,19 L27,17 L23,18 L23,16 L19,16 L19,14 L14,14 L14,12 L9,14 L6,14 L5,12 L5,6 L3,6 L3,4 L1,4 Z " fill="#5C5AB4" transform="translate(467,343)"/>
<path d="M0,0 L1,3 L2,8 L1,10 L-1,10 L-2,17 L-5,26 L-5,33 L-9,34 L-10,30 L-14,30 L-15,34 L-18,35 L-19,39 L-19,34 L-16,33 L-16,29 L-13,29 L-14,25 L-13,20 L-12,15 L-7,12 L-6,3 L-3,1 Z " fill="#5464B3" transform="translate(384,307)"/>
<path d="M0,0 L5,0 L4,10 L5,12 L10,12 L9,15 L9,29 L11,30 L10,35 L11,38 L11,44 L9,45 L5,44 L5,37 L0,35 L1,29 L4,26 L6,26 L2,18 L3,12 L-1,16 L-3,16 L-2,11 L0,11 L-2,5 Z " fill="#696DD6" transform="translate(447,372)"/>
<path d="M0,0 L4,0 L4,3 L9,4 L9,10 L16,11 L16,17 L18,18 L16,23 L13,23 L13,25 L16,26 L12,26 L12,24 L7,23 L0,16 L0,14 L-4,14 L-4,12 L-6,12 L-5,8 L-5,11 L-3,11 L-4,7 L-2,7 L0,10 L4,11 L5,5 L3,5 L3,3 L0,4 Z " fill="#4A55A6" transform="translate(362,672)"/>
<path d="M0,0 L3,0 L6,4 L9,10 L9,15 L13,15 L14,13 L20,16 L20,18 L22,18 L20,26 L25,28 L22,30 L19,31 L13,29 L13,31 L11,31 L11,29 L9,29 L7,33 L5,34 L4,30 L-2,28 L1,26 L17,27 L16,18 L7,17 L7,14 L1,15 L-1,8 L1,4 L-1,4 Z " fill="#6C61CF" transform="translate(511,544)"/>
<path d="M0,0 L10,0 L10,2 L14,2 L14,0 L20,0 L20,2 L24,2 L28,6 L28,10 L30,10 L30,12 L34,12 L34,14 L36,14 L36,18 L38,18 L38,22 L40,22 L40,32 L42,32 L41,34 L38,32 L39,23 L37,23 L37,28 L35,28 L34,25 L31,23 L30,16 L28,15 L29,11 L27,11 L27,13 L24,13 L23,7 L18,7 L19,5 L23,5 L23,3 L16,4 L16,6 L3,6 L3,3 L9,3 L9,1 L1,1 L1,6 L0,6 Z " fill="#4D5496" transform="translate(414,262)"/>
<path d="M0,0 L2,3 L3,6 L-5,7 L-7,13 L-16,14 L-27,14 L-30,16 L-38,15 L-37,11 L-34,11 L-34,14 L-32,14 L-31,7 L-28,5 L-27,7 L-14,5 L-6,5 L-5,3 L-1,3 Z " fill="#5B51BD" transform="translate(574,675)"/>
<path d="M0,0 L25,0 L29,3 L35,2 L35,5 L30,7 L14,7 L-12,5 L-13,2 L-19,2 L-19,1 L-5,1 L-1,2 Z " fill="#565AC3" transform="translate(455,693)"/>
<path d="M0,0 L1,0 L1,9 L3,9 L3,0 L4,0 L4,10 L2,10 L2,32 L0,32 L0,34 L2,34 L2,40 L0,40 L0,60 L-1,60 L-2,35 L-4,34 L-1,34 L-1,32 L-4,31 L-3,28 L-5,28 L-7,22 L-6,14 L-4,14 L-1,7 Z " fill="#4F4C98" transform="translate(526,376)"/>
<path d="M0,0 L3,0 L5,5 L10,7 L14,9 L20,10 L20,22 L17,22 L17,24 L20,25 L16,25 L16,21 L12,21 L12,17 L10,17 L10,15 L6,15 L0,8 L-2,7 L-2,2 Z " fill="#4752A0" transform="translate(336,655)"/>
<path d="M0,0 L1,4 L6,5 L11,14 L14,18 L17,19 L19,23 L23,24 L21,24 L22,28 L20,30 L20,28 L16,30 L12,30 L12,28 L15,27 L10,26 L8,26 L8,24 L10,24 L10,22 L8,22 L8,20 L6,20 L5,15 L-2,14 L-1,9 L-2,6 Z " fill="#4A58A5" transform="translate(319,627)"/>
<path d="M0,0 L4,1 L4,5 L6,5 L6,7 L10,6 L13,8 L13,17 L20,19 L22,38 L25,39 L25,48 L22,52 L20,59 L18,61 L20,47 L22,42 L19,42 L18,34 L18,21 L15,22 L15,20 L10,19 L9,15 L9,11 L3,9 L1,4 L-4,3 L-3,1 Z " fill="#696ED2" transform="translate(431,310)"/>
<path d="M0,0 L3,1 L3,3 L11,5 L11,12 L10,16 L10,23 L6,27 L1,28 L0,25 L1,24 L2,12 L0,11 L1,8 L-1,7 L1,7 Z M-2,8 Z " fill="#6D75D8" transform="translate(438,326)"/>
<path d="M0,0 L5,1 L5,4 L8,4 L10,12 L12,12 L15,15 L18,24 L21,30 L21,33 L23,33 L23,35 L25,35 L29,39 L29,45 L31,45 L30,51 L28,48 L25,47 L24,38 L19,37 L19,35 L16,34 L15,22 L12,22 L12,16 L8,15 L7,11 L5,10 L5,6 L3,6 L3,4 L0,4 Z " fill="#585EAD" transform="translate(437,285)"/>
<path d="M0,0 L5,1 L7,2 L14,2 L16,0 L33,0 L33,2 L41,2 L41,11 L38,8 L13,7 L11,5 L3,3 L3,1 Z " fill="#5E68CB" transform="translate(399,680)"/>
<path d="M0,0 L4,1 L3,8 L6,8 L6,13 L4,14 L4,11 L1,11 L-1,16 L0,20 L2,21 L0,26 L-4,33 L-5,37 L-7,36 L-8,29 L-6,15 L-4,14 L-4,12 L-6,11 L-4,8 L-2,8 L-2,2 Z M2,8 Z " fill="#5462B5" transform="translate(326,436)"/>
<path d="M0,0 L3,1 L4,6 L7,7 L9,11 L14,12 L14,20 L19,20 L21,22 L24,22 L24,24 L26,24 L26,28 L31,27 L31,30 L30,32 L32,32 L35,35 L39,38 L31,38 L27,35 L25,34 L24,26 L17,26 L16,22 L13,21 L12,17 L8,16 L4,10 L4,7 L2,7 L2,5 L-1,5 L-1,3 L-3,3 L-3,1 Z " fill="#635CBF" transform="translate(499,512)"/>
<path d="M0,0 L3,0 L7,28 L9,28 L9,30 L13,31 L18,42 L15,43 L8,41 L8,38 L6,38 L4,30 L3,19 L0,15 L-1,11 L0,5 Z " fill="#4E59A7" transform="translate(288,578)"/>
<path d="M0,0 L3,1 L2,4 L5,6 L1,10 L-1,16 L-6,19 L-10,22 L-15,27 L-17,31 L-22,32 L-22,35 L-23,41 L-23,43 L-26,44 L-27,39 L-25,29 L-23,27 L-22,23 L-19,23 L-18,21 L-14,20 L-9,15 L-7,13 L-1,11 Z " fill="#6371CB" transform="translate(417,305)"/>
<path d="M0,0 L3,0 L2,4 L10,3 L28,5 L49,4 L52,0 L64,1 L64,4 L52,6 L44,8 L24,8 L11,6 L1,6 L-2,4 L-2,1 Z " fill="#474BA9" transform="translate(436,706)"/>
<path d="M0,0 L1,3 L4,3 L4,1 L10,0 L16,2 L17,4 L34,4 L42,6 L42,8 L44,7 L50,7 L46,9 L40,10 L37,9 L16,9 L12,8 L12,6 L4,6 L4,4 L0,4 Z " fill="#4852A1" transform="translate(378,698)"/>
<path d="M0,0 L1,2 L3,2 L3,9 L8,9 L8,20 L3,22 L-1,20 L-1,31 L-3,36 L-6,37 L-8,41 L-9,36 L-6,26 L-4,18 L-1,18 L0,12 L2,3 L-3,3 L0,2 Z " fill="#46469D" transform="translate(659,610)"/>
<path d="M0,0 L7,0 L7,6 L5,11 L6,13 L6,23 L6,27 L7,33 L4,37 L1,36 L0,33 L2,33 L0,30 L0,4 L-1,2 Z M-1,35 Z " fill="#5669C3" transform="translate(365,365)"/>
<path d="M0,0 L20,0 L20,2 L24,2 L24,8 L0,8 Z " fill="#070E21" transform="translate(408,826)"/>
<path d="M0,0 L6,0 L6,4 L10,4 L10,8 L12,8 L12,12 L14,12 L14,16 L16,16 L16,20 L18,20 L18,28 L14,27 L17,27 L17,25 L14,25 L15,17 L13,17 L13,19 L11,19 L10,17 L0,13 L0,3 L5,3 L5,1 L0,1 Z " fill="#434292" transform="translate(646,582)"/>
<path d="M0,0 L4,0 L4,3 L6,3 L7,0 L7,2 L9,2 L9,5 L14,6 L13,11 L16,10 L16,13 L20,12 L22,13 L24,25 L18,24 L19,15 L13,15 L13,18 L10,18 L8,13 L2,12 L3,5 L0,2 Z " fill="#5A53AE" transform="translate(526,522)"/>
<path d="M0,0 L4,1 L1,1 L1,3 L3,4 L-5,3 L-5,5 L0,5 L0,7 L-4,9 L-7,9 L-7,13 L-18,13 L-18,11 L-25,11 L-25,14 L-20,14 L-24,17 L-26,17 L-26,20 L-28,21 L-29,26 L-31,26 L-31,21 L-33,21 L-33,26 L-34,26 L-34,20 L-32,20 L-32,14 L-28,14 L-28,12 L-26,12 L-26,10 L-18,10 L-18,8 L-10,8 L-8,4 L-6,4 L-6,2 L0,2 Z " fill="#435094" transform="translate(410,268)"/>
<path d="M0,0 L13,0 L16,1 L16,12 L11,11 L6,12 L6,10 L0,10 L-2,9 L-2,7 L0,7 L0,5 L-4,5 L-4,1 Z " fill="#636BDA" transform="translate(436,670)"/>
<path d="M0,0 L2,0 L2,3 L4,4 L3,7 L4,12 L4,32 L2,32 L2,52 L1,61 L0,63 L-2,63 L-1,53 L-1,31 L0,12 Z " fill="#534EA1" transform="translate(521,404)"/>
<path d="M0,0 L7,0 L7,4 L10,5 L7,7 L-5,9 L-16,18 L-19,18 L-19,16 L-17,16 L-17,11 L-15,11 L-15,9 L-13,8 L-12,3 L-2,2 Z " fill="#5868B7" transform="translate(425,285)"/>
<path d="M0,0 L2,1 L3,9 L3,34 L2,38 L-1,38 L-1,19 L-3,19 L-3,38 L-4,38 L-4,18 L-2,18 L-2,2 L0,2 Z " fill="#404A96" transform="translate(286,486)"/>
<path d="M0,0 L8,1 L11,1 L19,2 L20,5 L27,5 L27,7 L36,7 L36,9 L44,10 L44,12 L52,12 L51,14 L43,14 L37,12 L37,10 L22,10 L19,7 L8,7 L8,3 L1,4 Z " fill="#4D55AD" transform="translate(396,693)"/>
<path d="M0,0 L9,0 L9,4 L12,7 L12,9 L18,10 L28,13 L30,14 L52,17 L52,19 L46,19 L38,17 L24,15 L24,13 L10,12 L1,9 Z " fill="#555FBB" transform="translate(384,676)"/>
<path d="M0,0 L5,5 L6,9 L15,7 L25,7 L31,5 L34,7 L30,8 L29,11 L22,11 L24,13 L14,13 L10,12 L8,14 L8,12 L3,12 L2,9 L-4,8 L-4,1 Z " fill="#5856AA" transform="translate(471,335)"/>
<path d="M0,0 L11,0 L24,1 L24,2 L12,2 L12,6 L4,6 L4,8 L-6,8 L-6,10 L-30,10 L-30,12 L-42,12 L-42,11 L-31,11 L-31,9 L-42,9 L-42,8 L-30,8 L-7,9 L-7,7 L-30,7 L-30,6 L-6,6 L3,7 L3,5 L-6,5 L-6,4 L2,4 L2,1 Z " fill="#3C3C8C" transform="translate(532,706)"/>
<path d="M0,0 L2,1 L1,3 L3,3 L2,8 L3,10 L2,12 L0,12 L-2,18 L-6,20 L-7,27 L-8,32 L-9,32 L-9,25 L-11,25 L-11,32 L-12,32 L-12,24 L-10,24 L-10,18 L-8,18 L-8,12 L-6,12 L-6,6 L-2,2 L0,2 Z " fill="#42509A" transform="translate(328,376)"/>
<path d="M0,0 L8,1 L9,0 L24,0 L24,2 L26,3 L-2,6 L-6,7 L-16,7 L-16,9 L-28,10 L-23,6 L-14,5 L-10,5 L-9,2 L-3,2 Z " fill="#5350B6" transform="translate(514,695)"/>
<path d="M0,0 L4,2 L2,5 L2,10 L4,10 L4,12 L12,11 L15,12 L16,7 L23,7 L24,10 L23,14 L18,18 L16,22 L13,20 L13,16 L6,18 L3,15 L3,12 L0,12 Z " fill="#5F70CC" transform="translate(312,569)"/>
<path d="M0,0 L4,0 L8,5 L14,6 L14,8 L32,8 L32,10 L48,10 L52,14 L52,22 L51,22 L51,15 L49,15 L49,21 L47,17 L47,11 L32,11 L32,13 L12,12 L10,9 L13,9 L13,7 L5,8 L1,3 L3,3 L3,1 Z " fill="#4C4396" transform="translate(594,560)"/>
<path d="M0,0 L4,1 L3,6 L4,8 L3,10 L3,32 L4,34 L6,35 L5,38 L5,48 L3,49 L1,53 L0,51 L0,13 L-1,2 Z M6,33 Z " fill="#7D74F1" transform="translate(475,576)"/>
<path d="M0,0 L4,1 L1,1 L1,3 L3,3 L4,7 L2,8 L3,12 L-1,14 L-3,24 L-1,24 L-2,30 L-6,32 L-5,27 L-4,25 L-7,24 L-7,12 L-6,8 L-4,8 L-3,3 L0,2 Z M4,5 Z " fill="#4B5BA1" transform="translate(372,294)"/>
<path d="M0,0 L1,2 L3,2 L3,4 L8,2 L9,4 L12,4 L12,8 L16,7 L16,10 L21,10 L21,16 L29,18 L29,20 L24,20 L25,25 L23,25 L23,21 L14,19 L9,7 L5,6 L2,5 L2,3 L0,3 Z " fill="#554EA2" transform="translate(550,529)"/>
<path d="M0,0 L6,0 L6,2 L16,2 L16,10 L18,10 L17,12 L14,10 L15,3 L6,3 L6,6 L12,6 L14,12 L14,16 L8,16 L8,14 L4,13 L2,12 L2,10 L0,10 L0,3 L5,3 L5,1 L0,1 Z " fill="#504798" transform="translate(574,546)"/>
<path d="M0,0 L4,2 L3,11 L1,16 L0,19 L-5,22 L-7,22 L-10,24 L-9,20 L-7,20 L-6,6 L-1,2 Z " fill="#4C5CAB" transform="translate(337,381)"/>
<path d="M0,0 L1,0 L1,6 L4,7 L3,9 L1,9 L1,7 L-1,7 L0,13 L-1,11 L-3,11 L-3,18 L-1,18 L-2,31 L-4,33 L-6,40 L-9,43 L-9,37 L-11,37 L-11,44 L-12,44 L-12,36 L-10,36 L-10,30 L-6,30 L-6,18 L-4,18 L-4,10 L-2,10 L-2,6 L0,6 Z " fill="#434A91" transform="translate(300,442)"/>
<path d="M0,0 L5,1 L5,3 L7,3 L7,11 L9,11 L9,13 L13,13 L13,19 L12,19 L12,14 L10,14 L10,20 L8,19 L8,16 L6,16 L6,14 L8,14 L8,12 L3,14 L1,14 L1,12 L-1,12 L-1,9 L-3,9 L-5,5 L-5,2 L0,2 Z " fill="#5559A3" transform="translate(457,297)"/>
<path d="M0,0 L1,2 L4,2 L5,8 L8,9 L6,12 L7,14 L5,19 L1,17 L0,13 L-5,13 L-6,4 L-4,3 L0,4 Z " fill="#5766BA" transform="translate(324,603)"/>
<path d="M0,0 L4,1 L2,6 L6,6 L6,8 L10,6 L10,8 L12,8 L12,6 L14,6 L14,9 L-2,11 L-2,13 L-10,13 L-10,15 L-22,16 L-25,17 L-25,19 L-32,19 L-30,15 L-12,13 L-8,10 L-3,9 L-1,4 L-1,1 Z " fill="#615ECF" transform="translate(524,669)"/>
<path d="M0,0 L1,0 L1,8 L3,8 L3,16 L1,16 L1,20 L3,20 L3,28 L5,28 L5,36 L7,36 L7,46 L6,46 L6,37 L4,37 L4,46 L3,46 L0,31 L-1,29 L-1,8 Z " fill="#4A4793" transform="translate(523,436)"/>
<path d="M0,0 L6,0 L6,4 L3,6 L3,16 L1,19 L-1,19 L1,32 L-1,32 L-2,35 L-4,35 L-4,33 L-2,33 L-2,31 L-4,31 L-5,29 L-5,21 L-3,20 L-1,4 Z " fill="#5461BC" transform="translate(302,508)"/>
<path d="M0,0 L4,0 L5,7 L2,10 L0,10 L-1,14 L-3,18 L-4,26 L-9,31 L-10,31 L-11,25 L-7,21 L-4,13 L-4,5 L-1,3 Z " fill="#5362B9" transform="translate(370,337)"/>
<path d="M0,0 L6,0 L6,4 L10,4 L10,12 L-2,12 L-2,2 L0,2 Z " fill="#080E21" transform="translate(448,838)"/>
<path d="M0,0 L4,1 L5,4 L8,6 L8,9 L10,9 L10,4 L12,4 L12,13 L16,15 L16,18 L9,19 L8,16 L6,16 L4,13 L4,8 L1,8 L2,2 L0,2 Z " fill="#555BA2" transform="translate(441,281)"/>
<path d="M0,0 L1,3 L-1,10 L-6,11 L-26,12 L-27,14 L-28,12 L-38,12 L-38,11 L-27,10 L-26,7 L-5,7 L-2,8 L-1,1 Z " fill="#6C68E0" transform="translate(502,659)"/>
<path d="M0,0 L7,0 L7,4 L6,6 L-5,7 L-11,7 L-15,8 L-18,4 L-9,2 Z " fill="#6B6DE3" transform="translate(469,663)"/>
<path d="M0,0 L6,2 L10,1 L10,6 L19,4 L20,8 L22,9 L22,15 L24,17 L20,16 L20,11 L13,11 L10,12 L10,10 L8,10 L6,5 L4,6 L4,4 L0,3 Z " fill="#554DB1" transform="translate(588,581)"/>
<path d="M0,0 L2,2 L1,6 L0,11 L1,12 L1,21 L-1,26 L1,26 L1,32 L2,34 L-1,37 L-2,34 L-3,12 L-5,12 L-5,6 L-4,4 L-2,4 Z " fill="#625FC6" transform="translate(468,447)"/>
<path d="M0,0 L3,1 L2,2 L-10,3 L-11,5 L-13,4 L-13,6 L-38,8 L-44,10 L-56,10 L-56,8 L-28,5 L-22,5 L-22,2 Z " fill="#524CB0" transform="translate(568,692)"/>
<path d="M0,0 L6,2 L13,5 L17,7 L12,7 L12,9 L17,8 L24,8 L24,9 L18,9 L18,11 L25,11 L25,12 L17,12 L17,10 L11,10 L11,8 L5,8 L5,6 L-1,6 L-1,2 L-21,2 L-21,1 Z " fill="#3C448C" transform="translate(415,706)"/>
<path d="M0,0 L4,0 L4,2 L6,2 L6,6 L8,6 L8,10 L14,10 L16,13 L22,14 L22,16 L26,17 L20,18 L21,15 L13,16 L13,11 L0,12 L-2,8 L-2,5 L0,5 L0,3 L3,3 L3,1 Z " fill="#4D4D98" transform="translate(470,316)"/>
<path d="M0,0 L2,0 L3,6 L2,9 L4,17 L3,19 L5,19 L7,24 L7,29 L2,28 L1,16 L-2,15 L-2,2 Z " fill="#6A73E3" transform="translate(426,630)"/>
<path d="M0,0 L14,0 L14,8 L2,8 L2,6 L0,6 Z " fill="#0A1326" transform="translate(748,478)"/>
<path d="M0,0 L14,0 L23,1 L23,2 L15,2 L15,6 L9,6 L9,2 L5,2 L5,6 L-1,6 L-1,2 L-27,2 L-27,1 Z " fill="#343A85" transform="translate(467,718)"/>
<path d="M0,0 L6,0 L6,2 L10,2 L10,4 L12,4 L12,10 L14,10 L14,16 L16,16 L15,18 L12,18 L13,11 L11,11 L11,16 L10,16 L10,11 L8,11 L8,8 L4,9 L4,5 L-2,6 L0,5 L0,3 L-3,3 L-2,1 L0,2 Z " fill="#4D4896" transform="translate(558,528)"/>
<path d="M0,0 L1,4 L1,10 L3,15 L1,18 L1,14 L-2,15 L-5,23 L-2,24 L-3,27 L-5,27 L-7,31 L-9,30 L-10,23 L-7,20 L-3,10 L-1,2 Z " fill="#6072D2" transform="translate(323,518)"/>
<path d="M0,0 L6,0 L6,2 L8,2 L8,12 L6,12 L6,14 L0,14 Z " fill="#0A162A" transform="translate(734,512)"/>
<path d="M0,0 L2,0 L2,16 L4,16 L4,19 L6,19 L6,23 L2,22 L-2,20 L-5,19 L-4,11 L-2,6 L-1,6 Z M-6,19 Z " fill="#544FA2" transform="translate(533,489)"/>
<path d="M0,0 L5,2 L5,4 L7,4 L6,7 L14,7 L15,11 L19,11 L20,16 L13,16 L13,12 L8,11 L8,9 L3,8 L0,5 L0,3 L-4,2 L0,2 Z " fill="#4955A1" transform="translate(298,621)"/>
<path d="M0,0 L4,1 L4,4 L7,4 L10,17 L8,18 L7,16 L2,21 L2,15 L1,10 Z " fill="#6462CA" transform="translate(460,376)"/>
<path d="M0,0 L7,0 L7,3 L12,4 L12,12 L14,12 L14,14 L8,13 L7,10 L4,10 L5,8 L3,8 L3,4 L-1,3 Z " fill="#5F67BF" transform="translate(364,632)"/>
<path d="M0,0 L6,0 L6,4 L0,5 L-3,6 L-21,7 L-17,5 L-17,2 L-9,1 Z " fill="#5657BD" transform="translate(507,693)"/>
<path d="M0,0 L22,1 L22,2 L6,2 L6,4 L0,4 L0,10 L-12,10 L-12,9 L-1,9 L-1,4 L-3,4 L-3,7 L-12,7 L-7,2 Z " fill="#423E8E" transform="translate(626,680)"/>
<path d="M0,0 L3,0 L5,5 L10,7 L13,10 L13,14 L17,13 L15,16 L11,16 L10,14 L7,14 L7,12 L9,11 L2,10 L-2,7 L-2,2 Z " fill="#4854A1" transform="translate(336,655)"/>
<path d="M0,0 L4,0 L4,6 L2,7 L-1,14 L-2,16 L-5,17 L-8,20 L-7,12 L-8,8 L-3,8 L-1,1 Z " fill="#5362B9" transform="translate(350,392)"/>
<path d="M0,0 L4,0 L4,2 L8,2 L8,4 L12,4 L16,9 L18,10 L18,30 L20,30 L20,38 L19,38 L19,31 L17,31 L17,37 L16,37 L17,11 L15,11 L15,26 L14,26 L14,11 L11,11 L11,9 L8,8 L11,5 L5,6 L7,5 L7,3 L1,4 L3,3 L3,1 Z " fill="#48468A" transform="translate(512,338)"/>
<path d="M0,0 L2,4 L3,14 L1,14 L2,21 L-3,21 L-1,29 L-3,29 L-3,31 L-5,31 L-5,29 L-9,30 L-8,28 L-6,28 L-6,26 L-4,26 L-4,20 L-2,20 L0,14 L-2,14 L-2,4 L0,4 Z M4,10 L7,11 L3,13 Z " fill="#434D8F" transform="translate(310,412)"/>
<path d="M0,0 L4,1 L4,5 L6,5 L6,7 L10,6 L13,8 L13,17 L19,19 L18,22 L15,22 L15,20 L10,19 L9,15 L9,11 L3,9 L1,4 L-4,3 L-3,1 Z " fill="#6872CF" transform="translate(431,310)"/>
<path d="M0,0 L4,1 L4,6 L6,6 L6,18 L5,20 L0,22 L-1,19 L0,18 L1,6 L-1,5 L0,2 L-2,1 Z M-3,2 Z " fill="#6E77DE" transform="translate(439,332)"/>
<path d="M0,0 L3,1 L2,4 L-5,7 L-8,10 L-15,11 L-15,14 L-18,14 L-19,16 L-18,11 L-13,7 L-12,4 L-7,4 L-7,2 L0,2 Z " fill="#544AB1" transform="translate(590,676)"/>
<path d="M0,0 L1,0 L0,9 L-2,15 L-6,20 L-7,23 L-9,23 L-10,27 L-12,33 L-13,29 L-11,21 L-9,21 L-9,19 L-7,18 L-7,11 L-2,6 Z " fill="#4E5BAA" transform="translate(367,325)"/>
<path d="M0,0 L1,0 L2,12 L4,13 L2,18 L-1,23 L-3,23 L-3,25 L-7,27 L-7,25 L-9,25 L-10,28 L-9,23 L-6,22 L-6,20 L-4,20 L-4,14 L-2,14 L-2,12 L0,12 Z " fill="#435193" transform="translate(364,306)"/>
<path d="M0,0 L1,4 L6,5 L11,14 L14,18 L17,19 L19,23 L23,24 L17,25 L15,24 L16,20 L8,19 L7,14 L5,13 L3,10 L2,7 L-1,6 Z " fill="#4D5BA9" transform="translate(319,627)"/>
<path d="M0,0 L13,0 L9,2 L5,3 L5,5 L0,6 L0,10 L-6,9 L-17,10 L-17,8 L-9,6 L-3,6 L-4,3 Z M-5,4 Z " fill="#4C42A2" transform="translate(573,693)"/>
<path d="M0,0 L5,2 L8,5 L11,7 L11,9 L7,9 L7,7 L-7,8 L-7,1 Z " fill="#5E66D1" transform="translate(447,680)"/>
<path d="M0,0 L1,2 L9,3 L11,5 L11,8 L14,9 L3,9 L3,11 L0,11 L-1,8 L-4,7 L-4,5 L-2,4 Z " fill="#4854A2" transform="translate(379,690)"/>
<path d="M0,0 L3,1 L3,14 L4,23 L3,26 L0,25 L-1,17 L-1,1 Z " fill="#535DB3" transform="translate(292,559)"/>
<path d="M0,0 L3,0 L3,5 L1,6 L1,3 L-2,3 L-4,8 L-3,12 L-1,13 L-3,18 L-7,25 L-8,29 L-10,28 L-9,18 L-6,18 L-6,3 Z " fill="#5664B9" transform="translate(329,444)"/>
<path d="M0,0 L2,0 L3,3 L-1,11 L-6,17 L-8,15 L-12,18 L-10,14 L-8,9 L-4,8 L-3,2 Z " fill="#5662B8" transform="translate(340,412)"/>
<path d="M0,0 L5,4 L7,9 L9,22 L11,22 L10,25 L8,25 L6,31 L4,32 L4,5 L0,4 Z " fill="#6260C0" transform="translate(462,342)"/>
<path d="M0,0 L1,0 L1,9 L3,9 L3,0 L5,4 L5,9 L4,10 L3,17 L5,17 L5,10 L7,14 L9,14 L8,20 L7,25 L9,25 L9,20 L10,20 L10,30 L8,30 L8,26 L6,26 L4,19 L2,18 L2,10 L0,10 Z " fill="#424A8E" transform="translate(282,590)"/>
<path d="M0,0 L1,0 L2,28 L2,48 L0,48 L0,40 L-2,40 L-2,36 L0,36 L0,28 L-2,28 L-2,20 L0,20 Z " fill="#0B0A15" transform="translate(526,416)"/>
<path d="M0,0 L5,0 L6,2 L7,4 L3,6 L1,19 L-2,25 L-4,25 L-3,17 L-1,17 L-2,14 L0,12 L-2,11 L-2,3 L0,3 Z " fill="#4C56A2" transform="translate(343,343)"/>
<path d="M0,0 L10,0 L10,2 L14,2 L14,0 L20,0 L20,2 L24,2 L23,4 L16,4 L16,6 L3,6 L3,3 L9,3 L9,1 L1,1 L1,6 L0,6 Z " fill="#424C8C" transform="translate(414,262)"/>
<path d="M0,0 L9,0 L6,3 L-1,4 L-1,6 L-6,6 L-6,8 L-28,8 L-28,6 L-10,5 L-5,4 L-5,2 Z " fill="#5048A9" transform="translate(560,694)"/>
<path d="M0,0 L2,1 L5,2 L7,3 L7,5 L9,5 L9,7 L15,9 L16,11 L13,11 L13,13 L16,14 L12,14 L12,12 L7,11 L0,4 L0,2 L-4,1 Z " fill="#3F4A8F" transform="translate(362,684)"/>
<path d="M0,0 L5,5 L6,9 L10,10 L8,14 L8,12 L3,12 L2,9 L-4,8 L-4,1 Z " fill="#5456AE" transform="translate(471,335)"/>
<path d="M0,0 L9,0 L14,1 L14,3 L28,4 L34,5 L32,8 L32,6 L20,7 L18,5 L3,4 L2,1 Z " fill="#525DB6" transform="translate(394,688)"/>
<path d="M0,0 L1,0 L2,13 L-1,21 L-2,26 L-3,26 L-3,19 L-5,19 L-5,26 L-6,26 L-6,18 L-4,18 L-4,12 L-2,12 L-2,6 L0,6 Z " fill="#414D90" transform="translate(322,382)"/>
<path d="M0,0 L6,2 L6,4 L0,6 L-14,7 L-18,7 L-18,5 L-12,3 L-2,2 Z " fill="#5E59CA" transform="translate(540,675)"/>
<path d="M0,0 L7,0 L8,4 L13,5 L12,8 L14,9 L10,14 L8,14 L6,9 L4,6 L4,2 L0,1 Z " fill="#5B6AC0" transform="translate(344,625)"/>
<path d="M0,0 Z M-3,1 L4,1 L3,3 L0,5 L0,28 L-4,30 L-4,3 Z M-5,30 Z " fill="#7174E5" transform="translate(454,575)"/>
<path d="M0,0 L8,3 L8,5 L10,5 L10,9 L13,10 L14,14 L17,15 L17,20 L15,16 L10,14 L10,12 L6,11 L4,6 L0,3 Z " fill="#5A63B4" transform="translate(432,286)"/>
<path d="M0,0 L2,0 L4,3 L8,4 L10,1 L10,4 L12,4 L16,8 L16,10 L18,10 L17,14 L13,12 L13,10 L11,10 L11,8 L5,8 L4,6 L-2,5 L-1,1 L-1,4 L1,4 Z " fill="#4753A1" transform="translate(358,679)"/>
<path d="M0,0 L2,3 L0,7 L-1,9 L-3,9 L-3,13 L-5,13 L-5,17 L-9,16 L-6,16 L-9,10 L-8,7 L-5,4 Z " fill="#4A46A1" transform="translate(657,663)"/>
<path d="M0,0 L4,0 L3,5 L8,4 L9,13 L7,13 L7,17 L10,18 L6,19 L4,12 L5,7 L1,8 L1,5 L-2,5 L-2,1 Z " fill="#5C50BD" transform="translate(586,592)"/>
<path d="M0,0 L4,0 L5,7 L4,9 L2,9 L2,31 L0,33 L-1,16 L-2,8 L-1,7 Z " fill="#474FA1" transform="translate(289,479)"/>
<path d="M0,0 L4,4 L3,7 L10,7 L13,9 L12,13 L3,13 L3,9 L0,9 L0,6 L-2,6 Z " fill="#5D58B4" transform="translate(517,518)"/>
<path d="M0,0 L2,2 L3,8 L6,9 L7,14 L7,28 L6,24 L2,24 L3,14 L0,7 Z " fill="#6565C4" transform="translate(460,338)"/>
<path d="M0,0 L1,0 L1,8 L4,9 L2,12 L2,14 L0,14 L-1,18 L-3,17 L-3,15 L-5,15 L-4,24 L-5,24 L-5,19 L-7,19 L-7,24 L-8,24 L-8,18 L-6,18 L-6,14 L-4,14 L-3,9 L0,8 Z " fill="#434C8E" transform="translate(340,346)"/>
<path d="M0,0 L1,3 L6,4 L9,3 L17,3 L19,0 L19,5 L-3,8 L-5,4 L-1,4 Z M5,2 Z " fill="#5E54C2" transform="translate(549,675)"/>
<path d="M0,0 L3,0 L4,5 L3,8 L-3,12 L-8,14 L-10,15 L-9,11 L-6,10 L-3,3 Z " fill="#6254C5" transform="translate(573,632)"/>
<path d="M0,0 L12,0 L12,6 L0,6 Z " fill="#0C172C" transform="translate(718,512)"/>
<path d="M0,0 L6,0 L5,9 L7,9 L7,15 L0,13 L0,3 L5,3 L5,1 L0,1 Z " fill="#49459A" transform="translate(646,582)"/>
<path d="M0,0 L3,1 L2,7 L4,14 L1,18 L-2,17 L-3,14 L-1,14 L-2,1 Z M-4,16 Z " fill="#596CC8" transform="translate(368,384)"/>
<path d="M0,0 L7,1 L3,4 L1,4 L1,7 L-1,8 L-2,13 L-4,13 L-4,8 L-6,8 L-6,13 L-7,13 L-7,7 L-5,7 L-5,1 Z " fill="#455495" transform="translate(383,281)"/>
<path d="M0,0 L5,1 L7,2 L14,2 L18,1 L18,3 L27,5 L27,7 L13,7 L11,5 L3,3 L3,1 Z " fill="#5B66C6" transform="translate(399,680)"/>
<path d="M0,0 L6,0 L6,4 L8,4 L8,10 L2,10 L2,8 L0,8 Z " fill="#0A0F25" transform="translate(564,824)"/>
<path d="M0,0 L4,1 L3,6 L4,8 L3,10 L3,23 L2,28 L0,28 L0,13 L-1,2 Z " fill="#796FEC" transform="translate(475,576)"/>
<path d="M0,0 L13,1 L19,2 L18,4 L9,5 L-1,5 L-3,1 Z " fill="#7169E4" transform="translate(479,662)"/>
<path d="M0,0 L1,2 L4,2 L5,8 L8,9 L6,12 L7,14 L5,19 L3,18 L1,6 L-4,5 L0,4 Z " fill="#5969BF" transform="translate(324,603)"/>
<path d="M0,0 L9,0 L9,6 L8,8 L4,9 L0,8 Z " fill="#6F6EE2" transform="translate(460,560)"/>
<path d="M0,0 L7,0 L8,3 L7,7 L1,11 L-1,5 Z M-3,6 L-1,7 Z " fill="#6376D5" transform="translate(328,576)"/>
<path d="M0,0 L1,3 L5,2 L6,3 L7,12 L5,15 L3,15 L3,11 L0,11 Z " fill="#5B53B0" transform="translate(505,477)"/>
<path d="M0,0 L2,4 L4,4 L4,7 L6,7 L6,9 L13,7 L13,9 L11,10 L10,18 L8,18 L8,16 L6,16 L2,7 L0,3 Z " fill="#565AA7" transform="translate(452,302)"/>
<path d="M0,0 L2,1 L2,3 L4,3 L4,1 L6,1 L5,9 L8,9 L8,11 L5,12 L4,14 L1,14 Z " fill="#4A4AA1" transform="translate(655,598)"/>
<path d="M0,0 L2,0 L4,2 L6,1 L3,10 L0,14 L-2,14 L-2,10 L-4,10 L-4,15 L-5,15 L-5,9 L-2,9 L-2,4 L0,3 Z " fill="#4955A0" transform="translate(335,361)"/>
<path d="M0,0 L17,1 L18,3 L13,3 L13,5 L11,5 L11,3 L9,3 L7,7 L5,8 L4,4 L-2,2 Z " fill="#6F62D8" transform="translate(511,570)"/>
<path d="M0,0 L3,0 L5,3 L5,5 L8,5 L8,7 L10,7 L10,10 L18,11 L18,12 L12,12 L12,14 L8,12 L2,5 L0,4 Z " fill="#090912" transform="translate(546,516)"/>
<path d="M0,0 L1,0 L1,10 L-1,17 L-2,31 L-4,28 L-4,12 L-3,9 L-1,9 Z " fill="#4A53A5" transform="translate(294,479)"/>
<path d="M0,0 L4,1 L3,2 L5,3 L5,5 L1,5 L1,12 L-2,15 L-2,19 L-4,19 L-5,15 Z " fill="#5766BA" transform="translate(383,317)"/>
<path d="M0,0 L6,0 L6,12 L8,12 L8,18 L6,18 L6,26 L5,26 L4,18 L2,17 L2,12 L5,12 L5,1 L0,1 Z " fill="#3B3C89" transform="translate(662,618)"/>
<path d="M0,0 L6,0 L6,6 L4,6 L4,8 L-2,8 L-2,2 Z " fill="#0A0E26" transform="translate(384,804)"/>
<path d="M0,0 L1,0 L1,18 L-2,19 L-4,23 L-5,18 L-2,8 Z " fill="#4946A5" transform="translate(655,628)"/>
<path d="M0,0 L2,0 L5,9 L8,10 L11,20 L8,17 L8,15 L5,15 L1,10 Z " fill="#5460B4" transform="translate(317,612)"/>
<path d="M0,0 L1,0 L2,10 L6,12 L7,17 L10,19 L11,24 L7,22 L3,15 L3,13 L0,12 Z " fill="#5F63BB" transform="translate(451,312)"/>
<path d="M0,0 L4,1 L4,7 L-1,6 L-6,7 L-6,5 L-12,5 L-14,4 L-14,2 L-2,3 Z " fill="#6168D7" transform="translate(448,675)"/>
<path d="M0,0 L2,0 L2,2 L5,3 L1,6 L0,10 L-2,10 L-2,13 L0,13 L-1,15 L-4,15 L-5,10 L-8,8 L-6,8 L-5,6 L-1,6 Z M1,2 Z " fill="#6273D1" transform="translate(392,350)"/>
<path d="M0,0 L2,0 L2,2 L6,3 L2,3 L0,7 L-10,7 L-10,5 L-7,5 L-7,2 Z " fill="#5146AC" transform="translate(582,685)"/>
<path d="M0,0 L5,5 L5,8 L7,8 L7,10 L-5,10 L-3,5 L0,5 Z " fill="#7570EB" transform="translate(475,653)"/>
<path d="M0,0 L1,3 L4,3 L4,1 L13,2 L15,5 L13,5 L13,7 L16,8 L12,8 L12,6 L4,6 L4,4 L0,4 Z " fill="#3F4A8E" transform="translate(378,698)"/>
<path d="M0,0 L2,1 L3,8 L3,18 L0,21 L0,15 L-1,8 L-2,4 L0,4 Z " fill="#696AD3" transform="translate(458,402)"/>
<path d="M0,0 L4,0 L5,4 L-2,6 L-7,11 L-10,12 L-10,10 L-8,10 L-8,7 L-4,5 Z M-14,12 L-10,13 L-14,14 Z " fill="#5B6ABC" transform="translate(420,289)"/>
<path d="M0,0 L2,1 L-4,8 L-6,10 L-7,14 L-9,17 L-10,10 L-8,3 L-2,1 Z " fill="#5A68C2" transform="translate(335,467)"/>
<path d="M0,0 L4,0 L5,4 L0,9 L-4,5 Z M-2,9 Z M-4,10 L-2,10 L-4,14 L-6,13 Z " fill="#534BAE" transform="translate(626,659)"/>
<path d="M0,0 L1,2 L-1,1 Z M-3,2 L-1,3 L1,5 L0,10 L-1,11 L-1,17 L-4,16 L-5,3 Z M-3,4 Z " fill="#6072CE" transform="translate(383,380)"/>
<path d="M0,0 L3,2 L4,6 L7,7 L7,9 L12,11 L16,19 L16,21 L14,21 L12,16 L9,15 L9,11 L5,10 L5,8 L2,8 Z " fill="#5E65B8" transform="translate(435,291)"/>
<path d="M0,0 L5,2 L5,4 L7,4 L6,7 L11,7 L9,8 L10,12 L8,11 L8,9 L3,8 L0,5 L0,3 L-4,2 L0,2 Z " fill="#40488A" transform="translate(298,621)"/>
<path d="M0,0 L5,1 L4,5 L0,6 L-5,9 L-8,8 L-7,6 L-5,6 L-4,2 Z " fill="#6975D9" transform="translate(386,580)"/>
<path d="M0,0 L7,0 L7,2 L5,2 L3,8 L1,15 L-1,11 L-1,4 Z " fill="#5B68C5" transform="translate(313,504)"/>
<path d="M0,0 L4,1 L2,1 L2,10 L4,10 L4,2 L6,2 L6,11 L5,12 L0,12 Z " fill="#0E1C36" transform="translate(735,513)"/>
<path d="M0,0 Z M-3,1 L0,2 L-5,7 L-4,14 L-3,16 L-5,20 L-8,8 L-7,2 Z M-3,14 Z " fill="#5A67C3" transform="translate(325,484)"/>
<path d="M0,0 L4,0 L4,2 L6,2 L6,10 L8,10 L8,12 L12,12 L12,18 L11,18 L11,13 L9,13 L9,19 L7,18 L7,15 L5,15 L5,13 L7,13 L7,11 L4,12 L4,4 L1,3 L3,3 L3,1 Z " fill="#484888" transform="translate(458,298)"/>
<path d="M0,0 L6,0 L6,8 L0,8 Z " fill="#090F23" transform="translate(406,816)"/>
<path d="M0,0 L6,0 L6,8 L0,8 Z " fill="#0A1028" transform="translate(416,816)"/>
<path d="M0,0 L6,0 L6,8 L0,8 Z " fill="#090D1F" transform="translate(322,750)"/>
<path d="M0,0 L4,1 L5,5 L9,7 L9,12 L4,11 L4,8 L0,6 Z " fill="#7465E0" transform="translate(493,560)"/>
<path d="M0,0 L1,2 L3,2 L3,8 L1,8 L1,28 L0,28 L-1,3 L-3,2 L0,2 Z " fill="#444185" transform="translate(525,408)"/>
<path d="M0,0 L8,0 L8,6 L0,6 Z " fill="#090E20" transform="translate(266,284)"/>
<path d="M0,0 L1,2 L3,3 L2,11 L-4,9 L-3,3 Z " fill="#696FD8" transform="translate(451,398)"/>
<path d="M0,0 Z M-1,1 L0,4 L-2,6 L-3,12 L1,11 L-2,22 L-4,18 L-5,6 L-3,2 Z " fill="#5F70CD" transform="translate(322,508)"/>
<path d="M0,0 L4,0 L3,5 L-7,5 L-7,1 Z " fill="#4B44A2" transform="translate(637,667)"/>
<path d="M0,0 L7,0 L7,3 L12,4 L12,8 L7,8 L7,5 L4,5 L3,1 Z " fill="#626BC3" transform="translate(364,632)"/>
<path d="M0,0 L1,0 L1,8 L3,8 L3,16 L1,16 L0,20 L-1,16 Z " fill="#48448C" transform="translate(523,436)"/>
<path d="M0,0 L2,0 L0,7 L-1,10 L-6,13 L-6,6 L-2,4 Z " fill="#4F5EAF" transform="translate(338,390)"/>
<path d="M0,0 L14,1 L14,2 L6,2 L6,6 L0,6 Z " fill="#373E8C" transform="translate(476,718)"/>
<path d="M0,0 L8,1 L7,6 L6,8 L3,7 L3,5 L0,5 L-1,1 Z " fill="#534AA9" transform="translate(616,579)"/>
<path d="M0,0 L2,0 L2,2 L5,3 L5,6 L8,7 L10,11 L10,14 L7,13 L7,11 L5,11 L3,8 L3,3 L0,3 Z " fill="#575EA7" transform="translate(442,286)"/>
<path d="M0,0 L5,0 L4,9 L2,10 L0,12 L-1,8 L-1,1 Z " fill="#616CD2" transform="translate(416,660)"/>
<path d="M0,0 Z M-4,1 L0,2 L-1,5 L-1,15 L-4,16 Z " fill="#8172F3" transform="translate(481,609)"/>
<path d="M0,0 L5,1 L8,4 L8,10 L6,11 L5,4 L-2,4 L-2,1 Z " fill="#6172D1" transform="translate(321,580)"/>
<path d="M0,0 L16,0 L20,4 L20,12 L19,12 L19,5 L17,5 L17,11 L15,7 L15,1 L0,1 Z " fill="#403C86" transform="translate(626,570)"/>
<path d="M0,0 L2,0 L3,6 L2,9 L1,13 L-2,10 L-2,2 Z " fill="#6E76E5" transform="translate(426,630)"/>
<path d="M0,0 L1,2 L3,2 L4,11 L4,15 L-1,18 L0,12 L2,3 L-3,3 L0,2 Z " fill="#454395" transform="translate(659,610)"/>
<path d="M0,0 L3,0 L3,3 L5,3 L6,14 L3,13 L3,5 L0,6 Z " fill="#5D6BC6" transform="translate(312,581)"/>
<path d="M0,0 L1,4 L3,4 L3,8 L5,8 L5,16 L1,15 L4,15 L4,13 L1,13 L2,5 L0,5 L-1,7 Z " fill="#3E3F89" transform="translate(659,594)"/>
<path d="M0,0 L3,0 L7,4 L9,1 L10,2 L10,7 L13,8 L11,9 L6,7 L6,5 L-1,4 Z " fill="#6471CC" transform="translate(357,617)"/>
<path d="M0,0 L3,2 L2,12 L-2,14 L-2,7 Z " fill="#6474D2" transform="translate(318,563)"/>
<path d="M0,0 L6,0 L6,2 L10,2 L9,4 L2,5 L-2,6 L0,5 L0,3 L-3,3 L-2,1 L0,2 Z " fill="#4C468F" transform="translate(558,528)"/>
<path d="M0,0 L2,0 L3,8 L2,10 L0,10 L0,12 L-2,12 L-2,10 L-6,11 L-5,9 L-3,9 L-3,7 L0,7 Z " fill="#465299" transform="translate(317,401)"/>
<path d="M0,0 L6,0 L6,6 L0,6 Z " fill="#070D1B" transform="translate(602,800)"/>
<path d="M0,0 L1,0 L1,8 L5,10 L5,16 L3,14 L1,16 L-1,8 Z M0,9 Z " fill="#090B15" transform="translate(283,600)"/>
<path d="M0,0 L6,0 L6,6 L0,6 Z " fill="#0A1424" transform="translate(752,510)"/>
<path d="M0,0 L6,0 L6,6 L0,6 Z " fill="#070F1B" transform="translate(766,476)"/>
<path d="M0,0 L2,0 L2,3 L7,2 L9,7 L13,8 L12,11 L12,9 L7,9 L6,6 L0,5 Z " fill="#5658B2" transform="translate(467,338)"/>
<path d="M0,0 L4,1 L-1,7 L-8,8 L-4,3 Z " fill="#5865B7" transform="translate(396,299)"/>
<path d="M0,0 L4,0 L8,4 L8,8 L4,8 L4,5 L0,4 Z " fill="#05060B" transform="translate(302,630)"/>
<path d="M0,0 L4,0 L8,5 L14,6 L14,7 L5,8 L1,3 L3,3 L3,1 Z " fill="#484190" transform="translate(594,560)"/>
<path d="M0,0 L7,1 L8,4 L10,4 L10,6 L4,5 L1,4 Z " fill="#535EB6" transform="translate(384,681)"/>
<path d="M0,0 L6,2 L6,5 L9,4 L10,2 L13,2 L13,4 L10,6 L3,6 L-1,1 Z " fill="#686FE2" transform="translate(438,663)"/>
<path d="M0,0 L4,2 L4,10 L0,11 Z " fill="#636FD5" transform="translate(416,647)"/>
<path d="M0,0 L5,1 L5,3 L7,4 L3,10 L2,10 L1,3 L-3,2 Z M5,0 Z " fill="#7562E2" transform="translate(509,637)"/>
<path d="M0,0 Z M5,0 L9,0 L9,3 L6,3 L5,5 L5,3 L-10,3 L-10,2 L4,1 Z " fill="#48449E" transform="translate(642,676)"/>
<path d="M0,0 L4,1 L4,7 L1,12 L0,12 Z " fill="#5C69C7" transform="translate(400,660)"/>
<path d="M0,0 L3,1 L3,13 L-1,14 L0,9 Z " fill="#544EB3" transform="translate(641,617)"/>
<path d="M0,0 L6,0 L5,2 L2,3 L0,7 L-5,6 L-5,4 Z " fill="#7379E7" transform="translate(444,610)"/>
<path d="M0,0 L1,0 L2,12 L2,20 L0,20 L0,12 L-2,12 L-2,8 L0,8 Z " fill="#0D0C19" transform="translate(526,444)"/>
<path d="M0,0 L1,2 L4,2 L4,11 L0,7 L0,4 L-2,4 L-2,2 L0,2 Z " fill="#51559D" transform="translate(457,297)"/>
<path d="M0,0 L3,4 L2,7 L5,7 L5,12 L3,12 L1,8 L-2,6 Z " fill="#5F6AC5" transform="translate(390,641)"/>
<path d="M0,0 L4,1 L2,6 L-3,10 L-5,10 L-3,5 L-1,3 Z " fill="#7A67EC" transform="translate(499,639)"/>
<path d="M0,0 L6,0 L8,3 L14,4 L14,6 L18,7 L12,8 L13,5 L5,6 L5,1 L0,1 Z " fill="#454587" transform="translate(478,326)"/>
<path d="M0,0 L3,1 L4,4 L11,5 L12,8 L6,8 L2,6 Z " fill="#535DAB" transform="translate(432,278)"/>
<path d="M0,0 L3,0 L5,5 L5,9 L1,12 L2,4 L0,4 Z " fill="#6A5ED5" transform="translate(521,656)"/>
<path d="M0,0 L7,2 L7,7 L5,6 L5,4 L-1,4 L-5,1 Z " fill="#6258BB" transform="translate(539,546)"/>
<path d="M0,0 L4,1 L1,1 L1,7 L0,5 L-3,5 L-2,11 L-3,9 L-5,9 L-6,12 L-6,8 L-4,8 L-3,3 L0,2 Z " fill="#3E4B85" transform="translate(372,294)"/>
<path d="M0,0 L4,0 L4,2 L6,2 L6,6 L8,6 L7,10 L7,7 L5,7 L4,9 L4,7 L2,7 L3,1 Z " fill="#484D8A" transform="translate(444,274)"/>
<path d="M0,0 L8,1 L9,4 L7,5 L7,3 L-3,5 L-4,3 Z " fill="#534AB0" transform="translate(599,668)"/>
<path d="M0,0 L7,1 L7,4 L5,3 L5,5 L0,4 Z " fill="#4A549E" transform="translate(293,618)"/>
<path d="M0,0 L3,0 L2,4 L1,6 L3,6 L5,10 L4,13 L4,11 L0,10 L2,10 L2,7 L-1,6 Z " fill="#665AC4" transform="translate(571,586)"/>
<path d="M0,0 L4,0 L4,4 L8,6 L9,9 L6,10 L5,8 L3,6 L0,5 L0,3 L3,3 L3,1 Z " fill="#494389" transform="translate(542,516)"/>
<path d="M0,0 L3,2 L3,5 L5,5 L4,0 L8,2 L6,2 L6,6 L4,6 L4,10 L0,9 L3,9 L0,3 Z " fill="#3F3C89" transform="translate(648,670)"/>
<path d="M0,0 L2,0 L3,6 L2,10 L0,10 L0,6 L-2,6 L-2,11 L-3,11 L-3,5 L0,5 Z " fill="#445097" transform="translate(333,365)"/>
<path d="M0,0 L11,0 L24,1 L24,2 L9,3 L9,1 L0,1 Z " fill="#403C8C" transform="translate(532,706)"/>
<path d="M0,0 L6,2 L2,3 L2,5 L7,4 L7,8 L5,8 L5,6 L1,6 L-2,1 Z " fill="#404A8F" transform="translate(341,664)"/>
<path d="M0,0 L11,1 L11,3 L5,4 L-3,2 Z " fill="#746BE7" transform="translate(479,662)"/>
<path d="M0,0 L2,0 L1,6 L-1,14 L-2,14 L-2,6 Z " fill="#4C48A9" transform="translate(654,624)"/>
<path d="M0,0 L5,1 L3,7 L-2,5 Z " fill="#5A69C0" transform="translate(337,624)"/>
<path d="M0,0 L1,2 L9,3 L7,7 L5,8 L4,4 L-2,2 Z " fill="#7162DE" transform="translate(511,570)"/>
<path d="M0,0 L9,0 L9,7 L7,7 L7,2 L0,2 Z " fill="#574DA6" transform="translate(580,549)"/>
<path d="M0,0 L6,2 L10,7 L5,7 L5,4 L0,3 Z " fill="#6F67DB" transform="translate(484,547)"/>
<path d="M0,0 L3,0 L1,6 L-2,10 L-4,12 L-4,6 L0,4 Z " fill="#5E6ECE" transform="translate(316,532)"/>
<path d="M0,0 L2,0 L1,9 L-3,10 L-3,7 Z " fill="#6762CB" transform="translate(467,411)"/>
<path d="M0,0 L2,0 L2,2 L6,0 L8,4 L5,4 L-2,4 Z " fill="#6A75DC" transform="translate(422,336)"/>
<path d="M0,0 L2,1 L5,2 L7,3 L7,5 L4,5 L3,7 L0,4 L0,2 L-4,1 Z " fill="#3A4588" transform="translate(362,684)"/>
<path d="M0,0 L5,0 L5,11 L3,11 L3,2 L0,1 Z " fill="#4949A6" transform="translate(662,619)"/>
<path d="M0,0 L10,1 L5,5 L1,4 Z " fill="#6D5FD0" transform="translate(541,581)"/>
<path d="M0,0 L4,1 L1,5 L-1,5 L-1,3 L-6,6 L-6,2 L-2,1 L0,2 Z " fill="#6272CC" transform="translate(336,486)"/>
<path d="M0,0 L1,0 L2,6 L1,13 L-1,14 L-1,1 Z " fill="#6460C5" transform="translate(476,393)"/>
<path d="M0,0 L1,3 L5,3 L5,1 L8,2 L8,5 L5,5 L5,7 L8,8 L4,8 L4,4 L0,4 Z " fill="#3D4788" transform="translate(348,672)"/>
<path d="M0,0 L8,1 L7,5 L1,5 Z " fill="#4A54A3" transform="translate(348,664)"/>
<path d="M0,0 L4,2 L4,7 L0,9 Z " fill="#7C67ED" transform="translate(500,591)"/>
<path d="M0,0 L2,0 L4,3 L7,4 L6,6 L0,6 L-2,5 L-1,1 L-1,4 L1,4 Z " fill="#414D95" transform="translate(358,679)"/>
<path d="M0,0 L4,0 L4,2 L6,2 L6,6 L0,4 Z " fill="#06070F" transform="translate(342,670)"/>
<path d="M0,0 L9,1 L8,4 L-3,2 Z " fill="#6B5DCA" transform="translate(536,570)"/>
<path d="M0,0 L2,1 L1,3 L3,3 L3,5 L-1,7 L-1,5 L-3,5 L-4,8 L-3,3 L0,2 Z " fill="#3F4989" transform="translate(358,326)"/>
<path d="M0,0 L4,1 L1,1 L1,3 L3,4 L-5,3 L-5,7 L-9,5 L-6,4 L-6,2 L0,2 Z " fill="#3D457F" transform="translate(410,268)"/>
<path d="M0,0 L4,0 L4,6 L0,6 Z " fill="#0B122C" transform="translate(323,751)"/>
<path d="M0,0 L3,0 L3,7 L0,9 Z " fill="#6A67CE" transform="translate(464,504)"/>
<path d="M0,0 L2,0 L3,3 L1,8 L-3,4 L-2,1 Z " fill="#5964BA" transform="translate(340,412)"/>
<path d="M0,0 L2,3 L3,8 L7,9 L5,13 L4,10 L1,9 Z " fill="#595BAF" transform="translate(461,323)"/>
<path d="M0,0 L6,0 L6,4 L0,4 Z " fill="#0C142C" transform="translate(267,285)"/>
<path d="M0,0 L2,3 L0,7 L-2,8 L-3,3 Z " fill="#45429B" transform="translate(657,663)"/>
<path d="M0,0 L2,0 L0,4 L-5,10 L-6,6 L-4,6 L-2,2 L0,2 Z " fill="#0B0B19" transform="translate(660,666)"/>
<path d="M0,0 L6,0 L4,5 L0,6 Z " fill="#544CB2" transform="translate(614,657)"/>
<path d="M0,0 L1,2 L4,2 L4,4 L6,4 L7,7 L2,5 L-1,4 Z " fill="#564DA8" transform="translate(584,568)"/>
<path d="M0,0 L2,4 L4,5 L2,10 L0,11 Z " fill="#5966BC" transform="translate(324,452)"/>
<path d="M0,0 L3,3 L2,8 L1,6 L-2,7 L-1,3 Z M-3,7 Z " fill="#4F5FB1" transform="translate(343,379)"/>
<path d="M0,0 L8,0 L8,2 L2,2 L2,5 L0,5 Z " fill="#4F5AA5" transform="translate(415,263)"/>
<path d="M0,0 L1,3 L3,3 L3,1 L5,1 L5,3 L7,4 L4,7 L0,4 Z " fill="#404B91" transform="translate(334,658)"/>
<path d="M0,0 L5,2 L8,3 L5,7 L3,7 L1,2 Z " fill="#5966BC" transform="translate(349,632)"/>
<path d="M0,0 Z M-2,1 L1,2 L-2,5 L-4,5 L-8,7 L-6,3 Z " fill="#6772D6" transform="translate(390,581)"/>
<path d="M0,0 L2,1 L-4,8 L-6,10 L-6,5 Z " fill="#5D6AC6" transform="translate(335,467)"/>
<path d="M0,0 L7,0 L7,2 L9,2 L9,4 L1,3 Z " fill="#4E509D" transform="translate(486,333)"/>
<path d="M0,0 L5,0 L5,4 L0,4 Z " fill="#6661D4" transform="translate(501,677)"/>
<path d="M0,0 L4,0 L4,3 L6,3 L5,7 L5,5 L3,5 L3,3 L0,4 Z " fill="#4654A6" transform="translate(362,672)"/>
<path d="M0,0 L6,1 L7,3 L0,4 Z " fill="#5C67BB" transform="translate(428,288)"/>
<path d="M0,0 L2,0 L3,3 L1,10 L0,10 Z " fill="#7D75F3" transform="translate(475,630)"/>
<path d="M0,0 L2,1 L2,3 L4,3 L3,7 L-1,8 L1,2 L-1,1 Z " fill="#5B50BC" transform="translate(626,616)"/>
<path d="M0,0 L2,0 L2,3 L4,3 L4,7 L0,5 Z " fill="#4A4BA2" transform="translate(655,591)"/>
<path d="M0,0 L6,0 L8,1 L7,5 L7,2 L1,3 Z " fill="#6760CC" transform="translate(484,522)"/>
<path d="M0,0 L1,4 L-3,9 L-5,9 L-5,6 L-2,3 L0,3 Z " fill="#6460C9" transform="translate(468,438)"/>
<path d="M0,0 L1,3 L5,3 L5,5 L-1,5 Z M5,2 Z " fill="#5F57C8" transform="translate(549,675)"/>
<path d="M0,0 L4,1 L3,4 L-1,5 Z " fill="#7565E5" transform="translate(501,652)"/>
<path d="M0,0 L7,1 L2,5 L0,4 Z " fill="#5360B5" transform="translate(360,648)"/>
<path d="M0,0 L1,0 L2,6 L2,9 L-1,9 Z " fill="#7B71F0" transform="translate(476,640)"/>
<path d="M0,0 L1,0 L1,6 L4,7 L0,8 L-2,1 Z " fill="#6154C3" transform="translate(592,603)"/>
<path d="M0,0 L1,0 L2,7 L3,9 L-1,9 L-1,1 Z " fill="#5C52B4" transform="translate(572,572)"/>
<path d="M0,0 L6,0 L6,3 L0,3 Z " fill="#0C1B31" transform="translate(721,513)"/>
<path d="M0,0 L4,0 L2,7 L0,7 Z " fill="#636FD5" transform="translate(417,660)"/>
<path d="M0,0 L3,2 L3,8 L1,5 L1,3 L-3,2 Z " fill="#7764E7" transform="translate(509,637)"/>
<path d="M0,0 L2,0 L2,7 L0,9 L-1,6 Z " fill="#7A67E6" transform="translate(511,606)"/>
<path d="M0,0 L9,3 L6,5 L0,3 Z " fill="#564FA4" transform="translate(534,521)"/>
<path d="M0,0 L2,0 L2,4 L5,4 L5,6 L0,5 Z " fill="#657ADB" transform="translate(415,387)"/>
<path d="M0,0 L2,2 L4,7 L1,7 L1,5 L-1,5 Z " fill="#636BC5" transform="translate(448,320)"/>
<path d="M0,0 L5,0 L5,2 L0,4 L0,2 L-4,1 Z " fill="#485298" transform="translate(428,263)"/>
<path d="M0,0 L4,0 L4,2 L2,2 L2,6 L0,6 Z " fill="#0C1430" transform="translate(565,825)"/>
<path d="M0,0 L4,0 L4,4 L0,4 Z " fill="#0A1327" transform="translate(603,801)"/>
<path d="M0,0 L3,0 L2,7 L0,6 L-1,1 Z " fill="#414D93" transform="translate(316,636)"/>
<path d="M0,0 L3,1 L2,7 L0,7 Z " fill="#677CD9" transform="translate(333,576)"/>
<path d="M0,0 L4,0 L4,4 L0,4 Z " fill="#0E1D34" transform="translate(753,511)"/>
<path d="M0,0 L2,0 L0,12 L-1,12 L-1,1 Z " fill="#6B6AD0" transform="translate(462,500)"/>
<path d="M0,0 L4,0 L4,4 L0,4 Z " fill="#0A1527" transform="translate(767,477)"/>
<path d="M0,0 L3,0 L4,3 L-1,4 Z " fill="#615CB7" transform="translate(501,388)"/>
<path d="M0,0 L3,1 L2,6 L2,8 L-1,9 Z " fill="#6271CF" transform="translate(392,340)"/>
<path d="M0,0 L4,1 L5,5 L2,5 Z " fill="#6168BB" transform="translate(444,306)"/>
<path d="M0,0 L6,0 L6,3 L0,2 Z " fill="#6F6FE7" transform="translate(470,663)"/>
<path d="M0,0 L4,1 L4,5 L1,5 Z " fill="#6170CE" transform="translate(327,592)"/>
<path d="M0,0 L2,1 L0,6 L-2,4 L-2,1 Z M-3,5 Z M-4,6 Z " fill="#6375D1" transform="translate(336,499)"/>
<path d="M0,0 L3,0 L2,5 L-1,5 Z " fill="#6465C8" transform="translate(461,364)"/>
<path d="M0,0 L3,1 L-4,4 L-5,1 Z " fill="#4C589E" transform="translate(419,267)"/>
<path d="M0,0 L2,1 L1,4 L-1,4 L-1,6 L-3,6 L-1,1 Z " fill="#6274D4" transform="translate(319,541)"/>
<path d="M0,0 L3,2 L-6,4 L-6,2 Z " fill="#6173D0" transform="translate(328,510)"/>
<path d="M0,0 L2,1 L0,2 Z M-1,2 Z M-3,3 L-1,3 L-3,7 L-5,6 Z " fill="#5049AA" transform="translate(625,666)"/>
<path d="M0,0 L4,1 L3,4 L-1,2 Z " fill="#5866BC" transform="translate(336,627)"/>
<path d="M0,0 L4,1 L3,5 L2,3 L0,3 Z " fill="#7064DC" transform="translate(493,560)"/>
<path d="M0,0 L3,1 L2,8 L1,8 L1,3 L-1,2 Z " fill="#5762B9" transform="translate(327,436)"/>
<path d="M0,0 L4,2 L4,5 L2,5 L1,3 L-1,4 Z " fill="#625EB9" transform="translate(493,368)"/>
<path d="M0,0 L4,0 L4,4 L0,2 Z " fill="#6268BD" transform="translate(440,302)"/>
<path d="M0,0 L2,0 L0,4 L-3,5 L-3,3 L-1,3 Z " fill="#5950B7" transform="translate(603,661)"/>
<path d="M0,0 L3,4 L2,6 L-2,5 L0,5 Z " fill="#7972EF" transform="translate(475,653)"/>
<path d="M0,0 L2,0 L0,4 L-2,5 L-2,1 Z " fill="#5E6EC8" transform="translate(332,487)"/>
<path d="M0,0 L3,3 L1,7 Z " fill="#6762CC" transform="translate(466,402)"/>
<path d="M0,0 L6,0 L5,3 L0,1 Z " fill="#594EB6" transform="translate(614,657)"/>
<path d="M0,0 L4,1 L4,3 L-1,3 Z " fill="#4D4AA3" transform="translate(651,586)"/>
<path d="M0,0 L4,1 L0,4 L-2,2 L0,2 Z " fill="#5F70CC" transform="translate(386,356)"/>
<path d="M0,0 L3,1 L2,3 L-3,2 Z " fill="#443E9B" transform="translate(591,694)"/>
<path d="M0,0 L4,0 L4,3 L0,2 Z " fill="#6A79DD" transform="translate(380,578)"/>
<path d="M0,0 L2,0 L3,3 L0,4 L-1,1 Z " fill="#7665E7" transform="translate(492,571)"/>
<path d="M0,0 L3,1 L1,5 Z " fill="#6975DC" transform="translate(391,555)"/>
<path d="M0,0 L2,0 L1,5 L-1,2 Z " fill="#6C68D6" transform="translate(470,527)"/>
<path d="M0,0 L2,0 L3,4 L1,5 Z " fill="#4D57A4" transform="translate(335,361)"/>
<path d="M0,0 L1,4 L-3,2 Z " fill="#404B8A" transform="translate(404,271)"/>
<path d="M0,0 L1,3 L-3,4 L-3,2 Z " fill="#6773D8" transform="translate(399,581)"/>
<path d="M0,0 L2,0 L0,4 L-2,1 Z " fill="#5B54B3" transform="translate(501,463)"/>
<path d="M0,0 L2,3 L-2,4 L-2,2 L0,2 Z " fill="#6C75DC" transform="translate(429,587)"/>
<path d="M0,0 L3,1 L0,4 Z " fill="#6978DC" transform="translate(410,352)"/>
<path d="M0,0 L3,0 L3,3 L0,2 Z " fill="#4B559C" transform="translate(353,337)"/>
<path d="M0,0 L2,2 L-1,4 Z " fill="#7A77EF" transform="translate(466,607)"/>
<path d="M0,0 L2,1 L2,3 L-1,2 Z " fill="#5F6AC3" transform="translate(361,628)"/>
<path d="M0,0 L2,0 L1,3 L-1,1 Z " fill="#5E52BE" transform="translate(612,620)"/>
</svg>
