<?xml version="1.0" encoding="UTF-8"?>
<!-- Generator: visioncortex VTracer 0.6.4 -->
<svg version="1.1" xmlns="http://www.w3.org/2000/svg" width="1024" height="1024">
<path d="M0,0 L1024,0 L1024,1024 L0,1024 Z " fill="#000000" transform="translate(0,0)"/>
<path d="M0,0 L8,0 L8,2 L66,2 L66,4 L70,4 L70,6 L74,6 L74,8 L76,8 L76,12 L78,12 L78,20 L76,20 L76,28 L74,28 L74,30 L78,32 L78,34 L82,34 L82,36 L86,36 L86,38 L94,38 L94,36 L96,36 L96,34 L104,34 L106,37 L114,38 L114,40 L118,40 L118,44 L122,44 L122,50 L142,50 L146,54 L146,66 L150,66 L150,68 L152,68 L152,74 L156,76 L158,80 L160,80 L160,84 L162,84 L162,88 L164,88 L164,96 L166,96 L166,98 L168,98 L168,110 L170,110 L170,112 L174,112 L174,114 L176,114 L176,110 L184,110 L184,114 L188,114 L188,116 L190,116 L190,120 L192,120 L192,124 L194,124 L194,126 L202,126 L204,129 L208,130 L208,128 L212,128 L212,126 L238,126 L238,128 L240,128 L240,158 L244,158 L244,166 L248,166 L248,200 L252,200 L252,192 L264,192 L264,198 L270,198 L270,202 L272,202 L272,210 L274,210 L274,218 L276,218 L276,238 L280,238 L280,252 L278,252 L278,254 L280,254 L280,278 L282,278 L282,280 L284,280 L284,288 L282,288 L282,290 L280,290 L280,310 L284,310 L284,322 L280,322 L280,352 L282,352 L282,366 L280,366 L280,402 L284,402 L284,410 L288,410 L288,450 L284,450 L284,486 L280,486 L280,494 L276,494 L276,502 L272,502 L272,510 L276,510 L276,518 L272,518 L272,534 L268,534 L268,538 L248,538 L248,534 L244,534 L244,538 L240,538 L240,546 L236,546 L236,578 L224,578 L224,586 L228,586 L228,598 L230,598 L230,600 L236,600 L236,612 L232,612 L232,614 L216,614 L216,612 L212,612 L212,614 L204,614 L204,618 L196,618 L196,622 L192,622 L192,626 L172,626 L172,618 L152,618 L152,622 L112,622 L112,624 L102,624 L102,622 L96,622 L96,624 L88,624 L88,626 L78,626 L78,622 L76,622 L76,624 L70,624 L70,622 L-116,622 L-116,618 L-128,618 L-128,614 L-136,614 L-138,610 L-152,610 L-156,606 L-156,598 L-160,598 L-160,596 L-164,596 L-170,589 L-172,588 L-172,578 L-178,578 L-180,574 L-184,574 L-184,570 L-188,570 L-188,568 L-198,568 L-198,566 L-202,566 L-202,564 L-208,564 L-208,562 L-210,562 L-210,558 L-212,558 L-212,550 L-208,550 L-208,546 L-212,546 L-212,542 L-216,542 L-216,534 L-220,534 L-220,526 L-224,526 L-224,502 L-228,502 L-228,494 L-232,494 L-232,498 L-248,498 L-248,486 L-252,486 L-252,470 L-248,470 L-248,466 L-252,466 L-254,459 L-256,458 L-256,452 L-258,452 L-258,450 L-262,450 L-262,448 L-264,448 L-264,414 L-268,414 L-268,410 L-272,410 L-272,414 L-288,414 L-288,410 L-292,410 L-292,406 L-296,406 L-296,390 L-292,390 L-292,386 L-296,386 L-296,382 L-300,382 L-300,370 L-304,370 L-304,366 L-308,366 L-308,322 L-312,322 L-312,314 L-308,314 L-308,306 L-304,306 L-304,302 L-308,302 L-308,294 L-312,294 L-312,290 L-324,290 L-324,294 L-330,294 L-330,292 L-332,292 L-332,282 L-336,282 L-336,262 L-332,262 L-332,250 L-336,250 L-336,242 L-332,242 L-332,238 L-324,238 L-324,242 L-312,242 L-312,238 L-308,238 L-308,166 L-300,166 L-300,158 L-280,158 L-280,156 L-274,156 L-274,158 L-268,158 L-268,142 L-260,142 L-260,138 L-264,138 L-264,134 L-268,134 L-268,126 L-264,124 L-264,122 L-260,122 L-260,114 L-252,114 L-252,110 L-248,110 L-248,108 L-246,108 L-246,102 L-244,102 L-244,94 L-238,94 L-238,92 L-236,92 L-236,90 L-228,90 L-228,86 L-226,86 L-226,84 L-224,84 L-224,80 L-222,80 L-222,78 L-196,78 L-196,82 L-192,82 L-192,86 L-188,86 L-188,82 L-184,82 L-184,78 L-180,78 L-180,74 L-176,74 L-176,70 L-172,70 L-172,62 L-176,62 L-176,60 L-180,60 L-180,50 L-176,50 L-176,46 L-172,46 L-172,42 L-132,42 L-132,40 L-124,40 L-124,38 L-108,38 L-108,34 L-106,34 L-106,32 L-96,32 L-96,30 L-88,30 L-88,28 L-76,28 L-76,26 L-72,26 L-72,24 L-60,24 L-60,22 L-58,22 L-58,20 L-52,20 L-52,14 L-48,14 L-48,12 L-32,12 L-32,14 L-24,14 L-24,8 L-18,8 L-18,12 L-16,12 L-16,6 L-12,6 L-12,2 L0,2 Z " fill="#E5D2B4" transform="translate(522,224)"/>
<path d="M0,0 L1,0 L2,5 L3,0 L7,0 L7,12 L9,12 L10,16 L13,19 L19,21 L19,23 L23,22 L31,25 L35,27 L80,28 L80,26 L108,26 L108,28 L116,27 L120,26 L120,28 L127,26 L132,26 L132,28 L136,28 L136,26 L147,26 L147,27 L172,28 L172,25 L168,25 L168,22 L201,22 L198,28 L217,28 L217,30 L222,29 L222,31 L224,32 L222,32 L222,34 L216,34 L216,32 L30,32 L30,28 L18,28 L18,24 L10,24 L8,20 L-6,20 L-10,16 L-10,7 L-13,7 L-13,5 L-9,5 L-9,7 L-6,8 L-6,13 L-4,12 L-3,9 L1,9 L1,7 L-1,7 Z " fill="#DAD1C5" transform="translate(376,814)"/>
<path d="M0,0 L6,0 L6,4 L8,4 L8,12 L10,12 L10,20 L12,20 L12,40 L16,40 L16,54 L14,54 L14,56 L16,56 L16,80 L18,80 L18,82 L20,82 L20,90 L18,90 L18,92 L16,92 L16,112 L20,112 L20,124 L16,124 L16,154 L18,154 L18,168 L16,168 L16,204 L20,204 L20,212 L24,212 L24,252 L20,251 L23,251 L23,213 L21,213 L21,249 L20,249 L19,213 L16,213 L15,205 L12,205 L12,167 L13,165 L13,156 L12,155 L11,124 L14,120 L16,120 L15,113 L10,111 L10,102 L12,102 L12,91 L15,87 L14,83 L12,80 L12,59 L10,59 L10,41 L8,41 L8,23 L6,23 L5,14 L2,5 L0,3 L5,3 L5,1 L0,1 Z " fill="#D5CFBF" transform="translate(786,422)"/>
<path d="M0,0 L8,0 L8,4 L12,4 L12,26 L10,26 L10,28 L8,28 L8,32 L10,32 L10,36 L12,36 L12,62 L6,62 L5,50 L0,46 L0,40 L-2,40 L-2,34 L-4,34 L-4,30 L-6,30 L-6,24 L-8,24 L-8,10 L-6,10 L-6,8 L-4,8 L-4,4 L0,4 Z " fill="#C6BEB2" transform="translate(826,634)"/>
<path d="M0,0 L3,1 L1,2 L1,4 L6,1 L7,8 L9,12 L12,15 L11,23 L13,23 L14,19 L13,26 L11,30 L12,37 L15,42 L15,46 L25,46 L26,44 L26,46 L30,46 L31,44 L31,46 L34,47 L35,54 L38,55 L39,66 L39,78 L42,79 L43,86 L46,87 L47,94 L51,95 L51,98 L55,99 L54,103 L51,108 L53,112 L63,116 L73,118 L74,120 L71,120 L71,122 L74,123 L70,123 L70,121 L60,121 L60,119 L56,119 L56,117 L50,117 L50,115 L48,115 L48,111 L46,111 L46,103 L50,103 L50,99 L46,99 L46,95 L42,95 L42,87 L38,87 L38,79 L34,79 L34,55 L30,55 L30,47 L26,47 L26,51 L10,51 L10,39 L6,39 L6,23 L10,23 L10,19 L6,19 L4,12 L2,11 L2,5 L0,5 L0,3 L-4,2 L0,2 Z " fill="#CDC4B7" transform="translate(264,671)"/>
<path d="M0,0 L33,0 L30,6 L49,6 L49,8 L54,7 L54,9 L56,10 L54,10 L54,12 L48,12 L48,10 L-138,10 L-137,6 L-137,9 L48,9 L48,7 L-124,7 L-124,6 L-88,6 L-88,4 L-60,4 L-60,6 L-52,5 L-48,4 L-48,6 L-41,4 L-36,4 L-36,6 L-32,6 L-32,4 L-21,4 L-21,5 L4,6 L4,3 L0,3 Z " fill="#B7B0A5" transform="translate(544,836)"/>
<path d="M0,0 L8,0 L8,2 L66,2 L66,4 L70,4 L70,6 L74,6 L74,8 L76,8 L76,12 L78,12 L78,20 L77,20 L77,13 L75,13 L75,19 L74,19 L72,13 L69,10 L66,9 L67,13 L64,13 L64,11 L61,11 L59,9 L57,8 L47,10 L44,11 L42,9 L34,9 L31,7 L30,9 L23,7 L12,6 L13,11 L8,12 L2,12 L0,9 L-10,9 L-8,8 L-9,5 L0,5 L0,3 L-11,3 L-12,6 L-12,2 L0,2 Z M0,10 Z " fill="#D1C6B0" transform="translate(522,224)"/>
<path d="M0,0 L21,0 L25,4 L25,7 L36,7 L39,5 L39,7 L43,7 L44,4 L44,8 L40,8 L40,12 L20,12 L20,4 L0,4 L0,8 L-40,8 L-40,10 L-50,10 L-50,8 L-56,8 L-56,10 L-64,10 L-64,12 L-74,12 L-73,8 L-73,11 L-65,11 L-65,9 L-71,9 L-67,8 L-66,5 L-56,5 L-56,7 L-50,7 L-50,5 L-42,5 L-41,3 L-32,3 L-28,2 L-28,4 L-18,4 L-18,2 L-16,2 L-16,4 L-14,4 L-14,2 L-12,2 L-12,4 L-10,4 L-10,2 L-8,2 L-8,4 L-6,4 L-5,2 L-1,3 Z " fill="#D4CBBC" transform="translate(674,838)"/>
<path d="M0,0 L12,0 L12,1 L1,1 L1,3 L12,3 L12,4 L0,5 L0,3 L-3,3 L-4,8 L-16,10 L-25,13 L-26,16 L-36,18 L-51,18 L-51,20 L-60,22 L-62,23 L-96,23 L-101,27 L-101,23 L-103,23 L-104,26 L-104,22 L-100,22 L-100,18 L-60,18 L-60,16 L-52,16 L-52,14 L-36,14 L-36,10 L-34,10 L-34,8 L-24,8 L-24,6 L-16,6 L-16,4 L-4,4 L-4,2 L0,2 Z " fill="#C0BBA6" transform="translate(450,248)"/>
<path d="M0,0 L26,0 L26,2 L28,2 L28,32 L32,32 L32,40 L36,40 L36,74 L40,74 L40,66 L52,66 L52,72 L51,72 L51,67 L41,67 L42,69 L49,69 L48,72 L48,70 L43,75 L40,78 L34,78 L32,75 L31,41 L28,40 L27,33 L24,32 L23,5 L0,5 L0,3 L-3,3 L-4,7 L-4,5 L-8,4 L-4,4 L-4,2 L0,2 Z " fill="#BFBBAA" transform="translate(734,350)"/>
<path d="M0,0 L1,0 L1,8 L-1,8 L-1,10 L3,12 L3,14 L7,14 L7,16 L11,16 L11,18 L19,18 L19,16 L21,16 L21,14 L29,14 L31,17 L39,18 L39,20 L43,20 L43,24 L47,24 L47,30 L67,30 L71,34 L71,46 L75,47 L72,47 L72,49 L70,49 L70,35 L68,35 L68,46 L67,46 L66,36 L64,35 L47,34 L43,31 L42,28 L39,25 L33,25 L29,23 L28,19 L22,21 L15,23 L10,22 L10,20 L8,19 L10,19 L10,17 L7,17 L7,19 L1,18 L-2,18 L-1,14 L-3,14 L-5,11 L-4,7 L0,7 Z " fill="#D0C8AF" transform="translate(597,244)"/>
<path d="M0,0 L8,0 L8,4 L20,4 L20,5 L2,6 L1,11 L4,12 L4,25 L1,30 L1,40 L5,47 L4,51 L7,51 L8,49 L8,51 L24,51 L25,53 L21,53 L21,55 L24,56 L20,56 L20,52 L8,52 L8,56 L2,56 L2,54 L0,54 L0,44 L-4,44 L-4,24 L0,24 L0,12 L-4,12 L-4,4 L0,4 Z " fill="#C3BFB0" transform="translate(190,462)"/>
<path d="M0,0 L28,0 L26,4 L21,5 L20,9 L16,9 L16,11 L8,12 L6,11 L6,9 L4,9 L4,12 L-2,12 L-3,10 L-8,12 L-13,11 L-24,12 L-24,10 L-26,10 L-26,6 L-24,6 L-24,8 L-20,7 L-20,9 L-8,8 L-4,7 L-2,8 L-2,2 Z " fill="#E6CCAD" transform="translate(546,748)"/>
<path d="M0,0 L6,0 L6,4 L8,4 L8,12 L10,12 L10,20 L12,20 L12,40 L16,40 L16,54 L14,54 L14,56 L16,56 L16,80 L15,80 L15,57 L13,57 L13,80 L12,80 L12,59 L10,59 L10,41 L8,41 L8,23 L6,23 L5,14 L2,5 L0,3 L5,3 L5,1 L0,1 Z " fill="#C2BBAE" transform="translate(786,422)"/>
<path d="M0,0 L1,0 L1,7 L3,7 L3,0 L4,0 L4,8 L0,8 L0,16 L4,16 L4,24 L0,24 L0,40 L-4,40 L-4,44 L-24,44 L-24,40 L-28,40 L-28,44 L-32,43 L-29,43 L-29,41 L-33,43 L-36,42 L-30,37 L-28,37 L-28,39 L-24,39 L-23,37 L-23,39 L-5,39 L-4,23 L-2,21 L-1,17 L-4,17 L-4,8 L-1,7 L-2,4 L0,4 Z " fill="#C1BBAD" transform="translate(794,718)"/>
<path d="M0,0 L58,0 L58,2 L62,2 L62,4 L66,4 L66,6 L68,6 L68,10 L70,10 L70,18 L69,18 L69,11 L67,11 L67,17 L66,17 L64,11 L61,8 L58,7 L59,11 L56,11 L56,9 L53,9 L51,7 L49,6 L39,8 L36,9 L34,7 L26,7 L23,5 L22,7 L15,5 L15,4 L57,3 L57,1 L0,1 Z " fill="#CDC1AB" transform="translate(530,226)"/>
<path d="M0,0 L8,0 L8,4 L12,4 L12,16 L8,16 L8,20 L0,20 L0,16 L-4,16 L-4,4 L0,4 Z " fill="#C9C0B4" transform="translate(238,646)"/>
<path d="M0,0 L4,1 L1,1 L1,6 L3,6 L4,3 L3,9 L-4,10 L-8,12 L-16,12 L-19,11 L-29,11 L-33,16 L-40,20 L-43,19 L-41,19 L-41,17 L-44,18 L-44,16 L-42,16 L-42,14 L-36,14 L-36,8 L-32,8 L-32,6 L-16,6 L-16,8 L-8,8 L-8,2 L-2,2 L-2,6 L0,6 Z " fill="#C2BCA1" transform="translate(506,230)"/>
<path d="M0,0 L3,1 L1,2 L1,4 L6,1 L7,8 L9,12 L12,15 L11,23 L13,23 L14,19 L13,26 L11,30 L12,37 L13,38 L13,48 L25,48 L25,50 L11,50 L11,39 L6,39 L6,23 L10,23 L10,19 L6,19 L4,12 L2,11 L2,5 L0,5 L0,3 L-4,2 L0,2 Z " fill="#C8C0B3" transform="translate(264,671)"/>
<path d="M0,0 L4,1 L1,1 L1,7 L3,7 L3,3 L5,3 L9,9 L9,48 L10,51 L12,51 L12,53 L9,53 L9,55 L12,56 L8,56 L8,52 L4,52 L4,8 L0,8 Z M5,6 Z " fill="#C7C1B2" transform="translate(210,538)"/>
<path d="M0,0 L8,0 L7,4 L0,5 L-2,6 L-36,6 L-41,10 L-41,6 L-43,6 L-44,9 L-44,5 L-40,5 L-40,1 Z " fill="#DAD3C0" transform="translate(390,265)"/>
<path d="M0,0 L26,0 L27,2 L27,32 L24,32 L23,5 L0,5 L0,3 L-3,3 L-4,7 L-4,5 L-8,4 L-4,4 L-4,2 L0,2 Z " fill="#C9C5B0" transform="translate(734,350)"/>
<path d="M0,0 L19,0 L19,2 L2,2 L2,8 L0,10 L-6,10 L-6,79 L-8,79 L-8,8 L-1,7 Z " fill="#DAD5C4" transform="translate(223,383)"/>
<path d="M0,0 L1,0 L2,5 L3,0 L7,0 L7,12 L9,12 L8,16 L-5,16 L-5,19 L8,19 L8,20 L-6,20 L-10,16 L-10,7 L-13,7 L-13,5 L-9,5 L-9,7 L-6,8 L-6,13 L-4,12 L-3,9 L1,9 L1,7 L-1,7 Z " fill="#D4CBBE" transform="translate(376,814)"/>
<path d="M0,0 L4,0 L4,20 L8,20 L8,28 L5,29 L4,40 L0,40 Z " fill="#F5DCB0" transform="translate(588,588)"/>
<path d="M0,0 L26,0 L26,4 L30,4 L30,8 L34,9 L30,9 L29,12 L28,9 L29,5 L27,5 L27,8 L23,7 L23,5 L4,5 L-2,12 L-3,9 L-5,9 L-6,12 L-6,8 L-4,8 L-4,6 L-2,6 L-2,2 L0,2 Z " fill="#C9C3B3" transform="translate(300,302)"/>
<path d="M0,0 L33,0 L30,6 L4,6 L4,3 L0,3 Z " fill="#CFC4B6" transform="translate(544,836)"/>
<path d="M0,0 L1,0 L1,36 L5,36 L5,44 L9,44 L9,84 L5,83 L8,83 L8,45 L6,45 L6,81 L5,81 L4,45 L1,45 L0,37 L-3,36 L0,36 Z " fill="#B6AFA3" transform="translate(801,590)"/>
<path d="M0,0 L21,0 L25,4 L25,7 L36,7 L39,5 L39,7 L43,7 L44,4 L44,8 L40,8 L40,12 L20,12 L20,4 L0,4 L0,3 L20,3 L20,1 L0,1 Z " fill="#B0A99E" transform="translate(674,838)"/>
<path d="M0,0 L2,1 L2,4 L41,4 L42,1 L42,5 L2,5 L2,7 L-8,7 L-8,5 L-14,5 L-14,7 L-22,7 L-22,9 L-32,9 L-31,5 L-31,8 L-23,8 L-23,6 L-29,6 L-25,5 L-24,2 L-14,2 L-14,4 L-8,4 L-8,2 L0,2 Z " fill="#B2ABA0" transform="translate(632,841)"/>
<path d="M0,0 L8,0 L8,1 L1,1 L1,3 L8,3 L8,4 L2,6 L-3,9 L-7,21 L-16,27 L-16,25 L-23,25 L-23,32 L-24,32 L-24,24 L-16,24 L-16,20 L-12,20 L-12,18 L-10,18 L-10,12 L-8,12 L-8,4 L-2,4 L-2,2 L0,2 Z " fill="#C9C3B3" transform="translate(286,314)"/>
<path d="M0,0 L11,1 L12,4 L15,5 L16,9 L11,12 L11,10 L-1,10 L-2,12 L-2,10 L-4,10 L-4,4 L-2,4 Z " fill="#CCC2B8" transform="translate(327,765)"/>
<path d="M0,0 L1,0 L2,14 L2,47 L-1,47 L-1,49 L2,50 L-2,50 L-2,14 L0,14 Z " fill="#121110" transform="translate(804,576)"/>
<path d="M0,0 L1,0 L1,8 L-1,8 L-1,10 L3,12 L3,14 L7,14 L7,16 L11,16 L11,18 L19,18 L19,16 L21,16 L21,14 L29,14 L29,15 L22,15 L22,18 L24,19 L20,22 L15,23 L10,22 L10,20 L8,19 L10,19 L10,17 L7,17 L7,19 L1,18 L-2,18 L-1,14 L-3,14 L-5,11 L-4,7 L0,7 Z " fill="#BFB6A6" transform="translate(597,244)"/>
<path d="M0,0 L2,0 L2,2 L10,2 L11,7 L13,8 L10,10 L10,8 L5,8 L5,10 L3,10 L3,12 L7,11 L4,14 L2,14 L2,12 L-2,12 L-3,14 L-3,12 L-6,11 L-6,6 L-2,2 L0,2 Z " fill="#C3BCAF" transform="translate(724,803)"/>
<path d="M0,0 L2,0 L2,2 L6,1 L6,3 L18,2 L24,1 L38,0 L38,3 L40,3 L40,0 L42,0 L42,5 L34,6 L32,5 L32,3 L30,3 L30,6 L24,6 L23,4 L18,6 L13,5 L2,6 L2,4 L0,4 Z " fill="#E2CCB1" transform="translate(520,754)"/>
<path d="M0,0 L4,1 L1,1 L1,19 L3,19 L3,3 L5,7 L5,16 L9,23 L8,27 L11,27 L12,25 L12,27 L28,27 L29,29 L25,29 L25,31 L28,32 L24,32 L24,28 L12,28 L12,32 L6,32 L6,30 L4,30 L4,20 L0,20 Z " fill="#B5B0A3" transform="translate(186,486)"/>
<path d="M0,0 L1,0 L1,7 L3,7 L3,0 L4,0 L4,8 L0,8 L0,16 L4,16 L4,24 L-1,24 L-1,39 L-3,39 L-4,23 L-2,21 L-1,17 L-4,17 L-4,8 L-1,7 L-2,4 L0,4 Z " fill="#D2C9BC" transform="translate(794,718)"/>
<path d="M0,0 L4,1 L1,1 L1,7 L3,7 L4,3 L7,9 L17,13 L27,15 L28,17 L25,17 L25,19 L28,20 L24,20 L24,18 L14,18 L14,16 L10,16 L10,14 L4,14 L4,12 L2,12 L2,8 L0,8 Z " fill="#BCB3A8" transform="translate(310,774)"/>
<path d="M0,0 L10,1 L13,4 L19,6 L19,8 L23,7 L30,9 L30,10 L19,10 L19,12 L30,12 L30,13 L18,13 L18,9 L10,9 L8,7 L8,4 L-5,4 L-5,1 Z " fill="#CDC5B8" transform="translate(376,829)"/>
<path d="M0,0 L5,0 L5,25 L4,32 L0,33 Z " fill="#D8CCB9" transform="translate(756,672)"/>
<path d="M0,0 L4,1 L1,1 L1,3 L4,4 L1,8 L1,11 L5,12 L7,15 L7,22 L4,23 L4,21 L-3,21 L-3,36 L-4,36 L-4,20 L4,20 L4,16 L0,16 L0,12 L-4,12 L-4,4 L0,2 Z " fill="#C1BDAC" transform="translate(258,346)"/>
<path d="M0,0 L58,0 L58,2 L62,2 L62,4 L66,4 L66,6 L68,6 L68,10 L70,10 L70,18 L69,18 L69,11 L67,11 L67,17 L66,17 L64,11 L61,8 L61,6 L59,5 L61,5 L61,3 L58,3 L57,5 L55,3 L57,3 L57,1 L0,1 Z " fill="#A8A191" transform="translate(530,226)"/>
<path d="M0,0 L4,1 L2,1 L2,21 L6,21 L6,33 L2,33 L2,63 L1,63 L1,33 L-3,34 L0,29 L2,29 L1,22 L-1,21 L1,21 Z " fill="#B7B3A6" transform="translate(800,513)"/>
<path d="M0,0 L8,0 L8,4 L12,4 L12,6 L14,6 L14,10 L16,10 L16,14 L18,14 L18,16 L26,16 L26,17 L18,17 L17,20 L17,18 L15,17 L17,17 L17,15 L13,16 L8,8 L7,5 L3,5 L3,3 L7,3 L7,1 L1,1 L1,6 L-2,5 L-2,7 L0,8 L-4,7 L-5,5 L-3,5 L-3,3 L-6,2 L-2,2 L-2,4 L0,4 Z " fill="#B5B095" transform="translate(698,334)"/>
<path d="M0,0 L1,2 L5,2 L6,0 L6,2 L10,3 L12,7 L10,7 L10,41 L9,41 L9,7 L5,7 L5,3 L1,3 L1,7 L-15,7 L-14,3 L-14,6 L0,6 L0,4 L-12,4 L-12,3 L0,2 Z " fill="#B5AEA2" transform="translate(249,631)"/>
<path d="M0,0 L1,4 L3,4 L3,12 L5,12 L5,14 L7,14 L7,26 L9,26 L8,28 L3,29 L3,14 L-1,13 L-2,4 L0,4 Z " fill="#C4BEA2" transform="translate(683,308)"/>
<path d="M0,0 L40,0 L40,1 L1,1 L1,3 L40,3 L38,5 L4,5 L-1,9 L-1,5 L-3,5 L-4,8 L-4,4 L0,4 Z " fill="#B2AD9D" transform="translate(350,266)"/>
<path d="M0,0 L2,0 L2,31 L-9,32 L-10,40 L-12,40 L-12,31 L-10,31 L-10,29 L0,29 Z " fill="#DCD4C5" transform="translate(755,770)"/>
<path d="M0,0 L3,0 L4,7 L8,8 L8,11 L12,12 L11,16 L7,20 L6,23 L4,23 L4,17 L7,17 L7,12 L3,12 L3,7 L0,7 Z " fill="#CEC5BA" transform="translate(307,758)"/>
<path d="M0,0 L1,0 L1,35 L3,35 L3,0 L4,0 L4,36 L0,36 L0,44 L-4,43 L-1,43 L-1,36 L-3,35 L-1,35 Z " fill="#B4AEA1" transform="translate(802,674)"/>
<path d="M0,0 L1,4 L3,5 L1,8 L1,16 L2,20 L1,23 L4,24 L0,24 L0,20 L-4,20 L-4,4 L0,4 Z " fill="#C5BFB1" transform="translate(230,610)"/>
<path d="M0,0 L6,0 L6,2 L12,2 L12,3 L6,3 L5,6 L1,6 L-14,7 L-17,10 L-17,5 L0,5 L0,3 L-19,3 L-19,10 L-20,10 L-20,2 L0,2 Z " fill="#B0AD9F" transform="translate(242,380)"/>
<path d="M0,0 L10,0 L8,5 L4,6 L4,10 L0,10 L-1,8 L-4,9 L-4,2 L0,2 Z " fill="#E0CEAC" transform="translate(598,752)"/>
<path d="M0,0 L20,0 L24,4 L24,16 L28,17 L25,17 L25,19 L23,19 L23,5 L21,5 L21,16 L20,16 L19,6 L17,5 L0,4 L0,3 L19,3 L19,1 L0,1 Z " fill="#B5AD96" transform="translate(644,274)"/>
<path d="M0,0 L6,0 L6,2 L8,2 L8,4 L12,4 L12,9 L10,9 L10,12 L8,12 L8,9 L6,9 L6,5 L-6,4 L-3,1 Z " fill="#D9CBB5" transform="translate(376,752)"/>
<path d="M0,0 L1,0 L2,24 L0,25 L-1,31 L1,31 L2,28 L1,58 L0,58 L0,32 L-2,32 L-2,28 L-4,28 L-4,24 L-2,24 L-2,22 L0,22 Z " fill="#242320" transform="translate(838,638)"/>
<path d="M0,0 L7,0 L7,3 L4,5 L4,13 L1,18 L-7,18 L-7,16 L-1,15 Z " fill="#DAD7C4" transform="translate(255,367)"/>
<path d="M0,0 L1,0 L1,9 L3,9 L3,0 L5,3 L6,9 L12,14 L16,16 L13,17 L13,19 L16,20 L12,20 L12,18 L8,18 L2,11 L0,10 Z " fill="#C3BCAF" transform="translate(350,802)"/>
<path d="M0,0 L5,0 L2,3 L2,56 L1,69 L0,69 Z " fill="#C9C3B3" transform="translate(217,393)"/>
<path d="M0,0 L1,0 L1,11 L15,11 L15,9 L3,9 L3,0 L5,3 L5,7 L15,7 L16,5 L16,7 L20,7 L21,5 L21,7 L23,8 L21,8 L21,15 L24,16 L20,16 L20,8 L16,8 L16,12 L0,12 Z " fill="#B3ACA0" transform="translate(274,710)"/>
<path d="M0,0 L2,0 L2,33 L5,33 L5,35 L0,34 Z " fill="#DED6C7" transform="translate(259,638)"/>
<path d="M0,0 L1,0 L1,12 L3,12 L3,0 L4,0 L4,13 L0,17 L-1,31 L-3,31 L-3,13 L0,13 Z " fill="#CDC7B8" transform="translate(190,474)"/>
<path d="M0,0 L2,0 L2,2 L4,2 L4,0 L6,0 L6,2 L8,2 L8,0 L10,0 L11,3 L10,5 L12,5 L12,3 L14,3 L14,6 L8,7 L5,6 L-2,6 L-4,4 L-4,1 L0,2 Z " fill="#E0CCB1" transform="translate(464,754)"/>
<path d="M0,0 L7,0 L9,4 L16,4 L16,9 L11,10 L7,8 L6,4 L2,5 L2,3 L0,3 Z " fill="#D3C8B7" transform="translate(619,259)"/>
<path d="M0,0 L1,0 L1,8 L5,8 L5,20 L7,20 L6,22 L2,22 L1,20 L0,11 L-2,8 L0,8 Z " fill="#C0B9AD" transform="translate(745,802)"/>
<path d="M0,0 L12,0 L12,6 L11,6 L11,1 L1,1 L2,3 L9,3 L8,6 L8,4 L3,9 L0,12 L-6,12 L-5,9 L0,9 Z " fill="#B9B5A4" transform="translate(774,416)"/>
<path d="M0,0 L9,0 L8,12 L4,13 L4,4 L0,5 Z " fill="#D6CAB5" transform="translate(708,756)"/>
<path d="M0,0 L6,0 L6,12 L2,12 L2,14 L-14,14 L-14,13 L1,13 L1,11 L-13,11 L-13,10 L-1,9 L1,8 L2,4 L0,3 L3,3 L3,11 L5,11 L5,1 L0,1 Z " fill="#B0AA9F" transform="translate(752,824)"/>
<path d="M0,0 L6,0 L6,4 L8,4 L8,12 L10,12 L10,20 L9,20 L9,13 L7,13 L6,15 L4,13 L2,5 L0,3 L5,3 L5,1 L0,1 Z " fill="#BBB6A6" transform="translate(786,422)"/>
<path d="M0,0 L1,0 L1,8 L-1,8 L-1,10 L2,11 L3,15 L6,15 L6,19 L1,18 L-2,18 L-1,14 L-3,14 L-5,11 L-4,7 L0,7 Z " fill="#CFC5B1" transform="translate(597,244)"/>
<path d="M0,0 L17,0 L16,4 L0,4 Z " fill="#EBD1AC" transform="translate(548,712)"/>
<path d="M0,0 L10,0 L10,5 L2,5 L2,7 L-8,7 L-7,3 L-7,6 L1,6 L1,4 L-5,4 L-1,3 Z " fill="#BDB6A9" transform="translate(608,843)"/>
<path d="M0,0 L8,0 L8,8 L0,8 Z " fill="#D1C7BB" transform="translate(728,768)"/>
<path d="M0,0 L14,1 L17,4 L14,4 L14,6 L17,7 L13,7 L13,5 L3,5 L3,2 L0,2 Z " fill="#C5BBB0" transform="translate(321,787)"/>
<path d="M0,0 L1,0 L1,7 L3,7 L3,0 L5,4 L6,8 L5,12 L7,12 L6,18 L3,20 L3,13 L1,13 L1,20 L0,20 L0,12 L4,12 L4,8 L0,8 Z " fill="#B8B2A5" transform="translate(214,518)"/>
<path d="M0,0 L26,0 L26,4 L30,4 L30,8 L34,9 L30,9 L29,12 L28,9 L29,5 L27,5 L27,8 L23,7 L23,5 L21,4 L25,3 L25,1 L0,1 Z " fill="#B0AB9F" transform="translate(300,302)"/>
<path d="M0,0 L4,1 L1,1 L1,19 L3,19 L3,3 L5,7 L5,16 L7,21 L6,21 L5,30 L4,30 L4,20 L0,20 Z " fill="#ABA69A" transform="translate(186,486)"/>
<path d="M0,0 L8,0 L12,2 L8,2 L8,4 L0,4 L0,8 L-8,8 L-8,7 L-1,7 L-1,5 L-8,5 L-4,3 L-1,3 Z " fill="#BCB6AA" transform="translate(726,834)"/>
<path d="M0,0 L8,0 L8,1 L1,1 L1,3 L8,3 L8,4 L2,6 L-3,9 L-5,12 L-5,5 L-7,5 L-7,12 L-8,12 L-8,4 L-2,4 L-2,2 L0,2 Z " fill="#B9B3A5" transform="translate(286,314)"/>
<path d="M0,0 L1,0 L2,27 L-2,28 L-1,1 Z " fill="#D0C6BA" transform="translate(805,646)"/>
<path d="M0,0 L6,1 L3,7 L-1,9 L-5,11 L-8,10 L-6,10 L-6,8 L-9,9 L-9,7 L-7,7 L-7,5 L0,5 Z " fill="#C9C3A9" transform="translate(471,239)"/>
<path d="M0,0 L25,0 L25,2 L1,2 L1,4 L-1,4 Z " fill="#DAD4C4" transform="translate(300,303)"/>
<path d="M0,0 L4,0 L4,2 L6,2 L6,8 L10,10 L10,16 L8,14 L6,16 L4,8 L3,5 L0,4 Z M5,9 Z " fill="#1B1A18" transform="translate(260,674)"/>
<path d="M0,0 L12,0 L12,4 L4,5 L0,4 Z " fill="#DCC7A8" transform="translate(536,272)"/>
<path d="M0,0 L8,0 L8,4 L2,4 L2,6 L0,6 L0,8 L-4,8 L-4,4 L0,4 Z " fill="#292825" transform="translate(726,806)"/>
<path d="M0,0 L8,0 L10,4 L14,4 L14,7 L9,7 L4,4 L0,4 Z " fill="#D0C9B1" transform="translate(716,351)"/>
<path d="M0,0 L1,0 L1,8 L3,8 L1,12 L-3,17 L-5,17 L-5,15 L-3,15 L-3,13 L-7,13 L-8,16 L-8,12 L-4,12 L-4,8 L0,8 Z " fill="#B8B1A5" transform="translate(350,286)"/>
<path d="M0,0 L6,0 L8,2 L20,3 L20,5 L5,5 L5,3 L-2,2 Z " fill="#DAD3C5" transform="translate(733,832)"/>
<path d="M0,0 L5,0 L5,4 L7,4 L6,10 L-4,9 L0,7 L4,7 L4,5 L0,5 Z " fill="#C3BBAE" transform="translate(730,794)"/>
<path d="M0,0 L3,0 L4,18 L2,18 L2,13 L0,13 Z " fill="#D5CDC0" transform="translate(819,645)"/>
<path d="M0,0 L1,0 L1,6 L5,8 L7,12 L9,12 L8,16 L6,14 L4,15 L4,13 L2,13 L2,11 L0,11 L0,8 L-2,8 L-2,6 L0,6 Z " fill="#B9B29A" transform="translate(673,292)"/>
<path d="M0,0 L2,0 L2,2 L4,2 L4,0 L6,0 L6,2 L10,0 L11,5 L6,6 L-1,5 L-2,2 L0,2 Z " fill="#D1C6B1" transform="translate(600,831)"/>
<path d="M0,0 L4,0 L4,12 L0,13 Z " fill="#F2D8B5" transform="translate(412,576)"/>
<path d="M0,0 L13,0 L12,4 L0,4 Z " fill="#F3D8B1" transform="translate(608,428)"/>
<path d="M0,0 L11,0 L11,2 L3,3 L3,5 L1,5 L0,8 L-4,9 L-4,4 L-1,3 Z " fill="#D8CEB6" transform="translate(511,227)"/>
<path d="M0,0 L8,0 L8,5 L0,5 L0,3 L-11,3 L-12,6 L-12,2 L0,2 Z " fill="#B8B09E" transform="translate(522,224)"/>
<path d="M0,0 L2,0 L3,3 L5,4 L5,6 L9,7 L9,9 L1,9 L0,6 L-3,4 L-7,3 L0,2 Z M1,4 Z " fill="#D4CCBE" transform="translate(600,840)"/>
<path d="M0,0 L12,0 L12,4 L0,4 Z " fill="#1E1D1B" transform="translate(326,770)"/>
<path d="M0,0 L6,0 L6,8 L0,8 Z " fill="#9E998F" transform="translate(192,538)"/>
<path d="M0,0 L7,0 L7,3 L2,8 L0,10 L-4,10 L-4,8 L-1,7 Z " fill="#D8D2C2" transform="translate(263,339)"/>
<path d="M0,0 L1,4 L3,4 L3,12 L5,12 L4,14 L-1,13 L-2,4 L0,4 Z " fill="#C0B89D" transform="translate(683,308)"/>
<path d="M0,0 L2,0 L2,5 L18,5 L18,7 L0,7 Z " fill="#DBD3C6" transform="translate(695,842)"/>
<path d="M0,0 L1,0 L1,6 L5,8 L7,10 L7,22 L6,22 L5,14 L0,9 L-1,6 Z M0,7 Z " fill="#1F1E1C" transform="translate(825,674)"/>
<path d="M0,0 L1,0 L1,11 L3,11 L3,0 L4,0 L5,11 L9,12 L9,14 L5,13 L5,15 L8,16 L4,16 L4,12 L0,12 Z " fill="#B8B3A5" transform="translate(222,594)"/>
<path d="M0,0 L2,1 L2,9 L14,9 L14,11 L0,11 Z " fill="#DED6C7" transform="translate(275,710)"/>
<path d="M0,0 L1,4 L3,4 L3,8 L5,8 L5,10 L13,10 L13,11 L5,11 L4,14 L4,12 L2,11 L4,11 L4,9 L0,10 L-2,7 L-2,4 L0,4 Z " fill="#B8B399" transform="translate(711,340)"/>
<path d="M0,0 L2,0 L2,7 L0,7 L0,14 L-6,14 L-5,12 L-3,12 L-3,6 L-1,4 Z " fill="#D3C9B6" transform="translate(597,237)"/>
<path d="M0,0 L12,0 L16,2 L25,3 L25,4 L12,4 L11,3 L0,2 Z " fill="#D6CDC0" transform="translate(395,839)"/>
<path d="M0,0 L9,2 L9,3 L-2,3 L-2,5 L9,5 L9,6 L-3,6 L-3,2 L-11,2 L-11,1 Z " fill="#B3ACA1" transform="translate(397,836)"/>
<path d="M0,0 L3,0 L3,4 L0,4 L1,8 L-2,8 L-2,6 L-5,6 L-6,1 L-1,1 Z " fill="#D0C5AF" transform="translate(588,229)"/>
<path d="M0,0 L1,0 L1,7 L9,5 L10,8 L5,8 L5,11 L18,11 L18,12 L4,12 L0,8 Z " fill="#B1AA9F" transform="translate(366,822)"/>
<path d="M0,0 L4,1 L1,1 L1,6 L3,6 L4,3 L3,9 L0,9 L0,7 L-3,8 L-3,3 L-7,3 L-7,8 L-8,8 L-8,2 L-2,2 L-2,6 L0,6 Z " fill="#ADA690" transform="translate(506,230)"/>
<path d="M0,0 L2,0 L1,5 L0,6 L-14,6 L-13,4 L-1,3 Z " fill="#D9D4C3" transform="translate(211,463)"/>
<path d="M0,0 L2,0 L2,12 L-4,12 L-4,10 L-2,10 L-2,8 L0,8 Z " fill="#262523" transform="translate(380,814)"/>
<path d="M0,0 L1,0 L1,9 L3,9 L3,0 L5,3 L6,9 L6,12 L3,12 L0,10 Z " fill="#BCB5A9" transform="translate(350,802)"/>
<path d="M0,0 L2,0 L2,3 L4,3 L4,0 L6,0 L6,6 L-2,6 L-2,3 L0,3 Z " fill="#E0CCB1" transform="translate(492,754)"/>
<path d="M0,0 L1,0 L1,20 L-2,19 L-2,10 L0,10 Z " fill="#CFC8B8" transform="translate(798,514)"/>
<path d="M0,0 L1,2 L5,3 L1,3 L1,8 L5,8 L5,10 L0,10 L-2,9 L-2,2 L0,2 Z " fill="#D8CFC1" transform="translate(729,791)"/>
<path d="M0,0 L1,3 L7,2 L12,4 L12,5 L7,5 L7,7 L12,7 L12,8 L6,8 L4,4 L0,4 Z " fill="#B3ACA2" transform="translate(338,794)"/>
<path d="M0,0 L1,0 L1,7 L3,7 L3,0 L5,4 L5,7 L7,8 L5,8 L5,15 L8,16 L4,16 L4,8 L0,8 Z " fill="#B0A99E" transform="translate(302,750)"/>
<path d="M0,0 L2,0 L2,8 L1,10 L-2,10 L-2,14 L-4,14 L-4,8 L-1,7 Z " fill="#DCD6C6" transform="translate(215,531)"/>
<path d="M0,0 L1,4 L3,5 L0,7 L0,5 L-5,5 L-5,7 L-7,7 L-7,9 L-3,8 L-6,11 L-8,11 L-8,9 L-12,8 L-8,8 L-8,6 L-6,6 L-6,4 L0,4 Z " fill="#B6AFA4" transform="translate(734,806)"/>
<path d="M0,0 L2,0 L2,2 L6,2 L7,0 L8,3 L2,3 L2,7 L-2,6 L1,6 L1,4 L-3,6 L-6,5 Z " fill="#C1BAAD" transform="translate(764,755)"/>
<path d="M0,0 L1,0 L1,7 L3,7 L3,0 L4,0 L4,8 L0,8 L0,16 L-1,16 L-1,8 L-3,7 L-1,7 L-2,4 L0,4 Z " fill="#B5AEA3" transform="translate(794,718)"/>
<path d="M0,0 L9,0 L8,4 L0,4 Z " fill="#EBD1AC" transform="translate(536,716)"/>
<path d="M0,0 L4,1 L1,1 L1,3 L5,4 L0,7 L0,5 L-7,5 L-7,12 L-8,12 L-8,4 L0,4 Z " fill="#ADA89B" transform="translate(270,334)"/>
<path d="M0,0 L2,0 L2,2 L6,2 L6,0 L9,1 L9,5 L3,4 L0,5 Z " fill="#E3CCB0" transform="translate(580,755)"/>
<path d="M0,0 L4,0 L4,8 L0,8 Z " fill="#DDD0B0" transform="translate(700,728)"/>
<path d="M0,0 L8,0 L8,4 L0,4 Z " fill="#EDD0AE" transform="translate(524,716)"/>
<path d="M0,0 L4,0 L4,8 L0,8 Z " fill="#ECD4BA" transform="translate(372,640)"/>
<path d="M0,0 L4,0 L4,8 L0,8 Z " fill="#DACEBB" transform="translate(264,576)"/>
<path d="M0,0 L4,1 L4,4 L2,6 L-5,6 L-5,4 L-1,3 Z " fill="#D8D1C2" transform="translate(335,307)"/>
<path d="M0,0 L8,0 L8,2 L12,2 L11,6 L11,3 L9,3 L8,7 L7,4 L0,4 L0,3 L7,3 L7,1 L0,1 Z " fill="#B3AB9B" transform="translate(628,262)"/>
<path d="M0,0 L2,0 L2,7 L4,8 L2,8 L2,10 L-1,10 L-1,2 Z " fill="#D0CAB7" transform="translate(793,435)"/>
<path d="M0,0 L10,0 L10,5 L8,5 L8,2 L1,2 L0,6 Z " fill="#DBD6C1" transform="translate(775,417)"/>
<path d="M0,0 L4,0 L5,4 L7,4 L7,7 L2,6 L0,5 Z " fill="#D6CFB2" transform="translate(499,233)"/>
<path d="M0,0 L1,2 L6,1 L6,3 L8,4 L6,4 L6,6 L0,6 Z " fill="#C1BAAF" transform="translate(592,842)"/>
<path d="M0,0 L9,1 L10,4 L1,4 Z " fill="#D6CDBF" transform="translate(385,833)"/>
<path d="M0,0 L1,0 L1,12 L3,12 L2,16 L0,16 L0,13 L-6,13 L-6,12 L0,12 Z " fill="#AEA79C" transform="translate(382,814)"/>
<path d="M0,0 L1,0 L2,5 L3,0 L4,0 L4,8 L2,8 L2,10 L0,10 L-1,12 L-1,10 L-3,9 L1,9 L1,7 L-1,7 Z " fill="#B4ADA2" transform="translate(376,814)"/>
<path d="M0,0 L1,0 L1,7 L3,7 L3,0 L5,4 L6,8 L4,12 L4,8 L0,8 Z " fill="#B7B2A5" transform="translate(214,518)"/>
<path d="M0,0 L2,4 L2,8 L-1,10 L-1,7 L-3,7 L-4,10 L-4,6 L-2,6 L-2,4 L0,4 Z " fill="#B9B4A5" transform="translate(298,304)"/>
<path d="M0,0 L8,0 L7,4 L0,4 Z " fill="#D1CBB5" transform="translate(390,265)"/>
<path d="M0,0 L1,0 L1,7 L3,7 L3,0 L4,0 L4,8 L-3,8 L-2,3 L0,3 Z " fill="#BDB6A9" transform="translate(758,762)"/>
<path d="M0,0 L6,0 L6,2 L2,2 L1,6 L-4,6 L-4,4 L-1,3 Z " fill="#D9D2C5" transform="translate(827,635)"/>
<path d="M0,0 L4,1 L1,1 L1,7 L3,7 L3,3 L5,3 L8,8 L0,8 Z M5,6 Z " fill="#B6B1A4" transform="translate(210,538)"/>
<path d="M0,0 L2,1 L2,9 L6,9 L6,11 L1,11 L0,10 Z " fill="#DBD5C5" transform="translate(191,506)"/>
<path d="M0,0 L4,0 L4,8 L2,8 L2,6 L0,6 Z " fill="#E1CCB1" transform="translate(628,344)"/>
<path d="M0,0 L3,0 L3,5 L7,6 L4,8 L0,8 Z " fill="#D1C5B4" transform="translate(604,261)"/>
<path d="M0,0 L8,0 L8,1 L1,1 L1,4 L3,5 L-2,8 L-2,2 L0,2 Z " fill="#B9B1A1" transform="translate(618,258)"/>
<path d="M0,0 L1,0 L1,8 L-1,8 L-1,10 L2,11 L0,12 L-5,11 L-4,7 L0,7 Z " fill="#B1A999" transform="translate(597,244)"/>
<path d="M0,0 L2,0 L2,3 L6,3 L5,7 L0,7 Z " fill="#E0CFA9" transform="translate(616,750)"/>
<path d="M0,0 L1,0 L1,5 L3,5 L3,0 L5,1 L6,6 L4,10 L4,6 L0,6 Z " fill="#B9B2A5" transform="translate(270,684)"/>
<path d="M0,0 L4,1 L1,1 L1,5 L-3,5 L-3,11 L0,12 L-4,12 L-4,4 L0,2 Z " fill="#A8A598" transform="translate(258,346)"/>
<path d="M0,0 L3,0 L3,3 L5,3 L5,7 L2,8 L2,6 L0,6 Z " fill="#D0C7AC" transform="translate(678,305)"/>
<path d="M0,0 L5,0 L5,10 L3,10 L3,2 L0,2 Z " fill="#DCD4C6" transform="translate(752,825)"/>
<path d="M0,0 L2,0 L1,5 L0,6 L-8,6 L-8,4 L-1,3 Z " fill="#DAD3C2" transform="translate(295,311)"/>
<path d="M0,0 L4,0 L4,2 L2,2 L0,6 L-2,6 L-2,8 L-4,8 L-4,4 L-1,3 Z " fill="#DAD3C4" transform="translate(343,299)"/>
<path d="M0,0 L5,1 L9,5 L4,6 L3,3 L0,2 Z " fill="#D4CBBF" transform="translate(335,791)"/>
<path d="M0,0 L6,0 L6,2 L2,2 L1,6 L-1,7 L-3,6 L-3,4 L-1,4 Z " fill="#D9D2B3" transform="translate(699,335)"/>
<path d="M0,0 L4,1 L4,7 L1,7 L-1,2 Z " fill="#D1C8AE" transform="translate(669,291)"/>
<path d="M0,0 L10,0 L10,2 L1,2 L1,4 L-1,4 Z " fill="#D7D2BC" transform="translate(416,257)"/>
<path d="M0,0 L2,0 L3,4 L2,6 L-2,6 L-4,6 L-4,2 L0,3 Z " fill="#E3CCB3" transform="translate(568,755)"/>
<path d="M0,0 L8,0 L8,3 L0,3 Z " fill="#E9D2A9" transform="translate(440,701)"/>
<path d="M0,0 L4,0 L4,6 L0,6 Z " fill="#DED7C8" transform="translate(193,539)"/>
<path d="M0,0 L17,0 L17,1 L3,2 L0,5 Z " fill="#C8C2B2" transform="translate(225,385)"/>
<path d="M0,0 L1,0 L1,8 L3,8 L1,12 L-3,11 L-3,9 L0,9 Z " fill="#C4BDB0" transform="translate(350,286)"/>
<path d="M0,0 L6,0 L8,2 L6,2 L5,5 L5,3 L-2,2 Z " fill="#CDC7B9" transform="translate(733,832)"/>
<path d="M0,0 L7,0 L4,4 L0,5 Z " fill="#D2C8AE" transform="translate(428,268)"/>
<path d="M0,0 L4,0 L2,4 L-4,4 L-4,2 Z " fill="#D3CCBB" transform="translate(275,333)"/>
<path d="M0,0 L7,0 L7,3 L0,3 Z " fill="#121210" transform="translate(727,807)"/>
<path d="M0,0 L1,4 L13,4 L13,5 L1,5 L0,7 L0,5 L-2,4 L0,4 Z " fill="#ADA49C" transform="translate(325,770)"/>
<path d="M0,0 L3,1 L6,5 L2,5 L-1,4 Z " fill="#D7CFC0" transform="translate(232,629)"/>
<path d="M0,0 L2,1 L2,3 L4,3 L4,5 L1,5 L1,7 L4,8 L0,8 L-1,1 Z " fill="#BEB9AB" transform="translate(218,586)"/>
<path d="M0,0 L5,0 L2,3 L2,11 L0,13 Z " fill="#C8C5B2" transform="translate(257,369)"/>
<path d="M0,0 L3,1 L-2,6 L-2,2 L-4,2 L-5,5 L-5,1 Z " fill="#BDB7A8" transform="translate(351,269)"/>
<path d="M0,0 L4,1 L4,5 L0,6 L0,2 L-2,1 Z " fill="#D7C3A8" transform="translate(584,263)"/>
<path d="M0,0 L4,0 L5,6 L0,4 Z " fill="#0E0D0C" transform="translate(260,674)"/>
<path d="M0,0 L5,1 L8,2 L8,4 L4,5 L4,3 L0,2 Z " fill="#D3CEAF" transform="translate(687,335)"/>
<path d="M0,0 L3,2 L3,4 L5,4 L4,8 L2,6 L0,7 Z " fill="#B2AB95" transform="translate(677,300)"/>
<path d="M0,0 L1,2 L8,2 L8,4 L3,5 L-1,3 Z " fill="#CDC2B0" transform="translate(627,264)"/>
<path d="M0,0 L5,0 L5,3 L-2,4 L-2,2 L0,2 Z " fill="#D5CDC0" transform="translate(729,811)"/>
<path d="M0,0 L7,0 L4,5 L3,1 L1,1 L0,4 Z " fill="#BCB9A9" transform="translate(210,462)"/>
<path d="M0,0 L1,0 L1,7 L-3,7 L-3,3 L0,3 Z " fill="#E0D5B5" transform="translate(307,449)"/>
<path d="M0,0 L4,0 L5,5 L2,5 L2,3 L-1,3 Z " fill="#CEC1A9" transform="translate(584,232)"/>
<path d="M0,0 L1,2 L5,2 L4,6 L-1,4 Z M1,3 Z " fill="#141312" transform="translate(357,818)"/>
<path d="M0,0 L5,0 L4,4 L0,5 Z " fill="#E7D4AD" transform="translate(628,716)"/>
<path d="M0,0 L3,0 L3,6 L0,6 Z " fill="#040403" transform="translate(186,477)"/>
<path d="M0,0 L5,0 L4,4 L0,5 Z " fill="#F0DCB7" transform="translate(436,396)"/>
<path d="M0,0 L2,1 L1,2 L-7,3 L-10,4 L-10,1 Z " fill="#C8C3AE" transform="translate(427,258)"/>
<path d="M0,0 L4,2 L0,5 L-2,5 L-1,1 Z " fill="#CFC2A9" transform="translate(540,232)"/>
<path d="M0,0 L3,1 L4,4 L-2,4 Z " fill="#E0CCB2" transform="translate(418,752)"/>
<path d="M0,0 L4,0 L4,4 L0,5 Z " fill="#D7CDB9" transform="translate(732,724)"/>
<path d="M0,0 L4,0 L4,4 L0,5 Z " fill="#EFD9B7" transform="translate(680,552)"/>
<path d="M0,0 L5,0 L4,4 L0,4 Z " fill="#DDCDBD" transform="translate(248,500)"/>
<path d="M0,0 L5,0 L4,4 L0,4 Z " fill="#DCCCBC" transform="translate(368,316)"/>
<path d="M0,0 L5,0 L4,4 L0,4 Z " fill="#D8C3AF" transform="translate(616,284)"/>
<path d="M0,0 L1,4 L-6,5 L-6,2 L-4,1 L-4,3 L0,3 Z " fill="#B8B2A6" transform="translate(717,842)"/>
<path d="M0,0 L4,0 L4,4 L0,4 Z " fill="#2A2826" transform="translate(730,794)"/>
<path d="M0,0 L4,0 L4,4 L0,4 Z " fill="#D6C7B4" transform="translate(400,792)"/>
<path d="M0,0 L3,1 L2,5 L-2,4 Z " fill="#DCCCB6" transform="translate(470,764)"/>
<path d="M0,0 L4,0 L4,4 L0,4 Z " fill="#E7D0B0" transform="translate(432,720)"/>
<path d="M0,0 L4,0 L4,4 L0,4 Z " fill="#F6DBB0" transform="translate(444,572)"/>
<path d="M0,0 L4,0 L4,4 L0,4 Z " fill="#F8E0B4" transform="translate(572,552)"/>
<path d="M0,0 L4,0 L4,4 L0,4 Z " fill="#F1DDBA" transform="translate(416,448)"/>
<path d="M0,0 L6,0 L5,3 L5,1 L0,5 Z " fill="#C7C2AF" transform="translate(777,419)"/>
<path d="M0,0 L4,0 L4,4 L0,4 Z " fill="#F2DBB9" transform="translate(448,396)"/>
<path d="M0,0 L4,0 L4,4 L0,4 Z " fill="#D5CCBB" transform="translate(340,316)"/>
<path d="M0,0 L4,0 L4,4 L0,4 Z " fill="#D2C4AF" transform="translate(636,284)"/>
<path d="M0,0 L2,2 L1,7 L4,8 L0,8 L-1,1 Z " fill="#BAB5A8" transform="translate(230,626)"/>
<path d="M0,0 L3,1 L4,5 L0,6 Z " fill="#CBC3B4" transform="translate(345,277)"/>
<path d="M0,0 L4,0 L3,4 L0,4 Z " fill="#D3C8BD" transform="translate(315,770)"/>
<path d="M0,0 L4,0 L2,4 L0,5 Z " fill="#F1D5B2" transform="translate(624,412)"/>
<path d="M0,0 L2,0 L1,5 L-2,6 Z " fill="#D5CEBE" transform="translate(347,271)"/>
<path d="M0,0 L1,2 L5,3 L1,3 L0,7 L0,3 L-2,2 L0,2 Z " fill="#B6AFA4" transform="translate(729,791)"/>
<path d="M0,0 L4,1 L4,5 L2,5 L2,2 L0,2 Z " fill="#D6CFB1" transform="translate(707,339)"/>
<path d="M0,0 L3,0 L3,4 L-1,3 Z " fill="#D2C8B5" transform="translate(600,259)"/>
<path d="M0,0 L4,1 L4,5 L2,5 L2,2 L0,2 Z " fill="#D5CCB9" transform="translate(593,231)"/>
<path d="M0,0 L4,0 L4,4 L2,4 L2,2 L0,2 Z " fill="#EEDBB3" transform="translate(676,572)"/>
<path d="M0,0 L1,4 L3,4 L2,7 L0,7 Z " fill="#BDBAA9" transform="translate(262,362)"/>
<path d="M0,0 L5,0 L0,5 Z " fill="#C8C2B2" transform="translate(265,341)"/>
<path d="M0,0 L2,0 L1,5 L-1,6 Z " fill="#D4CDBD" transform="translate(295,311)"/>
<path d="M0,0 L5,1 L3,4 L0,3 Z " fill="#CEC6B9" transform="translate(406,839)"/>
<path d="M0,0 L4,2 L4,4 L0,4 Z " fill="#CCC4B6" transform="translate(694,838)"/>
<path d="M0,0 L2,0 L3,5 L-1,3 Z " fill="#D0C8BA" transform="translate(274,706)"/>
<path d="M0,0 L3,0 L3,3 L-1,3 Z " fill="#D0CABB" transform="translate(218,530)"/>
<path d="M0,0 L3,0 L2,4 L0,4 Z " fill="#D3CDB4" transform="translate(731,353)"/>
<path d="M0,0 L3,0 L2,4 L0,4 Z " fill="#D3CDB6" transform="translate(447,251)"/>
<path d="M0,0 L3,0 L3,3 L-1,2 Z " fill="#11100F" transform="translate(378,822)"/>
<path d="M0,0 L3,3 L2,5 L-1,3 Z " fill="#CFC9BA" transform="translate(190,502)"/>
<path d="M0,0 L4,1 L3,3 L0,3 Z " fill="#CBC5A8" transform="translate(498,238)"/>
<path d="M0,0 L2,0 L3,3 L0,4 Z " fill="#E3CCB3" transform="translate(576,756)"/>
<path d="M0,0 L1,3 L-3,4 Z " fill="#CFC6B9" transform="translate(269,672)"/>
<path d="M0,0 L3,0 L3,3 L0,3 Z " fill="#CCC6B3" transform="translate(783,422)"/>
<path d="M0,0 L3,0 L2,3 L0,3 Z " fill="#CECAB9" transform="translate(254,382)"/>
<path d="M0,0 L3,1 L3,3 L0,2 Z " fill="#CDC9B8" transform="translate(195,465)"/>
<path d="M0,0 L2,2 L-1,3 Z " fill="#CDC5B7" transform="translate(608,843)"/>
</svg>
