<?xml version="1.0" encoding="UTF-8"?>
<!-- Generator: visioncortex VTracer 0.6.4 -->
<svg version="1.1" xmlns="http://www.w3.org/2000/svg" width="1024" height="1024">
<path d="M0,0 L1024,0 L1024,1024 L0,1024 Z " fill="#000000" transform="translate(0,0)"/>
<path d="M0,0 L26,0 L26,2 L50,2 L50,4 L58,4 L58,6 L66,6 L66,10 L70,12 L70,14 L72,14 L72,20 L76,20 L76,28 L80,28 L80,30 L84,30 L88,35 L90,36 L90,44 L92,44 L92,50 L100,50 L100,52 L102,52 L102,58 L106,58 L106,62 L110,62 L110,70 L106,70 L106,74 L96,74 L96,76 L94,76 L94,92 L102,92 L102,90 L108,90 L108,92 L112,92 L112,94 L116,94 L116,96 L120,96 L120,100 L122,100 L122,104 L126,106 L126,108 L128,108 L128,112 L130,112 L130,116 L132,116 L132,122 L134,122 L134,124 L136,124 L136,144 L138,144 L138,148 L140,148 L140,152 L142,152 L142,156 L144,156 L144,166 L146,166 L146,174 L148,174 L148,190 L146,190 L146,200 L144,200 L144,224 L142,224 L142,234 L140,234 L140,264 L136,264 L136,272 L134,272 L134,276 L132,276 L132,280 L130,280 L130,284 L128,284 L128,288 L126,288 L126,290 L122,290 L122,300 L120,300 L120,310 L116,310 L116,314 L114,314 L114,316 L90,316 L90,318 L78,318 L78,320 L68,320 L68,322 L50,322 L50,324 L42,324 L42,326 L34,326 L34,328 L26,328 L26,330 L20,330 L20,332 L16,332 L16,334 L-4,334 L-4,336 L-42,336 L-42,338 L-70,338 L-70,336 L-82,336 L-82,338 L-128,338 L-128,340 L-134,340 L-134,338 L-162,338 L-162,334 L-164,334 L-164,336 L-170,336 L-170,334 L-174,334 L-174,336 L-188,336 L-188,334 L-196,334 L-198,330 L-206,330 L-206,322 L-210,322 L-210,318 L-214,318 L-218,314 L-220,309 L-222,308 L-222,292 L-224,292 L-224,274 L-222,274 L-222,262 L-220,262 L-220,256 L-222,256 L-222,208 L-220,208 L-220,206 L-222,206 L-222,190 L-220,190 L-220,182 L-222,182 L-222,146 L-224,146 L-224,120 L-222,120 L-222,112 L-224,112 L-224,92 L-222,92 L-222,86 L-224,86 L-224,60 L-222,60 L-221,55 L-218,54 L-218,48 L-216,48 L-216,44 L-214,44 L-214,42 L-208,42 L-208,40 L-206,40 L-206,38 L-202,38 L-202,36 L-200,36 L-200,34 L-188,34 L-188,32 L-182,32 L-182,34 L-178,34 L-178,32 L-172,32 L-172,34 L-170,34 L-170,30 L-154,30 L-154,28 L-146,28 L-146,26 L-132,26 L-132,24 L-122,24 L-122,22 L-112,22 L-112,20 L-106,20 L-106,18 L-102,18 L-102,16 L-98,16 L-98,14 L-102,14 L-102,8 L-92,8 L-92,6 L-52,6 L-52,8 L-42,8 L-42,6 L-34,6 L-34,2 L0,2 Z " fill="#AC536F" transform="translate(552,352)"/>
<path d="M0,0 L8,0 L8,10 L18,10 L18,22 L22,22 L22,28 L24,28 L24,32 L26,32 L26,48 L28,48 L28,64 L30,64 L30,88 L28,88 L28,90 L30,90 L30,100 L26,100 L26,104 L30,104 L30,126 L32,126 L32,136 L34,136 L34,142 L40,142 L40,146 L48,146 L48,150 L52,150 L52,148 L58,148 L58,150 L62,150 L62,154 L70,154 L70,156 L72,156 L72,166 L78,166 L78,168 L80,168 L80,176 L82,176 L82,178 L116,178 L116,180 L124,180 L124,178 L132,178 L132,174 L138,174 L138,176 L146,176 L148,179 L154,180 L154,182 L158,182 L160,185 L166,186 L166,194 L168,194 L168,192 L174,192 L174,194 L176,194 L176,200 L180,200 L180,198 L192,198 L192,204 L180,204 L180,206 L228,206 L228,204 L236,204 L236,208 L244,208 L244,206 L294,206 L294,202 L300,202 L300,206 L350,206 L350,204 L360,204 L360,206 L376,206 L376,202 L396,202 L396,204 L412,204 L412,206 L460,206 L460,202 L470,202 L470,204 L472,204 L472,202 L478,202 L478,208 L474,208 L474,210 L470,210 L470,212 L462,212 L462,214 L458,214 L458,216 L428,216 L428,212 L426,212 L426,216 L416,216 L416,218 L410,218 L410,220 L400,220 L400,222 L396,222 L396,224 L370,224 L370,232 L368,232 L368,234 L366,234 L366,236 L364,236 L364,240 L360,240 L360,264 L356,264 L356,268 L352,268 L352,270 L348,270 L348,272 L344,272 L344,274 L310,274 L310,276 L306,276 L306,278 L300,278 L300,280 L290,280 L290,282 L268,282 L268,284 L258,284 L258,282 L232,282 L232,280 L222,280 L222,278 L202,278 L202,280 L196,280 L196,278 L176,278 L176,276 L140,276 L140,272 L130,272 L128,268 L124,268 L124,264 L120,264 L120,260 L116,260 L116,252 L120,252 L120,240 L116,240 L116,236 L88,236 L88,234 L80,234 L80,232 L78,232 L78,228 L68,228 L68,226 L64,226 L64,224 L60,224 L60,220 L56,220 L56,216 L52,216 L52,212 L48,212 L48,216 L28,216 L28,212 L24,212 L24,156 L20,156 L20,148 L16,148 L16,144 L12,144 L12,140 L8,138 L8,128 L4,128 L4,124 L-4,124 L-4,120 L-8,120 L-8,114 L-12,114 L-12,116 L-20,116 L-20,112 L-22,112 L-22,106 L-20,104 L-16,104 L-16,102 L-14,102 L-14,96 L-12,96 L-12,92 L-10,92 L-10,90 L-8,90 L-8,78 L-6,78 L-6,76 L-4,76 L-4,72 L-2,72 L-2,70 L0,70 L0,60 L4,60 L4,48 L8,48 L8,36 L4,36 L4,20 L0,20 Z " fill="#3C0008" transform="translate(214,574)"/>
<path d="M0,0 L50,0 L50,2 L58,2 L58,4 L76,4 L76,2 L88,2 L88,0 L110,0 L110,2 L126,2 L126,4 L144,4 L144,2 L156,2 L156,0 L170,0 L170,2 L174,2 L174,4 L182,4 L182,6 L186,6 L186,10 L188,10 L188,20 L182,20 L182,18 L176,18 L176,16 L166,16 L166,18 L152,18 L152,22 L144,22 L144,18 L132,18 L132,16 L128,20 L120,20 L120,18 L114,18 L114,20 L112,20 L112,28 L110,28 L110,30 L108,30 L108,32 L106,32 L106,34 L104,34 L104,36 L92,36 L92,38 L84,38 L84,34 L82,34 L82,38 L80,38 L80,42 L68,42 L68,44 L64,44 L64,48 L66,48 L66,62 L60,62 L60,64 L58,64 L58,66 L46,66 L46,64 L44,64 L44,60 L40,60 L40,48 L44,48 L42,42 L40,42 L40,38 L26,38 L26,36 L22,36 L22,34 L20,34 L20,24 L22,24 L22,22 L16,22 L16,20 L4,20 L4,26 L-4,26 L-4,30 L-8,30 L-8,32 L-14,32 L-14,34 L-16,34 L-16,36 L-18,36 L-18,38 L-28,38 L-28,42 L-34,42 L-34,44 L-36,44 L-36,46 L-44,46 L-44,42 L-46,42 L-46,44 L-52,44 L-52,46 L-60,46 L-60,40 L-54,40 L-54,38 L-52,38 L-52,36 L-48,36 L-48,32 L-44,32 L-44,12 L-40,12 L-40,8 L-32,8 L-32,6 L-30,6 L-30,4 L-16,4 L-16,2 L0,2 Z " fill="#3C000C" transform="translate(442,230)"/>
<path d="M0,0 L10,0 L10,1 L1,1 L1,3 L10,3 L10,4 L-8,7 L-10,7 L-10,9 L-17,9 L-21,10 L-25,11 L-30,14 L-39,13 L-49,17 L-41,18 L-42,21 L-48,22 L-53,22 L-58,23 L-61,23 L-62,25 L-64,25 L-65,23 L-66,25 L-68,25 L-69,22 L-73,22 L-75,21 L-70,17 L-77,18 L-80,19 L-80,21 L-86,26 L-90,27 L-91,30 L-89,31 L-94,37 L-97,42 L-97,62 L-96,64 L-96,71 L-97,75 L-97,86 L-95,91 L-95,98 L-97,101 L-97,122 L-95,125 L-95,137 L-96,140 L-94,140 L-93,148 L-95,151 L-94,158 L-93,168 L-94,169 L-95,180 L-94,187 L-95,189 L-95,232 L-94,233 L-94,246 L-95,251 L-97,255 L-97,266 L-95,271 L-95,283 L-94,288 L-90,290 L-88,294 L-82,294 L-79,303 L-71,307 L-63,309 L-53,309 L-48,308 L-44,309 L-40,308 L-36,310 L-11,310 L-10,313 L-7,312 L13,312 L13,310 L19,310 L19,312 L33,310 L38,306 L41,307 L42,309 L48,310 L49,307 L55,307 L56,306 L62,306 L63,309 L79,311 L81,307 L82,310 L84,310 L85,307 L86,310 L88,310 L89,307 L90,310 L92,310 L93,307 L94,310 L96,310 L97,307 L98,310 L102,309 L104,310 L104,308 L106,308 L106,310 L108,310 L109,307 L110,310 L121,306 L123,307 L136,308 L136,306 L139,307 L138,309 L142,310 L138,310 L138,312 L118,312 L118,314 L80,314 L80,316 L52,316 L52,314 L40,314 L40,316 L-6,316 L-6,318 L-12,318 L-12,316 L-40,316 L-40,312 L-42,312 L-42,314 L-48,314 L-48,312 L-52,312 L-52,314 L-66,314 L-66,312 L-74,312 L-76,308 L-84,308 L-84,300 L-88,300 L-88,296 L-92,296 L-96,292 L-98,287 L-100,286 L-100,270 L-102,270 L-102,252 L-100,252 L-100,240 L-98,240 L-98,234 L-100,234 L-100,186 L-98,186 L-98,184 L-100,184 L-100,168 L-98,168 L-98,160 L-100,160 L-100,124 L-102,124 L-102,98 L-100,98 L-100,90 L-102,90 L-102,70 L-100,70 L-100,64 L-102,64 L-102,38 L-100,38 L-99,33 L-96,32 L-96,26 L-94,26 L-94,22 L-92,22 L-92,20 L-86,20 L-86,18 L-84,18 L-84,16 L-80,16 L-80,14 L-78,14 L-78,12 L-66,12 L-66,10 L-60,10 L-60,12 L-56,12 L-56,10 L-50,10 L-50,12 L-48,12 L-48,8 L-32,8 L-32,6 L-24,6 L-24,4 L-10,4 L-10,2 L0,2 Z M-88,24 Z M-96,244 Z M-98,269 Z M-87,295 Z " fill="#914A5F" transform="translate(430,374)"/>
<path d="M0,0 L6,0 L6,6 L4,6 L4,10 L2,10 L2,16 L-8,16 L-8,18 L-12,18 L-12,20 L-16,20 L-16,22 L-22,22 L-22,24 L-38,24 L-38,26 L-40,26 L-40,28 L-46,28 L-46,34 L-48,34 L-48,36 L-54,36 L-54,34 L-58,38 L-62,38 L-62,40 L-68,40 L-68,46 L-70,46 L-70,48 L-80,48 L-80,50 L-86,50 L-86,48 L-90,48 L-90,52 L-92,52 L-92,54 L-96,54 L-96,56 L-102,56 L-102,48 L-98,48 L-98,40 L-90,40 L-90,28 L-82,28 L-82,40 L-70,40 L-70,24 L-62,24 L-62,22 L-60,22 L-60,20 L-46,20 L-46,18 L-44,18 L-44,16 L-38,16 L-38,12 L-34,12 L-34,10 L-18,10 L-18,8 L-10,8 L-10,4 L-2,4 L-2,2 L0,2 Z " fill="#37000D" transform="translate(340,278)"/>
<path d="M0,0 L2,2 L2,14 L3,19 L7,21 L9,25 L15,25 L18,34 L26,38 L34,40 L44,40 L49,39 L53,40 L57,39 L61,41 L86,41 L87,44 L90,43 L110,43 L110,41 L116,41 L116,43 L130,41 L135,37 L138,38 L139,40 L145,41 L146,38 L152,38 L153,37 L159,37 L160,40 L176,42 L178,38 L179,41 L181,41 L182,38 L183,41 L185,41 L186,38 L187,41 L189,41 L190,38 L191,41 L193,41 L194,38 L195,41 L199,40 L201,41 L201,39 L203,39 L203,41 L205,41 L206,38 L207,41 L218,37 L220,38 L233,39 L233,37 L236,38 L235,40 L239,41 L235,41 L235,43 L215,43 L215,45 L177,45 L177,47 L149,47 L149,45 L137,45 L137,47 L91,47 L91,49 L85,49 L85,47 L57,47 L57,43 L55,43 L55,45 L49,45 L49,43 L45,43 L45,45 L31,45 L31,43 L23,43 L21,39 L13,39 L13,31 L9,31 L9,27 L5,27 L1,23 L-1,18 L-3,17 L-3,1 L-2,1 L-2,16 L0,16 Z M10,26 Z " fill="#893C55" transform="translate(333,643)"/>
<path d="M0,0 L50,0 L50,2 L58,2 L58,4 L76,4 L76,2 L88,2 L88,0 L110,0 L110,2 L126,2 L126,4 L144,4 L144,2 L156,2 L156,0 L170,0 L170,2 L174,2 L174,4 L182,4 L182,6 L186,6 L186,10 L188,10 L188,20 L182,20 L182,18 L176,18 L176,16 L166,16 L166,18 L152,18 L152,22 L144,22 L144,18 L132,18 L132,16 L130,15 L133,14 L133,17 L144,17 L144,15 L134,14 L134,7 L132,7 L131,9 L126,7 L102,6 L100,3 L109,3 L109,1 L89,1 L87,6 L76,6 L58,5 L58,7 L60,8 L55,8 L54,6 L51,5 L50,4 L45,5 L38,3 L38,2 L1,1 L2,5 L0,5 L0,3 L-16,3 L-16,2 L0,2 Z M-12,5 L0,5 L0,6 L-12,6 Z " fill="#3A000B" transform="translate(442,230)"/>
<path d="M0,0 L26,0 L26,2 L50,2 L50,4 L58,4 L58,6 L66,6 L66,10 L70,12 L70,14 L72,14 L72,20 L76,20 L76,28 L80,28 L80,30 L84,30 L88,35 L90,36 L90,44 L92,44 L92,50 L100,50 L100,52 L102,52 L102,58 L106,58 L105,62 L105,59 L100,60 L99,58 L101,58 L101,53 L91,53 L91,45 L89,45 L89,51 L88,51 L86,45 L86,39 L84,39 L82,35 L80,33 L83,33 L83,31 L79,33 L74,32 L74,29 L72,29 L72,24 L69,25 L67,16 L62,11 L47,7 L41,7 L38,8 L38,6 L26,6 L24,6 L8,6 L8,4 L0,6 L-31,7 L-34,10 L-44,13 L-51,12 L-50,14 L-50,20 L-54,23 L-54,21 L-60,21 L-61,20 L-61,14 L-63,13 L-61,13 L-61,10 L-66,12 L-66,10 L-89,11 L-95,12 L-94,17 L-97,18 L-101,17 L-101,19 L-98,20 L-105,23 L-106,21 L-112,21 L-112,20 L-106,20 L-106,18 L-102,18 L-102,16 L-98,16 L-98,14 L-102,14 L-102,8 L-92,8 L-92,6 L-52,6 L-52,8 L-42,8 L-42,6 L-34,6 L-34,2 L0,2 Z M57,8 Z " fill="#8A3F54" transform="translate(552,352)"/>
<path d="M0,0 L1,0 L1,6 L3,6 L3,8 L5,8 L5,28 L7,28 L7,32 L9,32 L9,36 L11,36 L11,40 L13,40 L13,50 L15,50 L15,58 L17,58 L17,74 L15,74 L15,84 L13,84 L13,108 L11,108 L11,118 L9,118 L9,148 L5,148 L5,156 L3,156 L3,160 L1,160 L0,164 L-1,157 L0,159 L2,159 L1,156 L1,147 L2,140 L4,140 L2,134 L3,110 L1,111 L0,117 L-1,117 L-2,107 L-2,92 L1,86 L6,85 L7,70 L8,63 L13,62 L11,58 L11,55 L8,54 L8,42 L6,41 L6,37 L4,37 L1,28 L1,13 L-1,13 L-2,6 L0,6 Z " fill="#8B5261" transform="translate(683,468)"/>
<path d="M0,0 L1,4 L-1,4 L-1,8 L-3,8 L-3,10 L-7,10 L-7,20 L-9,20 L-9,30 L-13,30 L-13,34 L-15,34 L-15,36 L-39,36 L-39,38 L-51,38 L-51,40 L-61,40 L-61,42 L-79,42 L-79,44 L-87,44 L-87,46 L-95,46 L-95,48 L-103,48 L-103,50 L-109,50 L-109,49 L-104,49 L-104,47 L-109,47 L-106,45 L-97,43 L-95,41 L-82,39 L-81,36 L-75,37 L-74,34 L-72,37 L-67,37 L-62,36 L-53,36 L-53,34 L-41,33 L-39,32 L-18,31 L-14,26 L-13,17 L-12,16 L-10,7 L-5,3 L-4,1 L-2,1 L-2,3 L0,3 Z " fill="#884059" transform="translate(681,632)"/>
<path d="M0,0 L1,0 L1,22 L2,23 L1,63 L-3,63 L-3,71 L-5,71 L-5,75 L-7,75 L-8,79 L-9,72 L-8,74 L-6,74 L-7,71 L-7,62 L-6,55 L-4,55 L-6,49 L-5,25 L-7,26 L-8,32 L-9,32 L-10,22 L-10,7 L-7,1 L-1,1 Z " fill="#98586B" transform="translate(691,553)"/>
<path d="M0,0 L50,0 L50,2 L58,2 L58,4 L76,4 L76,2 L88,2 L88,0 L110,0 L110,2 L126,2 L126,4 L144,4 L144,2 L156,2 L156,0 L170,0 L170,2 L174,2 L174,4 L182,4 L182,6 L186,6 L185,10 L185,7 L183,7 L182,10 L182,8 L173,8 L172,5 L173,3 L166,4 L169,3 L169,1 L157,1 L158,4 L155,6 L126,6 L120,7 L102,6 L100,3 L109,3 L109,1 L89,1 L87,6 L76,6 L58,5 L58,7 L60,8 L55,8 L54,6 L51,5 L50,4 L45,5 L38,3 L38,2 L1,1 L2,5 L0,5 L0,3 L-16,3 L-16,2 L0,2 Z M-12,5 L0,5 L0,6 L-12,6 Z " fill="#300007" transform="translate(442,230)"/>
<path d="M0,0 L10,0 L10,2 L12,2 L12,0 L18,0 L18,6 L14,6 L14,8 L10,8 L10,10 L2,10 L2,12 L-2,12 L-2,14 L-32,14 L-32,10 L-34,9 L-29,7 L0,7 L0,5 L-48,5 L-48,4 L0,4 Z " fill="#340007" transform="translate(674,776)"/>
<path d="M0,0 L8,0 L8,10 L7,10 L7,1 L1,1 L1,19 L5,19 L5,35 L9,35 L10,40 L11,40 L12,48 L10,48 L8,53 L8,59 L5,62 L1,61 L2,72 L-1,76 L-3,76 L-5,89 L-8,95 L-10,95 L-11,102 L-17,109 L-18,112 L-7,112 L-7,119 L-3,119 L-3,123 L5,123 L5,127 L8,128 L4,128 L4,124 L-4,124 L-4,120 L-8,120 L-8,114 L-12,114 L-12,116 L-20,116 L-20,112 L-22,112 L-22,106 L-20,104 L-16,104 L-16,102 L-14,102 L-14,96 L-12,96 L-12,92 L-10,92 L-10,90 L-8,90 L-8,78 L-6,78 L-6,76 L-4,76 L-4,72 L-2,72 L-2,70 L0,70 L0,60 L4,60 L4,48 L8,48 L8,36 L4,36 L4,20 L0,20 Z M-4,84 Z " fill="#2F000E" transform="translate(214,574)"/>
<path d="M0,0 L10,0 L10,6 L8,6 L8,8 L6,8 L6,30 L10,30 L10,36 L8,36 L8,48 L0,48 Z " fill="#340011" transform="translate(210,478)"/>
<path d="M0,0 L6,0 L6,5 L56,5 L56,7 L6,8 L5,4 L1,7 L-16,8 L-28,8 L-49,7 L-49,9 L-51,10 L-57,10 L-58,7 L-50,7 L-50,4 L0,4 Z " fill="#40000D" transform="translate(508,776)"/>
<path d="M0,0 L1,0 L1,24 L-3,24 L-3,28 L-7,28 L-7,30 L-11,30 L-11,32 L-15,32 L-15,34 L-49,34 L-49,36 L-53,36 L-53,38 L-59,38 L-59,40 L-69,40 L-69,42 L-91,42 L-91,41 L-75,41 L-74,38 L-69,37 L-60,36 L-59,34 L-50,35 L-50,33 L-52,32 L-47,29 L-25,29 L-18,30 L-12,31 L-12,29 L-14,28 L-10,28 L-10,26 L-4,27 L-4,23 L0,23 Z " fill="#320002" transform="translate(573,814)"/>
<path d="M0,0 L40,0 L40,1 L1,1 L1,3 L32,3 L32,7 L38,7 L38,5 L50,5 L48,7 L41,6 L42,8 L42,14 L38,17 L38,15 L32,15 L31,14 L31,8 L29,7 L31,7 L31,4 L26,6 L26,4 L3,5 L-3,6 L-2,11 L-5,12 L-9,11 L-9,13 L-6,14 L-13,17 L-14,15 L-20,15 L-20,14 L-14,14 L-14,12 L-10,12 L-10,10 L-6,10 L-6,8 L-10,8 L-10,2 L0,2 Z " fill="#824154" transform="translate(460,358)"/>
<path d="M0,0 L2,2 L2,14 L3,19 L7,21 L9,25 L15,25 L18,34 L26,38 L34,40 L44,40 L49,42 L45,43 L45,45 L31,45 L31,43 L23,43 L21,39 L13,39 L13,31 L9,31 L9,27 L5,27 L1,23 L-1,18 L-3,17 L-3,1 L-2,1 L-2,16 L0,16 Z M10,26 Z " fill="#82384F" transform="translate(333,643)"/>
<path d="M0,0 L6,0 L6,6 L4,6 L4,8 L2,8 L2,10 L0,10 L0,16 L2,16 L2,22 L0,22 L0,40 L-6,40 L-6,4 L-2,4 L-2,2 L0,2 Z " fill="#35000E" transform="translate(220,350)"/>
<path d="M0,0 L33,0 L33,3 L2,4 L-1,7 L-6,8 L-21,8 L-21,10 L-27,10 L-27,6 L-58,6 L-58,4 L-19,4 L-9,5 L-9,3 L0,3 Z " fill="#92445A" transform="translate(519,355)"/>
<path d="M0,0 L2,0 L2,15 L5,15 L5,39 L3,39 L3,41 L5,41 L5,51 L1,51 L1,55 L5,55 L6,82 L4,83 L4,78 L0,77 L1,75 L2,58 L0,58 L0,55 L-2,55 L-1,50 L1,48 L2,42 L0,42 L-1,39 L2,38 L1,16 L-1,14 Z " fill="#42011B" transform="translate(239,623)"/>
<path d="M0,0 L2,1 L15,2 L15,0 L18,1 L17,3 L21,4 L17,4 L17,6 L-3,7 L-41,7 L-42,3 L-39,1 L-39,4 L-37,4 L-36,1 L-35,4 L-33,4 L-32,1 L-31,4 L-29,4 L-28,1 L-27,4 L-25,4 L-24,1 L-23,4 L-19,3 L-17,4 L-17,2 L-15,2 L-15,4 L-13,4 L-12,1 L-11,4 Z " fill="#91445D" transform="translate(551,680)"/>
<path d="M0,0 L5,1 L12,3 L12,11 L14,11 L14,9 L20,9 L20,11 L22,11 L22,17 L26,17 L26,15 L38,15 L38,21 L25,21 L24,24 L23,20 L20,19 L18,21 L18,24 L15,24 L14,21 L12,20 L12,18 L16,19 L16,12 L15,14 L11,13 L9,12 L7,7 L3,4 L3,2 L0,2 Z " fill="#420011" transform="translate(368,757)"/>
<path d="M0,0 L10,0 L10,1 L1,1 L1,3 L10,3 L10,4 L-8,7 L-10,7 L-10,9 L-17,9 L-21,10 L-32,11 L-32,9 L-47,9 L-46,13 L-56,15 L-56,13 L-65,14 L-61,13 L-61,11 L-66,11 L-66,10 L-60,10 L-60,12 L-56,12 L-56,10 L-50,10 L-50,12 L-48,12 L-48,8 L-32,8 L-32,6 L-24,6 L-24,4 L-10,4 L-10,2 L0,2 Z M-61,15 L-56,15 L-56,16 L-61,16 Z " fill="#844556" transform="translate(430,374)"/>
<path d="M0,0 L4,0 L4,8 L0,8 L0,12 L-10,12 L-10,14 L-12,14 L-12,30 L-4,30 L-4,28 L2,28 L2,30 L6,31 L2,31 L1,34 L-3,33 L-4,34 L-12,34 L-13,31 L-16,30 L-16,13 L-12,11 L-12,9 L-2,6 Z " fill="#7F4A58" transform="translate(658,414)"/>
<path d="M0,0 L1,4 L-1,4 L-1,8 L-3,8 L-3,10 L-7,10 L-7,20 L-9,20 L-9,30 L-14,30 L-14,33 L-16,35 L-39,35 L-39,32 L-18,31 L-14,26 L-13,17 L-12,16 L-10,7 L-5,3 L-4,1 L-2,1 L-2,3 L0,3 Z " fill="#8E4A5F" transform="translate(681,632)"/>
<path d="M0,0 L12,1 L12,3 L19,4 L45,5 L45,7 L54,7 L55,11 L45,11 L45,9 L19,9 L19,7 L9,7 L9,5 L-11,5 L-11,4 L9,4 L9,2 L-10,2 L-10,1 Z " fill="#310001" transform="translate(427,847)"/>
<path d="M0,0 L2,1 L1,3 L1,7 L3,7 L3,5 L9,5 L9,7 L11,7 L12,3 L15,3 L11,12 L5,13 L0,12 L-3,13 L-3,11 L-11,13 L-13,12 L-13,6 L-9,4 L-10,1 Z M15,1 Z " fill="#9D5066" transform="translate(429,384)"/>
<path d="M0,0 L1,3 L3,3 L4,0 L4,4 L2,4 L2,30 L4,30 L4,36 L2,36 L2,56 L4,56 L4,64 L2,64 L2,90 L4,90 L4,126 L3,126 L3,91 L1,91 L1,126 L0,126 Z " fill="#130A0D" transform="translate(326,408)"/>
<path d="M0,0 L1,0 L1,5 L6,5 L6,13 L10,13 L10,15 L14,15 L18,20 L20,21 L20,29 L22,29 L22,35 L30,35 L30,37 L32,37 L32,43 L36,43 L35,47 L35,44 L30,45 L29,43 L31,43 L31,38 L21,38 L21,30 L19,30 L19,36 L18,36 L16,30 L16,24 L14,24 L12,20 L10,18 L13,18 L13,16 L9,18 L4,17 L4,14 L2,14 L2,9 L-1,10 L-2,4 Z " fill="#8B4A5C" transform="translate(622,367)"/>
<path d="M0,0 L12,0 L12,10 L6,10 L6,12 L4,12 L4,14 L-2,14 L-2,10 L-10,10 L-10,4 L0,4 Z " fill="#32000A" transform="translate(718,760)"/>
<path d="M0,0 L11,0 L11,12 L15,12 L15,18 L17,18 L17,22 L19,22 L19,38 L21,38 L21,54 L20,54 L20,39 L18,39 L17,41 L15,36 L15,27 L13,19 L11,19 L10,13 L7,11 L7,8 L3,7 L3,3 L0,3 Z " fill="#3D0018" transform="translate(221,584)"/>
<path d="M0,0 L3,1 L1,1 L1,3 L11,3 L15,6 L20,6 L20,8 L22,9 L21,11 L49,11 L49,15 L53,15 L53,29 L49,29 L49,35 L53,35 L53,39 L57,39 L57,43 L63,43 L64,46 L73,47 L73,51 L108,51 L108,52 L72,52 L72,48 L62,48 L60,44 L56,44 L56,40 L52,40 L52,36 L48,36 L48,28 L52,28 L52,16 L48,16 L48,12 L20,12 L20,10 L12,10 L12,8 L10,8 L10,4 L0,4 L0,2 L-4,1 Z " fill="#2B0000" transform="translate(282,798)"/>
<path d="M0,0 L1,0 L1,13 L-2,13 L-2,21 L-4,21 L-4,25 L-7,26 L-8,32 L-9,32 L-10,22 L-10,7 L-7,1 L-1,1 Z " fill="#985569" transform="translate(691,553)"/>
<path d="M0,0 L32,0 L33,1 L54,2 L55,5 L54,7 L59,7 L59,8 L53,8 L53,6 L33,6 L33,3 L-2,3 L-2,1 Z " fill="#370001" transform="translate(357,846)"/>
<path d="M0,0 L8,0 L8,8 L6,8 L4,12 L1,13 L0,16 L-8,16 L-8,4 L-1,4 Z " fill="#410002" transform="translate(480,816)"/>
<path d="M0,0 L1,0 L1,6 L4,6 L4,12 L3,17 L1,21 L1,51 L-1,51 L-1,36 L-4,36 L-4,18 L-2,18 L-2,6 L0,6 Z M2,10 Z " fill="#8E455E" transform="translate(332,608)"/>
<path d="M0,0 L26,0 L26,5 L24,6 L8,6 L8,4 L0,5 L0,3 L-33,3 L-34,6 L-34,2 L0,2 Z " fill="#873D52" transform="translate(552,352)"/>
<path d="M0,0 L4,1 L4,13 L3,16 L5,16 L6,24 L4,27 L5,34 L6,44 L2,44 L2,36 L0,36 Z " fill="#964F67" transform="translate(331,498)"/>
<path d="M0,0 L16,0 L15,4 L-1,4 L-3,3 L-3,9 L-6,11 L-7,15 L-12,16 L-6,17 L-6,18 L-12,18 L-12,24 L-13,24 L-13,18 L-16,17 L-14,13 L-12,13 L-12,11 L-25,11 L-25,13 L-28,12 L-26,12 L-26,10 L-12,10 L-12,8 L-10,8 L-10,6 L-4,6 L-4,2 L0,2 Z " fill="#320009" transform="translate(306,288)"/>
<path d="M0,0 L28,0 L28,2 L22,2 L22,4 L12,4 L12,8 L0,8 L0,6 L-4,6 L-4,2 L0,2 Z " fill="#060000" transform="translate(450,802)"/>
<path d="M0,0 L3,1 L7,6 L7,14 L4,19 L0,18 L0,16 L-2,16 L-3,13 L-5,12 L-5,4 Z " fill="#370014" transform="translate(223,654)"/>
<path d="M0,0 L1,2 L24,2 L25,0 L25,3 L63,3 L63,4 L25,4 L25,6 L-3,6 L-2,1 Z " fill="#853E54" transform="translate(485,684)"/>
<path d="M0,0 L1,0 L1,8 L3,8 L3,32 L4,34 L1,34 L1,70 L0,70 L0,34 L-2,34 L-2,8 L0,8 Z " fill="#84465B" transform="translate(330,464)"/>
<path d="M0,0 L13,1 L13,2 L3,2 L3,4 L-1,4 L-1,6 L-27,6 L-27,14 L-29,14 L-29,16 L-31,16 L-31,18 L-33,18 L-33,22 L-37,21 L-34,21 L-35,16 L-32,17 L-32,15 L-30,15 L-31,11 L-29,12 L-27,3 L-2,2 Z " fill="#310004" transform="translate(611,792)"/>
<path d="M0,0 L48,0 L48,2 L42,4 L34,4 L34,2 L26,3 L2,3 L0,2 Z " fill="#45000C" transform="translate(394,781)"/>
<path d="M0,0 L39,0 L39,2 L49,2 L49,4 L37,4 L37,6 L31,6 L31,2 L0,2 Z " fill="#9B4E64" transform="translate(461,359)"/>
<path d="M0,0 L6,0 L6,2 L10,2 L10,6 L18,6 L19,8 L19,18 L16,17 L16,9 L10,11 L9,7 L6,7 L6,5 L2,6 L-2,6 L-5,4 L0,3 Z " fill="#410117" transform="translate(266,722)"/>
<path d="M0,0 L4,0 L4,4 L10,4 L10,2 L22,2 L20,4 L13,3 L14,5 L14,11 L10,14 L10,12 L4,12 L3,11 L3,5 L1,4 L3,4 L3,1 L0,2 Z " fill="#864557" transform="translate(488,361)"/>
<path d="M0,0 L4,0 L4,2 L8,2 L8,6 L10,6 L10,10 L14,12 L14,14 L16,14 L16,18 L18,18 L17,22 L17,19 L15,19 L14,22 L9,14 L7,13 L7,11 L4,11 L3,6 L1,5 L1,3 L3,3 L3,1 Z " fill="#8B4B5D" transform="translate(664,446)"/>
<path d="M0,0 L6,0 L7,3 L23,5 L23,6 L0,6 L-3,6 L-4,7 L-16,7 L-16,5 L-8,4 L-7,1 L-1,1 Z " fill="#95455F" transform="translate(486,680)"/>
<path d="M0,0 L1,4 L-1,4 L-1,6 L-25,6 L-25,8 L-37,8 L-37,10 L-47,10 L-47,9 L-38,9 L-38,7 L-47,7 L-47,6 L-39,6 L-39,4 L-25,3 L-25,5 L-4,4 L0,3 Z " fill="#824055" transform="translate(667,662)"/>
<path d="M0,0 L1,0 L1,16 L3,16 L3,18 L1,18 L1,66 L3,66 L3,72 L1,72 L1,84 L0,84 L-1,66 L-1,16 Z " fill="#1F1015" transform="translate(329,542)"/>
<path d="M0,0 L2,0 L2,9 L-1,10 L-2,13 L-4,15 L-27,15 L-27,12 L-6,11 L-1,6 Z " fill="#974A62" transform="translate(669,652)"/>
<path d="M0,0 L2,0 L2,16 L11,16 L11,14 L17,14 L17,16 L21,17 L17,17 L16,20 L12,19 L11,20 L3,20 L2,17 L0,17 Z " fill="#9A5A6B" transform="translate(643,428)"/>
<path d="M0,0 L2,3 L7,3 L12,2 L22,3 L22,5 L13,5 L13,7 L-5,7 L-8,5 L-7,2 L-1,3 Z " fill="#974762" transform="translate(607,666)"/>
<path d="M0,0 L1,0 L1,30 L-3,30 L-3,38 L-5,38 L-5,42 L-7,42 L-8,46 L-9,39 L-8,41 L-6,41 L-7,38 L-7,29 L-4,22 L-3,22 L-2,29 L0,29 Z " fill="#81495B" transform="translate(691,586)"/>
<path d="M0,0 L11,0 L11,12 L15,12 L15,18 L14,18 L14,13 L8,12 L7,8 L3,7 L3,3 L0,3 Z " fill="#390013" transform="translate(221,584)"/>
<path d="M0,0 L6,0 L6,16 L0,16 Z " fill="#340011" transform="translate(214,542)"/>
<path d="M0,0 L2,2 L2,14 L3,19 L7,21 L9,25 L11,26 L10,27 L5,27 L1,23 L-1,18 L-3,17 L-3,1 L-2,1 L-2,16 L0,16 Z " fill="#8B3E59" transform="translate(333,643)"/>
<path d="M0,0 L6,0 L6,2 L14,2 L16,7 L21,7 L21,9 L17,10 L14,8 L12,9 L12,5 L3,5 L1,7 L-7,7 L-7,5 L0,5 Z " fill="#440111" transform="translate(346,748)"/>
<path d="M0,0 L12,0 L12,1 L1,1 L1,3 L12,3 L12,4 L1,6 L-2,7 L-2,9 L-8,14 L-11,13 L-11,11 L-8,11 L-8,9 L-14,9 L-14,8 L-8,8 L-8,6 L-6,6 L-6,4 L-2,4 L-2,2 L0,2 Z M-10,12 Z " fill="#834153" transform="translate(352,386)"/>
<path d="M0,0 L8,0 L8,1 L1,1 L1,3 L8,3 L8,4 L0,5 L0,3 L-15,3 L-14,7 L-24,9 L-24,7 L-33,8 L-29,7 L-29,5 L-34,5 L-34,4 L-28,4 L-28,6 L-24,6 L-24,4 L-18,4 L-18,6 L-16,6 L-16,2 L0,2 Z M-29,9 L-24,9 L-24,10 L-29,10 Z " fill="#7E4052" transform="translate(398,380)"/>
<path d="M0,0 L4,1 L1,1 L1,3 L6,3 L6,5 L8,6 L6,6 L6,8 L0,8 L0,10 L-8,10 L-8,4 L-2,4 L-2,2 L0,2 Z " fill="#32000D" transform="translate(390,266)"/>
<path d="M0,0 L14,0 L14,1 L1,1 L1,3 L14,3 L14,4 L3,5 L-2,6 L-9,5 L-9,9 L-13,9 L-13,29 L-17,29 L-18,32 L-18,28 L-14,28 L-14,8 L-10,8 L-10,4 L-2,4 L-2,2 L0,2 Z " fill="#290006" transform="translate(412,234)"/>
<path d="M0,0 L1,0 L1,10 L3,10 L3,16 L9,16 L9,21 L16,21 L16,24 L8,23 L8,20 L2,19 L2,17 L0,17 L-2,10 L-1,5 Z " fill="#3A0112" transform="translate(245,700)"/>
<path d="M0,0 L1,0 L1,8 L4,9 L2,24 L0,26 L0,24 L-2,24 L-2,8 L0,8 Z " fill="#89475E" transform="translate(332,534)"/>
<path d="M0,0 L2,0 L4,15 L6,20 L6,27 L4,28 L2,27 L2,19 L0,19 Z " fill="#974F67" transform="translate(329,445)"/>
<path d="M0,0 L1,0 L1,18 L3,18 L3,34 L7,36 L7,40 L10,41 L8,42 L3,40 L1,34 L2,19 L0,19 L0,34 L-1,34 L-1,18 Z M2,35 Z " fill="#170B0F" transform="translate(327,626)"/>
<path d="M0,0 L1,3 L3,3 L4,0 L4,4 L2,4 L2,30 L4,30 L4,36 L2,36 L2,56 L1,56 L0,30 Z " fill="#180C10" transform="translate(326,408)"/>
<path d="M0,0 L6,0 L6,6 L4,6 L3,10 L3,6 L1,6 L1,9 L-4,10 L-7,7 L-2,7 L-2,5 L-9,5 L-10,8 L-10,4 L-2,4 L-2,2 L0,2 Z " fill="#31000B" transform="translate(340,278)"/>
<path d="M0,0 L6,0 L6,9 L3,11 L2,18 L0,18 Z " fill="#3A000F" transform="translate(215,575)"/>
<path d="M0,0 L1,0 L1,8 L3,8 L3,14 L11,14 L11,16 L13,16 L13,22 L17,22 L16,26 L16,23 L11,24 L10,22 L12,22 L12,17 L2,17 L2,9 L0,9 L0,15 L-1,15 L-3,7 L0,8 Z " fill="#844E5C" transform="translate(641,388)"/>
<path d="M0,0 L2,0 L3,4 L6,5 L6,7 L1,7 L1,5 L-26,5 L-26,3 L-1,2 Z " fill="#9B445F" transform="translate(417,684)"/>
<path d="M0,0 L18,0 L18,4 L0,4 Z " fill="#080001" transform="translate(530,794)"/>
<path d="M0,0 L2,0 L2,15 L0,15 L0,24 L-5,23 L-5,17 L-1,12 Z " fill="#985768" transform="translate(697,527)"/>
<path d="M0,0 L4,0 L4,3 L0,6 L-50,5 L-50,4 L-1,3 Z " fill="#490111" transform="translate(509,777)"/>
<path d="M0,0 L10,0 L10,8 L8,8 L8,2 L2,2 L0,6 L-3,6 L-3,8 L-10,8 L-10,4 L-1,3 Z " fill="#3D000D" transform="translate(719,761)"/>
<path d="M0,0 L2,0 L2,27 L1,27 L-2,16 L-1,1 Z M-2,22 L0,23 Z " fill="#935468" transform="translate(687,586)"/>
<path d="M0,0 L1,0 L1,6 L3,6 L3,8 L5,8 L5,28 L4,28 L4,9 L2,9 L2,28 L1,28 L1,13 L-1,13 L-2,6 L0,6 Z " fill="#814B5A" transform="translate(683,468)"/>
<path d="M0,0 L14,0 L14,4 L7,4 L3,5 L-7,4 L-7,2 L0,2 Z " fill="#964D61" transform="translate(406,379)"/>
<path d="M0,0 L14,0 L14,3 L-11,3 L-11,1 Z " fill="#380002" transform="translate(458,852)"/>
<path d="M0,0 L7,0 L7,3 L11,4 L12,7 L14,7 L14,13 L12,9 L10,12 L7,7 L4,4 L-1,3 Z " fill="#834254" transform="translate(610,359)"/>
<path d="M0,0 L3,1 L1,1 L1,3 L11,3 L15,6 L20,6 L20,8 L22,9 L20,11 L12,10 L12,8 L10,8 L10,4 L0,4 L0,2 L-4,1 Z " fill="#310002" transform="translate(282,798)"/>
<path d="M0,0 L2,0 L2,9 L4,9 L4,17 L1,17 L1,14 L-2,13 L-2,4 Z " fill="#965A6A" transform="translate(693,509)"/>
<path d="M0,0 L2,0 L2,21 L4,21 L4,26 L2,27 L2,22 L-2,21 L-1,19 Z " fill="#470119" transform="translate(241,679)"/>
<path d="M0,0 L4,0 L4,8 L-1,8 L-1,11 L-9,11 L-9,9 L-4,8 L-1,3 Z " fill="#8F5162" transform="translate(658,414)"/>
<path d="M0,0 L3,0 L3,7 L2,11 L1,18 L0,18 L0,7 L-2,7 L-2,26 L-3,26 L-3,6 L0,6 Z " fill="#87465A" transform="translate(331,438)"/>
<path d="M0,0 L8,0 L8,1 L1,1 L1,13 L12,13 L8,14 L8,16 L2,16 L2,22 L1,22 L0,16 Z " fill="#2F000C" transform="translate(270,302)"/>
<path d="M0,0 L6,0 L7,4 L9,5 L2,11 L0,1 Z " fill="#3D0002" transform="translate(406,808)"/>
<path d="M0,0 L2,3 L4,9 L7,10 L7,13 L0,13 L0,2 L-2,2 L-2,5 L-4,5 L-3,1 Z " fill="#97405D" transform="translate(347,668)"/>
<path d="M0,0 L1,0 L2,9 L0,10 L0,14 L-2,14 L-2,17 L-4,17 L-5,12 L-3,9 L-2,2 Z " fill="#975167" transform="translate(683,618)"/>
<path d="M0,0 L1,0 L1,10 L3,10 L3,1 L4,1 L4,11 L2,11 L2,21 L-2,20 L1,20 L1,11 L-1,11 L-1,18 L-2,18 L-3,11 L-1,7 Z " fill="#804154" transform="translate(670,641)"/>
<path d="M0,0 L2,0 L2,4 L0,4 L0,9 L-9,9 L-9,7 L-7,7 L-7,3 L0,3 Z " fill="#3C000F" transform="translate(341,284)"/>
<path d="M0,0 L12,0 L12,2 L0,3 L-1,8 L-8,8 L-7,3 L-3,6 L-2,1 Z " fill="#430010" transform="translate(446,247)"/>
<path d="M0,0 L1,2 L11,2 L11,4 L-1,4 L-1,6 L-7,6 L-7,2 L0,2 Z " fill="#954B60" transform="translate(499,359)"/>
<path d="M0,0 L3,1 L3,3 L12,3 L12,1 L14,1 L13,6 L1,6 Z " fill="#450114" transform="translate(487,290)"/>
<path d="M0,0 L2,1 L1,24 L-1,24 L-2,21 L-1,1 Z " fill="#3A0002" transform="translate(572,813)"/>
<path d="M0,0 L2,1 L0,8 L0,18 L-3,19 L-5,21 L-4,17 L-3,15 L-6,16 L-5,13 L-3,12 L-1,1 Z " fill="#A74C67" transform="translate(358,590)"/>
<path d="M0,0 L4,2 L6,4 L6,12 L3,11 L3,7 L1,7 L-1,3 L-3,1 Z " fill="#935666" transform="translate(635,384)"/>
<path d="M0,0 L7,0 L7,3 L9,3 L10,0 L10,4 L0,4 L0,6 L-6,6 L-6,5 L-1,5 L-1,3 L-3,2 L0,2 Z " fill="#300005" transform="translate(630,786)"/>
<path d="M0,0 L2,2 L2,18 L-3,17 L-3,1 L-2,1 L-2,16 L0,16 Z " fill="#843D55" transform="translate(333,643)"/>
<path d="M0,0 L20,0 L20,2 L1,3 Z " fill="#380008" transform="translate(531,231)"/>
<path d="M0,0 L8,0 L9,1 L9,11 L6,10 L6,2 L0,4 Z " fill="#490117" transform="translate(276,729)"/>
<path d="M0,0 L4,1 L8,2 L8,0 L10,0 L9,5 L0,6 Z " fill="#3A000F" transform="translate(239,327)"/>
<path d="M0,0 L6,0 L8,4 L-8,4 L-8,2 L-1,1 Z " fill="#390002" transform="translate(490,851)"/>
<path d="M0,0 L5,1 L6,4 L11,4 L11,11 L9,11 L7,7 L3,4 L3,2 L0,2 Z " fill="#4A0015" transform="translate(368,757)"/>
<path d="M0,0 L3,0 L4,6 L10,7 L10,10 L3,10 L3,7 L1,7 Z " fill="#954E62" transform="translate(488,366)"/>
<path d="M0,0 L4,0 L4,12 L2,12 L2,8 L0,8 Z " fill="#090003" transform="translate(222,658)"/>
<path d="M0,0 L6,0 L6,2 L10,3 L6,3 L5,6 L0,5 L0,3 L-8,3 L-8,2 L0,2 Z " fill="#834959" transform="translate(654,442)"/>
<path d="M0,0 L6,0 L1,4 L-8,3 L-12,4 L-12,2 L-14,1 Z " fill="#924A5E" transform="translate(399,384)"/>
<path d="M0,0 L14,0 L14,1 L1,1 L1,3 L14,3 L14,4 L3,5 L-2,6 Z " fill="#310005" transform="translate(412,234)"/>
<path d="M0,0 L1,0 L1,8 L-5,7 L-5,1 Z " fill="#3A0101" transform="translate(487,816)"/>
<path d="M0,0 L2,2 L2,10 L0,14 L-1,14 L-1,1 Z M-4,14 L-1,15 Z " fill="#3F0017" transform="translate(228,658)"/>
<path d="M0,0 L6,0 L6,3 L1,4 L-9,4 L-9,2 L0,2 Z " fill="#984F63" transform="translate(440,373)"/>
<path d="M0,0 L2,0 L1,5 L-1,8 L-1,15 L-4,15 L-4,5 L-1,4 Z " fill="#470013" transform="translate(487,274)"/>
<path d="M0,0 L3,1 L4,4 L1,4 L1,6 L-12,6 L-12,5 L-3,3 Z " fill="#93435E" transform="translate(468,680)"/>
<path d="M0,0 L6,0 L6,6 L0,6 Z " fill="#29000C" transform="translate(190,670)"/>
<path d="M0,0 L4,0 L4,6 L2,6 L2,18 L1,18 Z " fill="#13090D" transform="translate(328,608)"/>
<path d="M0,0 L3,2 L3,4 L5,4 L5,8 L7,8 L6,12 L6,9 L4,9 L3,12 L1,8 L2,3 L-1,2 Z " fill="#814658" transform="translate(675,456)"/>
<path d="M0,0 L6,0 L6,6 L0,6 Z " fill="#221216" transform="translate(492,366)"/>
<path d="M0,0 L16,0 L16,2 L0,3 Z " fill="#380007" transform="translate(426,233)"/>
<path d="M0,0 L6,0 L7,1 L7,9 L5,9 L3,3 L0,2 Z " fill="#470013" transform="translate(286,741)"/>
<path d="M0,0 L2,0 L3,4 L6,5 L6,7 L1,7 L0,5 L-13,4 L-13,3 L-1,2 Z " fill="#97425C" transform="translate(417,684)"/>
<path d="M0,0 L10,1 L12,3 L9,4 L1,4 Z " fill="#95405C" transform="translate(355,681)"/>
<path d="M0,0 L3,1 L3,13 L2,15 L0,15 Z " fill="#3A000E" transform="translate(219,594)"/>
<path d="M0,0 L1,2 L4,3 L-3,6 L-4,4 L-10,4 L-10,3 L-4,3 L-4,1 Z " fill="#874658" transform="translate(450,369)"/>
<path d="M0,0 L2,0 L1,5 L-1,6 L-11,6 L-11,4 L-2,4 L-2,2 L0,2 Z " fill="#420011" transform="translate(425,261)"/>
<path d="M0,0 L2,2 L3,12 L-1,12 L-1,4 Z " fill="#965067" transform="translate(334,530)"/>
<path d="M0,0 L4,0 L4,8 L0,8 Z " fill="#0C0608" transform="translate(328,534)"/>
<path d="M0,0 L1,3 L-1,13 L-3,14 L-3,3 L-1,3 Z M0,8 Z " fill="#390013" transform="translate(210,650)"/>
<path d="M0,0 L4,0 L4,5 L2,5 L2,16 L1,16 Z " fill="#3D0015" transform="translate(215,509)"/>
<path d="M0,0 L7,0 L7,3 L9,4 L7,4 L7,6 L5,6 L4,4 L-1,3 Z " fill="#95455C" transform="translate(610,359)"/>
<path d="M0,0 L2,0 L2,12 L-3,12 L-3,10 L0,10 Z " fill="#4A0014" transform="translate(505,279)"/>
<path d="M0,0 L11,1 L11,4 L3,4 L2,1 Z " fill="#955566" transform="translate(643,444)"/>
<path d="M0,0 L7,0 L7,1 L1,1 L1,3 L9,3 L10,0 L10,4 L0,4 L-1,6 L-2,1 Z " fill="#7F4A58" transform="translate(648,422)"/>
<path d="M0,0 L5,1 L9,2 L9,5 L4,5 L4,3 L0,3 Z " fill="#96425D" transform="translate(378,682)"/>
<path d="M0,0 L5,0 L5,8 L4,5 L0,4 Z " fill="#3A0012" transform="translate(224,587)"/>
<path d="M0,0 L2,0 L1,3 L-11,3 L-11,1 Z " fill="#430012" transform="translate(545,262)"/>
<path d="M0,0 L2,0 L3,10 L0,13 L-1,11 Z " fill="#3A0011" transform="translate(219,623)"/>
<path d="M0,0 L2,0 L2,3 L4,3 L4,9 L1,9 Z " fill="#965366" transform="translate(679,465)"/>
<path d="M0,0 L2,0 L3,4 L-1,8 L-2,1 Z " fill="#954E63" transform="translate(333,407)"/>
<path d="M0,0 L6,0 L5,6 L1,6 Z " fill="#260001" transform="translate(406,808)"/>
<path d="M0,0 L13,1 L13,2 L3,2 L3,4 L-1,4 Z " fill="#2E0004" transform="translate(611,792)"/>
<path d="M0,0 L4,0 L4,4 L12,4 L12,5 L4,5 L3,7 L3,5 L0,5 L0,3 L3,3 L3,1 Z " fill="#3B0114" transform="translate(272,724)"/>
<path d="M0,0 L2,2 L3,11 L0,11 L-1,1 Z " fill="#39000F" transform="translate(223,700)"/>
<path d="M0,0 L1,0 L1,16 L3,16 L3,18 L-1,18 Z " fill="#1A0E12" transform="translate(329,542)"/>
<path d="M0,0 L1,2 L3,2 L3,5 L-1,4 L-1,7 L-3,7 L-3,2 Z " fill="#A84E68" transform="translate(425,403)"/>
<path d="M0,0 L2,0 L2,5 L-7,5 L-7,3 L0,3 Z " fill="#430012" transform="translate(339,288)"/>
<path d="M0,0 L7,0 L7,2 L2,2 L2,4 L-2,4 Z " fill="#984763" transform="translate(570,679)"/>
<path d="M0,0 L4,1 L4,5 L7,6 L5,7 L0,5 L-1,1 Z " fill="#10070A" transform="translate(330,661)"/>
<path d="M0,0 L2,0 L3,8 L0,11 Z " fill="#944D65" transform="translate(334,514)"/>
<path d="M0,0 L4,0 L4,2 L7,2 L7,4 L3,5 L0,3 Z " fill="#965264" transform="translate(660,445)"/>
<path d="M0,0 L4,0 L4,4 L10,4 L10,5 L4,5 L4,11 L3,11 L3,5 L1,4 L3,4 L3,1 L0,2 Z " fill="#7F4253" transform="translate(488,361)"/>
<path d="M0,0 L7,0 L7,2 L2,2 L1,7 L0,7 Z " fill="#3A000D" transform="translate(243,319)"/>
<path d="M0,0 L5,0 L6,4 L0,4 Z " fill="#3D0010" transform="translate(383,271)"/>
<path d="M0,0 L9,0 L9,5 L6,5 L6,1 L0,1 Z " fill="#945666" transform="translate(644,405)"/>
<path d="M0,0 L2,0 L2,6 L1,7 L-4,7 L-4,5 L0,5 Z " fill="#400010" transform="translate(291,306)"/>
<path d="M0,0 L3,1 L2,8 L0,9 Z " fill="#3A0013" transform="translate(215,635)"/>
<path d="M0,0 L15,0 L15,3 L13,3 L13,1 L0,1 Z " fill="#944F63" transform="translate(481,382)"/>
<path d="M0,0 L8,1 L8,4 L0,3 Z " fill="#430014" transform="translate(253,720)"/>
<path d="M0,0 L2,0 L2,3 L4,4 L2,4 L2,7 L0,7 L-1,2 Z " fill="#934F64" transform="translate(679,628)"/>
<path d="M0,0 L1,0 L1,6 L5,6 L4,10 L4,7 L-1,8 L-2,6 L0,6 Z " fill="#7A4654" transform="translate(653,404)"/>
<path d="M0,0 L14,0 L14,3 L12,3 L12,1 L0,1 Z " fill="#8F4258" transform="translate(578,357)"/>
<path d="M0,0 L2,0 L1,4 L-6,4 L-6,2 L0,2 Z " fill="#440113" transform="translate(405,271)"/>
<path d="M0,0 L3,0 L3,6 L0,6 Z " fill="#974D62" transform="translate(499,366)"/>
<path d="M0,0 L1,0 L1,8 L3,8 L2,10 L-1,10 L-2,8 L0,8 Z " fill="#3A010E" transform="translate(293,742)"/>
<path d="M0,0 L1,4 L-6,4 L-6,2 L-3,1 L0,2 Z " fill="#3B0012" transform="translate(217,693)"/>
<path d="M0,0 L4,0 L4,4 L0,5 Z " fill="#B95D7B" transform="translate(604,540)"/>
<path d="M0,0 L5,0 L4,4 L0,4 Z " fill="#B95D7C" transform="translate(604,520)"/>
<path d="M0,0 L4,0 L4,4 L0,5 Z " fill="#9D4F69" transform="translate(344,476)"/>
<path d="M0,0 L6,0 L6,2 L1,2 L1,4 L-1,4 Z " fill="#984C62" transform="translate(338,395)"/>
<path d="M0,0 L5,0 L4,4 L0,4 Z " fill="#380008" transform="translate(416,238)"/>
<path d="M0,0 L3,1 L3,6 L0,6 Z " fill="#3A0000" transform="translate(331,827)"/>
<path d="M0,0 L4,0 L4,4 L0,4 Z " fill="#0D0000" transform="translate(482,818)"/>
<path d="M0,0 L3,1 L3,3 L-4,3 L-4,1 Z " fill="#390012" transform="translate(199,686)"/>
<path d="M0,0 L4,0 L4,4 L0,4 Z " fill="#3B0013" transform="translate(191,671)"/>
<path d="M0,0 L6,1 L4,3 L-2,4 L-2,2 L0,2 Z " fill="#934E63" transform="translate(642,640)"/>
<path d="M0,0 L2,2 L1,9 L-1,6 Z " fill="#934C64" transform="translate(334,554)"/>
<path d="M0,0 L4,0 L4,4 L0,4 Z " fill="#BA5D7C" transform="translate(596,516)"/>
<path d="M0,0 L3,1 L2,5 L-2,4 Z " fill="#A15167" transform="translate(558,384)"/>
<path d="M0,0 L4,0 L4,4 L0,4 Z " fill="#000000" transform="translate(493,367)"/>
<path d="M0,0 L4,0 L4,4 L0,4 Z " fill="#0D0002" transform="translate(434,250)"/>
<path d="M0,0 L2,0 L2,7 L-3,2 Z " fill="#905363" transform="translate(635,384)"/>
<path d="M0,0 L3,1 L1,5 L-1,5 Z M3,0 Z " fill="#9F5268" transform="translate(449,389)"/>
<path d="M0,0 L4,0 L4,4 L-1,3 Z " fill="#965466" transform="translate(627,381)"/>
<path d="M0,0 L6,1 L6,3 L0,3 Z " fill="#450012" transform="translate(527,264)"/>
<path d="M0,0 L6,0 L6,2 L0,3 Z " fill="#390007" transform="translate(403,239)"/>
<path d="M0,0 L5,0 L5,3 L0,2 Z " fill="#430013" transform="translate(248,717)"/>
<path d="M0,0 L2,0 L2,5 L-1,6 Z " fill="#3E0118" transform="translate(217,479)"/>
<path d="M0,0 L2,0 L1,4 L-3,4 L-3,2 L0,2 Z " fill="#3D0010" transform="translate(281,311)"/>
<path d="M0,0 L5,1 L5,3 L1,3 Z " fill="#370004" transform="translate(277,796)"/>
<path d="M0,0 L4,0 L4,4 L2,4 L2,2 L0,2 Z " fill="#3D000C" transform="translate(687,777)"/>
<path d="M0,0 L4,1 L2,2 L2,4 L-1,3 Z " fill="#944562" transform="translate(600,668)"/>
<path d="M0,0 L3,0 L3,3 L-2,3 Z " fill="#925766" transform="translate(644,425)"/>
<path d="M0,0 L4,0 L4,4 L2,4 L2,2 L0,2 Z " fill="#3C000E" transform="translate(341,279)"/>
<path d="M0,0 L2,1 L2,3 L-3,3 L-3,1 Z " fill="#380002" transform="translate(414,850)"/>
<path d="M0,0 L5,0 L5,2 L1,3 Z " fill="#4A0014" transform="translate(362,755)"/>
<path d="M0,0 L3,1 L3,3 L-1,3 Z " fill="#430003" transform="translate(483,814)"/>
<path d="M0,0 L4,1 L3,4 L1,4 Z " fill="#410016" transform="translate(267,724)"/>
<path d="M0,0 L2,1 L1,4 L-2,4 L-2,2 L0,2 Z " fill="#9E5166" transform="translate(483,389)"/>
<path d="M0,0 L3,1 L3,3 L0,4 Z " fill="#450017" transform="translate(276,729)"/>
<path d="M0,0 L4,1 L1,3 L-1,1 Z " fill="#410114" transform="translate(262,725)"/>
<path d="M0,0 L2,0 L2,4 L0,4 L-1,1 Z " fill="#3E0017" transform="translate(221,666)"/>
<path d="M0,0 L4,1 L2,4 L2,2 L0,2 Z " fill="#984B61" transform="translate(347,391)"/>
<path d="M0,0 L2,0 L1,4 L-1,3 Z " fill="#93495E" transform="translate(351,389)"/>
<path d="M0,0 L3,1 L3,3 L0,3 Z " fill="#96425D" transform="translate(388,682)"/>
<path d="M0,0 L2,0 L0,4 L-1,1 Z " fill="#9D4F65" transform="translate(497,387)"/>
<path d="M0,0 L3,0 L3,3 L0,2 Z " fill="#944E61" transform="translate(455,366)"/>
</svg>
