<?xml version="1.0" encoding="UTF-8"?>
<!-- Generator: visioncortex VTracer 0.6.4 -->
<svg version="1.1" xmlns="http://www.w3.org/2000/svg" width="1024" height="1024">
<path d="M0,0 L1024,0 L1024,1024 L0,1024 Z " fill="#000000" transform="translate(0,0)"/>
<path d="M0,0 L62,0 L62,2 L74,2 L74,4 L78,4 L78,6 L82,6 L82,8 L86,8 L86,14 L92,14 L94,17 L98,18 L98,20 L102,20 L102,24 L106,24 L106,26 L112,26 L112,28 L114,28 L114,26 L122,26 L122,28 L128,28 L134,35 L136,36 L136,40 L138,40 L138,46 L140,46 L140,54 L144,56 L144,58 L146,58 L146,70 L148,70 L148,76 L150,76 L152,79 L156,80 L156,82 L158,82 L158,86 L162,88 L162,90 L164,90 L164,100 L166,100 L166,104 L168,104 L168,106 L172,106 L172,108 L174,108 L174,106 L180,106 L180,108 L184,108 L184,110 L186,110 L186,116 L188,116 L188,118 L190,118 L190,122 L192,122 L192,124 L194,124 L194,128 L198,128 L204,135 L206,136 L206,140 L208,140 L208,146 L210,146 L210,148 L212,148 L212,164 L214,164 L214,174 L212,174 L212,198 L214,198 L214,206 L216,206 L216,236 L214,236 L214,254 L212,254 L212,264 L210,264 L210,272 L208,272 L208,280 L206,280 L206,296 L204,296 L204,304 L202,304 L202,308 L200,308 L200,312 L198,312 L198,314 L191,320 L190,322 L188,322 L188,328 L182,328 L182,330 L176,330 L176,332 L170,332 L170,334 L166,334 L166,336 L164,336 L164,338 L162,338 L162,358 L160,358 L160,360 L155,364 L154,366 L150,366 L150,370 L144,370 L144,374 L140,374 L140,378 L138,378 L138,380 L136,380 L136,382 L132,382 L132,384 L122,384 L122,386 L106,386 L106,388 L98,388 L98,390 L92,390 L92,392 L86,392 L86,394 L78,394 L78,396 L72,396 L72,402 L46,402 L46,398 L42,398 L42,396 L38,396 L38,394 L34,394 L34,392 L26,392 L26,390 L18,390 L18,388 L14,388 L14,390 L-2,390 L-2,388 L-14,388 L-14,386 L-20,386 L-22,382 L-30,382 L-34,378 L-34,376 L-62,376 L-62,374 L-70,374 L-70,372 L-74,372 L-74,370 L-79,369 L-82,366 L-82,364 L-86,364 L-86,360 L-90,360 L-91,330 L-94,328 L-94,324 L-96,324 L-96,320 L-104,320 L-104,318 L-106,318 L-106,314 L-108,314 L-108,312 L-112,312 L-112,308 L-114,308 L-114,304 L-116,304 L-116,288 L-118,288 L-119,278 L-122,276 L-122,268 L-124,268 L-124,264 L-126,264 L-126,254 L-128,254 L-128,250 L-130,250 L-130,244 L-128,244 L-128,240 L-130,240 L-130,182 L-128,182 L-128,170 L-126,170 L-126,158 L-124,158 L-124,146 L-122,146 L-122,134 L-120,134 L-120,126 L-122,126 L-122,118 L-118,116 L-118,108 L-116,108 L-116,106 L-114,106 L-114,102 L-112,102 L-112,96 L-108,96 L-108,94 L-102,94 L-102,96 L-98,96 L-98,92 L-96,92 L-96,88 L-94,88 L-94,82 L-92,82 L-92,76 L-90,76 L-90,58 L-86,56 L-86,54 L-84,54 L-84,48 L-80,48 L-80,46 L-78,46 L-78,42 L-74,42 L-74,40 L-72,40 L-72,38 L-68,38 L-68,34 L-66,34 L-66,32 L-60,32 L-60,30 L-56,30 L-56,28 L-50,28 L-50,26 L-44,26 L-44,28 L-42,28 L-42,26 L-36,26 L-36,24 L-30,24 L-30,22 L-26,22 L-26,20 L-22,20 L-22,18 L-20,18 L-20,16 L-18,16 L-18,12 L-12,12 L-12,8 L-10,8 L-10,6 L-6,6 L-6,4 L-4,4 L-4,2 L0,2 Z " fill="#BB567B" transform="translate(492,346)"/>
<path d="M0,0 L8,0 L8,4 L12,4 L12,0 L32,0 L32,4 L36,4 L36,6 L38,6 L38,8 L48,8 L48,14 L58,14 L58,16 L62,16 L62,18 L66,18 L66,20 L80,20 L80,22 L96,22 L96,24 L106,24 L106,26 L108,26 L108,28 L116,28 L116,32 L120,32 L120,36 L124,36 L124,42 L122,42 L122,44 L116,44 L116,48 L112,48 L112,54 L114,54 L114,56 L120,56 L120,60 L150,60 L150,62 L154,62 L154,66 L158,66 L158,70 L162,70 L162,74 L164,74 L164,78 L166,78 L166,82 L168,82 L168,86 L170,86 L170,90 L172,90 L172,104 L174,104 L174,112 L178,112 L178,134 L176,134 L176,140 L172,140 L172,142 L170,142 L170,144 L150,144 L150,142 L140,142 L140,136 L136,136 L136,134 L128,134 L128,128 L132,128 L132,126 L130,126 L130,122 L120,122 L120,124 L124,124 L124,130 L118,130 L118,128 L116,128 L116,130 L108,130 L108,134 L102,134 L102,132 L100,132 L100,134 L92,134 L92,130 L86,130 L86,124 L88,124 L88,122 L86,122 L86,120 L82,120 L82,118 L78,118 L78,122 L68,122 L68,118 L64,118 L64,116 L52,116 L52,118 L44,118 L44,116 L30,116 L30,114 L28,114 L28,116 L20,116 L20,114 L12,114 L12,116 L8,116 L8,118 L0,118 L0,116 L-4,116 L-4,118 L-8,118 L-8,122 L-16,122 L-16,118 L-32,118 L-32,120 L-18,120 L-18,134 L-46,134 L-46,136 L-54,136 L-54,138 L-58,138 L-58,142 L-68,142 L-68,144 L-76,144 L-76,146 L-84,146 L-84,144 L-92,144 L-92,146 L-100,146 L-100,144 L-102,144 L-102,146 L-108,146 L-108,144 L-114,144 L-114,146 L-124,146 L-124,144 L-128,148 L-134,148 L-134,150 L-136,150 L-136,154 L-138,154 L-138,158 L-140,158 L-140,160 L-142,160 L-142,162 L-146,162 L-146,164 L-150,164 L-150,166 L-154,166 L-154,168 L-160,168 L-160,170 L-170,170 L-170,174 L-176,174 L-176,172 L-182,172 L-182,176 L-186,176 L-186,182 L-192,182 L-192,188 L-202,188 L-202,192 L-204,192 L-204,200 L-206,200 L-206,218 L-208,218 L-208,228 L-210,228 L-210,236 L-212,236 L-212,240 L-214,240 L-214,248 L-218,248 L-218,252 L-226,252 L-226,254 L-228,254 L-228,258 L-236,258 L-236,272 L-238,272 L-238,276 L-236,276 L-236,284 L-234,284 L-234,292 L-236,292 L-236,302 L-238,302 L-238,308 L-236,308 L-236,314 L-238,314 L-238,328 L-236,328 L-236,334 L-238,334 L-238,340 L-246,340 L-246,342 L-242,342 L-242,348 L-246,348 L-246,354 L-252,354 L-252,352 L-256,352 L-256,356 L-252,356 L-252,364 L-261,364 L-261,392 L-254,392 L-254,401 L-258,401 L-258,412 L-260,412 L-260,414 L-254,414 L-254,424 L-246,424 L-246,426 L-244,426 L-244,430 L-242,430 L-242,438 L-238,438 L-238,448 L-236,448 L-236,478 L-234,478 L-234,488 L-236,488 L-236,492 L-234,492 L-234,500 L-236,500 L-236,502 L-228,502 L-228,508 L-230,508 L-230,512 L-224,512 L-224,522 L-222,522 L-222,524 L-218,524 L-218,530 L-214,530 L-214,550 L-212,550 L-212,554 L-210,554 L-210,574 L-208,574 L-208,586 L-210,586 L-210,588 L-208,588 L-208,616 L-204,616 L-204,622 L-198,622 L-198,630 L-194,630 L-194,634 L-182,634 L-182,638 L-179,636 L-176,636 L-176,634 L-170,634 L-170,636 L-166,636 L-166,638 L-154,638 L-154,640 L-146,640 L-146,644 L-140,644 L-140,646 L-134,646 L-134,652 L-128,652 L-128,656 L-126,656 L-126,662 L-80,662 L-80,664 L-72,664 L-72,666 L-68,666 L-68,664 L-60,664 L-60,666 L-56,666 L-56,664 L-52,664 L-52,662 L-40,662 L-40,664 L-32,664 L-32,662 L0,662 L0,664 L40,664 L40,666 L44,666 L44,662 L54,662 L54,664 L60,664 L60,662 L68,662 L68,664 L84,664 L84,666 L92,666 L92,664 L104,664 L104,666 L108,666 L108,664 L124,664 L124,666 L128,666 L128,662 L144,662 L144,660 L156,660 L156,662 L168,662 L168,664 L172,664 L172,672 L168,672 L168,676 L164,676 L164,680 L160,680 L160,692 L152,692 L152,696 L148,696 L148,700 L152,700 L152,720 L148,720 L148,724 L128,724 L128,720 L124,720 L124,724 L112,724 L112,728 L108,728 L108,730 L106,730 L106,732 L94,732 L94,734 L70,734 L70,736 L38,736 L38,738 L24,738 L24,736 L14,736 L14,738 L-32,738 L-32,736 L-46,736 L-46,738 L-52,738 L-52,740 L-78,740 L-78,742 L-80,742 L-80,744 L-96,744 L-96,740 L-124,740 L-124,736 L-154,736 L-158,732 L-158,730 L-160,730 L-160,726 L-164,726 L-164,696 L-168,696 L-168,688 L-172,688 L-172,684 L-176,682 L-176,680 L-180,680 L-180,676 L-192,676 L-192,680 L-212,680 L-212,676 L-216,676 L-216,670 L-218,670 L-218,666 L-220,666 L-220,654 L-218,654 L-218,626 L-220,626 L-220,594 L-222,594 L-222,586 L-224,586 L-224,568 L-228,568 L-228,556 L-232,556 L-232,540 L-236,540 L-236,524 L-240,524 L-240,508 L-236,508 L-236,504 L-242,504 L-242,498 L-244,498 L-244,492 L-246,492 L-246,490 L-248,490 L-248,484 L-256,484 L-256,492 L-266,492 L-268,490 L-268,440 L-270,440 L-270,422 L-272,422 L-272,394 L-276,392 L-276,342 L-274,342 L-274,340 L-272,340 L-272,298 L-270,298 L-270,296 L-268,296 L-268,280 L-272,280 L-272,264 L-276,262 L-276,234 L-274,234 L-274,232 L-272,232 L-272,194 L-268,192 L-268,186 L-266,186 L-266,184 L-258,184 L-258,186 L-254,186 L-254,190 L-252,190 L-252,192 L-248,192 L-248,188 L-240,188 L-240,180 L-238,180 L-238,178 L-236,178 L-236,168 L-234,168 L-232,162 L-234,162 L-234,150 L-232,150 L-232,136 L-230,136 L-230,134 L-228,134 L-228,124 L-224,124 L-224,122 L-222,122 L-220,118 L-218,118 L-218,116 L-214,116 L-214,114 L-212,114 L-212,110 L-208,110 L-208,108 L-206,108 L-208,104 L-208,100 L-212,100 L-212,84 L-192,84 L-192,80 L-186,80 L-186,78 L-184,78 L-184,76 L-180,76 L-180,74 L-176,74 L-174,70 L-172,70 L-172,68 L-168,68 L-168,64 L-164,64 L-164,62 L-160,62 L-160,60 L-156,60 L-156,58 L-154,58 L-154,56 L-144,56 L-144,58 L-128,58 L-128,56 L-124,56 L-124,52 L-122,52 L-122,48 L-124,48 L-124,44 L-128,44 L-128,32 L-124,32 L-124,28 L-120,28 L-120,24 L-116,24 L-116,20 L-108,20 L-108,16 L-104,16 L-104,12 L-84,12 L-84,8 L-8,8 L-8,4 L0,4 Z " fill="#3D0007" transform="translate(530,150)"/>
<path d="M0,0 L8,0 L8,2 L12,2 L12,6 L14,6 L13,8 L11,8 L11,3 L4,4 L-2,13 L-3,48 L-4,50 L-6,50 L-6,75 L-4,79 L-5,95 L1,96 L2,99 L1,112 L-2,117 L-2,147 L-3,156 L-5,156 L-6,166 L-6,205 L-3,210 L-2,220 L-1,218 L0,208 L1,208 L1,218 L3,218 L3,176 L6,176 L5,208 L12,208 L12,217 L8,217 L8,228 L6,228 L6,230 L12,230 L12,240 L20,240 L20,242 L22,242 L22,246 L24,246 L24,254 L28,254 L28,264 L30,264 L30,294 L32,294 L32,304 L30,304 L30,308 L32,308 L32,316 L30,316 L30,318 L38,318 L38,324 L36,324 L36,328 L42,328 L42,338 L44,338 L44,340 L48,340 L48,346 L52,346 L52,366 L54,366 L54,370 L56,370 L56,390 L58,390 L58,402 L56,402 L56,404 L58,404 L58,432 L62,432 L62,439 L67,439 L67,446 L65,446 L64,442 L61,441 L61,439 L59,439 L57,435 L54,435 L54,433 L52,433 L51,426 L50,425 L50,417 L51,410 L46,411 L44,410 L44,402 L42,402 L42,384 L38,384 L38,372 L34,372 L34,356 L30,356 L30,340 L26,340 L26,324 L30,324 L30,320 L24,320 L24,314 L22,314 L22,308 L20,308 L20,306 L18,306 L18,300 L10,300 L10,308 L0,308 L-2,306 L-2,256 L-4,256 L-4,238 L-6,238 L-6,210 L-10,208 L-10,158 L-8,158 L-8,156 L-6,156 L-6,114 L-4,114 L-4,112 L-2,112 L-2,96 L-6,96 L-6,80 L-10,78 L-10,50 L-8,50 L-8,48 L-6,48 L-6,10 L-2,8 L-2,2 L0,2 Z M-8,77 Z M-8,207 Z M-5,210 Z " fill="#36000D" transform="translate(264,334)"/>
<path d="M0,0 L62,0 L62,2 L74,2 L74,4 L78,4 L78,6 L82,6 L82,8 L86,8 L86,14 L92,14 L94,17 L98,18 L98,20 L102,20 L102,24 L106,24 L106,26 L112,26 L112,28 L114,28 L114,26 L122,26 L122,28 L128,28 L134,35 L136,36 L136,40 L138,40 L138,46 L140,46 L140,54 L144,56 L144,58 L146,58 L146,70 L148,70 L148,76 L150,76 L152,79 L156,80 L156,82 L158,82 L158,86 L162,88 L162,90 L164,90 L164,100 L166,100 L166,104 L168,104 L168,106 L172,106 L172,108 L174,108 L174,106 L180,106 L180,108 L184,108 L184,110 L186,110 L186,116 L188,116 L188,118 L190,118 L190,122 L192,122 L192,124 L194,124 L194,128 L198,128 L204,135 L206,136 L206,140 L208,140 L208,146 L210,146 L210,148 L212,148 L212,164 L211,164 L211,149 L209,149 L208,151 L208,148 L206,146 L207,141 L205,141 L205,143 L203,143 L203,145 L200,145 L200,143 L196,143 L196,139 L193,139 L192,129 L187,131 L183,129 L184,124 L182,117 L180,112 L177,112 L176,117 L173,116 L171,112 L168,111 L167,109 L165,109 L165,107 L163,107 L163,105 L161,105 L161,109 L159,109 L159,102 L160,101 L159,95 L158,91 L151,83 L147,81 L144,77 L142,71 L141,61 L140,59 L137,59 L136,55 L132,54 L131,50 L132,49 L132,39 L128,39 L127,34 L118,31 L111,32 L104,31 L102,26 L95,26 L96,22 L92,21 L84,17 L80,11 L75,10 L71,9 L72,7 L65,7 L60,9 L54,8 L52,4 L45,5 L40,6 L40,4 L36,6 L29,6 L28,7 L16,6 L16,5 L9,5 L2,7 L-6,10 L-10,15 L-18,22 L-23,26 L-28,28 L-28,30 L-34,30 L-38,32 L-45,32 L-48,32 L-52,38 L-55,43 L-57,49 L-63,51 L-65,54 L-63,55 L-68,60 L-68,57 L-68,52 L-66,52 L-66,50 L-70,52 L-70,50 L-74,51 L-75,57 L-76,66 L-77,66 L-78,56 L-83,59 L-85,62 L-85,68 L-83,72 L-81,72 L-82,75 L-86,78 L-88,88 L-91,91 L-93,96 L-98,100 L-107,99 L-109,105 L-113,111 L-116,120 L-118,124 L-116,124 L-113,132 L-116,139 L-115,142 L-115,147 L-118,152 L-118,159 L-120,163 L-116,162 L-115,166 L-114,164 L-115,171 L-118,174 L-118,177 L-117,188 L-119,190 L-119,196 L-119,198 L-117,197 L-118,207 L-120,211 L-119,216 L-118,219 L-116,220 L-116,231 L-118,234 L-117,240 L-119,246 L-116,251 L-117,258 L-118,261 L-115,265 L-115,275 L-116,277 L-114,277 L-111,293 L-111,301 L-107,308 L-107,310 L-103,311 L-101,316 L-95,315 L-94,319 L-95,323 L-93,323 L-92,320 L-85,330 L-85,342 L-84,346 L-85,347 L-85,356 L-84,359 L-80,361 L-77,363 L-77,365 L-71,367 L-67,369 L-59,371 L-34,372 L-27,377 L-20,379 L-19,381 L-21,381 L-20,385 L-22,384 L-22,382 L-30,382 L-34,378 L-34,376 L-62,376 L-62,374 L-70,374 L-70,372 L-74,372 L-74,370 L-79,369 L-82,366 L-82,364 L-86,364 L-86,360 L-90,360 L-91,330 L-94,328 L-94,324 L-96,324 L-96,320 L-104,320 L-104,318 L-106,318 L-106,314 L-108,314 L-108,312 L-112,312 L-112,308 L-114,308 L-114,304 L-116,304 L-116,288 L-118,288 L-119,278 L-122,276 L-122,268 L-124,268 L-124,264 L-126,264 L-126,254 L-128,254 L-128,250 L-130,250 L-130,244 L-128,244 L-128,240 L-130,240 L-130,182 L-128,182 L-128,170 L-126,170 L-126,158 L-124,158 L-124,146 L-122,146 L-122,134 L-120,134 L-120,126 L-122,126 L-122,118 L-118,116 L-118,108 L-116,108 L-116,106 L-114,106 L-114,102 L-112,102 L-112,96 L-108,96 L-108,94 L-102,94 L-102,96 L-98,96 L-98,92 L-96,92 L-96,88 L-94,88 L-94,82 L-92,82 L-92,76 L-90,76 L-90,58 L-86,56 L-86,54 L-84,54 L-84,48 L-80,48 L-80,46 L-78,46 L-78,42 L-74,42 L-74,40 L-72,40 L-72,38 L-68,38 L-68,34 L-66,34 L-66,32 L-60,32 L-60,30 L-56,30 L-56,28 L-50,28 L-50,26 L-44,26 L-44,28 L-42,28 L-42,26 L-36,26 L-36,24 L-30,24 L-30,22 L-26,22 L-26,20 L-22,20 L-22,18 L-20,18 L-20,16 L-18,16 L-18,12 L-12,12 L-12,8 L-10,8 L-10,6 L-6,6 L-6,4 L-4,4 L-4,2 L0,2 Z M22,5 Z M93,20 Z M-33,28 Z M-68,47 Z M-69,48 Z M-65,48 Z M-66,49 Z M-119,211 Z " fill="#A04364" transform="translate(492,346)"/>
<path d="M0,0 L1,0 L1,10 L-1,10 L-1,18 L-3,18 L-3,26 L-5,26 L-5,42 L-7,42 L-7,50 L-9,50 L-9,54 L-11,54 L-11,58 L-13,58 L-13,60 L-20,66 L-21,68 L-23,68 L-23,74 L-29,74 L-29,76 L-35,76 L-35,78 L-41,78 L-41,80 L-45,80 L-45,82 L-47,82 L-47,84 L-49,84 L-49,104 L-51,104 L-51,106 L-56,110 L-57,112 L-61,112 L-61,116 L-67,116 L-67,120 L-71,120 L-71,124 L-73,124 L-73,126 L-75,126 L-75,128 L-79,128 L-79,130 L-89,130 L-89,132 L-105,132 L-105,134 L-113,134 L-113,136 L-119,136 L-119,138 L-125,138 L-125,140 L-133,140 L-133,142 L-139,142 L-139,148 L-165,148 L-165,144 L-169,144 L-169,142 L-173,142 L-173,140 L-177,140 L-177,138 L-185,138 L-185,136 L-193,136 L-193,134 L-197,134 L-197,136 L-213,136 L-213,134 L-225,134 L-225,132 L-231,132 L-231,131 L-225,131 L-225,129 L-213,130 L-208,131 L-203,130 L-203,132 L-197,130 L-183,130 L-183,128 L-179,128 L-179,132 L-147,132 L-147,124 L-141,122 L-134,118 L-131,119 L-133,122 L-138,123 L-139,128 L-136,127 L-131,129 L-127,129 L-127,132 L-120,132 L-115,130 L-111,130 L-111,128 L-94,128 L-93,125 L-83,125 L-80,122 L-76,121 L-75,118 L-68,119 L-68,117 L-71,117 L-71,112 L-69,112 L-69,110 L-67,110 L-66,105 L-60,103 L-61,107 L-58,106 L-56,102 L-54,101 L-53,82 L-48,78 L-45,75 L-39,71 L-35,72 L-33,66 L-27,64 L-25,62 L-25,60 L-23,60 L-21,55 L-19,53 L-17,53 L-14,48 L-13,40 L-10,40 L-10,33 L-11,30 L-9,22 L-6,18 L-6,25 L-4,25 L-5,18 L-5,10 L-4,10 L-4,17 L-2,17 L-3,10 L-3,1 L-2,1 L-2,9 L0,9 Z M-127,124 L-121,124 L-126,129 L-127,125 Z " fill="#A04768" transform="translate(703,600)"/>
<path d="M0,0 L8,0 L8,4 L12,4 L12,0 L32,0 L32,4 L36,4 L36,6 L38,6 L38,8 L48,8 L48,14 L58,14 L58,16 L62,16 L62,18 L66,18 L66,20 L80,20 L80,22 L96,22 L96,24 L106,24 L106,26 L108,26 L108,28 L116,28 L116,32 L120,32 L120,36 L124,36 L124,42 L122,42 L122,44 L116,44 L116,48 L112,48 L112,54 L114,54 L113,56 L110,57 L111,47 L115,47 L114,42 L118,41 L117,36 L113,32 L107,31 L106,38 L102,38 L102,30 L98,31 L98,27 L95,26 L81,26 L78,24 L66,23 L63,22 L63,19 L60,20 L56,18 L49,18 L45,13 L45,11 L36,11 L36,9 L32,7 L29,4 L14,4 L12,7 L8,7 L5,4 L1,5 L-7,5 L-8,11 L-17,12 L-22,14 L-50,14 L-52,12 L-82,12 L-84,15 L-102,16 L-107,17 L-108,23 L-115,25 L-117,28 L-119,29 L-121,32 L-123,33 L-125,43 L-122,42 L-122,44 L-120,45 L-118,49 L-118,54 L-113,54 L-114,58 L-122,59 L-123,57 L-128,62 L-142,62 L-142,66 L-154,67 L-154,62 L-158,64 L-161,64 L-162,67 L-166,68 L-173,77 L-177,79 L-178,82 L-182,83 L-186,81 L-186,83 L-191,85 L-192,87 L-207,88 L-208,89 L-208,98 L-207,101 L-204,101 L-203,108 L-205,111 L-208,113 L-209,117 L-214,117 L-216,121 L-220,122 L-221,132 L-222,134 L-227,134 L-227,136 L-225,137 L-226,144 L-229,150 L-230,169 L-232,178 L-234,182 L-236,183 L-238,189 L-240,191 L-247,193 L-252,193 L-248,192 L-248,188 L-240,188 L-240,180 L-238,180 L-238,178 L-236,178 L-236,168 L-234,168 L-232,162 L-234,162 L-234,150 L-232,150 L-232,136 L-230,136 L-230,134 L-228,134 L-228,124 L-224,124 L-224,122 L-222,122 L-220,118 L-218,118 L-218,116 L-214,116 L-214,114 L-212,114 L-212,110 L-208,110 L-208,108 L-206,108 L-208,104 L-208,100 L-212,100 L-212,84 L-192,84 L-192,80 L-186,80 L-186,78 L-184,78 L-184,76 L-180,76 L-180,74 L-176,74 L-174,70 L-172,70 L-172,68 L-168,68 L-168,64 L-164,64 L-164,62 L-160,62 L-160,60 L-156,60 L-156,58 L-154,58 L-154,56 L-144,56 L-144,58 L-128,58 L-128,56 L-124,56 L-124,52 L-122,52 L-122,48 L-124,48 L-124,44 L-128,44 L-128,32 L-124,32 L-124,28 L-120,28 L-120,24 L-116,24 L-116,20 L-108,20 L-108,16 L-104,16 L-104,12 L-84,12 L-84,8 L-8,8 L-8,4 L0,4 Z M58,17 Z " fill="#2F0002" transform="translate(530,150)"/>
<path d="M0,0 L2,1 L3,2 L4,6 L3,9 L0,12 L0,15 L1,26 L-1,28 L-1,34 L-1,36 L1,35 L0,45 L-2,49 L-1,54 L0,57 L2,58 L2,69 L0,72 L1,78 L-1,84 L2,89 L1,96 L0,99 L3,103 L3,113 L2,115 L4,115 L7,131 L7,139 L11,146 L11,148 L15,149 L17,154 L23,153 L24,157 L23,161 L25,161 L26,158 L33,168 L33,180 L34,184 L33,185 L33,194 L34,197 L38,199 L41,201 L41,203 L47,205 L51,207 L59,209 L84,210 L91,215 L98,217 L99,219 L97,219 L98,223 L96,222 L96,220 L88,220 L84,216 L84,214 L56,214 L56,212 L48,212 L48,210 L44,210 L44,208 L39,207 L36,204 L36,202 L32,202 L32,198 L28,198 L27,168 L24,166 L24,162 L22,162 L22,158 L14,158 L14,156 L12,156 L12,152 L10,152 L10,150 L6,150 L6,146 L4,146 L4,142 L2,142 L2,126 L0,126 L-1,116 L-4,114 L-4,106 L-6,106 L-6,102 L-8,102 L-8,92 L-10,92 L-10,88 L-12,88 L-12,82 L-10,82 L-10,78 L-12,78 L-12,20 L-9,20 L-9,9 L-7,9 L-6,11 L-3,4 L-2,1 Z M-1,49 Z " fill="#974663" transform="translate(374,508)"/>
<path d="M0,0 L2,0 L2,5 L4,7 L6,8 L6,23 L9,23 L9,33 L7,33 L7,57 L9,57 L9,65 L11,65 L11,95 L9,95 L9,113 L6,113 L6,122 L4,123 L4,130 L2,131 L2,138 L0,138 L-2,136 L-3,139 L-6,141 L-9,146 L-10,146 L-12,132 L-10,127 L-8,127 L-7,101 L-5,100 L-5,86 L-6,86 L-7,76 L-8,73 L-6,72 L-4,74 L-4,78 L-2,78 L-3,68 L-3,57 L0,58 L-1,22 L-3,23 L-4,12 L-4,4 L-2,4 L-2,2 L0,2 Z M-8,105 Z " fill="#A1607B" transform="translate(697,487)"/>
<path d="M0,0 Z M14,0 L22,0 L22,3 L25,1 L29,1 L29,3 L37,2 L41,3 L40,15 L38,16 L29,15 L23,13 L24,18 L28,18 L28,20 L30,21 L24,21 L24,31 L21,30 L21,27 L18,28 L18,26 L11,27 L6,26 L1,28 L0,26 L-4,28 L-9,32 L-14,34 L-18,33 L-25,35 L-27,35 L-27,32 L-30,33 L-30,31 L-28,31 L-28,29 L-24,29 L-23,26 L-17,23 L-15,17 L-21,19 L-24,20 L-24,14 L-22,14 L-22,9 L-26,9 L-26,11 L-32,11 L-32,8 L-21,6 L-20,3 L-16,2 L2,2 L11,1 L14,2 Z M-5,3 L-6,5 L-4,5 Z M-27,31 Z M-29,14 L-25,15 L-24,18 L-27,21 L-29,24 L-31,22 L-34,22 L-38,22 L-38,20 L-35,18 L-31,18 Z M0,28 Z M-17,34 Z " fill="#C14870" transform="translate(490,370)"/>
<path d="M0,0 L3,0 L3,3 L8,3 L8,5 L14,5 L14,7 L16,7 L16,5 L24,5 L24,7 L30,7 L36,14 L38,15 L38,19 L40,19 L40,25 L42,25 L42,33 L46,35 L46,37 L48,37 L48,49 L50,49 L50,55 L52,55 L54,58 L58,59 L58,61 L60,61 L60,65 L64,67 L64,69 L66,69 L66,79 L68,79 L68,83 L70,83 L70,85 L74,85 L74,87 L76,87 L76,85 L82,85 L82,87 L86,87 L86,89 L88,89 L88,95 L90,95 L90,97 L92,97 L92,101 L94,101 L94,103 L96,103 L96,107 L100,107 L106,114 L108,115 L108,119 L110,119 L110,125 L112,125 L112,127 L114,127 L114,143 L113,143 L113,128 L111,128 L110,130 L110,127 L108,125 L109,120 L107,120 L107,122 L105,122 L105,124 L102,124 L102,122 L98,122 L98,118 L95,118 L94,108 L89,110 L85,108 L86,103 L84,96 L82,91 L79,91 L78,96 L75,95 L73,91 L70,90 L69,88 L67,88 L67,86 L65,86 L65,84 L63,84 L63,88 L61,88 L61,81 L62,80 L61,74 L60,70 L53,62 L49,60 L46,56 L44,50 L43,40 L42,38 L39,38 L38,34 L34,33 L33,29 L34,28 L34,18 L30,18 L29,13 L20,10 L13,11 L6,10 L4,5 L-3,5 Z " fill="#914563" transform="translate(590,367)"/>
<path d="M0,0 L2,0 L2,18 L1,28 L-1,28 L-1,36 L-3,36 L-3,40 L-5,40 L-5,48 L-9,48 L-9,52 L-17,52 L-17,54 L-19,54 L-19,58 L-27,58 L-27,72 L-29,72 L-29,76 L-27,76 L-27,84 L-25,84 L-25,92 L-27,92 L-27,102 L-29,102 L-29,108 L-27,108 L-27,114 L-29,114 L-29,128 L-27,128 L-27,134 L-29,134 L-29,140 L-37,140 L-37,142 L-33,142 L-33,148 L-37,148 L-37,154 L-43,154 L-43,152 L-47,152 L-47,156 L-43,156 L-43,164 L-51,164 L-51,160 L-54,160 L-54,202 L-56,202 L-56,160 L-53,157 L-51,157 L-50,152 L-47,149 L-42,148 L-38,143 L-40,142 L-38,138 L-37,134 L-34,132 L-33,125 L-33,114 L-34,97 L-34,89 L-31,86 L-31,79 L-33,75 L-32,71 L-30,71 L-30,58 L-25,54 L-20,54 L-21,50 L-16,48 L-11,48 L-11,46 L-9,45 L-8,39 L-6,39 L-4,27 L-7,27 L-8,29 L-10,29 L-11,24 L-14,22 L-8,18 L-5,16 L-4,24 L-3,24 L-2,17 L0,17 Z " fill="#400013" transform="translate(321,350)"/>
<path d="M0,0 L62,0 L62,2 L74,2 L74,4 L78,4 L78,6 L82,6 L82,8 L86,8 L86,14 L92,14 L94,17 L98,18 L98,20 L102,20 L101,24 L101,21 L98,21 L97,24 L96,22 L92,21 L84,17 L80,11 L75,10 L71,9 L72,7 L65,7 L60,9 L54,8 L52,4 L45,5 L40,6 L40,4 L36,6 L29,6 L28,7 L16,6 L16,5 L9,5 L2,7 L-6,10 L-10,15 L-18,22 L-23,26 L-28,28 L-28,30 L-34,30 L-38,32 L-45,32 L-50,31 L-50,29 L-55,29 L-55,31 L-53,32 L-56,33 L-56,31 L-59,31 L-59,33 L-57,33 L-57,35 L-60,35 L-60,33 L-66,33 L-66,32 L-60,32 L-60,30 L-56,30 L-56,28 L-50,28 L-50,26 L-44,26 L-44,28 L-42,28 L-42,26 L-36,26 L-36,24 L-30,24 L-30,22 L-26,22 L-26,20 L-22,20 L-22,18 L-20,18 L-20,16 L-18,16 L-18,12 L-12,12 L-12,8 L-10,8 L-10,6 L-6,6 L-6,4 L-4,4 L-4,2 L0,2 Z M22,5 Z M93,20 Z M-33,28 Z " fill="#953A56" transform="translate(492,346)"/>
<path d="M0,0 L5,0 L5,6 L8,8 L13,7 L17,5 L17,9 L14,9 L14,12 L6,12 L6,10 L2,10 L2,12 L-2,12 L-2,16 L-10,16 L-10,12 L-26,12 L-26,14 L-12,14 L-12,28 L-40,28 L-40,30 L-48,30 L-48,32 L-52,32 L-52,36 L-62,36 L-62,38 L-70,38 L-70,40 L-78,40 L-78,38 L-86,38 L-86,40 L-94,40 L-94,38 L-96,38 L-96,40 L-102,40 L-102,38 L-108,38 L-108,40 L-118,40 L-118,38 L-122,41 L-128,41 L-128,38 L-121,37 L-121,35 L-116,34 L-116,37 L-109,35 L-104,35 L-103,32 L-103,35 L-101,35 L-99,31 L-93,32 L-91,30 L-86,30 L-87,35 L-80,35 L-79,32 L-74,31 L-75,34 L-77,34 L-77,37 L-72,36 L-72,34 L-65,34 L-65,31 L-63,31 L-63,33 L-56,32 L-51,28 L-47,26 L-39,24 L-28,24 L-28,18 L-28,17 L-29,11 L-26,8 L-7,8 L-7,11 L-3,11 L-3,9 L0,9 Z M-74,30 Z " fill="#58001A" transform="translate(524,256)"/>
<path d="M0,0 L20,0 L20,4 L26,4 L26,12 L24,12 L24,16 L20,16 L20,54 L14,54 L14,50 L8,50 L8,20 L4,20 L3,12 L0,10 Z " fill="#330010" transform="translate(710,262)"/>
<path d="M0,0 L1,0 L1,10 L-1,10 L-1,18 L-3,18 L-3,26 L-5,26 L-5,42 L-7,42 L-7,50 L-9,50 L-9,54 L-11,54 L-11,58 L-13,58 L-13,60 L-20,66 L-21,68 L-23,68 L-23,74 L-29,74 L-29,76 L-35,76 L-35,78 L-41,78 L-41,80 L-45,80 L-45,82 L-47,82 L-47,84 L-49,84 L-49,104 L-51,104 L-51,106 L-56,110 L-57,112 L-62,112 L-62,115 L-67,115 L-67,113 L-65,112 L-69,113 L-69,110 L-67,110 L-66,105 L-60,103 L-61,107 L-58,106 L-56,102 L-54,101 L-53,82 L-48,78 L-45,75 L-39,71 L-35,72 L-33,66 L-27,64 L-25,62 L-25,60 L-23,60 L-21,55 L-19,53 L-17,53 L-14,48 L-13,40 L-10,40 L-10,33 L-11,30 L-9,22 L-6,18 L-6,25 L-4,25 L-5,18 L-5,10 L-4,10 L-4,17 L-2,17 L-3,10 L-3,1 L-2,1 L-2,9 L0,9 Z " fill="#984F6D" transform="translate(703,600)"/>
<path d="M0,0 L8,0 L8,2 L12,2 L12,6 L14,6 L13,8 L11,8 L11,3 L4,4 L-2,13 L-3,48 L-4,50 L-6,50 L-6,75 L-4,79 L-5,95 L1,96 L2,99 L1,112 L-2,117 L-2,147 L-3,156 L-5,156 L-6,166 L-6,205 L-4,210 L-4,238 L-6,238 L-6,210 L-10,208 L-10,158 L-8,158 L-8,156 L-6,156 L-6,114 L-4,114 L-4,112 L-2,112 L-2,96 L-6,96 L-6,80 L-10,78 L-10,50 L-8,50 L-8,48 L-6,48 L-6,10 L-2,8 L-2,2 L0,2 Z M-8,77 Z M-8,207 Z " fill="#320007" transform="translate(264,334)"/>
<path d="M0,0 L2,1 L3,2 L4,6 L3,9 L0,12 L0,15 L1,26 L-1,28 L-1,34 L-1,36 L1,35 L0,45 L-2,49 L-1,54 L0,57 L2,58 L2,69 L0,72 L1,78 L-1,84 L2,89 L1,96 L-1,98 L-3,105 L-5,105 L-3,90 L-6,89 L-7,91 L-9,91 L-8,21 L-7,20 L-6,11 L-3,4 L-2,1 Z M-1,49 Z " fill="#A14869" transform="translate(374,508)"/>
<path d="M0,0 L2,0 L2,5 L4,7 L6,8 L6,23 L9,23 L9,33 L7,33 L7,57 L9,57 L9,65 L11,65 L11,95 L9,95 L9,113 L8,113 L7,95 L7,66 L5,67 L4,71 L2,70 L0,64 L-1,22 L-3,23 L-4,12 L-4,4 L-2,4 L-2,2 L0,2 Z " fill="#995D76" transform="translate(697,487)"/>
<path d="M0,0 L2,1 L0,3 L-3,3 L-3,5 L2,5 L3,2 L3,6 L-3,6 L-3,10 L-7,10 L-7,14 L-9,14 L-9,16 L-11,16 L-11,18 L-15,18 L-15,20 L-25,20 L-25,22 L-41,22 L-41,24 L-49,24 L-49,26 L-55,26 L-55,28 L-61,28 L-61,30 L-69,30 L-69,32 L-75,32 L-75,38 L-101,38 L-101,34 L-105,34 L-105,32 L-109,32 L-109,30 L-113,30 L-113,28 L-121,28 L-121,27 L-108,26 L-101,30 L-104,31 L-104,33 L-95,34 L-95,28 L-81,27 L-81,29 L-76,28 L-70,28 L-70,26 L-63,25 L-62,24 L-55,24 L-50,25 L-50,23 L-55,23 L-51,20 L-47,20 L-47,18 L-30,18 L-29,15 L-19,15 L-16,12 L-12,11 L-11,8 L-4,9 L-4,7 L-7,7 L-7,2 L-1,1 Z " fill="#963D5F" transform="translate(639,710)"/>
<path d="M0,0 L2,0 L2,5 L7,5 L7,25 L9,25 L9,29 L11,29 L11,49 L13,49 L13,61 L11,61 L11,63 L13,63 L13,91 L17,91 L17,98 L22,98 L22,105 L20,105 L19,101 L16,100 L16,98 L14,98 L12,94 L9,94 L9,92 L7,92 L6,85 L5,84 L5,76 L6,69 L1,70 L0,69 L0,63 L5,53 L7,49 L7,30 L6,26 L4,26 L4,8 L2,8 L2,6 L0,6 Z " fill="#3A000D" transform="translate(309,675)"/>
<path d="M0,0 L3,0 L3,6 L1,6 L0,13 L2,24 L6,18 L7,22 L8,26 L7,32 L4,32 L4,40 L0,46 L-4,48 L-6,52 L-8,52 L-9,55 L-12,54 L-11,50 L-14,48 L-12,48 L-10,40 L-8,35 L-5,32 L-8,32 L-10,26 L-10,21 L-9,18 L-9,13 L-3,9 L-3,3 Z M-6,45 Z M-7,46 Z M-8,47 Z M-9,48 Z M-10,49 Z M-10,18 Z " fill="#AC587A" transform="translate(686,608)"/>
<path d="M0,0 Z M14,0 L22,0 L22,3 L25,1 L29,1 L29,3 L37,2 L41,3 L40,5 L34,6 L27,6 L26,7 L14,7 L-2,8 L-2,10 L-9,13 L-20,15 L-24,17 L-24,14 L-22,14 L-22,9 L-26,9 L-26,11 L-32,11 L-32,8 L-21,6 L-20,3 L-16,2 L2,2 L11,1 L14,2 Z M-5,3 L-6,5 L-4,5 Z M-29,14 L-25,15 L-24,18 L-27,21 L-29,24 L-31,22 L-34,22 L-38,22 L-38,20 L-35,18 L-31,18 Z " fill="#AC4767" transform="translate(490,370)"/>
<path d="M0,0 L10,0 L10,2 L16,2 L16,0 L24,0 L24,2 L40,2 L40,4 L48,4 L48,2 L60,2 L60,4 L64,4 L64,2 L80,2 L80,5 L84,5 L84,7 L79,7 L79,5 L76,6 L67,6 L65,8 L59,7 L58,8 L49,8 L48,8 L40,8 L37,6 L23,6 L22,3 L18,5 L10,5 L4,4 L1,7 L-6,8 L-6,6 L-36,6 L-45,5 L-44,2 L-4,2 L-4,4 L0,4 Z M39,5 Z " fill="#3B0012" transform="translate(574,812)"/>
<path d="M0,0 L26,1 L40,1 L41,3 L40,5 L44,4 L48,3 L67,5 L69,5 L70,9 L56,9 L56,7 L46,7 L46,9 L0,9 L0,7 L-14,7 L-13,2 L-4,2 Z M48,2 Z " fill="#320001" transform="translate(498,879)"/>
<path d="M0,0 L13,0 L13,10 L11,11 L2,10 L-4,8 L-4,10 L-21,10 L-21,12 L-27,12 L-29,14 L-38,14 L-39,17 L-43,17 L-42,12 L-48,14 L-51,15 L-49,11 L-47,9 L-36,7 L-33,5 L-29,5 L-29,3 L-23,2 L-11,1 L-1,1 Z " fill="#B24A6B" transform="translate(517,375)"/>
<path d="M0,0 L3,1 L5,19 L5,32 L4,34 L6,34 L5,46 L4,47 L2,60 L1,70 L-3,78 L-5,78 L-7,82 L-8,82 L-9,75 L-7,70 L-5,70 L-4,44 L-2,43 L-2,29 L-3,29 L-4,19 L-5,16 L-3,15 L-1,17 L-1,21 L1,21 L0,11 Z M-5,48 Z " fill="#A96180" transform="translate(694,544)"/>
<path d="M0,0 L3,0 L3,3 L8,3 L8,5 L14,5 L14,7 L16,7 L16,5 L24,5 L24,7 L30,7 L36,14 L38,15 L38,19 L40,19 L40,25 L42,25 L42,33 L46,35 L46,37 L48,37 L48,49 L50,49 L50,55 L52,55 L51,57 L49,56 L49,58 L47,58 L44,50 L43,40 L42,38 L39,38 L38,34 L34,33 L33,29 L34,28 L34,18 L30,18 L29,13 L20,10 L13,11 L6,10 L4,5 L-3,5 Z " fill="#923E5C" transform="translate(590,367)"/>
<path d="M0,0 L6,0 L6,2 L10,2 L10,4 L22,4 L22,6 L30,6 L30,10 L36,10 L36,12 L42,12 L42,18 L48,18 L48,22 L50,22 L50,29 L95,29 L95,31 L50,32 L46,28 L44,27 L46,24 L46,22 L42,21 L39,19 L39,17 L36,17 L33,14 L29,12 L28,10 L21,9 L17,9 L7,6 L6,8 L-5,8 L-7,7 L-7,5 L-18,3 L-18,1 L-7,1 L-7,4 L-3,2 L0,2 Z M9,5 Z M35,13 Z " fill="#490019" transform="translate(354,784)"/>
<path d="M0,0 L5,0 L5,6 L8,8 L13,7 L17,5 L17,9 L14,9 L14,12 L6,12 L6,10 L2,10 L2,12 L-2,12 L-2,16 L-10,16 L-10,12 L-26,12 L-26,14 L-12,14 L-12,28 L-40,28 L-40,27 L-13,27 L-13,15 L-15,16 L-15,25 L-39,25 L-39,24 L-28,24 L-28,18 L-28,17 L-29,11 L-26,8 L-7,8 L-7,11 L-3,11 L-3,9 L0,9 Z " fill="#4E0012" transform="translate(524,256)"/>
<path d="M0,0 L20,0 L20,4 L26,4 L26,12 L24,12 L24,16 L20,16 L20,54 L14,54 L15,50 L15,53 L19,53 L18,14 L6,14 L5,19 L8,20 L4,20 L3,12 L0,10 Z " fill="#31000C" transform="translate(710,262)"/>
<path d="M0,0 L2,0 L1,7 L-1,7 L-1,11 L-3,11 L-3,13 L-5,13 L-5,15 L-9,15 L-9,17 L-13,17 L-13,19 L-17,19 L-17,21 L-23,21 L-23,23 L-33,23 L-33,27 L-39,27 L-39,25 L-45,25 L-45,29 L-49,29 L-49,35 L-55,35 L-55,41 L-65,41 L-65,45 L-68,45 L-68,52 L-70,52 L-70,45 L-66,38 L-59,37 L-59,35 L-55,34 L-54,31 L-52,31 L-51,27 L-49,22 L-42,20 L-37,19 L-36,21 L-30,19 L-24,20 L-24,18 L-20,17 L-18,15 L-14,16 L-14,14 L-6,10 L-4,7 L-2,7 L-1,1 Z " fill="#4A0013" transform="translate(393,297)"/>
<path d="M0,0 L2,2 L2,22 L6,20 L7,28 L10,26 L9,40 L8,42 L3,45 L3,51 L-1,54 L-4,55 L-3,52 L-1,51 L-2,41 L-1,40 L-1,33 L-3,37 L-5,35 L-3,30 L-4,24 L-3,5 L-2,5 L-1,16 Z M5,29 Z " fill="#B95C81" transform="translate(681,566)"/>
<path d="M0,0 L7,0 L7,2 L9,2 L9,0 L18,1 L25,2 L31,2 L32,5 L39,3 L44,2 L51,2 L52,4 L66,4 L70,5 L70,7 L73,7 L73,9 L65,8 L65,12 L55,12 L55,8 L51,8 L51,6 L39,6 L39,8 L31,8 L31,6 L17,6 L17,4 L15,4 L15,6 L7,6 L7,3 L-1,3 Z " fill="#480011" transform="translate(543,260)"/>
<path d="M0,0 L5,0 L5,2 L7,3 L3,9 L0,14 L-2,20 L-8,22 L-10,25 L-8,26 L-13,31 L-13,28 L-13,23 L-11,23 L-11,21 L-15,23 L-13,18 L-13,12 L-16,12 L-16,10 L-12,9 L-11,4 L-5,4 L-5,6 L-2,6 L-2,4 L-4,4 L-4,2 L-1,2 L-1,4 L1,3 Z M-10,19 Z M-11,20 Z M7,1 Z " fill="#A63D5C" transform="translate(437,375)"/>
<path d="M0,0 L22,0 L22,2 L24,2 L24,12 L4,12 L4,8 L0,8 Z " fill="#310000" transform="translate(538,126)"/>
<path d="M0,0 L4,0 L4,4 L6,4 L6,8 L8,8 L8,12 L10,12 L10,16 L12,16 L12,20 L14,20 L14,34 L16,34 L16,42 L20,42 L20,64 L18,64 L18,70 L14,70 L14,72 L12,72 L12,74 L-8,74 L-8,73 L6,72 L5,70 L10,70 L15,65 L16,61 L17,43 L13,42 L11,34 L10,22 L8,17 L7,17 L7,9 L5,9 L4,12 L5,5 L2,6 L3,1 Z M8,69 Z " fill="#2E0009" transform="translate(688,220)"/>
<path d="M0,0 L2,1 L0,3 L-3,3 L-3,5 L2,5 L3,2 L3,6 L-3,6 L-3,10 L-7,10 L-7,14 L-9,14 L-9,16 L-11,16 L-11,18 L-15,18 L-15,20 L-25,20 L-25,22 L-49,23 L-49,20 L-47,20 L-47,18 L-30,18 L-29,15 L-19,15 L-16,12 L-12,11 L-11,8 L-4,9 L-4,7 L-7,7 L-7,2 L-1,1 Z " fill="#904360" transform="translate(639,710)"/>
<path d="M0,0 L6,0 L6,6 L4,6 L4,16 L-2,16 L-2,20 L-6,20 L-6,24 L-10,24 L-10,28 L-18,28 L-18,22 L-12,22 L-12,18 L-8,18 L-8,12 L-6,12 L-6,8 L-2,8 L-2,2 L0,2 Z " fill="#2C000F" transform="translate(732,786)"/>
<path d="M0,0 L2,4 L1,7 L1,5 L-3,5 L-3,7 L0,7 L0,14 L-6,17 L-7,23 L-8,32 L-9,32 L-10,22 L-15,25 L-17,28 L-18,41 L-19,41 L-20,27 L-21,42 L-22,42 L-22,24 L-18,22 L-18,20 L-16,20 L-16,14 L-12,14 L-12,12 L-10,12 L-10,8 L-6,8 L-6,6 L-4,6 L-4,4 L0,4 Z " fill="#953956" transform="translate(424,380)"/>
<path d="M0,0 L75,0 L75,2 L66,3 L61,5 L33,5 L31,3 L0,3 Z " fill="#350005" transform="translate(447,159)"/>
<path d="M0,0 L11,0 L35,2 L35,3 L23,3 L23,5 L-1,5 L-1,7 L-33,7 L-33,4 L-17,4 L-17,2 L-20,1 L-13,1 L-13,4 L-5,2 L-3,2 Z " fill="#310004" transform="translate(601,879)"/>
<path d="M0,0 L2,2 L3,10 L5,9 L6,13 L8,13 L7,16 L3,19 L1,29 L-2,32 L-4,37 L-9,41 L-15,40 L-22,38 L-22,43 L-23,43 L-23,37 L-19,37 L-19,35 L-13,35 L-13,37 L-9,37 L-9,33 L-7,33 L-7,29 L-5,29 L-5,23 L-3,23 L-3,17 L0,17 Z " fill="#9A4662" transform="translate(403,405)"/>
<path d="M0,0 L6,0 L6,7 L14,7 L14,8 L6,8 L6,10 L-2,10 L-2,8 L-4,8 L-4,10 L-10,10 L-10,8 L-16,8 L-16,10 L-26,10 L-26,8 L-30,11 L-36,11 L-36,8 L-29,7 L-29,5 L-24,4 L-24,7 L-17,5 L-12,5 L-11,2 L-11,5 L-9,5 L-7,1 L-1,2 Z " fill="#510015" transform="translate(432,286)"/>
<path d="M0,0 L2,0 L2,5 L4,7 L6,8 L6,23 L8,23 L8,32 L4,32 L2,30 L1,23 L-2,23 L-3,23 L-4,12 L-4,4 L-2,4 L-2,2 L0,2 Z " fill="#A15C78" transform="translate(697,487)"/>
<path d="M0,0 L1,0 L2,12 L3,12 L3,23 L5,23 L5,31 L3,31 L3,59 L6,58 L5,70 L3,74 L5,74 L5,72 L7,72 L9,75 L8,79 L5,78 L5,80 L8,81 L4,81 L4,75 L2,75 L2,71 L0,71 L0,59 L2,59 L2,31 L0,31 Z " fill="#2F0004" transform="translate(310,745)"/>
<path d="M0,0 L1,0 L1,10 L-1,10 L-1,18 L-3,18 L-3,26 L-5,26 L-5,42 L-7,42 L-7,50 L-10,50 L-10,53 L-12,53 L-14,48 L-13,40 L-10,40 L-10,33 L-11,30 L-9,22 L-6,18 L-6,25 L-4,25 L-5,18 L-5,10 L-4,10 L-4,17 L-2,17 L-3,10 L-3,1 L-2,1 L-2,9 L0,9 Z " fill="#955771" transform="translate(703,600)"/>
<path d="M0,0 L2,0 L1,19 L3,19 L3,25 L1,25 L1,31 L-7,31 L-7,33 L-3,33 L-3,39 L-8,39 L-8,44 L-12,43 L-10,43 L-11,37 L-8,34 L-10,33 L-8,29 L-7,25 L-4,23 L-3,16 L-3,3 Z " fill="#400018" transform="translate(291,459)"/>
<path d="M0,0 L8,0 L10,1 L10,5 L12,5 L12,13 L16,13 L17,23 L17,53 L15,53 L14,40 L12,38 L11,22 L12,20 L12,14 L9,14 L9,5 L6,5 L5,3 L0,2 Z " fill="#3D0014" transform="translate(276,575)"/>
<path d="M0,0 L12,0 L12,2 L20,1 L51,1 L51,3 L22,4 L15,6 L13,9 L12,6 L10,5 L10,3 L3,4 L1,9 L-8,8 L-9,5 L-15,5 L-15,3 L-8,3 L-4,4 L-4,2 L0,2 Z " fill="#450012" transform="translate(478,812)"/>
<path d="M0,0 L1,0 L1,6 L0,7 L-2,20 L-3,30 L-7,38 L-9,38 L-11,42 L-12,42 L-13,35 L-11,30 L-9,30 L-9,22 L-7,13 L-4,6 L-3,2 L0,2 Z " fill="#AA5D7D" transform="translate(698,584)"/>
<path d="M0,0 L1,0 L1,17 L3,17 L3,24 L6,25 L6,65 L6,68 L13,69 L13,62 L14,62 L14,70 L4,70 L2,68 L2,18 L0,18 Z " fill="#2F0008" transform="translate(260,572)"/>
<path d="M0,0 L2,0 L2,2 L17,2 L17,16 L-11,16 L-11,15 L16,15 L16,3 L14,4 L14,13 L-10,13 L-10,12 L1,12 L1,6 L1,5 Z " fill="#540017" transform="translate(495,268)"/>
<path d="M0,0 L9,3 L9,5 L11,5 L11,9 L15,11 L15,13 L17,13 L17,23 L19,23 L19,27 L21,27 L21,30 L24,30 L24,32 L18,32 L18,30 L16,30 L16,28 L14,28 L14,32 L12,32 L12,25 L13,24 L12,18 L11,14 L4,6 L0,4 L-1,2 Z " fill="#914D68" transform="translate(639,423)"/>
<path d="M0,0 L2,0 L2,5 L7,5 L7,25 L9,25 L9,29 L11,29 L12,60 L10,60 L10,50 L7,49 L7,30 L6,26 L4,26 L4,8 L2,8 L2,6 L0,6 Z " fill="#3F0112" transform="translate(309,675)"/>
<path d="M0,0 L1,4 L0,7 L-3,10 L-3,13 L-2,24 L-4,26 L-4,32 L-4,34 L-2,33 L-3,43 L-5,47 L-8,46 L-9,44 L-9,31 L-7,26 L-7,18 L-6,12 L-4,2 L0,2 Z " fill="#A7486C" transform="translate(377,510)"/>
<path d="M0,0 L4,1 L5,4 L13,2 L15,1 L18,4 L18,6 L1,6 L1,8 L-5,8 L-7,10 L-16,10 L-17,13 L-21,13 L-19,8 L-12,3 L-1,1 Z M17,1 Z " fill="#B8486C" transform="translate(495,379)"/>
<path d="M0,0 L6,1 L13,7 L13,11 L15,11 L15,17 L17,17 L17,19 L19,19 L19,35 L18,35 L18,20 L16,20 L15,22 L15,19 L13,17 L14,12 L12,12 L12,14 L10,14 L10,16 L7,16 L7,14 L3,14 L3,10 L0,10 Z " fill="#97526E" transform="translate(685,475)"/>
<path d="M0,0 L1,0 L1,8 L3,8 L4,37 L4,54 L2,54 L2,37 L0,37 L1,27 L-1,33 L-3,33 L-3,9 L-2,12 L0,12 Z " fill="#A3637E" transform="translate(701,545)"/>
<path d="M0,0 L4,0 L6,0 L6,7 L10,8 L11,11 L13,11 L13,23 L15,23 L15,29 L17,29 L16,31 L14,30 L14,32 L12,32 L9,24 L8,14 L7,12 L4,12 L3,8 L-1,7 L-2,3 Z " fill="#964967" transform="translate(625,393)"/>
<path d="M0,0 L4,1 L1,1 L1,15 L7,16 L8,26 L10,31 L9,47 L13,47 L13,59 L17,59 L17,77 L19,77 L20,74 L22,75 L20,80 L19,86 L18,86 L18,78 L16,78 L16,60 L12,60 L12,48 L8,48 L8,32 L4,32 L4,16 L0,16 Z " fill="#2F0009" transform="translate(290,658)"/>
<path d="M0,0 L12,1 L17,2 L22,1 L22,3 L27,2 L32,3 L40,3 L40,4 L33,4 L33,6 L40,6 L40,7 L32,7 L32,5 L28,5 L28,7 L12,7 L12,5 L0,5 L0,3 L-6,3 L-6,2 L0,2 Z " fill="#8F435D" transform="translate(478,729)"/>
<path d="M0,0 L2,1 L2,3 L9,3 L9,5 L13,5 L13,15 L10,14 L10,11 L7,12 L7,10 L0,11 L-5,10 L-10,12 L-11,10 L-15,11 L-15,8 L-11,7 L-1,7 L-1,4 L1,4 L1,2 L-1,1 Z M-11,12 Z " fill="#C54973" transform="translate(501,386)"/>
<path d="M0,0 L3,0 L4,3 L1,10 L-2,14 L-5,23 L-7,27 L-5,27 L-5,29 L-8,29 L-8,37 L-9,37 L-9,29 L-11,29 L-11,21 L-7,19 L-7,11 L-5,11 L-5,9 L-3,9 L-3,5 L0,5 Z " fill="#A24363" transform="translate(381,443)"/>
<path d="M0,0 L4,1 L2,4 L-3,5 L-4,10 L-1,9 L4,11 L8,11 L8,14 L-4,15 L-12,14 L-12,6 L-6,4 Z M8,6 L14,6 L9,11 L8,7 Z " fill="#A44A6C" transform="translate(568,718)"/>
<path d="M0,0 L3,0 L4,10 L5,14 L8,20 L8,22 L12,23 L14,28 L12,29 L19,29 L19,31 L11,31 L9,30 L9,26 L7,26 L7,24 L3,24 L3,20 L1,20 L0,16 Z " fill="#8D425C" transform="translate(377,634)"/>
<path d="M0,0 L6,0 L6,4 L8,4 L8,11 L53,11 L53,13 L8,14 L4,10 L2,9 L4,6 L4,4 L1,3 L5,3 L5,1 L0,1 Z " fill="#430011" transform="translate(396,802)"/>
<path d="M0,0 L14,0 L14,4 L19,3 L21,4 L21,7 L24,8 L22,12 L26,12 L26,20 L30,20 L30,50 L34,50 L34,54 L36,54 L37,52 L37,58 L35,57 L35,55 L33,55 L33,51 L29,51 L29,21 L25,21 L25,13 L21,13 L21,9 L17,7 L17,5 L13,5 L13,1 L1,1 L1,5 L-19,5 L-18,1 L-18,4 L0,4 Z " fill="#270001" transform="translate(337,825)"/>
<path d="M0,0 L6,0 L6,2 L10,2 L10,4 L22,4 L22,5 L7,6 L6,8 L-5,8 L-7,7 L-7,5 L-18,3 L-18,1 L-7,1 L-7,4 L-3,2 L0,2 Z " fill="#400012" transform="translate(354,784)"/>
<path d="M0,0 L2,0 L1,7 L-1,7 L-1,11 L-3,11 L-3,13 L-5,13 L-5,15 L-9,15 L-9,17 L-13,17 L-13,19 L-17,19 L-17,21 L-23,22 L-33,22 L-32,19 L-24,20 L-24,18 L-20,17 L-18,15 L-14,16 L-14,14 L-6,10 L-4,7 L-2,7 L-1,1 Z " fill="#550014" transform="translate(393,297)"/>
<path d="M0,0 L1,0 L1,8 L3,8 L3,16 L1,16 L1,28 L-1,28 L-1,40 L-3,40 L-3,52 L-5,52 L-5,64 L-6,64 L-7,52 L-7,40 L-6,40 L-6,51 L-4,51 L-5,40 L-5,28 L-4,28 L-4,39 L-2,39 L-3,28 L-3,16 L-2,16 L-2,27 L0,27 L-1,8 Z " fill="#14080C" transform="translate(369,464)"/>
<path d="M0,0 Z M-2,1 L0,2 L1,8 L3,9 L3,20 L1,23 L2,29 L0,35 L3,40 L2,47 L0,48 L-1,38 L-2,37 Z " fill="#A74B6C" transform="translate(373,557)"/>
<path d="M0,0 L46,0 L46,2 L54,2 L54,4 L58,4 L58,2 L66,2 L66,3 L59,3 L59,5 L63,6 L58,8 L56,9 L48,8 L48,5 L44,4 L45,1 L0,1 Z " fill="#38010D" transform="translate(404,812)"/>
<path d="M0,0 L3,1 L3,3 L5,3 L6,0 L6,4 L4,4 L4,8 L2,8 L2,10 L-5,11 L-6,10 L-7,17 L-14,18 L-18,19 L-18,16 L-12,14 L-10,12 L-10,10 L-8,10 L-6,5 L-4,3 L-2,3 Z " fill="#A15172" transform="translate(688,650)"/>
<path d="M0,0 L2,2 L2,18 L3,23 L1,27 L0,32 L-3,37 L-5,35 L-3,30 L-4,24 L-3,5 L-2,5 L-1,16 Z " fill="#C15D84" transform="translate(681,566)"/>
<path d="M0,0 L5,0 L5,2 L7,3 L3,9 L1,12 L-1,12 L-1,10 L-9,11 L-11,12 L-12,5 L-11,4 L-5,4 L-5,6 L-2,6 L-2,4 L-4,4 L-4,2 L-1,2 L-1,4 L1,3 Z M7,1 Z " fill="#A13F5C" transform="translate(437,375)"/>
<path d="M0,0 L5,1 L8,2 L8,4 L11,4 L11,6 L15,7 L15,9 L21,9 L22,12 L35,12 L40,13 L40,14 L21,14 L11,13 L11,7 L7,7 L7,4 L0,4 Z M3,1 Z " fill="#450018" transform="translate(659,279)"/>
<path d="M0,0 L6,0 L6,6 L4,7 L3,15 L-3,15 L-5,15 L-6,17 L-3,17 L-3,19 L-7,18 L-7,13 L-5,13 L-5,9 L-2,9 L-2,2 L0,2 Z " fill="#340014" transform="translate(732,786)"/>
<path d="M0,0 L1,0 L2,10 L2,42 L0,42 L0,34 L-2,34 L-2,10 L0,10 Z " fill="#0E080B" transform="translate(706,510)"/>
<path d="M0,0 L3,2 L3,6 L5,6 L6,22 L5,31 L1,40 L0,36 L0,29 L2,28 L2,14 L1,14 L0,4 L-1,1 Z M-1,33 Z " fill="#B06081" transform="translate(690,559)"/>
<path d="M0,0 L12,0 L12,3 L23,3 L23,5 L13,6 L10,5 L10,3 L3,4 L1,6 L-12,6 L-15,7 L-15,3 L0,3 Z " fill="#400013" transform="translate(674,810)"/>
<path d="M0,0 L2,0 L1,32 L8,32 L8,41 L0,42 Z " fill="#0A0002" transform="translate(268,510)"/>
<path d="M0,0 L10,0 L10,4 L12,4 L12,10 L6,10 L6,8 L-2,8 L-2,2 L0,2 Z " fill="#2A0002" transform="translate(524,126)"/>
<path d="M0,0 L14,0 L14,3 L14,5 L4,5 L-2,9 L-8,7 L-8,9 L-14,9 L-14,6 L-3,4 L-2,1 Z " fill="#A74563" transform="translate(472,372)"/>
<path d="M0,0 L9,1 L14,3 L13,5 L11,5 L11,11 L6,10 L6,8 L-4,8 L-4,3 L0,5 Z " fill="#AE5A7B" transform="translate(668,480)"/>
<path d="M0,0 L2,0 L2,21 L1,27 L-3,27 L-3,29 L-5,29 L-5,31 L-25,31 L-25,30 L-11,29 L-12,27 L-7,27 L-2,22 L-1,18 Z M-9,26 Z " fill="#340011" transform="translate(705,263)"/>
<path d="M0,0 L12,0 L15,1 L16,4 L20,4 L20,6 L22,7 L12,7 L12,5 L5,5 L3,3 L2,5 L-2,5 L-10,5 L-7,2 L-2,3 L-2,1 Z " fill="#BE4A6F" transform="translate(498,384)"/>
<path d="M0,0 L3,0 L3,3 L8,3 L8,5 L14,5 L14,7 L23,6 L23,8 L17,11 L6,10 L4,5 L-3,5 Z " fill="#93415E" transform="translate(590,367)"/>
<path d="M0,0 L2,0 L2,3 L10,3 L10,4 L2,4 L2,6 L-4,6 L-4,8 L-10,8 L-10,10 L-18,10 L-18,12 L-24,12 L-24,11 L-19,11 L-19,9 L-25,9 L-25,8 L-19,8 L-19,6 L-12,5 L-11,4 L-4,4 L1,5 L1,3 L-4,3 Z " fill="#964061" transform="translate(588,730)"/>
<path d="M0,0 L7,0 L7,2 L9,2 L9,0 L18,1 L27,3 L31,5 L17,5 L15,4 L15,6 L7,6 L7,3 L-1,3 Z " fill="#4F0014" transform="translate(543,260)"/>
<path d="M0,0 L2,0 L3,4 L-3,4 L-3,6 L-29,6 L-29,3 L-6,2 Z " fill="#310001" transform="translate(481,884)"/>
<path d="M0,0 L4,2 L7,4 L14,6 L15,8 L13,8 L14,12 L12,11 L12,9 L4,9 L0,5 L0,3 L-28,3 L-28,2 L0,2 Z " fill="#8A4059" transform="translate(458,719)"/>
<path d="M0,0 L2,0 L2,2 L6,3 L8,5 L14,3 L17,5 L20,5 L21,2 L24,1 L28,3 L28,4 L21,4 L21,9 L15,9 L15,7 L13,7 L13,9 L5,9 L5,4 L0,4 Z " fill="#410113" transform="translate(617,275)"/>
<path d="M0,0 L2,1 L1,3 L-1,3 L0,51 L4,52 L4,82 L2,82 L2,54 L-2,52 L-2,2 L0,2 Z " fill="#260007" transform="translate(256,490)"/>
<path d="M0,0 L6,0 L6,2 L8,2 L8,0 L14,0 L14,1 L9,1 L9,3 L14,3 L12,6 L5,6 L0,5 L0,3 L-5,3 L-5,5 L-3,6 L-6,7 L-6,5 L-9,5 L-9,7 L-7,7 L-7,9 L-10,9 L-10,7 L-16,7 L-16,6 L-10,6 L-10,4 L-6,4 L-6,2 L0,2 Z " fill="#8B3850" transform="translate(442,372)"/>
<path d="M0,0 L1,3 L0,14 L-1,16 L-6,19 L-6,25 L-10,28 L-13,29 L-12,26 L-10,25 L-6,13 L-5,12 L-4,4 Z " fill="#B35C7F" transform="translate(690,592)"/>
<path d="M0,0 L1,0 L1,16 L-1,16 L-1,24 L-4,24 L-4,27 L-6,27 L-8,22 L-7,14 L-4,14 L-3,11 L-2,15 L0,15 Z " fill="#94536E" transform="translate(697,626)"/>
<path d="M0,0 L3,0 L2,10 L0,15 L-1,22 L-4,24 L-7,29 L-8,29 L-8,21 L-6,18 L-4,18 L-2,12 L-1,7 Z " fill="#A45C7A" transform="translate(695,604)"/>
<path d="M0,0 L2,0 L2,15 L4,15 L4,24 L0,24 L-2,22 L-3,15 L-4,10 L-2,7 L-1,10 Z " fill="#A2627D" transform="translate(701,495)"/>
<path d="M0,0 L3,1 L3,6 L-12,6 L-12,8 L-20,8 L-20,5 L-18,5 L-18,3 L-1,3 Z " fill="#A14B6A" transform="translate(610,725)"/>
<path d="M0,0 L40,0 L40,2 L9,3 L0,2 Z " fill="#480014" transform="translate(529,815)"/>
<path d="M0,0 L2,2 L3,10 L5,9 L6,13 L8,13 L7,16 L3,19 L2,23 L-2,23 L-2,17 L0,17 Z " fill="#A24867" transform="translate(403,405)"/>
<path d="M0,0 L4,1 L1,1 L1,6 L7,6 L6,8 L1,11 L-1,14 L-2,27 L-3,27 L-4,13 L-5,28 L-6,28 L-6,10 L-2,8 L-2,6 L0,6 Z " fill="#8E3C58" transform="translate(408,394)"/>
<path d="M0,0 L13,0 L13,12 L-14,12 L-14,10 L11,10 L11,1 L0,1 Z " fill="#62001D" transform="translate(498,271)"/>
<path d="M0,0 L1,0 L1,12 L3,12 L2,25 L1,27 L-1,27 L-1,25 L-3,25 L-3,36 L-4,36 L-4,24 L-2,24 L-2,12 L0,12 Z " fill="#8D3B59" transform="translate(370,480)"/>
<path d="M0,0 L1,0 L2,6 L2,32 L1,32 L1,27 L-1,27 L-1,32 L-2,32 L-2,26 L0,26 L0,20 L-2,20 L-2,6 L0,6 Z " fill="#070003" transform="translate(294,458)"/>
<path d="M0,0 L6,1 L6,4 L31,4 L31,6 L1,6 L-1,1 Z " fill="#340001" transform="translate(374,879)"/>
<path d="M0,0 L1,4 L5,6 L5,36 L4,36 L4,10 L2,10 L2,36 L1,36 L0,6 L-1,3 Z " fill="#14090C" transform="translate(397,670)"/>
<path d="M0,0 L19,0 L17,7 L23,7 L24,4 L24,8 L16,8 L16,4 L0,4 L-1,6 L-1,4 L-3,3 Z " fill="#4F0010" transform="translate(498,264)"/>
<path d="M0,0 L8,0 L7,7 L5,10 L3,10 L2,12 L-2,12 L-3,4 Z " fill="#390002" transform="translate(473,180)"/>
<path d="M0,0 L2,1 L1,3 L-1,3 L0,29 L4,30 L3,47 L7,47 L7,64 L6,64 L6,48 L2,48 L2,32 L-2,30 L-2,2 L0,2 Z " fill="#270004" transform="translate(256,382)"/>
<path d="M0,0 L2,0 L2,2 L0,2 L0,6 L3,6 L3,3 L14,4 L14,6 L4,6 L4,10 L7,10 L7,14 L3,14 L2,12 L0,12 L0,8 L-3,5 L-1,1 Z " fill="#440012" transform="translate(646,265)"/>
<path d="M0,0 L11,0 L11,2 L-2,6 L-8,5 L-10,1 L-2,1 L0,2 Z " fill="#9F405C" transform="translate(554,349)"/>
<path d="M0,0 L1,0 L1,15 L5,15 L5,27 L9,27 L9,45 L11,45 L12,42 L14,43 L12,48 L11,54 L10,54 L10,46 L8,46 L8,28 L4,28 L4,16 L0,16 Z " fill="#290007" transform="translate(298,690)"/>
<path d="M0,0 L1,0 L1,6 L-3,12 L-7,14 L-9,18 L-11,18 L-12,21 L-15,20 L-13,16 L-8,10 L-6,10 L-4,4 Z " fill="#A55374" transform="translate(689,642)"/>
<path d="M0,0 L6,0 L6,4 L36,4 L36,6 L40,6 L40,10 L44,10 L43,14 L43,11 L39,11 L39,7 L33,8 L28,7 L28,6 L5,5 L5,1 L0,1 Z " fill="#2B0006" transform="translate(644,206)"/>
<path d="M0,0 L2,1 L1,3 L-1,3 L0,14 L-2,18 L0,18 L0,20 L-3,20 L-3,28 L-4,28 L-4,20 L-6,20 L-6,12 L-2,10 L-2,2 L0,2 Z " fill="#8C3955" transform="translate(376,452)"/>
<path d="M0,0 L4,0 L6,0 L6,7 L10,8 L10,11 L8,10 L7,12 L4,12 L3,8 L-1,7 L-2,3 Z " fill="#9C4466" transform="translate(625,393)"/>
<path d="M0,0 L4,1 L2,4 L-3,5 L-4,10 L-1,9 L-2,12 L-12,12 L-12,6 L-6,4 Z " fill="#A94D6F" transform="translate(568,718)"/>
<path d="M0,0 L1,2 L0,4 L2,5 L3,8 L0,9 L-1,12 L-6,12 L-6,10 L-4,9 L-8,10 L-8,7 L-6,7 L-5,2 Z " fill="#A15170" transform="translate(642,703)"/>
<path d="M0,0 L2,0 L3,5 L0,6 L0,9 L3,10 L2,14 L1,23 L0,23 L0,11 L-6,11 L-6,6 L0,4 Z M5,0 Z M4,2 Z M3,3 Z " fill="#A24060" transform="translate(415,389)"/>
<path d="M0,0 L19,0 L19,2 L4,3 L3,4 L3,14 L0,14 Z " fill="#360000" transform="translate(319,235)"/>
<path d="M0,0 L3,1 L4,12 L2,12 L2,28 L1,28 L1,12 L-1,12 L-2,1 Z " fill="#8F4260" transform="translate(375,622)"/>
<path d="M0,0 L3,0 L4,10 L5,17 L4,19 L2,19 L2,16 L0,16 Z " fill="#A14A6C" transform="translate(377,634)"/>
<path d="M0,0 L4,4 L4,14 L2,16 L-2,15 L-2,7 Z " fill="#A04969" transform="translate(373,607)"/>
<path d="M0,0 L2,0 L3,2 L3,12 L2,14 L1,23 L0,23 L0,12 L-2,12 L-2,23 L-3,23 L-3,11 L0,11 Z " fill="#984061" transform="translate(367,505)"/>
<path d="M0,0 L1,4 L3,4 L3,10 L5,10 L5,18 L4,18 L4,11 L2,11 L2,17 L1,17 L0,12 L-2,11 L-3,1 L-2,4 L0,4 Z " fill="#913E5D" transform="translate(627,382)"/>
<path d="M0,0 L2,0 L2,27 L-2,27 L-1,23 Z " fill="#380013" transform="translate(727,288)"/>
<path d="M0,0 L3,1 L5,11 L3,12 L-2,10 L-2,2 Z M2,12 Z " fill="#330002" transform="translate(451,182)"/>
<path d="M0,0 L10,0 L10,6 L2,6 L2,4 L-2,4 L-2,2 L0,2 Z " fill="#060000" transform="translate(396,866)"/>
<path d="M0,0 L1,3 L7,2 L9,3 L9,5 L15,7 L13,8 L13,11 L16,12 L12,12 L12,10 L7,9 L4,6 L4,4 L0,4 Z " fill="#8D425A" transform="translate(406,706)"/>
<path d="M0,0 L2,2 L2,26 L5,26 L5,28 L0,28 Z " fill="#380013" transform="translate(719,283)"/>
<path d="M0,0 L2,0 L3,27 L2,29 L0,29 Z " fill="#360000" transform="translate(367,846)"/>
<path d="M0,0 L2,0 L2,2 L4,2 L4,4 L1,4 L1,9 L-7,9 L-7,3 L0,3 Z " fill="#330012" transform="translate(721,805)"/>
<path d="M0,0 L3,0 L3,2 L5,3 L1,5 L1,7 L-5,7 L-7,8 L-7,6 L-12,6 L-12,4 L-7,4 L-7,2 L-1,2 L-1,4 L1,3 Z M-4,5 Z " fill="#A2445F" transform="translate(463,369)"/>
<path d="M0,0 L5,0 L12,4 L9,5 L9,7 L12,8 L8,8 L8,6 L4,6 L4,4 L0,4 L0,2 L-8,2 L-8,1 Z " fill="#8F3E5D" transform="translate(526,736)"/>
<path d="M0,0 L25,1 L25,3 L-2,3 L-2,1 Z " fill="#360002" transform="translate(409,886)"/>
<path d="M0,0 L2,0 L2,5 L-22,5 L-22,3 L0,3 Z " fill="#A74369" transform="translate(561,742)"/>
<path d="M0,0 L14,0 L14,7 L13,8 L2,9 L2,7 L-2,6 L-1,1 Z M3,1 L3,3 L1,3 L1,5 L5,5 L5,7 L13,7 L13,1 Z " fill="#300000" transform="translate(393,865)"/>
<path d="M0,0 L4,2 L5,3 L5,9 L2,11 L-2,9 L-2,2 Z " fill="#39000D" transform="translate(306,371)"/>
<path d="M0,0 L9,3 L10,9 L8,11 L4,6 L0,4 L-1,2 Z " fill="#98506D" transform="translate(639,423)"/>
<path d="M0,0 L12,0 L12,2 L16,2 L16,4 L20,5 L16,5 L16,7 L9,8 L10,5 L9,3 L11,3 L11,1 L0,1 Z " fill="#84334D" transform="translate(554,348)"/>
<path d="M0,0 L11,0 L11,3 L15,2 L15,4 L18,5 L16,7 L11,6 L11,4 L0,2 Z " fill="#42000D" transform="translate(336,785)"/>
<path d="M0,0 L1,2 L5,1 L3,5 L0,9 L-2,9 L-2,15 L-8,15 L-8,14 L-3,14 L-3,9 L-5,9 L-5,12 L-8,11 L-6,11 L-5,7 L-1,8 L-1,1 Z " fill="#914967" transform="translate(682,659)"/>
<path d="M0,0 L2,4 L2,7 L1,12 L-3,15 L-6,13 L-4,13 L-2,5 Z " fill="#AD5277" transform="translate(678,643)"/>
<path d="M0,0 L1,3 L0,5 L9,5 L9,6 L-1,6 L-1,4 L-5,7 L-11,7 L-11,4 L-4,3 L-4,1 Z " fill="#4A0010" transform="translate(407,290)"/>
<path d="M0,0 L6,0 L6,8 L0,8 Z " fill="#2E010E" transform="translate(270,542)"/>
<path d="M0,0 L16,0 L15,16 L14,16 L14,2 L0,2 Z " fill="#0E0003" transform="translate(498,268)"/>
<path d="M0,0 L23,0 L22,2 L14,3 L2,3 L0,2 Z " fill="#380009" transform="translate(650,211)"/>
<path d="M0,0 L5,1 L4,7 L0,8 L-3,6 L-2,1 Z " fill="#390000" transform="translate(424,191)"/>
<path d="M0,0 L1,0 L1,14 L-1,14 L-1,18 L1,18 L1,26 L0,26 L0,19 L-3,19 L-4,21 L-5,15 L-4,13 L0,13 Z " fill="#37000E" transform="translate(293,408)"/>
<path d="M0,0 L5,0 L6,3 L8,4 L4,7 L0,6 L-2,1 Z " fill="#34000A" transform="translate(665,837)"/>
<path d="M0,0 L12,0 L12,3 L23,3 L23,5 L13,6 L10,5 L11,1 L0,1 Z " fill="#370013" transform="translate(674,810)"/>
<path d="M0,0 L4,0 L4,4 L10,6 L10,8 L4,8 L4,6 L2,6 L2,4 L0,4 L0,8 L-2,8 L-2,1 Z " fill="#A15272" transform="translate(653,447)"/>
<path d="M0,0 L2,0 L2,4 L4,4 L4,6 L0,6 L0,4 L-2,4 L-2,7 L2,8 L0,8 L0,10 L-3,9 L-5,6 L-5,3 Z " fill="#4E000C" transform="translate(382,292)"/>
<path d="M0,0 L12,0 L14,7 L14,8 L9,8 L9,12 L16,12 L16,13 L8,13 L8,7 L12,7 L12,5 L10,5 L10,1 L0,1 Z " fill="#380110" transform="translate(650,271)"/>
<path d="M0,0 L20,0 L19,2 L12,2 L11,3 L-1,2 Z M5,1 Z " fill="#9F3D5C" transform="translate(509,350)"/>
<path d="M0,0 L6,0 L5,3 L0,4 L-1,5 L5,7 L5,9 L-2,9 L-2,7 L-4,7 L-5,4 L-1,2 Z " fill="#5A0018" transform="translate(432,286)"/>
<path d="M0,0 L9,0 L9,2 L4,2 L4,4 L6,4 L6,6 L-1,6 L-1,1 Z " fill="#360003" transform="translate(524,127)"/>
<path d="M0,0 L2,0 L2,3 L10,3 L10,4 L2,4 L2,6 L-4,6 L-4,8 L-10,8 L-10,7 L-5,7 L-5,5 L-10,5 L-10,4 L1,5 L1,3 L-4,3 Z " fill="#883E59" transform="translate(588,730)"/>
<path d="M0,0 L1,0 L1,5 L-7,5 L-7,7 L-11,6 L-8,6 L-8,4 L-10,3 L-6,1 Z " fill="#55001A" transform="translate(483,281)"/>
<path d="M0,0 L3,1 L4,8 L-2,8 L-2,2 Z " fill="#380002" transform="translate(395,226)"/>
<path d="M0,0 L8,0 L10,1 L9,8 L12,9 L12,11 L10,11 L10,9 L8,9 L8,3 L0,3 Z " fill="#300009" transform="translate(274,631)"/>
<path d="M0,0 L19,0 L19,2 L0,3 Z " fill="#370004" transform="translate(427,163)"/>
<path d="M0,0 L18,0 L17,3 L0,3 Z " fill="#370001" transform="translate(543,151)"/>
<path d="M0,0 L4,0 L5,9 L3,9 L2,11 L2,9 L0,9 Z " fill="#965C75" transform="translate(702,544)"/>
<path d="M0,0 L6,0 L6,2 L10,3 L6,3 L6,5 L-3,3 L-3,8 L-4,8 L-4,2 L0,2 Z " fill="#8B3C57" transform="translate(384,440)"/>
<path d="M0,0 L7,0 L9,2 L6,5 L-2,4 L-4,5 L-3,2 L0,2 Z " fill="#A94A66" transform="translate(557,372)"/>
<path d="M0,0 L2,4 L0,5 L-13,5 L-12,2 L-3,2 Z " fill="#340001" transform="translate(450,888)"/>
<path d="M0,0 L5,0 L6,5 L11,6 L11,8 L6,8 L3,6 L3,4 L0,4 L-1,1 Z " fill="#4F001A" transform="translate(390,797)"/>
<path d="M0,0 L6,1 L11,2 L11,5 L3,5 L3,3 L0,3 Z " fill="#A04967" transform="translate(419,714)"/>
<path d="M0,0 L1,3 L3,4 L2,5 L-4,5 L-4,7 L-13,7 L-13,5 L-6,4 L-5,3 L0,3 Z " fill="#590015" transform="translate(420,288)"/>
<path d="M0,0 L2,0 L3,5 L8,6 L8,13 L6,13 L5,9 L2,8 L2,6 L0,6 Z " fill="#43000D" transform="translate(323,767)"/>
<path d="M0,0 L2,0 L0,4 L-8,12 L-10,16 L-10,10 L-8,10 L-6,6 L-2,2 L0,2 Z " fill="#1C0E14" transform="translate(690,658)"/>
<path d="M0,0 L7,1 L12,3 L11,5 L0,4 Z " fill="#AA5677" transform="translate(670,480)"/>
<path d="M0,0 L1,4 L-7,4 L-7,6 L-9,6 L-9,10 L-17,10 L-17,9 L-10,9 L-11,2 L-7,1 L-7,3 L0,3 Z " fill="#370111" transform="translate(311,398)"/>
<path d="M0,0 L2,1 L0,5 L-1,7 L1,8 L-4,13 L-4,10 L-4,5 L-2,5 Z M2,1 Z " fill="#AA3C5E" transform="translate(428,393)"/>
<path d="M0,0 L4,1 L4,3 L-1,3 L-1,5 L-11,5 L-10,2 L-2,3 L-2,1 Z " fill="#5B0015" transform="translate(371,314)"/>
<path d="M0,0 L14,0 L16,1 L16,3 L0,3 Z " fill="#360001" transform="translate(321,826)"/>
<path d="M0,0 L2,0 L3,2 L8,3 L8,12 L6,12 L6,5 L1,5 Z " fill="#3E0012" transform="translate(267,562)"/>
<path d="M0,0 L6,1 L6,5 L2,7 L-2,5 Z " fill="#9F4E6F" transform="translate(677,470)"/>
<path d="M0,0 L2,0 L2,11 L-5,11 L-5,9 L-1,8 Z " fill="#37000C" transform="translate(687,830)"/>
<path d="M0,0 L9,0 L9,2 L15,2 L15,4 L6,3 L0,2 Z " fill="#460015" transform="translate(575,813)"/>
<path d="M0,0 L2,0 L3,13 L2,15 L0,15 Z " fill="#360005" transform="translate(259,414)"/>
<path d="M0,0 L6,0 L6,2 L0,5 L-6,4 L-3,2 Z " fill="#A24667" transform="translate(607,373)"/>
<path d="M0,0 L12,1 L12,2 L5,4 L0,5 L-2,4 L-2,2 L0,2 Z " fill="#A03A5A" transform="translate(489,349)"/>
<path d="M0,0 L9,1 L9,3 L2,3 L2,5 L-5,5 L-5,3 L0,2 Z " fill="#63001D" transform="translate(452,290)"/>
<path d="M0,0 L8,0 L8,4 L0,4 Z " fill="#36000D" transform="translate(656,828)"/>
<path d="M0,0 L5,1 L4,8 L1,7 L-1,3 L-4,1 Z " fill="#A04B6E" transform="translate(664,455)"/>
<path d="M0,0 L3,0 L4,3 L1,10 L0,6 L-2,6 L-3,9 L-3,5 L0,5 Z " fill="#9A405F" transform="translate(381,443)"/>
<path d="M0,0 L9,0 L9,3 L-2,3 L-2,1 Z " fill="#A24D6A" transform="translate(481,730)"/>
<path d="M0,0 L1,4 L-1,4 L-1,8 L-3,8 L-4,10 L-5,3 L-4,1 L-2,1 L-2,3 L0,3 Z " fill="#8F4B67" transform="translate(693,650)"/>
<path d="M0,0 L2,3 L1,13 L0,9 L-2,9 L-2,3 L0,3 Z " fill="#8C415C" transform="translate(364,587)"/>
<path d="M0,0 L2,0 L2,5 L0,5 L0,19 L-1,19 L-1,5 L-3,5 L-3,3 Z " fill="#440119" transform="translate(291,459)"/>
<path d="M0,0 L4,0 L4,2 L1,3 L0,6 L-6,6 L-6,2 L0,2 Z " fill="#5B0016" transform="translate(521,265)"/>
<path d="M0,0 L4,1 L4,10 L1,8 L-1,2 Z " fill="#9F486C" transform="translate(673,455)"/>
<path d="M0,0 L4,2 L5,7 L-2,6 Z " fill="#9E4364" transform="translate(622,379)"/>
<path d="M0,0 L4,0 L4,2 L7,2 L7,7 L4,7 L0,3 Z " fill="#A1415F" transform="translate(570,353)"/>
<path d="M0,0 L4,0 L4,2 L1,3 L0,8 L-5,8 L-4,5 L-2,5 L-1,1 Z " fill="#530016" transform="translate(343,323)"/>
<path d="M0,0 L2,0 L2,2 L6,3 L7,6 L12,6 L12,8 L6,8 L5,5 L0,4 Z " fill="#540017" transform="translate(617,275)"/>
<path d="M0,0 L4,1 L5,4 L2,7 L2,5 L0,5 L0,9 L5,9 L5,10 L-1,10 L-1,4 L1,4 Z " fill="#430012" transform="translate(617,270)"/>
<path d="M0,0 L1,4 L-1,4 L-1,8 L-5,8 L-5,6 L-11,6 L-11,5 L0,3 Z " fill="#180B0F" transform="translate(395,434)"/>
<path d="M0,0 L1,2 L6,3 L7,6 L0,7 L0,3 L-2,2 L0,2 Z " fill="#260004" transform="translate(269,389)"/>
<path d="M0,0 L3,0 L4,3 L7,4 L7,6 L-3,5 Z " fill="#A54968" transform="translate(590,367)"/>
<path d="M0,0 L1,4 L-2,4 L-2,6 L-9,6 L-9,4 L-3,2 Z " fill="#570017" transform="translate(540,261)"/>
<path d="M0,0 L8,0 L8,3 L0,3 Z " fill="#410014" transform="translate(614,817)"/>
<path d="M0,0 L3,1 L2,8 L-1,8 L-1,2 Z " fill="#340009" transform="translate(310,736)"/>
<path d="M0,0 L7,1 L3,2 L3,4 L-2,5 L-2,2 Z " fill="#914D6A" transform="translate(655,678)"/>
<path d="M0,0 L2,0 L3,5 L-1,6 L-3,6 L-2,1 Z " fill="#9C506F" transform="translate(686,655)"/>
<path d="M0,0 L3,0 L3,9 L1,9 Z " fill="#420016" transform="translate(288,589)"/>
<path d="M0,0 L4,0 L4,6 L0,6 Z " fill="#440016" transform="translate(271,543)"/>
<path d="M0,0 L4,0 L4,2 L6,2 L6,4 L4,4 L4,10 L3,10 L2,4 L0,4 Z " fill="#0B0002" transform="translate(612,270)"/>
<path d="M0,0 L8,2 L8,3 L-5,3 L-5,1 Z " fill="#550015" transform="translate(566,262)"/>
<path d="M0,0 L6,0 L6,4 L0,4 Z " fill="#0A0002" transform="translate(664,238)"/>
<path d="M0,0 L4,0 L4,6 L0,6 Z " fill="#0A0000" transform="translate(450,186)"/>
<path d="M0,0 L3,0 L3,8 L2,10 L0,10 Z " fill="#370000" transform="translate(403,183)"/>
<path d="M0,0 L3,1 L3,4 L6,5 L1,6 L-1,4 Z " fill="#2D0001" transform="translate(355,828)"/>
<path d="M0,0 L7,1 L7,4 L1,4 Z " fill="#A04B68" transform="translate(471,727)"/>
<path d="M0,0 L4,0 L4,6 L10,6 L10,7 L4,7 L3,10 L1,6 L3,6 L3,1 Z " fill="#84374F" transform="translate(574,354)"/>
<path d="M0,0 L9,1 L9,2 L3,2 L3,6 L-1,5 L2,5 L2,3 L-1,3 Z " fill="#440112" transform="translate(345,320)"/>
<path d="M0,0 L2,0 L2,4 L-1,5 L-2,8 L-4,8 L-3,3 Z " fill="#0E0000" transform="translate(476,182)"/>
<path d="M0,0 L10,0 L10,2 L3,3 L0,2 Z " fill="#4A0015" transform="translate(479,813)"/>
<path d="M0,0 L5,0 L3,5 L-2,6 Z " fill="#9E4B6C" transform="translate(628,718)"/>
<path d="M0,0 L1,4 L4,5 L4,10 L2,10 L2,7 L0,6 L-1,3 Z " fill="#11080B" transform="translate(397,670)"/>
<path d="M0,0 L4,0 L4,2 L10,2 L10,3 L0,4 Z " fill="#0C0004" transform="translate(274,502)"/>
<path d="M0,0 L5,1 L4,4 L-6,3 L-4,1 Z " fill="#B74D6F" transform="translate(525,382)"/>
<path d="M0,0 L2,0 L1,4 L-5,4 L-5,1 Z " fill="#560011" transform="translate(401,293)"/>
<path d="M0,0 L1,4 L-3,4 L-3,10 L-1,10 L-2,12 L-5,13 L-4,3 L0,3 Z " fill="#2B0004" transform="translate(645,194)"/>
<path d="M0,0 L6,0 L6,2 L9,2 L8,4 L-1,2 Z " fill="#4C0016" transform="translate(364,789)"/>
<path d="M0,0 L2,0 L0,4 L-4,8 L-6,8 L-4,4 L0,2 Z " fill="#1C0E14" transform="translate(652,704)"/>
<path d="M0,0 L2,0 L2,2 L9,2 L9,4 L1,4 Z " fill="#A44E6B" transform="translate(387,661)"/>
<path d="M0,0 L3,0 L4,8 L2,8 L0,5 Z " fill="#33000A" transform="translate(695,232)"/>
<path d="M0,0 L5,0 L5,2 L0,4 L-3,4 L-3,1 Z " fill="#490114" transform="translate(354,785)"/>
<path d="M0,0 L2,0 L2,6 L-4,6 L-4,4 L0,4 Z " fill="#450116" transform="translate(275,507)"/>
<path d="M0,0 L5,0 L5,4 L3,4 L3,2 L1,2 L1,4 L-1,4 Z " fill="#3A0118" transform="translate(732,787)"/>
<path d="M0,0 L4,1 L2,4 L-6,5 L-1,1 Z " fill="#AD5173" transform="translate(568,718)"/>
<path d="M0,0 L5,0 L4,4 L0,5 Z " fill="#350002" transform="translate(384,876)"/>
<path d="M0,0 L5,0 L4,4 L0,5 Z " fill="#370001" transform="translate(384,840)"/>
<path d="M0,0 L6,0 L6,3 L0,3 Z " fill="#1F0006" transform="translate(593,829)"/>
<path d="M0,0 L4,1 L2,6 L0,6 Z " fill="#300009" transform="translate(286,642)"/>
<path d="M0,0 L2,1 L-1,6 L-5,8 Z " fill="#B74569" transform="translate(459,396)"/>
<path d="M0,0 L7,1 L6,3 L-1,3 L-2,1 Z " fill="#9F425D" transform="translate(448,375)"/>
<path d="M0,0 L5,0 L1,6 L-1,4 Z " fill="#AD3E61" transform="translate(424,400)"/>
<path d="M0,0 L6,0 L6,2 L1,2 L1,4 L-1,4 Z " fill="#A3405C" transform="translate(426,379)"/>
<path d="M0,0 L2,0 L2,8 L-1,7 Z " fill="#4B0117" transform="translate(317,378)"/>
<path d="M0,0 L2,0 L0,4 L-4,6 L-4,2 L0,2 Z " fill="#4E000B" transform="translate(388,286)"/>
<path d="M0,0 L5,0 L4,4 L0,3 Z " fill="#1C0005" transform="translate(666,838)"/>
<path d="M0,0 L5,2 L4,5 L1,5 Z " fill="#A14F6B" transform="translate(399,670)"/>
<path d="M0,0 L2,0 L2,5 L-3,5 L-3,3 L0,3 Z " fill="#A65375" transform="translate(677,668)"/>
<path d="M0,0 L4,0 L4,4 L0,4 Z " fill="#C46286" transform="translate(572,608)"/>
<path d="M0,0 L2,0 L3,3 L2,7 L0,7 L-1,1 Z " fill="#AD5F7E" transform="translate(658,482)"/>
<path d="M0,0 L1,3 L3,3 L1,7 L1,5 L-1,5 L-2,8 L-2,4 L0,4 Z " fill="#873D57" transform="translate(396,434)"/>
<path d="M0,0 L4,0 L4,4 L0,4 Z " fill="#0C0003" transform="translate(306,374)"/>
<path d="M0,0 L3,0 L1,5 L-3,4 Z " fill="#A13F5E" transform="translate(566,351)"/>
<path d="M0,0 L7,0 L7,2 L0,3 Z " fill="#370005" transform="translate(283,339)"/>
<path d="M0,0 L2,0 L3,2 L7,4 L5,4 L5,6 L2,5 Z " fill="#55000F" transform="translate(377,296)"/>
<path d="M0,0 L5,2 L5,3 L-3,4 L-2,1 Z " fill="#4D0115" transform="translate(640,276)"/>
<path d="M0,0 L4,0 L4,4 L0,4 Z " fill="#0D0001" transform="translate(394,230)"/>
<path d="M0,0 L4,0 L4,4 L0,4 Z " fill="#380003" transform="translate(612,204)"/>
<path d="M0,0 L7,0 L6,3 L0,2 Z " fill="#370005" transform="translate(638,179)"/>
<path d="M0,0 L7,0 L7,2 L0,3 Z " fill="#360001" transform="translate(415,171)"/>
<path d="M0,0 L6,0 L5,3 L0,3 Z " fill="#370004" transform="translate(531,151)"/>
<path d="M0,0 L2,4 L1,7 L-1,7 L-1,1 Z " fill="#360001" transform="translate(364,838)"/>
<path d="M0,0 L3,0 L3,6 L1,6 Z " fill="#380013" transform="translate(698,815)"/>
<path d="M0,0 L1,0 L0,9 L-1,9 L-2,2 Z " fill="#3D0011" transform="translate(316,709)"/>
<path d="M0,0 L3,3 L2,6 L-1,6 Z " fill="#A24A6B" transform="translate(382,651)"/>
<path d="M0,0 L1,3 L-1,9 L-3,9 Z " fill="#B25579" transform="translate(678,643)"/>
<path d="M0,0 L5,1 L3,3 L1,2 L1,4 L-1,4 Z " fill="#A23E5C" transform="translate(482,353)"/>
<path d="M0,0 L2,1 L1,5 L-3,6 L-3,4 L-1,3 Z " fill="#46000A" transform="translate(331,299)"/>
<path d="M0,0 L2,1 L2,3 L-5,3 L-5,1 Z " fill="#530014" transform="translate(580,264)"/>
<path d="M0,0 L5,0 L4,3 L0,3 Z " fill="#9A3B57" transform="translate(427,381)"/>
<path d="M0,0 L5,0 L4,3 L0,4 Z " fill="#360007" transform="translate(644,207)"/>
<path d="M0,0 L4,1 L4,5 L2,5 L2,2 L0,2 Z " fill="#A25876" transform="translate(645,427)"/>
<path d="M0,0 L3,1 L2,6 L0,3 Z " fill="#350000" transform="translate(319,261)"/>
<path d="M0,0 L4,2 L0,5 L-1,2 Z " fill="#B75B7F" transform="translate(678,501)"/>
<path d="M0,0 L2,3 L1,5 L-3,4 Z " fill="#9E4562" transform="translate(590,367)"/>
<path d="M0,0 L4,1 L4,4 L0,2 Z M2,4 Z " fill="#A3435F" transform="translate(467,367)"/>
<path d="M0,0 L2,0 L2,4 L-2,4 L-2,2 L0,2 Z " fill="#4C0016" transform="translate(651,275)"/>
<path d="M0,0 L4,0 L4,3 L0,2 Z " fill="#0D0608" transform="translate(360,586)"/>
<path d="M0,0 L4,3 L2,4 L-2,2 Z " fill="#A25172" transform="translate(677,473)"/>
<path d="M0,0 L3,1 L-1,4 L-3,2 Z " fill="#B54466" transform="translate(453,399)"/>
<path d="M0,0 L4,0 L4,3 L-1,2 Z " fill="#350004" transform="translate(268,335)"/>
<path d="M0,0 L3,0 L3,3 L-1,4 Z " fill="#2A0005" transform="translate(327,300)"/>
<path d="M0,0 L2,0 L1,7 L0,7 L-1,1 Z " fill="#4F0010" transform="translate(393,297)"/>
<path d="M0,0 L3,0 L3,3 L-1,3 Z " fill="#510017" transform="translate(634,280)"/>
<path d="M0,0 L3,2 L2,4 L0,4 L0,2 L-4,1 Z " fill="#40000F" transform="translate(616,268)"/>
<path d="M0,0 L3,0 L4,4 L0,3 Z " fill="#230000" transform="translate(424,194)"/>
<path d="M0,0 L2,0 L2,4 L-2,3 Z " fill="#390001" transform="translate(533,131)"/>
<path d="M0,0 L3,1 L3,3 L-1,3 Z " fill="#3C000D" transform="translate(595,826)"/>
<path d="M0,0 L2,0 L2,4 L-1,4 Z " fill="#9B4C6B" transform="translate(681,471)"/>
<path d="M0,0 L2,0 L3,4 L0,4 Z " fill="#C0557F" transform="translate(629,465)"/>
<path d="M0,0 L4,0 L3,3 L0,2 Z " fill="#4C0117" transform="translate(360,787)"/>
<path d="M0,0 L2,0 L1,4 L-1,4 Z " fill="#A44B6B" transform="translate(366,595)"/>
<path d="M0,0 L3,0 L3,3 L0,3 Z " fill="#250009" transform="translate(646,268)"/>
<path d="M0,0 L3,2 L-1,3 Z " fill="#330003" transform="translate(355,828)"/>
<path d="M0,0 L2,2 L-2,3 L-2,1 Z " fill="#300004" transform="translate(258,411)"/>
<path d="M0,0 L2,0 L2,3 L-1,3 Z " fill="#4E0015" transform="translate(339,328)"/>
<path d="M0,0 L4,2 L2,2 L1,4 Z " fill="#300101" transform="translate(422,192)"/>
<path d="M0,0 L2,1 L2,3 L-1,3 Z " fill="#33000B" transform="translate(258,541)"/>
<path d="M0,0 L3,0 L2,3 L0,2 Z " fill="#350000" transform="translate(323,251)"/>
<path d="M0,0 L3,1 L1,3 Z " fill="#500015" transform="translate(619,272)"/>
<path d="M0,0 L2,2 L-1,2 Z " fill="#97516F" transform="translate(655,680)"/>
</svg>
