<?xml version="1.0" encoding="UTF-8"?>
<!-- Generator: visioncortex VTracer 0.6.4 -->
<svg version="1.1" xmlns="http://www.w3.org/2000/svg" width="42" height="82">
<path d="M0,0 L42,0 L42,82 L0,82 Z " fill="#000102" transform="translate(0,0)"/>
<path d="M0,0 L14,0 L14,4 L16,4 L16,18 L13,20 L12,24 L14,24 L14,30 L20,30 L20,32 L26,32 L26,38 L24,38 L24,40 L-6,40 L-6,19 L-3,19 L-3,25 L1,25 L1,15 L-6,15 L-6,4 L0,4 Z " fill="#243C8C" transform="translate(8,30)"/>
<path d="M0,0 L12,0 L18,1 L18,3 L24,3 L24,9 L20,9 L20,11 L18,11 L18,13 L12,13 L12,15 L10,15 L10,17 L4,17 L4,25 L-4,25 L-4,1 Z " fill="#22306C" transform="translate(4,3)"/>
<path d="M0,0 L11,0 L10,5 L9,12 L5,13 L2,12 L3,23 L11,24 L12,29 L17,30 L17,32 L16,33 L23,33 L22,36 L19,34 L18,38 L0,38 Z " fill="#2C479D" transform="translate(10,31)"/>
<path d="M0,0 L37,0 L37,8 L30,10 L28,12 L28,6 L22,6 L22,4 L0,4 Z " fill="#020307" transform="translate(0,0)"/>
<path d="M0,0 L5,0 L6,5 L11,6 L11,8 L10,9 L17,9 L16,12 L13,10 L12,14 L-2,14 L-2,2 Z " fill="#3E5BB0" transform="translate(16,55)"/>
<path d="M0,0 L1,0 L1,19 L3,19 L3,15 L8,15 L8,20 L26,19 L27,16 L30,17 L31,15 L23,16 L22,14 L25,14 L25,12 L20,12 L20,11 L26,11 L26,13 L32,13 L32,19 L30,19 L30,21 L0,21 Z " fill="#20366E" transform="translate(2,49)"/>
<path d="M0,0 L1,0 L1,10 L8,10 L8,20 L4,20 L4,14 L1,14 L1,34 L0,34 L-1,29 L-1,1 Z " fill="#17234D" transform="translate(1,35)"/>
<path d="M0,0 L9,0 L8,3 L11,4 L11,10 L5,10 L4,14 L0,14 Z " fill="#3948A8" transform="translate(10,5)"/>
<path d="M0,0 L18,0 L18,6 L0,6 Z " fill="#1F3266" transform="translate(8,72)"/>
<path d="M0,0 L7,0 L10,2 L9,7 L8,11 L10,11 L10,17 L9,17 L9,12 L1,12 L0,11 Z " fill="#32448E" transform="translate(12,43)"/>
<path d="M0,0 L14,0 L14,4 L16,4 L16,18 L14,18 L14,15 L11,14 L11,6 L13,1 L1,1 L1,5 L-5,5 L-5,15 L-6,15 L-6,4 L0,4 Z " fill="#273675" transform="translate(8,30)"/>
<path d="M0,0 L8,1 L8,3 L7,4 L14,4 L13,7 L10,5 L9,9 L1,9 L1,3 Z " fill="#3B53A1" transform="translate(19,60)"/>
<path d="M0,0 L9,1 L9,7 L5,7 L5,9 L3,9 L3,11 L-3,11 L-4,13 L-5,9 L2,10 L1,4 L-1,3 Z " fill="#303D87" transform="translate(19,5)"/>
<path d="M0,0 L5,0 L4,5 L3,12 L-1,13 L-2,12 L-2,5 Z " fill="#374DA5" transform="translate(16,31)"/>
<path d="M0,0 L22,1 L22,2 L8,2 L8,6 L0,8 Z " fill="#05060E" transform="translate(0,28)"/>
<path d="M0,0 L6,0 L4,12 L2,12 L1,17 L0,17 Z " fill="#3047A4" transform="translate(10,31)"/>
<path d="M0,0 L2,3 L3,6 L5,8 L4,19 L0,19 Z " fill="#3549A3" transform="translate(3,8)"/>
<path d="M0,0 L6,0 L6,6 L4,6 L3,9 L2,6 L1,22 L0,22 Z " fill="#2B3E8E" transform="translate(2,5)"/>
<path d="M0,0 L5,0 L8,2 L7,7 L5,11 L5,7 L3,7 L2,9 L2,5 L0,5 Z " fill="#304494" transform="translate(14,43)"/>
<path d="M0,0 L4,0 L5,10 L0,10 Z " fill="#31479F" transform="translate(3,35)"/>
<path d="M0,0 L6,0 L6,2 L12,2 L12,8 L6,9 L7,5 L10,6 L11,4 L3,5 L2,3 L5,3 L5,1 L0,1 Z " fill="#2D4080" transform="translate(22,60)"/>
<path d="M0,0 L16,1 L16,3 L0,4 Z " fill="#070A17" transform="translate(0,0)"/>
<path d="M0,0 L4,0 L5,4 L2,4 L2,6 L4,6 L4,8 L2,8 L2,12 L0,12 Z " fill="#28459A" transform="translate(3,56)"/>
<path d="M0,0 L1,0 L1,21 L0,21 L-2,9 L-2,4 L0,4 Z " fill="#283C85" transform="translate(9,31)"/>
<path d="M0,0 L1,3 L3,3 L4,20 L0,22 L0,24 L-2,24 L-1,19 L2,18 L2,4 L0,4 Z " fill="#080B18" transform="translate(22,30)"/>
<path d="M0,0 L6,0 L6,1 L1,1 L1,3 L5,4 L4,6 L14,6 L14,7 L0,8 Z " fill="#04060E" transform="translate(8,20)"/>
<path d="M0,0 L5,0 L4,3 L1,2 L0,6 L0,14 L-2,14 L-2,2 Z " fill="#3851A8" transform="translate(16,55)"/>
<path d="M0,0 L5,1 L5,7 L0,7 Z " fill="#3F4EB0" transform="translate(16,8)"/>
<path d="M0,0 L4,0 L4,8 L0,7 Z " fill="#3852B9" transform="translate(14,36)"/>
<path d="M0,0 L1,2 L4,2 L4,9 L0,9 Z " fill="#3B4EAF" transform="translate(3,18)"/>
<path d="M0,0 L6,0 L6,5 L0,5 Z " fill="#273577" transform="translate(30,3)"/>
<path d="M0,0 L7,0 L6,3 L3,1 L2,5 L-4,5 L-4,3 L0,3 Z " fill="#3C55AE" transform="translate(26,64)"/>
<path d="M0,0 L8,0 L8,8 L6,8 L6,2 L0,2 Z " fill="#040710" transform="translate(0,46)"/>
<path d="M0,0 L4,1 L4,3 L2,3 L2,7 L-2,7 L-1,3 Z " fill="#415DBC" transform="translate(17,57)"/>
<path d="M0,0 L2,0 L3,11 L0,11 Z " fill="#283C87" transform="translate(12,43)"/>
<path d="M0,0 L1,0 L1,5 L7,5 L7,6 L1,7 L-1,9 L-1,3 L-7,3 L-7,2 L0,2 Z " fill="#080B19" transform="translate(29,3)"/>
<path d="M0,0 L6,0 L5,5 L0,5 Z " fill="#31459A" transform="translate(10,31)"/>
<path d="M0,0 L5,0 L5,4 L0,4 Z " fill="#1C4381" transform="translate(9,73)"/>
<path d="M0,0 L4,0 L4,5 L0,5 Z " fill="#27498C" transform="translate(10,64)"/>
<path d="M0,0 L10,0 L10,3 L1,2 Z " fill="#304D9F" transform="translate(15,73)"/>
<path d="M0,0 L7,0 L7,2 L3,5 L2,3 L0,6 Z " fill="#3444A6" transform="translate(10,5)"/>
<path d="M0,0 L1,0 L1,8 L-2,9 L-2,4 L0,4 Z " fill="#2C3E89" transform="translate(9,31)"/>
<path d="M0,0 L3,0 L3,5 L0,5 Z " fill="#20386B" transform="translate(7,64)"/>
<path d="M0,0 L3,0 L2,5 L0,6 Z " fill="#394CA9" transform="translate(3,35)"/>
<path d="M0,0 L2,4 L2,7 L-2,6 Z " fill="#2C408E" transform="translate(15,48)"/>
<path d="M0,0 L4,2 L3,4 L-1,3 Z " fill="#34499D" transform="translate(29,65)"/>
<path d="M0,0 L2,0 L3,4 L0,4 L-1,6 Z " fill="#253F95" transform="translate(5,56)"/>
<path d="M0,0 L4,1 L4,3 L-1,3 Z " fill="#3E4BA7" transform="translate(17,12)"/>
<path d="M0,0 L3,0 L3,4 L0,4 L-1,1 Z " fill="#3A4CA2" transform="translate(24,7)"/>
<path d="M0,0 L4,0 L4,4 L2,4 L2,2 L0,2 Z " fill="#213A80" transform="translate(5,60)"/>
<path d="M0,0 L3,2 L3,5 L0,5 Z " fill="#3047A3" transform="translate(14,43)"/>
<path d="M0,0 L1,3 L-2,7 L-2,2 Z " fill="#32489E" transform="translate(21,34)"/>
<path d="M0,0 L3,0 L3,4 L0,4 Z " fill="#374AAB" transform="translate(15,32)"/>
<path d="M0,0 L1,3 L3,3 L3,6 L0,6 Z " fill="#3D51B8" transform="translate(3,18)"/>
<path d="M0,0 L3,0 L3,4 L0,4 Z " fill="#1B2554" transform="translate(6,11)"/>
<path d="M0,0 L2,0 L2,6 L-1,5 L-1,3 L1,3 Z " fill="#2F4198" transform="translate(6,5)"/>
<path d="M0,0 L4,2 L4,4 L0,4 Z " fill="#24428C" transform="translate(14,73)"/>
<path d="M0,0 L3,1 L3,3 L1,3 L0,5 Z " fill="#4058B2" transform="translate(18,57)"/>
<path d="M0,0 L1,4 L-2,4 Z " fill="#314596" transform="translate(5,39)"/>
<path d="M0,0 L3,1 L3,3 L0,2 Z " fill="#354DA6" transform="translate(18,46)"/>
<path d="M0,0 L3,1 L1,3 Z " fill="#2D3F8B" transform="translate(30,66)"/>
<path d="M0,0 L3,1 L1,3 Z " fill="#364398" transform="translate(12,16)"/>
</svg>
