<?xml version="1.0" encoding="UTF-8"?>
<!-- Generator: visioncortex VTracer 0.6.4 -->
<svg version="1.1" xmlns="http://www.w3.org/2000/svg" width="112" height="92">
<path d="M0,0 L112,0 L112,92 L0,92 Z " fill="#000101" transform="translate(0,0)"/>
<path d="M0,0 L34,0 L34,2 L48,2 L48,4 L54,4 L54,8 L56,8 L56,12 L72,12 L72,14 L76,14 L76,16 L80,16 L80,24 L78,24 L78,26 L80,26 L80,34 L78,34 L78,40 L76,40 L76,42 L78,42 L78,50 L76,50 L76,66 L70,66 L70,64 L68,64 L68,36 L64,34 L64,32 L58,32 L58,30 L52,30 L50,27 L47,28 L46,32 L48,32 L48,38 L44,38 L44,40 L36,40 L36,36 L32,36 L32,34 L30,34 L30,28 L32,28 L30,22 L28,22 L28,34 L26,34 L26,36 L24,36 L24,40 L4,40 L4,36 L0,36 L0,32 L-4,32 L-4,16 L-12,16 L-12,8 L-6,8 L-6,4 L-4,4 L-4,2 L0,2 Z " fill="#577E9C" transform="translate(24,4)"/>
<path d="M0,0 L7,0 L11,2 L11,0 L20,0 L20,4 L25,4 L23,8 L25,7 L33,7 L39,9 L36,10 L38,13 L38,19 L40,19 L40,22 L44,23 L45,34 L47,37 L47,43 L44,43 L44,55 L39,57 L39,30 L35,29 L34,26 L28,26 L28,24 L22,24 L20,21 L17,22 L16,26 L18,26 L18,32 L14,32 L14,34 L6,34 L6,29 L3,28 L4,26 L1,15 L-1,14 L-1,11 L1,10 L0,6 L-2,5 L-2,3 L-4,3 L-4,1 Z " fill="#527C91" transform="translate(54,10)"/>
<path d="M0,0 L3,0 L4,6 L1,5 L1,8 L4,9 L7,21 L6,22 L8,24 L4,24 L4,22 L2,22 L2,16 L4,16 L2,10 L0,10 L0,22 L-2,22 L-2,24 L-4,24 L-4,28 L-24,28 L-24,24 L-28,24 L-28,20 L-32,20 L-32,4 L-31,4 L-31,13 L-27,12 L-26,13 L-19,13 L-18,11 L-10,9 L-9,4 L-2,4 Z " fill="#5A84A3" transform="translate(52,16)"/>
<path d="M0,0 L7,0 L11,2 L11,0 L20,0 L20,4 L22,4 L21,9 L12,8 L12,12 L14,12 L15,19 L15,26 L14,29 L17,30 L14,31 L14,34 L6,34 L6,29 L3,28 L4,26 L1,15 L-1,14 L-1,11 L1,10 L0,6 L-2,5 L-2,3 L-4,3 L-4,1 Z " fill="#5D87A0" transform="translate(54,10)"/>
<path d="M0,0 L6,0 L6,4 L8,4 L8,8 L24,8 L24,10 L28,10 L28,12 L32,12 L32,20 L30,20 L30,22 L32,22 L32,30 L30,30 L30,36 L28,36 L28,38 L30,38 L30,46 L28,46 L28,62 L22,62 L22,60 L20,60 L20,32 L21,32 L21,59 L26,57 L26,45 L29,45 L28,40 L26,36 L25,25 L22,24 L22,21 L20,21 L18,12 L11,12 L11,11 L20,11 L15,10 L5,10 L6,7 L2,6 L2,3 L5,3 L5,1 L0,1 Z " fill="#60869C" transform="translate(72,8)"/>
<path d="M0,0 L34,0 L34,2 L48,2 L45,4 L31,4 L30,3 L22,3 L9,6 L1,6 L1,10 L-2,10 L-2,13 L-11,13 L-11,15 L-4,15 L-4,16 L-12,16 L-12,8 L-6,8 L-6,4 L-4,4 L-4,2 L0,2 Z " fill="#426C8A" transform="translate(24,4)"/>
<path d="M0,0 L8,0 L10,3 L10,9 L12,9 L12,12 L16,13 L17,24 L19,29 L18,32 L15,32 L13,25 L13,16 L7,17 L6,8 L-3,8 L-3,10 L-6,10 L-6,3 L-1,1 Z " fill="#6C9CB2" transform="translate(82,20)"/>
<path d="M0,0 L4,1 L8,5 L13,6 L12,13 L8,13 L7,16 L0,16 L-5,15 L-5,5 L-3,1 Z " fill="#638EAF" transform="translate(26,14)"/>
<path d="M0,0 L6,0 L6,4 L8,4 L8,8 L24,8 L24,10 L28,10 L28,12 L32,12 L32,20 L30,20 L30,22 L32,22 L32,30 L30,30 L30,36 L28,35 L27,26 L22,20 L22,18 L28,18 L28,15 L25,15 L25,13 L15,10 L5,10 L6,7 L2,6 L2,3 L5,3 L5,1 L0,1 Z " fill="#355F71" transform="translate(72,8)"/>
<path d="M0,0 L11,0 L17,2 L19,6 L17,7 L18,15 L13,17 L14,10 L9,10 L4,5 L-2,5 L-3,9 L-5,10 L-12,9 L-12,7 L-3,7 L-3,4 L0,4 Z " fill="#577A9B" transform="translate(25,10)"/>
<path d="M0,0 L2,0 L2,4 L0,4 L0,9 L-8,9 L-8,11 L-3,11 L-3,18 L-13,19 L-15,18 L-15,16 L-18,16 L-17,12 L-10,9 L-9,4 L-2,4 Z " fill="#496C85" transform="translate(52,16)"/>
<path d="M0,0 L1,0 L1,15 L5,15 L5,19 L12,18 L18,20 L18,22 L26,22 L26,17 L29,16 L31,17 L31,6 L32,6 L32,18 L30,18 L30,20 L28,20 L28,24 L8,24 L8,20 L4,20 L4,16 L0,16 Z " fill="#496D7F" transform="translate(20,20)"/>
<path d="M0,0 L3,0 L5,16 L8,16 L9,13 L9,17 L6,17 L6,29 L1,31 L0,4 L-1,2 Z " fill="#6288A2" transform="translate(92,36)"/>
<path d="M0,0 L4,1 L7,2 L6,7 L7,8 L7,20 L2,20 L1,18 L-2,16 L0,11 L2,11 L0,5 Z " fill="#6793AE" transform="translate(59,22)"/>
<path d="M0,0 L34,0 L34,2 L48,2 L45,4 L31,4 L30,3 L-4,3 L0,2 Z " fill="#2E5164" transform="translate(24,4)"/>
<path d="M0,0 L1,0 L1,27 L6,25 L6,13 L9,13 L9,6 L10,6 L10,14 L8,14 L8,30 L2,30 L2,28 L0,28 Z " fill="#456373" transform="translate(92,40)"/>
<path d="M0,0 L12,0 L15,2 L13,3 L14,11 L9,13 L10,6 L5,6 L0,1 Z " fill="#547E9A" transform="translate(29,14)"/>
<path d="M0,0 L6,0 L6,4 L8,4 L8,10 L6,10 L6,12 L0,12 Z " fill="#5A808A" transform="translate(12,40)"/>
<path d="M0,0 L2,4 L1,6 L-1,5 L-1,8 L2,9 L5,21 L4,22 L6,24 L2,24 L2,22 L0,22 L0,16 L2,16 L0,10 L-3,10 L-3,17 L-5,17 L-5,11 L-10,11 L-10,9 L-2,9 L-2,4 L0,4 Z " fill="#537891" transform="translate(54,16)"/>
<path d="M0,0 L7,0 L7,7 L7,10 L4,12 L3,16 L5,16 L5,22 L1,21 L3,20 L1,19 L1,4 Z " fill="#477082" transform="translate(67,20)"/>
<path d="M0,0 L3,1 L4,12 L6,17 L5,20 L2,20 L0,13 L0,4 L-6,5 L-5,2 L0,3 Z " fill="#6893AA" transform="translate(95,32)"/>
<path d="M0,0 L2,3 L5,5 L4,9 L-5,9 L-5,11 L2,11 L2,12 L-6,12 L-6,4 L0,4 Z " fill="#456A7C" transform="translate(18,8)"/>
<path d="M0,0 L5,0 L8,3 L8,7 L5,9 L2,9 L2,7 L-1,6 Z " fill="#6E9BBD" transform="translate(26,18)"/>
<path d="M0,0 L2,0 L6,14 L6,17 L4,17 L3,20 L0,9 L-2,8 L-2,5 L0,4 Z " fill="#628BA6" transform="translate(55,16)"/>
<path d="M0,0 L6,0 L7,5 L9,5 L8,18 L6,17 L5,8 L0,2 Z " fill="#4B7487" transform="translate(94,26)"/>
<path d="M0,0 L4,1 L7,2 L7,0 L16,0 L16,4 L18,4 L17,9 L15,8 L15,5 L10,4 L4,4 Z " fill="#588097" transform="translate(58,10)"/>
<path d="M0,0 L4,0 L4,4 L8,4 L7,8 L7,5 L3,6 L2,8 L2,16 L-2,14 L0,14 L0,8 L-2,8 L-2,4 L-8,4 L-8,3 L3,3 L3,1 Z " fill="#0C1114" transform="translate(20,36)"/>
<path d="M0,0 L1,0 L1,12 L-1,12 L-1,14 L-3,14 L-3,18 L-23,18 L-22,14 L-22,17 L-4,17 L-5,11 L-2,10 L0,11 Z " fill="#3C5A68" transform="translate(51,26)"/>
<path d="M0,0 L8,0 L8,1 L1,2 L-1,6 L6,7 L6,8 L-3,8 L-3,10 L-6,10 L-6,3 L-1,1 Z " fill="#6797B0" transform="translate(82,20)"/>
<path d="M0,0 L6,1 L6,4 L8,4 L8,7 L11,6 L11,10 L7,8 L7,6 L1,6 L1,4 L-5,4 L-5,3 L0,3 Z " fill="#4D7487" transform="translate(81,30)"/>
<path d="M0,0 L2,2 L1,9 L4,10 L1,11 L1,14 L-7,14 L-6,10 L-6,12 L-1,12 L-1,1 Z " fill="#5A7E91" transform="translate(67,30)"/>
<path d="M0,0 L1,4 L4,4 L5,1 L5,5 L2,5 L2,17 L-1,18 L-1,5 Z " fill="#60849F" transform="translate(96,48)"/>
<path d="M0,0 L6,0 L6,4 L8,4 L8,8 L24,8 L23,10 L5,10 L6,7 L2,6 L2,3 L5,3 L5,1 L0,1 Z " fill="#365460" transform="translate(72,8)"/>
<path d="M0,0 L6,0 L7,1 L24,1 L24,3 L29,3 L29,5 L3,3 L0,2 Z " fill="#467394" transform="translate(48,6)"/>
<path d="M0,0 L2,0 L4,3 L4,6 L2,6 L2,12 L4,12 L3,14 L-1,15 L-4,18 L-4,14 L-2,14 L-2,12 L0,12 Z " fill="#0D1317" transform="translate(52,26)"/>
<path d="M0,0 L14,0 L15,5 L6,4 L6,2 L1,2 Z " fill="#557F98" transform="translate(32,38)"/>
<path d="M0,0 L2,0 L2,4 L0,4 L0,8 L-8,8 L-8,4 L-2,4 Z " fill="#0E1418" transform="translate(52,16)"/>
<path d="M0,0 L3,1 L1,4 L-1,4 L-1,7 L10,7 L10,8 L0,9 L-2,8 L-2,6 L-5,6 L-4,2 Z " fill="#4F7592" transform="translate(39,26)"/>
<path d="M0,0 L4,2 L4,4 L10,4 L10,5 L1,6 L1,12 L0,12 L0,6 L-2,6 L-1,1 Z " fill="#0D1316" transform="translate(72,30)"/>
<path d="M0,0 L7,0 L8,5 L1,5 L-1,4 Z " fill="#6EA3BD" transform="translate(82,22)"/>
<path d="M0,0 L2,1 L3,10 L2,14 L4,14 L4,20 L0,19 L2,18 L0,17 Z " fill="#52768B" transform="translate(68,22)"/>
<path d="M0,0 L8,0 L15,1 L14,4 L17,4 L17,7 L11,7 L12,3 L0,1 Z " fill="#558499" transform="translate(83,19)"/>
<path d="M0,0 L5,1 L6,5 L1,6 L1,4 L-4,3 L-4,1 Z " fill="#6896AE" transform="translate(68,13)"/>
<path d="M0,0 L3,1 L5,10 L4,11 L6,13 L2,13 L2,11 L0,11 L0,5 L2,5 Z " fill="#4D6F85" transform="translate(54,27)"/>
<path d="M0,0 L2,1 L3,31 L1,31 L0,4 L-1,2 Z " fill="#5D8598" transform="translate(92,36)"/>
<path d="M0,0 L4,1 L5,4 L0,4 L0,6 L-5,7 L-3,1 Z " fill="#638EAE" transform="translate(26,14)"/>
<path d="M0,0 L2,0 L2,2 L-3,2 L-3,6 L-10,5 L-13,3 Z " fill="#4F779A" transform="translate(46,6)"/>
<path d="M0,0 L3,1 L3,9 L2,7 L-2,7 L-2,1 Z " fill="#527A94" transform="translate(23,28)"/>
<path d="M0,0 L7,0 L9,2 L8,4 L0,4 Z " fill="#51758E" transform="translate(42,16)"/>
<path d="M0,0 L4,0 L4,8 L-1,8 Z " fill="#6D97B3" transform="translate(62,34)"/>
<path d="M0,0 L2,1 L2,3 L4,3 L4,6 L7,6 L8,13 L6,14 L4,12 L6,7 L2,6 L0,5 Z " fill="#618DA6" transform="translate(60,17)"/>
<path d="M0,0 L4,1 L8,3 L5,3 L5,7 L2,6 L-1,4 Z " fill="#4F748B" transform="translate(20,7)"/>
<path d="M0,0 L4,0 L4,4 L2,4 L2,6 L-2,5 L-2,3 L-4,3 L-4,1 Z " fill="#5B84A3" transform="translate(54,10)"/>
<path d="M0,0 L21,1 L17,2 L17,4 L13,3 L0,2 Z " fill="#507A97" transform="translate(48,8)"/>
<path d="M0,0 L6,0 L4,3 L0,3 L1,13 L-1,12 L-1,1 Z " fill="#59839B" transform="translate(76,20)"/>
<path d="M0,0 L7,1 L8,3 L7,5 L9,6 L4,5 L0,1 Z " fill="#5985A3" transform="translate(29,14)"/>
<path d="M0,0 L3,1 L4,7 L2,7 L1,10 L-1,1 Z " fill="#5E89A2" transform="translate(57,26)"/>
<path d="M0,0 L8,2 L8,6 L3,7 L1,2 Z " fill="#628EAD" transform="translate(31,18)"/>
<path d="M0,0 L2,4 L4,4 L4,7 L6,8 L-1,9 Z " fill="#56809D" transform="translate(26,30)"/>
<path d="M0,0 L4,1 L1,1 L0,5 L3,5 L3,7 L5,8 L-1,7 L-3,4 Z " fill="#547D9D" transform="translate(34,27)"/>
<path d="M0,0 L5,1 L5,11 L4,8 L2,8 Z " fill="#6291A5" transform="translate(90,21)"/>
<path d="M0,0 L7,0 L13,2 L11,3 L0,3 Z " fill="#517C92" transform="translate(80,17)"/>
<path d="M0,0 L2,1 L-1,6 L-9,5 L-9,3 L0,3 Z " fill="#567E95" transform="translate(22,14)"/>
<path d="M0,0 L3,0 L2,5 L7,5 L7,6 L1,6 L1,4 L-5,4 L-5,3 L0,3 Z " fill="#406173" transform="translate(81,30)"/>
<path d="M0,0 L2,0 L3,9 L0,10 Z " fill="#5B7D9D" transform="translate(95,56)"/>
<path d="M0,0 L6,0 L7,6 L2,6 L2,3 L5,3 L5,1 L0,1 Z " fill="#405F73" transform="translate(72,8)"/>
<path d="M0,0 L4,1 L3,6 L-1,7 Z " fill="#5A82A1" transform="translate(39,20)"/>
<path d="M0,0 L4,1 L4,6 L0,5 Z " fill="#65919F" transform="translate(15,43)"/>
<path d="M0,0 L4,0 L4,2 L2,2 L3,7 L0,7 Z " fill="#6392AB" transform="translate(76,23)"/>
<path d="M0,0 L3,0 L3,2 L8,2 L8,4 L0,3 Z " fill="#47708C" transform="translate(69,7)"/>
<path d="M0,0 L5,1 L5,4 L0,4 Z " fill="#75A4BA" transform="translate(89,29)"/>
<path d="M0,0 L6,2 L6,6 L3,5 L3,2 L0,2 Z " fill="#427489" transform="translate(97,21)"/>
<path d="M0,0 L5,0 L6,3 L0,3 Z " fill="#78A6C9" transform="translate(26,21)"/>
<path d="M0,0 L3,1 L2,5 L-2,5 L-2,3 L0,3 Z " fill="#6493AA" transform="translate(71,14)"/>
<path d="M0,0 L4,0 L3,5 L0,5 Z " fill="#678AA2" transform="translate(97,47)"/>
<path d="M0,0 L5,0 L6,3 L-2,3 L0,2 Z " fill="#60889C" transform="translate(67,11)"/>
<path d="M0,0 L4,1 L2,3 L-5,2 L-5,1 Z " fill="#4E7595" transform="translate(38,8)"/>
<path d="M0,0 L3,1 L2,5 L-2,2 Z " fill="#6187A2" transform="translate(59,36)"/>
<path d="M0,0 L4,0 L4,6 L3,3 L0,2 Z " fill="#608EA5" transform="translate(84,28)"/>
<path d="M0,0 L4,0 L5,4 L0,3 Z " fill="#407083" transform="translate(96,26)"/>
<path d="M0,0 L2,0 L2,5 L-2,6 Z " fill="#5E87A2" transform="translate(23,15)"/>
<path d="M0,0 L2,3 L5,5 L2,7 L0,5 Z " fill="#43667A" transform="translate(18,8)"/>
<path d="M0,0 L2,4 L-2,5 L-2,1 Z " fill="#5F89A5" transform="translate(23,24)"/>
<path d="M0,0 L3,0 L3,3 L0,3 L-1,6 Z " fill="#729DBE" transform="translate(26,18)"/>
<path d="M0,0 L2,0 L1,5 L-1,5 Z " fill="#668FAA" transform="translate(22,20)"/>
<path d="M0,0 L2,0 L1,5 L-2,3 Z " fill="#6390AB" transform="translate(66,26)"/>
<path d="M0,0 L5,1 L5,3 L0,3 Z " fill="#73A8C4" transform="translate(84,23)"/>
<path d="M0,0 L3,1 L3,4 L0,4 Z " fill="#080C0E" transform="translate(53,28)"/>
<path d="M0,0 L3,1 L2,6 L0,2 Z " fill="#47677A" transform="translate(68,30)"/>
<path d="M0,0 L3,2 L1,2 L0,5 L-1,1 Z " fill="#49687C" transform="translate(47,38)"/>
<path d="M0,0 L2,0 L2,3 L-1,2 Z " fill="#527B94" transform="translate(101,35)"/>
</svg>
