<?xml version="1.0" encoding="UTF-8"?>
<!-- Generator: visioncortex VTracer 0.6.4 -->
<svg version="1.1" xmlns="http://www.w3.org/2000/svg" width="164" height="162">
<path d="M0,0 L164,0 L164,162 L0,162 Z " fill="#010000" transform="translate(0,0)"/>
<path d="M0,0 L8,0 L8,4 L12,4 L12,8 L16,8 L16,16 L14,16 L14,18 L12,18 L12,20 L16,20 L16,28 L18,28 L18,26 L20,26 L20,20 L22,20 L22,16 L26,16 L26,12 L32,12 L32,10 L40,10 L40,12 L44,12 L44,14 L48,14 L48,18 L50,18 L50,24 L48,24 L48,28 L50,28 L50,34 L48,34 L48,42 L28,42 L28,40 L24,40 L24,42 L18,42 L18,44 L12,44 L12,46 L4,46 L4,48 L0,48 L0,50 L-12,50 L-12,52 L-18,52 L-18,50 L-22,50 L-22,48 L-32,48 L-32,44 L-36,44 L-36,36 L-32,36 L-32,32 L-28,32 L-28,30 L-26,30 L-26,28 L-22,28 L-22,26 L-18,26 L-18,24 L-16,24 L-16,22 L-10,22 L-10,20 L-6,20 L-6,16 L-4,16 L-4,2 L0,2 Z " fill="#EA6E9A" transform="translate(80,74)"/>
<path d="M0,0 L6,0 L6,6 L8,6 L8,4 L30,4 L30,6 L42,6 L42,4 L64,4 L64,10 L62,10 L62,12 L60,12 L60,14 L56,14 L56,16 L52,16 L52,20 L48,20 L48,24 L46,24 L46,26 L44,26 L44,34 L36,34 L36,32 L28,32 L28,26 L24,26 L24,24 L20,24 L20,22 L12,22 L12,24 L10,24 L10,36 L8,36 L8,38 L12,40 L12,48 L6,48 L6,50 L0,50 L0,48 L-2,48 L-2,44 L-4,44 L-4,32 L0,32 L0,28 L-2,28 L-2,16 L0,16 L0,8 L4,8 L4,6 L0,6 Z " fill="#C44E6A" transform="translate(40,30)"/>
<path d="M0,0 L22,0 L22,6 L20,6 L20,8 L18,8 L18,10 L14,10 L14,12 L10,12 L10,16 L6,16 L6,20 L1,21 L1,29 L-5,29 L-5,27 L-1,27 L-1,17 L0,13 L-2,12 L-1,10 L-8,10 L-8,16 L-11,16 L-12,19 L-14,19 L-14,21 L-17,21 L-17,19 L-15,19 L-15,17 L-21,16 L-22,17 L-30,17 L-31,19 L-36,19 L-35,14 L-33,11 L-35,11 L-34,6 L-36,5 L-36,3 L-33,3 L-33,1 L-13,1 L-12,3 L0,3 Z " fill="#D15475" transform="translate(82,34)"/>
<path d="M0,0 L4,1 L1,1 L1,3 L3,3 L2,7 L1,8 L-4,8 L-6,12 L-8,12 L-10,22 L-4,23 L5,23 L9,21 L28,20 L33,21 L33,19 L28,19 L28,18 L41,18 L39,19 L39,21 L57,21 L57,14 L58,14 L58,22 L38,22 L38,20 L34,20 L34,22 L28,22 L28,24 L22,24 L22,26 L14,26 L14,28 L10,28 L10,30 L-2,30 L-2,32 L-8,32 L-8,30 L-12,30 L-12,28 L-22,28 L-22,24 L-26,24 L-26,16 L-22,16 L-22,12 L-18,12 L-18,10 L-16,10 L-16,8 L-12,8 L-12,6 L-8,6 L-8,4 L-6,4 L-6,2 L0,2 Z " fill="#D95F7E" transform="translate(70,94)"/>
<path d="M0,0 L2,0 L2,4 L4,4 L3,13 L5,13 L5,19 L2,19 L2,26 L-10,26 L-13,24 L-15,19 L-21,18 L-21,16 L-19,15 L-16,4 L-8,3 L-5,5 L-5,3 L0,3 Z " fill="#DC73A4" transform="translate(125,89)"/>
<path d="M0,0 L8,0 L8,4 L12,4 L12,8 L16,8 L16,16 L14,16 L14,18 L12,18 L12,20 L16,20 L16,28 L15,28 L15,21 L13,21 L13,28 L12,25 L9,24 L9,22 L-3,24 L-7,26 L-7,23 L-9,23 L-9,21 L-6,21 L-6,16 L-4,16 L-4,2 L0,2 Z " fill="#D2648B" transform="translate(80,74)"/>
<path d="M0,0 L8,0 L8,2 L12,2 L12,4 L16,4 L16,8 L18,8 L18,14 L17,14 L17,9 L15,9 L14,13 L14,7 L15,5 L13,5 L13,8 L8,8 L8,10 L0,9 L-3,9 L-5,20 L-8,21 L-8,23 L-2,23 L0,27 L6,28 L3,31 L-3,31 L-4,29 L-9,29 L-9,31 L-18,30 L-18,26 L-14,26 L-14,22 L-16,21 L-14,21 L-14,19 L-16,18 L-14,18 L-14,16 L-12,16 L-12,10 L-10,10 L-10,6 L-6,6 L-6,2 L0,2 Z " fill="#D26994" transform="translate(112,84)"/>
<path d="M0,0 L20,0 L20,2 L5,2 L5,9 L25,9 L25,15 L22,15 L21,18 L19,18 L19,20 L16,20 L16,18 L18,18 L18,16 L12,15 L11,16 L3,16 L2,18 L-3,18 L-2,13 L0,10 L-2,10 L-1,5 L-3,4 L-3,2 L0,2 Z " fill="#D15371" transform="translate(49,35)"/>
<path d="M0,0 L2,0 L2,4 L5,4 L6,10 L10,11 L11,12 L11,20 L5,20 L5,22 L-1,22 L-1,20 L-3,20 L-3,16 L-5,16 L-5,4 L0,4 Z " fill="#BE546C" transform="translate(41,58)"/>
<path d="M0,0 L8,0 L8,2 L12,2 L12,4 L16,4 L16,8 L18,8 L18,14 L17,14 L17,9 L15,9 L14,13 L14,7 L15,5 L13,5 L13,8 L8,8 L8,10 L0,9 L-3,9 L-5,20 L-6,20 L-6,9 L-9,9 L-9,7 L-6,7 L-6,2 L0,2 Z " fill="#D36B9B" transform="translate(112,84)"/>
<path d="M0,0 L2,0 L3,7 L5,8 L5,15 L1,15 L1,19 L-3,20 L-6,18 L-7,13 L-10,12 L-7,11 L-7,2 L-10,1 L-4,1 L-1,4 Z " fill="#D66997" transform="translate(93,95)"/>
<path d="M0,0 L5,1 L6,4 L3,4 L2,6 L7,6 L7,8 L5,8 L6,14 L8,14 L7,10 L8,9 L10,5 L10,9 L12,9 L12,3 L9,2 L13,2 L13,10 L11,10 L11,12 L9,12 L9,14 L13,14 L13,22 L12,22 L12,15 L10,15 L10,22 L9,19 L6,18 L6,16 L-6,18 L-10,20 L-7,16 L-1,16 L-1,1 Z " fill="#D66793" transform="translate(83,80)"/>
<path d="M0,0 L4,1 L1,1 L1,7 L14,7 L17,9 L24,11 L24,13 L35,13 L35,11 L33,10 L39,11 L39,9 L36,8 L40,7 L40,9 L48,9 L48,10 L40,10 L40,12 L36,12 L36,14 L24,14 L24,16 L18,16 L18,14 L14,14 L14,12 L4,12 L4,8 L0,8 Z " fill="#B24963" transform="translate(44,110)"/>
<path d="M0,0 L20,0 L20,4 L11,7 L12,10 L9,11 L8,14 L6,14 L6,10 L3,10 L3,4 L6,3 L0,2 Z " fill="#D15679" transform="translate(83,35)"/>
<path d="M0,0 L1,0 L1,8 L3,8 L3,0 L4,4 L6,3 L16,3 L16,4 L10,4 L10,8 L6,8 L6,12 L4,12 L4,18 L2,18 L2,20 L0,20 L0,12 L-4,12 L-4,10 L-2,10 L-2,8 L0,8 Z " fill="#1B0D13" transform="translate(96,82)"/>
<path d="M0,0 L1,2 L-2,5 L-5,8 L-3,8 L-3,11 L-7,10 L-6,15 L4,16 L3,18 L-6,18 L-12,16 L-12,10 L-10,6 L-6,2 Z " fill="#E56687" transform="translate(72,100)"/>
<path d="M0,0 L3,1 L-1,11 L-1,14 L4,15 L6,20 L0,20 L-2,16 L-8,15 L-8,13 L-6,12 L-3,1 Z " fill="#D66C9A" transform="translate(112,92)"/>
<path d="M0,0 L5,1 L4,9 L-4,9 L-4,13 L-1,15 L-10,14 L-10,8 L-7,7 L-6,4 L-4,4 L-3,6 L-1,6 L-2,2 L0,2 Z " fill="#D45C7B" transform="translate(55,103)"/>
<path d="M0,0 L2,0 L0,10 L6,10 L13,7 L13,4 L16,4 L16,8 L20,10 L20,11 L9,12 L6,13 L-4,11 L-5,6 L-1,7 L-1,4 L-3,4 L-2,1 Z " fill="#E96A8F" transform="translate(70,104)"/>
<path d="M0,0 L8,0 L8,2 L12,2 L12,4 L16,4 L16,8 L18,8 L18,14 L17,14 L17,9 L15,9 L14,13 L14,7 L15,5 L13,5 L13,8 L8,8 L8,10 L4,8 L4,6 L11,5 L11,3 L5,4 L7,3 L7,1 L1,1 L1,3 L3,3 L3,5 L-1,8 L-3,7 L0,3 L-5,3 L-6,6 L-6,2 L0,2 Z " fill="#B7608A" transform="translate(112,84)"/>
<path d="M0,0 L14,0 L14,6 L0,6 Z " fill="#A0364E" transform="translate(58,128)"/>
<path d="M0,0 L6,0 L6,1 L0,3 L-1,4 L-2,13 L4,15 L1,17 L-5,18 L-7,17 L-7,11 L-4,3 Z " fill="#EC6D94" transform="translate(77,97)"/>
<path d="M0,0 L4,1 L1,1 L1,3 L3,3 L3,5 L-5,8 L-11,7 L-11,9 L-9,10 L-15,9 L-15,11 L-17,11 L-16,15 L-19,16 L-19,13 L-21,13 L-22,16 L-22,12 L-18,12 L-18,10 L-16,10 L-16,8 L-12,8 L-12,6 L-8,6 L-8,4 L-6,4 L-6,2 L0,2 Z " fill="#B9516D" transform="translate(70,94)"/>
<path d="M0,0 L2,0 L2,4 L4,4 L3,13 L5,13 L5,19 L1,19 L2,9 L0,9 L0,14 L-3,13 L-3,3 L0,3 Z " fill="#D474A7" transform="translate(125,89)"/>
<path d="M0,0 L5,1 L6,6 L3,15 L7,14 L6,16 L10,18 L4,18 L4,16 L2,16 L2,12 L0,12 Z " fill="#BB546C" transform="translate(36,62)"/>
<path d="M0,0 L6,0 L6,6 L2,6 L2,10 L-4,10 L-4,2 L0,2 Z " fill="#882E43" transform="translate(44,132)"/>
<path d="M0,0 L6,0 L7,2 L7,18 L4,17 L3,12 L0,11 L3,10 L3,1 Z " fill="#DD6C99" transform="translate(83,96)"/>
<path d="M0,0 L1,0 L1,6 L0,7 L-1,15 L2,15 L2,13 L6,13 L6,24 L4,24 L3,16 L-4,16 L-4,5 L0,5 Z " fill="#D1516E" transform="translate(43,41)"/>
<path d="M0,0 L8,0 L8,4 L12,4 L11,8 L11,5 L3,5 L0,6 L-1,3 L-3,3 L-2,19 L-3,17 L-5,17 L-6,20 L-6,16 L-4,16 L-4,2 L0,2 Z " fill="#AC516E" transform="translate(80,74)"/>
<path d="M0,0 L1,0 L1,8 L-19,8 L-19,6 L-23,6 L-23,8 L-29,8 L-29,10 L-35,10 L-33,9 L-33,7 L-35,6 L-24,7 L-24,5 L-29,5 L-29,4 L-16,4 L-18,5 L-18,7 L0,7 Z " fill="#A35270" transform="translate(127,108)"/>
<path d="M0,0 L2,0 L3,3 L6,4 L6,10 L4,10 L4,12 L2,13 L2,15 L0,15 L-1,9 L1,9 L1,7 L-4,7 L-3,4 L-1,4 L-1,2 L-3,1 Z " fill="#D96B98" transform="translate(89,79)"/>
<path d="M0,0 L15,0 L15,2 L13,2 L13,4 L5,4 L5,2 L1,4 L-9,4 L-9,3 Z " fill="#DA6488" transform="translate(79,115)"/>
<path d="M0,0 L22,0 L22,6 L20,6 L20,8 L18,8 L18,10 L14,10 L14,12 L10,11 L13,11 L13,9 L11,8 L13,6 L21,5 L21,1 L0,1 Z " fill="#A94F69" transform="translate(82,34)"/>
<path d="M0,0 L24,1 L24,3 L20,3 L20,5 L9,5 L9,3 L0,1 Z " fill="#D45B7C" transform="translate(59,118)"/>
<path d="M0,0 L1,0 L1,11 L8,11 L9,19 L11,19 L11,8 L12,8 L12,20 L10,20 L9,22 L9,20 L6,19 L8,19 L8,16 L5,16 L5,12 L3,12 L2,16 L2,12 L0,12 Z " fill="#B0475F" transform="translate(38,46)"/>
<path d="M0,0 L2,0 L2,2 L11,2 L12,4 L5,5 L5,7 L-4,6 L-4,2 L0,2 Z " fill="#D3668E" transform="translate(98,108)"/>
<path d="M0,0 L4,0 L4,8 L2,8 L2,10 L0,10 L0,12 L4,12 L4,20 L3,20 L3,13 L1,13 L1,20 L0,17 L-2,17 L-2,8 L-1,7 L1,3 L1,7 L3,7 L3,1 Z " fill="#AE587D" transform="translate(92,82)"/>
<path d="M0,0 L3,1 L1,6 L0,15 L-5,14 L-4,8 Z " fill="#DC70A2" transform="translate(115,92)"/>
<path d="M0,0 L4,1 L1,1 L1,7 L14,7 L17,10 L14,11 L5,11 L5,8 L0,8 Z " fill="#C2516D" transform="translate(44,110)"/>
<path d="M0,0 L6,0 L5,10 L1,9 L1,16 L0,16 L0,8 L4,8 L4,6 L0,6 Z " fill="#A63C55" transform="translate(40,30)"/>
<path d="M0,0 L2,0 L2,17 L0,17 L0,10 L-2,10 L-3,14 L-3,4 L0,5 Z " fill="#D77AA8" transform="translate(125,98)"/>
<path d="M0,0 L1,4 L3,3 L13,3 L13,4 L7,4 L7,8 L2,8 L2,11 L0,11 Z " fill="#0E070A" transform="translate(99,82)"/>
<path d="M0,0 L3,3 L5,3 L4,7 L1,8 L1,15 L-5,15 L-5,13 L-1,13 L-1,3 Z " fill="#D45877" transform="translate(82,48)"/>
<path d="M0,0 L20,0 L20,4 L18,4 L18,2 L0,2 Z " fill="#D66484" transform="translate(83,35)"/>
<path d="M0,0 L1,2 L7,3 L7,5 L5,5 L5,7 L8,8 L4,8 L4,6 L0,6 L0,4 L-8,4 L-9,6 L-8,2 L0,3 Z " fill="#B84963" transform="translate(60,48)"/>
<path d="M0,0 L4,0 L4,2 L14,3 L14,4 L0,4 L0,10 L-1,10 L-1,2 Z " fill="#1C0A0E" transform="translate(58,124)"/>
<path d="M0,0 L2,0 L2,7 L-8,7 L-11,5 L0,4 Z " fill="#D5709A" transform="translate(123,108)"/>
<path d="M0,0 L1,3 L3,3 L4,0 L4,14 L3,20 L2,20 L2,14 L0,14 L0,10 L2,10 L2,4 L0,4 Z " fill="#1C1017" transform="translate(128,88)"/>
<path d="M0,0 L4,1 L1,1 L1,3 L4,3 L2,10 L1,10 L1,5 L-1,5 L0,12 L-3,11 L-2,14 L-6,12 L-4,12 L-4,10 L-2,10 L-2,4 L0,4 Z " fill="#B25980" transform="translate(102,90)"/>
<path d="M0,0 L2,2 L2,9 L-4,8 L-4,2 L-2,2 L-1,4 Z " fill="#DF76A9" transform="translate(120,98)"/>
<path d="M0,0 L8,0 L8,1 L2,2 L0,7 L0,15 L-4,16 L-4,14 L-2,14 L-2,2 L0,2 Z " fill="#210D12" transform="translate(52,52)"/>
<path d="M0,0 L2,0 L2,6 L-3,6 L-3,8 L-8,8 L-5,2 L-3,2 L-3,4 L0,4 Z " fill="#D05E78" transform="translate(49,71)"/>
<path d="M0,0 L6,0 L6,6 L0,6 Z " fill="#7E2B3F" transform="translate(46,22)"/>
<path d="M0,0 L4,1 L1,1 L1,3 L3,4 L-3,3 L-3,5 L-5,5 L-4,9 L-7,10 L-7,7 L-9,7 L-10,10 L-10,6 L-6,6 L-6,4 L-4,4 L-4,2 L0,2 Z " fill="#A6485F" transform="translate(58,100)"/>
<path d="M0,0 L11,0 L11,2 L4,4 L0,3 Z " fill="#CC5C7D" transform="translate(90,37)"/>
<path d="M0,0 L6,0 L6,8 L3,7 L2,2 L-1,1 Z " fill="#E26A96" transform="translate(84,106)"/>
<path d="M0,0 L3,1 L-2,14 L-3,14 L-3,8 L-2,1 Z " fill="#D86D9F" transform="translate(112,92)"/>
<path d="M0,0 L1,4 L3,4 L3,10 L-1,10 Z " fill="#BC6F99" transform="translate(127,98)"/>
<path d="M0,0 L5,0 L5,8 L4,8 L4,1 L2,1 L2,8 L1,5 L-1,5 Z " fill="#B65B82" transform="translate(91,94)"/>
<path d="M0,0 L4,1 L3,5 L0,6 L0,9 L-2,9 Z " fill="#D15D78" transform="translate(41,68)"/>
<path d="M0,0 L9,0 L9,3 L1,3 Z " fill="#D25F81" transform="translate(83,116)"/>
<path d="M0,0 L3,0 L3,4 L5,4 L6,1 L6,5 L2,5 L1,9 Z " fill="#B14664" transform="translate(86,45)"/>
<path d="M0,0 L5,1 L6,7 L4,7 L3,9 L1,4 L-1,2 Z " fill="#D05372" transform="translate(81,44)"/>
<path d="M0,0 L6,0 L7,5 L3,5 L3,3 L0,3 Z " fill="#D4597E" transform="translate(88,40)"/>
<path d="M0,0 L2,0 L2,4 L8,5 L12,7 L4,7 L4,5 L1,5 L1,2 L-1,1 Z " fill="#E1607F" transform="translate(58,112)"/>
<path d="M0,0 L2,0 L2,5 L-2,5 L-2,8 L-4,8 L-4,3 L-1,3 Z " fill="#D178A8" transform="translate(127,93)"/>
<path d="M0,0 L2,0 L2,5 L-2,8 L-2,6 L-4,6 L-4,4 L-1,3 Z " fill="#D46185" transform="translate(75,91)"/>
<path d="M0,0 L4,1 L0,3 L-2,9 L-3,5 L-2,2 L0,2 Z " fill="#DA6380" transform="translate(62,103)"/>
<path d="M0,0 L6,0 L6,1 L0,3 L-2,7 L-5,7 L-4,3 Z " fill="#E66A93" transform="translate(77,97)"/>
<path d="M0,0 L2,0 L2,4 L5,4 L4,7 L0,7 L-1,4 Z " fill="#D05773" transform="translate(41,58)"/>
<path d="M0,0 L6,0 L6,4 L0,4 L2,3 L2,1 Z " fill="#BE5777" transform="translate(92,114)"/>
<path d="M0,0 L2,0 L2,3 L7,3 L7,5 L0,5 Z " fill="#D85977" transform="translate(69,56)"/>
<path d="M0,0 L2,0 L2,6 L-3,6 L-3,4 L0,4 Z " fill="#DA617D" transform="translate(49,71)"/>
<path d="M0,0 L3,1 L5,3 L-4,3 L-3,1 Z " fill="#E4688E" transform="translate(85,112)"/>
<path d="M0,0 L5,1 L3,5 L0,5 Z " fill="#D15C7A" transform="translate(55,103)"/>
<path d="M0,0 L2,0 L2,4 L4,4 L4,6 L0,6 Z " fill="#BB415D" transform="translate(41,135)"/>
<path d="M0,0 L5,1 L5,3 L-2,3 Z " fill="#D85D7B" transform="translate(53,114)"/>
<path d="M0,0 L4,0 L4,4 L0,4 Z " fill="#B93E5A" transform="translate(47,23)"/>
<path d="M0,0 L5,0 L6,3 L3,4 L3,1 L1,1 L0,4 Z " fill="#B44D68" transform="translate(48,106)"/>
<path d="M0,0 L4,0 L4,4 L2,4 L2,2 L0,2 Z " fill="#BD3F5B" transform="translate(45,133)"/>
<path d="M0,0 L1,4 L-4,3 Z " fill="#CD6592" transform="translate(100,103)"/>
<path d="M0,0 L4,1 L2,3 L-2,2 Z " fill="#CB5A75" transform="translate(63,99)"/>
<path d="M0,0 L3,2 L1,6 Z " fill="#CB6591" transform="translate(90,81)"/>
<path d="M0,0 L4,0 L4,2 L0,3 Z " fill="#DC6A90" transform="translate(90,112)"/>
<path d="M0,0 L3,4 L0,5 L-1,2 Z " fill="#C95E7E" transform="translate(80,75)"/>
<path d="M0,0 L3,0 L3,3 L0,3 Z " fill="#D55578" transform="translate(54,38)"/>
<path d="M0,0 L2,4 L-1,4 Z " fill="#C95872" transform="translate(47,71)"/>
<path d="M0,0 L2,3 L-1,4 Z " fill="#A93B54" transform="translate(44,133)"/>
</svg>
