<?xml version="1.0" encoding="UTF-8"?>
<!-- Generator: visioncortex VTracer 0.6.4 -->
<svg version="1.1" xmlns="http://www.w3.org/2000/svg" width="132" height="122">
<path d="M0,0 L132,0 L132,122 L0,122 Z " fill="#000001" transform="translate(0,0)"/>
<path d="M0,0 L8,0 L8,2 L12,2 L14,5 L20,6 L20,10 L22,10 L22,12 L26,12 L28,15 L32,16 L32,18 L34,18 L34,22 L36,22 L36,32 L32,36 L14,36 L14,38 L-2,38 L-6,34 L-6,8 L-4,8 L-3,3 L0,2 Z " fill="#A591F0" transform="translate(70,48)"/>
<path d="M0,0 L6,0 L6,4 L16,4 L16,8 L20,8 L20,14 L18,14 L18,20 L24,20 L24,22 L26,22 L26,28 L24,28 L24,32 L14,32 L10,28 L10,30 L6,30 L6,32 L2,32 L2,34 L-6,34 L-6,36 L-12,36 L-12,24 L-10,24 L-10,22 L-8,22 L-8,18 L-6,18 L-6,12 L-4,12 L-4,8 L-2,8 L-2,4 L0,4 Z " fill="#8877DD" transform="translate(32,52)"/>
<path d="M0,0 L12,0 L12,8 L16,8 L16,12 L22,12 L22,20 L14,20 L14,24 L10,24 L10,26 L0,26 L0,24 L-2,24 L-2,12 L0,12 L0,10 L-2,10 L-2,2 L0,2 Z " fill="#9878E4" transform="translate(50,20)"/>
<path d="M0,0 L8,0 L8,2 L12,2 L11,4 L6,4 L7,1 L1,1 L2,5 L-1,7 L-1,5 L-3,5 L-2,11 L-3,9 L-5,9 L-5,33 L-3,33 L-3,26 L0,30 L1,34 L3,35 L3,36 L10,36 L10,34 L12,34 L12,32 L16,29 L21,30 L28,32 L30,28 L30,25 L22,23 L21,16 L18,13 L19,7 L14,7 L14,6 L20,6 L20,10 L22,10 L22,12 L26,12 L28,15 L32,16 L32,18 L34,18 L34,22 L36,22 L36,32 L32,36 L14,36 L14,38 L-2,38 L-6,34 L-6,8 L-4,8 L-3,3 L0,2 Z " fill="#998DE5" transform="translate(70,48)"/>
<path d="M0,0 L3,1 L6,0 L16,0 L16,8 L10,11 L9,12 L7,23 L2,25 L-5,25 L-5,27 L-8,27 L-9,29 L-10,27 L-10,20 L-8,20 L-6,14 L-4,13 L-4,8 L-2,8 L-1,5 L1,5 Z " fill="#9380EB" transform="translate(31,57)"/>
<path d="M0,0 L7,1 L8,5 L16,6 L17,12 L16,16 L9,19 L2,19 L-1,17 L-2,12 L-2,5 Z " fill="#B39EFD" transform="translate(72,58)"/>
<path d="M0,0 L6,0 L6,2 L12,3 L13,6 L18,6 L17,11 L9,10 L9,8 L6,8 L5,6 L1,5 L0,10 L-2,10 L-1,23 L1,28 L3,29 L3,31 L11,31 L11,33 L9,33 L9,35 L2,36 L-3,28 L-4,32 L-6,32 L-6,8 L-4,7 L-4,4 L0,4 Z " fill="#9E8AEA" transform="translate(71,49)"/>
<path d="M0,0 L1,0 L1,6 L7,6 L7,8 L9,8 L9,14 L7,14 L7,18 L-3,18 L-7,14 L-7,16 L-11,15 L-8,15 L-8,13 L-10,12 L-7,12 L-7,4 L0,5 Z " fill="#7A6AC7" transform="translate(49,66)"/>
<path d="M0,0 L6,0 L6,4 L8,4 L8,6 L12,6 L14,9 L18,10 L18,12 L20,12 L20,16 L22,16 L22,26 L18,30 L0,30 L0,29 L16,28 L16,25 L18,25 L19,21 L21,22 L21,18 L18,19 L14,13 L12,11 L6,9 L4,7 L5,1 L0,1 Z " fill="#766ABB" transform="translate(84,54)"/>
<path d="M0,0 L6,0 L6,4 L3,4 L2,13 L1,15 L-1,15 L-1,19 L-8,19 L-7,14 L-4,13 L-3,1 Z " fill="#9D8EF8" transform="translate(34,63)"/>
<path d="M0,0 L8,0 L8,2 L12,2 L11,4 L6,4 L7,1 L1,1 L2,5 L-1,7 L-1,5 L-3,5 L-2,11 L-3,9 L-5,9 L-5,33 L-3,33 L-3,26 L0,30 L1,34 L3,35 L3,36 L14,37 L14,38 L-2,38 L-6,34 L-6,8 L-4,8 L-3,3 L0,2 Z " fill="#7362AC" transform="translate(70,48)"/>
<path d="M0,0 L11,0 L11,7 L9,7 L9,2 L1,2 L2,3 L8,3 L8,11 L6,20 L3,20 L3,8 L-1,8 L-1,1 Z " fill="#987ADE" transform="translate(50,21)"/>
<path d="M0,0 L6,0 L6,2 L12,3 L13,6 L18,6 L17,11 L9,10 L9,8 L6,8 L5,6 L1,5 L1,9 L-3,9 L-4,4 L0,4 Z " fill="#9C87E2" transform="translate(71,49)"/>
<path d="M0,0 L2,0 L3,5 L1,7 L-1,19 L-4,21 L-5,27 L-8,27 L-9,29 L-10,27 L-10,20 L-8,20 L-6,14 L-4,13 L-4,8 L-2,8 L-1,5 L1,5 Z " fill="#9082E6" transform="translate(31,57)"/>
<path d="M0,0 L1,0 L1,7 L5,6 L5,9 L3,8 L4,10 L4,20 L12,20 L15,21 L16,18 L16,22 L12,22 L12,24 L2,24 L2,22 L0,22 L0,10 L2,10 L2,8 L0,8 Z " fill="#755DB3" transform="translate(48,22)"/>
<path d="M0,0 L5,1 L5,3 L8,3 L8,5 L15,5 L20,10 L20,17 L26,17 L26,18 L18,18 L17,11 L8,9 L7,6 L0,4 Z " fill="#A691EE" transform="translate(72,54)"/>
<path d="M0,0 L6,0 L6,4 L16,4 L15,8 L15,5 L1,7 L1,5 L-1,5 L0,10 L-2,10 L-3,14 L-5,13 L-4,21 L-5,19 L-7,19 L-8,22 L-8,18 L-6,18 L-6,12 L-4,12 L-4,8 L-2,8 L-2,4 L0,4 Z " fill="#7666BD" transform="translate(32,52)"/>
<path d="M0,0 L3,3 L2,8 L12,8 L13,12 L10,16 L8,16 L8,14 L-2,11 L0,10 Z " fill="#A997F9" transform="translate(88,64)"/>
<path d="M0,0 L12,0 L12,8 L16,8 L16,12 L22,12 L22,20 L14,20 L14,19 L21,19 L21,13 L16,13 L15,16 L13,15 L13,12 L15,12 L15,9 L7,10 L8,4 L1,5 L1,3 L9,3 L9,8 L11,8 L11,1 L0,1 Z " fill="#7A61B3" transform="translate(50,20)"/>
<path d="M0,0 L6,0 L6,6 L3,6 L3,11 L-3,11 L-4,18 L-7,17 L-5,17 L-6,11 L-3,8 L0,8 Z " fill="#816DCD" transform="translate(46,60)"/>
<path d="M0,0 L5,0 L10,8 L13,8 L13,12 L7,14 L8,9 L0,7 Z " fill="#9A8AEC" transform="translate(92,64)"/>
<path d="M0,0 L4,1 L5,4 L9,5 L6,6 L7,10 L6,11 L0,11 Z " fill="#B7A1FE" transform="translate(78,64)"/>
<path d="M0,0 L7,1 L7,4 L2,2 L2,18 L-1,17 L-2,12 L-2,5 Z " fill="#AD98F9" transform="translate(72,58)"/>
<path d="M0,0 L10,0 L10,8 L5,9 L4,5 L1,4 L1,2 L-3,1 Z " fill="#8F7BE3" transform="translate(37,57)"/>
<path d="M0,0 L2,0 L3,2 L3,17 L2,24 L0,24 Z " fill="#9782E2" transform="translate(65,57)"/>
<path d="M0,0 L2,1 L1,3 L-1,3 L0,10 L4,10 L4,8 L10,8 L11,11 L4,11 L4,14 L-2,14 L-2,2 L0,2 Z " fill="#7367BB" transform="translate(22,74)"/>
<path d="M0,0 L3,4 L4,8 L6,9 L6,10 L17,11 L17,12 L1,12 L-1,7 Z " fill="#7E6EC6" transform="translate(67,74)"/>
<path d="M0,0 L3,1 L1,1 L1,4 L3,4 L4,2 L9,2 L9,8 L0,9 Z " fill="#9474DF" transform="translate(62,31)"/>
<path d="M0,0 L6,0 L6,4 L3,4 L2,13 L0,15 L1,3 L-1,4 L-2,9 L-3,9 L-3,1 Z " fill="#9B89F5" transform="translate(34,63)"/>
<path d="M0,0 L1,4 L0,5 L0,12 L1,17 L10,19 L9,21 L3,21 L-1,18 L-2,14 L-2,1 Z " fill="#A691F2" transform="translate(71,58)"/>
<path d="M0,0 L10,0 L10,3 L2,3 L2,5 L-4,5 L-2,4 L-2,2 L0,2 Z " fill="#9482DE" transform="translate(82,80)"/>
<path d="M0,0 L2,1 L1,4 L4,4 L4,6 L-5,6 L-6,2 Z " fill="#8B7AE3" transform="translate(51,77)"/>
<path d="M0,0 L3,1 L2,6 L0,9 L-18,9 L-18,8 L-2,7 L-2,4 L0,4 Z " fill="#7B70BC" transform="translate(102,75)"/>
<path d="M0,0 L1,0 L1,9 L-5,9 L-5,11 L-7,11 L-7,4 L0,5 Z " fill="#514682" transform="translate(49,66)"/>
<path d="M0,0 L2,0 L2,10 L10,10 L10,12 L1,12 L0,11 Z " fill="#9073E1" transform="translate(49,33)"/>
<path d="M0,0 L4,2 L2,2 L2,10 L4,10 L4,12 L2,12 L2,24 L4,24 L3,26 L0,26 Z " fill="#161222" transform="translate(46,20)"/>
<path d="M0,0 L4,1 L2,11 L-1,11 L-1,4 Z " fill="#9A7AE8" transform="translate(54,30)"/>
<path d="M0,0 L2,0 L2,5 L-4,5 L-5,12 L-8,11 L-6,11 L-7,5 L-6,3 L0,3 Z " fill="#8776DB" transform="translate(47,66)"/>
<path d="M0,0 L12,2 L10,3 L10,5 L3,6 Z " fill="#9784E6" transform="translate(70,79)"/>
<path d="M0,0 L1,0 L1,6 L-1,6 L-1,10 L-11,10 L-11,9 L-2,9 L-2,7 L-5,7 L-5,2 L-2,2 L-2,5 L0,5 Z " fill="#7061B5" transform="translate(57,74)"/>
<path d="M0,0 L6,5 L6,12 L12,12 L12,13 L4,13 L3,6 L2,3 L-2,3 L-2,1 Z " fill="#9F8DEC" transform="translate(86,59)"/>
<path d="M0,0 L2,4 L2,6 L0,6 L-1,10 L-3,9 L-2,17 L-3,15 L-5,15 L-6,18 L-6,14 L-4,14 L-4,8 L-2,8 L-2,4 L0,4 Z " fill="#685CAD" transform="translate(30,56)"/>
<path d="M0,0 L6,0 L6,2 L12,3 L10,5 L1,4 Z " fill="#9680DD" transform="translate(71,49)"/>
<path d="M0,0 L2,1 L1,7 L-2,7 L-3,9 L-4,7 L-4,1 Z " fill="#9184E6" transform="translate(25,77)"/>
<path d="M0,0 L6,0 L7,4 L4,8 L2,8 L2,6 L-5,4 L-5,3 L5,4 L5,1 L0,1 Z " fill="#A496F4" transform="translate(94,72)"/>
<path d="M0,0 L6,0 L6,4 L8,4 L8,7 L10,7 L9,10 L5,8 L4,4 L5,1 L0,1 Z " fill="#7D6CBF" transform="translate(84,54)"/>
<path d="M0,0 L2,1 L1,13 L-4,14 L-4,11 L-2,11 Z " fill="#9485EE" transform="translate(37,67)"/>
<path d="M0,0 L10,0 L10,7 L8,7 L8,2 L0,2 Z " fill="#9B7BE1" transform="translate(51,21)"/>
<path d="M0,0 L5,1 L10,3 L6,4 L-2,3 Z " fill="#9888E0" transform="translate(86,77)"/>
<path d="M0,0 L1,2 L6,2 L6,5 L0,5 L-2,4 L-2,2 L0,2 Z " fill="#9580DA" transform="translate(83,53)"/>
<path d="M0,0 L4,0 L6,3 L10,4 L9,6 L4,6 L1,3 L2,1 Z " fill="#7062B7" transform="translate(92,60)"/>
<path d="M0,0 L6,1 L6,6 L4,6 L4,3 L0,3 Z " fill="#8F7AE0" transform="translate(51,73)"/>
<path d="M0,0 L6,0 L6,2 L2,2 L2,4 L-6,4 L-6,3 L0,2 Z " fill="#5F55A5" transform="translate(32,82)"/>
<path d="M0,0 L5,0 L7,4 L2,3 L1,6 Z " fill="#9281E4" transform="translate(92,64)"/>
<path d="M0,0 L2,1 L-2,4 L-3,6 L-6,5 L-5,1 Z " fill="#8574D9" transform="translate(51,77)"/>
<path d="M0,0 L6,2 L3,4 L0,5 L-1,2 Z " fill="#B29CFC" transform="translate(74,60)"/>
<path d="M0,0 L7,1 L7,4 L2,2 L2,4 L0,4 Z " fill="#AD97F7" transform="translate(72,58)"/>
<path d="M0,0 L2,0 L3,5 L-1,9 L-1,5 L1,5 Z " fill="#8A78E2" transform="translate(31,57)"/>
<path d="M0,0 L2,4 L1,8 L-1,8 L-1,1 Z " fill="#9678DB" transform="translate(50,21)"/>
<path d="M0,0 L7,0 L10,2 L9,4 L0,1 Z " fill="#9E8FE9" transform="translate(86,76)"/>
<path d="M0,0 L3,1 L3,6 L1,7 Z " fill="#8979DE" transform="translate(27,65)"/>
<path d="M0,0 L4,0 L4,8 L1,7 L1,4 L3,4 L3,1 Z " fill="#8166C1" transform="translate(62,28)"/>
<path d="M0,0 L3,1 L2,12 L1,12 Z " fill="#9375E0" transform="translate(51,30)"/>
<path d="M0,0 L2,0 L2,5 L-3,5 L-3,3 L0,3 Z " fill="#917CE8" transform="translate(47,66)"/>
<path d="M0,0 L4,2 L0,4 L-4,2 L0,2 Z " fill="#151325" transform="translate(42,80)"/>
<path d="M0,0 L4,1 L4,5 L1,5 Z " fill="#9983E0" transform="translate(67,53)"/>
<path d="M0,0 L4,0 L4,3 L-2,3 L0,2 Z " fill="#8C79D8" transform="translate(80,82)"/>
<path d="M0,0 L4,0 L4,3 L-1,3 Z " fill="#A394FD" transform="translate(28,78)"/>
<path d="M0,0 L1,4 L-2,6 L-4,4 L-2,4 Z " fill="#877BD7" transform="translate(25,73)"/>
<path d="M0,0 L5,0 L5,3 L0,3 Z " fill="#8578D7" transform="translate(21,84)"/>
<path d="M0,0 L3,0 L1,8 L0,8 Z " fill="#9887F1" transform="translate(31,64)"/>
<path d="M0,0 L2,0 L2,4 L-1,3 Z " fill="#9487E4" transform="translate(103,72)"/>
<path d="M0,0 L3,0 L3,3 L-1,2 Z " fill="#AA9CFD" transform="translate(96,73)"/>
<path d="M0,0 L4,2 L0,3 Z " fill="#8172D3" transform="translate(99,65)"/>
<path d="M0,0 L4,1 L0,3 Z " fill="#9F8BE9" transform="translate(82,77)"/>
<path d="M0,0 L2,0 L1,3 L-2,2 Z " fill="#9C7DE2" transform="translate(55,25)"/>
<path d="M0,0 L2,0 L1,3 L-1,1 Z " fill="#9380E0" transform="translate(89,59)"/>
</svg>
