<?xml version="1.0" encoding="UTF-8"?>
<!-- Generator: visioncortex VTracer 0.6.4 -->
<svg version="1.1" xmlns="http://www.w3.org/2000/svg" width="46" height="34">
<path d="M0,0 L46,0 L46,34 L0,34 Z " fill="#020302" transform="translate(0,0)"/>
<path d="M0,0 L18,0 L18,6 L24,6 L24,12 L26,12 L26,22 L20,22 L20,20 L12,20 L12,18 L0,18 L0,14 L-2,14 L-2,2 L0,2 Z " fill="#9ECF99" transform="translate(2,2)"/>
<path d="M0,0 L18,0 L18,6 L24,6 L24,12 L26,12 L26,22 L20,22 L20,21 L25,21 L25,13 L22,14 L22,12 L14,12 L14,10 L19,11 L20,9 L23,11 L23,7 L17,7 L17,1 L4,2 L9,5 L8,8 L6,8 L7,17 L13,17 L13,19 L20,19 L20,20 L12,20 L12,18 L0,18 L0,14 L-2,14 L-2,2 L0,2 Z " fill="#517E4D" transform="translate(2,2)"/>
<path d="M0,0 L30,0 L30,4 L34,4 L34,10 L28,10 L28,7 L20,8 L20,2 L2,2 L2,4 L0,4 Z " fill="#152016" transform="translate(0,0)"/>
<path d="M0,0 L18,0 L18,6 L24,6 L24,12 L26,12 L26,22 L20,22 L20,21 L25,21 L25,13 L22,14 L22,12 L14,12 L14,10 L19,11 L20,9 L23,11 L23,7 L17,7 L17,1 L4,2 L9,5 L8,8 L7,5 L-2,5 L-2,2 L0,2 Z " fill="#678B65" transform="translate(2,2)"/>
<path d="M0,0 L13,0 L14,7 L4,7 L4,4 L-2,2 Z " fill="#95CA95" transform="translate(6,3)"/>
<path d="M0,0 L2,0 L2,6 L8,7 L12,9 L18,10 L16,6 L19,5 L19,13 L14,13 L14,11 L7,11 L7,9 L1,9 Z " fill="#99BF97" transform="translate(8,10)"/>
<path d="M0,0 L6,0 L6,2 L8,2 L8,8 L0,8 Z " fill="#7D9A7C" transform="translate(30,18)"/>
<path d="M0,0 L5,1 L9,2 L9,8 L3,8 L3,4 L-1,4 Z " fill="#4B7E4D" transform="translate(25,2)"/>
<path d="M0,0 L6,0 L7,9 L1,9 L1,4 Z " fill="#60A15A" transform="translate(2,10)"/>
<path d="M0,0 L12,1 L15,4 L15,6 L8,6 L5,4 L0,2 Z " fill="#B8E3B4" transform="translate(11,14)"/>
<path d="M0,0 L21,0 L21,2 L2,2 L2,4 L0,4 Z " fill="#090D09" transform="translate(0,0)"/>
<path d="M0,0 L2,0 L2,6 L8,7 L9,11 L7,11 L7,9 L1,9 Z " fill="#88C083" transform="translate(8,10)"/>
<path d="M0,0 L9,0 L10,4 L0,4 Z " fill="#88BC85" transform="translate(10,6)"/>
<path d="M0,0 L4,1 L9,4 L8,7 L7,4 L-2,4 L-2,1 Z " fill="#70AD6C" transform="translate(2,3)"/>
<path d="M0,0 L6,0 L6,6 L4,6 L3,4 L0,3 Z " fill="#60A858" transform="translate(2,10)"/>
<path d="M0,0 L5,0 L5,4 L1,4 L-4,3 L-3,1 Z " fill="#90C68E" transform="translate(20,9)"/>
<path d="M0,0 L9,0 L9,3 L2,3 L0,2 Z " fill="#508D48" transform="translate(0,7)"/>
<path d="M0,0 L10,1 L9,4 L3,3 L0,2 Z " fill="#AADDA4" transform="translate(11,14)"/>
<path d="M0,0 L4,0 L4,4 L0,4 Z " fill="#5C9D56" transform="translate(29,5)"/>
<path d="M0,0 L2,0 L2,8 L0,7 L-1,1 Z " fill="#A5CEA4" transform="translate(25,15)"/>
<path d="M0,0 L4,1 L3,3 L1,3 L0,6 Z " fill="#97D390" transform="translate(10,10)"/>
<path d="M0,0 L5,0 L3,1 L3,3 L-1,2 Z " fill="#80B87B" transform="translate(11,7)"/>
<path d="M0,0 L4,0 L4,3 L0,1 Z " fill="#A0D89D" transform="translate(21,10)"/>
<path d="M0,0 L2,0 L2,3 L-1,2 Z " fill="#9CCA98" transform="translate(25,15)"/>
</svg>
