<?xml version="1.0" encoding="UTF-8"?>
<!-- Generator: visioncortex VTracer 0.6.4 -->
<svg version="1.1" xmlns="http://www.w3.org/2000/svg" width="162" height="174">
<path d="M0,0 L162,0 L162,174 L0,174 Z " fill="#000001" transform="translate(0,0)"/>
<path d="M0,0 L28,0 L28,4 L38,4 L38,10 L42,10 L42,16 L46,16 L46,20 L50,20 L50,22 L54,22 L54,30 L56,30 L56,36 L54,36 L54,38 L50,38 L50,42 L56,42 L56,44 L60,44 L60,48 L64,48 L64,54 L68,54 L68,82 L60,82 L60,80 L58,80 L58,84 L56,84 L56,88 L50,88 L50,98 L48,98 L48,100 L34,100 L34,94 L44,94 L44,86 L42,86 L42,80 L50,80 L50,72 L52,72 L52,70 L54,70 L54,58 L50,58 L49,50 L46,48 L46,44 L42,44 L42,46 L38,46 L38,50 L32,50 L32,44 L28,44 L28,42 L16,42 L16,38 L12,38 L12,46 L20,46 L20,54 L16,54 L16,56 L20,56 L20,64 L24,64 L24,62 L30,62 L30,64 L38,64 L38,82 L36,82 L36,92 L30,92 L30,88 L22,88 L22,84 L18,84 L18,80 L8,80 L8,84 L-8,84 L-8,78 L0,78 L0,74 L4,74 L4,70 L6,70 L6,66 L2,66 L2,60 L4,60 L4,56 L8,56 L8,54 L0,54 L0,56 L-4,56 L-4,58 L-12,58 L-12,62 L-20,62 L-20,64 L-8,64 L-8,70 L-10,70 L-10,72 L-14,72 L-14,74 L-18,74 L-18,76 L-24,76 L-24,74 L-26,74 L-26,80 L-22,80 L-22,82 L-18,82 L-18,88 L-24,88 L-24,86 L-28,86 L-28,90 L-18,90 L-18,100 L-34,100 L-34,96 L-38,96 L-38,74 L-40,74 L-40,70 L-42,70 L-42,48 L-48,48 L-48,38 L-52,38 L-52,18 L-50,18 L-50,16 L-46,16 L-46,10 L-44,10 L-44,6 L-40,6 L-40,4 L-24,4 L-24,8 L-16,8 L-16,12 L-14,12 L-14,8 L4,8 L4,18 L-4,18 L-4,22 L-8,22 L-8,24 L-4,23 L3,23 L3,26 L16,26 L16,28 L20,28 L20,25 L17,25 L17,21 L21,21 L21,24 L32,24 L32,22 L26,22 L26,18 L24,18 L24,14 L22,14 L22,10 L20,10 L20,14 L6,14 L6,8 L14,8 L14,6 L0,6 Z " fill="#634CFB" transform="translate(78,30)"/>
<path d="M0,0 L2,0 L2,8 L11,8 L11,16 L7,16 L7,18 L11,18 L11,26 L15,26 L15,24 L21,24 L21,26 L29,26 L29,44 L27,44 L27,54 L21,54 L21,50 L13,50 L13,46 L9,46 L9,42 L-1,42 L-1,46 L-17,46 L-17,40 L-9,40 L-9,36 L-5,36 L-5,32 L-3,32 L-3,28 L-7,28 L-7,22 L-5,22 L-5,18 L-1,18 L-1,16 L-9,16 L-9,18 L-13,18 L-13,20 L-21,20 L-21,24 L-29,24 L-29,26 L-17,26 L-17,32 L-19,32 L-19,34 L-23,34 L-23,36 L-27,36 L-27,38 L-33,38 L-33,36 L-35,36 L-35,42 L-31,42 L-31,44 L-27,44 L-27,50 L-33,50 L-33,48 L-37,48 L-37,52 L-27,52 L-27,62 L-43,62 L-43,57 L-46,57 L-46,36 L-45,27 L-43,27 L-42,30 L-41,22 L-36,20 L-33,14 L-27,14 L-27,12 L-23,10 L-19,10 L-19,6 L-14,6 L-15,12 L-11,12 L-10,10 L-5,10 L-3,6 L0,6 Z " fill="#6B55F8" transform="translate(87,68)"/>
<path d="M0,0 L28,0 L28,4 L38,4 L38,10 L42,10 L42,16 L46,16 L46,20 L50,20 L50,22 L54,22 L54,30 L56,30 L56,36 L54,36 L54,38 L50,38 L50,42 L56,42 L56,44 L60,44 L60,48 L64,48 L64,54 L68,54 L68,82 L60,82 L60,80 L58,80 L58,84 L56,84 L56,88 L50,88 L50,98 L48,98 L48,100 L34,100 L34,94 L44,94 L44,86 L42,86 L42,80 L50,80 L50,72 L52,72 L52,70 L54,70 L54,58 L50,58 L49,50 L46,48 L46,44 L42,44 L42,46 L38,46 L38,50 L32,50 L32,44 L28,44 L28,42 L16,42 L16,38 L12,38 L12,46 L11,46 L11,38 L9,38 L9,44 L6,44 L6,36 L17,36 L19,33 L19,35 L21,36 L19,36 L19,39 L17,39 L17,41 L28,41 L28,36 L30,35 L32,28 L23,28 L23,27 L31,26 L22,25 L22,24 L32,24 L32,22 L26,22 L26,18 L24,18 L24,14 L22,14 L22,10 L20,10 L20,14 L6,14 L6,8 L14,8 L14,6 L0,6 Z " fill="#6547F9" transform="translate(78,30)"/>
<path d="M0,0 L4,0 L5,3 L15,4 L15,7 L14,14 L11,15 L11,20 L0,20 L0,18 L2,18 L2,14 L0,16 L-7,16 L-11,15 L-11,26 L-15,28 L-23,29 L-23,24 L-27,23 L-27,27 L-35,29 L-35,31 L-41,31 L-43,37 L-45,39 L-52,40 L-54,48 L-58,48 L-58,27 L-56,27 L-56,29 L-54,29 L-54,31 L-56,31 L-56,35 L-53,34 L-53,32 L-50,29 L-53,28 L-53,26 L-48,26 L-49,23 L-55,22 L-54,18 L-45,16 L-45,14 L-42,13 L-42,9 L-40,9 L-39,7 L-34,7 L-33,10 L-34,15 L-31,14 L-30,15 L-23,15 L-23,13 L-15,12 L-12,11 L-12,9 L-3,9 L-1,10 L-1,8 L3,8 L3,4 L0,4 Z " fill="#6951FA" transform="translate(95,51)"/>
<path d="M0,0 L8,0 L8,8 L4,8 L4,10 L8,10 L8,18 L12,18 L12,16 L18,16 L18,18 L26,18 L26,36 L24,36 L24,46 L18,46 L18,42 L10,42 L10,38 L6,38 L6,34 L-4,34 L-4,38 L-20,38 L-20,32 L-12,32 L-12,28 L-8,28 L-8,24 L-6,24 L-6,20 L-10,20 L-10,14 L-8,14 L-8,10 L-3,10 L-2,6 L7,7 L7,1 L0,1 Z " fill="#7661F6" transform="translate(90,76)"/>
<path d="M0,0 L4,0 L4,6 L8,6 L8,10 L12,10 L12,12 L16,12 L16,20 L18,20 L18,26 L16,26 L16,28 L12,28 L12,32 L18,32 L18,34 L22,34 L22,38 L26,38 L26,44 L30,44 L30,72 L22,72 L22,70 L20,70 L20,74 L18,74 L18,78 L12,78 L12,88 L10,88 L10,90 L-4,90 L-4,84 L6,84 L6,76 L4,76 L4,70 L12,70 L12,62 L14,62 L14,60 L16,60 L16,48 L12,48 L11,40 L8,38 L8,34 L4,33 L8,33 L7,25 L4,25 L4,20 L7,20 L9,25 L14,24 L15,13 L9,14 L11,13 L11,11 L6,12 L6,10 L3,10 L3,1 Z " fill="#553DDE" transform="translate(116,40)"/>
<path d="M0,0 L4,0 L4,4 L16,4 L16,6 L20,6 L20,12 L26,12 L26,8 L30,8 L30,6 L34,6 L34,10 L38,12 L38,20 L42,20 L42,32 L40,32 L40,34 L38,34 L38,42 L30,42 L30,48 L32,48 L32,56 L23,56 L10,54 L10,53 L17,53 L17,51 L10,51 L10,50 L18,50 L18,54 L24,54 L24,44 L26,44 L26,26 L18,26 L18,24 L12,24 L12,26 L8,26 L8,18 L4,18 L4,16 L8,16 L8,8 L0,8 Z " fill="#030208" transform="translate(90,68)"/>
<path d="M0,0 L8,0 L8,2 L4,2 L4,6 L2,6 L2,12 L6,12 L6,16 L4,16 L4,20 L0,20 L0,24 L-8,24 L-8,30 L-17,30 L-18,34 L-18,28 L-22,28 L-22,26 L-26,26 L-26,20 L-24,20 L-24,22 L-18,22 L-18,20 L-14,20 L-14,18 L-10,18 L-10,16 L-8,16 L-8,10 L-20,10 L-20,8 L-12,8 L-12,4 L-4,4 L-4,2 L0,2 Z " fill="#0A0816" transform="translate(78,84)"/>
<path d="M0,0 L14,0 L14,2 L6,2 L6,8 L20,8 L20,4 L22,4 L22,8 L24,8 L24,12 L26,12 L26,16 L32,16 L32,18 L21,18 L21,15 L17,15 L17,19 L20,19 L20,22 L16,22 L16,20 L3,20 L3,17 L-8,18 L-8,16 L-4,16 L-4,12 L4,12 L4,2 L-14,2 L-14,1 Z " fill="#090616" transform="translate(78,36)"/>
<path d="M0,0 L16,0 L16,4 L24,4 L24,8 L26,8 L26,4 L44,4 L44,14 L36,14 L36,18 L32,17 L35,17 L35,15 L26,14 L27,9 L18,10 L18,7 L23,7 L23,5 L0,4 L-3,3 L-3,5 L-1,6 L-2,12 L-3,12 L-3,7 L-5,7 L-4,15 L-9,20 L-10,19 L-11,33 L-8,34 L-12,34 L-12,14 L-10,14 L-10,12 L-6,12 L-6,6 L-4,6 L-4,2 L0,2 Z " fill="#5B44E4" transform="translate(38,34)"/>
<path d="M0,0 L1,4 L9,5 L10,7 L13,7 L13,14 L12,18 L6,20 L5,14 L2,14 L2,19 L5,19 L6,27 L2,27 L2,30 L-2,30 L-2,34 L-8,34 L-8,28 L-12,27 L-11,25 L-9,25 L-9,21 L-6,21 L-5,18 L-4,18 L-2,10 Z " fill="#6349F9" transform="translate(118,46)"/>
<path d="M0,0 L4,0 L5,5 L1,5 L1,7 L3,8 L-8,10 L-9,13 L-3,13 L-2,17 L-7,17 L-7,19 L-3,20 L-5,23 L-7,23 L-7,25 L-5,26 L-10,26 L-10,22 L-8,22 L-8,20 L-10,20 L-10,18 L-12,18 L-12,39 L-9,38 L-7,32 L-8,30 L-3,30 L-3,39 L-5,38 L-5,35 L-7,35 L-8,65 L-5,66 L-9,66 L-9,44 L-11,44 L-11,40 L-13,40 L-13,18 L-19,18 L-19,8 L-16,6 L-9,6 L-9,8 L-7,8 L-7,6 L-2,5 L0,4 Z " fill="#624CF1" transform="translate(49,60)"/>
<path d="M0,0 L4,0 L5,5 L8,6 L8,32 L2,32 L1,27 L1,30 L-1,30 L-1,27 L-5,27 L-4,24 L-2,23 L-2,20 L-4,20 L-4,9 L-3,2 Z " fill="#664EF9" transform="translate(137,79)"/>
<path d="M0,0 L11,1 L11,2 L3,2 L3,4 L-1,4 L-1,6 L-9,6 L-9,10 L-17,10 L-17,12 L-5,12 L-5,18 L-7,18 L-7,20 L-11,20 L-11,22 L-15,22 L-15,24 L-21,24 L-21,22 L-23,21 L-21,21 L-21,19 L-29,20 L-28,15 L-22,12 L-20,12 L-22,7 L-19,4 L-2,5 L-2,3 L-9,3 L-9,2 L-1,2 L2,3 L2,1 Z " fill="#745FFA" transform="translate(75,82)"/>
<path d="M0,0 L28,0 L28,4 L38,4 L38,10 L37,10 L37,5 L24,7 L17,8 L17,6 L15,6 L17,9 L24,9 L23,13 L25,13 L26,11 L25,18 L24,14 L22,14 L22,10 L20,10 L20,14 L6,14 L6,8 L14,8 L14,6 L0,6 Z " fill="#543BD1" transform="translate(78,30)"/>
<path d="M0,0 L2,0 L2,2 L7,1 L14,1 L14,4 L27,4 L27,6 L31,7 L27,7 L27,9 L16,8 L16,10 L13,12 L5,12 L5,14 L-3,15 L-3,4 L-1,3 Z " fill="#654EF9" transform="translate(67,52)"/>
<path d="M0,0 L2,0 L2,7 L7,7 L7,9 L11,9 L11,15 L5,15 L5,13 L1,13 L1,17 L11,17 L11,27 L-5,27 L-4,23 L-4,26 L3,25 L3,23 L5,23 L5,20 L10,20 L10,18 L-6,19 L-6,7 L-3,7 L-3,5 L0,5 Z " fill="#7F6CF8" transform="translate(49,103)"/>
<path d="M0,0 L2,0 L2,5 L5,5 L6,10 L4,11 L4,14 L-1,14 L-1,25 L-3,25 L-3,27 L-17,27 L-17,21 L-7,21 L-7,13 L-9,13 L-9,7 L0,7 Z " fill="#6050EF" transform="translate(129,103)"/>
<path d="M0,0 L3,0 L3,2 L8,2 L8,19 L6,19 L6,21 L10,21 L10,12 L11,12 L11,22 L5,22 L5,18 L-3,18 L-3,14 L-7,14 L-7,7 L-4,8 L-5,4 L0,5 Z " fill="#5A45E4" transform="translate(103,100)"/>
<path d="M0,0 L2,1 L1,3 L13,3 L14,0 L14,4 L10,4 L10,8 L2,8 L2,14 L-7,14 L-8,18 L-8,12 L-12,12 L-12,10 L-16,10 L-16,4 L-14,4 L-14,6 L-8,6 L-8,4 L-4,4 L-4,2 L0,2 Z " fill="#0A0817" transform="translate(68,100)"/>
<path d="M0,0 L2,0 L1,10 L-1,14 L-3,21 L-5,23 L-8,23 L-8,27 L-10,27 L-11,29 L-23,28 L-23,24 L-27,24 L-27,32 L-28,32 L-28,24 L-30,24 L-30,30 L-33,30 L-33,22 L-22,22 L-20,19 L-20,21 L-18,22 L-20,22 L-20,25 L-22,25 L-22,27 L-11,27 L-11,22 L-9,21 L-7,14 L-16,14 L-16,13 L-8,12 L-6,10 L-6,7 L-1,6 Z " fill="#684CF8" transform="translate(117,44)"/>
<path d="M0,0 L6,0 L6,2 L14,2 L14,20 L11,20 L11,29 L7,29 L7,27 L9,27 L9,10 L4,10 L4,8 L2,7 L4,7 L4,5 L1,5 L1,3 L-4,3 L0,2 Z " fill="#6755FE" transform="translate(102,92)"/>
<path d="M0,0 L2,0 L3,8 L10,9 L10,15 L3,15 L1,14 L-1,18 L-1,15 L-10,15 L-10,17 L-19,16 L-19,14 L-15,12 L-11,12 L-10,10 L-5,10 L-3,6 L0,6 Z " fill="#7158FA" transform="translate(87,68)"/>
<path d="M0,0 L4,0 L4,6 L8,6 L8,10 L12,10 L12,12 L16,12 L16,20 L18,20 L18,26 L16,26 L16,28 L12,28 L12,32 L18,32 L18,34 L22,34 L21,38 L21,35 L13,36 L17,35 L17,33 L9,33 L10,38 L8,38 L8,34 L4,33 L8,33 L7,25 L4,25 L4,20 L7,20 L9,25 L14,24 L15,13 L9,14 L11,13 L11,11 L6,12 L6,10 L3,10 L3,1 Z " fill="#4E32D9" transform="translate(116,40)"/>
<path d="M0,0 L16,0 L16,4 L24,4 L23,8 L23,5 L0,4 L-3,3 L-3,5 L-1,6 L-2,12 L-3,12 L-3,7 L-5,7 L-4,15 L-9,20 L-10,19 L-11,33 L-8,34 L-12,34 L-12,14 L-10,14 L-10,12 L-6,12 L-6,6 L-4,6 L-4,2 L0,2 Z " fill="#563EDC" transform="translate(38,34)"/>
<path d="M0,0 L8,0 L8,8 L4,8 L4,10 L8,10 L8,18 L7,18 L7,11 L5,11 L5,16 L3,14 L-3,13 L-3,11 L-7,11 L-7,13 L-4,14 L-6,14 L-7,17 L-7,15 L-9,15 L-9,19 L-1,18 L4,19 L4,24 L-1,24 L-1,20 L-5,20 L-6,24 L-6,20 L-10,20 L-10,14 L-8,14 L-8,10 L-3,10 L-2,6 L7,7 L7,1 L0,1 Z " fill="#6C57E4" transform="translate(90,76)"/>
<path d="M0,0 L1,0 L1,5 L4,5 L5,13 L1,13 L1,16 L-3,16 L-3,20 L-9,20 L-9,14 L-13,13 L-8,13 L-8,11 L-6,11 L-6,8 L-3,8 L-3,6 L-1,5 Z " fill="#5A42F3" transform="translate(119,60)"/>
<path d="M0,0 L4,0 L4,2 L10,2 L11,3 L12,0 L14,0 L15,7 L19,8 L19,10 L17,10 L17,15 L12,13 L11,9 L2,8 L-2,8 L-2,4 L1,3 Z " fill="#836AFA" transform="translate(83,87)"/>
<path d="M0,0 L2,0 L2,6 L7,6 L7,10 L4,10 L4,13 L-6,14 L-8,13 L-6,2 Z " fill="#020205" transform="translate(77,90)"/>
<path d="M0,0 L4,0 L4,4 L16,4 L16,6 L20,6 L20,12 L19,10 L17,10 L16,12 L15,8 L12,8 L12,16 L11,16 L11,8 L9,8 L9,16 L8,16 L8,8 L0,8 Z " fill="#100C26" transform="translate(90,68)"/>
<path d="M0,0 L1,0 L1,5 L5,6 L-3,5 L-2,8 L14,9 L14,10 L4,10 L4,14 L-12,14 L-12,8 L-4,8 L-4,4 L0,4 Z " fill="#5341C9" transform="translate(82,100)"/>
<path d="M0,0 L2,0 L2,18 L9,17 L18,17 L18,19 L13,19 L13,22 L11,22 L11,24 L4,25 L3,22 L0,21 Z " fill="#7F6AFE" transform="translate(41,104)"/>
<path d="M0,0 L4,0 L4,28 L-4,28 L-4,26 L-6,26 L-6,30 L-8,30 L-8,34 L-14,34 L-14,33 L-9,33 L-10,27 L-9,29 L-7,29 L-8,24 L-11,24 L-11,19 L-13,19 L-13,26 L-14,26 L-14,18 L-12,18 L-12,16 L-6,14 L-7,19 L-10,22 L-6,22 L-6,25 L-4,25 L-4,22 L-2,23 L-3,27 L3,27 L3,1 Z " fill="#5240D0" transform="translate(142,84)"/>
<path d="M0,0 L3,2 L3,4 L-2,7 L-5,7 L-6,12 L2,11 L2,13 L0,13 L0,20 L-1,20 L-1,13 L-3,13 L-3,18 L-6,18 L-6,20 L-9,20 L-10,14 L-10,5 L-8,5 L-7,8 L-6,4 L0,3 Z " fill="#705BF8" transform="translate(52,90)"/>
<path d="M0,0 L19,0 L19,7 L9,7 L9,4 L0,4 Z " fill="#05030B" transform="translate(74,48)"/>
<path d="M0,0 L5,1 L5,12 L1,12 L1,21 L-4,21 L-5,15 L-2,12 L-2,4 L1,3 Z " fill="#694AFC" transform="translate(35,37)"/>
<path d="M0,0 L1,0 L1,8 L3,8 L3,10 L5,10 L5,2 L6,2 L6,12 L4,12 L4,14 L-10,14 L-10,8 L0,8 Z " fill="#5143C5" transform="translate(122,116)"/>
<path d="M0,0 L1,0 L1,21 L4,20 L6,14 L5,12 L10,12 L10,21 L8,20 L8,17 L6,17 L5,47 L8,48 L4,48 L4,26 L2,26 L2,22 L0,22 Z " fill="#5D4BD6" transform="translate(36,78)"/>
<path d="M0,0 L28,0 L28,4 L38,4 L38,10 L37,10 L37,5 L24,7 L17,8 L17,6 L15,5 L25,3 L27,3 L27,1 L1,1 L1,5 L14,5 L14,6 L0,6 Z " fill="#4C32CC" transform="translate(78,30)"/>
<path d="M0,0 L2,0 L2,2 L8,2 L9,3 L16,4 L16,10 L9,10 L8,14 L8,8 L4,8 L4,6 L0,6 Z " fill="#0D0B1C" transform="translate(52,104)"/>
<path d="M0,0 L1,0 L1,6 L3,6 L3,14 L-6,14 L-19,12 L-19,11 L-12,11 L-12,9 L-19,9 L-19,8 L-11,8 L-11,12 L-5,12 L-5,2 L-4,2 L-4,10 L-2,10 L-2,6 L0,6 Z " fill="#0C091E" transform="translate(119,110)"/>
<path d="M0,0 L11,1 L11,2 L3,2 L3,4 L-1,4 L-1,6 L-9,6 L-9,10 L-17,10 L-18,12 L-20,6 L-19,4 L-2,5 L-2,3 L-9,3 L-9,2 L-1,2 L2,3 L2,1 Z " fill="#6653E2" transform="translate(75,82)"/>
<path d="M0,0 L7,0 L7,3 L20,3 L20,5 L24,6 L20,6 L20,8 L9,7 L9,9 L6,10 L6,3 L0,4 L0,2 L-4,1 Z " fill="#6449EB" transform="translate(74,53)"/>
<path d="M0,0 L7,0 L7,7 L6,11 L0,13 L-1,7 L-4,6 L-2,6 L-5,3 L-4,1 L0,3 Z " fill="#5F3FFB" transform="translate(124,53)"/>
<path d="M0,0 L5,1 L5,18 L3,18 L3,16 L-2,17 L-1,13 Z " fill="#6852F7" transform="translate(140,84)"/>
<path d="M0,0 L10,0 L10,10 L-6,10 L-5,6 L-5,9 L2,8 L2,6 L4,6 L4,3 L9,3 L9,1 L0,1 Z " fill="#5745C8" transform="translate(50,120)"/>
<path d="M0,0 L26,0 L26,2 L13,2 L13,4 L0,4 Z " fill="#5A38FE" transform="translate(79,31)"/>
<path d="M0,0 L12,0 L12,6 L10,6 L10,8 L6,8 L6,10 L2,10 L2,12 L-4,12 L-4,11 L1,11 L1,9 L-3,8 L2,8 L2,4 L4,3 L10,3 L11,1 L0,1 Z " fill="#6653DC" transform="translate(58,94)"/>
<path d="M0,0 L2,0 L3,2 L12,2 L19,3 L19,5 L9,5 L2,4 L1,7 L-1,8 L-2,11 L-8,12 L-8,8 L-3,6 Z " fill="#6F59FB" transform="translate(54,82)"/>
<path d="M0,0 L9,0 L10,4 L7,5 L-9,5 L-10,1 L-2,1 Z " fill="#6C56FB" transform="translate(89,104)"/>
<path d="M0,0 L2,0 L2,3 L-1,3 L-1,8 L1,8 L2,16 L-2,20 L-4,20 L-4,9 L-3,2 Z " fill="#634AFE" transform="translate(137,79)"/>
<path d="M0,0 L10,0 L10,4 L14,4 L13,8 L13,5 L-16,5 L-16,4 L0,4 Z " fill="#0B081F" transform="translate(86,110)"/>
<path d="M0,0 L1,2 L3,3 L1,3 L1,6 L-1,6 L-1,8 L10,8 L10,9 L-2,9 L-2,5 L-6,5 L-6,13 L-7,13 L-7,5 L-9,5 L-9,11 L-12,11 L-12,3 L-1,3 Z " fill="#674DEC" transform="translate(96,63)"/>
<path d="M0,0 L2,0 L2,2 L6,2 L6,12 L2,12 L2,8 L-4,8 L-4,6 L0,6 Z " fill="#0D0A1F" transform="translate(104,100)"/>
<path d="M0,0 L7,0 L6,4 L6,1 L2,1 L2,5 L5,5 L5,8 L1,8 L1,6 L-12,6 L-12,3 L-23,4 L-23,2 L-10,2 L-10,5 L0,5 Z " fill="#261C5D" transform="translate(93,50)"/>
<path d="M0,0 L4,0 L4,2 L10,2 L12,6 L2,8 L-2,8 L-2,4 L1,3 Z " fill="#7A65FA" transform="translate(83,87)"/>
<path d="M0,0 L1,0 L1,7 L3,7 L3,0 L4,0 L4,16 L3,18 L5,19 L3,20 L-4,20 L-4,16 L0,16 L0,14 L2,14 L2,8 L0,8 Z " fill="#0A061D" transform="translate(132,52)"/>
<path d="M0,0 L7,1 L11,0 L11,4 L6,6 L6,8 L1,8 L1,5 L-1,5 Z " fill="#674AFB" transform="translate(104,43)"/>
<path d="M0,0 L4,0 L4,4 L8,6 L8,14 L7,10 L5,10 L4,14 L2,4 L-3,3 L-4,6 L-4,2 L0,2 Z " fill="#060312" transform="translate(120,74)"/>
<path d="M0,0 L6,0 L6,2 L14,2 L14,20 L13,20 L13,3 L6,3 L5,6 L1,5 L1,3 L-4,3 L0,2 Z " fill="#5745CF" transform="translate(102,92)"/>
<path d="M0,0 L14,0 L14,2 L6,2 L5,12 L4,12 L4,2 L-14,2 L-14,1 Z " fill="#0F0B27" transform="translate(78,36)"/>
<path d="M0,0 L1,0 L1,17 L-1,17 L-1,19 L3,19 L3,10 L4,10 L4,20 L-2,20 L-2,16 L-10,16 L-9,12 L-9,15 L-2,15 L-2,13 L0,13 L0,11 L-4,10 L0,10 Z " fill="#4E3FC8" transform="translate(110,102)"/>
<path d="M0,0 L16,0 L16,8 L9,8 L9,6 L14,6 L14,2 L0,2 Z " fill="#6C4EFE" transform="translate(65,39)"/>
<path d="M0,0 L8,0 L8,8 L4,8 L4,10 L8,10 L8,18 L7,18 L7,11 L0,11 L-2,6 L7,7 L7,1 L0,1 Z " fill="#624BD4" transform="translate(90,76)"/>
<path d="M0,0 L3,0 L3,2 L1,2 L1,9 L0,9 L0,2 L-2,2 L-2,7 L-5,7 L-5,9 L-8,9 L-7,3 L-5,3 L-5,1 Z " fill="#705FEF" transform="translate(51,101)"/>
<path d="M0,0 L2,0 L2,2 L4,2 L4,4 L2,4 L3,20 L0,21 Z " fill="#6B53FE" transform="translate(37,78)"/>
<path d="M0,0 L9,0 L15,1 L15,2 L10,2 L10,5 L2,4 L-2,2 L0,2 Z " fill="#694CF7" transform="translate(83,60)"/>
<path d="M0,0 L6,0 L6,2 L-3,4 L-3,8 L-5,8 L-5,5 L-12,5 L-13,1 L-11,1 L-11,3 Z " fill="#6849FD" transform="translate(106,35)"/>
<path d="M0,0 L4,0 L5,5 L1,5 L1,7 L3,8 L-4,9 L-7,8 L-7,6 L-2,5 L0,4 Z " fill="#604AEF" transform="translate(49,60)"/>
<path d="M0,0 L8,0 L8,2 L4,2 L4,6 L2,6 L2,12 L1,12 L1,6 L-3,5 L0,5 L0,3 L-4,2 L0,2 Z " fill="#0F0C22" transform="translate(78,84)"/>
<path d="M0,0 L8,0 L9,2 L10,5 L4,6 L1,6 Z " fill="#5B3AF9" transform="translate(125,73)"/>
<path d="M0,0 L4,0 L4,2 L8,2 L8,8 L2,8 L2,6 L-2,5 L2,5 L3,1 Z " fill="#5E4EC6" transform="translate(52,110)"/>
<path d="M0,0 L9,0 L12,2 L12,4 L0,4 Z " fill="#6B5AFE" transform="translate(113,125)"/>
<path d="M0,0 L7,0 L7,2 L14,2 L14,4 L0,4 Z " fill="#684FFE" transform="translate(71,109)"/>
<path d="M0,0 L5,1 L6,8 L0,8 Z " fill="#8775FA" transform="translate(44,114)"/>
<path d="M0,0 L4,0 L4,6 L8,6 L8,10 L12,10 L12,14 L9,13 L11,13 L11,11 L6,12 L6,10 L3,10 L3,1 Z " fill="#5136D9" transform="translate(116,40)"/>
<path d="M0,0 L4,0 L4,3 L2,3 L2,5 L-5,6 L-6,1 Z " fill="#7863F6" transform="translate(50,123)"/>
<path d="M0,0 L9,1 L9,6 L4,6 L4,2 L0,2 L-1,6 L-1,1 Z " fill="#6D5BD5" transform="translate(85,94)"/>
<path d="M0,0 L2,0 L1,10 L-1,12 L-1,10 L-6,10 L-6,7 L-1,6 Z " fill="#6849FD" transform="translate(117,44)"/>
<path d="M0,0 L7,0 L7,2 L12,2 L12,4 L0,4 Z " fill="#7050FE" transform="translate(85,39)"/>
<path d="M0,0 L4,0 L4,7 L-2,7 L-2,5 L-4,4 L-2,4 Z " fill="#6450ED" transform="translate(108,95)"/>
<path d="M0,0 L2,0 L3,3 L14,4 L14,6 L0,6 Z " fill="#000001" transform="translate(91,69)"/>
<path d="M0,0 L6,0 L6,6 L0,6 Z " fill="#3926B1" transform="translate(92,142)"/>
<path d="M0,0 L6,0 L6,6 L0,6 Z " fill="#4F3FB7" transform="translate(62,108)"/>
<path d="M0,0 L3,0 L3,17 L1,17 Z " fill="#6E55F8" transform="translate(142,85)"/>
<path d="M0,0 L6,0 L6,6 L0,6 Z " fill="#4938B8" transform="translate(28,84)"/>
<path d="M0,0 L1,2 L4,3 L0,4 L1,8 L-11,8 L-11,7 L-1,7 L-1,5 L-7,5 L-6,1 L-6,4 L-1,4 L-2,1 Z " fill="#583FD3" transform="translate(111,47)"/>
<path d="M0,0 L4,1 L4,6 L0,6 L0,9 L-4,8 L-1,8 L-2,4 Z " fill="#533AEF" transform="translate(120,67)"/>
<path d="M0,0 L5,0 L5,6 L4,4 L0,4 L0,7 L-4,6 L-2,6 L-5,3 L-4,1 L0,3 Z " fill="#5B3EF3" transform="translate(124,53)"/>
<path d="M0,0 L1,3 L3,3 L3,11 L1,11 L1,9 L-1,9 L-1,1 Z " fill="#6F5EFE" transform="translate(124,115)"/>
<path d="M0,0 L9,0 L10,4 L-3,3 Z " fill="#6B55F3" transform="translate(89,104)"/>
<path d="M0,0 L3,1 L3,5 L0,5 L0,9 L-2,9 L-3,11 L-3,4 L-1,3 Z " fill="#654BF4" transform="translate(109,62)"/>
<path d="M0,0 L1,2 L3,3 L1,3 L1,6 L-1,6 L-1,8 L10,8 L10,9 L-2,9 L-2,5 L-6,4 L-1,3 Z " fill="#5D45D6" transform="translate(96,63)"/>
<path d="M0,0 L1,0 L1,6 L-3,6 L-3,8 L3,8 L2,12 L2,9 L-5,10 L-7,9 L-6,7 L-4,8 L-5,4 L0,5 Z " fill="#5542C9" transform="translate(103,100)"/>
<path d="M0,0 L2,0 L3,8 L-1,11 L-1,1 Z " fill="#614AF5" transform="translate(136,87)"/>
<path d="M0,0 L1,0 L1,5 L-2,6 L-2,11 L2,11 L3,8 L3,12 L-3,12 L-3,6 L-7,5 L-2,5 L-2,3 L0,3 Z " fill="#503CD3" transform="translate(113,68)"/>
<path d="M0,0 L2,0 L2,2 L13,2 L13,4 L0,4 Z " fill="#6141FE" transform="translate(79,31)"/>
<path d="M0,0 L4,1 L3,5 L-1,5 L-1,10 L-2,10 L-3,2 Z " fill="#7A69E9" transform="translate(51,110)"/>
<path d="M0,0 L4,0 L4,4 L7,5 L5,6 L-3,3 L-4,6 L-4,2 L0,2 Z " fill="#0E092A" transform="translate(120,74)"/>
<path d="M0,0 L4,0 L4,2 L10,2 L10,4 L0,4 Z " fill="#141129" transform="translate(50,116)"/>
<path d="M0,0 L1,2 L4,2 L4,4 L2,5 L1,10 L-1,10 L-2,2 L0,2 Z " fill="#7961FC" transform="translate(102,95)"/>
<path d="M0,0 L4,1 L2,4 L0,4 L0,6 L2,7 L-3,7 L-3,3 L-1,3 Z " fill="#604CE5" transform="translate(42,79)"/>
<path d="M0,0 L2,0 L2,9 L-4,9 L-4,7 L0,7 Z " fill="#6A4FFE" transform="translate(143,102)"/>
<path d="M0,0 L3,0 L3,7 L1,9 L0,8 L0,3 L-2,2 L0,2 Z " fill="#5E4CFA" transform="translate(112,95)"/>
<path d="M0,0 L4,0 L4,6 L-1,6 Z " fill="#664CFD" transform="translate(76,56)"/>
<path d="M0,0 L2,0 L2,8 L0,10 L-3,7 L-3,5 L0,5 Z " fill="#7B6AFA" transform="translate(49,103)"/>
<path d="M0,0 L3,1 L3,7 L2,3 L0,3 L0,9 L3,10 L-1,10 L-2,1 Z " fill="#4D32D9" transform="translate(129,78)"/>
<path d="M0,0 L6,0 L5,4 L5,1 L1,1 L1,5 L4,5 L4,8 L0,8 Z " fill="#3C2C91" transform="translate(94,50)"/>
<path d="M0,0 L2,0 L2,7 L5,7 L5,9 L0,9 Z " fill="#6C53FE" transform="translate(31,68)"/>
<path d="M0,0 L7,1 L7,3 L4,3 L4,6 L0,4 Z " fill="#6041FA" transform="translate(120,50)"/>
<path d="M0,0 L9,0 L9,2 L4,4 L1,4 Z " fill="#684FFB" transform="translate(96,109)"/>
<path d="M0,0 L5,1 L8,2 L8,4 L2,4 L-1,1 Z " fill="#674FFA" transform="translate(65,47)"/>
<path d="M0,0 L3,1 L5,6 L0,6 L0,3 L-2,2 L0,2 Z " fill="#6B4DF7" transform="translate(105,45)"/>
<path d="M0,0 L4,0 L4,2 L2,2 L2,4 L-5,4 L-5,2 L0,2 Z " fill="#644DFE" transform="translate(106,113)"/>
<path d="M0,0 L9,1 L9,3 L2,3 L0,2 Z " fill="#785BFC" transform="translate(88,80)"/>
<path d="M0,0 L2,0 L2,8 L-2,8 L-2,6 L0,6 Z " fill="#6A58FE" transform="translate(111,113)"/>
<path d="M0,0 L7,0 L9,1 L9,3 L0,2 Z " fill="#715BFB" transform="translate(68,82)"/>
<path d="M0,0 L4,0 L4,6 L2,8 Z " fill="#6E56F1" transform="translate(84,78)"/>
<path d="M0,0 L3,0 L3,2 L6,2 L6,4 L0,4 Z " fill="#8373F2" transform="translate(44,118)"/>
<path d="M0,0 L7,0 L7,2 L2,2 L2,4 L0,4 Z " fill="#6D5BFE" transform="translate(121,111)"/>
<path d="M0,0 L2,0 L2,5 L-3,6 L-3,4 L0,4 Z " fill="#5D3BFA" transform="translate(131,61)"/>
<path d="M0,0 L4,0 L4,4 L0,4 Z " fill="#5539FE" transform="translate(93,143)"/>
<path d="M0,0 L4,0 L4,3 L-2,4 L0,3 Z " fill="#6F5AF5" transform="translate(54,123)"/>
<path d="M0,0 L4,0 L4,4 L0,4 Z " fill="#765EFF" transform="translate(63,109)"/>
<path d="M0,0 L4,0 L4,4 L0,4 Z " fill="#816CFC" transform="translate(85,96)"/>
<path d="M0,0 L4,0 L4,4 L0,4 Z " fill="#1B1632" transform="translate(90,96)"/>
<path d="M0,0 L4,0 L4,4 L0,4 Z " fill="#6C53FF" transform="translate(29,85)"/>
<path d="M0,0 L3,0 L4,5 L0,5 Z " fill="#2E207A" transform="translate(120,60)"/>
<path d="M0,0 L3,0 L4,5 L0,5 Z " fill="#32267B" transform="translate(50,60)"/>
<path d="M0,0 L2,0 L1,4 L-5,4 L-4,2 L0,2 Z " fill="#7153FE" transform="translate(94,63)"/>
<path d="M0,0 L4,1 L1,1 L1,3 L3,4 L0,5 L-1,7 Z " fill="#5D40E4" transform="translate(28,46)"/>
<path d="M0,0 L1,4 L4,5 L0,6 L-4,4 L0,4 Z " fill="#715CDA" transform="translate(94,96)"/>
<path d="M0,0 L2,0 L2,3 L-2,3 L-2,8 L-3,8 L-3,2 Z " fill="#5F47FB" transform="translate(137,79)"/>
<path d="M0,0 L2,1 L2,6 L-2,5 L1,5 L1,3 L-2,3 L-2,1 Z " fill="#5942D9" transform="translate(72,46)"/>
<path d="M0,0 L2,0 L3,6 L0,6 Z " fill="#5D3CFD" transform="translate(129,81)"/>
<path d="M0,0 L2,0 L2,3 L4,3 L4,5 L0,5 Z " fill="#644AFD" transform="translate(111,74)"/>
<path d="M0,0 L4,0 L3,4 L0,4 Z " fill="#7252FF" transform="translate(95,51)"/>
<path d="M0,0 L3,0 L3,3 L-2,3 L-2,1 Z " fill="#6250FD" transform="translate(115,126)"/>
<path d="M0,0 L4,0 L5,3 L0,3 Z " fill="#110E21" transform="translate(50,116)"/>
<path d="M0,0 L2,0 L1,5 L-2,5 Z " fill="#050410" transform="translate(129,97)"/>
<path d="M0,0 L3,0 L2,9 L1,9 Z " fill="#7057FE" transform="translate(142,85)"/>
<path d="M0,0 L2,0 L4,6 L1,6 Z " fill="#6C55FB" transform="translate(45,80)"/>
<path d="M0,0 L5,0 L5,2 L0,3 Z " fill="#6849FD" transform="translate(87,39)"/>
<path d="M0,0 L1,0 L1,6 L-2,6 L-2,3 L0,3 Z " fill="#6850FC" transform="translate(58,123)"/>
<path d="M0,0 L2,0 L2,4 L-2,4 L-2,2 L0,2 Z " fill="#7D67FF" transform="translate(57,113)"/>
<path d="M0,0 L5,1 L2,2 L1,5 Z " fill="#5F4EEE" transform="translate(126,113)"/>
<path d="M0,0 L1,4 L-3,4 L-2,1 Z " fill="#604EFD" transform="translate(135,102)"/>
<path d="M0,0 L1,2 L4,2 L4,4 L1,5 L-1,2 Z " fill="#745EF6" transform="translate(102,95)"/>
<path d="M0,0 L3,0 L3,3 L0,4 L-2,2 L0,2 Z " fill="#6242FA" transform="translate(112,35)"/>
<path d="M0,0 L3,0 L3,3 L-1,3 Z " fill="#604AF8" transform="translate(140,106)"/>
<path d="M0,0 L3,0 L2,4 L0,4 Z " fill="#7F6AFE" transform="translate(52,111)"/>
<path d="M0,0 L5,0 L2,3 L0,2 Z " fill="#7358FC" transform="translate(88,80)"/>
<path d="M0,0 L4,1 L3,3 L0,3 Z " fill="#3E3193" transform="translate(42,79)"/>
<path d="M0,0 L4,3 L0,4 Z " fill="#6352F7" transform="translate(111,109)"/>
<path d="M0,0 L2,0 L1,4 L-1,4 Z " fill="#6C4EFB" transform="translate(104,43)"/>
<path d="M0,0 L3,1 L2,3 L0,3 Z " fill="#7B68FC" transform="translate(87,91)"/>
</svg>
