<?xml version="1.0" encoding="UTF-8"?>
<!-- Generator: visioncortex VTracer 0.6.4 -->
<svg version="1.1" xmlns="http://www.w3.org/2000/svg" width="70" height="62">
<path d="M0,0 L70,0 L70,62 L0,62 Z " fill="#020100" transform="translate(0,0)"/>
<path d="M0,0 L5,0 L5,3 L8,4 L8,6 L5,6 L5,12 L7,12 L7,16 L-2,17 L-7,16 L-11,21 L-7,21 L-7,25 L-4,25 L-4,27 L3,26 L5,27 L4,25 L4,19 L18,18 L18,16 L12,17 L12,6 L16,6 L16,2 L20,2 L20,5 L25,5 L25,15 L21,15 L21,23 L17,23 L17,25 L15,25 L15,27 L7,27 L7,37 L-13,37 L-13,35 L-15,35 L-16,21 L-19,19 L-19,11 L-17,11 L-17,9 L-15,9 L-15,1 Z " fill="#BA5B46" transform="translate(31,11)"/>
<path d="M0,0 L5,0 L5,3 L8,4 L8,6 L5,6 L5,12 L7,12 L7,16 L-2,17 L-7,16 L-11,19 L-18,18 L-18,11 L-17,9 L-15,9 L-15,1 Z " fill="#B35D4B" transform="translate(31,11)"/>
<path d="M0,0 L11,0 L11,4 L13,4 L14,0 L14,2 L22,2 L22,3 L14,3 L14,5 L22,5 L24,9 L24,14 L24,18 L24,24 L26,24 L26,12 L30,12 L30,8 L36,8 L35,12 L35,9 L31,9 L31,13 L27,13 L27,24 L33,23 L33,25 L28,26 L19,26 L20,34 L11,34 L11,32 L8,32 L8,28 L4,28 L6,24 L10,22 L18,23 L22,23 L22,19 L20,19 L20,16 L16,15 L20,15 L20,13 L23,13 L20,10 L20,7 L15,8 L0,8 Z " fill="#724234" transform="translate(16,4)"/>
<path d="M0,0 L1,0 L1,7 L4,6 L4,8 L8,7 L8,10 L12,10 L12,14 L15,14 L15,16 L19,15 L19,17 L16,17 L16,22 L14,22 L14,19 L7,19 L6,20 L10,20 L10,24 L25,24 L25,16 L26,16 L26,26 L6,26 L6,24 L4,24 L3,10 L0,8 Z " fill="#9B493D" transform="translate(12,22)"/>
<path d="M0,0 L11,0 L11,4 L13,4 L14,0 L14,2 L22,2 L22,3 L14,3 L14,5 L22,5 L21,7 L14,6 L14,8 L0,8 Z " fill="#130907" transform="translate(16,4)"/>
<path d="M0,0 L4,0 L5,3 L8,4 L8,12 L3,11 L3,13 L-3,14 L-4,4 L0,4 Z " fill="#C6745C" transform="translate(47,13)"/>
<path d="M0,0 L4,2 L4,4 L10,4 L10,10 L6,12 L3,12 L3,10 L0,10 L0,6 L-4,6 L-2,2 Z " fill="#1C0D09" transform="translate(24,26)"/>
<path d="M0,0 L6,0 L6,7 L3,7 L4,12 L1,15 L-4,16 L-4,9 L0,9 Z " fill="#CB6A5C" transform="translate(17,13)"/>
<path d="M0,0 L1,0 L1,7 L4,6 L4,8 L8,7 L8,10 L12,10 L12,14 L15,14 L15,16 L19,15 L19,17 L16,17 L16,22 L14,22 L12,17 L9,17 L9,13 L6,10 L6,24 L4,24 L3,10 L0,8 Z " fill="#9F4433" transform="translate(12,22)"/>
<path d="M0,0 L1,0 L2,6 L7,7 L7,5 L10,6 L8,6 L8,14 L5,14 L4,16 L-2,17 L-3,11 L6,10 L6,8 L0,9 Z " fill="#B7664E" transform="translate(43,19)"/>
<path d="M0,0 L4,1 L5,5 L5,12 L1,13 L-2,15 L-6,15 L-6,13 L-2,10 L-2,5 L1,5 Z " fill="#BE5E4F" transform="translate(22,15)"/>
<path d="M0,0 L10,0 L10,6 L0,6 Z " fill="#833220" transform="translate(12,50)"/>
<path d="M0,0 L1,0 L1,6 L11,4 L11,6 L6,7 L-3,7 L-2,15 L-7,14 L-4,13 L-4,7 L-10,7 L-11,4 L0,4 Z " fill="#A05943" transform="translate(38,23)"/>
<path d="M0,0 L6,0 L6,10 L0,10 Z " fill="#A44240" transform="translate(4,18)"/>
<path d="M0,0 L10,0 L10,6 L0,6 Z " fill="#873D2B" transform="translate(16,4)"/>
<path d="M0,0 L1,0 L1,8 L-1,8 L-1,10 L-3,10 L-3,18 L0,19 L-2,20 L-5,19 L-5,17 L-11,17 L-11,16 L-5,16 L-5,6 L-2,7 L-2,5 L0,5 Z " fill="#1E0D0D" transform="translate(15,12)"/>
<path d="M0,0 L4,0 L4,10 L0,10 L0,18 L-4,18 L-4,20 L-6,20 L-6,22 L-14,22 L-14,20 L-5,19 L-4,16 L-1,17 L-1,9 L3,9 L3,1 Z " fill="#7F4839" transform="translate(52,16)"/>
<path d="M0,0 L4,0 L4,2 L7,3 L7,5 L4,6 L-4,6 L-4,2 Z " fill="#D77665" transform="translate(32,12)"/>
<path d="M0,0 L7,0 L7,4 L2,7 L0,7 Z " fill="#E77465" transform="translate(13,22)"/>
<path d="M0,0 L6,0 L7,6 L0,6 L-1,1 Z " fill="#D56E56" transform="translate(30,20)"/>
<path d="M0,0 L1,0 L1,7 L4,6 L4,8 L8,7 L6,10 L6,24 L4,24 L3,10 L0,8 Z " fill="#924439" transform="translate(12,22)"/>
<path d="M0,0 L3,1 L4,5 L4,17 L2,17 L0,8 L1,7 L1,2 Z " fill="#160C0A" transform="translate(38,11)"/>
<path d="M0,0 L7,0 L10,3 L10,8 L7,8 L8,13 L6,13 L6,10 L2,9 L6,9 L6,7 L9,7 L6,4 L6,1 L0,2 Z " fill="#964F3F" transform="translate(30,10)"/>
<path d="M0,0 L4,0 L6,6 L3,7 L3,5 L-4,6 L-4,4 L0,4 Z " fill="#BA715C" transform="translate(47,13)"/>
<path d="M0,0 L5,0 L5,4 L2,4 L2,6 L0,6 L0,4 L-3,4 L-3,2 L0,2 Z " fill="#000000" transform="translate(28,31)"/>
<path d="M0,0 L5,0 L5,6 L0,6 Z " fill="#843329" transform="translate(62,12)"/>
<path d="M0,0 L8,1 L9,11 L4,10 L7,9 L7,3 L1,3 Z " fill="#8F4534" transform="translate(27,27)"/>
<path d="M0,0 L1,3 L4,2 L8,3 L8,8 L4,8 L4,4 L0,4 Z " fill="#DA5E4A" transform="translate(18,38)"/>
<path d="M0,0 L4,1 L3,5 L7,4 L7,7 L1,7 Z " fill="#D55744" transform="translate(18,34)"/>
<path d="M0,0 L1,0 L1,8 L-1,8 L-1,10 L-3,10 L-3,15 L-4,15 L-4,7 L-2,7 L-2,5 L0,5 Z " fill="#140907" transform="translate(15,12)"/>
<path d="M0,0 L3,1 L1,1 L0,7 L-5,9 L-5,7 L-3,7 L-3,2 L0,2 Z " fill="#BC5B3F" transform="translate(31,37)"/>
<path d="M0,0 L6,0 L6,4 L0,5 Z " fill="#D17559" transform="translate(44,22)"/>
<path d="M0,0 L1,4 L-1,4 L-1,6 L-9,6 L-9,4 L0,3 Z " fill="#904338" transform="translate(47,32)"/>
<path d="M0,0 L3,0 L3,4 L5,5 L3,5 L3,7 L0,7 Z " fill="#BF6255" transform="translate(17,15)"/>
<path d="M0,0 L1,2 L4,2 L4,4 L6,4 L7,2 L7,5 L1,6 Z " fill="#BF604E" transform="translate(40,30)"/>
<path d="M0,0 L3,0 L3,6 L0,7 Z " fill="#C2584E" transform="translate(13,22)"/>
<path d="M0,0 L4,0 L5,6 L1,5 Z " fill="#D46B51" transform="translate(32,20)"/>
<path d="M0,0 L2,0 L2,5 L-4,6 L-3,4 L-1,4 Z " fill="#D66C4C" transform="translate(32,40)"/>
<path d="M0,0 L3,0 L3,7 L0,5 Z " fill="#984D3D" transform="translate(24,20)"/>
<path d="M0,0 L7,0 L9,2 L8,5 L6,4 L6,1 L0,2 Z " fill="#904E41" transform="translate(30,10)"/>
<path d="M0,0 L6,0 L5,4 L3,4 L3,2 L0,2 Z " fill="#D06E5A" transform="translate(41,30)"/>
<path d="M0,0 L2,0 L2,4 L-3,4 L-2,1 Z " fill="#EF8874" transform="translate(33,13)"/>
<path d="M0,0 L4,1 L4,5 L1,5 Z " fill="#B75F50" transform="translate(22,15)"/>
<path d="M0,0 L6,0 L6,3 L0,2 Z " fill="#9F3C26" transform="translate(19,5)"/>
<path d="M0,0 L5,1 L5,4 L2,4 L2,2 L0,2 Z " fill="#CB5F46" transform="translate(32,38)"/>
<path d="M0,0 L3,0 L2,5 L0,5 Z " fill="#D76751" transform="translate(35,30)"/>
<path d="M0,0 L4,0 L4,3 L0,3 Z " fill="#C97A64" transform="translate(47,13)"/>
<path d="M0,0 L4,0 L4,3 L0,2 Z " fill="#C06351" transform="translate(47,30)"/>
<path d="M0,0 L4,0 L4,3 L1,3 Z " fill="#B15A44" transform="translate(34,27)"/>
<path d="M0,0 L4,0 L4,3 L0,2 Z " fill="#C96652" transform="translate(32,20)"/>
<path d="M0,0 L3,0 L3,3 L0,3 Z " fill="#F16D59" transform="translate(22,43)"/>
<path d="M0,0 L1,3 L-2,4 L-2,1 Z " fill="#CE6157" transform="translate(15,25)"/>
<path d="M0,0 L3,0 L1,4 Z " fill="#AC5045" transform="translate(20,26)"/>
<path d="M0,0 L3,1 L3,3 L0,3 Z " fill="#C06A57" transform="translate(36,14)"/>
</svg>
