<?xml version="1.0" encoding="UTF-8"?>
<!-- Generator: visioncortex VTracer 0.6.4 -->
<svg version="1.1" xmlns="http://www.w3.org/2000/svg" width="58" height="62">
<path d="M0,0 L58,0 L58,62 L0,62 Z " fill="#030202" transform="translate(0,0)"/>
<path d="M0,0 L10,1 L10,11 L2,10 L2,15 L10,15 L10,17 L18,17 L18,25 L26,25 L26,31 L24,31 L24,33 L20,33 L20,41 L6,41 L6,39 L0,39 L0,43 L7,43 L8,44 L8,51 L3,51 L0,49 L0,45 L-6,45 L-6,47 L-2,47 L-2,53 L-12,53 L-12,38 L-6,37 L-6,35 L-20,36 L-20,29 L-13,29 L-13,25 L-2,25 L-2,23 L-4,23 L-4,17 L-10,17 L-10,7 L0,7 Z " fill="#A27B7A" transform="translate(22,3)"/>
<path d="M0,0 L12,0 L12,5 L18,5 L18,7 L21,7 L21,9 L12,9 L12,20 L18,20 L18,26 L20,26 L20,28 L9,28 L9,32 L2,32 L2,39 L0,39 Z " fill="#030202" transform="translate(0,0)"/>
<path d="M0,0 L9,0 L10,7 L18,8 L18,10 L26,10 L26,17 L17,16 L17,27 L15,27 L16,20 L9,20 L9,26 L11,26 L11,24 L13,24 L12,29 L8,29 L7,35 L4,35 L5,29 L6,18 L8,18 L8,15 L5,15 L5,8 L0,8 Z " fill="#D5A1A7" transform="translate(13,11)"/>
<path d="M0,0 L10,1 L10,11 L2,10 L2,15 L10,15 L10,17 L18,17 L18,25 L26,25 L26,31 L24,31 L24,27 L17,27 L17,33 L10,33 L10,27 L12,27 L12,24 L17,25 L17,18 L9,18 L9,16 L1,16 L0,15 L0,8 L-9,8 L-9,16 L-4,16 L-4,17 L-10,17 L-10,7 L0,7 Z " fill="#896264" transform="translate(22,3)"/>
<path d="M0,0 L1,3 L-9,3 L-9,11 L-5,11 L-5,9 L-2,9 L-3,15 L-5,15 L-5,21 L-7,21 L-6,24 L-4,22 L-4,24 L0,24 L0,30 L-10,30 L-10,15 L-4,14 L-4,12 L-18,13 L-18,6 L-11,6 L-11,2 L0,2 Z " fill="#8A554D" transform="translate(20,26)"/>
<path d="M0,0 L8,0 L9,6 L6,17 L9,17 L10,12 L17,12 L17,13 L11,13 L11,17 L18,17 L19,18 L19,25 L14,25 L11,23 L11,19 L4,19 L3,22 L2,18 L4,18 L4,12 L6,12 L7,6 L4,6 L4,8 L0,8 Z " fill="#B58482" transform="translate(11,29)"/>
<path d="M0,0 L9,0 L10,7 L18,8 L18,10 L22,11 L18,11 L18,13 L13,13 L13,11 L17,11 L17,9 L7,10 L7,13 L9,13 L9,15 L5,15 L5,8 L0,8 Z " fill="#BB8788" transform="translate(13,11)"/>
<path d="M0,0 L1,3 L-9,3 L-9,11 L-5,11 L-5,9 L-2,9 L-2,12 L-18,13 L-18,6 L-11,6 L-11,2 L0,2 Z " fill="#231714" transform="translate(20,26)"/>
<path d="M0,0 L4,0 L3,7 L1,7 L1,10 L4,10 L2,15 L0,15 L0,13 L-5,13 L-4,8 L-6,8 L-6,10 L-8,10 L-8,4 L-1,4 L-2,11 L0,11 Z " fill="#C89997" transform="translate(30,27)"/>
<path d="M0,0 L14,1 L14,7 L12,7 L12,3 L5,3 L5,9 L-2,9 L-2,3 L0,3 Z " fill="#92727A" transform="translate(34,27)"/>
<path d="M0,0 L7,0 L7,1 L1,1 L1,5 L8,5 L9,6 L9,13 L4,13 L1,11 L1,7 L-5,7 L-5,6 L0,6 Z " fill="#8E6761" transform="translate(21,41)"/>
<path d="M0,0 L2,3 L7,4 L7,5 L1,5 L1,11 L3,11 L3,9 L5,9 L4,14 L0,14 L-1,20 L-4,20 L-3,14 L-2,3 L0,3 Z " fill="#CA9693" transform="translate(21,26)"/>
<path d="M0,0 L7,0 L6,5 L2,5 L2,13 L-3,13 L-3,8 L0,8 Z " fill="#CB9EA3" transform="translate(39,30)"/>
<path d="M0,0 L9,0 L9,7 L6,7 L6,5 L0,5 Z " fill="#0E0B0B" transform="translate(12,0)"/>
<path d="M0,0 L7,0 L7,13 L5,13 L5,6 L-1,4 Z " fill="#E8AEAD" transform="translate(23,25)"/>
<path d="M0,0 L7,0 L8,6 L3,5 L2,8 L0,8 Z " fill="#DCA7A8" transform="translate(13,11)"/>
<path d="M0,0 L7,1 L7,7 L0,7 Z " fill="#C9A3A7" transform="translate(23,4)"/>
<path d="M0,0 L6,0 L6,2 L20,2 L20,3 L0,4 Z " fill="#1A1313" transform="translate(22,42)"/>
<path d="M0,0 L6,1 L7,5 L6,6 L0,6 Z " fill="#6B3326" transform="translate(49,44)"/>
<path d="M0,0 L1,3 L-9,3 L-9,11 L-5,11 L-5,9 L-2,9 L-2,12 L-10,12 L-10,2 L0,2 Z " fill="#83605F" transform="translate(20,26)"/>
<path d="M0,0 L4,0 L4,10 L-4,9 L-5,13 L-5,8 L2,8 L2,1 Z " fill="#6F4C4E" transform="translate(28,4)"/>
<path d="M0,0 L6,0 L6,2 L2,2 L2,5 L-2,6 L-2,4 L-4,4 L-4,1 Z " fill="#E0A4A4" transform="translate(24,20)"/>
<path d="M0,0 L6,0 L6,4 L14,6 L14,7 L8,7 L6,6 L4,8 L4,2 L0,2 Z " fill="#1A100F" transform="translate(16,48)"/>
<path d="M0,0 L7,0 L7,1 L1,1 L1,5 L8,5 L8,6 L3,7 L3,11 L1,11 L1,7 L-5,7 L-5,6 L0,6 Z " fill="#6E504E" transform="translate(21,41)"/>
<path d="M0,0 L10,0 L10,3 L0,3 Z " fill="#8B5144" transform="translate(22,59)"/>
<path d="M0,0 L5,0 L4,5 L3,7 L0,7 Z " fill="#CB9A97" transform="translate(11,29)"/>
<path d="M0,0 L4,1 L4,8 L6,8 L6,10 L2,10 L2,3 L-1,2 Z " fill="#AB7A7A" transform="translate(16,16)"/>
<path d="M0,0 L5,0 L5,5 L0,6 Z " fill="#7E584A" transform="translate(3,32)"/>
<path d="M0,0 L2,0 L2,6 L-4,6 L-4,4 L-2,4 Z " fill="#2A2021" transform="translate(36,30)"/>
<path d="M0,0 L6,0 L6,3 L2,3 L2,6 L0,6 Z " fill="#B2837E" transform="translate(22,31)"/>
<path d="M0,0 L7,0 L7,2 L5,2 L5,4 L0,4 Z " fill="#D4A9B2" transform="translate(39,30)"/>
<path d="M0,0 L6,0 L6,4 L0,4 Z " fill="#746760" transform="translate(12,0)"/>
<path d="M0,0 L1,0 L1,5 L-6,5 L-6,1 L-3,1 L-3,3 L0,3 Z " fill="#C68E8F" transform="translate(29,6)"/>
<path d="M0,0 L2,0 L1,5 L-4,4 L-4,1 L0,2 Z " fill="#E4AAA5" transform="translate(24,35)"/>
<path d="M0,0 L1,2 L8,2 L8,4 L5,4 L5,9 L3,5 L3,3 L0,3 Z " fill="#AA8285" transform="translate(31,34)"/>
<path d="M0,0 L1,4 L0,7 L2,8 L-3,9 L-2,4 L-4,3 L0,3 Z " fill="#D39F9C" transform="translate(28,31)"/>
<path d="M0,0 L4,0 L3,6 L0,6 Z " fill="#CD9B9E" transform="translate(30,27)"/>
<path d="M0,0 L7,0 L3,1 L3,4 L-1,4 Z " fill="#F8B6B3" transform="translate(23,25)"/>
<path d="M0,0 L5,0 L5,4 L1,4 Z " fill="#CB9D97" transform="translate(24,48)"/>
<path d="M0,0 L3,0 L4,3 L-1,7 L-2,3 L0,3 Z " fill="#9C797E" transform="translate(34,27)"/>
<path d="M0,0 L4,0 L4,4 L-1,4 Z " fill="#F3BEC8" transform="translate(34,22)"/>
<path d="M0,0 L1,3 L5,3 L5,1 L8,1 L8,4 L0,4 Z " fill="#5F4443" transform="translate(10,34)"/>
<path d="M0,0 L5,0 L6,6 L2,4 L3,2 Z " fill="#D39A9B" transform="translate(15,11)"/>
<path d="M0,0 L2,0 L2,5 L-1,5 Z " fill="#ECB4B1" transform="translate(18,41)"/>
<path d="M0,0 L2,0 L1,6 L-1,6 Z " fill="#DDABA9" transform="translate(13,30)"/>
<path d="M0,0 L4,1 L4,4 L1,4 Z " fill="#E4B0B4" transform="translate(36,38)"/>
<path d="M0,0 L3,0 L3,4 L0,4 Z " fill="#CB917D" transform="translate(4,33)"/>
<path d="M0,0 L2,0 L2,4 L-2,3 Z " fill="#110D0D" transform="translate(35,31)"/>
<path d="M0,0 L4,0 L4,3 L0,3 Z " fill="#B58885" transform="translate(24,31)"/>
<path d="M0,0 L4,0 L4,3 L0,3 Z " fill="#BFB3A8" transform="translate(13,0)"/>
<path d="M0,0 L3,0 L2,3 L0,3 Z " fill="#D09597" transform="translate(13,16)"/>
<path d="M0,0 L3,0 L2,3 L0,3 Z " fill="#D8A4A7" transform="translate(15,13)"/>
</svg>
