<?xml version="1.0" encoding="UTF-8"?>
<!-- Generator: visioncortex VTracer 0.6.4 -->
<svg version="1.1" xmlns="http://www.w3.org/2000/svg" width="64" height="44">
<path d="M0,0 L64,0 L64,44 L0,44 Z " fill="#000102" transform="translate(0,0)"/>
<path d="M0,0 L28,0 L28,6 L26,6 L26,14 L20,14 L20,20 L16,20 L16,22 L10,22 L10,28 L6,28 L6,30 L20,30 L20,36 L0,36 L0,30 L-4,30 L-5,20 L-6,19 L-6,14 L-4,14 L-4,8 L0,8 Z " fill="#416296" transform="translate(8,0)"/>
<path d="M0,0 L12,0 L12,2 L16,3 L20,4 L20,24 L16,24 L16,32 L10,32 L10,22 L8,22 L8,20 L6,20 L6,22 L0,22 L0,20 L-4,20 L-4,14 L0,14 Z " fill="#354975" transform="translate(40,0)"/>
<path d="M0,0 L5,0 L5,2 L12,1 L10,6 L15,6 L15,7 L9,7 L9,13 L5,13 L5,15 L19,15 L19,21 L-1,21 L-1,15 L-5,15 L-6,4 L-4,4 L-4,14 L-1,14 Z " fill="#2C4166" transform="translate(9,15)"/>
<path d="M0,0 L12,0 L12,5 L8,5 L8,7 L12,8 L12,11 L8,10 L8,13 L12,13 L12,17 L7,18 L7,16 L3,15 L3,18 L-1,18 L-1,16 L-5,16 L-5,12 L-2,11 Z " fill="#405C95" transform="translate(42,3)"/>
<path d="M0,0 L28,0 L28,6 L26,6 L26,14 L20,14 L20,13 L25,13 L25,9 L19,8 L19,10 L14,10 L14,2 L11,2 L11,4 L6,4 L5,1 L1,1 L2,11 L0,11 L0,9 L-3,9 L-2,13 L0,14 L0,16 L-5,15 L-6,19 L-6,14 L-4,14 L-4,8 L0,8 Z " fill="#3C557E" transform="translate(8,0)"/>
<path d="M0,0 L4,0 L4,12 L0,12 L1,14 L1,21 L-3,21 L-3,12 L-6,12 L-6,10 L-8,10 L-8,12 L-14,12 L-14,10 L-18,10 L-18,4 L-14,5 L-17,5 L-17,9 L-13,9 L-13,11 L-9,11 L-9,8 L-4,8 L-5,11 L0,10 L0,6 L-4,6 L-4,3 L0,4 Z " fill="#3A5288" transform="translate(54,10)"/>
<path d="M0,0 L8,0 L8,8 L4,8 L4,14 L2,14 L4,20 L4,30 L3,30 L3,21 L1,21 L1,30 L0,30 Z " fill="#020304" transform="translate(0,0)"/>
<path d="M0,0 L3,0 L3,2 L5,1 L13,1 L13,5 L4,6 L4,18 L3,20 L0,20 L0,10 L-2,10 L-2,6 L3,7 L3,5 L0,4 Z " fill="#445F92" transform="translate(5,9)"/>
<path d="M0,0 L3,0 L3,4 L17,4 L17,8 L-1,8 Z " fill="#355286" transform="translate(10,27)"/>
<path d="M0,0 L17,0 L17,4 L11,2 L11,4 L6,4 L5,1 L1,1 L2,11 L0,11 L0,9 L-3,9 L-2,13 L0,14 L0,16 L-5,15 L-6,19 L-6,14 L-4,14 L-4,8 L0,8 Z " fill="#33456A" transform="translate(8,0)"/>
<path d="M0,0 L4,0 L4,14 L0,14 L0,20 L-1,20 L-2,14 L-2,6 L0,6 Z " fill="#0A0E16" transform="translate(36,0)"/>
<path d="M0,0 L1,0 L1,20 L-3,20 L-3,28 L-9,28 L-9,18 L-8,18 L-8,27 L-4,27 L-5,18 L-1,18 L-1,3 Z " fill="#27375A" transform="translate(59,4)"/>
<path d="M0,0 L6,1 L6,5 L1,6 L0,11 L-2,11 L-2,7 L-5,7 L-7,2 L0,2 Z " fill="#4B6CA7" transform="translate(27,8)"/>
<path d="M0,0 L12,0 L12,4 L1,4 L1,8 L-1,8 Z " fill="#526EAD" transform="translate(42,3)"/>
<path d="M0,0 L4,0 L5,2 L9,4 L5,4 L5,6 L9,6 L9,8 L1,9 L0,7 Z " fill="#395887" transform="translate(9,1)"/>
<path d="M0,0 L3,0 L3,3 L6,3 L6,7 L8,7 L8,2 L9,2 L9,8 L0,9 L1,5 L-1,5 Z " fill="#3F5B8E" transform="translate(19,12)"/>
<path d="M0,0 L1,0 L1,5 L3,5 L3,0 L4,0 L4,6 L2,6 L4,12 L4,22 L3,22 L3,13 L1,13 L1,22 L0,22 Z " fill="#07090E" transform="translate(0,8)"/>
<path d="M0,0 L6,2 L6,6 L1,7 L1,5 L-6,4 L-6,1 Z " fill="#4863A6" transform="translate(48,14)"/>
<path d="M0,0 L8,0 L9,4 L7,5 L0,5 Z " fill="#4F6A9E" transform="translate(26,2)"/>
<path d="M0,0 L4,0 L4,8 L0,7 L-4,6 L-4,3 L0,4 Z " fill="#3B528B" transform="translate(54,10)"/>
<path d="M0,0 L6,0 L6,1 L1,1 L1,3 L5,3 L5,5 L2,6 L10,7 L10,8 L-4,8 L-4,6 L0,6 Z " fill="#090D15" transform="translate(18,22)"/>
<path d="M0,0 L11,0 L11,4 L5,2 L5,4 L0,4 Z " fill="#2E4062" transform="translate(14,0)"/>
<path d="M0,0 L3,0 L3,11 L-1,11 Z " fill="#020304" transform="translate(36,0)"/>
<path d="M0,0 L4,0 L4,2 L8,2 L8,4 L2,4 L2,10 L0,10 Z " fill="#0C111B" transform="translate(10,16)"/>
<path d="M0,0 L9,0 L9,4 L1,4 Z " fill="#3D5C92" transform="translate(18,31)"/>
<path d="M0,0 L7,0 L6,5 L3,6 L3,4 L1,4 L0,6 Z " fill="#05070C" transform="translate(28,14)"/>
<path d="M0,0 L6,0 L7,4 L3,3 L2,5 L-5,5 L-5,4 L0,4 Z " fill="#4765AA" transform="translate(47,10)"/>
<path d="M0,0 L5,0 L5,3 L8,3 L8,6 L4,6 L4,4 L0,4 Z " fill="#446099" transform="translate(37,15)"/>
<path d="M0,0 L4,0 L4,4 L-3,5 L-3,1 Z " fill="#486BA9" transform="translate(14,10)"/>
<path d="M0,0 L6,1 L6,5 L0,6 Z " fill="#496698" transform="translate(27,8)"/>
<path d="M0,0 L2,0 L2,2 L4,2 L4,12 L3,12 L3,3 L0,4 L-6,3 L-6,2 L0,2 Z " fill="#0B0F19" transform="translate(46,20)"/>
<path d="M0,0 L5,0 L4,6 L0,5 Z " fill="#405D95" transform="translate(13,21)"/>
<path d="M0,0 L1,4 L-6,4 L-6,1 Z " fill="#4A68AE" transform="translate(48,14)"/>
<path d="M0,0 L3,0 L2,7 L-1,7 Z " fill="#3E5D95" transform="translate(10,27)"/>
<path d="M0,0 L3,1 L1,2 L0,7 L-4,7 L-5,4 L0,4 Z " fill="#4766A2" transform="translate(18,10)"/>
<path d="M0,0 L8,0 L8,6 L6,3 L0,2 Z " fill="#2E3C5A" transform="translate(28,0)"/>
<path d="M0,0 L2,0 L3,5 L-2,5 L-1,1 Z " fill="#44629B" transform="translate(21,16)"/>
<path d="M0,0 L3,0 L2,7 L0,7 Z " fill="#4B6CA3" transform="translate(6,22)"/>
<path d="M0,0 L2,0 L2,4 L-5,5 L-4,2 Z " fill="#405993" transform="translate(45,10)"/>
<path d="M0,0 L8,0 L5,1 L5,3 L8,4 L3,3 L0,2 Z " fill="#080A11" transform="translate(52,0)"/>
<path d="M0,0 L4,0 L4,3 L2,3 L2,6 L0,6 Z " fill="#496198" transform="translate(9,1)"/>
<path d="M0,0 L7,1 L7,3 L0,3 Z " fill="#070A10" transform="translate(11,17)"/>
<path d="M0,0 L7,0 L6,3 L1,2 Z " fill="#4E6FAF" transform="translate(20,10)"/>
<path d="M0,0 L4,0 L4,4 L0,4 Z " fill="#0A0D15" transform="translate(14,0)"/>
<path d="M0,0 L3,1 L3,3 L-2,2 L-3,6 L-3,1 Z " fill="#394F7A" transform="translate(5,13)"/>
<path d="M0,0 L3,0 L3,5 L0,4 Z " fill="#4D68A3" transform="translate(5,9)"/>
<path d="M0,0 L5,1 L4,4 L0,3 Z " fill="#4C689F" transform="translate(3,15)"/>
<path d="M0,0 L3,0 L1,5 L-2,4 L0,4 Z " fill="#45629D" transform="translate(43,7)"/>
<path d="M0,0 L4,0 L4,3 L0,3 Z " fill="#4E78C3" transform="translate(14,10)"/>
<path d="M0,0 L3,0 L3,4 L0,4 Z " fill="#4B67A1" transform="translate(19,2)"/>
<path d="M0,0 L5,1 L1,3 L-2,3 L-2,1 Z " fill="#425688" transform="translate(13,3)"/>
<path d="M0,0 L4,1 L4,3 L0,3 Z " fill="#3F5594" transform="translate(50,13)"/>
<path d="M0,0 L3,1 L3,4 L-1,2 Z " fill="#435F9F" transform="translate(51,10)"/>
<path d="M0,0 L3,0 L3,3 L0,4 Z " fill="#44639A" transform="translate(27,10)"/>
<path d="M0,0 L3,0 L3,3 L0,3 Z " fill="#4E6BB4" transform="translate(51,17)"/>
<path d="M0,0 L3,0 L3,3 L0,3 Z " fill="#5271BA" transform="translate(42,15)"/>
<path d="M0,0 L3,0 L3,3 L0,2 Z " fill="#4B67A7" transform="translate(42,18)"/>
<path d="M0,0 L2,0 L2,3 L-1,3 Z " fill="#4863A2" transform="translate(40,15)"/>
<path d="M0,0 L2,0 L2,3 L-1,3 Z " fill="#4D6DAC" transform="translate(31,10)"/>
<path d="M0,0 L3,1 L3,3 L0,3 Z " fill="#5A76B2" transform="translate(26,2)"/>
</svg>
