<?xml version="1.0" encoding="UTF-8"?>
<!-- Generator: visioncortex VTracer 0.6.4 -->
<svg version="1.1" xmlns="http://www.w3.org/2000/svg" width="96" height="82">
<path d="M0,0 L96,0 L96,82 L0,82 Z " fill="#010202" transform="translate(0,0)"/>
<path d="M0,0 L16,0 L16,4 L32,4 L32,10 L38,10 L38,12 L44,12 L44,16 L46,16 L47,11 L50,10 L50,8 L60,8 L60,10 L64,10 L64,16 L68,16 L68,36 L74,36 L74,42 L68,42 L68,40 L56,40 L56,38 L54,38 L54,34 L52,34 L52,28 L48,28 L48,26 L43,25 L42,22 L36,22 L36,20 L32,20 L32,32 L20,32 L20,20 L16,20 L16,28 L10,28 L10,30 L8,30 L8,42 L10,42 L10,48 L-6,48 L-6,36 L-4,36 L-4,32 L-8,32 L-8,22 L-4,22 L-4,14 L-8,14 L-8,8 L-4,8 L-2,4 L0,4 Z " fill="#829C8C" transform="translate(14,4)"/>
<path d="M0,0 L8,0 L8,3 L25,3 L25,9 L31,9 L31,12 L36,12 L36,16 L29,18 L25,18 L25,16 L23,16 L24,18 L24,30 L14,30 L14,19 L16,19 L16,17 L6,18 L4,21 L8,22 L8,26 L-2,25 L-2,27 L-5,27 L-5,23 L-3,23 L-3,17 L-1,17 L-5,10 L-5,7 L-3,7 L-1,3 Z " fill="#6F9183" transform="translate(21,5)"/>
<path d="M0,0 L16,0 L15,4 L15,1 L7,1 L6,5 L4,8 L2,8 L5,15 L6,18 L4,18 L4,24 L2,24 L2,28 L5,28 L5,42 L6,47 L-5,47 L-5,37 L-3,36 L-3,32 L-8,32 L-8,22 L-4,22 L-4,14 L-8,14 L-8,8 L-4,8 L-2,4 L0,4 Z " fill="#719681" transform="translate(14,4)"/>
<path d="M0,0 L7,0 L12,2 L12,6 L16,6 L17,8 L17,27 L6,27 L5,22 L7,16 L6,11 L2,12 L2,7 L0,7 Z " fill="#86A08C" transform="translate(64,16)"/>
<path d="M0,0 L8,0 L9,3 L18,4 L18,6 L16,6 L16,14 L3,17 L-1,17 L-5,10 L-5,7 L-3,7 L-1,3 Z " fill="#7C9783" transform="translate(21,5)"/>
<path d="M0,0 L6,0 L6,4 L8,4 L9,0 L10,5 L2,6 L5,5 L5,1 L0,1 Z M-8,5 L-6,5 L-6,7 L2,6 L-1,7 L-1,9 L4,9 L4,10 L-2,10 L-2,8 L-6,8 L-6,20 L-18,20 L-18,8 L-22,8 L-22,16 L-28,16 L-28,18 L-30,18 L-30,30 L-28,30 L-28,36 L-44,36 L-44,24 L-42,24 L-41,20 L-40,26 L-43,25 L-43,35 L-32,35 L-34,30 L-34,18 L-33,14 L-23,15 L-25,10 L-27,10 L-25,6 L-15,6 L-15,8 L-17,8 L-17,19 L-7,19 Z " fill="#5F7667" transform="translate(52,16)"/>
<path d="M0,0 L16,0 L15,4 L15,1 L7,1 L6,5 L4,8 L2,8 L2,18 L-1,18 L-1,25 L1,25 L1,31 L-1,28 L-3,23 L-7,23 L-7,31 L-4,32 L-8,32 L-8,22 L-4,22 L-4,14 L-8,14 L-8,8 L-4,8 L-2,4 L0,4 Z " fill="#698A79" transform="translate(14,4)"/>
<path d="M0,0 L12,1 L18,3 L18,7 L11,9 L7,9 L7,7 L5,7 L6,9 L6,21 L0,21 L0,19 L4,19 L4,10 L1,10 L0,8 Z " fill="#789588" transform="translate(39,14)"/>
<path d="M0,0 L10,0 L10,4 L12,4 L12,10 L10,10 L10,14 L2,14 L2,12 L0,12 Z " fill="#7D9986" transform="translate(36,42)"/>
<path d="M0,0 L7,0 L12,2 L12,9 L16,10 L16,13 L10,14 L9,11 L4,9 L0,7 Z " fill="#90A894" transform="translate(64,16)"/>
<path d="M0,0 L10,0 L10,2 L14,2 L14,8 L18,8 L18,28 L24,28 L24,34 L18,34 L18,32 L6,32 L6,31 L17,31 L16,10 L12,10 L12,4 L8,4 L8,1 L1,1 L1,3 L-3,4 L-2,2 L0,2 Z " fill="#5D6F5F" transform="translate(64,12)"/>
<path d="M0,0 L4,0 L7,5 L6,12 L8,12 L6,22 L11,22 L10,24 L2,24 L2,14 L4,13 L3,9 L0,8 Z " fill="#819A8B" transform="translate(7,27)"/>
<path d="M0,0 L5,1 L14,5 L13,10 L5,10 L2,10 L-2,10 L-2,3 Z " fill="#8AAF97" transform="translate(21,8)"/>
<path d="M0,0 L4,1 L4,3 L6,3 L7,0 L9,1 L7,4 L11,5 L11,9 L1,8 L1,10 L-2,10 L-2,6 L0,6 Z " fill="#6C8C78" transform="translate(18,22)"/>
<path d="M0,0 L3,0 L3,5 L8,5 L8,12 L4,12 L4,14 L0,14 L0,3 L2,3 L2,1 Z " fill="#71907A" transform="translate(35,21)"/>
<path d="M0,0 L16,0 L15,4 L15,1 L7,1 L7,4 L2,4 L1,7 L1,5 L-1,5 L0,9 L-5,10 L-7,9 L-7,13 L-4,14 L-8,14 L-8,8 L-4,8 L-2,4 L0,4 Z " fill="#5B6E62" transform="translate(14,4)"/>
<path d="M0,0 L6,0 L6,3 L2,3 L2,14 L1,20 L0,20 L0,14 L-2,14 L-2,2 L0,2 Z " fill="#090B0A" transform="translate(24,32)"/>
<path d="M0,0 L2,1 L3,2 L6,3 L4,3 L4,5 L8,5 L8,3 L12,4 L12,6 L14,7 L12,7 L10,16 L9,12 L7,12 L7,6 L3,6 L3,4 L-2,3 L-3,1 Z " fill="#6F8776" transform="translate(59,26)"/>
<path d="M0,0 L6,1 L12,4 L12,6 L16,5 L16,7 L13,7 L13,9 L9,9 L8,7 L5,6 L5,5 L2,5 L2,3 L-3,3 L-3,1 Z " fill="#7E9A88" transform="translate(54,22)"/>
<path d="M0,0 L8,0 L8,8 L0,8 Z " fill="#5A7869" transform="translate(80,56)"/>
<path d="M0,0 L0,3 L-1,10 L6,8 L6,10 L12,10 L12,12 L4,14 L0,14 L-4,7 L-4,4 L-2,4 Z " fill="#7BA18D" transform="translate(20,8)"/>
<path d="M0,0 L4,0 L4,3 L2,4 L3,9 L10,9 L10,12 L-1,12 L-2,7 Z " fill="#7F9A87" transform="translate(71,31)"/>
<path d="M0,0 L10,0 L10,4 L12,4 L12,10 L10,10 L10,14 L2,14 L2,13 L9,13 L8,11 L8,4 L9,1 L1,1 L1,12 L0,12 Z " fill="#63796B" transform="translate(36,42)"/>
<path d="M0,0 L10,0 L10,6 L0,6 Z " fill="#6C8474" transform="translate(66,46)"/>
<path d="M0,0 L3,0 L3,14 L4,19 L1,18 L-3,17 L-1,11 Z " fill="#73917C" transform="translate(16,32)"/>
<path d="M0,0 L16,0 L16,6 L22,6 L21,8 L14,7 L9,4 L9,1 L0,1 Z " fill="#5E7368" transform="translate(30,8)"/>
<path d="M0,0 L5,0 L11,2 L11,5 L-4,5 L-3,2 L0,2 Z " fill="#829A8E" transform="translate(46,15)"/>
<path d="M0,0 L2,0 L2,11 L4,11 L4,17 L2,14 L0,9 L-4,9 L-4,17 L-1,18 L-5,18 L-5,8 L0,8 Z " fill="#718781" transform="translate(11,18)"/>
<path d="M0,0 L8,0 L8,1 L3,1 L3,10 L-3,10 L-4,12 L-5,8 L2,9 L0,4 L-2,4 Z " fill="#5E7969" transform="translate(27,22)"/>
<path d="M0,0 L2,0 L2,2 L4,2 L5,0 L6,2 L6,14 L0,14 L0,12 L4,12 L4,3 L1,3 Z " fill="#779483" transform="translate(39,21)"/>
<path d="M0,0 L7,0 L7,2 L5,2 L5,10 L0,10 L2,8 L3,4 L0,3 Z " fill="#789782" transform="translate(32,9)"/>
<path d="M0,0 L4,0 L5,7 L3,9 L0,8 Z " fill="#849396" transform="translate(7,27)"/>
<path d="M0,0 L4,1 L5,8 L-1,8 Z " fill="#809C8B" transform="translate(40,47)"/>
<path d="M0,0 L6,0 L6,4 L-11,3 L-11,2 L0,2 Z " fill="#607A68" transform="translate(81,41)"/>
<path d="M0,0 L6,0 L8,3 L8,6 L3,6 L4,3 L0,3 Z " fill="#9FB8A7" transform="translate(65,16)"/>
<path d="M0,0 L7,0 L7,3 L11,3 L11,5 L6,4 L-2,4 L-2,2 L0,2 Z " fill="#879E8E" transform="translate(65,13)"/>
<path d="M0,0 L3,0 L3,12 L0,12 L0,3 L2,3 L2,1 Z " fill="#668372" transform="translate(35,21)"/>
<path d="M0,0 L4,0 L4,2 L10,2 L10,3 L4,3 L3,5 L1,4 L1,12 L0,12 Z " fill="#141816" transform="translate(46,24)"/>
<path d="M0,0 L2,3 L1,6 L-5,5 L-5,9 L-2,10 L-6,10 L-6,4 L-2,4 Z " fill="#51685D" transform="translate(12,8)"/>
<path d="M0,0 L1,3 L5,3 L6,8 L7,10 L3,8 L0,7 Z " fill="#8EA697" transform="translate(64,16)"/>
<path d="M0,0 L4,0 L4,4 L1,4 L1,6 L-2,6 L-2,2 L0,2 Z " fill="#6F9179" transform="translate(18,26)"/>
<path d="M0,0 L5,1 L4,13 L3,13 L3,4 L0,4 Z " fill="#667E79" transform="translate(7,13)"/>
<path d="M0,0 L4,1 L8,2 L8,4 L-1,5 Z " fill="#93B898" transform="translate(22,10)"/>
<path d="M0,0 L0,3 L0,12 L-3,10 L-4,4 L-2,4 Z " fill="#7CA285" transform="translate(20,8)"/>
<path d="M0,0 L10,1 L10,4 L5,4 L5,2 L0,2 Z " fill="#799481" transform="translate(71,39)"/>
<path d="M0,0 L1,0 L1,11 L-1,14 L0,7 L-2,7 L-1,3 Z " fill="#7B9482" transform="translate(15,32)"/>
<path d="M0,0 L5,0 L5,3 L-3,3 L-6,1 Z " fill="#85A191" transform="translate(52,17)"/>
<path d="M0,0 L2,2 L1,11 L-1,10 Z " fill="#859D8E" transform="translate(12,30)"/>
<path d="M0,0 L2,0 L3,7 L0,7 L0,5 L-4,4 L1,4 Z " fill="#96AF9A" transform="translate(72,18)"/>
<path d="M0,0 L6,0 L6,3 L0,3 Z M-1,3 Z " fill="#080B09" transform="translate(24,32)"/>
<path d="M0,0 L3,0 L4,4 L7,4 L7,6 L2,6 L2,1 Z " fill="#69877C" transform="translate(36,20)"/>
<path d="M0,0 L4,0 L5,4 L0,3 Z " fill="#869C87" transform="translate(76,22)"/>
<path d="M0,0 L3,1 L3,6 L0,5 Z " fill="#7B9183" transform="translate(61,16)"/>
<path d="M0,0 L5,1 L5,5 L2,5 L2,1 Z " fill="#708E80" transform="translate(11,17)"/>
<path d="M0,0 L5,0 L5,2 L2,3 L1,5 L-1,5 Z " fill="#79978C" transform="translate(41,15)"/>
<path d="M0,0 L3,0 L1,10 L0,10 Z " fill="#76957D" transform="translate(16,32)"/>
<path d="M0,0 L3,0 L3,7 L2,4 L0,4 Z " fill="#738F81" transform="translate(13,25)"/>
<path d="M0,0 L2,1 L2,6 L-3,6 L-1,4 Z " fill="#76978B" transform="translate(35,13)"/>
<path d="M0,0 L4,0 L4,4 L0,3 Z " fill="#6A8775" transform="translate(39,9)"/>
<path d="M0,0 L4,1 L2,4 L0,4 L-1,7 Z " fill="#749479" transform="translate(16,8)"/>
<path d="M0,0 L3,0 L3,2 L6,3 L-1,3 Z " fill="#7D9C8F" transform="translate(43,17)"/>
<path d="M0,0 L2,0 L3,4 L-1,5 Z " fill="#9BC3A0" transform="translate(22,10)"/>
<path d="M0,0 L4,0 L4,3 L0,3 Z " fill="#759585" transform="translate(13,22)"/>
<path d="M0,0 L6,2 L6,3 L0,3 Z " fill="#6F8D79" transform="translate(37,11)"/>
<path d="M0,0 L2,1 L2,4 L-1,4 Z " fill="#6B8770" transform="translate(21,30)"/>
<path d="M0,0 L3,0 L3,3 L-1,1 Z " fill="#7F9F87" transform="translate(29,9)"/>
</svg>
