<?xml version="1.0" encoding="UTF-8"?>
<!-- Generator: visioncortex VTracer 0.6.4 -->
<svg version="1.1" xmlns="http://www.w3.org/2000/svg" width="78" height="96">
<path d="M0,0 L78,0 L78,96 L0,96 Z " fill="#000100" transform="translate(0,0)"/>
<path d="M0,0 L16,0 L16,2 L20,2 L20,4 L30,4 L30,8 L32,8 L32,22 L34,22 L36,25 L40,26 L40,32 L29,32 L29,29 L28,30 L28,36 L24,36 L24,45 L17,49 L16,52 L14,52 L14,56 L28,56 L28,72 L16,72 L16,68 L14,68 L14,64 L12,64 L12,68 L-8,68 L-8,58 L-10,58 L-10,60 L-20,60 L-20,40 L-14,40 L-14,46 L-8,46 L-8,40 L-4,40 L-4,38 L-6,38 L-6,32 L-4,32 L-4,18 L-8,18 L-8,12 L-6,12 L-6,10 L-4,10 L-4,2 L0,2 Z " fill="#027603" transform="translate(28,18)"/>
<path d="M0,0 L16,0 L16,2 L20,2 L20,4 L30,4 L30,8 L32,8 L32,22 L34,22 L36,25 L39,26 L39,31 L31,31 L30,28 L27,27 L28,20 L7,19 L7,18 L-2,17 L-2,15 L-4,15 L-4,12 L-2,12 L-2,3 L0,3 Z " fill="#49A357" transform="translate(28,18)"/>
<path d="M0,0 L4,1 L2,1 L2,10 L0,10 L0,13 L2,13 L2,15 L12,15 L12,16 L27,17 L32,18 L31,25 L35,26 L35,29 L43,29 L43,24 L44,24 L44,30 L33,30 L33,27 L32,28 L32,34 L28,34 L27,37 L28,30 L14,28 L14,26 L11,27 L9,30 L10,35 L14,37 L9,37 L8,40 L2,40 L2,44 L0,44 L0,42 L-2,42 L-3,46 L-3,39 L1,38 L1,36 L-2,36 L-2,30 L0,30 L0,16 L-4,16 L-4,10 L-2,10 L-2,8 L0,8 Z " fill="#0A3713" transform="translate(24,20)"/>
<path d="M0,0 L3,0 L3,2 L13,2 L18,4 L17,11 L17,17 L10,21 L9,23 L4,23 L3,18 L7,18 L7,10 L-1,10 L-3,8 L-2,3 Z " fill="#4FC25E" transform="translate(35,46)"/>
<path d="M0,0 L3,0 L2,8 L0,14 L-13,13 L-13,11 L-18,11 L-22,9 L-21,5 L-20,1 L-8,1 L-7,3 L0,4 Z " fill="#61DF77" transform="translate(54,23)"/>
<path d="M0,0 L11,0 L12,5 L17,5 L14,9 L12,10 L12,16 L7,16 L7,20 L-1,20 L-1,11 L0,9 L2,9 L2,6 L5,6 L5,2 L0,2 Z " fill="#068B02" transform="translate(27,64)"/>
<path d="M0,0 L16,0 L16,2 L20,2 L20,4 L30,4 L30,8 L32,8 L32,22 L34,22 L36,25 L39,26 L39,31 L31,31 L30,28 L27,27 L28,24 L32,25 L33,23 L31,23 L30,10 L29,10 L29,5 L26,5 L26,9 L19,9 L17,4 L14,4 L14,2 L1,1 L1,3 L3,4 L3,11 L-2,12 L-2,3 L0,3 Z " fill="#40AD57" transform="translate(28,18)"/>
<path d="M0,0 L6,0 L6,8 L10,8 L10,18 L7,20 L6,24 L0,24 Z " fill="#0D5F16" transform="translate(12,30)"/>
<path d="M0,0 L4,0 L4,2 L20,2 L20,4 L23,4 L24,11 L21,10 L4,8 L3,11 L-2,11 L0,2 Z " fill="#020703" transform="translate(30,36)"/>
<path d="M0,0 L2,3 L-3,3 L-2,6 L0,6 L0,8 L2,8 L2,4 L8,3 L9,1 L18,0 L18,8 L3,8 L2,13 L1,16 L-3,16 L-4,9 L-10,9 L-10,8 L-4,8 L-4,2 L0,2 Z " fill="#006E01" transform="translate(24,56)"/>
<path d="M0,0 L12,0 L12,14 L2,14 L3,9 L0,10 L1,6 L0,2 Z " fill="#0D8C08" transform="translate(43,75)"/>
<path d="M0,0 L4,1 L2,1 L2,10 L0,10 L0,13 L2,13 L2,15 L12,15 L12,16 L27,17 L32,18 L30,22 L30,19 L10,18 L10,16 L6,16 L7,20 L4,24 L0,23 L0,16 L-4,16 L-4,10 L-2,10 L-2,8 L0,8 Z " fill="#277F3B" transform="translate(24,20)"/>
<path d="M0,0 L6,0 L6,7 L10,7 L10,10 L6,10 L6,19 L10,20 L0,20 Z " fill="#0E7017" transform="translate(8,58)"/>
<path d="M0,0 L9,0 L8,6 L13,8 L13,9 L8,9 L7,12 L1,12 L1,16 L-1,16 L-1,14 L-3,14 L-4,18 L-4,11 L0,10 L0,8 L-3,8 L-3,2 Z " fill="#077E09" transform="translate(25,48)"/>
<path d="M0,0 L1,3 L15,3 L15,19 L3,19 L3,15 L1,15 L1,11 L-1,11 L-1,15 L-21,15 L-21,5 L-23,4 L-20,4 L-20,14 L-2,14 L-3,9 L-3,1 L0,2 Z M2,4 L2,9 L2,11 L3,14 L5,13 L4,18 L14,18 L14,4 Z " fill="#085508" transform="translate(41,71)"/>
<path d="M0,0 L13,1 L14,2 L14,14 L10,14 L9,12 L9,6 L1,6 L0,5 Z " fill="#74E486" transform="translate(35,48)"/>
<path d="M0,0 L14,0 L13,3 L16,3 L16,5 L5,5 L4,10 L3,13 L6,14 L-1,14 L-3,13 L-2,10 L2,10 L1,3 Z " fill="#54A966" transform="translate(29,19)"/>
<path d="M0,0 L3,0 L2,8 L0,14 L-13,13 L-12,11 L-10,12 L-8,3 L0,4 Z " fill="#5CBF72" transform="translate(54,23)"/>
<path d="M0,0 L1,0 L1,5 L3,5 L3,0 L4,0 L4,8 L2,8 L2,10 L0,10 L0,16 L4,16 L4,30 L2,30 L2,35 L1,31 L-1,31 L-2,34 L-1,29 L2,28 L2,18 L-2,18 L-2,10 L-8,10 L-8,9 L-2,9 L-2,7 L0,7 Z " fill="#021505" transform="translate(20,20)"/>
<path d="M0,0 L10,0 L10,4 L12,4 L12,18 L14,18 L16,21 L19,22 L19,27 L11,27 L10,24 L7,23 L8,20 L12,21 L13,19 L11,19 L10,6 L9,6 L9,1 L0,1 Z " fill="#2B8640" transform="translate(48,22)"/>
<path d="M0,0 L4,0 L5,4 L10,4 L7,8 L5,9 L5,15 L4,11 L0,11 Z " fill="#0A7E0E" transform="translate(34,65)"/>
<path d="M0,0 L2,1 L1,6 L6,8 L6,9 L-3,10 L-6,8 L-6,4 L-8,3 Z " fill="#149B21" transform="translate(32,48)"/>
<path d="M0,0 L12,0 L12,14 L2,14 L3,12 L11,13 L11,1 L3,1 L3,9 L0,10 L1,6 L0,2 Z " fill="#0F7E0A" transform="translate(43,75)"/>
<path d="M0,0 L2,0 L3,8 L-1,10 L-1,12 L-4,12 L-4,3 L0,3 Z " fill="#037F09" transform="translate(18,65)"/>
<path d="M0,0 L4,0 L5,6 L9,7 L9,11 L0,9 Z " fill="#0F7B2A" transform="translate(13,31)"/>
<path d="M0,0 L4,0 L5,9 L10,9 L5,14 L0,14 L-1,9 L3,9 L3,1 Z " fill="#27A037" transform="translate(39,55)"/>
<path d="M0,0 L8,1 L8,5 L-3,5 L-3,1 Z " fill="#09A108" transform="translate(30,75)"/>
<path d="M0,0 L14,0 L13,3 L16,3 L16,5 L7,5 L7,2 L0,1 Z " fill="#60AC73" transform="translate(29,19)"/>
<path d="M0,0 L6,0 L7,4 L4,8 L0,7 Z " fill="#086B1D" transform="translate(24,36)"/>
<path d="M0,0 L4,0 L5,8 L-5,8 L-4,6 L-2,7 Z " fill="#50CA6B" transform="translate(46,28)"/>
<path d="M0,0 L11,0 L7,1 L7,8 L4,8 L4,10 L0,11 L0,9 L2,9 L2,6 L5,6 L5,2 L0,2 Z " fill="#058504" transform="translate(27,64)"/>
<path d="M0,0 L2,3 L-3,3 L-2,12 L1,12 L1,16 L-3,16 L-4,9 L-10,9 L-10,8 L-4,8 L-4,2 L0,2 Z " fill="#055A06" transform="translate(24,56)"/>
<path d="M0,0 L1,2 L10,1 L14,0 L15,6 L12,5 L0,4 Z " fill="#000100" transform="translate(39,41)"/>
<path d="M0,0 L5,1 L4,6 L2,8 L-1,8 L-2,3 Z " fill="#6CF089" transform="translate(41,25)"/>
<path d="M0,0 L4,0 L4,10 L3,11 L-2,11 L0,2 Z " fill="#001700" transform="translate(30,36)"/>
<path d="M0,0 L5,1 L7,2 L7,8 L4,9 L3,4 L0,4 Z " fill="#077115" transform="translate(15,40)"/>
<path d="M0,0 L2,0 L2,2 L12,3 L16,5 L16,7 L11,7 L11,6 L2,5 L2,3 L0,3 Z " fill="#38AA4B" transform="translate(24,30)"/>
<path d="M0,0 L6,0 L6,8 L2,6 L2,4 L0,4 Z " fill="#0C980B" transform="translate(46,76)"/>
<path d="M0,0 L3,0 L3,2 L13,2 L13,3 L1,3 L0,8 L4,10 L-1,10 L-3,8 L-2,3 Z " fill="#39B44A" transform="translate(35,46)"/>
<path d="M0,0 L9,2 L9,6 L2,6 L0,3 Z " fill="#55A667" transform="translate(45,21)"/>
<path d="M0,0 L12,0 L11,2 L2,2 L2,5 L0,5 L1,8 L-2,8 L-1,4 Z " fill="#5CCD73" transform="translate(34,24)"/>
<path d="M0,0 L5,1 L4,8 L4,14 L3,10 L1,10 Z " fill="#3DAB49" transform="translate(48,49)"/>
<path d="M0,0 L1,2 L0,4 L6,4 L5,6 L-5,7 L-5,1 Z " fill="#014F0A" transform="translate(29,42)"/>
<path d="M0,0 L5,0 L6,1 L14,2 L14,4 L4,4 L4,2 L0,2 Z " fill="#105916" transform="translate(34,44)"/>
<path d="M0,0 L8,0 L8,6 L4,6 L3,9 L4,2 Z " fill="#146B1E" transform="translate(48,48)"/>
<path d="M0,0 L2,1 L2,7 L-1,7 L-2,10 L-8,11 L-6,8 L0,6 Z " fill="#0B4F0B" transform="translate(52,57)"/>
<path d="M0,0 L3,0 L2,5 L-4,6 L-4,2 Z " fill="#002800" transform="translate(38,57)"/>
<path d="M0,0 L9,3 L9,4 L0,5 L-3,2 L0,2 Z " fill="#0B9513" transform="translate(29,53)"/>
<path d="M0,0 L1,0 L1,5 L3,5 L3,0 L4,0 L4,8 L-2,9 L-2,7 L0,7 Z " fill="#030A05" transform="translate(20,20)"/>
<path d="M0,0 L2,0 L4,3 L4,8 L0,8 Z " fill="#078904" transform="translate(46,80)"/>
<path d="M0,0 L16,0 L16,2 L20,2 L19,4 L14,4 L14,2 L0,1 Z " fill="#437551" transform="translate(28,18)"/>
<path d="M0,0 L5,0 L3,1 L3,9 L0,10 L1,6 L0,2 Z " fill="#09790A" transform="translate(43,75)"/>
<path d="M0,0 L4,0 L5,5 L1,6 L0,5 Z " fill="#0B8D13" transform="translate(34,65)"/>
<path d="M0,0 L8,0 L8,9 L6,9 L6,2 L0,1 Z " fill="#91FAA3" transform="translate(39,51)"/>
<path d="M0,0 L3,2 L3,8 L-1,8 L-2,12 L-2,7 Z " fill="#52AE62" transform="translate(56,25)"/>
<path d="M0,0 L2,0 L2,4 L5,4 L3,8 L0,8 Z " fill="#0C7F16" transform="translate(13,40)"/>
<path d="M0,0 L5,0 L5,3 L8,4 L1,4 L-1,3 Z " fill="#4EC063" transform="translate(27,29)"/>
<path d="M0,0 L4,0 L5,5 L0,5 Z " fill="#0B7B0C" transform="translate(34,80)"/>
<path d="M0,0 L2,4 L1,6 L-4,6 L-4,3 L-1,3 Z " fill="#0D8426" transform="translate(29,36)"/>
<path d="M0,0 L2,0 L3,8 L-1,7 Z " fill="#47C567" transform="translate(48,28)"/>
<path d="M0,0 L4,0 L4,8 L0,8 L0,6 L2,6 L3,1 Z " fill="#066309" transform="translate(38,56)"/>
<path d="M0,0 L1,0 L1,8 L-2,7 L-2,2 Z " fill="#6AE686" transform="translate(53,29)"/>
<path d="M0,0 L3,0 L3,2 L11,2 L11,3 L-1,3 Z " fill="#077B06" transform="translate(23,82)"/>
<path d="M0,0 L1,2 L7,2 L6,5 L1,5 Z " fill="#1EA42A" transform="translate(38,64)"/>
<path d="M0,0 L2,0 L3,6 L-1,7 Z " fill="#047504" transform="translate(23,76)"/>
<path d="M0,0 L5,1 L8,0 L8,3 L5,4 L0,3 Z " fill="#2D9A42" transform="translate(55,42)"/>
<path d="M0,0 L5,0 L5,7 L3,6 L3,2 L0,1 Z " fill="#020F05" transform="translate(19,36)"/>
<path d="M0,0 L4,0 L4,4 L0,4 Z " fill="#059613" transform="translate(34,76)"/>
<path d="M0,0 L4,0 L3,5 L0,5 Z " fill="#007C0C" transform="translate(14,72)"/>
<path d="M0,0 L4,0 L4,4 L0,4 Z " fill="#067F0E" transform="translate(14,68)"/>
<path d="M0,0 L4,0 L3,5 L0,6 Z " fill="#052A0B" transform="translate(30,36)"/>
<path d="M0,0 L1,3 L3,3 L4,8 L3,6 L0,6 Z " fill="#066407" transform="translate(22,50)"/>
<path d="M0,0 L1,2 L3,3 L2,5 L-2,5 L-2,2 L0,2 Z " fill="#459C5B" transform="translate(28,19)"/>
<path d="M0,0 L5,0 L2,4 L-1,3 Z " fill="#127D15" transform="translate(39,69)"/>
<path d="M0,0 L5,0 L4,3 L0,3 Z " fill="#000800" transform="translate(34,60)"/>
<path d="M0,0 L4,0 L4,4 L1,4 Z " fill="#0A8D06" transform="translate(30,80)"/>
<path d="M0,0 L4,0 L5,3 L0,3 Z " fill="#04A60F" transform="translate(34,65)"/>
<path d="M0,0 L1,3 L5,4 L-1,4 L-2,1 Z " fill="#003C01" transform="translate(33,60)"/>
<path d="M0,0 L1,0 L1,6 L-2,7 L-3,4 L0,4 Z " fill="#05590D" transform="translate(21,42)"/>
<path d="M0,0 L3,0 L3,4 L0,4 Z " fill="#002601" transform="translate(22,68)"/>
<path d="M0,0 L4,0 L4,3 L0,3 Z " fill="#0A780E" transform="translate(14,65)"/>
<path d="M0,0 L1,2 L3,2 L3,5 L0,6 Z " fill="#014207" transform="translate(24,43)"/>
<path d="M0,0 L3,0 L3,3 L-2,2 Z " fill="#419554" transform="translate(51,24)"/>
<path d="M0,0 L4,0 L4,4 L1,3 Z " fill="#3FA355" transform="translate(26,24)"/>
<path d="M0,0 L3,1 L3,4 L0,4 Z " fill="#029F03" transform="translate(27,76)"/>
<path d="M0,0 L2,0 L3,4 L0,5 Z " fill="#017901" transform="translate(22,62)"/>
<path d="M0,0 L2,1 L2,5 L-1,5 Z " fill="#097B18" transform="translate(19,41)"/>
<path d="M0,0 L3,0 L2,3 L-2,1 Z " fill="#006900" transform="translate(24,66)"/>
<path d="M0,0 L3,0 L3,3 L-1,1 Z " fill="#16A21C" transform="translate(25,50)"/>
<path d="M0,0 L2,4 L-1,4 Z " fill="#0B740F" transform="translate(17,46)"/>
</svg>
