<?xml version="1.0" encoding="UTF-8"?>
<!-- Generator: visioncortex VTracer 0.6.4 -->
<svg version="1.1" xmlns="http://www.w3.org/2000/svg" width="58" height="62">
<path d="M0,0 L58,0 L58,62 L0,62 Z " fill="#030302" transform="translate(0,0)"/>
<path d="M0,0 L6,0 L6,4 L8,4 L8,8 L14,8 L14,10 L20,10 L20,16 L24,16 L24,18 L32,18 L32,26 L24,26 L23,23 L18,23 L18,26 L21,27 L21,29 L26,31 L26,36 L18,36 L18,32 L14,32 L14,40 L10,44 L2,44 L2,32 L6,32 L6,28 L-6,28 L-6,22 L-4,22 L-4,20 L-2,20 L-2,18 L2,18 L2,16 L-2,16 L-2,10 L-12,10 L-12,8 L-14,8 L-14,2 L0,2 Z " fill="#C4BA94" transform="translate(16,10)"/>
<path d="M0,0 L6,0 L6,4 L8,4 L8,8 L14,8 L14,10 L20,10 L20,16 L24,16 L24,18 L32,18 L32,26 L24,26 L23,23 L18,23 L18,26 L20,27 L13,26 L16,17 L18,17 L19,22 L24,22 L24,24 L30,24 L31,19 L23,19 L23,17 L19,17 L19,11 L14,13 L10,10 L9,15 L4,18 L-1,19 L-1,21 L-4,22 L-4,20 L-2,20 L-2,18 L2,18 L2,16 L-2,16 L-2,10 L-12,10 L-12,8 L-14,8 L-14,2 L0,2 Z " fill="#919E78" transform="translate(16,10)"/>
<path d="M0,0 L29,0 L29,10 L16,10 L16,12 L8,13 L2,12 L2,18 L4,18 L3,20 L0,20 Z " fill="#050605" transform="translate(0,0)"/>
<path d="M0,0 L2,0 L3,4 L13,4 L14,5 L14,17 L16,16 L19,8 L25,8 L26,12 L31,13 L32,9 L32,14 L24,14 L24,10 L20,10 L20,18 L16,22 L8,22 L8,10 L12,10 L12,6 L0,6 Z " fill="#BFB080" transform="translate(10,32)"/>
<path d="M0,0 L2,0 L2,4 L8,4 L8,6 L14,6 L14,12 L18,12 L18,14 L26,14 L26,22 L18,22 L17,19 L12,19 L12,22 L14,23 L7,22 L10,13 L12,13 L13,18 L18,18 L18,20 L24,20 L25,15 L17,15 L17,13 L13,13 L13,7 L8,9 L4,6 L3,11 L-2,14 L-7,15 L-7,17 L-10,18 L-10,16 L-8,16 L-8,14 L-4,14 L-4,12 L-8,12 L-8,7 L-7,11 L-1,9 Z " fill="#868568" transform="translate(22,14)"/>
<path d="M0,0 L2,0 L3,5 L2,8 L11,9 L11,11 L15,12 L15,17 L10,16 L9,12 L3,12 L0,21 L-2,21 L-3,9 L-4,5 L0,4 Z " fill="#EDDEAE" transform="translate(26,28)"/>
<path d="M0,0 L3,0 L2,6 L-1,7 L-2,10 L-11,11 L-12,6 L-9,5 L-9,3 L0,2 Z " fill="#D1C69C" transform="translate(24,26)"/>
<path d="M0,0 L5,0 L5,17 L0,17 Z " fill="#A0B65B" transform="translate(0,42)"/>
<path d="M0,0 L2,0 L4,3 L3,11 L0,13 L-4,12 L-3,9 L0,9 L0,4 L-3,4 L-3,7 L-7,7 L-8,1 L-1,1 Z " fill="#BECA9F" transform="translate(19,12)"/>
<path d="M0,0 L7,0 L8,1 L8,8 L2,8 L2,6 L0,6 Z " fill="#6C8573" transform="translate(20,2)"/>
<path d="M0,0 L2,0 L2,4 L8,4 L7,6 L2,5 L2,10 L-3,15 L-7,15 L-7,17 L-10,18 L-10,16 L-8,16 L-8,14 L-4,14 L-4,12 L-8,12 L-8,7 L-7,11 L-1,9 Z " fill="#77745A" transform="translate(22,14)"/>
<path d="M0,0 L2,0 L3,5 L8,5 L8,7 L14,7 L15,5 L15,8 L7,8 L7,6 L2,6 L2,9 L4,10 L-3,9 Z " fill="#AEAC83" transform="translate(32,27)"/>
<path d="M0,0 L5,0 L5,2 L9,3 L9,8 L4,7 L3,3 L-3,3 L0,2 Z " fill="#C5BB8C" transform="translate(32,37)"/>
<path d="M0,0 L1,3 L0,6 L3,6 L5,2 L7,2 L7,7 L-2,8 L-3,3 L0,2 Z " fill="#C6C190" transform="translate(15,29)"/>
<path d="M0,0 L6,0 L7,4 L12,5 L13,1 L13,6 L5,6 L5,2 L1,2 L1,10 L0,10 Z " fill="#7F7658" transform="translate(29,40)"/>
<path d="M0,0 L11,0 L10,5 L4,5 L4,3 L0,3 Z " fill="#D7DBB7" transform="translate(36,29)"/>
<path d="M0,0 L5,0 L5,17 L0,17 L0,14 L3,14 L3,2 Z " fill="#798733" transform="translate(0,42)"/>
<path d="M0,0 L6,0 L5,4 L5,2 L3,2 L2,4 L-9,4 L-13,3 L-13,8 L-14,8 L-14,2 L0,2 Z " fill="#758468" transform="translate(16,10)"/>
<path d="M0,0 L4,0 L3,7 L0,9 L-4,8 L-3,5 L0,5 Z " fill="#C9BF93" transform="translate(19,16)"/>
<path d="M0,0 L4,1 L1,1 L1,8 L5,8 L8,12 L0,12 Z " fill="#7E6E34" transform="translate(18,42)"/>
<path d="M0,0 L5,1 L6,4 L5,7 L1,7 Z " fill="#A7BA99" transform="translate(3,13)"/>
<path d="M0,0 L5,0 L6,3 L4,3 L4,5 L9,7 L9,13 L8,13 L7,8 L3,6 L0,3 Z " fill="#3E3B2A" transform="translate(34,33)"/>
<path d="M0,0 L2,0 L2,6 L6,6 L6,8 L9,9 L3,8 L2,11 L1,6 L-1,6 Z " fill="#BDC596" transform="translate(33,21)"/>
<path d="M0,0 L2,0 L3,4 L13,4 L12,8 L12,6 L0,6 Z " fill="#6E6D45" transform="translate(10,32)"/>
<path d="M0,0 L2,0 L4,7 L5,9 L3,13 L1,13 Z " fill="#D9CA99" transform="translate(23,36)"/>
<path d="M0,0 L1,3 L6,3 L6,5 L3,5 L2,9 L0,10 Z " fill="#F6E7B2" transform="translate(26,34)"/>
<path d="M0,0 L1,4 L6,3 L7,6 L5,8 L1,8 L1,10 L-2,11 L-2,9 L0,9 L0,7 L4,7 L4,5 L0,5 Z " fill="#7D7856" transform="translate(14,21)"/>
<path d="M0,0 L3,0 L2,6 L-2,7 L-3,2 L0,2 Z " fill="#DFCEA5" transform="translate(24,26)"/>
<path d="M0,0 L5,0 L5,5 L1,5 L1,3 L-1,3 Z " fill="#ADD0B6" transform="translate(22,4)"/>
<path d="M0,0 L1,0 L1,9 L-1,9 L-1,7 L-3,7 L-4,11 L-4,6 L-1,6 Z " fill="#A29565" transform="translate(23,37)"/>
<path d="M0,0 L3,0 L3,5 L0,5 L-1,8 Z " fill="#B1AF86" transform="translate(16,16)"/>
<path d="M0,0 L4,0 L4,6 L1,6 Z " fill="#C1D1A4" transform="translate(11,13)"/>
<path d="M0,0 L2,0 L2,2 L4,3 L3,6 L-1,6 Z " fill="#CBB978" transform="translate(20,44)"/>
<path d="M0,0 L4,0 L4,3 L6,4 L3,5 L3,3 L-3,3 L0,2 Z " fill="#DCCF9C" transform="translate(32,37)"/>
<path d="M0,0 L4,0 L3,5 L0,8 Z " fill="#CDC399" transform="translate(28,28)"/>
<path d="M0,0 L1,0 L1,9 L-3,9 L-3,6 L0,6 Z " fill="#8EA13E" transform="translate(3,50)"/>
<path d="M0,0 L2,0 L3,6 L0,6 Z " fill="#B3CC6D" transform="translate(0,43)"/>
<path d="M0,0 L2,0 L2,3 L4,4 L-3,3 L-3,1 Z " fill="#A9A078" transform="translate(32,33)"/>
<path d="M0,0 L2,0 L2,5 L-1,5 Z " fill="#C0B38A" transform="translate(20,31)"/>
<path d="M0,0 L2,0 L1,5 L-2,6 Z " fill="#625841" transform="translate(22,20)"/>
<path d="M0,0 L3,1 L3,4 L-1,4 Z " fill="#DDCDA2" transform="translate(26,20)"/>
<path d="M0,0 L4,0 L2,4 L0,4 Z " fill="#E2DBB0" transform="translate(19,16)"/>
<path d="M0,0 L3,0 L3,4 L0,4 Z " fill="#9AAF46" transform="translate(0,52)"/>
<path d="M0,0 L3,0 L3,3 L1,3 L0,6 Z " fill="#BBC59A" transform="translate(15,13)"/>
<path d="M0,0 L5,0 L3,3 L0,2 Z " fill="#AF9B5D" transform="translate(23,50)"/>
<path d="M0,0 L5,1 L4,3 L0,3 Z " fill="#E0EAB3" transform="translate(36,29)"/>
<path d="M0,0 L1,4 L-2,4 L-2,1 Z " fill="#D3C397" transform="translate(21,19)"/>
<path d="M0,0 L3,0 L3,3 L0,3 Z " fill="#EBE4B8" transform="translate(15,32)"/>
<path d="M0,0 L3,0 L3,3 L0,3 Z " fill="#D7DFA7" transform="translate(12,16)"/>
<path d="M0,0 L3,0 L2,3 L0,2 Z " fill="#DCD3A7" transform="translate(17,30)"/>
<path d="M0,0 L2,2 L-1,3 Z " fill="#685E47" transform="translate(21,23)"/>
</svg>
