<?xml version="1.0" encoding="UTF-8"?>
<!-- Generator: visioncortex VTracer 0.6.4 -->
<svg version="1.1" xmlns="http://www.w3.org/2000/svg" width="162" height="178">
<path d="M0,0 L162,0 L162,178 L0,178 Z " fill="#000000" transform="translate(0,0)"/>
<path d="M0,0 L22,0 L24,3 L28,4 L28,6 L30,6 L30,12 L32,12 L32,16 L34,16 L34,18 L36,18 L36,24 L34,24 L34,32 L30,32 L30,34 L25,36 L24,38 L26,38 L26,40 L28,40 L28,38 L36,38 L36,42 L38,42 L38,44 L40,44 L40,48 L42,48 L42,54 L44,54 L44,60 L46,60 L46,66 L44,66 L44,76 L42,76 L42,80 L38,80 L38,82 L28,82 L24,77 L22,76 L22,72 L20,72 L20,66 L18,66 L18,64 L2,64 L2,76 L-3,80 L-4,82 L-6,82 L-6,84 L-8,84 L-8,90 L-10,90 L-10,94 L-18,94 L-18,90 L-20,90 L-20,84 L-22,84 L-22,76 L-24,76 L-24,66 L-22,66 L-22,64 L-18,64 L-18,62 L-6,62 L-6,60 L-4,60 L-4,58 L-2,58 L-2,46 L2,46 L2,44 L4,44 L4,42 L6,42 L6,38 L8,38 L6,32 L2,32 L0,27 L-2,26 L-2,22 L-6,22 L-6,18 L-8,18 L-8,20 L-16,20 L-16,22 L-28,22 L-28,20 L-38,20 L-38,18 L-48,18 L-48,20 L-50,20 L-50,22 L-55,26 L-56,28 L-70,28 L-70,20 L-74,20 L-74,14 L-72,14 L-72,8 L-70,8 L-70,6 L-66,6 L-66,4 L-60,4 L-60,6 L-54,6 L-54,8 L-46,8 L-46,12 L-38,12 L-38,8 L-4,8 L-3,3 L0,2 Z " fill="#BAD3AC" transform="translate(80,26)"/>
<path d="M0,0 L2,1 L1,3 L-1,3 L0,7 L-1,8 L-1,17 L15,18 L18,18 L20,24 L20,34 L18,34 L18,30 L16,30 L16,24 L14,24 L14,22 L-2,22 L-2,34 L-7,38 L-8,40 L-10,40 L-10,42 L-12,42 L-12,48 L-14,48 L-14,52 L-22,52 L-22,48 L-24,48 L-24,42 L-26,42 L-26,34 L-28,34 L-28,24 L-26,24 L-26,22 L-22,22 L-22,20 L-10,20 L-10,18 L-8,18 L-8,16 L-6,16 L-6,4 L-2,4 L-2,2 L0,2 Z " fill="#BDCD9C" transform="translate(84,68)"/>
<path d="M0,0 L22,0 L21,2 L1,1 L1,4 L3,5 L1,5 L-1,11 L-3,12 L-16,12 L-16,11 L-4,11 L-4,9 L-37,9 L-36,16 L-32,17 L-37,17 L-37,19 L-28,19 L-28,20 L-38,20 L-38,18 L-48,18 L-48,20 L-50,20 L-50,22 L-55,26 L-56,28 L-70,28 L-70,20 L-74,20 L-74,14 L-72,14 L-72,8 L-70,8 L-70,6 L-66,6 L-66,4 L-60,4 L-60,6 L-54,6 L-54,8 L-46,8 L-46,12 L-38,12 L-38,8 L-4,8 L-3,3 L0,2 Z " fill="#C5CF9D" transform="translate(80,26)"/>
<path d="M0,0 L17,0 L19,2 L21,10 L24,14 L24,20 L23,22 L21,22 L21,24 L19,25 L12,25 L12,23 L7,22 L6,19 L1,18 L-4,13 L-4,6 L-1,4 Z " fill="#D3E4B9" transform="translate(84,31)"/>
<path d="M0,0 L20,0 L22,1 L21,5 L3,4 L2,9 L-1,10 L0,19 L-1,21 L-7,21 L-7,17 L-9,17 L-9,19 L-17,19 L-17,21 L-29,21 L-29,18 L-38,18 L-37,15 L-38,8 L-5,8 L-4,10 L-2,10 L0,3 Z " fill="#BAC79D" transform="translate(81,27)"/>
<path d="M0,0 L4,1 L10,8 L11,17 L10,25 L7,26 L7,28 L1,28 L-2,24 L-2,6 Z " fill="#C6E0BA" transform="translate(110,75)"/>
<path d="M0,0 L17,0 L19,2 L21,10 L24,14 L24,20 L23,22 L21,22 L21,24 L19,25 L12,25 L12,23 L7,22 L6,19 L1,18 L-4,13 L-4,6 L-1,4 Z M4,2 L1,3 L0,6 L0,13 L2,15 L11,17 L12,19 L20,18 L21,13 L19,8 L18,3 L16,2 Z " fill="#CADBB0" transform="translate(84,31)"/>
<path d="M0,0 L2,0 L2,2 L5,1 L5,6 L9,5 L9,21 L-4,21 L-5,20 L-5,11 L-4,6 L-2,6 Z " fill="#BCCE9F" transform="translate(87,65)"/>
<path d="M0,0 L7,0 L7,2 L4,3 L5,6 L8,6 L8,4 L16,4 L16,8 L5,8 L5,10 L-1,12 L-2,15 L-12,15 L-11,13 L-3,12 L-3,10 L-4,11 L-11,10 L-13,7 L-13,2 L-11,1 Z " fill="#C7D1A1" transform="translate(26,35)"/>
<path d="M0,0 L6,0 L7,7 L5,7 L5,9 L7,9 L7,11 L3,11 L3,15 L1,16 L1,21 L-5,21 L-6,20 L-7,7 L-9,7 L-9,4 Z " fill="#C6D19E" transform="translate(70,94)"/>
<path d="M0,0 L22,0 L21,2 L1,1 L1,4 L3,5 L1,5 L-1,11 L-3,12 L-16,12 L-16,11 L-4,11 L-4,9 L-37,9 L-36,16 L-32,17 L-37,17 L-37,19 L-28,19 L-28,20 L-38,20 L-38,18 L-48,18 L-48,20 L-50,20 L-51,22 L-52,19 L-49,19 L-50,16 L-38,17 L-38,13 L-46,13 L-46,15 L-49,15 L-50,13 L-53,11 L-47,11 L-47,9 L-54,9 L-54,8 L-46,8 L-46,12 L-38,12 L-38,8 L-4,8 L-3,3 L0,2 Z " fill="#96A07A" transform="translate(80,26)"/>
<path d="M0,0 L6,0 L9,4 L8,6 L10,6 L10,8 L12,8 L12,6 L20,6 L20,10 L22,10 L22,12 L24,12 L24,16 L26,16 L26,22 L25,22 L25,17 L23,17 L23,22 L20,19 L20,13 L21,11 L17,12 L10,12 L12,11 L12,9 L8,10 L9,7 L7,7 L5,11 L2,16 L0,16 L-1,11 Z " fill="#B1C6A1" transform="translate(96,58)"/>
<path d="M0,0 L3,2 L3,5 L9,7 L11,12 L16,13 L16,23 L13,26 L11,25 L11,21 L9,21 L9,19 L7,19 L6,22 L6,18 L8,18 L6,12 L2,12 L0,7 L-2,6 L-2,2 L0,2 Z " fill="#B0C397" transform="translate(80,46)"/>
<path d="M0,0 L20,0 L22,1 L21,5 L3,4 L2,9 L-1,10 L0,19 L-1,21 L-6,20 L-5,11 L-2,10 L0,3 Z " fill="#BFD0A7" transform="translate(81,27)"/>
<path d="M0,0 L1,0 L1,9 L3,9 L3,1 L5,2 L3,17 L7,16 L9,22 L15,23 L14,16 L16,16 L17,12 L21,14 L20,16 L18,16 L18,18 L16,18 L16,24 L14,24 L14,28 L6,28 L6,24 L4,24 L4,18 L2,18 L2,10 L0,10 Z " fill="#ABB487" transform="translate(56,92)"/>
<path d="M0,0 L1,0 L1,11 L3,11 L3,0 L4,0 L4,12 L-1,15 L-1,13 L-3,13 L-3,11 L-1,11 L-2,4 L-10,6 L-17,8 L-17,11 L-14,10 L-14,19 L-19,19 L-18,6 L-15,3 L-2,2 L-1,3 Z " fill="#C0CB9A" transform="translate(78,90)"/>
<path d="M0,0 L5,1 L5,3 L7,3 L7,9 L9,9 L9,13 L11,13 L11,15 L13,15 L13,21 L11,21 L11,29 L7,29 L7,31 L3,30 L6,30 L6,28 L4,28 L4,26 L7,26 L7,28 L10,28 L10,21 L8,21 L8,23 L6,23 L5,9 L5,5 L3,9 L2,4 L4,4 L4,2 L-1,3 Z " fill="#A5B893" transform="translate(103,29)"/>
<path d="M0,0 L4,1 L10,8 L11,17 L10,25 L7,26 L7,28 L1,28 L-2,24 L-2,6 Z M0,6 L-1,7 L-1,23 L0,25 L7,25 L9,23 L9,9 L5,6 Z " fill="#C2DDB6" transform="translate(110,75)"/>
<path d="M0,0 L7,1 L9,10 L10,14 L9,16 L1,17 L0,15 L-9,13 L-11,11 L-10,8 L-10,10 L-3,11 L6,11 L5,3 L0,1 Z " fill="#CCE0B8" transform="translate(95,33)"/>
<path d="M0,0 L2,0 L3,2 L5,2 L5,4 L0,5 L-1,13 L-2,21 L-3,24 L-4,22 L-7,21 L-7,9 L-5,8 L-2,3 Z " fill="#B7CEA8" transform="translate(103,65)"/>
<path d="M0,0 L4,1 L4,3 L7,3 L7,1 L15,1 L15,5 L4,5 L4,7 L-2,9 L-3,12 L-13,12 L-12,10 L-4,9 L-4,7 L-2,7 L-1,2 Z " fill="#BEC89A" transform="translate(27,38)"/>
<path d="M0,0 L16,0 L16,2 L18,2 L18,8 L17,6 L15,6 L14,8 L14,4 L4,4 L4,12 L3,12 L3,4 L1,4 L1,12 L0,12 Z " fill="#0F110D" transform="translate(82,90)"/>
<path d="M0,0 L1,0 L1,6 L3,6 L3,12 L1,12 L1,22 L-1,22 L-1,26 L-5,26 L-5,28 L-15,28 L-18,23 L-14,22 L-12,25 L-14,25 L-14,27 L-6,27 L-6,25 L-8,24 L-5,24 L-4,20 L0,21 L-1,6 Z " fill="#96AC8D" transform="translate(123,80)"/>
<path d="M0,0 L1,2 L3,2 L3,0 L11,0 L11,4 L13,4 L13,6 L15,6 L15,10 L17,10 L17,16 L16,16 L16,11 L14,11 L14,16 L11,13 L11,7 L12,5 L8,6 L1,6 L3,5 L3,3 L-1,4 Z " fill="#A0B796" transform="translate(105,64)"/>
<path d="M0,0 L2,0 L2,2 L5,1 L5,6 L6,8 L4,8 L3,12 L-3,13 L-4,19 L-5,19 L-5,11 L-4,6 L-2,6 Z M6,6 Z " fill="#B8CA9A" transform="translate(87,65)"/>
<path d="M0,0 L6,0 L2,2 L-3,5 L-5,14 L0,14 L1,21 L-5,21 L-6,20 L-7,7 L-9,7 L-9,4 Z " fill="#C2CE9C" transform="translate(70,94)"/>
<path d="M0,0 L1,0 L1,6 L0,8 L-2,8 L-2,10 L-4,11 L-11,11 L-11,9 L-16,8 L-17,5 L-22,4 L-19,3 L-12,4 L-15,5 L-15,7 L-5,7 L-5,5 L-1,3 Z " fill="#C4D6AB" transform="translate(107,45)"/>
<path d="M0,0 L6,1 L8,3 L8,6 L6,7 L-3,7 L-7,5 L-7,3 Z " fill="#D9EABE" transform="translate(92,35)"/>
<path d="M0,0 L22,0 L21,2 L1,1 L1,4 L3,5 L1,5 L-1,11 L-3,12 L-16,12 L-16,11 L-4,11 L-4,4 L0,2 Z " fill="#A1B08B" transform="translate(80,26)"/>
<path d="M0,0 L2,1 L1,3 L-1,3 L0,7 L-1,8 L-2,17 L-5,18 L-7,17 L-7,19 L-10,20 L-10,18 L-8,18 L-8,16 L-6,16 L-6,4 L-2,4 L-2,2 L0,2 Z " fill="#AAB98C" transform="translate(84,68)"/>
<path d="M0,0 L12,0 L12,1 L1,1 L1,3 L12,3 L12,5 L1,6 L-2,8 L-3,5 L-3,13 L-5,13 L-5,4 L-4,2 L0,2 Z " fill="#ABB58A" transform="translate(62,88)"/>
<path d="M0,0 L3,0 L3,6 L6,6 L7,8 L13,9 L13,7 L15,8 L13,13 L5,13 L5,9 L0,9 L-1,4 Z " fill="#B6D0AB" transform="translate(104,94)"/>
<path d="M0,0 L2,2 L3,12 L3,16 L1,16 L1,12 L-1,12 L-1,6 L-3,6 L-3,4 L-19,4 L-19,3 L-1,2 Z " fill="#9DB18E" transform="translate(101,86)"/>
<path d="M0,0 L3,0 L5,5 L5,9 L3,9 L3,16 L0,17 L-1,1 Z " fill="#CBE6BF" transform="translate(111,82)"/>
<path d="M0,0 L6,0 L6,2 L10,2 L10,8 L4,8 L4,6 L0,6 Z " fill="#919C69" transform="translate(10,126)"/>
<path d="M0,0 L2,0 L2,5 L4,5 L4,26 L1,25 L1,11 L-1,5 Z " fill="#B2CDA7" transform="translate(119,75)"/>
<path d="M0,0 L20,0 L22,2 L21,3 L0,3 Z " fill="#BACDA3" transform="translate(81,27)"/>
<path d="M0,0 L1,4 L3,4 L3,6 L5,6 L5,12 L3,12 L3,20 L-1,20 L-1,22 L-5,21 L-2,21 L-2,19 L-4,19 L-4,17 L-1,17 L-1,19 L2,19 L2,12 L0,12 L-1,14 L-1,11 L1,11 L2,5 L-1,6 Z " fill="#9BAE8E" transform="translate(111,38)"/>
<path d="M0,0 L6,0 L9,3 L7,6 L-2,6 L-3,1 Z " fill="#CDD7A6" transform="translate(16,37)"/>
<path d="M0,0 L1,0 L3,7 L4,11 L3,19 L16,19 L16,20 L2,20 L2,12 L-2,12 L-2,6 L0,6 Z " fill="#9DA67D" transform="translate(8,34)"/>
<path d="M0,0 L4,2 L9,4 L11,7 L15,8 L15,13 L10,12 L7,7 L2,5 Z " fill="#BDCFA3" transform="translate(81,46)"/>
<path d="M0,0 L13,1 L13,3 L6,3 L6,5 L-5,5 L-5,3 Z " fill="#C0CDA2" transform="translate(58,42)"/>
<path d="M0,0 L2,2 L3,11 L2,19 L-1,20 L-1,22 L-7,22 L-8,19 L-1,18 L0,17 Z " fill="#BDD7B2" transform="translate(118,81)"/>
<path d="M0,0 L7,1 L15,2 L15,3 L5,3 L5,5 L16,5 L16,6 L4,6 L4,3 L-5,3 L-5,1 Z " fill="#B0BB92" transform="translate(48,42)"/>
<path d="M0,0 L11,0 L10,5 L1,5 Z " fill="#BBC799" transform="translate(43,37)"/>
<path d="M0,0 L2,0 L0,4 L-6,10 L-6,18 L-7,15 L-9,15 L-10,18 L-10,14 L-8,14 L-8,8 L-6,8 L-6,6 L-4,6 L-2,2 Z " fill="#1D1F17" transform="translate(80,102)"/>
<path d="M0,0 L1,0 L1,6 L3,6 L3,12 L1,12 L1,22 L0,22 L-1,6 Z " fill="#91A788" transform="translate(123,80)"/>
<path d="M0,0 L2,2 L2,7 L-4,7 L-5,6 L-5,1 Z " fill="#BFC996" transform="translate(69,108)"/>
<path d="M0,0 L1,0 L1,11 L3,11 L3,0 L4,0 L4,12 L-1,15 L-1,13 L-3,13 L-3,11 L-1,10 Z " fill="#A6B285" transform="translate(78,90)"/>
<path d="M0,0 L3,1 L1,5 L-3,8 L-4,7 L-13,6 L-12,2 L-12,5 L-2,5 L-1,1 Z " fill="#B8C294" transform="translate(26,45)"/>
<path d="M0,0 L4,4 L4,9 L2,11 L-1,11 L-1,13 L-7,13 L-7,11 L1,10 L1,5 Z " fill="#C4D9B1" transform="translate(103,39)"/>
<path d="M0,0 L2,1 L1,4 L3,4 L4,9 L3,11 L-2,10 L-1,1 Z " fill="#C1CFA4" transform="translate(77,37)"/>
<path d="M0,0 L3,2 L4,8 L3,11 L6,12 L2,12 L0,7 L-2,6 L-2,2 L0,2 Z " fill="#A9B891" transform="translate(80,46)"/>
<path d="M0,0 L8,0 L8,4 L-2,4 L-2,2 L0,2 Z " fill="#C4CE9B" transform="translate(34,39)"/>
<path d="M0,0 L1,2 L8,3 L13,3 L11,7 L2,5 L0,3 Z " fill="#D0E0B5" transform="translate(84,41)"/>
<path d="M0,0 L6,0 L6,2 L12,2 L12,3 L0,4 L-4,2 L0,2 Z " fill="#A4AC81" transform="translate(14,30)"/>
<path d="M0,0 L2,0 L2,2 L0,2 L2,7 L2,12 L-2,8 L-3,1 Z " fill="#BBD0A7" transform="translate(105,31)"/>
<path d="M0,0 L17,0 L19,2 L19,8 L18,8 L18,3 L11,2 L0,2 Z " fill="#C5D9AF" transform="translate(84,31)"/>
<path d="M0,0 L4,0 L4,4 L8,6 L8,10 L4,9 L2,5 L0,3 L3,3 L3,1 Z " fill="#171913" transform="translate(74,48)"/>
<path d="M0,0 L1,2 L0,4 L-2,4 L-2,6 L-4,7 L-11,7 L-11,4 L-3,5 L-1,1 Z " fill="#BCD2AB" transform="translate(107,49)"/>
<path d="M0,0 L4,2 L3,4 L1,4 L1,6 L-1,6 L-1,12 L-2,12 L-3,4 L-1,4 Z " fill="#A6AF82" transform="translate(73,104)"/>
<path d="M0,0 L8,0 L8,7 L5,7 L4,5 L1,3 L7,3 L7,1 L0,1 Z " fill="#A7B087" transform="translate(26,34)"/>
<path d="M0,0 L3,0 L3,9 L0,8 Z " fill="#B5D0AA" transform="translate(120,92)"/>
<path d="M0,0 L1,4 L-3,9 L-11,8 L-11,7 L-5,7 L-5,5 L-1,3 Z " fill="#C0D5AE" transform="translate(107,45)"/>
<path d="M0,0 L6,0 L6,3 L-2,3 L-5,1 Z " fill="#C0CA9A" transform="translate(20,33)"/>
<path d="M0,0 L3,0 L3,2 L1,2 L1,10 L-1,10 L-1,1 Z " fill="#C8D2A0" transform="translate(58,91)"/>
<path d="M0,0 L2,1 L1,6 L-7,7 L-7,5 L-2,5 L-2,3 L0,2 Z " fill="#C8DCB5" transform="translate(103,43)"/>
<path d="M0,0 L8,0 L7,6 L6,2 L-3,2 Z " fill="#B5CEAA" transform="translate(109,69)"/>
<path d="M0,0 L4,0 L5,7 L0,4 Z " fill="#B6CAA5" transform="translate(96,82)"/>
<path d="M0,0 L2,1 L1,3 L-1,3 L0,7 L-2,12 L-3,12 L-3,5 L-2,2 L0,2 Z " fill="#A6B68B" transform="translate(84,68)"/>
<path d="M0,0 L1,3 L3,4 L1,4 L0,6 L0,4 L-3,4 L-4,7 L-3,2 Z " fill="#A0AF8B" transform="translate(80,27)"/>
<path d="M0,0 L2,0 L1,4 L-4,5 L-3,2 Z " fill="#CAD5A2" transform="translate(70,102)"/>
<path d="M0,0 L6,2 L6,5 L1,4 Z " fill="#B9CDA0" transform="translate(90,54)"/>
<path d="M0,0 L4,1 L4,3 L-2,5 Z " fill="#C2CC9E" transform="translate(27,38)"/>
<path d="M0,0 L4,2 L2,3 L1,5 L-2,1 Z " fill="#A5BE99" transform="translate(107,102)"/>
<path d="M0,0 L2,3 L1,8 L-1,6 Z " fill="#B0C9A4" transform="translate(104,95)"/>
<path d="M0,0 L5,1 L5,3 L2,3 L1,5 Z " fill="#B0C9A4" transform="translate(104,56)"/>
<path d="M0,0 L3,0 L2,6 L0,5 Z " fill="#B4C8A0" transform="translate(108,38)"/>
<path d="M0,0 L3,1 L4,6 L1,5 Z " fill="#C4D4AA" transform="translate(80,41)"/>
<path d="M0,0 L4,1 L4,4 L-1,3 Z " fill="#C0DAB4" transform="translate(110,75)"/>
<path d="M0,0 L2,0 L3,6 L2,4 L-1,3 Z " fill="#AFC397" transform="translate(89,57)"/>
<path d="M0,0 L4,0 L4,2 L2,2 L2,4 L0,4 Z " fill="#B2C081" transform="translate(11,127)"/>
<path d="M0,0 L1,2 L3,3 L-1,5 Z " fill="#BAC491" transform="translate(10,33)"/>
<path d="M0,0 L2,0 L2,5 L-1,4 Z " fill="#030302" transform="translate(74,111)"/>
<path d="M0,0 L3,0 L3,2 L1,2 L1,4 L-1,4 Z " fill="#C3CE9D" transform="translate(58,91)"/>
<path d="M0,0 L1,0 L1,6 L-2,3 L-2,1 Z " fill="#C3CD9B" transform="translate(11,37)"/>
<path d="M0,0 L2,0 L1,4 L-2,4 Z " fill="#C3D3A9" transform="translate(82,32)"/>
<path d="M0,0 L3,1 L3,4 L0,3 Z " fill="#B9C59D" transform="translate(77,44)"/>
</svg>
