<?xml version="1.0" encoding="UTF-8"?>
<!-- Generator: visioncortex VTracer 0.6.4 -->
<svg version="1.1" xmlns="http://www.w3.org/2000/svg" width="72" height="98">
<path d="M0,0 L72,0 L72,98 L0,98 Z " fill="#000102" transform="translate(0,0)"/>
<path d="M0,0 L22,0 L24,4 L26,4 L26,8 L32,8 L32,18 L24,18 L24,28 L16,28 L16,26 L12,26 L12,42 L4,42 L4,44 L-2,44 L-2,46 L2,46 L2,48 L12,48 L12,54 L10,54 L10,60 L12,60 L12,68 L8,68 L8,76 L0,76 L0,70 L2,70 L2,64 L0,64 L0,60 L-2,60 L-2,56 L-8,56 L-8,60 L-10,60 L-10,64 L-16,64 L-16,60 L-20,60 L-20,42 L-24,42 L-24,34 L-20,34 L-20,20 L-10,20 L-10,28 L4,28 L4,26 L-4,26 L-4,14 L-12,14 L-12,8 L-4,8 L-4,2 L0,2 Z " fill="#3E6898" transform="translate(34,4)"/>
<path d="M0,0 L8,0 L8,2 L2,2 L2,8 L23,8 L23,10 L21,11 L21,13 L25,13 L25,9 L27,9 L27,16 L25,17 L29,18 L29,20 L17,19 L17,17 L15,18 L16,25 L21,25 L21,27 L31,27 L31,33 L29,33 L29,39 L31,39 L31,47 L27,47 L27,55 L19,55 L19,49 L21,49 L21,43 L19,43 L19,39 L17,39 L17,35 L11,35 L11,39 L9,39 L9,43 L3,43 L3,39 L-1,39 L-1,21 L-5,21 L-5,13 L0,13 Z " fill="#406D9F" transform="translate(15,25)"/>
<path d="M0,0 L6,1 L11,3 L12,7 L8,11 L7,13 L4,13 L4,23 L-7,23 L-9,21 L-16,20 L-17,13 L-11,12 L-11,9 L-9,9 L-8,12 L-5,13 L-6,10 L-8,9 L-8,6 L-12,5 L-11,1 L-6,2 L-4,3 L-4,1 Z " fill="#406B9E" transform="translate(48,6)"/>
<path d="M0,0 L4,0 L4,2 L14,2 L14,8 L12,8 L12,14 L14,14 L14,22 L10,22 L10,30 L2,30 L2,24 L4,24 L4,18 L2,18 L2,14 L0,14 L0,10 L-6,10 L-6,14 L-8,14 L-8,18 L-14,18 L-13,14 L-13,17 L-9,17 L-10,12 L-7,13 L-8,8 L-1,8 L-1,3 L3,3 L3,1 Z " fill="#31557E" transform="translate(32,50)"/>
<path d="M0,0 L22,0 L24,4 L26,4 L25,8 L25,5 L22,6 L22,4 L14,3 L10,3 L10,5 L3,4 L2,7 L9,8 L6,9 L6,11 L9,12 L10,16 L5,14 L5,11 L3,11 L3,14 L-3,15 L-3,25 L4,25 L4,26 L-4,26 L-4,14 L-12,14 L-12,8 L-4,8 L-4,2 L0,2 Z " fill="#2A5885" transform="translate(34,4)"/>
<path d="M0,0 L8,0 L8,2 L2,2 L2,8 L13,8 L13,11 L9,11 L10,16 L9,25 L1,26 L0,38 L3,39 L-1,39 L-1,21 L-5,21 L-5,13 L0,13 Z " fill="#3E6999" transform="translate(15,25)"/>
<path d="M0,0 L6,0 L6,10 L-2,10 L-2,20 L-10,20 L-10,18 L-14,17 L-8,17 L-8,7 L-5,7 L-3,2 Z " fill="#2F537D" transform="translate(60,12)"/>
<path d="M0,0 L6,0 L7,4 L11,5 L11,7 L15,8 L8,8 L9,13 L7,14 L7,17 L3,17 L2,14 L-1,13 L-1,1 Z " fill="#406F9C" transform="translate(16,50)"/>
<path d="M0,0 L1,0 L1,6 L3,6 L3,14 L-1,14 L-1,22 L-9,22 L-9,16 L-7,16 L-7,10 L-9,10 L-8,6 L-8,9 L-1,8 Z " fill="#2A496E" transform="translate(43,58)"/>
<path d="M0,0 L3,1 L3,4 L6,5 L7,9 L8,12 L11,13 L11,15 L8,17 L7,19 L3,19 L2,17 L-1,16 L-2,12 L0,12 Z " fill="#3F699A" transform="translate(24,38)"/>
<path d="M0,0 L2,0 L3,3 L5,4 L5,6 L10,5 L8,9 L6,14 L2,12 L-5,11 L-6,4 L0,3 Z " fill="#4371A1" transform="translate(37,15)"/>
<path d="M0,0 L8,0 L8,1 L1,1 L1,5 L9,5 L10,1 L12,0 L21,0 L18,1 L18,3 L21,4 L22,8 L17,6 L17,3 L15,3 L15,6 L9,7 L9,17 L16,17 L16,18 L8,18 L8,6 L0,6 Z " fill="#2A4F73" transform="translate(22,12)"/>
<path d="M0,0 L6,1 L11,3 L12,7 L10,8 L4,8 L4,4 L4,2 L-3,4 L-3,8 L-8,8 L-8,6 L-12,5 L-11,1 L-6,2 L-4,3 L-4,1 Z " fill="#335D90" transform="translate(48,6)"/>
<path d="M0,0 L9,0 L9,5 L7,5 L7,10 L1,11 L-1,6 L-3,4 Z " fill="#3A639D" transform="translate(36,53)"/>
<path d="M0,0 L10,0 L10,8 L24,8 L24,9 L6,10 L3,9 L3,3 L9,3 L9,1 L1,1 L1,14 L0,14 Z " fill="#2F5171" transform="translate(14,24)"/>
<path d="M0,0 L22,0 L24,4 L26,4 L25,8 L25,5 L22,6 L22,4 L14,3 L-3,3 L-3,8 L-4,8 L-4,2 L0,2 Z " fill="#223E61" transform="translate(34,4)"/>
<path d="M0,0 L6,0 L5,10 L1,11 L0,13 L-1,10 L-4,10 L-3,7 L0,7 Z " fill="#4172A4" transform="translate(16,35)"/>
<path d="M0,0 L6,0 L6,11 L3,11 L3,9 L-1,8 L-1,1 Z " fill="#4576A8" transform="translate(16,50)"/>
<path d="M0,0 L1,0 L1,16 L-7,16 L-7,18 L-13,18 L-14,20 L-16,16 L-15,12 L-13,12 L-13,14 L0,15 Z " fill="#355782" transform="translate(45,30)"/>
<path d="M0,0 L5,0 L3,5 L0,5 L0,15 L-2,15 L-2,13 L-6,13 L-5,10 L-1,10 L-1,8 L-4,8 L-4,5 L-1,5 Z " fill="#3B6598" transform="translate(52,14)"/>
<path d="M0,0 L4,1 L1,1 L1,7 L6,6 L7,9 L10,9 L10,12 L6,13 L5,25 L8,26 L4,26 L4,8 L0,8 Z " fill="#315270" transform="translate(10,38)"/>
<path d="M0,0 L2,0 L2,6 L-1,7 L-2,13 L-4,13 L-4,9 L-6,9 L-6,4 L-1,2 Z " fill="#335B88" transform="translate(43,65)"/>
<path d="M0,0 L6,0 L6,10 L-2,10 L-2,20 L-10,20 L-10,19 L-3,19 L-3,9 L5,9 L5,1 L1,1 L1,4 L-2,4 L-2,1 Z " fill="#213A57" transform="translate(60,12)"/>
<path d="M0,0 L1,2 L7,3 L7,5 L4,7 L3,9 L-1,9 L-2,2 Z " fill="#3E669C" transform="translate(28,48)"/>
<path d="M0,0 L2,0 L2,7 L0,8 L4,9 L4,11 L-5,10 L-4,6 L0,4 Z " fill="#3F699F" transform="translate(40,34)"/>
<path d="M0,0 L4,1 L4,3 L0,4 L0,10 L-2,10 L-2,12 L-4,12 L-4,3 L-1,3 Z " fill="#335B8A" transform="translate(56,16)"/>
<path d="M0,0 L3,0 L3,2 L5,3 L3,3 L3,8 L-3,9 L-3,6 L-1,6 Z " fill="#396196" transform="translate(40,55)"/>
<path d="M0,0 L6,0 L6,6 L0,6 Z " fill="#244361" transform="translate(48,70)"/>
<path d="M0,0 L1,4 L3,4 L3,10 L1,10 L1,16 L0,16 L-1,3 Z " fill="#050A0F" transform="translate(33,64)"/>
<path d="M0,0 L10,0 L10,2 L7,3 L6,7 L4,7 L4,2 L0,2 Z " fill="#4171A2" transform="translate(28,33)"/>
<path d="M0,0 L8,0 L8,2 L2,2 L2,8 L5,9 L0,9 Z " fill="#3A6691" transform="translate(15,25)"/>
<path d="M0,0 L2,0 L3,4 L0,7 L-6,7 L-6,4 L0,3 Z " fill="#3C6994" transform="translate(37,15)"/>
<path d="M0,0 L4,1 L4,3 L8,3 L7,6 L0,5 L-1,1 Z " fill="#426D9E" transform="translate(32,21)"/>
<path d="M0,0 L4,0 L4,2 L6,3 L3,6 L3,3 L0,3 L0,5 L-3,6 L-3,2 Z " fill="#3A659A" transform="translate(48,8)"/>
<path d="M0,0 L9,0 L9,2 L-3,3 L-3,8 L-4,8 L-4,2 L0,2 Z " fill="#1E3F64" transform="translate(34,4)"/>
<path d="M0,0 L1,0 L1,8 L-2,9 L-4,11 L-4,5 L-1,4 Z " fill="#406B95" transform="translate(15,34)"/>
<path d="M0,0 L4,0 L4,8 L2,8 L2,4 L0,4 Z " fill="#386290" transform="translate(61,13)"/>
<path d="M0,0 L4,0 L4,5 L0,6 Z " fill="#325C86" transform="translate(17,27)"/>
<path d="M0,0 L3,0 L4,5 L2,5 L2,7 L0,7 L-1,3 Z " fill="#416DA3" transform="translate(48,11)"/>
<path d="M0,0 L3,1 L4,5 L0,5 L0,2 L-7,2 L-7,1 Z " fill="#335785" transform="translate(33,58)"/>
<path d="M0,0 L9,0 L9,4 L7,4 L7,2 L0,2 Z " fill="#4069A1" transform="translate(36,53)"/>
<path d="M0,0 L2,0 L2,7 L-2,8 L-3,10 L-2,6 L-1,6 Z " fill="#416E9D" transform="translate(19,38)"/>
<path d="M0,0 L6,0 L6,7 L5,4 L2,4 L2,1 Z " fill="#4471A3" transform="translate(16,50)"/>
<path d="M0,0 L4,0 L5,5 L1,5 Z " fill="#3D6D94" transform="translate(18,62)"/>
<path d="M0,0 L3,0 L3,7 L0,6 Z " fill="#4371A6" transform="translate(40,22)"/>
<path d="M0,0 L4,0 L4,4 L0,4 Z " fill="#386693" transform="translate(49,71)"/>
<path d="M0,0 L3,0 L3,4 L1,4 L0,6 L-1,3 Z " fill="#446EA2" transform="translate(25,43)"/>
<path d="M0,0 L4,0 L4,2 L6,3 L-1,3 Z " fill="#2C5B85" transform="translate(24,14)"/>
<path d="M0,0 L6,0 L5,2 L1,1 L1,4 L-2,4 L-2,1 Z " fill="#203651" transform="translate(60,12)"/>
<path d="M0,0 L1,3 L5,4 L-3,5 L-3,2 L0,2 Z " fill="#2B5A8D" transform="translate(35,8)"/>
<path d="M0,0 L3,1 L3,3 L7,4 L0,4 Z " fill="#406AA1" transform="translate(24,54)"/>
<path d="M0,0 L3,0 L3,4 L-2,4 L-2,1 Z " fill="#365F8E" transform="translate(42,10)"/>
<path d="M0,0 L1,3 L4,4 L4,6 L0,6 Z " fill="#497DB3" transform="translate(16,52)"/>
<path d="M0,0 L2,0 L3,4 L0,5 L-1,1 Z " fill="#335A89" transform="translate(57,9)"/>
<path d="M0,0 L1,0 L1,5 L-2,5 L-1,1 Z " fill="#3C6596" transform="translate(28,48)"/>
<path d="M0,0 L3,0 L2,4 L0,4 Z " fill="#4373A6" transform="translate(32,36)"/>
<path d="M0,0 L3,0 L4,4 L0,3 Z " fill="#26405B" transform="translate(40,16)"/>
<path d="M0,0 L3,0 L2,3 L-1,3 Z " fill="#44719D" transform="translate(13,42)"/>
<path d="M0,0 L3,1 L2,4 L0,4 Z " fill="#3C6490" transform="translate(22,38)"/>
<path d="M0,0 L4,0 L4,2 L-2,3 Z " fill="#345F89" transform="translate(33,16)"/>
<path d="M0,0 L3,0 L3,3 L0,3 Z " fill="#3D638F" transform="translate(17,47)"/>
<path d="M0,0 L3,0 L3,3 L0,3 Z " fill="#345F90" transform="translate(52,22)"/>
<path d="M0,0 L3,0 L3,3 L0,3 Z " fill="#4677AF" transform="translate(40,22)"/>
<path d="M0,0 L3,0 L3,3 L0,3 Z " fill="#375E94" transform="translate(37,7)"/>
<path d="M0,0 L3,0 L3,3 L0,2 Z " fill="#33608C" transform="translate(50,72)"/>
<path d="M0,0 L4,1 L4,3 L0,1 Z " fill="#2D5282" transform="translate(40,6)"/>
</svg>
