<?xml version="1.0" encoding="UTF-8"?>
<!-- Generator: visioncortex VTracer 0.6.4 -->
<svg version="1.1" xmlns="http://www.w3.org/2000/svg" width="158" height="152">
<path d="M0,0 L158,0 L158,152 L0,152 Z " fill="#000100" transform="translate(0,0)"/>
<path d="M0,0 L8,0 L8,2 L12,2 L12,6 L14,6 L14,10 L16,10 L16,12 L18,12 L18,18 L20,18 L20,22 L22,22 L22,28 L24,28 L24,30 L26,30 L26,40 L35,40 L38,42 L38,38 L52,38 L52,44 L60,44 L60,34 L62,34 L62,32 L68,32 L68,38 L78,38 L78,54 L72,54 L72,52 L70,52 L70,54 L68,54 L68,60 L62,60 L62,58 L60,58 L60,54 L50,54 L50,56 L46,56 L46,64 L54,64 L54,66 L58,66 L58,68 L62,68 L62,70 L70,70 L70,86 L68,86 L68,90 L60,90 L60,98 L50,98 L50,94 L46,94 L46,90 L40,90 L40,82 L38,82 L38,78 L34,78 L34,72 L38,72 L38,70 L34,70 L34,68 L30,68 L30,66 L26,66 L26,68 L20,68 L20,70 L14,70 L14,72 L6,72 L6,70 L4,70 L2,65 L0,64 L0,46 L4,46 L4,42 L2,42 L1,20 L-2,18 L-2,2 L0,2 Z " fill="#A7E657" transform="translate(68,18)"/>
<path d="M0,0 L1,4 L3,4 L3,10 L5,10 L5,12 L7,12 L7,22 L16,22 L19,24 L19,20 L33,20 L33,26 L41,26 L41,16 L43,16 L43,14 L49,14 L49,20 L59,20 L59,36 L53,36 L53,34 L51,34 L51,36 L49,36 L49,42 L43,42 L43,40 L41,40 L41,36 L31,36 L31,38 L27,38 L27,46 L35,46 L35,48 L39,48 L39,50 L43,50 L43,52 L51,52 L51,68 L49,68 L49,72 L41,72 L41,80 L31,80 L31,76 L27,76 L27,72 L21,72 L21,64 L19,64 L19,60 L15,60 L15,54 L19,54 L19,52 L15,52 L15,50 L11,49 L24,47 L25,46 L25,38 L25,34 L39,35 L39,27 L33,27 L33,29 L19,29 L17,28 L17,26 L6,26 L6,24 L4,24 L6,31 L9,30 L9,34 L1,36 L1,33 L-9,33 L-10,28 L-12,27 L-10,27 L-11,23 L-5,22 L3,23 L3,21 L0,20 L2,20 L1,10 L2,5 L-1,5 Z " fill="#A1D13D" transform="translate(87,36)"/>
<path d="M0,0 L1,4 L3,4 L3,10 L5,10 L5,12 L7,12 L7,22 L16,22 L19,24 L19,20 L33,20 L33,26 L41,26 L41,16 L43,16 L43,14 L49,14 L49,20 L59,20 L59,36 L53,36 L53,34 L51,34 L51,36 L49,36 L49,42 L43,42 L43,40 L41,40 L41,36 L31,36 L31,35 L39,35 L39,27 L33,27 L33,29 L19,29 L17,28 L17,26 L6,26 L6,24 L4,24 L6,31 L9,30 L9,34 L1,36 L1,33 L-9,33 L-10,28 L-12,27 L-10,27 L-11,23 L-5,22 L3,23 L3,21 L0,20 L2,20 L1,10 L2,5 L-1,5 Z " fill="#8FD34E" transform="translate(87,36)"/>
<path d="M0,0 L8,0 L8,2 L12,2 L12,6 L14,6 L14,10 L16,10 L16,12 L18,12 L19,21 L18,23 L21,23 L21,38 L22,41 L5,40 L3,39 L3,41 L5,41 L5,46 L4,42 L2,42 L1,20 L-2,18 L-2,2 L0,2 Z " fill="#9EE253" transform="translate(68,18)"/>
<path d="M0,0 L12,0 L12,12 L18,12 L18,18 L20,18 L20,24 L13,30 L12,32 L6,32 L6,36 L-2,36 L-2,4 L0,4 Z " fill="#A5EE75" transform="translate(30,52)"/>
<path d="M0,0 L6,0 L6,6 L16,6 L16,22 L10,22 L10,20 L8,20 L8,22 L6,22 L6,28 L0,28 L-1,25 L-1,2 Z " fill="#A9E442" transform="translate(130,50)"/>
<path d="M0,0 L10,0 L10,2 L12,2 L12,24 L2,24 L2,22 L-2,22 L-2,2 L0,2 Z " fill="#9EDF68" transform="translate(66,108)"/>
<path d="M0,0 L3,0 L4,2 L16,3 L16,19 L13,19 L13,22 L8,22 L8,19 L4,19 L-1,10 L-3,9 L-3,5 L-6,5 L-6,1 Z " fill="#B3F83F" transform="translate(122,85)"/>
<path d="M0,0 L9,0 L10,6 L13,7 L13,11 L3,11 L-12,16 L-15,16 L-18,11 L-19,3 L-14,2 L-14,4 L-3,4 L-2,1 Z " fill="#ACEE67" transform="translate(91,70)"/>
<path d="M0,0 L4,1 L1,1 L1,5 L3,5 L4,3 L9,2 L9,5 L13,6 L13,9 L16,10 L17,16 L26,16 L33,17 L34,14 L34,18 L26,18 L26,26 L16,26 L16,22 L12,22 L12,18 L6,18 L6,10 L4,10 L4,6 L0,6 Z " fill="#68A920" transform="translate(102,90)"/>
<path d="M0,0 L12,0 L12,12 L18,12 L18,18 L20,18 L20,24 L13,30 L12,32 L6,32 L6,36 L-2,36 L-2,4 L0,4 Z M-1,5 L-1,35 L5,35 L6,32 L11,31 L12,27 L14,26 L14,24 L16,24 L16,22 L18,22 L18,20 L16,20 L16,17 L14,17 L14,15 L16,15 L16,13 L7,14 L6,6 L1,5 Z " fill="#7DB55D" transform="translate(30,52)"/>
<path d="M0,0 L4,0 L6,10 L7,16 L9,16 L8,22 L11,22 L12,27 L4,27 L3,23 L0,19 L-2,11 L-6,8 L-5,1 Z " fill="#AAF558" transform="translate(78,32)"/>
<path d="M0,0 L1,0 L2,12 L4,12 L6,15 L6,20 L10,22 L12,25 L14,32 L17,37 L16,38 L7,38 L5,37 L5,39 L7,39 L7,44 L6,40 L4,40 L3,18 L0,16 Z " fill="#A0E158" transform="translate(66,20)"/>
<path d="M0,0 L6,0 L6,6 L16,6 L16,22 L10,22 L10,20 L8,20 L8,22 L6,22 L5,1 L0,1 Z " fill="#8DBB35" transform="translate(130,50)"/>
<path d="M0,0 L6,0 L7,1 L7,10 L1,9 L1,20 L11,20 L13,22 L12,26 L7,27 L6,30 L0,30 Z " fill="#97E364" transform="translate(29,57)"/>
<path d="M0,0 L9,1 L5,2 L7,11 L17,12 L17,17 L9,18 L6,17 L6,15 L1,16 L1,21 L-2,20 L-2,8 L1,7 L2,2 L0,2 Z " fill="#9FE26E" transform="translate(71,57)"/>
<path d="M0,0 L1,0 L2,24 L0,24 L0,20 L-10,20 L-10,19 L-2,19 L-2,11 L-22,11 L-22,9 L-25,9 L-24,7 L-22,8 L-22,4 L-8,4 L-8,10 L0,10 Z " fill="#75AF31" transform="translate(128,52)"/>
<path d="M0,0 L8,0 L9,2 L9,19 L4,19 L3,16 L0,16 Z " fill="#A3E566" transform="translate(68,112)"/>
<path d="M0,0 L4,1 L1,1 L1,13 L5,12 L7,18 L8,22 L20,18 L30,19 L26,20 L26,22 L20,22 L20,24 L14,24 L14,26 L6,26 L6,24 L4,24 L2,19 L0,18 Z " fill="#93E166" transform="translate(68,64)"/>
<path d="M0,0 L8,0 L8,2 L12,2 L12,6 L14,6 L14,10 L16,10 L16,12 L18,12 L19,21 L18,23 L21,23 L21,36 L18,36 L19,30 L17,30 L14,22 L15,16 L17,16 L15,14 L15,11 L12,12 L13,7 L11,7 L11,9 L5,8 L7,1 L0,1 Z " fill="#A5EC55" transform="translate(68,18)"/>
<path d="M0,0 L4,1 L5,4 L5,12 L3,14 L-10,15 L-10,13 L-17,12 L-14,10 L-4,11 L-4,5 L0,4 Z " fill="#B0ED55" transform="translate(108,70)"/>
<path d="M0,0 L3,0 L4,2 L8,2 L8,4 L15,4 L15,6 L12,6 L12,15 L5,14 L4,10 L2,9 L2,5 L-2,5 L-2,1 Z " fill="#C2E949" transform="translate(122,85)"/>
<path d="M0,0 L3,0 L3,2 L6,2 L6,5 L14,6 L14,9 L10,9 L8,13 L2,14 L-1,9 L-2,1 Z " fill="#A8F476" transform="translate(74,72)"/>
<path d="M0,0 L11,0 L11,2 L27,3 L27,1 L33,1 L33,9 L25,9 L23,8 L23,4 L15,4 L15,6 L8,5 L8,1 L0,2 Z " fill="#9AE055" transform="translate(93,62)"/>
<path d="M0,0 L3,1 L2,3 L9,4 L9,6 L13,7 L19,13 L21,21 L20,23 L17,22 L16,16 L14,15 L13,12 L10,11 L10,8 L6,8 L5,10 L2,11 L2,7 L5,7 L5,4 L1,4 L1,2 L-3,1 Z " fill="#8CD336" transform="translate(101,84)"/>
<path d="M0,0 L4,1 L1,1 L1,5 L3,5 L4,3 L9,2 L9,5 L12,5 L12,9 L10,9 L10,17 L12,18 L6,18 L6,10 L4,10 L4,6 L0,6 Z " fill="#4B8614" transform="translate(102,90)"/>
<path d="M0,0 L4,2 L2,2 L2,18 L6,20 L6,42 L8,42 L7,44 L4,42 L4,24 L3,42 L2,42 L1,21 L0,18 Z M1,19 Z " fill="#121B0A" transform="translate(64,18)"/>
<path d="M0,0 L1,0 L2,12 L4,12 L6,15 L6,20 L8,20 L8,24 L5,24 L5,39 L7,39 L7,44 L6,40 L4,40 L3,18 L0,16 Z " fill="#76AD42" transform="translate(66,20)"/>
<path d="M0,0 L8,0 L8,6 L6,6 L6,8 L-4,8 L-4,4 L-2,4 L-2,2 L0,2 Z " fill="#10150A" transform="translate(82,60)"/>
<path d="M0,0 L4,1 L1,1 L1,13 L5,12 L7,18 L8,23 L7,25 L14,25 L14,26 L6,26 L6,24 L4,24 L2,19 L0,18 Z " fill="#7CBD55" transform="translate(68,64)"/>
<path d="M0,0 L10,0 L10,2 L12,2 L12,24 L2,24 L2,23 L11,23 L10,4 L8,3 L9,1 L1,1 L1,3 L-1,3 L-1,21 L2,22 L-2,22 L-2,2 L0,2 Z " fill="#6A9B40" transform="translate(66,108)"/>
<path d="M0,0 L6,0 L6,12 L0,12 Z " fill="#61861A" transform="translate(144,82)"/>
<path d="M0,0 L6,0 L7,1 L7,10 L1,9 L1,19 L0,19 Z " fill="#A0E56D" transform="translate(29,57)"/>
<path d="M0,0 L1,4 L-7,4 L-8,11 L-16,11 L-15,7 L-13,7 L-13,2 L0,3 Z " fill="#87BF32" transform="translate(135,104)"/>
<path d="M0,0 L8,0 L8,16 L2,17 L4,3 L7,3 L7,1 L0,1 Z " fill="#91B438" transform="translate(130,88)"/>
<path d="M0,0 L8,0 L8,2 L12,2 L12,6 L14,6 L14,10 L16,10 L16,12 L18,12 L18,18 L15,14 L15,11 L12,12 L13,7 L11,7 L11,9 L5,8 L7,1 L0,1 Z " fill="#88BF4F" transform="translate(68,18)"/>
<path d="M0,0 L11,0 L11,5 L3,6 L0,5 L0,3 L-4,4 L-4,1 Z " fill="#A8E26E" transform="translate(77,69)"/>
<path d="M0,0 L5,0 L5,2 L3,2 L3,4 L5,4 L5,7 L7,7 L7,9 L-3,8 L-5,8 L-5,2 Z " fill="#9CDF7E" transform="translate(41,65)"/>
<path d="M0,0 L10,0 L10,16 L4,16 L8,15 L8,13 L6,13 L6,1 L0,1 Z " fill="#62891F" transform="translate(136,56)"/>
<path d="M0,0 L6,0 L6,10 L4,14 L2,14 L0,8 Z " fill="#AEF06F" transform="translate(68,112)"/>
<path d="M0,0 L2,1 L2,3 L6,4 L10,11 L10,13 L14,13 L14,16 L5,16 L3,6 L-1,1 Z " fill="#9EE234" transform="translate(116,91)"/>
<path d="M0,0 L1,2 L3,2 L2,7 L0,7 L2,19 L3,24 L1,24 L1,26 L5,26 L5,21 L6,21 L6,27 L0,27 L-1,24 L-1,1 Z " fill="#A5D846" transform="translate(130,51)"/>
<path d="M0,0 L12,0 L12,2 L16,3 L11,7 L3,9 L4,6 L8,6 L8,3 L0,2 Z " fill="#ACF26B" transform="translate(80,75)"/>
<path d="M0,0 L1,4 L3,4 L3,10 L5,10 L5,12 L7,12 L7,22 L5,18 L4,21 L0,20 L2,20 L1,10 L2,5 L-1,5 Z " fill="#81BC45" transform="translate(87,36)"/>
<path d="M0,0 L7,0 L4,11 L-1,10 L-1,1 Z " fill="#A4DC65" transform="translate(68,19)"/>
<path d="M0,0 L10,0 L10,4 L12,4 L11,6 L-3,3 L-3,9 L4,9 L4,10 L-4,10 L-4,2 L0,2 Z " fill="#161A09" transform="translate(118,72)"/>
<path d="M0,0 L3,0 L5,3 L6,12 L2,12 L0,8 Z " fill="#ADF95A" transform="translate(79,42)"/>
<path d="M0,0 L4,4 L6,13 L0,13 Z " fill="#A4EC54" transform="translate(74,41)"/>
<path d="M0,0 L2,0 L2,12 L4,12 L4,14 L-2,13 L0,12 L0,9 L-2,9 L-2,2 Z " fill="#7AAC1E" transform="translate(140,57)"/>
<path d="M0,0 L3,1 L2,3 L9,4 L9,6 L13,7 L9,8 L6,8 L5,10 L2,11 L2,7 L5,7 L5,4 L1,4 L1,2 L-3,1 Z " fill="#83C136" transform="translate(101,84)"/>
<path d="M0,0 L1,0 L3,7 L6,6 L6,10 L-2,12 L-2,9 L-12,9 L-12,8 L-2,8 L-2,6 L0,6 Z " fill="#97C759" transform="translate(90,60)"/>
<path d="M0,0 L10,0 L10,5 L2,5 L0,4 Z " fill="#B9E150" transform="translate(116,66)"/>
<path d="M0,0 L4,1 L5,4 L5,12 L2,12 L2,8 L0,8 Z " fill="#AFE150" transform="translate(108,70)"/>
<path d="M0,0 L14,0 L14,6 L13,6 L13,1 L11,1 L11,4 L3,4 L3,1 L1,1 L0,4 Z " fill="#4C891A" transform="translate(106,56)"/>
<path d="M0,0 L9,1 L5,2 L6,6 L4,6 L4,11 L0,13 L0,8 L2,2 L0,2 Z " fill="#A0DE67" transform="translate(71,57)"/>
<path d="M0,0 L4,0 L4,6 L2,6 L1,4 L-3,3 L-2,10 L-6,8 L-5,1 Z " fill="#A6F058" transform="translate(78,32)"/>
<path d="M0,0 L4,0 L4,4 L8,4 L8,10 L3,9 L2,5 L0,4 Z " fill="#BBF443" transform="translate(124,90)"/>
<path d="M0,0 L2,0 L3,3 L5,3 L6,5 L9,6 L10,11 L5,10 L5,6 L1,9 Z " fill="#A8E560" transform="translate(91,60)"/>
<path d="M0,0 L4,0 L5,10 L0,9 Z " fill="#AAF278" transform="translate(30,66)"/>
<path d="M0,0 L12,0 L12,3 L4,4 L0,3 Z " fill="#ADFD7B" transform="translate(76,78)"/>
<path d="M0,0 L1,0 L1,6 L-6,12 L-7,14 L-13,14 L-13,13 L-8,13 L-9,9 L-5,8 L-5,6 L-3,6 L-3,4 L0,4 Z " fill="#7BBB5B" transform="translate(49,70)"/>
<path d="M0,0 L2,0 L2,3 L10,3 L10,0 L12,0 L11,5 L0,5 L-4,4 L-3,2 L0,3 Z " fill="#66AC29" transform="translate(107,57)"/>
<path d="M0,0 L5,2 L7,8 L14,11 L14,13 L9,13 L9,10 L5,10 Z " fill="#ACEB3C" transform="translate(121,94)"/>
<path d="M0,0 L10,1 L10,2 L2,2 L2,4 L0,4 L0,6 L-2,6 L-3,10 L-3,6 L-5,5 L-3,5 L-4,1 Z " fill="#93C15B" transform="translate(80,58)"/>
<path d="M0,0 L10,0 L12,2 L3,5 L0,5 Z " fill="#9DE86C" transform="translate(30,77)"/>
<path d="M0,0 L3,0 L3,8 L6,8 L7,11 L3,11 L3,9 L0,9 Z " fill="#97DF59" transform="translate(65,120)"/>
<path d="M0,0 L1,3 L5,3 L5,0 L8,0 L8,3 L6,3 L5,7 L13,7 L13,2 L14,2 L14,8 L4,8 L4,4 L0,4 Z " fill="#446F17" transform="translate(114,108)"/>
<path d="M0,0 L3,0 L4,2 L8,2 L8,5 L-2,5 L-2,1 Z " fill="#B9E33F" transform="translate(122,85)"/>
<path d="M0,0 L9,0 L9,6 L5,4 L5,2 L-3,4 L-2,1 Z " fill="#ADE863" transform="translate(91,70)"/>
<path d="M0,0 L3,1 L3,10 L-1,9 L-1,1 Z " fill="#A1E475" transform="translate(33,57)"/>
<path d="M0,0 L8,0 L9,5 L1,5 Z " fill="#ACE75F" transform="translate(81,54)"/>
<path d="M0,0 L7,1 L3,2 L3,4 L-3,4 L-3,6 L-9,6 L-9,5 L-4,5 L-5,2 Z " fill="#78B846" transform="translate(91,82)"/>
<path d="M0,0 L6,0 L6,4 L2,4 L2,12 L1,12 L0,4 Z " fill="#9ABF48" transform="translate(112,70)"/>
<path d="M0,0 L1,0 L2,13 L-2,11 L-2,3 L0,3 Z " fill="#62A21F" transform="translate(114,96)"/>
<path d="M0,0 L8,1 L8,3 L10,3 L10,5 L0,4 L-2,4 L-2,1 Z " fill="#A1E684" transform="translate(38,69)"/>
<path d="M0,0 L7,0 L7,11 L5,11 L5,2 L0,2 Z " fill="#9FE37F" transform="translate(34,53)"/>
<path d="M0,0 L1,3 L5,4 L5,7 L-3,7 L-2,3 L0,3 Z " fill="#66A31F" transform="translate(122,108)"/>
<path d="M0,0 L2,4 L3,9 L1,9 L1,11 L5,11 L5,6 L6,6 L6,12 L0,12 L-1,7 Z " fill="#A8BF40" transform="translate(130,66)"/>
<path d="M0,0 L3,0 L4,11 L0,11 L0,9 L2,9 L0,4 Z " fill="#CEE44E" transform="translate(131,66)"/>
<path d="M0,0 L5,0 L5,5 L1,7 Z " fill="#B7F877" transform="translate(69,113)"/>
<path d="M0,0 L6,1 L10,4 L4,5 L4,3 L-3,2 Z " fill="#A1E85F" transform="translate(94,80)"/>
<path d="M0,0 L9,2 L9,4 L6,4 L6,9 L3,5 L3,3 L1,3 Z " fill="#9DE951" transform="translate(67,29)"/>
<path d="M0,0 L2,2 L2,6 L4,6 L5,2 L6,2 L6,8 L0,8 Z " fill="#A6EC69" transform="translate(68,120)"/>
<path d="M0,0 L4,1 L1,1 L1,5 L3,5 L4,3 L8,2 L8,5 L5,5 L5,10 L4,6 L0,6 Z " fill="#3E6915" transform="translate(102,90)"/>
<path d="M0,0 L4,0 L4,2 L8,3 L7,4 L0,4 L-4,1 Z " fill="#ABF050" transform="translate(104,80)"/>
<path d="M0,0 L3,1 L4,11 L2,11 L2,7 L-8,7 L-8,6 L0,6 Z " fill="#8FA635" transform="translate(126,65)"/>
<path d="M0,0 L6,0 L7,10 L6,8 L4,8 L4,5 L2,5 L2,3 L4,3 L4,1 Z " fill="#82BE6A" transform="translate(42,64)"/>
<path d="M0,0 L5,0 L5,4 L8,5 L8,8 L5,8 L4,3 L0,2 Z " fill="#A3E25A" transform="translate(96,63)"/>
<path d="M0,0 L3,2 L5,8 L4,10 L1,9 L0,3 L-2,1 Z " fill="#7FC927" transform="translate(117,97)"/>
<path d="M0,0 L2,0 L2,5 L5,5 L5,9 L0,8 Z " fill="#A7E861" transform="translate(67,21)"/>
<path d="M0,0 L2,1 L2,3 L6,4 L8,10 L1,4 L-1,1 Z " fill="#9EEA35" transform="translate(116,91)"/>
<path d="M0,0 L2,0 L2,2 L8,2 L8,3 L1,3 L0,7 L-2,8 L-2,2 L0,2 Z " fill="#151907" transform="translate(138,70)"/>
<path d="M0,0 L8,3 L8,7 L4,7 L4,3 L-1,2 Z " fill="#AEEE61" transform="translate(96,74)"/>
<path d="M0,0 L10,0 L10,3 L3,3 Z " fill="#A3DA66" transform="translate(78,71)"/>
<path d="M0,0 L3,0 L3,6 L1,6 L1,13 L0,13 Z " fill="#92DC4C" transform="translate(71,44)"/>
<path d="M0,0 L3,0 L2,5 L5,5 L5,8 L2,9 L0,4 Z " fill="#99E04F" transform="translate(84,36)"/>
<path d="M0,0 L6,1 L4,5 L-1,3 L-2,1 Z " fill="#B3EE3D" transform="translate(128,99)"/>
<path d="M0,0 L6,1 L6,4 L1,5 Z " fill="#A9F08A" transform="translate(40,72)"/>
<path d="M0,0 L4,1 L4,7 L1,7 Z " fill="#A8DE52" transform="translate(108,70)"/>
<path d="M0,0 L2,1 L1,2 L0,9 L2,9 L2,12 L0,12 L-1,15 L-1,1 Z " fill="#8CBA24" transform="translate(138,57)"/>
<path d="M0,0 L1,0 L1,7 L-4,8 L-2,3 L0,3 Z " fill="#A7DA3E" transform="translate(136,97)"/>
<path d="M0,0 L6,0 L6,3 L-4,3 L0,2 Z " fill="#A2D943" transform="translate(120,63)"/>
<path d="M0,0 L1,0 L1,14 L-1,17 L-2,11 L0,11 Z " fill="#82AE2F" transform="translate(128,52)"/>
<path d="M0,0 L4,1 L4,5 L6,5 L5,7 L2,6 L2,4 L0,4 L-1,1 Z " fill="#0B1207" transform="translate(68,83)"/>
<path d="M0,0 L1,0 L1,6 L-4,6 L-5,3 L0,3 Z " fill="#9CE361" transform="translate(76,125)"/>
<path d="M0,0 L4,1 L5,9 L3,9 L3,3 L0,3 Z " fill="#BCEA46" transform="translate(131,63)"/>
<path d="M0,0 L1,0 L1,7 L-2,7 L-2,1 Z " fill="#A6E865" transform="translate(67,113)"/>
<path d="M0,0 L1,3 L4,4 L1,4 L0,6 L-3,7 L-3,3 L0,3 Z " fill="#64A023" transform="translate(106,88)"/>
<path d="M0,0 L2,0 L2,4 L5,4 L4,8 L2,6 L0,6 Z " fill="#A6EC3F" transform="translate(114,86)"/>
<path d="M0,0 L6,0 L6,3 L0,3 Z " fill="#ACEB58" transform="translate(110,67)"/>
<path d="M0,0 L3,0 L2,5 L-1,6 L-1,1 Z " fill="#98D669" transform="translate(72,64)"/>
<path d="M0,0 L3,1 L3,7 L1,7 Z " fill="#6EB51F" transform="translate(115,99)"/>
<path d="M0,0 L2,0 L3,5 L6,6 L1,5 L1,3 L-2,2 Z " fill="#A6F07E" transform="translate(38,72)"/>
<path d="M0,0 L2,4 L3,9 L0,9 Z " fill="#ACF67B" transform="translate(32,67)"/>
<path d="M0,0 L4,0 L3,7 L1,7 L2,2 L0,2 Z " fill="#ACE651" transform="translate(131,51)"/>
<path d="M0,0 L4,0 L4,5 L2,5 L0,6 Z " fill="#0C1206" transform="translate(90,40)"/>
<path d="M0,0 L5,0 L4,4 L0,4 Z " fill="#A4E15E" transform="translate(69,22)"/>
<path d="M0,0 L3,2 L3,8 L1,9 Z " fill="#92E02C" transform="translate(120,98)"/>
<path d="M0,0 L5,2 L5,6 L2,5 Z " fill="#ACF43A" transform="translate(121,94)"/>
<path d="M0,0 L4,0 L4,3 L-2,3 L-2,1 Z " fill="#BDD942" transform="translate(126,87)"/>
<path d="M0,0 L4,0 L4,4 L0,4 Z " fill="#B3EB42" transform="translate(116,86)"/>
<path d="M0,0 L6,2 L6,4 L-1,3 Z " fill="#9ADE3E" transform="translate(104,84)"/>
<path d="M0,0 L3,3 L2,7 L0,7 Z " fill="#9DE950" transform="translate(74,43)"/>
<path d="M0,0 L2,0 L4,2 L4,5 L2,5 L1,7 L-1,1 Z " fill="#99DE53" transform="translate(81,29)"/>
<path d="M0,0 L3,1 L-1,3 L-1,5 L-4,5 L-3,1 Z " fill="#93DF5A" transform="translate(88,82)"/>
<path d="M0,0 L3,0 L3,2 L5,3 L1,3 L0,5 L-2,3 L0,3 Z " fill="#98D873" transform="translate(31,53)"/>
<path d="M0,0 L5,0 L1,3 L-3,3 L-3,1 Z " fill="#8ED85E" transform="translate(34,82)"/>
<path d="M0,0 L5,0 L5,3 L0,2 Z " fill="#A3EB5C" transform="translate(96,63)"/>
<path d="M0,0 L5,1 L5,4 L1,3 Z " fill="#88D22E" transform="translate(114,95)"/>
<path d="M0,0 L4,0 L3,4 L0,3 Z " fill="#C0F546" transform="translate(128,94)"/>
<path d="M0,0 L6,1 L3,3 L0,3 Z " fill="#99DD4F" transform="translate(98,82)"/>
<path d="M0,0 L1,3 L4,3 L4,5 L-2,4 L0,3 Z " fill="#80A621" transform="translate(140,66)"/>
<path d="M0,0 L7,0 L7,3 L4,3 L4,1 Z " fill="#B1DC4E" transform="translate(116,66)"/>
<path d="M0,0 L3,0 L4,4 L0,3 Z " fill="#B0FD57" transform="translate(80,46)"/>
<path d="M0,0 L1,2 L3,2 L2,7 L0,5 Z " fill="#8CD246" transform="translate(67,30)"/>
<path d="M0,0 L1,2 L0,4 L-4,3 L-4,1 Z " fill="#77B326" transform="translate(127,108)"/>
<path d="M0,0 L1,3 L4,4 L1,4 L0,6 L-2,3 L0,3 Z " fill="#61A021" transform="translate(110,92)"/>
<path d="M0,0 L3,0 L3,6 L2,3 L0,3 Z " fill="#B4DD46" transform="translate(134,91)"/>
<path d="M0,0 L4,0 L4,3 L0,3 Z " fill="#AEFB73" transform="translate(84,78)"/>
<path d="M0,0 L4,0 L4,3 L0,3 Z " fill="#AFF45F" transform="translate(100,78)"/>
<path d="M0,0 L3,0 L3,4 L0,4 Z " fill="#CAF24D" transform="translate(131,66)"/>
<path d="M0,0 L4,0 L4,4 L2,4 L2,2 L0,2 Z " fill="#A8EE58" transform="translate(68,26)"/>
<path d="M0,0 L4,0 L5,3 L1,3 Z " fill="#8DD455" transform="translate(67,128)"/>
<path d="M0,0 L3,0 L3,3 L-1,4 Z " fill="#3C6514" transform="translate(111,96)"/>
<path d="M0,0 L4,0 L3,3 L0,3 Z " fill="#AFFA8B" transform="translate(41,74)"/>
<path d="M0,0 L4,0 L4,2 L0,3 Z " fill="#A4E77E" transform="translate(36,70)"/>
<path d="M0,0 L3,0 L2,4 L0,3 Z " fill="#91D44E" transform="translate(88,46)"/>
<path d="M0,0 L2,0 L2,3 L-3,2 Z " fill="#99E767" transform="translate(82,84)"/>
<path d="M0,0 L3,0 L3,3 L0,3 Z " fill="#A5EF75" transform="translate(77,74)"/>
<path d="M0,0 L3,0 L2,3 L0,3 Z " fill="#98D95F" transform="translate(65,111)"/>
<path d="M0,0 L3,3 L0,4 Z " fill="#579918" transform="translate(107,95)"/>
<path d="M0,0 L4,2 L2,2 L1,4 Z " fill="#BFD348" transform="translate(129,73)"/>
<path d="M0,0 L2,0 L0,4 Z " fill="#9FE751" transform="translate(87,44)"/>
<path d="M0,0 L2,1 L1,4 L-1,3 Z " fill="#95DE4C" transform="translate(70,34)"/>
<path d="M0,0 L3,0 L2,3 L0,2 Z " fill="#AFFB5C" transform="translate(75,38)"/>
</svg>
