<?xml version="1.0" encoding="UTF-8"?>
<!-- Generator: visioncortex VTracer 0.6.4 -->
<svg version="1.1" xmlns="http://www.w3.org/2000/svg" width="68" height="88">
<path d="M0,0 L68,0 L68,88 L0,88 Z " fill="#000102" transform="translate(0,0)"/>
<path d="M0,0 L4,0 L4,7 L6,7 L6,9 L11,10 L11,11 L3,13 L3,16 L-5,16 L-12,15 L-12,17 L-17,17 L-17,21 L-13,22 L12,22 L13,18 L14,28 L12,32 L7,32 L7,35 L13,35 L13,37 L17,37 L17,51 L7,52 L5,55 L1,55 L1,61 L-11,61 L-11,57 L-15,57 L-15,43 L-17,43 L-17,51 L-23,51 L-25,46 L-27,45 L-27,37 L-15,37 L-15,35 L-7,35 L-8,33 L-19,32 L-21,31 L-23,27 L-23,13 L-19,13 L-19,11 L-25,11 L-25,5 L-23,5 L-23,3 L-21,2 L0,2 Z " fill="#0E7992" transform="translate(39,17)"/>
<path d="M0,0 L4,0 L4,7 L6,7 L6,9 L11,10 L11,11 L3,13 L3,16 L-5,16 L-12,15 L-12,17 L-17,17 L-17,21 L-13,22 L12,22 L13,18 L14,28 L12,30 L-20,30 L-22,26 L-22,14 L-19,14 L-19,11 L-25,11 L-25,5 L-23,5 L-23,3 L-21,2 L0,2 Z " fill="#57BBC8" transform="translate(39,17)"/>
<path d="M0,0 L6,0 L6,6 L14,6 L14,10 L20,10 L20,16 L18,16 L18,22 L16,22 L16,30 L14,29 L14,24 L13,23 L4,24 L-12,24 L-16,22 L-16,18 L-11,18 L-11,16 L4,17 L4,14 L10,11 L7,10 L7,8 L5,8 L5,1 L1,1 L1,3 L-20,3 L-20,2 L0,2 Z " fill="#246877" transform="translate(38,16)"/>
<path d="M0,0 L6,1 L7,2 L16,3 L16,14 L14,14 L14,12 L7,12 L7,14 L5,15 L-14,16 L-14,8 L-13,4 L-6,2 Z " fill="#2CA6C8" transform="translate(39,52)"/>
<path d="M0,0 L2,0 L5,4 L3,6 L4,11 L8,13 L3,13 L3,17 L7,18 L32,18 L33,14 L34,24 L32,26 L0,26 L-2,22 L-2,10 L1,10 L1,7 L-5,7 L-5,1 L-4,1 L-4,6 L1,6 Z " fill="#1C7887" transform="translate(19,21)"/>
<path d="M0,0 L4,1 L1,1 L2,13 L3,17 L36,16 L35,19 L30,19 L30,22 L36,22 L36,24 L40,24 L40,38 L29,39 L29,37 L39,37 L39,25 L30,25 L27,23 L18,24 L16,26 L5,27 L4,28 L-3,28 L-2,32 L-4,32 L-4,24 L8,24 L8,22 L16,22 L15,20 L4,19 L2,18 L0,14 Z " fill="#17717A" transform="translate(16,30)"/>
<path d="M0,0 L7,0 L13,2 L13,6 L11,6 L11,9 L-8,9 L-10,7 L-9,2 Z " fill="#5CCDDF" transform="translate(31,24)"/>
<path d="M0,0 L2,0 L2,8 L-23,9 L-26,8 L-26,4 L-21,4 L-21,2 L-17,3 L-4,4 L-4,2 L0,2 Z " fill="#030D0E" transform="translate(48,30)"/>
<path d="M0,0 L28,0 L29,4 L28,5 L0,5 Z " fill="#5FE4E2" transform="translate(24,41)"/>
<path d="M0,0 L12,0 L12,9 L11,10 L0,10 L-1,4 Z " fill="#1AAFD1" transform="translate(26,56)"/>
<path d="M0,0 L6,1 L7,2 L16,3 L16,14 L14,14 L14,12 L7,12 L6,4 L-1,3 L-6,3 L-5,1 Z " fill="#2D8098" transform="translate(39,52)"/>
<path d="M0,0 L6,0 L6,7 L13,7 L13,13 L10,13 L10,16 L6,16 L6,18 L-7,18 L-8,16 L4,17 L4,14 L10,11 L7,10 L7,8 L5,8 L5,1 L1,1 L1,3 L-20,3 L-20,2 L0,2 Z " fill="#387B87" transform="translate(38,16)"/>
<path d="M0,0 L1,0 L2,7 L-27,6 L-27,11 L0,11 L0,12 L-29,12 L-29,10 L-31,10 L-30,4 L0,4 Z " fill="#36AAAD" transform="translate(51,35)"/>
<path d="M0,0 L5,0 L4,8 L3,4 L1,4 L1,12 L-5,12 L-8,5 L-8,2 L-1,1 Z " fill="#27668A" transform="translate(21,56)"/>
<path d="M0,0 L2,4 L2,8 L8,8 L7,11 L5,11 L5,13 L15,13 L15,9 L10,9 L11,6 L16,5 L19,7 L19,5 L21,6 L20,8 L16,8 L16,14 L4,14 L4,10 L0,10 Z " fill="#125369" transform="translate(24,64)"/>
<path d="M0,0 L1,3 L6,1 L13,1 L14,5 L19,4 L19,2 L23,3 L21,3 L21,6 L2,6 L0,4 Z " fill="#439AAB" transform="translate(21,27)"/>
<path d="M0,0 L4,1 L2,1 L2,3 L-17,3 L-18,6 L-18,4 L-20,4 L-19,10 L-24,10 L-23,3 L-21,2 L0,2 Z " fill="#5DA8B9" transform="translate(39,17)"/>
<path d="M0,0 L8,0 L8,1 L3,1 L3,4 L9,4 L9,6 L13,6 L13,20 L2,21 L2,19 L12,19 L12,7 L3,7 L0,2 Z " fill="#1B586B" transform="translate(43,48)"/>
<path d="M0,0 L8,0 L8,1 L2,1 L2,4 L-4,6 L-11,6 L-10,10 L-12,10 L-12,2 L0,2 Z " fill="#10466A" transform="translate(24,52)"/>
<path d="M0,0 L2,0 L2,6 L4,6 L4,8 L9,9 L9,10 L4,10 L2,8 L-9,6 L-9,4 L-4,4 L-4,2 L0,2 Z " fill="#59BECD" transform="translate(41,18)"/>
<path d="M0,0 L4,0 L4,8 L-3,9 L-4,5 L-1,3 Z " fill="#26BFE7" transform="translate(34,56)"/>
<path d="M0,0 L4,1 L1,1 L2,13 L3,17 L18,18 L21,20 L16,22 L15,20 L4,19 L2,18 L0,14 Z " fill="#0E5668" transform="translate(16,30)"/>
<path d="M0,0 L16,0 L16,3 L1,3 Z " fill="#7AF9F8" transform="translate(34,42)"/>
<path d="M0,0 L22,0 L23,4 L22,5 L9,5 L9,4 L20,4 L20,1 L0,1 Z " fill="#4FCBCA" transform="translate(30,41)"/>
<path d="M0,0 L2,0 L5,4 L3,6 L4,12 L-2,12 L-2,10 L1,10 L1,7 L-5,7 L-5,1 L-4,1 L-4,6 L1,6 Z " fill="#468D9F" transform="translate(19,21)"/>
<path d="M0,0 L1,2 L18,0 L21,2 L19,3 L0,4 Z " fill="#1292B0" transform="translate(25,64)"/>
<path d="M0,0 L6,0 L6,6 L4,6 L4,12 L2,8 L1,3 Z " fill="#1D5A72" transform="translate(52,26)"/>
<path d="M0,0 L2,0 L1,4 L-1,5 L-1,8 L6,8 L5,10 L-2,10 L-4,8 L-3,4 L-2,1 Z " fill="#20B5D6" transform="translate(32,56)"/>
<path d="M0,0 L1,0 L1,8 L5,10 L5,14 L1,14 L-1,8 Z M0,9 Z " fill="#050B10" transform="translate(11,54)"/>
<path d="M0,0 L4,0 L4,8 L0,8 Z " fill="#2E85A2" transform="translate(46,56)"/>
<path d="M0,0 L7,0 L8,4 L13,3 L13,1 L17,2 L15,2 L15,5 L7,5 L7,3 L3,2 Z " fill="#50BACB" transform="translate(27,28)"/>
<path d="M0,0 L9,0 L9,2 L4,4 L0,4 Z " fill="#61CBE0" transform="translate(22,26)"/>
<path d="M0,0 L5,2 L5,0 L7,1 L6,3 L-4,4 L-3,1 Z " fill="#075D6F" transform="translate(38,69)"/>
<path d="M0,0 L6,1 L6,4 L-1,3 L-6,3 L-5,1 Z " fill="#2787A0" transform="translate(39,52)"/>
<path d="M0,0 L7,0 L7,2 L9,3 L0,3 Z " fill="#216F87" transform="translate(46,64)"/>
<path d="M0,0 L8,0 L8,1 L3,1 L3,4 L9,4 L8,6 L2,5 Z " fill="#093E4A" transform="translate(43,48)"/>
<path d="M0,0 L3,1 L1,1 L1,5 L-5,5 L-5,2 L0,2 Z " fill="#050F12" transform="translate(27,32)"/>
<path d="M0,0 L4,0 L4,8 L3,4 L-1,3 Z " fill="#2AB9DE" transform="translate(34,56)"/>
<path d="M0,0 L8,0 L6,3 L0,3 Z " fill="#187C94" transform="translate(26,53)"/>
<path d="M0,0 L1,0 L1,5 L-7,5 L-5,1 L-3,1 L-3,3 L-1,3 Z " fill="#259EBE" transform="translate(45,60)"/>
<path d="M0,0 L2,0 L3,6 L-1,6 Z " fill="#64B7CB" transform="translate(17,21)"/>
<path d="M0,0 L8,0 L11,2 L6,4 L5,2 L0,1 Z " fill="#094D55" transform="translate(26,48)"/>
<path d="M0,0 L3,0 L4,5 L0,4 L0,2 L-4,1 Z " fill="#57C7D8" transform="translate(31,24)"/>
<path d="M0,0 L10,0 L10,1 L2,2 L-2,4 Z " fill="#041317" transform="translate(46,68)"/>
<path d="M0,0 L6,0 L6,3 L0,3 Z " fill="#6AE4E3" transform="translate(44,42)"/>
<path d="M0,0 L2,0 L2,2 L-1,4 L-5,3 L-6,1 Z " fill="#57B5C8" transform="translate(28,22)"/>
<path d="M0,0 L6,0 L6,3 L0,3 Z " fill="#61BDD1" transform="translate(22,20)"/>
<path d="M0,0 L7,1 L7,3 L-1,3 Z " fill="#13728B" transform="translate(32,72)"/>
<path d="M0,0 L6,0 L4,1 L4,4 L0,4 Z " fill="#12A5C4" transform="translate(26,56)"/>
<path d="M0,0 L4,2 L2,3 L-4,3 L-4,1 Z " fill="#1C92AC" transform="translate(42,64)"/>
<path d="M0,0 L3,0 L2,4 L-2,4 L-2,2 L0,2 Z " fill="#2CC8EF" transform="translate(34,61)"/>
<path d="M0,0 L3,1 L1,7 L0,7 Z " fill="#328BA9" transform="translate(46,57)"/>
<path d="M0,0 L1,4 L-1,8 L-1,3 L-3,3 L-3,1 Z " fill="#3A7AA4" transform="translate(25,56)"/>
<path d="M0,0 L1,3 L5,3 L5,6 L1,5 Z " fill="#56B0C5" transform="translate(21,27)"/>
<path d="M0,0 L4,0 L4,3 L-1,3 Z " fill="#036F8B" transform="translate(27,69)"/>
<path d="M0,0 L3,4 L3,5 L-3,5 L-3,3 L0,3 Z " fill="#36869A" transform="translate(20,28)"/>
<path d="M0,0 L2,0 L3,5 L0,5 L0,3 L-2,2 L0,2 Z " fill="#277196" transform="translate(17,60)"/>
<path d="M0,0 L2,0 L1,4 L-2,4 L-2,1 Z " fill="#21AFD3" transform="translate(32,56)"/>
<path d="M0,0 L7,0 L5,1 L5,3 L0,1 Z " fill="#107084" transform="translate(38,68)"/>
<path d="M0,0 L4,0 L4,3 L0,3 Z " fill="#71F6F3" transform="translate(25,42)"/>
<path d="M0,0 L5,1 L5,4 L2,4 L2,2 L0,2 Z " fill="#439AAE" transform="translate(43,22)"/>
<path d="M0,0 L3,1 L3,4 L0,4 Z " fill="#66B9CA" transform="translate(50,41)"/>
<path d="M0,0 L2,0 L1,4 L-2,4 L-2,2 L0,2 Z " fill="#6BC5D6" transform="translate(41,18)"/>
<path d="M0,0 L3,0 L2,4 L0,3 Z " fill="#2DA3C7" transform="translate(42,60)"/>
<path d="M0,0 L3,0 L3,3 L0,3 Z " fill="#35A9D3" transform="translate(42,57)"/>
<path d="M0,0 L3,0 L3,3 L0,3 Z " fill="#72DAF2" transform="translate(22,27)"/>
<path d="M0,0 L3,0 L3,3 L0,3 Z " fill="#2C7C96" transform="translate(48,23)"/>
<path d="M0,0 L3,1 L-1,3 Z " fill="#010E10" transform="translate(45,69)"/>
<path d="M0,0 L3,1 L2,3 L0,3 Z " fill="#066275" transform="translate(38,69)"/>
</svg>
