<?xml version="1.0" encoding="UTF-8"?>
<!-- Generator: visioncortex VTracer 0.6.4 -->
<svg version="1.1" xmlns="http://www.w3.org/2000/svg" width="64" height="58">
<path d="M0,0 L64,0 L64,58 L0,58 Z " fill="#010101" transform="translate(0,0)"/>
<path d="M0,0 L14,0 L14,2 L22,2 L24,7 L30,8 L34,13 L34,18 L30,18 L30,22 L28,22 L28,24 L26,24 L26,26 L18,26 L18,22 L16,22 L16,30 L14,30 L14,34 L0,34 L0,28 L-2,28 L-2,20 L0,20 L0,16 L6,16 L6,10 L4,10 L3,14 L-4,14 L-4,4 L-2,4 L-2,2 L0,2 Z " fill="#9AAE7C" transform="translate(16,0)"/>
<path d="M0,0 L16,0 L16,2 L14,2 L14,4 L12,4 L12,14 L19,13 L20,10 L22,10 L22,16 L16,16 L16,20 L14,20 L14,28 L16,28 L16,34 L15,34 L15,29 L13,29 L13,34 L11,34 L11,32 L9,32 L8,35 L0,35 Z " fill="#030402" transform="translate(0,0)"/>
<path d="M0,0 L5,0 L6,1 L6,8 L3,8 L3,16 L-1,15 L-1,17 L1,17 L1,20 L-11,20 L-11,14 L-13,14 L-13,8 L-11,8 L-11,4 L-8,4 L-7,9 L-2,9 L-2,6 L-4,6 L-3,3 Z " fill="#A9BB87" transform="translate(28,13)"/>
<path d="M0,0 L1,0 L1,8 L4,9 L4,12 L-1,12 L-2,7 L-5,7 L-5,11 L-7,11 L-7,17 L-5,17 L-5,23 L7,23 L7,20 L5,20 L5,18 L9,19 L9,11 L12,11 L12,8 L15,8 L15,11 L13,11 L13,15 L19,15 L20,11 L23,11 L23,7 L27,7 L28,3 L28,8 L24,8 L24,12 L22,12 L22,14 L20,14 L20,16 L12,16 L12,12 L10,12 L10,20 L8,20 L8,24 L-6,24 L-6,18 L-8,18 L-8,10 L-6,10 L-6,6 L0,6 Z " fill="#6D7C5C" transform="translate(22,10)"/>
<path d="M0,0 L12,0 L13,3 L19,4 L20,10 L15,10 L11,7 L3,9 L2,4 Z " fill="#A1B483" transform="translate(17,0)"/>
<path d="M0,0 L10,0 L10,8 L6,8 L6,14 L1,14 L0,8 Z " fill="#697C48" transform="translate(2,20)"/>
<path d="M0,0 L6,0 L6,2 L8,2 L8,6 L6,6 L6,10 L3,10 L3,15 L-3,15 L-3,11 L-1,10 Z " fill="#BDD8A1" transform="translate(38,10)"/>
<path d="M0,0 L1,2 L9,2 L11,7 L17,8 L20,12 L20,17 L16,17 L16,21 L12,22 L12,20 L15,20 L15,16 L17,16 L17,12 L15,12 L15,10 L9,10 L9,17 L8,17 L8,11 L3,11 L3,10 L8,10 L7,4 L1,4 Z " fill="#9EB488" transform="translate(29,0)"/>
<path d="M0,0 L4,4 L4,6 L2,6 L3,14 L-4,14 L-4,4 L-2,4 L-2,2 L0,2 Z " fill="#909F72" transform="translate(16,0)"/>
<path d="M0,0 L5,0 L6,1 L6,8 L3,8 L3,13 L0,14 L-1,6 L-4,6 L-3,3 Z " fill="#A6BC87" transform="translate(28,13)"/>
<path d="M0,0 L1,4 L-1,4 L-1,12 L1,12 L1,18 L0,18 L0,13 L-2,13 L-2,18 L-4,18 L-4,16 L-6,16 L-7,18 L-7,12 L-3,12 L-3,4 L-13,4 L-13,3 L-3,3 L-3,1 L-1,2 L0,3 Z " fill="#141710" transform="translate(15,16)"/>
<path d="M0,0 L2,3 L2,8 L5,7 L5,10 L1,9 L1,11 L3,12 L-1,11 L-5,10 L-6,1 L-5,3 L0,3 Z " fill="#99AD7A" transform="translate(26,19)"/>
<path d="M0,0 L1,0 L1,8 L4,9 L4,12 L-1,12 L-2,7 L-5,7 L-5,11 L-7,11 L-7,17 L-5,17 L-5,24 L-6,24 L-6,18 L-8,18 L-8,10 L-6,10 L-6,6 L0,6 Z " fill="#677352" transform="translate(22,10)"/>
<path d="M0,0 L1,2 L9,2 L11,7 L17,8 L18,11 L16,11 L16,9 L7,8 L7,4 L1,4 Z " fill="#6E805C" transform="translate(29,0)"/>
<path d="M0,0 L3,1 L2,3 L8,0 L10,0 L10,6 L5,5 L2,4 L1,7 Z " fill="#96A777" transform="translate(18,6)"/>
<path d="M0,0 L6,0 L6,6 L0,6 Z " fill="#495430" transform="translate(18,48)"/>
<path d="M0,0 L8,0 L8,6 L7,6 L7,1 L5,1 L5,6 L3,6 L3,4 L1,4 L0,6 Z " fill="#0F110B" transform="translate(8,28)"/>
<path d="M0,0 L6,2 L6,4 L-6,4 L-3,1 Z " fill="#B0C58F" transform="translate(23,29)"/>
<path d="M0,0 L5,0 L5,6 L0,6 Z " fill="#A7C67F" transform="translate(6,21)"/>
<path d="M0,0 L7,0 L6,5 L4,6 L3,4 L0,3 Z " fill="#C2D89F" transform="translate(20,0)"/>
<path d="M0,0 L5,0 L5,4 L3,4 L3,6 L0,6 Z " fill="#BED69C" transform="translate(28,13)"/>
<path d="M0,0 L4,0 L5,6 L0,6 Z " fill="#C1DBA2" transform="translate(32,4)"/>
<path d="M0,0 L1,4 L-3,4 L-3,10 L-5,10 L-6,1 L-5,3 L0,3 Z " fill="#8C9D70" transform="translate(26,19)"/>
<path d="M0,0 L2,0 L2,6 L-8,5 L-8,4 L-1,3 Z " fill="#161911" transform="translate(20,10)"/>
<path d="M0,0 L5,1 L5,3 L-1,3 L-1,10 L-2,10 L-2,2 L0,2 Z " fill="#9FB07F" transform="translate(15,3)"/>
<path d="M0,0 L3,0 L3,3 L-2,4 L-2,12 L-3,12 L-3,3 L0,3 Z " fill="#6E7D5A" transform="translate(34,18)"/>
<path d="M0,0 L3,1 L6,2 L6,5 L1,5 Z " fill="#545F42" transform="translate(20,17)"/>
<path d="M0,0 L3,0 L4,8 L3,6 L0,6 Z " fill="#83966B" transform="translate(34,12)"/>
<path d="M0,0 L3,0 L3,7 L0,6 Z " fill="#A6BB85" transform="translate(23,23)"/>
<path d="M0,0 L4,1 L4,6 L0,4 Z " fill="#B9CF99" transform="translate(28,3)"/>
<path d="M0,0 L2,0 L2,6 L-1,6 L-1,1 Z " fill="#788862" transform="translate(26,6)"/>
<path d="M0,0 L4,0 L4,4 L0,4 Z " fill="#748A4B" transform="translate(19,49)"/>
<path d="M0,0 L4,2 L4,5 L0,5 Z " fill="#8B9D71" transform="translate(28,7)"/>
<path d="M0,0 L3,0 L3,4 L-3,4 L0,3 Z " fill="#C9E3AE" transform="translate(43,12)"/>
<path d="M0,0 L3,1 L3,3 L-3,3 L-3,1 Z " fill="#BCD298" transform="translate(23,29)"/>
<path d="M0,0 L3,0 L3,4 L-2,4 L0,3 Z " fill="#9EBB79" transform="translate(8,23)"/>
<path d="M0,0 L3,0 L3,3 L1,3 L2,6 L0,6 Z " fill="#7E9653" transform="translate(3,21)"/>
<path d="M0,0 L1,4 L-3,4 L-2,1 Z " fill="#ADC48D" transform="translate(27,15)"/>
<path d="M0,0 L3,0 L3,4 L0,4 Z " fill="#E0F9C0" transform="translate(32,5)"/>
<path d="M0,0 L3,0 L3,3 L6,4 L1,3 Z " fill="#B3C58F" transform="translate(17,0)"/>
<path d="M0,0 L3,0 L3,3 L-2,2 Z " fill="#8B9C70" transform="translate(22,8)"/>
<path d="M0,0 L3,0 L3,3 L0,3 Z " fill="#DFFCBE" transform="translate(40,12)"/>
<path d="M0,0 L3,0 L3,3 L0,2 Z " fill="#DEF8B8" transform="translate(23,0)"/>
</svg>
