<?xml version="1.0" encoding="UTF-8"?>
<!-- Generator: visioncortex VTracer 0.6.4 -->
<svg version="1.1" xmlns="http://www.w3.org/2000/svg" width="72" height="68">
<path d="M0,0 L72,0 L72,68 L0,68 Z " fill="#030301" transform="translate(0,0)"/>
<path d="M0,0 L6,0 L6,4 L12,4 L12,12 L18,12 L18,10 L16,10 L16,4 L22,4 L23,11 L20,12 L20,14 L22,14 L24,17 L24,24 L20,24 L20,28 L24,28 L24,32 L28,32 L28,24 L38,24 L38,28 L40,28 L40,34 L36,34 L36,38 L34,38 L34,44 L28,44 L28,48 L22,48 L22,42 L26,42 L26,38 L23,40 L20,40 L20,44 L16,44 L16,48 L10,48 L10,46 L2,47 L-2,52 L-10,52 L-10,46 L-12,46 L-12,34 L-5,34 L-2,36 L-2,30 L-4,30 L-4,28 L-10,28 L-10,20 L-8,20 L-8,6 L-4,6 L-4,4 L0,4 Z " fill="#647B2D" transform="translate(24,0)"/>
<path d="M0,0 L3,0 L3,3 L5,3 L4,8 L4,18 L7,19 L7,26 L4,26 L4,30 L0,30 L0,34 L-13,34 L-17,39 L-25,39 L-25,33 L-27,33 L-27,21 L-20,21 L-17,23 L-18,15 L-17,14 L-23,13 L-23,9 L-18,8 L-14,9 L-15,1 L-13,1 L-13,3 L-7,2 L-6,6 L-10,10 L-13,10 L-13,13 L-5,13 L-5,8 L-4,10 L0,10 Z " fill="#AFAF53" transform="translate(39,13)"/>
<path d="M0,0 L6,0 L7,4 L11,5 L11,21 L10,26 L2,26 L2,23 L8,21 L8,16 L2,16 L2,14 L0,14 L1,22 L-8,22 L-8,26 L-1,26 L-2,30 L-4,30 L-4,28 L-10,28 L-10,20 L-8,20 L-8,6 L-4,6 L-4,4 L0,4 Z " fill="#8A9E35" transform="translate(24,0)"/>
<path d="M0,0 L10,1 L15,1 L16,5 L19,5 L19,7 L14,7 L14,9 L2,8 L0,7 L0,14 L8,14 L8,16 L-3,16 L-6,21 L-11,22 L-13,16 L-13,10 L-11,7 L-9,7 L-6,11 L-2,12 L-2,5 L0,5 Z " fill="#D7C793" transform="translate(26,29)"/>
<path d="M0,0 L2,0 L2,2 L8,1 L9,5 L5,9 L2,9 L2,13 L7,14 L12,15 L11,10 L14,10 L15,14 L17,16 L7,17 L2,15 L2,20 L0,20 L0,27 L-5,26 L-7,22 L-9,22 L-10,31 L-12,32 L-12,20 L-5,20 L-2,22 L-3,14 L-2,13 L-8,12 L-8,8 L-3,7 L1,8 Z " fill="#D3C682" transform="translate(24,14)"/>
<path d="M0,0 L6,0 L6,3 L9,3 L9,8 L6,8 L6,12 L4,12 L4,18 L-2,18 L-2,22 L-8,22 L-8,16 L-3,16 L-3,12 L-1,12 Z " fill="#8E884B" transform="translate(54,26)"/>
<path d="M0,0 L10,0 L13,3 L16,4 L16,0 L20,1 L17,1 L17,5 L13,5 L13,9 L0,9 L-4,14 L-12,14 L-12,8 L-11,8 L-11,13 L-6,12 L-4,7 L-3,6 L6,6 L8,7 L8,5 L0,5 Z " fill="#B1A66A" transform="translate(26,38)"/>
<path d="M0,0 L1,0 L1,16 L0,21 L-8,21 L-8,18 L-2,16 L-2,11 L-8,11 L-8,7 L-3,5 L-2,1 Z " fill="#7F9132" transform="translate(34,5)"/>
<path d="M0,0 L10,1 L15,1 L16,5 L19,5 L19,7 L14,7 L14,9 L9,8 L8,5 L2,6 L0,5 Z " fill="#FBF696" transform="translate(26,29)"/>
<path d="M0,0 L8,0 L8,3 L11,3 L11,9 L10,9 L10,4 L7,4 L7,1 L1,1 L1,11 L0,13 L-2,13 L-3,17 L-3,13 L-6,15 L-9,15 L-9,19 L-13,19 L-13,23 L-19,23 L-19,22 L-14,22 L-14,18 L-10,18 L-10,14 L-7,14 L-7,8 L0,8 Z " fill="#7C7934" transform="translate(53,25)"/>
<path d="M0,0 L1,2 L1,7 L2,11 L1,12 L0,27 L2,27 L2,20 L3,20 L3,28 L-1,28 L-1,24 L-5,24 L-5,20 L-1,20 L-2,13 L-3,10 L-5,10 L-5,8 L-3,7 L-3,1 Z " fill="#111303" transform="translate(49,4)"/>
<path d="M0,0 L2,1 L2,8 L-2,8 L-2,12 L2,12 L2,16 L6,16 L6,8 L16,8 L15,12 L15,9 L7,9 L7,17 L0,17 L-4,15 L-4,5 L1,6 Z " fill="#6A691A" transform="translate(46,16)"/>
<path d="M0,0 L6,0 L6,3 L2,4 L2,10 L-6,10 L-7,19 L-8,19 L-8,6 L-4,6 L-4,4 L0,4 Z " fill="#6E8433" transform="translate(24,0)"/>
<path d="M0,0 L12,1 L12,8 L6,8 L6,6 L0,6 Z " fill="#726128" transform="translate(20,56)"/>
<path d="M0,0 L2,3 L2,8 L-7,8 L-7,12 L0,12 L-1,16 L-3,16 L-3,14 L-9,14 L-9,6 L-6,4 L0,4 Z " fill="#9B9650" transform="translate(23,14)"/>
<path d="M0,0 L2,0 L2,2 L8,1 L9,5 L5,9 L-8,9 L-6,7 L1,8 Z " fill="#B8B162" transform="translate(24,14)"/>
<path d="M0,0 L3,1 L3,11 L1,15 L3,16 L1,25 L-1,25 L-1,10 L-1,7 L-1,1 Z " fill="#000000" transform="translate(50,6)"/>
<path d="M0,0 L1,0 L1,11 L-3,10 L-5,6 L-7,6 L-8,15 L-10,16 L-10,4 L-3,4 L0,6 Z " fill="#9A9667" transform="translate(22,30)"/>
<path d="M0,0 L6,0 L6,3 L9,3 L9,8 L6,8 L5,12 L3,7 L0,6 Z " fill="#979C3D" transform="translate(54,26)"/>
<path d="M0,0 L5,2 L5,8 L1,8 L1,12 L-3,11 L-3,9 L-13,9 L-15,8 L-15,6 L-4,7 L-1,8 L-1,6 L4,6 L4,4 L1,4 Z " fill="#C8BB73" transform="translate(41,30)"/>
<path d="M0,0 L5,0 L5,8 L11,8 L8,9 L8,19 L4,19 L4,1 Z " fill="#727B38" transform="translate(31,4)"/>
<path d="M0,0 L2,0 L2,4 L-2,4 L-2,10 L-4,11 L-14,11 L-14,10 L-8,10 L-8,6 L-4,6 L-4,2 Z " fill="#0F0E09" transform="translate(48,38)"/>
<path d="M0,0 L9,0 L11,2 L3,3 L-1,8 L-9,8 L-9,2 L-8,2 L-8,7 L-3,6 L-1,1 Z " fill="#9B8E65" transform="translate(23,44)"/>
<path d="M0,0 L4,1 L5,6 L4,12 L-2,12 L-2,11 L3,11 L3,7 L-3,7 L-1,6 Z " fill="#928D49" transform="translate(54,32)"/>
<path d="M0,0 L6,0 L6,8 L1,7 L0,6 Z " fill="#4D581B" transform="translate(54,8)"/>
<path d="M0,0 L7,1 L8,3 L6,3 L6,7 L0,7 Z " fill="#96A63F" transform="translate(17,11)"/>
<path d="M0,0 L1,0 L0,10 L-8,10 L-8,7 L-2,5 L-2,3 L0,3 Z " fill="#90864A" transform="translate(34,16)"/>
<path d="M0,0 L8,0 L8,5 L0,5 Z " fill="#6D6327" transform="translate(36,52)"/>
<path d="M0,0 L10,0 L10,4 L0,4 Z " fill="#9F925F" transform="translate(26,38)"/>
<path d="M0,0 L6,0 L6,6 L0,6 Z " fill="#5C582B" transform="translate(46,50)"/>
<path d="M0,0 L5,1 L8,2 L8,5 L2,6 L0,5 Z " fill="#F4E3A1" transform="translate(26,29)"/>
<path d="M0,0 L5,0 L9,3 L7,3 L7,6 L1,5 Z " fill="#94B33E" transform="translate(25,3)"/>
<path d="M0,0 L8,0 L8,1 L1,3 L-3,7 L-12,7 L-12,6 L-4,6 L-2,2 Z " fill="#1E1B12" transform="translate(26,46)"/>
<path d="M0,0 L4,0 L5,2 L9,1 L7,6 L2,7 Z " fill="#BFB285" transform="translate(13,44)"/>
<path d="M0,0 L2,0 L5,4 L8,6 L-1,5 L-1,7 L1,8 L-2,8 L-2,3 Z " fill="#CEC793" transform="translate(15,36)"/>
<path d="M0,0 L7,1 L7,5 L3,5 L0,2 Z " fill="#EFE4B2" transform="translate(14,41)"/>
<path d="M0,0 L6,0 L6,3 L1,3 L1,6 L-4,6 L-4,4 L0,4 Z " fill="#505E2E" transform="translate(24,0)"/>
<path d="M0,0 L1,4 L3,4 L4,0 L4,6 L6,6 L6,8 L0,8 Z " fill="#121609" transform="translate(36,4)"/>
<path d="M0,0 L2,3 L2,8 L-3,8 L-8,6 L-8,5 L0,5 Z " fill="#B0A65C" transform="translate(34,21)"/>
<path d="M0,0 L2,0 L2,4 L-2,4 L-2,10 L-4,6 L-4,2 Z " fill="#17160B" transform="translate(48,38)"/>
<path d="M0,0 L3,0 L3,5 L0,5 L-1,9 L-2,1 Z " fill="#8A8E42" transform="translate(60,29)"/>
<path d="M0,0 L5,0 L6,4 L1,3 L1,6 L-2,6 L-2,1 Z " fill="#F9F48E" transform="translate(36,30)"/>
<path d="M0,0 L3,1 L2,14 L1,14 L0,3 Z " fill="#B9AB74" transform="translate(22,27)"/>
<path d="M0,0 L3,0 L2,7 L0,4 L-6,4 L-6,2 L0,2 Z " fill="#9FA443" transform="translate(32,12)"/>
<path d="M0,0 L1,3 L4,4 L5,10 L1,8 L2,4 L0,4 Z " fill="#959D3B" transform="translate(42,12)"/>
<path d="M0,0 L3,0 L4,4 L6,6 L-1,7 Z " fill="#DDD671" transform="translate(35,24)"/>
<path d="M0,0 L3,0 L3,4 L-2,5 L-2,1 Z " fill="#D3CD77" transform="translate(28,16)"/>
<path d="M0,0 L1,0 L1,11 L-1,10 L-1,8 L-3,8 L-2,5 L0,6 Z " fill="#8B8059" transform="translate(22,30)"/>
<path d="M0,0 L4,0 L4,5 L0,5 Z " fill="#809437" transform="translate(55,9)"/>
<path d="M0,0 L2,3 L2,8 L-1,8 L-1,6 L-4,4 L0,4 Z " fill="#A4A04A" transform="translate(23,14)"/>
<path d="M0,0 L6,0 L6,3 L0,3 Z " fill="#A19340" transform="translate(37,53)"/>
<path d="M0,0 L8,0 L8,3 L0,2 Z " fill="#E3D893" transform="translate(17,24)"/>
<path d="M0,0 L3,0 L3,3 L5,3 L5,5 L0,4 Z " fill="#C7CF71" transform="translate(39,13)"/>
<path d="M0,0 L4,0 L4,4 L0,4 Z " fill="#9A9342" transform="translate(47,51)"/>
<path d="M0,0 L10,0 L10,1 L2,2 L-1,4 Z " fill="#847A58" transform="translate(24,45)"/>
<path d="M0,0 L4,0 L4,4 L0,4 Z " fill="#BAB264" transform="translate(47,43)"/>
<path d="M0,0 L4,0 L4,4 L0,4 Z " fill="#B2A458" transform="translate(46,33)"/>
<path d="M0,0 L3,0 L3,6 L1,6 Z " fill="#292B0F" transform="translate(35,16)"/>
<path d="M0,0 L9,2 L9,3 L1,3 Z " fill="#9E883E" transform="translate(21,57)"/>
<path d="M0,0 L5,0 L5,3 L0,3 Z " fill="#8A9132" transform="translate(17,15)"/>
<path d="M0,0 L2,1 L0,7 L-2,8 L-3,5 L-1,4 Z " fill="#E0D19F" transform="translate(24,37)"/>
<path d="M0,0 L1,4 L-3,3 L-3,1 Z " fill="#C3B86B" transform="translate(41,38)"/>
<path d="M0,0 L2,0 L3,3 L-4,3 Z " fill="#C8B683" transform="translate(32,34)"/>
<path d="M0,0 L3,0 L3,4 L0,4 Z " fill="#544E28" transform="translate(30,21)"/>
<path d="M0,0 L5,0 L3,3 L0,2 Z " fill="#EBDEAD" transform="translate(17,44)"/>
<path d="M0,0 L3,1 L3,4 L0,4 Z " fill="#6B6044" transform="translate(26,38)"/>
<path d="M0,0 L3,1 L3,4 L0,4 Z " fill="#C0BC66" transform="translate(55,32)"/>
<path d="M0,0 L3,0 L3,4 L0,3 Z " fill="#FCF1B2" transform="translate(27,31)"/>
<path d="M0,0 L4,1 L4,3 L0,3 Z " fill="#7E972B" transform="translate(22,7)"/>
<path d="M0,0 L2,0 L2,3 L-2,3 L-2,1 Z " fill="#C6BE6D" transform="translate(54,39)"/>
<path d="M0,0 L2,0 L2,3 L-1,4 L-1,1 Z " fill="#FEFE9E" transform="translate(37,32)"/>
<path d="M0,0 L3,0 L3,3 L0,4 Z " fill="#E8D496" transform="translate(31,31)"/>
<path d="M0,0 L4,1 L4,3 L0,2 Z " fill="#A2AA34" transform="translate(54,26)"/>
<path d="M0,0 L1,0 L1,5 L-2,5 L-2,3 L0,3 Z " fill="#888538" transform="translate(34,16)"/>
<path d="M0,0 L2,0 L2,2 L4,3 L2,3 L1,5 Z " fill="#BCBA5C" transform="translate(24,14)"/>
<path d="M0,0 L1,4 L-2,4 L-2,1 Z " fill="#81A023" transform="translate(34,5)"/>
<path d="M0,0 L3,0 L3,3 L0,3 Z " fill="#877C50" transform="translate(32,38)"/>
<path d="M0,0 L4,2 L0,3 Z " fill="#8DA534" transform="translate(26,8)"/>
<path d="M0,0 L3,0 L3,3 L0,2 Z " fill="#BAB650" transform="translate(38,26)"/>
</svg>
