<?xml version="1.0" encoding="UTF-8"?>
<!-- Generator: visioncortex VTracer 0.6.4 -->
<svg version="1.1" xmlns="http://www.w3.org/2000/svg" width="52" height="62">
<path d="M0,0 L52,0 L52,62 L0,62 Z " fill="#020404" transform="translate(0,0)"/>
<path d="M0,0 L7,0 L7,43 L-45,43 L-45,21 L-43,21 L-43,27 L-36,27 L-35,34 L-29,35 L-29,21 L-25,21 L-25,27 L-13,27 L-12,23 L-9,23 L-9,29 L-3,29 L-3,23 L3,23 L3,18 L-3,18 L-3,21 L-7,21 L-7,19 L-5,19 L-5,17 L-3,17 L-3,15 L0,15 L0,12 L2,11 L0,4 Z " fill="#010202" transform="translate(45,19)"/>
<path d="M0,0 L6,0 L6,2 L8,2 L8,6 L12,6 L12,4 L18,4 L20,7 L26,8 L26,16 L22,18 L21,23 L27,24 L27,16 L28,14 L36,14 L38,17 L38,22 L36,22 L35,26 L34,28 L32,28 L32,30 L30,30 L30,32 L34,32 L34,29 L40,29 L40,34 L34,34 L34,40 L28,40 L28,34 L25,35 L24,38 L12,38 L12,32 L8,32 L8,45 L3,45 L2,24 L5,24 L5,20 L3,20 L3,12 L6,12 L6,8 L2,8 L2,6 L0,6 Z " fill="#90CCCE" transform="translate(8,8)"/>
<path d="M0,0 L8,0 L10,3 L10,8 L8,8 L7,12 L6,14 L4,14 L4,16 L2,16 L2,18 L6,18 L6,15 L12,15 L12,20 L6,20 L6,26 L0,26 L0,20 L-3,21 L-4,24 L-16,24 L-16,18 L-20,18 L-20,31 L-25,31 L-26,10 L-23,10 L-22,6 L-22,13 L-24,13 L-22,18 L-21,17 L-14,17 L-14,12 L-11,12 L-12,20 L-15,20 L-15,23 L-6,23 L-5,16 L-5,9 L-1,10 L-1,2 Z " fill="#5F7B79" transform="translate(36,22)"/>
<path d="M0,0 L6,0 L6,2 L8,2 L8,6 L12,6 L12,4 L18,4 L20,7 L26,8 L26,16 L24,15 L25,9 L19,9 L19,12 L17,12 L16,18 L12,20 L11,23 L7,23 L7,13 L4,13 L4,20 L3,20 L3,12 L6,12 L6,8 L2,8 L2,6 L0,6 Z " fill="#729F9D" transform="translate(8,8)"/>
<path d="M0,0 L10,0 L10,8 L3,8 L5,13 L6,22 L5,20 L3,20 L3,23 L1,22 L2,19 L4,19 L2,11 L-6,11 L-7,21 L-13,20 L-13,15 L-11,13 L-8,13 L-8,5 L-7,8 L1,8 L0,6 Z " fill="#080A0C" transform="translate(42,11)"/>
<path d="M0,0 L6,0 L6,6 L3,9 L2,14 L4,14 L5,25 L3,28 L-6,28 L-6,25 L-3,25 L-2,17 L-5,17 L-4,12 L0,11 L3,1 L1,1 L0,3 Z " fill="#7EB2B1" transform="translate(27,17)"/>
<path d="M0,0 L1,0 L1,7 L-1,7 L1,12 L2,11 L9,11 L9,6 L12,6 L11,14 L8,14 L8,17 L19,16 L19,18 L7,18 L7,12 L3,12 L3,25 L-2,25 L-3,4 L0,4 Z " fill="#32797E" transform="translate(13,28)"/>
<path d="M0,0 L8,0 L10,3 L10,8 L8,8 L7,12 L4,15 L0,15 L0,18 L-2,18 Z " fill="#92C1C2" transform="translate(36,22)"/>
<path d="M0,0 L4,0 L4,2 L8,2 L8,12 L2,12 L2,6 L0,6 Z " fill="#185F68" transform="translate(0,34)"/>
<path d="M0,0 L6,0 L6,2 L8,3 L5,3 L5,1 L1,1 L1,5 L3,5 L3,7 L7,7 L7,12 L10,12 L11,23 L7,23 L7,13 L4,13 L4,20 L3,20 L3,12 L6,12 L6,8 L2,8 L2,6 L0,6 Z " fill="#578F8B" transform="translate(8,8)"/>
<path d="M0,0 L3,0 L3,10 L7,11 L5,18 L3,18 L2,21 L0,18 L0,14 L2,14 L2,7 L0,7 Z " fill="#65B8C0" transform="translate(12,21)"/>
<path d="M0,0 L5,0 L6,7 L10,9 L8,12 L4,13 L3,11 L3,5 L0,5 Z " fill="#77B7B7" transform="translate(15,15)"/>
<path d="M0,0 L2,3 L2,21 L7,21 L7,22 L1,22 L0,21 L-1,14 L-1,4 Z " fill="#112E31" transform="translate(9,32)"/>
<path d="M0,0 L5,1 L6,11 L2,12 L2,9 L0,9 Z " fill="#8FC6CC" transform="translate(26,31)"/>
<path d="M0,0 L1,0 L2,8 L1,16 L-5,15 L-5,10 L-3,8 L0,8 Z " fill="#213331" transform="translate(34,16)"/>
<path d="M0,0 L10,0 L10,5 L0,5 Z " fill="#0B2062" transform="translate(42,11)"/>
<path d="M0,0 L3,0 L2,8 L-1,8 L-1,11 L10,10 L10,12 L-2,12 L-2,6 L-7,7 L-7,5 L0,5 Z " fill="#577B7E" transform="translate(22,34)"/>
<path d="M0,0 L1,0 L1,10 L-1,16 L1,17 L-3,20 L-5,19 L-4,14 L-4,7 L0,8 Z " fill="#80B1B6" transform="translate(35,24)"/>
<path d="M0,0 L8,0 L10,3 L10,8 L8,8 L7,12 L6,14 L4,14 L4,10 L6,10 L6,6 L8,6 L7,1 L0,2 Z " fill="#6A837F" transform="translate(36,22)"/>
<path d="M0,0 L2,0 L2,2 L4,2 L4,5 L6,5 L6,7 L-3,7 L-3,4 L0,4 Z " fill="#94C7CF" transform="translate(24,38)"/>
<path d="M0,0 L3,0 L3,6 L2,4 L1,6 L-13,5 L-13,4 L-1,4 Z " fill="#141B1C" transform="translate(33,42)"/>
<path d="M0,0 L7,2 L7,8 L6,8 L6,3 L0,3 L0,6 L-4,6 L-4,4 L-2,4 L-2,2 L0,2 Z " fill="#2D3632" transform="translate(42,34)"/>
<path d="M0,0 L5,0 L4,6 L-1,7 L-1,4 L1,4 Z " fill="#BCE9E8" transform="translate(38,26)"/>
<path d="M0,0 L4,0 L4,2 L6,2 L6,6 L2,6 L2,4 L0,4 Z " fill="#79B0AF" transform="translate(9,9)"/>
<path d="M0,0 L1,2 L9,3 L9,4 L3,4 L3,6 L-1,6 L-1,2 L-3,1 Z " fill="#121A18" transform="translate(17,8)"/>
<path d="M0,0 L4,0 L4,6 L0,6 Z " fill="#91BCBA" transform="translate(37,41)"/>
<path d="M0,0 L2,0 L1,5 L0,9 L-3,9 L-1,2 Z " fill="#BAF9F7" transform="translate(28,18)"/>
<path d="M0,0 L5,0 L4,5 L0,5 Z " fill="#8BCAB9" transform="translate(15,15)"/>
<path d="M0,0 L6,0 L5,5 L2,5 L2,2 L0,2 Z " fill="#ACE9F0" transform="translate(26,38)"/>
<path d="M0,0 L1,0 L1,10 L-3,12 L-4,7 L0,8 Z " fill="#638B8A" transform="translate(35,24)"/>
<path d="M0,0 L3,0 L3,9 L2,7 L0,7 Z " fill="#6FC5C3" transform="translate(12,21)"/>
<path d="M0,0 L1,0 L1,8 L-2,9 L-2,2 L0,2 Z " fill="#47979C" transform="translate(14,42)"/>
<path d="M0,0 L1,2 L2,5 L3,8 L-2,7 L-2,2 Z " fill="#2D413F" transform="translate(31,24)"/>
<path d="M0,0 L4,0 L4,5 L0,5 Z " fill="#3B605F" transform="translate(15,26)"/>
<path d="M0,0 L6,0 L6,5 L3,5 L3,1 L1,1 L0,3 Z " fill="#90CBC3" transform="translate(27,17)"/>
<path d="M0,0 L1,0 L1,7 L-2,7 L-2,1 Z " fill="#1D8EA1" transform="translate(6,37)"/>
<path d="M0,0 L1,0 L1,7 L-1,7 L-2,10 L-3,4 L0,4 Z " fill="#4999A1" transform="translate(13,28)"/>
<path d="M0,0 L4,1 L2,7 L0,6 Z " fill="#87C5C7" transform="translate(15,31)"/>
<path d="M0,0 L6,0 L6,3 L4,3 L4,6 L0,5 L3,5 L3,1 Z " fill="#6DA6A3" transform="translate(21,17)"/>
<path d="M0,0 L6,0 L6,4 L2,4 L2,1 Z " fill="#2A4281" transform="translate(46,11)"/>
<path d="M0,0 L3,2 L3,6 L0,7 Z " fill="#378B93" transform="translate(11,38)"/>
<path d="M0,0 L4,0 L4,4 L0,4 Z " fill="#A7BFB3" transform="translate(43,37)"/>
<path d="M0,0 L2,1 L2,5 L-2,5 L-1,1 Z " fill="#BAF5F6" transform="translate(19,33)"/>
<path d="M0,0 L3,0 L2,6 L-1,6 Z " fill="#94D3D6" transform="translate(19,28)"/>
<path d="M0,0 L4,0 L4,4 L0,4 Z " fill="#436C6D" transform="translate(20,18)"/>
<path d="M0,0 L5,0 L5,3 L0,3 Z " fill="#061C9C" transform="translate(43,12)"/>
<path d="M0,0 L2,0 L2,5 L-1,5 Z " fill="#070B0A" transform="translate(32,24)"/>
<path d="M0,0 L3,4 L3,6 L0,6 L-1,1 Z " fill="#7BC4C1" transform="translate(19,19)"/>
<path d="M0,0 L3,0 L3,4 L0,4 Z " fill="#4A686D" transform="translate(22,34)"/>
<path d="M0,0 L2,0 L1,5 L-2,3 Z " fill="#B2F1EA" transform="translate(28,18)"/>
<path d="M0,0 L1,4 L-3,3 Z " fill="#97D6C7" transform="translate(14,11)"/>
<path d="M0,0 L1,0 L1,5 L-2,4 L-2,2 L0,2 Z " fill="#49A4A8" transform="translate(14,42)"/>
<path d="M0,0 L2,0 L2,3 L-2,3 L-2,1 Z " fill="#131B1B" transform="translate(40,37)"/>
<path d="M0,0 L2,0 L2,4 L-1,4 Z " fill="#74A3A8" transform="translate(23,30)"/>
<path d="M0,0 L3,2 L-3,3 Z " fill="#020506" transform="translate(8,30)"/>
<path d="M0,0 L3,0 L3,3 L0,3 Z " fill="#86BBC2" transform="translate(21,42)"/>
<path d="M0,0 L3,0 L1,4 Z " fill="#30A1A8" transform="translate(0,35)"/>
<path d="M0,0 L2,0 L3,4 L0,3 Z " fill="#98D2D7" transform="translate(26,31)"/>
</svg>
