<?xml version="1.0" encoding="UTF-8"?>
<!-- Generator: visioncortex VTracer 0.6.4 -->
<svg version="1.1" xmlns="http://www.w3.org/2000/svg" width="156" height="160">
<path d="M0,0 L156,0 L156,160 L0,160 Z " fill="#000001" transform="translate(0,0)"/>
<path d="M0,0 L10,0 L10,2 L22,2 L22,4 L24,4 L24,8 L26,8 L26,4 L36,4 L36,6 L40,6 L40,17 L49,17 L49,14 L58,14 L58,16 L62,16 L62,18 L68,18 L68,22 L72,22 L72,34 L76,34 L76,38 L80,38 L80,44 L86,44 L86,50 L80,50 L80,60 L76,60 L76,66 L72,66 L72,74 L68,74 L68,78 L64,78 L64,82 L60,82 L60,86 L56,86 L56,90 L38,90 L38,86 L34,86 L34,90 L20,90 L20,78 L18,78 L18,82 L14,82 L14,84 L8,84 L8,82 L4,82 L4,78 L-14,78 L-18,74 L-18,70 L-20,70 L-20,66 L-22,66 L-22,56 L-20,56 L-20,52 L-22,52 L-22,44 L-20,44 L-20,40 L-18,40 L-18,36 L-20,36 L-20,30 L-18,30 L-18,24 L-14,24 L-14,22 L-4,22 L-4,26 L0,26 L0,34 L6,34 L6,38 L16,38 L16,42 L24,42 L24,38 L30,38 L30,34 L42,34 L42,38 L44,38 L44,44 L42,44 L42,48 L36,48 L36,50 L38,50 L38,54 L46,54 L46,50 L54,50 L54,54 L70,54 L70,50 L66,50 L66,44 L65,47 L62,47 L62,50 L44,49 L46,46 L45,44 L46,34 L44,33 L45,32 L43,31 L42,28 L42,32 L20,32 L20,23 L26,23 L26,21 L28,21 L28,19 L10,19 L-2,18 L-2,17 L13,17 L13,15 L-2,15 L-2,8 L0,8 Z " fill="#6279F4" transform="translate(52,20)"/>
<path d="M0,0 L10,0 L10,4 L14,4 L14,12 L20,12 L20,16 L30,16 L30,20 L38,20 L38,16 L44,16 L44,12 L56,12 L56,16 L58,16 L58,22 L56,22 L56,26 L50,26 L50,25 L55,25 L55,23 L52,23 L52,20 L43,22 L27,22 L26,21 L8,20 L8,14 L-3,14 L-2,21 L-3,19 L-5,19 L-4,21 L-4,42 L0,43 L0,46 L8,47 L8,45 L11,45 L11,43 L2,44 L2,42 L5,41 L7,42 L8,39 L16,39 L16,37 L10,37 L10,36 L17,36 L18,39 L17,41 L19,41 L19,39 L23,40 L23,42 L30,42 L32,43 L33,50 L38,54 L39,62 L47,62 L54,63 L73,63 L74,60 L74,64 L70,64 L70,68 L52,68 L52,64 L48,64 L48,68 L34,68 L34,56 L32,56 L32,60 L28,60 L28,62 L22,62 L22,60 L18,60 L18,56 L0,56 L-4,52 L-4,48 L-6,48 L-6,44 L-8,44 L-8,34 L-6,34 L-6,30 L-8,30 L-8,22 L-6,22 L-6,18 L-4,18 L-4,14 L-6,14 L-6,8 L-4,8 L-4,2 L0,2 Z " fill="#576AF8" transform="translate(38,42)"/>
<path d="M0,0 L10,0 L10,2 L22,2 L22,4 L24,4 L24,8 L26,8 L26,4 L36,4 L36,6 L40,6 L40,17 L49,17 L50,14 L50,18 L48,18 L48,24 L56,24 L56,36 L60,36 L60,40 L62,40 L62,45 L65,45 L65,47 L62,47 L62,50 L44,49 L46,46 L45,44 L46,34 L44,33 L45,32 L43,31 L42,28 L42,32 L20,32 L20,23 L26,23 L26,21 L28,21 L28,19 L10,19 L-2,18 L-2,17 L13,17 L13,15 L-2,15 L-2,8 L0,8 Z " fill="#010103" transform="translate(52,20)"/>
<path d="M0,0 L2,0 L3,3 L15,4 L35,4 L35,13 L33,13 L33,21 L31,21 L32,26 L23,25 L23,29 L18,29 L17,32 L14,33 L1,33 L0,30 L-3,29 L-3,27 L-5,27 L-5,25 L-11,23 L-13,21 L-12,16 L-11,13 L-13,13 L-14,8 L-17,8 L-17,3 L-19,3 L-19,1 L-7,1 Z " fill="#7595F7" transform="translate(87,71)"/>
<path d="M0,0 L8,0 L8,2 L12,2 L12,4 L18,4 L18,8 L22,8 L22,20 L26,20 L26,24 L30,24 L30,30 L36,30 L36,36 L30,36 L30,46 L26,46 L26,52 L22,52 L22,60 L18,60 L18,64 L14,64 L14,68 L10,67 L13,67 L13,65 L11,65 L10,62 L17,63 L16,58 L18,58 L18,50 L20,50 L20,41 L-3,42 L-12,41 L-12,40 L-4,40 L-4,36 L4,36 L4,40 L20,40 L20,36 L16,36 L16,30 L12,30 L12,26 L10,26 L10,22 L6,22 L6,10 L-2,10 L-2,4 L0,4 Z " fill="#576DF4" transform="translate(102,34)"/>
<path d="M0,0 L14,2 L19,3 L46,3 L47,7 L40,8 L30,7 L30,9 L32,9 L32,14 L35,14 L36,19 L38,19 L37,27 L44,31 L44,33 L46,33 L46,35 L50,36 L51,38 L63,38 L66,37 L67,35 L72,35 L72,31 L75,32 L75,34 L77,34 L77,36 L74,37 L73,40 L65,41 L54,41 L39,39 L38,37 L38,31 L34,29 L32,27 L32,20 L30,20 L30,17 L24,17 L24,11 L22,11 L22,9 L17,11 L5,12 L4,7 L0,7 L-1,1 Z " fill="#6985F5" transform="translate(38,65)"/>
<path d="M0,0 L10,0 L10,2 L22,2 L22,4 L24,4 L24,8 L26,8 L26,4 L36,4 L36,6 L40,6 L40,14 L28,14 L28,18 L14,18 L14,14 L-2,14 L-2,8 L0,8 Z " fill="#4856CD" transform="translate(52,20)"/>
<path d="M0,0 L4,1 L4,3 L11,3 L13,4 L14,11 L19,15 L20,23 L28,23 L35,24 L54,24 L55,21 L55,25 L51,25 L51,29 L33,29 L33,25 L29,25 L29,29 L15,29 L15,17 L12,17 L12,20 L7,19 L7,17 L1,16 L-1,2 Z " fill="#5871F2" transform="translate(57,81)"/>
<path d="M0,0 L2,0 L3,4 L-7,3 L-7,7 L-4,7 L-4,9 L-1,9 L0,19 L-3,20 L-3,15 L-5,15 L-5,22 L-1,23 L-1,25 L2,26 L3,31 L5,31 L5,29 L18,29 L17,32 L14,33 L1,33 L0,30 L-3,29 L-3,27 L-5,27 L-5,25 L-11,23 L-13,21 L-12,16 L-11,13 L-13,13 L-14,8 L-17,8 L-17,3 L-19,3 L-19,1 L-7,1 Z " fill="#708CF5" transform="translate(87,71)"/>
<path d="M0,0 L2,0 L3,3 L5,5 L5,11 L9,11 L11,15 L22,14 L27,13 L27,15 L29,15 L29,21 L35,21 L35,23 L28,23 L27,21 L24,20 L24,22 L22,22 L21,18 L21,20 L13,21 L12,23 L7,23 L7,25 L16,24 L16,26 L13,26 L13,28 L5,27 L5,24 L1,23 L0,11 Z " fill="#627EF5" transform="translate(33,61)"/>
<path d="M0,0 L5,0 L8,9 L9,15 L7,30 L5,30 L5,25 L0,25 L0,21 L-2,21 L-2,16 L-5,16 L-5,5 L-3,5 L-5,1 Z " fill="#606EF5" transform="translate(114,39)"/>
<path d="M0,0 L1,2 L5,3 L9,4 L9,6 L12,6 L12,8 L14,8 L13,16 L20,20 L20,22 L22,22 L22,24 L26,25 L27,27 L39,27 L42,26 L43,24 L48,24 L48,20 L51,21 L51,23 L53,23 L53,25 L50,26 L49,29 L41,30 L30,30 L15,28 L14,26 L14,20 L10,18 L8,16 L8,9 L6,9 L6,6 L0,6 Z " fill="#6A82F3" transform="translate(62,76)"/>
<path d="M0,0 L7,0 L9,6 L10,11 L10,19 L16,20 L16,22 L21,23 L22,20 L22,24 L18,24 L18,26 L12,26 L12,24 L8,24 L8,20 L-10,20 L-12,15 L-5,14 L-5,16 L-1,16 L-1,14 L8,13 L8,11 L2,11 L2,6 L-2,6 L-2,3 L6,3 L6,1 L0,1 Z " fill="#4B5CF6" transform="translate(48,78)"/>
<path d="M0,0 L29,0 L29,9 L27,9 L27,17 L25,17 L26,22 L19,21 L19,17 L21,17 L20,11 L18,10 L21,9 L21,3 L13,4 L12,5 L-1,5 L-1,3 L-3,2 Z " fill="#7193F8" transform="translate(93,75)"/>
<path d="M0,0 L4,1 L1,1 L1,3 L4,4 L4,6 L4,18 L12,18 L12,19 L4,20 L20,22 L20,19 L23,19 L23,17 L20,16 L24,16 L24,22 L28,22 L28,26 L12,26 L12,22 L4,22 L4,26 L-4,26 L-4,22 L-6,22 L-6,20 L0,20 L0,16 L2,16 L2,10 L0,10 L0,6 L-12,6 L-14,4 L0,4 Z " fill="#0A0D1B" transform="translate(94,48)"/>
<path d="M0,0 L6,0 L6,2 L14,2 L14,10 L10,10 L10,14 L-4,14 L-4,6 L-2,6 L-2,4 L0,4 Z " fill="#4758F1" transform="translate(84,38)"/>
<path d="M0,0 L16,1 L21,4 L21,2 L25,3 L26,9 L24,9 L24,13 L22,13 L22,17 L12,17 L12,15 L17,15 L18,11 L20,11 L20,7 L8,8 L0,10 L0,7 L4,7 L4,3 L0,3 Z " fill="#7491F4" transform="translate(88,83)"/>
<path d="M0,0 L8,0 L8,4 L25,4 L25,0 L27,0 L29,10 L29,15 L26,15 L26,24 L22,24 L22,28 L18,28 L18,32 L14,31 L17,31 L17,29 L15,29 L14,26 L21,27 L20,22 L22,22 L22,14 L24,14 L24,5 L1,6 L-8,5 L-8,4 L0,4 Z " fill="#607CF9" transform="translate(98,70)"/>
<path d="M0,0 L7,0 L7,2 L16,2 L21,4 L20,10 L17,11 L0,11 Z " fill="#6577FB" transform="translate(54,21)"/>
<path d="M0,0 L8,1 L8,3 L20,3 L21,4 L57,4 L57,6 L52,6 L52,9 L54,9 L53,13 L53,10 L49,11 L48,7 L27,8 L17,8 L10,6 L5,5 L-1,3 Z " fill="#6681F4" transform="translate(36,61)"/>
<path d="M0,0 L8,0 L8,2 L12,2 L12,4 L18,4 L18,8 L22,8 L22,20 L20,16 L17,10 L17,5 L8,7 L9,10 L7,10 L7,21 L10,22 L6,22 L6,10 L-2,10 L-2,4 L0,4 Z " fill="#5160D9" transform="translate(102,34)"/>
<path d="M0,0 L16,0 L16,4 L30,4 L30,0 L42,0 L42,1 L31,1 L33,5 L32,10 L30,10 L30,18 L22,18 L22,9 L28,9 L28,7 L30,7 L30,5 L12,5 L0,4 L0,3 L15,3 L15,1 L0,1 Z " fill="#090B21" transform="translate(50,34)"/>
<path d="M0,0 L10,0 L10,4 L14,4 L14,12 L20,12 L20,16 L30,16 L29,20 L29,17 L17,17 L10,16 L8,13 L8,4 L0,4 L-3,3 L-3,8 L-4,8 L-4,2 L0,2 Z " fill="#465AE5" transform="translate(38,42)"/>
<path d="M0,0 L10,0 L10,2 L14,2 L14,10 L2,10 L2,14 L-12,14 L-12,10 L-28,10 L-28,4 L-27,4 L-27,9 L2,8 L13,9 L13,3 L11,3 L11,7 L8,7 L9,1 L1,1 L0,4 Z " fill="#3845C0" transform="translate(78,24)"/>
<path d="M0,0 L11,1 L12,10 L13,13 L20,13 L23,15 L11,15 L11,11 L1,11 L-2,10 L-2,5 L0,5 Z " fill="#576BEF" transform="translate(35,45)"/>
<path d="M0,0 L1,0 L1,11 L13,11 L13,9 L3,9 L4,6 L11,7 L13,6 L20,7 L39,7 L40,4 L40,8 L36,8 L36,12 L18,12 L18,8 L14,8 L14,12 L0,12 Z " fill="#5062D4" transform="translate(72,98)"/>
<path d="M0,0 L1,4 L-1,4 L-1,10 L7,10 L7,22 L6,22 L6,14 L4,14 L4,22 L3,22 L3,14 L-3,14 L-3,6 L-11,6 L-11,4 L-17,4 L-18,8 L-20,4 L-20,1 L-9,1 L-9,3 L0,3 Z " fill="#070816" transform="translate(101,34)"/>
<path d="M0,0 L5,1 L5,5 L3,6 L2,9 L-3,9 L-3,11 L-7,11 L-7,9 L-11,9 L-11,5 L-13,5 L-12,2 Z " fill="#7896F5" transform="translate(103,89)"/>
<path d="M0,0 L4,0 L4,4 L8,4 L8,10 L14,10 L14,16 L8,16 L8,26 L4,26 L4,32 L0,31 L3,31 L1,22 L1,16 L4,18 L4,25 L7,25 L6,10 L7,5 L5,5 L5,10 L3,10 L2,3 L3,1 Z " fill="#4956DC" transform="translate(124,54)"/>
<path d="M0,0 L1,2 L5,3 L9,4 L9,6 L12,6 L12,8 L14,8 L13,16 L16,19 L16,26 L24,27 L23,29 L15,28 L14,26 L14,20 L10,18 L8,16 L8,9 L6,9 L6,6 L0,6 Z " fill="#657FF5" transform="translate(62,76)"/>
<path d="M0,0 L1,0 L1,5 L3,5 L4,1 L4,13 L3,11 L1,11 L2,13 L2,36 L1,39 L4,38 L4,44 L2,44 L2,40 L0,40 L0,36 L-2,36 L-2,26 L0,26 L0,22 L-2,22 L-2,14 L0,14 L0,10 L2,10 L2,6 L0,6 Z " fill="#5361D7" transform="translate(32,50)"/>
<path d="M0,0 L4,0 L4,7 L2,7 L2,15 L0,15 L1,20 L-6,19 L-6,15 L-4,15 L-4,8 L-1,6 Z " fill="#6989F2" transform="translate(118,77)"/>
<path d="M0,0 L12,0 L13,4 L6,5 L-4,4 L-4,6 L-2,6 L-2,11 L-4,11 L-5,9 L-8,8 L-8,1 Z " fill="#6D89F6" transform="translate(72,68)"/>
<path d="M0,0 L2,0 L3,8 L10,8 L11,10 L10,12 L5,12 L5,14 L14,13 L14,15 L11,15 L11,17 L3,16 L3,13 L-1,12 L-1,4 Z " fill="#586DF8" transform="translate(35,72)"/>
<path d="M0,0 L6,0 L6,1 L1,1 L1,3 L10,4 L10,5 L0,6 L-11,6 L-12,5 L-30,4 L-30,2 L-9,1 L-9,4 L0,4 Z " fill="#5D72F9" transform="translate(76,58)"/>
<path d="M0,0 L1,2 L4,1 L6,16 L3,15 L3,13 L-3,12 L-4,3 L-2,3 L-2,1 Z " fill="#5267F5" transform="translate(61,85)"/>
<path d="M0,0 L3,0 L4,6 L7,7 L7,16 L3,14 L3,17 L1,17 L1,13 L-1,13 Z " fill="#7186F6" transform="translate(114,46)"/>
<path d="M0,0 L7,0 L9,6 L10,16 L8,16 L8,11 L2,11 L2,6 L-2,6 L-2,3 L6,3 L6,1 L0,1 Z " fill="#4A5FD3" transform="translate(48,78)"/>
<path d="M0,0 L6,4 L7,12 L14,12 L13,14 L6,13 L5,15 L15,15 L15,17 L3,17 L2,6 L0,5 Z " fill="#6076F5" transform="translate(70,92)"/>
<path d="M0,0 L6,0 L6,2 L14,2 L14,10 L10,10 L10,14 L-4,14 L-4,6 L-2,6 L-2,4 L0,4 Z M6,3 L5,5 L-1,5 L-1,7 L-3,7 L-3,13 L9,13 L10,10 L13,9 L13,3 Z " fill="#3A48C7" transform="translate(84,38)"/>
<path d="M0,0 L7,2 L7,4 L12,5 L13,2 L13,6 L9,6 L9,8 L3,8 L3,6 L-1,6 L-1,2 L-19,2 L-19,1 Z " fill="#3F4ED0" transform="translate(57,96)"/>
<path d="M0,0 L10,0 L10,4 L14,4 L14,12 L13,12 L13,5 L11,5 L11,10 L8,10 L8,4 L0,4 L-3,3 L-3,8 L-4,8 L-4,2 L0,2 Z " fill="#3E4CD8" transform="translate(38,42)"/>
<path d="M0,0 L17,1 L17,3 L10,5 L-2,6 L-3,1 Z " fill="#6782F3" transform="translate(45,71)"/>
<path d="M0,0 L8,0 L7,6 L10,6 L10,2 L12,2 L12,8 L1,8 Z " fill="#515DF6" transform="translate(79,25)"/>
<path d="M0,0 L11,1 L11,9 L9,9 L9,5 L1,7 L0,10 L-2,10 L-2,5 L0,5 Z " fill="#5362F7" transform="translate(35,45)"/>
<path d="M0,0 L1,3 L14,2 L18,1 L18,2 L23,3 L24,0 L24,4 L18,4 L18,8 L10,8 L10,4 L0,4 Z " fill="#0A0C1D" transform="translate(58,54)"/>
<path d="M0,0 L8,0 L8,4 L24,4 L24,5 L1,6 L-8,5 L-8,4 L0,4 Z " fill="#5C75D1" transform="translate(98,70)"/>
<path d="M0,0 L8,0 L8,2 L12,3 L7,5 L6,7 L1,7 L1,5 L-1,5 L-1,9 L6,9 L6,10 L-2,10 L-2,4 L0,4 Z " fill="#4551D5" transform="translate(102,34)"/>
<path d="M0,0 L4,0 L5,6 L4,4 L1,4 L1,13 L0,17 L2,17 L3,15 L2,21 L5,22 L1,22 L1,18 L-1,18 L-2,4 L0,4 Z " fill="#6074E0" transform="translate(113,42)"/>
<path d="M0,0 L6,1 L7,5 L6,6 L-7,5 L-7,3 Z " fill="#7081F9" transform="translate(62,24)"/>
<path d="M0,0 L2,3 L2,13 L1,16 L4,15 L4,21 L2,21 L2,17 L0,17 L0,13 L-2,13 L-2,3 L0,3 Z " fill="#4C5BD9" transform="translate(32,73)"/>
<path d="M0,0 L12,0 L12,4 L14,4 L14,10 L12,10 L12,14 L6,14 L6,13 L11,13 L11,11 L8,11 L8,8 L13,9 L13,5 L10,6 L10,4 L3,4 L3,3 L11,3 L11,1 L1,1 L0,4 Z " fill="#4454C3" transform="translate(82,54)"/>
<path d="M0,0 L9,1 L9,3 L13,4 L12,5 L-1,5 L-1,3 L-3,2 Z " fill="#7290F1" transform="translate(93,75)"/>
<path d="M0,0 L5,2 L3,21 L1,21 L-1,12 L2,13 L2,5 L0,4 Z " fill="#637CF5" transform="translate(118,48)"/>
<path d="M0,0 L2,0 L1,9 L3,9 L3,2 L4,2 L4,10 L0,10 L0,14 L-4,14 L-4,18 L-8,17 L-5,17 L-5,15 L-7,15 L-8,12 L-1,13 L-2,8 L0,8 Z " fill="#5062CF" transform="translate(120,84)"/>
<path d="M0,0 L5,0 L5,6 L11,6 L11,8 L4,8 L3,6 L0,5 L0,7 L-2,7 L-2,2 L0,2 Z " fill="#5E7BF6" transform="translate(57,76)"/>
<path d="M0,0 L5,1 L4,7 L1,8 L-16,8 L-16,6 L-1,6 Z " fill="#5C6FF9" transform="translate(70,24)"/>
<path d="M0,0 L6,0 L6,8 L0,8 Z " fill="#3C4BD6" transform="translate(72,44)"/>
<path d="M0,0 L2,0 L2,12 L0,9 L-2,12 L-3,7 L-10,7 L-10,6 L-4,6 L-4,4 L0,4 Z " fill="#090B1C" transform="translate(70,98)"/>
<path d="M0,0 L4,2 L6,3 L6,5 L8,5 L8,7 L12,8 L11,9 L2,9 L2,2 L0,2 Z " fill="#6B86F3" transform="translate(76,93)"/>
<path d="M0,0 L2,0 L2,20 L-1,20 L-1,6 Z " fill="#5468FA" transform="translate(129,59)"/>
<path d="M0,0 L3,2 L3,9 L6,9 L6,0 L7,0 L7,10 L3,10 L3,16 L-1,15 L2,15 L0,6 Z " fill="#495DCF" transform="translate(125,70)"/>
<path d="M0,0 L6,0 L6,4 L10,4 L10,16 L8,12 L5,6 L5,1 L0,1 Z " fill="#454DCE" transform="translate(114,38)"/>
<path d="M0,0 L2,0 L3,8 L10,8 L11,10 L10,12 L8,12 L8,9 L1,10 L1,6 L-1,6 Z " fill="#5D75F5" transform="translate(35,72)"/>
<path d="M0,0 L2,0 L3,3 L5,5 L5,11 L2,11 L2,15 L0,15 Z " fill="#667BFB" transform="translate(33,61)"/>
<path d="M0,0 L8,0 L10,3 L10,6 L4,6 L4,2 L0,2 Z " fill="#0B0E1F" transform="translate(46,82)"/>
<path d="M0,0 L5,0 L5,3 L16,3 L15,7 L15,4 L3,4 L-4,3 L-4,1 Z " fill="#4B5DDE" transform="translate(52,55)"/>
<path d="M0,0 L4,1 L4,7 L6,8 L3,8 L3,11 L1,11 L0,8 Z " fill="#566BF1" transform="translate(66,90)"/>
<path d="M0,0 L4,1 L4,5 L8,5 L8,7 L4,7 L4,9 L2,9 L-1,3 Z " fill="#7692F9" transform="translate(88,93)"/>
<path d="M0,0 L6,0 L6,1 L1,1 L1,3 L10,4 L10,5 L0,6 L-8,5 L-8,4 L0,4 Z " fill="#5062D2" transform="translate(76,58)"/>
<path d="M0,0 L10,0 L9,5 L-1,5 Z " fill="#5A71FE" transform="translate(83,55)"/>
<path d="M0,0 L8,1 L7,4 L8,6 L0,6 Z " fill="#4757F1" transform="translate(83,43)"/>
<path d="M0,0 L2,0 L2,5 L12,5 L12,7 L0,7 Z " fill="#556BFD" transform="translate(73,102)"/>
<path d="M0,0 L2,0 L2,8 L0,8 L1,13 L-4,12 L-3,9 L-1,9 Z " fill="#667DF3" transform="translate(118,84)"/>
<path d="M0,0 L1,0 L1,8 L3,8 L3,12 L1,12 L1,22 L0,22 L-1,8 Z " fill="#0E1025" transform="translate(29,64)"/>
<path d="M0,0 L16,1 L16,3 L7,3 L0,2 Z " fill="#607DFD" transform="translate(38,78)"/>
<path d="M0,0 L9,0 L9,2 L-7,3 L-7,1 Z " fill="#647CFC" transform="translate(67,63)"/>
<path d="M0,0 L9,0 L9,3 L-1,4 Z " fill="#6C88FA" transform="translate(43,68)"/>
<path d="M0,0 L14,0 L14,3 L16,3 L15,7 L15,4 L11,5 L10,1 L0,1 Z " fill="#617CE5" transform="translate(74,67)"/>
<path d="M0,0 L2,0 L2,4 L12,4 L12,6 L0,6 Z " fill="#5060FD" transform="translate(81,45)"/>
<path d="M0,0 L2,0 L2,2 L13,2 L13,4 L1,5 Z " fill="#6583F8" transform="translate(42,72)"/>
<path d="M0,0 L8,1 L8,6 L-1,3 Z " fill="#6680F0" transform="translate(36,61)"/>
<path d="M0,0 L4,0 L4,4 L8,4 L8,10 L7,10 L7,5 L5,5 L5,10 L3,10 L2,3 L3,1 Z " fill="#4353CF" transform="translate(124,54)"/>
<path d="M0,0 L3,0 L3,4 L5,4 L5,8 L0,7 Z " fill="#758BF9" transform="translate(115,48)"/>
<path d="M0,0 L7,0 L12,1 L12,3 L0,3 Z " fill="#4658F7" transform="translate(67,34)"/>
<path d="M0,0 L4,0 L4,3 L1,4 L0,11 L-2,11 L-2,4 Z " fill="#5F75F7" transform="translate(123,82)"/>
<path d="M0,0 L1,0 L1,11 L9,11 L9,12 L-2,12 L-2,7 L0,7 Z " fill="#4C5EF2" transform="translate(53,21)"/>
<path d="M0,0 L2,0 L2,6 L-9,6 L-9,4 L0,4 Z " fill="#4C5AFD" transform="translate(89,27)"/>
<path d="M0,0 L4,0 L4,6 L8,7 L-3,7 L0,6 L0,3 L3,3 L3,1 Z " fill="#0B0E1C" transform="translate(114,64)"/>
<path d="M0,0 L2,0 L1,7 L-2,10 L-4,10 L-4,6 L-2,6 L-2,4 L0,4 Z " fill="#6D87F5" transform="translate(116,86)"/>
<path d="M0,0 L10,0 L11,7 L8,7 L9,1 L1,1 L0,4 Z " fill="#3F48CC" transform="translate(78,24)"/>
<path d="M0,0 L1,2 L4,1 L4,5 L-3,5 L-4,3 L-2,3 L-2,1 Z " fill="#526AF1" transform="translate(61,85)"/>
<path d="M0,0 L2,0 L3,4 L-7,3 L-7,1 Z " fill="#6E8CF6" transform="translate(87,71)"/>
<path d="M0,0 L11,0 L11,4 L0,1 Z " fill="#5F72F8" transform="translate(35,56)"/>
<path d="M0,0 L1,0 L1,5 L3,5 L3,2 L6,2 L5,10 L4,6 L0,6 Z " fill="#4D64CE" transform="translate(118,64)"/>
<path d="M0,0 L1,0 L1,9 L-3,7 L-3,10 L-5,10 L-4,5 L0,5 Z " fill="#6E86FC" transform="translate(120,53)"/>
<path d="M0,0 L2,0 L2,2 L-1,2 L-1,4 L-5,4 L-5,2 L-10,3 L-8,1 Z " fill="#4F5FF8" transform="translate(48,90)"/>
<path d="M0,0 L8,1 L10,0 L15,1 L15,2 L10,3 L0,3 Z " fill="#5569EC" transform="translate(75,104)"/>
<path d="M0,0 L1,2 L5,2 L4,6 L4,3 L-5,4 L-5,2 L-2,1 L0,2 Z " fill="#4B62D7" transform="translate(45,82)"/>
<path d="M0,0 L9,1 L9,3 L1,3 Z " fill="#6F89F5" transform="translate(93,75)"/>
<path d="M0,0 L1,3 L3,4 L3,12 L0,10 Z " fill="#5368ED" transform="translate(126,61)"/>
<path d="M0,0 L2,0 L3,10 L0,10 Z " fill="#667CFC" transform="translate(109,45)"/>
<path d="M0,0 L7,0 L7,6 L5,6 L5,2 L0,2 Z " fill="#4E60FD" transform="translate(90,41)"/>
<path d="M0,0 L7,0 L8,3 L0,3 Z " fill="#606EF5" transform="translate(54,21)"/>
<path d="M0,0 L7,1 L6,6 L3,6 L3,2 L0,2 Z " fill="#728FEF" transform="translate(89,84)"/>
<path d="M0,0 L5,0 L7,4 L5,6 L4,4 L1,4 Z " fill="#6D8BF6" transform="translate(73,80)"/>
<path d="M0,0 L6,0 L8,4 L2,4 L2,1 Z " fill="#000000" transform="translate(89,69)"/>
<path d="M0,0 L6,0 L5,4 L5,2 L0,4 L-2,5 L-1,1 Z " fill="#5766F3" transform="translate(38,50)"/>
<path d="M0,0 L3,1 L3,3 L5,3 L5,5 L0,6 Z " fill="#697FF1" transform="translate(110,96)"/>
<path d="M0,0 L5,1 L4,6 L-2,6 L-2,5 L3,5 L3,3 L0,3 Z " fill="#5369D1" transform="translate(90,62)"/>
<path d="M0,0 L8,0 L4,3 L0,4 Z " fill="#6B7CFC" transform="translate(54,24)"/>
<path d="M0,0 L7,0 L9,2 L8,5 L6,4 L6,2 L0,1 Z " fill="#4F60F2" transform="translate(58,96)"/>
<path d="M0,0 L4,0 L4,2 L2,2 L2,4 L-3,4 Z " fill="#5B6BF6" transform="translate(39,52)"/>
<path d="M0,0 L2,0 L2,2 L7,2 L7,4 L0,4 Z " fill="#5768FE" transform="translate(101,39)"/>
<path d="M0,0 L2,0 L2,7 L0,7 L-1,1 Z " fill="#6A83FC" transform="translate(38,65)"/>
<path d="M0,0 L2,0 L3,4 L2,8 L0,8 Z " fill="#566BE0" transform="translate(122,54)"/>
<path d="M0,0 L9,1 L8,3 L-1,3 Z " fill="#596EF3" transform="translate(83,57)"/>
<path d="M0,0 L5,2 L4,6 L4,4 L0,4 Z " fill="#6576F3" transform="translate(118,48)"/>
<path d="M0,0 L6,0 L5,3 L0,3 Z " fill="#4E59F5" transform="translate(81,25)"/>
<path d="M0,0 L4,0 L4,6 L0,5 L3,5 L3,3 L1,3 Z " fill="#586BD4" transform="translate(112,96)"/>
<path d="M0,0 L4,3 L4,6 L0,5 Z " fill="#5E75F4" transform="translate(70,92)"/>
<path d="M0,0 L5,0 L6,4 L2,3 L2,1 Z " fill="#617CEF" transform="translate(68,84)"/>
<path d="M0,0 L2,2 L3,7 L0,8 Z " fill="#6281F1" transform="translate(122,75)"/>
<path d="M0,0 L4,0 L4,3 L-5,2 L-5,1 Z " fill="#5F77F0" transform="translate(86,62)"/>
<path d="M0,0 L9,0 L9,3 L0,1 Z " fill="#5B71F0" transform="translate(58,61)"/>
<path d="M0,0 L1,4 L-1,4 L-2,8 L-2,1 Z " fill="#0E1126" transform="translate(33,56)"/>
<path d="M0,0 L2,0 L3,6 L2,4 L-1,4 Z " fill="#6A79FA" transform="translate(115,42)"/>
<path d="M0,0 L4,1 L6,3 L-1,4 L2,3 L2,1 Z " fill="#4F5EEB" transform="translate(76,28)"/>
<path d="M0,0 L2,0 L2,4 L-3,4 L-2,2 L0,2 Z " fill="#728BF8" transform="translate(108,96)"/>
<path d="M0,0 L2,0 L3,4 L-2,4 Z " fill="#6A87F2" transform="translate(82,68)"/>
<path d="M0,0 L3,0 L3,4 L0,4 Z " fill="#708EF1" transform="translate(72,74)"/>
<path d="M0,0 L2,0 L2,4 L-1,4 Z " fill="#7491EF" transform="translate(106,94)"/>
<path d="M0,0 L2,0 L2,4 L-1,4 Z " fill="#5971EC" transform="translate(122,62)"/>
<path d="M0,0 L2,0 L3,5 L0,4 Z " fill="#5A67FB" transform="translate(79,25)"/>
<path d="M0,0 L6,1 L6,2 L-1,3 Z " fill="#556BD8" transform="translate(84,104)"/>
<path d="M0,0 L3,1 L1,3 L-2,3 L-2,1 Z " fill="#4B5DF7" transform="translate(59,98)"/>
<path d="M0,0 L3,0 L4,3 L0,3 Z " fill="#607DF1" transform="translate(64,79)"/>
<path d="M0,0 L3,0 L2,3 L0,3 Z " fill="#5771F4" transform="translate(40,81)"/>
<path d="M0,0 L2,1 L2,4 L-1,3 Z " fill="#637AF0" transform="translate(36,61)"/>
<path d="M0,0 L3,0 L1,4 Z " fill="#5769FA" transform="translate(124,55)"/>
</svg>
