<?xml version="1.0" encoding="UTF-8"?>
<!-- Generator: visioncortex VTracer 0.6.4 -->
<svg version="1.1" xmlns="http://www.w3.org/2000/svg" width="62" height="80">
<path d="M0,0 L62,0 L62,80 L0,80 Z " fill="#020201" transform="translate(0,0)"/>
<path d="M0,0 L8,0 L8,2 L12,2 L12,0 L22,0 L22,4 L24,4 L24,12 L34,12 L34,10 L28,10 L28,4 L31,4 L31,1 L39,1 L42,2 L42,4 L44,4 L44,10 L40,10 L40,12 L44,14 L44,20 L42,20 L42,24 L44,24 L44,30 L40,34 L34,34 L34,36 L16,36 L16,28 L28,28 L28,24 L32,24 L32,22 L24,22 L24,18 L22,18 L22,14 L20,14 L20,16 L16,16 L16,24 L14,24 L14,26 L12,26 L12,28 L6,28 L6,34 L8,34 L8,30 L14,30 L14,40 L12,40 L12,42 L0,42 L0,24 L6,24 L6,16 L-1,16 L-2,15 L-2,2 L0,2 Z " fill="#906A61" transform="translate(4,4)"/>
<path d="M0,0 L8,0 L11,1 L11,3 L13,3 L13,9 L9,9 L9,11 L13,13 L13,19 L11,19 L11,23 L13,23 L13,29 L9,33 L3,33 L3,35 L-15,35 L-15,27 L-3,27 L-3,23 L1,23 L1,21 L-7,21 L-7,17 L-9,17 L-9,13 L-11,12 L-8,12 L-8,3 L-7,3 L-7,11 L3,11 L3,9 L-3,9 L-3,3 L0,3 Z " fill="#78564C" transform="translate(35,5)"/>
<path d="M0,0 L6,0 L6,2 L8,2 L8,8 L10,8 L10,18 L13,16 L18,16 L18,18 L26,18 L26,24 L20,24 L20,26 L11,26 L8,24 L8,22 L4,22 L4,16 L2,16 L2,8 L0,8 Z " fill="#84695F" transform="translate(18,44)"/>
<path d="M0,0 L3,0 L5,0 L5,4 L2,4 L3,10 L5,10 L5,15 L2,19 L-4,19 L-4,21 L-22,21 L-22,13 L-9,13 L-9,10 L-5,10 L-5,7 L0,7 Z " fill="#7D6057" transform="translate(42,19)"/>
<path d="M0,0 L8,0 L8,2 L17,2 L17,10 L10,10 L11,14 L10,17 L1,19 L1,9 L-1,9 L-1,3 L-3,2 L0,2 Z " fill="#0F0C0C" transform="translate(27,43)"/>
<path d="M0,0 L4,1 L5,13 L4,15 L9,15 L9,16 L3,16 L3,22 L5,22 L5,18 L11,18 L11,28 L9,28 L9,30 L-3,30 L-3,12 L3,12 L3,4 L-4,4 L0,3 Z " fill="#8B6952" transform="translate(7,16)"/>
<path d="M0,0 L2,0 L2,4 L4,4 L4,8 L12,8 L12,10 L8,10 L8,14 L-4,14 L-4,22 L-5,25 L0,25 L0,26 L-6,26 L-6,16 L-12,16 L-12,20 L-14,20 L-14,14 L-8,14 L-8,12 L-6,12 L-6,10 L-4,10 L-4,2 L0,2 Z " fill="#0F0C0B" transform="translate(24,18)"/>
<path d="M0,0 L5,0 L4,9 L3,11 L-6,11 L-8,10 L-8,4 L-5,1 Z " fill="#B1847C" transform="translate(19,7)"/>
<path d="M0,0 L20,0 L20,2 L22,2 L22,4 L17,4 L17,6 L0,6 Z " fill="#A17F72" transform="translate(21,33)"/>
<path d="M0,0 L4,1 L5,13 L4,15 L9,15 L9,16 L-1,18 L-2,29 L9,29 L9,30 L-3,30 L-3,12 L3,12 L3,4 L-4,4 L0,3 Z " fill="#795C48" transform="translate(7,16)"/>
<path d="M0,0 L10,0 L13,2 L13,6 L8,6 L8,8 L1,8 L1,4 L-1,4 Z " fill="#A7796F" transform="translate(28,17)"/>
<path d="M0,0 L4,0 L4,3 L8,2 L7,5 L5,5 L5,11 L1,10 L1,13 L-3,13 L-3,4 L-2,2 L0,2 Z " fill="#9D7269" transform="translate(6,6)"/>
<path d="M0,0 L8,0 L8,6 L0,6 L0,10 L-6,10 L-6,4 L0,4 Z " fill="#6F5853" transform="translate(36,46)"/>
<path d="M0,0 L6,0 L6,2 L8,2 L8,8 L7,8 L7,3 L5,3 L5,8 L3,8 L3,15 L7,14 L7,17 L5,17 L5,21 L9,20 L10,24 L8,24 L8,22 L4,22 L4,16 L2,16 L2,8 L0,8 Z " fill="#8C7164" transform="translate(18,44)"/>
<path d="M0,0 L8,0 L8,7 L5,11 L0,11 Z " fill="#A68173" transform="translate(11,20)"/>
<path d="M0,0 L1,3 L3,3 L3,1 L5,1 L5,3 L7,3 L7,0 L18,0 L19,2 L9,1 L9,4 L6,4 L6,10 L12,10 L12,12 L2,12 L2,4 L0,4 Z " fill="#291915" transform="translate(26,4)"/>
<path d="M0,0 L8,0 L8,2 L12,2 L12,0 L22,0 L21,4 L21,2 L10,4 L6,5 L6,2 L2,2 L2,4 L0,4 L-1,15 L-2,15 L-2,2 L0,2 Z " fill="#734F48" transform="translate(4,4)"/>
<path d="M0,0 L8,0 L11,1 L11,3 L13,3 L13,9 L9,8 L12,8 L11,6 L7,4 L3,3 L2,6 L-1,6 L-2,8 L3,8 L3,9 L-3,9 L-3,3 L0,3 Z " fill="#7C4B3E" transform="translate(35,5)"/>
<path d="M0,0 L5,2 L8,4 L9,2 L9,6 L6,7 L5,9 L1,9 L0,7 L-5,6 L-4,2 L-4,4 L-1,4 Z " fill="#9D6354" transform="translate(38,7)"/>
<path d="M0,0 L1,0 L1,6 L7,6 L7,2 L15,2 L15,3 L8,3 L9,7 L8,10 L-1,12 L-1,2 Z " fill="#14100F" transform="translate(29,50)"/>
<path d="M0,0 L3,0 L5,0 L5,4 L2,4 L3,10 L5,10 L5,15 L2,19 L-4,19 L-4,18 L1,18 L0,15 L2,15 L0,9 Z " fill="#A07363" transform="translate(42,19)"/>
<path d="M0,0 L5,2 L8,0 L15,0 L15,4 L9,3 L9,6 L2,6 L2,2 L0,2 Z " fill="#A27F7A" transform="translate(28,63)"/>
<path d="M0,0 L2,0 L2,5 L4,5 L4,15 L3,11 L-2,12 L-2,5 L0,5 Z " fill="#9E7F72" transform="translate(23,47)"/>
<path d="M0,0 L4,0 L4,9 L-1,10 Z " fill="#A68571" transform="translate(13,35)"/>
<path d="M0,0 L2,0 L3,7 L-6,7 L-6,3 L-1,3 Z " fill="#B58C81" transform="translate(18,10)"/>
<path d="M0,0 L3,0 L3,6 L10,6 L10,8 L0,8 Z " fill="#110B0A" transform="translate(28,8)"/>
<path d="M0,0 L6,0 L6,6 L0,6 Z " fill="#684D3B" transform="translate(12,62)"/>
<path d="M0,0 L3,0 L4,6 L7,8 L1,8 L0,7 Z " fill="#020201" transform="translate(21,21)"/>
<path d="M0,0 L1,0 L1,7 L5,6 L5,9 L3,9 L3,13 L7,12 L8,16 L6,16 L6,14 L2,14 L2,8 L0,8 Z " fill="#765D52" transform="translate(20,52)"/>
<path d="M0,0 L2,0 L3,11 L2,17 L1,17 L1,11 L-1,11 L-1,7 L1,7 Z " fill="#140D0B" transform="translate(47,17)"/>
<path d="M0,0 L2,0 L2,4 L4,4 L3,8 L3,5 L0,5 L0,3 L-3,3 L-2,11 L-6,10 L-4,10 L-4,2 L0,2 Z " fill="#191311" transform="translate(24,18)"/>
<path d="M0,0 L4,0 L3,5 L-2,5 L-3,9 L-3,3 Z " fill="#AB8077" transform="translate(14,8)"/>
<path d="M0,0 L5,0 L7,6 L2,5 Z " fill="#A77B6D" transform="translate(37,26)"/>
<path d="M0,0 L1,2 L3,2 L3,4 L-5,3 L-5,5 L-7,5 L-6,1 Z " fill="#A57B72" transform="translate(40,33)"/>
<path d="M0,0 L4,1 L4,12 L3,12 L3,4 L-4,4 L0,3 Z " fill="#7A5C52" transform="translate(7,16)"/>
<path d="M0,0 L1,4 L-2,5 L-3,7 L-7,7 L-8,4 L-2,2 L0,2 Z " fill="#925C4C" transform="translate(46,9)"/>
<path d="M0,0 L5,2 L7,2 L8,6 L2,6 L2,2 L0,2 Z " fill="#A28376" transform="translate(28,63)"/>
<path d="M0,0 L6,0 L6,4 L-1,4 Z " fill="#A37F7B" transform="translate(37,47)"/>
<path d="M0,0 L2,0 L2,3 L11,3 L11,5 L-1,5 Z " fill="#0D0A09" transform="translate(25,23)"/>
<path d="M0,0 L5,1 L6,6 L0,7 L-1,5 L5,5 L5,3 L0,3 Z " fill="#A17467" transform="translate(35,17)"/>
<path d="M0,0 L3,0 L5,0 L5,4 L2,4 L3,7 L0,7 Z " fill="#946757" transform="translate(42,19)"/>
<path d="M0,0 L2,0 L2,2 L6,4 L6,5 L-1,5 Z " fill="#A67B70" transform="translate(30,20)"/>
<path d="M0,0 L7,1 L7,3 L2,4 L0,6 L-1,1 Z " fill="#010000" transform="translate(28,46)"/>
<path d="M0,0 L8,1 L8,2 L2,2 L2,6 L0,6 Z " fill="#17120F" transform="translate(10,32)"/>
<path d="M0,0 L2,0 L1,5 L-4,5 L-3,2 L0,2 Z " fill="#9E7C6B" transform="translate(15,26)"/>
<path d="M0,0 L4,0 L3,3 L1,7 L1,4 L-2,4 L-2,2 L0,2 Z " fill="#A36D63" transform="translate(6,6)"/>
<path d="M0,0 L1,0 L1,6 L3,7 L1,7 L2,11 L-1,11 Z " fill="#7A5C49" transform="translate(9,32)"/>
<path d="M0,0 L9,1 L8,3 L0,3 Z " fill="#A07C6F" transform="translate(11,17)"/>
<path d="M0,0 L3,0 L3,3 L5,4 L0,5 Z " fill="#A07F6A" transform="translate(12,40)"/>
<path d="M0,0 L3,0 L3,3 L-9,3 L-9,2 L0,2 Z " fill="#96746C" transform="translate(35,36)"/>
<path d="M0,0 L5,0 L5,2 L2,2 L2,6 L0,6 Z " fill="#A78376" transform="translate(21,33)"/>
<path d="M0,0 L1,0 L1,6 L4,6 L4,9 L0,9 Z " fill="#9C6D60" transform="translate(3,10)"/>
<path d="M0,0 L3,0 L3,6 L0,6 Z " fill="#AB786B" transform="translate(4,10)"/>
<path d="M0,0 L2,0 L3,7 L0,7 Z " fill="#BF9188" transform="translate(18,10)"/>
<path d="M0,0 L5,0 L4,4 L0,4 Z " fill="#A6887C" transform="translate(31,51)"/>
<path d="M0,0 L3,2 L0,6 L-6,6 L-6,5 L-1,5 L-2,2 L0,2 Z " fill="#856057" transform="translate(44,32)"/>
<path d="M0,0 L4,0 L4,3 L-1,4 Z " fill="#9F746C" transform="translate(28,17)"/>
<path d="M0,0 L7,0 L9,2 L5,5 L5,2 L0,1 Z " fill="#8D6051" transform="translate(38,17)"/>
<path d="M0,0 L4,0 L4,4 L0,4 Z " fill="#9B7356" transform="translate(13,63)"/>
<path d="M0,0 L4,1 L2,1 L2,4 L-3,4 L-3,2 L0,2 Z " fill="#98776C" transform="translate(26,33)"/>
<path d="M0,0 L6,1 L6,3 L-1,3 Z " fill="#987569" transform="translate(33,31)"/>
<path d="M0,0 L2,0 L3,3 L1,3 L0,6 L-2,1 Z " fill="#987B72" transform="translate(36,63)"/>
<path d="M0,0 L2,1 L0,5 L-3,3 Z " fill="#0A0806" transform="translate(18,29)"/>
<path d="M0,0 L4,0 L3,4 L2,2 L0,2 Z " fill="#AF877A" transform="translate(12,20)"/>
<path d="M0,0 L2,0 L0,4 L-2,4 Z " fill="#191210" transform="translate(46,34)"/>
<path d="M0,0 L2,0 L1,4 L-1,4 Z " fill="#A78176" transform="translate(34,34)"/>
<path d="M0,0 L4,1 L4,3 L0,2 Z " fill="#A37D6F" transform="translate(33,29)"/>
<path d="M0,0 L3,1 L3,3 L0,3 Z " fill="#A76B5C" transform="translate(38,7)"/>
<path d="M0,0 L2,0 L1,3 L-1,3 Z " fill="#AA756C" transform="translate(25,9)"/>
</svg>
