<?xml version="1.0" encoding="UTF-8"?>
<!-- Generator: visioncortex VTracer 0.6.4 -->
<svg version="1.1" xmlns="http://www.w3.org/2000/svg" width="64" height="68">
<path d="M0,0 L64,0 L64,68 L0,68 Z " fill="#010101" transform="translate(0,0)"/>
<path d="M0,0 L4,0 L4,4 L8,4 L8,2 L14,2 L14,0 L21,0 L21,3 L23,3 L23,0 L30,0 L30,8 L23,8 L23,10 L18,10 L18,12 L20,12 L20,16 L28,16 L28,22 L30,22 L30,28 L32,28 L32,34 L30,34 L30,40 L22,40 L22,42 L18,42 L18,46 L10,46 L10,38 L6,38 L6,36 L2,36 L2,38 L4,38 L4,44 L2,46 L-5,46 L-8,44 L-8,41 L-11,41 L-11,38 L-8,38 L-8,35 L-1,35 L0,22 L-4,22 L-4,4 Z " fill="#6F93B8" transform="translate(16,10)"/>
<path d="M0,0 L2,0 L3,8 L12,8 L12,13 L15,13 L15,19 L17,19 L17,25 L15,25 L15,31 L7,31 L7,33 L3,33 L3,37 L-5,37 L-5,29 L-9,29 L-9,26 L-13,26 L-13,17 L-10,16 L-9,21 L-6,20 L-6,3 Z " fill="#9BC1D8" transform="translate(31,19)"/>
<path d="M0,0 L6,0 L14,2 L14,13 L13,15 L6,15 L6,18 L3,18 L3,21 L6,22 L2,22 L2,16 L1,15 L-1,17 L-2,16 L-2,9 L0,9 Z " fill="#080C0F" transform="translate(2,30)"/>
<path d="M0,0 L4,0 L3,4 L3,1 L1,1 L0,12 L-2,12 L1,21 L1,35 L6,35 L2,36 L2,38 L4,38 L4,44 L2,46 L-5,46 L-8,44 L-8,41 L-11,41 L-11,38 L-8,38 L-8,35 L-1,35 L0,22 L-4,22 L-4,4 Z " fill="#4E7193" transform="translate(16,10)"/>
<path d="M0,0 L2,0 L2,3 L7,3 L7,1 L12,1 L8,2 L8,5 L3,4 L2,8 L0,8 L0,12 L5,12 L6,13 L8,9 L10,9 L11,6 L15,7 L13,10 L8,11 L9,28 L5,29 L4,24 L2,25 L1,34 L0,34 L-1,20 L-3,16 L-3,11 L-1,11 L-1,2 Z " fill="#6086B0" transform="translate(17,11)"/>
<path d="M0,0 L5,0 L8,3 L9,6 L9,19 L4,19 L4,16 L1,16 L1,14 L-4,13 L-4,7 L0,6 L3,7 L3,4 L0,3 Z " fill="#CBEDFD" transform="translate(31,28)"/>
<path d="M0,0 L2,0 L3,5 L5,5 L5,8 L9,8 L10,11 L12,12 L12,14 L8,14 L8,20 L14,20 L15,17 L15,21 L7,21 L7,13 L3,13 L3,10 L-1,10 L-1,1 Z " fill="#88A5BA" transform="translate(19,35)"/>
<path d="M0,0 L7,0 L7,3 L9,3 L9,0 L16,0 L16,8 L9,8 L9,10 L4,10 L6,9 L6,7 L4,7 L5,1 L0,1 Z " fill="#212B35" transform="translate(30,10)"/>
<path d="M0,0 L1,0 L1,6 L3,6 L3,12 L1,12 L1,18 L-7,18 L-7,20 L-11,19 L-8,19 L-8,17 L-1,16 L-1,13 L-4,12 L-4,5 L-1,5 Z " fill="#6D8190" transform="translate(45,32)"/>
<path d="M0,0 L4,1 L2,4 L-3,5 L-3,20 L-6,20 L-6,17 L-8,17 L-7,10 L-9,10 L-9,7 L-5,6 L-3,3 L-1,3 Z " fill="#647E92" transform="translate(28,17)"/>
<path d="M0,0 L5,0 L8,3 L9,6 L9,17 L8,17 L8,8 L0,9 L-3,8 L-3,13 L-4,13 L-4,7 L0,6 L3,7 L3,4 L0,3 Z " fill="#BEE1F6" transform="translate(31,28)"/>
<path d="M0,0 L7,0 L7,5 L9,5 L8,10 L5,10 L6,17 L8,18 L8,21 L6,21 L4,18 L3,7 L0,2 Z " fill="#A0BDD5" transform="translate(36,27)"/>
<path d="M0,0 L5,1 L5,5 L7,4 L14,4 L14,5 L9,5 L9,7 L6,8 L5,11 L-1,11 L-1,5 L3,5 L3,3 L0,2 Z " fill="#94A9C0" transform="translate(28,44)"/>
<path d="M0,0 L5,1 L4,8 L6,8 L6,11 L9,11 L9,6 L10,6 L10,13 L6,14 L5,9 L3,10 L2,19 L1,19 Z " fill="#6788A9" transform="translate(16,26)"/>
<path d="M0,0 L3,0 L3,11 L2,13 L-5,13 L-5,16 L-8,16 L-8,19 L-5,20 L-9,20 L-9,14 L-7,12 L1,12 Z " fill="#243D53" transform="translate(13,32)"/>
<path d="M0,0 L3,0 L2,6 L4,6 L4,8 L2,8 L2,11 L4,11 L4,15 L12,15 L12,21 L11,21 L11,16 L2,16 L1,8 L-1,7 Z " fill="#638098" transform="translate(32,11)"/>
<path d="M0,0 L2,3 L6,4 L6,6 L9,6 L9,9 L14,9 L15,7 L16,10 L7,11 L7,7 L2,6 L-2,5 L-1,1 Z " fill="#B3CFE6" transform="translate(26,38)"/>
<path d="M0,0 L5,0 L6,2 L6,8 L0,8 Z " fill="#738FA7" transform="translate(3,30)"/>
<path d="M0,0 L2,0 L2,6 L-2,7 L-3,9 L-5,9 L-6,5 L-5,2 Z " fill="#79A0BD" transform="translate(30,11)"/>
<path d="M0,0 L2,0 L5,3 L5,5 L1,5 L1,11 L7,11 L8,8 L8,12 L0,12 L0,4 L-4,3 L-1,2 Z " fill="#647183" transform="translate(26,44)"/>
<path d="M0,0 L2,0 L2,2 L4,2 L3,6 L-2,7 L-5,4 L-3,2 L0,2 Z " fill="#5F86AD" transform="translate(15,46)"/>
<path d="M0,0 L4,0 L3,4 L3,1 L1,1 L0,6 L-3,6 L-3,22 L-4,22 L-4,4 Z " fill="#384F63" transform="translate(16,10)"/>
<path d="M0,0 L12,1 L12,2 L6,2 L6,4 L0,4 L0,6 L-4,6 L-4,2 L5,3 L5,1 L0,1 Z " fill="#101417" transform="translate(24,8)"/>
<path d="M0,0 L1,0 L1,6 L-1,8 L-8,8 L-11,5 L-4,5 L-1,3 Z " fill="#2B4262" transform="translate(19,48)"/>
<path d="M0,0 L3,0 L3,6 L1,6 L3,15 L0,15 Z " fill="#516F96" transform="translate(13,16)"/>
<path d="M0,0 L4,0 L4,2 L8,2 L8,10 L7,10 L7,5 L4,5 L3,8 L2,3 L0,2 Z " fill="#101316" transform="translate(18,46)"/>
<path d="M0,0 L1,0 L2,10 L-3,10 L-3,7 L-6,7 L-6,5 L-8,4 L-5,3 L-5,6 L-1,6 Z " fill="#C9E8FC" transform="translate(38,37)"/>
<path d="M0,0 L1,0 L1,7 L5,8 L5,11 L3,11 L2,16 L1,16 L0,10 Z " fill="#92B3CA" transform="translate(25,22)"/>
<path d="M0,0 L6,0 L6,4 L8,4 L8,10 L4,9 L6,9 L6,7 L4,7 L5,1 L0,1 Z " fill="#49657A" transform="translate(30,10)"/>
<path d="M0,0 L5,1 L5,6 L0,6 Z " fill="#556D84" transform="translate(41,11)"/>
<path d="M0,0 L2,0 L2,3 L7,3 L7,1 L12,1 L8,2 L8,5 L-1,5 Z " fill="#607F96" transform="translate(17,11)"/>
<path d="M0,0 L7,0 L7,5 L9,5 L8,10 L6,10 L6,2 L0,1 Z " fill="#8BA9C3" transform="translate(36,27)"/>
<path d="M0,0 L2,0 L2,10 L0,10 L0,8 L-2,8 L-2,4 L0,4 Z " fill="#11161A" transform="translate(22,26)"/>
<path d="M0,0 L3,0 L3,2 L5,2 L5,5 L9,6 L5,7 L0,3 Z " fill="#9BBBCF" transform="translate(19,38)"/>
<path d="M0,0 L7,1 L7,6 L5,6 L5,3 L0,3 Z " fill="#CFF1FE" transform="translate(29,36)"/>
<path d="M0,0 L5,0 L6,4 L1,4 Z " fill="#BFE6F8" transform="translate(31,28)"/>
<path d="M0,0 L2,0 L3,7 L1,7 L1,4 L-4,3 Z " fill="#8BB2C9" transform="translate(31,19)"/>
<path d="M0,0 L2,0 L2,2 L5,2 L4,6 L4,4 L2,4 L1,6 L0,5 Z " fill="#5E7CA5" transform="translate(14,22)"/>
<path d="M0,0 L1,0 L1,7 L-3,8 L-4,4 L0,5 Z " fill="#7A96A6" transform="translate(25,32)"/>
<path d="M0,0 L4,4 L4,7 L-2,6 L0,5 Z " fill="#A8CDE1" transform="translate(30,28)"/>
<path d="M0,0 L4,1 L4,4 L-1,4 Z " fill="#B4C5E1" transform="translate(28,51)"/>
<path d="M0,0 L2,0 L5,3 L5,5 L1,5 L1,3 L-1,2 Z " fill="#76899B" transform="translate(26,44)"/>
<path d="M0,0 L4,0 L4,4 L0,4 Z " fill="#0D1113" transform="translate(20,10)"/>
<path d="M0,0 L2,3 L2,5 L-2,5 L-1,1 Z " fill="#A6C7DD" transform="translate(26,38)"/>
<path d="M0,0 L2,1 L2,4 L-3,5 L-3,2 L0,2 Z " fill="#B9DEF6" transform="translate(37,30)"/>
<path d="M0,0 L4,0 L4,2 L2,2 L2,4 L-1,4 Z " fill="#A9D2EC" transform="translate(27,24)"/>
<path d="M0,0 L5,1 L3,2 L2,6 L2,3 L0,3 Z " fill="#546E8A" transform="translate(19,24)"/>
<path d="M0,0 L5,0 L5,3 L0,2 Z " fill="#8BB6D0" transform="translate(26,13)"/>
<path d="M0,0 L3,1 L2,5 L0,4 Z " fill="#010406" transform="translate(11,32)"/>
<path d="M0,0 L3,2 L3,5 L0,5 Z " fill="#54749C" transform="translate(13,26)"/>
<path d="M0,0 L3,0 L3,5 L1,5 Z " fill="#6B8A9C" transform="translate(33,22)"/>
<path d="M0,0 L4,0 L4,2 L2,2 L1,5 L1,2 L-1,1 Z " fill="#6E96B1" transform="translate(32,17)"/>
<path d="M0,0 L4,0 L4,3 L0,3 Z " fill="#698DAA" transform="translate(41,13)"/>
<path d="M0,0 L2,1 L3,3 L2,5 L-1,4 Z " fill="#688CB0" transform="translate(20,15)"/>
<path d="M0,0 L2,0 L2,3 L0,3 L-1,5 Z " fill="#8DB0C8" transform="translate(19,35)"/>
<path d="M0,0 L4,1 L3,3 L0,3 Z " fill="#425969" transform="translate(28,17)"/>
<path d="M0,0 L3,0 L3,3 L0,3 Z " fill="#92AABD" transform="translate(44,40)"/>
<path d="M0,0 L2,0 L1,4 L-1,4 Z " fill="#97B3C9" transform="translate(43,33)"/>
<path d="M0,0 L2,0 L2,3 L-1,3 Z " fill="#6184A7" transform="translate(17,48)"/>
<path d="M0,0 L3,1 L3,3 L0,3 Z " fill="#8CADC0" transform="translate(27,29)"/>
</svg>
