<?xml version="1.0" encoding="UTF-8"?>
<!-- Generator: visioncortex VTracer 0.6.4 -->
<svg version="1.1" xmlns="http://www.w3.org/2000/svg" width="122" height="110">
<path d="M0,0 L122,0 L122,110 L0,110 Z " fill="#000001" transform="translate(0,0)"/>
<path d="M0,0 L8,0 L8,2 L26,2 L26,4 L44,4 L44,12 L56,12 L56,8 L60,8 L60,4 L72,4 L72,8 L76,8 L76,14 L72,14 L72,36 L74,36 L74,44 L76,44 L76,52 L72,52 L72,54 L68,54 L68,60 L62,60 L62,54 L66,54 L66,50 L62,50 L62,44 L60,44 L60,32 L56,32 L56,30 L54,30 L54,32 L46,32 L46,34 L36,34 L36,28 L32,28 L32,26 L28,26 L28,24 L10,24 L10,28 L6,28 L6,30 L3,32 L2,36 L-4,36 L-4,32 L-8,32 L-8,28 L-12,28 L-12,16 L-8,16 L-8,12 L-4,12 L-4,4 L0,4 Z " fill="#476C9B" transform="translate(32,4)"/>
<path d="M0,0 L43,0 L46,4 L49,5 L61,5 L67,4 L68,9 L72,9 L72,16 L63,15 L63,13 L34,13 L34,11 L31,11 L32,4 L14,6 L16,8 L9,9 L8,11 L11,11 L11,13 L5,13 L2,16 L-1,15 L-2,12 L-6,11 L-5,7 L-4,5 L-2,5 L-1,1 Z " fill="#496CAE" transform="translate(30,18)"/>
<path d="M0,0 L7,0 L8,1 L8,21 L11,21 L11,29 L13,29 L13,37 L9,37 L9,39 L5,39 L5,45 L-1,45 L-1,39 L3,39 L3,35 L-1,35 L-1,29 L-3,29 L-3,17 L-7,17 L-7,15 L-9,15 L-9,17 L-17,17 L-17,19 L-27,19 L-27,13 L-31,12 L-28,11 L-5,11 L-2,12 L-2,14 L7,15 L7,8 L3,8 L2,3 L-4,5 L-16,5 L-20,3 L-20,1 Z " fill="#48709C" transform="translate(95,19)"/>
<path d="M0,0 L8,0 L8,2 L26,2 L26,4 L44,4 L44,12 L56,12 L56,8 L60,8 L60,4 L72,4 L72,8 L76,8 L76,14 L72,14 L72,36 L71,36 L70,16 L43,16 L42,12 L43,5 L41,5 L41,11 L34,10 L34,7 L8,6 L2,3 L1,5 L4,5 L4,9 L-2,13 L-7,13 L-8,16 L-8,12 L-4,12 L-4,4 L0,4 Z " fill="#223D69" transform="translate(32,4)"/>
<path d="M0,0 L7,3 L37,4 L33,5 L33,8 L39,8 L40,3 L42,3 L42,14 L33,12 L7,11 L5,10 L6,4 L4,4 L3,6 L3,3 L0,3 Z " fill="#395794" transform="translate(33,6)"/>
<path d="M0,0 L6,0 L6,4 L10,4 L10,16 L6,16 L6,20 L-2,20 L-2,18 L-4,18 L-4,14 L-6,14 L-6,4 L-2,4 L-2,2 L0,2 Z " fill="#316584" transform="translate(94,76)"/>
<path d="M0,0 L18,1 L22,3 L19,5 L14,6 L16,8 L9,9 L8,11 L11,11 L11,13 L5,13 L2,16 L-1,15 L-2,12 L-6,11 L-5,7 L-4,5 L-2,5 L-1,1 Z " fill="#4C71A2" transform="translate(30,18)"/>
<path d="M0,0 L6,0 L6,2 L8,2 L8,28 L0,28 Z " fill="#3F5F7B" transform="translate(12,36)"/>
<path d="M0,0 L6,0 L6,2 L12,2 L13,3 L28,4 L32,3 L32,5 L36,5 L36,12 L27,11 L27,9 L4,8 L3,4 L0,4 Z " fill="#4D76AB" transform="translate(66,22)"/>
<path d="M0,0 L12,0 L12,4 L16,4 L16,10 L12,10 L12,32 L11,32 L10,12 L-2,12 L-3,5 L0,5 Z " fill="#244590" transform="translate(92,8)"/>
<path d="M0,0 L2,0 L1,6 L29,7 L29,8 L-7,9 L-9,13 L-11,13 L-13,19 L-8,20 L-7,24 L-12,25 L-11,20 L-15,20 L-15,14 L-15,13 L-15,11 L-13,10 L-12,7 L-5,5 Z " fill="#44619F" transform="translate(37,10)"/>
<path d="M0,0 L8,0 L8,3 L20,3 L23,4 L23,6 L8,6 L2,3 L1,5 L4,5 L4,9 L-2,13 L-7,13 L-8,16 L-8,12 L-4,12 L-4,4 L0,4 Z " fill="#315183" transform="translate(32,4)"/>
<path d="M0,0 L14,0 L14,8 L0,8 Z " fill="#2F5D75" transform="translate(72,64)"/>
<path d="M0,0 L7,0 L8,1 L8,7 L2,5 L2,3 L-4,5 L-16,5 L-20,3 L-20,1 Z " fill="#3A5A98" transform="translate(95,19)"/>
<path d="M0,0 L4,1 L2,1 L2,3 L4,3 L2,10 L6,10 L5,15 L13,12 L15,10 L21,11 L22,8 L22,12 L18,12 L18,14 L15,16 L14,20 L8,20 L8,16 L4,16 L4,12 L0,12 Z " fill="#3F6686" transform="translate(20,20)"/>
<path d="M0,0 L16,5 L16,6 L-17,5 L-19,4 L-19,2 L0,2 Z " fill="#3C5A99" transform="translate(57,12)"/>
<path d="M0,0 L12,0 L12,4 L16,4 L16,10 L12,10 L12,32 L11,32 L10,12 L9,4 L6,3 L6,1 L1,1 L0,4 Z " fill="#273D60" transform="translate(92,8)"/>
<path d="M0,0 L4,0 L4,4 L8,4 L10,8 L12,7 L13,13 L9,13 L9,15 L5,16 L6,10 L4,10 L4,8 L2,8 L1,5 L-1,5 Z " fill="#4878A1" transform="translate(94,42)"/>
<path d="M0,0 L3,0 L4,2 L6,2 L6,4 L18,5 L18,3 L11,3 L12,1 L23,2 L22,5 L25,6 L21,6 L21,4 L19,4 L19,6 L11,6 L11,8 L1,8 L1,2 L-3,1 Z " fill="#3D668A" transform="translate(67,30)"/>
<path d="M0,0 L1,0 L1,11 L4,10 L4,14 L6,14 L6,16 L8,16 L8,28 L2,28 L2,22 L6,22 L6,18 L2,18 L2,12 L0,12 Z " fill="#345B78" transform="translate(92,36)"/>
<path d="M0,0 L20,0 L23,1 L24,4 L19,5 L18,3 L15,3 L15,5 L8,5 L3,4 L3,2 L1,2 L0,4 Z " fill="#45719B" transform="translate(70,30)"/>
<path d="M0,0 L2,0 L2,11 L0,10 L0,8 L-11,6 L-16,3 L-17,1 L-3,1 L-7,2 L-7,5 L-1,5 Z " fill="#2E4F8C" transform="translate(73,9)"/>
<path d="M0,0 L6,0 L6,4 L10,4 L10,16 L6,15 L9,15 L9,6 L7,6 L6,10 L0,10 L1,4 L-2,4 L-2,2 L0,2 Z " fill="#275468" transform="translate(94,76)"/>
<path d="M0,0 L5,2 L5,7 L3,7 L3,9 L5,9 L5,13 L2,13 L2,18 L0,18 Z " fill="#587D9F" transform="translate(13,45)"/>
<path d="M0,0 L4,1 L1,1 L1,9 L3,9 L3,3 L4,3 L4,9 L10,9 L10,13 L6,14 L11,15 L12,12 L12,16 L4,16 L4,14 L2,14 L2,10 L0,10 Z " fill="#23506B" transform="translate(88,80)"/>
<path d="M0,0 L5,3 L17,3 L23,2 L24,5 L20,7 L5,6 L-2,4 L-2,2 L0,2 Z " fill="#4364A7" transform="translate(74,20)"/>
<path d="M0,0 L4,0 L4,4 L8,4 L7,8 L2,7 L1,32 L0,32 L0,6 L-2,5 L0,3 L3,3 L3,1 Z " fill="#090F14" transform="translate(20,32)"/>
<path d="M0,0 L4,1 L4,7 L3,9 L-5,8 L-4,4 Z " fill="#4D78A3" transform="translate(29,21)"/>
<path d="M0,0 L13,0 L13,1 L8,2 L10,4 L3,5 L2,7 L5,7 L5,9 L0,8 L0,6 L-2,6 Z " fill="#48749D" transform="translate(36,22)"/>
<path d="M0,0 L5,0 L6,5 L4,5 L4,7 L7,8 L3,8 L3,6 L-15,6 L-15,5 L3,5 L3,3 L-3,3 L-3,1 Z " fill="#3B5B80" transform="translate(57,22)"/>
<path d="M0,0 L2,0 L2,9 L-1,10 L-2,13 L-8,13 L-7,11 L-3,11 L-3,4 L-1,4 Z " fill="#2E677E" transform="translate(101,82)"/>
<path d="M0,0 L8,1 L9,4 L12,4 L12,6 L1,6 Z " fill="#4E78B1" transform="translate(70,23)"/>
<path d="M0,0 L14,0 L18,2 L16,3 L0,3 Z " fill="#5074B6" transform="translate(34,19)"/>
<path d="M0,0 L6,1 L5,4 L9,4 L10,1 L10,6 L7,6 L7,8 L3,8 L2,11 L1,2 Z " fill="#426C96" transform="translate(91,34)"/>
<path d="M0,0 L4,0 L4,4 L7,4 L8,8 L2,9 L2,7 L-1,7 Z " fill="#476C99" transform="translate(62,22)"/>
<path d="M0,0 L9,3 L9,4 L-15,4 L-14,2 L0,2 Z " fill="#375599" transform="translate(57,12)"/>
<path d="M0,0 L3,0 L3,5 L-9,5 L-9,1 L-1,1 Z " fill="#4E70B3" transform="translate(95,25)"/>
<path d="M0,0 L6,1 L4,2 L2,8 L7,9 L8,13 L3,14 L4,9 L0,9 L0,3 L0,2 Z " fill="#466D99" transform="translate(22,21)"/>
<path d="M0,0 L4,1 L2,1 L2,3 L4,3 L2,10 L6,10 L5,15 L8,16 L4,16 L4,12 L0,12 Z " fill="#385478" transform="translate(20,20)"/>
<path d="M0,0 L1,0 L1,8 L3,8 L3,16 L-1,16 L-1,18 L-5,17 L-2,17 L-2,15 L-4,14 L2,15 L0,10 L-2,11 L-3,8 L-2,6 L0,6 Z " fill="#3B5D76" transform="translate(105,40)"/>
<path d="M0,0 L5,0 L5,2 L9,3 L9,5 L-4,5 L-1,3 Z " fill="#2F457E" transform="translate(93,9)"/>
<path d="M0,0 L4,1 L4,3 L7,4 L1,8 L-4,8 L-5,11 L-5,7 L0,7 Z " fill="#324F78" transform="translate(29,9)"/>
<path d="M0,0 L1,4 L9,4 L9,8 L1,8 L0,7 Z " fill="#020408" transform="translate(79,8)"/>
<path d="M0,0 L3,0 L5,3 L5,6 L1,6 L1,8 L-3,9 L-2,3 L0,3 Z " fill="#4D7898" transform="translate(102,49)"/>
<path d="M0,0 L3,0 L3,6 L1,6 L0,8 L0,6 L-4,6 L-4,2 L0,2 Z " fill="#467293" transform="translate(102,40)"/>
<path d="M0,0 L4,1 L1,1 L3,4 L3,7 L-11,6 L-10,4 L0,4 Z " fill="#213660" transform="translate(88,12)"/>
<path d="M0,0 L8,0 L7,2 L1,1 L1,5 L4,5 L4,8 L1,8 L0,6 L-3,5 L-3,12 L-4,12 L-4,4 L0,4 Z " fill="#233855" transform="translate(32,4)"/>
<path d="M0,0 L1,0 L1,14 L-3,14 L-3,9 L0,9 L0,5 L-2,5 L-2,3 L0,3 Z " fill="#507598" transform="translate(18,49)"/>
<path d="M0,0 L4,1 L1,1 L1,9 L3,9 L3,3 L4,3 L4,9 L6,10 L5,13 L3,13 L3,10 L0,10 Z " fill="#2A546F" transform="translate(88,80)"/>
<path d="M0,0 L14,0 L14,3 L1,2 Z " fill="#36538D" transform="translate(76,20)"/>
<path d="M0,0 L11,0 L11,1 L6,2 L8,4 L0,4 Z " fill="#4B72A6" transform="translate(38,22)"/>
<path d="M0,0 L2,0 L2,11 L0,10 L0,8 L-3,8 L-3,6 L-5,5 L-1,5 Z " fill="#2D5082" transform="translate(73,9)"/>
<path d="M0,0 L1,2 L3,2 L1,6 L-3,8 L-4,4 L-1,4 Z " fill="#4C78A0" transform="translate(33,26)"/>
<path d="M0,0 L2,0 L1,6 L-7,7 L-3,3 Z " fill="#415F95" transform="translate(37,10)"/>
<path d="M0,0 L1,4 L-1,8 L-7,8 L-6,6 L-2,6 L-2,1 Z " fill="#285D7A" transform="translate(100,87)"/>
<path d="M0,0 L3,0 L2,7 L11,7 L11,8 L1,8 L1,2 L-3,1 Z " fill="#325370" transform="translate(67,30)"/>
<path d="M0,0 L12,0 L8,1 L7,4 L0,1 Z " fill="#254A85" transform="translate(58,10)"/>
<path d="M0,0 L1,0 L1,5 L-2,5 L-2,7 L-6,7 L-7,10 L-7,6 L-4,6 L-4,3 L0,3 Z " fill="#447296" transform="translate(100,35)"/>
<path d="M0,0 L6,0 L5,4 L0,4 Z " fill="#517DB4" transform="translate(71,25)"/>
<path d="M0,0 L7,3 L9,4 L9,6 L6,6 L6,4 L4,4 L3,6 L3,3 L0,3 Z " fill="#385686" transform="translate(33,6)"/>
<path d="M0,0 L6,4 L12,5 L12,6 L5,6 L-2,4 L-2,2 L0,2 Z " fill="#466BA4" transform="translate(74,20)"/>
<path d="M0,0 L7,0 L7,2 L3,3 L-5,2 L-5,1 Z " fill="#304F9A" transform="translate(95,19)"/>
<path d="M0,0 L5,0 L3,5 L-1,4 Z " fill="#3E638F" transform="translate(25,17)"/>
<path d="M0,0 L9,0 L9,2 L0,3 Z " fill="#3D5B98" transform="translate(43,11)"/>
<path d="M0,0 L14,0 L14,1 L6,1 L6,3 L3,3 L3,1 Z " fill="#4674A0" transform="translate(71,30)"/>
<path d="M0,0 L4,1 L-2,6 L-4,8 L-3,3 L0,2 Z " fill="#0B1318" transform="translate(38,32)"/>
<path d="M0,0 L5,0 L5,2 L7,2 L7,4 L2,4 Z " fill="#244387" transform="translate(89,14)"/>
<path d="M0,0 L5,0 L6,1 L13,2 L13,3 L3,3 L3,1 Z " fill="#25487D" transform="translate(52,7)"/>
<path d="M0,0 L4,0 L5,4 L0,5 Z " fill="#48729C" transform="translate(65,26)"/>
<path d="M0,0 L6,0 L9,3 L1,2 Z " fill="#2F4B79" transform="translate(33,5)"/>
<path d="M0,0 L3,1 L3,5 L-1,4 Z " fill="#517BAD" transform="translate(30,21)"/>
<path d="M0,0 L3,1 L2,6 L1,3 L-2,2 Z " fill="#30627D" transform="translate(93,79)"/>
<path d="M0,0 L3,1 L3,4 L-1,5 Z " fill="#447498" transform="translate(100,53)"/>
<path d="M0,0 L4,0 L4,3 L0,3 Z " fill="#2B487C" transform="translate(66,11)"/>
<path d="M0,0 L5,2 L3,4 L0,4 Z " fill="#2B5E72" transform="translate(98,79)"/>
<path d="M0,0 L3,0 L2,4 L0,4 Z " fill="#41769D" transform="translate(95,59)"/>
<path d="M0,0 L2,0 L1,5 L-1,5 Z " fill="#45759E" transform="translate(94,42)"/>
<path d="M0,0 L2,0 L2,4 L-1,4 Z " fill="#496E9E" transform="translate(36,22)"/>
<path d="M0,0 L5,0 L4,3 L0,2 Z " fill="#243F77" transform="translate(98,9)"/>
<path d="M0,0 L4,1 L3,3 L0,3 Z " fill="#4C71B0" transform="translate(98,27)"/>
<path d="M0,0 L3,0 L2,3 L-1,3 Z " fill="#476D94" transform="translate(39,26)"/>
<path d="M0,0 L3,0 L2,4 L0,4 Z " fill="#4E7CA6" transform="translate(30,26)"/>
<path d="M0,0 L2,0 L1,5 L-1,2 Z " fill="#3F5E90" transform="translate(37,10)"/>
<path d="M0,0 L3,0 L2,4 L0,3 Z " fill="#294776" transform="translate(70,11)"/>
<path d="M0,0 L4,1 L3,4 L0,2 Z " fill="#3A5B8C" transform="translate(29,9)"/>
<path d="M0,0 L3,0 L3,3 L0,3 Z " fill="#416E91" transform="translate(93,38)"/>
<path d="M0,0 L3,0 L3,3 L0,3 Z " fill="#4D75BA" transform="translate(95,27)"/>
</svg>
