<?xml version="1.0" encoding="UTF-8"?>
<!-- Generator: visioncortex VTracer 0.6.4 -->
<svg version="1.1" xmlns="http://www.w3.org/2000/svg" width="102" height="90">
<path d="M0,0 L102,0 L102,90 L0,90 Z " fill="#010101" transform="translate(0,0)"/>
<path d="M0,0 L8,0 L8,2 L18,2 L18,4 L28,4 L28,2 L58,2 L58,6 L60,6 L60,8 L64,8 L64,10 L70,10 L72,14 L82,14 L82,18 L84,18 L84,22 L86,22 L86,50 L72,50 L72,46 L66,46 L66,32 L64,32 L64,28 L60,28 L60,26 L56,26 L56,28 L48,28 L48,26 L42,26 L38,22 L38,16 L34,16 L34,18 L28,18 L28,14 L26,14 L26,12 L18,12 L18,18 L16,18 L16,24 L14,24 L14,38 L12,38 L12,50 L6,50 L6,26 L2,26 L2,8 L0,8 Z " fill="#5A82A0" transform="translate(6,4)"/>
<path d="M0,0 L8,0 L8,2 L18,2 L18,4 L28,4 L28,2 L58,2 L58,6 L60,6 L60,8 L64,8 L64,10 L70,10 L72,14 L63,14 L54,11 L54,8 L52,8 L52,6 L43,6 L43,4 L37,4 L37,6 L30,10 L29,17 L34,17 L34,18 L28,18 L28,14 L26,14 L26,12 L18,12 L18,18 L16,18 L16,24 L14,24 L14,38 L12,38 L12,50 L6,50 L6,26 L2,26 L2,8 L0,8 Z " fill="#476989" transform="translate(6,4)"/>
<path d="M0,0 L6,0 L5,7 L17,8 L29,8 L32,10 L33,14 L30,14 L29,28 L31,28 L31,24 L34,24 L34,19 L41,19 L43,22 L46,23 L47,16 L44,16 L44,11 L39,10 L38,8 L40,3 L43,3 L43,1 L34,1 L34,0 L44,0 L44,4 L46,4 L46,8 L48,8 L48,36 L34,36 L34,32 L28,32 L28,18 L26,18 L26,14 L22,14 L22,12 L18,12 L18,14 L10,14 L10,12 L4,12 L0,8 L0,2 L-4,1 Z " fill="#56809F" transform="translate(44,18)"/>
<path d="M0,0 L6,0 L6,2 L14,2 L14,4 L18,4 L18,12 L16,12 L16,16 L0,16 Z " fill="#49738D" transform="translate(44,54)"/>
<path d="M0,0 L7,0 L7,2 L4,2 L3,8 L8,10 L8,15 L11,15 L11,25 L10,22 L6,21 L5,19 L-2,18 L-2,23 L-5,23 L-5,27 L-7,27 L-7,17 L-6,13 L-2,11 L-1,2 Z " fill="#56839F" transform="translate(80,19)"/>
<path d="M0,0 L6,0 L5,7 L17,8 L29,8 L32,10 L33,14 L30,14 L29,31 L34,31 L34,32 L28,32 L28,18 L26,18 L26,14 L22,14 L22,12 L18,12 L18,14 L10,14 L10,12 L4,12 L0,8 L0,2 L-4,1 Z " fill="#587E9E" transform="translate(44,18)"/>
<path d="M0,0 L11,0 L12,3 L11,4 L13,5 L13,12 L11,12 L11,17 L9,17 L7,20 L6,18 L3,17 L3,19 L-1,19 L-1,10 Z " fill="#5B81A2" transform="translate(10,10)"/>
<path d="M0,0 L21,0 L21,3 L24,3 L24,5 L28,5 L28,7 L34,7 L36,11 L27,11 L18,8 L18,5 L16,5 L16,3 L7,3 L7,1 L1,1 L1,3 L-6,7 L-7,14 L-2,14 L-2,15 L-8,15 L-8,11 L-10,11 L-10,8 L-18,8 L-18,7 L-13,6 L-13,4 L-16,3 L-4,3 L-4,1 Z " fill="#4A718F" transform="translate(42,7)"/>
<path d="M0,0 L1,0 L1,6 L-1,6 L-1,20 L-3,20 L-3,32 L-9,32 L-9,7 L-8,5 L-4,6 L-2,4 L0,5 Z " fill="#466C84" transform="translate(21,22)"/>
<path d="M0,0 L13,0 L11,11 L9,11 L6,8 L-9,7 L-12,4 L-11,1 Z " fill="#618EAE" transform="translate(67,19)"/>
<path d="M0,0 L10,0 L10,4 L12,4 L12,8 L14,8 L14,36 L0,36 L1,32 L1,35 L13,35 L13,16 L10,16 L10,11 L5,10 L4,8 L6,3 L9,3 L9,1 L0,1 Z " fill="#3B6272" transform="translate(78,18)"/>
<path d="M0,0 L8,0 L8,2 L18,2 L18,4 L28,4 L28,2 L58,2 L57,6 L57,3 L32,4 L32,6 L16,6 L16,3 L3,3 L1,2 L2,8 L0,8 Z " fill="#325066" transform="translate(6,4)"/>
<path d="M0,0 L6,0 L6,1 L1,1 L1,14 L5,12 L12,13 L14,4 L18,4 L18,12 L16,12 L16,16 L0,16 Z " fill="#3B5C6E" transform="translate(44,54)"/>
<path d="M0,0 L13,0 L13,3 L16,3 L16,5 L20,5 L20,7 L26,7 L28,11 L19,11 L10,8 L10,5 L8,5 L8,3 L10,3 L10,1 L0,1 Z " fill="#4C7492" transform="translate(50,7)"/>
<path d="M0,0 L11,0 L12,3 L4,1 L6,13 L4,13 L5,17 L3,17 L3,19 L-1,19 L-1,10 Z " fill="#547B98" transform="translate(10,10)"/>
<path d="M0,0 L2,0 L2,2 L7,1 L22,1 L20,2 L20,4 L27,4 L27,2 L29,2 L30,5 L27,5 L26,22 L31,22 L31,23 L25,23 L25,9 L23,9 L23,5 L19,5 L19,3 L15,3 L15,5 L7,5 L7,3 L1,3 Z " fill="#4A6B86" transform="translate(47,27)"/>
<path d="M0,0 L7,0 L9,3 L12,4 L11,8 L0,8 L0,10 L-5,10 L-3,9 L-3,5 L0,5 Z " fill="#517D9A" transform="translate(78,37)"/>
<path d="M0,0 L7,0 L10,1 L11,4 L4,5 L4,9 L12,9 L9,11 L-1,10 L-4,7 L-3,4 L-1,4 Z " fill="#6088AA" transform="translate(52,16)"/>
<path d="M0,0 L14,0 L14,6 L0,6 Z " fill="#496A85" transform="translate(56,48)"/>
<path d="M0,0 L13,0 L12,7 L0,6 L-1,3 Z " fill="#6695B2" transform="translate(67,19)"/>
<path d="M0,0 L7,0 L7,2 L4,2 L3,8 L8,10 L8,14 L3,15 L2,12 L-1,12 L-1,2 Z " fill="#508097" transform="translate(80,19)"/>
<path d="M0,0 L4,0 L4,2 L8,2 L8,6 L10,6 L10,20 L8,24 L9,7 L7,7 L8,15 L-6,15 L-6,14 L6,14 L6,5 L7,3 L1,4 Z " fill="#090D10" transform="translate(62,30)"/>
<path d="M0,0 L6,0 L6,2 L15,2 L15,4 L17,4 L17,7 L6,7 L5,3 L0,2 Z " fill="#557C9C" transform="translate(43,8)"/>
<path d="M0,0 L8,0 L6,10 L2,10 L1,5 L-2,5 L-3,8 L-3,4 L0,2 Z " fill="#4A7590" transform="translate(50,57)"/>
<path d="M0,0 L8,0 L8,2 L10,2 L10,6 L1,4 L2,6 L2,12 L1,12 L1,7 L-1,7 L-1,12 L-2,12 L-2,6 L0,6 Z " fill="#080C0F" transform="translate(24,16)"/>
<path d="M0,0 L7,0 L8,4 L2,6 L-5,6 L-5,3 Z " fill="#5C85A5" transform="translate(41,10)"/>
<path d="M0,0 L6,0 L6,6 L4,6 L4,8 L-2,8 L-2,2 L0,2 Z " fill="#375B6A" transform="translate(78,74)"/>
<path d="M0,0 L7,1 L3,2 L3,14 L2,23 L5,24 L1,24 Z " fill="#416577" transform="translate(7,6)"/>
<path d="M0,0 L11,0 L10,5 L9,3 L-5,4 L-5,2 L0,2 Z " fill="#5680A1" transform="translate(78,45)"/>
<path d="M0,0 L1,4 L3,4 L4,0 L4,6 L18,6 L18,7 L-2,8 Z " fill="#0B1014" transform="translate(52,48)"/>
<path d="M0,0 L2,0 L2,11 L1,14 L-2,14 L-2,5 Z " fill="#5A839D" transform="translate(11,15)"/>
<path d="M0,0 L13,0 L13,3 L16,3 L16,5 L20,5 L19,7 L11,7 L10,1 L0,1 Z " fill="#3F6886" transform="translate(50,7)"/>
<path d="M0,0 L8,0 L11,3 L9,3 L9,5 L2,5 L1,3 L-3,3 L-3,1 Z " fill="#5881A0" transform="translate(65,26)"/>
<path d="M0,0 L9,0 L10,2 L4,3 L4,5 L-1,5 Z " fill="#577D9A" transform="translate(36,16)"/>
<path d="M0,0 L6,0 L6,6 L0,6 Z " fill="#344F5F" transform="translate(12,76)"/>
<path d="M0,0 L11,0 L10,4 L0,3 Z " fill="#70A0C4" transform="translate(68,20)"/>
<path d="M0,0 L10,0 L11,7 L10,9 L13,9 L12,12 L12,10 L8,10 L8,3 L9,1 L0,1 Z " fill="#426B79" transform="translate(78,18)"/>
<path d="M0,0 L9,1 L9,2 L1,2 L1,4 L7,4 L7,5 L-2,6 L-2,2 L0,2 Z " fill="#41667D" transform="translate(49,55)"/>
<path d="M0,0 L7,0 L7,2 L2,2 L1,7 L-1,7 Z " fill="#578E9D" transform="translate(80,19)"/>
<path d="M0,0 L6,1 L6,3 L3,5 L2,10 L1,10 Z " fill="#54789E" transform="translate(14,11)"/>
<path d="M0,0 L11,0 L12,3 L4,1 L4,4 L0,4 Z " fill="#4D7294" transform="translate(10,10)"/>
<path d="M0,0 L1,2 L3,2 L2,10 L-2,6 L-2,3 L0,3 Z " fill="#55809C" transform="translate(16,20)"/>
<path d="M0,0 L7,0 L8,3 L0,4 Z " fill="#6692B5" transform="translate(56,20)"/>
<path d="M0,0 L4,0 L4,8 L0,8 L0,3 L3,3 L3,1 Z " fill="#3D6076" transform="translate(58,58)"/>
<path d="M0,0 L3,0 L3,4 L-4,4 L-4,1 Z " fill="#577E9F" transform="translate(66,49)"/>
<path d="M0,0 L1,2 L4,3 L3,7 L5,8 L1,8 L1,6 L-1,6 Z " fill="#6087A9" transform="translate(51,17)"/>
<path d="M0,0 L4,1 L4,4 L11,4 L11,5 L1,5 Z " fill="#557B98" transform="translate(78,48)"/>
<path d="M0,0 L6,0 L6,2 L1,2 L2,8 L0,8 L0,2 L-4,1 Z " fill="#496882" transform="translate(44,18)"/>
<path d="M0,0 L3,0 L3,3 L-1,5 L-5,6 L-3,5 L-3,1 Z " fill="#527997" transform="translate(78,41)"/>
<path d="M0,0 L3,1 L3,8 L0,8 Z " fill="#587B9C" transform="translate(20,14)"/>
<path d="M0,0 L4,0 L4,2 L8,2 L7,6 L7,3 L1,4 Z " fill="#0C1217" transform="translate(62,30)"/>
<path d="M0,0 L4,1 L4,3 L8,3 L7,5 L2,5 L2,3 L0,3 Z " fill="#305574" transform="translate(62,9)"/>
<path d="M0,0 L4,0 L4,4 L0,4 Z " fill="#4B758E" transform="translate(13,77)"/>
<path d="M0,0 L2,0 L3,6 L0,6 Z " fill="#47778F" transform="translate(88,28)"/>
<path d="M0,0 L4,1 L4,4 L0,5 Z " fill="#587E9F" transform="translate(45,20)"/>
<path d="M0,0 L6,0 L8,4 L3,3 L3,1 Z " fill="#355A69" transform="translate(70,14)"/>
<path d="M0,0 L4,1 L7,3 L0,3 L-2,1 Z " fill="#3F6988" transform="translate(66,13)"/>
<path d="M0,0 L1,0 L1,5 L-4,5 L-4,2 L0,3 Z " fill="#669BB4" transform="translate(78,21)"/>
<path d="M0,0 L3,0 L3,3 L-6,2 L-6,1 Z " fill="#070B0D" transform="translate(40,21)"/>
<path d="M0,0 L5,0 L4,4 L0,3 Z " fill="#6EA8B9" transform="translate(74,20)"/>
<path d="M0,0 L5,2 L2,4 L-1,3 Z " fill="#527695" transform="translate(47,24)"/>
<path d="M0,0 L2,0 L1,3 L-5,4 Z " fill="#577F9F" transform="translate(41,10)"/>
<path d="M0,0 L2,0 L2,2 L5,3 L-2,3 L-2,1 Z " fill="#567F9D" transform="translate(69,28)"/>
<path d="M0,0 L4,0 L4,4 L2,4 L2,2 L0,2 Z " fill="#49798C" transform="translate(79,75)"/>
<path d="M0,0 L3,0 L3,4 L0,4 Z " fill="#5D8DAD" transform="translate(87,35)"/>
<path d="M0,0 L5,1 L6,3 L2,4 L2,1 Z " fill="#5C86A4" transform="translate(70,26)"/>
<path d="M0,0 L1,3 L3,3 L3,5 L-1,5 Z " fill="#59819F" transform="translate(36,16)"/>
<path d="M0,0 L4,1 L4,3 L0,2 Z " fill="#5A85A6" transform="translate(79,45)"/>
<path d="M0,0 L4,1 L3,3 L0,3 Z " fill="#6C9CC0" transform="translate(68,20)"/>
<path d="M0,0 L3,0 L3,3 L0,3 Z " fill="#4E7691" transform="translate(78,41)"/>
<path d="M0,0 L3,0 L3,3 L0,2 Z " fill="#557E9C" transform="translate(33,15)"/>
</svg>
