<?xml version="1.0" encoding="UTF-8"?>
<!-- Generator: visioncortex VTracer 0.6.4 -->
<svg version="1.1" xmlns="http://www.w3.org/2000/svg" width="68" height="60">
<path d="M0,0 L68,0 L68,60 L0,60 Z " fill="#010202" transform="translate(0,0)"/>
<path d="M0,0 L8,0 L8,4 L12,4 L12,12 L4,12 L4,10 L2,10 L2,14 L-4,14 L-4,18 L4,18 L4,16 L18,16 L18,8 L24,8 L24,14 L26,14 L26,16 L28,16 L28,28 L14,29 L13,30 L12,44 L6,44 L6,40 L4,40 L4,33 L-4,33 L-5,38 L-12,38 L-12,32 L-10,32 L-10,12 L-8,12 L-8,6 L0,6 Z " fill="#A5B2CA" transform="translate(28,10)"/>
<path d="M0,0 L8,0 L8,4 L12,4 L12,12 L4,12 L4,10 L2,10 L2,14 L-4,14 L-4,18 L4,18 L4,16 L18,16 L18,8 L24,8 L24,14 L23,14 L23,9 L19,9 L19,19 L16,20 L16,17 L5,17 L5,19 L-5,20 L-5,14 L-8,14 L-9,33 L-11,33 L-11,37 L-6,37 L-5,33 L-5,38 L-12,38 L-12,32 L-10,32 L-10,12 L-8,12 L-8,6 L0,6 Z " fill="#7C8899" transform="translate(28,10)"/>
<path d="M0,0 L3,0 L3,6 L17,5 L19,6 L19,12 L18,14 L15,14 L17,18 L17,23 L14,22 L13,17 L-1,17 L-1,4 Z " fill="#DAEAF9" transform="translate(20,24)"/>
<path d="M0,0 L4,0 L4,5 L6,5 L7,9 L7,17 L-5,17 L-5,14 L-1,15 Z " fill="#C3CFF4" transform="translate(47,19)"/>
<path d="M0,0 L6,0 L6,4 L10,4 L10,10 L4,10 L4,8 L0,8 L0,12 L-5,11 L-8,8 L-8,6 L-1,5 Z " fill="#A7B0CC" transform="translate(29,11)"/>
<path d="M0,0 L3,0 L3,6 L17,5 L16,8 L3,9 L2,16 L7,16 L7,17 L-1,17 L-1,4 Z " fill="#BDCFE2" transform="translate(20,24)"/>
<path d="M0,0 L1,2 L3,2 L3,14 L-11,15 L-12,16 L-13,30 L-19,30 L-18,26 L-18,28 L-15,28 L-15,15 L-14,13 L2,13 L2,4 L0,4 Z " fill="#6E7681" transform="translate(53,24)"/>
<path d="M0,0 L5,0 L6,1 L6,7 L4,7 L4,11 L-2,11 L-2,3 L0,3 Z " fill="#6F849F" transform="translate(16,3)"/>
<path d="M0,0 L1,0 L1,8 L-13,8 L-13,10 L-21,10 L-21,6 L-15,6 L-15,2 L-13,2 L-13,4 L-5,4 L-5,5 L-12,6 L0,7 Z " fill="#181A1D" transform="translate(45,18)"/>
<path d="M0,0 L6,0 L7,4 L7,10 L5,10 L5,3 L-5,3 L-5,7 L-10,7 L-10,3 L-8,3 L-8,1 Z " fill="#8EA1B5" transform="translate(27,40)"/>
<path d="M0,0 L7,0 L8,1 L16,0 L15,3 L11,3 L11,5 L0,4 Z " fill="#E0EEFD" transform="translate(23,34)"/>
<path d="M0,0 L6,0 L6,6 L5,6 L5,1 L1,1 L1,11 L-2,12 L-2,9 L-13,9 L-13,11 L-22,11 L-22,10 L-14,10 L-14,8 L0,8 Z " fill="#677181" transform="translate(46,18)"/>
<path d="M0,0 L1,3 L0,5 L-1,18 L-4,18 L-6,15 L-6,10 L-5,12 L-3,12 L-4,4 L-1,4 Z " fill="#C1CBDF" transform="translate(39,34)"/>
<path d="M0,0 L4,0 L4,5 L6,5 L6,9 L2,8 L1,11 L-1,10 Z " fill="#94A1C5" transform="translate(47,19)"/>
<path d="M0,0 L6,0 L8,1 L8,8 L7,6 L5,6 L5,3 L1,4 L1,6 L-1,6 L-1,1 Z " fill="#14171A" transform="translate(24,42)"/>
<path d="M0,0 L4,1 L1,1 L3,5 L3,10 L0,9 L-1,4 L-12,3 L-10,1 L-3,1 L0,2 Z " fill="#D0DCF0" transform="translate(34,37)"/>
<path d="M0,0 L1,0 L1,6 L-1,6 L-1,26 L-2,26 L-3,1 Z " fill="#16191C" transform="translate(19,16)"/>
<path d="M0,0 L7,0 L8,6 L3,5 L0,2 Z " fill="#BECBDF" transform="translate(21,17)"/>
<path d="M0,0 L5,1 L4,3 L2,2 L2,8 L-3,7 L-3,3 Z " fill="#B4C1E7" transform="translate(49,27)"/>
<path d="M0,0 L6,0 L7,4 L7,10 L5,10 L5,3 L3,3 L3,1 Z " fill="#9CA7B7" transform="translate(27,40)"/>
<path d="M0,0 L7,0 L6,3 L0,4 Z " fill="#E4F5FE" transform="translate(23,34)"/>
<path d="M0,0 L5,0 L4,3 L-4,3 L0,2 Z " fill="#B1C1D3" transform="translate(33,27)"/>
<path d="M0,0 L3,0 L4,6 L2,6 L2,3 L0,3 Z " fill="#909EAF" transform="translate(38,27)"/>
<path d="M0,0 L4,0 L4,5 L2,5 L2,3 L0,3 Z " fill="#A0C0DD" transform="translate(17,4)"/>
<path d="M0,0 L3,0 L2,6 L0,6 Z " fill="#BFD1E6" transform="translate(20,24)"/>
<path d="M0,0 L3,0 L3,4 L0,4 L-1,1 Z " fill="#BDC5D2" transform="translate(35,48)"/>
<path d="M0,0 L3,0 L2,3 L0,3 L-1,6 Z " fill="#9CA6B9" transform="translate(39,37)"/>
<path d="M0,0 L3,0 L3,4 L0,4 Z " fill="#CCD3F8" transform="translate(35,16)"/>
<path d="M0,0 L4,0 L4,3 L0,3 Z " fill="#B5BCDE" transform="translate(30,13)"/>
<path d="M0,0 L2,0 L2,3 L-2,3 L-2,1 Z " fill="#B9D1EC" transform="translate(19,44)"/>
<path d="M0,0 L4,1 L4,3 L0,3 Z " fill="#B9C6E1" transform="translate(42,33)"/>
<path d="M0,0 L3,0 L2,3 L0,3 Z " fill="#657185" transform="translate(44,27)"/>
<path d="M0,0 L3,0 L2,3 L0,3 Z " fill="#98A8B8" transform="translate(38,27)"/>
</svg>
