<?xml version="1.0" encoding="UTF-8"?>
<!-- Generator: visioncortex VTracer 0.6.4 -->
<svg version="1.1" xmlns="http://www.w3.org/2000/svg" width="132" height="122">
<path d="M0,0 L132,0 L132,122 L0,122 Z " fill="#000100" transform="translate(0,0)"/>
<path d="M0,0 L12,0 L12,4 L14,4 L14,6 L24,6 L24,20 L26,20 L26,26 L28,26 L28,34 L24,34 L24,38 L22,38 L22,44 L16,44 L16,42 L14,42 L14,44 L8,44 L8,42 L6,42 L8,47 L12,48 L12,54 L8,54 L8,56 L0,56 L0,54 L-4,54 L-4,58 L-8,58 L-8,64 L-14,64 L-14,66 L-26,66 L-26,60 L-28,60 L-28,54 L-26,54 L-26,50 L-24,50 L-24,48 L-26,48 L-26,38 L-24,38 L-24,36 L-20,36 L-20,34 L-6,34 L-6,32 L-4,32 L-4,28 L-6,28 L-6,22 L2,22 L1,14 L-2,12 L-2,2 L0,2 Z " fill="#62A198" transform="translate(78,14)"/>
<path d="M0,0 L8,0 L8,2 L12,2 L12,0 L22,0 L22,2 L24,2 L24,8 L22,8 L22,10 L18,10 L18,12 L-2,13 L-4,18 L-6,18 L-6,26 L-8,26 L-8,28 L-18,28 L-18,26 L-20,26 L-20,22 L-22,22 L-24,19 L-24,10 L-20,10 L-20,8 L-16,8 L-16,6 L-10,6 L-10,10 L-8,10 L-8,6 L-6,6 L-6,4 L-3,2 L0,2 Z " fill="#47896D" transform="translate(46,8)"/>
<path d="M0,0 L8,0 L8,1 L1,1 L1,5 L3,5 L3,10 L6,10 L6,13 L3,13 L3,15 L0,14 L-13,13 L-12,17 L-16,18 L-16,28 L-15,25 L-13,25 L-12,28 L-8,29 L-7,32 L-5,32 L-5,34 L1,35 L1,33 L-2,33 L0,28 L5,25 L8,25 L8,20 L9,24 L11,24 L12,20 L14,25 L18,26 L18,32 L14,32 L14,34 L6,34 L6,32 L2,32 L2,36 L-2,36 L-2,42 L-8,42 L-8,44 L-20,44 L-20,38 L-22,38 L-22,32 L-20,32 L-20,28 L-18,28 L-18,26 L-20,26 L-20,16 L-18,16 L-18,14 L-14,14 L-14,12 L0,12 L0,10 L2,10 L2,6 L0,6 Z " fill="#6AA098" transform="translate(72,36)"/>
<path d="M0,0 L12,0 L12,4 L14,4 L14,6 L24,6 L24,20 L26,20 L26,26 L28,26 L28,34 L24,34 L24,38 L22,38 L22,44 L16,44 L16,42 L14,41 L16,41 L16,39 L14,39 L13,26 L10,26 L10,24 L14,23 L6,23 L5,25 L3,23 L6,22 L6,14 L9,16 L9,18 L13,20 L18,22 L20,27 L21,23 L20,20 L20,10 L14,10 L10,6 L10,3 L2,2 L2,5 L0,5 L0,10 L2,10 L2,12 L5,12 L5,14 L3,14 L3,22 L2,22 L1,14 L-2,12 L-2,2 L0,2 Z " fill="#63A599" transform="translate(78,14)"/>
<path d="M0,0 L10,0 L10,2 L14,2 L14,10 L11,12 L10,16 L8,16 L8,20 L0,20 L0,18 L-4,18 L-4,16 L-8,16 L-8,10 L-6,10 L-6,4 L-4,4 L-4,2 L0,2 Z " fill="#52A27A" transform="translate(108,70)"/>
<path d="M0,0 L6,0 L8,1 L10,6 L18,8 L20,25 L17,25 L16,20 L11,19 L6,14 L4,12 L4,9 L-2,8 L-2,3 L0,3 Z " fill="#79BC99" transform="translate(80,16)"/>
<path d="M0,0 L2,1 L1,6 L5,6 L5,2 L12,2 L12,9 L6,9 L6,18 L-1,18 L-1,10 L-3,10 L-3,18 L-4,18 L-4,10 L-8,11 L-9,16 L-10,16 L-10,10 L-15,9 L-16,4 L-14,4 L-14,6 L-8,6 L-8,4 L-6,4 L-6,6 L0,6 Z " fill="#0A1210" transform="translate(100,52)"/>
<path d="M0,0 L8,0 L8,2 L6,2 L6,7 L8,7 L8,15 L7,17 L-3,17 L-4,10 L-6,10 L-7,1 Z " fill="#6DA9A0" transform="translate(31,19)"/>
<path d="M0,0 L8,0 L8,6 L2,6 L2,10 L0,10 L0,14 L-12,14 L-12,12 L-14,12 L-14,6 L-12,6 L-12,4 L-8,4 L-8,2 L0,2 Z " fill="#57958B" transform="translate(62,28)"/>
<path d="M0,0 L1,4 L3,4 L4,0 L6,5 L10,6 L10,12 L6,12 L6,14 L-2,14 L-2,12 L-6,12 L-6,16 L-10,16 L-10,22 L-16,22 L-16,21 L-11,21 L-11,19 L-13,19 L-13,16 L-15,15 L-9,14 L-7,15 L-7,13 L-10,13 L-8,8 L-3,5 L0,5 Z " fill="#649E92" transform="translate(80,56)"/>
<path d="M0,0 L6,0 L6,2 L8,2 L8,4 L6,4 L6,6 L0,6 L0,8 L-20,9 L-21,5 L-15,4 L-15,2 L0,2 Z " fill="#5AA888" transform="translate(60,10)"/>
<path d="M0,0 L9,0 L9,2 L12,2 L11,7 L9,7 L9,9 L7,9 L7,11 L-1,11 L-1,13 L-8,14 L-8,10 L-5,10 L-4,4 L-2,5 L-3,9 L-1,9 L0,4 L2,4 L2,2 L0,2 Z " fill="#5FB28A" transform="translate(109,71)"/>
<path d="M0,0 L16,0 L16,8 L-3,8 L-3,4 L0,4 Z " fill="#6EAFA6" transform="translate(60,52)"/>
<path d="M0,0 L1,3 L-2,3 L-2,7 L17,7 L17,9 L15,9 L15,11 L13,11 L11,16 L14,16 L14,18 L8,17 L8,15 L5,16 L5,12 L0,11 L0,8 L-2,8 L-3,12 L-4,9 L-3,1 Z " fill="#6BA59A" transform="translate(59,53)"/>
<path d="M0,0 L6,1 L9,4 L9,7 L11,7 L11,13 L13,13 L14,10 L14,14 L12,14 L12,20 L6,20 L6,18 L4,17 L6,17 L6,15 L4,15 L3,2 L0,2 Z " fill="#579487" transform="translate(88,38)"/>
<path d="M0,0 L6,0 L6,1 L1,1 L1,3 L3,4 L2,8 L0,9 L5,10 L5,8 L7,8 L7,2 L8,2 L8,8 L10,8 L10,12 L8,12 L8,14 L-6,14 L-6,13 L7,13 L7,11 L-2,11 L-2,9 L-14,9 L-14,8 L-2,8 L-2,4 L0,4 Z " fill="#0B1211" transform="translate(64,34)"/>
<path d="M0,0 L11,1 L15,9 L14,14 L11,12 L11,8 L6,7 L1,2 Z " fill="#72BBA7" transform="translate(85,28)"/>
<path d="M0,0 L10,0 L10,2 L12,2 L12,8 L10,8 L10,10 L6,10 L6,8 L8,8 L8,6 L10,6 L10,4 L8,4 L8,2 L2,2 L2,4 L-13,4 L-14,6 L-14,3 L-11,3 L-11,1 L0,2 Z " fill="#5A9470" transform="translate(58,8)"/>
<path d="M0,0 L12,0 L12,4 L14,4 L13,6 L10,5 L10,3 L2,2 L2,5 L0,5 L0,10 L2,10 L2,12 L5,12 L5,14 L3,14 L3,22 L2,22 L1,14 L-2,12 L-2,2 L0,2 Z " fill="#4C8361" transform="translate(78,14)"/>
<path d="M0,0 L9,0 L9,9 L2,9 L2,6 L0,6 Z " fill="#70B4A6" transform="translate(26,21)"/>
<path d="M0,0 L2,0 L2,3 L5,4 L5,7 L10,8 L7,9 L10,12 L10,14 L0,14 L0,9 L3,6 L1,6 Z M3,5 Z " fill="#6EA39D" transform="translate(53,65)"/>
<path d="M0,0 L10,0 L10,1 L1,1 L1,3 L3,3 L3,5 L1,6 L0,10 L-2,10 L-3,5 L-3,11 L-5,13 L-5,11 L-7,11 L-7,15 L-4,16 L-8,16 L-8,10 L-6,10 L-6,4 L-4,4 L-4,2 L0,2 Z " fill="#4F8E72" transform="translate(108,70)"/>
<path d="M0,0 L10,0 L10,14 L12,14 L12,20 L14,20 L14,28 L10,27 L13,27 L13,25 L10,25 L10,16 L8,16 L8,8 L9,1 L0,1 Z " fill="#4B826E" transform="translate(92,20)"/>
<path d="M0,0 L5,1 L5,7 L1,7 L1,9 L-7,9 L-7,7 L-11,6 L-1,5 Z " fill="#589385" transform="translate(85,61)"/>
<path d="M0,0 L8,0 L7,2 L4,1 L4,3 L7,3 L8,11 L6,8 L4,11 L0,11 Z " fill="#5D9D93" transform="translate(84,37)"/>
<path d="M0,0 L8,0 L8,6 L2,6 L1,10 L0,3 L-7,3 L-7,6 L-12,5 L-8,4 L-8,2 L0,2 Z " fill="#467A70" transform="translate(62,28)"/>
<path d="M0,0 L6,0 L5,4 L4,2 L0,4 L1,6 L-6,6 L-5,15 L-3,15 L-2,20 L-4,20 L-4,16 L-6,16 L-8,13 L-8,4 L-4,4 L-4,2 L0,2 Z " fill="#597E7B" transform="translate(30,14)"/>
<path d="M0,0 L8,0 L8,1 L1,1 L1,5 L3,5 L3,10 L6,10 L6,13 L3,13 L3,15 L0,14 L-13,13 L-12,16 L-18,15 L-14,14 L-14,12 L0,12 L0,10 L2,10 L2,6 L0,6 Z " fill="#51857E" transform="translate(72,36)"/>
<path d="M0,0 L1,0 L1,9 L5,11 L5,19 L-3,19 L-3,18 L4,18 L4,16 L-2,16 L-1,9 Z " fill="#0A110F" transform="translate(75,17)"/>
<path d="M0,0 L16,0 L16,8 L-3,8 L-3,4 L0,4 L0,7 L15,7 L15,1 L0,3 Z " fill="#6BAAA2" transform="translate(60,52)"/>
<path d="M0,0 L4,0 L4,8 L1,10 L0,14 L-2,14 L-2,18 L-10,18 L-10,17 L-4,17 L-4,15 L-6,14 L-4,14 L-4,11 L-2,11 L-2,8 L0,8 L0,6 L2,6 L3,1 Z " fill="#458462" transform="translate(118,72)"/>
<path d="M0,0 L2,1 L2,7 L4,7 L3,10 L1,10 L1,15 L12,15 L12,16 L0,16 L0,10 L-2,10 L-2,4 L0,4 Z M4,6 Z " fill="#588681" transform="translate(52,64)"/>
<path d="M0,0 L6,1 L5,3 L2,3 L2,11 L0,13 L0,11 L-2,11 L-2,1 Z " fill="#619790" transform="translate(54,51)"/>
<path d="M0,0 L8,0 L8,2 L6,2 L6,7 L8,7 L8,15 L7,17 L-3,17 L-3,16 L6,16 L5,14 L5,1 L0,1 Z " fill="#589A8B" transform="translate(31,19)"/>
<path d="M0,0 L13,2 L13,9 L10,9 L10,5 L4,5 L0,1 Z " fill="#66A67B" transform="translate(88,19)"/>
<path d="M0,0 L2,0 L2,8 L4,8 L4,17 L7,17 L7,19 L4,20 L3,23 L1,23 L0,19 L1,17 L3,17 L2,10 L0,6 Z " fill="#63A995" transform="translate(98,28)"/>
<path d="M0,0 L6,0 L6,8 L0,8 Z " fill="#4D8E78" transform="translate(100,62)"/>
<path d="M0,0 L5,1 L6,6 L-4,6 L-3,1 Z " fill="#64A89C" transform="translate(55,35)"/>
<path d="M0,0 L2,1 L1,5 L3,5 L4,1 L5,5 L11,6 L11,7 L3,7 L3,9 L-4,10 L-4,6 L-1,6 Z " fill="#58A481" transform="translate(105,75)"/>
<path d="M0,0 L5,1 L4,5 L-8,5 L-8,3 L-6,2 L0,2 Z " fill="#75BB95" transform="translate(60,10)"/>
<path d="M0,0 L2,0 L2,2 L4,2 L4,4 L2,4 L2,6 L-16,6 L-16,2 L-10,2 L-12,3 L-12,5 L0,4 Z " fill="#6BAE87" transform="translate(64,10)"/>
<path d="M0,0 L1,0 L1,6 L3,6 L3,10 L1,10 L1,12 L-13,12 L-13,11 L0,11 L0,9 L-2,9 L-2,6 L0,6 Z " fill="#0E1817" transform="translate(71,36)"/>
<path d="M0,0 L1,0 L2,9 L3,12 L5,12 L5,16 L7,16 L6,18 L3,17 L3,15 L1,15 L-1,10 Z M0,11 Z " fill="#0C1111" transform="translate(21,18)"/>
<path d="M0,0 L9,0 L9,2 L12,2 L11,7 L9,7 L9,3 L2,3 L0,2 Z " fill="#60A786" transform="translate(109,71)"/>
<path d="M0,0 L6,0 L6,6 L0,6 Z " fill="#447667" transform="translate(106,54)"/>
<path d="M0,0 L6,0 L6,5 L5,6 L0,6 Z " fill="#99D0C7" transform="translate(26,21)"/>
<path d="M0,0 L3,1 L1,6 L-1,6 L-1,14 L-2,14 L-2,6 L-4,6 L-4,1 Z " fill="#4D8C7B" transform="translate(41,20)"/>
<path d="M0,0 L4,1 L2,1 L2,7 L0,7 L0,13 L-1,13 L-2,1 Z " fill="#09110E" transform="translate(100,73)"/>
<path d="M0,0 L4,1 L4,12 L0,13 L1,4 L3,4 L3,2 L0,2 Z " fill="#63A393" transform="translate(80,24)"/>
<path d="M0,0 L1,4 L-3,4 L-3,10 L-9,10 L-9,9 L-4,9 L-4,7 L-6,7 L-6,4 L-8,3 L-2,2 L0,3 Z " fill="#57877C" transform="translate(73,68)"/>
<path d="M0,0 L8,0 L7,2 L1,1 L1,3 L-2,3 L-2,6 L-4,6 L-5,8 L-7,7 L-8,10 L-8,6 L-6,6 L-6,4 L-3,2 L0,2 Z " fill="#447B5F" transform="translate(46,8)"/>
<path d="M0,0 L1,0 L1,6 L12,6 L12,7 L2,7 L2,9 L-6,8 L-6,7 L0,7 Z " fill="#101D18" transform="translate(106,63)"/>
<path d="M0,0 L2,0 L2,5 L-8,4 L-5,2 Z " fill="#468C67" transform="translate(112,84)"/>
<path d="M0,0 L4,2 L2,2 L2,12 L4,12 L4,14 L2,14 L1,18 L0,12 Z " fill="#121D1B" transform="translate(50,50)"/>
<path d="M0,0 L5,0 L6,5 L1,5 Z " fill="#94D6AC" transform="translate(81,19)"/>
<path d="M0,0 L6,0 L8,1 L7,3 L2,3 L0,8 L-2,8 L-2,3 L0,3 Z " fill="#6EB083" transform="translate(80,16)"/>
<path d="M0,0 L2,0 L1,5 L-9,6 L-9,4 L0,2 Z " fill="#64A495" transform="translate(83,61)"/>
<path d="M0,0 L3,0 L5,5 L8,2 L8,9 L4,9 L2,5 L2,1 Z " fill="#68AF9D" transform="translate(93,36)"/>
<path d="M0,0 L1,4 L-1,4 L-1,8 L-9,8 L-9,7 L-3,7 L-3,5 L-5,4 L-3,4 L-3,2 L0,2 Z " fill="#356F4F" transform="translate(117,82)"/>
<path d="M0,0 L2,1 L2,3 L6,5 L7,7 L1,7 L0,6 Z " fill="#69ADA1" transform="translate(85,29)"/>
<path d="M0,0 L4,0 L4,2 L12,2 L12,3 L0,4 Z " fill="#0E1816" transform="translate(74,68)"/>
<path d="M0,0 L1,4 L3,4 L4,0 L5,5 L3,5 L3,7 L-2,8 L-2,6 L0,6 Z " fill="#5C968C" transform="translate(80,56)"/>
<path d="M0,0 L5,0 L5,4 L7,4 L8,8 L2,4 Z " fill="#6FB4A5" transform="translate(85,28)"/>
<path d="M0,0 L6,1 L7,6 L3,5 L3,2 L0,2 Z " fill="#57978C" transform="translate(88,38)"/>
<path d="M0,0 L6,0 L6,5 L4,5 L4,3 L0,3 Z " fill="#78BFAA" transform="translate(90,29)"/>
<path d="M0,0 L6,0 L6,4 L1,4 Z " fill="#61A697" transform="translate(63,29)"/>
<path d="M0,0 L9,2 L9,6 L7,6 L7,4 L0,3 Z " fill="#70B28C" transform="translate(89,22)"/>
<path d="M0,0 L5,1 L5,4 L-3,4 L0,3 Z " fill="#7DBC92" transform="translate(60,10)"/>
<path d="M0,0 L5,1 L7,2 L7,5 L4,5 L4,3 L0,2 Z " fill="#679E94" transform="translate(60,70)"/>
<path d="M0,0 L2,3 L2,8 L-2,8 L-2,6 L0,6 L0,4 L-2,4 L-2,2 L0,2 Z " fill="#60A797" transform="translate(97,49)"/>
<path d="M0,0 L2,1 L2,8 L-2,8 L-2,4 L1,4 Z " fill="#58978B" transform="translate(94,40)"/>
<path d="M0,0 L6,0 L6,3 L-2,3 Z " fill="#60A298" transform="translate(53,38)"/>
<path d="M0,0 L2,0 L2,6 L-3,8 L-4,6 L-1,5 Z " fill="#7EC4B3" transform="translate(32,21)"/>
<path d="M0,0 L6,0 L5,4 L4,2 L3,3 L-4,3 L0,2 Z " fill="#336D54" transform="translate(30,14)"/>
<path d="M0,0 L4,0 L4,4 L-1,4 Z " fill="#67BE93" transform="translate(112,76)"/>
<path d="M0,0 L5,0 L5,6 L3,6 L3,2 L-1,1 Z " fill="#68B48D" transform="translate(113,74)"/>
<path d="M0,0 L2,4 L8,5 L8,6 L-2,6 L-2,4 L0,4 Z " fill="#58AB83" transform="translate(108,76)"/>
<path d="M0,0 L7,0 L7,2 L2,2 L2,4 L0,4 Z " fill="#66AAA1" transform="translate(73,37)"/>
<path d="M0,0 L1,3 L4,4 L-4,4 L-5,2 Z " fill="#4A9173" transform="translate(34,15)"/>
<path d="M0,0 L1,0 L1,6 L-1,6 L-1,8 L-5,8 L-5,6 L0,5 Z " fill="#3E754D" transform="translate(69,10)"/>
<path d="M0,0 L1,2 L4,2 L3,7 L1,7 L1,3 L-1,2 Z " fill="#5CA37E" transform="translate(117,71)"/>
<path d="M0,0 L4,0 L4,4 L0,4 Z " fill="#65AC95" transform="translate(107,55)"/>
<path d="M0,0 L4,0 L4,4 L0,4 Z " fill="#A0DFD3" transform="translate(27,22)"/>
<path d="M0,0 L2,0 L3,2 L5,2 L6,5 L1,4 Z " fill="#68A194" transform="translate(62,66)"/>
<path d="M0,0 L2,0 L2,3 L0,3 L0,5 L-2,5 L-3,1 Z " fill="#5AA383" transform="translate(42,14)"/>
<path d="M0,0 L2,0 L2,3 L4,3 L3,6 L1,6 Z " fill="#6EA69F" transform="translate(53,65)"/>
<path d="M0,0 L3,0 L3,4 L-1,4 Z " fill="#64A786" transform="translate(45,12)"/>
<path d="M0,0 L4,0 L4,2 L2,2 L1,6 Z " fill="#0F1616" transform="translate(50,62)"/>
<path d="M0,0 L4,1 L4,3 L-1,3 Z " fill="#49976E" transform="translate(110,86)"/>
<path d="M0,0 L2,0 L3,5 L0,5 Z " fill="#6CA59E" transform="translate(53,74)"/>
<path d="M0,0 L4,0 L4,3 L0,3 Z " fill="#519D6C" transform="translate(60,16)"/>
<path d="M0,0 L3,1 L3,4 L0,4 Z " fill="#649B8E" transform="translate(64,71)"/>
<path d="M0,0 L2,0 L1,3 L-3,2 Z " fill="#64AC87" transform="translate(115,71)"/>
<path d="M0,0 L2,0 L3,4 L0,4 Z " fill="#4B8477" transform="translate(92,40)"/>
<path d="M0,0 L2,0 L2,3 L-2,2 Z " fill="#6BC597" transform="translate(114,76)"/>
<path d="M0,0 L4,1 L4,3 L1,3 Z " fill="#5D9C72" transform="translate(88,19)"/>
<path d="M0,0 L3,1 L3,3 L0,3 Z " fill="#A9E2D7" transform="translate(27,22)"/>
</svg>
