<?xml version="1.0" encoding="UTF-8"?>
<!-- Generator: visioncortex VTracer 0.6.4 -->
<svg version="1.1" xmlns="http://www.w3.org/2000/svg" width="92" height="104">
<path d="M0,0 L92,0 L92,104 L0,104 Z " fill="#010102" transform="translate(0,0)"/>
<path d="M0,0 L6,0 L6,2 L20,2 L20,4 L44,4 L44,8 L46,8 L46,12 L48,12 L48,18 L44,18 L44,28 L36,28 L36,24 L31,23 L30,20 L20,20 L20,18 L18,18 L18,20 L12,20 L12,18 L8,18 L8,20 L2,20 L2,18 L-2,18 L-2,20 L-8,20 L-12,16 L-12,10 L-16,10 L-16,4 L-10,4 L-10,8 L-7,6 L-4,6 L-2,2 L0,2 Z " fill="#85A7B7" transform="translate(24,16)"/>
<path d="M0,0 L8,0 L8,7 L7,12 L12,12 L12,7 L13,7 L13,12 L15,12 L15,6 L24,6 L24,13 L7,13 L7,15 L22,15 L22,24 L18,24 L18,28 L8,28 L8,24 L-4,24 L-4,16 L-12,16 L-12,10 L-8,10 L-8,6 L-4,6 L-4,4 L0,4 Z " fill="#687A88" transform="translate(20,64)"/>
<path d="M0,0 L24,0 L24,4 L26,4 L26,8 L28,8 L28,14 L24,14 L24,24 L16,24 L16,20 L11,19 L10,16 L0,16 L0,14 L-2,14 L-2,16 L-8,16 L-8,14 L-12,14 L-12,16 L-18,16 L-18,14 L-22,14 L-22,16 L-28,16 L-28,15 L-23,15 L-24,12 L-15,12 L-15,10 L-10,10 L-10,11 L2,12 L1,15 L10,15 L10,13 L6,12 L10,12 L10,10 L12,10 L12,13 L16,12 L16,14 L18,14 L18,16 L20,16 L20,13 L22,12 L25,5 L22,6 L12,4 L10,2 L0,1 Z " fill="#7798AC" transform="translate(44,20)"/>
<path d="M0,0 L6,0 L6,2 L8,2 L8,16 L10,16 L10,26 L-2,26 L-2,28 L-8,28 L-8,20 L-4,20 L-4,18 L-2,18 L-2,2 L0,2 Z " fill="#7C8FA1" transform="translate(72,40)"/>
<path d="M0,0 L3,1 L24,1 L24,3 L21,3 L21,5 L19,5 L20,11 L12,11 L11,8 L0,7 Z " fill="#8396B0" transform="translate(17,80)"/>
<path d="M0,0 L8,0 L8,6 L6,6 L6,16 L5,16 L5,9 L-2,10 L-3,14 L-4,15 L-11,15 L-11,11 L-8,11 L-8,6 L-4,6 L-4,4 L0,4 Z " fill="#5B7180" transform="translate(20,64)"/>
<path d="M0,0 L6,0 L6,2 L20,2 L20,3 L7,3 L8,6 L-1,8 L-2,10 L-8,10 L-8,12 L-10,13 L-10,16 L-12,16 L-12,10 L-16,10 L-16,4 L-10,4 L-10,8 L-7,6 L-4,6 L-2,2 L0,2 Z " fill="#687E8F" transform="translate(24,16)"/>
<path d="M0,0 L9,0 L15,1 L13,8 L10,9 L10,12 L8,12 L8,10 L6,10 L6,8 L2,9 L2,6 L0,7 L-7,7 L-7,4 L0,3 Z " fill="#85A8BB" transform="translate(54,24)"/>
<path d="M0,0 L1,2 L11,2 L13,5 L11,5 L11,8 L4,9 L4,12 L11,12 L11,16 L2,16 L1,14 L-3,12 L-1,12 L-2,2 Z " fill="#80A0B1" transform="translate(43,19)"/>
<path d="M0,0 L11,1 L18,3 L18,7 L5,7 L-10,8 L-9,5 L-7,5 L-7,3 L-1,3 Z " fill="#85A3B7" transform="translate(23,23)"/>
<path d="M0,0 L6,0 L6,8 L4,8 L4,10 L-4,10 L-4,8 L-10,8 L-10,2 L0,2 Z " fill="#677B8C" transform="translate(60,70)"/>
<path d="M0,0 L2,1 L1,6 L6,6 L6,1 L7,1 L7,6 L9,6 L9,0 L18,0 L18,7 L1,7 L1,9 L16,9 L16,10 L0,10 Z " fill="#13171B" transform="translate(26,70)"/>
<path d="M0,0 L5,0 L5,1 L17,2 L16,5 L25,5 L25,6 L15,6 L15,4 L13,4 L13,6 L7,6 L7,4 L3,4 L3,6 L-3,6 L-3,4 L-7,4 L-7,6 L-13,6 L-13,5 L-8,5 L-9,2 L0,2 Z " fill="#607A87" transform="translate(29,30)"/>
<path d="M0,0 L24,0 L24,4 L26,4 L26,8 L28,8 L28,14 L24,13 L27,13 L27,9 L24,9 L25,5 L22,6 L12,4 L10,2 L0,1 Z " fill="#5B7483" transform="translate(44,20)"/>
<path d="M0,0 L6,0 L6,12 L0,12 Z " fill="#577088" transform="translate(4,50)"/>
<path d="M0,0 L10,0 L10,6 L6,6 L6,8 L0,8 Z " fill="#748197" transform="translate(36,8)"/>
<path d="M0,0 L2,0 L2,10 L-10,10 L-10,12 L-16,12 L-16,4 L-12,4 L-11,2 L-10,9 L1,9 Z " fill="#556573" transform="translate(80,56)"/>
<path d="M0,0 L3,0 L3,2 L5,2 L5,5 L1,5 L0,9 L-1,10 L-8,10 L-8,6 L-5,5 L-4,2 L0,2 Z " fill="#819EAD" transform="translate(17,69)"/>
<path d="M0,0 L16,0 L16,8 L12,8 L12,12 L2,12 L3,8 L3,11 L11,11 L10,5 L12,5 L12,3 L15,3 L15,1 L0,1 Z " fill="#637285" transform="translate(26,80)"/>
<path d="M0,0 L6,0 L6,2 L8,2 L8,16 L7,16 L7,4 L4,5 L2,4 L1,6 L0,4 L-1,18 L-2,18 L-2,2 L0,2 Z " fill="#5D7384" transform="translate(72,40)"/>
<path d="M0,0 L4,1 L1,1 L1,3 L4,3 L4,5 L10,5 L10,6 L4,6 L4,8 L2,8 L2,24 L1,24 L1,11 L-8,11 L-8,10 L0,10 Z " fill="#12171A" transform="translate(68,34)"/>
<path d="M0,0 L9,0 L12,2 L2,2 L4,9 L2,9 L2,6 L0,7 L-7,7 L-7,4 L0,3 Z " fill="#7FA0B3" transform="translate(54,24)"/>
<path d="M0,0 L6,1 L8,1 L8,9 L6,12 L6,7 L0,7 Z " fill="#7A96AD" transform="translate(71,43)"/>
<path d="M0,0 L4,0 L4,5 L-5,7 L-9,7 L-8,4 L-6,4 L-6,2 L0,2 Z " fill="#86A5BB" transform="translate(22,24)"/>
<path d="M0,0 L7,0 L7,6 L5,7 L-2,7 L-2,5 L0,5 Z " fill="#889BB0" transform="translate(73,58)"/>
<path d="M0,0 L10,0 L8,8 L3,9 L4,3 L2,3 L2,1 Z " fill="#889BB6" transform="translate(26,82)"/>
<path d="M0,0 L8,0 L8,6 L0,6 Z " fill="#6B8394" transform="translate(36,70)"/>
<path d="M0,0 L2,1 L1,3 L-7,4 L-7,6 L-12,6 L-14,2 L-11,1 Z " fill="#7B9CB0" transform="translate(28,29)"/>
<path d="M0,0 L1,0 L1,10 L-7,10 L-7,6 L-12,5 L-13,3 L-8,4 L-4,3 L-2,4 L-2,7 L-6,7 L-6,9 L0,9 Z " fill="#597483" transform="translate(67,34)"/>
<path d="M0,0 L6,0 L6,4 L9,3 L9,5 L5,5 L6,12 L4,12 L4,6 L0,6 Z " fill="#516781" transform="translate(8,20)"/>
<path d="M0,0 L1,2 L11,2 L13,5 L11,5 L11,8 L9,8 L9,5 L5,5 L5,3 L3,3 L3,5 L-2,3 Z " fill="#7797AC" transform="translate(43,19)"/>
<path d="M0,0 L5,0 L7,3 L2,3 L2,5 L-7,4 L-7,6 L-13,6 L-13,5 L-8,5 L-9,2 L0,2 Z " fill="#6B8898" transform="translate(29,30)"/>
<path d="M0,0 L4,0 L4,6 L-4,8 L-4,3 L1,3 Z " fill="#889FB9" transform="translate(61,71)"/>
<path d="M0,0 L2,0 L3,3 L5,3 L6,6 L2,6 L2,11 L0,11 L-1,13 L-2,6 L0,6 Z " fill="#7F97AB" transform="translate(71,52)"/>
<path d="M0,0 L7,0 L9,1 L9,5 L3,5 L0,3 Z " fill="#90B1C4" transform="translate(32,25)"/>
<path d="M0,0 L6,1 L6,3 L8,3 L8,6 L-2,5 L-2,3 L0,3 Z " fill="#8497B2" transform="translate(22,82)"/>
<path d="M0,0 L3,1 L15,1 L15,2 L5,2 L5,5 L3,5 L3,7 L0,7 Z " fill="#8396A8" transform="translate(17,80)"/>
<path d="M0,0 L7,0 L7,5 L-1,4 Z " fill="#8BB1C3" transform="translate(59,26)"/>
<path d="M0,0 L6,0 L6,4 L-3,5 L-5,3 L0,2 Z " fill="#7E9CAE" transform="translate(31,19)"/>
<path d="M0,0 L5,2 L5,0 L7,0 L7,2 L11,2 L11,5 L1,4 Z " fill="#7B9BAE" transform="translate(41,22)"/>
<path d="M0,0 L6,0 L6,8 L4,8 L4,10 L-4,10 L-1,8 L2,8 L3,6 L5,7 L5,1 L0,1 Z " fill="#596878" transform="translate(60,70)"/>
<path d="M0,0 L2,0 L5,9 L0,7 L0,3 L-4,2 L0,2 Z " fill="#7695A7" transform="translate(54,30)"/>
<path d="M0,0 L3,0 L3,2 L5,2 L5,5 L-2,5 L-2,3 L0,2 Z " fill="#7A95AC" transform="translate(17,69)"/>
<path d="M0,0 L2,0 L2,2 L12,2 L12,3 L0,4 L-6,3 L-6,2 L0,2 Z " fill="#13191C" transform="translate(42,34)"/>
<path d="M0,0 L1,0 L2,12 L-1,12 Z " fill="#07080A" transform="translate(28,64)"/>
<path d="M0,0 L6,0 L6,4 L3,4 L2,7 L2,2 L0,2 Z " fill="#758DA1" transform="translate(71,50)"/>
<path d="M0,0 L6,0 L6,4 L0,4 Z " fill="#7A99B0" transform="translate(21,65)"/>
<path d="M0,0 L4,1 L4,6 L0,6 Z " fill="#778FA5" transform="translate(65,61)"/>
<path d="M0,0 L3,1 L1,1 L1,7 L-3,4 L-3,1 Z " fill="#738D9D" transform="translate(22,73)"/>
<path d="M0,0 L7,0 L7,3 L0,3 Z " fill="#84A8BA" transform="translate(47,28)"/>
<path d="M0,0 L4,0 L4,6 L-1,4 L1,3 Z " fill="#8499B0" transform="translate(61,71)"/>
<path d="M0,0 L1,2 L8,2 L8,3 L3,3 L3,5 L-2,3 Z " fill="#748D9F" transform="translate(43,19)"/>
<path d="M0,0 L4,1 L4,5 L-1,5 Z " fill="#7E9AAA" transform="translate(67,28)"/>
<path d="M0,0 L8,1 L6,2 L6,5 L4,5 L4,3 L2,3 L2,1 Z " fill="#80A1B3" transform="translate(58,31)"/>
<path d="M0,0 L5,0 L5,2 L7,3 L4,4 L0,2 Z " fill="#7394A6" transform="translate(62,22)"/>
<path d="M0,0 L3,0 L3,4 L-2,4 L-2,2 L0,2 Z " fill="#9DB1C6" transform="translate(77,58)"/>
<path d="M0,0 L3,0 L4,5 L2,5 L1,7 Z " fill="#788FA3" transform="translate(69,58)"/>
<path d="M0,0 L3,0 L3,3 L-1,4 L-3,2 Z " fill="#7B9BAA" transform="translate(43,29)"/>
<path d="M0,0 L4,0 L5,4 L0,3 Z " fill="#8AA9BB" transform="translate(28,25)"/>
<path d="M0,0 L6,0 L4,3 L0,3 Z " fill="#84A0B2" transform="translate(37,19)"/>
<path d="M0,0 L2,3 L2,6 L-2,6 Z " fill="#7C95A2" transform="translate(18,74)"/>
<path d="M0,0 L3,0 L3,3 L5,4 L0,4 Z " fill="#7C95AA" transform="translate(51,73)"/>
<path d="M0,0 L3,3 L1,8 L0,8 Z " fill="#647F98" transform="translate(5,51)"/>
<path d="M0,0 L3,1 L2,5 L-1,3 Z " fill="#6E8C9E" transform="translate(15,30)"/>
<path d="M0,0 L2,1 L1,5 L-3,5 L-2,2 L0,2 Z " fill="#7B9CB1" transform="translate(16,26)"/>
<path d="M0,0 L6,0 L6,3 L3,3 L3,1 L0,2 Z " fill="#7A97A8" transform="translate(31,19)"/>
<path d="M0,0 L2,0 L2,4 L-2,4 L-2,2 L0,2 Z " fill="#8B9DB3" transform="translate(22,83)"/>
<path d="M0,0 L4,0 L4,3 L-2,2 Z " fill="#8393AB" transform="translate(26,85)"/>
<path d="M0,0 L3,0 L3,4 L0,4 Z " fill="#8DA0BC" transform="translate(31,84)"/>
<path d="M0,0 L4,0 L4,2 L2,2 L2,4 L0,4 Z " fill="#889FB4" transform="translate(73,58)"/>
<path d="M0,0 L3,0 L3,4 L0,4 Z " fill="#8AAAC2" transform="translate(23,25)"/>
<path d="M0,0 L5,0 L3,1 L3,3 L0,4 Z " fill="#7290A5" transform="translate(13,25)"/>
<path d="M0,0 L4,1 L4,3 L0,3 Z " fill="#91B9CD" transform="translate(59,26)"/>
<path d="M0,0 L2,0 L0,7 L-1,7 L-1,1 Z " fill="#82A3B2" transform="translate(67,25)"/>
<path d="M0,0 L5,1 L5,3 L0,2 Z " fill="#7A97AD" transform="translate(17,23)"/>
<path d="M0,0 L2,0 L3,5 L0,3 Z " fill="#6F8694" transform="translate(20,75)"/>
<path d="M0,0 L3,0 L3,4 L1,4 Z " fill="#88AABF" transform="translate(17,27)"/>
<path d="M0,0 L1,2 L3,3 L-1,4 L-2,2 L0,2 Z " fill="#708BA0" transform="translate(24,67)"/>
<path d="M0,0 L3,1 L3,3 L-1,2 Z " fill="#7797AD" transform="translate(18,32)"/>
</svg>
