<?xml version="1.0" encoding="UTF-8"?>
<!-- Generator: visioncortex VTracer 0.6.4 -->
<svg version="1.1" xmlns="http://www.w3.org/2000/svg" width="60" height="64">
<path d="M0,0 L60,0 L60,64 L0,64 Z " fill="#030202" transform="translate(0,0)"/>
<path d="M0,0 L16,0 L16,8 L9,8 L9,6 L5,8 L4,12 L16,12 L16,14 L18,14 L20,17 L20,22 L22,22 L22,12 L24,12 L24,10 L32,10 L32,18 L30,18 L30,20 L32,20 L32,26 L30,26 L30,28 L28,28 L28,32 L26,32 L26,34 L22,34 L22,36 L16,36 L15,45 L7,44 L3,44 L1,46 L-4,46 L-4,34 L7,34 L4,30 L4,26 L-1,25 L-4,22 L-4,18 L-9,18 L-9,10 L-4,10 L-4,2 L0,2 Z " fill="#9E7D75" transform="translate(14,12)"/>
<path d="M0,0 L7,1 L7,3 L10,3 L10,1 L15,1 L15,3 L18,2 L18,4 L20,5 L20,11 L28,11 L27,17 L25,17 L25,19 L19,19 L19,14 L14,16 L7,15 L8,9 L9,5 L6,7 L5,11 L3,11 L-1,7 Z " fill="#E0BDA7" transform="translate(13,25)"/>
<path d="M0,0 L2,0 L2,2 L7,3 L7,1 L9,1 L9,3 L15,3 L15,4 L9,4 L8,13 L0,12 L-4,12 L-6,14 L-11,14 L-11,2 L0,2 Z " fill="#AC5E69" transform="translate(21,44)"/>
<path d="M0,0 L1,0 L1,5 L4,5 L4,2 L12,2 L8,5 L7,9 L19,9 L19,11 L21,11 L23,14 L23,19 L25,19 L25,9 L27,9 L27,20 L22,21 L22,15 L19,14 L17,13 L17,11 L12,11 L12,13 L9,13 L9,11 L2,10 L1,15 L0,15 Z " fill="#AA8C7B" transform="translate(11,15)"/>
<path d="M0,0 L8,0 L8,8 L6,8 L6,10 L8,10 L8,16 L3,17 L2,20 L3,14 L-1,13 Z " fill="#8C6F70" transform="translate(38,22)"/>
<path d="M0,0 L4,0 L4,4 L17,4 L16,10 L14,10 L14,12 L8,12 L8,7 L3,9 L-4,8 L-4,4 L0,4 Z " fill="#EFB6B4" transform="translate(24,32)"/>
<path d="M0,0 L16,0 L16,8 L9,8 L9,5 L1,5 L1,8 L-2,8 L-2,3 L0,3 Z " fill="#AE9086" transform="translate(14,12)"/>
<path d="M0,0 L1,3 L-8,3 L-9,9 L2,9 L8,12 L5,13 L-3,11 L-6,14 L-11,14 L-11,2 L0,2 Z " fill="#882725" transform="translate(21,44)"/>
<path d="M0,0 L5,0 L5,2 L8,1 L8,3 L10,4 L10,10 L5,10 L5,6 L1,6 L1,10 L-2,10 L-1,4 L3,3 L0,2 Z " fill="#CEA69D" transform="translate(23,26)"/>
<path d="M0,0 L6,0 L2,3 L1,7 L13,7 L13,9 L15,9 L17,12 L17,17 L19,17 L19,7 L21,7 L21,18 L16,19 L16,13 L13,12 L14,10 L12,10 L12,8 L0,8 Z " fill="#8A6A69" transform="translate(17,17)"/>
<path d="M0,0 L4,1 L1,1 L2,21 L0,20 L0,16 L-5,16 L-5,8 L0,8 Z " fill="#77644D" transform="translate(10,14)"/>
<path d="M0,0 L4,2 L4,4 L7,5 L7,10 L0,10 Z " fill="#885E12" transform="translate(0,54)"/>
<path d="M0,0 L1,2 L7,2 L7,3 L1,3 L1,9 L-1,11 L-6,9 L-17,8 L-16,5 L-16,7 L-5,7 L-5,5 L-2,5 L-2,7 L0,7 Z " fill="#8E454C" transform="translate(29,45)"/>
<path d="M0,0 L3,1 L1,1 L1,5 L-1,5 L-1,7 L-11,8 L-11,6 L-13,6 L-12,1 L-10,1 L-9,5 L-3,5 L-3,3 L0,3 Z " fill="#A8707B" transform="translate(41,39)"/>
<path d="M0,0 L6,0 L6,6 L1,9 L-1,9 L-1,1 Z " fill="#CCA3A2" transform="translate(39,23)"/>
<path d="M0,0 L6,0 L6,1 L1,1 L1,11 L-6,11 L-6,9 L-14,9 L-12,6 L-1,9 Z " fill="#280A0C" transform="translate(30,48)"/>
<path d="M0,0 L6,0 L5,6 L3,6 L3,8 L-2,7 L-2,4 L0,4 Z " fill="#F3B4C0" transform="translate(35,36)"/>
<path d="M0,0 L1,3 L-10,3 L-10,13 L-7,13 L-7,10 L-3,11 L-6,14 L-11,14 L-11,2 L0,2 Z " fill="#54231A" transform="translate(21,44)"/>
<path d="M0,0 L4,0 L3,3 L3,1 L1,1 L0,8 L-5,7 L-4,3 L-6,2 Z " fill="#CE8A92" transform="translate(28,39)"/>
<path d="M0,0 L6,0 L6,6 L0,6 Z " fill="#605C53" transform="translate(40,12)"/>
<path d="M0,0 L7,0 L5,1 L5,4 L11,4 L11,5 L0,5 Z " fill="#A45556" transform="translate(13,47)"/>
<path d="M0,0 L6,0 L2,3 L1,7 L13,7 L13,9 L15,9 L14,11 L12,10 L12,8 L0,8 Z " fill="#846B60" transform="translate(17,17)"/>
<path d="M0,0 L17,1 L18,4 L16,4 L16,2 L11,2 L11,4 L8,4 L8,2 L1,1 L0,5 Z " fill="#BD9B8A" transform="translate(12,24)"/>
<path d="M0,0 L1,0 L1,7 L-1,7 L-1,9 L2,9 L2,16 L1,16 L0,11 L-6,6 L-2,5 L-1,5 Z " fill="#1A0F00" transform="translate(6,48)"/>
<path d="M0,0 L3,0 L3,9 L0,10 Z " fill="#885C27" transform="translate(0,38)"/>
<path d="M0,0 L2,2 L10,3 L11,5 L1,4 L1,7 L-2,7 L-2,2 L0,2 Z " fill="#CC9E90" transform="translate(14,13)"/>
<path d="M0,0 L3,1 L4,8 L0,8 Z " fill="#B59F50" transform="translate(0,56)"/>
<path d="M0,0 L7,0 L7,4 L5,4 L5,7 L7,8 L4,8 L4,3 L0,2 Z " fill="#E0A7AD" transform="translate(28,36)"/>
<path d="M0,0 L4,1 L3,5 L0,5 L-1,8 L0,2 L-4,1 Z " fill="#BD9097" transform="translate(41,34)"/>
<path d="M0,0 L4,0 L4,5 L0,6 Z " fill="#F4B1C2" transform="translate(36,37)"/>
<path d="M0,0 L5,1 L3,2 L3,5 L0,5 L-1,7 Z " fill="#DAB7A2" transform="translate(13,25)"/>
<path d="M0,0 L3,0 L3,6 L0,6 Z " fill="#9E7C57" transform="translate(6,23)"/>
<path d="M0,0 L1,0 L1,5 L-1,5 L-1,7 L-4,7 L-4,4 L0,3 Z " fill="#A55F65" transform="translate(22,44)"/>
<path d="M0,0 L1,2 L5,4 L5,6 L7,7 L3,6 L0,3 Z " fill="#B99A8A" transform="translate(11,30)"/>
<path d="M0,0 L4,0 L4,4 L0,4 Z " fill="#EAB8AB" transform="translate(24,32)"/>
<path d="M0,0 L3,0 L2,6 L-1,6 Z " fill="#CDA797" transform="translate(22,30)"/>
<path d="M0,0 L4,0 L4,4 L0,4 Z " fill="#989686" transform="translate(41,13)"/>
<path d="M0,0 L6,0 L2,3 L0,7 Z " fill="#7A584C" transform="translate(17,17)"/>
<path d="M0,0 L4,2 L3,4 L-1,3 Z " fill="#984750" transform="translate(25,51)"/>
<path d="M0,0 L1,4 L-2,5 L-2,1 Z " fill="#F7D2B9" transform="translate(18,26)"/>
<path d="M0,0 L4,0 L4,4 L2,4 Z " fill="#D4B19F" transform="translate(14,32)"/>
<path d="M0,0 L2,0 L1,4 L-1,4 Z " fill="#F5CACB" transform="translate(41,25)"/>
<path d="M0,0 L4,1 L0,3 Z " fill="#7D1312" transform="translate(14,54)"/>
<path d="M0,0 L4,1 L3,3 L0,2 Z " fill="#FEC4D4" transform="translate(36,37)"/>
<path d="M0,0 L3,0 L3,3 L0,3 Z " fill="#B39682" transform="translate(20,25)"/>
<path d="M0,0 L3,0 L3,3 L0,3 Z " fill="#F5D3C7" transform="translate(25,15)"/>
<path d="M0,0 L3,1 L3,3 L0,2 Z " fill="#C4C1B0" transform="translate(42,14)"/>
</svg>
