<?xml version="1.0" encoding="UTF-8"?>
<!-- Generator: visioncortex VTracer 0.6.4 -->
<svg version="1.1" xmlns="http://www.w3.org/2000/svg" width="136" height="122">
<path d="M0,0 L136,0 L136,122 L0,122 Z " fill="#000101" transform="translate(0,0)"/>
<path d="M0,0 L22,0 L22,2 L38,2 L38,4 L42,4 L42,6 L46,6 L46,12 L44,12 L44,16 L40,16 L40,20 L38,20 L38,22 L28,22 L28,24 L22,24 L22,14 L18,14 L18,16 L16,16 L16,24 L12,28 L8,28 L8,30 L2,30 L2,28 L-4,28 L-4,30 L-8,30 L-8,36 L-20,36 L-20,30 L-22,30 L-22,24 L-20,24 L-20,18 L-12,18 L-12,22 L-8,22 L-8,24 L-4,24 L-4,20 L-8,20 L-8,14 L-4,12 L-4,10 L6,10 L6,8 L2,8 L2,6 L0,6 Z " fill="#4F8274" transform="translate(44,6)"/>
<path d="M0,0 L14,0 L14,2 L17,3 L17,14 L16,16 L14,16 L14,22 L2,22 L2,20 L-4,20 L-4,22 L0,22 L0,28 L-6,28 L-6,24 L-10,24 L-10,18 L-6,18 L-6,6 L-4,6 L-4,4 L-2,4 Z " fill="#629296" transform="translate(106,26)"/>
<path d="M0,0 L12,0 L12,2 L14,2 L14,12 L18,12 L18,18 L16,18 L16,20 L10,20 L10,18 L8,18 L8,20 L-6,20 L-6,18 L-8,18 L-8,4 L-4,4 L-4,2 L0,2 Z " fill="#5E978E" transform="translate(70,38)"/>
<path d="M0,0 L10,0 L10,6 L8,6 L8,26 L2,26 L2,20 L0,20 L0,22 L-8,22 L-8,20 L-12,20 L-12,8 L-10,8 L-10,4 L0,4 Z " fill="#426482" transform="translate(112,70)"/>
<path d="M0,0 L6,0 L8,1 L8,4 L12,4 L12,20 L10,20 L10,30 L2,30 L-3,25 L-4,24 L-4,4 L0,2 Z " fill="#5D9B8E" transform="translate(12,46)"/>
<path d="M0,0 L8,0 L9,1 L26,2 L30,7 L29,11 L27,14 L27,19 L18,19 L18,21 L13,21 L13,13 L16,13 L15,11 L8,11 L7,9 L2,8 L-1,4 Z " fill="#609A8E" transform="translate(54,8)"/>
<path d="M0,0 L6,0 L6,2 L18,2 L26,3 L26,20 L10,20 L10,13 L17,13 L17,5 L5,5 L4,8 L4,2 L0,2 Z " fill="#141D27" transform="translate(102,46)"/>
<path d="M0,0 L9,0 L16,3 L18,5 L18,12 L14,12 L14,16 L5,14 L0,13 L1,7 L-2,7 L-1,4 L1,4 Z " fill="#5F9A8B" transform="translate(41,17)"/>
<path d="M0,0 L13,0 L13,2 L15,2 L15,13 L6,14 L4,16 L1,16 L1,14 L-2,13 L-1,9 L1,9 Z " fill="#5F8BA4" transform="translate(103,75)"/>
<path d="M0,0 L12,0 L12,2 L14,2 L14,12 L18,12 L18,18 L16,18 L16,20 L10,20 L10,18 L8,18 L8,20 L-6,20 L-6,18 L-8,18 L-8,4 L-4,4 L-4,2 L0,2 Z M1,1 L1,3 L-3,3 L-3,5 L1,6 L1,9 L-2,9 L-2,12 L-4,12 L-4,17 L-5,19 L5,19 L5,16 L12,17 L17,17 L17,13 L14,12 L13,3 L8,4 L8,1 Z " fill="#558A7F" transform="translate(70,38)"/>
<path d="M0,0 L6,0 L8,1 L8,3 L1,6 L-2,6 L-3,20 L1,21 L2,26 L6,26 L6,21 L7,21 L7,27 L4,28 L9,29 L8,20 L8,7 L11,7 L11,5 L8,4 L12,4 L12,20 L10,20 L10,30 L2,30 L-3,25 L-4,24 L-4,4 L0,2 Z " fill="#4E8179" transform="translate(12,46)"/>
<path d="M0,0 L22,0 L22,2 L38,2 L38,4 L42,4 L42,6 L46,6 L46,12 L44,12 L44,16 L40,16 L40,20 L38,20 L38,22 L28,22 L28,21 L36,20 L37,14 L39,12 L38,8 L36,4 L19,4 L17,2 L1,1 L1,6 L0,6 Z " fill="#528783" transform="translate(44,6)"/>
<path d="M0,0 L5,0 L5,2 L10,4 L9,11 L7,13 L-2,13 L-7,10 L-6,4 Z " fill="#88B6BD" transform="translate(112,28)"/>
<path d="M0,0 L16,0 L16,1 L9,1 L9,6 L13,9 L21,9 L17,10 L17,12 L24,11 L25,14 L22,14 L22,22 L27,22 L27,23 L21,23 L21,13 L17,13 L17,15 L12,14 L5,11 L6,7 L1,7 Z " fill="#61908B" transform="translate(45,7)"/>
<path d="M0,0 L7,0 L10,3 L9,7 L6,12 L-4,12 L-3,1 Z " fill="#74AEA7" transform="translate(74,12)"/>
<path d="M0,0 L5,0 L5,5 L9,7 L17,8 L17,14 L7,14 L7,12 L1,12 L0,11 Z " fill="#61909B" transform="translate(101,33)"/>
<path d="M0,0 L8,0 L8,2 L10,2 L10,10 L-2,10 L-2,8 L-4,8 L-4,2 L0,2 Z " fill="#365774" transform="translate(90,98)"/>
<path d="M0,0 L4,0 L5,8 L4,19 L0,19 L-2,14 L-2,5 L0,5 Z " fill="#63A197" transform="translate(14,53)"/>
<path d="M0,0 L3,0 L2,3 L3,12 L-7,12 L-6,3 L-5,1 Z " fill="#5E9A8B" transform="translate(32,29)"/>
<path d="M0,0 L2,1 L1,3 L-1,3 L0,14 L6,15 L6,16 L0,16 L0,18 L4,18 L4,24 L-2,24 L-2,20 L-6,20 L-6,14 L-2,14 L-2,2 L0,2 Z " fill="#41666B" transform="translate(102,30)"/>
<path d="M0,0 L9,0 L14,4 L10,5 L11,9 L5,10 L4,5 L2,5 L2,7 L-2,7 L-1,4 L1,4 Z " fill="#6EA695" transform="translate(41,17)"/>
<path d="M0,0 L8,0 L8,2 L5,2 L6,10 L5,6 L-1,5 L-10,4 L-9,13 L-11,13 L-11,17 L-9,19 L-13,19 L-13,7 L-11,7 L-11,3 L0,3 Z " fill="#466B7F" transform="translate(113,71)"/>
<path d="M0,0 L6,0 L6,14 L1,14 L0,13 Z " fill="#39537A" transform="translate(121,51)"/>
<path d="M0,0 L2,0 L2,9 L-2,11 L-9,9 L-9,2 L-1,2 Z " fill="#629A91" transform="translate(81,41)"/>
<path d="M0,0 L22,0 L22,2 L38,2 L38,4 L42,4 L41,6 L36,6 L36,4 L19,4 L17,2 L1,1 L1,6 L0,6 Z " fill="#3D6B65" transform="translate(44,6)"/>
<path d="M0,0 L8,0 L8,6 L3,6 L2,12 L-2,12 L-2,6 L0,6 Z " fill="#5B9486" transform="translate(24,24)"/>
<path d="M0,0 L6,0 L8,1 L8,3 L1,6 L-2,6 L-2,23 L-2,26 L-4,24 L-4,4 L0,2 Z " fill="#44736A" transform="translate(12,46)"/>
<path d="M0,0 L8,0 L9,3 L12,3 L12,6 L1,7 L-1,4 Z " fill="#679D96" transform="translate(54,8)"/>
<path d="M0,0 L2,0 L2,11 L-7,12 L-9,14 L-12,14 L-12,12 L-15,11 L-14,7 L-12,7 L-12,10 L-4,10 L-4,6 L-2,6 L-2,10 L0,10 Z " fill="#567C9E" transform="translate(116,77)"/>
<path d="M0,0 L2,3 L-9,3 L-8,7 L-11,10 L-8,10 L-9,16 L-4,16 L-4,17 L-14,17 L-10,16 L-10,12 L-14,12 L-14,6 L-10,4 L-10,2 L0,2 Z " fill="#456D62" transform="translate(50,14)"/>
<path d="M0,0 L13,0 L13,2 L11,2 L11,5 L2,5 L1,9 Z " fill="#568191" transform="translate(103,75)"/>
<path d="M0,0 L10,0 L10,6 L8,6 L8,26 L2,26 L2,20 L3,20 L3,25 L7,25 L6,3 L9,3 L9,1 L1,1 L0,4 Z " fill="#293D57" transform="translate(112,70)"/>
<path d="M0,0 L2,0 L2,2 L-1,2 L0,24 L-6,24 L-5,22 L-2,22 L-3,10 L-3,1 Z " fill="#5E9B92" transform="translate(21,51)"/>
<path d="M0,0 L4,0 L4,6 L2,6 L2,8 L-4,8 L-4,6 L-6,6 L-6,8 L-20,8 L-20,7 L-9,7 L-9,4 L-2,4 L3,5 L3,1 Z " fill="#487671" transform="translate(84,50)"/>
<path d="M0,0 L4,1 L5,5 L4,7 L-3,8 L-3,1 Z " fill="#82BCB4" transform="translate(76,14)"/>
<path d="M0,0 L12,0 L12,2 L14,2 L14,12 L13,12 L13,3 L11,3 L11,10 L10,10 L10,4 L8,4 L8,1 L1,1 L1,3 L3,4 L-4,3 L0,2 Z " fill="#4E7B71" transform="translate(70,38)"/>
<path d="M0,0 L3,1 L3,12 L2,14 L0,14 L0,20 L-12,20 L-12,19 L-2,19 L-2,13 L1,9 Z " fill="#3D596C" transform="translate(120,28)"/>
<path d="M0,0 L8,0 L8,6 L0,6 Z " fill="#2F4F63" transform="translate(72,100)"/>
<path d="M0,0 L4,0 L5,7 L3,8 L1,12 L-1,12 L-1,5 Z " fill="#65A39A" transform="translate(14,53)"/>
<path d="M0,0 L6,1 L6,6 L4,7 L-2,6 L-2,1 Z " fill="#A4D1DC" transform="translate(112,31)"/>
<path d="M0,0 L7,0 L7,3 L9,4 L1,4 L1,9 L-3,8 L0,8 L0,5 L-4,4 L-4,2 L0,2 Z " fill="#60978A" transform="translate(71,39)"/>
<path d="M0,0 L10,1 L12,0 L12,5 L2,5 L2,3 L0,3 Z " fill="#5B8A99" transform="translate(106,42)"/>
<path d="M0,0 L1,2 L1,5 L5,7 L13,8 L11,11 L5,11 L4,8 L-1,8 L-1,1 Z " fill="#6999A8" transform="translate(105,33)"/>
<path d="M0,0 L9,0 L8,2 L5,2 L6,6 L0,7 Z " fill="#68A797" transform="translate(46,20)"/>
<path d="M0,0 L4,1 L5,8 L0,8 L-1,7 L-1,1 Z " fill="#3E5A83" transform="translate(122,57)"/>
<path d="M0,0 L6,2 L8,4 L8,8 L6,8 L6,5 L4,5 L4,8 L0,7 L0,4 L3,3 Z " fill="#649E92" transform="translate(51,18)"/>
<path d="M0,0 L6,0 L6,6 L0,6 Z " fill="#32505C" transform="translate(112,60)"/>
<path d="M0,0 L4,1 L6,3 L6,6 L4,6 L4,8 L1,8 L0,6 Z " fill="#69A694" transform="translate(27,30)"/>
<path d="M0,0 L9,0 L10,3 L7,3 L7,11 L12,11 L12,12 L6,12 L6,2 L2,2 L1,4 Z " fill="#4C7970" transform="translate(60,18)"/>
<path d="M0,0 L16,0 L16,1 L3,1 L4,4 L2,4 L2,6 L5,7 L1,7 Z " fill="#537583" transform="translate(45,7)"/>
<path d="M0,0 L2,0 L2,10 L0,10 L0,6 L-2,6 L-3,10 L-3,4 L0,3 Z " fill="#5C86A9" transform="translate(114,77)"/>
<path d="M0,0 L8,0 L7,4 L7,2 L2,2 L1,7 L-1,7 L-1,12 L-2,12 L-2,6 L0,6 Z " fill="#38685C" transform="translate(24,24)"/>
<path d="M0,0 L1,0 L1,13 L3,13 L2,15 L-1,15 L-1,9 L-7,9 L-7,8 L0,8 Z " fill="#0A1013" transform="translate(119,51)"/>
<path d="M0,0 L7,0 L7,4 L1,5 Z " fill="#6CA19B" transform="translate(55,10)"/>
<path d="M0,0 L2,0 L2,2 L8,2 L8,3 L0,4 L-14,3 L-14,2 L0,2 Z " fill="#0E1716" transform="translate(78,56)"/>
<path d="M0,0 L1,0 L1,6 L0,7 L-7,7 L-8,4 L-1,4 Z " fill="#91BCCF" transform="translate(118,33)"/>
<path d="M0,0 L10,0 L10,6 L6,6 L6,3 L9,3 L9,1 L1,1 L0,4 Z " fill="#324E60" transform="translate(112,70)"/>
<path d="M0,0 L5,2 L4,9 L1,11 L1,3 Z " fill="#7A98AB" transform="translate(117,30)"/>
<path d="M0,0 L2,3 L2,6 L12,8 L12,9 L4,9 L-1,6 Z " fill="#7AACB9" transform="translate(106,32)"/>
<path d="M0,0 L2,0 L2,2 L11,2 L11,4 L0,4 Z " fill="#699E96" transform="translate(68,22)"/>
<path d="M0,0 L6,0 L6,4 L-1,5 Z " fill="#618499" transform="translate(48,8)"/>
<path d="M0,0 L7,0 L6,3 L-3,4 L-3,2 L0,2 Z " fill="#4B7292" transform="translate(90,99)"/>
<path d="M0,0 L1,0 L1,14 L-3,14 L-3,11 L-1,11 Z " fill="#3D5B81" transform="translate(118,81)"/>
<path d="M0,0 L14,0 L13,2 L4,2 L-2,4 Z " fill="#325C5E" transform="translate(106,26)"/>
<path d="M0,0 L8,0 L9,5 L-1,5 L-1,4 L6,3 L7,1 L0,1 Z " fill="#3C5D79" transform="translate(90,98)"/>
<path d="M0,0 L6,0 L6,4 L0,4 Z " fill="#416E8B" transform="translate(73,101)"/>
<path d="M0,0 L4,0 L3,6 L0,7 Z " fill="#68A89E" transform="translate(13,58)"/>
<path d="M0,0 L1,3 L8,2 L8,6 L4,6 L4,4 L0,4 Z " fill="#0E1815" transform="translate(32,24)"/>
<path d="M0,0 L5,0 L1,2 L0,6 L-4,5 L-5,3 L-3,3 L-3,1 Z " fill="#5D9388" transform="translate(61,16)"/>
<path d="M0,0 L4,1 L1,1 L1,10 L-2,6 L-1,1 Z " fill="#67A398" transform="translate(70,12)"/>
<path d="M0,0 L5,1 L5,5 L0,5 Z " fill="#5C9294" transform="translate(82,50)"/>
<path d="M0,0 L2,4 L3,7 L-2,7 L-1,1 Z " fill="#5D9989" transform="translate(43,23)"/>
<path d="M0,0 L1,4 L-1,4 L-1,6 L-11,6 L-11,5 L-3,4 L-3,2 L0,2 Z " fill="#476D69" transform="translate(83,22)"/>
<path d="M0,0 L2,0 L2,2 L6,2 L6,6 L2,6 Z " fill="#609B91" transform="translate(12,66)"/>
<path d="M0,0 L6,0 L3,1 L3,4 L-2,3 L-2,1 Z " fill="#5A8D9B" transform="translate(103,41)"/>
<path d="M0,0 L2,0 L3,5 L9,4 L7,7 L2,6 Z " fill="#64A090" transform="translate(43,22)"/>
<path d="M0,0 L9,0 L11,2 L10,5 L7,3 L7,1 L0,1 Z " fill="#5B9094" transform="translate(110,27)"/>
<path d="M0,0 L3,0 L3,6 L0,6 Z " fill="#58928A" transform="translate(20,60)"/>
<path d="M0,0 L4,1 L4,4 L-1,4 Z " fill="#8AC5C0" transform="translate(77,15)"/>
<path d="M0,0 L4,0 L4,3 L1,3 L1,6 L-1,5 Z " fill="#5A9386" transform="translate(67,44)"/>
<path d="M0,0 L3,1 L3,4 L1,4 L1,6 L-2,6 L-2,4 L0,4 Z " fill="#65A292" transform="translate(30,32)"/>
<path d="M0,0 L5,0 L5,3 L0,3 Z " fill="#628CAD" transform="translate(106,84)"/>
<path d="M0,0 L4,0 L4,4 L0,4 Z " fill="#4E7B92" transform="translate(113,61)"/>
<path d="M0,0 L1,0 L2,7 L-2,6 L-2,3 L0,3 Z " fill="#43628B" transform="translate(123,58)"/>
<path d="M0,0 L2,0 L3,3 L-5,3 L-4,1 Z " fill="#5B9389" transform="translate(18,49)"/>
<path d="M0,0 L4,0 L4,4 L0,4 Z " fill="#588E97" transform="translate(97,45)"/>
<path d="M0,0 L5,1 L5,5 L2,4 Z " fill="#5F878E" transform="translate(49,12)"/>
<path d="M0,0 L3,0 L3,4 L-1,4 Z " fill="#5D919A" transform="translate(102,49)"/>
<path d="M0,0 L5,0 L5,3 L0,3 Z " fill="#679F93" transform="translate(73,44)"/>
<path d="M0,0 L8,1 L8,2 L2,2 L2,4 L-2,3 L0,2 Z " fill="#467468" transform="translate(38,32)"/>
<path d="M0,0 L5,1 L6,3 L0,3 Z " fill="#70A19C" transform="translate(46,17)"/>
<path d="M0,0 L5,0 L5,3 L0,2 Z " fill="#B3E0E9" transform="translate(112,33)"/>
<path d="M0,0 L3,0 L3,2 L0,5 L-2,5 L-1,1 Z " fill="#5A8D7C" transform="translate(39,19)"/>
<path d="M0,0 L5,0 L5,3 L0,2 Z " fill="#6B9790" transform="translate(41,17)"/>
<path d="M0,0 L5,0 L5,3 L0,2 Z " fill="#73A5A1" transform="translate(56,10)"/>
<path d="M0,0 L6,0 L4,3 L1,3 Z " fill="#4F7690" transform="translate(103,88)"/>
<path d="M0,0 L4,1 L2,5 L2,3 L0,3 Z " fill="#52818D" transform="translate(106,42)"/>
<path d="M0,0 L4,1 L2,4 L-1,4 Z " fill="#61938F" transform="translate(81,20)"/>
<path d="M0,0 L2,4 L-1,8 Z " fill="#5F9C91" transform="translate(26,32)"/>
<path d="M0,0 L3,0 L2,3 L-1,3 Z " fill="#4B7687" transform="translate(113,73)"/>
<path d="M0,0 L3,0 L3,3 L0,3 Z " fill="#365775" transform="translate(118,73)"/>
<path d="M0,0 L4,1 L3,4 Z " fill="#4D857C" transform="translate(11,71)"/>
<path d="M0,0 L2,4 L-1,4 Z " fill="#5B968B" transform="translate(12,67)"/>
<path d="M0,0 L3,1 L2,4 Z " fill="#688794" transform="translate(118,28)"/>
<path d="M0,0 L3,1 L3,3 L0,3 Z " fill="#5A9482" transform="translate(43,27)"/>
<path d="M0,0 L3,0 L3,3 L0,2 Z " fill="#68889E" transform="translate(51,9)"/>
</svg>
