<?xml version="1.0" encoding="UTF-8"?>
<!-- Generator: visioncortex VTracer 0.6.4 -->
<svg version="1.1" xmlns="http://www.w3.org/2000/svg" width="162" height="130">
<path d="M0,0 L162,0 L162,130 L0,130 Z " fill="#010000" transform="translate(0,0)"/>
<path d="M0,0 L10,0 L10,4 L22,4 L22,12 L24,12 L24,0 L44,0 L46,1 L46,4 L48,4 L48,10 L46,10 L46,12 L48,12 L48,52 L46,52 L46,56 L48,56 L48,68 L44,72 L36,72 L36,68 L24,68 L24,60 L20,60 L20,56 L16,56 L16,52 L12,52 L12,36 L4,36 L4,32 L-6,32 L-6,24 L-10,24 L-10,22 L-12,22 L-12,28 L-18,28 L-18,20 L-20,20 L-20,8 L-18,8 L-18,4 L0,4 Z " fill="#B73C86" transform="translate(76,24)"/>
<path d="M0,0 L10,0 L10,5 L21,5 L21,12 L19,12 L19,7 L13,7 L12,17 L9,16 L8,30 L5,31 L-5,31 L-5,24 L-10,24 L-10,22 L-12,22 L-12,28 L-18,28 L-18,20 L-20,20 L-20,8 L-18,8 L-18,4 L0,4 Z " fill="#B1548C" transform="translate(76,24)"/>
<path d="M0,0 L1,3 L9,2 L22,2 L23,22 L25,23 L25,26 L27,26 L30,29 L39,30 L40,25 L41,20 L42,24 L44,24 L44,36 L40,40 L32,40 L32,36 L20,36 L20,28 L16,28 L16,24 L12,24 L12,20 L8,20 L8,4 L0,4 Z " fill="#973B7A" transform="translate(80,56)"/>
<path d="M0,0 L18,0 L18,16 L22,16 L22,22 L18,22 L18,26 L10,26 L10,22 L0,22 L0,10 L-2,10 L-2,4 L0,4 Z " fill="#B55A9B" transform="translate(46,58)"/>
<path d="M0,0 L6,0 L6,5 L8,6 L6,11 L4,11 L4,19 L21,19 L21,23 L25,23 L25,27 L21,28 L20,31 L18,31 L17,28 L-8,28 L-8,25 L-19,25 L-19,17 L-18,17 L-18,24 L-5,23 L-5,8 L-1,10 Z " fill="#AE4D85" transform="translate(89,31)"/>
<path d="M0,0 L16,0 L16,14 L14,14 L14,16 L4,16 L4,14 L0,14 L0,12 L-4,12 L-4,4 L0,4 Z " fill="#B7568B" transform="translate(36,24)"/>
<path d="M0,0 L6,0 L7,1 L7,6 L9,6 L10,2 L11,2 L11,10 L9,10 L9,15 L7,20 L-2,20 L-6,16 L-6,6 L-2,2 L0,2 Z " fill="#B84390" transform="translate(112,66)"/>
<path d="M0,0 L1,3 L13,2 L11,3 L11,6 L9,6 L9,19 L11,19 L11,11 L14,11 L15,13 L18,14 L17,20 L13,21 L13,23 L20,21 L23,24 L23,28 L21,28 L21,35 L42,33 L42,27 L40,27 L41,20 L42,24 L44,24 L44,36 L40,40 L32,40 L32,36 L20,36 L20,28 L16,28 L16,24 L12,24 L12,20 L8,20 L8,4 L0,4 Z " fill="#8F3977" transform="translate(80,56)"/>
<path d="M0,0 L8,0 L9,3 L20,4 L20,11 L18,11 L18,6 L12,6 L11,16 L6,14 L6,17 L1,17 L0,13 L-5,12 L-5,10 L0,9 Z " fill="#B7558F" transform="translate(77,25)"/>
<path d="M0,0 L18,0 L22,3 L22,8 L20,9 L20,11 L16,12 L15,14 L9,13 L9,11 L5,10 L5,3 L9,4 L9,2 L2,2 L1,10 L0,10 Z " fill="#B5508F" transform="translate(101,25)"/>
<path d="M0,0 L3,1 L3,4 L20,4 L20,8 L24,8 L24,12 L20,13 L19,16 L17,16 L16,13 L0,12 Z " fill="#BB3E81" transform="translate(90,46)"/>
<path d="M0,0 L18,0 L18,16 L22,16 L22,22 L18,22 L18,26 L10,26 L10,22 L0,22 L0,10 L-2,10 L-2,4 L0,4 Z M1,1 L1,3 L15,3 L14,4 L6,4 L4,7 L4,18 L3,19 L3,10 L1,10 L1,21 L10,22 L11,25 L17,25 L17,1 Z " fill="#9F4E86" transform="translate(46,58)"/>
<path d="M0,0 L10,0 L10,6 L12,6 L12,14 L8,14 L8,16 L0,16 Z " fill="#913982" transform="translate(84,94)"/>
<path d="M0,0 L1,0 L1,6 L-1,6 L-1,8 L1,8 L1,48 L0,48 L-1,38 L-4,37 L-5,15 L-3,9 L-5,9 L-4,7 L-2,8 L-3,2 L-2,5 L0,5 Z " fill="#9A4080" transform="translate(123,28)"/>
<path d="M0,0 L20,0 L22,1 L21,3 L19,2 L1,1 L1,13 L3,13 L3,18 L8,20 L8,22 L4,25 L2,25 L2,23 L-5,23 L-7,22 L-7,18 L-5,18 L-4,13 L-3,5 L-14,5 L-14,4 L-2,4 L-2,12 L0,12 Z " fill="#8D3D6A" transform="translate(100,24)"/>
<path d="M0,0 L10,0 L9,4 L9,1 L1,1 L2,7 L1,10 L-8,10 L-6,7 L0,7 L0,5 L-17,5 L-16,8 L-16,20 L-17,27 L-13,27 L-13,22 L-15,22 L-15,20 L-10,21 L-10,18 L-12,17 L-9,17 L-7,21 L-9,21 L-9,23 L-6,24 L-10,24 L-10,22 L-12,22 L-12,28 L-18,28 L-18,20 L-20,20 L-20,8 L-18,8 L-18,4 L0,4 Z " fill="#934473" transform="translate(76,24)"/>
<path d="M0,0 L7,0 L5,1 L5,3 L10,3 L11,8 L16,8 L17,5 L17,20 L14,21 L4,21 L4,14 L6,14 L6,19 L11,19 L10,11 L8,11 L9,4 L2,4 L-1,3 Z " fill="#B5538D" transform="translate(67,34)"/>
<path d="M0,0 L16,0 L16,14 L14,14 L14,16 L4,16 L4,14 L0,14 L0,12 L-4,12 L-4,4 L0,4 Z M1,1 L0,4 L-3,5 L-3,11 L-1,11 L-1,7 L1,7 L2,10 L12,11 L13,13 L15,13 L15,1 Z " fill="#984973" transform="translate(36,24)"/>
<path d="M0,0 L1,4 L7,6 L11,10 L11,14 L9,14 L9,16 L7,17 L-10,17 L-11,13 L-1,14 L-1,16 L3,13 L5,13 L5,11 L0,9 L0,4 L-2,3 L0,3 Z " fill="#B73F7F" transform="translate(103,33)"/>
<path d="M0,0 L7,0 L7,2 L3,1 L4,8 L7,9 L7,11 L13,12 L14,9 L17,10 L17,15 L15,19 L11,19 L11,16 L7,14 L6,12 L0,9 L-2,8 Z " fill="#B24884" transform="translate(103,27)"/>
<path d="M0,0 L1,4 L3,4 L3,16 L-1,20 L-9,20 L-9,14 L1,13 L1,7 L-1,7 Z " fill="#933B77" transform="translate(121,76)"/>
<path d="M0,0 L4,3 L13,4 L14,0 L16,1 L16,7 L6,9 L-5,9 L-5,7 L2,6 L2,4 L0,4 Z " fill="#A54189" transform="translate(106,82)"/>
<path d="M0,0 L6,1 L6,13 L-1,13 L-2,12 L-2,7 L0,7 L-1,1 Z " fill="#B84997" transform="translate(112,71)"/>
<path d="M0,0 L1,0 L1,8 L-1,8 L-1,13 L-3,18 L-12,18 L-16,14 L-16,10 L-12,10 L-11,15 L-4,16 L-4,7 L-3,4 L-1,4 Z " fill="#AF4791" transform="translate(122,68)"/>
<path d="M0,0 L4,0 L4,24 L3,21 L0,20 Z " fill="#AC3A7D" transform="translate(102,58)"/>
<path d="M0,0 L18,0 L18,16 L22,16 L22,22 L18,22 L18,26 L10,26 L11,22 L11,25 L17,25 L16,16 L17,1 L1,1 L0,4 Z " fill="#8D457B" transform="translate(46,58)"/>
<path d="M0,0 L1,0 L1,40 L0,40 L-1,30 L-4,29 L-4,20 L-2,17 L-1,19 Z " fill="#82326B" transform="translate(123,36)"/>
<path d="M0,0 L6,0 L6,5 L8,6 L4,7 L3,11 L-5,13 L-5,8 L-1,10 Z " fill="#B35088" transform="translate(89,31)"/>
<path d="M0,0 L1,0 L1,7 L18,5 L18,2 L20,2 L20,10 L19,11 L11,11 L11,8 L0,8 Z " fill="#A1457C" transform="translate(70,48)"/>
<path d="M0,0 L4,0 L4,11 L2,13 L0,12 L0,8 L-4,8 L-4,3 L-2,3 L-2,1 Z " fill="#B7428A" transform="translate(114,46)"/>
<path d="M0,0 L1,0 L2,44 L1,56 L0,56 L0,44 L-2,44 L-2,40 L0,40 Z " fill="#1E0C1A" transform="translate(124,36)"/>
<path d="M0,0 L10,0 L10,6 L12,6 L12,14 L8,13 L11,13 L11,7 L9,7 L8,11 L8,7 L6,7 L6,3 L9,3 L9,1 L1,1 L1,15 L8,15 L8,16 L0,16 Z " fill="#752F6A" transform="translate(84,94)"/>
<path d="M0,0 L1,3 L8,1 L11,4 L11,8 L9,8 L9,15 L20,15 L20,16 L8,16 L8,8 L4,8 L4,4 L0,4 Z " fill="#83356F" transform="translate(92,76)"/>
<path d="M0,0 L8,0 L9,12 L6,12 L6,2 L1,1 L0,6 L3,6 L3,9 L1,9 L1,15 L-2,14 L-2,3 Z " fill="#AF5695" transform="translate(52,62)"/>
<path d="M0,0 L4,0 L4,3 L7,3 L7,6 L5,7 L3,11 L1,11 L0,7 L-5,6 L-5,4 L0,3 Z " fill="#BD5894" transform="translate(77,31)"/>
<path d="M0,0 L1,0 L2,19 L5,20 L3,26 L1,26 L0,21 L-4,20 L-4,16 L-1,16 Z " fill="#AA3E86" transform="translate(118,46)"/>
<path d="M0,0 L1,0 L2,6 L4,7 L5,14 L7,14 L8,17 L0,17 L0,12 L2,12 L0,7 Z " fill="#9A3C81" transform="translate(101,72)"/>
<path d="M0,0 L16,0 L20,3 L20,8 L18,8 L18,5 L11,5 L11,2 L0,1 Z " fill="#AC518C" transform="translate(103,25)"/>
<path d="M0,0 L2,2 L2,7 L4,7 L4,13 L7,14 L2,14 L2,9 L-4,8 L-3,4 L-1,4 Z " fill="#AD5388" transform="translate(71,39)"/>
<path d="M0,0 L5,0 L5,4 L9,4 L9,8 L2,8 L0,7 L2,2 L0,2 Z " fill="#C13F84" transform="translate(105,50)"/>
<path d="M0,0 L12,0 L12,5 L5,5 L0,2 Z " fill="#B25E87" transform="translate(37,25)"/>
<path d="M0,0 L8,0 L8,2 L2,2 L2,12 L6,12 L6,14 L0,14 Z " fill="#9B3F8D" transform="translate(85,95)"/>
<path d="M0,0 L9,0 L9,5 L-2,4 L-2,1 Z " fill="#A63B79" transform="translate(93,58)"/>
<path d="M0,0 L3,1 L3,6 L1,10 L-3,10 L-4,2 L-1,3 Z " fill="#B2488C" transform="translate(117,36)"/>
<path d="M0,0 L10,0 L9,4 L9,1 L1,1 L2,7 L1,10 L-8,10 L-6,7 L0,7 Z " fill="#9D507F" transform="translate(76,24)"/>
<path d="M0,0 L2,4 L2,6 L-2,7 L-3,9 L-9,8 L-9,6 L-13,5 L-13,3 L-11,3 L-11,5 L0,3 Z " fill="#B74C8E" transform="translate(119,30)"/>
<path d="M0,0 L4,1 L1,1 L1,7 L3,7 L3,3 L5,3 L6,7 L5,9 L11,8 L9,9 L9,11 L18,11 L18,12 L8,12 L8,10 L4,10 L4,8 L0,8 Z " fill="#8D416B" transform="translate(32,28)"/>
<path d="M0,0 L8,1 L8,9 L7,7 L3,6 L4,4 L0,4 Z " fill="#9B3878" transform="translate(94,62)"/>
<path d="M0,0 L1,3 L13,2 L11,3 L11,6 L9,6 L9,19 L12,20 L8,20 L8,4 L0,4 Z " fill="#7F3666" transform="translate(80,56)"/>
<path d="M0,0 L3,1 L3,4 L8,5 L8,8 L0,8 Z " fill="#BD4485" transform="translate(90,46)"/>
<path d="M0,0 L12,0 L12,9 L14,9 L14,11 L11,12 L9,16 L7,16 L7,14 L9,14 L10,9 L11,1 L0,1 Z " fill="#944271" transform="translate(86,28)"/>
<path d="M0,0 L10,0 L10,3 L5,5 L2,5 Z " fill="#BA4D94" transform="translate(109,30)"/>
<path d="M0,0 L1,4 L3,4 L3,9 L7,10 L9,11 L9,13 L5,13 L5,11 L0,9 L0,4 L-2,3 L0,3 Z " fill="#AD437C" transform="translate(103,33)"/>
<path d="M0,0 L2,0 L1,8 L3,8 L3,13 L-1,13 Z " fill="#B3518A" transform="translate(60,38)"/>
<path d="M0,0 L4,1 L8,5 L8,9 L6,9 L6,11 L4,11 L4,8 L6,8 L6,6 L0,4 Z " fill="#B34380" transform="translate(106,38)"/>
<path d="M0,0 L2,0 L2,4 L0,4 L0,8 L-3,8 L-3,12 L-5,12 L-5,5 L-1,3 Z " fill="#AD4881" transform="translate(93,38)"/>
<path d="M0,0 L1,0 L1,12 L-3,16 L-11,16 L-10,12 L-10,15 L-4,15 L-5,12 L-3,12 L-2,10 L0,11 Z " fill="#652A51" transform="translate(123,80)"/>
<path d="M0,0 L4,0 L5,5 L12,6 L12,7 L2,7 L0,4 Z " fill="#B14593" transform="translate(106,78)"/>
<path d="M0,0 L11,0 L11,7 L9,7 L9,2 L0,2 Z " fill="#B85992" transform="translate(86,29)"/>
<path d="M0,0 L17,1 L17,2 L2,2 L1,10 L0,10 Z " fill="#B85591" transform="translate(101,25)"/>
<path d="M0,0 L4,0 L4,5 L6,6 L5,7 L0,7 Z " fill="#A95084" transform="translate(91,31)"/>
<path d="M0,0 L5,2 L1,3 L0,6 L0,4 L-2,4 L-2,8 L-4,8 L-4,2 Z " fill="#B45989" transform="translate(37,27)"/>
<path d="M0,0 L5,0 L6,5 L0,5 L-1,1 Z " fill="#B058A1" transform="translate(57,78)"/>
<path d="M0,0 L3,0 L3,2 L1,3 L1,9 L-3,9 L-3,3 Z " fill="#BC4593" transform="translate(111,69)"/>
<path d="M0,0 L4,0 L4,10 L3,7 L0,6 Z " fill="#AB4188" transform="translate(102,72)"/>
<path d="M0,0 L7,0 L7,2 L3,1 L3,6 L0,6 L0,9 L-2,8 Z " fill="#B34E88" transform="translate(103,27)"/>
<path d="M0,0 L6,0 L7,4 L6,5 L1,5 Z " fill="#AD5C8F" transform="translate(79,25)"/>
<path d="M0,0 L4,0 L3,16 L2,16 L2,4 L0,4 Z " fill="#140911" transform="translate(122,76)"/>
<path d="M0,0 L2,0 L2,5 L9,5 L9,7 L0,7 Z " fill="#B65691" transform="translate(71,48)"/>
<path d="M0,0 L6,0 L5,3 L7,3 L7,5 L1,5 Z " fill="#9E3E78" transform="translate(112,90)"/>
<path d="M0,0 L3,0 L3,9 L0,10 Z " fill="#A13C7F" transform="translate(119,46)"/>
<path d="M0,0 L6,1 L5,6 L2,5 L2,3 L-1,3 Z " fill="#C3479A" transform="translate(112,71)"/>
<path d="M0,0 L3,0 L4,2 L7,3 L7,5 L0,6 Z " fill="#8D3672" transform="translate(91,67)"/>
<path d="M0,0 L2,0 L3,5 L7,5 L7,9 L4,9 L4,6 L1,6 Z " fill="#B65C92" transform="translate(77,25)"/>
<path d="M0,0 L7,0 L7,3 L-1,3 Z " fill="#A43E74" transform="translate(97,43)"/>
<path d="M0,0 L1,3 L7,2 L8,5 L5,5 L5,7 L8,8 L4,8 L4,4 L0,4 Z " fill="#763166" transform="translate(92,76)"/>
<path d="M0,0 L2,0 L2,6 L-7,7 L-7,6 L-2,6 L-2,4 L0,4 Z " fill="#A24083" transform="translate(120,83)"/>
<path d="M0,0 L4,1 L4,6 L0,6 Z " fill="#A63B81" transform="translate(102,66)"/>
<path d="M0,0 L7,0 L7,3 L0,3 Z " fill="#A13E79" transform="translate(91,59)"/>
<path d="M0,0 L5,1 L4,6 L0,6 L0,3 L2,3 L2,1 Z " fill="#A14074" transform="translate(98,36)"/>
<path d="M0,0 L4,0 L4,3 L8,4 L0,4 Z " fill="#B34181" transform="translate(90,54)"/>
<path d="M0,0 L2,0 L2,7 L-2,7 L-2,4 L0,4 Z " fill="#B44C86" transform="translate(86,46)"/>
<path d="M0,0 L1,0 L1,8 L-2,8 L-1,1 Z " fill="#A9458D" transform="translate(122,68)"/>
<path d="M0,0 L4,0 L5,5 L2,5 Z " fill="#BF5192" transform="translate(109,30)"/>
<path d="M0,0 L1,2 L4,2 L4,5 L-1,5 Z " fill="#B2578E" transform="translate(85,29)"/>
<path d="M0,0 L5,0 L5,4 L1,4 Z " fill="#C04189" transform="translate(109,54)"/>
<path d="M0,0 L11,0 L9,3 L7,3 L7,1 L0,1 Z " fill="#B13D7A" transform="translate(95,46)"/>
<path d="M0,0 L2,0 L2,7 L-1,7 Z " fill="#AF538A" transform="translate(89,31)"/>
<path d="M0,0 L3,0 L5,5 L2,5 L2,3 L0,3 Z " fill="#BB4F8C" transform="translate(106,30)"/>
<path d="M0,0 L1,3 L0,5 L-3,5 L-3,1 Z " fill="#B23D8A" transform="translate(117,57)"/>
<path d="M0,0 L2,0 L1,5 L0,3 L-5,3 L-5,2 L0,2 Z " fill="#AB457F" transform="translate(88,54)"/>
<path d="M0,0 L4,1 L4,4 L0,4 Z " fill="#C24185" transform="translate(94,50)"/>
<path d="M0,0 L1,2 L4,2 L4,5 L0,5 Z " fill="#AD448A" transform="translate(114,41)"/>
<path d="M0,0 L3,0 L3,3 L1,3 L0,7 Z " fill="#8B367F" transform="translate(87,97)"/>
<path d="M0,0 L5,1 L2,3 L-1,3 Z " fill="#B44F85" transform="translate(38,34)"/>
<path d="M0,0 L3,0 L2,4 L-1,3 Z " fill="#BF4D9B" transform="translate(115,73)"/>
<path d="M0,0 L2,1 L2,6 L0,6 L-1,2 Z " fill="#A34688" transform="translate(121,27)"/>
<path d="M0,0 L3,2 L-1,5 L-2,2 L0,2 Z " fill="#7C2B55" transform="translate(120,90)"/>
<path d="M0,0 L2,2 L-3,3 L-3,1 Z " fill="#973E80" transform="translate(96,76)"/>
<path d="M0,0 L2,4 L2,6 L-1,5 Z " fill="#B14A91" transform="translate(119,30)"/>
<path d="M0,0 L3,0 L3,3 L0,3 Z " fill="#AD3B82" transform="translate(103,67)"/>
<path d="M0,0 L3,0 L2,3 L-1,2 Z " fill="#AA4A85" transform="translate(81,54)"/>
<path d="M0,0 L3,0 L2,3 L0,2 Z " fill="#BF4D98" transform="translate(115,31)"/>
</svg>
