<?xml version="1.0" encoding="UTF-8"?>
<!-- Generator: visioncortex VTracer 0.6.4 -->
<svg version="1.1" xmlns="http://www.w3.org/2000/svg" width="94" height="86">
<path d="M0,0 L94,0 L94,86 L0,86 Z " fill="#010101" transform="translate(0,0)"/>
<path d="M0,0 L10,0 L10,8 L20,8 L20,4 L24,4 L24,2 L26,2 L26,0 L78,0 L78,6 L76,6 L76,8 L78,8 L82,12 L82,18 L80,18 L80,24 L84,24 L84,32 L82,32 L82,36 L70,36 L70,34 L68,34 L68,36 L52,36 L52,38 L46,38 L44,36 L44,30 L48,30 L48,28 L52,28 L52,26 L50,26 L50,24 L44,24 L44,22 L42,22 L42,16 L40,16 L40,14 L34,14 L34,12 L32,12 L32,8 L28,8 L28,20 L22,20 L22,22 L18,22 L18,24 L10,24 L10,26 L2,26 L2,24 L0,24 Z " fill="#457A6E" transform="translate(4,6)"/>
<path d="M0,0 L29,0 L29,2 L27,2 L27,4 L24,7 L23,9 L28,8 L31,9 L31,11 L47,12 L49,13 L49,18 L47,25 L49,26 L49,28 L53,29 L54,34 L44,34 L43,32 L38,30 L38,26 L33,24 L35,30 L40,32 L40,34 L25,34 L25,37 L19,37 L17,35 L17,29 L21,29 L21,27 L25,27 L25,25 L23,25 L23,23 L17,23 L17,21 L15,21 L15,15 L13,15 L13,13 L7,13 L7,11 L5,11 L5,6 L0,6 L-2,2 L0,2 Z " fill="#638686" transform="translate(31,7)"/>
<path d="M0,0 L23,1 L25,2 L25,7 L23,14 L25,15 L25,17 L29,18 L30,23 L20,23 L19,21 L14,19 L14,15 L12,14 L12,12 L0,13 L-1,11 L-6,11 L-5,9 L0,9 Z " fill="#679A8F" transform="translate(55,18)"/>
<path d="M0,0 L2,0 L4,12 L7,13 L7,11 L10,11 L10,9 L20,7 L20,18 L14,18 L14,20 L7,19 L7,17 L4,17 L4,20 L10,20 L10,22 L-3,23 L-6,22 L-6,14 L-5,9 L-3,9 L-3,3 L0,3 Z " fill="#629C94" transform="translate(11,7)"/>
<path d="M0,0 L10,0 L10,8 L20,8 L20,4 L24,4 L24,2 L26,2 L26,0 L56,0 L56,1 L27,1 L27,3 L25,3 L27,6 L32,7 L28,8 L28,20 L22,20 L22,22 L18,22 L18,24 L10,24 L10,26 L2,26 L2,24 L0,24 Z M7,1 L7,4 L4,4 L4,10 L2,10 L1,15 L1,23 L10,24 L17,23 L17,21 L11,21 L11,18 L14,18 L14,20 L21,21 L21,19 L27,19 L27,8 L17,10 L17,12 L14,12 L14,14 L11,13 L9,1 Z " fill="#507472" transform="translate(4,6)"/>
<path d="M0,0 L1,2 L4,2 L4,0 L6,0 L6,2 L9,2 L9,4 L21,4 L27,7 L27,17 L26,20 L32,19 L32,26 L31,30 L19,30 L19,28 L17,28 L17,30 L1,30 L1,29 L16,29 L16,27 L10,26 L9,19 L12,18 L12,20 L15,21 L16,25 L17,27 L20,26 L20,29 L30,29 L28,24 L25,23 L25,21 L22,20 L25,8 L9,7 L7,6 L7,4 L-1,4 Z " fill="#51887D" transform="translate(55,12)"/>
<path d="M0,0 L23,0 L23,5 L21,5 L22,10 L14,11 L14,9 L6,10 L5,7 L-1,5 L-2,2 L0,2 Z " fill="#79A0A1" transform="translate(31,7)"/>
<path d="M0,0 L6,0 L6,2 L4,2 L4,4 L1,7 L0,9 L5,8 L8,9 L8,11 L1,11 L1,20 L-6,22 L-8,21 L-8,15 L-10,15 L-10,13 L-16,13 L-16,11 L-18,11 L-17,7 L-17,10 L-15,9 L-9,9 L-9,11 L-1,10 L-2,5 L0,5 Z " fill="#6BA498" transform="translate(54,7)"/>
<path d="M0,0 L7,0 L8,3 L22,2 L23,7 L22,11 L12,10 L11,9 L0,9 Z " fill="#70AC9F" transform="translate(55,18)"/>
<path d="M0,0 L6,0 L8,4 L10,5 L9,11 L15,11 L15,13 L2,14 L-1,13 L-1,5 Z " fill="#679694" transform="translate(6,16)"/>
<path d="M0,0 L10,0 L10,8 L20,8 L16,10 L14,10 L14,14 L10,13 L9,10 L9,1 L7,1 L7,4 L4,4 L4,10 L2,10 L1,23 L10,24 L10,26 L2,26 L2,24 L0,24 Z " fill="#3A5D62" transform="translate(4,6)"/>
<path d="M0,0 L22,0 L22,6 L20,6 L20,8 L22,8 L26,12 L26,18 L24,18 L24,24 L28,24 L28,32 L27,32 L27,25 L21,26 L20,22 L21,22 L22,13 L20,13 L20,10 L18,10 L18,4 L21,5 L21,1 L0,1 Z " fill="#2B5D55" transform="translate(60,6)"/>
<path d="M0,0 L16,1 L18,2 L18,7 L16,12 L-8,11 L-13,11 L-12,9 L-6,8 L4,8 L5,9 L15,11 L15,3 L1,3 Z " fill="#6CA59A" transform="translate(62,18)"/>
<path d="M0,0 L5,0 L7,6 L12,8 L12,10 L-3,10 L-3,8 L-1,8 L-2,4 Z " fill="#6A968F" transform="translate(59,31)"/>
<path d="M0,0 L1,0 L2,9 L1,24 L3,24 L2,26 L-3,25 L-3,7 L0,6 Z " fill="#050708" transform="translate(3,6)"/>
<path d="M0,0 L1,0 L2,9 L-4,9 L-4,11 L-10,10 L-10,4 L-5,1 Z " fill="#67A69C" transform="translate(29,16)"/>
<path d="M0,0 L1,2 L4,3 L5,7 L6,9 L9,8 L9,11 L19,11 L20,8 L20,12 L8,12 L8,10 L6,10 L6,12 L-10,12 L-10,11 L5,11 L5,9 L-1,8 L-2,1 Z " fill="#537872" transform="translate(66,30)"/>
<path d="M0,0 L20,0 L18,1 L18,3 L2,4 L2,6 L-2,4 L-2,2 L0,2 Z " fill="#72979A" transform="translate(31,7)"/>
<path d="M0,0 L19,0 L19,4 L17,5 L17,7 L12,7 L12,4 L8,3 L8,1 L0,1 Z " fill="#3A766C" transform="translate(62,7)"/>
<path d="M0,0 L5,1 L4,9 L-5,8 L-5,5 L-2,2 L0,2 Z " fill="#79B4A8" transform="translate(73,20)"/>
<path d="M0,0 L1,3 L3,2 L9,2 L10,5 L9,7 L14,6 L13,10 L11,9 L12,14 L10,14 L10,8 L8,8 L8,6 L2,6 L2,4 L0,4 Z " fill="#5A8680" transform="translate(36,14)"/>
<path d="M0,0 L8,0 L8,2 L5,2 L5,6 L8,5 L8,9 L2,11 L1,5 L3,5 L4,2 L-1,3 Z " fill="#69A195" transform="translate(46,18)"/>
<path d="M0,0 L3,0 L3,7 L-4,8 L-5,1 Z " fill="#7CACA4" transform="translate(50,10)"/>
<path d="M0,0 L1,2 L4,2 L4,0 L6,0 L6,2 L9,2 L11,5 L23,6 L23,7 L9,7 L7,6 L7,4 L-1,4 Z " fill="#5D9588" transform="translate(55,12)"/>
<path d="M0,0 L8,0 L8,1 L1,1 L1,3 L3,2 L12,2 L12,3 L5,3 L4,7 L-2,8 L-2,6 L2,6 L2,4 L0,4 L0,2 L-6,2 L-6,1 Z " fill="#5C867F" transform="translate(54,28)"/>
<path d="M0,0 L4,2 L5,6 L7,6 L7,8 L-2,8 L-2,6 L0,6 L-1,2 Z " fill="#6F9C97" transform="translate(58,33)"/>
<path d="M0,0 L4,2 L4,8 L-2,8 L-2,2 L0,2 Z " fill="#719FA8" transform="translate(8,20)"/>
<path d="M0,0 L2,0 L3,11 L-3,9 L-3,3 L0,3 Z " fill="#527F81" transform="translate(11,7)"/>
<path d="M0,0 L1,0 L2,9 L0,9 L-1,5 L-4,5 L-4,7 L-7,7 L-7,4 L-5,4 L-5,1 Z " fill="#69A79B" transform="translate(29,16)"/>
<path d="M0,0 L4,0 L4,2 L8,3 L8,6 L0,7 L1,3 Z " fill="#41796D" transform="translate(66,8)"/>
<path d="M0,0 L6,0 L6,6 L0,6 Z " fill="#344853" transform="translate(12,72)"/>
<path d="M0,0 L6,0 L6,6 L0,6 Z " fill="#354C57" transform="translate(68,70)"/>
<path d="M0,0 L6,0 L6,6 L0,6 Z " fill="#344F57" transform="translate(78,58)"/>
<path d="M0,0 L1,3 L4,4 L5,9 L4,7 L1,7 L1,5 L-1,5 L-1,7 L-4,7 L-4,4 L-2,4 L-2,2 L0,2 Z " fill="#53877B" transform="translate(60,7)"/>
<path d="M0,0 L11,0 L7,2 L5,2 L5,6 L1,5 Z " fill="#42706F" transform="translate(13,14)"/>
<path d="M0,0 L6,1 L6,3 L11,2 L9,6 L9,4 L1,5 Z " fill="#6E9C99" transform="translate(36,12)"/>
<path d="M0,0 L6,0 L7,2 L2,2 L2,6 L0,6 L0,12 L2,13 L-1,13 L-1,5 Z " fill="#5C8791" transform="translate(6,16)"/>
<path d="M0,0 L2,0 L2,4 L0,5 L0,7 L-5,7 L-5,4 L-3,3 L-3,1 Z " fill="#357768" transform="translate(79,7)"/>
<path d="M0,0 L5,0 L8,3 L8,6 L4,6 L0,2 Z " fill="#61969B" transform="translate(8,18)"/>
<path d="M0,0 L3,3 L3,5 L0,5 L0,7 L-3,8 L-3,2 Z " fill="#65968C" transform="translate(77,30)"/>
<path d="M0,0 L1,0 L1,6 L6,6 L6,14 L5,14 L5,7 L-1,8 L-2,4 Z " fill="#3C6A62" transform="translate(82,24)"/>
<path d="M0,0 L5,1 L4,9 L0,7 L2,5 L3,1 L0,2 Z " fill="#77B5A8" transform="translate(73,20)"/>
<path d="M0,0 L7,0 L3,2 L1,6 L4,6 L4,8 L0,9 Z " fill="#70AB9F" transform="translate(55,18)"/>
<path d="M0,0 L3,3 L8,4 L8,5 L-2,6 L-3,2 L0,2 Z " fill="#578783" transform="translate(28,9)"/>
<path d="M0,0 L6,0 L6,2 L4,2 L4,4 L0,7 Z " fill="#6C9B92" transform="translate(54,7)"/>
<path d="M0,0 L3,0 L4,4 L2,4 L2,6 L-2,4 L-2,2 L0,2 Z " fill="#6B9798" transform="translate(31,7)"/>
<path d="M0,0 L5,2 L5,0 L7,1 L6,8 L5,6 L3,6 L3,3 L0,2 Z " fill="#5A9390" transform="translate(13,18)"/>
<path d="M0,0 L7,1 L7,5 L3,3 L0,2 Z " fill="#57877F" transform="translate(80,33)"/>
<path d="M0,0 L5,1 L5,3 L7,4 L4,6 L0,3 Z " fill="#488175" transform="translate(61,7)"/>
<path d="M0,0 L3,1 L1,1 L0,4 L-2,4 L-3,7 L-4,6 L-4,1 L0,2 Z " fill="#73ADA2" transform="translate(70,21)"/>
<path d="M0,0 L2,0 L3,5 L-4,6 L-2,2 L-2,4 L1,4 Z " fill="#72AA9F" transform="translate(50,12)"/>
<path d="M0,0 L3,0 L3,5 L2,3 L-5,4 L-2,3 L-2,1 Z " fill="#7CA5A0" transform="translate(51,7)"/>
<path d="M0,0 L8,1 L8,3 L0,3 Z " fill="#4F6D71" transform="translate(6,29)"/>
<path d="M0,0 L3,0 L2,6 L-3,6 L-3,4 L1,4 Z " fill="#6D9399" transform="translate(11,24)"/>
<path d="M0,0 L2,0 L1,5 L-2,5 L-2,1 Z " fill="#7DBBAE" transform="translate(74,21)"/>
<path d="M0,0 L3,0 L2,4 L0,3 L1,8 L-1,8 L-1,1 Z " fill="#56847B" transform="translate(47,20)"/>
<path d="M0,0 L4,0 L4,4 L-2,3 Z " fill="#72B0A3" transform="translate(58,19)"/>
<path d="M0,0 L5,2 L5,4 L-1,4 Z " fill="#6A9A91" transform="translate(66,37)"/>
<path d="M0,0 L4,0 L4,4 L0,4 Z " fill="#4C6D7E" transform="translate(13,73)"/>
<path d="M0,0 L4,0 L4,4 L0,4 Z " fill="#507182" transform="translate(69,71)"/>
<path d="M0,0 L4,0 L4,4 L0,4 Z " fill="#4D7581" transform="translate(79,59)"/>
<path d="M0,0 L1,2 L7,1 L7,4 L0,3 Z " fill="#4A7F75" transform="translate(80,30)"/>
<path d="M0,0 L1,0 L1,6 L-3,5 L-3,2 L0,2 Z " fill="#63A396" transform="translate(28,19)"/>
<path d="M0,0 L3,1 L4,4 L1,6 Z " fill="#669A92" transform="translate(47,23)"/>
<path d="M0,0 L3,0 L2,5 L0,6 Z " fill="#4E7A7E" transform="translate(8,10)"/>
<path d="M0,0 L3,0 L2,4 L4,5 L1,5 Z " fill="#749A9F" transform="translate(49,37)"/>
<path d="M0,0 L2,0 L2,2 L5,2 L5,5 L0,3 Z " fill="#6C9E94" transform="translate(69,34)"/>
<path d="M0,0 L5,0 L6,3 L0,2 Z " fill="#649189" transform="translate(59,31)"/>
<path d="M0,0 L2,0 L1,5 L-2,5 L-2,2 L0,2 Z " fill="#6BB1A3" transform="translate(24,18)"/>
<path d="M0,0 L2,0 L2,4 L-3,3 L-3,1 Z " fill="#2A776A" transform="translate(79,7)"/>
<path d="M0,0 L3,0 L3,4 L0,4 Z " fill="#6C9F97" transform="translate(82,37)"/>
<path d="M0,0 L6,1 L6,3 L0,2 Z " fill="#669F97" transform="translate(19,24)"/>
<path d="M0,0 L4,1 L4,4 L1,4 Z " fill="#3B554F" transform="translate(64,32)"/>
<path d="M0,0 L5,0 L6,2 L2,3 L2,1 Z " fill="#75A4A1" transform="translate(40,12)"/>
<path d="M0,0 L5,0 L3,1 L3,3 L0,3 Z " fill="#3B5A52" transform="translate(56,11)"/>
<path d="M0,0 L3,0 L3,3 L0,3 Z " fill="#6C9F95" transform="translate(77,35)"/>
<path d="M0,0 L3,0 L1,4 Z " fill="#6B989C" transform="translate(11,24)"/>
<path d="M0,0 L2,0 L2,3 L-1,3 Z " fill="#82C6B8" transform="translate(74,21)"/>
<path d="M0,0 L3,0 L3,3 L0,2 Z " fill="#77B7AA" transform="translate(59,19)"/>
<path d="M0,0 L1,2 L3,3 L-1,4 Z " fill="#568175" transform="translate(55,12)"/>
<path d="M0,0 L3,2 L-1,3 Z " fill="#65998F" transform="translate(46,18)"/>
</svg>
