<?xml version="1.0" encoding="UTF-8"?>
<!-- Generator: visioncortex VTracer 0.6.4 -->
<svg version="1.1" xmlns="http://www.w3.org/2000/svg" width="64" height="72">
<path d="M0,0 L64,0 L64,72 L0,72 Z " fill="#010200" transform="translate(0,0)"/>
<path d="M0,0 L10,0 L10,8 L6,12 L11,12 L12,10 L18,10 L18,16 L14,16 L14,22 L22,22 L22,30 L20,30 L20,32 L13,34 L12,36 L10,36 L12,40 L12,46 L0,46 L0,44 L-6,44 L-6,46 L-10,46 L-10,48 L-4,48 L-2,51 L-2,54 L-16,54 L-16,38 L-14,38 L-14,36 L-8,36 L-8,40 L-6,40 L-6,38 L-2,38 L-2,34 L-12,34 L-12,32 L-14,32 L-14,26 L-12,26 L-12,24 L-14,24 L-14,18 L-16,18 L-16,22 L-22,22 L-22,16 L-18,16 L-18,6 L-10,6 L-10,2 L0,2 Z " fill="#CCE135" transform="translate(28,14)"/>
<path d="M0,0 L8,0 L8,8 L5,8 L5,10 L8,9 L17,9 L17,16 L16,18 L9,20 L8,22 L6,22 L8,26 L8,32 L-4,32 L-4,30 L-10,30 L-10,32 L-14,32 L-14,34 L-8,34 L-6,37 L-6,40 L-20,40 L-20,24 L-18,24 L-18,22 L-12,22 L-12,27 L-10,27 L-9,25 L-5,25 L-4,20 L-2,19 Z " fill="#A0A92D" transform="translate(32,28)"/>
<path d="M0,0 L10,0 L10,8 L6,12 L11,12 L12,10 L18,10 L18,16 L14,16 L14,22 L22,22 L22,30 L21,30 L21,23 L9,24 L9,22 L12,22 L12,14 L4,14 L4,24 L3,33 L0,35 L-1,39 L-5,39 L-6,42 L-8,40 L-6,40 L-6,38 L-2,38 L-2,34 L-12,34 L-12,32 L-14,32 L-14,26 L-12,26 L-11,24 L-7,25 L-6,32 L-2,31 L-2,25 L-4,24 L-4,16 L-2,16 L-2,12 L3,13 L3,6 L4,5 L9,5 L9,1 L0,1 Z " fill="#96AE0C" transform="translate(28,14)"/>
<path d="M0,0 L7,0 L6,5 L4,5 L4,10 L16,9 L16,13 L8,13 L7,19 L4,20 L4,26 L7,26 L6,29 L4,29 L4,27 L-7,27 L-4,26 L-4,21 L-2,18 Z " fill="#CDDC68" transform="translate(32,29)"/>
<path d="M0,0 L9,0 L5,5 L3,5 L3,1 L1,1 L2,3 L2,11 L-2,12 L-2,22 L-4,22 L-4,16 L-6,16 L-6,20 L-12,20 L-12,14 L-8,14 L-8,4 L0,4 Z " fill="#A0AD24" transform="translate(18,16)"/>
<path d="M0,0 L6,0 L6,4 L2,5 L2,11 L4,10 L4,12 L10,12 L12,15 L12,18 L-2,18 L-2,2 L0,2 Z " fill="#909D0B" transform="translate(14,50)"/>
<path d="M0,0 L5,1 L6,8 L14,6 L14,10 L12,11 L11,15 L7,15 L6,18 L4,16 L6,16 L6,14 L10,14 L10,10 L0,10 L0,8 L-2,8 L-2,2 L0,2 Z " fill="#57640F" transform="translate(16,38)"/>
<path d="M0,0 L9,0 L9,4 L4,5 L3,12 L0,11 L2,11 L1,8 L-8,7 L-9,2 L-7,2 L-7,6 L-5,6 L-4,3 Z " fill="#B4B82F" transform="translate(28,15)"/>
<path d="M0,0 L3,1 L1,1 L1,5 L-1,5 L-1,13 L2,14 L2,20 L-3,21 L-4,14 L-8,13 L-5,12 L-1,2 Z " fill="#9EB515" transform="translate(25,25)"/>
<path d="M0,0 L6,0 L6,6 L2,6 L2,12 L10,12 L10,20 L9,20 L9,13 L-3,14 L-3,12 L0,12 L0,4 L-4,3 L-1,2 Z " fill="#738315" transform="translate(40,24)"/>
<path d="M0,0 L6,0 L6,4 L1,6 L0,11 L-1,17 L11,17 L12,15 L12,18 L-2,18 L-2,2 L0,2 Z " fill="#596204" transform="translate(14,50)"/>
<path d="M0,0 L8,0 L8,8 L5,8 L5,10 L8,9 L17,9 L17,16 L8,16 L8,14 L16,14 L16,10 L11,11 L4,11 L4,6 L6,5 L7,1 L0,1 Z " fill="#AEC43B" transform="translate(32,28)"/>
<path d="M0,0 L8,0 L8,2 L1,4 L0,6 L-2,6 L0,10 L0,16 L-12,16 L-12,15 L-1,15 L-1,11 L-4,11 L-4,5 L-2,4 Z " fill="#6C7527" transform="translate(40,44)"/>
<path d="M0,0 L8,0 L8,1 L1,1 L2,10 L4,12 L2,12 L2,16 L-4,16 L-4,10 L0,10 Z " fill="#747C17" transform="translate(10,20)"/>
<path d="M0,0 L6,0 L6,10 L2,9 L0,8 Z " fill="#4C5D01" transform="translate(24,30)"/>
<path d="M0,0 L5,1 L6,8 L11,7 L11,9 L1,9 L-1,2 Z " fill="#84950D" transform="translate(16,38)"/>
<path d="M0,0 L7,0 L6,5 L4,5 L4,9 L0,9 Z " fill="#E0F81C" transform="translate(32,29)"/>
<path d="M0,0 L17,0 L17,4 L15,4 L15,1 L13,2 L2,3 L0,12 L-2,11 L-1,9 Z " fill="#CAE348" transform="translate(31,38)"/>
<path d="M0,0 L6,0 L6,2 L18,2 L18,3 L-4,4 L-4,2 L0,2 Z " fill="#161708" transform="translate(22,58)"/>
<path d="M0,0 L2,0 L2,3 L-12,5 L-11,1 Z " fill="#F6FD65" transform="translate(44,39)"/>
<path d="M0,0 L8,1 L8,4 L3,7 L0,7 Z " fill="#929F10" transform="translate(11,21)"/>
<path d="M0,0 L4,1 L4,19 L3,16 L0,17 L0,12 L3,12 L3,2 L-1,1 Z " fill="#788F09" transform="translate(27,28)"/>
<path d="M0,0 L4,1 L12,2 L12,4 L15,3 L15,5 L4,5 L4,3 L0,3 Z " fill="#BBBF5D" transform="translate(24,54)"/>
<path d="M0,0 L9,0 L9,4 L5,4 L5,6 L3,6 L3,2 L-3,2 Z " fill="#101202" transform="translate(17,48)"/>
<path d="M0,0 L1,0 L1,9 L8,9 L8,10 L2,10 L1,13 L-4,13 L-5,11 L-1,8 Z " fill="#232903" transform="translate(38,14)"/>
<path d="M0,0 L6,0 L6,6 L0,6 Z " fill="#5A6614" transform="translate(48,24)"/>
<path d="M0,0 L6,0 L6,6 L0,6 Z " fill="#736C19" transform="translate(14,4)"/>
<path d="M0,0 L10,0 L10,8 L6,13 L4,13 L4,10 L6,10 L5,6 L8,6 L9,1 L0,1 Z " fill="#7B8518" transform="translate(28,14)"/>
<path d="M0,0 L6,0 L2,2 L0,5 L-1,14 L-2,14 L-4,4 L-2,4 Z " fill="#101105" transform="translate(42,46)"/>
<path d="M0,0 L9,0 L5,5 L3,5 L3,1 L1,1 L2,6 L-4,6 L0,5 Z " fill="#97972A" transform="translate(18,16)"/>
<path d="M0,0 L5,0 L3,6 L-1,6 L-2,1 Z " fill="#E2F75C" transform="translate(35,43)"/>
<path d="M0,0 L6,0 L6,4 L-1,6 Z " fill="#677302" transform="translate(14,50)"/>
<path d="M0,0 L8,0 L8,8 L5,8 L5,10 L11,10 L11,11 L4,11 L4,6 L6,5 L7,1 L0,1 Z " fill="#B7CD33" transform="translate(32,28)"/>
<path d="M0,0 L0,3 L-1,10 L1,11 L-4,10 L-3,1 Z " fill="#BDCB3D" transform="translate(19,27)"/>
<path d="M0,0 L2,0 L2,6 L4,6 L4,8 L2,8 L2,14 L4,14 L3,16 L0,16 L1,8 L-1,7 L0,6 Z " fill="#131502" transform="translate(12,32)"/>
<path d="M0,0 L4,0 L4,9 L1,8 L3,8 L2,5 L-2,3 L0,3 Z " fill="#BBC62E" transform="translate(27,18)"/>
<path d="M0,0 L9,0 L10,4 L5,3 L5,1 L1,1 L0,5 Z " fill="#C0D72A" transform="translate(20,22)"/>
<path d="M0,0 L2,0 L2,4 L7,3 L7,5 L-3,5 L-2,2 L0,2 Z " fill="#83950B" transform="translate(20,42)"/>
<path d="M0,0 L3,0 L3,7 L-1,7 Z " fill="#1A2200" transform="translate(26,31)"/>
<path d="M0,0 L2,4 L4,5 L3,7 L11,7 L11,8 L2,8 L2,6 L0,6 Z " fill="#5B6704" transform="translate(14,40)"/>
<path d="M0,0 L6,0 L7,5 L2,5 L2,3 L5,3 L5,1 L0,1 Z " fill="#7C850C" transform="translate(18,62)"/>
<path d="M0,0 L2,0 L2,3 L-9,2 L-9,1 Z " fill="#E3F85F" transform="translate(44,39)"/>
<path d="M0,0 L3,0 L3,2 L6,1 L6,3 L-5,3 L-5,2 L0,2 Z " fill="#9D9D4F" transform="translate(33,56)"/>
<path d="M0,0 L7,0 L7,3 L0,2 Z " fill="#CECF46" transform="translate(29,15)"/>
<path d="M0,0 L1,0 L1,6 L4,6 L3,9 L1,9 L1,7 L-2,6 L0,6 Z " fill="#B7BD62" transform="translate(35,49)"/>
<path d="M0,0 L4,0 L4,3 L0,6 L-1,4 Z " fill="#CEE82E" transform="translate(21,23)"/>
<path d="M0,0 L4,0 L4,4 L0,4 Z " fill="#8A9D17" transform="translate(49,25)"/>
<path d="M0,0 L5,0 L4,2 L1,1 L2,5 L-1,5 Z " fill="#9BA820" transform="translate(32,19)"/>
<path d="M0,0 L3,1 L3,5 L0,5 Z " fill="#D2ED3F" transform="translate(23,39)"/>
<path d="M0,0 L3,0 L2,5 L0,5 Z " fill="#DEF358" transform="translate(36,29)"/>
<path d="M0,0 L4,1 L2,5 L0,4 Z " fill="#B5CB4A" transform="translate(36,44)"/>
<path d="M0,0 L3,0 L3,4 L0,4 Z " fill="#E1EE7D" transform="translate(29,51)"/>
<path d="M0,0 L2,2 L2,6 L0,6 L-1,2 Z " fill="#768703" transform="translate(16,38)"/>
<path d="M0,0 L3,1 L1,1 L1,5 L-2,5 Z " fill="#A0B917" transform="translate(25,25)"/>
<path d="M0,0 L3,1 L3,4 L0,4 Z " fill="#879007" transform="translate(12,23)"/>
<path d="M0,0 L4,1 L4,4 L2,4 Z " fill="#CAE232" transform="translate(26,22)"/>
<path d="M0,0 L3,0 L3,3 L0,3 Z " fill="#8A9B04" transform="translate(16,51)"/>
<path d="M0,0 L3,0 L2,4 Z " fill="#9CB311" transform="translate(42,25)"/>
<path d="M0,0 L3,0 L2,3 L0,3 Z " fill="#E2F672" transform="translate(34,46)"/>
<path d="M0,0 L3,0 L3,3 L0,2 Z " fill="#9EAA1B" transform="translate(11,28)"/>
</svg>
