<?xml version="1.0" encoding="UTF-8"?>
<!-- Generator: visioncortex VTracer 0.6.4 -->
<svg version="1.1" xmlns="http://www.w3.org/2000/svg" width="146" height="132">
<path d="M0,0 L146,0 L146,132 L0,132 Z " fill="#000001" transform="translate(0,0)"/>
<path d="M0,0 L6,0 L6,4 L8,4 L8,8 L14,8 L14,4 L24,4 L24,8 L28,8 L28,4 L30,4 L30,0 L40,0 L40,4 L44,4 L48,8 L48,12 L56,12 L56,18 L54,18 L54,22 L52,22 L52,24 L56,24 L56,28 L60,28 L60,32 L72,32 L72,66 L68,66 L68,68 L72,68 L72,76 L70,76 L70,80 L68,80 L68,84 L58,84 L58,80 L40,80 L40,76 L38,76 L38,80 L32,80 L32,74 L36,74 L36,72 L32,72 L32,66 L34,66 L32,59 L29,60 L28,62 L24,62 L24,64 L20,64 L22,71 L26,74 L26,84 L22,84 L22,88 L12,88 L12,86 L8,86 L8,84 L2,84 L2,70 L4,70 L4,48 L2,48 L2,58 L-4,58 L-4,56 L-8,56 L-8,20 L-12,18 L-12,12 L-10,12 L-10,8 L-4,8 L-4,4 L0,4 Z " fill="#6049C0" transform="translate(38,14)"/>
<path d="M0,0 L6,0 L6,4 L8,4 L8,8 L14,8 L14,4 L24,4 L24,8 L28,8 L28,4 L30,4 L30,0 L40,0 L40,4 L44,4 L48,8 L48,12 L56,12 L56,18 L54,18 L54,22 L52,22 L52,24 L56,24 L56,28 L60,28 L60,32 L72,32 L72,66 L68,65 L71,65 L71,38 L69,38 L68,40 L68,38 L66,38 L66,34 L50,35 L43,32 L42,26 L38,26 L38,29 L24,28 L24,23 L27,22 L27,19 L15,19 L15,22 L11,21 L11,18 L8,18 L7,15 L2,14 L2,20 L0,21 L1,16 L-1,16 L-1,29 L1,30 L1,36 L-2,36 L-2,55 L-3,57 L1,57 L1,48 L2,48 L2,58 L-4,58 L-4,56 L-8,56 L-8,20 L-12,18 L-12,12 L-10,12 L-10,8 L-4,8 L-4,4 L0,4 Z " fill="#573EAB" transform="translate(38,14)"/>
<path d="M0,0 L5,0 L5,2 L17,3 L30,5 L31,8 L39,8 L39,11 L44,11 L43,16 L35,16 L35,20 L31,20 L31,22 L26,24 L15,29 L13,29 L12,32 L10,32 L10,39 L11,39 L12,47 L13,50 L18,49 L18,57 L15,57 L15,62 L5,62 L5,60 L1,60 L1,58 L-5,58 L-5,44 L-3,44 L-3,21 L-7,20 L-6,15 L-4,10 L-3,4 L-1,4 Z " fill="#6B4EC6" transform="translate(45,40)"/>
<path d="M0,0 L19,0 L19,4 L25,5 L26,0 L28,4 L28,19 L23,20 L22,22 L20,22 L17,19 L17,17 L15,17 L16,22 L14,22 L14,20 L9,21 L8,28 L6,29 L6,33 L-2,33 L-2,17 L0,14 L2,14 L0,6 Z " fill="#6153CB" transform="translate(81,60)"/>
<path d="M0,0 L8,1 L6,2 L6,4 L9,4 L10,7 L13,8 L13,5 L18,4 L25,5 L25,8 L23,9 L22,14 L36,15 L36,12 L40,12 L42,18 L48,20 L45,21 L36,20 L35,18 L10,14 L10,12 L5,12 L4,16 L2,16 L1,26 L-1,28 L-1,32 L2,34 L-1,34 L-1,43 L-5,43 L-5,26 L-4,22 L-1,22 L-1,16 L-4,15 L-4,4 L-3,2 L-1,2 L-1,6 Z " fill="#5E42B5" transform="translate(40,28)"/>
<path d="M0,0 L5,0 L5,2 L17,3 L30,5 L31,8 L39,8 L39,11 L44,11 L43,16 L35,16 L35,20 L30,20 L30,18 L32,18 L31,16 L24,15 L23,12 L18,12 L17,9 L12,11 L5,10 L5,12 L-2,13 L-2,19 L-5,19 L-6,21 L-7,16 L-5,14 L-3,4 L-1,4 Z " fill="#6949C2" transform="translate(45,40)"/>
<path d="M0,0 L10,0 L10,4 L14,4 L18,8 L18,12 L26,12 L26,18 L24,18 L24,22 L22,22 L22,24 L26,24 L26,28 L30,28 L30,32 L42,32 L42,66 L38,65 L41,65 L41,38 L39,38 L38,40 L38,38 L36,38 L36,34 L20,35 L13,32 L12,21 L16,21 L16,18 L19,18 L18,23 L15,24 L14,30 L19,31 L21,33 L25,34 L25,32 L27,32 L27,29 L21,30 L21,27 L25,27 L25,25 L21,25 L20,22 L20,15 L23,15 L23,17 L25,17 L25,13 L16,14 L17,9 L15,9 L15,11 L13,11 L11,7 L13,7 L13,5 L10,7 L6,7 L5,10 L-6,10 L-15,11 L-16,13 L-16,9 L-22,9 L-22,8 L-16,8 L-16,4 L-6,4 L-6,8 L-2,8 L-2,4 L0,4 Z " fill="#4F3AA1" transform="translate(68,14)"/>
<path d="M0,0 L2,0 L2,4 L2,6 L4,6 L4,4 L6,4 L5,9 L7,8 L14,8 L14,12 L12,12 L12,10 L9,10 L10,20 L14,20 L14,22 L10,22 L10,25 L16,24 L16,27 L14,27 L14,29 L9,28 L3,25 L4,19 L7,17 L8,13 L-3,13 L-3,17 L-8,17 L-8,13 L-18,11 L-23,9 L-23,13 L-29,13 L-32,8 L-32,6 L-26,6 L-17,4 L-6,4 L-5,2 Z " fill="#503BA3" transform="translate(79,19)"/>
<path d="M0,0 L2,0 L2,2 L5,3 L5,5 L7,5 L8,1 L8,3 L10,3 L10,5 L14,5 L14,13 L12,13 L12,17 L10,17 L10,21 L0,21 L0,17 L-18,17 L-17,13 L-17,16 L-9,16 L-10,12 L-7,11 L-7,4 L-6,3 L-1,3 L-1,5 L1,5 Z " fill="#5347B2" transform="translate(96,77)"/>
<path d="M0,0 L4,0 L4,6 L8,7 L8,13 L5,20 L-1,21 L-1,23 L2,24 L-2,24 L-2,18 L0,18 L-2,11 L-5,12 L-6,14 L-10,14 L-10,16 L-14,16 L-12,23 L-8,26 L-8,36 L-12,35 L-9,35 L-9,27 L-11,27 L-11,33 L-12,33 L-12,28 L-14,28 L-16,25 L-17,19 L-18,19 L-17,10 L-11,5 L-1,1 Z " fill="#624BB9" transform="translate(72,62)"/>
<path d="M0,0 L7,0 L7,4 L2,5 L2,7 L-4,7 L-5,15 L-5,20 L-1,29 L0,35 L-3,37 L-8,37 L-14,35 L-14,27 L-10,18 L-8,5 L-6,1 Z " fill="#7357D0" transform="translate(58,61)"/>
<path d="M0,0 L12,0 L12,4 L18,5 L19,0 L21,4 L21,19 L16,20 L15,22 L13,22 L10,19 L10,17 L8,17 L9,22 L7,22 L7,20 L2,21 L1,28 L0,28 L0,19 L2,16 L4,16 L4,14 L12,15 L16,16 L16,7 L8,8 L8,4 L4,3 L4,1 L2,1 L2,3 L0,3 Z " fill="#5E4FC6" transform="translate(88,60)"/>
<path d="M0,0 L6,0 L6,4 L8,4 L7,8 L7,5 L5,5 L5,7 L3,7 L3,10 L-2,12 L-3,15 L-5,15 L-5,20 L-7,20 L-7,55 L-4,56 L-8,56 L-8,20 L-12,18 L-12,12 L-10,12 L-10,8 L-4,8 L-4,4 L0,4 Z " fill="#482F89" transform="translate(38,14)"/>
<path d="M0,0 L7,0 L7,3 L9,3 L9,1 L11,1 L12,3 L15,4 L15,8 L21,6 L23,7 L22,14 L21,12 L7,12 L7,15 L0,16 L0,14 L2,14 L0,6 Z " fill="#6550D2" transform="translate(81,60)"/>
<path d="M0,0 L3,0 L2,5 L6,6 L-6,7 L-8,17 L-10,27 L-13,33 L-15,29 L-15,7 L-13,7 L-12,10 L-7,9 L-8,5 L-4,3 L-4,1 Z " fill="#7153CC" transform="translate(58,55)"/>
<path d="M0,0 L3,0 L2,5 L-1,6 L-2,12 L3,13 L5,15 L9,16 L9,14 L11,14 L11,11 L13,11 L13,14 L26,14 L26,48 L22,47 L25,47 L25,20 L23,20 L22,22 L22,20 L20,20 L20,16 L4,17 L-3,14 L-4,3 L0,3 Z " fill="#483997" transform="translate(84,32)"/>
<path d="M0,0 L3,1 L5,12 L5,32 L4,34 L8,34 L8,25 L9,25 L9,35 L3,35 L3,32 L0,32 Z " fill="#5539A0" transform="translate(31,37)"/>
<path d="M0,0 L12,0 L12,3 L17,3 L16,8 L8,8 L8,12 L3,12 L3,10 L5,10 L4,4 L-4,3 L-4,1 Z " fill="#6349C4" transform="translate(72,48)"/>
<path d="M0,0 L8,1 L6,2 L6,4 L9,4 L10,7 L13,8 L13,5 L18,4 L25,5 L25,8 L23,9 L21,13 L12,10 L5,8 L4,4 L0,4 Z " fill="#5A40B1" transform="translate(40,28)"/>
<path d="M0,0 L6,0 L4,1 L3,4 L1,4 L1,11 L2,11 L3,19 L4,22 L9,21 L9,29 L6,30 L5,33 L-2,32 L-2,30 L3,28 L1,21 L-2,13 L-2,3 Z " fill="#6B5FC5" transform="translate(54,68)"/>
<path d="M0,0 L1,0 L2,22 L2,34 L7,34 L10,36 L10,38 L17,39 L18,36 L18,40 L8,40 L8,38 L4,38 L4,36 L-2,36 L-2,22 L0,22 Z " fill="#604CAA" transform="translate(42,62)"/>
<path d="M0,0 L10,0 L10,4 L15,4 L15,9 L11,11 L9,10 L10,8 L4,8 L-1,5 L-3,4 L-3,2 L-6,1 Z " fill="#5640AD" transform="translate(94,48)"/>
<path d="M0,0 L1,3 L3,3 L4,0 L4,4 L2,4 L4,11 L6,12 L6,48 L5,48 L4,16 L3,48 L2,48 L1,13 L0,10 Z M1,11 Z " fill="#090510" transform="translate(24,22)"/>
<path d="M0,0 L4,0 L4,3 L6,3 L7,8 L6,13 L-4,12 L-3,6 Z " fill="#7762DE" transform="translate(48,84)"/>
<path d="M0,0 L11,0 L11,7 L9,7 L9,10 L6,9 L-1,9 L-2,2 L0,2 Z " fill="#5E50C7" transform="translate(98,83)"/>
<path d="M0,0 L3,0 L3,2 L6,3 L6,13 L1,14 L1,16 L4,17 L0,17 L0,11 L2,11 L0,4 L-3,5 L-4,7 L-8,7 L-8,9 L-12,8 L-9,8 L-9,6 L-11,5 L-5,6 L-5,4 L-7,3 L-5,1 L0,2 Z " fill="#42348C" transform="translate(70,69)"/>
<path d="M0,0 L4,0 L8,4 L8,8 L16,8 L16,14 L14,14 L14,18 L12,18 L12,20 L16,20 L16,24 L20,24 L19,28 L19,25 L11,26 L11,23 L15,23 L15,21 L11,21 L10,18 L10,11 L13,11 L13,13 L15,13 L15,9 L6,10 L7,5 L5,5 L5,7 L3,7 L1,3 L3,3 L3,1 Z " fill="#3D3083" transform="translate(78,18)"/>
<path d="M0,0 L7,0 L11,2 L11,8 L8,15 L7,15 L6,5 L4,4 L4,2 L1,2 L1,4 L-4,4 L-4,8 L-10,7 L-8,3 Z " fill="#5442B2" transform="translate(69,67)"/>
<path d="M0,0 L5,0 L5,2 L17,3 L30,5 L31,8 L24,8 L21,7 L16,7 L15,5 L-1,4 Z " fill="#6146BC" transform="translate(45,40)"/>
<path d="M0,0 L10,0 L10,4 L14,5 L1,7 L0,9 L0,5 L-6,5 L-6,4 L0,4 Z " fill="#47368A" transform="translate(52,18)"/>
<path d="M0,0 L1,4 L9,3 L9,5 L11,5 L12,2 L12,6 L10,6 L10,10 L0,10 L0,5 L-3,4 L-1,3 Z " fill="#5549B3" transform="translate(96,88)"/>
<path d="M0,0 L12,0 L12,4 L18,5 L17,10 L16,7 L8,8 L8,4 L4,3 L4,1 L2,1 L2,3 L0,3 Z " fill="#624DC8" transform="translate(88,60)"/>
<path d="M0,0 L1,2 L8,1 L12,4 L8,4 L8,6 L16,7 L16,10 L9,10 L8,7 L3,7 L0,3 Z " fill="#6449BF" transform="translate(60,45)"/>
<path d="M0,0 L2,0 L4,3 L4,6 L6,6 L9,14 L8,17 L1,18 L0,16 L5,17 L5,7 L3,7 L3,4 L-1,4 L-3,10 L-5,12 L-4,6 Z " fill="#735DD4" transform="translate(49,80)"/>
<path d="M0,0 L2,3 L4,14 L6,15 L6,21 L2,20 L1,15 L-1,16 L-2,5 L0,5 Z " fill="#573AA6" transform="translate(33,29)"/>
<path d="M0,0 L2,0 L2,2 L5,3 L5,5 L7,5 L8,1 L8,3 L10,3 L10,5 L14,5 L14,13 L13,13 L13,6 L5,7 L-4,7 L-4,3 L-1,3 L-1,5 L1,5 Z " fill="#5546B5" transform="translate(96,77)"/>
<path d="M0,0 L4,1 L4,3 L1,3 L2,10 L7,14 L7,24 L3,23 L6,23 L6,15 L4,15 L4,21 L3,21 L3,16 L1,16 L-1,13 Z " fill="#574BAA" transform="translate(57,74)"/>
<path d="M0,0 L2,0 L1,7 L-3,8 L-4,13 L-6,11 L-7,5 L-5,2 Z " fill="#523BA6" transform="translate(79,19)"/>
<path d="M0,0 L6,1 L8,0 L8,5 L0,4 L-4,3 L-4,5 L-7,6 L-8,1 Z " fill="#624FCA" transform="translate(96,71)"/>
<path d="M0,0 L2,0 L2,6 L4,8 L2,8 L2,12 L-4,12 L-4,6 L0,6 L0,3 L-3,3 L-3,1 Z " fill="#4B409A" transform="translate(74,82)"/>
<path d="M0,0 L3,1 L3,8 L1,8 L1,11 L-3,11 L-3,2 Z " fill="#675BD5" transform="translate(84,76)"/>
<path d="M0,0 L6,0 L4,1 L3,4 L1,4 L1,11 L2,11 L2,18 L0,17 L-2,13 L-2,3 Z " fill="#6B52C8" transform="translate(54,68)"/>
<path d="M0,0 L2,0 L4,5 L6,6 L15,7 L13,11 L9,10 L10,8 L4,8 L-1,5 L-3,4 L-3,2 L-6,1 Z " fill="#5A44B2" transform="translate(94,48)"/>
<path d="M0,0 L8,0 L8,3 L4,3 L5,12 L4,8 L0,8 Z " fill="#513FA9" transform="translate(76,32)"/>
<path d="M0,0 L5,1 L6,4 L5,9 L-1,8 L-3,6 L1,6 L1,4 L-1,4 Z " fill="#7C6DDC" transform="translate(49,88)"/>
<path d="M0,0 L4,1 L1,1 L2,3 L5,3 L8,8 L7,20 L6,20 L6,10 L2,8 L0,6 Z " fill="#0D0B1A" transform="translate(58,78)"/>
<path d="M0,0 L1,0 L1,7 L0,8 L0,20 L-2,21 L-5,19 L-3,9 L-1,6 Z " fill="#5B4CBF" transform="translate(80,69)"/>
<path d="M0,0 L1,0 L1,20 L0,22 L4,22 L4,13 L5,13 L5,23 L-1,23 L-1,20 L-4,20 L-4,18 L-1,18 L-1,4 Z " fill="#533A97" transform="translate(35,49)"/>
<path d="M0,0 L4,0 L6,6 L12,8 L9,9 L2,7 L2,5 L-6,4 L-6,3 L0,3 Z " fill="#5841B3" transform="translate(76,40)"/>
<path d="M0,0 L8,0 L10,1 L9,4 L7,3 L7,1 L4,1 L4,3 L-1,3 L-1,7 L-7,6 L-5,2 Z " fill="#553EA5" transform="translate(66,68)"/>
<path d="M0,0 L4,0 L8,4 L8,8 L16,8 L16,14 L15,14 L15,9 L6,10 L7,5 L5,5 L5,7 L3,7 L1,3 L3,3 L3,1 Z " fill="#3F2F7F" transform="translate(78,18)"/>
<path d="M0,0 L1,2 L3,2 L3,25 L2,25 L2,6 L-3,5 L-3,3 L0,3 Z " fill="#6C4EC3" transform="translate(43,56)"/>
<path d="M0,0 L11,0 L10,4 L8,4 L8,2 L3,4 L-7,4 L-7,3 L0,2 Z " fill="#6C4CC8" transform="translate(50,50)"/>
<path d="M0,0 L2,1 L13,2 L13,7 L11,7 L10,9 L10,7 L8,7 L8,3 L0,3 Z " fill="#4F3AA1" transform="translate(96,45)"/>
<path d="M0,0 L6,0 L7,4 L-4,4 L-4,1 Z " fill="#51399E" transform="translate(66,24)"/>
<path d="M0,0 L6,0 L6,6 L0,6 Z " fill="#352F6F" transform="translate(100,100)"/>
<path d="M0,0 L7,0 L5,3 L2,4 L1,6 L-3,6 L-3,8 L-7,7 L-4,7 L-4,5 L-6,4 L0,5 L0,3 L-2,2 Z " fill="#453288" transform="translate(65,70)"/>
<path d="M0,0 L8,0 L10,1 L9,6 L8,3 L0,4 Z " fill="#6050CB" transform="translate(96,64)"/>
<path d="M0,0 L10,0 L9,4 L9,1 L1,1 L1,3 L7,3 L5,5 L2,5 L1,7 L1,5 L-1,5 L-2,8 L-2,4 L0,4 Z " fill="#3F2F82" transform="translate(68,14)"/>
<path d="M0,0 L1,3 L3,3 L4,0 L4,4 L8,4 L8,8 L2,8 L2,4 L0,4 Z " fill="#0A0813" transform="translate(44,14)"/>
<path d="M0,0 L5,0 L5,6 L0,7 Z " fill="#5B50C1" transform="translate(104,73)"/>
<path d="M0,0 L4,1 L4,6 L6,6 L7,12 L5,12 L5,7 L0,6 Z " fill="#5E49C9" transform="translate(76,62)"/>
<path d="M0,0 L2,0 L2,4 L8,2 L7,10 L4,7 L0,6 Z " fill="#6D52C7" transform="translate(60,54)"/>
<path d="M0,0 L2,0 L3,10 L0,12 L-1,2 Z " fill="#5D3EB3" transform="translate(37,30)"/>
<path d="M0,0 L2,0 L3,3 L9,4 L9,6 L2,6 L-2,5 L-2,2 L0,2 Z " fill="#5B45AB" transform="translate(43,19)"/>
<path d="M0,0 L2,0 L3,6 L0,8 L-5,8 L-6,6 L-1,7 Z " fill="#7567D3" transform="translate(55,90)"/>
<path d="M0,0 L3,0 L3,2 L10,3 L11,0 L11,4 L1,4 L1,2 L-3,1 Z " fill="#4C458C" transform="translate(49,98)"/>
<path d="M0,0 L1,2 L3,2 L3,4 L7,4 L7,12 L6,12 L6,5 L-2,6 Z " fill="#4C45A4" transform="translate(103,78)"/>
<path d="M0,0 L2,0 L2,9 L-2,9 L-2,4 L0,4 Z " fill="#684ABB" transform="translate(37,62)"/>
<path d="M0,0 L2,4 L2,6 L7,7 L7,8 L2,8 L2,12 L0,12 Z " fill="#5C40A9" transform="translate(35,54)"/>
<path d="M0,0 L3,0 L3,2 L5,3 L4,7 L0,7 Z " fill="#453594" transform="translate(88,29)"/>
<path d="M0,0 L6,0 L5,4 L5,1 L1,1 L1,4 L3,4 L3,6 L-3,5 L-4,8 L-4,4 L0,4 Z " fill="#412E78" transform="translate(38,14)"/>
<path d="M0,0 L1,3 L3,3 L4,0 L4,4 L2,4 L2,8 L-2,8 L-2,4 L0,4 Z " fill="#0B0816" transform="translate(64,14)"/>
<path d="M0,0 L5,1 L6,4 L-1,4 Z " fill="#7E6CE6" transform="translate(49,88)"/>
<path d="M0,0 L5,1 L6,5 L0,5 Z " fill="#5648B9" transform="translate(90,86)"/>
<path d="M0,0 L7,0 L11,2 L11,8 L10,4 L0,1 Z " fill="#5843B8" transform="translate(69,67)"/>
<path d="M0,0 L8,0 L5,2 L4,5 L1,4 L1,2 L-2,1 Z " fill="#654BCA" transform="translate(75,49)"/>
<path d="M0,0 L2,0 L2,5 L-3,4 L-3,2 L-6,1 Z " fill="#5740B5" transform="translate(94,48)"/>
<path d="M0,0 L4,0 L4,4 L-6,4 L-6,3 L0,3 Z " fill="#5540AF" transform="translate(76,40)"/>
<path d="M0,0 L4,0 L4,3 L7,3 L6,7 L6,4 L2,5 L2,3 L0,3 Z " fill="#533D99" transform="translate(39,15)"/>
<path d="M0,0 L2,0 L2,4 L4,5 L2,5 L2,8 L0,8 L-1,3 Z " fill="#5951C1" transform="translate(105,85)"/>
<path d="M0,0 L4,0 L3,5 L0,6 Z " fill="#6852D6" transform="translate(83,60)"/>
<path d="M0,0 L3,1 L2,4 L-3,6 L-3,2 Z " fill="#6558D2" transform="translate(84,76)"/>
<path d="M0,0 L6,0 L6,3 L-1,3 Z " fill="#5240AD" transform="translate(78,32)"/>
<path d="M0,0 L8,0 L8,2 L2,2 L2,4 L0,4 Z " fill="#5641A7" transform="translate(53,19)"/>
<path d="M0,0 L3,0 L3,3 L1,4 L0,11 L-1,11 L-1,2 Z " fill="#5C4EC3" transform="translate(89,77)"/>
<path d="M0,0 L8,0 L8,4 L6,4 L6,2 L1,2 Z " fill="#533DAB" transform="translate(96,48)"/>
<path d="M0,0 L6,0 L6,2 L4,4 L0,4 Z " fill="#7766D0" transform="translate(44,92)"/>
<path d="M0,0 L2,2 L2,5 L0,5 L-1,7 L-2,2 Z " fill="#6648BA" transform="translate(40,54)"/>
<path d="M0,0 L4,1 L4,3 L1,3 L1,10 L0,10 Z " fill="#4F3E9A" transform="translate(57,74)"/>
<path d="M0,0 L3,1 L1,1 L1,6 L-3,5 L-3,3 Z " fill="#5537A0" transform="translate(32,28)"/>
<path d="M0,0 L1,0 L1,8 L-1,8 L-2,1 Z " fill="#4E3194" transform="translate(29,26)"/>
<path d="M0,0 L4,0 L4,4 L0,4 Z " fill="#4E44A8" transform="translate(101,101)"/>
<path d="M0,0 L4,0 L4,4 L0,4 Z " fill="#6859D1" transform="translate(71,89)"/>
<path d="M0,0 L3,2 L3,4 L5,4 L5,6 L3,6 L2,8 L0,3 Z " fill="#6B5BCC" transform="translate(55,86)"/>
<path d="M0,0 L2,0 L2,6 L-1,8 Z " fill="#6A54C6" transform="translate(46,76)"/>
<path d="M0,0 L7,0 L7,4 L5,4 L5,2 L0,1 Z " fill="#4B389F" transform="translate(86,27)"/>
<path d="M0,0 L2,0 L3,5 L0,7 Z " fill="#675CC1" transform="translate(58,92)"/>
<path d="M0,0 L5,0 L5,3 L0,3 Z " fill="#543EAA" transform="translate(75,23)"/>
<path d="M0,0 L3,0 L3,5 L-1,4 L1,4 Z " fill="#5E46BC" transform="translate(73,62)"/>
<path d="M0,0 L1,0 L1,6 L-2,6 Z " fill="#7862D7" transform="translate(47,86)"/>
<path d="M0,0 L4,1 L2,1 L1,4 L-1,4 Z " fill="#6B50C2" transform="translate(56,68)"/>
<path d="M0,0 L5,0 L5,2 L0,3 Z " fill="#6A4FC7" transform="translate(72,56)"/>
<path d="M0,0 L7,1 L3,3 L0,3 Z " fill="#48368E" transform="translate(59,21)"/>
<path d="M0,0 L3,0 L4,3 L0,3 Z " fill="#352C6F" transform="translate(98,80)"/>
<path d="M0,0 L3,0 L3,2 L5,3 L1,4 Z " fill="#4F3AA1" transform="translate(70,69)"/>
<path d="M0,0 L3,0 L3,3 L-1,2 Z " fill="#4F349A" transform="translate(35,21)"/>
<path d="M0,0 L3,0 L3,3 L0,3 Z " fill="#4E3EA3" transform="translate(76,37)"/>
<path d="M0,0 L3,0 L3,3 L0,2 Z " fill="#6650D3" transform="translate(84,72)"/>
<path d="M0,0 L3,1 L1,3 L-2,1 Z " fill="#4B379B" transform="translate(75,17)"/>
<path d="M0,0 L2,2 L-1,3 Z " fill="#6C5FC3" transform="translate(48,96)"/>
</svg>
