<?xml version="1.0" encoding="UTF-8"?>
<!-- Generator: visioncortex VTracer 0.6.4 -->
<svg version="1.1" xmlns="http://www.w3.org/2000/svg" width="166" height="138">
<path d="M0,0 L166,0 L166,138 L0,138 Z " fill="#000100" transform="translate(0,0)"/>
<path d="M0,0 L18,0 L18,10 L14,10 L14,12 L6,12 L6,14 L4,14 L4,16 L6,16 L6,18 L14,18 L14,16 L16,16 L16,12 L28,12 L30,15 L42,16 L42,14 L50,14 L50,18 L52,18 L54,14 L56,14 L56,12 L66,12 L66,14 L70,14 L70,18 L72,18 L72,14 L78,14 L78,20 L74,20 L74,26 L76,26 L76,28 L78,28 L78,36 L70,36 L70,40 L78,40 L78,46 L70,46 L70,50 L50,50 L50,62 L54,62 L54,74 L50,74 L50,80 L46,80 L46,82 L38,82 L38,78 L32,78 L32,82 L18,82 L18,78 L10,78 L10,82 L-4,82 L-4,78 L-6,78 L-6,82 L-14,82 L-14,78 L-18,78 L-18,70 L-10,70 L-10,62 L-4,62 L-4,72 L0,72 L0,76 L6,76 L6,70 L0,70 L0,60 L-2,60 L-2,46 L-14,46 L-14,50 L-32,50 L-32,41 L-34,40 L-34,28 L-38,28 L-38,22 L-34,22 L-34,18 L-30,18 L-30,14 L-16,14 L-16,18 L-14,18 L-14,12 L-12,12 L-12,10 L-10,10 L-10,8 L-14,8 L-14,2 L-8,2 L-8,4 L-4,4 L-4,2 L0,2 Z " fill="#9CEA17" transform="translate(66,18)"/>
<path d="M0,0 L3,0 L3,2 L18,3 L23,6 L27,8 L33,8 L33,10 L48,10 L48,12 L58,12 L59,9 L67,9 L67,7 L60,7 L60,6 L68,6 L68,12 L60,12 L60,16 L40,16 L40,28 L44,28 L44,40 L40,40 L40,46 L36,46 L36,48 L28,48 L28,44 L22,44 L22,48 L8,48 L8,44 L0,44 L0,48 L-14,48 L-14,44 L-16,44 L-16,48 L-24,48 L-24,44 L-28,44 L-28,36 L-20,36 L-20,28 L-14,28 L-14,38 L-10,38 L-10,42 L-4,42 L-4,36 L-10,36 L-10,26 L-12,26 L-12,12 L-24,12 L-24,16 L-42,16 L-42,10 L-40,8 L-40,11 L-13,11 L-13,6 L-6,6 L-4,2 L-1,2 L0,3 Z " fill="#60A706" transform="translate(76,52)"/>
<path d="M0,0 L15,1 L15,2 L7,2 L7,4 L5,4 L5,6 L7,6 L7,8 L15,8 L15,6 L17,6 L17,2 L29,2 L31,5 L43,6 L43,4 L51,4 L51,8 L53,8 L55,4 L57,4 L57,2 L67,2 L67,4 L71,4 L71,8 L73,8 L73,4 L79,4 L79,10 L75,10 L75,16 L77,16 L77,18 L79,18 L79,26 L70,26 L70,31 L61,31 L57,30 L37,28 L37,26 L28,26 L27,23 L25,22 L25,20 L20,20 L18,16 L9,15 L3,13 L3,6 L4,4 L2,4 L1,6 Z " fill="#AEDF12" transform="translate(65,28)"/>
<path d="M0,0 L2,0 L2,3 L10,2 L10,4 L16,4 L16,7 L21,7 L24,11 L24,14 L31,14 L32,16 L29,16 L29,21 L23,21 L23,19 L13,19 L13,21 L11,21 L11,27 L7,27 L7,29 L25,29 L25,25 L38,25 L38,19 L40,19 L39,33 L38,34 L24,34 L22,33 L22,35 L3,34 L3,39 L-11,39 L-11,35 L-13,35 L-13,39 L-21,39 L-21,35 L-25,35 L-25,27 L-17,27 L-17,19 L-11,19 L-11,29 L-7,29 L-7,33 L-1,33 L-1,27 L-7,27 L-7,17 L-9,17 L-9,3 L0,3 Z " fill="#67AA09" transform="translate(73,61)"/>
<path d="M0,0 L7,0 L7,2 L10,4 L17,5 L17,7 L23,7 L24,9 L35,11 L35,15 L39,15 L39,26 L25,26 L19,25 L19,23 L10,23 L9,20 L7,19 L7,17 L2,17 L-1,13 Z " fill="#BEF01D" transform="translate(83,31)"/>
<path d="M0,0 L14,1 L16,4 L21,5 L21,7 L25,8 L23,8 L24,10 L33,11 L33,13 L53,14 L66,16 L66,11 L67,11 L67,16 L74,16 L74,18 L66,19 L65,21 L55,21 L55,19 L40,19 L40,17 L34,17 L33,20 L33,17 L29,15 L25,13 L10,11 L10,9 L7,9 L8,14 L6,16 L6,11 L2,13 L1,15 L-6,15 L-6,20 L-34,21 L-34,16 L-27,15 L-15,16 L-15,14 L-6,13 L-1,13 L-5,11 L-3,11 L-1,7 Z " fill="#92E414" transform="translate(69,43)"/>
<path d="M0,0 L18,0 L18,10 L14,9 L17,9 L16,4 L0,4 L0,6 L-3,8 L-6,8 L-6,12 L-8,13 L-8,27 L-10,26 L-10,24 L-12,24 L-12,22 L-17,24 L-24,23 L-25,27 L-33,27 L-33,40 L-34,40 L-34,28 L-38,28 L-38,22 L-34,22 L-34,18 L-30,18 L-30,14 L-16,14 L-16,18 L-14,18 L-14,12 L-12,12 L-12,10 L-10,10 L-10,8 L-14,8 L-14,2 L-8,2 L-8,4 L-4,4 L-4,2 L0,2 Z " fill="#8EC81E" transform="translate(66,18)"/>
<path d="M0,0 L8,0 L8,6 L0,6 L0,10 L-20,10 L-20,22 L-16,22 L-16,34 L-20,34 L-20,40 L-24,40 L-24,42 L-32,42 L-31,38 L-31,41 L-29,41 L-29,38 L-21,39 L-22,22 L-22,14 L-26,16 L-27,12 L-33,11 L-33,16 L-34,16 L-34,10 L-28,10 L-28,2 L-27,4 L-12,4 L-12,6 L-2,6 L-1,3 L7,3 L7,1 L0,1 Z " fill="#4D8D05" transform="translate(136,58)"/>
<path d="M0,0 L3,0 L3,2 L18,3 L23,6 L28,8 L28,12 L22,12 L22,8 L16,8 L16,4 L8,4 L8,8 L4,8 L4,10 L8,10 L8,12 L14,12 L13,16 L13,13 L7,13 L7,11 L5,12 L-1,12 L-1,9 L-3,9 L-3,12 L-24,12 L-24,16 L-42,16 L-42,10 L-40,8 L-40,11 L-13,11 L-13,6 L-6,6 L-4,2 L-1,2 L0,3 Z " fill="#5E9F06" transform="translate(76,52)"/>
<path d="M0,0 L5,1 L8,2 L22,3 L27,8 L34,8 L34,6 L38,6 L38,4 L40,4 L40,15 L26,15 L20,14 L20,12 L11,12 L10,9 L8,8 L8,6 L3,6 L0,2 Z " fill="#A6F317" transform="translate(82,42)"/>
<path d="M0,0 L15,1 L15,2 L7,2 L7,4 L5,4 L5,6 L7,6 L7,8 L15,8 L15,6 L17,6 L17,2 L29,2 L31,5 L43,6 L43,4 L51,4 L51,8 L53,9 L50,10 L35,10 L35,8 L28,8 L27,7 L20,6 L20,5 L25,5 L25,3 L18,3 L19,9 L17,16 L9,15 L3,13 L3,6 L4,4 L2,4 L1,6 Z " fill="#B5E519" transform="translate(65,28)"/>
<path d="M0,0 L9,2 L10,5 L13,6 L13,8 L11,9 L1,9 L1,11 L-2,12 L-2,17 L-18,17 L-18,9 L-10,6 L-9,3 Z " fill="#BAEF11" transform="translate(85,70)"/>
<path d="M0,0 L10,0 L10,2 L14,2 L14,6 L16,6 L16,2 L22,2 L22,8 L18,8 L18,14 L20,14 L20,16 L22,16 L22,24 L14,24 L14,23 L21,23 L21,21 L16,21 L15,13 L11,12 L11,10 L8,10 L8,4 L2,5 L-1,8 L-4,6 L-2,2 L0,2 Z " fill="#AEE420" transform="translate(122,30)"/>
<path d="M0,0 L6,0 L6,10 L4,14 L10,16 L19,18 L20,16 L20,20 L6,20 L6,16 L4,16 L4,20 L-4,20 L-4,16 L-8,16 L-8,8 L0,8 Z " fill="#88B407" transform="translate(56,80)"/>
<path d="M0,0 L8,0 L8,4 L14,4 L14,8 L20,8 L20,4 L24,4 L24,12 L18,12 L18,18 L13,17 L10,14 L10,12 L6,12 L6,8 L0,8 L0,6 L-4,6 L-4,4 L0,4 Z " fill="#080D00" transform="translate(84,56)"/>
<path d="M0,0 L4,0 L4,2 L8,2 L8,8 L-4,8 L-4,12 L-22,12 L-22,10 L-18,10 L-18,4 L-16,4 L-16,2 L-6,2 L-6,4 L0,4 Z " fill="#060900" transform="translate(102,78)"/>
<path d="M0,0 L4,0 L5,9 L7,9 L8,15 L0,15 L0,17 L-8,17 L-8,6 L-5,3 L-7,3 L-7,1 L-1,1 Z " fill="#A3F419" transform="translate(50,40)"/>
<path d="M0,0 L1,2 L3,2 L2,5 L0,5 L0,16 L8,16 L8,14 L20,14 L20,12 L24,13 L27,16 L12,16 L12,18 L-8,18 L-9,17 L-9,4 L-1,4 Z " fill="#98E811" transform="translate(42,41)"/>
<path d="M0,0 L8,0 L8,2 L19,2 L23,5 L23,8 L30,8 L31,10 L28,10 L28,15 L22,15 L22,13 L12,13 L12,12 L24,11 L24,9 L20,8 L20,5 L11,4 L7,6 L2,6 L1,10 L-4,12 L-7,12 L-6,9 L-4,9 L-3,1 Z " fill="#92E009" transform="translate(74,67)"/>
<path d="M0,0 L2,0 L2,3 L10,2 L10,4 L16,4 L16,7 L21,7 L20,9 L9,8 L9,6 L-2,7 L-3,15 L-5,16 L-6,26 L-1,26 L-1,27 L-7,27 L-7,17 L-9,17 L-9,3 L0,3 Z " fill="#74BA08" transform="translate(73,61)"/>
<path d="M0,0 L14,0 L13,4 L13,1 L5,2 L4,4 L10,5 L10,8 L6,8 L5,13 L-3,13 L-3,26 L-4,26 L-4,14 L-8,14 L-8,8 L-4,8 L-4,4 L0,4 Z " fill="#53870E" transform="translate(36,32)"/>
<path d="M0,0 L7,1 L6,4 L-1,4 L-1,9 L-29,10 L-29,5 L-22,4 L-10,5 L-10,3 L-1,2 L4,2 Z " fill="#87D00E" transform="translate(64,54)"/>
<path d="M0,0 L32,0 L32,4 L34,4 L34,6 L30,6 L30,8 L23,9 L22,6 L18,4 L2,3 Z " fill="#B7FA1B" transform="translate(86,42)"/>
<path d="M0,0 L8,0 L8,6 L-1,6 L-1,9 L-20,9 L-25,8 L-25,10 L-27,10 L-27,4 L-12,4 L-12,6 L-2,6 L-1,3 L7,3 L7,1 L0,1 Z " fill="#69AC09" transform="translate(136,58)"/>
<path d="M0,0 L6,0 L6,4 L3,4 L2,12 L-6,12 L-6,8 L-17,7 L-18,4 L-6,2 L-4,1 L-3,3 L-1,3 Z " fill="#B5E716" transform="translate(124,34)"/>
<path d="M0,0 L1,0 L1,5 L8,5 L8,7 L0,8 L-1,10 L-11,10 L-11,8 L-26,8 L-26,6 L-32,6 L-33,9 L-33,6 L-37,4 L-41,1 L-34,2 L-32,4 L-1,5 Z " fill="#7EC70C" transform="translate(135,54)"/>
<path d="M0,0 L3,1 L3,16 L1,15 L1,13 L-1,13 L-1,11 L-6,13 L-13,12 L-9,11 L-9,8 L-17,8 L-15,4 L-6,4 L-6,7 L-2,7 L-2,2 L0,2 Z " fill="#99E21A" transform="translate(55,29)"/>
<path d="M0,0 L5,1 L1,3 L-6,6 L-7,8 L-10,8 L-10,12 L-4,12 L-4,17 L-18,17 L-18,9 L-10,6 L-9,3 Z " fill="#AEE811" transform="translate(85,70)"/>
<path d="M0,0 L15,1 L15,2 L7,2 L7,4 L5,4 L5,6 L7,6 L7,9 L14,9 L14,14 L16,14 L16,7 L19,6 L17,16 L9,15 L3,13 L3,6 L4,4 L2,4 L1,6 Z " fill="#ABE415" transform="translate(65,28)"/>
<path d="M0,0 L4,2 L2,2 L2,8 L-2,8 L-2,11 L16,11 L16,13 L2,14 L-9,14 L-10,7 L-7,6 L1,7 Z " fill="#93C40A" transform="translate(82,80)"/>
<path d="M0,0 L16,0 L17,5 L15,5 L14,3 L6,5 L-3,5 L-2,10 L-6,10 L-6,12 L-9,11 L-8,8 L-6,8 L-6,4 L0,2 Z " fill="#A8F01E" transform="translate(66,22)"/>
<path d="M0,0 L1,0 L1,6 L-11,6 L-11,10 L-29,10 L-29,4 L-27,2 L-27,5 L0,5 Z " fill="#599005" transform="translate(63,58)"/>
<path d="M0,0 L1,3 L0,5 L-8,5 L-15,4 L-13,8 L-11,8 L-11,16 L-15,19 L-17,17 L-17,10 L-20,10 L-20,8 L-16,8 L-17,3 L-3,1 Z " fill="#A4E316" transform="translate(80,24)"/>
<path d="M0,0 L1,2 L3,2 L2,5 L0,5 L0,13 L-4,14 L-6,13 L-7,16 L-9,16 L-9,4 L-1,4 Z " fill="#A0EE21" transform="translate(42,41)"/>
<path d="M0,0 L5,0 L6,14 L1,16 L1,13 L-4,12 L-4,8 L-2,8 L-1,10 Z " fill="#99E517" transform="translate(58,34)"/>
<path d="M0,0 L6,0 L6,6 L10,6 L10,12 L4,12 L4,10 L0,10 Z " fill="#62980A" transform="translate(20,52)"/>
<path d="M0,0 L1,0 L1,8 L3,8 L3,6 L27,7 L28,4 L28,8 L8,8 L8,20 L7,20 L6,12 L2,14 L1,10 L-5,9 L-5,14 L-6,14 L-6,8 L0,8 Z " fill="#508A07" transform="translate(108,60)"/>
<path d="M0,0 L3,0 L4,8 L9,8 L9,10 L2,11 L1,15 L-7,15 L-8,11 L0,10 Z " fill="#AFE41B" transform="translate(134,43)"/>
<path d="M0,0 L10,0 L14,3 L14,6 L21,6 L22,8 L19,8 L19,13 L13,13 L13,11 L3,11 L3,10 L15,9 L15,7 L11,6 L11,3 L5,2 L0,1 Z " fill="#97CE13" transform="translate(83,69)"/>
<path d="M0,0 L9,1 L20,4 L21,2 L21,6 L7,6 L7,2 L5,2 L5,6 L-3,6 L-2,2 L-2,5 L0,5 Z " fill="#688906" transform="translate(55,94)"/>
<path d="M0,0 L4,0 L4,12 L7,13 L6,15 L3,15 L2,18 L2,12 L-2,12 L-2,6 L-8,6 L-8,5 L-1,5 L-1,3 L3,3 L3,1 Z " fill="#162104" transform="translate(28,46)"/>
<path d="M0,0 L3,1 L4,4 L1,4 L1,7 L3,8 L-3,9 L-3,7 L-12,7 L-13,4 L-5,2 L0,2 Z " fill="#A5F31B" transform="translate(105,47)"/>
<path d="M0,0 L14,1 L14,2 L2,2 L2,6 L0,6 L0,8 L-8,8 L-8,6 L-10,6 L-10,4 L-8,4 L-8,2 L0,2 Z " fill="#090C00" transform="translate(80,28)"/>
<path d="M0,0 L3,1 L3,6 L-11,6 L-11,2 L-19,2 L-19,1 L-5,1 L0,2 Z " fill="#628C0B" transform="translate(95,94)"/>
<path d="M0,0 L1,0 L1,10 L7,10 L7,16 L1,16 L1,12 L-3,12 L-3,2 L-2,4 L0,4 Z " fill="#1B2403" transform="translate(65,78)"/>
<path d="M0,0 L8,0 L8,5 L13,5 L13,7 L0,7 L-4,6 L-4,4 L0,4 Z " fill="#060A00" transform="translate(84,56)"/>
<path d="M0,0 L1,2 L3,1 L14,0 L27,0 L27,3 L-1,4 Z " fill="#7BBF09" transform="translate(36,60)"/>
<path d="M0,0 L8,0 L8,2 L28,3 L40,5 L40,6 L9,5 L4,2 Z " fill="#96E215" transform="translate(94,54)"/>
<path d="M0,0 L6,0 L6,12 L0,12 Z " fill="#6C910A" transform="translate(42,108)"/>
<path d="M0,0 L12,0 L12,14 L11,14 L11,4 L9,4 L10,13 L5,13 L8,12 L8,4 L0,4 Z " fill="#0A0F00" transform="translate(52,64)"/>
<path d="M0,0 L5,0 L5,2 L3,2 L3,6 L5,6 L5,10 L-2,11 L-3,10 L-3,2 Z " fill="#9FF818" transform="translate(45,44)"/>
<path d="M0,0 L20,0 L20,1 L1,1 L1,3 L20,3 L20,4 L4,4 L4,9 L1,9 L1,11 L4,12 L0,12 Z " fill="#0A1201" transform="translate(116,68)"/>
<path d="M0,0 L2,0 L2,3 L9,3 L10,6 L14,7 L-4,7 L-4,3 Z " fill="#C0F31A" transform="translate(88,35)"/>
<path d="M0,0 L2,0 L2,6 L0,6 L0,10 L-8,10 L-8,4 L-2,4 Z " fill="#172502" transform="translate(72,54)"/>
<path d="M0,0 L4,0 L4,10 L-2,10 L-2,6 L0,6 L0,4 L-7,3 L-7,1 L-1,1 Z " fill="#9FF71C" transform="translate(50,40)"/>
<path d="M0,0 L6,0 L5,8 L7,8 L7,10 L-1,9 L1,7 L-6,6 L-5,4 L0,5 Z " fill="#75BF0A" transform="translate(103,69)"/>
<path d="M0,0 L4,0 L4,4 L6,4 L6,0 L12,0 L12,6 L8,6 L8,12 L7,12 L6,7 L2,6 L3,1 Z " fill="#74A519" transform="translate(132,32)"/>
<path d="M0,0 L9,0 L9,3 L12,4 L10,4 L8,8 L2,8 L6,7 L6,4 L-2,4 Z " fill="#7AC211" transform="translate(40,33)"/>
<path d="M0,0 L9,0 L12,2 L12,4 L15,5 L5,5 L0,4 L0,2 L-3,1 Z " fill="#7DC90B" transform="translate(79,50)"/>
<path d="M0,0 L1,0 L1,5 L6,5 L6,10 L15,11 L15,13 L6,12 L-1,10 L0,7 Z " fill="#88AF0B" transform="translate(60,85)"/>
<path d="M0,0 L8,0 L11,1 L11,3 L24,2 L24,4 L5,4 L0,3 Z " fill="#64AC07" transform="translate(111,63)"/>
<path d="M0,0 L3,0 L3,5 L-3,6 L-2,12 L-4,14 L-4,5 L-6,5 L-6,1 Z " fill="#88D910" transform="translate(79,45)"/>
<path d="M0,0 L11,0 L11,7 L1,7 L4,5 L7,5 L7,2 L0,2 Z " fill="#76BC05" transform="translate(99,87)"/>
<path d="M0,0 L4,0 L5,3 L8,4 L8,6 L6,7 L-4,7 L-4,4 L0,4 Z " fill="#B8ED1C" transform="translate(90,72)"/>
<path d="M0,0 L5,0 L5,2 L7,2 L7,10 L-1,10 L-1,9 L6,9 L6,7 L1,7 Z " fill="#94CB1C" transform="translate(137,44)"/>
<path d="M0,0 L14,0 L14,2 L10,2 L10,4 L3,5 L2,2 L0,2 Z " fill="#AAFB1C" transform="translate(106,46)"/>
<path d="M0,0 L5,1 L8,2 L22,3 L22,4 L15,5 L6,5 L1,4 Z " fill="#B0F519" transform="translate(82,42)"/>
<path d="M0,0 L8,0 L9,3 L1,4 L0,6 L-2,6 L-3,9 L-4,9 L-3,1 Z " fill="#80CF06" transform="translate(74,67)"/>
<path d="M0,0 L9,0 L11,3 L16,4 L16,6 L20,7 L18,7 L19,10 L17,10 L17,8 L8,6 L8,1 L0,2 Z " fill="#99E312" transform="translate(74,44)"/>
<path d="M0,0 L6,0 L3,1 L2,10 L-7,9 L-7,15 L-4,16 L-8,16 L-8,8 L0,8 Z " fill="#5F8606" transform="translate(56,80)"/>
<path d="M0,0 L1,4 L-3,4 L-3,6 L1,6 L1,8 L7,8 L6,12 L6,9 L0,9 L0,7 L-2,8 L-8,8 L-7,4 L-6,2 L0,3 Z " fill="#4C8602" transform="translate(83,56)"/>
<path d="M0,0 L8,0 L9,5 L7,5 L6,3 L3,4 L-5,4 L-6,1 Z " fill="#B2F91E" transform="translate(74,22)"/>
<path d="M0,0 L6,0 L6,2 L10,2 L10,0 L14,1 L11,1 L11,3 L6,3 L5,8 L4,6 L0,6 Z " fill="#5D9410" transform="translate(52,20)"/>
<path d="M0,0 L4,0 L4,2 L8,2 L8,8 L-4,8 L-4,7 L7,7 L7,3 L4,3 L4,5 L-6,5 L-6,4 L0,4 Z " fill="#182403" transform="translate(102,78)"/>
<path d="M0,0 L12,0 L11,2 L1,1 L1,5 L-1,5 L0,9 L-1,12 L-3,12 L-3,10 L-8,10 L-8,9 L-3,9 L-3,7 L-10,7 L-10,6 L-2,6 L-2,4 L0,4 Z " fill="#91B710" transform="translate(82,30)"/>
<path d="M0,0 L7,0 L7,2 L13,5 L13,6 L8,6 L4,6 L1,7 L0,11 Z " fill="#BAEA1A" transform="translate(83,31)"/>
<path d="M0,0 L1,0 L1,11 L-13,11 L-13,10 L-5,10 L-5,7 L-3,7 L-3,5 L0,5 Z " fill="#A4EF14" transform="translate(121,46)"/>
<path d="M0,0 L1,0 L1,6 L20,5 L20,7 L0,8 L-6,7 L-6,6 L0,6 Z " fill="#82AA0E" transform="translate(72,88)"/>
<path d="M0,0 L8,0 L8,1 L1,1 L1,3 L6,3 L4,10 L3,8 L1,8 L1,14 L0,14 Z " fill="#5C9406" transform="translate(64,64)"/>
<path d="M0,0 L15,1 L15,2 L7,2 L7,4 L5,4 L5,6 L7,6 L6,8 L3,8 L4,4 L2,4 L1,6 Z " fill="#91BC10" transform="translate(65,28)"/>
<path d="M0,0 L4,0 L4,4 L0,4 L-1,6 L-4,6 L-8,6 L-7,3 Z " fill="#BAF417" transform="translate(86,72)"/>
<path d="M0,0 L10,0 L10,2 L15,0 L16,7 L12,7 L12,3 L1,2 Z " fill="#BAEC18" transform="translate(106,39)"/>
<path d="M0,0 L7,0 L7,3 L-19,2 L-19,1 Z " fill="#71A50B" transform="translate(99,89)"/>
<path d="M0,0 L5,0 L5,5 L-3,5 L-4,1 Z " fill="#BAE21E" transform="translate(130,53)"/>
<path d="M0,0 L8,0 L7,4 L7,1 L5,1 L5,4 L-13,3 L-12,1 L0,2 Z " fill="#87AF0E" transform="translate(108,32)"/>
<path d="M0,0 L10,0 L10,1 L2,2 L9,3 L9,4 L2,4 L2,7 L-2,8 L-2,2 L0,2 Z " fill="#151902" transform="translate(86,80)"/>
<path d="M0,0 L4,1 L4,3 L11,3 L11,1 L13,2 L12,4 L4,4 L4,17 L3,17 L3,4 L0,4 Z " fill="#6EA515" transform="translate(29,41)"/>
<path d="M0,0 L1,2 L7,2 L12,4 L12,8 L6,8 L6,4 L0,4 Z " fill="#538A04" transform="translate(92,56)"/>
<path d="M0,0 L6,0 L7,2 L10,2 L8,6 L8,4 L-1,4 L-2,1 Z " fill="#A2F01C" transform="translate(94,50)"/>
<path d="M0,0 L1,2 L3,2 L2,5 L-1,7 L-9,7 L-9,4 L-1,4 Z " fill="#98E624" transform="translate(42,41)"/>
<path d="M0,0 L4,2 L2,2 L2,8 L-3,8 L-3,10 L-7,9 L-8,12 L-10,8 L-9,6 L1,7 Z " fill="#A4CC13" transform="translate(82,80)"/>
<path d="M0,0 L5,0 L6,8 L0,7 Z " fill="#9EE316" transform="translate(58,34)"/>
<path d="M0,0 L14,1 L14,2 L2,2 L1,6 L1,3 L-7,3 L-8,6 L-10,6 L-10,4 L-8,4 L-8,2 L0,2 Z " fill="#202804" transform="translate(80,28)"/>
<path d="M0,0 L6,0 L6,6 L0,6 Z " fill="#62800C" transform="translate(32,104)"/>
<path d="M0,0 L5,1 L1,3 L-6,6 L-7,8 L-11,7 L-9,3 Z " fill="#A8F40B" transform="translate(85,70)"/>
<path d="M0,0 L8,0 L8,2 L4,2 L4,4 L2,4 L2,6 L-4,6 L-4,4 L0,4 Z " fill="#131E03" transform="translate(38,38)"/>
<path d="M0,0 L1,0 L1,6 L-3,6 L-3,8 L-11,8 L-10,4 L-10,7 L-8,7 L-8,4 L0,5 Z " fill="#488403" transform="translate(115,92)"/>
<path d="M0,0 L2,0 L2,2 L5,1 L5,4 L3,5 L2,15 L7,15 L7,16 L1,16 Z " fill="#79B10C" transform="translate(65,72)"/>
<path d="M0,0 L13,1 L13,3 L0,4 L0,2 L-2,1 Z " fill="#8EDA0D" transform="translate(37,58)"/>
<path d="M0,0 L4,0 L4,4 L0,4 L0,7 L-3,7 L-3,1 Z " fill="#A3E41A" transform="translate(70,78)"/>
<path d="M0,0 L4,0 L4,8 L-2,8 L-2,7 L3,7 L3,5 L-6,5 L-6,4 L0,4 Z " fill="#132001" transform="translate(104,60)"/>
<path d="M0,0 L1,3 L0,5 L-8,5 L-12,3 Z " fill="#B4E917" transform="translate(80,24)"/>
<path d="M0,0 L4,1 L5,5 L1,8 L-1,6 Z " fill="#A5EB18" transform="translate(64,35)"/>
<path d="M0,0 L1,0 L1,5 L8,5 L8,7 L-5,8 L-5,6 L-1,5 Z " fill="#91C413" transform="translate(135,54)"/>
<path d="M0,0 L10,0 L10,1 L1,1 L2,5 L-1,8 L-4,6 L-2,2 L0,2 Z " fill="#88BB14" transform="translate(122,30)"/>
<path d="M0,0 L5,0 L4,7 L0,7 Z " fill="#B7E817" transform="translate(122,39)"/>
<path d="M0,0 L2,0 L2,3 L5,4 L2,5 L-8,5 L-9,2 L0,3 Z " fill="#A9D813" transform="translate(113,33)"/>
<path d="M0,0 L2,0 L2,7 L-3,6 L-3,8 L-5,8 L-5,13 L-6,13 L-6,7 L-4,7 L-4,5 L-1,5 Z " fill="#7EC016" transform="translate(58,23)"/>
<path d="M0,0 L4,0 L4,2 L2,2 L2,4 L0,4 L0,10 L-2,10 L-2,4 L-6,2 L0,2 Z " fill="#0F1803" transform="translate(52,26)"/>
<path d="M0,0 L2,0 L1,5 L-5,4 L-5,7 L-7,7 L-7,4 L-14,4 L-14,3 L-1,2 Z " fill="#579B05" transform="translate(112,92)"/>
<path d="M0,0 L4,0 L4,6 L1,4 L-5,4 L-7,3 L-7,1 L-1,1 Z " fill="#9BEE1C" transform="translate(50,40)"/>
<path d="M0,0 L4,1 L1,1 L2,4 L6,6 L2,6 L1,8 L0,6 L-3,5 L-3,9 L0,10 L-4,10 L-4,4 L0,4 Z " fill="#49770C" transform="translate(32,36)"/>
<path d="M0,0 L3,0 L2,5 L-4,8 L-8,7 L-4,5 Z " fill="#93E01A" transform="translate(53,34)"/>
<path d="M0,0 L6,0 L6,4 L-3,4 L-1,3 Z " fill="#B0EF1D" transform="translate(124,34)"/>
<path d="M0,0 L10,0 L14,4 L11,5 L11,3 L5,2 L0,1 Z " fill="#99DC14" transform="translate(83,69)"/>
<path d="M0,0 L9,0 L10,3 L0,3 Z " fill="#9EE223" transform="translate(123,31)"/>
<path d="M0,0 L5,1 L5,6 L0,5 Z " fill="#97DE12" transform="translate(58,41)"/>
<path d="M0,0 L4,1 L4,3 L8,4 L-8,4 L-8,3 L0,3 Z " fill="#C2F71D" transform="translate(94,38)"/>
<path d="M0,0 L3,0 L3,6 L-2,5 L-3,3 L-1,3 Z " fill="#121C01" transform="translate(99,68)"/>
<path d="M0,0 L4,0 L5,3 L13,4 L13,5 L4,5 L0,4 Z " fill="#ABE517" transform="translate(122,54)"/>
<path d="M0,0 L2,0 L2,8 L-2,7 L-2,2 L0,2 Z " fill="#000100" transform="translate(29,50)"/>
<path d="M0,0 L4,0 L4,2 L2,2 L2,6 L-3,6 L-3,3 L0,3 Z " fill="#A5FD21" transform="translate(46,44)"/>
<path d="M0,0 L4,0 L4,2 L2,2 L2,10 L0,10 Z " fill="#9CCD0C" transform="translate(43,109)"/>
<path d="M0,0 L3,0 L3,9 L1,6 L-1,10 Z " fill="#77AA08" transform="translate(59,81)"/>
<path d="M0,0 L4,0 L3,5 L-3,5 L-3,3 L0,3 Z " fill="#B2EA1B" transform="translate(70,82)"/>
<path d="M0,0 L1,2 L4,3 L4,6 L-2,5 L-4,6 L-4,3 L0,3 Z " fill="#BBEF0F" transform="translate(82,75)"/>
<path d="M0,0 L4,0 L3,8 L2,6 L0,6 Z " fill="#68B308" transform="translate(105,69)"/>
<path d="M0,0 L6,0 L6,4 L2,5 L0,4 Z " fill="#A3F01E" transform="translate(36,50)"/>
<path d="M0,0 L7,0 L7,3 L-2,4 Z " fill="#69B10A" transform="translate(40,33)"/>
<path d="M0,0 L8,0 L8,1 L2,1 L3,3 L6,5 L-3,4 L-2,2 L0,2 Z " fill="#ACF222" transform="translate(66,22)"/>
<path d="M0,0 L3,0 L3,5 L-1,6 L-1,4 L-4,3 L-1,3 Z " fill="#8ED90B" transform="translate(79,45)"/>
<path d="M0,0 L8,0 L9,5 L7,5 L6,3 L0,2 Z " fill="#B8F922" transform="translate(74,22)"/>
<path d="M0,0 L2,3 L0,3 L0,5 L-3,7 L-6,7 L-6,4 L-3,4 L-3,2 L0,2 Z " fill="#96DD24" transform="translate(66,19)"/>
<path d="M0,0 L5,0 L6,4 L0,4 Z " fill="#000000" transform="translate(65,59)"/>
<path d="M0,0 L4,1 L7,4 L-4,3 L0,2 Z " fill="#95E511" transform="translate(62,53)"/>
<path d="M0,0 L6,0 L9,2 L9,4 L12,5 L6,5 L5,1 L0,1 Z " fill="#84CB0C" transform="translate(82,50)"/>
<path d="M0,0 L1,3 L3,3 L4,9 L0,9 Z " fill="#A1F019" transform="translate(54,46)"/>
<path d="M0,0 L5,0 L2,2 L-3,2 L-3,4 L-8,4 L-6,3 L-6,1 Z " fill="#6EA907" transform="translate(98,92)"/>
<path d="M0,0 L1,0 L2,5 L5,6 L5,9 L0,9 Z " fill="#9CCC09" transform="translate(60,85)"/>
<path d="M0,0 L8,0 L8,3 L0,3 Z " fill="#A0F312" transform="translate(42,54)"/>
<path d="M0,0 L5,1 L7,3 L2,4 L-1,3 Z " fill="#8BDC13" transform="translate(67,51)"/>
<path d="M0,0 L1,3 L-2,3 L-2,6 L2,7 L1,9 L-2,9 L-3,2 Z " fill="#A0F81F" transform="translate(45,44)"/>
<path d="M0,0 L10,1 L10,4 L6,4 L6,2 L1,2 Z " fill="#A1F117" transform="translate(84,46)"/>
<path d="M0,0 L5,0 L5,4 L0,4 Z " fill="#7BA403" transform="translate(51,89)"/>
<path d="M0,0 L8,0 L8,1 L1,2 L-1,5 L-4,4 L-3,1 Z " fill="#78C605" transform="translate(74,67)"/>
<path d="M0,0 L2,0 L1,5 L-3,5 L-3,1 Z " fill="#A6E922" transform="translate(133,33)"/>
<path d="M0,0 L3,2 L3,7 L1,7 L0,10 Z " fill="#5B9F04" transform="translate(112,69)"/>
<path d="M0,0 L8,0 L8,2 L-1,3 Z " fill="#73AD09" transform="translate(135,61)"/>
<path d="M0,0 L1,2 L3,2 L2,5 L-2,7 L-4,5 L-1,2 Z " fill="#91E41E" transform="translate(42,41)"/>
<path d="M0,0 L5,1 L5,3 L2,3 L2,8 L0,4 Z " fill="#5BA408" transform="translate(114,80)"/>
<path d="M0,0 L3,0 L3,5 L-3,5 L0,4 Z " fill="#B5E014" transform="translate(78,82)"/>
<path d="M0,0 L2,0 L2,2 L6,2 L5,4 L-6,2 L-6,1 Z " fill="#63A905" transform="translate(81,63)"/>
<path d="M0,0 L3,1 L3,5 L-2,5 L-2,2 L0,2 Z " fill="#99E823" transform="translate(55,29)"/>
<path d="M0,0 L5,0 L5,4 L1,4 Z " fill="#000000" transform="translate(66,89)"/>
<path d="M0,0 L7,0 L7,3 L-1,2 Z " fill="#7EC508" transform="translate(56,60)"/>
<path d="M0,0 L4,1 L2,1 L2,3 L4,4 L-1,4 L-2,1 Z " fill="#9EEC19" transform="translate(94,50)"/>
<path d="M0,0 L5,1 L4,3 L-5,3 L-5,2 L0,2 Z " fill="#AADA1E" transform="translate(90,31)"/>
<path d="M0,0 L4,0 L4,4 L0,4 Z " fill="#A4EA16" transform="translate(70,78)"/>
<path d="M0,0 L5,1 L1,3 L-4,4 L-4,2 Z " fill="#A8F113" transform="translate(85,70)"/>
<path d="M0,0 L2,0 L2,4 L7,4 L7,5 L0,5 L-1,3 Z " fill="#6CB807" transform="translate(73,61)"/>
<path d="M0,0 L1,0 L3,8 L-1,9 L-2,7 L0,7 Z " fill="#98DF16" transform="translate(35,50)"/>
<path d="M0,0 L6,0 L7,3 L0,2 Z " fill="#70B805" transform="translate(81,52)"/>
<path d="M0,0 L5,0 L5,3 L-1,3 Z " fill="#A9F216" transform="translate(100,46)"/>
<path d="M0,0 L4,0 L4,4 L0,4 Z " fill="#B6F019" transform="translate(118,42)"/>
<path d="M0,0 L3,0 L4,4 L-1,4 Z " fill="#A9EE1A" transform="translate(65,36)"/>
<path d="M0,0 L4,0 L4,4 L0,3 Z " fill="#B6E619" transform="translate(126,54)"/>
<path d="M0,0 L1,3 L0,8 L-2,8 L-2,1 Z " fill="#B1E213" transform="translate(83,34)"/>
<path d="M0,0 L3,1 L2,5 L-1,5 Z " fill="#62A007" transform="translate(95,94)"/>
<path d="M0,0 L7,1 L7,3 L2,3 L2,1 Z " fill="#7AC909" transform="translate(122,61)"/>
<path d="M0,0 L3,1 L3,3 L1,3 L1,6 L-1,5 Z " fill="#A5E215" transform="translate(69,35)"/>
<path d="M0,0 L1,3 L-1,5 L-1,3 L-6,3 L-3,1 Z " fill="#ACE019" transform="translate(80,24)"/>
<path d="M0,0 L3,0 L3,3 L-4,3 L0,2 Z " fill="#BAEB1B" transform="translate(90,74)"/>
<path d="M0,0 L3,0 L3,5 L1,5 Z " fill="#4F8507" transform="translate(76,52)"/>
<path d="M0,0 L6,0 L5,3 L0,2 Z " fill="#9FEC16" transform="translate(36,54)"/>
<path d="M0,0 L4,0 L3,4 L0,3 Z " fill="#AAE212" transform="translate(122,47)"/>
<path d="M0,0 L3,0 L2,4 L-1,4 Z " fill="#90DA1A" transform="translate(53,34)"/>
<path d="M0,0 L4,1 L4,3 L2,3 L1,6 Z " fill="#9CD310" transform="translate(65,28)"/>
<path d="M0,0 L2,0 L2,4 L-2,4 L-2,2 L0,2 Z " fill="#96C20B" transform="translate(35,105)"/>
<path d="M0,0 L1,4 L-3,4 L-2,1 Z " fill="#B8F70C" transform="translate(81,74)"/>
<path d="M0,0 L4,0 L4,3 L0,3 Z " fill="#AED514" transform="translate(130,50)"/>
<path d="M0,0 L4,2 L5,4 L1,4 Z " fill="#ADEF15" transform="translate(82,42)"/>
<path d="M0,0 L5,1 L5,3 L1,3 Z " fill="#629B04" transform="translate(23,60)"/>
<path d="M0,0 L1,0 L2,6 L-1,6 Z " fill="#8FBD03" transform="translate(59,87)"/>
<path d="M0,0 L3,0 L3,3 L-1,2 Z " fill="#BCDF0F" transform="translate(83,78)"/>
<path d="M0,0 L4,1 L1,4 Z " fill="#ACD71D" transform="translate(134,50)"/>
<path d="M0,0 L3,0 L2,4 L0,4 Z " fill="#B1E214" transform="translate(127,38)"/>
<path d="M0,0 L6,2 L6,3 L1,3 Z " fill="#BAEA1D" transform="translate(90,34)"/>
<path d="M0,0 L4,1 L3,3 L0,3 Z " fill="#5BA104" transform="translate(37,33)"/>
<path d="M0,0 L3,0 L3,3 L0,3 Z " fill="#8DD61D" transform="translate(33,45)"/>
<path d="M0,0 L3,0 L3,3 L0,3 Z " fill="#5EA006" transform="translate(29,41)"/>
<path d="M0,0 L2,0 L2,3 L-2,2 Z " fill="#C1EC1A" transform="translate(88,35)"/>
<path d="M0,0 L3,0 L3,3 L0,3 Z " fill="#7BB80F" transform="translate(140,33)"/>
<path d="M0,0 L4,1 L3,3 L1,3 Z " fill="#92D913" transform="translate(93,71)"/>
<path d="M0,0 L3,0 L3,3 L0,2 Z " fill="#95D80F" transform="translate(59,43)"/>
<path d="M0,0 L3,1 L3,3 L0,3 Z " fill="#6FB40A" transform="translate(34,38)"/>
<path d="M0,0 L2,0 L1,3 L-1,3 Z " fill="#79B513" transform="translate(135,61)"/>
<path d="M0,0 L3,1 L3,3 L0,2 Z " fill="#A0E528" transform="translate(67,19)"/>
</svg>
