<?xml version="1.0" encoding="UTF-8"?>
<!-- Generator: visioncortex VTracer 0.6.4 -->
<svg version="1.1" xmlns="http://www.w3.org/2000/svg" width="146" height="154">
<path d="M0,0 L146,0 L146,154 L0,154 Z " fill="#000002" transform="translate(0,0)"/>
<path d="M0,0 L16,0 L16,8 L20,8 L20,16 L24,16 L24,28 L28,28 L28,34 L26,34 L26,36 L28,36 L28,40 L36,40 L36,48 L38,48 L38,54 L36,54 L36,60 L28,60 L28,64 L30,64 L30,62 L36,62 L36,68 L32,68 L32,72 L28,72 L28,76 L26,76 L26,80 L22,80 L22,84 L16,84 L16,80 L8,80 L8,84 L0,84 L0,78 L-4,78 L-4,72 L-8,72 L-8,66 L-4,66 L-4,64 L2,64 L2,66 L4,66 L4,64 L6,64 L6,62 L4,62 L4,60 L-20,60 L-20,56 L-24,56 L-24,46 L-22,46 L-22,40 L-8,40 L-8,36 L0,36 L0,32 L4,32 L4,28 L6,28 L6,24 L8,24 L8,20 L18,20 L18,18 L12,18 L12,14 L8,14 L8,10 L0,10 Z " fill="#3741EE" transform="translate(82,32)"/>
<path d="M0,0 L20,0 L20,4 L42,4 L42,10 L34,10 L34,20 L32,20 L32,22 L34,22 L34,28 L32,28 L32,30 L26,30 L26,28 L10,28 L10,30 L16,30 L16,36 L18,36 L18,38 L20,38 L20,46 L22,46 L22,52 L16,52 L16,48 L12,48 L12,52 L-4,52 L-4,54 L-10,54 L-10,48 L-14,48 L-14,24 L-12,24 L-12,20 L-6,20 L-6,22 L6,22 L6,24 L10,24 L10,20 L12,20 L12,16 L14,16 L14,14 L12,14 L12,12 L8,12 L8,14 L6,14 L6,16 L-2,16 L-2,14 L-4,14 L-4,4 L0,4 Z " fill="#303CE8" transform="translate(22,32)"/>
<path d="M0,0 L6,1 L6,18 L9,18 L9,25 L4,26 L4,28 L8,26 L10,29 L9,36 L20,36 L21,31 L26,31 L27,27 L27,31 L29,31 L29,29 L35,29 L35,35 L31,35 L31,39 L27,39 L27,43 L25,43 L25,47 L21,47 L21,51 L15,51 L15,47 L7,47 L7,51 L-1,51 L-1,45 L-5,45 L-5,39 L-9,39 L-9,33 L-5,33 L-5,31 L1,31 L1,33 L3,33 L3,31 L5,31 L5,29 L3,29 L3,27 L-21,27 L-21,23 L-25,23 L-25,13 L-23,13 L-23,7 L-9,7 L-9,3 L0,3 Z " fill="#383FEF" transform="translate(83,65)"/>
<path d="M0,0 L10,0 L10,2 L18,2 L18,4 L24,4 L24,6 L26,6 L26,10 L28,10 L28,16 L26,16 L26,18 L20,18 L20,22 L18,22 L18,26 L14,26 L14,28 L2,28 L2,26 L-10,26 L-10,24 L-14,24 L-14,2 L0,2 Z " fill="#2D39D8" transform="translate(22,98)"/>
<path d="M0,0 L14,0 L13,9 L12,12 L25,10 L26,7 L28,7 L28,25 L21,26 L20,30 L15,30 L14,35 L3,35 L3,28 L1,26 L-2,27 L-2,25 L3,24 L3,17 L-1,18 L-1,1 Z " fill="#373DF2" transform="translate(89,66)"/>
<path d="M0,0 L20,0 L20,4 L42,4 L42,10 L33,10 L33,19 L31,20 L31,22 L29,22 L25,18 L23,17 L23,14 L19,14 L18,25 L26,25 L26,27 L7,27 L6,25 L14,25 L15,16 L15,14 L12,14 L12,12 L8,12 L8,14 L6,14 L6,16 L-2,16 L-2,14 L-4,14 L-4,4 L0,4 Z " fill="#343ED9" transform="translate(22,32)"/>
<path d="M0,0 L1,3 L26,2 L25,5 L29,3 L31,6 L30,13 L41,13 L42,8 L47,8 L48,4 L48,8 L50,8 L50,6 L56,6 L56,12 L52,12 L52,16 L48,16 L48,20 L46,20 L46,24 L42,24 L42,28 L36,28 L36,24 L28,24 L28,28 L20,28 L20,22 L16,22 L16,16 L12,16 L12,10 L16,10 L16,8 L22,8 L22,10 L24,10 L24,8 L26,8 L26,6 L24,6 L24,4 L0,4 Z " fill="#2B30CD" transform="translate(62,88)"/>
<path d="M0,0 L1,0 L1,10 L-1,10 L-1,12 L1,12 L1,18 L-1,18 L-1,20 L-7,20 L-7,18 L-23,18 L-23,20 L-17,20 L-17,26 L-18,26 L-18,21 L-24,21 L-24,23 L-20,23 L-20,26 L-32,26 L-38,24 L-39,22 L-39,14 L-42,13 L-40,13 L-40,11 L-44,11 L-45,14 L-45,10 L-39,10 L-39,12 L-27,12 L-27,14 L-23,14 L-23,10 L-21,10 L-21,6 L-19,6 L-18,4 L-17,11 L-19,15 L-26,16 L-7,17 L-7,15 L-15,15 L-15,7 L-14,4 L-10,4 L-10,7 L-5,9 L-4,12 L-2,12 L-3,8 L0,9 Z " fill="#2D38D6" transform="translate(55,42)"/>
<path d="M0,0 L10,0 L10,2 L18,2 L18,4 L24,4 L24,6 L26,6 L26,10 L28,10 L28,16 L26,16 L26,18 L20,18 L20,22 L18,22 L18,26 L14,26 L14,28 L2,28 L2,26 L-10,26 L-10,25 L2,24 L14,24 L17,25 L16,20 L19,21 L18,16 L20,15 L20,11 L14,9 L-11,9 L-11,3 L-13,3 L-13,23 L-10,24 L-14,24 L-14,2 L0,2 Z " fill="#2C36D8" transform="translate(22,98)"/>
<path d="M0,0 L1,0 L1,23 L3,23 L3,18 L5,20 L14,20 L14,17 L16,17 L16,20 L24,21 L24,15 L28,16 L29,14 L31,15 L32,12 L32,14 L34,14 L34,22 L36,22 L36,28 L30,28 L30,24 L26,24 L26,28 L10,28 L10,30 L4,30 L4,24 L0,24 Z " fill="#2E3ADE" transform="translate(8,56)"/>
<path d="M0,0 L1,3 L26,2 L25,5 L29,3 L31,6 L30,13 L41,13 L42,10 L42,17 L35,16 L34,18 L31,19 L31,23 L29,23 L29,20 L27,19 L26,22 L23,21 L22,15 L13,15 L13,11 L16,11 L16,8 L22,8 L22,10 L24,10 L24,8 L26,8 L26,6 L24,6 L24,4 L0,4 Z " fill="#2F35D4" transform="translate(62,88)"/>
<path d="M0,0 L11,0 L17,4 L17,6 L11,8 L10,11 L0,11 L0,7 L-12,7 L-12,2 L-11,1 Z " fill="#333EEE" transform="translate(24,107)"/>
<path d="M0,0 L1,0 L1,10 L3,10 L3,12 L11,12 L11,10 L13,10 L13,8 L17,8 L17,10 L19,10 L19,12 L17,12 L17,16 L15,16 L15,20 L11,20 L11,18 L-1,18 L-1,16 L-7,16 L-7,8 L0,8 Z " fill="#000001" transform="translate(17,36)"/>
<path d="M0,0 L14,0 L13,9 L7,8 L7,20 L3,20 L3,17 L-1,18 L-1,1 Z " fill="#3542F3" transform="translate(89,66)"/>
<path d="M0,0 L21,0 L21,4 L14,5 L13,14 L11,15 L11,17 L9,17 L5,13 L3,11 L5,11 L3,6 L2,3 L0,2 Z " fill="#3945EF" transform="translate(42,37)"/>
<path d="M0,0 L20,0 L19,4 L19,1 L17,1 L17,4 L13,6 L0,6 L-3,5 L-3,11 L0,10 L0,12 L6,11 L8,10 L15,10 L13,11 L14,14 L12,14 L12,12 L8,12 L8,14 L6,14 L6,16 L-2,16 L-2,14 L-4,14 L-4,4 L0,4 Z " fill="#343FD8" transform="translate(22,32)"/>
<path d="M0,0 L4,0 L4,8 L8,8 L8,20 L7,20 L7,9 L4,11 L6,12 L5,18 L1,17 L2,13 L-7,13 L-6,19 L-7,17 L-9,17 L-10,20 L-10,16 L-8,16 L-8,12 L2,12 L2,10 L-4,10 L-4,6 L-8,6 L-7,2 L-7,5 L-2,3 Z " fill="#3138C5" transform="translate(98,40)"/>
<path d="M0,0 L4,1 L1,1 L1,5 L7,4 L10,5 L10,7 L12,8 L12,11 L14,11 L15,9 L18,10 L17,13 L24,13 L24,14 L16,14 L16,18 L8,18 L8,12 L4,12 L4,6 L0,6 Z " fill="#292ED3" transform="translate(74,98)"/>
<path d="M0,0 L4,0 L5,4 L2,5 L0,4 L1,11 L5,13 L6,19 L5,24 L1,23 L0,26 L-2,26 L-2,3 L0,3 Z " fill="#3A47FD" transform="translate(11,53)"/>
<path d="M0,0 L8,0 L8,1 L1,1 L2,9 L-5,9 L-10,11 L-12,17 L-13,17 L-13,11 L-15,11 L-15,19 L-12,20 L-16,20 L-16,10 L-14,10 L-14,4 L0,4 Z " fill="#3237D3" transform="translate(74,68)"/>
<path d="M0,0 L2,0 L2,6 L4,5 L27,5 L33,8 L33,12 L35,13 L27,14 L27,17 L25,17 L26,13 L32,12 L31,10 L26,7 L15,7 L4,8 L2,20 L0,20 Z " fill="#303AE8" transform="translate(9,101)"/>
<path d="M0,0 L10,0 L10,2 L18,2 L18,4 L24,4 L24,5 L18,5 L18,7 L23,7 L23,9 L17,8 L15,5 L17,5 L17,3 L10,3 L10,5 L-13,3 L-13,23 L-10,24 L-14,24 L-14,2 L0,2 Z " fill="#252DB4" transform="translate(22,98)"/>
<path d="M0,0 L1,3 L-1,3 L0,5 L0,12 L5,13 L5,17 L3,17 L3,14 L1,13 L0,16 L-3,15 L-4,9 L-13,9 L-13,5 L-10,5 L-10,2 L-4,2 L-4,4 L-2,4 L-2,2 L0,2 Z " fill="#2C32D6" transform="translate(88,94)"/>
<path d="M0,0 L1,0 L1,10 L-1,10 L-1,12 L1,12 L1,18 L-6,19 L-6,15 L-13,14 L-11,9 L-13,9 L-13,7 L-11,7 L-10,4 L-10,7 L-5,9 L-4,12 L-2,12 L-3,8 L0,9 Z " fill="#2E39D8" transform="translate(55,42)"/>
<path d="M0,0 L21,1 L21,4 L15,6 L10,6 L10,7 L3,7 L0,6 Z " fill="#3B42ED" transform="translate(19,37)"/>
<path d="M0,0 L4,0 L4,6 L2,6 L2,8 L4,8 L4,12 L12,12 L12,20 L14,20 L14,26 L12,26 L12,32 L4,32 L4,31 L11,31 L10,20 L11,13 L3,13 L2,15 L2,13 L0,13 L0,9 L-2,9 L-2,5 L3,5 L3,1 Z " fill="#3034BE" transform="translate(106,60)"/>
<path d="M0,0 L9,0 L10,6 L8,9 L-1,9 L-2,11 L-4,10 L-4,7 L-2,7 L-2,4 L0,3 Z " fill="#3743EC" transform="translate(91,53)"/>
<path d="M0,0 L2,0 L3,4 L7,4 L7,11 L3,12 L1,11 L-11,10 L-7,9 L-7,3 L-5,3 L-4,7 L-2,8 Z " fill="#363DEA" transform="translate(85,79)"/>
<path d="M0,0 L3,0 L3,3 L5,4 L2,4 L1,15 L9,15 L9,17 L-10,17 L-11,15 L-3,15 L-2,6 L-3,3 Z " fill="#333FE5" transform="translate(39,42)"/>
<path d="M0,0 L1,0 L1,10 L3,10 L3,12 L11,12 L11,13 L3,13 L3,15 L-7,16 L-7,8 L0,8 Z " fill="#050719" transform="translate(17,36)"/>
<path d="M0,0 L16,0 L16,8 L14,5 L12,8 L12,4 L6,4 L6,6 L3,7 L3,1 L1,1 L1,9 L8,9 L8,10 L0,10 Z " fill="#3339CE" transform="translate(82,32)"/>
<path d="M0,0 L9,1 L8,5 L-2,5 L-13,4 L-13,1 Z " fill="#343CF6" transform="translate(26,109)"/>
<path d="M0,0 L2,0 L2,18 L0,18 L0,13 L-4,12 L-4,9 L-7,8 L-6,4 L-1,3 Z " fill="#3D41F7" transform="translate(115,73)"/>
<path d="M0,0 L1,2 L3,2 L3,10 L5,10 L5,16 L-1,16 L-1,12 L-5,11 L-1,11 L-1,9 L-3,9 Z " fill="#2932BF" transform="translate(39,68)"/>
<path d="M0,0 L1,4 L-1,4 L-1,8 L-5,8 L-5,10 L-17,10 L-17,8 L-29,8 L-29,7 L-17,6 L-5,6 L-2,7 L-3,2 L0,3 Z " fill="#242EB5" transform="translate(41,116)"/>
<path d="M0,0 L3,0 L3,3 L5,3 L5,5 L7,6 L2,6 L1,11 L-10,11 L-6,6 L0,5 Z " fill="#333AF0" transform="translate(102,90)"/>
<path d="M0,0 L4,1 L1,1 L1,7 L4,6 L4,8 L10,7 L12,6 L19,6 L17,7 L18,10 L16,10 L16,8 L12,8 L12,10 L10,10 L10,12 L2,12 L2,10 L0,10 Z " fill="#333DCF" transform="translate(18,36)"/>
<path d="M0,0 L6,0 L6,1 L1,2 L15,5 L16,2 L16,6 L0,6 L0,8 L-6,8 L-6,2 L-5,2 L-5,7 L-1,7 L-1,5 L-3,5 L-3,2 Z " fill="#272FBC" transform="translate(18,78)"/>
<path d="M0,0 L3,0 L3,3 L1,3 L1,5 L3,5 L2,9 L10,11 L8,12 L8,15 L13,15 L13,16 L7,16 L7,14 L-9,14 L-9,13 L7,13 L7,11 L-1,11 L-1,3 Z " fill="#2832BD" transform="translate(41,46)"/>
<path d="M0,0 L1,4 L-3,4 L-3,8 L-5,8 L-5,12 L-9,12 L-9,16 L-15,16 L-14,12 L-14,15 L-10,15 L-9,6 L-7,6 L-6,2 L0,3 Z " fill="#1F22AD" transform="translate(113,100)"/>
<path d="M0,0 L5,0 L5,12 L4,12 L4,1 L1,3 L3,4 L2,10 L-2,9 L-1,5 L-10,5 L-9,11 L-10,9 L-12,9 L-13,12 L-13,8 L-11,8 L-11,4 L-1,4 Z " fill="#2E38C6" transform="translate(101,48)"/>
<path d="M0,0 L4,2 L5,8 L4,13 L0,12 L-1,10 L-1,2 Z " fill="#3340EF" transform="translate(12,64)"/>
<path d="M0,0 L1,0 L1,23 L3,23 L3,18 L8,21 L7,27 L9,27 L9,29 L5,29 L5,24 L0,24 Z " fill="#2E38D1" transform="translate(8,56)"/>
<path d="M0,0 L4,0 L4,2 L6,2 L6,4 L4,4 L4,8 L2,8 L2,12 L-2,12 L-2,10 L-14,10 L-14,9 L0,8 L1,6 L3,7 L3,4 L-2,3 L0,2 Z " fill="#080A23" transform="translate(30,44)"/>
<path d="M0,0 L4,0 L4,4 L28,4 L28,6 L30,6 L30,8 L28,8 L28,10 L26,10 L26,8 L20,8 L20,7 L27,7 L27,5 L0,5 L0,3 L3,3 L3,1 Z " fill="#090A2A" transform="translate(58,88)"/>
<path d="M0,0 L21,0 L21,4 L14,4 L14,2 L0,2 Z " fill="#3B47F6" transform="translate(42,37)"/>
<path d="M0,0 L3,1 L3,3 L16,3 L16,6 L9,5 L8,7 L0,7 Z " fill="#3036E5" transform="translate(88,99)"/>
<path d="M0,0 L1,0 L1,10 L-1,10 L-1,12 L1,12 L1,18 L-6,19 L-6,16 L-3,16 L-3,13 L-6,12 L-2,12 L-3,8 L0,9 Z " fill="#2834BB" transform="translate(55,42)"/>
<path d="M0,0 L1,2 L4,2 L4,8 L8,8 L8,10 L-2,10 L-3,8 L-1,8 L-1,2 Z " fill="#2B37DA" transform="translate(25,58)"/>
<path d="M0,0 L8,0 L9,5 L2,4 L-6,3 L-5,1 Z " fill="#2D38D9" transform="translate(24,78)"/>
<path d="M0,0 L4,1 L5,12 L3,12 L-1,8 L-3,6 L-1,6 L-2,1 Z " fill="#3644EC" transform="translate(48,42)"/>
<path d="M0,0 L8,0 L8,1 L1,1 L2,9 L-5,8 L-5,7 L0,7 L0,5 L-13,5 L-13,10 L-14,10 L-14,4 L0,4 Z " fill="#2F35C3" transform="translate(74,68)"/>
<path d="M0,0 L4,0 L4,6 L2,6 L2,8 L4,8 L3,15 L2,13 L0,13 L0,9 L-2,9 L-2,5 L3,5 L3,1 Z " fill="#3038CF" transform="translate(106,60)"/>
<path d="M0,0 L2,2 L2,7 L0,11 L-8,11 L-4,10 L-4,6 L-2,6 L-2,2 L0,2 Z " fill="#2A35C6" transform="translate(36,46)"/>
<path d="M0,0 L11,0 L11,4 L1,4 Z " fill="#2F3BE0" transform="translate(13,114)"/>
<path d="M0,0 L4,1 L1,1 L1,5 L7,4 L10,5 L10,8 L5,9 L5,11 L8,12 L4,12 L4,6 L0,6 Z " fill="#2329B3" transform="translate(74,98)"/>
<path d="M0,0 L1,4 L3,4 L3,10 L1,10 L1,12 L-5,12 L-1,11 L-2,4 Z " fill="#242DB7" transform="translate(47,104)"/>
<path d="M0,0 L11,0 L13,2 L12,3 L2,4 L0,6 Z " fill="#2B33D5" transform="translate(11,101)"/>
<path d="M0,0 L2,0 L3,4 L6,2 L8,3 L8,7 L0,8 Z " fill="#393FF1" transform="translate(59,79)"/>
<path d="M0,0 L6,0 L6,2 L18,2 L14,5 L6,5 L3,3 L5,3 L5,1 L1,1 L0,4 Z " fill="#2A34BE" transform="translate(10,52)"/>
<path d="M0,0 L3,1 L2,4 L9,4 L9,5 L1,5 L1,9 L-7,9 L-7,3 L-6,3 L-6,8 L0,8 L-1,2 Z " fill="#2224A7" transform="translate(89,107)"/>
<path d="M0,0 L1,3 L8,2 L8,6 L0,6 L-3,5 L-4,8 L-4,4 L0,4 Z " fill="#3541ED" transform="translate(86,60)"/>
<path d="M0,0 L6,0 L6,6 L0,6 Z " fill="#222B99" transform="translate(10,44)"/>
<path d="M0,0 L6,0 L6,6 L0,6 Z " fill="#2A31AD" transform="translate(70,32)"/>
<path d="M0,0 L5,1 L4,5 L-5,4 L-5,2 Z " fill="#3744FB" transform="translate(30,109)"/>
<path d="M0,0 L2,0 L2,7 L0,11 L0,8 L-3,7 L-3,5 L-6,4 L-1,3 Z " fill="#3F43F2" transform="translate(115,73)"/>
<path d="M0,0 L13,0 L13,2 L2,2 L2,5 L0,5 Z " fill="#3B41F3" transform="translate(61,73)"/>
<path d="M0,0 L9,0 L9,4 L0,3 Z " fill="#303CE2" transform="translate(25,118)"/>
<path d="M0,0 L4,1 L3,8 L0,8 Z " fill="#3542F5" transform="translate(11,66)"/>
<path d="M0,0 L6,0 L5,2 L1,1 L1,3 L3,4 L0,7 L-3,7 L-3,3 L0,3 Z " fill="#2A30C9" transform="translate(78,96)"/>
<path d="M0,0 L1,0 L2,8 L4,9 L1,9 L1,11 L8,11 L8,12 L0,12 L0,8 L-2,8 L-2,6 L0,6 Z " fill="#080A23" transform="translate(110,60)"/>
<path d="M0,0 L4,0 L5,4 L2,5 L0,4 L0,13 L-1,13 L-2,3 L0,3 Z " fill="#3844F2" transform="translate(11,53)"/>
<path d="M0,0 L8,1 L8,3 L10,4 L0,4 Z " fill="#323FEA" transform="translate(24,114)"/>
<path d="M0,0 L1,3 L0,8 L-4,8 L-5,3 L-1,2 Z " fill="#272CD2" transform="translate(103,107)"/>
<path d="M0,0 L6,0 L4,4 L-2,5 L-2,2 L0,2 Z " fill="#292FD7" transform="translate(98,106)"/>
<path d="M0,0 L6,0 L6,6 L5,3 L-1,5 Z " fill="#3940E9" transform="translate(109,73)"/>
<path d="M0,0 L2,0 L2,6 L7,6 L7,8 L0,8 Z " fill="#3F45F8" transform="translate(83,33)"/>
<path d="M0,0 L2,0 L2,8 L-4,8 L-4,6 L0,6 Z " fill="#3D48F9" transform="translate(99,41)"/>
<path d="M0,0 L2,0 L2,8 L-2,8 L-1,4 Z " fill="#2E39D7" transform="translate(38,49)"/>
<path d="M0,0 L1,4 L-4,4 L-4,7 L-7,6 L-6,2 L0,3 Z " fill="#2328BC" transform="translate(113,100)"/>
<path d="M0,0 L1,0 L1,10 L3,10 L2,12 L-1,14 Z " fill="#090B29" transform="translate(17,36)"/>
<path d="M0,0 L8,0 L8,2 L2,2 L2,4 L0,4 Z " fill="#080821" transform="translate(110,92)"/>
<path d="M0,0 L1,2 L5,2 L5,4 L-5,4 L-6,2 L0,2 Z " fill="#2C38E3" transform="translate(28,64)"/>
<path d="M0,0 L2,0 L2,5 L1,6 L-4,6 L-4,4 L0,4 Z " fill="#2F3CDD" transform="translate(53,55)"/>
<path d="M0,0 L6,0 L6,5 L4,5 L4,2 L0,2 Z " fill="#3643F6" transform="translate(31,63)"/>
<path d="M0,0 L5,0 L7,2 L7,7 L6,3 L0,1 Z " fill="#2E3ADC" transform="translate(36,106)"/>
<path d="M0,0 L5,0 L4,4 L-1,3 Z " fill="#292ECE" transform="translate(109,99)"/>
<path d="M0,0 L5,0 L5,3 L0,3 Z " fill="#353BE6" transform="translate(63,86)"/>
<path d="M0,0 L4,0 L4,4 L0,4 Z " fill="#3240E7" transform="translate(11,45)"/>
<path d="M0,0 L4,0 L4,4 L0,4 Z " fill="#3D46FB" transform="translate(71,33)"/>
<path d="M0,0 L2,2 L2,5 L-3,4 Z " fill="#2B36D7" transform="translate(37,118)"/>
<path d="M0,0 L3,0 L2,5 L0,7 Z " fill="#2B31DB" transform="translate(105,99)"/>
<path d="M0,0 L2,4 L2,6 L-3,5 L-4,8 L-4,4 L0,4 Z " fill="#2B34BC" transform="translate(86,60)"/>
<path d="M0,0 L2,1 L2,4 L4,5 L-2,5 Z " fill="#2C37D4" transform="translate(44,51)"/>
<path d="M0,0 L5,0 L4,3 L0,4 Z " fill="#3036E4" transform="translate(104,96)"/>
<path d="M0,0 L4,1 L4,3 L-1,4 Z " fill="#333FEC" transform="translate(37,110)"/>
<path d="M0,0 L7,0 L7,3 L4,3 L4,1 Z " fill="#2A35CC" transform="translate(17,57)"/>
<path d="M0,0 L5,3 L5,5 L2,5 Z " fill="#2F3FDE" transform="translate(46,49)"/>
<path d="M0,0 L5,1 L4,3 L0,3 Z " fill="#333EF8" transform="translate(13,110)"/>
<path d="M0,0 L6,0 L6,3 L0,1 Z " fill="#2D33E6" transform="translate(98,102)"/>
<path d="M0,0 L2,0 L2,4 L-2,4 L-2,2 L0,2 Z " fill="#303BE2" transform="translate(41,79)"/>
<path d="M0,0 L3,0 L3,3 L1,3 L0,5 L-1,3 Z " fill="#20288F" transform="translate(41,46)"/>
<path d="M0,0 L2,0 L2,5 L-2,3 L0,3 Z " fill="#3641E7" transform="translate(47,45)"/>
<path d="M0,0 L0,3 L-3,3 Z " fill="#3941E3" transform="translate(97,40)"/>
</svg>
