<?xml version="1.0" encoding="UTF-8"?>
<!-- Generator: visioncortex VTracer 0.6.4 -->
<svg version="1.1" xmlns="http://www.w3.org/2000/svg" width="58" height="68">
<path d="M0,0 L58,0 L58,68 L0,68 Z " fill="#020201" transform="translate(0,0)"/>
<path d="M0,0 L10,0 L10,8 L8,8 L8,10 L4,10 L4,12 L-2,12 L-2,14 L-8,14 L-8,18 L-2,18 L2,22 L2,18 L10,18 L10,20 L12,20 L12,22 L14,22 L14,24 L22,24 L22,26 L24,26 L24,32 L22,32 L22,34 L18,34 L18,36 L10,36 L10,46 L4,46 L4,44 L-1,43 L-2,40 L-6,40 L-6,34 L2,34 L2,28 L-16,28 L-20,24 L-20,12 L-10,12 L-8,13 L-8,10 L-10,10 L-10,4 L-8,4 L-8,2 L0,2 Z " fill="#768552" transform="translate(28,12)"/>
<path d="M0,0 L5,1 L5,5 L12,5 L16,9 L16,5 L24,5 L24,7 L26,7 L26,9 L28,9 L28,11 L36,11 L36,13 L38,13 L38,19 L35,20 L25,20 L24,17 L22,17 L22,13 L8,13 L8,11 L5,11 L5,13 L-1,14 L-4,6 L-4,1 Z " fill="#A9BC7E" transform="translate(14,25)"/>
<path d="M0,0 L10,0 L10,8 L8,8 L8,10 L4,10 L4,12 L-2,12 L-2,14 L-8,14 L-9,18 L-9,14 L-19,13 L-18,24 L-20,24 L-20,12 L-10,12 L-8,13 L-8,10 L-10,10 L-10,4 L-8,4 L-8,2 L0,2 Z " fill="#76865C" transform="translate(28,12)"/>
<path d="M0,0 L8,0 L8,5 L5,5 L5,7 L1,7 L1,9 L-4,9 L-4,11 L-7,11 L-7,8 L-10,8 L-10,4 L0,2 Z " fill="#B8D58A" transform="translate(29,13)"/>
<path d="M0,0 L4,1 L4,11 L0,11 L-1,9 L-5,8 L-7,7 L-7,5 L-10,5 L-10,1 Z " fill="#BBD38A" transform="translate(33,46)"/>
<path d="M0,0 L3,0 L3,5 L5,7 L5,13 L-1,14 L-4,6 L-4,1 Z " fill="#C2D294" transform="translate(14,25)"/>
<path d="M0,0 L11,2 L11,7 L2,8 L0,5 Z " fill="#CCDD9F" transform="translate(37,37)"/>
<path d="M0,0 L2,0 L2,4 L9,4 L13,8 L13,4 L21,4 L20,6 L14,5 L14,9 L8,10 L2,7 L-1,4 Z " fill="#AABE7B" transform="translate(17,26)"/>
<path d="M0,0 L4,1 L0,4 L-5,3 L-5,5 L-3,6 L-4,8 L-2,8 L-2,12 L-6,10 L-6,8 L-12,8 L-12,4 L-6,4 L-6,2 L0,2 Z " fill="#12150D" transform="translate(32,22)"/>
<path d="M0,0 L4,0 L4,3 L1,3 L1,5 L8,5 L8,6 L3,6 L3,8 L0,8 L0,5 L-3,5 L-3,1 Z " fill="#B1CC82" transform="translate(22,16)"/>
<path d="M0,0 L9,0 L6,2 L7,8 L3,6 L3,4 L0,4 Z " fill="#A7C179" transform="translate(23,47)"/>
<path d="M0,0 L6,0 L6,6 L0,6 Z " fill="#566630" transform="translate(4,42)"/>
<path d="M0,0 L2,0 L2,2 L4,2 L4,4 L12,4 L12,6 L14,6 L14,12 L12,12 L11,5 L3,5 L0,4 Z " fill="#737F54" transform="translate(38,32)"/>
<path d="M0,0 L5,0 L5,5 L-4,6 L-4,4 L-1,4 Z " fill="#C6E497" transform="translate(32,13)"/>
<path d="M0,0 L6,0 L10,4 L10,0 L18,0 L17,2 L11,1 L11,5 L6,6 L5,1 L0,1 Z " fill="#788955" transform="translate(20,30)"/>
<path d="M0,0 L6,0 L7,5 L6,3 L3,3 L3,5 L0,5 Z " fill="#A3B87B" transform="translate(31,31)"/>
<path d="M0,0 L5,0 L1,1 L4,14 L0,10 Z " fill="#A1B07D" transform="translate(9,25)"/>
<path d="M0,0 L4,1 L6,2 L6,5 L0,5 Z " fill="#D2E49E" transform="translate(13,31)"/>
<path d="M0,0 L3,0 L3,2 L13,2 L13,3 L-3,3 L0,2 Z " fill="#98AA67" transform="translate(19,36)"/>
<path d="M0,0 L1,2 L-3,2 L-3,4 L-11,4 L-9,2 Z " fill="#66714A" transform="translate(49,44)"/>
<path d="M0,0 L4,0 L4,3 L0,2 L0,5 L2,5 L2,7 L-1,8 L-1,1 Z " fill="#8EA260" transform="translate(32,38)"/>
<path d="M0,0 L1,0 L1,7 L-3,7 L-4,3 L-1,2 Z " fill="#A2B473" transform="translate(36,50)"/>
<path d="M0,0 L6,2 L7,5 L3,5 L3,3 L0,3 Z " fill="#B7CD80" transform="translate(19,33)"/>
<path d="M0,0 L9,2 L5,4 L2,5 Z " fill="#9AAB71" transform="translate(35,43)"/>
<path d="M0,0 L7,0 L7,3 L0,2 Z " fill="#E7F7BA" transform="translate(39,40)"/>
<path d="M0,0 L1,2 L7,2 L7,4 L1,5 Z " fill="#BACA89" transform="translate(12,34)"/>
<path d="M0,0 L4,0 L4,4 L0,4 Z " fill="#819B45" transform="translate(5,43)"/>
<path d="M0,0 L3,0 L3,5 L0,5 Z " fill="#A9BA9A" transform="translate(34,13)"/>
<path d="M0,0 L2,0 L3,3 L2,8 L1,8 Z " fill="#B2C885" transform="translate(35,34)"/>
<path d="M0,0 L3,1 L3,4 L0,4 Z " fill="#ADC17C" transform="translate(19,17)"/>
<path d="M0,0 L3,1 L3,3 L0,3 Z " fill="#E3F5AA" transform="translate(14,33)"/>
<path d="M0,0 L3,1 L3,3 L0,2 Z " fill="#BAD57E" transform="translate(23,35)"/>
</svg>
