<?xml version="1.0" encoding="UTF-8"?>
<!-- Generator: visioncortex VTracer 0.6.4 -->
<svg version="1.1" xmlns="http://www.w3.org/2000/svg" width="58" height="54">
<path d="M0,0 L58,0 L58,54 L0,54 Z " fill="#010200" transform="translate(0,0)"/>
<path d="M0,0 L58,0 L58,10 L56,11 L48,11 L48,19 L44,21 L36,21 L36,26 L34,26 L34,28 L32,28 L32,32 L30,32 L30,38 L28,40 L21,40 L20,39 L20,32 L10,32 L10,18 L6,18 L6,14 L3,16 L0,16 Z " fill="#020800" transform="translate(0,0)"/>
<path d="M0,0 L17,0 L20,2 L20,8 L16,10 L8,10 L8,15 L6,15 L6,17 L4,17 L4,21 L2,21 L2,27 L0,29 L-7,29 L-8,28 L-8,20 L-17,20 L-17,7 L-15,4 L-13,4 L-12,7 L-8,7 L-9,5 L-5,5 L-5,10 L1,9 L-1,6 Z " fill="#59AC31" transform="translate(28,11)"/>
<path d="M0,0 L4,0 L4,2 L8,3 L7,6 L10,6 L10,9 L12,9 L13,6 L13,10 L11,10 L11,15 L7,17 L4,17 L2,7 L-3,7 L-3,9 L-6,9 L-6,3 L-5,1 Z " fill="#75D25E" transform="translate(18,21)"/>
<path d="M0,0 L2,0 L3,3 L7,3 L6,1 L10,1 L10,6 L21,7 L21,9 L19,9 L17,15 L15,15 L15,12 L10,13 L12,9 L9,8 L9,6 L0,7 L-1,15 L2,15 L2,13 L7,13 L9,23 L14,21 L14,24 L7,24 L7,16 L-2,16 L-2,3 Z " fill="#62C247" transform="translate(13,15)"/>
<path d="M0,0 L6,0 L6,8 L11,8 L11,10 L16,10 L15,14 L15,11 L13,11 L12,14 L11,27 L20,27 L20,28 L10,28 L10,14 L6,14 L6,10 L3,12 L0,12 Z " fill="#267113" transform="translate(0,4)"/>
<path d="M0,0 L10,0 L10,2 L28,2 L27,4 L10,3 L10,9 L12,13 L5,13 L5,8 L2,9 L3,11 L-2,11 L0,10 Z " fill="#398E1C" transform="translate(18,8)"/>
<path d="M0,0 L5,1 L12,0 L16,2 L16,6 L12,7 L5,7 L0,5 Z " fill="#7AD563" transform="translate(30,12)"/>
<path d="M0,0 L3,0 L3,3 L5,3 L6,0 L6,4 L4,4 L4,9 L0,11 L-3,11 L-5,1 Z " fill="#70BA50" transform="translate(25,27)"/>
<path d="M0,0 L5,0 L5,8 L3,11 L0,11 Z " fill="#2D9904" transform="translate(0,5)"/>
<path d="M0,0 L1,2 L4,2 L4,0 L9,0 L11,10 L16,8 L16,11 L9,11 L9,3 L0,3 Z " fill="#61A647" transform="translate(11,28)"/>
<path d="M0,0 L10,0 L10,3 L7,4 L0,4 Z " fill="#83F068" transform="translate(35,15)"/>
<path d="M0,0 L6,0 L6,6 L0,6 Z " fill="#1F680B" transform="translate(10,38)"/>
<path d="M0,0 L1,0 L1,5 L-1,5 L-1,7 L-3,7 L-3,11 L-5,11 L-5,17 L-7,19 L-14,19 L-14,18 L-8,18 L-8,15 L-6,15 L-6,10 L-4,10 L-4,6 L-2,6 L-2,4 L0,4 Z " fill="#3A6D27" transform="translate(35,21)"/>
<path d="M0,0 L2,0 L3,3 L7,3 L6,1 L10,1 L10,5 L-1,5 L-2,7 L-1,2 Z " fill="#4AAC2C" transform="translate(13,15)"/>
<path d="M0,0 L10,0 L7,2 L4,2 L4,6 L0,6 Z " fill="#157604" transform="translate(18,8)"/>
<path d="M0,0 L12,2 L12,3 L6,4 L5,8 L3,8 L3,10 L1,9 L2,7 L4,7 L4,5 L1,4 L2,1 Z " fill="#61BB3E" transform="translate(30,17)"/>
<path d="M0,0 L5,0 L4,6 L0,7 Z " fill="#95F06E" transform="translate(22,31)"/>
<path d="M0,0 L6,1 L6,4 L4,6 L0,6 Z " fill="#8CDD70" transform="translate(19,22)"/>
<path d="M0,0 L2,1 L2,7 L-2,9 L-10,9 L-10,8 L-4,8 L-4,6 L0,6 Z " fill="#44972F" transform="translate(46,12)"/>
<path d="M0,0 L6,1 L6,5 L-1,5 Z " fill="#238D12" transform="translate(49,5)"/>
<path d="M0,0 L3,0 L3,2 L1,2 L-1,8 L-3,8 L-3,3 Z " fill="#82E35A" transform="translate(31,22)"/>
<path d="M0,0 L8,1 L6,5 L1,6 L3,2 Z " fill="#75C752" transform="translate(22,22)"/>
<path d="M0,0 L8,0 L9,3 L1,2 L-4,3 L-5,1 Z " fill="#66B455" transform="translate(37,11)"/>
<path d="M0,0 L4,2 L3,6 L0,5 Z " fill="#74CF43" transform="translate(30,12)"/>
<path d="M0,0 L4,1 L1,1 L1,7 L-2,7 L-1,3 Z " fill="#75C560" transform="translate(18,21)"/>
<path d="M0,0 L2,0 L2,5 L-1,5 L-2,7 L-1,2 Z " fill="#44BF2D" transform="translate(13,15)"/>
<path d="M0,0 L4,0 L4,4 L0,4 Z " fill="#2EA208" transform="translate(11,39)"/>
<path d="M0,0 L2,0 L2,4 L4,4 L4,6 L0,6 Z " fill="#0D1D06" transform="translate(24,14)"/>
<path d="M0,0 L1,4 L4,4 L3,7 L0,7 Z " fill="#82D45F" transform="translate(22,31)"/>
<path d="M0,0 L6,0 L5,3 L0,2 Z " fill="#2AA00F" transform="translate(7,15)"/>
<path d="M0,0 L2,0 L2,3 L-3,3 L-3,1 Z " fill="#5C9941" transform="translate(25,27)"/>
<path d="M0,0 L1,0 L1,5 L-2,5 L-2,2 L0,2 Z " fill="#65C72D" transform="translate(29,12)"/>
<path d="M0,0 L3,0 L3,3 L0,3 Z " fill="#A1F880" transform="translate(20,24)"/>
<path d="M0,0 L3,0 L3,3 L0,2 Z " fill="#9EFB75" transform="translate(23,31)"/>
<path d="M0,0 L3,1 L0,4 Z " fill="#8ADF67" transform="translate(23,23)"/>
<path d="M0,0 L3,0 L2,3 L-1,1 Z " fill="#2F9608" transform="translate(25,9)"/>
</svg>
