<?xml version="1.0" encoding="UTF-8"?>
<!-- Generator: visioncortex VTracer 0.6.4 -->
<svg version="1.1" xmlns="http://www.w3.org/2000/svg" width="190" height="124">
<path d="M0,0 L190,0 L190,124 L0,124 Z " fill="#000000" transform="translate(0,0)"/>
<path d="M0,0 L8,0 L8,2 L14,2 L14,0 L22,0 L24,3 L28,4 L28,10 L24,10 L24,12 L40,12 L44,16 L44,12 L71,12 L74,14 L74,12 L80,12 L80,26 L75,28 L74,32 L72,32 L72,34 L66,34 L66,38 L60,38 L60,36 L56,36 L56,38 L51,42 L50,44 L48,44 L49,54 L56,60 L56,64 L64,64 L64,68 L66,68 L68,71 L68,82 L74,82 L74,84 L80,84 L80,94 L78,94 L78,96 L62,96 L62,92 L58,92 L58,96 L52,96 L52,92 L40,92 L40,90 L36,90 L36,88 L4,88 L4,84 L-2,84 L-4,80 L-8,80 L-8,68 L-10,68 L-10,62 L-8,62 L-7,57 L-4,56 L-4,48 L-10,48 L-10,52 L-18,52 L-20,48 L-32,48 L-32,18 L-36,18 L-36,12 L-30,12 L-30,18 L-28,18 L-28,16 L-24,16 L-24,14 L-28,14 L-28,8 L-22,8 L-22,12 L-20,12 L-20,8 L-14,8 L-14,12 L-8,12 L-8,10 L-12,10 L-12,4 L0,4 Z " fill="#79A5A0" transform="translate(66,8)"/>
<path d="M0,0 L8,0 L8,2 L14,2 L14,0 L22,0 L24,3 L28,4 L28,10 L24,10 L24,12 L40,12 L41,17 L65,16 L66,17 L66,27 L65,31 L50,33 L49,36 L47,36 L47,34 L44,34 L44,37 L46,38 L43,43 L41,43 L40,48 L36,49 L36,47 L39,44 L36,44 L35,46 L31,46 L25,49 L21,49 L21,51 L9,50 L9,52 L7,52 L7,49 L5,49 L4,44 L1,43 L-3,37 L-5,35 L-22,34 L-26,33 L-26,31 L-31,31 L-31,19 L-27,19 L-27,17 L-24,17 L-24,14 L-28,14 L-28,8 L-22,8 L-22,12 L-20,12 L-20,8 L-14,8 L-14,12 L-8,12 L-8,10 L-12,10 L-12,4 L0,4 Z " fill="#89B0B1" transform="translate(66,8)"/>
<path d="M0,0 L27,0 L30,2 L30,0 L36,0 L36,14 L31,16 L30,20 L28,20 L28,22 L22,22 L22,26 L16,26 L16,24 L12,24 L12,26 L7,30 L6,32 L4,32 L5,42 L12,48 L12,52 L20,52 L20,56 L22,56 L24,59 L24,70 L30,70 L30,72 L36,72 L36,82 L34,82 L34,84 L18,84 L19,80 L19,83 L21,83 L19,72 L18,71 L18,66 L20,66 L18,63 L18,60 L8,58 L8,56 L1,56 L-2,57 L-2,50 L-12,49 L-18,47 L-18,40 L-14,39 L-14,36 L-9,35 L-8,31 L-4,32 L-6,35 L-8,35 L-8,37 L-4,35 L-3,31 L-1,31 L1,26 L-1,26 L0,21 L4,22 L3,24 L5,24 L6,20 L10,19 L21,19 L21,5 L-3,5 L-2,3 L0,4 Z " fill="#638486" transform="translate(110,20)"/>
<path d="M0,0 L6,0 L6,6 L8,6 L8,4 L12,5 L9,5 L9,7 L5,7 L5,19 L10,19 L10,21 L31,22 L37,29 L37,31 L40,31 L40,38 L42,38 L42,41 L37,41 L35,46 L33,49 L32,65 L31,65 L31,56 L29,56 L29,67 L31,66 L39,66 L46,69 L70,69 L72,68 L78,68 L79,72 L82,72 L83,75 L90,77 L90,79 L93,78 L98,79 L94,80 L94,84 L88,84 L88,80 L76,80 L76,78 L72,78 L72,76 L40,76 L40,72 L34,72 L32,68 L28,68 L28,56 L26,56 L26,50 L28,50 L29,45 L32,44 L32,36 L26,36 L26,40 L18,40 L16,36 L4,36 L4,6 L0,6 Z " fill="#5D817D" transform="translate(30,20)"/>
<path d="M0,0 L6,1 L6,3 L23,2 L23,0 L29,1 L34,6 L35,9 L35,17 L31,20 L27,20 L27,24 L23,26 L22,28 L6,28 L14,30 L14,32 L0,32 L-4,24 L-8,20 L-8,17 L-13,15 L-13,12 L-18,13 L-20,12 L-20,14 L-22,14 L-22,8 L-3,5 L-3,3 L-1,3 Z " fill="#93BCBE" transform="translate(74,22)"/>
<path d="M0,0 L10,1 L15,2 L15,9 L18,7 L25,8 L25,10 L33,11 L35,12 L37,18 L35,18 L38,28 L38,35 L36,35 L35,32 L27,31 L26,29 L19,27 L19,24 L16,24 L15,21 L9,21 L7,22 L-9,22 L-8,20 L-3,20 L-3,18 L3,17 L3,12 L11,11 L10,4 L0,1 Z " fill="#719A99" transform="translate(93,68)"/>
<path d="M0,0 L2,0 L1,4 L5,5 L5,3 L11,3 L11,5 L9,5 L10,13 L15,12 L15,14 L18,14 L18,16 L20,16 L20,14 L22,14 L21,19 L23,18 L30,18 L30,21 L33,21 L35,24 L35,35 L41,35 L41,37 L47,37 L47,47 L45,47 L45,49 L29,49 L30,45 L30,48 L32,48 L30,37 L29,36 L29,31 L31,31 L29,28 L29,25 L19,23 L19,21 L12,21 L9,22 L9,15 L-1,14 L-7,12 L-7,5 L-3,4 L-3,1 Z " fill="#678F90" transform="translate(99,55)"/>
<path d="M0,0 L8,0 L8,2 L14,2 L14,0 L22,0 L24,3 L28,4 L28,10 L24,10 L24,12 L40,12 L39,14 L18,13 L12,12 L-6,11 L-6,12 L2,13 L2,16 L-7,16 L-7,13 L-23,13 L-24,16 L-24,14 L-28,14 L-28,8 L-22,8 L-22,12 L-20,12 L-20,8 L-14,8 L-14,12 L-8,12 L-8,10 L-12,10 L-12,4 L0,4 Z " fill="#61847F" transform="translate(66,8)"/>
<path d="M0,0 L9,0 L11,1 L13,5 L18,7 L18,13 L14,15 L13,17 L15,17 L15,19 L1,21 L1,23 L-7,22 L-9,15 L-9,8 L-8,6 L-5,6 L-5,1 Z " fill="#7EABAA" transform="translate(80,65)"/>
<path d="M0,0 L19,1 L25,2 L46,3 L48,4 L48,7 L72,6 L73,7 L73,17 L72,21 L57,23 L56,26 L54,26 L53,20 L61,19 L62,15 L66,15 L66,12 L49,12 L44,6 L38,4 L38,6 L34,7 L21,7 L21,5 L15,5 L12,8 L-2,8 L-5,5 L0,3 L0,6 L9,6 L9,3 L1,3 Z " fill="#7AA2A7" transform="translate(59,18)"/>
<path d="M0,0 L6,0 L8,1 L8,4 L12,4 L12,14 L10,14 L10,24 L4,24 L4,26 L-6,26 L-8,19 L-10,18 L-10,12 L-6,12 L-6,2 L0,2 Z " fill="#5E8182" transform="translate(150,64)"/>
<path d="M0,0 L4,0 L4,2 L7,3 L7,12 L0,14 L-13,15 L-25,15 L-26,5 L-10,3 L-5,3 L-5,1 Z " fill="#B3DDE1" transform="translate(96,26)"/>
<path d="M0,0 L5,1 L11,3 L35,3 L37,2 L43,2 L44,6 L47,6 L48,9 L55,11 L55,13 L58,12 L63,13 L59,14 L59,18 L53,18 L53,14 L41,14 L41,12 L37,12 L37,9 L6,9 L6,4 L3,4 L3,1 Z " fill="#658A87" transform="translate(65,86)"/>
<path d="M0,0 L27,0 L30,2 L30,0 L36,0 L36,14 L31,16 L30,20 L28,20 L28,22 L22,22 L22,26 L16,26 L16,24 L12,24 L12,26 L7,29 L6,25 L9,24 L11,25 L10,22 L16,23 L16,21 L26,20 L27,14 L29,9 L26,8 L23,5 L-3,5 L-2,3 L0,4 Z " fill="#4F686A" transform="translate(110,20)"/>
<path d="M0,0 L5,0 L5,2 L26,3 L32,10 L32,12 L35,13 L32,13 L32,21 L30,21 L29,8 L24,7 L24,9 L20,10 L19,12 L13,11 L13,13 L3,13 L2,11 L0,11 Z " fill="#658C88" transform="translate(35,39)"/>
<path d="M0,0 L14,0 L13,3 L18,4 L18,6 L22,7 L7,7 L-5,8 L-3,16 L1,17 L8,16 L19,18 L23,22 L23,24 L25,24 L27,28 L26,30 L24,30 L20,24 L18,22 L1,21 L-3,20 L-3,18 L-8,18 L-8,6 L-4,6 L-4,4 L-1,3 Z " fill="#80ACA9" transform="translate(43,21)"/>
<path d="M0,0 L8,0 L12,2 L12,14 L1,19 L-20,20 L-25,17 L-25,14 L-28,13 L-29,5 L-21,3 L-4,1 Z M1,1 L-4,2 L-4,4 L-19,5 L-25,6 L-24,16 L-12,16 L1,15 L8,13 L8,4 L5,3 L5,1 Z " fill="#9FCACC" transform="translate(95,25)"/>
<path d="M0,0 L10,1 L15,2 L15,9 L18,7 L25,8 L25,10 L18,9 L19,15 L17,15 L18,24 L16,24 L15,21 L9,21 L7,22 L-9,22 L-8,20 L-3,20 L-3,18 L3,17 L3,12 L11,11 L10,4 L0,1 Z " fill="#6E9998" transform="translate(93,68)"/>
<path d="M0,0 L7,0 L10,2 L5,4 L-1,5 L-9,5 L-9,11 L-7,11 L-7,9 L0,9 L0,12 L5,14 L4,16 L-12,13 L-19,14 L-22,12 L-23,4 L-11,2 L0,2 Z " fill="#85B2B0" transform="translate(61,25)"/>
<path d="M0,0 L3,0 L3,6 L5,6 L5,9 L0,9 L-2,14 L-4,17 L-5,33 L-6,33 L-6,24 L-8,24 L-8,35 L-2,34 L1,35 L1,38 L4,38 L4,43 L35,43 L35,44 L3,44 L3,40 L-3,40 L-5,36 L-9,36 L-9,24 L-11,24 L-11,18 L-9,18 L-8,13 L-5,12 L-5,4 L-4,8 L0,8 Z " fill="#506E6A" transform="translate(67,52)"/>
<path d="M0,0 L3,4 L8,6 L8,12 L4,14 L3,16 L5,16 L5,18 L-9,20 L-9,22 L-17,21 L-19,14 L-19,7 L-18,7 L-18,13 L0,13 L1,5 Z " fill="#77A8A6" transform="translate(90,66)"/>
<path d="M0,0 L12,0 L14,11 L14,20 L12,20 L12,11 L10,11 L10,13 L7,13 L7,15 L0,14 L0,12 L-2,12 L-2,14 L-4,14 L-4,10 L-1,9 Z " fill="#628486" transform="translate(145,67)"/>
<path d="M0,0 L3,3 L3,14 L9,14 L9,16 L15,16 L15,26 L13,26 L13,28 L-3,28 L-2,24 L-2,27 L7,27 L7,25 L2,25 L1,10 L2,6 L-1,6 Z " fill="#537172" transform="translate(131,76)"/>
<path d="M0,0 L17,0 L17,3 L13,3 L12,8 L4,8 L4,11 L2,12 L2,15 L4,16 L1,21 L-1,21 L-2,26 L-6,27 L-6,25 L-3,22 L-4,21 L-4,12 L0,9 Z " fill="#83AAAD" transform="translate(108,30)"/>
<path d="M0,0 L1,2 L3,3 L-2,4 L-2,7 L-6,8 L-5,17 L5,19 L6,20 L6,27 L4,28 L-2,28 L-2,33 L-8,34 L-8,36 L-14,37 L-14,34 L-8,32 L-3,32 L-3,30 L-5,30 L-4,27 L0,26 L-1,20 L-6,18 L-7,14 L-10,13 L-11,11 L-11,5 L-1,1 Z " fill="#71A09E" transform="translate(98,52)"/>
<path d="M0,0 L3,2 L2,4 L0,4 L1,14 L8,20 L8,24 L16,24 L15,28 L15,25 L6,26 L7,21 L5,21 L5,23 L3,23 L3,21 L0,21 L0,19 L-5,20 L-6,12 L-7,11 L-10,10 L-10,12 L-15,11 L-13,10 L-13,4 L-8,3 L-10,7 L-12,7 L-12,9 L-5,8 L-4,6 L-2,9 L-2,2 L0,2 Z " fill="#597C7C" transform="translate(114,48)"/>
<path d="M0,0 L1,0 L1,5 L3,5 L3,9 L5,9 L4,13 L1,16 L-1,16 L-1,18 L-4,20 L-4,32 L-5,34 L-11,35 L-11,24 L-9,24 L-7,15 L-3,9 L2,9 L2,6 L0,6 Z " fill="#6A918D" transform="translate(70,52)"/>
<path d="M0,0 L12,0 L12,1 L4,1 L4,3 L8,3 L9,7 L6,8 L14,9 L14,12 L5,12 L5,9 L-11,9 L-12,12 L-12,10 L-16,10 L-16,4 L-10,4 L-10,8 L-8,8 L-8,4 L-2,4 L-2,8 L4,8 L4,6 L0,6 Z " fill="#4C6461" transform="translate(54,12)"/>
<path d="M0,0 L33,0 L40,3 L41,5 L39,5 L39,7 L47,7 L47,8 L35,8 L35,6 L31,6 L31,3 L0,3 Z " fill="#608683" transform="translate(71,92)"/>
<path d="M0,0 L6,0 L6,6 L8,6 L8,4 L12,5 L9,5 L9,7 L5,7 L5,35 L18,34 L19,35 L22,32 L24,32 L24,34 L32,35 L32,36 L26,36 L26,40 L18,40 L16,36 L4,36 L4,6 L0,6 Z " fill="#4E6C69" transform="translate(30,20)"/>
<path d="M0,0 L9,0 L10,1 L10,11 L9,15 L-6,17 L-7,20 L-9,20 L-10,14 L4,14 L5,10 L9,9 L9,4 L2,5 L-10,5 L-10,2 L-12,1 Z " fill="#73999E" transform="translate(122,24)"/>
<path d="M0,0 L19,1 L37,3 L33,4 L33,6 L23,6 L22,5 L15,5 L12,8 L-2,8 L-5,5 L0,3 L0,6 L9,6 L9,3 L1,3 Z " fill="#7DA3A3" transform="translate(59,18)"/>
<path d="M0,0 L4,0 L5,3 L9,4 L16,3 L27,5 L31,9 L31,11 L33,11 L35,15 L34,17 L32,17 L28,11 L26,9 L9,8 L5,7 L5,5 L0,5 Z " fill="#7BA9A4" transform="translate(35,34)"/>
<path d="M0,0 L7,0 L7,3 L9,3 L8,9 L11,9 L11,20 L12,25 L11,28 L16,28 L16,30 L9,30 L7,19 L6,18 L6,13 L8,13 L6,10 L6,7 L4,7 L0,3 L-2,1 Z " fill="#628587" transform="translate(122,73)"/>
<path d="M0,0 L4,1 L5,6 L2,9 L-1,10 L-11,10 L-11,3 Z " fill="#BAE4E7" transform="translate(97,28)"/>
<path d="M0,0 L6,0 L6,2 L4,2 L5,10 L10,9 L10,11 L13,11 L13,13 L15,13 L15,11 L17,11 L16,16 L8,15 L8,12 L3,10 L-6,7 L-8,6 L-6,1 L0,2 Z " fill="#608585" transform="translate(104,58)"/>
<path d="M0,0 L11,0 L13,3 L7,5 L7,8 L-1,10 L-5,9 L-5,2 Z " fill="#7DB1AD" transform="translate(77,70)"/>
<path d="M0,0 L27,0 L27,3 L12,5 L-3,5 L-2,3 L0,4 Z " fill="#567478" transform="translate(110,20)"/>
<path d="M0,0 L8,0 L7,3 L4,3 L4,5 L0,5 L3,8 L20,9 L20,10 L7,11 L-5,11 L-6,1 Z " fill="#ACD6D9" transform="translate(76,30)"/>
<path d="M0,0 L7,1 L8,5 L11,5 L11,9 L7,9 L7,11 L5,11 L5,14 L1,14 L-1,9 L-1,6 L1,6 Z " fill="#76A1A0" transform="translate(111,77)"/>
<path d="M0,0 L6,0 L8,1 L8,4 L12,4 L12,14 L10,14 L10,24 L4,24 L4,23 L9,23 L8,6 L6,5 L6,4 L-5,3 L-5,12 L-6,12 L-6,2 L0,2 Z " fill="#546D70" transform="translate(150,64)"/>
<path d="M0,0 L4,1 L10,7 L12,11 L12,14 L16,14 L16,16 L23,17 L23,15 L30,15 L29,17 L25,17 L25,19 L13,18 L13,20 L11,20 L11,17 L9,17 L7,8 L6,5 L4,5 Z " fill="#82ABA9" transform="translate(62,40)"/>
<path d="M0,0 L5,2 L8,5 L7,10 L5,16 L-10,17 L-16,18 L-15,16 L-11,15 L0,15 Z " fill="#668A8F" transform="translate(131,24)"/>
<path d="M0,0 L14,0 L14,2 L27,3 L27,5 L44,5 L43,7 L22,6 L1,4 Z " fill="#60817E" transform="translate(62,15)"/>
<path d="M0,0 L4,2 L8,6 L30,7 L30,9 L14,9 L22,11 L22,13 L8,13 L4,5 Z " fill="#8CB5B6" transform="translate(66,41)"/>
<path d="M0,0 L8,0 L12,2 L12,14 L7,16 L-12,16 L-12,15 L1,14 L8,13 L7,4 L5,3 L5,1 L-4,2 Z " fill="#A1CACC" transform="translate(95,25)"/>
<path d="M0,0 L9,0 L12,4 L12,6 L15,7 L12,7 L12,15 L10,15 L9,2 L4,1 L4,3 L0,4 L-1,6 L-7,5 L-7,7 L-13,7 L-11,6 L-11,3 L-7,4 L-7,2 L0,2 Z " fill="#5E8582" transform="translate(55,45)"/>
<path d="M0,0 L1,0 L1,6 L7,7 L15,9 L15,11 L12,11 L12,13 L10,13 L10,15 L2,14 L0,7 Z " fill="#7CACA8" transform="translate(71,73)"/>
<path d="M0,0 L7,0 L7,3 L9,3 L11,7 L3,9 L-5,9 L-4,5 L1,5 Z " fill="#6E9996" transform="translate(97,81)"/>
<path d="M0,0 L10,0 L10,1 L2,1 L2,7 L4,7 L4,5 L11,5 L11,8 L16,10 L15,12 L1,9 L0,6 L-4,5 L-2,1 Z " fill="#88B6B3" transform="translate(50,29)"/>
<path d="M0,0 L3,3 L3,14 L9,14 L9,16 L15,16 L15,26 L14,26 L14,17 L9,17 L9,21 L6,21 L6,19 L1,17 L1,10 L2,6 L-1,6 Z " fill="#4E7070" transform="translate(131,76)"/>
<path d="M0,0 L1,4 L-1,4 L-1,6 L-7,6 L-7,10 L-13,10 L-13,8 L-17,8 L-17,10 L-22,13 L-23,9 L-20,8 L-18,9 L-19,6 L-13,7 L-13,5 L-3,4 L-3,2 L-1,2 Z " fill="#4F7074" transform="translate(139,36)"/>
<path d="M0,0 L4,0 L4,5 L6,6 L3,11 L1,11 L0,16 L-4,17 L-4,15 L-1,12 L-2,11 L-2,2 Z " fill="#82A5A8" transform="translate(106,40)"/>
<path d="M0,0 L12,0 L10,5 L3,6 L2,13 L0,10 Z " fill="#618385" transform="translate(145,67)"/>
<path d="M0,0 L6,0 L6,4 L8,4 L8,0 L14,0 L14,5 L5,5 L4,8 L4,6 L0,6 Z " fill="#638079" transform="translate(38,16)"/>
<path d="M0,0 L12,0 L19,3 L20,5 L18,5 L18,7 L26,7 L26,8 L14,8 L14,6 L10,6 L10,1 L0,1 Z " fill="#537370" transform="translate(92,92)"/>
<path d="M0,0 L6,1 L6,3 L23,2 L23,0 L29,1 L32,5 L29,4 L-3,4 L-1,3 Z " fill="#87ADAF" transform="translate(74,22)"/>
<path d="M0,0 L9,0 L11,1 L11,4 L16,5 L16,7 L11,7 L5,2 L1,1 L1,3 L-3,4 L-16,4 L-16,2 L-18,1 L-4,3 L-4,1 Z " fill="#82A3A5" transform="translate(96,21)"/>
<path d="M0,0 L3,0 L3,6 L5,6 L5,9 L0,9 L-2,14 L-8,14 L-7,12 L-5,12 L-5,4 L-4,8 L0,8 Z " fill="#506D69" transform="translate(67,52)"/>
<path d="M0,0 L5,0 L5,2 L13,3 L13,7 L5,8 L1,5 Z " fill="#729C97" transform="translate(35,39)"/>
<path d="M0,0 L14,0 L13,3 L14,5 L9,5 L9,3 L6,3 L6,5 L-1,6 Z " fill="#7FAAA7" transform="translate(43,21)"/>
<path d="M0,0 L5,1 L11,3 L27,4 L27,6 L6,6 L6,4 L3,4 L3,1 Z " fill="#6B918D" transform="translate(65,86)"/>
<path d="M0,0 L1,4 L-2,7 L-4,7 L-4,14 L-5,17 L-3,17 L0,23 L-7,21 L-7,7 L-3,5 L-3,3 L-1,3 Z " fill="#739C97" transform="translate(72,65)"/>
<path d="M0,0 L2,4 L3,8 L1,13 L-2,14 L-11,14 L-7,12 L-5,12 L-5,9 L0,7 L-2,3 Z " fill="#7AAEAC" transform="translate(89,66)"/>
<path d="M0,0 L6,0 L6,6 L8,6 L8,4 L12,5 L9,5 L9,7 L5,7 L5,20 L4,20 L4,6 L0,6 Z " fill="#536D6B" transform="translate(30,20)"/>
<path d="M0,0 L5,0 L2,1 L4,9 L1,8 L1,5 L-4,6 L-6,5 L-6,7 L-8,7 L-8,1 Z " fill="#8EBABA" transform="translate(60,29)"/>
<path d="M0,0 L1,2 L3,3 L-1,4 L-3,10 L-3,25 L-8,26 L-8,15 L-6,15 L-4,6 Z " fill="#648985" transform="translate(67,61)"/>
<path d="M0,0 L7,0 L12,1 L13,7 L5,7 L3,1 Z " fill="#7CA4A5" transform="translate(75,58)"/>
<path d="M0,0 L4,0 L4,6 L0,6 L-1,8 L-1,6 L-4,7 L-14,5 L-14,1 L-10,1 L-10,3 L-2,3 L3,5 L3,1 Z " fill="#5A807B" transform="translate(90,12)"/>
<path d="M0,0 L1,2 L3,3 L-2,4 L-2,7 L-4,8 L-10,8 L-10,10 L-8,10 L-9,14 L-11,11 L-11,5 L-1,1 Z " fill="#78A0A1" transform="translate(98,52)"/>
<path d="M0,0 L2,3 L0,4 L-2,6 L-2,11 L-5,11 L-9,9 L-8,5 L-6,5 L-5,1 Z " fill="#5D8081" transform="translate(115,46)"/>
<path d="M0,0 L5,0 L6,3 L9,2 L14,3 L10,4 L10,8 L4,8 L4,3 L-1,3 Z " fill="#698789" transform="translate(114,96)"/>
<path d="M0,0 L12,0 L16,3 L16,5 L18,5 L20,9 L19,11 L17,11 L13,5 L11,3 L0,2 Z " fill="#709B98" transform="translate(50,40)"/>
<path d="M0,0 L3,1 L3,12 L10,10 L12,7 L12,13 L22,13 L22,14 L8,15 L8,13 L2,13 L1,2 Z " fill="#0F1515" transform="translate(132,77)"/>
<path d="M0,0 L7,1 L3,5 L5,5 L4,10 L2,10 L1,14 L-1,9 L-1,6 L1,6 Z " fill="#749E9D" transform="translate(111,77)"/>
<path d="M0,0 L11,0 L13,3 L12,4 L-1,4 Z " fill="#80B5B3" transform="translate(77,70)"/>
<path d="M0,0 L1,0 L1,6 L-2,9 L-6,9 L-11,10 L-11,7 L-6,6 L-6,4 L-3,4 L-3,2 L0,2 Z " fill="#82AAAC" transform="translate(103,45)"/>
<path d="M0,0 L7,2 L9,8 L7,8 L7,13 L2,13 L3,8 L5,8 L5,3 L0,2 Z " fill="#6D9494" transform="translate(121,78)"/>
<path d="M0,0 L1,0 L1,6 L4,7 L3,12 L-4,13 L-4,10 L-2,10 L-2,6 L0,6 Z " fill="#050808" transform="translate(139,76)"/>
<path d="M0,0 L11,1 L13,0 L28,0 L25,2 L4,3 Z " fill="#9AC4C5" transform="translate(71,42)"/>
<path d="M0,0 L5,2 L8,5 L7,10 L5,16 L1,15 L2,11 L4,10 L5,6 L3,6 L3,3 L1,3 Z " fill="#63868C" transform="translate(131,24)"/>
<path d="M0,0 L19,1 L31,3 L31,4 L10,3 L9,6 L9,3 L1,3 Z " fill="#709491" transform="translate(59,18)"/>
<path d="M0,0 L4,1 L1,1 L1,5 L3,5 L3,3 L5,3 L5,5 L7,5 L8,11 L7,8 L5,8 L5,13 L14,13 L14,14 L4,14 L2,7 L0,6 Z " fill="#4E6B6C" transform="translate(140,76)"/>
<path d="M0,0 L22,1 L25,3 L16,4 L2,3 Z " fill="#91BABA" transform="translate(72,45)"/>
<path d="M0,0 L1,0 L1,5 L11,5 L11,7 L9,8 L-2,8 L-2,3 L0,3 Z " fill="#608580" transform="translate(37,47)"/>
<path d="M0,0 L8,0 L4,2 L-1,4 L-4,4 L-3,8 L0,9 L0,11 L-5,11 L-6,1 Z " fill="#A3D0D0" transform="translate(76,30)"/>
<path d="M0,0 L7,0 L7,3 L9,3 L8,9 L7,6 L3,5 L-2,1 Z " fill="#5F8285" transform="translate(122,73)"/>
<path d="M0,0 L6,0 L8,1 L8,3 L6,4 L-5,3 L-5,12 L-6,12 L-6,2 L0,2 Z " fill="#4C6668" transform="translate(150,64)"/>
<path d="M0,0 L1,0 L1,5 L3,5 L3,9 L5,9 L4,13 L-1,14 L-2,16 L-5,15 L-2,11 L-2,9 L2,9 L2,6 L0,6 Z " fill="#6B918D" transform="translate(70,52)"/>
<path d="M0,0 L8,0 L8,2 L14,2 L14,0 L22,0 L22,1 L15,1 L15,3 L3,4 L3,1 L1,1 L0,4 Z " fill="#4C635F" transform="translate(66,8)"/>
<path d="M0,0 L13,0 L15,3 L6,3 L5,4 L0,4 Z " fill="#68928F" transform="translate(48,42)"/>
<path d="M0,0 L5,3 L5,7 L13,7 L12,11 L12,8 L3,9 L4,4 L2,4 L2,6 L0,6 L0,4 L-2,4 L-2,2 L0,2 Z " fill="#4D6C6E" transform="translate(117,65)"/>
<path d="M0,0 L3,1 L1,2 L-1,7 L6,9 L6,10 L-4,9 L-5,4 L-2,3 Z " fill="#658B8B" transform="translate(98,57)"/>
<path d="M0,0 L4,1 L1,1 L-1,5 L-6,10 L-6,19 L-8,18 L-8,8 L-6,8 L-4,4 L0,2 Z " fill="#111818" transform="translate(122,44)"/>
<path d="M0,0 L9,0 L9,3 L8,2 L2,2 L1,3 L-10,3 L-12,1 Z " fill="#6B8F92" transform="translate(122,24)"/>
<path d="M0,0 L4,1 L1,6 L-1,6 L-2,11 L-6,12 L-6,10 L-3,7 L-2,3 Z " fill="#6F9495" transform="translate(108,45)"/>
<path d="M0,0 L6,0 L6,6 L0,6 Z " fill="#465E5E" transform="translate(152,36)"/>
<path d="M0,0 L3,0 L3,7 L-3,7 L-4,4 Z " fill="#597C79" transform="translate(59,46)"/>
<path d="M0,0 L4,1 L8,5 L8,12 L6,12 L5,15 L3,14 L6,5 L3,4 Z " fill="#5C7D83" transform="translate(133,24)"/>
<path d="M0,0 L4,0 L4,4 L-1,6 L-4,6 L-5,2 Z " fill="#BCE7EB" transform="translate(96,30)"/>
<path d="M0,0 L6,0 L6,8 L5,5 L3,5 L2,7 L2,4 L0,4 Z " fill="#0A0E0E" transform="translate(56,56)"/>
<path d="M0,0 L4,4 L4,6 L7,7 L4,7 L4,15 L2,15 Z " fill="#6B918D" transform="translate(63,45)"/>
<path d="M0,0 L19,0 L15,1 L15,3 L5,3 L0,1 Z " fill="#7A9C9D" transform="translate(77,21)"/>
<path d="M0,0 L8,0 L8,2 L2,4 L2,6 L-1,6 Z " fill="#7DA7A2" transform="translate(43,21)"/>
<path d="M0,0 L5,0 L4,3 L6,3 L7,6 L0,7 Z " fill="#597D7E" transform="translate(133,94)"/>
<path d="M0,0 L6,0 L5,5 L2,5 L1,8 Z " fill="#86B0AD" transform="translate(38,29)"/>
<path d="M0,0 L3,0 L3,2 L6,2 L6,6 L1,5 L-2,4 L-2,2 L0,2 Z " fill="#638582" transform="translate(87,11)"/>
<path d="M0,0 L4,2 L4,3 L-4,5 L-12,5 L-11,3 L-1,1 Z " fill="#6A9290" transform="translate(104,85)"/>
<path d="M0,0 L6,0 L6,5 L0,5 Z " fill="#6B8C86" transform="translate(46,16)"/>
<path d="M0,0 L6,1 L9,5 L6,4 L-6,4 L-4,2 L0,2 Z " fill="#93B6B8" transform="translate(97,22)"/>
<path d="M0,0 L4,0 L4,12 L2,12 L2,2 L0,2 Z " fill="#658488" transform="translate(141,21)"/>
<path d="M0,0 L9,0 L5,1 L5,3 L0,3 L0,5 L-3,4 L-2,1 Z " fill="#5D7F83" transform="translate(121,40)"/>
<path d="M0,0 L5,0 L5,3 L2,8 L1,8 Z " fill="#8BB1B4" transform="translate(108,30)"/>
<path d="M0,0 L2,3 L1,8 L6,8 L6,10 L-1,10 Z " fill="#608484" transform="translate(132,93)"/>
<path d="M0,0 L1,3 L-5,4 L-5,6 L-11,7 L-11,4 L-5,2 L0,2 Z " fill="#74A09C" transform="translate(95,82)"/>
<path d="M0,0 L1,0 L3,10 L2,14 L1,10 L-1,10 L-1,2 Z " fill="#77A19C" transform="translate(68,72)"/>
<path d="M0,0 L8,0 L8,2 L4,3 L3,6 L1,6 Z " fill="#789DA0" transform="translate(112,38)"/>
<path d="M0,0 L2,1 L1,5 L-10,5 L-10,4 L-3,2 Z " fill="#6E9499" transform="translate(130,34)"/>
<path d="M0,0 L5,0 L5,3 L-2,4 L-4,3 L-4,1 Z " fill="#86ADB1" transform="translate(120,30)"/>
<path d="M0,0 L4,0 L4,2 L-4,4 L-10,4 L-10,3 L-5,3 L-5,1 Z " fill="#AEDAD8" transform="translate(96,26)"/>
<path d="M0,0 L2,1 L1,4 L4,4 L4,14 L2,10 L0,5 Z " fill="#658B8A" transform="translate(128,86)"/>
<path d="M0,0 L3,3 L3,14 L2,14 L2,6 L-1,6 Z " fill="#486466" transform="translate(131,76)"/>
<path d="M0,0 L3,1 L-1,6 L-5,6 L-5,3 L0,2 Z " fill="#83AAAB" transform="translate(97,49)"/>
<path d="M0,0 L6,1 L2,2 L2,4 L-3,7 L-4,3 L-1,2 L1,3 Z " fill="#4F6F71" transform="translate(120,42)"/>
<path d="M0,0 L2,0 L2,3 L11,3 L11,4 L0,5 L-3,2 Z " fill="#6D8F92" transform="translate(57,21)"/>
<path d="M0,0 L4,0 L4,6 L0,6 L-1,8 L-1,6 L-4,7 L-5,4 L3,5 L3,1 Z " fill="#516C6A" transform="translate(90,12)"/>
<path d="M0,0 L4,0 L4,6 L2,6 L1,8 Z " fill="#9CC8C9" transform="translate(66,30)"/>
<path d="M0,0 L3,2 L1,2 L1,4 L5,5 L5,7 L0,6 L-1,4 L-4,2 L0,2 Z " fill="#547479" transform="translate(137,21)"/>
<path d="M0,0 L1,0 L1,6 L5,6 L5,8 L1,8 L1,10 L-1,10 Z " fill="#121717" transform="translate(37,16)"/>
<path d="M0,0 L5,0 L5,8 L3,8 L3,2 L0,2 Z " fill="#5D8485" transform="translate(140,93)"/>
<path d="M0,0 L1,0 L1,9 L-2,9 L-3,11 L-4,7 L0,6 Z " fill="#597A7C" transform="translate(156,78)"/>
<path d="M0,0 L3,0 L3,3 L8,3 L8,4 L0,6 Z " fill="#699192" transform="translate(108,71)"/>
<path d="M0,0 L6,1 L6,4 L0,4 Z " fill="#5D8081" transform="translate(100,61)"/>
<path d="M0,0 L6,0 L6,3 L-2,4 L0,3 Z " fill="#6D9791" transform="translate(42,43)"/>
<path d="M0,0 L1,4 L0,7 L-5,8 L-4,3 L0,3 Z " fill="#7DA6AA" transform="translate(125,30)"/>
<path d="M0,0 L7,0 L8,2 L6,3 L-1,3 Z " fill="#5C7C77" transform="translate(81,9)"/>
<path d="M0,0 L1,2 L0,4 L-2,4 L-2,6 L-6,8 L-6,4 L-3,4 L-2,1 Z " fill="#6D948F" transform="translate(71,64)"/>
<path d="M0,0 L1,0 L1,5 L3,5 L3,9 L5,9 L4,13 L2,13 L2,6 L0,6 Z " fill="#678B88" transform="translate(70,52)"/>
<path d="M0,0 L1,0 L0,7 L-1,9 L-4,8 L-3,4 L-1,4 Z " fill="#66888A" transform="translate(110,47)"/>
<path d="M0,0 L2,1 L2,3 L4,3 L6,7 L5,9 L3,9 Z " fill="#79A29F" transform="translate(64,42)"/>
<path d="M0,0 L2,1 L0,7 L-4,6 L-3,2 Z " fill="#5D8287" transform="translate(136,33)"/>
<path d="M0,0 L8,0 L4,2 L-1,4 L-4,4 L-4,2 Z " fill="#A9D1D4" transform="translate(76,30)"/>
<path d="M0,0 L7,0 L7,3 L0,3 Z " fill="#5C7C7D" transform="translate(113,21)"/>
<path d="M0,0 L7,0 L9,3 L0,3 Z " fill="#618581" transform="translate(71,92)"/>
<path d="M0,0 L2,1 L1,3 L3,3 L3,5 L-2,5 L-2,2 L-4,1 Z " fill="#75A5A2" transform="translate(92,79)"/>
<path d="M0,0 L2,1 L2,7 L-2,8 L-1,3 Z " fill="#74A6A4" transform="translate(96,71)"/>
<path d="M0,0 L2,0 L2,6 L4,6 L4,8 L0,8 Z " fill="#131919" transform="translate(68,52)"/>
<path d="M0,0 L3,1 L3,10 L0,10 L0,6 L2,6 Z " fill="#ADD8DA" transform="translate(100,28)"/>
<path d="M0,0 L2,0 L2,3 L4,3 L4,6 L0,7 Z " fill="#699096" transform="translate(132,27)"/>
<path d="M0,0 L1,0 L1,6 L5,6 L5,8 L-1,8 Z " fill="#121717" transform="translate(53,12)"/>
<path d="M0,0 L4,0 L4,3 L6,4 L2,5 L0,3 Z " fill="#5B7B7E" transform="translate(125,73)"/>
<path d="M0,0 L8,0 L7,3 L-1,2 Z " fill="#83B9B7" transform="translate(79,71)"/>
<path d="M0,0 L8,1 L4,3 L0,5 Z " fill="#5C7C7E" transform="translate(147,67)"/>
<path d="M0,0 L4,0 L5,8 L3,8 L2,2 L0,2 Z " fill="#71999A" transform="translate(88,60)"/>
<path d="M0,0 L6,1 L6,5 L2,5 Z " fill="#89B1B2" transform="translate(72,49)"/>
<path d="M0,0 L1,0 L1,6 L-4,6 L-4,3 L-1,2 Z " fill="#B6E0E4" transform="translate(85,32)"/>
<path d="M0,0 L7,0 L5,1 L5,3 L-3,2 Z " fill="#7AA8A4" transform="translate(76,85)"/>
<path d="M0,0 L3,0 L3,2 L8,3 L7,5 L1,4 Z " fill="#6F9799" transform="translate(118,78)"/>
<path d="M0,0 L1,2 L3,3 L-1,9 L-2,6 Z " fill="#7CA0A3" transform="translate(106,42)"/>
<path d="M0,0 L4,0 L4,5 L0,4 Z " fill="#698A8A" transform="translate(31,21)"/>
<path d="M0,0 L4,1 L0,5 L-3,4 Z " fill="#73989B" transform="translate(108,45)"/>
<path d="M0,0 L4,1 L4,4 L-2,4 L0,3 Z " fill="#608A85" transform="translate(44,48)"/>
<path d="M0,0 L1,4 L-1,4 L-1,6 L-7,6 L-3,4 L-3,2 L-1,2 Z " fill="#3F595C" transform="translate(139,36)"/>
<path d="M0,0 L4,0 L4,4 L0,4 Z " fill="#648888" transform="translate(153,37)"/>
<path d="M0,0 L6,1 L6,3 L0,3 Z " fill="#91BCBD" transform="translate(53,30)"/>
<path d="M0,0 L2,3 L0,4 L-3,4 L-4,1 Z " fill="#5A7C7F" transform="translate(115,46)"/>
<path d="M0,0 L4,1 L5,4 L3,6 L0,1 Z " fill="#6E948F" transform="translate(35,40)"/>
<path d="M0,0 L2,1 L2,4 L4,5 L4,7 L0,7 Z " fill="#97C5C3" transform="translate(66,34)"/>
<path d="M0,0 L1,2 L3,2 L2,6 L-1,6 Z " fill="#78A19F" transform="translate(43,21)"/>
<path d="M0,0 L4,1 L-2,6 L-1,1 Z " fill="#101717" transform="translate(142,34)"/>
<path d="M0,0 L3,1 L3,4 L-2,3 L-2,1 Z " fill="#5A797F" transform="translate(140,22)"/>
<path d="M0,0 L6,1 L3,3 L0,3 Z " fill="#567B78" transform="translate(102,94)"/>
<path d="M0,0 L4,2 L2,2 L1,5 L-1,4 Z " fill="#56787C" transform="translate(137,34)"/>
<path d="M0,0 L2,0 L2,2 L6,3 L-1,3 L-2,1 Z " fill="#80A6A9" transform="translate(59,25)"/>
<path d="M0,0 L4,2 L3,3 L-2,3 Z " fill="#66928D" transform="translate(50,43)"/>
<path d="M0,0 L1,0 L0,8 L-2,5 L-2,3 L0,3 Z " fill="#81A7A6" transform="translate(37,29)"/>
<path d="M0,0 L4,1 L2,4 L0,4 Z " fill="#87AEB1" transform="translate(110,30)"/>
<path d="M0,0 L3,0 L2,5 L0,5 Z " fill="#86AEAC" transform="translate(35,27)"/>
<path d="M0,0 L2,0 L2,4 L-1,4 Z " fill="#5F8181" transform="translate(130,86)"/>
<path d="M0,0 L3,1 L2,4 L0,4 L0,2 L-2,1 Z " fill="#587A76" transform="translate(61,65)"/>
<path d="M0,0 L4,1 L5,3 L0,2 Z " fill="#557878" transform="translate(112,62)"/>
<path d="M0,0 L1,2 L3,3 L-2,4 Z " fill="#759A9B" transform="translate(98,52)"/>
<path d="M0,0 L5,1 L5,3 L1,3 Z " fill="#779C9F" transform="translate(107,25)"/>
<path d="M0,0 L3,0 L4,5 L0,2 Z " fill="#80A4A6" transform="translate(104,23)"/>
<path d="M0,0 L4,1 L2,1 L2,3 L-1,3 Z " fill="#597F7C" transform="translate(108,96)"/>
<path d="M0,0 L2,1 L1,5 L-1,1 Z " fill="#6C9594" transform="translate(128,91)"/>
<path d="M0,0 L1,3 L-3,4 L-2,1 Z " fill="#72999A" transform="translate(95,56)"/>
<path d="M0,0 L4,1 L3,3 L0,3 Z " fill="#44595A" transform="translate(102,51)"/>
<path d="M0,0 L3,1 L2,4 L0,4 L-1,1 Z " fill="#7EA4A5" transform="translate(99,50)"/>
<path d="M0,0 L4,1 L3,3 L0,3 Z " fill="#44585A" transform="translate(110,41)"/>
<path d="M0,0 L4,1 L3,3 L0,3 Z " fill="#B7E3E7" transform="translate(96,34)"/>
<path d="M0,0 L3,0 L3,3 L0,3 Z " fill="#5F827D" transform="translate(71,92)"/>
<path d="M0,0 L4,1 L3,3 L0,2 Z " fill="#B0DBDF" transform="translate(76,35)"/>
<path d="M0,0 L5,1 L1,3 Z " fill="#8AB2B5" transform="translate(66,25)"/>
<path d="M0,0 L3,0 L3,3 L0,3 Z " fill="#59797B" transform="translate(117,21)"/>
<path d="M0,0 L2,1 L2,3 L-1,3 Z " fill="#5F7F80" transform="translate(144,76)"/>
<path d="M0,0 L3,1 L1,4 Z " fill="#5E827E" transform="translate(63,62)"/>
</svg>
