<?xml version="1.0" encoding="UTF-8"?>
<!-- Generator: visioncortex VTracer 0.6.4 -->
<svg version="1.1" xmlns="http://www.w3.org/2000/svg" width="200" height="168">
<path d="M0,0 L200,0 L200,168 L0,168 Z " fill="#000000" transform="translate(0,0)"/>
<path d="M0,0 L10,0 L10,2 L16,2 L16,4 L24,4 L26,7 L30,8 L30,10 L36,10 L36,12 L40,12 L40,16 L42,16 L46,20 L46,24 L48,24 L48,26 L50,26 L50,34 L46,38 L26,38 L26,36 L21,40 L20,50 L16,50 L16,54 L8,61 L5,64 L4,68 L0,72 L-10,72 L-10,64 L-8,64 L-8,58 L-6,58 L-6,50 L-4,50 L-4,48 L-6,48 L-6,46 L-11,45 L-12,42 L-18,42 L-18,40 L-25,42 L-26,44 L-34,44 L-34,46 L-40,46 L-40,48 L-48,48 L-48,46 L-52,46 L-52,44 L-64,44 L-68,40 L-70,35 L-74,32 L-74,24 L-70,20 L-68,20 L-68,18 L-64,18 L-64,16 L-62,16 L-62,10 L-58,10 L-58,8 L-48,8 L-48,6 L-38,6 L-38,8 L-34,8 L-33,16 L-30,19 L-18,20 L-18,22 L-15,20 L-12,20 L-10,16 L-8,16 L-8,14 L-4,14 L-4,8 L0,6 Z " fill="#B5E9B3" transform="translate(120,30)"/>
<path d="M0,0 L10,0 L10,2 L16,2 L16,4 L24,4 L26,7 L30,8 L30,10 L36,10 L36,12 L40,12 L40,16 L42,16 L43,19 L40,19 L41,17 L38,18 L39,13 L30,14 L22,11 L12,8 L12,10 L5,11 L4,16 L-1,18 L-6,21 L-8,21 L-8,23 L-13,26 L-19,26 L-21,25 L-32,24 L-42,20 L-44,18 L-44,12 L-46,12 L-46,16 L-48,16 L-48,12 L-50,12 L-50,14 L-58,13 L-59,19 L-61,23 L-65,23 L-65,33 L-59,41 L-63,41 L-63,43 L-48,42 L-51,43 L-51,45 L-49,44 L-40,44 L-34,45 L-34,46 L-40,46 L-40,48 L-48,48 L-48,46 L-52,46 L-52,44 L-64,44 L-68,40 L-70,35 L-74,32 L-74,24 L-70,20 L-68,20 L-68,18 L-64,18 L-64,16 L-62,16 L-62,10 L-58,10 L-58,8 L-48,8 L-48,6 L-38,6 L-38,8 L-34,8 L-33,16 L-30,19 L-18,20 L-18,22 L-15,20 L-12,20 L-10,16 L-8,16 L-8,14 L-4,14 L-4,8 L0,6 Z " fill="#ABE89C" transform="translate(120,30)"/>
<path d="M0,0 L3,0 L3,2 L12,3 L11,16 L4,18 L3,38 L-2,43 L-8,44 L-8,49 L-12,51 L-14,46 L-13,36 L-15,35 L-15,33 L-20,31 L-22,28 L-22,25 L-27,24 L-22,19 L-21,14 L-18,11 L-13,8 L-9,7 L-7,3 Z " fill="#BEF6B1" transform="translate(133,40)"/>
<path d="M0,0 L3,1 L3,5 L5,5 L5,7 L7,7 L7,15 L3,19 L-17,19 L-17,17 L-22,21 L-23,31 L-27,31 L-27,35 L-35,42 L-38,45 L-39,49 L-43,53 L-53,53 L-53,45 L-51,45 L-51,39 L-49,39 L-49,31 L-47,31 L-47,29 L-49,29 L-49,27 L-54,26 L-55,23 L-61,23 L-61,21 L-68,23 L-69,25 L-77,25 L-77,24 L-71,23 L-74,21 L-72,21 L-72,19 L-54,19 L-49,23 L-45,24 L-45,26 L-42,27 L-43,37 L-42,42 L-39,40 L-38,35 L-29,32 L-28,29 L-27,15 L-25,15 L-25,11 L-11,11 L-11,13 L0,14 L0,6 L-1,2 Z " fill="#9FE2A5" transform="translate(163,49)"/>
<path d="M0,0 L9,0 L12,3 L23,5 L24,6 L37,7 L37,11 L28,12 L26,19 L22,19 L22,21 L10,21 L10,19 L5,19 L3,16 L-1,15 L-2,7 L0,7 L0,3 Z " fill="#B9F4B4" transform="translate(62,49)"/>
<path d="M0,0 L8,1 L14,4 L24,5 L27,5 L27,9 L29,9 L30,11 L31,13 L32,22 L31,25 L24,25 L20,24 L20,22 L6,22 L6,26 L4,26 L4,20 L6,18 L12,18 L12,7 L13,5 L4,4 L4,2 L-6,6 L-8,10 L-13,12 L-17,14 L-20,13 L-12,8 L-8,8 L-8,3 L-7,2 L0,2 Z " fill="#B1FBA9" transform="translate(132,38)"/>
<path d="M0,0 L3,0 L3,2 L12,3 L11,16 L4,18 L3,38 L-2,43 L-3,43 L-3,38 L-1,38 L-2,20 L-4,19 L-5,16 L-5,9 L-14,10 L-13,8 L-9,7 L-7,3 Z " fill="#B9F6AB" transform="translate(133,40)"/>
<path d="M0,0 L9,0 L16,1 L19,9 L19,12 L14,10 L13,9 L13,3 L11,3 L11,7 L9,7 L9,3 L7,3 L7,5 L-1,4 L-2,10 L-4,14 L-8,14 L-8,24 L-2,32 L-6,32 L-6,34 L9,33 L6,34 L6,36 L8,35 L17,35 L23,36 L23,37 L17,37 L17,39 L9,39 L9,37 L5,37 L5,35 L-7,35 L-11,31 L-13,26 L-17,23 L-17,15 L-13,11 L-11,11 L-11,9 L-4,8 L-4,2 L0,2 Z " fill="#A6E399" transform="translate(63,39)"/>
<path d="M0,0 L3,1 L3,5 L5,5 L5,7 L7,7 L7,15 L3,19 L-17,19 L-17,17 L-22,21 L-23,31 L-27,31 L-27,35 L-32,38 L-33,35 L-31,35 L-31,32 L-29,32 L-28,29 L-27,15 L-25,15 L-25,11 L-11,11 L-11,13 L0,14 L0,6 L-1,2 Z " fill="#A1E89C" transform="translate(163,49)"/>
<path d="M0,0 L2,0 L2,4 L4,4 L4,0 L6,0 L8,7 L18,11 L29,12 L31,13 L37,13 L42,10 L44,11 L42,13 L42,18 L37,21 L41,23 L43,28 L46,31 L41,29 L39,27 L26,27 L22,26 L22,24 L28,22 L32,22 L32,20 L29,19 L29,14 L16,14 L7,9 L2,7 L-9,6 L-8,1 L0,2 Z " fill="#B8E4AC" transform="translate(70,42)"/>
<path d="M0,0 L16,0 L16,4 L20,4 L20,10 L18,10 L18,15 L13,16 L13,21 L9,23 L7,18 L8,8 L6,7 L6,5 L1,3 Z " fill="#C1F7BA" transform="translate(112,68)"/>
<path d="M0,0 L2,0 L2,2 L9,2 L11,5 L14,7 L12,14 L8,14 L8,16 L-4,16 L-4,13 L-6,13 L-6,10 L-3,10 L-3,3 Z " fill="#C1F6BF" transform="translate(76,54)"/>
<path d="M0,0 L10,0 L10,2 L14,2 L15,10 L18,13 L30,14 L30,16 L33,15 L33,17 L30,18 L16,18 L10,15 L7,5 L-9,3 L-9,5 L-13,5 L-12,12 L-16,12 L-16,10 L-14,10 L-14,4 L-10,4 L-10,2 L0,2 Z " fill="#9AD595" transform="translate(72,36)"/>
<path d="M0,0 L8,1 L7,4 L10,3 L10,16 L9,21 L7,21 L7,16 L5,16 L6,25 L12,23 L15,24 L16,21 L16,25 L12,29 L2,29 L2,21 L4,21 L4,15 L6,15 L6,7 L8,7 L8,5 L6,5 L6,3 L1,2 Z " fill="#7CB582" transform="translate(108,73)"/>
<path d="M0,0 L2,0 L2,4 L4,4 L4,0 L6,0 L8,7 L18,11 L29,12 L31,13 L37,13 L41,11 L38,15 L16,14 L7,9 L2,7 L-9,6 L-8,1 L0,2 Z " fill="#ABE7A6" transform="translate(70,42)"/>
<path d="M0,0 L13,0 L15,1 L15,12 L12,12 L12,8 L-2,8 L-2,5 L1,4 L2,1 Z " fill="#C3F4B6" transform="translate(116,60)"/>
<path d="M0,0 L3,0 L3,4 L5,4 L6,6 L7,8 L8,17 L7,20 L0,20 L-1,5 L-3,1 Z " fill="#A4FDA6" transform="translate(156,43)"/>
<path d="M0,0 L5,1 L5,3 L10,3 L17,6 L27,6 L33,5 L37,7 L37,8 L30,8 L30,10 L13,10 L12,8 L1,8 L1,6 L4,5 Z " fill="#ACE1AA" transform="translate(56,65)"/>
<path d="M0,0 L10,0 L10,2 L16,2 L15,4 L3,5 L3,3 L9,3 L9,1 L1,1 L2,9 L0,15 L-3,18 L-8,18 L-9,20 L-11,19 L-10,22 L-15,21 L-12,20 L-10,16 L-8,16 L-8,14 L-4,14 L-4,8 L0,6 Z " fill="#9FDF93" transform="translate(120,30)"/>
<path d="M0,0 L18,0 L23,4 L27,5 L27,7 L30,8 L28,17 L27,17 L26,9 L24,9 L24,7 L20,6 L11,4 L11,2 L4,4 L3,6 L-5,6 L-5,5 L1,4 L-2,2 L0,2 Z " fill="#A3DBA0" transform="translate(91,68)"/>
<path d="M0,0 L11,0 L16,2 L20,5 L13,5 L12,2 L1,1 L3,6 L1,6 L1,8 L-1,8 L-1,17 L-6,17 L-7,12 L-6,5 L-2,4 Z " fill="#B1ECAA" transform="translate(61,48)"/>
<path d="M0,0 L2,0 L2,24 L-3,29 L-4,29 L-4,24 L-2,24 L-2,6 Z " fill="#B7ECAB" transform="translate(134,54)"/>
<path d="M0,0 L8,1 L14,4 L22,7 L24,12 L22,12 L22,9 L18,9 L18,7 L13,7 L13,5 L4,4 L4,2 L-6,6 L-8,10 L-13,12 L-17,14 L-20,13 L-12,8 L-8,8 L-8,3 L-7,2 L0,2 Z " fill="#B3F1A4" transform="translate(132,38)"/>
<path d="M0,0 L3,1 L3,5 L5,5 L5,7 L7,7 L7,15 L3,19 L-17,19 L-17,18 L1,17 L1,8 L-1,5 Z " fill="#84DE88" transform="translate(163,49)"/>
<path d="M0,0 L6,1 L4,4 L3,14 L-1,14 L-1,18 L-6,21 L-7,18 L-5,18 L-5,15 L-3,15 Z " fill="#9FDD9B" transform="translate(137,66)"/>
<path d="M0,0 L2,0 L2,2 L6,2 L6,7 L2,7 L2,5 L-12,5 L-12,9 L-14,9 L-14,3 L-12,1 L0,2 Z " fill="#ADF6A5" transform="translate(150,55)"/>
<path d="M0,0 L1,3 L3,3 L4,1 L9,5 L5,5 L5,7 L20,6 L17,7 L17,9 L19,8 L28,8 L34,9 L34,10 L28,10 L28,12 L20,12 L20,10 L16,10 L16,8 L4,8 L0,4 Z " fill="#8CBC8C" transform="translate(52,66)"/>
<path d="M0,0 L8,0 L10,3 L14,4 L14,6 L20,6 L20,8 L24,8 L24,12 L26,12 L27,15 L24,15 L25,13 L22,14 L23,9 L15,10 L15,8 L11,7 L13,7 L13,5 L7,6 L4,4 L4,1 Z " fill="#7DC478" transform="translate(136,34)"/>
<path d="M0,0 L8,0 L8,10 L0,10 Z " fill="#79BB73" transform="translate(86,28)"/>
<path d="M0,0 L10,0 L10,2 L14,2 L14,10 L13,10 L13,3 L10,4 L0,4 L-9,3 L-9,5 L-13,5 L-12,12 L-16,12 L-16,10 L-14,10 L-14,4 L-10,4 L-10,2 L0,2 Z " fill="#7FB879" transform="translate(72,36)"/>
<path d="M0,0 L8,0 L8,2 L2,2 L3,3 L14,2 L19,4 L18,7 L18,5 L7,6 L3,7 L3,9 L0,8 Z " fill="#A1DF90" transform="translate(121,31)"/>
<path d="M0,0 L9,0 L12,2 L12,4 L1,7 L0,9 L-6,9 L-2,8 L-1,1 Z " fill="#BCEEB8" transform="translate(90,60)"/>
<path d="M0,0 L4,1 L1,1 L2,5 L-1,8 L-2,13 L1,14 L-1,15 L-2,17 L-6,14 L-6,6 L-2,2 L0,2 Z " fill="#93CA86" transform="translate(52,48)"/>
<path d="M0,0 L5,0 L1,1 L1,11 L6,18 L2,16 L-1,17 L-1,14 L-3,14 L-2,10 L-4,9 L-4,4 L-1,3 Z " fill="#AAE39D" transform="translate(54,52)"/>
<path d="M0,0 L13,0 L13,4 L10,4 L10,7 L12,8 L7,8 L5,5 L1,4 Z " fill="#BEF3BB" transform="translate(60,60)"/>
<path d="M0,0 L7,0 L10,1 L9,6 L8,7 L0,7 Z " fill="#C6FCC3" transform="translate(75,60)"/>
<path d="M0,0 L9,0 L12,8 L12,11 L7,9 L6,8 L6,2 L4,2 L4,6 L2,6 Z " fill="#A4E29F" transform="translate(70,40)"/>
<path d="M0,0 L22,0 L23,3 L1,3 Z " fill="#94DC8E" transform="translate(142,64)"/>
<path d="M0,0 L7,0 L9,1 L8,5 L5,5 L5,8 L2,8 L2,5 L-3,4 Z " fill="#BFE9B0" transform="translate(109,60)"/>
<path d="M0,0 L4,0 L4,2 L6,2 L6,4 L4,4 L4,12 L2,12 L2,18 L1,18 L0,12 Z " fill="#0E140E" transform="translate(110,76)"/>
<path d="M0,0 L2,0 L2,2 L9,2 L11,6 L-3,6 L-2,2 Z " fill="#C0FCBC" transform="translate(76,54)"/>
<path d="M0,0 L10,0 L10,2 L16,2 L15,4 L3,5 L3,3 L9,3 L9,1 L1,1 L2,9 L-1,11 L-1,9 L-3,9 L-3,14 L-4,14 L-4,8 L0,6 Z " fill="#7BAD6E" transform="translate(120,30)"/>
<path d="M0,0 L5,0 L4,7 L-1,7 L-1,11 L-3,11 L-3,3 Z " fill="#BAFCBB" transform="translate(124,76)"/>
<path d="M0,0 L4,1 L1,1 L2,6 L-2,8 L-10,16 L-11,20 L-14,18 L-12,18 L-11,13 L-2,4 L0,4 Z " fill="#172318" transform="translate(136,80)"/>
<path d="M0,0 L7,1 L7,3 L9,3 L9,5 L12,5 L12,10 L9,11 L8,8 L6,7 L6,5 L1,3 Z " fill="#B8F3B6" transform="translate(112,68)"/>
<path d="M0,0 L18,0 L19,2 L12,1 L12,3 L17,3 L17,4 L11,4 L11,2 L4,4 L3,6 L-5,6 L-5,5 L1,4 L-2,2 L0,2 Z " fill="#92C18F" transform="translate(91,68)"/>
<path d="M0,0 L3,4 L1,4 L1,6 L-1,6 L-1,15 L-5,15 L-5,4 L-1,3 Z " fill="#B6EFAB" transform="translate(61,50)"/>
<path d="M0,0 L1,0 L1,8 L5,10 L7,12 L7,16 L10,17 L8,18 L5,17 L5,15 L1,13 L-1,8 Z M0,9 Z " fill="#141B12" transform="translate(45,54)"/>
<path d="M0,0 L8,1 L7,4 L10,3 L10,16 L8,18 L7,15 L7,8 L8,5 L6,5 L6,3 L1,2 Z " fill="#89C28B" transform="translate(108,73)"/>
<path d="M0,0 L2,1 L0,3 L0,8 L-13,8 L-13,5 L-4,4 Z " fill="#B5EAAA" transform="translate(112,52)"/>
<path d="M0,0 L1,0 L1,6 L3,6 L3,0 L4,0 L4,10 L0,10 L0,8 L-10,8 L-10,7 L0,7 L0,5 L-10,5 L-10,4 L0,4 Z " fill="#111A10" transform="translate(82,28)"/>
<path d="M0,0 L2,0 L2,2 L22,2 L22,3 L2,4 L-2,6 L-3,14 L-4,14 L-4,4 Z " fill="#1A2819" transform="translate(144,66)"/>
<path d="M0,0 Z M-3,1 L0,2 L0,5 L3,5 L4,9 L-3,9 L-3,7 L-6,7 L-6,4 L-4,4 Z " fill="#C1F8B3" transform="translate(119,51)"/>
<path d="M0,0 L1,0 L1,5 L-4,6 L-4,11 L-8,13 L-10,8 L-9,1 L-8,1 L-8,9 L-6,9 L-6,5 L-1,5 Z " fill="#B4F8B6" transform="translate(129,78)"/>
<path d="M0,0 L2,1 L0,5 L-5,8 L-11,8 L-13,6 L-7,5 L-7,3 L-3,3 L-3,1 Z " fill="#A4DE9A" transform="translate(112,48)"/>
<path d="M0,0 L3,0 L3,4 L5,4 L6,6 L7,8 L5,11 L0,7 L-3,1 Z " fill="#92EB95" transform="translate(156,43)"/>
<path d="M0,0 L9,0 L7,5 L-3,4 L-3,2 L0,2 Z " fill="#A4E59E" transform="translate(63,39)"/>
<path d="M0,0 L1,0 L1,8 L-3,12 L-23,12 L-23,11 L-5,10 L-5,8 L-3,8 L-2,6 L0,7 Z " fill="#619C5F" transform="translate(169,56)"/>
<path d="M0,0 L2,0 L2,14 L0,17 L-2,16 L-1,9 L-1,2 Z " fill="#B1E7A9" transform="translate(134,64)"/>
<path d="M0,0 L5,0 L5,3 L7,4 L4,8 L-2,8 L-2,5 L1,4 L2,1 Z " fill="#C3EEB5" transform="translate(116,60)"/>
<path d="M0,0 L6,0 L6,4 L0,4 L0,8 L-2,8 L-2,2 Z " fill="#B1F0A7" transform="translate(138,56)"/>
<path d="M0,0 L8,0 L10,3 L14,4 L13,6 L7,6 L4,4 L4,1 Z " fill="#83C276" transform="translate(136,34)"/>
<path d="M0,0 L2,1 L2,4 L7,5 L8,8 L13,8 L13,9 L2,8 L0,4 Z " fill="#B8EDB6" transform="translate(59,60)"/>
<path d="M0,0 L5,0 L5,2 L15,3 L15,5 L17,6 L16,8 L8,5 L2,3 L2,1 Z " fill="#A4E796" transform="translate(134,36)"/>
<path d="M0,0 L4,2 L3,10 L-4,10 L0,9 Z " fill="#9BF69F" transform="translate(160,53)"/>
<path d="M0,0 L2,0 L2,6 L-1,6 L-1,4 L-6,4 L-5,1 Z " fill="#BCF8B8" transform="translate(130,72)"/>
<path d="M0,0 L2,0 L2,4 L10,3 L9,6 L0,6 Z " fill="#9DE7A6" transform="translate(111,95)"/>
<path d="M0,0 L9,0 L5,5 L1,4 Z " fill="#BBF1B8" transform="translate(60,60)"/>
<path d="M0,0 L4,2 L2,4 L1,14 L-3,13 L0,13 L-1,1 Z " fill="#82B47B" transform="translate(139,66)"/>
<path d="M0,0 L4,1 L2,8 L-2,7 Z " fill="#BFF3BC" transform="translate(86,60)"/>
<path d="M0,0 L4,1 L1,1 L1,3 L3,4 L0,4 L-1,6 L-3,5 L-2,8 L-7,7 L-4,6 L-2,2 L0,2 Z " fill="#80B377" transform="translate(112,44)"/>
<path d="M0,0 L1,2 L-1,2 L0,5 L-5,6 L-5,8 L-7,7 L-6,2 Z " fill="#A1E4A4" transform="translate(131,82)"/>
<path d="M0,0 L5,1 L5,3 L10,3 L11,5 L4,5 Z " fill="#AFE4AD" transform="translate(56,65)"/>
<path d="M0,0 L12,0 L12,4 L9,4 L9,2 L0,1 Z " fill="#B7F0B2" transform="translate(87,56)"/>
<path d="M0,0 L6,0 L5,2 L4,4 L1,4 L1,6 L-3,4 Z " fill="#A5E79B" transform="translate(142,61)"/>
<path d="M0,0 L2,1 L0,4 L-2,4 L-2,7 L1,7 L1,9 L-4,8 L-3,3 Z " fill="#BCF3AE" transform="translate(115,51)"/>
<path d="M0,0 L6,0 L6,2 L2,2 L2,8 L0,8 Z " fill="#99E990" transform="translate(87,29)"/>
<path d="M0,0 L2,1 L1,8 L-2,11 L-2,6 L0,6 Z " fill="#B2EFAF" transform="translate(132,72)"/>
<path d="M0,0 L1,3 L3,3 L4,1 L9,5 L5,5 L4,7 L0,4 Z " fill="#93C58E" transform="translate(52,66)"/>
<path d="M0,0 L5,5 L6,7 L2,5 L-1,6 L-1,3 L-3,2 Z " fill="#A5DBA0" transform="translate(54,63)"/>
<path d="M0,0 L5,2 L5,4 L-5,6 L-4,4 L0,4 Z " fill="#BEE9B2" transform="translate(97,60)"/>
<path d="M0,0 L3,1 L3,5 L5,5 L4,7 L-1,5 Z " fill="#6FC374" transform="translate(163,49)"/>
<path d="M0,0 L3,0 L3,4 L7,5 L1,5 L-3,2 L0,2 Z " fill="#A1DB9C" transform="translate(87,49)"/>
<path d="M0,0 L8,0 L8,2 L2,2 L2,5 L0,5 Z " fill="#A2E492" transform="translate(121,31)"/>
<path d="M0,0 L3,1 L1,10 L0,10 L-1,3 Z " fill="#A6E6A8" transform="translate(118,75)"/>
<path d="M0,0 L5,0 L5,4 L0,5 Z " fill="#C1EEB5" transform="translate(92,60)"/>
<path d="M0,0 L6,2 L8,7 L6,7 L6,4 L2,4 L2,2 L0,2 Z " fill="#A8F09F" transform="translate(148,43)"/>
<path d="M0,0 L7,1 L8,3 L1,3 L-2,1 Z " fill="#ADE3AB" transform="translate(85,70)"/>
<path d="M0,0 L1,0 L1,8 L-4,11 L-5,8 L-3,8 L-2,6 L0,7 Z " fill="#63AF66" transform="translate(169,56)"/>
<path d="M0,0 L8,0 L8,2 L12,3 L4,3 L4,1 Z " fill="#A6EE9F" transform="translate(144,60)"/>
<path d="M0,0 L1,0 L1,7 L-2,7 L-3,1 Z " fill="#98D894" transform="translate(82,39)"/>
<path d="M0,0 L3,2 L-3,7 L-4,4 L-2,4 L-2,2 L0,2 Z " fill="#83C186" transform="translate(128,86)"/>
<path d="M0,0 L6,0 L6,3 L-2,3 L0,2 Z " fill="#9BDD95" transform="translate(63,39)"/>
<path d="M0,0 L1,4 L-4,7 L-5,4 L-3,4 L-3,2 L0,2 Z " fill="#74AC76" transform="translate(135,80)"/>
<path d="M0,0 L3,1 L3,3 L-3,4 L-3,1 Z " fill="#A3DD92" transform="translate(56,48)"/>
<path d="M0,0 L3,0 L2,5 L-3,2 Z " fill="#90E28C" transform="translate(156,43)"/>
<path d="M0,0 L5,1 L4,5 L2,5 L2,3 L-2,2 Z " fill="#A4E2A5" transform="translate(113,72)"/>
<path d="M0,0 L3,0 L4,5 L0,5 Z " fill="#B6EBB0" transform="translate(56,60)"/>
<path d="M0,0 L3,1 L0,4 L0,2 L-2,2 L-2,7 L-3,7 L-3,1 Z " fill="#87BF7B" transform="translate(119,37)"/>
<path d="M0,0 L3,2 L1,2 L1,5 L-2,5 L-2,1 Z " fill="#96D89C" transform="translate(122,92)"/>
<path d="M0,0 L3,0 L4,3 L-4,3 L0,2 Z " fill="#82DE85" transform="translate(161,64)"/>
<path d="M0,0 L4,1 L1,1 L2,5 L0,7 L-1,2 Z " fill="#92C881" transform="translate(52,48)"/>
<path d="M0,0 L2,0 L1,4 L-3,3 L-3,1 Z " fill="#9CDB8F" transform="translate(116,44)"/>
<path d="M0,0 L2,0 L2,2 L5,3 L-1,3 L-3,1 Z " fill="#A4E09F" transform="translate(102,53)"/>
<path d="M0,0 L2,3 L1,5 L-3,3 Z " fill="#7BAB6C" transform="translate(50,50)"/>
<path d="M0,0 L1,3 L-3,5 L-3,2 L0,2 Z " fill="#AFF3B3" transform="translate(124,86)"/>
<path d="M0,0 L2,0 L1,4 L-1,5 Z " fill="#99DA9B" transform="translate(116,80)"/>
<path d="M0,0 L4,1 L5,3 L0,2 Z " fill="#96D391" transform="translate(84,46)"/>
<path d="M0,0 L5,2 L5,3 L0,3 Z " fill="#B5ECAE" transform="translate(99,57)"/>
<path d="M0,0 L4,1 L5,4 L1,2 Z " fill="#BFFABB" transform="translate(82,56)"/>
<path d="M0,0 L2,1 L-1,4 L-3,3 L-3,1 Z " fill="#A2DB96" transform="translate(112,48)"/>
<path d="M0,0 L3,1 L3,3 L-1,1 Z " fill="#A3DE98" transform="translate(140,64)"/>
<path d="M0,0 L3,0 L2,3 L0,2 Z " fill="#88C78C" transform="translate(124,90)"/>
<path d="M0,0 L3,0 L2,3 L0,2 Z " fill="#81C084" transform="translate(130,84)"/>
<path d="M0,0 L2,0 L1,3 L-1,1 Z " fill="#8ED298" transform="translate(119,98)"/>
<path d="M0,0 L2,2 L-1,3 Z " fill="#9DDB9E" transform="translate(116,74)"/>
<path d="M0,0 L2,0 L1,3 L-1,1 Z " fill="#8AE48C" transform="translate(159,47)"/>
</svg>
