<?xml version="1.0" encoding="UTF-8"?>
<!-- Generator: visioncortex VTracer 0.6.4 -->
<svg version="1.1" xmlns="http://www.w3.org/2000/svg" width="114" height="134">
<path d="M0,0 L114,0 L114,134 L0,134 Z " fill="#000100" transform="translate(0,0)"/>
<path d="M0,0 L8,0 L8,2 L12,2 L12,0 L18,0 L22,4 L22,12 L20,12 L20,22 L18,22 L18,24 L24,24 L24,34 L20,34 L20,38 L24,38 L24,40 L26,40 L26,46 L32,46 L32,54 L30,54 L30,56 L24,56 L24,52 L20,52 L20,56 L14,56 L14,50 L12,50 L12,46 L10,46 L10,44 L4,44 L4,38 L2,38 L2,44 L-4,44 L-4,48 L-8,48 L-8,56 L-4,56 L-4,58 L0,58 L0,64 L-2,64 L-2,66 L2,68 L4,70 L20,70 L20,74 L22,74 L22,80 L24,80 L24,82 L26,82 L26,86 L28,86 L28,92 L26,92 L26,96 L24,96 L24,100 L12,100 L10,98 L6,97 L6,100 L0,100 L0,94 L2,94 L2,92 L-2,92 L-2,90 L-4,90 L-4,86 L-6,86 L-6,82 L-10,81 L-10,88 L-17,88 L-20,86 L-20,78 L-14,78 L-14,76 L-19,75 L-20,74 L-20,68 L-24,68 L-24,44 L-22,44 L-22,28 L-20,28 L-20,22 L-18,22 L-18,20 L-16,20 L-16,18 L-20,18 L-20,14 L-22,14 L-22,18 L-28,18 L-28,12 L-24,12 L-24,8 L-10,8 L-10,14 L-14,14 L-14,18 L-12,18 L-12,16 L-8,12 L-6,12 L-6,10 L-4,10 L-3,5 L0,4 Z " fill="#96E24E" transform="translate(62,16)"/>
<path d="M0,0 L7,0 L7,9 L11,9 L12,6 L12,8 L18,8 L18,18 L14,18 L14,22 L18,22 L18,24 L20,24 L20,30 L26,30 L26,38 L24,38 L24,40 L18,40 L18,36 L14,36 L14,40 L8,40 L8,34 L6,34 L6,30 L4,30 L4,28 L-2,28 L-2,22 L-4,22 L-4,28 L-10,28 L-10,32 L-14,32 L-14,40 L-10,40 L-10,42 L-6,42 L-6,48 L-8,48 L-8,50 L-4,52 L1,55 L1,57 L-6,56 L-7,51 L-10,51 L-10,49 L-13,48 L-15,45 L-15,42 L-17,42 L-20,36 L-20,26 L-17,23 L-11,21 L-10,20 L-2,20 L-2,18 L0,18 L1,15 L3,16 L3,13 L-8,13 L-8,8 L-6,8 L-5,3 L0,2 Z " fill="#579712" transform="translate(68,32)"/>
<path d="M0,0 L2,1 L1,3 L-1,3 L-2,27 L-3,28 L-4,38 L-2,38 L-2,42 L3,42 L3,46 L0,47 L-1,50 L10,51 L10,54 L15,56 L16,67 L19,68 L19,70 L28,71 L32,75 L31,79 L41,79 L42,65 L36,65 L35,63 L35,55 L21,56 L18,52 L22,52 L25,53 L25,50 L38,50 L38,54 L40,54 L40,60 L42,60 L42,62 L44,62 L44,66 L46,66 L46,72 L44,72 L44,76 L42,76 L42,80 L30,80 L28,78 L24,77 L24,80 L18,80 L18,74 L20,74 L20,72 L16,72 L16,70 L14,70 L14,66 L12,66 L12,62 L8,61 L8,68 L1,68 L-2,66 L-2,58 L4,58 L4,56 L-1,55 L-2,54 L-2,48 L-6,48 L-6,24 L-4,24 L-4,8 L-2,8 L-2,2 L0,2 Z " fill="#A0D53F" transform="translate(44,36)"/>
<path d="M0,0 L4,2 L6,7 L10,9 L15,14 L29,14 L30,24 L36,24 L36,33 L35,38 L25,38 L25,32 L13,29 L10,26 L8,15 L4,13 L4,10 L-2,10 L-1,1 Z " fill="#BEEC5F" transform="translate(50,77)"/>
<path d="M0,0 L8,0 L8,2 L12,2 L12,0 L18,0 L22,4 L22,12 L20,12 L20,22 L19,22 L18,4 L13,6 L3,6 L-2,12 L-4,12 L-5,16 L-6,20 L-16,20 L-16,18 L-20,18 L-20,14 L-22,14 L-22,18 L-28,18 L-28,12 L-24,12 L-24,8 L-10,8 L-10,14 L-14,14 L-14,18 L-12,18 L-12,16 L-8,12 L-6,12 L-6,10 L-4,10 L-3,5 L0,4 Z " fill="#77B53D" transform="translate(62,16)"/>
<path d="M0,0 L4,2 L-1,5 L-2,7 L-4,7 L-4,21 L4,17 L8,15 L16,15 L18,17 L10,18 L8,20 L2,22 L1,23 L1,33 L3,39 L5,39 L8,45 L10,46 L10,48 L13,48 L14,53 L8,49 L5,44 L2,43 L0,51 L-5,51 L-4,47 L-1,47 L-1,43 L-6,43 L-6,39 L-8,39 L-8,29 L-7,28 L-6,10 L-5,4 L-3,4 L-2,1 Z " fill="#A4E439" transform="translate(48,35)"/>
<path d="M0,0 L2,1 L1,3 L-1,3 L-2,27 L-3,28 L-4,38 L-2,38 L-2,42 L3,42 L3,46 L0,47 L0,50 L6,52 L6,55 L10,55 L10,57 L12,59 L12,62 L8,61 L8,68 L1,68 L-2,66 L-2,58 L4,58 L4,56 L-1,55 L-2,54 L-2,48 L-6,48 L-6,24 L-4,24 L-4,8 L-2,8 L-2,2 L0,2 Z " fill="#93D135" transform="translate(44,36)"/>
<path d="M0,0 L4,1 L3,3 L8,2 L8,4 L10,4 L10,9 L17,9 L17,17 L15,17 L15,19 L9,19 L9,15 L4,15 L4,18 L0,18 L1,11 L-1,11 L-2,8 L-10,6 L-9,2 L-3,2 L-3,4 L-1,4 Z " fill="#519814" transform="translate(77,53)"/>
<path d="M0,0 L6,0 L6,10 L12,10 L12,18 L8,18 L8,20 L6,20 L6,22 L0,22 L2,18 L4,18 L4,12 L-8,12 L-8,8 L-6,8 L-5,3 L0,2 Z " fill="#000000" transform="translate(68,32)"/>
<path d="M0,0 L1,0 L1,13 L3,13 L3,0 L4,0 L4,16 L2,16 L2,40 L1,40 L0,23 L-1,28 L-2,28 L-3,23 L-4,25 L-8,25 L-8,23 L-14,23 L-14,16 L-7,16 L-6,11 L0,11 L0,9 L-2,8 L0,8 Z " fill="#121E07" transform="translate(36,44)"/>
<path d="M0,0 L4,0 L4,2 L0,2 L0,4 L3,4 L5,9 L10,10 L8,13 L4,13 L3,16 L-6,20 L-8,20 L-8,6 L-6,6 L-4,2 Z " fill="#9CE542" transform="translate(52,36)"/>
<path d="M0,0 L1,0 L1,9 L5,9 L6,6 L6,8 L12,8 L12,18 L8,18 L8,22 L12,22 L12,24 L14,24 L14,30 L13,30 L13,25 L10,26 L10,24 L6,24 L6,22 L3,21 L2,25 L0,25 L0,23 L-3,25 L-7,25 L-7,27 L0,27 L2,28 L2,32 L4,32 L3,39 L7,39 L8,36 L8,40 L2,40 L2,34 L0,34 L0,30 L-2,30 L-2,28 L-8,28 L-8,22 L-6,20 L-6,22 L0,22 L0,20 L2,20 L2,18 L6,18 L6,10 L0,10 Z " fill="#508C19" transform="translate(74,32)"/>
<path d="M0,0 L5,2 L5,5 L-2,5 L-2,7 L-7,9 L-8,13 L-10,13 L-10,18 L1,18 L1,21 L-1,21 L-4,24 L-14,23 L-10,21 L-9,20 L-14,18 L-15,13 L-18,13 L-18,11 L-10,11 L-9,4 Z " fill="#AED240" transform="translate(70,27)"/>
<path d="M0,0 L13,0 L13,4 L15,4 L15,10 L17,10 L17,12 L19,12 L19,21 L17,20 L17,15 L11,15 L10,13 L10,5 L-4,6 L-7,2 L-3,2 L0,3 Z " fill="#A4D54D" transform="translate(69,86)"/>
<path d="M0,0 L12,0 L12,6 L7,8 L7,10 L3,10 L3,12 L-3,12 L-6,15 L-6,18 L-8,18 L-7,30 L-9,30 L-12,24 L-12,14 L-9,11 L-3,9 L-2,8 L6,8 L6,6 L8,6 L9,3 L11,4 L11,1 L0,1 Z " fill="#67AE15" transform="translate(60,44)"/>
<path d="M0,0 L14,0 L14,6 L10,6 L9,10 L9,7 L5,7 L5,9 L8,10 L4,10 L4,6 L2,6 L2,10 L-4,10 L-4,4 L0,4 Z " fill="#5A9616" transform="translate(38,24)"/>
<path d="M0,0 L6,0 L10,4 L10,12 L8,12 L8,22 L7,22 L6,4 L1,6 L-10,6 L-11,1 L-5,1 L-4,3 L0,3 Z " fill="#92D253" transform="translate(74,16)"/>
<path d="M0,0 L4,2 L6,6 L3,6 L3,8 L5,8 L6,12 L10,14 L10,16 L13,17 L14,28 L16,29 L13,29 L10,26 L8,15 L4,13 L4,10 L-2,10 L-1,1 Z " fill="#ADEB40" transform="translate(50,77)"/>
<path d="M0,0 L5,1 L13,9 L15,10 L15,22 L11,22 L9,11 L3,6 L2,2 L0,2 Z " fill="#BBF34D" transform="translate(53,83)"/>
<path d="M0,0 L1,0 L1,6 L8,6 L7,11 L6,16 L5,16 L4,11 L3,13 L-1,13 L-1,11 L-7,11 L-7,4 L0,4 Z " fill="#040701" transform="translate(29,56)"/>
<path d="M0,0 L6,0 L6,10 L5,10 L5,4 L3,4 L4,9 L-7,9 L-7,11 L4,11 L4,12 L-8,12 L-8,8 L-6,8 L-5,3 L0,2 Z " fill="#181C09" transform="translate(68,32)"/>
<path d="M0,0 L1,2 L6,3 L6,5 L4,5 L4,12 L-3,12 L-6,10 L-6,2 L0,2 Z " fill="#6B9D1B" transform="translate(48,92)"/>
<path d="M0,0 L2,0 L2,6 L0,6 L0,10 L-2,10 L-2,14 L-14,14 L-16,12 L-20,11 L-20,14 L-26,14 L-26,8 L-24,8 L-23,6 L-23,8 L-12,10 L-13,13 L-3,13 L-2,4 Z " fill="#7AA939" transform="translate(88,102)"/>
<path d="M0,0 L3,1 L3,7 L-2,10 L-4,10 L-5,17 L-9,17 L-9,11 L-7,7 L-2,2 Z " fill="#A3E654" transform="translate(65,21)"/>
<path d="M0,0 L3,0 L4,10 L10,10 L10,19 L9,24 L-1,24 L0,21 L4,21 L4,23 L8,23 L9,12 L4,12 L-3,9 L-3,7 L0,5 Z " fill="#B3E557" transform="translate(76,91)"/>
<path d="M0,0 L2,1 L1,3 L-1,3 L-2,27 L-5,28 L-5,47 L-2,48 L-6,48 L-6,24 L-4,24 L-4,8 L-2,8 L-2,2 L0,2 Z " fill="#659B2B" transform="translate(44,36)"/>
<path d="M0,0 L4,0 L5,6 L1,7 L1,9 L4,9 L4,11 L-4,11 L-4,2 L-6,1 Z " fill="#BAEF5C" transform="translate(72,91)"/>
<path d="M0,0 L5,2 L5,5 L-2,5 L-2,7 L-7,9 L-8,13 L-10,13 L-11,17 L-11,13 L-14,12 L-9,12 L-10,6 L-7,3 Z " fill="#8DBF3F" transform="translate(70,27)"/>
<path d="M0,0 L8,0 L10,2 L2,3 L0,5 L-6,7 L-7,8 L-7,18 L-5,24 L-7,23 L-7,20 L-10,20 L-10,8 L-6,3 Z " fill="#82CF2A" transform="translate(56,50)"/>
<path d="M0,0 L9,0 L9,7 L8,9 L2,9 L2,4 L-1,4 Z " fill="#77C02D" transform="translate(84,63)"/>
<path d="M0,0 L8,0 L15,3 L15,10 L13,10 L12,8 L6,5 L6,3 L0,3 Z " fill="#CDF464" transform="translate(68,102)"/>
<path d="M0,0 L14,0 L14,6 L10,5 L13,5 L13,1 L1,1 L2,4 L4,6 L2,6 L2,10 L-4,10 L-4,4 L0,4 Z " fill="#416616" transform="translate(38,24)"/>
<path d="M0,0 L4,2 L-1,5 L-2,7 L-4,7 L-4,27 L-6,27 L-6,10 L-5,4 L-3,4 L-2,1 Z " fill="#8DD742" transform="translate(48,35)"/>
<path d="M0,0 L1,4 L8,4 L8,12 L7,12 L7,5 L-2,5 L-3,9 L0,10 L-5,10 L-5,13 L-9,13 L-9,11 L-6,11 L-5,2 Z " fill="#61A51E" transform="translate(86,58)"/>
<path d="M0,0 L5,0 L7,5 L12,6 L10,9 L2,10 L2,2 L-2,1 Z " fill="#B3EB41" transform="translate(50,40)"/>
<path d="M0,0 L4,3 L8,4 L8,7 L12,7 L12,9 L14,11 L14,14 L12,14 L12,11 L7,10 L7,8 L2,8 L0,6 Z " fill="#7FB52C" transform="translate(42,84)"/>
<path d="M0,0 L4,0 L4,8 L-3,10 L-3,2 Z " fill="#A9F941" transform="translate(48,42)"/>
<path d="M0,0 L3,1 L0,4 L-1,14 L-3,10 L-5,10 L-5,20 L-7,20 L-7,10 L-3,8 L-3,2 Z " fill="#94E83C" transform="translate(47,54)"/>
<path d="M0,0 L6,0 L10,4 L10,12 L8,12 L8,22 L7,22 L5,1 L0,1 Z " fill="#6ABB39" transform="translate(74,16)"/>
<path d="M0,0 L5,3 L8,3 L7,8 L11,10 L16,13 L16,15 L9,14 L8,9 L5,9 L5,7 L2,6 L0,3 Z " fill="#71AA22" transform="translate(53,74)"/>
<path d="M0,0 L6,0 L6,8 L2,8 L2,10 L0,10 L0,12 L-6,12 L-4,8 L-2,8 L-2,2 L0,6 L2,5 L2,7 L5,7 L5,1 L0,1 Z " fill="#121C06" transform="translate(74,42)"/>
<path d="M0,0 L13,0 L13,4 L15,4 L15,10 L17,10 L17,12 L19,12 L18,16 L17,14 L15,13 L16,11 L13,12 L14,5 L11,6 L11,4 L8,4 L8,1 L0,1 Z " fill="#80AE36" transform="translate(69,86)"/>
<path d="M0,0 L6,0 L6,8 L0,8 Z " fill="#45891A" transform="translate(26,72)"/>
<path d="M0,0 L6,0 L6,1 L1,1 L1,7 L6,6 L7,3 L7,9 L9,9 L9,2 L12,3 L10,3 L10,10 L3,10 L0,8 Z " fill="#4E7512" transform="translate(42,94)"/>
<path d="M0,0 L1,0 L3,7 L6,10 L20,11 L20,12 L4,13 L-2,8 L-2,6 L0,6 Z " fill="#101705" transform="translate(62,74)"/>
<path d="M0,0 L1,2 L10,3 L14,7 L10,8 L3,6 L0,3 Z " fill="#A8D549" transform="translate(62,104)"/>
<path d="M0,0 L1,2 L8,3 L8,5 L4,5 L4,8 L-2,8 L-2,2 L0,2 Z " fill="#5A7F1A" transform="translate(64,108)"/>
<path d="M0,0 L1,0 L1,8 L5,8 L5,10 L9,10 L9,16 L8,13 L5,14 L1,12 L0,10 Z " fill="#4F8812" transform="translate(53,64)"/>
<path d="M0,0 L1,0 L1,5 L8,5 L10,6 L10,10 L12,10 L11,17 L15,17 L16,14 L16,18 L10,18 L10,12 L8,12 L8,8 L6,8 L6,6 L0,6 Z " fill="#3B700B" transform="translate(66,54)"/>
<path d="M0,0 L2,1 L0,5 L-2,5 L-3,10 L-10,10 L-10,7 L-13,7 L-13,5 L-9,5 L-9,8 L-6,8 L-6,6 L-2,2 L0,2 Z " fill="#78B82A" transform="translate(56,26)"/>
<path d="M0,0 L12,0 L12,6 L7,8 L6,10 L-3,10 L-2,8 L6,8 L6,6 L8,6 L9,3 L11,4 L11,1 L0,1 Z " fill="#709F29" transform="translate(60,44)"/>
<path d="M0,0 L4,1 L4,5 L6,5 L6,9 L8,9 L7,11 L2,9 L2,7 L0,7 Z " fill="#0A0E03" transform="translate(52,97)"/>
<path d="M0,0 L2,0 L2,3 L0,3 L-3,6 L-13,5 L-9,3 L-7,1 Z " fill="#9CDA42" transform="translate(69,45)"/>
<path d="M0,0 L2,0 L2,4 L6,4 L6,6 L4,6 L4,8 L2,8 L2,14 L1,14 L1,8 L-1,7 L0,6 L-6,5 L-6,4 L0,4 Z " fill="#111907" transform="translate(40,30)"/>
<path d="M0,0 L2,0 L5,6 L5,10 L0,10 Z " fill="#9EF540" transform="translate(42,64)"/>
<path d="M0,0 L11,0 L13,11 L10,11 L11,6 L9,6 L8,3 L0,1 Z " fill="#4A8F0D" transform="translate(67,58)"/>
<path d="M0,0 L5,0 L5,2 L2,3 L2,7 L-5,7 L-3,3 L0,2 Z " fill="#010200" transform="translate(68,33)"/>
<path d="M0,0 L2,0 L2,2 L5,3 L3,3 L2,10 L-2,10 L-2,4 Z " fill="#9CDF4E" transform="translate(58,28)"/>
<path d="M0,0 L4,1 L4,3 L1,3 L-1,10 L-3,10 L-4,14 L-4,10 L-7,9 L-2,9 L-3,3 Z " fill="#9CCE46" transform="translate(63,30)"/>
<path d="M0,0 L1,4 L-1,4 L-1,6 L-3,6 L-5,10 L-7,10 L-7,12 L-9,12 L-9,8 L-5,8 L-5,2 L-1,1 Z " fill="#0C1405" transform="translate(57,22)"/>
<path d="M0,0 L4,0 L6,7 L10,8 L10,10 L4,10 L4,18 L3,18 L2,6 L3,1 Z M3,7 Z " fill="#111A06" transform="translate(38,84)"/>
<path d="M0,0 L6,0 L6,6 L0,6 Z " fill="#336513" transform="translate(22,60)"/>
<path d="M0,0 L6,0 L6,6 L0,6 Z " fill="#3D6A16" transform="translate(30,56)"/>
<path d="M0,0 L1,2 L5,0 L12,0 L11,2 L2,6 L0,6 Z " fill="#9BEF3C" transform="translate(44,50)"/>
<path d="M0,0 L2,3 L0,7 L-4,7 L-4,2 L-6,1 Z " fill="#BAEC57" transform="translate(72,91)"/>
<path d="M0,0 L6,2 L6,0 L10,0 L10,3 L6,3 L6,5 L1,4 L-1,1 Z " fill="#9ED03C" transform="translate(63,87)"/>
<path d="M0,0 L8,0 L8,2 L11,3 L11,5 L14,6 L10,7 L9,4 L0,1 Z " fill="#C0E959" transform="translate(66,105)"/>
<path d="M0,0 L5,0 L5,7 L1,7 Z " fill="#C0F84F" transform="translate(63,98)"/>
<path d="M0,0 L1,0 L1,10 L-1,10 L-1,13 L-5,13 L-5,6 L-3,8 L0,8 Z " fill="#8BD142" transform="translate(80,28)"/>
<path d="M0,0 L1,0 L0,10 L4,11 L3,13 L-1,13 L-1,11 L-7,11 L-7,10 L-1,10 Z " fill="#091003" transform="translate(29,56)"/>
<path d="M0,0 L6,0 L5,6 L0,6 Z " fill="#98DB4A" transform="translate(68,22)"/>
<path d="M0,0 L2,0 L5,6 L7,7 L7,9 L10,9 L11,14 L5,10 L0,2 Z " fill="#89C92E" transform="translate(51,74)"/>
<path d="M0,0 L1,0 L2,12 L0,12 L-2,2 Z " fill="#5BA212" transform="translate(51,62)"/>
<path d="M0,0 L1,0 L1,6 L-5,6 L-5,10 L-9,9 L-7,9 L-7,4 L0,4 Z " fill="#3B6C0D" transform="translate(63,54)"/>
<path d="M0,0 L1,4 L0,9 L-10,9 L-9,6 L-5,6 L-5,8 L-1,8 Z " fill="#AAD850" transform="translate(85,106)"/>
<path d="M0,0 L1,3 L4,3 L4,5 L6,5 L6,9 L8,10 L4,10 L4,8 L2,8 L2,4 L0,4 Z " fill="#75A42B" transform="translate(56,98)"/>
<path d="M0,0 L4,0 L4,3 L7,3 L6,5 L-4,5 L-4,3 L0,3 Z " fill="#A5E04A" transform="translate(73,87)"/>
<path d="M0,0 L3,1 L0,4 L-1,14 L-2,14 L-3,2 Z " fill="#8DE030" transform="translate(47,54)"/>
<path d="M0,0 L4,1 L1,2 L1,4 L-1,5 L-1,14 L-3,13 L-3,3 Z " fill="#6EB81B" transform="translate(51,55)"/>
<path d="M0,0 L3,0 L3,7 L1,8 L-1,7 Z " fill="#9FF455" transform="translate(76,22)"/>
<path d="M0,0 L3,1 L4,12 L6,13 L3,13 L1,8 Z " fill="#B3ED45" transform="translate(60,93)"/>
<path d="M0,0 L2,0 L5,6 L4,8 L1,12 Z " fill="#9CE439" transform="translate(47,70)"/>
<path d="M0,0 L5,0 L5,6 L0,5 Z " fill="#89D73C" transform="translate(88,63)"/>
<path d="M0,0 L2,0 L2,8 L-1,9 L-1,1 Z " fill="#A4F646" transform="translate(46,43)"/>
<path d="M0,0 L4,1 L3,3 L13,3 L14,0 L14,4 L2,4 Z " fill="#6E9034" transform="translate(72,112)"/>
<path d="M0,0 L10,1 L10,5 L6,5 L6,2 L0,1 Z " fill="#9FE037" transform="translate(44,86)"/>
<path d="M0,0 L1,4 L5,4 L5,6 L7,6 L7,12 L6,12 L6,7 L3,8 L3,6 L-1,6 Z " fill="#437A12" transform="translate(81,50)"/>
<path d="M0,0 L6,0 L10,4 L10,12 L9,12 L9,5 L5,4 L5,1 L0,1 Z " fill="#61A138" transform="translate(74,16)"/>
<path d="M0,0 L2,1 L0,3 L-4,3 L-4,10 L-5,10 L-6,1 Z " fill="#569E14" transform="translate(85,57)"/>
<path d="M0,0 L6,0 L7,3 L3,3 L3,5 L6,6 L2,6 L2,1 Z " fill="#5F941C" transform="translate(40,28)"/>
<path d="M0,0 L7,1 L10,4 L8,5 L1,3 Z " fill="#9AC740" transform="translate(64,107)"/>
<path d="M0,0 L4,0 L4,3 L8,4 L0,4 Z " fill="#C1F35C" transform="translate(68,98)"/>
<path d="M0,0 L4,0 L4,2 L8,2 L8,8 L7,8 L7,3 L2,4 L2,1 Z " fill="#3F6D0F" transform="translate(54,72)"/>
<path d="M0,0 L4,2 L-2,6 L-4,6 L-2,1 Z " fill="#8BD239" transform="translate(48,35)"/>
<path d="M0,0 L3,0 L3,7 L1,7 Z " fill="#C9F968" transform="translate(80,105)"/>
<path d="M0,0 L4,1 L4,5 L2,5 L0,7 Z " fill="#101605" transform="translate(52,97)"/>
<path d="M0,0 L4,1 L8,3 L8,5 L1,4 Z " fill="#749D29" transform="translate(61,84)"/>
<path d="M0,0 L5,0 L5,3 L-4,3 L0,2 Z " fill="#87CC4B" transform="translate(74,17)"/>
<path d="M0,0 L8,0 L4,3 L0,3 Z " fill="#CBF660" transform="translate(68,102)"/>
<path d="M0,0 L7,0 L6,2 L-1,3 Z " fill="#A0ED34" transform="translate(49,50)"/>
<path d="M0,0 L3,1 L2,6 L0,6 L-1,10 L-1,6 L-4,5 L1,5 Z " fill="#96AE36" transform="translate(60,34)"/>
<path d="M0,0 L1,2 L4,2 L4,6 L0,6 Z " fill="#9FDB48" transform="translate(56,32)"/>
<path d="M0,0 L3,1 L2,9 L0,5 Z " fill="#A0E44E" transform="translate(75,29)"/>
<path d="M0,0 L4,0 L4,2 L2,2 L2,8 L0,4 L-1,2 Z " fill="#0F1604" transform="translate(60,108)"/>
<path d="M0,0 L5,0 L5,3 L0,4 Z " fill="#629716" transform="translate(43,97)"/>
<path d="M0,0 L1,3 L0,5 L-2,5 L-2,3 L-6,1 Z " fill="#B1E752" transform="translate(72,91)"/>
<path d="M0,0 L4,0 L4,4 L0,4 Z " fill="#4A9818" transform="translate(23,61)"/>
<path d="M0,0 L4,0 L4,4 L0,4 Z " fill="#569B1B" transform="translate(31,57)"/>
<path d="M0,0 L6,0 L3,1 L3,3 L-4,3 L-4,1 Z " fill="#62A21E" transform="translate(60,53)"/>
<path d="M0,0 L4,0 L4,4 L0,4 Z " fill="#609419" transform="translate(35,29)"/>
<path d="M0,0 L5,0 L5,3 L0,3 Z " fill="#A6EC3D" transform="translate(43,83)"/>
<path d="M0,0 L5,0 L5,3 L0,3 Z " fill="#ABEC3C" transform="translate(43,74)"/>
<path d="M0,0 L2,1 L-2,3 L-2,5 L-4,5 L-4,1 Z " fill="#1A2908" transform="translate(52,29)"/>
<path d="M0,0 L5,0 L5,3 L0,3 Z " fill="#518914" transform="translate(39,25)"/>
<path d="M0,0 L4,0 L4,4 L1,4 Z " fill="#030401" transform="translate(75,45)"/>
<path d="M0,0 L4,1 L-2,6 L-1,1 Z " fill="#1E230B" transform="translate(64,34)"/>
<path d="M0,0 L4,0 L4,3 L-1,3 Z " fill="#9AD23D" transform="translate(69,87)"/>
<path d="M0,0 L5,0 L6,5 L0,1 Z " fill="#9FD53E" transform="translate(56,83)"/>
<path d="M0,0 L5,0 L4,5 Z " fill="#629C1B" transform="translate(56,77)"/>
<path d="M0,0 L3,0 L3,5 L1,5 Z " fill="#69AF1D" transform="translate(50,69)"/>
<path d="M0,0 L3,1 L2,5 L0,6 Z " fill="#0A1104" transform="translate(36,56)"/>
<path d="M0,0 L2,1 L0,5 L-3,4 L-2,2 L0,2 Z " fill="#6CA632" transform="translate(56,26)"/>
<path d="M0,0 L3,0 L2,4 L0,4 Z " fill="#7BC435" transform="translate(39,60)"/>
<path d="M0,0 L4,1 L1,3 L-2,2 Z " fill="#79C61C" transform="translate(51,55)"/>
<path d="M0,0 L3,1 L-2,4 L-3,2 Z " fill="#93E832" transform="translate(47,54)"/>
<path d="M0,0 L3,1 L2,4 L-2,3 L0,3 Z " fill="#83C035" transform="translate(68,47)"/>
<path d="M0,0 L2,4 L-2,4 L-2,1 Z " fill="#BCE13F" transform="translate(55,42)"/>
<path d="M0,0 L6,0 L5,3 L0,1 Z " fill="#89C74E" transform="translate(63,17)"/>
<path d="M0,0 L5,2 L1,3 Z " fill="#BAE15A" transform="translate(75,109)"/>
<path d="M0,0 L3,1 L4,4 L0,3 Z " fill="#C0F951" transform="translate(59,88)"/>
<path d="M0,0 L2,0 L3,5 L-1,1 Z " fill="#A5D83F" transform="translate(63,87)"/>
<path d="M0,0 L4,2 L3,4 L0,3 Z " fill="#89CC2B" transform="translate(43,86)"/>
<path d="M0,0 L5,1 L3,2 L2,4 L2,2 L0,2 Z " fill="#B8F848" transform="translate(53,83)"/>
<path d="M0,0 L3,0 L2,4 L0,3 Z " fill="#82CE3B" transform="translate(90,65)"/>
<path d="M0,0 L4,2 L-1,3 L-2,1 Z " fill="#87CB36" transform="translate(48,35)"/>
<path d="M0,0 L4,1 L3,3 L0,2 Z " fill="#80A233" transform="translate(72,112)"/>
<path d="M0,0 L4,2 L0,3 Z " fill="#9CD737" transform="translate(50,88)"/>
<path d="M0,0 L3,0 L3,3 L0,3 Z " fill="#4F9010" transform="translate(77,66)"/>
<path d="M0,0 L3,1 L2,3 L-2,1 Z " fill="#4F9214" transform="translate(82,55)"/>
<path d="M0,0 L3,1 L2,6 L0,2 Z " fill="#889A36" transform="translate(60,34)"/>
<path d="M0,0 L3,0 L3,3 L0,2 Z " fill="#C4FB53" transform="translate(65,102)"/>
<path d="M0,0 L2,2 L-1,3 Z " fill="#9FD33D" transform="translate(56,94)"/>
</svg>
