<?xml version="1.0" encoding="UTF-8"?>
<!-- Generator: visioncortex VTracer 0.6.4 -->
<svg version="1.1" xmlns="http://www.w3.org/2000/svg" width="118" height="106">
<path d="M0,0 L118,0 L118,106 L0,106 Z " fill="#010101" transform="translate(0,0)"/>
<path d="M0,0 L8,0 L8,10 L4,10 L4,14 L8,14 L8,16 L14,16 L14,14 L20,14 L20,20 L22,20 L22,22 L24,22 L24,30 L16,30 L16,32 L10,32 L10,28 L8,28 L8,22 L6,22 L6,20 L2,20 L2,18 L0,18 L0,24 L4,24 L4,30 L2,30 L2,36 L0,36 L0,40 L12,40 L12,36 L14,36 L14,34 L20,34 L20,36 L24,36 L24,38 L26,38 L26,44 L24,44 L24,46 L26,46 L26,60 L-10,60 L-10,56 L-12,56 L-12,44 L-10,44 L-10,38 L-12,38 L-12,26 L-8,24 L-8,4 L-6,4 L-6,2 L0,2 Z " fill="#908671" transform="translate(64,18)"/>
<path d="M0,0 L6,0 L6,4 L14,4 L14,18 L16,18 L16,28 L14,28 L14,32 L12,32 L12,34 L14,34 L16,39 L20,40 L20,50 L14,50 L14,52 L8,52 L8,54 L6,54 L6,60 L0,60 L0,50 L-2,50 L-2,42 L1,40 L4,40 L4,38 L6,38 L6,30 L4,30 L4,26 L2,26 L2,14 L4,14 L4,8 L-2,8 L-2,2 Z " fill="#907E6E" transform="translate(24,4)"/>
<path d="M0,0 L8,0 L8,10 L4,10 L4,14 L8,14 L8,16 L14,16 L14,14 L20,14 L20,20 L22,20 L22,22 L24,22 L24,30 L16,30 L16,32 L10,32 L10,28 L8,28 L8,22 L6,22 L6,20 L2,20 L2,18 L0,17 L2,17 L-1,8 L-5,8 L-5,6 L-7,6 L-6,26 L-9,25 L-8,29 L-9,34 L-8,38 L-9,45 L-11,45 L-11,55 L-9,55 L-9,59 L25,59 L25,47 L21,46 L23,46 L23,44 L20,43 L22,43 L23,37 L18,39 L19,35 L15,35 L15,37 L13,37 L12,40 L12,36 L14,36 L14,34 L20,34 L20,36 L24,36 L24,38 L26,38 L26,44 L24,44 L24,46 L26,46 L26,60 L-10,60 L-10,56 L-12,56 L-12,44 L-10,44 L-10,38 L-12,38 L-12,26 L-8,24 L-8,4 L-6,4 L-6,2 L0,2 Z " fill="#7E7161" transform="translate(64,18)"/>
<path d="M0,0 L8,2 L9,11 L7,11 L7,18 L11,18 L11,24 L9,24 L9,30 L7,30 L7,34 L19,34 L19,35 L7,35 L7,37 L15,37 L15,44 L13,43 L13,40 L7,41 L-1,41 L-1,50 L-4,49 L-4,39 L-2,39 L-2,29 L-3,24 L-2,19 L0,18 Z " fill="#8E7F6E" transform="translate(57,24)"/>
<path d="M0,0 L6,0 L6,1 L1,1 L1,3 L-1,3 L0,24 L-3,23 L-2,27 L-3,32 L-2,36 L-3,43 L-5,43 L-5,53 L-3,53 L-3,57 L31,57 L31,45 L27,44 L29,44 L29,42 L26,41 L28,41 L29,35 L24,37 L25,33 L21,33 L21,35 L19,35 L18,38 L18,34 L20,34 L20,32 L26,32 L26,34 L30,34 L30,36 L32,36 L32,42 L30,42 L30,44 L32,44 L32,58 L-4,58 L-4,54 L-6,54 L-6,42 L-4,42 L-4,36 L-6,36 L-6,24 L-2,22 L-2,2 L0,2 Z " fill="#665C4D" transform="translate(58,20)"/>
<path d="M0,0 L10,0 L10,2 L18,2 L18,8 L16,8 L16,12 L14,12 L14,14 L8,14 L6,10 L0,10 Z " fill="#766456" transform="translate(24,68)"/>
<path d="M0,0 L5,1 L5,3 L7,4 L7,16 L-10,16 L-10,13 L-6,13 L-7,11 L-7,4 L-1,2 Z " fill="#908770" transform="translate(82,61)"/>
<path d="M0,0 L2,0 L2,2 L6,2 L6,4 L8,4 L8,10 L10,10 L10,14 L20,15 L20,16 L14,16 L14,18 L12,18 L12,22 L0,22 L0,18 L2,18 L2,12 L4,12 L4,6 L0,6 Z " fill="#11100D" transform="translate(64,36)"/>
<path d="M0,0 L6,0 L6,4 L14,4 L14,18 L16,18 L16,28 L14,28 L14,32 L12,32 L12,34 L14,34 L16,39 L20,40 L20,50 L14,50 L14,49 L19,49 L19,41 L14,42 L13,35 L9,36 L9,34 L11,34 L11,32 L9,32 L10,29 L11,31 L13,31 L12,28 L12,18 L13,5 L6,5 L5,14 L4,14 L4,8 L-2,8 L-2,2 Z " fill="#6D5F52" transform="translate(24,4)"/>
<path d="M0,0 L7,1 L9,6 L14,7 L14,11 L8,11 L8,13 L6,13 L6,19 L0,19 L0,9 L-2,9 L-2,1 Z " fill="#8F7E6F" transform="translate(24,45)"/>
<path d="M0,0 L6,0 L6,2 L10,2 L10,8 L8,8 L8,10 L-6,10 L-6,2 L0,2 Z " fill="#897663" transform="translate(82,18)"/>
<path d="M0,0 L6,0 L6,9 L-4,9 L-6,8 L-7,13 L-9,13 L-8,1 Z " fill="#948470" transform="translate(64,64)"/>
<path d="M0,0 L6,0 L6,6 L2,6 L2,10 L-8,10 L-8,2 L0,2 Z " fill="#604C3C" transform="translate(14,8)"/>
<path d="M0,0 L4,0 L3,8 L0,12 L-2,12 L-2,14 L0,14 L0,16 L-4,16 L-4,13 L-6,13 L-6,2 L0,2 Z " fill="#918373" transform="translate(79,33)"/>
<path d="M0,0 L1,0 L2,5 L4,6 L4,9 L2,9 L2,13 L-6,13 L-7,11 L-7,4 L-1,2 Z " fill="#928973" transform="translate(82,61)"/>
<path d="M0,0 L2,1 L2,4 L4,4 L5,0 L5,4 L17,4 L17,5 L5,5 L5,7 L13,7 L13,14 L11,13 L11,10 L-1,10 Z " fill="#877A69" transform="translate(59,54)"/>
<path d="M0,0 L6,0 L6,4 L14,4 L14,18 L13,18 L13,5 L6,5 L5,14 L4,14 L4,8 L-2,8 L-2,2 Z " fill="#695346" transform="translate(24,4)"/>
<path d="M0,0 L5,1 L5,17 L3,17 L3,15 L-1,15 L-3,15 L-1,1 Z " fill="#947E6F" transform="translate(32,18)"/>
<path d="M0,0 L2,3 L2,5 L7,4 L7,12 L-3,11 L-5,4 L0,5 L-1,4 Z " fill="#8F806E" transform="translate(36,41)"/>
<path d="M0,0 L7,0 L7,10 L5,10 L4,13 L4,9 L2,10 L1,15 L0,15 L-1,3 Z " fill="#8F7767" transform="translate(30,9)"/>
<path d="M0,0 L1,4 L5,4 L5,6 L11,6 L11,4 L17,4 L17,10 L16,10 L16,5 L12,5 L12,7 L6,7 L7,12 L6,18 L5,18 L5,12 L3,12 L3,10 L-1,10 L-1,8 L-3,7 L-1,7 Z " fill="#736659" transform="translate(67,28)"/>
<path d="M0,0 L1,2 L-1,2 L-1,8 L2,7 L2,11 L7,12 L6,9 L14,10 L14,11 L8,11 L8,13 L6,13 L6,19 L0,19 L0,9 L-2,9 L-2,1 Z " fill="#6E5F54" transform="translate(24,45)"/>
<path d="M0,0 L2,1 L2,10 L-13,10 L-12,5 L0,6 Z " fill="#8B806B" transform="translate(70,67)"/>
<path d="M0,0 L6,0 L6,12 L0,12 Z " fill="#6D5446" transform="translate(10,66)"/>
<path d="M0,0 L6,0 L6,2 L10,2 L10,8 L9,8 L9,3 L0,4 L-5,3 L-5,9 L8,9 L8,10 L-6,10 L-6,2 L0,2 Z " fill="#6D5D4E" transform="translate(82,18)"/>
<path d="M0,0 L4,0 L4,3 L8,2 L7,8 L5,8 L5,6 L3,7 L-3,7 L-2,2 L0,2 Z " fill="#8C836D" transform="translate(79,53)"/>
<path d="M0,0 L6,0 L6,2 L10,2 L10,4 L12,4 L12,10 L10,10 L11,13 L7,12 L9,12 L9,10 L6,9 L8,9 L9,3 L4,5 L5,1 L1,1 L1,3 L-1,3 L-2,6 L-2,2 L0,2 Z " fill="#766E5B" transform="translate(78,52)"/>
<path d="M0,0 L4,0 L4,16 L2,16 L2,12 L0,12 Z " fill="#7F695C" transform="translate(26,18)"/>
<path d="M0,0 L1,0 L1,8 L7,8 L7,9 L-1,9 L-1,18 L-4,17 L-4,7 L0,6 Z " fill="#8C7A6A" transform="translate(57,56)"/>
<path d="M0,0 L1,0 L1,6 L5,6 L5,12 L3,12 L3,18 L2,18 L2,12 L-1,12 Z " fill="#7A6F5E" transform="translate(63,36)"/>
<path d="M0,0 L2,0 L2,2 L6,2 L6,4 L8,4 L8,10 L7,8 L5,8 L4,12 L4,6 L0,6 Z " fill="#13110F" transform="translate(64,36)"/>
<path d="M0,0 L4,0 L4,3 L2,4 L1,10 L-2,10 L-3,8 L-3,1 Z " fill="#968B75" transform="translate(78,64)"/>
<path d="M0,0 L3,0 L3,2 L5,2 L4,9 L2,9 L2,7 L-2,8 L-2,2 L0,2 Z " fill="#978474" transform="translate(25,45)"/>
<path d="M0,0 L3,1 L3,5 L8,6 L8,8 L-2,8 Z " fill="#010101" transform="translate(67,49)"/>
<path d="M0,0 L4,0 L4,10 L0,10 Z " fill="#7A695B" transform="translate(36,22)"/>
<path d="M0,0 L4,0 L3,8 L2,4 L-6,4 L-6,2 L0,2 Z M0,8 L2,8 L1,11 Z " fill="#91806F" transform="translate(79,33)"/>
<path d="M0,0 L6,0 L6,6 L0,6 Z " fill="#544032" transform="translate(76,8)"/>
<path d="M0,0 L8,2 L7,5 L0,7 Z " fill="#918170" transform="translate(57,24)"/>
<path d="M0,0 L8,0 L8,2 L2,2 L2,6 L5,6 L5,8 L0,8 Z " fill="#907968" transform="translate(25,69)"/>
<path d="M0,0 L5,0 L6,2 L2,2 L2,4 L10,4 L9,6 L0,6 Z " fill="#907D6A" transform="translate(77,21)"/>
<path d="M0,0 L10,0 L12,3 L11,5 L9,5 L8,9 L8,2 L0,2 Z " fill="#8C826D" transform="translate(64,59)"/>
<path d="M0,0 L2,0 L2,2 L5,2 L5,6 L1,7 L-2,5 L-2,10 L-3,10 L-3,4 L0,4 Z " fill="#0C0B09" transform="translate(69,44)"/>
<path d="M0,0 L2,3 L2,5 L7,4 L7,6 L5,6 L5,10 L2,9 L0,6 L1,4 L-1,4 Z " fill="#8C7B69" transform="translate(36,41)"/>
<path d="M0,0 L7,0 L7,5 L6,3 L2,3 L2,8 L1,4 L-1,3 Z " fill="#8E7262" transform="translate(30,9)"/>
<path d="M0,0 L1,4 L5,4 L4,6 L1,5 L0,9 L4,8 L5,12 L3,12 L3,10 L-1,10 L-1,8 L-3,7 L-1,7 Z " fill="#706457" transform="translate(67,28)"/>
<path d="M0,0 L6,1 L2,2 L2,4 L8,4 L8,6 L0,6 Z " fill="#7E654F" transform="translate(7,11)"/>
<path d="M0,0 L1,4 L13,4 L13,5 L1,5 L1,9 L-1,9 Z " fill="#716958" transform="translate(63,54)"/>
<path d="M0,0 L1,0 L2,10 L1,12 L-5,11 L-2,10 L-2,8 L0,8 Z " fill="#746458" transform="translate(30,34)"/>
<path d="M0,0 L3,0 L3,4 L1,4 L1,7 L-2,7 L-2,3 L0,3 Z " fill="#938474" transform="translate(78,37)"/>
<path d="M0,0 L1,2 L3,2 L3,9 L0,9 Z " fill="#9A8273" transform="translate(32,20)"/>
<path d="M0,0 L7,0 L7,3 L1,3 L-1,1 Z " fill="#8B7C6C" transform="translate(31,52)"/>
<path d="M0,0 L1,0 L1,6 L-6,6 L-6,4 L-1,4 Z " fill="#8F856F" transform="translate(86,41)"/>
<path d="M0,0 L2,3 L2,11 L0,10 L0,6 L-2,6 L-2,4 L0,4 Z " fill="#161210" transform="translate(38,32)"/>
<path d="M0,0 L4,1 L4,4 L-1,5 Z " fill="#988974" transform="translate(65,68)"/>
<path d="M0,0 L2,0 L3,9 L1,9 Z " fill="#8F8270" transform="translate(60,49)"/>
<path d="M0,0 L1,0 L1,7 L-2,8 L-2,2 L0,2 Z " fill="#8D7B6B" transform="translate(25,45)"/>
<path d="M0,0 L7,0 L7,4 L5,4 L5,2 L0,2 Z " fill="#917B6B" transform="translate(34,71)"/>
<path d="M0,0 L3,1 L3,6 L-1,6 Z " fill="#8F7A6C" transform="translate(26,57)"/>
<path d="M0,0 L4,1 L2,1 L2,3 L4,3 L4,5 L0,5 L0,2 L-2,1 Z " fill="#8E826E" transform="translate(75,44)"/>
<path d="M0,0 L5,1 L5,3 L7,3 L7,5 L3,4 L0,2 Z " fill="#8A7B6B" transform="translate(55,43)"/>
<path d="M0,0 L7,0 L5,1 L5,3 L0,3 Z " fill="#847563" transform="translate(64,19)"/>
<path d="M0,0 L3,0 L3,6 L-1,4 Z " fill="#89806A" transform="translate(84,62)"/>
<path d="M0,0 L4,0 L3,5 L0,4 Z " fill="#89806B" transform="translate(79,53)"/>
<path d="M0,0 L5,1 L4,4 L0,4 Z " fill="#968674" transform="translate(60,25)"/>
<path d="M0,0 L4,0 L4,4 L0,4 Z " fill="#7F5F4C" transform="translate(77,9)"/>
<path d="M0,0 L2,1 L1,5 L-4,5 L-3,3 L0,3 Z " fill="#8D7766" transform="translate(37,76)"/>
<path d="M0,0 L3,0 L3,4 L-2,3 L-2,1 Z " fill="#907B69" transform="translate(88,21)"/>
<path d="M0,0 L5,1 L6,3 L0,3 Z " fill="#8A7E6B" transform="translate(64,61)"/>
<path d="M0,0 L5,1 L5,3 L3,3 L2,5 Z " fill="#948171" transform="translate(31,45)"/>
<path d="M0,0 L2,4 L4,8 L1,8 L0,6 Z " fill="#706254" transform="translate(37,38)"/>
<path d="M0,0 L2,4 L0,7 L0,4 L-2,4 L-2,1 Z " fill="#8A7B6B" transform="translate(59,30)"/>
<path d="M0,0 L2,3 L2,6 L-2,5 Z " fill="#8B7C6C" transform="translate(64,29)"/>
<path d="M0,0 L2,0 L1,4 L-1,8 L-1,1 Z " fill="#897A6A" transform="translate(67,24)"/>
<path d="M0,0 L4,0 L4,4 L1,4 Z " fill="#80614E" transform="translate(15,9)"/>
<path d="M0,0 L7,1 L6,3 L2,2 Z " fill="#857362" transform="translate(84,24)"/>
<path d="M0,0 L4,0 L4,3 L0,3 Z " fill="#8B826C" transform="translate(72,74)"/>
<path d="M0,0 L2,1 L2,6 L-1,5 Z " fill="#907E6A" transform="translate(54,68)"/>
<path d="M0,0 L3,0 L2,4 L-1,4 Z " fill="#928372" transform="translate(68,33)"/>
<path d="M0,0 L3,3 L0,6 L-1,2 Z " fill="#8A7869" transform="translate(31,31)"/>
<path d="M0,0 L3,0 L3,2 L1,2 L1,4 L-1,4 Z " fill="#8D7B6C" transform="translate(32,36)"/>
<path d="M0,0 L2,4 L1,6 L-1,6 Z " fill="#907C6C" transform="translate(30,27)"/>
<path d="M0,0 L2,0 L3,4 L0,4 Z " fill="#826553" transform="translate(23,7)"/>
<path d="M0,0 L2,0 L2,4 L0,4 L0,2 L-2,1 Z " fill="#75594A" transform="translate(25,5)"/>
<path d="M0,0 L3,0 L3,2 L-1,3 Z " fill="#8E7868" transform="translate(32,76)"/>
<path d="M0,0 L2,1 L2,4 L-1,3 Z " fill="#8A7969" transform="translate(54,52)"/>
<path d="M0,0 L3,0 L3,3 L0,3 Z " fill="#988875" transform="translate(78,37)"/>
</svg>
