<?xml version="1.0" encoding="UTF-8"?>
<!-- Generator: visioncortex VTracer 0.6.4 -->
<svg version="1.1" xmlns="http://www.w3.org/2000/svg" width="62" height="62">
<path d="M0,0 L62,0 L62,62 L0,62 Z " fill="#040201" transform="translate(0,0)"/>
<path d="M0,0 L6,0 L6,4 L13,5 L13,2 L24,4 L25,1 L30,1 L35,4 L35,7 L38,7 L38,11 L42,11 L42,9 L44,9 L44,7 L51,7 L50,17 L54,18 L54,23 L50,23 L50,31 L42,31 L41,34 L36,34 L36,37 L38,37 L38,43 L22,41 L22,37 L20,37 L20,43 L14,43 L10,39 L10,9 L6,9 L6,5 L0,5 Z " fill="#9B7D20" transform="translate(0,3)"/>
<path d="M0,0 L4,1 L6,6 L2,6 L1,9 L-1,9 L-1,12 L10,14 L12,19 L14,19 L14,22 L23,22 L23,28 L16,28 L16,31 L13,31 L13,28 L9,27 L8,34 L5,34 L5,37 L-2,36 L-2,32 L-4,32 L-4,29 L-1,29 L-1,31 L1,31 L1,29 L4,29 L4,31 L6,31 L6,22 L3,22 L2,20 L0,23 L-6,23 L-7,12 L-12,12 L-12,19 L-9,19 L-9,21 L-11,22 L-12,32 L-8,33 L-7,34 L-7,39 L-9,39 L-9,37 L-14,35 L-14,7 L-3,5 Z " fill="#B78E63" transform="translate(26,5)"/>
<path d="M0,0 L5,0 L6,2 L6,11 L12,11 L14,7 L16,8 L15,10 L18,10 L18,19 L16,19 L16,17 L13,17 L13,19 L11,19 L11,17 L8,17 L8,20 L10,20 L10,24 L17,25 L17,22 L20,22 L21,15 L27,15 L25,16 L25,19 L27,20 L22,20 L22,23 L24,23 L24,29 L8,27 L8,22 L6,22 L5,13 L2,11 L3,18 L3,21 L0,20 L0,10 L3,9 L3,7 L0,7 Z " fill="#BD938A" transform="translate(14,17)"/>
<path d="M0,0 L1,4 L5,4 L5,2 L7,2 L7,0 L14,0 L13,10 L17,11 L17,16 L13,16 L13,24 L5,24 L5,23 L12,23 L12,17 L3,17 L3,14 L1,14 L-1,10 L-9,9 L-8,2 L-4,2 L-4,4 L0,4 Z " fill="#61482B" transform="translate(37,10)"/>
<path d="M0,0 L6,0 L6,5 L9,5 L9,28 L1,29 L0,28 Z " fill="#000000" transform="translate(0,8)"/>
<path d="M0,0 L8,1 L10,8 L13,9 L14,13 L10,17 L4,17 L3,6 L-2,6 L-2,13 L1,13 L1,15 L-1,16 L-2,26 L2,27 L3,28 L3,33 L1,33 L1,31 L-4,29 L-4,1 Z " fill="#BF925F" transform="translate(16,11)"/>
<path d="M0,0 L22,0 L22,3 L18,3 L18,6 L23,4 L24,2 L32,2 L32,5 L36,5 L36,10 L35,7 L31,6 L30,5 L25,5 L24,7 L17,7 L13,5 L13,8 L6,7 L6,3 L0,3 Z " fill="#726115" transform="translate(0,0)"/>
<path d="M0,0 L6,0 L9,3 L12,4 L12,1 L17,2 L17,6 L10,6 L10,9 L7,9 L7,6 L3,5 L2,12 L-1,12 L-1,15 L-8,14 L-8,10 L-10,10 L-10,7 L-7,7 L-7,9 L-5,9 L-5,7 L-2,7 L-2,9 L0,9 Z " fill="#BE8D6B" transform="translate(32,27)"/>
<path d="M0,0 L1,3 L6,4 L6,32 L11,34 L11,36 L13,36 L10,27 L10,20 L14,22 L14,31 L16,32 L14,32 L14,38 L8,38 L4,34 L4,4 L0,4 Z " fill="#93725C" transform="translate(6,8)"/>
<path d="M0,0 L7,0 L7,6 L5,6 L4,9 L1,9 L1,13 L-3,13 L-3,9 L-7,9 L-7,6 L-3,4 L-2,2 L0,2 Z " fill="#A57D3F" transform="translate(44,10)"/>
<path d="M0,0 L6,0 L4,1 L4,4 L6,5 L1,5 L1,8 L3,8 L3,14 L-13,12 L-12,8 L-12,11 L-10,10 L-4,10 L-4,7 L-1,7 Z " fill="#9D7368" transform="translate(35,32)"/>
<path d="M0,0 L4,0 L4,30 L7,31 L5,32 L-3,31 L-2,25 L3,24 L3,1 Z " fill="#1B140F" transform="translate(6,12)"/>
<path d="M0,0 L2,0 L2,2 L6,2 L6,4 L8,4 L8,7 L17,7 L16,9 L12,8 L12,11 L8,10 L8,8 L-3,7 L-2,2 L0,2 Z " fill="#C89A70" transform="translate(32,20)"/>
<path d="M0,0 L4,2 L8,4 L9,8 L5,12 L-1,12 L-1,8 L1,8 Z " fill="#E5B88C" transform="translate(21,16)"/>
<path d="M0,0 L16,0 L16,3 L12,3 L12,6 L6,6 L6,3 L0,3 Z " fill="#0D0C07" transform="translate(0,0)"/>
<path d="M0,0 L3,0 L3,2 L5,2 L5,0 L8,0 L8,2 L10,2 L10,0 L12,0 L12,5 L9,5 L9,8 L2,7 L2,3 L0,3 Z " fill="#D3A39D" transform="translate(22,34)"/>
<path d="M0,0 L5,0 L5,2 L3,3 L2,13 L6,14 L7,15 L7,20 L5,20 L5,18 L0,16 Z " fill="#C9968B" transform="translate(12,24)"/>
<path d="M0,0 L5,0 L5,5 L1,5 L1,13 L-7,13 L-7,12 L0,12 L0,6 L-9,6 L-9,5 L-2,4 Z " fill="#71563E" transform="translate(49,21)"/>
<path d="M0,0 L2,1 L1,4 L7,5 L6,7 L3,7 L3,11 L-1,11 L-1,7 L-5,7 L-5,4 L-1,2 Z " fill="#98682C" transform="translate(42,12)"/>
<path d="M0,0 L4,0 L4,3 L6,3 L6,7 L2,7 L2,5 L-2,5 L-3,11 L-6,10 L-6,7 L-3,4 L1,4 Z " fill="#8D5F2A" transform="translate(31,7)"/>
<path d="M0,0 L5,0 L6,7 L0,7 Z " fill="#9D774C" transform="translate(14,17)"/>
<path d="M0,0 L8,0 L8,3 L12,3 L12,8 L11,5 L7,4 L6,3 L1,3 L-2,3 Z " fill="#453903" transform="translate(24,2)"/>
<path d="M0,0 L1,2 L3,2 L3,5 L12,5 L11,7 L7,6 L7,9 L3,8 L2,3 L-2,4 L-2,2 L0,2 Z " fill="#A47B56" transform="translate(37,22)"/>
<path d="M0,0 L4,2 L4,10 L2,10 L0,7 Z " fill="#150F0E" transform="translate(16,28)"/>
<path d="M0,0 L6,0 L6,4 L8,5 L0,5 Z " fill="#867548" transform="translate(0,3)"/>
<path d="M0,0 L4,1 L6,6 L4,5 L4,3 L0,3 L0,7 L-7,7 L-3,5 Z " fill="#B68D46" transform="translate(26,5)"/>
<path d="M0,0 L6,0 L6,5 L0,5 Z " fill="#582A1D" transform="translate(40,53)"/>
<path d="M0,0 L3,0 L3,2 L5,2 L5,0 L7,0 L7,4 L3,4 L3,6 L0,6 Z " fill="#E2AFAC" transform="translate(27,34)"/>
<path d="M0,0 L1,4 L4,5 L0,6 L0,8 L-2,8 L-2,6 L-5,6 L-5,3 L-8,2 L-4,2 L-4,4 L0,4 Z " fill="#5B3911" transform="translate(37,10)"/>
<path d="M0,0 L2,0 L2,5 L-1,4 L-2,6 L-2,4 L-6,4 L-6,1 Z " fill="#D19F6B" transform="translate(22,12)"/>
<path d="M0,0 L5,0 L4,2 L2,1 L3,8 L3,11 L0,10 Z " fill="#7A594F" transform="translate(14,27)"/>
<path d="M0,0 L6,0 L4,1 L4,4 L6,5 L1,5 L0,8 Z " fill="#A67868" transform="translate(35,32)"/>
<path d="M0,0 L6,0 L7,4 L0,4 Z " fill="#E7AD8C" transform="translate(32,27)"/>
<path d="M0,0 L3,0 L3,6 L-2,6 L-1,1 Z " fill="#804C35" transform="translate(5,36)"/>
<path d="M0,0 L3,1 L2,12 L0,12 Z " fill="#D8AA6C" transform="translate(12,12)"/>
<path d="M0,0 L5,0 L5,5 L0,5 Z " fill="#885C30" transform="translate(49,21)"/>
<path d="M0,0 L3,0 L3,3 L6,3 L6,5 L-1,5 Z " fill="#0E0A05" transform="translate(29,13)"/>
<path d="M0,0 L6,0 L6,3 L2,3 L1,5 L-4,4 L0,3 Z " fill="#63591A" transform="translate(16,0)"/>
<path d="M0,0 L6,0 L6,4 L0,4 Z " fill="#A16251" transform="translate(26,49)"/>
<path d="M0,0 L5,1 L3,6 L-2,6 Z " fill="#F6C99C" transform="translate(23,21)"/>
<path d="M0,0 L8,0 L5,1 L5,5 L1,5 Z " fill="#9C6E37" transform="translate(40,18)"/>
<path d="M0,0 L6,0 L6,4 L0,4 Z " fill="#0E0D07" transform="translate(0,8)"/>
<path d="M0,0 L3,0 L4,5 L4,14 L3,14 L2,3 L-2,2 L0,2 Z " fill="#A27E6E" transform="translate(17,24)"/>
<path d="M0,0 L2,0 L2,5 L1,6 L-6,6 L-6,4 L0,4 Z " fill="#151009" transform="translate(46,20)"/>
<path d="M0,0 L4,0 L5,3 L2,3 L1,6 L-2,7 L-2,4 L0,4 Z " fill="#CD9059" transform="translate(26,8)"/>
<path d="M0,0 L1,4 L4,5 L0,5 L-1,8 L-1,4 L-3,4 L-4,8 L-4,3 L-1,2 Z " fill="#5C3D1A" transform="translate(49,16)"/>
<path d="M0,0 L5,0 L6,5 L1,4 Z " fill="#C09990" transform="translate(20,28)"/>
<path d="M0,0 L5,0 L5,4 L0,4 Z " fill="#574442" transform="translate(26,29)"/>
<path d="M0,0 L8,0 L7,3 L0,2 Z " fill="#9F622D" transform="translate(16,8)"/>
<path d="M0,0 L2,4 L0,6 L-4,6 L-4,3 L0,3 Z " fill="#0F0E01" transform="translate(22,0)"/>
<path d="M0,0 L5,0 L5,5 L3,5 L3,3 L0,2 Z " fill="#D7A7A1" transform="translate(14,39)"/>
<path d="M0,0 L4,0 L4,4 L0,4 Z " fill="#382918" transform="translate(15,18)"/>
<path d="M0,0 L6,0 L3,1 L2,5 L2,3 L0,3 Z " fill="#D29C89" transform="translate(32,31)"/>
<path d="M0,0 L3,0 L3,3 L-2,4 Z " fill="#D0A361" transform="translate(46,12)"/>
<path d="M0,0 L5,1 L5,3 L0,3 Z " fill="#C2AA71" transform="translate(0,4)"/>
<path d="M0,0 L5,0 L5,2 L0,3 Z " fill="#E0B18D" transform="translate(12,24)"/>
<path d="M0,0 L6,0 L7,3 L4,3 L4,1 L0,2 Z " fill="#AB8154" transform="translate(30,19)"/>
<path d="M0,0 L4,0 L4,3 L0,3 Z " fill="#964830" transform="translate(41,54)"/>
<path d="M0,0 L2,0 L2,4 L-2,4 L-2,2 L0,2 Z " fill="#E6ADA2" transform="translate(32,34)"/>
<path d="M0,0 L3,0 L4,4 L0,3 Z " fill="#E0B1B0" transform="translate(22,34)"/>
<path d="M0,0 L4,0 L4,3 L0,3 Z " fill="#FBBF9A" transform="translate(33,27)"/>
<path d="M0,0 L2,0 L2,5 L-1,4 Z " fill="#DFA971" transform="translate(22,12)"/>
<path d="M0,0 L6,1 L3,3 L-1,2 Z " fill="#B57F39" transform="translate(13,9)"/>
<path d="M0,0 L4,0 L5,3 L1,3 Z " fill="#D2955C" transform="translate(26,8)"/>
<path d="M0,0 L3,1 L2,4 L0,4 Z " fill="#D5A252" transform="translate(12,12)"/>
<path d="M0,0 L4,0 L4,2 L2,2 L1,4 Z " fill="#9E7225" transform="translate(31,7)"/>
<path d="M0,0 L3,0 L3,3 L0,3 Z " fill="#F3BE87" transform="translate(45,28)"/>
<path d="M0,0 L3,0 L3,3 L0,2 Z " fill="#A27553" transform="translate(40,28)"/>
</svg>
