<?xml version="1.0" encoding="UTF-8"?>
<!-- Generator: visioncortex VTracer 0.6.4 -->
<svg version="1.1" xmlns="http://www.w3.org/2000/svg" width="138" height="152">
<path d="M0,0 L138,0 L138,152 L0,152 Z " fill="#000000" transform="translate(0,0)"/>
<path d="M0,0 L10,0 L10,2 L12,2 L12,14 L14,14 L16,17 L32,18 L32,20 L36,20 L36,18 L40,18 L40,16 L42,16 L42,14 L50,14 L54,18 L54,26 L52,26 L52,32 L56,32 L56,44 L54,44 L54,50 L56,50 L56,54 L58,54 L58,82 L56,82 L56,88 L54,88 L54,90 L48,90 L48,92 L34,92 L34,90 L32,90 L32,86 L30,86 L30,70 L34,68 L34,64 L36,64 L36,62 L38,62 L40,58 L42,58 L42,52 L38,50 L38,36 L36,36 L36,34 L24,34 L24,36 L-15,36 L-20,32 L-20,24 L-18,24 L-18,22 L-16,22 L-16,16 L-8,16 L-6,12 L-2,10 L-2,6 L0,6 Z " fill="#E1C4B7" transform="translate(34,34)"/>
<path d="M0,0 L10,0 L10,2 L12,2 L12,14 L14,14 L16,17 L32,18 L32,20 L36,20 L36,18 L40,18 L40,16 L42,16 L42,14 L50,14 L54,18 L54,26 L52,26 L52,32 L56,32 L56,44 L54,44 L54,50 L56,50 L56,54 L58,54 L58,82 L56,82 L56,88 L54,88 L54,90 L48,90 L52,88 L52,85 L54,85 L54,72 L50,71 L50,61 L52,60 L52,48 L50,48 L50,26 L48,19 L38,20 L38,22 L18,22 L18,20 L8,19 L5,16 L5,13 L0,15 L-1,18 L-13,21 L-14,24 L-14,31 L-13,33 L-14,35 L23,35 L23,33 L21,32 L26,32 L26,30 L33,30 L33,33 L38,32 L38,36 L36,36 L36,34 L24,34 L24,36 L-15,36 L-20,32 L-20,24 L-18,24 L-18,22 L-16,22 L-16,16 L-8,16 L-6,12 L-2,10 L-2,6 L0,6 Z " fill="#C7B0A5" transform="translate(34,34)"/>
<path d="M0,0 L4,0 L7,5 L13,7 L14,9 L25,11 L25,13 L29,13 L29,15 L22,15 L22,18 L11,19 L1,19 L-2,21 L-9,21 L-9,19 L-13,17 L-14,16 L-14,9 L-13,7 L-6,5 L-2,5 L-1,1 Z " fill="#E9DAD3" transform="translate(35,47)"/>
<path d="M0,0 L8,0 L12,4 L12,12 L10,12 L10,18 L14,18 L14,30 L12,30 L12,36 L14,36 L14,40 L16,40 L16,68 L14,68 L14,74 L12,74 L12,76 L6,76 L10,74 L10,71 L12,71 L12,58 L8,57 L8,47 L10,46 L10,34 L8,34 L8,12 L6,5 L-4,6 L-4,8 L-12,8 L-12,5 L-27,5 L-26,3 L-10,4 L-10,6 L-6,6 L-6,4 L-2,4 L-2,2 L0,2 Z " fill="#CAAC9E" transform="translate(76,48)"/>
<path d="M0,0 L5,1 L7,8 L7,29 L9,30 L8,35 L4,34 L4,15 L3,6 L2,4 L-5,5 L-7,9 L-6,14 L-11,15 L-11,12 L-18,12 L-18,14 L-21,15 L-21,17 L-58,17 L-59,13 L-59,6 L-57,2 L-56,4 L-56,11 L-52,14 L-52,16 L-46,15 L-42,13 L-21,13 L-21,10 L-14,10 L-14,8 L-18,8 L-18,6 L-26,6 L-30,4 L-30,2 L-26,2 L-26,4 L-6,4 L-6,2 Z " fill="#CCBEAE" transform="translate(78,52)"/>
<path d="M0,0 L4,1 L5,3 L6,12 L6,31 L8,33 L8,38 L6,40 L4,47 L3,43 L1,43 L1,47 L-1,47 L0,42 L2,42 L2,30 L1,21 L-1,21 L-3,13 L-5,11 L-7,5 L-4,1 Z " fill="#E1C0B2" transform="translate(77,55)"/>
<path d="M0,0 L10,0 L14,4 L14,12 L10,12 L10,16 L2,16 L2,14 L-2,14 L-2,12 L-6,12 L-6,10 L-8,10 L-8,4 L-6,4 L-6,2 L0,2 Z " fill="#D39E93" transform="translate(72,12)"/>
<path d="M0,0 L4,0 L4,4 L6,4 L6,32 L4,32 L4,38 L2,38 L2,40 L-4,40 L0,38 L0,35 L2,35 L2,22 L-2,21 L-2,11 L0,10 Z " fill="#CBAEA1" transform="translate(86,84)"/>
<path d="M0,0 L2,2 L3,7 L4,7 L6,16 L5,23 L4,26 L2,26 L2,30 L-1,31 L-1,29 L-3,29 L-2,35 L-3,38 L-3,48 L-2,54 L10,55 L10,56 L-4,56 L-4,54 L-6,54 L-6,50 L-8,50 L-8,34 L-4,32 L-4,28 L-2,28 L-2,26 L0,26 L2,22 L4,22 L4,16 L0,14 Z " fill="#B2A296" transform="translate(72,70)"/>
<path d="M0,0 L5,1 L8,4 L9,16 L6,17 L-2,17 L-6,15 L-7,9 L-3,5 L-2,2 L0,2 Z " fill="#EFD9DA" transform="translate(76,104)"/>
<path d="M0,0 L8,0 L4,1 L3,5 L2,8 L2,15 L3,17 L2,19 L39,19 L39,17 L37,16 L42,16 L42,14 L49,14 L49,17 L54,16 L54,20 L52,20 L52,18 L40,18 L40,20 L1,20 L-4,16 L-4,8 L-2,8 L-2,6 L0,6 Z " fill="#9B8880" transform="translate(18,50)"/>
<path d="M0,0 L4,1 L5,3 L16,5 L16,7 L20,7 L20,9 L13,9 L13,12 L2,13 L-8,13 L-11,15 L-18,15 L-18,13 L-22,11 L-23,10 L-23,3 L-22,3 L-22,8 L-16,10 L9,11 L6,6 L0,1 Z " fill="#E2CABB" transform="translate(44,53)"/>
<path d="M0,0 L10,0 L14,4 L14,12 L10,12 L10,16 L2,16 L2,14 L-2,14 L-2,12 L-6,12 L-6,10 L-8,10 L-8,4 L-6,4 L-6,2 L0,2 Z M1,2 L-5,3 L-4,9 L-5,11 L-1,11 L-1,13 L4,12 L13,11 L13,5 L8,4 L8,2 Z " fill="#AC7C6D" transform="translate(72,12)"/>
<path d="M0,0 L10,0 L10,2 L12,2 L12,14 L14,14 L15,17 L11,18 L10,14 L11,8 L8,8 L8,4 L2,4 L2,10 L0,10 L-1,14 L-4,14 L-5,16 L-8,16 L-6,12 L-2,10 L-2,6 L0,6 Z " fill="#C79B95" transform="translate(34,34)"/>
<path d="M0,0 L4,4 L4,10 L6,10 L8,19 L8,28 L7,31 L5,32 L4,36 L-1,38 L-2,43 L-4,44 L-3,33 L2,34 L2,30 L4,30 L3,27 L5,27 L5,17 L2,13 L0,4 Z " fill="#CEB1A3" transform="translate(72,66)"/>
<path d="M0,0 L5,1 L7,8 L7,29 L9,30 L8,35 L4,34 L4,15 L3,6 L2,4 L-5,5 L-6,6 L-13,6 L-14,4 L-6,4 L-6,2 Z " fill="#D5AEA0" transform="translate(78,52)"/>
<path d="M0,0 L3,0 L8,5 L17,13 L17,16 L10,16 L6,13 L5,9 L-1,7 L-1,1 Z " fill="#EEDDD7" transform="translate(36,48)"/>
<path d="M0,0 L2,2 L3,7 L4,7 L6,16 L5,23 L4,26 L2,26 L2,30 L-1,31 L-1,29 L-3,29 L-2,34 L-7,34 L-6,32 L-4,32 L-4,28 L-2,28 L-2,26 L0,26 L2,22 L4,22 L4,16 L0,14 Z " fill="#A18A7E" transform="translate(72,70)"/>
<path d="M0,0 L5,1 L8,4 L9,16 L6,17 L-2,17 L2,16 L2,14 L6,14 L6,10 L4,10 L4,3 L1,3 L1,8 L-6,8 L-3,5 L-2,2 L0,2 Z " fill="#F2D5CB" transform="translate(76,104)"/>
<path d="M0,0 L4,0 L5,3 L5,17 L2,17 L1,11 L-1,11 L-3,2 Z " fill="#F0D3C1" transform="translate(76,57)"/>
<path d="M0,0 L3,0 L8,13 L4,11 L3,7 L-2,9 L-3,12 L-10,14 L-14,14 L-14,11 L-3,7 L-2,4 L0,4 Z " fill="#D7C6C1" transform="translate(36,40)"/>
<path d="M0,0 L1,4 L3,4 L3,32 L1,32 L1,38 L-1,38 L-1,40 L-7,40 L-3,38 L-3,35 L-1,35 L-1,22 L0,26 L2,26 L2,5 L-1,5 Z " fill="#9E887F" transform="translate(89,84)"/>
<path d="M0,0 L6,0 L6,2 L8,2 L10,6 L10,9 L2,8 L-1,6 L-1,1 Z " fill="#F6E6E3" transform="translate(23,55)"/>
<path d="M0,0 L4,0 L4,2 L16,2 L17,3 L24,4 L23,8 L16,8 L16,6 L12,6 L12,4 L4,4 L0,2 Z " fill="#DBB8AC" transform="translate(48,54)"/>
<path d="M0,0 L8,0 L7,2 L2,2 L2,5 L-4,6 L-4,8 L-12,8 L-12,5 L-27,5 L-26,3 L-10,4 L-10,6 L-6,6 L-6,4 L-2,4 L-2,2 L0,2 Z " fill="#A08078" transform="translate(76,48)"/>
<path d="M0,0 L4,2 L4,8 L1,9 L2,19 L5,20 L5,33 L3,33 L4,25 L2,25 L0,20 L-2,14 L0,8 L1,7 L1,2 Z " fill="#DBBAAD" transform="translate(83,86)"/>
<path d="M0,0 L1,0 L1,5 L7,7 L25,8 L25,9 L12,11 L12,12 L5,12 L5,10 L1,8 L0,7 Z " fill="#D6C9C3" transform="translate(21,56)"/>
<path d="M0,0 L10,0 L9,2 L1,1 L2,10 L0,10 L-1,14 L-4,14 L-5,16 L-8,16 L-6,12 L-2,10 L-2,6 L0,6 Z " fill="#A38581" transform="translate(34,34)"/>
<path d="M0,0 L5,2 L7,3 L7,11 L5,11 L5,17 L4,17 L2,5 L-3,3 L-3,1 Z " fill="#A9897C" transform="translate(81,49)"/>
<path d="M0,0 L1,2 L1,9 L5,12 L5,14 L11,13 L14,13 L14,15 L-1,15 L-2,11 L-2,4 Z " fill="#D0BCB5" transform="translate(21,54)"/>
<path d="M0,0 L12,0 L12,2 L14,2 L14,16 L13,16 L13,6 L11,6 L11,3 L1,3 Z " fill="#141110" transform="translate(58,68)"/>
<path d="M0,0 L1,0 L1,21 L3,22 L2,27 L-2,26 L-2,2 Z " fill="#D1B3A4" transform="translate(84,60)"/>
<path d="M0,0 L3,0 L3,11 L2,11 L1,16 L-3,15 L-2,10 L0,10 Z " fill="#C2A596" transform="translate(88,89)"/>
<path d="M0,0 L10,0 L14,4 L14,12 L10,11 L13,11 L13,5 L10,6 L10,4 L8,4 L8,2 L-6,3 L-6,2 L0,2 Z " fill="#976B60" transform="translate(72,12)"/>
<path d="M0,0 L2,1 L3,13 L0,14 L-8,14 L-4,13 L-4,11 L0,11 L-1,3 Z " fill="#E6CED2" transform="translate(82,107)"/>
<path d="M0,0 L1,0 L1,7 L0,10 L-2,10 L-2,14 L-5,15 L-5,13 L-7,13 L-6,18 L-11,18 L-10,16 L-8,16 L-8,12 L-6,12 L-6,10 L-4,10 L-2,6 L0,6 Z " fill="#A1897E" transform="translate(76,86)"/>
<path d="M0,0 L2,0 L2,6 L-7,7 L-12,8 L-12,6 L-16,5 L-13,3 L-1,4 Z " fill="#CF988B" transform="translate(83,17)"/>
<path d="M0,0 L3,1 L1,7 L0,7 L-2,17 L-3,17 L-3,1 Z " fill="#A8968A" transform="translate(67,103)"/>
<path d="M0,0 L7,0 L7,3 L12,2 L12,6 L10,6 L10,4 L-3,5 L-3,3 L-5,2 L0,2 Z " fill="#AF9C8F" transform="translate(60,64)"/>
<path d="M0,0 L2,4 L-3,4 L-3,6 L-16,6 L-15,3 L0,3 Z " fill="#CEB8B9" transform="translate(85,119)"/>
<path d="M0,0 L4,0 L5,3 L5,17 L2,16 L4,16 L3,3 L0,3 L-1,9 L-3,5 L-2,1 Z " fill="#ECCBBB" transform="translate(76,57)"/>
<path d="M0,0 L3,0 L3,7 L-3,7 L-3,10 L-6,10 L-7,5 L0,5 Z " fill="#F4DED5" transform="translate(77,107)"/>
<path d="M0,0 L1,0 L2,21 L0,22 L0,18 L-2,18 L-2,12 L0,12 Z " fill="#171311" transform="translate(90,66)"/>
<path d="M0,0 L7,0 L7,2 L9,2 L8,4 L-4,4 L-5,6 L-6,1 Z " fill="#C79286" transform="translate(73,14)"/>
<path d="M0,0 L8,6 L9,10 L2,10 L1,8 L3,8 L2,4 L0,3 Z " fill="#F0DFCE" transform="translate(44,54)"/>
<path d="M0,0 L2,2 L3,6 L3,7 L6,8 L5,10 L8,11 L4,11 L4,9 L0,9 L0,7 L-2,7 L-2,1 Z " fill="#A7746F" transform="translate(66,15)"/>
<path d="M0,0 L4,1 L3,5 L3,2 L-3,4 L-2,13 L-5,11 L-7,5 L-4,1 Z " fill="#E5C0B1" transform="translate(77,55)"/>
<path d="M0,0 L1,2 L1,8 L5,9 L16,9 L16,11 L1,11 L-1,7 L-1,1 Z " fill="#D8C5BE" transform="translate(69,111)"/>
<path d="M0,0 L1,0 L1,11 L0,15 L-2,15 L-3,18 L-4,9 L0,9 Z " fill="#D9BDAD" transform="translate(82,67)"/>
<path d="M0,0 L4,1 L0,3 L-1,8 L-13,9 L-13,7 L-6,5 L-2,5 L-1,1 Z " fill="#E1D2D1" transform="translate(35,47)"/>
<path d="M0,0 L1,0 L2,5 L5,6 L5,19 L3,19 L4,11 L2,11 L0,6 Z " fill="#D2B7AE" transform="translate(83,100)"/>
<path d="M0,0 L4,0 L4,12 L2,12 L2,18 L1,18 L0,10 L2,10 L2,3 L3,1 Z " fill="#967C71" transform="translate(86,66)"/>
<path d="M0,0 L8,0 L8,4 L3,5 L3,2 L-4,2 Z " fill="#CDB3A3" transform="translate(64,62)"/>
<path d="M0,0 L3,0 L5,6 L6,8 L5,10 L1,8 L0,6 Z " fill="#C3A195" transform="translate(15,59)"/>
<path d="M0,0 L4,1 L5,3 L8,4 L8,6 L13,7 L11,11 L9,11 L6,6 L0,1 Z " fill="#E7D2C2" transform="translate(44,53)"/>
<path d="M0,0 L3,0 L3,4 L8,4 L9,6 L-1,6 Z " fill="#E6D9CB" transform="translate(37,58)"/>
<path d="M0,0 L3,0 L7,9 L6,11 L3,6 L-2,6 L-2,4 L0,4 Z " fill="#D2BCB5" transform="translate(36,40)"/>
<path d="M0,0 L1,0 L1,5 L12,8 L12,9 L2,9 L0,7 Z " fill="#E5D3CF" transform="translate(21,56)"/>
<path d="M0,0 L1,0 L1,12 L3,12 L4,15 L0,16 L-1,12 Z " fill="#A28D84" transform="translate(45,36)"/>
<path d="M0,0 L2,0 L2,2 L5,3 L5,7 L0,6 Z " fill="#F5E5D5" transform="translate(42,55)"/>
<path d="M0,0 L6,0 L6,2 L8,2 L10,6 L10,9 L5,9 L8,7 L7,3 L2,2 Z " fill="#EFE1DF" transform="translate(23,55)"/>
<path d="M0,0 L6,0 L6,7 L4,8 L2,4 L2,1 Z " fill="#EBDDDA" transform="translate(29,56)"/>
<path d="M0,0 L5,2 L5,5 L2,5 L-3,3 L-3,1 Z " fill="#C09486" transform="translate(81,49)"/>
<path d="M0,0 L3,0 L2,15 L0,15 Z " fill="#CAAE9F" transform="translate(86,84)"/>
<path d="M0,0 L3,1 L2,4 L-5,5 L-5,2 Z " fill="#D3C2C1" transform="translate(27,49)"/>
<path d="M0,0 L4,0 L4,2 L16,2 L16,3 L1,3 Z " fill="#D2AFA6" transform="translate(48,54)"/>
<path d="M0,0 L3,0 L3,7 L0,7 Z " fill="#F8DCD8" transform="translate(77,107)"/>
<path d="M0,0 L7,0 L3,1 L3,4 L-5,4 L-5,3 L0,3 Z " fill="#D8C1B2" transform="translate(57,62)"/>
<path d="M0,0 L3,0 L3,7 L0,7 Z " fill="#F8D7C6" transform="translate(76,60)"/>
<path d="M0,0 L10,0 L10,3 L4,3 Z " fill="#C7A098" transform="translate(54,53)"/>
<path d="M0,0 L1,2 L11,3 L10,5 L4,5 L4,3 L0,3 Z " fill="#C4AA9F" transform="translate(48,51)"/>
<path d="M0,0 L7,2 L7,4 L2,5 L2,3 L-2,2 Z " fill="#C99087" transform="translate(69,20)"/>
<path d="M0,0 L2,4 L-3,4 L-3,6 L-7,6 L-7,3 L0,3 Z " fill="#C7B1B3" transform="translate(85,119)"/>
<path d="M0,0 L8,0 L7,2 L2,2 L1,4 L-2,4 L-2,2 L0,2 Z " fill="#987469" transform="translate(76,48)"/>
<path d="M0,0 L1,0 L1,6 L0,8 L-6,8 L-2,6 L-2,3 L0,3 Z " fill="#AE9894" transform="translate(88,116)"/>
<path d="M0,0 L4,0 L4,5 L0,4 Z " fill="#BDA294" transform="translate(85,100)"/>
<path d="M0,0 L2,0 L3,10 L0,6 Z " fill="#CEB0A3" transform="translate(76,76)"/>
<path d="M0,0 L5,1 L6,2 L6,8 L5,8 L5,3 L-2,2 Z " fill="#D4AA9B" transform="translate(78,52)"/>
<path d="M0,0 L6,0 L6,4 L3,4 L3,2 L0,2 Z " fill="#CCA6A2" transform="translate(36,38)"/>
<path d="M0,0 L6,0 L6,3 L0,3 Z " fill="#DCAA99" transform="translate(74,18)"/>
<path d="M0,0 L4,3 L3,8 L2,6 L0,6 Z " fill="#D0AFA1" transform="translate(83,79)"/>
<path d="M0,0 L4,1 L4,5 L2,5 L1,8 Z " fill="#D8B9AA" transform="translate(78,77)"/>
<path d="M0,0 L8,0 L6,3 L1,3 Z " fill="#C1B6AC" transform="translate(34,66)"/>
<path d="M0,0 L2,4 L0,4 L-1,6 L-4,6 L-2,2 Z " fill="#948787" transform="translate(30,44)"/>
<path d="M0,0 L2,1 L2,4 L5,4 L5,7 L1,6 Z " fill="#EBD8CD" transform="translate(69,113)"/>
<path d="M0,0 L2,1 L2,7 L-1,6 Z " fill="#EACEC9" transform="translate(82,107)"/>
<path d="M0,0 L2,1 L2,3 L6,4 L4,4 L3,6 L0,5 Z " fill="#F3E1D7" transform="translate(38,51)"/>
<path d="M0,0 L3,0 L2,7 L0,4 Z " fill="#E0C6C5" transform="translate(84,112)"/>
<path d="M0,0 L5,1 L4,4 L0,3 Z " fill="#C0A294" transform="translate(84,66)"/>
<path d="M0,0 L2,3 L2,5 L5,6 L-1,6 Z " fill="#E1D4CA" transform="translate(37,58)"/>
<path d="M0,0 L4,1 L5,3 L8,5 L3,4 Z " fill="#E0CBBE" transform="translate(44,53)"/>
<path d="M0,0 L2,2 L1,6 L-1,6 Z " fill="#C4A799" transform="translate(85,76)"/>
<path d="M0,0 L2,0 L2,5 L-1,4 Z " fill="#ECD0BE" transform="translate(78,68)"/>
<path d="M0,0 L4,0 L4,5 L3,3 L0,2 Z " fill="#F6CFBE" transform="translate(76,57)"/>
<path d="M0,0 L3,3 L2,5 L-1,4 Z " fill="#BFA499" transform="translate(18,64)"/>
<path d="M0,0 L4,3 L3,6 L3,4 L0,4 Z " fill="#EDDCCB" transform="translate(49,58)"/>
<path d="M0,0 L3,0 L4,4 L0,4 Z " fill="#D2B3AE" transform="translate(36,40)"/>
<path d="M0,0 L4,1 L3,3 L-1,2 Z " fill="#C7B3AC" transform="translate(70,122)"/>
<path d="M0,0 L4,0 L4,3 L0,2 Z " fill="#D0B9AD" transform="translate(48,54)"/>
<path d="M0,0 L3,0 L3,2 L5,3 L0,3 Z " fill="#B6816F" transform="translate(74,24)"/>
<path d="M0,0 L3,0 L3,3 L0,3 Z " fill="#FDDED4" transform="translate(77,107)"/>
<path d="M0,0 L3,1 L1,2 L0,4 L0,2 L-2,1 Z " fill="#C0A499" transform="translate(67,103)"/>
<path d="M0,0 L3,0 L3,3 L0,3 Z " fill="#BFA294" transform="translate(86,84)"/>
<path d="M0,0 L2,1 L2,4 L-1,3 Z " fill="#C3A698" transform="translate(76,82)"/>
<path d="M0,0 L3,0 L3,3 L0,3 Z " fill="#C2AA9C" transform="translate(64,64)"/>
<path d="M0,0 L3,1 L1,3 L-2,2 Z " fill="#C1988C" transform="translate(75,51)"/>
<path d="M0,0 L3,1 L2,3 L-1,3 Z " fill="#BFB3B4" transform="translate(27,49)"/>
<path d="M0,0 L3,0 L3,3 L0,2 Z " fill="#FBE9D9" transform="translate(43,58)"/>
<path d="M0,0 L3,1 L1,3 Z " fill="#B6A09B" transform="translate(86,120)"/>
<path d="M0,0 L3,1 L1,3 Z " fill="#C6B2B0" transform="translate(31,45)"/>
</svg>
