<?xml version="1.0" encoding="UTF-8"?>
<!-- Generator: visioncortex VTracer 0.6.4 -->
<svg version="1.1" xmlns="http://www.w3.org/2000/svg" width="118" height="88">
<path d="M0,0 L118,0 L118,88 L0,88 Z " fill="#010101" transform="translate(0,0)"/>
<path d="M0,0 L7,0 L12,2 L12,0 L26,0 L26,6 L18,6 L18,8 L24,8 L24,10 L32,10 L32,12 L34,12 L34,10 L40,10 L40,12 L48,12 L48,14 L54,14 L54,16 L58,16 L58,20 L60,20 L60,18 L70,18 L70,30 L66,30 L66,48 L68,48 L68,54 L66,54 L66,62 L62,66 L66,66 L66,72 L60,72 L60,68 L54,68 L54,52 L58,52 L58,48 L60,48 L60,44 L58,44 L58,36 L50,36 L50,34 L46,34 L46,28 L42,28 L42,26 L38,26 L38,24 L34,24 L34,22 L26,22 L26,24 L20,24 L20,22 L16,22 L16,24 L10,24 L10,22 L2,22 L2,20 L-2,20 L-2,22 L-8,22 L-8,24 L-6,24 L-6,30 L-8,30 L-8,34 L-10,34 L-10,38 L-12,38 L-12,48 L-14,48 L-14,56 L-16,56 L-16,64 L-18,64 L-18,70 L-24,70 L-24,62 L-28,60 L-28,44 L-26,44 L-26,28 L-28,28 L-28,12 L-22,12 L-22,16 L-18,16 L-18,18 L-16,18 L-14,14 L-12,14 L-12,12 L-2,12 L-2,10 L6,10 L6,8 L1,7 L0,6 Z " fill="#6A89A2" transform="translate(34,6)"/>
<path d="M0,0 L7,0 L12,2 L12,0 L26,0 L26,6 L18,6 L18,8 L24,8 L24,10 L32,10 L31,12 L21,12 L23,11 L23,9 L17,9 L17,6 L15,6 L15,8 L9,9 L7,8 L6,12 L-1,11 L-1,13 L-11,13 L-11,15 L-9,16 L-10,17 L5,18 L3,19 L3,21 L9,21 L10,18 L19,18 L19,20 L22,21 L24,22 L24,20 L34,21 L34,22 L26,22 L26,24 L20,24 L20,22 L16,22 L16,24 L10,24 L10,22 L2,22 L2,20 L-2,20 L-2,22 L-8,22 L-8,24 L-6,24 L-6,30 L-8,30 L-8,34 L-10,34 L-10,38 L-12,38 L-12,48 L-14,48 L-14,56 L-16,56 L-16,64 L-18,64 L-18,70 L-24,70 L-24,62 L-28,60 L-28,44 L-26,44 L-26,28 L-28,28 L-28,12 L-22,12 L-22,16 L-18,16 L-18,18 L-16,18 L-14,14 L-12,14 L-12,12 L-2,12 L-2,10 L6,10 L6,8 L1,7 L0,6 Z " fill="#556C83" transform="translate(34,6)"/>
<path d="M0,0 L4,0 L4,4 L6,4 L6,2 L16,2 L16,14 L12,14 L12,32 L14,32 L14,38 L12,38 L12,46 L8,50 L12,50 L12,56 L6,56 L6,52 L0,52 L0,36 L4,36 L4,32 L6,32 L6,28 L4,28 L4,20 L-4,20 L-4,18 L-8,18 L-8,12 L-12,12 L-12,10 L-16,10 L-16,8 L-20,7 L-14,6 L-15,9 L-9,8 L-11,9 L-11,11 L-5,9 L2,9 L2,12 L10,11 L11,7 L4,8 L5,6 L2,6 L3,1 Z " fill="#5A789D" transform="translate(88,22)"/>
<path d="M0,0 L6,0 L6,4 L10,4 L9,6 L3,7 L2,14 L4,14 L3,32 L7,32 L6,41 L13,40 L12,34 L15,35 L14,24 L17,25 L16,20 L19,21 L20,18 L20,22 L18,22 L18,26 L16,26 L16,36 L14,36 L14,44 L12,44 L12,52 L10,52 L10,58 L4,58 L4,50 L0,48 L0,32 L2,32 L2,16 L0,16 Z " fill="#475C80" transform="translate(6,18)"/>
<path d="M0,0 L2,0 L2,3 L8,3 L8,5 L6,5 L7,7 L15,9 L24,9 L24,12 L-5,13 L-6,15 L-12,15 L-13,13 L-26,12 L-26,9 L-26,7 L-16,7 L-16,5 L-9,5 L-8,2 L0,2 Z " fill="#6B88A3" transform="translate(49,12)"/>
<path d="M0,0 L4,2 L4,4 L6,4 L6,8 L8,8 L8,13 L6,13 L6,16 L4,17 L4,20 L2,21 L2,30 L0,30 L0,28 L-2,28 L-2,30 L-5,30 L-6,23 L-7,20 L-9,20 L-9,17 L-7,17 L-8,3 L0,2 Z " fill="#6482A4" transform="translate(19,23)"/>
<path d="M0,0 L4,0 L4,4 L6,4 L6,2 L16,2 L16,14 L11,14 L11,26 L9,26 L9,19 L-4,19 L-8,18 L-8,12 L-12,12 L-12,10 L-16,10 L-16,8 L-20,7 L-14,6 L-15,9 L-9,8 L-11,9 L-11,11 L-5,9 L2,9 L2,12 L10,11 L11,7 L4,8 L5,6 L2,6 L3,1 Z " fill="#56738C" transform="translate(88,22)"/>
<path d="M0,0 L7,0 L12,2 L12,0 L26,0 L26,6 L18,6 L18,8 L24,8 L24,10 L32,10 L31,12 L21,12 L23,11 L23,9 L17,9 L17,6 L15,6 L15,8 L9,9 L7,8 L6,12 L6,8 L1,7 L0,6 Z " fill="#4E697A" transform="translate(34,6)"/>
<path d="M0,0 L6,0 L6,2 L9,2 L9,6 L12,7 L13,8 L17,8 L16,13 L8,13 L8,10 L-1,11 L-5,12 L-5,10 L-3,10 L-4,6 L-8,4 L-7,1 Z " fill="#68869E" transform="translate(82,21)"/>
<path d="M0,0 L5,0 L3,16 L6,16 L7,14 L10,14 L11,12 L12,17 L10,18 L10,27 L8,27 L8,25 L6,25 L6,27 L3,27 L2,20 L1,17 L-1,17 L-1,14 L1,14 Z " fill="#5B789C" transform="translate(11,26)"/>
<path d="M0,0 L3,1 L3,3 L-2,3 L-1,9 L-1,17 L-3,17 L-3,20 L-1,20 L1,23 L1,30 L4,30 L4,28 L6,29 L6,35 L-1,36 L-1,29 L0,27 L-4,27 L-4,11 L-3,9 L-5,9 L-5,1 Z " fill="#526C94" transform="translate(13,23)"/>
<path d="M0,0 L2,1 L0,6 L-2,6 L-2,8 L0,8 L0,10 L3,11 L2,13 L-4,13 L-5,11 L-18,10 L-18,7 L-18,5 L-8,5 L-8,3 L-1,3 Z " fill="#66819C" transform="translate(41,14)"/>
<path d="M0,0 L1,0 L1,18 L3,18 L3,24 L2,24 L2,19 L-6,19 L-7,22 L-7,18 L-5,18 L-5,14 L-7,14 L-7,6 L-15,6 L-15,5 L-2,5 L-2,12 L0,12 Z " fill="#445F7B" transform="translate(99,36)"/>
<path d="M0,0 L4,1 L1,1 L1,12 L6,12 L6,10 L8,10 L9,8 L11,9 L11,2 L12,2 L12,10 L8,14 L12,14 L12,20 L6,20 L6,16 L0,16 Z " fill="#3E516D" transform="translate(88,58)"/>
<path d="M0,0 L1,0 L1,16 L3,16 L3,32 L1,32 L1,48 L0,48 L-1,32 L-1,16 Z " fill="#06090D" transform="translate(5,18)"/>
<path d="M0,0 L3,1 L2,3 L8,2 L6,3 L6,5 L12,3 L19,3 L19,8 L15,8 L14,13 L9,12 L9,6 L5,6 L5,4 L1,4 L1,2 L-3,1 Z " fill="#59778B" transform="translate(71,28)"/>
<path d="M0,0 L4,1 L1,1 L1,3 L4,3 L4,32 L3,32 L3,25 L1,25 L1,32 L0,32 L0,24 L2,24 L2,18 L0,18 Z " fill="#070A0D" transform="translate(100,36)"/>
<path d="M0,0 L6,0 L6,4 L10,4 L9,6 L3,7 L2,14 L4,14 L3,32 L2,32 L2,16 L0,16 Z " fill="#344866" transform="translate(6,18)"/>
<path d="M0,0 L2,1 L1,15 L6,16 L6,18 L11,19 L11,12 L12,12 L12,20 L10,20 L10,26 L4,26 L4,18 L0,16 Z " fill="#324165" transform="translate(6,50)"/>
<path d="M0,0 L9,0 L9,2 L12,3 L14,4 L14,2 L24,3 L24,4 L16,4 L16,6 L10,6 L10,4 L6,4 L6,6 L0,6 L-1,1 Z " fill="#5D798E" transform="translate(44,24)"/>
<path d="M0,0 L6,0 L6,2 L14,2 L14,4 L20,4 L20,5 L7,6 L7,4 L0,4 L-2,2 L0,2 Z " fill="#536E85" transform="translate(68,16)"/>
<path d="M0,0 L16,0 L21,4 L15,5 L15,3 L7,3 L5,2 L5,4 L2,5 L2,3 L0,2 Z " fill="#67839A" transform="translate(53,24)"/>
<path d="M0,0 L6,0 L11,1 L18,1 L18,4 L-2,4 Z " fill="#6C8BA6" transform="translate(55,20)"/>
<path d="M0,0 L2,0 L2,7 L0,7 L0,12 L-2,12 L-2,14 L-6,14 L-6,8 L-2,6 Z " fill="#5F7AA4" transform="translate(96,56)"/>
<path d="M0,0 L7,0 L10,2 L8,5 L-1,6 L-1,1 Z " fill="#708DAB" transform="translate(43,17)"/>
<path d="M0,0 L4,2 L4,4 L6,4 L6,8 L8,8 L8,13 L6,13 L6,16 L3,15 L3,3 L0,2 Z " fill="#607D99" transform="translate(19,23)"/>
<path d="M0,0 L4,0 L4,7 L2,7 L2,10 L-2,10 L-2,4 Z " fill="#6988A8" transform="translate(17,28)"/>
<path d="M0,0 L6,0 L6,2 L9,2 L8,7 L5,7 L4,5 L-1,3 L-2,1 Z " fill="#63829A" transform="translate(82,21)"/>
<path d="M0,0 L8,0 L8,1 L1,1 L1,3 L-9,3 L-9,5 L-7,6 L-11,8 L-13,7 L-12,10 L-16,8 L-14,8 L-12,4 L-10,4 L-10,2 L0,2 Z " fill="#4A5F78" transform="translate(32,16)"/>
<path d="M0,0 L3,1 L3,3 L-2,3 L-1,13 L-4,13 L-3,9 L-5,9 L-5,1 Z " fill="#4B668C" transform="translate(13,23)"/>
<path d="M0,0 L12,0 L12,4 L4,4 L4,2 L0,2 Z " fill="#618899" transform="translate(47,7)"/>
<path d="M0,0 L3,1 L3,4 L1,4 L1,7 L6,7 L6,9 L3,9 L5,13 L2,13 L0,12 Z " fill="#425885" transform="translate(7,53)"/>
<path d="M0,0 L5,1 L5,3 L1,3 L0,8 L-5,7 L-5,1 L-4,1 L-4,6 L-2,6 L-2,1 Z " fill="#547285" transform="translate(85,33)"/>
<path d="M0,0 L5,0 L5,3 L11,3 L7,5 L6,6 L1,6 Z " fill="#638399" transform="translate(35,7)"/>
<path d="M0,0 L6,0 L6,6 L0,6 Z " fill="#415668" transform="translate(38,48)"/>
<path d="M0,0 L4,0 L3,5 L-4,5 L-4,2 Z " fill="#6987A1" transform="translate(95,29)"/>
<path d="M0,0 L8,0 L8,10 L6,10 L6,2 L0,2 Z " fill="#6885A0" transform="translate(95,25)"/>
<path d="M0,0 L6,0 L6,4 L-2,4 Z " fill="#7491AE" transform="translate(55,20)"/>
<path d="M0,0 L2,0 L2,3 L8,3 L8,5 L5,6 L5,4 L-6,4 L-5,2 L0,2 Z " fill="#64829A" transform="translate(49,12)"/>
<path d="M0,0 L3,1 L3,10 L0,10 L0,7 L2,7 L2,4 L-1,3 Z " fill="#455D89" transform="translate(8,50)"/>
<path d="M0,0 L6,0 L8,6 L4,5 L4,3 L0,1 Z " fill="#6E8EA5" transform="translate(74,24)"/>
<path d="M0,0 L5,2 L5,3 L-7,3 L-8,1 Z " fill="#65829B" transform="translate(63,17)"/>
<path d="M0,0 L3,0 L3,3 L5,4 L-2,5 L-2,2 L0,2 Z " fill="#506692" transform="translate(14,54)"/>
<path d="M0,0 L1,0 L3,11 L-1,10 Z " fill="#6384A7" transform="translate(14,32)"/>
<path d="M0,0 L10,1 L10,2 L2,2 L2,4 L-4,4 L0,2 Z " fill="#4F6678" transform="translate(58,26)"/>
<path d="M0,0 L8,0 L8,2 L5,2 L5,4 L2,5 L2,3 L0,2 Z " fill="#6A879E" transform="translate(53,24)"/>
<path d="M0,0 L6,0 L6,3 L-1,3 L-2,1 Z " fill="#5F7B97" transform="translate(82,21)"/>
<path d="M0,0 L4,1 L5,6 L2,6 Z " fill="#475C89" transform="translate(10,62)"/>
<path d="M0,0 L7,0 L4,2 L5,5 L0,5 L0,2 Z " fill="#627B9B" transform="translate(23,19)"/>
<path d="M0,0 L1,2 L4,1 L4,6 L0,6 Z " fill="#46528B" transform="translate(11,69)"/>
<path d="M0,0 L1,0 L1,8 L-2,10 L-5,10 L-5,8 L-3,8 L-2,6 L0,7 Z " fill="#445B7A" transform="translate(99,60)"/>
<path d="M0,0 L2,0 L1,4 L-3,5 L-3,1 Z " fill="#577498" transform="translate(92,58)"/>
<path d="M0,0 L3,0 L3,6 L0,6 Z " fill="#6C8CAE" transform="translate(18,28)"/>
<path d="M0,0 L6,1 L2,3 L0,7 L-2,6 Z " fill="#627F9E" transform="translate(16,25)"/>
<path d="M0,0 L5,0 L5,2 L0,6 Z " fill="#527393" transform="translate(11,26)"/>
<path d="M0,0 L3,1 L3,4 L1,4 L1,10 L0,10 Z " fill="#3F557F" transform="translate(7,53)"/>
<path d="M0,0 L4,0 L4,4 L0,4 Z " fill="#63839E" transform="translate(39,49)"/>
<path d="M0,0 L3,0 L3,4 L1,4 L0,8 Z " fill="#506E8F" transform="translate(9,36)"/>
<path d="M0,0 L1,3 L-1,10 L-2,10 L-2,2 Z " fill="#5A7A98" transform="translate(14,28)"/>
<path d="M0,0 L5,0 L5,3 L0,3 Z " fill="#536C94" transform="translate(89,70)"/>
<path d="M0,0 L4,2 L2,2 L2,5 L-1,4 Z " fill="#5B7998" transform="translate(23,34)"/>
<path d="M0,0 L6,1 L5,3 L-1,4 Z " fill="#3E5877" transform="translate(10,21)"/>
<path d="M0,0 L1,3 L6,2 L6,6 L4,6 L4,4 L0,4 Z " fill="#0A0E13" transform="translate(12,18)"/>
<path d="M0,0 L4,0 L4,2 L6,3 L0,3 Z " fill="#5A7A96" transform="translate(86,36)"/>
<path d="M0,0 L6,1 L3,3 L0,3 Z " fill="#617D93" transform="translate(68,26)"/>
<path d="M0,0 L4,0 L2,5 L0,2 Z " fill="#425D85" transform="translate(7,19)"/>
<path d="M0,0 L2,2 L2,5 L0,5 L0,3 L-3,4 L-3,2 L0,2 Z " fill="#5E7B9D" transform="translate(21,38)"/>
<path d="M0,0 L5,0 L5,3 L1,2 Z " fill="#7090A9" transform="translate(74,24)"/>
<path d="M0,0 L4,0 L4,3 L0,3 Z " fill="#7091AD" transform="translate(69,21)"/>
<path d="M0,0 L4,0 L4,3 L0,2 Z " fill="#06080B" transform="translate(90,50)"/>
<path d="M0,0 L2,0 L2,4 L-1,3 Z " fill="#445C83" transform="translate(8,50)"/>
<path d="M0,0 L2,0 L2,4 L-1,4 Z " fill="#496987" transform="translate(10,32)"/>
<path d="M0,0 L5,1 L1,3 L-1,3 Z " fill="#67859C" transform="translate(74,28)"/>
<path d="M0,0 L3,2 L3,4 L0,4 Z " fill="#506D8F" transform="translate(11,44)"/>
<path d="M0,0 L3,0 L3,3 L0,2 Z " fill="#56729A" transform="translate(96,64)"/>
<path d="M0,0 L3,0 L2,3 L0,3 Z " fill="#4F638D" transform="translate(14,54)"/>
</svg>
