<?xml version="1.0" encoding="UTF-8"?>
<!-- Generator: visioncortex VTracer 0.6.4 -->
<svg version="1.1" xmlns="http://www.w3.org/2000/svg" width="110" height="114">
<path d="M0,0 L110,0 L110,114 L0,114 Z " fill="#010101" transform="translate(0,0)"/>
<path d="M0,0 L12,0 L12,6 L16,6 L20,11 L24,12 L24,16 L28,16 L28,22 L30,22 L30,20 L36,20 L36,22 L42,22 L42,24 L44,24 L44,32 L38,32 L38,36 L36,36 L36,40 L32,40 L32,62 L36,62 L36,74 L38,74 L38,84 L36,84 L36,90 L30,90 L30,86 L28,86 L28,80 L26,80 L26,76 L12,76 L12,80 L10,80 L10,82 L4,82 L4,80 L0,80 L0,76 L-4,76 L-4,73 L-9,73 L-10,68 L-19,67 L-19,65 L-13,64 L-7,65 L-7,67 L-2,69 L-2,64 L2,64 L2,62 L9,62 L11,56 L9,56 L9,49 L10,44 L8,46 L8,49 L-3,49 L-3,31 L0,30 L0,24 L-5,24 L-5,31 L-7,31 L-7,24 L-10,24 L-10,22 L-20,22 L-20,26 L-16,26 L-16,28 L-12,28 L-12,34 L-14,34 L-14,38 L-16,38 L-15,56 L-17,57 L-14,60 L-14,62 L-17,62 L-17,64 L-21,63 L-24,62 L-24,60 L-26,60 L-26,58 L-28,58 L-28,54 L-30,54 L-33,49 L-33,46 L-35,46 L-35,28 L-34,24 L-36,24 L-36,16 L-32,16 L-32,12 L-10,12 L-10,16 L-8,16 L-8,12 L-4,12 L-4,4 L0,4 Z " fill="#548683" transform="translate(52,16)"/>
<path d="M0,0 L2,0 L4,13 L4,35 L9,35 L9,47 L11,47 L11,57 L9,57 L9,63 L3,63 L3,59 L1,59 L1,53 L-1,53 L-1,49 L-15,49 L-15,53 L-17,53 L-17,55 L-23,55 L-23,53 L-27,53 L-27,49 L-31,49 L-31,46 L-36,46 L-37,41 L-46,40 L-46,38 L-40,37 L-34,38 L-34,40 L-29,42 L-29,37 L-25,37 L-25,35 L-18,35 L-15,34 L-15,32 L-13,32 L-14,38 L-9,38 L-8,32 L-7,28 L-9,19 L-9,13 L-5,9 L0,9 L-1,3 Z " fill="#588986" transform="translate(79,43)"/>
<path d="M0,0 L10,0 L10,2 L13,2 L13,9 L15,9 L15,2 L20,2 L20,8 L18,9 L17,27 L28,27 L27,23 L30,22 L29,34 L31,34 L31,39 L27,41 L22,40 L22,42 L18,42 L18,47 L13,45 L13,43 L1,43 L1,45 L10,46 L10,48 L12,49 L11,51 L16,51 L16,52 L10,52 L10,50 L4,50 L4,46 L-4,46 L-4,42 L-10,42 L-11,34 L-14,32 L-14,30 L-20,30 L-20,24 L-16,24 L-16,6 L-15,6 L-15,24 L-13,24 L-10,29 L-10,32 L-8,32 L-8,36 L-6,36 L-6,38 L-4,38 L-4,40 L0,41 L3,42 L3,40 L6,40 L2,35 L2,29 L3,29 L3,34 L5,34 L4,26 L4,16 L6,16 L6,12 L8,12 L8,6 L4,6 L4,4 L0,4 Z " fill="#52807E" transform="translate(32,38)"/>
<path d="M0,0 L20,0 L20,2 L2,2 L2,4 L7,5 L8,14 L15,14 L19,15 L19,21 L17,21 L17,25 L15,25 L16,43 L14,44 L17,47 L17,49 L14,49 L14,51 L10,50 L7,49 L7,47 L5,47 L5,45 L3,45 L3,41 L1,41 L-2,36 L-2,33 L-4,33 L-4,15 L-3,11 L-5,11 L-5,3 L0,3 Z " fill="#558783" transform="translate(21,29)"/>
<path d="M0,0 L10,0 L10,2 L12,2 L12,10 L16,10 L16,28 L28,28 L28,34 L26,34 L26,36 L17,36 L17,38 L13,37 L12,34 L6,34 L6,26 L4,26 L4,16 L6,16 L6,12 L8,12 L8,6 L4,6 L4,4 L0,4 Z " fill="#040606" transform="translate(32,38)"/>
<path d="M0,0 L13,0 L14,2 L19,2 L23,6 L23,8 L26,8 L25,14 L23,14 L22,16 L19,19 L12,19 L9,21 L8,25 L5,25 L3,15 L-1,16 L-1,13 L1,13 Z " fill="#558B86" transform="translate(49,21)"/>
<path d="M0,0 L5,0 L7,3 L8,25 L11,26 L11,37 L9,37 L9,35 L6,35 L5,42 L3,42 L4,33 L-3,33 L-4,28 L-2,23 L0,23 L0,25 L3,25 L3,21 L5,21 L5,18 L3,18 L2,13 L-2,13 L-2,3 L0,3 Z " fill="#638F8C" transform="translate(76,53)"/>
<path d="M0,0 L5,1 L8,10 L9,14 L7,21 L9,21 L12,31 L12,36 L18,38 L18,40 L15,40 L15,42 L11,41 L8,40 L8,38 L6,38 L6,36 L4,36 L4,32 L2,32 L0,26 L0,15 L2,15 L2,6 L-1,6 Z " fill="#58908B" transform="translate(20,38)"/>
<path d="M0,0 L4,0 L4,4 L8,4 L8,10 L10,10 L10,8 L16,8 L16,10 L22,10 L22,12 L24,12 L24,20 L18,20 L18,19 L23,19 L22,14 L19,15 L8,11 L8,14 L6,14 L6,17 L-1,17 L-1,20 L-3,20 L-3,23 L-5,23 L-4,26 L-9,25 L-9,27 L-11,27 L-12,25 L-12,18 L-11,18 L-11,24 L-9,24 L-10,11 L-4,11 L0,7 L2,7 L3,1 Z " fill="#4F7876" transform="translate(72,28)"/>
<path d="M0,0 L4,0 L4,12 L6,12 L6,22 L4,22 L4,28 L-2,28 L-2,24 L-4,24 L-4,18 L-6,18 L-6,14 L-20,14 L-20,18 L-22,18 L-22,20 L-28,20 L-28,18 L-32,18 L-32,14 L-36,13 L-30,12 L-31,17 L-28,15 L-28,13 L-20,12 L-11,13 L-10,8 L-4,8 L-5,17 L-3,17 L-2,10 L1,10 L1,12 L3,12 L3,1 Z " fill="#608483" transform="translate(84,78)"/>
<path d="M0,0 L2,4 L2,13 L0,14 L0,16 L2,16 L2,14 L7,15 L4,21 L2,21 L3,25 L3,33 L0,33 L0,26 L1,21 L-1,23 L-1,26 L-12,26 L-12,19 L-10,20 L-9,9 L-4,8 L-4,3 Z " fill="#51837F" transform="translate(61,39)"/>
<path d="M0,0 L13,0 L14,2 L19,2 L23,6 L23,8 L26,8 L26,10 L17,11 L13,10 L2,12 L3,2 L0,2 Z " fill="#5F8C8B" transform="translate(49,21)"/>
<path d="M0,0 L22,0 L22,4 L24,4 L24,0 L28,1 L25,1 L26,7 L25,9 L23,9 L24,12 L22,12 L22,10 L12,10 L12,14 L16,15 L9,16 L7,9 L8,6 L3,5 L3,3 L21,3 L21,1 L1,1 L0,4 Z " fill="#53807D" transform="translate(20,28)"/>
<path d="M0,0 L8,2 L13,3 L15,2 L15,8 L10,8 L10,13 L8,13 L8,17 L4,17 L4,39 L3,39 L2,17 L1,3 Z " fill="#557978" transform="translate(80,39)"/>
<path d="M0,0 L4,0 L4,6 L2,6 L2,10 L0,10 L1,28 L-1,29 L1,32 L-4,30 L-7,19 L-7,9 L-4,8 L-4,6 L-1,7 L-1,9 L1,9 L0,3 L1,5 L3,5 L3,1 Z " fill="#4C7C78" transform="translate(36,44)"/>
<path d="M0,0 L5,0 L7,3 L7,24 L3,25 L3,21 L5,21 L5,18 L3,18 L2,13 L-2,13 L-2,3 L0,3 Z " fill="#61928F" transform="translate(76,53)"/>
<path d="M0,0 L10,0 L10,2 L12,2 L12,10 L11,6 L9,6 L10,16 L9,13 L7,13 L8,15 L8,26 L7,33 L12,33 L12,34 L6,34 L6,26 L4,26 L4,16 L6,16 L6,12 L8,12 L8,6 L4,6 L4,4 L0,4 Z " fill="#090F0E" transform="translate(32,38)"/>
<path d="M0,0 L5,0 L6,1 L6,6 L4,6 L3,12 L6,12 L6,21 L4,21 L5,32 L5,35 L3,33 L3,30 L1,30 L1,12 L2,8 L0,8 Z " fill="#54867F" transform="translate(16,32)"/>
<path d="M0,0 L1,0 L1,18 L3,18 L6,23 L6,26 L8,26 L8,30 L10,30 L11,33 L10,34 L12,36 L6,36 L5,28 L2,26 L2,24 L-4,24 L-4,18 L0,18 Z " fill="#436F65" transform="translate(16,44)"/>
<path d="M0,0 L5,1 L8,10 L9,14 L7,21 L9,21 L10,27 L7,24 L5,20 L5,16 L0,16 L2,15 L2,6 L-1,6 Z " fill="#578A86" transform="translate(20,38)"/>
<path d="M0,0 L9,1 L9,3 L14,5 L14,0 L17,0 L17,6 L18,9 L15,11 L12,11 L12,9 L7,9 L6,4 L-3,3 L-3,1 Z " fill="#5D888B" transform="translate(36,80)"/>
<path d="M0,0 L12,1 L12,3 L10,4 L13,9 L9,11 L2,12 L3,2 L0,2 Z " fill="#5F918E" transform="translate(49,21)"/>
<path d="M0,0 L3,0 L3,2 L9,2 L9,4 L7,4 L7,7 L0,7 L0,10 L-2,10 L-2,13 L-7,14 L-7,6 L-4,6 L-4,9 L-2,9 L-2,6 L0,6 Z " fill="#446967" transform="translate(71,38)"/>
<path d="M0,0 L3,0 L2,5 L5,3 L5,1 L13,0 L27,1 L27,2 L13,2 L13,6 L11,6 L11,8 L5,8 L5,6 L1,6 L1,2 L-3,1 Z " fill="#4E7471" transform="translate(51,90)"/>
<path d="M0,0 L4,2 L1,2 L1,8 L-1,8 L-1,11 L-3,11 L-3,8 L-6,8 L-6,16 L-2,17 L-4,18 L-7,17 L-7,19 L-9,19 L-10,17 L-10,10 L-9,10 L-9,16 L-7,16 L-8,3 L-2,3 Z " fill="#4E7A77" transform="translate(70,36)"/>
<path d="M0,0 L20,0 L20,2 L2,2 L2,4 L7,5 L8,15 L5,14 L5,9 L1,9 Z " fill="#598785" transform="translate(21,29)"/>
<path d="M0,0 L12,0 L12,6 L16,7 L10,8 L10,5 L-3,5 L-3,12 L-4,12 L-4,4 L0,4 Z " fill="#4F7675" transform="translate(52,16)"/>
<path d="M0,0 L9,2 L11,1 L11,7 L6,8 L5,11 L3,11 L3,9 L0,8 Z " fill="#678D90" transform="translate(84,40)"/>
<path d="M0,0 L1,0 L1,7 L3,7 L3,0 L8,0 L8,6 L6,7 L5,25 L16,25 L16,26 L4,26 L4,8 L0,8 Z " fill="#446E6A" transform="translate(44,40)"/>
<path d="M0,0 L1,0 L1,6 L5,6 L6,11 L8,11 L8,14 L6,14 L6,18 L3,18 L3,16 L1,16 L0,20 Z " fill="#5D8D8A" transform="translate(73,60)"/>
<path d="M0,0 L8,0 L8,10 L2,10 L2,6 L0,6 Z " fill="#507167" transform="translate(10,12)"/>
<path d="M0,0 L22,0 L22,4 L24,4 L24,0 L28,1 L25,1 L26,7 L25,9 L23,9 L24,12 L22,12 L22,10 L12,10 L12,9 L22,9 L21,1 L1,1 L0,4 Z " fill="#466867" transform="translate(20,28)"/>
<path d="M0,0 L2,3 L2,8 L8,10 L8,12 L5,12 L5,14 L1,13 L-2,12 L-2,10 L-4,10 L-4,8 L-6,7 L-1,6 Z " fill="#578B88" transform="translate(30,66)"/>
<path d="M0,0 L5,2 L5,13 L3,13 L3,11 L0,11 Z " fill="#638D89" transform="translate(82,77)"/>
<path d="M0,0 L2,1 L4,6 L3,10 L1,12 L-2,12 L-2,3 L0,3 Z " fill="#548380" transform="translate(69,65)"/>
<path d="M0,0 L1,3 L11,3 L14,4 L14,6 L16,7 L15,9 L20,9 L20,10 L14,10 L14,8 L8,8 L8,4 L0,4 Z " fill="#4B6F71" transform="translate(28,80)"/>
<path d="M0,0 L4,0 L5,5 L0,5 L-1,8 L-3,9 L-3,19 L-5,18 L-5,8 L-2,6 Z " fill="#568784" transform="translate(74,47)"/>
<path d="M0,0 L9,1 L10,4 L8,7 L2,6 Z " fill="#538581" transform="translate(60,33)"/>
<path d="M0,0 L5,0 L6,1 L6,6 L4,6 L3,12 L2,8 L0,8 Z " fill="#4F7872" transform="translate(16,32)"/>
<path d="M0,0 L4,0 L4,12 L6,12 L6,22 L5,22 L5,13 L-2,14 L-2,10 L1,10 L1,12 L3,12 L3,1 Z " fill="#537270" transform="translate(84,78)"/>
<path d="M0,0 L3,1 L3,8 L7,9 L0,10 L-2,3 Z " fill="#54827F" transform="translate(29,34)"/>
<path d="M0,0 L6,0 L6,6 L-1,6 L-2,2 Z " fill="#669290" transform="translate(75,80)"/>
<path d="M0,0 L1,0 L2,9 L2,20 L-2,21 L-2,17 L0,17 Z " fill="#669591" transform="translate(81,57)"/>
<path d="M0,0 L2,4 L2,13 L0,13 L0,6 L-4,7 L-3,2 Z " fill="#538882" transform="translate(61,39)"/>
<path d="M0,0 L2,4 L-1,3 L0,6 L-8,8 L-9,12 L-11,12 L-11,8 L-9,8 L-9,5 L-2,5 L-2,2 L0,2 Z " fill="#56827F" transform="translate(80,40)"/>
<path d="M0,0 L3,1 L3,5 L5,5 L6,8 L5,9 L7,11 L1,11 Z " fill="#43716D" transform="translate(21,69)"/>
<path d="M0,0 L2,2 L2,6 L5,6 L6,14 L8,17 L3,15 L0,4 Z " fill="#528783" transform="translate(29,59)"/>
<path d="M0,0 L6,0 L6,6 L0,6 Z " fill="#375950" transform="translate(12,70)"/>
<path d="M0,0 L7,0 L8,4 L-2,4 Z " fill="#598683" transform="translate(66,85)"/>
<path d="M0,0 L8,1 L8,9 L2,9 L2,8 L7,8 L6,3 L3,4 L-2,2 Z " fill="#5A787D" transform="translate(88,39)"/>
<path d="M0,0 L6,2 L6,7 L3,7 L3,5 L-1,4 Z " fill="#578D8B" transform="translate(56,82)"/>
<path d="M0,0 L2,0 L5,10 L1,10 L-1,7 Z " fill="#5B9591" transform="translate(24,62)"/>
<path d="M0,0 L1,2 L4,2 L4,6 L2,7 L2,10 L0,10 L-2,7 L-2,2 L0,2 Z " fill="#538480" transform="translate(35,43)"/>
<path d="M0,0 L6,0 L6,2 L12,2 L11,4 L0,4 L-2,2 L0,2 Z " fill="#527175" transform="translate(82,36)"/>
<path d="M0,0 L3,0 L3,6 L4,9 L-1,11 Z " fill="#588C8B" transform="translate(50,80)"/>
<path d="M0,0 L2,0 L2,2 L8,2 L8,4 L6,4 L6,6 L0,6 Z " fill="#0D1313" transform="translate(72,38)"/>
<path d="M0,0 L1,4 L-1,4 L-1,22 L-5,21 L-2,21 L-2,1 Z " fill="#111B18" transform="translate(17,40)"/>
<path d="M0,0 L2,0 L3,11 L-3,10 L0,9 L-1,3 Z " fill="#5D8D8A" transform="translate(79,43)"/>
<path d="M0,0 L8,1 L8,3 L4,3 L4,8 L1,7 Z " fill="#548282" transform="translate(46,77)"/>
<path d="M0,0 L2,1 L2,6 L-3,7 L-3,2 Z " fill="#5A8E8A" transform="translate(25,44)"/>
<path d="M0,0 L5,4 L6,7 L2,8 L-1,7 Z " fill="#608989" transform="translate(67,23)"/>
<path d="M0,0 L1,0 L1,8 L7,8 L6,10 L-2,10 L-3,9 L-3,3 L-2,3 L-2,8 L0,8 Z " fill="#426C69" transform="translate(37,64)"/>
<path d="M0,0 L7,1 L7,3 L4,5 L0,4 Z " fill="#57908B" transform="translate(53,35)"/>
<path d="M0,0 L3,1 L2,4 L0,4 L-1,6 L-3,5 L-3,3 L-6,2 Z " fill="#598784" transform="translate(72,31)"/>
<path d="M0,0 L1,2 L5,1 L4,6 L-1,6 Z " fill="#578683" transform="translate(66,75)"/>
<path d="M0,0 L6,1 L5,5 L0,4 Z " fill="#4D7B78" transform="translate(62,39)"/>
<path d="M0,0 L2,0 L4,3 L3,7 L0,7 Z " fill="#51807D" transform="translate(67,68)"/>
<path d="M0,0 L2,0 L1,9 L-1,8 L-2,2 Z " fill="#679996" transform="translate(79,54)"/>
<path d="M0,0 L2,0 L2,4 L4,4 L4,6 L2,6 L2,8 L0,8 Z " fill="#0D1515" transform="translate(64,44)"/>
<path d="M0,0 L3,0 L2,9 L0,5 Z " fill="#5D8C8A" transform="translate(49,23)"/>
<path d="M0,0 L2,0 L2,8 L-2,8 L-2,6 L0,6 Z " fill="#6B958A" transform="translate(15,13)"/>
<path d="M0,0 L2,0 L1,12 L0,12 L-1,1 Z " fill="#487672" transform="translate(60,60)"/>
<path d="M0,0 L1,4 L5,5 L-2,6 L-3,2 L-2,4 L0,4 Z " fill="#49706E" transform="translate(31,38)"/>
<path d="M0,0 L3,0 L2,5 L5,6 L1,6 L1,2 L-3,1 Z " fill="#456665" transform="translate(51,90)"/>
<path d="M0,0 L4,0 L4,4 L0,4 Z " fill="#52887B" transform="translate(13,71)"/>
<path d="M0,0 L1,2 L3,2 L4,10 L2,10 L0,4 Z " fill="#568E88" transform="translate(20,60)"/>
<path d="M0,0 L1,2 L3,3 L1,3 L0,7 L-2,7 L-2,3 L0,3 Z " fill="#51807D" transform="translate(71,45)"/>
<path d="M0,0 L2,0 L1,4 L-4,4 L-4,2 L0,2 Z " fill="#618F89" transform="translate(61,93)"/>
<path d="M0,0 L2,0 L3,5 L0,6 Z " fill="#5C8581" transform="translate(82,50)"/>
<path d="M0,0 L2,0 L2,6 L-1,5 Z " fill="#56817F" transform="translate(48,28)"/>
<path d="M0,0 L6,0 L5,3 L1,3 Z " fill="#619490" transform="translate(53,27)"/>
<path d="M0,0 L2,0 L2,6 L-1,4 Z " fill="#658887" transform="translate(82,92)"/>
<path d="M0,0 L1,0 L1,6 L-3,4 L-1,4 Z " fill="#6A8F95" transform="translate(94,41)"/>
<path d="M0,0 L2,0 L1,5 L-1,5 Z " fill="#698F90" transform="translate(80,90)"/>
<path d="M0,0 L4,0 L4,3 L-1,2 Z " fill="#5A908B" transform="translate(30,75)"/>
<path d="M0,0 L7,1 L7,2 L0,3 Z " fill="#52817D" transform="translate(45,38)"/>
<path d="M0,0 L1,4 L-2,5 L-2,1 Z " fill="#0B100F" transform="translate(17,40)"/>
<path d="M0,0 L3,0 L3,3 L-1,2 Z " fill="#548481" transform="translate(65,86)"/>
<path d="M0,0 L4,4 L0,4 Z " fill="#5D8485" transform="translate(67,23)"/>
<path d="M0,0 L2,0 L2,4 L-2,2 L0,2 Z " fill="#5C8479" transform="translate(13,15)"/>
<path d="M0,0 L3,0 L3,3 L0,3 Z " fill="#608C89" transform="translate(74,86)"/>
<path d="M0,0 L3,0 L3,3 L0,3 Z " fill="#669694" transform="translate(79,75)"/>
<path d="M0,0 L3,0 L3,3 L0,3 Z " fill="#5E8688" transform="translate(49,23)"/>
</svg>
