<?xml version="1.0" encoding="UTF-8"?>
<!-- Generator: visioncortex VTracer 0.6.4 -->
<svg version="1.1" xmlns="http://www.w3.org/2000/svg" width="94" height="82">
<path d="M0,0 L94,0 L94,82 L0,82 Z " fill="#020202" transform="translate(0,0)"/>
<path d="M0,0 L7,0 L8,1 L8,8 L6,8 L6,10 L4,10 L4,12 L6,12 L6,14 L14,14 L14,12 L20,12 L20,30 L24,30 L24,34 L26,34 L26,40 L24,40 L24,42 L16,42 L12,38 L12,36 L8,36 L8,28 L6,28 L6,26 L-2,26 L-2,28 L0,28 L0,34 L-2,34 L-2,46 L4,46 L4,52 L-10,52 L-10,56 L-16,56 L-16,28 L-12,28 L-12,22 L-14,22 L-14,10 L-2,10 L-2,8 L0,8 Z " fill="#7AA787" transform="translate(58,4)"/>
<path d="M0,0 L6,0 L6,2 L10,2 L10,6 L12,6 L12,18 L10,18 L10,26 L-2,26 L-2,50 L-10,50 L-10,62 L-16,62 L-16,36 L-14,36 L-17,31 L-18,30 L-18,22 L-16,22 L-16,18 L-14,18 L-14,2 L0,2 Z " fill="#40586A" transform="translate(20,2)"/>
<path d="M0,0 L7,0 L8,1 L8,8 L6,8 L6,10 L4,10 L4,12 L6,12 L6,14 L14,14 L14,12 L20,12 L20,30 L24,30 L24,34 L26,34 L26,40 L24,40 L24,42 L16,42 L12,38 L12,36 L8,36 L8,28 L6,28 L6,26 L-2,26 L-2,28 L0,28 L0,34 L-1,34 L-1,29 L-4,29 L-4,26 L-7,26 L-6,20 L0,20 L5,22 L5,24 L10,25 L12,27 L12,30 L19,30 L19,13 L15,13 L15,15 L5,16 L5,13 L1,12 L3,12 L3,10 L-1,9 L0,12 L-13,11 L-13,21 L-11,21 L-11,28 L-12,28 L-12,22 L-14,22 L-14,10 L-2,10 L-2,8 L0,8 Z " fill="#86A782" transform="translate(58,4)"/>
<path d="M0,0 L3,3 L3,10 L5,14 L5,26 L9,26 L10,30 L10,43 L2,43 L2,55 L-2,55 L-2,31 L-1,30 L-1,14 L1,14 Z " fill="#5E7B8E" transform="translate(7,8)"/>
<path d="M0,0 L26,0 L26,2 L20,2 L20,4 L6,4 L6,20 L4,20 L4,24 L2,24 L2,32 L1,32 L0,24 Z " fill="#030405" transform="translate(0,0)"/>
<path d="M0,0 L4,0 L5,3 L7,3 L7,14 L5,14 L5,21 L-4,21 L-5,9 L-4,1 Z " fill="#739AAE" transform="translate(24,6)"/>
<path d="M0,0 L7,0 L8,1 L8,8 L6,8 L6,10 L4,10 L4,12 L6,12 L6,14 L14,14 L14,12 L20,12 L20,30 L19,30 L19,13 L15,13 L15,15 L5,16 L5,13 L1,12 L3,12 L3,10 L-1,9 L0,12 L-13,11 L-13,21 L-11,21 L-11,28 L-12,28 L-12,22 L-14,22 L-14,10 L-2,10 L-2,8 L0,8 Z " fill="#4E6960" transform="translate(58,4)"/>
<path d="M0,0 L2,0 L3,6 L3,14 L-4,14 L-7,9 L-7,7 L-10,7 L-10,5 L-15,4 L-15,2 L-7,1 L-1,1 Z " fill="#8CB889" transform="translate(74,20)"/>
<path d="M0,0 L4,1 L1,1 L2,21 L10,22 L11,19 L13,19 L13,6 L14,6 L14,18 L20,18 L20,24 L6,24 L6,28 L0,28 Z " fill="#537662" transform="translate(42,32)"/>
<path d="M0,0 L6,0 L6,3 L9,3 L9,15 L8,15 L8,4 L5,5 L5,1 L-3,2 L-3,22 L-8,22 L-9,19 L-9,5 L-7,5 L-7,2 Z " fill="#5F7F89" transform="translate(23,5)"/>
<path d="M0,0 L4,0 L5,5 L4,7 L10,7 L10,12 L7,15 L-1,15 L-2,14 L-2,2 L0,2 Z " fill="#76A78B" transform="translate(45,39)"/>
<path d="M0,0 L6,0 L11,2 L11,4 L16,5 L15,15 L21,14 L22,19 L21,21 L18,18 L18,16 L14,16 L14,8 L12,8 L12,6 L4,6 L4,8 L6,8 L6,14 L5,14 L5,9 L2,9 L2,6 L-1,6 Z " fill="#729E7B" transform="translate(52,24)"/>
<path d="M0,0 L2,0 L3,7 L7,7 L8,11 L8,19 L2,19 L2,12 L-2,12 L-2,14 L-4,14 L-4,6 L-1,5 Z " fill="#79AC8E" transform="translate(47,27)"/>
<path d="M0,0 L6,0 L6,2 L2,3 L-13,3 L-12,11 L-12,20 L-14,20 L-13,36 L-17,31 L-18,30 L-18,22 L-16,22 L-16,18 L-14,18 L-14,2 L0,2 Z " fill="#486079" transform="translate(20,2)"/>
<path d="M0,0 L3,4 L2,12 L1,19 L-1,19 L0,24 L2,24 L2,33 L-2,33 L-2,9 L-1,8 Z " fill="#597487" transform="translate(7,30)"/>
<path d="M0,0 L8,0 L8,2 L10,2 L10,10 L9,6 L7,6 L7,3 L3,4 L5,17 L1,17 L1,19 L6,19 L6,20 L0,20 L0,8 L2,8 L2,2 L0,2 Z " fill="#0B100D" transform="translate(56,30)"/>
<path d="M0,0 L10,0 L10,8 L0,8 Z " fill="#638283" transform="translate(42,4)"/>
<path d="M0,0 L3,0 L3,8 L7,8 L7,12 L0,12 L-1,16 L-3,15 L-3,10 L-1,10 L-1,3 Z " fill="#657F96" transform="translate(9,39)"/>
<path d="M0,0 L1,0 L1,8 L-12,8 L-12,18 L-13,14 L-17,14 L-17,2 L-15,1 L-14,7 L0,7 Z " fill="#54707C" transform="translate(29,20)"/>
<path d="M0,0 L6,0 L6,3 L9,3 L9,15 L8,15 L8,4 L5,5 L5,1 L-3,3 L-4,9 L-6,10 L-7,13 L-9,13 L-9,5 L-7,5 L-7,2 Z " fill="#557789" transform="translate(23,5)"/>
<path d="M0,0 L6,0 L6,10 L0,10 Z " fill="#738C66" transform="translate(76,54)"/>
<path d="M0,0 L9,0 L10,9 L3,9 L1,2 Z " fill="#8BAA83" transform="translate(71,36)"/>
<path d="M0,0 L3,3 L3,10 L5,14 L5,26 L4,26 L3,17 L-1,19 L-1,14 L1,14 Z " fill="#567290" transform="translate(7,8)"/>
<path d="M0,0 L3,0 L4,3 L4,10 L-1,8 L-1,11 L-3,11 L-3,2 Z " fill="#7FA6B7" transform="translate(24,13)"/>
<path d="M0,0 L7,0 L8,6 L7,7 L2,7 L2,9 L0,9 Z " fill="#7EAC99" transform="translate(45,16)"/>
<path d="M0,0 L2,0 L2,11 L0,11 L0,8 L-5,7 L-4,2 Z " fill="#99BC99" transform="translate(74,22)"/>
<path d="M0,0 L8,0 L8,6 L0,6 Z " fill="#415D4D" transform="translate(54,62)"/>
<path d="M0,0 L1,0 L1,5 L3,5 L3,2 L7,3 L9,1 L9,8 L0,8 Z " fill="#7BA0A9" transform="translate(20,19)"/>
<path d="M0,0 L8,0 L7,4 L7,1 L1,2 L-7,2 L-7,4 L-9,4 L-9,6 L-12,5 L-12,2 L-14,2 L-15,4 L-15,1 Z " fill="#426077" transform="translate(22,4)"/>
<path d="M0,0 L4,0 L4,9 L3,9 L3,3 L0,5 L-9,4 L-9,2 L0,2 Z " fill="#769D75" transform="translate(73,17)"/>
<path d="M0,0 L6,0 L6,2 L2,3 L-13,3 L-13,18 L-14,18 L-14,2 L0,2 Z " fill="#32404C" transform="translate(20,2)"/>
<path d="M0,0 L1,0 L2,16 L0,16 L-2,7 L-4,7 L-4,4 Z " fill="#5E7B9A" transform="translate(10,23)"/>
<path d="M0,0 L6,1 L6,7 L4,9 L0,7 Z " fill="#5D7B8C" transform="translate(59,5)"/>
<path d="M0,0 L4,0 L3,9 L9,8 L10,13 L9,15 L6,12 L6,10 L2,10 L2,2 L0,2 Z " fill="#6E8968" transform="translate(64,30)"/>
<path d="M0,0 L2,2 L12,2 L9,6 L1,6 L0,5 Z " fill="#6D9D81" transform="translate(43,48)"/>
<path d="M0,0 L5,0 L5,3 L13,3 L13,4 L5,4 L5,6 L7,6 L7,12 L6,12 L6,7 L3,7 L3,4 L0,4 Z " fill="#5C826A" transform="translate(51,26)"/>
<path d="M0,0 L4,1 L4,3 L6,4 L6,7 L4,7 L4,5 L-3,5 L-3,3 L-12,3 L-12,2 L0,2 Z " fill="#749C88" transform="translate(57,13)"/>
<path d="M0,0 L2,0 L3,7 L6,7 L5,13 L3,13 L1,10 Z " fill="#7DAF91" transform="translate(47,27)"/>
<path d="M0,0 L6,0 L6,6 L0,6 Z " fill="#415160" transform="translate(6,70)"/>
<path d="M0,0 L6,0 L6,6 L0,6 Z " fill="#3E594B" transform="translate(46,62)"/>
<path d="M0,0 L4,1 L4,10 L0,10 Z " fill="#586D83" transform="translate(5,53)"/>
<path d="M0,0 L4,0 L4,4 L6,4 L6,10 L4,10 L4,12 L-4,12 L-4,11 L3,11 L2,8 L4,8 L3,1 Z " fill="#5E7759" transform="translate(78,34)"/>
<path d="M0,0 L2,0 L1,4 L-1,9 L-3,9 L-3,1 Z " fill="#78A68F" transform="translate(46,32)"/>
<path d="M0,0 L1,0 L1,8 L-6,8 L-8,3 L-2,4 L-2,7 L0,7 Z " fill="#8FAF8B" transform="translate(76,26)"/>
<path d="M0,0 L2,0 L4,9 L5,14 L1,9 L0,8 Z " fill="#314252" transform="translate(2,24)"/>
<path d="M0,0 L3,3 L3,10 L0,11 Z " fill="#4A6886" transform="translate(11,11)"/>
<path d="M0,0 L5,0 L5,6 L2,7 L2,3 L0,3 Z " fill="#719D86" transform="translate(43,41)"/>
<path d="M0,0 L2,0 L2,2 L4,2 L4,4 L2,4 L1,8 L-3,9 L-4,7 L0,6 L1,4 L-1,3 Z " fill="#79A88F" transform="translate(52,16)"/>
<path d="M0,0 L6,0 L6,4 L0,4 Z " fill="#5F8B72" transform="translate(55,63)"/>
<path d="M0,0 L3,0 L3,7 L0,9 Z " fill="#6A87A4" transform="translate(9,39)"/>
<path d="M0,0 L3,0 L4,7 L2,7 L1,4 L-3,4 L-2,1 Z " fill="#7CA2B3" transform="translate(24,13)"/>
<path d="M0,0 L3,4 L2,12 L0,8 Z " fill="#577490" transform="translate(7,30)"/>
<path d="M0,0 L8,0 L8,6 L5,6 L5,1 L0,1 Z " fill="#75999E" transform="translate(43,5)"/>
<path d="M0,0 L4,0 L3,9 L6,10 L2,10 L2,2 L0,2 Z " fill="#5B785D" transform="translate(64,30)"/>
<path d="M0,0 L3,1 L3,7 L0,7 Z " fill="#6F909C" transform="translate(28,13)"/>
<path d="M0,0 L8,1 L8,3 L1,3 Z " fill="#82A179" transform="translate(73,42)"/>
<path d="M0,0 L5,1 L6,8 L4,8 L3,3 L0,3 Z " fill="#7F9D7B" transform="translate(76,34)"/>
<path d="M0,0 L2,1 L2,7 L-1,7 Z " fill="#7D9F7A" transform="translate(68,30)"/>
<path d="M0,0 L2,0 L2,7 L-1,7 Z " fill="#99C09C" transform="translate(74,22)"/>
<path d="M0,0 L4,0 L4,4 L0,4 Z " fill="#5F778D" transform="translate(7,71)"/>
<path d="M0,0 L4,0 L4,4 L0,4 Z " fill="#608C74" transform="translate(47,63)"/>
<path d="M0,0 L5,0 L5,3 L-1,3 Z " fill="#578268" transform="translate(54,52)"/>
<path d="M0,0 L4,2 L2,6 L0,5 Z " fill="#61788F" transform="translate(6,49)"/>
<path d="M0,0 L2,0 L2,6 L-1,5 Z " fill="#9AC592" transform="translate(70,24)"/>
<path d="M0,0 L3,0 L3,5 L0,5 Z " fill="#71A084" transform="translate(54,33)"/>
<path d="M0,0 L6,0 L6,2 L-1,3 Z " fill="#384F5C" transform="translate(20,2)"/>
<path d="M0,0 L5,1 L5,3 L-1,3 Z " fill="#627C93" transform="translate(11,46)"/>
<path d="M0,0 L3,0 L3,4 L-1,3 Z " fill="#75A387" transform="translate(54,20)"/>
<path d="M0,0 L2,0 L2,5 L-1,4 Z " fill="#749BAA" transform="translate(29,9)"/>
<path d="M0,0 L3,0 L3,4 L0,4 Z " fill="#73A486" transform="translate(52,46)"/>
<path d="M0,0 L1,0 L1,7 L-2,4 Z " fill="#5C7996" transform="translate(10,23)"/>
<path d="M0,0 L3,0 L2,4 L0,4 Z " fill="#72A288" transform="translate(45,44)"/>
<path d="M0,0 L3,0 L2,4 L0,4 Z " fill="#4C697F" transform="translate(11,18)"/>
<path d="M0,0 L4,2 L4,4 L0,3 Z " fill="#7CA0A7" transform="translate(59,9)"/>
<path d="M0,0 L2,0 L1,4 L-1,4 Z " fill="#4F6C7F" transform="translate(6,38)"/>
<path d="M0,0 L3,0 L3,4 L1,4 Z " fill="#94B588" transform="translate(77,38)"/>
<path d="M0,0 L1,4 L-2,4 L-2,1 Z " fill="#51708C" transform="translate(10,18)"/>
<path d="M0,0 L3,0 L3,3 L0,3 Z " fill="#5D778E" transform="translate(12,44)"/>
<path d="M0,0 L2,1 L2,4 L-1,4 Z " fill="#81A37E" transform="translate(68,30)"/>
</svg>
