<?xml version="1.0" encoding="UTF-8"?>
<!-- Generator: visioncortex VTracer 0.6.4 -->
<svg version="1.1" xmlns="http://www.w3.org/2000/svg" width="64" height="70">
<path d="M0,0 L64,0 L64,70 L0,70 Z " fill="#010301" transform="translate(0,0)"/>
<path d="M0,0 L8,0 L8,4 L16,4 L16,10 L10,10 L10,18 L6,18 L6,20 L20,20 L19,25 L24,25 L24,30 L28,30 L28,32 L31,32 L31,42 L27,42 L27,45 L8,46 L8,52 L6,52 L6,54 L0,54 L0,50 L-2,50 L-2,43 L2,42 L2,38 L-4,38 L-4,32 L-14,32 L-14,26 L-12,26 L-12,24 L-4,24 L-4,20 L-6,20 L-6,14 L-2,14 L-2,12 L0,12 Z " fill="#7DBD8C" transform="translate(26,2)"/>
<path d="M0,0 L5,0 L5,2 L9,1 L19,1 L20,15 L26,16 L25,21 L23,23 L10,24 L10,31 L8,31 L8,33 L2,33 L2,29 L0,29 L0,22 L4,21 L4,16 L-1,16 L-1,1 Z " fill="#6E9876" transform="translate(24,23)"/>
<path d="M0,0 L14,0 L13,5 L18,5 L18,10 L22,10 L22,12 L25,12 L25,22 L21,22 L21,25 L2,26 L2,25 L15,23 L17,21 L18,17 L12,17 L11,16 L11,2 L4,2 Z " fill="#3B762D" transform="translate(32,22)"/>
<path d="M0,0 L12,0 L13,10 L15,12 L21,14 L17,18 L10,19 L4,14 L3,11 L0,10 Z " fill="#B0F6B9" transform="translate(28,27)"/>
<path d="M0,0 L8,0 L8,4 L16,4 L16,10 L10,10 L10,18 L6,17 L9,17 L9,13 L-1,13 L-1,15 L-5,15 L-5,20 L-6,20 L-6,14 L-2,14 L-2,12 L0,12 Z " fill="#477A4F" transform="translate(26,2)"/>
<path d="M0,0 L5,0 L5,2 L12,1 L12,3 L18,2 L17,14 L16,14 L16,4 L4,4 L4,14 L8,15 L10,20 L5,19 L6,15 L-1,16 L-1,1 Z " fill="#85C691" transform="translate(24,23)"/>
<path d="M0,0 L1,4 L5,6 L11,8 L7,12 L0,13 L-5,9 L-5,2 Z " fill="#BDFBC7" transform="translate(38,33)"/>
<path d="M0,0 L1,0 L2,11 L1,17 L6,17 L6,18 L0,18 L0,12 L-10,12 L-10,6 L-8,6 L-8,4 L0,4 Z " fill="#598565" transform="translate(22,22)"/>
<path d="M0,0 L12,0 L13,7 L11,8 L10,11 L-9,12 L-9,11 L4,9 L6,7 L7,3 L1,3 Z " fill="#639458" transform="translate(43,36)"/>
<path d="M0,0 L7,0 L8,14 L14,15 L13,20 L11,22 L1,23 L-2,19 L4,21 L10,19 L11,17 L6,15 L5,14 L5,3 L6,1 L0,2 Z " fill="#71B973" transform="translate(36,24)"/>
<path d="M0,0 L6,0 L6,4 L8,4 L8,10 L2,10 L0,8 Z " fill="#619471" transform="translate(14,40)"/>
<path d="M0,0 L10,0 L10,6 L16,6 L16,10 L13,11 L12,18 L10,16 L10,10 L8,10 L9,1 L0,1 Z " fill="#0F1711" transform="translate(12,34)"/>
<path d="M0,0 L2,0 L5,5 L5,7 L2,7 L2,10 L8,10 L8,12 L-2,12 L-2,14 L-6,14 L-6,19 L-7,19 L-7,13 L-3,13 L-3,11 L0,11 Z " fill="#559562" transform="translate(27,3)"/>
<path d="M0,0 L2,0 L2,7 L6,8 L8,13 L3,12 L4,8 L-3,9 L-3,3 Z " fill="#8CC997" transform="translate(26,30)"/>
<path d="M0,0 L9,4 L5,8 L-2,9 L-4,6 L-2,6 Z " fill="#AEEFB6" transform="translate(40,37)"/>
<path d="M0,0 L9,0 L8,4 L5,4 L5,10 L3,7 L0,6 Z " fill="#ABF2B4" transform="translate(28,31)"/>
<path d="M0,0 L6,0 L7,1 L7,7 L2,6 L-1,5 Z " fill="#9AD2A5" transform="translate(26,46)"/>
<path d="M0,0 L12,0 L13,4 L7,7 L7,3 L1,3 Z " fill="#5E9D54" transform="translate(43,36)"/>
<path d="M0,0 L6,0 L6,6 L-2,6 L-2,1 Z " fill="#83C296" transform="translate(15,27)"/>
<path d="M0,0 L8,0 L8,3 L12,4 L5,5 L5,3 L-1,4 L-1,2 L-3,1 Z " fill="#76B281" transform="translate(24,20)"/>
<path d="M0,0 L6,0 L6,6 L0,6 Z " fill="#355A41" transform="translate(14,52)"/>
<path d="M0,0 L1,0 L2,8 L9,10 L7,12 L1,12 L1,18 L0,18 L-1,8 Z M0,9 Z " fill="#0C130E" transform="translate(13,40)"/>
<path d="M0,0 L8,0 L8,3 L-5,3 L-5,1 Z " fill="#5B9627" transform="translate(46,67)"/>
<path d="M0,0 L1,3 L6,3 L6,8 L5,4 L3,4 L3,11 L0,11 Z " fill="#387528" transform="translate(44,24)"/>
<path d="M0,0 L9,0 L9,2 L3,2 L3,4 L-3,4 L-3,1 Z " fill="#4F915C" transform="translate(32,9)"/>
<path d="M0,0 L14,0 L14,2 L12,2 L12,10 L11,10 L11,2 L4,2 Z " fill="#4D804B" transform="translate(32,22)"/>
<path d="M0,0 L3,0 L2,4 L0,6 L-10,7 L-13,3 L-7,5 L-1,3 Z " fill="#94CF92" transform="translate(47,40)"/>
<path d="M0,0 L2,2 L6,4 L5,6 L-1,6 L-1,1 Z " fill="#729F75" transform="translate(27,50)"/>
<path d="M0,0 L5,0 L8,3 L1,5 Z " fill="#BCFCC5" transform="translate(28,27)"/>
<path d="M0,0 L11,0 L11,1 L4,1 L4,4 L0,5 Z " fill="#97D9A3" transform="translate(24,26)"/>
<path d="M0,0 L5,0 L4,4 L7,4 L7,7 L0,7 L3,6 L3,1 Z " fill="#6A9A72" transform="translate(25,38)"/>
<path d="M0,0 L7,0 L7,3 L-1,3 Z " fill="#7CC78B" transform="translate(28,16)"/>
<path d="M0,0 L2,0 L5,5 L5,7 L0,7 Z " fill="#5FA46E" transform="translate(27,3)"/>
<path d="M0,0 L6,0 L5,4 L0,3 Z " fill="#A5F0AC" transform="translate(31,31)"/>
<path d="M0,0 L4,1 L5,6 L1,4 Z " fill="#C6FED3" transform="translate(34,38)"/>
<path d="M0,0 L7,1 L7,2 L0,3 L-2,5 L-3,1 Z " fill="#6FB67D" transform="translate(28,14)"/>
<path d="M0,0 L1,0 L1,6 L-4,5 L-4,3 L0,3 Z " fill="#93C79A" transform="translate(32,47)"/>
<path d="M0,0 L2,4 L2,7 L-2,5 Z " fill="#BFFECC" transform="translate(38,33)"/>
<path d="M0,0 L4,0 L4,4 L0,4 Z " fill="#539369" transform="translate(15,53)"/>
<path d="M0,0 L3,0 L2,12 L1,12 Z " fill="#8DD28D" transform="translate(39,25)"/>
<path d="M0,0 L1,3 L-1,4 L-3,7 L-3,1 Z " fill="#528C38" transform="translate(55,40)"/>
<path d="M0,0 L3,0 L2,3 L-3,5 L-3,2 L0,2 Z " fill="#75B45F" transform="translate(53,38)"/>
<path d="M0,0 L2,0 L4,5 L-1,4 Z " fill="#8CC794" transform="translate(30,38)"/>
<path d="M0,0 L4,0 L4,3 L0,3 Z " fill="#B5ECBF" transform="translate(28,47)"/>
<path d="M0,0 L2,1 L2,4 L-2,4 Z " fill="#89CE9F" transform="translate(19,45)"/>
<path d="M0,0 L3,0 L2,3 L0,3 L-1,5 Z " fill="#72AB7D" transform="translate(24,32)"/>
<path d="M0,0 L3,0 L3,4 L0,4 Z " fill="#2C5C26" transform="translate(44,31)"/>
<path d="M0,0 L6,0 L2,1 L2,3 L-1,3 Z " fill="#478653" transform="translate(33,10)"/>
<path d="M0,0 L1,4 L-2,5 L-2,1 Z " fill="#81B68F" transform="translate(15,27)"/>
<path d="M0,0 L3,3 L-2,4 Z " fill="#509244" transform="translate(49,33)"/>
<path d="M0,0 L3,0 L3,3 L0,4 Z " fill="#9CDFA7" transform="translate(25,27)"/>
<path d="M0,0 L3,0 L2,3 L-1,3 Z " fill="#81C68F" transform="translate(28,16)"/>
<path d="M0,0 L3,0 L3,3 L0,3 Z " fill="#C8FCCD" transform="translate(43,41)"/>
<path d="M0,0 L3,2 L3,4 L0,4 Z " fill="#57A06A" transform="translate(29,6)"/>
</svg>
