<?xml version="1.0" encoding="UTF-8"?>
<!-- Generator: visioncortex VTracer 0.6.4 -->
<svg version="1.1" xmlns="http://www.w3.org/2000/svg" width="62" height="74">
<path d="M0,0 L62,0 L62,74 L0,74 Z " fill="#010103" transform="translate(0,0)"/>
<path d="M0,0 L14,0 L14,4 L16,4 L16,8 L26,8 L26,4 L32,4 L32,8 L36,8 L36,14 L32,14 L32,16 L34,16 L34,20 L36,20 L36,28 L30,28 L30,34 L28,34 L28,38 L20,38 L20,36 L16,36 L16,34 L12,34 L12,32 L8,32 L8,38 L6,38 L6,44 L0,44 L0,40 L-8,40 L-8,32 L-3,32 L-3,30 L2,30 L4,30 L8,30 L8,26 L3,26 L0,24 L0,18 L10,18 L8,12 L0,12 L0,8 L-2,8 L-2,2 L0,2 Z " fill="#8288CA" transform="translate(10,14)"/>
<path d="M0,0 L5,0 L10,9 L11,12 L13,12 L13,14 L7,14 L7,17 L1,18 L5,20 L4,24 L-3,24 L-4,21 L-10,20 L-11,10 L-8,8 L-7,4 L0,4 Z " fill="#AAB5F1" transform="translate(31,24)"/>
<path d="M0,0 L14,0 L14,4 L16,4 L16,9 L26,9 L26,10 L21,10 L21,14 L14,14 L13,19 L11,15 L8,13 L0,12 L0,8 L-2,8 L-2,2 L0,2 Z " fill="#7F83CE" transform="translate(10,14)"/>
<path d="M0,0 L7,1 L8,8 L6,8 L6,14 L4,14 L4,20 L-2,20 L-2,16 L-10,16 L-10,8 L-5,8 L-5,6 L0,6 L2,6 L6,6 L6,2 L1,2 Z " fill="#3C477D" transform="translate(12,38)"/>
<path d="M0,0 L4,2 L4,7 L2,7 L3,17 L9,17 L10,21 L14,21 L14,23 L19,24 L19,20 L21,20 L21,15 L22,15 L22,21 L20,21 L20,25 L12,25 L12,23 L8,23 L8,21 L4,21 L4,19 L1,18 L1,12 L-8,11 L-8,5 L2,5 Z " fill="#5E60A0" transform="translate(18,27)"/>
<path d="M0,0 L5,2 L6,11 L3,14 L-8,14 L-9,13 L-9,8 L-3,7 L-3,5 L0,5 Z " fill="#D4E0FE" transform="translate(33,25)"/>
<path d="M0,0 L2,1 L1,4 L4,5 L17,6 L18,4 L18,7 L12,8 L16,10 L15,14 L8,14 L7,11 L1,10 Z " fill="#8E93D6" transform="translate(20,34)"/>
<path d="M0,0 L6,0 L6,4 L10,4 L10,10 L6,10 L5,12 L3,8 L0,6 L-10,5 L-10,4 L0,4 Z " fill="#526096" transform="translate(36,18)"/>
<path d="M0,0 L8,0 L8,6 L2,6 L2,9 L-3,9 L-4,8 L-4,2 L0,2 Z " fill="#31317A" transform="translate(28,60)"/>
<path d="M0,0 L14,0 L14,4 L16,4 L15,8 L15,5 L13,5 L13,7 L10,7 L10,4 L8,3 L10,3 L10,1 L6,1 L6,4 L4,4 L4,2 L2,2 L2,4 L-1,4 L0,8 L-2,8 L-2,2 L0,2 Z " fill="#606996" transform="translate(10,14)"/>
<path d="M0,0 L4,0 L4,5 L0,5 L0,10 L-5,10 L-7,6 L-7,3 L-4,3 L-4,1 L-2,1 L-2,3 L0,3 Z " fill="#848CCC" transform="translate(16,15)"/>
<path d="M0,0 L7,1 L7,9 L0,9 Z " fill="#1C1D39" transform="translate(9,62)"/>
<path d="M0,0 L5,3 L5,6 L8,6 L8,10 L10,10 L10,18 L4,18 L4,17 L9,17 L9,12 L6,12 L2,6 Z " fill="#5B6396" transform="translate(36,24)"/>
<path d="M0,0 L2,0 L2,7 L0,10 L-2,10 L-2,7 L-6,7 L-6,5 L-11,7 L-10,3 L0,4 Z " fill="#5561B3" transform="translate(15,45)"/>
<path d="M0,0 L3,0 L3,7 L-6,7 L-7,3 L-1,2 Z " fill="#E5F4FE" transform="translate(32,31)"/>
<path d="M0,0 L6,0 L6,8 L0,8 Z " fill="#263454" transform="translate(48,26)"/>
<path d="M0,0 L1,0 L2,5 L1,20 L0,20 L0,12 L-2,12 L-2,8 L-4,8 L-4,6 L0,6 Z " fill="#0C0E16" transform="translate(46,22)"/>
<path d="M0,0 L5,2 L6,11 L4,10 L5,8 L3,8 L3,5 L-3,7 L-3,5 L0,5 Z " fill="#C0CEF9" transform="translate(33,25)"/>
<path d="M0,0 L4,2 L4,7 L-3,8 L-3,6 L-7,6 L-6,11 L-8,11 L-8,5 L2,5 Z " fill="#4B5277" transform="translate(18,27)"/>
<path d="M0,0 L6,0 L6,4 L10,4 L10,10 L6,9 L8,8 L4,7 L5,1 L1,1 L0,4 Z " fill="#334473" transform="translate(36,18)"/>
<path d="M0,0 L5,0 L5,6 L-1,6 L-1,1 Z " fill="#172343" transform="translate(49,64)"/>
<path d="M0,0 L1,3 L10,2 L12,3 L12,6 L14,6 L13,11 L11,7 L8,5 L0,4 Z " fill="#6A6FA8" transform="translate(10,22)"/>
<path d="M0,0 L8,0 L7,4 L0,4 Z " fill="#9A9DEF" transform="translate(28,44)"/>
<path d="M0,0 L3,0 L3,2 L5,2 L5,6 L0,7 Z " fill="#4B4E9A" transform="translate(10,62)"/>
<path d="M0,0 L8,0 L8,1 L3,1 L3,5 L-4,5 L-4,3 L-1,2 Z " fill="#717AB0" transform="translate(28,23)"/>
<path d="M0,0 L4,0 L4,2 L6,2 L6,6 L1,5 Z " fill="#7686BB" transform="translate(11,33)"/>
<path d="M0,0 L3,0 L3,3 L6,3 L5,7 L5,4 L3,4 L3,6 L0,6 L0,3 L-2,2 L0,2 Z " fill="#787FC7" transform="translate(20,15)"/>
<path d="M0,0 L4,0 L4,2 L8,3 L4,4 L4,6 L2,6 L2,3 L0,3 Z " fill="#8589D6" transform="translate(20,22)"/>
<path d="M0,0 L4,0 L4,6 L0,6 Z " fill="#3B5188" transform="translate(49,27)"/>
<path d="M0,0 L5,3 L6,10 L2,6 Z " fill="#8692D1" transform="translate(36,24)"/>
<path d="M0,0 L3,1 L1,1 L1,5 L-5,5 L-4,2 Z " fill="#7778C5" transform="translate(36,46)"/>
<path d="M0,0 L1,0 L1,5 L-5,6 L-4,2 L0,2 Z " fill="#7680BD" transform="translate(44,36)"/>
<path d="M0,0 L2,0 L3,8 L0,8 Z " fill="#8C96DC" transform="translate(12,16)"/>
<path d="M0,0 L1,0 L1,5 L-5,5 L-5,1 L-3,1 L-3,3 L0,3 Z " fill="#2F3465" transform="translate(15,53)"/>
<path d="M0,0 L3,0 L6,3 L7,0 L7,4 L-2,3 L0,2 Z " fill="#3C4A94" transform="translate(8,45)"/>
<path d="M0,0 L3,0 L3,10 L2,10 L2,4 L0,4 Z " fill="#6F75A7" transform="translate(17,35)"/>
<path d="M0,0 L6,0 L6,3 L1,3 Z " fill="#4B49A2" transform="translate(29,61)"/>
<path d="M0,0 L4,0 L4,4 L0,4 Z " fill="#294182" transform="translate(49,65)"/>
<path d="M0,0 L4,0 L4,3 L-3,2 Z " fill="#6D75A4" transform="translate(32,41)"/>
<path d="M0,0 L2,0 L2,3 L4,3 L2,8 L1,8 Z " fill="#D9E9FE" transform="translate(34,30)"/>
<path d="M0,0 L8,1 L7,3 L0,2 Z " fill="#08080E" transform="translate(22,49)"/>
<path d="M0,0 L2,1 L2,3 L4,3 L4,5 L-2,5 L0,2 Z " fill="#97A2E5" transform="translate(40,33)"/>
<path d="M0,0 L3,0 L3,7 L0,3 Z " fill="#7D8BC0" transform="translate(9,18)"/>
<path d="M0,0 L3,0 L3,4 L0,4 Z " fill="#858FC3" transform="translate(14,35)"/>
<path d="M0,0 L2,4 L-6,3 L-6,2 L0,2 Z " fill="#090B10" transform="translate(16,29)"/>
<path d="M0,0 L4,0 L4,2 L-2,3 L0,2 Z " fill="#B9C3FE" transform="translate(26,30)"/>
<path d="M0,0 L4,0 L4,3 L0,3 Z " fill="#9295EB" transform="translate(20,22)"/>
<path d="M0,0 L2,0 L1,5 L-1,5 Z " fill="#465A98" transform="translate(39,19)"/>
<path d="M0,0 L5,1 L4,5 L4,2 L2,2 L1,4 Z " fill="#666BAB" transform="translate(21,17)"/>
<path d="M0,0 L1,0 L1,5 L-2,4 L-2,2 L0,2 Z " fill="#828CCE" transform="translate(44,36)"/>
<path d="M0,0 L5,3 L2,4 Z " fill="#7380B8" transform="translate(36,24)"/>
<path d="M0,0 L2,0 L0,4 L-1,1 Z " fill="#4C62A0" transform="translate(50,29)"/>
</svg>
