<?xml version="1.0" encoding="UTF-8"?>
<!-- Generator: visioncortex VTracer 0.6.4 -->
<svg version="1.1" xmlns="http://www.w3.org/2000/svg" width="1024" height="1024">
<path d="M0,0 L1024,0 L1024,1024 L0,1024 Z " fill="#000000" transform="translate(0,0)"/>
<path d="M0,0 L20,0 L20,2 L32,2 L32,4 L38,4 L38,6 L44,6 L46,9 L54,10 L54,12 L58,12 L58,14 L62,14 L62,16 L66,16 L66,18 L74,18 L78,23 L88,24 L88,26 L96,26 L96,24 L104,24 L104,26 L110,26 L110,28 L116,28 L116,32 L118,32 L124,39 L126,40 L126,44 L128,44 L128,68 L126,68 L126,76 L128,76 L128,80 L130,80 L130,88 L132,88 L132,98 L134,98 L134,102 L136,102 L136,106 L138,106 L138,112 L142,112 L142,116 L144,116 L144,120 L146,120 L146,122 L148,122 L148,128 L152,128 L152,146 L154,146 L154,154 L156,154 L156,158 L158,158 L158,162 L160,162 L160,168 L162,168 L164,171 L168,172 L168,176 L172,176 L172,180 L174,180 L174,184 L176,184 L176,188 L184,188 L184,194 L182,194 L182,196 L186,196 L186,218 L184,218 L184,220 L182,220 L182,226 L180,226 L180,232 L178,232 L178,236 L176,236 L176,238 L174,238 L174,240 L172,240 L172,244 L170,244 L170,246 L168,246 L168,248 L166,248 L166,252 L164,252 L164,254 L162,254 L162,256 L160,256 L160,260 L158,260 L158,262 L154,262 L154,268 L150,268 L150,270 L138,270 L138,268 L136,268 L136,270 L126,270 L126,266 L120,266 L120,274 L116,274 L116,276 L114,276 L114,278 L110,278 L110,280 L108,280 L108,282 L106,282 L106,284 L102,284 L102,288 L100,288 L100,290 L98,290 L98,292 L96,292 L96,308 L94,308 L94,318 L92,318 L92,324 L90,324 L90,330 L88,330 L88,332 L90,332 L90,338 L88,338 L88,348 L86,348 L86,350 L84,350 L84,358 L82,358 L82,360 L80,360 L80,364 L78,364 L78,366 L74,366 L74,370 L68,370 L68,372 L64,372 L64,374 L62,374 L62,376 L58,376 L58,378 L54,378 L54,380 L48,380 L48,382 L46,382 L46,384 L42,384 L42,386 L40,386 L40,390 L36,390 L36,394 L32,394 L32,396 L30,396 L30,398 L26,398 L26,400 L24,400 L24,402 L20,402 L20,404 L14,404 L14,406 L6,406 L6,408 L2,408 L2,410 L-8,410 L-8,412 L-12,412 L-12,414 L-40,414 L-40,412 L-60,412 L-62,408 L-70,408 L-70,406 L-76,406 L-76,404 L-82,404 L-82,402 L-87,401 L-88,398 L-93,397 L-96,394 L-96,392 L-100,392 L-100,388 L-104,388 L-104,386 L-108,386 L-108,380 L-112,380 L-112,374 L-116,374 L-116,372 L-120,372 L-120,366 L-124,366 L-124,358 L-122,358 L-122,354 L-120,354 L-120,350 L-112,350 L-112,348 L-108,348 L-108,344 L-100,344 L-100,338 L-96,338 L-96,332 L-94,332 L-94,330 L-92,330 L-92,328 L-88,328 L-88,324 L-80,324 L-80,300 L-84,300 L-84,292 L-86,292 L-86,294 L-92,294 L-92,292 L-96,292 L-96,286 L-100,286 L-100,284 L-104,284 L-104,280 L-112,280 L-112,278 L-116,278 L-116,276 L-128,276 L-128,274 L-132,274 L-132,278 L-134,278 L-134,280 L-140,280 L-140,282 L-146,282 L-146,284 L-152,284 L-152,286 L-154,286 L-154,288 L-158,288 L-158,290 L-162,290 L-162,294 L-164,294 L-164,296 L-168,300 L-176,300 L-176,306 L-192,306 L-192,300 L-196,300 L-196,288 L-198,288 L-200,283 L-204,280 L-204,246 L-208,246 L-208,238 L-212,238 L-212,232 L-216,232 L-216,230 L-220,230 L-220,228 L-224,228 L-224,226 L-228,226 L-228,222 L-236,222 L-236,220 L-240,220 L-240,216 L-244,216 L-244,212 L-246,212 L-246,208 L-250,208 L-250,204 L-252,204 L-252,190 L-250,190 L-250,184 L-246,184 L-244,180 L-242,180 L-242,178 L-236,178 L-236,180 L-224,180 L-224,182 L-208,182 L-208,184 L-192,184 L-188,188 L-188,192 L-186,192 L-186,198 L-184,198 L-184,202 L-182,202 L-182,204 L-178,204 L-178,208 L-174,208 L-174,210 L-170,210 L-170,212 L-168,212 L-168,210 L-162,210 L-162,208 L-160,208 L-160,206 L-158,206 L-158,202 L-154,202 L-154,198 L-158,198 L-158,186 L-160,186 L-160,182 L-165,181 L-168,178 L-168,176 L-172,176 L-172,170 L-176,170 L-177,162 L-180,160 L-180,154 L-182,154 L-182,148 L-186,146 L-186,144 L-192,144 L-192,142 L-197,141 L-200,138 L-200,136 L-206,136 L-206,134 L-210,134 L-210,132 L-212,132 L-212,128 L-214,128 L-214,126 L-218,126 L-218,120 L-216,120 L-216,118 L-218,118 L-218,100 L-216,100 L-216,98 L-214,98 L-214,92 L-212,92 L-212,88 L-210,88 L-210,86 L-208,86 L-207,81 L-204,78 L-202,78 L-202,76 L-200,76 L-200,70 L-198,70 L-198,68 L-196,68 L-196,56 L-194,56 L-194,48 L-192,48 L-192,42 L-188,42 L-186,38 L-184,38 L-184,36 L-180,36 L-180,34 L-176,34 L-174,30 L-172,30 L-172,28 L-166,28 L-166,26 L-164,26 L-164,24 L-138,24 L-138,26 L-120,26 L-120,24 L-108,24 L-108,26 L-96,26 L-96,24 L-90,24 L-90,26 L-82,26 L-82,24 L-56,24 L-56,22 L-54,22 L-54,20 L-46,20 L-46,18 L-42,18 L-42,16 L-40,16 L-40,12 L-28,12 L-28,10 L-24,10 L-24,8 L-20,8 L-20,6 L-12,6 L-12,4 L-8,4 L-8,2 L0,2 Z " fill="#C4E3FC" transform="translate(558,230)"/>
<path d="M0,0 L6,0 L6,4 L8,4 L8,0 L14,0 L14,2 L18,2 L18,14 L22,14 L22,34 L18,34 L18,46 L14,46 L14,54 L10,54 L10,58 L4,58 L4,62 L0,62 L0,70 L6,70 L6,80 L4,80 L4,82 L-4,82 L-4,84 L-6,84 L-6,86 L-18,86 L-18,82 L-26,82 L-26,70 L-22,70 L-22,66 L-18,66 L-18,64 L-22,62 L-22,60 L-28,60 L-28,58 L-32,58 L-32,56 L-36,56 L-36,58 L-42,58 L-42,76 L-44,76 L-44,80 L-46,80 L-46,86 L-50,86 L-50,90 L-54,90 L-54,94 L-58,94 L-58,96 L-62,96 L-62,98 L-68,98 L-68,100 L-72,100 L-72,102 L-76,102 L-76,104 L-80,104 L-80,106 L-84,110 L-86,110 L-86,112 L-90,112 L-90,114 L-94,114 L-94,116 L-98,116 L-98,118 L-100,118 L-100,120 L-110,120 L-110,122 L-158,122 L-158,120 L-170,120 L-170,122 L-188,122 L-188,120 L-190,120 L-190,122 L-198,122 L-198,116 L-196,116 L-196,112 L-194,112 L-194,110 L-186,110 L-186,106 L-180,106 L-180,104 L-174,104 L-174,102 L-172,102 L-172,100 L-166,100 L-166,104 L-148,104 L-148,108 L-142,108 L-142,110 L-138,110 L-138,116 L-132,116 L-132,114 L-122,114 L-122,108 L-112,108 L-112,104 L-106,104 L-106,100 L-102,100 L-102,98 L-98,98 L-98,96 L-94,96 L-94,94 L-90,94 L-90,92 L-84,92 L-84,90 L-82,90 L-82,88 L-72,88 L-72,86 L-68,86 L-68,80 L-66,80 L-66,76 L-64,76 L-64,72 L-62,72 L-62,68 L-60,68 L-60,64 L-58,64 L-58,56 L-56,56 L-56,54 L-54,54 L-54,52 L-52,52 L-52,50 L-50,50 L-50,46 L-48,46 L-48,40 L-44,40 L-44,34 L-42,34 L-42,32 L-40,32 L-40,28 L-38,28 L-38,26 L-36,26 L-36,24 L-34,24 L-34,22 L-22,22 L-22,16 L-14,16 L-14,12 L-6,12 L-6,8 L-4,8 L-4,2 L0,2 Z " fill="#00173B" transform="translate(764,624)"/>
<path d="M0,0 L30,0 L30,2 L36,2 L36,4 L50,4 L50,6 L52,6 L52,12 L56,12 L56,18 L62,18 L62,20 L66,20 L66,22 L64,22 L64,30 L66,30 L66,34 L60,34 L60,40 L64,40 L64,42 L60,42 L60,50 L58,50 L58,60 L60,60 L60,62 L64,62 L64,66 L56,66 L56,62 L48,62 L48,64 L34,64 L34,62 L28,62 L28,52 L26,52 L26,50 L16,50 L16,44 L14,44 L14,40 L12,40 L12,36 L10,36 L10,34 L6,34 L6,30 L4,30 L4,26 L0,26 L0,22 L-4,22 L-4,18 L-6,18 L-6,16 L-2,16 L-2,10 L-4,10 L-4,8 L-2,8 L-2,2 L0,2 Z " fill="#020202" transform="translate(518,300)"/>
<path d="M0,0 L1,0 L1,6 L-1,6 L-1,12 L-3,12 L-3,14 L-1,14 L-1,20 L-3,20 L-3,30 L-5,30 L-5,32 L-7,32 L-7,40 L-9,40 L-9,42 L-11,42 L-11,46 L-13,46 L-13,48 L-17,48 L-17,52 L-23,52 L-23,54 L-27,54 L-27,56 L-29,56 L-29,58 L-33,58 L-33,60 L-37,60 L-37,62 L-43,62 L-43,64 L-45,64 L-45,66 L-49,66 L-49,68 L-51,68 L-51,72 L-55,72 L-55,76 L-59,76 L-59,78 L-61,78 L-61,80 L-65,80 L-65,82 L-67,82 L-67,84 L-71,84 L-71,86 L-77,86 L-77,88 L-85,88 L-85,90 L-89,90 L-89,92 L-99,92 L-99,94 L-103,94 L-103,96 L-131,96 L-131,94 L-151,94 L-153,90 L-161,90 L-161,88 L-167,88 L-167,86 L-173,86 L-173,84 L-178,83 L-179,80 L-184,79 L-187,76 L-187,74 L-191,74 L-190,70 L-190,73 L-185,72 L-184,73 L-181,72 L-180,74 L-175,74 L-175,76 L-173,76 L-172,81 L-169,80 L-169,82 L-166,82 L-165,78 L-161,79 L-160,76 L-157,76 L-157,79 L-149,78 L-147,79 L-147,83 L-145,83 L-145,85 L-141,84 L-136,85 L-136,83 L-139,82 L-137,80 L-135,81 L-133,77 L-127,78 L-125,80 L-134,80 L-133,83 L-129,84 L-127,82 L-127,84 L-122,83 L-120,80 L-115,81 L-114,80 L-101,80 L-101,76 L-98,74 L-95,74 L-95,72 L-89,71 L-85,72 L-84,70 L-74,70 L-72,68 L-72,70 L-68,70 L-67,68 L-63,68 L-62,66 L-57,66 L-57,60 L-51,57 L-49,57 L-49,50 L-45,50 L-45,48 L-51,47 L-47,45 L-37,43 L-29,43 L-28,40 L-25,39 L-26,36 L-25,30 L-18,28 L-15,19 L-15,16 L-10,13 L-10,7 L-8,6 L-7,8 L-6,6 L-4,6 L-4,11 L-2,11 L-3,1 L-2,5 L0,5 Z M-17,18 Z " fill="#A7D4F8" transform="translate(649,548)"/>
<path d="M0,0 L16,0 L16,2 L28,2 L28,4 L32,4 L32,6 L36,6 L36,8 L40,8 L40,10 L46,10 L46,12 L50,12 L50,16 L62,16 L62,22 L66,22 L66,20 L72,20 L72,26 L76,26 L76,28 L84,28 L84,38 L68,38 L68,34 L56,34 L56,32 L52,32 L52,34 L38,34 L38,30 L36,30 L36,34 L8,34 L8,30 L0,30 L0,22 L-4,22 L-4,18 L-8,16 L-8,14 L-12,14 L-12,4 L-8,4 L-8,2 L0,2 Z " fill="#011A3A" transform="translate(462,716)"/>
<path d="M0,0 L2,0 L2,4 L-1,6 L1,8 L-5,11 L-7,11 L-7,9 L-5,7 L-9,8 L-13,7 L-18,11 L-19,14 L-25,15 L-42,15 L-43,16 L-55,16 L-55,10 L-59,12 L-62,13 L-61,10 L-70,11 L-72,14 L-76,14 L-76,12 L-81,14 L-86,13 L-88,14 L-90,12 L-91,17 L-98,18 L-108,16 L-110,20 L-115,25 L-115,19 L-122,21 L-125,24 L-127,23 L-125,20 L-123,20 L-122,14 L-124,14 L-124,12 L-120,13 L-120,15 L-117,15 L-117,13 L-113,10 L-111,10 L-111,8 L-116,8 L-116,6 L-111,6 L-111,3 L-109,3 L-109,1 L-83,1 L-83,3 L-65,3 L-65,1 L-53,1 L-53,3 L-41,3 L-41,1 L-35,1 L-35,3 L-27,3 L-27,1 Z " fill="#D4EAF9" transform="translate(503,253)"/>
<path d="M0,0 L4,1 L10,2 L11,0 L18,1 L14,3 L22,4 L22,2 L30,2 L32,0 L33,3 L39,2 L52,2 L52,4 L54,5 L56,0 L58,0 L58,6 L60,5 L66,5 L66,3 L69,2 L70,6 L67,8 L56,7 L56,10 L58,10 L58,12 L54,12 L53,14 L46,13 L43,15 L50,16 L56,16 L61,20 L60,23 L66,24 L70,26 L69,28 L62,29 L62,31 L53,32 L48,31 L48,25 L44,25 L44,23 L37,24 L37,22 L30,23 L29,27 L27,27 L27,22 L24,22 L24,20 L10,20 L10,18 L4,18 L4,15 L-26,15 L-25,11 L-21,11 L-21,9 L-8,8 L-8,5 L-4,4 L4,5 L0,4 Z " fill="#DDEEF8" transform="translate(544,284)"/>
<path d="M0,0 L4,0 L4,2 L10,2 L10,4 L14,4 L16,7 L24,8 L24,12 L22,12 L22,28 L16,28 L16,30 L2,30 L2,34 L-6,34 L-6,32 L-10,32 L-10,30 L-24,30 L-24,28 L-20,28 L-20,16 L-26,16 L-26,12 L-16,12 L-16,2 L-14,2 L-14,4 L-8,4 L-8,6 L0,6 Z " fill="#020303" transform="translate(630,362)"/>
<path d="M0,0 L4,0 L4,2 L9,4 L14,7 L18,11 L20,15 L20,21 L21,23 L21,29 L15,34 L14,37 L7,40 L7,38 L4,37 L4,35 L-2,35 L-4,34 L-4,32 L-8,31 L-10,26 L-12,26 L-13,24 L-13,14 L-8,8 L-4,7 L-3,2 Z " fill="#A3CAF7" transform="translate(497,522)"/>
<path d="M0,0 L6,0 L6,4 L24,4 L24,8 L30,8 L30,10 L34,10 L34,17 L40,17 L40,19 L50,19 L50,17 L54,18 L52,21 L24,21 L24,18 L18,19 L14,18 L14,16 L1,17 L1,21 L-16,21 L-18,20 L-18,22 L-26,22 L-26,16 L-24,16 L-24,12 L-22,12 L-22,10 L-14,10 L-14,6 L-8,6 L-8,4 L-2,4 L-2,2 L0,2 Z " fill="#011939" transform="translate(592,724)"/>
<path d="M0,0 L1,4 L-3,4 L-3,8 L-7,8 L-7,10 L-11,10 L-11,12 L-17,12 L-17,14 L-21,14 L-21,16 L-25,16 L-25,18 L-29,18 L-29,20 L-33,24 L-35,24 L-35,26 L-39,26 L-39,28 L-43,28 L-43,30 L-47,30 L-47,32 L-49,32 L-49,34 L-59,34 L-59,36 L-107,36 L-107,34 L-119,34 L-119,36 L-137,36 L-137,35 L-120,35 L-121,31 L-120,30 L-107,30 L-107,32 L-99,32 L-97,31 L-91,32 L-91,33 L-96,34 L-69,35 L-68,32 L-71,31 L-71,33 L-81,33 L-81,31 L-87,31 L-87,30 L-81,30 L-81,28 L-71,28 L-71,22 L-61,22 L-61,23 L-70,23 L-70,27 L-68,27 L-68,25 L-60,24 L-58,21 L-53,19 L-51,18 L-45,18 L-40,14 L-30,12 L-21,7 L-6,6 L-4,7 L-4,3 L0,3 Z " fill="#011737" transform="translate(713,710)"/>
<path d="M0,0 L1,0 L1,6 L-1,6 L-1,12 L-3,12 L-3,14 L-1,14 L-1,20 L-3,20 L-3,30 L-5,30 L-5,32 L-7,32 L-7,40 L-9,40 L-9,42 L-11,42 L-11,46 L-13,46 L-13,48 L-17,48 L-17,52 L-23,52 L-23,54 L-27,54 L-27,56 L-33,57 L-33,55 L-30,55 L-29,49 L-39,50 L-39,52 L-43,54 L-49,54 L-49,50 L-45,50 L-45,48 L-51,47 L-47,45 L-37,43 L-29,43 L-28,40 L-25,39 L-26,36 L-25,30 L-18,28 L-15,19 L-15,16 L-10,13 L-10,7 L-8,6 L-7,8 L-6,6 L-4,6 L-4,11 L-2,11 L-3,1 L-2,5 L0,5 Z M-17,18 Z " fill="#B2D8FC" transform="translate(649,548)"/>
<path d="M0,0 L12,1 L16,6 L26,7 L26,9 L34,9 L34,7 L42,7 L42,9 L48,9 L48,11 L54,11 L54,15 L56,15 L63,23 L62,50 L59,50 L60,52 L60,58 L58,61 L52,62 L53,55 L55,52 L52,39 L53,36 L55,37 L55,25 L53,25 L52,28 L51,20 L48,20 L48,18 L37,19 L33,20 L28,16 L23,13 L20,14 L12,14 L6,12 L4,13 L6,7 L0,7 Z M11,11 Z " fill="#DBEFF9" transform="translate(620,247)"/>
<path d="M0,0 L20,0 L20,2 L32,2 L32,4 L38,4 L38,6 L44,6 L46,9 L54,10 L54,13 L57,13 L57,17 L53,18 L51,16 L43,13 L42,14 L36,14 L32,11 L33,9 L28,11 L26,12 L20,12 L18,12 L18,14 L10,14 L10,11 L2,11 L2,10 L10,10 L10,6 L3,7 L0,9 L-6,9 L-11,11 L-14,14 L-16,14 L-16,12 L-21,14 L-25,15 L-39,15 L-39,13 L-28,13 L-28,10 L-24,10 L-24,8 L-20,8 L-20,6 L-12,6 L-12,4 L-8,4 L-8,2 L0,2 Z M36,12 Z M1,11 Z " fill="#EAF4F7" transform="translate(558,230)"/>
<path d="M0,0 L4,2 L2,2 L2,6 L0,6 L0,8 L-4,8 L-4,14 L-8,14 L-8,16 L-20,16 L-20,14 L-22,14 L-22,16 L-32,16 L-32,12 L-38,12 L-38,20 L-42,20 L-42,22 L-44,22 L-44,24 L-48,24 L-48,26 L-50,26 L-50,28 L-52,28 L-52,30 L-56,30 L-56,34 L-58,34 L-58,36 L-60,36 L-60,38 L-62,38 L-62,54 L-64,54 L-64,64 L-65,64 L-65,54 L-67,54 L-67,63 L-68,63 L-68,53 L-67,49 L-68,38 L-66,38 L-66,36 L-63,33 L-61,33 L-60,28 L-56,25 L-53,25 L-51,21 L-48,20 L-48,16 L-45,16 L-44,10 L-37,7 L-36,4 L-28,5 L-25,6 L-24,4 L-24,6 L-12,6 L-12,8 L-7,6 L-6,3 L-4,3 L-4,7 L-2,3 L-1,5 L1,5 Z " fill="#A7C6E8" transform="translate(716,484)"/>
<path d="M0,0 L1,2 L3,2 L2,4 L-2,6 L-4,10 L-10,11 L-15,11 L-17,15 L-24,15 L-24,17 L-31,18 L-35,20 L-36,22 L-42,23 L-52,23 L-52,21 L-62,21 L-77,17 L-84,16 L-84,13 L-88,12 L-87,8 L-84,8 L-84,11 L-76,10 L-74,11 L-74,15 L-72,15 L-72,17 L-68,16 L-63,17 L-63,15 L-66,14 L-64,12 L-62,13 L-60,9 L-54,10 L-52,12 L-61,12 L-60,15 L-56,16 L-54,14 L-54,16 L-49,15 L-47,12 L-42,13 L-41,12 L-28,12 L-28,8 L-25,6 L-22,6 L-22,4 L-16,3 L-12,4 L-11,2 L-1,2 Z " fill="#A9D6FE" transform="translate(576,616)"/>
<path d="M0,0 L26,1 L26,3 L44,3 L44,4 L31,4 L31,6 L39,7 L38,10 L34,10 L34,8 L29,10 L24,9 L22,10 L20,8 L19,13 L12,14 L2,12 L0,16 L-5,21 L-5,15 L-12,17 L-15,20 L-17,19 L-15,16 L-13,16 L-12,10 L-14,10 L-14,8 L-10,9 L-10,11 L-7,11 L-7,9 L-3,6 L-1,6 L-1,4 L-6,4 L-6,2 Z M39,6 Z " fill="#D7EFFD" transform="translate(393,257)"/>
<path d="M0,0 L2,0 L4,3 L8,4 L8,6 L12,6 L12,10 L14,10 L14,20 L16,20 L16,24 L10,24 L10,30 L4,30 L4,28 L6,28 L6,22 L0,22 L0,26 L-5,25 L-8,22 L-8,20 L-10,20 L-10,10 L-8,10 L-8,8 L0,8 Z " fill="#050607" transform="translate(498,526)"/>
<path d="M0,0 L16,0 L16,2 L31,2 L31,4 L27,5 L20,5 L23,12 L29,14 L30,27 L28,34 L18,37 L19,32 L22,31 L20,25 L20,20 L17,20 L19,18 L20,13 L18,13 L18,8 L14,9 L13,11 L9,9 L9,6 L1,8 L-2,8 L-3,3 L-11,2 L-11,1 L-1,1 Z M19,26 Z " fill="#D4ECF8" transform="translate(334,413)"/>
<path d="M0,0 L2,0 L2,4 L0,4 L-1,9 L-6,22 L-8,24 L-9,28 L-19,32 L-24,35 L-32,36 L-37,40 L-44,40 L-46,42 L-50,42 L-52,46 L-60,46 L-60,48 L-62,48 L-62,44 L-53,44 L-53,39 L-47,39 L-47,35 L-43,35 L-43,33 L-39,33 L-39,31 L-35,31 L-35,29 L-31,29 L-31,27 L-25,27 L-25,25 L-23,25 L-23,23 L-13,23 L-13,21 L-9,21 L-9,15 L-7,15 L-7,11 L-5,11 L-5,7 L-3,7 L-3,3 L0,3 Z " fill="#031E3F" transform="translate(705,689)"/>
<path d="M0,0 L4,1 L10,2 L11,0 L18,1 L14,3 L22,4 L22,2 L30,2 L32,0 L33,3 L39,2 L52,2 L52,4 L54,5 L56,0 L58,0 L58,6 L60,5 L66,5 L66,3 L69,2 L70,6 L67,8 L56,7 L56,10 L58,10 L58,12 L54,12 L53,14 L40,12 L40,10 L32,11 L32,9 L17,8 L6,4 L5,6 L0,4 Z " fill="#E4F2FA" transform="translate(544,284)"/>
<path d="M0,0 L30,0 L33,1 L33,3 L35,3 L35,5 L39,3 L39,5 L43,4 L43,6 L45,6 L45,8 L59,9 L65,11 L64,14 L57,15 L57,17 L48,18 L43,17 L43,11 L39,11 L39,9 L32,10 L32,8 L25,9 L24,13 L22,13 L22,8 L19,8 L19,6 L5,6 L5,4 L-1,4 L-1,3 L5,3 L5,1 L0,1 Z " fill="#D6E8F6" transform="translate(549,298)"/>
<path d="M0,0 L6,0 L6,1 L1,1 L1,3 L7,3 L7,4 L1,4 L1,6 L-7,6 L-7,8 L-11,8 L-11,10 L-21,10 L-21,12 L-25,12 L-25,14 L-53,14 L-53,12 L-73,12 L-75,8 L-83,8 L-83,6 L-89,6 L-89,5 L-83,5 L-82,2 L-82,4 L-75,4 L-75,5 L-82,5 L-82,7 L-75,6 L-74,5 L-67,6 L-67,8 L-51,8 L-51,9 L-25,10 L-22,11 L-22,9 L-25,8 L-22,8 L-22,6 L-15,4 L-9,1 Z " fill="#9AC1EC" transform="translate(571,630)"/>
<path d="M0,0 L4,4 L10,4 L10,7 L12,7 L12,9 L18,8 L18,5 L21,5 L22,22 L23,27 L25,34 L28,36 L30,41 L28,41 L28,43 L34,43 L37,46 L36,51 L38,51 L38,49 L40,49 L41,51 L41,61 L40,61 L40,52 L38,52 L38,63 L41,64 L37,64 L37,52 L35,52 L35,48 L30,47 L27,44 L27,42 L23,42 L23,36 L19,36 L18,28 L15,26 L15,20 L13,20 L13,14 L9,12 L9,10 L3,10 L3,8 L-2,7 L-3,5 L0,5 L0,3 L-2,3 L-2,1 Z " fill="#BDD7F0" transform="translate(363,364)"/>
<path d="M0,0 L11,0 L17,1 L17,3 L23,3 L25,6 L25,9 L18,9 L17,10 L2,11 L-1,12 L-6,12 L-9,13 L-14,13 L-17,14 L-17,11 L-23,11 L-25,9 L-19,8 L-19,5 L-15,3 L-3,3 Z " fill="#CBE8F8" transform="translate(639,404)"/>
<path d="M0,0 L1,0 L1,6 L-1,6 L-1,12 L-3,12 L-3,14 L-1,14 L-1,20 L-3,20 L-3,30 L-5,30 L-5,32 L-7,32 L-7,40 L-9,40 L-9,42 L-11,42 L-11,46 L-13,46 L-13,48 L-17,48 L-17,52 L-23,52 L-23,54 L-27,54 L-28,56 L-29,52 L-24,53 L-24,51 L-27,51 L-26,47 L-25,45 L-20,43 L-17,40 L-14,41 L-14,45 L-12,45 L-13,39 L-12,32 L-10,32 L-10,39 L-8,39 L-9,32 L-12,29 L-12,20 L-10,20 L-12,15 L-10,13 L-10,7 L-8,6 L-7,8 L-6,6 L-4,6 L-4,11 L-2,11 L-3,1 L-2,5 L0,5 Z M-10,27 Z " fill="#A2C7EC" transform="translate(649,548)"/>
<path d="M0,0 L1,3 L6,2 L7,3 L10,2 L11,4 L16,4 L16,6 L18,6 L19,11 L22,10 L22,12 L25,12 L26,8 L32,10 L34,11 L34,14 L41,14 L56,18 L66,19 L66,21 L82,19 L96,15 L99,16 L96,18 L91,18 L91,23 L61,22 L61,21 L46,20 L46,18 L39,18 L38,19 L31,19 L31,16 L30,17 L18,16 L18,14 L13,13 L12,10 L7,9 L4,6 L4,4 L0,4 Z " fill="#A1CBF9" transform="translate(458,618)"/>
<path d="M0,0 L6,0 L6,1 L1,1 L1,3 L6,3 L6,5 L2,8 L0,8 L0,10 L-3,10 L-4,8 L-7,7 L-7,9 L-5,9 L-6,15 L-13,21 L-13,25 L-14,31 L-17,33 L-18,40 L-24,45 L-25,41 L-24,28 L-22,28 L-22,20 L-20,20 L-20,14 L-16,14 L-14,10 L-12,10 L-12,8 L-8,8 L-8,6 L-4,6 L-2,2 L0,2 Z M-15,22 Z " fill="#D6E8F8" transform="translate(386,258)"/>
<path d="M0,0 L6,0 L6,5 L23,5 L23,7 L3,7 L-2,11 L-4,11 L-4,13 L-9,16 L-10,17 L-16,17 L-16,19 L-18,19 L-18,22 L-26,22 L-26,16 L-24,16 L-24,12 L-22,12 L-22,10 L-14,10 L-14,6 L-8,6 L-8,4 L-2,4 L-2,2 L0,2 Z " fill="#031B3A" transform="translate(592,724)"/>
<path d="M0,0 L1,4 L3,4 L3,20 L-1,24 L-7,24 L-8,26 L-8,23 L-21,23 L-21,25 L-19,25 L-19,29 L-30,34 L-35,33 L-40,34 L-40,32 L-38,32 L-38,27 L-46,28 L-47,25 L-35,25 L-35,23 L-48,23 L-48,22 L-34,22 L-34,24 L-30,24 L-30,26 L-22,26 L-22,22 L-8,22 L-8,20 L-2,20 L-2,4 L0,4 Z M-38,26 Z " fill="#B4D0E9" transform="translate(654,370)"/>
<path d="M0,0 L4,2 L2,2 L2,6 L0,6 L0,8 L-4,8 L-4,14 L-8,14 L-8,16 L-20,16 L-20,13 L-22,13 L-22,11 L-44,12 L-44,10 L-37,7 L-36,4 L-28,5 L-25,6 L-24,4 L-24,6 L-12,6 L-12,8 L-7,6 L-6,3 L-4,3 L-4,7 L-2,3 L-1,5 L1,5 Z " fill="#B9D7F7" transform="translate(716,484)"/>
<path d="M0,0 L16,0 L20,4 L20,8 L22,8 L22,14 L24,14 L24,18 L26,18 L26,20 L30,20 L30,24 L34,24 L34,26 L38,26 L38,28 L40,28 L40,26 L46,26 L46,24 L48,24 L48,22 L50,23 L49,25 L51,25 L51,27 L46,30 L46,27 L41,27 L40,30 L33,30 L26,27 L26,34 L29,35 L27,38 L25,37 L25,35 L23,35 L24,30 L22,30 L21,26 L18,26 L19,21 L19,18 L17,21 L17,17 L19,5 L17,5 L16,9 L11,3 L15,3 L15,1 L0,1 Z " fill="#BDDDF5" transform="translate(350,414)"/>
<path d="M0,0 L4,0 L4,22 L2,22 L2,24 L0,24 L0,30 L-2,30 L-2,36 L-4,36 L-4,40 L-6,40 L-6,42 L-8,42 L-8,44 L-10,44 L-10,48 L-12,48 L-12,50 L-14,50 L-14,52 L-16,52 L-16,56 L-18,56 L-19,58 L-19,56 L-21,55 L-17,55 L-18,50 L-17,49 L-16,44 L-15,42 L-17,42 L-16,38 L-12,30 L-10,30 L-10,25 L-8,28 L-5,29 L-4,22 L-1,21 L0,19 L0,21 L3,21 L3,1 Z " fill="#C1DAF9" transform="translate(740,426)"/>
<path d="M0,0 L1,3 L-1,8 L2,8 L3,5 L3,9 L-1,9 L-1,11 L-3,11 L-3,13 L-7,13 L-7,15 L-9,15 L-9,17 L-19,18 L-20,16 L-29,17 L-47,22 L-51,21 L-46,18 L-39,18 L-39,16 L-32,16 L-30,11 L-21,11 L-13,6 L-9,5 L-3,4 L-3,1 Z " fill="#A2CFF9" transform="translate(591,615)"/>
<path d="M0,0 L16,0 L16,2 L28,2 L28,4 L32,4 L32,6 L36,6 L36,9 L39,9 L39,11 L35,11 L35,9 L30,12 L24,13 L24,10 L10,8 L10,5 L6,5 L6,3 L1,5 L-7,5 L-7,3 L0,3 Z " fill="#022143" transform="translate(462,716)"/>
<path d="M0,0 L6,2 L4,3 L4,6 L7,7 L3,7 L3,13 L-5,13 L-5,11 L-11,11 L-11,9 L-13,9 L-13,19 L-23,19 L-23,23 L-17,23 L-17,35 L-21,34 L-18,34 L-18,24 L-23,24 L-23,26 L-21,26 L-22,29 L-22,27 L-26,26 L-26,23 L-24,23 L-24,19 L-26,18 L-24,18 L-22,14 L-18,14 L-17,8 L-11,8 L-11,6 L-6,6 L-2,1 Z " fill="#B3D2F0" transform="translate(627,355)"/>
<path d="M0,0 L26,0 L26,2 L44,2 L44,0 L56,0 L56,2 L68,2 L68,3 L56,3 L55,6 L55,4 L45,4 L45,6 L25,6 L25,4 L-2,4 L-2,2 L0,2 Z " fill="#CCE3EE" transform="translate(394,254)"/>
<path d="M0,0 L2,0 L2,4 L-1,5 L-26,4 L-26,2 L-1,1 Z M-18,5 L-1,5 L1,8 L-5,11 L-7,11 L-7,9 L-5,7 L-9,8 L-13,7 L-18,11 L-19,14 L-25,15 L-42,15 L-43,16 L-55,16 L-55,12 L-42,12 L-23,10 L-23,8 Z " fill="#DDF1FB" transform="translate(503,253)"/>
<path d="M0,0 L4,0 L4,2 L9,4 L14,7 L18,11 L20,15 L20,21 L21,25 L18,24 L17,28 L17,24 L15,24 L15,14 L13,14 L13,10 L9,10 L9,8 L4,7 L3,4 L1,4 L1,12 L-7,12 L-7,14 L-9,14 L-9,24 L-10,24 L-10,14 L-12,14 L-10,10 L-8,8 L-4,7 L-3,2 Z " fill="#96BAE2" transform="translate(497,522)"/>
<path d="M0,0 L12,0 L11,2 L2,3 L-6,12 L-8,12 L-7,23 L-12,25 L-16,31 L-17,35 L-21,38 L-22,41 L-24,41 L-24,33 L-23,31 L-21,31 L-21,29 L-19,29 L-19,27 L-17,27 L-17,23 L-15,23 L-15,17 L-11,17 L-11,11 L-9,11 L-9,9 L-7,9 L-7,5 L-5,5 L-5,3 L0,2 Z " fill="#031B3C" transform="translate(731,647)"/>
<path d="M0,0 L1,0 L1,7 L3,7 L3,0 L5,4 L6,8 L6,34 L1,37 L-2,38 L-4,41 L-6,41 L-8,48 L-11,51 L-13,56 L-18,57 L-21,55 L-16,55 L-16,53 L-23,53 L-24,56 L-24,52 L-16,52 L-16,46 L-12,46 L-12,40 L-10,40 L-10,38 L-8,38 L-8,36 L-4,36 L-4,32 L4,32 L4,8 L0,8 Z " fill="#9DC0E7" transform="translate(474,522)"/>
<path d="M0,0 L5,0 L5,10 L3,10 L3,15 L1,16 L1,21 L-1,21 L-1,16 L-3,16 L-4,19 L-6,18 L-6,23 L-8,23 L-10,21 L-12,22 L-12,12 L-9,8 L-6,8 L-5,2 Z " fill="#B3D4F9" transform="translate(646,538)"/>
<path d="M0,0 L10,0 L10,2 L12,2 L12,12 L18,12 L18,14 L32,14 L32,12 L40,12 L40,16 L48,16 L48,17 L40,17 L40,19 L48,19 L48,20 L39,20 L39,17 L33,18 L28,19 L19,19 L9,15 L7,5 L0,4 L0,3 L9,3 L9,1 L0,1 Z " fill="#A9C9E7" transform="translate(534,350)"/>
<path d="M0,0 L2,1 L1,7 L4,7 L5,5 L5,8 L7,9 L5,19 L1,24 L-1,35 L1,39 L3,40 L1,40 L0,44 L0,40 L-4,40 L-4,38 L-6,38 L-6,28 L-4,28 L-4,20 L0,20 L0,18 L-4,18 L-4,12 L2,12 L2,8 L0,8 Z " fill="#B7D4ED" transform="translate(582,322)"/>
<path d="M0,0 L2,4 L10,5 L11,6 L12,19 L10,26 L0,29 L1,24 L4,23 L2,17 L2,12 L-1,12 L1,10 L2,5 L0,5 Z M1,18 Z " fill="#D1EEFD" transform="translate(352,421)"/>
<path d="M0,0 L26,1 L26,3 L44,3 L44,4 L31,4 L31,6 L23,6 L23,4 L3,4 L1,8 L-1,10 L-4,10 L-5,13 L-7,13 L-8,16 L-12,17 L-15,20 L-17,19 L-15,16 L-13,16 L-12,10 L-14,10 L-14,8 L-10,9 L-10,11 L-7,11 L-7,9 L-3,6 L-1,6 L-1,4 L-6,4 L-6,2 Z " fill="#D3EAFA" transform="translate(393,257)"/>
<path d="M0,0 L2,1 L1,3 L3,3 L0,13 L-1,17 L-1,24 L-2,31 L-2,35 L-5,35 L-5,39 L-7,39 L-6,32 L-8,32 L-8,14 L-6,14 L-6,12 L-4,12 L-4,6 L-2,6 L-2,2 L0,2 Z " fill="#DCE7F7" transform="translate(348,316)"/>
<path d="M0,0 L3,0 L3,3 L11,2 L13,3 L13,7 L15,7 L15,9 L19,8 L19,10 L47,10 L53,7 L53,9 L56,10 L52,12 L51,14 L45,15 L35,15 L35,13 L25,13 L10,9 L3,8 L3,5 L-1,4 Z " fill="#A5CFFC" transform="translate(489,624)"/>
<path d="M0,0 L4,0 L4,11 L-1,12 L-12,13 L-24,16 L-24,14 L-26,13 L-24,13 L-24,11 L-20,11 L-20,9 L-12,8 L-8,8 L-8,4 L-2,4 L0,5 Z " fill="#B7E1FE" transform="translate(616,580)"/>
<path d="M0,0 L12,0 L24,2 L24,0 L33,1 L37,3 L32,4 L38,5 L38,6 L30,6 L30,4 L24,4 L24,6 L12,6 L12,4 L0,4 L0,6 L-18,6 L-18,5 L-1,5 L-1,3 L-17,3 L-17,2 L0,2 Z " fill="#0E0F10" transform="translate(438,250)"/>
<path d="M0,0 L1,0 L1,6 L-1,6 L-1,12 L-3,12 L-3,14 L-1,14 L-1,20 L-4,20 L-4,29 L-10,28 L-12,29 L-12,20 L-10,20 L-12,15 L-10,13 L-10,7 L-8,6 L-7,8 L-6,6 L-4,6 L-4,11 L-2,11 L-3,1 L-2,5 L0,5 Z " fill="#B0D1F9" transform="translate(649,548)"/>
<path d="M0,0 L6,0 L6,1 L1,1 L1,3 L7,3 L7,4 L1,4 L1,6 L-7,6 L-7,8 L-11,8 L-11,10 L-21,10 L-21,12 L-25,12 L-25,14 L-53,14 L-53,13 L-26,13 L-26,11 L-31,11 L-31,10 L-22,11 L-22,9 L-25,8 L-22,8 L-22,6 L-15,4 L-9,1 Z " fill="#90B8E1" transform="translate(571,630)"/>
<path d="M0,0 L4,0 L3,6 L0,6 L0,8 L4,9 L0,9 L0,11 L-4,11 L-4,13 L-10,13 L-10,15 L-12,15 L-12,17 L-16,17 L-16,19 L-18,19 L-18,23 L-22,22 L-19,22 L-20,17 L-17,18 L-18,14 L-16,11 L-14,11 L-14,8 L-8,7 L-8,5 L-3,1 Z " fill="#A7D3F6" transform="translate(616,597)"/>
<path d="M0,0 L2,1 L2,3 L8,2 L21,2 L21,4 L23,5 L25,0 L27,0 L27,6 L29,5 L35,5 L35,3 L38,2 L39,6 L36,8 L25,7 L25,9 L18,8 L15,7 L5,7 L5,5 L-1,7 L-1,4 L-8,4 L-9,2 L-1,2 Z " fill="#E9F7FD" transform="translate(575,284)"/>
<path d="M0,0 L1,4 L3,4 L3,6 L5,6 L5,12 L9,12 L9,30 L11,30 L11,38 L13,38 L13,42 L15,42 L14,46 L14,43 L12,43 L11,45 L12,39 L10,39 L9,41 L9,39 L7,39 L6,31 L5,30 L4,17 L2,15 L0,7 L2,7 L2,5 L-1,4 Z " fill="#C0DAEF" transform="translate(701,346)"/>
<path d="M0,0 L13,0 L14,5 L16,6 L12,7 L19,7 L19,11 L23,10 L23,12 L6,12 L3,15 L-9,15 L-6,13 L2,13 L7,7 L7,5 L3,9 L-1,8 L1,6 L2,2 L0,2 Z M14,1 L16,2 L14,3 Z " fill="#C4E1F7" transform="translate(633,393)"/>
<path d="M0,0 L20,0 L35,3 L38,5 L34,6 L38,8 L32,8 L32,6 L20,6 L20,4 L0,4 L0,6 L-8,6 L-8,5 L-1,5 L-1,3 L-8,3 L-8,2 L0,2 Z " fill="#0E0F0F" transform="translate(558,226)"/>
<path d="M0,0 L1,0 L1,33 L7,33 L9,37 L7,41 L13,42 L13,50 L17,55 L23,55 L25,54 L25,57 L15,57 L15,54 L13,54 L13,59 L27,59 L27,54 L28,54 L28,60 L12,60 L12,54 L8,54 L8,42 L6,42 L4,37 L0,34 Z " fill="#B7D1E4" transform="translate(354,476)"/>
<path d="M0,0 L20,0 L20,2 L32,2 L32,4 L38,4 L38,5 L32,5 L31,8 L31,6 L29,5 L31,5 L31,3 L20,3 L20,5 L1,6 L-8,7 L-8,5 L-12,4 L-8,4 L-8,2 L0,2 Z " fill="#D6E0E4" transform="translate(558,230)"/>
<path d="M0,0 L2,0 L2,4 L0,4 L-1,9 L-6,22 L-8,24 L-9,28 L-19,32 L-24,35 L-27,34 L-25,34 L-23,30 L-17,27 L-15,28 L-15,26 L-13,26 L-13,24 L-23,24 L-23,23 L-13,23 L-13,21 L-9,21 L-9,15 L-7,15 L-7,11 L-5,11 L-5,7 L-3,7 L-3,3 L0,3 Z " fill="#031A3D" transform="translate(705,689)"/>
<path d="M0,0 L6,0 L6,5 L23,5 L23,7 L3,7 L-2,11 L-4,11 L-4,13 L-11,13 L-12,11 L-11,9 L-13,9 L-13,7 L-8,7 L-7,7 L-7,5 L-2,5 L-2,2 L0,2 Z M-6,11 Z " fill="#032143" transform="translate(592,724)"/>
<path d="M0,0 L5,1 L12,1 L8,3 L1,6 L-2,9 L-4,9 L-4,7 L-9,9 L-13,10 L-27,10 L-27,8 L-16,8 L-16,5 L-12,5 L-12,3 L-8,3 L-8,1 Z " fill="#DFEAED" transform="translate(546,235)"/>
<path d="M0,0 L3,0 L2,7 L3,9 L1,10 L1,13 L-1,14 L-2,17 L-5,18 L-5,21 L-8,20 L-9,22 L-7,23 L-10,23 L-10,19 L-14,18 L-12,14 L-10,12 L-7,12 L-6,7 L-4,7 L-3,3 Z " fill="#C2DDFA" transform="translate(722,468)"/>
<path d="M0,0 L1,0 L1,5 L3,5 L3,0 L11,0 L16,1 L18,2 L11,5 L16,6 L16,8 L18,8 L16,13 L15,14 L10,14 L10,12 L4,12 L4,6 L0,6 Z " fill="#CEE3F4" transform="translate(570,306)"/>
<path d="M0,0 L16,0 L20,4 L20,8 L22,8 L22,14 L24,14 L24,18 L26,18 L26,21 L29,21 L29,23 L22,23 L20,27 L18,26 L19,21 L19,18 L17,21 L17,17 L19,5 L17,5 L16,9 L11,3 L15,3 L15,1 L0,1 Z " fill="#C2E2F6" transform="translate(350,414)"/>
<path d="M0,0 L9,0 L13,1 L15,1 L14,13 L13,18 L11,22 L9,18 L8,9 L2,7 Z M9,22 Z " fill="#C9E5F9" transform="translate(354,418)"/>
<path d="M0,0 L14,0 L14,2 L18,2 L18,5 L26,5 L25,9 L16,12 L12,12 L8,12 L8,10 L10,10 L10,5 L2,6 L1,3 L13,3 L13,1 L0,1 Z M10,4 Z " fill="#C0DFF5" transform="translate(606,392)"/>
<path d="M0,0 L10,0 L16,2 L15,5 L8,6 L8,8 L-1,9 L-6,8 L-6,1 Z " fill="#D3E8F9" transform="translate(598,307)"/>
<path d="M0,0 L6,0 L6,1 L1,1 L1,8 L-1,12 L-6,13 L-6,26 L-7,29 L-4,30 L-8,30 L-8,26 L-10,26 L-10,12 L-8,12 L-8,6 L-4,6 L-2,2 L0,2 Z " fill="#C2D9E5" transform="translate(316,408)"/>
<path d="M0,0 L10,0 L10,2 L18,2 L18,0 L26,0 L26,2 L32,2 L32,4 L38,4 L38,8 L40,8 L39,10 L36,8 L37,5 L32,5 L32,7 L35,8 L31,8 L31,6 L25,6 L25,4 L19,4 L19,6 L9,6 L9,4 L0,4 L0,3 L9,3 L9,1 L0,1 Z " fill="#D2E4E9" transform="translate(636,254)"/>
<path d="M0,0 L2,0 L0,9 L-2,12 L-3,17 L-1,18 L-6,24 L-5,28 L-6,33 L-7,38 L-10,36 L-9,22 L-6,12 L-4,8 L-6,8 L-4,2 L0,2 Z " fill="#DEE8F9" transform="translate(355,311)"/>
<path d="M0,0 L4,0 L4,3 L6,3 L6,6 L-1,7 L-11,5 L-13,9 L-18,14 L-18,8 L-20,8 L-20,6 L-17,3 L-10,1 L-10,3 L-6,3 L-6,1 Z " fill="#DAF3FE" transform="translate(406,264)"/>
<path d="M0,0 L1,2 L3,2 L3,4 L5,4 L6,2 L9,5 L8,32 L6,32 L5,20 L3,18 L2,8 L-1,3 Z " fill="#D8ECF8" transform="translate(674,265)"/>
<path d="M0,0 L4,1 L1,1 L1,9 L3,9 L3,6 L7,5 L10,4 L14,5 L14,12 L10,14 L9,17 L13,17 L13,25 L20,25 L20,26 L12,26 L12,18 L8,18 L8,14 L4,12 L4,10 L0,10 Z " fill="#001732" transform="translate(450,720)"/>
<path d="M0,0 L1,3 L6,2 L7,3 L10,2 L11,4 L16,4 L16,6 L18,6 L19,11 L21,11 L21,13 L19,13 L19,15 L24,15 L24,16 L18,16 L18,14 L13,13 L12,10 L7,9 L4,6 L4,4 L0,4 Z " fill="#94BAE6" transform="translate(458,618)"/>
<path d="M0,0 L1,4 L3,4 L3,28 L1,28 L1,36 L0,36 L0,28 L-2,28 L-2,36 L-3,36 L-4,27 L-1,27 L-1,4 Z " fill="#C9DCE4" transform="translate(683,270)"/>
<path d="M0,0 L6,0 L6,2 L14,2 L14,0 L40,0 L40,1 L15,1 L15,3 L40,3 L40,4 L23,5 L18,7 L15,6 L5,6 L5,4 L1,3 L5,3 L5,1 L0,1 Z " fill="#C3D4E0" transform="translate(462,254)"/>
<path d="M0,0 L12,1 L14,4 L22,5 L22,8 L25,8 L25,12 L21,13 L19,11 L11,8 L11,6 L6,6 L5,3 L0,3 Z " fill="#E2ECEE" transform="translate(590,235)"/>
<path d="M0,0 L13,0 L11,1 L11,3 L16,2 L15,5 L22,4 L22,9 L20,8 L20,6 L14,6 L14,4 L10,4 L10,2 L6,2 L6,4 L0,4 L0,22 L-2,22 L-2,26 L-4,26 L-4,32 L-8,31 L-5,31 L-6,20 L-4,20 L-4,10 L-3,10 L-3,21 L-1,21 L-2,2 L0,2 Z " fill="#000F30" transform="translate(722,678)"/>
<path d="M0,0 L1,3 L3,3 L4,0 L7,0 L7,3 L6,4 L18,4 L20,6 L26,4 L27,7 L26,10 L21,11 L17,7 L15,7 L15,9 L17,9 L17,11 L12,10 L12,8 L6,8 L6,6 L2,6 L2,4 L0,4 Z " fill="#CBE1F7" transform="translate(346,358)"/>
<path d="M0,0 L12,0 L12,6 L16,6 L16,4 L22,4 L22,11 L25,11 L25,13 L18,13 L18,11 L16,11 L16,9 L11,9 L11,7 L9,7 L9,3 L6,4 L0,3 Z " fill="#041C38" transform="translate(512,732)"/>
<path d="M0,0 L27,0 L27,1 L1,1 L1,3 L31,3 L31,4 L1,4 L1,6 L-1,6 L-1,12 L-3,12 L-3,14 L-1,14 L-1,20 L-5,19 L-2,19 L-2,15 L-4,15 L-5,17 L-5,15 L-7,15 L-6,6 L-4,6 L-4,11 L-2,11 L-3,4 L0,5 L0,3 L-2,2 Z " fill="#BCCCD7" transform="translate(517,296)"/>
<path d="M0,0 L7,0 L6,3 L4,3 L4,5 L7,6 L3,10 L-4,9 L-7,10 L-12,8 L-8,7 L-8,2 L-4,1 L0,2 Z " fill="#E2F3F7" transform="translate(521,247)"/>
<path d="M0,0 L4,1 L3,4 L-3,5 L-20,5 L-21,6 L-33,6 L-33,2 L-20,2 Z " fill="#D8EDFE" transform="translate(481,263)"/>
<path d="M0,0 L6,2 L4,3 L4,6 L7,7 L3,7 L3,13 L-5,13 L-5,11 L-11,11 L-11,10 L-5,10 L-6,6 L-2,1 Z " fill="#AFCBE6" transform="translate(627,355)"/>
<path d="M0,0 L4,2 L2,2 L2,6 L0,6 L0,8 L-4,8 L-4,14 L-8,14 L-8,16 L-20,16 L-20,15 L-9,15 L-9,13 L-19,13 L-19,12 L-8,12 L-8,9 L-14,10 L-14,8 L-19,8 L-20,6 L-12,6 L-12,8 L-7,6 L-6,3 L-4,3 L-4,7 L-2,3 L-1,5 L1,5 Z " fill="#ACC7E3" transform="translate(716,484)"/>
<path d="M0,0 L12,0 L11,2 L2,3 L-6,12 L-8,12 L-8,18 L-12,20 L-12,23 L-14,23 L-14,18 L-11,18 L-11,11 L-9,11 L-9,9 L-7,9 L-7,5 L-5,5 L-5,3 L0,2 Z " fill="#042042" transform="translate(731,647)"/>
<path d="M0,0 L2,1 L1,3 L1,20 L0,23 L-2,23 L-3,20 L-6,19 L-5,3 L0,2 Z " fill="#CEE9F6" transform="translate(315,418)"/>
<path d="M0,0 L20,1 L18,5 L14,6 L5,6 L2,4 L0,6 L-7,7 L-7,5 L-1,1 Z " fill="#011D3E" transform="translate(595,730)"/>
<path d="M0,0 L8,0 L8,4 L16,4 L16,5 L8,5 L8,7 L16,7 L16,8 L7,8 L7,5 L1,6 L-4,7 L-13,7 L-14,3 L0,3 Z " fill="#B8DAF8" transform="translate(566,362)"/>
<path d="M0,0 L1,0 L1,7 L3,7 L3,0 L4,0 L4,8 L2,8 L2,20 L0,20 L0,22 L-2,22 L-2,28 L-4,28 L-4,30 L-9,34 L-10,38 L-12,38 L-12,40 L-14,40 L-15,44 L-16,38 L-14,38 L-13,34 L-12,32 L-10,32 L-10,30 L-8,30 L-8,28 L-4,25 L-2,19 L0,17 Z " fill="#1D1E20" transform="translate(360,278)"/>
<path d="M0,0 L6,0 L6,1 L1,1 L1,3 L6,3 L6,5 L2,8 L0,8 L0,10 L-3,10 L-4,8 L-7,7 L-7,9 L-5,9 L-6,14 L-13,13 L-15,11 L-12,10 L-12,8 L-8,8 L-8,6 L-4,6 L-2,2 L0,2 Z " fill="#C6DAE9" transform="translate(386,258)"/>
<path d="M0,0 L1,3 L5,4 L3,7 L3,9 L5,9 L7,11 L9,11 L9,13 L1,14 L0,11 L-7,10 L-8,8 L-11,8 L-11,6 L-6,6 L-6,1 L-4,1 L-4,3 L0,3 Z " fill="#D4F1FA" transform="translate(330,441)"/>
<path d="M0,0 L10,0 L10,11 L16,11 L17,15 L2,15 L2,13 L6,13 L6,1 L0,1 Z " fill="#0F1214" transform="translate(604,377)"/>
<path d="M0,0 L4,0 L3,7 L2,8 L1,15 L-5,14 L-9,17 L-17,17 L-17,15 L-10,15 L-10,10 L-2,10 L-2,6 L0,6 Z " fill="#031E3D" transform="translate(760,626)"/>
<path d="M0,0 L4,0 L4,4 L8,4 L8,8 L10,8 L10,12 L14,12 L14,14 L16,14 L16,18 L18,18 L18,22 L20,22 L20,28 L19,28 L19,23 L17,23 L17,28 L16,28 L17,19 L12,19 L7,14 L6,13 L7,5 L1,6 L0,3 L3,3 L3,1 Z " fill="#A7C3DE" transform="translate(514,322)"/>
<path d="M0,0 L1,0 L1,5 L3,5 L3,0 L5,0 L7,5 L5,5 L5,7 L11,7 L14,10 L13,15 L15,15 L15,13 L17,13 L18,15 L18,25 L17,25 L17,16 L15,16 L15,27 L18,28 L14,28 L14,16 L12,16 L12,12 L7,11 L4,8 L4,6 L0,6 Z " fill="#A0BFDC" transform="translate(386,400)"/>
<path d="M0,0 L11,0 L21,2 L22,5 L20,5 L21,8 L19,8 L19,6 L5,6 L5,4 L-1,4 L-1,3 L5,3 L5,1 L0,1 Z " fill="#CCDDE7" transform="translate(549,298)"/>
<path d="M0,0 L1,4 L-3,4 L-3,8 L-7,8 L-7,10 L-11,10 L-11,12 L-17,12 L-17,14 L-21,14 L-21,16 L-25,15 L-22,15 L-23,11 L-17,7 L-6,6 L-4,7 L-4,3 L0,3 Z " fill="#001232" transform="translate(713,710)"/>
<path d="M0,0 L1,4 L-5,4 L-5,8 L-9,8 L-9,16 L-3,16 L-3,26 L-5,26 L-5,28 L-13,28 L-13,30 L-15,30 L-15,26 L-7,25 L-6,19 L-10,17 L-10,7 L-6,7 L-6,3 L0,3 Z " fill="#000F30" transform="translate(773,678)"/>
<path d="M0,0 L30,0 L30,1 L2,2 L29,3 L29,4 L2,4 L1,8 L1,6 L-1,6 L0,10 L-1,16 L-2,16 L-2,10 L-4,10 L-4,8 L-2,8 L-2,2 L0,2 Z " fill="#181A1B" transform="translate(518,300)"/>
<path d="M0,0 L5,1 L5,11 L7,11 L8,20 L2,19 L2,17 L0,17 L-1,20 L-1,16 L3,16 L3,11 L0,11 Z " fill="#B8DAF9" transform="translate(401,416)"/>
<path d="M0,0 L4,0 L4,34 L8,36 L10,38 L10,42 L12,42 L12,54 L11,54 L11,43 L6,42 L2,36 L3,1 Z " fill="#222629" transform="translate(350,476)"/>
<path d="M0,0 L2,3 L5,4 L6,6 L6,33 L4,32 L1,19 L2,16 L4,17 L4,5 L2,5 L1,8 Z " fill="#DEF1FC" transform="translate(671,267)"/>
<path d="M0,0 L11,0 L18,3 L16,5 L10,5 L8,5 L8,7 L0,7 L0,4 L-8,4 L-8,3 L0,3 Z M18,2 Z M-9,4 Z " fill="#EDF7FA" transform="translate(568,237)"/>
<path d="M0,0 L12,1 L10,4 L5,7 L1,8 L-7,8 L-9,6 L-3,5 L-3,2 Z " fill="#C9E9F8" transform="translate(623,407)"/>
<path d="M0,0 L4,1 L1,1 L1,8 L3,8 L3,3 L5,7 L3,15 L5,19 L7,20 L5,20 L4,24 L4,20 L0,20 L0,18 L-2,18 L-2,8 L0,8 Z " fill="#A9C7E3" transform="translate(578,342)"/>
<path d="M0,0 L4,2 L2,2 L2,6 L-26,6 L-25,2 L-25,5 L-23,5 L-22,2 L-1,2 L-1,5 L1,5 Z " fill="#001533" transform="translate(496,744)"/>
<path d="M0,0 L1,0 L1,10 L-1,10 L-1,12 L-3,12 L-3,20 L-5,20 L-5,22 L-7,22 L-7,26 L-9,26 L-9,28 L-13,27 L-11,23 L-10,25 L-8,25 L-9,19 L-8,12 L-6,12 L-6,19 L-4,19 L-5,12 L-6,8 L-4,8 L-3,4 L-3,9 L0,9 Z " fill="#9ABCE2" transform="translate(645,568)"/>
<path d="M0,0 L8,0 L8,1 L2,2 L1,11 L14,13 L14,14 L8,14 L8,18 L3,17 L0,14 L0,12 L-2,12 L-2,2 L0,2 Z " fill="#141920" transform="translate(490,534)"/>
<path d="M0,0 L2,4 L-3,3 L-3,8 L-1,8 L0,5 L0,9 L-2,17 L-4,17 L-4,28 L-5,28 L-5,17 L-7,17 L-7,28 L-8,28 L-8,16 L-6,16 L-6,8 L-4,8 L-4,2 L0,2 Z " fill="#C2D0DD" transform="translate(370,270)"/>
<path d="M0,0 L8,0 L8,10 L-8,10 L-8,6 L-20,6 L-20,4 L-24,3 L-18,2 L-10,2 L-6,5 L-7,9 L7,9 L7,1 L0,1 Z " fill="#021530" transform="translate(538,744)"/>
<path d="M0,0 L12,0 L12,2 L24,2 L24,3 L12,3 L11,6 L11,4 L1,4 L0,6 L0,3 L-18,3 L-18,2 L0,2 Z " fill="#BBCED8" transform="translate(438,254)"/>
<path d="M0,0 L1,0 L1,33 L7,33 L9,37 L7,41 L11,42 L9,42 L9,53 L12,54 L8,54 L8,42 L6,42 L4,37 L0,34 Z " fill="#A9BECE" transform="translate(354,476)"/>
<path d="M0,0 L2,1 L1,3 L3,3 L0,13 L-1,15 L-3,15 L-3,13 L-5,13 L-5,15 L-7,15 L-6,32 L-8,32 L-8,14 L-6,14 L-6,12 L-4,12 L-4,6 L-2,6 L-2,2 L0,2 Z " fill="#C5CDDB" transform="translate(348,316)"/>
<path d="M0,0 L8,0 L8,4 L6,4 L6,20 L0,20 L0,19 L5,19 L5,17 L0,17 L2,16 L2,3 L7,3 L7,1 L0,1 Z " fill="#131619" transform="translate(646,370)"/>
<path d="M0,0 L2,1 L1,3 L4,3 L5,0 L5,4 L1,4 L1,6 L-1,6 L-1,8 L-5,8 L-5,10 L-7,10 L-7,12 L-11,11 L-11,8 L-13,7 L-13,5 L-2,3 L-1,3 Z " fill="#93BEE5" transform="translate(589,620)"/>
<path d="M0,0 L15,0 L16,5 L14,5 L14,3 L10,3 L10,5 L0,5 L0,3 L-6,3 L-6,2 L0,2 Z " fill="#021531" transform="translate(632,738)"/>
<path d="M0,0 L2,1 L3,12 L2,25 L-1,25 L-1,1 Z " fill="#A5CCF9" transform="translate(480,529)"/>
<path d="M0,0 L4,0 L4,22 L2,22 L2,24 L0,24 L0,30 L-2,30 L-2,36 L-3,36 L-4,30 L-4,22 L-1,21 L0,19 L0,21 L3,21 L3,1 Z " fill="#A2B9D6" transform="translate(740,426)"/>
<path d="M0,0 L4,4 L10,4 L10,7 L12,7 L12,9 L10,9 L11,13 L9,12 L9,10 L3,10 L3,8 L-2,7 L-3,5 L0,5 L0,3 L-2,3 L-2,1 Z " fill="#BDD0E5" transform="translate(363,364)"/>
<path d="M0,0 L1,2 L0,8 L2,8 L2,2 L3,2 L3,8 L18,10 L18,11 L7,12 L19,13 L19,14 L5,14 L5,12 L-1,12 L-1,2 L-3,1 Z " fill="#13171B" transform="translate(547,350)"/>
<path d="M0,0 L4,0 L4,2 L11,2 L11,4 L6,5 L10,7 L12,11 L7,13 L4,13 L6,7 L0,7 Z " fill="#E7F5F8" transform="translate(620,247)"/>
<path d="M0,0 L4,0 L4,18 L6,18 L6,26 L8,26 L8,30 L10,30 L9,34 L9,31 L7,31 L6,33 L7,27 L5,27 L4,29 L4,27 L2,27 L1,18 L3,18 L3,1 Z " fill="#ADC4D7" transform="translate(706,358)"/>
<path d="M0,0 L1,0 L1,10 L3,10 L3,14 L5,14 L5,18 L7,18 L7,24 L11,24 L10,28 L10,25 L4,26 L3,25 L3,18 L4,15 L2,15 L1,17 L2,11 L0,11 L-1,14 L-2,11 L-4,10 L-2,6 L-2,10 L0,10 Z " fill="#B0C4D4" transform="translate(689,318)"/>
<path d="M0,0 L1,0 L1,7 L3,7 L3,1 L6,1 L8,7 L9,11 L11,11 L11,13 L9,13 L9,15 L12,16 L8,16 L8,14 L4,14 L4,8 L0,8 Z " fill="#ACC6E7" transform="translate(434,588)"/>
<path d="M0,0 L1,4 L3,4 L4,12 L4,22 L0,22 L-1,13 L-1,4 Z " fill="#CBE0EC" transform="translate(685,306)"/>
<path d="M0,0 L6,0 L6,2 L20,2 L20,4 L22,4 L22,10 L21,8 L19,8 L19,5 L5,6 L0,4 L0,3 L5,3 L5,1 L0,1 Z " fill="#131516" transform="translate(548,302)"/>
<path d="M0,0 L9,1 L13,6 L9,6 L9,8 L16,7 L13,8 L13,10 L16,11 L12,11 L12,9 L8,9 L8,5 L0,5 L0,3 L-4,2 L0,2 Z " fill="#A0C0E1" transform="translate(446,505)"/>
<path d="M0,0 L28,0 L28,2 L33,2 L33,4 L27,5 L25,3 L-1,2 Z " fill="#000000" transform="translate(520,301)"/>
<path d="M0,0 L2,1 L2,9 L-3,14 L-5,13 L-5,15 L-9,15 L-10,18 L-9,13 L-6,10 L-4,10 L-4,8 L-2,8 L-2,2 L0,2 Z " fill="#CED8E4" transform="translate(360,298)"/>
<path d="M0,0 L8,1 L4,2 L4,4 L0,8 L-2,8 L-2,10 L-6,10 L-6,12 L-10,11 L-7,11 L-7,9 L-10,8 L-7,6 L-4,6 L-2,2 L0,2 Z " fill="#001433" transform="translate(680,726)"/>
<path d="M0,0 Z M-1,1 L2,5 L2,12 L0,12 L0,5 L-2,5 L-2,18 L-4,18 L-5,14 L-9,14 L-9,12 L-7,12 L-7,10 L-5,10 L-6,6 Z " fill="#AED3F9" transform="translate(639,575)"/>
<path d="M0,0 L2,0 L1,7 L2,9 L0,10 L0,13 L-2,14 L-3,17 L-6,17 L-6,15 L-8,15 L-8,17 L-10,16 L-9,14 L-6,14 L-6,8 L-3,6 Z " fill="#C2DCF9" transform="translate(723,468)"/>
<path d="M0,0 L2,0 L2,20 L-1,20 L-2,14 L-2,2 L0,2 Z " fill="#BDD9F8" transform="translate(741,427)"/>
<path d="M0,0 L1,4 L3,4 L4,0 L4,8 L3,14 L5,14 L5,8 L6,8 L6,19 L5,21 L7,21 L8,18 L8,26 L6,26 L6,22 L4,22 L4,18 L2,18 L2,8 L0,8 Z " fill="#1C1F21" transform="translate(688,310)"/>
<path d="M0,0 L1,3 L3,3 L3,0 L5,0 L8,5 L10,8 L7,9 L7,11 L10,10 L18,10 L18,11 L11,11 L11,13 L18,13 L18,14 L10,14 L10,12 L6,12 L6,8 L2,8 L2,4 L0,4 Z " fill="#B7D1D9" transform="translate(312,438)"/>
<path d="M0,0 L11,0 L14,2 L13,4 L27,5 L27,6 L11,6 L11,4 L-1,4 Z " fill="#151719" transform="translate(323,406)"/>
<path d="M0,0 L6,1 L15,2 L17,4 L-11,4 L-7,3 L-7,1 Z " fill="#D8E9F5" transform="translate(530,292)"/>
<path d="M0,0 L8,0 L14,2 L10,4 L14,6 L8,6 L8,4 L0,4 L0,6 L-8,6 L-8,5 L-1,5 L-1,3 L-7,3 L-7,2 L0,2 Z " fill="#131516" transform="translate(654,250)"/>
<path d="M0,0 L12,0 L16,1 L16,3 L20,3 L20,6 L23,6 L23,8 L19,8 L19,6 L14,7 L11,4 L11,2 L0,2 Z " fill="#032448" transform="translate(478,719)"/>
<path d="M0,0 L2,0 L2,2 L10,4 L10,5 L1,6 L-3,7 L-8,3 L-11,1 Z " fill="#DEF2FB" transform="translate(656,260)"/>
<path d="M0,0 L3,0 L3,10 L6,10 L9,14 L9,17 L5,17 L3,12 L1,12 L0,10 Z " fill="#9DC3EF" transform="translate(484,536)"/>
<path d="M0,0 L1,0 L1,10 L-9,10 L-9,14 L-3,14 L-3,26 L-7,25 L-4,25 L-4,15 L-9,15 L-9,17 L-7,17 L-8,20 L-8,18 L-12,17 L-12,14 L-10,14 L-10,10 L-12,9 L-10,9 L-9,7 L-9,9 L0,9 Z " fill="#98B1CD" transform="translate(613,364)"/>
<path d="M0,0 L6,1 L12,5 L17,6 L17,7 L11,8 L17,9 L17,10 L9,10 L7,6 L3,6 L3,4 L-3,4 L-3,3 L3,3 L3,1 Z " fill="#A4BED8" transform="translate(637,360)"/>
<path d="M0,0 L1,0 L2,36 L0,36 L0,32 L-2,32 L-2,24 L0,24 Z " fill="#1F2224" transform="translate(686,274)"/>
<path d="M0,0 L5,1 L5,4 L7,4 L7,6 L10,7 L10,9 L12,9 L12,16 L10,16 L10,12 L6,10 L2,6 L2,4 L0,4 Z " fill="#17191B" transform="translate(674,258)"/>
<path d="M0,0 L4,0 L4,20 L0,19 L0,3 L3,3 L3,1 Z " fill="#031333" transform="translate(782,638)"/>
<path d="M0,0 L2,4 L0,6 L-4,6 L-6,12 L-3,12 L-3,14 L-7,14 L-8,18 L-12,18 L-12,16 L-9,16 L-8,10 L-14,11 L-14,9 L-8,9 L-7,6 L-1,5 Z " fill="#ABD4F8" transform="translate(628,587)"/>
<path d="M0,0 L2,1 L1,3 L3,3 L3,5 L-2,8 L-2,5 L-7,5 L-8,8 L-15,8 L-17,5 L-15,5 L-15,3 L-18,2 L-14,2 L-14,4 L-10,4 L-10,6 L-8,6 L-8,4 L-2,4 L-2,2 L0,2 Z " fill="#A0BDD9" transform="translate(398,436)"/>
<path d="M0,0 L4,0 L4,2 L10,2 L14,6 L14,12 L12,10 L10,12 L9,6 L3,6 L3,4 L0,3 L3,3 L3,1 Z " fill="#101214" transform="translate(362,372)"/>
<path d="M0,0 L8,0 L11,4 L10,11 L12,12 L8,13 L6,8 L4,7 L4,5 L1,4 L2,3 L7,3 L7,1 L0,1 Z " fill="#E1F2F7" transform="translate(624,248)"/>
<path d="M0,0 L9,1 L13,3 L8,4 L14,5 L14,6 L6,6 L6,4 L0,4 L0,6 L-12,6 L-12,5 L-1,5 Z " fill="#181A1C" transform="translate(462,250)"/>
<path d="M0,0 L3,1 L4,14 L2,21 L0,21 Z " fill="#CCEAFE" transform="translate(360,426)"/>
<path d="M0,0 L4,0 L4,2 L6,2 L7,7 L9,7 L9,9 L7,9 L7,11 L12,11 L12,12 L6,12 L6,10 L2,10 L1,5 L1,3 Z " fill="#96BDEB" transform="translate(470,622)"/>
<path d="M0,0 L4,2 L10,3 L10,4 L4,4 L4,6 L2,6 L2,8 L-2,8 L-2,10 L-4,10 L-4,14 L-8,13 L-5,13 L-6,8 L-3,9 L-4,5 L-2,2 L0,2 Z " fill="#96BFE0" transform="translate(602,606)"/>
<path d="M0,0 L1,0 L1,6 L-1,6 L-1,12 L-3,12 L-3,14 L-1,14 L-1,20 L-2,20 L-2,15 L-5,16 L-7,15 L-8,10 L-6,6 L-4,6 L-4,11 L-2,11 L-3,1 L-2,5 L0,5 Z " fill="#9CBADD" transform="translate(649,548)"/>
<path d="M0,0 L8,0 L8,2 L14,2 L14,4 L20,4 L20,8 L22,8 L21,10 L18,8 L19,5 L14,5 L14,7 L17,8 L13,8 L13,6 L7,6 L7,4 L5,3 L7,3 L7,1 L0,1 Z " fill="#C0D2D9" transform="translate(654,254)"/>
<path d="M0,0 L3,1 L5,8 L7,10 L6,15 L4,15 L4,10 L-1,10 L-2,1 Z " fill="#B4D1EA" transform="translate(383,390)"/>
<path d="M0,0 L6,0 L6,1 L1,1 L1,3 L7,3 L7,4 L1,4 L1,6 L-7,6 L-7,8 L-11,7 L-8,7 L-8,5 L-10,4 L-8,4 L-8,2 L0,2 Z " fill="#8FB8E1" transform="translate(571,630)"/>
<path d="M0,0 L16,0 L20,4 L20,8 L22,8 L22,14 L21,14 L21,9 L19,9 L19,14 L18,14 L19,5 L17,5 L16,9 L11,3 L15,3 L15,1 L0,1 Z " fill="#ACC4D6" transform="translate(350,414)"/>
<path d="M0,0 L4,0 L5,9 L3,13 L-1,16 L-2,12 L-1,11 Z " fill="#DEECF9" transform="translate(363,287)"/>
<path d="M0,0 L1,0 L1,5 L-4,5 L-4,7 L3,7 L3,0 L4,0 L4,8 L-4,8 L-4,10 L-6,10 L-6,20 L-7,20 L-7,10 L-9,10 L-7,6 L-5,4 L-1,3 Z " fill="#8DAED7" transform="translate(494,526)"/>
<path d="M0,0 L9,1 L9,3 L11,4 L9,4 L9,6 L-1,6 L-1,1 Z " fill="#ABC7E5" transform="translate(685,494)"/>
<path d="M0,0 L12,1 L9,3 L1,4 L-4,4 L-6,6 L-5,8 L-12,7 L-8,6 L-8,4 L-6,4 L-6,2 L0,2 Z " fill="#121518" transform="translate(412,512)"/>
<path d="M0,0 L1,0 L1,14 L3,14 L3,0 L4,0 L4,26 L2,26 L2,18 L0,18 Z " fill="#191C1F" transform="translate(710,358)"/>
<path d="M0,0 L4,1 L1,1 L2,5 L-1,8 L-1,5 L-3,5 L-3,15 L5,15 L5,19 L16,19 L16,20 L4,20 L4,16 L-4,16 L-4,4 L0,4 Z " fill="#000D2A" transform="translate(742,690)"/>
<path d="M0,0 L13,0 L13,3 L17,4 L13,5 L12,7 L8,5 L8,2 L-1,4 Z M-2,4 Z " fill="#D6ECF8" transform="translate(335,417)"/>
<path d="M0,0 L4,0 L4,2 L10,2 L14,8 L12,10 L9,8 L9,6 L3,6 L3,4 L0,3 L3,3 L3,1 Z " fill="#0E0F10" transform="translate(348,364)"/>
<path d="M0,0 L1,0 L1,5 L3,5 L3,0 L8,2 L5,11 L10,11 L10,9 L7,8 L11,8 L11,10 L13,11 L11,11 L11,13 L14,14 L10,14 L10,12 L4,12 L4,6 L0,6 Z " fill="#B2C6D8" transform="translate(570,306)"/>
<path d="M0,0 L5,1 L4,4 L-2,6 L-10,7 L-10,5 L-7,3 L-4,3 L-4,1 Z " fill="#AEDBFE" transform="translate(558,619)"/>
<path d="M0,0 L4,2 L2,2 L2,6 L0,6 L0,8 L-2,8 L-2,10 L-4,10 L-4,14 L-6,14 L-7,16 L-7,14 L-9,13 L-5,13 L-6,8 L-5,7 L-4,2 L-2,1 L-1,5 L1,5 Z " fill="#ABC2DE" transform="translate(728,468)"/>
<path d="M0,0 L6,0 L6,1 L1,1 L1,3 L6,3 L6,5 L2,8 L0,8 L0,10 L-3,10 L-3,3 L0,2 Z " fill="#CDE4F5" transform="translate(386,258)"/>
<path d="M0,0 L4,1 L1,1 L1,3 L3,4 L1,4 L1,6 L-9,8 L-7,7 L-7,5 L-10,6 L-10,4 L-8,4 L-8,2 L0,2 Z " fill="#CEDFE4" transform="translate(512,248)"/>
<path d="M0,0 L13,0 L16,2 L12,3 L16,5 L10,5 L10,3 L-2,3 Z " fill="#141515" transform="translate(580,229)"/>
<path d="M0,0 L9,0 L9,2 L5,2 L5,4 L1,6 L-5,6 L-5,2 Z " fill="#ADD8FB" transform="translate(605,596)"/>
<path d="M0,0 L1,0 L1,7 L3,7 L3,0 L5,4 L6,8 L5,32 L4,32 L4,8 L0,8 Z " fill="#86A6CC" transform="translate(474,522)"/>
<path d="M0,0 L1,0 L1,5 L3,5 L3,0 L5,0 L5,3 L10,2 L10,5 L12,6 L10,6 L10,8 L4,8 L4,6 L0,6 Z " fill="#96B9DF" transform="translate(462,516)"/>
<path d="M0,0 L4,0 L4,6 L6,6 L7,9 L5,9 L5,11 L1,11 L1,7 L-1,7 Z " fill="#BDD5EA" transform="translate(714,392)"/>
<path d="M0,0 L1,0 L1,6 L-1,6 L-1,8 L-3,8 L-3,26 L-1,26 L-1,28 L-3,28 L-3,34 L-4,34 L-5,26 L-4,6 L-1,3 Z " fill="#2F3136" transform="translate(343,322)"/>
<path d="M0,0 L4,2 L2,2 L2,8 L0,8 L0,10 L2,10 L2,16 L-2,15 L1,15 L1,11 L-1,11 L-2,13 L-2,11 L-4,11 L-3,2 L-1,2 L-1,7 L1,7 Z " fill="#B6C9DA" transform="translate(514,300)"/>
<path d="M0,0 L8,0 L8,2 L11,2 L11,6 L7,7 L5,5 L-1,3 Z " fill="#EDF7F8" transform="translate(604,241)"/>
<path d="M0,0 L2,1 L2,24 L1,24 L1,18 L-1,18 L-1,24 L-2,24 L-2,14 L0,14 L0,8 L-2,8 L-2,6 L0,6 Z " fill="#101418" transform="translate(648,554)"/>
<path d="M0,0 L4,0 L4,5 L2,5 L2,14 L0,14 L0,5 L-2,5 L-3,7 L-2,1 Z " fill="#B1D3F8" transform="translate(643,563)"/>
<path d="M0,0 L6,0 L6,6 L4,6 L3,8 L3,6 L-4,5 L-5,8 L-5,6 L-7,5 L-5,5 L-4,3 L0,4 Z " fill="#8AABD3" transform="translate(498,548)"/>
<path d="M0,0 L2,0 L2,2 L8,2 L8,3 L2,3 L2,5 L0,5 L0,7 L-4,7 L-4,9 L-8,8 L-5,8 L-5,6 L-8,5 Z " fill="#ACC7E0" transform="translate(404,511)"/>
<path d="M0,0 L1,3 L3,3 L4,0 L4,4 L2,4 L2,6 L-4,6 L-4,8 L-10,8 L-10,7 L-5,7 L-5,5 L-10,5 L-7,3 Z " fill="#ABC7DF" transform="translate(422,504)"/>
<path d="M0,0 L12,0 L12,1 L1,1 L1,3 L12,3 L11,5 L3,5 L3,7 L-2,6 L-2,4 L0,4 Z " fill="#CDDBDE" transform="translate(518,242)"/>
<path d="M0,0 L1,0 L1,5 L3,5 L3,0 L5,1 L5,4 L7,4 L7,6 L5,6 L5,11 L8,11 L9,8 L13,11 L9,11 L9,13 L12,14 L8,14 L8,12 L4,12 L4,6 L0,6 Z " fill="#90AED3" transform="translate(446,604)"/>
<path d="M0,0 L5,0 L5,2 L16,2 L16,4 L2,5 L0,6 Z " fill="#D9EEF9" transform="translate(317,409)"/>
<path d="M0,0 L4,0 L4,2 L10,2 L10,4 L14,5 L3,6 L3,4 L1,4 L0,6 Z " fill="#15181C" transform="translate(630,362)"/>
<path d="M0,0 L4,1 L10,2 L11,0 L18,1 L14,3 L13,4 L6,4 L5,6 L0,4 Z " fill="#E5F5FB" transform="translate(544,284)"/>
<path d="M0,0 L1,3 L9,2 L9,4 L11,5 L9,5 L9,7 L12,7 L12,5 L15,5 L15,7 L13,7 L13,9 L16,10 L12,10 L12,8 L8,8 L8,6 L4,6 L4,4 L0,4 Z " fill="#B8D1DA" transform="translate(330,452)"/>
<path d="M0,0 L14,0 L14,2 L18,3 L14,3 L15,6 L13,6 L13,4 L2,6 L1,3 L13,3 L13,1 L0,1 Z " fill="#A7C2DA" transform="translate(606,392)"/>
<path d="M0,0 L7,1 L11,3 L11,5 L13,5 L13,7 L4,8 L8,6 L8,3 L5,4 L4,6 L2,6 Z " fill="#D7E5F8" transform="translate(345,355)"/>
<path d="M0,0 L9,0 L9,2 L11,2 L9,7 L7,8 L4,7 L4,2 L0,2 Z " fill="#C9E0F5" transform="translate(577,312)"/>
<path d="M0,0 L10,1 L10,8 L16,8 L16,9 L9,9 L7,8 L7,4 L5,4 L5,2 L0,2 Z " fill="#041C3C" transform="translate(616,733)"/>
<path d="M0,0 L4,0 L4,2 L10,2 L10,4 L16,4 L16,5 L4,6 L0,4 Z " fill="#0A0D10" transform="translate(472,632)"/>
<path d="M0,0 L2,0 L2,8 L-7,5 L-10,3 L0,2 Z " fill="#0D1013" transform="translate(472,522)"/>
<path d="M0,0 L4,1 L1,1 L1,3 L4,3 L2,7 L-1,7 L-4,10 L-5,24 L-6,24 L-6,8 L-4,8 L-4,6 L-2,6 L-2,4 L0,4 Z " fill="#1A1F25" transform="translate(660,514)"/>
<path d="M0,0 L6,0 L6,4 L16,4 L16,5 L5,6 L3,8 L3,4 L1,4 L0,8 Z " fill="#171C21" transform="translate(678,496)"/>
<path d="M0,0 L4,0 L3,7 L5,7 L6,4 L6,8 L12,8 L12,9 L5,9 L5,11 L12,11 L12,12 L4,12 L4,8 L2,8 L2,4 L0,4 Z " fill="#16191C" transform="translate(730,406)"/>
<path d="M0,0 L1,3 L3,3 L4,0 L7,0 L7,3 L6,4 L12,4 L12,5 L7,5 L7,7 L14,6 L14,11 L12,10 L12,8 L6,8 L6,6 L2,6 L2,4 L0,4 Z " fill="#B9C5D8" transform="translate(346,358)"/>
<path d="M0,0 L2,0 L2,8 L4,8 L3,20 L1,18 L0,13 L-1,8 Z " fill="#DAEEF8" transform="translate(681,298)"/>
<path d="M0,0 L8,0 L8,1 L1,1 L1,3 L5,4 L1,8 L-11,7 L-11,9 L-14,8 L-12,8 L-12,6 L0,6 Z M0,8 Z " fill="#031E3C" transform="translate(742,640)"/>
<path d="M0,0 L4,0 L3,5 L0,13 L-2,14 L-2,4 Z " fill="#B7D8FD" transform="translate(636,546)"/>
<path d="M0,0 L1,3 L3,3 L4,1 L6,4 L8,10 L7,15 L10,16 L6,16 L6,10 L4,10 L4,8 L2,8 L2,4 L0,4 Z " fill="#171A1D" transform="translate(700,342)"/>
<path d="M0,0 L4,0 L3,6 L0,6 L0,8 L4,9 L0,9 L0,11 L-4,10 L-1,10 L-1,8 L-4,7 L-1,7 L0,3 L-4,2 Z " fill="#9DC5E8" transform="translate(616,597)"/>
<path d="M0,0 L1,0 L1,5 L3,5 L3,0 L5,0 L8,5 L8,11 L7,11 L7,6 L5,6 L5,13 L8,14 L4,14 L4,6 L0,6 Z " fill="#B4CCD9" transform="translate(346,462)"/>
<path d="M0,0 L2,0 L2,2 L8,2 L8,4 L16,4 L16,5 L1,6 L0,10 Z " fill="#191D21" transform="translate(614,364)"/>
<path d="M0,0 L1,0 L1,6 L5,8 L5,16 L4,12 L2,12 L1,16 L-1,6 Z " fill="#161A1D" transform="translate(377,384)"/>
<path d="M0,0 L1,0 L1,10 L-1,10 L-1,12 L-3,12 L-3,20 L-4,20 L-5,12 L-6,8 L-4,8 L-3,4 L-3,9 L0,9 Z " fill="#95B3D6" transform="translate(645,568)"/>
<path d="M0,0 L3,1 L3,5 L-3,10 L-6,10 L-6,5 L-1,4 Z " fill="#A9D1F9" transform="translate(515,546)"/>
<path d="M0,0 L2,0 L2,3 L12,3 L12,0 L14,0 L14,5 L0,5 Z " fill="#CEEBFD" transform="translate(367,530)"/>
<path d="M0,0 L1,3 L3,3 L4,0 L4,4 L2,4 L2,6 L-2,10 L-10,10 L-10,9 L-3,9 L-3,6 L-5,5 Z " fill="#A9C4DD" transform="translate(392,520)"/>
<path d="M0,0 L1,0 L2,12 L1,16 L-1,16 L-2,18 L-3,15 L0,15 L-2,11 L-2,5 L0,5 Z " fill="#B4CDEB" transform="translate(735,450)"/>
<path d="M0,0 L4,0 L4,4 L8,4 L8,8 L10,8 L10,12 L12,12 L11,16 L11,13 L9,13 L8,15 L9,9 L7,9 L6,11 L7,5 L1,6 L0,3 L3,3 L3,1 Z " fill="#9FB5CD" transform="translate(722,402)"/>
<path d="M0,0 L2,1 L1,7 L4,7 L5,5 L5,8 L7,9 L5,14 L2,13 L2,8 L0,8 Z " fill="#B1CAE1" transform="translate(582,322)"/>
<path d="M0,0 L10,1 L14,4 L5,5 L0,4 Z " fill="#CEE5F8" transform="translate(592,311)"/>
<path d="M0,0 L7,0 L7,2 L1,5 L0,6 L-8,6 L-8,4 L-1,3 Z " fill="#04264B" transform="translate(751,637)"/>
<path d="M0,0 L10,1 L9,3 L1,4 L-8,3 L-8,2 L0,2 Z " fill="#0E1317" transform="translate(572,634)"/>
<path d="M0,0 L1,2 L3,2 L3,4 L5,4 L6,2 L9,6 L7,6 L6,10 L4,8 L2,8 L-1,3 Z " fill="#D2E5F2" transform="translate(674,265)"/>
<path d="M0,0 L4,0 L5,3 L3,4 L-11,4 L-11,2 L0,2 Z " fill="#F1FDFE" transform="translate(530,241)"/>
<path d="M0,0 L4,0 L5,5 L8,6 L8,8 L1,8 L1,6 L-1,6 Z " fill="#042040" transform="translate(529,737)"/>
<path d="M0,0 L4,1 L1,1 L1,3 L5,4 L0,5 L0,3 L-7,3 L-7,5 L-5,5 L-7,9 L-7,7 L-9,7 L-10,10 L-10,6 L-8,6 L-8,2 L0,2 Z " fill="#95B0D0" transform="translate(446,578)"/>
<path d="M0,0 L2,1 L1,3 L-1,3 L-1,8 L2,9 L-1,13 L-3,13 L-3,9 L-5,9 L-5,14 L-6,14 L-6,8 L-2,8 L-2,2 L0,2 Z " fill="#92B3D8" transform="translate(464,560)"/>
<path d="M0,0 L5,0 L4,4 L-1,6 L-4,7 L-4,4 L-6,4 L-7,6 L-7,3 L-1,2 Z " fill="#B4D6F7" transform="translate(391,441)"/>
<path d="M0,0 L1,4 L3,4 L4,0 L5,2 L5,8 L-1,7 L-1,5 L-3,5 L-4,8 L-4,4 L0,4 Z " fill="#A6C5E4" transform="translate(404,428)"/>
<path d="M0,0 L2,0 L2,5 L5,5 L5,9 L7,9 L6,11 L3,9 L4,6 L2,6 L2,8 L0,9 L-2,12 L-2,8 Z " fill="#BAD9EB" transform="translate(369,423)"/>
<path d="M0,0 L14,0 L14,1 L1,1 L1,3 L3,3 L3,7 L0,8 L0,5 L-8,5 L-8,4 L0,4 Z " fill="#A1BACF" transform="translate(632,392)"/>
<path d="M0,0 L1,0 L3,10 L1,11 L0,14 L-2,11 L-2,5 L0,5 L-1,1 Z " fill="#BDD7F5" transform="translate(732,455)"/>
<path d="M0,0 L8,0 L8,6 L6,6 L5,8 L5,6 L3,6 L2,9 L0,6 L0,3 L5,3 L5,5 L7,5 L7,1 L0,1 Z " fill="#A5BDDA" transform="translate(734,418)"/>
<path d="M0,0 L8,0 L8,4 L16,4 L16,5 L8,5 L8,7 L16,7 L16,8 L7,8 L7,5 L4,4 L7,3 L7,1 L0,1 Z " fill="#9CB9D5" transform="translate(566,362)"/>
<path d="M0,0 L4,0 L4,6 L8,6 L7,10 L7,7 L1,8 L0,7 Z " fill="#B5CDE0" transform="translate(692,336)"/>
<path d="M0,0 L1,2 L10,2 L10,4 L4,7 L-1,6 Z " fill="#E3F6F9" transform="translate(635,253)"/>
<path d="M0,0 L7,1 L3,2 L3,4 L1,4 L1,6 L-9,6 L-9,5 L0,5 L0,3 L-7,3 L-7,2 Z " fill="#001330" transform="translate(663,738)"/>
<path d="M0,0 L3,0 L3,11 L1,11 L-1,5 Z M-2,5 Z M-1,7 Z " fill="#031A3E" transform="translate(778,627)"/>
<path d="M0,0 L5,5 L4,9 L2,7 L-1,7 L-2,4 L-5,3 L-5,1 Z " fill="#A8CEF7" transform="translate(460,614)"/>
<path d="M0,0 L7,0 L7,2 L4,4 L2,6 L-4,6 L-4,4 L-1,3 Z " fill="#B3D6FA" transform="translate(451,575)"/>
<path d="M0,0 L3,0 L3,4 L0,5 L-1,8 L-5,8 L-4,3 Z " fill="#B1D2F5" transform="translate(660,509)"/>
<path d="M0,0 L9,1 L9,3 L4,3 L4,5 L-2,5 L-2,2 L0,2 Z " fill="#C1DFF8" transform="translate(408,508)"/>
<path d="M0,0 L9,0 L14,1 L14,2 L5,3 L5,1 L1,5 L-3,4 Z " fill="#C0DEF4" transform="translate(635,397)"/>
<path d="M0,0 L1,2 L5,2 L5,6 L-3,6 L-2,2 Z " fill="#181D22" transform="translate(577,360)"/>
<path d="M0,0 L3,0 L2,5 L0,7 L-9,7 L-9,5 L-1,4 Z " fill="#BADCFB" transform="translate(583,362)"/>
<path d="M0,0 L1,0 L1,11 L0,13 L2,13 L3,10 L3,18 L1,18 L1,14 L-1,14 L-2,6 L0,6 Z " fill="#101214" transform="translate(693,318)"/>
<path d="M0,0 L1,4 L-3,4 L-3,6 L-5,6 L-5,8 L-7,8 L-7,14 L-11,13 L-8,13 L-8,6 L-5,2 L0,3 Z " fill="#191E25" transform="translate(469,554)"/>
<path d="M0,0 L4,0 L4,5 L7,5 L6,9 L0,7 L0,3 L3,3 L3,1 Z " fill="#B2D0E9" transform="translate(376,434)"/>
<path d="M0,0 L6,0 L5,3 L3,3 L3,5 L5,5 L5,7 L2,7 L0,3 L-5,3 L-5,1 Z " fill="#D5E7F9" transform="translate(358,362)"/>
<path d="M0,0 L4,0 L4,2 L1,2 L2,6 L0,9 L-3,9 L-3,4 L-1,4 Z " fill="#A9CFF8" transform="translate(466,559)"/>
<path d="M0,0 L2,0 L2,9 L-7,9 L-7,7 L0,7 Z " fill="#C0E2FE" transform="translate(611,364)"/>
<path d="M0,0 L12,0 L16,2 L16,4 L8,4 L8,1 L0,1 Z M16,0 Z M-1,1 Z " fill="#F0FAFC" transform="translate(560,240)"/>
<path d="M0,0 L2,0 L3,7 L7,8 L7,10 L0,10 Z " fill="#00113A" transform="translate(739,695)"/>
<path d="M0,0 L4,0 L4,4 L8,4 L8,8 L10,8 L9,12 L9,9 L7,9 L6,11 L7,5 L1,6 L0,3 L3,3 L3,1 Z " fill="#9CB2CA" transform="translate(514,322)"/>
<path d="M0,0 L2,0 L2,4 L-1,5 Z M-3,5 L1,7 L0,9 L-6,11 L-7,9 L-5,7 Z " fill="#DCF0F9" transform="translate(503,253)"/>
<path d="M0,0 L4,0 L5,3 L8,5 L5,6 L3,10 L2,7 L3,3 L0,2 Z " fill="#031E43" transform="translate(765,625)"/>
<path d="M0,0 L3,0 L3,10 L0,10 Z " fill="#A4CBF9" transform="translate(484,536)"/>
<path d="M0,0 L10,0 L10,2 L12,2 L12,12 L11,12 L10,7 L9,7 L9,1 L0,1 Z " fill="#97B3CE" transform="translate(534,350)"/>
<path d="M0,0 L4,0 L4,4 L1,5 L0,7 L-4,6 L-4,4 L-2,4 L-2,1 Z " fill="#CDE6F8" transform="translate(511,311)"/>
<path d="M0,0 L1,0 L1,5 L3,5 L3,0 L5,0 L5,3 L7,3 L7,5 L5,5 L5,7 L8,8 L4,8 L4,6 L0,6 Z " fill="#9CB7D8" transform="translate(438,596)"/>
<path d="M0,0 L1,4 L-1,4 L-1,6 L-9,8 L-9,6 L-6,3 L0,3 Z " fill="#A5C4E6" transform="translate(659,514)"/>
<path d="M0,0 L4,2 L5,4 L5,12 L3,12 L2,5 L0,4 Z " fill="#A8CFF9" transform="translate(472,517)"/>
<path d="M0,0 L6,1 L6,3 L9,3 L9,5 L3,5 L3,3 L0,3 Z " fill="#BFDDF7" transform="translate(631,358)"/>
<path d="M0,0 L6,0 L6,2 L10,2 L10,4 L8,4 L8,12 L7,12 L5,5 L5,1 L0,1 Z " fill="#202428" transform="translate(574,318)"/>
<path d="M0,0 L2,0 L2,10 L1,6 L-1,6 L-2,10 L-2,2 L0,2 Z " fill="#12161A" transform="translate(644,578)"/>
<path d="M0,0 L6,0 L6,1 L1,1 L1,6 L3,6 L3,9 L0,10 L0,7 L-6,7 L-6,6 L0,6 Z " fill="#8AACD1" transform="translate(508,550)"/>
<path d="M0,0 L4,1 L4,4 L0,5 L-1,8 L-3,8 L-2,3 Z " fill="#BFDEF8" transform="translate(426,499)"/>
<path d="M0,0 L4,2 L5,4 L4,9 L2,9 L1,4 L-2,3 L-2,1 Z " fill="#D5F1F9" transform="translate(345,458)"/>
<path d="M0,0 L1,0 L1,5 L3,5 L3,0 L5,0 L7,5 L5,5 L6,9 L4,8 L4,6 L0,6 Z " fill="#9DB9D5" transform="translate(386,400)"/>
<path d="M0,0 L3,2 L11,3 L11,4 L3,5 L0,6 L0,4 L-5,4 L-5,3 L0,3 Z " fill="#D5DEE1" transform="translate(601,237)"/>
<path d="M0,0 L7,0 L7,8 L5,7 L5,2 L-1,2 Z " fill="#031D3E" transform="translate(538,745)"/>
<path d="M0,0 L1,2 L3,2 L4,0 L4,3 L10,3 L10,4 L4,4 L4,6 L0,6 Z " fill="#00050A" transform="translate(524,732)"/>
<path d="M0,0 L7,0 L6,4 L1,6 L2,2 L0,2 Z " fill="#B6D6F8" transform="translate(439,581)"/>
<path d="M0,0 L1,4 L3,4 L4,2 L4,8 L-2,8 L-2,6 L0,6 Z " fill="#1B2129" transform="translate(504,548)"/>
<path d="M0,0 L3,0 L3,2 L6,2 L6,4 L3,4 L4,7 L1,8 Z " fill="#C5DFF6" transform="translate(719,401)"/>
<path d="M0,0 L2,1 L1,5 L3,5 L3,1 L5,1 L5,3 L7,3 L7,5 L5,5 L6,8 L4,8 L4,6 L0,6 Z " fill="#BBC6D7" transform="translate(340,350)"/>
<path d="M0,0 L5,1 L7,5 L5,7 L1,5 L1,3 L-1,2 Z M1,2 Z " fill="#0A0C10" transform="translate(465,627)"/>
<path d="M0,0 L11,0 L11,2 L0,4 L-2,5 Z " fill="#A4D1FC" transform="translate(561,626)"/>
<path d="M0,0 L4,2 L4,9 L2,9 L1,4 L-2,3 L-2,1 Z M2,2 Z " fill="#B5D7FA" transform="translate(445,600)"/>
<path d="M0,0 L6,0 L7,3 L6,4 L0,4 Z " fill="#CEEDFE" transform="translate(612,452)"/>
<path d="M0,0 L6,1 L7,5 L-3,4 L-3,3 L3,3 L3,1 Z " fill="#B0CCE6" transform="translate(637,360)"/>
<path d="M0,0 L1,0 L1,6 L0,8 L-2,8 L-3,12 L-4,6 L-2,6 L-1,2 Z " fill="#121214" transform="translate(348,310)"/>
<path d="M0,0 L11,0 L10,3 L2,3 L2,1 Z " fill="#E2F6FD" transform="translate(638,264)"/>
<path d="M0,0 L10,0 L10,2 L1,3 L-1,4 Z " fill="#042248" transform="translate(682,713)"/>
<path d="M0,0 L12,0 L11,2 L5,3 L0,2 Z " fill="#032348" transform="translate(731,647)"/>
<path d="M0,0 L5,1 L8,4 L8,6 L4,6 L3,3 L0,2 Z " fill="#A6CEF7" transform="translate(507,529)"/>
<path d="M0,0 L2,0 L2,7 L-5,7 L-5,5 L0,5 Z " fill="#ABD3FD" transform="translate(495,526)"/>
<path d="M0,0 L6,1 L2,2 L2,4 L0,4 L0,6 L-2,6 L-2,8 L-6,7 L-3,7 L-3,3 L1,3 Z " fill="#96B2D3" transform="translate(666,506)"/>
<path d="M0,0 L2,0 L2,2 L5,3 L0,7 L-2,6 Z " fill="#B5D8F6" transform="translate(401,433)"/>
<path d="M0,0 L2,0 L3,5 L5,6 L4,9 L2,9 L1,6 L-2,5 L-2,3 L1,3 Z " fill="#D3F0F8" transform="translate(311,432)"/>
<path d="M0,0 L4,0 L4,8 L-4,8 L-4,7 L3,7 L3,3 L0,3 Z " fill="#6A7B8D" transform="translate(626,360)"/>
<path d="M0,0 L11,0 L11,2 L6,3 L0,2 Z " fill="#042244" transform="translate(512,733)"/>
<path d="M0,0 L1,3 L6,2 L6,4 L9,5 L7,9 L4,6 L4,4 L0,4 Z " fill="#83A4C9" transform="translate(458,618)"/>
<path d="M0,0 L1,0 L1,5 L3,5 L3,0 L5,1 L5,4 L7,4 L7,6 L0,6 Z " fill="#9BB9DE" transform="translate(446,604)"/>
<path d="M0,0 L4,0 L4,2 L8,2 L8,8 L7,8 L7,3 L0,4 Z " fill="#1D2022" transform="translate(338,460)"/>
<path d="M0,0 L8,0 L11,5 L2,4 L2,3 L7,3 L7,1 L0,1 Z " fill="#CAD8DB" transform="translate(624,248)"/>
<path d="M0,0 L6,1 L8,3 L-2,4 Z " fill="#B0DBFE" transform="translate(516,625)"/>
<path d="M0,0 L6,0 L5,4 L2,5 L2,3 L0,3 Z " fill="#A6CEF8" transform="translate(502,557)"/>
<path d="M0,0 L2,1 L1,3 L3,3 L3,5 L-2,8 L-2,2 L0,2 Z " fill="#A6C6E6" transform="translate(398,436)"/>
<path d="M0,0 L4,1 L-2,3 L-7,3 L-10,4 L-10,1 Z " fill="#CFEDFA" transform="translate(632,414)"/>
<path d="M0,0 L3,1 L3,13 L2,13 Z " fill="#E2F4FE" transform="translate(672,283)"/>
<path d="M0,0 L8,0 L8,2 L1,2 L1,4 L-1,4 Z " fill="#042244" transform="translate(570,735)"/>
<path d="M0,0 L6,0 L6,2 L1,4 L-3,4 L-3,2 L0,2 Z " fill="#042349" transform="translate(674,717)"/>
<path d="M0,0 L2,0 L2,9 L-2,7 Z " fill="#AACAF3" transform="translate(641,568)"/>
<path d="M0,0 L2,1 L1,14 L0,14 L0,8 L-2,8 L-2,6 L0,6 Z " fill="#1E242B" transform="translate(648,554)"/>
<path d="M0,0 L5,1 L4,5 L0,5 L-1,2 Z " fill="#0B0E11" transform="translate(501,529)"/>
<path d="M0,0 L1,0 L1,8 L-1,11 L-1,9 L-3,9 L-4,11 L-4,7 L-1,6 Z " fill="#B1D0ED" transform="translate(606,381)"/>
<path d="M0,0 L3,1 L2,2 L1,9 L-1,9 L-1,1 Z " fill="#051F44" transform="translate(708,679)"/>
<path d="M0,0 L4,0 L4,2 L10,2 L10,3 L0,4 Z " fill="#141A20" transform="translate(472,632)"/>
<path d="M0,0 L8,1 L8,2 L2,2 L2,4 L-1,5 L-1,3 L-3,2 Z " fill="#92B9DA" transform="translate(604,608)"/>
<path d="M0,0 L2,0 L2,15 L1,15 L1,3 L-1,3 Z " fill="#040405" transform="translate(656,523)"/>
<path d="M0,0 L2,0 L3,3 L6,4 L6,6 L1,7 Z " fill="#CBE6F9" transform="translate(511,319)"/>
<path d="M0,0 L1,0 L2,8 L1,14 L0,14 L0,8 L-2,8 L-2,6 L0,6 Z " fill="#24282C" transform="translate(516,302)"/>
<path d="M0,0 L2,0 L1,5 L-4,5 L-3,2 Z " fill="#001337" transform="translate(772,676)"/>
<path d="M0,0 L4,0 L3,7 L1,7 Z " fill="#B8D7F5" transform="translate(527,341)"/>
<path d="M0,0 L6,0 L7,4 L4,4 L4,2 L0,2 Z " fill="#C8DEF3" transform="translate(577,312)"/>
<path d="M0,0 L4,1 L7,5 L2,5 L2,3 L-1,2 Z " fill="#ABD5FE" transform="translate(511,628)"/>
<path d="M0,0 L3,0 L3,10 L2,10 L2,4 L0,4 Z " fill="#040506" transform="translate(653,538)"/>
<path d="M0,0 L7,0 L7,4 L5,4 L5,2 L0,2 Z " fill="#C8E5FE" transform="translate(734,419)"/>
<path d="M0,0 L3,0 L3,4 L-3,4 L-3,2 L0,2 Z " fill="#C7E8FD" transform="translate(626,363)"/>
<path d="M0,0 L1,0 L1,6 L-1,6 L-1,8 L-4,8 L-2,4 Z " fill="#1B1C1F" transform="translate(343,322)"/>
<path d="M0,0 L5,1 L5,4 L1,4 Z " fill="#A6CDF7" transform="translate(501,525)"/>
<path d="M0,0 L5,0 L4,4 L0,4 Z " fill="#BDDBFC" transform="translate(408,488)"/>
<path d="M0,0 L4,0 L4,2 L1,3 L-1,5 L-3,5 L-1,1 Z " fill="#BEE0FB" transform="translate(672,477)"/>
<path d="M0,0 L5,0 L4,4 L0,4 Z " fill="#D5F2FA" transform="translate(336,444)"/>
<path d="M0,0 L1,2 L4,3 L-1,6 L-2,2 Z " fill="#E3F6FE" transform="translate(617,295)"/>
<path d="M0,0 L1,2 L4,2 L4,4 L0,5 L0,3 L-5,3 L-5,2 L0,2 Z " fill="#E7F1F3" transform="translate(611,241)"/>
<path d="M0,0 L10,1 L10,2 L2,2 L2,4 L0,4 Z " fill="#000E2D" transform="translate(758,704)"/>
<path d="M0,0 L5,1 L4,4 L0,4 Z " fill="#B3D5F4" transform="translate(442,503)"/>
<path d="M0,0 L3,0 L4,4 L1,7 Z " fill="#B5D6F7" transform="translate(408,428)"/>
<path d="M0,0 L6,0 L6,1 L1,1 L1,5 L-3,3 L0,2 Z " fill="#ABBDCA" transform="translate(316,408)"/>
<path d="M0,0 L2,0 L1,8 L-1,7 Z " fill="#CAE4F7" transform="translate(713,389)"/>
<path d="M0,0 L1,0 L1,9 L-2,7 L-2,4 L0,4 Z " fill="#030404" transform="translate(715,376)"/>
<path d="M0,0 L2,0 L2,3 L5,3 L5,5 L0,5 Z " fill="#D4EEFD" transform="translate(575,312)"/>
<path d="M0,0 L4,0 L4,4 L0,4 Z " fill="#E9FFFD" transform="translate(652,280)"/>
<path d="M0,0 L6,0 L6,1 L1,1 L1,5 L-3,3 L0,2 Z " fill="#AABCCA" transform="translate(386,258)"/>
<path d="M0,0 L4,0 L5,3 L0,4 Z " fill="#E7F3F5" transform="translate(530,241)"/>
<path d="M0,0 L4,1 L1,1 L2,4 L-1,5 L-1,3 L-4,2 L0,2 Z " fill="#031D3C" transform="translate(670,718)"/>
<path d="M0,0 L2,0 L1,5 L-2,6 L-2,3 L0,3 Z " fill="#041E43" transform="translate(701,697)"/>
<path d="M0,0 L3,0 L3,5 L0,5 Z " fill="#B1D4F9" transform="translate(451,610)"/>
<path d="M0,0 L3,1 L3,6 L1,7 Z " fill="#B9D3F0" transform="translate(718,478)"/>
<path d="M0,0 L2,0 L3,6 L-1,4 Z " fill="#C1DCF7" transform="translate(731,415)"/>
<path d="M0,0 L4,0 L4,5 L1,6 L0,3 L3,3 L3,1 Z " fill="#ABC2D9" transform="translate(722,402)"/>
<path d="M0,0 L4,0 L4,5 L1,6 L0,3 L3,3 L3,1 Z " fill="#ABC2D9" transform="translate(514,322)"/>
<path d="M0,0 L3,0 L2,5 L0,5 Z " fill="#032347" transform="translate(761,627)"/>
<path d="M0,0 L4,0 L3,4 L0,4 Z " fill="#0F1215" transform="translate(442,508)"/>
<path d="M0,0 L2,0 L4,6 L0,4 Z " fill="#BBDBF7" transform="translate(603,390)"/>
<path d="M0,0 L4,0 L4,2 L2,2 L2,8 L1,8 Z " fill="#212326" transform="translate(338,348)"/>
<path d="M0,0 L2,0 L1,9 L0,9 L-1,2 Z " fill="#CAE5F7" transform="translate(691,333)"/>
<path d="M0,0 L3,1 L-2,6 L-1,2 Z " fill="#DCF4FF" transform="translate(390,272)"/>
<path d="M0,0 L4,1 L1,1 L1,5 L-3,3 L0,2 Z " fill="#B0C0CE" transform="translate(374,266)"/>
<path d="M0,0 L6,0 L6,3 L2,2 Z " fill="#E1F5FE" transform="translate(650,264)"/>
<path d="M0,0 L2,0 L1,5 L0,3 L-2,3 L-2,1 Z " fill="#ACCCF0" transform="translate(671,502)"/>
<path d="M0,0 L4,0 L4,3 L-1,2 Z " fill="#CDEAF2" transform="translate(331,450)"/>
<path d="M0,0 L3,1 L2,7 L0,4 Z " fill="#C0DFFB" transform="translate(372,448)"/>
<path d="M0,0 L1,2 L3,3 L1,3 L0,7 L0,3 L-4,2 L0,2 Z " fill="#99B6D2" transform="translate(582,359)"/>
<path d="M0,0 L5,1 L3,2 L2,5 Z " fill="#BDD7EF" transform="translate(696,345)"/>
<path d="M0,0 L4,1 L4,5 L2,5 L2,2 L0,2 Z " fill="#C1DFF7" transform="translate(525,335)"/>
<path d="M0,0 L3,1 L3,3 L-1,3 L-2,6 L-1,1 Z " fill="#BAC2CD" transform="translate(352,310)"/>
<path d="M0,0 L3,1 L-3,5 L-1,1 Z " fill="#011A3D" transform="translate(712,680)"/>
<path d="M0,0 L2,0 L1,5 L-2,4 Z " fill="#042045" transform="translate(715,671)"/>
<path d="M0,0 L2,0 L3,4 L-2,4 L0,3 Z " fill="#B9D6F5" transform="translate(437,585)"/>
<path d="M0,0 L2,0 L0,4 L0,2 L-2,2 L-3,5 L-3,1 Z " fill="#A2BCDB" transform="translate(439,583)"/>
<path d="M0,0 L5,0 L3,3 L0,3 Z " fill="#A3CAF4" transform="translate(509,553)"/>
<path d="M0,0 L4,0 L4,4 L2,4 L2,2 L0,2 Z " fill="#B0DAFE" transform="translate(499,549)"/>
<path d="M0,0 L4,0 L4,3 L0,3 Z " fill="#A1CAF6" transform="translate(480,509)"/>
<path d="M0,0 L2,0 L1,3 L-3,4 L-3,2 Z M-4,4 Z " fill="#BBDCF9" transform="translate(665,484)"/>
<path d="M0,0 L4,0 L3,4 L0,2 Z " fill="#C2E0F5" transform="translate(620,395)"/>
<path d="M0,0 L3,0 L3,4 L0,4 Z " fill="#BAD9F8" transform="translate(600,374)"/>
<path d="M0,0 L4,1 L4,4 L1,4 Z " fill="#C9E2F7" transform="translate(373,373)"/>
<path d="M0,0 L2,0 L3,3 L1,4 L-2,3 L-2,1 Z " fill="#CDE7F8" transform="translate(583,316)"/>
<path d="M0,0 L2,0 L0,5 L-2,5 L-2,2 L0,2 Z " fill="#D7E2F0" transform="translate(355,311)"/>
<path d="M0,0 L3,1 L1,5 L-1,1 Z " fill="#DBE7F6" transform="translate(362,298)"/>
<path d="M0,0 L1,3 L0,5 L-3,5 L-1,1 Z " fill="#0F1011" transform="translate(360,295)"/>
<path d="M0,0 L4,1 L4,3 L2,3 L1,5 Z " fill="#D1E4F3" transform="translate(371,270)"/>
<path d="M0,0 L2,0 L1,6 L-1,2 Z " fill="#C7E7F8" transform="translate(371,429)"/>
<path d="M0,0 L4,1 L3,3 L0,3 Z " fill="#08090A" transform="translate(427,505)"/>
<path d="M0,0 L4,4 L-1,3 Z " fill="#B6D5F4" transform="translate(386,396)"/>
<path d="M0,0 L4,1 L3,3 L0,3 Z " fill="#BADAF8" transform="translate(613,360)"/>
<path d="M0,0 L3,1 L2,4 L0,4 Z " fill="#D3EAFB" transform="translate(626,318)"/>
<path d="M0,0 L4,1 L1,5 Z " fill="#DDF2FC" transform="translate(511,284)"/>
<path d="M0,0 L3,1 L2,3 L-1,3 Z " fill="#030405" transform="translate(600,617)"/>
<path d="M0,0 L2,0 L1,4 L-1,4 Z " fill="#D2ECF9" transform="translate(362,513)"/>
<path d="M0,0 L3,3 L-1,3 Z " fill="#CBE9F3" transform="translate(319,443)"/>
<path d="M0,0 L2,0 L1,4 L-1,4 Z " fill="#BBDFFA" transform="translate(400,411)"/>
<path d="M0,0 L4,1 L4,3 L0,2 Z " fill="#D8EEFA" transform="translate(379,265)"/>
<path d="M0,0 L2,0 L2,3 L-1,3 Z " fill="#BED9F4" transform="translate(380,527)"/>
<path d="M0,0 L2,1 L1,4 L-1,1 Z " fill="#001237" transform="translate(744,683)"/>
</svg>
