<?xml version="1.0" encoding="UTF-8"?>
<!-- Generator: visioncortex VTracer 0.6.4 -->
<svg version="1.1" xmlns="http://www.w3.org/2000/svg" width="1024" height="1024">
<path d="M0,0 L1024,0 L1024,1024 L0,1024 Z " fill="#000000" transform="translate(0,0)"/>
<path d="M0,0 L4,0 L4,2 L12,2 L12,4 L16,4 L16,6 L20,6 L20,10 L22,10 L22,12 L26,12 L26,16 L28,16 L30,19 L34,20 L34,22 L36,22 L36,26 L40,26 L44,31 L46,32 L46,36 L48,36 L48,40 L50,40 L50,48 L52,48 L52,100 L50,100 L50,102 L52,102 L52,106 L50,106 L50,124 L48,124 L48,138 L46,138 L46,156 L44,156 L44,174 L42,174 L42,186 L40,186 L40,206 L38,206 L38,242 L40,242 L40,254 L42,254 L42,260 L44,260 L44,276 L46,276 L46,280 L48,280 L48,288 L50,288 L50,302 L52,302 L52,304 L50,304 L50,328 L48,328 L48,332 L50,332 L50,334 L48,334 L48,340 L46,340 L46,344 L40,344 L40,346 L35,350 L34,352 L32,352 L32,358 L30,358 L30,368 L28,368 L28,372 L30,372 L30,380 L28,380 L28,386 L26,386 L26,390 L24,390 L24,392 L22,392 L22,394 L20,394 L20,398 L16,398 L16,400 L14,400 L14,402 L12,402 L12,406 L8,406 L8,408 L6,408 L6,410 L4,410 L4,412 L-2,412 L-2,414 L-4,414 L-4,416 L-6,416 L-6,418 L-10,418 L-10,420 L-14,424 L-18,424 L-18,426 L-22,426 L-22,428 L-34,428 L-34,430 L-40,430 L-40,432 L-106,432 L-106,430 L-108,430 L-108,432 L-112,432 L-112,430 L-154,430 L-154,428 L-168,428 L-168,426 L-174,426 L-174,428 L-178,428 L-178,426 L-196,426 L-196,424 L-210,424 L-210,422 L-215,421 L-216,418 L-224,418 L-224,416 L-232,416 L-234,412 L-238,412 L-238,410 L-250,410 L-250,408 L-262,408 L-262,406 L-266,406 L-266,404 L-272,404 L-276,400 L-276,386 L-278,386 L-278,382 L-280,382 L-280,376 L-276,376 L-276,370 L-278,370 L-278,366 L-280,366 L-281,356 L-284,354 L-284,350 L-286,350 L-286,346 L-288,346 L-288,344 L-292,344 L-292,342 L-296,342 L-296,340 L-300,340 L-300,336 L-304,334 L-308,330 L-308,328 L-313,327 L-314,324 L-320,324 L-326,317 L-328,316 L-329,308 L-332,306 L-330,302 L-328,302 L-328,300 L-326,300 L-326,294 L-322,294 L-322,292 L-326,292 L-325,287 L-322,286 L-322,284 L-316,284 L-316,282 L-314,282 L-314,280 L-310,280 L-308,276 L-304,272 L-302,272 L-302,270 L-300,270 L-300,266 L-298,266 L-298,264 L-294,264 L-294,262 L-292,262 L-292,260 L-288,260 L-288,256 L-284,256 L-284,254 L-282,254 L-282,252 L-274,252 L-274,250 L-264,250 L-264,248 L-262,248 L-262,244 L-260,244 L-260,242 L-258,242 L-258,238 L-256,238 L-256,236 L-254,236 L-254,232 L-250,232 L-250,230 L-246,230 L-244,226 L-242,226 L-242,224 L-240,224 L-240,220 L-238,220 L-238,218 L-236,218 L-236,214 L-234,214 L-234,212 L-236,212 L-236,210 L-228,210 L-228,208 L-224,208 L-224,206 L-220,206 L-220,202 L-218,202 L-216,198 L-212,196 L-212,194 L-210,194 L-210,190 L-206,190 L-206,188 L-200,188 L-200,186 L-194,186 L-194,184 L-190,184 L-190,182 L-186,182 L-186,180 L-184,180 L-184,178 L-176,178 L-176,174 L-174,174 L-174,172 L-172,172 L-172,168 L-170,168 L-170,166 L-168,166 L-168,162 L-166,162 L-166,160 L-164,160 L-164,156 L-162,156 L-162,150 L-160,150 L-160,144 L-158,144 L-158,142 L-154,142 L-154,140 L-152,140 L-152,136 L-150,136 L-150,130 L-148,130 L-148,124 L-146,124 L-145,119 L-136,110 L-134,110 L-134,108 L-132,108 L-132,104 L-130,104 L-130,100 L-128,100 L-128,98 L-126,98 L-126,94 L-124,94 L-124,80 L-122,80 L-122,74 L-120,74 L-120,70 L-118,70 L-118,64 L-116,64 L-116,62 L-114,62 L-114,58 L-112,58 L-112,56 L-108,56 L-108,54 L-106,54 L-106,52 L-104,52 L-104,50 L-100,50 L-100,48 L-96,48 L-96,46 L-90,46 L-90,44 L-84,44 L-82,40 L-78,38 L-78,36 L-72,36 L-72,34 L-68,34 L-68,32 L-64,32 L-64,30 L-62,30 L-62,28 L-60,28 L-58,24 L-56,24 L-56,22 L-52,22 L-52,20 L-50,20 L-50,18 L-46,18 L-46,16 L-40,16 L-40,14 L-38,14 L-38,12 L-36,12 L-36,10 L-34,10 L-34,8 L-28,8 L-28,10 L-26,10 L-26,8 L-14,8 L-14,6 L-6,6 L-6,4 L-2,4 Z " fill="#A88EA8" transform="translate(716,316)"/>
<path d="M0,0 L4,0 L4,2 L12,2 L12,4 L16,4 L16,6 L20,6 L20,10 L22,10 L22,12 L26,12 L26,16 L28,16 L30,19 L34,20 L34,22 L36,22 L36,26 L40,26 L44,31 L46,32 L46,36 L48,36 L48,40 L50,40 L50,48 L52,48 L52,100 L50,100 L50,102 L52,102 L52,106 L50,106 L50,124 L48,124 L48,138 L46,138 L46,156 L44,156 L44,174 L42,174 L42,186 L40,186 L40,206 L38,206 L38,242 L40,242 L40,254 L42,254 L42,260 L44,260 L44,276 L46,276 L46,280 L48,280 L48,288 L50,288 L50,302 L52,302 L52,304 L50,304 L50,328 L48,328 L48,332 L50,332 L50,334 L48,334 L48,340 L46,340 L46,344 L40,344 L40,346 L35,350 L34,352 L32,352 L32,358 L30,358 L30,368 L28,368 L28,372 L30,372 L30,380 L28,380 L28,386 L26,386 L26,390 L24,390 L24,392 L22,392 L22,394 L20,394 L20,398 L16,398 L16,400 L14,400 L14,402 L12,402 L12,406 L8,406 L8,408 L6,408 L6,410 L4,410 L4,412 L-2,412 L-2,414 L-4,414 L-4,416 L-6,416 L-6,418 L-10,418 L-10,420 L-14,424 L-18,424 L-18,426 L-22,426 L-22,428 L-34,428 L-34,430 L-40,430 L-40,432 L-106,432 L-106,430 L-108,430 L-108,432 L-112,432 L-112,430 L-154,430 L-154,428 L-168,428 L-168,426 L-174,426 L-174,428 L-178,428 L-178,426 L-196,426 L-196,424 L-210,424 L-210,422 L-215,421 L-216,418 L-224,418 L-224,416 L-232,416 L-234,412 L-238,412 L-238,410 L-250,410 L-250,408 L-262,408 L-262,406 L-266,406 L-266,404 L-272,404 L-276,400 L-276,386 L-278,386 L-278,382 L-280,382 L-280,376 L-276,376 L-276,370 L-278,370 L-278,366 L-280,366 L-281,356 L-284,354 L-284,350 L-286,350 L-286,346 L-288,346 L-288,344 L-292,344 L-292,342 L-296,342 L-296,340 L-300,340 L-300,336 L-304,334 L-308,330 L-308,328 L-313,327 L-314,324 L-320,324 L-326,317 L-328,316 L-329,308 L-332,306 L-330,302 L-328,302 L-328,300 L-326,300 L-326,294 L-322,294 L-322,292 L-326,292 L-325,287 L-322,286 L-322,284 L-316,284 L-316,282 L-314,282 L-314,280 L-310,280 L-308,276 L-304,272 L-302,272 L-302,270 L-300,270 L-300,266 L-298,266 L-298,264 L-294,264 L-294,262 L-292,262 L-292,260 L-288,260 L-288,256 L-284,256 L-284,254 L-282,254 L-282,252 L-274,252 L-274,250 L-264,250 L-264,248 L-262,248 L-262,244 L-260,244 L-260,242 L-258,242 L-258,238 L-256,238 L-256,236 L-254,236 L-254,232 L-250,232 L-250,230 L-246,230 L-244,226 L-242,226 L-242,224 L-240,224 L-240,220 L-238,220 L-238,218 L-236,218 L-236,214 L-234,214 L-234,212 L-236,212 L-236,210 L-228,210 L-228,208 L-224,208 L-224,206 L-220,206 L-220,202 L-218,202 L-216,198 L-212,196 L-212,194 L-210,194 L-210,190 L-206,190 L-206,188 L-200,188 L-200,186 L-194,186 L-194,184 L-190,184 L-190,182 L-186,182 L-186,180 L-184,180 L-184,178 L-176,178 L-176,174 L-174,174 L-174,172 L-172,172 L-172,168 L-170,168 L-170,166 L-168,166 L-168,162 L-166,162 L-166,160 L-164,160 L-164,156 L-162,156 L-162,150 L-160,150 L-160,144 L-158,144 L-158,142 L-154,142 L-154,140 L-152,140 L-152,136 L-150,136 L-150,130 L-148,130 L-148,124 L-146,124 L-145,119 L-136,110 L-134,110 L-134,108 L-132,108 L-132,104 L-130,104 L-130,100 L-128,100 L-128,98 L-126,98 L-126,94 L-124,94 L-124,80 L-122,80 L-122,74 L-120,74 L-120,70 L-118,70 L-118,64 L-116,64 L-116,62 L-114,62 L-114,58 L-112,58 L-112,56 L-108,56 L-108,54 L-106,54 L-106,52 L-104,52 L-104,50 L-100,50 L-100,48 L-96,48 L-96,46 L-90,46 L-90,44 L-84,44 L-82,40 L-78,38 L-78,36 L-72,36 L-72,34 L-68,34 L-68,32 L-64,32 L-64,30 L-62,30 L-62,28 L-60,28 L-58,24 L-56,24 L-56,22 L-52,22 L-52,20 L-50,20 L-50,18 L-46,18 L-46,16 L-40,16 L-40,14 L-38,14 L-38,12 L-36,12 L-36,10 L-34,10 L-34,8 L-28,8 L-28,10 L-26,10 L-26,8 L-14,8 L-14,6 L-6,6 L-6,4 L-2,4 Z M-24,26 L-28,27 L-29,31 L-32,30 L-34,31 L-43,31 L-44,34 L-52,33 L-58,38 L-58,42 L-60,44 L-60,48 L-67,48 L-68,51 L-72,52 L-76,53 L-81,54 L-86,55 L-91,55 L-95,61 L-101,63 L-107,71 L-113,76 L-113,78 L-117,80 L-118,81 L-119,92 L-120,94 L-118,95 L-123,100 L-123,106 L-127,110 L-131,112 L-134,115 L-134,118 L-138,119 L-143,126 L-144,133 L-144,137 L-145,144 L-142,145 L-144,148 L-147,149 L-147,161 L-145,161 L-144,163 L-143,164 L-144,168 L-145,172 L-148,176 L-148,191 L-145,190 L-145,188 L-143,190 L-143,192 L-146,193 L-147,197 L-150,193 L-152,197 L-154,209 L-156,206 L-161,207 L-166,208 L-166,210 L-169,210 L-168,206 L-166,196 L-164,196 L-164,194 L-160,192 L-161,188 L-166,187 L-166,183 L-161,182 L-160,178 L-160,171 L-162,165 L-167,170 L-169,178 L-172,185 L-179,185 L-180,183 L-186,185 L-193,191 L-196,193 L-196,202 L-193,203 L-196,207 L-201,207 L-206,211 L-211,211 L-213,215 L-214,210 L-219,212 L-218,209 L-227,212 L-232,217 L-232,220 L-230,221 L-229,225 L-228,227 L-221,227 L-218,224 L-214,223 L-214,218 L-213,222 L-208,223 L-213,225 L-213,227 L-208,229 L-208,233 L-212,235 L-213,239 L-218,241 L-225,242 L-226,240 L-231,240 L-233,243 L-236,243 L-242,247 L-247,252 L-244,253 L-242,252 L-242,250 L-236,248 L-231,247 L-231,250 L-231,251 L-226,252 L-231,255 L-235,260 L-236,270 L-242,271 L-246,274 L-251,276 L-252,280 L-256,281 L-256,275 L-259,277 L-257,273 L-258,270 L-263,276 L-268,275 L-266,275 L-266,272 L-262,272 L-262,268 L-260,268 L-258,263 L-256,258 L-260,258 L-260,254 L-258,254 L-258,252 L-261,251 L-266,254 L-274,255 L-276,257 L-282,257 L-284,258 L-284,260 L-287,261 L-289,264 L-294,267 L-303,278 L-312,284 L-316,287 L-321,289 L-321,291 L-319,293 L-325,303 L-327,307 L-324,308 L-324,314 L-322,317 L-320,317 L-320,319 L-313,322 L-310,324 L-307,324 L-306,327 L-304,327 L-304,329 L-302,329 L-302,331 L-298,335 L-296,335 L-296,338 L-291,340 L-288,340 L-288,342 L-284,343 L-284,345 L-282,345 L-281,349 L-276,359 L-276,366 L-273,369 L-272,377 L-275,378 L-274,383 L-272,389 L-272,397 L-270,400 L-262,403 L-262,404 L-250,405 L-244,406 L-242,406 L-235,407 L-231,409 L-230,412 L-223,412 L-223,414 L-215,414 L-214,417 L-208,420 L-203,419 L-200,418 L-200,420 L-195,420 L-195,422 L-175,423 L-171,422 L-167,418 L-168,423 L-164,424 L-164,421 L-160,420 L-160,424 L-156,424 L-156,421 L-152,422 L-151,424 L-148,423 L-128,423 L-124,424 L-125,420 L-116,420 L-115,417 L-116,412 L-118,411 L-124,411 L-124,409 L-133,409 L-133,407 L-120,407 L-115,406 L-112,405 L-112,407 L-108,406 L-82,405 L-81,404 L-80,406 L-68,406 L-62,408 L-58,409 L-34,409 L-28,408 L-28,405 L-21,405 L-16,402 L-16,400 L-12,398 L-11,395 L-8,395 L-8,387 L-2,384 L2,382 L3,375 L5,369 L5,360 L4,359 L6,347 L11,336 L13,330 L19,325 L24,321 L25,319 L28,318 L30,308 L32,292 L32,267 L31,262 L29,262 L28,244 L27,242 L26,220 L26,208 L27,204 L30,148 L32,128 L33,110 L34,108 L34,85 L33,84 L32,73 L32,66 L33,68 L46,68 L47,67 L47,49 L46,42 L44,39 L42,39 L41,34 L40,36 L36,36 L36,34 L34,34 L33,30 L29,27 L27,28 L28,31 L20,29 L9,29 L9,31 L7,31 L7,29 L2,30 L-5,30 L-5,29 L-13,29 L-16,32 L-19,31 L-20,26 Z M-42,30 Z M-180,182 Z M-233,220 Z M-214,227 Z M-279,256 Z M-257,269 Z M-256,274 Z M-282,349 Z M-279,355 Z M-116,411 Z M-124,421 Z M-169,188 L-167,189 L-170,191 Z M-150,195 Z M-230,246 Z M-10,388 Z " fill="#7C6479" transform="translate(716,316)"/>
<path d="M0,0 L1,4 L-1,4 L-1,22 L-3,22 L-3,36 L-5,36 L-5,54 L-7,54 L-7,72 L-9,72 L-9,84 L-11,84 L-11,104 L-13,104 L-13,140 L-11,140 L-11,152 L-9,152 L-9,158 L-7,158 L-7,174 L-5,174 L-5,178 L-3,178 L-3,186 L-1,186 L-1,200 L1,200 L1,202 L-1,202 L-1,226 L-3,226 L-3,230 L-1,230 L-1,232 L-3,232 L-3,238 L-5,238 L-5,242 L-11,242 L-11,244 L-16,248 L-17,250 L-19,250 L-19,256 L-21,256 L-21,266 L-23,266 L-23,270 L-21,270 L-21,278 L-23,278 L-23,284 L-25,284 L-25,288 L-27,288 L-27,290 L-29,290 L-29,292 L-31,292 L-31,296 L-35,296 L-35,298 L-37,298 L-37,300 L-39,300 L-39,304 L-43,304 L-43,306 L-45,306 L-45,308 L-47,308 L-47,310 L-53,310 L-53,312 L-55,312 L-55,314 L-57,314 L-57,316 L-61,316 L-61,318 L-65,322 L-69,322 L-69,324 L-73,324 L-73,326 L-85,326 L-85,328 L-91,328 L-91,330 L-157,330 L-157,328 L-159,328 L-159,330 L-163,330 L-163,328 L-205,328 L-205,326 L-219,326 L-219,324 L-225,324 L-225,326 L-229,326 L-229,324 L-247,324 L-247,322 L-261,322 L-261,320 L-266,319 L-267,316 L-275,316 L-275,314 L-283,314 L-285,310 L-289,310 L-289,308 L-301,308 L-301,306 L-313,306 L-313,304 L-317,304 L-317,302 L-323,302 L-327,298 L-327,284 L-329,284 L-329,280 L-331,280 L-331,274 L-327,274 L-327,268 L-329,268 L-329,264 L-331,264 L-332,254 L-335,252 L-335,248 L-337,248 L-337,244 L-339,244 L-339,242 L-343,242 L-343,240 L-347,240 L-347,238 L-351,238 L-351,234 L-355,232 L-359,228 L-359,226 L-364,225 L-365,222 L-371,222 L-377,215 L-379,214 L-380,206 L-383,204 L-381,200 L-379,200 L-379,198 L-377,198 L-377,192 L-373,192 L-373,190 L-377,190 L-376,185 L-373,184 L-373,182 L-367,182 L-367,180 L-365,180 L-365,178 L-361,178 L-359,174 L-355,170 L-353,170 L-353,168 L-351,168 L-351,164 L-349,164 L-349,162 L-345,162 L-345,160 L-343,160 L-343,158 L-339,158 L-339,154 L-335,154 L-335,152 L-333,152 L-333,150 L-325,150 L-325,148 L-315,148 L-315,146 L-313,146 L-313,142 L-311,142 L-311,140 L-309,140 L-309,136 L-307,136 L-307,134 L-305,134 L-305,130 L-301,130 L-301,128 L-297,128 L-295,124 L-293,124 L-293,122 L-291,123 L-292,125 L-290,125 L-292,129 L-297,130 L-300,129 L-300,131 L-298,132 L-302,134 L-302,131 L-304,131 L-303,134 L-303,141 L-308,145 L-310,145 L-310,143 L-312,143 L-311,149 L-317,154 L-317,152 L-322,154 L-326,155 L-330,156 L-335,156 L-335,158 L-340,163 L-344,165 L-353,176 L-356,179 L-365,184 L-367,186 L-371,187 L-372,189 L-369,190 L-369,193 L-372,196 L-376,202 L-377,205 L-375,206 L-373,215 L-371,215 L-371,217 L-364,219 L-358,222 L-355,225 L-355,227 L-353,227 L-353,229 L-349,231 L-349,233 L-347,233 L-347,236 L-342,237 L-339,238 L-339,240 L-335,241 L-335,243 L-333,243 L-328,253 L-326,257 L-326,263 L-323,267 L-323,275 L-325,276 L-324,281 L-322,287 L-322,295 L-321,297 L-312,300 L-312,301 L-301,302 L-295,303 L-293,302 L-293,304 L-285,304 L-284,306 L-280,307 L-281,310 L-274,310 L-274,312 L-266,312 L-265,314 L-259,317 L-251,316 L-251,318 L-246,318 L-246,320 L-222,320 L-220,316 L-218,316 L-219,321 L-215,320 L-216,318 L-211,318 L-211,322 L-207,322 L-207,319 L-202,321 L-199,320 L-179,320 L-175,322 L-176,318 L-159,319 L-153,320 L-153,318 L-147,319 L-145,318 L-141,319 L-137,318 L-128,318 L-127,316 L-115,319 L-115,322 L-105,321 L-95,323 L-94,320 L-83,317 L-74,312 L-66,308 L-64,306 L-59,306 L-59,304 L-51,302 L-50,299 L-45,296 L-42,291 L-38,286 L-37,282 L-36,282 L-35,277 L-37,277 L-36,273 L-34,270 L-30,270 L-31,263 L-29,263 L-29,261 L-26,260 L-26,258 L-30,259 L-29,256 L-27,256 L-27,247 L-23,246 L-22,240 L-21,239 L-20,231 L-19,230 L-16,207 L-14,201 L-13,197 L-13,175 L-14,153 L-13,152 L-12,141 L-14,141 L-14,152 L-16,152 L-18,141 L-18,116 L-16,84 L-15,83 L-14,62 L-12,43 L-11,39 L-9,39 L-8,18 L-5,2 L-2,1 L-2,3 L0,3 Z M-330,154 Z M-333,247 Z M-330,253 Z M-175,319 Z " fill="#7A627E" transform="translate(767,418)"/>
<path d="M0,0 L2,0 L4,16 L5,17 L5,41 L4,42 L2,72 L0,94 L-2,136 L-3,140 L-3,152 L-2,174 L-1,176 L0,194 L2,194 L3,199 L3,224 L0,248 L-1,250 L-4,251 L-9,257 L-13,259 L-17,263 L-20,272 L-24,282 L-25,292 L-24,294 L-24,301 L-26,307 L-27,314 L-32,317 L-37,319 L-37,327 L-40,327 L-42,331 L-45,332 L-46,335 L-50,337 L-57,337 L-57,340 L-63,341 L-87,341 L-96,339 L-97,338 L-105,338 L-104,332 L-97,330 L-97,333 L-91,333 L-91,330 L-89,329 L-93,327 L-91,323 L-81,324 L-73,324 L-72,319 L-68,317 L-64,318 L-64,321 L-58,319 L-53,316 L-46,316 L-48,299 L-44,289 L-41,284 L-41,281 L-44,283 L-43,278 L-37,273 L-36,274 L-31,269 L-26,264 L-25,260 L-24,253 L-21,253 L-19,246 L-17,246 L-15,240 L-13,238 L-11,232 L-9,230 L-6,230 L-6,201 L-9,200 L-9,192 L-13,191 L-14,180 L-15,180 L-16,172 L-18,172 L-18,166 L-22,159 L-22,131 L-20,116 L-22,115 L-20,107 L-19,106 L-20,93 L-17,90 L-15,90 L-15,92 L-11,93 L-12,95 L-12,108 L-10,109 L-9,98 L-5,88 L-4,84 L-2,84 L-2,65 L-1,64 L0,53 L0,49 L-2,60 L-4,60 L-5,54 L-5,38 L-3,38 L-2,21 L-2,15 L-1,14 Z M-39,320 Z M-5,60 Z M-7,225 Z M-8,226 Z M-9,227 Z M-49,300 Z " fill="#9F85A0" transform="translate(745,384)"/>
<path d="M0,0 L2,1 L2,13 L11,13 L12,18 L13,35 L12,63 L9,70 L5,105 L4,123 L3,129 L2,151 L2,193 L5,204 L6,229 L6,253 L4,259 L2,277 L1,278 L0,286 L-3,293 L-7,294 L-7,303 L-9,305 L-5,304 L-6,308 L-9,308 L-10,317 L-14,318 L-17,324 L-15,324 L-15,330 L-17,331 L-19,335 L-20,338 L-23,340 L-26,345 L-30,347 L-34,351 L-39,351 L-39,353 L-45,355 L-49,358 L-54,360 L-65,366 L-74,368 L-75,370 L-87,369 L-95,369 L-95,366 L-104,365 L-107,363 L-108,366 L-120,366 L-122,367 L-126,366 L-129,366 L-133,365 L-133,367 L-144,367 L-153,366 L-150,365 L-149,363 L-149,365 L-147,365 L-147,357 L-155,356 L-155,354 L-164,354 L-164,352 L-151,351 L-149,350 L-149,352 L-146,350 L-143,350 L-143,352 L-139,350 L-113,349 L-111,348 L-111,351 L-106,350 L-99,350 L-93,352 L-89,353 L-59,353 L-59,350 L-52,349 L-48,347 L-42,340 L-39,340 L-40,332 L-38,330 L-33,328 L-30,327 L-29,320 L-27,314 L-27,306 L-28,304 L-26,292 L-21,281 L-19,275 L-9,266 L-7,266 L-6,263 L-3,263 L0,237 L0,207 L-2,207 L-3,203 L-4,189 L-5,187 L-6,165 L-6,153 L-5,149 L-2,93 L0,73 L1,55 L2,53 L2,30 L1,29 L0,18 Z M-147,356 Z M-41,333 Z " fill="#8A7288" transform="translate(747,371)"/>
<path d="M0,0 L4,0 L4,2 L12,2 L12,4 L16,4 L16,6 L20,6 L20,10 L22,10 L22,12 L26,12 L26,16 L28,16 L30,19 L34,20 L34,22 L36,22 L36,26 L40,26 L44,31 L46,32 L46,36 L48,36 L48,40 L50,40 L50,48 L52,48 L52,100 L50,100 L51,105 L47,105 L44,120 L43,137 L42,141 L40,141 L38,164 L37,185 L36,186 L34,218 L34,243 L35,254 L37,254 L37,243 L39,243 L39,254 L38,255 L39,277 L39,299 L37,303 L35,259 L32,248 L32,206 L33,184 L34,178 L36,152 L39,125 L42,118 L43,87 L42,68 L46,67 L46,49 L45,42 L44,39 L42,39 L41,35 L36,36 L36,34 L34,34 L32,30 L28,28 L28,31 L9,29 L9,31 L7,31 L7,29 L2,31 L-6,31 L-9,27 L-7,24 L-9,26 L-12,25 L-12,24 L-19,25 L-19,23 L-26,25 L-34,25 L-34,27 L-44,27 L-44,25 L-48,25 L-48,27 L-55,30 L-56,32 L-58,32 L-59,35 L-64,34 L-67,33 L-67,35 L-65,36 L-68,37 L-68,35 L-71,35 L-70,40 L-72,42 L-79,44 L-81,45 L-81,43 L-83,43 L-82,46 L-90,45 L-90,44 L-84,44 L-82,40 L-78,38 L-78,36 L-72,36 L-72,34 L-68,34 L-68,32 L-64,32 L-64,30 L-62,30 L-62,28 L-60,28 L-58,24 L-56,24 L-56,22 L-52,22 L-52,20 L-50,20 L-50,18 L-46,18 L-46,16 L-40,16 L-40,14 L-38,14 L-38,12 L-36,12 L-36,10 L-34,10 L-34,8 L-28,8 L-28,10 L-26,10 L-26,8 L-14,8 L-14,6 L-6,6 L-6,4 L-2,4 Z " fill="#7F6E7C" transform="translate(716,316)"/>
<path d="M0,0 L1,0 L3,34 L4,36 L5,54 L7,54 L8,59 L8,84 L5,108 L4,110 L1,111 L-4,117 L-8,119 L-12,123 L-15,132 L-19,142 L-20,152 L-19,154 L-19,161 L-21,167 L-22,174 L-27,177 L-32,179 L-32,187 L-35,187 L-37,191 L-40,192 L-41,195 L-45,197 L-52,197 L-52,200 L-58,201 L-82,201 L-91,199 L-92,198 L-100,198 L-99,192 L-92,190 L-92,193 L-84,192 L-82,193 L-82,195 L-76,195 L-74,196 L-66,196 L-65,195 L-60,195 L-60,193 L-53,192 L-51,190 L-48,190 L-46,185 L-44,185 L-44,182 L-42,181 L-39,173 L-38,172 L-37,158 L-35,158 L-35,156 L-32,156 L-31,144 L-29,138 L-24,133 L-19,130 L-16,128 L-13,117 L-9,116 L-8,112 L-4,111 L-3,101 L0,100 L0,47 L-4,30 L-5,25 L-5,12 L-3,11 L-1,1 Z M-34,180 Z " fill="#967C99" transform="translate(740,524)"/>
<path d="M0,0 L2,1 L1,3 L3,3 L1,7 L-4,8 L-7,7 L-7,9 L-5,10 L-9,12 L-9,9 L-11,9 L-10,12 L-10,19 L-15,23 L-17,23 L-17,21 L-19,21 L-18,27 L-24,32 L-24,30 L-29,32 L-33,33 L-37,34 L-42,34 L-42,36 L-47,41 L-51,43 L-60,54 L-63,57 L-72,62 L-74,64 L-78,65 L-79,67 L-76,68 L-76,71 L-79,74 L-83,80 L-84,83 L-82,84 L-80,93 L-78,93 L-78,95 L-71,97 L-65,100 L-62,103 L-62,105 L-60,105 L-60,107 L-56,109 L-56,111 L-54,111 L-54,114 L-49,115 L-46,116 L-46,118 L-42,119 L-42,121 L-40,121 L-35,131 L-33,135 L-33,141 L-30,145 L-30,153 L-32,154 L-31,159 L-29,165 L-29,173 L-28,175 L-19,178 L-19,179 L-8,180 L-2,181 L0,180 L0,182 L8,182 L9,184 L13,185 L12,188 L19,188 L19,190 L27,190 L28,192 L34,195 L42,194 L42,196 L47,196 L47,198 L71,198 L73,194 L75,194 L74,199 L78,198 L77,196 L82,196 L82,200 L88,200 L90,201 L128,201 L131,202 L131,204 L133,205 L131,205 L131,207 L134,208 L130,208 L130,206 L88,206 L88,204 L74,204 L74,202 L68,202 L68,204 L64,204 L64,202 L46,202 L46,200 L32,200 L32,198 L27,197 L26,194 L18,194 L18,192 L10,192 L8,188 L4,188 L4,186 L-8,186 L-8,184 L-20,184 L-20,182 L-24,182 L-24,180 L-30,180 L-34,176 L-34,162 L-36,162 L-36,158 L-38,158 L-38,152 L-34,152 L-34,146 L-36,146 L-36,142 L-38,142 L-39,132 L-42,130 L-42,126 L-44,126 L-44,122 L-46,122 L-46,120 L-50,120 L-50,118 L-54,118 L-54,116 L-58,116 L-58,112 L-62,110 L-66,106 L-66,104 L-71,103 L-72,100 L-78,100 L-84,93 L-86,92 L-87,84 L-90,82 L-88,78 L-86,78 L-86,76 L-84,76 L-84,70 L-80,70 L-80,68 L-84,68 L-83,63 L-80,62 L-80,60 L-74,60 L-74,58 L-72,58 L-72,56 L-68,56 L-66,52 L-62,48 L-60,48 L-60,46 L-58,46 L-58,42 L-56,42 L-56,40 L-52,40 L-52,38 L-50,38 L-50,36 L-46,36 L-46,32 L-42,32 L-42,30 L-40,30 L-40,28 L-32,28 L-32,26 L-22,26 L-22,24 L-20,24 L-20,20 L-18,20 L-18,18 L-16,18 L-16,14 L-14,14 L-14,12 L-12,12 L-12,8 L-8,8 L-8,6 L-4,6 L-2,2 L0,2 Z M-37,32 Z M-40,125 Z M-37,131 Z " fill="#70596D" transform="translate(474,540)"/>
<path d="M0,0 L1,0 L0,16 L-1,17 L-2,25 L-5,32 L-9,33 L-9,42 L-11,44 L-7,43 L-8,47 L-11,47 L-12,56 L-16,57 L-19,63 L-17,63 L-17,69 L-19,70 L-21,74 L-22,77 L-25,79 L-28,84 L-32,86 L-36,90 L-41,90 L-41,92 L-47,94 L-51,97 L-56,99 L-67,105 L-76,107 L-77,109 L-89,108 L-97,108 L-97,105 L-106,104 L-109,102 L-110,105 L-122,105 L-124,106 L-128,105 L-131,105 L-135,104 L-135,106 L-146,106 L-155,105 L-152,104 L-151,102 L-151,104 L-149,104 L-149,100 L-141,99 L-140,98 L-125,97 L-124,93 L-121,93 L-120,95 L-117,96 L-109,96 L-108,95 L-101,95 L-98,94 L-98,96 L-87,98 L-87,96 L-73,96 L-67,95 L-61,95 L-54,92 L-49,91 L-49,89 L-47,87 L-46,84 L-39,83 L-39,79 L-37,79 L-37,77 L-31,76 L-29,77 L-28,70 L-26,64 L-24,64 L-24,54 L-24,51 L-24,41 L-21,38 L-14,24 L-8,22 L-7,20 L-5,20 L-4,12 L-1,6 Z " fill="#826A85" transform="translate(749,632)"/>
<path d="M0,0 L1,0 L1,5 L2,10 L0,10 L1,17 L-1,17 L-2,22 L-6,26 L-4,31 L-9,30 L-9,32 L-6,33 L-6,35 L-10,35 L-10,37 L-15,37 L-14,43 L-18,43 L-18,45 L-21,44 L-23,44 L-27,44 L-27,46 L-37,48 L-39,50 L-40,55 L-45,57 L-44,63 L-48,63 L-48,65 L-59,65 L-59,68 L-65,68 L-65,70 L-131,70 L-131,68 L-136,69 L-136,64 L-177,64 L-181,62 L-181,59 L-176,61 L-173,60 L-153,60 L-149,62 L-150,58 L-133,59 L-127,60 L-127,58 L-121,59 L-119,58 L-115,59 L-111,58 L-102,58 L-101,56 L-89,59 L-89,62 L-79,61 L-69,63 L-68,60 L-57,57 L-48,52 L-40,48 L-38,46 L-33,46 L-33,44 L-25,42 L-24,39 L-19,36 L-16,31 L-12,26 L-11,22 L-10,22 L-9,17 L-11,17 L-10,13 L-8,10 L-4,10 L-5,3 L-3,3 L-3,1 Z M-12,32 Z M-149,59 Z " fill="#7D657F" transform="translate(741,678)"/>
<path d="M0,0 L3,0 L1,6 L0,14 L-5,15 L-10,20 L-13,25 L-14,36 L-16,38 L-17,44 L-17,54 L-16,54 L-16,62 L-18,62 L-18,67 L-20,70 L-21,75 L-29,75 L-29,77 L-31,77 L-31,81 L-38,83 L-39,87 L-41,87 L-41,89 L-51,93 L-53,94 L-60,94 L-65,95 L-77,95 L-79,94 L-79,96 L-85,96 L-90,94 L-90,92 L-94,94 L-100,94 L-101,95 L-109,95 L-113,93 L-113,91 L-116,92 L-117,96 L-132,97 L-133,98 L-141,98 L-141,94 L-149,93 L-149,91 L-158,91 L-158,89 L-145,88 L-143,87 L-143,89 L-140,87 L-137,87 L-137,89 L-133,87 L-107,86 L-105,85 L-105,88 L-100,87 L-93,87 L-87,89 L-83,90 L-53,90 L-53,87 L-46,86 L-42,84 L-36,77 L-33,77 L-34,69 L-32,67 L-27,65 L-24,64 L-23,57 L-21,51 L-21,43 L-22,41 L-20,29 L-15,18 L-13,12 L-3,3 L-1,3 Z M-141,93 Z M-35,70 Z " fill="#8D7491" transform="translate(741,634)"/>
<path d="M0,0 L2,1 L1,4 L9,5 L9,6 L2,7 L1,9 L6,10 L7,12 L6,15 L2,19 L1,22 L-4,24 L-12,25 L-12,22 L-17,23 L-20,26 L-22,26 L-28,30 L-32,34 L-28,34 L-28,32 L-26,32 L-25,30 L-21,28 L-16,29 L-16,32 L-11,33 L-12,35 L-17,38 L-20,42 L-22,52 L-29,55 L-33,57 L-37,59 L-38,62 L-43,65 L-43,58 L-46,61 L-44,53 L-49,59 L-54,59 L-54,57 L-52,57 L-52,54 L-48,54 L-48,50 L-46,50 L-45,45 L-42,40 L-44,39 L-41,32 L-36,30 L-32,25 L-29,22 L-25,22 L-24,18 L-22,18 L-22,16 L-20,16 L-18,12 L-15,9 L-7,8 L-4,5 L0,5 Z M0,9 Z M-43,51 Z M-42,56 Z M-16,28 Z M-45,40 Z " fill="#897083" transform="translate(502,534)"/>
<path d="M0,0 L2,0 L3,8 L5,9 L4,12 L3,18 L6,20 L4,24 L1,24 L1,35 L3,36 L7,38 L4,41 L4,48 L1,49 L0,51 L-1,66 L2,63 L5,64 L4,67 L2,68 L0,73 L-3,69 L-5,76 L-6,84 L-8,85 L-9,82 L-19,83 L-19,85 L-23,86 L-22,81 L-19,71 L-17,71 L-17,69 L-14,67 L-14,64 L-20,63 L-19,58 L-15,57 L-14,53 L-14,43 L-12,36 L-9,31 L-8,28 L-6,27 L-5,22 L-4,18 L-6,18 L-6,16 L-4,15 L-4,11 L-2,11 L-2,6 L1,7 L2,5 L0,5 Z M-22,63 L-20,64 L-23,66 Z M-3,70 Z " fill="#886C82" transform="translate(569,441)"/>
<path d="M0,0 L1,3 L-3,9 L-6,21 L-8,23 L-10,28 L-15,33 L-18,36 L-21,53 L-24,53 L-24,55 L-26,55 L-26,69 L-29,74 L-31,79 L-33,79 L-33,82 L-35,82 L-37,87 L-42,90 L-49,90 L-49,92 L-55,94 L-63,94 L-71,92 L-71,90 L-75,89 L-75,87 L-73,86 L-77,84 L-75,80 L-65,81 L-57,81 L-56,76 L-52,74 L-48,75 L-48,78 L-42,76 L-37,73 L-30,73 L-32,56 L-28,46 L-25,41 L-25,38 L-28,40 L-27,35 L-21,30 L-20,31 L-15,26 L-10,21 L-9,17 L-8,10 L-5,10 L-3,3 L-1,3 Z M-33,57 Z " fill="#A286A5" transform="translate(729,627)"/>
<path d="M0,0 L5,3 L5,6 L11,6 L11,8 L16,8 L18,4 L25,3 L28,1 L33,2 L35,3 L35,5 L41,6 L41,8 L49,6 L50,7 L66,8 L61,14 L75,13 L89,13 L97,12 L101,11 L101,13 L99,13 L100,17 L98,21 L85,20 L63,20 L51,17 L33,16 L32,15 L21,14 L21,12 L5,10 L0,7 L1,3 L-1,4 L-7,4 L-7,2 L0,2 Z " fill="#B496B4" transform="translate(519,671)"/>
<path d="M0,0 L1,0 L1,13 L10,14 L15,16 L15,17 L26,18 L32,19 L34,18 L34,20 L42,20 L43,22 L47,23 L46,26 L53,26 L53,28 L61,28 L62,30 L68,33 L76,32 L76,34 L81,34 L81,36 L105,36 L107,32 L109,32 L108,37 L112,36 L111,34 L116,34 L116,38 L122,38 L124,39 L162,39 L165,40 L165,42 L167,43 L165,43 L165,45 L168,46 L164,46 L164,44 L122,44 L122,42 L108,42 L108,40 L102,40 L102,42 L98,42 L98,40 L80,40 L80,38 L66,38 L66,36 L61,35 L60,32 L52,32 L52,30 L44,30 L42,26 L38,26 L38,24 L26,24 L26,22 L14,22 L14,20 L10,20 L10,18 L4,18 L0,14 Z " fill="#654E67" transform="translate(440,702)"/>
<path d="M0,0 L2,0 L4,16 L5,17 L5,41 L4,42 L2,72 L0,94 L-2,136 L-4,140 L-4,136 L-9,137 L-11,125 L-10,124 L-7,97 L-7,92 L-4,84 L-2,84 L-2,65 L-1,64 L0,53 L0,49 L-2,60 L-4,60 L-5,54 L-5,38 L-3,38 L-2,21 L-2,15 L-1,14 Z M-5,60 Z " fill="#938092" transform="translate(745,384)"/>
<path d="M0,0 L2,0 L2,5 L10,5 L12,12 L23,13 L30,15 L33,20 L58,21 L60,24 L71,26 L71,28 L73,28 L73,30 L77,30 L77,32 L71,33 L71,30 L65,29 L60,28 L55,27 L55,29 L50,30 L31,30 L24,29 L22,30 L19,27 L18,24 L5,22 L5,18 L3,18 L2,13 L3,10 L1,10 L1,7 L-1,7 L-1,5 L-3,4 L0,4 Z " fill="#937894" transform="translate(489,674)"/>
<path d="M0,0 L3,0 L4,2 L7,3 L15,3 L16,2 L23,2 L26,1 L26,3 L37,5 L37,3 L51,3 L57,2 L63,2 L66,0 L70,1 L67,2 L67,4 L62,6 L57,10 L51,11 L31,11 L32,13 L31,15 L27,15 L27,12 L18,11 L15,9 L14,12 L2,12 L0,13 L-4,12 L-7,12 L-11,11 L-11,13 L-22,13 L-31,12 L-28,11 L-27,9 L-27,11 L-25,11 L-25,7 L-17,6 L-16,5 L-1,4 Z " fill="#886D89" transform="translate(625,725)"/>
<path d="M0,0 L2,1 L2,13 L6,13 L8,21 L7,22 L7,61 L4,65 L6,65 L6,73 L5,74 L5,81 L2,87 L0,121 L-1,147 L-1,207 L-3,203 L-4,189 L-5,187 L-6,165 L-6,153 L-5,149 L-2,93 L0,73 L1,55 L2,53 L2,30 L1,29 L0,18 Z " fill="#90788E" transform="translate(747,371)"/>
<path d="M0,0 L1,0 L1,49 L2,52 L4,52 L4,55 L0,55 L-3,70 L-4,87 L-5,91 L-7,91 L-9,114 L-10,135 L-11,136 L-13,168 L-13,193 L-12,204 L-10,204 L-10,193 L-8,193 L-8,204 L-9,205 L-8,227 L-8,249 L-10,253 L-12,209 L-15,198 L-15,156 L-14,134 L-13,128 L-11,102 L-8,75 L-5,68 L-4,37 L-5,18 L-1,17 L-1,7 Z " fill="#7F6D7E" transform="translate(763,366)"/>
<path d="M0,0 L1,4 L-1,4 L-1,22 L-3,22 L-3,36 L-5,36 L-5,54 L-7,54 L-7,72 L-9,72 L-9,84 L-11,84 L-11,104 L-14,104 L-14,140 L-16,140 L-17,96 L-16,84 L-15,83 L-14,62 L-12,43 L-11,39 L-9,39 L-8,18 L-5,2 L-2,1 L-2,3 L0,3 Z " fill="#7F677C" transform="translate(767,418)"/>
<path d="M0,0 L6,0 L6,1 L1,1 L1,3 L3,4 L-3,3 L-3,5 L0,6 L-4,7 L-4,5 L-7,5 L-7,7 L-5,7 L-5,9 L-9,13 L-7,14 L-9,19 L-15,29 L-20,34 L-21,35 L-22,46 L-23,47 L-21,49 L-26,54 L-26,60 L-30,65 L-34,66 L-37,69 L-38,72 L-43,75 L-46,80 L-47,83 L-49,83 L-49,79 L-51,79 L-51,84 L-49,84 L-50,89 L-51,85 L-53,85 L-53,90 L-54,90 L-54,84 L-52,84 L-52,78 L-50,78 L-49,73 L-40,64 L-38,64 L-38,62 L-36,62 L-36,58 L-34,58 L-34,54 L-32,54 L-32,52 L-30,52 L-30,48 L-28,48 L-28,34 L-26,34 L-26,28 L-24,28 L-24,24 L-22,24 L-22,18 L-20,18 L-20,16 L-18,16 L-18,12 L-16,12 L-16,10 L-12,10 L-12,8 L-10,8 L-10,6 L-8,6 L-8,4 L-4,4 L-4,2 L0,2 Z " fill="#7C6278" transform="translate(620,362)"/>
<path d="M0,0 L8,0 L8,1 L1,1 L1,3 L8,3 L8,4 L-5,7 L-4,11 L-10,11 L-10,13 L-14,13 L-10,14 L-9,18 L-12,19 L-20,19 L-20,21 L-30,21 L-30,19 L-34,19 L-34,21 L-41,24 L-42,26 L-44,26 L-45,29 L-50,28 L-53,27 L-53,29 L-51,30 L-54,31 L-54,29 L-57,29 L-56,34 L-58,36 L-65,38 L-67,39 L-67,37 L-69,37 L-68,40 L-76,39 L-76,38 L-70,38 L-68,34 L-64,32 L-64,30 L-58,30 L-58,28 L-54,28 L-54,26 L-50,26 L-50,24 L-48,24 L-48,22 L-46,22 L-44,18 L-42,18 L-42,16 L-38,16 L-38,14 L-36,14 L-36,12 L-32,12 L-32,10 L-26,10 L-26,8 L-24,8 L-24,6 L-22,6 L-22,4 L-20,4 L-20,2 L-14,2 L-14,4 L-12,4 L-12,2 L0,2 Z " fill="#7D6B7E" transform="translate(702,322)"/>
<path d="M0,0 L5,1 L5,4 L10,5 L9,7 L4,10 L1,14 L-1,24 L-8,27 L-12,29 L-16,31 L-17,34 L-22,37 L-22,30 L-25,33 L-23,25 L-28,31 L-33,31 L-33,29 L-31,29 L-31,26 L-27,26 L-27,22 L-23,23 L-21,16 L-18,13 L-17,11 L-13,11 L-11,7 L-7,6 L-7,4 L-5,4 L-4,2 Z M-22,23 Z M-21,28 Z M5,0 Z " fill="#947B90" transform="translate(481,562)"/>
<path d="M0,0 L1,4 L3,4 L3,6 L1,6 L1,12 L-1,12 L-1,16 L-7,16 L-7,18 L-12,22 L-13,24 L-15,24 L-15,30 L-17,30 L-17,40 L-19,40 L-19,44 L-17,44 L-17,52 L-19,52 L-19,58 L-21,58 L-21,62 L-23,62 L-23,64 L-25,64 L-25,66 L-27,66 L-27,70 L-31,70 L-31,72 L-33,72 L-33,74 L-35,74 L-35,78 L-39,78 L-39,80 L-41,80 L-41,82 L-43,82 L-43,84 L-49,84 L-49,86 L-51,86 L-51,88 L-53,88 L-53,90 L-57,90 L-57,92 L-61,96 L-65,96 L-65,98 L-69,98 L-69,100 L-81,100 L-81,99 L-70,99 L-70,97 L-72,96 L-66,97 L-66,95 L-69,94 L-67,94 L-67,91 L-62,89 L-62,84 L-59,81 L-49,80 L-49,78 L-42,76 L-42,78 L-40,79 L-41,76 L-36,77 L-37,71 L-32,71 L-33,68 L-28,69 L-28,67 L-33,66 L-30,62 L-30,64 L-27,64 L-29,60 L-26,56 L-24,54 L-23,51 L-21,51 L-22,44 L-20,44 L-20,40 L-23,39 L-21,39 L-21,28 L-18,25 L-18,29 L-16,29 L-17,21 L-13,16 L-8,12 L-4,10 L-2,6 L-2,11 L0,11 L-1,4 Z M-34,66 Z " fill="#6F5A73" transform="translate(763,644)"/>
<path d="M0,0 L1,0 L4,31 L9,31 L10,39 L8,39 L9,43 L9,52 L12,61 L8,69 L7,72 L6,87 L3,94 L2,100 L-3,103 L-5,104 L-6,98 L-2,97 L1,93 L1,88 L-1,88 L0,84 L1,83 L1,72 L0,72 L0,62 L2,56 L-1,56 L-1,54 L1,54 L0,47 L1,44 L2,31 L0,31 L-1,20 L-1,4 Z M-7,101 Z " fill="#AC92B0" transform="translate(721,537)"/>
<path d="M0,0 L2,4 L1,6 L-1,5 L-1,7 L1,7 L0,16 L-3,17 L-4,23 L-7,27 L-8,32 L-10,32 L-11,30 L-14,34 L-16,42 L-19,49 L-20,50 L-28,50 L-28,48 L-34,50 L-41,56 L-47,55 L-54,57 L-54,55 L-57,55 L-58,58 L-58,54 L-54,54 L-54,52 L-48,52 L-48,50 L-42,50 L-42,48 L-38,48 L-38,46 L-34,46 L-34,44 L-32,44 L-32,42 L-24,42 L-24,38 L-22,38 L-22,36 L-20,36 L-20,32 L-18,32 L-18,30 L-16,30 L-16,26 L-14,26 L-14,24 L-12,24 L-12,20 L-10,20 L-10,14 L-8,14 L-8,8 L-6,8 L-6,6 L-2,6 L-2,4 L0,4 Z M-28,46 Z M-44,54 Z " fill="#785D72" transform="translate(564,452)"/>
<path d="M0,0 L12,3 L12,6 L16,7 L12,9 L-29,9 L-30,11 L-32,11 L-32,13 L-35,13 L-35,8 L-76,8 L-80,6 L-80,3 L-75,5 L-72,4 L-52,4 L-48,6 L-49,2 L-32,3 L-26,4 L-26,2 L-20,3 L-18,2 L-14,3 L-10,2 L-1,2 Z M-48,3 Z " fill="#806681" transform="translate(640,734)"/>
<path d="M0,0 L1,0 L0,16 L-1,17 L-2,25 L-5,32 L-9,33 L-9,42 L-11,44 L-7,43 L-8,47 L-11,47 L-12,56 L-16,57 L-19,60 L-22,59 L-22,57 L-24,57 L-23,52 L-24,51 L-24,41 L-21,38 L-14,24 L-8,22 L-7,20 L-5,20 L-4,12 L-1,6 Z " fill="#7F6683" transform="translate(749,632)"/>
<path d="M0,0 L4,0 L4,4 L6,4 L8,7 L12,8 L12,10 L14,10 L14,14 L18,14 L22,19 L24,20 L24,24 L26,24 L26,28 L28,28 L28,36 L30,36 L30,88 L28,88 L27,90 L27,88 L24,87 L26,87 L25,38 L24,37 L23,30 L22,27 L20,27 L19,23 L14,24 L14,22 L12,22 L10,18 L3,12 L1,4 L3,4 L3,1 Z " fill="#746572" transform="translate(738,328)"/>
<path d="M0,0 L3,4 L5,21 L5,50 L4,55 L3,68 L0,74 L-2,82 L-4,82 L-5,85 L-11,87 L-18,101 L-20,104 L-20,113 L-20,116 L-23,119 L-23,108 L-21,101 L-20,100 L-19,89 L-15,83 L-11,81 L-10,78 L-6,78 L-5,70 L-2,62 L1,38 L1,13 L0,8 Z " fill="#8B728D" transform="translate(746,570)"/>
<path d="M0,0 L11,0 L16,2 L16,4 L27,4 L28,5 L46,6 L54,8 L58,9 L84,9 L90,11 L89,14 L85,14 L83,16 L53,16 L50,14 L50,12 L35,12 L34,9 L19,7 L15,5 L2,3 L2,1 Z " fill="#AC8FAD" transform="translate(524,681)"/>
<path d="M0,0 L4,1 L1,4 L1,11 L-2,12 L-3,14 L-4,29 L-1,26 L2,27 L1,30 L-1,31 L-3,36 L-6,32 L-8,39 L-9,47 L-11,48 L-12,45 L-22,46 L-22,48 L-26,49 L-25,44 L-22,34 L-20,34 L-20,32 L-17,30 L-14,25 L-10,23 L-8,24 L-5,6 L-3,3 L-1,3 Z M-6,33 Z " fill="#91758C" transform="translate(572,478)"/>
<path d="M0,0 L4,1 L13,1 L17,6 L27,7 L29,9 L28,10 L52,11 L51,13 L48,15 L47,18 L37,19 L31,18 L31,17 L17,16 L16,11 L11,11 L10,10 L-2,10 L-5,11 L-5,9 L-7,8 L-2,5 Z " fill="#A98DAC" transform="translate(625,690)"/>
<path d="M0,0 L1,3 L16,3 L21,5 L21,7 L29,7 L42,9 L42,11 L74,11 L74,13 L66,14 L72,16 L83,17 L84,19 L80,19 L80,21 L68,21 L62,20 L60,20 L60,18 L49,17 L47,14 L22,13 L19,9 L19,7 L12,6 L1,5 Z " fill="#9E819F" transform="translate(500,682)"/>
<path d="M0,0 L2,0 L1,5 L5,4 L4,2 L9,2 L9,6 L15,6 L17,7 L55,7 L58,8 L58,10 L60,11 L58,11 L58,13 L61,14 L57,14 L57,12 L15,12 L15,10 L1,10 L1,8 L-5,8 L-5,10 L-9,10 L-9,7 L-26,7 L-26,5 L-24,4 L-2,4 Z " fill="#725873" transform="translate(547,734)"/>
<path d="M0,0 L2,2 L3,12 L4,17 L6,17 L6,20 L9,20 L9,22 L16,23 L23,25 L24,28 L31,28 L33,29 L43,29 L53,31 L61,32 L62,36 L45,36 L45,34 L35,34 L24,32 L24,30 L19,29 L4,28 L2,24 L2,20 L0,20 L0,12 L-3,11 L-2,6 L0,6 Z " fill="#A387A3" transform="translate(497,657)"/>
<path d="M0,0 L3,1 L4,7 L-2,14 L-4,14 L-4,16 L-6,16 L-7,20 L-11,20 L-12,23 L-14,23 L-16,27 L-22,31 L-23,31 L-25,37 L-29,39 L-28,34 L-26,34 L-26,32 L-28,32 L-29,25 L-27,25 L-27,27 L-22,23 L-20,23 L-21,13 L-19,13 L-19,16 L-16,14 L-17,11 L-9,10 L-7,7 L-9,7 L-7,1 L-5,1 L-5,3 L-3,3 L-3,1 Z " fill="#7E657A" transform="translate(484,536)"/>
<path d="M0,0 L5,0 L6,5 L7,22 L6,50 L3,57 L1,72 L0,72 L0,52 L-2,52 L0,47 L0,9 L1,7 Z " fill="#847283" transform="translate(753,384)"/>
<path d="M0,0 L1,0 L3,34 L4,36 L5,54 L7,54 L8,59 L8,84 L5,108 L4,108 L4,62 L2,45 L-1,36 L-1,29 L-3,29 L-3,11 L-1,1 Z " fill="#967C95" transform="translate(740,524)"/>
<path d="M0,0 L2,0 L2,6 L5,7 L4,27 L6,28 L5,37 L4,40 L6,40 L6,44 L8,44 L9,49 L6,53 L6,51 L1,50 L2,47 L0,47 L-2,37 L-2,15 L-5,14 L-5,11 L-3,10 L-1,6 Z " fill="#907691" transform="translate(477,634)"/>
<path d="M0,0 L2,0 L2,2 L6,3 L5,5 L5,18 L7,21 L7,24 L4,26 L3,31 L0,38 L2,38 L2,42 L-2,43 L-4,55 L-5,55 L-5,41 L-3,26 L-5,25 L-3,17 L-2,16 L-3,3 Z " fill="#A389A4" transform="translate(728,474)"/>
<path d="M0,0 L2,0 L2,3 L7,4 L10,5 L10,7 L14,8 L14,10 L16,10 L21,20 L23,24 L23,30 L26,34 L26,42 L24,43 L25,48 L27,54 L27,64 L23,64 L23,51 L20,51 L20,47 L18,47 L18,41 L22,41 L22,35 L20,35 L20,31 L18,31 L17,21 L14,19 L14,15 L12,15 L12,11 L10,11 L10,9 L6,9 L6,7 L2,7 L2,4 L-1,4 Z M16,14 Z M19,20 Z " fill="#6A546A" transform="translate(418,651)"/>
<path d="M0,0 L1,0 L1,10 L0,18 L-1,39 L-2,40 L-4,72 L-4,97 L-3,108 L-1,108 L-1,97 L1,97 L1,108 L0,109 L1,131 L1,153 L-1,157 L-3,113 L-6,102 L-6,60 L-5,38 L-4,32 L-2,32 L-2,16 Z " fill="#826980" transform="translate(754,462)"/>
<path d="M0,0 L2,1 L2,13 L6,13 L8,21 L7,22 L7,61 L4,65 L6,65 L6,73 L5,74 L5,81 L3,86 L2,86 L2,30 L1,29 L0,18 Z " fill="#8B7B8B" transform="translate(747,371)"/>
<path d="M0,0 L1,0 L1,15 L-1,27 L-7,29 L-9,39 L-13,42 L-20,44 L-25,45 L-25,47 L-31,49 L-41,49 L-42,47 L-35,46 L-34,45 L-29,45 L-29,43 L-22,42 L-20,40 L-17,40 L-15,35 L-13,35 L-13,32 L-11,31 L-8,23 L-7,22 L-6,8 L-4,8 L-4,6 L-1,6 L-1,1 Z " fill="#9A819E" transform="translate(709,674)"/>
<path d="M0,0 L1,2 L66,2 L72,3 L72,4 L66,4 L66,6 L0,6 L0,4 L-2,3 L0,3 Z " fill="#735C73" transform="translate(610,742)"/>
<path d="M0,0 L5,1 L7,2 L7,4 L13,5 L13,7 L21,5 L22,6 L38,7 L33,13 L17,13 L11,11 L11,9 L0,9 L-2,8 L-11,7 L-11,4 L-10,3 L-3,2 Z " fill="#B99CBA" transform="translate(547,672)"/>
<path d="M0,0 L8,0 L7,2 L3,2 L3,4 L1,4 L1,6 L-2,7 L-4,15 L-13,21 L-17,25 L-19,30 L-23,30 L-25,36 L-27,36 L-29,42 L-31,42 L-31,37 L-27,31 L-29,30 L-26,23 L-21,21 L-17,16 L-14,13 L-10,13 L-9,9 L-7,9 L-7,7 L-5,7 L-3,3 Z M-30,31 Z " fill="#876E83" transform="translate(487,543)"/>
<path d="M0,0 L2,3 L0,7 L-6,9 L-8,11 L-12,10 L-12,4 L-20,5 L-19,8 L-21,10 L-24,9 L-26,10 L-35,10 L-36,12 L-44,12 L-49,16 L-51,16 L-49,12 L-47,9 L-42,9 L-42,7 L-38,5 L-29,4 L-26,5 L-26,3 L-16,2 L-11,1 L-11,3 L-3,1 L-3,3 L-1,4 Z M-34,8 Z " fill="#837184" transform="translate(708,338)"/>
<path d="M0,0 L3,0 L1,6 L0,14 L-5,15 L-10,20 L-13,25 L-16,34 L-19,37 L-21,43 L-22,41 L-20,29 L-15,18 L-13,12 L-3,3 L-1,3 Z " fill="#907694" transform="translate(741,634)"/>
<path d="M0,0 L10,0 L12,1 L42,1 L44,3 L47,2 L47,4 L51,4 L51,6 L55,4 L55,6 L58,7 L57,8 L47,8 L42,11 L40,11 L40,9 L37,9 L36,12 L35,10 L36,8 L34,8 L34,6 L27,7 L19,6 L18,5 L7,4 L0,1 Z " fill="#A688A6" transform="translate(565,695)"/>
<path d="M0,0 Z M-4,1 L6,2 L6,4 L-1,5 L-2,7 L-8,10 L-15,11 L-20,12 L-25,12 L-29,18 L-35,20 L-39,26 L-44,29 L-42,24 L-38,18 L-37,13 L-31,10 L-20,7 L-17,6 L-13,5 L-10,3 L-4,3 Z " fill="#826B7F" transform="translate(650,360)"/>
<path d="M0,0 L1,0 L1,6 L3,6 L3,22 L5,22 L5,26 L7,26 L7,34 L9,34 L9,48 L11,48 L11,50 L9,50 L9,74 L8,74 L8,50 L5,50 L4,54 L3,26 L4,23 L2,23 L1,26 L1,23 L-1,23 L-1,6 Z M2,36 Z M3,54 Z " fill="#735C75" transform="translate(757,570)"/>
<path d="M0,0 L1,0 L3,13 L3,20 L2,24 L1,48 L-4,49 L-6,37 L-5,36 L-2,9 L-2,4 Z " fill="#9A8298" transform="translate(740,472)"/>
<path d="M0,0 L2,1 L1,8 L-5,8 L-5,10 L-7,10 L-7,12 L-9,12 L-9,14 L-13,14 L-13,16 L-17,20 L-21,20 L-21,22 L-25,22 L-25,24 L-37,24 L-37,23 L-26,23 L-26,21 L-28,20 L-22,21 L-22,19 L-25,18 L-23,18 L-23,15 L-18,13 L-18,8 L-15,5 L-5,4 L-5,2 Z " fill="#79627C" transform="translate(719,720)"/>
<path d="M0,0 L1,0 L1,12 L-1,38 L-2,44 L-3,66 L-4,107 L-5,107 L-6,94 L-6,68 L-5,64 L-3,11 Z " fill="#866E83" transform="translate(752,456)"/>
<path d="M0,0 L6,0 L6,1 L1,1 L1,3 L6,3 L2,5 L0,5 L0,3 L-3,3 L-3,5 L-5,5 L-5,7 L-3,8 L-9,7 L-9,9 L-7,9 L-6,12 L-10,16 L-12,16 L-13,19 L-18,18 L-21,17 L-21,19 L-19,20 L-22,21 L-22,19 L-25,19 L-24,24 L-26,26 L-33,28 L-35,29 L-35,27 L-37,27 L-36,30 L-44,29 L-44,28 L-38,28 L-36,24 L-32,22 L-32,20 L-26,20 L-26,18 L-22,18 L-22,16 L-18,16 L-18,14 L-16,14 L-16,12 L-14,12 L-12,8 L-10,8 L-10,6 L-6,6 L-6,4 L-4,4 L-4,2 L0,2 Z " fill="#766376" transform="translate(670,332)"/>
<path d="M0,0 L3,3 L29,3 L27,9 L12,10 L11,11 L3,11 L3,7 L-5,6 L-5,4 L-14,4 L-14,2 L-1,1 Z M3,6 Z " fill="#8E708C" transform="translate(597,721)"/>
<path d="M0,0 L1,0 L1,18 L-1,18 L-1,36 L-3,36 L-3,48 L-5,48 L-5,68 L-6,68 L-7,48 L-7,35 L-5,17 L-3,8 L-2,8 L-2,17 L0,17 Z " fill="#6F596B" transform="translate(761,454)"/>
<path d="M0,0 L2,0 L3,6 L2,11 L0,11 L-2,18 L-5,26 L-10,28 L-15,28 L-15,31 L-22,33 L-24,36 L-30,36 L-27,34 L-25,34 L-25,32 L-23,30 L-22,27 L-15,26 L-15,22 L-13,22 L-13,20 L-7,19 L-5,20 L-4,13 L-2,7 L0,7 Z " fill="#866F8B" transform="translate(725,689)"/>
<path d="M0,0 L4,1 L13,1 L17,6 L27,7 L29,9 L27,10 L23,9 L-2,10 L-5,11 L-5,9 L-7,8 L-2,5 Z " fill="#AD90AC" transform="translate(625,690)"/>
<path d="M0,0 L2,4 L8,3 L8,5 L14,5 L15,3 L18,5 L9,8 L8,7 L3,12 L1,17 L0,31 L-4,36 L-4,19 L-2,19 L-1,9 L-1,7 L-7,8 L-6,6 L-4,6 L-4,4 Z M8,8 Z " fill="#9F869E" transform="translate(592,473)"/>
<path d="M0,0 L6,0 L6,1 L1,1 L1,3 L3,4 L-3,3 L-3,5 L0,6 L-4,7 L-4,5 L-7,5 L-7,7 L-5,7 L-5,9 L-9,13 L-7,14 L-9,19 L-15,29 L-20,34 L-22,35 L-23,25 L-21,25 L-21,27 L-17,26 L-15,19 L-12,13 L-15,13 L-15,11 L-12,11 L-12,8 L-10,8 L-10,6 L-8,6 L-8,4 L-4,4 L-4,2 L0,2 Z " fill="#7D657A" transform="translate(620,362)"/>
<path d="M0,0 L2,2 L1,4 L5,2 L7,3 L6,6 L4,6 L4,9 L2,9 L0,14 L-5,17 L-12,17 L-12,19 L-14,18 L-13,16 L-15,16 L-15,14 L-9,9 L-7,6 L-4,4 Z M0,4 Z " fill="#9E85A2" transform="translate(692,700)"/>
<path d="M0,0 L5,3 L5,6 L11,6 L11,8 L17,7 L26,8 L38,14 L41,16 L33,16 L32,15 L21,14 L21,12 L5,10 L0,7 L1,3 L-1,4 L-7,4 L-7,2 L0,2 Z " fill="#B194B2" transform="translate(519,671)"/>
<path d="M0,0 L1,0 L1,6 L-2,12 L-4,20 L-6,20 L-7,23 L-13,25 L-20,39 L-22,42 L-22,51 L-22,54 L-25,57 L-25,46 L-23,39 L-22,38 L-21,29 L-18,26 L-16,26 L-16,24 L-10,20 L-7,17 L-5,17 L-4,8 L-2,2 L0,2 Z " fill="#866D8A" transform="translate(748,632)"/>
<path d="M0,0 L1,3 L6,2 L13,2 L19,4 L19,5 L-9,5 L-11,6 L-35,6 L-35,3 L-31,2 L-31,4 L-27,2 L-1,1 Z " fill="#947693" transform="translate(635,719)"/>
<path d="M0,0 L1,4 L-3,9 L-8,9 L-11,11 L-23,14 L-26,15 L-26,18 L-29,17 L-26,13 L-24,13 L-24,11 L-26,11 L-26,9 L-23,9 L-23,11 L-21,10 L-22,7 L-18,7 L-18,5 L-13,5 L-13,3 L-6,3 L-6,1 L-2,1 Z " fill="#7E697C" transform="translate(639,358)"/>
<path d="M0,0 L2,0 L3,8 L5,9 L3,16 L1,16 L0,21 L-5,33 L-6,35 L-10,34 L-8,28 L-6,27 L-5,22 L-4,18 L-6,18 L-6,16 L-4,15 L-4,11 L-2,11 L-2,6 L1,7 L2,5 L0,5 Z M-11,35 Z M-12,36 Z " fill="#7E647A" transform="translate(569,441)"/>
<path d="M0,0 L1,4 L-1,4 L-1,22 L-3,22 L-3,36 L-4,36 L-4,22 L-6,22 L-6,33 L-8,33 L-8,18 L-5,2 L-2,1 L-2,3 L0,3 Z " fill="#746274" transform="translate(767,418)"/>
<path d="M0,0 L2,0 L3,2 L28,3 L30,6 L41,8 L41,10 L43,10 L43,12 L47,12 L47,14 L41,15 L41,12 L35,11 L30,10 L29,8 L17,7 L14,6 L2,5 Z " fill="#967997" transform="translate(519,692)"/>
<path d="M0,0 L3,0 L2,4 L1,7 L1,15 L0,13 L-2,13 L-2,21 L-4,17 L-6,15 L-11,15 L-12,7 L-11,3 L-1,3 Z " fill="#AA90A9" transform="translate(503,644)"/>
<path d="M0,0 L1,0 L1,36 L3,36 L3,0 L4,0 L4,36 L6,36 L6,48 L5,48 L5,37 L3,37 L3,48 L1,48 L-1,37 L-1,12 Z " fill="#715A6F" transform="translate(750,522)"/>
<path d="M0,0 L4,0 L4,16 L3,18 L2,52 L0,53 L-2,52 L0,47 L0,9 L1,7 Z " fill="#867786" transform="translate(753,384)"/>
<path d="M0,0 L3,1 L4,6 L1,6 L1,9 L-2,11 L-8,11 L-8,14 L-20,19 L-21,13 L-19,13 L-19,16 L-16,14 L-17,11 L-9,10 L-7,7 L-9,7 L-7,1 L-5,1 L-5,3 L-3,3 L-3,1 Z " fill="#7D6376" transform="translate(484,536)"/>
<path d="M0,0 L7,0 L6,4 L2,8 L1,11 L-4,13 L-12,14 L-12,8 L-9,5 L-4,4 Z " fill="#92798C" transform="translate(502,545)"/>
<path d="M0,0 L2,0 L4,20 L3,43 L1,47 L0,44 L-2,44 L-1,40 L0,39 L0,28 L-1,28 L-1,18 L1,12 L-2,12 L-2,10 L0,10 L-1,3 Z " fill="#B095B3" transform="translate(722,581)"/>
<path d="M0,0 L3,2 L1,13 L0,24 L-3,30 L-5,30 L-7,37 L-8,37 L-8,31 L-5,24 L-4,7 L-1,2 Z " fill="#A78EAB" transform="translate(731,600)"/>
<path d="M0,0 L1,0 L4,11 L5,36 L5,60 L2,68 L1,68 L1,57 L2,56 L2,27 L0,10 Z " fill="#856D87" transform="translate(748,564)"/>
<path d="M0,0 L8,5 L16,4 L16,6 L21,6 L21,8 L23,9 L21,9 L21,11 L38,11 L38,12 L20,12 L20,10 L6,10 L6,8 L1,7 L0,4 L-8,4 L-8,3 L0,3 Z " fill="#6A526D" transform="translate(500,730)"/>
<path d="M0,0 L2,1 L2,6 L0,10 L-5,13 L-8,18 L-9,21 L-11,21 L-11,17 L-13,17 L-13,22 L-11,22 L-12,27 L-13,23 L-15,23 L-15,28 L-16,28 L-16,22 L-14,22 L-14,16 L-12,16 L-11,11 L-2,2 L0,2 Z " fill="#735B6F" transform="translate(582,424)"/>
<path d="M0,0 L4,0 L3,5 L6,6 L7,15 L9,20 L11,20 L13,31 L12,39 L11,39 L11,32 L7,31 L6,20 L5,20 L4,12 L2,12 L2,6 L0,3 Z " fill="#A389A4" transform="translate(725,544)"/>
<path d="M0,0 L5,2 L8,1 L28,1 L32,3 L32,1 L37,2 L36,5 L4,5 L0,3 Z " fill="#7C5F7D" transform="translate(560,737)"/>
<path d="M0,0 L1,2 L4,1 L4,3 L-1,3 L0,6 L-8,12 L-12,13 L-13,15 L-10,16 L-10,19 L-13,22 L-15,24 L-15,19 L-17,19 L-17,24 L-18,24 L-18,18 L-14,18 L-14,16 L-18,16 L-17,11 L-14,10 L-14,8 L-8,8 L-8,6 L-6,6 L-6,4 L-2,4 Z " fill="#6C5669" transform="translate(408,592)"/>
<path d="M0,0 L8,0 L8,1 L1,1 L1,3 L8,3 L8,4 L0,6 L-11,7 L-14,5 L-14,7 L-12,8 L-17,9 L-19,8 L-19,5 L-21,5 L-21,7 L-23,7 L-23,9 L-26,10 L-26,8 L-24,8 L-24,6 L-22,6 L-22,4 L-20,4 L-20,2 L-14,2 L-14,4 L-12,4 L-12,2 L0,2 Z M-20,8 Z " fill="#705F6E" transform="translate(702,322)"/>
<path d="M0,0 L4,2 L6,4 L5,6 L12,6 L12,8 L19,8 L19,11 L3,10 L1,6 L-3,6 L-3,3 L-14,3 L-14,1 Z " fill="#6F5672" transform="translate(481,722)"/>
<path d="M0,0 L1,0 L1,34 L-1,46 L-3,46 L-4,40 L-4,24 L-2,24 L-1,7 L-1,1 Z M-4,46 Z " fill="#988698" transform="translate(744,398)"/>
<path d="M0,0 L1,0 L1,7 L3,7 L3,0 L4,0 L3,21 L5,21 L5,8 L6,8 L6,48 L5,48 L5,25 L3,25 L4,52 L2,54 L2,52 L0,52 L0,48 L2,48 L2,24 L4,24 L4,22 L2,22 L2,8 L0,8 Z " fill="#0B080B" transform="translate(764,596)"/>
<path d="M0,0 L4,1 L2,5 L0,14 L-6,15 L-7,18 L-9,18 L-8,10 L-10,9 L-7,8 L-10,4 L-8,3 L0,3 Z " fill="#A486A0" transform="translate(552,542)"/>
<path d="M0,0 L1,0 L5,39 L5,51 L3,51 L2,44 L2,31 L0,31 L-1,20 L-1,4 Z " fill="#AF94B1" transform="translate(721,537)"/>
<path d="M0,0 L4,0 L4,4 L6,4 L8,7 L12,8 L12,10 L14,10 L14,14 L18,14 L19,17 L15,18 L17,17 L17,15 L13,15 L12,17 L7,16 L3,12 L1,4 L3,4 L3,1 Z " fill="#766872" transform="translate(738,328)"/>
<path d="M0,0 L4,1 L2,14 L0,15 L-1,12 L-11,13 L-11,15 L-15,16 L-14,13 L-9,9 L-6,9 L-5,5 Z " fill="#937890" transform="translate(561,511)"/>
<path d="M0,0 L4,1 L1,1 L1,3 L3,3 L1,7 L-3,10 L-9,9 L-16,11 L-16,9 L-19,9 L-20,12 L-20,8 L-16,8 L-16,6 L-10,6 L-10,4 L-4,4 L-4,2 L0,2 Z M-6,8 Z " fill="#755A6F" transform="translate(526,498)"/>
<path d="M0,0 L1,0 L2,5 L2,30 L-1,54 L-2,54 L-2,32 L-1,26 Z " fill="#907893" transform="translate(746,578)"/>
<path d="M0,0 L1,0 L2,35 L3,36 L4,55 L2,57 L-2,20 L-2,10 Z " fill="#AA91AA" transform="translate(722,508)"/>
<path d="M0,0 L4,1 L1,1 L1,3 L4,3 L3,7 L-1,16 L-5,17 L-5,15 L-7,15 L-6,21 L-7,19 L-9,19 L-9,24 L-10,24 L-10,18 L-8,18 L-8,14 L-6,14 L-6,8 L-4,8 L-4,6 L-2,6 L-2,2 L0,2 Z " fill="#796276" transform="translate(604,372)"/>
<path d="M0,0 L4,0 L4,2 L12,2 L12,4 L16,4 L16,6 L20,6 L20,10 L22,10 L21,12 L18,10 L19,7 L17,7 L17,11 L13,10 L11,7 L4,6 L1,6 L-6,5 L-2,4 Z " fill="#6B5D68" transform="translate(716,316)"/>
<path d="M0,0 L4,1 L1,1 L1,3 L3,4 L-5,9 L-9,15 L-11,15 L-11,17 L-13,17 L-13,15 L-15,15 L-16,18 L-16,14 L-14,14 L-14,12 L-12,12 L-12,8 L-10,8 L-10,6 L-12,6 L-12,4 L-4,4 L-4,2 L0,2 Z " fill="#70586A" transform="translate(492,522)"/>
<path d="M0,0 L2,1 L3,9 L6,10 L6,12 L8,12 L8,16 L10,16 L11,21 L8,25 L8,23 L3,22 L4,19 L2,19 L0,9 Z " fill="#8B718B" transform="translate(475,662)"/>
<path d="M0,0 L2,0 L2,4 L11,2 L12,5 L18,4 L13,9 L8,9 L6,13 L5,13 L5,7 L-1,10 L-1,7 L-4,6 L-4,4 L-1,3 Z M11,1 Z " fill="#7C6276" transform="translate(497,519)"/>
<path d="M0,0 L2,0 L2,3 L10,2 L12,3 L12,5 L18,5 L20,7 L4,8 L3,7 L-6,8 L-5,2 Z " fill="#987C9B" transform="translate(646,714)"/>
<path d="M0,0 L2,0 L1,6 L-4,11 L-7,20 L-10,23 L-12,24 L-13,28 L-16,28 L-17,23 L-8,16 L-5,5 L-1,4 Z M-18,24 Z " fill="#997E9D" transform="translate(732,636)"/>
<path d="M0,0 L2,0 L2,6 L5,7 L4,23 L2,21 L2,17 L-4,15 L-5,11 L-3,10 L-1,6 Z " fill="#998097" transform="translate(477,634)"/>
<path d="M0,0 L1,0 L1,5 L-3,8 L-10,10 L-15,11 L-15,13 L-21,15 L-31,15 L-32,13 L-25,12 L-24,11 L-19,11 L-19,9 L-12,8 L-10,6 L-5,5 L-3,2 L0,2 Z " fill="#987D9B" transform="translate(699,708)"/>
<path d="M0,0 L11,0 L14,1 L33,2 L36,4 L31,5 L12,5 L5,4 L3,5 L0,2 Z " fill="#8B6F8D" transform="translate(508,699)"/>
<path d="M0,0 Z M-4,1 L6,2 L6,4 L-1,5 L-2,7 L-8,10 L-15,11 L-20,12 L-18,9 L-15,8 L-10,3 L-4,3 Z " fill="#837083" transform="translate(650,360)"/>
<path d="M0,0 L2,0 L2,7 L-1,11 L1,13 L3,20 L4,24 L0,23 L-3,21 L-4,13 L-7,11 L-5,7 L-3,7 L-3,5 L0,5 Z " fill="#735D70" transform="translate(391,611)"/>
<path d="M0,0 L3,1 L2,12 L0,16 L4,16 L5,10 L6,8 L8,9 L5,17 L1,21 L0,24 L-3,25 L-5,24 L-3,19 L-2,12 L0,12 Z " fill="#B297B6" transform="translate(699,636)"/>
<path d="M0,0 L1,0 L1,22 L-2,23 L-7,29 L-10,29 L-9,23 L-5,20 L-2,12 L-1,10 Z " fill="#947B98" transform="translate(743,612)"/>
<path d="M0,0 Z M-2,1 L0,1 L0,3 L3,5 L1,9 L-2,9 L-3,18 L-11,25 L-12,21 L-9,20 L-7,13 L-4,6 Z " fill="#84697F" transform="translate(572,456)"/>
<path d="M0,0 L3,1 L-2,6 L-2,12 L-6,17 L-10,18 L-13,19 L-12,14 L-11,11 L-9,10 L-9,7 L-7,7 L-6,10 L-4,10 L-5,1 L-3,1 L-3,3 L-1,3 Z " fill="#7C6379" transform="translate(596,410)"/>
<path d="M0,0 L5,1 L5,2 L-4,4 L-5,7 L-11,9 L-13,13 L-18,14 L-21,17 L-20,9 L-15,9 L-15,7 L-12,6 L-9,3 Z " fill="#8E7588" transform="translate(503,543)"/>
<path d="M0,0 L1,0 L1,6 L-1,8 L-2,14 L-3,30 L-6,30 L-6,14 L-5,7 L-2,6 Z " fill="#8B718F" transform="translate(726,664)"/>
<path d="M0,0 L4,1 L8,6 L4,12 L0,11 L0,9 L-2,9 L-3,4 Z " fill="#6F5870" transform="translate(447,676)"/>
<path d="M0,0 L2,3 L0,7 L-6,9 L-8,11 L-12,10 L-12,3 L-3,1 L-3,3 L-1,4 Z " fill="#857483" transform="translate(708,338)"/>
<path d="M0,0 L7,0 L6,4 L2,5 L-3,5 L-3,7 L-8,12 L-12,12 L-12,10 L-10,10 L-10,8 L-7,8 L-7,3 L0,2 Z M2,3 Z " fill="#765D72" transform="translate(435,569)"/>
<path d="M0,0 L1,0 L2,13 L2,25 L1,45 L0,45 L-1,25 L-1,12 Z " fill="#735D6F" transform="translate(755,477)"/>
<path d="M0,0 L2,0 L2,5 L10,5 L11,11 L8,11 L1,10 L1,7 L-1,7 L-1,5 L-3,4 L0,4 Z " fill="#947A93" transform="translate(489,674)"/>
<path d="M0,0 L2,0 L2,3 L7,4 L10,5 L10,7 L14,8 L14,10 L16,10 L15,14 L13,14 L13,11 L10,11 L10,9 L6,9 L6,7 L2,7 L2,4 L-1,4 Z " fill="#70596E" transform="translate(418,651)"/>
<path d="M0,0 L7,1 L6,3 L1,6 L-1,9 L-5,8 L-9,11 L-8,6 L-5,3 L-4,1 Z M-10,11 Z " fill="#998095" transform="translate(484,566)"/>
<path d="M0,0 L5,0 L6,8 L4,8 L5,12 L5,21 L3,19 L3,8 L0,8 Z " fill="#AB8FAD" transform="translate(725,568)"/>
<path d="M0,0 L11,0 L11,1 L16,1 L17,0 L25,0 L24,5 L22,4 L8,4 L0,2 Z " fill="#9C7D96" transform="translate(512,548)"/>
<path d="M0,0 L1,0 L1,14 L4,15 L3,17 L1,17 L1,15 L-1,15 L0,24 L-3,25 L-3,21 L-5,21 L-4,27 L-5,25 L-7,25 L-8,28 L-8,24 L-6,24 L-6,20 L-4,20 L-4,18 L-2,18 L-2,14 L0,14 Z " fill="#6A5466" transform="translate(592,396)"/>
<path d="M0,0 L20,0 L20,3 L13,3 L12,4 L4,4 L0,2 Z " fill="#8E718D" transform="translate(628,725)"/>
<path d="M0,0 L3,0 L2,4 L1,7 L1,15 L0,13 L-4,13 L-4,7 L-6,7 L-6,4 L-1,3 Z " fill="#B49AB3" transform="translate(503,644)"/>
<path d="M0,0 L2,0 L3,11 L1,27 L-1,28 L-1,18 L1,12 L-2,12 L-2,10 L0,10 L-1,3 Z " fill="#B498B7" transform="translate(722,581)"/>
<path d="M0,0 L16,0 L18,2 L18,5 L15,5 L15,3 L-2,3 L-2,1 Z " fill="#785D7B" transform="translate(523,738)"/>
<path d="M0,0 L1,4 L3,4 L3,6 L1,6 L1,12 L-1,12 L-1,16 L-7,16 L-8,18 L-9,13 L-4,10 L-2,6 L-2,11 L0,11 L-1,4 Z " fill="#6C5670" transform="translate(763,644)"/>
<path d="M0,0 L4,1 L4,3 L6,3 L6,5 L10,7 L9,13 L12,14 L8,14 L8,10 L4,8 L0,4 L0,2 L-4,1 Z " fill="#6C5769" transform="translate(408,642)"/>
<path d="M0,0 L1,0 L1,14 L3,14 L3,16 L1,16 L1,40 L0,40 L0,16 L-3,16 L-4,20 L-4,14 L0,14 Z M-5,20 Z " fill="#5F4C63" transform="translate(765,604)"/>
<path d="M0,0 L4,1 L2,5 L-4,8 L-8,12 L-8,10 L-10,9 L-7,8 L-10,4 L-8,3 L0,3 Z " fill="#9F829C" transform="translate(552,542)"/>
<path d="M0,0 L5,2 L6,7 L6,17 L2,17 L2,4 L0,4 Z " fill="#765C79" transform="translate(439,698)"/>
<path d="M0,0 L2,1 L18,2 L15,5 L11,6 L11,4 L5,5 L-7,3 L-7,2 Z " fill="#BDA0BE" transform="translate(567,677)"/>
<path d="M0,0 L2,0 L2,12 L1,17 L-1,26 L-2,26 L-2,12 Z " fill="#87708C" transform="translate(749,608)"/>
<path d="M0,0 L5,1 L5,4 L3,5 L-4,5 L-10,10 L-12,8 L-7,6 L-7,4 L-5,4 L-4,2 Z M5,0 Z M-4,5 Z M-5,6 Z M-13,9 Z " fill="#937A8F" transform="translate(481,562)"/>
<path d="M0,0 L1,0 L1,5 L2,10 L0,10 L1,17 L-1,14 L-1,10 L-4,10 L-5,3 L-3,3 L-3,1 Z " fill="#76607B" transform="translate(741,678)"/>
<path d="M0,0 L7,1 L6,5 L2,5 L2,7 L-2,7 L-2,9 L-14,9 L-14,8 L-3,8 L-3,6 L-5,5 L1,6 L1,4 L-2,3 L0,3 Z " fill="#6A566D" transform="translate(696,735)"/>
<path d="M0,0 L1,0 L1,6 L3,6 L3,0 L4,0 L4,7 L2,8 L2,15 L1,12 L-1,12 L-2,16 L-2,12 L-4,12 L-4,6 L0,6 Z " fill="#6A536D" transform="translate(440,686)"/>
<path d="M0,0 L2,4 L3,5 L4,13 L-1,13 L-3,6 L-2,1 Z " fill="#BEA3B8" transform="translate(504,627)"/>
<path d="M0,0 L2,1 L1,3 L3,3 L1,7 L-4,8 L-7,7 L-7,9 L-5,10 L-9,12 L-9,9 L-11,9 L-12,12 L-12,8 L-8,8 L-8,6 L-4,6 L-2,2 L0,2 Z " fill="#695363" transform="translate(474,540)"/>
<path d="M0,0 L3,1 L1,6 L-8,8 L-11,11 L-13,11 L-11,7 L-9,4 L-4,4 L-4,2 Z " fill="#816E84" transform="translate(670,343)"/>
<path d="M0,0 L24,0 L29,1 L25,3 L3,2 Z " fill="#907391" transform="translate(519,699)"/>
<path d="M0,0 L4,1 L6,7 L6,11 L2,10 L1,13 L0,12 Z " fill="#937993" transform="translate(475,650)"/>
<path d="M0,0 L4,1 L0,5 L-1,8 L-6,10 L-14,11 L-14,9 L-6,6 L-1,1 Z " fill="#957C91" transform="translate(504,548)"/>
<path d="M0,0 L4,0 L4,3 L11,3 L11,5 L4,6 L1,6 L-6,5 L-2,4 Z " fill="#71626E" transform="translate(716,316)"/>
<path d="M0,0 L4,2 L6,4 L3,7 L1,5 L-3,5 L-3,3 L-14,3 L-14,1 Z " fill="#795E7C" transform="translate(481,722)"/>
<path d="M0,0 L2,1 L2,10 L-1,11 L-1,9 L-3,9 L-2,15 L-3,13 L-5,13 L-5,18 L-6,18 L-6,12 L-4,12 L-4,8 L-2,8 L-2,2 L0,2 Z " fill="#6D566A" transform="translate(600,378)"/>
<path d="M0,0 L3,0 L3,2 L6,3 L5,6 L1,6 L1,8 L-4,8 L-4,6 L-6,6 L-6,4 L-2,4 L-2,2 L0,2 Z M5,1 Z " fill="#7A677B" transform="translate(667,335)"/>
<path d="M0,0 L6,0 L6,1 L1,1 L1,3 L6,3 L2,5 L-6,7 L-6,5 L-9,5 L-10,8 L-10,4 L-6,4 L-6,2 L0,2 Z " fill="#6C5365" transform="translate(516,502)"/>
<path d="M0,0 L6,0 L6,1 L1,1 L1,3 L6,3 L2,5 L0,5 L0,3 L-3,3 L-3,5 L-5,5 L-5,7 L-3,8 L-9,7 L-9,9 L-7,9 L-7,11 L-14,11 L-12,8 L-10,8 L-10,6 L-6,6 L-6,4 L-4,4 L-4,2 L0,2 Z " fill="#685768" transform="translate(670,332)"/>
<path d="M0,0 L9,1 L10,6 L4,6 L4,8 L0,8 Z " fill="#7A6979" transform="translate(688,327)"/>
<path d="M0,0 L5,1 L7,2 L7,4 L10,4 L10,6 L0,6 L-2,5 L-1,1 Z " fill="#8F7590" transform="translate(509,693)"/>
<path d="M0,0 L5,0 L4,4 L8,4 L8,8 L4,8 L4,6 L-2,7 L-1,3 Z " fill="#8A7089" transform="translate(460,648)"/>
<path d="M0,0 L2,0 L2,3 L10,2 L12,3 L12,5 L-4,5 L-5,2 Z " fill="#9C7E9E" transform="translate(646,714)"/>
<path d="M0,0 L3,1 L0,3 Z M-2,3 L0,4 L-3,8 L-5,8 L-5,10 L-7,10 L-8,14 L-10,14 L-9,5 Z " fill="#82697C" transform="translate(485,542)"/>
<path d="M0,0 L2,1 L1,3 L4,4 L0,8 L-7,9 L-8,12 L-8,8 L-6,8 L-4,4 L0,2 Z " fill="#6F5568" transform="translate(504,510)"/>
<path d="M0,0 L12,3 L12,5 L1,5 L-8,4 L-5,3 L-4,1 L-4,3 L-2,3 L-2,1 Z M4,0 Z " fill="#846985" transform="translate(602,733)"/>
<path d="M0,0 L4,1 L3,16 L1,16 Z " fill="#A28AA4" transform="translate(736,584)"/>
<path d="M0,0 L7,1 L10,1 L5,5 L0,5 L-2,9 L-3,9 L-3,2 Z " fill="#81667B" transform="translate(505,523)"/>
<path d="M0,0 L6,0 L6,1 L1,1 L1,3 L3,4 L-3,3 L-3,5 L0,6 L-4,7 L-4,5 L-7,5 L-7,7 L-5,7 L-5,9 L-9,11 L-9,9 L-12,10 L-12,8 L-10,8 L-10,6 L-8,6 L-8,4 L-4,4 L-4,2 L0,2 Z " fill="#6B5869" transform="translate(620,362)"/>
<path d="M0,0 L2,0 L2,5 L5,2 L8,3 L7,6 L5,7 L3,12 L0,8 L-2,9 Z M0,9 Z " fill="#997D95" transform="translate(566,502)"/>
<path d="M0,0 L1,0 L1,6 L3,6 L1,15 L-1,16 L-1,13 L-3,13 L-4,16 L-4,12 L-2,12 L-2,6 L0,6 Z " fill="#6E5469" transform="translate(556,460)"/>
<path d="M0,0 L4,0 L4,2 L6,2 L6,6 L10,6 L11,9 L7,10 L9,9 L9,7 L5,7 L4,9 L0,7 L0,3 L3,3 L3,1 Z " fill="#70616B" transform="translate(746,336)"/>
<path d="M0,0 L10,2 L10,3 L4,3 L4,5 L2,5 L2,7 L0,7 L0,9 L-4,9 L-5,11 L-6,7 L-1,8 L-1,6 L-3,5 L-1,5 Z " fill="#6A556D" transform="translate(710,725)"/>
<path d="M0,0 L3,0 L4,0 L4,5 L6,5 L6,11 L4,11 L0,6 L-3,2 L0,2 Z " fill="#A188A0" transform="translate(485,649)"/>
<path d="M0,0 L2,0 L0,5 L-2,7 L-4,11 L-10,13 L-13,14 L-12,10 L-7,8 L-3,3 Z " fill="#836A7F" transform="translate(473,556)"/>
<path d="M0,0 L1,3 L-1,4 L-2,12 L-7,16 L-7,13 L-4,3 L-2,3 L-2,1 Z " fill="#8F7189" transform="translate(554,509)"/>
<path d="M0,0 L2,0 L1,5 L-5,11 L-7,10 L-6,9 L-10,8 L-10,6 L-2,4 L-2,2 L0,2 Z " fill="#7B687C" transform="translate(681,327)"/>
<path d="M0,0 L13,0 L13,2 L8,5 L6,5 L6,3 L3,3 L2,6 L1,4 L2,2 L0,2 Z " fill="#A184A1" transform="translate(599,701)"/>
<path d="M0,0 L12,0 L18,3 L14,5 L12,5 L12,3 L1,2 Z " fill="#9B7E9C" transform="translate(548,697)"/>
<path d="M0,0 L2,1 L-1,6 L-5,16 L-6,16 L-6,6 Z " fill="#AD92B1" transform="translate(705,651)"/>
<path d="M0,0 L2,1 L2,28 L0,30 L0,28 L-2,28 L-2,24 L0,24 Z " fill="#1A141B" transform="translate(766,620)"/>
<path d="M0,0 L10,0 L10,1 L1,1 L1,3 L10,3 L8,6 L8,4 L3,6 L0,5 L0,3 L-7,3 L-7,5 L-10,6 L-10,4 L-8,4 L-8,2 L0,2 Z " fill="#695365" transform="translate(442,566)"/>
<path d="M0,0 L1,4 L-3,4 L-3,6 L-5,6 L-5,8 L-7,8 L-7,12 L-11,12 L-11,14 L-13,14 L-14,16 L-15,13 L-12,13 L-13,10 L-8,11 L-9,5 L-4,5 L-5,2 L0,3 Z " fill="#655168" transform="translate(735,710)"/>
<path d="M0,0 L13,0 L20,3 L20,4 L12,4 L11,3 L0,2 Z " fill="#AE91AF" transform="translate(540,683)"/>
<path d="M0,0 L6,1 L6,3 L3,3 L3,5 L1,5 L1,3 L-4,5 L-12,5 L-11,3 L-4,2 Z " fill="#897887" transform="translate(722,342)"/>
<path d="M0,0 L1,4 L3,4 L3,10 L-2,11 L-2,2 L0,2 Z " fill="#B8A0B4" transform="translate(502,614)"/>
<path d="M0,0 L1,0 L4,13 L4,19 L2,16 L-1,10 Z " fill="#9D839D" transform="translate(736,554)"/>
<path d="M0,0 L1,2 L6,2 L1,6 L-2,8 L-5,7 L-5,2 L0,2 Z " fill="#7B6679" transform="translate(626,361)"/>
<path d="M0,0 L2,1 L2,19 L0,19 L0,12 L1,9 L-1,9 Z M-2,4 Z " fill="#876D84" transform="translate(435,608)"/>
<path d="M0,0 L4,1 L1,1 L1,3 L3,4 L-4,7 L-4,5 L-12,6 L-12,4 L-4,4 L-4,2 L0,2 Z " fill="#6A5465" transform="translate(492,522)"/>
<path d="M0,0 L1,0 L1,10 L-4,11 L-4,5 Z " fill="#998096" transform="translate(740,510)"/>
<path d="M0,0 L2,0 L4,2 L4,8 L2,8 L1,6 L-2,9 L-3,3 L-1,3 Z " fill="#7C5F76" transform="translate(552,476)"/>
<path d="M0,0 L3,4 L-14,4 L-14,2 L-1,1 Z " fill="#8F7290" transform="translate(597,721)"/>
<path d="M0,0 L1,0 L1,13 L10,14 L10,15 L5,15 L5,17 L10,17 L10,18 L4,18 L0,14 Z " fill="#634D65" transform="translate(440,702)"/>
<path d="M0,0 L3,1 L2,12 L-1,17 L-2,17 L-2,12 L0,12 Z " fill="#BA9FBE" transform="translate(699,636)"/>
<path d="M0,0 L2,0 L2,6 L5,7 L4,17 L2,16 L0,6 Z " fill="#9E859A" transform="translate(477,634)"/>
<path d="M0,0 L2,1 L1,3 L-1,3 L0,10 L-2,14 L-3,14 L-3,9 L-5,9 L-6,12 L-6,8 L-4,8 L-4,6 L-2,6 L-2,2 L0,2 Z " fill="#6D5468" transform="translate(550,476)"/>
<path d="M0,0 L4,1 L3,6 L8,6 L5,9 L0,7 Z M-1,7 Z M-2,8 Z " fill="#8B718C" transform="translate(608,424)"/>
<path d="M0,0 L1,2 L3,2 L1,6 L0,7 L-5,7 L-7,2 L0,2 Z " fill="#7B6A77" transform="translate(710,321)"/>
<path d="M0,0 L5,0 L5,2 L9,2 L9,4 L-2,4 L-4,2 Z " fill="#A98CAA" transform="translate(579,693)"/>
<path d="M0,0 L4,1 L13,1 L13,4 L-1,4 Z " fill="#B294B0" transform="translate(625,690)"/>
<path d="M0,0 L1,0 L2,14 L1,22 L0,22 L0,14 L-2,14 L-2,10 L0,10 Z " fill="#130F14" transform="translate(746,674)"/>
<path d="M0,0 L6,0 L2,2 L-6,10 L-8,14 L-8,8 L-6,8 L-4,4 L0,2 Z " fill="#151016" transform="translate(756,660)"/>
<path d="M0,0 L1,2 L4,1 L4,3 L-1,3 L0,6 L-5,9 L-5,7 L-8,8 L-8,6 L-6,6 L-6,4 L-2,4 Z " fill="#6B5468" transform="translate(408,592)"/>
<path d="M0,0 L2,4 L1,6 L-1,5 L-1,7 L1,7 L0,10 L-5,13 L-5,9 L-3,9 L-3,7 L-6,6 L-2,6 L-2,4 L0,4 Z " fill="#6E5669" transform="translate(564,452)"/>
<path d="M0,0 L5,1 L3,5 L-2,7 L-4,5 L-4,2 L-1,2 L-1,4 L1,3 Z " fill="#7B687C" transform="translate(649,349)"/>
<path d="M0,0 L8,0 L14,2 L12,4 L8,3 L0,3 Z " fill="#AF93B0" transform="translate(640,696)"/>
<path d="M0,0 L8,0 L9,6 L6,6 L5,2 L0,2 Z " fill="#987E97" transform="translate(491,679)"/>
<path d="M0,0 L2,0 L1,5 L-3,8 L-6,7 L-6,5 L0,4 Z M-8,8 L-3,8 L-4,10 L-8,10 Z " fill="#795F75" transform="translate(415,587)"/>
<path d="M0,0 L2,1 L1,5 L-2,8 L-4,13 L-5,13 L-5,7 L-1,1 Z " fill="#8C7087" transform="translate(570,476)"/>
<path d="M0,0 L4,0 L5,3 L3,5 L0,4 L-6,5 L-5,2 L0,2 Z " fill="#887589" transform="translate(684,343)"/>
<path d="M0,0 L4,1 L4,4 L-1,6 L-4,5 L-4,1 Z " fill="#7B6D78" transform="translate(737,328)"/>
<path d="M0,0 L2,0 L1,7 L-5,7 L-6,4 L-2,4 Z " fill="#785D7B" transform="translate(547,734)"/>
<path d="M0,0 L11,0 L12,3 L8,4 L0,2 Z " fill="#987B91" transform="translate(512,548)"/>
<path d="M0,0 L2,2 L2,5 L0,5 L-1,9 L-1,7 L-7,8 L-6,6 L-4,6 L-4,4 Z " fill="#9A7F96" transform="translate(592,473)"/>
<path d="M0,0 L0,3 L-5,5 L-5,7 L-9,7 L-7,1 L-5,1 L-5,3 L-3,3 L-3,1 Z " fill="#7B6175" transform="translate(484,536)"/>
<path d="M0,0 L2,0 L2,3 L4,3 L4,11 L2,11 L0,5 L-1,2 Z " fill="#7D6C7A" transform="translate(761,353)"/>
<path d="M0,0 L6,0 L6,3 L-5,3 L-5,1 Z " fill="#7A5F7D" transform="translate(460,720)"/>
<path d="M0,0 L0,3 L-1,4 L-8,4 L-8,6 L-10,5 L-7,1 Z " fill="#9C819F" transform="translate(688,713)"/>
<path d="M0,0 L4,1 L5,4 L4,10 L2,10 L2,4 L0,4 Z " fill="#785F7A" transform="translate(439,682)"/>
<path d="M0,0 L1,4 L-3,12 L-4,12 L-3,3 Z M-5,12 Z " fill="#A58AA9" transform="translate(704,664)"/>
<path d="M0,0 L2,0 L1,4 L-10,4 L-10,2 L-1,1 Z " fill="#7E6479" transform="translate(453,565)"/>
<path d="M0,0 L5,1 L2,2 L2,5 L-3,7 L-2,2 Z " fill="#806679" transform="translate(483,540)"/>
<path d="M0,0 L2,0 L3,4 L-1,7 L-3,7 L-3,1 Z " fill="#8C7086" transform="translate(558,498)"/>
<path d="M0,0 L2,1 L2,7 L0,7 L-1,11 L-2,1 Z " fill="#0B090B" transform="translate(564,445)"/>
<path d="M0,0 L3,3 L1,10 L-1,10 L-1,1 Z " fill="#7A617B" transform="translate(438,671)"/>
<path d="M0,0 L1,0 L1,7 L-1,13 L-3,11 L-1,7 L-3,6 L-1,1 Z " fill="#826986" transform="translate(731,666)"/>
<path d="M0,0 L0,3 L-4,8 L-6,8 L-7,1 L-5,1 L-5,3 Z " fill="#7C6378" transform="translate(462,560)"/>
<path d="M0,0 L2,1 L1,3 L3,3 L1,7 L-3,7 L-2,2 L0,2 Z " fill="#70596B" transform="translate(474,540)"/>
<path d="M0,0 L5,0 L2,7 L-2,6 Z " fill="#A389A6" transform="translate(612,472)"/>
<path d="M0,0 L3,1 L1,8 L-2,9 L-3,6 Z " fill="#82697E" transform="translate(591,428)"/>
<path d="M0,0 L2,1 L2,6 L0,7 L0,5 L-5,4 L-5,2 Z " fill="#765E7A" transform="translate(719,720)"/>
<path d="M0,0 L3,0 L3,3 L1,4 L0,8 L-3,7 L-2,2 Z " fill="#775F78" transform="translate(447,676)"/>
<path d="M0,0 L4,0 L5,9 L2,9 L2,3 L0,3 Z " fill="#B197B0" transform="translate(497,648)"/>
<path d="M0,0 L2,0 L2,12 L0,12 L-1,6 Z M-1,12 Z " fill="#9A879A" transform="translate(741,432)"/>
<path d="M0,0 L3,0 L3,2 L6,3 L4,3 L4,5 L-4,5 L-3,3 L0,3 Z " fill="#806D81" transform="translate(678,338)"/>
<path d="M0,0 L7,0 L10,2 L9,4 L5,4 L5,2 L0,2 Z " fill="#775D7A" transform="translate(445,717)"/>
<path d="M0,0 L3,2 L2,8 L5,9 L1,9 L1,5 L-3,3 L0,2 Z " fill="#685365" transform="translate(415,647)"/>
<path d="M0,0 L2,0 L1,4 L-2,8 L-6,8 L-6,6 L-4,6 L-4,4 L-1,3 Z " fill="#7B6177" transform="translate(429,573)"/>
<path d="M0,0 L1,2 L4,1 L7,0 L6,4 L0,5 L-2,3 Z M-3,4 Z " fill="#77617A" transform="translate(732,706)"/>
<path d="M0,0 L3,1 L1,14 L-1,15 L-2,10 L0,5 Z " fill="#967C95" transform="translate(562,511)"/>
<path d="M0,0 L1,4 L-2,6 L-6,2 L-2,1 Z " fill="#AA94A9" transform="translate(724,459)"/>
<path d="M0,0 L3,1 L0,4 L-8,4 L-8,2 L-1,1 Z " fill="#8F7693" transform="translate(696,719)"/>
<path d="M0,0 L5,0 L2,4 L-4,5 L-4,3 L-2,3 L-2,1 Z " fill="#715F72" transform="translate(656,343)"/>
<path d="M0,0 L4,2 L3,6 L-2,5 Z " fill="#7C627F" transform="translate(541,724)"/>
<path d="M0,0 L2,4 L-1,8 L-1,3 L-3,3 L-3,8 L-4,8 L-4,2 L0,2 Z " fill="#685465" transform="translate(394,608)"/>
<path d="M0,0 L6,0 L5,4 L2,6 Z " fill="#7B6174" transform="translate(482,527)"/>
<path d="M0,0 L10,0 L11,2 L4,2 L2,3 L0,2 Z " fill="#876D89" transform="translate(509,701)"/>
<path d="M0,0 L2,2 L-5,8 L-7,6 L-2,4 L-2,2 L0,2 Z M-8,7 Z " fill="#8E758A" transform="translate(476,564)"/>
<path d="M0,0 L5,0 L3,4 L-4,4 L-4,2 L0,2 Z " fill="#92758C" transform="translate(516,542)"/>
<path d="M0,0 L3,1 L3,3 L1,3 L1,5 L-3,5 L-4,8 L-4,4 L-2,4 Z " fill="#695162" transform="translate(500,514)"/>
<path d="M0,0 L1,0 L1,6 L-4,9 L-3,4 L-1,4 Z " fill="#82667D" transform="translate(564,472)"/>
<path d="M0,0 L1,3 L3,4 L1,4 L1,6 L-5,6 Z " fill="#644F61" transform="translate(576,430)"/>
<path d="M0,0 L6,0 L6,1 L1,1 L1,5 L-5,6 L-2,2 L0,2 Z " fill="#625161" transform="translate(638,352)"/>
<path d="M0,0 L2,0 L1,4 L0,2 L-2,2 L-1,5 L-9,4 L-9,3 L-3,3 L-3,1 Z " fill="#6C596A" transform="translate(635,357)"/>
<path d="M0,0 L3,0 L3,3 L0,6 L-3,9 Z " fill="#91788E" transform="translate(459,586)"/>
<path d="M0,0 L4,1 L1,1 L1,3 L-1,3 L0,6 L-3,7 L-3,5 L-6,4 L-2,4 L-2,2 L0,2 Z " fill="#655062" transform="translate(424,576)"/>
<path d="M0,0 L2,0 L3,3 L-2,5 L-4,4 L-4,2 Z " fill="#7B5E75" transform="translate(531,497)"/>
<path d="M0,0 L1,4 L3,4 L3,6 L1,6 L1,12 L0,12 L-1,4 Z " fill="#5F4C63" transform="translate(763,644)"/>
<path d="M0,0 L4,0 L3,6 L2,4 L0,4 Z " fill="#0D0A0E" transform="translate(764,644)"/>
<path d="M0,0 L6,1 L5,4 L1,4 Z " fill="#796276" transform="translate(403,639)"/>
<path d="M0,0 L2,0 L0,4 L-6,4 L-6,2 Z " fill="#7C6178" transform="translate(401,599)"/>
<path d="M0,0 L3,0 L3,5 L-2,5 L0,4 Z " fill="#3E303F" transform="translate(447,680)"/>
<path d="M0,0 L3,0 L3,2 L5,2 L4,6 L2,6 Z " fill="#7B627B" transform="translate(429,659)"/>
<path d="M0,0 L2,1 L1,5 L-5,6 L-2,2 L0,2 Z " fill="#634E60" transform="translate(414,586)"/>
<path d="M0,0 L4,1 L3,5 L0,6 Z " fill="#8A7186" transform="translate(480,553)"/>
<path d="M0,0 L2,0 L2,6 L-2,6 Z " fill="#7C5F76" transform="translate(545,485)"/>
<path d="M0,0 L2,1 L1,5 L-5,6 L-2,2 L0,2 Z " fill="#634E60" transform="translate(582,424)"/>
<path d="M0,0 L2,3 L-3,7 L-2,2 Z " fill="#876E84" transform="translate(612,388)"/>
<path d="M0,0 Z M-1,1 L0,4 L-4,6 L-6,5 L-6,3 Z " fill="#8B788C" transform="translate(652,367)"/>
<path d="M0,0 L5,0 L5,4 L1,3 Z " fill="#785E7B" transform="translate(551,736)"/>
<path d="M0,0 L2,0 L1,3 L-3,4 L-3,2 Z M-6,4 L-3,5 L-6,6 Z " fill="#AF94B3" transform="translate(694,672)"/>
<path d="M0,0 L2,0 L2,6 L0,7 L-1,2 Z " fill="#BCA2B7" transform="translate(503,618)"/>
<path d="M0,0 L4,0 L2,4 L-1,5 Z " fill="#82697E" transform="translate(456,570)"/>
<path d="M0,0 Z M-4,1 L5,2 L5,3 L-2,5 Z " fill="#A0849B" transform="translate(506,560)"/>
<path d="M0,0 L2,1 L0,8 L-2,7 L-1,1 Z " fill="#81657C" transform="translate(557,480)"/>
<path d="M0,0 L3,1 L4,4 L0,5 Z " fill="#7A617A" transform="translate(451,679)"/>
<path d="M0,0 L2,0 L2,2 L0,2 L-1,6 L-3,6 L-3,2 Z " fill="#836A7F" transform="translate(478,550)"/>
<path d="M0,0 L1,2 L3,2 L3,4 L1,4 L0,8 L-1,2 Z " fill="#120E11" transform="translate(479,526)"/>
<path d="M0,0 L3,1 L1,5 L-3,5 L-3,3 Z " fill="#866C82" transform="translate(572,460)"/>
<path d="M0,0 L1,4 L-2,7 L-3,2 Z " fill="#8B7188" transform="translate(612,412)"/>
<path d="M0,0 L4,1 L1,1 L1,5 L-2,6 L-2,2 L0,2 Z " fill="#695566" transform="translate(604,372)"/>
<path d="M0,0 L4,0 L4,3 L-2,2 Z " fill="#9C7E98" transform="translate(544,545)"/>
<path d="M0,0 L3,1 L3,4 L-2,3 Z " fill="#7D617E" transform="translate(519,723)"/>
<path d="M0,0 L3,4 L0,8 Z " fill="#856B89" transform="translate(724,680)"/>
<path d="M0,0 L1,0 L1,5 L-2,4 L-2,1 Z " fill="#957C92" transform="translate(474,644)"/>
<path d="M0,0 L2,0 L1,4 L-3,4 L-2,2 Z " fill="#6E5B71" transform="translate(737,706)"/>
<path d="M0,0 L3,0 L3,4 L0,3 Z " fill="#7A627C" transform="translate(444,680)"/>
<path d="M0,0 L2,0 L2,4 L-1,4 Z " fill="#7D6579" transform="translate(418,651)"/>
<path d="M0,0 L2,0 L1,4 L-2,4 Z " fill="#AD93AC" transform="translate(495,648)"/>
<path d="M0,0 L3,0 L2,4 L0,5 Z " fill="#B9A0B8" transform="translate(503,644)"/>
<path d="M0,0 L1,4 L-2,5 L-1,1 Z " fill="#B196B5" transform="translate(722,620)"/>
<path d="M0,0 L3,0 L3,2 L1,2 L1,4 L-1,4 Z " fill="#7C6278" transform="translate(418,581)"/>
<path d="M0,0 L1,3 L3,3 L3,6 L0,5 Z " fill="#030203" transform="translate(564,440)"/>
<path d="M0,0 L1,3 L3,3 L3,6 L0,5 Z " fill="#030203" transform="translate(590,390)"/>
<path d="M0,0 L3,0 L3,3 L-1,3 Z " fill="#9A839D" transform="translate(673,381)"/>
<path d="M0,0 L5,0 L2,3 L0,3 Z " fill="#867487" transform="translate(640,367)"/>
<path d="M0,0 L5,1 L4,3 L0,2 Z " fill="#897889" transform="translate(696,346)"/>
<path d="M0,0 L4,2 L-1,3 Z " fill="#816381" transform="translate(541,724)"/>
<path d="M0,0 L2,2 L-3,4 L-3,2 Z " fill="#9E83A2" transform="translate(657,712)"/>
</svg>
