<?xml version="1.0" encoding="UTF-8"?>
<!-- Generator: visioncortex VTracer 0.6.4 -->
<svg version="1.1" xmlns="http://www.w3.org/2000/svg" width="1024" height="1024">
<path d="M0,0 L1024,0 L1024,1024 L0,1024 Z " fill="#000000" transform="translate(0,0)"/>
<path d="M0,0 L2,0 L2,2 L10,2 L10,4 L16,4 L16,6 L22,6 L24,9 L30,10 L34,14 L34,12 L36,12 L36,14 L42,14 L42,18 L46,20 L48,24 L50,24 L50,34 L52,34 L52,40 L54,40 L54,54 L52,54 L52,58 L50,58 L50,66 L48,66 L48,72 L50,72 L50,76 L48,76 L48,86 L46,86 L46,96 L44,96 L44,112 L42,112 L42,126 L44,126 L44,136 L42,136 L42,158 L40,158 L40,166 L38,166 L38,180 L36,180 L36,184 L34,184 L34,190 L32,190 L32,196 L30,196 L30,236 L28,236 L28,246 L26,246 L26,248 L28,248 L28,251 L26,251 L26,258 L24,258 L25,286 L24,314 L22,314 L22,334 L20,334 L20,340 L18,340 L18,374 L16,374 L16,384 L14,384 L14,396 L12,396 L12,410 L10,410 L10,416 L8,416 L8,418 L6,418 L7,426 L6,436 L4,436 L4,438 L2,438 L2,444 L0,444 L0,450 L-2,450 L-2,452 L-4,452 L-4,458 L-6,458 L-6,464 L-10,464 L-10,468 L-12,468 L-12,470 L-14,470 L-14,472 L-19,476 L-20,478 L-22,478 L-22,482 L-26,482 L-26,486 L-30,486 L-30,490 L-36,490 L-36,492 L-42,492 L-42,494 L-48,494 L-48,496 L-52,500 L-56,500 L-56,502 L-58,502 L-58,508 L-60,508 L-60,510 L-64,510 L-64,512 L-68,512 L-68,514 L-72,514 L-72,516 L-76,516 L-76,518 L-80,518 L-80,520 L-82,520 L-82,522 L-86,522 L-86,524 L-94,524 L-94,528 L-104,528 L-104,530 L-108,530 L-108,532 L-124,532 L-124,534 L-174,534 L-174,538 L-222,538 L-222,540 L-227,539 L-230,536 L-230,534 L-234,534 L-234,532 L-236,532 L-236,530 L-234,530 L-235,514 L-238,512 L-238,510 L-236,510 L-236,506 L-234,506 L-234,504 L-236,504 L-236,500 L-234,500 L-236,495 L-240,492 L-240,488 L-242,488 L-242,484 L-240,484 L-240,482 L-244,482 L-248,478 L-248,476 L-246,476 L-246,466 L-248,466 L-248,460 L-246,460 L-246,458 L-248,458 L-248,454 L-246,454 L-246,446 L-244,446 L-244,438 L-242,438 L-242,418 L-240,418 L-240,402 L-242,402 L-242,378 L-248,378 L-247,373 L-248,370 L-246,370 L-246,368 L-244,368 L-244,358 L-246,358 L-246,346 L-244,346 L-244,340 L-238,340 L-238,338 L-236,338 L-236,334 L-230,334 L-230,330 L-228,330 L-228,326 L-226,326 L-226,322 L-224,322 L-224,318 L-222,318 L-222,314 L-218,314 L-218,308 L-216,308 L-216,294 L-214,294 L-214,292 L-212,292 L-212,286 L-210,286 L-210,282 L-208,282 L-208,276 L-206,276 L-206,272 L-204,272 L-204,266 L-202,266 L-202,260 L-200,260 L-200,256 L-198,256 L-198,250 L-196,250 L-196,244 L-194,244 L-194,240 L-192,240 L-192,234 L-188,234 L-188,232 L-190,232 L-190,224 L-192,224 L-192,218 L-188,218 L-188,216 L-186,216 L-186,202 L-184,202 L-184,196 L-182,196 L-182,194 L-180,194 L-180,190 L-178,190 L-178,188 L-176,188 L-176,182 L-174,182 L-174,180 L-172,180 L-171,175 L-164,168 L-162,168 L-162,166 L-158,166 L-158,162 L-156,162 L-156,160 L-154,160 L-154,154 L-152,154 L-152,144 L-148,140 L-146,140 L-146,138 L-142,138 L-142,134 L-138,134 L-138,132 L-132,132 L-132,130 L-130,130 L-130,124 L-128,124 L-128,122 L-124,122 L-124,120 L-126,120 L-126,116 L-120,116 L-118,112 L-114,108 L-112,108 L-112,106 L-110,106 L-110,98 L-106,96 L-106,94 L-104,94 L-103,89 L-100,86 L-98,86 L-98,84 L-96,84 L-96,82 L-90,82 L-90,80 L-88,80 L-88,76 L-86,76 L-86,78 L-82,78 L-82,76 L-80,76 L-79,71 L-76,68 L-74,68 L-74,66 L-72,66 L-72,64 L-70,64 L-70,62 L-68,62 L-68,60 L-66,60 L-66,56 L-62,56 L-62,52 L-60,52 L-60,50 L-58,50 L-57,45 L-54,44 L-54,42 L-52,42 L-52,40 L-50,40 L-50,38 L-48,38 L-48,36 L-46,36 L-46,32 L-42,32 L-42,28 L-40,28 L-40,26 L-36,26 L-35,21 L-32,20 L-32,18 L-28,18 L-28,16 L-26,16 L-26,14 L-22,14 L-22,12 L-20,12 L-20,10 L-18,10 L-18,8 L-10,8 L-10,6 L-8,6 L-8,4 L-4,4 L-4,2 L0,2 Z " fill="#BBA0A8" transform="translate(814,198)"/>
<path d="M0,0 L1,0 L1,26 L3,26 L3,0 L4,0 L5,28 L4,56 L2,56 L2,76 L0,76 L0,82 L-2,82 L-2,116 L-4,116 L-4,126 L-6,126 L-6,138 L-8,138 L-8,152 L-10,152 L-10,158 L-12,158 L-12,160 L-14,160 L-13,168 L-14,178 L-16,178 L-16,180 L-18,180 L-18,186 L-20,186 L-20,192 L-22,192 L-22,194 L-24,194 L-24,200 L-26,200 L-26,206 L-30,206 L-30,210 L-32,210 L-32,212 L-34,212 L-34,214 L-39,218 L-40,220 L-42,220 L-42,224 L-46,224 L-46,228 L-50,228 L-50,232 L-56,232 L-56,234 L-62,234 L-62,236 L-68,236 L-68,238 L-72,242 L-76,242 L-76,244 L-78,244 L-78,250 L-80,250 L-80,252 L-84,252 L-84,254 L-88,254 L-88,256 L-92,256 L-92,258 L-96,258 L-96,260 L-100,260 L-100,262 L-102,262 L-102,264 L-106,264 L-106,266 L-114,266 L-114,270 L-124,270 L-124,272 L-128,272 L-128,274 L-144,274 L-144,276 L-194,276 L-194,280 L-242,280 L-242,282 L-247,281 L-250,278 L-250,276 L-254,276 L-254,274 L-256,274 L-256,272 L-254,272 L-255,256 L-258,254 L-258,252 L-256,252 L-256,248 L-254,248 L-254,246 L-256,246 L-256,242 L-254,242 L-256,237 L-260,234 L-260,230 L-262,230 L-262,226 L-260,226 L-260,224 L-264,224 L-268,220 L-268,218 L-266,218 L-266,208 L-268,208 L-268,202 L-266,202 L-266,200 L-268,200 L-268,196 L-266,196 L-266,188 L-264,188 L-264,180 L-262,180 L-262,160 L-260,160 L-260,144 L-262,144 L-262,120 L-268,120 L-267,115 L-268,112 L-266,112 L-266,110 L-264,110 L-264,100 L-266,100 L-266,88 L-264,88 L-264,82 L-258,82 L-258,80 L-256,80 L-256,76 L-250,76 L-250,72 L-248,72 L-248,68 L-246,68 L-246,64 L-244,64 L-244,60 L-242,60 L-242,56 L-238,57 L-241,57 L-241,59 L-238,59 L-239,63 L-243,71 L-244,76 L-247,77 L-252,82 L-257,85 L-261,91 L-260,100 L-259,110 L-259,112 L-257,112 L-256,117 L-258,120 L-257,127 L-257,142 L-256,144 L-255,161 L-257,163 L-258,180 L-262,197 L-261,201 L-262,204 L-261,219 L-259,223 L-253,224 L-252,229 L-250,232 L-252,235 L-252,237 L-250,237 L-250,248 L-252,254 L-250,255 L-249,274 L-243,276 L-195,275 L-195,272 L-182,271 L-162,271 L-162,270 L-151,270 L-147,271 L-145,270 L-131,269 L-125,266 L-118,265 L-115,262 L-105,259 L-102,256 L-97,254 L-95,252 L-86,248 L-83,246 L-80,241 L-76,237 L-71,234 L-66,229 L-59,228 L-53,226 L-50,220 L-47,219 L-46,217 L-41,214 L-37,209 L-35,209 L-34,202 L-32,201 L-30,200 L-28,193 L-26,191 L-26,182 L-24,178 L-25,164 L-24,163 L-24,157 L-24,154 L-24,149 L-29,161 L-30,167 L-32,163 L-32,155 L-30,155 L-30,149 L-34,150 L-34,146 L-32,146 L-30,136 L-26,128 L-27,121 L-26,120 L-25,84 L-23,61 L-22,56 L-19,56 L-18,53 L-21,52 L-22,49 L-21,44 L-22,40 L-23,34 L-19,31 L-17,31 L-18,25 L-18,17 L-17,16 L-8,16 L-8,12 L-3,12 Z M-23,40 Z M-27,126 Z M-34,156 L-32,157 L-34,158 Z M-182,270 Z " fill="#A78D9B" transform="translate(834,456)"/>
<path d="M0,0 L2,0 L2,2 L10,2 L10,4 L16,4 L16,6 L22,6 L24,9 L30,10 L34,14 L34,12 L36,12 L36,14 L42,14 L42,18 L46,20 L48,24 L50,24 L50,34 L52,34 L52,40 L54,40 L54,54 L52,54 L52,58 L50,58 L50,66 L48,66 L48,72 L50,72 L50,76 L48,76 L48,86 L46,86 L46,96 L44,96 L44,112 L42,112 L42,126 L44,126 L44,136 L42,136 L42,158 L40,158 L40,166 L38,166 L38,180 L36,180 L36,184 L34,184 L34,190 L32,190 L32,196 L30,196 L30,236 L28,236 L28,246 L26,246 L26,248 L28,248 L28,251 L26,251 L26,258 L25,258 L24,248 L25,246 L22,246 L24,235 L26,235 L25,229 L23,227 L23,218 L19,219 L18,218 L17,209 L21,199 L17,198 L18,190 L18,186 L20,185 L21,163 L21,160 L20,158 L22,148 L23,122 L27,122 L28,120 L30,120 L31,122 L35,123 L30,126 L28,129 L26,129 L26,132 L30,134 L30,131 L32,130 L39,130 L38,127 L38,103 L39,102 L39,94 L42,85 L43,84 L44,73 L43,70 L44,62 L46,62 L46,55 L49,51 L50,41 L48,41 L44,27 L41,22 L36,20 L35,17 L31,18 L27,16 L26,14 L21,12 L21,7 L15,9 L12,10 L10,7 L15,7 L15,5 L9,7 L6,9 L0,9 L-4,8 L-13,16 L-19,16 L-31,25 L-37,33 L-39,35 L-39,38 L-33,38 L-33,40 L-31,42 L-33,46 L-39,48 L-44,54 L-51,58 L-52,65 L-57,68 L-65,69 L-68,72 L-71,73 L-75,79 L-80,83 L-86,84 L-92,89 L-96,90 L-100,95 L-102,99 L-105,101 L-107,108 L-114,116 L-117,119 L-120,119 L-121,124 L-125,128 L-129,135 L-137,138 L-142,143 L-144,145 L-147,147 L-147,155 L-152,164 L-157,170 L-165,177 L-169,182 L-170,185 L-164,185 L-166,188 L-166,186 L-170,190 L-173,191 L-177,197 L-179,204 L-181,206 L-182,217 L-186,223 L-184,231 L-185,237 L-190,244 L-196,261 L-199,269 L-201,276 L-202,281 L-201,285 L-205,287 L-204,296 L-205,300 L-203,301 L-205,303 L-204,304 L-204,310 L-205,315 L-207,314 L-208,310 L-206,310 L-206,305 L-213,311 L-215,314 L-215,309 L-217,309 L-217,314 L-218,314 L-218,308 L-216,308 L-216,294 L-214,294 L-214,292 L-212,292 L-212,286 L-210,286 L-210,282 L-208,282 L-208,276 L-206,276 L-206,272 L-204,272 L-204,266 L-202,266 L-202,260 L-200,260 L-200,256 L-198,256 L-198,250 L-196,250 L-196,244 L-194,244 L-194,240 L-192,240 L-192,234 L-188,234 L-188,232 L-190,232 L-190,224 L-192,224 L-192,218 L-188,218 L-188,216 L-186,216 L-186,202 L-184,202 L-184,196 L-182,196 L-182,194 L-180,194 L-180,190 L-178,190 L-178,188 L-176,188 L-176,182 L-174,182 L-174,180 L-172,180 L-171,175 L-164,168 L-162,168 L-162,166 L-158,166 L-158,162 L-156,162 L-156,160 L-154,160 L-154,154 L-152,154 L-152,144 L-148,140 L-146,140 L-146,138 L-142,138 L-142,134 L-138,134 L-138,132 L-132,132 L-132,130 L-130,130 L-130,124 L-128,124 L-128,122 L-124,122 L-124,120 L-126,120 L-126,116 L-120,116 L-118,112 L-114,108 L-112,108 L-112,106 L-110,106 L-110,98 L-106,96 L-106,94 L-104,94 L-103,89 L-100,86 L-98,86 L-98,84 L-96,84 L-96,82 L-90,82 L-90,80 L-88,80 L-88,76 L-86,76 L-86,78 L-82,78 L-82,76 L-80,76 L-79,71 L-76,68 L-74,68 L-74,66 L-72,66 L-72,64 L-70,64 L-70,62 L-68,62 L-68,60 L-66,60 L-66,56 L-62,56 L-62,52 L-60,52 L-60,50 L-58,50 L-57,45 L-54,44 L-54,42 L-52,42 L-52,40 L-50,40 L-50,38 L-48,38 L-48,36 L-46,36 L-46,32 L-42,32 L-42,28 L-40,28 L-40,26 L-36,26 L-35,21 L-32,20 L-32,18 L-28,18 L-28,16 L-26,16 L-26,14 L-22,14 L-22,12 L-20,12 L-20,10 L-18,10 L-18,8 L-10,8 L-10,6 L-8,6 L-8,4 L-4,4 L-4,2 L0,2 Z M-51,58 Z M16,198 Z " fill="#99888F" transform="translate(814,198)"/>
<path d="M0,0 L4,1 L1,1 L1,3 L4,3 L3,7 L-1,15 L-2,20 L-5,21 L-10,26 L-15,29 L-19,35 L-18,44 L-17,54 L-17,56 L-15,56 L-14,61 L-16,64 L-15,71 L-15,86 L-14,88 L-13,105 L-15,107 L-16,124 L-20,141 L-19,145 L-20,148 L-19,163 L-17,167 L-11,168 L-10,173 L-8,176 L-10,179 L-10,181 L-8,181 L-8,192 L-10,198 L-8,199 L-7,218 L-1,220 L47,219 L47,216 L60,215 L80,215 L80,214 L91,214 L95,215 L97,214 L111,213 L117,210 L124,209 L127,206 L137,203 L140,200 L145,198 L147,196 L156,192 L159,190 L162,185 L166,181 L171,178 L176,173 L183,172 L189,170 L192,164 L195,163 L196,161 L201,158 L205,153 L207,153 L208,146 L210,145 L212,144 L214,137 L216,135 L216,126 L218,122 L217,108 L220,100 L221,104 L224,104 L224,102 L227,102 L228,87 L230,81 L232,81 L233,79 L233,81 L235,81 L235,70 L236,70 L236,82 L234,82 L234,96 L232,96 L232,102 L230,102 L230,104 L228,104 L229,112 L228,122 L226,122 L226,124 L224,124 L224,130 L222,130 L222,136 L220,136 L220,138 L218,138 L218,144 L216,144 L216,150 L212,150 L212,154 L210,154 L210,156 L208,156 L208,158 L203,162 L202,164 L200,164 L200,168 L196,168 L196,172 L192,172 L192,176 L186,176 L186,178 L180,178 L180,180 L174,180 L174,182 L170,186 L166,186 L166,188 L164,188 L164,194 L162,194 L162,196 L158,196 L158,198 L154,198 L154,200 L150,200 L150,202 L146,202 L146,204 L142,204 L142,206 L140,206 L140,208 L136,208 L136,210 L128,210 L128,214 L118,214 L118,216 L114,216 L114,218 L98,218 L98,220 L48,220 L48,224 L0,224 L0,226 L-5,225 L-8,222 L-8,220 L-12,220 L-12,218 L-14,218 L-14,216 L-12,216 L-13,200 L-16,198 L-16,196 L-14,196 L-14,192 L-12,192 L-12,190 L-14,190 L-14,186 L-12,186 L-14,181 L-18,178 L-18,174 L-20,174 L-20,170 L-18,170 L-18,168 L-22,168 L-26,164 L-26,162 L-24,162 L-24,152 L-26,152 L-26,146 L-24,146 L-24,144 L-26,144 L-26,140 L-24,140 L-24,132 L-22,132 L-22,124 L-20,124 L-20,104 L-18,104 L-18,88 L-20,88 L-20,64 L-26,64 L-25,59 L-26,56 L-24,56 L-24,54 L-22,54 L-22,44 L-24,44 L-24,32 L-22,32 L-22,26 L-16,26 L-16,24 L-14,24 L-14,20 L-8,20 L-8,16 L-6,16 L-6,12 L-4,12 L-4,8 L-2,8 L-2,4 L0,4 Z M60,214 Z " fill="#9C888E" transform="translate(592,512)"/>
<path d="M0,0 L2,0 L2,2 L6,2 L6,0 L8,1 L7,3 L9,4 L4,7 L-4,13 L-8,14 L-12,19 L-14,23 L-17,25 L-19,32 L-26,40 L-29,43 L-32,43 L-33,48 L-37,52 L-41,59 L-49,62 L-54,67 L-56,69 L-59,71 L-59,79 L-64,88 L-69,94 L-77,101 L-81,106 L-82,109 L-76,109 L-78,112 L-78,110 L-82,114 L-85,115 L-89,121 L-91,128 L-93,130 L-94,141 L-98,147 L-96,155 L-97,161 L-102,168 L-108,185 L-111,193 L-113,200 L-114,205 L-113,209 L-117,211 L-116,220 L-117,224 L-115,225 L-117,227 L-116,228 L-116,234 L-117,239 L-119,238 L-120,234 L-118,234 L-118,229 L-125,235 L-127,238 L-127,233 L-129,233 L-129,238 L-130,238 L-130,232 L-128,232 L-128,218 L-126,218 L-126,216 L-124,216 L-124,210 L-122,210 L-122,206 L-120,206 L-120,200 L-118,200 L-118,196 L-116,196 L-116,190 L-114,190 L-114,184 L-112,184 L-112,180 L-110,180 L-110,174 L-108,174 L-108,168 L-106,168 L-106,164 L-104,164 L-104,158 L-100,158 L-100,156 L-102,156 L-102,148 L-104,148 L-104,142 L-100,142 L-100,140 L-98,140 L-98,126 L-96,126 L-96,120 L-94,120 L-94,118 L-92,118 L-92,114 L-90,114 L-90,112 L-88,112 L-88,106 L-86,106 L-86,104 L-84,104 L-83,99 L-76,92 L-74,92 L-74,90 L-70,90 L-70,86 L-68,86 L-68,84 L-66,84 L-66,78 L-64,78 L-64,68 L-60,64 L-58,64 L-58,62 L-54,62 L-54,58 L-50,58 L-50,56 L-44,56 L-44,54 L-42,54 L-42,48 L-40,48 L-40,46 L-36,46 L-36,44 L-38,44 L-38,40 L-32,40 L-30,36 L-26,32 L-24,32 L-24,30 L-22,30 L-22,22 L-18,20 L-18,18 L-16,18 L-15,13 L-12,10 L-10,10 L-10,8 L-8,8 L-8,6 L-2,6 L-2,4 L0,4 Z " fill="#9A8087" transform="translate(726,274)"/>
<path d="M0,0 L4,1 L1,1 L1,3 L4,3 L3,7 L-1,15 L-2,20 L-5,21 L-10,26 L-15,29 L-19,35 L-18,44 L-17,54 L-17,56 L-15,56 L-14,61 L-16,64 L-15,71 L-15,86 L-14,88 L-13,105 L-15,107 L-16,124 L-20,141 L-19,145 L-20,148 L-19,163 L-17,167 L-11,168 L-10,173 L-8,176 L-10,179 L-10,181 L-8,181 L-8,192 L-10,198 L-8,199 L-7,218 L-3,220 L0,221 L0,223 L47,223 L48,220 L48,224 L0,224 L0,226 L-5,225 L-8,222 L-8,220 L-12,220 L-12,218 L-14,218 L-14,216 L-12,216 L-13,200 L-16,198 L-16,196 L-14,196 L-14,192 L-12,192 L-12,190 L-14,190 L-14,186 L-12,186 L-14,181 L-18,178 L-18,174 L-20,174 L-20,170 L-18,170 L-18,168 L-22,168 L-26,164 L-26,162 L-24,162 L-24,152 L-26,152 L-26,146 L-24,146 L-24,144 L-26,144 L-26,140 L-24,140 L-24,132 L-22,132 L-22,124 L-20,124 L-20,104 L-18,104 L-18,88 L-20,88 L-20,64 L-26,64 L-25,59 L-26,56 L-24,56 L-24,54 L-22,54 L-22,44 L-24,44 L-24,32 L-22,32 L-22,26 L-16,26 L-16,24 L-14,24 L-14,20 L-8,20 L-8,16 L-6,16 L-6,12 L-4,12 L-4,8 L-2,8 L-2,4 L0,4 Z " fill="#987E85" transform="translate(592,512)"/>
<path d="M0,0 L2,0 L3,2 L7,3 L2,6 L0,9 L-2,9 L-2,12 L2,14 L2,11 L9,10 L10,15 L10,28 L8,28 L8,33 L10,33 L8,45 L6,45 L6,57 L3,58 L3,60 L0,60 L-3,70 L-4,72 L-4,92 L-5,98 L-9,99 L-10,98 L-11,89 L-7,79 L-11,78 L-10,70 L-10,66 L-8,65 L-7,43 L-7,40 L-8,38 L-6,28 L-5,2 L-1,2 Z M-12,78 Z " fill="#A7919D" transform="translate(842,318)"/>
<path d="M0,0 L3,1 L5,4 L3,8 L-3,10 L-8,16 L-15,20 L-16,27 L-21,30 L-29,31 L-32,34 L-35,35 L-39,41 L-44,45 L-46,44 L-44,42 L-45,39 L-43,33 L-40,30 L-38,30 L-38,28 L-36,28 L-36,26 L-34,26 L-34,24 L-32,24 L-32,22 L-30,22 L-30,18 L-26,18 L-26,14 L-24,14 L-24,12 L-22,12 L-21,7 L-18,6 L-18,4 L-13,3 L-13,5 L-11,5 L-10,2 Z M-15,20 Z " fill="#A48F96" transform="translate(778,236)"/>
<path d="M0,0 L1,0 L1,26 L3,26 L3,0 L4,0 L5,28 L4,56 L2,56 L2,76 L0,76 L0,82 L-2,82 L-2,116 L-4,116 L-4,126 L-5,126 L-5,116 L-7,116 L-7,125 L-8,125 L-8,111 L-7,110 L-7,86 L-6,79 L-4,79 L-3,74 L-2,45 L-1,38 Z " fill="#A68A99" transform="translate(834,456)"/>
<path d="M0,0 L2,1 L1,5 L3,5 L4,1 L5,6 L3,6 L3,16 L7,17 L9,21 L15,22 L16,27 L18,30 L16,33 L16,35 L18,35 L18,46 L16,52 L18,53 L19,72 L23,74 L26,75 L26,77 L73,77 L74,74 L74,78 L26,78 L26,80 L21,79 L18,76 L18,74 L14,74 L14,72 L12,72 L12,70 L14,70 L13,54 L10,52 L10,50 L12,50 L12,46 L14,46 L14,44 L12,44 L12,40 L14,40 L12,35 L8,32 L8,28 L6,28 L6,24 L8,24 L8,22 L4,22 L0,18 L0,16 L2,16 L2,6 L0,6 Z " fill="#927E81" transform="translate(566,658)"/>
<path d="M0,0 L2,1 L1,8 L3,8 L2,33 L1,35 L0,48 L2,48 L2,43 L4,42 L4,52 L3,53 L2,60 L1,61 L0,76 L-3,82 L-6,89 L-7,95 L-9,91 L-9,83 L-7,83 L-7,77 L-11,78 L-11,74 L-9,74 L-7,64 L-3,56 L-4,49 L-3,48 L-2,12 Z M-4,54 Z M-11,84 L-9,85 L-11,86 Z " fill="#AE95A2" transform="translate(811,528)"/>
<path d="M0,0 L1,2 L-1,2 L0,12 L-5,12 L-2,13 L-3,59 L-5,59 L-5,69 L-7,69 L-7,71 L-5,71 L-5,74 L-7,74 L-7,81 L-8,81 L-9,71 L-8,69 L-11,69 L-9,58 L-7,58 L-8,52 L-10,50 L-10,15 L-7,7 L-5,3 L-2,3 L-2,1 Z " fill="#A38C98" transform="translate(847,375)"/>
<path d="M0,0 L4,2 L2,11 L-2,20 L-4,23 L-5,36 L0,36 L0,23 L4,20 L3,25 L2,32 L4,32 L4,40 L2,43 L5,44 L4,54 L1,57 L0,53 L0,50 L-4,54 L-8,52 L-8,34 L-7,11 L-4,7 L-4,5 L0,5 Z " fill="#AC9398" transform="translate(594,628)"/>
<path d="M0,0 L4,1 L1,1 L1,3 L4,3 L3,7 L-1,15 L-2,20 L-5,21 L-10,26 L-15,29 L-19,35 L-18,44 L-17,54 L-17,56 L-15,57 L-17,57 L-18,61 L-21,61 L-21,58 L-23,58 L-23,62 L-20,64 L-26,64 L-25,59 L-26,56 L-24,56 L-24,54 L-22,54 L-22,44 L-24,44 L-24,32 L-22,32 L-22,26 L-16,26 L-16,24 L-14,24 L-14,20 L-8,20 L-8,16 L-6,16 L-6,12 L-4,12 L-4,8 L-2,8 L-2,4 L0,4 Z " fill="#93777E" transform="translate(592,512)"/>
<path d="M0,0 L2,0 L2,2 L0,2 L0,14 L-3,15 L-3,17 L-6,17 L-9,27 L-10,29 L-10,49 L-11,55 L-15,56 L-16,55 L-17,46 L-13,36 L-17,35 L-16,27 L-16,23 L-14,22 L-11,10 L-7,5 L-3,1 Z M-18,35 Z " fill="#A48D9A" transform="translate(848,361)"/>
<path d="M0,0 L1,0 L2,7 L2,21 L-3,24 L-3,30 L-1,31 L-1,38 L-2,40 L1,43 L0,47 L-3,47 L-4,51 L-8,51 L-9,57 L-10,57 L-10,50 L-9,47 L-11,47 L-11,41 L-9,34 L-11,33 L-11,30 L-11,28 L-8,27 L-5,18 L-4,16 L-3,2 L0,2 Z M-4,30 Z " fill="#B59AA8" transform="translate(815,466)"/>
<path d="M0,0 L2,0 L5,7 L4,17 L6,18 L4,20 L5,21 L5,27 L4,32 L2,31 L1,27 L3,27 L3,22 L-4,28 L-6,31 L-6,26 L-8,26 L-8,31 L-9,31 L-9,25 L-7,25 L-7,11 L-5,11 L-5,9 L-2,9 L-2,4 L0,4 L1,7 L2,3 L0,3 Z " fill="#A58890" transform="translate(605,481)"/>
<path d="M0,0 L2,0 L3,4 L9,4 L7,7 L7,5 L3,9 L0,10 L-4,16 L-6,23 L-8,25 L-9,36 L-14,41 L-16,40 L-16,42 L-18,42 L-18,38 L-15,38 L-15,35 L-13,35 L-13,21 L-11,21 L-11,15 L-9,15 L-9,13 L-7,13 L-7,9 L-5,9 L-5,7 L-2,7 L-2,2 L0,2 Z " fill="#9A8288" transform="translate(641,379)"/>
<path d="M0,0 L3,1 L5,4 L3,8 L-3,10 L-8,16 L-15,20 L-16,27 L-21,30 L-26,31 L-26,28 L-21,26 L-20,22 L-18,22 L-17,16 L-14,8 L-10,8 L-8,4 L-4,1 Z M-15,20 Z " fill="#AA949B" transform="translate(778,236)"/>
<path d="M0,0 L1,0 L1,20 L-1,20 L-1,26 L-3,26 L-3,60 L-5,60 L-5,70 L-6,70 L-6,60 L-8,60 L-8,69 L-9,69 L-9,55 L-8,54 L-8,30 L-7,23 L-5,23 L-4,18 L0,19 Z " fill="#A08694" transform="translate(835,512)"/>
<path d="M0,0 L2,4 L4,17 L5,19 L3,24 L3,47 L1,49 L-2,41 L-3,35 L-5,30 L-3,28 L-3,9 L-1,8 Z " fill="#B69DAB" transform="translate(809,432)"/>
<path d="M0,0 L8,0 L8,1 L1,1 L1,3 L-1,3 L-1,5 L-3,5 L-2,9 L-13,17 L-19,25 L-21,27 L-21,31 L-28,33 L-29,35 L-31,35 L-31,33 L-34,32 L-32,32 L-32,30 L-30,30 L-30,28 L-28,28 L-28,24 L-24,24 L-24,20 L-22,20 L-22,18 L-18,18 L-17,13 L-14,12 L-14,10 L-10,10 L-10,8 L-8,8 L-8,6 L-4,6 L-4,4 L-2,4 L-2,2 L0,2 Z " fill="#9F8A91" transform="translate(796,206)"/>
<path d="M0,0 L2,0 L3,2 L7,3 L2,6 L0,9 L-2,9 L-2,12 L2,14 L2,11 L4,12 L2,18 L2,26 L1,27 L0,34 L-4,35 L-7,40 L-8,38 L-6,28 L-5,2 L-1,2 Z " fill="#AE98A3" transform="translate(842,318)"/>
<path d="M0,0 L1,0 L1,12 L-1,12 L-1,26 L-3,26 L-3,32 L-5,32 L-5,34 L-7,34 L-6,42 L-7,52 L-8,52 L-8,42 L-10,42 L-10,51 L-11,51 L-11,32 L-8,32 L-7,17 L-5,11 L-3,11 L-2,9 L-2,11 L0,11 Z " fill="#977F8B" transform="translate(827,582)"/>
<path d="M0,0 L2,0 L3,4 L0,12 L-2,19 L-3,24 L-2,28 L-7,30 L-8,26 L-10,26 L-10,29 L-8,29 L-9,35 L-10,35 L-10,30 L-12,30 L-12,35 L-13,35 L-13,29 L-11,29 L-11,25 L-9,25 L-9,19 L-7,19 L-7,15 L-5,15 L-5,9 L-3,9 L-3,3 L0,3 Z " fill="#987E85" transform="translate(615,455)"/>
<path d="M0,0 L1,0 L1,40 L-1,40 L-1,50 L-3,50 L-3,52 L-1,52 L-1,55 L-3,55 L-3,62 L-4,62 L-5,52 L-4,50 L-7,50 L-5,39 L-3,39 L-4,33 L-6,31 L-6,22 L-3,22 L-2,24 L-2,39 L0,39 Z " fill="#947E8A" transform="translate(843,394)"/>
<path d="M0,0 L3,1 L3,36 L2,39 L3,44 L0,50 L-1,50 L-1,33 L0,31 L0,23 L-2,22 L-2,14 L0,11 Z M1,42 Z " fill="#B399A7" transform="translate(806,540)"/>
<path d="M0,0 L1,0 L2,30 L1,36 L-3,37 L-4,36 L-5,27 L-1,17 L-5,16 L-4,8 L-4,4 Z M-6,16 Z " fill="#A8919B" transform="translate(836,380)"/>
<path d="M0,0 L4,1 L2,1 L2,7 L0,7 L0,13 L-4,13 L-4,17 L-6,17 L-6,19 L-8,19 L-8,21 L-13,25 L-14,27 L-16,27 L-16,31 L-20,30 L-17,30 L-17,28 L-20,28 L-20,24 L-15,21 L-11,16 L-9,16 L-8,9 L-6,8 L-4,7 L-3,4 L-1,4 L-1,6 L1,6 Z " fill="#96818A" transform="translate(808,649)"/>
<path d="M0,0 L13,0 L13,4 L10,6 L4,6 L0,5 L-9,13 L-16,13 L-17,10 L-15,10 L-15,8 L-13,8 L-13,6 L-6,6 L-6,3 L-4,3 L-4,1 Z " fill="#9B8A90" transform="translate(810,201)"/>
<path d="M0,0 L6,0 L6,24 L8,24 L8,40 L6,40 L6,60 L4,60 L4,68 L3,68 L2,60 L2,40 L3,40 L3,59 L5,59 L4,40 L4,24 L5,1 L0,1 Z " fill="#141011" transform="translate(566,576)"/>
<path d="M0,0 L1,0 L1,16 L-1,16 L-1,30 L1,30 L1,40 L0,40 L0,31 L-2,31 L-2,39 L-3,39 L-3,31 L-5,31 L-5,7 L-3,1 L-2,1 L-2,15 L0,15 Z " fill="#95848A" transform="translate(857,294)"/>
<path d="M0,0 L1,0 L1,26 L3,26 L3,0 L4,0 L5,28 L4,56 L3,56 L3,28 L1,28 L1,40 L0,55 L-1,55 L-2,45 L-1,38 Z " fill="#8F7884" transform="translate(834,456)"/>
<path d="M0,0 L4,1 L1,1 L1,3 L4,3 L3,7 L-1,15 L-2,20 L-5,21 L-7,24 L-13,23 L-13,21 L-8,21 L-8,16 L-6,16 L-6,12 L-4,12 L-4,8 L-2,8 L-2,4 L0,4 Z " fill="#957B82" transform="translate(592,512)"/>
<path d="M0,0 L1,0 L1,8 L-1,8 L-1,22 L-3,22 L-3,26 L-5,26 L-5,32 L-7,32 L-7,38 L-8,38 L-8,32 L-10,32 L-10,37 L-11,37 L-11,31 L-9,31 L-9,26 L-8,26 L-8,31 L-6,31 L-7,21 L-5,21 L-5,7 L-3,7 L-2,5 L-2,7 L0,7 Z " fill="#937F8A" transform="translate(853,356)"/>
<path d="M0,0 L1,3 L0,8 L4,7 L4,13 L1,22 L0,22 L0,12 L-2,13 L-3,17 L-8,19 L-8,16 L-6,15 L-5,10 L-8,10 L-8,8 L-6,8 L-6,3 L-2,4 Z " fill="#AC9298" transform="translate(740,279)"/>
<path d="M0,0 L2,1 L1,3 L4,4 L4,16 L1,19 L-1,22 L-1,17 L-3,17 L-3,22 L-4,22 L-4,16 L-2,16 L-2,2 L0,2 Z " fill="#977E84" transform="translate(600,490)"/>
<path d="M0,0 L3,0 L3,12 L1,12 L1,38 L-1,38 L-2,12 L-2,8 L-1,3 Z " fill="#AA909F" transform="translate(836,444)"/>
<path d="M0,0 L2,1 L0,3 L-2,10 L0,10 L1,40 L-1,43 L-3,37 L-3,3 Z " fill="#BEA2B1" transform="translate(798,522)"/>
<path d="M0,0 L4,1 L1,1 L1,3 L5,4 L-3,11 L-8,17 L-9,15 L-11,15 L-11,17 L-13,17 L-13,22 L-14,22 L-14,16 L-12,16 L-12,14 L-10,14 L-9,9 L-2,2 L0,2 Z " fill="#957D82" transform="translate(652,364)"/>
<path d="M0,0 L3,1 L3,21 L2,38 L0,44 L-2,44 L-2,39 L-1,38 Z " fill="#B39DA6" transform="translate(835,308)"/>
<path d="M0,0 L2,0 L3,8 L-6,18 L-8,20 L-16,20 L-16,18 L-10,18 L-9,13 L-5,9 L-3,9 L-3,7 L0,7 Z " fill="#9D848A" transform="translate(705,297)"/>
<path d="M0,0 L2,0 L3,10 L3,13 L3,29 L0,29 L0,19 L0,18 L-2,18 L-1,11 L-3,11 L-3,7 L0,7 Z " fill="#9D8388" transform="translate(569,645)"/>
<path d="M0,0 L1,0 L1,20 L-1,20 L-1,26 L-3,26 L-3,60 L-4,60 L-4,26 L-7,27 L-7,23 L-5,23 L-4,18 L0,19 Z " fill="#87717D" transform="translate(835,512)"/>
<path d="M0,0 L2,4 L-5,3 L-5,5 L0,5 L-1,10 L-5,14 L-7,18 L-12,18 L-12,16 L-10,16 L-10,10 L-8,10 L-8,8 L-4,8 L-4,6 L-6,6 L-6,2 L0,2 Z " fill="#8B757A" transform="translate(694,312)"/>
<path d="M0,0 L3,1 L2,5 L1,6 L0,30 L-2,30 L-3,7 L-7,5 L-6,1 L-4,1 L-4,4 L-1,3 Z " fill="#A58990" transform="translate(575,569)"/>
<path d="M0,0 L2,1 L2,30 L1,40 L0,40 L0,30 L-2,30 L-2,16 L0,16 Z " fill="#131111" transform="translate(858,294)"/>
<path d="M0,0 L2,4 L4,9 L5,13 L0,15 L-1,11 L-3,11 L-3,14 L-1,14 L-2,20 L-3,20 L-3,15 L-5,15 L-5,20 L-6,20 L-6,14 L-4,14 L-4,10 L-2,10 L-2,4 L0,4 Z " fill="#967C82" transform="translate(608,470)"/>
<path d="M0,0 L1,0 L1,20 L3,20 L2,29 L0,36 L-1,36 L-1,29 L-3,29 L-3,36 L-4,36 L-4,28 L-2,28 L-2,20 L0,20 Z " fill="#8D757B" transform="translate(572,616)"/>
<path d="M0,0 L2,1 L3,4 L0,4 L0,7 L-4,7 L-4,9 L-8,9 L-8,11 L-14,12 L-14,10 L-11,10 L-10,5 L-5,3 L-3,1 Z " fill="#927E85" transform="translate(742,707)"/>
<path d="M0,0 L2,0 L3,4 L9,4 L7,7 L7,5 L3,9 L0,10 L-4,16 L-6,13 L-6,10 L-4,10 L-2,2 L0,2 Z " fill="#A48B91" transform="translate(641,379)"/>
<path d="M0,0 L2,0 L2,2 L10,2 L10,4 L16,4 L16,6 L22,6 L24,9 L30,10 L30,11 L22,13 L21,12 L21,7 L15,9 L12,10 L10,7 L15,7 L15,5 L10,6 L2,6 L2,5 L9,5 L9,3 L0,4 L-4,2 L0,2 Z " fill="#908086" transform="translate(814,198)"/>
<path d="M0,0 L2,1 L2,20 L-1,19 L0,28 L0,38 L-1,38 L-1,29 L-3,29 L-3,38 L-4,38 L-4,28 L-2,28 L-2,18 L0,18 L0,14 L-2,14 L-2,8 L0,8 Z " fill="#161414" transform="translate(864,256)"/>
<path d="M0,0 L13,0 L13,4 L10,6 L4,6 L0,5 L-5,6 L-5,4 L-3,4 L-3,2 L0,2 Z " fill="#A39197" transform="translate(810,201)"/>
<path d="M0,0 L2,0 L2,2 L-1,2 L-1,4 L3,5 L-1,5 L-1,7 L-9,7 L-9,11 L-19,11 L-19,10 L-10,10 L-10,8 L-13,7 L-10,3 Z " fill="#917E84" transform="translate(729,715)"/>
<path d="M0,0 L1,0 L1,6 L-1,6 L-1,8 L-3,8 L-2,16 L-3,26 L-4,26 L-4,16 L-6,16 L-6,25 L-7,25 L-7,6 L0,5 Z " fill="#927C88" transform="translate(823,608)"/>
<path d="M0,0 L2,4 L2,12 L4,13 L2,13 L1,17 L-2,17 L-2,14 L-4,14 L-4,18 L-1,20 L-7,20 L-6,15 L-7,12 L-5,12 L-5,10 L0,10 Z " fill="#896F75" transform="translate(573,556)"/>
<path d="M0,0 L3,0 L2,4 L-6,7 L-10,10 L-14,10 L-14,8 L-11,8 L-11,3 L-7,3 L-7,1 Z " fill="#967C83" transform="translate(683,329)"/>
<path d="M0,0 L2,1 L1,3 L4,4 L-1,9 L-3,9 L-3,11 L-7,11 L-7,13 L-11,13 L-12,16 L-11,11 L-8,8 L-6,8 L-6,6 L-4,6 L-4,4 L-2,4 L-2,2 L0,2 Z " fill="#9A858C" transform="translate(746,258)"/>
<path d="M0,0 L4,1 L2,1 L2,7 L0,7 L0,13 L-5,13 L-5,16 L-7,16 L-8,9 L-6,8 L-4,7 L-3,4 L-1,4 L-1,6 L1,6 Z " fill="#A58E9B" transform="translate(808,649)"/>
<path d="M0,0 L2,0 L2,10 L0,10 L0,25 L-2,25 L-3,11 L-4,8 L-2,2 Z " fill="#A7949A" transform="translate(857,284)"/>
<path d="M0,0 L1,4 L3,4 L3,6 L1,6 L1,12 L3,12 L3,22 L1,22 L1,24 L4,25 L0,26 L-1,22 L-1,4 Z " fill="#100D0E" transform="translate(565,652)"/>
<path d="M0,0 L6,0 L10,3 L10,1 L12,1 L12,3 L18,3 L18,7 L21,8 L17,9 L16,7 L17,4 L11,6 L7,7 L3,5 L2,3 L0,3 Z " fill="#A29196" transform="translate(838,209)"/>
<path d="M0,0 L1,2 L4,2 L4,4 L1,4 L1,9 L-4,9 L-4,12 L-9,12 L-9,10 L-6,7 L-3,1 Z " fill="#9B888E" transform="translate(787,675)"/>
<path d="M0,0 L2,1 L2,8 L1,10 L4,13 L3,17 L0,17 L-1,21 L-3,20 L-1,1 Z M-4,20 Z " fill="#B196A4" transform="translate(812,496)"/>
<path d="M0,0 L3,0 L3,18 L1,24 L-1,23 Z " fill="#B69FAB" transform="translate(832,328)"/>
<path d="M0,0 L2,0 L2,10 L0,10 L0,21 L-4,21 L-3,8 L-1,7 Z " fill="#A58A97" transform="translate(827,572)"/>
<path d="M0,0 L2,0 L2,5 L0,5 L0,8 L-2,9 L-4,17 L-7,16 L-5,6 Z " fill="#A58D9A" transform="translate(838,428)"/>
<path d="M0,0 L1,0 L1,10 L-1,14 L1,14 L1,17 L-1,17 L-1,24 L-3,25 L-3,9 L-2,8 L-1,1 Z " fill="#AA909D" transform="translate(814,580)"/>
<path d="M0,0 L2,0 L3,6 L-3,14 L-8,14 L-8,12 L-5,12 L-5,7 L-3,7 L-3,5 L0,5 Z " fill="#9A8087" transform="translate(661,353)"/>
<path d="M0,0 L2,1 L1,3 L3,3 L3,5 L1,5 L-1,9 L-1,5 L-3,5 L-2,11 L-3,9 L-5,9 L-5,11 L-7,11 L-6,16 L-9,19 L-9,15 L-11,15 L-12,18 L-12,14 L-8,14 L-8,10 L-6,10 L-6,8 L-4,8 L-3,3 L0,2 Z " fill="#917D84" transform="translate(760,240)"/>
<path d="M0,0 L5,2 L3,5 L2,22 L-1,22 Z " fill="#AA8F95" transform="translate(587,646)"/>
<path d="M0,0 L8,0 L7,4 L1,5 L0,9 L-3,9 L-3,2 Z " fill="#B39EA5" transform="translate(765,260)"/>
<path d="M0,0 L2,0 L3,4 L1,4 L-1,14 L-6,16 L-6,12 L-4,12 L-2,2 Z " fill="#B499A5" transform="translate(806,590)"/>
<path d="M0,0 L3,1 L2,6 L-5,12 L-7,11 L-5,9 L-5,5 L-4,2 L0,2 Z " fill="#A08A90" transform="translate(739,269)"/>
<path d="M0,0 L2,0 L2,5 L4,5 L4,18 L0,18 L1,6 L-1,5 Z " fill="#A4999A" transform="translate(863,233)"/>
<path d="M0,0 L1,3 L1,7 L3,7 L3,13 L-1,15 L-1,20 L-3,20 L-4,14 L-2,12 L-2,3 Z " fill="#A5909C" transform="translate(810,635)"/>
<path d="M0,0 L2,1 L1,5 L3,5 L4,1 L5,6 L3,6 L3,16 L7,17 L8,19 L5,19 L5,21 L8,22 L4,22 L0,18 L0,16 L2,16 L2,6 L0,6 Z " fill="#8A7478" transform="translate(566,658)"/>
<path d="M0,0 L1,0 L1,6 L3,6 L3,1 L4,1 L4,7 L1,15 L-1,15 L-1,13 L-3,13 L-4,16 L-4,12 L-2,12 L-2,6 L0,6 Z " fill="#927980" transform="translate(618,442)"/>
<path d="M0,0 L3,0 L3,12 L-2,12 L-2,8 L-1,3 Z " fill="#A38A99" transform="translate(836,444)"/>
<path d="M0,0 L2,4 L2,9 L-1,11 L-2,16 L-3,16 L-3,9 L-5,9 L-5,16 L-6,16 L-6,8 L-2,6 L-2,4 L0,4 Z " fill="#8F777D" transform="translate(710,288)"/>
<path d="M0,0 L1,4 L0,5 L-1,12 L1,12 L1,20 L-1,21 L-3,17 L-3,3 Z " fill="#B2989E" transform="translate(597,648)"/>
<path d="M0,0 L5,4 L5,8 L3,8 L3,12 L5,12 L5,14 L3,14 L2,18 L1,12 L0,5 L-2,2 Z " fill="#161313" transform="translate(575,690)"/>
<path d="M0,0 L2,0 L1,25 L-1,27 L-1,5 Z " fill="#AB93A1" transform="translate(812,536)"/>
<path d="M0,0 L8,0 L10,1 L10,3 L1,3 L1,5 L-6,4 L-3,1 Z " fill="#A38D93" transform="translate(709,722)"/>
<path d="M0,0 L1,0 L2,11 L0,13 L0,20 L-3,21 L-4,15 L-2,12 L-1,1 Z " fill="#A68B92" transform="translate(588,606)"/>
<path d="M0,0 L2,0 L2,2 L6,2 L6,0 L8,1 L7,3 L2,3 L2,5 L-1,5 L-1,7 L-7,7 L-7,9 L-9,9 L-9,11 L-11,11 L-12,15 L-15,13 L-12,10 L-10,10 L-10,8 L-8,8 L-8,6 L-2,6 L-2,4 L0,4 Z " fill="#806A70" transform="translate(726,274)"/>
<path d="M0,0 L1,0 L1,14 L-1,14 L-1,18 L-3,18 L-3,26 L-4,26 L-5,13 L0,13 Z " fill="#877E7F" transform="translate(867,238)"/>
<path d="M0,0 L4,0 L4,2 L10,3 L10,11 L8,11 L5,8 L3,3 L0,2 Z " fill="#A28B8E" transform="translate(571,677)"/>
<path d="M0,0 L8,0 L8,1 L1,1 L1,3 L-1,3 L-1,5 L-3,5 L-2,9 L-7,11 L-7,9 L-10,10 L-10,8 L-8,8 L-8,6 L-4,6 L-4,4 L-2,4 L-2,2 L0,2 Z " fill="#8D7D82" transform="translate(796,206)"/>
<path d="M0,0 L2,1 L1,3 L-1,3 L0,6 L0,14 L-1,16 L-3,15 L-2,9 L-5,9 L-5,14 L-6,14 L-6,8 L-4,8 L-4,6 L-2,6 L-2,2 L0,2 Z " fill="#907A7F" transform="translate(636,386)"/>
<path d="M0,0 L5,0 L5,4 L9,5 L8,10 L3,6 L0,5 Z " fill="#A39596" transform="translate(850,213)"/>
<path d="M0,0 L1,3 L-1,7 L-3,10 L-8,10 L-8,8 L-6,8 L-6,3 L-2,4 Z " fill="#A88E94" transform="translate(740,279)"/>
<path d="M0,0 L2,0 L2,3 L6,4 L2,4 L2,6 L-2,6 L-2,8 L-6,7 L-3,7 L-3,5 L-5,4 L-4,2 Z " fill="#98848C" transform="translate(748,704)"/>
<path d="M0,0 L3,0 L3,2 L1,3 L1,9 L-4,10 L-3,5 Z " fill="#A18D94" transform="translate(754,697)"/>
<path d="M0,0 L1,0 L1,10 L-1,10 L-1,12 L1,12 L1,15 L-1,15 L-1,22 L-2,22 L-3,12 L-2,10 L-5,10 L-4,8 L-2,7 L-2,9 L0,9 Z " fill="#816D79" transform="translate(841,434)"/>
<path d="M0,0 L2,0 L2,3 L-1,6 L-5,10 L-6,2 L0,2 Z " fill="#A6878F" transform="translate(577,537)"/>
<path d="M0,0 L1,0 L1,9 L-2,12 L-4,13 L-2,4 L-5,3 Z " fill="#B2949C" transform="translate(663,382)"/>
<path d="M0,0 L3,0 L3,12 L0,13 Z " fill="#B5A2A6" transform="translate(832,308)"/>
<path d="M0,0 L2,0 L1,4 L-4,8 L-5,10 L-8,10 L-8,6 L-4,6 L-4,2 Z " fill="#A08D93" transform="translate(787,215)"/>
<path d="M0,0 L1,2 L5,4 L5,7 L7,7 L7,9 L2,8 L0,4 L-4,3 L0,3 Z " fill="#927D81" transform="translate(584,728)"/>
<path d="M0,0 L1,2 L5,4 L5,20 L4,20 L4,8 L2,8 L2,5 L-1,4 Z M0,3 Z " fill="#191516" transform="translate(575,708)"/>
<path d="M0,0 L2,2 L1,3 L4,4 L3,8 L-2,9 L-2,7 L-4,7 L-4,4 L-1,4 Z " fill="#A58990" transform="translate(588,568)"/>
<path d="M0,0 L3,1 L1,6 L-5,10 L-5,4 L-1,2 Z " fill="#A98E94" transform="translate(714,310)"/>
<path d="M0,0 L2,0 L0,4 L-8,12 L-10,14 L-10,10 L-8,10 L-6,6 L-2,4 L-2,2 L0,2 Z " fill="#1B1718" transform="translate(802,666)"/>
<path d="M0,0 L2,0 L3,10 L3,13 L0,13 L0,10 L-2,10 Z " fill="#A68991" transform="translate(569,645)"/>
<path d="M0,0 L2,1 L2,6 L-1,15 L-2,15 L-2,1 Z " fill="#B1969D" transform="translate(742,286)"/>
<path d="M0,0 L2,1 L3,4 L0,4 L0,6 L-7,5 L-3,1 Z " fill="#A28C95" transform="translate(742,707)"/>
<path d="M0,0 L1,2 L5,2 L5,4 L3,4 L3,8 L5,8 L4,12 L4,9 L1,10 L1,6 L-1,8 Z " fill="#141111" transform="translate(569,678)"/>
<path d="M0,0 L4,1 L2,1 L2,7 L0,7 L0,13 L-4,12 L-1,12 L-1,7 L-3,7 L-4,10 L-4,5 L-1,4 L-1,6 L1,6 Z " fill="#8A7781" transform="translate(808,649)"/>
<path d="M0,0 L4,0 L4,3 L2,3 L2,12 L0,12 L-1,1 Z " fill="#A7969C" transform="translate(859,271)"/>
<path d="M0,0 L1,2 L3,3 L2,5 L4,5 L4,8 L1,8 L0,10 L0,6 L-2,6 L-2,2 L0,2 Z " fill="#7F6D6F" transform="translate(574,680)"/>
<path d="M0,0 L1,4 L-1,4 L-1,8 L-3,8 L-3,12 L-9,12 L-9,11 L-4,11 L-4,9 L-9,9 L-5,6 L-2,7 L-3,2 L0,3 Z " fill="#171314" transform="translate(587,520)"/>
<path d="M0,0 L2,0 L3,8 L-1,10 L-2,5 L0,5 Z " fill="#A58990" transform="translate(611,465)"/>
<path d="M0,0 L2,0 L3,2 L7,3 L2,6 L0,9 L-3,6 Z " fill="#AC989F" transform="translate(842,318)"/>
<path d="M0,0 L2,1 L1,3 L3,3 L3,5 L-1,5 L-1,7 L-5,7 L-6,10 L-5,5 L-2,2 L0,2 Z " fill="#907C83" transform="translate(740,264)"/>
<path d="M0,0 L1,2 L4,2 L4,4 L1,5 L0,8 L-2,8 L-2,5 L-4,4 L-2,1 Z " fill="#A59099" transform="translate(787,675)"/>
<path d="M0,0 L2,0 L3,9 L4,11 L2,16 L1,16 Z " fill="#B39AA8" transform="translate(810,440)"/>
<path d="M0,0 L4,1 L1,1 L1,5 L-3,5 L-3,9 L-1,10 L-4,10 L-8,8 L-4,8 L-3,3 L0,2 Z " fill="#87777C" transform="translate(782,216)"/>
<path d="M0,0 L2,0 L2,2 L8,2 L8,6 L11,7 L7,8 L6,6 L7,3 L0,5 L0,3 L-3,3 L-2,1 L0,2 Z " fill="#7E7374" transform="translate(848,210)"/>
<path d="M0,0 L2,0 L2,2 L9,1 L5,5 L-1,5 L-2,2 L0,2 Z " fill="#A39197" transform="translate(795,209)"/>
<path d="M0,0 L1,0 L1,6 L-3,12 L-5,13 L-2,4 Z " fill="#B298A6" transform="translate(810,522)"/>
<path d="M0,0 L1,0 L1,11 L-2,10 L-2,2 Z " fill="#B59AA9" transform="translate(806,552)"/>
<path d="M0,0 L2,0 L1,6 L-4,7 L-6,6 L-6,4 L-1,3 Z " fill="#A6878F" transform="translate(585,529)"/>
<path d="M0,0 L4,0 L2,6 L0,9 L-2,9 L-2,3 L0,3 Z " fill="#A3878F" transform="translate(621,439)"/>
<path d="M0,0 L1,0 L0,10 L-1,16 L-2,16 L-3,7 Z " fill="#A9929C" transform="translate(834,400)"/>
<path d="M0,0 L3,0 L2,5 L0,9 L-2,8 L-1,5 L-3,4 L-1,4 Z " fill="#B698A0" transform="translate(662,394)"/>
<path d="M0,0 L2,0 L3,10 L0,11 L-1,8 Z " fill="#A49799" transform="translate(858,260)"/>
<path d="M0,0 L3,0 L2,4 L0,5 L-2,4 L-2,6 L-4,6 L-4,2 Z " fill="#A58C91" transform="translate(627,415)"/>
<path d="M0,0 L3,0 L2,4 L-1,5 L-6,4 L-6,2 Z " fill="#A48990" transform="translate(683,329)"/>
<path d="M0,0 L2,0 L3,8 L1,10 L-2,10 Z " fill="#A88C93" transform="translate(705,297)"/>
<path d="M0,0 L2,1 L1,3 L-1,3 L0,8 L-3,11 L-3,7 L-5,7 L-6,10 L-6,6 L-2,6 L-2,2 L0,2 Z " fill="#89777D" transform="translate(754,248)"/>
<path d="M0,0 L4,1 L1,1 L1,3 L4,3 L3,7 L1,7 L1,5 L-1,5 L-2,8 L-2,4 L0,4 Z " fill="#8C747A" transform="translate(592,512)"/>
<path d="M0,0 L2,0 L2,6 L-1,9 L-4,8 L-4,6 L-1,5 Z " fill="#A78A92" transform="translate(597,507)"/>
<path d="M0,0 L2,0 L3,4 L9,4 L7,7 L7,5 L0,7 Z " fill="#A1888D" transform="translate(641,379)"/>
<path d="M0,0 L2,0 L2,6 L-1,10 L-3,9 L-1,7 L-1,3 Z " fill="#A48C92" transform="translate(735,271)"/>
<path d="M0,0 L4,2 L2,2 L4,7 L1,10 L0,4 Z " fill="#100D0D" transform="translate(564,566)"/>
<path d="M0,0 L2,0 L3,3 L3,10 L1,10 Z " fill="#C3A5B4" transform="translate(790,567)"/>
<path d="M0,0 L2,0 L3,8 L0,10 Z " fill="#A88D93" transform="translate(660,368)"/>
<path d="M0,0 L5,0 L4,4 L1,5 L-1,4 Z " fill="#A38A8F" transform="translate(581,640)"/>
<path d="M0,0 L2,0 L3,4 L1,6 L-4,6 L-4,4 L-1,3 Z " fill="#A58991" transform="translate(657,361)"/>
<path d="M0,0 L1,0 L2,8 L-1,8 L-1,5 L-3,5 L-4,8 L-4,4 L0,4 Z " fill="#8C7980" transform="translate(772,226)"/>
<path d="M0,0 L3,1 L2,11 L0,8 Z " fill="#AF989E" transform="translate(596,671)"/>
<path d="M0,0 L3,0 L4,7 L1,8 Z " fill="#A18996" transform="translate(813,616)"/>
<path d="M0,0 L6,0 L6,1 L1,1 L1,3 L5,5 L1,7 Z " fill="#8F737B" transform="translate(578,532)"/>
<path d="M0,0 L5,0 L5,2 L1,2 L1,7 L-1,7 L-1,1 Z " fill="#A68C92" transform="translate(686,321)"/>
<path d="M0,0 L3,1 L-1,3 L-1,8 L-3,9 L-3,2 Z " fill="#B09BA2" transform="translate(765,260)"/>
<path d="M0,0 L5,0 L4,5 L2,6 L2,3 L0,3 Z " fill="#A29197" transform="translate(830,205)"/>
<path d="M0,0 L4,1 L2,5 L-3,6 L-3,4 L-1,3 Z " fill="#A48C97" transform="translate(787,663)"/>
<path d="M0,0 L4,2 L2,7 L-1,9 Z " fill="#AF969C" transform="translate(594,628)"/>
<path d="M0,0 L2,0 L3,4 L2,6 L-2,6 L-2,3 L0,3 Z " fill="#A4888F" transform="translate(591,517)"/>
<path d="M0,0 L2,0 L2,2 L10,2 L10,3 L0,4 L-4,2 L0,2 Z " fill="#817478" transform="translate(814,198)"/>
<path d="M0,0 L6,0 L2,2 L-2,6 L-4,6 L-2,2 L0,2 Z " fill="#1D191A" transform="translate(766,692)"/>
<path d="M0,0 L1,2 L3,3 L1,3 L0,7 L-3,7 L-2,3 L0,3 Z " fill="#725E63" transform="translate(574,566)"/>
<path d="M0,0 L4,1 L1,1 L1,5 L-5,6 L-2,2 L0,2 Z " fill="#836E73" transform="translate(652,364)"/>
<path d="M0,0 L4,1 L1,1 L1,5 L-5,6 L-2,2 L0,2 Z " fill="#836C72" transform="translate(668,336)"/>
<path d="M0,0 L2,0 L2,3 L6,4 L2,4 L2,6 L-2,5 L1,5 L1,3 L-1,3 Z " fill="#8B787F" transform="translate(748,704)"/>
<path d="M0,0 L1,4 L3,4 L3,6 L1,6 L1,12 L0,12 L-1,4 Z " fill="#1A1517" transform="translate(565,652)"/>
<path d="M0,0 L4,0 L4,5 L2,6 L2,3 L0,3 Z M0,6 L2,7 Z " fill="#B99CA4" transform="translate(606,582)"/>
<path d="M0,0 L1,4 L-2,7 L-2,4 L-5,3 Z " fill="#AF9299" transform="translate(663,382)"/>
<path d="M0,0 L2,0 L2,2 L6,2 L6,0 L8,1 L7,3 L2,3 L2,5 L0,5 Z " fill="#887378" transform="translate(726,274)"/>
<path d="M0,0 L2,0 L2,3 L5,3 L5,5 L-1,5 Z " fill="#AB8B94" transform="translate(569,570)"/>
<path d="M0,0 L4,0 L4,4 L0,4 Z " fill="#8B757A" transform="translate(572,732)"/>
<path d="M0,0 L2,0 L2,5 L-1,6 L-1,1 Z M-2,6 Z " fill="#A18996" transform="translate(838,428)"/>
<path d="M0,0 L2,0 L1,4 L-4,4 L-4,2 Z " fill="#A69298" transform="translate(787,215)"/>
<path d="M0,0 L4,0 L3,4 L0,5 Z " fill="#A98B93" transform="translate(588,572)"/>
<path d="M0,0 L2,2 L6,3 L1,6 L-1,6 Z " fill="#A9959D" transform="translate(843,318)"/>
<path d="M0,0 L4,1 L2,1 L2,4 L-2,5 Z " fill="#AD9098" transform="translate(667,368)"/>
<path d="M0,0 L1,4 L3,4 L3,6 L-1,6 L-2,3 L0,3 Z " fill="#171314" transform="translate(687,314)"/>
<path d="M0,0 L1,4 L-1,4 L-1,6 L-5,5 L-2,5 L-1,1 Z " fill="#1D181A" transform="translate(733,270)"/>
<path d="M0,0 L2,0 L1,4 L-3,4 L-3,2 L0,2 Z " fill="#A48E95" transform="translate(731,715)"/>
<path d="M0,0 L5,0 L5,2 L-1,3 Z " fill="#A2848C" transform="translate(569,567)"/>
<path d="M0,0 L3,0 L1,5 L-1,6 Z " fill="#9B7E85" transform="translate(573,541)"/>
<path d="M0,0 L3,1 L2,3 L-2,5 L-1,1 Z " fill="#AB8D95" transform="translate(610,514)"/>
<path d="M0,0 L5,1 L0,6 Z " fill="#BFA2B1" transform="translate(795,513)"/>
<path d="M0,0 L2,0 L0,7 L-1,7 L-1,1 Z " fill="#AE9B9D" transform="translate(838,294)"/>
<path d="M0,0 L3,1 L3,3 L-1,3 L-2,6 L-1,1 Z " fill="#877379" transform="translate(736,268)"/>
<path d="M0,0 L4,1 L2,4 L0,4 Z M4,0 Z " fill="#9E8990" transform="translate(775,227)"/>
<path d="M0,0 L2,0 L1,5 L0,3 L-3,3 L-2,1 L0,2 Z " fill="#8D8082" transform="translate(848,210)"/>
<path d="M0,0 L3,1 L3,3 L-3,4 Z " fill="#836E73" transform="translate(698,308)"/>
<path d="M0,0 L4,1 L2,3 L-1,3 Z " fill="#A1868D" transform="translate(704,304)"/>
<path d="M0,0 L3,0 L1,5 L0,5 Z " fill="#9A8288" transform="translate(687,323)"/>
</svg>
