<?xml version="1.0" encoding="UTF-8"?>
<!-- Generator: visioncortex VTracer 0.6.4 -->
<svg version="1.1" xmlns="http://www.w3.org/2000/svg" width="1024" height="1024">
<path d="M0,0 L1024,0 L1024,1024 L0,1024 Z " fill="#000000" transform="translate(0,0)"/>
<path d="M0,0 L8,0 L8,2 L12,2 L12,4 L16,4 L16,6 L20,6 L20,10 L22,10 L22,12 L28,12 L28,14 L32,14 L32,34 L48,34 L48,38 L52,38 L52,40 L62,40 L62,42 L66,42 L66,44 L70,44 L70,46 L74,46 L74,48 L80,48 L82,51 L86,52 L88,55 L98,56 L100,59 L104,60 L104,62 L108,62 L108,64 L112,64 L112,70 L116,70 L116,94 L114,94 L114,102 L112,102 L112,110 L108,110 L108,114 L106,114 L106,118 L104,118 L104,134 L102,134 L102,138 L100,138 L100,142 L98,142 L98,146 L96,146 L96,152 L92,152 L92,156 L90,156 L90,160 L88,160 L88,170 L86,170 L86,192 L84,192 L84,206 L86,206 L86,220 L88,220 L88,224 L90,224 L90,226 L92,226 L92,232 L94,232 L94,236 L98,238 L98,240 L100,240 L100,244 L102,244 L102,248 L104,248 L104,258 L106,258 L106,262 L108,262 L108,266 L110,266 L110,278 L112,278 L112,284 L114,284 L114,292 L116,292 L116,300 L118,300 L118,308 L116,308 L116,330 L114,330 L114,334 L116,334 L116,340 L118,340 L118,342 L120,342 L120,354 L122,354 L122,360 L120,360 L120,372 L118,372 L118,374 L116,374 L116,376 L114,376 L114,378 L112,378 L112,380 L108,380 L108,384 L106,384 L106,386 L104,386 L104,390 L102,390 L102,392 L98,392 L98,394 L94,394 L94,396 L86,396 L86,398 L84,398 L84,402 L80,402 L80,404 L76,404 L76,406 L72,406 L72,408 L68,408 L68,410 L66,410 L66,412 L40,412 L40,414 L30,414 L30,416 L0,416 L0,418 L-34,418 L-34,416 L-40,416 L-40,414 L-88,414 L-88,412 L-104,412 L-110,406 L-110,404 L-115,403 L-116,400 L-121,399 L-122,396 L-128,396 L-128,394 L-136,394 L-136,392 L-140,392 L-140,390 L-142,390 L-142,386 L-144,386 L-144,384 L-148,384 L-148,382 L-152,382 L-152,380 L-156,380 L-156,378 L-160,378 L-160,376 L-164,376 L-164,372 L-172,372 L-172,370 L-176,370 L-176,366 L-178,366 L-178,364 L-184,364 L-184,362 L-188,362 L-188,360 L-192,360 L-192,358 L-196,358 L-196,356 L-226,356 L-226,354 L-260,354 L-260,352 L-264,352 L-264,350 L-268,350 L-268,346 L-272,346 L-272,342 L-274,342 L-274,346 L-276,346 L-276,350 L-278,350 L-278,354 L-288,354 L-288,356 L-294,356 L-294,354 L-296,354 L-296,346 L-300,344 L-300,342 L-305,341 L-308,338 L-308,336 L-312,336 L-314,331 L-318,328 L-318,324 L-323,323 L-324,320 L-328,320 L-328,312 L-326,312 L-326,296 L-328,296 L-328,290 L-326,290 L-326,282 L-324,282 L-324,278 L-320,278 L-320,276 L-318,276 L-318,274 L-314,274 L-312,270 L-306,264 L-304,264 L-304,262 L-300,262 L-300,260 L-296,260 L-296,242 L-294,242 L-294,240 L-296,240 L-296,226 L-292,224 L-292,222 L-288,222 L-288,220 L-230,220 L-230,222 L-220,222 L-220,220 L-212,220 L-212,216 L-206,216 L-206,220 L-202,220 L-202,218 L-198,218 L-198,214 L-196,214 L-196,212 L-192,212 L-192,208 L-188,208 L-188,204 L-186,204 L-186,202 L-184,202 L-184,198 L-182,198 L-182,196 L-180,196 L-180,192 L-178,192 L-178,190 L-174,190 L-174,188 L-168,188 L-168,186 L-162,186 L-162,184 L-158,184 L-158,182 L-154,182 L-154,180 L-152,180 L-152,178 L-146,178 L-146,176 L-144,176 L-144,174 L-142,174 L-142,170 L-138,170 L-138,168 L-124,168 L-124,166 L-122,166 L-122,164 L-120,164 L-120,158 L-118,158 L-118,156 L-114,156 L-114,154 L-112,154 L-112,150 L-110,150 L-110,148 L-106,148 L-106,144 L-104,144 L-104,140 L-102,140 L-102,138 L-96,138 L-96,136 L-94,136 L-94,134 L-92,134 L-92,132 L-90,132 L-90,130 L-88,130 L-88,128 L-86,128 L-86,118 L-84,118 L-84,112 L-80,112 L-80,110 L-78,110 L-78,108 L-76,108 L-76,106 L-74,106 L-74,104 L-72,104 L-72,100 L-70,100 L-70,98 L-68,98 L-68,94 L-66,94 L-66,88 L-64,88 L-64,86 L-62,86 L-61,81 L-58,80 L-58,78 L-56,78 L-56,76 L-54,76 L-54,74 L-52,74 L-52,72 L-50,72 L-50,70 L-48,70 L-48,66 L-46,66 L-46,60 L-42,58 L-42,56 L-40,56 L-40,52 L-38,52 L-38,48 L-36,48 L-36,44 L-34,44 L-33,39 L-30,38 L-30,28 L-28,28 L-28,20 L-26,20 L-26,16 L-24,16 L-23,11 L-20,10 L-20,8 L-16,8 L-14,4 L-12,4 L-12,2 L0,2 Z " fill="#A288AA" transform="translate(578,342)"/>
<path d="M0,0 L8,0 L8,2 L12,2 L12,4 L16,4 L16,6 L20,6 L20,10 L22,10 L22,12 L28,12 L28,14 L32,14 L32,34 L48,34 L48,38 L52,38 L52,40 L62,40 L62,42 L66,42 L66,44 L70,44 L70,46 L74,46 L74,48 L80,48 L82,51 L86,52 L88,55 L98,56 L100,59 L104,60 L104,62 L108,62 L108,64 L112,64 L112,70 L116,70 L116,94 L114,94 L114,102 L112,102 L112,110 L108,110 L108,114 L106,114 L106,118 L104,118 L104,134 L102,134 L102,138 L100,138 L100,142 L98,142 L98,146 L96,146 L96,152 L92,152 L92,156 L90,156 L90,160 L88,160 L88,170 L86,170 L86,192 L84,192 L84,206 L86,206 L86,220 L88,220 L88,224 L90,224 L90,226 L92,226 L92,232 L94,232 L94,236 L98,238 L98,240 L100,240 L100,244 L102,244 L102,248 L104,248 L104,258 L106,258 L106,262 L108,262 L108,266 L110,266 L110,278 L112,278 L112,284 L114,284 L114,292 L116,292 L116,300 L118,300 L118,308 L116,308 L116,330 L114,330 L114,334 L116,334 L116,340 L118,340 L118,342 L120,342 L120,354 L122,354 L122,360 L120,360 L120,372 L118,372 L118,374 L116,374 L116,376 L114,376 L114,378 L112,378 L112,380 L108,380 L108,384 L106,384 L106,386 L104,386 L104,390 L102,390 L102,392 L98,392 L98,394 L94,394 L94,396 L86,396 L86,398 L84,398 L84,402 L80,402 L80,404 L76,404 L76,406 L72,406 L72,408 L68,408 L68,410 L66,410 L66,412 L40,412 L40,414 L30,414 L30,416 L0,416 L0,418 L-34,418 L-34,416 L-40,416 L-40,414 L-88,414 L-88,412 L-104,412 L-110,406 L-110,404 L-115,403 L-116,400 L-121,399 L-122,396 L-128,396 L-128,394 L-136,394 L-136,392 L-140,392 L-140,390 L-142,390 L-142,386 L-144,386 L-144,384 L-148,384 L-148,382 L-152,382 L-152,380 L-156,380 L-156,378 L-160,378 L-160,376 L-164,376 L-164,372 L-172,372 L-172,370 L-176,370 L-176,366 L-178,366 L-178,364 L-184,364 L-184,362 L-188,362 L-188,360 L-192,360 L-192,358 L-196,358 L-196,356 L-226,356 L-226,354 L-260,354 L-260,352 L-264,352 L-264,350 L-268,350 L-268,346 L-272,346 L-272,342 L-274,342 L-274,346 L-276,346 L-276,350 L-278,350 L-278,354 L-288,354 L-288,356 L-294,356 L-294,354 L-296,354 L-296,346 L-300,344 L-300,342 L-305,341 L-308,338 L-308,336 L-312,336 L-314,331 L-318,328 L-318,324 L-323,323 L-324,320 L-328,320 L-328,312 L-326,312 L-326,296 L-328,296 L-328,290 L-326,290 L-326,282 L-324,282 L-324,278 L-320,278 L-320,276 L-318,276 L-318,274 L-314,274 L-312,270 L-306,264 L-304,264 L-304,262 L-300,262 L-300,260 L-296,260 L-296,242 L-294,242 L-294,240 L-296,240 L-296,226 L-292,224 L-292,222 L-288,222 L-288,220 L-230,220 L-230,222 L-220,222 L-220,220 L-212,220 L-212,216 L-206,216 L-206,220 L-202,220 L-202,218 L-198,218 L-198,214 L-196,214 L-196,212 L-192,212 L-192,208 L-188,208 L-188,204 L-186,204 L-186,202 L-184,202 L-184,198 L-182,198 L-182,196 L-180,196 L-180,192 L-178,192 L-178,190 L-174,190 L-174,188 L-168,188 L-168,186 L-162,186 L-162,184 L-158,184 L-158,182 L-154,182 L-154,180 L-152,180 L-152,178 L-146,178 L-146,176 L-144,176 L-144,174 L-142,174 L-142,170 L-138,170 L-138,168 L-124,168 L-124,166 L-122,166 L-122,164 L-120,164 L-120,158 L-118,158 L-118,156 L-114,156 L-114,154 L-112,154 L-112,150 L-110,150 L-110,148 L-106,148 L-106,144 L-104,144 L-104,140 L-102,140 L-102,138 L-96,138 L-96,136 L-94,136 L-94,134 L-92,134 L-92,132 L-90,132 L-90,130 L-88,130 L-88,128 L-86,128 L-86,118 L-84,118 L-84,112 L-80,112 L-80,110 L-78,110 L-78,108 L-76,108 L-76,106 L-74,106 L-74,104 L-72,104 L-72,100 L-70,100 L-70,98 L-68,98 L-68,94 L-66,94 L-66,88 L-64,88 L-64,86 L-62,86 L-61,81 L-58,80 L-58,78 L-56,78 L-56,76 L-54,76 L-54,74 L-52,74 L-52,72 L-50,72 L-50,70 L-48,70 L-48,66 L-46,66 L-46,60 L-42,58 L-42,56 L-40,56 L-40,52 L-38,52 L-38,48 L-36,48 L-36,44 L-34,44 L-33,39 L-30,38 L-30,28 L-28,28 L-28,20 L-26,20 L-26,16 L-24,16 L-23,11 L-20,10 L-20,8 L-16,8 L-14,4 L-12,4 L-12,2 L0,2 Z M3,4 L-5,7 L-8,6 L-13,9 L-20,15 L-24,23 L-23,27 L-26,30 L-28,40 L-31,44 L-30,50 L-35,52 L-34,57 L-38,59 L-42,63 L-44,72 L-45,76 L-46,77 L-48,75 L-58,85 L-62,91 L-64,97 L-65,99 L-65,105 L-62,106 L-63,107 L-63,114 L-69,114 L-70,108 L-77,114 L-81,118 L-84,131 L-91,138 L-96,141 L-98,143 L-98,149 L-97,151 L-101,153 L-101,162 L-103,169 L-104,171 L-102,171 L-101,173 L-100,174 L-103,178 L-103,184 L-103,188 L-105,192 L-107,189 L-110,190 L-110,193 L-117,194 L-118,190 L-120,187 L-125,187 L-129,188 L-132,185 L-136,188 L-140,189 L-140,185 L-137,184 L-137,183 L-130,181 L-130,176 L-132,176 L-132,174 L-136,173 L-146,183 L-151,185 L-151,186 L-144,185 L-146,188 L-154,189 L-157,189 L-166,190 L-175,194 L-179,199 L-180,202 L-177,203 L-178,206 L-173,207 L-176,208 L-182,209 L-183,207 L-189,212 L-194,217 L-198,223 L-198,226 L-203,225 L-206,223 L-208,219 L-212,223 L-220,225 L-233,225 L-234,224 L-246,224 L-246,226 L-252,227 L-252,225 L-254,224 L-264,224 L-264,226 L-270,224 L-283,224 L-289,226 L-292,229 L-292,237 L-291,239 L-290,254 L-292,256 L-294,260 L-298,264 L-300,265 L-300,267 L-304,269 L-314,279 L-319,282 L-322,287 L-323,295 L-322,298 L-322,306 L-322,309 L-323,314 L-321,319 L-316,319 L-315,322 L-313,322 L-314,325 L-313,327 L-311,327 L-310,329 L-309,323 L-305,325 L-304,330 L-302,330 L-302,337 L-299,336 L-298,340 L-295,343 L-293,343 L-294,346 L-292,346 L-291,352 L-280,350 L-280,347 L-278,345 L-277,338 L-266,337 L-271,340 L-268,343 L-267,345 L-258,350 L-225,351 L-223,352 L-202,352 L-202,350 L-196,351 L-193,354 L-185,355 L-185,353 L-182,353 L-182,359 L-174,363 L-174,366 L-170,368 L-167,368 L-167,366 L-163,367 L-162,369 L-162,366 L-159,367 L-158,369 L-150,371 L-145,370 L-143,368 L-141,374 L-136,377 L-127,379 L-125,380 L-125,385 L-123,385 L-123,387 L-119,389 L-115,389 L-114,391 L-97,397 L-94,398 L-94,400 L-88,400 L-88,402 L-85,402 L-85,400 L-83,401 L-65,402 L-46,402 L-46,406 L-32,407 L-16,407 L-16,409 L14,409 L15,408 L26,407 L30,405 L37,404 L42,402 L42,400 L48,399 L48,401 L54,399 L65,397 L78,394 L83,392 L83,390 L87,388 L87,386 L92,385 L97,381 L101,375 L104,370 L106,369 L106,349 L103,346 L102,341 L100,341 L100,289 L98,282 L96,281 L95,265 L93,265 L93,263 L86,262 L85,256 L82,255 L81,247 L78,244 L77,241 L73,241 L75,235 L76,233 L74,226 L76,223 L77,219 L80,215 L81,207 L81,185 L82,184 L83,168 L85,159 L90,150 L92,146 L94,145 L96,139 L98,135 L98,132 L100,132 L98,128 L100,128 L101,112 L102,107 L104,98 L106,98 L106,96 L110,94 L112,91 L112,73 L109,69 L106,66 L100,64 L99,62 L97,63 L97,61 L89,60 L82,55 L80,55 L80,53 L68,48 L60,44 L52,44 L51,42 L48,42 L47,38 L32,38 L30,34 L28,34 L28,18 L26,16 L17,13 L17,10 L6,4 Z M-32,46 Z M-47,74 Z M-132,173 Z M-132,184 Z M-181,202 Z M-268,224 Z M-144,184 Z M-143,189 L-140,189 L-140,191 L-144,190 Z M-155,190 Z M-181,210 Z M-321,305 Z " fill="#83658A" transform="translate(578,342)"/>
<path d="M0,0 L2,0 L2,9 L0,11 L0,21 L-1,24 L1,24 L1,17 L6,14 L8,15 L5,18 L3,24 L6,24 L5,31 L10,30 L11,26 L14,27 L10,37 L14,39 L16,38 L16,40 L18,41 L16,45 L16,48 L18,45 L19,52 L22,52 L22,57 L26,56 L34,59 L43,60 L44,58 L46,59 L46,55 L50,57 L50,60 L52,60 L52,64 L55,64 L55,68 L71,67 L75,69 L73,69 L73,71 L82,69 L87,69 L89,71 L97,71 L102,72 L102,69 L104,69 L107,72 L122,71 L123,68 L134,68 L134,72 L157,70 L161,69 L162,70 L171,71 L171,69 L175,70 L175,72 L186,70 L186,64 L195,64 L200,63 L200,53 L199,43 L203,43 L205,50 L207,53 L207,60 L205,66 L203,73 L200,73 L200,76 L198,77 L184,78 L184,81 L156,82 L146,83 L140,85 L122,85 L118,85 L118,87 L108,87 L102,86 L54,85 L54,83 L42,84 L38,83 L38,81 L29,81 L29,79 L19,79 L11,75 L10,73 L3,71 L-1,71 L-4,66 L-3,61 L-5,61 L-5,59 L-8,59 L-7,56 L-5,57 L-6,48 L-6,40 L-7,32 L-7,28 L-6,24 L-4,23 L-5,11 L-6,8 L-4,8 L-3,3 Z M14,22 L15,26 Z " fill="#B49BBA" transform="translate(458,640)"/>
<path d="M0,0 L3,0 L3,3 L5,3 L6,5 L7,16 L10,24 L15,27 L15,29 L18,30 L18,32 L21,32 L22,41 L24,41 L27,56 L28,58 L30,81 L29,102 L28,106 L29,121 L33,122 L37,126 L38,128 L38,141 L36,148 L34,148 L34,152 L28,155 L24,161 L23,164 L19,167 L9,169 L9,175 L7,176 L7,179 L3,179 L3,181 L-1,181 L-1,183 L-4,183 L-4,186 L-8,186 L-8,188 L-10,188 L-10,190 L-36,190 L-36,192 L-46,192 L-46,194 L-76,194 L-76,196 L-110,196 L-110,194 L-116,194 L-116,192 L-164,192 L-164,190 L-180,190 L-186,184 L-186,182 L-191,181 L-192,178 L-197,177 L-198,174 L-204,174 L-204,172 L-212,172 L-212,170 L-216,170 L-216,168 L-218,168 L-218,164 L-220,164 L-220,162 L-224,162 L-224,160 L-228,160 L-228,158 L-232,158 L-232,156 L-236,156 L-236,154 L-240,154 L-240,149 L-247,149 L-247,147 L-243,146 L-243,144 L-239,145 L-235,144 L-234,147 L-228,147 L-228,149 L-222,147 L-219,146 L-217,152 L-213,153 L-212,154 L-203,156 L-200,158 L-201,163 L-199,163 L-199,165 L-191,166 L-190,169 L-183,170 L-173,174 L-170,176 L-170,178 L-164,178 L-164,180 L-161,180 L-161,178 L-122,180 L-122,184 L-108,184 L-92,185 L-92,187 L-76,186 L-62,186 L-61,185 L-50,184 L-46,182 L-39,181 L-34,180 L-34,178 L-28,177 L-28,179 L-22,176 L-11,174 L2,171 L7,170 L7,168 L11,164 L16,162 L21,157 L26,151 L28,147 L30,147 L30,127 L27,126 L26,119 L24,119 L23,67 L22,60 L19,59 L19,43 L17,43 L17,41 L10,40 L9,34 L5,33 L4,25 L1,22 L1,19 L-3,19 L-2,12 L-1,11 L-3,3 Z " fill="#8A738F" transform="translate(654,564)"/>
<path d="M0,0 L6,1 L6,10 L3,12 L3,21 L1,28 L2,29 L2,32 L5,31 L5,33 L1,37 L1,43 L-1,46 L3,48 L-2,52 L-4,49 L-6,49 L-7,53 L-14,54 L-16,52 L-17,46 L-23,48 L-27,47 L-30,45 L-33,48 L-37,48 L-37,44 L-35,42 L-35,41 L-27,40 L-27,35 L-29,35 L-29,33 L-34,34 L-43,43 L-47,44 L-41,44 L-43,48 L-51,49 L-54,49 L-63,50 L-72,54 L-76,60 L-73,62 L-75,65 L-70,65 L-70,68 L-77,69 L-80,67 L-90,76 L-95,85 L-101,85 L-104,82 L-106,79 L-109,83 L-117,85 L-131,85 L-131,83 L-141,84 L-143,83 L-143,85 L-149,86 L-149,84 L-161,83 L-161,85 L-167,84 L-180,84 L-186,86 L-188,88 L-188,96 L-187,98 L-186,113 L-188,115 L-189,120 L-191,120 L-195,124 L-197,124 L-197,126 L-205,133 L-211,139 L-216,142 L-218,146 L-219,154 L-218,157 L-218,165 L-218,168 L-219,173 L-218,177 L-213,178 L-210,181 L-210,186 L-208,186 L-206,182 L-202,181 L-201,189 L-199,189 L-198,195 L-196,195 L-193,200 L-190,202 L-188,209 L-188,211 L-185,209 L-178,208 L-175,199 L-175,196 L-163,196 L-164,198 L-167,199 L-164,202 L-159,206 L-155,208 L-122,209 L-120,210 L-110,210 L-99,211 L-99,209 L-93,209 L-92,212 L-82,214 L-82,212 L-79,212 L-78,217 L-77,219 L-73,220 L-70,222 L-70,224 L-67,226 L-61,227 L-61,228 L-68,228 L-68,230 L-61,230 L-61,231 L-69,231 L-69,229 L-73,229 L-73,225 L-75,225 L-75,223 L-81,223 L-81,221 L-85,221 L-85,219 L-89,219 L-89,217 L-93,217 L-93,215 L-123,215 L-123,213 L-157,213 L-157,211 L-161,211 L-161,209 L-165,209 L-165,205 L-169,205 L-169,201 L-171,201 L-171,205 L-173,205 L-173,209 L-175,209 L-175,213 L-185,213 L-185,215 L-191,215 L-191,213 L-193,213 L-193,205 L-197,203 L-197,201 L-202,200 L-205,197 L-205,195 L-209,195 L-211,190 L-215,187 L-215,183 L-220,182 L-221,179 L-225,179 L-225,171 L-223,171 L-223,155 L-225,155 L-225,149 L-223,149 L-223,141 L-221,141 L-221,137 L-217,137 L-217,135 L-215,135 L-215,133 L-211,133 L-209,129 L-203,123 L-201,123 L-201,121 L-197,121 L-197,119 L-193,119 L-193,101 L-191,101 L-191,99 L-193,99 L-193,85 L-189,83 L-189,81 L-185,81 L-185,79 L-127,79 L-127,81 L-117,81 L-117,79 L-109,79 L-109,75 L-103,75 L-103,79 L-99,79 L-99,77 L-95,77 L-95,73 L-93,73 L-93,71 L-89,71 L-89,67 L-85,67 L-85,63 L-83,63 L-83,61 L-81,61 L-81,57 L-79,57 L-79,55 L-77,55 L-77,51 L-75,51 L-75,49 L-71,49 L-71,47 L-65,47 L-65,45 L-59,45 L-59,43 L-55,43 L-55,41 L-51,41 L-51,39 L-49,39 L-49,37 L-43,37 L-43,35 L-41,35 L-41,33 L-39,33 L-39,29 L-35,29 L-35,27 L-21,27 L-21,25 L-19,25 L-19,23 L-17,23 L-17,17 L-15,17 L-15,15 L-11,15 L-11,13 L-9,13 L-9,9 L-2,8 L-2,4 L0,4 L0,6 L2,6 L2,4 L0,3 Z M-29,32 Z M-29,43 Z M-78,61 Z M-165,83 Z M-41,43 Z M-40,48 L-37,48 L-37,50 L-41,49 Z M-52,49 Z M-78,69 Z M-218,164 Z " fill="#7A6A83" transform="translate(475,483)"/>
<path d="M0,0 L5,2 L8,6 L9,13 L12,14 L13,20 L20,21 L20,23 L22,23 L23,39 L25,40 L27,47 L27,99 L29,99 L31,106 L33,107 L33,127 L31,128 L28,133 L22,141 L18,144 L14,144 L12,148 L10,148 L10,150 L5,152 L-8,155 L-22,158 L-25,159 L-25,157 L-31,158 L-31,160 L-36,162 L-46,164 L-47,165 L-58,166 L-59,167 L-89,167 L-89,165 L-105,165 L-119,164 L-119,160 L-138,160 L-156,159 L-158,158 L-158,160 L-161,160 L-161,158 L-167,158 L-167,156 L-176,153 L-187,149 L-189,147 L-194,146 L-196,145 L-196,143 L-198,143 L-198,138 L-202,136 L-209,135 L-212,131 L-209,131 L-209,129 L-214,127 L-214,125 L-216,125 L-216,119 L-213,122 L-211,125 L-203,128 L-200,130 L-200,132 L-192,133 L-185,136 L-182,141 L-177,146 L-170,148 L-158,149 L-155,150 L-103,151 L-17,151 L-7,150 L-7,148 L2,145 L9,141 L14,136 L22,132 L25,129 L27,129 L29,116 L29,106 L27,106 L26,101 L23,101 L20,77 L24,76 L24,61 L22,61 L18,48 L18,44 L15,43 L16,41 L14,40 L14,26 L9,26 L6,20 L5,13 L1,13 Z M20,86 Z " fill="#94779D" transform="translate(651,584)"/>
<path d="M0,0 L2,0 L4,2 L6,6 L6,10 L8,10 L8,62 L12,62 L16,70 L17,73 L19,72 L20,75 L20,83 L19,87 L18,92 L15,93 L10,98 L3,101 L-3,106 L-12,107 L-12,109 L-19,111 L-46,111 L-55,113 L-106,113 L-115,112 L-155,110 L-155,108 L-161,108 L-161,106 L-171,106 L-171,104 L-173,104 L-173,102 L-178,102 L-179,99 L-182,99 L-182,97 L-194,94 L-194,91 L-196,90 L-192,89 L-186,92 L-186,94 L-181,96 L-168,98 L-168,100 L-159,100 L-159,102 L-143,102 L-143,104 L-95,104 L-79,106 L-79,104 L-75,102 L-75,104 L-57,103 L-51,101 L-34,100 L-13,100 L-13,97 L3,95 L3,92 L6,92 L8,80 L9,79 L9,72 L6,68 L6,62 L1,62 L1,34 L3,31 L4,17 L2,16 L6,15 L6,11 L4,11 L4,8 L2,8 L0,3 Z " fill="#AE95B5" transform="translate(655,621)"/>
<path d="M0,0 L2,1 L-1,4 L-3,10 L0,10 L-1,17 L4,16 L5,12 L8,13 L4,23 L8,25 L10,24 L10,26 L12,27 L10,31 L10,34 L12,31 L13,38 L16,38 L16,43 L20,42 L28,45 L37,46 L38,44 L40,45 L40,41 L44,43 L44,46 L46,46 L46,50 L49,50 L49,54 L65,53 L69,55 L67,55 L67,57 L76,55 L81,55 L83,57 L91,57 L96,58 L96,55 L98,55 L101,58 L116,57 L117,54 L128,54 L128,58 L151,56 L155,55 L156,56 L165,57 L165,55 L169,56 L169,58 L180,56 L180,50 L191,50 L189,53 L192,55 L188,58 L177,60 L176,61 L154,62 L148,63 L108,64 L104,65 L60,65 L36,63 L28,61 L28,59 L21,59 L18,58 L18,54 L16,54 L16,51 L9,50 L9,48 L7,48 L7,45 L0,45 L-1,41 L-1,23 L-2,18 L-5,18 L-5,3 Z M8,8 L9,12 Z " fill="#C3A9CA" transform="translate(464,654)"/>
<path d="M0,0 L4,0 L4,14 L7,15 L6,17 L8,18 L11,29 L12,30 L12,35 L14,35 L14,50 L11,51 L13,70 L14,74 L17,75 L17,80 L19,80 L20,90 L18,100 L17,103 L13,104 L12,107 L4,111 L2,111 L0,115 L-5,119 L-9,121 L-17,122 L-17,124 L-27,126 L-113,126 L-165,125 L-168,124 L-180,123 L-188,120 L-193,115 L-192,112 L-186,114 L-177,115 L-177,117 L-167,117 L-167,119 L-161,119 L-161,121 L-144,121 L-121,122 L-112,123 L-61,123 L-51,121 L-25,121 L-18,120 L-18,118 L-9,116 L0,109 L7,106 L9,103 L12,102 L12,95 L13,94 L13,86 L10,84 L6,75 L6,73 L2,73 L2,27 L5,26 L6,21 L3,21 L0,13 Z M10,60 Z " fill="#9F85A8" transform="translate(661,610)"/>
<path d="M0,0 L1,3 L10,2 L14,4 L9,5 L9,7 L15,4 L21,5 L21,7 L24,7 L27,11 L27,13 L37,13 L41,16 L41,19 L45,20 L45,22 L50,22 L57,25 L60,25 L60,29 L66,30 L66,34 L76,34 L86,37 L86,35 L111,35 L114,36 L129,37 L135,39 L184,38 L204,38 L226,39 L226,37 L206,37 L206,36 L229,35 L229,37 L231,37 L230,34 L236,35 L232,36 L232,38 L230,38 L230,40 L204,40 L204,42 L194,42 L194,44 L164,44 L164,46 L130,46 L130,44 L124,44 L124,42 L76,42 L76,40 L60,40 L54,34 L54,32 L49,31 L48,28 L43,27 L42,24 L36,24 L36,22 L28,22 L28,20 L24,20 L24,18 L22,18 L22,14 L20,14 L20,12 L16,12 L16,10 L12,10 L12,8 L8,8 L8,6 L4,6 L4,4 L0,4 Z " fill="#86718A" transform="translate(414,714)"/>
<path d="M0,0 L3,3 L5,6 L13,9 L16,11 L16,13 L24,14 L31,17 L33,19 L33,28 L37,27 L37,29 L43,31 L61,33 L77,34 L93,34 L97,36 L105,37 L105,39 L107,38 L117,38 L121,40 L137,40 L138,42 L145,41 L149,40 L149,42 L161,41 L170,38 L185,37 L193,35 L203,35 L205,33 L221,31 L221,29 L224,29 L224,27 L226,27 L227,24 L232,22 L233,20 L240,19 L235,24 L230,25 L228,29 L226,29 L226,31 L221,33 L208,36 L194,39 L191,40 L191,38 L185,39 L185,41 L180,43 L170,45 L169,46 L158,47 L157,48 L127,48 L127,46 L111,46 L97,45 L97,41 L78,41 L60,40 L58,39 L58,41 L55,41 L55,39 L49,39 L49,37 L40,34 L29,30 L27,28 L22,27 L20,26 L20,24 L18,24 L18,19 L14,17 L7,16 L4,12 L7,12 L7,10 L2,8 L2,6 L0,6 Z M159,40 Z " fill="#927A97" transform="translate(435,703)"/>
<path d="M0,0 L8,0 L8,2 L12,2 L12,4 L16,4 L16,6 L20,6 L20,10 L22,10 L22,12 L28,12 L28,14 L32,14 L32,34 L31,34 L31,15 L22,16 L17,13 L17,10 L12,8 L6,5 L0,6 L-6,8 L-6,6 L-12,9 L-19,15 L-24,26 L-22,27 L-25,28 L-26,38 L-30,44 L-30,50 L-35,52 L-34,57 L-41,63 L-43,72 L-44,76 L-47,79 L-48,76 L-57,85 L-61,91 L-63,97 L-64,104 L-61,105 L-63,114 L-70,115 L-71,109 L-80,118 L-83,131 L-91,139 L-96,142 L-101,143 L-101,141 L-103,141 L-103,144 L-100,145 L-101,147 L-103,147 L-103,145 L-105,145 L-104,151 L-105,149 L-110,149 L-106,148 L-106,144 L-104,144 L-104,140 L-102,140 L-102,138 L-96,138 L-96,136 L-94,136 L-94,134 L-92,134 L-92,132 L-90,132 L-90,130 L-88,130 L-88,128 L-86,128 L-86,118 L-84,118 L-84,112 L-80,112 L-80,110 L-78,110 L-78,108 L-76,108 L-76,106 L-74,106 L-74,104 L-72,104 L-72,100 L-70,100 L-70,98 L-68,98 L-68,94 L-66,94 L-66,88 L-64,88 L-64,86 L-62,86 L-61,81 L-58,80 L-58,78 L-56,78 L-56,76 L-54,76 L-54,74 L-52,74 L-52,72 L-50,72 L-50,70 L-48,70 L-48,66 L-46,66 L-46,60 L-42,58 L-42,56 L-40,56 L-40,52 L-38,52 L-38,48 L-36,48 L-36,44 L-34,44 L-33,39 L-30,38 L-30,28 L-28,28 L-28,20 L-26,20 L-26,16 L-24,16 L-23,11 L-20,10 L-20,8 L-16,8 L-14,4 L-12,4 L-12,2 L0,2 Z M-32,46 Z M-47,74 Z " fill="#7A657F" transform="translate(578,342)"/>
<path d="M0,0 L2,0 L2,9 L0,11 L0,21 L-1,24 L1,24 L1,32 L4,32 L6,37 L6,55 L7,57 L6,59 L10,58 L13,59 L13,62 L15,62 L15,64 L22,65 L22,68 L24,68 L24,72 L34,73 L34,75 L50,77 L66,78 L110,78 L114,77 L154,76 L160,75 L182,74 L186,72 L196,70 L197,69 L194,67 L198,63 L200,63 L201,60 L202,68 L200,72 L194,73 L194,75 L181,78 L180,79 L164,79 L153,80 L150,81 L126,81 L115,82 L108,84 L70,83 L70,81 L63,81 L58,80 L32,79 L25,77 L15,73 L15,70 L12,70 L9,64 L6,63 L5,58 L1,56 L0,46 L1,41 L-1,41 L-2,30 L-3,27 L-5,26 L-4,20 L-5,11 L-6,8 L-4,8 L-3,3 Z " fill="#B9A0BF" transform="translate(458,640)"/>
<path d="M0,0 L2,2 L2,5 L4,5 L5,10 L7,10 L8,12 L8,18 L13,18 L13,24 L8,24 L8,44 L7,46 L9,47 L9,51 L12,51 L12,57 L14,57 L14,59 L16,59 L16,71 L18,71 L18,77 L16,77 L16,89 L14,89 L14,91 L12,91 L12,93 L10,93 L10,95 L8,95 L8,97 L4,97 L4,101 L2,101 L2,103 L0,103 L0,107 L-2,107 L-2,109 L-6,109 L-6,111 L-10,111 L-10,113 L-18,113 L-18,115 L-20,115 L-20,119 L-24,119 L-24,121 L-28,121 L-28,123 L-32,122 L-29,122 L-29,120 L-32,119 L-25,120 L-25,118 L-28,117 L-21,118 L-22,113 L-19,114 L-20,111 L-19,108 L-9,105 L-5,103 L-4,98 L1,92 L6,91 L6,87 L8,87 L9,80 L9,67 L8,63 L4,61 L1,60 L-1,52 L-1,45 L1,29 Z " fill="#846B8D" transform="translate(682,625)"/>
<path d="M0,0 L3,1 L6,4 L6,9 L8,9 L10,5 L14,4 L15,12 L17,12 L18,18 L20,18 L23,23 L26,25 L28,32 L28,34 L31,32 L38,31 L41,22 L41,19 L53,19 L52,21 L49,22 L52,25 L57,29 L61,31 L94,32 L96,33 L106,33 L117,34 L117,32 L123,32 L124,35 L134,37 L134,35 L137,35 L138,40 L139,42 L143,43 L146,45 L146,47 L149,49 L155,50 L155,51 L148,51 L148,53 L155,53 L155,54 L147,54 L147,52 L143,52 L143,48 L141,48 L141,46 L135,46 L135,44 L131,44 L131,42 L127,42 L127,40 L123,40 L123,38 L93,38 L93,36 L59,36 L59,34 L55,34 L55,32 L51,32 L51,28 L47,28 L47,24 L45,24 L45,28 L43,28 L43,32 L41,32 L41,36 L31,36 L31,38 L25,38 L25,36 L23,36 L23,28 L19,26 L19,24 L14,23 L11,20 L11,18 L7,18 L5,13 L1,10 L1,5 L-2,5 L-3,3 L-4,1 Z " fill="#77697C" transform="translate(259,660)"/>
<path d="M0,0 L3,0 L3,3 L5,3 L6,5 L7,16 L10,24 L15,27 L15,29 L18,30 L18,32 L21,32 L22,41 L24,41 L27,56 L28,58 L30,81 L29,102 L28,106 L29,119 L32,128 L34,128 L34,139 L31,148 L27,151 L28,147 L30,147 L30,127 L27,126 L26,119 L24,119 L23,67 L22,60 L19,59 L19,43 L17,43 L17,41 L10,40 L9,34 L5,33 L4,25 L1,22 L1,19 L-3,19 L-2,12 L-1,11 L-3,3 Z " fill="#8A6D93" transform="translate(654,564)"/>
<path d="M0,0 L3,0 L3,19 L20,19 L20,23 L24,23 L24,25 L34,25 L34,27 L38,27 L38,29 L42,29 L42,31 L46,31 L46,33 L52,33 L54,36 L58,37 L60,40 L70,41 L72,44 L76,45 L76,47 L80,47 L80,49 L84,49 L84,55 L88,55 L88,79 L86,79 L86,87 L84,87 L84,95 L80,95 L80,99 L78,99 L78,103 L75,103 L75,118 L73,118 L72,100 L74,87 L76,83 L78,83 L78,81 L83,76 L83,60 L81,56 L80,52 L74,50 L69,48 L69,46 L66,47 L60,45 L52,40 L52,38 L45,36 L32,30 L24,29 L18,26 L17,24 L4,23 L2,22 L2,19 L0,19 L-1,3 L-2,1 Z " fill="#79647A" transform="translate(606,357)"/>
<path d="M0,0 L4,0 L8,8 L9,11 L11,10 L12,13 L12,21 L11,25 L10,30 L7,31 L2,36 L-5,39 L-11,44 L-20,45 L-20,47 L-27,49 L-54,49 L-63,51 L-114,51 L-123,50 L-163,48 L-163,46 L-169,46 L-169,44 L-163,43 L-161,44 L-161,46 L-151,45 L-131,46 L-130,47 L-114,48 L-63,48 L-54,46 L-35,45 L-23,43 L-18,41 L-18,39 L-11,38 L-11,36 L-4,35 L-4,33 L2,29 L5,28 L5,21 L6,18 L5,17 L4,9 L3,6 L0,6 Z " fill="#A78EAE" transform="translate(663,683)"/>
<path d="M0,0 L13,0 L24,2 L36,1 L36,4 L39,3 L39,5 L35,9 L35,15 L33,18 L37,20 L32,24 L30,21 L28,21 L27,25 L20,26 L18,24 L17,18 L11,20 L7,19 L4,17 L1,20 L-3,20 L-3,16 L-1,14 L-1,13 L7,12 L7,7 L5,7 L5,5 L1,4 Z M5,4 Z M5,15 Z M-6,20 L-3,20 L-3,22 L-7,21 Z " fill="#8A7393" transform="translate(441,511)"/>
<path d="M0,0 L5,3 L6,5 L13,7 L25,8 L28,9 L154,11 L154,13 L131,15 L130,16 L105,17 L100,19 L88,19 L84,17 L72,17 L72,15 L64,15 L60,13 L43,13 L21,11 L10,10 L3,6 L0,6 Z " fill="#9A819F" transform="translate(468,725)"/>
<path d="M0,0 L11,0 L9,3 L12,5 L8,8 L-3,10 L-4,11 L-26,12 L-32,13 L-72,14 L-76,15 L-120,15 L-144,13 L-152,11 L-152,9 L-159,9 L-159,8 L-148,8 L-144,9 L-132,9 L-131,10 L-121,11 L-76,11 L-58,10 L-52,9 L-32,8 L-4,7 L0,6 Z " fill="#C0A6C6" transform="translate(644,704)"/>
<path d="M0,0 L1,2 L4,3 L5,6 L5,17 L7,17 L8,32 L13,37 L13,39 L16,39 L18,46 L21,46 L21,49 L37,53 L38,54 L51,55 L52,56 L66,57 L67,59 L76,60 L76,61 L60,61 L60,59 L48,60 L44,59 L44,57 L35,57 L35,55 L25,55 L17,51 L16,49 L9,47 L5,47 L2,42 L3,37 L1,37 L1,35 L-2,35 L-1,32 L1,33 L0,24 L0,16 L-1,8 L-1,4 Z " fill="#B199B7" transform="translate(452,664)"/>
<path d="M0,0 L2,0 L4,2 L6,6 L6,10 L8,10 L8,68 L11,68 L13,71 L14,79 L15,81 L13,90 L6,95 L4,95 L4,97 L-3,98 L-3,96 L3,95 L3,92 L6,92 L8,80 L9,79 L9,72 L6,68 L6,62 L1,62 L1,34 L3,31 L4,17 L2,16 L6,15 L6,11 L4,11 L4,8 L2,8 L0,3 Z " fill="#AC93B5" transform="translate(655,621)"/>
<path d="M0,0 L2,2 L2,19 L0,20 L-2,27 L-7,32 L-12,32 L-14,36 L-18,37 L-19,39 L-21,39 L-21,41 L-24,41 L-24,43 L-40,46 L-42,48 L-52,48 L-60,50 L-75,51 L-84,54 L-96,54 L-96,52 L-103,55 L-108,55 L-107,50 L-82,49 L-81,48 L-72,47 L-58,47 L-58,45 L-36,43 L-36,41 L-27,38 L-20,34 L-15,29 L-7,25 L-4,22 L-2,22 L0,9 Z M-86,52 Z " fill="#967E9B" transform="translate(680,691)"/>
<path d="M0,0 L3,1 L6,4 L6,9 L8,9 L10,5 L14,4 L15,12 L17,12 L18,18 L20,18 L23,23 L26,25 L28,32 L28,34 L31,32 L38,31 L41,22 L41,19 L53,19 L52,21 L49,22 L52,25 L54,27 L54,31 L52,31 L52,28 L47,28 L47,24 L45,24 L45,28 L43,28 L43,32 L41,32 L41,36 L31,36 L31,38 L25,38 L25,36 L23,36 L23,28 L19,26 L19,24 L14,23 L11,20 L11,18 L7,18 L5,13 L1,10 L1,5 L-2,5 L-3,3 L-4,1 Z " fill="#726475" transform="translate(259,660)"/>
<path d="M0,0 L1,0 L1,6 L3,6 L3,8 L5,8 L5,20 L7,20 L7,26 L5,26 L5,38 L3,38 L3,40 L1,40 L1,42 L-1,42 L-1,44 L-3,44 L-3,46 L-7,46 L-7,50 L-9,50 L-9,52 L-11,52 L-11,56 L-13,56 L-13,58 L-17,58 L-17,60 L-21,60 L-21,62 L-29,62 L-29,64 L-31,64 L-31,68 L-35,68 L-35,70 L-39,70 L-39,72 L-43,71 L-40,71 L-40,69 L-43,68 L-36,69 L-36,67 L-39,66 L-32,67 L-33,62 L-30,63 L-31,60 L-30,57 L-20,54 L-16,52 L-15,47 L-10,41 L-2,39 L-1,40 L0,36 L0,18 L-1,7 Z " fill="#836B89" transform="translate(693,676)"/>
<path d="M0,0 L7,2 L8,5 L13,7 L26,9 L26,11 L35,11 L35,13 L51,13 L51,17 L68,17 L91,19 L91,21 L127,21 L127,22 L88,22 L72,21 L71,20 L41,19 L41,17 L23,17 L23,15 L21,15 L21,13 L16,13 L15,10 L12,10 L12,8 L0,5 L0,2 L-2,1 Z " fill="#AA92B0" transform="translate(461,710)"/>
<path d="M0,0 L4,2 L4,5 L6,5 L6,9 L9,9 L9,13 L25,12 L29,14 L27,14 L27,16 L36,14 L41,14 L43,16 L51,16 L56,17 L56,14 L58,14 L61,18 L32,19 L25,18 L16,18 L13,17 L-2,16 L-2,14 L-6,13 L-6,9 L-12,8 L-12,5 L-6,4 L-3,5 L-2,3 L0,4 Z " fill="#C9AECE" transform="translate(504,695)"/>
<path d="M0,0 L6,1 L2,2 L2,4 L0,4 L0,6 L-26,6 L-26,8 L-36,8 L-36,10 L-66,10 L-66,12 L-100,12 L-100,10 L-106,10 L-106,9 L-100,8 L-66,8 L-37,9 L-37,7 L-66,7 L-66,6 L-46,4 L-26,4 L-4,5 L-4,3 L-24,3 L-24,2 L-1,1 L-1,3 L1,3 Z " fill="#756079" transform="translate(644,748)"/>
<path d="M0,0 L2,4 L1,11 L-2,13 L-6,13 L-6,15 L-19,18 L-20,19 L-86,19 L-86,21 L-124,21 L-125,19 L-90,18 L-86,17 L-46,16 L-40,15 L-18,14 L-14,12 L-4,10 L-3,9 L-6,7 L-2,3 L0,3 Z " fill="#BBA2C1" transform="translate(658,700)"/>
<path d="M0,0 L1,3 L10,2 L14,4 L9,5 L9,7 L15,4 L21,5 L21,7 L24,7 L27,11 L27,13 L37,13 L41,16 L41,19 L45,20 L45,23 L49,23 L49,25 L53,26 L49,27 L50,31 L48,30 L48,28 L43,27 L42,24 L36,24 L36,22 L28,22 L28,20 L24,20 L24,18 L22,18 L22,14 L20,14 L20,12 L16,12 L16,10 L12,10 L12,8 L8,8 L8,6 L4,6 L4,4 L0,4 Z " fill="#856E89" transform="translate(414,714)"/>
<path d="M0,0 L1,4 L3,4 L3,14 L5,14 L5,18 L7,18 L7,22 L9,22 L9,34 L11,34 L11,40 L13,40 L13,48 L15,48 L15,56 L17,56 L17,64 L15,64 L15,86 L13,86 L12,90 L12,86 L9,85 L10,83 L11,63 L13,63 L14,61 L14,63 L16,63 L16,57 L14,57 L13,59 L13,57 L11,57 L8,42 L4,32 L3,28 L3,18 L4,15 L2,15 L1,18 L2,5 L-1,6 Z " fill="#785F7F" transform="translate(679,586)"/>
<path d="M0,0 L6,1 L6,10 L3,12 L3,21 L1,28 L-1,30 L-10,31 L-15,29 L-12,27 L-11,18 L-14,18 L-14,16 L-10,16 L-10,14 L-8,14 L-8,16 L-6,16 L-6,13 L-8,12 L-7,8 L-2,8 L-2,4 L0,4 L0,6 L2,6 L2,4 L0,3 Z " fill="#816789" transform="translate(475,483)"/>
<path d="M0,0 L2,0 L5,10 L9,38 L8,47 L8,78 L11,78 L13,85 L15,85 L15,96 L12,105 L8,108 L9,104 L11,104 L11,84 L8,83 L7,76 L5,76 L4,24 L3,17 L0,16 Z " fill="#8F7498" transform="translate(673,607)"/>
<path d="M0,0 L2,1 L2,4 L0,5 L0,8 L-4,8 L-4,10 L-8,10 L-8,12 L-11,12 L-11,14 L-16,14 L-16,16 L-18,16 L-18,14 L-21,16 L-21,18 L-75,18 L-75,17 L-57,15 L-56,14 L-27,12 L-24,9 L-13,7 L-10,4 L-4,2 Z " fill="#88738C" transform="translate(661,735)"/>
<path d="M0,0 L2,0 L2,23 L1,31 L-1,31 L-1,39 L-5,39 L-5,43 L-7,43 L-7,47 L-10,47 L-10,62 L-12,62 L-13,44 L-11,31 L-9,27 L-7,27 L-7,25 L-1,20 Z " fill="#806C83" transform="translate(691,413)"/>
<path d="M0,0 L3,0 L3,3 L5,3 L6,5 L7,16 L9,21 L11,31 L15,32 L15,34 L17,34 L19,43 L17,43 L17,41 L10,40 L9,34 L5,33 L4,25 L1,22 L1,19 L-3,19 L-2,12 L-1,11 L-3,3 Z " fill="#907297" transform="translate(654,564)"/>
<path d="M0,0 L5,2 L8,6 L9,13 L13,23 L13,25 L16,25 L18,31 L19,31 L22,43 L21,48 L24,48 L24,58 L22,59 L18,48 L18,44 L15,43 L16,41 L14,40 L14,26 L9,26 L6,20 L5,13 L1,13 Z " fill="#9B7DA3" transform="translate(651,584)"/>
<path d="M0,0 L6,0 L6,2 L-2,3 L-2,6 L-8,7 L-8,9 L-24,8 L-24,10 L-42,10 L-67,11 L-70,12 L-70,8 L-66,6 L-66,8 L-48,7 L-42,5 L-25,4 L-4,4 L-4,1 Z " fill="#B098B6" transform="translate(646,717)"/>
<path d="M0,0 L1,3 L4,4 L3,7 L1,7 L1,5 L-1,5 L0,8 L-5,7 L-5,9 L-2,9 L-2,18 L-6,20 L-25,19 L-25,21 L-23,22 L-30,30 L-34,34 L-42,34 L-45,33 L-45,35 L-42,36 L-49,35 L-49,37 L-46,38 L-56,37 L-56,36 L-50,36 L-50,34 L-46,34 L-46,32 L-42,32 L-42,30 L-40,30 L-40,28 L-34,28 L-34,26 L-32,26 L-32,24 L-30,24 L-30,20 L-26,20 L-26,18 L-12,18 L-12,16 L-10,16 L-10,14 L-8,14 L-8,8 L-6,8 L-6,6 L-2,6 L-2,4 L0,4 Z " fill="#726079" transform="translate(466,492)"/>
<path d="M0,0 L1,0 L1,16 L-1,16 L-1,20 L-3,20 L-3,24 L-5,24 L-5,28 L-7,28 L-7,34 L-11,34 L-11,38 L-13,38 L-13,42 L-15,42 L-15,52 L-17,52 L-17,74 L-18,74 L-18,52 L-20,52 L-20,66 L-21,66 L-21,50 L-19,41 L-14,32 L-10,26 L-7,19 L-5,14 L-4,13 L-5,10 L-3,10 L-3,4 L-2,4 L-2,15 L0,15 Z " fill="#765E7C" transform="translate(681,460)"/>
<path d="M0,0 L2,0 L2,22 L0,22 L0,51 L1,61 L0,63 L2,63 L3,66 L6,67 L6,77 L2,76 L-1,68 L-2,55 L-4,55 L-4,52 L-8,53 L-7,48 L-4,45 L-3,37 L-3,15 L0,14 Z " fill="#86698D" transform="translate(661,512)"/>
<path d="M0,0 L8,0 L7,2 L13,2 L11,6 L3,7 L0,7 L-9,8 L-18,12 L-22,18 L-19,20 L-21,23 L-16,23 L-16,26 L-23,27 L-26,25 L-29,27 L-30,22 L-28,22 L-27,15 L-25,15 L-25,13 L-23,13 L-23,9 L-21,9 L-21,7 L-17,7 L-17,5 L-4,4 L-4,2 L0,2 Z M-24,19 Z M13,1 Z M2,7 Z M-24,27 Z " fill="#806E89" transform="translate(421,525)"/>
<path d="M0,0 L33,1 L42,2 L93,2 L103,0 L113,1 L113,3 L103,3 L103,5 L41,5 L10,3 L0,1 Z " fill="#A289A9" transform="translate(507,731)"/>
<path d="M0,0 L2,1 L-1,4 L-3,10 L0,10 L-1,17 L2,17 L5,34 L8,35 L10,44 L11,49 L14,50 L11,51 L9,50 L9,48 L7,48 L7,45 L0,45 L-1,41 L-1,23 L-2,18 L-5,18 L-5,3 Z " fill="#BFA6C7" transform="translate(464,654)"/>
<path d="M0,0 L13,0 L19,1 L16,4 L19,5 L17,9 L14,13 L11,13 L11,17 L7,18 L4,17 L1,20 L-3,20 L-3,16 L-1,14 L-1,13 L7,12 L7,7 L5,7 L5,5 L1,4 Z M5,4 Z M5,15 Z M-6,20 L-3,20 L-3,22 L-7,21 Z " fill="#85718E" transform="translate(441,511)"/>
<path d="M0,0 L87,1 L87,3 L64,5 L63,6 L45,6 L43,2 L39,4 L31,4 L29,3 L0,1 Z " fill="#9A819F" transform="translate(535,735)"/>
<path d="M0,0 L3,3 L4,15 L4,55 L7,55 L9,62 L11,63 L11,83 L9,84 L7,88 L6,88 L6,83 L9,82 L8,65 L5,62 L4,57 L1,57 L-2,33 L2,32 L2,17 L0,17 L2,4 L-1,4 Z M-2,42 Z " fill="#967CA1" transform="translate(673,628)"/>
<path d="M0,0 L1,0 L1,14 L3,14 L3,28 L5,28 L5,32 L7,32 L7,34 L9,34 L9,40 L11,40 L11,44 L15,46 L15,48 L17,48 L16,52 L15,50 L13,53 L11,49 L10,46 L9,44 L10,41 L8,41 L8,43 L5,42 L3,45 L2,41 L0,41 L-1,29 L-1,14 Z " fill="#7A5E80" transform="translate(661,534)"/>
<path d="M0,0 L2,1 L3,1 L7,2 L7,5 L23,6 L24,7 L70,8 L70,9 L23,9 L23,11 L70,11 L70,12 L22,12 L22,10 L6,10 L0,4 L0,2 L-4,1 Z " fill="#766478" transform="translate(468,744)"/>
<path d="M0,0 L2,1 L1,3 L-1,3 L0,9 L-7,15 L-12,24 L-18,24 L-21,21 L-23,18 L-26,22 L-34,23 L-34,21 L-44,21 L-44,20 L-34,20 L-34,18 L-26,18 L-26,14 L-20,14 L-20,18 L-16,18 L-16,16 L-12,16 L-12,12 L-10,12 L-10,10 L-6,10 L-6,6 L-2,6 L-2,2 L0,2 Z " fill="#6D5F77" transform="translate(392,544)"/>
<path d="M0,0 L2,2 L2,8 L7,8 L7,14 L2,14 L2,34 L1,36 L3,37 L3,41 L5,41 L5,50 L0,46 L-3,42 L-4,41 L-3,26 L-1,19 L0,4 Z " fill="#806689" transform="translate(688,635)"/>
<path d="M0,0 L3,3 L5,6 L13,9 L16,11 L16,13 L24,14 L31,17 L33,19 L32,23 L27,24 L22,22 L21,18 L19,18 L19,16 L7,16 L4,12 L7,12 L7,10 L2,8 L2,6 L0,6 Z " fill="#97809C" transform="translate(435,703)"/>
<path d="M0,0 L4,0 L4,2 L-3,3 L-3,5 L-8,8 L-20,10 L-39,11 L-48,13 L-56,13 L-60,11 L-52,8 L-40,7 L-26,8 L-26,6 L-12,6 L-10,7 L-10,5 L-4,4 L-4,1 Z " fill="#AB93B1" transform="translate(648,719)"/>
<path d="M0,0 L3,1 L6,4 L6,9 L8,9 L10,5 L14,4 L15,12 L17,12 L18,20 L12,21 L11,18 L7,18 L5,13 L1,10 L1,5 L-2,5 L-3,3 L-4,1 Z " fill="#7D6E82" transform="translate(259,660)"/>
<path d="M0,0 L1,0 L1,6 L3,6 L3,9 L1,9 L1,7 L-1,7 L1,11 L1,14 L3,15 L-1,19 L-2,16 L-11,25 L-15,31 L-17,37 L-19,37 L-19,35 L-21,35 L-22,38 L-22,34 L-20,34 L-20,28 L-18,28 L-18,26 L-16,26 L-15,21 L-12,20 L-12,18 L-10,18 L-10,16 L-8,16 L-8,14 L-6,14 L-6,12 L-4,12 L-4,10 L-2,10 L-2,6 L0,6 Z M-1,14 Z " fill="#67526D" transform="translate(532,402)"/>
<path d="M0,0 L3,0 L3,19 L20,19 L20,23 L24,23 L24,26 L33,26 L33,28 L24,29 L18,26 L17,24 L4,23 L2,22 L2,19 L0,19 L-1,3 L-2,1 Z " fill="#806983" transform="translate(606,357)"/>
<path d="M0,0 L2,0 L2,8 L-3,8 L-2,14 L-3,12 L-5,13 L-4,16 L-7,16 L-7,19 L-11,19 L-11,21 L-19,21 L-19,23 L-21,23 L-21,27 L-25,27 L-25,29 L-29,29 L-29,31 L-33,30 L-30,30 L-30,28 L-33,27 L-26,28 L-26,26 L-29,25 L-22,26 L-23,21 L-20,22 L-21,19 L-20,16 L-10,13 L-6,11 L-5,6 Z " fill="#856E8B" transform="translate(683,717)"/>
<path d="M0,0 L4,0 L5,23 L6,26 L8,26 L8,28 L10,29 L10,35 L15,36 L17,40 L6,39 L3,34 L4,29 L2,29 L2,27 L-1,27 L0,24 L2,25 L1,16 L1,8 Z " fill="#AF98B5" transform="translate(451,672)"/>
<path d="M0,0 L3,1 L3,3 L6,4 L6,11 L6,14 L6,18 L2,19 L0,20 L-3,25 L-5,23 L-4,4 L0,3 Z " fill="#A994B5" transform="translate(455,573)"/>
<path d="M0,0 L11,0 L15,2 L37,4 L87,5 L83,7 L39,7 L15,5 L7,3 L7,1 L0,1 Z M15,1 Z " fill="#BDA4C3" transform="translate(485,712)"/>
<path d="M0,0 L8,0 L8,2 L12,2 L12,4 L16,4 L16,6 L20,6 L20,10 L22,10 L22,12 L28,12 L28,14 L32,14 L32,34 L31,34 L31,15 L22,16 L17,13 L17,10 L12,8 L6,5 L0,5 L0,3 L-12,3 L-12,2 L0,2 Z " fill="#6B586F" transform="translate(578,342)"/>
<path d="M0,0 L3,0 L3,47 L-2,47 L-2,19 L0,16 L1,2 L-1,1 Z " fill="#AB90B5" transform="translate(658,636)"/>
<path d="M0,0 L39,2 L39,6 L19,6 L17,6 L3,6 L3,3 L0,2 Z " fill="#8C758F" transform="translate(493,742)"/>
<path d="M0,0 L2,1 L3,8 L1,13 L3,13 L2,20 L2,38 L3,40 L-2,41 L-5,29 L-6,25 L-4,25 L-4,20 L-2,18 L-1,2 Z " fill="#8F7396" transform="translate(644,520)"/>
<path d="M0,0 L2,0 L3,6 L1,9 L5,11 L0,15 L-2,12 L-4,12 L-5,16 L-12,17 L-14,15 L-15,8 L-10,7 L-8,4 L-5,4 L-5,6 L-1,6 Z " fill="#917999" transform="translate(473,520)"/>
<path d="M0,0 L4,2 L4,5 L6,5 L6,9 L9,9 L9,14 L-6,13 L-6,9 L-12,8 L-12,5 L-6,4 L-3,5 L-2,3 L0,4 Z " fill="#CAAFD1" transform="translate(504,695)"/>
<path d="M0,0 L6,1 L2,2 L2,4 L0,4 L0,6 L-36,7 L-66,7 L-66,6 L-46,4 L-26,4 L-4,5 L-4,3 L-24,3 L-24,2 L-1,1 L-1,3 L1,3 Z " fill="#826E88" transform="translate(644,748)"/>
<path d="M0,0 L38,0 L45,1 L46,2 L64,4 L74,5 L74,7 L72,8 L60,8 L56,6 L44,6 L44,4 L36,4 L32,2 L15,2 L0,1 Z " fill="#977E9C" transform="translate(496,736)"/>
<path d="M0,0 L1,4 L3,4 L3,14 L5,14 L5,18 L7,18 L7,22 L9,22 L9,34 L11,34 L11,40 L13,40 L13,48 L12,48 L12,41 L10,41 L9,43 L7,41 L3,28 L3,18 L4,15 L2,15 L1,18 L2,5 L-1,6 Z " fill="#775B7D" transform="translate(679,586)"/>
<path d="M0,0 L1,4 Z M-4,4 L0,5 L-4,15 L0,17 L2,16 L2,18 L4,19 L2,23 L2,26 L4,23 L5,30 L8,30 L9,36 L4,37 L4,32 L0,31 L0,27 L-4,26 L-5,12 L-7,11 L-4,8 Z " fill="#C5ABCD" transform="translate(472,662)"/>
<path d="M0,0 L2,1 L2,4 L0,5 L0,8 L-4,8 L-4,10 L-8,10 L-8,12 L-11,12 L-11,14 L-16,14 L-16,16 L-18,16 L-18,14 L-20,15 L-37,15 L-37,14 L-21,13 L-21,11 L-17,8 L-12,6 L-10,4 L-4,2 Z " fill="#846E89" transform="translate(661,735)"/>
<path d="M0,0 L6,0 L7,3 L30,3 L37,4 L41,7 L23,7 L5,6 L3,5 L3,7 L0,7 L0,5 L-6,5 L-6,3 L-8,2 Z " fill="#8F7794" transform="translate(490,737)"/>
<path d="M0,0 L3,0 L4,5 L5,7 L9,8 L12,10 L12,12 L15,14 L21,15 L21,16 L14,16 L14,18 L21,18 L21,19 L13,19 L13,17 L9,17 L9,13 L7,13 L7,11 L1,11 L1,9 L-3,9 L-3,7 L-7,7 L-7,5 L-11,4 L-4,3 L-6,4 L-6,6 L-3,6 L-3,2 L0,2 Z " fill="#716076" transform="translate(393,695)"/>
<path d="M0,0 L4,1 L8,0 L9,3 L15,3 L15,5 L20,6 L24,8 L25,13 L24,11 L18,11 L15,13 L12,13 L12,11 L14,10 L13,9 L4,9 L3,6 L-4,5 L-4,3 L0,2 Z " fill="#86728A" transform="translate(411,708)"/>
<path d="M0,0 L2,0 L4,2 L6,6 L6,10 L8,10 L8,62 L6,62 L6,11 L4,11 L4,8 L2,8 L0,3 Z " fill="#A88CB1" transform="translate(655,621)"/>
<path d="M0,0 L1,0 L1,10 L3,10 L2,14 L-5,21 L-10,24 L-15,25 L-15,23 L-17,23 L-17,26 L-14,27 L-15,29 L-17,29 L-17,27 L-19,27 L-18,33 L-19,31 L-24,31 L-20,30 L-20,26 L-18,26 L-18,22 L-16,22 L-16,20 L-10,20 L-10,18 L-8,18 L-8,16 L-6,16 L-6,14 L-4,14 L-4,12 L-2,12 L-2,10 L0,10 Z " fill="#735A7A" transform="translate(492,460)"/>
<path d="M0,0 L1,2 L4,3 L5,6 L5,17 L7,17 L8,32 L13,37 L12,39 L10,38 L10,36 L7,36 L7,34 L5,34 L3,32 L2,9 L0,7 L-1,2 Z " fill="#B49DBB" transform="translate(452,664)"/>
<path d="M0,0 L1,3 L3,3 L4,0 L8,1 L9,3 L17,5 L19,7 L15,7 L15,9 L23,8 L27,9 L27,11 L31,12 L27,13 L28,17 L26,16 L26,14 L21,13 L20,10 L14,10 L14,8 L6,8 L6,6 L2,6 L2,4 L0,4 Z " fill="#745E77" transform="translate(436,728)"/>
<path d="M0,0 L2,0 L5,5 L8,7 L10,14 L10,16 L13,15 L13,17 L22,17 L23,14 L23,18 L13,18 L13,20 L7,20 L7,18 L5,18 L5,10 L1,8 L1,6 L-4,5 L-5,3 L0,2 Z " fill="#77697C" transform="translate(277,678)"/>
<path d="M0,0 L11,1 L16,2 L36,3 L40,4 L57,5 L57,6 L19,6 L16,5 L4,4 L-2,2 Z " fill="#9E85A3" transform="translate(477,729)"/>
<path d="M0,0 L1,4 L-1,4 L-1,8 L-3,8 L-3,18 L-5,18 L-5,40 L-6,40 L-6,18 L-8,18 L-8,32 L-9,32 L-9,16 L-7,7 L-5,3 L0,3 Z " fill="#6A5470" transform="translate(669,494)"/>
<path d="M0,0 L2,0 L2,22 L0,22 L0,36 L-1,42 L-2,42 L-3,37 L-3,15 L0,14 Z " fill="#816689" transform="translate(661,512)"/>
<path d="M0,0 L2,0 L3,4 L3,9 L6,10 L4,19 L-3,20 L-4,6 L-2,6 Z " fill="#826989" transform="translate(511,437)"/>
<path d="M0,0 L1,3 L4,4 L3,7 L1,7 L1,5 L-1,5 L0,8 L-5,7 L-5,9 L-2,9 L-2,18 L-6,20 L-12,20 L-12,16 L-10,16 L-10,14 L-8,14 L-8,8 L-6,8 L-6,6 L-2,6 L-2,4 L0,4 Z " fill="#7D6987" transform="translate(466,492)"/>
<path d="M0,0 L3,0 L6,5 L8,11 L8,27 L6,31 L3,30 L4,25 L5,21 L5,13 L2,11 L-2,1 Z " fill="#A287AC" transform="translate(669,683)"/>
<path d="M0,0 L6,0 L7,3 L14,5 L14,9 L11,9 L10,7 L6,7 L6,5 L-23,5 L-23,3 L0,2 Z " fill="#86768D" transform="translate(376,692)"/>
<path d="M0,0 L3,0 L3,10 L0,15 L-1,21 L-7,23 L-14,32 L-18,35 L-23,36 L-23,34 L-18,32 L-13,27 L-8,21 L-3,16 L-1,9 Z M-24,36 Z " fill="#8C7492" transform="translate(688,694)"/>
<path d="M0,0 L8,0 L7,2 L13,2 L11,6 L3,7 L0,7 L-16,8 L-16,6 L-11,6 L-11,4 L-4,4 L-4,2 L0,2 Z M13,1 Z M2,7 Z " fill="#826E8A" transform="translate(421,525)"/>
<path d="M0,0 L1,0 L1,13 L3,13 L3,11 L5,11 L6,13 L7,28 L5,30 L4,35 L3,35 L3,17 L1,17 L1,34 L0,34 L0,16 L2,16 L2,14 L0,14 Z " fill="#685B70" transform="translate(282,568)"/>
<path d="M0,0 L67,1 L67,2 L48,3 L43,4 L43,2 L39,4 L31,4 L29,3 L0,1 Z " fill="#9E85A3" transform="translate(535,735)"/>
<path d="M0,0 L1,0 L2,22 L2,50 L0,50 L0,36 L-2,36 L-2,22 L0,22 Z " fill="#100C11" transform="translate(664,512)"/>
<path d="M0,0 L4,3 L4,10 L9,12 L13,17 L13,20 L16,19 L17,24 L13,25 L12,24 L12,19 L7,19 L5,12 L1,12 L2,7 L0,6 Z " fill="#A686AF" transform="translate(639,585)"/>
<path d="M0,0 L1,0 L4,18 L4,28 L3,28 L2,20 L0,20 L0,18 L-3,18 L-4,16 L-4,9 L-1,9 L-1,2 Z " fill="#967AA0" transform="translate(640,551)"/>
<path d="M0,0 L1,0 L2,8 L1,14 L5,12 L7,8 L9,9 L8,15 L1,17 L-2,18 L-4,23 L-5,23 L-5,17 L-2,11 L-1,5 L-3,4 Z " fill="#BE9FC8" transform="translate(644,657)"/>
<path d="M0,0 L13,0 L19,1 L14,6 L10,7 L7,8 L5,7 L5,5 L1,4 Z M5,4 Z " fill="#806D8C" transform="translate(441,511)"/>
<path d="M0,0 L3,1 L-2,4 L-10,5 L-10,7 L-20,9 L-44,9 L-44,8 L-30,7 L-14,5 L-9,2 Z " fill="#9D85A3" transform="translate(654,727)"/>
<path d="M0,0 L3,1 L0,3 L0,12 L-2,19 L-4,21 L-13,22 L-18,20 L-15,18 L-5,19 L-6,14 L-4,13 L-3,2 Z " fill="#866B8F" transform="translate(478,492)"/>
<path d="M0,0 L2,2 L2,19 L0,20 L-1,25 L-5,26 L-6,28 L-14,31 L-21,38 L-24,37 L-18,32 L-14,28 L-7,25 L-4,22 L-2,22 L0,9 Z " fill="#9981A0" transform="translate(680,691)"/>
<path d="M0,0 L1,3 L1,7 L3,7 L4,4 L4,8 L2,8 L2,12 L-1,12 L-1,27 L-3,27 L-4,9 L-3,5 Z " fill="#7F6685" transform="translate(682,448)"/>
<path d="M0,0 L2,1 L-5,7 L-14,8 L-14,10 L-21,12 L-37,12 L-37,11 L-29,10 L-28,9 L-17,8 L-13,6 L-10,4 L-1,1 Z " fill="#A48DAA" transform="translate(657,720)"/>
<path d="M0,0 L2,1 L1,3 L-1,3 L0,9 L-7,15 L-11,21 L-12,19 L-15,19 L-15,17 L-12,17 L-12,12 L-10,12 L-10,10 L-6,10 L-6,6 L-2,6 L-2,2 L0,2 Z " fill="#7D6D88" transform="translate(392,544)"/>
<path d="M0,0 L3,0 L3,3 L5,3 L6,5 L7,16 L9,21 L9,24 L7,24 L5,18 L5,12 L1,11 L1,7 L-2,7 L-3,3 Z " fill="#8D6F93" transform="translate(654,564)"/>
<path d="M0,0 L1,3 L10,2 L14,4 L9,5 L9,7 L14,5 L18,5 L19,9 L17,9 L17,11 L22,10 L22,14 L20,14 L20,12 L16,12 L16,10 L12,10 L12,8 L8,8 L8,6 L4,6 L4,4 L0,4 Z " fill="#756178" transform="translate(414,714)"/>
<path d="M0,0 L10,0 L13,2 L9,2 L9,4 L1,4 L1,6 L-1,6 L-1,10 L-5,10 L-5,12 L-9,12 L-9,14 L-13,13 L-10,13 L-10,11 L-13,10 L-6,11 L-6,9 L-9,8 L-2,9 L-3,4 L0,5 L-1,2 Z " fill="#725D77" transform="translate(663,734)"/>
<path d="M0,0 L1,0 L1,16 L3,16 L5,23 L4,24 L7,25 L5,25 L5,27 L8,28 L3,27 L2,24 L-2,24 L-2,16 L0,16 Z " fill="#6F6175" transform="translate(252,638)"/>
<path d="M0,0 Z M-4,0 L0,1 L-2,5 L0,9 L-12,7 L-12,1 Z " fill="#AC92B7" transform="translate(496,548)"/>
<path d="M0,0 L1,0 L1,6 L3,6 L3,9 L1,9 L1,7 L-1,7 L1,11 L1,14 L3,15 L-1,19 L-1,14 L-5,13 L-5,15 L-7,15 L-7,19 L-9,19 L-9,21 L-15,22 L-14,20 L-12,20 L-12,18 L-10,18 L-10,16 L-8,16 L-8,14 L-6,14 L-6,12 L-4,12 L-4,10 L-2,10 L-2,6 L0,6 Z " fill="#78607D" transform="translate(532,402)"/>
<path d="M0,0 L10,2 L12,3 L12,5 L15,5 L16,7 L21,8 L21,10 L14,10 L8,8 L5,4 L0,3 Z " fill="#A48DA9" transform="translate(461,715)"/>
<path d="M0,0 L1,0 L1,6 L3,6 L3,8 L5,8 L5,20 L7,20 L7,26 L5,26 L5,38 L3,38 L2,40 L1,37 L4,37 L2,20 L4,20 L3,10 L1,11 L2,7 L-1,6 Z " fill="#6B5770" transform="translate(693,676)"/>
<path d="M0,0 L2,0 L4,7 L6,10 L6,17 L4,23 L2,27 L1,11 Z " fill="#B195BB" transform="translate(659,683)"/>
<path d="M0,0 L1,0 L1,31 L-2,31 L-2,3 Z " fill="#AE94B9" transform="translate(658,652)"/>
<path d="M0,0 L4,2 L6,4 L0,7 L-1,4 L-3,4 L-4,8 L-11,9 L-13,7 L-12,4 L-6,4 L-5,1 Z " fill="#967D9F" transform="translate(472,528)"/>
<path d="M0,0 L6,1 L2,2 L2,4 L0,4 L0,6 L-26,6 L-26,5 L-4,5 L-4,3 L-24,3 L-24,2 L-1,1 L-1,3 L1,3 Z " fill="#716074" transform="translate(644,748)"/>
<path d="M0,0 Z M-4,0 L0,1 L-2,5 L-6,7 L-12,11 L-12,7 L-16,8 L-16,6 L-13,5 L-12,3 Z M-11,5 Z M-12,6 Z " fill="#A88DB3" transform="translate(484,546)"/>
<path d="M0,0 L15,1 L16,6 L0,5 Z " fill="#8F7793" transform="translate(532,743)"/>
<path d="M0,0 L4,0 L4,6 L8,6 L8,30 L7,30 L7,7 L5,7 L5,29 L4,29 L3,11 L1,7 L3,6 L3,1 Z " fill="#6E5E70" transform="translate(686,406)"/>
<path d="M0,0 L2,3 L2,8 L4,8 L5,16 L0,17 L-1,13 L0,12 L-3,5 L-3,1 Z " fill="#86778A" transform="translate(272,664)"/>
<path d="M0,0 L2,1 L3,8 L1,13 L3,13 L2,20 L2,24 L0,24 L-1,21 L-1,2 Z " fill="#8C6F92" transform="translate(644,520)"/>
<path d="M0,0 L18,0 L39,1 L39,2 L0,3 Z " fill="#846C88" transform="translate(538,754)"/>
<path d="M0,0 L1,0 L1,16 L-1,16 L-1,20 L-3,20 L-4,24 L-4,20 L-7,19 L-5,14 L-4,13 L-5,10 L-3,10 L-3,4 L-2,4 L-2,15 L0,15 Z " fill="#725B77" transform="translate(681,460)"/>
<path d="M0,0 L2,0 L2,4 L6,4 L7,12 L1,12 L-1,1 Z " fill="#A88EB0" transform="translate(436,660)"/>
<path d="M0,0 L1,0 L1,12 L3,12 L3,18 L5,18 L5,26 L4,26 L4,19 L2,19 L1,21 L-1,19 L-3,13 L-3,8 L-2,12 L0,12 Z " fill="#6F5876" transform="translate(687,608)"/>
<path d="M0,0 L2,1 L2,4 L4,4 L5,7 L8,10 L9,15 L9,22 L7,21 L6,13 L3,10 L3,7 L-1,7 Z " fill="#94779C" transform="translate(652,576)"/>
<path d="M0,0 L11,0 L11,3 L9,5 L5,5 L5,3 L1,6 L1,4 L-4,6 L-3,1 Z M-5,6 Z " fill="#9884A0" transform="translate(435,548)"/>
<path d="M0,0 L6,0 L6,1 L1,1 L1,3 L6,3 L2,5 L-3,9 L-5,11 L-5,9 L-7,9 L-7,11 L-9,11 L-10,14 L-10,10 L-8,10 L-8,8 L-6,8 L-6,4 L-4,4 L-4,2 L0,2 Z " fill="#6C5D73" transform="translate(404,530)"/>
<path d="M0,0 L3,0 L6,0 L5,6 L7,0 L9,0 L9,7 L6,8 L5,11 L3,11 L2,5 L-1,8 Z " fill="#856C89" transform="translate(680,444)"/>
<path d="M0,0 L11,1 L11,3 L13,3 L13,6 L18,6 L20,10 L18,11 L18,8 L12,7 L3,4 L3,2 L0,1 Z " fill="#9E87A3" transform="translate(448,712)"/>
<path d="M0,0 L4,3 L4,23 L2,24 L0,28 L-1,28 L-1,23 L2,22 L1,5 Z " fill="#947A9C" transform="translate(680,688)"/>
<path d="M0,0 L3,0 L4,5 L5,7 L-3,8 L-7,7 L-7,5 L-11,4 L-4,3 L-6,4 L-6,6 L-3,6 L-3,2 L0,2 Z " fill="#796880" transform="translate(393,695)"/>
<path d="M0,0 L1,3 L3,3 L4,0 L8,1 L9,3 L14,4 L14,7 L6,7 L2,6 L2,4 L0,4 Z " fill="#7C6581" transform="translate(436,728)"/>
<path d="M0,0 L2,4 L1,11 L-2,13 L-6,13 L-6,11 L-3,9 L-6,7 L-2,3 L0,3 Z " fill="#B89FC0" transform="translate(658,700)"/>
<path d="M0,0 L5,0 L5,2 L-8,5 L-9,6 L-22,6 L-25,4 L-9,3 Z " fill="#B7A1BD" transform="translate(647,713)"/>
<path d="M0,0 L4,5 L5,10 L3,10 L4,14 L2,13 L2,11 L-2,11 L-3,5 L0,4 Z " fill="#7C6E7F" transform="translate(268,667)"/>
<path d="M0,0 L4,0 L2,4 L-6,12 L-9,15 L-10,9 L-4,8 L-4,6 L-2,6 L-2,2 L0,2 Z " fill="#7E6585" transform="translate(527,415)"/>
<path d="M0,0 L1,0 L1,10 L3,10 L1,15 L-3,19 L-3,17 L-5,17 L-6,20 L-6,16 L-4,16 L-3,11 L0,10 Z " fill="#725D76" transform="translate(548,370)"/>
<path d="M0,0 L12,0 L11,4 L6,5 L6,3 L-1,4 L-3,2 Z " fill="#836E88" transform="translate(566,345)"/>
<path d="M0,0 L7,0 L3,5 L-4,8 L-6,8 L-6,4 Z " fill="#A68FAC" transform="translate(665,712)"/>
<path d="M0,0 L4,2 L4,5 L6,5 L6,9 L9,9 L9,11 L1,9 L-3,5 L-2,3 L0,4 Z " fill="#D0B2D4" transform="translate(504,695)"/>
<path d="M0,0 L2,1 L4,6 L3,9 L-1,10 L-1,4 L-8,5 L-6,2 Z " fill="#D6B8DA" transform="translate(525,695)"/>
<path d="M0,0 L1,2 L3,2 L1,7 L-2,10 L-7,11 L-5,10 L-5,2 L0,2 Z " fill="#A08AA9" transform="translate(459,546)"/>
<path d="M0,0 L5,1 L7,6 L16,6 L16,8 L6,8 L-1,4 Z " fill="#836D84" transform="translate(659,393)"/>
<path d="M0,0 L3,0 L5,6 L9,7 L10,9 L8,11 L3,8 L3,6 L-3,4 L-4,2 Z " fill="#8E7792" transform="translate(432,710)"/>
<path d="M0,0 L3,0 L2,4 L0,6 L-2,16 L-4,16 L-4,3 L0,4 Z " fill="#7F6F89" transform="translate(287,565)"/>
<path d="M0,0 L1,0 L1,6 L3,6 L3,10 L7,12 L7,14 L9,14 L8,18 L7,16 L5,19 L3,15 L2,12 L1,10 L2,7 L0,7 L0,9 L-2,9 L-2,6 L0,6 Z " fill="#6A506F" transform="translate(669,568)"/>
<path d="M0,0 Z M-2,1 L0,2 L-2,5 L-6,5 L-7,8 L-10,8 L-10,11 L-14,12 L-15,8 L-13,5 L-3,3 Z " fill="#A58CAF" transform="translate(478,544)"/>
<path d="M0,0 L4,1 L0,6 L-7,7 L-9,11 L-12,10 L-9,9 L-7,4 L-1,3 Z " fill="#947D9A" transform="translate(675,716)"/>
<path d="M0,0 L7,1 L7,4 L9,4 L9,8 L3,8 Z " fill="#BBA2C2" transform="translate(473,704)"/>
<path d="M0,0 L1,0 L2,32 L0,32 L0,26 L-2,26 L-2,22 L0,22 Z " fill="#161117" transform="translate(694,650)"/>
<path d="M0,0 L5,0 L5,11 L4,9 L1,9 L0,7 Z " fill="#997DA3" transform="translate(636,560)"/>
<path d="M0,0 L2,1 L3,14 L4,16 L1,17 L-2,5 L-3,1 Z " fill="#917699" transform="translate(641,544)"/>
<path d="M0,0 L5,1 L5,4 L7,4 L9,10 L9,15 L7,15 L4,10 L5,5 L3,5 L3,3 L0,3 Z " fill="#AA93B0" transform="translate(450,696)"/>
<path d="M0,0 L4,0 L4,4 L8,6 L10,8 L10,12 L6,11 L6,9 L3,8 L2,5 L0,3 L3,3 L3,1 Z " fill="#100E10" transform="translate(256,666)"/>
<path d="M0,0 L1,0 L1,14 L3,14 L3,16 L1,16 L1,34 L-3,33 L0,33 L-1,14 Z " fill="#18151A" transform="translate(281,568)"/>
<path d="M0,0 L11,0 L7,6 L3,5 L3,3 L-1,2 Z M3,2 Z " fill="#7A6986" transform="translate(443,513)"/>
<path d="M0,0 L2,2 L2,6 L5,6 L5,14 L3,14 L2,16 L0,6 Z M-1,16 L2,17 L-1,18 Z " fill="#8E7394" transform="translate(639,506)"/>
<path d="M0,0 L2,0 L2,8 L1,15 L-2,15 L-2,5 L0,5 Z " fill="#826889" transform="translate(495,455)"/>
<path d="M0,0 L6,0 L7,3 L14,5 L14,9 L11,9 L10,7 L6,7 L6,2 L0,2 Z " fill="#807187" transform="translate(376,692)"/>
<path d="M0,0 L1,3 L4,4 L3,7 L1,7 L1,5 L-1,5 L0,8 L-5,7 L-5,9 L-3,10 L-5,13 L-5,11 L-7,11 L-8,14 L-8,8 L-6,8 L-6,6 L-2,6 L-2,4 L0,4 Z " fill="#6C5A75" transform="translate(466,492)"/>
<path d="M0,0 L2,1 L3,1 L7,2 L6,9 L0,4 L0,2 L-4,1 Z " fill="#766179" transform="translate(468,744)"/>
<path d="M0,0 L3,0 L3,4 L1,4 L1,7 L-8,7 L-8,4 L-1,3 Z " fill="#857589" transform="translate(298,688)"/>
<path d="M0,0 L2,0 L2,3 L4,4 L1,11 L-2,11 L-2,3 L0,3 Z M4,2 Z " fill="#7E6D88" transform="translate(255,621)"/>
<path d="M0,0 L10,0 L10,2 L14,2 L14,4 L18,5 L14,5 L14,7 L5,4 L9,3 L9,1 L0,1 Z " fill="#6F5C70" transform="translate(630,382)"/>
<path d="M0,0 L2,4 L5,9 L6,13 L6,24 L5,24 L3,9 L1,9 Z " fill="#86678D" transform="translate(675,596)"/>
<path d="M0,0 L11,0 L15,2 L22,3 L22,4 L10,4 L3,2 Z " fill="#B49DBA" transform="translate(480,715)"/>
<path d="M0,0 L7,0 L12,3 L11,7 L9,7 L9,5 L6,5 L6,2 L0,2 Z " fill="#8E7792" transform="translate(442,719)"/>
<path d="M0,0 L2,0 L5,10 L6,22 L4,18 L2,13 L1,3 Z " fill="#8F7096" transform="translate(673,607)"/>
<path d="M0,0 L2,2 L3,17 L0,19 L-1,3 Z " fill="#7C6C86" transform="translate(286,579)"/>
<path d="M0,0 L7,1 L5,2 L4,4 L0,5 L-6,4 L-6,1 Z " fill="#CDB0D0" transform="translate(526,707)"/>
<path d="M0,0 L4,3 L4,10 L7,11 L6,15 L5,12 L1,12 L2,7 L0,6 Z " fill="#A78BB1" transform="translate(639,585)"/>
<path d="M0,0 L3,3 L4,11 L1,10 L1,6 L-2,6 L-3,2 Z " fill="#8D7095" transform="translate(654,565)"/>
<path d="M0,0 L1,2 L14,2 L14,3 L5,4 L2,5 L0,4 L0,2 L-3,2 L-3,6 L-7,4 L-4,3 L-4,1 Z " fill="#786982" transform="translate(290,563)"/>
<path d="M0,0 L1,3 L10,2 L14,4 L9,5 L8,7 L4,6 L4,4 L0,4 Z " fill="#77657A" transform="translate(414,714)"/>
<path d="M0,0 L1,3 L3,3 L3,17 L1,13 L-1,6 L-1,1 Z " fill="#7F6186" transform="translate(676,583)"/>
<path d="M0,0 L3,0 L3,5 L0,6 L-1,9 L-5,9 L-3,4 Z " fill="#816788" transform="translate(670,488)"/>
<path d="M0,0 L4,0 L4,2 L13,2 L13,4 L4,5 L0,3 Z " fill="#8A728B" transform="translate(626,381)"/>
<path d="M0,0 L1,4 L-1,4 L-1,6 L-3,6 L-3,10 L-5,10 L-5,12 L-9,11 L-6,11 L-6,9 L-8,8 L-5,6 L-5,3 L-3,3 L-2,1 L-2,3 L0,3 Z " fill="#6E5A73" transform="translate(685,722)"/>
<path d="M0,0 L4,1 L4,3 L7,4 L7,7 L-4,5 L-4,3 L0,2 Z " fill="#847188" transform="translate(411,708)"/>
<path d="M0,0 L2,0 L2,7 L-2,8 L-2,10 L-4,10 L-3,5 L-2,2 L0,2 Z M0,5 Z " fill="#7D6A85" transform="translate(397,539)"/>
<path d="M0,0 L3,1 L-1,8 L-3,10 L-6,10 L-5,4 L0,3 Z " fill="#927599" transform="translate(511,484)"/>
<path d="M0,0 L1,0 L1,10 L3,10 L2,14 L0,15 L0,13 L-3,13 L-3,15 L-6,14 L-4,14 L-4,12 L-2,12 L-2,10 L0,10 Z " fill="#6E5874" transform="translate(492,460)"/>
<path d="M0,0 L1,0 L2,7 L-3,13 L-4,13 L-4,6 L-2,6 L-2,4 L0,4 Z " fill="#886E8C" transform="translate(542,406)"/>
<path d="M0,0 L2,0 L4,5 L2,5 L3,9 L1,8 L1,6 L-4,5 L-5,3 L0,2 Z " fill="#746777" transform="translate(277,678)"/>
<path d="M0,0 L1,2 L6,3 L5,9 L3,5 L-4,7 L-3,4 Z " fill="#8A7A93" transform="translate(272,624)"/>
<path d="M0,0 L15,2 L15,3 L6,4 L4,5 L-2,3 L0,2 Z " fill="#9B81A6" transform="translate(480,528)"/>
<path d="M0,0 L14,0 L14,1 L1,1 L1,3 L3,4 L2,6 L-1,6 L-1,3 L-3,3 L-4,6 L-4,2 L0,2 Z " fill="#65566F" transform="translate(440,510)"/>
<path d="M0,0 L2,0 L2,2 L0,2 L1,10 L0,7 L-2,7 L-2,1 Z M-4,8 L-2,8 L-2,10 L0,11 L-1,14 L-4,11 Z " fill="#846A89" transform="translate(535,401)"/>
<path d="M0,0 L2,0 L2,2 L5,1 L5,5 L2,7 L-2,7 L-2,3 L0,3 Z " fill="#826B87" transform="translate(543,387)"/>
<path d="M0,0 L3,0 L3,9 L-1,9 L-1,1 Z " fill="#816889" transform="translate(662,502)"/>
<path d="M0,0 L2,1 L1,3 L-1,3 L-1,5 L2,6 L-3,10 L-3,5 L-5,5 L-5,10 L-6,10 L-6,4 L-2,4 L-2,2 L0,2 Z " fill="#705976" transform="translate(500,450)"/>
<path d="M0,0 L2,1 L1,3 L-1,3 L-1,5 L-3,5 L-3,9 L-5,9 L-5,11 L-11,12 L-10,10 L-8,10 L-8,8 L-6,8 L-6,6 L-4,6 L-4,4 L-2,4 L-2,2 L0,2 Z " fill="#6E5774" transform="translate(528,412)"/>
<path d="M0,0 L13,1 L12,3 L-2,3 L-2,1 Z " fill="#8F7793" transform="translate(564,748)"/>
<path d="M0,0 L2,0 L5,4 L-14,4 L-10,2 L0,3 Z " fill="#C8ADCF" transform="translate(560,709)"/>
<path d="M0,0 L1,0 L2,15 L-1,15 L-1,1 Z " fill="#A287AD" transform="translate(664,668)"/>
<path d="M0,0 L1,3 L3,4 L-3,3 L-3,5 L-5,5 L-4,9 L-7,10 L-7,7 L-9,7 L-10,10 L-10,6 L-6,6 L-6,4 L-4,4 L-4,2 L0,2 Z " fill="#695B73" transform="translate(264,614)"/>
<path d="M0,0 L4,1 L1,1 L1,3 L4,4 L0,5 L0,3 L-3,3 L-3,7 L-9,8 L-6,4 L-4,4 L-4,2 L0,2 Z " fill="#685A70" transform="translate(278,602)"/>
<path d="M0,0 L5,2 L8,6 L6,9 L6,7 L1,5 Z " fill="#977CA0" transform="translate(651,584)"/>
<path d="M0,0 L1,0 L1,5 L3,5 L3,0 L4,0 L4,8 L2,8 L2,18 L1,18 Z " fill="#130F13" transform="translate(546,362)"/>
<path d="M0,0 L5,1 L5,3 L16,5 L16,6 L8,6 L0,2 Z " fill="#AE96B3" transform="translate(469,713)"/>
<path d="M0,0 L2,1 L1,7 L-6,9 L-4,4 L-2,4 Z " fill="#B79BC3" transform="translate(651,665)"/>
<path d="M0,0 L4,0 L3,3 L0,6 L-8,6 L-8,4 L-1,3 Z " fill="#81708D" transform="translate(367,559)"/>
<path d="M0,0 L3,1 L0,4 L-4,5 L-8,8 L-7,3 Z " fill="#AC90B7" transform="translate(480,549)"/>
<path d="M0,0 L7,0 L4,4 L0,4 Z M-3,4 L0,4 L0,6 L-4,5 Z " fill="#887490" transform="translate(438,527)"/>
<path d="M0,0 L2,0 L2,3 L4,4 L0,8 L-4,8 L-4,6 L-2,6 Z " fill="#7E6A88" transform="translate(437,513)"/>
<path d="M0,0 L2,0 L2,4 L10,6 L10,8 L4,8 L0,6 Z " fill="#866D8B" transform="translate(595,349)"/>
<path d="M0,0 L2,2 L1,5 L1,3 L-1,4 L0,7 L-3,7 L-4,9 L-5,5 L-4,2 Z " fill="#816A87" transform="translate(679,726)"/>
<path d="M0,0 L6,0 L6,2 L11,3 L15,6 L9,6 L9,4 L5,4 L5,2 L0,1 Z " fill="#89748E" transform="translate(420,711)"/>
<path d="M0,0 L1,4 L-1,4 L-1,8 L-7,8 L-5,3 L0,3 Z " fill="#745D7B" transform="translate(669,494)"/>
<path d="M0,0 L4,0 L4,2 L7,2 L7,7 L4,6 L4,4 L0,3 Z " fill="#847189" transform="translate(682,405)"/>
<path d="M0,0 L2,0 L0,6 L-5,7 L-4,1 Z " fill="#826C87" transform="translate(689,715)"/>
<path d="M0,0 L2,1 L2,3 L5,3 L6,9 L2,8 L2,5 L0,5 Z " fill="#896A90" transform="translate(670,593)"/>
<path d="M0,0 L3,0 L2,6 L-2,8 L-3,6 Z " fill="#A58DAE" transform="translate(458,554)"/>
<path d="M0,0 L1,3 L3,3 L4,0 L4,6 L2,6 L2,16 L1,16 Z " fill="#120E13" transform="translate(490,454)"/>
<path d="M0,0 L7,0 L7,2 L10,2 L10,4 L6,5 L4,3 L0,2 Z " fill="#846D8A" transform="translate(579,343)"/>
<path d="M0,0 L2,1 L1,3 L-1,3 L0,9 L-3,11 L-3,7 L-5,7 L-6,10 L-6,6 L-2,6 L-2,2 L0,2 Z " fill="#6B5E73" transform="translate(392,544)"/>
<path d="M0,0 L2,0 L3,4 L-1,10 L-2,10 L-2,4 Z " fill="#7E6484" transform="translate(511,437)"/>
<path d="M0,0 L1,0 L1,5 L-5,7 L-5,2 L0,2 Z " fill="#9C88A4" transform="translate(459,546)"/>
<path d="M0,0 L3,1 L2,4 L-4,6 L-3,1 Z M-5,6 Z " fill="#937F9B" transform="translate(435,548)"/>
<path d="M0,0 L2,4 L-3,3 L-3,7 L-7,7 L-8,10 L-7,5 L-4,4 L-4,2 L0,2 Z " fill="#6C5B70" transform="translate(562,348)"/>
<path d="M0,0 L4,2 L4,5 L8,6 L8,9 L6,9 L6,7 L3,7 L0,2 Z " fill="#A58EAB" transform="translate(453,706)"/>
<path d="M0,0 L2,0 L3,3 L2,6 L-2,7 L-2,2 Z " fill="#D3B6D6" transform="translate(526,698)"/>
<path d="M0,0 L4,1 L4,4 L-2,6 L-1,1 Z " fill="#88798E" transform="translate(272,635)"/>
<path d="M0,0 L4,0 L4,2 L6,2 L5,6 L4,4 L2,7 L0,3 Z " fill="#74587B" transform="translate(672,580)"/>
<path d="M0,0 L3,0 L3,6 L-1,8 Z " fill="#897692" transform="translate(393,569)"/>
<path d="M0,0 L7,0 L10,1 L11,4 L-1,2 Z " fill="#AF95BC" transform="translate(485,553)"/>
<path d="M0,0 L3,0 L4,3 L1,6 L-3,6 L-3,4 L-1,4 Z " fill="#7F6687" transform="translate(502,449)"/>
<path d="M0,0 L8,3 L11,6 L4,5 L3,3 L0,2 Z " fill="#9A839F" transform="translate(440,709)"/>
<path d="M0,0 L1,4 L-3,4 L-3,6 L-7,6 L-7,2 L0,3 Z " fill="#131015" transform="translate(379,556)"/>
<path d="M0,0 L3,0 L3,2 L8,2 L4,4 L1,7 L0,2 Z " fill="#AF90B7" transform="translate(512,548)"/>
<path d="M0,0 L4,0 L4,2 L7,2 L7,5 L2,4 L0,3 Z " fill="#856F86" transform="translate(644,387)"/>
<path d="M0,0 L3,0 L3,3 L5,3 L6,9 L4,9 Z " fill="#896C90" transform="translate(654,564)"/>
<path d="M0,0 L4,1 L-3,7 L-5,7 L-5,5 Z " fill="#A28BA8" transform="translate(668,712)"/>
<path d="M0,0 L2,1 L2,3 L4,5 L3,7 L0,7 L-2,1 Z " fill="#846F89" transform="translate(403,704)"/>
<path d="M0,0 L4,0 L4,4 L2,4 L2,12 L1,12 Z " fill="#110F13" transform="translate(250,620)"/>
<path d="M0,0 L2,0 L4,6 L4,11 L1,7 Z " fill="#97799E" transform="translate(661,598)"/>
<path d="M0,0 L3,0 L2,4 L-2,4 L-2,6 L-4,6 L-3,2 L0,2 Z " fill="#806586" transform="translate(489,473)"/>
<path d="M0,0 L2,0 L1,7 L-2,7 L-2,2 L0,2 Z " fill="#816788" transform="translate(515,429)"/>
<path d="M0,0 L2,1 L-1,4 L-3,10 L-4,10 L-4,2 Z " fill="#C1A5CB" transform="translate(464,654)"/>
<path d="M0,0 L1,3 L3,4 L0,8 L-2,8 L-1,3 Z " fill="#87758F" transform="translate(420,540)"/>
<path d="M0,0 L1,2 L6,2 L2,4 L-5,4 L-5,2 L0,2 Z " fill="#7F6D87" transform="translate(410,529)"/>
<path d="M0,0 L2,1 L1,3 L4,4 L1,6 L-2,6 L-2,2 L0,2 Z " fill="#73627C" transform="translate(456,506)"/>
<path d="M0,0 L4,0 L5,9 L3,9 L2,11 L1,6 L3,6 L3,1 Z " fill="#736377" transform="translate(686,406)"/>
<path d="M0,0 L3,0 L1,4 L-3,6 L-3,3 L-1,3 Z " fill="#9E87A3" transform="translate(660,721)"/>
<path d="M0,0 L5,5 L4,9 L3,6 L0,6 Z " fill="#A88DB3" transform="translate(663,683)"/>
<path d="M0,0 L1,4 Z M-4,4 L0,5 L-3,11 L-5,11 Z " fill="#C7ABD2" transform="translate(472,662)"/>
<path d="M0,0 L3,1 L2,6 L-2,8 L-1,2 Z " fill="#81728D" transform="translate(384,568)"/>
<path d="M0,0 L5,1 L1,6 L0,3 L-2,2 Z " fill="#BE9EC9" transform="translate(606,640)"/>
<path d="M0,0 L5,0 L5,7 L1,3 Z " fill="#A888AD" transform="translate(656,620)"/>
<path d="M0,0 L4,1 L2,1 L2,3 L0,3 L0,5 L-4,4 L-1,4 L-1,2 L-3,1 Z " fill="#6D5B71" transform="translate(690,717)"/>
<path d="M0,0 L4,1 L2,6 L0,6 Z " fill="#837488" transform="translate(261,663)"/>
<path d="M0,0 L1,2 L-4,7 L-3,1 Z " fill="#88798F" transform="translate(270,647)"/>
<path d="M0,0 L2,0 L1,8 L-1,8 L-1,1 Z " fill="#AC94B6" transform="translate(452,598)"/>
<path d="M0,0 L1,2 L-1,7 L-5,6 L-2,5 L-2,1 Z " fill="#B597C0" transform="translate(476,563)"/>
<path d="M0,0 L5,1 L5,3 L2,3 L1,5 L1,3 L-2,2 L0,2 Z " fill="#816D86" transform="translate(648,744)"/>
<path d="M0,0 L4,0 L4,4 L0,4 Z " fill="#866F8C" transform="translate(404,699)"/>
<path d="M0,0 L3,1 L1,3 Z M0,3 L3,4 L3,8 L1,8 Z " fill="#85768A" transform="translate(300,679)"/>
<path d="M0,0 L4,0 L4,2 L6,3 L1,4 Z " fill="#837586" transform="translate(271,677)"/>
<path d="M0,0 L2,0 L1,7 L-1,8 L-1,2 Z " fill="#C2A6CD" transform="translate(640,672)"/>
<path d="M0,0 L8,0 L8,2 L2,3 L2,1 Z " fill="#7E6E88" transform="translate(324,566)"/>
<path d="M0,0 L5,1 L3,3 L-3,2 Z " fill="#826C8B" transform="translate(463,510)"/>
<path d="M0,0 L2,0 L2,2 L4,2 L4,4 L0,5 L-1,2 Z " fill="#D5B7DB" transform="translate(532,695)"/>
<path d="M0,0 L3,4 L1,6 L-3,2 Z " fill="#A084AC" transform="translate(636,569)"/>
<path d="M0,0 L4,1 L3,3 L-1,3 L-2,6 L-2,2 L0,2 Z " fill="#6C5E74" transform="translate(382,554)"/>
<path d="M0,0 L4,1 L3,4 L-1,3 Z " fill="#7F6C8A" transform="translate(447,515)"/>
<path d="M0,0 L1,3 L4,4 L3,7 L1,7 L1,5 L-1,4 Z " fill="#735C7A" transform="translate(466,492)"/>
<path d="M0,0 L3,4 L5,5 L1,8 L0,6 Z " fill="#907497" transform="translate(639,480)"/>
<path d="M0,0 L2,0 L1,5 L-3,1 Z " fill="#6B5A6F" transform="translate(473,748)"/>
<path d="M0,0 L1,3 L0,6 L-3,7 L-2,3 Z " fill="#9D85A4" transform="translate(678,707)"/>
<path d="M0,0 L5,2 L2,4 L-2,3 L0,2 Z " fill="#CFABD7" transform="translate(529,660)"/>
<path d="M0,0 L3,3 L3,6 L0,7 Z " fill="#A58CAC" transform="translate(428,638)"/>
<path d="M0,0 L4,1 L1,1 L1,5 L-3,3 L0,2 Z " fill="#675A6E" transform="translate(286,564)"/>
<path d="M0,0 L2,0 L3,3 L-1,6 Z " fill="#83728C" transform="translate(391,562)"/>
<path d="M0,0 L4,0 L3,3 L1,2 L1,4 L-1,4 Z " fill="#816E89" transform="translate(400,533)"/>
<path d="M0,0 L1,3 L0,10 L-1,10 L-2,2 Z " fill="#937899" transform="translate(533,457)"/>
<path d="M0,0 L4,2 L4,5 L2,5 L2,3 L0,3 Z " fill="#D4B6D8" transform="translate(504,695)"/>
<path d="M0,0 L2,0 L4,4 L1,4 L0,6 Z " fill="#7B6A82" transform="translate(390,697)"/>
<path d="M0,0 L3,1 L3,6 L1,6 Z " fill="#9A80A7" transform="translate(675,684)"/>
<path d="M0,0 L3,1 L3,3 L-3,5 Z " fill="#887A91" transform="translate(381,676)"/>
<path d="M0,0 L2,0 L1,5 L-2,6 Z " fill="#81718A" transform="translate(387,551)"/>
<path d="M0,0 L2,0 L1,5 L-2,4 L-2,2 L0,2 Z " fill="#816E89" transform="translate(397,539)"/>
<path d="M0,0 L7,0 L2,4 Z " fill="#9A7EA3" transform="translate(471,531)"/>
<path d="M0,0 L4,4 L0,6 Z M-1,6 Z " fill="#987D9E" transform="translate(533,470)"/>
<path d="M0,0 L5,0 L5,3 L3,3 L3,1 L1,1 L0,4 Z " fill="#715B78" transform="translate(510,436)"/>
<path d="M0,0 L4,0 L3,4 L0,3 Z " fill="#856F86" transform="translate(626,381)"/>
<path d="M0,0 L4,2 L3,4 L0,4 Z " fill="#88788C" transform="translate(307,683)"/>
<path d="M0,0 L3,1 L3,3 L-3,4 Z " fill="#63566C" transform="translate(268,610)"/>
<path d="M0,0 L2,1 L2,5 L-1,4 Z M-2,4 Z " fill="#AF97BA" transform="translate(459,586)"/>
<path d="M0,0 L3,0 L2,4 L0,5 Z " fill="#7D6D87" transform="translate(287,565)"/>
<path d="M0,0 L2,4 L0,8 L-1,2 Z " fill="#9A7EA0" transform="translate(624,516)"/>
<path d="M0,0 L1,2 L-4,6 L-3,1 Z " fill="#907599" transform="translate(479,514)"/>
<path d="M0,0 L1,3 L-3,6 L-4,4 L-2,4 Z " fill="#987A9E" transform="translate(514,490)"/>
<path d="M0,0 L2,4 L2,6 L-1,6 Z " fill="#CEB0D7" transform="translate(476,666)"/>
<path d="M0,0 L3,0 L3,4 L0,3 Z " fill="#96849E" transform="translate(417,668)"/>
<path d="M0,0 L4,1 L4,4 L0,2 Z M1,3 Z " fill="#8B7C92" transform="translate(272,635)"/>
<path d="M0,0 L2,0 L3,5 L0,4 Z " fill="#9D81A7" transform="translate(640,571)"/>
<path d="M0,0 L3,1 L-1,3 L-4,2 Z " fill="#8D7494" transform="translate(548,415)"/>
<path d="M0,0 L2,1 L2,4 L-1,5 Z M-2,5 Z " fill="#806985" transform="translate(542,395)"/>
<path d="M0,0 L2,1 L2,5 L0,5 L-1,1 Z " fill="#87778B" transform="translate(311,686)"/>
<path d="M0,0 L5,0 L4,2 L0,3 Z " fill="#827387" transform="translate(307,679)"/>
<path d="M0,0 L4,1 L1,4 Z M0,4 Z " fill="#93819B" transform="translate(420,558)"/>
<path d="M0,0 L4,1 L2,3 L0,2 Z M-2,2 L0,3 Z " fill="#84718D" transform="translate(402,548)"/>
<path d="M0,0 L2,0 L3,4 L1,5 Z " fill="#83688A" transform="translate(511,437)"/>
<path d="M0,0 L3,0 L3,3 L-1,2 Z " fill="#887189" transform="translate(640,385)"/>
<path d="M0,0 L1,4 L-3,2 Z " fill="#716076" transform="translate(566,345)"/>
<path d="M0,0 L3,1 L2,4 L0,4 Z " fill="#826B87" transform="translate(680,721)"/>
<path d="M0,0 L4,0 L4,3 L0,1 Z " fill="#847186" transform="translate(418,713)"/>
<path d="M0,0 L3,2 L-2,3 Z " fill="#8D7894" transform="translate(450,528)"/>
<path d="M0,0 L4,1 L0,3 Z " fill="#7A6083" transform="translate(469,493)"/>
<path d="M0,0 L3,0 L3,3 L0,3 Z " fill="#86708A" transform="translate(682,405)"/>
<path d="M0,0 L3,0 L3,3 L0,3 Z " fill="#876F89" transform="translate(678,403)"/>
<path d="M0,0 L3,0 L3,3 L0,3 Z " fill="#89728A" transform="translate(648,389)"/>
<path d="M0,0 L4,2 L0,3 Z " fill="#806C85" transform="translate(563,348)"/>
<path d="M0,0 L3,0 L3,3 L0,3 Z " fill="#846D8A" transform="translate(590,347)"/>
</svg>
