<?xml version="1.0" encoding="UTF-8"?>
<!-- Generator: visioncortex VTracer 0.6.4 -->
<svg version="1.1" xmlns="http://www.w3.org/2000/svg" width="1024" height="1024">
<path d="M0,0 L1024,0 L1024,1024 L0,1024 Z " fill="#000000" transform="translate(0,0)"/>
<path d="M0,0 L42,0 L42,2 L58,2 L58,4 L64,4 L64,6 L70,6 L70,8 L78,8 L78,10 L84,10 L84,12 L88,12 L90,15 L102,16 L104,19 L112,20 L114,23 L120,24 L120,26 L124,26 L124,28 L128,28 L128,30 L134,30 L136,33 L144,34 L144,36 L146,36 L146,40 L152,40 L152,42 L154,42 L154,46 L158,48 L160,52 L166,52 L166,56 L168,56 L168,72 L170,72 L170,80 L168,80 L168,86 L166,86 L166,88 L164,88 L164,96 L162,96 L162,98 L160,98 L160,102 L158,102 L158,104 L156,104 L156,106 L152,106 L152,110 L150,110 L150,114 L146,114 L146,118 L144,118 L144,122 L142,122 L142,126 L140,126 L140,128 L138,128 L138,130 L136,130 L136,140 L134,140 L134,142 L132,142 L132,150 L134,150 L134,154 L136,154 L136,162 L138,162 L138,178 L142,178 L142,182 L144,182 L144,186 L146,186 L146,188 L152,188 L152,190 L154,190 L154,196 L156,196 L156,204 L154,204 L154,206 L156,206 L156,210 L158,210 L158,214 L164,214 L164,218 L166,218 L166,222 L168,222 L168,236 L170,236 L170,244 L172,244 L172,238 L178,238 L178,244 L174,244 L174,246 L180,246 L180,250 L182,250 L182,256 L178,256 L180,261 L182,262 L182,280 L184,280 L184,288 L182,288 L182,304 L180,304 L180,314 L178,314 L178,324 L174,324 L174,326 L168,326 L168,338 L166,338 L166,342 L162,342 L162,344 L154,351 L152,354 L148,354 L148,358 L142,358 L142,360 L138,360 L138,364 L136,364 L136,366 L134,366 L134,370 L132,370 L132,376 L128,376 L128,378 L124,378 L124,382 L120,382 L120,386 L116,386 L116,388 L111,392 L110,394 L108,394 L108,396 L104,396 L104,398 L102,398 L102,402 L100,402 L100,404 L92,404 L92,410 L88,410 L88,412 L84,412 L84,414 L80,414 L80,418 L78,418 L78,420 L72,420 L72,422 L70,422 L70,428 L60,428 L60,430 L58,430 L58,432 L50,432 L50,434 L42,434 L42,432 L40,432 L40,434 L36,434 L36,436 L22,436 L22,432 L14,432 L12,428 L-4,428 L-6,424 L-10,424 L-10,420 L-14,420 L-14,416 L-19,415 L-20,412 L-25,411 L-26,408 L-30,408 L-30,404 L-34,404 L-34,400 L-38,400 L-38,394 L-40,394 L-40,392 L-46,392 L-46,388 L-50,388 L-52,383 L-54,382 L-54,378 L-56,378 L-56,374 L-60,374 L-60,372 L-62,372 L-64,367 L-70,362 L-70,354 L-74,354 L-74,350 L-78,350 L-82,346 L-82,342 L-86,342 L-87,334 L-90,332 L-90,328 L-92,328 L-92,330 L-98,330 L-98,314 L-102,314 L-102,306 L-104,306 L-104,302 L-106,302 L-106,300 L-114,300 L-114,296 L-118,296 L-118,280 L-122,280 L-122,258 L-130,258 L-130,252 L-122,252 L-122,244 L-124,244 L-124,238 L-122,238 L-122,236 L-124,236 L-124,230 L-122,230 L-122,222 L-120,222 L-120,210 L-118,210 L-118,202 L-116,202 L-116,198 L-114,198 L-114,188 L-110,188 L-110,184 L-108,184 L-108,182 L-104,182 L-104,180 L-106,180 L-106,174 L-102,174 L-102,168 L-98,168 L-98,162 L-96,162 L-96,158 L-94,158 L-94,150 L-90,150 L-90,138 L-88,138 L-88,136 L-86,136 L-86,126 L-88,126 L-88,118 L-90,118 L-90,102 L-92,102 L-92,96 L-90,96 L-90,94 L-92,94 L-92,86 L-94,86 L-94,76 L-90,76 L-90,62 L-88,62 L-88,58 L-86,58 L-86,54 L-84,54 L-84,50 L-80,50 L-80,48 L-78,48 L-78,46 L-76,46 L-75,41 L-72,38 L-70,38 L-70,36 L-68,36 L-68,34 L-64,34 L-64,32 L-60,32 L-58,28 L-54,24 L-52,24 L-52,22 L-48,22 L-48,20 L-46,20 L-46,18 L-42,18 L-42,16 L-38,16 L-38,14 L-34,14 L-34,12 L-32,12 L-32,10 L-24,10 L-24,8 L-22,8 L-22,6 L-16,6 L-16,4 L-12,4 L-12,2 L0,2 Z " fill="#C70B35" transform="translate(476,214)"/>
<path d="M0,0 L6,0 L6,8 L10,8 L10,14 L8,14 L8,16 L10,16 L10,22 L8,22 L8,26 L4,26 L4,30 L2,30 L2,34 L0,34 L0,36 L-6,36 L-6,38 L-10,38 L-10,40 L-12,40 L-12,42 L-16,42 L-16,46 L-20,46 L-20,48 L-24,48 L-24,50 L-26,50 L-26,52 L-28,52 L-28,54 L-36,54 L-36,56 L-38,56 L-38,58 L-40,58 L-40,60 L-44,60 L-44,62 L-52,62 L-52,66 L-56,66 L-56,68 L-60,68 L-60,70 L-64,70 L-64,72 L-72,72 L-72,74 L-80,74 L-80,76 L-88,76 L-88,78 L-92,78 L-92,80 L-100,80 L-100,82 L-104,82 L-104,84 L-120,84 L-120,86 L-128,86 L-128,88 L-148,88 L-148,90 L-186,90 L-186,88 L-198,88 L-198,86 L-204,86 L-204,82 L-206,82 L-206,84 L-214,84 L-214,78 L-212,78 L-212,76 L-216,76 L-216,72 L-218,72 L-218,70 L-220,70 L-220,76 L-222,76 L-222,78 L-230,78 L-230,76 L-236,76 L-238,72 L-243,71 L-244,68 L-249,67 L-250,64 L-256,64 L-266,54 L-266,52 L-270,52 L-274,48 L-274,44 L-278,44 L-278,40 L-282,40 L-282,36 L-286,36 L-290,32 L-290,26 L-284,26 L-284,28 L-272,28 L-270,31 L-266,32 L-266,34 L-260,34 L-260,36 L-256,36 L-256,38 L-248,38 L-248,42 L-242,42 L-242,46 L-236,46 L-236,48 L-234,48 L-234,52 L-232,52 L-232,50 L-226,50 L-226,48 L-220,48 L-220,54 L-224,54 L-224,62 L-222,62 L-222,64 L-215,65 L-216,63 L-216,54 L-210,54 L-210,56 L-205,56 L-205,62 L-203,62 L-203,56 L-202,58 L-194,58 L-194,59 L-201,60 L-194,61 L-194,68 L-188,68 L-188,80 L-186,80 L-186,82 L-181,82 L-178,84 L-178,72 L-170,72 L-170,70 L-162,70 L-162,66 L-156,66 L-156,64 L-154,64 L-154,50 L-146,50 L-146,48 L-134,48 L-134,60 L-128,60 L-128,54 L-130,54 L-130,38 L-124,38 L-124,44 L-118,44 L-118,32 L-114,32 L-112,28 L-110,28 L-110,26 L-102,26 L-102,28 L-100,28 L-100,26 L-94,26 L-94,22 L-92,22 L-92,20 L-88,20 L-88,16 L-82,16 L-82,20 L-80,20 L-80,14 L-74,14 L-74,20 L-70,20 L-70,18 L-68,18 L-68,14 L-66,14 L-66,12 L-58,12 L-58,14 L-56,14 L-56,18 L-54,18 L-54,14 L-52,14 L-52,10 L-46,10 L-46,8 L-40,8 L-40,10 L-34,10 L-34,12 L-28,12 L-28,6 L-24,6 L-24,4 L-18,4 L-18,6 L-14,6 L-14,8 L-10,8 L-10,10 L-4,10 L-4,16 L-2,16 L-2,14 L0,14 Z M-217,63 Z " fill="#770008" transform="translate(648,734)"/>
<path d="M0,0 L6,0 L6,2 L8,2 L8,6 L12,6 L16,11 L18,12 L18,20 L22,20 L22,30 L24,30 L24,32 L26,32 L26,48 L28,48 L28,54 L30,54 L30,82 L32,82 L32,90 L30,90 L30,104 L28,104 L28,106 L26,106 L26,120 L24,120 L24,122 L22,122 L22,128 L20,128 L20,130 L18,130 L18,134 L16,134 L16,136 L14,136 L14,140 L10,140 L10,144 L2,144 L2,142 L-18,142 L-18,140 L-24,140 L-24,138 L-26,138 L-26,128 L-32,128 L-32,130 L-38,130 L-38,118 L-44,118 L-44,112 L-40,112 L-40,110 L-44,110 L-48,106 L-48,96 L-46,96 L-46,92 L-42,92 L-42,90 L-46,90 L-46,80 L-42,80 L-42,76 L-44,76 L-44,72 L-46,72 L-46,64 L-38,64 L-38,48 L-36,48 L-36,46 L-38,46 L-38,40 L-30,40 L-30,36 L-28,36 L-28,28 L-26,28 L-26,24 L-22,24 L-22,16 L-18,16 L-18,12 L-14,12 L-14,8 L-10,8 L-10,6 L-2,6 L-2,2 L0,2 Z " fill="#B51737" transform="translate(740,398)"/>
<path d="M0,0 L6,0 L6,12 L4,12 L4,20 L2,20 L2,28 L0,28 L0,32 L-2,32 L-2,36 L-4,36 L-4,40 L-6,40 L-6,44 L-10,44 L-10,48 L-12,48 L-12,52 L-14,52 L-14,56 L-16,56 L-16,60 L-18,60 L-18,64 L-20,64 L-20,66 L-22,66 L-22,70 L-24,70 L-24,74 L-26,74 L-26,76 L-28,76 L-28,78 L-30,78 L-30,82 L-32,82 L-32,84 L-34,84 L-34,88 L-38,88 L-38,90 L-42,90 L-42,92 L-46,92 L-46,96 L-50,96 L-50,98 L-52,98 L-52,104 L-54,104 L-54,106 L-58,106 L-58,108 L-62,108 L-62,110 L-66,110 L-66,112 L-68,112 L-68,114 L-72,114 L-72,118 L-80,118 L-80,122 L-86,122 L-86,124 L-90,124 L-90,126 L-104,126 L-104,122 L-112,122 L-112,118 L-120,118 L-120,112 L-112,112 L-112,110 L-108,110 L-108,108 L-96,108 L-96,112 L-94,112 L-94,114 L-92,114 L-92,112 L-88,112 L-88,110 L-84,110 L-84,100 L-76,100 L-76,90 L-80,90 L-80,86 L-86,86 L-86,80 L-82,80 L-82,78 L-76,78 L-79,73 L-80,70 L-86,70 L-86,74 L-92,74 L-92,68 L-86,68 L-86,66 L-88,66 L-88,52 L-82,52 L-82,50 L-76,50 L-76,46 L-72,46 L-72,44 L-68,44 L-68,34 L-70,34 L-70,36 L-74,36 L-74,38 L-82,38 L-82,32 L-76,32 L-76,30 L-72,30 L-72,28 L-68,28 L-68,26 L-66,26 L-65,21 L-62,20 L-62,18 L-56,18 L-56,24 L-54,24 L-54,22 L-52,22 L-52,20 L-54,20 L-54,14 L-44,14 L-44,20 L-42,20 L-42,22 L-40,22 L-40,18 L-38,18 L-38,14 L-34,14 L-34,12 L-32,12 L-32,8 L-30,8 L-30,6 L-22,6 L-22,4 L-8,4 L-8,2 L-2,2 L-2,6 L0,6 Z " fill="#750010" transform="translate(826,556)"/>
<path d="M0,0 L42,0 L42,2 L58,2 L58,4 L64,4 L64,6 L70,6 L70,8 L78,8 L78,10 L84,10 L84,12 L88,12 L90,17 L101,17 L100,21 L97,21 L94,25 L89,25 L87,21 L86,19 L82,18 L82,22 L84,23 L80,23 L80,20 L78,21 L79,26 L78,27 L67,27 L64,26 L61,26 L62,30 L59,33 L54,31 L54,24 L36,24 L31,25 L30,24 L10,23 L8,21 L8,16 L6,16 L6,12 L2,11 L0,13 L-11,16 L-15,20 L-21,22 L-26,22 L-29,24 L-29,22 L-35,22 L-39,23 L-40,26 L-42,26 L-42,23 L-45,25 L-48,30 L-54,32 L-55,35 L-59,37 L-60,41 L-58,42 L-62,43 L-62,41 L-66,42 L-72,50 L-77,53 L-81,58 L-83,58 L-84,74 L-89,81 L-87,91 L-87,93 L-85,93 L-85,115 L-82,125 L-82,128 L-79,129 L-80,136 L-83,138 L-84,148 L-87,153 L-89,159 L-92,162 L-95,169 L-99,177 L-101,184 L-104,185 L-106,189 L-109,193 L-111,204 L-113,211 L-115,213 L-116,223 L-117,226 L-115,227 L-118,232 L-118,244 L-117,247 L-119,253 L-121,256 L-117,260 L-116,265 L-117,270 L-117,276 L-114,280 L-113,287 L-114,292 L-112,292 L-112,294 L-106,296 L-106,298 L-104,298 L-103,296 L-100,302 L-98,308 L-96,308 L-94,314 L-93,317 L-93,323 L-94,325 L-89,324 L-89,326 L-87,326 L-81,337 L-81,340 L-79,340 L-77,344 L-74,347 L-77,347 L-77,349 L-74,350 L-78,350 L-82,346 L-82,342 L-86,342 L-87,334 L-90,332 L-90,328 L-92,328 L-92,330 L-98,330 L-98,314 L-102,314 L-102,306 L-104,306 L-104,302 L-106,302 L-106,300 L-114,300 L-114,296 L-118,296 L-118,280 L-122,280 L-122,258 L-130,258 L-130,252 L-122,252 L-122,244 L-124,244 L-124,238 L-122,238 L-122,236 L-124,236 L-124,230 L-122,230 L-122,222 L-120,222 L-120,210 L-118,210 L-118,202 L-116,202 L-116,198 L-114,198 L-114,188 L-110,188 L-110,184 L-108,184 L-108,182 L-104,182 L-104,180 L-106,180 L-106,174 L-102,174 L-102,168 L-98,168 L-98,162 L-96,162 L-96,158 L-94,158 L-94,150 L-90,150 L-90,138 L-88,138 L-88,136 L-86,136 L-86,126 L-88,126 L-88,118 L-90,118 L-90,102 L-92,102 L-92,96 L-90,96 L-90,94 L-92,94 L-92,86 L-94,86 L-94,76 L-90,76 L-90,62 L-88,62 L-88,58 L-86,58 L-86,54 L-84,54 L-84,50 L-80,50 L-80,48 L-78,48 L-78,46 L-76,46 L-75,41 L-72,38 L-70,38 L-70,36 L-68,36 L-68,34 L-64,34 L-64,32 L-60,32 L-58,28 L-54,24 L-52,24 L-52,22 L-48,22 L-48,20 L-46,20 L-46,18 L-42,18 L-42,16 L-38,16 L-38,14 L-34,14 L-34,12 L-32,12 L-32,10 L-24,10 L-24,8 L-22,8 L-22,6 L-16,6 L-16,4 L-12,4 L-12,2 L0,2 Z M-20,19 Z M-34,20 Z M-21,20 Z M-30,24 Z " fill="#B82349" transform="translate(476,214)"/>
<path d="M0,0 L6,0 L6,8 L10,8 L10,14 L8,14 L8,16 L10,16 L10,22 L8,22 L8,26 L4,26 L4,30 L2,30 L2,34 L0,34 L0,36 L-6,36 L-6,38 L-10,38 L-10,40 L-12,40 L-12,42 L-16,42 L-16,46 L-20,46 L-20,48 L-24,48 L-24,50 L-26,50 L-26,52 L-28,52 L-28,54 L-36,54 L-36,56 L-38,56 L-38,58 L-40,58 L-40,60 L-44,60 L-44,62 L-52,62 L-52,66 L-56,66 L-56,68 L-60,68 L-60,70 L-64,70 L-64,72 L-72,72 L-72,74 L-80,74 L-80,76 L-88,76 L-88,78 L-92,78 L-92,80 L-100,80 L-100,82 L-104,82 L-104,84 L-120,84 L-120,86 L-128,86 L-128,88 L-148,88 L-148,90 L-186,90 L-186,88 L-198,88 L-198,86 L-204,86 L-204,82 L-206,82 L-206,84 L-214,84 L-214,78 L-212,78 L-212,76 L-216,76 L-216,72 L-218,72 L-218,70 L-220,70 L-220,76 L-222,76 L-222,78 L-230,78 L-230,76 L-236,76 L-238,72 L-243,71 L-244,68 L-249,67 L-250,64 L-256,64 L-266,54 L-266,52 L-270,52 L-274,48 L-274,44 L-278,44 L-278,40 L-282,40 L-282,36 L-286,36 L-290,32 L-290,26 L-284,26 L-284,28 L-272,28 L-270,31 L-266,32 L-266,34 L-260,34 L-260,36 L-256,36 L-256,38 L-248,38 L-248,42 L-242,42 L-242,46 L-236,46 L-236,48 L-234,48 L-234,52 L-232,52 L-232,50 L-226,50 L-226,48 L-220,48 L-220,54 L-224,54 L-224,62 L-222,62 L-222,64 L-215,65 L-216,63 L-216,54 L-210,54 L-210,56 L-205,56 L-205,62 L-203,62 L-203,56 L-202,58 L-194,58 L-194,59 L-201,60 L-194,61 L-194,68 L-188,68 L-188,80 L-186,80 L-186,82 L-181,82 L-178,84 L-178,72 L-170,72 L-170,73 L-177,73 L-177,84 L-175,84 L-175,79 L-167,78 L-167,76 L-162,76 L-162,72 L-158,72 L-158,74 L-153,74 L-151,78 L-148,77 L-147,81 L-134,81 L-134,79 L-129,77 L-124,77 L-124,79 L-118,78 L-118,76 L-116,77 L-117,79 L-108,79 L-104,80 L-104,78 L-102,78 L-102,76 L-97,74 L-94,74 L-94,76 L-92,76 L-92,74 L-81,75 L-81,73 L-88,73 L-88,72 L-81,70 L-72,70 L-71,66 L-64,68 L-64,66 L-57,63 L-53,65 L-52,58 L-44,58 L-44,56 L-39,51 L-38,50 L-30,49 L-24,44 L-17,45 L-16,38 L-10,36 L-7,37 L-7,35 L-10,34 L-2,30 L0,30 L1,27 L1,29 L3,29 L3,25 L7,25 L7,23 L4,22 L5,17 L3,15 L1,16 L-1,15 L0,18 L-4,20 L-9,15 L-10,13 L-5,13 L-5,11 L-10,11 L-10,10 L-4,10 L-4,16 L-2,16 L-2,14 L0,14 Z M-217,63 Z " fill="#69000E" transform="translate(648,734)"/>
<path d="M0,0 L10,0 L10,2 L12,2 L12,8 L16,8 L16,12 L20,12 L24,16 L24,22 L20,22 L20,24 L24,24 L24,30 L20,30 L20,36 L14,36 L14,34 L12,34 L12,40 L16,40 L16,46 L10,46 L10,42 L8,42 L8,46 L4,46 L4,56 L-2,56 L-2,52 L-4,52 L-4,54 L-12,54 L-12,48 L-18,48 L-18,46 L-20,46 L-20,40 L-18,40 L-20,35 L-22,34 L-22,24 L-20,24 L-20,22 L-22,22 L-22,16 L-16,16 L-16,14 L-12,14 L-12,8 L-6,8 L-6,2 L0,2 Z " fill="#B02D44" transform="translate(302,446)"/>
<path d="M0,0 L1,2 L3,2 L3,24 L6,34 L6,37 L9,38 L8,45 L5,47 L4,57 L1,62 L-1,68 L-4,71 L-7,78 L-11,86 L-13,93 L-16,94 L-18,98 L-21,102 L-23,113 L-25,120 L-27,122 L-28,132 L-29,135 L-27,136 L-30,141 L-30,153 L-29,156 L-31,162 L-33,165 L-29,169 L-28,174 L-29,179 L-29,185 L-26,189 L-25,196 L-26,201 L-24,201 L-24,203 L-18,205 L-18,207 L-16,207 L-15,205 L-12,211 L-10,217 L-8,217 L-6,223 L-5,226 L-5,232 L-6,234 L-1,233 L-1,235 L1,235 L7,246 L7,249 L9,249 L11,253 L14,256 L11,256 L11,258 L14,259 L10,259 L6,255 L6,251 L2,251 L1,243 L-2,241 L-2,237 L-4,237 L-4,239 L-10,239 L-10,223 L-14,223 L-14,215 L-16,215 L-16,211 L-18,211 L-18,209 L-26,209 L-26,205 L-30,205 L-30,189 L-34,189 L-34,167 L-42,167 L-42,161 L-34,161 L-34,153 L-36,153 L-36,147 L-34,147 L-34,145 L-36,145 L-36,139 L-34,139 L-34,131 L-32,131 L-32,119 L-30,119 L-30,111 L-28,111 L-28,107 L-26,107 L-26,97 L-22,97 L-22,93 L-20,93 L-20,91 L-16,91 L-16,89 L-18,89 L-18,83 L-14,83 L-14,77 L-10,77 L-10,71 L-8,71 L-8,67 L-6,67 L-6,59 L-2,59 L-2,47 L0,47 L0,45 L2,45 L2,35 L0,35 L-1,27 L-1,11 L0,10 L-1,3 Z " fill="#B13653" transform="translate(388,305)"/>
<path d="M0,0 L6,0 L6,2 L12,2 L12,4 L18,4 L22,9 L24,10 L24,14 L30,14 L30,16 L34,16 L38,21 L40,22 L40,26 L42,26 L42,30 L46,30 L46,34 L50,34 L54,39 L56,40 L56,44 L58,44 L58,50 L48,50 L48,48 L42,48 L42,44 L40,44 L40,50 L34,50 L34,46 L32,46 L32,44 L26,44 L26,42 L24,42 L24,36 L18,36 L14,32 L14,30 L10,30 L10,28 L8,28 L8,14 L2,14 L2,8 L6,8 L6,6 L0,6 Z " fill="#6E000B" transform="translate(746,230)"/>
<path d="M0,0 L1,3 L3,3 L3,1 L6,1 L9,7 L10,11 L18,18 L19,23 L26,24 L26,32 L30,32 L32,37 L36,39 L36,41 L40,43 L42,49 L45,50 L46,44 L50,44 L50,48 L54,48 L54,52 L58,52 L59,62 L62,63 L62,65 L65,66 L70,71 L70,73 L87,74 L91,76 L91,78 L96,78 L97,81 L107,81 L116,78 L121,79 L129,78 L130,75 L139,73 L144,67 L150,64 L151,60 L159,57 L164,51 L172,48 L174,44 L183,38 L193,28 L195,28 L195,31 L197,31 L198,28 L198,32 L194,32 L194,36 L190,36 L190,38 L185,42 L184,44 L182,44 L182,46 L178,46 L178,48 L176,48 L176,52 L174,52 L174,54 L166,54 L166,60 L162,60 L162,62 L158,62 L158,64 L154,64 L154,68 L152,68 L152,70 L146,70 L146,72 L144,72 L144,78 L134,78 L134,80 L132,80 L132,82 L124,82 L124,84 L116,84 L116,82 L114,82 L114,84 L110,84 L110,86 L96,86 L96,82 L88,82 L86,78 L70,78 L68,74 L64,74 L64,70 L60,70 L60,66 L55,65 L54,62 L49,61 L48,58 L44,58 L44,54 L40,54 L40,50 L36,50 L36,44 L34,44 L34,42 L28,42 L28,38 L24,38 L22,33 L20,32 L20,28 L18,28 L18,24 L14,24 L14,22 L12,22 L10,17 L4,12 L4,4 L0,4 Z M32,36 Z " fill="#AA0C26" transform="translate(402,564)"/>
<path d="M0,0 L11,0 L18,1 L22,2 L22,5 L24,5 L24,2 L37,1 L40,0 L41,3 L46,5 L52,5 L52,7 L56,6 L54,5 L54,2 L63,1 L64,3 L69,4 L70,7 L81,7 L80,11 L77,11 L74,15 L69,15 L67,11 L66,9 L62,8 L62,12 L64,13 L60,13 L60,10 L58,11 L59,16 L58,17 L47,17 L44,16 L41,16 L42,20 L39,23 L34,21 L34,14 L16,14 L11,15 L10,14 L-10,13 L-12,11 L-12,6 L-14,6 L-13,1 L-2,1 L0,2 Z " fill="#C21E4A" transform="translate(496,224)"/>
<path d="M0,0 L12,0 L14,3 L22,4 L24,7 L30,8 L30,10 L34,10 L34,12 L38,12 L38,14 L44,14 L46,17 L54,18 L54,20 L56,20 L56,24 L62,24 L62,26 L64,26 L64,30 L68,32 L70,36 L76,36 L76,40 L78,40 L78,56 L80,56 L80,64 L78,64 L78,70 L76,70 L76,72 L74,72 L74,80 L72,80 L72,82 L70,82 L70,86 L68,86 L68,88 L66,88 L66,90 L62,90 L62,94 L60,94 L60,98 L56,98 L56,102 L54,102 L54,106 L52,106 L52,110 L50,110 L50,112 L48,112 L48,114 L46,114 L46,124 L44,124 L44,126 L42,126 L42,134 L41,134 L41,126 L39,126 L42,114 L48,106 L50,102 L51,105 L53,105 L51,99 L54,94 L57,91 L61,86 L65,85 L67,80 L71,70 L75,61 L74,56 L74,41 L68,39 L65,37 L65,35 L63,35 L63,32 L60,31 L59,29 L53,27 L51,23 L48,22 L48,24 L44,26 L41,26 L40,18 L35,17 L31,15 L30,19 L17,18 L11,20 L10,18 L6,16 L4,11 L4,6 L7,4 L10,4 L11,1 L0,1 Z " fill="#A41036" transform="translate(566,230)"/>
<path d="M0,0 L6,0 L6,12 L4,12 L4,20 L2,20 L2,28 L0,28 L0,32 L-2,32 L-2,36 L-4,36 L-4,40 L-6,40 L-6,44 L-10,44 L-10,48 L-12,48 L-12,52 L-14,52 L-14,56 L-16,56 L-16,60 L-18,60 L-18,64 L-20,64 L-20,66 L-22,66 L-22,70 L-24,70 L-24,74 L-26,74 L-26,76 L-28,76 L-28,78 L-30,78 L-30,82 L-32,82 L-32,84 L-34,84 L-34,88 L-38,88 L-38,90 L-42,90 L-42,92 L-46,92 L-46,96 L-50,96 L-50,98 L-52,98 L-52,104 L-54,104 L-54,106 L-58,106 L-58,108 L-62,108 L-62,110 L-66,110 L-66,112 L-68,112 L-68,114 L-72,114 L-72,118 L-80,118 L-80,122 L-86,122 L-86,124 L-90,124 L-90,126 L-104,126 L-104,122 L-112,122 L-111,118 L-111,121 L-102,120 L-96,122 L-90,120 L-81,121 L-82,115 L-73,113 L-72,110 L-69,108 L-66,108 L-66,106 L-64,106 L-64,104 L-58,102 L-55,101 L-54,95 L-49,94 L-47,95 L-47,93 L-50,93 L-49,90 L-47,90 L-46,88 L-42,88 L-42,86 L-40,86 L-40,84 L-38,84 L-36,79 L-34,79 L-34,76 L-31,75 L-27,68 L-25,59 L-22,58 L-21,54 L-17,49 L-14,43 L-9,35 L-6,32 L-4,30 L-1,31 L-3,26 L-3,25 L-5,25 L-4,22 L-2,22 L0,12 L2,12 L1,9 L-5,11 L-7,9 L-5,6 L-3,6 L-3,3 L-8,3 L-8,2 L-2,2 L-2,6 L0,6 Z M-8,10 Z M-7,11 Z " fill="#60000D" transform="translate(826,556)"/>
<path d="M0,0 L6,0 L6,8 L10,8 L10,14 L8,14 L8,16 L10,16 L10,22 L8,22 L8,26 L4,26 L4,30 L2,30 L2,34 L0,34 L0,36 L-6,36 L-6,38 L-10,38 L-10,40 L-12,40 L-12,42 L-16,42 L-16,46 L-20,46 L-20,48 L-24,48 L-24,50 L-26,50 L-26,52 L-28,52 L-28,54 L-36,54 L-36,56 L-38,56 L-38,58 L-40,58 L-40,60 L-44,60 L-44,62 L-52,62 L-52,66 L-56,66 L-56,68 L-60,68 L-60,70 L-64,70 L-64,72 L-72,72 L-72,74 L-80,74 L-80,76 L-88,76 L-88,78 L-92,78 L-92,80 L-100,80 L-100,82 L-105,83 L-105,81 L-120,81 L-120,80 L-108,79 L-104,80 L-104,78 L-102,78 L-102,76 L-97,74 L-94,74 L-94,76 L-92,76 L-92,74 L-81,75 L-81,73 L-88,73 L-88,72 L-81,70 L-72,70 L-71,66 L-64,68 L-64,66 L-57,63 L-53,65 L-52,58 L-44,58 L-44,56 L-39,51 L-38,50 L-30,49 L-24,44 L-17,45 L-16,38 L-10,36 L-7,37 L-7,35 L-10,34 L-2,30 L0,30 L1,27 L1,29 L3,29 L3,25 L7,25 L7,23 L4,22 L5,17 L3,15 L1,16 L-1,15 L0,18 L-4,20 L-9,15 L-10,13 L-5,13 L-5,11 L-10,11 L-10,10 L-4,10 L-4,16 L-2,16 L-2,14 L0,14 Z " fill="#5C0004" transform="translate(648,734)"/>
<path d="M0,0 L8,0 L8,1 L1,1 L1,12 L3,12 L3,7 L11,6 L11,4 L16,4 L16,0 L20,0 L20,2 L25,2 L27,6 L30,5 L31,9 L44,9 L44,7 L49,5 L54,5 L54,7 L60,6 L60,4 L62,5 L60,8 L73,9 L74,12 L58,12 L58,14 L50,14 L50,16 L30,16 L30,18 L-8,18 L-8,17 L29,17 L29,15 L0,15 Z " fill="#64000A" transform="translate(470,806)"/>
<path d="M0,0 L2,4 L5,6 L5,24 L7,24 L7,32 L5,32 L5,48 L3,48 L3,58 L1,58 L1,68 L-3,68 L-3,70 L-9,70 L-9,82 L-11,82 L-11,86 L-15,86 L-15,88 L-23,95 L-25,98 L-29,98 L-29,102 L-35,102 L-35,104 L-39,104 L-39,108 L-41,108 L-41,110 L-43,110 L-43,114 L-45,114 L-45,120 L-49,120 L-49,122 L-53,121 L-50,121 L-50,119 L-53,119 L-53,117 L-50,117 L-49,113 L-42,102 L-38,99 L-35,99 L-35,96 L-32,96 L-30,92 L-25,91 L-15,81 L-14,79 L-13,69 L-10,66 L-5,66 L-5,64 L-3,64 L-2,55 L0,45 L1,32 L3,27 L1,27 L0,6 L-2,6 L-2,4 L0,4 Z " fill="#A6102E" transform="translate(653,470)"/>
<path d="M0,0 L8,0 L8,1 L1,1 L2,12 L5,13 L5,10 L16,10 L16,12 L8,12 L6,17 L7,20 L9,18 L12,21 L14,21 L14,23 L19,20 L22,19 L22,25 L24,25 L25,20 L28,21 L29,17 L32,17 L32,19 L34,19 L36,25 L38,26 L36,26 L36,28 L30,29 L30,27 L23,28 L20,29 L20,31 L18,32 L6,32 L6,27 L2,29 L1,24 L-4,24 L-4,22 L-8,22 L-8,26 L-13,26 L-13,28 L-21,29 L-21,34 L-23,34 L-23,23 L-16,23 L-16,20 L-8,20 L-8,16 L-2,16 L-2,14 L0,14 Z " fill="#70000B" transform="translate(494,784)"/>
<path d="M0,0 L6,0 L6,7 L12,7 L11,10 L6,13 L5,15 L10,15 L10,17 L6,17 L7,21 L3,25 L2,30 L-5,33 L-7,35 L-10,35 L-10,33 L-13,34 L-15,31 L-17,33 L-18,29 L-20,28 L-16,24 L-8,24 L-8,22 L-19,22 L-19,25 L-21,26 L-22,28 L-23,27 L-23,13 L-16,13 L-16,10 L-4,10 L-4,22 L2,22 L2,16 L0,16 Z " fill="#76000E" transform="translate(518,772)"/>
<path d="M0,0 L8,0 L8,2 L10,2 L10,7 L13,7 L12,10 L9,10 L9,7 L7,7 L6,5 L2,6 L-4,12 L-9,15 L-12,18 L-23,22 L-25,24 L-29,23 L-27,18 L-34,20 L-36,21 L-36,19 L-41,19 L-44,20 L-45,23 L-46,22 L-48,29 L-46,30 L-51,32 L-51,21 L-48,21 L-47,17 L-44,16 L-44,14 L-36,14 L-36,16 L-34,16 L-34,14 L-28,14 L-28,10 L-26,10 L-26,8 L-22,8 L-22,4 L-16,4 L-16,8 L-14,8 L-14,2 L-8,2 L-8,8 L-4,8 L-4,6 L-2,6 L-2,2 L0,2 Z M8,10 Z " fill="#7F000D" transform="translate(582,746)"/>
<path d="M0,0 L42,0 L42,2 L58,2 L58,4 L64,4 L64,6 L70,6 L70,8 L78,8 L78,10 L84,10 L84,12 L88,12 L87,14 L81,14 L83,13 L83,11 L74,12 L74,15 L80,15 L76,17 L72,17 L72,15 L66,16 L61,13 L59,11 L53,12 L44,12 L44,15 L42,15 L41,12 L33,12 L31,11 L20,10 L20,12 L4,12 L3,10 L13,9 L34,9 L34,4 L16,4 L16,3 L41,3 L41,1 L0,1 Z " fill="#AE2046" transform="translate(476,214)"/>
<path d="M0,0 L8,0 L8,1 L1,1 L1,5 L11,5 L13,10 L14,13 L13,18 L13,24 L16,28 L17,35 L16,40 L18,40 L18,42 L24,44 L24,46 L26,46 L27,44 L30,50 L32,56 L34,56 L36,62 L37,65 L37,71 L36,73 L41,72 L41,74 L43,74 L49,85 L49,88 L51,88 L53,92 L56,95 L53,95 L53,97 L56,98 L52,98 L48,94 L48,90 L44,90 L43,82 L40,80 L40,76 L38,76 L38,78 L32,78 L32,62 L28,62 L28,54 L26,54 L26,50 L24,50 L24,48 L16,48 L16,44 L12,44 L12,28 L8,28 L8,6 L0,6 Z " fill="#A5263C" transform="translate(346,466)"/>
<path d="M0,0 L2,1 L2,3 L7,5 L13,5 L13,7 L17,6 L15,5 L15,2 L24,1 L25,3 L30,4 L31,7 L42,7 L41,11 L38,11 L35,15 L30,15 L28,11 L27,9 L23,8 L23,12 L25,13 L21,13 L21,10 L19,11 L20,16 L19,17 L8,17 L5,16 L-1,17 L-4,15 L-5,7 L-11,7 L-13,6 L-13,2 L-6,1 Z " fill="#BE1C46" transform="translate(535,224)"/>
<path d="M0,0 L2,0 L2,2 L5,3 L0,6 L-1,10 L1,11 L-3,12 L-3,10 L-7,11 L-13,19 L-18,22 L-22,27 L-24,27 L-25,43 L-30,50 L-28,58 L-29,65 L-28,71 L-30,71 L-30,87 L-31,87 L-31,71 L-33,71 L-33,65 L-31,65 L-31,63 L-33,63 L-33,55 L-35,55 L-35,45 L-31,45 L-31,31 L-29,31 L-29,27 L-27,27 L-27,23 L-25,23 L-25,19 L-21,19 L-21,17 L-19,17 L-19,15 L-17,15 L-16,10 L-13,7 L-11,7 L-11,5 L-9,5 L-9,3 L0,2 Z " fill="#A62244" transform="translate(417,245)"/>
<path d="M0,0 L41,0 L41,2 L34,3 L34,8 L40,8 L40,9 L13,9 L2,10 L0,12 L-6,13 L-6,11 L-13,11 L-21,9 L-21,6 L-16,6 L-15,6 L-15,4 L-12,4 L-12,6 L-9,5 L-11,4 L-11,2 L0,2 Z M-6,10 Z " fill="#B8254C" transform="translate(476,215)"/>
<path d="M0,0 L4,1 L1,1 L1,5 L3,5 L4,3 L4,11 L2,11 L0,15 L-3,19 L-5,30 L-7,37 L-9,39 L-10,49 L-11,52 L-9,53 L-12,58 L-12,70 L-11,73 L-13,79 L-15,83 L-23,83 L-23,79 L-16,79 L-16,70 L-18,70 L-18,64 L-16,64 L-16,62 L-18,62 L-18,56 L-16,56 L-16,48 L-14,48 L-14,36 L-12,36 L-12,28 L-10,28 L-10,24 L-8,24 L-8,14 L-4,14 L-4,10 L-2,10 L-2,8 L2,8 L2,6 L0,6 Z " fill="#AF384D" transform="translate(370,388)"/>
<path d="M0,0 L12,0 L14,3 L22,4 L24,7 L30,8 L30,10 L34,10 L34,13 L37,13 L37,17 L31,15 L30,19 L17,18 L11,20 L10,18 L6,16 L4,11 L4,6 L7,4 L10,4 L11,1 L0,1 Z " fill="#B9133F" transform="translate(566,230)"/>
<path d="M0,0 L6,1 L4,2 L4,6 L2,6 L2,8 L0,8 L0,12 L-4,12 L-4,14 L-8,14 L-8,16 L-12,16 L-12,20 L-16,20 L-16,22 L-18,22 L-18,28 L-20,28 L-20,30 L-24,30 L-24,32 L-28,32 L-28,34 L-32,34 L-32,36 L-34,36 L-34,38 L-38,38 L-38,42 L-46,42 L-46,46 L-52,46 L-52,48 L-56,48 L-56,50 L-70,50 L-70,46 L-78,46 L-77,42 L-77,45 L-68,44 L-62,46 L-56,44 L-47,45 L-48,39 L-39,37 L-38,34 L-35,32 L-32,32 L-32,30 L-30,30 L-30,28 L-24,26 L-21,25 L-20,19 L-15,18 L-13,19 L-13,17 L-16,17 L-15,14 L-13,14 L-12,12 L-8,12 L-8,10 L-6,10 L-6,8 L-4,8 L-2,3 L0,3 Z " fill="#5D0006" transform="translate(792,632)"/>
<path d="M0,0 L10,0 L11,10 L8,9 L6,7 L3,14 L-2,14 L-5,11 L-9,13 L-13,17 L-9,20 L-10,30 L-13,33 L-17,33 L-17,31 L-14,31 L-14,20 L-16,20 L-16,22 L-20,22 L-20,24 L-28,24 L-28,18 L-22,18 L-22,16 L-18,16 L-18,14 L-14,14 L-14,12 L-12,12 L-11,7 L-8,6 L-8,4 L-2,4 L-2,10 L0,10 L0,8 L2,8 L2,6 L0,6 Z " fill="#7A0117" transform="translate(772,570)"/>
<path d="M0,0 L2,0 L2,3 L4,3 L5,0 L5,4 L1,4 L1,8 L-3,8 L-3,10 L-8,14 L-9,16 L-11,16 L-11,18 L-15,18 L-15,20 L-17,20 L-17,24 L-19,24 L-19,26 L-27,26 L-27,32 L-31,32 L-31,34 L-35,34 L-35,36 L-39,36 L-39,40 L-41,40 L-41,42 L-47,42 L-47,44 L-49,44 L-49,50 L-59,50 L-60,52 L-61,48 L-50,49 L-51,43 L-48,43 L-48,41 L-50,40 L-42,35 L-42,32 L-34,29 L-29,23 L-21,20 L-19,16 L-10,10 Z " fill="#AD0522" transform="translate(595,592)"/>
<path d="M0,0 L1,4 L3,4 L3,12 L5,12 L5,28 L9,28 L9,32 L11,32 L11,36 L13,36 L13,38 L19,38 L19,40 L21,40 L21,46 L23,46 L23,54 L21,54 L21,56 L23,56 L23,60 L25,60 L25,64 L31,64 L31,68 L33,68 L32,72 L32,69 L30,69 L30,71 L27,71 L24,67 L24,65 L22,65 L20,60 L22,60 L22,57 L20,57 L19,59 L17,57 L18,48 L16,42 L11,41 L10,39 L12,39 L12,37 L9,38 L6,35 L1,29 L0,12 L2,12 L2,5 L-2,4 L0,4 Z " fill="#A00D2D" transform="translate(609,364)"/>
<path d="M0,0 L6,0 L6,2 L12,2 L12,4 L18,4 L22,9 L24,10 L24,14 L30,14 L30,16 L34,16 L33,18 L28,18 L28,22 L22,23 L21,19 L16,18 L16,16 L11,16 L11,12 L5,12 L5,9 L3,9 L3,13 L8,13 L8,14 L2,14 L2,8 L6,8 L6,6 L0,6 Z " fill="#670009" transform="translate(746,230)"/>
<path d="M0,0 L5,3 L5,7 L7,7 L7,11 L11,11 L11,15 L15,15 L19,20 L21,21 L21,25 L23,25 L23,31 L13,31 L13,29 L7,29 L7,25 L5,24 L7,24 L7,22 L5,21 L6,14 L3,13 L2,7 L4,7 L4,4 L2,4 L1,6 L-2,2 L0,2 Z " fill="#69000B" transform="translate(781,249)"/>
<path d="M0,0 L1,3 L4,3 L5,0 L5,4 L1,4 L1,6 L-7,13 L-9,16 L-13,16 L-13,20 L-19,20 L-19,22 L-23,22 L-23,26 L-25,26 L-25,28 L-27,28 L-27,32 L-29,32 L-29,38 L-33,38 L-33,40 L-37,39 L-34,39 L-34,37 L-37,37 L-37,35 L-34,35 L-33,31 L-26,20 L-22,17 L-19,17 L-19,14 L-16,14 L-14,10 L-9,9 Z " fill="#AB0726" transform="translate(637,552)"/>
<path d="M0,0 L20,0 L20,3 L24,1 L36,1 L36,3 L39,3 L40,7 L46,9 L45,13 L43,15 L38,13 L38,6 L20,6 L15,7 L14,6 L-6,5 L-8,3 Z " fill="#C91B49" transform="translate(492,232)"/>
<path d="M0,0 L4,1 L1,1 L1,3 L3,4 L-2,8 L-3,10 L0,11 L-1,17 L3,24 L2,30 L6,31 L6,33 L8,33 L8,35 L12,35 L12,37 L14,38 L12,38 L12,40 L4,40 L4,34 L-2,34 L-2,32 L-4,32 L-4,26 L-2,26 L-4,21 L-6,20 L-6,10 L-4,10 L-4,8 L-6,8 L-6,2 L0,2 Z " fill="#A5243B" transform="translate(286,460)"/>
<path d="M0,0 L5,0 L6,2 L11,3 L12,6 L23,6 L22,10 L19,10 L16,14 L11,14 L9,10 L8,8 L4,7 L4,11 L6,12 L2,12 L2,9 L-9,11 L-12,9 L-13,4 L-6,4 L-6,6 L-2,5 L-4,4 L-4,1 Z " fill="#BA1A45" transform="translate(554,225)"/>
<path d="M0,0 L4,0 L8,5 L10,6 L10,14 L14,14 L14,24 L16,24 L16,26 L18,26 L18,42 L20,42 L20,48 L22,48 L22,76 L21,76 L21,49 L19,49 L19,56 L18,56 L18,48 L19,43 L17,43 L17,48 L15,44 L13,41 L13,27 L15,27 L15,25 L12,26 L10,24 L9,17 L9,7 L7,7 L7,14 L6,14 L5,8 L3,7 L3,5 L1,5 L1,3 L3,3 L3,1 Z " fill="#A21835" transform="translate(748,404)"/>
<path d="M0,0 L1,2 L3,2 L3,24 L6,34 L6,37 L9,38 L8,45 L3,48 L3,46 L1,46 L1,48 L-1,48 L-1,59 L-2,59 L-2,47 L0,47 L0,45 L2,45 L2,35 L0,35 L-1,27 L-1,11 L0,10 L-1,3 Z " fill="#A8304E" transform="translate(388,305)"/>
<path d="M0,0 L10,0 L10,8 L2,8 L2,12 L-14,12 L-14,6 L-6,6 L-6,4 L-4,4 L-4,2 L0,2 Z " fill="#61000A" transform="translate(696,674)"/>
<path d="M0,0 L2,4 L3,0 L5,1 L5,8 L11,9 L27,9 L32,11 L35,10 L39,11 L40,8 L40,12 L36,12 L36,16 L28,16 L28,14 L8,14 L8,12 L2,12 L2,10 L0,10 Z " fill="#B80B31" transform="translate(714,526)"/>
<path d="M0,0 L11,0 L11,13 L9,13 L9,7 L8,10 L-2,11 L-3,14 L-5,15 L-6,17 L-7,16 L-7,2 L0,2 Z " fill="#880012" transform="translate(502,783)"/>
<path d="M0,0 L6,0 L6,2 L12,2 L12,4 L20,4 L20,6 L26,6 L26,8 L30,8 L29,10 L23,10 L25,9 L25,7 L16,8 L16,11 L22,11 L18,13 L14,13 L14,11 L8,12 L3,9 L1,7 L-5,8 L-6,6 L0,4 L0,3 L5,3 L5,1 L0,1 Z " fill="#AA1B41" transform="translate(534,218)"/>
<path d="M0,0 L6,0 L6,2 L8,2 L8,8 L6,8 L6,10 L8,10 L8,16 L6,16 L6,18 L2,18 L2,20 L-4,20 L-4,12 L-2,12 L-2,10 L0,10 Z " fill="#6B000C" transform="translate(730,640)"/>
<path d="M0,0 L6,0 L6,2 L11,2 L11,8 L13,8 L13,2 L14,4 L22,4 L22,5 L15,6 L22,7 L22,8 L14,8 L14,12 L12,12 L12,22 L14,22 L14,24 L10,22 L10,12 L8,12 L8,10 L2,10 L2,12 L-2,11 L1,11 L0,9 Z M-1,9 Z " fill="#110002" transform="translate(432,788)"/>
<path d="M0,0 L1,0 L1,6 L7,6 L7,10 L11,10 L11,20 L3,20 L3,30 L-1,29 L2,29 L1,15 L0,20 L-1,20 L-1,14 L-3,14 L-3,12 L-1,12 Z " fill="#0C0001" transform="translate(739,636)"/>
<path d="M0,0 L8,0 L8,2 L16,1 L19,2 L20,5 L23,5 L23,3 L25,4 L24,7 L19,10 L15,9 L17,4 L10,6 L8,7 L8,5 L3,5 L0,6 L-1,9 L-2,8 L-4,15 L-2,16 L-7,18 L-7,7 L-4,7 L-3,3 L0,2 Z " fill="#970010" transform="translate(538,760)"/>
<path d="M0,0 L1,0 L1,15 L5,15 L5,13 L3,13 L3,0 L5,3 L5,9 L4,11 L9,10 L9,12 L11,12 L17,23 L17,26 L19,26 L21,30 L24,33 L21,33 L21,35 L24,36 L20,36 L16,32 L16,28 L12,28 L11,20 L8,18 L8,14 L6,14 L6,16 L0,16 Z " fill="#991A32" transform="translate(378,528)"/>
<path d="M0,0 L6,0 L6,12 L4,12 L4,20 L1,20 L1,27 L-1,27 L-2,24 L-5,25 L-4,22 L-2,22 L0,12 L2,12 L1,9 L-5,11 L-7,9 L-5,6 L-3,6 L-3,3 L-8,3 L-8,2 L-2,2 L-2,6 L0,6 Z M-8,10 Z M-7,11 Z " fill="#5F0011" transform="translate(826,556)"/>
<path d="M0,0 L2,1 L1,2 L11,2 L12,5 L14,5 L14,7 L13,8 L19,9 L19,12 L22,11 L27,13 L30,13 L32,10 L32,15 L34,15 L34,10 L35,10 L35,16 L33,16 L33,18 L25,18 L25,16 L19,16 L17,12 L12,11 L11,8 L6,7 L5,4 L-1,4 L-3,1 Z " fill="#5D000B" transform="translate(393,794)"/>
<path d="M0,0 L10,0 L10,2 L12,3 L8,6 L4,6 L5,2 L3,4 L-1,4 L-1,9 L-6,9 L-6,11 L-14,12 L-14,17 L-16,17 L-16,6 L-9,6 L-9,3 L0,3 Z " fill="#72000E" transform="translate(487,801)"/>
<path d="M0,0 L1,0 L1,14 L3,14 L3,22 L5,22 L5,16 L11,16 L11,22 L7,22 L7,24 L13,24 L13,28 L15,28 L15,34 L11,33 L14,33 L14,29 L12,29 L12,31 L9,31 L9,28 L3,26 L2,23 L-1,23 L-2,14 L0,14 Z " fill="#A2102E" transform="translate(643,436)"/>
<path d="M0,0 L8,0 L8,2 L10,2 L10,7 L13,7 L12,10 L9,10 L9,7 L7,7 L6,5 L2,6 L-4,12 L-9,15 L-11,17 L-14,17 L-14,15 L-12,15 L-12,10 L-10,10 L-10,7 L-13,7 L-13,3 L-9,3 L-9,8 L-4,8 L-4,6 L-2,6 L-2,2 L0,2 Z M8,10 Z " fill="#8A000C" transform="translate(582,746)"/>
<path d="M0,0 L6,0 L8,1 L8,5 L10,5 L10,3 L16,3 L16,1 L22,1 L22,7 L17,7 L17,15 L14,14 L13,10 L11,12 L9,11 L9,8 L5,9 L3,8 L3,5 L5,5 L5,2 L3,2 L3,4 L1,4 Z " fill="#710010" transform="translate(406,781)"/>
<path d="M0,0 L1,0 L1,14 L3,14 L2,18 L1,21 L3,27 L2,34 L3,40 L1,40 L1,56 L0,56 L0,40 L-2,40 L-2,34 L0,34 L0,32 L-2,32 L-2,24 L-4,24 L-4,14 L0,14 Z " fill="#A32848" transform="translate(386,276)"/>
<path d="M0,0 L10,0 L11,10 L8,9 L6,7 L3,14 L-2,14 L-4,11 L-3,5 L-7,5 L-7,9 L-11,9 L-12,12 L-11,7 L-8,6 L-8,4 L-2,4 L-2,10 L0,10 L0,8 L2,8 L2,6 L0,6 Z " fill="#85001A" transform="translate(772,570)"/>
<path d="M0,0 L4,0 L4,4 L8,4 L8,8 L12,8 L13,18 L9,19 L8,17 L5,16 L5,15 L2,15 L2,13 L-1,13 L-1,11 L2,10 L0,8 Z " fill="#B50B27" transform="translate(448,608)"/>
<path d="M0,0 L2,0 L2,5 L4,5 L4,0 L5,0 L5,6 L1,6 L1,8 L-3,8 L-3,10 L-7,10 L-7,14 L-9,14 L-9,16 L-15,16 L-15,18 L-17,18 L-17,24 L-27,24 L-28,26 L-29,22 L-18,23 L-19,17 L-16,17 L-16,15 L-18,14 L-10,9 L-10,6 L-2,3 Z " fill="#A20822" transform="translate(563,618)"/>
<path d="M0,0 L12,0 L12,4 L14,4 L14,6 L16,6 L16,4 L20,4 L20,2 L24,3 L21,3 L21,5 L24,6 L16,10 L13,9 L13,7 L9,5 L1,5 L-4,6 L-11,5 L-11,9 L-4,9 L-4,10 L-12,10 L-12,4 L-4,4 L-4,2 L0,2 Z " fill="#64000A" transform="translate(718,664)"/>
<path d="M0,0 L8,0 L8,7 L13,7 L13,18 L11,18 L11,9 L6,13 L3,13 L2,11 L1,13 L-1,13 L-1,4 Z " fill="#73000F" transform="translate(446,796)"/>
<path d="M0,0 L6,0 L6,2 L18,2 L17,4 L6,3 L6,5 L17,5 L14,6 L13,17 L16,18 L12,18 L12,14 L8,14 L8,10 L4,10 L0,6 Z " fill="#62000B" transform="translate(358,760)"/>
<path d="M0,0 L3,0 L3,2 L9,1 L12,2 L20,2 L21,7 L20,8 L9,8 L6,7 L0,8 L-3,6 L-3,2 Z " fill="#C41846" transform="translate(534,233)"/>
<path d="M0,0 L1,4 L-1,4 L-1,8 L-3,8 L-3,12 L-5,12 L-5,14 L-7,14 L-7,16 L-9,16 L-9,26 L-11,26 L-11,28 L-13,28 L-13,36 L-14,36 L-14,28 L-16,28 L-13,16 L-7,8 L-5,4 L-4,7 L-2,7 L-4,1 L-2,1 L-2,3 L0,3 Z " fill="#AD0B35" transform="translate(621,328)"/>
<path d="M0,0 L6,0 L6,6 L8,6 L8,10 L10,10 L10,12 L12,12 L12,18 L6,18 L6,16 L4,16 L4,12 L2,12 L2,8 L0,8 Z " fill="#60010A" transform="translate(246,628)"/>
<path d="M0,0 L8,0 L8,1 L1,1 L1,5 L11,5 L13,10 L14,13 L13,18 L13,24 L15,28 L8,28 L8,6 L0,6 Z " fill="#A52D41" transform="translate(346,466)"/>
<path d="M0,0 L1,0 L1,9 L3,9 L3,0 L4,0 L4,10 L0,10 L0,12 L-6,12 L-6,24 L-9,24 L-9,27 L-12,27 L-10,11 L-7,8 L-2,8 L-2,6 L0,6 Z " fill="#AF0B2C" transform="translate(650,528)"/>
<path d="M0,0 L8,2 L8,3 L2,3 L2,5 L-2,5 L-2,7 L-4,7 L-4,9 L-8,9 L-8,13 L-12,13 L-12,15 L-16,15 L-16,17 L-18,17 L-18,19 L-20,19 L-20,21 L-28,21 L-28,23 L-30,23 L-31,25 L-32,22 L-29,22 L-30,19 L-22,19 L-28,18 L-28,17 L-21,15 L-16,11 L-9,12 L-8,5 L-2,3 L1,4 L1,2 L-2,1 Z " fill="#5A0001" transform="translate(640,767)"/>
<path d="M0,0 L1,0 L1,13 L3,13 L3,0 L4,0 L4,14 L2,14 L2,16 L0,16 L0,30 L-2,30 L-2,32 L-4,32 L-4,38 L-6,38 L-6,40 L-8,40 L-8,44 L-10,44 L-11,46 L-11,44 L-13,44 L-13,41 L-11,41 L-11,43 L-9,43 L-11,39 L-10,35 L-7,32 L-7,37 L-5,37 L-5,29 L-1,29 L-1,16 L-3,16 L-1,10 Z " fill="#A00F2E" transform="translate(766,488)"/>
<path d="M0,0 L3,0 L3,16 L2,26 L-1,26 L-1,35 L-3,35 L-3,23 L-1,13 Z " fill="#B30E30" transform="translate(654,502)"/>
<path d="M0,0 L4,0 L4,28 L0,29 Z " fill="#CF0025" transform="translate(556,496)"/>
<path d="M0,0 L5,0 L4,5 L7,5 L11,5 L11,8 L7,8 L7,12 L11,12 L11,14 L7,14 L7,16 L1,16 L0,12 Z " fill="#860014" transform="translate(739,609)"/>
<path d="M0,0 L4,1 L1,1 L1,3 L3,3 L1,7 L-2,12 L-8,14 L-11,15 L-11,13 L-13,13 L-12,16 L-18,15 L-14,14 L-12,10 L-8,6 L-6,6 L-6,4 L-2,4 L-2,2 L0,2 Z " fill="#AC2146" transform="translate(430,232)"/>
<path d="M0,0 L12,0 L14,3 L22,4 L24,7 L30,8 L30,10 L34,10 L33,12 L23,12 L20,11 L20,8 L13,8 L7,5 L10,4 L11,1 L0,1 Z " fill="#A9143A" transform="translate(566,230)"/>
<path d="M0,0 L1,3 L3,3 L3,1 L6,1 L9,7 L10,11 L18,18 L18,23 L12,22 L10,17 L4,12 L4,4 L0,4 Z " fill="#B0102C" transform="translate(402,564)"/>
<path d="M0,0 L6,0 L8,1 L8,4 L37,4 L37,6 L0,6 Z " fill="#6A000B" transform="translate(462,817)"/>
<path d="M0,0 L6,0 L6,2 L12,2 L12,4 L18,4 L17,6 L12,5 L10,9 L5,12 L5,9 L3,9 L3,13 L8,13 L8,14 L2,14 L2,8 L6,8 L6,6 L0,6 Z " fill="#5E000A" transform="translate(746,230)"/>
<path d="M0,0 L0,3 L-3,4 L-4,20 L-6,22 L-9,22 L-9,8 L-8,4 L-5,4 L-5,1 L-1,1 Z " fill="#B62A4F" transform="translate(396,268)"/>
<path d="M0,0 L1,4 L3,4 L3,12 L5,12 L5,28 L9,28 L8,32 L8,29 L2,31 L1,29 L0,12 L2,12 L2,5 L-2,4 L0,4 Z " fill="#A7092F" transform="translate(609,364)"/>
<path d="M0,0 L6,0 L7,10 L5,10 L5,12 L3,12 L3,10 L0,9 L0,11 L-5,10 L-4,4 L0,4 Z " fill="#86000F" transform="translate(560,750)"/>
<path d="M0,0 L1,3 L6,3 L6,1 L8,1 L8,3 L12,5 L14,11 L17,12 L17,14 L21,16 L17,17 L17,19 L20,20 L16,20 L16,16 L12,16 L12,12 L8,12 L8,6 L6,6 L6,4 L0,4 Z " fill="#A60C25" transform="translate(430,602)"/>
<path d="M0,0 L1,0 L2,11 L0,11 L1,15 L5,16 L4,19 L9,19 L9,20 L3,20 L3,16 L1,16 L1,18 L-7,18 L-7,12 L-5,12 L-5,10 L-9,10 L-8,6 L-8,9 L-2,8 L-2,10 L0,10 Z " fill="#5D000D" transform="translate(441,800)"/>
<path d="M0,0 L5,0 L6,6 L10,7 L11,8 L11,14 L16,14 L16,16 L10,16 L8,15 L8,9 L2,9 L-1,4 Z " fill="#76000F" transform="translate(762,257)"/>
<path d="M0,0 L2,0 L2,2 L5,3 L0,6 L-1,10 L1,11 L-3,12 L-3,10 L-7,11 L-8,13 L-13,16 L-16,15 L-16,12 L-9,11 L-8,8 L-6,8 L-6,6 L-8,6 L-8,4 L-5,4 L-5,2 L0,2 Z " fill="#B62349" transform="translate(417,245)"/>
<path d="M0,0 L8,0 L8,1 L1,1 L2,12 L5,13 L5,10 L16,10 L16,12 L8,12 L6,17 L6,19 L3,19 L3,17 L-2,18 L-7,17 L-8,20 L-8,16 L-2,16 L-2,14 L0,14 Z " fill="#6D010F" transform="translate(494,784)"/>
<path d="M0,0 L5,0 L6,1 L6,11 L4,11 L4,9 L-2,10 L-2,7 L-5,7 L-5,4 L-7,3 L-1,2 L0,2 Z " fill="#6F0010" transform="translate(435,799)"/>
<path d="M0,0 L4,1 L1,1 L1,5 L3,5 L4,3 L4,11 L2,11 L0,15 L-3,19 L-4,24 L-5,24 L-5,15 L-7,15 L-7,24 L-8,24 L-8,14 L-4,14 L-4,10 L-2,10 L-2,8 L2,8 L2,6 L0,6 Z " fill="#9B354A" transform="translate(370,388)"/>
<path d="M0,0 L3,0 L3,3 L6,3 L6,7 L8,7 L8,9 L14,9 L15,11 L15,17 L12,17 L11,13 L6,12 L5,10 L7,10 L7,8 L4,9 L1,6 L-1,1 Z " fill="#A90C30" transform="translate(614,393)"/>
<path d="M0,0 L4,0 L4,7 L2,7 L2,14 L0,15 L-2,14 L-1,17 L-5,19 L-10,14 L-11,12 L-6,12 L-6,10 L-11,10 L-11,9 L-5,9 L-5,15 L-3,15 L-3,13 L0,13 Z " fill="#650005" transform="translate(649,735)"/>
<path d="M0,0 L2,0 L2,16 L0,22 L-3,24 L-4,21 L-4,13 L-3,9 L0,9 Z " fill="#B43C53" transform="translate(363,403)"/>
<path d="M0,0 L4,0 L5,5 L11,6 L10,9 L2,14 L0,14 Z " fill="#8E0011" transform="translate(519,773)"/>
<path d="M0,0 L2,1 L1,5 L3,5 L4,1 L7,9 L5,15 L3,19 L-5,19 L-5,15 L2,15 L2,6 L0,6 Z " fill="#A63145" transform="translate(352,452)"/>
<path d="M0,0 L2,4 L3,0 L5,1 L5,8 L11,9 L11,11 L9,11 L9,13 L28,13 L28,14 L8,14 L8,12 L2,12 L2,10 L0,10 Z " fill="#A00C2B" transform="translate(714,526)"/>
<path d="M0,0 L12,0 L12,1 L1,1 L1,3 L12,3 L12,4 L0,5 L0,3 L-3,3 L-3,5 L-1,6 L-4,7 L-4,5 L-9,5 L-9,8 L-4,8 L-8,10 L-12,12 L-12,9 L-19,9 L-19,11 L-22,12 L-22,10 L-20,10 L-20,8 L-12,8 L-12,6 L-10,6 L-10,4 L-4,4 L-4,2 L0,2 Z " fill="#9A2141" transform="translate(464,216)"/>
<path d="M0,0 L2,0 L2,10 L6,10 L6,12 L2,13 L-6,10 L-8,7 L-6,7 L-6,5 Z " fill="#6C000D" transform="translate(455,805)"/>
<path d="M0,0 L3,0 L3,2 L1,3 L1,8 L-9,8 L-10,12 L-18,12 L-18,9 L-13,9 L-12,6 L-3,4 Z " fill="#B60B27" transform="translate(544,633)"/>
<path d="M0,0 L1,2 L12,2 L11,6 L8,6 L5,10 L0,10 L-2,6 L-3,4 L-5,3 L-1,2 Z " fill="#B61741" transform="translate(565,229)"/>
<path d="M0,0 L1,4 L-1,4 L-1,6 L-3,6 L-3,10 L-5,10 L-5,16 L-9,16 L-9,18 L-13,17 L-10,17 L-10,15 L-13,15 L-13,13 L-10,13 L-9,9 L-6,4 L0,3 Z " fill="#A30422" transform="translate(613,574)"/>
<path d="M0,0 L4,0 L4,6 L-1,7 L-6,12 L-6,14 L-10,13 L-10,16 L-12,16 L-12,14 L-14,14 L-14,12 L-11,12 L-11,9 L-7,9 L-7,7 L-4,7 L-4,4 L0,4 Z " fill="#97001D" transform="translate(765,575)"/>
<path d="M0,0 L1,0 L1,9 L7,9 L10,11 L10,13 L12,13 L11,19 L8,19 L8,17 L5,17 L5,21 L10,21 L10,22 L4,22 L4,16 L8,16 L8,14 L4,14 L0,10 Z " fill="#A41130" transform="translate(692,494)"/>
<path d="M0,0 L3,1 L2,8 L0,8 L0,10 L-9,10 L-9,15 L-11,15 L-11,9 L-8,6 L-2,4 Z " fill="#A60621" transform="translate(576,608)"/>
<path d="M0,0 L8,1 L9,3 L1,3 L1,5 L-1,6 L-2,10 L-6,11 L-14,11 L-14,8 L-6,8 L-6,6 L-1,1 Z " fill="#660002" transform="translate(610,784)"/>
<path d="M0,0 L4,0 L4,5 L9,5 L9,3 L11,4 L10,8 L4,12 L2,14 L-1,14 L-1,12 L1,12 L1,7 L3,7 L3,4 L0,4 Z " fill="#81000C" transform="translate(569,749)"/>
<path d="M0,0 L1,2 L3,2 L3,22 L2,26 L-1,26 L-1,11 L0,10 L-1,3 Z " fill="#B63154" transform="translate(388,305)"/>
<path d="M0,0 L3,0 L3,2 L5,2 L6,7 L6,21 L8,21 L8,23 L4,23 L3,8 L0,7 Z " fill="#BE203F" transform="translate(375,520)"/>
<path d="M0,0 L1,0 L1,6 L-1,6 L-1,8 L1,8 L1,14 L-1,14 L-1,16 L-5,16 L-5,18 L-11,18 L-11,10 L-9,10 L-9,8 L-7,9 L-8,11 L-10,11 L-10,17 L-6,17 L-6,15 L-8,14 L-4,13 L-3,9 L-5,8 L-2,8 L-3,5 L0,5 Z " fill="#63010A" transform="translate(737,642)"/>
<path d="M0,0 L1,2 L3,2 L4,0 L3,4 L-1,9 L-1,15 L-5,15 L-5,6 L-4,2 L0,2 Z " fill="#AF1434" transform="translate(698,488)"/>
<path d="M0,0 L6,0 L6,4 L12,4 L12,5 L6,5 L6,10 L8,10 L8,12 L2,11 L1,6 L-1,6 L0,3 L5,1 L0,1 Z " fill="#66000E" transform="translate(400,776)"/>
<path d="M0,0 L12,0 L12,4 L14,4 L14,6 L16,6 L16,4 L20,4 L20,2 L24,3 L21,3 L21,5 L24,6 L16,10 L13,9 L13,7 L10,6 L11,1 L0,1 Z " fill="#610007" transform="translate(718,664)"/>
<path d="M0,0 L1,0 L1,16 L3,16 L3,24 L1,24 L1,30 L0,30 L0,24 L-2,24 L-2,29 L-3,29 L-3,23 L-2,16 L0,16 Z " fill="#9D1135" transform="translate(643,270)"/>
<path d="M0,0 L5,0 L5,3 L7,3 L7,19 L4,19 L4,4 L0,3 Z " fill="#B7133D" transform="translate(636,267)"/>
<path d="M0,0 L6,0 L6,2 L10,2 L10,8 L4,8 L4,6 L0,6 Z " fill="#6D0110" transform="translate(432,788)"/>
<path d="M0,0 L6,0 L10,5 L10,8 L4,8 L4,10 L0,9 L3,9 L3,7 L1,7 Z " fill="#0B0001" transform="translate(740,626)"/>
<path d="M0,0 L1,0 L1,11 L3,11 L3,0 L4,0 L4,12 L2,12 L2,20 L0,20 L0,26 L2,26 L2,28 L0,28 L0,34 L-1,34 L-2,26 L-2,12 L-1,12 L-1,19 L1,19 L0,12 Z " fill="#160709" transform="translate(352,424)"/>
<path d="M0,0 L3,0 L4,6 L6,6 L8,10 L11,13 L8,13 L8,15 L11,16 L7,16 L3,12 L3,7 L0,7 Z " fill="#B81836" transform="translate(391,548)"/>
<path d="M0,0 L4,1 L7,3 L7,9 L2,9 L2,12 L-1,13 L-2,15 L-4,15 L-4,12 L-2,12 L-1,8 L1,7 L2,2 L0,2 Z " fill="#AD3247" transform="translate(319,459)"/>
<path d="M0,0 L4,0 L8,5 L10,6 L10,10 L12,10 L12,16 L2,16 L2,15 L11,15 L11,11 L9,11 L9,13 L7,13 L9,7 L7,7 L5,11 L5,7 L2,7 L2,4 L0,3 L3,3 L3,1 Z " fill="#5B0009" transform="translate(792,264)"/>
<path d="M0,0 L8,0 L8,3 L-1,6 L-5,10 L-7,10 L-7,6 L-4,6 L-4,1 Z " fill="#AD1B3C" transform="translate(730,405)"/>
<path d="M0,0 L2,0 L2,6 L1,8 L-3,8 L-3,10 L-11,11 L-11,8 L-9,8 L-9,6 L-3,4 L0,3 Z " fill="#650006" transform="translate(771,654)"/>
<path d="M0,0 L5,0 L5,3 L0,6 L-4,8 L-3,5 L-13,4 L-13,2 L-1,1 Z M-5,8 Z " fill="#780017" transform="translate(818,559)"/>
<path d="M0,0 L4,0 L4,8 L1,8 L1,21 L-1,21 L-1,5 Z " fill="#B11334" transform="translate(768,480)"/>
<path d="M0,0 L8,0 L7,3 L2,5 L-4,11 L-7,11 L-7,8 L-4,8 L-4,5 L-2,5 L-2,1 Z " fill="#770016" transform="translate(796,563)"/>
<path d="M0,0 L3,0 L3,13 L-1,13 L-1,21 L-3,21 L-3,14 L-1,10 Z " fill="#B70E32" transform="translate(762,504)"/>
<path d="M0,0 L8,1 L4,2 L4,4 L0,4 L0,8 L-4,8 L-4,10 L-6,10 L-6,16 L-7,16 L-8,7 L-3,6 L-1,7 L-1,5 L-4,5 L-3,2 L-1,2 Z " fill="#5A0007" transform="translate(780,644)"/>
<path d="M0,0 L1,2 L6,2 L5,6 L-11,5 L-11,3 L-15,2 L0,2 Z " fill="#B32048" transform="translate(533,217)"/>
<path d="M0,0 L4,0 L4,8 L8,10 L12,14 L12,18 L14,18 L13,20 L10,19 L9,15 L5,13 L2,10 L3,1 Z M3,9 Z " fill="#190206" transform="translate(402,568)"/>
<path d="M0,0 L1,4 L5,6 L7,10 L13,10 L12,14 L12,11 L7,11 L7,13 L2,11 L2,9 L0,9 L0,6 L-2,6 L-2,4 L0,4 Z " fill="#A51137" transform="translate(629,256)"/>
<path d="M0,0 L5,3 L5,7 L7,7 L7,11 L11,11 L10,15 L10,12 L4,14 L2,10 L2,7 L4,7 L4,4 L2,4 L1,6 L-2,2 L0,2 Z " fill="#620008" transform="translate(781,249)"/>
<path d="M0,0 L1,0 L1,14 L3,14 L3,22 L5,23 L-1,23 L-2,14 L0,14 Z " fill="#A10F2D" transform="translate(643,436)"/>
<path d="M0,0 L5,2 L5,4 L10,4 L10,5 L4,6 L10,7 L10,8 L2,8 L0,4 L-16,4 L-16,3 L0,3 Z " fill="#9A0B22" transform="translate(488,638)"/>
<path d="M0,0 L2,0 L2,3 L4,3 L4,17 L1,17 L0,5 L-1,2 Z " fill="#B71134" transform="translate(639,433)"/>
<path d="M0,0 L2,0 L2,2 L0,2 L-3,12 L-1,13 L-6,15 L-6,4 L-3,4 L-3,1 Z " fill="#970013" transform="translate(537,763)"/>
<path d="M0,0 L2,0 L2,3 L9,3 L9,7 L11,7 L10,11 L10,8 L8,8 L8,10 L5,10 L2,6 L2,4 L0,4 Z " fill="#A90F30" transform="translate(631,425)"/>
<path d="M0,0 L6,0 L6,2 L8,2 L7,6 L7,3 L5,3 L4,6 L1,6 L1,3 L-1,3 L0,9 L-2,10 L-2,7 L-10,7 L-10,6 L-2,6 L-2,2 L0,2 Z " fill="#9E1837" transform="translate(740,398)"/>
<path d="M0,0 L2,0 L1,5 L-6,10 L-6,8 L-8,8 L-9,11 L-9,7 L-7,7 L-7,3 L0,2 Z " fill="#B7264A" transform="translate(399,261)"/>
<path d="M0,0 L5,0 L5,3 L-2,6 L-5,6 L-5,8 L-7,8 L-6,1 Z " fill="#7B000A" transform="translate(602,743)"/>
<path d="M0,0 L4,0 L4,2 L8,2 L8,6 L-4,6 L-4,4 L0,4 Z " fill="#100002" transform="translate(486,806)"/>
<path d="M0,0 L10,0 L10,2 L12,3 L8,6 L4,6 L5,2 L3,4 L-1,3 Z " fill="#79000F" transform="translate(487,801)"/>
<path d="M0,0 L8,0 L8,2 L10,3 L8,3 L8,5 L3,5 L0,6 L-1,9 L-1,5 L1,5 L1,3 L-3,4 L-2,2 L0,2 Z " fill="#8C0112" transform="translate(538,760)"/>
<path d="M0,0 L1,0 L1,10 L3,11 L-3,15 L-4,20 L-5,20 L-5,12 L-7,11 L-7,20 L-8,20 L-8,10 L0,10 Z " fill="#600008" transform="translate(750,646)"/>
<path d="M0,0 L2,0 L3,6 L0,15 L-2,11 L-4,10 L-4,6 L-1,5 Z " fill="#B83D57" transform="translate(375,383)"/>
<path d="M0,0 L2,1 L3,2 L5,3 L4,5 L10,4 L11,7 L10,11 L13,12 L9,12 L9,8 L4,7 L3,4 L-2,3 L-3,1 Z " fill="#9B0B23" transform="translate(453,622)"/>
<path d="M0,0 L3,0 L3,2 L6,2 L6,4 L8,4 L8,14 L10,14 L10,16 L6,16 L5,5 L0,4 Z " fill="#BD1236" transform="translate(697,511)"/>
<path d="M0,0 L4,1 L1,1 L1,3 L3,4 L-2,8 L-4,10 L-4,8 L-6,8 L-6,2 L0,2 Z " fill="#992439" transform="translate(286,460)"/>
<path d="M0,0 L2,0 L2,10 L-2,9 L1,9 L1,7 L-3,7 L-3,5 L-12,5 L-12,4 L-4,4 L-4,2 L0,2 Z " fill="#140003" transform="translate(756,590)"/>
<path d="M0,0 L4,0 L4,4 L8,4 L9,7 L6,9 L2,8 L2,6 L0,6 Z " fill="#C0072A" transform="translate(600,472)"/>
<path d="M0,0 L2,0 L2,4 L6,6 L6,14 L4,10 L2,14 L1,6 L0,3 L-6,3 L-6,2 L0,2 Z " fill="#0F0204" transform="translate(384,542)"/>
<path d="M0,0 L4,0 L6,5 L8,6 L8,9 L3,9 L2,6 L-1,5 Z M6,4 Z " fill="#B60D2B" transform="translate(428,596)"/>
<path d="M0,0 L1,0 L1,8 L3,8 L3,1 L4,1 L4,9 L1,16 L0,14 L-2,14 L-2,8 L0,8 Z " fill="#A23346" transform="translate(354,436)"/>
<path d="M0,0 L1,0 L1,9 L3,9 L3,1 L4,1 L4,10 L2,10 L2,12 L0,12 L0,20 L-1,20 L-1,12 L-3,12 Z " fill="#9E092F" transform="translate(608,344)"/>
<path d="M0,0 Z M-10,1 L-9,3 L-2,2 L0,1 L1,4 L-2,7 L-6,7 L-7,5 L-10,9 L-12,9 L-12,5 L-10,5 Z " fill="#C61E4A" transform="translate(478,230)"/>
<path d="M0,0 L2,0 L2,2 L4,2 L5,0 L5,3 L9,3 L9,5 L5,5 L5,7 L-1,7 Z " fill="#810012" transform="translate(741,618)"/>
<path d="M0,0 L1,0 L1,6 L5,6 L5,12 L-1,12 L-1,8 L-3,7 L0,7 Z " fill="#8A2436" transform="translate(313,480)"/>
<path d="M0,0 L9,0 L9,1 L1,1 L1,5 L-3,5 L-3,7 L-7,7 L-7,9 L-11,8 L-8,8 L-9,4 L-4,2 L0,4 Z " fill="#500002" transform="translate(595,795)"/>
<path d="M0,0 L10,0 L10,13 L8,13 L8,2 L0,2 Z " fill="#920013" transform="translate(503,783)"/>
<path d="M0,0 L10,0 L10,1 L1,1 L1,3 L9,3 L9,8 L7,5 L2,6 L0,5 L0,3 L-5,3 L-5,8 L-6,8 L-6,2 L0,2 Z " fill="#9A2C3F" transform="translate(302,446)"/>
<path d="M0,0 L1,0 L1,10 L3,10 L3,18 L5,18 L5,20 L3,20 L3,26 L2,26 L1,18 L2,11 L0,11 L0,18 L-1,18 Z " fill="#1C070C" transform="translate(381,290)"/>
<path d="M0,0 L4,1 L1,1 L1,3 L3,3 L1,7 L-5,5 L-5,9 L-11,10 L-8,6 L-6,6 L-6,4 L-2,4 L-2,2 L0,2 Z " fill="#A52044" transform="translate(430,232)"/>
<path d="M0,0 L3,0 L3,2 L8,1 L8,3 L5,3 L5,5 L-3,5 L-5,4 L-5,2 Z " fill="#690006" transform="translate(551,808)"/>
<path d="M0,0 L7,0 L7,2 L2,2 L2,10 L4,10 L4,12 L2,13 L1,15 L0,14 Z " fill="#900014" transform="translate(495,785)"/>
<path d="M0,0 L6,0 L6,2 L12,2 L12,3 L6,3 L6,7 L8,7 L8,5 L10,6 L8,11 L6,11 L5,13 L4,4 L5,1 L0,1 Z " fill="#6D0108" transform="translate(602,742)"/>
<path d="M0,0 L1,0 L2,11 L1,13 L3,13 L4,10 L4,14 L8,15 L3,15 L3,17 L8,17 L8,18 L2,18 L2,14 L0,14 L0,10 L-2,10 L-2,8 L0,8 Z " fill="#1A0207" transform="translate(632,410)"/>
<path d="M0,0 L4,0 L5,6 L3,6 L3,22 L2,22 L2,6 L0,6 Z " fill="#9B2B48" transform="translate(384,310)"/>
<path d="M0,0 L6,0 L6,2 L12,2 L12,4 L6,5 L5,7 L3,7 L2,2 L2,4 L0,4 Z " fill="#80000A" transform="translate(608,745)"/>
<path d="M0,0 L4,0 L4,7 L2,7 L2,13 L0,13 Z " fill="#710006" transform="translate(649,735)"/>
<path d="M0,0 L1,3 L10,2 L16,4 L16,5 L9,5 L9,7 L22,7 L22,8 L8,8 L8,4 L0,4 Z " fill="#550005" transform="translate(714,674)"/>
<path d="M0,0 L1,0 L1,9 L3,9 L3,0 L4,0 L4,10 L0,10 L0,12 L-6,12 L-6,11 L-1,11 L-1,9 L-6,9 L-2,8 L-2,6 L0,6 Z " fill="#9C0B28" transform="translate(650,528)"/>
<path d="M0,0 L1,0 L1,5 L3,6 L2,8 L0,8 L0,12 L-2,12 L-3,14 L-3,12 L-5,12 L-5,9 L-3,9 L-3,11 L-1,11 L-3,7 L-2,3 Z " fill="#A70A2C" transform="translate(758,520)"/>
<path d="M0,0 L4,0 L4,2 L10,2 L11,8 L3,6 L3,1 Z " fill="#A71239" transform="translate(600,242)"/>
<path d="M0,0 L3,0 L3,8 L5,8 L5,12 L1,11 L0,8 Z " fill="#B70A36" transform="translate(604,356)"/>
<path d="M0,0 L4,1 L1,1 L1,3 L3,3 L3,7 L-2,8 L-4,7 L-4,2 L0,2 Z " fill="#A82246" transform="translate(438,228)"/>
<path d="M0,0 L8,1 L7,5 L5,7 L0,5 Z " fill="#CE1648" transform="translate(530,240)"/>
<path d="M0,0 L2,4 L6,5 L5,8 L10,8 L10,9 L4,9 L4,5 L2,5 L2,7 L-6,7 L-6,1 L-4,2 L-5,6 L1,6 L-1,1 Z " fill="#54010B" transform="translate(440,811)"/>
<path d="M0,0 L5,0 L5,2 L2,2 L2,4 L-11,4 L-11,2 L-2,1 Z " fill="#6B0005" transform="translate(734,677)"/>
<path d="M0,0 L2,2 L2,5 L0,5 L-1,1 Z M-2,2 L0,6 L0,10 L-2,10 L-2,13 L-4,13 L-5,9 Z " fill="#68000E" transform="translate(813,598)"/>
<path d="M0,0 L3,0 L3,4 L0,5 L-1,10 L-5,10 L-5,8 L-3,8 L-3,6 L-5,6 L-5,4 L-2,3 Z " fill="#BC344A" transform="translate(322,471)"/>
<path d="M0,0 L1,0 L1,6 L3,6 L3,8 L1,8 L1,24 L-7,24 L-7,23 L0,23 L-1,6 Z " fill="#27050C" transform="translate(701,438)"/>
<path d="M0,0 L4,0 L9,7 L7,7 L7,14 L6,14 L5,8 L3,7 L3,5 L1,5 L1,3 L3,3 L3,1 Z " fill="#A7193B" transform="translate(748,404)"/>
<path d="M0,0 L7,2 L7,0 L10,1 L10,3 L7,3 L7,5 L-1,5 Z " fill="#680003" transform="translate(577,800)"/>
<path d="M0,0 L6,0 L6,6 L0,6 Z " fill="#4F0105" transform="translate(660,724)"/>
<path d="M0,0 L3,4 L1,5 L1,8 L-2,8 L-2,10 L-6,10 L-6,7 L-4,7 L-4,5 L-2,5 Z " fill="#68000A" transform="translate(790,635)"/>
<path d="M0,0 L2,0 L3,10 L0,13 L-4,13 L-4,11 L-1,10 Z " fill="#930019" transform="translate(759,590)"/>
<path d="M0,0 L6,0 L6,6 L5,6 L5,1 L1,1 L1,5 L4,5 L4,8 L2,8 L2,12 L0,12 Z " fill="#6E010C" transform="translate(568,748)"/>
<path d="M0,0 L7,0 L7,1 L2,1 L2,10 L0,12 L-4,12 L-4,10 L-1,9 Z " fill="#75000A" transform="translate(743,657)"/>
<path d="M0,0 L2,1 L1,7 L-3,6 L-3,9 L-5,9 L-5,7 L-7,7 L-7,5 L-4,5 L-4,2 L0,2 Z " fill="#93001D" transform="translate(758,582)"/>
<path d="M0,0 L6,0 L6,5 L9,5 L8,8 L2,9 L2,6 L3,4 L5,4 L5,1 L0,1 Z M0,8 Z M1,9 Z " fill="#660013" transform="translate(818,558)"/>
<path d="M0,0 L4,1 L-4,8 L-8,12 L-10,12 L-8,8 L-2,2 L0,2 Z " fill="#220108" transform="translate(638,556)"/>
<path d="M0,0 L6,0 L9,3 L8,10 L7,10 L6,4 L0,3 Z " fill="#B71034" transform="translate(708,522)"/>
<path d="M0,0 L3,1 L1,5 L-7,5 L-7,1 Z " fill="#BA364C" transform="translate(354,466)"/>
<path d="M0,0 L1,4 L-1,4 L-1,8 L-4,8 L-4,11 L-8,11 L-6,5 L-4,4 L-4,7 L-2,7 L-4,1 L-2,1 L-2,3 L0,3 Z " fill="#A60C35" transform="translate(621,328)"/>
<path d="M0,0 L4,0 L5,3 L3,10 L2,8 L0,8 Z " fill="#A92C4C" transform="translate(384,300)"/>
<path d="M0,0 L4,2 L8,4 L8,6 L4,8 L1,8 Z " fill="#B4123C" transform="translate(606,248)"/>
<path d="M0,0 L8,0 L8,2 L10,2 L9,6 L9,3 L-1,3 L-2,6 L-2,2 L0,2 Z " fill="#7C000C" transform="translate(582,746)"/>
<path d="M0,0 L3,0 L3,2 L5,2 L6,8 L0,7 Z " fill="#B6233E" transform="translate(375,520)"/>
<path d="M0,0 L6,0 L6,4 L8,4 L8,10 L4,9 L7,9 L7,5 L5,5 L5,7 L2,7 L2,4 L0,3 L5,3 L5,1 L0,1 Z " fill="#99102C" transform="translate(650,460)"/>
<path d="M0,0 L6,0 L7,1 L7,7 L4,7 L3,3 L0,3 Z " fill="#B60E34" transform="translate(622,403)"/>
<path d="M0,0 L12,0 L14,3 L14,8 L7,5 L10,4 L11,1 L0,1 Z " fill="#A21439" transform="translate(566,230)"/>
<path d="M0,0 L6,0 L6,2 L13,2 L13,4 L4,4 L0,3 Z " fill="#B91F48" transform="translate(540,221)"/>
<path d="M0,0 L6,0 L6,7 L4,8 L-2,8 L-1,6 L3,5 L4,3 L0,2 Z " fill="#7D000D" transform="translate(514,795)"/>
<path d="M0,0 L4,1 L1,1 L1,12 L3,12 L4,10 L5,13 L0,15 L0,13 L-6,13 L-6,12 L0,12 Z " fill="#7B000F" transform="translate(530,766)"/>
<path d="M0,0 L4,0 L4,3 L6,3 L6,9 L4,9 L2,7 L0,6 Z " fill="#990010" transform="translate(561,751)"/>
<path d="M0,0 L1,3 L3,3 L4,0 L7,6 L5,6 L5,13 L8,14 L4,14 L3,6 L0,4 Z " fill="#9D172F" transform="translate(386,542)"/>
<path d="M0,0 L5,0 L4,8 L-1,10 L0,3 Z " fill="#C6163C" transform="translate(420,438)"/>
<path d="M0,0 L3,0 L4,6 L1,11 L0,8 L-2,7 L0,7 Z " fill="#B41C3D" transform="translate(713,427)"/>
<path d="M0,0 L9,0 L10,5 L7,6 L6,4 L0,2 Z " fill="#B5133C" transform="translate(619,255)"/>
<path d="M0,0 L1,3 L3,3 L4,1 L8,5 L5,5 L5,7 L10,6 L10,11 L8,10 L8,8 L4,8 L0,4 Z " fill="#590009" transform="translate(374,778)"/>
<path d="M0,0 L4,1 L9,7 L4,8 L3,5 L0,4 Z " fill="#B80D29" transform="translate(463,629)"/>
<path d="M0,0 L6,0 L6,2 L10,2 L10,4 L0,4 Z " fill="#B50B26" transform="translate(468,624)"/>
<path d="M0,0 L4,0 L4,8 L0,8 Z " fill="#CE0024" transform="translate(464,536)"/>
<path d="M0,0 L4,0 L4,8 L0,8 Z " fill="#CF0128" transform="translate(540,448)"/>
<path d="M0,0 L2,3 L2,6 L-1,7 L-2,10 L-4,10 L-5,6 Z " fill="#B70F3B" transform="translate(623,321)"/>
<path d="M0,0 L7,1 L3,3 L-1,5 L-1,2 L-8,2 L-8,4 L-11,5 L-11,3 L-9,3 L-9,1 Z " fill="#A42243" transform="translate(453,223)"/>
<path d="M0,0 L7,0 L8,3 L13,4 L12,6 L7,7 L7,4 L5,4 L5,2 L0,2 Z M6,7 Z " fill="#7B0011" transform="translate(392,773)"/>
<path d="M0,0 L9,0 L9,2 L2,3 L1,8 L-1,8 L-1,2 Z " fill="#BC0726" transform="translate(566,615)"/>
<path d="M0,0 L2,0 L2,3 L4,3 L5,0 L5,4 L1,4 L1,8 L-1,8 L-2,12 L-3,4 L-2,7 L0,7 L-1,1 Z " fill="#58000C" transform="translate(815,596)"/>
<path d="M0,0 L1,3 L4,3 L5,0 L5,4 L1,4 L1,6 L-6,7 Z " fill="#A40827" transform="translate(637,552)"/>
<path d="M0,0 L5,0 L5,2 L2,2 L2,12 L0,12 Z " fill="#920017" transform="translate(739,609)"/>
<path d="M0,0 L4,0 L4,10 L2,10 L2,5 L0,5 Z " fill="#700015" transform="translate(827,557)"/>
<path d="M0,0 L1,0 L1,9 L7,9 L9,11 L5,11 L5,13 L8,14 L4,14 L0,10 Z " fill="#9A102D" transform="translate(692,494)"/>
<path d="M0,0 L3,2 L3,6 L1,6 L1,12 L3,12 L2,14 L-1,14 L0,3 L-2,2 Z " fill="#1B0609" transform="translate(281,480)"/>
<path d="M0,0 L4,1 L1,1 L2,6 L0,12 L-1,12 L-1,5 L-3,5 L-3,12 L-4,12 L-4,4 L0,4 Z " fill="#981834" transform="translate(722,410)"/>
<path d="M0,0 L5,0 L6,1 L6,11 L4,11 L4,2 L0,2 Z " fill="#7A0011" transform="translate(435,799)"/>
<path d="M0,0 L10,0 L10,2 L2,2 L0,6 L-2,6 L-2,4 L0,4 Z " fill="#180003" transform="translate(500,794)"/>
<path d="M0,0 L2,1 L1,4 L-4,7 L-8,6 L-6,2 L0,2 Z " fill="#90000E" transform="translate(561,763)"/>
<path d="M0,0 L5,0 L5,2 L3,3 L2,6 L-4,6 L-4,2 L-2,2 L-1,4 Z " fill="#810010" transform="translate(745,635)"/>
<path d="M0,0 L4,0 L4,2 L1,3 L0,6 L-4,8 L-5,6 L-2,1 Z " fill="#B70627" transform="translate(613,571)"/>
<path d="M0,0 L1,0 L1,13 L-1,13 L-1,15 L-3,15 L-3,21 L-4,21 L-4,12 L0,12 Z " fill="#920B28" transform="translate(765,505)"/>
<path d="M0,0 L9,0 L10,1 L10,7 L8,7 L8,2 L0,2 Z " fill="#BB374E" transform="translate(303,447)"/>
<path d="M0,0 L2,2 L2,11 L5,11 L5,13 L0,12 Z " fill="#7E0010" transform="translate(755,246)"/>
<path d="M0,0 L1,0 L1,14 L-1,14 L-1,16 L-3,16 L-3,10 L0,11 Z " fill="#140001" transform="translate(647,734)"/>
<path d="M0,0 L6,0 L6,2 L10,2 L10,4 L14,5 L11,5 L11,7 L7,5 L9,5 L9,3 L6,3 L5,5 L3,3 L5,3 L5,1 L0,1 Z " fill="#650107" transform="translate(624,738)"/>
<path d="M0,0 L7,0 L7,4 L0,4 Z " fill="#70000B" transform="translate(707,669)"/>
<path d="M0,0 L4,1 L-4,8 L-8,10 L-8,8 L-6,8 L-4,4 L0,2 Z " fill="#1F0006" transform="translate(592,600)"/>
<path d="M0,0 L2,0 L2,4 L-1,5 L-2,9 L-5,9 L-4,4 L0,2 Z " fill="#BB1335" transform="translate(655,465)"/>
<path d="M0,0 L2,0 L2,8 L0,11 L-4,10 L-4,8 L-1,7 Z " fill="#BC1E40" transform="translate(719,415)"/>
<path d="M0,0 L3,2 L3,4 L9,4 L8,8 L8,5 L3,5 L3,7 L-1,5 Z " fill="#9A1033" transform="translate(633,262)"/>
<path d="M0,0 L5,3 L5,7 L7,7 L6,11 L6,8 L3,9 L4,4 L2,4 L1,6 L-2,2 L0,2 Z " fill="#5B0007" transform="translate(781,249)"/>
<path d="M0,0 L3,0 L2,5 L-4,5 L-4,2 Z " fill="#670002" transform="translate(646,764)"/>
<path d="M0,0 L6,0 L6,1 L1,1 L3,5 L5,5 L5,9 L8,10 L4,10 L0,6 Z " fill="#560009" transform="translate(358,760)"/>
<path d="M0,0 L7,2 L7,5 L0,5 L-1,1 Z " fill="#6F0008" transform="translate(715,672)"/>
<path d="M0,0 L3,0 L3,6 L-4,6 L-2,3 L0,3 Z " fill="#010000" transform="translate(746,649)"/>
<path d="M0,0 L6,0 L6,6 L5,6 L5,1 L1,1 L1,5 L-3,5 L-4,8 L-3,3 L0,2 Z " fill="#7B0118" transform="translate(764,574)"/>
<path d="M0,0 L1,3 L3,3 L4,0 L8,5 L5,5 L5,7 L8,8 L4,8 L0,4 Z " fill="#A2142E" transform="translate(394,556)"/>
<path d="M0,0 L4,0 L4,5 L2,5 L0,9 Z " fill="#9B0014" transform="translate(519,773)"/>
<path d="M0,0 L4,0 L4,2 L2,2 L2,7 L4,7 L4,9 L0,9 Z " fill="#7F0010" transform="translate(731,641)"/>
<path d="M0,0 L1,0 L1,6 L3,7 L1,11 L-1,7 L-3,7 L-3,12 L-4,12 L-4,6 L0,6 Z " fill="#9A3249" transform="translate(378,376)"/>
<path d="M0,0 L4,1 L-1,6 L-5,8 L-3,3 Z " fill="#CC1B4A" transform="translate(462,241)"/>
<path d="M0,0 L1,0 L1,9 L3,9 L4,6 L5,9 L7,10 L5,10 L5,12 L3,12 L3,10 L0,10 Z " fill="#61000C" transform="translate(444,800)"/>
<path d="M0,0 L4,0 L4,4 L6,4 L6,6 L0,5 Z " fill="#240004" transform="translate(402,782)"/>
<path d="M0,0 L9,3 L9,5 L2,5 L2,3 L0,3 Z " fill="#B80C29" transform="translate(516,642)"/>
<path d="M0,0 L1,4 L-3,4 L-3,8 L-11,8 L-11,7 L-4,7 L-4,5 L-7,4 L-4,2 L0,3 Z " fill="#930826" transform="translate(753,534)"/>
<path d="M0,0 L1,2 L5,2 L5,8 L1,7 L4,7 L4,3 L1,4 L0,6 L-3,6 L-3,3 L0,3 Z " fill="#7D2432" transform="translate(321,468)"/>
<path d="M0,0 L0,3 L-3,4 L-3,7 L-7,7 L-7,4 L-5,4 L-5,1 L-1,1 Z " fill="#B6284C" transform="translate(396,268)"/>
<path d="M0,0 L2,0 L2,2 L4,2 L4,6 L-2,7 L0,6 Z " fill="#0F0002" transform="translate(428,804)"/>
<path d="M0,0 L5,0 L5,3 L0,4 L0,6 L-2,6 L-2,3 L0,3 Z " fill="#8B000C" transform="translate(597,745)"/>
<path d="M0,0 L3,1 L0,4 L-8,5 L-7,2 L0,2 Z " fill="#B40925" transform="translate(548,624)"/>
<path d="M0,0 L1,3 L7,2 L9,5 L5,5 L5,7 L8,8 L4,8 L4,4 L0,4 Z " fill="#9A0B22" transform="translate(442,614)"/>
<path d="M0,0 L2,0 L2,3 L4,3 L5,0 L5,4 L1,4 L1,8 L-3,7 L0,7 L0,3 L-2,2 Z " fill="#99041F" transform="translate(595,592)"/>
<path d="M0,0 L1,3 L3,3 L3,1 L6,1 L7,4 L5,4 L5,12 L4,12 L4,4 L0,4 Z " fill="#980F28" transform="translate(402,564)"/>
<path d="M0,0 L2,0 L2,9 L-2,9 L-2,6 L0,6 Z " fill="#BF2D46" transform="translate(303,492)"/>
<path d="M0,0 L1,0 L1,6 L3,6 L3,8 L1,8 L1,18 L0,18 L-1,6 Z " fill="#20070C" transform="translate(279,462)"/>
<path d="M0,0 L2,0 L1,5 L-2,8 L-4,8 L-4,4 L-1,3 Z " fill="#BA1E40" transform="translate(727,407)"/>
<path d="M0,0 L10,0 L9,2 L1,3 L-1,4 Z " fill="#85000F" transform="translate(502,797)"/>
<path d="M0,0 L6,0 L2,2 L0,7 L-2,8 L-2,2 L0,2 Z " fill="#180105" transform="translate(548,634)"/>
<path d="M0,0 L2,1 L3,4 L0,4 L0,9 L-1,5 L-3,4 L-3,1 Z " fill="#AD0824" transform="translate(556,623)"/>
<path d="M0,0 L2,0 L2,2 L6,1 L6,6 L2,6 Z " fill="#7D0011" transform="translate(779,273)"/>
<path d="M0,0 L4,1 L1,1 L1,3 L5,4 L1,7 L1,5 L-1,5 L-2,8 L-2,4 L0,4 Z " fill="#9B2240" transform="translate(392,264)"/>
<path d="M0,0 L8,0 L9,5 L7,5 L7,2 L0,2 Z " fill="#B9143E" transform="translate(612,249)"/>
<path d="M0,0 L6,0 L7,5 L5,5 L5,2 L3,2 L3,4 L1,4 Z " fill="#7D0011" transform="translate(406,781)"/>
<path d="M0,0 L2,0 L1,5 L0,6 L-6,6 L-6,4 L-1,3 Z " fill="#930018" transform="translate(751,603)"/>
<path d="M0,0 L4,1 L1,1 L1,3 L4,4 L1,4 L1,6 L-1,6 L-1,3 L-3,3 L-4,6 L-4,2 L0,2 Z " fill="#7A0014" transform="translate(754,600)"/>
<path d="M0,0 L5,0 L6,4 L0,4 Z " fill="#9F001E" transform="translate(745,589)"/>
<path d="M0,0 L5,0 L7,4 L6,6 L4,6 L3,3 L0,2 Z " fill="#B91432" transform="translate(399,561)"/>
<path d="M0,0 L7,0 L7,2 L2,2 L2,6 L0,6 Z " fill="#BE1A3C" transform="translate(695,463)"/>
<path d="M0,0 L4,0 L4,7 L1,7 Z " fill="#B80A36" transform="translate(607,369)"/>
<path d="M0,0 L3,1 L3,5 L1,5 L1,8 L-1,8 Z " fill="#68000C" transform="translate(800,621)"/>
<path d="M0,0 L4,1 L4,3 L1,4 L0,7 L-2,7 L-2,2 Z " fill="#B90426" transform="translate(599,588)"/>
<path d="M0,0 L8,0 L8,2 L1,2 L1,4 L-1,4 Z " fill="#8A001A" transform="translate(796,563)"/>
<path d="M0,0 L2,1 L3,9 L1,9 L-1,5 Z " fill="#B82641" transform="translate(372,510)"/>
<path d="M0,0 L2,0 L2,4 L7,4 L7,6 L1,6 L0,5 Z " fill="#BB2743" transform="translate(283,487)"/>
<path d="M0,0 L2,0 L2,5 L-2,7 L-2,2 Z " fill="#C21B46" transform="translate(426,378)"/>
<path d="M0,0 L1,0 L1,6 L3,6 L3,9 L-2,9 L-3,7 L0,7 Z " fill="#090001" transform="translate(442,790)"/>
<path d="M0,0 L4,1 L1,1 L1,3 L4,4 L-2,6 L-1,3 L-4,4 L-4,2 L0,2 Z " fill="#5D0006" transform="translate(738,666)"/>
<path d="M0,0 L2,0 L2,2 L10,2 L10,3 L0,4 L-4,2 L0,2 Z " fill="#1F0207" transform="translate(516,646)"/>
<path d="M0,0 L2,1 L2,6 L-2,7 L-2,2 L0,2 Z " fill="#77000E" transform="translate(735,641)"/>
<path d="M0,0 L1,4 L-1,4 L-1,6 L-3,6 L-4,10 L-5,4 L0,3 Z " fill="#58000A" transform="translate(807,616)"/>
<path d="M0,0 L1,0 L1,6 L3,6 L3,8 L1,8 L1,10 L-1,10 Z " fill="#1A0005" transform="translate(771,570)"/>
<path d="M0,0 L8,0 L8,2 L2,2 L2,4 L0,4 Z " fill="#9E0020" transform="translate(773,571)"/>
<path d="M0,0 L2,0 L2,4 L5,5 L3,6 L0,5 L0,3 L-6,3 L-6,2 L0,2 Z " fill="#21050A" transform="translate(384,542)"/>
<path d="M0,0 L3,0 L3,2 L5,2 L5,7 L3,7 L2,4 L0,3 Z " fill="#B71D38" transform="translate(384,538)"/>
<path d="M0,0 L4,0 L4,4 L8,5 L5,5 L5,7 L3,7 L3,5 L1,5 L1,3 L3,3 L3,1 Z " fill="#9B2E40" transform="translate(314,454)"/>
<path d="M0,0 L1,0 L1,6 L3,6 L3,8 L1,8 L1,14 L0,14 L-1,6 Z " fill="#1E090D" transform="translate(351,444)"/>
<path d="M0,0 L2,0 L2,4 L-6,4 L-6,2 L0,2 Z " fill="#70000D" transform="translate(801,275)"/>
<path d="M0,0 L2,0 L3,2 L8,3 L8,5 L0,4 Z " fill="#73000E" transform="translate(749,239)"/>
<path d="M0,0 L2,0 L2,2 L4,2 L2,6 L1,4 L-2,3 Z " fill="#83000D" transform="translate(535,783)"/>
<path d="M0,0 L4,1 L3,5 L1,5 L1,2 L-4,2 Z " fill="#7E0012" transform="translate(750,616)"/>
<path d="M0,0 L2,0 L3,3 L6,4 L6,6 L2,7 L2,4 L0,4 Z " fill="#B91C41" transform="translate(745,401)"/>
<path d="M0,0 L5,0 L5,2 L1,2 L1,6 L-1,6 L-1,1 Z " fill="#B93F57" transform="translate(368,397)"/>
<path d="M0,0 L2,0 L2,6 L-2,7 L-1,3 Z " fill="#B8133D" transform="translate(641,294)"/>
<path d="M0,0 L4,1 L1,1 L1,5 L-5,6 L-2,2 L0,2 Z " fill="#931D3C" transform="translate(424,236)"/>
<path d="M0,0 L2,0 L1,4 L-4,4 L-5,2 Z " fill="#B31943" transform="translate(563,228)"/>
<path d="M0,0 L6,0 L6,5 L4,5 L4,2 L0,2 Z " fill="#830013" transform="translate(447,797)"/>
<path d="M0,0 L1,0 L1,6 L3,7 L0,9 L0,7 L-6,7 L-6,6 L0,6 Z " fill="#6D000C" transform="translate(520,788)"/>
<path d="M0,0 L2,0 L2,2 L4,2 L5,5 L2,5 L-1,4 Z " fill="#65000C" transform="translate(385,785)"/>
<path d="M0,0 L4,0 L4,2 L10,2 L10,3 L4,3 L4,5 L2,5 L2,1 Z " fill="#160003" transform="translate(412,781)"/>
<path d="M0,0 L2,0 L2,5 L-3,6 Z " fill="#690003" transform="translate(655,751)"/>
<path d="M0,0 L3,1 L3,3 L8,3 L4,4 L4,6 L2,6 L2,4 L0,4 Z " fill="#110001" transform="translate(730,664)"/>
<path d="M0,0 L5,0 L6,4 L4,5 L4,3 L0,3 Z " fill="#4C000B" transform="translate(746,618)"/>
<path d="M0,0 L3,1 L3,3 L1,3 L1,6 L-2,6 L-3,3 Z " fill="#BC0B31" transform="translate(752,531)"/>
<path d="M0,0 L2,0 L2,3 L6,3 L6,5 L0,5 Z " fill="#BF2A45" transform="translate(291,494)"/>
<path d="M0,0 L7,0 L7,2 L2,2 L2,4 L0,4 Z " fill="#BF1D3E" transform="translate(703,439)"/>
<path d="M0,0 L5,0 L4,4 L0,5 Z " fill="#B41D3C" transform="translate(724,428)"/>
<path d="M0,0 L5,0 L6,2 L3,4 L-1,3 Z " fill="#810010" transform="translate(487,801)"/>
<path d="M0,0 L3,0 L2,4 L-2,4 L-2,1 Z " fill="#670002" transform="translate(634,771)"/>
<path d="M0,0 L3,0 L3,2 L1,2 L1,4 L3,4 L3,6 L-1,5 Z " fill="#9C0011" transform="translate(556,755)"/>
<path d="M0,0 L4,0 L4,5 L0,4 Z " fill="#A40112" transform="translate(569,749)"/>
<path d="M0,0 L5,0 L4,4 L0,4 Z " fill="#8D0114" transform="translate(735,625)"/>
<path d="M0,0 L5,0 L4,4 L0,4 Z " fill="#BA0827" transform="translate(444,592)"/>
<path d="M0,0 L2,0 L1,5 L-2,7 L-3,4 L-1,3 Z " fill="#8B0019" transform="translate(787,575)"/>
<path d="M0,0 L4,4 L4,8 L2,8 L2,6 L0,6 Z " fill="#160004" transform="translate(782,570)"/>
<path d="M0,0 L2,0 L0,4 L-4,5 L-4,2 Z " fill="#8A0019" transform="translate(793,569)"/>
<path d="M0,0 L4,0 L4,4 L0,5 Z " fill="#C41439" transform="translate(649,453)"/>
<path d="M0,0 L4,0 L4,4 L0,5 Z " fill="#CF002C" transform="translate(464,448)"/>
<path d="M0,0 L2,0 L2,2 L6,2 L6,4 L0,4 Z " fill="#6F000E" transform="translate(435,813)"/>
<path d="M0,0 L2,0 L1,5 L-3,6 L-3,4 L-1,3 Z " fill="#93000E" transform="translate(571,757)"/>
<path d="M0,0 L4,0 L4,2 L2,2 L2,6 L0,6 Z " fill="#190002" transform="translate(568,754)"/>
<path d="M0,0 L4,0 L4,4 L0,4 Z " fill="#720007" transform="translate(661,725)"/>
<path d="M0,0 L2,0 L2,4 L4,4 L4,6 L0,6 Z " fill="#7A000D" transform="translate(727,653)"/>
<path d="M0,0 L4,1 L4,5 L0,4 L-1,1 Z " fill="#0D0103" transform="translate(422,597)"/>
<path d="M0,0 L1,2 L4,3 L1,4 L0,7 L0,3 L-4,2 L0,2 Z " fill="#9C0C25" transform="translate(420,585)"/>
<path d="M0,0 L4,0 L4,6 L2,6 L2,2 L0,2 Z " fill="#A0001F" transform="translate(765,575)"/>
<path d="M0,0 L4,0 L4,4 L0,4 Z " fill="#CA0125" transform="translate(464,560)"/>
<path d="M0,0 L5,0 L5,2 L2,2 L2,5 L0,5 Z " fill="#BE334C" transform="translate(297,449)"/>
<path d="M0,0 L4,0 L4,4 L0,4 Z " fill="#D1002C" transform="translate(520,428)"/>
<path d="M0,0 L1,0 L1,6 L3,6 L3,8 L-1,8 L-2,5 L0,5 Z " fill="#1B090D" transform="translate(369,388)"/>
<path d="M0,0 L5,1 L5,4 L0,3 Z " fill="#670008" transform="translate(776,247)"/>
<path d="M0,0 L4,1 L3,5 L3,2 L1,2 L1,4 L-1,4 L-1,2 L-3,1 Z " fill="#5E0008" transform="translate(766,239)"/>
<path d="M0,0 L6,1 L5,4 L2,4 L2,1 Z M1,4 Z " fill="#87000B" transform="translate(589,752)"/>
<path d="M0,0 L4,1 L4,4 L0,4 Z " fill="#B90D29" transform="translate(443,613)"/>
<path d="M0,0 L2,0 L2,3 L5,3 L5,5 L0,4 Z " fill="#B9102E" transform="translate(415,582)"/>
<path d="M0,0 L3,0 L3,4 L-1,4 Z " fill="#C8344D" transform="translate(314,487)"/>
<path d="M0,0 L3,0 L3,5 L0,5 Z " fill="#050102" transform="translate(350,458)"/>
<path d="M0,0 L7,0 L6,4 L6,1 L0,3 Z " fill="#9F0A2C" transform="translate(611,392)"/>
<path d="M0,0 L2,0 L1,5 L-2,6 Z " fill="#92000E" transform="translate(581,749)"/>
<path d="M0,0 L5,0 L5,2 L2,2 L2,4 L0,4 Z " fill="#86010C" transform="translate(608,745)"/>
<path d="M0,0 L4,0 L4,3 L-1,3 Z " fill="#6C0004" transform="translate(741,674)"/>
<path d="M0,0 L6,0 L6,1 L1,1 L2,4 L-1,6 Z " fill="#6C000E" transform="translate(744,634)"/>
<path d="M0,0 L1,2 L4,2 L4,4 L-2,4 Z " fill="#8A0014" transform="translate(742,621)"/>
<path d="M0,0 L4,1 L1,1 L1,3 L3,3 L1,7 Z " fill="#87011B" transform="translate(750,586)"/>
<path d="M0,0 L3,0 L3,4 L-1,3 Z " fill="#C2374E" transform="translate(322,471)"/>
<path d="M0,0 L5,0 L5,2 L2,2 L2,4 L0,4 Z " fill="#C02D47" transform="translate(281,463)"/>
<path d="M0,0 L1,0 L1,6 L3,6 L3,8 L-1,8 Z " fill="#1B0409" transform="translate(701,438)"/>
<path d="M0,0 L3,0 L3,2 L5,3 L3,3 L2,5 L0,3 Z " fill="#B00E31" transform="translate(626,418)"/>
<path d="M0,0 L3,1 L1,2 L1,9 L0,9 L-1,1 Z " fill="#AE1B3D" transform="translate(754,409)"/>
<path d="M0,0 L2,1 L2,4 L-2,4 L-2,1 Z " fill="#660002" transform="translate(590,797)"/>
<path d="M0,0 L7,2 L7,3 L0,3 Z " fill="#670008" transform="translate(715,672)"/>
<path d="M0,0 L2,3 L2,6 L-1,6 Z " fill="#B90A2D" transform="translate(639,549)"/>
<path d="M0,0 L4,1 L1,5 Z " fill="#220309" transform="translate(654,470)"/>
<path d="M0,0 L4,0 L2,4 L0,4 Z " fill="#CE0032" transform="translate(476,400)"/>
<path d="M0,0 L3,1 L3,3 L-1,3 L-2,6 L-1,1 Z " fill="#951F3D" transform="translate(402,254)"/>
<path d="M0,0 L4,0 L4,2 L2,2 L2,4 L0,4 Z " fill="#880014" transform="translate(433,789)"/>
<path d="M0,0 L4,0 L4,4 L2,4 L2,2 L0,2 Z " fill="#890115" transform="translate(423,783)"/>
<path d="M0,0 L3,1 L1,3 L-3,3 L-3,1 Z " fill="#6D0008" transform="translate(742,666)"/>
<path d="M0,0 L4,0 L4,3 L0,3 Z " fill="#8D0016" transform="translate(746,614)"/>
<path d="M0,0 L4,2 L4,5 L1,5 Z " fill="#AE0E2B" transform="translate(416,580)"/>
<path d="M0,0 L1,0 L1,6 L-2,6 L-2,3 L0,3 Z " fill="#AE2840" transform="translate(302,492)"/>
<path d="M0,0 L2,0 L2,2 L4,2 L4,4 L0,4 Z " fill="#C90229" transform="translate(580,480)"/>
<path d="M0,0 L3,0 L3,4 L0,4 Z " fill="#B71133" transform="translate(650,470)"/>
<path d="M0,0 L2,0 L2,3 L4,4 L-1,4 Z " fill="#B61134" transform="translate(639,433)"/>
<path d="M0,0 L5,0 L4,4 L2,4 Z " fill="#B01032" transform="translate(634,431)"/>
<path d="M0,0 L1,3 L3,3 L1,7 L1,5 L-1,4 Z " fill="#A02445" transform="translate(388,272)"/>
<path d="M0,0 L3,1 L1,3 L-3,4 L-2,1 Z " fill="#C41D49" transform="translate(431,254)"/>
<path d="M0,0 L4,1 L4,3 L0,4 Z " fill="#CF1345" transform="translate(550,248)"/>
<path d="M0,0 L3,0 L3,3 L1,3 L0,5 Z " fill="#500006" transform="translate(607,750)"/>
<path d="M0,0 L4,1 L3,3 L-1,2 Z " fill="#670007" transform="translate(773,650)"/>
<path d="M0,0 L2,0 L2,4 L-1,4 Z " fill="#B80D29" transform="translate(513,643)"/>
<path d="M0,0 L3,0 L3,3 L-1,2 Z M-2,2 Z " fill="#680010" transform="translate(822,584)"/>
<path d="M0,0 L1,2 L3,2 L3,5 L0,5 Z " fill="#A91131" transform="translate(700,508)"/>
<path d="M0,0 L4,1 L4,4 L2,4 L2,2 L0,2 Z " fill="#B7374D" transform="translate(319,459)"/>
<path d="M0,0 L2,0 L0,4 L-2,4 Z " fill="#2B0004" transform="translate(560,760)"/>
<path d="M0,0 L2,2 L2,5 L0,5 L-1,1 Z " fill="#BA0527" transform="translate(607,578)"/>
<path d="M0,0 L2,3 L-2,4 Z " fill="#B52A42" transform="translate(285,466)"/>
<path d="M0,0 L2,1 L2,5 L0,5 L-1,1 Z " fill="#BB103D" transform="translate(625,318)"/>
<path d="M0,0 L4,0 L3,3 L0,2 Z " fill="#B3143E" transform="translate(582,238)"/>
<path d="M0,0 Z M-2,1 L0,1 L-2,5 L-3,2 Z " fill="#7F0008" transform="translate(577,772)"/>
<path d="M0,0 L2,0 L2,4 L0,4 L-1,1 Z " fill="#85000A" transform="translate(605,749)"/>
<path d="M0,0 L4,1 L4,3 L0,2 Z " fill="#BA274D" transform="translate(439,229)"/>
<path d="M0,0 L3,1 L2,4 Z " fill="#980010" transform="translate(570,750)"/>
<path d="M0,0 L3,1 L3,3 L0,3 Z " fill="#AF0726" transform="translate(618,566)"/>
<path d="M0,0 L3,1 L3,3 L-1,2 Z " fill="#B10A2F" transform="translate(752,531)"/>
<path d="M0,0 L4,2 L0,3 Z " fill="#73000F" transform="translate(781,272)"/>
<path d="M0,0 L2,0 L1,3 L-1,3 Z " fill="#B32A42" transform="translate(362,506)"/>
<path d="M0,0 L2,1 L2,3 L-1,2 Z " fill="#BA3048" transform="translate(314,487)"/>
<path d="M0,0 L2,2 L-1,3 Z " fill="#DC154A" transform="translate(513,250)"/>
</svg>
