<?xml version="1.0" encoding="UTF-8"?>
<!-- Generator: visioncortex VTracer 0.6.4 -->
<svg version="1.1" xmlns="http://www.w3.org/2000/svg" width="1024" height="1024">
<path d="M0,0 L1024,0 L1024,1024 L0,1024 Z " fill="#000000" transform="translate(0,0)"/>
<path d="M0,0 L12,0 L12,2 L22,2 L22,4 L26,4 L28,7 L32,8 L32,10 L36,10 L36,12 L40,12 L40,14 L46,14 L48,17 L54,18 L54,20 L64,20 L64,22 L68,22 L68,24 L80,24 L80,26 L90,26 L90,28 L132,28 L132,26 L152,26 L152,24 L194,24 L194,22 L206,22 L206,24 L214,24 L214,22 L230,22 L230,24 L242,24 L242,26 L248,26 L248,28 L258,28 L258,30 L264,30 L264,32 L270,32 L272,35 L276,36 L278,39 L282,40 L284,43 L288,44 L288,46 L292,46 L292,48 L300,48 L304,53 L308,54 L310,57 L314,58 L314,60 L320,60 L322,63 L326,64 L326,66 L330,66 L330,70 L332,70 L332,72 L334,72 L334,76 L336,76 L336,78 L338,78 L338,82 L340,82 L340,86 L342,86 L342,90 L346,90 L346,94 L348,94 L354,101 L358,102 L358,108 L360,108 L360,110 L362,110 L362,114 L364,114 L364,118 L366,118 L366,122 L368,122 L368,124 L370,124 L370,128 L372,128 L372,132 L374,132 L374,140 L376,140 L376,148 L378,148 L378,164 L376,164 L376,172 L374,172 L374,180 L372,180 L372,184 L368,184 L368,188 L366,188 L366,190 L358,197 L352,204 L350,204 L350,208 L348,208 L348,210 L346,210 L346,214 L344,214 L344,216 L339,220 L338,222 L334,222 L334,224 L330,224 L330,226 L324,226 L324,228 L320,228 L320,230 L312,230 L312,232 L310,232 L310,234 L306,234 L306,236 L304,236 L304,238 L302,238 L302,240 L298,240 L298,244 L296,244 L296,246 L294,246 L294,250 L292,250 L292,252 L288,256 L286,256 L286,260 L282,260 L282,262 L278,266 L276,266 L276,268 L272,268 L272,270 L262,270 L262,272 L250,272 L250,270 L248,270 L248,272 L242,272 L242,274 L236,274 L236,276 L232,276 L232,278 L228,278 L228,280 L224,280 L224,282 L220,282 L220,284 L216,284 L216,286 L212,286 L212,288 L208,288 L208,290 L202,290 L202,292 L160,292 L160,294 L150,294 L150,292 L148,292 L148,294 L144,294 L144,292 L134,292 L134,290 L124,290 L124,288 L116,288 L116,286 L110,286 L108,282 L103,281 L102,278 L98,278 L98,276 L94,276 L94,274 L90,274 L90,272 L86,272 L86,270 L82,270 L82,268 L76,268 L76,266 L72,266 L72,264 L68,264 L68,262 L60,262 L60,260 L44,260 L44,258 L38,258 L38,256 L33,255 L32,252 L26,252 L24,248 L14,248 L14,246 L8,246 L8,244 L2,244 L2,242 L-2,242 L-2,240 L-10,240 L-10,238 L-16,238 L-16,236 L-26,236 L-28,232 L-32,232 L-32,230 L-36,230 L-36,228 L-48,228 L-48,226 L-52,226 L-59,218 L-64,214 L-64,202 L-66,202 L-68,197 L-76,189 L-78,188 L-78,184 L-82,184 L-82,182 L-84,182 L-84,176 L-88,176 L-88,174 L-90,174 L-90,168 L-94,168 L-96,163 L-98,162 L-100,157 L-102,156 L-102,148 L-104,148 L-104,138 L-106,138 L-106,130 L-108,130 L-108,126 L-110,126 L-110,114 L-112,114 L-112,110 L-114,110 L-114,66 L-112,66 L-112,62 L-110,62 L-109,57 L-106,56 L-106,52 L-104,52 L-104,50 L-102,50 L-101,45 L-98,44 L-98,40 L-94,40 L-94,38 L-92,38 L-92,36 L-86,36 L-86,34 L-84,34 L-84,32 L-80,32 L-80,30 L-74,30 L-74,28 L-68,28 L-68,26 L-66,26 L-66,24 L-62,24 L-62,20 L-58,20 L-58,18 L-54,18 L-54,16 L-42,16 L-42,14 L-32,14 L-32,12 L-26,12 L-26,10 L-24,10 L-24,8 L-18,8 L-18,6 L-12,6 L-12,4 L-10,4 L-10,2 L0,2 Z " fill="#C4937E" transform="translate(390,368)"/>
<path d="M0,0 L12,0 L12,2 L22,2 L22,4 L26,4 L28,7 L32,8 L32,10 L36,10 L36,12 L40,12 L40,14 L46,14 L48,17 L54,18 L54,20 L64,20 L64,22 L68,22 L68,24 L80,24 L80,26 L90,26 L90,28 L132,28 L132,26 L152,26 L152,24 L194,24 L194,22 L206,22 L206,24 L214,24 L214,22 L230,22 L230,24 L242,24 L242,26 L248,26 L248,28 L258,28 L258,30 L264,30 L264,32 L270,32 L272,35 L276,36 L278,39 L282,40 L284,43 L288,44 L288,46 L292,46 L292,48 L300,48 L304,53 L308,54 L310,57 L314,58 L314,60 L320,60 L322,63 L326,64 L326,66 L330,66 L330,70 L332,70 L332,72 L334,72 L334,76 L336,76 L336,78 L338,78 L338,82 L340,82 L340,86 L342,86 L342,90 L346,90 L346,94 L348,94 L354,101 L358,102 L358,108 L360,108 L360,110 L362,110 L362,114 L364,114 L364,118 L366,118 L366,122 L368,122 L368,124 L370,124 L370,128 L372,128 L372,132 L374,132 L374,140 L376,140 L376,148 L378,148 L378,164 L376,164 L376,172 L374,172 L374,180 L372,180 L372,184 L368,184 L368,188 L366,188 L366,190 L358,197 L352,204 L350,204 L350,208 L348,208 L348,210 L346,210 L346,214 L344,214 L344,216 L339,220 L338,222 L334,222 L334,224 L330,224 L330,226 L324,226 L324,228 L320,228 L320,230 L312,230 L312,232 L310,232 L310,234 L306,234 L306,236 L304,236 L304,238 L302,238 L302,240 L298,240 L298,244 L296,244 L296,246 L294,246 L294,250 L292,250 L292,252 L288,256 L286,256 L286,260 L282,260 L282,262 L278,266 L276,266 L276,268 L272,268 L272,270 L262,270 L262,272 L250,272 L250,270 L248,270 L248,272 L242,272 L242,274 L236,274 L236,276 L232,276 L232,278 L228,278 L228,280 L224,280 L224,282 L220,282 L220,284 L216,284 L216,286 L212,286 L212,288 L208,288 L208,290 L202,290 L202,292 L160,292 L160,294 L150,294 L150,292 L148,292 L148,294 L144,294 L144,292 L134,292 L134,290 L124,290 L124,288 L116,288 L116,286 L110,286 L108,282 L103,281 L102,278 L98,278 L98,276 L94,276 L94,274 L90,274 L90,272 L86,272 L86,270 L82,270 L82,268 L76,268 L76,266 L72,266 L72,264 L68,264 L68,262 L60,262 L60,260 L44,260 L44,258 L38,258 L38,256 L33,255 L32,252 L26,252 L24,248 L14,248 L14,246 L8,246 L8,244 L2,244 L2,242 L-2,242 L-2,240 L-10,240 L-10,238 L-16,238 L-16,236 L-26,236 L-28,232 L-32,232 L-32,230 L-36,230 L-36,228 L-48,228 L-48,226 L-52,226 L-59,218 L-64,214 L-64,202 L-66,202 L-68,197 L-76,189 L-78,188 L-78,184 L-82,184 L-82,182 L-84,182 L-84,176 L-88,176 L-88,174 L-90,174 L-90,168 L-94,168 L-96,163 L-98,162 L-100,157 L-102,156 L-102,148 L-104,148 L-104,138 L-106,138 L-106,130 L-108,130 L-108,126 L-110,126 L-110,114 L-112,114 L-112,110 L-114,110 L-114,66 L-112,66 L-112,62 L-110,62 L-109,57 L-106,56 L-106,52 L-104,52 L-104,50 L-102,50 L-101,45 L-98,44 L-98,40 L-94,40 L-94,38 L-92,38 L-92,36 L-86,36 L-86,34 L-84,34 L-84,32 L-80,32 L-80,30 L-74,30 L-74,28 L-68,28 L-68,26 L-66,26 L-66,24 L-62,24 L-62,20 L-58,20 L-58,18 L-54,18 L-54,16 L-42,16 L-42,14 L-32,14 L-32,12 L-26,12 L-26,10 L-24,10 L-24,8 L-18,8 L-18,6 L-12,6 L-12,4 L-10,4 L-10,2 L0,2 Z M-22,31 L-29,33 L-33,36 L-37,38 L-41,39 L-40,36 L-47,36 L-50,40 L-55,43 L-56,45 L-50,46 L-50,50 L-56,51 L-59,54 L-64,57 L-66,60 L-70,61 L-69,64 L-64,62 L-65,66 L-68,67 L-70,71 L-69,75 L-65,73 L-66,76 L-68,77 L-68,80 L-66,80 L-68,84 L-68,91 L-66,90 L-66,84 L-64,84 L-63,92 L-65,92 L-66,102 L-67,103 L-67,114 L-67,117 L-70,129 L-69,132 L-66,132 L-65,138 L-63,138 L-64,146 L-62,146 L-62,144 L-60,144 L-59,152 L-53,153 L-52,157 L-50,157 L-49,162 L-48,167 L-47,171 L-44,171 L-42,179 L-40,179 L-38,170 L-36,170 L-38,175 L-36,181 L-30,182 L-30,184 L-26,185 L-26,187 L-20,190 L-18,190 L-19,194 L-16,196 L-15,200 L-18,199 L-18,213 L-15,213 L-14,217 L-12,218 L-6,218 L-6,222 L0,223 L0,225 L2,225 L2,220 L6,221 L6,226 L9,226 L11,223 L10,220 L14,221 L22,220 L22,223 L26,222 L26,220 L36,221 L38,220 L37,223 L38,225 L42,225 L44,221 L46,225 L59,225 L59,227 L76,226 L76,228 L84,228 L86,228 L89,228 L90,225 L95,227 L100,225 L101,230 L97,232 L90,232 L90,235 L84,234 L83,236 L84,238 L86,238 L86,240 L91,240 L89,243 L90,246 L97,245 L104,245 L106,248 L106,253 L115,254 L119,255 L121,255 L121,257 L128,257 L128,259 L130,259 L130,257 L138,258 L138,260 L178,261 L178,262 L163,263 L160,264 L158,263 L134,263 L134,265 L127,265 L126,266 L117,266 L112,265 L112,267 L120,271 L124,273 L129,273 L130,271 L157,271 L160,269 L170,268 L171,266 L186,265 L188,261 L217,261 L218,258 L220,260 L225,260 L225,258 L228,259 L230,258 L230,263 L234,262 L258,262 L258,263 L272,263 L274,258 L276,258 L276,250 L278,250 L279,252 L282,249 L288,249 L288,244 L293,243 L294,238 L295,235 L295,231 L290,232 L284,231 L281,232 L272,233 L271,232 L274,231 L275,228 L271,228 L270,226 L278,224 L280,223 L288,223 L294,221 L294,223 L303,220 L305,218 L312,218 L315,215 L325,210 L330,204 L332,200 L337,196 L337,194 L340,193 L341,189 L343,189 L343,185 L346,185 L349,176 L352,173 L355,172 L354,166 L356,166 L356,160 L358,160 L359,153 L358,151 L357,140 L354,139 L354,136 L352,135 L351,129 L348,129 L346,122 L342,115 L338,105 L337,102 L332,102 L332,99 L330,99 L329,95 L324,97 L324,95 L320,95 L320,93 L318,93 L318,90 L315,88 L315,84 L312,84 L312,71 L313,68 L306,63 L304,63 L304,61 L293,58 L284,55 L264,51 L260,50 L261,47 L256,47 L255,45 L254,45 L255,38 L247,37 L246,35 L234,34 L226,35 L226,40 L172,40 L170,41 L170,46 L167,48 L169,50 L171,48 L172,50 L170,51 L171,54 L166,55 L166,53 L164,53 L164,55 L162,53 L163,50 L154,51 L146,51 L142,55 L138,57 L132,57 L130,58 L118,59 L114,61 L93,62 L90,66 L90,68 L81,64 L78,60 L75,61 L77,65 L74,65 L68,64 L68,62 L60,62 L54,63 L53,60 L47,60 L44,60 L32,59 L33,58 L36,58 L41,59 L45,54 L42,53 L42,48 L37,47 L37,44 L48,44 L48,46 L50,47 L58,47 L59,45 L58,40 L48,40 L48,42 L43,42 L43,40 L35,39 L38,38 L38,35 L36,35 L36,33 L31,34 L29,35 L29,33 L24,35 L24,32 L16,32 L10,33 L10,36 L4,35 L2,35 L2,33 L-9,33 L-11,34 L-12,32 L-17,33 Z " fill="#8E6959" transform="translate(390,368)"/>
<path d="M0,0 L29,0 L34,4 L39,5 L39,7 L49,7 L57,9 L58,13 L66,13 L66,15 L73,16 L80,20 L80,22 L83,21 L93,21 L92,25 L90,27 L90,31 L98,31 L99,35 L101,36 L102,34 L106,34 L106,36 L108,36 L108,39 L114,38 L128,38 L130,37 L150,35 L151,32 L158,32 L158,30 L164,30 L164,33 L162,33 L162,35 L152,39 L146,39 L146,41 L130,41 L115,42 L134,44 L134,46 L113,47 L110,52 L106,51 L101,49 L98,45 L96,45 L97,48 L99,50 L94,51 L94,49 L88,48 L88,46 L76,48 L73,45 L67,45 L64,45 L51,44 L51,42 L53,42 L54,39 L54,41 L61,43 L63,39 L64,38 L62,37 L60,33 L57,31 L57,28 L68,28 L68,30 L78,30 L78,24 L71,25 L68,24 L68,26 L63,26 L63,24 L53,24 L55,22 L58,22 L58,19 L56,19 L56,17 L49,19 L49,17 L44,19 L44,16 L30,17 L30,20 L24,20 L22,19 L22,17 L20,18 L11,18 L8,18 L8,16 L3,18 L-2,16 L-9,18 L-13,21 L-17,23 L-22,25 L-20,20 L-27,21 L-30,25 L-35,28 L-29,29 L-30,34 L-37,37 L-44,42 L-46,45 L-50,45 L-49,47 L-44,46 L-45,51 L-48,51 L-49,58 L-45,57 L-46,61 L-48,61 L-48,64 L-45,63 L-46,67 L-47,68 L-47,74 L-46,68 L-44,68 L-43,76 L-45,76 L-45,86 L-46,87 L-46,98 L-46,101 L-49,113 L-49,116 L-46,116 L-45,122 L-43,122 L-43,129 L-42,128 L-40,128 L-39,130 L-39,136 L-33,137 L-32,140 L-30,141 L-27,148 L-27,154 L-24,153 L-22,158 L-22,163 L-20,163 L-19,156 L-18,154 L-16,154 L-17,159 L-16,160 L-16,165 L-12,164 L-9,167 L-5,169 L-6,171 L-2,172 L2,174 L2,178 L5,180 L5,184 L3,184 L3,193 L2,197 L6,196 L6,200 L14,202 L14,206 L20,207 L20,209 L22,209 L22,204 L26,205 L27,210 L30,207 L30,204 L42,204 L42,207 L45,206 L46,204 L58,204 L58,209 L62,209 L63,203 L65,205 L66,208 L76,208 L79,209 L79,211 L86,210 L96,210 L96,212 L104,211 L106,210 L106,212 L109,212 L108,208 L115,210 L118,208 L120,209 L121,214 L117,217 L110,216 L110,219 L104,219 L104,222 L106,222 L106,224 L111,224 L110,229 L117,228 L124,228 L126,230 L130,232 L126,232 L126,237 L135,237 L139,238 L142,239 L141,241 L145,240 L148,241 L148,243 L150,243 L150,241 L158,242 L158,244 L198,244 L200,246 L198,247 L183,248 L180,249 L178,248 L154,247 L154,249 L147,250 L146,251 L136,251 L136,249 L132,249 L132,251 L138,253 L143,254 L144,256 L149,257 L150,254 L177,254 L180,252 L190,252 L191,249 L206,249 L207,245 L210,244 L237,244 L238,242 L241,243 L245,244 L245,242 L250,242 L251,245 L250,247 L254,245 L263,245 L262,247 L255,248 L250,250 L248,253 L242,253 L240,257 L238,257 L238,259 L230,259 L230,257 L224,259 L212,259 L210,257 L200,258 L186,258 L180,257 L175,260 L157,261 L146,260 L140,258 L132,258 L125,254 L121,253 L121,251 L116,251 L106,247 L106,245 L100,245 L91,242 L90,238 L85,238 L83,235 L73,232 L72,230 L68,229 L68,226 L66,226 L66,224 L62,223 L62,219 L62,217 L54,216 L33,216 L25,215 L25,213 L12,211 L12,209 L7,209 L-2,206 L-2,202 L-7,202 L-7,200 L-9,200 L-9,202 L-12,201 L-12,193 L-14,192 L-15,189 L-18,189 L-20,182 L-28,183 L-29,186 L-30,184 L-34,183 L-34,181 L-43,178 L-43,172 L-47,172 L-47,164 L-49,164 L-51,157 L-56,156 L-55,152 L-58,152 L-58,147 L-62,146 L-66,143 L-65,140 L-67,140 L-67,136 L-73,136 L-73,130 L-77,131 L-78,125 L-78,116 L-80,116 L-81,114 L-81,108 L-85,106 L-86,79 L-87,78 L-87,56 L-85,47 L-82,46 L-82,41 L-78,40 L-76,34 L-72,33 L-71,29 L-66,27 L-66,25 L-62,25 L-61,19 L-63,19 L-63,17 L-60,17 L-60,19 L-51,16 L-53,15 L-53,13 L-43,13 L-43,11 L-45,11 L-45,9 L-42,8 L-41,5 L-39,5 L-39,8 L-35,7 L-35,5 L-37,5 L-37,3 L-34,3 L-34,5 L-32,4 L-16,4 L-8,1 Z " fill="#9C7760" transform="translate(370,384)"/>
<path d="M0,0 L16,1 L24,2 L24,4 L35,4 L42,5 L44,7 L50,8 L50,10 L60,10 L66,13 L66,15 L69,14 L79,14 L78,18 L76,20 L76,24 L84,24 L85,28 L87,29 L88,27 L92,27 L92,29 L94,29 L94,32 L100,31 L114,31 L116,30 L136,28 L137,25 L144,25 L144,23 L150,23 L150,26 L148,26 L148,28 L138,32 L132,32 L132,34 L116,34 L101,35 L120,37 L120,39 L99,40 L96,45 L92,44 L87,42 L84,38 L82,38 L83,41 L85,43 L80,44 L80,42 L74,41 L74,39 L62,41 L59,38 L53,38 L50,38 L37,37 L37,35 L39,35 L40,32 L40,34 L47,36 L49,32 L50,31 L48,30 L46,26 L43,24 L43,21 L54,21 L54,23 L64,23 L64,17 L57,18 L54,17 L54,19 L49,19 L49,17 L39,17 L41,15 L44,15 L44,12 L42,12 L42,10 L35,12 L35,10 L30,12 L30,9 L16,10 L16,13 L10,13 L8,12 L8,10 L6,11 L-3,11 L-6,11 L-6,9 L-11,11 L-16,9 L-23,11 L-27,14 L-31,16 L-36,18 L-34,13 L-41,14 L-44,18 L-49,21 L-43,22 L-44,27 L-51,30 L-58,35 L-60,38 L-64,38 L-63,40 L-58,39 L-59,44 L-62,44 L-63,51 L-59,50 L-60,54 L-62,54 L-62,57 L-59,56 L-60,60 L-61,61 L-61,67 L-60,61 L-58,61 L-57,69 L-59,69 L-59,79 L-60,80 L-60,91 L-60,94 L-63,106 L-63,109 L-60,109 L-59,115 L-57,115 L-57,122 L-56,121 L-54,121 L-53,123 L-53,129 L-47,130 L-46,133 L-44,134 L-41,141 L-41,147 L-38,146 L-36,151 L-36,156 L-34,156 L-33,149 L-32,147 L-30,147 L-31,152 L-30,153 L-30,158 L-26,157 L-23,160 L-19,162 L-20,164 L-16,165 L-12,167 L-12,171 L-9,173 L-9,177 L-18,174 L-24,173 L-23,176 L-26,176 L-27,174 L-33,172 L-35,171 L-35,169 L-37,169 L-37,167 L-44,165 L-44,161 L-48,162 L-48,157 L-51,157 L-52,154 L-56,152 L-59,142 L-61,135 L-65,133 L-65,129 L-69,129 L-69,125 L-72,125 L-72,121 L-74,121 L-75,117 L-80,116 L-81,107 L-82,118 L-84,118 L-85,120 L-87,119 L-88,94 L-85,89 L-87,89 L-87,86 L-89,86 L-90,80 L-91,86 L-93,86 L-93,74 L-92,73 L-91,49 L-89,43 L-84,36 L-77,33 L-76,31 L-74,31 L-74,28 L-65,27 L-63,23 L-60,23 L-60,17 L-58,17 L-58,15 L-56,15 L-56,13 L-49,10 L-44,8 L-36,8 L-36,6 L-30,5 L-30,3 L-14,1 Z " fill="#AC7C73" transform="translate(384,391)"/>
<path d="M0,0 L12,1 L13,3 L21,4 L20,11 L22,11 L22,13 L27,13 L26,16 L32,17 L50,21 L59,24 L70,27 L70,29 L74,31 L79,34 L78,42 L78,50 L81,51 L82,55 L84,56 L84,59 L86,59 L86,61 L90,61 L90,63 L96,61 L96,65 L98,65 L98,68 L104,68 L105,72 L109,84 L113,89 L114,95 L117,95 L118,101 L120,102 L120,105 L123,106 L124,117 L125,122 L124,126 L122,126 L122,132 L120,132 L121,138 L116,141 L114,143 L112,151 L109,151 L109,155 L107,155 L105,160 L103,160 L101,164 L97,167 L94,173 L89,177 L81,181 L78,184 L71,184 L67,187 L60,189 L60,187 L54,189 L45,189 L40,191 L42,185 L43,182 L47,181 L42,180 L43,177 L40,177 L40,171 L45,172 L48,173 L47,170 L50,169 L48,168 L49,163 L56,163 L58,164 L73,164 L76,163 L76,161 L81,158 L83,158 L84,156 L90,154 L92,152 L94,152 L95,150 L97,151 L96,153 L99,154 L101,150 L103,152 L104,143 L102,144 L104,138 L105,127 L106,122 L106,110 L107,104 L103,106 L100,109 L101,101 L100,98 L96,100 L92,98 L92,94 L88,94 L88,90 L84,90 L83,87 L85,82 L90,78 L92,78 L91,73 L92,68 L88,70 L85,73 L84,67 L80,67 L80,62 L78,62 L76,64 L75,60 L68,61 L68,59 L63,60 L64,57 L68,57 L68,42 L72,42 L70,37 L67,33 L67,31 L62,30 L58,30 L53,31 L47,31 L46,26 L42,29 L37,29 L37,25 L26,25 L26,27 L18,27 L17,25 L14,25 L13,27 L13,25 L6,27 L6,25 L0,25 L-4,27 L-9,26 L-12,26 L-15,28 L-20,26 L-20,28 L-25,30 L-29,28 L-48,29 L-48,27 L-58,28 L-65,29 L-68,31 L-74,33 L-77,34 L-79,32 L-84,28 L-88,29 L-92,28 L-94,30 L-99,30 L-102,31 L-102,29 L-108,34 L-108,29 L-112,30 L-117,32 L-130,32 L-129,30 L-119,29 L-118,26 L-116,25 L-104,24 L-102,23 L-94,23 L-92,21 L-88,17 L-78,17 L-71,16 L-72,20 L-70,21 L-70,19 L-68,19 L-68,21 L-63,20 L-64,16 L-62,16 L-63,14 L-66,16 L-67,13 L-64,11 L-64,7 L-60,6 L-8,6 L-8,1 Z " fill="#A27B69" transform="translate(624,402)"/>
<path d="M0,0 L4,1 L1,1 L1,3 L3,3 L3,5 L-2,6 L-7,5 L-7,7 L-2,7 L-5,9 L-14,11 L-14,9 L-17,9 L-17,11 L-15,11 L-16,17 L-20,17 L-20,19 L-25,22 L-26,25 L-28,25 L-29,27 L-32,33 L-36,33 L-36,38 L-38,39 L-40,48 L-40,70 L-39,71 L-38,98 L-35,100 L-34,108 L-32,108 L-31,117 L-31,123 L-27,122 L-27,128 L-21,128 L-21,132 L-19,132 L-19,135 L-12,139 L-12,144 L-9,144 L-10,148 L-5,148 L-3,154 L-3,156 L-1,156 L-1,164 L3,164 L4,170 L12,173 L12,175 L17,177 L20,174 L26,174 L29,180 L32,181 L32,184 L35,185 L35,193 L37,194 L37,192 L39,192 L39,194 L44,194 L44,198 L52,199 L58,201 L58,203 L67,203 L71,205 L71,207 L100,207 L108,209 L111,213 L108,213 L108,215 L112,216 L112,218 L114,218 L114,221 L119,222 L119,224 L126,225 L131,226 L131,229 L136,230 L138,234 L152,237 L152,239 L158,240 L167,243 L167,245 L173,246 L178,249 L188,249 L192,251 L208,253 L208,255 L210,255 L210,257 L216,257 L216,259 L220,259 L220,262 L235,261 L240,262 L241,261 L252,260 L264,260 L268,261 L269,258 L280,258 L280,256 L282,256 L283,253 L293,255 L293,253 L290,252 L297,253 L297,251 L295,250 L297,250 L298,248 L298,251 L302,252 L298,252 L298,254 L294,254 L294,256 L290,256 L290,258 L286,258 L286,260 L282,260 L282,262 L278,262 L278,264 L274,264 L274,266 L268,266 L268,268 L226,268 L226,270 L216,270 L216,268 L214,268 L214,270 L210,270 L210,268 L200,268 L200,266 L190,266 L190,264 L182,264 L182,262 L176,262 L174,258 L169,257 L168,254 L164,254 L164,252 L160,252 L160,250 L156,250 L156,248 L152,248 L152,246 L148,246 L148,244 L142,244 L142,242 L138,242 L138,240 L134,240 L134,238 L126,238 L126,236 L110,236 L110,234 L104,234 L104,232 L99,231 L98,228 L92,228 L90,224 L80,224 L80,222 L74,222 L74,220 L68,220 L68,218 L64,218 L64,216 L56,216 L56,214 L50,214 L50,212 L40,212 L38,208 L34,208 L34,206 L30,206 L30,204 L18,204 L18,202 L14,202 L7,194 L2,190 L2,178 L0,178 L-2,173 L-10,165 L-12,164 L-12,160 L-16,160 L-16,158 L-18,158 L-18,152 L-22,152 L-22,150 L-24,150 L-24,144 L-28,144 L-30,139 L-32,138 L-34,133 L-36,132 L-36,124 L-38,124 L-38,114 L-40,114 L-40,106 L-42,106 L-42,102 L-44,102 L-44,90 L-46,90 L-46,86 L-48,86 L-48,42 L-46,42 L-46,38 L-44,38 L-43,33 L-40,32 L-40,28 L-38,28 L-38,26 L-36,26 L-35,21 L-32,20 L-32,16 L-28,16 L-28,14 L-26,14 L-26,12 L-20,12 L-20,10 L-18,10 L-18,8 L-14,8 L-14,6 L-8,6 L-8,4 L-2,4 L-2,2 L0,2 Z " fill="#8C695C" transform="translate(324,392)"/>
<path d="M0,0 L12,0 L12,2 L22,2 L22,4 L26,4 L28,7 L32,8 L32,10 L36,10 L36,12 L40,12 L40,14 L46,14 L48,17 L54,18 L54,20 L64,20 L64,22 L68,22 L68,24 L80,24 L80,26 L90,26 L90,28 L132,28 L132,26 L152,26 L152,24 L194,24 L194,22 L206,22 L206,24 L214,24 L214,22 L230,22 L230,23 L215,23 L215,25 L229,25 L229,26 L214,27 L214,25 L206,25 L207,28 L204,27 L196,27 L194,28 L170,29 L170,32 L162,32 L162,34 L157,35 L152,40 L147,40 L144,41 L144,39 L140,40 L138,44 L128,47 L119,49 L112,49 L111,48 L101,48 L98,47 L98,45 L90,43 L90,41 L82,40 L81,42 L80,41 L73,40 L73,37 L60,38 L57,35 L46,31 L46,29 L38,29 L37,26 L29,24 L19,23 L19,21 L12,20 L9,17 L-20,17 L-30,19 L-38,21 L-54,21 L-54,19 L-57,19 L-57,21 L-55,21 L-55,23 L-59,24 L-59,21 L-61,21 L-62,24 L-62,20 L-58,20 L-58,18 L-54,18 L-54,16 L-42,16 L-42,14 L-32,14 L-32,12 L-26,12 L-26,10 L-24,10 L-24,8 L-18,8 L-18,6 L-12,6 L-12,4 L-10,4 L-10,2 L0,2 Z " fill="#976856" transform="translate(390,368)"/>
<path d="M0,0 L7,1 L7,3 L17,3 L19,6 L16,6 L16,8 L24,7 L40,8 L43,11 L56,12 L57,16 L62,15 L69,16 L69,18 L79,19 L83,21 L83,24 L93,24 L95,25 L95,27 L109,27 L116,29 L116,32 L121,33 L123,37 L137,40 L137,42 L143,43 L152,46 L152,48 L158,49 L163,52 L173,52 L177,54 L193,56 L193,58 L195,58 L195,60 L201,60 L201,62 L205,62 L205,65 L220,64 L225,65 L226,64 L237,63 L249,63 L253,64 L254,61 L265,61 L265,59 L267,59 L268,56 L278,58 L278,56 L275,55 L282,56 L282,54 L280,53 L282,53 L283,51 L283,54 L287,55 L283,55 L283,57 L279,57 L279,59 L275,59 L275,61 L271,61 L271,63 L267,63 L267,65 L263,65 L263,67 L259,67 L259,69 L253,69 L253,71 L211,71 L211,73 L201,73 L201,71 L199,71 L199,73 L195,73 L195,71 L185,71 L185,69 L175,69 L175,67 L167,67 L167,65 L161,65 L159,61 L154,60 L153,57 L149,57 L149,55 L145,55 L145,53 L141,53 L141,51 L137,51 L137,49 L133,49 L133,47 L127,47 L127,45 L123,45 L123,43 L119,43 L119,41 L111,41 L111,39 L95,39 L95,37 L89,37 L89,35 L84,34 L83,31 L77,31 L75,27 L65,27 L65,25 L59,25 L59,23 L53,23 L53,21 L49,21 L49,19 L41,19 L41,17 L35,17 L35,15 L25,15 L23,11 L19,11 L19,9 L15,9 L15,7 L3,7 L3,5 L-1,4 L3,4 L3,2 L0,2 Z " fill="#8D6851" transform="translate(339,589)"/>
<path d="M0,0 L16,1 L24,2 L24,4 L35,4 L42,5 L44,7 L50,8 L50,10 L60,10 L66,13 L66,15 L69,14 L79,14 L78,18 L76,20 L76,24 L84,24 L85,28 L87,29 L88,27 L92,27 L92,29 L94,29 L94,32 L100,31 L114,31 L116,30 L136,28 L137,25 L144,25 L144,23 L150,23 L150,26 L148,26 L148,28 L138,32 L132,32 L132,34 L116,34 L101,35 L120,37 L120,39 L99,40 L96,45 L92,44 L87,42 L84,38 L82,38 L83,41 L85,43 L80,44 L80,42 L74,41 L74,39 L62,41 L59,38 L53,38 L50,38 L37,37 L37,35 L39,35 L40,32 L40,34 L47,36 L49,32 L50,31 L48,30 L46,26 L43,24 L43,21 L54,21 L54,23 L64,23 L64,17 L57,18 L54,17 L54,19 L49,19 L49,17 L39,17 L41,15 L44,15 L44,12 L42,12 L42,10 L35,12 L35,10 L30,12 L30,9 L16,10 L16,13 L10,13 L8,12 L8,10 L6,11 L-3,11 L-6,11 L-6,9 L-11,11 L-16,9 L-23,11 L-27,14 L-31,16 L-36,18 L-34,13 L-41,14 L-44,18 L-49,21 L-47,21 L-47,23 L-56,25 L-56,28 L-64,30 L-65,33 L-72,35 L-74,38 L-76,38 L-77,36 L-85,38 L-81,34 L-77,33 L-76,31 L-74,31 L-74,28 L-65,27 L-63,23 L-60,23 L-60,17 L-58,17 L-58,15 L-56,15 L-56,13 L-49,10 L-44,8 L-36,8 L-36,6 L-30,5 L-30,3 L-14,1 Z " fill="#A47463" transform="translate(384,391)"/>
<path d="M0,0 L29,0 L34,4 L39,5 L39,7 L49,7 L57,9 L58,13 L66,13 L66,15 L73,16 L73,17 L64,17 L64,15 L58,15 L56,13 L38,11 L38,9 L14,8 L-8,10 L-16,10 L-16,12 L-22,13 L-22,15 L-33,17 L-38,20 L-42,20 L-42,22 L-44,22 L-44,24 L-46,24 L-46,30 L-50,32 L-51,34 L-60,35 L-60,38 L-62,38 L-63,41 L-70,44 L-76,54 L-76,65 L-77,80 L-78,81 L-79,93 L-77,93 L-77,87 L-75,86 L-75,93 L-73,93 L-73,96 L-71,96 L-73,102 L-73,126 L-71,126 L-71,130 L-68,130 L-67,134 L-60,140 L-60,144 L-54,146 L-51,151 L-49,152 L-49,154 L-47,154 L-45,165 L-45,172 L-47,172 L-47,164 L-49,164 L-51,157 L-56,156 L-55,152 L-58,152 L-58,147 L-62,146 L-66,143 L-65,140 L-67,140 L-67,136 L-73,136 L-73,130 L-77,131 L-78,125 L-78,116 L-80,116 L-81,114 L-81,108 L-85,106 L-86,79 L-87,78 L-87,56 L-85,47 L-82,46 L-82,41 L-78,40 L-76,34 L-72,33 L-71,29 L-66,27 L-66,25 L-62,25 L-61,19 L-63,19 L-63,17 L-60,17 L-60,19 L-51,16 L-53,15 L-53,13 L-43,13 L-43,11 L-45,11 L-45,9 L-42,8 L-41,5 L-39,5 L-39,8 L-35,7 L-35,5 L-37,5 L-37,3 L-34,3 L-34,5 L-32,4 L-16,4 L-8,1 Z " fill="#92665D" transform="translate(370,384)"/>
<path d="M0,0 L15,0 L15,2 L26,2 L27,4 L32,4 L32,6 L29,7 L38,10 L38,13 L44,12 L47,13 L48,20 L50,21 L50,24 L55,25 L55,29 L57,30 L48,29 L45,27 L45,25 L38,23 L39,16 L32,15 L31,12 L11,12 L11,17 L5,18 L-45,18 L-44,23 L-47,25 L-45,25 L-43,24 L-44,31 L-49,32 L-49,30 L-51,30 L-51,32 L-54,31 L-52,27 L-61,29 L-69,29 L-73,34 L-77,35 L-83,35 L-85,36 L-97,37 L-101,38 L-122,36 L-120,34 L-102,33 L-89,34 L-89,32 L-77,29 L-73,28 L-73,26 L-71,26 L-71,23 L-77,23 L-77,25 L-84,26 L-87,29 L-105,31 L-107,32 L-127,32 L-127,29 L-133,28 L-137,28 L-137,24 L-145,24 L-146,19 L-143,17 L-135,17 L-133,17 L-127,17 L-125,18 L-125,20 L-117,22 L-117,24 L-103,24 L-103,26 L-96,25 L-87,23 L-77,20 L-73,16 L-71,16 L-71,18 L-68,16 L-62,16 L-57,10 L-53,11 L-53,9 L-45,9 L-45,6 L-39,5 L-21,4 L-19,3 L-10,3 L-9,2 L-1,2 L-1,4 L1,3 Z " fill="#A17361" transform="translate(605,391)"/>
<path d="M0,0 L12,1 L13,3 L21,4 L20,11 L22,11 L22,13 L18,15 L15,11 L6,10 L3,8 L1,9 L2,14 L0,18 L7,20 L8,22 L12,23 L12,25 L6,27 L6,25 L0,25 L-4,27 L-9,26 L-12,26 L-15,28 L-20,26 L-20,28 L-25,30 L-29,28 L-48,29 L-48,27 L-58,28 L-65,29 L-68,31 L-74,33 L-77,34 L-79,32 L-84,28 L-88,29 L-92,28 L-94,30 L-99,30 L-102,31 L-102,29 L-108,34 L-108,29 L-112,30 L-117,32 L-130,32 L-129,30 L-119,29 L-118,26 L-116,25 L-104,24 L-102,23 L-94,23 L-92,21 L-88,17 L-78,17 L-71,16 L-72,20 L-70,21 L-70,19 L-68,19 L-68,21 L-63,20 L-64,16 L-62,16 L-63,14 L-66,16 L-67,13 L-64,11 L-64,7 L-60,6 L-8,6 L-8,1 Z " fill="#A27968" transform="translate(624,402)"/>
<path d="M0,0 L2,0 L2,6 L6,6 L6,8 L8,8 L10,4 L14,4 L14,8 L12,8 L12,10 L2,10 L2,12 L0,12 L0,16 L-2,16 L-2,18 L-4,18 L-4,20 L-2,20 L0,26 L-6,26 L-6,30 L-8,30 L-8,28 L-10,28 L-10,36 L-12,36 L-12,38 L-14,38 L-14,40 L-16,40 L-16,42 L-71,42 L-70,38 L-74,38 L-74,44 L-81,46 L-80,42 L-86,42 L-86,40 L-82,40 L-82,38 L-78,38 L-78,36 L-72,36 L-72,34 L-62,34 L-62,32 L-60,32 L-60,30 L-54,30 L-54,28 L-52,28 L-52,26 L-66,26 L-66,30 L-72,30 L-73,24 L-71,19 L-66,18 L-66,23 L-58,22 L-56,20 L-52,20 L-50,16 L-46,16 L-46,14 L-52,14 L-50,10 L-42,10 L-42,8 L-32,8 L-32,6 L-20,6 L-20,4 L-18,4 L-18,7 L-14,4 L-10,4 L-10,6 L-4,6 L-2,2 L0,2 Z " fill="#190700" transform="translate(682,726)"/>
<path d="M0,0 L2,3 L2,12 L7,13 L8,17 L10,17 L10,21 L13,21 L13,25 L17,25 L19,30 L22,33 L25,40 L26,48 L31,50 L31,53 L34,53 L35,57 L38,57 L38,61 L45,63 L45,65 L47,65 L47,67 L56,70 L56,72 L58,71 L58,68 L66,70 L70,72 L71,82 L70,86 L74,85 L74,89 L82,91 L82,95 L88,96 L88,98 L90,98 L90,93 L94,94 L95,99 L98,96 L98,93 L110,93 L110,96 L113,95 L114,93 L126,93 L126,98 L130,98 L131,92 L133,94 L134,97 L144,97 L147,98 L147,100 L154,99 L164,99 L164,101 L172,100 L174,99 L174,101 L177,101 L176,97 L183,99 L186,97 L188,98 L189,103 L185,106 L178,105 L178,108 L172,108 L172,111 L174,111 L174,113 L179,113 L177,117 L175,117 L173,115 L171,117 L165,114 L166,108 L155,107 L138,107 L128,105 L101,105 L93,104 L93,102 L80,100 L80,98 L75,98 L66,95 L66,91 L61,91 L61,89 L59,89 L59,91 L56,90 L56,82 L54,81 L53,78 L50,78 L48,71 L40,72 L39,75 L38,73 L34,72 L34,70 L25,67 L25,61 L23,61 L21,49 L21,43 L19,43 L17,41 L14,37 L13,35 L8,33 L6,28 L3,26 L0,23 L0,19 L-3,19 L-2,14 L0,14 Z " fill="#9B7967" transform="translate(302,495)"/>
<path d="M0,0 L5,0 L5,2 L9,3 L9,8 L13,9 L15,16 L17,20 L21,21 L23,26 L23,21 L25,21 L25,24 L30,25 L32,29 L36,30 L38,36 L41,38 L40,45 L43,44 L44,48 L47,55 L47,57 L50,58 L50,60 L52,60 L54,63 L57,63 L58,67 L59,82 L60,83 L60,88 L58,88 L57,92 L57,98 L54,106 L51,106 L49,110 L46,115 L42,118 L40,118 L39,121 L32,127 L29,130 L28,133 L23,136 L21,136 L20,139 L7,147 L2,147 L1,150 L-9,155 L-11,155 L-11,157 L-22,158 L-29,161 L-39,162 L-41,163 L-40,159 L-37,159 L-37,157 L-41,157 L-41,154 L-31,150 L-23,150 L-22,149 L-17,149 L-17,151 L-7,146 L-6,145 L3,145 L4,142 L14,137 L18,132 L21,127 L28,121 L30,117 L32,117 L32,113 L35,113 L36,105 L41,100 L44,100 L43,94 L45,94 L45,88 L47,88 L47,81 L46,79 L45,68 L43,67 L43,64 L40,63 L40,57 L37,57 L33,48 L30,43 L28,34 L26,33 L26,31 L21,30 L21,27 L19,27 L18,24 L13,25 L13,23 L9,23 L9,21 L7,21 L7,18 L3,16 L3,13 L1,12 L0,4 Z " fill="#967163" transform="translate(701,440)"/>
<path d="M0,0 L3,0 L3,2 L9,3 L9,5 L12,6 L14,11 L14,15 L16,15 L18,27 L20,27 L21,37 L24,41 L24,45 L26,44 L26,53 L23,59 L21,59 L20,67 L17,73 L17,80 L14,81 L12,86 L7,90 L-2,95 L-9,100 L-18,105 L-19,106 L-26,107 L-27,108 L-44,108 L-49,107 L-48,104 L-51,104 L-51,98 L-46,99 L-43,100 L-44,97 L-41,96 L-43,95 L-42,90 L-35,90 L-33,91 L-18,91 L-15,90 L-15,88 L-10,85 L-8,85 L-7,83 L-1,81 L1,79 L3,79 L4,77 L6,78 L5,80 L8,81 L10,77 L12,79 L13,70 L11,71 L13,65 L14,54 L15,49 L15,37 L16,31 L12,33 L9,36 L10,28 L9,25 L5,27 L1,25 L1,21 L-3,21 L-3,17 L-7,17 L-8,14 L-6,9 L-1,5 L1,5 Z " fill="#AD8471" transform="translate(715,475)"/>
<path d="M0,0 L2,0 L2,2 L6,2 L6,4 L4,4 L4,12 L-8,12 L-8,14 L-10,14 L-10,32 L-14,32 L-14,36 L-22,36 L-22,40 L-25,42 L-26,46 L-29,48 L-30,52 L-32,52 L-32,56 L-34,56 L-34,58 L-36,58 L-36,52 L-38,52 L-38,60 L-44,61 L-44,54 L-46,54 L-46,60 L-60,60 L-59,57 L-56,54 L-54,54 L-54,51 L-52,51 L-52,48 L-55,48 L-56,42 L-54,42 L-54,44 L-52,44 L-52,42 L-50,42 L-50,40 L-48,40 L-48,36 L-44,36 L-44,32 L-42,32 L-42,36 L-40,36 L-40,32 L-38,32 L-36,38 L-32,38 L-32,36 L-30,36 L-30,38 L-28,38 L-29,31 L-28,28 L-44,28 L-44,26 L-40,26 L-40,22 L-38,22 L-38,24 L-36,24 L-36,18 L-34,18 L-34,24 L-32,24 L-32,18 L-28,14 L-30,14 L-30,12 L-40,12 L-40,10 L-30,10 L-28,6 L-26,6 L-26,10 L-24,10 L-24,8 L-22,8 L-22,6 L-20,6 L-20,4 L-12,4 L-12,2 L-10,2 L-10,4 L-7,2 L0,2 Z " fill="#1A0100" transform="translate(794,628)"/>
<path d="M0,0 L4,1 L1,1 L1,3 L3,3 L3,5 L-2,6 L-7,5 L-7,7 L-2,7 L-5,9 L-14,11 L-14,9 L-17,9 L-17,11 L-15,11 L-16,17 L-20,17 L-20,19 L-25,22 L-26,25 L-28,25 L-29,27 L-32,33 L-36,33 L-36,38 L-38,39 L-40,48 L-40,70 L-39,71 L-38,98 L-35,100 L-34,108 L-32,108 L-31,117 L-31,123 L-27,122 L-27,128 L-24,129 L-23,134 L-22,137 L-18,137 L-18,140 L-16,140 L-14,146 L-12,148 L-12,152 L-9,152 L-7,163 L-9,163 L-9,160 L-11,160 L-10,164 L-12,164 L-12,160 L-16,160 L-16,158 L-18,158 L-18,152 L-22,152 L-22,150 L-24,150 L-24,144 L-28,144 L-30,139 L-32,138 L-34,133 L-36,132 L-36,124 L-38,124 L-38,114 L-40,114 L-40,106 L-42,106 L-42,102 L-44,102 L-44,90 L-46,90 L-46,86 L-48,86 L-48,42 L-46,42 L-46,38 L-44,38 L-43,33 L-40,32 L-40,28 L-38,28 L-38,26 L-36,26 L-35,21 L-32,20 L-32,16 L-28,16 L-28,14 L-26,14 L-26,12 L-20,12 L-20,10 L-18,10 L-18,8 L-14,8 L-14,6 L-8,6 L-8,4 L-2,4 L-2,2 L0,2 Z " fill="#8D5F56" transform="translate(324,392)"/>
<path d="M0,0 L8,1 L13,4 L18,7 L18,9 L33,11 L41,14 L45,18 L61,22 L63,24 L68,25 L69,22 L96,22 L99,20 L109,20 L110,17 L125,17 L126,13 L129,12 L156,12 L157,10 L160,11 L164,12 L164,10 L169,10 L170,13 L169,15 L173,13 L182,13 L181,15 L174,16 L169,18 L167,21 L161,21 L159,25 L157,25 L157,27 L149,27 L149,25 L143,27 L131,27 L129,25 L119,26 L105,26 L99,25 L94,28 L76,29 L65,28 L59,26 L51,26 L44,22 L40,21 L40,19 L35,19 L25,15 L25,13 L19,13 L10,10 L9,6 L4,6 L2,3 L-1,1 Z " fill="#9B775F" transform="translate(451,616)"/>
<path d="M0,0 L10,2 L10,4 L20,4 L28,6 L29,10 L37,10 L37,12 L44,13 L44,14 L35,14 L35,12 L29,12 L27,10 L9,8 L9,6 L-15,5 L-37,7 L-45,7 L-45,9 L-51,10 L-51,12 L-62,14 L-67,17 L-71,17 L-71,19 L-73,19 L-73,21 L-75,21 L-75,27 L-79,29 L-80,31 L-89,32 L-89,35 L-91,35 L-92,38 L-99,41 L-105,51 L-105,62 L-106,77 L-107,78 L-108,90 L-106,90 L-106,84 L-104,83 L-104,90 L-102,90 L-102,93 L-100,93 L-102,99 L-102,119 L-104,118 L-104,109 L-108,108 L-111,101 L-112,94 L-112,53 L-111,49 L-109,48 L-105,39 L-100,34 L-95,31 L-91,31 L-91,29 L-89,29 L-89,27 L-84,25 L-79,21 L-77,17 L-75,17 L-75,15 L-67,12 L-67,10 L-55,9 L-55,7 L-47,5 L-31,4 L-25,2 L-4,1 Z " fill="#9A6D64" transform="translate(399,387)"/>
<path d="M0,0 L10,0 L10,2 L14,2 L14,4 L26,4 L26,6 L36,6 L36,8 L78,8 L78,6 L98,6 L98,4 L140,4 L140,2 L152,2 L152,4 L160,4 L160,2 L176,2 L176,3 L161,3 L161,5 L175,5 L175,6 L160,7 L160,5 L152,5 L153,8 L150,7 L142,7 L140,8 L116,9 L116,12 L98,13 L86,15 L69,17 L66,18 L54,18 L54,16 L34,15 L31,14 L31,12 L24,12 L19,10 L14,9 L14,7 L25,7 L25,5 L10,6 L0,4 L0,3 L9,3 L9,1 L0,1 Z " fill="#8E6555" transform="translate(444,388)"/>
<path d="M0,0 L16,0 L15,2 L8,3 L7,4 L0,5 L-5,9 L-2,10 L-2,12 L-7,12 L-7,14 L-12,13 L-12,16 L-16,16 L-16,18 L-25,18 L-26,17 L-27,19 L-29,19 L-29,21 L-35,22 L-40,22 L-41,24 L-61,24 L-68,25 L-73,26 L-76,25 L-89,26 L-90,24 L-89,22 L-93,22 L-93,20 L-99,20 L-99,18 L-101,18 L-101,16 L-99,15 L-88,14 L-83,11 L-77,12 L-63,12 L-53,11 L-51,13 L-37,13 L-33,12 L-33,14 L-25,14 L-25,12 L-21,8 L-15,7 L-13,4 L-8,2 L-1,1 Z " fill="#8F6A51" transform="translate(633,629)"/>
<path d="M0,0 L16,1 L24,2 L24,4 L31,4 L36,6 L36,8 L42,9 L38,11 L35,12 L35,10 L30,12 L30,9 L16,10 L16,13 L10,13 L8,12 L8,10 L6,11 L-3,11 L-6,11 L-6,9 L-11,11 L-16,9 L-23,11 L-27,14 L-31,16 L-36,18 L-34,13 L-41,14 L-44,18 L-49,21 L-47,21 L-47,23 L-56,25 L-56,28 L-64,30 L-65,33 L-72,35 L-74,38 L-76,38 L-77,36 L-85,38 L-81,34 L-77,33 L-76,31 L-74,31 L-74,28 L-65,27 L-63,23 L-60,23 L-60,17 L-58,17 L-58,15 L-56,15 L-56,13 L-49,10 L-44,8 L-36,8 L-36,6 L-30,5 L-30,3 L-14,1 Z " fill="#A5786E" transform="translate(384,391)"/>
<path d="M0,0 L1,4 L-1,4 L-1,6 L-9,13 L-15,20 L-17,20 L-17,24 L-19,24 L-19,26 L-21,26 L-21,30 L-23,30 L-23,32 L-28,36 L-29,38 L-33,38 L-33,40 L-37,40 L-37,42 L-43,42 L-43,44 L-47,44 L-47,46 L-55,46 L-55,48 L-57,48 L-57,50 L-61,50 L-61,52 L-63,52 L-63,54 L-65,54 L-65,56 L-69,56 L-69,60 L-71,60 L-71,62 L-73,62 L-73,66 L-75,66 L-75,68 L-79,72 L-81,72 L-81,76 L-85,76 L-85,78 L-89,82 L-91,82 L-91,84 L-95,84 L-95,86 L-105,86 L-105,88 L-117,88 L-117,86 L-119,86 L-119,88 L-125,88 L-125,90 L-131,90 L-131,89 L-126,89 L-126,87 L-131,87 L-126,83 L-124,81 L-117,80 L-116,79 L-95,79 L-93,74 L-91,74 L-91,66 L-87,66 L-85,64 L-80,64 L-79,60 L-75,59 L-74,54 L-70,49 L-61,48 L-60,46 L-56,47 L-57,44 L-48,45 L-48,43 L-52,42 L-49,39 L-44,39 L-44,36 L-32,31 L-31,28 L-27,26 L-23,16 L-18,14 L-16,15 L-16,12 L-13,12 L-13,9 L-10,9 L-9,5 L-5,3 L-4,1 L-2,1 L-2,3 L0,3 Z " fill="#8B6550" transform="translate(757,552)"/>
<path d="M0,0 L2,0 L2,5 L6,6 L6,9 L8,9 L8,13 L13,15 L14,16 L14,24 L15,35 L14,42 L8,44 L6,48 L5,56 L-3,60 L-4,62 L-6,62 L-8,66 L-17,76 L-20,81 L-33,89 L-38,89 L-39,92 L-49,97 L-51,97 L-51,99 L-62,100 L-69,103 L-79,104 L-81,105 L-80,101 L-77,101 L-77,99 L-81,99 L-81,96 L-71,92 L-63,92 L-62,91 L-57,91 L-57,93 L-47,88 L-46,87 L-37,87 L-36,84 L-26,79 L-22,74 L-19,69 L-12,63 L-10,59 L-8,59 L-8,55 L-5,55 L-4,47 L1,42 L4,42 L3,36 L5,36 L5,30 L7,30 L7,23 L6,21 L5,10 L3,9 L3,6 L0,5 Z " fill="#9B7360" transform="translate(741,498)"/>
<path d="M0,0 L2,0 L2,4 L4,4 L4,11 L7,11 L7,19 L9,19 L9,35 L7,35 L7,43 L5,43 L5,51 L3,51 L3,55 L-2,55 L-2,58 L-4,58 L-4,56 L-6,56 L-8,60 L-11,61 L-12,64 L-15,64 L-15,67 L-18,67 L-18,70 L-25,71 L-28,81 L-30,83 L-33,83 L-34,87 L-43,91 L-46,91 L-46,94 L-53,95 L-53,97 L-50,98 L-50,100 L-58,100 L-58,102 L-62,101 L-62,103 L-60,104 L-69,104 L-72,105 L-74,107 L-76,103 L-79,104 L-83,101 L-80,100 L-69,100 L-69,98 L-57,92 L-56,90 L-47,87 L-38,81 L-33,76 L-30,76 L-29,72 L-27,72 L-26,69 L-19,63 L-15,59 L-11,56 L-7,49 L-4,49 L-2,41 L-2,34 L0,31 L2,31 L0,25 L-1,7 L-4,7 L-6,6 L-6,3 L0,4 Z " fill="#8D695E" transform="translate(759,497)"/>
<path d="M0,0 L8,0 L8,4 L10,4 L10,16 L8,16 L8,32 L10,32 L10,24 L14,24 L16,30 L16,34 L18,34 L18,28 L20,28 L20,34 L24,34 L24,40 L22,40 L22,44 L24,44 L24,48 L26,48 L26,52 L24,52 L24,56 L26,56 L26,62 L28,62 L28,68 L26,68 L26,64 L24,64 L22,59 L16,54 L16,52 L10,52 L10,48 L6,48 L6,40 L0,40 L-2,36 L-6,36 L-6,34 L-2,34 L-2,28 L-4,28 L-3,25 L-2,10 L0,10 Z " fill="#1A0500" transform="translate(194,496)"/>
<path d="M0,0 L15,0 L15,2 L26,2 L27,4 L32,4 L32,6 L29,7 L38,10 L38,13 L44,12 L47,13 L48,20 L50,21 L50,24 L55,25 L55,29 L57,30 L48,29 L45,27 L45,25 L38,23 L39,16 L32,15 L31,12 L23,12 L20,10 L7,9 L-1,12 L-9,11 L-37,11 L-41,13 L-41,15 L-45,16 L-52,16 L-55,18 L-53,9 L-45,9 L-45,6 L-39,5 L-21,4 L-19,3 L-10,3 L-9,2 L-1,2 L-1,4 L1,3 Z " fill="#926D5E" transform="translate(605,391)"/>
<path d="M0,0 L2,1 L-2,5 L-4,5 L-3,8 L-8,10 L-17,11 L-22,13 L-29,15 L-32,24 L-30,25 L-30,29 L-28,29 L-28,49 L-28,52 L-24,53 L-26,56 L-26,60 L-24,60 L-25,63 L-29,65 L-30,69 L-30,79 L-29,81 L-28,91 L-26,93 L-27,97 L-25,97 L-24,95 L-22,96 L-18,96 L-17,100 L-17,108 L-10,108 L-8,112 L-6,113 L-6,115 L-4,116 L-5,119 L-6,117 L-8,118 L-8,120 L-10,120 L-10,116 L-14,117 L-15,112 L-18,111 L-18,109 L-21,108 L-21,105 L-27,104 L-28,96 L-30,96 L-30,98 L-32,97 L-31,90 L-33,90 L-34,84 L-37,84 L-38,81 L-35,69 L-35,66 L-35,55 L-34,54 L-33,44 L-31,44 L-32,36 L-34,36 L-34,42 L-36,43 L-36,36 L-34,32 L-36,32 L-36,29 L-34,28 L-33,25 L-38,27 L-37,22 L-36,19 L-33,18 L-32,14 L-38,16 L-38,13 L-34,12 L-30,7 L-25,4 L-22,3 L-22,6 L-13,6 L-13,8 L-10,8 L-9,6 L-6,6 L-6,2 Z M-31,52 Z M-27,60 Z M-28,46 Z " fill="#B98980" transform="translate(358,416)"/>
<path d="M0,0 L1,3 L5,4 L1,4 L1,6 L-3,6 L-3,8 L-7,8 L-7,10 L-11,10 L-11,12 L-15,12 L-15,14 L-19,14 L-19,16 L-23,16 L-23,18 L-29,18 L-29,20 L-71,20 L-71,22 L-81,22 L-81,20 L-83,20 L-83,22 L-87,22 L-87,20 L-97,20 L-97,18 L-107,18 L-107,16 L-115,16 L-115,14 L-121,14 L-123,10 L-128,9 L-129,7 L-124,6 L-126,7 L-126,9 L-120,6 L-111,8 L-110,9 L-103,10 L-103,12 L-101,12 L-101,14 L-93,14 L-93,16 L-83,16 L-83,14 L-73,14 L-62,13 L-57,14 L-56,13 L-45,12 L-33,12 L-29,13 L-28,10 L-17,10 L-17,8 L-15,8 L-14,5 L-4,7 L-4,5 L-7,4 L0,5 L0,3 L-2,2 L0,2 Z " fill="#8A644A" transform="translate(621,640)"/>
<path d="M0,0 L2,3 L2,12 L7,13 L8,17 L10,17 L10,21 L13,21 L13,25 L17,25 L19,30 L22,33 L25,40 L26,48 L31,50 L31,53 L34,53 L35,57 L38,57 L38,61 L45,63 L45,65 L47,65 L47,67 L55,69 L57,78 L58,80 L54,81 L53,78 L50,78 L48,71 L40,72 L39,75 L38,73 L34,72 L34,70 L25,67 L25,61 L23,61 L21,49 L21,43 L19,43 L17,41 L14,37 L13,35 L8,33 L6,28 L3,26 L0,23 L0,19 L-3,19 L-2,14 L0,14 Z " fill="#9F7269" transform="translate(302,495)"/>
<path d="M0,0 L3,1 L3,4 L6,5 L6,13 L8,14 L8,12 L10,12 L10,14 L15,14 L15,18 L23,19 L29,21 L29,23 L38,23 L42,25 L42,27 L71,27 L79,29 L82,33 L79,33 L79,35 L83,36 L83,38 L85,38 L85,41 L90,42 L90,44 L81,44 L81,42 L71,42 L69,41 L69,38 L65,37 L55,35 L48,33 L43,33 L42,29 L29,29 L26,27 L26,25 L11,25 L9,23 L7,23 L7,20 L5,20 L5,16 L-1,16 L-2,13 L-2,8 L-4,4 L-1,3 Z " fill="#92705E" transform="translate(353,572)"/>
<path d="M0,0 L12,0 L12,2 L22,2 L22,4 L26,4 L28,7 L32,8 L32,10 L36,10 L36,12 L40,12 L40,14 L46,14 L48,17 L54,18 L54,19 L45,20 L36,19 L36,17 L26,17 L26,12 L21,12 L18,11 L9,9 L-2,9 L-10,10 L-14,11 L-14,13 L-19,14 L-20,17 L-30,19 L-38,21 L-54,21 L-54,19 L-57,19 L-57,21 L-55,21 L-55,23 L-59,24 L-59,21 L-61,21 L-62,24 L-62,20 L-58,20 L-58,18 L-54,18 L-54,16 L-42,16 L-42,14 L-32,14 L-32,12 L-26,12 L-26,10 L-24,10 L-24,8 L-18,8 L-18,6 L-12,6 L-12,4 L-10,4 L-10,2 L0,2 Z " fill="#8A5D50" transform="translate(390,368)"/>
<path d="M0,0 L1,2 L13,3 L16,7 L17,6 L24,6 L23,9 L29,10 L47,14 L56,17 L67,20 L67,22 L71,24 L76,27 L75,30 L68,31 L64,26 L64,24 L59,23 L55,23 L50,24 L44,24 L43,19 L39,22 L34,22 L34,18 L23,18 L23,20 L15,20 L14,18 L11,18 L10,20 L9,16 L0,13 L-3,11 L-2,6 L-3,2 Z " fill="#A37768" transform="translate(627,409)"/>
<path d="M0,0 L13,0 L19,2 L29,3 L29,7 L33,7 L33,9 L35,10 L31,12 L26,11 L23,11 L20,13 L15,11 L15,13 L10,15 L6,13 L-13,14 L-13,12 L-23,13 L-30,14 L-33,16 L-39,18 L-42,19 L-44,17 L-47,13 L-41,10 L-29,7 L-17,7 L-16,5 L-10,3 L0,2 Z " fill="#AE7F6D" transform="translate(589,417)"/>
<path d="M0,0 L2,2 L3,5 L13,5 L16,6 L16,8 L23,7 L33,7 L33,9 L41,8 L43,7 L43,9 L46,9 L45,5 L52,7 L55,5 L57,6 L58,11 L54,14 L47,13 L47,16 L41,16 L41,19 L43,19 L43,21 L48,21 L46,25 L44,25 L42,23 L40,25 L34,22 L35,16 L19,14 L7,12 L7,10 L-4,10 L-4,8 L-26,9 L-35,8 L-33,4 L-33,1 L-21,1 L-21,4 L-18,3 L-17,1 L-5,1 L-5,6 L-1,6 Z " fill="#A87F68" transform="translate(433,587)"/>
<path d="M0,0 L6,0 L6,2 L11,0 L14,2 L12,2 L12,6 L10,6 L10,8 L8,8 L8,10 L10,10 L12,16 L6,16 L6,20 L4,20 L4,18 L2,18 L2,26 L0,26 L0,28 L-2,28 L-3,30 L-3,27 L-6,28 L-30,28 L-30,23 L-14,23 L-14,21 L-38,22 L-38,20 L-30,20 L-30,16 L-14,16 L-14,12 L-10,12 L-10,8 L-4,8 L-2,11 L-1,7 L1,7 L1,5 L-2,5 L-1,1 Z " fill="#170600" transform="translate(670,736)"/>
<path d="M0,0 L2,3 L2,6 L4,6 L4,13 L5,12 L7,12 L8,14 L8,20 L14,21 L15,24 L17,25 L20,32 L20,38 L23,37 L25,42 L25,47 L27,47 L28,40 L29,38 L31,38 L30,43 L31,44 L31,49 L35,48 L38,51 L42,53 L41,55 L45,56 L49,58 L49,62 L52,64 L52,68 L43,65 L41,63 L34,60 L34,55 L27,57 L27,55 L24,55 L24,52 L21,52 L21,47 L17,47 L16,41 L12,40 L8,34 L6,27 L4,26 L4,24 L2,24 L0,9 Z " fill="#A98171" transform="translate(323,500)"/>
<path d="M0,0 L2,0 L2,2 L8,1 L34,1 L33,4 L22,4 L21,6 L11,7 L4,10 L-12,12 L-22,15 L-28,16 L-32,17 L-36,16 L-38,18 L-43,18 L-46,19 L-46,17 L-52,22 L-52,17 L-56,18 L-61,20 L-74,20 L-73,18 L-63,17 L-62,14 L-60,13 L-48,12 L-46,11 L-38,11 L-36,9 L-32,5 L-22,5 L-15,4 L-16,8 L-14,9 L-14,7 L-12,7 L-12,9 L-7,8 L-8,4 L-6,4 L-6,2 Z " fill="#AC7C6A" transform="translate(568,414)"/>
<path d="M0,0 L2,0 L2,14 L0,14 L0,18 L-2,18 L-2,20 L-4,20 L-4,24 L-6,24 L-6,36 L-10,36 L-10,38 L-12,38 L-12,42 L-16,42 L-16,44 L-14,44 L-14,50 L-18,50 L-18,42 L-26,42 L-26,44 L-22,44 L-22,46 L-30,46 L-30,44 L-34,44 L-34,46 L-46,46 L-46,44 L-44,44 L-44,36 L-39,37 L-40,32 L-38,32 L-38,34 L-26,34 L-26,36 L-18,36 L-18,32 L-22,32 L-22,30 L-16,30 L-16,28 L-12,28 L-12,26 L-10,26 L-10,22 L-8,22 L-8,16 L-6,16 L-6,12 L-4,12 L-4,4 L0,5 Z " fill="#180400" transform="translate(882,546)"/>
<path d="M0,0 L2,0 L2,2 L5,0 L12,1 L13,5 L9,6 L6,5 L6,8 L-4,7 L-4,9 L-11,10 L-14,13 L-32,15 L-34,16 L-54,16 L-54,13 L-60,12 L-64,12 L-64,8 L-72,8 L-73,3 L-70,1 L-62,1 L-60,1 L-54,1 L-52,2 L-52,4 L-44,6 L-44,8 L-30,8 L-30,10 L-23,9 L-14,7 L-4,4 Z " fill="#9F6C59" transform="translate(532,407)"/>
<path d="M0,0 L11,0 L11,2 L14,3 L25,4 L26,8 L29,10 L35,11 L35,13 L41,13 L41,15 L48,15 L53,16 L53,20 L55,21 L53,24 L49,23 L44,21 L41,17 L39,17 L40,20 L42,22 L37,23 L37,21 L31,20 L31,18 L19,20 L16,17 L10,17 L7,17 L-6,16 L-6,14 L-4,14 L-3,11 L-3,13 L4,15 L6,11 L7,10 L5,9 L3,5 L0,3 Z " fill="#B47C68" transform="translate(427,412)"/>
<path d="M0,0 L11,0 L20,2 L28,4 L28,9 L38,9 L38,11 L56,11 L56,13 L65,13 L65,15 L58,16 L70,17 L81,17 L81,19 L70,19 L70,21 L72,22 L62,21 L61,20 L48,18 L48,16 L38,15 L29,13 L29,11 L15,10 L12,10 L11,9 L-17,8 L-17,6 L-12,5 L-12,3 L-8,1 Z " fill="#8D6154" transform="translate(388,376)"/>
<path d="M0,0 L11,0 L13,2 L17,4 L13,4 L13,9 L22,9 L26,10 L29,11 L28,13 L32,12 L35,13 L35,15 L37,15 L37,13 L45,14 L45,16 L85,16 L87,18 L85,19 L70,20 L67,21 L65,20 L24,19 L19,18 L19,16 L7,13 L1,13 L1,9 L-3,9 L-3,1 Z " fill="#A17C63" transform="translate(483,612)"/>
<path d="M0,0 L8,1 L13,4 L18,7 L18,9 L33,11 L41,14 L45,18 L61,22 L63,24 L68,25 L69,22 L93,22 L96,23 L97,26 L94,28 L76,29 L65,28 L59,26 L51,26 L44,22 L40,21 L40,19 L35,19 L25,15 L25,13 L19,13 L10,10 L9,6 L4,6 L2,3 L-1,1 Z " fill="#926D57" transform="translate(451,616)"/>
<path d="M0,0 L10,0 L13,1 L14,5 L24,5 L27,8 L32,9 L32,11 L35,10 L39,12 L59,14 L61,17 L67,19 L67,21 L60,21 L60,23 L71,22 L68,23 L68,25 L71,26 L67,26 L67,24 L59,24 L59,22 L43,22 L43,20 L37,20 L37,18 L32,17 L31,14 L25,14 L23,10 L13,10 L13,8 L7,8 L7,6 L1,6 L1,4 L-3,3 L1,3 Z " fill="#866450" transform="translate(391,606)"/>
<path d="M0,0 L2,0 L2,5 L6,6 L6,9 L8,9 L8,13 L13,15 L14,16 L14,24 L15,35 L14,42 L8,44 L5,50 L1,52 L-2,57 L-5,58 L-5,61 L-8,61 L-9,65 L-15,70 L-16,73 L-21,73 L-19,69 L-12,63 L-10,59 L-8,59 L-8,55 L-5,55 L-4,47 L1,42 L4,42 L3,36 L5,36 L5,30 L7,30 L7,23 L6,21 L5,10 L3,9 L3,6 L0,5 Z " fill="#9A7467" transform="translate(741,498)"/>
<path d="M0,0 L1,4 L-3,6 L-6,9 L-7,14 L-10,14 L-10,17 L-17,18 L-20,28 L-22,30 L-25,30 L-26,34 L-35,38 L-38,38 L-38,41 L-45,42 L-45,44 L-42,45 L-42,47 L-50,47 L-50,49 L-54,48 L-54,50 L-52,51 L-61,51 L-64,52 L-66,54 L-68,50 L-71,51 L-75,48 L-72,47 L-61,47 L-61,45 L-49,39 L-48,37 L-39,34 L-30,28 L-25,23 L-22,23 L-21,19 L-19,19 L-18,16 L-11,10 L-7,6 L-2,2 L0,2 Z " fill="#916B58" transform="translate(751,550)"/>
<path d="M0,0 L10,0 L9,4 L7,6 L7,10 L15,10 L16,14 L18,15 L19,13 L23,13 L23,15 L25,15 L25,18 L31,17 L45,17 L47,16 L67,14 L68,11 L75,11 L75,9 L81,9 L81,12 L79,12 L79,14 L69,18 L63,18 L63,20 L47,20 L32,21 L27,22 L27,20 L16,20 L9,17 L9,15 L7,15 L7,13 L3,12 L3,8 L-1,8 L-1,3 Z M-2,1 L0,2 Z " fill="#A6715D" transform="translate(453,405)"/>
<path d="M0,0 L1,3 L3,3 L4,1 L7,5 L7,8 L9,8 L9,12 L11,12 L11,14 L14,15 L17,23 L19,27 L23,29 L24,35 L28,35 L28,40 L31,40 L31,43 L35,44 L36,43 L41,43 L41,48 L48,50 L49,52 L44,52 L45,55 L42,55 L41,53 L35,51 L33,50 L33,48 L31,48 L31,46 L24,44 L24,40 L20,41 L20,36 L17,36 L16,33 L12,31 L9,21 L7,14 L3,12 L3,8 L-1,8 Z " fill="#A37A6E" transform="translate(316,512)"/>
<path d="M0,0 L2,1 L1,3 L4,4 L6,0 L7,3 L5,6 L-1,7 L-5,13 L-12,17 L-15,17 L-15,19 L-25,23 L-34,24 L-43,24 L-47,23 L-48,20 L-45,19 L-47,18 L-46,13 L-39,13 L-37,14 L-22,14 L-19,13 L-19,11 L-14,8 L-12,8 L-11,6 L-5,4 L-3,2 L-1,2 Z " fill="#B08A77" transform="translate(719,552)"/>
<path d="M0,0 L16,1 L24,2 L24,4 L-2,4 L-10,6 L-24,7 L-28,9 L-32,9 L-32,11 L-41,11 L-48,13 L-48,16 L-50,16 L-50,18 L-54,22 L-59,24 L-63,28 L-66,29 L-67,31 L-70,31 L-70,33 L-72,33 L-74,38 L-76,38 L-77,36 L-85,38 L-81,34 L-77,33 L-76,31 L-74,31 L-74,28 L-65,27 L-63,23 L-60,23 L-60,17 L-58,17 L-58,15 L-56,15 L-56,13 L-49,10 L-44,8 L-36,8 L-36,6 L-30,5 L-30,3 L-14,1 Z " fill="#A0746B" transform="translate(384,391)"/>
<path d="M0,0 L13,1 L16,4 L4,4 L4,9 L-2,10 L-48,10 L-50,9 L-50,7 L-48,7 L-48,5 L-44,2 L-14,2 L-8,3 Z " fill="#9C7463" transform="translate(612,399)"/>
<path d="M0,0 L10,0 L10,2 L14,2 L14,4 L26,4 L26,6 L36,6 L36,8 L78,8 L78,6 L98,6 L98,7 L79,7 L79,9 L88,9 L84,10 L84,12 L57,13 L52,14 L31,13 L22,11 L14,9 L14,7 L25,7 L25,5 L10,6 L0,4 L0,3 L9,3 L9,1 L0,1 Z " fill="#8C604F" transform="translate(444,388)"/>
<path d="M0,0 L12,0 L12,2 L18,2 L18,4 L28,4 L28,6 L34,6 L34,9 L39,9 L41,18 L43,18 L45,20 L47,22 L47,25 L49,25 L49,27 L56,27 L56,30 L65,31 L65,33 L74,35 L77,37 L77,39 L79,39 L78,42 L74,39 L74,37 L65,36 L55,33 L46,30 L40,28 L39,24 L35,23 L35,20 L32,19 L32,12 L23,12 L23,9 L14,7 L12,5 L17,5 L17,3 L8,4 L11,3 L11,1 L0,1 Z " fill="#946A5A" transform="translate(620,392)"/>
<path d="M0,0 L8,1 L14,2 L14,4 L23,5 L33,7 L33,9 L46,10 L52,12 L61,15 L62,17 L69,19 L69,21 L75,21 L75,23 L69,23 L68,25 L67,24 L60,23 L60,20 L47,21 L44,18 L33,14 L33,12 L25,12 L24,9 L16,7 L6,6 L6,4 L-1,3 Z " fill="#9A6C5C" transform="translate(403,385)"/>
<path d="M0,0 L2,0 L2,4 L4,4 L4,0 L6,0 L8,6 L6,6 L6,8 L11,7 L11,9 L8,9 L7,15 L2,14 L3,18 L0,18 L0,21 L5,21 L5,27 L2,27 L2,29 L0,29 L0,22 L-2,22 L-2,28 L-16,28 L-15,25 L-12,22 L-10,22 L-10,19 L-8,19 L-8,16 L-11,16 L-12,10 L-10,10 L-10,12 L-8,12 L-8,10 L-6,10 L-6,8 L-4,8 L-4,4 L0,4 Z " fill="#220700" transform="translate(750,660)"/>
<path d="M0,0 L9,0 L8,2 L1,3 L-4,5 L-6,8 L-12,8 L-14,12 L-16,12 L-16,14 L-24,14 L-24,12 L-30,14 L-42,14 L-44,12 L-54,13 L-68,13 L-73,11 L-73,9 L-65,9 L-65,11 L-44,8 L-43,7 L-22,6 L-19,4 L-8,3 Z " fill="#957159" transform="translate(624,629)"/>
<path d="M0,0 L4,0 L6,5 L7,16 L9,20 L11,21 L13,25 L16,25 L16,28 L19,28 L19,33 L21,33 L22,28 L30,29 L30,31 L38,33 L40,42 L41,44 L37,45 L36,42 L33,42 L31,35 L23,36 L22,39 L21,37 L17,36 L17,34 L8,31 L8,25 L6,25 L4,13 L4,7 L2,7 L0,4 Z " fill="#987267" transform="translate(319,531)"/>
<path d="M0,0 L3,2 L9,3 L11,8 L15,8 L15,11 L22,10 L32,10 L42,13 L43,15 L47,16 L64,17 L64,19 L57,20 L56,21 L46,21 L46,19 L42,19 L42,21 L46,23 L41,22 L35,20 L32,18 L32,16 L25,15 L24,14 L8,12 L7,9 L6,7 L0,5 L-4,2 L0,2 Z " fill="#97725C" transform="translate(460,614)"/>
<path d="M0,0 L2,0 L3,3 L6,4 L6,1 L15,1 L15,3 L21,3 L21,5 L25,5 L25,7 L35,7 L35,9 L33,9 L33,17 L31,17 L31,9 L29,9 L29,11 L27,11 L27,9 L25,9 L25,13 L21,13 L21,11 L17,11 L17,13 L14,12 L3,11 L3,9 L-3,9 L-5,7 L-5,3 Z " fill="#1A0500" transform="translate(679,345)"/>
<path d="M0,0 L1,3 L5,4 L1,4 L1,6 L-3,6 L-3,8 L-7,8 L-7,10 L-11,10 L-11,12 L-15,12 L-15,14 L-19,14 L-19,16 L-23,16 L-23,18 L-29,18 L-29,20 L-71,20 L-71,22 L-81,22 L-81,20 L-83,19 L-81,19 L-80,16 L-80,18 L-72,18 L-71,16 L-71,19 L-30,19 L-30,17 L-47,17 L-47,16 L-32,15 L-41,14 L-41,12 L-33,12 L-29,13 L-28,10 L-17,10 L-17,8 L-15,8 L-14,5 L-4,7 L-4,5 L-7,4 L0,5 L0,3 L-2,2 L0,2 Z " fill="#856147" transform="translate(621,640)"/>
<path d="M0,0 L5,0 L5,2 L8,0 L19,0 L19,2 L23,1 L31,3 L31,5 L37,5 L41,7 L41,9 L43,9 L43,12 L48,13 L48,15 L39,15 L39,13 L29,13 L27,12 L27,9 L23,8 L13,6 L6,4 L1,4 Z " fill="#926D57" transform="translate(395,601)"/>
<path d="M0,0 L7,1 L7,3 L17,3 L19,6 L16,6 L16,8 L24,7 L40,8 L44,12 L49,14 L47,16 L42,16 L42,18 L49,18 L49,19 L41,19 L41,17 L35,17 L35,15 L25,15 L23,11 L19,11 L19,9 L15,9 L15,7 L3,7 L3,5 L-1,4 L3,4 L3,2 L0,2 Z " fill="#8C6A57" transform="translate(339,589)"/>
<path d="M0,0 L19,0 L21,3 L15,5 L-6,6 L-12,8 L-28,9 L-30,10 L-36,10 L-36,12 L-47,14 L-50,17 L-56,18 L-52,14 L-50,14 L-50,12 L-38,8 L-18,4 L-16,3 L0,2 Z " fill="#946A61" transform="translate(380,384)"/>
<path d="M0,0 L2,1 L-2,5 L-4,5 L-3,8 L-8,10 L-17,11 L-22,13 L-29,15 L-32,24 L-32,36 L-34,36 L-34,42 L-36,43 L-36,36 L-34,32 L-36,32 L-36,29 L-34,28 L-33,25 L-38,27 L-37,22 L-36,19 L-33,18 L-32,14 L-38,16 L-38,13 L-34,12 L-30,7 L-25,4 L-22,3 L-22,6 L-13,6 L-13,8 L-10,8 L-9,6 L-6,6 L-6,2 Z " fill="#B7877C" transform="translate(358,416)"/>
<path d="M0,0 L4,0 L7,14 L10,15 L11,21 L13,21 L14,25 L13,41 L10,45 L8,45 L5,57 L3,58 L1,61 L0,57 L4,47 L5,43 L7,42 L9,37 L9,30 L7,29 L6,24 L4,20 L4,11 L2,11 L0,5 Z " fill="#A77E6D" transform="translate(731,491)"/>
<path d="M0,0 L3,1 L1,1 L1,3 L7,0 L16,2 L17,3 L24,4 L24,6 L26,6 L26,8 L34,8 L34,10 L40,10 L43,13 L41,13 L41,15 L44,16 L40,16 L40,14 L30,14 L30,12 L20,12 L20,10 L12,10 L12,8 L6,8 L4,4 L-1,3 L-2,1 Z " fill="#835F45" transform="translate(494,646)"/>
<path d="M0,0 L13,1 L11,4 L6,2 L6,4 L1,6 L-3,4 L-22,5 L-22,3 L-32,4 L-39,5 L-42,7 L-48,9 L-51,10 L-53,8 L-56,4 L-50,1 Z " fill="#B78570" transform="translate(598,426)"/>
<path d="M0,0 L6,0 L8,3 L12,4 L14,7 L18,8 L20,11 L24,12 L24,14 L28,14 L28,16 L36,16 L39,21 L37,21 L36,23 L35,22 L22,21 L22,19 L15,19 L15,17 L13,17 L11,13 L9,12 L9,10 L7,10 L5,6 L5,1 L0,1 Z " fill="#8C6455" transform="translate(654,400)"/>
<path d="M0,0 L5,2 L12,3 L12,5 L33,6 L35,7 L35,9 L49,8 L49,13 L33,14 L31,13 L31,11 L25,12 L15,12 L15,9 L9,9 L9,7 L2,6 L1,3 L-3,2 Z " fill="#936453" transform="translate(463,397)"/>
<path d="M0,0 L2,0 L2,4 L4,4 L4,24 L4,27 L8,28 L6,31 L6,35 L8,35 L7,38 L3,40 L1,54 L-1,54 L-2,42 L-3,41 L-3,30 L-2,29 L-1,19 L1,19 L0,16 Z M1,27 Z M5,35 Z M4,21 Z " fill="#BB8C83" transform="translate(326,441)"/>
<path d="M0,0 L2,3 L2,12 L7,13 L8,17 L10,17 L10,21 L13,21 L14,30 L15,34 L17,34 L17,41 L14,37 L13,35 L8,33 L6,28 L3,26 L0,23 L0,19 L-3,19 L-2,14 L0,14 Z " fill="#9C6B63" transform="translate(302,495)"/>
<path d="M0,0 L6,0 L7,20 L10,22 L10,24 L-2,24 L-2,8 L-10,8 L-10,4 L-2,4 L-2,2 L0,2 Z " fill="#170500" transform="translate(154,504)"/>
<path d="M0,0 L2,1 L-3,7 L-13,12 L-16,15 L-23,15 L-27,18 L-34,20 L-34,18 L-40,20 L-49,20 L-54,22 L-52,18 L-48,15 L-45,16 L-38,14 L-28,13 L-27,12 L-19,11 L-16,8 L-11,6 L-3,1 Z " fill="#A07965" transform="translate(718,571)"/>
<path d="M0,0 L12,0 L12,2 L22,2 L22,4 L26,4 L28,7 L32,8 L32,10 L36,10 L36,12 L40,12 L39,14 L32,14 L35,13 L35,11 L28,12 L31,11 L31,9 L25,11 L25,9 L22,10 L21,8 L10,6 L10,5 L-9,3 L-9,6 L6,5 L6,7 L-12,8 L-17,7 L-17,9 L-14,10 L-23,9 L-23,11 L-26,12 L-26,10 L-24,10 L-24,8 L-18,8 L-18,6 L-12,6 L-12,4 L-10,4 L-10,2 L0,2 Z " fill="#815548" transform="translate(390,368)"/>
<path d="M0,0 L9,1 L5,2 L5,4 L-3,4 L-3,6 L-5,6 L-5,8 L-9,8 L-9,10 L-11,10 L-11,12 L-13,12 L-13,14 L-17,14 L-17,18 L-19,18 L-19,20 L-21,20 L-21,24 L-23,24 L-23,26 L-27,30 L-29,30 L-29,34 L-33,34 L-34,36 L-35,32 L-30,33 L-31,28 L-29,28 L-29,22 L-27,18 L-23,17 L-22,12 L-18,7 L-9,6 L-8,4 L-4,5 L-5,2 L4,3 L4,1 Z " fill="#815D4A" transform="translate(705,594)"/>
<path d="M0,0 L2,0 L3,4 L3,11 L1,12 L1,5 Z M-1,12 L1,13 L1,28 L-1,32 L-5,34 L-8,39 L-11,40 L-11,43 L-14,43 L-15,47 L-21,52 L-22,55 L-27,55 L-25,51 L-18,45 L-16,41 L-14,41 L-14,37 L-11,37 L-10,29 L-5,24 L-2,24 L-3,18 L-1,18 Z " fill="#9D7766" transform="translate(747,516)"/>
<path d="M0,0 L12,0 L12,3 L15,2 L16,0 L28,0 L28,5 L32,5 L32,7 L36,7 L36,9 L29,9 L29,7 L7,8 L-2,7 L0,3 Z " fill="#A57F69" transform="translate(400,588)"/>
<path d="M0,0 L1,4 L3,5 L2,9 L0,9 L0,52 L-2,56 L-2,52 L-4,52 L-4,8 L-2,8 L-2,4 L0,4 Z " fill="#81584F" transform="translate(280,426)"/>
<path d="M0,0 L2,0 L2,3 L5,2 L5,4 L3,4 L2,10 L0,10 L0,12 L-6,12 L-6,14 L-10,14 L-10,8 L-16,8 L-16,10 L-22,10 L-22,4 L-12,4 L-12,2 L0,2 Z " fill="#040100" transform="translate(662,730)"/>
<path d="M0,0 L18,0 L17,2 L4,3 L2,4 L20,6 L20,4 L18,3 L24,4 L24,2 L21,1 L28,0 L27,3 L25,3 L25,5 L21,5 L21,7 L11,7 L11,9 L-1,9 L-1,7 L-3,7 L-3,9 L-9,9 L-9,11 L-15,11 L-15,10 L-10,10 L-10,8 L-15,8 L-10,4 L-8,2 L-1,1 Z " fill="#87634D" transform="translate(641,631)"/>
<path d="M0,0 L2,1 L1,5 L-5,8 L-10,10 L-15,15 L-22,17 L-22,19 L-27,19 L-29,19 L-45,19 L-47,18 L-46,13 L-39,13 L-37,14 L-22,14 L-19,13 L-19,11 L-14,8 L-12,8 L-11,6 L-5,4 L-3,2 L-1,2 Z " fill="#B68F7B" transform="translate(719,552)"/>
<path d="M0,0 L2,0 L2,2 L14,2 L14,3 L3,3 L3,5 L14,5 L14,12 L18,12 L18,14 L10,14 L10,12 L6,12 L6,14 L-6,14 L-6,12 L-4,12 L-4,4 L1,5 Z " fill="#170200" transform="translate(842,578)"/>
<path d="M0,0 L2,3 L2,6 L4,6 L4,13 L5,12 L7,12 L8,14 L8,20 L14,21 L15,24 L17,25 L20,32 L19,35 L14,34 L11,33 L7,26 L6,20 L2,20 L0,9 Z " fill="#B38479" transform="translate(323,500)"/>
<path d="M0,0 L5,1 L5,7 L7,7 L7,9 L9,9 L9,13 L11,13 L11,17 L13,17 L13,21 L15,21 L15,23 L17,23 L17,27 L19,27 L19,31 L21,31 L21,39 L20,39 L20,32 L18,32 L18,37 L17,37 L18,28 L16,28 L16,32 L10,31 L10,22 L8,22 L8,18 L4,16 L4,10 L3,9 L1,8 L-1,2 Z " fill="#8C665B" transform="translate(743,469)"/>
<path d="M0,0 L2,0 L2,3 L7,4 L9,8 L13,9 L15,15 L18,17 L17,24 L20,23 L21,27 L24,34 L24,36 L22,36 L16,29 L13,26 L10,17 L7,14 L6,8 L4,8 L4,6 L1,5 Z " fill="#936D5D" transform="translate(724,461)"/>
<path d="M0,0 L6,1 L18,4 L28,7 L32,8 L32,10 L36,12 L41,15 L40,18 L33,19 L29,14 L29,12 L21,10 L21,8 L10,8 L10,5 L2,4 Z " fill="#986E5E" transform="translate(662,421)"/>
<path d="M0,0 L6,1 L2,4 L-4,5 L-10,4 L-38,4 L-42,6 L-42,8 L-46,9 L-53,9 L-56,11 L-54,6 L-48,5 L-48,3 L-42,3 L-40,4 L-40,2 L-36,1 Z " fill="#96705F" transform="translate(606,398)"/>
<path d="M0,0 L1,0 L3,9 L7,9 L7,13 L11,14 L11,16 L14,16 L15,26 L11,30 L12,22 L11,19 L7,21 L3,19 L3,15 L-1,15 L-1,11 L-5,11 L-6,8 L-4,3 Z " fill="#B58A79" transform="translate(713,481)"/>
<path d="M0,0 L1,2 L7,2 L8,4 L11,5 L11,7 L13,7 L13,9 L20,11 L31,12 L31,14 L42,14 L55,15 L55,17 L34,18 L31,19 L31,15 L19,14 L19,12 L13,12 L13,10 L7,10 L3,7 L3,3 L-8,3 L-8,2 L-1,1 Z " fill="#AE7762" transform="translate(449,413)"/>
<path d="M0,0 L4,0 L4,4 L6,4 L6,7 L13,11 L13,16 L16,16 L15,21 L17,21 L18,28 L20,28 L21,34 L20,37 L22,37 L22,39 L24,39 L25,42 L23,45 L15,37 L14,32 L16,32 L16,35 L18,35 L16,28 L16,24 L13,24 L11,19 L9,17 L9,12 L7,12 L7,9 L3,9 L0,5 Z " fill="#90625A" transform="translate(299,520)"/>
<path d="M0,0 L4,0 L4,4 L6,4 L6,6 L8,6 L8,10 L10,10 L10,12 L12,12 L12,16 L14,16 L14,20 L16,20 L16,24 L20,24 L20,28 L22,28 L27,35 L24,36 L21,35 L21,33 L18,32 L19,25 L13,26 L10,25 L7,15 L3,9 L3,7 L1,7 L0,3 L3,3 L3,1 Z " fill="#856151" transform="translate(716,434)"/>
<path d="M0,0 L4,2 L8,5 L7,7 L11,8 L15,10 L15,14 L18,16 L18,20 L9,17 L7,15 L0,12 L-2,5 L-2,1 Z " fill="#A78572" transform="translate(357,548)"/>
<path d="M0,0 L12,1 L18,3 L27,6 L28,8 L35,10 L35,12 L41,12 L41,14 L35,14 L34,16 L33,15 L26,14 L26,11 L18,11 L18,8 L9,6 L9,3 L2,2 Z " fill="#976757" transform="translate(437,394)"/>
<path d="M0,0 L4,0 L4,2 L17,2 L23,5 L28,6 L28,8 L34,9 L41,13 L37,14 L34,13 L31,14 L25,12 L25,14 L22,14 L21,12 L18,12 L18,8 L17,5 L4,6 L3,4 L-1,4 Z " fill="#8B6751" transform="translate(463,629)"/>
<path d="M0,0 L6,2 L20,3 L24,2 L37,2 L40,3 L47,3 L50,2 L50,4 L52,5 L48,7 L43,6 L40,6 L26,5 L-18,5 L-16,3 L-12,2 L0,2 Z " fill="#B2826F" transform="translate(572,422)"/>
<path d="M0,0 L6,0 L6,4 L2,8 L4,8 L4,10 L-4,10 L-4,13 L-28,14 L-28,12 L-20,12 L-20,8 L-4,8 L-4,4 L0,4 Z " fill="#050100" transform="translate(660,744)"/>
<path d="M0,0 L5,0 L3,4 L-4,4 L-4,6 L-12,9 L-20,11 L-40,12 L-43,13 L-42,10 L-40,9 L-28,8 L-26,7 L-18,7 L-16,5 L-12,1 L-2,1 Z " fill="#AC7764" transform="translate(548,418)"/>
<path d="M0,0 L10,0 L8,2 L0,4 L-6,5 L-10,6 L-14,5 L-16,7 L-21,7 L-24,8 L-24,6 L-30,11 L-30,6 L-34,7 L-39,9 L-52,9 L-51,7 L-40,6 L-38,4 L-18,3 L-16,2 L-3,1 Z " fill="#B37C69" transform="translate(546,425)"/>
<path d="M0,0 L2,1 L-2,6 L-6,7 L-12,7 L-14,8 L-26,9 L-30,10 L-51,8 L-49,6 L-31,5 L-18,6 L-18,4 L-11,2 L-2,1 Z " fill="#A97460" transform="translate(534,419)"/>
<path d="M0,0 L5,0 L7,2 L12,3 L12,5 L28,5 L28,7 L31,7 L31,9 L34,9 L34,11 L25,10 L19,9 L19,7 L5,6 L2,6 L1,5 L-18,4 L-18,3 L-12,1 Z " fill="#91655B" transform="translate(398,380)"/>
<path d="M0,0 L15,0 L23,1 L24,3 L19,5 L-2,7 L-2,5 L-10,5 L-11,8 L-14,8 L-13,4 L-11,3 L-1,3 Z " fill="#99755D" transform="translate(561,633)"/>
<path d="M0,0 L6,5 L6,9 L12,11 L15,16 L17,17 L17,19 L19,19 L21,30 L21,37 L19,37 L19,29 L17,29 L15,22 L10,21 L11,17 L8,17 L8,12 L4,11 L0,8 Z " fill="#96675F" transform="translate(304,519)"/>
<path d="M0,0 L9,0 L8,2 L4,2 L3,5 L-4,7 L-4,9 L-7,11 L-24,11 L-24,8 L-17,8 L-13,5 L-11,4 L-12,1 L-5,1 L-2,1 Z " fill="#BA9480" transform="translate(704,556)"/>
<path d="M0,0 L2,0 L1,3 L-9,8 L-11,8 L-11,10 L-22,11 L-29,14 L-39,15 L-41,16 L-40,12 L-35,12 L-35,10 L-32,8 L-20,7 L-19,5 L-7,4 Z " fill="#986D59" transform="translate(701,587)"/>
<path d="M0,0 L10,0 L10,2 L18,0 L23,0 L22,2 L12,4 L4,6 L-12,6 L-12,4 L-15,4 L-15,6 L-13,6 L-13,8 L-17,9 L-17,6 L-19,6 L-20,9 L-20,5 L-16,5 L-16,3 L-12,3 L-12,1 Z " fill="#8B6158" transform="translate(348,383)"/>
<path d="M0,0 L5,0 L7,1 L14,4 L15,6 L23,8 L23,11 L34,11 L34,13 L37,14 L33,14 L28,15 L22,15 L21,10 L15,9 L6,7 L-1,7 L-2,1 Z " fill="#A07363" transform="translate(649,418)"/>
<path d="M0,0 L5,0 L5,2 L2,3 L10,7 L11,12 L4,10 L4,8 L-4,8 L-7,6 L-20,4 L-18,2 Z " fill="#916F63" transform="translate(632,395)"/>
<path d="M0,0 L25,0 L28,1 L29,4 L26,6 L13,7 L8,5 L-1,4 Z " fill="#957158" transform="translate(519,638)"/>
<path d="M0,0 L2,0 L3,3 L6,4 L7,1 L9,5 L12,6 L12,8 L15,8 L15,10 L18,8 L21,8 L21,10 L18,11 L17,13 L14,12 L3,11 L3,9 L-3,9 L-5,7 L-5,3 Z " fill="#210900" transform="translate(679,345)"/>
<path d="M0,0 L2,1 L3,28 L4,33 L2,33 L2,35 L0,35 L0,31 L-2,31 L-2,20 L-4,20 L-3,15 L-1,1 Z " fill="#8C6057" transform="translate(283,462)"/>
<path d="M0,0 L12,0 L12,2 L20,2 L20,0 L36,0 L36,1 L21,1 L21,3 L35,3 L35,4 L20,5 L20,3 L12,3 L13,6 L10,5 L0,5 L0,3 L-42,3 L-42,2 L0,2 Z " fill="#76574A" transform="translate(584,390)"/>
<path d="M0,0 L1,0 L1,8 L3,8 L3,24 L1,24 L1,32 L-1,32 L-1,40 L-3,40 L-3,44 L-7,43 L-4,43 L-4,41 L-7,41 L-5,33 L-4,33 L-4,39 L-2,39 L-2,32 L-5,31 L-3,31 L-3,23 L-1,23 L-1,8 Z " fill="#806056" transform="translate(765,508)"/>
<path d="M0,0 L7,1 L8,5 L8,13 L15,13 L17,17 L19,18 L19,20 L21,21 L20,24 L19,22 L17,23 L17,25 L15,25 L15,21 L11,22 L10,17 L7,16 L7,14 L4,13 L2,4 L0,3 Z " fill="#BD8D7D" transform="translate(333,511)"/>
<path d="M0,0 L2,0 L2,4 L4,4 L4,12 L8,12 L8,16 L5,18 L4,40 L6,40 L6,50 L4,50 L4,44 L2,44 L1,12 Z " fill="#150400" transform="translate(222,564)"/>
<path d="M0,0 L4,1 L4,3 L6,3 L6,1 L10,1 L10,3 L21,3 L21,4 L10,5 L10,8 L4,8 L2,7 L2,5 L0,6 L-9,6 L-12,6 L-12,4 L-17,6 L-20,3 L-6,3 L-6,1 Z " fill="#AA7B71" transform="translate(390,396)"/>
<path d="M0,0 L12,3 L13,5 L17,6 L34,7 L34,9 L27,10 L26,11 L16,11 L16,9 L6,7 L6,5 L-2,4 L-6,1 Z " fill="#9C775F" transform="translate(490,624)"/>
<path d="M0,0 L29,0 L37,2 L40,6 L31,7 L31,5 L25,5 L19,4 L19,2 L8,3 L5,4 L5,2 L0,2 Z " fill="#98735E" transform="translate(395,599)"/>
<path d="M0,0 L4,1 L-3,6 L-12,11 L-13,12 L-20,13 L-21,14 L-38,14 L-38,11 L-30,10 L-24,8 L-21,8 L-21,10 L-13,10 L-13,8 L-8,4 L-2,2 Z " fill="#AA816E" transform="translate(709,569)"/>
<path d="M0,0 L1,0 L1,7 L3,7 L3,10 L5,10 L3,16 L3,36 L1,35 L1,26 L-1,26 L-2,21 L-2,7 Z " fill="#9E6E64" transform="translate(294,470)"/>
<path d="M0,0 L6,0 L6,4 L14,3 L14,6 L10,6 L10,10 L6,10 L6,12 L4,12 L4,14 L0,14 L0,11 L-2,11 L-2,18 L-6,18 L-6,12 L-4,12 L-2,8 L8,8 L8,6 L2,6 Z " fill="#160600" transform="translate(738,690)"/>
<path d="M0,0 L10,0 L10,2 L8,3 L-6,4 L-15,6 L-30,8 L-38,9 L-37,7 L-35,7 L-35,5 L-37,5 L-37,3 L-34,3 L-34,5 L-32,4 L-16,4 L-8,1 Z " fill="#8E645C" transform="translate(370,384)"/>
<path d="M0,0 L1,3 L3,3 L4,1 L7,5 L7,8 L9,8 L9,12 L11,12 L11,14 L14,15 L15,20 L9,21 L7,14 L3,12 L3,8 L-1,8 Z " fill="#A7776E" transform="translate(316,512)"/>
<path d="M0,0 L2,4 L7,5 L7,8 L12,7 L12,12 L14,12 L14,20 L17,21 L17,26 L14,25 L13,23 L13,17 L10,17 L9,15 L6,14 L6,10 L1,11 L0,7 Z " fill="#B08573" transform="translate(714,480)"/>
<path d="M0,0 L7,0 L15,3 L16,7 L18,7 L18,11 L21,12 L17,17 L16,11 L12,11 L12,6 L10,6 L8,8 L7,4 L0,5 L0,3 L-5,4 L-4,1 Z " fill="#A58071" transform="translate(692,458)"/>
<path d="M0,0 L5,0 L5,2 L11,2 L11,4 L18,4 L23,5 L23,9 L25,10 L23,13 L19,12 L14,10 L11,6 L3,6 L3,4 L1,4 Z " fill="#B27A63" transform="translate(457,423)"/>
<path d="M0,0 L25,0 L27,2 L26,3 L17,4 L14,6 L-2,6 L-1,1 Z " fill="#9F7B62" transform="translate(578,628)"/>
<path d="M0,0 L5,0 L7,6 L7,8 L9,8 L9,16 L13,16 L14,22 L20,24 L16,26 L9,25 L9,19 L7,19 L7,17 L5,17 L5,8 L3,8 L2,1 Z " fill="#8E665E" transform="translate(314,540)"/>
<path d="M0,0 L2,3 L3,14 L4,14 L4,22 L1,29 L-1,36 L-5,40 L-3,34 L-2,23 L-1,18 L-1,6 Z " fill="#B58978" transform="translate(731,506)"/>
<path d="M0,0 L12,0 L12,2 L18,2 L18,4 L28,4 L28,6 L34,6 L33,9 L30,10 L29,12 L23,12 L23,9 L14,7 L12,5 L17,5 L17,3 L8,4 L11,3 L11,1 L0,1 Z " fill="#806257" transform="translate(620,392)"/>
<path d="M0,0 L3,1 L3,4 L6,4 L7,8 L10,8 L10,12 L17,14 L17,16 L11,16 L10,20 L8,20 L8,15 L5,15 L5,12 L3,12 L2,14 L0,11 Z " fill="#9C766B" transform="translate(330,544)"/>
<path d="M0,0 L3,0 L3,2 L9,3 L9,5 L12,6 L14,11 L14,15 L16,16 L11,17 L10,13 L6,13 L5,10 L1,9 L0,2 Z " fill="#A87F6D" transform="translate(715,475)"/>
<path d="M0,0 L20,0 L20,2 L31,2 L31,4 L38,4 L43,5 L39,7 L31,7 L14,4 L14,2 L-1,2 Z " fill="#A17A63" transform="translate(409,595)"/>
<path d="M0,0 L4,0 L8,5 L10,6 L10,10 L14,10 L14,12 L16,12 L16,16 L18,16 L18,18 L20,18 L20,26 L16,26 L15,18 L10,14 L6,10 L6,6 L4,6 L4,4 L0,4 Z " fill="#170500" transform="translate(224,762)"/>
<path d="M0,0 L4,0 L8,10 L9,13 L17,13 L18,18 L21,17 L23,24 L18,21 L10,20 L6,14 L4,7 L2,6 L2,4 L0,4 Z " fill="#AE7F74" transform="translate(325,520)"/>
<path d="M0,0 L6,1 L6,3 L1,3 L1,5 L-4,4 L-4,7 L-8,7 L-8,9 L-17,9 L-17,7 L-21,6 L-17,5 L-17,3 L-12,1 Z " fill="#8B674F" transform="translate(625,638)"/>
<path d="M0,0 L21,0 L21,1 L11,3 L10,4 L-3,5 L-7,4 L-23,3 L-26,1 L-5,1 Z " fill="#8D6150" transform="translate(501,400)"/>
<path d="M0,0 L8,0 L8,2 L22,2 L22,3 L10,4 L-26,5 L-34,6 L-36,4 L-30,3 L-12,2 L-10,1 L-1,1 Z " fill="#8E6A5B" transform="translate(596,393)"/>
<path d="M0,0 L2,0 L2,3 L18,3 L18,5 L25,5 L25,6 L18,6 L18,8 L29,7 L26,8 L26,10 L29,11 L25,11 L25,9 L17,9 L17,7 L1,7 L1,5 L-5,5 L-5,4 L1,4 L1,2 L-4,2 Z " fill="#7D5C49" transform="translate(433,621)"/>
<path d="M0,0 L9,0 L9,2 L6,2 L6,6 L1,7 L2,3 L-2,3 L-2,9 L-9,11 L-8,7 L-14,7 L-14,5 L-10,5 L-10,3 L-6,3 L-6,1 Z " fill="#180800" transform="translate(610,761)"/>
<path d="M0,0 L5,0 L5,2 L9,3 L9,8 L13,9 L15,19 L12,17 L9,16 L7,15 L7,10 L5,10 L5,8 L2,7 L0,4 Z " fill="#946F5F" transform="translate(701,440)"/>
<path d="M0,0 L10,0 L10,2 L52,2 L52,0 L72,0 L72,1 L53,1 L53,3 L62,3 L58,4 L58,6 L52,6 L52,3 L10,3 L9,5 L2,4 L2,3 L9,3 L9,1 L0,1 Z M8,5 Z " fill="#6D4A3D" transform="translate(470,394)"/>
<path d="M0,0 L1,2 L6,2 L8,11 L10,11 L12,13 L14,17 L9,17 L9,13 L3,13 L3,10 L-1,10 L-1,5 L-3,5 L-3,3 L-5,2 L0,2 Z " fill="#8D6759" transform="translate(653,399)"/>
<path d="M0,0 L23,1 L44,5 L44,7 L52,7 L52,9 L59,10 L59,11 L50,11 L50,9 L44,9 L42,7 L24,5 L24,3 L7,2 L0,1 Z " fill="#9C7165" transform="translate(384,390)"/>
<path d="M0,0 L5,0 L5,2 L8,0 L19,0 L19,2 L23,1 L31,3 L31,5 L34,6 L29,7 L26,5 L17,4 L15,4 L9,5 L1,4 Z " fill="#94705B" transform="translate(395,601)"/>
<path d="M0,0 L10,0 L9,4 L7,6 L7,10 L15,10 L14,14 L14,12 L3,12 L3,8 L-1,8 L-1,3 Z M-2,1 L0,2 Z " fill="#A26F5D" transform="translate(453,405)"/>
<path d="M0,0 L12,0 L13,4 L18,3 L25,4 L25,7 L21,8 L21,6 L9,6 L9,8 L5,8 L5,6 L-2,6 L-2,4 L4,2 Z " fill="#8D6B59" transform="translate(383,601)"/>
<path d="M0,0 L25,0 L24,4 L0,4 Z " fill="#030000" transform="translate(640,760)"/>
<path d="M0,0 L5,1 L5,3 L7,4 L6,13 L7,18 L5,21 L1,18 L1,6 L-1,6 L-2,1 Z " fill="#8B675E" transform="translate(325,564)"/>
<path d="M0,0 L6,0 L6,1 L1,1 L1,3 L10,1 L15,2 L16,5 L18,7 L15,7 L15,9 L21,8 L19,9 L19,11 L22,11 L22,9 L25,10 L23,11 L23,13 L26,14 L22,14 L22,12 L18,12 L18,10 L14,10 L14,8 L10,8 L10,6 L6,6 L6,4 L0,4 L0,2 L-4,1 Z " fill="#7C5B47" transform="translate(466,632)"/>
<path d="M0,0 L2,0 L0,4 L-3,9 L-7,12 L-9,12 L-10,15 L-17,21 L-20,24 L-21,27 L-26,30 L-28,29 L-21,21 L-19,21 L-17,17 L-15,14 L-13,14 L-12,11 L-6,8 L-4,8 L-4,2 L0,2 Z " fill="#946E5D" transform="translate(750,546)"/>
<path d="M0,0 L5,0 L5,5 L12,7 L13,9 L8,9 L9,12 L6,12 L5,10 L-1,8 L-3,7 L-3,5 L-5,5 L-5,3 L-7,2 L-1,1 Z " fill="#9E7B6B" transform="translate(352,555)"/>
<path d="M0,0 L11,0 L11,2 L-5,6 L-13,7 L-17,10 L-17,6 L-21,5 L-12,2 Z " fill="#C18A7D" transform="translate(353,424)"/>
<path d="M0,0 L2,3 L2,12 L7,13 L8,17 L10,17 L10,21 L13,21 L13,25 L7,25 L5,20 L5,17 L3,17 L2,19 L2,14 L0,14 Z " fill="#A27068" transform="translate(302,495)"/>
<path d="M0,0 L8,1 L14,2 L14,4 L23,5 L33,7 L33,8 L16,7 L6,6 L6,4 L-1,3 Z " fill="#94695C" transform="translate(403,385)"/>
<path d="M0,0 L12,0 L12,1 L1,1 L1,3 L11,3 L11,4 L0,4 L-9,3 L-9,6 L6,5 L6,7 L-12,8 L-17,7 L-17,9 L-14,10 L-23,9 L-23,11 L-26,12 L-26,10 L-24,10 L-24,8 L-18,8 L-18,6 L-12,6 L-12,4 L-10,4 L-10,2 L0,2 Z " fill="#784E44" transform="translate(390,368)"/>
<path d="M0,0 L1,4 L-1,4 L-1,6 L-9,13 L-15,20 L-17,20 L-18,24 L-19,18 L-17,17 L-13,12 L-13,9 L-10,9 L-9,5 L-5,3 L-4,1 L-2,1 L-2,3 L0,3 Z " fill="#886454" transform="translate(757,552)"/>
<path d="M0,0 L2,0 L2,7 L8,7 L8,9 L10,9 L10,13 L13,14 L9,17 L7,17 L8,10 L-8,10 L-8,8 L-4,8 L-4,4 L-2,4 L-2,6 L0,6 Z " fill="#1F0300" transform="translate(758,646)"/>
<path d="M0,0 L1,2 L3,2 L3,4 L7,3 L13,5 L14,9 L11,10 L8,7 L2,7 L-1,7 L-14,6 L-14,4 L-12,4 L-11,1 L-11,3 L-4,5 L-2,1 Z " fill="#BE846E" transform="translate(435,422)"/>
<path d="M0,0 L7,1 L7,3 L17,3 L19,6 L16,6 L16,8 L23,7 L20,8 L20,10 L23,11 L19,11 L19,9 L15,9 L15,7 L3,7 L3,5 L-1,4 L3,4 L3,2 L0,2 Z " fill="#856252" transform="translate(339,589)"/>
<path d="M0,0 L1,2 L9,2 L10,0 L10,3 L52,3 L52,4 L10,4 L10,6 L0,6 L0,4 L-2,3 L0,3 Z " fill="#73533D" transform="translate(540,656)"/>
<path d="M0,0 L9,1 L15,2 L14,4 L9,6 L8,3 L1,4 L-4,5 L-8,8 L-15,6 L-16,4 Z " fill="#C78D7F" transform="translate(364,425)"/>
<path d="M0,0 L2,0 L2,2 L5,3 L5,5 L-3,5 L-3,7 L-7,6 L-7,8 L-5,9 L-14,9 L-17,10 L-19,12 L-20,8 L-13,5 L-3,1 Z " fill="#8E6754" transform="translate(704,592)"/>
<path d="M0,0 L1,0 L1,7 L5,7 L6,4 L6,6 L8,6 L11,11 L9,19 L11,19 L12,16 L15,19 L13,19 L13,26 L12,26 L12,20 L8,20 L6,15 L4,14 L2,9 L0,8 Z " fill="#8D5D53" transform="translate(288,516)"/>
<path d="M0,0 L10,0 L10,2 L5,3 L0,8 L-5,8 L-8,9 L-8,7 L-10,6 L-8,4 L-8,2 Z " fill="#956959" transform="translate(542,400)"/>
<path d="M0,0 L11,0 L13,2 L17,4 L13,4 L13,9 L5,8 L4,4 L-2,3 L-2,1 Z " fill="#A87F66" transform="translate(483,612)"/>
<path d="M0,0 L7,2 L10,0 L12,1 L13,6 L9,9 L-7,5 L-3,2 L-2,4 L1,4 Z " fill="#B98C73" transform="translate(478,592)"/>
<path d="M0,0 L6,0 L6,2 L1,4 L-3,8 L-8,7 L-8,9 L-10,9 L-10,7 L-20,7 L-20,5 L-10,5 L-8,1 L-6,1 L-6,5 L-4,5 L-4,3 L-2,3 L-2,1 Z " fill="#210700" transform="translate(774,633)"/>
<path d="M0,0 L6,0 L4,4 L4,8 L6,8 L5,11 L1,13 L-1,17 L-3,12 L-3,7 Z M3,8 Z " fill="#C09187" transform="translate(328,468)"/>
<path d="M0,0 L6,0 L6,2 L11,0 L14,2 L12,2 L12,6 L10,6 L10,8 L8,8 L7,10 L6,8 L2,7 L2,4 L-2,4 Z " fill="#160500" transform="translate(670,736)"/>
<path d="M0,0 L8,0 L12,1 L15,2 L14,4 L18,3 L21,4 L21,6 L13,8 L13,6 L10,7 L1,5 L3,3 Z " fill="#A57F66" transform="translate(497,621)"/>
<path d="M0,0 L3,0 L3,2 L7,1 L11,3 L19,5 L17,6 L17,9 L5,8 L5,6 L1,4 Z " fill="#AF866E" transform="translate(463,594)"/>
<path d="M0,0 L2,0 L2,2 L14,2 L14,3 L3,3 L3,5 L14,5 L14,10 L5,10 L5,8 L2,8 L2,6 L-2,5 L1,5 Z " fill="#120200" transform="translate(842,578)"/>
<path d="M0,0 L3,0 L3,5 L11,5 L11,6 L3,6 L3,12 L-3,12 L-4,6 L-2,1 Z " fill="#040100" transform="translate(613,744)"/>
<path d="M0,0 L11,0 L14,2 L12,3 L-4,4 L-10,7 L-17,7 L-15,5 L-12,5 L-12,3 L-8,1 Z " fill="#8B5F54" transform="translate(388,376)"/>
<path d="M0,0 L4,1 L4,3 L18,2 L20,7 L8,7 L-1,3 Z " fill="#AB826C" transform="translate(445,592)"/>
<path d="M0,0 L2,0 L2,3 L6,4 L4,6 L-1,7 L-2,9 L-6,9 L-6,11 L-14,13 L-14,10 L-10,9 L-6,4 L-1,1 Z " fill="#B38379" transform="translate(334,419)"/>
<path d="M0,0 L11,0 L11,2 L16,2 L16,3 L11,3 L11,5 L22,4 L22,5 L17,5 L17,7 L24,7 L24,8 L16,8 L16,6 L10,6 L10,4 L0,4 L-2,1 Z " fill="#80614F" transform="translate(364,600)"/>
<path d="M0,0 L4,0 L4,4 L8,6 L16,14 L15,18 L12,17 L8,12 L3,7 L2,4 L0,3 L3,3 L3,1 Z M3,5 Z " fill="#100B0B" transform="translate(308,552)"/>
<path d="M0,0 L1,0 L1,11 L3,11 L4,9 L3,15 L5,15 L5,13 L7,13 L9,21 L9,24 L7,24 L7,34 L6,34 L6,24 L4,24 L4,16 L2,16 L2,12 L0,12 Z " fill="#795149" transform="translate(280,482)"/>
<path d="M0,0 L10,1 L19,3 L25,3 L26,2 L37,2 L37,4 L26,4 L26,6 L28,7 L18,6 L17,5 L4,3 L4,1 Z " fill="#906454" transform="translate(432,391)"/>
<path d="M0,0 L8,0 L8,2 L18,2 L18,4 L22,4 L22,8 L16,8 L16,4 L10,4 L10,6 L8,6 L4,2 L4,4 L-1,4 Z " fill="#170100" transform="translate(716,354)"/>
<path d="M0,0 L3,0 L3,2 L7,2 L7,4 L9,4 L11,10 L13,11 L13,14 L17,15 L15,17 L11,16 L11,14 L9,14 L9,9 L3,8 L3,4 L1,4 Z " fill="#A27D6C" transform="translate(707,461)"/>
<path d="M0,0 L4,1 L1,1 L1,3 L3,3 L3,5 L-2,6 L-7,5 L-7,7 L-2,7 L-5,9 L-14,11 L-14,9 L-17,9 L-17,11 L-20,12 L-20,10 L-18,10 L-18,8 L-14,8 L-14,6 L-8,6 L-8,4 L-2,4 L-2,2 L0,2 Z " fill="#74544F" transform="translate(324,392)"/>
<path d="M0,0 L5,1 L5,7 L7,7 L7,9 L9,9 L9,13 L11,13 L10,17 L10,14 L8,14 L8,16 L6,16 L6,14 L4,14 L5,9 L1,8 L-1,2 Z " fill="#7E5C4F" transform="translate(743,469)"/>
<path d="M0,0 L2,0 L1,4 L-2,4 L-2,8 L-4,8 L-4,4 L-6,4 L-6,6 L-22,6 L-22,4 L-12,4 L-12,2 L0,2 Z " fill="#1D0B00" transform="translate(662,730)"/>
<path d="M0,0 L2,0 L1,3 L-5,6 L-13,6 L-13,8 L-17,8 L-29,11 L-35,12 L-35,10 L-32,8 L-20,7 L-19,5 L-7,4 Z " fill="#9A705C" transform="translate(701,587)"/>
<path d="M0,0 L4,2 L4,6 L8,8 L8,11 L6,11 L7,15 L5,15 L5,11 L1,11 L1,9 L-1,9 L-1,3 L-5,2 L0,2 Z " fill="#815850" transform="translate(307,541)"/>
<path d="M0,0 L4,5 L4,7 L2,7 L2,11 L-5,11 L-6,3 L0,3 Z " fill="#C69585" transform="translate(346,509)"/>
<path d="M0,0 L3,1 L3,3 L5,3 L7,13 L7,19 L5,19 L1,11 Z " fill="#B07F78" transform="translate(318,501)"/>
<path d="M0,0 L1,2 L7,2 L10,5 L8,5 L8,7 L11,8 L7,8 L7,6 L-3,6 L-3,4 L-13,4 L-13,3 L-3,3 L-3,1 Z " fill="#7B5941" transform="translate(527,654)"/>
<path d="M0,0 L6,1 L32,2 L32,4 L12,5 L4,4 L4,2 L0,1 Z " fill="#9B7762" transform="translate(391,595)"/>
<path d="M0,0 L2,0 L1,4 L-1,4 L-3,9 L-8,13 L-15,17 L-17,16 L-13,11 L-8,11 L-8,8 L-6,8 L-5,3 L-1,2 Z " fill="#A8816E" transform="translate(730,552)"/>
<path d="M0,0 L4,1 L1,1 L1,3 L4,4 L1,7 L1,5 L-1,5 L0,9 L-2,10 L-1,15 L-4,17 L-5,13 L-7,13 L-6,19 L-7,17 L-11,18 L-10,16 L-8,16 L-8,12 L-6,12 L-6,10 L-4,10 L-3,5 L0,4 Z " fill="#7D544D" transform="translate(292,408)"/>
<path d="M0,0 L2,0 L2,2 L11,1 L8,3 L-5,6 L-7,6 L-7,4 L-17,4 L-17,3 L-7,3 L-7,1 Z " fill="#81584E" transform="translate(365,379)"/>
<path d="M0,0 L16,0 L15,2 L0,3 L-8,6 L-14,6 L-13,4 L-8,2 L-1,1 Z " fill="#906C56" transform="translate(633,629)"/>
<path d="M0,0 L8,1 L8,3 L37,3 L37,4 L5,5 L2,6 L2,4 L-1,3 Z " fill="#A37E67" transform="translate(520,625)"/>
<path d="M0,0 L4,0 L4,16 L0,16 Z " fill="#170600" transform="translate(150,432)"/>
<path d="M0,0 L4,1 L1,1 L2,6 L-2,8 L-16,22 L-18,24 L-18,20 L-16,20 L-14,16 L-4,6 L-2,6 L-2,4 L0,4 Z " fill="#18120F" transform="translate(758,552)"/>
<path d="M0,0 L2,1 L1,4 L-4,5 L-6,9 L-10,10 L-11,5 L-10,3 L-12,3 L-12,1 L-9,1 L-9,3 Z " fill="#8D655F" transform="translate(319,400)"/>
<path d="M0,0 L10,0 L10,2 L12,2 L10,6 L8,6 L8,12 L6,12 L6,6 L4,6 L4,12 L2,11 L3,2 L8,2 L0,1 Z " fill="#090100" transform="translate(754,640)"/>
<path d="M0,0 L4,2 L2,2 L2,6 L0,6 L0,8 L-5,12 L-6,14 L-10,14 L-10,16 L-14,15 L-11,15 L-11,13 L-13,12 L-7,13 L-7,11 L-10,11 L-10,9 L-5,6 L-2,5 L-1,3 L-1,5 L1,5 Z " fill="#7C5947" transform="translate(734,576)"/>
<path d="M0,0 L4,0 L4,2 L12,2 L11,8 L7,7 L7,4 L1,7 L1,5 L-2,5 Z " fill="#0E0300" transform="translate(674,341)"/>
<path d="M0,0 L10,1 L12,5 L19,4 L22,8 L17,9 L17,7 L11,6 L11,4 L2,5 Z " fill="#BB7F68" transform="translate(447,426)"/>
<path d="M0,0 L1,3 L5,4 L1,4 L1,6 L-3,6 L-3,8 L-7,8 L-7,10 L-11,10 L-11,12 L-15,11 L-12,11 L-12,9 L-15,9 L-14,5 L-4,7 L-4,5 L-7,4 L0,5 L0,3 L-2,2 L0,2 Z " fill="#7A5942" transform="translate(621,640)"/>
<path d="M0,0 L5,1 L7,6 L9,7 L7,7 L7,9 L10,10 L5,9 L4,6 L-2,6 L-4,3 Z " fill="#815E4C" transform="translate(418,614)"/>
<path d="M0,0 L4,0 L4,2 L10,2 L12,5 L16,6 L15,8 L2,7 L1,3 L3,3 L3,1 Z " fill="#866152" transform="translate(700,426)"/>
<path d="M0,0 L6,1 L7,4 L9,5 L12,12 L11,15 L7,11 L6,8 L3,7 L3,5 L1,5 Z " fill="#B7877A" transform="translate(331,520)"/>
<path d="M0,0 L1,0 L1,7 L3,7 L3,10 L5,10 L3,15 L1,16 L-2,14 L-1,1 Z " fill="#A27268" transform="translate(294,470)"/>
<path d="M0,0 L10,0 L10,2 L14,2 L14,4 L26,4 L26,5 L10,6 L0,4 L0,3 L9,3 L9,1 L0,1 Z " fill="#795344" transform="translate(444,388)"/>
<path d="M0,0 L3,1 L2,3 L0,3 L0,5 L-4,5 L-4,7 L-14,7 L-14,9 L-26,9 L-26,8 L-15,8 L-15,6 L-25,6 L-25,5 L-14,5 L-5,6 L-5,4 L-7,3 L-1,4 L-1,2 L-4,1 Z " fill="#735441" transform="translate(666,631)"/>
<path d="M0,0 L5,0 L4,3 L8,4 L12,6 L11,10 L8,10 L8,8 L2,7 L2,3 L0,3 Z " fill="#AC8976" transform="translate(360,552)"/>
<path d="M0,0 L2,1 L-2,5 L-4,5 L-3,8 L-8,10 L-18,11 L-18,9 L-10,8 L-9,6 L-6,6 L-6,2 Z " fill="#BD877A" transform="translate(358,416)"/>
<path d="M0,0 L9,1 L5,2 L5,4 L-3,4 L-3,6 L-5,6 L-5,8 L-9,8 L-9,10 L-11,10 L-11,12 L-13,12 L-13,14 L-17,13 L-14,13 L-14,11 L-16,10 L-10,9 L-11,6 L-8,6 L-8,4 L-4,5 L-5,2 L4,3 L4,1 Z " fill="#755443" transform="translate(705,594)"/>
<path d="M0,0 L2,0 L2,3 L4,3 L5,0 L7,0 L6,5 L8,5 L8,7 L10,7 L11,10 L9,13 L1,5 Z " fill="#88615A" transform="translate(313,552)"/>
<path d="M0,0 L2,0 L2,4 L5,5 L5,7 L11,6 L17,7 L17,4 L21,5 L20,8 L1,8 L-1,7 Z " fill="#C49381" transform="translate(349,520)"/>
<path d="M0,0 L1,4 L3,4 L3,6 L5,6 L5,10 L7,10 L7,14 L9,14 L9,22 L8,22 L8,15 L6,15 L6,20 L5,20 L6,11 L4,11 L4,15 L0,14 L0,11 L4,10 L3,8 L1,9 L2,5 L-1,4 Z " fill="#78584E" transform="translate(755,486)"/>
<path d="M0,0 L2,1 L2,3 L4,3 L6,14 L6,21 L4,21 L4,13 L2,13 L0,6 Z " fill="#946A62" transform="translate(319,535)"/>
<path d="M0,0 L4,0 L5,8 L10,8 L8,14 L7,12 L3,11 L0,8 Z " fill="#8A6556" transform="translate(739,469)"/>
<path d="M0,0 L8,0 L8,2 L0,5 L-4,10 L-7,13 L-9,16 L-9,10 L-7,10 L-5,6 L-2,5 Z " fill="#986960" transform="translate(300,416)"/>
<path d="M0,0 L17,0 L17,2 L19,3 L0,3 Z " fill="#C18778" transform="translate(391,424)"/>
<path d="M0,0 L11,0 L12,1 L26,3 L22,5 L19,6 L19,4 L14,6 L14,3 L0,2 Z " fill="#A7796B" transform="translate(400,397)"/>
<path d="M0,0 L8,2 L8,5 L-1,5 L-6,7 L-4,3 Z M6,0 Z " fill="#A57863" transform="translate(670,586)"/>
<path d="M0,0 L2,0 L2,6 L5,7 L6,9 L10,11 L10,18 L7,18 L3,9 L0,4 Z " fill="#9D7363" transform="translate(731,479)"/>
<path d="M0,0 L4,0 L4,4 L6,4 L6,6 L8,6 L8,10 L10,10 L9,12 L7,11 L6,13 L3,9 L3,7 L1,7 L0,3 L3,3 L3,1 Z " fill="#7D594A" transform="translate(716,434)"/>
<path d="M0,0 L3,0 L3,3 L8,4 L8,8 L10,9 L1,8 L-2,6 Z " fill="#9A6F5F" transform="translate(652,412)"/>
<path d="M0,0 L13,1 L16,4 L4,4 L0,3 L-6,4 L-2,1 Z " fill="#977365" transform="translate(612,399)"/>
<path d="M0,0 L7,0 L7,4 L-3,5 L-7,4 L-7,2 Z " fill="#87614D" transform="translate(713,590)"/>
<path d="M0,0 L4,1 L4,11 L2,11 L1,20 L-1,19 L-1,10 L2,9 L2,5 L0,5 Z " fill="#C19187" transform="translate(330,488)"/>
<path d="M0,0 L8,0 L8,1 L1,2 L-2,4 L-8,6 L-11,7 L-13,5 L-14,3 L-10,1 L-2,1 Z " fill="#BA8571" transform="translate(558,429)"/>
<path d="M0,0 L9,0 L9,2 L12,2 L12,4 L15,4 L15,6 L6,5 L3,4 L3,2 L0,1 Z " fill="#8F6356" transform="translate(417,385)"/>
<path d="M0,0 L4,2 L5,6 L7,11 L4,14 L1,14 Z " fill="#AE8372" transform="translate(732,507)"/>
<path d="M0,0 L7,1 L10,9 L6,10 L5,7 L2,7 Z " fill="#967464" transform="translate(350,566)"/>
<path d="M0,0 L2,0 L1,4 Z M-2,4 L0,5 L-3,11 L-7,15 L-8,18 L-13,18 L-11,14 L-4,8 Z " fill="#9F7966" transform="translate(733,553)"/>
<path d="M0,0 L11,1 L11,3 L13,4 L11,7 L7,6 L2,4 Z " fill="#B67C66" transform="translate(469,429)"/>
<path d="M0,0 L1,2 L7,2 L7,4 L2,6 L1,8 L-5,7 L-4,3 L0,2 Z " fill="#050200" transform="translate(629,738)"/>
<path d="M0,0 L1,3 L-6,9 L-10,9 L-10,11 L-12,10 L-12,7 L-5,3 L-1,1 Z M-4,2 Z " fill="#946A64" transform="translate(320,405)"/>
<path d="M0,0 L1,3 L5,4 L3,4 L3,15 L5,15 L5,5 L7,8 L8,16 L6,19 L2,16 L2,4 L0,4 Z " fill="#795850" transform="translate(324,566)"/>
<path d="M0,0 L2,4 L6,6 L7,12 L2,11 L-1,5 Z " fill="#A77C70" transform="translate(333,535)"/>
<path d="M0,0 L7,1 L8,9 L3,10 L2,4 L0,3 Z " fill="#C08F81" transform="translate(333,511)"/>
<path d="M0,0 L2,0 L2,7 L4,7 L4,9 L-8,10 L-8,8 L-4,8 L-4,4 L-2,4 L-2,6 L0,6 Z " fill="#230700" transform="translate(758,646)"/>
<path d="M0,0 L5,0 L5,5 L12,7 L13,9 L6,9 L5,6 L2,6 L2,4 L0,4 L-1,1 Z " fill="#A3806D" transform="translate(352,555)"/>
<path d="M0,0 L1,2 L-1,6 L-1,11 L-4,12 L-5,10 L-7,10 L-7,7 L-4,7 L-4,2 L-6,1 Z " fill="#BA917F" transform="translate(720,543)"/>
<path d="M0,0 L2,0 L2,4 L4,4 L4,6 L7,7 L8,12 L3,13 L0,5 Z " fill="#AA7A71" transform="translate(323,520)"/>
<path d="M0,0 L20,0 L20,1 L1,1 L1,3 L10,3 L6,4 L6,6 L0,6 Z " fill="#785344" transform="translate(522,394)"/>
<path d="M0,0 L4,0 L6,13 L5,11 L2,11 L0,5 Z " fill="#A77C6B" transform="translate(731,491)"/>
<path d="M0,0 L8,0 L11,5 L9,5 L8,7 L7,6 L-6,5 L-6,3 L7,3 L7,1 L0,1 Z " fill="#7F5B4D" transform="translate(682,416)"/>
<path d="M0,0 L9,0 L9,2 L17,2 L17,4 L24,5 L24,6 L15,6 L15,4 L9,4 L7,2 L0,1 Z " fill="#9E7060" transform="translate(419,395)"/>
<path d="M0,0 L1,2 L7,1 L7,3 L9,2 L15,2 L15,5 L1,5 L-1,4 Z " fill="#A46F5A" transform="translate(481,418)"/>
<path d="M0,0 L12,0 L12,1 L1,1 L1,3 L3,4 L0,5 L0,3 L-3,3 L-3,5 L-1,5 L-1,7 L-5,8 L-5,5 L-7,5 L-8,8 L-8,4 L-4,4 L-4,2 L0,2 Z " fill="#74524C" transform="translate(336,384)"/>
<path d="M0,0 L8,0 L7,6 L5,6 L5,4 L-2,4 Z " fill="#180A00" transform="translate(632,736)"/>
<path d="M0,0 L7,0 L8,4 L6,6 L-1,6 L-1,3 L1,3 Z " fill="#BF9986" transform="translate(692,557)"/>
<path d="M0,0 L4,1 L7,2 L7,4 L4,4 L5,7 L0,8 L-1,3 L-3,1 Z " fill="#8B6553" transform="translate(712,433)"/>
<path d="M0,0 L5,2 L6,3 L6,10 L4,8 L0,7 L-1,3 Z " fill="#AB8270" transform="translate(716,477)"/>
<path d="M0,0 L6,0 L6,1 L1,1 L1,4 L3,5 L-1,10 L-3,9 L-5,5 L-2,5 L-2,2 L0,2 Z M-4,10 Z " fill="#835A54" transform="translate(298,404)"/>
<path d="M0,0 L4,1 L4,4 L10,3 L13,4 L12,8 L3,6 L3,2 L0,1 Z " fill="#906B5E" transform="translate(639,400)"/>
<path d="M0,0 L6,0 L7,4 L6,6 L2,6 L2,4 L-2,4 Z " fill="#030000" transform="translate(670,736)"/>
<path d="M0,0 L2,0 L1,5 L-2,7 L-5,10 L-7,5 L-3,4 L-3,2 Z " fill="#A87B66" transform="translate(639,592)"/>
<path d="M0,0 L5,0 L6,1 L16,2 L16,4 L3,4 L0,2 Z " fill="#906F5E" transform="translate(379,597)"/>
<path d="M0,0 L2,4 L4,6 L4,13 L0,13 L0,6 L-2,5 L0,5 Z " fill="#8A5A4F" transform="translate(289,510)"/>
<path d="M0,0 L14,0 L10,2 L6,3 L2,1 L2,4 L0,4 L0,6 L2,6 L2,8 L-1,8 L-1,2 Z " fill="#090200" transform="translate(734,688)"/>
<path d="M0,0 L3,1 L2,3 L5,4 L8,5 L8,3 L10,2 L17,2 L17,3 L11,4 L10,6 L-2,6 L0,2 Z " fill="#B4856E" transform="translate(566,592)"/>
<path d="M0,0 L7,1 L7,3 L11,4 L4,4 L4,6 L15,6 L15,7 L3,7 L3,5 L-1,4 L3,4 L3,2 L0,2 Z " fill="#77574B" transform="translate(339,589)"/>
<path d="M0,0 L1,0 L1,8 L-1,16 L-4,19 L-4,13 L-1,6 Z M-5,19 Z M-6,20 Z " fill="#B18675" transform="translate(735,522)"/>
<path d="M0,0 L4,0 L5,7 L3,8 L0,9 L-1,1 Z M-2,4 Z " fill="#89644E" transform="translate(672,616)"/>
<path d="M0,0 L5,2 L10,4 L10,5 L1,5 L-3,4 L-4,1 Z " fill="#B38973" transform="translate(675,571)"/>
<path d="M0,0 L7,0 L7,6 L4,6 L4,8 L2,8 L2,1 Z " fill="#1C0400" transform="translate(748,681)"/>
<path d="M0,0 L4,0 L4,4 L1,6 L0,10 L-2,10 L-2,8 L-4,8 L-2,4 L0,4 Z " fill="#170300" transform="translate(812,612)"/>
<path d="M0,0 L1,0 L0,14 L-2,15 L-4,18 L-5,14 L-1,4 Z " fill="#A9816F" transform="translate(736,534)"/>
<path d="M0,0 L4,1 L4,3 L10,3 L10,6 L0,5 Z " fill="#0E0300" transform="translate(860,460)"/>
<path d="M0,0 L1,2 L7,2 L9,3 L9,5 L13,5 L12,7 L-4,3 Z " fill="#B48971" transform="translate(475,594)"/>
<path d="M0,0 L2,0 L3,6 L9,8 L5,10 L-2,9 L-2,7 L0,7 Z " fill="#8E6A62" transform="translate(325,556)"/>
<path d="M0,0 L1,4 L3,4 L3,8 L5,8 L4,12 L4,9 L2,9 L1,12 L-1,9 Z " fill="#7B594A" transform="translate(727,446)"/>
<path d="M0,0 L11,0 L11,2 L13,2 L13,4 L8,4 L8,2 L-2,2 Z " fill="#AA7967" transform="translate(425,406)"/>
<path d="M0,0 L10,0 L10,2 L6,2 L6,4 L0,4 Z " fill="#040100" transform="translate(620,760)"/>
<path d="M0,0 L5,0 L5,5 L2,4 L-6,4 L-6,2 L0,2 Z " fill="#210B00" transform="translate(646,739)"/>
<path d="M0,0 L4,2 L7,5 L6,9 L0,4 Z " fill="#856057" transform="translate(331,582)"/>
<path d="M0,0 L8,0 L8,4 L0,4 Z " fill="#040000" transform="translate(848,584)"/>
<path d="M0,0 L5,1 L7,3 L5,6 L0,6 Z " fill="#B48671" transform="translate(664,573)"/>
<path d="M0,0 L4,0 L4,8 L0,8 Z " fill="#0F0300" transform="translate(200,536)"/>
<path d="M0,0 L6,0 L8,3 L14,4 L14,5 L5,6 L0,4 L0,3 L5,3 L5,1 L0,1 Z " fill="#785244" transform="translate(430,382)"/>
<path d="M0,0 L6,1 L6,3 L1,4 L-8,3 L-7,1 Z " fill="#A17C69" transform="translate(406,592)"/>
<path d="M0,0 L2,0 L2,14 L1,14 L1,7 L-3,8 L-4,4 L0,5 Z " fill="#120400" transform="translate(882,546)"/>
<path d="M0,0 L4,1 L-1,5 L-5,7 L-10,9 L-8,4 L0,3 Z " fill="#AA7A6F" transform="translate(358,400)"/>
<path d="M0,0 L4,0 L4,3 L2,3 L2,6 L-6,6 L-6,4 L0,4 Z " fill="#140600" transform="translate(218,636)"/>
<path d="M0,0 L2,0 L2,4 L4,4 L6,6 L8,6 L7,9 L-1,9 L-1,7 L1,6 L0,2 Z " fill="#8E6B58" transform="translate(356,588)"/>
<path d="M0,0 L1,0 L1,8 L-1,8 L-1,12 L-5,11 L-2,11 L-2,9 L-5,9 L-3,1 L-2,1 L-2,7 L0,7 Z " fill="#75584E" transform="translate(763,540)"/>
<path d="M0,0 L2,4 L5,5 L6,7 L6,13 L4,13 L0,5 Z " fill="#AD7D74" transform="translate(319,507)"/>
<path d="M0,0 L4,1 L1,1 L1,3 L4,4 L1,7 L1,5 L-1,5 L0,9 L-4,10 L-3,5 L0,4 Z " fill="#76504A" transform="translate(292,408)"/>
<path d="M0,0 L1,0 L1,6 L-13,6 L-12,4 L-3,5 L-3,2 L0,2 Z " fill="#170600" transform="translate(747,682)"/>
<path d="M0,0 L10,0 L9,2 L6,3 L-2,3 L-2,1 Z " fill="#916D55" transform="translate(534,644)"/>
<path d="M0,0 L8,0 L8,2 L15,3 L15,4 L0,3 Z M15,2 Z " fill="#BA947D" transform="translate(416,560)"/>
<path d="M0,0 L1,4 L3,5 L2,9 L0,9 L-1,12 L-1,9 L-3,8 L-2,4 L0,4 Z " fill="#7E554C" transform="translate(280,426)"/>
<path d="M0,0 L6,0 L6,3 L0,4 L0,2 L-3,2 L-3,4 L-6,5 L-6,3 L-4,3 L-4,1 Z " fill="#815C56" transform="translate(310,399)"/>
<path d="M0,0 L3,1 L2,4 L0,4 L0,8 L-4,8 L-2,2 Z " fill="#967163" transform="translate(750,540)"/>
<path d="M0,0 L1,0 L2,5 L5,4 L7,11 L-1,7 L-1,1 Z " fill="#B18374" transform="translate(341,533)"/>
<path d="M0,0 L1,4 L5,6 L5,10 L1,10 L-1,3 Z " fill="#110A09" transform="translate(291,526)"/>
<path d="M0,0 L11,1 L11,3 L4,4 L4,2 L-1,3 Z " fill="#AB8575" transform="translate(688,459)"/>
<path d="M0,0 L2,1 L-3,7 L-8,6 L-5,5 L-5,2 Z " fill="#B38074" transform="translate(351,412)"/>
<path d="M0,0 L6,0 L8,3 L12,4 L13,7 L9,8 L11,7 L11,5 L5,6 L5,1 L0,1 Z " fill="#79574B" transform="translate(654,400)"/>
<path d="M0,0 L3,2 L1,3 L1,6 L-4,6 L-4,1 Z " fill="#89614C" transform="translate(682,611)"/>
<path d="M0,0 L2,0 L1,5 L2,6 L2,11 L0,11 L0,9 L-2,9 L-1,2 Z " fill="#B08674" transform="translate(352,538)"/>
<path d="M0,0 L1,0 L1,15 L0,15 L0,7 L-3,7 L-3,3 L0,3 Z " fill="#110300" transform="translate(201,513)"/>
<path d="M0,0 L2,4 L1,21 L0,21 L-1,4 Z " fill="#A07066" transform="translate(292,442)"/>
<path d="M0,0 L5,1 L6,4 L4,6 L0,5 L-1,2 Z " fill="#836051" transform="translate(693,421)"/>
<path d="M0,0 L5,1 L6,4 L4,6 L0,5 L-1,2 Z " fill="#815D4E" transform="translate(667,407)"/>
<path d="M0,0 L4,1 L-1,7 L-3,7 L-4,11 L-5,5 L-3,4 Z " fill="#7D5A49" transform="translate(743,565)"/>
<path d="M0,0 L2,0 L2,2 L4,2 L4,0 L6,0 L6,3 L8,4 L6,4 L5,8 L4,4 L0,2 Z " fill="#8A6457" transform="translate(747,483)"/>
<path d="M0,0 L5,1 L5,4 L8,5 L5,9 L4,3 L0,3 Z " fill="#A88372" transform="translate(704,466)"/>
<path d="M0,0 Z M-2,1 L0,2 L-5,6 L-7,6 L-7,8 L-11,8 L-10,5 Z " fill="#9A7461" transform="translate(715,577)"/>
<path d="M0,0 L1,0 L1,7 L6,7 L6,14 L4,14 L2,9 L0,8 Z " fill="#764C43" transform="translate(288,516)"/>
<path d="M0,0 L6,2 L6,7 L2,6 L2,3 L0,3 Z " fill="#BC9282" transform="translate(702,492)"/>
<path d="M0,0 L2,0 L2,6 L6,6 L6,10 L4,10 L4,8 L0,6 Z " fill="#140400" transform="translate(870,466)"/>
<path d="M0,0 L4,1 L4,3 L7,3 L6,5 L1,5 L1,3 L-2,3 L-2,1 Z " fill="#89644A" transform="translate(491,642)"/>
<path d="M0,0 L2,1 L2,3 L-2,5 L-10,5 L-8,3 L-1,1 Z M2,0 Z " fill="#98745C" transform="translate(618,628)"/>
<path d="M0,0 L4,0 L5,2 L4,5 L2,5 L1,8 L0,8 Z " fill="#8E6853" transform="translate(666,618)"/>
<path d="M0,0 L1,3 L-3,5 L-6,7 L-9,6 Z " fill="#9F7A67" transform="translate(715,572)"/>
<path d="M0,0 L4,1 L3,4 L-7,4 L-10,2 L0,3 Z " fill="#CA9782" transform="translate(366,524)"/>
<path d="M0,0 L1,2 L9,3 L8,6 L-2,5 L-2,3 L0,3 Z " fill="#C28873" transform="translate(423,423)"/>
<path d="M0,0 L2,1 L-2,5 L-6,6 L-6,2 Z " fill="#BA8477" transform="translate(358,416)"/>
<path d="M0,0 L5,1 L5,3 L9,4 L6,4 L6,7 L1,5 L4,4 L4,2 L-1,3 Z " fill="#7A5749" transform="translate(673,411)"/>
<path d="M0,0 L8,0 L8,2 L6,2 L5,5 L4,3 L0,2 Z " fill="#916F63" transform="translate(336,565)"/>
<path d="M0,0 L3,0 L3,6 L5,6 L4,8 L0,6 Z " fill="#926D64" transform="translate(327,556)"/>
<path d="M0,0 L6,0 L8,3 L12,4 L11,6 L5,6 L5,1 L0,1 Z " fill="#765547" transform="translate(704,428)"/>
<path d="M0,0 L4,0 L4,2 L10,2 L10,4 L2,4 Z " fill="#AA7B6B" transform="translate(640,425)"/>
<path d="M0,0 L3,0 L3,2 L5,2 L5,5 L-3,3 Z " fill="#A97C69" transform="translate(605,415)"/>
<path d="M0,0 L7,1 L7,4 L1,4 L-1,3 Z " fill="#AC7D71" transform="translate(393,400)"/>
<path d="M0,0 L3,0 L3,4 L-5,4 L-5,2 L0,2 Z " fill="#1E0A00" transform="translate(628,755)"/>
<path d="M0,0 L2,0 L0,4 L-5,10 L-6,6 L-4,6 L-2,2 L0,2 Z " fill="#16100C" transform="translate(682,618)"/>
<path d="M0,0 L5,1 L4,3 L-2,4 L-8,3 L-8,2 L0,2 Z " fill="#BC8E74" transform="translate(528,595)"/>
<path d="M0,0 L2,1 L-3,5 L-7,4 L-5,1 Z " fill="#BC8D73" transform="translate(500,594)"/>
<path d="M0,0 L9,0 L9,5 L7,5 L7,3 L1,3 Z " fill="#AA826A" transform="translate(419,588)"/>
<path d="M0,0 L2,0 L2,3 L-1,3 L-1,6 L-5,6 L-5,2 L0,2 Z " fill="#8C6755" transform="translate(742,561)"/>
<path d="M0,0 L3,0 L4,5 L-1,5 L-2,3 Z " fill="#C59A85" transform="translate(677,555)"/>
<path d="M0,0 L1,4 L-1,4 L-1,6 L-4,7 L-5,3 L-4,1 L-2,1 L-2,3 L0,3 Z " fill="#7C5D50" transform="translate(757,552)"/>
<path d="M0,0 L4,1 L4,10 L2,10 L2,4 L0,4 Z " fill="#090200" transform="translate(218,548)"/>
<path d="M0,0 L1,3 L3,3 L4,0 L7,3 L5,3 L5,10 L4,10 L4,4 L0,4 Z " fill="#744C45" transform="translate(296,532)"/>
<path d="M0,0 L1,2 L3,2 L3,7 L1,7 L0,9 L-1,4 Z " fill="#AE8878" transform="translate(701,468)"/>
<path d="M0,0 L3,0 L3,6 L-3,4 L-3,2 L0,2 Z " fill="#1C0A00" transform="translate(604,763)"/>
<path d="M0,0 L3,1 L0,8 L-2,8 L-2,2 Z " fill="#230500" transform="translate(765,644)"/>
<path d="M0,0 L2,0 L2,2 L0,2 L0,4 L2,4 L2,7 L-2,8 L-2,2 Z " fill="#110200" transform="translate(830,596)"/>
<path d="M0,0 L6,0 L4,4 L0,5 L-1,2 Z " fill="#A88775" transform="translate(388,576)"/>
<path d="M0,0 L4,0 L4,6 L0,4 Z " fill="#060100" transform="translate(204,528)"/>
<path d="M0,0 L5,3 L8,5 L8,7 L3,6 L0,2 Z " fill="#9A7464" transform="translate(691,433)"/>
<path d="M0,0 L4,1 L1,1 L1,3 L3,3 L3,5 L-2,6 L-2,2 L0,2 Z " fill="#7E5C56" transform="translate(324,392)"/>
<path d="M0,0 L3,0 L3,4 L-3,4 L-2,1 Z " fill="#1B0900" transform="translate(613,752)"/>
<path d="M0,0 L3,0 L3,4 L-3,4 L-2,1 Z " fill="#1E0B00" transform="translate(613,744)"/>
<path d="M0,0 L6,0 L6,5 L4,5 L3,3 L-1,1 Z " fill="#230E00" transform="translate(633,737)"/>
<path d="M0,0 L2,0 L2,4 L-6,4 L-6,2 L0,2 Z " fill="#150500" transform="translate(726,712)"/>
<path d="M0,0 L4,1 L4,6 L0,5 Z " fill="#A17E6B" transform="translate(392,588)"/>
<path d="M0,0 L4,1 L4,4 L2,4 L3,8 L1,8 L1,4 L-3,3 L1,3 Z " fill="#77534C" transform="translate(311,548)"/>
<path d="M0,0 L2,1 L3,9 L0,9 Z " fill="#B28575" transform="translate(733,512)"/>
<path d="M0,0 L3,1 L-2,9 L-3,9 L-3,3 L-1,3 Z " fill="#A07066" transform="translate(296,429)"/>
<path d="M0,0 L5,0 L5,2 L7,2 L7,5 L-1,3 Z " fill="#A6705B" transform="translate(471,418)"/>
<path d="M0,0 L5,1 L5,4 L1,4 Z " fill="#A0705F" transform="translate(444,402)"/>
<path d="M0,0 L8,0 L5,1 L5,4 L1,4 Z " fill="#120400" transform="translate(686,346)"/>
<path d="M0,0 L4,2 L4,4 L2,4 L2,6 L-2,6 L-2,4 L1,4 Z " fill="#090100" transform="translate(752,674)"/>
<path d="M0,0 L2,0 L2,3 L0,3 L0,5 L-4,6 L-3,2 L0,2 Z " fill="#120100" transform="translate(808,622)"/>
<path d="M0,0 L4,2 L3,4 L-2,5 L-2,1 Z " fill="#AD8774" transform="translate(357,548)"/>
<path d="M0,0 L4,0 L4,5 L0,4 Z " fill="#B88D7C" transform="translate(716,496)"/>
<path d="M0,0 L2,0 L2,3 L-6,4 L-6,2 Z " fill="#8E635D" transform="translate(305,403)"/>
<path d="M0,0 L2,0 L1,4 L-5,4 L-5,2 Z " fill="#160700" transform="translate(597,772)"/>
<path d="M0,0 L3,0 L3,3 L1,3 L1,10 L-1,9 Z " fill="#0C0300" transform="translate(757,642)"/>
<path d="M0,0 L2,2 L10,3 L10,4 L0,4 L-2,1 Z " fill="#6A5040" transform="translate(364,600)"/>
<path d="M0,0 L4,0 L5,6 L2,6 L2,1 Z " fill="#875951" transform="translate(301,535)"/>
<path d="M0,0 L3,1 L5,8 L1,6 Z " fill="#906B5B" transform="translate(734,469)"/>
<path d="M0,0 L2,4 L0,6 L-2,10 L-2,2 L0,2 Z " fill="#080100" transform="translate(714,352)"/>
<path d="M0,0 L7,2 L3,4 L-1,1 Z " fill="#BE9076" transform="translate(513,594)"/>
<path d="M0,0 L4,0 L4,4 L0,4 Z " fill="#A2716A" transform="translate(315,520)"/>
<path d="M0,0 L4,0 L4,4 L0,4 Z " fill="#C29684" transform="translate(712,508)"/>
<path d="M0,0 L5,1 L8,4 L5,4 L0,1 Z " fill="#977161" transform="translate(693,434)"/>
<path d="M0,0 L3,0 L2,6 L0,6 Z " fill="#0C0300" transform="translate(192,490)"/>
<path d="M0,0 L7,0 L5,2 L-1,3 Z " fill="#C58E7A" transform="translate(491,460)"/>
<path d="M0,0 L2,0 L3,5 L-1,5 Z " fill="#1B0800" transform="translate(742,690)"/>
<path d="M0,0 L2,0 L2,2 L4,3 L3,6 L1,6 Z " fill="#170700" transform="translate(738,670)"/>
<path d="M0,0 L6,1 L5,4 L2,4 L2,2 L0,2 Z " fill="#100100" transform="translate(766,640)"/>
<path d="M0,0 L6,0 L6,2 L1,4 L-2,3 Z " fill="#B98A72" transform="translate(507,600)"/>
<path d="M0,0 L3,1 L1,6 L-1,6 L-1,1 Z " fill="#1E0600" transform="translate(866,575)"/>
<path d="M0,0 L2,0 L3,5 L-1,4 Z " fill="#86574F" transform="translate(295,527)"/>
<path d="M0,0 L1,2 L4,2 L4,4 L0,5 L-1,2 Z " fill="#8C6656" transform="translate(699,425)"/>
<path d="M0,0 L7,1 L7,3 L1,3 Z " fill="#926E57" transform="translate(506,637)"/>
<path d="M0,0 L2,2 L6,4 L0,4 L-2,1 Z " fill="#6B4F3E" transform="translate(416,616)"/>
<path d="M0,0 L6,1 L6,3 L0,2 Z " fill="#D19E8B" transform="translate(354,512)"/>
<path d="M0,0 L3,0 L3,2 L5,3 L1,3 L-1,1 Z " fill="#DAA190" transform="translate(369,468)"/>
<path d="M0,0 L4,2 L1,6 Z " fill="#876151" transform="translate(723,445)"/>
<path d="M0,0 L2,0 L0,4 L-3,4 L-2,1 Z " fill="#180700" transform="translate(675,342)"/>
<path d="M0,0 L2,0 L1,4 L-2,4 Z " fill="#1B0B00" transform="translate(626,740)"/>
<path d="M0,0 L4,0 L4,3 L0,3 Z " fill="#0B0000" transform="translate(788,632)"/>
<path d="M0,0 L2,0 L1,4 L-2,4 Z " fill="#170300" transform="translate(822,604)"/>
<path d="M0,0 L5,0 L0,4 L-1,1 Z " fill="#9D705B" transform="translate(661,599)"/>
<path d="M0,0 L3,0 L3,4 L0,4 Z " fill="#0D0200" transform="translate(213,532)"/>
<path d="M0,0 L4,0 L4,3 L0,3 Z " fill="#E0AD92" transform="translate(544,525)"/>
<path d="M0,0 L5,0 L2,1 L1,4 L-1,3 Z " fill="#C89784" transform="translate(386,517)"/>
<path d="M0,0 L3,0 L2,4 L0,4 L-1,1 Z " fill="#90695E" transform="translate(751,496)"/>
<path d="M0,0 L3,1 L1,2 L0,4 L-4,1 Z " fill="#856050" transform="translate(690,419)"/>
<path d="M0,0 L1,2 L3,2 L4,0 L4,3 L-1,4 Z " fill="#170700" transform="translate(612,764)"/>
<path d="M0,0 L3,0 L3,4 L0,3 Z " fill="#0F0200" transform="translate(758,659)"/>
<path d="M0,0 L2,2 L-1,6 L-2,3 Z " fill="#AA8471" transform="translate(726,554)"/>
<path d="M0,0 L5,0 L5,2 L1,4 Z " fill="#9C7465" transform="translate(641,413)"/>
<path d="M0,0 L2,0 L0,4 L-2,4 Z " fill="#1C0A00" transform="translate(734,680)"/>
<path d="M0,0 L2,0 L3,4 L0,4 Z " fill="#160500" transform="translate(860,460)"/>
</svg>
