<?xml version="1.0" encoding="utf-8" ?>
<svg baseProfile="tiny" height="512px" version="1.2" viewBox="0,0,512,512" width="512px" xmlns="http://www.w3.org/2000/svg" xmlns:ev="http://www.w3.org/2001/xml-events" xmlns:xlink="http://www.w3.org/1999/xlink"><defs /><polygon fill="none" points="354,94 344,96 344,101 353,101" stroke="#00E5FF" stroke-width="1.2" /><polygon fill="none" points="378,170 376,174 381,180 383,174" stroke="#00E5FF" stroke-width="1.2" /><polygon fill="none" points="222,162 211,172 213,178 196,195 207,187 213,179 211,173" stroke="#00E5FF" stroke-width="1.2" /><polygon fill="none" points="337,144 337,149 342,149 358,166 364,160 376,169 362,159 357,165" stroke="#00E5FF" stroke-width="1.2" /><polygon fill="none" points="208,366 206,363 206,369 200,374 200,379 193,384 163,384 184,382 193,385 203,377 202,374" stroke="#00E5FF" stroke-width="1.2" /><polygon fill="none" points="211,164 189,187 189,192 174,208 186,197 191,185 194,184 195,189 197,178" stroke="#00E5FF" stroke-width="1.2" /><polygon fill="none" points="174,210 162,212 148,229 153,243 151,233 147,231 159,220 163,212" stroke="#00E5FF" stroke-width="1.2" /><polygon fill="none" points="400,191 391,194 391,200 394,192 400,192 396,209 392,212 383,209 388,215 384,227 377,230 384,228 388,213 395,211" stroke="#00E5FF" stroke-width="1.2" /><polygon fill="none" points="358,171 366,185 375,193 376,191 366,184" stroke="#00E5FF" stroke-width="1.2" /></svg>