<?xml version="1.0" encoding="UTF-8"?>
<!-- Generator: visioncortex VTracer 0.6.4 -->
<svg version="1.1" xmlns="http://www.w3.org/2000/svg" width="1024" height="1024">
<path d="M0,0 L1024,0 L1024,1024 L0,1024 Z " fill="#000000" transform="translate(0,0)"/>
<path d="M0,0 L650,0 L650,30 L648,30 L648,34 L646,34 L646,40 L644,40 L644,44 L642,44 L642,46 L640,46 L640,48 L636,48 L636,50 L634,50 L634,52 L630,52 L630,54 L622,54 L622,56 L620,56 L620,62 L618,62 L618,66 L610,66 L610,74 L616,74 L616,82 L614,82 L614,90 L616,90 L618,93 L626,94 L632,101 L636,102 L636,104 L642,104 L642,102 L650,102 L650,104 L654,104 L654,106 L658,106 L658,104 L660,104 L660,98 L658,98 L658,86 L662,86 L662,84 L664,84 L664,74 L666,74 L666,70 L668,70 L668,68 L672,68 L672,66 L676,66 L676,64 L690,64 L690,62 L730,62 L730,64 L740,64 L740,66 L746,66 L746,68 L756,68 L758,71 L764,72 L764,74 L770,74 L770,76 L774,76 L774,80 L776,80 L776,82 L778,82 L778,92 L780,92 L780,108 L784,108 L784,110 L790,110 L790,112 L796,112 L796,114 L804,114 L804,116 L806,116 L806,120 L808,120 L808,126 L812,126 L812,134 L808,134 L808,136 L810,136 L810,142 L808,142 L810,147 L812,148 L812,154 L814,154 L814,160 L816,160 L816,168 L818,168 L818,174 L822,174 L822,180 L824,180 L824,194 L826,194 L826,214 L828,214 L828,220 L826,220 L826,224 L824,224 L824,226 L826,226 L826,236 L824,236 L824,238 L826,238 L826,246 L824,246 L824,250 L820,250 L820,252 L826,252 L826,258 L828,258 L828,260 L830,260 L830,286 L826,286 L826,288 L824,288 L824,294 L814,294 L814,296 L808,296 L808,294 L788,294 L788,292 L778,292 L778,290 L770,290 L770,292 L742,292 L742,290 L740,290 L740,286 L738,286 L738,288 L730,288 L730,286 L712,286 L712,284 L706,284 L706,280 L698,280 L698,276 L696,276 L696,272 L694,272 L694,260 L696,260 L696,256 L694,256 L694,250 L698,250 L698,248 L674,248 L674,250 L650,250 L650,248 L636,248 L636,246 L630,246 L630,244 L614,244 L614,242 L606,242 L606,240 L602,240 L602,238 L598,238 L598,234 L590,234 L590,232 L584,232 L584,230 L580,230 L580,228 L578,228 L578,222 L580,222 L580,218 L578,218 L578,212 L576,212 L576,206 L562,206 L562,204 L546,204 L546,206 L540,206 L538,202 L532,202 L532,204 L526,204 L526,202 L522,202 L522,204 L516,204 L514,200 L502,200 L500,196 L496,196 L496,190 L490,190 L490,180 L488,180 L484,176 L484,170 L486,170 L486,166 L490,166 L492,162 L493,160 L486,160 L486,158 L464,158 L464,160 L450,160 L450,158 L448,158 L448,164 L444,164 L444,166 L438,166 L438,170 L440,170 L440,176 L436,176 L436,184 L432,184 L432,196 L430,196 L430,202 L428,202 L428,220 L426,220 L426,228 L424,228 L424,236 L426,236 L426,248 L424,248 L424,256 L426,256 L426,264 L424,264 L424,272 L426,272 L426,284 L424,284 L424,302 L426,302 L426,318 L424,318 L424,350 L426,350 L426,370 L424,370 L424,384 L426,384 L426,418 L424,418 L424,438 L426,438 L426,460 L424,460 L424,462 L426,462 L426,498 L424,498 L424,546 L422,546 L422,550 L424,550 L424,564 L422,564 L422,574 L424,574 L424,586 L426,586 L426,594 L424,594 L424,670 L426,670 L426,682 L424,682 L424,696 L422,696 L422,704 L424,704 L424,756 L426,756 L426,770 L424,770 L424,784 L422,784 L422,798 L426,798 L426,816 L424,816 L424,832 L426,832 L426,858 L424,858 L424,862 L426,862 L426,868 L424,868 L424,878 L422,878 L422,884 L424,884 L424,890 L428,890 L428,904 L424,904 L424,918 L420,918 L420,926 L422,926 L422,936 L420,936 L420,946 L416,946 L416,952 L412,956 L404,956 L404,958 L398,958 L398,956 L392,956 L390,952 L388,952 L388,958 L382,958 L382,968 L380,968 L380,996 L378,996 L378,1024 L0,1024 Z " fill="#F3FDFE" transform="translate(0,0)"/>
<path d="M0,0 L244,0 L244,132 L242,132 L242,138 L244,138 L244,164 L242,164 L242,270 L244,270 L244,272 L242,272 L242,300 L244,300 L244,318 L242,318 L242,330 L244,330 L244,358 L246,358 L246,364 L242,364 L242,370 L246,370 L246,372 L244,372 L244,378 L242,378 L242,392 L245,393 L244,398 L242,398 L242,408 L244,408 L244,418 L242,418 L242,446 L244,446 L244,512 L242,512 L242,552 L244,552 L244,582 L242,582 L242,594 L244,594 L244,598 L242,598 L242,612 L244,612 L244,622 L242,622 L242,662 L240,662 L240,670 L242,670 L242,692 L244,692 L244,708 L242,708 L242,722 L244,722 L244,786 L242,786 L242,830 L240,830 L240,856 L242,856 L242,862 L240,862 L240,872 L242,872 L242,876 L244,876 L244,884 L246,884 L246,888 L248,888 L248,890 L252,890 L254,893 L260,894 L260,902 L268,902 L268,908 L272,908 L272,914 L276,916 L276,918 L274,918 L274,930 L270,930 L270,934 L266,934 L266,938 L260,938 L260,940 L254,940 L254,942 L248,942 L248,944 L246,944 L246,946 L244,946 L244,948 L242,948 L242,950 L222,950 L222,952 L206,952 L206,954 L196,954 L196,960 L190,960 L190,964 L188,964 L188,966 L184,966 L184,974 L182,974 L182,980 L184,980 L184,986 L188,986 L188,988 L192,988 L192,992 L196,992 L196,994 L194,994 L194,996 L192,996 L192,1000 L190,1000 L190,1004 L188,1004 L188,1006 L186,1006 L186,1024 L0,1024 Z " fill="#000000" transform="translate(0,0)"/>
<path d="M0,0 L8,0 L8,8 L10,8 L10,12 L12,12 L12,16 L22,16 L22,32 L24,32 L24,38 L22,38 L22,56 L20,56 L20,64 L24,64 L24,66 L22,66 L22,72 L24,72 L24,74 L22,74 L22,84 L20,84 L20,86 L12,86 L12,88 L8,88 L8,94 L6,94 L6,104 L2,104 L2,114 L-6,114 L-6,108 L-12,108 L-12,110 L-14,110 L-14,112 L-18,112 L-18,108 L-22,108 L-22,96 L-24,96 L-24,88 L-26,88 L-26,80 L-30,80 L-30,60 L-42,60 L-42,54 L-38,54 L-38,52 L-36,52 L-36,48 L-32,48 L-32,38 L-26,38 L-26,32 L-22,32 L-22,28 L-20,28 L-20,22 L-18,22 L-18,20 L-8,20 L-8,18 L-6,18 L-6,8 L-17,9 L-18,12 L-20,12 L-19,7 L-16,6 L-16,4 L0,4 Z " fill="#030303" transform="translate(332,834)"/>
<path d="M0,0 L1,0 L2,100 L3,100 L4,137 L5,138 L5,210 L4,211 L4,229 L8,227 L8,277 L9,278 L9,284 L6,289 L5,291 L7,291 L7,322 L6,323 L6,332 L7,334 L5,334 L6,350 L8,355 L9,372 L6,374 L5,385 L7,386 L6,388 L6,393 L8,396 L6,398 L5,405 L5,408 L8,412 L6,417 L4,420 L4,434 L5,446 L6,450 L5,461 L8,462 L6,464 L6,495 L5,518 L8,519 L6,523 L7,532 L8,542 L6,547 L6,582 L5,586 L7,586 L9,581 L10,581 L9,592 L6,595 L5,602 L4,606 L6,606 L7,616 L5,636 L4,638 L3,664 L1,669 L0,670 L-1,692 L-2,692 L-2,670 L-4,670 L-4,662 L-2,662 L-2,622 L0,622 L0,612 L-2,612 L-2,598 L0,598 L0,594 L-2,594 L-2,582 L0,582 L0,552 L-2,552 L-2,512 L0,512 L0,446 L-2,446 L-2,418 L0,418 L0,408 L-2,408 L-2,398 L0,398 L0,393 L-2,392 L-2,378 L0,378 L0,372 L2,372 L2,370 L-2,370 L-2,364 L2,364 L2,358 L0,358 L0,330 L-2,330 L-2,318 L0,318 L0,300 L-2,300 L-2,272 L0,272 L0,270 L-2,270 L-2,164 L0,164 L0,138 L-2,138 L-2,132 L0,132 Z M6,540 Z M4,610 Z " fill="#E4FDFD" transform="translate(244,0)"/>
<path d="M0,0 L1,4 L3,4 L3,10 L1,10 L1,20 L-1,20 L-1,26 L1,26 L1,32 L5,32 L5,46 L1,46 L1,60 L-3,60 L-3,68 L-1,68 L-1,78 L-3,78 L-3,88 L-7,88 L-7,94 L-11,98 L-19,98 L-19,100 L-25,100 L-25,98 L-31,98 L-33,94 L-35,94 L-35,100 L-41,100 L-43,97 L-43,89 L-40,87 L-40,78 L-35,76 L-37,79 L-37,84 L-35,84 L-33,78 L-28,68 L-23,63 L-20,63 L-20,57 L-22,56 L-17,52 L-16,48 L-14,48 L-14,43 L-11,38 L-7,18 L-6,17 L-6,10 L-3,4 L0,4 Z " fill="#FEE9F7" transform="translate(423,858)"/>
<path d="M0,0 L1,0 L2,17 L2,219 L4,219 L4,240 L2,241 L1,244 L2,279 L2,326 L0,327 L0,355 L-2,355 L-3,347 L-4,354 L-7,354 L-9,357 L-9,342 L-8,335 L-6,335 L-6,326 L-5,325 L-5,296 L-6,296 L-6,261 L-4,261 L-4,236 L-5,220 L-3,201 L-3,197 L-6,197 L-6,178 L-5,177 L-4,164 L-4,161 L-4,156 L-3,155 L-3,128 L-5,126 L-5,98 L-3,97 L-2,82 L-3,65 L-1,62 L-1,1 Z M-5,161 Z " fill="#FEF6FE" transform="translate(421,219)"/>
<path d="M0,0 L1,2 L3,2 L3,8 L1,8 L3,13 L5,14 L5,20 L7,20 L7,26 L9,26 L9,34 L11,34 L11,40 L15,40 L15,46 L17,46 L17,60 L19,60 L19,80 L21,80 L21,86 L19,86 L19,90 L17,90 L17,92 L19,92 L19,102 L17,102 L17,104 L19,104 L19,112 L17,112 L17,116 L13,116 L13,118 L19,118 L19,124 L21,124 L21,126 L23,126 L23,152 L19,152 L19,154 L17,154 L17,160 L7,160 L7,162 L1,162 L1,160 L-19,160 L-19,159 L1,159 L1,156 L-9,156 L-9,155 L0,154 L3,151 L5,151 L6,147 L9,143 L9,132 L7,123 L4,122 L4,104 L6,104 L5,94 L7,94 L9,88 L10,81 L8,81 L9,76 L10,73 L8,73 L9,70 L10,52 L11,48 L9,47 L9,41 L5,40 L5,26 L6,21 L4,21 L4,26 L3,26 L3,21 L0,21 L-1,12 L0,8 L-2,8 L-2,12 L-4,12 L-3,2 L0,2 Z " fill="#FEE6FA" transform="translate(807,134)"/>
<path d="M0,0 L1,0 L1,22 L-1,22 L-1,24 L1,24 L1,60 L-1,60 L-1,108 L-3,108 L-3,112 L-1,112 L-1,126 L-3,126 L-3,136 L-1,136 L-1,148 L1,148 L1,156 L-1,156 L-1,232 L1,232 L1,244 L-1,244 L-1,258 L-3,258 L-3,266 L-1,266 L-1,318 L1,318 L1,332 L-1,332 L-1,346 L-3,346 L-3,360 L1,360 L1,378 L-1,378 L-1,394 L1,394 L1,420 L0,420 L0,395 L-2,395 L-2,419 L-3,419 L-3,395 L-5,395 L-6,384 L-7,381 L-9,383 L-8,378 L-6,372 L-6,362 L-7,360 L-4,360 L-5,346 L-5,332 L-4,332 L-4,345 L-2,345 L-3,332 L-2,267 L-4,267 L-4,276 L-5,276 L-6,151 L-9,149 L-9,139 L-8,128 L-6,126 L-6,136 L-4,136 L-5,126 L-5,90 L-4,90 L-4,107 L-2,107 L-3,60 L-3,25 L-5,24 L-2,24 L-2,22 L-5,21 L0,21 Z M-8,362 Z " fill="#FDF5FC" transform="translate(425,438)"/>
<path d="M0,0 L6,0 L6,1 L1,1 L1,3 L6,3 L2,6 L-5,8 L-10,10 L-13,13 L-15,13 L-17,17 L-20,19 L-18,13 L-37,13 L-37,15 L-31,15 L-31,17 L-36,22 L-37,30 L-49,42 L-52,42 L-53,45 L-63,49 L-64,51 L-67,51 L-67,53 L-64,54 L-68,54 L-68,50 L-72,50 L-72,48 L-76,48 L-76,42 L-78,42 L-78,36 L-76,36 L-76,28 L-72,28 L-72,26 L-70,26 L-70,22 L-64,22 L-64,16 L-54,16 L-54,14 L-38,14 L-38,12 L-18,12 L-18,10 L-16,10 L-16,8 L-14,8 L-14,6 L-12,6 L-12,4 L-6,4 L-6,2 L0,2 Z " fill="#C5FEFC" transform="translate(260,938)"/>
<path d="M0,0 L1,0 L1,9 L3,9 L3,1 L4,1 L4,114 L5,154 L6,124 L8,120 L10,121 L8,125 L9,134 L10,144 L8,149 L8,184 L7,188 L9,188 L11,183 L12,183 L11,194 L8,197 L7,204 L6,208 L8,208 L9,218 L7,238 L6,240 L5,266 L3,271 L2,272 L1,294 L0,294 L0,272 L-2,272 L-2,264 L0,264 L0,224 L2,224 L2,214 L0,214 L0,200 L2,200 L2,196 L0,196 L0,184 L2,184 L2,154 L0,154 L0,114 L2,114 L2,48 L0,48 L0,20 L2,20 L2,10 L0,10 Z M8,142 Z M6,212 Z " fill="#E8FBFE" transform="translate(242,398)"/>
<path d="M0,0 L4,0 L4,132 L2,132 L2,138 L4,138 L4,164 L2,164 L2,270 L4,270 L4,272 L2,272 L2,300 L4,300 L4,318 L2,318 L2,330 L4,330 L4,358 L3,358 L3,331 L1,331 L1,358 L0,358 Z " fill="#0D0F10" transform="translate(240,0)"/>
<path d="M0,0 L3,0 L3,2 L5,2 L5,8 L11,8 L11,6 L16,6 L16,19 L14,46 L16,46 L15,50 L14,54 L12,54 L12,49 L10,49 L11,56 L10,58 L4,58 L4,57 L9,57 L9,55 L1,55 L1,53 L4,53 L4,51 L1,51 L1,38 L-3,38 L-3,30 L-7,30 L-6,23 L-8,22 L-7,20 L-10,19 L-8,12 L-10,11 L-7,10 L-8,8 L-3,9 L-3,1 L-2,1 L-2,10 L0,10 Z " fill="#FDFDFE" transform="translate(561,44)"/>
<path d="M0,0 L4,2 L7,11 L7,22 L3,27 L2,30 L-2,31 L-2,35 L-2,38 L-22,38 L-22,36 L-31,36 L-31,32 L-45,32 L-61,30 L-69,26 L-73,25 L-74,26 L-70,26 L-70,28 L-75,27 L-80,25 L-80,26 L-93,25 L-103,24 L-111,24 L-111,22 L-107,21 L-109,19 L-104,18 L-104,20 L-101,18 L-93,18 L-93,19 L-86,21 L-85,19 L-77,20 L-74,19 L-74,23 L-66,23 L-66,25 L-62,25 L-63,20 L-60,20 L-60,22 L-56,21 L-56,24 L-43,24 L-42,25 L-24,26 L-24,28 L-21,26 L-6,25 L-4,23 L-1,23 L2,16 L3,11 L1,11 Z " fill="#FEF3FE" transform="translate(810,255)"/>
<path d="M0,0 L19,0 L18,4 L15,14 L11,15 L9,15 L9,20 L5,25 L-2,31 L-3,35 L-8,40 L-16,44 L-23,52 L-25,53 L-27,51 L-32,58 L-33,73 L-37,73 L-37,55 L-35,55 L-35,53 L-33,53 L-33,49 L-31,49 L-31,45 L-29,45 L-29,43 L-27,43 L-27,40 L-30,40 L-30,38 L-27,38 L-25,34 L-16,31 L-15,29 L-10,26 L-1,17 L0,9 L4,4 L6,4 L6,2 L0,2 Z M-25,50 Z " fill="#DBFEFE" transform="translate(223,951)"/>
<path d="M0,0 L9,0 L8,33 L8,65 L6,84 L5,86 L4,132 L0,131 Z " fill="#E4FDFD" transform="translate(245,0)"/>
<path d="M0,0 L1,0 L2,100 L3,100 L4,137 L4,164 L3,164 L3,138 L1,138 L2,164 L2,212 L1,212 L1,165 L-1,165 L-1,269 L1,269 L1,260 L2,260 L2,330 L1,357 L3,357 L3,352 L4,352 L4,378 L3,378 L3,373 L1,373 L2,378 L2,391 L1,391 L1,379 L-1,379 L0,392 L-2,392 L-2,378 L0,378 L0,372 L2,372 L2,370 L-2,370 L-2,364 L2,364 L2,358 L0,358 L0,330 L-2,330 L-2,318 L0,318 L0,300 L-2,300 L-2,272 L0,272 L0,270 L-2,270 L-2,164 L0,164 L0,138 L-2,138 L-2,132 L0,132 Z " fill="#BFD9DB" transform="translate(244,0)"/>
<path d="M0,0 L4,0 L4,14 L0,14 L0,28 L-4,28 L-4,36 L-2,36 L-2,46 L-4,46 L-4,56 L-8,56 L-8,62 L-12,66 L-20,66 L-20,68 L-26,68 L-26,66 L-32,66 L-34,62 L-36,62 L-36,68 L-42,68 L-42,67 L-37,67 L-37,62 L-39,62 L-38,59 L-31,58 L-29,56 L-29,61 L-31,61 L-31,65 L-26,65 L-25,63 L-22,64 L-21,56 L-18,50 L-15,50 L-14,46 L-12,34 L-10,31 L-8,18 L-6,18 L-3,1 L-2,3 L1,3 L1,10 L3,10 L3,1 Z " fill="#FED7ED" transform="translate(424,890)"/>
<path d="M0,0 L1,0 L1,5 L3,5 L3,0 L4,0 L4,6 L2,6 L2,24 L0,24 L0,32 L-2,32 L-2,40 L0,40 L0,52 L-2,52 L-2,60 L0,60 L0,68 L-2,68 L-2,76 L0,76 L0,88 L-2,88 L-2,106 L0,106 L0,122 L-2,122 L-2,154 L0,154 L0,174 L-2,174 L-2,188 L0,188 L0,222 L-2,222 L-2,242 L-3,242 L-4,222 L-4,15 L-3,6 L-1,6 L-1,23 L1,23 Z M-5,18 Z " fill="#E3DCE2" transform="translate(426,196)"/>
<path d="M0,0 L1,0 L2,111 L4,111 L4,189 L2,190 L2,204 L-1,204 L-2,207 L-4,207 L-4,191 L-1,189 L0,165 L1,163 L0,161 L-1,139 L-1,111 L-2,110 L-2,102 L-1,101 L-1,89 L-2,89 L-3,78 L-3,49 L-1,47 Z " fill="#FDF3FC" transform="translate(419,594)"/>
<path d="M0,0 L1,0 L2,16 L2,242 L1,278 L0,278 L0,242 L-2,242 L-2,240 L0,240 L0,218 L-2,218 L-2,198 L0,198 L0,164 L-2,164 L-2,150 L0,150 L0,130 L-2,130 L-2,98 L0,98 L0,82 L-2,82 L-2,64 L0,64 L0,52 L-2,52 L-2,44 L0,44 L0,36 L-2,36 L-2,28 L0,28 L0,16 L-2,16 L-2,8 L0,8 Z " fill="#201F20" transform="translate(426,220)"/>
<path d="M0,0 L16,0 L16,1 L1,1 L1,3 L12,3 L12,5 L4,12 L2,15 L-2,15 L-4,20 L-6,20 L-6,22 L-10,23 L-11,28 L-17,29 L-17,31 L-19,31 L-19,28 L-21,28 L-21,33 L-13,32 L-8,32 L-11,35 L-10,37 L-13,37 L-13,39 L-10,40 L-14,40 L-14,36 L-18,36 L-18,34 L-22,34 L-22,28 L-24,28 L-24,22 L-22,22 L-22,14 L-18,14 L-18,12 L-16,12 L-16,8 L-10,8 L-10,2 L0,2 Z " fill="#B9FEFB" transform="translate(206,952)"/>
<path d="M0,0 L4,2 L2,2 L2,12 L4,12 L4,22 L2,22 L2,50 L4,50 L4,116 L2,116 L2,156 L4,156 L4,186 L2,186 L2,198 L4,198 L4,202 L2,202 L2,216 L1,216 L0,198 Z " fill="#0E1010" transform="translate(240,396)"/>
<path d="M0,0 L1,0 L1,9 L3,9 L3,1 L4,1 L4,196 L3,200 L5,201 L5,214 L3,214 L3,224 L2,224 L2,214 L0,214 L0,200 L2,200 L2,196 L0,196 L0,184 L2,184 L2,154 L0,154 L0,114 L2,114 L2,48 L0,48 L0,20 L2,20 L2,10 L0,10 Z " fill="#C9DEE1" transform="translate(242,398)"/>
<path d="M0,0 L1,0 L1,39 L3,39 L3,0 L4,0 L4,40 L2,40 L2,48 L4,48 L4,70 L6,70 L6,86 L4,86 L4,100 L6,100 L6,164 L4,164 L4,208 L3,208 L2,164 L2,70 L3,49 L1,49 L1,70 L0,70 Z " fill="#151616" transform="translate(238,622)"/>
<path d="M0,0 L1,3 L3,3 L4,0 L5,3 L10,4 L10,5 L3,5 L3,7 L16,6 L27,8 L32,8 L36,7 L40,10 L44,11 L44,9 L40,9 L41,7 L52,11 L53,12 L71,14 L84,14 L83,19 L92,19 L92,20 L82,20 L82,18 L74,18 L74,20 L46,20 L46,18 L44,18 L44,14 L42,14 L42,16 L34,16 L34,14 L16,14 L16,12 L10,12 L10,8 L2,8 L2,4 L0,4 Z " fill="#FEEEFC" transform="translate(696,272)"/>
<path d="M0,0 L1,0 L1,22 L-1,22 L-1,24 L1,24 L1,60 L-1,60 L-1,108 L-3,108 L-3,112 L-1,112 L-1,126 L-3,126 L-3,136 L-1,136 L-1,148 L1,148 L1,156 L-1,156 L-1,232 L-2,232 L-3,149 L-5,149 L-5,90 L-4,90 L-4,107 L-2,107 L-3,60 L-3,25 L-5,24 L-2,24 L-2,22 L-5,21 L0,21 Z " fill="#DFD3DE" transform="translate(425,438)"/>
<path d="M0,0 L1,0 L1,11 L6,11 L6,36 L4,36 L4,40 L1,40 L-1,48 L-1,53 L-3,58 L-6,74 L-10,80 L-15,85 L-15,78 L-13,74 L-11,74 L-10,64 L-8,64 L-8,56 L-5,52 L-6,45 L-2,36 L-4,35 L-2,29 L-7,32 L-7,26 L-5,24 L-2,24 L-4,12 L-2,12 L-2,6 Z M-7,50 Z " fill="#FEF0FE" transform="translate(419,822)"/>
<path d="M0,0 L1,2 L7,2 L7,8 L9,8 L9,10 L11,10 L11,36 L7,36 L7,38 L5,38 L5,44 L-5,44 L-5,46 L-11,46 L-11,44 L-31,44 L-31,43 L-11,43 L-11,40 L-2,37 L0,37 L1,33 L2,32 L2,13 L0,10 L-1,3 Z " fill="#FED7EF" transform="translate(819,250)"/>
<path d="M0,0 L16,0 L16,2 L20,2 L20,4 L28,4 L28,6 L38,6 L38,4 L44,4 L44,12 L0,12 L0,8 L-4,8 L-4,4 L0,4 Z " fill="#161616" transform="translate(418,82)"/>
<path d="M0,0 L1,0 L1,52 L3,52 L3,66 L1,66 L1,80 L-1,80 L-1,94 L3,94 L3,112 L1,112 L1,128 L3,128 L3,154 L2,154 L2,129 L0,129 L0,153 L-1,153 L-1,129 L-3,129 L-4,118 L-5,115 L-7,117 L-6,112 L-4,106 L-4,96 L-5,94 L-2,94 L-3,80 L-3,66 L-2,66 L-2,79 L0,79 L-1,66 Z M-6,96 Z " fill="#EDE2EC" transform="translate(423,704)"/>
<path d="M0,0 L1,4 L3,4 L3,10 L1,10 L1,20 L-1,20 L-1,26 L1,26 L1,33 L4,33 L4,42 L2,42 L2,35 L-1,35 L-5,50 L-7,50 L-7,58 L-9,64 L-11,74 L-14,82 L-17,83 L-21,96 L-24,95 L-22,95 L-23,92 L-27,94 L-27,91 L-23,89 L-21,82 L-18,72 L-15,64 L-13,58 L-8,48 L-7,40 L-5,40 L-5,36 L-3,36 L-3,27 L-5,26 L-2,26 L-3,20 L-3,9 L-1,9 L-1,5 L-3,4 L0,4 Z " fill="#FEDCEE" transform="translate(423,858)"/>
<path d="M0,0 L38,0 L38,5 L48,5 L48,7 L54,7 L54,9 L64,9 L66,11 L69,14 L65,17 L53,14 L46,13 L40,14 L39,10 L29,8 L22,5 L11,3 L0,2 Z " fill="#F1FEFE" transform="translate(691,63)"/>
<path d="M0,0 L6,0 L6,4 L4,4 L4,10 L2,10 L2,16 L8,16 L8,28 L6,28 L6,36 L8,36 L8,46 L0,46 L0,32 L2,32 L2,26 L0,26 L0,18 L-2,18 L-2,16 L-6,16 L-6,8 L-8,8 L-8,4 L0,4 Z " fill="#0B0B0B" transform="translate(290,978)"/>
<path d="M0,0 L12,0 L12,28 L10,28 L10,30 L0,30 Z " fill="#030303" transform="translate(578,0)"/>
<path d="M0,0 L12,0 L12,2 L8,2 L8,8 L6,8 L6,18 L8,18 L8,24 L12,24 L12,26 L28,26 L28,28 L4,28 L4,37 L-1,37 L0,48 L-2,48 L-2,44 L-4,44 L-4,34 L-2,34 L-2,32 L0,32 Z " fill="#1C1C1C" transform="translate(418,130)"/>
<path d="M0,0 L2,0 L2,2 L0,2 L1,7 L-3,7 L-3,9 L7,9 L8,10 L9,41 L8,39 L-2,39 L-3,25 L-2,24 L-1,10 L-6,9 L-6,7 L-4,7 L-4,5 L-7,6 L-5,1 Z " fill="#DDE6E6" transform="translate(287,632)"/>
<path d="M0,0 L2,0 L2,4 L5,4 L5,6 L22,5 L31,9 L31,11 L42,11 L43,9 L47,11 L54,12 L54,16 L46,17 L46,21 L44,21 L44,15 L30,15 L30,13 L14,13 L14,15 L8,15 L6,13 L6,10 L0,10 L-2,6 L-2,2 L0,2 Z " fill="#FEF7FE" transform="translate(532,191)"/>
<path d="M0,0 L2,1 L0,4 L2,5 L2,9 L-4,20 L-6,23 L-12,23 L-16,26 L-23,32 L-25,36 L-31,37 L-32,33 L-28,29 L-25,29 L-23,25 L-20,24 L-19,19 L-11,12 L-9,8 L-8,4 L-2,2 Z " fill="#E6FEFE" transform="translate(240,962)"/>
<path d="M0,0 L1,0 L2,8 L2,84 L1,96 L0,96 L0,84 L-2,84 L-2,8 L0,8 Z " fill="#121112" transform="translate(426,586)"/>
<path d="M0,0 L6,1 L0,8 L-2,12 L0,12 L1,17 L0,26 L6,26 L6,24 L8,24 L9,26 L12,27 L12,29 L17,29 L17,32 L25,32 L26,35 L37,35 L40,38 L36,38 L36,40 L41,40 L41,41 L35,41 L35,39 L31,39 L31,41 L25,41 L23,37 L11,37 L9,33 L5,33 L5,27 L-1,27 L-1,17 L-3,17 L-7,13 L-7,7 L-5,7 L-5,3 L-1,3 Z " fill="#F1E3EF" transform="translate(491,163)"/>
<path d="M0,0 L2,0 L2,2 L8,2 L8,6 L16,6 L16,10 L18,10 L18,22 L16,22 L16,24 L14,24 L14,30 L10,30 L10,26 L6,26 L6,14 L2,14 L2,6 L-2,6 L-1,1 Z " fill="#070707" transform="translate(556,68)"/>
<path d="M0,0 L4,0 L4,6 L6,6 L6,20 L8,20 L8,40 L10,40 L10,46 L8,46 L8,50 L6,50 L6,52 L8,52 L8,62 L6,62 L6,64 L8,64 L8,72 L6,72 L6,76 L2,75 L5,75 L5,73 L2,73 L2,71 L4,71 L4,65 L2,64 L5,64 L5,62 L2,61 L4,61 L4,53 L2,52 L5,52 L5,50 L2,49 L4,21 L2,21 L2,6 L3,1 Z " fill="#ECDAE9" transform="translate(818,174)"/>
<path d="M0,0 L3,0 L3,18 L2,52 L0,57 L-1,58 L-2,80 L-3,80 L-3,58 L-5,58 L-5,50 L-3,50 L-3,10 L0,10 Z " fill="#EDFAFC" transform="translate(245,612)"/>
<path d="M0,0 L1,2 L3,2 L3,8 L1,8 L3,13 L5,14 L5,20 L7,20 L7,26 L9,26 L9,34 L11,34 L11,41 L14,41 L14,66 L12,78 L10,81 L8,81 L9,76 L10,73 L8,73 L9,70 L10,52 L11,48 L9,47 L9,41 L5,40 L5,26 L6,21 L4,21 L4,26 L3,26 L3,21 L0,21 L-1,12 L0,8 L-2,8 L-2,12 L-4,12 L-3,2 L0,2 Z " fill="#FEECFD" transform="translate(807,134)"/>
<path d="M0,0 L4,2 L7,11 L7,22 L3,27 L2,30 L-2,31 L-2,35 L-2,38 L-22,38 L-22,36 L-31,36 L-31,32 L-26,31 L-8,30 L-2,27 L0,24 L2,24 L3,11 L1,11 Z " fill="#FEEAFD" transform="translate(810,255)"/>
<path d="M0,0 L1,0 L2,100 L3,100 L4,137 L4,164 L3,164 L3,138 L1,138 L2,164 L2,212 L1,212 L1,165 L-1,164 L0,138 L-2,138 L-2,132 L0,132 Z " fill="#C1DADB" transform="translate(244,0)"/>
<path d="M0,0 L1,0 L1,9 L-1,9 L-1,13 L-3,13 L-3,21 L-8,31 L-11,39 L-14,49 L-17,56 L-19,63 L-23,64 L-23,67 L-18,64 L-18,68 L-21,68 L-21,70 L-26,70 L-26,66 L-24,66 L-24,55 L-22,55 L-20,45 L-17,39 L-15,39 L-15,34 L-12,28 L-9,27 L-7,20 L-5,17 L-4,9 L-2,9 L-2,3 Z M-22,49 Z " fill="#FEE3F1" transform="translate(419,885)"/>
<path d="M0,0 L40,0 L40,2 L50,2 L50,4 L56,4 L56,6 L66,6 L68,9 L74,10 L74,12 L80,12 L80,14 L84,14 L84,18 L86,18 L86,20 L88,20 L88,30 L90,30 L90,46 L89,46 L89,31 L87,31 L87,46 L86,46 L86,30 L87,21 L85,21 L85,30 L84,30 L83,20 L79,18 L79,16 L73,16 L73,14 L67,14 L65,11 L55,10 L55,8 L49,8 L49,6 L39,6 L39,4 L37,3 L39,3 L39,1 L0,1 Z " fill="#DFE9E9" transform="translate(690,62)"/>
<path d="M0,0 L2,0 L3,8 L2,20 L4,21 L3,23 L3,28 L5,31 L3,33 L2,40 L2,43 L5,47 L3,52 L1,55 L1,81 L-1,81 L-2,42 L-4,42 L-4,33 L-3,28 L-4,26 L-4,14 L-2,13 L-2,8 L0,7 Z " fill="#E0FCFD" transform="translate(247,365)"/>
<path d="M0,0 L1,4 L3,4 L4,0 L15,0 L15,10 L13,10 L13,12 L3,12 L3,14 L1,14 L1,20 L-1,20 L-1,24 L-5,23 L-2,23 L-2,21 L-5,21 L-4,17 L-6,17 L-6,12 L-8,12 L-9,17 L-12,20 L-15,20 L-15,17 L-12,17 L-12,12 L-11,11 L-5,11 L-5,14 L-2,14 L-2,19 L0,19 L-1,12 L2,13 L2,11 L-2,11 L-4,11 L-4,9 L-9,10 L-7,5 L-3,6 L-4,8 L-2,8 L-2,4 L0,4 Z " fill="#E6EBEE" transform="translate(311,842)"/>
<path d="M0,0 L2,0 L2,78 L0,79 L0,93 L-3,93 L-4,96 L-6,96 L-6,80 L-3,78 L-2,54 L-1,51 Z " fill="#FEF9FE" transform="translate(421,705)"/>
<path d="M0,0 L10,0 L10,34 L8,34 L8,32 L6,32 L6,24 L2,24 L2,18 L0,18 Z " fill="#0E0E0E" transform="translate(460,0)"/>
<path d="M0,0 L1,0 L2,20 L2,112 L1,148 L0,148 L0,112 L-2,112 L-2,110 L0,110 L0,88 L-2,88 L-2,68 L0,68 L0,34 L-2,34 L-2,20 L0,20 Z " fill="#121012" transform="translate(426,350)"/>
<path d="M0,0 L2,0 L2,8 L2,12 L2,18 L0,18 L0,20 L3,20 L3,22 L0,23 L-1,28 L1,35 L2,36 L2,55 L-1,60 L-5,61 L-3,53 L-1,53 L-2,37 L-6,29 L-5,13 L-4,11 L-2,11 Z " fill="#FEDFF4" transform="translate(820,227)"/>
<path d="M0,0 L6,0 L6,2 L20,2 L20,4 L44,4 L44,2 L68,2 L68,4 L64,4 L64,10 L66,10 L66,14 L64,14 L64,26 L63,26 L62,10 L63,6 L61,6 L60,10 L60,6 L6,6 L-1,3 Z " fill="#1B1A1B" transform="translate(630,246)"/>
<path d="M0,0 L8,0 L8,44 L0,44 L0,40 L2,40 L2,38 L4,38 L4,12 L2,12 L2,4 L0,4 Z " fill="#1E1E1E" transform="translate(470,34)"/>
<path d="M0,0 L1,4 L3,4 L3,12 L7,12 L7,14 L9,14 L9,22 L11,22 L11,28 L9,28 L9,42 L8,42 L8,28 L4,27 L4,15 L2,15 L2,26 L-2,26 L-2,12 L-6,12 L-6,16 L-4,16 L-5,18 L-11,17 L-11,11 L1,11 L2,5 L0,5 L-1,9 Z " fill="#EAE8EC" transform="translate(281,982)"/>
<path d="M0,0 L2,0 L3,12 L6,13 L6,27 L-7,27 L-7,12 L0,11 Z " fill="#FDF8FE" transform="translate(283,997)"/>
<path d="M0,0 L1,0 L1,39 L3,39 L3,0 L4,0 L4,40 L2,40 L2,48 L4,48 L4,70 L6,70 L6,86 L4,86 L4,100 L3,100 L2,86 L2,70 L3,49 L1,49 L1,70 L0,70 Z " fill="#191B1C" transform="translate(238,622)"/>
<path d="M0,0 L16,0 L16,1 L1,1 L1,3 L12,3 L12,4 L1,4 L0,7 L-6,6 L-6,11 L-10,11 L-10,13 L-7,13 L-7,16 L-12,16 L-13,19 L-16,19 L-16,21 L-19,22 L-19,15 L-21,15 L-20,27 L-21,23 L-23,23 L-23,28 L-24,28 L-24,22 L-22,22 L-22,14 L-18,14 L-18,12 L-16,12 L-16,8 L-10,8 L-10,2 L0,2 Z " fill="#A7EFEA" transform="translate(206,952)"/>
<path d="M0,0 L6,0 L6,1 L1,1 L1,3 L6,3 L2,6 L-5,8 L-10,10 L-13,13 L-15,13 L-17,17 L-20,19 L-18,13 L-37,13 L-37,15 L-31,15 L-31,16 L-37,16 L-39,21 L-41,21 L-43,24 L-45,24 L-44,19 L-42,19 L-42,17 L-53,17 L-53,15 L-38,15 L-38,12 L-18,12 L-18,10 L-16,10 L-16,8 L-14,8 L-14,6 L-12,6 L-12,4 L-6,4 L-6,2 L0,2 Z " fill="#C4FDFB" transform="translate(260,938)"/>
<path d="M0,0 L1,0 L1,8 L3,8 L3,18 L1,18 L1,28 L-3,28 L-3,34 L-7,38 L-15,38 L-15,37 L-9,36 L-13,34 L-11,34 L-9,30 L-6,18 L-4,18 L-3,8 L0,8 Z " fill="#FDC5DC" transform="translate(419,918)"/>
<path d="M0,0 L1,0 L1,40 L3,40 L3,70 L1,70 L1,82 L3,82 L3,86 L1,86 L1,100 L0,100 L-1,82 L-1,40 Z " fill="#171A1B" transform="translate(241,512)"/>
<path d="M0,0 L1,0 L2,44 L2,90 L0,90 L0,86 L-2,86 L-2,76 L0,76 L0,70 L-2,70 L-2,44 L0,44 Z " fill="#DFE0E1" transform="translate(242,786)"/>
<path d="M0,0 L5,1 L5,3 L1,4 L0,8 L4,8 L4,20 L2,20 L2,25 L0,26 L0,43 L-2,43 L-2,26 L-6,27 L-5,14 L-3,14 L-3,3 L0,3 Z " fill="#FDF9FC" transform="translate(427,176)"/>
<path d="M0,0 L6,0 L6,1 L1,1 L2,10 L2,38 L1,38 L1,14 L-1,14 L0,38 L0,66 L-4,66 L-4,38 L-2,38 L-2,10 L0,10 Z " fill="#101010" transform="translate(382,958)"/>
<path d="M0,0 L2,0 L2,2 L4,2 L4,8 L10,8 L10,6 L12,6 L12,18 L-6,18 L-8,16 L-8,12 L-6,12 L-6,14 L0,14 Z " fill="#171717" transform="translate(562,44)"/>
<path d="M0,0 L2,0 L2,2 L5,0 L13,0 L13,1 L20,3 L21,1 L29,2 L32,1 L32,8 L36,8 L36,10 L31,9 L26,7 L26,8 L13,7 L3,6 L-5,6 L-5,4 L-1,3 L-3,1 Z " fill="#FEE9F5" transform="translate(704,273)"/>
<path d="M0,0 L1,0 L2,17 L2,83 L-2,82 L-3,65 L-1,62 L-1,1 Z " fill="#FDFCFD" transform="translate(421,219)"/>
<path d="M0,0 L2,0 L1,7 L-11,19 L-14,19 L-15,22 L-19,24 L-24,24 L-24,22 L-22,22 L-22,19 L-8,8 L-2,1 Z M-25,24 Z M-27,25 L-25,26 L-28,26 Z " fill="#CDFEFE" transform="translate(222,961)"/>
<path d="M0,0 L4,0 L4,30 L2,30 L2,34 L0,34 L0,40 L-2,40 L-2,44 L-4,44 L-5,46 L-5,44 L-7,43 L-3,43 L-5,32 L-1,30 L-1,33 L1,33 L0,30 Z " fill="#E4EDED" transform="translate(646,0)"/>
<path d="M0,0 L41,0 L41,2 L53,2 L56,4 L52,5 L56,7 L50,7 L50,5 L40,5 L40,3 L-1,4 Z " fill="#101212" transform="translate(690,59)"/>
<path d="M0,0 Z M-12,-2 L-11,-2 L-11,5 L-4,5 L-4,3 L-9,3 L-9,-2 L-7,1 L0,1 L-2,4 L-3,11 L-1,11 L-1,6 L1,6 L1,8 L3,9 L1,17 L3,17 L3,12 L5,12 L6,19 L9,20 L7,25 L6,34 L5,34 L5,23 L3,23 L4,38 L3,39 L-5,39 L-6,42 L-6,38 L-2,38 L-2,34 L2,34 L2,22 L4,22 L0,18 L0,12 L-4,12 L-4,6 L-12,6 Z " fill="#D3EBEB" transform="translate(272,896)"/>
<path d="M0,0 L11,0 L13,6 L17,5 L19,7 L21,6 L27,7 L29,6 L30,10 L37,11 L37,12 L31,12 L31,14 L37,14 L37,15 L26,16 L26,12 L16,12 L15,8 L7,8 L6,6 L2,5 L2,3 L0,3 Z " fill="#FEF3FE" transform="translate(501,187)"/>
<path d="M0,0 L1,0 L1,10 L3,10 L3,22 L5,22 L5,30 L3,30 L3,106 L2,106 L1,23 L-1,23 L-1,10 Z " fill="#D7CBD6" transform="translate(421,564)"/>
<path d="M0,0 L6,0 L6,6 L8,6 L8,8 L10,8 L10,34 L6,34 L6,36 L4,36 L4,42 L-6,42 L-6,44 L-12,44 L-12,42 L-32,42 L-32,41 L-12,41 L-11,38 L-11,40 L-7,38 L0,38 L0,36 L2,36 L3,34 L5,35 L4,32 L9,33 L8,10 L7,16 L6,16 L6,9 L7,7 L4,8 L5,1 L0,1 Z " fill="#DBB7CB" transform="translate(820,252)"/>
<path d="M0,0 L2,0 L0,10 L-3,14 L-6,22 L-10,26 L-8,26 L-8,31 L-14,31 L-15,29 L-15,21 L-12,19 L-12,10 L-7,8 L-9,11 L-9,16 L-7,16 L-5,10 Z " fill="#FEF1F6" transform="translate(395,926)"/>
<path d="M0,0 L1,3 L3,3 L4,0 L5,3 L10,4 L10,5 L3,5 L3,7 L16,6 L27,8 L32,8 L36,7 L41,12 L35,12 L35,11 L17,11 L17,13 L34,13 L34,14 L16,14 L16,12 L10,12 L10,8 L2,8 L2,4 L0,4 Z " fill="#F0D6E1" transform="translate(696,272)"/>
<path d="M0,0 L12,0 L12,2 L8,3 L7,7 L5,7 L5,3 L3,3 L3,8 L5,8 L5,18 L3,18 L3,35 L-1,34 Z " fill="#111111" transform="translate(418,130)"/>
<path d="M0,0 L4,0 L4,34 L2,34 L2,54 L1,54 L0,34 Z " fill="#E8DEE7" transform="translate(422,384)"/>
<path d="M0,0 L1,0 L1,52 L3,52 L3,66 L1,66 L1,80 L-1,80 L-1,94 L-2,94 L-3,80 L-3,66 L-2,66 L-2,79 L0,79 L-1,66 Z " fill="#D8CCD7" transform="translate(423,704)"/>
<path d="M0,0 L1,0 L2,42 L1,46 L3,47 L3,60 L1,60 L1,70 L0,70 L0,60 L-2,60 L-2,46 L0,46 L0,42 L-2,42 L-2,30 L0,30 Z " fill="#C4D6DB" transform="translate(244,552)"/>
<path d="M0,0 L2,0 L0,9 L1,9 L5,1 L6,1 L5,8 L2,12 L5,15 L-2,15 L-2,18 L-8,18 L-8,16 L-14,16 L-16,12 L-18,12 L-18,18 L-24,18 L-24,17 L-19,17 L-19,12 L-21,12 L-20,9 L-13,8 L-11,6 L-11,11 L-13,11 L-13,15 L-8,15 L-7,13 L-4,14 L-3,6 Z " fill="#FED3E2" transform="translate(406,940)"/>
<path d="M0,0 L6,0 L6,12 L4,12 L4,26 L2,26 L3,35 L1,35 L1,44 L0,44 Z " fill="#EDE3ED" transform="translate(420,670)"/>
<path d="M0,0 L1,2 L3,2 L3,8 L1,8 L3,13 L5,14 L5,20 L7,20 L7,26 L9,26 L9,34 L11,34 L11,40 L10,40 L10,35 L5,35 L5,26 L6,21 L4,21 L4,26 L3,26 L3,21 L0,21 L-1,12 L0,8 L-2,8 L-2,12 L-4,12 L-3,2 L0,2 Z " fill="#EEE8ED" transform="translate(807,134)"/>
<path d="M0,0 L1,0 L1,9 L3,9 L3,1 L4,1 L4,48 L0,48 L0,20 L2,20 L2,10 L0,10 Z " fill="#CCE5E7" transform="translate(242,398)"/>
<path d="M0,0 L4,0 L4,18 L2,18 L2,30 L4,30 L4,58 L3,58 L3,31 L1,31 L1,58 L0,58 Z " fill="#171A1B" transform="translate(240,300)"/>
<path d="M0,0 L1,0 L1,106 L3,106 L3,108 L1,108 L1,136 L0,136 L-1,106 Z " fill="#2F3738" transform="translate(241,164)"/>
<path d="M0,0 L13,0 L13,2 L24,2 L25,0 L29,2 L36,3 L36,7 L28,8 L28,12 L26,12 L26,6 L12,6 L12,4 L-4,4 L-4,3 L12,3 L12,1 L0,1 Z " fill="#E8E3E8" transform="translate(550,200)"/>
<path d="M0,0 L1,0 L1,27 L9,27 L9,0 L12,0 L12,28 L10,28 L10,30 L0,30 Z " fill="#212121" transform="translate(578,0)"/>
<path d="M0,0 L1,0 L2,13 L2,15 L4,15 L3,7 L4,11 L6,11 L6,6 L7,6 L7,12 L5,12 L5,16 L3,16 L3,18 L5,18 L5,28 L3,28 L3,30 L5,30 L5,38 L3,38 L3,42 L-1,41 L2,41 L2,39 L-1,39 L-1,37 L1,37 L1,31 L-1,30 L2,30 L2,28 L-1,27 L1,27 L1,19 L-1,18 L2,18 L2,16 L-1,15 Z " fill="#ECCFE2" transform="translate(821,208)"/>
<path d="M0,0 L2,4 L1,7 L-1,7 L-2,13 L-5,17 L-6,32 L-10,32 L-10,14 L-8,14 L-8,12 L-6,12 L-6,8 L-4,8 L-4,4 L-2,4 L-2,2 L0,2 Z " fill="#D9F0F0" transform="translate(196,992)"/>
<path d="M0,0 L1,0 L2,16 L1,94 L0,94 L0,30 L-2,30 L-2,16 L0,16 Z " fill="#CAD3D4" transform="translate(244,692)"/>
<path d="M0,0 L2,1 L-1,10 L-3,13 L-9,14 L-10,18 L-15,22 L-19,23 L-21,26 L-23,26 L-25,32 L-26,30 L-32,29 L-32,27 L-29,27 L-27,23 L-18,20 L-17,18 L-12,15 L-3,6 Z " fill="#D4FEFD" transform="translate(225,962)"/>
<path d="M0,0 L6,0 L6,2 L12,2 L12,4 L20,4 L20,6 L22,6 L22,10 L24,10 L24,16 L28,16 L28,24 L24,23 L27,23 L27,17 L20,17 L18,8 L12,8 L5,6 L5,4 L0,4 L0,3 L5,3 L5,1 L0,1 Z " fill="#E2DFE1" transform="translate(784,110)"/>
<path d="M0,0 L12,0 L12,20 L16,20 L16,28 L18,28 L18,36 L20,36 L20,48 L19,48 L19,37 L14,37 L13,28 L10,28 L9,20 L11,20 L11,1 L0,1 Z " fill="#D4E2E3" transform="translate(290,894)"/>
<path d="M0,0 L1,0 L2,52 L2,88 L0,88 L0,76 L-2,76 L-2,66 L0,66 L0,52 L-2,52 L-2,48 L0,48 Z " fill="#2C282C" transform="translate(424,498)"/>
<path d="M0,0 L1,0 L2,18 L2,64 L1,70 L0,70 L0,64 L-2,64 L-2,60 L0,60 L0,34 L-2,34 L-2,18 L0,18 Z " fill="#1A181A" transform="translate(426,798)"/>
<path d="M0,0 L1,4 L3,4 L3,12 L5,12 L5,38 L3,38 L3,40 L1,40 L0,44 L1,12 L2,5 L-1,5 Z " fill="#E8E8E8" transform="translate(469,34)"/>
<path d="M0,0 L4,0 L4,9 L6,9 L6,4 L7,4 L6,14 L-1,14 L-1,16 L-4,16 L-5,5 Z " fill="#E7E0E8" transform="translate(783,184)"/>
<path d="M0,0 L6,0 L6,4 L4,4 L4,10 L2,10 L2,16 L1,16 L0,8 L-2,8 L0,17 L-2,18 L-2,16 L-6,16 L-6,8 L-8,8 L-8,4 L0,4 Z " fill="#0D0D0D" transform="translate(290,978)"/>
<path d="M0,0 L4,0 L4,32 L0,32 Z " fill="#111011" transform="translate(424,318)"/>
<path d="M0,0 L1,0 L1,14 L-5,14 L-5,12 L-7,12 L-5,17 L13,18 L13,19 L-5,19 L-5,23 L-3,23 L-3,21 L5,21 L3,23 L-2,23 L-2,25 L3,25 L3,26 L-3,26 L-3,24 L-6,25 L-6,23 L-8,22 L-7,20 L-10,19 L-8,12 L-10,11 L-7,10 L-8,8 L-3,9 L-3,1 L-2,1 L-2,10 L0,10 Z " fill="#E1DDE1" transform="translate(561,44)"/>
<path d="M0,0 L1,0 L1,32 L3,32 L3,52 L1,52 L1,66 L0,66 L-1,52 L-1,32 Z " fill="#DED5DD" transform="translate(423,318)"/>
<path d="M0,0 L5,0 L5,6 L-37,6 L-37,4 L-10,3 L-9,2 L0,2 Z " fill="#000000" transform="translate(456,87)"/>
<path d="M0,0 L16,0 L16,2 L20,2 L20,4 L28,4 L28,6 L38,6 L38,7 L29,8 L28,9 L18,9 L20,7 L27,7 L27,5 L16,6 L15,4 L-4,5 L0,4 Z " fill="#161616" transform="translate(418,82)"/>
<path d="M0,0 L4,0 L4,3 L6,2 L6,26 L0,26 Z " fill="#FDD1EA" transform="translate(823,259)"/>
<path d="M0,0 L1,0 L1,12 L-1,18 L-3,18 L-4,23 L-8,31 L-12,34 L-9,24 L-5,14 L-3,4 Z " fill="#FDCFE2" transform="translate(416,918)"/>
<path d="M0,0 L6,0 L6,2 L20,2 L20,4 L42,4 L42,5 L20,5 L20,7 L43,7 L43,8 L19,8 L19,6 L5,6 L5,4 L-1,4 L-1,3 L5,3 L5,1 L0,1 Z " fill="#E5E4E5" transform="translate(631,242)"/>
<path d="M0,0 L8,0 L8,2 L18,2 L18,4 L38,4 L38,5 L8,6 L1,4 L-28,3 L-28,2 L0,2 Z " fill="#292428" transform="translate(770,290)"/>
<path d="M0,0 L1,3 L0,5 L-2,5 L-2,7 L-4,7 L-4,9 L-24,9 L-40,8 L-40,7 L-24,7 L-24,5 L-4,4 Z " fill="#0D100F" transform="translate(246,941)"/>
<path d="M0,0 L4,0 L4,28 L0,28 Z " fill="#202322" transform="translate(290,642)"/>
<path d="M0,0 L4,0 L4,28 L0,28 Z " fill="#202222" transform="translate(314,34)"/>
<path d="M0,0 L1,0 L2,20 L2,34 L1,68 L0,68 L0,34 L-2,34 L-2,20 L0,20 Z " fill="#252225" transform="translate(426,350)"/>
<path d="M0,0 L1,0 L1,6 L3,6 L3,32 L-1,32 L-1,6 Z " fill="#101313" transform="translate(241,132)"/>
<path d="M0,0 L1,0 L1,16 L3,16 L3,0 L4,0 L4,30 L3,27 L1,27 L2,32 L2,56 L1,53 L-1,53 L-2,56 L-2,52 L0,52 L0,44 L-2,44 L-2,42 L0,42 L0,32 L-2,32 L-2,30 L0,30 L0,26 L2,26 L2,20 L0,20 Z " fill="#2A2326" transform="translate(826,194)"/>
<path d="M0,0 L1,0 L1,5 L3,5 L3,0 L4,0 L4,6 L2,6 L2,24 L0,24 L0,32 L-4,32 L-4,15 L-3,6 L-1,6 L-1,23 L1,23 Z M-5,18 Z " fill="#E9E3E8" transform="translate(426,196)"/>
<path d="M0,0 L1,2 L-1,1 Z M-3,2 L-1,2 L-2,8 L-8,9 L-8,11 L-10,11 L-10,8 L-12,8 L-12,13 L-4,12 L1,12 L-2,15 L-1,17 L-4,17 L-4,19 L-1,20 L-5,20 L-5,16 L-9,16 L-9,14 L-13,14 L-14,3 L-12,3 L-12,7 Z " fill="#BEFDFA" transform="translate(197,972)"/>
<path d="M0,0 L1,2 L13,2 L13,0 L36,0 L36,1 L14,1 L14,3 L36,3 L36,4 L14,4 L14,6 L0,6 L0,4 L-2,3 L0,3 Z " fill="#E6E4E6" transform="translate(450,154)"/>
<path d="M0,0 L1,0 L1,8 L3,8 L3,20 L1,20 L1,28 L3,28 L3,36 L1,36 L1,44 L0,44 L-1,28 L-1,8 Z " fill="#E1DEE1" transform="translate(423,228)"/>
<path d="M0,0 L5,1 L5,3 L11,3 L11,1 L19,1 L19,3 L23,3 L23,5 L27,5 L27,3 L29,4 L28,6 L23,6 L23,8 L27,9 L22,9 L22,7 L18,7 L18,5 L11,7 L4,7 L4,5 L2,4 L4,4 L4,2 L-1,3 Z " fill="#EDF0F1" transform="translate(631,101)"/>
<path d="M0,0 L4,0 L4,26 L0,26 Z " fill="#000000" transform="translate(582,0)"/>
<path d="M0,0 L4,0 L4,18 L3,20 L7,20 L7,32 L6,32 L6,24 L2,24 L2,18 L0,18 Z " fill="#111111" transform="translate(460,0)"/>
<path d="M0,0 L16,0 L16,1 L1,1 L1,3 L12,3 L12,4 L1,4 L0,7 L-6,6 L-6,11 L-11,10 L-15,9 L-16,12 L-16,8 L-10,8 L-10,2 L0,2 Z " fill="#9FE1DC" transform="translate(206,952)"/>
<path d="M0,0 L1,0 L2,14 L2,28 L1,28 L1,18 L-1,18 L0,28 L0,39 L-3,39 L-3,41 L0,42 L-4,42 L-4,28 L-2,28 L-2,14 L0,14 Z " fill="#171517" transform="translate(426,756)"/>
<path d="M0,0 L1,0 L1,22 L3,22 L3,38 L1,38 L1,52 L0,52 L-1,38 L-1,22 Z " fill="#1D2020" transform="translate(241,670)"/>
<path d="M0,0 L1,0 L2,22 L2,74 L0,74 L0,22 L-2,22 L-2,14 L0,14 Z " fill="#393439" transform="translate(424,682)"/>
<path d="M0,0 L13,0 L13,3 L20,4 L22,6 L21,7 L12,7 L12,5 L-10,5 L-9,1 Z " fill="#FEFCFE" transform="translate(474,152)"/>
<path d="M0,0 L8,0 L8,12 L4,13 L0,12 Z " fill="#E7FEFD" transform="translate(312,372)"/>
<path d="M0,0 L1,0 L1,40 L4,41 L2,41 L1,70 L0,70 L0,48 L-2,48 L-2,40 L0,40 Z " fill="#BFCCD1" transform="translate(242,622)"/>
<path d="M0,0 L40,0 L40,2 L50,2 L50,4 L56,4 L56,5 L50,5 L49,8 L49,6 L39,6 L39,4 L37,3 L39,3 L39,1 L0,1 Z " fill="#C8D8D8" transform="translate(690,62)"/>
<path d="M0,0 L1,0 L1,8 L3,8 L3,18 L1,18 L1,28 L-3,27 L0,27 L0,25 L-3,25 L-3,8 L0,8 Z " fill="#E8B2C8" transform="translate(419,918)"/>
<path d="M0,0 L1,4 L3,4 L3,10 L1,10 L1,20 L-1,20 L-1,26 L1,26 L1,32 L0,32 L0,27 L-2,27 L-2,32 L-3,32 L-3,27 L-5,26 L-2,26 L-3,20 L-3,9 L-1,9 L-1,5 L-3,4 L0,4 Z " fill="#E6D1E0" transform="translate(423,858)"/>
<path d="M0,0 L1,0 L2,18 L1,58 L0,58 L0,30 L-2,30 L-2,18 L0,18 Z " fill="#BDD5D8" transform="translate(244,300)"/>
<path d="M0,0 L3,0 L3,30 L-1,31 Z " fill="#EDEDED" transform="translate(590,0)"/>
<path d="M0,0 L2,1 L0,7 L-2,17 L-5,25 L-8,26 L-10,30 L-10,24 L-8,23 L-6,15 L-4,15 L-4,9 Z M-12,30 L-10,31 L-12,39 L-15,38 L-13,38 Z " fill="#FED6E8" transform="translate(414,915)"/>
<path d="M0,0 L1,0 L1,15 L3,15 L3,0 L4,0 L4,26 L3,23 L1,23 L2,45 L-1,45 L-1,47 L2,48 L-2,48 L-2,40 L0,40 L0,22 L2,22 L2,16 L0,16 Z " fill="#CCD6D6" transform="translate(354,850)"/>
<path d="M0,0 L6,0 L6,6 L14,6 L14,7 L5,7 L6,11 L-3,11 L-6,7 L-2,7 L-2,10 L1,10 L1,8 L-1,7 L1,7 L1,5 L-6,5 L-2,4 L-2,2 L0,2 Z " fill="#EDEDED" transform="translate(320,942)"/>
<path d="M0,0 L4,0 L4,18 L3,34 L2,34 L2,18 L0,18 Z " fill="#191719" transform="translate(424,284)"/>
<path d="M0,0 L1,0 L1,10 L3,10 L3,0 L4,0 L4,14 L-1,14 L-1,22 L-3,22 L-4,16 L-5,12 L-2,5 Z " fill="#F1C7DC" transform="translate(420,904)"/>
<path d="M0,0 L16,0 L16,2 L30,2 L30,8 L29,8 L29,3 L15,4 L1,4 L-6,3 L-6,2 L0,2 Z " fill="#1D1C1D" transform="translate(546,204)"/>
<path d="M0,0 L2,0 L3,5 L3,31 L2,31 L2,24 L-1,23 L-2,18 L-2,6 L0,5 Z " fill="#D8F4F5" transform="translate(245,373)"/>
<path d="M0,0 L2,0 L2,2 L8,2 L8,6 L16,6 L15,10 L15,7 L7,8 L6,11 L3,11 L3,13 L6,14 L2,14 L2,6 L-2,6 L-1,1 Z " fill="#212122" transform="translate(556,68)"/>
<path d="M0,0 L6,0 L9,2 L9,4 L7,4 L7,32 L6,32 L6,4 L2,4 L2,32 L1,32 Z " fill="#C8D6D6" transform="translate(312,30)"/>
<path d="M0,0 L1,0 L1,5 L3,5 L3,0 L4,0 L4,10 L5,15 L3,15 L3,17 L6,16 L13,16 L13,21 L20,21 L20,22 L12,22 L12,20 L6,20 L6,18 L2,18 L2,16 L0,16 L0,10 L2,10 L2,6 L0,6 Z " fill="#DED6DD" transform="translate(578,212)"/>
<path d="M0,0 L1,3 L3,3 L4,0 L3,16 L5,16 L4,20 L3,24 L1,24 L1,19 L-1,19 L0,26 L-1,28 L-7,28 L-7,27 L-2,27 L-2,25 L-10,25 L-10,23 L-7,23 L-7,21 L-10,20 L-6,20 L-6,24 L-2,24 L-2,18 L0,18 L0,16 L2,16 L2,4 L0,4 Z " fill="#E4E2E6" transform="translate(572,74)"/>
<path d="M0,0 L2,0 L2,2 L0,2 L1,7 L-3,7 L-3,9 L7,9 L7,10 L0,10 L0,38 L-1,38 L-1,10 L-6,9 L-6,7 L-4,7 L-4,5 L-7,6 L-5,1 Z " fill="#E1EEF0" transform="translate(287,632)"/>
<path d="M0,0 L4,2 L2,2 L2,12 L4,12 L4,22 L2,22 L2,50 L1,50 L0,12 Z " fill="#1F2425" transform="translate(240,396)"/>
<path d="M0,0 L13,0 L12,5 L21,5 L21,6 L11,6 L11,4 L3,4 L3,6 L-25,6 L-25,5 L2,5 L2,1 Z " fill="#DBCBD8" transform="translate(767,286)"/>
<path d="M0,0 L12,0 L12,15 L9,15 L9,1 L5,1 L5,5 L7,5 L6,7 L0,6 Z " fill="#868587" transform="translate(270,993)"/>
<path d="M0,0 L6,0 L6,1 L1,1 L1,3 L6,3 L2,6 L-5,8 L-10,10 L-14,13 L-15,9 L-13,9 L-13,7 L-11,7 L-11,5 L-6,5 L-6,2 L0,2 Z " fill="#EAFBFC" transform="translate(260,938)"/>
<path d="M0,0 L6,0 L6,2 L20,2 L19,6 L6,6 L-1,3 Z " fill="#020202" transform="translate(630,246)"/>
<path d="M0,0 L4,0 L14,0 L14,4 L5,4 L3,3 L3,8 L-6,8 L-6,5 L-1,5 Z " fill="#DADADB" transform="translate(732,174)"/>
<path d="M0,0 L1,0 L1,17 L3,18 L2,22 L4,22 L4,36 L0,36 Z " fill="#ECE2EC" transform="translate(420,528)"/>
<path d="M0,0 L6,0 L6,1 L1,1 L2,10 L2,38 L1,38 L1,14 L-1,14 L-1,38 L-2,38 L-2,10 L0,10 Z " fill="#222122" transform="translate(382,958)"/>
<path d="M0,0 L1,0 L1,6 L-3,6 L-3,8 L-9,8 L-9,12 L-7,12 L-7,18 L-11,17 L-8,17 L-8,13 L-10,13 L-11,15 L-10,8 L-12,8 L-13,12 L-14,8 L-12,5 L-17,5 L-17,4 L-9,4 L-8,3 L-2,3 L0,5 Z " fill="#E6E2E5" transform="translate(447,158)"/>
<path d="M0,0 L1,2 L12,2 L12,3 L1,3 L1,5 L-14,6 L-14,4 L-18,3 L-14,3 L-14,1 Z " fill="#E9EDED" transform="translate(690,63)"/>
<path d="M0,0 L8,0 L8,1 L14,1 L14,3 L16,4 L14,4 L14,6 L6,6 L6,3 L-11,3 L-11,1 Z " fill="#F4DFEC" transform="translate(724,282)"/>
<path d="M0,0 L1,0 L1,7 L3,7 L3,0 L5,0 L6,7 L8,8 L8,11 L5,11 L5,13 L10,12 L16,14 L16,15 L11,15 L11,17 L16,17 L16,18 L10,18 L8,14 L4,14 L4,12 L2,12 L2,8 L0,8 Z " fill="#E0E7E7" transform="translate(244,876)"/>
<path d="M0,0 L2,1 L1,15 L4,16 L2,18 L2,49 L1,66 L0,66 Z " fill="#E4FCFE" transform="translate(248,446)"/>
<path d="M0,0 L19,2 L19,4 L3,4 L3,7 L-3,7 L-5,4 L-3,4 L-4,1 Z " fill="#F3EDF3" transform="translate(543,199)"/>
<path d="M0,0 L4,0 L4,4 L6,4 L6,20 L4,20 L4,16 L2,16 L2,6 L0,6 Z " fill="#212323" transform="translate(294,682)"/>
<path d="M0,0 L3,0 L3,2 L1,2 L1,7 L3,7 L4,3 L4,5 L6,6 L2,11 L-5,11 L-5,8 L-7,7 L-5,7 L-4,2 L0,2 Z " fill="#E5F4F3" transform="translate(382,543)"/>
<path d="M0,0 L1,3 L9,2 L5,3 L5,5 L8,4 L17,4 L17,6 L19,7 L17,7 L17,9 L32,9 L32,10 L16,10 L16,8 L8,8 L8,6 L4,6 L4,4 L0,4 Z " fill="#DEDCDE" transform="translate(598,234)"/>
<path d="M0,0 L4,1 L1,1 L2,18 L1,18 L1,13 L-1,13 L0,18 L0,36 L-1,36 L-1,22 L-3,22 L-3,36 L-4,36 L-4,18 L-2,18 L-2,12 L0,12 Z " fill="#222122" transform="translate(432,184)"/>
<path d="M0,0 L1,0 L1,8 L7,8 L7,16 L5,16 L5,24 L7,24 L6,26 L3,26 L3,16 L2,12 L-1,11 L-2,8 L0,8 Z " fill="#CEDAD9" transform="translate(609,66)"/>
<path d="M0,0 L2,1 L0,3 L1,10 L-1,12 L-3,20 L-1,21 L-1,18 L1,18 L1,23 L-5,23 L-6,21 L-6,13 L-3,11 L-3,2 Z " fill="#FDFCFC" transform="translate(386,934)"/>
<path d="M0,0 L1,0 L1,5 L-2,6 L-5,9 L-7,5 L-9,5 L-9,11 L-13,10 L-15,5 L-15,1 L-11,1 L-11,3 L0,3 Z " fill="#FCF9FA" transform="translate(710,250)"/>
<path d="M0,0 L1,0 L1,6 L3,6 L3,12 L5,12 L5,20 L7,20 L7,26 L6,26 L6,21 L1,21 L1,12 L2,7 L0,7 L0,12 L-1,12 L-1,7 L-4,7 L-3,1 L-2,1 L-2,6 L0,6 Z " fill="#E4DCE3" transform="translate(811,148)"/>
<path d="M0,0 L1,0 L1,5 L-1,5 L-1,9 L4,9 L5,7 L9,9 L5,9 L5,11 L10,11 L10,12 L4,12 L4,10 L-2,10 L-4,6 L-6,6 L-6,12 L-12,12 L-12,11 L-7,11 L-7,6 L-9,6 L-8,3 L-1,2 Z " fill="#E2CCD3" transform="translate(394,946)"/>
<path d="M0,0 L5,0 L5,14 L3,14 L3,24 L2,24 L2,14 L0,14 Z " fill="#D1E2E6" transform="translate(242,598)"/>
<path d="M0,0 L9,0 L12,3 L8,3 L8,5 L13,5 L13,6 L7,6 L7,4 L3,4 L3,6 L-3,6 L-5,3 L-3,3 L-3,1 Z " fill="#E8DCE7" transform="translate(519,198)"/>
<path d="M0,0 L8,0 L6,1 L6,6 L-1,6 L-1,8 L6,8 L6,9 L-2,9 L-2,4 L-7,4 L-7,2 Z " fill="#F0EFF3" transform="translate(566,65)"/>
<path d="M0,0 L10,0 L10,16 L12,16 L12,22 L10,22 L10,40 L9,40 L8,16 L9,1 L0,1 Z " fill="#2B2C2C" transform="translate(344,850)"/>
<path d="M0,0 L1,0 L2,24 L1,60 L0,60 L0,24 L-2,24 L-2,22 L0,22 Z " fill="#383237" transform="translate(426,438)"/>
<path d="M0,0 L6,1 L0,8 L-2,9 L-3,12 L-6,12 L-5,3 L-1,3 Z " fill="#EDE6EC" transform="translate(491,163)"/>
<path d="M0,0 L7,1 L9,0 L10,4 L17,5 L17,6 L11,6 L11,8 L17,8 L17,9 L6,10 L5,5 L-1,4 Z " fill="#F8F0F8" transform="translate(521,193)"/>
<path d="M0,0 L1,4 L3,4 L4,0 L4,8 L0,8 L0,20 L-1,20 L-2,9 L-7,9 L-5,8 L-4,3 L0,3 Z " fill="#D8D3D7" transform="translate(432,176)"/>
<path d="M0,0 L1,3 L3,3 L4,0 L4,4 L2,4 L2,10 L6,12 L6,14 L8,14 L8,24 L7,24 L6,18 L5,24 L4,24 L3,16 L0,12 Z " fill="#1C1B1C" transform="translate(482,166)"/>
<path d="M0,0 L8,0 L8,8 L0,8 Z " fill="#FFFFFD" transform="translate(704,76)"/>
<path d="M0,0 L1,4 L3,4 L3,10 L7,10 L7,18 L3,17 L6,17 L6,11 L-1,11 L-3,2 L-9,2 L-9,1 L-2,1 L-2,3 L0,3 Z " fill="#E4DDE2" transform="translate(805,116)"/>
<path d="M0,0 L4,0 L4,8 L6,8 L6,16 L8,16 L8,28 L7,28 L7,17 L2,17 L1,8 L3,8 L3,1 Z " fill="#D0DDDE" transform="translate(302,914)"/>
<path d="M0,0 L4,0 L4,2 L12,2 L12,4 L28,4 L28,5 L4,6 L0,2 Z " fill="#181818" transform="translate(602,240)"/>
<path d="M0,0 L1,4 L3,4 L3,12 L7,12 L7,14 L9,14 L9,22 L8,22 L8,15 L6,15 L6,17 L4,17 L4,15 L2,15 L2,26 L1,26 L1,12 L2,5 L0,5 L-1,9 Z " fill="#D0D0D3" transform="translate(281,982)"/>
<path d="M0,0 L2,0 L4,8 L9,9 L9,17 L7,17 L6,14 L5,17 L3,17 L2,10 L1,6 Z " fill="#020202" transform="translate(288,986)"/>
<path d="M0,0 L3,0 L3,11 L8,11 L7,15 L7,12 L-2,13 L-2,5 Z " fill="#E8F6F5" transform="translate(306,931)"/>
<path d="M0,0 L1,0 L1,5 L3,5 L3,7 L1,7 L1,17 L-1,17 L-1,19 L-9,19 L-9,21 L-13,20 L-10,20 L-10,18 L-12,17 L-2,15 L-1,14 L-1,5 Z " fill="#171717" transform="translate(353,901)"/>
<path d="M0,0 L1,0 L1,26 L3,26 L3,32 L1,32 L1,42 L0,42 L-1,26 Z " fill="#2A2A2A" transform="translate(239,830)"/>
<path d="M0,0 L6,0 L6,1 L1,1 L1,3 L-1,3 L-1,5 L-3,5 L-2,9 L-7,15 L-7,12 L-6,9 L-26,9 L-26,8 L-6,8 L-6,6 L-4,6 L-4,4 L-2,4 L-2,2 L0,2 Z " fill="#BFDAD9" transform="translate(248,942)"/>
<path d="M0,0 L8,0 L8,8 L7,4 L5,4 L4,8 L2,5 L-16,5 L-16,4 L0,4 Z " fill="#232424" transform="translate(332,834)"/>
<path d="M0,0 L1,0 L1,52 L-2,51 L-2,48 L0,48 Z " fill="#060506" transform="translate(427,704)"/>
<path d="M0,0 L5,0 L5,7 L7,7 L8,4 L10,6 L10,24 L9,24 L9,8 L7,8 L7,24 L6,24 L6,8 L4,8 L4,4 L0,3 L4,3 L4,1 Z " fill="#D3E2E3" transform="translate(294,678)"/>
<path d="M0,0 L1,0 L1,9 L-4,9 L-3,20 L-5,20 L-5,16 L-7,16 L-7,6 L-5,6 L-5,4 L-3,4 L-3,6 L0,7 Z " fill="#4C4C4C" transform="translate(421,158)"/>
<path d="M0,0 L4,1 L1,1 L1,3 L4,3 L4,28 L3,28 L3,19 L1,19 L1,28 L0,28 L0,18 L2,18 L2,8 L0,8 Z " fill="#271C20" transform="translate(420,918)"/>
<path d="M0,0 L1,0 L1,6 L3,6 L3,16 L5,16 L4,20 L4,17 L2,17 L1,20 L1,17 L-1,17 L-1,6 Z " fill="#DDE6E6" transform="translate(293,682)"/>
<path d="M0,0 L4,1 L1,1 L2,6 L2,16 L1,21 L4,22 L0,22 L0,16 L-2,16 L-2,6 L0,6 Z " fill="#DEDEDE" transform="translate(426,132)"/>
<path d="M0,0 L1,2 L1,9 L-5,9 L-7,8 L-7,1 Z " fill="#BEBBBE" transform="translate(783,224)"/>
<path d="M0,0 L2,0 L2,6 L4,6 L4,10 L-2,10 L-2,12 L-4,12 L-4,6 L-2,6 L-1,1 Z " fill="#1E1D1E" transform="translate(784,188)"/>
<path d="M0,0 L6,0 L6,12 L4,12 L4,20 L3,20 L3,10 L1,10 L1,16 L0,16 L0,10 L-2,10 L-2,2 L-1,2 L-1,9 L1,9 L2,5 L3,9 L5,9 L5,1 L0,1 Z " fill="#2B2B2C" transform="translate(292,994)"/>
<path d="M0,0 L11,0 L11,10 L9,10 L9,12 L-1,12 L-1,11 L8,11 L8,9 L-1,9 L-1,8 L7,8 L7,4 L2,4 L2,3 L8,3 L8,7 L10,7 L10,1 L0,1 Z " fill="#D1D7DA" transform="translate(315,842)"/>
<path d="M0,0 L3,0 L3,48 L2,48 L2,4 L0,4 Z " fill="#060606" transform="translate(425,498)"/>
<path d="M0,0 L8,0 L8,3 L10,3 L10,12 L8,12 L7,14 L7,3 L-1,4 Z " fill="#050505" transform="translate(563,75)"/>
<path d="M0,0 L7,0 L5,3 L0,6 L-4,10 L-4,7 L-6,7 L-7,2 L-1,2 Z " fill="#B4FEF9" transform="translate(207,956)"/>
<path d="M0,0 L4,0 L4,2 L10,2 L10,0 L16,0 L18,4 L16,6 L11,4 L1,4 L-6,3 L-6,2 L0,2 Z " fill="#141213" transform="translate(522,202)"/>
<path d="M0,0 L1,0 L1,32 L-1,32 L-1,34 L-3,34 L-3,44 L-4,44 L-4,32 L-2,29 L0,29 Z " fill="#C4C4C4" transform="translate(417,130)"/>
<path d="M0,0 L1,0 L2,20 L1,30 L0,30 L0,20 L-2,20 L-2,12 L0,12 Z " fill="#D9D7DA" transform="translate(298,994)"/>
<path d="M0,0 L6,0 L8,1 L8,3 L13,3 L15,7 L8,8 L7,5 L0,4 Z " fill="#FCF7FC" transform="translate(591,229)"/>
<path d="M0,0 L2,0 L2,3 L4,3 L5,0 L5,4 L3,4 L3,10 L1,10 L1,14 L-1,14 L-2,16 L-2,14 L-4,13 L0,13 L-2,2 Z " fill="#DCE7E7" transform="translate(643,30)"/>
<path d="M0,0 L6,0 L6,3 L8,3 L9,10 L6,10 L7,6 L5,6 L5,1 L3,1 L2,6 L-1,9 L-4,9 L-4,6 L-1,6 L-1,1 Z " fill="#E5E9EE" transform="translate(300,853)"/>
<path d="M0,0 L1,3 L4,4 L0,8 L-1,11 L-4,10 L-3,8 L-11,8 L-11,6 L-3,5 L-2,1 Z " fill="#FEFDFE" transform="translate(749,173)"/>
<path d="M0,0 L4,0 L4,2 L12,2 L12,4 L22,4 L22,5 L13,6 L12,7 L2,7 L4,5 L11,5 L11,3 L0,4 Z " fill="#171717" transform="translate(434,84)"/>
<path d="M0,0 L2,0 L2,6 L-2,11 L-9,11 L-10,7 L-1,6 Z M-14,11 L-9,11 L-10,13 L-14,13 Z " fill="#FDFEFE" transform="translate(335,942)"/>
<path d="M0,0 L5,1 L5,2 L12,3 L12,7 L4,8 L4,12 L2,12 L2,3 L0,2 Z " fill="#9D9A9E" transform="translate(574,200)"/>
<path d="M0,0 L23,0 L24,4 L21,3 L0,2 Z " fill="#FEFEFE" transform="translate(423,159)"/>
<path d="M0,0 L4,0 L5,7 L0,7 L1,10 L-1,10 L-1,13 L-5,12 L-5,9 L-2,6 L0,6 Z " fill="#AFB8B9" transform="translate(283,876)"/>
<path d="M0,0 L31,1 L31,2 L1,3 Z " fill="#181517" transform="translate(777,293)"/>
<path d="M0,0 L3,0 L3,2 L9,1 L11,3 L9,3 L9,6 L18,6 L18,7 L8,7 L8,5 L0,5 L0,3 L-4,2 L0,2 Z " fill="#E1E1E1" transform="translate(438,81)"/>
<path d="M0,0 L25,0 L27,1 L27,3 L24,4 L12,2 L0,1 Z " fill="#EAFBFB" transform="translate(702,65)"/>
<path d="M0,0 L1,0 L1,14 L-5,14 L-5,11 L-7,10 L-8,8 L-3,9 L-3,1 L-2,1 L-2,10 L0,10 Z " fill="#E4E2E4" transform="translate(561,44)"/>
<path d="M0,0 L1,0 L2,14 L2,28 L1,28 L1,18 L-1,18 L-1,28 L-2,28 L-2,14 L0,14 Z " fill="#232022" transform="translate(426,756)"/>
<path d="M0,0 L1,4 L4,4 L4,7 L9,12 L7,13 L2,12 L1,5 L-1,5 L-1,16 L-2,16 L-2,4 L0,4 Z " fill="#E9DCE1" transform="translate(696,256)"/>
<path d="M0,0 L10,3 L13,5 L8,5 L8,7 L13,7 L13,8 L7,8 L7,6 L1,6 L-1,3 Z " fill="#151717" transform="translate(757,66)"/>
<path d="M0,0 L1,0 L1,5 L9,4 L14,4 L11,7 L12,9 L9,9 L9,11 L12,12 L8,12 L8,8 L4,8 L4,6 L0,6 Z " fill="#B7E4E1" transform="translate(184,980)"/>
<path d="M0,0 L2,0 L2,5 L4,5 L4,0 L5,0 L5,6 L1,10 L-7,10 L-7,9 L-1,8 L-5,6 L-3,6 L-1,2 Z " fill="#EDB7C9" transform="translate(411,946)"/>
<path d="M0,0 L2,1 L2,16 L1,17 L-7,17 L-8,20 L-8,16 L-4,16 L-4,12 L0,12 Z " fill="#C4DDDC" transform="translate(274,918)"/>
<path d="M0,0 L18,1 L16,2 L16,12 L15,12 L15,2 L13,2 L13,12 L12,12 L12,2 L1,3 L0,6 L-2,6 L-1,1 Z " fill="#18191A" transform="translate(314,840)"/>
<path d="M0,0 L4,4 L5,11 L-1,11 L-1,2 Z " fill="#FEF7FD" transform="translate(492,178)"/>
<path d="M0,0 L1,0 L1,5 L4,5 L5,1 L5,5 L7,5 L8,10 L7,19 L12,19 L12,20 L6,20 L6,10 L4,10 L0,6 Z " fill="#DDD1DB" transform="translate(484,170)"/>
<path d="M0,0 L4,0 L5,5 L8,6 L8,11 L6,11 L6,8 L4,8 L5,12 L3,12 L3,6 L-1,5 Z " fill="#FDF5FD" transform="translate(813,169)"/>
<path d="M0,0 L1,0 L2,30 L1,36 L0,36 L0,30 L-2,30 L-2,26 L0,26 Z " fill="#373236" transform="translate(426,832)"/>
<path d="M0,0 L4,0 L4,12 L0,12 Z " fill="#EAE6EA" transform="translate(422,272)"/>
<path d="M0,0 L12,0 L12,4 L0,4 Z " fill="#FEFFFD" transform="translate(628,220)"/>
<path d="M0,0 L1,0 L1,16 L3,16 L3,0 L4,0 L4,20 L0,20 Z " fill="#1C181A" transform="translate(826,194)"/>
<path d="M0,0 L9,0 L12,2 L9,2 L9,4 L12,5 L8,5 L8,3 L0,3 L0,5 L-6,5 L-6,4 L-1,4 L-1,2 L-5,1 Z " fill="#181919" transform="translate(642,99)"/>
<path d="M0,0 L1,0 L1,5 L7,5 L7,1 L9,1 L9,7 L6,10 L3,9 L3,6 L-2,10 L-1,3 Z " fill="#FDF9FC" transform="translate(384,907)"/>
<path d="M0,0 L2,0 L3,7 L7,7 L7,9 L5,11 L4,14 L2,14 L2,11 L0,11 Z " fill="#FCF1F7" transform="translate(695,261)"/>
<path d="M0,0 L6,3 L6,5 L0,5 L0,3 L-15,3 L-15,1 Z " fill="#FEFEFE" transform="translate(630,240)"/>
<path d="M0,0 L1,0 L1,5 L5,5 L5,3 L3,3 L4,0 L9,0 L11,4 L9,4 L9,16 L8,16 L8,4 L6,4 L6,6 L0,6 Z " fill="#DADBDC" transform="translate(566,46)"/>
<path d="M0,0 L1,0 L2,22 L-2,22 L-2,14 L0,14 Z " fill="#201E20" transform="translate(424,682)"/>
<path d="M0,0 L2,0 L2,4 L7,4 L7,16 L6,16 L6,8 L4,8 L4,16 L3,16 L2,5 L0,5 Z " fill="#E9E4E8" transform="translate(555,78)"/>
<path d="M0,0 L1,2 L3,2 L3,0 L9,2 L10,5 L1,5 L1,3 L-3,3 L-2,8 L-4,8 L-4,2 L0,2 Z " fill="#DFDDDD" transform="translate(698,248)"/>
<path d="M0,0 L6,0 L6,6 L3,7 L2,9 L-2,9 L0,4 Z " fill="#FCF6FB" transform="translate(805,127)"/>
<path d="M0,0 L11,0 L14,2 L10,3 L14,5 L8,5 L8,3 L-2,3 Z " fill="#141616" transform="translate(732,61)"/>
<path d="M0,0 L2,0 L4,3 L10,4 L10,6 L16,6 L16,7 L4,8 L4,6 L0,6 Z " fill="#110E0F" transform="translate(388,952)"/>
<path d="M0,0 L4,0 L4,2 L12,2 L12,6 L6,6 L6,4 L0,4 Z " fill="#323232" transform="translate(738,248)"/>
<path d="M0,0 L1,0 L2,16 L1,21 L4,22 L0,22 L0,16 L-2,16 L-2,10 L0,10 Z " fill="#262023" transform="translate(424,868)"/>
<path d="M0,0 L8,0 L8,2 L12,2 L12,4 L16,4 L16,2 L18,3 L17,5 L12,5 L12,7 L16,8 L11,8 L11,6 L7,6 L7,1 L0,1 Z " fill="#D9DEE0" transform="translate(642,102)"/>
<path d="M0,0 L4,0 L3,4 L1,5 L1,3 L-1,3 L0,5 L0,16 L-1,16 L-1,7 L-3,7 L-3,16 L-4,16 L-4,6 L-2,6 L-2,2 L0,2 Z " fill="#D9DEDF" transform="translate(668,68)"/>
<path d="M0,0 L6,1 L2,2 L2,4 L0,4 L0,6 L-4,6 L-4,8 L-12,8 L-12,7 L-5,7 L-5,5 L-12,5 L-12,4 L-6,3 L-4,2 L-4,5 L-1,5 L-1,3 L-3,2 Z " fill="#D3DFDF" transform="translate(634,46)"/>
<path d="M0,0 L2,0 L2,10 L-2,10 L-2,20 L-3,20 L-3,6 L0,6 Z " fill="#151415" transform="translate(293,1004)"/>
<path d="M0,0 L1,0 L1,12 L3,12 L3,16 L1,16 L1,30 L0,30 L-1,12 Z " fill="#262B2C" transform="translate(241,582)"/>
<path d="M0,0 L2,2 L2,11 L-1,11 L-1,20 L-2,20 L-2,10 L0,10 L0,8 L-2,8 L-2,2 L0,2 Z " fill="#D9DADB" transform="translate(356,898)"/>
<path d="M0,0 L1,0 L1,12 L3,12 L3,18 L1,18 L1,20 L-3,19 L0,19 L0,17 L-2,16 Z " fill="#242526" transform="translate(657,86)"/>
<path d="M0,0 L4,0 L4,14 L0,13 L3,13 L3,11 L-2,11 L-1,3 L1,3 L1,10 L3,10 L3,1 Z " fill="#DEB4C8" transform="translate(424,890)"/>
<path d="M0,0 L4,0 L4,10 L0,10 Z " fill="#111314" transform="translate(240,612)"/>
<path d="M0,0 L1,3 L3,2 L29,2 L29,3 L7,4 L2,5 L0,4 Z " fill="#F1DAEA" transform="translate(740,286)"/>
<path d="M0,0 L1,0 L2,16 L-2,16 L-2,8 L0,8 Z " fill="#1C1C1C" transform="translate(426,220)"/>
<path d="M0,0 L2,1 L1,3 L-1,3 L0,10 L-1,12 L-7,12 L-7,11 L-2,11 L-2,9 L-10,9 L-10,7 L-7,7 L-7,5 L-10,4 L-6,4 L-6,8 L-2,8 L-2,2 L0,2 Z " fill="#DED9DE" transform="translate(572,90)"/>
<path d="M0,0 L2,0 L2,12 L-4,12 L-4,10 L-2,10 L-2,6 L0,6 Z " fill="#262526" transform="translate(520,82)"/>
<path d="M0,0 L8,0 L8,3 L4,4 L3,11 L6,12 L2,12 L2,4 L0,4 Z " fill="#222323" transform="translate(282,982)"/>
<path d="M0,0 L2,4 L2,11 L-3,10 L-3,3 L0,2 Z " fill="#E1ECEC" transform="translate(384,764)"/>
<path d="M0,0 L2,0 L2,4 L4,4 L3,6 L-9,5 L-8,2 L0,2 Z " fill="#171416" transform="translate(738,286)"/>
<path d="M0,0 L6,0 L6,2 L20,2 L20,3 L0,4 Z " fill="#202020" transform="translate(630,246)"/>
<path d="M0,0 L2,0 L3,2 L10,3 L10,8 L8,8 L8,5 L2,5 L2,8 L0,8 Z " fill="#010101" transform="translate(563,50)"/>
<path d="M0,0 L1,4 L-1,4 L-1,6 L-5,6 L-5,12 L-6,12 L-6,6 L-8,6 L-8,12 L-9,12 L-9,4 L-11,3 L-6,4 L-4,5 L-4,3 L0,3 Z " fill="#DBEAED" transform="translate(295,882)"/>
<path d="M0,0 L1,0 L2,7 L4,12 L3,19 L1,19 L0,12 L-1,9 Z " fill="#FCFDFC" transform="translate(244,864)"/>
<path d="M0,0 L2,4 L3,8 L3,11 L3,13 L5,15 L-1,16 L0,13 L-1,5 Z " fill="#FDF4FB" transform="translate(582,213)"/>
<path d="M0,0 L3,3 L2,8 L-2,11 L-7,10 L-7,8 L-2,7 Z " fill="#FDF7FD" transform="translate(790,191)"/>
<path d="M0,0 L2,0 L2,5 L4,5 L4,9 L1,10 L0,14 L-2,14 L-3,9 L-1,7 Z " fill="#FEFBFD" transform="translate(435,166)"/>
<path d="M0,0 L8,1 L11,3 L7,4 L11,6 L5,6 L5,4 L-1,4 Z " fill="#161616" transform="translate(785,106)"/>
<path d="M0,0 L5,1 L6,6 L6,16 L4,16 L4,6 L2,6 L2,4 L0,4 Z " fill="#1C1E1D" transform="translate(774,76)"/>
<path d="M0,0 L1,4 L-2,5 L-2,7 L-8,8 L-8,6 L-10,6 L-10,4 L-2,4 Z M-10,8 L-8,9 L-10,10 Z " fill="#FDFCFC" transform="translate(355,917)"/>
<path d="M0,0 L4,0 L5,7 L-3,7 L-3,1 L-2,1 L-2,6 L0,6 Z " fill="#9F9B9F" transform="translate(779,242)"/>
<path d="M0,0 L7,0 L7,5 L14,5 L14,6 L6,6 L6,4 L0,4 Z " fill="#E3DBE3" transform="translate(584,228)"/>
<path d="M0,0 L2,0 L2,5 L4,6 L1,7 L-1,9 L-10,8 L-10,6 L-1,5 Z " fill="#FEFDFE" transform="translate(735,177)"/>
<path d="M0,0 L1,0 L1,12 L-1,12 L-1,14 L-3,14 L-3,20 L-7,20 L-6,16 L-6,19 L-4,19 L-4,12 L-2,9 L0,9 Z " fill="#2E2D2E" transform="translate(573,78)"/>
<path d="M0,0 L4,0 L4,14 L2,14 L2,4 L0,4 Z " fill="#FEFEFE" transform="translate(275,994)"/>
<path d="M0,0 L4,0 L4,4 L8,4 L8,6 L6,6 L6,8 L4,8 L3,12 L0,3 L3,3 L3,1 Z " fill="#1C2121" transform="translate(188,988)"/>
<path d="M0,0 L2,0 L2,4 L0,4 L0,10 L-10,10 L-10,9 L-1,9 L-1,7 L-7,7 L-4,6 L-4,4 L-2,4 L-1,2 L1,3 Z " fill="#DEB5CA" transform="translate(824,284)"/>
<path d="M0,0 L15,3 L15,4 L0,5 L-1,1 Z " fill="#FCE6F6" transform="translate(741,284)"/>
<path d="M0,0 L4,0 L4,2 L2,2 L2,30 L1,30 Z " fill="#2A3131" transform="translate(240,270)"/>
<path d="M0,0 L8,0 L11,3 L10,4 L1,4 Z " fill="#FCFAFD" transform="translate(577,199)"/>
<path d="M0,0 L2,0 L2,2 L8,2 L7,6 L-2,5 L-1,1 Z " fill="#1D1D1D" transform="translate(556,68)"/>
<path d="M0,0 L5,0 L5,2 L7,2 L8,0 L10,2 L5,6 L0,6 L4,5 L4,3 L0,3 Z " fill="#ECFDFD" transform="translate(378,710)"/>
<path d="M0,0 L1,2 L4,2 L4,7 L3,3 L1,3 L2,8 L-3,7 L-3,3 L-5,2 L0,2 Z " fill="#DAE8E8" transform="translate(384,567)"/>
<path d="M0,0 L1,2 L3,2 L4,0 L4,20 L2,20 L2,6 L0,6 Z " fill="#252124" transform="translate(822,174)"/>
<path d="M0,0 L9,1 L9,3 L4,4 L3,10 L2,10 L2,4 L0,4 Z " fill="#1C1B1B" transform="translate(438,166)"/>
<path d="M0,0 L1,0 L2,9 L4,9 L4,17 L2,17 L2,11 L-2,9 L-2,5 L0,5 Z " fill="#292728" transform="translate(810,137)"/>
<path d="M0,0 L8,0 L8,3 L4,4 L3,6 L0,6 L-1,2 Z " fill="#A9A9A9" transform="translate(434,122)"/>
<path d="M0,0 L1,4 L-1,4 L-1,6 L-3,6 L-3,24 L-4,24 L-4,4 Z " fill="#313838" transform="translate(189,1000)"/>
<path d="M0,0 L6,0 L6,4 L4,4 L4,10 L3,6 L1,6 Z " fill="#212222" transform="translate(290,978)"/>
<path d="M0,0 L1,0 L1,6 L3,6 L3,10 L1,10 L1,16 L3,16 L2,18 L-1,18 L-1,6 Z " fill="#292728" transform="translate(577,212)"/>
<path d="M0,0 L4,1 L4,3 L2,4 L1,14 L-1,14 L-2,4 Z " fill="#FDFDFE" transform="translate(560,40)"/>
<path d="M0,0 L1,4 L3,4 L4,0 L4,16 L2,16 L2,8 L0,8 Z " fill="#1E2121" transform="translate(306,914)"/>
<path d="M0,0 L1,3 L3,3 L4,0 L5,3 L10,4 L10,5 L3,5 L3,7 L10,7 L10,8 L2,8 L2,4 L0,4 Z " fill="#DEC9D3" transform="translate(696,272)"/>
<path d="M0,0 L1,0 L1,5 L3,5 L3,9 L1,9 L1,21 L0,21 L-1,5 Z " fill="#292828" transform="translate(693,251)"/>
<path d="M0,0 L9,0 L9,2 L11,2 L12,0 L12,3 L9,4 L0,3 Z " fill="#838384" transform="translate(706,180)"/>
<path d="M0,0 L1,4 L3,4 L4,0 L4,8 L3,13 L6,14 L2,14 L2,8 L0,8 Z " fill="#211F21" transform="translate(816,160)"/>
<path d="M0,0 L6,0 L6,1 L1,1 L1,3 L6,3 L2,6 L-4,8 L-5,6 L0,5 L0,3 L-6,3 L-6,2 L0,2 Z " fill="#CBE3E4" transform="translate(260,938)"/>
<path d="M0,0 L3,1 L4,3 L10,4 L9,7 L5,8 L3,4 L0,4 Z " fill="#FCF9FC" transform="translate(782,151)"/>
<path d="M0,0 L8,0 L13,7 L9,7 L9,5 L0,4 L0,3 L7,3 L7,1 L0,1 Z " fill="#E2E7E7" transform="translate(618,94)"/>
<path d="M0,0 L2,4 L8,5 L7,8 L4,9 L1,8 L1,5 L-1,5 Z " fill="#FDFBFD" transform="translate(268,994)"/>
<path d="M0,0 L2,4 L1,7 L-1,7 L-1,5 L-3,5 L-2,9 L-5,9 L-6,12 L-6,8 L-4,8 L-4,4 L-2,4 L-2,2 L0,2 Z " fill="#C0DFDE" transform="translate(196,992)"/>
<path d="M0,0 L10,0 L10,1 L1,1 L2,8 L-5,7 L-6,10 L-6,6 L0,6 Z " fill="#74B0AB" transform="translate(196,954)"/>
<path d="M0,0 L2,1 L0,3 L1,10 L-1,12 L-3,16 L-3,2 Z " fill="#FEF7FA" transform="translate(386,934)"/>
<path d="M0,0 L1,3 L-1,9 L-3,9 L-4,13 L-3,2 Z " fill="#FECAE0" transform="translate(416,927)"/>
<path d="M0,0 L1,0 L2,24 L-2,24 L-2,22 L0,22 Z " fill="#302C30" transform="translate(426,438)"/>
<path d="M0,0 L2,4 L4,6 L4,12 L0,11 L-1,4 Z " fill="#F2EEF1" transform="translate(807,142)"/>
<path d="M0,0 L2,0 L2,2 L4,2 L4,8 L3,6 L1,6 L1,14 L0,14 Z " fill="#383838" transform="translate(562,44)"/>
<path d="M0,0 L6,0 L6,4 L2,4 L3,11 L1,11 Z " fill="#131313" transform="translate(471,35)"/>
<path d="M0,0 L1,2 L5,2 L5,14 L4,14 L4,6 L0,6 Z " fill="#252525" transform="translate(462,18)"/>
<path d="M0,0 L4,0 L4,3 L7,3 L7,1 L5,0 L10,0 L12,4 L3,4 Z " fill="#E5ECED" transform="translate(314,949)"/>
<path d="M0,0 L6,0 L6,6 L5,6 L5,1 L1,1 L1,3 L3,3 L3,5 L-6,5 L-2,4 L-2,2 L0,2 Z " fill="#D2D6D7" transform="translate(320,942)"/>
<path d="M0,0 L2,0 L2,2 L0,2 L1,7 L-3,7 L-3,4 L-5,4 L-5,1 Z " fill="#CDDADB" transform="translate(287,632)"/>
<path d="M0,0 L1,0 L1,8 L-1,8 L-1,12 L-5,11 L-2,11 L-2,9 L-5,9 L-5,7 L-3,7 L-3,1 L-2,1 L-2,7 L0,7 Z " fill="#D8B5C6" transform="translate(825,238)"/>
<path d="M0,0 L5,0 L0,5 L-6,4 L-6,2 Z " fill="#E5FDFC" transform="translate(267,937)"/>
<path d="M0,0 L8,2 L8,3 L3,3 L3,5 L8,5 L8,6 L2,6 L0,2 L-4,1 Z " fill="#D1D9D9" transform="translate(252,888)"/>
<path d="M0,0 L10,0 L10,6 L8,6 L8,2 L0,2 Z " fill="#FDFEFE" transform="translate(315,843)"/>
<path d="M0,0 L6,0 L8,4 L0,4 Z " fill="#E0EDED" transform="translate(366,523)"/>
<path d="M0,0 L10,0 L8,3 L1,2 L1,4 L-1,4 Z M6,3 L8,4 L6,5 Z " fill="#FEFCFE" transform="translate(578,207)"/>
<path d="M0,0 L6,0 L6,4 L-2,4 L-2,2 L0,2 Z " fill="#292929" transform="translate(740,174)"/>
<path d="M0,0 L5,0 L7,4 L-1,4 Z " fill="#E0ECEC" transform="translate(353,443)"/>
<path d="M0,0 L3,0 L3,3 L5,4 L4,7 L6,7 L6,9 L2,9 Z " fill="#FCFCFC" transform="translate(565,42)"/>
<path d="M0,0 L4,1 L1,1 L1,3 L4,3 L4,8 L0,8 Z " fill="#1E171A" transform="translate(420,918)"/>
<path d="M0,0 L4,0 L4,5 L1,5 L1,7 L4,8 L0,8 Z " fill="#DBDEDF" transform="translate(352,890)"/>
<path d="M0,0 L4,0 L4,2 L10,2 L10,3 L1,4 L-6,3 L-6,2 L0,2 Z " fill="#282528" transform="translate(522,202)"/>
<path d="M0,0 L2,3 L3,10 L-1,10 L-1,2 Z " fill="#FCF6FC" transform="translate(777,191)"/>
<path d="M0,0 L3,0 L3,5 L0,8 L-3,8 L-3,5 L0,5 Z " fill="#7F8183" transform="translate(299,854)"/>
<path d="M0,0 L1,0 L2,10 L1,7 L-1,7 L0,12 L-4,12 L-4,10 L-2,10 L-2,6 L0,6 Z " fill="#231E20" transform="translate(828,214)"/>
<path d="M0,0 L4,0 L4,3 L1,4 L0,9 L-2,9 L-2,3 L0,3 Z " fill="#FDFAFD" transform="translate(519,78)"/>
<path d="M0,0 L4,1 L3,3 L5,3 L5,6 L3,6 L3,4 L-2,5 Z " fill="#E1E5E9" transform="translate(304,847)"/>
<path d="M0,0 L2,0 L3,3 L1,3 L0,6 L-3,7 L-5,3 L-1,2 Z " fill="#FDF8FA" transform="translate(711,256)"/>
<path d="M0,0 L1,2 L3,2 L4,0 L5,7 L0,6 Z " fill="#130F11" transform="translate(826,252)"/>
<path d="M0,0 L6,0 L7,3 L1,3 L1,5 L-1,5 Z " fill="#191819" transform="translate(781,195)"/>
<path d="M0,0 L3,0 L3,12 L1,12 Z " fill="#131212" transform="translate(813,148)"/>
<path d="M0,0 L4,0 L4,6 L0,6 Z " fill="#D0E6E7" transform="translate(242,132)"/>
<path d="M0,0 L6,0 L6,4 L0,4 Z " fill="#F9FFFF" transform="translate(344,128)"/>
<path d="M0,0 L1,0 L2,14 L0,16 L0,13 L-6,13 L-6,12 L0,12 Z " fill="#CFC9CF" transform="translate(522,82)"/>
<path d="M0,0 L4,0 L4,2 L2,2 L2,9 L-4,9 L-4,8 L1,8 L1,3 L-1,3 Z " fill="#E1D9DC" transform="translate(386,949)"/>
<path d="M0,0 L1,0 L1,5 L3,5 L3,7 L1,7 L1,17 L0,17 L-1,5 Z " fill="#2F3030" transform="translate(353,901)"/>
<path d="M0,0 L12,1 L12,2 L1,3 L0,6 L-2,6 L-1,1 Z " fill="#3E4041" transform="translate(314,840)"/>
<path d="M0,0 L4,4 L2,9 L0,10 Z " fill="#E1FEFE" transform="translate(248,408)"/>
<path d="M0,0 L3,1 L1,8 L-1,7 L-1,1 Z " fill="#FDF8FC" transform="translate(784,225)"/>
<path d="M0,0 L2,0 L1,5 L-1,5 L-1,15 L-2,15 L-2,3 Z " fill="#D7D7D7" transform="translate(415,159)"/>
<path d="M0,0 L9,0 L9,2 L2,2 L2,4 L0,4 Z " fill="#B4FEFE" transform="translate(197,955)"/>
<path d="M0,0 L2,0 L4,3 L10,4 L10,5 L0,6 Z " fill="#282525" transform="translate(388,952)"/>
<path d="M0,0 L4,0 L3,10 L2,10 L2,4 L0,4 Z " fill="#211E20" transform="translate(424,858)"/>
<path d="M0,0 L3,0 L3,14 L2,14 L2,4 L0,4 Z " fill="#060606" transform="translate(425,682)"/>
<path d="M0,0 L5,0 L5,5 L1,5 Z " fill="#FCDDF1" transform="translate(820,253)"/>
<path d="M0,0 L3,0 L2,10 L0,10 Z " fill="#FDFDFD" transform="translate(659,87)"/>
<path d="M0,0 L4,0 L4,2 L12,2 L12,3 L0,4 Z " fill="#242424" transform="translate(434,84)"/>
<path d="M0,0 L1,3 L0,4 L-9,4 L-9,2 L-1,1 Z " fill="#030303" transform="translate(588,25)"/>
<path d="M0,0 L6,0 L2,1 L3,4 L1,7 L-1,7 Z " fill="#F5F7FB" transform="translate(301,844)"/>
<path d="M0,0 L1,0 L1,6 L3,7 L-2,7 L-2,1 Z " fill="#EAF8FC" transform="translate(291,632)"/>
<path d="M0,0 L2,1 L2,8 L-1,7 L-1,1 Z " fill="#FDF9FC" transform="translate(784,241)"/>
<path d="M0,0 L4,0 L4,2 L12,2 L12,3 L1,4 Z " fill="#252525" transform="translate(602,240)"/>
<path d="M0,0 L1,0 L1,14 L-2,13 L-2,10 L0,10 Z " fill="#050404" transform="translate(827,180)"/>
<path d="M0,0 L8,0 L9,4 L7,4 L7,2 L0,2 Z " fill="#FBFBFB" transform="translate(796,115)"/>
<path d="M0,0 L4,0 L4,2 L10,2 L10,3 L0,4 Z " fill="#222022" transform="translate(580,230)"/>
<path d="M0,0 L2,0 L4,7 L0,7 Z " fill="#FAEAF9" transform="translate(493,180)"/>
<path d="M0,0 L2,0 L2,4 L-6,4 L-6,2 L0,2 Z " fill="#2A2A2B" transform="translate(732,178)"/>
<path d="M0,0 L8,0 L8,2 L1,3 L-1,4 Z " fill="#000000" transform="translate(563,75)"/>
<path d="M0,0 L7,0 L6,4 L-2,4 L-2,3 L4,2 Z " fill="#DEAFBF" transform="translate(406,952)"/>
<path d="M0,0 L3,0 L3,3 L7,4 L-1,4 Z " fill="#E9EAED" transform="translate(293,859)"/>
<path d="M0,0 L1,0 L1,12 L-2,11 L-2,8 L0,8 Z " fill="#050405" transform="translate(427,574)"/>
<path d="M0,0 L7,0 L7,3 L1,3 Z " fill="#1D1D1D" transform="translate(743,251)"/>
<path d="M0,0 L7,0 L6,3 L1,3 Z " fill="#030303" transform="translate(583,233)"/>
<path d="M0,0 L5,0 L5,4 L0,4 Z " fill="#060606" transform="translate(456,87)"/>
<path d="M0,0 L4,2 L-1,6 L-2,2 L0,2 Z " fill="#E5FDFD" transform="translate(247,945)"/>
<path d="M0,0 L3,0 L2,4 L4,5 L1,8 Z " fill="#FDFBFC" transform="translate(341,923)"/>
<path d="M0,0 L3,0 L3,10 L2,10 L2,4 L0,4 Z " fill="#060606" transform="translate(425,868)"/>
<path d="M0,0 L1,2 L5,1 L5,7 L4,5 L0,4 Z " fill="#EFF5FA" transform="translate(309,848)"/>
<path d="M0,0 L5,0 L5,6 L3,6 L3,2 L0,2 Z " fill="#FBFDFD" transform="translate(610,75)"/>
<path d="M0,0 L2,0 L2,7 L-2,6 L-2,4 L0,4 Z " fill="#FCFCFC" transform="translate(281,987)"/>
<path d="M0,0 L5,0 L3,1 L3,5 L0,5 Z " fill="#F9EDF8" transform="translate(420,857)"/>
<path d="M0,0 L1,0 L1,6 L3,6 L3,9 L-1,8 Z " fill="#232123" transform="translate(577,212)"/>
<path d="M0,0 L3,0 L3,5 L-2,5 L0,4 Z " fill="#868486" transform="translate(427,180)"/>
<path d="M0,0 L1,0 L1,10 L-2,9 L-2,6 L0,6 Z " fill="#040505" transform="translate(781,82)"/>
<path d="M0,0 L4,2 L2,6 L1,4 L-1,6 Z " fill="#ECE7EC" transform="translate(551,68)"/>
<path d="M0,0 L2,0 L1,5 L-1,5 L-2,9 L-2,3 Z " fill="#E4E4E4" transform="translate(471,69)"/>
<path d="M0,0 L1,4 L-1,4 L-1,6 L-4,6 L-2,2 Z " fill="#191D1D" transform="translate(189,1000)"/>
<path d="M0,0 L4,0 L4,4 L0,4 Z " fill="#343434" transform="translate(250,998)"/>
<path d="M0,0 L4,0 L4,4 L0,4 Z " fill="#333334" transform="translate(270,994)"/>
<path d="M0,0 L2,0 L2,2 L6,2 L6,4 L0,4 Z " fill="#FEFEFE" transform="translate(293,989)"/>
<path d="M0,0 L3,0 L4,5 L0,5 Z " fill="#7F7C7E" transform="translate(388,908)"/>
<path d="M0,0 L2,0 L2,5 L-3,5 L-3,3 L0,3 Z " fill="#FDFDFD" transform="translate(303,866)"/>
<path d="M0,0 L3,0 L4,5 L0,5 Z " fill="#777F7F" transform="translate(382,770)"/>
<path d="M0,0 L5,0 L4,4 L0,3 Z " fill="#7B8484" transform="translate(378,710)"/>
<path d="M0,0 L3,0 L4,5 L0,5 Z " fill="#767F7F" transform="translate(300,706)"/>
<path d="M0,0 L3,0 L4,5 L0,5 Z " fill="#767F7F" transform="translate(382,570)"/>
<path d="M0,0 L4,0 L4,4 L0,4 Z " fill="#1A181A" transform="translate(422,546)"/>
<path d="M0,0 L4,0 L4,4 L0,4 Z " fill="#303434" transform="translate(378,546)"/>
<path d="M0,0 L4,0 L4,4 L0,4 Z " fill="#343234" transform="translate(514,154)"/>
<path d="M0,0 L5,0 L6,3 L0,3 Z " fill="#858184" transform="translate(786,152)"/>
<path d="M0,0 L4,0 L4,4 L0,4 Z " fill="#FFFFFD" transform="translate(764,128)"/>
<path d="M0,0 L4,0 L4,4 L0,4 Z " fill="#FFFFFD" transform="translate(620,12)"/>
<path d="M0,0 L4,1 L1,7 L0,7 Z " fill="#ADFBF5" transform="translate(187,967)"/>
<path d="M0,0 L6,0 L3,1 L3,5 L1,5 Z " fill="#ADFCF6" transform="translate(200,958)"/>
<path d="M0,0 L1,0 L1,8 L-2,7 L-2,4 L0,4 Z " fill="#040404" transform="translate(311,922)"/>
<path d="M0,0 L1,4 L-1,4 L-1,6 L-5,5 L-4,3 L0,3 Z " fill="#CFD6D8" transform="translate(295,882)"/>
<path d="M0,0 L2,0 L2,6 L1,3 L-1,3 L-2,6 L-1,1 Z " fill="#3A373A" transform="translate(784,188)"/>
<path d="M0,0 L5,1 L2,4 L-1,4 Z " fill="#FDF8FC" transform="translate(492,163)"/>
<path d="M0,0 L6,0 L6,2 L0,3 L-2,1 Z " fill="#FEFDFE" transform="translate(783,111)"/>
<path d="M0,0 L2,3 L3,6 L-1,6 L-2,3 Z " fill="#FCF7FC" transform="translate(513,89)"/>
<path d="M0,0 L2,0 L2,2 L8,2 L8,3 L2,3 L1,5 Z " fill="#393839" transform="translate(554,56)"/>
<path d="M0,0 L2,0 L2,5 L-2,5 L-2,3 L0,3 Z " fill="#FEFEFE" transform="translate(297,854)"/>
<path d="M0,0 L1,4 L5,5 L1,5 L0,8 L0,5 L-2,4 L0,4 Z " fill="#D0E0DF" transform="translate(377,546)"/>
<path d="M0,0 L3,1 L0,4 L-3,4 L-2,1 Z " fill="#FEDBF3" transform="translate(812,288)"/>
<path d="M0,0 L1,4 L4,5 L2,6 L1,8 L-1,3 Z " fill="#F6D5E8" transform="translate(819,250)"/>
<path d="M0,0 L5,0 L4,3 L1,4 Z " fill="#FDFAFD" transform="translate(779,233)"/>
<path d="M0,0 L1,0 L1,5 L-3,4 L-3,2 Z " fill="#FAFBFC" transform="translate(739,170)"/>
<path d="M0,0 L3,0 L3,6 L2,4 L0,4 Z " fill="#1F1F1F" transform="translate(563,46)"/>
<path d="M0,0 L5,1 L4,3 L0,3 Z " fill="#FDFBFD" transform="translate(387,904)"/>
<path d="M0,0 L5,0 L4,3 L0,3 Z " fill="#FDFAFD" transform="translate(779,249)"/>
<path d="M0,0 L1,0 L2,8 L0,8 L-1,4 Z " fill="#FDE3F7" transform="translate(823,215)"/>
<path d="M0,0 L2,4 L1,7 L0,5 L-4,4 L0,4 Z " fill="#DDD7DD" transform="translate(518,154)"/>
<path d="M0,0 L3,2 L2,4 L-3,3 L-3,1 Z " fill="#FEFEFE" transform="translate(430,150)"/>
<path d="M0,0 L4,0 L5,3 L0,3 Z " fill="#191B1B" transform="translate(248,890)"/>
<path d="M0,0 L2,0 L2,4 L-1,5 Z " fill="#E6EAEB" transform="translate(314,836)"/>
<path d="M0,0 L4,0 L4,4 L2,4 L2,2 L0,2 Z " fill="#303333" transform="translate(282,634)"/>
<path d="M0,0 L4,0 L4,2 L2,2 L2,4 L0,4 Z " fill="#FEFEFE" transform="translate(695,251)"/>
<path d="M0,0 L4,0 L4,3 L-2,2 Z " fill="#FEFEFE" transform="translate(703,246)"/>
<path d="M0,0 L4,0 L4,3 L0,3 Z " fill="#FDFAFD" transform="translate(779,238)"/>
<path d="M0,0 L4,0 L4,3 L0,3 Z " fill="#FDF9FD" transform="translate(779,222)"/>
<path d="M0,0 L1,3 L4,4 L0,6 Z " fill="#FAF8FC" transform="translate(749,173)"/>
<path d="M0,0 L3,0 L3,3 L-2,3 L0,2 Z " fill="#A09D9E" transform="translate(707,256)"/>
<path d="M0,0 L5,0 L5,2 L1,3 Z " fill="#FDE5F4" transform="translate(818,247)"/>
<path d="M0,0 L3,1 L2,4 L-1,3 Z " fill="#FCF8FD" transform="translate(588,203)"/>
<path d="M0,0 L3,1 L3,3 L-1,3 Z " fill="#F8F9FE" transform="translate(276,990)"/>
<path d="M0,0 L2,0 L0,4 L-2,4 Z " fill="#302428" transform="translate(414,952)"/>
<path d="M0,0 L3,0 L4,3 L0,3 Z " fill="#949697" transform="translate(322,950)"/>
<path d="M0,0 L4,1 L3,3 L0,3 Z " fill="#929597" transform="translate(304,847)"/>
<path d="M0,0 L3,0 L4,3 L0,3 Z " fill="#8D9797" transform="translate(370,524)"/>
<path d="M0,0 L3,0 L4,3 L0,3 Z " fill="#8D9797" transform="translate(356,444)"/>
<path d="M0,0 L3,0 L4,3 L0,3 Z " fill="#969596" transform="translate(704,250)"/>
<path d="M0,0 L3,0 L3,3 L0,4 Z " fill="#FCFBFC" transform="translate(447,154)"/>
<path d="M0,0 L4,2 L2,2 L1,5 L1,2 L-1,1 Z " fill="#F7F7F7" transform="translate(465,33)"/>
<path d="M0,0 L4,1 L2,2 L1,4 Z " fill="#F1F7F7" transform="translate(247,885)"/>
<path d="M0,0 L3,0 L3,3 L0,3 Z " fill="#E6F2F2" transform="translate(375,710)"/>
<path d="M0,0 L3,1 L3,3 L0,2 Z " fill="#040404" transform="translate(289,993)"/>
<path d="M0,0 L4,2 L1,3 Z " fill="#F5F8F7" transform="translate(613,91)"/>
</svg>
