<?xml version="1.0" encoding="UTF-8"?>
<!-- Generator: visioncortex VTracer 0.6.4 -->
<svg version="1.1" xmlns="http://www.w3.org/2000/svg" width="1024" height="1024">
<path d="M0,0 L1024,0 L1024,1024 L0,1024 Z " fill="#000000" transform="translate(0,0)"/>
<path d="M0,0 L650,0 L650,30 L648,30 L648,34 L646,34 L646,40 L644,40 L644,44 L640,48 L635,50 L634,52 L630,52 L630,54 L622,55 L620,62 L618,62 L618,66 L610,66 L610,74 L616,74 L616,82 L614,82 L614,90 L618,92 L618,94 L626,94 L632,100 L632,102 L636,102 L636,104 L642,104 L642,102 L650,102 L650,104 L654,104 L654,106 L658,106 L658,104 L660,104 L660,98 L658,98 L658,86 L662,86 L662,84 L664,84 L664,74 L666,74 L667,69 L672,68 L672,66 L676,66 L676,64 L690,64 L690,62 L730,62 L730,64 L740,64 L740,66 L746,66 L746,68 L756,68 L758,72 L764,72 L764,74 L770,74 L770,76 L774,76 L776,81 L778,82 L778,92 L780,92 L780,108 L784,108 L784,110 L790,110 L790,112 L796,112 L796,114 L804,114 L806,116 L806,120 L808,120 L808,126 L812,126 L812,134 L808,134 L808,136 L810,136 L810,142 L808,142 L808,146 L812,148 L812,154 L814,154 L814,160 L816,160 L816,168 L818,168 L818,174 L822,174 L822,180 L824,180 L824,194 L826,194 L826,214 L828,214 L828,220 L826,220 L826,224 L824,224 L824,226 L826,226 L826,236 L824,236 L824,238 L826,238 L826,246 L824,246 L824,250 L820,250 L820,252 L826,252 L826,258 L830,260 L830,286 L825,288 L824,294 L814,294 L814,296 L808,296 L808,294 L788,294 L788,292 L778,292 L778,290 L770,290 L770,292 L742,292 L740,290 L740,287 L738,288 L730,288 L730,286 L712,286 L712,284 L706,284 L706,280 L698,280 L698,276 L696,276 L696,272 L694,272 L694,260 L696,260 L696,256 L694,256 L694,250 L698,250 L698,248 L674,248 L674,250 L650,250 L650,248 L636,248 L636,246 L630,246 L630,244 L614,244 L614,242 L606,242 L606,240 L602,240 L602,238 L598,238 L598,234 L590,234 L590,232 L584,232 L584,230 L579,229 L578,228 L578,222 L580,222 L580,218 L578,218 L578,212 L576,212 L576,206 L562,206 L562,204 L546,204 L546,206 L540,206 L538,203 L532,202 L532,204 L526,204 L526,202 L522,202 L522,204 L516,204 L514,200 L502,200 L500,197 L496,196 L496,190 L490,190 L489,180 L484,176 L484,170 L486,170 L486,166 L490,166 L492,162 L493,160 L486,160 L486,158 L464,158 L464,160 L450,160 L450,158 L448,158 L448,164 L444,164 L444,166 L438,166 L438,170 L440,170 L440,176 L436,176 L436,184 L432,184 L432,196 L430,196 L430,202 L428,202 L428,220 L426,220 L426,228 L424,228 L424,236 L426,236 L426,248 L424,248 L424,256 L426,256 L426,264 L424,264 L424,272 L426,272 L426,284 L424,284 L424,302 L426,302 L426,318 L424,318 L424,350 L426,350 L426,370 L424,370 L424,384 L426,384 L426,418 L424,418 L424,438 L426,438 L426,460 L424,460 L424,462 L426,462 L426,498 L424,498 L424,546 L422,546 L422,550 L424,550 L424,564 L422,564 L422,574 L424,574 L424,586 L426,586 L426,594 L424,594 L424,670 L426,670 L426,682 L424,682 L424,696 L422,696 L422,704 L424,704 L424,756 L426,756 L426,770 L424,770 L424,784 L422,784 L422,798 L426,798 L426,816 L424,816 L424,832 L426,832 L426,858 L424,858 L424,862 L426,862 L426,868 L424,868 L424,878 L422,878 L422,884 L424,884 L424,890 L428,890 L428,904 L424,904 L424,918 L420,918 L420,926 L422,926 L422,936 L420,936 L420,946 L416,946 L416,952 L412,956 L404,956 L404,958 L398,958 L398,956 L393,956 L388,952 L388,958 L382,958 L382,968 L380,968 L380,996 L378,996 L378,1024 L0,1024 Z " fill="#F3FDFE" transform="translate(0,0)"/>
<path d="M0,0 L244,0 L244,132 L242,132 L242,138 L244,138 L244,164 L242,164 L243,272 L242,300 L244,300 L244,318 L242,318 L242,330 L244,330 L244,358 L246,358 L246,364 L242,364 L242,370 L246,370 L246,372 L244,372 L244,378 L242,378 L243,392 L245,396 L243,398 L242,408 L244,408 L244,418 L242,418 L242,446 L244,446 L244,512 L242,512 L242,552 L244,552 L244,582 L242,582 L242,594 L244,594 L244,598 L242,598 L242,612 L244,612 L244,622 L242,622 L242,662 L240,662 L240,670 L242,670 L242,692 L244,692 L244,708 L242,708 L242,722 L244,722 L244,786 L242,786 L242,830 L240,830 L240,856 L242,856 L242,862 L240,862 L240,872 L242,872 L242,876 L244,876 L244,884 L246,884 L248,889 L253,891 L254,894 L260,894 L260,902 L268,902 L268,908 L272,908 L274,915 L275,918 L274,930 L270,930 L270,934 L266,934 L266,938 L260,938 L260,940 L254,940 L254,942 L247,944 L242,950 L222,950 L222,952 L206,952 L206,954 L196,954 L196,960 L190,960 L190,964 L188,964 L188,966 L184,966 L184,974 L182,974 L182,980 L184,980 L184,986 L188,986 L188,988 L192,988 L192,992 L196,992 L195,995 L193,996 L192,1000 L190,1000 L190,1004 L187,1006 L186,1024 L0,1024 Z " fill="#000000" transform="translate(0,0)"/>
<path d="M0,0 L8,0 L8,8 L10,8 L10,12 L12,12 L12,16 L22,16 L22,32 L24,32 L24,38 L22,38 L22,56 L20,56 L20,64 L24,64 L24,66 L22,66 L23,74 L22,84 L20,84 L20,86 L12,86 L12,88 L8,88 L8,94 L6,94 L6,104 L2,104 L2,114 L-6,114 L-6,108 L-13,110 L-15,112 L-18,112 L-18,108 L-22,108 L-22,96 L-24,96 L-24,88 L-26,88 L-26,80 L-30,80 L-30,60 L-42,60 L-42,54 L-38,54 L-38,52 L-36,52 L-36,48 L-32,48 L-32,38 L-26,38 L-26,32 L-22,32 L-22,28 L-20,28 L-20,22 L-18,20 L-8,20 L-8,18 L-6,18 L-6,8 L-17,9 L-18,12 L-20,12 L-19,7 L-16,4 L0,4 Z " fill="#040404" transform="translate(332,834)"/>
<path d="M0,0 L1,4 L3,4 L3,0 L8,1 L8,3 L12,4 L10,6 L9,13 L11,13 L11,8 L12,10 L15,11 L15,13 L18,19 L18,21 L20,21 L19,26 L15,25 L16,39 L12,41 L7,41 L7,43 L10,44 L8,44 L6,48 L-3,51 L-10,54 L-17,61 L-20,65 L-23,72 L-28,72 L-28,77 L-32,82 L-39,88 L-40,92 L-45,97 L-53,101 L-60,109 L-62,110 L-62,108 L-65,111 L-68,111 L-69,115 L-70,130 L-74,130 L-74,112 L-70,110 L-70,106 L-68,106 L-67,101 L-64,98 L-68,98 L-68,94 L-72,94 L-72,92 L-76,92 L-76,86 L-78,86 L-78,80 L-76,80 L-76,72 L-72,72 L-72,70 L-70,70 L-70,66 L-64,66 L-64,60 L-54,60 L-54,58 L-38,58 L-38,56 L-18,56 L-16,52 L-12,48 L-6,48 L-6,46 L0,46 L0,44 L6,44 L6,40 L10,40 L10,36 L14,36 L14,22 L12,20 L12,14 L8,14 L8,8 L0,8 Z M-62,107 Z M12,2 Z " fill="#DBFEFE" transform="translate(260,894)"/>
<path d="M0,0 L1,0 L1,8 L-1,8 L-1,16 L1,16 L1,28 L-1,28 L-1,36 L1,36 L1,44 L-1,44 L-1,52 L1,52 L1,64 L-1,64 L-1,82 L1,82 L1,98 L-1,98 L-1,130 L1,130 L1,150 L-1,150 L-1,164 L1,164 L1,198 L-1,198 L-1,218 L1,218 L1,240 L-1,240 L-1,242 L1,242 L1,278 L-1,278 L-1,326 L-3,326 L-3,330 L-1,330 L-1,344 L-3,344 L-2,354 L-2,450 L-5,450 L-4,484 L-7,484 L-9,452 L-9,423 L-8,423 L-8,448 L-5,448 L-6,369 L-9,367 L-9,357 L-8,355 L-7,324 L-8,292 L-8,277 L-7,276 L-7,240 L-6,231 L-6,219 L-5,198 L-4,198 L-4,218 L-2,218 L-3,198 L-3,1 L-2,1 L-2,7 L0,7 Z " fill="#FDF1FD" transform="translate(425,220)"/>
<path d="M0,0 L3,0 L3,4 L5,4 L5,17 L3,43 L1,57 L-1,57 L-2,63 L-4,68 L-4,77 L0,86 L1,93 L1,103 L-1,103 L-2,109 L-11,113 L-39,114 L-40,112 L-48,112 L-48,114 L-75,114 L-78,109 L-80,108 L-105,108 L-105,106 L-85,104 L-90,102 L-90,100 L-94,99 L-93,97 L-85,98 L-82,97 L-82,101 L-74,101 L-74,103 L-70,103 L-71,98 L-68,98 L-68,100 L-64,99 L-64,102 L-51,102 L-50,103 L-32,104 L-32,106 L-29,104 L-14,103 L-12,101 L-9,101 L-6,94 L-5,89 L-7,89 L-8,78 L-7,72 L-7,61 L-5,61 L-6,51 L-4,51 L-2,45 L-1,38 L-3,38 L-2,33 L-1,30 L-3,30 L-2,27 L-1,4 Z " fill="#FEEDFD" transform="translate(818,177)"/>
<path d="M0,0 L1,0 L2,23 L1,51 L3,51 L5,56 L5,69 L4,70 L2,86 L4,87 L3,92 L2,106 L1,133 L1,136 L2,161 L2,192 L1,253 L-2,253 L-2,283 L-3,283 L-3,253 L-5,253 L-5,213 L-3,213 L-3,147 L-5,147 L-5,119 L-3,119 L-3,109 L-5,109 L-5,99 L-3,95 L-5,93 L-5,79 L-3,79 L-3,73 L-1,73 L-1,71 L-5,71 L-5,65 L-1,65 L-1,59 L-3,59 L-3,31 L-5,31 L-5,19 L-3,19 L-3,2 L-2,2 L-2,19 L0,19 Z " fill="#E0FDFE" transform="translate(247,299)"/>
<path d="M0,0 L3,1 L3,211 L0,212 L0,229 L-1,235 L-1,269 L-2,270 L-2,285 L-1,318 L-2,339 L-5,345 L-8,349 L-8,334 L-7,327 L-5,327 L-5,318 L-4,317 L-4,288 L-5,288 L-5,253 L-3,253 L-3,228 L-4,212 L-3,191 L-5,189 L-5,170 L-4,169 L-3,148 L-2,143 L-1,123 L-1,108 L-2,119 L-4,118 L-4,90 L-2,89 L-1,77 L-1,56 Z M-4,153 Z M-4,191 Z " fill="#FEF7FE" transform="translate(420,227)"/>
<path d="M0,0 L4,0 L4,6 L6,6 L6,20 L8,20 L8,40 L10,40 L10,46 L8,46 L8,50 L6,50 L6,52 L8,52 L8,62 L6,62 L6,64 L8,64 L8,72 L6,72 L6,76 L2,76 L2,78 L8,78 L8,84 L12,86 L12,112 L7,114 L6,120 L-4,120 L-4,122 L-10,122 L-10,120 L-30,120 L-30,118 L-40,118 L-40,116 L-48,116 L-48,115 L-40,114 L-30,114 L-30,115 L-39,115 L-39,117 L-11,115 L-5,112 L-2,112 L-1,106 L1,106 L-1,89 L-5,79 L-5,71 L-2,64 L-1,60 L1,60 L1,52 L3,34 L5,7 L3,7 L3,15 L2,15 L2,6 L3,1 Z " fill="#FEE0F5" transform="translate(818,174)"/>
<path d="M0,0 L4,0 L5,106 L5,129 L4,139 L1,138 L2,164 L3,233 L2,270 L1,273 L-1,273 L-1,300 L-2,300 L-2,164 L0,164 L0,138 L-2,138 L-2,132 L0,132 Z " fill="#D1EAEB" transform="translate(244,0)"/>
<path d="M0,0 L1,0 L1,9 L3,9 L3,0 L4,0 L4,10 L2,10 L2,16 L4,16 L4,22 L8,22 L8,36 L4,36 L4,50 L0,50 L0,58 L2,58 L2,68 L0,68 L0,78 L-4,78 L-4,84 L-8,88 L-16,88 L-16,90 L-22,90 L-22,88 L-27,88 L-29,85 L-24,84 L-24,78 L-23,76 L-21,76 L-17,60 L-15,54 L-13,53 L-11,47 L-8,47 L-7,42 L-5,38 L-2,38 L-1,28 L2,22 L3,17 L1,17 L1,22 L0,22 L1,10 L-2,11 Z " fill="#FEDDEE" transform="translate(420,868)"/>
<path d="M0,0 L4,0 L4,18 L2,18 L2,34 L4,34 L4,60 L2,60 L2,64 L4,64 L4,70 L1,70 L1,79 L-1,79 L-2,73 L-3,80 L-1,80 L-1,87 L1,87 L1,92 L-2,98 L-4,108 L-7,108 L-10,117 L-13,118 L-15,124 L-17,125 L-22,144 L-23,146 L-25,146 L-26,154 L-32,155 L-34,154 L-34,160 L-40,160 L-40,159 L-35,159 L-35,153 L-37,153 L-37,157 L-42,157 L-42,149 L-39,147 L-39,138 L-34,136 L-36,139 L-36,144 L-34,144 L-32,138 L-27,128 L-22,123 L-19,123 L-19,117 L-21,116 L-16,112 L-15,108 L-13,108 L-13,103 L-10,98 L-6,78 L-4,78 L-4,59 L-3,55 L-2,42 L0,42 L0,3 L3,3 L3,1 Z " fill="#FEE9F9" transform="translate(422,798)"/>
<path d="M0,0 L1,0 L1,11 L3,11 L4,16 L5,30 L11,26 L11,44 L8,49 L6,56 L8,56 L8,63 L7,66 L6,78 L6,127 L5,127 L5,110 L3,110 L4,126 L4,248 L3,248 L3,205 L1,205 L1,248 L0,248 L0,204 L2,204 L2,140 L0,140 L0,126 L2,126 L2,110 L0,110 L0,88 L-2,88 L-2,80 L0,80 L0,40 L2,40 L2,30 L0,30 L0,16 L2,16 L2,12 L0,12 Z " fill="#EDFBFD" transform="translate(242,582)"/>
<path d="M0,0 L20,0 L20,1 L9,2 L11,4 L5,4 L3,9 L0,12 L-3,11 L-2,6 L-6,6 L-7,14 L-10,15 L-11,17 L-16,20 L-18,20 L-18,22 L-22,22 L-23,26 L-26,28 L-27,32 L-31,33 L-31,35 L-33,35 L-33,37 L-29,37 L-29,35 L-25,34 L-27,37 L-26,39 L-29,39 L-29,41 L-26,42 L-30,42 L-30,38 L-34,38 L-34,36 L-38,36 L-38,30 L-40,30 L-40,24 L-38,24 L-38,16 L-34,16 L-34,14 L-32,14 L-32,10 L-26,10 L-26,4 L-16,4 L-16,2 L0,2 Z M-3,12 Z M-5,13 L-3,14 Z " fill="#BEFEFC" transform="translate(222,950)"/>
<path d="M0,0 L1,0 L1,50 L2,51 L2,57 L-1,62 L-2,64 L0,64 L0,95 L2,96 L0,106 L-2,106 L-3,108 L-3,91 L-6,91 L-7,74 L-8,73 L-8,46 L-6,46 L-5,30 L-4,29 L-2,2 Z " fill="#E2FEFE" transform="translate(251,227)"/>
<path d="M0,0 L1,0 L1,8 L-1,8 L-1,16 L1,16 L1,28 L-1,28 L-1,36 L1,36 L1,44 L-1,44 L-1,52 L1,52 L1,64 L-1,64 L-1,82 L1,82 L1,98 L-1,98 L-1,130 L1,130 L1,150 L-1,150 L-1,164 L1,164 L1,198 L-1,198 L-1,218 L-2,218 L-3,198 L-3,1 L-2,1 L-2,7 L0,7 Z " fill="#E0D6DF" transform="translate(425,220)"/>
<path d="M0,0 L4,0 L4,132 L2,132 L2,138 L1,138 L0,131 Z " fill="#0F1112" transform="translate(240,0)"/>
<path d="M0,0 L1,0 L1,22 L-1,22 L-1,24 L1,24 L1,60 L-1,60 L-1,108 L-3,108 L-3,112 L-1,112 L-1,126 L-3,126 L-3,136 L-4,136 L-5,126 L-5,22 L-3,24 L-3,10 L-2,10 L-2,21 L0,21 Z " fill="#FDF0FD" transform="translate(425,438)"/>
<path d="M0,0 L4,0 L4,6 L2,9 L-3,19 L-5,24 L-10,26 L-15,34 L-18,36 L-21,45 L-19,46 L-21,49 L-24,49 L-25,53 L-26,68 L-30,68 L-30,50 L-26,48 L-26,44 L-24,44 L-23,39 L-21,38 L-20,35 L-23,35 L-21,30 L-21,29 L-23,29 L-23,31 L-27,31 L-27,29 L-25,29 L-25,27 L-21,25 L-20,21 L-17,19 L-16,16 L-12,16 L-12,14 L-2,8 Z " fill="#C7FEFD" transform="translate(216,956)"/>
<path d="M0,0 L4,0 L5,69 L4,106 L3,109 L1,109 L1,136 L0,136 Z " fill="#CBE7E8" transform="translate(242,164)"/>
<path d="M0,0 L3,0 L4,6 L4,22 L3,30 L1,30 L1,46 L0,47 L0,57 L-1,66 L-3,66 L-5,82 L-8,90 L-14,97 L-15,97 L-15,90 L-13,86 L-11,86 L-10,76 L-8,76 L-8,68 L-5,64 L-6,57 L-2,48 L-4,47 L-2,41 L-7,44 L-7,38 L-5,36 L-2,36 L-4,24 L-2,24 L-3,8 Z M-7,62 Z " fill="#FEF1FE" transform="translate(419,810)"/>
<path d="M0,0 L1,0 L1,27 L3,27 L3,94 L5,94 L5,28 L7,32 L7,73 L6,134 L3,134 L3,164 L2,164 L2,134 L0,134 L0,94 L2,94 L2,28 L0,28 Z " fill="#C8E0E3" transform="translate(242,418)"/>
<path d="M0,0 L1,0 L1,12 L3,12 L3,20 L1,20 L1,96 L3,96 L3,108 L1,108 L1,122 L-1,122 L-1,130 L1,130 L1,182 L3,182 L3,196 L1,196 L1,210 L-1,210 L-1,224 L-2,224 L-3,210 L-3,197 L-2,197 L-2,209 L0,209 L-1,196 L0,131 L-2,131 L-2,140 L-3,140 L-4,132 L-5,130 L-2,130 L-3,122 L-3,96 L0,96 L-1,12 Z " fill="#ECE0EC" transform="translate(423,574)"/>
<path d="M0,0 L16,0 L16,2 L20,2 L20,4 L28,4 L28,6 L38,6 L38,4 L44,4 L44,12 L0,12 L0,8 L-4,8 L-4,4 L0,4 Z " fill="#1F1F1F" transform="translate(418,82)"/>
<path d="M0,0 L1,4 L-2,5 L-4,4 L-4,6 L-1,6 L-1,12 L1,16 L3,17 L0,17 L0,26 L8,25 L9,26 L10,24 L21,24 L21,30 L25,31 L25,34 L29,36 L35,37 L55,37 L55,40 L71,40 L71,41 L55,41 L55,43 L49,43 L47,40 L41,39 L41,41 L35,41 L35,39 L31,39 L31,41 L25,41 L23,37 L11,37 L9,34 L5,33 L5,27 L-1,27 L-2,17 L-7,13 L-7,7 L-5,7 L-5,3 L-1,3 Z " fill="#FEF1FE" transform="translate(491,163)"/>
<path d="M0,0 L1,3 L3,3 L4,1 L5,75 L6,75 L6,88 L5,89 L4,102 L3,102 L3,92 L1,92 L1,102 L0,102 L0,88 L2,88 L2,76 L0,76 Z M3,76 Z " fill="#141213" transform="translate(424,594)"/>
<path d="M0,0 L40,0 L40,2 L50,2 L50,4 L56,4 L56,6 L66,6 L68,10 L74,10 L74,12 L80,12 L80,14 L84,14 L86,19 L88,20 L88,30 L87,30 L87,21 L82,20 L83,15 L81,16 L74,16 L74,15 L79,15 L79,13 L68,14 L68,13 L73,13 L73,11 L60,14 L60,10 L50,10 L50,7 L55,7 L55,5 L44,6 L44,5 L49,5 L49,3 L40,4 L0,4 L-13,3 L-13,5 L0,5 L0,6 L-14,6 L-17,5 L-17,7 L-23,8 L-22,6 L-18,6 L-18,4 L-14,4 L-14,2 L0,2 Z " fill="#D4E0E0" transform="translate(690,62)"/>
<path d="M0,0 L1,0 L1,11 L3,11 L3,6 L4,6 L4,13 L3,15 L5,15 L6,12 L14,14 L18,13 L23,13 L23,14 L34,17 L34,19 L40,20 L39,22 L30,23 L19,23 L19,25 L44,24 L47,26 L49,30 L76,31 L76,32 L48,32 L46,30 L46,27 L44,28 L36,28 L36,26 L18,26 L18,24 L12,24 L12,20 L4,20 L4,16 L2,16 L2,12 L0,12 Z " fill="#FEE7F3" transform="translate(694,260)"/>
<path d="M0,0 L4,0 L4,14 L0,14 L0,28 L-4,28 L-4,36 L-2,36 L-2,46 L-4,46 L-4,56 L-8,56 L-8,62 L-12,66 L-20,66 L-20,68 L-26,68 L-26,66 L-31,66 L-31,65 L-26,65 L-24,60 L-23,63 L-13,65 L-13,63 L-20,63 L-16,62 L-16,56 L-12,50 L-10,50 L-7,37 L-6,21 L-4,15 L-3,15 L-3,24 L-1,24 L-2,10 L0,3 L3,3 L3,1 Z " fill="#E7BBD0" transform="translate(424,890)"/>
<path d="M0,0 L12,0 L12,28 L10,28 L10,30 L0,30 Z " fill="#131313" transform="translate(578,0)"/>
<path d="M0,0 L6,0 L6,4 L4,4 L4,10 L2,10 L2,16 L8,16 L8,28 L6,28 L6,36 L8,36 L8,46 L0,46 L0,32 L2,32 L2,26 L0,26 L-1,18 L-6,16 L-6,8 L-8,8 L-8,4 L0,4 Z " fill="#232223" transform="translate(290,978)"/>
<path d="M0,0 L6,0 L5,33 L5,65 L4,78 L0,81 Z " fill="#E3FEFE" transform="translate(248,0)"/>
<path d="M0,0 L15,0 L15,1 L1,1 L1,3 L8,3 L5,4 L5,6 L-2,10 L-6,13 L-8,17 L-10,17 L-10,19 L-19,23 L-19,18 L-21,18 L-20,28 L-21,33 L-19,33 L-18,28 L-10,28 L-12,31 L-15,31 L-15,33 L-17,33 L-17,35 L-13,35 L-13,33 L-9,32 L-11,35 L-10,37 L-13,37 L-13,39 L-10,40 L-14,40 L-14,36 L-18,36 L-18,34 L-22,34 L-22,28 L-24,28 L-24,22 L-22,22 L-22,14 L-18,14 L-18,12 L-16,12 L-16,8 L-10,8 L-10,2 L0,2 Z " fill="#B2FEFA" transform="translate(206,952)"/>
<path d="M0,0 L4,0 L4,30 L2,30 L2,34 L0,34 L0,40 L-2,40 L-2,44 L-6,48 L-11,50 L-12,52 L-16,52 L-16,54 L-25,55 L-26,51 L-25,50 L-16,50 L-13,51 L-13,49 L-16,48 L-10,46 L-7,47 L-8,44 L-5,35 L-6,32 L-4,32 L-5,26 L-4,17 L-3,13 L-2,10 L0,10 Z " fill="#F1FEFE" transform="translate(646,0)"/>
<path d="M0,0 L4,1 L2,5 L3,14 L4,24 L2,29 L1,35 L1,68 L3,68 L5,63 L6,63 L5,74 L1,77 L0,80 L2,81 L1,86 L2,91 L1,92 L0,104 L-1,104 L-3,75 L-5,75 L-5,64 L-3,64 L-3,34 L0,34 Z M2,22 Z " fill="#E4FAFD" transform="translate(248,518)"/>
<path d="M0,0 L5,0 L7,2 L7,10 L9,10 L9,16 L7,16 L7,30 L-7,30 L-7,15 L-6,14 L0,14 Z " fill="#FDF8FD" transform="translate(283,994)"/>
<path d="M0,0 L2,1 L0,4 L2,5 L2,9 L-4,20 L-6,23 L-12,23 L-16,26 L-23,32 L-25,36 L-31,37 L-32,33 L-28,29 L-25,29 L-23,25 L-20,24 L-19,19 L-11,12 L-9,8 L-8,4 L-2,2 Z " fill="#E6FEFE" transform="translate(240,962)"/>
<path d="M0,0 L12,0 L12,2 L8,2 L8,8 L6,8 L6,18 L8,18 L8,24 L12,24 L12,26 L28,26 L28,28 L4,28 L4,36 L-2,36 L-2,44 L-4,44 L-4,34 L0,32 Z " fill="#1B1B1B" transform="translate(418,130)"/>
<path d="M0,0 L6,0 L6,6 L10,8 L10,34 L5,36 L4,42 L-6,42 L-6,44 L-12,44 L-12,42 L-32,42 L-32,41 L-6,40 L0,41 L0,39 L-5,39 L-5,38 L0,38 L0,33 L2,33 L2,3 L5,3 L5,1 L0,1 Z " fill="#FED4EC" transform="translate(820,252)"/>
<path d="M0,0 L2,0 L2,2 L8,2 L8,6 L16,6 L16,10 L18,10 L18,22 L15,24 L14,30 L10,30 L10,26 L6,26 L6,14 L2,14 L2,6 L-2,6 L-1,1 Z " fill="#0F0E0F" transform="translate(556,68)"/>
<path d="M0,0 L1,0 L1,11 L3,11 L4,16 L4,81 L2,88 L1,110 L0,110 L0,88 L-2,88 L-2,80 L0,80 L0,40 L2,40 L2,30 L0,30 L0,16 L2,16 L2,12 L0,12 Z " fill="#D4E4E7" transform="translate(242,582)"/>
<path d="M0,0 L3,1 L3,3 L7,2 L9,4 L11,3 L16,5 L17,1 L19,1 L19,3 L21,3 L21,1 L23,1 L23,5 L27,5 L27,7 L43,6 L45,7 L45,10 L52,10 L65,13 L65,15 L51,15 L51,13 L35,13 L35,10 L27,11 L11,11 L5,7 L5,4 L0,3 Z " fill="#FEF6FE" transform="translate(511,190)"/>
<path d="M0,0 L1,4 L3,4 L3,0 L8,1 L8,3 L12,4 L10,6 L9,13 L11,13 L11,8 L12,10 L15,11 L15,13 L18,19 L18,21 L20,21 L19,26 L15,25 L16,39 L12,41 L7,41 L7,43 L10,44 L8,44 L6,48 L-3,51 L-10,54 L-17,56 L-17,53 L-12,48 L-6,48 L-6,46 L0,46 L0,44 L6,44 L6,40 L10,40 L10,36 L14,36 L14,22 L12,20 L12,14 L8,14 L8,8 L0,8 Z M12,2 Z " fill="#C6DEDF" transform="translate(260,894)"/>
<path d="M0,0 L1,0 L1,10 L-3,10 L-3,14 L-5,14 L-5,16 L-9,16 L-9,22 L3,22 L3,42 L7,42 L7,50 L9,50 L9,58 L11,58 L11,70 L10,70 L10,59 L8,59 L8,66 L7,66 L7,58 L8,51 L6,51 L6,59 L5,59 L5,50 L6,46 L4,46 L3,50 L-1,42 L-2,28 L-3,27 L-10,26 L-10,25 L2,25 L2,23 L-13,23 L-13,14 L-15,13 L-11,11 L-10,3 L-8,5 L-9,8 L-4,7 L0,9 Z " fill="#CFDEDF" transform="translate(299,872)"/>
<path d="M0,0 L9,0 L10,2 L15,2 L15,4 L10,4 L10,7 L14,6 L20,7 L20,11 L28,8 L33,8 L33,10 L28,10 L27,14 L23,14 L14,12 L7,11 L1,12 L0,8 L-14,6 L-14,3 L-18,3 L-18,1 Z " fill="#EEFEFE" transform="translate(730,65)"/>
<path d="M0,0 L8,1 L11,0 L12,5 L16,6 L16,9 L24,10 L24,12 L37,12 L37,14 L45,14 L45,17 L18,17 L15,12 L13,11 L-12,11 L-12,9 L8,7 L3,5 L3,3 L-1,2 Z " fill="#FDE8F8" transform="translate(725,274)"/>
<path d="M0,0 L6,0 L6,1 L1,1 L1,3 L6,3 L4,4 L4,10 L3,11 L2,38 L1,39 L0,66 L-4,66 L-4,38 L-2,38 L-2,10 L0,10 Z " fill="#0B0B0B" transform="translate(382,958)"/>
<path d="M0,0 L10,0 L10,33 L6,32 L6,24 L2,24 L2,18 L0,18 Z " fill="#0F0F0F" transform="translate(460,0)"/>
<path d="M0,0 L4,0 L4,6 L6,6 L6,20 L8,20 L8,40 L10,40 L10,46 L8,46 L8,50 L6,50 L6,52 L8,52 L8,62 L6,62 L6,64 L8,64 L8,72 L6,72 L6,76 L2,75 L5,75 L4,73 L4,59 L5,61 L7,61 L7,53 L4,54 L2,50 L5,7 L3,7 L3,15 L2,15 L2,6 L3,1 Z " fill="#F1D8EC" transform="translate(818,174)"/>
<path d="M0,0 L1,0 L1,64 L-1,64 L-1,108 L-3,108 L-3,134 L-4,134 L-5,107 L-5,65 L-4,65 L-3,105 L-3,1 L-2,1 L-1,61 Z " fill="#202223" transform="translate(243,722)"/>
<path d="M0,0 L1,0 L1,14 L3,14 L3,8 L4,8 L5,18 L6,19 L6,34 L5,35 L3,86 L2,86 L2,66 L0,66 L0,34 L2,34 L2,18 L0,18 Z M3,18 Z " fill="#131213" transform="translate(424,284)"/>
<path d="M0,0 L1,2 L4,2 L4,32 L3,32 L3,4 L1,4 L1,31 L-5,31 L-5,3 L-7,3 L-7,31 L-8,31 L-8,3 L-11,2 L0,2 Z " fill="#D0DEDF" transform="translate(294,639)"/>
<path d="M0,0 L1,0 L2,17 L1,56 L3,56 L3,72 L1,72 L2,77 L2,100 L-1,99 L-1,106 L1,106 L1,117 L0,117 L0,107 L-2,107 L-2,97 L0,93 L-2,91 L-2,77 L0,77 L0,71 L2,71 L2,69 L-2,69 L-2,63 L2,63 L2,57 L0,57 L0,29 L-2,29 L-2,17 L0,17 Z " fill="#BFDDE0" transform="translate(244,301)"/>
<path d="M0,0 L1,0 L1,22 L-1,22 L-1,24 L1,24 L1,60 L-1,60 L-1,108 L-2,108 L-3,60 L-3,10 L-2,10 L-2,21 L0,21 Z " fill="#DDCEDB" transform="translate(425,438)"/>
<path d="M0,0 L8,0 L8,44 L0,44 L1,39 L4,38 L4,12 L2,12 L2,4 L0,4 Z " fill="#202020" transform="translate(470,34)"/>
<path d="M0,0 L1,0 L2,15 L2,137 L1,137 L1,94 L-1,94 L-1,137 L-2,137 L-2,93 L0,93 L0,29 L-2,29 L-2,15 L0,15 Z " fill="#C6CDCE" transform="translate(244,693)"/>
<path d="M0,0 L2,0 L2,78 L0,78 L-1,66 L-2,65 L-2,33 L-1,9 Z M-3,65 Z " fill="#FDF3FD" transform="translate(421,705)"/>
<path d="M0,0 L3,1 L4,31 L4,72 L1,73 L0,26 Z " fill="#E1FEFE" transform="translate(245,138)"/>
<path d="M0,0 L1,4 L3,4 L3,16 L4,17 L4,28 L3,29 L3,36 L4,37 L4,44 L3,45 L1,64 L0,64 L0,52 L-2,52 L-2,44 L0,44 L0,36 L-2,36 L-2,28 L0,28 L0,16 L-2,16 L-2,8 L0,8 Z M1,16 Z M1,36 Z " fill="#141313" transform="translate(426,220)"/>
<path d="M0,0 L5,0 L5,4 L7,4 L8,0 L8,8 L4,8 L4,20 L2,20 L2,26 L0,26 L0,44 L-1,44 L-2,20 L-1,20 L-1,25 L1,25 L0,16 L-4,16 L-4,21 L-6,20 L-6,14 L-4,14 L-4,3 L-1,3 Z " fill="#F0EBEF" transform="translate(428,176)"/>
<path d="M0,0 L4,0 L4,18 L2,18 L2,34 L4,34 L4,60 L2,60 L2,64 L4,64 L4,70 L3,70 L3,65 L0,66 L0,3 L3,3 L3,1 Z " fill="#E1D0DF" transform="translate(422,798)"/>
<path d="M0,0 L3,0 L2,4 L-6,10 L-10,15 L-12,20 L-18,25 L-22,25 L-24,29 L-26,29 L-26,14 L-24,14 L-23,18 L-17,15 L-15,15 L-15,13 L-13,12 L-11,8 L-3,2 L0,2 Z " fill="#BAFEFB" transform="translate(211,956)"/>
<path d="M0,0 L2,1 L-1,5 L-2,17 L-3,19 L-5,19 L-6,23 L-9,23 L-14,28 L-16,33 L-20,34 L-20,26 L-17,24 L-17,15 L-12,13 L-14,16 L-14,21 L-12,21 L-10,15 L-5,5 Z M-2,13 Z M-8,23 Z " fill="#FEEDF5" transform="translate(400,921)"/>
<path d="M0,0 L1,0 L1,7 L3,7 L3,1 L4,1 L3,56 L5,56 L5,40 L6,40 L7,60 L8,61 L8,74 L7,75 L6,88 L5,88 L5,78 L3,78 L3,88 L2,88 L2,74 L4,74 L4,60 L2,60 L2,8 L0,8 Z M5,60 Z " fill="#232123" transform="translate(422,696)"/>
<path d="M0,0 L4,2 L4,8 L10,8 L10,6 L12,6 L12,18 L-6,18 L-8,13 L0,14 Z " fill="#141414" transform="translate(562,44)"/>
<path d="M0,0 L16,1 L16,4 L7,4 L7,9 L9,9 L9,7 L12,8 L10,8 L9,15 L11,15 L11,10 L13,13 L14,15 L14,24 L21,26 L21,28 L23,29 L21,29 L21,31 L28,31 L28,32 L20,32 L20,30 L14,30 L14,28 L9,27 L8,26 L8,20 L10,20 L10,16 L8,16 L8,10 L6,10 L6,4 L-8,4 L-8,3 L6,3 L6,1 L0,1 Z " fill="#FCF1FA" transform="translate(570,202)"/>
<path d="M0,0 L1,2 L-3,7 L-5,8 L-8,17 L-6,18 L-8,21 L-11,21 L-12,25 L-13,40 L-17,40 L-17,22 L-13,20 L-13,16 L-11,16 L-10,11 L-8,10 L-7,7 L-10,7 L-10,5 L-7,5 L-5,1 Z " fill="#D2EDEE" transform="translate(203,984)"/>
<path d="M0,0 L1,0 L1,66 L-1,66 L-1,106 L-2,106 L-3,65 L-3,1 L-2,1 L-1,63 Z " fill="#232829" transform="translate(243,446)"/>
<path d="M0,0 L5,0 L5,4 L8,4 L8,20 L10,20 L11,24 L9,29 L6,30 L6,24 L8,21 L2,21 L1,16 L2,7 L0,7 L0,17 L-1,17 L-1,6 Z " fill="#C9D6D6" transform="translate(293,682)"/>
<path d="M0,0 L6,0 L6,4 L4,4 L4,10 L2,10 L2,16 L8,16 L8,28 L7,28 L7,17 L2,18 L1,26 L0,26 L-1,18 L-6,16 L-6,8 L-8,8 L-8,4 L0,4 Z " fill="#28292A" transform="translate(290,978)"/>
<path d="M0,0 L2,0 L1,8 L-3,20 L-5,20 L-6,28 L-12,29 L-14,28 L-14,34 L-20,34 L-20,33 L-15,33 L-15,27 L-17,27 L-17,31 L-20,30 L-18,30 L-17,25 L-12,20 L-9,18 L-8,19 L-7,16 L-5,16 L-3,6 Z M-10,20 Z M-5,10 Z " fill="#FEE5F1" transform="translate(402,924)"/>
<path d="M0,0 L7,0 L6,3 L8,4 L8,2 L17,1 L18,0 L23,0 L23,6 L-19,6 L-19,3 L-1,2 Z " fill="#010101" transform="translate(438,87)"/>
<path d="M0,0 L5,1 L-1,8 L-6,16 L-9,19 L-12,26 L-17,30 L-19,30 L-26,38 L-28,41 L-29,37 L-24,32 L-21,26 L-16,26 L-15,21 L-9,10 L-2,4 Z " fill="#D1FEFE" transform="translate(227,954)"/>
<path d="M0,0 L1,0 L1,9 L-1,16 L2,16 L2,18 L-1,18 L-1,25 L-5,29 L-13,29 L-13,31 L-19,31 L-19,29 L-24,29 L-24,28 L-19,28 L-17,23 L-16,26 L-6,28 L-6,26 L-13,26 L-9,25 L-9,19 L-5,13 L-3,13 Z " fill="#FDC5D9" transform="translate(417,927)"/>
<path d="M0,0 L1,0 L1,5 L6,4 L7,9 L18,8 L22,7 L26,10 L50,10 L50,13 L66,13 L66,14 L50,14 L50,16 L44,16 L42,13 L36,12 L36,14 L30,14 L30,12 L26,12 L26,14 L20,14 L18,10 L6,10 L4,7 L0,6 Z " fill="#D9CDD8" transform="translate(496,190)"/>
<path d="M0,0 L4,1 L1,1 L1,5 L3,5 L3,3 L7,1 L9,2 L9,0 L13,0 L14,3 L9,4 L16,5 L18,9 L13,9 L13,11 L16,12 L14,15 L11,15 L9,17 L4,14 L4,10 L2,10 L2,6 L0,6 Z " fill="#F4ECEF" transform="translate(694,250)"/>
<path d="M0,0 L1,0 L2,9 L-1,20 L-4,23 L-7,28 L-8,34 L-5,35 L-5,37 L-12,37 L-14,36 L-13,30 L-10,29 L-9,24 L-5,14 L-3,4 L0,4 Z " fill="#FED0E1" transform="translate(416,918)"/>
<path d="M0,0 L4,0 L4,34 L2,34 L2,54 L1,54 L0,34 Z " fill="#E5D9E4" transform="translate(422,384)"/>
<path d="M0,0 L6,0 L6,6 L10,8 L10,34 L5,35 L4,28 L5,18 L4,6 L5,1 L0,1 Z " fill="#EABCD2" transform="translate(820,252)"/>
<path d="M0,0 L1,0 L1,52 L3,52 L3,66 L1,66 L1,80 L-1,80 L-1,94 L-2,94 L-3,80 L-3,67 L-2,67 L-2,79 L0,79 L-1,66 Z " fill="#D3C6D2" transform="translate(423,704)"/>
<path d="M0,0 L1,3 L-1,3 L-1,11 L-33,11 L-43,10 L-43,8 L-51,8 L-51,7 L-43,6 L-33,6 L-33,7 L-42,7 L-42,9 L-33,8 L-11,7 L-7,5 L-2,5 L-2,2 L0,2 Z " fill="#F2D7EE" transform="translate(821,282)"/>
<path d="M0,0 L1,0 L1,6 L-1,6 L-1,16 L1,16 L1,22 L5,22 L5,24 L21,24 L21,26 L-3,26 L-3,34 L-8,34 L-4,33 L-4,16 L-2,16 L-2,6 L-4,6 L-4,1 Z " fill="#282828" transform="translate(425,132)"/>
<path d="M0,0 L1,0 L1,9 L3,9 L3,0 L4,0 L4,10 L2,10 L2,16 L4,16 L4,23 L7,23 L7,25 L4,25 L3,36 L3,46 L1,46 L0,40 L-4,42 L-4,38 L-2,38 L-1,28 L2,22 L3,17 L1,17 L1,22 L0,22 L1,10 L-2,11 Z " fill="#EDCEE0" transform="translate(420,868)"/>
<path d="M0,0 L2,2 L3,13 L0,13 L0,17 L5,17 L5,19 L2,19 L3,26 L3,44 L1,48 L-1,48 L1,35 L-2,26 L-3,17 L-2,6 L0,6 Z " fill="#FEDCF2" transform="translate(820,236)"/>
<path d="M0,0 L12,0 L12,17 L17,17 L17,25 L19,25 L19,33 L21,33 L21,45 L20,45 L20,34 L18,34 L18,41 L17,41 L17,33 L18,26 L16,26 L16,34 L15,34 L15,25 L16,21 L14,21 L13,25 L9,17 L8,3 L7,2 L0,1 Z " fill="#D3E3E4" transform="translate(289,897)"/>
<path d="M0,0 L4,0 L4,30 L2,30 L2,34 L0,34 L0,40 L-1,40 L-2,30 L-1,33 L1,33 L0,31 Z " fill="#DBE8E8" transform="translate(646,0)"/>
<path d="M0,0 L2,0 L2,5 L-1,11 L-3,21 L-6,21 L-9,30 L-12,31 L-14,37 L-17,38 L-16,33 L-14,28 L-11,27 L-9,20 L-7,17 L-5,9 L-3,5 L0,5 Z " fill="#FEE2F4" transform="translate(421,885)"/>
<path d="M0,0 L1,4 L3,4 L3,0 L8,1 L8,3 L12,4 L10,6 L9,13 L11,13 L11,8 L12,10 L15,11 L15,13 L18,19 L18,21 L20,21 L19,26 L16,22 L12,20 L12,14 L8,14 L8,8 L0,8 Z M12,2 Z " fill="#CFEAEA" transform="translate(260,894)"/>
<path d="M0,0 L1,2 L3,2 L3,8 L1,8 L1,12 L5,14 L5,20 L7,20 L7,26 L9,26 L9,34 L11,34 L11,40 L10,40 L10,35 L8,35 L8,40 L5,36 L5,26 L6,21 L4,21 L4,26 L1,23 L0,16 L-1,12 L-1,2 Z " fill="#E2DBE1" transform="translate(807,134)"/>
<path d="M0,0 L3,0 L4,31 L2,31 L0,35 L-3,35 L-3,38 L-1,38 L-1,41 L-5,41 L-6,44 L-6,40 L-4,40 L-4,34 L-2,34 L-2,30 L0,30 Z " fill="#121313" transform="translate(650,0)"/>
<path d="M0,0 L0,3 L-1,18 L-3,14 L-6,14 L-7,24 L-11,34 L-13,39 L-16,42 L-17,46 L-19,45 L-17,37 L-15,37 L-15,31 L-13,30 L-10,24 L-8,14 L-6,10 L-4,10 L-3,2 Z " fill="#FED5E7" transform="translate(419,908)"/>
<path d="M0,0 L1,0 L1,32 L3,32 L3,52 L1,52 L1,66 L0,66 L-1,52 L-1,32 Z " fill="#DACFD9" transform="translate(423,318)"/>
<path d="M0,0 L1,0 L1,25 L4,25 L5,61 L2,61 L0,29 Z " fill="#FEF5FD" transform="translate(416,643)"/>
<path d="M0,0 L15,0 L17,2 L24,3 L24,5 L30,5 L30,7 L34,7 L36,12 L38,13 L38,23 L37,23 L37,14 L32,13 L33,8 L31,9 L24,9 L24,8 L29,8 L29,6 L18,7 L18,6 L23,6 L23,4 L10,7 L10,3 L0,3 Z " fill="#E9FDFD" transform="translate(740,69)"/>
<path d="M0,0 L4,0 L5,9 L3,10 L3,28 L1,28 L1,35 L-1,35 L-3,27 L-1,26 L-1,8 L-3,9 L-3,4 L-1,4 Z M-4,28 Z " fill="#FDF7FC" transform="translate(424,192)"/>
<path d="M0,0 L1,0 L1,8 L-1,8 L-1,16 L1,16 L1,28 L-1,28 L-1,36 L1,36 L1,44 L-1,44 L-1,52 L-2,52 L-3,36 L-3,1 L-2,1 L-2,7 L0,7 Z " fill="#E0DDE0" transform="translate(425,220)"/>
<path d="M0,0 L4,0 L4,2 L10,2 L10,0 L16,0 L18,4 L24,4 L24,2 L40,2 L40,4 L54,4 L54,10 L53,10 L53,5 L40,6 L25,6 L17,5 L15,2 L11,1 L11,3 L3,3 L3,1 L1,1 L1,3 L-5,3 L-5,2 L0,2 Z " fill="#282628" transform="translate(522,202)"/>
<path d="M0,0 L1,0 L1,12 L3,12 L3,20 L1,20 L1,96 L0,96 L-1,12 Z " fill="#BCAEBA" transform="translate(423,574)"/>
<path d="M0,0 L1,0 L1,44 L-1,44 L-1,70 L-2,70 L-3,43 L-3,1 L-2,1 L-1,41 Z " fill="#272829" transform="translate(241,786)"/>
<path d="M0,0 L15,0 L15,1 L1,1 L1,3 L8,3 L5,4 L5,6 L-1,8 L-3,8 L-5,10 L-5,8 L-7,8 L-6,11 L-11,10 L-15,9 L-16,12 L-16,8 L-10,8 L-10,2 L0,2 Z " fill="#9EE3DD" transform="translate(206,952)"/>
<path d="M0,0 L1,0 L1,20 L3,20 L3,26 L1,26 L1,30 L-1,30 L-1,32 L1,32 L1,42 L-1,42 L-1,44 L1,44 L1,52 L-1,52 L-1,56 L-5,55 L-2,55 L-3,53 L-3,39 L-2,41 L0,41 L0,33 L-3,34 L-3,27 L-2,29 L0,29 L-1,20 Z " fill="#D3B6C9" transform="translate(825,194)"/>
<path d="M0,0 L2,0 L3,5 L4,22 L3,24 L5,24 L5,31 L2,40 L0,40 L0,31 L2,31 L2,24 L0,24 Z " fill="#FDFDFD" transform="translate(241,831)"/>
<path d="M0,0 L4,0 L4,28 L0,28 Z " fill="#242626" transform="translate(290,642)"/>
<path d="M0,0 L1,3 L6,2 L18,2 L18,3 L7,3 L7,5 L32,4 L35,6 L37,10 L64,11 L64,12 L36,12 L34,10 L34,7 L32,8 L24,8 L24,6 L6,6 L6,4 L0,4 Z " fill="#C1A9B5" transform="translate(706,280)"/>
<path d="M0,0 L1,0 L2,47 L3,48 L3,55 L0,54 L0,80 L-1,80 L-1,54 L-3,54 L-3,48 L0,48 Z " fill="#D0EAEB" transform="translate(245,84)"/>
<path d="M0,0 L1,0 L1,8 L3,8 L3,34 L0,35 L-1,33 L-1,8 Z " fill="#E7E7E7" transform="translate(471,38)"/>
<path d="M0,0 L4,0 L4,28 L0,28 Z " fill="#232626" transform="translate(314,34)"/>
<path d="M0,0 L11,0 L11,10 L9,10 L9,12 L-2,13 L-3,7 L1,6 L2,3 L8,3 L8,8 L10,8 L10,1 L0,1 Z " fill="#DDE4E8" transform="translate(315,842)"/>
<path d="M0,0 L1,0 L1,16 L3,16 L3,8 L4,8 L4,44 L3,80 L2,80 L2,44 L0,44 L0,42 L2,42 L2,20 L0,20 Z " fill="#403A3E" transform="translate(424,418)"/>
<path d="M0,0 Z M7,-5 L8,-5 L8,1 L10,1 L10,-4 L11,-4 L11,2 L9,2 L9,6 L1,6 L1,14 L7,14 L7,22 L5,22 L5,30 L4,30 L3,18 L-1,18 L-1,1 L6,2 L6,3 L1,3 L1,5 L8,5 L7,3 Z " fill="#D1DFDE" transform="translate(609,60)"/>
<path d="M0,0 L4,0 L4,18 L3,20 L7,18 L7,32 L6,32 L6,24 L2,24 L2,18 L0,18 Z " fill="#181818" transform="translate(460,0)"/>
<path d="M0,0 L4,0 L4,26 L0,26 Z " fill="#000000" transform="translate(582,0)"/>
<path d="M0,0 L1,0 L1,30 L-1,30 L-1,42 L1,42 L1,46 L-1,46 L-1,60 L-2,60 L-3,42 L-3,1 L-2,1 L-1,27 Z " fill="#1E2123" transform="translate(243,552)"/>
<path d="M0,0 L1,0 L2,17 L1,56 L3,56 L3,63 L2,63 L2,57 L0,57 L0,29 L-2,29 L-2,17 L0,17 Z " fill="#B6D0D2" transform="translate(244,301)"/>
<path d="M0,0 L1,0 L2,20 L4,21 L4,34 L3,37 L1,37 L1,46 L0,46 L0,28 L2,28 L2,26 L-2,26 L-2,18 L0,18 Z " fill="#D4D8D9" transform="translate(354,872)"/>
<path d="M0,0 L4,1 L4,29 L7,31 L0,31 Z " fill="#FDFCFD" transform="translate(471,0)"/>
<path d="M0,0 L2,1 L1,3 L-3,3 L-2,16 L-3,21 L-1,21 L0,16 L8,16 L6,19 L3,19 L3,21 L1,21 L1,23 L5,23 L5,21 L9,20 L7,23 L8,25 L5,25 L5,27 L8,28 L4,28 L4,24 L0,24 L0,22 L-4,22 L-4,16 L-6,16 L-6,10 L-4,10 L-4,2 L0,2 Z " fill="#B9EDE9" transform="translate(188,964)"/>
<path d="M0,0 L8,0 L8,12 L4,13 L0,12 Z " fill="#E7FEFD" transform="translate(312,372)"/>
<path d="M0,0 L13,0 L29,1 L29,4 L38,4 L38,6 L31,6 L30,8 L30,6 L26,7 L25,4 L17,4 L13,3 L0,2 Z " fill="#F9FEFE" transform="translate(677,65)"/>
<path d="M0,0 Z M-3,1 L0,1 L0,33 L-3,33 Z " fill="#FDFDFD" transform="translate(321,991)"/>
<path d="M0,0 L20,0 L20,1 L9,2 L11,4 L5,4 L3,9 L0,12 L-3,11 L-2,6 L-3,3 Z M-3,12 Z M-5,13 L-3,14 Z " fill="#C0EFEC" transform="translate(222,950)"/>
<path d="M0,0 L4,1 L1,1 L2,6 L2,16 L1,21 L4,21 L5,19 L20,20 L20,21 L5,21 L5,23 L20,23 L20,24 L4,24 L4,22 L0,22 L0,16 L-2,16 L-2,6 L0,6 Z " fill="#D9D9D9" transform="translate(426,132)"/>
<path d="M0,0 L16,0 L14,6 L7,6 L7,8 L14,8 L14,9 L6,9 L6,5 L0,5 L0,3 L-2,2 L0,2 Z " fill="#ECEAEE" transform="translate(558,65)"/>
<path d="M0,0 L4,1 L3,29 L0,28 Z " fill="#FDFDFD" transform="translate(591,0)"/>
<path d="M0,0 L1,4 L-2,5 L-4,4 L-4,6 L-1,6 L-1,12 L1,16 L3,17 L0,17 L0,26 L5,26 L5,27 L-1,27 L-2,17 L-7,13 L-7,7 L-5,7 L-5,3 L-1,3 Z " fill="#DCD0DA" transform="translate(491,163)"/>
<path d="M0,0 L6,0 L6,2 L12,2 L12,4 L20,4 L22,6 L22,10 L24,10 L24,16 L28,16 L28,24 L24,23 L27,23 L27,17 L20,17 L20,7 L19,6 L6,6 L6,5 L11,5 L11,3 L0,4 L0,3 L5,3 L5,1 L0,1 Z " fill="#D4CED3" transform="translate(784,110)"/>
<path d="M0,0 L3,1 L1,1 L0,3 L-2,2 L-2,16 L-8,16 L-10,15 L-8,19 L-11,18 L-10,13 L-6,12 L-6,1 Z " fill="#D1CED1" transform="translate(564,42)"/>
<path d="M0,0 L4,2 L4,16 L1,16 L0,10 L-5,10 L-6,7 L-9,6 L-9,1 L-6,1 L-5,6 L1,7 L0,6 Z " fill="#FDFCFD" transform="translate(275,992)"/>
<path d="M0,0 L3,1 L3,29 L0,29 Z " fill="#FDFDFD" transform="translate(374,995)"/>
<path d="M0,0 L4,0 L6,4 L5,11 L0,12 L-1,9 L-4,8 L-3,3 L-1,3 Z " fill="#E9F8F8" transform="translate(378,542)"/>
<path d="M0,0 L1,0 L1,11 L3,11 L4,16 L4,30 L3,40 L2,40 L2,30 L0,30 L0,16 L2,16 L2,12 L0,12 Z " fill="#C2D5DA" transform="translate(242,582)"/>
<path d="M0,0 L1,3 L3,3 L4,1 L3,48 L2,48 L2,14 L0,14 Z " fill="#272427" transform="translate(424,370)"/>
<path d="M0,0 L1,0 L1,8 L3,8 L3,18 L1,18 L1,28 L-3,27 L0,27 L0,25 L-3,25 L-3,19 L-2,18 Z " fill="#E2AABF" transform="translate(419,918)"/>
<path d="M0,0 L1,0 L1,5 L3,5 L3,0 L6,0 L6,13 L-4,13 L-4,9 L1,9 Z " fill="#D6D0D6" transform="translate(516,82)"/>
<path d="M0,0 L1,0 L2,52 L1,66 L0,66 L0,52 L-2,52 L-2,48 L0,48 Z " fill="#413C41" transform="translate(424,498)"/>
<path d="M0,0 L4,0 L4,4 L6,4 L6,20 L4,20 L4,16 L2,16 L2,6 L0,6 Z " fill="#272A2A" transform="translate(294,682)"/>
<path d="M0,0 L16,1 L16,4 L7,4 L7,9 L9,9 L9,7 L12,8 L10,8 L9,15 L11,15 L11,20 L10,16 L8,16 L8,10 L6,10 L6,4 L-8,4 L-8,3 L6,3 L6,1 L0,1 Z " fill="#B1ABB1" transform="translate(570,202)"/>
<path d="M0,0 L1,0 L1,7 L0,9 L2,9 L3,6 L3,13 L2,17 L4,17 L4,12 L5,12 L5,21 L4,26 L7,27 L3,27 L3,21 L1,21 L1,13 L-1,13 L-1,7 L-3,7 L-3,1 L-2,3 L0,3 Z " fill="#1A191A" transform="translate(815,147)"/>
<path d="M0,0 L23,0 L24,4 L20,3 L16,2 L16,4 L3,3 L2,7 L2,3 L0,3 Z " fill="#FDFCFD" transform="translate(423,159)"/>
<path d="M0,0 L1,4 L-3,8 L-8,10 L-9,12 L-13,12 L-13,14 L-22,15 L-23,11 L-22,10 L-13,10 L-10,11 L-10,9 L-13,8 L-7,6 L-4,7 L-5,4 L0,3 Z " fill="#DFECEC" transform="translate(643,40)"/>
<path d="M0,0 L1,0 L1,5 L6,4 L7,9 L18,8 L22,7 L26,10 L26,14 L20,14 L18,10 L6,10 L4,7 L0,6 Z " fill="#E6D6E5" transform="translate(496,190)"/>
<path d="M0,0 L6,0 L6,1 L1,1 L1,3 L6,3 L4,4 L4,10 L1,11 L1,13 L-1,13 L-1,38 L-2,38 L-2,10 L0,10 Z " fill="#272626" transform="translate(382,958)"/>
<path d="M0,0 L3,1 L2,6 L1,9 L-1,9 L-2,11 L-4,10 L-4,16 L-10,16 L-10,15 L-5,15 L-5,9 L-7,9 L-7,13 L-10,12 L-8,12 L-7,7 L-2,2 Z M0,2 Z " fill="#FAE7EE" transform="translate(392,942)"/>
<path d="M0,0 L1,3 L3,3 L4,1 L4,10 L3,18 L5,18 L5,9 L6,9 L6,22 L5,30 L4,30 L4,22 L2,22 L2,10 L0,10 Z " fill="#242124" transform="translate(422,564)"/>
<path d="M0,0 L6,0 L6,3 L-4,7 L-11,9 L-11,6 L-6,1 Z " fill="#E3FBFC" transform="translate(254,941)"/>
<path d="M0,0 L1,0 L1,13 L0,14 L-1,27 L-2,27 L-2,17 L-4,17 L-4,27 L-5,27 L-5,13 L-2,13 L-2,2 Z " fill="#0F0E0F" transform="translate(429,669)"/>
<path d="M0,0 L1,2 L-3,7 L-5,8 L-7,15 L-8,13 L-10,13 L-9,20 L-10,17 L-12,17 L-13,20 L-13,16 L-11,16 L-10,11 L-8,10 L-7,7 L-10,7 L-10,5 L-7,5 L-5,1 Z " fill="#C7F0EF" transform="translate(203,984)"/>
<path d="M0,0 L1,0 L2,15 L2,29 L0,30 L-2,29 L-2,15 L0,15 Z " fill="#D3DFDF" transform="translate(244,693)"/>
<path d="M0,0 L8,0 L8,8 L10,8 L10,12 L12,12 L11,16 L11,13 L6,12 L6,8 L4,8 L4,4 L0,4 Z " fill="#1A1B1B" transform="translate(332,834)"/>
<path d="M0,0 L1,0 L1,30 L3,30 L3,1 L4,1 L4,33 L1,34 L0,32 Z " fill="#DCDDDD" transform="translate(414,129)"/>
<path d="M0,0 L2,0 L2,2 L8,2 L8,6 L6,6 L6,11 L3,11 L3,13 L6,14 L2,14 L2,6 L-2,6 L-1,1 Z " fill="#2D2B2D" transform="translate(556,68)"/>
<path d="M0,0 L1,4 L3,4 L3,18 L1,18 L1,28 L0,28 L-1,18 L-1,4 Z " fill="#E1D5E1" transform="translate(421,546)"/>
<path d="M0,0 L1,0 L2,35 L2,39 L-1,39 L-1,45 L-2,45 L-2,35 L0,35 L0,29 L-2,29 L-2,25 L0,25 Z " fill="#322C30" transform="translate(426,833)"/>
<path d="M0,0 L3,0 L4,4 L9,7 L10,9 L8,9 L7,13 L5,13 L4,15 L2,15 L2,11 L0,11 Z " fill="#FCF0F6" transform="translate(695,260)"/>
<path d="M0,0 L23,0 L23,3 L1,3 L-1,1 Z " fill="#FDFCFD" transform="translate(463,154)"/>
<path d="M0,0 L1,2 L9,2 L10,9 L6,8 L7,6 L0,6 L0,4 L-22,4 L-22,3 L0,3 Z " fill="#D7D3D6" transform="translate(486,154)"/>
<path d="M0,0 L3,1 L3,28 L1,28 L0,13 Z " fill="#FEFDFE" transform="translate(376,967)"/>
<path d="M0,0 L5,1 L6,2 L6,10 L8,10 L8,16 L6,16 L6,30 L5,30 L4,16 L2,19 L1,14 L3,10 L5,10 L4,3 Z " fill="#D5D2D7" transform="translate(284,994)"/>
<path d="M0,0 L1,4 L3,4 L3,0 L8,1 L8,3 L12,4 L9,8 L0,8 Z M12,2 Z " fill="#D8EAE9" transform="translate(260,894)"/>
<path d="M0,0 L1,0 L1,10 L-3,10 L-3,14 L-5,14 L-5,16 L-9,15 L-10,12 L-10,3 L-8,5 L-9,8 L-4,7 L0,9 Z " fill="#D9E3E6" transform="translate(299,872)"/>
<path d="M0,0 L4,0 L4,18 L0,18 L0,3 L3,3 L3,1 Z " fill="#E6D9E6" transform="translate(422,798)"/>
<path d="M0,0 L2,1 L0,3 L1,10 L-1,16 L-2,20 L-6,21 L-6,13 L-3,11 L-3,2 Z " fill="#FEF8FA" transform="translate(386,934)"/>
<path d="M0,0 L1,4 L3,4 L4,0 L4,8 L0,8 L0,20 L-1,20 L-2,9 L-7,9 L-5,8 L-4,3 L0,3 Z " fill="#D4CFD3" transform="translate(432,176)"/>
<path d="M0,0 L5,1 L5,4 L7,5 L3,5 L3,8 L-2,9 L-3,12 L-4,9 L-6,9 L-6,6 L-2,6 Z " fill="#AFFDF8" transform="translate(191,961)"/>
<path d="M0,0 L1,4 L3,4 L4,0 L4,8 L3,12 L5,12 L5,7 L6,7 L6,16 L5,27 L8,28 L4,28 L4,16 L2,16 L2,8 L0,8 Z " fill="#1F2121" transform="translate(306,914)"/>
<path d="M0,0 L1,0 L1,10 L-1,10 L-1,50 L-2,50 L-3,1 L-2,1 L-2,7 L0,7 Z " fill="#3A3F41" transform="translate(243,612)"/>
<path d="M0,0 L8,0 L8,8 L0,8 Z " fill="#FFFFFD" transform="translate(704,76)"/>
<path d="M0,0 L4,0 L4,12 L8,12 L8,16 L12,17 L5,17 L4,15 L7,15 L7,13 L0,13 L0,3 L3,3 L3,1 Z " fill="#E2DCE1" transform="translate(558,82)"/>
<path d="M0,0 L3,0 L3,12 L-3,17 L-8,15 L-8,13 L-1,12 Z " fill="#FDF9FD" transform="translate(523,82)"/>
<path d="M0,0 L1,0 L1,6 L-3,10 L-11,10 L-11,12 L-17,12 L-17,10 L-22,10 L-22,9 L-17,9 L-15,4 L-14,7 L-4,9 L-3,5 L0,4 Z " fill="#E4C4CD" transform="translate(415,946)"/>
<path d="M0,0 L7,1 L5,3 L-3,4 L-20,4 L-20,2 Z " fill="#FEE3F1" transform="translate(733,281)"/>
<path d="M0,0 L1,4 L3,4 L2,16 L1,28 L0,28 L0,16 L-2,16 L-2,8 L0,8 Z " fill="#1B1A1A" transform="translate(426,220)"/>
<path d="M0,0 L1,0 L1,12 L3,12 L3,18 L1,18 L1,20 L-3,20 L-3,18 L-7,17 L-6,14 L0,16 L0,13 L-3,14 L-3,12 L0,12 Z " fill="#202122" transform="translate(657,86)"/>
<path d="M0,0 L1,0 L1,6 L-9,6 L-9,8 L-15,8 L-15,6 L-35,6 L-35,5 L-9,4 L0,5 Z " fill="#CBAABF" transform="translate(823,288)"/>
<path d="M0,0 L8,0 L8,2 L12,2 L12,4 L16,5 L9,6 L11,5 L11,3 L1,5 L-6,3 L-6,2 L0,2 Z M-6,5 L1,5 L1,6 L-6,6 Z " fill="#DADFE1" transform="translate(642,102)"/>
<path d="M0,0 L7,0 L8,2 L8,10 L6,9 L5,10 L2,10 L1,3 Z " fill="#010101" transform="translate(283,983)"/>
<path d="M0,0 L3,1 L4,15 L7,16 L7,18 L2,18 L2,16 L0,16 Z " fill="#FDF7FD" transform="translate(418,783)"/>
<path d="M0,0 L1,0 L1,10 L-1,10 L-1,12 L1,12 L1,20 L-1,20 L-1,24 L-5,23 L-2,23 L-3,21 L-3,7 L-2,9 L0,9 Z " fill="#D7B5C6" transform="translate(825,226)"/>
<path d="M0,0 L5,1 L6,4 L18,4 L19,7 L17,8 L6,8 L4,3 Z " fill="#1C191B" transform="translate(496,196)"/>
<path d="M0,0 L2,0 L2,6 L4,6 L4,10 L-2,10 L-2,12 L-4,12 L-4,6 L-2,6 L-1,1 Z " fill="#2B292B" transform="translate(784,188)"/>
<path d="M0,0 L5,2 L5,5 L11,4 L11,8 L17,8 L17,9 L6,9 L5,7 L0,7 L-1,1 Z " fill="#FCEAFA" transform="translate(497,188)"/>
<path d="M0,0 L6,0 L6,2 L12,2 L12,4 L16,4 L18,9 L20,10 L20,20 L19,20 L19,11 L14,10 L15,5 L13,6 L6,6 L6,5 L11,5 L11,3 L0,4 L0,3 L5,3 L5,1 L0,1 Z " fill="#C6D4D4" transform="translate(758,72)"/>
<path d="M0,0 L1,0 L1,11 L3,11 L3,6 L4,6 L4,13 L3,15 L5,15 L6,12 L9,14 L9,16 L11,17 L5,17 L5,19 L12,19 L12,20 L4,20 L4,16 L2,16 L2,12 L0,12 Z " fill="#D8C5CD" transform="translate(694,260)"/>
<path d="M0,0 L4,2 L4,8 L10,8 L10,9 L4,9 L3,14 L0,14 Z " fill="#262626" transform="translate(562,44)"/>
<path d="M0,0 L5,1 L5,10 L-1,10 L-1,1 Z " fill="#010101" transform="translate(292,1014)"/>
<path d="M0,0 L1,4 L3,4 L2,24 L1,24 L1,10 L-1,10 L-1,24 L-2,24 L-2,6 L0,6 Z " fill="#1F1D1E" transform="translate(430,196)"/>
<path d="M0,0 L1,0 L2,20 L1,30 L0,30 L0,20 L-2,20 L-2,12 L0,12 Z " fill="#D5D3D6" transform="translate(298,994)"/>
<path d="M0,0 L1,0 L1,5 L3,5 L3,0 L4,0 L4,6 L2,6 L2,10 L-2,10 L-2,16 L-8,16 L-8,15 L-3,15 L-3,13 L-5,13 L-5,9 L-3,9 L-2,5 L0,5 Z " fill="#D6DADE" transform="translate(308,856)"/>
<path d="M0,0 L1,0 L1,25 L-1,25 L-2,19 L-2,1 Z " fill="#DAFAFD" transform="translate(247,372)"/>
<path d="M0,0 L3,0 L3,18 L0,18 Z " fill="#FDFDFD" transform="translate(456,0)"/>
<path d="M0,0 L3,0 L3,6 L1,12 L0,17 L3,18 L-1,18 L-1,12 L-3,12 L-3,6 L0,6 Z " fill="#171415" transform="translate(425,872)"/>
<path d="M0,0 L3,1 L3,4 L5,4 L5,6 L7,7 L2,7 L2,3 L0,3 L0,8 L-6,6 L-7,4 L-5,1 Z " fill="#D8E5E7" transform="translate(287,632)"/>
<path d="M0,0 L1,0 L1,10 L-1,10 L-1,38 L-2,38 L-3,1 L-2,1 L-2,7 L0,7 Z " fill="#363D3F" transform="translate(243,408)"/>
<path d="M0,0 L1,0 L1,14 L3,14 L3,8 L4,8 L3,34 L2,34 L2,18 L0,18 Z " fill="#2D2A2C" transform="translate(424,284)"/>
<path d="M0,0 L1,0 L3,6 L13,6 L13,8 L15,9 L13,9 L13,11 L20,11 L20,12 L12,12 L12,10 L6,10 L6,8 L1,7 L0,6 Z " fill="#D5CAD3" transform="translate(578,222)"/>
<path d="M0,0 L1,0 L1,15 L3,15 L3,0 L4,0 L4,19 L3,25 L2,25 L2,19 L0,19 Z " fill="#221D20" transform="translate(826,195)"/>
<path d="M0,0 L1,0 L1,7 L4,7 L3,4 L5,4 L7,7 L14,8 L14,20 L13,20 L13,9 L8,10 L7,18 L6,18 L5,10 L0,8 Z " fill="#323132" transform="translate(284,986)"/>
<path d="M0,0 L1,0 L1,18 L-1,18 L-1,30 L-2,30 L-3,17 L-3,1 L-2,1 L-1,15 Z " fill="#232829" transform="translate(243,300)"/>
<path d="M0,0 L5,0 L5,10 L-1,8 L-1,1 Z " fill="#030303" transform="translate(292,995)"/>
<path d="M0,0 L6,0 L6,6 L3,7 L1,10 L-1,10 L-1,3 Z " fill="#FEF6FC" transform="translate(805,127)"/>
<path d="M0,0 L1,0 L2,9 L-1,20 L-2,22 L-4,22 L-3,11 L-1,9 Z " fill="#FDC9DF" transform="translate(416,918)"/>
<path d="M0,0 L1,0 L3,6 L5,6 L5,11 L3,11 L3,20 L1,20 L0,11 Z " fill="#FEE8FA" transform="translate(420,857)"/>
<path d="M0,0 L1,0 L1,16 L-1,16 L-1,30 L-2,30 L-3,15 L-3,1 L-2,1 L-1,13 Z " fill="#272A2B" transform="translate(243,692)"/>
<path d="M0,0 L4,0 L4,8 L6,8 L6,14 L5,14 L5,9 L3,9 L3,14 L0,10 Z " fill="#E7DEE6" transform="translate(812,160)"/>
<path d="M0,0 L2,1 L1,3 L-3,3 L-2,16 L-3,21 L0,22 L-4,22 L-4,16 L-6,16 L-6,10 L-4,10 L-4,2 L0,2 Z " fill="#98D1CE" transform="translate(188,964)"/>
<path d="M0,0 L17,2 L17,4 L0,5 L-1,1 Z " fill="#FDE2EE" transform="translate(707,278)"/>
<path d="M0,0 L4,0 L4,12 L0,12 Z " fill="#E8E2E8" transform="translate(422,272)"/>
<path d="M0,0 L1,0 L1,8 L3,8 L3,16 L1,16 L1,24 L0,24 L-1,8 Z " fill="#D9D5D9" transform="translate(423,248)"/>
<path d="M0,0 L2,2 L3,13 L0,13 L0,19 L-2,18 L-2,6 L0,6 Z " fill="#FBD8EB" transform="translate(820,236)"/>
<path d="M0,0 L12,0 L12,4 L0,4 Z " fill="#FEFFFD" transform="translate(628,220)"/>
<path d="M0,0 L6,0 L6,6 L14,6 L14,7 L6,8 L5,10 L2,10 L2,7 L5,7 L5,1 L1,1 L1,3 L3,3 L3,5 L-1,4 L-6,5 L-1,1 Z " fill="#BABEBF" transform="translate(320,942)"/>
<path d="M0,0 L1,0 L1,7 L3,7 L4,5 L4,8 L6,8 L7,11 L5,11 L5,9 L3,9 L5,12 L10,12 L11,17 L16,17 L16,18 L10,18 L8,15 L3,13 L2,8 L0,8 Z " fill="#C4CDCD" transform="translate(244,876)"/>
<path d="M0,0 L2,0 L1,11 L1,21 L-1,21 L-2,7 Z " fill="#FED3E9" transform="translate(422,893)"/>
<path d="M0,0 L1,4 L-1,4 L-1,10 L1,10 L1,8 L7,8 L7,9 L2,9 L2,11 L7,11 L4,13 L-2,14 L-3,1 L-2,3 L0,3 Z " fill="#DFD5DF" transform="translate(781,190)"/>
<path d="M0,0 L3,1 L3,4 L1,4 L2,18 L-4,20 L-4,15 L0,15 Z " fill="#B8D1D1" transform="translate(274,915)"/>
<path d="M0,0 L1,0 L1,12 L3,12 L3,20 L-1,20 Z " fill="#DACCD9" transform="translate(423,574)"/>
<path d="M0,0 L1,0 L0,11 L-5,14 L-5,5 L-2,5 Z " fill="#E7FBFE" transform="translate(253,581)"/>
<path d="M0,0 L4,0 L4,2 L12,2 L12,6 L6,6 L6,4 L0,4 Z " fill="#313131" transform="translate(738,248)"/>
<path d="M0,0 L1,3 L-1,3 L-2,8 L-5,13 L-11,13 L-12,11 L-7,10 L-7,7 L-3,5 L-2,2 L0,2 Z " fill="#FCDFE8" transform="translate(403,942)"/>
<path d="M0,0 L1,3 L3,3 L4,1 L4,11 L1,11 L1,13 L4,14 L0,14 Z " fill="#1C1B1C" transform="translate(422,784)"/>
<path d="M0,0 L1,0 L1,14 L-2,13 L0,13 L0,11 L-3,12 L-3,3 L0,2 Z " fill="#E1EEEE" transform="translate(384,764)"/>
<path d="M0,0 L2,2 L1,11 L-1,11 L-1,20 L-2,20 L-2,2 L0,2 Z " fill="#D0D1D1" transform="translate(356,898)"/>
<path d="M0,0 L1,0 L1,20 L0,34 L-1,34 L-2,16 L0,16 Z " fill="#181618" transform="translate(427,736)"/>
<path d="M0,0 L4,1 L4,7 L-5,7 L-5,4 L0,4 Z " fill="#CBCBCD" transform="translate(731,175)"/>
<path d="M0,0 L3,1 L3,11 L5,11 L5,14 L2,15 L0,11 Z " fill="#FBFCFC" transform="translate(410,163)"/>
<path d="M0,0 L19,0 L19,2 L2,2 L2,4 L0,4 Z " fill="#FEFEFF" transform="translate(556,63)"/>
<path d="M0,0 L4,0 L6,4 L5,11 L4,9 L0,9 L0,3 L3,3 L3,1 Z " fill="#D1E0E0" transform="translate(378,542)"/>
<path d="M0,0 L1,0 L1,16 L3,16 L3,8 L4,8 L4,20 L2,21 L0,20 Z " fill="#252225" transform="translate(424,418)"/>
<path d="M0,0 L1,3 L4,4 L2,4 L2,18 L1,26 L0,26 L0,18 L-2,18 L-2,16 L0,16 L0,6 L-2,6 L-2,4 L0,4 Z " fill="#362C31" transform="translate(826,220)"/>
<path d="M0,0 L1,0 L1,12 L3,12 L3,16 L1,16 L1,30 L0,30 L-1,12 Z " fill="#2D3234" transform="translate(241,582)"/>
<path d="M0,0 L2,0 L2,12 L-4,12 L-4,10 L-2,10 L-2,6 L0,6 Z " fill="#343234" transform="translate(520,82)"/>
<path d="M0,0 L2,0 L2,11 L7,11 L6,15 L6,12 L-2,12 Z M-3,12 Z " fill="#E3F1F1" transform="translate(307,931)"/>
<path d="M0,0 L1,0 L1,7 L3,7 L3,1 L7,1 L8,8 L0,8 Z " fill="#A5ABAD" transform="translate(280,875)"/>
<path d="M0,0 L1,0 L1,5 L3,6 L2,21 L0,20 Z " fill="#FEF8FF" transform="translate(415,743)"/>
<path d="M0,0 L3,0 L3,3 L19,3 L19,4 L-2,5 L-2,1 Z " fill="#E2D6E1" transform="translate(543,200)"/>
<path d="M0,0 L4,1 L4,6 L6,6 L5,9 L0,9 Z " fill="#FDEFFC" transform="translate(491,180)"/>
<path d="M0,0 L1,0 L0,13 L-3,15 L-3,4 L-1,4 Z " fill="#FDFDFD" transform="translate(358,905)"/>
<path d="M0,0 L4,0 L4,8 L3,9 L-2,9 L0,8 L-1,2 Z " fill="#DCEBEA" transform="translate(381,566)"/>
<path d="M0,0 L2,1 L3,8 L0,10 L-10,10 L-10,8 L-1,7 Z " fill="#FEFDFE" transform="translate(735,175)"/>
<path d="M0,0 L1,0 L1,5 L5,5 L5,3 L3,2 L9,1 L9,16 L8,16 L8,4 L6,4 L6,6 L0,6 Z " fill="#CECED0" transform="translate(566,46)"/>
<path d="M0,0 L1,0 L2,9 L2,19 L1,19 L1,13 L-1,13 L-1,19 L-2,19 L-2,9 L0,9 Z " fill="#241A1D" transform="translate(422,927)"/>
<path d="M0,0 L1,0 L1,6 L-1,6 L-1,24 L-2,24 L-3,1 Z " fill="#2C2F2F" transform="translate(355,866)"/>
<path d="M0,0 L1,2 L6,3 L7,6 L-2,6 L-2,2 Z " fill="#DBEBEB" transform="translate(377,707)"/>
<path d="M0,0 L7,0 L7,2 L9,2 L9,5 L2,5 L1,3 L-2,3 L-2,1 Z " fill="#FDFCFE" transform="translate(605,236)"/>
<path d="M0,0 L3,0 L3,8 L-2,12 L-4,9 L0,7 Z " fill="#FDF9FD" transform="translate(783,225)"/>
<path d="M0,0 L4,1 L4,9 L6,9 L6,4 L7,4 L6,14 L5,10 L3,10 L3,4 L0,5 L0,3 L-2,2 Z " fill="#E5DBE5" transform="translate(783,184)"/>
<path d="M0,0 L1,2 L6,3 L7,6 L-2,6 L-2,2 Z " fill="#EBE6EB" transform="translate(785,149)"/>
<path d="M0,0 L1,2 L3,2 L3,8 L1,8 L1,12 L4,13 L0,14 L-1,12 L-1,2 Z " fill="#DBD4D9" transform="translate(807,134)"/>
<path d="M0,0 L2,0 L3,5 L1,5 L1,12 L-5,12 L-5,11 L0,11 L0,5 L-2,5 L-2,9 L-5,8 L-3,8 L-2,3 Z " fill="#E8DEE2" transform="translate(387,946)"/>
<path d="M0,0 L2,0 L2,8 L-1,7 L-1,14 L1,14 L1,25 L0,25 L0,15 L-2,15 L-2,5 L0,1 Z " fill="#A2BBBE" transform="translate(244,393)"/>
<path d="M0,0 L3,0 L4,3 L3,10 L-1,10 L-1,4 L-3,3 L2,3 L2,1 Z " fill="#A6A2A6" transform="translate(780,222)"/>
<path d="M0,0 L3,1 L3,5 L-3,9 L-4,6 L-3,4 L0,3 Z M-8,8 L-3,9 L-5,11 L-8,10 Z " fill="#FCF6FC" transform="translate(495,159)"/>
<path d="M0,0 L14,1 L14,2 L6,2 L6,4 L0,4 L0,2 L-4,1 Z " fill="#252626" transform="translate(636,100)"/>
<path d="M0,0 L6,0 L2,1 L2,3 L6,3 L6,8 L1,8 Z " fill="#E0E1E4" transform="translate(268,990)"/>
<path d="M0,0 L1,0 L1,12 L-2,12 L-2,1 Z " fill="#DFFCFD" transform="translate(277,918)"/>
<path d="M0,0 L2,1 L1,5 L-1,6 L-9,6 L-9,8 L-11,8 L-11,3 L-1,3 Z " fill="#FEFBFE" transform="translate(588,203)"/>
<path d="M0,0 L4,0 L5,7 L8,8 L8,10 L4,10 L4,8 L1,7 Z " fill="#FDF8FC" transform="translate(553,75)"/>
<path d="M0,0 L8,0 L10,2 L8,2 L8,4 L0,4 Z " fill="#E4CBD9" transform="translate(730,284)"/>
<path d="M0,0 L3,0 L3,7 L-2,11 L-4,8 L0,6 Z " fill="#FEF9FD" transform="translate(783,242)"/>
<path d="M0,0 L1,2 L3,2 L4,0 L3,20 L2,20 L2,6 L0,6 Z " fill="#292628" transform="translate(822,174)"/>
<path d="M0,0 L7,0 L9,4 L8,6 L6,6 L4,4 L-2,2 Z " fill="#FDF8FC" transform="translate(796,115)"/>
<path d="M0,0 L1,0 L1,5 L6,4 L7,9 L18,9 L18,10 L6,10 L4,7 L0,6 Z " fill="#CEBBCA" transform="translate(496,190)"/>
<path d="M0,0 L2,0 L2,11 L-1,11 L-1,1 Z " fill="#FDFBFD" transform="translate(300,1013)"/>
<path d="M0,0 L1,4 L3,4 L4,0 L3,16 L2,16 L2,8 L0,8 Z " fill="#222525" transform="translate(306,914)"/>
<path d="M0,0 L1,0 L1,6 L-4,10 L-6,8 L-3,8 L-3,6 L-5,6 L-5,1 L-2,1 L-1,5 Z " fill="#FCF5FB" transform="translate(393,907)"/>
<path d="M0,0 L1,2 L4,3 L5,7 L0,8 L0,6 L-3,6 L-2,3 L-2,5 L0,5 Z " fill="#E2F2F2" transform="translate(355,441)"/>
<path d="M0,0 L6,0 L7,9 L6,18 L5,18 L4,6 L5,1 L0,1 Z " fill="#E4BBCE" transform="translate(820,252)"/>
<path d="M0,0 L1,0 L1,6 L3,6 L3,10 L1,10 L1,22 L0,22 L-1,6 Z " fill="#312F2F" transform="translate(693,250)"/>
<path d="M0,0 L3,0 L4,5 L2,5 L1,7 L-3,6 L-3,1 Z " fill="#ECE6EB" transform="translate(601,232)"/>
<path d="M0,0 L2,0 L3,6 L-3,10 L-6,8 L-6,6 L-1,5 Z " fill="#FDFAFD" transform="translate(571,93)"/>
<path d="M0,0 L2,0 L1,16 L-1,14 L-1,1 Z " fill="#FEFDFE" transform="translate(300,992)"/>
<path d="M0,0 L17,1 L17,2 L0,3 Z " fill="#181617" transform="translate(771,291)"/>
<path d="M0,0 L4,0 L3,18 L2,18 L2,4 L0,4 Z " fill="#2D292D" transform="translate(422,546)"/>
<path d="M0,0 L1,4 L3,4 L2,11 L1,9 L-1,9 L-1,16 L-2,16 L-2,8 L0,8 Z " fill="#282728" transform="translate(426,220)"/>
<path d="M0,0 L10,0 L10,3 L0,3 Z " fill="#FDFBFD" transform="translate(577,200)"/>
<path d="M0,0 L2,0 L2,5 L-1,8 L-7,8 L-7,6 L-2,5 Z " fill="#FDF6FD" transform="translate(790,193)"/>
<path d="M0,0 L3,1 L2,11 L5,12 L1,12 L1,6 L-1,6 L-2,1 Z " fill="#212021" transform="translate(807,114)"/>
<path d="M0,0 L9,0 L9,1 L1,1 L2,8 L-5,7 L-6,10 L-6,6 L0,6 Z " fill="#71ACA7" transform="translate(196,954)"/>
<path d="M0,0 L10,0 L10,17 L9,17 L8,3 L7,2 L0,1 Z " fill="#E4F8FB" transform="translate(289,897)"/>
<path d="M0,0 L1,0 L1,6 L-1,6 L-1,16 L-2,16 L-3,1 Z " fill="#272828" transform="translate(241,856)"/>
<path d="M0,0 L1,0 L1,13 L0,21 L-1,21 L-2,9 L0,9 Z " fill="#141214" transform="translate(427,573)"/>
<path d="M0,0 L1,0 L2,23 L-2,23 L-2,21 L0,21 Z " fill="#393438" transform="translate(426,439)"/>
<path d="M0,0 L2,0 L1,4 L-8,4 L-7,1 Z " fill="#161314" transform="translate(738,287)"/>
<path d="M0,0 L6,0 L6,4 L-2,4 Z " fill="#343434" transform="translate(740,174)"/>
<path d="M0,0 L1,0 L1,13 L-3,13 L-3,11 L-1,11 L-1,1 Z " fill="#FEFEFE" transform="translate(560,44)"/>
<path d="M0,0 L2,0 L1,10 L0,12 L-2,12 L-2,4 L0,4 Z " fill="#FFDEF1" transform="translate(418,894)"/>
<path d="M0,0 L4,2 L2,2 L2,7 L-1,7 L-1,5 L-6,5 L-6,4 L-1,4 Z " fill="#FACDE5" transform="translate(821,286)"/>
<path d="M0,0 L2,1 L2,7 L0,7 L0,9 L-3,9 L-3,6 L-1,6 L-1,1 Z " fill="#030203" transform="translate(830,214)"/>
<path d="M0,0 L1,0 L0,13 L-1,13 L-1,7 L-3,7 L-3,1 L-2,3 L0,3 Z " fill="#212021" transform="translate(815,147)"/>
<path d="M0,0 L3,2 L2,8 L-2,8 L-1,1 Z " fill="#212122" transform="translate(568,90)"/>
<path d="M0,0 L1,3 L3,4 L-1,5 L-1,8 L1,8 L1,11 L-3,11 L-4,14 L-4,10 L-2,10 L-2,4 L0,4 Z " fill="#262929" transform="translate(648,30)"/>
<path d="M0,0 L1,0 L2,5 L3,0 L4,0 L4,8 L2,8 L2,14 L1,14 Z " fill="#1A2625" transform="translate(180,966)"/>
<path d="M0,0 L4,2 L4,7 L2,7 L1,9 L-1,9 Z " fill="#FEEBF4" transform="translate(698,266)"/>
<path d="M0,0 L6,0 L6,2 L9,3 L7,4 L-2,3 L-2,1 Z " fill="#FDF7FE" transform="translate(593,230)"/>
<path d="M0,0 L1,0 L1,6 L3,6 L3,10 L1,10 L1,16 L0,16 L-1,6 Z " fill="#302D2F" transform="translate(577,212)"/>
<path d="M0,0 L1,0 L1,6 L-4,6 L-4,1 Z " fill="#151515" transform="translate(425,132)"/>
<path d="M0,0 L1,0 L1,5 L3,6 L1,6 L1,9 L-3,9 L-2,4 Z " fill="#ECFAFA" transform="translate(642,34)"/>
<path d="M0,0 L9,0 L9,1 L2,2 L1,6 L-2,7 L-2,1 Z " fill="#D7FDFC" transform="translate(233,953)"/>
<path d="M0,0 L1,0 L1,6 L-3,10 L-11,10 L-11,9 L-4,9 L-3,5 L0,4 Z " fill="#CF9EAD" transform="translate(415,946)"/>
<path d="M0,0 L6,0 L6,1 L0,3 L-1,7 L-6,8 L-4,4 Z " fill="#ACC2C2" transform="translate(248,942)"/>
<path d="M0,0 L3,0 L3,5 L0,8 L-3,8 L-3,5 L0,5 Z " fill="#8F9194" transform="translate(299,854)"/>
<path d="M0,0 L1,2 L11,2 L11,3 L0,4 L-1,7 L-3,7 L-2,2 Z " fill="#4D5051" transform="translate(315,839)"/>
<path d="M0,0 L2,1 L3,9 L0,11 Z " fill="#E6FAFE" transform="translate(248,556)"/>
<path d="M0,0 L5,3 L5,13 L4,13 L4,4 L1,5 L-1,4 Z " fill="#2D292C" transform="translate(485,177)"/>
<path d="M0,0 L1,3 L3,3 L4,1 L4,7 L2,9 L0,8 Z " fill="#1C1D1D" transform="translate(614,82)"/>
<path d="M0,0 L3,0 L5,4 L3,4 L3,16 L2,16 L2,3 L0,3 Z " fill="#DDD8DD" transform="translate(520,78)"/>
<path d="M0,0 L1,2 L4,3 L5,6 L-1,7 L-3,6 L-2,3 L-2,5 L0,5 Z " fill="#E3E6EA" transform="translate(303,845)"/>
<path d="M0,0 L1,0 L1,10 L-3,9 L-3,1 L-2,1 L-2,7 L0,7 Z " fill="#1E2122" transform="translate(243,612)"/>
<path d="M0,0 L1,0 L1,10 L-3,9 L-3,1 L-2,1 L-2,7 L0,7 Z " fill="#1D2122" transform="translate(243,408)"/>
<path d="M0,0 L2,0 L2,5 L-4,5 L-6,3 L-4,1 Z " fill="#FED5ED" transform="translate(818,288)"/>
<path d="M0,0 L1,0 L1,15 L-2,15 L-2,11 L0,11 Z " fill="#070606" transform="translate(827,179)"/>
<path d="M0,0 L4,0 L4,6 L0,6 Z " fill="#C8E2E4" transform="translate(242,132)"/>
<path d="M0,0 L6,0 L6,4 L0,4 Z " fill="#F9FFFF" transform="translate(344,128)"/>
<path d="M0,0 L1,0 L1,14 L0,14 L0,5 L-3,5 L-3,2 Z " fill="#1B1B1B" transform="translate(466,18)"/>
<path d="M0,0 L5,0 L5,2 L1,2 L1,8 L-1,8 L-1,1 Z " fill="#000000" transform="translate(292,995)"/>
<path d="M0,0 L1,3 L4,3 L4,5 L1,6 L-1,9 L-2,2 Z " fill="#FDC0D7" transform="translate(415,940)"/>
<path d="M0,0 L6,1 L2,7 L0,5 Z " fill="#FDFDFD" transform="translate(341,923)"/>
<path d="M0,0 L2,1 L2,5 L-6,5 L-7,3 L-1,2 Z " fill="#FEFCFD" transform="translate(709,250)"/>
<path d="M0,0 L2,1 L2,5 L-1,4 Z M-6,4 L-1,4 L-2,6 L-4,6 L-4,8 L-6,8 Z " fill="#FEFDFD" transform="translate(701,247)"/>
<path d="M0,0 L3,1 L3,8 L0,9 Z " fill="#FDFBFD" transform="translate(776,241)"/>
<path d="M0,0 L2,2 L2,9 L-1,8 L-1,1 Z " fill="#FDF6FD" transform="translate(777,192)"/>
<path d="M0,0 L6,1 L3,4 L3,6 L-1,6 L-1,1 Z " fill="#FCFCFD" transform="translate(568,45)"/>
<path d="M0,0 L4,0 L5,10 L7,11 L5,11 L4,13 L2,8 L3,1 Z " fill="#DADADA" transform="translate(462,24)"/>
<path d="M0,0 L9,0 L9,2 L2,2 L2,4 L0,4 Z " fill="#ADFEFD" transform="translate(197,955)"/>
<path d="M0,0 L6,1 L6,4 L4,4 L3,8 L0,1 Z " fill="#E9FBFC" transform="translate(299,914)"/>
<path d="M0,0 L4,0 L3,10 L2,10 L2,4 L0,4 Z " fill="#252124" transform="translate(424,858)"/>
<path d="M0,0 L2,0 L2,5 L0,5 L0,12 L-1,12 L-1,1 Z " fill="#FBE3F5" transform="translate(423,863)"/>
<path d="M0,0 L3,1 L3,8 L0,8 Z " fill="#FDFBFD" transform="translate(776,225)"/>
<path d="M0,0 L3,1 L2,8 L1,8 L1,3 L-1,3 L-1,8 L-2,8 L-2,2 Z " fill="#D6D2D7" transform="translate(572,90)"/>
<path d="M0,0 L5,0 L5,4 L0,4 L-1,1 Z " fill="#080808" transform="translate(456,87)"/>
<path d="M0,0 L4,1 L6,2 L6,12 L5,12 L5,3 L0,2 Z " fill="#CCD6D5" transform="translate(772,80)"/>
<path d="M0,0 L9,1 L9,3 L0,4 Z " fill="#000000" transform="translate(562,74)"/>
<path d="M0,0 L7,0 L3,4 L0,4 L0,2 L-2,1 Z " fill="#F2FAFA" transform="translate(669,69)"/>
<path d="M0,0 L3,0 L3,7 L0,7 Z " fill="#FDFDFD" transform="translate(468,39)"/>
<path d="M0,0 L4,0 L4,6 L0,6 L0,4 L2,4 L2,2 L0,2 Z " fill="#FDFEFE" transform="translate(321,943)"/>
<path d="M0,0 L4,0 L4,6 L0,4 Z " fill="#798282" transform="translate(283,634)"/>
<path d="M0,0 L2,2 L2,9 L0,9 L-2,1 Z M-3,2 Z " fill="#FEFCFE" transform="translate(423,218)"/>
<path d="M0,0 L5,0 L5,2 L8,3 L7,6 L4,3 L0,2 Z " fill="#FDFBFD" transform="translate(786,149)"/>
<path d="M0,0 L1,4 L-1,4 L-1,14 L-2,14 L-2,1 Z " fill="#404343" transform="translate(665,70)"/>
<path d="M0,0 L2,0 L2,6 L-4,6 L-3,4 L0,4 Z " fill="#FEFBFD" transform="translate(385,951)"/>
<path d="M0,0 L9,1 L5,2 L5,5 L3,5 L2,2 Z " fill="#FDE7F6" transform="translate(738,284)"/>
<path d="M0,0 L4,1 L4,5 L7,6 L3,6 L3,4 L-1,3 Z " fill="#232425" transform="translate(651,100)"/>
<path d="M0,0 L1,4 L-3,8 L-7,7 L-4,7 L-5,4 L0,3 Z " fill="#C8D6D6" transform="translate(643,40)"/>
<path d="M0,0 L1,4 L3,4 L3,7 L-1,7 L-2,10 L-2,6 L0,6 Z " fill="#28292A" transform="translate(312,856)"/>
<path d="M0,0 L2,0 L2,3 L-6,3 L-6,1 Z " fill="#3B3B3B" transform="translate(732,179)"/>
<path d="M0,0 L2,0 L3,6 L0,7 Z " fill="#FDF7FC" transform="translate(804,140)"/>
<path d="M0,0 L7,1 L7,3 L-1,3 Z " fill="#010101" transform="translate(556,70)"/>
<path d="M0,0 L1,4 L3,4 L3,7 L-1,7 L-2,10 L-2,6 L0,6 Z " fill="#272A2A" transform="translate(620,56)"/>
<path d="M0,0 L2,0 L1,4 L0,6 L-4,5 L-1,5 L-1,3 L-4,2 Z " fill="#D6E4E4" transform="translate(634,46)"/>
<path d="M0,0 L5,1 L5,3 L1,3 L0,5 L-1,3 Z " fill="#ABFBF7" transform="translate(191,961)"/>
<path d="M0,0 L7,0 L8,3 L0,2 Z " fill="#FEFEFE" transform="translate(345,921)"/>
<path d="M0,0 L5,1 L6,3 L0,4 Z " fill="#242525" transform="translate(248,890)"/>
<path d="M0,0 L3,1 L3,5 L8,5 L8,6 L2,6 L0,3 Z " fill="#D2DCDC" transform="translate(252,888)"/>
<path d="M0,0 L3,0 L3,5 L-2,5 L0,4 Z " fill="#8A9595" transform="translate(381,570)"/>
<path d="M0,0 L3,0 L3,5 L-2,5 L0,4 Z " fill="#959194" transform="translate(427,180)"/>
<path d="M0,0 L7,0 L5,3 L0,2 Z " fill="#FEFAFE" transform="translate(785,155)"/>
<path d="M0,0 L4,0 L4,4 L0,4 Z " fill="#3B3B3B" transform="translate(250,998)"/>
<path d="M0,0 L4,0 L4,4 L0,4 Z " fill="#3A3A3B" transform="translate(270,994)"/>
<path d="M0,0 L3,0 L3,3 L7,4 L0,4 Z " fill="#E8ECEC" transform="translate(319,949)"/>
<path d="M0,0 L8,1 L8,2 L1,4 L-1,5 Z " fill="#1F2323" transform="translate(246,940)"/>
<path d="M0,0 L2,1 L-2,4 L-5,3 L-5,1 Z M-4,4 L-2,5 Z " fill="#E2FEFE" transform="translate(272,934)"/>
<path d="M0,0 L3,0 L3,6 L0,5 Z " fill="#8E8B8D" transform="translate(388,908)"/>
<path d="M0,0 L3,1 L3,6 L0,7 Z " fill="#FDFBFD" transform="translate(384,907)"/>
<path d="M0,0 L3,0 L3,5 L0,6 Z " fill="#858E8E" transform="translate(381,770)"/>
<path d="M0,0 L5,0 L6,3 L0,3 Z " fill="#858F8F" transform="translate(378,710)"/>
<path d="M0,0 L3,0 L3,5 L0,6 Z " fill="#858E8E" transform="translate(299,706)"/>
<path d="M0,0 L4,0 L4,4 L0,4 Z " fill="#373B3B" transform="translate(378,546)"/>
<path d="M0,0 L3,0 L2,9 L1,9 Z " fill="#FCD4E8" transform="translate(822,255)"/>
<path d="M0,0 L1,4 L-1,4 L-1,10 L-2,10 L-2,1 Z " fill="#2B292B" transform="translate(485,166)"/>
<path d="M0,0 L4,0 L4,4 L0,4 Z " fill="#3B3A3B" transform="translate(514,154)"/>
<path d="M0,0 L5,0 L6,3 L0,3 Z " fill="#8F8B8F" transform="translate(786,152)"/>
<path d="M0,0 L4,0 L4,4 L0,4 Z " fill="#FFFFFD" transform="translate(764,128)"/>
<path d="M0,0 L3,0 L3,2 L10,2 L10,3 L0,3 Z " fill="#E4E0E4" transform="translate(512,92)"/>
<path d="M0,0 L4,0 L4,4 L0,4 Z " fill="#FFFFFD" transform="translate(620,12)"/>
<path d="M0,0 L4,1 L2,3 L0,7 L-1,1 Z " fill="#DBE0E2" transform="translate(311,839)"/>
<path d="M0,0 L1,0 L1,6 L-2,6 L-2,2 L0,2 Z " fill="#080708" transform="translate(427,826)"/>
<path d="M0,0 L1,0 L1,9 L-1,9 L-2,3 L0,3 Z " fill="#D4F4F5" transform="translate(247,388)"/>
<path d="M0,0 L1,3 L4,4 L2,4 L2,6 L-2,6 L-2,4 L0,4 Z " fill="#292226" transform="translate(826,220)"/>
<path d="M0,0 L2,0 L2,2 L5,2 L5,4 L0,4 Z " fill="#FEFEFE" transform="translate(293,989)"/>
<path d="M0,0 L4,1 L4,4 L0,4 Z " fill="#EAFEFD" transform="translate(264,894)"/>
<path d="M0,0 L2,0 L2,5 L-2,5 L-2,3 L0,3 Z " fill="#FDFEFE" transform="translate(297,854)"/>
<path d="M0,0 L1,4 L3,4 L3,7 L-1,6 Z " fill="#212021" transform="translate(430,196)"/>
<path d="M0,0 L3,0 L3,6 L2,4 L0,4 Z " fill="#060505" transform="translate(431,196)"/>
<path d="M0,0 L3,0 L3,4 L-1,5 Z " fill="#FAF4F9" transform="translate(808,129)"/>
<path d="M0,0 L2,3 L2,5 L-3,4 L-2,1 Z " fill="#FBFBFB" transform="translate(436,121)"/>
<path d="M0,0 L3,0 L2,5 L0,5 Z " fill="#FDFAFC" transform="translate(550,56)"/>
<path d="M0,0 L3,0 L3,6 L2,4 L0,4 Z " fill="#222222" transform="translate(563,46)"/>
<path d="M0,0 L5,0 L4,3 L0,3 Z " fill="#FDFCFD" transform="translate(560,40)"/>
<path d="M0,0 L2,4 L0,8 L0,4 L-2,3 Z " fill="#D2E0E0" transform="translate(302,702)"/>
<path d="M0,0 L1,3 L3,3 L2,7 L0,6 Z " fill="#261F22" transform="translate(826,252)"/>
<path d="M0,0 L3,2 L1,2 L1,5 L-1,5 L-2,1 Z " fill="#F9F2F9" transform="translate(780,188)"/>
<path d="M0,0 L2,4 L1,7 L0,5 L-4,4 L0,4 Z " fill="#D9D3D8" transform="translate(518,154)"/>
<path d="M0,0 L4,2 L2,2 L2,7 L0,3 Z " fill="#F9F0F7" transform="translate(807,147)"/>
<path d="M0,0 L5,1 L3,3 L-1,2 Z " fill="#FEFAFD" transform="translate(553,52)"/>
<path d="M0,0 L1,0 L0,7 L-2,3 Z " fill="#C8ECEB" transform="translate(196,992)"/>
<path d="M0,0 L3,1 L-2,5 L-3,1 Z " fill="#ACFCF6" transform="translate(203,957)"/>
<path d="M0,0 L3,1 L3,3 L-2,4 Z " fill="#2C2124" transform="translate(414,952)"/>
<path d="M0,0 L2,2 L2,5 L-1,5 Z " fill="#FDFAFC" transform="translate(435,165)"/>
<path d="M0,0 L3,2 L2,4 L-2,3 L-2,1 Z " fill="#CDD3D3" transform="translate(615,90)"/>
<path d="M0,0 L3,1 L3,4 L0,5 Z " fill="#FDF8FD" transform="translate(550,69)"/>
<path d="M0,0 L3,1 L3,3 L-2,4 Z " fill="#2A2D2D" transform="translate(642,44)"/>
<path d="M0,0 L3,0 L2,4 L-1,3 Z " fill="#020303" transform="translate(645,41)"/>
<path d="M0,0 L4,1 L0,5 Z " fill="#FCF8F9" transform="translate(343,924)"/>
<path d="M0,0 L4,0 L3,4 L0,1 Z " fill="#F6FAFC" transform="translate(303,844)"/>
<path d="M0,0 L1,0 L1,5 L-2,5 L-2,2 L0,2 Z " fill="#A5B1B1" transform="translate(372,521)"/>
<path d="M0,0 L3,0 L3,3 L-1,3 Z " fill="#FEFAFE" transform="translate(780,238)"/>
<path d="M0,0 L3,0 L2,5 L0,3 Z " fill="#FCFCFC" transform="translate(427,135)"/>
<path d="M0,0 L3,1 L3,4 L0,4 Z " fill="#FDF9FD" transform="translate(514,87)"/>
<path d="M0,0 L8,1 L8,2 L1,3 Z " fill="#323132" transform="translate(554,57)"/>
<path d="M0,0 L4,1 L3,3 L0,3 Z " fill="#FDFBFD" transform="translate(387,904)"/>
<path d="M0,0 L3,0 L4,3 L0,3 Z " fill="#A3A7A9" transform="translate(304,848)"/>
<path d="M0,0 L3,0 L4,3 L0,3 Z " fill="#9EA9AA" transform="translate(356,444)"/>
<path d="M0,0 L3,0 L4,3 L0,3 Z " fill="#A9A5A6" transform="translate(708,256)"/>
<path d="M0,0 L3,0 L4,3 L0,3 Z " fill="#A9A7A7" transform="translate(704,250)"/>
<path d="M0,0 L2,0 L2,4 L-1,4 Z " fill="#FEFDFE" transform="translate(437,171)"/>
<path d="M0,0 L3,0 L3,3 L0,4 Z " fill="#FCFBFC" transform="translate(447,154)"/>
<path d="M0,0 L1,4 L-2,4 L-2,1 Z " fill="#202222" transform="translate(665,70)"/>
<path d="M0,0 L2,0 L2,3 L0,3 L-1,5 Z " fill="#FCFCFC" transform="translate(459,19)"/>
</svg>
