<?xml version="1.0" encoding="UTF-8"?>
<!-- Generator: visioncortex VTracer 0.6.4 -->
<svg version="1.1" xmlns="http://www.w3.org/2000/svg" width="1024" height="1024">
<path d="M0,0 L1024,0 L1024,1024 L0,1024 Z " fill="#000000" transform="translate(0,0)"/>
<path d="M0,0 L10,0 L10,2 L26,2 L26,4 L42,4 L42,6 L54,6 L54,8 L56,8 L56,6 L64,6 L64,8 L66,8 L66,6 L74,6 L74,8 L76,8 L76,14 L64,14 L64,18 L48,18 L48,22 L40,22 L40,24 L42,24 L42,26 L52,26 L52,22 L64,22 L64,24 L70,24 L70,26 L74,26 L74,28 L80,28 L80,32 L82,32 L82,36 L90,36 L90,40 L94,40 L96,43 L102,44 L102,46 L120,46 L120,44 L130,44 L130,48 L132,48 L132,52 L136,54 L136,56 L138,56 L138,68 L136,68 L136,70 L138,70 L138,80 L142,80 L142,84 L144,84 L144,88 L146,88 L146,96 L150,96 L150,100 L154,100 L154,104 L156,104 L156,106 L160,106 L160,102 L168,102 L168,98 L178,98 L178,102 L180,102 L180,106 L184,106 L184,134 L186,134 L186,136 L188,136 L188,140 L192,142 L194,146 L198,146 L200,149 L204,150 L204,154 L208,154 L208,166 L212,166 L212,178 L208,178 L208,204 L206,204 L206,206 L204,206 L204,210 L200,210 L200,218 L208,218 L208,228 L206,228 L206,232 L204,232 L204,242 L200,242 L200,246 L196,246 L196,250 L192,250 L192,258 L188,258 L188,264 L186,264 L186,266 L184,266 L184,280 L186,280 L186,284 L188,284 L188,294 L184,294 L184,298 L180,298 L180,302 L178,302 L178,304 L172,304 L172,302 L164,302 L164,298 L156,298 L156,300 L154,300 L154,302 L150,302 L150,304 L148,304 L148,306 L146,306 L146,308 L144,308 L144,312 L142,312 L142,314 L140,314 L140,316 L138,316 L138,320 L136,320 L136,344 L132,344 L132,348 L130,348 L130,350 L126,350 L126,352 L124,352 L124,354 L116,354 L116,350 L100,350 L100,354 L96,354 L96,356 L94,356 L94,358 L82,358 L82,360 L78,360 L78,362 L70,362 L70,364 L62,364 L62,366 L54,366 L54,368 L48,368 L48,370 L26,370 L26,372 L20,372 L20,374 L-4,374 L-4,376 L-6,376 L-6,378 L-12,378 L-12,374 L-20,374 L-20,372 L-22,372 L-22,374 L-28,374 L-28,370 L-42,370 L-42,372 L-48,372 L-48,374 L-64,374 L-64,372 L-72,372 L-72,370 L-78,370 L-88,360 L-88,358 L-104,358 L-106,354 L-110,354 L-110,350 L-116,350 L-116,344 L-118,344 L-118,340 L-120,340 L-120,334 L-118,334 L-118,330 L-116,330 L-116,326 L-120,326 L-120,318 L-124,318 L-124,314 L-128,314 L-132,309 L-134,308 L-134,304 L-138,304 L-138,302 L-144,302 L-144,300 L-146,300 L-146,302 L-160,302 L-160,300 L-164,300 L-164,294 L-166,294 L-166,264 L-168,264 L-168,244 L-170,244 L-170,154 L-168,154 L-168,144 L-166,144 L-166,134 L-164,134 L-164,102 L-156,102 L-156,100 L-150,100 L-150,102 L-146,102 L-146,104 L-142,104 L-142,100 L-140,100 L-140,98 L-136,98 L-136,94 L-132,94 L-131,89 L-128,86 L-126,86 L-126,84 L-124,84 L-124,78 L-120,78 L-120,74 L-122,74 L-122,66 L-120,66 L-120,58 L-116,58 L-116,54 L-112,54 L-112,52 L-110,52 L-110,50 L-108,50 L-108,46 L-102,46 L-102,48 L-98,48 L-98,52 L-92,52 L-92,50 L-88,50 L-86,46 L-82,44 L-82,42 L-78,42 L-78,40 L-76,40 L-76,38 L-70,38 L-70,36 L-68,36 L-68,32 L-64,32 L-64,30 L-60,30 L-60,28 L-56,28 L-56,22 L-50,22 L-50,28 L-38,28 L-38,30 L-32,30 L-32,26 L-28,26 L-28,24 L-24,24 L-24,22 L-28,22 L-28,14 L-32,14 L-32,8 L-28,8 L-28,6 L-20,6 L-20,4 L-10,4 L-10,2 L0,2 Z " fill="#132881" transform="translate(466,324)"/>
<path d="M0,0 L16,0 L16,4 L40,4 L40,10 L38,10 L38,12 L44,12 L44,20 L60,20 L60,44 L68,44 L68,42 L66,42 L66,40 L64,40 L64,20 L62,20 L62,16 L54,16 L54,14 L50,14 L50,4 L66,4 L66,0 L82,0 L84,3 L92,4 L92,8 L120,8 L120,4 L152,4 L152,0 L170,0 L170,2 L174,2 L174,4 L180,4 L180,12 L198,12 L198,14 L200,14 L200,20 L196,20 L196,28 L190,28 L186,24 L186,22 L184,22 L184,24 L178,24 L178,14 L176,14 L176,24 L172,24 L172,28 L174,28 L174,32 L176,32 L176,36 L180,36 L180,42 L182,42 L182,46 L184,46 L184,52 L180,52 L180,68 L176,68 L176,72 L172,72 L172,76 L170,76 L170,78 L168,78 L168,80 L152,80 L152,78 L140,78 L140,92 L112,92 L112,90 L106,90 L106,88 L100,88 L100,86 L96,86 L96,84 L88,84 L88,82 L82,82 L82,76 L96,76 L96,74 L88,74 L88,72 L82,72 L82,70 L80,70 L80,80 L72,80 L72,78 L56,78 L56,72 L54,72 L54,74 L40,74 L40,72 L36,72 L36,74 L32,74 L32,76 L24,76 L24,68 L2,68 L2,66 L0,66 L0,70 L-8,70 L-8,64 L-12,64 L-12,66 L-14,66 L-14,68 L-24,68 L-24,70 L-30,70 L-30,72 L-32,72 L-32,74 L-34,74 L-34,76 L-40,76 L-40,66 L-44,66 L-44,68 L-64,68 L-64,70 L-68,70 L-68,74 L-74,74 L-74,76 L-72,76 L-72,82 L-74,82 L-74,84 L-82,84 L-82,86 L-88,86 L-88,84 L-92,84 L-92,68 L-90,68 L-90,66 L-88,66 L-88,56 L-84,56 L-84,52 L-80,52 L-80,44 L-72,44 L-72,38 L-70,38 L-70,34 L-68,34 L-68,32 L-60,32 L-60,36 L-48,36 L-48,24 L-52,24 L-52,12 L-40,12 L-40,8 L-28,8 L-28,4 L0,4 Z " fill="#000D39" transform="translate(422,210)"/>
<path d="M0,0 L6,0 L6,10 L10,10 L10,22 L6,22 L6,58 L2,58 L2,62 L-4,62 L-4,64 L-6,64 L-6,66 L-22,66 L-22,62 L-24,62 L-24,64 L-28,64 L-28,66 L-38,66 L-38,68 L-40,68 L-40,72 L-42,72 L-42,74 L-44,74 L-44,76 L-48,76 L-48,78 L-50,78 L-50,90 L-46,90 L-46,98 L-50,98 L-50,102 L-58,102 L-58,106 L-66,106 L-66,110 L-74,110 L-74,106 L-80,106 L-80,108 L-84,108 L-84,110 L-86,110 L-86,112 L-88,112 L-88,114 L-96,114 L-96,120 L-98,120 L-98,122 L-110,122 L-110,126 L-118,126 L-118,130 L-126,130 L-126,124 L-124,124 L-124,116 L-122,116 L-122,114 L-126,114 L-126,118 L-138,118 L-138,112 L-142,112 L-142,110 L-148,110 L-148,106 L-150,106 L-150,108 L-152,108 L-152,110 L-170,110 L-170,108 L-174,108 L-174,106 L-176,106 L-176,100 L-178,100 L-178,94 L-176,94 L-176,92 L-166,92 L-166,94 L-162,94 L-162,92 L-150,92 L-150,94 L-142,94 L-142,92 L-140,92 L-140,90 L-134,90 L-132,86 L-128,84 L-128,82 L-116,82 L-116,80 L-114,80 L-114,78 L-116,78 L-116,72 L-114,72 L-113,67 L-110,66 L-110,64 L-102,64 L-102,68 L-96,68 L-96,66 L-86,66 L-86,64 L-84,64 L-84,62 L-82,62 L-82,58 L-80,58 L-80,56 L-72,56 L-72,54 L-68,54 L-68,52 L-66,52 L-66,48 L-64,48 L-64,46 L-62,46 L-62,44 L-60,44 L-60,42 L-54,42 L-54,38 L-52,38 L-52,34 L-46,34 L-46,30 L-44,30 L-44,26 L-38,26 L-38,40 L-34,40 L-32,36 L-30,36 L-30,34 L-26,34 L-26,30 L-14,30 L-14,28 L-12,28 L-12,24 L-10,24 L-10,20 L-16,20 L-16,14 L-14,14 L-14,12 L-6,12 L-6,14 L-4,14 L-4,10 L0,10 Z " fill="#000C38" transform="translate(808,620)"/>
<path d="M0,0 L10,0 L10,2 L26,2 L26,4 L42,4 L42,6 L54,6 L54,8 L56,8 L56,6 L64,6 L64,8 L66,8 L66,6 L74,6 L74,8 L76,8 L76,14 L64,14 L64,18 L48,18 L48,22 L40,22 L40,24 L42,24 L42,26 L52,26 L52,22 L64,22 L64,24 L70,24 L70,26 L74,26 L74,28 L80,28 L80,32 L82,32 L82,36 L90,36 L90,40 L94,40 L96,43 L102,44 L102,46 L120,46 L120,44 L130,44 L130,48 L132,48 L132,52 L136,54 L136,56 L138,56 L138,68 L136,68 L136,70 L138,70 L138,80 L142,80 L142,84 L144,84 L144,88 L146,88 L146,96 L150,96 L149,100 L149,97 L145,97 L145,89 L143,89 L143,96 L142,96 L142,88 L143,85 L141,85 L141,87 L139,87 L139,84 L141,84 L141,81 L133,80 L132,76 L131,67 L133,67 L134,62 L132,57 L130,52 L124,50 L124,48 L120,50 L110,51 L103,50 L96,48 L94,46 L89,43 L88,40 L84,40 L84,44 L80,44 L80,36 L78,36 L78,32 L74,32 L73,30 L70,30 L70,28 L64,28 L63,27 L54,26 L52,30 L42,30 L37,27 L37,20 L44,17 L47,18 L48,14 L64,13 L64,10 L57,11 L53,11 L42,10 L42,8 L22,8 L22,6 L16,8 L12,8 L12,6 L2,5 L1,6 L-8,8 L-19,9 L-25,11 L-22,20 L-20,24 L-27,25 L-27,27 L-25,27 L-26,29 L-28,28 L-28,30 L-33,35 L-37,36 L-41,34 L-44,34 L-44,32 L-50,33 L-57,33 L-58,41 L-61,41 L-62,44 L-60,45 L-63,50 L-71,55 L-73,55 L-73,52 L-82,53 L-83,51 L-86,53 L-91,51 L-91,53 L-88,54 L-92,56 L-98,56 L-103,51 L-110,57 L-113,58 L-113,55 L-115,55 L-114,59 L-116,66 L-118,74 L-118,83 L-128,94 L-132,98 L-134,98 L-134,101 L-141,106 L-142,108 L-146,107 L-150,106 L-150,104 L-155,105 L-156,107 L-159,107 L-160,134 L-161,136 L-161,145 L-163,149 L-162,148 L-160,149 L-163,154 L-165,154 L-165,156 L-159,156 L-161,161 L-162,164 L-164,166 L-163,167 L-164,178 L-165,183 L-165,232 L-164,235 L-162,236 L-161,245 L-161,269 L-162,280 L-154,280 L-154,284 L-161,285 L-161,293 L-158,294 L-158,296 L-156,296 L-156,298 L-147,297 L-143,296 L-138,298 L-138,299 L-143,299 L-143,301 L-133,300 L-129,302 L-126,305 L-125,307 L-120,308 L-119,312 L-120,315 L-123,315 L-123,317 L-119,316 L-117,313 L-117,316 L-115,316 L-113,323 L-112,330 L-115,336 L-114,338 L-111,338 L-113,341 L-113,343 L-110,344 L-110,347 L-113,347 L-113,344 L-115,344 L-115,349 L-110,349 L-110,350 L-116,350 L-116,344 L-118,344 L-118,340 L-120,340 L-120,334 L-118,334 L-118,330 L-116,330 L-116,326 L-120,326 L-120,318 L-124,318 L-124,314 L-128,314 L-132,309 L-134,308 L-134,304 L-138,304 L-138,302 L-144,302 L-144,300 L-146,300 L-146,302 L-160,302 L-160,300 L-164,300 L-164,294 L-166,294 L-166,264 L-168,264 L-168,244 L-170,244 L-170,154 L-168,154 L-168,144 L-166,144 L-166,134 L-164,134 L-164,102 L-156,102 L-156,100 L-150,100 L-150,102 L-146,102 L-146,104 L-142,104 L-142,100 L-140,100 L-140,98 L-136,98 L-136,94 L-132,94 L-131,89 L-128,86 L-126,86 L-126,84 L-124,84 L-124,78 L-120,78 L-120,74 L-122,74 L-122,66 L-120,66 L-120,58 L-116,58 L-116,54 L-112,54 L-112,52 L-110,52 L-110,50 L-108,50 L-108,46 L-102,46 L-102,48 L-98,48 L-98,52 L-92,52 L-92,50 L-88,50 L-86,46 L-82,44 L-82,42 L-78,42 L-78,40 L-76,40 L-76,38 L-70,38 L-70,36 L-68,36 L-68,32 L-64,32 L-64,30 L-60,30 L-60,28 L-56,28 L-56,22 L-50,22 L-50,28 L-38,28 L-38,30 L-32,30 L-32,26 L-28,26 L-28,24 L-24,24 L-24,22 L-28,22 L-28,14 L-32,14 L-32,8 L-28,8 L-28,6 L-20,6 L-20,4 L-10,4 L-10,2 L0,2 Z M25,6 Z M-27,13 Z M-102,49 L-101,51 L-99,51 L-99,49 Z M-166,156 Z M-116,339 L-117,343 L-115,343 Z M-74,55 Z M130,68 Z M-114,318 Z " fill="#0C1F6A" transform="translate(466,324)"/>
<path d="M0,0 L8,0 L8,36 L12,36 L12,50 L16,52 L16,120 L12,120 L12,124 L16,124 L16,132 L18,132 L18,140 L14,140 L14,144 L12,144 L12,146 L18,146 L18,152 L-20,152 L-20,146 L-18,146 L-18,144 L-12,144 L-12,140 L-10,140 L-10,138 L-8,138 L-8,132 L-6,132 L-6,120 L-14,120 L-14,114 L-8,114 L-8,76 L-14,76 L-14,68 L-6,68 L-7,60 L-10,58 L-10,46 L-12,46 L-12,36 L-2,36 L-2,24 L-12,24 L-12,22 L-16,22 L-16,14 L-12,14 L-12,12 L-2,12 L-2,4 L0,4 Z " fill="#000A31" transform="translate(846,426)"/>
<path d="M0,0 L28,0 L28,4 L32,4 L32,8 L36,8 L36,12 L44,12 L44,16 L46,16 L46,28 L40,28 L40,32 L44,32 L44,40 L40,40 L40,48 L44,48 L44,56 L48,56 L48,70 L40,70 L36,66 L36,64 L34,64 L34,56 L28,56 L28,54 L26,54 L26,50 L24,50 L24,48 L22,48 L22,44 L18,42 L16,38 L12,38 L12,34 L10,34 L10,32 L6,32 L6,30 L4,30 L4,26 L-4,26 L-4,22 L-8,20 L-12,16 L-12,14 L-14,14 L-14,10 L-16,10 L-16,16 L-22,16 L-22,8 L-20,8 L-20,4 L-12,4 L-12,8 L-8,8 L-8,4 L0,4 Z " fill="#000830" transform="translate(722,262)"/>
<path d="M0,0 L6,0 L6,6 L10,6 L12,9 L18,10 L18,12 L20,12 L21,20 L26,24 L27,30 L30,30 L30,36 L32,36 L32,34 L38,34 L38,36 L40,36 L40,40 L42,40 L46,44 L46,50 L44,50 L44,54 L48,54 L48,62 L36,62 L36,60 L32,60 L32,54 L24,54 L24,48 L22,48 L22,46 L16,46 L16,50 L12,50 L12,54 L4,54 L4,50 L0,50 L0,40 L-4,40 L-4,34 L0,34 L0,26 L-2,26 L-2,24 L-4,24 L-4,12 L-6,12 L-6,6 L-4,6 L-4,2 L0,2 Z " fill="#000C32" transform="translate(302,728)"/>
<path d="M0,0 L10,0 L10,2 L26,2 L26,4 L42,4 L42,6 L54,6 L54,8 L56,8 L56,6 L64,6 L64,8 L66,8 L66,6 L74,6 L74,8 L76,8 L76,14 L64,14 L64,18 L48,18 L48,22 L40,22 L40,24 L42,24 L42,26 L52,26 L52,22 L64,22 L64,24 L70,24 L70,26 L74,26 L74,28 L80,28 L80,32 L82,32 L82,36 L90,36 L90,40 L94,40 L96,43 L102,44 L102,46 L120,46 L120,44 L130,44 L130,48 L132,48 L132,52 L136,54 L136,56 L138,56 L138,68 L136,68 L136,70 L138,70 L138,80 L142,80 L142,84 L144,84 L144,88 L146,88 L146,96 L150,96 L149,100 L149,97 L145,97 L145,89 L143,89 L143,96 L142,96 L142,88 L143,85 L141,85 L141,87 L139,87 L139,84 L141,84 L141,81 L133,80 L132,76 L131,67 L133,67 L134,62 L132,57 L130,52 L124,50 L124,48 L120,50 L110,51 L103,50 L96,48 L94,46 L89,43 L88,40 L84,40 L84,44 L80,44 L80,36 L78,36 L78,32 L74,32 L73,30 L70,30 L70,28 L64,28 L63,27 L54,26 L52,30 L42,30 L37,27 L37,20 L44,17 L47,18 L48,14 L64,13 L64,10 L57,11 L53,11 L42,10 L42,8 L22,8 L22,6 L16,8 L12,8 L12,6 L2,5 L1,6 L-8,8 L-19,9 L-25,11 L-22,20 L-20,24 L-27,25 L-27,27 L-25,27 L-26,29 L-28,28 L-28,30 L-33,35 L-37,36 L-41,34 L-44,34 L-44,32 L-50,33 L-63,31 L-63,33 L-60,34 L-65,37 L-65,33 L-67,33 L-68,36 L-68,32 L-64,32 L-64,30 L-60,30 L-60,28 L-56,28 L-56,22 L-50,22 L-50,28 L-38,28 L-38,30 L-32,30 L-32,26 L-28,26 L-28,24 L-24,24 L-24,22 L-28,22 L-28,14 L-32,14 L-32,8 L-28,8 L-28,6 L-20,6 L-20,4 L-10,4 L-10,2 L0,2 Z M25,6 Z M-27,13 Z M130,68 Z " fill="#091764" transform="translate(466,324)"/>
<path d="M0,0 L6,0 L6,16 L14,16 L14,36 L12,36 L12,48 L14,48 L14,116 L16,116 L16,140 L8,140 L8,116 L4,116 L4,20 L0,20 Z " fill="#000832" transform="translate(182,430)"/>
<path d="M0,0 L8,0 L11,3 L16,4 L16,5 L9,5 L9,7 L20,6 L22,2 L27,3 L28,0 L28,4 L24,4 L24,8 L22,8 L22,10 L16,10 L16,8 L8,8 L8,4 L0,4 L0,6 L-2,6 L-2,8 L-6,8 L-6,10 L-8,10 L-8,12 L-10,12 L-10,14 L-12,14 L-12,18 L-14,18 L-14,20 L-16,20 L-16,22 L-18,22 L-18,26 L-20,26 L-20,50 L-24,50 L-24,54 L-26,54 L-26,56 L-30,56 L-30,58 L-32,58 L-32,60 L-40,60 L-40,56 L-56,56 L-56,60 L-60,60 L-60,62 L-62,62 L-62,64 L-74,64 L-74,66 L-78,66 L-78,68 L-86,68 L-86,70 L-94,70 L-94,72 L-102,72 L-102,74 L-108,74 L-108,76 L-130,76 L-130,78 L-136,78 L-136,80 L-160,80 L-160,82 L-162,82 L-162,84 L-168,84 L-168,80 L-176,80 L-176,78 L-178,78 L-178,80 L-184,80 L-184,76 L-198,76 L-198,78 L-204,78 L-204,80 L-220,80 L-220,78 L-228,78 L-228,76 L-234,76 L-240,69 L-234,70 L-228,72 L-228,74 L-220,74 L-220,76 L-213,76 L-213,74 L-198,74 L-198,72 L-190,72 L-190,70 L-184,71 L-181,74 L-175,74 L-170,75 L-168,74 L-166,78 L-137,79 L-137,77 L-150,77 L-150,76 L-136,76 L-131,77 L-131,75 L-135,74 L-130,72 L-109,72 L-108,70 L-95,71 L-95,69 L-98,68 L-95,66 L-87,65 L-86,66 L-79,67 L-79,65 L-86,65 L-86,64 L-78,64 L-78,62 L-74,62 L-74,60 L-64,59 L-60,58 L-59,56 L-59,59 L-57,59 L-56,52 L-40,52 L-39,59 L-33,59 L-33,57 L-37,56 L-30,54 L-28,49 L-26,49 L-26,40 L-24,40 L-24,26 L-22,22 L-20,22 L-19,18 L-13,10 L-10,6 L-5,4 L0,2 Z " fill="#0A1D61" transform="translate(622,618)"/>
<path d="M0,0 L16,0 L16,18 L14,18 L14,20 L-4,20 L-4,24 L-8,24 L-8,28 L-12,28 L-12,32 L-14,32 L-14,28 L-40,28 L-40,24 L-48,24 L-48,20 L-46,20 L-46,18 L-44,18 L-42,14 L-40,14 L-40,18 L-28,18 L-28,8 L-18,8 L-18,10 L-12,10 L-12,20 L-6,20 L-6,18 L-4,18 L-4,16 L-2,16 L-2,4 L0,4 Z " fill="#000003" transform="translate(446,234)"/>
<path d="M0,0 L2,0 L2,2 L0,2 L0,11 L16,11 L16,19 L20,19 L20,24 L27,24 L29,17 L33,16 L33,18 L40,19 L40,27 L36,27 L36,35 L40,35 L40,43 L44,43 L44,57 L36,57 L32,53 L32,51 L30,51 L30,43 L24,43 L24,41 L22,41 L22,37 L20,37 L20,35 L18,35 L18,31 L14,29 L12,25 L8,25 L8,21 L6,21 L6,19 L2,19 L2,17 L0,17 L0,12 L-7,12 L-7,10 L-3,10 L-3,3 Z " fill="#000B32" transform="translate(726,275)"/>
<path d="M0,0 L3,0 L2,3 L-5,4 L-5,6 L-1,7 L-1,8 L-6,8 L-6,5 L-13,9 L-16,12 L-17,11 L-19,12 L-21,18 L-26,24 L-26,28 L-31,28 L-31,24 L-35,24 L-36,29 L-54,29 L-54,27 L-58,27 L-58,25 L-60,25 L-60,19 L-62,19 L-62,13 L-60,13 L-60,11 L-50,11 L-50,13 L-46,13 L-46,11 L-34,11 L-34,13 L-26,13 L-26,11 L-24,11 L-24,9 L-18,9 L-16,5 L-12,3 L-12,1 Z " fill="#00104B" transform="translate(692,701)"/>
<path d="M0,0 L18,0 L18,2 L22,2 L22,4 L28,4 L28,12 L46,12 L46,14 L48,14 L48,20 L44,20 L44,28 L38,28 L34,24 L34,22 L32,22 L32,24 L26,24 L26,14 L24,14 L24,24 L20,24 L20,28 L22,28 L22,32 L24,32 L24,36 L28,36 L28,42 L30,42 L29,46 L28,44 L26,45 L26,41 L24,41 L21,36 L21,29 L17,29 L18,22 L23,23 L22,11 L24,10 L25,7 L22,6 L16,4 L5,4 L0,7 L-28,8 L-30,9 L-60,9 L-60,8 L-32,8 L-32,4 L0,4 Z " fill="#00082E" transform="translate(574,210)"/>
<path d="M0,0 L4,1 L4,3 L2,3 L2,7 L0,7 L0,9 L-2,9 L-2,11 L-6,11 L-6,13 L-8,13 L-8,25 L-4,25 L-4,33 L-8,33 L-8,37 L-16,37 L-16,41 L-24,41 L-24,45 L-32,45 L-32,41 L-38,41 L-38,43 L-42,43 L-42,45 L-44,45 L-44,47 L-46,47 L-46,49 L-54,49 L-54,55 L-56,55 L-56,57 L-68,57 L-68,61 L-76,61 L-76,65 L-84,65 L-84,59 L-82,59 L-82,51 L-80,51 L-80,49 L-84,48 L-77,47 L-77,45 L-73,45 L-72,48 L-79,49 L-79,52 L-81,52 L-80,61 L-76,60 L-76,58 L-70,56 L-58,55 L-59,53 L-55,54 L-56,46 L-52,45 L-52,41 L-46,41 L-44,39 L-31,39 L-31,44 L-25,44 L-27,39 L-29,38 L-29,33 L-20,33 L-20,29 L-16,29 L-16,36 L-9,36 L-9,32 L-5,32 L-5,26 L-10,26 L-11,25 L-11,13 L-9,10 L-9,12 L-7,12 L-8,9 L-5,9 L-3,5 Z " fill="#00082D" transform="translate(766,685)"/>
<path d="M0,0 L3,1 L3,3 L0,3 L0,8 L-2,8 L-2,10 L-4,10 L-4,12 L-20,12 L-20,10 L-32,10 L-32,24 L-60,24 L-60,22 L-66,22 L-66,20 L-72,20 L-72,18 L-76,18 L-76,16 L-84,16 L-84,14 L-90,14 L-90,8 L-76,8 L-76,6 L-84,6 L-84,3 L-89,3 L-89,1 L-83,1 L-83,3 L-75,3 L-72,6 L-74,10 L-75,11 L-82,11 L-82,13 L-75,13 L-71,15 L-71,17 L-67,16 L-65,17 L-65,19 L-60,18 L-57,20 L-45,20 L-36,21 L-36,10 L-34,10 L-34,8 L-31,6 L-18,6 L-16,8 L-7,8 L-5,7 L-4,4 L-2,4 L-2,2 L0,2 Z " fill="#001342" transform="translate(594,278)"/>
<path d="M0,0 L14,0 L14,2 L16,2 L16,10 L14,10 L14,12 L12,12 L12,18 L10,18 L10,22 L8,22 L8,28 L4,28 L4,34 L-2,34 L-2,2 L0,2 Z " fill="#00092E" transform="translate(192,374)"/>
<path d="M0,0 L2,0 L2,3 L11,3 L11,7 L15,7 L17,10 L23,11 L23,13 L41,13 L41,11 L51,11 L51,15 L53,15 L53,19 L57,21 L57,23 L59,23 L59,35 L57,35 L57,37 L59,37 L59,47 L63,47 L63,51 L65,51 L65,55 L67,55 L67,63 L71,63 L70,67 L70,64 L66,64 L66,56 L64,56 L64,63 L63,63 L63,55 L64,52 L62,52 L62,54 L60,54 L60,51 L62,51 L62,48 L54,47 L53,43 L52,34 L54,34 L55,29 L53,24 L51,19 L45,17 L45,15 L41,17 L31,18 L24,17 L17,15 L15,13 L10,10 L9,7 L5,7 L5,11 L1,11 Z M51,35 Z " fill="#0B1B71" transform="translate(545,357)"/>
<path d="M0,0 L8,0 L8,4 L12,4 L12,16 L8,16 L8,20 L4,20 L4,24 L-12,24 L-12,8 L-2,8 L-2,4 L0,4 Z " fill="#00042F" transform="translate(690,758)"/>
<path d="M0,0 L6,0 L6,16 L14,16 L14,36 L12,36 L12,48 L11,48 L11,36 L9,36 L9,49 L7,49 L7,20 L5,20 L5,115 L8,116 L4,116 L4,20 L0,20 Z " fill="#00072D" transform="translate(182,430)"/>
<path d="M0,0 L6,1 L12,3 L12,5 L20,5 L20,7 L27,7 L27,5 L42,5 L42,3 L50,3 L50,1 L56,2 L59,5 L65,5 L70,6 L72,5 L74,9 L77,11 L75,11 L75,13 L77,14 L73,14 L73,11 L64,11 L64,9 L62,9 L62,11 L56,11 L56,7 L42,7 L42,9 L36,9 L36,11 L20,11 L20,9 L12,9 L12,7 L6,7 Z " fill="#13276A" transform="translate(382,687)"/>
<path d="M0,0 L16,0 L16,18 L14,19 L-6,19 L-4,18 L-4,16 L-2,16 L-2,4 L0,4 Z " fill="#000002" transform="translate(446,234)"/>
<path d="M0,0 L6,1 L5,10 L2,10 L1,13 L3,14 L0,19 L-8,24 L-10,24 L-10,21 L-19,22 L-18,17 L-16,14 L-18,14 L-18,12 L-15,12 L-15,9 L-13,9 L-13,7 L-7,7 L-7,5 L-4,5 L-4,2 L-2,2 L-1,5 L2,3 L0,2 Z M-11,24 Z " fill="#14206E" transform="translate(403,355)"/>
<path d="M0,0 L6,0 L6,10 L8,10 L8,16 L6,16 L6,26 L2,26 L2,30 L-6,30 L-6,12 L-4,12 L-4,10 L-2,10 L-2,4 L0,4 Z " fill="#00092E" transform="translate(852,596)"/>
<path d="M0,0 L5,0 L10,2 L12,6 L17,7 L18,11 L17,14 L14,14 L14,16 L18,15 L20,12 L20,15 L22,15 L24,22 L25,29 L22,35 L23,37 L26,37 L24,40 L24,42 L27,43 L27,46 L24,46 L24,43 L22,43 L22,48 L27,48 L27,49 L21,49 L21,43 L19,43 L19,39 L17,39 L17,33 L19,33 L19,29 L21,29 L21,25 L17,25 L17,17 L13,17 L13,13 L9,13 L5,8 L3,7 L3,2 L0,2 Z M21,38 L20,42 L22,42 Z M23,17 Z " fill="#14266B" transform="translate(329,625)"/>
<path d="M0,0 L4,0 L4,14 L3,17 L-7,19 L-8,22 L-11,22 L-11,20 L-16,18 L-18,22 L-22,28 L-25,30 L-28,30 L-28,28 L-25,28 L-25,25 L-23,25 L-23,21 L-21,21 L-21,19 L-19,19 L-19,17 L-17,17 L-17,15 L-11,15 L-11,11 L-9,11 L-9,7 L-3,7 L-3,3 L0,3 Z " fill="#00103D" transform="translate(765,647)"/>
<path d="M0,0 L1,0 L1,67 L3,67 L3,90 L-3,90 L-3,66 L-1,66 L-1,1 Z " fill="#000939" transform="translate(194,479)"/>
<path d="M0,0 L6,0 L6,4 L22,4 L22,10 L14,10 L14,14 L-4,14 L-4,10 L-6,10 L-6,4 L-4,4 L-4,2 L0,2 Z " fill="#000631" transform="translate(540,772)"/>
<path d="M0,0 L8,0 L11,3 L16,4 L16,5 L9,5 L9,7 L20,6 L22,2 L27,3 L28,0 L28,4 L24,4 L24,8 L22,8 L22,10 L16,10 L16,8 L8,8 L8,4 L0,4 L0,6 L-2,6 L-2,8 L-6,8 L-6,10 L-8,10 L-8,12 L-10,12 L-10,14 L-12,14 L-12,18 L-14,18 L-14,20 L-16,20 L-16,22 L-18,22 L-18,26 L-21,26 L-21,49 L-23,49 L-23,24 L-22,22 L-20,22 L-19,18 L-13,10 L-10,6 L-5,4 L0,2 Z " fill="#0F1F64" transform="translate(622,618)"/>
<path d="M0,0 L2,2 L4,7 L6,11 L-1,12 L-1,14 L1,14 L0,16 L-2,15 L-2,17 L-7,22 L-11,23 L-15,21 L-18,21 L-18,19 L-24,20 L-37,18 L-37,20 L-34,21 L-39,24 L-39,20 L-41,20 L-42,23 L-42,19 L-38,19 L-38,17 L-34,17 L-34,15 L-30,15 L-30,9 L-24,9 L-24,15 L-12,15 L-12,17 L-6,17 L-6,13 L-2,13 L-2,11 L2,11 L2,8 L-1,8 L-1,1 Z " fill="#111B67" transform="translate(440,337)"/>
<path d="M0,0 L16,0 L15,4 L15,1 L1,1 L1,3 L13,2 L13,5 L10,6 L3,7 L2,10 L-4,10 L-4,8 L-24,8 L-28,11 L-38,12 L-39,13 L-51,13 L-51,23 L-47,23 L-47,36 L-48,36 L-48,24 L-52,24 L-52,12 L-40,12 L-40,8 L-28,8 L-28,4 L0,4 Z " fill="#000A2B" transform="translate(422,210)"/>
<path d="M0,0 L2,0 L2,2 L24,2 L24,8 L26,8 L26,20 L20,20 L20,16 L16,16 L16,8 L0,8 Z " fill="#000004" transform="translate(726,278)"/>
<path d="M0,0 L16,0 L16,2 L28,2 L28,4 L30,4 L30,2 L38,2 L38,4 L40,4 L40,2 L48,2 L48,4 L50,4 L50,10 L38,10 L38,14 L22,14 L22,13 L37,13 L37,11 L22,11 L22,10 L38,9 L38,6 L31,7 L27,7 L16,6 L16,4 L-1,4 L-1,3 L15,3 L15,1 L0,1 Z " fill="#06125F" transform="translate(492,328)"/>
<path d="M0,0 L8,0 L8,4 L20,4 L20,5 L7,5 L7,1 L5,1 L4,4 L0,5 L-1,12 L-4,15 L-8,17 L-4,21 L-5,25 L-10,27 L-11,25 L-13,26 L-13,21 L-15,21 L-16,28 L-18,36 L-21,39 L-21,37 L-23,37 L-23,51 L-20,52 L-24,52 L-24,36 L-22,36 L-22,34 L-20,34 L-20,24 L-16,24 L-16,20 L-12,20 L-12,12 L-4,12 L-4,6 L-2,6 L-2,2 L0,2 Z M-5,18 Z M-14,26 Z " fill="#00092B" transform="translate(354,242)"/>
<path d="M0,0 L8,0 L11,3 L14,4 L14,10 L16,10 L16,12 L13,11 L12,9 L9,9 L10,12 L-2,13 L-4,17 L-10,16 L-12,13 L-15,12 L-15,10 L-6,10 L-6,7 L-4,7 L-4,5 L-2,5 L-2,1 Z " fill="#00113D" transform="translate(728,677)"/>
<path d="M0,0 L2,0 L2,5 L15,6 L15,10 L17,11 L16,12 L28,13 L28,14 L2,14 L2,10 L-6,10 L-6,6 L-4,6 L-4,4 L-2,4 Z " fill="#000105" transform="translate(404,248)"/>
<path d="M0,0 L8,0 L8,4 L12,4 L12,12 L4,12 L2,8 L0,8 L0,12 L-6,12 L-6,10 L-8,10 L-8,4 L0,4 Z " fill="#010A35" transform="translate(802,374)"/>
<path d="M0,0 L2,0 L2,2 L0,2 L0,13 L-8,13 L-8,11 L-24,11 L-24,5 L-26,6 L-39,6 L-35,4 L-27,4 L-27,2 L-22,3 L-20,6 L-8,7 L-5,8 L-3,3 Z " fill="#00123F" transform="translate(502,277)"/>
<path d="M0,0 L1,0 L1,28 L3,28 L4,25 L5,28 L8,29 L8,31 L10,31 L10,33 L19,32 L23,31 L28,33 L28,34 L23,34 L23,36 L33,35 L29,36 L29,38 L32,39 L28,39 L28,37 L22,37 L22,35 L20,35 L20,37 L6,37 L6,35 L2,35 L2,29 L0,29 Z " fill="#0F2068" transform="translate(300,589)"/>
<path d="M0,0 L1,0 L3,7 L4,23 L3,34 L11,34 L11,38 L4,39 L2,47 L0,47 L-1,19 L-2,17 L0,17 Z " fill="#0E2170" transform="translate(301,570)"/>
<path d="M0,0 L4,0 L4,12 L0,12 L0,48 L-4,48 L-4,52 L-10,52 L-11,54 L-12,50 L-5,51 L-4,44 L-4,11 L0,10 L1,7 L3,8 L3,1 Z " fill="#00092D" transform="translate(814,630)"/>
<path d="M0,0 L1,4 L-3,4 L-3,12 L-7,12 L-7,18 L-9,18 L-9,20 L-11,20 L-11,34 L-9,34 L-9,38 L-7,38 L-7,48 L-11,48 L-11,37 L-10,35 L-12,35 L-13,37 L-13,34 L-15,34 L-15,20 L-13,20 L-10,11 L-4,11 L-4,3 L0,3 Z " fill="#112068" transform="translate(661,570)"/>
<path d="M0,0 L1,4 L5,6 L7,10 L11,10 L13,13 L17,14 L17,18 L21,18 L21,30 L25,30 L25,42 L21,41 L24,41 L24,31 L22,31 L22,39 L21,39 L19,32 L17,28 L17,20 L20,21 L20,19 L14,19 L13,16 L7,14 L7,12 L2,10 L2,8 L0,8 L-1,4 Z " fill="#0F1B5F" transform="translate(653,460)"/>
<path d="M0,0 L1,0 L1,25 L3,25 L3,0 L4,0 L4,26 L2,26 L2,28 L0,28 L0,32 L-4,32 L-4,40 L4,40 L4,50 L2,50 L2,54 L0,54 L0,64 L-4,64 L-4,68 L-8,67 L-5,67 L-5,63 L-1,63 L-1,53 L-3,52 L-1,49 L0,44 L1,44 L1,49 L3,49 L3,41 L-5,41 L-5,31 L-1,31 L-1,29 L-4,28 L-2,28 L-2,24 L0,24 Z " fill="#0E1B5A" transform="translate(670,502)"/>
<path d="M0,0 L4,1 L4,3 L2,3 L2,7 L0,7 L0,9 L-2,9 L-2,11 L-6,11 L-6,13 L-8,13 L-8,25 L-4,25 L-4,33 L-8,33 L-8,37 L-17,37 L-17,40 L-24,40 L-23,36 L-9,36 L-9,32 L-5,32 L-5,26 L-10,26 L-11,25 L-11,13 L-9,10 L-9,12 L-7,12 L-8,9 L-5,9 L-3,5 Z " fill="#00092B" transform="translate(766,685)"/>
<path d="M0,0 L15,0 L12,6 L4,11 L2,11 L2,8 L-7,9 L-6,4 Z M1,11 Z " fill="#132374" transform="translate(391,368)"/>
<path d="M0,0 L4,0 L6,8 L5,9 L4,20 L0,20 L0,16 L-4,16 L-4,8 L-6,8 L-4,4 L-2,4 L-2,2 L0,2 Z " fill="#12226C" transform="translate(624,444)"/>
<path d="M0,0 L2,0 L2,11 L1,13 L3,13 L3,23 L7,23 L7,27 L9,27 L9,31 L11,31 L11,39 L15,39 L14,43 L14,40 L10,40 L10,32 L8,32 L8,39 L7,39 L7,31 L8,28 L6,28 L6,30 L4,30 L4,27 L6,27 L6,24 L-2,23 L-3,19 L-4,10 L-2,10 Z M-5,11 Z " fill="#0E1E67" transform="translate(601,381)"/>
<path d="M0,0 L12,0 L12,1 L1,1 L1,3 L11,3 L11,4 L2,5 L1,8 L-12,8 L-12,12 L-22,12 L-22,10 L-24,10 L-24,8 L-16,8 L-16,4 L0,4 Z " fill="#01030D" transform="translate(530,338)"/>
<path d="M0,0 L10,0 L10,4 L12,4 L11,8 L11,5 L9,5 L8,8 L8,4 L2,5 L0,8 L-7,9 L-8,12 L-12,12 L-12,10 L-16,8 L-18,5 L-15,5 L-15,3 L-18,2 L-14,2 L-14,6 L-12,6 L-12,8 L-8,8 L-8,4 L0,4 Z " fill="#11216B" transform="translate(634,422)"/>
<path d="M0,0 L9,0 L8,16 L0,17 Z " fill="#15288E" transform="translate(460,448)"/>
<path d="M0,0 L16,0 L16,2 L1,2 L1,7 L-7,7 L-7,9 L-5,9 L-5,12 L5,12 L5,15 L-5,15 L-10,12 L-10,5 L-3,2 L0,3 Z " fill="#09176A" transform="translate(513,339)"/>
<path d="M0,0 L16,0 L16,8 L0,8 Z " fill="#0E1867" transform="translate(406,330)"/>
<path d="M0,0 L16,0 L16,8 L0,8 Z " fill="#011343" transform="translate(578,294)"/>
<path d="M0,0 L10,0 L10,4 L12,4 L12,8 L16,10 L16,12 L18,12 L18,24 L17,24 L17,13 L15,13 L15,18 L13,14 L10,10 L10,8 L4,6 L4,4 L-18,3 L-18,2 L0,2 Z " fill="#0A1962" transform="translate(586,368)"/>
<path d="M0,0 L15,0 L15,23 L13,23 L13,2 L0,3 L0,13 L1,18 L-3,24 L-5,24 L-4,21 L-3,3 Z " fill="#00123C" transform="translate(466,231)"/>
<path d="M0,0 L9,0 L8,12 L5,13 L4,16 L0,16 Z " fill="#193189" transform="translate(384,588)"/>
<path d="M0,0 L6,0 L6,6 L8,6 L8,14 L6,14 L6,16 L0,16 Z " fill="#00082C" transform="translate(190,422)"/>
<path d="M0,0 L4,0 L4,28 L6,28 L5,30 L2,30 L0,27 L0,3 L3,3 L3,1 Z " fill="#112068" transform="translate(646,430)"/>
<path d="M0,0 L3,0 L2,3 L-5,4 L-5,6 L-1,7 L-1,8 L-6,8 L-6,5 L-13,9 L-16,12 L-16,10 L-23,10 L-23,12 L-26,13 L-26,11 L-24,11 L-24,9 L-18,9 L-16,5 L-12,3 L-12,1 Z " fill="#000E44" transform="translate(692,701)"/>
<path d="M0,0 L7,0 L8,2 L7,4 L4,4 L3,31 L0,31 Z " fill="#102072" transform="translate(303,427)"/>
<path d="M0,0 L3,1 L3,3 L0,3 L0,8 L-2,8 L-2,10 L-4,10 L-4,12 L-20,12 L-20,10 L-32,10 L-32,9 L-20,9 L-19,6 L-16,8 L-7,8 L-5,7 L-4,4 L-2,4 L-2,2 L0,2 Z " fill="#001141" transform="translate(594,278)"/>
<path d="M0,0 L4,0 L5,3 L-2,4 L-2,7 L-4,7 L-3,16 L1,15 L1,13 L9,11 L9,16 L1,16 L1,20 L-7,20 L-7,14 L-5,14 L-5,6 L-3,6 L-3,4 L-7,3 L0,2 Z " fill="#010631" transform="translate(689,730)"/>
<path d="M0,0 L8,0 L8,1 L1,1 L1,32 L3,32 L3,43 L0,48 L-1,48 L-1,43 L-3,43 L-3,52 L-4,52 L-4,42 L-2,42 L-2,32 L0,32 Z " fill="#0D1B5F" transform="translate(302,426)"/>
<path d="M0,0 L4,0 L4,7 L-3,7 L-3,10 L3,11 L4,8 L4,12 L-4,12 L-4,16 L-12,16 L-12,12 L-18,12 L-18,11 L-11,10 L-11,15 L-5,15 L-7,10 L-9,9 L-9,4 L0,4 Z " fill="#000828" transform="translate(746,714)"/>
<path d="M0,0 L1,0 L1,29 L3,29 L3,0 L4,0 L4,32 L2,32 L2,42 L0,42 L0,52 L-1,52 L-2,41 L-2,32 L-1,32 L-1,39 L1,39 L0,31 Z " fill="#01040D" transform="translate(298,426)"/>
<path d="M0,0 L6,0 L6,4 L12,4 L12,12 L4,12 L4,8 L0,8 Z " fill="#010A2A" transform="translate(790,350)"/>
<path d="M0,0 L8,0 L9,3 L20,2 L21,6 L5,6 L5,2 L3,2 L3,4 L-1,4 L-1,6 L-11,6 L-11,3 L0,2 L2,3 L2,1 Z " fill="#000A2D" transform="translate(781,680)"/>
<path d="M0,0 L2,1 L24,2 L24,3 L2,3 L2,5 L-4,5 L-4,7 L-28,7 L-28,9 L-30,9 L-30,11 L-36,11 L-35,7 L-35,10 L-33,9 L-33,7 L-28,5 L-5,6 L-5,4 L-18,4 L-18,3 L-4,3 L1,4 L1,2 L-3,1 Z " fill="#0D1E5B" transform="translate(490,691)"/>
<path d="M0,0 L23,0 L27,1 L27,3 L21,3 L21,5 L-2,5 L-2,1 Z " fill="#112572" transform="translate(464,692)"/>
<path d="M0,0 L8,0 L8,5 L12,5 L12,7 L7,9 L7,6 L4,6 L4,12 L-2,12 L-2,4 L0,4 Z " fill="#010B32" transform="translate(702,266)"/>
<path d="M0,0 L10,0 L10,1 L1,1 L1,3 L6,3 L2,5 L-5,7 L-7,17 L-4,18 L-8,18 L-8,10 L-12,10 L-12,4 L-8,4 L-8,2 L0,2 Z " fill="#0C1763" transform="translate(446,328)"/>
<path d="M0,0 L16,0 L16,2 L31,2 L31,4 L15,4 L12,5 L12,3 L6,5 L2,5 Z " fill="#0A1972" transform="translate(476,327)"/>
<path d="M0,0 L6,0 L6,2 L14,2 L17,5 L15,9 L14,10 L5,10 L5,12 L0,12 L0,8 L13,8 L13,5 L5,5 L5,2 L0,2 Z " fill="#01144B" transform="translate(505,279)"/>
<path d="M0,0 L6,0 L9,3 L9,12 L11,12 L11,14 L3,14 L3,9 L6,9 L5,7 L2,7 L1,4 L-1,6 L-1,4 L-3,3 L0,3 Z " fill="#000D34" transform="translate(491,248)"/>
<path d="M0,0 L6,0 L6,6 L10,6 L12,9 L18,10 L19,12 L19,19 L17,18 L17,13 L11,13 L11,11 L9,11 L9,9 L5,8 L3,6 L3,3 L0,5 L-3,5 L-3,3 L0,3 Z " fill="#000E3A" transform="translate(302,728)"/>
<path d="M0,0 L5,0 L6,4 L0,5 L-22,5 L-22,2 L-1,2 Z " fill="#0E2471" transform="translate(514,688)"/>
<path d="M0,0 L9,0 L8,7 L3,7 L3,12 L1,12 L0,8 L-2,7 L-2,1 Z " fill="#00124F" transform="translate(632,713)"/>
<path d="M0,0 L4,1 L14,3 L14,5 L12,5 L12,10 L4,10 L4,3 L0,3 Z " fill="#001142" transform="translate(410,270)"/>
<path d="M0,0 L2,0 L2,10 L-1,11 L-2,36 L-4,36 L-4,10 L0,9 Z " fill="#132174" transform="translate(675,491)"/>
<path d="M0,0 L1,4 L5,6 L7,10 L11,10 L13,15 L16,15 L15,19 L13,18 L13,16 L7,14 L7,12 L2,10 L2,8 L0,8 L-1,4 Z " fill="#0F1D5E" transform="translate(653,460)"/>
<path d="M0,0 L13,0 L13,3 L4,3 L3,6 L-1,8 L-7,7 L-7,4 L0,4 Z " fill="#000A24" transform="translate(725,690)"/>
<path d="M0,0 L1,0 L1,23 L3,23 L3,0 L4,0 L4,24 L0,24 L-1,28 L-2,23 L-2,14 L0,14 Z " fill="#0D1E61" transform="translate(598,644)"/>
<path d="M0,0 L16,0 L18,3 L26,4 L25,8 L25,5 L17,6 L15,5 L12,6 L12,4 L15,1 L1,1 L1,5 L-15,5 L-15,13 L-12,14 L-16,14 L-16,4 L0,4 Z " fill="#010A28" transform="translate(488,210)"/>
<path d="M0,0 L6,0 L6,2 L24,2 L24,5 L14,6 L7,5 L0,3 Z " fill="#0A1C71" transform="translate(562,369)"/>
<path d="M0,0 L12,0 L12,6 L0,6 Z " fill="#000C2C" transform="translate(302,294)"/>
<path d="M0,0 L6,1 L9,4 L11,6 L11,9 L7,9 L6,6 L-8,5 L-8,2 L0,2 Z " fill="#142B75" transform="translate(432,688)"/>
<path d="M0,0 L4,0 L4,8 L6,8 L6,16 L2,15 L5,15 L5,9 L3,9 L3,13 L0,12 L-1,14 L-4,14 L-4,7 L-1,7 L-1,3 L1,3 L2,7 L3,1 Z " fill="#000728" transform="translate(858,550)"/>
<path d="M0,0 L1,0 L1,25 L3,25 L3,0 L4,0 L4,26 L2,26 L2,28 L-4,29 L-2,28 L-2,24 L0,24 Z " fill="#101C61" transform="translate(670,502)"/>
<path d="M0,0 L1,0 L1,20 L3,20 L3,0 L4,0 L4,20 L6,20 L6,22 L8,22 L8,24 L0,24 Z " fill="#00030B" transform="translate(482,230)"/>
<path d="M0,0 L10,0 L10,1 L1,1 L1,9 L2,8 L2,3 L6,3 L6,18 L5,18 L5,10 L3,10 L3,22 L2,22 L2,10 L0,10 Z " fill="#000B2A" transform="translate(834,462)"/>
<path d="M0,0 L1,3 L6,2 L16,4 L16,5 L8,6 L24,6 L23,9 L28,9 L29,11 L26,11 L25,13 L22,10 L22,8 L6,8 L4,4 L0,4 Z " fill="#112058" transform="translate(356,674)"/>
<path d="M0,0 L1,0 L1,14 L3,14 L3,18 L5,18 L5,28 L1,28 L1,17 L2,15 L0,15 L-1,17 Z " fill="#101D62" transform="translate(649,590)"/>
<path d="M0,0 L8,0 L8,8 L0,8 Z " fill="#000C2D" transform="translate(238,330)"/>
<path d="M0,0 L2,0 L2,2 L8,2 L8,4 L16,4 L16,6 L2,6 L2,12 L0,10 Z " fill="#00020A" transform="translate(502,280)"/>
<path d="M0,0 L6,1 L12,3 L12,5 L20,5 L20,6 L13,6 L13,8 L20,8 L20,9 L12,9 L12,7 L6,7 Z " fill="#132460" transform="translate(382,687)"/>
<path d="M0,0 L2,0 L2,12 L5,11 L5,14 L17,14 L17,15 L9,15 L9,17 L3,17 L3,14 L0,14 Z " fill="#000D32" transform="translate(331,279)"/>
<path d="M0,0 L2,3 L2,9 L0,9 L-1,4 L-22,3 L-22,1 Z " fill="#000A37" transform="translate(751,276)"/>
<path d="M0,0 L12,0 L11,3 L9,3 L9,6 L5,6 L1,6 L-1,6 Z " fill="#000D31" transform="translate(491,211)"/>
<path d="M0,0 L3,0 L3,4 L1,4 L1,27 L-1,27 L-1,2 Z " fill="#102473" transform="translate(600,640)"/>
<path d="M0,0 L1,0 L1,28 L3,28 L4,25 L5,28 L8,29 L8,31 L10,32 L6,32 L6,29 L3,29 L3,34 L6,35 L2,35 L2,29 L0,29 Z " fill="#0B1B5C" transform="translate(300,589)"/>
<path d="M0,0 L4,0 L4,3 L19,3 L19,4 L3,4 L3,8 L1,8 L1,20 L0,20 L-1,3 Z " fill="#000E30" transform="translate(443,230)"/>
<path d="M0,0 L1,4 L-3,4 L-3,8 L-5,8 L-5,10 L-11,10 L-11,8 L-19,8 L-18,4 L-18,7 L-7,6 L-5,2 L0,3 Z " fill="#0F1E61" transform="translate(649,618)"/>
<path d="M0,0 L5,1 L6,7 L18,7 L18,8 L4,8 L4,3 L1,4 L-12,4 L-8,2 L0,2 Z " fill="#00164D" transform="translate(475,279)"/>
<path d="M0,0 L1,0 L1,5 L3,5 L4,1 L6,4 L9,4 L7,7 L7,9 L10,10 L10,13 L7,13 L7,10 L5,10 L5,15 L10,15 L10,16 L4,16 L4,10 L2,10 L2,6 L0,6 Z M4,5 L3,9 L5,9 Z " fill="#102162" transform="translate(346,658)"/>
<path d="M0,0 L2,0 L2,8 L8,8 L8,2 L12,4 L9,10 L8,11 L2,11 L0,8 Z " fill="#010F44" transform="translate(535,266)"/>
<path d="M0,0 L15,0 L16,7 L19,8 L18,11 L14,9 L13,2 L3,3 L1,4 Z " fill="#010C3A" transform="translate(726,287)"/>
<path d="M0,0 L16,0 L16,4 L9,5 L7,8 L8,3 L0,2 Z " fill="#000639" transform="translate(545,777)"/>
<path d="M0,0 L8,0 L8,5 L14,5 L14,8 L8,8 L5,4 L-1,4 Z " fill="#001143" transform="translate(698,684)"/>
<path d="M0,0 L25,0 L25,2 L5,3 L1,3 Z " fill="#001141" transform="translate(406,263)"/>
<path d="M0,0 L17,0 L18,3 L-3,3 Z " fill="#001247" transform="translate(428,274)"/>
<path d="M0,0 L1,3 L0,6 L-2,7 L-14,7 L-14,4 L-4,3 L0,2 Z " fill="#0C216E" transform="translate(562,674)"/>
<path d="M0,0 L1,0 L2,10 L-2,13 L-14,13 L-14,11 L-2,10 L-1,1 Z " fill="#000932" transform="translate(376,236)"/>
<path d="M0,0 L4,0 L4,8 L8,8 L8,22 L0,22 L0,21 L7,21 L7,9 L2,11 L1,4 L3,1 Z " fill="#010928" transform="translate(762,310)"/>
<path d="M0,0 L5,0 L4,5 L-11,5 L-10,3 L-2,3 L-2,1 Z " fill="#162A74" transform="translate(374,676)"/>
<path d="M0,0 L16,0 L16,3 L0,3 Z " fill="#0D2371" transform="translate(566,670)"/>
<path d="M0,0 L4,0 L4,4 L8,4 L8,8 L0,8 Z " fill="#193189" transform="translate(384,612)"/>
<path d="M0,0 L6,0 L6,8 L0,8 Z " fill="#010825" transform="translate(846,586)"/>
<path d="M0,0 L6,1 L6,8 L5,9 L0,9 Z " fill="#000936" transform="translate(191,428)"/>
<path d="M0,0 L2,0 L1,4 L-3,9 L-9,8 L-13,7 L-13,5 L-8,5 L-1,3 Z " fill="#131F70" transform="translate(435,351)"/>
<path d="M0,0 L8,0 L8,6 L0,6 Z " fill="#010C2B" transform="translate(410,254)"/>
<path d="M0,0 L2,1 L-2,5 L-3,1 Z M-7,5 L-2,5 L-3,7 L-7,9 L-9,16 L-11,16 L-11,9 L-9,9 L-9,6 Z " fill="#00083C" transform="translate(696,728)"/>
<path d="M0,0 L5,1 L6,3 L6,13 L11,13 L11,14 L5,14 L5,4 L-1,4 L-1,2 L-11,2 L-11,1 Z " fill="#000D2D" transform="translate(429,240)"/>
<path d="M0,0 L1,0 L1,9 L6,8 L6,10 L12,10 L12,14 L4,14 L4,10 L0,10 Z " fill="#000829" transform="translate(302,768)"/>
<path d="M0,0 L3,0 L3,4 L7,4 L7,10 L9,10 L8,14 L7,12 L5,13 L5,9 L3,9 L0,4 Z " fill="#010A30" transform="translate(595,242)"/>
<path d="M0,0 L7,0 L8,1 L8,6 L-3,6 L-3,2 L-1,2 L-1,4 L6,4 L6,2 L0,2 Z " fill="#071673" transform="translate(533,331)"/>
<path d="M0,0 L1,4 L12,5 L12,6 L7,6 L7,8 L24,8 L24,9 L6,9 L6,7 L2,7 L2,5 L0,5 Z " fill="#010D3E" transform="translate(632,721)"/>
<path d="M0,0 L4,0 L4,6 L-4,6 L-4,8 L-6,8 L-6,6 L-8,6 L-8,4 L0,4 Z " fill="#000107" transform="translate(746,714)"/>
<path d="M0,0 L6,0 L6,2 L10,2 L10,4 L14,5 L6,6 L6,4 L0,4 Z " fill="#0F1D63" transform="translate(310,424)"/>
<path d="M0,0 L8,0 L8,4 L12,4 L14,7 L20,8 L20,9 L12,10 L7,7 L7,1 L0,1 Z " fill="#09185E" transform="translate(548,360)"/>
<path d="M0,0 L1,0 L1,5 L3,5 L4,1 L6,2 L5,7 L15,7 L15,1 L12,0 L16,0 L16,8 L4,8 L4,6 L0,6 Z " fill="#000A28" transform="translate(334,782)"/>
<path d="M0,0 L11,0 L11,2 L4,3 L2,10 L0,10 Z " fill="#000932" transform="translate(371,223)"/>
<path d="M0,0 L2,1 L-1,4 L-6,5 L-8,7 L-10,6 L-10,4 L-7,4 L-7,2 L-12,2 L-13,5 L-13,1 Z " fill="#000E31" transform="translate(795,649)"/>
<path d="M0,0 L6,0 L6,2 L14,2 L14,7 L13,5 L5,5 L5,2 L0,2 Z " fill="#001146" transform="translate(505,279)"/>
<path d="M0,0 L13,2 L13,5 L3,5 L0,3 Z " fill="#0B1B71" transform="translate(505,349)"/>
<path d="M0,0 L2,0 L2,8 L4,8 L4,10 L-4,10 L-4,6 L0,6 Z " fill="#000209" transform="translate(498,252)"/>
<path d="M0,0 L4,0 L4,12 L-1,13 L-3,15 L-4,11 L0,10 L1,7 L3,8 L3,1 Z " fill="#010A2E" transform="translate(814,630)"/>
<path d="M0,0 L2,0 L2,15 L-1,15 L-1,6 Z " fill="#001042" transform="translate(599,262)"/>
<path d="M0,0 L10,0 L9,5 L5,6 L0,1 Z M-1,1 Z " fill="#000F41" transform="translate(493,263)"/>
<path d="M0,0 L5,1 L4,5 L11,5 L11,6 L3,6 L3,4 L1,4 L1,6 L-5,6 L-4,2 L-4,5 L0,5 L0,3 L-2,2 L0,2 Z " fill="#0F215E" transform="translate(443,692)"/>
<path d="M0,0 L4,0 L4,8 L8,8 L8,10 L0,9 L0,3 L3,3 L3,1 Z " fill="#01030C" transform="translate(434,338)"/>
<path d="M0,0 L5,0 L5,2 L1,2 L1,5 L-3,6 L-10,6 L-10,4 L-3,4 L-3,1 Z " fill="#00154A" transform="translate(457,279)"/>
<path d="M0,0 L4,0 L6,8 L3,9 L2,6 L-2,5 L-2,2 L0,2 Z " fill="#12226F" transform="translate(624,444)"/>
<path d="M0,0 L5,0 L5,2 L-2,7 L-3,9 L-7,8 L-7,6 L-3,5 L-2,2 L0,2 Z " fill="#132370" transform="translate(327,423)"/>
<path d="M0,0 L1,0 L2,6 L-2,9 L-7,9 L-7,11 L-9,11 L-10,14 L-10,10 L-8,10 L-8,8 L-4,8 L-4,4 L0,4 Z " fill="#111F60" transform="translate(334,414)"/>
<path d="M0,0 L2,0 L2,4 L0,4 L0,7 L2,7 L3,11 L0,11 L0,9 L-3,9 L-3,3 L0,3 Z " fill="#010F45" transform="translate(695,689)"/>
<path d="M0,0 L2,1 L1,3 L-1,3 L0,5 L0,11 L-7,11 L-7,9 L-2,9 L-2,7 L-8,7 L-8,6 L-2,6 L-2,2 L0,2 Z " fill="#010B2C" transform="translate(836,564)"/>
<path d="M0,0 L6,0 L6,6 L0,6 Z " fill="#010929" transform="translate(824,556)"/>
<path d="M0,0 L6,0 L6,6 L0,6 Z " fill="#010726" transform="translate(604,242)"/>
<path d="M0,0 L4,2 L3,7 L0,8 L0,2 L-4,2 L-4,6 L-12,6 L-12,5 L-5,5 L-5,1 Z " fill="#00082B" transform="translate(750,712)"/>
<path d="M0,0 L2,1 L2,6 L7,5 L5,9 L2,9 L2,7 L-2,6 L-2,3 L0,3 Z " fill="#000D45" transform="translate(684,708)"/>
<path d="M0,0 L2,0 L2,9 L0,11 L-3,11 L-3,4 L0,4 Z " fill="#000620" transform="translate(857,553)"/>
<path d="M0,0 L9,0 L8,4 L4,5 L0,4 Z " fill="#193189" transform="translate(392,620)"/>
<path d="M0,0 L2,0 L2,5 L5,5 L5,3 L7,4 L4,9 L2,9 L1,11 L0,9 Z " fill="#0D2173" transform="translate(299,469)"/>
<path d="M0,0 L4,1 L1,1 L1,3 L3,4 L-3,3 L-3,5 L0,6 L-5,9 L-5,5 L-7,5 L-8,8 L-8,4 L-4,4 L-4,2 L0,2 Z " fill="#111B60" transform="translate(406,352)"/>
<path d="M0,0 L7,0 L7,4 L2,5 L0,5 Z " fill="#000C41" transform="translate(686,709)"/>
<path d="M0,0 L5,0 L5,6 L-1,6 Z " fill="#000C34" transform="translate(796,355)"/>
<path d="M0,0 L2,0 L2,2 L0,3 L-1,12 L-7,12 L-7,10 L-3,10 L-3,3 Z " fill="#01154C" transform="translate(502,277)"/>
<path d="M0,0 L10,0 L10,1 L5,2 L14,3 L14,4 L0,4 L0,2 L-4,1 Z " fill="#001240" transform="translate(462,280)"/>
<path d="M0,0 L1,3 L6,2 L16,4 L16,5 L8,6 L4,6 L4,4 L0,4 Z " fill="#112263" transform="translate(356,674)"/>
<path d="M0,0 L8,0 L8,4 L0,4 Z " fill="#173190" transform="translate(416,608)"/>
<path d="M0,0 L11,0 L10,3 L0,3 Z " fill="#071671" transform="translate(508,331)"/>
<path d="M0,0 L4,2 L5,6 L1,6 L1,8 L8,8 L8,9 L0,9 Z " fill="#011140" transform="translate(446,277)"/>
<path d="M0,0 L4,0 L4,8 L0,8 Z " fill="#00020B" transform="translate(538,266)"/>
<path d="M0,0 L6,0 L7,6 L5,6 L5,3 L-2,5 L-2,3 L0,3 Z " fill="#010F36" transform="translate(334,762)"/>
<path d="M0,0 L4,0 L4,6 L1,9 L0,9 Z " fill="#000D40" transform="translate(809,621)"/>
<path d="M0,0 L7,0 L7,8 L5,8 L5,3 L0,3 Z " fill="#122273" transform="translate(666,543)"/>
<path d="M0,0 L2,0 L1,4 L-4,8 L2,9 L2,10 L-6,10 L-6,6 L-4,6 L-4,4 L-2,4 Z " fill="#00020A" transform="translate(404,248)"/>
<path d="M0,0 L3,0 L2,3 L0,4 L-11,4 L-11,2 L0,2 Z " fill="#010F48" transform="translate(692,701)"/>
<path d="M0,0 L5,1 L6,4 L9,4 L8,8 L6,7 L6,5 L0,3 Z " fill="#122270" transform="translate(660,471)"/>
<path d="M0,0 L2,1 L2,5 L-1,8 L-7,9 L-7,6 L-4,6 L-3,4 L0,3 Z " fill="#00083F" transform="translate(690,724)"/>
<path d="M0,0 L12,0 L12,2 L2,2 L2,4 L0,4 Z " fill="#000209" transform="translate(726,690)"/>
<path d="M0,0 L4,0 L4,2 L2,2 L2,8 L0,8 L0,6 L-4,6 L-4,4 L0,4 Z " fill="#00020A" transform="translate(758,666)"/>
<path d="M0,0 L7,0 L7,4 L0,4 Z " fill="#0F2173" transform="translate(305,604)"/>
<path d="M0,0 L9,0 L13,2 L11,3 L0,2 Z " fill="#0C1B72" transform="translate(447,329)"/>
<path d="M0,0 L1,0 L1,8 L5,7 L4,10 L-1,10 L-1,1 Z " fill="#011242" transform="translate(384,275)"/>
<path d="M0,0 L9,0 L9,2 L1,2 L1,6 L-1,6 L-1,1 Z " fill="#001558" transform="translate(632,713)"/>
<path d="M0,0 L3,0 L3,9 L0,9 Z " fill="#112171" transform="translate(666,556)"/>
<path d="M0,0 L8,0 L8,1 L1,1 L1,3 L8,3 L8,4 L1,5 L0,7 L0,5 L-4,4 L0,4 Z " fill="#0F1D5F" transform="translate(626,426)"/>
<path d="M0,0 L2,0 L3,6 L1,9 L-2,9 Z M4,3 Z M3,4 Z " fill="#152572" transform="translate(343,403)"/>
<path d="M0,0 L4,2 L11,4 L10,6 L4,6 L0,2 Z " fill="#122270" transform="translate(364,374)"/>
<path d="M0,0 L7,0 L6,4 L-1,4 Z " fill="#000A35" transform="translate(743,721)"/>
<path d="M0,0 L12,0 L12,1 L1,1 L0,5 L-5,6 L-2,2 L0,2 Z " fill="#010C38" transform="translate(680,702)"/>
<path d="M0,0 L7,0 L7,2 L1,2 L1,5 L4,6 L-1,6 L-1,1 Z " fill="#000F41" transform="translate(794,633)"/>
<path d="M0,0 L5,0 L6,4 L4,4 L1,1 L1,3 L3,4 L-1,6 L-4,6 L-4,4 Z " fill="#010F3E" transform="translate(400,259)"/>
<path d="M0,0 L6,0 L6,7 L3,6 Z " fill="#00123C" transform="translate(459,223)"/>
<path d="M0,0 L3,0 L4,2 L6,2 L6,6 L2,6 L2,4 L0,4 Z " fill="#02040E" transform="translate(620,424)"/>
<path d="M0,0 L4,2 L2,2 L2,6 L-2,6 L-2,4 L-6,3 L0,2 Z " fill="#020510" transform="translate(322,422)"/>
<path d="M0,0 L2,0 L1,4 L-9,4 L-9,2 L0,2 Z " fill="#001145" transform="translate(407,273)"/>
<path d="M0,0 L3,0 L3,3 L18,3 L18,4 L2,4 L0,3 Z " fill="#010C2C" transform="translate(444,230)"/>
<path d="M0,0 L7,1 L8,3 L-3,3 L-3,1 Z " fill="#000635" transform="translate(701,738)"/>
<path d="M0,0 L6,1 L6,3 L-8,3 L-8,2 L0,2 Z " fill="#12286D" transform="translate(432,688)"/>
<path d="M0,0 L8,0 L8,3 L0,3 Z " fill="#122371" transform="translate(622,618)"/>
<path d="M0,0 L4,0 L4,6 L0,6 Z " fill="#000A34" transform="translate(847,587)"/>
<path d="M0,0 L2,0 L2,8 L-1,8 L-1,1 Z " fill="#132372" transform="translate(663,534)"/>
<path d="M0,0 L7,1 L5,4 L0,5 Z " fill="#142678" transform="translate(344,424)"/>
<path d="M0,0 L2,0 L2,6 L-5,6 L-6,3 L0,4 Z " fill="#010C3B" transform="translate(811,379)"/>
<path d="M0,0 L4,0 L4,2 L1,3 L0,6 L-5,6 L-5,4 L-2,4 Z " fill="#00103F" transform="translate(353,277)"/>
<path d="M0,0 L3,1 L3,3 L6,4 L7,8 L2,6 L2,4 L0,3 Z " fill="#000E36" transform="translate(401,260)"/>
<path d="M0,0 L6,0 L6,4 L0,4 Z " fill="#001140" transform="translate(411,255)"/>
<path d="M0,0 L5,0 L6,4 L0,4 Z " fill="#0B2068" transform="translate(514,688)"/>
<path d="M0,0 L8,0 L9,2 L1,2 L1,4 L-1,4 Z " fill="#001243" transform="translate(728,677)"/>
<path d="M0,0 L2,0 L1,5 L0,6 L-6,6 L-6,4 L-1,3 Z " fill="#001241" transform="translate(763,651)"/>
<path d="M0,0 L3,1 L3,4 L-4,4 L-4,1 Z " fill="#0A1A72" transform="translate(510,341)"/>
<path d="M0,0 L4,1 L4,6 L0,6 Z " fill="#000E3D" transform="translate(701,271)"/>
<path d="M0,0 L3,1 L0,5 L-4,5 L-4,2 Z " fill="#00103F" transform="translate(404,267)"/>
<path d="M0,0 L5,2 L6,3 L6,8 L4,8 L4,4 L2,4 L2,2 L0,2 Z " fill="#00103B" transform="translate(341,769)"/>
<path d="M0,0 L3,1 L3,3 L5,7 L0,6 Z " fill="#000C2F" transform="translate(733,704)"/>
<path d="M0,0 L6,1 L2,2 L2,4 L-1,5 L-1,3 L-5,2 Z " fill="#0A1E64" transform="translate(590,672)"/>
<path d="M0,0 L4,1 L1,1 L1,3 L4,4 L-4,6 L-2,2 L0,2 Z " fill="#000D30" transform="translate(778,654)"/>
<path d="M0,0 L5,0 L7,3 L6,6 L4,6 L3,3 L0,2 Z " fill="#142671" transform="translate(329,625)"/>
<path d="M0,0 L4,1 L4,3 L8,3 L7,5 L2,5 L-1,3 Z " fill="#101F66" transform="translate(656,467)"/>
<path d="M0,0 L4,0 L4,2 L8,1 L9,4 L3,4 L3,2 L0,2 Z " fill="#00154B" transform="translate(519,293)"/>
<path d="M0,0 L2,0 L1,5 L-5,5 L-4,1 L-4,4 L-2,3 L-2,1 Z " fill="#0E2061" transform="translate(459,697)"/>
<path d="M0,0 L2,0 L2,3 L7,3 L5,6 L0,5 Z " fill="#122772" transform="translate(351,668)"/>
<path d="M0,0 L3,0 L1,4 L-2,8 L-3,4 L-1,4 Z " fill="#001146" transform="translate(746,665)"/>
<path d="M0,0 L4,0 L4,5 L0,5 Z " fill="#131E74" transform="translate(411,347)"/>
<path d="M0,0 L5,2 L5,6 L1,6 Z " fill="#132871" transform="translate(438,691)"/>
<path d="M0,0 L5,0 L5,3 L-2,3 L-2,1 Z " fill="#16296D" transform="translate(374,676)"/>
<path d="M0,0 L4,1 L3,5 L-2,3 Z " fill="#11217C" transform="translate(439,372)"/>
<path d="M0,0 L4,0 L4,2 L2,2 L2,10 L1,10 Z " fill="#00010B" transform="translate(682,734)"/>
<path d="M0,0 L3,0 L4,6 L2,7 L2,5 L0,5 Z " fill="#000821" transform="translate(742,682)"/>
<path d="M0,0 L5,0 L4,4 L0,5 Z " fill="#153192" transform="translate(416,568)"/>
<path d="M0,0 L4,0 L2,4 L-2,5 L-1,1 Z " fill="#11206D" transform="translate(355,377)"/>
<path d="M0,0 L3,1 L2,5 L0,5 L0,3 L-3,4 L-2,1 Z " fill="#001140" transform="translate(466,260)"/>
<path d="M0,0 L7,1 L7,3 L0,3 Z " fill="#0C2373" transform="translate(520,686)"/>
<path d="M0,0 L5,0 L4,4 L0,4 Z " fill="#153190" transform="translate(412,576)"/>
<path d="M0,0 L4,0 L4,4 L0,5 Z " fill="#163192" transform="translate(412,544)"/>
<path d="M0,0 L4,0 L4,4 L6,4 L5,6 L1,5 L0,3 L3,3 L3,1 Z " fill="#0F1D5E" transform="translate(616,424)"/>
<path d="M0,0 L2,1 L1,5 L-5,6 L-2,2 L0,2 Z " fill="#111E5A" transform="translate(340,408)"/>
<path d="M0,0 L3,1 L3,7 L1,8 Z " fill="#142571" transform="translate(347,398)"/>
<path d="M0,0 L1,4 L5,6 L4,8 L1,7 L-1,6 Z " fill="#09185A" transform="translate(597,372)"/>
<path d="M0,0 L1,0 L2,6 L5,8 L3,11 L2,8 L0,8 Z " fill="#000A2B" transform="translate(756,318)"/>
<path d="M0,0 L3,0 L2,4 L-2,4 Z " fill="#122270" transform="translate(618,621)"/>
<path d="M0,0 L4,0 L4,4 L0,4 Z " fill="#000E3B" transform="translate(825,557)"/>
<path d="M0,0 L5,0 L4,4 L0,3 Z " fill="#091138" transform="translate(622,450)"/>
<path d="M0,0 L8,1 L4,3 L0,3 Z " fill="#111F69" transform="translate(316,427)"/>
<path d="M0,0 L4,0 L4,4 L0,4 Z " fill="#00020C" transform="translate(510,254)"/>
<path d="M0,0 L4,2 L2,2 L2,4 L0,4 L-1,8 L-2,2 L0,2 Z " fill="#010D2F" transform="translate(398,250)"/>
<path d="M0,0 L4,0 L4,4 L0,4 Z " fill="#000A37" transform="translate(605,243)"/>
<path d="M0,0 L3,0 L3,2 L1,2 L1,6 L-1,6 L-1,1 Z " fill="#00093A" transform="translate(536,775)"/>
<path d="M0,0 L2,0 L3,2 L6,3 L6,5 L1,4 Z " fill="#000F41" transform="translate(751,670)"/>
<path d="M0,0 L3,0 L3,5 L0,5 Z " fill="#122271" transform="translate(654,574)"/>
<path d="M0,0 L4,1 L4,5 L0,3 Z " fill="#122371" transform="translate(649,459)"/>
<path d="M0,0 L5,1 L4,4 L0,4 Z " fill="#142575" transform="translate(380,384)"/>
<path d="M0,0 L4,0 L4,4 L0,3 Z " fill="#0B1C6E" transform="translate(593,372)"/>
<path d="M0,0 L5,0 L5,3 L0,3 Z " fill="#0A1A73" transform="translate(540,353)"/>
<path d="M0,0 L1,3 L0,5 L5,5 L5,6 L-1,6 L-2,1 Z " fill="#000C2B" transform="translate(335,290)"/>
<path d="M0,0 L2,0 L2,4 L4,4 L3,6 L0,6 Z " fill="#000109" transform="translate(706,272)"/>
<path d="M0,0 L4,1 L4,9 L3,9 L1,2 Z " fill="#121E6C" transform="translate(671,490)"/>
<path d="M0,0 L1,2 L-2,8 L-3,4 Z " fill="#11227D" transform="translate(597,445)"/>
<path d="M0,0 L3,0 L4,7 L0,2 Z " fill="#0F227D" transform="translate(593,428)"/>
<path d="M0,0 L4,0 L2,4 L0,4 Z " fill="#00030F" transform="translate(686,710)"/>
<path d="M0,0 L4,0 L4,3 L0,3 Z " fill="#000931" transform="translate(735,726)"/>
<path d="M0,0 Z M-1,1 L1,5 L-3,4 L-3,2 Z " fill="#000D43" transform="translate(665,724)"/>
<path d="M0,0 L3,0 L3,4 L0,4 Z " fill="#000A31" transform="translate(758,711)"/>
<path d="M0,0 L3,1 L2,4 L-2,2 Z " fill="#001041" transform="translate(482,264)"/>
<path d="M0,0 L4,1 L4,4 L1,4 Z " fill="#000926" transform="translate(736,684)"/>
<path d="M0,0 L5,0 L5,2 L2,3 L0,2 Z " fill="#131F73" transform="translate(439,349)"/>
<path d="M0,0 L3,0 L4,4 L0,3 Z " fill="#000927" transform="translate(404,264)"/>
<path d="M0,0 L3,0 L4,3 L0,3 Z " fill="#000524" transform="translate(690,730)"/>
<path d="M0,0 L3,0 L4,3 L0,3 Z " fill="#00071F" transform="translate(734,708)"/>
<path d="M0,0 L4,1 L3,3 L0,3 Z " fill="#132873" transform="translate(357,674)"/>
<path d="M0,0 L3,0 L3,3 L0,4 Z " fill="#000722" transform="translate(809,630)"/>
<path d="M0,0 L2,2 L2,5 L0,5 L-1,1 Z " fill="#122472" transform="translate(607,630)"/>
<path d="M0,0 L3,0 L3,3 L0,4 Z " fill="#112373" transform="translate(604,405)"/>
<path d="M0,0 L3,2 L1,5 L0,2 L-2,1 Z " fill="#000A30" transform="translate(804,380)"/>
<path d="M0,0 L3,0 L2,4 L0,3 Z " fill="#000921" transform="translate(444,230)"/>
<path d="M0,0 L3,0 L3,3 L-1,2 Z " fill="#000B33" transform="translate(508,215)"/>
<path d="M0,0 L3,0 L3,3 L0,3 Z " fill="#0A1971" transform="translate(536,351)"/>
<path d="M0,0 L3,0 L3,3 L0,3 Z " fill="#00051C" transform="translate(346,264)"/>
<path d="M0,0 L3,1 L2,3 L-1,2 Z " fill="#071570" transform="translate(520,333)"/>
<path d="M0,0 L2,0 L2,3 L-1,2 Z " fill="#000732" transform="translate(709,736)"/>
<path d="M0,0 L2,2 L-2,3 Z " fill="#11216D" transform="translate(648,616)"/>
<path d="M0,0 L2,2 L-2,3 Z " fill="#11216D" transform="translate(660,568)"/>
<path d="M0,0 L2,0 L1,3 L-1,1 Z " fill="#0A1B6D" transform="translate(560,367)"/>
</svg>
