<?xml version="1.0" encoding="UTF-8"?>
<!-- Generator: visioncortex VTracer 0.6.4 -->
<svg version="1.1" xmlns="http://www.w3.org/2000/svg" width="1024" height="1024">
<path d="M0,0 L1024,0 L1024,1024 L0,1024 Z " fill="#000000" transform="translate(0,0)"/>
<path d="M0,0 L22,0 L22,2 L30,2 L30,14 L32,14 L32,16 L34,16 L34,22 L32,22 L32,26 L36,26 L36,30 L40,30 L40,32 L42,32 L42,38 L44,38 L44,46 L46,46 L46,54 L44,54 L44,60 L42,60 L42,64 L40,64 L40,66 L42,66 L42,68 L44,68 L44,66 L60,66 L60,98 L64,98 L64,114 L62,114 L62,134 L64,134 L64,150 L68,152 L74,158 L74,164 L72,164 L72,180 L78,180 L78,182 L82,182 L82,188 L76,188 L76,190 L74,190 L74,196 L76,196 L76,210 L72,210 L72,212 L74,212 L74,214 L80,214 L80,218 L82,218 L82,220 L84,220 L84,240 L88,240 L88,242 L92,242 L92,232 L94,232 L94,230 L96,230 L96,228 L98,228 L98,226 L100,226 L100,222 L102,222 L102,218 L108,218 L108,222 L112,222 L112,226 L116,226 L116,238 L119,236 L122,236 L122,228 L130,228 L130,234 L128,234 L128,238 L130,238 L130,250 L134,250 L134,248 L140,248 L140,262 L142,262 L142,264 L144,264 L144,272 L142,272 L142,284 L148,284 L148,290 L156,290 L156,298 L142,298 L142,302 L132,302 L132,310 L112,310 L112,312 L104,312 L104,310 L96,310 L96,308 L94,308 L94,310 L88,310 L88,314 L86,314 L86,320 L94,320 L94,322 L124,322 L124,324 L136,324 L136,322 L144,322 L144,324 L146,324 L146,328 L148,328 L148,330 L156,330 L156,342 L160,342 L160,346 L172,346 L172,358 L164,358 L164,362 L160,362 L160,368 L164,368 L164,374 L156,374 L156,376 L152,376 L152,380 L150,380 L150,382 L144,382 L144,388 L142,388 L142,390 L140,390 L140,400 L132,400 L132,392 L124,392 L124,396 L128,396 L128,402 L124,402 L124,422 L120,422 L120,426 L126,426 L126,434 L128,434 L128,438 L132,438 L132,446 L134,446 L134,454 L132,454 L132,462 L136,462 L136,466 L142,466 L142,458 L148,458 L148,466 L152,466 L152,474 L156,474 L156,500 L154,500 L154,502 L156,502 L156,518 L158,518 L158,528 L156,528 L156,540 L154,540 L154,544 L156,544 L156,550 L148,550 L148,542 L140,542 L140,538 L132,538 L132,526 L128,526 L128,528 L120,528 L120,524 L116,524 L116,526 L112,526 L112,530 L104,530 L104,526 L96,526 L96,530 L94,530 L94,534 L102,534 L102,536 L108,536 L108,538 L112,538 L112,542 L116,542 L116,546 L144,546 L144,558 L148,558 L148,554 L156,554 L156,562 L164,562 L164,584 L160,584 L162,589 L176,590 L176,586 L184,586 L184,592 L176,592 L176,594 L184,594 L184,600 L176,600 L176,602 L172,602 L172,614 L168,614 L168,618 L172,618 L172,630 L170,630 L170,632 L166,632 L166,634 L172,634 L172,646 L162,646 L162,644 L160,644 L160,638 L156,638 L156,634 L148,634 L148,630 L142,630 L142,626 L140,626 L140,622 L116,622 L116,620 L112,620 L112,618 L108,618 L108,620 L102,620 L100,616 L98,616 L98,610 L100,610 L100,602 L98,602 L98,604 L92,604 L92,602 L64,602 L64,594 L60,594 L60,590 L56,590 L56,588 L52,588 L52,582 L48,582 L48,572 L46,572 L46,568 L42,566 L40,562 L36,562 L36,560 L32,560 L32,552 L30,552 L30,550 L4,550 L0,546 L0,538 L-10,538 L-10,534 L-12,534 L-12,528 L-8,528 L-8,526 L-16,526 L-16,524 L-24,524 L-24,522 L-28,522 L-28,518 L-36,518 L-36,514 L-40,514 L-40,510 L-44,510 L-44,506 L-50,506 L-51,498 L-54,496 L-54,490 L-48,490 L-48,492 L-46,492 L-48,486 L-50,486 L-50,482 L-52,482 L-52,478 L-56,478 L-56,474 L-60,474 L-61,465 L-62,462 L-64,462 L-64,464 L-70,464 L-70,460 L-74,460 L-74,458 L-78,458 L-78,460 L-84,460 L-84,462 L-96,462 L-96,456 L-92,456 L-92,454 L-90,454 L-90,452 L-88,452 L-88,448 L-82,448 L-82,450 L-68,450 L-68,446 L-64,446 L-64,434 L-68,434 L-68,430 L-80,430 L-80,434 L-84,434 L-84,444 L-92,444 L-92,442 L-94,442 L-94,436 L-92,436 L-92,430 L-96,430 L-96,422 L-108,422 L-108,426 L-110,426 L-110,428 L-112,428 L-112,430 L-118,430 L-118,428 L-120,428 L-120,430 L-124,430 L-124,434 L-132,434 L-132,438 L-136,438 L-136,446 L-144,446 L-144,452 L-148,452 L-148,454 L-156,454 L-156,452 L-160,452 L-160,450 L-164,450 L-164,446 L-180,446 L-180,456 L-192,456 L-192,450 L-200,450 L-200,456 L-210,456 L-210,454 L-212,454 L-212,450 L-214,450 L-214,436 L-216,436 L-216,428 L-214,428 L-214,426 L-224,426 L-224,418 L-218,418 L-218,404 L-216,404 L-218,398 L-220,398 L-220,402 L-226,402 L-226,396 L-220,396 L-220,390 L-218,390 L-218,388 L-226,388 L-226,370 L-228,370 L-228,354 L-224,354 L-224,342 L-220,342 L-220,336 L-218,336 L-218,334 L-212,334 L-212,338 L-186,338 L-186,336 L-184,336 L-184,334 L-180,334 L-180,330 L-178,330 L-178,328 L-176,328 L-176,320 L-174,320 L-174,318 L-176,318 L-176,310 L-170,310 L-170,312 L-168,312 L-168,308 L-164,308 L-164,304 L-160,304 L-160,266 L-162,266 L-162,262 L-164,262 L-164,254 L-168,254 L-168,252 L-172,252 L-172,250 L-176,250 L-176,246 L-180,246 L-180,242 L-184,242 L-184,238 L-188,238 L-188,234 L-192,234 L-194,229 L-196,228 L-196,222 L-200,222 L-200,220 L-202,220 L-202,216 L-204,216 L-204,214 L-208,214 L-208,204 L-206,204 L-206,202 L-208,202 L-208,196 L-214,196 L-214,186 L-206,186 L-206,194 L-204,194 L-204,190 L-200,190 L-200,188 L-198,188 L-198,182 L-190,182 L-190,178 L-188,178 L-188,174 L-182,174 L-182,176 L-166,176 L-166,174 L-160,174 L-160,178 L-154,178 L-154,188 L-156,188 L-156,206 L-154,206 L-154,210 L-152,210 L-152,220 L-148,220 L-148,226 L-124,226 L-124,232 L-128,232 L-128,234 L-124,234 L-124,250 L-122,250 L-122,254 L-120,254 L-120,256 L-116,256 L-116,258 L-72,258 L-72,254 L-68,254 L-68,250 L-60,250 L-60,246 L-64,246 L-64,242 L-72,242 L-72,232 L-76,236 L-82,236 L-82,238 L-90,238 L-90,232 L-88,232 L-88,230 L-92,230 L-92,226 L-110,226 L-110,230 L-114,230 L-114,232 L-116,232 L-116,238 L-122,238 L-122,230 L-120,230 L-120,224 L-122,224 L-122,210 L-120,210 L-120,198 L-122,198 L-122,202 L-128,202 L-128,194 L-124,194 L-124,190 L-108,190 L-108,194 L-106,194 L-106,192 L-104,192 L-104,186 L-100,186 L-100,178 L-108,178 L-108,170 L-112,170 L-112,166 L-120,166 L-120,144 L-118,144 L-118,142 L-112,142 L-112,162 L-108,162 L-108,158 L-104,158 L-104,146 L-108,146 L-108,140 L-106,140 L-106,136 L-104,136 L-103,132 L-102,130 L-105,132 L-108,132 L-108,134 L-116,134 L-116,138 L-124,138 L-124,134 L-126,134 L-126,128 L-124,128 L-124,126 L-110,126 L-110,124 L-108,124 L-108,122 L-106,122 L-106,120 L-108,120 L-108,114 L-104,114 L-104,110 L-100,110 L-99,105 L-96,104 L-96,102 L-94,102 L-94,98 L-86,98 L-84,94 L-82,94 L-82,92 L-80,92 L-80,86 L-60,86 L-60,90 L-56,90 L-56,94 L-40,94 L-40,86 L-36,86 L-36,84 L-24,84 L-24,82 L-20,82 L-20,80 L-22,80 L-22,74 L-19,71 L-18,68 L-20,68 L-20,60 L-18,60 L-18,58 L-14,58 L-14,56 L-16,56 L-16,50 L-12,48 L-12,46 L-10,46 L-10,44 L-12,44 L-12,36 L-10,36 L-10,32 L-12,32 L-12,24 L-10,24 L-10,12 L-4,12 L0,17 L4,18 L4,6 L0,6 Z " fill="#17204A" transform="translate(534,220)"/>
<path d="M0,0 L16,0 L16,4 L24,4 L24,0 L68,0 L68,4 L72,4 L72,8 L76,8 L76,56 L74,56 L74,58 L76,58 L76,64 L70,64 L70,66 L68,66 L68,70 L62,70 L62,78 L56,78 L56,82 L58,82 L58,80 L66,80 L66,74 L70,74 L70,72 L76,72 L76,78 L78,78 L78,72 L88,72 L88,68 L94,68 L94,70 L96,70 L96,68 L102,68 L102,76 L96,76 L96,78 L100,78 L100,88 L102,88 L102,94 L100,94 L100,100 L96,100 L96,102 L102,102 L102,108 L100,108 L100,110 L96,110 L96,116 L93,118 L92,124 L86,124 L86,126 L76,126 L76,122 L48,122 L48,114 L46,114 L46,108 L44,108 L44,102 L48,102 L48,98 L46,98 L46,92 L48,92 L48,84 L46,84 L46,90 L42,90 L42,92 L40,92 L40,100 L34,100 L34,86 L32,86 L32,80 L36,80 L36,78 L38,78 L38,70 L36,70 L36,62 L38,62 L38,60 L34,60 L34,54 L32,54 L32,44 L6,44 L6,40 L0,40 Z " fill="#121F41" transform="translate(126,278)"/>
<path d="M0,0 L6,0 L6,10 L8,10 L8,12 L10,12 L10,18 L16,18 L16,20 L18,20 L18,2 L26,2 L26,4 L28,4 L28,12 L24,12 L24,22 L18,22 L18,46 L20,46 L20,48 L22,48 L22,46 L34,46 L34,52 L32,52 L32,54 L36,56 L36,58 L42,58 L42,62 L46,62 L46,68 L44,68 L44,82 L46,82 L46,92 L44,92 L44,94 L38,94 L38,96 L34,96 L34,102 L30,102 L30,106 L-20,106 L-22,102 L-40,102 L-40,100 L-42,100 L-42,92 L-40,92 L-40,86 L-42,86 L-42,78 L-36,78 L-36,76 L-34,76 L-34,74 L-30,74 L-30,70 L-26,70 L-26,68 L-30,68 L-30,56 L-26,56 L-26,54 L-24,54 L-24,52 L-22,52 L-22,44 L-20,44 L-20,42 L-18,42 L-18,40 L-10,40 L-10,36 L-12,36 L-12,26 L-10,26 L-10,18 L-4,18 L-4,16 L-2,16 L-2,6 L0,6 Z " fill="#1C204A" transform="translate(456,108)"/>
<path d="M0,0 L6,0 L6,2 L8,2 L8,8 L4,8 L4,10 L12,10 L14,13 L32,14 L32,12 L38,12 L38,14 L40,14 L40,32 L34,32 L34,30 L32,30 L32,24 L26,24 L26,32 L28,32 L28,34 L32,34 L32,36 L36,36 L36,44 L32,44 L32,46 L30,46 L30,48 L26,48 L26,50 L24,50 L24,52 L22,52 L22,54 L16,54 L16,52 L10,52 L10,54 L12,54 L12,60 L0,60 L0,56 L-4,56 L-4,72 L6,72 L6,78 L0,78 L0,84 L-20,84 L-20,80 L-28,80 L-32,76 L-32,74 L-38,74 L-38,72 L-40,72 L-40,12 L-32,12 L-32,10 L-28,10 L-28,4 L0,4 Z " fill="#121F41" transform="translate(850,886)"/>
<path d="M0,0 L8,0 L8,2 L14,2 L14,4 L18,4 L18,0 L26,0 L26,2 L32,2 L32,0 L40,0 L40,2 L42,2 L42,8 L48,8 L48,24 L44,24 L44,36 L38,36 L38,38 L40,38 L40,48 L34,48 L34,44 L30,44 L30,54 L28,54 L28,62 L26,62 L26,64 L24,64 L24,66 L22,66 L22,68 L20,68 L20,70 L18,70 L18,72 L14,72 L14,82 L12,82 L12,84 L2,84 L2,80 L-2,80 L-2,84 L-18,84 L-18,80 L-22,80 L-22,72 L-20,72 L-20,70 L-22,70 L-22,52 L-26,52 L-26,50 L-28,50 L-28,44 L-26,44 L-26,42 L-22,42 L-22,40 L-14,40 L-14,28 L-12,28 L-12,26 L-18,26 L-18,16 L-14,16 L-14,10 L-12,10 L-12,6 L-10,6 L-10,2 L0,2 Z " fill="#172248" transform="translate(964,78)"/>
<path d="M0,0 L16,0 L16,18 L14,18 L14,34 L16,34 L16,44 L4,44 L0,39 L-2,38 L-2,30 L2,26 L4,26 L4,20 L2,20 L2,13 L4,10 L1,12 L0,20 L-2,20 L-2,22 L-4,22 L-4,24 L-6,24 L-6,26 L-10,26 L-10,30 L-8,30 L-8,40 L-10,40 L-10,44 L-16,44 L-16,50 L-24,50 L-24,46 L-28,46 L-28,34 L-32,34 L-32,36 L-36,36 L-36,42 L-40,42 L-40,44 L-44,44 L-44,48 L-54,48 L-54,44 L-76,44 L-76,40 L-82,40 L-82,38 L-90,38 L-90,36 L-94,36 L-94,34 L-104,34 L-104,32 L-106,32 L-106,28 L-108,28 L-108,24 L-112,24 L-112,20 L-116,20 L-116,12 L-114,12 L-114,10 L-108,10 L-108,12 L-102,12 L-102,8 L-96,8 L-96,14 L-94,14 L-94,10 L-92,10 L-92,6 L-88,6 L-88,4 L-82,4 L-82,6 L-78,6 L-78,4 L-72,4 L-72,2 L-64,2 L-64,4 L-42,4 L-42,6 L-40,6 L-40,12 L-32,12 L-32,8 L-26,8 L-26,10 L-24,10 L-24,16 L-22,16 L-22,22 L-18,22 L-18,18 L-16,18 L-16,16 L-14,16 L-14,12 L-4,12 L-4,4 L0,4 Z " fill="#121F3F" transform="translate(754,114)"/>
<path d="M0,0 L22,0 L22,2 L24,2 L24,0 L30,0 L30,2 L32,2 L32,8 L10,8 L10,10 L12,10 L12,16 L14,16 L14,18 L18,18 L18,20 L20,20 L20,24 L24,26 L24,32 L34,32 L34,38 L38,38 L38,42 L40,42 L40,50 L38,50 L38,52 L28,52 L28,62 L24,62 L24,64 L28,64 L28,72 L24,72 L24,92 L22,92 L24,98 L26,98 L26,84 L32,84 L32,106 L30,106 L30,108 L32,108 L32,110 L36,110 L36,116 L24,116 L24,107 L26,104 L22,108 L16,108 L16,106 L12,106 L8,102 L8,98 L4,98 L4,96 L2,96 L2,90 L4,90 L0,86 L0,84 L-2,84 L-2,90 L-10,90 L-11,78 L-14,76 L-14,70 L-12,70 L-13,60 L-16,58 L-16,44 L-14,44 L-14,42 L-8,42 L-8,32 L-4,32 L-4,30 L-8,30 L-8,24 L-2,24 L-2,30 L0,30 L0,28 L2,28 L2,22 L0,22 L0,16 L2,16 L2,12 L0,12 Z " fill="#192247" transform="translate(86,206)"/>
<path d="M0,0 L6,0 L6,2 L12,2 L16,6 L16,4 L22,4 L22,14 L30,14 L30,12 L36,12 L36,20 L38,20 L38,30 L36,30 L36,32 L34,32 L34,34 L40,34 L40,54 L36,54 L36,70 L20,70 L20,68 L18,68 L18,64 L8,64 L8,60 L4,60 L4,56 L0,56 L0,52 L-12,52 L-12,56 L-22,56 L-22,54 L-24,54 L-25,46 L-28,44 L-28,40 L-30,40 L-30,30 L-32,30 L-32,20 L-22,20 L-16,27 L-12,28 L-12,6 L-6,6 L-6,8 L-2,8 L-2,2 L0,2 Z " fill="#172346" transform="translate(70,922)"/>
<path d="M0,0 L10,0 L10,24 L14,24 L14,46 L12,46 L12,48 L4,48 L4,46 L2,46 L2,40 L-6,40 L-6,44 L-4,44 L-4,52 L2,52 L2,56 L4,56 L4,60 L6,60 L6,62 L14,62 L14,64 L18,64 L18,62 L30,62 L30,64 L36,64 L36,66 L38,66 L38,74 L32,74 L30,70 L18,70 L18,74 L16,74 L16,76 L6,76 L6,68 L2,68 L2,88 L-38,88 L-38,86 L-42,86 L-42,62 L-34,62 L-34,64 L-30,64 L-30,68 L-26,68 L-26,70 L-24,70 L-24,68 L-10,68 L-10,66 L-12,66 L-12,64 L-14,64 L-14,52 L-10,52 L-10,48 L-12,48 L-12,42 L-14,42 L-14,36 L-12,36 L-12,34 L-10,34 L-10,28 L-16,28 L-16,20 L-12,20 L-12,16 L-22,16 L-22,10 L-14,10 L-14,8 L-8,8 L-8,10 L-6,10 L-6,20 L-4,20 L-4,12 L1,12 L4,14 L0,10 Z " fill="#121D3F" transform="translate(608,874)"/>
<path d="M0,0 L6,0 L6,2 L8,2 L8,0 L14,0 L14,8 L8,8 L8,10 L12,10 L12,20 L14,20 L14,26 L12,26 L12,32 L8,32 L8,34 L14,34 L14,40 L12,40 L12,42 L8,42 L8,48 L5,50 L4,56 L-2,56 L-2,58 L-12,58 L-12,54 L-40,54 L-40,46 L-42,46 L-42,40 L-44,40 L-44,34 L-40,34 L-40,30 L-42,30 L-42,24 L-39,24 L-39,13 L-38,9 L-33,10 L-33,14 L-30,14 L-30,12 L-22,12 L-22,6 L-18,6 L-18,4 L-12,4 L-12,10 L-10,10 L-10,4 L0,4 Z M-36,8 Z " fill="#1A2447" transform="translate(214,346)"/>
<path d="M0,0 L16,0 L16,2 L22,2 L22,4 L24,4 L24,8 L26,8 L26,10 L30,10 L30,12 L34,12 L34,18 L32,18 L32,20 L34,20 L34,22 L38,22 L38,30 L44,30 L44,40 L46,40 L46,46 L44,46 L44,48 L42,48 L42,50 L38,50 L38,62 L32,62 L32,64 L24,64 L24,62 L18,62 L18,64 L16,64 L16,66 L2,66 L2,62 L-6,62 L-6,30 L4,30 L4,28 L2,28 L2,22 L4,22 L4,20 L6,20 L6,16 L8,16 L8,12 L10,12 L10,10 L12,10 L14,6 L16,6 L16,4 L10,4 L10,6 L8,6 L8,8 L4,8 L4,12 L2,12 L2,14 L-4,14 L-4,8 L-2,8 L-2,4 L0,4 Z " fill="#1B2148" transform="translate(284,0)"/>
<path d="M0,0 L12,0 L12,8 L18,8 L18,10 L30,10 L30,12 L34,12 L34,14 L36,14 L36,20 L34,20 L34,22 L40,22 L40,24 L42,24 L42,34 L44,34 L44,26 L48,26 L48,24 L50,24 L50,22 L58,22 L58,30 L52,30 L52,34 L56,34 L56,44 L54,44 L54,46 L48,46 L48,44 L46,44 L46,48 L44,48 L44,56 L42,56 L42,60 L44,60 L44,66 L42,66 L42,70 L36,70 L36,68 L34,68 L34,70 L30,70 L30,72 L22,72 L22,48 L18,48 L18,40 L4,40 L4,36 L2,36 L2,24 L4,24 L4,20 L-2,20 L-2,12 L-4,12 L-4,6 L-2,6 L-1,1 Z " fill="#1B2447" transform="translate(800,526)"/>
<path d="M0,0 L8,0 L8,2 L30,2 L30,4 L32,4 L32,11 L39,11 L39,13 L36,14 L35,21 L37,22 L37,27 L30,28 L29,36 L20,37 L15,36 L14,37 L-1,37 L-6,32 L-6,30 L-11,32 L-19,32 L-19,30 L-30,29 L-30,21 L-35,19 L-36,11 L-30,11 L-30,6 L-24,6 L-24,12 L-22,12 L-22,8 L-20,8 L-20,4 L-16,4 L-16,2 L-10,2 L-10,4 L-6,4 L-6,2 L0,2 Z " fill="#19264A" transform="translate(682,116)"/>
<path d="M0,0 L1,0 L1,6 L-1,6 L-1,14 L5,14 L5,8 L7,8 L7,6 L11,6 L11,2 L29,2 L29,6 L33,6 L33,8 L31,8 L31,14 L39,14 L39,12 L45,12 L47,8 L49,8 L49,18 L57,18 L57,22 L61,22 L61,26 L53,26 L53,30 L49,30 L49,34 L5,34 L5,32 L1,32 L1,30 L-1,30 L-1,26 L-3,26 L-3,10 L-7,10 L-7,8 L-3,8 L-3,2 Z " fill="#000103" transform="translate(413,444)"/>
<path d="M0,0 L6,0 L6,10 L8,10 L8,14 L10,14 L10,10 L12,10 L12,4 L18,4 L18,6 L20,6 L20,10 L24,10 L24,14 L60,14 L60,10 L68,10 L68,18 L64,18 L64,26 L56,26 L56,34 L46,34 L46,32 L44,32 L44,34 L22,34 L22,30 L-2,30 L-2,24 L-4,24 L-4,18 L-2,18 L-2,2 L0,2 Z " fill="#1C2346" transform="translate(524,116)"/>
<path d="M0,0 L8,0 L8,6 L6,6 L6,8 L4,8 L4,12 L2,12 L2,14 L0,14 L0,36 L-6,36 L-6,34 L-8,34 L-8,38 L-10,38 L-10,40 L-8,40 L-8,48 L-10,48 L-10,50 L-12,50 L-12,52 L-16,52 L-16,56 L-28,56 L-28,60 L-34,60 L-34,58 L-36,58 L-36,52 L-32,52 L-32,40 L-28,40 L-28,32 L-20,32 L-20,28 L-24,28 L-24,16 L-28,16 L-28,10 L-20,10 L-20,8 L-18,8 L-18,6 L-8,6 L-8,4 L0,4 Z " fill="#181C46" transform="translate(414,126)"/>
<path d="M0,0 L16,0 L16,10 L14,10 L14,16 L12,16 L12,18 L10,18 L10,20 L6,20 L6,24 L4,24 L4,36 L10,36 L10,34 L18,34 L18,40 L16,40 L16,44 L14,44 L14,54 L8,54 L8,52 L2,52 L2,54 L-4,54 L-4,52 L-6,52 L-6,56 L-18,56 L-18,48 L-14,48 L-14,44 L-6,44 L-6,46 L-4,46 L-4,42 L-10,42 L-10,40 L-14,40 L-14,34 L-11,31 L-12,27 L-14,26 L-14,20 L-20,20 L-20,14 L-12,14 L-12,20 L-10,20 L-8,16 L-4,14 L-4,12 L-2,12 L-2,2 L0,2 Z " fill="#121C3F" transform="translate(712,490)"/>
<path d="M0,0 L8,0 L8,2 L12,2 L12,6 L18,6 L18,14 L24,14 L24,18 L30,18 L30,26 L22,26 L22,22 L18,22 L18,26 L6,26 L6,30 L-2,30 L-2,36 L-16,36 L-16,34 L-24,34 L-24,32 L-26,32 L-26,26 L-24,26 L-24,18 L-18,18 L-18,22 L-16,22 L-16,18 L-14,18 L-14,14 L-18,14 L-18,6 L-14,6 L-14,2 L-6,2 L-6,6 L0,6 Z " fill="#1A2047" transform="translate(904,652)"/>
<path d="M0,0 L6,0 L6,4 L12,4 L12,6 L14,6 L14,14 L12,14 L12,18 L16,18 L16,24 L14,24 L14,28 L4,28 L4,26 L-2,26 L-2,24 L-5,26 L-6,34 L-2,34 L-2,42 L-4,42 L-4,44 L-16,44 L-16,28 L-14,28 L-14,26 L-18,26 L-18,24 L-28,24 L-28,14 L-24,14 L-24,12 L-22,12 L-22,2 L-12,2 L-12,4 L-10,4 L-10,8 L-8,8 L-8,4 L-4,4 L-4,2 L0,2 Z " fill="#192346" transform="translate(64,694)"/>
<path d="M0,0 L6,0 L6,12 L10,12 L10,18 L6,18 L6,24 L8,24 L8,40 L6,40 L6,44 L0,44 L0,58 L-2,58 L-2,62 L-4,62 L-4,66 L-6,66 L-6,68 L-16,68 L-20,64 L-20,60 L-22,60 L-22,54 L-18,54 L-18,40 L-20,40 L-20,34 L-16,32 L-16,30 L-10,30 L-10,32 L-2,32 L-2,26 L-4,26 L-4,18 L-2,18 L-2,4 L0,4 Z " fill="#1D2246" transform="translate(908,552)"/>
<path d="M0,0 L26,0 L26,2 L28,2 L28,18 L26,18 L26,20 L20,20 L20,14 L8,14 L8,22 L16,22 L16,34 L18,34 L18,36 L16,36 L16,40 L11,39 L8,36 L8,34 L-6,34 L-6,18 L0,18 L0,12 L-6,12 L-6,2 L0,2 Z " fill="#010103" transform="translate(822,912)"/>
<path d="M0,0 L6,0 L6,8 L8,8 L8,18 L6,18 L6,20 L10,20 L10,26 L12,26 L12,20 L14,20 L14,10 L16,6 L14,6 L14,0 L22,0 L24,3 L28,4 L28,20 L32,20 L32,26 L28,26 L28,32 L24,32 L24,34 L18,34 L18,32 L2,32 L2,30 L-10,30 L-10,22 L-4,22 L-4,24 L-2,24 L-2,6 L0,6 Z " fill="#1B2143" transform="translate(764,506)"/>
<path d="M0,0 L26,0 L26,4 L42,4 L44,7 L48,8 L48,12 L42,12 L42,24 L30,24 L30,20 L18,20 L18,24 L14,24 L14,18 L10,18 L10,12 L6,12 L6,10 L2,10 L2,8 L-2,8 L-2,6 L0,6 Z " fill="#000103" transform="translate(644,810)"/>
<path d="M0,0 L6,0 L6,2 L8,3 L7,7 L9,14 L11,15 L11,19 L15,19 L15,23 L20,21 L26,23 L26,26 L30,26 L30,29 L27,29 L27,31 L33,30 L38,31 L41,32 L46,33 L49,36 L47,41 L53,42 L55,46 L56,54 L58,50 L60,55 L65,56 L83,56 L83,58 L86,59 L85,61 L88,60 L87,69 L89,69 L89,66 L91,66 L91,68 L93,68 L93,70 L95,70 L95,68 L97,68 L97,60 L101,60 L101,68 L103,68 L104,64 L106,77 L108,78 L110,85 L109,92 L110,95 L114,97 L115,103 L118,104 L114,104 L114,100 L110,100 L110,98 L106,98 L106,92 L102,92 L102,82 L100,82 L100,78 L96,76 L94,72 L90,72 L90,70 L86,70 L86,62 L84,62 L84,60 L58,60 L54,56 L54,48 L44,48 L44,44 L42,44 L42,38 L46,38 L46,36 L38,36 L38,34 L30,34 L30,32 L26,32 L26,28 L18,28 L18,24 L14,24 L14,20 L10,20 L10,16 L4,16 L3,8 L0,6 Z " fill="#0F1A3A" transform="translate(480,710)"/>
<path d="M0,0 L18,0 L18,2 L24,2 L24,34 L16,34 L16,24 L12,24 L12,30 L4,30 L4,28 L0,28 Z " fill="#161F45" transform="translate(238,446)"/>
<path d="M0,0 L6,0 L6,4 L10,4 L10,8 L14,8 L14,20 L17,18 L20,18 L20,10 L28,10 L28,16 L26,16 L26,20 L28,20 L28,32 L32,32 L32,30 L38,30 L38,44 L40,44 L40,46 L42,46 L42,54 L41,54 L40,48 L39,53 L38,53 L36,44 L37,31 L33,31 L33,33 L35,33 L35,44 L34,44 L33,35 L32,33 L28,33 L26,45 L26,53 L25,55 L20,55 L21,49 L17,48 L17,45 L15,45 L14,48 L12,47 L10,41 L10,30 L11,28 L10,10 L12,14 L13,9 L6,8 L6,6 L4,5 L5,1 L1,1 L0,4 Z " fill="#121B3E" transform="translate(636,438)"/>
<path d="M0,0 L16,0 L16,18 L14,18 L14,34 L16,34 L16,44 L4,44 L0,39 L-2,38 L-2,30 L2,26 L4,26 L4,20 L2,20 L2,13 L4,10 L-1,12 L-1,19 L-3,17 L-3,5 L0,5 Z " fill="#131F40" transform="translate(754,114)"/>
<path d="M0,0 L22,0 L22,2 L30,2 L30,14 L32,14 L32,16 L34,16 L34,22 L32,22 L32,26 L36,26 L35,30 L35,27 L30,28 L28,25 L18,24 L18,20 L10,21 L5,20 L0,21 L-1,19 L4,19 L4,6 L0,6 Z " fill="#1A2146" transform="translate(534,220)"/>
<path d="M0,0 L3,0 L3,12 L9,12 L9,18 L17,18 L17,26 L3,26 L3,30 L-7,30 L-7,38 L-27,38 L-27,40 L-35,40 L-35,38 L-43,38 L-43,36 L-45,36 L-45,38 L-51,38 L-51,42 L-53,42 L-53,48 L-45,48 L-45,50 L-15,50 L-16,52 L-45,51 L-45,53 L-41,54 L-43,55 L-64,55 L-68,52 L-68,49 L-66,50 L-66,51 L-53,52 L-57,50 L-57,40 L-55,40 L-55,38 L-53,38 L-52,34 L-49,35 L-51,35 L-51,37 L-47,36 L-45,32 L-37,32 L-36,35 L-42,35 L-42,37 L-35,36 L-8,37 L-8,28 L-6,26 L0,26 L-2,19 L-3,14 L-1,12 L-1,2 Z " fill="#12193E" transform="translate(673,492)"/>
<path d="M0,0 L4,1 L1,1 L1,13 L-3,13 L-3,27 L-1,27 L-1,45 L8,45 L9,48 L7,50 L5,49 L5,51 L7,51 L8,55 L7,57 L9,57 L10,55 L9,62 L11,62 L12,60 L11,77 L15,78 L17,79 L17,81 L15,81 L15,84 L17,84 L18,81 L22,82 L20,85 L18,85 L18,87 L20,88 L19,93 L16,94 L21,96 L22,100 L20,101 L20,99 L15,98 L13,94 L11,94 L11,107 L16,109 L17,112 L23,113 L23,108 L24,108 L24,114 L14,114 L14,112 L12,112 L12,108 L10,108 L10,94 L8,94 L8,86 L10,86 L10,84 L0,84 L0,76 L6,76 L6,62 L8,62 L6,56 L4,56 L4,60 L-2,60 L-2,54 L4,54 L4,48 L6,48 L6,46 L-2,46 L-2,28 L-4,28 L-4,12 L0,12 Z M13,102 L14,102 L14,107 L13,107 Z " fill="#131C40" transform="translate(310,562)"/>
<path d="M0,0 L22,0 L22,20 L24,20 L24,28 L14,28 L14,24 L6,24 L6,22 L4,22 L4,16 L6,16 L6,14 L0,14 Z " fill="#161F44" transform="translate(274,574)"/>
<path d="M0,0 L8,0 L8,2 L10,2 L10,8 L16,8 L16,24 L12,24 L12,36 L6,36 L6,38 L8,38 L8,48 L2,48 L2,44 L-2,44 L-2,54 L-3,54 L-4,42 L-2,42 L0,35 L2,36 L3,34 L6,33 L5,23 L4,19 L1,19 L1,16 L-1,16 L-2,11 L-1,6 L-6,6 L-6,5 L0,5 L0,3 L-6,3 L-6,2 L0,2 Z M0,19 Z " fill="#111B3E" transform="translate(996,78)"/>
<path d="M0,0 L10,0 L10,1 L1,1 L1,9 L3,9 L3,19 L5,19 L6,17 L6,20 L8,20 L10,25 L12,26 L12,31 L15,32 L19,31 L20,29 L29,28 L28,25 L30,24 L25,23 L27,22 L28,19 L32,18 L31,23 L40,23 L40,30 L42,30 L42,32 L45,32 L45,35 L52,34 L54,35 L52,39 L51,43 L51,47 L53,47 L53,49 L67,49 L67,34 L68,34 L68,50 L52,50 L52,48 L50,48 L50,44 L40,44 L40,40 L36,40 L36,36 L32,36 L32,32 L20,32 L20,36 L10,36 L10,34 L8,34 L7,26 L4,24 L4,20 L2,20 L2,10 L0,10 Z M7,23 Z " fill="#111D3D" transform="translate(38,942)"/>
<path d="M0,0 L18,0 L18,4 L20,4 L20,10 L12,10 L12,12 L4,12 L4,14 L2,14 L2,18 L10,18 L10,30 L2,30 L2,28 L-8,28 L-8,20 L-6,20 L-6,18 L-4,18 L-4,10 L-2,10 L-2,8 L2,8 L2,6 L0,6 Z " fill="#121B3C" transform="translate(750,494)"/>
<path d="M0,0 L6,0 L6,2 L10,2 L10,0 L22,0 L22,2 L24,2 L24,8 L18,8 L18,10 L20,10 L20,18 L18,18 L18,20 L8,20 L8,18 L2,18 L2,20 L-4,20 L-4,8 L0,8 Z " fill="#121B3D" transform="translate(734,862)"/>
<path d="M0,0 L34,0 L34,2 L36,2 L36,8 L38,8 L38,16 L42,16 L42,22 L38,22 L38,26 L32,26 L32,10 L24,10 L24,8 L0,8 Z " fill="#161F3D" transform="translate(614,350)"/>
<path d="M0,0 L6,0 L6,20 L10,20 L10,28 L16,28 L16,30 L20,30 L20,44 L14,44 L10,40 L10,36 L6,36 L6,34 L4,34 L4,30 L2,30 L2,24 L-2,24 L-2,2 L0,2 Z " fill="#111A3C" transform="translate(1004,2)"/>
<path d="M0,0 L10,0 L10,10 L2,10 L2,8 L0,8 L0,10 L-10,10 L-10,14 L-12,14 L-12,16 L-10,16 L-10,24 L-14,24 L-14,26 L-18,26 L-18,28 L-24,28 L-24,14 L-18,14 L-18,10 L-16,10 L-16,4 L-14,4 L-14,2 L-7,2 L-4,4 L-4,2 L0,2 Z " fill="#121A3D" transform="translate(24,526)"/>
<path d="M0,0 L6,0 L6,20 L10,20 L10,16 L14,16 L14,4 L15,4 L15,16 L17,16 L18,13 L19,18 L16,25 L18,25 L20,28 L21,30 L19,33 L11,33 L11,35 L18,35 L18,36 L10,36 L10,28 L6,28 L6,24 L-2,24 L-2,2 L0,2 Z " fill="#131A41" transform="translate(416,362)"/>
<path d="M0,0 L20,0 L19,4 L19,1 L1,1 L2,10 L-1,13 L-6,14 L-8,16 L-12,18 L-17,24 L-23,25 L-23,29 L-27,29 L-27,33 L-25,33 L-24,31 L-24,34 L-22,34 L-23,37 L-27,41 L-21,41 L-21,47 L-23,46 L-22,44 L-25,46 L-28,46 L-28,48 L-36,48 L-36,52 L-44,52 L-44,48 L-46,48 L-46,42 L-44,42 L-44,40 L-30,40 L-30,38 L-28,38 L-28,36 L-26,36 L-26,34 L-28,34 L-28,28 L-24,28 L-24,24 L-20,24 L-19,19 L-16,18 L-16,16 L-14,16 L-14,12 L-6,12 L-4,8 L-2,8 L-2,6 L0,6 Z M-30,42 Z " fill="#121A3E" transform="translate(454,306)"/>
<path d="M0,0 L4,1 L1,1 L2,8 L-1,7 L0,10 L-10,9 L-10,11 L-4,11 L-4,16 L-11,15 L-12,23 L-15,27 L-15,25 L-17,25 L-17,37 L-10,38 L-9,43 L-7,43 L-6,40 L-6,44 L-10,44 L-10,46 L-12,46 L-12,52 L-18,52 L-18,44 L-16,44 L-16,38 L-18,38 L-18,24 L-16,24 L-16,12 L-18,12 L-18,16 L-24,16 L-24,8 L-20,8 L-20,4 L-4,4 L-4,8 L-2,8 L-2,6 L0,6 Z " fill="#131B3D" transform="translate(430,406)"/>
<path d="M0,0 L6,0 L6,8 L4,8 L4,10 L2,10 L2,14 L6,14 L6,22 L4,22 L4,24 L-8,24 L-10,20 L-12,20 L-12,12 L-14,12 L-14,6 L-12,6 L-12,4 L0,4 Z " fill="#121C3E" transform="translate(1014,166)"/>
<path d="M0,0 L8,0 L8,14 L4,14 L4,16 L2,16 L2,18 L0,18 L0,22 L-4,22 L-4,24 L-6,24 L-6,26 L-10,26 L-10,30 L-16,30 L-16,24 L-12,24 L-12,18 L-10,18 L-10,14 L-8,14 L-8,12 L-10,12 L-10,6 L-4,6 L-4,10 L-2,10 L-2,8 L0,8 Z " fill="#111A3C" transform="translate(498,274)"/>
<path d="M0,0 L22,0 L22,2 L24,2 L24,0 L30,0 L30,2 L32,2 L32,8 L10,8 L10,10 L12,10 L12,16 L14,16 L13,18 L11,17 L10,19 L11,11 L3,12 L2,16 L2,12 L0,12 Z " fill="#142044" transform="translate(86,206)"/>
<path d="M0,0 L6,0 L6,2 L8,2 L8,20 L2,20 L2,18 L0,18 L0,12 L-6,12 L-6,20 L-4,20 L-4,22 L0,22 L0,24 L4,24 L4,32 L0,32 L-1,34 L-2,30 L3,31 L3,25 L-3,26 L-1,25 L-1,23 L-6,24 L-5,21 L-7,21 L-8,23 L-7,13 L-11,13 L-12,5 L0,5 L0,3 L-18,3 L-18,2 L0,2 Z " fill="#0F1B3B" transform="translate(882,898)"/>
<path d="M0,0 L3,0 L3,6 L7,6 L7,14 L12,12 L14,13 L14,19 L16,20 L15,24 L17,24 L17,30 L9,30 L9,22 L1,22 L1,18 L-7,18 L-7,6 L-6,6 L-6,17 L6,16 L-4,15 L-4,8 L-2,8 L-2,14 L0,14 Z " fill="#152040" transform="translate(673,740)"/>
<path d="M0,0 L2,0 L3,12 L10,12 L10,14 L5,14 L5,25 L11,25 L11,31 L5,31 L5,47 L3,48 L2,58 L0,58 Z " fill="#152042" transform="translate(811,899)"/>
<path d="M0,0 L8,0 L8,2 L10,2 L10,10 L6,10 L6,20 L0,20 L0,44 L2,44 L1,46 L-2,46 L-2,39 L-4,41 L-4,19 L-3,17 L-9,17 L-9,10 L-8,10 L-8,16 L-2,16 L-2,18 L0,18 Z " fill="#171A3F" transform="translate(474,110)"/>
<path d="M0,0 L8,0 L8,8 L2,8 L2,12 L6,12 L6,22 L4,22 L4,24 L-2,24 L-2,22 L-6,21 L-6,19 L-4,18 L-6,17 L-6,4 L-2,4 L-2,2 L0,2 Z " fill="#192245" transform="translate(850,548)"/>
<path d="M0,0 L6,0 L6,1 L1,1 L4,7 L14,8 L18,9 L15,9 L15,11 L19,11 L19,15 L23,15 L23,13 L21,12 L24,10 L28,11 L30,12 L29,25 L33,25 L33,29 L37,29 L37,33 L39,33 L40,30 L43,37 L41,37 L41,39 L44,40 L42,44 L40,38 L38,38 L38,34 L36,34 L36,30 L32,30 L32,26 L28,26 L27,17 L26,14 L24,14 L24,16 L18,16 L18,12 L14,12 L14,10 L10,10 L10,12 L4,12 L4,14 L-8,14 L-8,8 L-4,8 L-4,6 L-2,6 L-2,4 L0,4 Z " fill="#101939" transform="translate(446,668)"/>
<path d="M0,0 L1,0 L1,8 L3,8 L4,4 L6,17 L8,18 L10,25 L9,32 L10,35 L14,37 L15,43 L18,44 L14,44 L14,40 L10,40 L10,38 L6,38 L6,32 L2,32 L2,22 L0,22 L0,18 L-2,18 L-3,9 L0,9 Z " fill="#131D42" transform="translate(580,770)"/>
<path d="M0,0 L8,0 L8,8 L4,8 L4,16 L0,16 L0,18 L-4,18 L-4,20 L-12,20 L-12,8 L2,8 L2,6 L0,6 Z " fill="#171C41" transform="translate(274,502)"/>
<path d="M0,0 L10,0 L10,1 L1,1 L1,9 L3,9 L3,19 L5,19 L6,17 L6,20 L8,20 L10,25 L12,26 L12,31 L15,32 L19,31 L20,29 L29,28 L28,25 L30,24 L25,23 L27,22 L28,19 L32,18 L31,23 L40,23 L40,24 L32,24 L32,26 L34,26 L34,31 L37,31 L37,34 L33,35 L33,32 L20,32 L20,36 L10,36 L10,34 L8,34 L7,26 L4,24 L4,20 L2,20 L2,10 L0,10 Z M7,23 Z " fill="#101D3C" transform="translate(38,942)"/>
<path d="M0,0 L3,0 L3,9 L11,9 L11,21 L3,21 L3,19 L-7,19 L-7,11 L-5,11 L-5,9 L-2,9 L-2,4 L2,4 L2,2 L0,2 Z " fill="#121B3C" transform="translate(749,503)"/>
<path d="M0,0 L6,0 L6,1 L1,1 L1,7 L13,6 L17,8 L18,5 L22,6 L20,9 L18,9 L18,11 L20,12 L19,17 L16,18 L21,20 L22,24 L20,25 L20,23 L15,22 L13,18 L11,18 L11,31 L16,33 L17,36 L23,37 L23,32 L24,32 L24,38 L14,38 L14,36 L12,36 L12,32 L10,32 L10,18 L8,18 L8,10 L10,10 L10,8 L0,8 Z M13,26 L14,26 L14,31 L13,31 Z " fill="#111A3B" transform="translate(310,638)"/>
<path d="M0,0 L8,0 L8,8 L16,8 L16,30 L12,30 L13,35 L9,34 L11,34 L10,28 L11,25 L7,24 L6,20 L6,9 L7,1 L1,1 L0,4 Z " fill="#121C3E" transform="translate(682,774)"/>
<path d="M0,0 L6,0 L6,2 L12,2 L12,3 L6,3 L7,5 L7,11 L12,13 L13,20 L24,21 L24,23 L26,25 L25,27 L32,27 L32,28 L24,28 L24,26 L20,26 L20,24 L10,24 L10,22 L8,22 L8,18 L6,18 L6,14 L2,14 L2,10 L-2,10 L-2,2 L0,2 Z " fill="#121C3C" transform="translate(640,124)"/>
<path d="M0,0 L1,2 L13,2 L21,7 L21,9 L25,10 L24,15 L20,19 L19,26 L15,29 L15,27 L3,27 L3,26 L15,26 L15,14 L21,14 L21,10 L16,9 L15,6 L-1,6 L-1,2 L-27,2 L-27,1 Z " fill="#131C3E" transform="translate(671,808)"/>
<path d="M0,0 L4,0 L4,8 L10,8 L10,4 L16,4 L16,12 L14,12 L14,16 L-2,16 L-2,8 L-4,8 L-4,4 L0,4 Z " fill="#03040A" transform="translate(494,578)"/>
<path d="M0,0 L6,0 L6,2 L10,2 L10,4 L14,4 L14,16 L6,16 L6,22 L0,22 L0,16 L4,16 L2,9 L0,8 Z " fill="#111A3B" transform="translate(668,626)"/>
<path d="M0,0 L8,0 L8,2 L16,2 L16,16 L10,16 L8,12 L0,12 Z " fill="#0F1838" transform="translate(602,854)"/>
<path d="M0,0 L4,1 L1,1 L2,6 L-1,8 L-30,8 L-39,9 L-39,12 L-39,15 L-37,15 L-37,17 L-46,18 L-46,12 L-42,13 L-42,8 L-44,7 L-32,6 L-44,5 L-44,4 L0,4 Z " fill="#131940" transform="translate(462,474)"/>
<path d="M0,0 L8,0 L8,6 L14,6 L14,8 L16,8 L16,16 L14,16 L14,20 L8,20 L8,18 L4,18 L4,10 L8,10 L8,8 L0,8 Z " fill="#12193F" transform="translate(218,8)"/>
<path d="M0,0 L6,0 L6,20 L10,20 L10,16 L14,16 L14,4 L15,4 L15,16 L17,16 L18,13 L19,18 L18,21 L16,21 L14,18 L11,17 L11,19 L14,20 L13,22 L1,21 L0,7 L-1,23 L6,23 L6,24 L-2,24 L-2,2 L0,2 Z " fill="#101637" transform="translate(416,362)"/>
<path d="M0,0 L8,0 L7,2 L1,1 L1,3 L3,4 L0,4 L-2,8 L-4,9 L-6,6 L-9,9 L-9,7 L-11,7 L-10,13 L-11,16 L-7,17 L-10,22 L-10,30 L-13,29 L-13,40 L-14,40 L-14,28 L-12,28 L-12,26 L-18,26 L-18,16 L-14,16 L-14,10 L-12,10 L-12,6 L-10,6 L-10,2 L0,2 Z M-12,16 L-11,18 Z " fill="#131B3C" transform="translate(964,78)"/>
<path d="M0,0 L2,2 L7,3 L25,3 L25,5 L28,6 L27,8 L30,7 L29,16 L31,16 L31,13 L33,13 L33,15 L35,15 L35,17 L37,17 L37,15 L39,15 L39,7 L42,7 L42,16 L39,16 L40,24 L36,21 L36,19 L32,19 L32,17 L28,17 L28,9 L26,9 L26,7 L0,7 L-1,2 Z " fill="#101A3D" transform="translate(538,763)"/>
<path d="M0,0 L6,0 L6,12 L10,12 L10,18 L6,18 L6,24 L8,24 L8,40 L7,40 L7,25 L5,25 L5,35 L4,35 L4,24 L5,18 L3,18 L3,24 L2,24 L1,18 L1,5 L-1,5 L-1,18 L-2,18 L-2,4 L0,4 Z " fill="#1A2042" transform="translate(908,552)"/>
<path d="M0,0 L33,0 L34,1 L34,7 L32,7 L32,2 L24,4 L23,6 L0,6 Z " fill="#1B2649" transform="translate(615,351)"/>
<path d="M0,0 L4,0 L4,2 L12,2 L16,6 L16,10 L19,11 L15,11 L15,7 L-1,7 L-1,17 L-13,17 L-13,11 L-21,11 L-21,10 L-12,10 L-9,12 L-9,14 L-5,13 L-5,7 L0,6 L-1,1 Z " fill="#11193C" transform="translate(355,659)"/>
<path d="M0,0 L8,0 L8,1 L1,1 L2,8 L-1,7 L0,10 L-2,14 L-9,13 L-9,19 L-7,19 L-6,15 L-6,29 L-7,29 L-7,23 L-9,23 L-9,31 L-4,30 L-4,34 L-6,34 L-6,32 L-10,32 L-10,22 L-8,22 L-8,20 L-10,20 L-10,14 L-16,14 L-16,4 L-8,4 L-8,12 L-6,12 L-6,8 L-2,8 L-2,6 L0,6 Z " fill="#141A3D" transform="translate(336,402)"/>
<path d="M0,0 L2,1 L1,3 L-1,3 L0,7 L-4,11 L-9,14 L-33,14 L-35,11 L-35,7 L-39,7 L-39,9 L-36,10 L-39,13 L-40,12 L-42,14 L-42,8 L-40,8 L-40,6 L-34,6 L-34,10 L-8,10 L-8,8 L-6,8 L-6,6 L-2,6 L-2,2 L0,2 Z " fill="#131D42" transform="translate(356,548)"/>
<path d="M0,0 L6,0 L6,2 L8,2 L8,14 L0,14 L0,10 L-2,10 L-2,12 L-8,12 L-8,4 L0,4 Z " fill="#111A39" transform="translate(670,372)"/>
<path d="M0,0 L16,0 L16,8 L-6,8 L-6,2 L0,2 Z " fill="#121B3D" transform="translate(18,910)"/>
<path d="M0,0 L2,4 L2,19 L1,27 L1,51 L-1,57 L-3,57 L-4,50 L-2,45 L-1,38 L-3,38 L-3,26 L-2,25 L-3,15 L-4,10 L-2,4 L0,4 Z M-3,20 Z " fill="#1B2652" transform="translate(588,486)"/>
<path d="M0,0 L1,0 L1,16 L5,18 L11,24 L11,30 L9,26 L7,29 L5,24 L1,19 L2,17 L-3,17 L-4,19 L-5,18 L-6,28 L-9,28 L-9,22 L-14,21 L-16,20 L-15,15 L-2,14 L-2,16 L0,16 Z " fill="#111B38" transform="translate(597,354)"/>
<path d="M0,0 L16,0 L16,32 L20,32 L20,48 L19,48 L19,33 L17,33 L16,37 L14,33 L12,32 L12,8 L13,4 L6,4 L6,3 L15,3 L15,1 L0,2 Z " fill="#121C3C" transform="translate(578,286)"/>
<path d="M0,0 L16,0 L16,2 L22,2 L22,3 L10,4 L10,6 L8,6 L8,8 L4,8 L4,12 L2,12 L2,14 L-4,14 L-4,8 L-2,8 L-2,4 L0,4 Z " fill="#111A3C" transform="translate(284,0)"/>
<path d="M0,0 L10,0 L10,4 L12,4 L12,12 L10,12 L10,14 L8,14 L8,16 L2,16 L2,8 L0,8 Z " fill="#121B3C" transform="translate(0,462)"/>
<path d="M0,0 L8,0 L8,2 L12,2 L12,12 L0,12 L0,10 L-2,10 L-2,2 L0,2 Z " fill="#1E2440" transform="translate(798,310)"/>
<path d="M0,0 L12,0 L12,2 L18,2 L18,4 L20,4 L20,12 L14,12 L12,8 L0,8 L0,7 L12,7 L12,5 L0,5 L0,3 L-4,2 L0,2 Z " fill="#111B3D" transform="translate(626,936)"/>
<path d="M0,0 L4,0 L4,4 L8,4 L8,8 L10,8 L8,18 L10,18 L10,24 L8,24 L8,20 L4,20 L4,16 L0,16 Z " fill="#020307" transform="translate(650,466)"/>
<path d="M0,0 L1,0 L1,8 L5,8 L5,16 L3,16 L3,18 L-9,18 L-9,2 L-7,3 L-6,10 L-1,8 Z " fill="#141E3E" transform="translate(57,720)"/>
<path d="M0,0 L8,0 L8,2 L12,2 L12,10 L8,10 L8,14 L0,14 Z " fill="#12183D" transform="translate(202,0)"/>
<path d="M0,0 L1,0 L2,8 L4,8 L3,12 L1,15 L1,13 L-1,13 L-1,25 L6,26 L7,31 L9,31 L10,28 L10,32 L6,32 L6,34 L4,34 L4,40 L-2,40 L-2,32 L0,32 L0,26 L-2,26 L-2,12 L0,12 Z " fill="#13173D" transform="translate(414,418)"/>
<path d="M0,0 L4,1 L1,1 L1,13 L-3,13 L-3,27 L-1,27 L-1,45 L8,45 L9,48 L7,50 L5,49 L5,51 L7,51 L8,55 L7,57 L9,57 L10,55 L9,62 L6,58 L6,56 L4,56 L4,60 L-2,60 L-2,54 L4,54 L4,48 L6,48 L6,46 L-2,46 L-2,28 L-4,28 L-4,12 L0,12 Z " fill="#111836" transform="translate(310,562)"/>
<path d="M0,0 L8,0 L8,2 L12,2 L12,14 L10,14 L10,16 L4,16 L4,6 L0,6 Z " fill="#1A1F43" transform="translate(858,540)"/>
<path d="M0,0 L10,0 L10,8 L6,8 L6,16 L0,16 L0,12 L-2,12 L-2,6 L0,6 Z " fill="#111A3C" transform="translate(242,0)"/>
<path d="M0,0 L1,0 L2,6 L41,7 L41,9 L-2,9 L-6,8 L-7,1 Z " fill="#000000" transform="translate(420,468)"/>
<path d="M0,0 L1,0 L1,16 L7,16 L7,18 L11,18 L11,24 L5,24 L5,26 L3,26 L3,32 L5,32 L5,46 L1,45 L4,45 L4,33 L2,33 L2,38 L1,38 L2,26 L0,26 L0,32 L-1,32 L-1,25 L4,25 L4,23 L2,23 L1,19 L6,19 L6,17 L-1,17 L-3,16 L-3,6 L-1,7 Z " fill="#121C3D" transform="translate(605,384)"/>
<path d="M0,0 L8,0 L8,1 L1,1 L1,3 L7,3 L6,5 L0,4 L-12,4 L-14,5 L-30,4 L-31,7 L-38,6 L-42,5 L-40,4 L-42,3 L-42,1 L-13,1 L0,2 Z " fill="#171C45" transform="translate(670,542)"/>
<path d="M0,0 L6,0 L6,6 L10,6 L10,8 L12,8 L12,16 L2,16 L2,8 L0,8 Z " fill="#161C3B" transform="translate(1006,378)"/>
<path d="M0,0 L1,3 L3,3 L4,1 L4,6 L6,7 L6,42 L2,42 L2,4 L0,4 Z " fill="#171B43" transform="translate(372,482)"/>
<path d="M0,0 L8,0 L8,1 L1,1 L2,4 L0,4 L0,8 L0,10 L6,11 L4,15 L4,30 L2,32 L2,30 L0,30 L0,12 L-4,12 L-4,10 L-6,10 L-6,4 L-4,4 L-4,2 L0,2 Z " fill="#111B3C" transform="translate(942,118)"/>
<path d="M0,0 L12,0 L12,6 L18,6 L18,4 L20,5 L19,7 L16,9 L11,9 L11,19 L9,19 L9,8 L0,8 Z " fill="#131F3E" transform="translate(830,926)"/>
<path d="M0,0 L6,0 L6,18 L-2,18 L-2,6 L0,6 Z " fill="#11183D" transform="translate(348,144)"/>
<path d="M0,0 L8,0 L8,6 L0,6 L0,8 L8,8 L8,14 L0,14 L0,16 L-4,15 L-3,12 L7,13 L7,9 L-1,10 L-4,8 L-13,8 L-14,4 L0,4 Z " fill="#111938" transform="translate(710,806)"/>
<path d="M0,0 L1,0 L1,7 L3,7 L3,1 L5,0 L5,6 L7,6 L7,0 L8,0 L8,6 L10,6 L8,20 L6,20 L6,26 L4,26 L4,20 L0,20 L0,18 L2,18 L2,8 L0,8 Z M4,6 Z " fill="#04050A" transform="translate(770,506)"/>
<path d="M0,0 L8,0 L8,16 L0,16 Z " fill="#121B3D" transform="translate(634,254)"/>
<path d="M0,0 L8,0 L8,8 L12,8 L12,16 L4,16 L4,8 L0,8 Z " fill="#111939" transform="translate(702,34)"/>
<path d="M0,0 L22,0 L22,2 L24,2 L24,0 L30,0 L30,2 L32,2 L32,8 L10,8 L10,7 L22,6 L18,5 L18,3 L21,3 L21,1 L1,1 L1,11 L3,11 L3,16 L2,12 L0,12 Z " fill="#111A38" transform="translate(86,206)"/>
<path d="M0,0 L16,0 L16,8 L14,8 L14,10 L8,10 L8,6 L0,6 Z " fill="#151F41" transform="translate(566,926)"/>
<path d="M0,0 L10,0 L10,2 L12,2 L12,10 L2,10 L2,8 L-2,8 L-2,2 L0,2 Z " fill="#1A2245" transform="translate(172,900)"/>
<path d="M0,0 L8,0 L8,4 L12,4 L12,8 L16,8 L16,14 L8,14 L8,12 L6,12 L6,6 L0,6 Z " fill="#131C3E" transform="translate(670,434)"/>
<path d="M0,0 L1,0 L1,6 L-3,6 L-3,8 L-7,8 L-7,12 L-17,12 L-17,8 L-39,8 L-38,4 L-38,7 L-16,6 L-15,5 L-5,3 L-2,2 L-2,5 L0,5 Z " fill="#111B3B" transform="translate(717,150)"/>
<path d="M0,0 L1,3 L3,3 L2,0 L8,2 L8,4 L14,4 L15,11 L22,12 L22,16 L26,16 L26,12 L24,11 L27,11 L27,17 L22,18 L29,19 L29,9 L24,9 L24,8 L30,8 L30,20 L20,20 L20,18 L18,18 L18,12 L14,12 L14,8 L6,8 L6,4 L0,4 Z M7,4 L7,7 L9,7 L8,4 Z " fill="#101837" transform="translate(676,846)"/>
<path d="M0,0 L12,0 L12,6 L8,6 L8,12 L0,12 Z " fill="#11193B" transform="translate(382,366)"/>
<path d="M0,0 L1,0 L1,7 L28,6 L36,5 L37,8 L39,8 L39,16 L38,23 L37,25 L36,22 L34,22 L34,16 L36,16 L36,8 L34,8 L34,10 L28,10 L28,8 L0,8 Z " fill="#0F1736" transform="translate(598,814)"/>
<path d="M0,0 L8,0 L9,2 L9,9 L7,9 L7,3 L5,7 L5,19 L0,19 Z " fill="#191C43" transform="translate(474,110)"/>
<path d="M0,0 L3,1 L6,7 L8,8 L8,10 L14,10 L14,11 L8,11 L8,15 L2,15 L2,7 L-2,7 L-2,11 L-6,11 L-6,15 L-4,15 L-4,23 L-5,23 L-5,16 L-7,16 L-8,18 L-7,9 L-6,7 L-4,7 L-3,3 L-3,6 L2,5 L-1,2 Z " fill="#13173D" transform="translate(496,571)"/>
<path d="M0,0 L6,0 L6,32 L-2,32 L-2,22 L-6,21 L-2,21 L-2,19 L-6,18 L-4,18 L-4,16 L1,14 L3,13 L3,29 L1,29 L1,22 L-1,22 L-1,31 L5,31 L5,1 L0,1 Z " fill="#131B3E" transform="translate(256,448)"/>
<path d="M0,0 L8,0 L8,1 L1,1 L1,3 L7,3 L7,7 L5,7 L5,18 L1,17 L-1,16 L-2,11 L-1,6 L-6,6 L-6,5 L0,5 L0,3 L-6,3 L-6,2 L0,2 Z " fill="#101938" transform="translate(996,78)"/>
<path d="M0,0 L6,0 L6,2 L8,2 L8,8 L4,8 L4,10 L12,10 L13,13 L12,14 L4,14 L4,13 L11,13 L11,11 L3,11 L0,6 L-27,5 L-27,10 L-28,10 L-28,4 L0,4 Z " fill="#0F1A38" transform="translate(850,886)"/>
<path d="M0,0 L8,0 L8,2 L2,2 L2,8 L0,8 L0,24 L-2,20 L-2,8 L-10,8 L-10,4 L-8,4 L-8,2 L0,2 Z " fill="#04050B" transform="translate(762,504)"/>
<path d="M0,0 L4,1 L1,1 L2,5 L1,7 L-4,8 L-6,7 L-6,11 L-16,10 L-19,6 L-19,3 L0,4 Z " fill="#151E47" transform="translate(466,666)"/>
<path d="M0,0 L1,0 L2,5 L4,1 L11,3 L12,0 L12,4 L8,4 L8,14 L0,14 L0,12 L-2,12 L-2,6 L0,6 Z " fill="#12193B" transform="translate(442,650)"/>
<path d="M0,0 L12,0 L12,12 L4,12 L4,16 L0,15 L3,15 L3,13 L0,13 L0,10 L-2,10 L-1,6 L2,3 L9,2 L9,9 L4,9 L4,11 L11,11 L11,1 L0,1 Z " fill="#121D3F" transform="translate(694,566)"/>
<path d="M0,0 L22,0 L22,2 L30,2 L30,14 L29,14 L29,3 L22,3 L23,6 L19,10 L19,6 L17,6 L17,10 L11,10 L11,6 L9,5 L11,3 L11,5 L21,3 L21,1 L1,1 L1,5 L4,6 L0,6 Z " fill="#171D3B" transform="translate(534,220)"/>
<path d="M0,0 L6,0 L6,1 L1,1 L1,3 L5,4 L4,23 L16,23 L16,24 L4,24 L4,26 L2,26 L2,24 L0,24 Z " fill="#020307" transform="translate(474,130)"/>
<path d="M0,0 L4,0 L4,2 L8,2 L8,4 L12,4 L12,10 L16,10 L16,16 L20,16 L20,12 L32,12 L31,16 L31,13 L21,13 L21,15 L25,16 L23,21 L15,21 L13,16 L11,11 L11,5 L7,5 L7,3 L3,3 L3,1 Z " fill="#121A3B" transform="translate(642,818)"/>
<path d="M0,0 L2,0 L2,10 L8,10 L8,14 L-4,14 L-4,10 L-6,10 L-6,6 L-4,6 L-4,2 L0,2 Z " fill="#020307" transform="translate(562,332)"/>
<path d="M0,0 L4,0 L4,26 L2,26 L1,28 L0,25 L-1,27 L-8,28 L-8,18 L-3,19 L-3,23 L-1,23 L0,8 L1,8 L2,23 L3,1 Z " fill="#111B39" transform="translate(686,694)"/>
<path d="M0,0 L1,0 L2,10 L2,29 L1,31 L3,31 L4,28 L3,41 L6,42 L2,42 L2,32 L0,32 L0,28 L-2,28 L-2,10 L0,10 Z " fill="#020307" transform="translate(380,398)"/>
<path d="M0,0 L14,0 L14,2 L2,2 L2,36 L5,36 L5,38 L0,38 Z " fill="#162246" transform="translate(127,279)"/>
<path d="M0,0 L12,0 L12,10 L6,10 L6,8 L2,8 L2,6 L0,6 Z " fill="#121B3D" transform="translate(118,922)"/>
<path d="M0,0 L1,0 L0,15 L2,15 L2,6 L4,6 L6,9 L6,16 L7,19 L11,21 L12,27 L15,28 L11,28 L11,24 L7,24 L7,22 L3,22 L3,16 L-1,16 L-1,6 L-3,6 L-2,2 L-2,5 L0,5 L-1,1 Z " fill="#10183B" transform="translate(583,786)"/>
<path d="M0,0 L6,0 L6,6 L0,6 L0,10 L-2,10 L-2,14 L-8,14 L-8,6 L-6,6 L-6,4 L0,4 Z " fill="#131C3F" transform="translate(994,156)"/>
<path d="M0,0 L31,0 L31,1 L16,1 L16,7 L15,7 L15,1 L13,1 L13,7 L3,7 L3,1 L1,1 L1,7 L0,7 Z " fill="#020307" transform="translate(454,217)"/>
<path d="M0,0 L8,0 L8,10 L1,10 L1,8 L-8,8 L-8,6 L-2,6 L-1,1 Z " fill="#182246" transform="translate(751,513)"/>
<path d="M0,0 L6,0 L6,10 L4,7 L2,16 L1,16 L1,7 L-1,7 L0,18 L-3,17 L-2,20 L-5,22 L-7,26 L-7,19 L-9,19 L-9,26 L-10,26 L-10,18 L-4,18 L-4,16 L-2,16 L-2,6 L0,6 Z " fill="#181B42" transform="translate(456,108)"/>
<path d="M0,0 L6,0 L6,8 L8,8 L8,18 L6,18 L6,20 L4,20 L3,22 L3,20 L1,19 L3,17 L4,8 L5,6 L0,7 L-1,5 L0,3 L-8,3 L-8,2 L0,2 Z " fill="#141D41" transform="translate(100,934)"/>
<path d="M0,0 L1,0 L2,8 L3,13 L3,16 L2,18 L-5,19 L-8,19 L-11,17 L-11,15 L-2,15 L-2,13 L-18,13 L-18,12 L-2,12 L-2,8 L0,8 Z " fill="#141841" transform="translate(510,582)"/>
<path d="M0,0 L8,0 L8,8 L1,8 L1,12 L-1,12 L-1,7 L-3,7 L-3,11 L-5,11 L-5,5 L-2,5 L-2,2 L0,2 Z " fill="#1A2143" transform="translate(850,548)"/>
<path d="M0,0 L4,0 L4,7 L6,7 L6,16 L0,15 L0,23 L-2,23 L-2,6 L0,6 L1,11 L2,7 L2,5 L0,5 Z " fill="#1C254B" transform="translate(765,507)"/>
<path d="M0,0 L12,0 L12,8 L0,8 Z " fill="#101738" transform="translate(406,666)"/>
<path d="M0,0 L8,0 L8,12 L0,12 Z " fill="#161F43" transform="translate(250,566)"/>
<path d="M0,0 L14,0 L14,6 L6,6 L6,8 L0,8 Z " fill="#131B3D" transform="translate(222,320)"/>
<path d="M0,0 L8,0 L8,24 L6,24 L6,13 L4,13 L4,11 L6,11 L4,6 L2,6 L2,8 L0,8 Z " fill="#141E44" transform="translate(609,875)"/>
<path d="M0,0 L8,0 L8,6 L14,6 L15,8 L15,15 L13,15 L13,9 L0,8 Z " fill="#13193C" transform="translate(218,8)"/>
<path d="M0,0 L6,0 L6,2 L8,2 L8,12 L0,12 Z " fill="#121B3B" transform="translate(878,734)"/>
<path d="M0,0 L20,0 L20,18 L18,18 L18,2 L2,2 L2,12 L0,12 Z " fill="#19234C" transform="translate(275,575)"/>
<path d="M0,0 L1,2 L0,5 L9,5 L9,6 L1,6 L1,8 L3,8 L3,13 L6,13 L6,16 L2,17 L1,14 L-11,13 L-11,11 L-2,10 L-3,7 L-1,6 L-6,5 L-4,4 L-3,1 Z " fill="#152246" transform="translate(69,960)"/>
<path d="M0,0 L4,0 L4,4 L2,4 L0,8 L-4,7 L-4,19 L-5,19 L-5,13 L-7,13 L-7,20 L-8,20 L-8,12 L-6,12 L-6,10 L-8,10 L-8,2 L-2,2 L-2,4 L0,4 Z " fill="#12183A" transform="translate(366,528)"/>
<path d="M0,0 L1,0 L1,12 L-5,12 L-5,14 L-13,14 L-13,12 L-19,12 L-19,14 L-21,14 L-21,16 L-35,16 L-34,12 L-34,15 L-22,15 L-22,13 L-25,12 L-22,10 L-5,10 L0,11 Z " fill="#161C3E" transform="translate(321,50)"/>
<path d="M0,0 L8,0 L8,8 L6,8 L6,10 L-2,10 L-2,4 L0,4 Z " fill="#161E3C" transform="translate(764,654)"/>
<path d="M0,0 L6,0 L6,12 L-2,12 L-2,4 L0,4 Z " fill="#121A39" transform="translate(668,444)"/>
<path d="M0,0 L8,0 L8,2 L10,2 L10,8 L8,8 L8,10 L2,10 L2,8 L0,8 Z " fill="#171F3F" transform="translate(778,176)"/>
<path d="M0,0 L4,1 L1,1 L1,12 L3,12 L4,14 L15,15 L16,12 L16,16 L4,16 L4,20 L-2,20 L-2,18 L-4,18 L-4,12 L0,12 Z " fill="#131739" transform="translate(382,166)"/>
<path d="M0,0 L8,0 L8,10 L2,10 L2,8 L-2,8 L-2,2 L0,2 Z " fill="#111837" transform="translate(760,94)"/>
<path d="M0,0 L4,0 L4,6 L-1,7 L-7,7 L2,8 L2,10 L-12,10 L-12,3 L-9,4 L-1,3 Z " fill="#000000" transform="translate(505,583)"/>
<path d="M0,0 L6,0 L6,8 L10,8 L10,16 L9,16 L9,9 L4,11 L0,11 L0,9 L-6,9 L-6,8 L0,8 Z M-4,11 L0,12 L-4,12 Z " fill="#101937" transform="translate(676,678)"/>
<path d="M0,0 L24,0 L24,6 L20,6 L20,8 L24,8 L24,24 L23,24 L23,9 L18,9 L16,5 L6,4 L6,3 L21,2 L21,5 L23,5 L23,1 L0,1 Z " fill="#121639" transform="translate(386,446)"/>
<path d="M0,0 L2,0 L0,6 L-2,6 L-2,10 L-4,10 L-4,16 L-5,16 L-6,8 L-8,9 L-20,9 L-20,8 L-12,8 L-12,4 L-4,4 L-4,2 Z " fill="#020308" transform="translate(430,350)"/>
<path d="M0,0 L12,0 L12,6 L10,6 L10,8 L4,8 L4,6 L0,6 Z " fill="#12193C" transform="translate(854,190)"/>
<path d="M0,0 L1,0 L3,9 L2,11 L6,12 L0,12 L0,14 L7,14 L7,15 L-1,15 L-1,5 L-5,9 L-11,9 L-7,7 L-10,5 L-5,4 L-6,1 Z " fill="#141842" transform="translate(463,447)"/>
<path d="M0,0 L1,0 L1,5 L-1,5 L-1,7 L-5,7 L-5,11 L-3,11 L-3,21 L-6,21 L-6,24 L-12,24 L-11,22 L-7,20 L-6,12 L-8,12 L-8,7 L-5,4 L-2,4 L-2,2 L0,2 Z " fill="#131F3F" transform="translate(749,133)"/>
<path d="M0,0 L10,0 L11,3 L23,4 L22,7 L13,7 L9,5 L8,6 L2,6 L3,3 L0,2 Z " fill="#141E44" transform="translate(663,831)"/>
<path d="M0,0 L6,0 L6,4 L12,4 L12,12 L4,12 L4,8 L0,7 L4,7 L4,5 L2,5 L2,3 L5,3 L5,1 L0,1 Z " fill="#151A3E" transform="translate(922,666)"/>
<path d="M0,0 L6,1 L4,2 L4,12 L-4,12 L-4,4 L0,4 Z " fill="#141C41" transform="translate(670,608)"/>
<path d="M0,0 L1,3 L3,4 L-3,11 L-4,19 L-5,19 L-5,11 L-7,11 L-6,22 L-11,24 L-13,23 L-13,19 L-16,18 L-12,18 L-12,20 L-8,20 L-8,10 L-6,10 L-6,8 L-4,8 L-4,6 L-2,6 L-2,4 L0,4 Z " fill="#131B3E" transform="translate(634,442)"/>
<path d="M0,0 L8,0 L8,8 L4,8 L4,16 L0,16 L0,18 L-4,17 L-1,17 L-1,15 L-3,14 L3,15 L2,6 L0,6 Z " fill="#13193D" transform="translate(274,502)"/>
<path d="M0,0 L16,0 L16,2 L2,2 L2,26 L0,26 Z " fill="#1A234B" transform="translate(239,447)"/>
<path d="M0,0 L14,0 L14,4 L12,4 L12,6 L0,6 Z " fill="#161A40" transform="translate(220,0)"/>
<path d="M0,0 L3,0 L3,9 L0,9 L1,17 L-3,14 L-3,12 L-7,12 L-7,10 L-11,10 L-11,2 L-10,2 L-10,9 L-8,9 L-8,6 L-6,6 L-6,8 L-4,8 L-4,10 L-2,10 L-2,8 L0,8 Z " fill="#0D1636" transform="translate(577,770)"/>
<path d="M0,0 L6,0 L6,10 L5,10 L4,2 L3,8 L1,8 L2,13 L1,11 L-1,11 L0,23 L-1,19 L-3,19 L-3,24 L-4,24 L-4,18 L-2,18 L-2,2 L0,2 Z " fill="#191D3D" transform="translate(524,116)"/>
<path d="M0,0 L8,0 L8,1 L1,1 L2,5 L-1,10 L-2,13 L-8,13 L-9,10 L-11,9 L-4,9 L-4,7 L-8,6 L-5,5 L-5,3 L-10,3 L-10,2 L-4,2 L-4,4 L0,4 Z " fill="#111A3B" transform="translate(982,78)"/>
<path d="M0,0 L8,0 L7,2 L1,1 L1,3 L3,4 L0,4 L-2,8 L-4,9 L-6,6 L-9,9 L-9,7 L-11,7 L-10,13 L-11,11 L-13,11 L-13,16 L-14,16 L-14,10 L-12,10 L-12,6 L-10,6 L-10,2 L0,2 Z " fill="#0F1737" transform="translate(964,78)"/>
<path d="M0,0 L1,0 L1,8 L6,10 L7,15 L7,20 L1,19 L1,15 L-1,15 L-1,10 L-2,9 L-2,4 Z " fill="#132040" transform="translate(577,343)"/>
<path d="M0,0 L6,0 L6,2 L8,2 L8,10 L0,10 Z " fill="#111B3C" transform="translate(702,868)"/>
<path d="M0,0 L2,0 L2,27 L-4,27 L-4,18 L-2,18 L-2,25 L0,25 Z " fill="#17214B" transform="translate(259,452)"/>
<path d="M0,0 L19,0 L19,4 L21,4 L21,1 L24,1 L24,3 L29,2 L25,10 L23,10 L23,8 L21,8 L21,12 L28,12 L28,13 L20,13 L20,7 L22,7 L22,5 L18,5 L18,1 L0,1 Z " fill="#12163C" transform="translate(424,445)"/>
<path d="M0,0 L1,0 L1,5 L3,5 L3,0 L6,2 L5,11 L7,11 L8,8 L8,10 L12,11 L12,13 L9,13 L9,15 L16,13 L16,17 L13,17 L13,19 L16,20 L12,20 L12,16 L8,16 L8,12 L4,12 L2,7 L0,6 Z " fill="#181B40" transform="translate(338,442)"/>
<path d="M0,0 L1,0 L1,9 L3,9 L4,7 L4,16 L-1,18 L0,16 L-5,15 L-5,17 L-3,17 L-6,26 L-7,26 L-7,19 L-9,19 L-9,26 L-10,26 L-10,18 L-8,18 L-8,16 L-6,16 L-6,14 L2,14 L2,10 L0,10 Z " fill="#191B41" transform="translate(444,134)"/>
<path d="M0,0 L2,0 L0,10 L2,10 L2,16 L-4,20 L-7,17 L-3,12 L-4,10 L-2,10 L-2,2 Z " fill="#000001" transform="translate(756,124)"/>
<path d="M0,0 L6,0 L6,4 L8,4 L8,8 L10,8 L10,10 L18,10 L18,11 L11,12 L14,14 L12,14 L11,23 L20,23 L20,24 L10,24 L10,16 L6,15 L9,15 L9,13 L7,12 L9,9 L6,8 L7,5 L3,6 L1,3 L5,3 L5,1 L0,1 Z " fill="#101836" transform="translate(604,926)"/>
<path d="M0,0 L10,0 L10,6 L8,6 L8,8 L2,8 L2,6 L0,6 Z " fill="#151D3A" transform="translate(150,916)"/>
<path d="M0,0 L3,1 L2,4 L27,5 L27,7 L0,7 Z " fill="#131D44" transform="translate(599,814)"/>
<path d="M0,0 L1,0 L1,8 L-3,8 L-3,10 L-7,10 L-7,12 L-13,12 L-13,3 L-8,2 L-10,3 L-10,7 L-3,6 L0,7 Z " fill="#0F1738" transform="translate(13,542)"/>
<path d="M0,0 L6,0 L6,1 L1,1 L1,5 L8,6 L9,4 L9,7 L11,7 L12,4 L12,8 L10,8 L10,18 L4,18 L4,17 L9,17 L9,8 L7,8 L6,10 L0,9 L-2,6 L-2,3 L0,3 Z " fill="#0F1734" transform="translate(716,526)"/>
<path d="M0,0 L6,0 L6,12 L0,12 Z " fill="#182042" transform="translate(232,350)"/>
<path d="M0,0 L1,0 L2,6 L2,20 L1,30 L0,30 L0,20 L-2,20 L-2,6 L0,6 Z " fill="#020307" transform="translate(502,170)"/>
<path d="M0,0 L12,0 L12,6 L10,6 L9,8 L9,6 L5,7 L-2,3 L0,2 Z " fill="#17193E" transform="translate(478,154)"/>
<path d="M0,0 L5,1 L3,5 L-4,12 L-5,9 L-7,9 L-6,15 L-7,13 L-9,13 L-10,16 L-10,12 L-8,12 L-8,8 L-6,8 L-6,6 L-4,6 L-2,2 L0,2 Z " fill="#182042" transform="translate(300,4)"/>
<path d="M0,0 L6,0 L6,12 L5,12 L5,4 L3,4 L3,12 L2,18 L1,18 L1,5 L-1,5 L-1,18 L-2,18 L-2,4 L0,4 Z " fill="#181D3F" transform="translate(908,552)"/>
<path d="M0,0 L6,0 L6,2 L22,2 L22,0 L28,0 L27,4 L27,1 L25,1 L25,4 L6,4 L3,5 L1,9 L1,5 L-1,5 L-2,8 L-2,4 L0,4 Z " fill="#171C40" transform="translate(346,394)"/>
<path d="M0,0 L6,0 L6,1 L1,1 L2,19 L2,31 L1,31 L1,25 L-1,25 L0,32 L-2,32 L-2,24 L0,24 L0,20 L-2,20 L-2,12 L0,12 Z " fill="#161B3D" transform="translate(524,232)"/>
<path d="M0,0 L6,0 L6,6 L8,6 L8,8 L14,8 L14,9 L2,10 L2,8 L0,8 Z " fill="#020409" transform="translate(876,910)"/>
<path d="M0,0 L4,1 L1,1 L1,3 L-1,3 L0,8 L-4,12 L-5,18 L-6,18 L-6,12 L-8,12 L-8,4 L-2,4 L-2,2 L0,2 Z " fill="#181B42" transform="translate(422,182)"/>
<path d="M0,0 L5,0 L5,19 L4,19 L4,2 L1,2 L1,22 L-1,22 L-1,1 Z " fill="#141E45" transform="translate(1004,3)"/>
<path d="M0,0 L10,0 L10,1 L1,1 L1,9 L3,9 L3,19 L5,19 L6,17 L6,20 L8,20 L10,25 L9,34 L8,34 L7,26 L4,24 L4,20 L2,20 L2,10 L0,10 Z M7,23 Z " fill="#0E1936" transform="translate(38,942)"/>
<path d="M0,0 L14,0 L14,1 L6,3 L2,4 L1,11 L7,11 L8,8 L8,12 L0,12 L0,8 L-2,8 L-2,2 L0,2 Z " fill="#0F1839" transform="translate(410,346)"/>
<path d="M0,0 L4,0 L4,20 L2,20 L2,13 L0,13 Z " fill="#1A254B" transform="translate(113,291)"/>
<path d="M0,0 L15,0 L15,2 L21,2 L21,3 L6,3 L6,7 L2,6 L0,4 Z " fill="#131D40" transform="translate(285,0)"/>
<path d="M0,0 L6,0 L6,20 L2,19 L5,19 L5,17 L2,17 L2,7 L3,3 L5,3 L5,1 L0,1 Z " fill="#121C3D" transform="translate(104,956)"/>
<path d="M0,0 L8,0 L8,22 L4,22 L5,27 L1,26 L3,26 L2,20 L3,17 L0,17 L0,12 L3,12 L5,21 L7,21 L7,1 L0,1 Z " fill="#101836" transform="translate(690,782)"/>
<path d="M0,0 L1,4 L-1,4 L-1,12 L7,12 L7,13 L-2,13 L-2,25 L1,26 L-3,26 L-3,14 L-5,14 L-5,10 L-3,10 L-3,4 L-11,4 L-11,3 L0,3 Z " fill="#03050C" transform="translate(667,444)"/>
<path d="M0,0 L20,0 L20,2 L16,4 L10,4 L10,2 L7,2 L6,4 L0,4 Z " fill="#1E254B" transform="translate(535,221)"/>
<path d="M0,0 L9,0 L9,3 L4,4 L3,9 L5,9 L4,18 L2,18 L2,8 L0,8 Z " fill="#132044" transform="translate(39,943)"/>
<path d="M0,0 L8,0 L8,8 L0,8 Z " fill="#161E41" transform="translate(238,586)"/>
<path d="M0,0 L8,0 L8,8 L0,8 Z " fill="#121B3C" transform="translate(286,526)"/>
<path d="M0,0 L8,0 L8,8 L0,8 Z " fill="#131A3D" transform="translate(202,510)"/>
<path d="M0,0 L8,0 L8,8 L0,8 Z " fill="#12193C" transform="translate(254,410)"/>
<path d="M0,0 L8,0 L8,8 L0,8 Z " fill="#13193C" transform="translate(330,390)"/>
<path d="M0,0 L8,0 L8,8 L0,8 Z " fill="#11193A" transform="translate(382,382)"/>
<path d="M0,0 L1,0 L1,11 L3,11 L3,0 L4,0 L4,12 L2,12 L2,20 L4,20 L4,24 L2,24 L2,32 L4,32 L4,34 L0,32 Z " fill="#03040A" transform="translate(520,232)"/>
<path d="M0,0 L8,0 L8,8 L0,8 Z " fill="#11183A" transform="translate(282,222)"/>
<path d="M0,0 L8,0 L8,8 L0,8 Z " fill="#181E42" transform="translate(230,202)"/>
<path d="M0,0 L8,0 L8,8 L0,8 Z " fill="#121A3D" transform="translate(346,166)"/>
<path d="M0,0 L8,0 L8,8 L0,8 Z " fill="#1A1E42" transform="translate(486,126)"/>
<path d="M0,0 L8,0 L8,8 L0,8 Z " fill="#11193C" transform="translate(286,122)"/>
<path d="M0,0 L8,0 L8,8 L0,8 Z " fill="#10173B" transform="translate(238,18)"/>
<path d="M0,0 L1,3 L3,3 L4,13 L4,21 L3,23 L-2,23 L-1,17 L-4,16 L0,16 L0,20 L2,20 L2,14 L0,14 L0,8 L2,4 L0,4 Z " fill="#0F1838" transform="translate(658,470)"/>
<path d="M0,0 L1,2 L0,21 L3,20 L5,13 L7,13 L7,24 L3,24 L3,22 L-1,22 L-1,2 L-3,1 Z " fill="#02040A" transform="translate(619,438)"/>
<path d="M0,0 L2,0 L2,6 L-3,8 L-4,14 L-8,14 L-8,4 L0,4 Z " fill="#04070E" transform="translate(574,292)"/>
<path d="M0,0 L6,0 L6,8 L4,8 L4,10 L1,10 L1,5 L-12,5 L-12,4 L0,4 Z " fill="#111A3A" transform="translate(1014,166)"/>
<path d="M0,0 L3,0 L4,7 L9,8 L9,10 L1,9 L1,12 L4,12 L4,14 L-1,13 L-1,8 L-3,8 L-3,2 Z M0,2 L-1,3 L-1,8 L1,8 L1,2 Z " fill="#151E46" transform="translate(1010,23)"/>
<path d="M0,0 L3,1 L3,10 L7,10 L7,14 L11,14 L11,18 L13,18 L14,15 L17,22 L15,22 L15,24 L18,25 L16,29 L14,23 L12,23 L12,19 L10,19 L10,15 L6,15 L6,11 L2,11 L1,2 Z " fill="#0E1632" transform="translate(472,683)"/>
<path d="M0,0 L13,0 L14,3 L-4,4 L-5,7 L-7,7 L-8,2 Z " fill="#151B47" transform="translate(428,442)"/>
<path d="M0,0 L1,0 L1,7 L-1,7 L-1,3 L-11,3 L-11,9 L-7,9 L-7,11 L-13,11 L-13,1 Z " fill="#1B214C" transform="translate(276,510)"/>
<path d="M0,0 L4,0 L4,4 L8,4 L8,10 L0,10 L0,8 L-2,8 L-2,2 L-1,2 L-1,7 L1,7 L1,3 L3,3 L3,1 Z " fill="#111A3A" transform="translate(678,438)"/>
<path d="M0,0 L9,0 L9,12 L7,12 L7,6 L2,5 L0,4 Z " fill="#060A13" transform="translate(581,370)"/>
<path d="M0,0 L1,0 L1,8 L-1,8 L-1,10 L-3,10 L-3,12 L-5,12 L-5,14 L-7,14 L-7,16 L-9,16 L-9,18 L-13,17 L-11,16 L-10,12 L-5,7 L-3,6 L0,7 Z " fill="#151D41" transform="translate(991,132)"/>
<path d="M0,0 L8,0 L8,6 L10,6 L10,8 L12,8 L12,10 L6,10 L6,6 L2,6 L2,2 L0,2 Z " fill="#04070D" transform="translate(70,966)"/>
<path d="M0,0 L5,0 L5,10 L7,10 L7,12 L11,12 L11,14 L15,14 L15,22 L11,22 L10,24 L9,20 L14,21 L14,15 L8,16 L10,15 L10,13 L5,14 L6,11 L4,11 L3,13 L4,3 L0,3 Z " fill="#0D1836" transform="translate(871,908)"/>
<path d="M0,0 L6,0 L6,8 L-2,8 L-2,2 L0,2 Z " fill="#111A3B" transform="translate(768,862)"/>
<path d="M0,0 L2,0 L2,6 L6,6 L6,14 L0,14 Z " fill="#04070E" transform="translate(674,740)"/>
<path d="M0,0 L1,0 L1,8 L-7,8 L-7,14 L-11,14 L-11,16 L-19,16 L-19,14 L-23,13 L-14,12 L-12,11 L-12,13 L-8,13 L-8,7 L0,7 Z " fill="#101637" transform="translate(397,658)"/>
<path d="M0,0 L1,3 L3,3 L4,0 L4,4 L-1,4 L-1,11 L-7,11 L-8,7 L-5,2 L-1,2 Z " fill="#141A43" transform="translate(398,654)"/>
<path d="M0,0 L6,0 L6,10 L0,10 Z " fill="#111A3A" transform="translate(700,640)"/>
<path d="M0,0 L8,0 L8,6 L6,6 L6,8 L0,8 Z " fill="#172042" transform="translate(274,564)"/>
<path d="M0,0 L2,0 L2,9 L-3,9 L-3,7 L-9,7 L-9,5 L-3,4 L-7,3 L-7,1 L-1,1 Z " fill="#141E44" transform="translate(723,534)"/>
<path d="M0,0 L6,0 L6,8 L-2,8 L-2,2 L0,2 Z " fill="#111938" transform="translate(64,498)"/>
<path d="M0,0 L6,0 L6,10 L0,10 Z " fill="#121A3C" transform="translate(252,376)"/>
<path d="M0,0 L8,0 L8,8 L2,8 L2,6 L0,6 Z " fill="#171F42" transform="translate(1010,350)"/>
<path d="M0,0 L6,0 L6,2 L8,2 L8,8 L0,8 Z " fill="#181F42" transform="translate(1010,330)"/>
<path d="M0,0 L6,0 L6,10 L0,10 Z " fill="#101B3B" transform="translate(606,288)"/>
<path d="M0,0 L10,0 L10,5 L9,6 L0,6 Z " fill="#18264A" transform="translate(831,927)"/>
<path d="M0,0 L7,0 L7,20 L5,20 L3,15 L4,10 L5,1 L0,1 Z " fill="#141E44" transform="translate(690,783)"/>
<path d="M0,0 L2,0 L2,15 L4,15 L4,24 L1,24 L0,15 Z " fill="#1A254A" transform="translate(687,723)"/>
<path d="M0,0 L2,0 L2,7 L-17,7 L-17,5 L-13,4 L0,4 Z " fill="#141C44" transform="translate(663,522)"/>
<path d="M0,0 L9,0 L11,1 L9,6 L7,12 L16,12 L16,13 L6,13 L6,9 L4,9 L4,3 L8,3 L8,1 L0,1 Z " fill="#0E1837" transform="translate(518,745)"/>
<path d="M0,0 L1,0 L1,6 L-1,6 L-1,26 L-3,26 L-3,10 L-7,10 L-7,8 L-3,8 L-3,2 Z " fill="#03040B" transform="translate(413,444)"/>
<path d="M0,0 L6,0 L6,1 L1,1 L1,3 L8,3 L4,4 L4,10 L-4,10 L-4,12 L-6,12 L-6,8 L0,8 Z " fill="#03050B" transform="translate(188,348)"/>
<path d="M0,0 L6,0 L6,2 L8,2 L8,8 L2,8 L2,6 L0,6 Z " fill="#121B3C" transform="translate(690,46)"/>
<path d="M0,0 L6,0 L6,1 L1,1 L2,14 L0,15 L0,13 L-12,13 L-12,12 L0,12 Z M2,3 L6,4 L5,5 L4,12 L2,13 Z " fill="#111A39" transform="translate(686,822)"/>
<path d="M0,0 L6,0 L6,4 L32,4 L32,5 L5,5 L5,1 L1,1 L1,3 L4,4 L1,7 L0,6 L-2,8 L-2,2 L0,2 Z " fill="#0F1631" transform="translate(316,554)"/>
<path d="M0,0 L6,0 L6,8 L5,8 L5,1 L1,1 L1,6 L3,6 L4,11 L2,14 L1,7 L-1,7 L-1,24 L-2,24 L-2,6 L0,6 Z " fill="#151C3A" transform="translate(764,506)"/>
<path d="M0,0 L11,1 L11,3 L13,5 L12,7 L19,7 L19,8 L11,8 L11,6 L7,6 L7,4 L-3,4 L0,3 Z " fill="#0D1937" transform="translate(653,144)"/>
<path d="M0,0 L1,0 L3,17 L-1,17 L-1,19 L4,19 L4,20 L-2,20 L-2,8 L0,8 Z " fill="#020308" transform="translate(678,484)"/>
<path d="M0,0 L2,0 L2,12 L-4,12 L-4,8 L-2,8 L-2,2 Z " fill="#04070F" transform="translate(724,130)"/>
<path d="M0,0 L6,0 L6,14 L4,14 L3,7 L0,6 Z " fill="#141F45" transform="translate(703,35)"/>
<path d="M0,0 L1,0 L1,7 L3,7 L3,0 L4,0 L4,21 L1,21 L1,23 L4,24 L0,24 L0,16 L2,16 L2,8 L0,8 Z " fill="#030409" transform="translate(666,658)"/>
<path d="M0,0 L4,0 L4,12 L3,12 L3,4 L1,4 L1,12 L-1,8 L-1,6 L-3,6 L-4,8 L-4,2 L0,2 Z " fill="#020307" transform="translate(722,148)"/>
<path d="M0,0 L4,0 L4,8 L6,8 L6,16 L4,16 L4,24 L3,24 L2,8 L3,1 Z " fill="#141D3E" transform="translate(662,658)"/>
<path d="M0,0 L1,0 L1,12 L-7,12 L-7,5 L-4,4 L-4,1 L-2,1 L-2,9 L-6,9 L-6,11 L0,11 Z " fill="#111B3A" transform="translate(677,374)"/>
<path d="M0,0 L16,0 L15,3 L4,4 L0,5 Z " fill="#141B45" transform="translate(455,307)"/>
<path d="M0,0 L1,0 L1,18 L0,18 L-1,28 L-3,28 L-2,11 L-1,10 Z " fill="#152246" transform="translate(814,929)"/>
<path d="M0,0 L4,1 L1,1 L2,12 L2,26 L0,26 L-2,23 L-2,20 L0,20 Z " fill="#04060D" transform="translate(110,278)"/>
<path d="M0,0 L1,3 L-2,6 L-8,11 L-11,11 L-9,5 L-5,3 L-5,1 Z " fill="#1B2951" transform="translate(521,343)"/>
<path d="M0,0 L2,0 L2,5 L5,6 L3,6 L1,12 L-4,12 L-4,6 L-1,5 Z M1,5 L2,7 Z " fill="#131D42" transform="translate(951,89)"/>
<path d="M0,0 L6,0 L6,8 L0,8 Z " fill="#0F1631" transform="translate(430,1014)"/>
<path d="M0,0 L8,0 L8,6 L0,6 Z " fill="#121B3B" transform="translate(878,762)"/>
<path d="M0,0 L6,0 L6,8 L0,8 Z " fill="#101633" transform="translate(762,542)"/>
<path d="M0,0 L8,0 L8,6 L0,6 Z " fill="#131936" transform="translate(742,526)"/>
<path d="M0,0 L10,0 L10,4 L12,4 L12,12 L10,12 L9,14 L9,12 L7,11 L9,1 L0,1 Z " fill="#0F1A39" transform="translate(0,462)"/>
<path d="M0,0 L8,0 L8,6 L0,6 Z " fill="#121B3D" transform="translate(234,392)"/>
<path d="M0,0 L2,0 L2,7 L0,7 L0,14 L2,14 L2,16 L-2,16 L-2,1 Z " fill="#1B254B" transform="translate(649,359)"/>
<path d="M0,0 L8,0 L8,6 L0,6 Z " fill="#171A41" transform="translate(458,218)"/>
<path d="M0,0 L8,0 L8,6 L0,6 Z " fill="#1A1F41" transform="translate(248,190)"/>
<path d="M0,0 L8,0 L8,6 L0,6 Z " fill="#101A3A" transform="translate(994,70)"/>
<path d="M0,0 L2,1 L2,3 L-21,3 L-21,1 Z " fill="#131D44" transform="translate(672,838)"/>
<path d="M0,0 L6,0 L6,2 L8,2 L8,10 L6,10 L5,14 L4,4 L2,4 L2,2 Z " fill="#171E40" transform="translate(70,698)"/>
<path d="M0,0 L1,0 L1,12 L-5,12 L-3,2 Z " fill="#000000" transform="translate(776,513)"/>
<path d="M0,0 L9,0 L9,5 L-1,5 Z " fill="#010103" transform="translate(754,506)"/>
<path d="M0,0 L4,1 L1,1 L2,6 L-1,8 L-18,8 L-18,6 L-1,5 Z " fill="#131942" transform="translate(462,474)"/>
<path d="M0,0 L4,0 L4,2 L2,2 L2,21 L0,21 Z " fill="#1B254C" transform="translate(59,929)"/>
<path d="M0,0 L5,0 L6,1 L6,18 L2,17 L3,16 L4,2 L0,2 Z " fill="#131F44" transform="translate(883,899)"/>
<path d="M0,0 L4,0 L4,8 L-2,8 L-2,6 L-5,6 L-5,4 L-1,3 Z " fill="#17254A" transform="translate(183,347)"/>
<path d="M0,0 L1,0 L1,5 L-3,5 L-3,9 L-7,9 L-7,13 L-5,13 L-4,11 L-4,14 L-2,14 L-3,17 L-5,18 L-7,17 L-7,19 L-10,20 L-10,18 L-8,18 L-8,16 L-6,16 L-6,14 L-8,14 L-8,8 L-4,8 L-4,4 L0,4 Z " fill="#0F1736" transform="translate(434,326)"/>
<path d="M0,0 L6,0 L5,4 L5,1 L1,1 L2,10 L1,15 L8,15 L8,16 L0,16 L0,14 L-2,14 L-2,8 L0,8 Z " fill="#171C3B" transform="translate(880,670)"/>
<path d="M0,0 L1,3 L7,4 L8,6 L8,16 L7,12 L5,12 L4,16 L4,4 L0,4 Z " fill="#131B40" transform="translate(466,650)"/>
<path d="M0,0 L1,0 L1,7 L10,6 L10,12 L9,8 L7,8 L8,14 L5,13 L5,24 L4,24 L4,12 L6,12 L6,8 L0,8 Z " fill="#181C3B" transform="translate(798,538)"/>
<path d="M0,0 L6,0 L6,14 L8,14 L8,16 L10,16 L10,24 L9,24 L8,18 L7,23 L6,23 L4,14 L5,1 L0,1 Z " fill="#101834" transform="translate(668,468)"/>
<path d="M0,0 L4,1 L4,3 L10,3 L10,8 L2,8 L1,6 L3,6 L2,3 L0,2 Z " fill="#121B3C" transform="translate(416,414)"/>
<path d="M0,0 L2,2 L2,9 L-2,11 L0,13 L-4,13 L-4,7 L-2,7 L-2,3 L0,3 Z " fill="#121A3D" transform="translate(430,353)"/>
<path d="M0,0 L1,0 L1,7 L6,7 L2,8 L2,12 L-4,12 L-4,6 L0,6 Z " fill="#111939" transform="translate(486,292)"/>
<path d="M0,0 L1,0 L1,8 L3,8 L3,14 L1,14 L1,22 L3,22 L2,24 L-1,22 L-1,8 Z " fill="#03040A" transform="translate(413,186)"/>
<path d="M0,0 L1,4 L4,5 L7,5 L7,3 L16,3 L16,4 L10,4 L10,6 L8,6 L8,8 L4,8 L3,12 L1,5 L-1,5 L-2,8 L-2,4 L0,4 Z " fill="#111939" transform="translate(284,0)"/>
<path d="M0,0 L1,2 L0,5 L9,5 L9,6 L1,6 L1,8 L3,8 L2,12 L2,9 L0,9 L0,11 L-2,10 L-3,7 L-1,6 L-6,5 L-4,4 L-3,1 Z " fill="#121E3B" transform="translate(69,960)"/>
<path d="M0,0 L6,0 L6,2 L2,2 L2,17 L0,19 Z " fill="#162247" transform="translate(567,937)"/>
<path d="M0,0 L7,0 L7,12 L2,12 L1,8 L3,8 L3,10 L5,10 L5,2 L0,2 Z " fill="#141D44" transform="translate(610,857)"/>
<path d="M0,0 L3,0 L3,22 L1,20 Z " fill="#142045" transform="translate(686,697)"/>
<path d="M0,0 L2,0 L5,4 L9,5 L9,7 L3,7 L2,13 L0,13 Z " fill="#141E44" transform="translate(321,656)"/>
<path d="M0,0 L6,0 L6,4 L8,5 L6,5 L6,7 L8,8 L5,8 L5,6 L3,6 L2,8 L2,6 L0,6 Z " fill="#0F1736" transform="translate(488,280)"/>
<path d="M0,0 L2,0 L2,8 L-9,8 L-12,5 L-12,3 L-8,4 L-8,6 L0,6 Z " fill="#162246" transform="translate(767,149)"/>
<path d="M0,0 L1,0 L2,12 L-1,11 L0,14 L-3,16 L-5,20 L-5,13 L-7,13 L-7,20 L-8,20 L-8,12 L-2,12 L-2,10 L0,10 Z " fill="#15183C" transform="translate(454,114)"/>
<path d="M0,0 L7,0 L8,1 L8,8 L6,8 L6,2 L5,5 L0,7 Z " fill="#1E224A" transform="translate(475,111)"/>
<path d="M0,0 L2,0 L2,8 L1,15 L0,17 L-1,14 L-3,14 L-3,8 L0,8 Z " fill="#111B3E" transform="translate(635,822)"/>
<path d="M0,0 L2,0 L2,9 L13,9 L12,11 L0,11 Z " fill="#17264C" transform="translate(667,746)"/>
<path d="M0,0 L2,0 L4,3 L4,6 L2,6 L2,20 L-4,20 L-4,19 L1,19 L1,5 L-6,5 L-6,4 L0,4 Z " fill="#03050C" transform="translate(314,618)"/>
<path d="M0,0 L6,0 L5,4 L-1,9 L-2,11 L-5,11 L-5,9 L-3,9 L-2,5 Z " fill="#1B2653" transform="translate(591,474)"/>
<path d="M0,0 L2,0 L2,2 L4,4 L4,10 L6,10 L5,12 L2,11 L2,9 L-3,9 L-1,8 L-2,1 Z " fill="#131B3E" transform="translate(602,422)"/>
<path d="M0,0 L6,0 L6,2 L10,2 L10,0 L16,0 L16,1 L11,1 L11,3 L0,4 L-3,3 L-4,6 L-4,2 L0,2 Z " fill="#161F3D" transform="translate(666,118)"/>
<path d="M0,0 L5,0 L5,6 L3,6 L3,12 L5,12 L4,16 L4,13 L2,13 L1,15 L1,6 Z " fill="#020307" transform="translate(237,0)"/>
<path d="M0,0 L5,1 L7,2 L8,5 L13,6 L13,7 L1,7 Z M2,2 Z " fill="#1D2556" transform="translate(543,541)"/>
<path d="M0,0 L4,0 L4,19 L2,19 L2,2 L0,2 Z " fill="#141C45" transform="translate(417,363)"/>
<path d="M0,0 L6,0 L6,12 L4,12 L4,2 L2,2 L2,7 L0,7 Z " fill="#151E45" transform="translate(499,275)"/>
<path d="M0,0 L2,4 L-1,4 L-1,9 L-5,9 L-5,20 L-6,20 L-7,8 L-5,8 L-3,1 L-1,2 Z " fill="#141E41" transform="translate(999,112)"/>
<path d="M0,0 L8,0 L8,2 L30,2 L30,3 L4,3 L1,3 Z " fill="#131A33" transform="translate(682,116)"/>
<path d="M0,0 L8,0 L8,8 L6,4 L5,10 L4,10 L4,4 L0,4 Z " fill="#03050B" transform="translate(658,612)"/>
<path d="M0,0 L2,2 L2,6 L8,6 L8,7 L2,8 L8,9 L8,10 L0,10 L0,8 L-2,8 L-2,2 L0,2 Z " fill="#141D40" transform="translate(280,588)"/>
<path d="M0,0 L2,1 L2,22 L1,19 L-1,19 L-2,22 L-2,18 L0,18 L0,12 L-2,12 L-2,8 L0,8 Z " fill="#04050B" transform="translate(844,574)"/>
<path d="M0,0 L2,2 L6,4 L4,8 L3,15 L2,15 L0,7 L-2,3 Z " fill="#1B264D" transform="translate(544,317)"/>
<path d="M0,0 L14,0 L17,3 L17,6 L15,6 L15,4 L13,4 L13,2 L0,2 Z " fill="#152346" transform="translate(816,947)"/>
<path d="M0,0 L1,2 L8,2 L8,6 L1,7 L-1,6 L-1,1 Z " fill="#0E142E" transform="translate(522,727)"/>
<path d="M0,0 L1,0 L2,8 L4,8 L3,12 L1,15 L1,13 L-1,13 L-1,26 L-2,26 L-2,12 L0,12 Z " fill="#101636" transform="translate(414,418)"/>
<path d="M0,0 L4,1 L9,6 L9,12 L7,8 L5,11 L3,6 L-1,1 Z " fill="#121E3D" transform="translate(599,372)"/>
<path d="M0,0 L1,0 L2,12 L0,13 L0,14 L-6,14 L-6,12 L-2,12 L-2,6 L0,6 Z " fill="#030408" transform="translate(228,366)"/>
<path d="M0,0 L2,0 L2,15 L-1,14 L-1,4 Z " fill="#152145" transform="translate(595,319)"/>
<path d="M0,0 L9,1 L9,2 L3,2 L3,4 L1,4 L1,6 L-13,6 L-12,2 L-12,5 L0,5 L0,3 L-3,2 Z " fill="#14193B" transform="translate(299,60)"/>
<path d="M0,0 L2,0 L2,17 L-2,19 L-1,16 Z " fill="#162348" transform="translate(851,914)"/>
<path d="M0,0 L6,0 L6,2 L2,2 L2,8 L8,8 L7,10 L0,10 Z " fill="#121C44" transform="translate(603,855)"/>
<path d="M0,0 L2,0 L2,10 L-6,11 L-6,5 L-4,5 L-4,8 L0,8 Z " fill="#141E44" transform="translate(679,631)"/>
<path d="M0,0 L3,0 L4,4 L2,4 L2,6 L-4,6 L-4,12 L-6,8 L-8,11 L-8,6 L-5,4 L1,5 L1,3 L-3,2 L0,2 Z " fill="#141C3F" transform="translate(682,596)"/>
<path d="M0,0 L4,1 L1,1 L1,7 L3,7 L3,3 L5,3 L5,8 L3,8 L4,13 L0,13 Z " fill="#131932" transform="translate(844,552)"/>
<path d="M0,0 L4,0 L4,2 L2,2 L2,4 L5,4 L5,2 L8,3 L11,4 L11,6 L0,6 Z " fill="#1B244C" transform="translate(755,529)"/>
<path d="M0,0 L7,0 L7,2 L10,2 L10,4 L12,4 L12,6 L3,6 L4,4 L6,4 L6,2 L0,2 Z " fill="#141E44" transform="translate(11,529)"/>
<path d="M0,0 L3,0 L3,12 L9,12 L9,18 L8,18 L8,13 L1,13 Z " fill="#121A3B" transform="translate(673,492)"/>
<path d="M0,0 L5,0 L6,1 L6,12 L0,12 L0,10 L4,10 L4,2 L0,2 Z " fill="#152047" transform="translate(671,373)"/>
<path d="M0,0 L6,0 L6,2 L8,2 L8,6 L12,6 L11,10 L11,7 L5,7 L3,6 L3,3 L5,3 L5,1 L1,1 L1,6 L0,6 Z " fill="#181E3D" transform="translate(536,120)"/>
<path d="M0,0 L7,0 L7,8 L3,8 L3,6 L5,6 L5,2 L1,2 L1,6 L-1,6 L-1,1 Z " fill="#162049" transform="translate(760,95)"/>
<path d="M0,0 L6,0 L6,2 L2,6 L0,6 L-1,8 L-1,5 L-5,5 L-6,8 L-6,4 L-2,4 L-2,2 L0,2 Z " fill="#03040A" transform="translate(294,4)"/>
<path d="M0,0 L1,2 L12,1 L12,5 L0,5 Z " fill="#121F42" transform="translate(91,986)"/>
<path d="M0,0 L10,0 L10,2 L12,2 L12,10 L2,10 L2,9 L11,9 L11,7 L9,7 L9,1 L0,1 Z " fill="#161C3A" transform="translate(172,900)"/>
<path d="M0,0 L7,1 L9,6 L1,6 L-1,1 Z " fill="#131D42" transform="translate(498,731)"/>
<path d="M0,0 L1,0 L1,5 L3,5 L3,0 L4,0 L4,6 L2,6 L2,10 L-4,10 L-4,6 L0,6 Z " fill="#020307" transform="translate(4,530)"/>
<path d="M0,0 L7,0 L7,10 L1,10 L1,8 L5,8 L5,2 L0,2 Z " fill="#1B254C" transform="translate(752,513)"/>
<path d="M0,0 L2,0 L1,3 Z M-2,3 L0,4 L-2,10 L-4,10 L-4,18 L-6,18 L-6,8 L-3,7 Z " fill="#151F46" transform="translate(601,919)"/>
<path d="M0,0 L2,0 L2,2 L8,2 L8,3 L2,3 L2,7 L-1,7 L-1,9 L2,10 L-2,10 L-2,2 Z " fill="#03050B" transform="translate(60,718)"/>
<path d="M0,0 L4,0 L4,2 L12,2 L14,4 L-1,4 Z " fill="#121B41" transform="translate(355,659)"/>
<path d="M0,0 L2,0 L2,9 L-5,9 L-6,8 L-6,3 L-4,3 L-4,7 L0,7 Z " fill="#161F48" transform="translate(447,654)"/>
<path d="M0,0 L4,1 L9,2 L9,4 L-6,4 L-6,2 L0,2 Z " fill="#1E254B" transform="translate(773,533)"/>
<path d="M0,0 L7,1 L9,7 L-2,5 L0,4 Z " fill="#0F1631" transform="translate(673,506)"/>
<path d="M0,0 L9,0 L9,3 L3,4 L3,6 L0,6 Z " fill="#142044" transform="translate(0,463)"/>
<path d="M0,0 L4,0 L4,8 L1,10 L-2,10 L-2,8 L0,8 Z " fill="#0F1B3D" transform="translate(164,348)"/>
<path d="M0,0 L3,1 L4,4 L3,13 L8,13 L8,14 L2,14 L2,4 L0,4 L0,6 L-4,5 L-1,5 L-1,3 L-3,2 Z " fill="#121D3B" transform="translate(562,328)"/>
<path d="M0,0 L1,0 L1,9 L3,9 L4,7 L4,16 L-1,18 L0,16 L-6,15 L-6,14 L2,14 L2,10 L0,10 Z " fill="#15183C" transform="translate(444,134)"/>
<path d="M0,0 L6,0 L7,6 L0,6 Z " fill="#191F4B" transform="translate(219,9)"/>
<path d="M0,0 L6,0 L6,6 L0,6 Z " fill="#0F1732" transform="translate(620,952)"/>
<path d="M0,0 L6,0 L6,6 L0,6 Z " fill="#101733" transform="translate(584,926)"/>
<path d="M0,0 L6,0 L6,6 L0,6 Z " fill="#0D1531" transform="translate(620,926)"/>
<path d="M0,0 L6,0 L6,6 L0,6 Z " fill="#151B36" transform="translate(164,914)"/>
<path d="M0,0 L6,0 L6,6 L0,6 Z " fill="#0D1630" transform="translate(800,864)"/>
<path d="M0,0 L6,0 L6,6 L0,6 Z " fill="#0D1531" transform="translate(612,846)"/>
<path d="M0,0 L6,0 L6,6 L0,6 Z " fill="#0E1631" transform="translate(864,762)"/>
<path d="M0,0 L6,0 L6,6 L0,6 Z " fill="#141B36" transform="translate(846,712)"/>
<path d="M0,0 L9,0 L10,5 L8,5 L8,2 L2,2 L2,7 L0,8 Z " fill="#1A254B" transform="translate(43,697)"/>
<path d="M0,0 L6,0 L6,6 L0,6 Z " fill="#131935" transform="translate(234,600)"/>
<path d="M0,0 L3,0 L3,12 L0,12 Z " fill="#151E46" transform="translate(307,577)"/>
<path d="M0,0 L6,0 L6,6 L0,6 Z " fill="#0F1732" transform="translate(300,550)"/>
<path d="M0,0 L6,0 L6,6 L0,6 Z " fill="#0E1731" transform="translate(298,540)"/>
<path d="M0,0 L8,0 L8,8 L2,8 L2,6 L6,6 L6,2 L0,2 Z " fill="#141D45" transform="translate(25,527)"/>
<path d="M0,0 L16,0 L16,2 L2,2 L2,4 L0,4 Z " fill="#141E45" transform="translate(751,495)"/>
<path d="M0,0 L6,0 L6,6 L0,6 Z " fill="#121935" transform="translate(682,476)"/>
<path d="M0,0 L6,0 L6,6 L0,6 Z " fill="#101434" transform="translate(422,468)"/>
<path d="M0,0 L6,0 L6,6 L0,6 Z " fill="#121935" transform="translate(682,464)"/>
<path d="M0,0 L6,0 L6,6 L0,6 Z " fill="#101435" transform="translate(414,462)"/>
<path d="M0,0 L2,2 L2,5 L4,5 L4,12 L0,12 Z " fill="#151E45" transform="translate(161,365)"/>
<path d="M0,0 L6,0 L6,6 L0,6 Z " fill="#131936" transform="translate(238,364)"/>
<path d="M0,0 L6,0 L6,6 L0,6 Z " fill="#141936" transform="translate(1010,360)"/>
<path d="M0,0 L2,0 L0,6 L-2,6 L-3,10 L-3,5 L-11,5 L-12,8 L-12,4 L-4,4 L-4,2 Z " fill="#03040B" transform="translate(430,350)"/>
<path d="M0,0 L6,0 L6,6 L0,6 Z " fill="#0D1530" transform="translate(92,350)"/>
<path d="M0,0 L6,0 L6,6 L0,6 Z " fill="#0E1631" transform="translate(222,284)"/>
<path d="M0,0 L6,0 L6,6 L0,6 Z " fill="#141934" transform="translate(526,220)"/>
<path d="M0,0 L6,0 L6,6 L0,6 Z " fill="#131A36" transform="translate(788,190)"/>
<path d="M0,0 L6,0 L6,6 L0,6 Z " fill="#151A35" transform="translate(252,182)"/>
<path d="M0,0 L6,0 L6,6 L0,6 Z " fill="#0E1731" transform="translate(828,168)"/>
<path d="M0,0 L2,0 L2,5 L8,5 L8,2 L10,2 L9,7 L0,7 Z " fill="#151F45" transform="translate(615,942)"/>
<path d="M0,0 L3,0 L3,9 L0,9 L-1,13 L-2,10 L-2,8 L0,8 Z " fill="#0B1023" transform="translate(577,770)"/>
<path d="M0,0 L2,1 L2,16 L1,22 L0,22 L0,16 L-2,16 L-2,12 L0,12 Z " fill="#04050C" transform="translate(690,748)"/>
<path d="M0,0 L4,0 L4,2 L6,2 L6,8 L4,8 L3,10 L2,4 L0,4 Z " fill="#182141" transform="translate(830,538)"/>
<path d="M0,0 L6,0 L6,1 L1,1 L1,5 L6,5 L6,8 L0,8 L-2,6 L-2,3 L0,3 Z " fill="#090E20" transform="translate(716,526)"/>
<path d="M0,0 L7,0 L7,3 L9,3 L9,5 L0,6 Z " fill="#13193F" transform="translate(416,486)"/>
<path d="M0,0 L6,0 L6,4 L4,4 L4,2 L2,2 L2,5 L4,5 L4,9 L0,8 Z " fill="#152046" transform="translate(657,449)"/>
<path d="M0,0 L2,0 L2,2 L6,4 L6,6 L4,6 L4,12 L6,12 L5,14 L2,12 L2,6 L0,6 Z " fill="#04050C" transform="translate(84,290)"/>
<path d="M0,0 L7,0 L7,12 L5,13 L5,2 L0,2 Z " fill="#1E234B" transform="translate(556,223)"/>
<path d="M0,0 L13,0 L13,2 L1,2 L1,6 L-1,6 L-1,1 Z " fill="#131E43" transform="translate(1002,171)"/>
<path d="M0,0 L4,1 L1,1 L1,7 L3,7 L4,3 L7,7 L5,7 L5,9 L9,9 L10,6 L10,10 L4,10 L4,8 L0,8 Z " fill="#0F1435" transform="translate(222,18)"/>
<path d="M0,0 L2,0 L2,4 L0,4 L0,7 L2,7 L2,5 L4,5 L4,9 L-2,9 L-2,2 L0,2 Z " fill="#18264C" transform="translate(685,760)"/>
<path d="M0,0 L6,0 L6,2 L2,2 L2,4 L9,4 L9,6 L0,6 Z " fill="#141E44" transform="translate(311,639)"/>
<path d="M0,0 L5,0 L4,8 L0,9 Z " fill="#121D48" transform="translate(360,576)"/>
<path d="M0,0 L7,1 L14,2 L14,4 L2,4 Z " fill="#121E41" transform="translate(673,511)"/>
<path d="M0,0 L6,0 L5,4 L5,1 L3,1 L3,4 L-16,3 L-16,2 L0,2 Z " fill="#15193A" transform="translate(368,394)"/>
<path d="M0,0 L1,0 L1,6 L3,6 L3,8 L9,8 L7,10 L1,10 L1,16 L0,16 L0,8 L-1,6 Z " fill="#04050B" transform="translate(1009,350)"/>
<path d="M0,0 L5,0 L5,14 L3,14 L3,2 L0,2 Z " fill="#131D44" transform="translate(1006,87)"/>
<path d="M0,0 L4,0 L3,7 L1,7 L0,11 L-2,5 Z " fill="#010205" transform="translate(289,9)"/>
<path d="M0,0 L5,0 L5,4 L2,4 L1,6 L0,3 L-12,3 L-12,2 L0,2 Z " fill="#111939" transform="translate(638,941)"/>
<path d="M0,0 L6,0 L6,2 L12,2 L11,4 L4,4 L-1,3 L-1,8 L-2,8 L-2,2 L0,2 Z " fill="#171E3E" transform="translate(70,922)"/>
<path d="M0,0 L8,0 L7,4 L7,2 L2,2 L2,4 L6,4 L6,6 L1,6 L0,5 Z " fill="#1B264C" transform="translate(151,917)"/>
<path d="M0,0 L4,0 L4,12 L2,12 L2,14 L-2,13 L0,12 L-1,10 L0,3 L1,3 L2,10 L3,1 Z " fill="#101837" transform="translate(702,838)"/>
<path d="M0,0 L3,1 L4,8 L-2,7 L-1,4 L-4,3 L0,2 Z M-3,7 Z " fill="#142042" transform="translate(656,734)"/>
<path d="M0,0 L4,1 L1,1 L2,5 L1,7 L-4,8 L-4,6 L-14,5 L-14,4 L0,4 Z " fill="#121A3C" transform="translate(466,666)"/>
<path d="M0,0 L3,1 L2,5 L3,7 L-1,12 L-1,1 Z " fill="#151E45" transform="translate(416,416)"/>
<path d="M0,0 L2,0 L2,5 L6,5 L7,1 L8,1 L8,7 L0,7 Z " fill="#1D244B" transform="translate(1009,386)"/>
<path d="M0,0 L2,2 L3,12 L2,13 L-3,13 L0,12 Z " fill="#142146" transform="translate(591,370)"/>
<path d="M0,0 L6,0 L6,2 L11,2 L7,3 L7,5 L12,5 L12,6 L6,6 L6,3 L-1,3 Z " fill="#111E3F" transform="translate(666,148)"/>
<path d="M0,0 L1,0 L1,6 L3,7 L1,8 L-1,7 L-1,11 L-5,11 L-5,18 L-6,18 L-6,10 L-2,6 L0,6 Z " fill="#111C38" transform="translate(758,134)"/>
<path d="M0,0 L2,0 L0,10 L2,10 L2,16 L1,16 L1,11 L-4,11 L-2,10 L-2,2 Z " fill="#03050B" transform="translate(756,124)"/>
<path d="M0,0 L4,1 L5,5 L2,9 L1,6 L-3,4 L-2,2 L0,2 Z " fill="#1C2751" transform="translate(701,124)"/>
<path d="M0,0 L6,1 L2,2 L2,4 L0,4 L0,6 L-2,6 L-2,8 L-8,8 L-4,6 L-7,4 L-1,2 Z " fill="#0E1B38" transform="translate(874,932)"/>
<path d="M0,0 L7,0 L7,2 L9,2 L9,4 L0,4 Z " fill="#152046" transform="translate(587,885)"/>
<path d="M0,0 L2,0 L2,2 L0,3 L6,4 L6,6 L-4,6 L-4,2 Z " fill="#141E45" transform="translate(443,675)"/>
<path d="M0,0 L5,0 L5,2 L13,2 L13,4 L3,4 L0,3 Z " fill="#1F244A" transform="translate(893,583)"/>
<path d="M0,0 L2,1 L1,3 L-1,3 L0,7 L-4,11 L-8,10 L-8,8 L-6,8 L-6,6 L-2,6 L-2,2 L0,2 Z " fill="#12183B" transform="translate(356,548)"/>
<path d="M0,0 L4,0 L4,7 L2,7 L2,9 L0,9 Z " fill="#141A42" transform="translate(382,440)"/>
<path d="M0,0 L6,0 L6,2 L10,2 L10,8 L4,8 L4,7 L9,7 L9,3 L7,3 L6,6 L2,4 L5,3 L5,1 L0,1 Z " fill="#101937" transform="translate(606,400)"/>
<path d="M0,0 L2,1 L1,3 L-1,3 L0,6 L-3,8 L-3,5 L-5,5 L-5,15 L-2,16 L-6,16 L-6,4 L-2,4 L-2,2 L0,2 Z " fill="#151836" transform="translate(432,160)"/>
<path d="M0,0 L2,0 L2,9 L0,9 L0,12 L-6,12 L-5,10 L-1,8 Z " fill="#162347" transform="translate(743,145)"/>
<path d="M0,0 L6,0 L6,6 L8,6 L9,2 L10,7 L8,10 L6,10 L5,8 L5,1 L1,1 L0,4 Z " fill="#141D3B" transform="translate(652,122)"/>
<path d="M0,0 L2,0 L2,4 L4,4 L4,7 L2,7 L2,14 L0,12 Z " fill="#162347" transform="translate(751,119)"/>
<path d="M0,0 L2,0 L2,4 L4,4 L4,1 L6,1 L6,8 L2,8 L2,5 L0,5 Z " fill="#141E45" transform="translate(241,7)"/>
<path d="M0,0 L4,0 L6,10 L2,10 L2,6 L-2,6 L-1,2 L-1,5 L3,4 L3,1 Z " fill="#121C38" transform="translate(72,972)"/>
<path d="M0,0 L2,0 L2,7 L1,8 L-8,8 L-8,6 L0,6 Z " fill="#141E44" transform="translate(751,873)"/>
<path d="M0,0 L1,0 L1,6 L5,6 L5,12 L-3,12 L-3,11 L4,11 L4,7 L2,7 L2,10 L-2,8 L0,8 Z " fill="#101736" transform="translate(693,582)"/>
<path d="M0,0 L1,0 L1,16 L5,16 L4,20 L4,17 L2,17 L1,20 L-1,19 Z " fill="#0E1634" transform="translate(649,466)"/>
<path d="M0,0 L2,0 L3,3 L6,4 L6,6 L2,6 L2,11 L0,11 Z " fill="#000000" transform="translate(651,467)"/>
<path d="M0,0 L6,0 L6,6 L2,6 L0,3 Z " fill="#1B264B" transform="translate(585,127)"/>
<path d="M0,0 L2,0 L2,6 L9,6 L9,8 L0,8 Z " fill="#1D254C" transform="translate(37,709)"/>
<path d="M0,0 L2,0 L2,5 L-10,5 L-10,3 L0,3 Z " fill="#1E234C" transform="translate(899,682)"/>
<path d="M0,0 L8,0 L8,6 L7,6 L7,1 L5,1 L5,5 L0,4 Z " fill="#11193A" transform="translate(722,524)"/>
<path d="M0,0 L1,2 L6,2 L6,7 L-1,6 L1,5 L1,3 L-1,3 Z " fill="#13193E" transform="translate(472,479)"/>
<path d="M0,0 L2,0 L0,4 L-2,7 L-4,7 L-4,9 L-6,9 L-7,5 L-5,3 L-1,3 Z " fill="#1B2550" transform="translate(602,460)"/>
<path d="M0,0 L1,0 L1,12 L3,12 L4,9 L5,14 L4,17 L2,17 L0,14 Z " fill="#12173C" transform="translate(430,366)"/>
<path d="M0,0 L1,3 L-3,4 L-3,7 L-6,7 L-6,1 Z " fill="#111B41" transform="translate(390,368)"/>
<path d="M0,0 L1,0 L1,7 L5,7 L5,5 L3,5 L3,1 L5,1 L5,3 L7,3 L8,0 L8,4 L6,4 L6,8 L0,8 Z " fill="#0E1631" transform="translate(986,162)"/>
<path d="M0,0 L1,2 L6,4 L6,6 L3,6 L3,8 L1,8 L0,5 L-3,4 L-3,2 L0,2 Z " fill="#142045" transform="translate(646,133)"/>
<path d="M0,0 L2,1 L2,8 L-2,8 L-2,1 Z " fill="#131D41" transform="translate(883,735)"/>
<path d="M0,0 L2,0 L2,3 L4,4 L2,11 L0,10 Z " fill="#141A44" transform="translate(413,431)"/>
<path d="M0,0 L3,1 L4,8 L-1,6 L-1,4 L-3,3 L-1,3 Z " fill="#131E3A" transform="translate(566,348)"/>
<path d="M0,0 L4,0 L6,6 L1,6 L0,5 Z " fill="#191E4A" transform="translate(379,179)"/>
<path d="M0,0 L2,0 L2,10 L-2,8 L-2,4 L0,4 Z " fill="#03050C" transform="translate(998,86)"/>
<path d="M0,0 L4,0 L4,2 L2,2 L2,7 L0,7 L-1,11 L-2,6 Z " fill="#121B3D" transform="translate(996,83)"/>
<path d="M0,0 L7,0 L7,2 L13,2 L13,4 L7,4 L0,2 Z " fill="#131D43" transform="translate(983,79)"/>
<path d="M0,0 L5,0 L6,1 L6,11 L4,7 L3,2 L0,2 Z " fill="#131D44" transform="translate(595,883)"/>
<path d="M0,0 L1,3 L12,2 L12,5 L9,5 L9,7 L12,8 L8,8 L8,4 L0,4 Z " fill="#0F1836" transform="translate(498,734)"/>
<path d="M0,0 L4,0 L4,7 L-1,6 L-2,2 L2,3 L2,1 Z " fill="#152245" transform="translate(662,728)"/>
<path d="M0,0 L4,1 L6,2 L5,6 L-1,5 L-1,3 L-3,2 Z " fill="#111A3D" transform="translate(470,678)"/>
<path d="M0,0 L10,0 L10,2 L2,2 L2,6 L0,6 Z " fill="#151D46" transform="translate(407,667)"/>
<path d="M0,0 L6,0 L6,6 L0,6 L0,4 L4,4 L4,2 L0,2 Z " fill="#1E254C" transform="translate(851,549)"/>
<path d="M0,0 L2,0 L2,4 L10,4 L10,6 L0,6 Z " fill="#162148" transform="translate(695,539)"/>
<path d="M0,0 L5,1 L0,6 L-7,5 L-8,8 L-8,4 L0,4 Z " fill="#13193F" transform="translate(474,466)"/>
<path d="M0,0 L3,0 L3,7 L1,11 L0,10 Z " fill="#141B46" transform="translate(406,457)"/>
<path d="M0,0 L9,0 L9,2 L1,2 L1,6 L-1,6 L-1,1 Z " fill="#1C264B" transform="translate(172,901)"/>
<path d="M0,0 L2,0 L2,8 L-6,8 L-5,6 L0,6 Z " fill="#141F45" transform="translate(703,857)"/>
<path d="M0,0 L4,0 L4,7 L0,7 Z " fill="#141E44" transform="translate(677,679)"/>
<path d="M0,0 L7,0 L4,4 L4,2 L-1,4 L-1,7 L-4,6 L-4,3 Z " fill="#202453" transform="translate(628,559)"/>
<path d="M0,0 L2,0 L2,8 L-6,8 L-5,6 L0,6 Z " fill="#252C4C" transform="translate(807,313)"/>
<path d="M0,0 L7,0 L7,2 L1,2 L1,8 L-1,8 L-1,1 Z " fill="#242C4B" transform="translate(798,311)"/>
<path d="M0,0 L1,0 L1,10 L-1,10 L-1,12 L-7,12 L-6,9 L0,9 Z " fill="#161A3C" transform="translate(501,190)"/>
<path d="M0,0 L6,0 L6,5 L1,5 Z " fill="#010204" transform="translate(71,967)"/>
<path d="M0,0 L1,2 L-4,9 L-9,8 L-9,6 L-3,5 L-2,1 Z " fill="#141D43" transform="translate(533,729)"/>
<path d="M0,0 L7,1 L7,6 L5,6 L5,3 L-6,3 L-2,1 Z " fill="#1C2852" transform="translate(586,442)"/>
<path d="M0,0 L6,0 L8,1 L8,6 L7,2 L2,2 L2,6 L0,6 Z " fill="#1C264C" transform="translate(779,177)"/>
<path d="M0,0 L2,0 L2,7 L-6,7 L-6,5 L0,5 Z " fill="#1D264C" transform="translate(577,142)"/>
<path d="M0,0 L2,0 L2,3 L10,3 L10,5 L0,5 Z " fill="#1B204D" transform="translate(221,0)"/>
<path d="M0,0 L2,0 L2,5 L8,5 L8,7 L1,7 L0,6 Z " fill="#131E44" transform="translate(611,914)"/>
<path d="M0,0 L6,0 L6,4 L-1,4 Z " fill="#151F46" transform="translate(711,807)"/>
<path d="M0,0 L4,1 L4,7 L0,7 Z " fill="#000000" transform="translate(675,746)"/>
<path d="M0,0 L4,2 L2,9 L0,9 Z " fill="#121B43" transform="translate(475,684)"/>
<path d="M0,0 L6,0 L6,5 L0,4 Z " fill="#152046" transform="translate(693,505)"/>
<path d="M0,0 L1,0 L1,8 L-1,8 L-1,10 L-3,10 L-3,12 L-7,11 L-4,11 L-4,9 L-6,8 L0,7 Z " fill="#14183C" transform="translate(405,166)"/>
<path d="M0,0 L1,0 L1,6 L-3,6 L-3,8 L-7,7 L-4,7 L-4,5 L-7,4 L-2,2 L-2,5 L0,5 Z " fill="#0F1A37" transform="translate(717,150)"/>
<path d="M0,0 L3,0 L3,3 L6,3 L6,9 L4,9 L4,5 L2,5 L2,3 L0,3 Z " fill="#161D46" transform="translate(207,0)"/>
<path d="M0,0 L4,0 L4,6 L0,6 Z " fill="#152046" transform="translate(431,1015)"/>
<path d="M0,0 L6,0 L6,4 L4,4 L3,6 L-1,4 L3,4 L3,2 L0,2 Z " fill="#121B3C" transform="translate(121,925)"/>
<path d="M0,0 L2,0 L2,8 L4,8 L4,10 L0,10 Z " fill="#151E46" transform="translate(731,871)"/>
<path d="M0,0 L4,0 L4,2 L6,2 L6,4 L2,4 L2,6 L0,6 Z " fill="#03050B" transform="translate(678,716)"/>
<path d="M0,0 L3,4 L1,5 L1,7 L4,8 L2,12 L-1,6 L-1,1 Z " fill="#121B3D" transform="translate(486,700)"/>
<path d="M0,0 L4,0 L4,6 L0,6 Z " fill="#0D1530" transform="translate(0,644)"/>
<path d="M0,0 L4,0 L4,6 L0,6 Z " fill="#161F47" transform="translate(763,543)"/>
<path d="M0,0 L6,0 L6,4 L0,4 Z " fill="#1B244C" transform="translate(743,527)"/>
<path d="M0,0 L1,3 L8,2 L8,5 L5,5 L5,7 L8,8 L4,8 L4,4 L0,4 Z " fill="#15193D" transform="translate(354,462)"/>
<path d="M0,0 L4,0 L4,6 L0,6 Z " fill="#141D44" transform="translate(321,407)"/>
<path d="M0,0 L7,0 L7,4 L2,4 L2,2 L0,2 Z " fill="#000001" transform="translate(582,371)"/>
<path d="M0,0 L5,0 L4,3 L2,3 L2,8 L0,8 Z " fill="#000001" transform="translate(567,297)"/>
<path d="M0,0 L10,0 L10,4 L8,4 L8,2 L0,2 Z " fill="#1B1E4C" transform="translate(479,155)"/>
<path d="M0,0 L2,0 L2,7 L-5,7 L-5,5 L0,5 Z " fill="#1B264B" transform="translate(585,134)"/>
<path d="M0,0 L1,0 L1,6 L-1,6 L-1,8 L-3,8 L-3,10 L-7,9 L-4,9 L-5,5 L-3,4 L0,5 Z " fill="#171D3D" transform="translate(329,40)"/>
<path d="M0,0 L3,0 L3,5 L-5,5 L-3,3 L0,3 Z " fill="#141E44" transform="translate(330,670)"/>
<path d="M0,0 L2,0 L2,7 L-2,12 L-1,7 Z " fill="#161D46" transform="translate(359,541)"/>
<path d="M0,0 L1,3 L3,4 L-2,10 L-3,7 L-2,4 L0,4 Z " fill="#141C41" transform="translate(634,442)"/>
<path d="M0,0 L7,0 L4,2 L2,2 L2,4 L4,4 L4,6 L0,6 Z " fill="#162047" transform="translate(663,377)"/>
<path d="M0,0 L2,0 L2,4 L4,4 L4,2 L6,2 L5,6 L0,6 Z " fill="#141F44" transform="translate(487,293)"/>
<path d="M0,0 L1,0 L1,6 L-1,6 L-1,8 L-3,8 L-3,2 Z " fill="#03050B" transform="translate(87,228)"/>
<path d="M0,0 L3,3 L2,7 L4,8 L0,8 L-1,2 Z " fill="#182046" transform="translate(281,51)"/>
<path d="M0,0 L5,0 L5,10 L4,10 L4,3 L0,3 Z " fill="#091024" transform="translate(871,908)"/>
<path d="M0,0 L1,0 L1,6 L-1,8 L-2,12 L-4,12 L-4,6 L-1,5 Z " fill="#152046" transform="translate(597,889)"/>
<path d="M0,0 L3,0 L4,6 L0,7 Z " fill="#131D43" transform="translate(485,718)"/>
<path d="M0,0 L3,0 L4,8 L0,6 Z " fill="#131F43" transform="translate(682,687)"/>
<path d="M0,0 L2,4 L-7,5 L-6,2 Z " fill="#131C43" transform="translate(340,665)"/>
<path d="M0,0 L2,0 L3,2 L6,3 L6,8 L4,8 L4,5 L1,5 Z " fill="#1E254B" transform="translate(767,524)"/>
<path d="M0,0 L6,0 L6,3 L1,3 L0,6 L-1,1 Z " fill="#141D48" transform="translate(481,480)"/>
<path d="M0,0 L4,1 L4,6 L0,6 Z " fill="#161B48" transform="translate(413,451)"/>
<path d="M0,0 L4,0 L4,5 L0,6 Z " fill="#1C244B" transform="translate(1007,379)"/>
<path d="M0,0 L4,0 L4,6 L-1,6 L-1,4 L2,4 L2,2 L0,2 Z " fill="#1B264D" transform="translate(223,347)"/>
<path d="M0,0 L2,0 L2,7 L-1,11 L-1,1 Z " fill="#1A264D" transform="translate(546,334)"/>
<path d="M0,0 L2,1 L-1,8 L-3,8 L-3,3 L0,2 Z " fill="#12183D" transform="translate(438,322)"/>
<path d="M0,0 L4,0 L4,3 L-1,3 L-2,5 L-2,3 L-4,3 L-4,1 Z " fill="#131D42" transform="translate(229,322)"/>
<path d="M0,0 L9,0 L9,4 L7,4 L7,2 L0,2 Z " fill="#1B264B" transform="translate(110,239)"/>
<path d="M0,0 L2,0 L2,5 L0,7 L-5,7 L-5,5 L-1,4 Z " fill="#1D244A" transform="translate(551,226)"/>
<path d="M0,0 L1,2 L8,2 L8,4 L-1,4 Z " fill="#18284B" transform="translate(70,961)"/>
<path d="M0,0 L5,0 L5,4 L0,4 L-1,1 Z " fill="#19274B" transform="translate(816,925)"/>
<path d="M0,0 L4,0 L4,2 L2,2 L2,8 L0,9 Z " fill="#151F45" transform="translate(735,863)"/>
<path d="M0,0 L0,3 L2,5 L-2,5 L-2,7 L-6,6 L-3,6 L-3,4 L-5,3 Z " fill="#121E3E" transform="translate(652,739)"/>
<path d="M0,0 L2,0 L3,5 L5,6 L2,8 L2,6 L0,6 Z " fill="#162346" transform="translate(659,732)"/>
<path d="M0,0 L5,1 L5,9 L4,9 L3,3 L2,8 L1,8 Z " fill="#121B3B" transform="translate(673,483)"/>
<path d="M0,0 L2,0 L2,8 L0,8 L0,4 L-2,4 Z " fill="#04060D" transform="translate(578,354)"/>
<path d="M0,0 L4,3 L4,8 L-1,5 Z " fill="#1C284F" transform="translate(547,349)"/>
<path d="M0,0 L1,2 L1,9 L-3,10 L-5,7 L-1,7 L-1,1 Z M1,6 Z " fill="#121D3C" transform="translate(571,299)"/>
<path d="M0,0 L3,0 L3,6 L6,5 L5,8 L2,9 L-2,7 L2,7 L2,1 Z " fill="#111C3A" transform="translate(574,291)"/>
<path d="M0,0 L2,0 L1,5 L0,6 L-5,6 L-5,4 L-1,3 Z " fill="#152347" transform="translate(839,949)"/>
<path d="M0,0 L6,0 L6,2 L4,3 L-2,3 L-2,1 Z " fill="#141F46" transform="translate(646,806)"/>
<path d="M0,0 L5,0 L5,4 L10,4 L10,5 L4,5 L4,3 L0,2 Z " fill="#17203F" transform="translate(844,567)"/>
<path d="M0,0 L6,0 L6,4 L4,4 L4,2 L-4,2 Z " fill="#03050B" transform="translate(702,532)"/>
<path d="M0,0 L8,0 L3,4 L-2,5 L-2,3 L0,3 Z " fill="#25305E" transform="translate(554,516)"/>
<path d="M0,0 L4,1 L4,7 L3,5 L1,5 L0,8 Z " fill="#141B40" transform="translate(370,474)"/>
<path d="M0,0 L2,0 L2,4 L6,4 L6,6 L0,6 Z " fill="#152048" transform="translate(667,449)"/>
<path d="M0,0 L3,1 L4,4 L2,6 L-1,6 Z " fill="#1B2853" transform="translate(515,426)"/>
<path d="M0,0 L6,0 L6,4 L2,4 L2,2 L0,2 Z " fill="#03050C" transform="translate(420,418)"/>
<path d="M0,0 L2,0 L2,8 L-4,7 L0,6 Z " fill="#04050B" transform="translate(172,362)"/>
<path d="M0,0 L8,0 L8,4 L6,4 L6,2 L0,2 Z " fill="#000000" transform="translate(419,355)"/>
<path d="M0,0 L1,0 L1,8 L-3,8 L-1,1 Z " fill="#000000" transform="translate(724,133)"/>
<path d="M0,0 L4,0 L4,5 L0,5 Z " fill="#152245" transform="translate(717,132)"/>
<path d="M0,0 L8,0 L7,3 L2,4 Z " fill="#161E3E" transform="translate(682,116)"/>
<path d="M0,0 L6,0 L6,2 L2,2 L2,6 L0,6 Z " fill="#162248" transform="translate(703,35)"/>
<path d="M0,0 L2,0 L3,4 L6,5 L6,7 L2,7 L-1,2 Z " fill="#141F44" transform="translate(687,794)"/>
<path d="M0,0 L4,0 L4,2 L2,2 L2,8 L0,7 Z " fill="#1C254C" transform="translate(881,671)"/>
<path d="M0,0 L1,2 L4,3 L1,6 L0,5 L-2,7 L-2,1 Z " fill="#121B3B" transform="translate(316,555)"/>
<path d="M0,0 L1,2 L3,2 L3,4 L-1,4 L-1,9 L-2,9 L-2,1 Z " fill="#101939" transform="translate(748,503)"/>
<path d="M0,0 L1,0 L2,6 L-2,8 L-3,4 L0,4 Z " fill="#131B42" transform="translate(478,482)"/>
<path d="M0,0 L5,1 L5,7 L3,7 L3,2 L0,2 Z " fill="#1D224A" transform="translate(570,251)"/>
<path d="M0,0 L3,1 L3,7 L0,7 Z " fill="#172042" transform="translate(711,119)"/>
<path d="M0,0 L5,0 L5,2 L1,2 L1,6 L-1,6 L-1,1 Z " fill="#151E44" transform="translate(760,95)"/>
<path d="M0,0 L2,0 L2,2 L4,2 L4,6 L9,6 L9,7 L3,7 L0,2 Z " fill="#10193B" transform="translate(1015,39)"/>
<path d="M0,0 L6,0 L7,4 L1,3 Z " fill="#141D42" transform="translate(684,850)"/>
<path d="M0,0 L3,1 L0,2 L0,7 L-3,6 L-2,2 Z " fill="#141E42" transform="translate(700,849)"/>
<path d="M0,0 L1,3 L3,4 L1,8 L1,4 L-1,4 L-2,7 L-2,2 Z " fill="#152142" transform="translate(626,746)"/>
<path d="M0,0 L7,1 L7,3 L-1,3 Z " fill="#131E43" transform="translate(519,742)"/>
<path d="M0,0 L9,2 L6,4 L-2,2 Z " fill="#141D45" transform="translate(488,712)"/>
<path d="M0,0 L5,0 L5,6 L3,6 L3,2 L0,2 Z " fill="#1A204C" transform="translate(928,671)"/>
<path d="M0,0 L5,0 L6,4 L4,5 L4,3 L0,3 Z " fill="#0B1126" transform="translate(326,658)"/>
<path d="M0,0 L6,0 L6,6 L4,2 L0,2 Z " fill="#1B264D" transform="translate(765,655)"/>
<path d="M0,0 L2,0 L3,2 L3,8 L1,8 Z " fill="#111642" transform="translate(616,532)"/>
<path d="M0,0 L2,0 L2,5 L4,5 L4,7 L0,7 Z " fill="#151F47" transform="translate(3,470)"/>
<path d="M0,0 L2,0 L2,5 L-4,5 L-4,3 L0,3 Z " fill="#19224C" transform="translate(247,470)"/>
<path d="M0,0 L1,3 L5,3 L5,7 L8,8 L4,8 L0,4 Z " fill="#151E3E" transform="translate(94,304)"/>
<path d="M0,0 L4,0 L4,2 L2,2 L2,7 L0,7 Z " fill="#1C244C" transform="translate(525,233)"/>
<path d="M0,0 L2,2 L-4,4 L-6,5 L-6,1 Z " fill="#121E40" transform="translate(47,943)"/>
<path d="M0,0 L7,0 L7,2 L2,3 L0,2 Z " fill="#18264B" transform="translate(628,755)"/>
<path d="M0,0 L6,0 L6,2 L2,2 L1,5 L0,5 Z " fill="#1A254C" transform="translate(905,653)"/>
<path d="M0,0 L1,0 L1,5 L-3,5 L-3,1 Z " fill="#152046" transform="translate(672,642)"/>
<path d="M0,0 L5,0 L4,4 L0,4 Z " fill="#162047" transform="translate(309,617)"/>
<path d="M0,0 L2,1 L2,5 L4,5 L4,7 L0,7 Z " fill="#161B49" transform="translate(499,578)"/>
<path d="M0,0 L7,0 L6,2 L2,2 L2,4 L0,4 Z " fill="#151E45" transform="translate(0,541)"/>
<path d="M0,0 L2,1 L1,3 L-1,3 L-1,7 L-5,5 L-2,2 L0,2 Z " fill="#111937" transform="translate(708,502)"/>
<path d="M0,0 L5,2 L4,4 L6,6 L2,6 L2,4 L0,4 Z " fill="#161B3D" transform="translate(332,436)"/>
<path d="M0,0 L3,0 L3,5 L-2,5 L0,4 Z " fill="#0B1025" transform="translate(601,426)"/>
<path d="M0,0 L2,0 L0,12 L-1,12 L-2,2 Z " fill="#05070F" transform="translate(110,310)"/>
<path d="M0,0 L2,4 L-1,3 L-1,7 L-5,5 L-2,4 L-2,2 L0,2 Z " fill="#161B3E" transform="translate(524,264)"/>
<path d="M0,0 L4,0 L4,5 L0,4 Z " fill="#1B264D" transform="translate(79,231)"/>
<path d="M0,0 L2,0 L1,7 L-2,7 L-1,2 Z " fill="#131F42" transform="translate(945,148)"/>
<path d="M0,0 L7,0 L7,3 L2,3 L2,1 Z " fill="#0B1025" transform="translate(971,87)"/>
<path d="M0,0 L4,0 L4,4 L0,4 Z " fill="#162148" transform="translate(621,953)"/>
<path d="M0,0 L4,0 L4,4 L0,4 Z " fill="#141E46" transform="translate(621,927)"/>
<path d="M0,0 L4,0 L4,4 L0,4 Z " fill="#17214B" transform="translate(585,927)"/>
<path d="M0,0 L4,0 L4,4 L0,4 Z " fill="#1E274E" transform="translate(165,915)"/>
<path d="M0,0 L4,0 L4,4 L0,4 Z " fill="#141F46" transform="translate(801,865)"/>
<path d="M0,0 L4,0 L4,4 L0,4 Z " fill="#141F46" transform="translate(613,847)"/>
<path d="M0,0 L3,0 L4,5 L0,5 Z " fill="#0A0F20" transform="translate(690,794)"/>
<path d="M0,0 L3,1 L0,4 L-3,3 L-5,1 Z " fill="#142040" transform="translate(683,777)"/>
<path d="M0,0 L2,1 L1,7 L-1,7 L-1,1 Z " fill="#121B44" transform="translate(568,772)"/>
<path d="M0,0 L2,2 L7,3 L7,4 L1,4 L0,6 L-1,2 Z " fill="#101C3F" transform="translate(538,763)"/>
<path d="M0,0 L4,0 L4,4 L0,4 Z " fill="#151F47" transform="translate(865,763)"/>
<path d="M0,0 L4,0 L4,4 L0,4 Z " fill="#1D284E" transform="translate(847,713)"/>
<path d="M0,0 L1,2 L4,2 L4,4 L-2,5 Z " fill="#131C46" transform="translate(493,702)"/>
<path d="M0,0 L2,0 L2,2 L6,2 L6,4 L0,4 Z " fill="#1C274D" transform="translate(763,659)"/>
<path d="M0,0 L4,0 L4,4 L0,4 Z " fill="#141D43" transform="translate(650,642)"/>
<path d="M0,0 L4,0 L4,4 L0,4 Z " fill="#1D254D" transform="translate(235,601)"/>
<path d="M0,0 L6,0 L6,1 L1,1 L1,5 L-3,3 L0,2 Z " fill="#181C3B" transform="translate(892,582)"/>
<path d="M0,0 L4,1 L4,6 L0,5 L3,5 L3,3 L0,3 Z " fill="#131A3E" transform="translate(694,576)"/>
<path d="M0,0 L4,0 L4,4 L0,4 Z " fill="#162047" transform="translate(301,551)"/>
<path d="M0,0 L4,0 L4,4 L0,4 Z " fill="#142146" transform="translate(299,541)"/>
<path d="M0,0 L4,0 L4,2 L2,2 L2,6 L0,6 Z " fill="#171E49" transform="translate(359,531)"/>
<path d="M0,0 L3,0 L4,5 L0,5 Z " fill="#090E1F" transform="translate(658,506)"/>
<path d="M0,0 L2,0 L2,2 L6,2 L6,4 L0,4 Z " fill="#151F46" transform="translate(63,501)"/>
<path d="M0,0 L4,0 L4,4 L0,4 Z " fill="#1B264D" transform="translate(683,477)"/>
<path d="M0,0 L4,0 L4,4 L0,4 Z " fill="#171C4A" transform="translate(423,469)"/>
<path d="M0,0 L4,0 L4,4 L0,4 Z " fill="#1B264D" transform="translate(683,465)"/>
<path d="M0,0 L4,0 L4,4 L0,4 Z " fill="#171C4A" transform="translate(415,463)"/>
<path d="M0,0 L2,0 L1,5 L2,7 L-1,6 L-1,1 Z " fill="#1D2953" transform="translate(596,452)"/>
<path d="M0,0 L4,0 L4,4 L0,4 Z " fill="#151C45" transform="translate(333,391)"/>
<path d="M0,0 L4,0 L4,4 L0,4 Z " fill="#131C43" transform="translate(385,385)"/>
<path d="M0,0 L7,0 L6,2 L4,1 L4,3 L-2,2 Z " fill="#181F41" transform="translate(1009,384)"/>
<path d="M0,0 L4,0 L4,4 L0,4 Z " fill="#1B284B" transform="translate(560,384)"/>
<path d="M0,0 L4,0 L4,4 L0,4 Z " fill="#1C254D" transform="translate(239,365)"/>
<path d="M0,0 L4,0 L4,4 L0,4 Z " fill="#1D264E" transform="translate(1011,361)"/>
<path d="M0,0 L4,0 L4,4 L0,4 Z " fill="#131E46" transform="translate(93,351)"/>
<path d="M0,0 L5,0 L5,3 L0,4 Z " fill="#0B1224" transform="translate(177,348)"/>
<path d="M0,0 L4,0 L4,4 L0,4 Z " fill="#142046" transform="translate(223,285)"/>
<path d="M0,0 L4,0 L4,4 L0,4 Z " fill="#05070E" transform="translate(546,226)"/>
<path d="M0,0 L4,0 L4,4 L0,4 Z " fill="#131B43" transform="translate(283,225)"/>
<path d="M0,0 L4,0 L4,4 L0,4 Z " fill="#1F264E" transform="translate(527,221)"/>
<path d="M0,0 L4,0 L4,4 L0,4 Z " fill="#1C274E" transform="translate(789,191)"/>
<path d="M0,0 L4,0 L4,4 L0,4 Z " fill="#20264E" transform="translate(253,183)"/>
<path d="M0,0 L4,0 L4,4 L0,4 Z " fill="#142147" transform="translate(829,169)"/>
<path d="M0,0 L4,0 L4,2 L2,2 L2,6 L0,6 Z " fill="#161B48" transform="translate(223,19)"/>
<path d="M0,0 L3,1 L0,5 L-3,1 Z " fill="#0E1937" transform="translate(821,960)"/>
<path d="M0,0 L4,0 L4,3 L0,5 Z " fill="#000000" transform="translate(877,911)"/>
<path d="M0,0 L5,0 L5,3 L0,3 Z " fill="#131D42" transform="translate(589,885)"/>
<path d="M0,0 L4,1 L3,7 L1,5 Z " fill="#141F44" transform="translate(640,808)"/>
<path d="M0,0 L1,0 L2,10 L-2,8 L0,8 Z " fill="#131B3F" transform="translate(693,582)"/>
<path d="M0,0 L4,1 L3,4 L0,3 Z M4,0 Z M0,4 Z " fill="#1A1D4D" transform="translate(554,572)"/>
<path d="M0,0 L3,1 L4,5 L0,4 L-1,1 Z " fill="#151946" transform="translate(496,571)"/>
<path d="M0,0 L4,2 L0,3 L-1,7 L-1,1 Z " fill="#10193A" transform="translate(658,503)"/>
<path d="M0,0 L3,1 L2,6 L0,6 L0,2 L-2,1 Z " fill="#121C3F" transform="translate(669,447)"/>
<path d="M0,0 L2,3 L1,5 L-3,5 L-3,2 L0,2 Z " fill="#1D2B51" transform="translate(539,426)"/>
<path d="M0,0 L3,0 L4,6 L2,6 L0,3 Z " fill="#020408" transform="translate(108,298)"/>
<path d="M0,0 L1,4 L5,4 L4,8 L4,5 L-1,6 Z " fill="#151B3A" transform="translate(565,242)"/>
<path d="M0,0 L6,0 L5,4 L2,4 L2,2 L0,2 Z " fill="#101E41" transform="translate(658,145)"/>
<path d="M0,0 L7,0 L7,2 L2,3 L0,2 Z " fill="#111B44" transform="translate(955,81)"/>
<path d="M0,0 L3,0 L4,5 L0,4 Z " fill="#141C42" transform="translate(698,834)"/>
<path d="M0,0 L4,1 L4,4 L1,4 L1,2 L-2,1 Z " fill="#0F1831" transform="translate(654,736)"/>
<path d="M0,0 L3,0 L3,5 L0,4 Z " fill="#141E42" transform="translate(702,643)"/>
<path d="M0,0 L2,0 L2,2 L5,2 L5,4 L0,4 Z " fill="#141C45" transform="translate(0,549)"/>
<path d="M0,0 L5,1 L3,4 L-1,3 Z " fill="#141C44" transform="translate(363,532)"/>
<path d="M0,0 L3,3 L2,7 L0,7 Z " fill="#131D43" transform="translate(661,483)"/>
<path d="M0,0 L1,4 L3,5 L0,7 L0,5 L-4,4 L0,4 Z " fill="#121A3D" transform="translate(426,418)"/>
<path d="M0,0 L3,1 L2,6 L0,7 Z " fill="#151B46" transform="translate(434,375)"/>
<path d="M0,0 L2,0 L2,4 L-3,4 L-3,2 L0,2 Z " fill="#16234A" transform="translate(199,337)"/>
<path d="M0,0 L1,4 L-4,5 L-4,1 L-2,1 L-2,3 L0,3 Z " fill="#101939" transform="translate(993,162)"/>
<path d="M0,0 L2,1 L1,3 L-1,3 L0,6 L-3,8 L-2,2 L0,2 Z " fill="#171A3F" transform="translate(432,160)"/>
<path d="M0,0 L3,1 L3,5 L0,6 Z " fill="#121E41" transform="translate(939,121)"/>
<path d="M0,0 L5,1 L5,3 L1,4 L-2,2 L0,2 Z " fill="#172041" transform="translate(300,4)"/>
<path d="M0,0 L3,4 L4,8 L2,8 L2,6 L0,6 Z " fill="#131E3B" transform="translate(78,966)"/>
<path d="M0,0 L2,0 L4,4 L0,5 Z " fill="#1C254A" transform="translate(69,925)"/>
<path d="M0,0 L4,1 L1,5 Z " fill="#03050C" transform="translate(694,804)"/>
<path d="M0,0 L5,0 L5,3 L1,3 Z " fill="#121A41" transform="translate(373,668)"/>
<path d="M0,0 L3,1 L2,4 L-3,5 Z " fill="#101835" transform="translate(702,519)"/>
<path d="M0,0 L2,0 L2,4 L-2,4 Z " fill="#04060F" transform="translate(420,486)"/>
<path d="M0,0 L2,3 L1,7 L-1,4 Z M-1,7 Z " fill="#1D2553" transform="translate(475,397)"/>
<path d="M0,0 L2,0 L2,5 L-1,4 Z " fill="#19274C" transform="translate(585,377)"/>
<path d="M0,0 L2,0 L0,6 L-1,3 L-4,2 Z " fill="#060915" transform="translate(430,350)"/>
<path d="M0,0 L2,0 L1,8 L-1,4 Z " fill="#141D43" transform="translate(995,86)"/>
<path d="M0,0 L6,0 L5,3 L0,2 Z " fill="#131D44" transform="translate(965,79)"/>
<path d="M0,0 L3,0 L3,4 L0,5 Z " fill="#161B41" transform="translate(231,0)"/>
<path d="M0,0 L4,4 L2,5 L-1,2 Z " fill="#142041" transform="translate(49,945)"/>
<path d="M0,0 L3,2 L3,4 L-4,2 Z " fill="#050813" transform="translate(609,884)"/>
<path d="M0,0 L4,0 L4,2 L2,2 L2,4 L0,4 Z " fill="#151F46" transform="translate(481,711)"/>
<path d="M0,0 L3,0 L3,4 L0,4 Z " fill="#131E45" transform="translate(0,645)"/>
<path d="M0,0 L3,1 L1,1 L1,4 L-2,4 L-2,1 Z " fill="#0E122C" transform="translate(2,544)"/>
<path d="M0,0 L4,0 L4,4 L2,4 L2,2 L0,2 Z " fill="#04050E" transform="translate(474,482)"/>
<path d="M0,0 L2,1 L1,4 L-3,3 L-3,1 Z " fill="#192346" transform="translate(117,316)"/>
<path d="M0,0 L4,0 L4,2 L2,2 L2,4 L0,4 Z " fill="#141F47" transform="translate(489,281)"/>
<path d="M0,0 L3,0 L3,4 L0,4 Z " fill="#1A1D49" transform="translate(447,144)"/>
<path d="M0,0 L3,0 L3,3 L-2,3 L0,2 Z " fill="#0D162B" transform="translate(65,962)"/>
<path d="M0,0 L3,1 L3,5 L1,5 Z " fill="#141E44" transform="translate(330,656)"/>
<path d="M0,0 L5,0 L5,3 L2,3 L2,1 Z " fill="#151C46" transform="translate(402,650)"/>
<path d="M0,0 L3,1 L1,5 Z " fill="#141D43" transform="translate(316,607)"/>
<path d="M0,0 L1,0 L1,5 L-1,5 L-2,1 Z " fill="#141F44" transform="translate(672,505)"/>
<path d="M0,0 L2,1 L1,4 L-2,4 L-2,1 Z " fill="#151E45" transform="translate(637,441)"/>
<path d="M0,0 L5,0 L3,1 L2,4 Z " fill="#1A244B" transform="translate(511,303)"/>
<path d="M0,0 L2,0 L1,4 L-2,4 L-2,2 L0,2 Z " fill="#141F43" transform="translate(499,287)"/>
<path d="M0,0 L4,0 L4,3 L0,2 Z " fill="#010206" transform="translate(84,218)"/>
<path d="M0,0 L2,0 L2,2 L4,2 L4,4 L0,3 Z " fill="#131E43" transform="translate(649,143)"/>
<path d="M0,0 L5,0 L5,2 L1,3 Z " fill="#131D43" transform="translate(972,81)"/>
<path d="M0,0 L2,0 L4,4 L0,4 Z " fill="#151E46" transform="translate(281,9)"/>
<path d="M0,0 L3,1 L2,4 L0,4 Z " fill="#131D42" transform="translate(675,842)"/>
<path d="M0,0 L3,1 L3,3 L-1,3 Z " fill="#131D42" transform="translate(643,834)"/>
<path d="M0,0 L3,0 L3,4 L1,4 Z " fill="#141F45" transform="translate(690,804)"/>
<path d="M0,0 L2,3 L2,6 L0,6 L-1,1 Z " fill="#101A3C" transform="translate(578,782)"/>
<path d="M0,0 L3,1 L3,3 L-2,3 L0,2 Z " fill="#121C42" transform="translate(515,740)"/>
<path d="M0,0 L3,0 L4,3 L0,3 Z " fill="#0D142A" transform="translate(662,732)"/>
<path d="M0,0 L3,1 L1,3 L-2,3 L-2,1 Z " fill="#151E46" transform="translate(330,646)"/>
<path d="M0,0 L4,1 L3,3 L0,3 Z " fill="#0D1129" transform="translate(328,643)"/>
<path d="M0,0 L1,4 L-2,6 L-2,3 L0,3 Z " fill="#131845" transform="translate(512,591)"/>
<path d="M0,0 L2,0 L2,3 L-2,3 L-2,1 Z " fill="#131A43" transform="translate(648,526)"/>
<path d="M0,0 L2,0 L3,3 L-2,3 Z " fill="#121A40" transform="translate(634,524)"/>
<path d="M0,0 L2,1 L0,6 L-2,2 Z " fill="#1E2A54" transform="translate(597,463)"/>
<path d="M0,0 L2,0 L1,4 L-1,3 Z " fill="#121C42" transform="translate(474,680)"/>
<path d="M0,0 L4,1 L1,3 L-1,1 Z " fill="#202859" transform="translate(557,545)"/>
<path d="M0,0 L1,4 L-2,3 L-2,1 Z " fill="#131743" transform="translate(620,529)"/>
<path d="M0,0 L3,0 L2,4 Z " fill="#121C45" transform="translate(654,487)"/>
<path d="M0,0 L3,0 L3,3 L0,3 Z " fill="#142144" transform="translate(956,158)"/>
<path d="M0,0 L3,0 L3,3 L0,3 Z " fill="#131F42" transform="translate(949,158)"/>
<path d="M0,0 L3,0 L3,3 L0,2 Z " fill="#141F44" transform="translate(646,821)"/>
<path d="M0,0 L4,2 L2,2 L1,4 Z " fill="#121D3C" transform="translate(660,730)"/>
<path d="M0,0 L2,1 L1,4 L-1,3 Z " fill="#151D44" transform="translate(421,645)"/>
<path d="M0,0 L2,0 L2,3 L-1,2 Z M-2,2 Z " fill="#19224E" transform="translate(456,570)"/>
<path d="M0,0 L4,1 L1,3 Z " fill="#1A284F" transform="translate(516,344)"/>
<path d="M0,0 L2,0 L1,3 L-2,2 Z " fill="#080B18" transform="translate(110,310)"/>
<path d="M0,0 L4,1 L2,3 L0,2 Z " fill="#1A2448" transform="translate(515,300)"/>
<path d="M0,0 L3,0 L3,3 L0,2 Z " fill="#1B1E47" transform="translate(492,167)"/>
<path d="M0,0 L2,0 L1,3 L-2,2 Z " fill="#070C17" transform="translate(756,124)"/>
<path d="M0,0 L3,0 L2,3 L0,2 Z " fill="#1A1D49" transform="translate(466,127)"/>
<path d="M0,0 L2,1 L2,3 L-1,2 Z " fill="#19274B" transform="translate(575,352)"/>
</svg>
