<?xml version="1.0" encoding="UTF-8"?>
<!-- Generator: visioncortex VTracer 0.6.4 -->
<svg version="1.1" xmlns="http://www.w3.org/2000/svg" width="1024" height="1024">
<path d="M0,0 L1024,0 L1024,1024 L0,1024 Z " fill="#000000" transform="translate(0,0)"/>
<path d="M0,0 L6,0 L6,2 L16,2 L16,6 L30,6 L30,2 L52,2 L52,4 L54,4 L54,10 L46,10 L46,8 L42,8 L42,10 L34,10 L34,18 L82,18 L82,6 L86,6 L86,2 L90,2 L90,0 L100,0 L100,2 L128,2 L128,8 L114,8 L114,10 L110,10 L110,18 L114,18 L114,22 L122,22 L122,18 L130,18 L130,20 L160,20 L160,616 L-864,616 L-864,162 L-850,162 L-850,158 L-824,158 L-824,162 L-822,162 L-822,164 L-818,164 L-818,162 L-786,162 L-786,168 L-784,168 L-784,162 L-776,162 L-776,164 L-770,164 L-770,158 L-752,158 L-752,160 L-748,160 L-748,162 L-732,162 L-732,164 L-726,164 L-726,162 L-716,162 L-716,160 L-638,160 L-638,162 L-606,162 L-606,164 L-578,164 L-578,162 L-564,162 L-564,164 L-561,162 L-544,162 L-544,164 L-542,164 L-542,162 L-524,162 L-524,160 L-520,160 L-520,156 L-516,156 L-516,154 L-512,154 L-512,152 L-516,152 L-516,150 L-518,150 L-518,142 L-512,142 L-512,146 L-510,146 L-510,148 L-508,148 L-508,146 L-506,146 L-506,144 L-500,144 L-500,146 L-498,146 L-498,144 L-492,144 L-492,148 L-490,148 L-490,146 L-458,146 L-454,150 L-454,148 L-392,148 L-392,146 L-382,146 L-382,148 L-376,148 L-376,150 L-374,150 L-374,146 L-368,146 L-368,144 L-373,143 L-374,142 L-374,136 L-372,136 L-372,134 L-354,134 L-354,132 L-352,132 L-352,130 L-354,130 L-354,120 L-352,120 L-352,114 L-346,114 L-346,128 L-348,128 L-348,130 L-320,130 L-320,128 L-316,128 L-316,126 L-318,126 L-318,118 L-322,118 L-322,112 L-316,112 L-316,110 L-314,110 L-314,106 L-310,106 L-310,94 L-306,94 L-306,90 L-300,90 L-300,92 L-296,92 L-296,102 L-298,102 L-298,106 L-296,106 L-296,112 L-290,112 L-290,110 L-280,110 L-280,112 L-266,112 L-266,114 L-264,114 L-264,120 L-270,120 L-270,122 L-266,122 L-266,128 L-256,128 L-256,126 L-258,126 L-258,120 L-260,120 L-260,113 L-263,113 L-263,107 L-281,107 L-281,105 L-285,105 L-285,95 L-281,95 L-281,91 L-257,91 L-257,107 L-255,107 L-255,109 L-247,109 L-247,103 L-242,103 L-242,98 L-246,98 L-246,92 L-248,92 L-248,90 L-250,90 L-250,84 L-248,84 L-248,82 L-242,82 L-242,78 L-234,78 L-234,74 L-228,74 L-228,76 L-222,76 L-222,78 L-164,78 L-164,80 L-138,80 L-138,78 L-132,78 L-132,76 L-126,76 L-126,78 L-120,78 L-120,80 L-118,80 L-118,86 L-110,86 L-110,82 L-106,82 L-106,70 L-98,70 L-98,54 L-78,54 L-78,56 L-62,56 L-62,40 L-58,40 L-58,38 L-24,38 L-24,36 L-22,36 L-22,6 L-6,6 L-6,2 L0,2 Z M-256,109 Z " fill="#280001" transform="translate(864,408)"/>
<path d="M0,0 L6,0 L6,4 L30,4 L30,8 L34,8 L34,10 L64,10 L64,8 L76,8 L76,6 L80,6 L80,8 L90,8 L90,10 L96,10 L96,8 L106,8 L106,6 L122,6 L122,10 L130,10 L130,6 L142,6 L142,8 L180,8 L180,10 L182,10 L182,12 L188,12 L188,10 L190,10 L190,12 L200,12 L200,10 L208,10 L208,12 L212,12 L212,14 L224,14 L224,16 L232,16 L232,14 L240,14 L240,16 L242,16 L242,22 L250,22 L250,20 L262,20 L262,16 L264,16 L264,18 L284,18 L284,16 L286,16 L286,18 L320,18 L320,20 L330,22 L330,24 L338,24 L338,22 L342,22 L342,24 L358,24 L358,30 L360,30 L360,36 L362,36 L362,38 L370,38 L370,32 L368,32 L369,29 L371,28 L372,24 L374,24 L374,22 L376,22 L376,20 L378,20 L378,18 L398,18 L398,20 L404,20 L404,24 L408,26 L408,28 L410,28 L410,30 L414,30 L414,34 L420,34 L422,30 L424,28 L430,28 L430,24 L452,24 L452,22 L470,21 L470,24 L474,24 L474,26 L484,26 L484,24 L535,24 L535,27 L547,27 L548,24 L566,24 L566,26 L570,26 L570,28 L610,28 L610,26 L622,26 L622,28 L634,28 L634,26 L646,26 L646,28 L650,28 L650,30 L658,30 L658,32 L666,32 L666,34 L680,34 L680,40 L692,40 L692,36 L742,36 L742,38 L748,38 L748,40 L800,40 L800,38 L824,38 L824,36 L834,36 L834,38 L858,38 L858,40 L872,40 L872,38 L882,38 L882,40 L887,40 L888,41 L1024,42 L1024,216 L0,216 Z " fill="#000000" transform="translate(0,808)"/>
<path d="M0,0 L58,0 L88,1 L88,3 L132,3 L158,4 L203,5 L216,6 L219,7 L219,9 L256,9 L388,10 L404,12 L428,13 L534,14 L560,15 L630,16 L652,17 L659,20 L697,21 L704,22 L705,23 L800,24 L810,25 L832,26 L873,27 L873,29 L912,29 L927,30 L928,31 L977,33 L1024,34 L1024,170 L888,170 L882,168 L882,166 L872,166 L872,168 L858,168 L858,166 L834,166 L834,164 L824,164 L824,166 L800,166 L800,168 L748,168 L748,166 L742,166 L742,164 L692,164 L692,168 L680,168 L680,162 L666,162 L666,160 L658,160 L658,158 L650,158 L650,156 L646,156 L646,154 L634,154 L634,156 L622,156 L622,154 L610,154 L610,156 L570,156 L570,154 L566,154 L566,152 L548,153 L547,155 L535,155 L535,152 L492,153 L484,152 L484,154 L474,154 L474,152 L470,152 L470,149 L468,150 L452,150 L452,152 L430,152 L430,156 L423,158 L420,162 L414,162 L414,158 L410,158 L410,156 L408,156 L404,152 L404,148 L398,148 L398,146 L378,146 L378,148 L376,148 L376,150 L374,150 L374,152 L372,152 L371,157 L368,160 L370,160 L370,166 L362,166 L362,164 L360,164 L360,158 L358,158 L358,152 L342,152 L342,150 L338,150 L338,152 L330,152 L330,150 L323,150 L320,148 L320,146 L286,146 L286,144 L284,144 L284,146 L264,146 L264,144 L262,144 L262,148 L250,148 L250,150 L242,150 L242,144 L240,144 L240,142 L232,142 L232,144 L224,144 L224,142 L212,142 L212,140 L208,140 L208,138 L200,138 L200,140 L190,140 L190,138 L188,138 L188,140 L182,140 L182,138 L180,138 L180,136 L142,136 L142,134 L130,134 L130,138 L122,138 L122,134 L106,134 L106,136 L96,136 L96,138 L90,138 L90,136 L80,136 L80,134 L76,134 L76,136 L64,136 L64,138 L34,138 L34,136 L30,136 L30,132 L6,132 L6,128 L0,128 Z " fill="#1F0000" transform="translate(0,680)"/>
<path d="M0,0 L6,0 L6,2 L16,2 L16,6 L30,6 L30,2 L52,2 L52,4 L54,4 L54,10 L46,10 L46,8 L42,8 L42,10 L34,10 L34,18 L82,18 L82,6 L86,6 L86,2 L90,2 L90,0 L100,0 L100,2 L128,2 L128,8 L114,8 L114,10 L110,10 L110,18 L114,18 L114,22 L122,22 L122,18 L130,18 L130,20 L160,20 L160,178 L150,179 L143,178 L123,178 L122,179 L114,179 L114,177 L112,177 L112,179 L110,179 L110,177 L105,178 L103,180 L95,180 L93,179 L85,179 L84,176 L82,177 L75,177 L70,176 L70,173 L65,173 L63,177 L58,176 L56,175 L56,177 L45,178 L44,177 L37,178 L33,179 L28,177 L-14,177 L-15,178 L-20,178 L-21,175 L-22,175 L-29,175 L-32,173 L-82,173 L-89,176 L-132,176 L-134,172 L-143,173 L-144,174 L-151,174 L-152,175 L-161,176 L-166,174 L-202,173 L-203,170 L-207,171 L-210,170 L-216,170 L-223,171 L-230,171 L-238,172 L-260,171 L-264,169 L-271,169 L-273,171 L-288,172 L-288,170 L-292,169 L-293,168 L-293,171 L-295,172 L-352,172 L-361,171 L-367,171 L-369,172 L-384,171 L-576,171 L-578,170 L-608,170 L-608,168 L-648,169 L-672,169 L-684,168 L-684,170 L-745,170 L-745,168 L-758,169 L-759,166 L-761,166 L-762,169 L-767,171 L-771,169 L-776,169 L-776,164 L-770,164 L-770,158 L-752,158 L-752,160 L-748,160 L-748,162 L-732,162 L-732,164 L-726,164 L-726,162 L-716,162 L-716,160 L-638,160 L-638,162 L-606,162 L-606,164 L-578,164 L-578,162 L-564,162 L-564,164 L-561,162 L-544,162 L-544,164 L-542,164 L-542,162 L-524,162 L-524,160 L-520,160 L-520,156 L-516,156 L-516,154 L-512,154 L-512,152 L-516,152 L-516,150 L-518,150 L-518,142 L-512,142 L-512,146 L-510,146 L-510,148 L-508,148 L-508,146 L-506,146 L-506,144 L-500,144 L-500,146 L-498,146 L-498,144 L-492,144 L-492,148 L-490,148 L-490,146 L-458,146 L-454,150 L-454,148 L-392,148 L-392,146 L-382,146 L-382,148 L-376,148 L-376,150 L-374,150 L-374,146 L-368,146 L-368,144 L-373,143 L-374,142 L-374,136 L-372,136 L-372,134 L-354,134 L-354,132 L-352,132 L-352,130 L-354,130 L-354,120 L-352,120 L-352,114 L-346,114 L-346,128 L-348,128 L-348,130 L-320,130 L-320,128 L-316,128 L-316,126 L-318,126 L-318,118 L-322,118 L-322,112 L-316,112 L-316,110 L-314,110 L-314,106 L-310,106 L-310,94 L-306,94 L-306,90 L-300,90 L-300,92 L-296,92 L-296,102 L-298,102 L-298,106 L-296,106 L-296,112 L-290,112 L-290,110 L-280,110 L-280,112 L-266,112 L-266,114 L-264,114 L-264,120 L-270,120 L-270,122 L-266,122 L-266,128 L-256,128 L-256,126 L-258,126 L-258,120 L-260,120 L-260,113 L-263,113 L-263,107 L-281,107 L-281,105 L-285,105 L-285,95 L-281,95 L-281,91 L-257,91 L-257,107 L-255,107 L-255,109 L-247,109 L-247,103 L-242,103 L-242,98 L-246,98 L-246,92 L-248,92 L-248,90 L-250,90 L-250,84 L-248,84 L-248,82 L-242,82 L-242,78 L-234,78 L-234,74 L-228,74 L-228,76 L-222,76 L-222,78 L-164,78 L-164,80 L-138,80 L-138,78 L-132,78 L-132,76 L-126,76 L-126,78 L-120,78 L-120,80 L-118,80 L-118,86 L-110,86 L-110,82 L-106,82 L-106,70 L-98,70 L-98,54 L-78,54 L-78,56 L-62,56 L-62,40 L-58,40 L-58,38 L-24,38 L-24,36 L-22,36 L-22,6 L-6,6 L-6,2 L0,2 Z M-256,109 Z M-758,167 Z " fill="#200000" transform="translate(864,408)"/>
<path d="M0,0 L13,0 L16,1 L17,3 L22,5 L23,6 L37,6 L40,4 L46,4 L46,2 L53,1 L56,1 L58,1 L57,5 L72,6 L99,6 L101,4 L103,3 L109,5 L109,7 L111,6 L118,6 L120,7 L151,8 L167,9 L169,8 L183,8 L188,9 L188,11 L205,12 L202,14 L204,15 L232,15 L241,14 L247,14 L247,12 L253,12 L253,14 L256,15 L267,13 L273,14 L278,13 L280,11 L288,10 L290,8 L299,9 L299,7 L302,6 L303,9 L307,7 L345,7 L346,12 L349,13 L349,15 L353,16 L353,18 L372,17 L381,18 L395,18 L431,19 L434,16 L438,17 L444,19 L448,18 L475,18 L478,17 L487,17 L490,19 L504,20 L533,20 L535,21 L535,25 L550,24 L555,21 L565,21 L567,22 L567,25 L580,23 L581,21 L613,21 L614,18 L619,20 L625,21 L656,21 L663,20 L675,20 L681,22 L681,26 L676,26 L670,24 L665,24 L665,26 L667,26 L667,28 L671,28 L671,30 L685,30 L685,28 L689,28 L689,30 L701,28 L704,26 L709,27 L709,29 L712,27 L729,26 L729,24 L727,24 L727,21 L731,22 L731,25 L747,26 L749,21 L755,19 L759,17 L759,19 L762,19 L762,21 L765,22 L766,25 L773,26 L773,30 L802,31 L806,32 L810,31 L810,33 L818,32 L823,31 L823,58 L687,58 L681,56 L681,54 L671,54 L671,56 L657,56 L657,54 L633,54 L633,52 L623,52 L623,54 L599,54 L599,56 L547,56 L547,54 L541,54 L541,52 L491,52 L491,56 L479,56 L479,50 L465,50 L465,48 L457,48 L457,46 L449,46 L449,44 L445,44 L445,42 L433,42 L433,44 L421,44 L421,42 L409,42 L409,44 L369,44 L369,42 L365,42 L365,40 L347,41 L346,43 L334,43 L334,40 L291,41 L283,40 L283,42 L273,42 L273,40 L269,40 L269,37 L267,38 L251,38 L251,40 L229,40 L229,44 L222,46 L219,50 L213,50 L213,46 L209,46 L209,44 L207,44 L203,40 L203,36 L197,36 L197,34 L177,34 L177,36 L175,36 L175,38 L173,38 L173,40 L171,40 L170,45 L167,48 L169,48 L169,54 L161,54 L161,52 L159,52 L159,46 L157,46 L157,40 L141,40 L141,38 L137,38 L137,40 L129,40 L129,38 L122,38 L119,36 L119,34 L85,34 L85,32 L83,32 L83,34 L63,34 L63,32 L61,32 L61,36 L49,36 L49,38 L41,38 L41,32 L39,32 L39,30 L31,30 L31,32 L23,32 L23,30 L11,30 L11,28 L7,28 L7,26 L-1,26 L-1,28 L-11,28 L-11,26 L-13,26 L-13,28 L-19,28 L-19,26 L-21,26 L-21,24 L-59,24 L-59,22 L-71,22 L-71,26 L-79,26 L-79,22 L-95,22 L-95,24 L-105,24 L-105,26 L-111,26 L-111,24 L-121,24 L-121,22 L-125,22 L-125,24 L-137,24 L-137,26 L-167,26 L-167,24 L-171,24 L-171,20 L-195,20 L-195,16 L-201,16 L-201,2 L-129,2 L-123,3 L-19,3 L-15,4 L-15,6 L-12,6 L-12,4 L-4,2 Z M42,5 L43,7 Z M815,31 Z " fill="#2C0001" transform="translate(201,792)"/>
<path d="M0,0 L9,1 L15,1 L17,2 L17,5 L19,5 L20,2 L21,5 L33,4 L36,2 L37,3 L45,3 L47,2 L59,2 L65,4 L72,2 L87,2 L88,3 L105,2 L120,2 L123,1 L123,3 L129,1 L163,1 L205,2 L216,2 L217,1 L243,0 L259,0 L305,1 L313,2 L351,3 L487,4 L491,5 L491,7 L563,7 L603,8 L631,8 L653,9 L656,10 L675,10 L675,51 L648,51 L643,50 L643,48 L521,46 L478,45 L475,43 L469,38 L459,34 L447,33 L431,33 L429,37 L406,37 L405,34 L405,31 L397,31 L394,29 L385,28 L377,33 L359,34 L353,37 L325,37 L221,35 L211,33 L161,32 L133,30 L129,30 L129,28 L69,28 L69,30 L61,30 L53,28 L3,27 L-7,25 L-10,21 L-11,19 L-15,20 L-21,18 L-21,16 L-27,14 L-27,12 L-20,11 L-19,6 L-17,6 L-16,2 L-5,2 L-3,3 L-3,1 Z M-9,17 Z " fill="#5D0003" transform="translate(349,585)"/>
<path d="M0,0 L66,0 L146,1 L184,2 L198,3 L198,5 L296,5 L333,6 L448,8 L448,10 L534,10 L570,13 L571,17 L575,14 L664,14 L668,15 L668,18 L732,17 L735,16 L746,16 L746,18 L784,18 L802,19 L809,20 L809,22 L820,23 L878,24 L896,25 L978,27 L1024,27 L1024,42 L977,42 L928,40 L927,39 L912,38 L873,37 L873,35 L832,35 L810,34 L800,33 L705,32 L704,31 L697,30 L659,29 L652,26 L630,25 L556,24 L534,23 L428,22 L404,21 L388,19 L256,18 L219,17 L219,15 L203,14 L158,13 L132,12 L88,11 L88,9 L58,9 L0,8 Z " fill="#480103" transform="translate(0,672)"/>
<path d="M0,0 L9,1 L15,1 L17,2 L17,5 L19,5 L20,2 L21,5 L33,4 L36,2 L37,3 L45,3 L47,2 L59,2 L65,4 L72,2 L87,2 L88,3 L105,2 L120,2 L123,1 L123,3 L129,1 L163,1 L205,2 L216,2 L217,1 L243,0 L259,0 L305,1 L313,2 L351,3 L487,4 L491,5 L491,7 L563,7 L603,8 L631,8 L653,9 L656,10 L675,10 L675,13 L643,14 L639,13 L639,11 L610,12 L603,11 L581,11 L577,10 L397,10 L387,9 L339,8 L323,7 L299,8 L291,7 L284,7 L281,6 L279,7 L279,5 L272,6 L269,7 L259,7 L256,7 L247,10 L247,7 L235,8 L233,8 L222,8 L221,11 L219,11 L218,24 L213,24 L213,21 L211,21 L210,25 L209,21 L207,21 L207,23 L205,23 L205,21 L203,21 L204,24 L203,26 L213,27 L213,29 L220,28 L220,30 L235,31 L237,30 L251,29 L253,30 L274,32 L325,32 L327,31 L329,32 L329,30 L331,30 L333,33 L345,34 L355,34 L355,32 L360,29 L367,27 L376,28 L379,21 L386,21 L396,23 L401,26 L404,26 L411,27 L417,22 L419,23 L419,26 L435,25 L441,26 L442,22 L445,22 L445,25 L451,26 L472,27 L475,28 L476,31 L488,33 L488,37 L497,38 L497,41 L559,41 L573,43 L586,44 L598,44 L598,42 L605,42 L606,44 L643,45 L647,46 L675,47 L675,51 L648,51 L643,50 L643,48 L521,46 L478,45 L475,43 L469,38 L459,34 L447,33 L431,33 L429,37 L406,37 L405,34 L405,31 L397,31 L394,29 L385,28 L377,33 L359,34 L353,37 L325,37 L221,35 L211,33 L161,32 L133,30 L129,30 L129,28 L69,28 L69,30 L61,30 L53,28 L3,27 L-7,25 L-10,21 L-11,19 L-15,20 L-21,18 L-21,16 L-27,14 L-27,12 L-20,11 L-19,6 L-17,6 L-16,2 L-5,2 L-3,3 L-3,1 Z M269,5 Z M-9,17 Z M373,27 Z " fill="#4F0004" transform="translate(349,585)"/>
<path d="M0,0 L2,0 L2,2 L4,2 L4,4 L93,5 L111,5 L154,6 L155,10 L192,12 L193,13 L204,13 L210,10 L224,10 L225,11 L250,11 L256,13 L313,14 L320,15 L419,15 L421,14 L429,17 L429,19 L446,19 L454,21 L480,22 L480,41 L458,41 L432,39 L408,38 L398,36 L383,35 L354,34 L348,32 L348,30 L232,30 L212,31 L210,30 L186,27 L152,26 L152,24 L128,23 L120,21 L98,21 L96,22 L85,22 L82,21 L24,20 L1,20 L0,17 L-10,18 L-10,16 L-36,16 L-36,18 L-44,18 L-44,14 L-51,14 L-64,12 L-96,11 L-96,14 L-104,14 L-107,13 L-107,11 L-124,10 L-129,8 L-128,3 L-97,2 L-90,1 L-76,1 L-64,2 L-52,2 L-44,1 Z " fill="#420003" transform="translate(544,808)"/>
<path d="M0,0 L10,1 L110,1 L142,2 L364,2 L380,4 L428,4 L434,7 L434,5 L465,4 L465,3 L493,3 L570,5 L584,7 L722,8 L726,11 L586,10 L548,9 L540,8 L494,7 L478,7 L452,8 L451,9 L432,9 L398,8 L364,8 L358,9 L358,7 L355,9 L332,9 L322,10 L322,8 L314,9 L305,9 L299,11 L292,9 L282,9 L280,10 L272,10 L269,10 L268,11 L256,11 L255,9 L254,11 L252,11 L252,8 L238,8 L232,7 L232,9 L219,9 L218,12 L216,12 L215,17 L210,19 L208,18 L209,20 L214,22 L214,24 L220,23 L220,26 L226,24 L227,28 L230,31 L238,32 L288,33 L296,35 L304,36 L304,34 L364,34 L364,36 L373,35 L396,37 L446,38 L456,40 L560,42 L588,42 L594,39 L612,38 L620,33 L629,34 L632,36 L640,37 L640,40 L642,41 L641,42 L664,42 L666,39 L670,38 L682,38 L694,39 L705,44 L711,48 L713,50 L815,52 L874,53 L878,54 L878,56 L910,57 L910,63 L908,63 L907,65 L907,62 L892,63 L884,63 L879,64 L879,62 L871,62 L870,60 L864,59 L854,59 L854,61 L843,59 L842,61 L836,60 L832,59 L818,59 L814,63 L806,62 L806,60 L799,59 L798,61 L790,61 L790,58 L786,58 L785,56 L781,55 L731,55 L726,54 L706,54 L704,56 L698,56 L696,52 L686,52 L686,50 L658,50 L633,47 L633,45 L624,44 L619,48 L616,49 L603,49 L601,48 L589,49 L586,49 L560,50 L559,49 L436,47 L436,44 L384,44 L362,43 L356,41 L289,41 L280,39 L250,38 L238,36 L226,35 L217,31 L217,26 L211,25 L210,24 L182,23 L182,25 L173,28 L152,29 L143,30 L143,33 L127,33 L122,28 L122,25 L116,24 L110,22 L110,20 L104,22 L94,23 L87,26 L73,27 L66,26 L67,23 L76,23 L76,20 L74,19 L78,20 L78,22 L90,19 L91,17 L94,17 L97,20 L102,16 L102,19 L104,19 L104,15 L110,15 L111,18 L114,17 L119,22 L119,24 L127,23 L130,26 L137,26 L146,25 L150,25 L151,23 L155,23 L155,25 L166,25 L166,27 L173,26 L173,23 L176,20 L180,20 L189,21 L190,19 L193,20 L193,18 L197,16 L202,16 L202,10 L205,9 L206,6 L190,7 L188,10 L179,10 L175,10 L173,7 L162,5 L162,8 L158,8 L158,6 L142,7 L142,5 L121,5 L114,7 L110,6 L106,5 L95,4 L84,4 L82,4 L79,5 L79,3 L58,5 L54,6 L47,6 L46,10 L59,10 L60,13 L58,13 L59,16 L55,15 L49,18 L49,16 L45,17 L45,15 L37,15 L28,11 L7,11 L6,16 L0,16 L-1,14 L-1,2 Z M804,58 Z M226,23 Z " fill="#3D0102" transform="translate(114,579)"/>
<path d="M0,0 L61,0 L79,2 L93,3 L96,4 L117,5 L128,6 L154,4 L174,4 L181,2 L192,2 L197,3 L197,5 L205,6 L206,8 L216,8 L222,4 L232,4 L236,5 L245,4 L246,14 L247,16 L258,18 L260,18 L261,14 L262,10 L267,10 L268,14 L280,13 L282,11 L290,11 L292,12 L292,15 L304,18 L304,16 L314,14 L323,14 L324,18 L329,19 L333,23 L342,24 L345,20 L357,19 L361,20 L360,24 L366,23 L366,21 L373,20 L373,18 L381,18 L380,21 L389,18 L406,18 L412,20 L412,22 L417,24 L427,25 L432,24 L484,24 L484,27 L550,26 L550,24 L566,24 L570,26 L658,28 L669,31 L690,32 L694,33 L743,36 L744,37 L883,37 L892,38 L892,41 L940,42 L940,44 L952,44 L950,46 L888,46 L882,44 L882,42 L872,42 L872,44 L858,44 L858,42 L834,42 L834,40 L824,40 L824,42 L800,42 L800,44 L748,44 L748,42 L742,42 L742,40 L692,40 L692,44 L680,44 L680,38 L666,38 L666,36 L658,36 L658,34 L650,34 L650,32 L646,32 L646,30 L634,30 L634,32 L622,32 L622,30 L610,30 L610,32 L570,32 L570,30 L566,30 L566,28 L548,29 L547,31 L535,31 L535,28 L492,29 L484,28 L484,30 L474,30 L474,28 L470,28 L470,25 L468,26 L452,26 L452,28 L430,28 L430,32 L423,34 L420,38 L414,38 L414,34 L410,34 L410,32 L408,32 L404,28 L404,24 L398,24 L398,22 L378,22 L378,24 L376,24 L376,26 L374,26 L374,28 L372,28 L371,33 L368,36 L370,36 L370,42 L362,42 L362,40 L360,40 L360,34 L358,34 L358,28 L342,28 L342,26 L338,26 L338,28 L330,28 L330,26 L323,26 L320,24 L320,22 L286,22 L286,20 L284,20 L284,22 L264,22 L264,20 L262,20 L262,24 L250,24 L250,26 L242,26 L242,20 L240,20 L240,18 L232,18 L232,20 L224,20 L224,18 L212,18 L212,16 L208,16 L208,14 L200,14 L200,16 L190,16 L190,14 L188,14 L188,16 L182,16 L182,14 L180,14 L180,12 L142,12 L142,10 L130,10 L130,14 L122,14 L122,10 L106,10 L106,12 L96,12 L96,14 L90,14 L90,12 L80,12 L80,10 L76,10 L76,12 L64,12 L64,14 L34,14 L34,12 L30,12 L30,8 L6,8 L6,4 L0,4 Z " fill="#200001" transform="translate(0,804)"/>
<path d="M0,0 L6,1 L14,1 L19,0 L23,1 L25,0 L27,1 L36,1 L49,2 L66,1 L82,2 L130,3 L142,4 L292,4 L292,5 L270,7 L240,8 L238,7 L202,7 L198,8 L193,6 L188,6 L186,8 L178,8 L163,6 L143,6 L140,11 L134,13 L134,11 L125,12 L122,15 L130,15 L129,17 L122,16 L120,23 L116,24 L110,23 L102,26 L98,27 L98,29 L93,30 L83,30 L75,29 L74,25 L72,25 L72,27 L67,28 L17,28 L-4,26 L-6,25 L-13,25 L-20,26 L-24,27 L-37,25 L-37,23 L-44,24 L-44,22 L-51,22 L-54,21 L-54,16 L-52,16 L-52,18 L-50,18 L-50,16 L-48,16 L-47,19 L-46,16 L-44,16 L-44,19 L-39,19 L-40,12 L-38,6 L-36,6 L-36,2 L-24,3 L-23,1 L-19,2 L-12,1 L-10,2 L-10,5 L-7,3 L-1,1 Z M116,22 Z M12,0 Z " fill="#590003" transform="translate(606,590)"/>
<path d="M0,0 L72,0 L78,1 L174,2 L175,4 L181,5 L199,5 L199,3 L203,2 L210,2 L213,4 L230,6 L243,7 L248,9 L248,7 L259,5 L272,6 L306,7 L320,8 L354,9 L362,10 L362,12 L384,12 L387,13 L387,15 L390,16 L387,20 L294,20 L276,19 L270,19 L266,17 L266,19 L262,20 L261,25 L260,28 L256,29 L247,27 L245,24 L245,14 L235,16 L232,15 L222,15 L216,19 L206,19 L205,16 L197,15 L197,13 L180,13 L174,15 L154,15 L128,17 L117,16 L96,15 L89,14 L66,12 L61,11 L0,10 Z " fill="#320002" transform="translate(0,794)"/>
<path d="M0,0 L30,0 L30,14 L34,14 L34,18 L38,18 L38,50 L40,50 L40,56 L36,56 L36,58 L26,58 L26,60 L20,60 L20,58 L6,58 L6,52 L16,52 L16,42 L6,42 L6,40 L-26,40 L-26,38 L-40,38 L-40,24 L-70,24 L-70,32 L-72,32 L-72,36 L-74,36 L-74,42 L-88,42 L-88,54 L-80,54 L-80,56 L-78,56 L-78,58 L-72,58 L-72,74 L-78,74 L-78,76 L-88,76 L-88,58 L-96,58 L-98,54 L-100,54 L-100,46 L-106,46 L-106,38 L-100,38 L-100,36 L-98,36 L-98,34 L-78,34 L-78,30 L-76,30 L-76,28 L-108,28 L-108,26 L-110,26 L-110,20 L-82,20 L-82,18 L-2,18 L-2,2 L0,2 Z " fill="#1C0001" transform="translate(952,300)"/>
<path d="M0,0 L98,0 L145,1 L148,2 L160,3 L222,4 L310,6 L326,7 L387,8 L422,9 L422,11 L444,10 L460,10 L475,11 L475,13 L557,13 L561,17 L561,20 L537,20 L486,19 L485,18 L424,16 L328,15 L300,14 L299,13 L220,12 L205,11 L160,10 L148,9 L88,8 L58,7 L0,6 Z " fill="#600810" transform="translate(0,674)"/>
<path d="M0,0 L11,0 L11,2 L19,0 L20,1 L45,0 L48,1 L48,4 L61,4 L61,7 L82,9 L84,5 L85,4 L106,4 L107,6 L104,6 L104,8 L106,9 L133,8 L145,7 L145,32 L117,32 L107,29 L81,28 L79,25 L71,25 L69,23 L66,26 L56,28 L49,25 L45,25 L37,25 L36,24 L-15,24 L-23,22 L-23,16 L-7,15 L-7,13 L-12,12 L-13,8 L-9,7 L-9,5 L-3,2 L-1,3 Z " fill="#6A0003" transform="translate(879,600)"/>
<path d="M0,0 L5,2 L5,4 L8,3 L20,2 L22,0 L30,0 L33,2 L55,3 L71,2 L84,1 L90,2 L91,4 L127,5 L134,7 L141,6 L143,5 L149,5 L150,4 L159,4 L161,7 L205,7 L211,4 L261,4 L264,6 L271,6 L272,5 L277,5 L273,8 L273,10 L279,8 L321,8 L326,10 L330,9 L337,8 L340,9 L349,9 L349,7 L356,8 L358,4 L364,4 L363,8 L377,8 L378,10 L387,10 L392,11 L397,10 L401,8 L403,9 L403,11 L405,11 L405,9 L407,9 L407,11 L415,10 L416,9 L436,9 L446,10 L453,10 L453,19 L445,20 L434,20 L431,19 L401,18 L381,18 L341,17 L269,16 L269,13 L265,12 L127,11 L113,9 L36,7 L13,7 L13,8 L-23,8 L-23,10 L-29,8 L-77,8 L-93,6 L-315,6 L-315,5 L-278,4 L-177,4 L-75,3 L-74,2 L-62,2 L-53,3 L0,3 Z " fill="#310000" transform="translate(571,576)"/>
<path d="M0,0 L8,0 L12,2 L36,2 L38,1 L45,1 L46,5 L50,3 L51,4 L62,4 L66,5 L86,5 L147,6 L156,7 L158,7 L181,7 L187,9 L207,9 L207,7 L212,7 L212,9 L244,9 L247,10 L333,11 L336,13 L364,13 L365,11 L375,9 L389,10 L392,13 L390,15 L404,14 L404,6 L406,6 L407,13 L412,13 L412,11 L423,11 L433,14 L446,14 L451,12 L450,16 L455,16 L455,11 L460,11 L460,13 L468,13 L470,10 L473,13 L472,15 L474,16 L474,13 L484,11 L484,9 L486,9 L486,12 L492,12 L496,12 L496,15 L517,15 L532,17 L532,15 L543,13 L540,18 L546,17 L546,20 L548,21 L459,22 L455,24 L454,21 L418,18 L365,18 L332,17 L332,15 L274,15 L217,14 L180,13 L82,12 L82,10 L30,9 L-116,7 L-116,3 L-12,2 Z M388,15 Z M392,10 L395,11 L392,12 Z " fill="#340001" transform="translate(116,665)"/>
<path d="M0,0 L58,0 L88,1 L88,3 L132,3 L158,4 L203,5 L216,6 L219,7 L219,9 L256,9 L388,10 L404,12 L428,13 L534,14 L560,15 L630,16 L652,17 L656,19 L576,19 L576,17 L410,17 L355,16 L324,16 L304,15 L257,15 L218,16 L216,15 L204,15 L194,14 L188,15 L176,14 L172,12 L146,11 L144,12 L136,12 L126,13 L112,12 L107,11 L82,10 L82,7 L32,7 L16,8 L2,8 L0,10 Z " fill="#270000" transform="translate(0,680)"/>
<path d="M0,0 L2,0 L2,2 L4,2 L4,4 L85,5 L93,6 L93,8 L82,8 L82,10 L68,10 L68,12 L63,10 L56,10 L49,11 L33,12 L32,18 L85,19 L98,20 L96,22 L85,22 L82,21 L24,20 L1,20 L0,17 L-10,18 L-10,16 L-36,16 L-36,18 L-44,18 L-44,14 L-51,14 L-64,12 L-96,11 L-96,14 L-104,14 L-107,13 L-107,11 L-124,10 L-129,8 L-128,3 L-97,2 L-90,1 L-76,1 L-64,2 L-52,2 L-44,1 Z " fill="#3B0003" transform="translate(544,808)"/>
<path d="M0,0 L15,0 L39,2 L44,4 L44,2 L55,0 L68,1 L102,2 L116,3 L150,4 L158,5 L158,7 L180,7 L183,8 L183,10 L186,11 L183,15 L90,15 L72,14 L66,14 L62,12 L62,14 L58,15 L57,20 L56,23 L52,24 L43,22 L41,19 L41,9 L31,11 L23,8 L17,8 L12,11 L2,11 L-2,7 L-2,1 Z " fill="#3E0005" transform="translate(204,799)"/>
<path d="M0,0 L9,0 L9,2 L13,2 L13,4 L21,4 L21,6 L23,6 L23,9 L25,9 L25,6 L28,7 L29,9 L32,10 L63,11 L63,9 L77,9 L77,13 L82,14 L81,17 L83,16 L91,16 L91,14 L88,13 L88,12 L94,11 L94,14 L103,14 L104,16 L107,15 L107,13 L113,12 L121,12 L119,13 L119,16 L141,16 L151,14 L157,14 L158,12 L155,11 L167,11 L172,12 L175,12 L173,15 L181,16 L204,16 L209,17 L209,19 L214,20 L213,15 L215,13 L221,12 L223,13 L222,17 L243,18 L245,15 L255,15 L258,14 L258,21 L261,20 L273,20 L285,19 L285,22 L273,23 L239,23 L157,21 L139,20 L81,19 L70,17 L70,15 L7,13 L7,11 L-4,12 L-7,13 L-71,13 L-71,10 L-75,9 L-36,9 L-34,4 L-33,2 L-28,2 L-28,4 L-22,3 L-23,6 L-15,7 L-11,6 L-8,7 L-8,2 L-3,4 L-3,2 Z M219,18 L219,20 L221,20 L221,18 Z M180,9 L191,9 L188,12 L187,15 L183,15 L181,16 Z " fill="#380000" transform="translate(739,677)"/>
<path d="M0,0 L36,0 L64,1 L128,2 L158,3 L172,4 L242,6 L319,7 L320,8 L356,9 L356,18 L344,18 L323,16 L314,15 L246,13 L236,11 L132,9 L73,7 L73,5 L36,5 L36,3 L10,3 L0,2 Z " fill="#7F0B16" transform="translate(668,694)"/>
<path d="M0,0 L6,0 L8,1 L8,4 L16,4 L16,6 L24,6 L24,14 L26,14 L28,24 L18,24 L18,28 L8,28 L8,30 L-10,30 L-10,32 L-22,32 L-22,34 L-28,34 L-28,38 L-32,38 L-32,44 L-34,44 L-34,42 L-38,42 L-38,34 L-60,34 L-60,22 L-54,22 L-54,20 L-46,20 L-46,22 L-40,22 L-40,20 L-36,20 L-36,18 L-26,18 L-26,14 L-22,14 L-22,8 L-18,8 L-18,6 L-16,6 L-16,2 L-12,2 L-12,4 L-4,4 L-4,2 L0,2 Z " fill="#000000" transform="translate(60,596)"/>
<path d="M0,0 L6,0 L7,3 L10,2 L15,7 L15,9 L23,8 L26,11 L33,11 L42,10 L46,10 L47,8 L51,8 L51,10 L62,10 L62,12 L69,11 L69,8 L72,5 L76,5 L85,6 L86,4 L89,5 L89,3 L93,1 L98,1 L110,7 L110,9 L115,10 L116,15 L122,17 L124,18 L135,19 L179,20 L186,22 L268,23 L306,26 L323,26 L348,27 L350,28 L403,29 L410,31 L491,31 L492,29 L497,30 L501,31 L510,31 L517,28 L518,24 L527,25 L532,28 L533,30 L537,32 L529,32 L529,30 L520,29 L515,33 L512,34 L499,34 L497,33 L485,34 L482,34 L456,35 L455,34 L332,32 L332,29 L280,29 L258,28 L252,26 L185,26 L176,24 L146,23 L134,21 L122,20 L113,16 L113,11 L107,10 L106,9 L78,8 L78,10 L69,13 L48,14 L39,15 L39,18 L23,18 L18,13 L18,10 L12,9 L6,7 L6,5 L0,7 L-10,8 L-17,11 L-31,12 L-38,11 L-37,8 L-28,8 L-28,5 L-30,4 L-26,5 L-26,7 L-14,4 L-13,2 L-10,2 L-7,5 L-2,1 L-2,4 L0,4 Z " fill="#350001" transform="translate(218,594)"/>
<path d="M0,0 L66,0 L146,1 L184,2 L198,3 L198,5 L296,5 L333,6 L448,8 L448,10 L534,10 L570,13 L571,17 L575,14 L664,14 L668,15 L668,17 L655,16 L588,15 L588,17 L574,19 L562,19 L562,14 L475,14 L460,13 L422,13 L422,11 L387,11 L326,10 L310,9 L222,7 L160,6 L148,5 L145,4 L98,3 L0,2 Z " fill="#480003" transform="translate(0,672)"/>
<path d="M0,0 L14,1 L18,2 L48,3 L57,5 L124,5 L130,7 L152,8 L204,9 L204,12 L275,12 L327,13 L328,14 L354,13 L357,13 L370,12 L371,13 L384,13 L389,10 L392,8 L398,8 L401,10 L401,12 L410,12 L426,14 L454,15 L454,17 L464,17 L466,20 L472,20 L474,18 L494,18 L502,19 L539,19 L539,20 L520,21 L518,23 L505,23 L500,26 L494,25 L493,20 L481,21 L480,22 L462,22 L462,20 L458,19 L422,18 L377,18 L375,17 L374,19 L364,18 L361,18 L361,21 L358,21 L358,18 L276,17 L275,16 L268,15 L255,15 L245,14 L236,15 L227,15 L226,14 L206,14 L142,12 L135,11 L131,12 L131,9 L117,8 L62,9 L55,8 L46,5 L7,4 L5,2 L0,1 Z " fill="#2E0000" transform="translate(346,614)"/>
<path d="M0,0 L26,0 L26,2 L28,2 L28,4 L32,4 L32,6 L34,6 L34,20 L32,20 L32,32 L28,32 L28,40 L20,40 L20,36 L16,36 L16,40 L0,40 L0,36 L-4,36 L-4,32 L-8,32 L-8,16 L-4,16 L-4,12 L-8,12 L-8,6 L-6,6 L-6,4 L0,4 Z " fill="#1C0001" transform="translate(810,374)"/>
<path d="M0,0 L18,0 L38,1 L43,3 L60,4 L92,5 L92,17 L60,17 L60,15 L51,14 L51,12 L40,13 L-2,13 L-8,12 L-30,12 L-36,9 L-36,1 L-4,1 Z " fill="#500108" transform="translate(932,827)"/>
<path d="M0,0 L6,0 L6,51 L1,56 L-4,58 L-18,58 L-27,55 L-34,49 L-36,44 L-38,42 L-39,37 L-39,28 L-37,21 L-29,12 L-21,7 L-9,7 L-9,20 L-18,22 L-23,26 L-23,37 L-17,43 L-7,43 L-1,38 Z " fill="#F8FCFC" transform="translate(1018,172)"/>
<path d="M0,0 L10,1 L28,2 L28,4 L34,5 L34,7 L50,5 L51,4 L64,5 L64,7 L68,6 L68,8 L75,9 L75,7 L87,6 L134,7 L142,10 L148,11 L148,13 L158,15 L183,15 L186,13 L223,12 L230,15 L244,15 L250,14 L266,15 L266,17 L284,17 L284,19 L278,20 L218,20 L218,17 L166,18 L158,19 L149,17 L146,15 L146,13 L140,12 L123,12 L117,14 L114,14 L114,12 L107,11 L107,13 L100,14 L100,16 L94,17 L95,13 L79,14 L76,18 L67,17 L63,14 L61,12 L58,11 L57,8 L48,8 L38,9 L38,11 L29,10 L26,8 L26,5 L16,5 L14,7 L6,8 L2,7 L1,4 L-2,2 L0,2 Z " fill="#260001" transform="translate(266,811)"/>
<path d="M0,0 L4,0 L4,3 L6,3 L7,0 L22,0 L26,3 L128,5 L187,6 L191,7 L191,9 L223,10 L223,16 L221,16 L220,18 L220,15 L205,16 L197,16 L192,17 L192,15 L184,15 L183,13 L177,12 L167,12 L167,14 L156,12 L155,14 L149,13 L145,12 L131,12 L127,16 L119,15 L119,13 L112,12 L111,14 L103,14 L103,11 L99,11 L98,9 L94,8 L44,8 L39,7 L19,7 L17,9 L11,9 L9,5 L-1,5 L-1,3 L-29,3 L-29,2 L-3,1 Z M117,11 Z " fill="#350000" transform="translate(801,626)"/>
<path d="M0,0 L58,0 L88,1 L88,3 L132,3 L158,4 L203,5 L216,6 L219,7 L219,9 L256,9 L388,10 L404,12 L428,13 L534,14 L560,15 L630,16 L652,17 L656,19 L576,19 L576,17 L546,17 L405,15 L396,13 L332,12 L219,11 L212,9 L189,8 L185,9 L176,7 L116,6 L92,5 L86,4 L58,3 L54,2 L0,1 Z " fill="#380001" transform="translate(0,680)"/>
<path d="M0,0 L72,0 L86,1 L164,3 L302,5 L320,6 L402,8 L448,8 L448,12 L412,12 L411,11 L334,10 L264,8 L250,7 L220,6 L156,5 L92,3 L92,5 L128,6 L128,7 L84,7 L80,6 L80,4 L3,4 L-1,3 Z " fill="#67080E" transform="translate(576,691)"/>
<path d="M0,0 L1,3 L27,2 L27,0 L68,1 L84,2 L94,3 L110,3 L136,4 L136,2 L174,2 L179,4 L184,4 L184,6 L196,6 L196,8 L202,9 L202,10 L194,10 L194,12 L184,12 L184,10 L182,10 L182,12 L176,12 L176,10 L174,10 L174,8 L136,8 L136,6 L124,6 L124,10 L116,10 L116,6 L100,6 L100,8 L90,8 L90,10 L84,10 L84,8 L74,8 L74,6 L70,6 L70,8 L58,8 L58,10 L28,10 L28,8 L24,8 L24,4 L0,4 Z " fill="#1D0001" transform="translate(6,808)"/>
<path d="M0,0 L34,0 L34,2 L68,2 L68,0 L74,0 L74,4 L76,4 L76,12 L68,12 L68,14 L0,14 Z " fill="#1C0001" transform="translate(0,836)"/>
<path d="M0,0 L16,0 L62,1 L70,2 L108,3 L244,4 L248,5 L248,7 L168,8 L154,7 L128,7 L70,5 L48,3 L18,2 L18,4 L6,4 L2,5 L-30,5 L-36,4 L-42,5 L-93,6 L-96,5 L-96,3 L-98,4 L-110,4 L-112,3 L-112,1 L-80,1 L-38,2 L-27,2 L-26,1 Z " fill="#480205" transform="translate(592,585)"/>
<path d="M0,0 L15,0 L39,2 L44,4 L44,2 L55,0 L68,1 L102,2 L116,3 L150,4 L158,5 L158,6 L116,6 L101,5 L100,4 L84,4 L76,5 L62,5 L61,6 L65,6 L66,11 L58,12 L58,19 L56,23 L52,24 L43,22 L41,19 L41,9 L31,11 L23,8 L17,8 L12,11 L2,11 L-2,7 L-2,1 Z " fill="#330103" transform="translate(204,799)"/>
<path d="M0,0 L71,0 L72,1 L114,2 L120,3 L174,4 L175,7 L172,10 L140,10 L130,12 L123,13 L120,10 L120,8 L74,8 L71,7 L71,5 L0,4 Z " fill="#3C0105" transform="translate(0,796)"/>
<path d="M0,0 L23,0 L36,2 L52,6 L55,8 L55,10 L62,10 L66,12 L66,14 L104,16 L129,16 L134,17 L156,18 L217,19 L226,21 L250,22 L250,24 L223,24 L218,23 L218,21 L96,19 L53,18 L50,16 L44,11 L34,7 L22,6 L6,6 L4,10 L-19,10 L-20,7 L-20,4 L-6,4 L-6,2 L0,2 Z " fill="#470001" transform="translate(774,612)"/>
<path d="M0,0 L60,0 L72,1 L117,2 L132,3 L211,4 L212,5 L240,6 L336,7 L397,9 L398,12 L340,12 L316,11 L300,9 L168,8 L131,7 L131,5 L115,4 L70,3 L44,2 L0,1 Z " fill="#470104" transform="translate(88,682)"/>
<path d="M0,0 L98,0 L145,1 L145,2 L76,2 L76,4 L91,5 L149,6 L162,7 L204,8 L205,10 L160,10 L148,9 L88,8 L58,7 L0,6 Z " fill="#53060D" transform="translate(0,674)"/>
<path d="M0,0 L10,1 L110,1 L110,2 L83,3 L79,5 L79,3 L58,5 L54,6 L47,6 L46,10 L59,10 L60,13 L58,13 L59,16 L55,15 L49,18 L49,16 L45,17 L45,15 L37,15 L28,11 L7,11 L6,16 L0,16 L-1,14 L-1,2 Z " fill="#320104" transform="translate(114,579)"/>
<path d="M0,0 L1,2 L8,3 L11,2 L11,4 L13,5 L12,10 L9,10 L9,12 L11,12 L11,16 L8,17 L13,17 L13,19 L18,20 L17,17 L22,16 L27,15 L29,17 L23,17 L23,19 L19,19 L19,21 L11,21 L11,19 L7,19 L7,23 L5,23 L5,25 L1,25 L1,31 L-3,31 L-3,35 L-13,35 L-13,37 L-17,37 L-17,39 L-23,39 L-23,37 L-31,37 L-31,39 L-37,39 L-37,29 L-21,27 L-19,22 L-17,20 L-9,19 L-9,17 L0,14 L1,13 L1,6 Z M27,14 Z " fill="#1F0000" transform="translate(37,579)"/>
<path d="M0,0 L7,0 L16,2 L20,4 L27,4 L30,2 L34,2 L34,4 L51,4 L60,5 L62,8 L97,10 L98,13 L-1,13 L-1,11 L-5,10 L-5,6 L-2,7 L-2,9 L1,9 Z " fill="#4A0005" transform="translate(637,814)"/>
<path d="M0,0 L47,0 L52,1 L52,3 L60,3 L64,2 L97,3 L104,5 L103,8 L90,10 L56,10 L47,9 L46,6 L33,8 L0,8 Z " fill="#500005" transform="translate(754,824)"/>
<path d="M0,0 L11,0 L8,3 L7,6 L3,6 L1,7 Z M40,3 L43,4 L42,8 L63,9 L65,6 L75,6 L78,5 L78,12 L81,11 L93,11 L105,10 L105,13 L93,14 L59,14 L-23,12 L-41,11 L-99,10 L-99,9 L-38,8 L1,7 L24,7 L29,8 L29,10 L34,11 L33,6 L35,4 Z M39,9 L39,11 L41,11 L41,9 Z " fill="#3E0000" transform="translate(919,686)"/>
<path d="M0,0 L66,0 L146,1 L184,2 L198,3 L198,5 L296,5 L320,6 L326,7 L326,9 L262,8 L222,7 L160,6 L148,5 L145,4 L98,3 L0,2 Z " fill="#520207" transform="translate(0,672)"/>
<path d="M0,0 L6,1 L8,2 L8,4 L2,4 L2,42 L-5,48 L-15,48 L-22,41 L-22,30 L-16,25 L-14,24 L-7,24 L-7,11 L-19,11 L-15,8 L-7,8 L-2,9 L-2,2 L3,3 L3,1 Z " fill="#070202" transform="translate(1016,168)"/>
<path d="M0,0 L37,0 L42,1 L119,1 L123,5 L123,8 L99,8 L48,7 L47,6 L14,5 L-12,3 L-12,1 Z " fill="#62080F" transform="translate(438,686)"/>
<path d="M0,0 L7,0 L6,4 L20,4 L21,6 L30,6 L35,7 L40,6 L44,4 L46,5 L46,7 L48,7 L48,5 L50,5 L50,7 L58,6 L59,5 L79,5 L89,6 L96,6 L96,10 L25,10 L4,9 L0,8 L-12,9 L-58,9 L-68,8 L-70,7 L-79,6 L-78,4 L-36,4 L-31,6 L-27,5 L-20,4 L-17,5 L-8,5 L-8,3 L-1,4 Z " fill="#2E0000" transform="translate(928,580)"/>
<path d="M0,0 L13,0 L21,2 L40,2 L44,1 L60,1 L60,3 L107,3 L118,5 L120,9 L116,12 L96,9 L88,10 L62,9 L46,8 L12,6 L12,4 L2,4 L2,6 L-5,6 L-5,3 L-1,3 Z " fill="#470106" transform="translate(452,811)"/>
<path d="M0,0 L33,0 L70,1 L74,2 L140,3 L182,4 L197,6 L224,8 L224,10 L177,10 L128,8 L127,7 L112,6 L73,5 L73,3 L32,3 L10,2 L0,1 Z " fill="#3D0001" transform="translate(800,704)"/>
<path d="M0,0 L54,0 L58,1 L86,2 L92,3 L116,4 L176,5 L188,7 L193,6 L212,7 L219,9 L332,10 L396,11 L396,12 L220,12 L214,10 L167,9 L159,7 L124,7 L112,6 L85,5 L74,4 L0,4 Z " fill="#300000" transform="translate(0,681)"/>
<path d="M0,0 L6,0 L6,38 L-2,38 L-8,35 L-13,30 L-14,27 L-14,12 L-10,6 L-6,2 Z " fill="#B0ABAB" transform="translate(1018,260)"/>
<path d="M0,0 L14,0 L32,3 L76,4 L76,5 L69,6 L76,9 L75,11 L50,11 L44,8 L44,5 L30,7 L26,9 L-10,9 L-10,8 L-36,8 L-38,7 L-37,3 L-4,2 Z " fill="#5A0007" transform="translate(938,829)"/>
<path d="M0,0 L14,0 L15,1 L40,1 L46,3 L103,4 L110,5 L126,5 L172,6 L170,8 L140,9 L139,10 L109,10 L102,8 L90,7 L87,6 L-14,6 L-18,5 L-50,4 L-50,2 L-54,1 L-18,2 L-17,3 L-6,3 Z " fill="#3A0001" transform="translate(754,818)"/>
<path d="M0,0 L72,0 L92,1 L180,2 L208,3 L296,5 L296,7 L198,7 L198,5 L146,4 L0,2 Z " fill="#3E0002" transform="translate(0,670)"/>
<path d="M0,0 L87,0 L90,1 L106,3 L114,6 L114,8 L118,9 L118,11 L116,12 L46,12 L44,11 L44,9 L36,11 L18,11 L15,12 L-2,12 L-4,11 L-5,5 L0,3 L0,9 L33,8 L37,7 L46,7 L47,9 L56,10 L90,10 L103,8 L104,6 L97,5 L64,4 L54,5 L52,4 L52,2 L0,1 Z " fill="#480104" transform="translate(754,823)"/>
<path d="M0,0 L71,0 L71,3 L73,4 L67,5 L67,3 L64,5 L41,5 L31,6 L31,4 L23,5 L14,5 L8,7 L1,5 L-9,5 L-11,6 L-19,6 L-22,6 L-23,7 L-35,7 L-36,5 L-37,7 L-39,7 L-39,4 L-53,4 L-59,3 L-59,5 L-71,5 L-73,3 L-62,2 L-61,1 L-9,1 Z " fill="#460206" transform="translate(405,583)"/>
<path d="M0,0 L87,0 L87,5 L106,4 L114,3 L157,3 L171,4 L171,5 L101,6 L100,8 L181,9 L181,11 L229,12 L229,13 L181,13 L177,12 L155,11 L81,10 L59,9 L11,8 L11,7 L62,7 L86,8 L85,5 L82,3 L82,1 L57,2 L5,2 L0,1 Z " fill="#570307" transform="translate(475,686)"/>
<path d="M0,0 L4,0 L4,8 L8,8 L8,12 L12,12 L12,16 L16,16 L16,20 L20,20 L20,24 L16,24 L16,32 L12,32 L12,34 L8,34 L8,36 L4,36 L4,34 L-32,34 L-32,32 L-18,32 L-18,30 L-16,30 L-16,28 L0,28 Z " fill="#020000" transform="translate(834,514)"/>
<path d="M0,0 L95,0 L105,1 L127,2 L168,3 L168,5 L207,5 L207,6 L193,7 L183,8 L171,7 L119,6 L79,5 L67,5 L63,3 L43,2 L0,1 Z " fill="#260000" transform="translate(705,704)"/>
<path d="M0,0 L59,0 L89,1 L89,3 L171,3 L172,4 L210,5 L217,6 L218,8 L180,8 L166,6 L91,6 L85,5 L69,4 L5,2 L0,1 Z " fill="#2C0000" transform="translate(487,696)"/>
<path d="M0,0 L2,0 L3,7 L8,7 L8,5 L19,5 L29,8 L42,8 L47,6 L46,10 L51,10 L51,5 L56,5 L56,7 L64,7 L66,4 L69,7 L68,9 L70,10 L70,7 L80,5 L80,3 L82,3 L82,6 L88,6 L92,6 L92,9 L113,9 L128,11 L128,9 L139,7 L136,12 L142,11 L142,13 L103,13 L93,12 L90,13 L90,11 L72,12 L67,13 L57,13 L57,11 L53,10 L51,12 L44,12 L37,11 L24,11 L24,9 L1,9 L0,8 Z " fill="#310000" transform="translate(520,671)"/>
<path d="M0,0 L30,0 L148,2 L152,3 L152,5 L184,6 L184,12 L182,12 L181,14 L181,10 L156,10 L156,8 L149,8 L149,6 L116,6 L74,5 L64,3 L0,1 Z " fill="#400000" transform="translate(840,630)"/>
<path d="M0,0 L36,0 L64,1 L128,2 L158,3 L172,4 L172,5 L149,5 L125,4 L82,3 L82,5 L133,6 L133,8 L153,8 L153,9 L132,9 L73,7 L73,5 L36,5 L36,3 L10,3 L0,2 Z " fill="#710710" transform="translate(668,694)"/>
<path d="M0,0 L9,1 L10,6 L-86,6 L-92,5 L-164,4 L-164,2 L-86,2 L-86,4 L-69,3 L-46,3 L-35,4 L-35,2 L-16,1 L-4,1 Z " fill="#270000" transform="translate(164,790)"/>
<path d="M0,0 L26,0 L27,1 L63,2 L63,11 L51,11 L30,9 L21,8 L-47,6 L-55,5 L-55,4 L-22,4 L-13,5 L15,5 L17,3 L25,3 L25,1 L0,1 Z " fill="#78060F" transform="translate(961,701)"/>
<path d="M0,0 L43,0 L48,2 L88,3 L88,5 L86,5 L86,7 L74,7 L73,8 L59,8 L59,6 L56,5 L49,5 L46,8 L37,8 L25,5 L25,7 L7,7 L2,8 L2,6 L-5,6 L-4,2 Z M78,7 Z " fill="#1B0000" transform="translate(442,697)"/>
<path d="M0,0 L12,0 L12,13 L3,15 L-2,19 L-2,30 L-1,32 L-5,33 L-6,17 L-5,15 L-3,15 L-4,11 L-1,7 L-5,7 L-5,9 L-9,9 L-11,18 L-13,18 L-12,39 L-9,40 L-9,43 L-3,46 L-2,49 L-7,47 L-13,42 L-15,37 L-17,35 L-18,30 L-18,21 L-16,14 L-8,5 Z " fill="#F9FDFD" transform="translate(997,179)"/>
<path d="M0,0 L2,1 L2,5 L20,7 L70,7 L70,9 L78,8 L82,8 L90,11 L99,10 L100,7 L104,6 L104,8 L112,8 L114,11 L140,12 L142,14 L109,14 L108,11 L102,12 L101,14 L89,14 L76,13 L62,11 L0,10 L0,7 L-6,6 L-6,3 L-2,4 Z " fill="#610107" transform="translate(846,616)"/>
<path d="M0,0 L8,1 L8,3 L13,3 L14,4 L43,5 L64,7 L68,8 L110,10 L118,11 L140,12 L140,13 L66,13 L66,12 L56,11 L56,9 L16,9 L8,8 L7,4 L0,1 Z " fill="#320305" transform="translate(884,837)"/>
<path d="M0,0 L42,0 L60,1 L142,3 L188,3 L188,7 L152,7 L151,6 L74,5 L42,4 L41,2 L0,1 Z " fill="#5B0205" transform="translate(836,696)"/>
<path d="M0,0 L47,0 L47,15 L37,16 L34,17 L35,13 L34,9 L25,10 L25,8 L21,10 L21,8 L13,11 L10,10 L13,7 L10,6 L10,4 L7,5 L7,1 L0,1 Z M35,7 Z M9,11 Z " fill="#270000" transform="translate(977,714)"/>
<path d="M0,0 L16,0 L16,6 L22,6 L22,8 L24,8 L24,18 L20,18 L20,16 L18,16 L18,24 L12,24 L12,20 L10,20 L10,18 L6,18 L6,16 L4,16 L4,18 L-2,18 L-2,10 L6,10 L6,6 L0,6 Z " fill="#1B0002" transform="translate(1000,390)"/>
<path d="M0,0 L14,0 L18,1 L18,3 L33,4 L91,5 L104,6 L146,7 L147,9 L102,9 L90,8 L30,7 L30,5 L7,5 L-16,4 L-20,3 L-20,1 Z " fill="#5C0812" transform="translate(58,675)"/>
<path d="M0,0 L48,0 L74,1 L144,2 L166,3 L170,5 L90,5 L90,3 L60,3 L1,2 Z " fill="#410001" transform="translate(486,694)"/>
<path d="M0,0 L6,0 L6,3 L12,5 L37,5 L31,2 L22,1 L22,0 L48,0 L48,10 L16,10 L16,8 L7,7 L7,5 L-4,6 L-20,6 L-34,5 L-34,3 L-12,3 L-8,1 Z " fill="#550004" transform="translate(976,834)"/>
<path d="M0,0 L66,0 L146,1 L184,2 L198,3 L198,4 L145,4 L98,3 L0,2 Z " fill="#4A0207" transform="translate(0,672)"/>
<path d="M0,0 L9,0 L15,1 L31,0 L139,0 L139,1 L129,2 L103,3 L5,4 L0,2 Z " fill="#340000" transform="translate(745,837)"/>
<path d="M0,0 L111,0 L114,1 L142,2 L164,2 L182,1 L184,2 L184,5 L176,6 L165,6 L162,5 L132,4 L112,4 L72,3 L0,2 Z " fill="#400001" transform="translate(840,590)"/>
<path d="M0,0 L1,2 L-1,6 L-4,6 L-4,11 L2,12 L2,13 L-29,13 L-33,11 L-36,8 L-36,11 L-38,11 L-38,8 L-40,8 L-40,6 L-29,5 L-28,1 L-26,1 L-26,3 L-24,3 L-24,1 L-22,1 L-22,3 L-20,3 L-20,1 L-18,1 L-18,3 L-16,3 L-16,1 L-14,1 L-14,3 L-12,3 L-12,1 L-10,1 L-10,3 L-8,3 L-8,1 L-6,1 L-5,5 L-2,4 Z " fill="#300001" transform="translate(800,675)"/>
<path d="M0,0 L148,0 L148,1 L126,3 L96,4 L94,3 L58,3 L54,4 L49,2 L44,2 L42,4 L34,4 L19,2 L0,2 Z " fill="#540205" transform="translate(750,594)"/>
<path d="M0,0 L25,0 L30,1 L30,3 L38,3 L42,2 L52,2 L65,3 L72,6 L72,7 L32,7 L31,6 L24,5 L14,5 L11,6 L1,6 L-1,4 Z " fill="#5A0207" transform="translate(776,824)"/>
<path d="M0,0 L12,0 L12,4 L21,5 L22,6 L55,8 L70,7 L70,12 L44,12 L36,10 L19,9 L19,7 L10,5 L9,6 L-26,6 L-26,5 L-4,3 Z " fill="#330000" transform="translate(954,818)"/>
<path d="M0,0 L6,0 L6,5 L-2,6 L-2,8 L-4,8 L-4,10 L-7,12 L-8,15 L-8,23 L-6,30 L0,32 L0,34 L6,34 L6,38 L-2,38 L-8,35 L-13,30 L-14,27 L-14,12 L-10,6 L-6,2 Z " fill="#D9D4D4" transform="translate(1018,260)"/>
<path d="M0,0 L56,0 L159,3 L172,4 L172,5 L152,5 L92,4 L14,2 L0,1 Z " fill="#5A0309" transform="translate(648,691)"/>
<path d="M0,0 L29,0 L31,1 L56,2 L57,3 L89,4 L97,5 L127,6 L127,9 L105,9 L79,7 L55,6 L45,4 L30,3 L1,2 Z " fill="#3D0103" transform="translate(897,840)"/>
<path d="M0,0 L16,0 L17,2 L3,3 L-9,3 L-9,6 L-2,6 L2,7 L2,9 L10,9 L12,10 L42,11 L42,12 L6,12 L-12,11 L-18,11 L-22,9 L-22,11 L-26,12 L-26,9 L-22,6 L-19,6 L-19,3 L-23,3 L-22,1 L-8,1 Z " fill="#3C0106" transform="translate(288,802)"/>
<path d="M0,0 L95,0 L105,1 L127,2 L168,3 L168,4 L95,4 L95,2 L43,2 L0,1 Z " fill="#2F0001" transform="translate(705,704)"/>
<path d="M0,0 L14,0 L27,1 L29,4 L29,8 L22,9 L9,9 L-1,7 L-1,5 L-12,4 L-12,1 Z " fill="#460104" transform="translate(291,804)"/>
<path d="M0,0 L23,0 L36,2 L52,6 L55,8 L55,10 L62,10 L66,12 L66,14 L50,14 L47,10 L47,7 L36,5 L23,4 L2,4 L-12,7 L-20,6 L-20,4 L-6,4 L-6,2 L0,2 Z " fill="#4B0003" transform="translate(774,612)"/>
<path d="M0,0 L18,0 L18,2 L20,2 L20,14 L2,14 L2,6 L0,6 Z " fill="#020000" transform="translate(892,468)"/>
<path d="M0,0 L5,0 L12,3 L26,3 L32,2 L48,3 L48,5 L66,5 L66,7 L60,8 L22,8 L2,5 L2,3 L-4,3 L-4,1 Z " fill="#2B0002" transform="translate(484,823)"/>
<path d="M0,0 L4,1 L5,5 L9,5 L10,10 L2,11 L2,18 L1,19 L-11,19 L-13,18 L-13,12 L-9,4 L-1,4 Z " fill="#400204" transform="translate(260,800)"/>
<path d="M0,0 L47,0 L44,3 L43,1 L22,3 L18,4 L11,4 L10,8 L23,8 L24,11 L22,11 L23,14 L20,14 L20,12 L11,11 L9,9 L-2,10 L-6,7 L-4,5 L-6,4 L-6,1 Z " fill="#380205" transform="translate(150,581)"/>
<path d="M0,0 L33,0 L36,1 L59,1 L64,2 L64,4 L15,4 L-3,3 L-61,2 L-61,1 Z " fill="#470001" transform="translate(881,694)"/>
<path d="M0,0 L26,0 L26,4 L18,4 L18,12 L0,12 Z " fill="#020000" transform="translate(808,506)"/>
<path d="M0,0 L24,0 L36,1 L37,5 L41,2 L130,2 L134,3 L134,5 L121,4 L54,3 L54,5 L40,7 L28,7 L28,2 L10,2 L0,1 Z " fill="#430002" transform="translate(534,684)"/>
<path d="M0,0 L8,0 L8,4 L6,4 L7,14 L9,18 L-2,18 L-2,16 L-8,16 L-8,18 L-10,18 L-10,14 L-8,14 L-8,6 L-6,6 L-6,2 L0,2 Z " fill="#010000" transform="translate(452,766)"/>
<path d="M0,0 L11,0 L14,1 L25,2 L28,3 L28,5 L32,5 L32,7 L17,8 L12,11 L2,11 L-2,7 L-2,1 Z " fill="#390104" transform="translate(204,799)"/>
<path d="M0,0 L30,0 L34,2 L80,2 L80,3 L54,4 L53,5 L34,5 L-36,3 L-36,2 L0,2 Z " fill="#3F0205" transform="translate(512,583)"/>
<path d="M0,0 L12,0 L12,4 L24,4 L24,6 L22,6 L22,8 L20,8 L20,10 L-10,10 L-10,8 L-8,8 L-8,4 L0,4 Z " fill="#020000" transform="translate(970,550)"/>
<path d="M0,0 L22,0 L30,2 L49,3 L54,4 L54,6 L88,6 L102,8 L102,9 L50,8 L48,7 L30,6 L30,4 L20,4 L19,3 L2,2 Z " fill="#330102" transform="translate(642,828)"/>
<path d="M0,0 L8,0 L13,1 L13,19 L3,21 L1,26 L-2,26 L-1,36 L-6,32 L-6,21 L0,16 L2,15 L9,15 L9,2 L-3,2 Z " fill="#3C141B" transform="translate(1000,177)"/>
<path d="M0,0 L26,0 L26,16 L28,16 L28,18 L34,18 L34,12 L40,12 L40,13 L35,13 L35,19 L27,19 L27,17 L25,17 L25,1 L1,1 L1,5 L-3,5 L-3,15 L2,14 L2,16 L19,17 L19,23 L22,23 L22,30 L24,30 L24,36 L26,36 L26,38 L16,38 L16,32 L12,32 L12,30 L18,30 L18,18 L0,18 L0,16 L-4,16 L-4,4 L0,4 Z M26,19 Z " fill="#150001" transform="translate(582,498)"/>
<path d="M0,0 L8,0 L11,1 L11,4 L16,4 L15,7 L76,7 L76,8 L14,8 L8,6 L8,4 L-2,4 L-2,6 L-16,6 L-16,4 L-40,4 L-40,3 L-12,1 L-1,1 Z " fill="#190102" transform="translate(874,842)"/>
<path d="M0,0 L7,0 L16,2 L17,5 L20,6 L19,10 L14,10 L14,12 L-1,13 L-1,11 L-5,10 L-5,6 L-2,7 L-2,9 L1,9 Z " fill="#4E0209" transform="translate(637,814)"/>
<path d="M0,0 L32,0 L32,2 L34,2 L34,8 L32,8 L32,4 L8,4 L8,8 L4,8 L4,12 L0,12 L0,14 L-2,14 L-2,4 L0,4 Z " fill="#040000" transform="translate(950,738)"/>
<path d="M0,0 L28,0 L28,2 L64,2 L64,4 L56,5 L56,7 L30,7 L30,5 L20,4 L18,3 L0,2 Z " fill="#530001" transform="translate(960,596)"/>
<path d="M0,0 L51,0 L103,1 L131,2 L129,4 L101,4 L57,3 L49,2 L0,1 Z " fill="#460002" transform="translate(571,620)"/>
<path d="M0,0 L2,0 L2,5 L15,5 L17,6 L17,4 L15,3 L17,0 L23,0 L24,6 L55,5 L55,8 L66,9 L67,12 L72,12 L72,13 L64,13 L64,11 L57,11 L54,9 L54,7 L20,7 L20,5 L18,5 L18,7 L-2,7 L-2,5 L-4,5 L-4,9 L-16,9 L-16,8 L-6,7 L-5,1 Z " fill="#180000" transform="translate(266,819)"/>
<path d="M0,0 L75,0 L84,1 L83,3 L31,3 L9,2 L0,1 Z " fill="#8D0819" transform="translate(839,701)"/>
<path d="M0,0 L27,1 L30,1 L33,7 L29,8 L11,8 L1,7 Z " fill="#510209" transform="translate(667,818)"/>
<path d="M0,0 L40,0 L72,1 L72,2 L10,3 L32,4 L32,5 L5,5 L-17,4 L-18,2 Z " fill="#830713" transform="translate(838,699)"/>
<path d="M0,0 L71,0 L71,3 L-5,3 L-1,1 Z " fill="#420509" transform="translate(405,583)"/>
<path d="M0,0 L43,0 L104,1 L114,3 L114,4 L74,4 L70,3 L0,1 Z " fill="#640108" transform="translate(800,703)"/>
<path d="M0,0 L26,0 L68,1 L83,3 L110,5 L110,6 L83,6 L68,5 L66,4 L35,3 L0,1 Z " fill="#5C0207" transform="translate(914,707)"/>
<path d="M0,0 L36,0 L64,1 L67,3 L63,4 L36,4 L10,3 L0,2 Z " fill="#790D18" transform="translate(668,694)"/>
<path d="M0,0 L17,0 L17,2 L13,2 L13,5 L20,5 L20,3 L30,3 L30,5 L50,5 L50,6 L-2,6 L-14,4 L-13,1 Z " fill="#400105" transform="translate(434,812)"/>
<path d="M0,0 L9,1 L12,3 L20,4 L20,6 L11,5 L2,4 L2,6 L-2,7 L-2,9 L-4,10 L-32,10 L-30,8 L-26,6 L-8,5 Z " fill="#440000" transform="translate(734,612)"/>
<path d="M0,0 L10,1 L34,4 L34,6 L28,7 L-2,7 L-6,5 L-5,2 Z " fill="#450107" transform="translate(334,806)"/>
<path d="M0,0 L62,0 L122,1 L132,2 L132,3 L118,4 L96,4 L96,2 L61,2 L0,1 Z " fill="#540107" transform="translate(326,681)"/>
<path d="M0,0 L33,0 L70,1 L74,2 L114,3 L114,4 L73,4 L32,3 L10,2 L0,1 Z " fill="#450102" transform="translate(800,704)"/>
<path d="M0,0 L74,0 L116,1 L117,3 L72,3 L60,2 L0,1 Z " fill="#56070C" transform="translate(88,681)"/>
<path d="M0,0 L16,0 L16,9 L2,9 L2,11 L-7,10 L-10,7 L0,6 Z " fill="#1B0000" transform="translate(127,783)"/>
<path d="M0,0 L4,1 L28,1 L34,3 L52,4 L52,5 L44,6 L29,6 L6,5 L2,4 L2,2 L-13,3 L-28,3 L-28,1 Z " fill="#570105" transform="translate(926,594)"/>
<path d="M0,0 L8,0 L8,2 L10,2 L10,5 L20,5 L20,3 L26,3 L26,5 L28,5 L27,14 L34,14 L34,15 L26,15 L26,9 L24,9 L24,7 L16,7 L16,9 L8,9 L8,7 L-4,7 L-4,5 L-8,5 L-8,3 L0,2 Z " fill="#1A0001" transform="translate(216,815)"/>
<path d="M0,0 L4,0 L4,5 L-3,7 L-6,11 L-5,21 L-3,23 L4,24 L4,29 L-2,29 L-2,27 L-6,26 L-10,22 L-11,18 L-11,10 L-8,5 L-6,5 L-6,3 L-4,3 L-4,1 Z " fill="#2F2B2B" transform="translate(1020,265)"/>
<path d="M0,0 L1,2 L-1,2 L-1,5 L-3,5 L-5,14 L-7,14 L-6,35 L-3,36 L-3,39 L3,42 L4,45 L-1,43 L-7,38 L-9,33 L-11,31 L-12,26 L-12,17 L-10,10 L-2,1 Z " fill="#A7C9C8" transform="translate(991,183)"/>
<path d="M0,0 L5,0 L5,41 L1,40 Z " fill="#F8FDFC" transform="translate(1019,173)"/>
<path d="M0,0 L62,0 L68,1 L68,3 L0,3 Z " fill="#190305" transform="translate(0,847)"/>
<path d="M0,0 L5,2 L5,4 L0,6 L-9,7 L-12,6 L-75,5 L-74,2 L-62,2 L-53,3 L0,3 Z " fill="#2C0000" transform="translate(571,576)"/>
<path d="M0,0 L41,0 L41,3 L39,4 L2,4 L0,3 Z " fill="#670C14" transform="translate(487,688)"/>
<path d="M0,0 L35,0 L35,2 L57,1 L73,1 L88,2 L88,3 L29,3 L29,5 L21,5 L21,2 L2,2 Z " fill="#5C030B" transform="translate(387,683)"/>
<path d="M0,0 L8,0 L9,4 L12,4 L11,8 L9,9 L-4,9 L-15,8 L-15,4 L-6,3 L-2,2 L-2,5 L0,5 Z " fill="#1A0001" transform="translate(203,781)"/>
<path d="M0,0 L37,0 L37,2 L62,2 L96,3 L96,4 L58,4 L16,3 L0,2 Z " fill="#5A0106" transform="translate(704,699)"/>
<path d="M0,0 L6,0 L6,2 L16,2 L16,6 L30,6 L30,2 L52,2 L52,4 L54,4 L54,10 L46,10 L46,8 L42,8 L42,10 L34,10 L34,9 L39,8 L41,7 L39,4 L31,3 L31,7 L15,7 L15,3 L5,3 L5,1 L0,2 Z M4,3 Z " fill="#180001" transform="translate(864,408)"/>
<path d="M0,0 L22,0 L70,1 L70,3 L-1,3 Z " fill="#6E0F15" transform="translate(576,691)"/>
<path d="M0,0 L28,0 L28,6 L14,6 L14,8 L10,8 L10,16 L14,16 L14,20 L22,20 L22,16 L30,16 L29,18 L23,17 L23,21 L13,21 L13,17 L9,17 L9,6 L13,5 L12,1 L0,1 Z " fill="#180001" transform="translate(964,410)"/>
<path d="M0,0 L40,0 L40,6 L29,6 L29,4 L6,3 L0,2 Z " fill="#900618" transform="translate(984,705)"/>
<path d="M0,0 L49,0 L50,3 L0,3 Z " fill="#680B15" transform="translate(93,677)"/>
<path d="M0,0 L75,0 L92,2 L92,3 L74,3 L28,2 L0,1 Z " fill="#340101" transform="translate(180,672)"/>
<path d="M0,0 L6,1 L8,2 L8,4 L2,4 L2,42 L-3,47 L-5,46 L-2,43 L-2,2 L3,3 L3,1 Z " fill="#24383B" transform="translate(1016,168)"/>
<path d="M0,0 L20,0 L19,2 L1,1 L1,17 L-1,17 L-2,23 L1,23 L1,29 L-3,29 L-4,26 L-7,29 L-11,29 L-11,33 L-20,33 L-20,32 L-12,32 L-12,28 L-8,28 L-8,16 L0,16 Z " fill="#170001" transform="translate(766,462)"/>
<path d="M0,0 L6,0 L6,1 L1,1 L1,5 L-15,5 L-15,36 L-19,38 L-50,38 L-52,40 L-55,39 L-55,55 L-72,55 L-72,54 L-56,54 L-56,38 L-52,38 L-52,36 L-18,36 L-18,34 L-16,34 L-16,4 L0,4 Z " fill="#140001" transform="translate(858,410)"/>
<path d="M0,0 L1,2 L0,15 L3,14 L2,13 L2,5 L4,5 L6,16 L7,19 L13,21 L13,23 L19,23 L19,27 L11,27 L5,24 L0,19 L-1,16 L-1,1 Z " fill="#CECACA" transform="translate(1005,271)"/>
<path d="M0,0 L43,0 L57,1 L57,2 L-13,3 L-14,5 L-10,6 L-16,6 L-17,3 L-15,3 L-15,1 L-4,1 Z " fill="#58080B" transform="translate(589,689)"/>
<path d="M0,0 L14,0 L15,1 L64,3 L64,4 L7,5 L1,4 Z " fill="#290000" transform="translate(913,710)"/>
<path d="M0,0 L2,0 L2,10 L-1,10 L-1,12 L-9,12 L-10,11 L-23,9 L-27,5 L-22,6 L-8,6 L-3,4 Z " fill="#230509" transform="translate(1022,223)"/>
<path d="M0,0 L32,0 L32,6 L34,6 L34,0 L42,0 L41,2 L38,3 L36,7 L32,9 L31,7 L31,1 L28,1 L28,3 L-4,3 L0,2 Z M5,1 Z " fill="#190001" transform="translate(46,570)"/>
<path d="M0,0 L48,0 L49,3 L35,4 L-8,4 L-8,3 L28,2 L0,1 Z " fill="#640A12" transform="translate(336,683)"/>
<path d="M0,0 L6,0 L6,4 L8,4 L8,12 L-4,12 L-4,2 L0,2 Z " fill="#1A0000" transform="translate(1006,302)"/>
<path d="M0,0 L6,0 L8,1 L50,2 L56,2 L55,4 L50,6 L39,6 L38,5 L1,3 Z " fill="#330001" transform="translate(698,816)"/>
<path d="M0,0 L4,0 L3,5 L2,6 L9,8 L10,13 L8,15 L-2,15 L-3,14 L-3,6 L-1,5 Z " fill="#2F0308" transform="translate(879,484)"/>
<path d="M0,0 L18,0 L61,1 L61,5 L52,5 L51,2 L29,3 L10,3 L0,1 Z " fill="#3A0104" transform="translate(637,813)"/>
<path d="M0,0 L25,0 L26,3 L16,4 L11,6 L1,6 L-1,4 Z " fill="#5B050C" transform="translate(776,824)"/>
<path d="M0,0 L18,1 L19,2 L19,7 L8,8 L6,9 L2,8 Z " fill="#170000" transform="translate(88,692)"/>
<path d="M0,0 L18,0 L21,2 L21,5 L-3,5 L-4,2 Z " fill="#680A11" transform="translate(540,689)"/>
<path d="M0,0 L7,0 L8,1 L30,3 L60,4 L60,5 L24,5 L6,4 L0,4 L-4,2 L-4,4 L-8,5 L-8,2 Z " fill="#370103" transform="translate(270,809)"/>
<path d="M0,0 L6,0 L6,4 L8,4 L8,6 L10,6 L10,4 L12,4 L12,2 L18,2 L18,4 L20,4 L20,2 L26,2 L26,6 L28,7 L25,7 L25,3 L21,3 L21,5 L17,5 L17,3 L13,3 L13,5 L11,5 L10,9 L8,10 L7,13 L2,14 L2,12 L6,12 L6,10 L2,10 L2,8 L0,8 Z " fill="#180001" transform="translate(346,550)"/>
<path d="M0,0 L1,0 L1,10 L-12,10 L-12,28 L-11,30 L-15,31 L-16,15 L-15,13 L-13,13 L-14,9 L-11,5 L-7,5 L-7,7 L-3,7 L-2,4 L-2,7 L0,7 Z " fill="#FDF8FB" transform="translate(1007,181)"/>
<path d="M0,0 L4,0 L5,2 L16,4 L18,4 L18,8 L8,9 L8,11 L1,11 L2,2 L0,2 Z " fill="#200003" transform="translate(242,818)"/>
<path d="M0,0 L3,0 L3,9 L-2,14 L-7,16 L-21,16 L-24,14 L-10,15 L-10,13 L-5,13 L-6,10 L-4,4 Z " fill="#FDFAFB" transform="translate(1021,214)"/>
<path d="M0,0 L14,2 L35,2 L52,3 L64,5 L64,6 L48,6 L48,4 L8,4 L0,3 Z " fill="#2D0001" transform="translate(892,842)"/>
<path d="M0,0 L33,0 L40,1 L41,3 L4,3 L4,1 Z " fill="#2F0103" transform="translate(664,701)"/>
<path d="M0,0 L8,0 L12,1 L12,17 L-1,19 L-4,22 L-5,32 L-6,32 L-6,21 L0,16 L2,15 L9,15 L9,2 L-3,2 Z " fill="#896670" transform="translate(1000,177)"/>
<path d="M0,0 L8,2 L8,4 L12,5 L3,7 L2,12 L0,12 L0,8 L-5,7 L-5,5 L-9,6 L-9,1 Z " fill="#190103" transform="translate(172,694)"/>
<path d="M0,0 L1,3 L27,2 L27,0 L36,0 L36,3 L28,4 L25,5 L25,7 L29,7 L29,9 L58,9 L58,10 L28,10 L28,8 L24,8 L24,4 L0,4 Z " fill="#120001" transform="translate(6,808)"/>
<path d="M0,0 L4,0 L4,6 L6,6 L6,12 L8,12 L8,14 L-2,14 L-2,8 L-6,8 L-6,6 L0,6 Z " fill="#030000" transform="translate(600,522)"/>
<path d="M0,0 L18,0 L39,1 L38,4 L21,4 L1,2 Z " fill="#880D1A" transform="translate(939,703)"/>
<path d="M0,0 L32,0 L32,3 L0,3 Z " fill="#4F0002" transform="translate(992,841)"/>
<path d="M0,0 L16,0 L16,6 L0,6 Z " fill="#190000" transform="translate(94,840)"/>
<path d="M0,0 L26,0 L26,4 L28,4 L27,7 L25,3 L23,3 L23,1 L20,3 L3,3 L-2,6 L-14,7 L-14,4 L0,4 Z " fill="#180000" transform="translate(14,566)"/>
<path d="M0,0 L6,1 L11,2 L14,3 L13,7 L10,7 L10,9 L0,9 Z " fill="#59020B" transform="translate(639,815)"/>
<path d="M0,0 L9,0 L9,2 L1,2 L-1,9 L-3,16 L10,17 L10,20 L6,21 L-3,19 L-4,18 L-4,3 L0,2 Z " fill="#3C0001" transform="translate(250,802)"/>
<path d="M0,0 L1,2 L12,2 L12,8 L6,9 L6,6 L1,9 L-6,8 L-7,4 L1,5 Z " fill="#190000" transform="translate(82,783)"/>
<path d="M0,0 L6,0 L6,1 L1,1 L1,43 L-6,45 L-18,45 L-21,44 L-22,39 L-17,43 L-7,43 L-1,38 Z " fill="#B6D7D8" transform="translate(1018,172)"/>
<path d="M0,0 L15,0 L15,3 L19,4 L-31,3 L-31,2 L-4,1 Z " fill="#760512" transform="translate(735,696)"/>
<path d="M0,0 L4,1 L6,4 L5,10 L8,11 L6,17 L4,17 L1,11 L-4,10 L-3,8 L-1,9 L-1,2 Z " fill="#280205" transform="translate(768,550)"/>
<path d="M0,0 L4,0 L4,8 L6,8 L6,10 L4,10 L4,14 L2,14 L2,20 L0,20 L0,12 L-4,10 L-4,6 L0,6 Z " fill="#030000" transform="translate(922,522)"/>
<path d="M0,0 L15,0 L39,1 L38,3 L-1,3 Z " fill="#6C0B12" transform="translate(257,682)"/>
<path d="M0,0 L28,0 L32,1 L32,5 L30,5 L29,7 L29,3 L4,3 L4,1 Z " fill="#3A0101" transform="translate(992,637)"/>
<path d="M0,0 L2,4 L10,6 L10,8 L12,8 L12,14 L4,14 L4,12 L2,12 L2,6 L0,6 Z " fill="#190000" transform="translate(358,832)"/>
<path d="M0,0 L7,0 L7,7 L6,8 L-9,8 L-9,4 L1,4 Z " fill="#1A0102" transform="translate(204,653)"/>
<path d="M0,0 L4,0 L4,2 L12,2 L12,4 L0,4 L0,8 L-8,8 L-8,4 L-12,4 L-12,2 L0,2 Z " fill="#030000" transform="translate(530,778)"/>
<path d="M0,0 L7,0 L8,1 L8,8 L4,10 L-1,9 L-2,8 L-2,1 Z " fill="#2B0206" transform="translate(614,548)"/>
<path d="M0,0 L14,0 L31,1 L32,3 L30,4 L7,4 L7,1 L0,1 Z " fill="#1D0000" transform="translate(0,807)"/>
<path d="M0,0 L14,0 L14,6 L0,6 Z " fill="#190000" transform="translate(942,352)"/>
<path d="M0,0 L4,1 L1,1 L1,5 L-3,5 L-2,17 L-4,18 L-53,17 L-53,8 L-52,8 L-52,16 L-4,16 L-4,4 L0,4 Z " fill="#140001" transform="translate(950,410)"/>
<path d="M0,0 L1,2 L5,3 L5,6 L7,6 L8,4 L7,9 L4,11 L6,14 L-1,17 L-2,12 L-9,13 L-9,11 L1,10 L2,5 L-5,3 L-5,2 L0,2 Z " fill="#290003" transform="translate(886,488)"/>
<path d="M0,0 L7,0 L8,1 L40,2 L40,4 L13,4 L2,3 L0,2 Z " fill="#540002" transform="translate(800,829)"/>
<path d="M0,0 L17,0 L29,1 L29,3 L0,3 L-4,1 Z " fill="#6C1017" transform="translate(494,688)"/>
<path d="M0,0 L9,0 L9,3 L1,3 L2,12 L-4,12 L-4,2 L0,2 Z " fill="#080000" transform="translate(950,524)"/>
<path d="M0,0 L28,2 L28,4 L23,5 L10,4 L3,4 L0,3 L-2,4 L-2,2 L-6,3 L-6,1 Z " fill="#560307" transform="translate(630,588)"/>
<path d="M0,0 L12,0 L10,2 L7,2 L7,4 L-1,4 L-8,11 L-9,13 L-12,12 L-10,12 L-10,6 L-6,6 L-6,2 L0,2 Z " fill="#170000" transform="translate(38,628)"/>
<path d="M0,0 L17,0 L17,3 L14,5 L3,4 L-5,3 L-1,1 Z " fill="#4C0108" transform="translate(299,805)"/>
<path d="M0,0 L4,0 L4,4 L8,4 L8,10 L-2,10 L-2,4 L0,4 Z " fill="#020000" transform="translate(290,774)"/>
<path d="M0,0 L7,0 L10,3 L-1,4 L0,12 L2,13 L-3,12 L-3,9 L-5,9 L-7,3 L-4,3 L-4,1 Z " fill="#360202" transform="translate(203,796)"/>
<path d="M0,0 L2,2 L1,4 L-38,4 L-40,2 L-9,2 L-1,1 Z " fill="#2E0000" transform="translate(702,682)"/>
<path d="M0,0 L7,0 L5,4 L5,8 L-5,8 L-5,5 L-7,5 L-7,3 L0,1 Z " fill="#720105" transform="translate(1005,621)"/>
<path d="M0,0 L3,1 L1,5 L-6,7 L-9,9 L-16,10 L-21,13 L-20,9 L-18,7 L-10,6 L-10,4 L-1,1 Z " fill="#240002" transform="translate(38,592)"/>
<path d="M0,0 L2,1 L2,5 L20,7 L45,8 L45,9 L14,9 L-1,6 Z " fill="#65020A" transform="translate(846,616)"/>
<path d="M0,0 L2,0 L2,2 L6,4 L7,10 L10,10 L10,12 L1,11 L-2,5 Z " fill="#280308" transform="translate(332,817)"/>
<path d="M0,0 L3,0 L3,12 L2,14 L-1,14 L-1,12 L-3,12 L-3,2 Z " fill="#2B0307" transform="translate(714,542)"/>
<path d="M0,0 L6,0 L6,2 L8,2 L7,11 L0,11 L1,7 L0,7 Z " fill="#1D0002" transform="translate(664,544)"/>
<path d="M0,0 L5,0 L6,7 L4,7 L4,9 L-3,9 L-3,2 Z " fill="#8B1D25" transform="translate(252,808)"/>
<path d="M0,0 L10,0 L12,2 L7,3 L5,10 L3,11 L1,10 L-2,4 Z " fill="#360002" transform="translate(830,675)"/>
<path d="M0,0 L3,0 L3,2 L62,2 L62,3 L-1,3 Z " fill="#230304" transform="translate(890,846)"/>
<path d="M0,0 L10,0 L13,2 L12,5 L10,6 L2,6 L-1,3 Z " fill="#620E17" transform="translate(204,800)"/>
<path d="M0,0 L14,0 L35,1 L35,2 L23,3 L3,3 L0,2 Z " fill="#83111B" transform="translate(803,698)"/>
<path d="M0,0 L14,0 L14,2 L24,2 L24,3 L2,3 L-8,4 L-10,3 L-10,1 Z " fill="#500104" transform="translate(816,824)"/>
<path d="M0,0 L14,0 L14,1 L7,3 L3,4 L-12,4 L-12,1 Z " fill="#45030A" transform="translate(291,804)"/>
<path d="M0,0 L23,0 L23,4 L14,4 L0,2 Z " fill="#410305" transform="translate(150,801)"/>
<path d="M0,0 L8,0 L9,4 L12,4 L11,8 L7,9 L8,5 L3,5 L3,8 L0,8 Z " fill="#160001" transform="translate(203,781)"/>
<path d="M0,0 L11,0 L11,4 L2,4 L2,6 L-5,6 L-5,3 L-1,3 Z " fill="#490407" transform="translate(452,811)"/>
<path d="M0,0 L5,1 L5,8 L0,13 L-2,13 L-3,8 L-1,8 L0,5 L-3,5 L-4,2 Z " fill="#140000" transform="translate(131,612)"/>
<path d="M0,0 L8,1 L9,9 L7,13 L-4,13 L-4,7 L-2,6 L-2,12 L5,12 L5,10 L7,10 L6,3 L-2,5 Z " fill="#5C080F" transform="translate(251,805)"/>
<path d="M0,0 L12,0 L16,1 L34,2 L34,3 L-2,3 L-2,1 Z " fill="#390003" transform="translate(478,582)"/>
<path d="M0,0 L6,0 L8,4 L6,13 L5,13 L5,2 L-1,4 L-1,11 L-3,13 L-5,7 L-2,2 Z " fill="#270103" transform="translate(712,540)"/>
<path d="M0,0 L10,0 L11,3 L42,3 L42,4 L9,4 L8,1 L2,2 L1,4 L-11,4 L-11,3 L-1,2 Z " fill="#5E0205" transform="translate(946,626)"/>
<path d="M0,0 L3,0 L4,4 L-3,4 L-5,8 L-13,8 L-15,7 L-15,3 L-17,2 L-13,3 L-13,5 L-1,2 Z " fill="#360105" transform="translate(205,596)"/>
<path d="M0,0 L8,0 L9,3 L8,5 L12,6 L-4,6 L-2,5 L-1,1 Z " fill="#1B0000" transform="translate(346,826)"/>
<path d="M0,0 L9,0 L20,1 L20,2 L-9,3 L-13,3 L-14,5 L-10,6 L-16,6 L-17,3 L-15,3 L-15,1 L-4,1 Z " fill="#5B0B0E" transform="translate(589,689)"/>
<path d="M0,0 L23,0 L25,1 L25,3 L10,3 L0,2 Z " fill="#6C0E18" transform="translate(454,687)"/>
<path d="M0,0 L2,0 L0,4 L-2,9 L-23,9 L-27,5 L-22,6 L-8,6 L-3,4 Z " fill="#5C323B" transform="translate(1022,223)"/>
<path d="M0,0 L11,0 L14,1 L15,5 L12,9 L2,9 L-2,5 L-2,1 Z M0,1 L0,5 L2,7 L10,7 L13,5 L12,2 L10,1 Z " fill="#4F050B" transform="translate(204,799)"/>
<path d="M0,0 L10,0 L17,2 L16,5 L-1,5 L-1,4 L5,3 L0,1 Z " fill="#4F0109" transform="translate(841,827)"/>
<path d="M0,0 L3,0 L3,11 L-4,12 L-7,15 L-15,16 L-16,18 L-18,17 L-18,14 L-8,14 L-8,10 L2,10 L0,6 Z " fill="#180000" transform="translate(86,610)"/>
<path d="M0,0 L1,0 L1,31 L4,31 L4,38 L0,37 Z " fill="#F1FEFE" transform="translate(1020,176)"/>
<path d="M0,0 L1,3 L10,3 L10,6 L-10,6 L-10,5 L-2,5 L-2,3 L-5,2 L-5,1 Z " fill="#350000" transform="translate(832,688)"/>
<path d="M0,0 L2,1 L0,15 L-2,15 L-2,30 L-4,28 L-4,9 L-2,9 L-2,4 Z " fill="#F3FDFD" transform="translate(988,188)"/>
<path d="M0,0 L14,0 L14,4 L0,4 Z " fill="#030000" transform="translate(128,784)"/>
<path d="M0,0 L1,3 L7,3 L7,4 L0,4 L-2,3 L-2,5 L-15,5 L-15,2 Z " fill="#0F0000" transform="translate(469,699)"/>
<path d="M0,0 L10,0 L10,2 L16,2 L15,4 L6,5 L7,9 L3,8 L2,4 L3,1 L0,2 Z " fill="#190001" transform="translate(472,554)"/>
<path d="M0,0 L4,1 L3,6 L2,10 L0,14 L-1,6 L-9,5 L-9,4 L-1,4 Z " fill="#4A0002" transform="translate(260,800)"/>
<path d="M0,0 L1,4 L-9,4 L-9,6 L-13,6 L-13,8 L-19,8 L-19,6 L-27,6 L-27,8 L-33,8 L-31,4 L-18,5 L-18,7 L-14,7 L-14,5 L-10,5 L-10,3 L0,3 Z " fill="#160000" transform="translate(33,610)"/>
<path d="M0,0 L13,0 L13,4 L-1,4 Z " fill="#0F0001" transform="translate(386,567)"/>
<path d="M0,0 L5,1 L4,4 L-2,9 L-12,9 L-16,5 L-15,3 L-12,6 L-2,6 L0,1 Z " fill="#420004" transform="translate(218,801)"/>
<path d="M0,0 L22,0 L22,8 L26,8 L25,11 L23,11 L23,9 L21,9 L20,4 L12,2 L0,2 Z M16,1 Z " fill="#170000" transform="translate(0,630)"/>
<path d="M0,0 L16,0 L16,4 L6,4 L6,2 L0,2 Z " fill="#030000" transform="translate(90,694)"/>
<path d="M0,0 L7,0 L8,5 L4,7 L1,6 L-2,7 Z M-3,7 Z " fill="#260003" transform="translate(695,551)"/>
<path d="M0,0 L1,0 L1,6 L-5,6 L-5,8 L-1,8 L-1,14 L9,14 L9,12 L7,12 L7,6 L8,6 L8,11 L12,10 L10,15 L-2,15 L-2,9 L-6,9 L-6,5 L0,5 Z " fill="#160000" transform="translate(599,522)"/>
<path d="M0,0 L12,0 L12,4 L0,4 Z " fill="#050000" transform="translate(898,734)"/>
<path d="M0,0 L9,0 L9,5 L1,5 L-1,4 Z " fill="#5E010B" transform="translate(901,832)"/>
<path d="M0,0 L6,1 L11,2 L13,2 L13,5 L5,6 L0,4 Z " fill="#630F18" transform="translate(639,815)"/>
<path d="M0,0 L17,0 L19,4 L13,5 L9,3 L9,1 L0,1 Z " fill="#4C0409" transform="translate(547,816)"/>
<path d="M0,0 L4,0 L4,5 L-3,7 L-6,9 L-5,5 L-6,3 L-4,3 L-4,1 Z " fill="#231E1E" transform="translate(1020,265)"/>
<path d="M0,0 L25,0 L25,1 L2,2 L1,4 L11,5 L11,6 L1,6 L-1,4 Z " fill="#58040A" transform="translate(776,824)"/>
<path d="M0,0 L5,0 L4,9 L3,11 L-1,11 L-1,5 L2,3 L-1,1 Z " fill="#210304" transform="translate(367,826)"/>
<path d="M0,0 L6,0 L9,2 L9,5 L7,6 L1,6 L0,5 Z " fill="#38090F" transform="translate(878,492)"/>
<path d="M0,0 L22,0 L22,2 L19,3 L0,2 Z " fill="#260002" transform="translate(959,743)"/>
<path d="M0,0 L8,1 L7,5 L4,6 L3,4 L-10,3 L-10,1 L-1,1 Z " fill="#330000" transform="translate(955,678)"/>
<path d="M0,0 L1,2 L6,3 L6,5 L-4,7 L-8,4 L-5,2 Z " fill="#6B010A" transform="translate(939,621)"/>
<path d="M0,0 L1,0 L2,16 L5,17 L5,20 L11,23 L12,26 L7,24 L1,19 L0,15 Z " fill="#B6C0BF" transform="translate(983,202)"/>
<path d="M0,0 L4,0 L4,4 L2,4 L2,6 L-6,6 L-6,2 L0,2 Z " fill="#040000" transform="translate(284,700)"/>
<path d="M0,0 L4,0 L4,6 L-10,6 L-10,4 L0,4 Z " fill="#050000" transform="translate(206,654)"/>
<path d="M0,0 L2,0 L2,2 L7,2 L7,5 L2,5 L2,7 L4,8 L2,8 L2,13 L0,9 L-2,8 L-2,4 L0,4 Z " fill="#1A0001" transform="translate(94,590)"/>
<path d="M0,0 L11,1 L11,5 L3,5 L0,3 Z " fill="#E9E5E5" transform="translate(1013,293)"/>
<path d="M0,0 L2,0 L2,11 L-3,9 L-2,1 Z " fill="#403C3B" transform="translate(1022,274)"/>
<path d="M0,0 L3,0 L3,6 L1,6 L1,14 L3,15 L-1,16 L-1,3 Z " fill="#FDFBFC" transform="translate(1006,270)"/>
<path d="M0,0 L1,0 L1,13 L-8,15 L-13,18 L-13,12 L0,12 Z " fill="#ECD4DD" transform="translate(1008,179)"/>
<path d="M0,0 L6,0 L6,5 L-4,5 L-4,2 Z " fill="#0F0000" transform="translate(442,697)"/>
<path d="M0,0 L14,1 L14,4 L10,5 L1,3 Z " fill="#330002" transform="translate(246,818)"/>
<path d="M0,0 L8,0 L8,5 L-2,4 L-2,1 Z " fill="#950311" transform="translate(1016,705)"/>
<path d="M0,0 L2,0 L1,4 L11,4 L17,6 L18,15 L16,15 L16,7 L8,7 L8,5 L0,5 L0,2 L-2,1 Z " fill="#170000" transform="translate(68,595)"/>
<path d="M0,0 L10,0 L23,1 L30,4 L30,5 L22,5 L22,3 L0,1 Z " fill="#560007" transform="translate(818,826)"/>
<path d="M0,0 L2,0 L2,3 L0,3 L0,5 L-11,5 L-11,2 L-2,1 Z " fill="#0D0001" transform="translate(199,783)"/>
<path d="M0,0 L8,0 L7,3 L-10,3 L-10,1 Z " fill="#870C14" transform="translate(970,704)"/>
<path d="M0,0 L1,2 L11,2 L12,0 L17,1 L17,4 L12,4 L7,5 L7,3 L0,3 Z " fill="#180102" transform="translate(437,700)"/>
<path d="M0,0 L11,0 L8,3 L7,6 L3,6 L1,6 Z " fill="#380001" transform="translate(919,686)"/>
<path d="M0,0 L15,1 L15,3 L18,4 L18,5 L12,5 L0,2 Z " fill="#450309" transform="translate(841,824)"/>
<path d="M0,0 L8,0 L8,2 L2,2 L2,6 L-8,6 L-8,4 L0,4 Z " fill="#040000" transform="translate(634,708)"/>
<path d="M0,0 L12,0 L12,2 L26,2 L26,3 L10,3 L0,2 Z " fill="#710D13" transform="translate(668,694)"/>
<path d="M0,0 L13,0 L14,3 L1,3 Z " fill="#721017" transform="translate(545,690)"/>
<path d="M0,0 L7,0 L7,4 L12,4 L12,5 L0,5 Z " fill="#4B0203" transform="translate(562,686)"/>
<path d="M0,0 L4,1 L4,4 L-6,4 L-10,3 L-10,1 Z " fill="#4D0405" transform="translate(998,595)"/>
<path d="M0,0 L6,1 L5,6 L1,7 L-1,5 Z " fill="#350B0F" transform="translate(614,549)"/>
<path d="M0,0 L10,0 L10,4 L0,4 Z " fill="#100000" transform="translate(965,481)"/>
<path d="M0,0 L9,1 L8,4 L-2,4 L-4,1 Z " fill="#2E3233" transform="translate(1003,212)"/>
<path d="M0,0 L5,0 L4,4 L14,5 L14,7 L6,7 L0,4 Z " fill="#550009" transform="translate(896,832)"/>
<path d="M0,0 L8,0 L7,4 L-1,5 L-2,1 Z " fill="#170001" transform="translate(21,661)"/>
<path d="M0,0 L10,0 L10,2 L16,2 L13,5 L8,4 L8,2 L-2,2 Z " fill="#150000" transform="translate(874,844)"/>
<path d="M0,0 L1,0 L2,16 L5,17 L6,20 L4,20 L4,18 L2,18 L1,20 L-1,18 Z " fill="#2E2727" transform="translate(1003,274)"/>
<path d="M0,0 L13,0 L12,3 L0,3 Z " fill="#1C0001" transform="translate(535,832)"/>
<path d="M0,0 L9,0 L12,3 L-6,3 L-6,2 L0,2 Z " fill="#200200" transform="translate(554,829)"/>
<path d="M0,0 L7,0 L6,6 L1,5 Z " fill="#58040B" transform="translate(679,819)"/>
<path d="M0,0 L2,0 L2,6 L-12,6 L-12,4 L0,4 Z " fill="#040000" transform="translate(398,750)"/>
<path d="M0,0 L2,0 L2,8 L0,8 L0,10 L-2,10 L-2,8 L-4,8 L-4,4 L0,4 Z " fill="#040000" transform="translate(1002,546)"/>
<path d="M0,0 L6,0 L6,6 L0,6 Z " fill="#140001" transform="translate(332,522)"/>
<path d="M0,0 L6,0 L5,10 L4,6 L0,6 Z " fill="#190001" transform="translate(618,500)"/>
<path d="M0,0 L6,0 L6,6 L0,6 Z " fill="#150001" transform="translate(924,302)"/>
<path d="M0,0 L6,0 L6,6 L0,6 Z " fill="#130000" transform="translate(990,284)"/>
<path d="M0,0 L6,0 L3,5 L-5,4 L-2,1 Z " fill="#EBFCFB" transform="translate(997,179)"/>
<path d="M0,0 L2,0 L2,2 L6,4 L7,9 L4,9 L-1,3 Z " fill="#2E0409" transform="translate(332,817)"/>
<path d="M0,0 L7,0 L5,5 L-1,5 L-2,1 Z " fill="#0F0000" transform="translate(698,706)"/>
<path d="M0,0 L9,0 L9,3 L1,3 L2,10 L0,10 Z " fill="#0F0000" transform="translate(950,524)"/>
<path d="M0,0 L3,0 L2,11 L-1,11 L-1,2 Z " fill="#FDFDFD" transform="translate(1016,273)"/>
<path d="M0,0 L9,0 L11,1 L11,3 L-7,2 L-7,1 Z " fill="#301117" transform="translate(1009,231)"/>
<path d="M0,0 L11,1 L21,1 L21,2 L13,3 L-1,3 L-2,1 Z " fill="#350003" transform="translate(267,801)"/>
<path d="M0,0 L1,0 L1,8 L-1,8 L-1,12 L1,12 L1,10 L7,10 L6,12 L2,11 L2,13 L-2,13 L-3,6 L-1,4 Z " fill="#160000" transform="translate(443,772)"/>
<path d="M0,0 L18,0 L14,2 L10,3 L4,2 L1,5 Z " fill="#160001" transform="translate(50,626)"/>
<path d="M0,0 L10,0 L6,4 L4,3 L4,5 L0,5 L0,2 L-3,1 Z " fill="#220101" transform="translate(3,579)"/>
<path d="M0,0 L5,0 L5,5 L-1,5 L-1,3 L-5,2 L-3,1 L0,2 Z " fill="#444142" transform="translate(1019,289)"/>
<path d="M0,0 L2,1 L-4,4 L-18,4 L-21,2 L-7,3 L-7,1 Z " fill="#D7C2C7" transform="translate(1018,226)"/>
<path d="M0,0 L5,0 L9,1 L11,1 L11,5 L4,5 L4,3 L0,1 Z " fill="#E9FAFA" transform="translate(1005,217)"/>
<path d="M0,0 L8,0 L8,4 L0,4 Z " fill="#190000" transform="translate(122,814)"/>
<path d="M0,0 L4,0 L4,8 L0,8 Z " fill="#0F0000" transform="translate(313,779)"/>
<path d="M0,0 L1,0 L1,5 L-6,5 L-7,1 Z " fill="#0F0000" transform="translate(170,780)"/>
<path d="M0,0 L8,0 L8,4 L0,4 Z " fill="#0F0000" transform="translate(261,763)"/>
<path d="M0,0 L6,0 L6,8 L4,8 L4,4 L0,4 Z " fill="#040000" transform="translate(686,726)"/>
<path d="M0,0 L4,0 L4,8 L0,8 Z " fill="#0F0000" transform="translate(151,695)"/>
<path d="M0,0 L13,1 L13,3 L-1,3 Z " fill="#680C10" transform="translate(576,691)"/>
<path d="M0,0 L2,2 L2,6 L-2,6 L-1,15 L-3,14 L-3,3 Z " fill="#602838" transform="translate(998,196)"/>
<path d="M0,0 L2,0 L2,6 L-5,6 L-5,4 L-9,3 L0,2 Z " fill="#FEFDFE" transform="translate(1005,182)"/>
<path d="M0,0 L9,0 L10,3 L-1,3 Z " fill="#500E10" transform="translate(454,811)"/>
<path d="M0,0 L5,0 L6,1 L6,6 L2,5 L-1,3 Z " fill="#180002" transform="translate(677,561)"/>
<path d="M0,0 L6,0 L8,5 L-1,4 Z " fill="#560106" transform="translate(673,820)"/>
<path d="M0,0 L5,0 L5,3 L3,3 L3,5 L-2,5 L-3,1 Z " fill="#3C0002" transform="translate(1013,690)"/>
<path d="M0,0 L5,1 L4,4 L-3,5 L-4,2 Z " fill="#1C0000" transform="translate(131,612)"/>
<path d="M0,0 L2,0 L2,8 L-1,9 L-2,7 L-2,1 Z " fill="#2F0509" transform="translate(714,544)"/>
<path d="M0,0 L4,0 L3,5 L1,7 L-2,7 L-2,12 L-3,12 L-3,6 L-1,5 Z " fill="#2B0106" transform="translate(879,484)"/>
<path d="M0,0 L6,0 L6,4 L1,6 L1,3 L-2,2 Z " fill="#D5CFD0" transform="translate(1018,270)"/>
<path d="M0,0 L1,3 L3,3 L3,1 L8,1 L6,2 L6,4 L3,6 L1,9 L1,4 L-2,4 Z " fill="#CDC7C6" transform="translate(1008,266)"/>
<path d="M0,0 L9,0 L9,3 L-1,3 Z " fill="#630A12" transform="translate(778,825)"/>
<path d="M0,0 L5,0 L5,2 L-1,6 L-3,6 L-4,3 L-2,1 L0,2 Z " fill="#FCF3F5" transform="translate(1019,221)"/>
<path d="M0,0 L10,0 L10,4 L6,4 L6,2 L0,2 Z " fill="#040000" transform="translate(84,786)"/>
<path d="M0,0 L6,0 L6,4 L2,4 L2,6 L0,6 Z " fill="#040000" transform="translate(204,782)"/>
<path d="M0,0 L7,0 L7,4 L0,4 Z " fill="#120001" transform="translate(208,607)"/>
<path d="M0,0 L1,4 L-3,11 L-6,11 L-6,7 L-3,7 L-1,2 Z " fill="#1E0002" transform="translate(607,552)"/>
<path d="M0,0 L1,2 L6,1 L7,4 L0,5 L-1,1 Z " fill="#260003" transform="translate(879,479)"/>
<path d="M0,0 L11,2 L11,5 L4,6 L6,5 L6,3 L1,2 Z " fill="#382C2C" transform="translate(1013,296)"/>
<path d="M0,0 L14,2 L14,4 L4,4 Z " fill="#776568" transform="translate(995,228)"/>
<path d="M0,0 L5,0 L5,6 L0,4 Z " fill="#2A0306" transform="translate(696,552)"/>
<path d="M0,0 L5,4 L17,4 L16,6 L4,6 L1,5 Z " fill="#D2D4D6" transform="translate(996,211)"/>
<path d="M0,0 L1,0 L2,11 L3,13 L-1,14 L-1,4 Z " fill="#F1D6E1" transform="translate(993,198)"/>
<path d="M0,0 L4,1 L3,6 L0,6 L-1,1 Z " fill="#481110" transform="translate(260,800)"/>
<path d="M0,0 L4,3 L3,6 L-2,5 L-2,1 Z " fill="#1E0103" transform="translate(948,435)"/>
<path d="M0,0 L12,1 L12,3 L0,3 Z " fill="#260003" transform="translate(248,821)"/>
<path d="M0,0 L7,0 L8,3 L0,3 Z " fill="#751824" transform="translate(206,801)"/>
<path d="M0,0 L6,0 L6,4 L0,4 Z " fill="#110000" transform="translate(479,779)"/>
<path d="M0,0 L1,2 L8,1 L7,4 L4,3 L4,5 L0,5 Z " fill="#1B0000" transform="translate(297,695)"/>
<path d="M0,0 L12,0 L12,1 L6,3 L0,3 Z " fill="#270002" transform="translate(500,572)"/>
<path d="M0,0 L6,0 L6,4 L0,4 Z " fill="#050000" transform="translate(616,566)"/>
<path d="M0,0 L4,0 L4,6 L0,6 Z " fill="#050000" transform="translate(592,504)"/>
<path d="M0,0 L4,0 L4,6 L0,5 Z " fill="#120001" transform="translate(225,617)"/>
<path d="M0,0 L3,0 L3,6 L-1,6 L-1,1 Z " fill="#120101" transform="translate(764,485)"/>
<path d="M0,0 L5,0 L5,4 L-1,4 Z " fill="#120000" transform="translate(862,467)"/>
<path d="M0,0 L2,1 L-2,10 L-3,10 L-2,1 Z " fill="#0B0909" transform="translate(1014,269)"/>
<path d="M0,0 L1,0 L3,6 L5,10 L-1,10 Z " fill="#1C2525" transform="translate(979,209)"/>
<path d="M0,0 L1,3 L-1,3 L-1,11 L-3,9 L-3,1 Z " fill="#1B0406" transform="translate(1001,202)"/>
<path d="M0,0 L6,0 L6,2 L12,2 L11,4 L4,4 L0,2 Z " fill="#180000" transform="translate(732,484)"/>
<path d="M0,0 L3,0 L2,6 L-1,6 L-1,1 Z " fill="#321416" transform="translate(367,830)"/>
<path d="M0,0 L2,0 L3,8 L5,9 L0,8 Z " fill="#3C0002" transform="translate(200,800)"/>
<path d="M0,0 L2,0 L2,6 L-2,6 L-1,1 Z " fill="#060000" transform="translate(686,510)"/>
<path d="M0,0 L5,0 L5,4 L0,4 Z " fill="#110000" transform="translate(835,805)"/>
<path d="M0,0 L7,0 L7,3 L1,3 Z " fill="#130000" transform="translate(55,774)"/>
<path d="M0,0 L6,0 L6,2 L4,2 L4,4 L0,4 Z " fill="#050000" transform="translate(524,700)"/>
<path d="M0,0 L9,0 L6,1 L6,3 L1,3 Z " fill="#1C0002" transform="translate(39,629)"/>
<path d="M0,0 L4,0 L4,5 L0,5 Z " fill="#350508" transform="translate(115,580)"/>
<path d="M0,0 L2,0 L2,2 L6,2 L6,6 L4,6 L4,4 L0,4 Z " fill="#050000" transform="translate(630,494)"/>
<path d="M0,0 L2,0 L2,7 L-1,7 L-1,1 Z " fill="#030303" transform="translate(1022,276)"/>
<path d="M0,0 L9,5 L9,6 L3,6 L3,3 L0,3 Z " fill="#1B1413" transform="translate(989,225)"/>
<path d="M0,0 L0,3 L-2,9 L-4,11 L-3,3 Z " fill="#B5DFD9" transform="translate(986,187)"/>
<path d="M0,0 L1,2 L-1,2 L-1,5 L-3,5 L-4,9 L-6,9 L-4,3 Z " fill="#CFF1ED" transform="translate(991,183)"/>
<path d="M0,0 L5,0 L6,4 L1,4 Z " fill="#410104" transform="translate(891,836)"/>
<path d="M0,0 L7,0 L7,3 L-1,4 Z " fill="#600B13" transform="translate(645,817)"/>
<path d="M0,0 L2,0 L2,4 L-5,4 L-5,1 L-2,2 Z " fill="#350001" transform="translate(1022,677)"/>
<path d="M0,0 L1,2 L4,2 L4,6 L-1,5 Z " fill="#220102" transform="translate(328,613)"/>
<path d="M0,0 L6,0 L6,3 L-1,3 Z " fill="#110001" transform="translate(665,552)"/>
<path d="M0,0 L2,0 L4,8 L0,8 Z " fill="#000000" transform="translate(947,527)"/>
<path d="M0,0 L4,1 L6,3 L0,5 L-1,1 Z " fill="#0F0909" transform="translate(1007,294)"/>
<path d="M0,0 L3,0 L3,6 L-1,5 Z " fill="#F3F0F0" transform="translate(1006,270)"/>
<path d="M0,0 L4,2 L4,6 L0,6 L-1,3 Z " fill="#0A0909" transform="translate(985,222)"/>
<path d="M0,0 L4,0 L4,3 L-2,5 Z " fill="#690A0D" transform="translate(251,805)"/>
<path d="M0,0 L8,0 L8,2 L4,3 L0,2 Z " fill="#040000" transform="translate(148,784)"/>
<path d="M0,0 L4,0 L4,5 L1,5 Z " fill="#110000" transform="translate(658,721)"/>
<path d="M0,0 L8,0 L6,1 L6,3 L1,3 Z " fill="#56080A" transform="translate(566,691)"/>
<path d="M0,0 L6,0 L6,3 L0,3 Z " fill="#210006" transform="translate(20,653)"/>
<path d="M0,0 L3,0 L3,6 L0,6 Z " fill="#2F0B0E" transform="translate(768,552)"/>
<path d="M0,0 L7,1 L7,3 L1,3 Z " fill="#F6F6F6" transform="translate(1017,285)"/>
<path d="M0,0 L3,0 L3,2 L1,2 L1,4 L-5,6 Z " fill="#FBFDFE" transform="translate(1021,214)"/>
<path d="M0,0 L6,1 L8,2 L8,4 L2,4 L3,1 Z " fill="#272B2B" transform="translate(1016,168)"/>
<path d="M0,0 L3,0 L3,5 L-1,4 Z " fill="#4B0007" transform="translate(893,831)"/>
<path d="M0,0 L3,0 L3,2 L5,3 L1,4 L-5,3 L-5,2 L0,2 Z " fill="#310003" transform="translate(1011,670)"/>
<path d="M0,0 L2,1 L2,4 L5,5 L1,5 L1,3 L-1,3 L-2,7 L-2,2 Z " fill="#1A0101" transform="translate(631,491)"/>
<path d="M0,0 L3,0 L2,9 L1,9 L1,3 L-1,2 Z " fill="#F3F1F0" transform="translate(1016,273)"/>
<path d="M0,0 L1,4 L0,13 L-1,13 L-2,3 Z " fill="#172F2D" transform="translate(979,196)"/>
<path d="M0,0 L2,1 L-1,11 L-2,11 L-2,4 Z " fill="#EDFDFE" transform="translate(988,188)"/>
<path d="M0,0 L4,1 L4,3 L0,3 L0,5 L-2,5 L-2,2 L0,2 Z " fill="#EDFEFD" transform="translate(992,183)"/>
<path d="M0,0 L4,1 L4,4 L1,4 L0,6 Z " fill="#921E28" transform="translate(254,810)"/>
<path d="M0,0 L5,1 L4,4 L0,3 Z " fill="#460308" transform="translate(218,801)"/>
<path d="M0,0 L4,1 L3,5 L0,5 Z " fill="#0F0000" transform="translate(552,791)"/>
<path d="M0,0 L4,0 L4,4 L0,4 Z " fill="#060000" transform="translate(938,762)"/>
<path d="M0,0 L6,0 L6,4 L4,4 L4,2 L0,2 Z " fill="#040000" transform="translate(164,696)"/>
<path d="M0,0 L5,1 L4,3 L-2,4 Z " fill="#300000" transform="translate(936,652)"/>
<path d="M0,0 L4,0 L4,4 L0,4 Z " fill="#140000" transform="translate(39,641)"/>
<path d="M0,0 L2,0 L0,4 L-3,6 L-5,5 L-5,3 L-1,2 Z " fill="#290003" transform="translate(555,564)"/>
<path d="M0,0 L4,0 L4,4 L0,4 Z " fill="#1E0001" transform="translate(333,523)"/>
<path d="M0,0 L4,1 L3,4 L-1,4 Z " fill="#140000" transform="translate(808,483)"/>
<path d="M0,0 L4,0 L4,4 L0,4 Z " fill="#1E0001" transform="translate(925,303)"/>
<path d="M0,0 L4,0 L4,4 L0,4 Z " fill="#1C0000" transform="translate(991,285)"/>
<path d="M0,0 L1,2 L3,3 L0,9 L-1,9 L-1,4 Z " fill="#171010" transform="translate(1004,265)"/>
<path d="M0,0 L1,0 L1,5 L-2,5 L-3,7 L-2,2 Z " fill="#500E1D" transform="translate(1023,225)"/>
<path d="M0,0 L2,0 L0,4 L-2,6 L-6,5 L-3,4 Z " fill="#7C404E" transform="translate(1022,223)"/>
<path d="M0,0 L6,2 L5,5 L5,3 L-4,3 Z " fill="#FBF7F8" transform="translate(1005,224)"/>
<path d="M0,0 L4,1 L-1,4 L-5,3 Z " fill="#BAD7D1" transform="translate(997,179)"/>
<path d="M0,0 L2,1 L-1,7 L-2,7 L-2,1 Z " fill="#4A0304" transform="translate(249,805)"/>
<path d="M0,0 L4,1 L4,4 L0,4 Z " fill="#120000" transform="translate(541,769)"/>
<path d="M0,0 L6,0 L6,4 L3,4 L3,1 Z " fill="#1A0101" transform="translate(0,580)"/>
<path d="M0,0 L5,1 L1,5 Z " fill="#190F0F" transform="translate(1006,262)"/>
<path d="M0,0 L7,0 L10,2 L4,3 L4,1 Z " fill="#0A0302" transform="translate(992,231)"/>
<path d="M0,0 L10,2 L10,3 L1,3 Z " fill="#520107" transform="translate(461,609)"/>
<path d="M0,0 L2,4 L1,7 L-1,7 L-1,1 Z " fill="#260002" transform="translate(840,514)"/>
<path d="M0,0 L5,2 L5,4 L0,3 Z " fill="#080707" transform="translate(1014,287)"/>
<path d="M0,0 L2,0 L2,4 L-2,4 L-2,1 Z " fill="#F1F9FB" transform="translate(1014,218)"/>
<path d="M0,0 L2,0 L2,4 L0,4 L0,6 L-2,5 Z " fill="#F5FCFD" transform="translate(990,188)"/>
<path d="M0,0 L3,1 L3,3 L-3,3 L-3,1 Z " fill="#2E0303" transform="translate(467,805)"/>
<path d="M0,0 L4,0 L3,3 L-1,3 Z " fill="#681215" transform="translate(576,691)"/>
<path d="M0,0 L4,1 L2,1 L3,4 L-1,3 Z " fill="#200001" transform="translate(92,589)"/>
<path d="M0,0 L4,1 L6,3 L3,4 L0,2 Z " fill="#F5FAFA" transform="translate(987,220)"/>
<path d="M0,0 L2,2 L2,5 L-1,5 Z " fill="#140000" transform="translate(492,791)"/>
<path d="M0,0 L4,0 L4,3 L0,3 Z " fill="#120100" transform="translate(385,786)"/>
<path d="M0,0 L4,0 L4,3 L0,3 Z " fill="#110000" transform="translate(75,787)"/>
<path d="M0,0 L4,0 L4,3 L0,3 Z " fill="#100000" transform="translate(489,780)"/>
<path d="M0,0 L4,0 L4,3 L0,3 Z " fill="#130001" transform="translate(839,714)"/>
<path d="M0,0 L3,0 L3,4 L0,4 Z " fill="#0C0000" transform="translate(45,584)"/>
<path d="M0,0 L3,0 L3,4 L0,4 Z " fill="#130002" transform="translate(601,559)"/>
<path d="M0,0 L4,0 L4,3 L0,3 Z " fill="#100000" transform="translate(625,509)"/>
<path d="M0,0 L4,0 L4,3 L0,3 Z " fill="#130002" transform="translate(947,438)"/>
<path d="M0,0 L5,0 L3,1 L3,3 L0,4 Z " fill="#C4C1BE" transform="translate(1011,267)"/>
<path d="M0,0 L3,1 L1,5 L-1,5 Z " fill="#0E0100" transform="translate(1003,199)"/>
<path d="M0,0 L1,2 L3,2 L3,5 L0,5 Z " fill="#120000" transform="translate(297,695)"/>
<path d="M0,0 L4,1 L1,4 Z " fill="#320006" transform="translate(972,672)"/>
<path d="M0,0 L2,0 L2,5 L0,5 L-1,1 Z " fill="#54060B" transform="translate(487,599)"/>
<path d="M0,0 L4,1 L4,4 L2,4 L2,2 L0,2 Z " fill="#050000" transform="translate(678,562)"/>
<path d="M0,0 L5,0 L5,2 L2,3 L0,2 Z " fill="#F3EDED" transform="translate(1019,221)"/>
<path d="M0,0 L4,1 L4,3 L0,3 Z " fill="#290008" transform="translate(248,821)"/>
<path d="M0,0 L4,1 L3,3 L0,3 Z " fill="#120100" transform="translate(470,787)"/>
<path d="M0,0 L3,0 L2,4 L0,3 Z " fill="#120000" transform="translate(868,750)"/>
<path d="M0,0 L1,4 L-2,4 L-2,1 Z " fill="#150001" transform="translate(102,572)"/>
<path d="M0,0 L2,0 L2,2 L5,3 L3,5 Z " fill="#D2E1E1" transform="translate(983,216)"/>
<path d="M0,0 L1,3 L-2,4 L-2,1 Z " fill="#57050D" transform="translate(258,814)"/>
<path d="M0,0 L3,0 L3,3 L0,3 Z " fill="#100000" transform="translate(743,808)"/>
<path d="M0,0 L3,0 L3,3 L0,3 Z " fill="#0E0000" transform="translate(212,785)"/>
<path d="M0,0 L3,0 L3,3 L0,3 Z " fill="#100000" transform="translate(436,775)"/>
<path d="M0,0 L3,0 L3,3 L0,3 Z " fill="#100001" transform="translate(732,739)"/>
<path d="M0,0 L2,1 L1,4 L-1,4 Z " fill="#340004" transform="translate(879,672)"/>
<path d="M0,0 L3,0 L3,3 L0,3 Z " fill="#130000" transform="translate(329,616)"/>
<path d="M0,0 L3,0 L3,3 L0,3 Z " fill="#100001" transform="translate(476,560)"/>
<path d="M0,0 L3,0 L3,3 L0,3 Z " fill="#100000" transform="translate(632,551)"/>
<path d="M0,0 L3,0 L3,3 L0,3 Z " fill="#100000" transform="translate(727,545)"/>
<path d="M0,0 L3,0 L3,3 L0,3 Z " fill="#EDF6F8" transform="translate(1009,219)"/>
<path d="M0,0 L3,1 L3,3 L0,3 Z " fill="#6C171F" transform="translate(640,816)"/>
<path d="M0,0 L3,1 L0,4 L-1,2 Z " fill="#1C0002" transform="translate(51,627)"/>
<path d="M0,0 L2,0 L1,3 L-2,2 Z " fill="#A26474" transform="translate(1022,223)"/>
</svg>
