<?xml version="1.0" encoding="utf-8" ?>
<svg baseProfile="tiny" height="512px" version="1.2" viewBox="0,0,512,512" width="512px" xmlns="http://www.w3.org/2000/svg" xmlns:ev="http://www.w3.org/2001/xml-events" xmlns:xlink="http://www.w3.org/1999/xlink"><defs /><polygon fill="none" points="405,3 390,2 383,8 383,17 388,21 383,16 383,9 390,4 392,14 388,18 393,15 393,20 395,16 390,4" stroke="#00E5FF" stroke-width="1.2" /><polygon fill="none" points="388,23 388,30 375,37 369,37 367,34 371,32 368,33 366,29 354,28 345,33 332,34 328,39 333,34 346,33 355,28 367,32 354,33 366,33 368,37 375,37 388,31" stroke="#00E5FF" stroke-width="1.2" /></svg>