<?xml version="1.0" encoding="UTF-8"?>
<!-- Generator: visioncortex VTracer 0.6.4 -->
<svg version="1.1" xmlns="http://www.w3.org/2000/svg" width="1024" height="1024">
<path d="M0,0 L1024,0 L1024,1024 L0,1024 Z " fill="#000000" transform="translate(0,0)"/>
<path d="M0,0 L6,0 L6,4 L10,4 L10,8 L12,8 L12,12 L14,12 L14,20 L18,20 L18,54 L20,54 L20,58 L24,58 L24,60 L26,60 L26,66 L28,66 L28,70 L30,70 L30,82 L24,82 L24,78 L22,78 L22,92 L26,92 L26,96 L32,96 L32,98 L34,98 L34,102 L36,102 L36,108 L14,108 L14,120 L38,120 L38,128 L40,128 L40,144 L42,144 L42,142 L48,142 L48,148 L50,148 L50,140 L54,140 L54,136 L58,136 L58,132 L64,132 L64,138 L66,138 L66,144 L68,144 L68,150 L70,150 L70,194 L74,194 L74,200 L78,200 L78,202 L82,202 L82,204 L86,204 L86,224 L78,224 L78,216 L74,216 L74,212 L71,214 L70,240 L74,240 L74,244 L78,244 L78,256 L82,256 L82,268 L86,268 L86,270 L90,270 L90,278 L84,278 L84,284 L86,289 L83,295 L78,296 L76,300 L75,306 L75,325 L74,328 L72,328 L72,336 L70,336 L71,354 L70,356 L68,356 L69,360 L66,360 L65,364 L62,365 L61,368 L59,372 L54,373 L53,376 L53,374 L48,374 L47,377 L44,376 L44,378 L42,378 L42,380 L39,381 L36,384 L33,385 L32,387 L30,386 L29,388 L26,390 L22,390 L21,395 L19,395 L18,397 L12,398 L11,400 L9,402 L6,402 L5,404 L3,405 L3,411 L-2,412 L-10,412 L-11,416 L-11,414 L-18,416 L-21,417 L-22,419 L-27,419 L-31,423 L-31,425 L-38,424 L-40,423 L-43,425 L-46,430 L-51,431 L-53,436 L-57,438 L-58,440 L-60,440 L-61,443 L-65,443 L-65,445 L-74,444 L-75,447 L-78,447 L-78,449 L-87,448 L-88,451 L-92,450 L-92,452 L-99,453 L-101,456 L-101,454 L-103,455 L-103,457 L-110,456 L-111,459 L-115,464 L-119,465 L-122,466 L-123,471 L-125,471 L-125,473 L-133,473 L-133,475 L-139,475 L-139,477 L-147,477 L-148,479 L-154,478 L-154,484 L-254,484 L-254,486 L-268,486 L-268,484 L-278,484 L-278,472 L-272,472 L-272,474 L-266,474 L-266,472 L-254,472 L-254,470 L-250,470 L-250,468 L-248,468 L-248,466 L-232,466 L-232,464 L-222,464 L-222,460 L-218,460 L-218,458 L-206,458 L-206,456 L-198,456 L-198,454 L-190,454 L-190,452 L-178,452 L-178,444 L-166,444 L-166,446 L-150,446 L-150,444 L-148,444 L-148,438 L-144,438 L-144,436 L-134,436 L-134,440 L-130,440 L-130,438 L-128,438 L-128,436 L-126,436 L-126,432 L-136,432 L-136,426 L-132,426 L-132,424 L-128,424 L-128,422 L-124,422 L-124,420 L-120,420 L-120,418 L-116,418 L-116,416 L-110,416 L-110,414 L-106,414 L-106,412 L-100,412 L-100,410 L-94,410 L-94,408 L-90,408 L-88,404 L-86,404 L-86,402 L-82,402 L-82,400 L-80,400 L-80,398 L-76,398 L-76,396 L-72,396 L-72,394 L-68,394 L-68,392 L-86,392 L-86,390 L-102,390 L-102,392 L-108,392 L-108,394 L-112,398 L-118,398 L-118,402 L-122,406 L-126,406 L-126,408 L-128,408 L-128,410 L-130,410 L-130,412 L-137,414 L-138,416 L-144,416 L-144,418 L-152,418 L-152,420 L-174,420 L-174,422 L-186,422 L-186,424 L-218,424 L-218,428 L-250,428 L-250,432 L-266,432 L-266,428 L-278,428 L-278,424 L-298,424 L-298,422 L-302,422 L-302,420 L-350,420 L-350,416 L-352,416 L-352,414 L-356,414 L-356,412 L-358,412 L-358,406 L-360,406 L-360,398 L-364,396 L-364,394 L-370,394 L-370,392 L-376,392 L-376,390 L-386,390 L-386,388 L-390,388 L-394,384 L-394,380 L-402,380 L-404,375 L-412,367 L-414,366 L-416,361 L-418,360 L-418,356 L-438,356 L-438,358 L-436,358 L-436,360 L-428,360 L-428,362 L-422,362 L-418,367 L-416,368 L-416,376 L-426,376 L-426,378 L-422,378 L-422,380 L-418,380 L-417,390 L-414,392 L-414,390 L-408,390 L-408,394 L-406,394 L-406,396 L-404,396 L-404,400 L-402,400 L-400,403 L-394,404 L-394,400 L-386,400 L-386,396 L-378,396 L-378,404 L-380,404 L-380,410 L-376,410 L-376,412 L-372,412 L-372,420 L-384,420 L-384,424 L-402,424 L-402,426 L-400,426 L-400,432 L-414,432 L-414,428 L-424,428 L-424,430 L-422,430 L-422,436 L-442,436 L-442,444 L-446,444 L-446,446 L-442,446 L-442,452 L-452,452 L-452,450 L-454,450 L-454,446 L-456,446 L-456,444 L-470,444 L-470,440 L-472,440 L-472,436 L-482,436 L-482,434 L-490,434 L-490,432 L-500,432 L-504,428 L-504,426 L-510,426 L-510,424 L-514,424 L-514,422 L-518,422 L-520,415 L-522,414 L-522,410 L-524,410 L-524,402 L-526,402 L-526,390 L-528,390 L-532,385 L-534,384 L-535,372 L-538,370 L-538,366 L-540,366 L-540,362 L-542,362 L-542,332 L-544,332 L-544,330 L-546,330 L-546,326 L-550,324 L-554,320 L-554,324 L-558,324 L-558,326 L-566,326 L-566,322 L-568,322 L-568,320 L-572,320 L-572,318 L-574,318 L-574,314 L-578,314 L-578,312 L-582,312 L-586,308 L-586,300 L-578,300 L-574,304 L-574,258 L-568,258 L-568,260 L-566,260 L-566,266 L-562,268 L-562,270 L-560,270 L-560,274 L-558,274 L-558,276 L-554,276 L-554,278 L-552,278 L-552,282 L-548,282 L-548,284 L-546,284 L-546,292 L-554,292 L-554,308 L-548,308 L-548,310 L-546,310 L-546,314 L-544,314 L-544,316 L-542,316 L-542,294 L-536,294 L-536,296 L-534,296 L-534,288 L-528,288 L-528,292 L-526,292 L-526,266 L-520,266 L-520,268 L-518,268 L-518,256 L-510,256 L-510,258 L-508,258 L-508,262 L-506,262 L-506,268 L-502,268 L-502,272 L-494,272 L-494,282 L-492,282 L-492,284 L-490,284 L-490,292 L-499,292 L-499,296 L-495,298 L-492,301 L-488,302 L-488,308 L-486,308 L-486,312 L-484,312 L-484,316 L-480,318 L-480,320 L-472,320 L-472,324 L-468,326 L-466,330 L-462,330 L-462,320 L-466,320 L-466,310 L-460,310 L-460,312 L-458,312 L-458,304 L-462,304 L-462,284 L-466,284 L-466,276 L-462,276 L-462,260 L-458,260 L-458,252 L-454,252 L-454,248 L-450,248 L-450,240 L-448,240 L-448,238 L-442,238 L-442,236 L-440,236 L-440,228 L-436,228 L-436,224 L-434,224 L-434,216 L-432,216 L-432,212 L-428,212 L-428,210 L-426,210 L-426,204 L-424,204 L-424,202 L-422,202 L-422,198 L-420,198 L-420,196 L-418,196 L-418,192 L-416,192 L-416,188 L-408,188 L-408,186 L-406,186 L-406,184 L-402,184 L-402,182 L-398,182 L-398,180 L-390,180 L-390,178 L-388,178 L-388,176 L-378,176 L-378,172 L-372,172 L-372,170 L-366,170 L-366,168 L-362,168 L-362,166 L-360,166 L-360,164 L-358,164 L-358,160 L-354,160 L-354,154 L-352,154 L-352,152 L-346,152 L-346,150 L-342,150 L-342,148 L-338,148 L-338,146 L-334,146 L-334,134 L-332,134 L-332,132 L-330,132 L-330,128 L-328,128 L-328,124 L-326,124 L-324,120 L-322,120 L-322,118 L-318,118 L-318,116 L-300,116 L-300,114 L-298,114 L-298,112 L-294,112 L-294,104 L-298,104 L-298,98 L-294,96 L-294,94 L-292,94 L-292,92 L-280,92 L-280,90 L-274,90 L-274,88 L-234,88 L-234,90 L-230,90 L-230,92 L-218,92 L-218,98 L-212,98 L-205,106 L-202,109 L-198,110 L-198,114 L-196,114 L-196,116 L-192,116 L-190,119 L-178,120 L-178,122 L-174,122 L-174,124 L-160,124 L-160,122 L-158,122 L-158,120 L-142,120 L-142,118 L-138,118 L-138,116 L-130,116 L-130,112 L-138,112 L-138,108 L-146,108 L-146,104 L-154,104 L-154,100 L-158,100 L-158,88 L-122,88 L-122,96 L-114,96 L-114,120 L-106,120 L-106,132 L-86,132 L-86,140 L-62,140 L-62,132 L-50,132 L-50,136 L-42,136 L-42,132 L-34,132 L-34,136 L-30,136 L-30,132 L-28,132 L-28,130 L-30,130 L-30,120 L-24,120 L-24,112 L-26,112 L-26,104 L-28,104 L-28,96 L-30,96 L-30,92 L-32,92 L-32,90 L-34,90 L-34,100 L-48,100 L-48,94 L-44,94 L-44,92 L-48,92 L-52,87 L-54,86 L-54,68 L-50,68 L-50,64 L-42,64 L-42,72 L-38,72 L-38,80 L-34,80 L-34,74 L-36,74 L-36,64 L-41,63 L-42,60 L-46,60 L-46,56 L-50,56 L-54,52 L-56,47 L-58,46 L-58,40 L-62,40 L-62,34 L-64,34 L-64,32 L-69,31 L-72,28 L-72,26 L-76,26 L-76,20 L-58,20 L-58,24 L-30,24 L-30,16 L-10,16 L-10,8 L2,8 L2,6 L0,6 Z " fill="#6E5454" transform="translate(764,318)"/>
<path d="M0,0 L6,0 L6,4 L10,4 L10,8 L12,8 L12,12 L14,12 L14,20 L18,20 L18,54 L20,54 L20,58 L24,58 L24,60 L26,60 L26,66 L28,66 L28,70 L30,70 L30,82 L24,82 L24,78 L22,78 L22,92 L26,92 L26,96 L32,96 L32,98 L34,98 L34,102 L36,102 L36,108 L14,108 L14,120 L38,120 L38,128 L40,128 L40,144 L42,144 L42,142 L48,142 L48,148 L50,148 L50,140 L54,140 L54,136 L58,136 L58,132 L64,132 L64,138 L66,138 L66,144 L68,144 L68,150 L70,150 L70,194 L74,194 L74,200 L78,200 L78,202 L82,202 L82,204 L86,204 L86,224 L78,224 L78,216 L74,216 L74,212 L71,214 L70,240 L74,240 L74,244 L78,244 L78,256 L82,256 L82,268 L86,268 L86,270 L90,270 L90,278 L85,277 L83,272 L79,268 L78,259 L75,256 L74,246 L70,244 L67,240 L67,214 L68,210 L74,208 L74,211 L76,211 L80,215 L82,216 L82,206 L76,204 L73,201 L70,200 L70,195 L68,195 L68,198 L44,198 L39,200 L34,204 L23,204 L22,201 L19,201 L18,197 L18,187 L22,183 L26,182 L28,181 L28,179 L33,180 L34,177 L34,164 L37,163 L35,156 L35,153 L38,151 L43,153 L48,154 L47,148 L45,148 L44,146 L40,147 L36,144 L36,128 L34,128 L34,124 L26,124 L20,125 L12,123 L10,114 L12,107 L14,104 L31,104 L31,101 L25,99 L20,93 L18,92 L17,86 L19,86 L18,79 L22,75 L26,77 L25,70 L22,62 L16,57 L13,44 L14,34 L14,23 L15,21 L11,20 L8,11 L8,8 L3,11 L2,12 L-5,13 L-9,19 L-10,20 L-26,21 L-28,26 L-31,28 L-57,28 L-60,25 L-69,24 L-65,28 L-57,34 L-58,39 L-54,40 L-52,47 L-50,48 L-49,51 L-46,53 L-46,55 L-41,57 L-41,59 L-39,59 L-38,36 L-33,32 L-29,33 L-26,36 L-25,40 L-22,48 L-22,53 L-20,54 L-18,60 L-17,65 L-21,68 L-31,70 L-31,81 L-34,84 L-39,83 L-42,80 L-42,74 L-45,73 L-47,70 L-48,69 L-50,74 L-50,82 L-46,88 L-40,92 L-41,95 L-38,96 L-38,91 L-33,86 L-28,91 L-25,96 L-24,103 L-22,108 L-22,111 L-20,112 L-21,121 L-25,125 L-24,131 L-29,139 L-34,140 L-34,137 L-39,137 L-42,140 L-50,140 L-50,138 L-52,137 L-51,133 L-53,133 L-53,136 L-57,137 L-61,143 L-62,141 L-86,141 L-86,140 L-62,140 L-62,132 L-50,132 L-50,136 L-42,136 L-42,132 L-34,132 L-34,136 L-30,136 L-30,132 L-28,132 L-28,130 L-30,130 L-30,120 L-24,120 L-24,112 L-26,112 L-26,104 L-28,104 L-28,96 L-30,96 L-30,92 L-32,92 L-32,90 L-34,90 L-34,100 L-48,100 L-48,94 L-44,94 L-44,92 L-48,92 L-52,87 L-54,86 L-54,68 L-50,68 L-50,64 L-42,64 L-42,72 L-38,72 L-38,80 L-34,80 L-34,74 L-36,74 L-36,64 L-41,63 L-42,60 L-46,60 L-46,56 L-50,56 L-54,52 L-56,47 L-58,46 L-58,40 L-62,40 L-62,34 L-64,34 L-64,32 L-69,31 L-72,28 L-72,26 L-76,26 L-76,20 L-58,20 L-58,24 L-30,24 L-30,16 L-10,16 L-10,8 L2,8 L2,6 L0,6 Z M8,7 Z M-33,73 Z M82,205 Z M70,241 Z M12,44 Z " fill="#3C2F2C" transform="translate(764,318)"/>
<path d="M0,0 L8,0 L8,2 L10,2 L10,6 L12,6 L12,12 L16,12 L16,16 L24,16 L24,26 L26,26 L26,28 L28,28 L28,36 L19,36 L19,40 L23,42 L26,45 L30,46 L30,52 L32,52 L32,56 L34,56 L34,60 L38,62 L38,64 L46,64 L46,68 L50,70 L52,74 L56,74 L56,64 L52,64 L52,54 L58,54 L58,56 L60,56 L60,48 L61,48 L61,55 L63,55 L63,48 L64,48 L65,55 L67,56 L65,56 L66,62 L62,64 L57,60 L55,61 L55,56 L53,55 L53,63 L58,62 L58,64 L60,64 L61,73 L56,78 L51,77 L51,75 L47,73 L45,69 L38,68 L37,65 L33,63 L33,61 L31,61 L27,53 L25,48 L18,42 L17,36 L20,32 L24,32 L22,27 L20,26 L20,20 L16,20 L12,15 L15,15 L15,13 L11,14 L9,13 L6,6 L5,5 L4,12 L1,15 L-4,15 L-3,26 L-4,36 L-8,40 L-13,41 L-15,43 L-20,43 L-19,47 L-20,54 L-21,61 L-23,63 L-27,62 L-32,58 L-32,56 L-38,55 L-38,62 L-33,61 L-26,68 L-26,70 L-24,70 L-24,73 L-22,73 L-20,79 L-20,106 L-18,106 L-15,113 L-14,116 L-12,117 L-12,125 L-6,132 L-6,134 L-4,135 L-4,146 L-2,146 L-1,154 L3,159 L3,162 L7,164 L10,166 L14,166 L14,168 L18,170 L22,172 L27,172 L28,173 L36,174 L36,176 L46,176 L48,177 L50,181 L50,184 L58,184 L67,186 L72,186 L72,181 L78,176 L91,176 L91,170 L95,168 L103,168 L107,172 L113,171 L113,166 L116,166 L116,164 L120,164 L121,162 L133,162 L134,160 L141,159 L137,157 L137,155 L135,155 L133,146 L125,145 L125,147 L131,147 L131,148 L126,148 L124,152 L122,153 L117,151 L117,149 L113,147 L109,141 L109,139 L102,140 L101,137 L99,137 L99,135 L97,135 L94,126 L89,123 L88,119 L92,118 L101,119 L101,113 L99,113 L99,117 L92,117 L92,116 L98,116 L96,112 L91,110 L95,109 L95,107 L90,107 L89,109 L81,107 L81,105 L77,103 L76,99 L79,99 L79,97 L81,96 L94,96 L94,98 L100,99 L100,92 L96,92 L96,88 L88,88 L88,84 L80,84 L80,80 L88,80 L88,76 L96,76 L96,72 L98,72 L98,78 L101,78 L102,97 L101,103 L103,103 L104,100 L106,103 L105,109 L107,109 L107,106 L109,106 L112,111 L118,117 L117,123 L124,123 L124,124 L116,124 L114,119 L106,111 L104,110 L102,105 L100,104 L100,100 L80,100 L80,102 L82,102 L82,104 L90,104 L90,106 L96,106 L100,111 L102,112 L102,120 L92,120 L92,122 L96,122 L96,124 L100,124 L101,134 L104,136 L104,134 L110,134 L110,138 L112,138 L112,140 L114,140 L114,144 L116,144 L118,147 L124,148 L124,144 L132,144 L132,140 L140,140 L140,148 L138,148 L138,154 L142,154 L142,156 L146,156 L146,164 L134,164 L134,168 L116,168 L116,170 L118,170 L118,176 L104,176 L104,172 L94,172 L94,174 L96,174 L96,180 L76,180 L76,188 L72,188 L72,190 L76,190 L76,196 L66,196 L66,194 L64,194 L64,190 L62,190 L62,188 L48,188 L48,184 L46,184 L46,180 L36,180 L36,178 L28,178 L28,176 L18,176 L14,172 L14,170 L8,170 L8,168 L4,168 L4,166 L0,166 L-2,159 L-4,158 L-4,154 L-6,154 L-6,146 L-8,146 L-8,134 L-10,134 L-14,129 L-16,128 L-17,116 L-20,114 L-20,110 L-22,110 L-22,106 L-24,106 L-24,76 L-26,76 L-26,74 L-28,74 L-28,70 L-32,68 L-36,64 L-36,68 L-40,68 L-40,70 L-48,70 L-48,66 L-50,66 L-50,64 L-54,64 L-54,62 L-56,62 L-56,58 L-60,58 L-60,56 L-64,56 L-68,52 L-68,44 L-60,44 L-56,48 L-56,2 L-50,2 L-50,4 L-48,4 L-48,10 L-44,12 L-44,14 L-42,14 L-42,18 L-40,18 L-40,20 L-36,20 L-36,22 L-34,22 L-34,26 L-30,26 L-30,28 L-28,28 L-28,36 L-36,36 L-36,52 L-30,52 L-30,54 L-28,54 L-28,58 L-26,58 L-26,60 L-24,60 L-24,38 L-18,38 L-18,40 L-16,40 L-16,32 L-10,32 L-10,36 L-8,36 L-8,10 L-2,10 L-2,12 L0,12 Z M-27,70 Z M-21,106 Z M-19,110 Z M-3,154 Z M49,184 Z " fill="#3F312E" transform="translate(246,574)"/>
<path d="M0,0 L2,2 L1,7 L3,8 L2,10 L9,9 L13,12 L16,11 L17,6 L18,9 L20,10 L16,15 L14,15 L12,19 L7,22 L5,22 L5,20 L3,20 L4,23 L-7,31 L-11,32 L-12,34 L-12,32 L-15,32 L-15,34 L-13,35 L-16,36 L-16,34 L-21,34 L-21,36 L-19,37 L-37,44 L-39,44 L-39,42 L-41,42 L-40,45 L-49,50 L-46,52 L-46,55 L-44,54 L-33,54 L-34,56 L-44,56 L-45,60 L-53,67 L-60,67 L-59,64 L-63,63 L-65,65 L-71,72 L-87,73 L-85,77 L-85,101 L-86,104 L-77,103 L-76,107 L-176,107 L-176,109 L-190,109 L-190,107 L-200,107 L-200,95 L-194,95 L-194,97 L-188,97 L-188,95 L-176,95 L-176,93 L-172,93 L-172,91 L-170,91 L-170,89 L-154,89 L-154,87 L-144,87 L-144,83 L-140,83 L-140,81 L-128,81 L-128,79 L-120,79 L-120,77 L-112,77 L-112,75 L-100,75 L-100,67 L-88,67 L-88,69 L-72,69 L-72,67 L-70,67 L-70,61 L-66,61 L-66,59 L-56,59 L-56,63 L-52,63 L-52,61 L-50,61 L-50,59 L-48,59 L-48,55 L-58,55 L-58,49 L-54,49 L-54,47 L-50,47 L-50,45 L-46,45 L-46,43 L-42,43 L-42,41 L-38,41 L-38,39 L-32,39 L-32,37 L-28,37 L-28,35 L-22,35 L-22,33 L-16,33 L-16,31 L-12,31 L-10,27 L-8,27 L-8,25 L-4,25 L-4,23 L-2,23 L-2,21 L2,21 L2,19 L6,19 L6,17 L10,17 L10,15 L-8,15 L-8,13 L-24,13 L-24,12 L-8,12 L-8,10 L-4,8 L-2,2 L0,2 Z " fill="#423431" transform="translate(686,695)"/>
<path d="M0,0 L4,0 L4,30 L8,32 L8,40 L12,40 L12,42 L14,42 L14,46 L18,48 L20,50 L20,56 L16,56 L16,64 L26,64 L26,66 L32,66 L32,64 L44,64 L44,84 L40,84 L40,88 L36,88 L36,80 L32,80 L32,74 L26,74 L26,84 L24,84 L24,90 L22,90 L22,96 L20,96 L20,98 L17,100 L16,124 L8,124 L8,120 L2,120 L2,126 L-8,124 L-8,120 L-4,120 L-4,116 L0,116 L0,90 L2,90 L2,74 L0,74 L0,44 L-4,44 L-4,40 L-2,40 L-2,28 L-8,28 L-8,20 L-4,20 L-4,12 L0,12 Z " fill="#040303" transform="translate(738,514)"/>
<path d="M0,0 L19,0 L15,2 L2,2 L2,8 L-2,11 L-28,11 L-31,8 L-40,7 L-36,11 L-28,17 L-29,22 L-25,23 L-23,30 L-21,31 L-20,34 L-17,36 L-17,38 L-12,40 L-12,42 L-10,42 L-9,19 L-4,15 L0,16 L3,19 L4,23 L7,31 L7,36 L9,37 L11,43 L12,48 L8,51 L-2,53 L-2,64 L-5,67 L-10,66 L-13,63 L-13,57 L-16,56 L-18,53 L-19,52 L-21,57 L-21,65 L-17,71 L-11,75 L-12,78 L-9,79 L-9,74 L-4,69 L1,74 L4,79 L5,86 L7,91 L7,94 L9,95 L8,104 L4,108 L5,114 L0,122 L-5,123 L-5,120 L-10,120 L-13,123 L-21,123 L-21,121 L-23,120 L-22,116 L-24,116 L-24,119 L-28,120 L-32,126 L-33,124 L-57,124 L-57,123 L-33,123 L-33,115 L-21,115 L-21,119 L-13,119 L-13,115 L-5,115 L-5,119 L-1,119 L-1,115 L1,115 L1,113 L-1,113 L-1,103 L5,103 L5,95 L3,95 L3,87 L1,87 L1,79 L-1,79 L-1,75 L-3,75 L-3,73 L-5,73 L-5,83 L-19,83 L-19,77 L-15,77 L-15,75 L-19,75 L-23,70 L-25,69 L-25,51 L-21,51 L-21,47 L-13,47 L-13,55 L-9,55 L-9,63 L-5,63 L-5,57 L-7,57 L-7,47 L-12,46 L-13,43 L-17,43 L-17,39 L-21,39 L-25,35 L-27,30 L-29,29 L-29,23 L-33,23 L-33,17 L-35,17 L-35,15 L-40,14 L-43,11 L-43,9 L-47,9 L-47,3 L-29,3 L-29,7 L0,7 Z M-4,56 Z " fill="#473836" transform="translate(735,335)"/>
<path d="M0,0 L20,0 L20,4 L28,4 L28,8 L32,8 L32,44 L24,44 L24,42 L20,42 L20,40 L15,39 L14,36 L6,36 L4,32 L0,32 L0,30 L-4,30 L-4,28 L-12,28 L-12,26 L-16,26 L-16,24 L-20,24 L-20,22 L-24,22 L-24,20 L-30,20 L-30,18 L-36,18 L-36,12 L-8,12 L-8,4 L0,4 Z " fill="#4C3A39" transform="translate(562,274)"/>
<path d="M0,0 L2,0 L2,6 L5,6 L6,25 L5,31 L7,31 L8,28 L10,31 L9,37 L11,37 L11,34 L13,34 L16,39 L22,45 L21,51 L28,51 L28,52 L20,52 L18,47 L10,39 L8,38 L6,33 L4,32 L4,28 L-16,28 L-16,30 L-14,30 L-14,32 L-6,32 L-6,34 L0,34 L4,39 L6,40 L6,48 L-4,48 L-4,50 L0,50 L0,52 L4,52 L5,62 L8,64 L8,62 L14,62 L14,66 L16,66 L16,68 L18,68 L18,72 L20,72 L22,75 L28,76 L28,72 L36,72 L36,68 L44,68 L44,76 L42,76 L42,82 L46,82 L46,84 L50,84 L50,92 L38,92 L38,96 L20,96 L20,98 L22,98 L22,104 L8,104 L8,100 L-2,100 L-1,107 L-20,107 L-19,104 L-5,104 L-5,98 L-1,96 L7,96 L11,100 L17,99 L17,94 L20,94 L20,92 L24,92 L25,90 L37,90 L38,88 L45,87 L41,85 L41,83 L39,83 L37,74 L29,73 L29,75 L35,75 L35,76 L30,76 L28,80 L26,81 L21,79 L21,77 L17,75 L13,69 L13,67 L6,68 L5,65 L3,65 L3,63 L1,63 L-2,54 L-7,51 L-8,47 L-4,46 L5,47 L5,41 L3,41 L3,45 L-4,45 L-4,44 L2,44 L0,40 L-5,38 L-1,37 L-1,35 L-6,35 L-7,37 L-15,35 L-15,33 L-19,31 L-20,27 L-17,27 L-17,25 L-15,24 L-2,24 L-2,26 L4,27 L4,20 L0,20 L0,16 L-8,16 L-8,12 L-16,12 L-16,8 L-8,8 L-8,4 L0,4 Z " fill="#554142" transform="translate(342,646)"/>
<path d="M0,0 L8,0 L14,1 L14,2 L8,2 L8,4 L0,4 L0,6 L-22,6 L-22,8 L-34,8 L-34,10 L-66,10 L-66,14 L-98,14 L-98,18 L-114,18 L-114,14 L-126,14 L-126,10 L-146,10 L-146,8 L-150,7 L-146,7 L-146,5 L-149,4 L-143,5 L-123,6 L-100,6 L-99,7 L-93,7 L-90,5 L-67,6 L-36,6 L-36,4 L-22,4 L-1,5 L-1,3 L-22,3 L-22,2 L0,2 L7,3 L7,1 L0,1 Z M-100,5 Z " fill="#68504F" transform="translate(612,732)"/>
<path d="M0,0 L2,2 L1,7 L3,8 L2,10 L9,9 L13,12 L16,11 L17,6 L18,9 L20,10 L16,15 L14,15 L12,19 L7,22 L5,22 L5,20 L3,20 L4,23 L-7,31 L-11,32 L-12,34 L-12,32 L-15,32 L-15,34 L-13,35 L-16,36 L-16,34 L-21,34 L-21,36 L-19,37 L-37,44 L-39,44 L-39,42 L-41,42 L-40,45 L-49,50 L-46,52 L-46,55 L-44,54 L-33,54 L-34,56 L-44,56 L-45,60 L-53,67 L-60,67 L-59,64 L-63,63 L-65,65 L-71,72 L-87,73 L-90,75 L-97,76 L-99,78 L-111,80 L-119,80 L-119,78 L-112,78 L-112,75 L-100,75 L-100,67 L-88,67 L-88,69 L-72,69 L-72,67 L-70,67 L-70,61 L-66,61 L-66,59 L-56,59 L-56,63 L-52,63 L-52,61 L-50,61 L-50,59 L-48,59 L-48,55 L-58,55 L-58,49 L-54,49 L-54,47 L-50,47 L-50,45 L-46,45 L-46,43 L-42,43 L-42,41 L-38,41 L-38,39 L-32,39 L-32,37 L-28,37 L-28,35 L-22,35 L-22,33 L-16,33 L-16,31 L-12,31 L-10,27 L-8,27 L-8,25 L-4,25 L-4,23 L-2,23 L-2,21 L2,21 L2,19 L6,19 L6,17 L10,17 L10,15 L-8,15 L-8,13 L-24,13 L-24,12 L-8,12 L-8,10 L-4,8 L-2,2 L0,2 Z " fill="#523E3F" transform="translate(686,695)"/>
<path d="M0,0 L2,0 L3,27 L17,28 L16,31 L6,33 L6,44 L3,47 L-2,46 L-5,43 L-5,37 L-8,36 L-10,33 L-11,32 L-13,37 L-13,45 L-9,51 L-3,55 L-4,58 L-1,59 L-1,54 L4,49 L9,54 L12,59 L13,66 L15,71 L15,74 L17,75 L16,84 L12,88 L13,94 L8,102 L3,103 L3,100 L-2,100 L-5,103 L-13,103 L-13,101 L-15,100 L-14,96 L-16,96 L-16,99 L-20,100 L-24,106 L-25,104 L-49,104 L-49,103 L-25,103 L-25,95 L-13,95 L-13,99 L-5,99 L-5,95 L3,95 L3,99 L7,99 L7,95 L9,95 L9,93 L7,93 L7,83 L13,83 L13,75 L11,75 L11,67 L9,67 L9,59 L7,59 L7,55 L5,55 L5,53 L3,53 L3,63 L-11,63 L-11,57 L-7,57 L-7,55 L-11,55 L-15,50 L-17,49 L-17,31 L-13,31 L-13,27 L-5,27 L-5,35 L-1,35 L-1,43 L3,43 L3,37 L1,37 L1,26 L-2,25 L0,25 Z M4,36 Z " fill="#4E3D3B" transform="translate(727,355)"/>
<path d="M0,0 L6,0 L6,6 L2,6 L2,10 L-2,10 L-2,14 L-7,18 L-8,22 L-10,22 L-10,24 L-12,24 L-12,26 L-16,26 L-16,28 L-22,28 L-22,30 L-34,30 L-34,32 L-38,32 L-38,34 L-40,34 L-40,38 L-42,38 L-42,40 L-48,40 L-48,16 L-16,16 L-16,12 L-12,12 L-12,8 L-4,8 L-4,4 L0,4 Z " fill="#403330" transform="translate(238,502)"/>
<path d="M0,0 L8,0 L8,2 L10,2 L10,6 L12,6 L12,12 L16,12 L16,16 L24,16 L24,26 L26,26 L26,28 L28,28 L28,36 L19,36 L19,40 L23,42 L26,45 L30,46 L30,52 L32,52 L32,56 L34,56 L34,60 L38,62 L38,64 L46,64 L46,68 L50,70 L52,74 L56,74 L56,64 L52,64 L52,54 L58,54 L58,56 L60,56 L60,48 L61,48 L61,55 L63,55 L63,48 L64,48 L65,55 L67,56 L65,56 L66,62 L62,64 L57,60 L55,61 L55,56 L53,55 L53,63 L58,62 L58,64 L60,64 L61,73 L56,78 L51,77 L51,75 L47,73 L45,69 L38,68 L37,65 L33,63 L33,61 L31,61 L27,53 L25,48 L18,42 L17,36 L20,32 L24,32 L22,27 L20,26 L20,20 L16,20 L12,15 L15,15 L15,13 L11,14 L9,13 L6,6 L5,5 L4,12 L1,15 L-4,15 L-3,26 L-4,36 L-8,40 L-15,40 L-15,33 L-11,33 L-11,36 L-8,36 L-8,10 L-2,10 L-2,12 L0,12 Z " fill="#533F3E" transform="translate(246,574)"/>
<path d="M0,0 L28,0 L28,2 L32,2 L32,36 L24,36 L24,32 L20,32 L20,28 L16,28 L16,24 L12,24 L12,16 L8,16 L8,8 L4,8 L4,6 L0,6 Z " fill="#463435" transform="translate(674,286)"/>
<path d="M0,0 L1,0 L1,29 L3,29 L4,27 L4,30 L6,30 L9,37 L10,40 L12,41 L12,49 L18,56 L18,58 L20,59 L20,70 L22,70 L23,78 L27,83 L27,86 L31,88 L34,90 L38,90 L38,92 L42,94 L46,96 L51,96 L52,97 L60,98 L60,100 L70,100 L72,101 L74,105 L74,108 L82,108 L91,110 L96,110 L96,105 L99,103 L119,103 L119,98 L120,98 L120,104 L100,104 L100,112 L96,112 L96,114 L100,114 L100,120 L90,120 L90,118 L88,118 L88,114 L86,114 L86,112 L72,112 L72,108 L70,108 L70,104 L60,104 L60,102 L52,102 L52,100 L42,100 L38,96 L38,94 L32,94 L32,92 L28,92 L28,90 L24,90 L22,83 L20,82 L20,78 L18,78 L18,70 L16,70 L16,58 L14,58 L10,53 L8,52 L7,40 L4,38 L4,34 L2,34 L2,30 L0,30 Z M3,30 Z M5,34 Z M21,78 Z M73,108 Z " fill="#352424" transform="translate(222,650)"/>
<path d="M0,0 L6,0 L6,1 L1,1 L1,11 L22,9 L25,8 L46,7 L48,6 L75,8 L75,6 L79,7 L89,7 L92,7 L103,8 L110,8 L110,6 L114,7 L114,9 L123,8 L124,12 L24,12 L24,14 L10,14 L10,12 L0,12 Z " fill="#382A28" transform="translate(486,790)"/>
<path d="M0,0 L2,0 L2,6 L5,6 L6,25 L5,31 L7,31 L8,28 L10,31 L9,37 L11,37 L11,34 L13,34 L16,39 L22,45 L21,51 L28,51 L28,52 L20,52 L18,47 L10,39 L8,38 L6,33 L4,32 L4,28 L-16,28 L-16,30 L-14,30 L-14,32 L-6,32 L-6,34 L0,34 L5,41 L3,41 L3,45 L-4,45 L-4,44 L2,44 L0,40 L-5,38 L-1,37 L-1,35 L-6,35 L-7,37 L-15,35 L-15,33 L-19,31 L-20,27 L-17,27 L-17,25 L-15,24 L-2,24 L-2,26 L4,27 L4,20 L0,20 L0,16 L-8,16 L-8,12 L-16,12 L-16,8 L-8,8 L-8,4 L0,4 Z " fill="#5E4747" transform="translate(342,646)"/>
<path d="M0,0 L2,2 L1,7 L3,8 L2,10 L9,9 L13,12 L16,11 L17,6 L18,9 L20,10 L16,15 L14,15 L12,19 L7,22 L5,22 L5,20 L3,20 L4,23 L-7,31 L-11,32 L-12,34 L-12,32 L-15,32 L-15,34 L-13,35 L-16,36 L-16,34 L-21,34 L-21,36 L-19,37 L-37,44 L-39,44 L-39,42 L-41,42 L-40,45 L-49,50 L-53,50 L-53,48 L-50,48 L-50,45 L-46,45 L-46,43 L-42,43 L-42,41 L-38,41 L-38,39 L-32,39 L-32,37 L-28,37 L-28,35 L-22,35 L-22,33 L-16,33 L-16,31 L-12,31 L-10,27 L-8,27 L-8,25 L-4,25 L-4,23 L-2,23 L-2,21 L2,21 L2,19 L6,19 L6,17 L10,17 L10,15 L-8,15 L-8,13 L-24,13 L-24,12 L-8,12 L-8,10 L-4,8 L-2,2 L0,2 Z " fill="#5C4547" transform="translate(686,695)"/>
<path d="M0,0 L4,0 L4,4 L2,4 L2,6 L6,6 L6,12 L4,12 L4,14 L2,14 L2,18 L-2,18 L-2,20 L-4,20 L-4,22 L-6,22 L-6,50 L-8,50 L-8,58 L-10,58 L-10,80 L-12,80 L-12,82 L-14,82 L-14,86 L-16,86 L-16,88 L-18,88 L-18,90 L-20,90 L-20,94 L-22,94 L-22,96 L-24,96 L-24,98 L-30,98 L-30,95 L-25,93 L-23,89 L-19,85 L-18,82 L-16,81 L-16,78 L-14,78 L-14,58 L-12,58 L-12,50 L-10,50 L-10,28 L-8,19 L-4,16 L-1,15 L1,9 L-1,4 Z " fill="#332623" transform="translate(848,596)"/>
<path d="M0,0 L6,0 L7,4 L1,4 L1,6 L-5,6 L-5,8 L-9,8 L-9,10 L-11,10 L-11,12 L-17,12 L-17,14 L-21,14 L-21,16 L-25,16 L-25,18 L-27,18 L-27,20 L-33,20 L-33,22 L-35,22 L-35,24 L-37,24 L-37,26 L-39,26 L-39,30 L-41,30 L-41,32 L-49,32 L-49,34 L-57,34 L-57,36 L-63,36 L-63,38 L-71,38 L-71,40 L-73,40 L-73,42 L-83,42 L-82,38 L-75,38 L-75,36 L-71,36 L-70,34 L-61,35 L-61,33 L-63,32 L-58,32 L-57,30 L-50,30 L-48,31 L-49,28 L-44,28 L-43,26 L-41,26 L-40,23 L-36,21 L-34,16 L-28,14 L-27,9 L-20,8 L-18,10 L-14,11 L-14,9 L-17,8 L-12,8 L-10,4 L-5,4 L-5,2 Z " fill="#372424" transform="translate(747,732)"/>
<path d="M0,0 L7,0 L7,4 L19,4 L19,0 L25,0 L25,8 L23,8 L23,12 L27,12 L27,18 L25,18 L25,20 L19,20 L19,16 L14,20 L13,22 L7,22 L7,6 L5,6 L5,8 L-1,8 L-1,1 Z " fill="#4D3C3A" transform="translate(235,518)"/>
<path d="M0,0 L5,2 L11,7 L13,11 L13,19 L8,29 L4,31 L0,25 L-2,17 L-4,17 L-4,3 Z " fill="#4B3D39" transform="translate(786,547)"/>
<path d="M0,0 L36,0 L36,8 L44,8 L44,32 L52,32 L52,44 L51,44 L51,33 L40,33 L40,12 L35,11 L35,9 L32,8 L32,4 L6,5 L5,10 L11,12 L11,13 L5,13 L5,15 L12,15 L12,16 L4,16 L4,12 L0,12 Z " fill="#664E4D" transform="translate(606,406)"/>
<path d="M0,0 L28,0 L28,12 L0,12 Z " fill="#473637" transform="translate(614,286)"/>
<path d="M0,0 L4,0 L4,32 L-4,32 L-4,36 L-16,36 L-16,22 L-14,22 L-14,24 L-8,24 L-8,18 L-6,18 L-6,22 L0,22 Z " fill="#050404" transform="translate(802,482)"/>
<path d="M0,0 L14,0 L18,4 L18,23 L16,26 L14,26 L12,30 L6,35 L5,29 L3,28 L5,28 L5,21 L2,20 L6,20 L6,28 L10,28 L10,24 L14,24 L14,4 L2,4 L2,6 L-4,6 L-4,5 L1,5 Z M2,34 L6,35 L8,41 L4,46 L0,46 L-2,41 L-1,36 Z " fill="#513E3D" transform="translate(768,574)"/>
<path d="M0,0 L4,0 L4,8 L-8,8 L-8,12 L-26,12 L-26,14 L-24,14 L-24,20 L-38,20 L-38,16 L-48,16 L-47,23 L-66,23 L-65,20 L-51,20 L-51,14 L-47,12 L-39,12 L-35,16 L-29,15 L-29,10 L-26,10 L-26,8 L-22,8 L-21,6 L-9,6 L-8,4 L-8,7 L3,7 L3,1 Z " fill="#4C3A3B" transform="translate(388,730)"/>
<path d="M0,0 L5,1 L8,3 L10,11 L10,25 L5,30 L2,31 L1,26 L-1,25 L-3,7 Z M10,23 Z " fill="#403631" transform="translate(800,525)"/>
<path d="M0,0 L5,0 L6,4 L0,4 L0,6 L-4,6 L-4,8 L-6,8 L-6,10 L-10,10 L-10,12 L-12,12 L-12,14 L-16,14 L-16,16 L-18,16 L-18,20 L-26,20 L-26,24 L-30,24 L-30,26 L-34,26 L-34,28 L-36,28 L-36,30 L-40,30 L-40,32 L-42,32 L-42,38 L-46,38 L-46,40 L-48,40 L-48,42 L-58,42 L-58,38 L-49,37 L-47,36 L-45,37 L-46,31 L-40,27 L-36,24 L-33,22 L-27,21 L-26,16 L-21,14 L-16,12 L-16,10 L-10,7 L-6,6 L-6,4 L-4,4 L-4,2 L-1,2 Z " fill="#322120" transform="translate(812,692)"/>
<path d="M0,0 L6,0 L6,6 L5,6 L5,1 L1,1 L1,10 L3,11 L1,18 L-1,23 L-5,28 L-6,45 L-7,45 L-7,27 L-9,27 L-9,50 L-7,51 L-11,54 L-17,54 L-20,52 L-24,56 L-35,54 L-37,50 L-35,50 L-34,46 L-34,50 L-27,50 L-24,52 L-24,46 L-18,46 L-18,50 L-10,50 L-10,26 L-6,24 L-6,22 L-4,22 L-4,16 L-2,16 L-2,10 L0,10 Z M-36,54 Z " fill="#584343" transform="translate(764,588)"/>
<path d="M0,0 L18,0 L18,6 L14,6 L14,8 L4,8 L4,10 L2,10 L2,12 L-4,12 L-4,14 L-10,14 L-10,4 L-4,4 L-4,2 L0,2 Z " fill="#382D2A" transform="translate(200,502)"/>
<path d="M0,0 L1,0 L1,6 L-19,6 L-19,14 L-23,14 L-23,16 L-19,16 L-19,22 L-29,22 L-29,20 L-31,20 L-31,16 L-33,16 L-33,14 L-47,14 L-47,10 L-49,10 L-49,5 L-58,5 L-58,3 L-49,2 L-47,3 L-45,7 L-45,10 L-37,10 L-28,12 L-23,12 L-23,7 L-20,5 L0,5 Z M-46,10 Z " fill="#372A29" transform="translate(341,748)"/>
<path d="M0,0 L3,0 L3,21 L-1,21 L-1,18 L-4,18 L-4,24 L-10,24 L-10,22 L-12,22 L-12,36 L1,36 L1,33 L8,33 L7,36 L3,37 L0,40 L-11,40 L-12,37 L-15,37 L-16,33 L-16,23 L-12,19 L-8,18 L-6,17 L-6,15 L-1,16 L0,13 Z " fill="#463835" transform="translate(798,482)"/>
<path d="M0,0 L4,0 L4,4 L6,4 L6,8 L8,8 L8,18 L10,18 L10,24 L12,24 L12,26 L14,26 L14,28 L0,28 Z " fill="#070605" transform="translate(730,354)"/>
<path d="M0,0 L4,1 L7,4 L8,8 L11,16 L11,21 L13,22 L15,28 L16,33 L13,34 L-1,33 L-2,32 L-2,5 L-4,5 L-4,30 L-3,32 L-8,31 L-9,28 L-13,28 L-12,24 L-12,27 L-10,27 L-9,24 L-8,27 L-6,27 L-5,4 Z M-1,4 L-1,32 L13,32 L13,30 L11,30 L11,28 L9,28 L9,22 L7,22 L7,12 L5,12 L5,8 L3,8 L3,4 Z " fill="#423432" transform="translate(731,350)"/>
<path d="M0,0 L2,2 L1,7 L3,8 L2,10 L9,9 L13,12 L16,11 L17,6 L18,9 L20,10 L16,15 L14,15 L12,19 L11,15 L-8,15 L-8,13 L-24,13 L-24,12 L-8,12 L-8,10 L-4,8 L-2,2 L0,2 Z M7,18 L11,19 L7,20 Z " fill="#62494C" transform="translate(686,695)"/>
<path d="M0,0 L2,0 L2,6 L4,6 L4,20 L0,20 L0,16 L-8,16 L-8,12 L-16,12 L-16,8 L-8,8 L-8,4 L0,4 Z " fill="#0B0808" transform="translate(342,646)"/>
<path d="M0,0 L5,0 L6,4 L0,4 L0,6 L-4,6 L-4,8 L-6,8 L-6,10 L-8,10 L-8,12 L-10,12 L-10,14 L-12,14 L-12,16 L-16,16 L-16,20 L-20,20 L-20,22 L-28,22 L-28,24 L-34,24 L-34,26 L-42,26 L-42,28 L-48,28 L-48,24 L-42,24 L-42,22 L-35,22 L-33,23 L-34,20 L-27,21 L-28,18 L-21,18 L-19,19 L-20,16 L-17,15 L-16,12 L-11,9 L-7,7 L-4,2 L3,3 L3,1 Z " fill="#372624" transform="translate(658,772)"/>
<path d="M0,0 L12,0 L12,4 L20,4 L20,0 L28,0 L28,4 L33,4 L33,1 L35,1 L34,6 L32,8 L28,8 L28,5 L23,5 L20,8 L12,8 L12,6 L10,5 L11,1 L9,1 L9,4 L5,5 L1,11 L0,9 L-24,9 L-24,8 L0,8 Z " fill="#533F3E" transform="translate(702,450)"/>
<path d="M0,0 L2,0 L2,4 L-19,4 L-19,18 L4,18 L4,25 L1,25 L1,21 L-7,21 L-13,22 L-21,20 L-23,11 L-21,4 L-19,1 L-3,1 L0,2 Z " fill="#403330" transform="translate(797,421)"/>
<path d="M0,0 L1,0 L1,8 L-9,8 L-9,10 L-5,10 L-5,12 L-1,12 L0,22 L3,24 L3,22 L9,22 L9,26 L11,26 L11,28 L13,28 L13,32 L15,32 L17,35 L23,36 L23,37 L17,37 L16,39 L16,37 L12,35 L8,29 L8,27 L1,28 L0,25 L-2,25 L-2,23 L-4,23 L-7,14 L-12,11 L-13,7 L-9,6 L0,7 Z " fill="#4E3C3C" transform="translate(347,686)"/>
<path d="M0,0 L8,0 L8,1 L1,1 L1,14 L-2,13 L-2,15 L-4,15 L-3,26 L-4,36 L-8,40 L-15,40 L-15,33 L-11,33 L-11,36 L-8,36 L-8,10 L-2,10 L-2,12 L0,12 Z " fill="#51413E" transform="translate(246,574)"/>
<path d="M0,0 L7,0 L7,4 L19,4 L19,0 L25,0 L25,8 L23,8 L22,12 L22,8 L10,7 L10,19 L8,21 L13,21 L13,22 L7,22 L7,6 L5,6 L5,8 L-1,8 L-1,1 Z " fill="#493A38" transform="translate(235,518)"/>
<path d="M0,0 L2,0 L3,9 L4,15 L9,20 L13,23 L12,26 L15,27 L15,22 L20,17 L21,20 L19,20 L19,31 L5,31 L5,25 L9,25 L9,23 L5,23 L0,17 Z " fill="#513E3D" transform="translate(711,387)"/>
<path d="M0,0 L4,0 L4,30 L6,30 L6,46 L4,46 L4,72 L0,72 L0,76 L-4,75 L-1,75 L-2,70 L0,70 L0,46 L2,50 L2,64 L1,71 L3,71 L2,46 L1,44 L1,30 L3,30 L3,1 Z " fill="#5E4848" transform="translate(734,558)"/>
<path d="M0,0 L12,0 L12,2 L28,2 L28,3 L12,3 L13,6 L10,8 L3,9 L1,11 L-11,13 L-19,13 L-19,11 L-12,11 L-12,8 L0,8 Z " fill="#493A37" transform="translate(586,762)"/>
<path d="M0,0 L6,0 L6,5 L9,5 L8,8 L3,11 L2,12 L-5,13 L-9,19 L-10,20 L-27,21 L-27,19 L-14,18 L-29,17 L-29,24 L-30,24 L-30,16 L-10,16 L-10,8 L2,8 L2,6 L0,6 Z " fill="#372A2A" transform="translate(764,318)"/>
<path d="M0,0 L8,0 L14,1 L14,2 L8,2 L8,4 L0,4 L0,6 L-22,6 L-22,8 L-34,8 L-34,10 L-66,10 L-66,9 L-35,9 L-35,7 L-44,7 L-44,6 L-36,6 L-36,4 L-22,4 L-1,5 L-1,3 L-22,3 L-22,2 L0,2 L7,3 L7,1 L0,1 Z " fill="#5D4848" transform="translate(612,732)"/>
<path d="M0,0 L10,0 L16,1 L16,5 L19,6 L16,8 L11,6 L8,8 L5,6 L2,8 L-1,8 L-3,6 L-5,8 L-10,9 L-10,5 L-14,6 L-14,3 L-10,1 L-5,1 L-2,2 Z M16,0 Z " fill="#4E3739" transform="translate(686,732)"/>
<path d="M0,0 L2,0 L2,18 L-4,18 L-4,11 L-9,11 L-9,7 L-14,9 L-14,33 L-15,33 L-16,27 L-16,9 L-15,5 L-9,3 L-9,6 L-7,6 L-3,10 L-1,11 L-1,1 Z " fill="#403530" transform="translate(847,523)"/>
<path d="M0,0 L20,0 L20,4 L24,6 L24,10 L27,11 L25,12 L23,11 L23,20 L22,20 L22,12 L18,10 L16,6 L10,6 L10,4 L2,4 L2,2 L0,2 Z " fill="#110D0D" transform="translate(326,674)"/>
<path d="M0,0 L6,1 L8,4 L6,4 L6,33 L8,33 L8,6 L9,6 L10,32 L11,35 L10,43 L12,43 L12,36 L14,40 L15,46 L13,46 L13,44 L9,44 L8,36 L5,34 L5,4 L1,4 L1,16 L-3,15 L0,15 L-1,1 Z " fill="#503E3D" transform="translate(737,510)"/>
<path d="M0,0 L7,6 L8,9 L10,9 L10,12 L12,12 L14,18 L14,42 L13,44 L11,44 L11,15 L8,15 L8,13 L6,13 L6,9 L2,7 L-2,2 L0,2 Z M7,9 Z " fill="#3D302C" transform="translate(212,635)"/>
<path d="M0,0 L2,0 L2,4 L8,4 L8,8 L10,8 L10,16 L6,16 L6,24 L4,24 L4,16 L2,16 L2,14 L0,14 Z " fill="#0A0807" transform="translate(786,550)"/>
<path d="M0,0 L36,0 L36,8 L35,8 L35,1 L1,1 L1,11 L3,11 L2,9 L2,3 L33,3 L33,8 L32,4 L6,5 L5,10 L11,12 L11,13 L5,13 L5,15 L12,15 L12,16 L4,16 L4,12 L0,12 Z " fill="#574242" transform="translate(606,406)"/>
<path d="M0,0 L4,2 L2,2 L2,6 L-6,6 L-6,10 L-14,10 L-14,14 L-6,14 L-6,18 L2,18 L1,22 L1,19 L-6,19 L-7,21 L-8,19 L-14,18 L-14,17 L-7,17 L-7,15 L-14,16 L-16,17 L-18,14 L-18,10 L-14,6 L-9,6 L-9,9 L-7,9 L-8,5 L-6,2 Z " fill="#5C4646" transform="translate(340,644)"/>
<path d="M0,0 L14,0 L18,4 L18,23 L15,24 L15,4 L2,4 L2,6 L-4,6 L-4,5 L1,5 Z " fill="#584442" transform="translate(768,574)"/>
<path d="M0,0 L2,0 L2,4 L6,4 L6,12 L5,8 L3,8 L2,25 L-1,25 L-1,27 L2,28 L-2,28 L-2,2 Z " fill="#090807" transform="translate(836,530)"/>
<path d="M0,0 L8,0 L10,2 L10,7 L22,7 L22,2 L23,2 L23,8 L9,8 L9,4 L-1,4 L0,11 L-19,11 L-18,8 L-4,8 L-4,2 Z " fill="#473536" transform="translate(341,742)"/>
<path d="M0,0 L1,4 L3,5 L1,7 L-2,7 L-2,9 L-18,9 L-18,12 L-24,12 L-24,14 L-28,18 L-34,18 L-34,17 L-29,17 L-29,15 L-34,15 L-30,13 L-26,10 L-19,11 L-19,9 L-24,9 L-20,8 L-20,6 L-11,5 L-8,5 L-2,6 Z " fill="#6A5354" transform="translate(680,698)"/>
<path d="M0,0 L5,0 L6,1 L6,7 L4,7 L3,12 L2,41 L0,45 Z " fill="#453735" transform="translate(191,577)"/>
<path d="M0,0 L4,1 L4,3 L13,2 L14,5 L-32,5 L-31,3 L0,2 Z " fill="#3F2E2B" transform="translate(596,796)"/>
<path d="M0,0 L19,0 L15,2 L2,2 L2,8 L-2,11 L-28,11 L-28,10 L-7,9 L-29,8 L-29,7 L0,7 Z " fill="#453534" transform="translate(735,335)"/>
<path d="M0,0 L1,4 L8,4 L11,6 L11,0 L17,0 L17,5 L25,5 L21,8 L16,7 L14,7 L11,10 L0,8 L-2,4 L0,4 Z M-1,8 Z " fill="#5D4646" transform="translate(729,634)"/>
<path d="M0,0 L16,0 L17,3 L44,4 L44,5 L39,6 L17,6 L15,4 L6,3 L6,6 L4,6 L3,2 L2,4 L0,4 Z " fill="#523F3E" transform="translate(689,339)"/>
<path d="M0,0 L6,0 L5,4 L5,1 L1,1 L1,8 L3,9 L1,11 L-4,11 L-3,15 L-4,22 L-5,29 L-7,30 L-7,7 L0,8 Z M-10,29 L-7,30 L-11,31 Z " fill="#3F322F" transform="translate(230,606)"/>
<path d="M0,0 L4,0 L5,10 L2,10 L2,12 L12,12 L13,9 L13,13 L1,13 L1,9 L-6,10 L-7,17 L-8,17 L-9,9 L-5,7 L-5,3 L0,3 Z " fill="#050404" transform="translate(241,509)"/>
<path d="M0,0 L24,0 L24,8 L26,8 L26,24 L28,25 L25,26 L22,24 L22,8 L23,1 L0,1 Z " fill="#362C29" transform="translate(778,438)"/>
<path d="M0,0 L2,0 L2,2 L4,2 L4,6 L6,6 L6,14 L8,14 L8,22 L10,22 L10,30 L4,30 L4,29 L9,29 L9,27 L4,27 L6,26 L7,15 L5,15 L5,22 L4,22 L4,11 L2,14 L2,10 L0,10 Z " fill="#0B0908" transform="translate(730,408)"/>
<path d="M0,0 L5,0 L3,1 L3,3 L-9,8 L-11,8 L-11,6 L-13,6 L-12,9 L-21,14 L-25,14 L-25,12 L-22,12 L-22,9 L-18,9 L-18,7 L-14,7 L-14,5 L-10,5 L-10,3 L-4,3 L-4,1 Z " fill="#543F41" transform="translate(658,731)"/>
<path d="M0,0 L1,0 L1,13 L15,13 L15,10 L22,10 L21,13 L17,14 L14,17 L3,17 L2,14 L-1,14 L-1,3 Z " fill="#4A3C38" transform="translate(784,505)"/>
<path d="M0,0 L6,0 L6,16 L0,16 Z " fill="#382E2A" transform="translate(852,562)"/>
<path d="M0,0 L3,1 L0,2 L0,17 L2,17 L3,19 L3,27 L1,27 L-2,17 L-4,17 L-4,3 Z " fill="#51413D" transform="translate(786,547)"/>
<path d="M0,0 L9,0 L9,2 L1,4 L-1,8 L-5,12 L-22,12 L-22,10 L-6,10 L-6,7 L-4,7 L-4,1 Z " fill="#503E3C" transform="translate(620,755)"/>
<path d="M0,0 L1,3 L8,3 L9,1 L11,3 L17,5 L17,7 L20,8 L20,13 L16,15 L16,13 L9,13 L9,15 L12,16 L4,15 L8,14 L8,12 L16,12 L16,8 L8,8 L8,4 L0,4 Z " fill="#644D4C" transform="translate(618,422)"/>
<path d="M0,0 L2,2 L1,7 L3,8 L2,11 L-7,12 L-7,14 L10,14 L10,15 L-8,15 L-8,13 L-24,13 L-24,12 L-8,12 L-8,10 L-4,8 L-2,2 L0,2 Z " fill="#554143" transform="translate(686,695)"/>
<path d="M0,0 L5,0 L5,4 L11,4 L11,6 L13,6 L13,10 L15,10 L15,16 L-7,16 L-7,15 L14,15 L14,11 L12,11 L12,13 L10,12 L10,9 L4,7 L0,2 Z " fill="#372C2A" transform="translate(785,410)"/>
<path d="M0,0 L4,0 L4,4 L6,4 L6,8 L8,8 L8,16 L12,16 L12,50 L11,50 L11,17 L6,17 L2,7 L3,1 Z " fill="#332726" transform="translate(770,322)"/>
<path d="M0,0 L3,3 L2,9 L4,9 L4,6 L6,6 L9,11 L15,17 L14,23 L21,23 L21,24 L13,24 L11,19 L3,11 L1,10 L-1,5 L-2,3 L0,3 Z " fill="#685050" transform="translate(349,674)"/>
<path d="M0,0 L5,5 L7,9 L8,16 L10,21 L9,33 L8,33 L8,25 L6,25 L6,17 L4,17 L4,9 L2,9 L2,5 L0,5 L0,3 L-2,2 L0,2 Z " fill="#4D3C3A" transform="translate(732,405)"/>
<path d="M0,0 L6,0 L6,1 L1,1 L1,11 L22,9 L25,8 L24,14 L10,14 L10,12 L0,12 Z " fill="#372C29" transform="translate(486,790)"/>
<path d="M0,0 L8,0 L8,1 L1,1 L1,14 L-2,13 L-2,15 L-4,15 L-3,26 L-4,36 L-5,36 L-5,12 L-7,11 L-7,36 L-8,36 L-8,10 L-2,10 L-2,12 L0,12 Z " fill="#433432" transform="translate(246,574)"/>
<path d="M0,0 L4,1 L1,1 L2,22 L3,24 L1,24 L1,43 L4,44 L0,44 L0,24 L-4,24 L-4,16 L0,16 Z " fill="#5A4545" transform="translate(302,578)"/>
<path d="M0,0 L1,0 L1,29 L3,29 L4,27 L4,30 L6,30 L9,37 L10,40 L10,52 L8,52 L7,40 L4,38 L4,34 L2,34 L2,30 L0,30 Z M3,30 Z M5,34 Z " fill="#322724" transform="translate(222,650)"/>
<path d="M0,0 L5,1 L7,3 L7,8 L5,8 L5,3 L1,3 L1,25 L-1,25 L-3,7 Z " fill="#4C3F39" transform="translate(800,525)"/>
<path d="M0,0 L2,0 L2,32 L-4,32 L-5,29 L-8,28 L-8,26 L-4,26 L0,30 Z " fill="#4D3B3C" transform="translate(703,289)"/>
<path d="M0,0 L18,0 L18,1 L1,1 L1,3 L3,4 L0,5 L0,3 L-3,3 L-3,5 L-1,5 L-3,9 L-5,9 L-7,14 L-9,15 L-9,13 L-11,13 L-12,16 L-12,12 L-10,12 L-10,8 L-8,8 L-6,4 L-4,4 L-4,2 L0,2 Z " fill="#5E4B4A" transform="translate(446,434)"/>
<path d="M0,0 L11,0 L7,2 L2,2 L2,8 L-1,11 L-18,12 L-18,10 L-5,9 L-20,8 L-20,15 L-21,15 L-21,7 L0,7 Z " fill="#3E302F" transform="translate(755,327)"/>
<path d="M0,0 L2,0 L2,28 L0,28 L0,35 L-2,35 L-2,28 L-1,25 L-1,6 Z " fill="#3E2F2B" transform="translate(839,618)"/>
<path d="M0,0 L3,1 L3,9 L9,16 L9,18 L11,19 L10,29 L8,29 L8,18 L5,18 L0,11 Z " fill="#3E2D2D" transform="translate(231,690)"/>
<path d="M0,0 L5,0 L6,4 L0,4 L0,6 L-4,6 L-4,8 L-6,8 L-6,10 L-10,10 L-10,12 L-15,13 L-16,10 L-10,7 L-6,6 L-6,4 L-4,4 L-4,2 L-1,2 Z " fill="#372926" transform="translate(812,692)"/>
<path d="M0,0 L8,0 L8,9 L5,9 L3,6 L2,5 L-1,8 L-1,5 L-3,5 L-3,22 L-4,22 L-4,4 L0,4 Z " fill="#4B3A39" transform="translate(714,382)"/>
<path d="M0,0 L4,0 L4,8 L-9,8 L-9,11 L-20,11 L-20,10 L-26,9 L-22,8 L-21,6 L-9,6 L-8,4 L-8,7 L3,7 L3,1 Z " fill="#533F40" transform="translate(388,730)"/>
<path d="M0,0 L2,0 L2,6 L4,6 L4,22 L0,22 Z " fill="#090807" transform="translate(802,528)"/>
<path d="M0,0 L2,0 L2,34 L-4,34 L-4,32 L0,32 Z " fill="#53403F" transform="translate(591,283)"/>
<path d="M0,0 L2,0 L2,6 L7,6 L7,9 L10,9 L10,15 L-1,15 L0,12 L6,11 L2,9 L2,7 L0,7 Z " fill="#674D4D" transform="translate(381,722)"/>
<path d="M0,0 L2,0 L2,4 L-19,4 L-19,17 L-20,17 L-20,3 L-19,1 L-3,1 L0,2 Z " fill="#3F312F" transform="translate(797,421)"/>
<path d="M0,0 L4,1 L8,1 L8,11 L4,11 L0,6 L-2,5 L-2,1 Z " fill="#070605" transform="translate(294,637)"/>
<path d="M0,0 L1,4 L5,4 L5,6 L7,6 L7,12 L9,12 L9,16 L11,16 L11,28 L5,28 L6,24 L6,27 L10,27 L10,17 L7,18 L3,8 L0,5 Z " fill="#302625" transform="translate(783,372)"/>
<path d="M0,0 L1,0 L1,8 L-9,8 L-9,10 L-5,10 L-5,12 L-1,12 L-1,22 L-2,22 L-2,13 L-4,13 L-4,21 L-5,21 L-7,14 L-12,11 L-13,7 L-9,6 L0,7 Z " fill="#4B3939" transform="translate(347,686)"/>
<path d="M0,0 L8,0 L8,1 L1,1 L1,7 L3,7 L3,3 L5,4 L6,10 L10,11 L9,13 L13,13 L13,17 L15,17 L16,15 L20,19 L20,22 L18,22 L18,20 L14,20 L14,18 L12,18 L12,14 L8,14 L8,12 L4,12 L0,8 Z " fill="#322726" transform="translate(178,618)"/>
<path d="M0,0 L7,0 L7,4 L19,4 L19,5 L5,6 L5,8 L-1,8 L-1,1 Z " fill="#423532" transform="translate(235,518)"/>
<path d="M0,0 L7,0 L7,3 L12,3 L13,6 L12,10 L-4,10 L-4,9 L6,9 L7,6 L6,4 L0,3 Z " fill="#694F50" transform="translate(334,663)"/>
<path d="M0,0 L5,4 L6,9 L2,11 L2,14 L5,15 L0,15 L0,11 L-2,11 L-2,17 L7,17 L7,18 L-3,18 L-3,10 L1,10 L-1,3 L-2,1 Z M2,3 Z " fill="#5B4644" transform="translate(757,560)"/>
<path d="M0,0 L1,0 L1,26 L5,26 L5,30 L9,30 L9,42 L8,42 L8,31 L3,31 L-2,26 L-2,18 L-1,18 Z M1,27 Z " fill="#362D29" transform="translate(833,532)"/>
<path d="M0,0 L1,4 L3,5 L-5,12 L-12,12 L-11,9 L-13,7 L-9,7 L-9,5 L-18,5 L-18,4 L-8,4 L-8,8 L-4,8 L-4,6 L-2,6 L-2,4 L0,4 Z " fill="#4B3939" transform="translate(638,750)"/>
<path d="M0,0 L6,0 L5,2 L1,1 L1,24 L-5,23 L-8,20 L-8,18 L-11,17 L-7,17 L-7,15 L-12,15 L-12,14 L-6,14 L-6,16 L-4,16 L-4,20 L-2,20 L-2,22 L0,22 Z " fill="#332A27" transform="translate(222,612)"/>
<path d="M0,0 L1,0 L1,7 L3,7 L3,1 L5,4 L8,14 L10,15 L10,18 L8,18 L8,16 L4,16 L4,14 L2,14 L2,8 L0,8 Z " fill="#624B4B" transform="translate(404,716)"/>
<path d="M0,0 L8,0 L8,3 L4,4 L0,10 L-1,8 L-25,8 L-25,7 L0,7 Z " fill="#5C4645" transform="translate(703,451)"/>
<path d="M0,0 L4,2 L5,4 L3,4 L3,8 L5,9 L2,12 L-1,11 L-1,9 L-4,8 L-3,4 Z " fill="#5F4747" transform="translate(316,638)"/>
<path d="M0,0 L1,0 L2,26 L3,29 L2,37 L4,37 L4,30 L6,34 L7,40 L5,40 L5,38 L1,38 L0,30 L-2,27 L0,27 Z " fill="#5C4744" transform="translate(745,516)"/>
<path d="M0,0 L27,0 L27,2 L5,2 L5,4 L0,4 Z " fill="#534140" transform="translate(527,287)"/>
<path d="M0,0 L8,0 L8,1 L1,1 L1,3 L7,3 L4,4 L5,13 L1,13 L1,15 L6,15 L6,16 L0,16 Z " fill="#070505" transform="translate(210,610)"/>
<path d="M0,0 L7,0 L8,5 L4,4 L3,11 L0,13 Z M-3,12 L0,13 L-3,14 Z " fill="#554140" transform="translate(247,575)"/>
<path d="M0,0 L12,0 L12,2 L28,2 L28,3 L12,3 L12,6 L4,6 L4,3 L11,3 L11,1 L1,1 L1,8 L0,8 Z " fill="#453634" transform="translate(586,762)"/>
<path d="M0,0 L10,0 L10,12 L8,12 L7,9 L0,8 L0,5 L7,5 L7,1 L0,1 Z " fill="#010101" transform="translate(335,653)"/>
<path d="M0,0 L3,0 L2,6 L-14,7 L-14,4 L-7,4 L-5,5 L-6,2 L-1,2 Z " fill="#392524" transform="translate(704,758)"/>
<path d="M0,0 L3,0 L3,5 L-4,4 L-4,18 L-5,18 L-6,8 L-7,15 L-8,15 L-8,5 L-4,1 Z " fill="#443634" transform="translate(790,500)"/>
<path d="M0,0 L3,0 L3,21 L1,21 L0,17 Z " fill="#3E2E29" transform="translate(834,654)"/>
<path d="M0,0 L7,6 L8,9 L10,9 L10,12 L12,12 L12,15 L8,15 L8,13 L6,13 L6,9 L2,7 L-2,2 L0,2 Z M7,9 Z " fill="#352C28" transform="translate(212,635)"/>
<path d="M0,0 L4,0 L5,5 L8,6 L8,13 L5,13 L5,8 L0,9 Z " fill="#644B4B" transform="translate(765,589)"/>
<path d="M0,0 L8,0 L8,2 L14,2 L19,9 L17,9 L17,13 L10,13 L10,12 L16,12 L14,8 L9,6 L13,5 L13,3 L8,3 L7,5 L1,4 L1,3 L7,3 L7,1 L0,1 Z " fill="#5A4444" transform="translate(328,678)"/>
<path d="M0,0 L18,0 L18,2 L15,2 L15,4 L1,3 Z " fill="#040303" transform="translate(327,675)"/>
<path d="M0,0 L4,1 L1,1 L1,3 L6,4 L6,10 L-4,8 L-4,4 L0,4 Z " fill="#0D0A0A" transform="translate(734,630)"/>
<path d="M0,0 L2,0 L2,9 L8,10 L12,10 L11,14 L5,15 L4,12 L2,12 L2,10 L0,10 Z " fill="#5B4644" transform="translate(343,699)"/>
<path d="M0,0 L2,0 L2,3 L4,3 L3,7 L2,23 L0,23 Z " fill="#000000" transform="translate(731,355)"/>
<path d="M0,0 L1,4 L5,4 L5,6 L1,6 L1,23 L-1,23 L-1,2 Z " fill="#000000" transform="translate(836,531)"/>
<path d="M0,0 L1,3 L3,3 L4,0 L5,3 L7,5 L5,5 L5,7 L11,6 L9,7 L9,9 L18,9 L19,6 L19,8 L21,9 L19,9 L19,11 L24,11 L24,12 L18,12 L18,10 L8,10 L8,8 L4,8 L0,4 Z " fill="#5B4849" transform="translate(370,698)"/>
<path d="M0,0 L8,0 L8,3 L-16,3 L-16,2 Z " fill="#684E4D" transform="translate(694,459)"/>
<path d="M0,0 L2,0 L2,6 L4,6 L4,20 L0,20 L1,16 L1,19 L3,19 L3,7 L-7,7 L-7,5 L0,5 Z " fill="#0E0B0B" transform="translate(342,646)"/>
<path d="M0,0 L1,4 L-3,8 L-7,8 L-7,10 L-9,10 L-9,12 L-11,12 L-11,14 L-17,14 L-13,12 L-17,10 L-8,9 L-9,6 L-4,7 L-4,5 L-7,4 L0,3 Z " fill="#5C484A" transform="translate(645,716)"/>
<path d="M0,0 L2,0 L3,23 L0,23 Z " fill="#654C4C" transform="translate(755,615)"/>
<path d="M0,0 L6,0 L6,8 L0,8 Z " fill="#523F3E" transform="translate(708,414)"/>
<path d="M0,0 L4,2 L6,7 L5,8 L0,8 L-3,5 L-2,1 Z " fill="#413131" transform="translate(770,389)"/>
<path d="M0,0 L7,1 L4,3 L2,4 L-10,5 L-14,6 L-14,3 L-10,1 L-5,1 L-2,2 Z " fill="#52393C" transform="translate(686,732)"/>
<path d="M0,0 L1,0 L2,13 L14,14 L14,15 L0,16 L-2,7 Z " fill="#473636" transform="translate(776,425)"/>
<path d="M0,0 L4,0 L4,2 L8,2 L8,10 L3,9 L1,3 L3,3 L3,1 Z " fill="#382D2B" transform="translate(846,586)"/>
<path d="M0,0 L2,0 L2,4 L11,4 L13,2 L14,8 L9,8 L9,6 L0,6 Z " fill="#6B5250" transform="translate(755,571)"/>
<path d="M0,0 L2,2 L2,7 L-10,7 L-9,4 L-2,3 L0,2 Z " fill="#523E3F" transform="translate(361,742)"/>
<path d="M0,0 L1,0 L1,7 L3,7 L3,0 L4,0 L5,7 L7,8 L5,8 L6,14 L2,13 L2,10 L0,10 Z " fill="#584242" transform="translate(306,622)"/>
<path d="M0,0 L2,0 L2,2 L4,2 L5,9 L3,14 L2,10 L0,10 Z " fill="#070505" transform="translate(730,408)"/>
<path d="M0,0 L1,0 L1,24 L3,25 L-1,28 L-3,28 L-3,26 L-8,25 L-8,24 L0,24 Z " fill="#4E3C3B" transform="translate(754,614)"/>
<path d="M0,0 L5,0 L1,6 L0,23 L-1,23 L-1,5 L-3,5 L-2,2 L0,2 Z " fill="#5C4545" transform="translate(758,610)"/>
<path d="M0,0 L1,0 L1,8 L3,8 L2,11 L1,9 L-1,9 L0,13 L-2,20 L-3,20 L-3,13 L-5,13 L-5,20 L-6,20 L-6,12 L-2,12 L-2,8 L0,8 Z " fill="#5B4949" transform="translate(330,534)"/>
<path d="M0,0 L4,0 L4,11 L1,11 L0,9 Z " fill="#634D4B" transform="translate(733,514)"/>
<path d="M0,0 L2,0 L2,15 L-1,14 L-2,8 L0,8 L-1,1 Z " fill="#413230" transform="translate(783,396)"/>
<path d="M0,0 L2,4 L-5,3 L-5,5 L0,5 L-3,9 L-5,12 L-5,7 L-7,7 L-7,12 L-8,12 L-8,4 L-6,4 L-6,2 L0,2 Z " fill="#5E4C4B" transform="translate(322,554)"/>
<path d="M0,0 L1,0 L1,12 L2,14 L-3,13 L-4,10 L-8,10 L-7,6 L-7,9 L-5,9 L-4,6 L-3,9 L-1,9 Z " fill="#483836" transform="translate(726,368)"/>
<path d="M0,0 L8,1 L8,2 L2,2 L2,4 L-2,8 L-8,8 L-8,7 L-3,7 L-3,5 L-8,5 L-4,3 Z " fill="#5F4B4D" transform="translate(654,708)"/>
<path d="M0,0 L7,0 L7,9 L4,9 L4,3 L0,3 Z " fill="#5C4745" transform="translate(262,591)"/>
<path d="M0,0 L2,0 L2,3 L4,3 L6,8 L2,8 L2,4 L-1,6 L-4,6 L-4,2 Z " fill="#3A2F2B" transform="translate(836,526)"/>
<path d="M0,0 L4,0 L4,10 L6,10 L6,16 L2,16 L2,8 L3,1 Z " fill="#0E0B0A" transform="translate(724,382)"/>
<path d="M0,0 L3,0 L4,3 L7,5 L7,7 L10,8 L10,11 L8,11 L8,8 L3,8 L0,4 Z " fill="#513F3D" transform="translate(711,366)"/>
<path d="M0,0 L9,0 L9,2 L1,4 L0,7 L-3,7 L-3,2 L0,2 Z " fill="#594443" transform="translate(620,755)"/>
<path d="M0,0 L1,0 L1,5 L0,3 L-3,3 L-3,5 L-1,6 L-4,7 L-4,5 L-9,5 L-9,7 L-7,8 L-12,10 L-13,8 L-16,6 L-10,6 L-10,4 L-4,4 L-4,2 L0,2 Z " fill="#4C3A3B" transform="translate(674,724)"/>
<path d="M0,0 L4,0 L5,3 L13,4 L9,7 L4,6 L0,5 Z " fill="#644C4C" transform="translate(741,635)"/>
<path d="M0,0 L4,0 L4,4 L6,5 L3,8 L-1,8 L-2,4 L0,4 Z " fill="#523F3E" transform="translate(769,612)"/>
<path d="M0,0 L2,4 L-3,3 L-3,6 L-1,6 L-2,14 L-5,14 L-5,6 L-4,2 L0,2 Z " fill="#655251" transform="translate(336,528)"/>
<path d="M0,0 L4,0 L4,4 L2,4 L2,7 L5,7 L5,11 L3,11 L3,9 L0,8 L-1,4 Z " fill="#3E312D" transform="translate(848,596)"/>
<path d="M0,0 L5,5 L6,8 L5,17 L4,17 L4,9 L2,9 L2,5 L0,5 L0,3 L-2,2 L0,2 Z " fill="#493937" transform="translate(732,405)"/>
<path d="M0,0 L3,0 L4,11 L7,12 L7,14 L3,13 L1,11 Z " fill="#433632" transform="translate(838,563)"/>
<path d="M0,0 L6,0 L6,6 L0,6 Z " fill="#382C2A" transform="translate(246,510)"/>
<path d="M0,0 L2,0 L3,9 L2,16 L0,16 Z " fill="#5A4544" transform="translate(711,387)"/>
<path d="M0,0 L3,1 L3,4 L5,5 L2,5 L2,7 L-2,7 L-3,5 L-4,1 Z " fill="#3D282A" transform="translate(724,740)"/>
<path d="M0,0 L4,2 L5,6 L4,9 L11,9 L11,10 L3,10 L1,5 L-2,1 Z " fill="#604A4A" transform="translate(359,688)"/>
<path d="M0,0 L4,2 L5,7 L4,9 L0,9 Z " fill="#664E4E" transform="translate(344,643)"/>
<path d="M0,0 L4,0 L4,6 L6,6 L5,10 L5,7 L2,8 L-1,4 Z " fill="#473635" transform="translate(272,620)"/>
<path d="M0,0 L1,3 L8,3 L9,1 L11,3 L16,4 L16,5 L9,5 L9,7 L16,7 L16,8 L8,8 L8,4 L0,4 Z " fill="#594443" transform="translate(618,422)"/>
<path d="M0,0 L5,0 L5,7 L0,7 Z " fill="#050404" transform="translate(722,383)"/>
<path d="M0,0 L2,2 L-1,2 L-1,5 L-3,6 L-4,10 L-6,10 L-7,4 L-3,1 Z " fill="#3A2625" transform="translate(773,719)"/>
<path d="M0,0 L1,4 L-3,3 L-3,5 L-1,6 L-5,7 L-5,5 L-7,5 L-6,8 L-8,9 L-8,7 L-11,7 L-11,9 L-14,10 L-14,8 L-12,8 L-12,6 L-8,6 L-8,4 L-4,4 L-4,2 L0,2 Z " fill="#4C3A3B" transform="translate(696,710)"/>
<path d="M0,0 L1,2 L3,2 L4,11 L0,12 L-1,1 Z " fill="#614948" transform="translate(303,636)"/>
<path d="M0,0 L5,1 L5,8 L-1,8 L-2,6 L2,6 L2,2 L0,2 Z " fill="#463835" transform="translate(212,601)"/>
<path d="M0,0 L21,1 L21,2 L2,3 L2,5 L5,6 L1,6 Z " fill="#443333" transform="translate(677,288)"/>
<path d="M0,0 L8,1 L8,2 L2,2 L2,4 L0,4 L0,6 L-2,6 L-2,8 L-4,8 L-5,12 L-6,5 L-2,4 Z " fill="#332223" transform="translate(712,750)"/>
<path d="M0,0 L1,4 L-3,4 L-3,6 L-11,6 L-10,2 L-10,5 L-8,5 L-9,2 L0,3 Z " fill="#332825" transform="translate(209,638)"/>
<path d="M0,0 L1,0 L1,7 L3,7 L3,0 L4,0 L4,8 L0,8 L0,16 L-1,16 L-2,5 Z " fill="#584543" transform="translate(730,526)"/>
<path d="M0,0 L1,0 L1,10 L3,10 L3,12 L1,12 L1,16 L-3,16 L-3,12 L-1,11 Z " fill="#0E0B0B" transform="translate(733,438)"/>
<path d="M0,0 L14,1 L14,2 L6,2 L6,4 L0,4 Z " fill="#352523" transform="translate(610,796)"/>
<path d="M0,0 L8,0 L12,1 L12,3 L-1,3 Z " fill="#3F2E2E" transform="translate(296,758)"/>
<path d="M0,0 L7,0 L7,11 L5,11 L5,2 L0,2 Z " fill="#705757" transform="translate(650,439)"/>
<path d="M0,0 L1,0 L1,9 L4,9 L4,7 L6,7 L6,5 L8,5 L7,9 L5,11 L0,11 Z " fill="#53423F" transform="translate(243,528)"/>
<path d="M0,0 L2,0 L2,6 L-9,6 L-9,4 L0,4 Z " fill="#674D4E" transform="translate(389,731)"/>
<path d="M0,0 L1,0 L1,5 L-4,5 L-4,11 L-10,11 L-10,10 L-5,10 L-6,2 L-1,3 Z " fill="#3E312F" transform="translate(798,495)"/>
<path d="M0,0 L7,0 L2,5 L-2,4 L-2,1 Z " fill="#493736" transform="translate(634,764)"/>
<path d="M0,0 L3,0 L2,5 L-5,5 L-6,2 L-1,2 Z " fill="#3D2828" transform="translate(704,758)"/>
<path d="M0,0 L9,1 L10,4 L0,4 L-1,1 Z " fill="#3E2A2A" transform="translate(264,745)"/>
<path d="M0,0 L5,0 L5,2 L8,3 L5,5 L-1,3 Z M-4,3 L-1,4 L-4,4 Z " fill="#4B3537" transform="translate(697,735)"/>
<path d="M0,0 L10,0 L10,2 L2,2 L2,6 L0,6 Z " fill="#564341" transform="translate(587,763)"/>
<path d="M0,0 L5,5 L5,11 L3,11 L3,6 L0,5 L-1,1 Z " fill="#3D2A2A" transform="translate(244,728)"/>
<path d="M0,0 L3,2 L1,3 L1,6 L-6,6 L-6,3 L-1,1 Z " fill="#3D2B29" transform="translate(792,705)"/>
<path d="M0,0 L6,0 L6,6 L5,6 L5,1 L1,1 L1,3 L4,4 L1,6 L-3,5 L-4,8 L-4,4 L0,4 Z " fill="#302623" transform="translate(822,450)"/>
<path d="M0,0 L4,5 L5,8 L7,10 L3,10 L-2,3 L0,3 Z " fill="#54403F" transform="translate(713,400)"/>
<path d="M0,0 L1,4 L-8,4 L-8,1 Z " fill="#3D2827" transform="translate(762,729)"/>
<path d="M0,0 L1,0 L2,7 L3,9 L10,9 L10,10 L4,10 L4,12 L0,10 Z " fill="#100D0D" transform="translate(346,698)"/>
<path d="M0,0 L3,1 L2,5 L-4,6 L-4,3 Z " fill="#3A2927" transform="translate(646,781)"/>
<path d="M0,0 L8,0 L8,3 L-1,3 Z " fill="#3D2A28" transform="translate(665,770)"/>
<path d="M0,0 L2,0 L2,6 L-7,6 L-7,4 L0,4 Z " fill="#674D4D" transform="translate(345,687)"/>
<path d="M0,0 L4,1 L4,9 L2,9 Z " fill="#574642" transform="translate(785,565)"/>
<path d="M0,0 L1,0 L1,7 L3,7 L3,0 L5,4 L6,10 L4,10 L4,8 L0,8 Z " fill="#554340" transform="translate(746,546)"/>
<path d="M0,0 L5,0 L5,2 L2,2 L2,6 L4,6 L4,8 L0,8 Z " fill="#413431" transform="translate(191,507)"/>
<path d="M0,0 L4,1 L7,4 L5,5 L5,3 L-7,3 L-5,1 Z " fill="#60484B" transform="translate(691,704)"/>
<path d="M0,0 L6,1 L2,2 L2,4 L0,4 L0,8 L-9,8 L-9,7 L-1,7 L-2,3 L0,2 Z " fill="#302321" transform="translate(794,704)"/>
<path d="M0,0 L3,1 L1,17 L0,17 Z " fill="#40322F" transform="translate(223,650)"/>
<path d="M0,0 L5,1 L7,3 L7,8 L5,8 L5,3 L0,3 Z " fill="#473B35" transform="translate(800,525)"/>
<path d="M0,0 L12,0 L12,1 L2,3 L0,6 Z " fill="#4C3B39" transform="translate(731,385)"/>
<path d="M0,0 L1,0 L1,5 L3,5 L3,0 L4,0 L6,7 L5,12 L3,8 L0,6 Z " fill="#483836" transform="translate(706,358)"/>
<path d="M0,0 L4,0 L4,2 L2,2 L2,10 L0,10 Z " fill="#483937" transform="translate(487,791)"/>
<path d="M0,0 L2,2 L1,7 L3,8 L1,9 L-2,8 L-2,2 L0,2 Z " fill="#433333" transform="translate(686,695)"/>
<path d="M0,0 L4,0 L4,2 L2,3 L1,7 L-2,6 L-1,1 Z " fill="#604948" transform="translate(768,609)"/>
<path d="M0,0 L1,3 L0,6 L-2,6 L-2,4 L-8,4 L-8,2 L-1,1 Z " fill="#463A36" transform="translate(235,509)"/>
<path d="M0,0 L8,0 L8,1 L1,1 L1,3 L3,3 L2,7 L1,5 L-1,5 L-2,8 L-2,4 L0,4 Z " fill="#594847" transform="translate(348,506)"/>
<path d="M0,0 L2,0 L1,5 L-1,7 L-5,7 L-5,4 L-1,3 Z " fill="#5A4443" transform="translate(735,451)"/>
<path d="M0,0 L5,0 L4,3 L-4,5 L-4,2 Z " fill="#553C3F" transform="translate(676,733)"/>
<path d="M0,0 L4,0 L3,4 L-3,4 L-3,1 Z " fill="#392A27" transform="translate(821,690)"/>
<path d="M0,0 L4,0 L4,2 L2,2 L2,9 L0,10 Z " fill="#473A36" transform="translate(223,613)"/>
<path d="M0,0 L1,0 L2,9 L-1,10 L-1,7 L-3,7 L-4,10 L-4,6 L0,6 Z " fill="#5B4B4A" transform="translate(410,472)"/>
<path d="M0,0 L6,0 L6,2 L1,2 L1,7 L-1,7 L-1,1 Z " fill="#6E5A59" transform="translate(412,471)"/>
<path d="M0,0 L2,0 L3,8 L0,9 Z " fill="#4B3C38" transform="translate(739,363)"/>
<path d="M0,0 L4,3 L3,7 L0,7 L0,3 L-4,2 L0,2 Z " fill="#443633" transform="translate(734,351)"/>
<path d="M0,0 L4,0 L5,7 L-3,7 L-3,6 L3,5 L0,3 L3,3 L3,1 Z " fill="#5A4444" transform="translate(384,728)"/>
<path d="M0,0 L1,4 L-7,5 L-6,2 L-2,1 Z " fill="#392524" transform="translate(785,712)"/>
<path d="M0,0 L5,4 L5,7 L3,7 L3,5 L-1,5 L-2,2 L0,2 Z " fill="#372A27" transform="translate(193,633)"/>
<path d="M0,0 L6,1 L6,3 L2,3 L1,8 L0,8 Z " fill="#000000" transform="translate(787,554)"/>
<path d="M0,0 L5,0 L5,2 L2,2 L2,8 L0,8 Z " fill="#5B4644" transform="translate(735,439)"/>
<path d="M0,0 L6,0 L7,6 L4,6 L4,4 L1,3 L5,3 L5,1 L0,1 Z " fill="#382E2A" transform="translate(210,626)"/>
<path d="M0,0 L2,2 L1,4 L1,11 L0,16 L-1,16 L-1,1 Z " fill="#675050" transform="translate(306,578)"/>
<path d="M0,0 L7,0 L8,5 L6,5 L6,2 L0,2 Z " fill="#5A4544" transform="translate(247,575)"/>
<path d="M0,0 L4,0 L4,5 L2,5 L1,3 L-3,4 L-3,2 Z " fill="#3F332F" transform="translate(807,461)"/>
<path d="M0,0 L3,0 L3,8 L0,7 Z " fill="#574241" transform="translate(722,391)"/>
<path d="M0,0 L6,0 L6,6 L4,6 L4,2 L0,2 Z " fill="#6C5255" transform="translate(379,715)"/>
<path d="M0,0 L3,3 L2,10 L0,6 L-2,3 L0,3 Z " fill="#624B4B" transform="translate(349,674)"/>
<path d="M0,0 L1,0 L1,10 L3,11 L0,13 L0,11 L-4,10 L0,10 Z " fill="#4E3C3B" transform="translate(302,638)"/>
<path d="M0,0 L8,1 L8,2 L1,3 L0,10 L-1,10 L-2,2 Z " fill="#120E0E" transform="translate(234,516)"/>
<path d="M0,0 L6,0 L7,3 L0,3 Z " fill="#3D2827" transform="translate(677,766)"/>
<path d="M0,0 L2,0 L2,7 L-1,6 L-1,1 Z " fill="#433333" transform="translate(319,754)"/>
<path d="M0,0 L5,4 L5,6 L1,5 L-2,2 L0,2 Z " fill="#3A2F2B" transform="translate(212,635)"/>
<path d="M0,0 L1,0 L1,9 L3,9 L3,12 L-1,10 Z " fill="#493B37" transform="translate(789,566)"/>
<path d="M0,0 L2,4 L2,6 L-3,6 L-2,2 Z " fill="#634B4A" transform="translate(767,573)"/>
<path d="M0,0 L2,0 L2,5 L1,6 L-4,6 L-4,4 L0,4 Z " fill="#5B4745" transform="translate(259,531)"/>
<path d="M0,0 L5,0 L1,1 L1,5 L-3,4 L-3,1 Z " fill="#342422" transform="translate(641,787)"/>
<path d="M0,0 L3,1 L2,3 L-10,3 L-10,2 L-1,1 Z " fill="#644C4B" transform="translate(511,744)"/>
<path d="M0,0 L5,0 L3,1 L3,3 L-3,4 L-3,2 L0,2 Z " fill="#5E4749" transform="translate(658,731)"/>
<path d="M0,0 L3,0 L3,4 L5,5 L3,6 L0,5 Z " fill="#322625" transform="translate(770,612)"/>
<path d="M0,0 L4,0 L4,4 L2,4 L1,6 Z " fill="#372D29" transform="translate(848,596)"/>
<path d="M0,0 L1,0 L1,5 L3,5 L3,9 L1,9 L-1,5 Z " fill="#3D302E" transform="translate(788,379)"/>
<path d="M0,0 L4,1 L4,3 L-7,3 L-7,2 L0,2 Z " fill="#3A2B28" transform="translate(596,796)"/>
<path d="M0,0 L1,2 L3,3 L-2,5 L-3,3 L-6,1 Z " fill="#523E40" transform="translate(664,729)"/>
<path d="M0,0 L1,4 L-4,7 L-4,5 L-7,4 L0,3 Z " fill="#614C4E" transform="translate(645,716)"/>
<path d="M0,0 L3,0 L3,5 L-2,5 L0,4 Z " fill="#342727" transform="translate(315,642)"/>
<path d="M0,0 L3,0 L3,5 L0,5 L-1,1 Z " fill="#594442" transform="translate(272,621)"/>
<path d="M0,0 L5,1 L5,6 L3,5 L3,2 L-1,1 Z " fill="#473936" transform="translate(206,595)"/>
<path d="M0,0 L3,3 L2,10 L1,10 L-1,3 L-2,1 Z " fill="#594644" transform="translate(757,560)"/>
<path d="M0,0 L2,1 L0,5 L-2,5 L-3,8 L-4,5 L-2,2 L0,2 Z " fill="#483937" transform="translate(231,515)"/>
<path d="M0,0 L2,0 L1,4 L-5,4 L-5,2 L0,2 Z " fill="#3F342F" transform="translate(201,509)"/>
<path d="M0,0 L1,0 L1,7 L-2,7 L-2,2 L0,2 Z " fill="#342927" transform="translate(728,503)"/>
<path d="M0,0 L1,3 L3,3 L2,7 L1,5 L-1,5 L-2,8 L-2,4 L0,4 Z " fill="#5C4949" transform="translate(436,442)"/>
<path d="M0,0 L5,2 L5,6 L3,6 L2,3 L-1,1 Z " fill="#594443" transform="translate(718,407)"/>
<path d="M0,0 L3,0 L3,3 L-3,4 L-3,2 L0,2 Z " fill="#5E4649" transform="translate(636,741)"/>
<path d="M0,0 L2,2 L2,7 L0,7 L-1,1 Z " fill="#3E2827" transform="translate(767,722)"/>
<path d="M0,0 L1,4 L-3,3 L-3,5 L-1,6 L-5,7 L-4,2 L0,2 Z " fill="#503C3E" transform="translate(696,710)"/>
<path d="M0,0 L2,0 L2,4 L-3,5 L-2,1 Z " fill="#6C5151" transform="translate(731,629)"/>
<path d="M0,0 L7,0 L6,3 L0,2 Z " fill="#473C36" transform="translate(799,515)"/>
<path d="M0,0 L4,0 L4,4 L0,4 Z " fill="#4F3F3C" transform="translate(247,511)"/>
<path d="M0,0 L5,0 L6,3 L1,3 Z " fill="#3D2A28" transform="translate(624,792)"/>
<path d="M0,0 L4,1 L4,4 L0,4 Z " fill="#382929" transform="translate(292,754)"/>
<path d="M0,0 L3,2 L3,6 L1,6 L-2,1 Z " fill="#382929" transform="translate(235,702)"/>
<path d="M0,0 L3,0 L2,4 L-2,3 Z " fill="#3C2E2B" transform="translate(842,613)"/>
<path d="M0,0 L6,1 L4,2 L4,4 L1,5 Z " fill="#463734" transform="translate(232,609)"/>
<path d="M0,0 L2,0 L3,4 L-2,6 Z " fill="#6F5B5B" transform="translate(407,479)"/>
<path d="M0,0 L4,2 L3,6 L0,6 Z " fill="#664E4C" transform="translate(608,409)"/>
<path d="M0,0 L9,0 L9,3 L6,3 L6,1 L0,1 Z " fill="#685053" transform="translate(534,413)"/>
<path d="M0,0 L2,0 L2,3 L7,3 L7,4 L1,5 Z " fill="#3D2F2E" transform="translate(311,764)"/>
<path d="M0,0 L4,1 L1,1 L1,5 L-3,3 L0,2 Z " fill="#4D3A3C" transform="translate(678,720)"/>
<path d="M0,0 L4,1 L4,5 L1,4 Z " fill="#5D4746" transform="translate(355,713)"/>
<path d="M0,0 L1,0 L1,8 L-3,7 L-1,5 Z " fill="#5E4748" transform="translate(683,698)"/>
<path d="M0,0 L1,4 L-1,4 L-2,6 L-2,4 L-4,3 L-3,1 Z " fill="#3E312E" transform="translate(229,520)"/>
<path d="M0,0 L1,4 L6,4 L4,6 L-2,5 L0,4 Z " fill="#594643" transform="translate(725,506)"/>
<path d="M0,0 L2,0 L2,5 L-2,5 L-2,3 L0,3 Z " fill="#4E3E3B" transform="translate(791,500)"/>
<path d="M0,0 L3,1 L2,4 L-1,4 L-2,1 Z " fill="#3C2D2A" transform="translate(798,701)"/>
<path d="M0,0 L5,3 L4,5 L0,3 Z " fill="#654C4C" transform="translate(306,633)"/>
<path d="M0,0 L3,0 L2,5 L0,5 Z " fill="#684E4F" transform="translate(311,630)"/>
<path d="M0,0 L4,1 L1,1 L2,4 L-1,6 Z " fill="#513D3F" transform="translate(632,742)"/>
<path d="M0,0 L1,2 L3,3 L-1,4 L-1,2 L-4,1 Z " fill="#513D3F" transform="translate(640,739)"/>
<path d="M0,0 L2,2 L2,6 L0,6 L-1,1 Z " fill="#6E5759" transform="translate(643,713)"/>
<path d="M0,0 L3,0 L2,4 L-1,3 Z " fill="#5B4645" transform="translate(335,692)"/>
<path d="M0,0 L3,0 L2,3 L-2,3 L-2,1 Z " fill="#3B2C27" transform="translate(828,682)"/>
<path d="M0,0 L3,0 L3,4 L0,4 Z " fill="#694F4F" transform="translate(319,642)"/>
<path d="M0,0 L1,0 L1,5 L-2,5 L-1,1 Z " fill="#664D4D" transform="translate(314,641)"/>
<path d="M0,0 L4,0 L4,4 L2,4 L2,2 L0,2 Z " fill="#140F0F" transform="translate(306,630)"/>
<path d="M0,0 L2,0 L3,4 L0,5 Z " fill="#66504D" transform="translate(729,505)"/>
<path d="M0,0 L4,0 L4,4 L2,4 L2,2 L0,2 Z " fill="#4A3C39" transform="translate(239,503)"/>
<path d="M0,0 L2,1 L2,3 L4,5 L0,5 L-1,1 Z " fill="#4D3B3A" transform="translate(716,405)"/>
<path d="M0,0 L5,1 L5,3 L1,3 Z " fill="#53413E" transform="translate(695,346)"/>
<path d="M0,0 L4,0 L4,2 L2,2 L2,4 L0,4 Z " fill="#433332" transform="translate(765,319)"/>
<path d="M0,0 L2,0 L1,3 L-3,3 L-3,1 Z " fill="#3D2A28" transform="translate(645,784)"/>
<path d="M0,0 L4,1 L4,3 L0,3 Z " fill="#3C2A28" transform="translate(654,774)"/>
<path d="M0,0 L1,4 L-2,5 L-3,2 L0,2 Z " fill="#5B4446" transform="translate(379,734)"/>
<path d="M0,0 L4,1 L4,3 L0,3 Z " fill="#3D2D2A" transform="translate(808,694)"/>
<path d="M0,0 L3,1 L3,4 L0,4 Z " fill="#674C4D" transform="translate(322,654)"/>
<path d="M0,0 L4,1 L4,4 L0,2 Z " fill="#5D4746" transform="translate(291,643)"/>
<path d="M0,0 L2,0 L1,5 L-1,5 Z " fill="#684E4F" transform="translate(725,634)"/>
<path d="M0,0 L2,4 L-1,5 Z " fill="#5E4847" transform="translate(774,611)"/>
<path d="M0,0 L2,0 L0,4 L-2,4 L-2,1 Z " fill="#4A3B38" transform="translate(238,610)"/>
<path d="M0,0 L2,0 L2,4 L-1,4 Z " fill="#010101" transform="translate(793,559)"/>
<path d="M0,0 L2,0 L1,3 L-3,3 L-3,1 Z " fill="#473936" transform="translate(225,524)"/>
<path d="M0,0 L3,0 L3,4 L0,3 Z " fill="#090706" transform="translate(731,410)"/>
<path d="M0,0 L3,0 L2,4 L0,4 Z " fill="#533F40" transform="translate(359,740)"/>
<path d="M0,0 L1,2 L5,3 L0,4 L-2,2 L0,2 Z " fill="#4C3A39" transform="translate(337,694)"/>
<path d="M0,0 L3,1 L1,3 L-2,3 L-2,1 Z " fill="#473835" transform="translate(230,614)"/>
<path d="M0,0 L3,0 L3,4 L1,4 Z " fill="#614A49" transform="translate(766,591)"/>
<path d="M0,0 L5,1 L4,3 L0,1 Z " fill="#604C49" transform="translate(743,543)"/>
<path d="M0,0 L3,0 L3,3 L0,4 Z " fill="#241E1B" transform="translate(801,472)"/>
<path d="M0,0 L4,1 L3,3 L0,3 Z " fill="#261D1D" transform="translate(770,391)"/>
<path d="M0,0 L2,0 L3,3 L-1,3 Z " fill="#3C2A28" transform="translate(607,798)"/>
<path d="M0,0 L3,1 L0,3 L-3,1 Z " fill="#483334" transform="translate(702,737)"/>
<path d="M0,0 L4,0 L4,3 L0,1 Z " fill="#61494C" transform="translate(379,717)"/>
<path d="M0,0 L4,1 L3,3 L0,2 Z " fill="#654C4C" transform="translate(315,647)"/>
<path d="M0,0 L3,0 L2,3 L-1,2 Z " fill="#5C4645" transform="translate(770,617)"/>
<path d="M0,0 L3,0 L2,3 L-1,2 Z " fill="#67504D" transform="translate(726,511)"/>
<path d="M0,0 L3,0 L3,3 L0,3 Z " fill="#6E5B59" transform="translate(363,501)"/>
<path d="M0,0 L3,0 L3,3 L0,3 Z " fill="#6E595A" transform="translate(419,469)"/>
<path d="M0,0 L2,0 L1,4 L-1,4 Z " fill="#4A3B38" transform="translate(745,380)"/>
<path d="M0,0 L3,2 L0,4 L-1,1 Z " fill="#3B2728" transform="translate(264,745)"/>
<path d="M0,0 L3,1 L2,3 L-1,2 Z " fill="#674F4E" transform="translate(511,744)"/>
<path d="M0,0 L2,0 L2,3 L-1,3 Z " fill="#3E322E" transform="translate(836,526)"/>
<path d="M0,0 L2,1 L1,4 L-2,2 L0,2 Z " fill="#453734" transform="translate(231,515)"/>
<path d="M0,0 L2,0 L0,4 L-1,1 Z " fill="#695956" transform="translate(387,493)"/>
<path d="M0,0 L3,1 L-1,3 Z " fill="#3A2E2A" transform="translate(819,457)"/>
<path d="M0,0 L2,0 L0,4 L-1,1 Z " fill="#372624" transform="translate(647,782)"/>
<path d="M0,0 L3,0 L2,3 L0,2 Z " fill="#614A49" transform="translate(338,697)"/>
<path d="M0,0 L3,1 L3,3 L0,2 Z " fill="#3C2E2B" transform="translate(197,637)"/>
<path d="M0,0 L2,1 L2,3 L-1,2 Z " fill="#3C312D" transform="translate(218,641)"/>
<path d="M0,0 L2,2 L0,3 L-2,1 Z " fill="#443633" transform="translate(195,577)"/>
<path d="M0,0 L3,1 L1,3 Z " fill="#654F4D" transform="translate(751,553)"/>
<path d="M0,0 L2,0 L1,3 L-1,1 Z " fill="#423632" transform="translate(239,505)"/>
</svg>
