<?xml version="1.0" encoding="UTF-8"?>
<!-- Generator: visioncortex VTracer 0.6.4 -->
<svg version="1.1" xmlns="http://www.w3.org/2000/svg" width="1024" height="1024">
<path d="M0,0 L1024,0 L1024,1024 L0,1024 Z " fill="#000000" transform="translate(0,0)"/>
<path d="M0,0 L10,0 L12,3 L24,4 L26,9 L60,10 L60,12 L68,12 L68,14 L78,14 L78,16 L84,16 L84,18 L88,18 L88,20 L96,20 L98,24 L102,24 L102,26 L107,27 L114,35 L118,36 L120,41 L122,42 L122,52 L126,52 L126,58 L142,58 L144,54 L146,54 L146,50 L154,50 L154,48 L158,48 L158,46 L164,46 L164,44 L178,44 L180,46 L180,52 L185,53 L188,56 L188,58 L190,58 L192,63 L197,65 L200,68 L202,73 L206,76 L206,80 L208,80 L208,84 L210,84 L210,90 L212,90 L212,98 L214,98 L214,112 L218,114 L218,116 L224,116 L224,120 L228,120 L228,124 L230,124 L232,129 L236,132 L238,137 L240,138 L242,143 L244,144 L244,152 L246,152 L246,156 L248,156 L250,161 L252,162 L252,166 L254,166 L256,171 L260,172 L262,177 L264,178 L264,182 L266,182 L266,194 L264,194 L264,200 L261,202 L260,206 L258,206 L258,210 L256,210 L256,216 L254,216 L254,220 L252,220 L252,242 L254,242 L254,246 L256,246 L256,254 L260,256 L262,258 L264,263 L266,264 L266,270 L268,270 L268,278 L266,278 L266,288 L264,288 L264,292 L258,292 L258,296 L254,296 L254,300 L252,300 L252,306 L248,306 L248,310 L246,310 L246,314 L240,314 L240,318 L238,318 L238,322 L235,324 L234,328 L230,328 L230,332 L225,334 L224,336 L212,336 L212,340 L208,340 L210,343 L218,344 L220,347 L227,349 L228,352 L232,352 L232,356 L234,356 L234,362 L236,362 L236,366 L238,366 L238,384 L235,386 L234,390 L232,390 L232,392 L226,392 L226,394 L220,394 L220,396 L214,396 L214,398 L202,398 L202,400 L196,400 L196,402 L192,402 L192,404 L182,404 L182,406 L164,406 L164,404 L156,404 L156,402 L140,402 L140,400 L134,400 L134,402 L124,403 L120,408 L112,408 L112,416 L110,416 L110,420 L106,424 L102,424 L102,426 L98,426 L98,428 L54,428 L54,424 L52,424 L52,418 L56,416 L56,408 L60,406 L59,396 L52,394 L50,391 L46,390 L42,385 L38,384 L38,378 L34,376 L28,369 L24,368 L24,366 L20,366 L20,368 L15,370 L8,378 L-16,378 L-18,376 L-18,372 L-20,372 L-20,366 L-22,366 L-22,360 L-24,360 L-24,354 L-26,354 L-26,344 L-28,344 L-28,334 L-30,334 L-30,328 L-32,328 L-32,324 L-36,324 L-36,304 L-48,304 L-48,306 L-60,306 L-62,303 L-66,302 L-73,294 L-84,284 L-86,279 L-90,276 L-90,270 L-92,270 L-92,264 L-96,262 L-98,260 L-98,256 L-100,256 L-100,250 L-106,250 L-106,244 L-110,244 L-110,242 L-116,242 L-118,237 L-122,236 L-124,233 L-129,231 L-130,226 L-132,226 L-132,220 L-134,220 L-134,212 L-136,212 L-136,138 L-134,138 L-134,130 L-130,128 L-130,124 L-128,124 L-128,120 L-124,120 L-124,114 L-122,112 L-116,112 L-114,108 L-108,108 L-106,104 L-94,92 L-92,92 L-92,88 L-90,88 L-90,84 L-86,84 L-86,80 L-84,80 L-84,76 L-82,76 L-81,71 L-74,64 L-72,64 L-71,59 L-68,56 L-66,56 L-66,52 L-64,52 L-64,44 L-62,44 L-61,39 L-58,36 L-54,36 L-52,32 L-48,32 L-47,27 L-42,26 L-42,24 L-36,24 L-36,20 L-32,20 L-30,16 L-28,14 L-24,14 L-24,12 L-18,12 L-16,8 L-12,4 L0,4 Z " fill="#FCFC91" transform="translate(430,282)"/>
<path d="M0,0 L2,0 L2,2 L8,2 L8,0 L20,0 L20,2 L44,2 L44,0 L48,0 L52,5 L54,6 L54,10 L56,10 L56,16 L58,16 L58,20 L60,20 L60,42 L62,42 L62,48 L64,48 L64,54 L66,54 L66,78 L64,78 L64,84 L62,84 L62,88 L59,90 L58,94 L53,98 L52,100 L47,102 L44,106 L24,106 L24,104 L14,104 L14,102 L10,102 L10,100 L6,100 L4,97 L0,96 L-4,91 L-10,86 L-12,81 L-16,78 L-17,68 L-22,64 L-24,57 L-28,54 L-28,50 L-30,50 L-30,48 L-28,48 L-30,41 L-32,40 L-34,33 L-36,32 L-36,26 L-38,26 L-38,20 L-36,20 L-36,16 L-30,16 L-30,14 L-26,14 L-25,9 L-24,8 L-16,8 L-16,6 L-12,6 L-12,2 L0,2 Z " fill="#010100" transform="translate(578,434)"/>
<path d="M0,0 L7,0 L7,16 L27,16 L27,21 L25,20 L25,18 L21,18 L21,20 L-3,20 L-3,18 L-15,18 L-15,20 L-21,20 L-21,18 L-23,18 L-23,20 L-35,20 L-35,24 L-39,24 L-39,26 L-47,27 L-49,32 L-53,32 L-53,34 L-59,34 L-59,33 L-54,33 L-54,31 L-59,31 L-55,29 L-53,29 L-53,27 L-51,27 L-50,24 L-47,22 L-39,22 L-36,23 L-36,16 L-25,16 L-25,14 L-20,14 L-23,15 L-23,17 L-15,14 L-2,14 L-1,1 Z " fill="#EFF186" transform="translate(601,416)"/>
<path d="M0,0 L2,1 L0,5 L-2,9 L-8,16 L-11,17 L-11,15 L-13,15 L-12,18 L-19,17 L-19,19 L-14,19 L-14,22 L-20,24 L-21,25 L-19,27 L-20,30 L-27,31 L-31,35 L-34,42 L-37,46 L-37,39 L-39,39 L-38,46 L-38,58 L-39,58 L-39,47 L-41,47 L-40,120 L-42,120 L-42,46 L-40,46 L-40,38 L-36,36 L-36,32 L-34,32 L-34,28 L-30,28 L-30,22 L-28,20 L-22,20 L-20,16 L-14,16 L-12,12 Z " fill="#FBF494" transform="translate(336,374)"/>
<path d="M0,0 L1,0 L1,7 L3,7 L3,0 L4,0 L4,8 L2,8 L2,12 L-2,16 L-6,16 L-6,18 L-10,18 L-10,20 L-54,20 L-55,11 L-52,11 L-51,15 L-40,16 L-40,14 L-38,14 L-38,12 L-36,12 L-36,14 L-34,14 L-34,16 L-32,16 L-32,14 L-30,14 L-30,12 L-28,12 L-28,16 L-26,16 L-25,11 L-24,14 L-20,13 L-20,16 L-11,16 L-10,13 L-3,15 L-4,12 L-2,7 L-1,11 L1,11 L0,9 Z " fill="#EDEBA4" transform="translate(538,690)"/>
<path d="M0,0 L10,0 L12,3 L24,4 L26,9 L60,10 L60,12 L68,12 L68,13 L60,14 L29,15 L28,16 L23,16 L23,12 L18,9 L12,8 L12,7 L23,7 L23,5 L12,6 L8,7 L6,5 L3,3 L9,3 L9,1 L1,1 L0,4 Z " fill="#E7E67D" transform="translate(430,282)"/>
<path d="M0,0 L2,0 L3,43 L6,43 L5,67 L3,67 L4,80 L2,80 L1,73 L0,72 Z " fill="#FEF99B" transform="translate(295,421)"/>
<path d="M0,0 L6,0 L6,8 L14,8 L14,14 L4,14 L4,18 L2,18 L2,16 L-4,16 L-4,21 L-8,20 L-8,16 L-6,16 L-6,12 L-4,12 L-4,8 L-2,8 L-2,4 L0,4 Z " fill="#0F0E08" transform="translate(400,558)"/>
<path d="M0,0 L12,0 L12,1 L1,1 L1,3 L3,3 L1,7 L-3,11 L-11,9 L-11,11 L-6,11 L-8,13 L-13,15 L-17,19 L-23,17 L-23,19 L-21,19 L-21,23 L-24,24 L-24,21 L-29,21 L-29,23 L-33,23 L-33,29 L-36,33 L-40,34 L-42,30 L-40,28 L-36,28 L-35,23 L-30,22 L-30,20 L-24,20 L-24,16 L-20,16 L-18,12 L-16,10 L-12,10 L-12,8 L-6,8 L-4,4 Z " fill="#D7D675" transform="translate(418,286)"/>
<path d="M0,0 L6,0 L6,8 L8,8 L8,12 L10,12 L10,18 L14,18 L14,22 L16,22 L16,28 L8,28 L8,18 L4,18 L4,16 L2,16 L2,8 L0,8 Z " fill="#363401" transform="translate(282,656)"/>
<path d="M0,0 L5,0 L2,1 L2,3 L10,1 L10,3 L22,3 L22,4 L10,4 L10,6 L4,6 L4,4 L2,4 L2,6 L-10,6 L-10,10 L-14,10 L-14,12 L-22,13 L-24,18 L-28,18 L-28,20 L-34,20 L-34,19 L-29,19 L-29,17 L-34,17 L-30,15 L-28,15 L-28,13 L-26,13 L-25,10 L-22,8 L-14,8 L-11,9 L-11,2 L0,2 Z " fill="#E9EB74" transform="translate(576,430)"/>
<path d="M0,0 L1,4 L3,4 L3,22 L0,24 L-1,28 L-3,28 L-3,30 L-9,30 L-9,32 L-15,32 L-15,34 L-21,34 L-21,36 L-33,36 L-33,35 L-22,35 L-22,33 L-33,33 L-31,29 L-28,30 L-28,31 L-16,33 L-16,31 L-21,31 L-21,30 L-10,31 L-10,29 L-15,29 L-15,28 L-4,29 L-4,26 L-2,26 L-3,21 L-2,19 L-1,3 Z " fill="#E3E58A" transform="translate(665,644)"/>
<path d="M0,0 L4,1 L1,1 L2,3 L2,11 L-2,18 L-3,18 L-3,11 L-5,11 L-4,18 L-4,30 L-5,30 L-5,19 L-7,19 L-6,92 L-8,92 L-8,18 L-6,18 L-6,10 L-2,8 L-2,4 L0,4 Z " fill="#C8C377" transform="translate(302,402)"/>
<path d="M0,0 L14,0 L16,2 L16,8 L14,4 L13,8 L11,7 L12,4 L5,5 L-5,3 L-5,5 L0,5 L0,6 L-7,6 L-9,5 L-9,7 L-6,8 L-17,7 L-17,9 L-10,9 L-15,13 L-19,15 L-19,13 L-21,13 L-21,15 L-38,15 L-38,14 L-22,14 L-20,10 L-18,10 L-18,6 L-10,6 L-10,4 L-6,4 L-6,2 L0,2 Z " fill="#DAD789" transform="translate(594,326)"/>
<path d="M0,0 L4,1 L1,1 L0,9 L-1,11 L0,18 L-5,23 L-9,27 L-11,27 L-11,25 L-13,25 L-14,28 L-13,23 L-10,20 L-8,20 L-8,16 L-6,16 L-6,8 L-4,8 L-3,3 Z " fill="#EFEC92" transform="translate(372,318)"/>
<path d="M0,0 L3,2 L5,7 L7,8 L7,14 L9,14 L9,22 L7,22 L7,32 L5,32 L5,36 L-1,36 L-1,40 L-5,39 L-2,39 L-3,34 L-2,32 L6,31 L6,22 L4,22 L3,15 L1,9 L2,3 L0,3 L-1,6 L-1,1 Z " fill="#ECEC95" transform="translate(689,538)"/>
<path d="M0,0 L1,4 L-1,4 L-1,10 L1,10 L1,16 L5,18 L5,24 L9,26 L9,32 L7,32 L7,34 L9,34 L8,38 L8,35 L5,36 L6,32 L4,32 L3,35 L3,30 L3,27 L4,19 L2,19 L2,25 L1,25 L1,19 L-1,19 L-1,17 L-3,17 L-5,10 L-5,3 L0,3 Z " fill="#E1E273" transform="translate(541,450)"/>
<path d="M0,0 L1,0 L1,21 L3,21 L3,14 L4,14 L6,21 L7,23 L5,33 L7,33 L8,58 L9,61 L8,65 L6,65 L5,69 L5,65 L3,65 L2,68 L2,64 L4,64 L4,58 L6,58 L6,34 L4,34 L4,28 L2,28 L2,22 L0,22 Z M9,58 Z " fill="#CCCD74" transform="translate(638,454)"/>
<path d="M0,0 L6,0 L13,8 L12,12 L17,11 L19,12 L41,14 L41,15 L29,15 L29,17 L17,17 L15,14 L11,13 L4,5 Z " fill="#E4E090" transform="translate(353,571)"/>
<path d="M0,0 L9,0 L8,4 L5,5 L4,8 L-3,9 L-4,12 L-12,13 L-12,8 L-8,8 L-8,4 L0,4 Z " fill="#FEFE95" transform="translate(652,552)"/>
<path d="M0,0 L1,3 L26,2 L23,7 L-1,7 L-3,5 L-2,1 L-2,4 L0,4 Z " fill="#E4E48F" transform="translate(415,653)"/>
<path d="M0,0 L1,0 L2,6 L3,6 L3,15 L2,16 L1,25 L-1,29 L-5,29 L-5,25 L-3,25 L-3,15 L-1,15 L-1,7 L-3,7 L-3,2 L0,3 Z M0,7 Z " fill="#030302" transform="translate(699,545)"/>
<path d="M0,0 L1,0 L1,19 L0,24 L-1,34 L-2,35 L-3,51 L-4,51 L-4,3 L-3,3 L-2,19 Z " fill="#F9F395" transform="translate(301,429)"/>
<path d="M0,0 L4,0 L6,5 L8,6 L8,10 L10,10 L10,22 L8,22 L8,28 L5,30 L4,34 L2,34 L1,38 L0,29 L2,29 L2,27 L4,27 L4,21 L9,21 L9,11 L6,12 L7,7 L5,7 L4,11 L2,7 L3,1 Z " fill="#E7E791" transform="translate(686,454)"/>
<path d="M0,0 L5,0 L7,5 L9,5 L9,8 L11,8 L10,15 L5,15 L0,9 Z " fill="#FCF8A6" transform="translate(347,556)"/>
<path d="M0,0 L12,0 L12,1 L1,1 L1,3 L3,3 L1,7 L-3,11 L-11,9 L-11,11 L-6,11 L-8,13 L-13,12 L-15,11 L-15,15 L-20,16 L-18,12 L-16,10 L-12,10 L-12,8 L-6,8 L-4,4 Z " fill="#F1F07C" transform="translate(418,286)"/>
<path d="M0,0 L1,0 L1,8 L-1,8 L-1,82 L-2,82 L-3,1 L-1,5 Z " fill="#3E3D26" transform="translate(295,412)"/>
<path d="M0,0 L8,0 L10,4 L14,4 L14,6 L19,7 L25,15 L23,15 L22,17 L20,13 L21,11 L19,11 L18,13 L16,11 L11,10 L10,7 L13,7 L13,5 L7,6 L0,4 L0,3 L7,3 L7,1 L0,1 Z " fill="#F7F78A" transform="translate(518,302)"/>
<path d="M0,0 L2,4 L-11,3 L-11,5 L0,5 L0,6 L-6,6 L-6,8 L2,10 L2,11 L-3,11 L-3,13 L2,13 L2,14 L-4,14 L-6,10 L-14,10 L-16,6 L-12,6 L-12,2 L0,2 Z " fill="#212114" transform="translate(654,616)"/>
<path d="M0,0 L1,0 L2,9 L0,10 L0,7 L-9,7 L-8,11 L-12,11 L-12,13 L-10,14 L-18,16 L-20,15 L-20,17 L-26,17 L-23,15 L-21,15 L-20,12 L-18,13 L-18,8 L-12,8 L-12,10 L-10,10 L-10,6 L0,6 Z " fill="#D8D57C" transform="translate(414,566)"/>
<path d="M0,0 L1,4 L0,6 L5,6 L4,13 L6,13 L7,10 L7,17 L6,21 L8,21 L8,16 L9,16 L8,39 L7,39 L7,25 L5,25 L5,17 L3,17 L3,11 L1,11 L1,7 L-1,7 L-2,2 L0,2 Z " fill="#202013" transform="translate(637,355)"/>
<path d="M0,0 L2,1 L0,5 L-2,9 L-8,16 L-11,17 L-11,15 L-13,15 L-12,18 L-20,17 L-20,16 L-14,16 L-12,12 Z " fill="#F9F39A" transform="translate(336,374)"/>
<path d="M0,0 L10,1 L10,2 L4,2 L4,4 L0,4 L0,6 L-10,6 L-10,8 L-28,8 L-28,7 L-11,7 L-11,5 L-18,5 L-18,4 L-11,2 L1,2 L3,3 L3,1 Z " fill="#D9D891" transform="translate(622,680)"/>
<path d="M0,0 L1,4 L-3,4 L-3,6 L-11,7 L-13,12 L-17,12 L-17,14 L-23,14 L-23,13 L-18,13 L-18,11 L-23,11 L-19,9 L-17,9 L-17,7 L-15,7 L-14,4 L-11,2 L-3,2 L0,3 Z " fill="#DBDD6A" transform="translate(565,436)"/>
<path d="M0,0 L14,0 L14,6 L0,6 Z " fill="#3A3A01" transform="translate(650,780)"/>
<path d="M0,0 L2,1 L1,25 L-1,25 L0,38 L-2,38 L-3,30 L-1,1 Z " fill="#FBF59D" transform="translate(299,463)"/>
<path d="M0,0 L1,4 L-3,8 L-19,8 L-19,2 L-18,4 L-16,4 L-15,2 L-15,4 L-3,3 Z " fill="#16150C" transform="translate(575,332)"/>
<path d="M0,0 L1,4 L-1,4 L-1,6 L-7,6 L-7,8 L-13,8 L-13,10 L-19,10 L-19,12 L-31,12 L-31,11 L-20,11 L-20,9 L-31,9 L-29,5 L-26,6 L-26,7 L-14,9 L-14,7 L-19,7 L-19,6 L-8,7 L-8,5 L-13,5 L-13,4 L-2,5 L-2,2 L0,2 Z " fill="#CECF81" transform="translate(663,668)"/>
<path d="M0,0 L7,0 L9,3 L16,5 L17,8 L21,8 L21,12 L23,12 L23,18 L22,18 L22,13 L20,13 L20,19 L19,19 L19,11 L20,9 L14,10 L8,7 L6,5 L6,1 L0,1 Z " fill="#E4E68C" transform="translate(641,626)"/>
<path d="M0,0 L1,2 L6,3 L9,6 L10,9 L13,11 L8,11 L8,7 L6,7 L6,13 L13,13 L13,14 L5,14 L5,6 L-1,6 L-1,10 L-3,10 L-4,14 L-5,6 L-4,9 L-2,9 L-3,3 L0,2 Z " fill="#DFDD78" transform="translate(401,552)"/>
<path d="M0,0 L2,0 L1,11 L4,11 L4,8 L6,8 L7,11 L6,14 L6,17 L1,17 L-3,11 L-2,4 Z " fill="#FAF6A2" transform="translate(302,496)"/>
<path d="M0,0 L5,1 L8,4 L8,6 L10,6 L12,11 L17,13 L20,16 L19,20 L16,15 L14,15 L14,18 L17,17 L16,21 L13,19 L13,16 L9,15 L8,9 L9,7 L7,7 L6,11 L5,4 Z " fill="#DDDA97" transform="translate(610,334)"/>
<path d="M0,0 L1,0 L1,6 L-1,6 L-1,10 L-3,10 L-3,32 L-4,32 L-4,10 L-6,10 L-6,33 L-7,33 L-7,8 L-4,5 L-4,9 L-2,9 L-3,1 L-2,5 L0,5 Z " fill="#D8D97D" transform="translate(685,492)"/>
<path d="M0,0 L4,0 L6,5 L8,6 L8,16 L12,16 L12,22 L11,22 L11,17 L6,18 L4,17 L3,8 L2,3 L3,1 Z " fill="#ECEB84" transform="translate(544,318)"/>
<path d="M0,0 L1,0 L1,24 L-1,24 L-1,30 L-3,30 L-3,34 L-6,35 L-5,26 L-4,25 L-3,8 L-2,8 L-2,23 L0,23 Z " fill="#222213" transform="translate(643,488)"/>
<path d="M0,0 L2,0 L1,8 L1,14 L4,17 L3,19 L-1,15 L-3,10 L-7,7 L-7,1 L-6,1 L-6,6 L-4,6 L-4,1 Z " fill="#DDD991" transform="translate(347,551)"/>
<path d="M0,0 L8,6 L9,9 L14,10 L15,13 L19,13 L19,15 L23,15 L22,17 L15,17 L18,16 L18,14 L13,15 L12,11 L7,11 L8,8 L4,9 L1,6 L1,4 L-1,4 Z " fill="#D1D172" transform="translate(569,521)"/>
<path d="M0,0 L5,3 L7,8 L9,9 L11,14 L13,15 L13,23 L12,23 L12,16 L10,16 L10,22 L9,22 L9,16 L7,16 L8,10 L6,10 L5,14 L3,6 L4,4 L2,4 L1,6 L-1,2 Z " fill="#DEE07D" transform="translate(661,411)"/>
<path d="M0,0 L2,3 L2,10 L-4,17 L-5,13 L-7,13 L-8,16 L-8,12 L-6,12 L-6,8 L-2,8 L-2,4 L0,4 Z " fill="#D9D48C" transform="translate(346,358)"/>
<path d="M0,0 L8,0 L8,2 L3,3 L2,6 L-5,9 L-7,10 L-10,7 L-12,6 L-12,4 L-1,3 Z " fill="#FBF986" transform="translate(431,283)"/>
<path d="M0,0 L6,0 L7,1 L22,3 L22,5 L5,5 L5,3 L-2,3 L-2,1 Z " fill="#FBFAA8" transform="translate(589,682)"/>
<path d="M0,0 L8,0 L8,2 L19,2 L23,3 L23,5 L7,5 L7,3 L1,3 Z " fill="#FAF99F" transform="translate(563,678)"/>
<path d="M0,0 L6,0 L6,6 L8,6 L10,11 L14,14 L14,20 L16,20 L16,26 L15,26 L15,21 L13,21 L13,27 L12,27 L12,20 L13,15 L9,15 L9,13 L7,13 L5,11 L4,11 L5,1 L0,1 Z " fill="#202015" transform="translate(324,532)"/>
<path d="M0,0 L4,0 L8,5 L10,6 L10,10 L12,10 L12,16 L11,16 L11,11 L8,11 L9,7 L5,7 L5,5 L1,4 L-23,3 L-23,2 L0,2 Z " fill="#2B2B18" transform="translate(622,434)"/>
<path d="M0,0 L1,0 L1,19 L3,19 L3,0 L4,0 L5,7 L5,16 L6,19 L5,23 L7,23 L8,20 L7,30 L6,30 L6,24 L4,24 L4,20 L0,20 Z " fill="#D4D282" transform="translate(394,586)"/>
<path d="M0,0 L1,4 L-1,4 L-1,10 L-5,10 L-5,14 L-7,14 L-7,18 L-13,18 L-13,17 L-8,17 L-9,13 L-6,13 L-6,9 L-8,9 L-6,5 L-5,2 L-2,1 L-2,3 L0,3 Z " fill="#DADB86" transform="translate(683,578)"/>
<path d="M0,0 L1,2 L7,2 L7,6 L11,6 L11,10 L13,10 L14,15 L11,15 L12,11 L10,11 L9,15 L9,11 L4,9 L3,6 L1,5 L6,5 L6,3 L-1,4 Z " fill="#DDDE7E" transform="translate(647,396)"/>
<path d="M0,0 L16,0 L16,4 L0,4 Z " fill="#FFFF7B" transform="translate(420,308)"/>
<path d="M0,0 L1,2 L0,7 L6,6 L7,9 L11,11 L8,11 L8,13 L13,12 L15,14 L14,17 L19,17 L19,18 L13,18 L11,15 L7,14 L3,9 L-1,8 L-1,2 L-3,1 Z " fill="#DFDE8B" transform="translate(469,658)"/>
<path d="M0,0 L3,4 L8,5 L8,29 L7,26 L5,26 L4,28 L4,22 L6,22 L6,10 L4,10 L4,6 L0,4 Z " fill="#2A2A1B" transform="translate(690,454)"/>
<path d="M0,0 L1,3 L11,2 L16,6 L16,9 L11,9 L11,11 L16,11 L16,12 L10,12 L10,6 L6,6 L6,4 L0,4 Z " fill="#DDDB94" transform="translate(314,520)"/>
<path d="M0,0 L5,0 L7,2 L7,12 L4,13 L3,11 L3,4 L-1,4 Z " fill="#050503" transform="translate(483,676)"/>
<path d="M0,0 L2,1 L0,4 L11,4 L11,6 L0,6 L0,8 L-6,8 L-7,5 L-4,3 L-3,1 Z " fill="#FAFAA5" transform="translate(632,673)"/>
<path d="M0,0 L6,0 L6,2 L8,2 L8,4 L11,4 L12,13 L10,16 L10,6 L8,6 L8,16 L7,16 L6,6 L5,3 L0,3 Z " fill="#EBEA95" transform="translate(483,672)"/>
<path d="M0,0 L1,4 L-1,4 L0,16 L-3,17 L-5,10 L-5,3 L0,3 Z " fill="#EAEC74" transform="translate(541,450)"/>
<path d="M0,0 L1,0 L1,5 L3,5 L3,0 L6,4 L5,10 L9,13 L10,11 L10,13 L12,14 L9,14 L10,20 L8,20 L8,14 L4,12 L2,10 L2,6 L0,6 Z " fill="#D4D18E" transform="translate(330,532)"/>
<path d="M0,0 L2,1 L1,3 L3,3 L1,7 L-1,9 L-4,9 L-5,11 L-5,9 L-7,9 L-8,12 L-7,7 Z " fill="#F5F19E" transform="translate(356,346)"/>
<path d="M0,0 L9,1 L10,6 L8,6 L8,4 L2,4 L2,9 L-2,8 L-2,4 L0,4 Z " fill="#19190E" transform="translate(394,570)"/>
<path d="M0,0 L6,0 L6,8 L5,4 L3,4 L2,8 L1,5 L-1,5 L0,12 L-1,9 L-3,9 L-4,12 L-4,8 L-2,8 L-2,4 L0,4 Z " fill="#222212" transform="translate(400,558)"/>
<path d="M0,0 L1,0 L1,7 L3,7 L3,0 L4,0 L4,8 L2,8 L2,12 L-2,16 L-6,16 L-6,18 L-10,17 L-7,17 L-7,15 L-9,14 L-3,15 L-4,12 L-2,7 L-1,11 L1,11 L0,9 Z " fill="#D6D590" transform="translate(538,690)"/>
<path d="M0,0 L1,0 L1,10 L-1,10 L-1,14 L-7,14 L-7,18 L-11,17 L-8,17 L-9,12 L-8,10 L0,9 Z " fill="#D6D687" transform="translate(695,560)"/>
<path d="M0,0 L7,0 L2,4 L-2,6 L-2,4 L-4,4 L-4,6 L-21,6 L-21,5 L-5,5 L-3,1 Z " fill="#D0CE7B" transform="translate(577,335)"/>
<path d="M0,0 L5,0 L6,9 L0,9 Z " fill="#403D01" transform="translate(291,674)"/>
<path d="M0,0 L3,0 L3,4 L0,4 L1,8 L-4,9 L-5,12 L-7,12 L-8,8 L-5,5 L-2,5 L-1,1 Z " fill="#F9FA98" transform="translate(674,587)"/>
<path d="M0,0 L10,0 L12,3 L24,4 L23,8 L23,5 L12,6 L8,7 L6,5 L3,3 L9,3 L9,1 L1,1 L0,4 Z " fill="#CAC86D" transform="translate(430,282)"/>
<path d="M0,0 L2,4 L3,6 L3,19 L1,19 L1,13 L-1,13 L-1,7 L-3,7 L-3,1 L-2,1 L-2,6 L0,6 Z " fill="#DCDB8B" transform="translate(409,635)"/>
<path d="M0,0 L3,4 L6,4 L6,6 L8,6 L10,10 L11,13 L9,13 L9,15 L12,16 L7,15 L6,10 L4,10 L4,6 L0,4 Z " fill="#252516" transform="translate(678,438)"/>
<path d="M0,0 L5,3 L12,10 L8,11 L1,5 L-1,4 Z " fill="#222115" transform="translate(349,569)"/>
<path d="M0,0 L3,2 L3,12 L7,14 L9,16 L8,20 L8,17 L6,17 L5,20 L5,17 L3,17 L4,13 L1,14 L2,3 L0,3 L-1,5 L-2,1 Z " fill="#CACB6E" transform="translate(559,500)"/>
<path d="M0,0 L1,4 L-1,4 L-1,8 L-4,10 L-5,14 L-9,13 L-6,13 L-6,11 L-10,12 L-5,3 L-4,7 L-2,7 L-3,1 L-2,3 L0,3 Z " fill="#DCDD85" transform="translate(669,596)"/>
<path d="M0,0 L1,4 L3,4 L4,10 L4,18 L1,19 L1,14 L-1,14 L-1,10 L2,10 L2,5 L-1,5 Z " fill="#E8E794" transform="translate(637,362)"/>
<path d="M0,0 L4,0 L6,5 L8,6 L8,10 L10,10 L10,22 L9,22 L9,11 L6,12 L7,7 L5,7 L4,11 L2,7 L3,1 Z " fill="#D1D083" transform="translate(686,454)"/>
<path d="M0,0 L3,1 L14,2 L14,3 L3,3 L3,5 L14,5 L14,6 L2,6 L0,2 L-10,2 L-10,1 Z " fill="#282715" transform="translate(440,280)"/>
<path d="M0,0 L8,0 L9,3 L2,4 L1,11 L-1,11 L-2,2 Z " fill="#FBFBA3" transform="translate(540,686)"/>
<path d="M0,0 L4,1 L1,1 L1,3 L-5,3 L-4,12 L-5,18 L-6,18 L-6,12 L-8,12 L-8,6 L-6,6 L-6,2 L0,2 Z " fill="#2A2A14" transform="translate(548,448)"/>
<path d="M0,0 L3,1 L1,5 L-2,8 L-8,6 L-8,8 L-6,8 L-6,12 L-9,13 L-9,5 L0,4 Z " fill="#F8F67E" transform="translate(403,297)"/>
<path d="M0,0 L8,0 L8,1 L1,1 L1,3 L8,3 L4,4 L3,9 L1,11 L1,9 L-1,9 L-2,12 L-2,8 L0,8 Z " fill="#1E1E14" transform="translate(542,690)"/>
<path d="M0,0 L2,0 L2,2 L8,2 L8,0 L20,0 L20,1 L9,1 L9,3 L0,4 L-11,3 L-12,6 L-12,2 L0,2 Z " fill="#393A1D" transform="translate(578,434)"/>
<path d="M0,0 L18,0 L17,2 L14,3 L6,3 L0,2 Z " fill="#F9F884" transform="translate(464,296)"/>
<path d="M0,0 L3,1 L1,5 L1,3 L-1,3 L0,13 L-2,14 L-5,13 L-4,18 L-6,18 L-6,12 L-2,10 L-2,2 Z " fill="#C9C787" transform="translate(488,688)"/>
<path d="M0,0 L1,0 L1,8 L3,8 L3,14 L5,14 L6,19 L1,19 L2,9 L0,9 L0,14 L-1,14 Z " fill="#212115" transform="translate(295,494)"/>
<path d="M0,0 L8,1 L4,2 L4,4 L-1,6 L-5,9 L-7,8 L-5,4 L-3,2 L3,3 L3,1 Z " fill="#E4E491" transform="translate(446,646)"/>
<path d="M0,0 L4,0 L3,6 L6,5 L6,14 L4,14 L4,10 L2,10 L2,4 L0,4 Z " fill="#222214" transform="translate(662,634)"/>
<path d="M0,0 L3,0 L4,5 L7,4 L8,9 L3,9 L-1,3 Z " fill="#F4F09F" transform="translate(349,562)"/>
<path d="M0,0 L5,1 L4,7 L2,7 L1,11 L1,7 L-1,7 L-2,10 L-2,6 L0,6 Z M5,0 Z " fill="#E4E47F" transform="translate(642,512)"/>
<path d="M0,0 L2,1 L2,13 L0,15 L-1,14 L-1,1 Z " fill="#030302" transform="translate(646,380)"/>
<path d="M0,0 L5,1 L12,9 L14,10 L14,16 L13,16 L13,11 L9,11 L9,9 L7,9 L7,7 L5,7 L4,3 Z " fill="#29281A" transform="translate(454,650)"/>
<path d="M0,0 L1,4 L3,4 L3,11 L2,14 L-2,14 L-2,10 L0,10 Z " fill="#191910" transform="translate(696,560)"/>
<path d="M0,0 L1,0 L1,6 L5,8 L5,14 L8,15 L4,16 L3,14 L4,9 L2,9 L2,15 L1,15 L1,9 L-1,9 Z " fill="#CED067" transform="translate(541,460)"/>
<path d="M0,0 L1,4 L3,4 L5,9 L7,10 L7,14 L9,14 L8,18 L8,15 L5,15 L6,11 L4,11 L3,15 L1,7 L2,5 L-1,5 Z " fill="#D3D47D" transform="translate(675,434)"/>
<path d="M0,0 L1,2 L13,2 L13,3 L1,3 L1,5 L-5,5 L-5,3 L-7,2 Z " fill="#D3D46D" transform="translate(585,431)"/>
<path d="M0,0 L5,5 L5,10 L7,10 L8,7 L8,18 L6,18 L6,14 L4,14 L4,6 L0,4 Z " fill="#282817" transform="translate(670,420)"/>
<path d="M0,0 L1,2 L0,4 L-5,4 L-5,6 L-1,7 L-6,12 L-6,6 L-8,6 L-8,11 L-9,11 L-9,5 L-7,3 L-1,3 Z " fill="#D4CD7C" transform="translate(315,391)"/>
<path d="M0,0 L13,0 L12,3 L0,3 Z " fill="#FAFB84" transform="translate(586,430)"/>
<path d="M0,0 L6,0 L6,1 L1,1 L2,7 L1,5 L-1,5 L0,9 L-3,13 L-3,11 L-5,11 L-6,14 L-5,9 L-2,8 L-2,4 L0,4 Z " fill="#2B2B1A" transform="translate(670,596)"/>
<path d="M0,0 L4,1 L5,11 L0,8 Z " fill="#13130C" transform="translate(686,528)"/>
<path d="M0,0 L6,0 L6,6 L0,6 Z " fill="#2D2E01" transform="translate(632,780)"/>
<path d="M0,0 L3,1 L3,2 L10,3 L10,7 L-2,7 L-2,6 L9,6 L9,4 L-2,4 Z " fill="#E0E092" transform="translate(634,673)"/>
<path d="M0,0 L2,0 L2,4 L8,4 L8,6 L11,7 L12,10 L10,13 L10,8 L0,6 Z " fill="#FBF987" transform="translate(407,559)"/>
<path d="M0,0 L2,0 L2,3 L4,3 L3,8 L6,8 L6,13 L3,13 L0,4 Z " fill="#F9F7A5" transform="translate(633,359)"/>
<path d="M0,0 L1,4 L0,6 L5,6 L4,17 L3,17 L3,11 L1,11 L1,7 L-1,7 L-2,2 L0,2 Z " fill="#201F15" transform="translate(637,355)"/>
<path d="M0,0 L1,0 L2,5 L7,8 L7,12 L0,8 L-1,1 Z " fill="#FBF9A8" transform="translate(608,329)"/>
<path d="M0,0 L8,0 L10,4 L14,4 L13,6 L7,6 L0,4 L0,3 L7,3 L7,1 L0,1 Z " fill="#D4D377" transform="translate(518,302)"/>
<path d="M0,0 L9,0 L8,4 L4,5 L0,4 Z " fill="#FDFFA7" transform="translate(320,476)"/>
<path d="M0,0 L0,3 L0,8 L-3,9 L-3,7 L-5,7 L-4,10 L-12,9 L-12,8 L-6,8 L-4,4 Z " fill="#CAC67C" transform="translate(328,382)"/>
<path d="M0,0 L2,0 L3,9 L3,12 L-1,15 Z " fill="#FEFDA2" transform="translate(491,678)"/>
<path d="M0,0 L1,2 L4,3 L4,9 L-3,9 L-3,3 L-2,7 L0,7 Z " fill="#E1E28C" transform="translate(631,615)"/>
<path d="M0,0 L3,2 L5,7 L7,8 L7,14 L6,14 L6,9 L2,10 L1,5 L2,3 L0,3 L-1,6 L-1,1 Z " fill="#DDDD89" transform="translate(689,538)"/>
<path d="M0,0 L3,4 L10,5 L9,9 L15,8 L13,9 L12,11 L8,10 L6,7 L1,5 Z " fill="#D2CF89" transform="translate(300,508)"/>
<path d="M0,0 L11,0 L11,3 L0,3 Z " fill="#040402" transform="translate(587,435)"/>
<path d="M0,0 L4,1 L3,2 L6,3 L6,5 L-7,4 L-6,2 Z " fill="#FBFBA2" transform="translate(643,672)"/>
<path d="M0,0 L3,0 L4,4 L7,7 L5,7 L4,11 L2,11 L0,5 Z " fill="#FAF7A8" transform="translate(339,546)"/>
<path d="M0,0 L11,0 L15,4 L11,5 L6,2 L0,1 Z " fill="#F2F07F" transform="translate(442,289)"/>
<path d="M0,0 L2,0 L3,6 L2,11 L-1,10 L-1,1 Z " fill="#FAF9A1" transform="translate(406,625)"/>
<path d="M0,0 L4,1 L4,12 L1,11 Z " fill="#19190D" transform="translate(561,501)"/>
<path d="M0,0 L8,0 L8,4 L0,4 Z " fill="#F9F97D" transform="translate(488,392)"/>
<path d="M0,0 L5,0 L3,4 L0,11 L-1,11 L-2,3 L0,3 Z " fill="#F8F3A2" transform="translate(349,355)"/>
<path d="M0,0 L1,2 L3,2 L4,10 L-1,7 L-2,2 L0,2 Z " fill="#181810" transform="translate(631,347)"/>
<path d="M0,0 L4,2 L6,4 L6,7 L8,7 L7,11 L4,8 L3,5 L1,5 L1,2 L-1,1 Z " fill="#FAF8AC" transform="translate(623,347)"/>
<path d="M0,0 L5,1 L8,4 L8,6 L10,6 L11,11 L8,11 L9,7 L7,7 L6,11 L5,4 Z " fill="#CDCA8B" transform="translate(610,334)"/>
<path d="M0,0 L1,4 L-4,6 L-5,8 L-17,8 L-17,7 L-6,7 L-7,3 L-3,2 L0,3 Z " fill="#CACB7A" transform="translate(659,610)"/>
<path d="M0,0 L2,0 L2,5 L-3,10 L-4,6 L-1,3 Z M-4,10 Z M-5,11 Z M-6,12 Z " fill="#F8F29E" transform="translate(339,371)"/>
<path d="M0,0 L1,4 L-1,4 L-1,8 L-8,13 L-7,9 L-3,4 L-2,1 L-2,3 L0,3 Z " fill="#1C1B12" transform="translate(339,366)"/>
<path d="M0,0 L4,0 L6,5 L8,6 L8,16 L7,16 L7,7 L3,8 L2,3 L3,1 Z " fill="#D0D073" transform="translate(544,318)"/>
<path d="M0,0 L1,4 L-11,5 L-16,9 L-15,5 L-13,2 L0,3 Z " fill="#262514" transform="translate(429,282)"/>
<path d="M0,0 L2,1 L2,6 L-2,6 L-1,9 L-4,10 L-3,2 Z " fill="#E1E28B" transform="translate(640,616)"/>
<path d="M0,0 L2,1 L0,7 L-1,5 L-3,5 L-3,7 L-8,9 L-11,9 L-8,6 L-4,6 L-2,2 Z " fill="#ABAC60" transform="translate(634,528)"/>
<path d="M0,0 L3,1 L2,7 L0,7 L-1,11 L-2,2 L0,2 Z " fill="#E2E28A" transform="translate(688,481)"/>
<path d="M0,0 L5,0 L5,3 L-2,6 L-4,7 L-4,2 L0,2 Z " fill="#F9F782" transform="translate(389,307)"/>
<path d="M0,0 L12,0 L12,1 L1,1 L1,3 L3,4 L-5,6 Z " fill="#C1BF65" transform="translate(418,286)"/>
<path d="M0,0 L5,0 L7,2 L7,12 L6,12 L6,3 L-1,4 Z " fill="#2C2C1C" transform="translate(483,676)"/>
<path d="M0,0 L3,1 L3,11 L1,11 L-1,7 Z " fill="#FAF99D" transform="translate(412,646)"/>
<path d="M0,0 L3,0 L4,2 L9,3 L9,5 L2,6 L2,3 L0,3 Z " fill="#F8F6A5" transform="translate(313,517)"/>
<path d="M0,0 L8,0 L8,3 L-2,3 L-2,1 Z " fill="#F6F689" transform="translate(490,295)"/>
<path d="M0,0 L1,0 L0,15 L-1,15 L-1,7 L-3,7 L-3,2 L0,3 Z " fill="#202015" transform="translate(699,545)"/>
<path d="M0,0 L2,1 L3,9 L-2,6 L-2,1 Z " fill="#070703" transform="translate(558,492)"/>
<path d="M0,0 L5,3 L5,9 L8,10 L4,11 L3,9 L4,4 L1,5 L-1,4 Z " fill="#CDCE6B" transform="translate(551,489)"/>
<path d="M0,0 L1,4 L-7,11 L-8,8 Z " fill="#0E0D09" transform="translate(357,342)"/>
<path d="M0,0 L4,1 L1,1 L2,10 L1,8 L-1,8 L-2,10 L-2,4 L0,4 Z " fill="#222215" transform="translate(684,578)"/>
<path d="M0,0 L6,0 L9,3 L8,8 L6,8 L5,3 L0,2 Z " fill="#FCFBAC" transform="translate(325,529)"/>
<path d="M0,0 L2,0 L2,9 L-1,10 L-1,2 Z " fill="#FBFB86" transform="translate(559,503)"/>
<path d="M0,0 L5,1 L11,9 L9,9 L8,11 L6,7 L4,3 Z " fill="#CECE72" transform="translate(532,308)"/>
<path d="M0,0 L7,0 L9,3 L16,5 L17,7 L6,5 L6,1 L0,1 Z " fill="#C3C479" transform="translate(641,626)"/>
<path d="M0,0 L1,0 L2,9 L0,10 L0,7 L-9,7 L-10,10 L-10,6 L0,6 Z " fill="#C9C76E" transform="translate(414,566)"/>
<path d="M0,0 L3,3 L3,8 L3,11 L-1,7 L-2,2 L0,2 Z " fill="#272715" transform="translate(569,513)"/>
<path d="M0,0 L2,0 L3,12 L3,15 L1,13 L1,9 L-1,9 L-1,7 L1,7 Z " fill="#34351B" transform="translate(549,475)"/>
<path d="M0,0 L4,0 L4,7 L4,10 L2,8 L2,4 L0,4 Z " fill="#262615" transform="translate(658,402)"/>
<path d="M0,0 L4,0 L6,2 L8,4 L6,4 L6,6 L9,7 L4,6 L0,1 Z " fill="#32321B" transform="translate(539,311)"/>
<path d="M0,0 L5,0 L5,2 L2,3 L1,6 L-4,5 L-4,3 L-1,2 Z " fill="#F8F997" transform="translate(658,607)"/>
<path d="M0,0 L6,0 L6,2 L1,3 L0,6 L-3,6 L-2,2 L0,2 Z " fill="#FAFB7B" transform="translate(541,447)"/>
<path d="M0,0 L2,1 L0,5 L0,7 L-7,8 L-1,1 Z " fill="#C0BC7A" transform="translate(336,374)"/>
<path d="M0,0 L1,3 L-6,10 L-7,7 Z " fill="#0E0D08" transform="translate(330,377)"/>
<path d="M0,0 L5,3 L4,7 L4,4 L2,4 L1,8 L1,5 L-1,5 Z " fill="#DAD793" transform="translate(631,355)"/>
<path d="M0,0 L2,0 L4,4 L2,7 L-2,6 Z " fill="#FAF69F" transform="translate(359,343)"/>
<path d="M0,0 L2,0 L4,6 L1,9 L0,7 Z " fill="#FBFAA8" transform="translate(487,691)"/>
<path d="M0,0 L5,1 L4,5 L9,5 L9,6 L3,6 L1,3 L-3,1 Z " fill="#D4D385" transform="translate(479,670)"/>
<path d="M0,0 L2,1 L0,11 L-3,9 Z " fill="#FEFD8C" transform="translate(378,406)"/>
<path d="M0,0 L1,2 L6,2 L6,5 L-1,6 Z " fill="#F4ED93" transform="translate(316,391)"/>
<path d="M0,0 L1,0 L0,15 L-1,15 L-2,3 L0,3 Z " fill="#1A1A10" transform="translate(643,365)"/>
<path d="M0,0 L4,1 L1,1 L0,7 L-1,5 L-3,5 L-4,8 L-3,3 Z " fill="#C7C475" transform="translate(372,318)"/>
<path d="M0,0 L1,0 L1,6 L3,6 L3,10 L-1,10 Z " fill="#201F16" transform="translate(481,700)"/>
<path d="M0,0 L2,4 L2,9 L-2,8 L-2,4 L0,4 Z " fill="#30301C" transform="translate(394,570)"/>
<path d="M0,0 L3,3 L2,9 L-1,7 L-2,2 L0,2 Z " fill="#1F1F13" transform="translate(693,537)"/>
<path d="M0,0 L3,3 L2,9 L-1,7 L-2,2 L0,2 Z " fill="#1F1F11" transform="translate(667,411)"/>
<path d="M0,0 L10,1 L10,3 L1,3 Z " fill="#FDFDA0" transform="translate(553,680)"/>
<path d="M0,0 L5,1 L8,3 L5,3 L4,5 L4,3 L-2,2 Z " fill="#F6F59E" transform="translate(450,644)"/>
<path d="M0,0 L2,0 L2,5 L0,7 L-4,6 L-4,4 L-1,4 Z " fill="#FCFC9D" transform="translate(635,619)"/>
<path d="M0,0 L7,0 L7,3 L0,3 Z " fill="#FBF98B" transform="translate(407,573)"/>
<path d="M0,0 L4,0 L4,7 L3,4 L1,4 L0,6 Z " fill="#17170E" transform="translate(694,476)"/>
<path d="M0,0 L5,3 L4,7 L4,4 L2,4 L1,6 L-1,2 Z " fill="#D4D677" transform="translate(661,411)"/>
<path d="M0,0 L2,1 L0,7 L-1,5 L-3,5 L-4,8 L-3,3 Z " fill="#C8C57E" transform="translate(362,338)"/>
<path d="M0,0 L4,2 L2,3 L3,7 L-2,2 Z " fill="#D4D386" transform="translate(463,652)"/>
<path d="M0,0 L7,1 L7,2 L2,2 L2,4 L7,4 L7,5 L1,5 L-1,2 Z " fill="#262617" transform="translate(649,625)"/>
<path d="M0,0 L2,0 L1,4 L0,7 L-2,7 L-3,3 Z " fill="#FBFB9D" transform="translate(683,574)"/>
<path d="M0,0 L1,4 L3,5 L1,5 L1,8 L-2,8 L-2,3 L0,3 Z " fill="#F5F38B" transform="translate(394,561)"/>
<path d="M0,0 L5,3 L4,7 L4,4 L2,4 L1,6 L1,4 L-1,4 Z " fill="#232317" transform="translate(341,559)"/>
<path d="M0,0 L3,1 L2,7 L1,3 L-1,3 L-2,6 L-1,1 Z " fill="#D7D777" transform="translate(638,522)"/>
<path d="M0,0 L1,0 L1,10 L-1,10 L-2,2 L0,2 Z " fill="#14140C" transform="translate(685,518)"/>
<path d="M0,0 L5,0 L5,4 L0,4 Z " fill="#FFFF8C" transform="translate(390,482)"/>
<path d="M0,0 L5,0 L5,4 L0,4 Z " fill="#FEFF95" transform="translate(377,482)"/>
<path d="M0,0 L2,0 L2,5 L1,6 L-4,6 L-4,4 L-1,3 Z " fill="#FAF7A4" transform="translate(345,363)"/>
<path d="M0,0 L2,1 L1,6 L-5,6 Z " fill="#C6C280" transform="translate(356,346)"/>
<path d="M0,0 L1,3 L-5,8 L-4,2 Z " fill="#F8F590" transform="translate(377,317)"/>
<path d="M0,0 L4,1 L7,4 L2,5 L2,2 L0,2 Z M6,1 Z " fill="#FBF780" transform="translate(395,303)"/>
<path d="M0,0 L4,1 L1,5 L-7,5 L-7,4 L0,4 L-1,1 Z " fill="#D2D286" transform="translate(549,685)"/>
<path d="M0,0 L1,0 L1,9 L-1,9 L-2,1 Z " fill="#15150D" transform="translate(667,639)"/>
<path d="M0,0 L3,4 L3,7 L-1,5 L-2,3 Z " fill="#F8F5A7" transform="translate(336,538)"/>
<path d="M0,0 L1,0 L1,8 L-3,7 L-3,1 L-1,5 Z " fill="#201F12" transform="translate(295,412)"/>
<path d="M0,0 L4,1 L1,1 L1,3 L3,3 L3,7 L0,8 Z " fill="#DFDD72" transform="translate(394,302)"/>
<path d="M0,0 L4,1 L1,1 L1,5 L-4,6 L-2,2 Z " fill="#C4C264" transform="translate(402,296)"/>
<path d="M0,0 L3,3 L2,6 L-1,6 L-1,1 Z " fill="#FAFA9E" transform="translate(470,659)"/>
<path d="M0,0 L5,3 L6,5 L-1,4 Z " fill="#282719" transform="translate(349,569)"/>
<path d="M0,0 L5,0 L4,4 L0,4 Z " fill="#FFFFA5" transform="translate(596,368)"/>
<path d="M0,0 L6,0 L6,1 L1,1 L1,3 L6,3 L4,5 L-1,4 Z " fill="#DDDB70" transform="translate(406,294)"/>
<path d="M0,0 L5,1 L6,3 L0,4 Z " fill="#252517" transform="translate(476,672)"/>
<path d="M0,0 L1,2 L4,2 L3,6 L-1,4 Z " fill="#F5F58A" transform="translate(543,317)"/>
<path d="M0,0 L4,0 L4,4 L0,4 Z " fill="#424201" transform="translate(633,781)"/>
<path d="M0,0 L3,1 L1,5 L1,3 L-1,3 L-2,6 L-1,1 Z " fill="#282919" transform="translate(666,666)"/>
<path d="M0,0 L3,0 L3,6 L0,5 Z " fill="#8A8A56" transform="translate(632,618)"/>
<path d="M0,0 L4,2 L2,5 L0,3 L-4,1 Z " fill="#DEDA8E" transform="translate(368,582)"/>
<path d="M0,0 L4,1 L3,3 L-1,5 L-1,3 L-3,2 Z M2,3 Z " fill="#F2F488" transform="translate(626,536)"/>
<path d="M0,0 L2,0 L2,5 L-1,6 L-1,1 Z " fill="#FAFA82" transform="translate(553,493)"/>
<path d="M0,0 L3,1 L1,5 L1,3 L-1,3 L-2,6 L-1,1 Z " fill="#292919" transform="translate(692,482)"/>
<path d="M0,0 L3,0 L1,4 L-2,6 L-1,1 Z " fill="#FAF99D" transform="translate(686,455)"/>
<path d="M0,0 L4,0 L4,4 L0,4 Z " fill="#F8FB78" transform="translate(540,416)"/>
<path d="M0,0 L4,0 L2,4 L0,7 Z " fill="#F7F191" transform="translate(299,413)"/>
<path d="M0,0 L4,0 L4,4 L0,4 Z " fill="#F6FB7B" transform="translate(508,412)"/>
<path d="M0,0 L4,0 L4,4 L0,4 Z " fill="#F9F884" transform="translate(480,360)"/>
<path d="M0,0 L1,3 L1,5 L-4,6 L-2,2 Z " fill="#363622" transform="translate(442,654)"/>
<path d="M0,0 L5,1 L4,4 L1,4 Z " fill="#F6F59B" transform="translate(465,655)"/>
<path d="M0,0 L2,3 L0,7 L-2,4 Z " fill="#18180F" transform="translate(444,652)"/>
<path d="M0,0 L3,0 L4,4 L0,5 L-1,3 Z " fill="#F7F2A2" transform="translate(349,562)"/>
<path d="M0,0 L2,1 L0,7 L-2,5 L-1,1 Z " fill="#D4D476" transform="translate(634,528)"/>
<path d="M0,0 L2,3 L1,7 L-2,3 L-2,1 Z " fill="#070703" transform="translate(553,484)"/>
<path d="M0,0 L2,3 L1,7 L-2,3 L-2,1 Z " fill="#070704" transform="translate(663,406)"/>
<path d="M0,0 L2,0 L2,5 L-2,5 Z " fill="#FAF6A0" transform="translate(339,371)"/>
<path d="M0,0 L3,1 L1,5 L1,3 L-1,3 L-2,6 L-1,1 Z " fill="#CECA86" transform="translate(350,352)"/>
<path d="M0,0 L2,0 L2,2 L5,3 L4,4 L-1,4 Z " fill="#FAF880" transform="translate(454,294)"/>
<path d="M0,0 L0,3 L-4,6 L-4,1 Z " fill="#F7F6A1" transform="translate(494,687)"/>
<path d="M0,0 L4,0 L4,2 L2,2 L2,5 L0,5 Z " fill="#FEFD93" transform="translate(397,575)"/>
<path d="M0,0 L6,0 L6,2 L4,2 L3,4 Z " fill="#ECE799" transform="translate(353,571)"/>
<path d="M0,0 L3,2 L2,6 L2,3 L0,3 L-1,6 L-1,1 Z " fill="#CBCB7C" transform="translate(689,538)"/>
<path d="M0,0 L6,1 L2,3 L-1,5 Z " fill="#1E1E10" transform="translate(624,532)"/>
<path d="M0,0 L2,0 L2,3 L4,4 L1,5 L-1,4 Z " fill="#F5F580" transform="translate(547,485)"/>
<path d="M0,0 L2,0 L2,4 L-3,3 Z " fill="#F8FA7A" transform="translate(563,435)"/>
<path d="M0,0 L2,0 L2,6 L-1,6 Z " fill="#F8FA8C" transform="translate(663,415)"/>
<path d="M0,0 L3,2 L2,5 L-3,1 Z " fill="#F7F4A7" transform="translate(613,336)"/>
<path d="M0,0 L6,1 L2,3 L-1,5 Z " fill="#1E1E11" transform="translate(370,316)"/>
<path d="M0,0 L6,1 L2,3 L-1,5 Z " fill="#1E1D0F" transform="translate(400,294)"/>
<path d="M0,0 L6,1 L6,3 L1,3 Z " fill="#FDFCA9" transform="translate(625,678)"/>
<path d="M0,0 L1,4 L-2,6 L-3,3 Z " fill="#F7F789" transform="translate(637,527)"/>
<path d="M0,0 L5,1 L5,5 L3,4 L4,2 L0,3 Z " fill="#E7E77E" transform="translate(573,527)"/>
<path d="M0,0 L1,3 L3,3 L2,7 L0,6 Z " fill="#252512" transform="translate(546,468)"/>
<path d="M0,0 L3,1 L3,4 L-2,3 L0,2 Z " fill="#F8F979" transform="translate(548,443)"/>
<path d="M0,0 L3,3 L2,7 L0,6 L-1,2 Z " fill="#030302" transform="translate(679,435)"/>
<path d="M0,0 L3,2 L2,6 L0,5 L0,2 L-2,1 Z " fill="#060603" transform="translate(671,418)"/>
<path d="M0,0 L3,1 L3,3 L-2,4 Z " fill="#2C2C1E" transform="translate(538,702)"/>
<path d="M0,0 L2,0 L2,4 L-2,4 L-2,2 L0,2 Z " fill="#F9F7AB" transform="translate(508,702)"/>
<path d="M0,0 L3,1 L1,5 L1,3 L-1,3 Z " fill="#D9D98E" transform="translate(488,688)"/>
<path d="M0,0 L5,0 L3,3 L0,3 Z " fill="#EBED90" transform="translate(662,665)"/>
<path d="M0,0 L4,0 L4,2 L2,2 L2,4 L0,4 Z " fill="#434100" transform="translate(283,657)"/>
<path d="M0,0 L5,0 L1,4 Z " fill="#EAE992" transform="translate(436,655)"/>
<path d="M0,0 L3,2 L2,4 L-2,3 L-2,1 Z " fill="#29281A" transform="translate(361,580)"/>
<path d="M0,0 L2,1 L2,6 L0,6 L-1,2 Z " fill="#FBFA8B" transform="translate(397,555)"/>
<path d="M0,0 L1,4 L-3,5 L-3,2 L0,2 Z " fill="#FAF8A5" transform="translate(312,512)"/>
<path d="M0,0 L2,0 L3,3 L0,6 Z " fill="#FDF8A4" transform="translate(306,504)"/>
<path d="M0,0 L1,2 L3,2 L2,6 L0,5 Z " fill="#242413" transform="translate(556,493)"/>
<path d="M0,0 L4,1 L0,4 L0,2 L-2,1 Z " fill="#F4EE99" transform="translate(331,381)"/>
<path d="M0,0 L3,0 L4,4 L0,3 Z " fill="#F7F78D" transform="translate(552,337)"/>
<path d="M0,0 L3,1 L3,3 L-2,4 Z " fill="#2C2C1C" transform="translate(552,686)"/>
<path d="M0,0 L2,0 L2,5 L-1,4 Z " fill="#454201" transform="translate(289,669)"/>
<path d="M0,0 L4,0 L3,3 L0,3 Z " fill="#F9F6A1" transform="translate(365,580)"/>
<path d="M0,0 L5,3 L1,4 Z " fill="#0D0D08" transform="translate(344,565)"/>
<path d="M0,0 L2,1 L2,3 L0,3 L-1,5 L-2,1 Z " fill="#D9DA73" transform="translate(559,500)"/>
<path d="M0,0 L3,0 L3,3 L-1,4 Z " fill="#F8F197" transform="translate(319,393)"/>
<path d="M0,0 L3,1 L2,5 L0,4 Z " fill="#F5F1A6" transform="translate(628,353)"/>
<path d="M0,0 L2,0 L3,3 L0,4 Z M4,0 Z M3,1 Z " fill="#F9F694" transform="translate(575,337)"/>
<path d="M0,0 L3,2 L1,2 L1,4 L4,5 L0,5 L-1,1 Z " fill="#1E1E11" transform="translate(544,313)"/>
<path d="M0,0 L4,0 L3,4 L0,2 Z " fill="#FAFA8D" transform="translate(502,300)"/>
<path d="M0,0 L3,1 L3,3 L-2,2 Z " fill="#FAF9AB" transform="translate(532,702)"/>
<path d="M0,0 L2,0 L2,3 L-3,3 Z " fill="#F3F596" transform="translate(659,668)"/>
<path d="M0,0 L5,0 L6,2 L4,4 L3,2 Z " fill="#030302" transform="translate(454,653)"/>
<path d="M0,0 L2,0 L1,4 L-2,2 Z " fill="#F6F598" transform="translate(683,574)"/>
<path d="M0,0 L1,4 L-2,5 L-1,1 Z " fill="#242414" transform="translate(635,524)"/>
<path d="M0,0 L1,4 L-2,5 L-1,1 Z " fill="#242414" transform="translate(639,518)"/>
<path d="M0,0 L1,4 L-2,5 L-1,1 Z " fill="#242317" transform="translate(357,342)"/>
<path d="M0,0 L1,4 L-2,5 L-1,1 Z " fill="#242316" transform="translate(363,334)"/>
<path d="M0,0 L1,4 L-2,5 L-1,1 Z " fill="#242415" transform="translate(575,332)"/>
<path d="M0,0 L4,4 L0,4 Z " fill="#E7E67D" transform="translate(439,283)"/>
</svg>
