<?xml version="1.0" encoding="UTF-8"?>
<!-- Generator: visioncortex VTracer 0.6.4 -->
<svg version="1.1" xmlns="http://www.w3.org/2000/svg" width="1024" height="1024">
<path d="M0,0 L1024,0 L1024,1024 L0,1024 Z " fill="#000000" transform="translate(0,0)"/>
<path d="M0,0 L30,0 L30,4 L32,4 L32,6 L44,6 L44,12 L46,12 L46,10 L52,10 L52,16 L56,16 L56,18 L58,18 L58,16 L66,16 L66,18 L70,18 L70,22 L78,22 L78,26 L80,26 L82,29 L86,30 L86,32 L90,32 L92,35 L98,36 L100,39 L110,40 L110,44 L116,44 L116,52 L120,52 L122,55 L126,56 L126,60 L166,60 L166,58 L172,58 L172,56 L186,56 L186,54 L190,54 L190,52 L196,52 L196,50 L198,50 L198,48 L204,48 L206,44 L208,44 L208,42 L212,42 L214,38 L216,38 L216,36 L220,36 L220,34 L222,34 L222,32 L228,32 L228,30 L230,30 L230,28 L234,28 L234,24 L242,24 L242,22 L264,22 L264,24 L272,24 L272,26 L276,26 L276,28 L282,28 L284,31 L290,32 L292,35 L296,36 L296,38 L300,38 L304,43 L306,44 L306,50 L308,50 L308,60 L310,60 L310,66 L308,66 L308,76 L306,76 L306,90 L304,90 L304,98 L302,98 L302,102 L300,102 L300,106 L298,106 L298,110 L296,110 L296,118 L294,118 L294,120 L292,120 L292,128 L290,128 L290,152 L292,152 L292,162 L294,162 L294,164 L296,164 L296,170 L298,170 L298,178 L300,178 L300,180 L302,180 L302,186 L304,186 L304,188 L306,188 L306,196 L308,196 L312,200 L312,204 L316,204 L316,208 L318,208 L318,210 L320,210 L320,214 L322,214 L322,216 L326,216 L326,220 L328,220 L328,222 L332,222 L336,227 L342,228 L342,230 L348,230 L350,233 L354,234 L356,237 L360,238 L360,248 L362,248 L362,254 L360,254 L360,256 L356,256 L356,260 L354,260 L354,262 L350,262 L350,264 L344,264 L344,266 L338,266 L338,268 L332,268 L332,270 L330,270 L330,272 L326,272 L326,276 L324,276 L324,278 L322,278 L322,296 L324,296 L324,300 L326,300 L326,308 L328,308 L328,314 L330,314 L330,332 L332,332 L332,340 L334,340 L334,360 L332,360 L332,364 L330,364 L330,368 L328,368 L328,370 L326,370 L326,374 L324,374 L324,376 L322,376 L322,378 L318,378 L318,380 L316,380 L316,382 L312,382 L312,384 L310,384 L310,386 L306,386 L306,388 L304,388 L304,390 L296,397 L292,402 L290,402 L290,406 L288,406 L288,408 L284,412 L282,412 L282,416 L278,416 L278,418 L276,418 L276,422 L272,422 L272,424 L270,424 L270,426 L263,432 L262,434 L258,434 L258,436 L254,436 L254,438 L250,438 L250,440 L246,440 L246,442 L230,442 L230,440 L218,440 L218,438 L214,438 L214,436 L208,436 L208,434 L156,434 L156,432 L146,432 L146,430 L138,430 L138,426 L136,426 L136,424 L132,424 L132,422 L127,421 L124,418 L124,416 L119,415 L118,412 L110,412 L110,410 L104,410 L104,408 L90,408 L90,406 L82,406 L82,404 L72,404 L72,402 L68,402 L68,400 L38,400 L38,398 L28,398 L28,396 L-12,396 L-12,398 L-34,398 L-34,396 L-42,396 L-42,394 L-46,394 L-46,392 L-50,392 L-50,390 L-54,390 L-54,388 L-60,388 L-62,384 L-68,384 L-74,378 L-74,376 L-78,376 L-85,368 L-90,364 L-92,359 L-94,358 L-94,352 L-96,352 L-96,348 L-98,348 L-98,344 L-100,344 L-100,338 L-102,338 L-104,333 L-106,332 L-108,327 L-110,326 L-112,321 L-114,320 L-114,314 L-116,314 L-116,310 L-118,310 L-118,302 L-120,302 L-120,296 L-122,296 L-122,268 L-120,268 L-120,266 L-118,266 L-118,258 L-116,258 L-116,256 L-114,256 L-114,248 L-112,248 L-112,246 L-110,246 L-110,240 L-108,240 L-108,234 L-106,234 L-106,204 L-104,204 L-104,200 L-102,200 L-102,180 L-100,180 L-100,174 L-98,174 L-98,166 L-94,166 L-94,164 L-90,164 L-90,160 L-86,160 L-86,158 L-80,158 L-80,156 L-64,156 L-64,158 L-56,158 L-50,165 L-48,166 L-48,176 L-46,176 L-46,182 L-44,182 L-44,186 L-40,186 L-40,192 L-38,192 L-38,196 L-36,196 L-36,200 L-34,200 L-34,204 L-30,206 L-30,208 L-28,208 L-28,214 L-24,214 L-24,232 L-20,232 L-20,238 L-24,238 L-24,250 L-26,250 L-26,262 L-28,262 L-28,266 L-30,266 L-30,270 L-32,270 L-32,280 L-34,280 L-34,286 L-36,286 L-36,292 L-32,292 L-32,298 L-34,298 L-34,306 L-32,306 L-32,310 L-30,310 L-30,314 L-28,314 L-28,318 L-26,318 L-26,320 L-22,320 L-22,318 L-16,318 L-16,320 L-10,320 L-10,322 L-6,322 L-6,324 L0,324 L0,326 L8,326 L8,328 L14,328 L14,330 L18,330 L18,332 L26,332 L26,334 L32,334 L32,336 L38,336 L38,338 L42,338 L42,340 L60,340 L60,342 L62,342 L62,340 L74,340 L74,338 L78,338 L78,336 L102,336 L102,334 L112,334 L112,332 L120,332 L120,330 L136,330 L136,328 L144,328 L144,326 L148,326 L150,322 L154,320 L154,318 L156,318 L156,316 L158,316 L158,310 L160,310 L160,304 L164,304 L164,300 L166,300 L166,292 L168,292 L168,288 L170,288 L170,286 L172,286 L172,282 L174,282 L174,268 L168,268 L168,264 L166,264 L166,260 L164,260 L164,256 L162,256 L162,248 L160,248 L160,246 L152,246 L148,242 L148,240 L144,240 L144,230 L142,230 L142,224 L140,224 L140,218 L138,218 L138,208 L134,206 L128,200 L128,198 L124,198 L124,196 L104,196 L104,198 L100,198 L100,200 L94,200 L94,202 L86,202 L86,200 L78,200 L76,196 L72,196 L72,194 L70,194 L70,190 L68,190 L68,174 L70,174 L70,164 L68,164 L68,156 L70,156 L70,144 L72,144 L72,136 L74,136 L74,132 L76,132 L76,104 L74,104 L73,96 L70,94 L68,89 L64,86 L64,80 L60,80 L60,78 L56,78 L56,74 L48,74 L48,68 L34,68 L34,64 L32,64 L32,70 L24,70 L24,72 L20,72 L20,76 L16,76 L16,78 L4,78 L4,72 L0,72 L-4,67 L-6,66 L-6,60 L-2,60 L-2,56 L0,56 L0,48 L4,48 L4,40 L12,40 L12,38 L10,38 L10,36 L6,36 L0,29 L-2,28 L-2,24 L-12,24 L-12,26 L-16,26 L-16,30 L-18,30 L-18,36 L-20,36 L-20,38 L-18,38 L-18,40 L-12,40 L-12,44 L-8,44 L-8,50 L-14,50 L-14,54 L-26,54 L-26,50 L-28,50 L-28,48 L-34,48 L-34,46 L-36,46 L-36,40 L-32,40 L-32,30 L-30,30 L-30,28 L-28,28 L-28,24 L-24,24 L-24,22 L-22,22 L-22,20 L-24,20 L-24,14 L-22,14 L-22,12 L-18,12 L-18,10 L-10,10 L-10,12 L-8,12 L-8,10 L-6,10 L-6,4 L-4,4 L-4,2 L0,2 Z " fill="#9293BD" transform="translate(388,310)"/>
<path d="M0,0 L30,0 L30,4 L32,4 L32,6 L44,6 L44,12 L46,12 L46,10 L52,10 L52,16 L56,16 L56,18 L58,18 L58,16 L66,16 L66,18 L70,18 L70,22 L78,22 L78,26 L80,26 L82,29 L86,30 L86,32 L90,32 L92,35 L98,36 L100,39 L110,40 L110,44 L116,44 L116,52 L120,52 L122,55 L126,56 L126,60 L166,60 L166,58 L172,58 L172,56 L186,56 L186,54 L190,54 L190,52 L196,52 L196,50 L198,50 L198,48 L204,48 L206,44 L208,44 L208,42 L212,42 L214,38 L216,38 L216,36 L220,36 L220,34 L222,34 L222,32 L228,32 L228,33 L223,33 L223,35 L228,35 L225,37 L225,41 L219,44 L218,46 L216,46 L216,51 L206,55 L202,59 L195,60 L194,61 L178,62 L178,64 L150,65 L150,67 L144,69 L144,71 L141,72 L138,75 L130,75 L133,75 L136,76 L134,86 L129,87 L125,89 L126,92 L125,94 L127,94 L126,99 L133,96 L136,94 L135,100 L132,106 L130,107 L128,115 L131,114 L130,118 L128,118 L128,125 L126,126 L122,126 L87,127 L86,134 L83,138 L88,138 L87,140 L86,150 L83,150 L81,148 L77,153 L75,159 L73,161 L74,165 L76,166 L75,170 L79,169 L79,175 L75,175 L73,179 L73,187 L76,192 L81,195 L86,195 L90,195 L93,193 L93,195 L104,192 L105,190 L105,192 L128,191 L134,192 L135,198 L137,199 L138,203 L143,209 L144,217 L146,223 L149,231 L149,236 L155,241 L157,239 L158,242 L161,242 L161,244 L164,245 L164,247 L167,248 L167,253 L172,263 L175,264 L175,267 L178,268 L178,282 L174,290 L171,295 L168,306 L163,313 L162,325 L160,325 L160,320 L158,324 L153,327 L144,334 L136,341 L133,344 L127,344 L125,346 L118,347 L116,348 L116,345 L114,344 L114,342 L108,345 L98,344 L90,345 L86,349 L76,348 L75,344 L69,345 L68,347 L63,346 L60,349 L55,348 L50,349 L44,348 L44,346 L38,346 L33,345 L33,347 L28,348 L26,346 L18,346 L14,347 L10,345 L10,343 L6,343 L6,341 L1,341 L1,339 L-4,339 L-4,337 L-8,337 L-8,335 L-14,337 L-18,337 L-22,333 L-26,331 L-32,330 L-32,326 L-36,328 L-40,329 L-40,320 L-43,317 L-47,319 L-48,313 L-47,284 L-45,282 L-43,272 L-43,267 L-42,266 L-42,238 L-41,236 L-39,236 L-38,234 L-37,237 L-35,237 L-34,233 L-32,230 L-32,219 L-30,219 L-30,215 L-32,215 L-33,210 L-35,209 L-35,207 L-37,207 L-44,193 L-43,189 L-43,192 L-41,192 L-41,187 L-44,186 L-40,186 L-40,192 L-38,192 L-38,196 L-36,196 L-36,200 L-34,200 L-34,204 L-30,206 L-30,208 L-28,208 L-28,214 L-24,214 L-24,232 L-20,232 L-20,238 L-24,238 L-24,250 L-26,250 L-26,262 L-28,262 L-28,266 L-30,266 L-30,270 L-32,270 L-32,280 L-34,280 L-34,286 L-36,286 L-36,292 L-32,292 L-32,298 L-34,298 L-34,306 L-32,306 L-32,310 L-30,310 L-30,314 L-28,314 L-28,318 L-26,318 L-26,320 L-22,320 L-22,318 L-16,318 L-16,320 L-10,320 L-10,322 L-6,322 L-6,324 L0,324 L0,326 L8,326 L8,328 L14,328 L14,330 L18,330 L18,332 L26,332 L26,334 L32,334 L32,336 L38,336 L38,338 L42,338 L42,340 L60,340 L60,342 L62,342 L62,340 L74,340 L74,338 L78,338 L78,336 L102,336 L102,334 L112,334 L112,332 L120,332 L120,330 L136,330 L136,328 L144,328 L144,326 L148,326 L150,322 L154,320 L154,318 L156,318 L156,316 L158,316 L158,310 L160,310 L160,304 L164,304 L164,300 L166,300 L166,292 L168,292 L168,288 L170,288 L170,286 L172,286 L172,282 L174,282 L174,268 L168,268 L168,264 L166,264 L166,260 L164,260 L164,256 L162,256 L162,248 L160,248 L160,246 L152,246 L148,242 L148,240 L144,240 L144,230 L142,230 L142,224 L140,224 L140,218 L138,218 L138,208 L134,206 L128,200 L128,198 L124,198 L124,196 L104,196 L104,198 L100,198 L100,200 L94,200 L94,202 L86,202 L86,200 L78,200 L76,196 L72,196 L72,194 L70,194 L70,190 L68,190 L68,174 L70,174 L70,164 L68,164 L68,156 L70,156 L70,144 L72,144 L72,136 L74,136 L74,132 L76,132 L76,104 L74,104 L73,96 L70,94 L68,89 L64,86 L64,80 L60,80 L60,78 L56,78 L56,74 L48,74 L48,68 L34,68 L34,64 L32,64 L32,70 L24,70 L24,72 L20,72 L20,76 L16,76 L16,78 L4,78 L4,72 L0,72 L-4,67 L-6,66 L-6,60 L-2,60 L-2,56 L0,56 L0,48 L4,48 L4,40 L12,40 L12,38 L10,38 L10,36 L6,36 L0,29 L-2,28 L-2,24 L-12,24 L-12,26 L-16,26 L-16,30 L-18,30 L-18,36 L-20,36 L-20,38 L-18,38 L-18,40 L-12,40 L-12,44 L-8,44 L-8,50 L-14,50 L-14,54 L-26,54 L-26,50 L-28,50 L-28,48 L-34,48 L-34,46 L-36,46 L-36,40 L-32,40 L-32,30 L-30,30 L-30,28 L-28,28 L-28,24 L-24,24 L-24,22 L-22,22 L-22,20 L-24,20 L-24,14 L-22,14 L-22,12 L-18,12 L-18,10 L-10,10 L-10,12 L-8,12 L-8,10 L-6,10 L-6,4 L-4,4 L-4,2 L0,2 Z M163,247 Z M226,37 Z M126,89 Z M-45,276 Z " fill="#9184AC" transform="translate(388,310)"/>
<path d="M0,0 L1,0 L1,7 L3,7 L3,0 L4,0 L6,7 L7,12 L6,37 L4,37 L3,39 L3,37 L1,37 L1,40 L3,40 L2,62 L-1,65 L0,69 L2,70 L1,74 L5,73 L5,79 L1,79 L-1,83 L-1,91 L2,96 L7,99 L12,99 L16,99 L19,97 L19,99 L30,96 L31,94 L31,96 L54,95 L60,96 L61,102 L63,103 L64,107 L69,113 L70,121 L72,127 L75,135 L75,140 L81,145 L83,143 L84,146 L87,146 L87,148 L90,149 L90,151 L93,152 L93,157 L98,167 L101,168 L101,171 L104,172 L104,186 L100,194 L97,199 L94,210 L89,217 L88,229 L86,229 L86,224 L84,228 L79,231 L70,238 L62,245 L59,248 L53,248 L51,250 L44,251 L42,252 L42,249 L40,248 L40,246 L34,249 L24,248 L16,249 L12,253 L2,252 L1,248 L-5,249 L-6,251 L-11,250 L-14,253 L-19,252 L-24,253 L-30,252 L-30,250 L-36,250 L-41,249 L-41,251 L-46,252 L-48,250 L-56,250 L-60,251 L-64,249 L-64,247 L-68,247 L-68,245 L-73,245 L-73,243 L-78,243 L-78,241 L-82,241 L-82,239 L-88,241 L-92,241 L-96,237 L-100,235 L-106,234 L-106,230 L-110,232 L-114,233 L-114,224 L-117,221 L-121,223 L-122,217 L-121,188 L-119,186 L-117,176 L-117,171 L-116,170 L-116,142 L-115,140 L-113,140 L-112,138 L-111,141 L-109,141 L-108,137 L-106,134 L-106,123 L-104,123 L-104,119 L-106,119 L-107,114 L-109,113 L-109,111 L-111,111 L-118,97 L-117,93 L-117,96 L-115,96 L-115,91 L-118,90 L-114,90 L-114,96 L-112,96 L-112,100 L-110,100 L-110,104 L-108,104 L-108,108 L-104,110 L-104,112 L-102,112 L-102,118 L-98,118 L-98,136 L-94,136 L-94,142 L-98,142 L-98,154 L-100,154 L-100,166 L-102,166 L-102,170 L-104,170 L-104,174 L-106,174 L-106,184 L-108,184 L-108,190 L-110,190 L-110,196 L-106,196 L-106,202 L-108,202 L-108,210 L-106,210 L-106,214 L-104,214 L-104,218 L-102,218 L-102,222 L-100,222 L-100,224 L-96,224 L-96,222 L-90,222 L-90,224 L-84,224 L-84,226 L-80,226 L-80,228 L-74,228 L-74,230 L-66,230 L-66,232 L-60,232 L-60,234 L-56,234 L-56,236 L-48,236 L-48,238 L-42,238 L-42,240 L-36,240 L-36,242 L-32,242 L-32,244 L-14,244 L-14,246 L-12,246 L-12,244 L0,244 L0,242 L4,242 L4,240 L28,240 L28,238 L38,238 L38,236 L46,236 L46,234 L62,234 L62,232 L70,232 L70,230 L74,230 L76,226 L80,224 L80,222 L82,222 L82,220 L84,220 L84,214 L86,214 L86,208 L90,208 L90,204 L92,204 L92,196 L94,196 L94,192 L96,192 L96,190 L98,190 L98,186 L100,186 L100,172 L94,172 L94,168 L92,168 L92,164 L90,164 L90,160 L88,160 L88,152 L86,152 L86,150 L78,150 L74,146 L74,144 L70,144 L70,134 L68,134 L68,128 L66,128 L66,122 L64,122 L64,112 L60,110 L54,104 L54,102 L50,102 L50,100 L30,100 L30,102 L26,102 L26,104 L20,104 L20,106 L12,106 L12,104 L4,104 L2,100 L-2,100 L-2,98 L-4,98 L-4,94 L-6,94 L-6,78 L-4,78 L-4,68 L-6,68 L-6,60 L-4,60 L-4,48 L-2,48 L-2,40 L0,40 L0,36 L2,36 L2,8 L0,8 Z M89,151 Z M-119,180 Z " fill="#696B9B" transform="translate(462,406)"/>
<path d="M0,0 L1,3 L5,3 L7,13 L9,14 L10,23 L11,29 L11,47 L8,47 L7,52 L6,54 L-1,55 L-3,59 L-10,59 L-12,61 L-19,62 L-23,68 L-27,81 L-32,90 L-35,90 L-35,92 L-37,93 L-38,96 L-42,98 L-47,98 L-48,102 L-50,102 L-52,106 L-55,109 L-59,109 L-59,112 L-61,112 L-61,114 L-67,116 L-78,116 L-84,114 L-93,111 L-93,109 L-99,107 L-99,104 L-105,104 L-105,102 L-111,102 L-111,100 L-131,99 L-131,95 L-139,97 L-145,96 L-140,91 L-127,92 L-127,90 L-123,91 L-123,93 L-119,91 L-116,88 L-109,87 L-109,90 L-106,90 L-106,87 L-102,88 L-102,90 L-99,87 L-97,87 L-97,85 L-92,87 L-91,85 L-86,86 L-85,90 L-81,89 L-81,87 L-72,86 L-67,86 L-63,86 L-61,86 L-60,81 L-57,81 L-57,79 L-53,78 L-55,84 L-56,87 L-51,87 L-50,80 L-47,79 L-47,75 L-45,74 L-44,71 L-47,72 L-47,66 L-44,63 L-47,63 L-47,59 L-40,59 L-35,58 L-35,47 L-37,46 L-35,45 L-33,47 L-33,49 L-27,46 L-23,47 L-23,50 L-21,50 L-21,48 L-18,49 L-14,50 L-12,48 L-9,48 L-9,50 L-3,50 L-2,40 L1,36 L2,26 L3,25 L3,10 L0,7 Z M-1,7 Z M-32,42 L-31,45 L-33,46 Z " fill="#95A0B6" transform="translate(703,625)"/>
<path d="M0,0 L6,0 L6,1 L1,1 L1,3 L7,3 L7,4 L1,4 L1,6 L-1,6 L-1,8 L-5,8 L-5,12 L-7,12 L-7,14 L-9,14 L-9,32 L-7,32 L-7,36 L-5,36 L-5,44 L-3,44 L-3,50 L-1,50 L-1,68 L1,68 L1,76 L3,76 L3,96 L1,96 L1,100 L-1,100 L-1,104 L-3,104 L-3,106 L-5,106 L-5,110 L-7,110 L-7,112 L-9,112 L-9,114 L-13,114 L-13,116 L-15,116 L-15,118 L-19,118 L-19,120 L-21,120 L-21,122 L-25,122 L-25,124 L-27,124 L-27,126 L-35,133 L-39,138 L-41,138 L-41,142 L-43,142 L-43,144 L-47,148 L-49,148 L-49,152 L-53,152 L-53,154 L-55,154 L-55,158 L-59,158 L-59,160 L-61,160 L-61,162 L-68,168 L-69,170 L-73,170 L-73,172 L-77,172 L-77,174 L-81,174 L-81,176 L-85,176 L-85,178 L-101,178 L-101,176 L-113,176 L-113,174 L-117,174 L-117,172 L-123,172 L-123,170 L-175,170 L-175,168 L-185,168 L-185,166 L-193,166 L-193,162 L-195,162 L-195,160 L-199,160 L-199,158 L-204,157 L-207,154 L-207,152 L-212,151 L-213,148 L-221,148 L-221,146 L-227,146 L-227,145 L-221,145 L-220,142 L-212,142 L-211,145 L-206,146 L-206,149 L-204,149 L-203,142 L-197,142 L-197,144 L-193,145 L-194,150 L-194,156 L-190,158 L-179,159 L-175,160 L-173,160 L-173,162 L-168,161 L-167,162 L-151,162 L-142,159 L-131,160 L-126,161 L-117,165 L-117,167 L-107,167 L-107,169 L-102,169 L-102,171 L-85,170 L-84,168 L-80,166 L-77,166 L-77,163 L-75,163 L-75,160 L-71,160 L-70,157 L-64,152 L-63,149 L-54,147 L-53,143 L-51,143 L-51,141 L-48,141 L-46,135 L-43,129 L-40,119 L-35,112 L-28,111 L-26,109 L-19,109 L-17,106 L-10,105 L-8,98 L-5,98 L-6,80 L-7,74 L-7,65 L-10,64 L-13,49 L-13,19 L-15,19 L-14,14 L-12,10 L-10,10 L-9,6 L-7,6 L-6,3 Z " fill="#8A92AE" transform="translate(719,574)"/>
<path d="M0,0 L17,0 L17,2 L36,2 L45,7 L47,8 L47,13 L49,14 L49,16 L52,17 L52,27 L51,30 L51,38 L52,39 L52,57 L49,59 L44,72 L39,73 L38,70 L40,69 L41,64 L39,63 L40,62 L40,57 L39,55 L40,50 L41,50 L42,55 L45,55 L45,26 L43,26 L43,23 L40,22 L42,16 L38,17 L29,14 L25,12 L24,9 L22,12 L13,11 L13,9 L10,9 L8,11 L-2,12 L-3,15 L-7,16 L-7,8 L-12,13 L-11,16 L-15,22 L-16,20 L-25,23 L-31,26 L-31,29 L-27,31 L-36,33 L-41,33 L-41,31 L-45,32 L-54,35 L-45,35 L-39,36 L-41,39 L-49,39 L-53,42 L-62,45 L-62,48 L-67,50 L-67,52 L-74,53 L-83,53 L-83,47 L-89,52 L-91,53 L-93,56 L-96,57 L-98,61 L-97,70 L-100,72 L-102,76 L-103,83 L-110,84 L-111,87 L-115,89 L-115,83 L-113,82 L-113,80 L-115,80 L-114,72 L-111,71 L-110,67 L-108,63 L-108,60 L-111,63 L-117,64 L-116,59 L-118,59 L-117,55 L-119,54 L-114,51 L-110,51 L-108,42 L-103,42 L-103,40 L-94,35 L-85,35 L-75,32 L-63,30 L-55,30 L-55,28 L-43,26 L-27,21 L-23,14 L-18,11 L-15,6 L-7,6 L-7,2 Z M33,13 Z M-33,29 Z M-82,46 Z M-117,54 Z M7,11 Z M-12,13 Z " fill="#9C99B7" transform="translate(631,345)"/>
<path d="M0,0 L3,1 L4,36 L3,43 L5,43 L5,38 L8,39 L12,49 L13,55 L11,59 L13,59 L14,56 L20,56 L20,58 L24,58 L25,64 L32,64 L32,75 L31,79 L33,79 L34,75 L35,78 L40,79 L39,75 L41,75 L42,83 L42,87 L44,97 L46,97 L46,101 L50,101 L51,105 L63,108 L63,106 L67,106 L67,108 L69,109 L68,111 L72,111 L73,116 L80,117 L80,124 L85,125 L86,127 L79,127 L79,129 L86,128 L108,128 L148,129 L148,127 L108,127 L108,125 L147,124 L152,123 L152,125 L156,123 L156,125 L158,125 L158,123 L160,123 L160,125 L164,125 L165,121 L166,123 L170,124 L170,127 L175,127 L175,129 L180,127 L187,128 L187,130 L195,132 L199,132 L199,134 L205,135 L208,133 L208,136 L213,135 L214,136 L222,136 L222,138 L224,139 L211,139 L211,141 L224,141 L224,142 L210,142 L210,140 L202,140 L202,138 L192,138 L192,136 L188,136 L188,134 L158,134 L158,132 L148,132 L148,130 L108,130 L108,132 L86,132 L86,130 L78,130 L78,128 L74,128 L74,126 L70,126 L70,124 L66,124 L66,122 L60,122 L58,118 L52,118 L46,112 L46,110 L42,110 L35,102 L30,98 L28,93 L26,92 L26,86 L24,86 L24,82 L22,82 L22,78 L20,78 L20,72 L18,72 L16,67 L14,66 L12,61 L10,60 L8,55 L6,54 L6,48 L4,48 L4,44 L2,44 L2,36 L0,36 L0,30 L-2,30 L-2,2 L0,2 Z " fill="#918BAF" transform="translate(268,576)"/>
<path d="M0,0 L4,0 L4,6 L6,6 L6,10 L8,10 L8,14 L10,14 L10,18 L14,20 L14,22 L16,22 L16,28 L20,28 L20,46 L24,46 L24,52 L20,52 L20,64 L18,64 L18,76 L16,76 L16,80 L14,80 L14,84 L12,84 L12,94 L10,94 L10,100 L8,100 L8,106 L12,106 L12,112 L10,112 L10,120 L12,120 L12,124 L14,124 L14,128 L16,128 L16,132 L18,132 L18,135 L22,135 L23,138 L24,142 L36,143 L36,147 L40,147 L40,149 L45,150 L52,152 L60,153 L62,161 L56,160 L54,159 L54,157 L50,157 L50,155 L45,155 L45,153 L40,153 L40,151 L36,151 L36,149 L30,151 L26,151 L22,147 L18,145 L12,144 L12,140 L8,142 L4,143 L4,134 L1,131 L-3,133 L-4,127 L-3,98 L-1,96 L1,86 L1,81 L2,80 L2,52 L3,50 L5,50 L6,48 L7,51 L9,51 L10,47 L12,44 L12,33 L14,33 L14,29 L12,29 L11,24 L9,23 L9,21 L7,21 L0,7 L1,3 L1,6 L3,6 L3,1 Z M-1,90 Z " fill="#8881AA" transform="translate(344,496)"/>
<path d="M0,0 L22,0 L22,2 L30,2 L30,4 L34,4 L34,6 L40,6 L42,9 L48,10 L50,13 L54,14 L54,16 L58,16 L62,21 L64,22 L64,28 L66,28 L66,38 L68,38 L68,44 L66,44 L66,54 L64,54 L64,68 L62,68 L62,76 L60,76 L60,80 L58,80 L58,84 L56,84 L56,88 L54,88 L54,96 L52,96 L52,98 L50,98 L50,106 L48,106 L48,130 L50,130 L50,140 L52,140 L52,142 L54,142 L54,148 L56,148 L56,156 L58,156 L58,158 L60,158 L60,164 L62,164 L62,166 L64,166 L64,174 L66,174 L70,178 L70,182 L74,182 L74,186 L76,186 L76,188 L78,188 L78,192 L80,192 L80,194 L84,194 L84,198 L86,198 L86,200 L90,200 L94,205 L100,206 L100,208 L106,208 L108,211 L112,212 L114,215 L118,216 L118,226 L117,226 L117,217 L115,217 L114,220 L109,217 L109,215 L111,215 L111,213 L106,215 L105,214 L105,209 L100,209 L100,211 L88,209 L84,208 L84,210 L81,209 L81,204 L77,201 L76,201 L76,196 L74,195 L74,193 L72,192 L70,187 L68,188 L66,187 L66,184 L62,183 L61,181 L61,175 L58,175 L58,177 L53,176 L51,171 L53,160 L50,160 L49,156 L48,161 L46,161 L45,148 L43,147 L43,136 L41,136 L41,130 L43,128 L44,107 L42,106 L44,106 L43,97 L44,92 L45,88 L47,88 L49,77 L53,76 L54,70 L56,66 L57,51 L60,42 L61,32 L59,32 L58,23 L54,21 L54,19 L57,19 L57,17 L50,18 L53,17 L53,15 L47,17 L46,15 L42,13 L47,13 L47,11 L38,13 L38,10 L34,9 L39,9 L39,7 L30,8 L33,7 L33,5 L27,6 L29,5 L29,3 L22,4 L0,4 L-7,3 L-7,5 L0,5 L-2,8 L-7,9 L-11,7 L-11,9 L-14,10 L-14,8 L-12,8 L-12,6 L-8,6 L-8,2 L0,2 Z M46,92 L45,94 L47,94 Z M94,207 L93,209 L99,209 L99,207 Z " fill="#8E90AC" transform="translate(630,332)"/>
<path d="M0,0 L6,0 L6,2 L12,2 L12,4 L16,4 L16,6 L22,6 L22,8 L30,8 L30,10 L36,10 L36,12 L40,12 L40,14 L48,14 L48,16 L54,16 L54,18 L60,18 L60,20 L64,20 L64,22 L82,22 L82,24 L84,24 L84,22 L96,22 L96,20 L100,20 L100,18 L134,17 L135,17 L135,15 L143,15 L143,13 L158,13 L158,15 L167,14 L161,21 L155,26 L149,26 L147,28 L140,29 L138,30 L138,27 L136,26 L136,24 L130,27 L120,26 L112,27 L108,31 L98,30 L97,26 L91,27 L90,29 L85,28 L82,31 L77,30 L72,31 L66,30 L66,28 L60,28 L55,27 L55,29 L50,30 L48,28 L38,27 L38,21 L30,21 L18,17 L18,15 L14,15 L14,11 L6,11 L2,10 L0,7 L-4,5 L0,5 L0,3 L-4,2 L0,2 Z " fill="#706BAC" transform="translate(366,628)"/>
<path d="M0,0 L36,0 L37,2 L40,2 L41,4 L46,4 L45,10 L49,8 L54,8 L54,12 L54,14 L57,12 L60,12 L61,14 L64,14 L64,16 L61,16 L62,18 L66,20 L66,29 L68,29 L68,39 L65,50 L64,63 L60,73 L57,74 L56,81 L53,85 L51,84 L54,74 L57,68 L60,67 L59,49 L58,48 L58,40 L59,37 L59,27 L55,25 L54,22 L55,18 L49,16 L44,13 L25,12 L25,10 L8,11 L7,12 L1,12 L1,16 L-7,17 L-11,23 L-15,25 L-19,32 L-29,35 L-41,38 L-47,38 L-47,40 L-71,44 L-77,46 L-87,46 L-93,50 L-95,50 L-95,52 L-102,51 L-105,52 L-105,50 L-98,49 L-95,49 L-95,45 L-91,46 L-91,44 L-88,42 L-85,42 L-85,40 L-75,39 L-57,39 L-57,37 L-41,35 L-40,34 L-31,33 L-29,29 L-21,26 L-19,26 L-19,21 L-17,21 L-16,18 L-10,15 L-9,13 L-11,12 L-10,11 L-12,10 L-12,8 L-4,6 L-4,4 L2,5 L6,3 L0,2 Z M-9,12 Z " fill="#928EAC" transform="translate(623,335)"/>
<path d="M0,0 L9,0 L9,2 L12,0 L22,0 L21,4 L33,5 L41,4 L41,8 L57,8 L61,9 L61,11 L67,11 L67,13 L73,13 L73,16 L79,18 L79,20 L84,21 L93,23 L94,24 L105,24 L106,23 L111,23 L107,26 L104,26 L103,29 L86,29 L86,27 L81,27 L81,25 L71,25 L71,23 L62,20 L57,19 L51,19 L46,18 L37,21 L21,21 L18,20 L15,20 L15,18 L10,19 L9,18 L2,17 L1,16 L1,6 L-2,5 L0,4 Z " fill="#979DB7" transform="translate(531,716)"/>
<path d="M0,0 L1,3 L-1,4 Z M-4,3 L-1,5 L-1,7 L5,4 L3,11 L1,11 L0,21 L-3,26 L-4,33 L-11,42 L-12,45 L-14,46 L-15,49 L-18,52 L-24,55 L-30,59 L-34,63 L-37,63 L-38,66 L-43,65 L-53,64 L-53,62 L-59,61 L-60,54 L-64,53 L-64,50 L-71,49 L-74,47 L-74,45 L-70,46 L-70,48 L-67,45 L-65,45 L-65,43 L-60,45 L-59,43 L-54,44 L-53,48 L-49,47 L-49,45 L-40,44 L-35,44 L-31,44 L-29,44 L-28,39 L-25,39 L-25,37 L-21,36 L-23,42 L-24,45 L-19,45 L-18,38 L-15,37 L-15,33 L-13,32 L-12,29 L-15,30 L-15,24 L-12,21 L-15,21 L-15,17 L-8,17 L-3,16 L-3,5 L-5,4 Z " fill="#A3AFC4" transform="translate(671,667)"/>
<path d="M0,0 L2,3 L3,14 L-1,25 L-12,29 L-16,31 L-22,34 L-24,34 L-25,40 L-28,40 L-29,46 L-32,47 L-34,53 L-40,60 L-41,62 L-47,63 L-48,68 L-51,71 L-53,71 L-55,75 L-60,79 L-65,81 L-71,85 L-82,85 L-90,83 L-90,81 L-94,81 L-94,79 L-99,77 L-99,75 L-104,73 L-104,71 L-108,72 L-112,71 L-136,71 L-145,72 L-148,70 L-143,66 L-130,67 L-130,65 L-126,66 L-126,68 L-122,66 L-119,63 L-112,62 L-112,65 L-107,64 L-99,67 L-99,70 L-95,71 L-94,78 L-91,77 L-91,79 L-88,79 L-88,81 L-75,81 L-73,82 L-72,80 L-67,77 L-63,73 L-56,69 L-53,69 L-52,66 L-50,66 L-49,62 L-47,62 L-46,58 L-40,50 L-39,43 L-36,38 L-34,28 L-32,28 L-30,22 L-26,22 L-26,25 L-24,25 L-24,23 L-21,24 L-17,25 L-15,23 L-12,23 L-12,25 L-6,25 L-5,15 L-2,11 L-1,1 Z " fill="#959FC4" transform="translate(706,650)"/>
<path d="M0,0 L10,1 L8,4 L0,4 L-4,7 L-13,10 L-13,13 L-18,15 L-18,17 L-25,18 L-34,18 L-34,12 L-40,17 L-42,18 L-44,21 L-47,22 L-49,26 L-48,35 L-51,37 L-53,41 L-54,48 L-61,49 L-62,52 L-66,54 L-66,48 L-64,47 L-64,45 L-66,45 L-65,37 L-62,36 L-61,32 L-59,28 L-60,25 L-61,22 L-58,22 L-58,20 L-55,20 L-54,14 L-52,14 L-51,9 L-44,7 L-44,5 L-20,2 L-18,1 Z M-33,11 Z " fill="#AB9BC8" transform="translate(582,380)"/>
<path d="M0,0 L30,0 L30,4 L32,4 L32,6 L44,6 L44,12 L46,12 L46,10 L52,10 L52,16 L51,16 L51,11 L47,11 L47,13 L49,13 L48,16 L46,14 L40,13 L40,10 L31,10 L30,7 L31,5 L29,5 L28,7 L26,5 L3,5 L3,9 L-2,12 L-7,15 L-10,13 L-10,15 L-18,16 L-19,29 L-17,29 L-16,26 L-16,30 L-18,30 L-18,36 L-20,36 L-20,38 L-18,38 L-18,40 L-12,40 L-12,44 L-8,44 L-8,50 L-14,50 L-14,54 L-26,54 L-26,50 L-28,50 L-28,48 L-34,48 L-34,46 L-36,46 L-36,40 L-32,40 L-32,30 L-30,30 L-30,28 L-28,28 L-28,24 L-24,24 L-24,22 L-22,22 L-22,20 L-24,20 L-24,14 L-22,14 L-22,12 L-18,12 L-18,10 L-10,10 L-10,12 L-8,12 L-8,10 L-6,10 L-6,4 L-4,4 L-4,2 L0,2 Z " fill="#8586A0" transform="translate(388,310)"/>
<path d="M0,0 L3,0 L3,2 L5,2 L5,0 L9,1 L8,6 L17,5 L19,10 L27,8 L28,11 L27,14 L23,14 L23,12 L21,12 L21,14 L17,14 L15,14 L15,12 L10,14 L-29,14 L-29,16 L11,16 L11,18 L-58,18 L-58,16 L-52,15 L-57,13 L-58,6 L-59,4 L-53,5 L-53,7 L-36,8 L-27,7 L-27,5 L-25,4 L-13,4 L-5,2 L-5,5 L-3,5 L-2,2 L0,2 Z M-5,1 Z " fill="#8F87B0" transform="translate(405,687)"/>
<path d="M0,0 L6,1 L6,3 L4,3 L4,5 L10,4 L10,2 L12,2 L12,5 L14,5 L14,7 L12,7 L12,9 L19,8 L41,8 L81,9 L81,7 L41,7 L41,5 L80,4 L85,3 L85,5 L89,3 L89,5 L91,5 L91,3 L93,3 L93,5 L97,5 L98,1 L99,3 L103,4 L103,7 L108,7 L108,9 L113,7 L120,8 L120,10 L128,12 L132,12 L132,14 L138,15 L141,13 L141,16 L146,15 L147,16 L155,16 L155,18 L157,19 L144,19 L144,21 L157,21 L157,22 L143,22 L143,20 L135,20 L135,18 L125,18 L125,16 L121,16 L121,14 L91,14 L91,12 L81,12 L81,10 L41,10 L41,12 L19,12 L19,10 L11,10 L11,8 L7,8 L7,6 L3,6 L3,4 L-1,3 L3,3 L3,1 Z " fill="#8B85AA" transform="translate(335,696)"/>
<path d="M0,0 L6,0 L6,1 L1,1 L1,3 L7,3 L7,4 L1,4 L1,6 L-1,6 L-1,8 L-5,8 L-5,12 L-7,12 L-7,14 L-9,14 L-9,32 L-7,32 L-7,36 L-5,36 L-5,44 L-3,44 L-3,50 L-1,50 L-1,68 L1,68 L1,76 L3,76 L3,96 L1,96 L1,100 L-1,100 L-2,104 L-7,100 L-8,102 L-8,98 L-5,98 L-6,80 L-7,74 L-7,65 L-10,64 L-13,49 L-13,19 L-15,19 L-14,14 L-12,10 L-10,10 L-9,6 L-7,6 L-6,3 Z " fill="#8D9DAE" transform="translate(719,574)"/>
<path d="M0,0 L1,0 L1,9 L6,9 L8,15 L11,23 L11,28 L17,33 L19,31 L20,34 L23,34 L23,36 L26,37 L26,39 L29,40 L29,45 L34,55 L37,56 L37,59 L40,60 L40,74 L36,82 L33,87 L30,98 L25,105 L24,117 L22,117 L22,112 L20,116 L15,119 L8,124 L-2,125 L-2,123 L-17,123 L-17,125 L-8,125 L-8,126 L-18,126 L-25,125 L-25,127 L-18,127 L-18,128 L-26,129 L-26,127 L-36,127 L-36,126 L-26,126 L-26,124 L-18,124 L-18,122 L-2,122 L-2,120 L6,120 L6,118 L10,118 L12,114 L16,112 L16,110 L18,110 L18,108 L20,108 L20,102 L22,102 L22,96 L26,96 L26,92 L28,92 L28,84 L30,84 L30,80 L32,80 L32,78 L34,78 L34,74 L36,74 L36,60 L30,60 L30,56 L28,56 L28,52 L26,52 L26,48 L24,48 L24,40 L22,40 L22,38 L14,38 L10,34 L10,32 L6,32 L6,22 L4,22 L4,16 L2,16 L2,10 L0,10 Z M25,39 Z " fill="#66679B" transform="translate(526,518)"/>
<path d="M0,0 L4,0 L4,6 L6,6 L6,10 L8,10 L8,14 L10,14 L10,18 L14,20 L14,22 L16,22 L16,28 L20,28 L20,46 L24,46 L24,52 L20,52 L20,64 L18,64 L18,76 L16,76 L16,80 L14,80 L14,84 L12,84 L12,94 L10,94 L10,100 L8,100 L8,106 L7,106 L7,100 L5,100 L5,106 L3,107 L3,96 L7,75 L9,69 L10,64 L10,51 L12,48 L12,33 L14,33 L14,29 L12,29 L11,24 L9,23 L9,21 L7,21 L0,7 L1,3 L1,6 L3,6 L3,1 Z " fill="#8680AD" transform="translate(344,496)"/>
<path d="M0,0 L1,3 L6,3 L6,13 L8,14 L7,21 L12,21 L12,29 L14,29 L14,32 L16,31 L16,37 L21,38 L21,46 L23,46 L27,50 L27,54 L31,54 L31,58 L33,58 L33,60 L35,60 L35,64 L37,64 L37,66 L41,66 L41,70 L43,70 L43,72 L47,72 L51,77 L57,78 L57,80 L63,80 L65,83 L69,84 L71,87 L75,88 L75,98 L74,98 L74,89 L72,89 L71,92 L66,89 L66,87 L68,87 L68,85 L63,87 L62,86 L62,81 L57,81 L57,83 L45,81 L41,80 L41,82 L38,81 L38,76 L34,73 L33,73 L33,68 L31,67 L31,65 L29,64 L27,59 L25,60 L23,59 L23,56 L19,55 L18,53 L18,47 L15,47 L15,49 L10,48 L8,43 L10,32 L7,32 L6,28 L5,33 L3,33 L2,20 L0,19 L0,8 L-2,8 L-2,2 Z M51,79 L50,81 L56,81 L56,79 Z " fill="#868EAC" transform="translate(673,460)"/>
<path d="M0,0 L2,0 L0,4 L-1,8 L3,8 L3,18 L-1,21 L-1,10 L-5,12 L-5,18 L-7,20 L-7,25 L-5,27 L-9,31 L-12,31 L-13,38 L-12,42 L-13,48 L-10,49 L-10,51 L-12,51 L-14,58 L-15,54 L-18,54 L-20,50 L-23,38 L-21,18 L-20,12 L-17,12 L-15,7 L-12,7 L-9,8 L-8,4 L-2,2 Z " fill="#A1A0BF" transform="translate(297,562)"/>
<path d="M0,0 L4,1 L1,1 L1,3 L3,3 L1,7 L-2,19 L-3,20 L-3,32 L-3,35 L-6,41 L-7,50 L-5,50 L-4,70 L-5,74 L-5,82 L-6,84 L-10,86 L-12,90 L-18,95 L-19,93 L-21,93 L-21,95 L-23,95 L-23,102 L-24,102 L-24,94 L-22,94 L-22,92 L-20,92 L-20,84 L-18,84 L-18,82 L-16,82 L-16,76 L-14,76 L-14,70 L-12,70 L-12,40 L-10,40 L-10,36 L-8,36 L-8,16 L-6,16 L-6,10 L-4,10 L-4,2 L0,2 Z " fill="#8787A2" transform="translate(294,474)"/>
<path d="M0,0 L4,2 L2,2 L2,6 L0,6 L0,8 L-2,8 L-2,10 L-6,10 L-6,12 L-8,12 L-8,14 L-12,14 L-12,16 L-14,16 L-14,18 L-18,18 L-18,20 L-20,20 L-20,22 L-28,29 L-32,34 L-34,34 L-34,38 L-36,38 L-36,40 L-40,44 L-42,44 L-42,48 L-46,48 L-46,50 L-48,50 L-48,54 L-52,54 L-52,56 L-54,56 L-54,58 L-61,64 L-62,66 L-66,66 L-66,68 L-70,68 L-70,70 L-74,70 L-74,72 L-78,72 L-78,74 L-94,74 L-94,72 L-106,72 L-106,70 L-110,69 L-106,69 L-106,66 L-109,65 L-104,64 L-104,66 L-98,66 L-94,69 L-105,69 L-105,71 L-94,70 L-93,69 L-79,69 L-75,71 L-75,69 L-78,68 L-71,69 L-71,67 L-74,66 L-72,66 L-72,63 L-67,62 L-66,59 L-64,59 L-64,57 L-61,57 L-60,53 L-57,53 L-55,49 L-49,48 L-47,49 L-48,46 L-43,47 L-44,42 L-42,42 L-41,38 L-40,37 L-35,37 L-36,32 L-34,32 L-34,29 L-32,29 L-32,27 L-30,27 L-28,21 L-26,21 L-26,16 L-22,15 L-20,11 L-16,8 L-7,11 L-8,8 L-3,9 L-3,7 L-5,6 L-1,3 L-1,5 L1,5 Z " fill="#818DA8" transform="translate(712,678)"/>
<path d="M0,0 L1,4 L-1,8 L-1,20 L-3,30 L-4,31 L-8,52 L-8,62 L-7,56 L-5,56 L-4,62 L-1,63 L-1,67 L-3,67 L-3,65 L-7,65 L-8,75 L-8,88 L-10,89 L-11,87 L-15,89 L-16,83 L-15,54 L-13,52 L-11,42 L-11,37 L-10,36 L-10,8 L-9,6 L-7,6 L-6,4 L-5,7 L-3,7 L-2,3 Z M-13,46 Z " fill="#8B85AF" transform="translate(356,540)"/>
<path d="M0,0 L1,3 L5,3 L7,13 L9,14 L10,23 L11,29 L11,47 L8,47 L7,52 L6,54 L-1,55 L-3,59 L-10,59 L-12,61 L-19,62 L-23,68 L-27,81 L-32,90 L-35,90 L-35,92 L-37,93 L-38,96 L-42,98 L-46,97 L-41,92 L-38,91 L-38,88 L-36,88 L-36,86 L-34,86 L-33,79 L-31,77 L-29,71 L-26,71 L-25,65 L-22,65 L-21,59 L-13,55 L-11,54 L-7,52 L-2,50 L2,50 L3,45 L5,37 L3,15 L2,8 L0,7 Z M-1,7 Z " fill="#94A2B7" transform="translate(703,625)"/>
<path d="M0,0 L3,0 L3,3 L-1,3 L-1,5 L-17,11 L-18,12 L-30,13 L-32,14 L-46,16 L-56,16 L-56,18 L-59,20 L-63,20 L-66,29 L-67,31 L-70,31 L-70,33 L-72,34 L-73,38 L-77,40 L-80,40 L-79,35 L-81,35 L-80,31 L-82,30 L-77,27 L-73,27 L-71,18 L-66,18 L-66,16 L-57,11 L-48,11 L-38,8 L-26,6 L-18,6 L-18,4 L-6,2 Z M-80,30 Z " fill="#9F8DBD" transform="translate(594,369)"/>
<path d="M0,0 L7,1 L10,2 L12,6 L11,11 L21,10 L37,10 L43,11 L56,11 L71,15 L71,16 L76,17 L76,19 L90,21 L90,23 L99,21 L104,19 L109,19 L105,22 L102,22 L101,25 L84,25 L84,23 L79,23 L79,21 L69,21 L69,19 L60,16 L55,15 L49,15 L44,14 L35,17 L19,17 L16,16 L13,16 L13,14 L8,15 L7,14 L0,13 L-1,12 L-1,2 L-4,1 Z M41,10 Z " fill="#8E95AF" transform="translate(533,720)"/>
<path d="M0,0 L9,0 L10,3 L15,4 L15,7 L17,7 L18,0 L24,0 L24,2 L28,3 L27,8 L27,14 L31,16 L42,17 L46,18 L48,18 L48,20 L46,21 L46,23 L37,23 L37,25 L46,24 L98,24 L98,25 L47,25 L47,27 L104,26 L104,27 L99,27 L99,29 L104,29 L104,30 L98,30 L98,28 L46,28 L46,26 L36,26 L36,24 L28,24 L28,20 L26,20 L26,18 L22,18 L22,16 L17,15 L14,12 L14,10 L9,9 L8,6 L0,6 L0,4 L-6,4 L-6,3 L0,3 Z " fill="#7F839E" transform="translate(498,716)"/>
<path d="M0,0 L1,0 L1,8 L-4,9 L-5,14 L-8,17 L-10,17 L-12,21 L-17,25 L-22,27 L-28,31 L-39,31 L-47,29 L-47,27 L-51,27 L-51,25 L-56,23 L-56,21 L-61,19 L-61,17 L-65,18 L-69,17 L-93,17 L-102,18 L-105,16 L-100,12 L-87,13 L-87,11 L-83,12 L-83,14 L-79,12 L-76,9 L-69,8 L-69,11 L-64,10 L-56,13 L-56,16 L-52,17 L-51,24 L-48,23 L-48,25 L-45,25 L-45,27 L-32,27 L-30,28 L-29,26 L-24,23 L-20,19 L-13,15 L-10,15 L-9,12 L-7,12 L-6,8 L-4,8 L-3,4 Z " fill="#9FAAC0" transform="translate(663,704)"/>
<path d="M0,0 L6,0 L6,2 L12,2 L12,4 L16,4 L16,6 L22,6 L22,8 L30,8 L30,10 L36,10 L36,13 L39,13 L40,15 L47,15 L47,17 L41,18 L42,20 L51,23 L52,25 L55,27 L55,29 L50,30 L48,28 L38,27 L38,21 L30,21 L18,17 L18,15 L14,15 L14,11 L6,11 L2,10 L0,7 L-4,5 L0,5 L0,3 L-4,2 L0,2 Z " fill="#8077AC" transform="translate(366,628)"/>
<path d="M0,0 L4,0 L4,2 L12,2 L12,4 L18,4 L18,6 L24,6 L24,8 L28,8 L28,10 L46,10 L46,12 L48,12 L48,10 L60,10 L60,8 L64,8 L64,6 L88,6 L88,7 L65,7 L65,9 L88,9 L88,10 L64,11 L64,9 L61,9 L61,11 L63,11 L63,13 L55,15 L54,17 L49,16 L46,19 L41,18 L36,19 L30,18 L30,16 L24,16 L15,13 L15,11 L6,9 L4,5 L11,5 L11,3 L1,4 L3,3 L3,1 Z " fill="#7B70AC" transform="translate(402,640)"/>
<path d="M0,0 L20,0 L22,1 L22,3 L29,3 L37,6 L39,19 L41,23 L41,41 L39,51 L38,51 L38,22 L36,22 L36,19 L33,18 L35,12 L31,13 L22,10 L18,8 L17,5 L15,8 L6,7 L6,5 L3,5 L1,7 L-9,8 L-10,11 L-14,12 L-14,5 L-8,4 L-8,2 Z M26,9 Z M0,7 Z M33,46 L34,46 L35,51 L38,52 L36,57 L34,58 L33,53 L32,51 Z " fill="#A3A1BE" transform="translate(638,349)"/>
<path d="M0,0 L10,1 L8,4 L-6,4 L-10,5 L-30,6 L-38,7 L-39,11 L-48,19 L-50,19 L-51,26 L-54,30 L-56,30 L-56,35 L-58,41 L-58,44 L-61,47 L-62,52 L-66,54 L-66,48 L-64,47 L-64,45 L-66,45 L-65,37 L-62,36 L-61,32 L-59,28 L-60,25 L-61,22 L-58,22 L-58,20 L-55,20 L-54,14 L-52,14 L-51,9 L-44,7 L-44,5 L-20,2 L-18,1 Z " fill="#A796C4" transform="translate(582,380)"/>
<path d="M0,0 L1,3 L3,3 L4,1 L4,3 L7,3 L5,9 L10,8 L10,10 L7,10 L7,15 L10,15 L11,13 L14,19 L17,20 L23,30 L23,32 L25,32 L25,34 L27,34 L29,38 L30,40 L36,42 L40,46 L42,47 L42,50 L47,51 L50,53 L50,55 L45,55 L46,56 L52,56 L48,58 L52,60 L46,60 L44,56 L38,56 L32,50 L32,48 L28,48 L21,40 L16,36 L14,31 L12,30 L12,24 L10,24 L10,20 L8,20 L8,16 L6,16 L6,10 L4,10 L2,5 L0,4 Z " fill="#8B84A9" transform="translate(282,638)"/>
<path d="M0,0 L2,4 L0,9 L-3,14 L-6,14 L-7,28 L-8,40 L-4,56 L-1,56 L-1,60 L1,60 L3,64 L3,69 L9,70 L9,68 L11,68 L11,71 L9,71 L11,74 L11,80 L9,78 L9,74 L5,74 L5,72 L-1,73 L-2,75 L-4,75 L-3,69 L-6,60 L-8,55 L-10,54 L-10,59 L-12,59 L-12,45 L-13,16 L-12,9 L-10,9 L-10,7 L-7,8 L-3,4 L-1,4 Z " fill="#9896B0" transform="translate(283,560)"/>
<path d="M0,0 L6,0 L6,1 L1,1 L1,3 L6,3 L3,5 L3,9 L-3,12 L-4,14 L-6,14 L-6,19 L-16,23 L-20,27 L-27,28 L-28,29 L-40,30 L-38,28 L-49,27 L-49,25 L-36,25 L-36,22 L-32,22 L-32,20 L-26,20 L-26,18 L-24,18 L-24,16 L-18,16 L-16,12 L-14,12 L-14,10 L-10,10 L-8,6 L-6,6 L-6,4 L-2,4 L-2,2 L0,2 Z M4,5 Z " fill="#9386AD" transform="translate(610,342)"/>
<path d="M0,0 L2,3 L-2,9 L-6,11 L-10,18 L-20,21 L-32,24 L-38,24 L-38,26 L-62,30 L-68,32 L-78,32 L-84,36 L-86,36 L-86,38 L-93,37 L-96,38 L-96,36 L-89,35 L-86,35 L-86,31 L-82,32 L-82,30 L-79,28 L-76,28 L-76,26 L-66,25 L-48,25 L-48,23 L-32,21 L-31,20 L-22,19 L-20,15 L-12,12 L-10,12 L-10,7 L-8,7 L-7,4 L-1,1 Z " fill="#978AB2" transform="translate(614,349)"/>
<path d="M0,0 L0,3 L-2,9 L-2,13 L-6,14 L-9,17 L-13,17 L-13,19 L-33,18 L-39,16 L-40,12 L-45,12 L-45,9 L-43,9 L-43,7 L-38,9 L-37,7 L-32,8 L-31,12 L-27,11 L-27,9 L-18,8 L-13,8 L-9,8 L-7,8 L-6,3 L-3,3 L-3,1 Z " fill="#AEBAD0" transform="translate(649,703)"/>
<path d="M0,0 L3,0 L3,2 L5,2 L5,0 L9,1 L8,5 L1,6 L1,8 L-3,8 L-21,8 L-22,11 L-30,12 L-32,14 L-43,13 L-43,16 L-50,17 L-51,18 L-58,18 L-58,16 L-52,15 L-57,13 L-58,6 L-59,4 L-53,5 L-53,7 L-36,8 L-27,7 L-27,5 L-25,4 L-13,4 L-5,2 L-5,5 L-3,5 L-2,2 L0,2 Z M-5,1 Z " fill="#938DB0" transform="translate(405,687)"/>
<path d="M0,0 L6,0 L14,5 L14,7 L19,5 L24,5 L24,7 L30,8 L33,9 L33,11 L38,11 L38,13 L42,13 L42,15 L40,15 L40,17 L44,17 L46,21 L40,20 L40,18 L32,18 L29,16 L14,13 L13,10 L11,10 L11,12 L9,14 L8,17 L0,16 L1,11 L5,8 L8,8 L8,6 L3,7 L0,5 Z " fill="#9288B9" transform="translate(356,640)"/>
<path d="M0,0 L6,2 L8,1 L11,10 L13,10 L13,20 L10,31 L9,44 L5,54 L2,55 L1,62 L-2,66 L-4,65 L-1,55 L2,49 L5,48 L4,30 L3,29 L3,21 L4,18 L4,8 L0,6 L-1,3 Z " fill="#9495B1" transform="translate(678,354)"/>
<path d="M0,0 L1,3 L-1,4 Z M-4,3 L-1,5 L-1,7 L5,4 L3,11 L1,11 L0,21 L-3,26 L-4,33 L-9,39 L-15,44 L-19,48 L-23,48 L-23,46 L-19,45 L-18,38 L-15,37 L-15,33 L-13,32 L-12,29 L-15,30 L-15,24 L-12,21 L-15,21 L-15,17 L-8,17 L-3,16 L-3,5 L-5,4 Z " fill="#A2ACCE" transform="translate(671,667)"/>
<path d="M0,0 L1,4 L-1,4 L-1,12 L-3,12 L-3,14 L-5,14 L-5,22 L-7,22 L-7,46 L-5,46 L-5,56 L-3,56 L-3,58 L-1,58 L-1,64 L1,64 L1,72 L3,72 L3,74 L5,74 L5,80 L7,80 L6,82 L3,82 L3,76 L1,80 L2,73 L-1,74 L0,65 L-2,65 L-2,72 L-3,72 L-3,65 L-5,65 L-5,58 L-7,58 L-6,47 L-8,47 L-8,56 L-9,56 L-9,47 L-11,47 L-11,23 L-13,22 L-11,22 L-12,13 L-10,10 L-8,10 L-8,5 L-6,3 L-3,3 L-2,1 L-2,3 L0,3 Z " fill="#8687A6" transform="translate(685,416)"/>
<path d="M0,0 L2,1 L2,3 L5,4 L6,12 L11,13 L12,17 L14,17 L14,21 L18,21 L19,25 L31,28 L31,26 L35,26 L35,28 L37,29 L36,31 L40,31 L41,36 L48,37 L48,44 L53,45 L54,47 L49,47 L49,45 L47,45 L47,42 L45,42 L45,44 L39,45 L39,43 L41,43 L41,41 L38,41 L38,43 L34,43 L34,41 L29,41 L30,39 L27,39 L27,37 L32,37 L32,35 L28,33 L24,32 L24,29 L19,27 L18,24 L12,22 L9,20 L9,16 L7,16 L7,14 L5,14 L-1,4 Z " fill="#918AAF" transform="translate(300,656)"/>
<path d="M0,0 L22,0 L22,2 L30,2 L30,4 L34,4 L34,6 L40,6 L42,9 L48,10 L50,13 L54,14 L54,16 L58,16 L62,21 L64,22 L64,28 L66,28 L66,38 L68,38 L68,44 L67,44 L67,39 L65,39 L64,43 L65,29 L63,29 L63,38 L61,34 L61,32 L59,32 L58,23 L54,21 L54,19 L57,19 L57,17 L50,18 L53,17 L53,15 L47,17 L46,15 L42,13 L47,13 L47,11 L38,13 L38,10 L34,9 L39,9 L39,7 L30,8 L33,7 L33,5 L27,6 L29,5 L29,3 L22,4 L0,4 L-7,3 L-7,5 L0,5 L-2,8 L-7,9 L-11,7 L-11,9 L-14,10 L-14,8 L-12,8 L-12,6 L-8,6 L-8,2 L0,2 Z " fill="#817E99" transform="translate(630,332)"/>
<path d="M0,0 L1,0 L1,8 L3,8 L7,12 L7,16 L11,16 L11,20 L13,20 L13,22 L15,22 L15,26 L17,26 L17,28 L21,28 L21,32 L23,32 L23,34 L27,34 L31,39 L37,40 L37,42 L43,42 L45,45 L49,46 L51,49 L55,50 L55,60 L54,60 L54,51 L52,51 L51,54 L46,51 L46,49 L48,49 L48,47 L43,49 L42,48 L42,43 L37,43 L37,45 L25,43 L21,42 L21,44 L18,43 L18,38 L14,35 L13,35 L13,30 L11,29 L11,27 L9,26 L10,17 L5,19 L6,13 L4,13 L3,17 L2,13 L0,13 L1,10 L-1,8 Z M31,41 L30,43 L36,43 L36,41 Z " fill="#8C97AA" transform="translate(693,498)"/>
<path d="M0,0 L16,0 L16,2 L24,2 L30,9 L32,10 L32,20 L34,20 L34,26 L36,26 L35,30 L35,27 L33,27 L32,31 L32,29 L30,29 L29,23 L28,23 L27,13 L23,8 L19,6 L19,8 L16,9 L10,5 L8,7 L10,8 L4,9 L2,7 L3,5 L-5,9 L-7,9 L-7,5 L-9,5 L-10,8 L-10,4 L-6,4 L-6,2 L0,2 Z " fill="#8781AB" transform="translate(308,466)"/>
<path d="M0,0 L2,1 L0,2 Z M-16,2 L0,2 L0,5 L-1,9 L-1,14 L-6,15 L-12,14 L-20,17 L-23,20 L-22,22 L-26,24 L-27,19 L-30,21 L-31,16 L-30,14 L-25,14 L-25,12 L-23,11 L-24,8 L-20,8 L-18,4 Z M-22,10 Z " fill="#9195C7" transform="translate(622,624)"/>
<path d="M0,0 L5,1 L6,4 L7,8 L19,9 L19,13 L23,13 L23,15 L28,16 L35,18 L43,19 L45,27 L39,26 L37,25 L37,23 L33,23 L33,21 L28,21 L28,19 L23,19 L23,17 L19,17 L19,15 L13,17 L9,17 L5,13 L1,11 L-5,10 L-4,6 L-3,1 Z " fill="#877EAB" transform="translate(361,630)"/>
<path d="M0,0 L3,1 L4,36 L3,43 L5,43 L5,38 L8,39 L12,49 L13,55 L11,59 L13,59 L14,57 L15,60 L12,61 L10,60 L8,55 L6,54 L6,48 L4,48 L4,44 L2,44 L2,36 L0,36 L0,30 L-2,30 L-2,2 L0,2 Z " fill="#8B8CA0" transform="translate(268,576)"/>
<path d="M0,0 L1,0 L1,8 L3,8 L3,14 L5,14 L5,32 L7,32 L7,40 L9,40 L9,60 L7,60 L7,64 L5,64 L4,68 L3,61 L4,63 L6,63 L4,57 L4,41 L5,40 L6,33 L4,33 L4,40 L3,40 L3,33 L1,33 L-3,14 L-4,10 L-3,3 L-2,3 L-2,8 L0,8 Z " fill="#8A9AAA" transform="translate(713,610)"/>
<path d="M0,0 L1,2 L24,1 L30,2 L31,8 L33,9 L34,13 L39,19 L39,27 L35,27 L35,18 L31,17 L24,10 L24,8 L20,8 L20,6 L0,6 L0,8 L-4,8 L-4,10 L-10,10 L-10,9 L-5,9 L-6,4 L0,2 Z " fill="#7275AB" transform="translate(492,500)"/>
<path d="M0,0 L0,3 L-1,5 L-8,6 L-10,10 L-17,10 L-19,12 L-26,13 L-30,19 L-34,32 L-39,41 L-42,41 L-42,43 L-44,44 L-45,47 L-49,49 L-53,48 L-48,43 L-45,42 L-45,39 L-43,39 L-43,37 L-41,37 L-40,30 L-38,28 L-36,22 L-33,22 L-32,16 L-29,16 L-28,10 L-20,6 L-10,4 Z " fill="#8F9BB6" transform="translate(710,674)"/>
<path d="M0,0 L6,1 L6,3 L4,3 L4,5 L10,4 L10,2 L12,2 L12,5 L14,5 L14,7 L12,7 L12,9 L19,8 L81,8 L92,7 L92,10 L94,11 L92,11 L92,13 L121,13 L121,14 L91,14 L91,12 L81,12 L81,10 L41,10 L41,12 L19,12 L19,10 L11,10 L11,8 L7,8 L7,6 L3,6 L3,4 L-1,3 L3,3 L3,1 Z " fill="#8680A0" transform="translate(335,696)"/>
<path d="M0,0 L4,0 L4,6 L6,6 L6,10 L8,10 L8,14 L10,14 L10,18 L14,20 L14,22 L16,22 L16,28 L20,28 L20,46 L24,46 L24,52 L20,52 L20,64 L19,64 L19,51 L17,51 L17,47 L19,47 L19,29 L17,29 L17,45 L15,45 L13,42 L12,33 L14,33 L14,29 L12,29 L11,24 L9,23 L9,21 L7,21 L0,7 L1,3 L1,6 L3,6 L3,1 Z " fill="#7B769C" transform="translate(344,496)"/>
<path d="M0,0 L1,0 L1,7 L3,7 L3,0 L4,0 L6,7 L7,12 L6,37 L4,37 L3,39 L3,37 L1,37 L1,40 L3,40 L2,62 L-2,64 L-3,60 L-3,48 L-2,40 L0,40 L0,36 L2,36 L2,8 L0,8 Z " fill="#82719F" transform="translate(462,406)"/>
<path d="M0,0 L4,1 L1,1 L1,6 L3,6 L4,3 L2,21 L0,21 L0,16 L-2,20 L-7,23 L-14,28 L-24,29 L-24,27 L-39,27 L-39,29 L-30,29 L-30,30 L-40,30 L-47,29 L-47,31 L-40,31 L-40,32 L-48,33 L-48,31 L-58,31 L-58,30 L-48,30 L-48,28 L-40,28 L-40,26 L-24,26 L-24,24 L-16,24 L-16,22 L-12,22 L-10,18 L-6,16 L-6,14 L-4,14 L-4,12 L-2,12 L-2,6 L0,6 Z " fill="#65659B" transform="translate(548,614)"/>
<path d="M0,0 L3,0 L3,3 L-1,3 L-1,5 L-8,8 L-19,9 L-20,10 L-40,11 L-44,14 L-56,15 L-63,19 L-64,21 L-70,21 L-70,24 L-72,24 L-71,18 L-66,18 L-66,16 L-57,11 L-48,11 L-38,8 L-26,6 L-18,6 L-18,4 L-6,2 Z " fill="#9C8DB8" transform="translate(594,369)"/>
<path d="M0,0 L2,1 L2,10 L6,14 L5,17 L-5,17 L-9,22 L-17,23 L-19,24 L-19,17 L-14,16 L-11,17 L-11,6 L-5,6 L-3,7 L-3,1 Z " fill="#8A8DC0" transform="translate(611,610)"/>
<path d="M0,0 L10,0 L10,3 L16,3 L18,4 L18,7 L24,7 L24,9 L8,9 L8,7 L-9,8 L-10,9 L-16,9 L-16,13 L-24,13 L-18,6 L-15,4 L-8,4 L-5,1 Z " fill="#9793B0" transform="translate(640,338)"/>
<path d="M0,0 L2,0 L3,3 L4,0 L6,0 L7,9 L3,16 L8,16 L7,18 L6,28 L3,28 L1,26 L-4,31 L-4,16 L-3,14 L-5,14 L-5,11 L0,11 Z " fill="#877AAB" transform="translate(468,432)"/>
<path d="M0,0 L22,0 L30,1 L30,3 L35,5 L35,7 L40,9 L40,11 L44,11 L44,13 L52,14 L58,15 L56,17 L47,17 L42,15 L39,12 L34,11 L32,8 L25,7 L20,7 L20,5 L0,4 Z " fill="#9BA2BC" transform="translate(572,720)"/>
<path d="M0,0 L1,0 L1,16 L0,17 L-2,28 L-5,28 L-7,28 L-9,32 L-13,33 L-12,25 L-10,22 L-9,16 L-8,12 L-5,12 L-4,3 L0,2 Z " fill="#9994BC" transform="translate(338,576)"/>
<path d="M0,0 L1,0 L2,20 L1,24 L1,32 L0,34 L-4,36 L-6,40 L-12,45 L-13,43 L-15,43 L-15,45 L-17,45 L-17,52 L-18,52 L-18,44 L-16,44 L-16,42 L-14,42 L-14,34 L-12,34 L-12,32 L-9,32 L-9,27 L-7,27 L-6,29 L-3,22 L-1,19 Z " fill="#8F8EAC" transform="translate(288,524)"/>
<path d="M0,0 L1,3 L3,3 L4,1 L4,3 L7,3 L5,9 L10,8 L10,10 L7,10 L7,15 L10,15 L11,13 L14,19 L17,20 L23,30 L23,32 L25,32 L25,34 L27,34 L29,38 L30,40 L36,42 L37,45 L32,47 L29,47 L29,45 L33,45 L33,43 L29,43 L29,41 L27,41 L25,37 L23,37 L22,33 L20,33 L19,29 L15,29 L13,29 L13,24 L10,24 L10,20 L8,20 L8,16 L6,16 L6,10 L4,10 L2,5 L0,4 Z " fill="#8C85AC" transform="translate(282,638)"/>
<path d="M0,0 L4,1 L4,3 L7,2 L12,3 L13,7 L39,10 L39,8 L45,7 L46,4 L51,3 L50,7 L47,7 L47,9 L42,12 L38,13 L38,15 L27,15 L27,13 L18,13 L14,11 L14,9 L10,8 L10,5 L3,4 L0,2 Z " fill="#A9B4CA" transform="translate(597,712)"/>
<path d="M0,0 L16,0 L28,1 L28,4 L34,6 L34,8 L39,9 L48,11 L49,12 L56,13 L54,15 L47,15 L47,13 L38,13 L33,11 L33,9 L27,9 L24,7 L13,4 L-2,4 Z " fill="#929AB4" transform="translate(576,728)"/>
<path d="M0,0 L11,0 L10,2 L7,3 L7,6 L2,8 L2,10 L-5,11 L-14,11 L-14,3 L-6,1 Z M-13,4 Z " fill="#AEA0CC" transform="translate(562,387)"/>
<path d="M0,0 L6,0 L6,1 L1,1 L1,3 L7,3 L7,4 L1,4 L1,6 L-1,6 L-1,8 L-5,8 L-5,12 L-7,12 L-7,14 L-9,14 L-9,32 L-7,32 L-8,36 L-8,33 L-10,33 L-11,35 L-11,33 L-13,33 L-13,19 L-15,19 L-14,14 L-12,10 L-10,10 L-9,6 L-7,6 L-6,3 Z " fill="#818DA1" transform="translate(719,574)"/>
<path d="M0,0 L2,1 L5,2 L5,8 L1,9 L-1,14 L-5,17 L-5,22 L-7,22 L-4,32 L-3,44 L-2,47 L1,48 L-1,52 L-1,48 L-4,48 L-6,44 L-9,32 L-7,12 L-6,6 L-3,6 L-1,1 Z " fill="#9C9BB6" transform="translate(283,568)"/>
<path d="M0,0 Z M-2,1 L0,2 L-2,3 Z M-13,2 L-6,2 L-2,4 L-7,9 L-10,10 L-15,10 L-17,12 L-24,13 L-26,14 L-26,11 L-28,10 L-28,8 L-34,11 L-38,9 L-34,9 L-34,7 L-27,5 L-24,4 L-14,3 Z " fill="#7370AE" transform="translate(530,644)"/>
<path d="M0,0 L3,0 L3,14 L-1,22 L-4,27 L-7,38 L-11,43 L-14,42 L-14,37 L-11,37 L-11,32 L-9,32 L-9,24 L-7,24 L-7,20 L-5,20 L-5,18 L-3,18 L-3,14 L0,14 Z M-12,43 Z " fill="#68699C" transform="translate(563,578)"/>
<path d="M0,0 L6,0 L6,1 L1,1 L1,3 L6,3 L3,5 L3,9 L0,11 L-7,11 L-7,13 L-13,11 L-13,17 L-18,18 L-23,17 L-23,19 L-18,19 L-20,20 L-20,22 L-31,21 L-31,23 L-29,24 L-36,23 L-32,22 L-32,20 L-26,20 L-26,18 L-24,18 L-24,16 L-18,16 L-16,12 L-14,12 L-14,10 L-10,10 L-8,6 L-6,6 L-6,4 L-2,4 L-2,2 L0,2 Z M4,5 Z " fill="#928AAC" transform="translate(610,342)"/>
<path d="M0,0 L5,2 L3,3 L2,6 L-10,8 L-10,10 L-19,12 L-27,12 L-32,11 L-29,8 L-23,7 L-22,4 L-4,4 L-3,1 Z " fill="#9891B9" transform="translate(388,684)"/>
<path d="M0,0 L3,0 L3,2 L5,2 L5,0 L9,1 L8,5 L1,6 L1,8 L-3,8 L-24,9 L-36,9 L-36,8 L-27,7 L-27,5 L-25,4 L-13,4 L-5,2 L-5,5 L-3,5 L-2,2 L0,2 Z M-5,1 Z " fill="#938BB8" transform="translate(405,687)"/>
<path d="M0,0 L9,3 L9,5 L11,5 L11,1 L13,1 L13,5 L15,5 L15,2 L17,2 L17,10 L13,11 L12,9 L11,11 L5,11 L5,6 L1,7 L1,5 L-3,7 L-8,6 L-11,7 L-12,6 L-13,8 L-15,8 L-15,2 L-5,3 Z " fill="#908FB9" transform="translate(491,694)"/>
<path d="M0,0 L4,0 L4,2 L10,2 L14,5 L3,5 L3,7 L14,6 L15,5 L29,5 L33,7 L33,5 L30,4 L37,5 L37,3 L34,2 L42,3 L38,4 L38,6 L34,6 L34,8 L30,8 L30,10 L14,10 L14,8 L2,8 L2,6 L-2,5 L2,5 L2,2 L-1,1 Z " fill="#7A859B" transform="translate(604,742)"/>
<path d="M0,0 L4,0 L3,5 L0,9 L-2,16 L-3,18 L-4,26 L-7,27 L-7,34 L-11,40 L-12,40 L-12,30 L-10,28 L-9,21 L-6,16 L-4,6 L-2,6 Z " fill="#99A2C9" transform="translate(676,672)"/>
<path d="M0,0 L4,2 L3,6 L-1,6 L-1,8 L-3,8 L-3,10 L-10,16 L-11,18 L-19,19 L-21,18 L-21,15 L-16,14 L-15,11 L-13,11 L-13,9 L-10,9 L-9,5 L-6,5 L-4,1 Z " fill="#8995AA" transform="translate(661,726)"/>
<path d="M0,0 L4,1 L4,3 L9,1 L17,1 L26,4 L26,6 L22,7 L18,6 L-6,6 L-15,7 L-18,5 L-13,1 L0,2 Z " fill="#9EA4C0" transform="translate(576,715)"/>
<path d="M0,0 L1,0 L1,12 L-1,12 L-1,16 L-3,16 L-3,20 L-5,20 L-5,30 L-7,30 L-7,36 L-9,36 L-9,42 L-10,42 L-10,36 L-12,36 L-12,42 L-14,43 L-14,32 L-12,23 L-10,20 L-8,20 L-8,29 L-6,29 L-7,15 L-5,15 L-4,12 L-4,15 L-2,15 L-3,9 L-2,11 L0,11 Z " fill="#8681A9" transform="translate(361,560)"/>
<path d="M0,0 L2,3 L3,14 L-1,25 L-14,29 L-19,28 L-20,26 L-15,23 L-12,23 L-12,25 L-6,25 L-5,15 L-2,11 L-1,1 Z " fill="#99A7BE" transform="translate(706,650)"/>
<path d="M0,0 L2,1 L2,3 L4,3 L4,6 L8,5 L11,7 L12,9 L18,10 L18,12 L13,13 L10,11 L5,11 L0,16 L3,18 L-4,19 L-9,14 L-4,14 L-4,9 L0,9 Z " fill="#A49ECD" transform="translate(532,442)"/>
<path d="M0,0 L4,0 L4,2 L10,3 L13,1 L13,4 L18,3 L19,4 L27,4 L27,6 L29,7 L16,7 L16,9 L29,9 L29,10 L15,10 L15,8 L7,8 L7,6 L-3,6 L-3,4 L-7,3 L-3,3 L-3,1 Z " fill="#7F7F9D" transform="translate(463,708)"/>
<path d="M0,0 L16,0 L16,2 L21,3 L28,5 L36,6 L38,14 L32,13 L30,12 L30,10 L26,10 L26,8 L21,8 L21,6 L16,6 L16,4 L12,4 L12,2 L6,4 L2,4 Z " fill="#857BB5" transform="translate(368,643)"/>
<path d="M0,0 L1,0 L1,24 L3,24 L3,34 L5,34 L5,36 L7,36 L7,42 L9,42 L9,50 L11,50 L11,52 L13,52 L13,58 L15,58 L14,60 L11,60 L11,54 L9,58 L10,51 L7,52 L8,43 L6,43 L6,50 L5,50 L5,43 L3,43 L3,36 L1,36 L2,25 L0,25 L0,34 L-1,34 L-1,25 L-3,25 L-3,1 L-2,1 L-2,24 L0,24 Z " fill="#727994" transform="translate(677,438)"/>
<path d="M0,0 L1,0 L1,16 L0,18 L-1,24 L-6,33 L-7,33 L-7,15 L-4,9 L-2,8 L-1,1 Z " fill="#928DB6" transform="translate(346,560)"/>
<path d="M0,0 L2,1 L2,3 L4,3 L4,16 L1,24 L-1,32 L-2,32 L-3,15 L-3,4 L-2,2 L0,2 Z " fill="#908BB4" transform="translate(349,544)"/>
<path d="M0,0 L14,0 L14,1 L1,1 L1,3 L14,3 L10,6 L6,6 L6,8 L-6,8 L-6,5 L-46,5 L-46,4 L-6,4 L-6,2 L0,2 Z " fill="#7F7397" transform="translate(560,366)"/>
<path d="M0,0 L1,3 L5,3 L7,13 L9,14 L10,23 L11,29 L11,47 L8,47 L7,49 L9,28 L7,28 L4,15 L2,8 L0,7 Z M-1,7 Z " fill="#91A0B2" transform="translate(703,625)"/>
<path d="M0,0 L1,0 L1,8 L3,8 L3,36 L1,36 L1,40 L-1,40 L-1,48 L-2,48 L-3,36 L-2,39 L0,39 L-1,37 L-1,8 Z " fill="#0C0A0F" transform="translate(461,406)"/>
<path d="M0,0 L6,0 L5,20 L2,26 L-4,31 L-8,31 L-8,29 L-4,28 L-3,21 L0,20 L0,16 L2,15 L3,12 L0,13 L0,7 L3,4 L0,4 Z " fill="#A7B3CE" transform="translate(656,684)"/>
<path d="M0,0 L1,0 L1,8 L3,8 L7,12 L7,16 L11,16 L11,20 L13,20 L13,22 L15,22 L15,26 L17,26 L17,28 L21,28 L21,32 L23,32 L22,34 L19,34 L20,29 L18,29 L17,33 L16,32 L13,35 L13,30 L11,29 L11,27 L9,26 L10,17 L5,19 L6,13 L4,13 L3,17 L2,13 L0,13 L1,10 L-1,8 Z " fill="#828DA0" transform="translate(693,498)"/>
<path d="M0,0 L4,2 L0,9 L-1,7 L-10,10 L-16,13 L-16,16 L-12,18 L-21,20 L-26,20 L-26,18 L-28,17 L-23,16 L-23,14 L-19,14 L-19,11 L-12,8 L-11,5 L-8,5 L-8,7 L-4,6 L-4,2 L0,2 Z M-18,16 Z M3,0 Z " fill="#9E93B9" transform="translate(616,358)"/>
<path d="M0,0 L6,0 L6,2 L10,2 L9,8 L13,19 L12,23 L10,21 L7,21 L7,16 L10,16 L5,15 L6,11 L7,9 L1,9 L1,6 L-1,6 Z " fill="#908BAB" transform="translate(282,632)"/>
<path d="M0,0 L8,0 L12,1 L13,3 L22,6 L23,8 L26,10 L26,12 L21,13 L19,11 L9,10 L9,4 L3,4 L3,2 L0,2 Z " fill="#7F74B0" transform="translate(395,645)"/>
<path d="M0,0 L8,1 L9,7 L11,8 L12,12 L17,18 L17,26 L13,26 L13,17 L9,16 L6,13 L5,9 L7,9 L7,7 L3,8 L2,6 L-1,6 L-1,4 L1,3 Z " fill="#6D6FA1" transform="translate(514,501)"/>
<path d="M0,0 L30,0 L30,4 L32,4 L32,6 L44,6 L44,12 L46,12 L46,10 L52,10 L52,16 L51,16 L51,11 L47,11 L47,13 L49,13 L48,16 L46,14 L40,13 L40,10 L31,10 L30,7 L31,5 L28,4 L29,1 L0,1 Z " fill="#74718A" transform="translate(388,310)"/>
<path d="M0,0 L4,1 L1,1 L1,3 L3,3 L1,7 L-2,19 L-3,20 L-5,36 L-7,36 L-7,17 L-4,17 L-5,16 L-4,2 L0,2 Z " fill="#908DAD" transform="translate(294,474)"/>
<path d="M0,0 L1,2 L6,2 L5,6 L18,6 L18,4 L7,4 L7,3 L19,3 L20,5 L23,5 L23,9 L26,10 L21,10 L21,7 L19,7 L19,12 L26,12 L26,13 L18,13 L18,7 L4,7 L4,3 L2,3 L2,9 L-6,9 L-6,11 L-10,10 L-7,10 L-7,5 L-3,4 L-2,1 Z " fill="#796F92" transform="translate(418,371)"/>
<path d="M0,0 L1,0 L1,6 L-1,6 L-1,8 L-5,8 L-5,12 L-7,12 L-7,14 L-11,14 L-11,16 L-17,16 L-17,18 L-23,18 L-23,17 L-18,17 L-18,15 L-23,15 L-23,14 L-18,14 L-18,12 L-9,9 L-8,4 L-5,4 L-4,1 L-1,3 Z " fill="#808C9B" transform="translate(749,558)"/>
<path d="M0,0 L1,3 L3,4 L1,4 L1,6 L30,6 L30,7 L0,7 L0,5 L-10,5 L-10,3 L-50,3 L-50,2 L-10,1 Z " fill="#736F8D" transform="translate(426,703)"/>
<path d="M0,0 L1,0 L1,8 L3,8 L3,28 L1,28 L1,32 L-1,32 L-2,36 L-3,29 L-2,31 L0,31 L-2,25 L-2,9 L-1,8 Z " fill="#7E8D9B" transform="translate(719,642)"/>
<path d="M0,0 L3,1 L2,8 L8,8 L14,9 L18,8 L18,10 L20,10 L20,13 L22,13 L21,16 L21,14 L17,14 L17,16 L10,15 L5,13 L4,9 L0,9 L0,5 L-2,5 L-1,1 Z " fill="#948DB4" transform="translate(314,668)"/>
<path d="M0,0 L24,0 L24,1 L1,1 L1,3 L24,3 L24,4 L0,5 L0,3 L-3,3 L-3,5 L-1,5 L-1,7 L-3,8 L-16,8 L-18,6 L-16,6 L-16,4 L-4,4 L-4,2 L0,2 Z " fill="#645F98" transform="translate(466,646)"/>
<path d="M0,0 L2,0 L2,8 L1,10 L7,12 L6,21 L9,22 L9,24 L7,24 L6,27 L3,26 L1,22 L0,11 L-2,1 Z " fill="#A09EBA" transform="translate(278,589)"/>
<path d="M0,0 L1,0 L2,8 L2,42 L0,42 L0,32 L-2,32 L-2,8 L0,8 Z " fill="#0C0C0F" transform="translate(680,430)"/>
<path d="M0,0 L4,1 L2,2 L2,6 L-11,19 L-14,18 L-16,20 L-16,16 L-14,16 L-12,12 L-4,4 L-2,4 L-2,2 L0,2 Z " fill="#010101" transform="translate(694,696)"/>
<path d="M0,0 L6,0 L6,2 L12,2 L12,4 L16,4 L16,6 L22,6 L22,8 L30,8 L30,10 L36,10 L36,11 L30,11 L29,14 L29,12 L20,12 L16,9 L21,9 L21,7 L14,9 L12,7 L15,7 L15,5 L6,6 L6,5 L11,5 L11,3 L0,5 L0,3 L-4,2 L0,2 Z " fill="#6F6794" transform="translate(366,628)"/>
<path d="M0,0 L1,0 L1,7 L3,7 L3,2 L6,3 L10,13 L11,19 L9,23 L11,23 L12,21 L13,24 L10,25 L8,24 L6,19 L4,18 L4,12 L2,12 L2,8 L0,8 Z " fill="#8A88A0" transform="translate(270,612)"/>
<path d="M0,0 L1,4 L3,4 L2,26 L-2,28 L-3,24 L-3,12 L-2,4 L0,4 Z " fill="#7973A5" transform="translate(462,442)"/>
<path d="M0,0 L2,3 L-2,9 L-6,11 L-10,18 L-16,20 L-16,14 L-10,12 L-10,7 L-8,7 L-7,4 L-1,1 Z " fill="#9A90B3" transform="translate(614,349)"/>
<path d="M0,0 L1,0 L1,30 L3,30 L4,26 L5,31 L3,33 L0,42 L-1,42 L-1,37 L-3,37 L-3,42 L-4,42 L-4,36 L-2,36 L-2,30 L0,30 Z M5,10 L6,10 L6,29 L5,29 Z " fill="#7D7D97" transform="translate(282,514)"/>
<path d="M0,0 L2,0 L2,17 L-3,23 L-4,23 L-4,8 L-3,6 L-5,6 L-5,3 L0,3 Z " fill="#8078AB" transform="translate(468,440)"/>
<path d="M0,0 L6,0 L5,2 L2,2 L2,6 L-5,9 L-8,15 L-10,17 L-12,22 L-14,23 L-17,17 L-14,17 L-14,15 L-11,15 L-10,9 L-8,9 L-7,4 L0,2 Z " fill="#A392C1" transform="translate(538,385)"/>
<path d="M0,0 L6,0 L4,2 L-2,2 L-3,5 L-12,7 L-18,11 L-20,11 L-20,13 L-27,12 L-30,13 L-30,11 L-23,10 L-20,10 L-20,6 L-16,7 L-16,5 L-13,3 L-10,3 L-10,1 Z " fill="#9585B0" transform="translate(548,374)"/>
<path d="M0,0 L4,2 L7,4 L7,10 L9,10 L9,20 L11,20 L11,26 L10,26 L10,21 L8,21 L7,25 L8,11 L6,11 L6,20 L4,16 L4,14 L2,14 L1,5 L-3,3 L-3,1 Z " fill="#84849C" transform="translate(687,350)"/>
<path d="M0,0 L5,1 L8,2 L8,4 L13,4 L13,6 L17,6 L17,8 L15,8 L15,10 L19,10 L21,14 L15,13 L15,11 L7,11 L7,8 L1,5 Z " fill="#8C81BD" transform="translate(381,647)"/>
<path d="M0,0 L4,0 L4,2 L12,2 L12,4 L18,4 L18,6 L24,6 L24,8 L28,8 L28,10 L46,10 L45,12 L25,12 L27,11 L27,9 L18,10 L18,9 L23,9 L23,7 L18,8 L10,8 L4,6 L4,5 L11,5 L11,3 L1,4 L3,3 L3,1 Z " fill="#685F92" transform="translate(402,640)"/>
<path d="M0,0 L6,0 L8,1 L8,4 L10,5 L6,6 L4,6 L0,9 L0,5 L-4,9 L-8,9 L-8,1 L-2,1 Z " fill="#9990C3" transform="translate(368,655)"/>
<path d="M0,0 L9,0 L11,5 L10,6 L13,7 L11,7 L11,9 L16,8 L16,10 L21,11 L23,13 L18,13 L17,15 L14,12 L14,10 L9,9 L8,6 L0,6 L0,4 L-6,4 L-6,3 L0,3 Z " fill="#82839F" transform="translate(498,716)"/>
<path d="M0,0 L1,4 L-1,8 L-3,8 L-3,10 L-6,10 L-8,19 L-10,21 L-11,30 L-12,30 L-13,16 L-12,9 L-10,9 L-10,7 L-7,8 L-3,4 L-1,4 Z " fill="#9393AC" transform="translate(283,560)"/>
<path d="M0,0 L3,1 L-1,6 L-5,7 L-5,12 L-7,13 L-9,18 L-11,18 L-11,20 L-13,20 L-12,24 L-15,23 L-14,17 L-10,8 L-7,4 L-2,3 Z " fill="#8792AE" transform="translate(691,687)"/>
<path d="M0,0 L1,0 L2,10 L4,10 L4,1 L5,1 L5,11 L3,11 L3,25 L1,25 L1,33 L-1,33 L-1,37 L-3,37 L-4,41 L-5,34 L-4,36 L-2,36 L-3,33 L-3,24 L-1,24 L0,22 L0,24 L2,24 L2,11 L-1,10 Z " fill="#7A7D95" transform="translate(691,375)"/>
<path d="M0,0 L3,1 L3,3 L5,4 L1,6 L1,9 L-3,9 L-3,13 L-7,13 L-7,15 L-16,13 L-18,13 L-18,11 L-10,10 L-6,5 L-3,5 L-2,2 L0,2 Z " fill="#8996AC" transform="translate(712,674)"/>
<path d="M0,0 L2,0 L2,2 L7,2 L10,6 L9,9 L7,9 L1,11 L-1,10 L-3,10 L-5,10 L-5,6 L-3,6 L-3,4 L-1,4 Z " fill="#8C88C5" transform="translate(515,668)"/>
<path d="M0,0 L2,1 L2,10 L1,12 L-11,13 L-11,6 L-5,6 L-3,7 L-3,1 Z " fill="#8689BB" transform="translate(611,610)"/>
<path d="M0,0 L8,0 L5,2 L1,4 L-11,5 L-13,6 L-31,8 L-29,6 L-22,3 L-21,2 L-1,1 Z " fill="#A092BD" transform="translate(575,377)"/>
<path d="M0,0 L1,0 L1,5 L-1,5 L-1,7 L-3,7 L-3,10 L-7,13 L-9,13 L-11,17 L-12,19 L-19,22 L-22,25 L-27,25 L-26,23 L-21,21 L-16,17 L-13,14 L-11,14 L-9,7 L-3,6 L-1,1 Z " fill="#97A3B9" transform="translate(668,706)"/>
<path d="M0,0 L3,1 L3,3 L6,3 L7,7 L-5,9 L-5,13 L-10,14 L-11,8 L-10,6 L-6,6 L-6,3 L-2,3 L-2,1 Z " fill="#7A79B5" transform="translate(530,651)"/>
<path d="M0,0 L1,0 L1,11 L-2,13 L-7,26 L-12,27 L-13,24 L-11,23 L-9,18 L-6,15 L-3,6 Z " fill="#9899B7" transform="translate(682,391)"/>
<path d="M0,0 L9,0 L12,3 L10,6 L-1,7 L-7,4 L-5,3 L-5,1 Z " fill="#B4BFD6" transform="translate(627,711)"/>
<path d="M0,0 L6,0 L6,2 L9,2 L10,4 L17,4 L17,6 L7,7 L-4,6 L-8,1 L-1,1 Z " fill="#7B70AC" transform="translate(396,639)"/>
<path d="M0,0 L2,0 L3,6 L7,6 L8,11 L15,12 L15,10 L17,10 L17,13 L15,13 L17,16 L17,22 L15,20 L15,16 L11,16 L11,14 L5,15 L4,17 L2,17 L3,11 Z " fill="#9491AE" transform="translate(277,618)"/>
<path d="M0,0 L3,2 L9,3 L5,5 L-1,8 L-3,8 L-4,14 L-7,14 L-8,20 L-9,20 L-8,7 L-4,6 L-3,1 Z " fill="#929CBF" transform="translate(685,676)"/>
<path d="M0,0 L2,1 L-2,4 L-4,4 L-4,6 L-11,7 L-20,7 L-20,3 L-10,1 Z " fill="#B3A5D2" transform="translate(568,391)"/>
<path d="M0,0 L1,3 L-1,4 Z M-4,3 L-1,5 L-1,7 L5,4 L3,11 L1,11 L0,21 L-3,26 L-4,26 L-3,12 L-3,5 L-5,4 Z " fill="#9DA6CD" transform="translate(671,667)"/>
<path d="M0,0 L2,0 L2,3 L7,2 L15,5 L15,8 L19,9 L19,11 L16,11 L16,9 L10,9 L10,7 L4,6 L-8,4 L-5,1 Z " fill="#A4AAC6" transform="translate(592,712)"/>
<path d="M0,0 L7,1 L10,2 L12,6 L10,6 L9,9 L-1,8 L-1,2 L-4,1 Z " fill="#9197B1" transform="translate(533,720)"/>
<path d="M0,0 L3,1 L3,3 L9,2 L8,5 L1,5 L-1,7 L-8,8 L-10,9 L-10,6 L-12,5 L-12,3 Z " fill="#7671B3" transform="translate(514,649)"/>
<path d="M0,0 L2,4 L-3,3 L-3,9 L-8,10 L-13,9 L-13,11 L-8,11 L-10,12 L-10,14 L-21,13 L-21,15 L-19,16 L-26,15 L-22,14 L-22,12 L-16,12 L-16,10 L-14,10 L-14,8 L-8,8 L-6,4 L-4,4 L-4,2 L0,2 Z " fill="#7F7496" transform="translate(600,350)"/>
<path d="M0,0 L10,2 L9,5 L4,4 L1,7 L-4,6 L-7,7 L-7,5 L-9,5 L-9,2 L-17,2 L-17,1 Z " fill="#756BA8" transform="translate(447,652)"/>
<path d="M0,0 L2,0 L3,2 L22,6 L21,10 L17,11 L16,7 L9,8 L9,6 L1,6 L-2,7 L-3,4 L-5,2 L0,2 Z " fill="#938AC1" transform="translate(367,650)"/>
<path d="M0,0 L6,0 L6,2 L12,2 L14,5 L18,6 L20,9 L24,10 L24,20 L23,20 L23,11 L21,11 L20,14 L15,11 L15,9 L17,9 L17,7 L12,9 L11,8 L11,3 L6,3 L6,5 L-1,4 L-1,3 L5,3 L5,1 L0,1 Z " fill="#798492" transform="translate(724,538)"/>
<path d="M0,0 L1,3 L6,3 L8,7 L11,8 L11,11 L13,12 L11,12 L11,26 L10,26 L10,12 L4,12 L4,8 L2,8 L2,4 L0,4 Z " fill="#646597" transform="translate(552,566)"/>
<path d="M0,0 L4,0 L4,2 L10,3 L10,5 L8,5 L8,7 L15,7 L15,8 L7,8 L7,6 L-3,6 L-3,4 L-7,3 L-3,3 L-3,1 Z " fill="#7C7C9B" transform="translate(463,708)"/>
<path d="M0,0 L1,0 L1,19 L-2,19 L-2,15 L-4,15 L-5,7 L-2,6 Z M-6,11 Z " fill="#938CB4" transform="translate(340,600)"/>
<path d="M0,0 L4,0 L4,3 L6,3 L6,11 L4,11 L3,17 L1,17 L1,12 L-1,12 Z " fill="#8B98AC" transform="translate(707,607)"/>
<path d="M0,0 L4,0 L4,18 L8,18 L8,24 L4,24 L4,36 L3,36 L3,23 L1,23 L1,19 L3,19 L3,1 Z " fill="#6E688F" transform="translate(360,524)"/>
<path d="M0,0 L5,2 L3,3 L2,6 L-10,7 L-20,6 L-19,4 L-4,4 L-3,1 Z " fill="#9890C1" transform="translate(388,684)"/>
<path d="M0,0 L1,3 L3,3 L4,1 L4,3 L7,3 L5,9 L10,8 L10,10 L7,10 L7,15 L10,15 L11,13 L14,19 L13,23 L13,20 L11,20 L10,24 L10,20 L8,20 L8,16 L6,16 L6,10 L4,10 L2,5 L0,4 Z " fill="#7E7897" transform="translate(282,638)"/>
<path d="M0,0 L8,0 L7,2 L1,1 L1,3 L3,3 L3,5 L0,6 L-2,15 L-3,13 L-6,12 L-4,12 L-4,10 L-6,10 L-6,4 L-4,4 L-4,2 L0,2 Z " fill="#7F8099" transform="translate(370,320)"/>
<path d="M0,0 L1,0 L1,12 L-1,12 L-1,16 L-3,16 L-3,20 L-5,20 L-5,30 L-7,30 L-7,36 L-8,36 L-8,30 L-11,29 L-9,29 L-8,27 L-8,29 L-6,29 L-7,15 L-5,15 L-4,12 L-4,15 L-2,15 L-3,9 L-2,11 L0,11 Z " fill="#6E698F" transform="translate(361,560)"/>
<path d="M0,0 L2,0 L3,8 L3,12 L3,17 L-1,17 L-3,9 L-3,3 L1,4 Z " fill="#9690B7" transform="translate(307,651)"/>
<path d="M0,0 L1,0 L1,8 L3,8 L3,14 L5,14 L5,32 L4,32 L4,15 L2,15 L1,17 L1,15 L-1,15 L-2,10 L-3,10 L-3,3 L-2,3 L-2,8 L0,8 Z M-4,10 Z " fill="#778493" transform="translate(713,610)"/>
<path d="M0,0 L3,2 L3,7 L1,7 L1,5 L-3,7 L-8,6 L-11,7 L-12,6 L-13,8 L-15,8 L-15,2 L-5,3 Z " fill="#8B8AB6" transform="translate(491,694)"/>
<path d="M0,0 L6,0 L13,4 L12,8 L5,6 L2,6 L0,5 Z " fill="#8D84B0" transform="translate(356,640)"/>
<path d="M0,0 L1,0 L1,10 L3,10 L3,16 L5,16 L4,20 L4,17 L2,17 L1,21 L1,19 L-1,19 L-2,13 L-3,13 L-3,1 L-2,1 L-2,10 L0,10 Z " fill="#7E7A9E" transform="translate(339,476)"/>
<path d="M0,0 L16,0 L16,1 L1,1 L1,4 L3,5 L-5,9 L-7,9 L-7,5 L-9,5 L-10,8 L-10,4 L-6,4 L-6,2 L0,2 Z " fill="#6D698B" transform="translate(308,466)"/>
<path d="M0,0 L1,0 L1,8 L3,8 L3,18 L1,18 L1,34 L0,34 L-1,8 Z " fill="#0F0F15" transform="translate(455,466)"/>
<path d="M0,0 L7,2 L7,5 L4,7 L7,9 L0,10 L-5,5 L0,5 Z " fill="#9D98C9" transform="translate(528,451)"/>
<path d="M0,0 L1,4 L-3,4 L-3,6 L-5,6 L-5,8 L-12,14 L-13,16 L-17,15 L-14,15 L-14,13 L-16,13 L-16,11 L-8,4 L-4,5 L-5,2 L0,3 Z " fill="#788397" transform="translate(663,728)"/>
<path d="M0,0 L5,2 L6,6 L11,7 L11,10 L16,10 L16,11 L6,10 L3,7 L3,5 L-2,5 L-2,2 L0,2 Z " fill="#ADB6D0" transform="translate(606,710)"/>
<path d="M0,0 L5,1 L6,5 L12,6 L14,7 L25,7 L22,9 L8,9 L5,6 L-1,4 Z " fill="#B2BCD6" transform="translate(612,710)"/>
<path d="M0,0 L6,0 L6,1 L1,1 L1,3 L7,3 L7,4 L1,4 L1,6 L-1,6 L-1,8 L-5,8 L-5,12 L-7,12 L-8,14 L-9,11 L-6,11 L-6,8 L-8,7 L-6,3 Z " fill="#838F9F" transform="translate(719,574)"/>
<path d="M0,0 L8,1 L9,7 L11,8 L9,12 L6,12 L5,9 L7,9 L7,7 L3,8 L2,6 L-1,6 L-1,4 L1,3 Z " fill="#7376AA" transform="translate(514,501)"/>
<path d="M0,0 L11,0 L14,1 L14,4 L-7,4 L-3,2 L0,3 Z " fill="#8E88AB" transform="translate(362,700)"/>
<path d="M0,0 L5,0 L5,3 L-8,7 L-13,6 L-14,4 L-9,1 L-6,1 L-6,3 L0,3 Z " fill="#96A1BE" transform="translate(700,672)"/>
<path d="M0,0 L4,0 L4,2 L6,2 L6,0 L14,0 L14,2 L18,2 L17,6 L17,3 L15,3 L15,6 L4,4 L0,6 L0,3 L3,3 L3,1 Z " fill="#8983A2" transform="translate(440,326)"/>
<path d="M0,0 L1,0 L1,13 L-2,21 L-4,29 L-5,29 L-5,20 L-4,19 L-3,10 L-1,7 Z " fill="#8D87B1" transform="translate(352,547)"/>
<path d="M0,0 L1,0 L1,12 L4,13 L2,13 L4,20 L1,20 L1,30 L0,30 L0,20 L-2,20 L-2,12 L0,12 Z " fill="#676694" transform="translate(458,454)"/>
<path d="M0,0 L2,0 L2,3 L8,2 L13,7 L14,9 L12,9 L12,11 L15,12 L11,12 L11,10 L7,10 L7,5 L0,5 Z " fill="#81739D" transform="translate(437,378)"/>
<path d="M0,0 L13,0 L9,2 L1,5 L-2,8 L-1,10 L-5,12 L-5,5 Z " fill="#9598CB" transform="translate(601,636)"/>
<path d="M0,0 L6,0 L6,14 L4,14 L3,18 L2,15 L1,3 L5,3 L5,1 L0,1 Z " fill="#0B0B11" transform="translate(556,578)"/>
<path d="M0,0 L4,1 L-1,8 L-4,9 L-5,12 L-8,12 L-8,14 L-14,16 L-14,14 L-12,14 L-12,11 L-8,11 L-7,8 L-1,3 Z " fill="#8E9BAE" transform="translate(656,723)"/>
<path d="M0,0 L6,1 L6,3 L4,3 L4,5 L10,4 L10,2 L12,2 L12,5 L14,5 L14,7 L12,7 L12,9 L19,9 L19,10 L11,10 L11,8 L7,8 L7,6 L3,6 L3,4 L-1,3 L3,3 L3,1 Z " fill="#7F7A97" transform="translate(335,696)"/>
<path d="M0,0 L2,1 L3,11 L-1,13 L-1,11 L-3,11 L-3,13 L-5,13 L-5,20 L-6,20 L-6,12 L-4,12 L-4,10 L-2,10 L-2,2 L0,2 Z " fill="#818298" transform="translate(276,556)"/>
<path d="M0,0 L5,1 L4,6 L8,5 L8,11 L4,11 L1,13 L0,10 Z " fill="#7576AB" transform="translate(459,474)"/>
<path d="M0,0 L1,0 L2,6 L2,15 L1,17 L3,17 L4,14 L4,22 L2,22 L2,18 L0,18 L0,14 L-2,14 L-2,6 L0,6 Z " fill="#0F0E13" transform="translate(356,602)"/>
<path d="M0,0 L1,0 L1,9 L6,9 L8,15 L8,21 L7,21 L7,16 L5,16 L5,22 L4,22 L4,16 L2,16 L2,10 L0,10 Z " fill="#656697" transform="translate(526,518)"/>
<path d="M0,0 L1,2 L5,1 L7,2 L7,6 L2,6 L2,8 L-5,8 L-5,4 Z " fill="#7277AB" transform="translate(480,503)"/>
<path d="M0,0 L2,0 L2,2 L0,3 L-6,3 L-7,6 L-16,7 L-26,7 L-22,5 L-14,5 L-14,3 L-2,1 Z " fill="#9B8CB6" transform="translate(590,370)"/>
<path d="M0,0 L1,0 L1,11 L3,12 L1,12 L1,23 L-1,23 L-2,21 L-2,11 Z " fill="#837DAA" transform="translate(360,548)"/>
<path d="M0,0 L1,0 L1,8 L3,8 L7,12 L7,16 L11,16 L11,20 L13,20 L12,22 L9,22 L10,17 L5,19 L6,13 L4,13 L3,17 L2,13 L0,13 L1,10 L-1,8 Z " fill="#757C92" transform="translate(693,498)"/>
<path d="M0,0 L4,1 L-4,8 L-14,18 L-16,20 L-16,16 L-14,16 L-12,12 L-4,4 L-2,4 L-2,2 L0,2 Z " fill="#16191D" transform="translate(694,696)"/>
<path d="M0,0 L6,0 L6,8 L5,10 L3,10 L3,12 L0,13 L0,7 L3,4 L0,4 Z " fill="#A8B2D6" transform="translate(656,684)"/>
<path d="M0,0 L9,1 L9,3 L15,3 L15,4 L9,4 L8,7 L8,5 L-1,5 L-5,2 L0,2 Z " fill="#71679C" transform="translate(387,635)"/>
<path d="M0,0 L3,1 L2,5 L4,5 L5,2 L8,7 L6,10 L-4,9 L-4,16 L-5,16 L-5,8 L3,8 L3,6 L1,6 L1,4 L-3,3 L1,3 Z " fill="#7E7994" transform="translate(397,342)"/>
<path d="M0,0 L6,0 L5,2 L4,12 L1,12 L0,12 Z " fill="#857EB1" transform="translate(470,448)"/>
<path d="M0,0 L4,2 L2,2 L2,6 L0,6 L0,8 L-4,12 L-6,12 L-6,16 L-10,16 L-11,18 L-12,14 L-7,15 L-8,10 L-6,10 L-5,6 L-4,5 L1,5 Z " fill="#737E91" transform="translate(676,710)"/>
<path d="M0,0 L6,1 L13,4 L12,6 L-1,4 L-6,3 L-6,2 Z " fill="#9086BD" transform="translate(376,650)"/>
<path d="M0,0 L2,0 L3,6 L6,7 L6,11 L4,11 L4,9 L0,9 L-1,19 L-2,19 L-2,7 Z " fill="#8A83AE" transform="translate(349,596)"/>
<path d="M0,0 L1,0 L1,6 L-1,6 L-1,8 L-6,8 L-6,11 L-8,11 L-9,7 L-8,4 L-5,4 L-4,1 L-1,3 Z " fill="#838F9F" transform="translate(749,558)"/>
<path d="M0,0 L4,0 L4,6 L8,8 L10,10 L10,14 L13,15 L11,16 L8,15 L8,13 L6,13 L6,11 L3,10 L2,6 L3,1 Z M3,7 Z " fill="#131118" transform="translate(448,390)"/>
<path d="M0,0 L2,1 L3,8 L4,9 L4,15 L0,17 L-1,11 Z " fill="#918AB1" transform="translate(341,612)"/>
<path d="M0,0 L2,0 L5,5 L6,10 L7,14 L2,15 L2,6 L0,6 Z " fill="#7273AC" transform="translate(531,534)"/>
<path d="M0,0 L3,3 L5,6 L5,15 L3,15 L3,8 L-2,6 L-3,1 Z " fill="#8976A6" transform="translate(460,398)"/>
<path d="M0,0 L7,1 L7,5 L2,5 L2,7 L-4,7 L-3,2 Z " fill="#8D9AAB" transform="translate(724,570)"/>
<path d="M0,0 L26,1 L26,2 L6,2 L6,4 L2,4 L2,6 L-4,6 L-4,5 L1,5 Z " fill="#5F628E" transform="translate(486,504)"/>
<path d="M0,0 L16,0 L19,1 L19,4 L13,4 L13,2 L0,2 Z " fill="#8F90B0" transform="translate(479,715)"/>
<path d="M0,0 L4,0 L8,5 L7,9 L0,8 L1,3 L3,3 L3,1 Z " fill="#828C9D" transform="translate(716,532)"/>
<path d="M0,0 L5,0 L6,3 L9,4 L9,8 L1,8 L2,3 L0,3 Z " fill="#908EAC" transform="translate(370,351)"/>
<path d="M0,0 L4,0 L4,10 L0,13 Z " fill="#A4A1C6" transform="translate(296,570)"/>
<path d="M0,0 L6,0 L14,3 L15,9 L11,9 L11,5 L4,4 L3,2 Z " fill="#A09DBA" transform="translate(661,352)"/>
<path d="M0,0 L6,0 L6,2 L10,3 L8,8 L6,8 L6,5 L0,5 Z " fill="#9192AF" transform="translate(516,716)"/>
<path d="M0,0 L9,0 L9,4 L8,5 L1,4 L-5,2 L-5,1 Z " fill="#B6C2DA" transform="translate(627,711)"/>
<path d="M0,0 L10,0 L10,4 L16,4 L16,12 L15,12 L15,5 L9,5 L8,7 L4,4 L3,6 L0,3 L9,3 L9,1 L0,1 Z " fill="#7B708F" transform="translate(488,350)"/>
<path d="M0,0 L28,0 L32,3 L31,5 L27,5 L27,1 L0,1 Z " fill="#8481A3" transform="translate(429,706)"/>
<path d="M0,0 L3,1 L3,6 L5,12 L1,12 L1,9 L-1,9 L-1,1 Z " fill="#6F71A9" transform="translate(552,557)"/>
<path d="M0,0 L4,1 L1,1 L1,3 L4,4 L2,4 L2,10 L4,11 L-4,12 L-4,10 L-2,10 L-2,4 L0,4 Z " fill="#0E0E11" transform="translate(372,336)"/>
<path d="M0,0 L7,0 L7,4 L12,5 L13,7 L8,7 L8,5 L6,5 L6,2 L4,2 L4,4 L-2,5 L-2,3 L0,3 Z " fill="#908BAB" transform="translate(341,696)"/>
<path d="M0,0 L10,1 L6,2 L6,4 L4,4 L4,6 L0,6 L0,8 L-2,8 L-3,10 L-4,7 L-1,7 L-2,4 L1,4 L-1,1 Z " fill="#758097" transform="translate(694,690)"/>
<path d="M0,0 L1,4 L3,4 L3,8 L5,8 L5,12 L7,12 L6,14 L3,14 L4,9 L2,9 L1,12 L-3,4 L0,4 Z " fill="#787198" transform="translate(355,616)"/>
<path d="M0,0 L7,0 L6,2 L4,2 L3,6 L0,8 L-3,8 L-2,4 L-4,3 Z M-2,3 Z " fill="#9C89BA" transform="translate(516,396)"/>
<path d="M0,0 L4,1 L1,1 L2,3 L5,3 L9,7 L9,9 L7,9 L7,11 L10,12 L6,12 L2,7 L0,6 Z " fill="#7E7498" transform="translate(382,370)"/>
<path d="M0,0 L2,0 L4,4 L1,10 L-3,11 L-2,3 Z " fill="#A099C2" transform="translate(328,598)"/>
<path d="M0,0 L3,0 L3,14 L0,14 Z " fill="#7273AC" transform="translate(563,578)"/>
<path d="M0,0 L8,0 L8,1 L1,1 L1,3 L8,3 L6,6 L1,7 L-3,5 L-3,7 L-6,8 L-6,6 L-4,6 L-4,4 L0,4 Z " fill="#7E7A95" transform="translate(622,334)"/>
<path d="M0,0 L0,3 L-2,8 L-7,10 L-10,9 L-7,8 L-6,3 L-3,3 L-3,1 Z " fill="#B1BDD6" transform="translate(649,703)"/>
<path d="M0,0 L6,0 L6,1 L1,1 L1,3 L6,3 L2,6 L-5,5 L-5,9 L-9,7 L-6,6 L-6,4 L-2,4 L-2,2 L0,2 Z " fill="#817A99" transform="translate(610,342)"/>
<path d="M0,0 L4,2 L0,9 L-1,7 L-4,7 L-4,2 L0,2 Z M3,0 Z " fill="#A09ABB" transform="translate(616,358)"/>
<path d="M0,0 L1,0 L1,6 L-1,6 L-1,13 L-5,19 L-6,19 L-6,13 L-3,9 Z " fill="#9AA5C2" transform="translate(670,693)"/>
<path d="M0,0 L2,3 L-2,7 L-10,9 L-10,7 L-8,7 L-7,4 L-1,1 Z " fill="#968EB0" transform="translate(614,349)"/>
<path d="M0,0 L1,0 L0,8 L-4,17 L-6,18 L-5,13 L-4,12 L-3,5 Z " fill="#9CA7C8" transform="translate(670,688)"/>
<path d="M0,0 L4,0 L4,6 L2,6 L2,14 L1,14 L1,6 L-1,6 L-1,14 L-2,14 L-3,3 L1,3 L1,5 L3,5 L3,1 Z " fill="#746D93" transform="translate(352,602)"/>
<path d="M0,0 L1,0 L1,5 L3,5 L3,0 L5,4 L7,5 L5,11 L7,11 L8,9 L9,12 L6,13 L4,12 L2,7 L0,6 Z " fill="#827F98" transform="translate(274,624)"/>
<path d="M0,0 L2,0 L3,5 L-1,10 L-4,9 L-4,4 L-1,3 Z M-2,10 Z " fill="#7273AC" transform="translate(553,611)"/>
<path d="M0,0 L2,0 L2,9 L4,9 L4,14 L-1,10 L-1,2 Z " fill="#8E9CAD" transform="translate(745,549)"/>
<path d="M0,0 L4,1 L6,3 L6,13 L4,13 L3,6 L0,3 Z " fill="#8883AB" transform="translate(333,473)"/>
<path d="M0,0 L10,0 L9,3 L-1,4 L-5,3 Z " fill="#B0A3CF" transform="translate(559,389)"/>
<path d="M0,0 L4,0 L4,7 L4,10 L0,11 Z " fill="#8C85AD" transform="translate(348,628)"/>
<path d="M0,0 L2,3 L2,11 L4,11 L4,4 L5,4 L5,12 L3,12 L3,16 L-1,15 L2,15 L2,13 L-1,12 L0,11 Z " fill="#100F13" transform="translate(383,354)"/>
<path d="M0,0 L3,1 L1,1 L1,3 L6,2 L6,4 L11,5 L13,7 L8,7 L7,9 L4,6 L4,4 L-1,3 L-2,1 Z " fill="#76778F" transform="translate(508,722)"/>
<path d="M0,0 L4,2 L2,2 L2,6 L0,6 L0,8 L-2,8 L-2,10 L-6,10 L-7,12 L-8,8 L-3,9 L-3,7 L-5,6 L-1,3 L-1,5 L1,5 Z " fill="#758091" transform="translate(712,678)"/>
<path d="M0,0 L1,3 L-1,4 Z M-4,3 L-1,5 L-1,7 L3,6 L1,10 L-2,13 L-3,12 L-3,5 L-5,4 Z " fill="#A0A9D4" transform="translate(671,667)"/>
<path d="M0,0 L1,0 L1,5 L3,5 L3,0 L5,4 L8,7 L7,10 L7,8 L5,8 L6,12 L4,12 L2,7 L0,6 Z " fill="#7C7798" transform="translate(294,662)"/>
<path d="M0,0 L2,0 L2,5 L-1,13 L-3,14 L-5,18 L-6,15 L-4,9 L-1,9 Z " fill="#9C97BF" transform="translate(334,579)"/>
<path d="M0,0 L4,2 L1,3 L0,6 L-3,6 L-3,8 L-7,9 L-7,7 L-10,6 L-10,4 L-1,4 Z " fill="#9185AB" transform="translate(597,355)"/>
<path d="M0,0 L4,1 L-4,8 L-8,12 L-10,12 L-8,8 L-4,4 L-2,4 L-2,2 L0,2 Z " fill="#17191D" transform="translate(660,732)"/>
<path d="M0,0 L4,1 L2,1 L0,5 L-5,9 L-9,8 L-6,4 L0,3 Z " fill="#9BA8BB" transform="translate(651,720)"/>
<path d="M0,0 L5,0 L5,7 L0,8 L-1,2 Z " fill="#7E7CBB" transform="translate(520,657)"/>
<path d="M0,0 L5,0 L4,5 L0,9 L-1,5 Z " fill="#6D6EA3" transform="translate(560,592)"/>
<path d="M0,0 L7,0 L5,1 L5,3 L-6,2 L-6,4 L-4,5 L-11,4 L-7,3 L-7,1 Z " fill="#817599" transform="translate(585,361)"/>
<path d="M0,0 L11,1 L11,5 L7,5 L7,3 L1,3 L-1,1 Z " fill="#847BAD" transform="translate(369,638)"/>
<path d="M0,0 L1,4 L5,6 L5,10 L8,11 L6,12 L3,11 L3,9 L1,9 L-1,3 Z " fill="#141318" transform="translate(277,632)"/>
<path d="M0,0 L2,0 L2,3 L0,3 L2,6 L2,12 L0,10 L0,6 L-4,6 L-4,2 L0,2 Z " fill="#9792B3" transform="translate(292,628)"/>
<path d="M0,0 L2,1 L1,11 L-3,10 L-2,2 Z " fill="#9A94BB" transform="translate(333,610)"/>
<path d="M0,0 L4,1 L1,1 L1,3 L3,3 L1,7 L-1,10 L-1,3 L-3,3 L-3,10 L-4,10 L-4,2 L0,2 Z " fill="#787593" transform="translate(294,474)"/>
<path d="M0,0 L2,2 L6,4 L-3,6 L-8,6 L-8,4 L-4,4 L-4,2 Z M0,2 Z " fill="#A195BD" transform="translate(598,372)"/>
<path d="M0,0 L2,0 L5,3 L5,5 L-2,7 L-3,4 L-5,2 L0,2 Z " fill="#968CBD" transform="translate(367,650)"/>
<path d="M0,0 L8,0 L9,3 L6,4 L-4,3 L-4,1 Z " fill="#959EC6" transform="translate(640,626)"/>
<path d="M0,0 L3,0 L2,12 L1,12 L1,6 L-1,6 L-1,12 L-2,12 L-2,5 L0,5 Z " fill="#7F79A1" transform="translate(350,590)"/>
<path d="M0,0 L1,2 L4,3 L3,14 L2,14 L2,6 L0,6 L0,4 L-8,4 L-8,3 L0,3 Z " fill="#5A5A88" transform="translate(548,552)"/>
<path d="M0,0 L3,0 L3,5 L10,5 L11,8 L8,10 L2,6 L2,1 Z " fill="#8979A0" transform="translate(498,357)"/>
<path d="M0,0 L8,0 L8,4 L10,4 L9,6 L7,5 L7,7 L5,7 L5,5 L2,6 L2,4 L0,3 L7,3 L7,1 L0,1 Z " fill="#807695" transform="translate(458,332)"/>
<path d="M0,0 L1,4 L-1,12 L-4,12 L-5,15 L-4,8 L-2,6 Z " fill="#939EBA" transform="translate(674,696)"/>
<path d="M0,0 L3,1 L1,2 L2,3 L8,3 L4,5 L8,7 L2,7 L0,3 L-6,3 L-6,2 L0,2 Z " fill="#76718E" transform="translate(326,691)"/>
<path d="M0,0 L3,0 L3,2 L5,2 L5,5 L7,5 L6,8 L6,6 L-1,5 Z " fill="#9791B6" transform="translate(329,676)"/>
<path d="M0,0 L1,2 L5,2 L7,6 L1,5 L1,3 L-7,3 L-6,1 Z " fill="#8E83BF" transform="translate(395,655)"/>
<path d="M0,0 L6,0 L6,2 L1,6 L-1,6 L-1,2 L-3,2 L-4,5 L-4,1 Z " fill="#807CA1" transform="translate(302,469)"/>
<path d="M0,0 Z M-6,0 L0,1 L-3,4 L-7,6 L-10,7 L-8,1 Z " fill="#9D91BE" transform="translate(600,434)"/>
<path d="M0,0 L3,1 L4,7 L-1,7 L0,4 L-2,3 L-3,5 L-3,1 Z " fill="#8E91AD" transform="translate(356,350)"/>
<path d="M0,0 L5,0 L7,3 L5,3 L6,6 L4,6 L4,4 L0,4 L0,2 L-4,1 Z " fill="#7D7F98" transform="translate(520,730)"/>
<path d="M0,0 L3,0 L3,3 L1,4 L-1,9 L-3,9 L-4,11 L-4,6 Z " fill="#848FAB" transform="translate(683,696)"/>
<path d="M0,0 L3,0 L0,9 L-3,12 L-3,5 L-1,4 Z " fill="#96A1BF" transform="translate(672,694)"/>
<path d="M0,0 L5,3 L5,8 L1,8 L0,6 Z " fill="#938CB5" transform="translate(305,660)"/>
<path d="M0,0 L2,1 L-3,10 L-6,10 L-6,6 L-3,6 L-1,1 Z " fill="#9999B4" transform="translate(283,568)"/>
<path d="M0,0 L3,0 L3,2 L9,1 L14,3 L16,6 L11,5 L2,3 L2,1 Z " fill="#9D99B8" transform="translate(658,349)"/>
<path d="M0,0 L4,2 L2,2 L2,8 L0,8 L0,10 L-2,10 L-2,8 L-10,8 L-10,7 L-1,7 L-1,5 L1,5 Z " fill="#15151A" transform="translate(380,312)"/>
<path d="M0,0 L3,1 L3,4 L5,5 L-2,5 L-4,1 Z " fill="#878BA7" transform="translate(529,732)"/>
<path d="M0,0 L3,1 L0,6 L-6,5 L-2,1 Z " fill="#9699C7" transform="translate(554,688)"/>
<path d="M0,0 L9,0 L12,2 L6,4 L2,4 Z " fill="#8A80B4" transform="translate(368,643)"/>
<path d="M0,0 L1,3 L4,3 L5,15 L4,15 L2,8 L0,7 Z M-1,7 Z " fill="#92A0B6" transform="translate(703,625)"/>
<path d="M0,0 L1,0 L1,5 L3,5 L3,0 L5,0 L7,7 L5,7 L4,9 L0,6 Z " fill="#7F6E9B" transform="translate(452,390)"/>
<path d="M0,0 L5,0 L8,3 L8,5 L3,5 L3,3 L-3,2 Z " fill="#8C83A8" transform="translate(416,368)"/>
<path d="M0,0 L5,1 L8,2 L8,4 L13,4 L13,6 L1,4 Z " fill="#8980B8" transform="translate(381,647)"/>
<path d="M0,0 L3,0 L2,9 L0,9 L-1,1 Z M-2,5 Z " fill="#968FB8" transform="translate(336,606)"/>
<path d="M0,0 L2,0 L3,3 L6,4 L6,9 L2,8 L0,5 Z " fill="#8A85AD" transform="translate(341,493)"/>
<path d="M0,0 L8,0 L11,5 L9,5 L8,7 L2,4 L2,3 L7,3 L7,1 L0,1 Z " fill="#787398" transform="translate(324,468)"/>
<path d="M0,0 L2,0 L3,9 L1,13 L0,13 Z " fill="#8C7DAE" transform="translate(472,432)"/>
<path d="M0,0 L11,0 L11,5 L9,5 L9,2 L0,2 Z " fill="#9592B1" transform="translate(420,317)"/>
<path d="M0,0 L6,0 L6,2 L2,2 L2,4 L8,3 L6,4 L7,8 L5,7 L5,5 L1,5 Z " fill="#7B7698" transform="translate(309,681)"/>
<path d="M0,0 L6,0 L2,1 L2,4 L-9,2 L-9,1 Z " fill="#6E6BA7" transform="translate(518,643)"/>
<path d="M0,0 L8,0 L8,2 L12,2 L11,6 L11,3 L9,3 L9,6 L5,4 L7,3 L7,1 L0,2 Z " fill="#77718D" transform="translate(446,326)"/>
<path d="M0,0 L6,0 L7,3 L4,3 L4,5 L0,5 Z " fill="#8E8BA8" transform="translate(428,323)"/>
<path d="M0,0 L10,1 L12,3 L9,3 L7,2 L7,4 L0,2 Z " fill="#8C8CA8" transform="translate(371,321)"/>
<path d="M0,0 L7,1 L5,3 L-4,4 L-7,2 Z " fill="#968EBD" transform="translate(391,688)"/>
<path d="M0,0 L5,1 L5,5 L7,5 L6,7 L3,7 L4,2 L2,2 L1,6 L-1,5 Z " fill="#7D879B" transform="translate(703,519)"/>
<path d="M0,0 L14,0 L15,2 L7,3 L0,2 Z " fill="#9A93BE" transform="translate(368,688)"/>
<path d="M0,0 L2,3 L2,5 L4,5 L4,7 L2,7 L1,9 L-2,5 L0,5 L0,3 L-2,3 L-2,1 Z " fill="#857EA4" transform="translate(307,674)"/>
<path d="M0,0 L6,1 L7,3 L0,4 L-2,2 Z M6,0 Z " fill="#9C9AC9" transform="translate(554,456)"/>
<path d="M0,0 L2,0 L5,4 L4,9 L2,9 L1,4 L-2,3 L-2,1 Z " fill="#8F7DAD" transform="translate(451,386)"/>
<path d="M0,0 L5,1 L8,3 L4,5 L4,8 L2,8 L1,5 L2,2 Z M8,1 Z " fill="#9AA2CD" transform="translate(628,634)"/>
<path d="M0,0 L4,0 L4,2 L9,2 L9,4 L1,4 Z " fill="#787AB1" transform="translate(465,505)"/>
<path d="M0,0 L4,2 L2,2 L2,10 L0,10 L-1,6 Z " fill="#838BA6" transform="translate(689,497)"/>
<path d="M0,0 L4,2 L2,4 L-2,4 L-2,6 L-4,5 L-4,1 L0,2 Z " fill="#8F85A7" transform="translate(605,349)"/>
<path d="M0,0 L4,1 L5,4 L4,9 L2,9 L2,4 L0,4 Z " fill="#8F89AD" transform="translate(293,658)"/>
<path d="M0,0 L7,3 L8,6 L4,7 L6,6 L6,4 L1,6 L0,5 Z " fill="#818D9C" transform="translate(735,541)"/>
<path d="M0,0 L6,0 L5,4 L-2,3 Z " fill="#8B96A7" transform="translate(718,537)"/>
<path d="M0,0 L2,0 L2,3 L4,3 L4,7 L0,6 L-1,2 Z " fill="#8782AB" transform="translate(347,503)"/>
<path d="M0,0 L1,0 L1,6 L3,6 L2,10 L2,7 L0,7 L-1,11 L-1,9 L-3,9 L-3,6 L0,6 Z " fill="#767293" transform="translate(341,486)"/>
<path d="M0,0 L4,0 L4,4 L-2,7 Z " fill="#9291B0" transform="translate(628,416)"/>
<path d="M0,0 L6,2 L1,7 L0,3 Z M-1,7 L2,8 L-1,8 Z " fill="#9D94BB" transform="translate(609,412)"/>
<path d="M0,0 L6,0 L6,2 L-1,3 L-6,3 L-2,1 Z " fill="#B7A8D4" transform="translate(558,395)"/>
<path d="M0,0 L3,1 L0,4 L-4,6 L-9,6 L-5,4 L-4,2 Z " fill="#9BA8BB" transform="translate(639,729)"/>
<path d="M0,0 L2,0 L0,4 L-5,10 L-6,6 L-4,6 L-2,2 L0,2 Z " fill="#15171B" transform="translate(676,716)"/>
<path d="M0,0 L2,1 L1,6 L-3,6 L-3,1 Z " fill="#8387B7" transform="translate(611,610)"/>
<path d="M0,0 L1,0 L3,8 L0,10 L0,6 L-2,5 Z " fill="#8680AB" transform="translate(358,519)"/>
<path d="M0,0 L2,0 L2,5 L-2,7 L-4,6 L-4,4 L-1,3 Z " fill="#8C88AD" transform="translate(299,471)"/>
<path d="M0,0 L4,1 L5,5 L0,4 L-2,1 Z " fill="#8D8AA7" transform="translate(393,340)"/>
<path d="M0,0 L6,1 L6,4 L0,4 Z " fill="#8A8BAA" transform="translate(492,715)"/>
<path d="M0,0 L4,1 L-1,7 L-2,3 L-2,1 Z " fill="#9DA8D1" transform="translate(642,636)"/>
<path d="M0,0 L2,1 L1,3 L-1,3 L-1,7 L-7,8 L-4,4 L-2,4 L-2,2 L0,2 Z " fill="#5B5C8A" transform="translate(544,626)"/>
<path d="M0,0 L2,0 L2,3 L6,4 L2,4 L2,8 L0,8 L-1,10 L-2,7 L1,7 L1,4 L-1,3 Z " fill="#778291" transform="translate(712,578)"/>
<path d="M0,0 L5,0 L5,4 L0,5 Z " fill="#8E9AAA" transform="translate(730,541)"/>
<path d="M0,0 L2,1 L5,2 L4,7 L0,4 L0,2 L-4,1 Z " fill="#5D608B" transform="translate(516,506)"/>
<path d="M0,0 L9,1 L12,1 L12,3 L1,3 Z " fill="#8788A7" transform="translate(478,711)"/>
<path d="M0,0 L1,3 L3,3 L4,1 L4,3 L7,3 L6,6 L2,5 L0,4 Z " fill="#837F9B" transform="translate(282,638)"/>
<path d="M0,0 L1,3 L3,3 L2,7 L-2,6 L-1,2 Z " fill="#7D7DAF" transform="translate(470,462)"/>
<path d="M0,0 L2,0 L2,3 L7,3 L7,5 L0,5 Z " fill="#9284B1" transform="translate(437,378)"/>
<path d="M0,0 L2,0 L2,5 L-5,5 L-5,3 L0,3 Z " fill="#9488B3" transform="translate(417,374)"/>
<path d="M0,0 L2,2 L1,4 L-2,4 L-2,7 L-6,6 Z " fill="#9590AF" transform="translate(622,344)"/>
<path d="M0,0 L1,2 L4,2 L4,6 L0,7 Z " fill="#A5A8DC" transform="translate(592,678)"/>
<path d="M0,0 L2,0 L2,7 L0,9 L0,4 L-2,3 Z " fill="#827CA6" transform="translate(351,580)"/>
<path d="M0,0 L3,1 L3,5 L-1,7 Z " fill="#8B98AB" transform="translate(710,580)"/>
<path d="M0,0 L6,0 L5,2 L-3,4 L-3,1 Z " fill="#9687B1" transform="translate(540,377)"/>
<path d="M0,0 L2,4 L-3,3 L-3,7 L-7,5 L-4,4 L-4,2 L0,2 Z " fill="#796F8D" transform="translate(600,350)"/>
<path d="M0,0 L1,3 L7,3 L5,7 L0,4 Z " fill="#82819C" transform="translate(386,334)"/>
<path d="M0,0 L3,0 L2,4 L-1,5 L-3,4 L-3,2 L0,2 Z " fill="#8E93AD" transform="translate(364,333)"/>
<path d="M0,0 Z M-4,1 L5,2 L3,4 L-4,4 Z " fill="#9093C5" transform="translate(556,680)"/>
<path d="M0,0 L4,1 L3,6 L1,6 Z " fill="#8581BE" transform="translate(483,676)"/>
<path d="M0,0 L1,2 L7,1 L6,4 L0,4 L-1,2 Z " fill="#7774B3" transform="translate(516,650)"/>
<path d="M0,0 L9,1 L8,4 L0,2 Z " fill="#8F86B4" transform="translate(360,644)"/>
<path d="M0,0 L7,2 L7,4 L3,6 L3,2 L0,2 Z M7,1 Z M2,6 Z " fill="#9AA0D2" transform="translate(605,641)"/>
<path d="M0,0 L8,1 L8,3 L0,3 Z " fill="#877DB1" transform="translate(368,640)"/>
<path d="M0,0 L5,2 L4,4 L6,6 L2,6 L2,4 L0,4 Z " fill="#131218" transform="translate(360,624)"/>
<path d="M0,0 L3,1 L3,5 L1,5 L0,9 L-1,1 Z " fill="#030203" transform="translate(458,405)"/>
<path d="M0,0 L5,2 L4,5 L0,5 Z " fill="#8786A9" transform="translate(456,706)"/>
<path d="M0,0 L5,1 L4,4 L0,4 Z " fill="#9D95C4" transform="translate(360,660)"/>
<path d="M0,0 L2,1 L0,2 Z M-3,2 L1,3 L0,5 L-6,5 L-6,3 Z " fill="#8E95C2" transform="translate(622,624)"/>
<path d="M0,0 L3,0 L3,2 L1,2 L1,7 L-1,7 L-1,1 Z " fill="#8F8FAE" transform="translate(384,313)"/>
<path d="M0,0 L3,1 L2,4 L-2,5 L-2,1 Z " fill="#9AA6BE" transform="translate(661,712)"/>
<path d="M0,0 L1,2 L6,3 L7,5 L2,5 L2,3 L0,3 Z " fill="#8D89A8" transform="translate(347,698)"/>
<path d="M0,0 L4,2 L0,5 L-3,1 Z " fill="#756F8F" transform="translate(319,688)"/>
<path d="M0,0 Z M-2,1 L0,2 L-4,7 L-6,7 L-6,4 Z " fill="#8B8DC1" transform="translate(552,676)"/>
<path d="M0,0 L6,0 L3,4 L0,4 Z " fill="#7E81B6" transform="translate(509,480)"/>
<path d="M0,0 L4,0 L4,4 L0,4 Z " fill="#AB9AC6" transform="translate(592,412)"/>
<path d="M0,0 L5,1 L4,5 L4,2 L2,2 L2,5 L0,5 L-1,2 Z " fill="#7D6E94" transform="translate(509,365)"/>
<path d="M0,0 L8,1 L8,3 L1,2 Z " fill="#A7A4C1" transform="translate(656,356)"/>
<path d="M0,0 L2,1 L2,6 L0,6 L-1,4 L-5,2 L0,2 Z " fill="#8A87A4" transform="translate(677,343)"/>
<path d="M0,0 L5,0 L5,3 L-1,2 Z " fill="#8692A8" transform="translate(641,742)"/>
<path d="M0,0 L2,1 L1,5 L-3,5 L-1,1 Z " fill="#8390A4" transform="translate(655,732)"/>
<path d="M0,0 L2,0 L2,7 L-1,5 Z " fill="#B4BDDB" transform="translate(610,702)"/>
<path d="M0,0 L6,1 L5,3 L-1,2 Z " fill="#838FA7" transform="translate(699,688)"/>
<path d="M0,0 L7,0 L6,3 L-2,2 Z " fill="#726AA7" transform="translate(450,654)"/>
<path d="M0,0 L4,1 L4,4 L0,6 Z " fill="#979AD0" transform="translate(596,642)"/>
<path d="M0,0 L5,1 L4,3 L-2,2 Z " fill="#999DCC" transform="translate(616,636)"/>
<path d="M0,0 L2,0 L3,3 L0,4 L-4,2 Z " fill="#99A2CA" transform="translate(646,626)"/>
<path d="M0,0 L6,0 L7,2 L3,3 L-1,1 Z " fill="#96A0C7" transform="translate(665,611)"/>
<path d="M0,0 L1,4 L-2,6 L-2,4 L-4,3 Z M-2,3 Z " fill="#9986B8" transform="translate(516,396)"/>
<path d="M0,0 L4,0 L2,4 L-1,3 Z " fill="#8F88A8" transform="translate(617,341)"/>
<path d="M0,0 L6,0 L5,3 L0,3 Z " fill="#8983A7" transform="translate(316,686)"/>
<path d="M0,0 L4,2 L-1,4 L-1,1 Z M4,0 Z " fill="#9A8FBA" transform="translate(596,434)"/>
<path d="M0,0 L4,1 L1,1 L1,5 L-3,3 L0,2 Z " fill="#776E8B" transform="translate(604,346)"/>
<path d="M0,0 L6,0 L7,2 L3,3 Z " fill="#949AB3" transform="translate(534,721)"/>
<path d="M0,0 L2,0 L5,4 L3,5 L0,4 Z " fill="#B0BBD8" transform="translate(648,696)"/>
<path d="M0,0 L4,1 L1,4 L-1,4 Z " fill="#9B9ECB" transform="translate(563,690)"/>
<path d="M0,0 L2,3 L2,5 L-2,5 L-2,2 L0,2 Z " fill="#7071AB" transform="translate(555,564)"/>
<path d="M0,0 L4,0 L5,4 L0,2 Z " fill="#A1A7C1" transform="translate(602,721)"/>
<path d="M0,0 L3,0 L3,2 L-2,4 L-2,1 Z " fill="#9C9FD1" transform="translate(580,680)"/>
<path d="M0,0 L3,1 L2,4 L-2,3 L-2,1 Z " fill="#8A86C2" transform="translate(498,676)"/>
<path d="M0,0 L2,0 L2,2 L4,2 L4,4 L1,5 Z " fill="#8A84AA" transform="translate(299,670)"/>
<path d="M0,0 L6,1 L2,3 L0,2 Z M6,0 Z " fill="#7273AD" transform="translate(533,637)"/>
<path d="M0,0 L2,0 L0,4 L-2,5 L-2,1 Z " fill="#A6A4C9" transform="translate(298,578)"/>
<path d="M0,0 L3,1 L3,5 L1,5 Z " fill="#8C78A9" transform="translate(466,408)"/>
<path d="M0,0 L2,2 L0,8 L-1,8 L-1,1 Z " fill="#8781A2" transform="translate(392,358)"/>
<path d="M0,0 L5,0 L0,5 Z " fill="#8883A2" transform="translate(395,353)"/>
<path d="M0,0 L5,1 L5,3 L1,3 Z " fill="#8F8CA9" transform="translate(672,346)"/>
<path d="M0,0 L3,2 L3,6 L1,6 Z " fill="#8F8FAC" transform="translate(386,331)"/>
<path d="M0,0 L2,0 L1,4 L-3,4 L-2,2 Z " fill="#7B869B" transform="translate(671,718)"/>
<path d="M0,0 L3,1 L3,3 L-1,4 Z " fill="#8591A9" transform="translate(672,712)"/>
<path d="M0,0 L2,0 L2,2 L4,2 L4,4 L0,3 Z " fill="#8882A8" transform="translate(303,675)"/>
<path d="M0,0 L2,4 L1,6 L-1,6 Z " fill="#9694AD" transform="translate(274,617)"/>
<path d="M0,0 L4,0 L2,4 Z " fill="#7274A7" transform="translate(465,505)"/>
<path d="M0,0 L5,1 L5,4 L3,4 Z " fill="#9996C7" transform="translate(523,456)"/>
<path d="M0,0 L4,1 L4,3 L-1,3 Z " fill="#8788A6" transform="translate(677,427)"/>
<path d="M0,0 L2,2 L2,5 L0,5 L-1,1 Z " fill="#8C9AAD" transform="translate(711,678)"/>
<path d="M0,0 L2,0 L3,4 L0,4 Z " fill="#9382AF" transform="translate(511,367)"/>
<path d="M0,0 L1,2 L3,3 L-1,4 Z " fill="#8494A4" transform="translate(714,675)"/>
<path d="M0,0 L2,0 L1,4 L-1,4 Z " fill="#938EAE" transform="translate(288,643)"/>
<path d="M0,0 L3,0 L3,2 L-1,3 Z " fill="#909DAE" transform="translate(738,545)"/>
<path d="M0,0 L2,4 L2,6 L-1,5 Z " fill="#8F9BAD" transform="translate(712,536)"/>
<path d="M0,0 L3,0 L3,2 L-1,3 Z " fill="#8F9BAD" transform="translate(716,533)"/>
<path d="M0,0 L2,1 L1,5 L-1,1 Z " fill="#8791A5" transform="translate(709,526)"/>
<path d="M0,0 L3,1 L3,4 L1,4 Z " fill="#8F92AF" transform="translate(686,407)"/>
<path d="M0,0 L3,1 L-1,3 Z " fill="#999FCC" transform="translate(624,635)"/>
<path d="M0,0 L3,1 L3,3 L0,3 Z " fill="#8D8DAA" transform="translate(378,323)"/>
<path d="M0,0 L2,1 L2,3 L-1,3 Z " fill="#837CA6" transform="translate(351,602)"/>
<path d="M0,0 L3,0 L2,3 L0,2 Z " fill="#7274AB" transform="translate(549,555)"/>
<path d="M0,0 L2,2 L-1,3 Z " fill="#8B85A6" transform="translate(392,358)"/>
</svg>
