<?xml version="1.0" encoding="UTF-8"?>
<!-- Generator: visioncortex VTracer 0.6.4 -->
<svg version="1.1" xmlns="http://www.w3.org/2000/svg" width="1024" height="1024">
<path d="M0,0 L1024,0 L1024,1024 L0,1024 Z " fill="#000000" transform="translate(0,0)"/>
<path d="M0,0 L8,0 L8,2 L54,2 L54,4 L76,4 L76,6 L98,6 L98,8 L104,8 L104,10 L112,10 L114,13 L119,15 L120,18 L122,18 L124,23 L130,28 L130,30 L135,31 L136,32 L136,38 L140,38 L140,44 L142,44 L142,52 L144,52 L144,60 L148,62 L154,68 L154,72 L156,72 L158,77 L162,78 L162,80 L170,80 L170,82 L174,82 L174,86 L180,86 L182,91 L184,92 L184,98 L186,98 L186,102 L188,102 L188,122 L190,122 L190,126 L192,126 L192,132 L196,134 L196,142 L198,142 L198,148 L200,148 L200,156 L202,156 L202,164 L204,164 L204,174 L206,174 L206,182 L208,182 L208,186 L210,186 L210,194 L212,194 L212,234 L210,234 L210,240 L208,240 L208,248 L206,248 L206,252 L204,252 L204,258 L201,260 L200,266 L198,266 L198,274 L196,274 L196,288 L194,288 L194,292 L191,294 L190,300 L188,300 L188,312 L186,312 L186,316 L184,316 L184,320 L180,324 L176,324 L176,326 L172,326 L172,328 L162,328 L162,330 L155,332 L154,334 L150,334 L150,338 L145,340 L144,342 L140,342 L140,346 L136,346 L136,348 L131,350 L130,352 L126,352 L126,354 L120,354 L120,358 L112,358 L112,360 L92,360 L92,362 L86,362 L86,364 L76,364 L76,366 L68,366 L68,368 L64,368 L64,370 L60,370 L60,372 L56,372 L56,374 L52,374 L52,378 L46,378 L46,380 L34,380 L34,382 L20,382 L20,380 L8,380 L8,382 L2,382 L0,378 L-16,378 L-16,376 L-22,376 L-22,374 L-28,374 L-28,376 L-34,376 L-34,372 L-38,372 L-38,366 L-43,365 L-44,360 L-48,360 L-48,356 L-52,356 L-52,354 L-60,354 L-60,350 L-68,350 L-68,348 L-72,348 L-72,346 L-76,346 L-76,344 L-82,344 L-82,342 L-88,342 L-88,344 L-94,344 L-94,342 L-104,342 L-104,340 L-108,338 L-108,334 L-112,334 L-112,330 L-116,330 L-116,328 L-120,328 L-122,323 L-128,318 L-128,314 L-130,314 L-130,310 L-132,310 L-132,302 L-128,302 L-128,300 L-130,300 L-130,292 L-132,292 L-132,288 L-134,288 L-134,282 L-136,282 L-136,270 L-138,270 L-138,262 L-140,262 L-140,158 L-138,158 L-138,154 L-136,154 L-136,138 L-132,138 L-132,114 L-134,114 L-134,108 L-132,108 L-132,94 L-128,94 L-128,88 L-124,86 L-124,82 L-120,82 L-119,77 L-116,76 L-115,71 L-112,70 L-112,60 L-108,58 L-108,46 L-106,46 L-106,36 L-100,30 L-92,30 L-92,28 L-88,28 L-88,26 L-76,26 L-76,22 L-68,22 L-68,20 L-66,20 L-66,16 L-60,16 L-60,14 L-52,14 L-52,10 L-47,7 L-46,6 L-32,6 L-30,2 L0,2 Z " fill="#BA64C5" transform="translate(506,336)"/>
<path d="M0,0 L8,0 L8,2 L54,2 L54,4 L76,4 L76,6 L98,6 L98,8 L104,8 L104,10 L112,10 L114,13 L119,15 L120,18 L122,18 L124,23 L130,28 L130,30 L135,31 L136,32 L136,38 L140,38 L140,44 L142,44 L142,52 L144,52 L144,60 L148,62 L154,68 L154,72 L156,72 L158,77 L162,78 L162,80 L170,80 L170,82 L174,82 L174,86 L180,86 L182,91 L184,92 L184,98 L186,98 L186,102 L188,102 L188,122 L190,122 L190,126 L192,126 L192,132 L196,134 L196,142 L198,142 L198,148 L200,148 L200,156 L202,156 L202,164 L204,164 L204,174 L206,174 L206,182 L208,182 L208,186 L210,186 L210,194 L212,194 L212,234 L210,234 L210,240 L208,240 L208,248 L206,248 L206,252 L204,252 L204,258 L201,260 L200,266 L198,266 L198,274 L196,274 L196,288 L194,288 L194,292 L191,294 L190,300 L188,300 L188,312 L186,312 L186,316 L184,316 L184,320 L180,324 L176,324 L176,326 L172,326 L172,328 L162,328 L162,330 L155,332 L154,334 L150,334 L150,338 L145,340 L144,342 L140,342 L140,346 L136,346 L136,348 L131,350 L130,352 L126,352 L126,354 L120,354 L120,358 L112,358 L112,360 L92,360 L92,362 L86,362 L86,364 L76,364 L76,366 L68,366 L68,368 L64,368 L64,370 L60,370 L60,372 L56,372 L56,374 L52,374 L52,378 L46,378 L46,380 L34,380 L34,382 L20,382 L20,380 L8,380 L8,382 L2,382 L0,378 L-16,378 L-16,376 L-22,376 L-22,374 L-28,374 L-28,376 L-34,376 L-34,372 L-38,372 L-38,366 L-43,365 L-44,360 L-48,360 L-48,356 L-52,356 L-52,354 L-60,354 L-60,350 L-68,350 L-68,348 L-72,348 L-72,346 L-76,346 L-76,344 L-82,344 L-82,342 L-88,342 L-88,344 L-94,344 L-94,342 L-104,342 L-104,340 L-108,338 L-108,334 L-112,334 L-112,330 L-116,330 L-116,328 L-120,328 L-122,323 L-128,318 L-128,314 L-130,314 L-130,310 L-132,310 L-132,302 L-128,302 L-128,300 L-130,300 L-130,292 L-132,292 L-132,288 L-134,288 L-134,282 L-136,282 L-136,270 L-138,270 L-138,262 L-140,262 L-140,158 L-138,158 L-138,154 L-136,154 L-136,138 L-132,138 L-132,114 L-134,114 L-134,108 L-132,108 L-132,94 L-128,94 L-128,88 L-124,86 L-124,82 L-120,82 L-119,77 L-116,76 L-115,71 L-112,70 L-112,60 L-108,58 L-108,46 L-106,46 L-106,36 L-100,30 L-92,30 L-92,28 L-88,28 L-88,26 L-76,26 L-76,22 L-68,22 L-68,20 L-66,20 L-66,16 L-60,16 L-60,14 L-52,14 L-52,10 L-47,7 L-46,6 L-32,6 L-30,2 L0,2 Z M3,4 L0,7 L-31,8 L-32,9 L-43,10 L-51,15 L-52,17 L-63,20 L-65,23 L-67,30 L-69,29 L-72,30 L-73,28 L-76,31 L-91,32 L-94,34 L-98,35 L-102,39 L-103,46 L-104,47 L-105,58 L-106,63 L-106,68 L-106,70 L-108,75 L-114,80 L-119,83 L-122,90 L-119,93 L-122,96 L-120,100 L-121,101 L-122,108 L-127,108 L-130,112 L-128,112 L-128,124 L-126,124 L-125,115 L-125,124 L-128,131 L-128,136 L-126,136 L-130,141 L-130,152 L-130,154 L-134,158 L-134,176 L-132,176 L-134,182 L-134,260 L-130,260 L-130,264 L-126,264 L-126,299 L-122,301 L-122,303 L-126,305 L-126,313 L-123,317 L-121,317 L-121,319 L-119,319 L-118,324 L-112,325 L-110,324 L-110,329 L-106,328 L-106,333 L-104,333 L-102,338 L-93,339 L-92,336 L-82,335 L-81,337 L-80,334 L-78,334 L-77,337 L-74,335 L-74,332 L-72,332 L-72,335 L-67,338 L-66,341 L-64,341 L-63,344 L-50,344 L-49,346 L-46,344 L-46,351 L-41,352 L-39,351 L-38,347 L-40,339 L-43,338 L-43,337 L-53,337 L-54,332 L-54,328 L-58,328 L-58,320 L-42,320 L-42,322 L-40,322 L-40,324 L-32,324 L-32,320 L-30,320 L-30,323 L-27,324 L-10,324 L-10,326 L-8,326 L-10,332 L-10,337 L-6,337 L-4,337 L-4,335 L2,337 L9,335 L14,334 L15,335 L22,335 L22,337 L24,337 L24,335 L26,335 L27,337 L32,336 L33,334 L35,337 L38,337 L40,337 L40,335 L46,336 L49,335 L50,337 L55,336 L70,335 L82,333 L83,330 L87,326 L88,329 L102,328 L106,325 L116,323 L124,318 L136,317 L137,305 L137,308 L138,317 L142,317 L143,311 L150,308 L148,313 L163,314 L156,316 L149,321 L148,325 L144,330 L150,328 L150,325 L168,324 L174,322 L174,320 L178,319 L178,312 L180,312 L180,310 L182,310 L181,307 L178,308 L178,304 L176,304 L178,300 L178,291 L181,290 L181,280 L182,278 L180,270 L177,272 L178,264 L181,264 L182,256 L181,254 L180,248 L182,248 L184,242 L185,237 L184,233 L185,231 L184,228 L183,229 L181,227 L179,228 L178,226 L180,226 L181,223 L183,222 L186,217 L185,199 L184,193 L186,193 L185,189 L183,187 L185,183 L185,161 L183,165 L182,163 L182,151 L183,142 L181,129 L182,128 L182,109 L179,107 L178,95 L177,93 L168,92 L167,89 L166,88 L154,88 L153,86 L151,95 L149,94 L150,83 L151,78 L148,68 L142,64 L141,60 L139,56 L138,57 L135,54 L136,50 L137,45 L135,40 L134,44 L130,51 L131,57 L130,62 L131,64 L134,64 L135,76 L134,81 L132,81 L132,79 L122,79 L122,74 L120,74 L119,69 L119,65 L118,64 L122,64 L123,48 L122,30 L120,30 L118,20 L111,15 L111,14 L104,14 L104,12 L97,10 L91,10 L90,11 L83,12 L82,10 L75,8 L70,8 L70,10 L68,10 L68,8 L29,8 L28,6 L8,6 L8,4 Z M-71,26 L-72,28 L-70,28 Z M180,269 Z M148,322 Z M136,58 Z M180,230 L182,231 Z M181,236 Z M182,238 L184,239 L182,240 Z M180,240 L182,241 Z M178,250 L180,251 Z M176,280 L178,280 L178,282 L180,283 L177,285 Z M164,312 Z M106,323 Z M14,332 Z M-57,336 Z " fill="#904B9D" transform="translate(506,336)"/>
<path d="M0,0 L2,1 L0,8 L2,9 L1,13 L5,13 L5,7 L9,6 L10,2 L11,4 L13,4 L12,8 L27,9 L26,11 L19,13 L13,17 L12,21 L7,27 L2,28 L-5,33 L-11,34 L-11,32 L-15,36 L-19,36 L-19,39 L-21,39 L-21,41 L-26,44 L-30,45 L-43,45 L-54,46 L-55,47 L-75,49 L-82,50 L-85,53 L-98,53 L-99,55 L-103,55 L-103,49 L-112,50 L-118,51 L-119,53 L-123,52 L-126,51 L-135,55 L-139,55 L-139,53 L-144,52 L-143,49 L-167,49 L-176,47 L-177,41 L-178,36 L-181,34 L-191,34 L-191,32 L-193,31 L-191,31 L-192,28 L-191,24 L-195,24 L-195,16 L-191,15 L-179,16 L-179,18 L-177,18 L-177,20 L-169,20 L-169,16 L-167,16 L-167,19 L-147,20 L-147,22 L-145,22 L-145,27 L-147,33 L-145,33 L-144,31 L-141,33 L-141,31 L-135,32 L-128,30 L-123,29 L-122,30 L-115,31 L-115,33 L-113,33 L-113,31 L-109,31 L-105,32 L-104,29 L-102,32 L-99,32 L-97,33 L-97,31 L-91,31 L-89,32 L-88,30 L-87,33 L-82,31 L-67,30 L-63,29 L-55,29 L-54,25 L-49,21 L-47,24 L-35,23 L-31,20 L-21,18 L-13,13 L-2,12 L-1,1 Z M11,18 Z M27,8 Z M-31,19 Z M-123,28 Z M-194,32 Z " fill="#A35AB1" transform="translate(643,640)"/>
<path d="M0,0 L3,0 L5,9 L7,17 L11,19 L11,21 L9,21 L11,23 L13,24 L16,20 L18,28 L18,46 L20,50 L23,50 L23,46 L25,46 L24,50 L27,50 L27,102 L20,104 L18,113 L13,114 L13,112 L10,110 L7,116 L6,121 L5,129 L6,138 L4,152 L4,157 L2,157 L0,170 L-4,171 L-4,167 L-6,167 L-5,163 L-5,154 L-1,153 L-2,143 L-1,141 L-3,134 L-5,136 L-5,132 L-4,127 L-1,127 L-1,120 L-2,117 L-2,111 L0,111 L0,106 L2,104 L2,97 L0,99 L1,95 L1,93 L-1,91 L-4,92 L-4,89 L-2,89 L-1,85 L1,85 L2,81 L3,80 L2,62 L2,56 L4,56 L2,52 L0,52 L2,46 L2,28 L0,30 L-1,22 L-1,14 Z M13,103 L12,109 L15,105 L15,103 Z M14,109 L15,111 Z M-2,132 Z M-2,93 L0,94 Z M-1,99 Z M0,101 L2,102 L0,103 Z M-2,103 L0,104 Z M-4,113 L-2,114 Z M12,114 Z M-6,143 L-4,143 L-4,145 L-2,146 L-5,148 Z " fill="#9C4FA3" transform="translate(688,473)"/>
<path d="M0,0 L8,0 L8,2 L54,2 L54,4 L76,4 L76,6 L98,6 L98,8 L104,8 L104,10 L112,10 L114,13 L119,15 L120,18 L122,18 L124,23 L130,28 L130,30 L135,31 L136,32 L136,38 L134,34 L132,39 L130,38 L130,34 L126,32 L121,26 L118,26 L117,20 L110,16 L110,15 L104,14 L104,12 L98,12 L97,11 L91,11 L90,12 L81,12 L81,10 L76,10 L70,8 L70,10 L68,10 L68,8 L52,9 L29,9 L28,6 L8,6 L8,4 L2,6 L0,8 L-31,9 L-32,10 L-43,11 L-50,15 L-52,18 L-63,21 L-65,28 L-68,31 L-73,29 L-76,32 L-91,33 L-94,35 L-98,36 L-101,39 L-102,46 L-103,47 L-104,58 L-105,63 L-106,68 L-104,69 L-107,75 L-114,81 L-118,83 L-121,90 L-121,92 L-118,93 L-121,96 L-121,98 L-119,100 L-120,101 L-121,110 L-122,108 L-128,110 L-128,112 L-128,124 L-126,124 L-126,115 L-124,112 L-124,124 L-127,131 L-128,136 L-126,136 L-128,140 L-129,145 L-131,154 L-135,157 L-135,155 L-137,155 L-136,159 L-139,159 L-139,261 L-137,261 L-137,256 L-136,256 L-137,270 L-138,270 L-138,262 L-140,262 L-140,158 L-138,158 L-138,154 L-136,154 L-136,138 L-132,138 L-132,114 L-134,114 L-134,108 L-132,108 L-132,94 L-128,94 L-128,88 L-124,86 L-124,82 L-120,82 L-119,77 L-116,76 L-115,71 L-112,70 L-112,60 L-108,58 L-108,46 L-106,46 L-106,36 L-100,30 L-92,30 L-92,28 L-88,28 L-88,26 L-76,26 L-76,22 L-68,22 L-68,20 L-66,20 L-66,16 L-60,16 L-60,14 L-52,14 L-52,10 L-47,7 L-46,6 L-32,6 L-30,2 L0,2 Z M-71,26 L-72,28 L-70,28 Z " fill="#884785" transform="translate(506,336)"/>
<path d="M0,0 Z M-14,1 L0,1 L-1,3 L-8,5 L-14,9 L-15,13 L-20,19 L-25,20 L-32,25 L-38,26 L-38,24 L-42,28 L-46,28 L-46,31 L-48,31 L-48,33 L-53,36 L-57,37 L-70,37 L-81,38 L-82,39 L-102,41 L-109,42 L-112,45 L-125,45 L-126,47 L-130,47 L-130,41 L-139,42 L-145,43 L-146,45 L-150,44 L-153,43 L-162,47 L-166,47 L-166,45 L-171,44 L-170,41 L-194,41 L-203,39 L-204,33 L-205,28 L-208,26 L-218,26 L-218,24 L-220,23 L-218,23 L-219,20 L-218,16 L-222,16 L-222,8 L-218,7 L-206,8 L-206,10 L-204,10 L-204,12 L-206,12 L-204,23 L-202,23 L-202,25 L-200,25 L-200,22 L-198,22 L-198,24 L-194,23 L-194,25 L-189,26 L-189,29 L-184,28 L-186,31 L-178,33 L-178,35 L-170,36 L-118,36 L-116,32 L-110,33 L-109,34 L-94,34 L-94,32 L-82,32 L-82,30 L-70,27 L-62,27 L-61,24 L-50,24 L-50,22 L-46,20 L-42,20 L-41,16 L-34,17 L-32,13 L-29,13 L-29,11 L-24,11 L-22,7 L-15,5 Z M-16,10 Z M-221,24 Z " fill="#9854A7" transform="translate(670,648)"/>
<path d="M0,0 L5,5 L10,9 L11,13 L14,8 L15,8 L15,13 L20,13 L20,19 L22,19 L22,27 L24,27 L24,35 L28,37 L34,43 L34,47 L36,47 L38,52 L42,53 L42,55 L50,55 L50,57 L54,57 L54,61 L60,61 L62,66 L64,67 L64,73 L66,73 L66,77 L68,77 L68,97 L70,97 L70,101 L72,101 L72,107 L75,108 L75,118 L77,118 L77,124 L79,124 L79,131 L75,138 L71,135 L71,133 L73,133 L71,130 L68,130 L65,114 L65,112 L60,112 L62,111 L60,103 L62,103 L61,86 L62,84 L58,82 L57,73 L58,70 L54,68 L48,67 L46,63 L34,63 L32,71 L28,69 L29,58 L30,53 L27,43 L21,40 L20,36 L19,32 L17,33 L17,30 L14,29 L15,25 L16,20 L15,16 L14,21 L11,26 L12,32 L11,39 L14,39 L16,51 L14,56 L12,56 L12,54 L2,54 L2,49 L0,49 L-1,44 L-3,43 L-1,40 L-3,40 L-2,38 L2,39 L2,5 L0,5 Z M16,33 Z " fill="#8E4E9A" transform="translate(626,361)"/>
<path d="M0,0 L3,1 L-2,6 L-3,24 L-1,24 L-2,30 L-2,72 L-3,108 L1,108 L1,112 L5,112 L6,117 L6,147 L9,149 L9,151 L6,153 L6,161 L10,165 L10,167 L12,167 L13,172 L21,172 L23,175 L25,176 L25,181 L27,181 L30,185 L38,186 L39,184 L44,182 L50,184 L51,182 L53,182 L55,184 L57,180 L59,180 L59,183 L64,185 L65,189 L67,189 L68,191 L81,192 L85,192 L86,200 L82,200 L82,198 L80,198 L80,196 L64,197 L64,195 L60,195 L60,193 L56,193 L55,191 L43,190 L43,192 L37,192 L37,190 L27,190 L27,188 L23,186 L23,182 L19,182 L19,178 L15,178 L15,176 L11,176 L9,171 L3,166 L3,162 L1,162 L1,158 L-1,158 L-1,150 L3,150 L3,148 L1,148 L1,140 L-1,140 L-1,136 L-3,136 L-3,130 L-5,130 L-6,109 L-8,109 L-8,7 L-5,7 L-6,3 L-2,3 Z " fill="#924C99" transform="translate(375,488)"/>
<path d="M0,0 L1,0 L1,8 L3,8 L3,14 L5,14 L5,22 L7,22 L7,30 L9,30 L9,40 L11,40 L11,48 L13,48 L13,52 L15,52 L15,60 L17,60 L17,100 L15,100 L15,106 L13,106 L13,114 L11,114 L11,118 L9,118 L9,124 L6,126 L5,132 L3,132 L3,140 L1,140 L1,154 L-1,154 L-1,158 L-4,160 L-5,166 L-7,166 L-7,178 L-9,178 L-9,182 L-11,182 L-11,186 L-15,190 L-19,190 L-19,192 L-23,192 L-23,194 L-33,194 L-33,196 L-40,198 L-41,200 L-45,199 L-42,199 L-41,194 L-34,195 L-34,193 L-39,193 L-37,191 L-27,189 L-26,188 L-21,188 L-21,186 L-18,185 L-17,178 L-15,178 L-15,176 L-13,176 L-14,170 L-12,162 L-11,160 L-9,160 L-10,154 L-8,138 L-9,130 L-8,120 L-6,118 L-4,113 L-1,113 L1,115 L5,116 L6,107 L11,106 L11,100 L12,100 L12,105 L14,105 L13,100 L13,60 L14,53 L11,53 L12,49 L10,49 L10,53 L7,53 L4,49 L4,31 L3,29 L4,15 L2,15 L2,22 L1,22 L1,14 L2,9 L0,9 L0,14 L-1,14 Z M-1,117 Z M0,106 L2,106 L0,112 L-1,108 Z M1,112 Z " fill="#974A9E" transform="translate(701,470)"/>
<path d="M0,0 L2,1 L0,8 L2,9 L0,14 L-5,15 L-5,17 L-13,19 L-22,24 L-29,26 L-37,29 L-47,31 L-53,33 L-59,34 L-60,32 L-62,34 L-73,33 L-80,34 L-86,36 L-87,39 L-90,40 L-116,40 L-131,39 L-141,42 L-145,40 L-145,31 L-141,33 L-141,31 L-135,32 L-128,30 L-123,29 L-122,30 L-115,31 L-115,33 L-113,33 L-113,31 L-109,31 L-105,32 L-104,29 L-102,32 L-99,32 L-97,33 L-97,31 L-91,31 L-89,32 L-88,30 L-87,33 L-82,31 L-67,30 L-63,29 L-55,29 L-54,25 L-49,21 L-47,24 L-35,23 L-31,20 L-21,18 L-13,13 L-2,12 L-1,1 Z M-65,32 Z M-31,19 Z M-123,28 Z " fill="#A95DB8" transform="translate(643,640)"/>
<path d="M0,0 L8,0 L8,2 L54,2 L54,4 L76,4 L76,6 L98,6 L98,8 L104,8 L104,10 L112,10 L114,13 L119,15 L120,18 L122,18 L124,23 L130,28 L130,30 L135,31 L136,32 L136,38 L134,34 L132,39 L130,38 L130,34 L126,32 L121,26 L118,26 L117,20 L110,16 L110,15 L104,14 L104,12 L98,12 L97,11 L91,11 L90,12 L81,12 L81,10 L76,10 L70,8 L70,10 L68,10 L68,8 L52,9 L29,9 L28,6 L8,6 L8,4 L2,6 L0,8 L-18,8 L-17,6 L-29,5 L-29,3 L-1,2 Z " fill="#98559A" transform="translate(506,336)"/>
<path d="M0,0 L10,0 L10,6 L8,6 L8,8 L2,8 L2,24 L0,24 L0,28 L-7,34 L-8,38 L-12,38 L-12,40 L-20,40 L-20,36 L-24,36 L-24,26 L-22,26 L-22,22 L-20,22 L-20,16 L-16,16 L-16,10 L-12,10 L-12,6 L-8,6 L-8,4 L-4,4 L-4,2 L0,2 Z " fill="#370C38" transform="translate(708,754)"/>
<path d="M0,0 L5,5 L10,9 L11,13 L14,8 L15,8 L16,13 L19,14 L19,20 L21,20 L21,27 L19,32 L17,33 L17,30 L14,29 L15,25 L16,20 L15,16 L14,21 L11,26 L12,32 L11,39 L14,39 L16,51 L14,56 L12,56 L12,54 L2,54 L2,49 L0,49 L-1,44 L-3,43 L-1,40 L-3,40 L-2,38 L2,39 L2,5 L0,5 Z M16,33 Z " fill="#9755A2" transform="translate(626,361)"/>
<path d="M0,0 L3,0 L5,9 L7,17 L11,19 L11,21 L9,21 L11,23 L12,23 L12,31 L13,38 L12,44 L12,53 L9,60 L9,74 L9,78 L7,82 L5,82 L5,84 L3,84 L3,74 L2,62 L2,56 L4,56 L2,52 L0,52 L2,46 L2,28 L0,30 L-1,22 L-1,14 Z " fill="#A050A8" transform="translate(688,473)"/>
<path d="M0,0 L38,0 L38,14 L20,15 L18,18 L12,18 L12,16 L6,16 L6,14 L-4,14 L-4,8 L0,8 Z " fill="#411247" transform="translate(462,784)"/>
<path d="M0,0 L7,0 L4,2 L7,3 L7,5 L0,5 L-1,9 L-4,10 L-5,13 L-17,14 L-21,20 L-19,21 L-19,23 L-29,23 L-37,26 L-38,27 L-66,29 L-76,32 L-76,29 L-81,31 L-84,33 L-102,33 L-100,32 L-99,29 L-85,27 L-72,26 L-71,25 L-60,24 L-44,24 L-41,21 L-38,21 L-38,19 L-36,19 L-36,16 L-32,16 L-30,12 L-27,13 L-20,11 L-13,6 L-8,5 L-4,4 L-4,1 Z " fill="#934FA0" transform="translate(660,660)"/>
<path d="M0,0 L1,4 L-4,6 L-5,8 L-9,8 L-9,12 L-13,12 L-13,14 L-18,16 L-19,18 L-23,18 L-23,20 L-29,20 L-29,24 L-37,24 L-37,26 L-57,26 L-57,28 L-63,28 L-63,30 L-73,30 L-73,32 L-81,32 L-81,31 L-74,31 L-74,29 L-81,29 L-81,28 L-64,29 L-64,27 L-71,27 L-71,22 L-61,18 L-33,16 L-31,14 L-24,12 L-16,12 L-14,13 L-14,11 L-17,10 L-12,3 L-3,2 L0,3 Z " fill="#8A4D9C" transform="translate(655,670)"/>
<path d="M0,0 L2,0 L2,3 L22,4 L22,6 L24,6 L24,11 L21,17 L20,21 L22,21 L24,28 L18,27 L18,25 L9,24 L10,21 L7,21 L7,18 L2,17 L2,15 L-2,16 L-2,14 L-4,14 L-4,17 L-6,17 L-6,15 L-8,15 L-10,4 L0,4 Z " fill="#AB59B7" transform="translate(474,656)"/>
<path d="M0,0 L13,1 L13,3 L15,3 L15,5 L13,5 L15,16 L17,16 L17,18 L19,18 L19,15 L21,15 L21,17 L25,16 L25,18 L30,19 L30,22 L35,21 L33,24 L41,26 L41,28 L43,29 L33,30 L28,29 L20,27 L20,25 L15,26 L14,21 L11,19 L1,19 L1,17 L-1,16 L1,16 L0,13 L1,9 L-3,9 L-3,1 Z M-2,17 Z " fill="#A552B0" transform="translate(451,655)"/>
<path d="M0,0 L2,0 L2,2 L15,3 L15,5 L17,4 L83,4 L85,0 L91,1 L92,2 L107,2 L107,0 L113,0 L113,4 L111,4 L111,1 L105,4 L92,6 L89,7 L89,5 L82,6 L81,7 L74,7 L73,8 L55,9 L39,9 L33,8 L31,9 L7,9 L-2,7 L-2,1 Z " fill="#9D58AB" transform="translate(469,680)"/>
<path d="M0,0 L4,1 L1,1 L2,18 L4,18 L4,30 L6,30 L6,21 L8,18 L8,30 L5,37 L4,42 L6,42 L4,46 L3,51 L1,60 L-3,63 L-3,61 L-5,61 L-4,65 L-7,65 L-7,167 L-5,167 L-5,162 L-4,162 L-5,176 L-6,176 L-6,168 L-8,168 L-8,64 L-6,64 L-6,60 L-4,60 L-4,44 L0,44 L0,20 L-2,20 L-2,14 L0,14 Z " fill="#79407F" transform="translate(374,430)"/>
<path d="M0,0 L1,0 L1,8 L3,8 L3,14 L5,14 L5,22 L7,22 L7,30 L9,30 L9,40 L11,40 L11,48 L13,48 L13,52 L15,52 L15,60 L17,60 L17,100 L15,100 L15,106 L13,106 L13,114 L12,114 L11,100 L12,100 L12,105 L14,105 L13,100 L13,60 L14,53 L11,53 L12,49 L10,49 L10,53 L7,53 L4,49 L4,31 L3,29 L4,15 L2,15 L2,22 L1,22 L1,14 L2,9 L0,9 L0,14 L-1,14 Z " fill="#85448A" transform="translate(701,470)"/>
<path d="M0,0 L2,0 L1,24 L6,24 L6,30 L10,31 L10,40 L12,40 L12,46 L14,46 L14,53 L10,60 L6,57 L6,55 L8,55 L6,52 L3,52 L0,36 L0,34 L-5,34 L-3,33 L-5,25 L-3,25 L-4,8 L-2,6 L-1,9 Z " fill="#924A9B" transform="translate(691,439)"/>
<path d="M0,0 L8,0 L8,2 L13,3 L14,8 L18,10 L20,12 L20,20 L16,20 L16,22 L2,22 L-2,18 L-2,12 L0,12 Z " fill="#310D36" transform="translate(746,350)"/>
<path d="M0,0 L8,0 L8,2 L54,2 L54,4 L76,4 L76,6 L98,6 L98,8 L104,8 L104,10 L112,10 L114,13 L119,15 L120,18 L122,18 L124,23 L130,28 L130,30 L135,31 L136,32 L136,38 L134,34 L132,39 L130,38 L130,34 L126,32 L121,26 L118,26 L117,20 L110,16 L110,15 L104,14 L104,12 L98,12 L97,11 L91,11 L86,12 L88,11 L88,9 L85,10 L85,7 L75,7 L75,5 L53,5 L53,3 L7,3 L7,1 L0,1 Z " fill="#744479" transform="translate(506,336)"/>
<path d="M0,0 L5,0 L12,2 L7,6 L-2,9 L-6,10 L-8,12 L-22,13 L-23,10 L-25,13 L-39,13 L-42,10 L-46,10 L-46,8 L-38,6 L-38,8 L-30,5 L-14,3 L-8,1 Z M-4,7 Z M-51,10 L-46,10 L-46,11 L-51,11 Z " fill="#B161C3" transform="translate(616,652)"/>
<path d="M0,0 L2,0 L2,3 L7,5 L8,9 L10,9 L11,11 L24,12 L28,12 L29,20 L25,20 L25,18 L23,18 L23,16 L7,17 L7,15 L3,15 L3,13 L-1,13 L-2,11 L-8,11 L-8,9 L-29,9 L-29,7 L-19,6 L-18,4 L-13,2 L-7,4 L-6,2 L-4,2 L-2,4 Z " fill="#974D9B" transform="translate(432,668)"/>
<path d="M0,0 L1,0 L1,7 L3,7 L3,2 L4,2 L6,8 L8,9 L8,11 L5,13 L5,21 L9,25 L9,27 L11,27 L12,32 L20,32 L22,35 L24,36 L24,41 L26,41 L29,45 L36,46 L36,47 L27,47 L27,49 L42,48 L48,49 L48,50 L42,50 L42,52 L36,52 L36,50 L26,50 L26,48 L22,46 L22,42 L18,42 L18,38 L14,38 L14,36 L10,36 L8,31 L2,26 L2,22 L0,22 L0,18 L-2,18 L-2,10 L2,10 L2,8 L0,8 Z " fill="#813F84" transform="translate(376,628)"/>
<path d="M0,0 L4,0 L4,6 L6,6 L6,14 L8,14 L8,22 L12,24 L18,30 L18,34 L20,34 L21,41 L25,41 L25,43 L23,45 L22,50 L18,50 L16,58 L12,56 L13,45 L14,40 L11,30 L5,27 L4,23 L3,20 L5,7 L3,7 L3,14 L2,14 L2,5 L3,1 Z " fill="#90569A" transform="translate(642,374)"/>
<path d="M0,0 L14,0 L14,8 L9,12 L-10,12 L-10,10 L-16,10 L-16,4 L-10,4 L-10,2 L0,2 Z " fill="#340C34" transform="translate(744,740)"/>
<path d="M0,0 L1,0 L1,14 L-1,14 L-1,18 L-4,20 L-5,26 L-7,26 L-7,38 L-9,38 L-9,42 L-11,42 L-11,46 L-15,50 L-19,50 L-19,52 L-23,52 L-23,54 L-33,54 L-33,56 L-40,58 L-41,60 L-45,59 L-42,59 L-41,54 L-34,55 L-34,53 L-39,53 L-37,51 L-27,49 L-26,48 L-21,48 L-21,46 L-18,45 L-17,38 L-15,38 L-15,36 L-13,36 L-13,34 L-11,34 L-11,26 L-10,26 L-10,37 L-8,37 L-9,21 L-8,25 L-6,25 L-8,15 L-5,13 L-5,17 L-2,17 L-3,8 L-2,8 L-2,13 L0,13 Z " fill="#924499" transform="translate(701,610)"/>
<path d="M0,0 L2,1 L-2,4 Z M-9,3 L-2,4 L-5,6 L-6,9 L-12,11 L-14,15 L-18,16 L-18,18 L-22,19 L-54,20 L-50,19 L-50,17 L-38,14 L-30,14 L-29,11 L-18,11 L-18,9 L-14,7 L-10,7 Z " fill="#9B56AD" transform="translate(638,661)"/>
<path d="M0,0 L23,1 L23,2 L18,2 L18,4 L25,4 L26,1 L26,5 L18,5 L18,7 L-2,7 L-2,9 L-8,9 L-8,11 L-18,11 L-18,13 L-26,13 L-26,12 L-19,12 L-19,10 L-26,10 L-26,9 L-9,10 L-9,8 L-16,8 L-16,3 L-12,2 L-12,4 L-8,2 Z M-12,1 Z " fill="#7E468E" transform="translate(600,689)"/>
<path d="M0,0 L2,0 L3,8 L6,10 L5,17 L6,19 L4,24 L3,29 L5,29 L5,44 L4,46 L6,46 L4,50 L1,51 L0,53 L0,49 L2,49 L2,45 L-1,44 L1,43 L-1,36 L1,26 L-1,26 L-1,15 L-3,9 L-2,1 Z " fill="#A15AAD" transform="translate(652,422)"/>
<path d="M0,0 L7,0 L6,16 L8,16 L7,22 L8,24 L8,30 L6,30 L5,38 L3,42 L4,49 L2,54 L0,51 L-1,47 L-3,49 L-3,45 L-2,40 L1,40 L1,33 L0,30 L0,24 L2,24 L2,19 L4,17 L4,10 L2,12 L3,8 L3,6 L1,4 L-2,5 L-2,2 L0,2 Z M3,36 Z M0,45 Z M0,6 L2,7 Z M1,12 Z M2,14 L4,15 L2,16 Z M0,16 L2,17 Z M-2,26 L0,27 Z " fill="#A04EA8" transform="translate(686,560)"/>
<path d="M0,0 L4,2 L2,4 L-26,6 L-36,9 L-36,6 L-41,8 L-44,10 L-62,10 L-60,9 L-59,6 L-45,4 L-32,3 L-31,2 L-20,1 L-2,1 Z " fill="#9151A1" transform="translate(620,683)"/>
<path d="M0,0 L1,4 L-1,4 L-1,10 L-4,12 L-5,18 L-7,18 L-7,26 L-10,26 L-10,39 L-12,40 L-12,43 L-15,43 L-15,32 L-13,32 L-13,24 L-15,23 L-14,19 L-14,13 L-11,8 L-9,8 L-9,6 L-4,4 L-4,9 L-2,9 L-3,1 L-2,3 L0,3 Z " fill="#934899" transform="translate(711,584)"/>
<path d="M0,0 L36,0 L36,9 L32,8 L32,5 L28,5 L28,7 L0,7 Z " fill="#45134D" transform="translate(463,785)"/>
<path d="M0,0 L2,0 L2,2 L6,1 L6,3 L11,4 L11,7 L16,6 L14,9 L22,11 L22,13 L24,14 L14,15 L9,14 L1,12 L1,10 L-4,11 L-5,6 L-8,4 L-8,1 L-6,1 L-6,3 L-2,1 L-2,3 L0,3 Z " fill="#A054AD" transform="translate(470,670)"/>
<path d="M0,0 L3,0 L4,3 L14,3 L15,4 L26,5 L26,3 L15,3 L15,2 L27,2 L32,3 L33,0 L33,4 L27,4 L27,6 L15,6 L15,8 L1,8 L1,6 L-11,6 L-11,8 L-17,8 L-19,4 L-35,4 L-35,3 L-15,2 L-13,1 L-1,1 Z " fill="#81408D" transform="translate(525,710)"/>
<path d="M0,0 L10,0 L10,6 L8,6 L8,8 L2,8 L2,24 L0,24 L0,28 L-7,34 L-8,38 L-12,38 L-12,40 L-20,40 L-19,36 L-19,39 L-13,39 L-14,34 L-12,30 L-8,30 L-7,27 L-2,25 L-1,22 L1,23 L0,3 L-3,3 L-3,5 L-1,6 L-4,7 L-4,5 L-8,4 L-4,4 L-4,2 L0,2 Z " fill="#2F0B2F" transform="translate(708,754)"/>
<path d="M0,0 L9,1 L11,4 L17,6 L19,13 L17,18 L15,18 L15,16 L5,16 L5,11 L3,11 L2,6 L0,5 L2,2 L0,2 Z " fill="#A35DAD" transform="translate(623,399)"/>
<path d="M0,0 L1,0 L1,8 L3,8 L3,14 L5,14 L5,22 L7,22 L7,30 L9,30 L9,40 L11,40 L12,49 L10,49 L10,53 L7,53 L4,49 L4,31 L3,29 L4,15 L2,15 L2,22 L1,22 L1,14 L2,9 L0,9 L0,14 L-1,14 Z " fill="#834087" transform="translate(701,470)"/>
<path d="M0,0 L3,0 L5,10 L8,11 L8,21 L5,21 L5,32 L3,33 L2,40 L1,40 L0,33 L0,9 L1,5 L0,5 Z M0,40 Z " fill="#BE6CC8" transform="translate(652,512)"/>
<path d="M0,0 L1,0 L3,8 L3,26 L1,36 L-5,35 L-4,32 L-4,24 L-3,14 L-4,10 Z " fill="#9A4B9F" transform="translate(703,493)"/>
<path d="M0,0 L1,0 L2,81 L3,81 L3,123 L1,123 L0,103 Z " fill="#8D4893" transform="translate(369,495)"/>
<path d="M0,0 L6,1 L6,3 L9,4 L6,7 L6,9 L8,11 L7,12 L6,21 L5,19 L-1,21 L-3,22 L-4,19 L-4,6 L-1,5 Z " fill="#93519C" transform="translate(379,425)"/>
<path d="M0,0 L38,0 L38,14 L20,15 L18,18 L12,18 L12,16 L6,16 L6,14 L-4,14 L-4,8 L0,8 Z M1,1 L0,8 L-3,9 L-3,13 L37,13 L37,1 Z " fill="#340F39" transform="translate(462,784)"/>
<path d="M0,0 L3,0 L5,9 L7,20 L6,26 L2,28 L0,30 L-1,22 L-1,14 Z " fill="#9C4EA6" transform="translate(688,473)"/>
<path d="M0,0 L26,0 L34,1 L30,3 L26,5 L21,4 L20,5 L14,5 L14,2 L9,4 L3,6 L-2,9 L-6,7 L-8,3 L-2,5 L-2,1 Z " fill="#B661C6" transform="translate(556,655)"/>
<path d="M0,0 L23,0 L21,4 L16,7 L10,9 L1,8 L4,7 L4,4 L0,4 Z " fill="#A557AB" transform="translate(528,360)"/>
<path d="M0,0 L1,4 L-4,6 L-5,8 L-9,8 L-9,12 L-13,12 L-13,14 L-18,16 L-19,18 L-23,18 L-23,20 L-29,20 L-29,19 L-24,19 L-24,17 L-28,16 L-26,14 L-20,12 L-14,13 L-14,11 L-17,10 L-12,3 L-3,2 L0,3 Z " fill="#904E99" transform="translate(655,670)"/>
<path d="M0,0 L4,0 L4,6 L6,6 L6,14 L8,14 L8,22 L12,24 L18,30 L18,34 L20,34 L19,38 L19,35 L16,35 L17,31 L14,32 L8,28 L5,26 L4,23 L3,20 L5,7 L3,7 L3,14 L2,14 L2,5 L3,1 Z " fill="#75487E" transform="translate(642,374)"/>
<path d="M0,0 L5,1 L6,4 L8,4 L10,9 L16,14 L16,16 L21,17 L22,18 L22,24 L20,20 L18,25 L16,24 L16,20 L12,18 L7,12 L4,12 L3,2 Z " fill="#874A90" transform="translate(620,350)"/>
<path d="M0,0 L2,0 L2,2 L15,3 L15,5 L19,4 L19,7 L29,8 L29,9 L7,9 L-2,7 L-2,1 Z " fill="#9A52A6" transform="translate(469,680)"/>
<path d="M0,0 L1,4 L-1,4 L-1,8 L-5,12 L-9,12 L-9,14 L-13,14 L-13,16 L-23,16 L-23,18 L-30,20 L-31,22 L-35,21 L-32,21 L-31,16 L-24,17 L-24,15 L-29,15 L-27,13 L-17,11 L-16,10 L-8,10 L-6,11 L-7,8 L-2,7 L-3,3 L0,3 Z " fill="#89438F" transform="translate(691,648)"/>
<path d="M0,0 L2,0 L2,12 L4,12 L4,3 L6,0 L6,12 L3,19 L2,24 L4,24 L2,28 L0,29 L-1,26 L-1,2 Z " fill="#92519A" transform="translate(376,448)"/>
<path d="M0,0 L1,0 L2,5 L5,6 L5,12 L7,12 L7,19 L5,24 L3,25 L3,22 L0,21 L1,17 L2,12 L1,8 L0,13 L-3,18 L-4,18 L-4,10 Z M2,25 Z " fill="#90549A" transform="translate(640,369)"/>
<path d="M0,0 Z M-14,1 L0,1 L-1,3 L-8,5 L-16,11 L-20,11 L-21,13 L-27,13 L-30,16 L-32,15 L-29,11 L-24,11 L-22,7 L-15,5 Z " fill="#A152A7" transform="translate(670,648)"/>
<path d="M0,0 L16,1 L12,6 L-2,7 L-3,4 L-5,7 L-15,6 L-15,5 L-8,3 Z " fill="#AC60BF" transform="translate(596,658)"/>
<path d="M0,0 L4,0 L4,2 L0,2 Z M-6,2 L0,2 L0,4 L-4,4 L-4,6 L-8,7 L-16,14 L-30,14 L-28,11 L-23,9 L-14,7 Z " fill="#A458B5" transform="translate(638,655)"/>
<path d="M0,0 L3,1 L1,1 L1,3 L3,2 L9,2 L5,3 L5,5 L7,4 L16,4 L16,5 L9,5 L9,7 L16,6 L25,6 L25,8 L27,8 L27,11 L25,11 L25,13 L28,14 L24,14 L24,12 L16,12 L16,8 L8,8 L8,6 L4,6 L4,4 L0,4 L0,2 L-6,2 L-6,1 Z " fill="#844488" transform="translate(430,678)"/>
<path d="M0,0 L7,0 L4,2 L7,3 L7,5 L0,5 L-1,9 L-4,10 L-5,13 L-12,13 L-12,7 L-6,4 L-4,4 L-4,1 Z " fill="#954C9A" transform="translate(660,660)"/>
<path d="M0,0 L4,0 L4,3 L8,4 L8,7 L-24,7 L-24,5 L-27,4 L-10,4 L-2,3 L0,2 Z " fill="#3E1043" transform="translate(491,790)"/>
<path d="M0,0 L1,4 L-5,4 L-5,6 L-17,6 L-17,8 L-31,8 L-31,6 L-43,6 L-43,5 L-18,3 L-17,4 L-6,5 L-6,3 L-17,3 L-17,2 L-5,2 L0,3 Z " fill="#773984" transform="translate(557,710)"/>
<path d="M0,0 L8,0 L8,2 L13,3 L14,8 L18,10 L20,12 L20,20 L16,19 L19,19 L19,17 L16,17 L16,12 L14,12 L14,9 L12,9 L12,6 L8,5 L5,4 L5,6 L3,6 L3,1 L1,1 L1,12 L0,12 Z " fill="#2A0B2E" transform="translate(746,350)"/>
<path d="M0,0 L4,0 L4,26 L0,25 Z " fill="#A04DA7" transform="translate(392,592)"/>
<path d="M0,0 L2,0 L2,2 L4,2 L4,17 L3,19 L5,19 L3,23 L0,24 L-1,26 L-1,22 L1,22 L1,18 L-2,17 L0,16 L-2,9 L-1,1 Z " fill="#A860B2" transform="translate(653,449)"/>
<path d="M0,0 L1,4 L-1,4 L-1,10 L-4,12 L-5,18 L-7,18 L-7,26 L-9,23 L-9,12 L-11,11 L-9,6 L-4,4 L-4,9 L-2,9 L-3,1 L-2,3 L0,3 Z " fill="#8B4492" transform="translate(711,584)"/>
<path d="M0,0 L7,0 L8,2 L5,5 L-44,5 L-43,3 L-17,3 L-2,2 Z " fill="#A15AAE" transform="translate(545,680)"/>
<path d="M0,0 L5,0 L5,8 L3,8 L3,11 L1,12 L1,17 L-1,17 L-1,12 L-6,14 L-7,16 L-8,12 L-4,10 L-2,10 L-1,1 Z M-9,14 Z " fill="#91489A" transform="translate(708,576)"/>
<path d="M0,0 L8,2 L10,5 L11,11 L14,14 L12,17 L11,14 L8,13 L5,16 L4,14 L5,10 L3,10 L3,5 L1,5 Z " fill="#B265BE" transform="translate(644,468)"/>
<path d="M0,0 L2,1 L1,3 L-1,3 L0,10 L-5,15 L-8,20 L-10,20 L-11,24 L-11,19 L-13,19 L-13,24 L-14,24 L-14,18 L-10,16 L-10,12 L-6,12 L-5,7 L-2,6 L-1,1 Z " fill="#814482" transform="translate(392,406)"/>
<path d="M0,0 L2,0 L3,2 L5,2 L5,6 L7,7 L4,13 L-3,19 L-4,11 L-2,11 Z " fill="#984F98" transform="translate(395,398)"/>
<path d="M0,0 L2,4 L0,16 L0,21 L-2,22 L-4,36 L-5,36 L-6,26 L-3,18 L-4,11 L-2,6 Z M-3,6 Z M-10,26 L-8,26 L-8,28 L-6,29 L-9,31 Z " fill="#9D4EA5" transform="translate(692,590)"/>
<path d="M0,0 L0,3 L-5,9 L-10,10 L-17,15 L-23,16 L-23,14 L-18,10 L-15,10 L-15,8 L-11,9 L-9,5 L-5,3 L-5,1 Z " fill="#9A51A3" transform="translate(655,658)"/>
<path d="M0,0 L2,0 L2,15 L6,15 L8,21 L5,26 L3,26 L3,28 L1,28 L1,18 L0,6 Z " fill="#A756B0" transform="translate(690,529)"/>
<path d="M0,0 L4,1 L3,6 L-3,6 L-3,4 L0,4 Z M-17,4 L-5,4 L-5,6 L-3,7 L-13,9 L-19,8 L-18,6 Z " fill="#B565C8" transform="translate(609,648)"/>
<path d="M0,0 L1,4 L3,4 L3,24 L5,24 L5,28 L7,28 L7,34 L10,35 L6,36 L5,34 L6,29 L1,29 L1,7 L2,5 L-1,5 Z " fill="#783D82" transform="translate(691,434)"/>
<path d="M0,0 L3,0 L2,36 L0,35 Z " fill="#964D99" transform="translate(712,523)"/>
<path d="M0,0 L36,0 L36,2 L31,2 L31,4 L29,4 L29,2 L0,2 Z " fill="#4C1555" transform="translate(463,785)"/>
<path d="M0,0 L6,0 L8,5 L10,6 L11,17 L11,36 L10,36 L8,23 L8,12 L9,7 L5,7 L4,3 L5,1 L0,1 Z " fill="#8D4697" transform="translate(680,422)"/>
<path d="M0,0 L1,0 L1,14 L-1,14 L-1,18 L-4,20 L-5,26 L-7,26 L-7,38 L-8,38 L-9,21 L-8,25 L-6,25 L-8,15 L-5,13 L-5,17 L-2,17 L-3,8 L-2,8 L-2,13 L0,13 Z " fill="#7B3D7F" transform="translate(701,610)"/>
<path d="M0,0 L1,3 L7,2 L7,3 L14,4 L14,5 L5,5 L5,7 L20,6 L26,7 L26,8 L20,8 L20,10 L14,10 L14,8 L4,8 L4,6 L0,4 Z " fill="#7E3E7E" transform="translate(398,670)"/>
<path d="M0,0 L14,0 L14,8 L9,12 L-10,12 L-10,11 L2,10 L9,6 L13,7 L13,1 L0,1 Z " fill="#2A092A" transform="translate(744,740)"/>
<path d="M0,0 L4,0 L5,5 L5,13 L3,19 L1,19 L0,12 L-1,9 Z " fill="#984D9A" transform="translate(376,616)"/>
<path d="M0,0 L7,0 L6,18 L2,22 L3,18 L4,13 L4,10 L2,12 L3,8 L3,6 L1,4 L-2,5 L-2,2 L0,2 Z M0,6 L2,7 Z M1,12 Z M2,14 L4,15 L2,16 Z M0,16 L2,17 Z " fill="#A855B1" transform="translate(686,560)"/>
<path d="M0,0 L3,1 L5,6 L7,5 L8,12 L7,15 L9,15 L10,21 L10,26 L8,27 L5,11 L5,9 L0,9 L2,8 Z " fill="#964DA0" transform="translate(686,464)"/>
<path d="M0,0 L4,1 L3,4 L1,5 L0,11 L1,13 L0,15 L-2,14 L-1,12 L-8,12 L-7,8 L-5,8 L-4,4 L-2,4 L-2,2 L0,2 Z " fill="#A154AA" transform="translate(397,468)"/>
<path d="M0,0 L4,1 L1,1 L2,20 L1,44 L0,44 L0,20 L-2,20 L-2,14 L0,14 Z " fill="#734179" transform="translate(374,430)"/>
<path d="M0,0 L1,0 L1,5 L3,5 L3,0 L7,4 L7,6 L22,6 L22,7 L17,7 L17,9 L22,9 L22,10 L16,10 L16,8 L10,8 L10,10 L4,10 L4,6 L0,6 Z " fill="#793B83" transform="translate(468,702)"/>
<path d="M0,0 L1,4 L-3,4 L-3,6 L-8,8 L-9,10 L-13,10 L-13,12 L-19,12 L-19,11 L-14,11 L-14,9 L-18,8 L-16,6 L-10,4 L-4,5 L-4,3 L-7,2 L0,3 Z " fill="#784183" transform="translate(645,678)"/>
<path d="M0,0 L19,1 L16,3 L18,5 L12,6 L3,5 L3,2 L0,2 Z " fill="#BD67CC" transform="translate(517,655)"/>
<path d="M0,0 L2,0 L2,17 L-1,17 L-1,22 L-2,22 L-2,15 L-4,15 L-4,23 L-5,23 L-5,13 L-3,11 L0,11 Z " fill="#994D94" transform="translate(399,383)"/>
<path d="M0,0 L29,0 L30,2 L32,2 L32,4 L25,5 L25,3 L20,3 L14,1 L14,3 L12,3 L12,1 L0,1 Z " fill="#925598" transform="translate(562,343)"/>
<path d="M0,0 L4,2 L2,4 L-26,6 L-36,9 L-36,6 L-28,4 L-2,3 L-2,1 Z " fill="#8E509F" transform="translate(620,683)"/>
<path d="M0,0 L5,1 L5,3 L13,3 L13,5 L17,5 L16,9 L16,6 L13,7 L1,7 L1,4 L4,4 L4,2 L-1,3 Z " fill="#804888" transform="translate(663,413)"/>
<path d="M0,0 L2,0 L1,16 L-3,14 L-4,5 L-3,2 L-1,2 Z " fill="#90489C" transform="translate(687,429)"/>
<path d="M0,0 L2,3 L3,9 L2,17 L2,24 L-1,24 L-3,24 L-1,18 Z " fill="#A352AC" transform="translate(691,501)"/>
<path d="M0,0 L1,0 L1,16 L-1,16 L-1,20 L-8,25 L-9,20 L-4,17 L-2,14 L0,15 Z " fill="#2C072D" transform="translate(709,762)"/>
<path d="M0,0 L5,1 L5,3 L-1,5 L-7,7 L-11,10 L-11,4 L-8,2 L0,2 Z " fill="#954993" transform="translate(415,365)"/>
<path d="M0,0 L1,2 L6,0 L13,0 L8,4 L-1,7 L-3,6 L-1,1 Z " fill="#AE5EC1" transform="translate(615,654)"/>
<path d="M0,0 L6,1 L8,6 L11,6 L11,8 L3,8 L0,5 Z " fill="#39103F" transform="translate(745,363)"/>
<path d="M0,0 L12,0 L12,3 L6,5 L-3,4 L0,3 Z " fill="#A858AF" transform="translate(532,364)"/>
<path d="M0,0 L2,0 L1,5 L-5,17 L-6,14 L-6,8 L-4,8 L-2,3 Z M-8,10 L-6,11 Z " fill="#A451AD" transform="translate(692,576)"/>
<path d="M0,0 L2,0 L3,4 L1,9 L-2,9 L-5,9 L-5,7 L-3,7 L-3,5 L-8,4 L-8,2 L-1,1 Z " fill="#9A5097" transform="translate(439,357)"/>
<path d="M0,0 L1,2 L7,3 L3,4 L3,6 L-1,6 L-1,8 L-5,8 L-5,10 L-9,9 L-6,9 L-7,5 L-6,4 L-1,4 Z " fill="#7A3D87" transform="translate(567,700)"/>
<path d="M0,0 L2,0 L3,8 L3,14 L2,16 L0,16 L-1,9 L-1,1 Z " fill="#AC55B6" transform="translate(401,512)"/>
<path d="M0,0 L10,0 L11,2 L3,3 L0,6 L-5,6 L-5,2 L0,2 Z " fill="#390E39" transform="translate(734,743)"/>
<path d="M0,0 L8,0 L8,1 L1,1 L1,3 L8,3 L3,7 L0,10 L-2,9 L0,6 L-12,5 L-12,4 L0,4 Z " fill="#83447F" transform="translate(430,358)"/>
<path d="M0,0 L8,0 L10,4 L14,5 L13,8 L6,5 L6,4 L0,3 Z " fill="#8D5196" transform="translate(610,347)"/>
<path d="M0,0 L4,2 L4,4 L6,4 L7,9 L11,9 L11,11 L6,12 L6,9 L2,7 L-1,2 Z " fill="#934795" transform="translate(381,651)"/>
<path d="M0,0 L3,1 L2,6 L4,6 L3,11 L2,16 L0,15 L-1,6 Z " fill="#A157AB" transform="translate(395,448)"/>
<path d="M0,0 L1,3 L-1,5 L-12,5 L-14,4 L-14,2 L-1,1 Z " fill="#99519A" transform="translate(475,341)"/>
<path d="M0,0 L2,0 L3,6 L9,8 L7,9 L-2,7 L-2,1 Z " fill="#984FA3" transform="translate(469,680)"/>
<path d="M0,0 L1,4 L-1,4 L-1,10 L-4,12 L-5,18 L-6,18 L-7,8 L-5,8 L-4,4 L-4,9 L-2,9 L-3,1 L-2,3 L0,3 Z " fill="#7B3C82" transform="translate(711,584)"/>
<path d="M0,0 L1,2 L4,2 L4,9 L2,12 L-1,10 Z " fill="#9855A3" transform="translate(655,420)"/>
<path d="M0,0 L14,0 L14,1 L1,1 L1,3 L3,3 L3,5 L-2,6 L-5,5 L-6,8 L-6,4 L-1,1 Z " fill="#784079" transform="translate(460,342)"/>
<path d="M0,0 Z M-4,2 L0,3 L0,10 L-4,13 Z " fill="#A153A9" transform="translate(700,558)"/>
<path d="M0,0 L8,0 L8,3 L10,3 L11,9 L8,7 L8,4 L1,3 Z " fill="#9951A3" transform="translate(614,364)"/>
<path d="M0,0 L4,2 L4,4 L-2,8 L-3,10 L-5,10 L-5,4 L-1,3 Z " fill="#984C9A" transform="translate(380,635)"/>
<path d="M0,0 L1,0 L1,12 L-2,19 L-3,19 L-3,12 L-1,12 L-1,3 Z " fill="#93529B" transform="translate(381,448)"/>
<path d="M0,0 L1,2 L3,2 L3,13 L0,12 L0,4 L-2,5 L-2,1 Z " fill="#340835" transform="translate(706,764)"/>
<path d="M0,0 L2,0 L2,7 L4,7 L5,13 L0,12 L-1,8 L-2,5 L0,5 Z " fill="#8F5998" transform="translate(647,389)"/>
<path d="M0,0 L1,4 L-1,4 L-1,8 L-5,12 L-9,12 L-9,14 L-13,13 L-10,13 L-11,10 L-6,11 L-7,8 L-2,7 L-3,3 L0,3 Z " fill="#78367D" transform="translate(691,648)"/>
<path d="M0,0 L2,0 L3,15 L1,15 L-1,9 Z " fill="#934C9B" transform="translate(712,560)"/>
<path d="M0,0 L4,1 L1,1 L2,8 L0,8 L-1,12 L-1,7 L-3,7 L-3,12 L-4,12 L-4,6 L0,4 Z " fill="#7C4380" transform="translate(382,418)"/>
<path d="M0,0 L6,0 L7,3 L5,5 L-1,5 Z " fill="#964D97" transform="translate(425,674)"/>
<path d="M0,0 L3,0 L3,6 L7,8 L5,8 L5,15 L4,15 L3,9 L0,6 Z " fill="#8C4998" transform="translate(694,463)"/>
<path d="M0,0 L3,1 L3,6 L5,6 L6,9 L2,10 L1,7 L-2,6 Z " fill="#96479A" transform="translate(397,663)"/>
<path d="M0,0 L4,1 L-1,7 L-8,6 L-8,4 L-1,3 Z " fill="#99519A" transform="translate(455,347)"/>
<path d="M0,0 L6,0 L8,1 L8,4 L-8,3 L-8,2 L0,2 Z " fill="#411146" transform="translate(491,793)"/>
<path d="M0,0 L2,0 L0,4 L-2,5 L-22,5 L-22,4 L-3,3 Z " fill="#0C020C" transform="translate(756,748)"/>
<path d="M0,0 L2,0 L2,7 L4,8 L2,8 L2,12 L-1,12 Z " fill="#974999" transform="translate(709,511)"/>
<path d="M0,0 L1,3 L7,2 L7,3 L14,4 L14,5 L5,5 L4,7 L0,4 Z " fill="#854087" transform="translate(398,670)"/>
<path d="M0,0 L1,0 L1,6 L-1,10 L-3,11 L-3,2 Z M0,8 Z M-1,9 Z " fill="#AC5FB3" transform="translate(435,420)"/>
<path d="M0,0 L2,1 L3,11 L0,12 L-1,14 L-1,10 L1,10 L1,6 L-2,5 L0,4 Z " fill="#AB63B6" transform="translate(653,461)"/>
<path d="M0,0 L2,0 L2,6 L-4,11 L-4,6 L-1,5 Z " fill="#401040" transform="translate(693,765)"/>
<path d="M0,0 L2,0 L2,3 L6,5 L1,6 L-1,8 L-1,6 L-4,6 L-3,4 L-1,3 Z " fill="#9C4F9E" transform="translate(432,668)"/>
<path d="M0,0 L1,0 L3,13 L0,13 L-2,13 L0,7 Z " fill="#A554B0" transform="translate(690,512)"/>
<path d="M0,0 L1,3 L4,6 L5,10 L3,10 L3,8 L-1,8 L-2,5 Z " fill="#93559D" transform="translate(657,414)"/>
<path d="M0,0 L5,1 L5,3 L0,4 L-7,4 L-7,2 L0,2 Z " fill="#9A4C96" transform="translate(415,365)"/>
<path d="M0,0 L5,1 L6,4 L8,4 L9,9 L6,9 L7,5 L5,5 L4,9 L3,2 Z " fill="#77417E" transform="translate(620,350)"/>
<path d="M0,0 L2,0 L0,12 L-2,12 L-2,3 L0,3 Z " fill="#401140" transform="translate(687,777)"/>
<path d="M0,0 L1,3 L3,3 L3,0 L6,1 L6,7 L10,10 L5,9 L4,4 L0,4 Z " fill="#703979" transform="translate(458,692)"/>
<path d="M0,0 L2,0 L2,7 L4,8 L2,8 L2,16 L1,16 Z " fill="#954698" transform="translate(705,493)"/>
<path d="M0,0 L2,0 L2,6 L1,7 L0,14 L-1,14 L-1,1 Z " fill="#8E4F98" transform="translate(378,430)"/>
<path d="M0,0 L6,0 L8,5 L10,6 L10,12 L9,12 L9,7 L5,7 L4,3 L5,1 L0,1 Z " fill="#723B7C" transform="translate(680,422)"/>
<path d="M0,0 L2,0 L3,2 L3,9 L0,9 Z " fill="#9A4B95" transform="translate(401,373)"/>
<path d="M0,0 L5,0 L4,4 L2,6 L1,4 L-2,5 L-2,2 L0,2 Z M0,6 L2,7 Z " fill="#AC58B5" transform="translate(686,560)"/>
<path d="M0,0 L1,0 L2,7 L3,8 L3,14 L1,16 L0,8 Z " fill="#A352AD" transform="translate(687,487)"/>
<path d="M0,0 L2,0 L2,2 L4,2 L4,12 L2,10 L2,5 L0,5 Z " fill="#A45DAF" transform="translate(653,449)"/>
<path d="M0,0 L2,0 L0,4 L-5,10 L-6,6 Z " fill="#0B010B" transform="translate(706,782)"/>
<path d="M0,0 L1,4 L-4,6 L-5,8 L-9,7 L-6,7 L-7,3 L-3,2 L0,3 Z " fill="#7A417F" transform="translate(655,670)"/>
<path d="M0,0 L3,0 L3,4 L-4,4 L-4,1 Z " fill="#B45CC2" transform="translate(487,656)"/>
<path d="M0,0 L3,0 L3,5 L-1,9 L-1,5 Z " fill="#A452AC" transform="translate(684,600)"/>
<path d="M0,0 L5,0 L6,5 L2,6 Z " fill="#B660C2" transform="translate(621,425)"/>
<path d="M0,0 L4,0 L3,4 L0,3 L0,5 L-7,5 L-7,4 L-2,3 L0,2 Z " fill="#3E1143" transform="translate(491,790)"/>
<path d="M0,0 L10,1 L10,3 L1,3 L-1,1 Z " fill="#894A9B" transform="translate(581,696)"/>
<path d="M0,0 L4,1 L3,4 L1,5 L-1,8 L-2,2 L0,2 Z " fill="#A556AD" transform="translate(397,468)"/>
<path d="M0,0 L2,4 L0,6 L0,4 L-2,4 L-2,13 L-3,13 L-3,3 Z " fill="#773A74" transform="translate(403,369)"/>
<path d="M0,0 L2,0 L3,10 L0,11 Z " fill="#360F3B" transform="translate(747,351)"/>
<path d="M0,0 L4,0 L5,4 L7,4 L6,8 L6,6 L2,5 L2,1 Z " fill="#8B4897" transform="translate(680,425)"/>
<path d="M0,0 L7,0 L6,3 L0,3 Z " fill="#8E4699" transform="translate(478,706)"/>
<path d="M0,0 L8,1 L8,2 L1,4 L0,6 L-4,5 L-1,5 Z " fill="#7A3E7E" transform="translate(660,664)"/>
<path d="M0,0 L3,2 L2,8 L-2,7 L1,7 L1,5 L-2,5 L-1,2 Z " fill="#120913" transform="translate(376,422)"/>
<path d="M0,0 L14,1 L14,2 L5,3 L2,4 Z " fill="#904E90" transform="translate(474,340)"/>
<path d="M0,0 L8,0 L4,1 L3,5 L3,3 L-2,3 Z " fill="#824995" transform="translate(594,692)"/>
<path d="M0,0 L2,1 L1,5 L-1,4 L-1,12 L-2,12 L-2,2 Z " fill="#763C71" transform="translate(396,394)"/>
<path d="M0,0 L3,0 L2,7 L0,8 L-1,1 Z " fill="#9D4EA3" transform="translate(684,626)"/>
<path d="M0,0 L5,5 L3,8 L2,5 L0,5 Z " fill="#AF63BA" transform="translate(653,477)"/>
<path d="M0,0 L2,2 L1,5 L-3,5 L-3,1 Z " fill="#A054AC" transform="translate(683,475)"/>
<path d="M0,0 L4,2 L3,9 L1,6 Z " fill="#9D57A8" transform="translate(654,430)"/>
<path d="M0,0 L2,2 L1,8 L0,4 L-5,4 L-2,2 L0,3 Z " fill="#9A59A4" transform="translate(651,414)"/>
<path d="M0,0 L4,0 L4,4 L0,5 Z " fill="#B663BD" transform="translate(440,460)"/>
<path d="M0,0 L2,0 L1,4 L-2,7 L-2,1 Z " fill="#9C58A8" transform="translate(652,422)"/>
<path d="M0,0 L1,2 L-2,8 L-4,4 L-4,2 Z " fill="#965099" transform="translate(387,417)"/>
<path d="M0,0 L5,3 L4,5 L-1,4 Z " fill="#784281" transform="translate(631,361)"/>
<path d="M0,0 L4,0 L4,4 L0,4 Z " fill="#B663BD" transform="translate(440,452)"/>
<path d="M0,0 L3,1 L2,4 L-2,4 L-2,1 Z " fill="#9451A2" transform="translate(542,691)"/>
<path d="M0,0 L5,1 L4,4 L0,4 Z " fill="#C068CC" transform="translate(532,420)"/>
<path d="M0,0 L4,2 L0,5 L-1,1 Z " fill="#2F0B30" transform="translate(753,746)"/>
<path d="M0,0 L3,2 L1,4 L-4,4 Z " fill="#884296" transform="translate(556,707)"/>
<path d="M0,0 L2,1 L2,7 L0,7 L-1,1 Z " fill="#8D469A" transform="translate(469,700)"/>
<path d="M0,0 L4,1 L0,5 L-1,1 Z " fill="#844890" transform="translate(635,682)"/>
<path d="M0,0 L5,0 L6,3 L-1,2 Z " fill="#94459A" transform="translate(675,658)"/>
<path d="M0,0 L3,2 L1,2 L0,5 L-2,5 L-3,2 Z " fill="#8C5496" transform="translate(660,411)"/>
<path d="M0,0 L5,1 L5,4 L1,3 L3,3 L3,1 L0,2 Z " fill="#8A5191" transform="translate(591,344)"/>
<path d="M0,0 L3,0 L3,2 L5,3 L1,4 Z " fill="#8B4698" transform="translate(463,696)"/>
<path d="M0,0 L4,2 L-2,5 L-1,1 Z " fill="#AD5FBB" transform="translate(534,671)"/>
<path d="M0,0 L5,0 L5,3 L1,3 Z " fill="#A854B4" transform="translate(459,660)"/>
<path d="M0,0 L3,2 L2,6 L0,5 Z " fill="#A552AE" transform="translate(393,529)"/>
<path d="M0,0 Z M-2,2 L0,3 L-5,7 L-4,3 Z " fill="#9C519F" transform="translate(400,412)"/>
<path d="M0,0 L2,1 L2,3 L-6,3 L-6,1 Z " fill="#AD61B9" transform="translate(621,408)"/>
<path d="M0,0 L3,0 L3,4 L0,4 Z " fill="#B55DC5" transform="translate(469,648)"/>
<path d="M0,0 L2,0 L1,4 L-2,5 L-2,2 L0,2 Z " fill="#AF5BB8" transform="translate(686,560)"/>
<path d="M0,0 Z M-3,1 L0,3 L-3,4 L-4,6 Z " fill="#A050A9" transform="translate(392,511)"/>
<path d="M0,0 L4,1 L4,3 L-1,3 Z " fill="#8A4B96" transform="translate(676,421)"/>
<path d="M0,0 L3,1 L2,4 L-2,2 Z " fill="#8F5098" transform="translate(621,351)"/>
<path d="M0,0 L4,2 L-1,3 Z " fill="#BC64CC" transform="translate(553,653)"/>
<path d="M0,0 L4,2 L0,4 Z " fill="#B05EB3" transform="translate(464,400)"/>
<path d="M0,0 L4,4 L-1,4 Z " fill="#240A26" transform="translate(761,358)"/>
<path d="M0,0 L3,0 L2,4 L0,3 Z " fill="#2D0D30" transform="translate(492,790)"/>
<path d="M0,0 L3,1 L2,5 Z " fill="#AA5BB6" transform="translate(639,429)"/>
</svg>
