<?xml version="1.0" encoding="UTF-8"?>
<!-- Generator: visioncortex VTracer 0.6.4 -->
<svg version="1.1" xmlns="http://www.w3.org/2000/svg" width="1024" height="1024">
<path d="M0,0 L1024,0 L1024,1024 L0,1024 Z " fill="#000000" transform="translate(0,0)"/>
<path d="M0,0 L72,0 L72,2 L80,2 L80,4 L86,4 L86,6 L90,6 L90,8 L96,8 L98,11 L102,12 L102,14 L106,14 L106,16 L110,16 L112,19 L116,20 L118,23 L122,24 L122,26 L128,26 L128,28 L134,28 L134,30 L164,30 L164,32 L170,32 L170,34 L174,34 L174,36 L178,36 L178,38 L182,38 L182,40 L186,40 L186,42 L192,42 L192,44 L196,44 L196,46 L200,46 L200,48 L204,48 L210,55 L212,56 L212,70 L210,70 L210,74 L208,74 L208,76 L201,82 L200,84 L194,84 L194,86 L192,86 L192,92 L194,92 L194,102 L196,102 L196,106 L198,106 L198,110 L200,110 L200,116 L204,116 L204,136 L212,136 L212,134 L216,134 L216,132 L224,132 L226,135 L250,136 L250,138 L272,138 L272,136 L280,136 L280,134 L286,134 L286,130 L288,130 L288,124 L292,122 L292,120 L294,120 L294,116 L298,116 L300,112 L302,112 L302,110 L306,110 L306,108 L328,108 L328,106 L344,106 L344,108 L348,108 L354,115 L356,116 L356,128 L354,128 L354,130 L350,134 L346,134 L346,136 L344,136 L344,138 L336,138 L336,136 L326,136 L326,138 L320,138 L320,142 L312,142 L312,144 L310,144 L310,146 L308,146 L308,150 L300,150 L300,158 L292,158 L292,162 L290,162 L292,167 L294,168 L294,192 L296,192 L296,232 L294,232 L294,264 L292,264 L292,278 L294,278 L294,284 L292,284 L292,288 L296,288 L296,294 L300,294 L300,300 L304,300 L304,298 L312,298 L312,296 L316,296 L316,294 L322,294 L322,292 L326,292 L326,290 L328,290 L328,288 L332,288 L332,286 L336,286 L336,284 L342,284 L342,282 L348,282 L348,280 L358,280 L358,278 L380,278 L380,280 L388,280 L388,282 L396,282 L396,290 L398,290 L398,292 L400,292 L400,298 L402,298 L402,302 L404,302 L404,310 L406,310 L406,312 L408,312 L408,322 L410,322 L410,346 L408,346 L408,356 L406,356 L406,360 L404,360 L404,368 L402,368 L402,372 L400,372 L400,376 L398,376 L398,380 L396,380 L396,384 L394,384 L394,386 L390,390 L388,390 L388,394 L384,394 L384,396 L382,396 L382,398 L378,402 L374,402 L374,404 L372,404 L372,406 L370,406 L370,408 L366,408 L366,410 L362,410 L362,412 L346,412 L346,410 L342,410 L342,408 L334,408 L334,406 L330,406 L330,404 L326,404 L326,402 L322,402 L322,400 L316,400 L312,396 L312,394 L308,394 L308,392 L304,392 L304,390 L302,390 L302,386 L300,386 L300,384 L296,384 L296,382 L294,382 L294,376 L292,376 L290,371 L288,370 L288,360 L283,359 L282,356 L278,356 L278,352 L274,350 L274,348 L270,348 L268,343 L264,340 L264,328 L258,328 L258,312 L260,312 L260,308 L258,308 L258,304 L254,304 L254,302 L250,302 L250,300 L240,300 L240,296 L232,296 L232,294 L224,294 L224,292 L218,292 L218,296 L214,296 L214,298 L204,298 L204,302 L200,302 L200,304 L196,304 L196,316 L194,316 L194,318 L192,318 L192,332 L188,332 L188,346 L186,346 L186,348 L182,352 L180,352 L180,358 L178,358 L178,364 L176,364 L176,376 L174,376 L174,384 L172,384 L172,386 L170,386 L170,388 L166,388 L166,390 L162,390 L162,392 L136,392 L136,390 L126,390 L126,388 L120,388 L120,384 L106,384 L106,380 L96,380 L96,368 L92,368 L92,360 L88,360 L88,346 L92,346 L92,330 L94,330 L94,328 L96,328 L96,324 L98,324 L98,318 L100,318 L100,312 L102,312 L102,296 L100,296 L100,290 L98,290 L98,286 L96,286 L96,282 L92,280 L88,276 L88,274 L84,274 L84,272 L76,272 L76,270 L74,270 L74,272 L68,272 L68,274 L62,274 L62,276 L60,276 L60,278 L56,278 L56,280 L54,280 L54,282 L50,286 L48,286 L48,290 L46,290 L46,292 L42,296 L40,296 L40,300 L38,300 L38,304 L36,304 L36,310 L34,310 L34,320 L32,320 L32,326 L30,326 L30,328 L28,328 L28,332 L20,332 L20,324 L16,324 L16,320 L14,320 L14,322 L8,322 L8,314 L0,314 L0,312 L-8,312 L-8,302 L-12,302 L-12,284 L-16,284 L-16,276 L-14,276 L-14,274 L-12,274 L-12,262 L-10,262 L-10,258 L-8,258 L-8,256 L-10,256 L-10,250 L-12,250 L-14,243 L-16,242 L-16,238 L-18,238 L-20,233 L-24,230 L-24,224 L-29,223 L-30,220 L-34,220 L-34,218 L-36,218 L-36,220 L-44,220 L-44,218 L-50,218 L-50,216 L-54,216 L-54,214 L-60,214 L-62,210 L-66,210 L-70,205 L-72,204 L-73,196 L-76,194 L-76,188 L-74,188 L-74,184 L-72,184 L-72,160 L-70,160 L-70,156 L-68,156 L-68,152 L-64,152 L-64,148 L-60,148 L-60,144 L-66,144 L-66,138 L-64,138 L-64,134 L-62,134 L-62,132 L-64,132 L-64,126 L-60,126 L-60,124 L-68,124 L-68,118 L-66,118 L-66,112 L-64,112 L-64,108 L-58,108 L-58,106 L-60,106 L-60,96 L-54,96 L-54,100 L-51,98 L-48,98 L-48,94 L-44,94 L-44,92 L-40,92 L-40,90 L-36,90 L-36,88 L-40,88 L-40,82 L-32,82 L-34,76 L-50,76 L-50,74 L-58,74 L-58,72 L-66,72 L-66,70 L-68,70 L-68,66 L-72,66 L-76,62 L-76,56 L-78,56 L-78,24 L-76,24 L-76,18 L-74,18 L-74,16 L-72,16 L-71,11 L-68,10 L-68,8 L-62,8 L-62,6 L-56,6 L-56,4 L-24,4 L-24,2 L0,2 Z " fill="#859FBE" transform="translate(438,314)"/>
<path d="M0,0 L20,0 L22,4 L27,4 L27,6 L31,8 L31,10 L35,10 L39,19 L40,24 L42,25 L43,31 L43,57 L40,64 L38,73 L37,75 L34,75 L34,79 L31,79 L29,84 L25,89 L23,90 L20,95 L18,97 L15,97 L15,100 L4,102 L2,104 L-11,104 L-19,102 L-19,100 L-28,98 L-35,94 L-35,92 L-37,92 L-40,79 L-40,67 L-39,63 L-41,63 L-41,57 L-38,50 L-36,43 L-34,43 L-33,37 L-30,33 L-29,26 L-23,22 L-20,15 L-18,15 L-18,13 L-16,13 L-16,11 L-14,11 L-12,6 L-8,6 L-8,3 Z " fill="#A0C1DA" transform="translate(794,611)"/>
<path d="M0,0 L72,0 L72,2 L80,2 L80,4 L86,4 L86,6 L90,6 L90,8 L96,8 L98,11 L102,12 L102,14 L106,14 L106,16 L110,16 L112,19 L116,20 L118,23 L122,24 L122,26 L128,26 L128,28 L134,28 L134,30 L164,30 L164,32 L170,32 L170,34 L174,34 L174,36 L178,36 L178,38 L182,38 L182,40 L186,40 L186,42 L192,42 L192,44 L196,44 L196,46 L200,46 L200,48 L204,48 L210,55 L212,56 L212,70 L210,70 L210,74 L208,74 L208,76 L200,83 L193,83 L193,85 L190,84 L189,79 L196,79 L201,76 L198,74 L198,70 L190,71 L191,67 L194,67 L194,62 L190,63 L186,63 L180,61 L178,58 L174,57 L174,54 L172,55 L172,58 L170,58 L170,55 L168,55 L169,63 L168,61 L166,61 L166,59 L164,59 L164,57 L160,59 L159,56 L154,57 L154,55 L144,55 L138,53 L131,53 L130,55 L132,55 L131,58 L128,58 L128,55 L123,56 L122,59 L118,58 L116,59 L114,57 L109,57 L112,54 L114,54 L115,51 L126,50 L128,46 L130,44 L134,44 L134,40 L139,40 L136,37 L134,36 L126,36 L118,33 L112,31 L112,29 L106,30 L104,29 L104,27 L99,27 L97,28 L90,27 L90,24 L82,25 L74,24 L74,16 L70,17 L70,15 L66,15 L66,13 L59,14 L55,17 L50,17 L50,15 L45,16 L44,15 L39,15 L36,15 L34,15 L33,11 L32,12 L25,13 L23,14 L18,12 L22,10 L2,10 L-2,8 L-7,8 L-10,12 L-16,13 L-17,10 L-22,12 L-23,9 L-28,11 L-48,11 L-55,10 L-63,13 L-65,17 L-68,21 L-67,25 L-71,27 L-71,32 L-70,33 L-70,38 L-72,40 L-72,46 L-73,47 L-73,53 L-72,55 L-70,50 L-66,50 L-65,53 L-62,54 L-62,52 L-60,52 L-61,59 L-60,60 L-60,65 L-55,67 L-51,67 L-49,68 L-49,71 L-44,69 L-32,69 L-32,74 L-28,74 L-27,81 L-28,85 L-30,84 L-32,78 L-34,77 L-50,76 L-50,74 L-58,74 L-58,72 L-66,72 L-66,70 L-68,70 L-68,66 L-72,66 L-76,62 L-76,56 L-78,56 L-78,24 L-76,24 L-76,18 L-74,18 L-74,16 L-72,16 L-71,11 L-68,10 L-68,8 L-62,8 L-62,6 L-56,6 L-56,4 L-24,4 L-24,2 L0,2 Z M-48,9 Z M32,15 L34,16 L32,17 Z M30,17 L32,18 L30,19 Z " fill="#8DB99C" transform="translate(438,314)"/>
<path d="M0,0 L1,2 L11,2 L16,4 L18,4 L18,7 L20,6 L20,11 L23,11 L23,15 L25,15 L25,23 L27,23 L27,25 L29,25 L29,35 L31,35 L31,59 L29,59 L29,69 L27,69 L27,73 L25,73 L25,81 L23,81 L23,85 L21,85 L21,89 L19,89 L19,93 L17,93 L17,97 L15,97 L15,99 L11,103 L9,103 L9,107 L5,107 L5,109 L3,109 L3,111 L-1,115 L-5,115 L-5,117 L-7,117 L-7,119 L-9,119 L-9,121 L-13,121 L-13,123 L-17,123 L-17,125 L-33,125 L-33,123 L-37,123 L-37,121 L-45,121 L-45,119 L-49,119 L-49,117 L-53,117 L-53,115 L-57,115 L-57,113 L-63,113 L-67,109 L-67,107 L-71,107 L-71,105 L-75,105 L-75,103 L-77,103 L-77,99 L-79,99 L-79,97 L-83,97 L-84,95 L-84,89 L-84,88 L-86,88 L-85,79 L-82,79 L-81,75 L-79,80 L-77,87 L-75,87 L-76,85 L-76,79 L-78,78 L-77,77 L-77,57 L-75,51 L-77,51 L-75,44 L-71,43 L-68,32 L-63,27 L-61,27 L-59,21 L-54,19 L-51,15 L-47,15 L-47,13 L-45,13 L-45,11 L-40,10 L-40,8 L-33,8 L-33,6 L-30,4 L-23,2 L-1,1 Z M-23,10 L-31,13 L-31,16 L-35,16 L-37,21 L-39,21 L-39,23 L-41,23 L-41,25 L-43,25 L-46,32 L-52,36 L-54,45 L-57,49 L-57,53 L-60,54 L-63,66 L-64,67 L-64,73 L-62,73 L-63,79 L-63,89 L-60,102 L-58,102 L-58,104 L-51,108 L-42,110 L-42,112 L-34,114 L-21,114 L-19,112 L-8,110 L-8,107 L-4,106 L-1,103 L0,100 L5,95 L8,91 L8,89 L11,89 L11,85 L14,85 L16,81 L18,72 L20,67 L20,41 L19,35 L17,34 L15,27 L12,20 L8,20 L6,16 L4,16 L4,14 L-1,14 L-3,10 Z " fill="#8AA8C2" transform="translate(817,601)"/>
<path d="M0,0 L8,1 L12,0 L14,0 L16,9 L15,11 L23,12 L24,14 L24,21 L29,23 L30,26 L32,26 L31,34 L33,34 L33,54 L30,62 L28,62 L26,68 L24,69 L22,74 L18,75 L18,77 L15,77 L15,79 L10,79 L10,81 L-6,81 L-10,80 L-11,78 L-20,75 L-24,71 L-25,66 L-25,58 L-22,58 L-21,44 L-19,44 L-19,32 L-15,26 L-13,26 L-11,21 L-7,14 L-2,12 L0,6 L-4,5 L-2,5 L-1,1 Z " fill="#B6D5ED" transform="translate(788,626)"/>
<path d="M0,0 L16,0 L16,2 L20,2 L26,9 L28,10 L28,22 L26,22 L26,24 L22,28 L18,28 L18,30 L16,30 L16,32 L8,32 L8,30 L-2,30 L-2,32 L-8,32 L-8,36 L-16,36 L-16,38 L-18,38 L-18,40 L-20,40 L-20,44 L-28,44 L-28,52 L-37,52 L-37,55 L-39,55 L-40,53 L-42,60 L-46,58 L-46,56 L-48,56 L-48,52 L-46,52 L-47,47 L-48,45 L-50,45 L-50,37 L-55,36 L-58,38 L-62,37 L-69,37 L-68,39 L-82,41 L-86,40 L-86,34 L-102,34 L-107,31 L-111,30 L-111,27 L-104,27 L-102,29 L-78,30 L-78,32 L-56,32 L-56,30 L-48,30 L-48,28 L-42,28 L-42,24 L-40,24 L-40,18 L-36,16 L-36,14 L-34,14 L-34,10 L-30,10 L-28,6 L-26,6 L-26,4 L-22,4 L-22,2 L0,2 Z " fill="#99B5A5" transform="translate(766,420)"/>
<path d="M0,0 L2,0 L2,2 L12,1 L18,1 L18,4 L24,4 L27,6 L27,8 L29,8 L30,10 L33,11 L34,16 L37,16 L40,25 L44,32 L45,40 L45,51 L42,63 L40,63 L40,71 L41,80 L39,81 L39,85 L37,85 L37,88 L35,89 L35,92 L31,94 L28,94 L29,98 L27,99 L27,102 L23,102 L23,104 L14,105 L14,108 L17,108 L17,110 L13,110 L13,112 L11,112 L11,110 L6,112 L-2,112 L-2,114 L-10,114 L-28,110 L-32,108 L-32,106 L-41,103 L-41,100 L-43,100 L-43,98 L-47,98 L-50,91 L-51,83 L-51,68 L-50,59 L-50,48 L-47,43 L-42,39 L-41,27 L-37,23 L-36,23 L-34,17 L-30,18 L-30,15 L-28,15 L-28,13 L-25,13 L-24,11 L-22,11 L-21,9 L-19,10 L-18,6 L-6,2 Z M-4,6 L-12,9 L-12,12 L-16,12 L-18,17 L-20,17 L-20,19 L-22,19 L-22,21 L-24,21 L-27,28 L-33,32 L-35,41 L-38,45 L-38,49 L-41,50 L-44,62 L-45,63 L-45,69 L-43,69 L-44,75 L-44,85 L-41,98 L-39,98 L-39,100 L-32,104 L-23,106 L-23,108 L-15,110 L-2,110 L0,108 L11,106 L11,103 L15,102 L18,99 L19,96 L24,91 L27,87 L27,85 L30,85 L30,81 L33,81 L35,77 L37,68 L39,63 L39,37 L38,31 L36,30 L34,23 L31,16 L27,16 L25,12 L23,12 L23,10 L18,10 L16,6 Z " fill="#A9AFBB" transform="translate(798,605)"/>
<path d="M0,0 L20,0 L22,4 L27,4 L27,6 L31,8 L31,10 L35,10 L39,19 L40,24 L42,25 L43,31 L43,57 L40,64 L38,73 L37,75 L34,75 L34,79 L31,79 L29,84 L25,89 L23,90 L20,95 L18,97 L15,97 L15,100 L4,102 L2,104 L-11,104 L-19,102 L-19,100 L-28,98 L-35,94 L-35,92 L-37,92 L-40,79 L-39,69 L-38,73 L-35,73 L-34,70 L-33,77 L-31,77 L-29,86 L-24,89 L-16,93 L-16,95 L4,96 L4,94 L9,94 L9,92 L12,92 L12,90 L16,88 L18,83 L20,83 L22,77 L24,77 L27,62 L30,61 L30,52 L33,49 L34,53 L36,47 L36,29 L33,28 L32,22 L30,22 L30,19 L27,19 L23,15 L23,13 L19,11 L12,7 L-5,7 L-7,11 L-14,11 L-12,6 L-8,6 L-8,3 Z " fill="#B9C2CF" transform="translate(794,611)"/>
<path d="M0,0 L5,0 L4,7 L-1,11 L-1,14 L-3,19 L-1,19 L-1,22 L-8,23 L-9,26 L-7,26 L-9,34 L-8,38 L-9,39 L-10,47 L-8,47 L-7,57 L1,57 L1,59 L7,57 L12,59 L13,55 L20,50 L21,40 L23,40 L23,35 L21,35 L22,33 L25,30 L29,28 L30,26 L28,26 L27,23 L31,20 L33,12 L34,14 L36,14 L35,22 L37,22 L37,42 L34,50 L32,50 L30,56 L28,57 L26,62 L22,63 L22,65 L19,65 L19,67 L14,67 L14,69 L-2,69 L-6,68 L-7,66 L-16,63 L-20,59 L-21,54 L-21,46 L-18,46 L-17,32 L-15,32 L-15,20 L-11,14 L-9,14 L-7,9 L-3,2 Z M2,5 Z " fill="#C2D0DF" transform="translate(784,638)"/>
<path d="M0,0 L15,0 L15,2 L19,1 L19,3 L24,4 L28,6 L37,7 L38,9 L44,11 L53,13 L58,14 L61,10 L64,10 L64,12 L62,12 L62,14 L64,14 L64,16 L66,16 L66,18 L68,18 L69,20 L70,34 L68,35 L66,39 L61,44 L54,44 L54,46 L51,45 L50,40 L57,40 L62,37 L59,35 L59,31 L51,32 L52,28 L55,28 L55,23 L51,24 L47,24 L41,22 L39,19 L35,18 L35,15 L33,16 L33,19 L31,19 L31,16 L29,16 L30,24 L29,22 L27,22 L27,20 L25,20 L25,18 L21,20 L20,17 L15,18 L15,16 L5,16 L-1,14 L-8,14 L-9,16 L-7,16 L-8,19 L-11,19 L-11,16 L-16,17 L-17,20 L-21,19 L-23,20 L-25,18 L-30,18 L-27,15 L-25,15 L-24,12 L-13,11 L-11,7 L-9,5 L-5,5 L-5,1 Z " fill="#91B6A8" transform="translate(577,353)"/>
<path d="M0,0 L9,1 L9,4 L14,5 L19,10 L27,19 L27,21 L31,21 L33,46 L32,59 L30,56 L29,54 L25,64 L22,69 L21,77 L23,77 L23,79 L21,79 L20,84 L18,86 L18,91 L21,95 L24,102 L26,106 L26,111 L31,111 L35,114 L45,115 L49,118 L54,120 L62,121 L63,122 L85,122 L88,120 L91,120 L91,122 L95,123 L91,123 L91,125 L87,125 L87,127 L61,127 L61,125 L51,125 L51,123 L45,123 L45,119 L31,119 L31,115 L21,115 L21,103 L17,103 L17,95 L13,95 L13,81 L17,81 L17,65 L19,65 L19,63 L21,63 L21,59 L23,59 L23,53 L25,53 L25,47 L27,47 L27,31 L25,31 L25,25 L23,25 L23,21 L21,21 L21,17 L17,15 L13,11 L13,9 L9,9 L9,7 L1,7 L1,5 L-1,5 L-1,7 L-7,7 L-7,9 L-13,9 L-13,11 L-15,11 L-15,13 L-19,13 L-19,15 L-21,15 L-21,17 L-25,21 L-27,21 L-27,25 L-29,25 L-29,27 L-33,31 L-35,31 L-35,35 L-37,35 L-37,39 L-39,39 L-39,45 L-41,45 L-41,55 L-43,55 L-43,61 L-44,61 L-44,55 L-46,55 L-45,44 L-40,32 L-34,25 L-33,22 L-31,22 L-29,17 L-24,12 L-21,11 L-21,9 L-19,9 L-19,7 L-17,7 L-16,5 L-4,2 Z " fill="#6E74A9" transform="translate(513,579)"/>
<path d="M0,0 L18,0 L18,2 L22,2 L22,4 L26,4 L26,8 L28,8 L28,24 L26,24 L26,28 L24,28 L24,30 L18,30 L18,32 L14,32 L14,34 L-14,34 L-14,32 L-16,32 L-16,24 L-18,24 L-18,18 L-14,18 L-14,14 L-12,14 L-12,12 L-10,12 L-9,7 L-6,4 L-4,4 L-4,2 L0,2 Z " fill="#9FAEB5" transform="translate(862,544)"/>
<path d="M0,0 L4,0 L4,2 L8,2 L10,5 L14,6 L16,9 L20,10 L20,12 L26,12 L26,14 L32,14 L32,16 L62,16 L62,18 L68,18 L68,20 L72,20 L72,22 L76,22 L76,24 L80,24 L80,26 L84,26 L84,28 L90,28 L90,30 L94,30 L94,32 L98,32 L98,34 L102,34 L108,41 L110,42 L110,56 L108,56 L108,60 L106,60 L105,62 L104,59 L107,59 L106,56 L105,43 L103,43 L103,41 L101,41 L101,39 L99,39 L99,37 L101,37 L101,35 L96,38 L96,40 L90,39 L75,35 L74,32 L65,32 L60,31 L60,29 L56,28 L56,26 L52,27 L52,25 L37,25 L32,22 L24,22 L16,19 L10,17 L10,15 L4,16 L2,15 L0,8 L1,3 L3,3 L3,1 Z " fill="#8CB99B" transform="translate(540,328)"/>
<path d="M0,0 L23,0 L25,1 L25,3 L20,2 L21,5 L29,6 L29,8 L33,7 L35,8 L36,16 L30,17 L29,14 L27,14 L27,19 L43,20 L43,22 L51,22 L52,29 L48,28 L41,27 L37,27 L35,25 L31,25 L29,21 L24,21 L23,24 L18,23 L15,24 L15,22 L6,23 L5,25 L1,25 L1,22 L-5,22 L-6,21 L-7,26 L-5,26 L-5,28 L-11,30 L-17,29 L-20,27 L-28,28 L-27,17 L-31,16 L-28,16 L-27,14 L-23,15 L-18,14 L-17,16 L-14,14 L11,14 L17,16 L21,15 L18,11 L16,13 L14,10 L9,10 L9,6 L5,8 L5,4 L-1,5 Z M-31,28 L-28,29 Z " fill="#92B7C4" transform="translate(491,378)"/>
<path d="M0,0 L22,0 L22,2 L30,2 L30,4 L38,4 L38,12 L40,12 L40,14 L42,14 L42,20 L40,16 L38,20 L39,13 L35,14 L32,12 L22,11 L20,11 L-2,12 L-12,15 L-12,17 L-19,17 L-19,19 L-24,20 L-24,22 L-26,22 L-26,24 L-31,26 L-33,29 L-38,31 L-40,36 L-47,41 L-47,36 L-45,36 L-44,32 L-41,31 L-40,27 L-36,22 L-34,21 L-33,17 L-35,17 L-35,15 L-32,15 L-32,12 L-30,12 L-30,10 L-26,10 L-26,8 L-22,8 L-22,6 L-16,6 L-16,4 L-10,4 L-10,2 L0,2 Z " fill="#84A3B9" transform="translate(796,592)"/>
<path d="M0,0 L2,0 L2,2 L12,1 L18,1 L18,4 L23,5 L27,9 L27,11 L29,11 L33,16 L33,21 L37,22 L37,27 L36,25 L34,25 L31,18 L31,16 L27,16 L23,12 L23,10 L18,10 L16,7 L-4,7 L-12,9 L-12,12 L-16,12 L-18,17 L-20,17 L-20,19 L-22,19 L-22,21 L-24,21 L-26,28 L-31,32 L-33,32 L-33,39 L-37,45 L-38,49 L-40,50 L-43,62 L-46,63 L-47,69 L-48,70 L-49,83 L-51,79 L-51,68 L-50,59 L-50,48 L-47,43 L-42,39 L-41,27 L-37,23 L-36,23 L-34,17 L-30,18 L-30,15 L-28,15 L-28,13 L-25,13 L-24,11 L-22,11 L-21,9 L-19,10 L-18,6 L-6,2 Z " fill="#94B4CC" transform="translate(798,605)"/>
<path d="M0,0 L22,0 L30,2 L30,6 L38,7 L43,9 L49,9 L54,8 L54,10 L57,10 L57,12 L55,13 L56,22 L51,22 L49,23 L42,22 L42,19 L34,20 L26,19 L26,11 L22,12 L22,10 L18,10 L18,8 L11,9 L7,12 L2,12 L2,10 L-3,11 L-4,10 L-9,10 L-12,10 L-14,10 L-15,6 L-16,7 L-23,8 L-25,9 L-30,7 L-26,5 L-25,4 L-10,3 L-10,1 Z M-16,10 L-14,11 L-16,12 Z M-18,12 L-16,13 L-18,14 Z " fill="#91BF9D" transform="translate(486,319)"/>
<path d="M0,0 L2,4 L4,6 L5,12 L7,12 L6,8 L8,9 L8,14 L12,14 L15,24 L16,27 L20,27 L20,29 L22,29 L22,32 L29,34 L31,35 L31,37 L48,41 L61,43 L61,41 L74,39 L74,41 L76,41 L75,38 L80,39 L80,37 L77,37 L77,34 L84,32 L86,33 L85,30 L90,31 L89,26 L92,27 L91,23 L95,21 L98,21 L97,14 L98,17 L100,17 L101,14 L101,18 L99,18 L99,22 L97,22 L97,24 L93,28 L91,28 L91,32 L87,32 L87,34 L85,34 L85,36 L81,40 L77,40 L77,42 L75,42 L75,44 L73,44 L73,46 L69,46 L69,48 L65,48 L65,50 L49,50 L49,48 L45,48 L45,46 L37,46 L37,44 L33,44 L33,42 L29,42 L29,40 L25,40 L25,38 L19,38 L15,34 L15,32 L11,32 L11,30 L7,30 L7,28 L5,28 L5,24 L3,24 L3,22 L-1,22 L-2,20 L-2,14 L-2,13 L-4,13 L-3,4 L0,4 Z " fill="#A0A9BB" transform="translate(735,676)"/>
<path d="M0,0 L20,0 L22,4 L27,4 L27,6 L31,8 L31,10 L35,10 L39,19 L40,24 L42,25 L43,31 L43,57 L40,64 L38,73 L37,75 L34,75 L34,79 L29,79 L30,74 L33,67 L35,49 L36,47 L36,29 L33,28 L32,22 L30,22 L30,19 L27,19 L23,15 L23,13 L19,11 L12,7 L-5,7 L-7,11 L-14,11 L-12,6 L-8,6 L-8,3 Z " fill="#A0BACF" transform="translate(794,611)"/>
<path d="M0,0 L5,0 L6,3 L20,3 L22,7 L25,7 L25,10 L27,10 L29,16 L31,17 L32,24 L32,35 L29,45 L28,45 L27,39 L26,40 L25,49 L22,50 L21,49 L21,39 L22,37 L20,37 L21,29 L19,29 L17,26 L12,25 L12,15 L4,14 L3,3 L-3,5 L-7,5 L-7,3 Z " fill="#AAC9E4" transform="translate(799,623)"/>
<path d="M0,0 L8,0 L18,2 L23,2 L25,7 L33,8 L34,6 L38,5 L37,11 L42,11 L46,17 L46,20 L48,21 L47,28 L49,28 L49,39 L51,39 L51,41 L53,41 L53,50 L58,56 L65,54 L66,58 L68,57 L68,65 L62,65 L62,67 L67,66 L67,68 L70,69 L68,69 L68,71 L71,72 L66,71 L65,68 L61,68 L61,64 L57,62 L57,60 L53,60 L51,55 L47,52 L47,40 L41,40 L41,24 L43,24 L43,20 L41,20 L41,16 L37,16 L37,14 L33,14 L33,12 L23,12 L23,8 L15,8 L15,6 L7,6 L7,4 L1,4 L1,8 L-3,8 L-3,10 L-13,10 L-14,6 L-4,4 L-3,1 Z " fill="#697DAD" transform="translate(655,602)"/>
<path d="M0,0 L8,1 L7,3 L10,4 L10,6 L17,6 L20,2 L25,3 L25,8 L23,8 L23,18 L15,24 L14,27 L7,26 L3,27 L3,25 L-5,25 L-6,15 L-8,15 L-8,7 L-6,2 Z " fill="#C6D9EC" transform="translate(782,670)"/>
<path d="M0,0 L11,0 L11,2 L13,2 L13,4 L31,8 L33,11 L39,12 L42,13 L42,19 L39,20 L33,18 L31,15 L27,14 L27,11 L25,12 L25,15 L23,15 L23,12 L21,12 L22,20 L21,18 L19,18 L19,16 L17,16 L17,14 L13,16 L12,13 L7,14 L7,12 L-3,12 L-9,10 L-16,10 L-17,12 L-15,12 L-16,15 L-19,15 L-19,12 L-24,13 L-25,16 L-29,15 L-31,16 L-33,14 L-38,14 L-35,11 L-33,11 L-32,8 L-21,7 L-19,3 L-17,1 L-17,3 L-1,1 Z " fill="#98C2A9" transform="translate(585,357)"/>
<path d="M0,0 L6,0 L8,3 L12,4 L14,7 L18,8 L25,16 L28,18 L28,22 L30,22 L30,26 L32,26 L32,34 L34,34 L34,38 L36,38 L36,42 L38,42 L38,50 L32,50 L32,46 L28,46 L26,41 L22,38 L20,31 L18,30 L16,25 L12,22 L12,18 L10,18 L10,16 L6,16 L4,11 L2,10 L2,6 L0,6 Z " fill="#0D2E1F" transform="translate(680,306)"/>
<path d="M0,0 L72,0 L72,2 L80,2 L80,4 L86,4 L86,6 L90,6 L90,8 L96,8 L98,11 L102,13 L97,15 L91,15 L83,12 L78,11 L78,7 L70,6 L48,6 L32,7 L18,7 L22,5 L-24,3 L-24,2 L0,2 Z " fill="#81AC8F" transform="translate(438,314)"/>
<path d="M0,0 L5,1 L5,7 L3,7 L3,11 L5,11 L9,15 L9,9 L12,7 L12,10 L14,10 L15,7 L15,11 L13,11 L15,16 L16,17 L16,41 L14,41 L12,35 L10,36 L8,43 L5,43 L4,45 L4,43 L-1,41 L-1,39 L-4,40 L-7,43 L-11,43 L-12,39 L-9,40 L-6,41 L-7,35 L-4,31 L0,30 L3,29 L3,24 L-1,26 L-2,12 L-3,8 L0,6 Z " fill="#8AAABF" transform="translate(715,465)"/>
<path d="M0,0 L2,0 L3,28 L5,30 L7,25 L11,25 L12,28 L15,29 L15,27 L17,27 L16,34 L17,35 L17,40 L22,42 L26,42 L28,43 L28,46 L33,44 L45,44 L45,49 L49,49 L50,56 L49,60 L47,59 L45,53 L43,52 L27,51 L27,49 L19,49 L19,47 L11,47 L11,45 L9,45 L9,41 L5,41 L1,37 L0,31 Z " fill="#8EB6A5" transform="translate(361,339)"/>
<path d="M0,0 L4,1 L1,1 L1,5 L3,5 L3,3 L5,4 L-2,13 L-3,19 L-3,31 L-4,34 L-1,35 L-2,38 L-4,38 L-5,41 L-2,44 L-3,50 L-1,56 L7,61 L17,65 L27,68 L27,69 L21,69 L21,71 L28,71 L28,72 L20,72 L20,70 L14,70 L14,68 L10,68 L10,66 L4,66 L2,62 L-2,62 L-6,57 L-8,56 L-9,48 L-12,46 L-12,40 L-10,40 L-10,36 L-8,36 L-8,12 L-6,12 L-6,8 L-4,8 L-4,4 L0,4 Z " fill="#768EAA" transform="translate(374,462)"/>
<path d="M0,0 L3,0 L3,2 L-1,1 Z M-16,1 L-1,2 L0,6 L4,6 L4,8 L6,8 L6,10 L10,9 L13,10 L16,8 L21,8 L20,11 L22,12 L22,10 L30,11 L30,13 L34,13 L40,20 L42,21 L42,35 L40,35 L40,39 L38,39 L37,41 L36,38 L39,38 L38,35 L37,22 L35,22 L35,20 L33,20 L33,18 L31,18 L31,16 L33,16 L33,14 L28,17 L28,19 L22,18 L7,14 L6,11 L-3,11 L-8,10 L-8,8 L-12,7 L-12,5 L-16,6 L-16,4 L-31,4 L-32,2 Z " fill="#91B99F" transform="translate(608,349)"/>
<path d="M0,0 L2,1 L2,3 L4,3 L5,0 L5,4 L1,4 L1,6 L-3,6 L-3,18 L-5,18 L-5,20 L-7,20 L-7,34 L-11,34 L-11,48 L-13,48 L-13,50 L-17,54 L-19,54 L-19,60 L-21,60 L-21,66 L-23,66 L-23,78 L-25,78 L-25,86 L-27,86 L-28,88 L-28,86 L-30,86 L-29,77 L-28,75 L-27,65 L-24,58 L-22,52 L-16,45 L-18,41 L-16,39 L-14,33 L-12,30 L-11,20 L-8,15 L-7,6 L-2,1 Z " fill="#6770A5" transform="translate(637,612)"/>
<path d="M0,0 L22,0 L22,2 L30,2 L30,4 L38,4 L38,12 L40,12 L40,14 L42,14 L42,20 L40,16 L38,20 L39,13 L35,14 L32,12 L26,12 L24,11 L24,7 L21,6 L21,4 L7,5 L2,7 L-14,11 L-21,11 L-25,9 L-25,11 L-22,12 L-26,13 L-26,11 L-29,11 L-29,13 L-32,14 L-32,12 L-30,12 L-30,10 L-26,10 L-26,8 L-22,8 L-22,6 L-16,6 L-16,4 L-10,4 L-10,2 L0,2 Z " fill="#7995A8" transform="translate(796,592)"/>
<path d="M0,0 L1,0 L1,32 L-1,32 L-1,46 L1,46 L1,52 L-1,52 L-1,56 L3,56 L3,62 L7,62 L7,68 L11,68 L11,66 L19,66 L19,64 L23,64 L23,62 L29,62 L29,60 L33,61 L30,61 L30,63 L32,63 L32,67 L28,69 L25,68 L23,67 L21,71 L17,72 L10,79 L9,79 L7,73 L4,71 L2,63 L-1,62 L-5,56 L-6,42 L-5,31 L-3,31 L-2,29 L-2,31 L0,31 Z M-7,44 Z " fill="#6D86A4" transform="translate(731,546)"/>
<path d="M0,0 L3,0 L6,7 L8,11 L8,16 L13,16 L17,19 L27,20 L31,23 L36,25 L44,26 L45,27 L67,27 L70,25 L73,25 L73,27 L77,28 L73,28 L73,30 L69,30 L69,32 L43,32 L43,30 L33,30 L33,28 L27,28 L27,24 L13,24 L13,20 L3,20 L3,7 L0,7 Z " fill="#6C6C9D" transform="translate(531,674)"/>
<path d="M0,0 L1,0 L1,24 L3,24 L3,64 L2,64 L2,25 L-1,25 L-1,63 L-3,63 L-3,84 L-5,81 L-7,88 L-10,92 L-13,101 L-14,101 L-14,93 L-9,83 L-8,78 L-8,76 L-10,75 L-6,70 L-6,27 L-3,26 L-3,18 L-2,18 L-2,24 L0,24 Z " fill="#7B99B6" transform="translate(731,482)"/>
<path d="M0,0 L1,3 L5,3 L5,0 L7,0 L7,3 L12,4 L12,7 L9,7 L9,17 L10,17 L10,31 L7,31 L6,40 L8,40 L9,37 L10,41 L8,41 L8,47 L7,47 L7,41 L5,41 L3,36 L1,35 L1,24 L-2,24 L-3,22 L-5,20 L-8,20 L-8,18 L-2,18 L-2,10 L-1,9 Z " fill="#8196B9" transform="translate(725,649)"/>
<path d="M0,0 L7,0 L9,2 L33,3 L33,5 L55,5 L55,3 L63,3 L63,1 L69,1 L69,2 L64,2 L64,4 L66,5 L63,6 L61,10 L56,9 L53,11 L49,10 L42,10 L43,12 L29,14 L25,13 L25,7 L9,7 L4,4 L0,3 Z " fill="#82A8A3" transform="translate(655,447)"/>
<path d="M0,0 L32,0 L32,1 L1,1 L1,3 L32,3 L32,4 L3,5 L-7,9 L-9,13 L-12,17 L-11,21 L-15,23 L-15,28 L-14,29 L-14,34 L-16,36 L-16,42 L-17,43 L-18,51 L-19,51 L-19,21 L-21,21 L-21,52 L-22,52 L-22,20 L-20,20 L-20,14 L-18,14 L-18,12 L-16,12 L-15,7 L-12,6 L-12,4 L-6,4 L-6,2 L0,2 Z " fill="#8BB396" transform="translate(382,318)"/>
<path d="M0,0 L1,4 L3,4 L3,12 L5,12 L5,14 L7,14 L7,24 L9,24 L9,48 L7,48 L7,58 L5,58 L5,62 L3,62 L3,70 L1,70 L1,74 L-1,74 L-2,78 L-3,71 L-2,73 L0,73 L-2,64 L-2,58 L-1,56 L1,56 L3,44 L3,33 L1,23 L1,15 L4,15 L4,13 L1,14 L2,5 L0,5 L-1,7 L-2,4 L0,4 Z " fill="#97AAB8" transform="translate(839,612)"/>
<path d="M0,0 L2,0 L2,8 L-1,16 L-3,16 L-5,22 L-7,23 L-9,28 L-13,29 L-13,31 L-16,31 L-16,33 L-21,33 L-21,35 L-37,35 L-41,34 L-42,32 L-51,29 L-55,25 L-56,20 L-56,12 L-51,10 L-50,14 L-51,16 L-49,16 L-48,25 L-45,25 L-45,28 L-43,28 L-43,30 L-21,30 L-15,27 L-14,23 L-11,23 L-11,20 L-8,17 L-6,17 L-4,12 L-2,7 L0,7 Z " fill="#BAC8D6" transform="translate(819,672)"/>
<path d="M0,0 L3,0 L3,39 L1,39 L1,70 L-4,70 L-4,77 L-8,79 L-8,77 L-13,77 L-10,67 L-6,61 L-4,55 L-3,55 L-2,38 L0,38 Z " fill="#7D9CB8" transform="translate(730,507)"/>
<path d="M0,0 L2,0 L2,3 L-1,5 L-2,10 L-5,12 L-7,20 L-8,22 L-10,22 L-11,28 L-14,37 L-15,44 L-18,50 L-16,51 L-19,62 L-22,62 L-22,58 L-24,58 L-23,52 L-25,52 L-25,46 L-22,39 L-20,32 L-18,32 L-17,26 L-14,22 L-13,15 L-7,11 L-4,4 L-2,4 L-2,2 L0,2 Z " fill="#9ABBD1" transform="translate(778,622)"/>
<path d="M0,0 L1,2 L6,2 L5,5 L4,18 L3,20 L4,23 L4,39 L3,40 L2,52 L0,48 L-1,46 L0,42 L-2,42 L-2,39 L-6,41 L-7,39 L-11,41 L-11,38 L-8,37 L-6,32 L-4,27 L-2,26 L-1,23 L-7,27 L-5,23 L-4,16 L-2,10 L-2,2 Z " fill="#85A3C7" transform="translate(716,506)"/>
<path d="M0,0 L5,1 L5,3 L7,3 L7,14 L9,14 L9,16 L11,16 L11,25 L16,31 L23,29 L24,33 L26,32 L26,40 L20,40 L20,42 L25,41 L25,43 L28,44 L26,44 L26,46 L29,47 L24,46 L23,43 L19,43 L19,39 L15,37 L15,35 L11,35 L9,30 L5,27 L5,14 L0,14 Z " fill="#7187B6" transform="translate(697,627)"/>
<path d="M0,0 L1,4 L4,4 L2,16 L4,16 L5,20 L9,22 L10,25 L15,26 L19,28 L28,30 L41,30 L48,29 L50,26 L57,24 L60,19 L64,15 L66,15 L67,10 L70,10 L68,15 L64,20 L62,21 L59,26 L57,28 L54,28 L54,31 L43,33 L41,35 L28,35 L20,33 L20,31 L11,29 L4,25 L4,23 L2,23 L-1,10 Z " fill="#B1B8C5" transform="translate(755,680)"/>
<path d="M0,0 L5,2 L5,4 L7,4 L8,6 L11,7 L12,12 L15,12 L18,21 L22,28 L23,36 L23,47 L20,59 L18,59 L14,75 L13,77 L11,77 L14,64 L16,59 L16,27 L13,26 L13,21 L14,18 L11,17 L9,11 L7,7 L5,7 L4,3 L0,1 Z " fill="#99AEBE" transform="translate(820,609)"/>
<path d="M0,0 L23,0 L25,1 L25,3 L20,2 L21,5 L29,6 L29,8 L33,7 L35,8 L36,16 L30,17 L29,14 L21,14 L18,11 L16,13 L14,10 L9,10 L9,6 L5,8 L5,4 L-1,5 Z " fill="#9CC4C1" transform="translate(491,378)"/>
<path d="M0,0 L1,2 L11,2 L16,4 L18,4 L18,7 L20,6 L20,11 L22,11 L22,15 L20,15 L21,17 L24,16 L24,24 L26,24 L26,26 L23,26 L23,33 L21,32 L18,25 L18,20 L15,20 L14,15 L10,14 L10,12 L8,12 L5,9 L-1,8 L-1,4 L-5,4 L-5,2 Z " fill="#93A9BB" transform="translate(817,601)"/>
<path d="M0,0 L5,1 L7,0 L23,2 L23,4 L26,3 L29,7 L29,9 L37,9 L43,10 L43,12 L47,12 L49,18 L43,18 L43,15 L35,16 L27,15 L27,7 L23,8 L23,6 L19,6 L19,4 L12,5 L8,8 L3,8 L3,6 L-2,7 L-3,6 L-8,6 L-11,6 L-13,6 L-13,3 L-9,1 L-1,1 Z M-15,6 L-13,7 L-15,8 Z M-17,8 L-15,9 L-17,10 Z " fill="#96C5A2" transform="translate(485,323)"/>
<path d="M0,0 L6,0 L6,2 L36,2 L36,4 L42,4 L42,6 L46,6 L46,8 L50,8 L50,10 L54,10 L54,12 L58,12 L58,14 L64,14 L64,16 L68,17 L64,17 L64,19 L58,18 L58,17 L63,17 L63,15 L57,17 L54,18 L48,17 L48,15 L46,15 L46,13 L42,13 L41,10 L28,9 L24,8 L10,7 L6,5 L35,5 L35,3 L0,4 L0,3 L5,3 L5,1 L0,1 Z M42,7 L41,9 L45,9 L45,7 Z " fill="#7EA78B" transform="translate(566,342)"/>
<path d="M0,0 L2,0 L2,3 L7,2 L10,5 L10,7 L14,9 L18,11 L20,17 L22,17 L25,28 L28,32 L28,39 L26,39 L26,36 L22,34 L19,32 L17,25 L15,24 L13,19 L9,16 L9,12 L7,12 L7,10 L3,10 L1,5 Z " fill="#123625" transform="translate(683,312)"/>
<path d="M0,0 L5,0 L4,7 L-1,11 L-1,14 L-3,19 L-1,19 L-1,22 L-8,23 L-10,30 L-13,30 L-14,35 L-16,43 L-18,42 L-17,32 L-15,32 L-15,20 L-11,14 L-9,14 L-7,9 L-3,2 Z M2,5 Z " fill="#AACDE5" transform="translate(784,638)"/>
<path d="M0,0 L2,0 L1,5 L-4,8 L-5,11 L-7,11 L-8,18 L-10,25 L-13,30 L-14,38 L-16,39 L-18,46 L-19,54 L-20,55 L-21,70 L-23,66 L-23,55 L-22,46 L-22,35 L-19,30 L-14,26 L-13,14 L-9,10 L-8,10 L-6,4 L-2,5 L-2,2 L0,2 Z " fill="#8FAFC8" transform="translate(770,618)"/>
<path d="M0,0 L15,0 L15,2 L19,1 L19,3 L24,4 L28,6 L37,7 L38,9 L44,11 L53,13 L51,16 L47,17 L40,15 L39,12 L25,10 L21,8 L21,6 L19,6 L19,4 L8,5 L3,7 L-9,7 L-5,5 L-5,1 Z " fill="#94BEA4" transform="translate(577,353)"/>
<path d="M0,0 L4,2 L4,4 L7,4 L7,7 L9,7 L11,13 L13,14 L14,21 L14,32 L11,42 L10,42 L9,36 L8,37 L7,46 L5,43 L7,23 L7,19 L5,19 L5,17 L7,17 L7,12 L4,11 L4,8 L2,8 L0,3 Z " fill="#A8C1D5" transform="translate(817,626)"/>
<path d="M0,0 L3,0 L7,9 L8,14 L10,15 L11,21 L11,47 L8,54 L6,63 L5,65 L2,65 L2,69 L-1,68 L2,61 L4,55 L6,55 L5,52 L7,33 L7,24 L3,5 L1,5 Z " fill="#A4B9C8" transform="translate(826,621)"/>
<path d="M0,0 L6,0 L6,8 L-2,8 L-2,10 L-18,10 L-18,12 L-24,12 L-24,4 L-12,4 L-12,2 L0,2 Z " fill="#112E1B" transform="translate(400,248)"/>
<path d="M0,0 L1,0 L1,17 L3,17 L3,0 L4,2 L6,2 L6,10 L9,24 L15,25 L22,27 L23,30 L25,31 L24,33 L26,33 L26,35 L28,36 L26,36 L26,38 L20,38 L20,30 L12,30 L12,28 L4,28 L4,18 L0,18 Z " fill="#7274A0" transform="translate(426,598)"/>
<path d="M0,0 L1,3 L3,3 L4,0 L4,4 L2,4 L2,8 L0,8 L0,10 L-4,14 L-6,14 L-6,18 L-10,18 L-10,20 L-12,20 L-12,22 L-16,26 L-20,26 L-20,28 L-22,28 L-22,30 L-28,31 L-29,30 L-34,32 L-45,32 L-48,31 L-48,33 L-51,33 L-51,28 L-59,28 L-59,26 L-61,25 L-53,26 L-36,29 L-36,27 L-23,25 L-23,27 L-21,27 L-22,24 L-17,25 L-17,23 L-20,23 L-20,20 L-13,18 L-11,19 L-12,16 L-7,17 L-8,12 L-5,13 L-6,9 L-2,7 L1,7 Z " fill="#A4AAB8" transform="translate(832,690)"/>
<path d="M0,0 L1,2 L3,2 L2,10 L4,10 L3,22 L2,29 L0,29 L-1,34 L-5,39 L-4,31 L-7,32 L-6,25 L-5,17 L-3,14 L-5,14 L-6,11 L-2,8 Z M-5,31 Z " fill="#B7D0E3" transform="translate(817,650)"/>
<path d="M0,0 L8,1 L9,2 L11,0 L13,1 L13,6 L11,6 L11,8 L13,8 L14,15 L12,32 L11,36 L9,35 L9,25 L10,23 L8,23 L9,15 L7,15 L5,12 L0,11 Z " fill="#AFCBE1" transform="translate(811,637)"/>
<path d="M0,0 L2,0 L2,2 L12,1 L18,1 L18,4 L23,5 L27,9 L27,11 L29,11 L33,16 L33,21 L37,22 L37,27 L36,25 L34,25 L31,18 L31,16 L27,16 L23,12 L23,10 L18,10 L16,7 L10,6 L10,4 L-7,5 L-14,8 L-18,8 L-19,10 L-18,6 L-6,2 Z M-22,9 L-19,11 L-24,13 L-24,11 L-22,11 Z " fill="#99B2C6" transform="translate(798,605)"/>
<path d="M0,0 L1,0 L1,6 L3,6 L3,22 L5,29 L5,35 L7,35 L7,37 L3,37 L3,35 L-1,35 L-4,28 L-5,20 L-3,20 L-3,7 Z " fill="#A7B2C3" transform="translate(752,668)"/>
<path d="M0,0 L1,0 L1,6 L3,6 L4,3 L3,9 L-1,16 L-2,24 L0,24 L0,26 L-2,26 L-3,31 L-5,33 L-5,38 L-3,42 L-5,42 L-5,49 L-2,50 L-6,50 L-6,42 L-10,42 L-10,28 L-6,28 L-6,12 L-4,12 L-4,10 L-2,10 L-2,6 L0,6 Z " fill="#6D73A8" transform="translate(536,632)"/>
<path d="M0,0 L1,3 L3,3 L4,0 L10,10 L10,15 L13,16 L14,24 L11,31 L10,36 L12,36 L10,41 L7,42 L5,41 L5,43 L3,43 L3,49 L6,50 L2,50 L2,42 L4,42 L4,40 L6,40 L6,28 L8,28 L8,24 L10,24 L10,22 L8,22 L8,16 L6,16 L4,9 L2,8 L2,4 L0,4 Z " fill="#747EA7" transform="translate(420,548)"/>
<path d="M0,0 L2,0 L3,7 L-1,11 L-3,11 L-4,14 L-1,15 L-4,18 L-8,19 L-8,14 L-12,14 L-18,15 L-18,12 L-16,12 L-16,9 L-12,8 L-12,4 L-14,3 L-10,2 L0,2 Z M-10,10 Z M-1,12 L2,13 L0,15 Z M-19,15 Z " fill="#94BBB9" transform="translate(618,386)"/>
<path d="M0,0 L6,1 L5,6 L1,6 L-21,7 L-31,10 L-31,12 L-38,12 L-38,14 L-43,15 L-43,17 L-45,17 L-45,19 L-51,21 L-49,16 L-45,16 L-45,13 L-41,10 L-31,6 L-25,4 Z " fill="#89A7BD" transform="translate(815,597)"/>
<path d="M0,0 L7,1 L7,3 L9,3 L12,6 L12,8 L14,8 L17,16 L17,19 L19,19 L22,32 L21,46 L20,56 L18,57 L15,68 L11,70 L12,65 L15,58 L17,40 L18,38 L18,20 L15,19 L14,13 L12,13 L12,10 L9,10 L5,6 L5,4 L1,2 Z " fill="#A5BED2" transform="translate(812,620)"/>
<path d="M0,0 L3,1 L3,10 L-1,23 L-3,23 L-3,26 L-5,26 L-5,28 L-9,28 L-11,32 L-17,33 L-21,32 L-20,27 L-13,29 L-12,25 L-5,20 L-4,10 L-2,10 L-2,5 L-4,5 L-3,3 Z " fill="#C5D1E2" transform="translate(809,668)"/>
<path d="M0,0 L4,1 L1,1 L1,3 L3,3 L3,7 L-1,9 L-4,8 L-6,7 L-8,11 L-12,12 L-19,19 L-20,19 L-22,13 L-25,11 L-25,3 L-23,3 L-23,8 L-18,8 L-18,6 L-10,6 L-10,4 L-6,4 L-6,2 L0,2 Z " fill="#7997AE" transform="translate(760,606)"/>
<path d="M0,0 L5,1 L5,7 L3,7 L3,11 L5,11 L7,14 L10,15 L10,11 L12,11 L11,16 L7,21 L11,21 L12,25 L9,28 L7,27 L7,23 L3,23 L1,26 L-1,26 L-2,12 L-3,8 L0,6 Z " fill="#90B1BB" transform="translate(715,465)"/>
<path d="M0,0 L1,0 L1,5 L7,5 L5,15 L7,15 L7,9 L9,10 L11,16 L19,21 L29,25 L39,28 L39,29 L33,29 L33,31 L40,31 L40,32 L32,32 L32,30 L26,30 L26,28 L22,28 L22,26 L16,26 L14,22 L10,22 L6,17 L4,16 L3,8 L0,6 Z " fill="#7481AB" transform="translate(362,502)"/>
<path d="M0,0 L2,0 L3,28 L5,30 L7,25 L11,25 L12,28 L15,29 L15,27 L17,27 L16,31 L15,33 L11,34 L8,31 L8,36 L11,39 L10,45 L9,41 L5,41 L1,37 L0,31 Z " fill="#91BAA0" transform="translate(361,339)"/>
<path d="M0,0 L2,0 L3,2 L3,8 L1,9 L1,52 L-2,55 L-4,43 L-3,16 L-1,16 L-2,7 Z " fill="#7F9DBD" transform="translate(725,500)"/>
<path d="M0,0 L16,0 L16,2 L20,2 L19,4 L4,5 L1,6 L-22,6 L-25,5 L-25,9 L-29,7 L-26,6 L-26,4 L-22,4 L-22,2 L0,2 Z " fill="#92AB99" transform="translate(766,420)"/>
<path d="M0,0 L4,1 L1,1 L1,5 L3,5 L3,3 L5,3 L7,11 L32,12 L35,13 L35,11 L33,10 L35,10 L36,8 L36,11 L42,11 L42,12 L36,12 L36,14 L32,14 L32,16 L4,16 L4,14 L2,14 L2,6 L0,6 Z " fill="#86939A" transform="translate(844,562)"/>
<path d="M0,0 L1,3 L3,3 L4,0 L4,4 L2,4 L4,9 L5,10 L5,34 L3,34 L1,28 L-3,30 L-4,26 L-2,20 L0,20 L0,14 L-4,14 L-2,10 L0,8 L1,4 L-1,4 L-2,8 L-2,2 Z " fill="#87A7B7" transform="translate(726,472)"/>
<path d="M0,0 L2,2 L2,8 L0,8 L0,36 L1,48 L-2,51 L-5,60 L-7,59 L-6,50 L-4,50 L-4,38 L-3,37 L-3,21 L-4,17 L-3,16 L-2,3 Z " fill="#82A0C2" transform="translate(722,508)"/>
<path d="M0,0 L15,0 L17,5 L14,5 L14,7 L10,7 L6,7 L3,6 L2,8 L0,8 L-1,6 L-12,9 L-16,11 L-17,8 L-18,10 L-20,10 L-20,7 L-18,7 L-17,4 L-3,4 Z " fill="#91B9BB" transform="translate(686,464)"/>
<path d="M0,0 L5,2 L5,4 L13,4 L13,6 L15,7 L13,7 L13,9 L16,9 L16,7 L30,7 L35,6 L35,4 L39,5 L36,5 L36,7 L40,8 L36,8 L36,10 L32,10 L32,12 L16,12 L16,10 L12,10 L12,8 L4,8 L4,6 L0,6 L0,4 L-4,3 L0,3 Z " fill="#9EA4B1" transform="translate(768,714)"/>
<path d="M0,0 L1,4 L3,4 L3,12 L5,12 L5,14 L7,14 L7,24 L9,24 L9,48 L7,48 L7,58 L5,58 L4,62 L3,55 L4,57 L6,57 L5,48 L5,16 L4,24 L3,24 L3,15 L4,13 L1,14 L2,5 L0,5 L-1,7 L-2,4 L0,4 Z " fill="#8596A3" transform="translate(839,612)"/>
<path d="M0,0 L6,0 L6,4 L9,3 L9,5 L6,5 L6,14 L-1,19 L-3,24 L0,25 L-5,25 L-5,23 L-7,23 L-7,27 L0,27 L0,28 L-8,28 L-8,22 L-6,22 L-6,16 L-4,16 L-4,12 L2,12 L2,10 L0,10 Z " fill="#718DA7" transform="translate(378,410)"/>
<path d="M0,0 L8,1 L13,3 L19,3 L24,2 L24,4 L27,4 L27,6 L25,7 L26,16 L21,16 L18,16 L16,14 L16,6 L9,6 L9,4 L0,2 Z " fill="#8AB898" transform="translate(516,325)"/>
<path d="M0,0 L6,0 L6,5 L22,6 L22,8 L30,8 L31,15 L27,14 L20,13 L16,13 L14,11 L10,11 L8,7 L2,7 L0,5 Z " fill="#94B8C6" transform="translate(512,392)"/>
<path d="M0,0 L2,0 L3,4 L2,11 L2,26 L1,28 L-3,28 L-5,22 L-5,18 L-7,17 L-6,16 L-4,6 L-3,4 L-1,4 Z " fill="#92A9C2" transform="translate(746,662)"/>
<path d="M0,0 Z M-1,1 L2,1 L1,5 L-2,12 L-4,12 L-4,15 L-7,15 L-8,20 L-14,23 L-34,23 L-36,22 L-36,20 L-38,20 L-38,17 L-41,17 L-41,8 L-39,12 L-39,16 L-34,17 L-33,20 L-16,20 L-12,16 L-8,16 L-8,14 L-6,14 L-6,11 L-4,11 L-2,2 Z " fill="#C1CCDB" transform="translate(812,680)"/>
<path d="M0,0 L2,0 L2,2 L4,2 L4,0 L16,0 L16,2 L20,2 L20,6 L22,6 L22,8 L16,10 L10,9 L7,7 L-1,8 Z M-4,8 L-1,9 Z " fill="#89AEC2" transform="translate(464,398)"/>
<path d="M0,0 L3,0 L6,7 L8,11 L8,16 L13,16 L17,19 L27,20 L27,23 L14,23 L14,20 L3,20 L3,7 L0,7 Z " fill="#787AB0" transform="translate(531,674)"/>
<path d="M0,0 L1,0 L1,12 L-1,12 L-1,24 L-2,26 L-5,26 L-5,30 L-7,30 L-8,28 L-8,18 L-8,14 L-6,8 L-5,6 L-2,6 Z " fill="#AAC6DB" transform="translate(768,658)"/>
<path d="M0,0 L3,0 L3,3 L5,4 L4,8 L0,12 L-2,13 L-8,24 L-10,24 L-12,29 L-14,30 L-12,24 L-11,16 L-8,13 L-7,10 L-5,10 L-3,4 L-1,4 Z " fill="#A4C7DF" transform="translate(783,628)"/>
<path d="M0,0 L9,1 L9,4 L14,5 L19,10 L23,14 L22,21 L21,17 L17,15 L13,11 L13,9 L9,9 L9,7 L1,7 L1,5 L-1,5 L-1,7 L-7,7 L-7,6 L-2,6 L-2,1 Z " fill="#6972A5" transform="translate(513,579)"/>
<path d="M0,0 L4,0 L4,2 L6,2 L6,0 L8,0 L8,3 L10,3 L10,0 L12,0 L12,3 L14,3 L14,0 L16,0 L16,3 L18,3 L18,0 L20,0 L20,3 L22,3 L22,0 L24,0 L25,5 L9,5 L4,7 L-1,9 L-8,9 L-8,4 L-2,3 L-2,1 Z " fill="#9BC2BF" transform="translate(554,388)"/>
<path d="M0,0 L22,1 L26,3 L26,5 L33,6 L35,7 L35,9 L42,9 L42,13 L38,13 L38,11 L26,11 L22,7 L20,5 L18,5 L18,3 L6,3 L1,2 L-2,3 L-4,1 Z " fill="#93C2A0" transform="translate(490,322)"/>
<path d="M0,0 L7,1 L9,5 L9,10 L7,13 L9,13 L9,18 L7,19 L7,17 L-1,18 L0,14 L3,14 L3,9 L-1,10 L-2,3 L-4,2 Z " fill="#95BAAB" transform="translate(629,367)"/>
<path d="M0,0 L3,0 L3,12 L-3,17 L-5,21 L-6,30 L-8,31 L-9,34 L-11,34 L-12,30 L-9,26 L-7,20 L-6,13 L-3,4 L0,4 Z " fill="#8BAAC5" transform="translate(754,632)"/>
<path d="M0,0 L16,1 L16,9 L18,9 L18,11 L20,11 L20,17 L18,13 L16,17 L17,10 L13,11 L10,9 L4,9 L2,8 L1,3 Z " fill="#8399A9" transform="translate(818,595)"/>
<path d="M0,0 L2,0 L1,6 L-1,6 L-2,10 L-6,12 L-7,16 L-9,20 L-15,23 L-17,23 L-18,26 L-27,28 L-28,30 L-44,31 L-53,28 L-49,27 L-45,28 L-32,28 L-30,26 L-19,25 L-19,22 L-14,19 L-11,14 L-6,9 L-3,4 L0,4 Z " fill="#ABB3BF" transform="translate(828,686)"/>
<path d="M0,0 L2,4 L4,6 L6,12 L6,21 L4,21 L5,24 L3,24 L3,22 L-1,22 L-2,20 L-2,14 L-2,13 L-4,13 L-3,4 L0,4 Z " fill="#8C9BB8" transform="translate(735,676)"/>
<path d="M0,0 L5,1 L5,3 L7,3 L7,14 L9,14 L9,16 L11,16 L9,26 L6,26 L5,15 L0,14 Z " fill="#6B81B5" transform="translate(697,627)"/>
<path d="M0,0 L4,0 L4,2 L0,2 L-2,7 L-4,7 L-4,9 L-6,9 L-6,11 L-8,11 L-10,18 L-15,22 L-17,22 L-17,29 L-21,35 L-23,39 L-24,33 L-21,29 L-19,29 L-19,21 L-17,21 L-16,16 L-11,11 L-8,7 L-6,7 L-6,5 Z " fill="#96B8D0" transform="translate(782,615)"/>
<path d="M0,0 L4,2 L8,3 L9,5 L18,7 L18,9 L15,10 L6,6 L-11,6 L-13,10 L-20,10 L-18,5 L-14,5 L-14,2 L-12,1 Z " fill="#9ABBD4" transform="translate(800,612)"/>
<path d="M0,0 L23,0 L23,4 L10,3 L9,5 L11,5 L10,8 L7,8 L7,5 L2,6 L1,9 L-3,8 L-5,9 L-7,7 L-12,7 L-9,4 L-7,4 L-6,1 Z " fill="#A0CAB3" transform="translate(559,364)"/>
<path d="M0,0 L3,4 L3,13 L0,24 L-2,26 L-4,32 L-7,32 L-7,34 L-10,34 L-9,30 L-6,29 L-6,25 L-4,25 L-2,3 Z " fill="#ADBFCE" transform="translate(826,660)"/>
<path d="M0,0 L3,0 L3,2 L-1,1 Z M-16,1 L-1,2 L0,6 L4,6 L4,8 L6,8 L6,10 L-12,7 L-12,5 L-16,6 L-16,4 L-31,4 L-32,2 Z " fill="#8EB99C" transform="translate(608,349)"/>
<path d="M0,0 L5,4 L6,6 L7,15 L7,29 L6,38 L3,44 L0,56 L-2,56 L1,43 L3,38 L3,6 L0,5 Z " fill="#9EB2C1" transform="translate(833,630)"/>
<path d="M0,0 L2,4 L3,13 L1,14 L1,18 L-1,18 L-1,21 L-3,22 L-3,25 L-7,27 L-10,27 L-9,31 L-11,32 L-14,33 L-13,29 L-11,29 L-10,25 L-7,16 L-6,14 L-3,14 L-1,2 Z " fill="#A2AEB9" transform="translate(836,672)"/>
<path d="M0,0 L4,1 L3,6 L1,7 L3,8 L4,16 L10,16 L10,25 L9,23 L1,23 L0,13 L-2,13 L-2,5 Z " fill="#C4D5E6" transform="translate(776,672)"/>
<path d="M0,0 L32,0 L32,1 L1,1 L1,3 L32,3 L32,4 L3,5 L-6,7 L-6,5 L-11,5 L-11,11 L-16,12 L-15,7 L-12,6 L-12,4 L-6,4 L-6,2 L0,2 Z " fill="#7CA289" transform="translate(382,318)"/>
<path d="M0,0 L1,0 L1,10 L3,10 L3,14 L5,14 L5,18 L7,18 L7,24 L11,24 L11,44 L10,44 L10,25 L8,25 L8,44 L7,44 L6,25 L3,24 L0,17 L-2,13 L-2,10 L0,10 Z " fill="#7A9EA3" transform="translate(631,406)"/>
<path d="M0,0 L4,0 L4,2 L8,2 L10,5 L14,6 L15,9 L12,13 L2,13 L0,8 L1,3 L3,3 L3,1 Z " fill="#87B495" transform="translate(540,328)"/>
<path d="M0,0 L4,0 L4,2 L8,2 L8,4 L12,4 L12,6 L16,6 L16,8 L22,8 L22,10 L26,11 L22,11 L22,13 L16,12 L16,11 L21,11 L21,9 L15,11 L12,12 L6,11 L6,9 L4,9 L4,7 L0,7 L-1,3 L3,3 L3,1 Z " fill="#81A88E" transform="translate(608,348)"/>
<path d="M0,0 L14,0 L14,5 L18,5 L19,12 L18,16 L16,15 L14,9 L12,8 L12,6 L-3,6 L-3,2 Z " fill="#93B7B2" transform="translate(392,383)"/>
<path d="M0,0 L2,4 L1,15 L0,22 L-4,24 L-4,22 L-9,22 L-6,12 L-2,6 Z " fill="#7A97B8" transform="translate(726,562)"/>
<path d="M0,0 L2,1 L2,3 L4,3 L5,0 L5,4 L1,4 L1,6 L-3,6 L-3,18 L-5,18 L-5,20 L-7,20 L-7,34 L-11,33 L-8,33 L-8,20 L-10,20 L-8,15 L-7,6 L-2,1 Z " fill="#7282BE" transform="translate(637,612)"/>
<path d="M0,0 L5,1 L10,0 L11,2 L14,0 L27,0 L28,2 L17,3 L17,6 L7,7 L5,6 L5,8 L3,8 L3,6 L1,6 L1,3 L-3,2 L0,2 Z " fill="#8DB3BD" transform="translate(463,392)"/>
<path d="M0,0 L4,0 L4,2 L8,2 L14,9 L16,10 L16,24 L14,24 L14,28 L12,28 L11,30 L10,27 L13,27 L12,24 L11,11 L9,11 L9,9 L7,9 L7,7 L5,7 L5,5 L7,5 L7,3 L0,4 L3,3 L3,1 Z " fill="#86A899" transform="translate(634,360)"/>
<path d="M0,0 L1,0 L2,7 L4,7 L5,19 L8,21 L8,23 L14,23 L14,25 L21,27 L21,28 L15,28 L6,24 L0,17 L0,15 L-2,15 L-2,7 Z " fill="#B2C0D0" transform="translate(759,681)"/>
<path d="M0,0 L3,0 L2,18 L0,18 L0,26 L-2,26 L-3,28 L-3,26 L-5,26 L-4,17 L-3,15 L-2,5 Z " fill="#7277AD" transform="translate(612,672)"/>
<path d="M0,0 L2,1 L2,6 L-1,12 L1,13 L-2,24 L-5,24 L-5,20 L-7,20 L-6,10 L-1,1 Z " fill="#A6BDD2" transform="translate(761,660)"/>
<path d="M0,0 L1,0 L1,24 L3,24 L3,64 L2,64 L2,25 L-1,25 L-2,32 L-6,36 L-6,27 L-3,26 L-3,18 L-2,18 L-2,24 L0,24 Z " fill="#6C869B" transform="translate(731,482)"/>
<path d="M0,0 L4,1 L-1,3 L-17,7 L-24,7 L-28,5 L-28,7 L-25,8 L-29,9 L-29,7 L-32,7 L-32,9 L-35,10 L-35,8 L-33,8 L-33,6 L-29,6 L-29,4 L-25,4 L-25,2 L-13,1 L-13,3 L-11,2 L-2,1 Z " fill="#7896A9" transform="translate(799,596)"/>
<path d="M0,0 L1,0 L1,23 L3,23 L3,0 L4,0 L4,24 L2,24 L2,28 L0,28 L0,34 L4,36 L4,44 L7,45 L3,46 L2,44 L3,40 L1,40 L0,44 L-1,37 L-2,34 L-2,24 L-1,27 L1,27 L0,25 Z M-1,35 Z " fill="#0F1217" transform="translate(362,474)"/>
<path d="M0,0 L1,3 L5,3 L6,9 L4,11 L3,19 L1,19 L0,22 L-4,22 L-5,20 L-8,20 L-8,18 L-2,18 L-2,10 L-1,9 Z " fill="#7A92B8" transform="translate(725,649)"/>
<path d="M0,0 L4,2 L8,2 L10,3 L10,7 L25,7 L25,8 L10,8 L10,10 L25,10 L25,11 L9,11 L9,9 L1,9 L1,7 L-7,7 L-7,6 L1,6 L1,2 L-1,1 Z " fill="#81A39D" transform="translate(379,379)"/>
<path d="M0,0 L2,0 L0,8 L1,12 L-2,20 L-5,24 L-7,24 L-8,17 L-4,4 L-1,4 Z M-9,18 Z " fill="#B9CFE1" transform="translate(775,664)"/>
<path d="M0,0 L3,1 L5,6 L4,21 L2,21 L0,33 L-2,30 L0,10 L0,6 L-2,6 L-2,4 L0,4 Z " fill="#ACC5D8" transform="translate(824,639)"/>
<path d="M0,0 L7,0 L9,4 L16,5 L16,6 L5,6 L4,4 L-1,4 L-10,7 L-14,8 L-12,3 L-10,1 Z " fill="#A5C4DF" transform="translate(800,620)"/>
<path d="M0,0 L4,1 L4,5 L10,5 L10,10 L13,10 L14,15 L12,16 L9,14 L5,14 L3,11 L0,8 Z M-1,8 Z " fill="#95BFB3" transform="translate(464,373)"/>
<path d="M0,0 L2,0 L2,10 L6,12 L5,16 L8,16 L8,19 L11,19 L11,27 L5,27 L5,23 L1,23 L2,19 L2,22 L4,22 L3,15 L0,11 L-2,5 L-1,1 Z " fill="#0F301F" transform="translate(707,329)"/>
<path d="M0,0 L2,0 L2,3 L-1,5 L-2,10 L-5,12 L-7,20 L-8,22 L-10,22 L-11,28 L-14,37 L-16,39 L-14,25 L-11,18 L-9,13 L-6,10 L-4,4 L-2,4 L-2,2 L0,2 Z " fill="#9BBDD5" transform="translate(778,622)"/>
<path d="M0,0 L2,0 L2,2 L12,1 L18,1 L19,5 L12,5 L12,3 L10,4 L-7,5 L-14,8 L-18,8 L-19,10 L-18,6 L-6,2 Z M-22,9 L-19,11 L-24,13 L-24,11 L-22,11 Z " fill="#92B0C7" transform="translate(798,605)"/>
<path d="M0,0 L2,0 L2,3 L-2,7 L-4,7 L-6,12 L-9,14 L-14,14 L-16,18 L-23,19 L-36,19 L-39,17 L-21,16 L-13,12 L-11,12 L-11,10 L-8,10 L-7,7 L-3,6 L-3,2 L0,2 Z " fill="#B5BDCA" transform="translate(819,692)"/>
<path d="M0,0 L1,2 L3,2 L3,12 L2,14 L-1,14 L-2,19 L-4,27 L-6,26 L-5,16 L-3,16 L-3,4 Z " fill="#B0CBE0" transform="translate(772,654)"/>
<path d="M0,0 L3,0 L3,2 L7,3 L3,3 L3,5 L-1,6 L-26,6 L-26,4 L-24,3 L-3,2 Z " fill="#7B7BB4" transform="translate(601,699)"/>
<path d="M0,0 L1,0 L1,17 L3,17 L3,0 L4,2 L6,2 L6,10 L7,16 L7,25 L12,25 L12,27 L5,27 L5,18 L0,18 Z " fill="#7E81AD" transform="translate(426,598)"/>
<path d="M0,0 L1,3 L3,3 L4,0 L4,4 L2,4 L2,8 L0,8 L0,10 L-4,14 L-6,14 L-6,18 L-10,18 L-10,20 L-12,20 L-12,22 L-16,26 L-20,26 L-20,28 L-22,28 L-23,30 L-24,27 L-21,27 L-22,24 L-17,25 L-17,23 L-20,23 L-20,20 L-13,18 L-11,19 L-12,16 L-7,17 L-8,12 L-5,13 L-6,9 L-2,7 L1,7 Z " fill="#90969F" transform="translate(832,690)"/>
<path d="M0,0 L1,0 L1,6 L3,6 L3,18 L2,22 L-3,22 L-3,7 Z " fill="#A0B3C9" transform="translate(752,668)"/>
<path d="M0,0 L1,0 L2,12 L0,30 L-2,31 L-5,42 L-9,44 L-8,39 L-5,32 L-3,19 L-1,16 Z " fill="#A9BCCA" transform="translate(832,646)"/>
<path d="M0,0 L1,4 L3,4 L3,8 L5,8 L5,14 L7,14 L7,30 L5,30 L5,36 L4,36 L3,30 L3,14 L4,9 L2,9 L2,14 L1,14 L1,7 L2,5 L-1,5 Z " fill="#0B0C12" transform="translate(533,596)"/>
<path d="M0,0 L1,0 L1,12 L-1,12 L-1,14 L-5,18 L-9,18 L-9,20 L-11,20 L-11,22 L-19,22 L-19,21 L-14,20 L-18,18 L-12,17 L-12,19 L-10,19 L-11,15 L-6,12 L-3,1 L-2,1 L-2,11 L0,11 Z " fill="#8FA894" transform="translate(793,430)"/>
<path d="M0,0 L1,4 L4,4 L4,2 L10,3 L14,8 L17,14 L15,18 L10,15 L10,9 L5,8 L4,5 L0,5 L0,3 L-2,2 L0,2 Z " fill="#7582AB" transform="translate(404,529)"/>
<path d="M0,0 L16,0 L16,6 L0,6 Z " fill="#112E1D" transform="translate(572,262)"/>
<path d="M0,0 L1,0 L1,12 L-3,21 L-6,28 L-8,33 L-9,33 L-9,25 L-4,15 L-3,10 L-3,8 L-5,7 L-1,2 Z " fill="#7D9ABB" transform="translate(726,550)"/>
<path d="M0,0 L1,0 L2,32 L2,46 L1,52 L0,52 L0,46 L-2,46 L-2,32 L0,32 Z " fill="#101418" transform="translate(732,546)"/>
<path d="M0,0 L23,0 L25,1 L25,3 L20,2 L20,5 L2,4 L-1,4 Z " fill="#9DC7BA" transform="translate(491,378)"/>
<path d="M0,0 L1,4 L4,4 L2,16 L4,16 L5,20 L9,22 L11,26 L16,28 L16,29 L11,29 L4,25 L4,23 L2,23 L-1,10 Z " fill="#AEB7C4" transform="translate(755,680)"/>
<path d="M0,0 L1,0 L1,17 L-2,24 L-4,33 L-5,35 L-8,35 L-8,39 L-11,38 L-8,31 L-6,25 L-4,25 Z " fill="#A3B5C3" transform="translate(836,651)"/>
<path d="M0,0 L1,2 L8,1 L13,2 L24,3 L25,7 L23,7 L23,4 L21,4 L22,12 L21,10 L19,10 L19,8 L17,8 L17,6 L13,8 L12,5 L7,6 L7,4 L1,4 L-1,3 Z " fill="#9EC8B1" transform="translate(585,365)"/>
<path d="M0,0 L1,0 L2,14 L1,22 L-1,22 L-1,26 L-3,26 L-4,30 L-5,23 L-4,25 L-2,25 L-4,16 L-4,10 L-3,8 L-1,8 Z " fill="#94A2AD" transform="translate(841,660)"/>
<path d="M0,0 L2,2 L5,2 L6,4 L11,4 L9,9 L3,8 L2,9 L-3,9 L-4,6 L-10,7 L-12,6 L-12,4 L-2,4 Z " fill="#8BB999" transform="translate(554,337)"/>
<path d="M0,0 L2,0 L2,4 L-3,4 L-3,7 L-9,7 L-9,9 L-15,10 L-17,9 L-17,7 L-15,7 L-15,5 L-13,5 L-12,3 Z " fill="#767DB5" transform="translate(509,581)"/>
<path d="M0,0 L6,0 L6,2 L14,2 L14,8 L6,8 L6,6 L0,6 Z " fill="#102C1C" transform="translate(604,266)"/>
<path d="M0,0 L20,0 L22,4 L27,4 L27,6 L31,8 L30,10 L26,7 L19,6 L15,4 L15,2 L-4,2 Z " fill="#9BB7CE" transform="translate(794,611)"/>
<path d="M0,0 L2,4 L1,8 L-5,14 L-12,14 L-12,16 L-15,15 L-16,10 L-9,10 L-4,7 L-1,7 L-1,1 Z " fill="#8CB0A9" transform="translate(643,383)"/>
<path d="M0,0 L3,1 L2,4 L0,4 L-1,7 L2,10 L0,15 L-1,21 L-3,21 L-3,14 L-1,11 L-7,11 L-7,6 L-5,6 L-5,3 L0,3 Z " fill="#7E8EB7" transform="translate(370,496)"/>
<path d="M0,0 L2,0 L3,4 L5,3 L5,11 L-1,11 L-1,13 L4,12 L4,14 L7,15 L5,15 L5,17 L8,18 L3,17 L2,14 L-2,14 L-3,7 L-1,7 Z " fill="#6F83A9" transform="translate(718,656)"/>
<path d="M0,0 L7,0 L9,4 L32,4 L32,6 L8,6 L0,3 Z " fill="#92BEB8" transform="translate(655,447)"/>
<path d="M0,0 L22,0 L30,2 L30,6 L26,5 L26,3 L-10,2 L-10,1 Z " fill="#8DBB9A" transform="translate(486,319)"/>
<path d="M0,0 L1,4 L0,6 L2,6 L2,12 L2,14 L3,22 L1,22 L-2,15 L-4,10 L-3,2 Z " fill="#899FBD" transform="translate(739,666)"/>
<path d="M0,0 L5,0 L4,6 L-1,12 L0,16 L-3,18 L-3,15 L-5,15 L-4,10 L-6,10 L-4,4 L-3,6 L0,6 Z " fill="#8BB69A" transform="translate(371,323)"/>
<path d="M0,0 L8,1 L8,3 L12,3 L14,9 L8,9 L8,6 L0,7 L0,3 L-4,2 Z " fill="#97C6A2" transform="translate(520,332)"/>
<path d="M0,0 L7,0 L7,2 L17,2 L18,5 L4,7 L0,6 Z " fill="#8AB4B0" transform="translate(680,454)"/>
<path d="M0,0 L0,3 Z M-6,3 L-2,5 L-3,10 L-2,11 L-2,29 L-4,29 L-5,12 L-8,11 L-8,5 L-6,5 Z M-2,3 Z " fill="#868DBB" transform="translate(431,586)"/>
<path d="M0,0 L1,3 L3,3 L4,0 L10,10 L10,15 L12,16 L9,16 L10,22 L8,22 L8,16 L6,16 L4,9 L2,8 L2,4 L0,4 Z " fill="#707EA7" transform="translate(420,548)"/>
<path d="M0,0 L18,0 L18,2 L22,3 L15,4 L17,3 L17,1 L1,1 L1,3 L3,3 L3,5 L-2,8 L-5,11 L-7,11 L-7,9 L-5,9 L-5,7 L-9,8 L-6,4 L-4,4 L-4,2 L0,2 Z " fill="#8C9AA0" transform="translate(862,544)"/>
<path d="M0,0 L2,0 L2,4 L0,4 L2,8 L1,14 L1,18 L0,24 L-2,24 L-3,22 L-3,12 L-3,8 L-1,2 Z " fill="#B0C4D6" transform="translate(763,664)"/>
<path d="M0,0 L3,1 L3,10 L0,16 L-4,17 L-4,10 L-2,10 L-2,5 L-4,5 L-3,3 Z " fill="#BFD4E8" transform="translate(809,668)"/>
<path d="M0,0 L2,0 L1,12 L0,19 L-2,19 L-3,24 L-7,29 L-6,24 L-3,15 L-3,7 Z " fill="#B5CDDF" transform="translate(819,660)"/>
<path d="M0,0 L1,2 L3,2 L4,0 L3,5 L2,8 L4,9 L4,11 L6,11 L6,16 L5,12 L3,12 L2,16 L2,12 L-4,12 L-4,6 L-2,6 L-2,2 L0,2 Z " fill="#7594AA" transform="translate(376,446)"/>
<path d="M0,0 L2,0 L3,5 L7,6 L8,8 L14,7 L8,14 L5,16 L3,10 L0,8 Z " fill="#7A96B7" transform="translate(735,609)"/>
<path d="M0,0 L2,2 L0,22 L-7,27 L-5,23 L-4,16 L-2,10 L-2,2 Z " fill="#86A4C9" transform="translate(716,506)"/>
<path d="M0,0 L12,0 L12,6 L0,6 Z " fill="#112E1D" transform="translate(590,264)"/>
<path d="M0,0 L3,0 L3,13 L0,14 L-1,27 L-3,27 L-3,13 L-1,10 Z " fill="#6F7EBB" transform="translate(626,632)"/>
<path d="M0,0 L2,0 L3,19 L11,20 L11,23 L2,23 L0,21 Z " fill="#90BBBE" transform="translate(639,431)"/>
<path d="M0,0 L2,1 L2,6 L4,6 L6,15 L4,15 L3,18 L0,19 L-2,13 L0,13 Z " fill="#9AA2B8" transform="translate(741,684)"/>
<path d="M0,0 L6,0 L6,4 L9,3 L9,5 L5,7 L4,13 L-3,13 L-4,16 L-4,12 L2,12 L2,10 L0,10 Z " fill="#667F94" transform="translate(378,410)"/>
<path d="M0,0 L2,0 L2,7 L28,7 L28,9 L1,9 L0,8 Z " fill="#A4B4BD" transform="translate(847,568)"/>
<path d="M0,0 L1,2 L5,2 L5,4 L9,5 L-9,5 L-10,4 L-17,4 L-18,1 L-1,1 Z " fill="#9BC6AC" transform="translate(603,363)"/>
<path d="M0,0 L2,1 L1,3 L3,3 L1,11 L-1,11 L-1,9 L-3,9 L-3,40 L-4,40 L-4,8 L-2,8 L-2,2 L0,2 Z " fill="#769981" transform="translate(364,330)"/>
<path d="M0,0 L1,2 L-1,14 L-2,15 L-3,30 L-5,26 L-5,15 L-4,4 Z " fill="#97AFC7" transform="translate(752,658)"/>
<path d="M0,0 L3,0 L7,9 L8,14 L10,15 L11,21 L11,30 L10,30 L9,19 L6,19 L3,5 L1,5 Z " fill="#9EB6C8" transform="translate(826,621)"/>
<path d="M0,0 L3,1 L3,5 L5,5 L5,9 L7,9 L7,17 L9,17 L9,21 L11,21 L10,25 L10,22 L7,22 L8,18 L5,19 L3,16 L3,8 L4,6 L2,6 L1,8 L0,6 L2,2 L0,2 Z " fill="#0A2B1A" transform="translate(705,323)"/>
<path d="M0,0 L4,1 L4,5 L9,4 L10,5 L10,13 L12,13 L12,15 L7,14 L5,9 L1,6 Z " fill="#163928" transform="translate(691,322)"/>
<path d="M0,0 L27,0 L25,3 L5,3 L0,2 Z M5,1 Z " fill="#8BB69B" transform="translate(385,322)"/>
<path d="M0,0 L1,0 L1,9 L3,9 L3,0 L4,2 L6,2 L6,12 L5,15 L7,15 L8,12 L9,16 L7,16 L7,22 L6,22 L6,16 L4,16 L2,11 L0,10 Z " fill="#7987A3" transform="translate(726,674)"/>
<path d="M0,0 L2,0 L3,11 L0,14 L-2,14 L-3,12 L-7,14 L-7,11 L-4,10 L-2,5 Z " fill="#8AA8CF" transform="translate(712,533)"/>
<path d="M0,0 L1,0 L1,10 L0,13 L-2,13 L-2,17 L-5,19 L-7,25 L-11,26 L-10,22 L-8,22 L-6,16 L-4,16 L-1,1 Z " fill="#B6C4D3" transform="translate(822,672)"/>
<path d="M0,0 L7,2 L8,4 L17,6 L17,8 L14,9 L5,5 L-9,4 L-7,2 Z " fill="#9FBDD6" transform="translate(801,613)"/>
<path d="M0,0 L15,0 L15,2 L19,1 L19,3 L23,4 L6,3 L3,4 L-5,3 L-5,1 Z " fill="#91BCA0" transform="translate(577,353)"/>
<path d="M0,0 L10,0 L10,6 L0,6 Z " fill="#112E1D" transform="translate(456,248)"/>
<path d="M0,0 L4,1 L1,1 L1,3 L5,4 L1,4 L1,6 L-3,6 L-3,8 L-19,8 L-19,7 L-4,7 L-4,5 L-16,5 L-16,4 L-5,3 L0,2 Z " fill="#8D929F" transform="translate(803,718)"/>
<path d="M0,0 L2,0 L2,4 L7,4 L7,10 L11,10 L11,16 L10,16 L10,11 L8,11 L8,16 L6,13 L6,11 L3,10 L0,5 Z " fill="#7994B9" transform="translate(727,598)"/>
<path d="M0,0 L2,4 L-3,3 L-2,10 L-6,13 L-6,11 L-9,11 L-9,16 L-7,17 L-9,20 L-9,17 L-11,17 L-12,20 L-12,16 L-10,16 L-10,10 L-6,8 L-6,6 L-4,6 L-4,2 L0,2 Z " fill="#829F95" transform="translate(736,428)"/>
<path d="M0,0 L1,0 L1,16 L-2,22 L-3,22 L-3,12 L-2,3 Z " fill="#AFC3D2" transform="translate(826,660)"/>
<path d="M0,0 L3,0 L1,20 L0,24 L-2,23 L-2,13 Z " fill="#B1C9DB" transform="translate(822,649)"/>
<path d="M0,0 L2,0 L2,3 L7,4 L7,7 L4,7 L4,16 L2,15 L2,11 L-1,10 L0,8 Z " fill="#7F99BD" transform="translate(730,649)"/>
<path d="M0,0 L1,3 L3,3 L4,0 L5,4 L7,5 L5,11 L4,9 L1,9 L1,23 L6,23 L6,24 L0,24 L0,8 L2,8 L2,4 L0,4 Z " fill="#5E709D" transform="translate(696,618)"/>
<path d="M0,0 L3,0 L4,6 L0,12 L-4,13 L-2,4 Z " fill="#809DBF" transform="translate(720,558)"/>
<path d="M0,0 L4,0 L4,6 L8,8 L10,10 L10,14 L12,14 L12,18 L15,19 L13,20 L10,19 L11,15 L8,15 L8,13 L6,13 L6,11 L3,10 L2,6 L3,1 Z M3,7 Z " fill="#111319" transform="translate(410,538)"/>
<path d="M0,0 L1,0 L1,8 L-4,20 L-6,21 L-6,15 L-3,6 L-2,1 Z " fill="#A3C4DA" transform="translate(771,644)"/>
<path d="M0,0 L2,0 L2,4 L4,4 L4,11 L2,9 L-5,8 L-4,1 Z " fill="#ABC8DE" transform="translate(817,630)"/>
<path d="M0,0 L1,0 L1,11 L3,11 L3,0 L4,0 L4,12 L2,12 L2,14 L0,14 L0,28 L-4,27 L-1,27 L-1,14 L-3,14 L-1,9 Z " fill="#5C699B" transform="translate(630,618)"/>
<path d="M0,0 L2,0 L2,3 L4,3 L5,0 L5,4 L1,4 L1,6 L-9,6 L-10,2 Z " fill="#6678A8" transform="translate(651,606)"/>
<path d="M0,0 L3,0 L3,2 L0,2 L0,4 L-5,4 L-5,6 L-21,6 L-25,4 L-7,3 Z " fill="#BDC5D3" transform="translate(803,701)"/>
<path d="M0,0 L2,0 L3,6 L2,8 L0,8 L0,11 L-2,11 L-2,5 L0,5 Z M5,-1 L6,-1 L6,11 L4,8 L3,0 Z " fill="#737CB7" transform="translate(539,627)"/>
<path d="M0,0 L2,0 L4,6 L3,8 L0,9 L-3,12 L-7,12 L-8,8 L-5,9 L-2,10 L-3,4 Z " fill="#8CACC8" transform="translate(711,496)"/>
<path d="M0,0 L4,1 L4,25 L2,25 L2,2 L0,2 Z " fill="#8CADBE" transform="translate(727,481)"/>
<path d="M0,0 L23,0 L23,4 L10,3 L8,4 L-3,2 Z " fill="#9DC7AE" transform="translate(559,364)"/>
<path d="M0,0 L2,0 L2,4 L4,4 L6,10 L7,13 L9,13 L10,17 L8,17 L8,15 L4,15 L1,8 Z " fill="#A4AEBF" transform="translate(747,688)"/>
<path d="M0,0 L6,0 L6,12 L10,14 L12,16 L12,20 L8,19 L8,17 L5,16 L4,12 L5,1 L0,1 Z M5,13 Z " fill="#0F121A" transform="translate(696,642)"/>
<path d="M0,0 L4,1 L1,1 L1,3 L3,4 L1,6 L-8,8 L-8,5 L-12,4 L-8,4 L-8,2 L0,2 Z " fill="#728CA7" transform="translate(750,610)"/>
<path d="M0,0 L3,0 L3,6 L5,6 L5,16 L2,16 L2,8 L0,8 Z " fill="#8AB0B7" transform="translate(626,400)"/>
<path d="M0,0 L8,0 L10,6 L5,6 L2,6 L0,4 Z " fill="#91BE9D" transform="translate(532,335)"/>
<path d="M0,0 L2,1 L3,9 L-1,10 L-2,12 L-2,10 L-4,10 L-3,3 Z " fill="#86A5BF" transform="translate(721,498)"/>
<path d="M0,0 L2,0 L2,2 L11,2 L17,6 L17,7 L10,7 L10,5 L0,5 Z " fill="#A0B8A3" transform="translate(764,444)"/>
<path d="M0,0 L2,0 L3,12 L2,14 L-2,14 L-2,6 Z " fill="#9BABC2" transform="translate(745,676)"/>
<path d="M0,0 L8,0 L13,2 L13,3 L7,3 L7,5 L14,5 L14,6 L6,6 L6,4 L0,4 L0,2 L-4,1 Z " fill="#6E7BA3" transform="translate(388,528)"/>
<path d="M0,0 L1,3 L3,3 L4,0 L4,4 L2,4 L3,9 L1,9 L2,14 L0,15 L-4,14 L-2,10 L0,8 L1,4 L-1,4 L-2,8 L-2,2 Z " fill="#8CADB3" transform="translate(726,472)"/>
<path d="M0,0 L2,0 L0,4 L-4,9 L-4,14 L-5,11 L-7,11 L-6,13 L-6,20 L-7,20 L-7,15 L-9,15 L-9,20 L-10,20 L-10,14 L-8,14 L-8,10 L-6,10 L-6,6 L-4,6 L-2,2 L0,2 Z " fill="#0E0E15" transform="translate(484,604)"/>
<path d="M0,0 L2,0 L2,3 L9,3 L10,0 L10,4 L2,4 L2,6 L0,6 L0,8 L-2,8 L-2,12 L-10,12 L-10,11 L-3,11 L-3,9 L-10,9 L-6,7 L-3,5 L1,5 Z " fill="#829A8D" transform="translate(748,452)"/>
<path d="M0,0 L1,4 L5,4 L5,8 L-3,8 L-4,7 L-4,2 Z " fill="#8CB1A6" transform="translate(375,377)"/>
<path d="M0,0 L4,0 L4,2 L8,2 L9,5 L7,8 L0,8 L1,3 L3,3 L3,1 Z " fill="#80AC8E" transform="translate(540,328)"/>
<path d="M0,0 L8,0 L8,6 L0,6 Z " fill="#102D1C" transform="translate(502,258)"/>
<path d="M0,0 L8,0 L8,6 L0,6 Z " fill="#112D1C" transform="translate(482,254)"/>
<path d="M0,0 L2,0 L2,4 L4,4 L4,6 L2,6 L2,8 L7,7 L7,12 L5,11 L5,9 L1,9 L1,7 L-3,7 L-3,5 L-5,5 L-4,1 L-4,4 L-2,4 Z " fill="#8A91A1" transform="translate(745,699)"/>
<path d="M0,0 L3,0 L3,2 L7,3 L7,10 L5,10 L5,8 L1,8 L0,6 Z " fill="#8C95AE" transform="translate(733,690)"/>
<path d="M0,0 L1,0 L1,10 L-3,20 L-5,20 L-5,14 L-2,7 Z " fill="#9CB7CE" transform="translate(758,654)"/>
<path d="M0,0 L1,0 L1,5 L4,5 L4,2 L6,2 L7,5 L10,8 L9,14 L8,10 L4,10 L0,6 Z " fill="#81A596" transform="translate(362,370)"/>
<path d="M0,0 L3,0 L7,4 L7,6 L13,6 L13,8 L20,10 L20,11 L14,11 L5,7 L0,2 Z " fill="#B5BDC9" transform="translate(760,698)"/>
<path d="M0,0 L1,4 L4,4 L2,16 L4,16 L5,20 L2,19 L-1,10 Z " fill="#ACBACB" transform="translate(755,680)"/>
<path d="M0,0 L1,0 L1,11 L4,11 L5,9 L8,13 L7,19 L10,20 L6,20 L4,15 L0,12 Z " fill="#60739F" transform="translate(702,642)"/>
<path d="M0,0 L8,1 L16,4 L17,8 L16,6 L9,6 L9,4 L0,2 Z " fill="#8EBA9A" transform="translate(516,325)"/>
<path d="M0,0 L3,2 L3,16 L0,16 Z " fill="#8599BA" transform="translate(732,664)"/>
<path d="M0,0 L2,1 L2,4 L0,9 L2,9 L2,12 L-6,13 L-5,9 L-2,8 Z " fill="#AFD0E8" transform="translate(781,648)"/>
<path d="M0,0 L2,0 L2,12 L1,16 L-1,16 L-2,4 Z " fill="#A4B7CB" transform="translate(753,674)"/>
<path d="M0,0 L1,0 L1,13 L3,13 L3,0 L4,0 L4,14 L2,14 L1,16 L-1,10 L-3,9 Z " fill="#5C699A" transform="translate(622,646)"/>
<path d="M0,0 L1,0 L1,10 L3,10 L3,14 L5,14 L4,18 L4,15 L2,15 L2,17 L0,17 L-2,13 L-2,10 L0,10 Z " fill="#7697A0" transform="translate(631,406)"/>
<path d="M0,0 L5,0 L6,3 L2,7 L0,6 L0,4 L-8,4 L-8,3 L0,2 Z " fill="#89ADBA" transform="translate(452,396)"/>
<path d="M0,0 L6,0 L6,5 L11,5 L8,7 L2,7 L0,5 Z " fill="#97BDC6" transform="translate(512,392)"/>
<path d="M0,0 L2,0 L2,3 L10,4 L11,7 L3,8 L0,7 Z " fill="#A4CEB6" transform="translate(536,365)"/>
<path d="M0,0 L6,0 L6,1 L1,1 L1,3 L3,3 L3,5 L0,5 L0,3 L-5,3 L-5,9 L-10,10 L-9,5 L-6,4 L-6,2 L0,2 Z " fill="#759A82" transform="translate(376,320)"/>
<path d="M0,0 L5,1 L5,3 L11,3 L11,6 L16,6 L16,8 L10,9 L5,7 L5,6 L10,6 L10,4 L1,5 L4,4 L4,2 L-1,3 Z " fill="#7EA88C" transform="translate(555,337)"/>
<path d="M0,0 L7,1 L9,2 L9,4 L16,4 L16,8 L12,8 L12,6 L8,6 L8,4 L6,4 L6,2 L0,2 Z " fill="#91BE9D" transform="translate(516,327)"/>
<path d="M0,0 L6,0 L9,3 L6,3 L6,5 L9,6 L5,6 L5,4 L-1,4 L-3,1 Z " fill="#9196A3" transform="translate(755,710)"/>
<path d="M0,0 L1,3 L3,3 L3,0 L5,0 L6,2 L8,3 L5,4 L5,11 L11,11 L10,7 L14,8 L12,8 L12,12 L4,12 L4,4 L0,4 Z " fill="#666896" transform="translate(454,634)"/>
<path d="M0,0 L2,0 L2,4 L-3,4 L-3,6 L-9,6 L-9,3 Z " fill="#757FB7" transform="translate(509,581)"/>
<path d="M0,0 L7,0 L7,2 L2,3 L1,6 L-6,6 L-6,3 L-1,1 Z " fill="#A0BAA5" transform="translate(756,449)"/>
<path d="M0,0 L1,0 L1,9 L0,7 L-8,7 L-8,4 L-1,2 Z " fill="#C8D5E5" transform="translate(785,688)"/>
<path d="M0,0 L2,4 L3,6 L3,15 L1,11 L-2,10 L-2,4 Z " fill="#929EB7" transform="translate(738,682)"/>
<path d="M0,0 L4,0 L3,4 L-1,8 L-4,9 L-4,4 L-2,4 L-2,2 L0,2 Z " fill="#A6CAE3" transform="translate(784,632)"/>
<path d="M0,0 L8,0 L8,1 L1,1 L1,4 L4,5 L2,6 L0,5 L0,3 L-3,3 L-3,5 L0,6 L-2,8 L-4,8 L-4,5 L-12,5 L-12,4 L-4,4 L-4,2 L0,2 Z " fill="#739692" transform="translate(654,446)"/>
<path d="M0,0 L10,0 L10,2 L14,2 L14,5 L9,5 L8,2 L2,3 L0,2 Z " fill="#8DB99B" transform="translate(542,341)"/>
<path d="M0,0 L2,1 L-3,9 L-5,9 L-5,12 L-9,14 L-13,13 L-7,10 L-6,6 L-3,6 L-3,3 Z " fill="#BEC9D9" transform="translate(811,689)"/>
<path d="M0,0 L2,0 L0,4 L-4,8 L-4,18 L-5,18 L-5,13 L-7,13 L-7,18 L-8,18 L-8,12 L-6,12 L-6,6 L-4,6 L-2,2 L0,2 Z " fill="#11121B" transform="translate(624,660)"/>
<path d="M0,0 L4,0 L4,2 L8,2 L10,8 L4,8 L4,3 L0,3 Z " fill="#94C39F" transform="translate(524,333)"/>
<path d="M0,0 L3,1 L1,5 L-1,6 L-3,11 L-7,12 L-7,9 L-5,9 L-3,5 Z " fill="#BBC6D5" transform="translate(813,689)"/>
<path d="M0,0 L1,0 L1,8 L0,10 L-3,10 L-3,12 L-6,12 L-5,8 L-2,7 L-2,3 L0,3 Z " fill="#B4C0CE" transform="translate(822,682)"/>
<path d="M0,0 L4,0 L4,4 L6,4 L6,8 L4,8 L4,24 L3,24 L2,4 L3,1 Z " fill="#121620" transform="translate(692,618)"/>
<path d="M0,0 L7,0 L7,3 L1,4 L0,7 L-2,7 L-3,1 Z " fill="#7087B8" transform="translate(655,602)"/>
<path d="M0,0 L4,0 L4,2 L7,3 L4,6 L0,7 Z M7,0 L10,1 L8,3 Z " fill="#8DB5B8" transform="translate(610,398)"/>
<path d="M0,0 L6,0 L6,6 L0,6 Z " fill="#12112C" transform="translate(362,756)"/>
<path d="M0,0 L1,0 L1,12 L0,14 L-3,14 L-2,10 L-4,9 L-2,6 Z " fill="#B2C8DA" transform="translate(766,670)"/>
<path d="M0,0 L2,0 L2,5 L4,5 L3,8 L-2,7 L-2,5 L-4,5 L-3,1 L0,2 Z " fill="#8CA8CC" transform="translate(620,487)"/>
<path d="M0,0 L7,0 L6,7 L4,7 L3,5 L0,4 Z " fill="#8EB1BA" transform="translate(399,397)"/>
<path d="M0,0 L6,0 L8,2 L12,4 L7,6 L4,6 L4,3 L0,3 Z " fill="#82AE91" transform="translate(528,323)"/>
<path d="M0,0 L6,0 L6,6 L0,6 Z " fill="#0E2517" transform="translate(492,256)"/>
<path d="M0,0 L6,0 L6,6 L0,6 Z " fill="#0D2517" transform="translate(368,256)"/>
<path d="M0,0 L2,0 L2,6 L2,8 L3,16 L1,16 L-2,7 Z " fill="#90A2BD" transform="translate(739,672)"/>
<path d="M0,0 L2,1 Z M-1,1 Z M-4,2 L-1,3 L-5,10 L-10,14 L-12,13 L-7,8 L-6,3 Z " fill="#819FB9" transform="translate(760,613)"/>
<path d="M0,0 L3,1 L3,6 L5,7 L5,10 L2,9 L2,6 L-5,6 L-5,10 L-2,11 L-6,11 L-6,5 L2,5 Z " fill="#738F94" transform="translate(404,391)"/>
<path d="M0,0 L5,1 L7,2 L7,4 L9,4 L9,8 L5,8 L5,6 L2,6 L2,4 L4,3 Z " fill="#A5ABB8" transform="translate(759,709)"/>
<path d="M0,0 L2,0 L2,12 L5,12 L5,14 L0,14 Z " fill="#7086BF" transform="translate(697,627)"/>
<path d="M0,0 L4,1 L3,6 L1,7 L-1,13 L-2,13 L-2,5 Z " fill="#BDD4E6" transform="translate(776,672)"/>
<path d="M0,0 L2,0 L2,4 L0,4 L1,8 L-2,15 L-3,12 L-3,8 L-1,2 Z " fill="#A9C2D6" transform="translate(763,664)"/>
<path d="M0,0 L2,1 L2,3 L10,4 L10,5 L1,5 L1,7 L10,7 L10,8 L0,8 Z " fill="#6174A2" transform="translate(678,606)"/>
<path d="M0,0 L4,2 L5,6 L3,10 L3,6 L-1,4 L-3,1 Z " fill="#636C9E" transform="translate(531,590)"/>
<path d="M0,0 L1,0 L1,6 L3,6 L3,12 L5,12 L5,14 L3,14 L2,18 L1,12 L2,7 L0,7 L0,12 L-1,12 Z " fill="#12141B" transform="translate(425,558)"/>
<path d="M0,0 L7,0 L9,2 L8,6 L0,3 Z " fill="#8CB6B0" transform="translate(655,447)"/>
<path d="M0,0 L11,1 L11,4 L2,4 Z " fill="#8EB6B6" transform="translate(639,450)"/>
<path d="M0,0 L1,3 L5,4 L1,4 L1,6 L-1,6 L-1,8 L-9,8 L-9,7 L-4,6 L-8,4 L-2,3 L-2,5 L0,5 L-1,1 Z " fill="#879D8B" transform="translate(783,444)"/>
<path d="M0,0 L2,2 L1,11 L-1,10 L-3,3 Z " fill="#8FB1B3" transform="translate(409,388)"/>
<path d="M0,0 L8,0 L10,1 L10,3 L5,2 L5,5 L0,5 L0,2 L-2,1 Z " fill="#A1CABD" transform="translate(506,378)"/>
<path d="M0,0 L2,2 L2,5 L4,5 L4,7 L8,9 L8,13 L6,13 L6,10 L2,8 L0,6 Z " fill="#193E2B" transform="translate(703,338)"/>
<path d="M0,0 L5,1 L8,2 L8,5 L0,5 Z " fill="#9BCAA5" transform="translate(512,333)"/>
<path d="M0,0 L3,0 L3,3 L6,4 L6,7 L0,7 Z " fill="#7E81BB" transform="translate(459,638)"/>
<path d="M0,0 L2,0 L3,2 L3,8 L-2,9 L-1,1 Z " fill="#82A0B9" transform="translate(725,500)"/>
<path d="M0,0 L2,0 L0,5 L-4,7 L-7,7 L-7,4 L-4,4 L-4,1 Z " fill="#7F9FB6" transform="translate(391,411)"/>
<path d="M0,0 L6,0 L10,2 L10,4 L4,4 L4,6 L1,5 Z " fill="#91BAB5" transform="translate(627,393)"/>
<path d="M0,0 L2,1 L2,6 L4,6 L6,15 L4,15 L0,6 Z " fill="#9AA6BC" transform="translate(741,684)"/>
<path d="M0,0 Z M-1,1 L2,1 L1,5 L-1,10 L-4,11 L-2,2 Z " fill="#BFCEDF" transform="translate(812,680)"/>
<path d="M0,0 L1,2 L3,2 L3,6 L-2,9 L-3,4 Z " fill="#AAC9E0" transform="translate(772,654)"/>
<path d="M0,0 L6,0 L6,3 L3,4 L-5,4 L-5,2 L0,2 Z " fill="#82A3B9" transform="translate(780,597)"/>
<path d="M0,0 L4,1 L5,8 L1,8 Z " fill="#7A87B5" transform="translate(429,564)"/>
<path d="M0,0 L1,4 L1,13 L-5,17 L-3,13 L-2,6 Z " fill="#89A5CE" transform="translate(714,516)"/>
<path d="M0,0 L4,1 L3,4 L0,5 L-8,5 L-8,2 L-2,3 L-2,1 Z " fill="#7C93C0" transform="translate(540,495)"/>
<path d="M0,0 L2,0 L2,3 L12,3 L12,4 L2,4 L2,6 L-4,6 L-4,5 L1,5 L1,3 L-5,3 L-2,1 Z " fill="#889C8A" transform="translate(762,446)"/>
<path d="M0,0 L6,0 L8,1 L7,5 L3,3 L-1,3 L-2,1 Z " fill="#93BCB8" transform="translate(470,384)"/>
<path d="M0,0 Z M-8,1 L0,1 L-2,5 L-8,6 Z " fill="#90BBA0" transform="translate(430,321)"/>
<path d="M0,0 L4,0 L4,2 L6,2 L6,6 L8,6 L7,8 L4,7 L4,5 L0,4 Z " fill="#0F1012" transform="translate(734,698)"/>
<path d="M0,0 L2,4 L0,6 L-3,6 L-2,10 L-4,11 L-7,12 L-6,8 L-4,8 L-3,4 L0,3 Z " fill="#A2AAB4" transform="translate(829,693)"/>
<path d="M0,0 L2,0 L2,4 L0,4 L0,10 L-2,10 L-2,14 L-5,13 L-2,6 Z " fill="#A8B8C5" transform="translate(830,676)"/>
<path d="M0,0 L2,0 L-1,11 L-4,10 L-4,4 L-1,4 Z M-5,11 Z " fill="#B4CFE4" transform="translate(775,664)"/>
<path d="M0,0 L5,3 L6,6 L1,7 L0,4 L-4,3 L0,3 Z " fill="#6872A6" transform="translate(526,584)"/>
<path d="M0,0 L1,0 L1,5 L3,5 L3,0 L7,5 L5,9 L0,6 Z " fill="#717FA7" transform="translate(414,538)"/>
<path d="M0,0 L2,0 L2,9 L5,9 L5,13 L3,13 L0,10 Z " fill="#93B3AE" transform="translate(724,462)"/>
<path d="M0,0 L1,2 L3,2 L4,0 L3,4 L1,7 L-1,7 L-1,3 L-3,3 L-2,8 L-4,8 L-4,2 L0,2 Z " fill="#6D8AA0" transform="translate(378,438)"/>
<path d="M0,0 L3,0 L6,8 L0,7 Z " fill="#7A7FB8" transform="translate(531,674)"/>
<path d="M0,0 L2,1 L2,4 L0,4 L-1,9 L-5,14 L-4,9 Z " fill="#BACCDC" transform="translate(817,675)"/>
<path d="M0,0 L4,1 L-4,8 L-8,12 L-8,8 L-6,8 L-4,4 L-2,4 L-2,2 L0,2 Z " fill="#13141D" transform="translate(494,592)"/>
<path d="M0,0 L10,0 L11,4 L7,4 L7,2 L0,2 Z " fill="#7580BA" transform="translate(515,583)"/>
<path d="M0,0 L2,0 L2,7 L0,8 L-2,7 L-2,9 L-4,9 L-4,5 L-1,4 Z M-1,8 Z " fill="#81A2B9" transform="translate(379,458)"/>
<path d="M0,0 L1,0 L1,5 L3,5 L3,0 L4,0 L4,6 L2,6 L2,10 L-4,10 L-4,9 L1,9 L1,7 L-4,7 L-1,5 Z " fill="#131817" transform="translate(722,438)"/>
<path d="M0,0 L5,0 L1,7 L-2,7 L-2,1 Z " fill="#7998B4" transform="translate(375,425)"/>
<path d="M0,0 L2,0 L5,3 L4,0 L12,1 L12,2 L6,2 L6,4 L4,4 L4,10 L3,10 L3,4 L0,4 Z " fill="#7A9C9B" transform="translate(626,396)"/>
<path d="M0,0 L4,0 L4,6 L8,6 L8,12 L7,12 L7,7 L5,7 L5,12 L3,9 L3,7 L1,6 L3,6 L3,1 Z " fill="#647A98" transform="translate(730,602)"/>
<path d="M0,0 L1,0 L1,5 L7,5 L5,16 L4,16 L3,8 L0,6 Z " fill="#6A779A" transform="translate(362,502)"/>
<path d="M0,0 L6,0 L5,3 L2,4 L1,3 L0,5 L-4,6 L-4,2 L0,2 Z " fill="#90B2CB" transform="translate(660,491)"/>
<path d="M0,0 L2,1 L1,6 L0,12 L-2,12 L-2,1 Z " fill="#93B8CA" transform="translate(696,479)"/>
<path d="M0,0 L4,4 L3,9 L1,9 L1,6 L-1,6 Z " fill="#737CB7" transform="translate(536,594)"/>
<path d="M0,0 L5,0 L4,3 L2,3 L2,5 L-5,5 L-5,3 L-1,1 Z " fill="#7F8CB8" transform="translate(400,528)"/>
<path d="M0,0 L1,0 L1,5 L6,5 L6,3 L8,3 L8,5 L10,5 L10,10 L9,6 L7,6 L6,10 L6,6 L0,6 Z " fill="#6C889B" transform="translate(372,452)"/>
<path d="M0,0 L2,1 L1,8 L-1,9 L-2,6 L-6,5 L-6,3 L0,2 Z " fill="#85A4B2" transform="translate(405,402)"/>
<path d="M0,0 L2,0 L2,3 L5,2 L6,9 L4,9 L4,6 L0,4 Z " fill="#173B2A" transform="translate(683,312)"/>
<path d="M0,0 L2,4 L1,6 L3,6 L3,10 L-2,9 L-2,6 L0,6 L-1,1 Z " fill="#BACADA" transform="translate(767,682)"/>
<path d="M0,0 L6,1 L5,3 L8,4 L8,6 L2,6 L3,2 L0,3 Z " fill="#C2DBF0" transform="translate(784,670)"/>
<path d="M0,0 L3,0 L3,6 L-2,7 Z " fill="#7A7EB6" transform="translate(466,634)"/>
<path d="M0,0 L1,2 L12,3 L12,4 L4,4 L4,6 L0,6 Z " fill="#14191E" transform="translate(738,608)"/>
<path d="M0,0 L2,0 L2,2 L7,2 L9,8 L1,4 Z " fill="#8DA3B4" transform="translate(823,598)"/>
<path d="M0,0 L7,3 L4,5 L-6,4 L-6,3 L0,3 Z " fill="#7380AA" transform="translate(384,524)"/>
<path d="M0,0 L1,2 L4,3 L2,7 L-4,8 L-5,4 L-2,5 L1,6 Z " fill="#8EACD0" transform="translate(708,500)"/>
<path d="M0,0 L1,0 L1,17 L-1,19 L-2,14 L-1,13 Z " fill="#84A3B1" transform="translate(728,483)"/>
<path d="M0,0 L13,0 L14,2 L2,3 L-1,1 Z " fill="#91B7BD" transform="translate(477,392)"/>
<path d="M0,0 L6,1 L9,6 L0,3 Z " fill="#A8AFBC" transform="translate(757,705)"/>
<path d="M0,0 L1,0 L1,8 L-1,9 L-3,12 L-3,6 Z " fill="#A1BBD0" transform="translate(758,664)"/>
<path d="M0,0 L2,3 L0,7 L-4,8 L-3,4 Z " fill="#6C77B0" transform="translate(621,657)"/>
<path d="M0,0 L4,0 L4,6 L0,7 Z " fill="#7788BC" transform="translate(628,588)"/>
<path d="M0,0 L3,4 L1,8 L-2,8 L-1,3 Z " fill="#89A8C4" transform="translate(716,498)"/>
<path d="M0,0 L5,1 L5,7 L1,6 Z M0,6 Z M-1,7 Z " fill="#92B6B5" transform="translate(715,465)"/>
<path d="M0,0 L5,2 L5,4 L0,3 L-5,4 L-4,1 Z " fill="#8EB4C3" transform="translate(485,396)"/>
<path d="M0,0 L6,0 L8,1 L8,3 L1,4 Z " fill="#A2A9B8" transform="translate(751,707)"/>
<path d="M0,0 L7,0 L7,7 L5,7 L5,2 L0,2 Z " fill="#96ADBE" transform="translate(826,597)"/>
<path d="M0,0 L2,0 L2,7 L-5,7 L-5,5 L0,5 Z " fill="#9CBEB6" transform="translate(735,464)"/>
<path d="M0,0 L2,0 L2,3 L5,3 L5,9 L4,9 L4,4 L2,4 L2,9 L0,5 L-1,2 Z " fill="#7DA1A9" transform="translate(633,421)"/>
<path d="M0,0 L3,0 L5,9 L2,8 Z " fill="#AAB6C6" transform="translate(752,690)"/>
<path d="M0,0 L2,1 L2,3 L4,3 L5,0 L5,4 L1,4 L1,6 L-3,5 L0,5 L0,3 L-3,2 Z " fill="#5F6D9D" transform="translate(637,612)"/>
<path d="M0,0 L12,0 L14,2 L8,3 L7,2 L0,1 Z " fill="#9BAAB1" transform="translate(865,547)"/>
<path d="M0,0 L7,1 L7,4 L1,4 Z " fill="#7C8AB7" transform="translate(377,523)"/>
<path d="M0,0 L1,3 L3,3 L4,0 L4,4 L2,4 L1,8 L1,4 L-1,4 L-2,8 L-2,2 Z " fill="#83A1A1" transform="translate(726,472)"/>
<path d="M0,0 L4,0 L3,4 L2,8 L0,8 Z " fill="#85A6C0" transform="translate(379,411)"/>
<path d="M0,0 L1,3 L3,3 L3,1 L5,1 L9,5 L9,7 L5,7 L5,4 L0,4 Z " fill="#143524" transform="translate(708,348)"/>
<path d="M0,0 L4,1 L-4,8 L-6,8 L-4,4 L-2,4 L-2,2 L0,2 Z " fill="#1A1B1D" transform="translate(822,708)"/>
<path d="M0,0 L2,0 L0,4 L-5,10 L-6,6 L-4,6 L-2,2 L0,2 Z " fill="#1A1C1D" transform="translate(832,698)"/>
<path d="M0,0 L1,0 L2,12 L1,10 L-1,10 L-1,2 Z " fill="#B0BDCD" transform="translate(758,686)"/>
<path d="M0,0 L3,4 L3,8 L1,8 L0,5 L-3,4 L-3,2 Z " fill="#6F84BA" transform="translate(696,613)"/>
<path d="M0,0 L3,0 L5,6 L0,6 Z " fill="#727BB6" transform="translate(539,604)"/>
<path d="M0,0 L2,0 L0,4 L-5,10 L-6,6 L-4,6 L-2,2 L0,2 Z " fill="#13141E" transform="translate(484,604)"/>
<path d="M0,0 L2,0 L2,2 L10,2 L10,3 L0,4 L-6,3 L-6,2 L0,2 Z " fill="#151721" transform="translate(512,584)"/>
<path d="M0,0 L4,0 L4,3 L10,3 L10,4 L4,4 L3,6 L3,3 L-1,4 Z " fill="#6870A2" transform="translate(496,584)"/>
<path d="M0,0 L3,2 L-2,5 L-4,4 L-5,1 Z " fill="#93B7AD" transform="translate(724,448)"/>
<path d="M0,0 L4,1 L3,6 L0,3 Z M-4,3 L1,4 L1,5 L-4,5 Z " fill="#98B8AB" transform="translate(737,428)"/>
<path d="M0,0 L4,2 L-4,3 L-9,2 L-9,1 Z " fill="#95BBC2" transform="translate(500,392)"/>
<path d="M0,0 L6,0 L8,4 L5,3 L4,2 L-3,3 Z " fill="#9AC0C3" transform="translate(535,392)"/>
<path d="M0,0 L1,3 L0,6 L-2,6 L-1,9 L-5,7 L-3,5 L-2,1 Z " fill="#687CA4" transform="translate(717,657)"/>
<path d="M0,0 L2,0 L1,8 L-1,9 L-2,4 Z " fill="#747CB8" transform="translate(535,639)"/>
<path d="M0,0 L8,1 L7,4 L1,3 Z " fill="#90B5BA" transform="translate(649,467)"/>
<path d="M0,0 L2,0 L2,2 L9,2 L9,4 L1,4 Z " fill="#93BBB1" transform="translate(371,381)"/>
<path d="M0,0 L4,0 L4,6 L-3,6 L-3,5 L2,5 L2,2 L0,2 Z " fill="#15361F" transform="translate(401,249)"/>
<path d="M0,0 L3,0 L3,5 L-2,6 Z " fill="#A2A7B5" transform="translate(806,715)"/>
<path d="M0,0 L3,1 L2,3 L-8,4 L-8,2 Z " fill="#7883BA" transform="translate(502,574)"/>
<path d="M0,0 L2,0 L2,2 L6,3 L0,4 L-8,3 L-8,2 L0,2 Z " fill="#15171F" transform="translate(402,532)"/>
<path d="M0,0 L2,0 L3,4 L2,6 L-2,4 Z " fill="#91B5C3" transform="translate(660,479)"/>
<path d="M0,0 L3,0 L4,6 L1,8 Z " fill="#96B7AC" transform="translate(727,439)"/>
<path d="M0,0 L1,3 L-3,5 L-9,4 L-9,2 L0,2 Z " fill="#8AB298" transform="translate(623,355)"/>
<path d="M0,0 L4,2 L1,3 L1,5 L4,6 L0,6 L0,4 L-4,3 L0,3 Z " fill="#8E939E" transform="translate(768,714)"/>
<path d="M0,0 L0,3 L-5,7 L-8,6 L-6,6 L-6,4 L-4,4 L-4,2 Z " fill="#C6D6E7" transform="translate(804,686)"/>
<path d="M0,0 L4,1 L1,1 L1,5 L-5,6 L-2,2 L0,2 Z " fill="#818D93" transform="translate(858,546)"/>
<path d="M0,0 L4,1 L4,9 L2,7 L2,2 L0,2 Z " fill="#94B4BB" transform="translate(727,481)"/>
<path d="M0,0 L1,2 L4,3 L2,5 L0,5 L0,2 L-8,2 L-8,1 Z " fill="#7CA09F" transform="translate(650,449)"/>
<path d="M0,0 L4,2 L4,4 L-3,3 L-2,1 Z " fill="#8EB5AA" transform="translate(384,380)"/>
<path d="M0,0 L13,2 L13,3 L0,3 Z " fill="#7778AE" transform="translate(545,692)"/>
<path d="M0,0 L3,1 L3,3 L6,4 L5,7 L3,7 L2,4 L0,3 Z " fill="#8184BA" transform="translate(452,630)"/>
<path d="M0,0 L2,0 L2,5 L4,5 L4,7 L0,7 Z " fill="#878AC0" transform="translate(447,628)"/>
<path d="M0,0 L2,2 L2,5 L-2,5 L-3,7 L-3,3 L-1,3 Z " fill="#777CB5" transform="translate(483,598)"/>
<path d="M0,0 L1,0 L1,5 L3,5 L3,7 L1,7 L0,11 L-1,5 Z " fill="#141A1E" transform="translate(373,441)"/>
<path d="M0,0 L2,0 L2,2 L7,2 L7,4 L0,4 Z " fill="#81A4C1" transform="translate(371,433)"/>
<path d="M0,0 L2,1 L2,4 L4,4 L5,7 L3,8 L1,7 Z " fill="#9FC7C0" transform="translate(536,382)"/>
<path d="M0,0 L2,2 L2,7 L0,7 L0,4 L-2,4 Z " fill="#7B8BB8" transform="translate(421,544)"/>
<path d="M0,0 L4,1 L3,5 L0,5 Z M2,2 Z " fill="#7D94C0" transform="translate(574,496)"/>
<path d="M0,0 L4,0 L4,4 L0,5 Z " fill="#82A3C4" transform="translate(444,424)"/>
<path d="M0,0 L2,0 L3,3 L-1,6 L-2,1 Z " fill="#99C0AA" transform="translate(412,367)"/>
<path d="M0,0 L2,0 L2,7 L0,8 L0,3 L-2,2 L0,2 Z " fill="#94BDA8" transform="translate(388,366)"/>
<path d="M0,0 L4,0 L4,4 L0,4 Z " fill="#191840" transform="translate(363,757)"/>
<path d="M0,0 L4,1 L3,4 L-1,4 Z " fill="#7B7CB5" transform="translate(605,697)"/>
<path d="M0,0 L4,0 L4,4 L0,4 Z " fill="#747DB6" transform="translate(552,664)"/>
<path d="M0,0 L4,1 L4,6 L2,6 L0,4 Z " fill="#96C2AE" transform="translate(464,373)"/>
<path d="M0,0 L6,0 L8,2 L2,3 L0,2 Z " fill="#90BD9D" transform="translate(542,341)"/>
<path d="M0,0 L2,0 L2,4 L-4,4 L-4,2 L0,2 Z " fill="#153624" transform="translate(615,269)"/>
<path d="M0,0 L4,0 L4,4 L0,4 Z " fill="#143621" transform="translate(369,257)"/>
<path d="M0,0 L4,0 L4,4 L0,4 Z " fill="#143622" transform="translate(493,257)"/>
<path d="M0,0 L4,0 L5,3 L3,5 L1,4 Z " fill="#AFCFEB" transform="translate(799,632)"/>
<path d="M0,0 L3,0 L4,6 L3,4 L0,3 Z " fill="#A1BBD0" transform="translate(821,622)"/>
<path d="M0,0 L2,0 L0,4 L-4,6 L-2,2 L0,2 Z " fill="#1A1E1B" transform="translate(792,442)"/>
<path d="M0,0 L2,4 L-2,5 L-2,2 Z " fill="#7487B1" transform="translate(719,662)"/>
<path d="M0,0 L2,2 L1,6 L-3,2 L0,2 Z " fill="#9AA8AF" transform="translate(883,547)"/>
<path d="M0,0 L5,1 L5,5 L3,5 L0,2 Z " fill="#97B9B6" transform="translate(724,470)"/>
<path d="M0,0 L2,0 L2,2 L5,2 L5,4 L0,4 Z " fill="#85A8C1" transform="translate(373,453)"/>
<path d="M0,0 L4,1 L1,1 L1,5 L-3,3 L0,2 Z " fill="#7D978C" transform="translate(740,424)"/>
<path d="M0,0 Z M-3,1 L0,1 L-2,5 L-4,6 Z " fill="#8CABCC" transform="translate(516,412)"/>
<path d="M0,0 L2,0 L2,2 L4,2 L3,5 L0,5 Z " fill="#92BCA5" transform="translate(380,366)"/>
<path d="M0,0 L4,0 L2,4 L0,5 Z " fill="#ADD1E9" transform="translate(784,643)"/>
<path d="M0,0 L4,1 L4,3 L-2,4 Z " fill="#707FB9" transform="translate(633,614)"/>
<path d="M0,0 L2,3 L1,6 L-1,6 L-2,2 L0,2 Z " fill="#7081B9" transform="translate(640,609)"/>
<path d="M0,0 L4,0 L4,3 L0,4 Z " fill="#7687BB" transform="translate(544,561)"/>
<path d="M0,0 L2,0 L0,4 L-2,4 L-2,2 L-4,1 Z " fill="#7A97AC" transform="translate(391,411)"/>
<path d="M0,0 L4,0 L4,4 L0,3 Z " fill="#9AC1AB" transform="translate(420,370)"/>
<path d="M0,0 L2,0 L2,3 L4,3 L4,5 L0,4 Z " fill="#183F2C" transform="translate(699,332)"/>
<path d="M0,0 L4,4 L0,5 Z " fill="#0A2E1D" transform="translate(701,319)"/>
<path d="M0,0 L4,2 L3,4 L0,4 Z " fill="#7F8DB8" transform="translate(405,529)"/>
<path d="M0,0 Z M-5,1 L0,1 L-4,5 Z " fill="#92B2A6" transform="translate(738,432)"/>
<path d="M0,0 L4,0 L4,3 L0,3 Z " fill="#8EB59E" transform="translate(630,359)"/>
<path d="M0,0 L4,0 L4,2 L2,2 L2,4 L0,4 Z " fill="#143626" transform="translate(681,307)"/>
<path d="M0,0 L5,1 L3,3 L0,3 Z " fill="#9EA4B2" transform="translate(752,708)"/>
<path d="M0,0 L2,3 L2,6 L0,6 L-1,2 Z " fill="#A3B0BA" transform="translate(835,683)"/>
<path d="M0,0 L3,1 L3,4 L0,4 L-1,1 Z " fill="#020303" transform="translate(726,685)"/>
<path d="M0,0 L6,1 L2,3 L0,2 Z " fill="#9AB9AB" transform="translate(741,425)"/>
<path d="M0,0 L5,0 L4,3 L0,2 Z " fill="#8AACBB" transform="translate(399,405)"/>
<path d="M0,0 L5,0 L4,3 L0,2 Z " fill="#A0C8BC" transform="translate(552,382)"/>
<path d="M0,0 L2,1 L2,5 L0,5 L0,2 L-2,1 Z " fill="#163A28" transform="translate(709,346)"/>
<path d="M0,0 L4,0 L4,3 L0,2 Z " fill="#88B596" transform="translate(528,326)"/>
<path d="M0,0 L3,0 L3,2 L-1,4 Z " fill="#020303" transform="translate(812,719)"/>
<path d="M0,0 L2,1 L1,5 L-1,1 Z " fill="#9EA2AE" transform="translate(817,708)"/>
<path d="M0,0 L1,0 L1,5 L-2,4 Z " fill="#6A78B2" transform="translate(621,651)"/>
<path d="M0,0 L2,2 L2,5 L0,5 L-1,1 Z " fill="#7E81BB" transform="translate(475,608)"/>
<path d="M0,0 L1,4 L-3,2 Z " fill="#779D85" transform="translate(370,323)"/>
<path d="M0,0 L4,3 L0,3 Z " fill="#7A7BB3" transform="translate(558,695)"/>
<path d="M0,0 L2,0 L1,3 L-2,3 L-2,1 Z " fill="#707BB6" transform="translate(619,662)"/>
<path d="M0,0 L2,4 L-2,3 Z " fill="#B7D2E7" transform="translate(813,659)"/>
<path d="M0,0 L2,1 L1,4 L-2,2 Z " fill="#B1CFE5" transform="translate(815,645)"/>
<path d="M0,0 L3,2 L3,4 L0,4 Z " fill="#7E80B2" transform="translate(446,624)"/>
<path d="M0,0 L2,0 L1,3 L-2,3 L-2,1 Z " fill="#777CB6" transform="translate(487,596)"/>
<path d="M0,0 L4,1 L4,3 L0,2 Z " fill="#193F2D" transform="translate(695,328)"/>
<path d="M0,0 L2,0 L1,3 L-2,2 Z " fill="#797DB6" transform="translate(479,606)"/>
<path d="M0,0 L3,1 L2,3 L-1,2 Z " fill="#8DB4AE" transform="translate(630,393)"/>
<path d="M0,0 L3,0 L2,3 L0,3 Z " fill="#9BC7A6" transform="translate(432,352)"/>
<path d="M0,0 L3,2 L-1,2 Z " fill="#797AB2" transform="translate(545,692)"/>
<path d="M0,0 L3,1 L2,3 L0,3 Z " fill="#123324" transform="translate(685,312)"/>
<path d="M0,0 L3,1 L1,3 Z " fill="#90B1C6" transform="translate(650,488)"/>
</svg>
