<?xml version="1.0" encoding="UTF-8"?>
<!-- Generator: visioncortex VTracer 0.6.4 -->
<svg version="1.1" xmlns="http://www.w3.org/2000/svg" width="1024" height="1024">
<path d="M0,0 L1024,0 L1024,1024 L0,1024 Z " fill="#000000" transform="translate(0,0)"/>
<path d="M0,0 L16,0 L20,4 L20,2 L22,2 L22,4 L24,4 L24,2 L26,2 L26,4 L36,4 L36,6 L44,6 L44,8 L70,8 L70,10 L78,10 L78,12 L96,12 L96,18 L100,18 L100,24 L104,26 L112,34 L114,37 L118,38 L118,40 L122,40 L124,43 L130,44 L134,49 L134,52 L132,52 L132,54 L140,54 L140,60 L142,60 L142,62 L144,62 L144,68 L146,68 L146,70 L150,70 L150,72 L154,72 L158,77 L160,78 L160,82 L162,82 L162,86 L166,88 L170,93 L174,94 L174,98 L180,98 L184,103 L186,104 L186,118 L192,118 L192,120 L194,120 L194,128 L192,128 L192,140 L194,140 L194,162 L196,162 L196,188 L198,188 L198,212 L196,212 L196,218 L194,218 L194,226 L196,226 L196,230 L194,230 L194,236 L192,236 L192,238 L190,238 L190,240 L186,240 L186,242 L184,242 L184,244 L182,244 L182,252 L180,252 L180,258 L178,258 L178,262 L176,262 L176,270 L174,270 L174,272 L176,272 L176,274 L174,274 L174,276 L170,276 L170,280 L168,280 L168,284 L166,284 L166,296 L164,296 L165,300 L164,312 L162,312 L162,330 L164,330 L164,342 L166,342 L166,350 L168,350 L168,358 L166,358 L166,368 L164,368 L164,372 L162,372 L162,374 L146,374 L146,378 L142,378 L142,380 L138,380 L138,382 L136,382 L136,380 L134,380 L134,382 L132,382 L132,380 L130,380 L130,382 L128,382 L128,380 L126,380 L126,382 L124,382 L124,380 L122,380 L122,382 L116,382 L116,380 L114,380 L114,382 L108,382 L108,380 L80,380 L80,382 L76,382 L76,378 L72,376 L72,374 L64,374 L64,376 L52,376 L52,374 L48,374 L48,376 L30,376 L30,374 L26,374 L26,372 L24,372 L22,365 L18,362 L18,358 L16,358 L16,356 L12,356 L12,352 L8,352 L8,346 L6,346 L6,344 L0,344 L0,334 L8,334 L8,330 L24,330 L24,324 L26,324 L26,326 L34,326 L34,328 L38,328 L38,326 L42,326 L42,328 L46,328 L46,326 L48,326 L48,328 L56,328 L56,324 L60,324 L60,328 L68,328 L68,326 L70,326 L70,328 L73,326 L76,326 L76,322 L80,322 L80,326 L88,326 L88,328 L104,328 L104,326 L106,326 L106,328 L110,328 L110,326 L112,326 L112,324 L114,324 L114,322 L112,322 L112,320 L116,321 L118,323 L122,324 L122,318 L117,317 L116,314 L104,314 L102,310 L84,310 L84,312 L82,312 L82,310 L70,310 L70,312 L62,312 L62,310 L38,310 L38,312 L36,312 L36,308 L32,308 L32,310 L24,310 L24,312 L12,312 L12,314 L6,314 L6,312 L4,312 L4,308 L-1,307 L-4,304 L-4,302 L-8,302 L-8,300 L-12,300 L-12,296 L-20,296 L-20,294 L-32,294 L-32,296 L-34,296 L-34,294 L-36,294 L-36,296 L-40,294 L-40,292 L-44,292 L-44,290 L-48,294 L-50,294 L-50,296 L-54,296 L-54,298 L-58,298 L-58,300 L-60,300 L-60,302 L-63,304 L-64,320 L-66,320 L-66,328 L-68,328 L-68,336 L-70,336 L-70,340 L-72,340 L-72,348 L-74,348 L-74,356 L-78,356 L-78,358 L-82,358 L-82,362 L-84,362 L-84,364 L-86,364 L-86,372 L-90,372 L-90,374 L-98,374 L-98,372 L-100,372 L-100,366 L-104,364 L-108,360 L-108,358 L-114,358 L-114,356 L-118,356 L-118,354 L-120,354 L-120,352 L-118,352 L-118,350 L-120,350 L-120,344 L-122,344 L-122,324 L-120,324 L-120,320 L-118,320 L-118,314 L-120,314 L-120,304 L-118,304 L-118,296 L-120,296 L-121,280 L-124,278 L-124,274 L-126,274 L-126,272 L-130,272 L-132,267 L-136,264 L-136,258 L-140,258 L-144,254 L-144,250 L-152,250 L-152,244 L-154,244 L-154,240 L-156,240 L-156,232 L-158,232 L-158,224 L-156,224 L-156,222 L-158,222 L-158,218 L-160,218 L-160,202 L-158,202 L-158,198 L-160,198 L-160,178 L-158,178 L-158,154 L-156,154 L-156,128 L-154,128 L-154,110 L-152,110 L-152,100 L-154,100 L-154,92 L-156,92 L-156,72 L-154,72 L-154,64 L-152,64 L-152,60 L-144,60 L-144,54 L-142,54 L-142,52 L-140,52 L-140,46 L-138,46 L-138,44 L-136,44 L-135,39 L-130,38 L-130,40 L-128,40 L-126,36 L-124,36 L-124,34 L-122,34 L-122,32 L-124,32 L-124,30 L-122,30 L-122,28 L-118,28 L-118,26 L-116,26 L-116,20 L-114,20 L-114,22 L-108,22 L-108,18 L-104,18 L-104,16 L-100,16 L-100,14 L-102,14 L-102,12 L-97,10 L-94,12 L-94,10 L-88,10 L-88,12 L-84,12 L-84,10 L-82,10 L-82,12 L-64,12 L-64,10 L-48,10 L-48,8 L-26,8 L-26,6 L-24,6 L-24,4 L-6,4 L-6,2 L0,2 Z " fill="#B7A2F8" transform="translate(496,352)"/>
<path d="M0,0 L16,0 L20,4 L20,2 L22,2 L22,4 L24,4 L24,2 L26,2 L26,4 L36,4 L36,6 L44,6 L44,8 L70,8 L70,10 L78,10 L78,12 L96,12 L96,18 L100,18 L100,24 L104,26 L112,34 L114,37 L118,38 L118,40 L122,40 L124,43 L130,44 L134,49 L134,52 L132,52 L132,54 L140,54 L140,60 L142,60 L142,62 L144,62 L144,68 L146,68 L146,70 L150,70 L150,72 L154,72 L158,77 L160,78 L160,82 L162,82 L162,86 L166,88 L170,93 L174,94 L174,98 L180,98 L184,103 L186,104 L186,118 L192,118 L192,120 L194,120 L194,128 L192,128 L192,140 L194,140 L194,162 L196,162 L196,188 L198,188 L198,212 L196,212 L196,218 L194,218 L194,226 L196,226 L196,230 L194,230 L194,236 L192,236 L192,238 L190,238 L190,240 L186,240 L186,242 L184,242 L184,244 L182,244 L182,252 L180,252 L180,258 L178,258 L178,262 L176,262 L176,270 L174,270 L174,272 L176,272 L176,274 L174,274 L174,276 L170,276 L170,280 L168,280 L168,284 L166,284 L166,296 L164,296 L165,300 L164,312 L162,312 L162,330 L164,330 L164,342 L166,342 L166,350 L168,350 L168,358 L166,358 L166,368 L164,368 L164,372 L162,372 L162,374 L146,374 L146,378 L142,378 L142,380 L138,380 L138,382 L136,382 L136,380 L134,380 L134,382 L132,382 L132,380 L130,380 L130,382 L128,382 L128,380 L126,380 L126,382 L124,382 L124,380 L122,380 L122,382 L116,382 L116,380 L114,380 L114,382 L108,382 L108,380 L80,380 L80,382 L76,382 L76,378 L72,376 L72,374 L64,374 L64,376 L52,376 L52,374 L48,374 L48,376 L30,376 L30,374 L26,374 L26,372 L24,372 L22,365 L18,362 L18,358 L16,358 L16,356 L12,356 L12,352 L8,352 L8,346 L6,346 L6,344 L0,344 L0,334 L8,334 L8,330 L24,330 L24,324 L26,324 L26,326 L34,326 L34,328 L38,328 L38,326 L42,326 L42,328 L46,328 L46,326 L48,326 L48,328 L56,328 L56,324 L60,324 L60,328 L68,328 L68,326 L70,326 L70,328 L73,326 L76,326 L76,322 L80,322 L80,326 L88,326 L88,328 L104,328 L104,326 L106,326 L106,328 L110,328 L110,326 L112,326 L112,324 L114,324 L114,322 L112,322 L112,320 L116,321 L118,323 L122,324 L122,318 L117,317 L116,314 L104,314 L102,310 L84,310 L84,312 L82,312 L82,310 L70,310 L70,312 L62,312 L62,310 L38,310 L38,312 L36,312 L36,308 L32,308 L32,310 L24,310 L24,312 L12,312 L12,314 L6,314 L6,312 L4,312 L4,308 L-1,307 L-4,304 L-4,302 L-8,302 L-8,300 L-12,300 L-12,296 L-20,296 L-20,294 L-32,294 L-32,296 L-34,296 L-34,294 L-36,294 L-36,296 L-40,294 L-40,292 L-44,292 L-44,290 L-48,294 L-50,294 L-50,296 L-54,296 L-54,298 L-58,298 L-58,300 L-60,300 L-60,302 L-63,304 L-64,320 L-66,320 L-66,328 L-68,328 L-68,336 L-70,336 L-70,340 L-72,340 L-72,348 L-74,348 L-74,356 L-78,356 L-78,358 L-82,358 L-82,362 L-84,362 L-84,364 L-86,364 L-86,372 L-90,372 L-90,374 L-98,374 L-98,372 L-100,372 L-100,366 L-104,364 L-108,360 L-108,358 L-114,358 L-114,356 L-118,356 L-118,354 L-120,354 L-120,352 L-118,352 L-118,350 L-120,350 L-120,344 L-122,344 L-122,324 L-120,324 L-120,320 L-118,320 L-118,314 L-120,314 L-120,304 L-118,304 L-118,296 L-120,296 L-121,280 L-124,278 L-124,274 L-126,274 L-126,272 L-130,272 L-132,267 L-136,264 L-136,258 L-140,258 L-144,254 L-144,250 L-152,250 L-152,244 L-154,244 L-154,240 L-156,240 L-156,232 L-158,232 L-158,224 L-156,224 L-156,222 L-158,222 L-158,218 L-160,218 L-160,202 L-158,202 L-158,198 L-160,198 L-160,178 L-158,178 L-158,154 L-156,154 L-156,128 L-154,128 L-154,110 L-152,110 L-152,100 L-154,100 L-154,92 L-156,92 L-156,72 L-154,72 L-154,64 L-152,64 L-152,60 L-144,60 L-144,54 L-142,54 L-142,52 L-140,52 L-140,46 L-138,46 L-138,44 L-136,44 L-135,39 L-130,38 L-130,40 L-128,40 L-126,36 L-124,36 L-124,34 L-122,34 L-122,32 L-124,32 L-124,30 L-122,30 L-122,28 L-118,28 L-118,26 L-116,26 L-116,20 L-114,20 L-114,22 L-108,22 L-108,18 L-104,18 L-104,16 L-100,16 L-100,14 L-102,14 L-102,12 L-97,10 L-94,12 L-94,10 L-88,10 L-88,12 L-84,12 L-84,10 L-82,10 L-82,12 L-64,12 L-64,10 L-48,10 L-48,8 L-26,8 L-26,6 L-24,6 L-24,4 L-6,4 L-6,2 L0,2 Z M16,7 L15,8 L6,9 L5,10 L4,8 L-22,9 L-32,18 L-36,19 L-46,19 L-47,18 L-42,15 L-42,13 L-50,14 L-61,14 L-64,16 L-72,18 L-84,18 L-88,17 L-89,19 L-92,20 L-92,18 L-99,19 L-104,23 L-107,26 L-114,29 L-117,32 L-116,36 L-118,39 L-118,43 L-115,45 L-119,48 L-119,46 L-121,46 L-121,44 L-127,46 L-132,45 L-134,47 L-134,56 L-139,59 L-139,62 L-136,62 L-135,61 L-129,62 L-135,71 L-143,77 L-144,84 L-145,85 L-147,83 L-152,89 L-149,93 L-145,94 L-144,97 L-145,102 L-144,108 L-142,108 L-144,118 L-145,120 L-143,132 L-148,133 L-151,138 L-152,144 L-150,145 L-150,149 L-145,150 L-144,144 L-144,149 L-143,153 L-144,160 L-140,162 L-144,169 L-144,182 L-143,186 L-144,198 L-142,198 L-140,208 L-144,208 L-144,228 L-141,228 L-140,230 L-139,225 L-133,222 L-133,226 L-133,229 L-134,232 L-134,240 L-129,239 L-128,238 L-128,233 L-125,234 L-126,238 L-124,241 L-125,248 L-119,249 L-119,257 L-113,258 L-109,255 L-102,257 L-100,257 L-99,261 L-98,270 L-99,273 L-99,281 L-96,282 L-96,288 L-96,292 L-98,292 L-100,295 L-103,290 L-110,291 L-109,288 L-114,288 L-116,292 L-114,299 L-114,304 L-109,303 L-109,301 L-107,301 L-108,308 L-111,316 L-108,316 L-106,321 L-100,321 L-98,321 L-102,322 L-106,323 L-107,327 L-102,328 L-84,329 L-83,328 L-83,322 L-81,322 L-81,327 L-76,329 L-74,328 L-72,303 L-68,302 L-68,299 L-70,299 L-70,296 L-68,295 L-66,290 L-66,286 L-50,285 L-46,282 L-45,284 L-43,285 L-34,284 L-34,276 L-28,277 L-28,275 L-18,275 L-16,283 L-9,285 L-2,285 L10,287 L18,288 L18,291 L27,293 L65,293 L75,292 L75,290 L82,291 L90,291 L94,288 L98,287 L106,287 L111,284 L111,282 L104,282 L108,278 L116,277 L117,275 L115,274 L117,271 L115,271 L118,268 L122,267 L124,269 L125,268 L135,267 L133,265 L130,264 L134,260 L139,258 L140,257 L142,259 L145,255 L145,249 L151,247 L155,241 L157,251 L160,250 L162,242 L164,241 L162,250 L164,262 L167,262 L171,252 L173,250 L173,243 L171,243 L173,238 L175,238 L177,226 L178,223 L183,220 L184,214 L186,214 L186,211 L188,211 L190,207 L192,206 L192,197 L190,192 L188,192 L187,179 L187,159 L183,148 L179,144 L174,133 L172,133 L172,123 L170,122 L168,115 L164,115 L164,112 L162,111 L156,111 L157,98 L153,99 L152,96 L148,96 L149,92 L149,83 L147,83 L147,81 L140,81 L140,83 L138,83 L138,81 L132,81 L132,74 L131,71 L129,71 L128,68 L126,67 L125,64 L121,63 L121,61 L115,60 L112,61 L114,57 L114,53 L112,53 L112,51 L114,51 L115,48 L113,48 L111,43 L111,40 L101,41 L98,43 L96,30 L95,29 L83,28 L82,22 L80,22 L80,19 L73,19 L73,17 L69,13 L64,14 L59,17 L58,20 L52,19 L56,17 L57,13 L48,13 L42,12 L36,12 L35,9 L32,9 L26,8 L26,10 Z M-140,60 Z M-67,293 Z M-68,294 Z M-115,304 Z M-108,320 Z M156,239 Z " fill="#998DE5" transform="translate(496,352)"/>
<path d="M0,0 Z M-301,-98 L-299,-97 L-299,-90 L-298,-86 L-299,-80 L-295,-78 L-297,-73 L-299,-70 L-299,-57 L-298,-53 L-299,-44 L-300,-41 L-298,-41 L-296,-39 L-296,-31 L-300,-31 L-299,-27 L-299,-12 L-297,-11 L-295,-15 L-290,-16 L-289,-18 L-287,-14 L-289,-11 L-288,-8 L-289,-7 L-290,1 L-285,-1 L-284,-6 L-281,-7 L-280,-3 L-280,0 L-279,2 L-281,9 L-275,10 L-275,18 L-269,18 L-266,17 L-265,15 L-258,17 L-255,18 L-254,22 L-253,31 L-254,34 L-254,42 L-252,43 L-252,49 L-249,50 L-252,53 L-254,53 L-255,61 L-256,61 L-259,52 L-266,52 L-266,50 L-270,49 L-271,57 L-269,58 L-270,65 L-266,64 L-265,62 L-263,62 L-263,69 L-266,76 L-263,79 L-262,81 L-256,81 L-253,81 L-254,84 L-262,84 L-263,88 L-240,89 L-240,82 L-237,81 L-236,84 L-237,88 L-230,89 L-230,74 L-228,64 L-224,63 L-224,60 L-226,60 L-225,54 L-222,47 L-220,46 L-206,45 L-202,43 L-199,45 L-190,45 L-190,37 L-184,38 L-184,36 L-175,35 L-172,38 L-172,44 L-162,45 L-149,46 L-140,48 L-138,49 L-138,52 L-129,53 L-81,53 L-81,51 L-66,51 L-62,48 L-58,47 L-50,47 L-46,45 L-45,43 L-53,44 L-48,38 L-40,37 L-42,35 L-40,33 L-40,29 L-33,27 L-32,29 L-31,28 L-23,27 L-28,26 L-23,20 L-17,18 L-13,17 L-12,13 L-11,9 L-5,8 L-3,3 L0,1 L2,11 L4,11 L5,3 L8,2 L8,8 L7,11 L8,19 L8,39 L5,47 L5,57 L7,57 L7,72 L5,72 L4,70 L1,71 L1,79 L0,83 L-3,83 L-4,89 L-10,91 L-12,89 L-14,90 L-20,89 L-30,90 L-32,88 L-30,82 L-30,78 L-33,77 L-35,74 L-44,71 L-44,64 L-43,63 L-46,62 L-66,62 L-83,63 L-84,64 L-116,63 L-121,62 L-120,57 L-124,58 L-124,56 L-132,57 L-135,55 L-138,55 L-140,57 L-140,54 L-151,54 L-151,56 L-158,57 L-167,56 L-175,56 L-176,48 L-180,49 L-189,48 L-190,51 L-176,52 L-176,54 L-192,54 L-193,56 L-196,55 L-196,53 L-200,53 L-200,51 L-204,55 L-206,55 L-206,57 L-210,57 L-210,59 L-214,59 L-214,61 L-216,61 L-216,63 L-219,65 L-220,81 L-222,81 L-222,89 L-224,89 L-224,97 L-226,97 L-226,101 L-228,101 L-228,109 L-230,109 L-230,117 L-234,117 L-234,119 L-238,119 L-238,123 L-240,123 L-240,125 L-242,125 L-242,133 L-246,133 L-246,135 L-254,135 L-254,133 L-256,133 L-256,127 L-260,125 L-264,121 L-264,119 L-270,119 L-270,117 L-274,117 L-274,115 L-276,115 L-276,113 L-274,113 L-274,111 L-276,111 L-276,105 L-278,105 L-278,85 L-276,85 L-276,81 L-274,81 L-274,75 L-276,75 L-276,65 L-274,65 L-274,57 L-276,57 L-277,41 L-280,39 L-280,35 L-282,35 L-282,33 L-286,33 L-288,28 L-292,25 L-292,19 L-296,19 L-300,15 L-300,11 L-308,11 L-308,5 L-310,5 L-310,1 L-312,1 L-312,-7 L-314,-7 L-314,-15 L-311,-15 L-311,-18 L-313,-18 L-313,-21 L-311,-21 L-311,-23 L-309,-23 L-310,-59 L-308,-59 L-308,-66 L-307,-67 L-306,-78 L-305,-79 L-304,-89 L-301,-89 Z M-223,54 Z M-224,55 Z M-271,65 Z M-264,81 Z " fill="#A19CEC" transform="translate(652,591)"/>
<path d="M0,0 L16,0 L20,4 L20,2 L22,2 L22,4 L24,4 L24,2 L26,2 L26,4 L36,4 L36,6 L44,6 L44,8 L70,8 L70,10 L78,10 L78,12 L96,12 L96,18 L100,18 L100,24 L104,26 L112,34 L114,37 L118,38 L118,40 L122,40 L124,43 L130,44 L134,49 L134,52 L132,52 L132,54 L140,54 L140,60 L142,60 L142,62 L144,62 L144,68 L146,68 L146,70 L150,70 L150,72 L154,72 L158,77 L160,78 L160,82 L162,82 L162,86 L166,88 L169,93 L163,95 L162,92 L158,92 L155,87 L155,81 L148,82 L140,81 L140,83 L138,83 L138,81 L132,81 L131,74 L131,71 L129,71 L125,67 L125,64 L121,63 L121,61 L112,61 L114,53 L112,53 L112,51 L114,51 L112,46 L110,43 L111,41 L101,42 L98,43 L95,30 L82,29 L82,22 L80,22 L80,19 L73,19 L73,17 L70,16 L69,14 L64,15 L59,18 L58,20 L51,20 L53,17 L56,17 L56,14 L48,14 L42,13 L36,12 L34,10 L32,11 L32,9 L27,9 L24,10 L16,8 L15,9 L6,10 L4,11 L4,8 L0,9 L-22,10 L-32,19 L-36,20 L-46,20 L-48,18 L-43,15 L-42,13 L-50,15 L-61,15 L-64,17 L-72,19 L-84,19 L-88,17 L-89,20 L-92,20 L-92,18 L-101,21 L-105,26 L-114,30 L-117,35 L-115,36 L-118,43 L-114,44 L-117,48 L-119,48 L-119,46 L-121,46 L-121,44 L-125,47 L-132,46 L-133,47 L-133,56 L-138,59 L-137,62 L-135,60 L-128,62 L-129,64 L-131,64 L-133,69 L-138,74 L-141,77 L-143,80 L-144,85 L-146,87 L-147,84 L-151,89 L-149,92 L-145,93 L-143,97 L-144,102 L-142,110 L-143,118 L-144,120 L-143,132 L-148,134 L-150,138 L-151,143 L-149,145 L-150,149 L-148,149 L-148,160 L-149,161 L-150,172 L-151,173 L-152,180 L-154,180 L-153,192 L-153,216 L-155,216 L-155,218 L-157,218 L-157,221 L-155,221 L-154,219 L-155,224 L-156,222 L-158,222 L-158,218 L-160,218 L-160,202 L-158,202 L-158,198 L-160,198 L-160,178 L-158,178 L-158,154 L-156,154 L-156,128 L-154,128 L-154,110 L-152,110 L-152,100 L-154,100 L-154,92 L-156,92 L-156,72 L-154,72 L-154,64 L-152,64 L-152,60 L-144,60 L-144,54 L-142,54 L-142,52 L-140,52 L-140,46 L-138,46 L-138,44 L-136,44 L-135,39 L-130,38 L-130,40 L-128,40 L-126,36 L-124,36 L-124,34 L-122,34 L-122,32 L-124,32 L-124,30 L-122,30 L-122,28 L-118,28 L-118,26 L-116,26 L-116,20 L-114,20 L-114,22 L-108,22 L-108,18 L-104,18 L-104,16 L-100,16 L-100,14 L-102,14 L-102,12 L-97,10 L-94,12 L-94,10 L-88,10 L-88,12 L-84,12 L-84,10 L-82,10 L-82,12 L-64,12 L-64,10 L-48,10 L-48,8 L-26,8 L-26,6 L-24,6 L-24,4 L-6,4 L-6,2 L0,2 Z M-140,60 Z " fill="#9D7DE1" transform="translate(496,352)"/>
<path d="M0,0 L2,0 L2,2 L4,2 L5,5 L6,0 L8,0 L8,11 L10,11 L10,19 L9,20 L9,26 L1,32 L-6,32 L-9,33 L-14,33 L-15,34 L-26,35 L-30,39 L-31,42 L-67,42 L-68,38 L-71,36 L-71,34 L-77,37 L-82,35 L-123,34 L-125,33 L-125,29 L-129,28 L-132,23 L-134,22 L-134,13 L-131,13 L-131,9 L-121,9 L-121,7 L-19,6 L-11,5 L-11,3 L-5,4 L-3,5 L-2,1 Z " fill="#A298F0" transform="translate(651,683)"/>
<path d="M0,0 Z M-1,1 L1,4 L2,11 L4,11 L5,3 L8,2 L8,8 L7,11 L8,19 L8,39 L5,47 L5,57 L7,57 L7,72 L5,72 L4,70 L1,71 L1,79 L0,83 L-3,83 L-4,89 L-10,91 L-12,89 L-14,90 L-20,89 L-30,90 L-32,88 L-30,82 L-30,78 L-33,77 L-35,74 L-44,71 L-44,64 L-43,63 L-46,62 L-66,62 L-83,63 L-84,64 L-116,63 L-121,62 L-120,57 L-124,58 L-124,56 L-108,56 L-84,55 L-81,56 L-78,55 L-76,56 L-64,56 L-52,55 L-52,53 L-46,52 L-45,49 L-41,46 L-34,46 L-36,44 L-53,44 L-48,38 L-40,37 L-42,35 L-40,33 L-40,29 L-33,27 L-32,29 L-31,28 L-23,27 L-28,26 L-23,20 L-17,18 L-13,17 L-12,13 L-11,9 L-5,8 L-3,3 Z " fill="#9A94E5" transform="translate(652,591)"/>
<path d="M0,0 L2,1 L2,8 L4,12 L8,12 L9,14 L14,13 L20,14 L20,18 L26,18 L30,23 L32,24 L32,38 L38,38 L38,40 L40,40 L40,48 L38,48 L38,60 L40,60 L40,82 L42,82 L42,108 L44,108 L44,132 L42,132 L42,138 L40,138 L40,146 L42,146 L42,150 L40,150 L40,156 L38,156 L38,158 L36,158 L36,160 L32,160 L32,162 L30,162 L30,164 L28,164 L28,172 L26,172 L26,178 L24,178 L24,182 L22,182 L22,190 L20,190 L20,192 L22,192 L22,194 L20,194 L20,196 L16,196 L16,200 L14,200 L14,204 L11,204 L11,215 L7,215 L6,206 L9,198 L10,182 L13,182 L14,176 L17,171 L18,170 L19,163 L17,163 L19,158 L21,158 L21,149 L24,142 L29,140 L30,134 L32,134 L32,131 L34,131 L35,127 L38,126 L36,113 L34,112 L32,99 L32,79 L29,71 L29,68 L25,66 L20,55 L20,53 L18,53 L18,43 L15,42 L14,36 L10,35 L10,32 L2,31 L1,27 L3,18 L-1,19 L-2,17 L-6,16 L-5,3 L-7,3 L-6,1 Z " fill="#A68BE9" transform="translate(650,432)"/>
<path d="M0,0 L2,0 L2,16 L-1,23 L-3,23 L-3,25 L-8,29 L-10,33 L-16,35 L-16,41 L-20,45 L-21,43 L-26,46 L-28,46 L-31,50 L-26,52 L-26,53 L-36,54 L-38,55 L-39,53 L-45,55 L-46,57 L-44,58 L-46,60 L-51,61 L-57,63 L-65,66 L-74,67 L-78,69 L-107,70 L-145,69 L-145,65 L-158,71 L-163,69 L-164,62 L-165,58 L-165,52 L-169,53 L-173,52 L-177,54 L-181,53 L-180,40 L-177,41 L-177,43 L-175,43 L-174,34 L-172,34 L-171,42 L-168,43 L-161,42 L-161,45 L-158,43 L-155,44 L-159,46 L-159,48 L-155,49 L-155,53 L-144,51 L-144,53 L-137,52 L-127,52 L-126,51 L-117,51 L-115,52 L-83,52 L-69,53 L-69,51 L-65,52 L-64,54 L-59,55 L-59,52 L-57,52 L-57,46 L-55,46 L-55,43 L-53,43 L-53,45 L-49,44 L-49,41 L-46,40 L-41,41 L-39,40 L-35,42 L-27,42 L-26,38 L-24,33 L-21,26 L-15,26 L-14,20 L-14,16 L-6,16 L-3,10 L-5,9 L0,4 L-2,3 Z M-3,4 Z " fill="#B3B1FB" transform="translate(657,566)"/>
<path d="M0,0 L2,1 L2,8 L3,12 L2,18 L6,20 L4,25 L2,28 L2,41 L3,45 L2,54 L1,57 L3,57 L5,59 L5,67 L1,67 L2,71 L2,86 L4,87 L6,83 L11,82 L12,80 L14,84 L12,87 L13,90 L12,91 L11,99 L16,97 L17,92 L20,91 L21,95 L21,98 L22,100 L20,107 L26,108 L26,116 L32,116 L35,115 L36,113 L43,115 L46,116 L47,120 L48,129 L45,130 L45,128 L37,126 L36,128 L32,125 L28,126 L25,122 L25,119 L20,118 L20,116 L12,116 L12,122 L10,122 L10,116 L12,114 L11,113 L7,110 L7,108 L4,108 L4,112 L2,112 L2,107 L2,103 L1,96 L-1,95 L-1,93 L-3,93 L-2,97 L-4,98 L-10,98 L-10,91 L-10,90 L-12,90 L-12,84 L-10,80 L-12,80 L-12,77 L-10,77 L-10,75 L-8,75 L-9,39 L-7,39 L-7,32 L-6,31 L-5,20 L-4,19 L-3,9 L0,9 Z " fill="#AE8CEF" transform="translate(351,493)"/>
<path d="M0,0 L4,2 L4,11 L-1,14 L0,17 L2,15 L9,17 L8,19 L6,19 L4,24 L-1,29 L-4,32 L-6,35 L-7,40 L-9,42 L-10,39 L-14,44 L-12,47 L-8,48 L-6,52 L-7,57 L-5,65 L-6,73 L-7,75 L-6,87 L-11,89 L-13,93 L-14,98 L-12,100 L-13,104 L-11,104 L-11,115 L-12,116 L-13,127 L-14,128 L-15,135 L-17,135 L-16,147 L-16,171 L-18,171 L-18,173 L-20,173 L-20,176 L-18,176 L-17,174 L-18,179 L-19,177 L-21,177 L-21,173 L-23,173 L-23,157 L-21,157 L-21,153 L-23,153 L-23,133 L-21,133 L-21,109 L-19,109 L-19,83 L-17,83 L-17,65 L-15,65 L-15,55 L-17,55 L-17,47 L-19,47 L-19,27 L-17,27 L-17,19 L-15,19 L-15,15 L-6,15 L-6,10 L-4,10 L-4,8 L0,8 Z M-3,15 Z M4,0 Z " fill="#A281E6" transform="translate(359,397)"/>
<path d="M0,0 L2,0 L2,2 L6,2 L6,4 L10,4 L10,6 L12,6 L14,2 L18,0 L16,4 L14,10 L18,10 L18,16 L22,16 L22,22 L14,22 L14,24 L2,24 L2,26 L-3,28 L-6,32 L-16,33 L-18,38 L-24,38 L-24,40 L-8,40 L-8,44 L-28,44 L-28,46 L-32,46 L-32,48 L-34,48 L-34,46 L-36,46 L-36,48 L-38,48 L-38,46 L-40,46 L-40,48 L-42,48 L-42,46 L-44,46 L-44,48 L-46,48 L-46,46 L-48,46 L-48,48 L-50,48 L-50,44 L-52,44 L-52,40 L-46,40 L-46,38 L-48,38 L-46,34 L-38,34 L-38,32 L-43,31 L-44,28 L-36,28 L-36,26 L-32,26 L-32,24 L-30,24 L-30,20 L-28,20 L-28,16 L-26,16 L-26,14 L-24,14 L-24,18 L-20,18 L-20,16 L-18,16 L-18,10 L-20,10 L-20,8 L-12,8 L-12,6 L-8,6 L-8,4 L-4,4 L-4,2 L0,2 Z " fill="#16081B" transform="translate(638,824)"/>
<path d="M0,0 L2,0 L2,6 L4,6 L4,16 L2,16 L2,18 L4,18 L4,24 L1,26 L0,32 L-2,32 L-2,40 L-4,40 L-4,48 L-2,48 L-2,51 L-4,51 L-4,58 L-6,58 L-6,60 L-8,60 L-8,62 L-6,62 L-6,64 L-13,63 L-13,66 L-16,66 L-16,78 L-14,78 L-14,82 L-16,82 L-16,90 L-18,90 L-18,92 L-20,92 L-20,84 L-22,84 L-22,76 L-20,76 L-21,66 L-24,64 L-24,58 L-26,58 L-26,56 L-24,56 L-24,54 L-26,54 L-26,44 L-28,44 L-28,42 L-24,42 L-24,40 L-28,38 L-28,36 L-24,36 L-24,30 L-26,30 L-26,28 L-24,28 L-24,14 L-22,14 L-22,20 L-20,20 L-20,12 L-16,13 L-16,20 L-14,20 L-14,16 L-12,16 L-12,20 L-10,20 L-10,18 L-8,18 L-8,8 Z " fill="#12071F" transform="translate(764,614)"/>
<path d="M0,0 L2,1 L1,7 L3,7 L3,1 L4,1 L5,8 L3,8 L3,15 L11,14 L10,10 L12,10 L14,12 L15,12 L17,24 L15,24 L15,29 L17,29 L17,25 L20,25 L24,29 L27,29 L26,32 L24,33 L23,39 L25,39 L25,33 L33,33 L34,35 L38,36 L41,42 L46,41 L46,43 L50,43 L56,43 L56,45 L58,45 L60,49 L60,57 L62,58 L62,64 L65,65 L62,68 L60,68 L59,76 L58,76 L55,67 L48,67 L48,65 L44,64 L43,72 L45,73 L44,80 L48,79 L49,77 L51,77 L51,84 L48,92 L48,98 L43,100 L42,104 L41,105 L40,120 L39,125 L41,125 L41,120 L42,120 L42,126 L41,128 L43,128 L44,126 L44,129 L42,130 L44,132 L40,132 L40,130 L38,130 L38,128 L40,128 L40,126 L38,126 L38,120 L36,120 L36,100 L38,100 L38,96 L40,96 L40,90 L38,90 L38,80 L40,80 L40,72 L38,72 L37,56 L34,54 L34,50 L32,50 L32,48 L28,48 L26,43 L22,40 L22,34 L18,34 L14,30 L14,26 L6,26 L6,20 L4,20 L4,16 L2,16 L2,8 L0,8 Z M43,80 Z " fill="#9E8AE4" transform="translate(338,576)"/>
<path d="M0,0 L16,0 L20,4 L20,2 L22,2 L22,4 L24,4 L24,2 L26,2 L26,4 L36,4 L36,6 L44,6 L44,7 L36,7 L35,10 L32,11 L32,9 L27,9 L24,10 L16,8 L15,9 L6,10 L4,11 L4,8 L0,9 L-22,10 L-32,19 L-36,20 L-46,20 L-48,18 L-43,15 L-42,13 L-50,15 L-61,15 L-64,17 L-72,19 L-84,19 L-88,17 L-89,20 L-92,20 L-92,18 L-101,21 L-105,26 L-114,30 L-117,35 L-115,36 L-118,43 L-114,44 L-117,48 L-119,48 L-119,46 L-121,46 L-121,44 L-125,47 L-135,46 L-137,45 L-136,47 L-136,53 L-139,54 L-141,53 L-141,55 L-143,55 L-143,60 L-144,60 L-144,54 L-142,54 L-142,52 L-140,52 L-140,46 L-138,46 L-138,44 L-136,44 L-135,39 L-130,38 L-130,40 L-128,40 L-126,36 L-124,36 L-124,34 L-122,34 L-122,32 L-124,32 L-124,30 L-122,30 L-122,28 L-118,28 L-118,26 L-116,26 L-116,20 L-114,20 L-114,22 L-108,22 L-108,18 L-104,18 L-104,16 L-100,16 L-100,14 L-102,14 L-102,12 L-97,10 L-94,12 L-94,10 L-88,10 L-88,12 L-84,12 L-84,10 L-82,10 L-82,12 L-64,12 L-64,10 L-48,10 L-48,8 L-26,8 L-26,6 L-24,6 L-24,4 L-6,4 L-6,2 L0,2 Z " fill="#9B7BE1" transform="translate(496,352)"/>
<path d="M0,0 L2,0 L4,4 L10,4 L13,4 L12,7 L4,7 L3,11 L26,12 L26,5 L29,4 L30,7 L29,11 L36,12 L37,10 L38,19 L39,23 L37,23 L37,21 L32,25 L30,24 L29,31 L26,38 L23,40 L19,40 L20,47 L14,47 L13,42 L3,43 L2,41 L-4,41 L-4,39 L-7,38 L-4,37 L-7,36 L-7,33 L-9,33 L-8,13 L-5,8 L-1,6 Z M2,4 Z " fill="#AE92EF" transform="translate(386,668)"/>
<path d="M0,0 L2,0 L2,2 L4,2 L5,5 L6,0 L8,0 L8,11 L10,11 L10,19 L9,20 L9,26 L1,32 L-6,32 L-9,33 L-14,33 L-15,34 L-26,35 L-30,39 L-31,42 L-67,42 L-68,38 L-71,36 L-71,34 L-77,37 L-82,35 L-123,34 L-125,32 L-64,32 L-59,31 L-58,33 L-51,34 L-49,30 L-46,30 L-43,33 L-37,33 L-37,31 L-21,29 L-21,27 L-15,26 L-13,27 L-13,25 L-3,25 L2,26 L3,25 L3,9 L1,9 L0,7 L-5,10 L-17,9 L-35,9 L-45,10 L-49,9 L-80,11 L-85,12 L-85,9 L-121,9 L-121,7 L-19,6 L-11,5 L-11,3 L-5,4 L-3,5 L-2,1 Z " fill="#9E92EA" transform="translate(651,683)"/>
<path d="M0,0 L13,1 L14,6 L21,6 L21,7 L14,7 L14,9 L26,8 L32,9 L38,9 L38,7 L49,7 L51,7 L55,8 L58,9 L65,9 L69,10 L69,14 L73,15 L105,16 L106,15 L128,14 L138,15 L137,17 L125,18 L124,19 L102,21 L96,21 L95,23 L71,23 L71,26 L69,26 L69,22 L65,22 L65,24 L57,24 L57,26 L45,26 L45,28 L39,28 L39,26 L37,26 L37,22 L32,21 L29,18 L29,16 L25,16 L25,14 L21,14 L21,10 L13,10 L13,8 L1,8 L1,10 L-1,10 L-1,8 L-3,8 L-3,10 L-5,9 L-3,6 L13,7 L13,5 L1,5 L-1,4 Z " fill="#9B94E4" transform="translate(463,638)"/>
<path d="M0,0 L2,0 L2,2 L20,1 L22,2 L22,4 L32,1 L33,5 L37,5 L38,7 L34,9 L35,18 L28,19 L26,22 L19,22 L18,19 L14,20 L14,17 L4,18 L-2,17 L-2,15 L-30,13 L-40,13 L-40,15 L-44,15 L-44,13 L-47,13 L-47,11 L-50,10 L-50,7 L-53,6 L-49,2 L-46,2 L-46,4 L-30,3 L-26,1 L-16,2 L-14,3 L-8,3 Z M-54,7 Z " fill="#A69DF3" transform="translate(574,695)"/>
<path d="M0,0 L4,2 L3,5 L2,10 L7,10 L13,13 L14,16 L16,17 L17,23 L15,27 L17,28 L28,27 L32,29 L25,30 L22,30 L18,31 L14,33 L8,33 L4,32 L2,36 L-4,37 L-34,37 L-38,36 L-38,34 L-50,34 L-50,31 L-42,31 L-42,29 L-50,29 L-50,28 L-42,28 L-42,26 L-40,26 L-40,28 L-37,26 L-34,26 L-34,22 L-30,22 L-30,26 L-22,26 L-22,28 L-6,28 L-6,26 L-4,26 L-4,28 L0,28 L0,26 L2,26 L2,24 L4,24 L4,22 L2,22 L2,20 L6,21 L8,23 L12,24 L12,18 L7,17 L6,14 L-6,14 L-8,10 L-26,10 L-26,12 L-28,12 L-28,10 L-40,10 L-40,12 L-48,12 L-48,10 L-72,10 L-72,9 L-48,9 L-47,6 L-30,5 L-19,4 L-18,3 L-6,2 Z " fill="#948BE3" transform="translate(606,652)"/>
<path d="M0,0 L3,4 L6,10 L8,11 L12,22 L12,42 L13,55 L16,56 L17,60 L17,69 L14,71 L13,74 L11,74 L11,77 L9,77 L8,83 L3,87 L1,93 L0,101 L-2,101 L-4,106 L-2,106 L-2,113 L-5,116 L-8,125 L-11,125 L-13,111 L-11,104 L-13,105 L-15,113 L-18,114 L-19,106 L-18,102 L-17,100 L-15,100 L-13,95 L-9,95 L-9,81 L-8,76 L0,75 L0,71 L4,68 L7,68 L7,57 L9,52 L9,34 L8,28 L9,24 L8,15 L2,15 L3,24 L1,27 L0,31 L-1,31 L-2,22 L0,18 L0,11 L2,11 L2,6 L0,6 Z " fill="#AC92F0" transform="translate(671,489)"/>
<path d="M0,0 L6,1 L9,2 L9,4 L12,5 L9,6 L10,10 L8,9 L8,7 L4,7 L4,5 L0,9 L-2,9 L-2,11 L-6,11 L-6,13 L-10,13 L-10,15 L-12,15 L-12,17 L-15,19 L-16,35 L-18,35 L-18,43 L-20,43 L-20,51 L-22,51 L-22,55 L-24,55 L-24,63 L-26,63 L-26,71 L-30,71 L-30,73 L-34,73 L-34,77 L-36,77 L-36,79 L-38,79 L-38,87 L-42,87 L-42,89 L-50,89 L-50,87 L-52,87 L-52,81 L-56,79 L-60,75 L-60,73 L-66,73 L-66,72 L-58,71 L-58,73 L-49,73 L-48,78 L-42,78 L-43,71 L-36,68 L-32,55 L-29,55 L-27,52 L-25,52 L-25,54 L-23,54 L-25,50 L-26,41 L-26,28 L-24,18 L-20,17 L-20,14 L-22,14 L-22,11 L-14,5 L-7,5 L-5,1 Z " fill="#9987E1" transform="translate(448,637)"/>
<path d="M0,0 L6,2 L5,4 L-3,5 L-7,9 L0,9 L-2,13 L-5,14 L-14,14 L-19,16 L-21,18 L-33,18 L-36,17 L-36,19 L-46,20 L-84,20 L-93,18 L-93,15 L-105,13 L-110,13 L-110,11 L-106,10 L-98,6 L-95,6 L-95,10 L-50,10 L-28,9 L-23,7 L-15,6 L-7,3 Z " fill="#A5A2F0" transform="translate(607,625)"/>
<path d="M0,0 L7,1 L10,2 L11,4 L22,3 L23,5 L18,8 L14,12 L3,11 L-1,16 L-4,18 L-5,22 L-7,22 L-7,18 L-13,20 L-15,21 L-14,17 L-19,19 L-25,19 L-25,17 L-28,18 L-29,21 L-35,22 L-35,20 L-43,22 L-45,19 L-48,17 L-51,19 L-55,19 L-61,18 L-61,15 L-59,15 L-59,12 L-65,14 L-69,19 L-71,23 L-71,21 L-73,21 L-73,18 L-81,18 L-81,11 L-85,12 L-88,9 L-86,9 L-84,5 L-81,2 L-77,3 L-77,10 L-67,10 L-66,8 L-53,8 L-53,10 L-23,10 L-14,8 L-3,9 L-3,6 L1,6 L-3,2 Z " fill="#B6ACF2" transform="translate(609,520)"/>
<path d="M0,0 L2,0 L2,4 L4,4 L4,8 L6,8 L6,18 L4,18 L4,20 L6,20 L6,22 L10,22 L10,8 L12,8 L12,2 L14,2 L14,0 L18,0 L18,2 L20,2 L20,4 L24,4 L25,10 L29,11 L30,15 L28,15 L29,20 L26,20 L26,22 L24,22 L24,28 L22,28 L22,44 L24,44 L24,54 L22,54 L22,58 L20,58 L20,56 L16,56 L16,54 L12,54 L12,48 L14,48 L14,36 L16,36 L16,40 L18,40 L16,32 L14,32 L14,30 L12,30 L12,26 L10,26 L10,24 L8,24 L8,26 L4,26 L4,34 L2,34 L2,32 L0,32 L-2,25 L-4,24 L-2,18 L-4,18 L-4,10 L-8,10 L-8,6 L-4,6 L-4,4 L-2,4 Z " fill="#190A25" transform="translate(744,388)"/>
<path d="M0,0 L2,0 L2,2 L4,2 L4,0 L6,0 L6,2 L16,2 L16,4 L18,4 L18,8 L20,8 L20,12 L22,12 L22,18 L28,18 L28,22 L34,22 L34,32 L28,32 L28,30 L22,30 L22,32 L16,32 L16,34 L14,34 L14,32 L8,32 L5,30 L5,32 L2,32 L2,29 L4,29 L4,26 L0,26 L0,24 L-4,24 L-4,20 L-7,22 L-10,22 L-10,18 L-4,18 L-4,14 L-10,14 L-10,8 L-8,8 L-8,4 L-4,4 L-4,2 L0,2 Z " fill="#170822" transform="translate(692,302)"/>
<path d="M0,0 L14,0 L14,1 L4,1 L4,5 L1,5 L1,14 L4,15 L7,20 L10,21 L10,25 L53,26 L59,28 L61,26 L64,26 L68,30 L68,34 L57,35 L53,32 L52,34 L44,34 L44,37 L32,37 L32,35 L28,35 L28,37 L10,37 L10,35 L6,35 L6,33 L4,33 L2,26 L-2,23 L-3,16 L-1,16 L-1,5 Z " fill="#9B8FE3" transform="translate(516,691)"/>
<path d="M0,0 L9,0 L11,1 L43,1 L57,2 L57,0 L61,1 L62,5 L57,10 L13,11 L8,9 L7,10 L-17,10 L-18,8 L-15,8 L-13,4 L-15,4 L-17,5 L-15,1 L-1,1 Z " fill="#B9B9FD" transform="translate(531,617)"/>
<path d="M0,0 L2,1 L2,8 L3,12 L2,18 L6,20 L4,25 L2,28 L1,43 L0,45 L-3,45 L-3,78 L-5,83 L-3,83 L-3,90 L0,89 L0,95 L-1,93 L-3,93 L-2,97 L-4,98 L-10,98 L-10,91 L-10,90 L-12,90 L-12,84 L-10,80 L-12,80 L-12,77 L-10,77 L-10,75 L-8,75 L-9,39 L-7,39 L-7,32 L-6,31 L-5,20 L-4,19 L-3,9 L0,9 Z M-5,73 Z " fill="#A785E9" transform="translate(351,493)"/>
<path d="M0,0 L1,0 L1,26 L3,26 L3,50 L1,50 L1,56 L-1,56 L-1,64 L1,64 L1,68 L-1,68 L-1,74 L-3,74 L-3,76 L-5,76 L-5,78 L-9,78 L-9,80 L-11,80 L-11,82 L-13,82 L-13,90 L-15,90 L-15,96 L-17,96 L-17,100 L-19,100 L-19,108 L-21,108 L-21,110 L-19,110 L-19,112 L-21,112 L-21,114 L-25,114 L-25,118 L-27,118 L-28,122 L-28,118 L-30,118 L-31,121 L-31,117 L-29,117 L-28,115 L-28,117 L-26,117 L-28,113 L-27,99 L-25,99 L-24,96 L-20,97 L-20,99 L-18,99 L-19,90 L-18,90 L-18,95 L-16,95 L-17,90 L-17,77 L-15,74 L-13,74 L-12,70 L-9,70 L-6,54 L-3,53 L-3,49 L-1,49 L-1,26 Z " fill="#A286E3" transform="translate(691,514)"/>
<path d="M0,0 L5,1 L5,5 L11,5 L15,10 L17,11 L17,25 L23,25 L23,27 L25,27 L25,35 L23,35 L23,47 L25,47 L25,69 L24,69 L24,48 L22,48 L22,59 L21,59 L21,50 L18,50 L17,52 L16,45 L16,40 L12,41 L11,40 L11,35 L9,34 L9,27 L7,14 L0,14 L-2,13 L-2,2 L0,2 Z " fill="#9C80DF" transform="translate(665,445)"/>
<path d="M0,0 L4,2 L4,11 L-1,14 L0,17 L2,15 L9,17 L8,19 L6,19 L4,24 L-1,29 L-4,32 L-6,35 L-7,40 L-9,42 L-10,39 L-14,44 L-13,46 L-18,46 L-18,27 L-17,19 L-15,19 L-15,15 L-6,15 L-6,10 L-4,10 L-4,8 L0,8 Z M-3,15 Z M4,0 Z " fill="#A181E2" transform="translate(359,397)"/>
<path d="M0,0 L4,2 L3,5 L2,10 L7,10 L13,13 L14,16 L16,17 L17,23 L14,28 L7,28 L5,27 L5,25 L3,25 L3,27 L0,28 L0,26 L2,26 L2,24 L4,24 L4,22 L2,22 L2,20 L6,21 L8,23 L12,24 L12,18 L7,17 L6,14 L-6,14 L-8,10 L-26,10 L-26,12 L-28,12 L-28,10 L-40,10 L-40,12 L-48,12 L-48,10 L-72,10 L-72,9 L-48,9 L-47,6 L-30,5 L-19,4 L-18,3 L-6,2 Z " fill="#918BE2" transform="translate(606,652)"/>
<path d="M0,0 L2,0 L3,4 L1,4 L1,10 L-1,12 L-2,16 L-4,16 L-5,23 L0,22 L1,30 L4,31 L5,36 L6,39 L16,39 L19,38 L24,33 L26,33 L27,24 L28,22 L28,13 L26,5 L29,4 L30,7 L29,11 L36,12 L37,10 L38,19 L39,23 L37,23 L37,21 L32,25 L30,24 L29,31 L26,38 L23,40 L19,40 L20,47 L14,47 L13,42 L3,43 L2,41 L-4,41 L-4,39 L-7,38 L-4,37 L-7,36 L-7,33 L-9,33 L-8,13 L-5,8 L-1,6 Z " fill="#A98EE9" transform="translate(386,668)"/>
<path d="M0,0 L1,0 L1,19 L6,19 L11,21 L13,25 L12,30 L14,38 L13,46 L12,48 L13,60 L8,62 L6,66 L5,71 L4,76 L3,76 L3,57 L1,57 L1,82 L0,82 L0,56 L2,56 L2,38 L4,38 L4,28 L2,28 L2,20 L0,20 Z " fill="#9A7ADD" transform="translate(340,424)"/>
<path d="M0,0 L2,1 L0,3 L-13,6 L-17,7 L-20,8 L-49,9 L-87,8 L-87,4 L-91,6 L-94,6 L-95,4 L-99,3 L-99,1 L-79,1 L-57,2 L-51,3 L-47,2 L-33,2 L-30,3 L-27,2 L-11,2 L-1,1 Z " fill="#AEADF9" transform="translate(599,627)"/>
<path d="M0,0 L2,0 L2,2 L10,2 L10,4 L14,4 L14,2 L18,2 L18,4 L22,4 L22,2 L24,2 L24,4 L32,4 L32,0 L36,0 L35,4 L35,1 L33,1 L35,7 L32,9 L24,8 L24,7 L32,7 L32,5 L18,6 L10,5 L10,7 L1,8 L-15,7 L-15,9 L0,9 L-4,11 L-7,12 L-4,13 L-5,31 L-7,31 L-6,34 L-8,34 L-8,32 L-12,32 L-12,28 L-16,28 L-16,22 L-18,22 L-18,20 L-24,20 L-24,10 L-16,10 L-16,6 L0,6 Z " fill="#9A8CDF" transform="translate(520,676)"/>
<path d="M0,0 L6,1 L8,6 L10,7 L9,9 L11,9 L11,11 L16,13 L19,15 L21,20 L25,21 L26,25 L28,25 L31,28 L34,31 L33,37 L25,38 L25,31 L22,31 L22,28 L19,28 L19,26 L12,26 L9,31 L8,27 L7,24 L13,23 L13,19 L9,19 L9,16 L1,16 L1,13 L-6,12 L-9,13 L-8,9 L-9,7 L-4,2 Z " fill="#BFABFB" transform="translate(583,456)"/>
<path d="M0,0 L16,0 L20,4 L20,2 L22,2 L22,4 L24,4 L24,2 L26,2 L26,4 L36,4 L36,6 L44,6 L44,7 L36,7 L35,10 L32,11 L32,9 L27,9 L24,10 L16,8 L15,9 L6,10 L4,11 L4,8 L0,9 L-22,10 L-26,12 L-47,11 L-47,9 L-26,9 L-26,6 L-24,6 L-24,4 L-6,4 L-6,2 L0,2 Z " fill="#9E7DE3" transform="translate(496,352)"/>
<path d="M0,0 L4,1 L4,8 L6,8 L6,4 L8,4 L8,9 L10,10 L6,14 L4,21 L6,21 L6,19 L8,19 L5,28 L2,35 L1,53 L-4,52 L-4,46 L-6,46 L-6,44 L-4,44 L-4,42 L-6,42 L-6,32 L-8,32 L-8,30 L-4,30 L-4,28 L-8,26 L-8,24 L-4,24 L-4,18 L-6,18 L-6,16 L-4,16 L-4,2 L-2,2 L-2,8 L0,8 Z " fill="#180B27" transform="translate(744,626)"/>
<path d="M0,0 L1,0 L1,15 L3,15 L3,0 L5,2 L4,8 L6,8 L5,16 L7,17 L6,24 L10,23 L11,21 L13,21 L13,28 L10,36 L10,42 L5,44 L4,48 L3,49 L2,64 L1,69 L3,69 L3,64 L4,64 L4,70 L3,72 L5,72 L6,70 L6,73 L4,74 L6,76 L2,76 L2,74 L0,74 L0,72 L2,72 L2,70 L0,70 L0,64 L-2,64 L-2,44 L0,44 L0,40 L2,40 L2,34 L0,34 L0,24 L2,24 L2,16 L0,16 Z M5,24 Z " fill="#A38BE4" transform="translate(376,632)"/>
<path d="M0,0 L1,0 L1,5 L8,7 L8,9 L12,9 L16,14 L18,15 L18,19 L20,19 L20,23 L24,25 L27,30 L21,32 L20,29 L16,29 L13,24 L13,18 L6,19 L-2,18 L-2,20 L-4,20 L-4,18 L-10,18 L-11,11 L-11,8 L-13,8 L-14,2 L-11,2 L-11,5 L-8,6 L-8,8 L-4,7 L-3,7 L-4,2 L-3,5 L-1,5 Z " fill="#9D7DE3" transform="translate(638,415)"/>
<path d="M0,0 L2,0 L2,16 L-1,23 L-3,23 L-3,25 L-8,29 L-10,33 L-16,35 L-16,41 L-20,45 L-21,43 L-26,46 L-31,45 L-30,43 L-27,41 L-25,34 L-23,32 L-21,26 L-15,26 L-14,20 L-14,16 L-6,16 L-3,10 L-5,9 L0,4 L-2,3 Z M-3,4 Z " fill="#B4AAF8" transform="translate(657,566)"/>
<path d="M0,0 L6,2 L5,4 L-3,5 L-7,9 L-3,10 L-4,11 L-15,12 L-38,13 L-40,15 L-47,15 L-51,14 L-89,14 L-103,12 L-103,9 L-98,6 L-95,6 L-95,10 L-50,10 L-28,9 L-23,7 L-15,6 L-7,3 Z " fill="#ABAAF5" transform="translate(607,625)"/>
<path d="M0,0 L8,2 L12,3 L13,1 L18,2 L22,0 L28,1 L32,0 L36,2 L42,3 L38,5 L30,7 L30,10 L34,11 L28,13 L23,12 L20,13 L16,10 L18,10 L18,8 L20,8 L19,5 L11,6 L8,5 L-1,5 L-4,9 L4,8 L4,10 L6,11 L0,13 L-7,12 L-11,13 L-16,11 L-17,9 L-19,6 L-17,2 L-16,1 L-9,1 L-9,2 L-2,2 Z M6,9 Z " fill="#9C7BE6" transform="translate(412,376)"/>
<path d="M0,0 L1,0 L1,6 L3,6 L3,11 L2,15 L2,17 L-1,18 L-2,22 L-6,22 L-10,40 L-15,44 L-17,51 L-22,53 L-24,61 L-27,62 L-28,54 L-27,50 L-26,48 L-24,48 L-22,43 L-18,43 L-18,29 L-17,24 L-9,23 L-9,19 L-5,16 L-2,16 L-2,5 Z " fill="#B199F4" transform="translate(680,541)"/>
<path d="M0,0 L4,0 L4,2 L6,2 L6,4 L10,4 L11,10 L15,11 L16,15 L14,15 L15,20 L12,20 L12,22 L10,22 L10,28 L8,28 L8,44 L10,44 L10,54 L8,54 L8,58 L6,58 L6,56 L2,56 L2,54 L-2,54 L-2,48 L0,48 L0,36 L2,36 L2,40 L4,40 L2,34 L2,29 L4,29 L5,22 L7,22 L8,7 L9,5 L4,4 L1,5 L1,3 L3,3 L3,1 L0,2 Z M4,5 Z " fill="#17091F" transform="translate(758,388)"/>
<path d="M0,0 L4,0 L5,15 L3,15 L1,13 L1,17 L-2,17 L-2,22 L-4,22 L-4,24 L-6,24 L-6,32 L-10,32 L-10,34 L-18,34 L-18,32 L-20,32 L-20,26 L-24,24 L-28,20 L-28,18 L-34,18 L-34,17 L-26,16 L-26,18 L-17,18 L-16,23 L-10,23 L-11,16 L-4,13 Z " fill="#A78CE7" transform="translate(416,692)"/>
<path d="M0,0 L1,3 L3,3 L4,9 L4,19 L0,21 L-6,20 L-13,19 L-13,21 L-21,21 L-21,23 L-23,24 L-37,25 L-37,27 L-43,28 L-46,26 L-46,24 L-33,22 L-30,19 L-15,18 L-11,17 L-9,10 L-11,10 L-11,3 L-4,3 Z " fill="#A397F0" transform="translate(651,689)"/>
<path d="M0,0 L1,2 L0,4 L15,5 L15,7 L18,7 L19,13 L19,21 L18,23 L11,24 L1,22 L-1,15 L-1,1 Z " fill="#B397F4" transform="translate(389,675)"/>
<path d="M0,0 L4,2 L6,1 L15,3 L14,8 L25,9 L28,8 L29,6 L36,8 L39,9 L40,13 L41,22 L38,23 L38,21 L30,19 L29,21 L25,18 L21,19 L18,15 L18,12 L13,11 L13,9 L5,9 L5,15 L3,15 L3,9 L5,7 L4,6 L0,3 Z " fill="#A58BE6" transform="translate(358,600)"/>
<path d="M0,0 L15,1 L14,3 L2,4 L1,5 L-21,7 L-27,7 L-28,9 L-52,9 L-53,11 L-53,5 L-54,4 L-66,3 L-65,1 L-46,2 L-18,2 L-17,1 Z " fill="#928DE1" transform="translate(586,652)"/>
<path d="M0,0 L2,0 L2,8 L4,8 L4,14 L6,14 L6,20 L2,20 L2,22 L6,24 L6,30 L4,30 L4,32 L6,32 L6,38 L8,38 L8,50 L10,50 L10,59 L8,59 L8,54 L6,54 L6,48 L2,48 L2,52 L0,52 L0,48 L-2,48 L-2,34 L0,34 Z " fill="#190816" transform="translate(254,640)"/>
<path d="M0,0 L1,3 L-1,2 Z M-3,3 L-1,4 L-5,20 L-8,20 L-9,24 L-11,24 L-12,27 L-12,45 L-14,46 L-14,49 L-16,49 L-17,47 L-20,47 L-21,49 L-23,49 L-23,63 L-22,67 L-27,67 L-24,68 L-24,72 L-26,72 L-26,83 L-30,83 L-31,74 L-28,66 L-27,50 L-24,50 L-23,44 L-19,43 L-18,44 L-15,31 L-17,31 L-16,27 L-12,19 L-9,18 L-10,15 L-9,11 L-6,11 L-5,4 Z " fill="#A48DE6" transform="translate(687,564)"/>
<path d="M0,0 L1,0 L1,12 L-1,12 L0,16 L-1,28 L-3,28 L-3,46 L-1,46 L-1,58 L-2,58 L-2,47 L-4,47 L-4,53 L-6,52 L-6,49 L-8,49 L-8,47 L-12,48 L-13,52 L-21,50 L-20,46 L-22,46 L-20,42 L-19,46 L-17,46 L-16,44 L-14,44 L-12,38 L-9,38 L-9,26 L-5,25 L-5,16 L-4,16 L-4,27 L-2,27 L-3,14 L-2,12 L-4,12 L-5,14 L-5,8 L-4,8 L-3,1 L-2,1 L-2,11 L0,11 Z " fill="#9386DB" transform="translate(661,636)"/>
<path d="M0,0 L22,0 L22,1 L1,1 L1,3 L22,3 L20,7 L15,12 L2,12 L0,10 L5,7 L6,5 L-2,7 L-13,7 L-16,9 L-34,8 L-34,7 L-16,7 L-16,5 L-36,6 L-40,5 L-41,7 L-45,5 L-41,5 L-41,3 L-46,4 L-46,2 L-40,2 L-40,4 L-36,4 L-36,2 L-34,2 L-34,4 L-16,4 L-16,2 L0,2 Z " fill="#9071D3" transform="translate(448,360)"/>
<path d="M0,0 L2,1 L1,7 L3,7 L3,1 L4,1 L5,8 L3,8 L3,15 L11,14 L10,10 L12,10 L14,12 L15,12 L17,24 L15,24 L15,29 L17,29 L17,25 L20,25 L24,29 L27,29 L26,32 L24,33 L23,39 L25,39 L25,34 L30,35 L29,41 L31,41 L32,45 L29,45 L29,47 L35,46 L33,47 L34,50 L32,50 L32,48 L28,48 L26,43 L22,40 L22,34 L18,34 L14,30 L14,26 L6,26 L6,20 L4,20 L4,16 L2,16 L2,8 L0,8 Z " fill="#A789E1" transform="translate(338,576)"/>
<path d="M0,0 L2,1 L2,8 L4,12 L8,12 L9,14 L14,13 L15,15 L13,15 L13,26 L22,27 L25,40 L25,47 L22,44 L20,40 L20,35 L18,35 L18,32 L16,32 L16,29 L11,28 L11,26 L9,26 L8,18 L5,17 L4,15 L-1,15 L-6,16 L-5,3 L-7,3 L-6,1 Z " fill="#9F82E6" transform="translate(650,432)"/>
<path d="M0,0 L1,2 L-2,9 L-2,17 L-1,22 L2,23 L2,25 L-3,25 L-3,30 L-5,30 L-5,42 L-3,42 L-3,46 L-5,46 L-5,54 L-7,54 L-7,56 L-9,56 L-9,48 L-11,48 L-11,40 L-9,40 L-10,29 L-8,29 L-8,11 L-5,4 Z " fill="#14091F" transform="translate(753,650)"/>
<path d="M0,0 L4,0 L4,4 L12,4 L12,6 L28,6 L28,4 L30,4 L30,6 L34,7 L28,8 L12,7 L12,9 L28,9 L28,10 L12,10 L11,14 L-4,14 L-4,12 L-16,12 L-16,9 L-8,9 L-8,7 L-16,7 L-16,6 L-8,6 L-8,4 L-6,4 L-6,6 L-3,4 L0,4 Z " fill="#9389E1" transform="translate(572,674)"/>
<path d="M0,0 L1,3 L5,2 L9,4 L15,3 L15,5 L27,5 L27,3 L33,2 L37,5 L33,6 L31,6 L37,8 L36,12 L28,10 L24,12 L3,13 L1,7 L-5,8 L-5,6 L-1,6 Z M37,3 Z " fill="#C3BDFE" transform="translate(533,562)"/>
<path d="M0,0 L6,1 L6,7 L14,7 L14,11 L10,12 L1,11 L0,14 L14,15 L14,17 L-2,17 L-4,19 L-5,15 L-3,14 L-5,13 L-5,11 L-14,10 L-19,11 L-21,15 L-28,15 L-34,19 L-35,17 L-32,10 L-30,9 L-16,8 L-12,6 L-9,8 L0,8 Z " fill="#9A93E4" transform="translate(462,628)"/>
<path d="M0,0 L7,0 L9,3 L9,9 L14,10 L14,12 L19,13 L21,14 L22,19 L30,19 L30,21 L23,22 L14,21 L6,21 L5,16 L5,9 L-3,9 L-3,1 Z " fill="#9E99E6" transform="translate(471,626)"/>
<path d="M0,0 L2,0 L2,4 L4,4 L4,8 L6,8 L6,18 L4,18 L4,20 L6,20 L6,23 L8,23 L8,26 L4,26 L4,34 L2,34 L2,32 L0,32 L-2,25 L-4,24 L-2,18 L-4,18 L-4,10 L-8,10 L-8,6 L-4,6 L-4,4 L-2,4 Z " fill="#221034" transform="translate(744,388)"/>
<path d="M0,0 L5,4 L19,4 L36,6 L41,10 L37,10 L37,12 L42,12 L42,13 L36,13 L36,11 L8,11 L8,13 L4,13 L4,9 L0,7 L0,5 L-8,5 L-8,4 L0,4 Z " fill="#8476C3" transform="translate(568,721)"/>
<path d="M0,0 L3,3 L1,7 L2,10 L1,11 L0,19 L5,17 L6,12 L9,11 L10,15 L10,18 L11,20 L9,27 L15,28 L15,36 L10,35 L11,30 L4,30 L-1,28 L-2,16 L-1,9 L-6,9 L-6,4 L0,2 Z " fill="#AC92EE" transform="translate(362,573)"/>
<path d="M0,0 L6,0 L6,2 L4,2 L4,6 L2,6 L2,8 L6,8 L6,16 L4,16 L6,19 L6,22 L8,22 L8,24 L10,24 L10,44 L6,44 L6,36 L4,36 L4,22 L0,18 L0,14 L-2,14 L-2,4 L0,4 Z " fill="#15081C" transform="translate(772,424)"/>
<path d="M0,0 L5,0 L10,6 L10,12 L12,12 L14,17 L16,18 L17,21 L20,23 L23,36 L23,41 L26,42 L26,50 L23,46 L21,39 L19,39 L19,29 L16,28 L15,22 L11,21 L11,18 L3,17 L2,13 L4,4 L0,5 L-1,1 Z " fill="#A98EF1" transform="translate(649,446)"/>
<path d="M0,0 L1,0 L1,19 L6,19 L6,27 L8,27 L8,39 L6,39 L6,57 L5,59 L4,76 L3,76 L3,57 L1,57 L1,82 L0,82 L0,56 L2,56 L2,38 L4,38 L4,28 L2,28 L2,20 L0,20 Z " fill="#896CC8" transform="translate(340,424)"/>
<path d="M0,0 L7,1 L10,2 L11,4 L22,3 L23,5 L18,8 L14,12 L3,11 L-1,12 L-21,12 L-23,10 L-14,8 L-3,9 L-3,6 L1,6 L-3,2 Z " fill="#BBB0F4" transform="translate(609,520)"/>
<path d="M0,0 L1,2 L3,3 L0,4 L-5,4 L-10,9 L-16,10 L-16,12 L-18,13 L-28,14 L-40,14 L-43,13 L-47,14 L-48,12 L-46,11 L-28,11 L-29,7 L-26,5 L-22,4 L-14,4 L-9,1 Z M-30,8 Z " fill="#9E9BEA" transform="translate(616,634)"/>
<path d="M0,0 L2,0 L3,10 L7,10 L8,8 L10,8 L10,29 L12,30 L10,30 L10,55 L8,55 L8,41 L6,41 L5,32 L5,26 L4,22 L4,18 L1,15 Z " fill="#A186E5" transform="translate(679,485)"/>
<path d="M0,0 L2,0 L2,3 L6,4 L5,6 L8,6 L8,8 L12,8 L12,6 L17,5 L41,6 L45,8 L40,11 L6,11 L4,8 L4,5 L0,5 Z " fill="#A59AED" transform="translate(522,702)"/>
<path d="M0,0 L20,0 L23,3 L22,8 L20,9 L20,5 L16,5 L16,7 L8,7 L8,9 L-4,9 L-4,11 L-10,11 L-10,10 L-5,10 L-5,8 L-9,7 L-5,7 L-4,4 Z " fill="#9088D9" transform="translate(512,655)"/>
<path d="M0,0 L2,0 L2,2 L10,2 L10,4 L14,4 L14,2 L18,2 L18,4 L22,4 L22,2 L24,2 L24,4 L32,4 L32,0 L36,0 L35,4 L35,1 L33,1 L35,7 L32,9 L24,8 L24,7 L32,7 L32,5 L18,6 L10,5 L10,7 L1,8 L-15,7 L-15,9 L0,9 L-4,11 L-15,13 L-15,11 L-23,11 L-23,19 L-18,19 L-18,20 L-24,20 L-24,10 L-16,10 L-16,6 L0,6 Z " fill="#7F75BE" transform="translate(520,676)"/>
<path d="M0,0 L5,1 L9,11 L14,13 L16,16 L26,17 L26,19 L12,19 L12,21 L10,21 L10,25 L8,25 L8,23 L2,23 L2,21 L4,21 L4,19 L0,19 L0,17 L4,17 L5,10 L2,10 L2,8 L0,8 Z " fill="#130818" transform="translate(630,215)"/>
<path d="M0,0 L15,1 L17,2 L17,6 L12,6 L11,13 L7,12 L6,10 L-7,9 L-8,6 L-11,7 L-11,5 L-13,4 L-13,2 L-3,3 L-3,1 Z " fill="#B6ABFC" transform="translate(451,582)"/>
<path d="M0,0 L6,1 L10,1 L10,4 L15,3 L35,3 L35,5 L29,9 L15,9 L11,7 L10,10 L7,10 L7,8 L-4,9 L-4,7 L-1,7 L-1,4 L-3,4 L-3,2 Z " fill="#9876E1" transform="translate(397,362)"/>
<path d="M0,0 L3,0 L3,6 L1,6 L-1,11 L1,11 L1,18 L-2,21 L-5,30 L-8,30 L-10,16 L-7,8 L-4,8 L-2,2 Z " fill="#AA95EC" transform="translate(668,584)"/>
<path d="M0,0 L1,0 L1,24 L4,25 L2,25 L3,44 L1,44 L1,48 L3,49 L3,64 L1,64 L1,67 L3,67 L4,65 L3,70 L2,68 L0,68 L0,64 L-2,64 L-2,48 L0,48 L0,44 L-2,44 L-2,24 L0,24 Z " fill="#9377CB" transform="translate(338,506)"/>
<path d="M0,0 L1,0 L1,14 L7,14 L7,16 L9,16 L9,24 L7,24 L7,36 L9,36 L9,58 L8,58 L8,37 L5,38 L2,37 L1,24 L-1,17 Z " fill="#836CBD" transform="translate(681,456)"/>
<path d="M0,0 L4,0 L2,9 L1,13 L3,13 L4,9 L4,32 L1,36 L2,48 L-1,49 L-2,34 L-2,26 L-1,21 L-2,17 L-2,6 L-4,6 L-4,4 L1,4 Z M0,42 Z " fill="#A989EE" transform="translate(370,444)"/>
<path d="M0,0 L3,0 L3,4 L9,5 L57,5 L76,4 L90,3 L95,3 L94,5 L83,6 L60,7 L58,9 L51,9 L47,8 L9,8 L-5,6 L-5,3 Z " fill="#A8A6F2" transform="translate(509,631)"/>
<path d="M0,0 L3,3 L4,13 L7,19 L7,21 L11,22 L9,16 L8,14 L13,14 L13,33 L15,34 L12,34 L7,33 L7,37 L5,37 L5,32 L5,28 L4,21 L3,21 L2,15 L0,15 L0,8 L-2,8 L-1,3 Z " fill="#AB8DE9" transform="translate(348,568)"/>
<path d="M0,0 L2,4 L4,5 L1,6 L-5,5 L-5,7 L-8,8 L-22,9 L-26,11 L-47,10 L-47,8 L-26,8 L-26,5 L-24,5 L-24,3 L-6,3 L-6,1 Z " fill="#8F71CF" transform="translate(496,353)"/>
<path d="M0,0 L2,1 L5,2 L9,3 L9,7 L11,7 L11,9 L19,8 L19,15 L21,15 L20,6 L23,3 L23,5 L25,5 L26,2 L26,6 L24,6 L24,8 L22,8 L22,16 L18,16 L18,18 L10,18 L10,16 L8,16 L8,10 L4,8 L0,4 L0,2 L-6,2 L-6,1 Z " fill="#9C82D3" transform="translate(388,708)"/>
<path d="M0,0 L2,0 L2,10 L5,10 L5,20 L3,20 L3,24 L1,24 L1,22 L-3,22 L-3,20 L-7,20 L-7,14 L-5,14 L-5,2 L-3,2 L-3,6 L0,6 Z " fill="#1D0D2B" transform="translate(763,422)"/>
<path d="M0,0 L4,0 L4,2 L8,2 L12,7 L14,8 L14,12 L16,12 L16,16 L20,18 L23,23 L17,25 L16,22 L12,22 L9,17 L9,11 L2,8 L1,3 L3,3 L3,1 Z " fill="#9072D3" transform="translate(642,422)"/>
<path d="M0,0 L22,1 L22,2 L4,2 L4,4 L24,3 L24,8 L22,7 L22,5 L4,5 L4,7 L2,7 L2,5 L-10,5 L-10,7 L-18,7 L-18,5 L-42,5 L-42,4 L-18,4 L-17,1 Z " fill="#8580CF" transform="translate(576,657)"/>
<path d="M0,0 L32,0 L32,5 L37,5 L37,6 L3,6 L4,1 L0,2 Z " fill="#9C98E9" transform="translate(528,647)"/>
<path d="M0,0 L1,0 L1,5 L3,5 L3,0 L4,0 L4,6 L2,6 L2,10 L0,10 L0,18 L-2,18 L-2,20 L0,20 L0,22 L-2,22 L-2,24 L-6,24 L-6,28 L-8,28 L-9,32 L-9,28 L-11,28 L-12,31 L-12,27 L-10,27 L-9,25 L-9,27 L-7,27 L-9,23 L-8,9 L-6,9 L-5,6 L-1,7 L-1,9 L1,9 Z " fill="#9A84DA" transform="translate(672,604)"/>
<path d="M0,0 L4,1 L1,1 L1,3 L5,4 L0,9 L-5,12 L-10,14 L-13,18 L-15,18 L-15,16 L-17,16 L-16,18 L-16,24 L-19,23 L-19,21 L-23,22 L-22,20 L-20,20 L-20,18 L-18,18 L-18,16 L-20,16 L-20,14 L-18,14 L-18,12 L-14,12 L-14,10 L-12,10 L-12,4 L-10,4 L-10,6 L-4,6 L-4,2 L0,2 Z " fill="#9071D3" transform="translate(392,368)"/>
<path d="M0,0 L1,0 L1,8 L3,8 L3,11 L1,11 L1,18 L-1,18 L-1,20 L-3,20 L-3,22 L-1,22 L-1,24 L-8,23 L-9,26 L-9,21 L-4,21 L-4,19 L-8,18 L-9,8 L-8,4 L-7,2 L-5,2 L-5,4 L-2,4 L-1,8 Z " fill="#10061B" transform="translate(759,654)"/>
<path d="M0,0 L8,0 L8,2 L33,2 L33,6 L24,10 L22,13 L15,13 L17,10 L20,10 L20,7 L12,7 L6,6 L0,5 Z " fill="#A07FE3" transform="translate(532,359)"/>
<path d="M0,0 L1,4 L-3,6 L-4,12 L-5,17 L-8,17 L-8,24 L-11,26 L-14,33 L-16,37 L-14,37 L-15,48 L-17,51 L-21,50 L-20,46 L-18,44 L-17,37 L-19,37 L-17,32 L-15,32 L-15,23 L-12,16 L-7,14 L-6,8 L-4,8 L-4,5 L-2,5 L-1,1 Z " fill="#A990EC" transform="translate(686,558)"/>
<path d="M0,0 L4,1 L1,1 L1,3 L4,4 L2,4 L1,8 L1,5 L-1,5 L0,9 L-3,9 L-3,21 L-4,25 L-4,54 L-5,65 L-3,65 L-3,54 L-2,54 L-2,74 L-4,74 L-4,66 L-6,66 L-6,54 L-8,54 L-8,36 L-6,36 L-6,20 L-4,20 L-4,8 L-2,8 L-2,4 L0,4 Z " fill="#13111D" transform="translate(666,628)"/>
<path d="M0,0 L5,1 L6,0 L14,0 L16,1 L15,5 L3,5 L1,8 L-23,8 L-23,7 L-17,6 L-15,2 L-5,3 L-1,1 Z " fill="#948BE7" transform="translate(625,681)"/>
<path d="M0,0 L8,2 L11,3 L12,7 L13,16 L10,17 L10,15 L4,13 L4,11 L1,11 L1,7 L-6,7 L-6,5 L-8,5 L-8,3 L-3,3 L0,2 Z " fill="#AA9BF3" transform="translate(386,606)"/>
<path d="M0,0 L22,0 L22,5 L10,7 L9,8 L-6,8 L-7,2 L0,2 Z " fill="#968BE0" transform="translate(530,681)"/>
<path d="M0,0 L1,0 L1,26 L3,26 L3,50 L1,50 L1,56 L-1,56 L-1,64 L-2,64 L-2,56 L-5,55 L-3,55 L-3,49 L-1,49 L-1,26 Z " fill="#9179CD" transform="translate(691,514)"/>
<path d="M0,0 L8,0 L9,2 L13,3 L14,12 L16,12 L17,17 L15,20 L12,20 L12,18 L10,18 L11,21 L9,21 L8,14 L4,14 L4,12 L7,12 L6,8 L4,8 L5,2 L0,1 Z " fill="#A087E1" transform="translate(363,609)"/>
<path d="M0,0 L2,0 L2,6 L-3,8 L-4,12 L-5,13 L-6,28 L-7,33 L-5,33 L-5,28 L-4,28 L-4,34 L-5,36 L-3,36 L-2,34 L-2,37 L-4,38 L-2,40 L-6,40 L-6,38 L-8,38 L-8,36 L-6,36 L-6,34 L-8,34 L-8,28 L-10,28 L-10,8 L-8,8 L-7,4 L-5,5 L-5,7 L0,6 Z " fill="#9C81D7" transform="translate(384,668)"/>
<path d="M0,0 L9,1 L8,7 L14,7 L14,5 L20,6 L21,4 L24,4 L23,8 L19,10 L16,10 L15,8 L15,13 L10,12 L10,10 L5,10 L3,13 L1,10 L-2,11 L-3,8 L0,8 L0,6 L-4,4 Z " fill="#B796FD" transform="translate(512,414)"/>
<path d="M0,0 L12,0 L18,3 L19,6 L21,7 L22,13 L19,18 L12,18 L10,17 L10,15 L8,15 L8,17 L5,18 L5,16 L7,16 L7,14 L9,14 L9,12 L7,12 L7,10 L11,11 L13,13 L17,14 L17,8 L12,7 L11,4 L-1,4 L-1,3 L11,3 L11,1 L0,1 Z " fill="#847DCE" transform="translate(601,662)"/>
<path d="M0,0 L6,2 L6,5 L16,6 L16,7 L6,7 L6,9 L17,9 L17,10 L5,10 L5,8 L1,8 L1,10 L-17,10 L-17,8 L-21,7 L-17,6 L-3,6 L-2,2 Z " fill="#9186D6" transform="translate(543,718)"/>
<path d="M0,0 L2,0 L2,2 L0,3 L-20,5 L-53,5 L-54,4 L-66,3 L-65,1 L-46,2 L-18,2 L-17,1 Z " fill="#9590E3" transform="translate(586,652)"/>
<path d="M0,0 L2,0 L3,8 L6,9 L13,8 L13,11 L16,9 L19,10 L15,12 L15,14 L19,15 L19,19 L15,19 L15,17 L11,18 L10,17 L3,16 L0,10 L-1,6 Z " fill="#B9B6FE" transform="translate(483,600)"/>
<path d="M0,0 L12,3 L8,5 L0,7 L0,10 L4,11 L-2,13 L-7,12 L-10,13 L-14,10 L-12,10 L-12,8 L-10,8 L-10,4 Z " fill="#9E7DE8" transform="translate(442,376)"/>
<path d="M0,0 L4,1 L4,9 L6,9 L6,11 L1,12 L1,18 L-1,18 L-1,25 L-5,27 L-8,26 L-8,24 L-4,24 L-4,18 L-6,18 L-6,16 L-4,16 L-4,2 L-2,2 L-2,8 L0,8 Z " fill="#1E1033" transform="translate(744,626)"/>
<path d="M0,0 L2,0 L2,4 L4,4 L4,6 L6,6 L6,14 L4,14 L4,16 L2,16 L2,20 L0,20 L0,22 L-2,22 L-2,18 L-4,18 L-4,16 L-6,16 L-6,12 L-4,12 L-4,10 L-2,10 L-2,4 L0,4 Z " fill="#19081D" transform="translate(270,350)"/>
<path d="M0,0 L1,3 L5,2 L9,4 L15,3 L15,5 L27,5 L27,3 L33,2 L37,5 L33,6 L29,7 L26,8 L25,10 L15,10 L13,7 L3,7 L-5,8 L-5,6 L-1,6 Z M37,3 Z " fill="#BFB8FE" transform="translate(533,562)"/>
<path d="M0,0 L15,0 L14,4 L18,4 L18,7 L16,7 L15,10 L8,10 L2,12 L4,6 L0,5 Z " fill="#C5B2FC" transform="translate(498,512)"/>
<path d="M0,0 L2,0 L2,5 L4,6 L0,10 L-1,15 L-3,15 L-5,24 L-8,29 L-9,37 L-11,37 L-12,29 L-14,28 L-14,26 L-10,26 L-10,24 L-13,23 L-9,22 L-8,21 L-7,14 L-5,14 L-5,8 L0,7 L0,5 L-2,4 L0,4 Z " fill="#1A0C2B" transform="translate(750,630)"/>
<path d="M0,0 L3,0 L7,4 L10,4 L9,7 L7,8 L6,14 L8,14 L8,9 L13,10 L12,16 L14,16 L15,20 L12,20 L12,22 L18,21 L16,22 L17,25 L15,25 L15,23 L11,23 L9,18 L5,15 L5,9 L1,9 L-3,5 L-2,1 L-2,4 L0,4 Z " fill="#927ACF" transform="translate(355,601)"/>
<path d="M0,0 L8,0 L8,6 L10,6 L10,8 L12,8 L12,14 L14,14 L13,16 L10,14 L10,10 L9,14 L7,15 L9,16 L8,18 L2,17 L-1,13 L0,10 L-1,3 L5,3 L5,6 L7,6 L7,1 L0,1 Z " fill="#9C7BE3" transform="translate(628,406)"/>
<path d="M0,0 L11,1 L7,5 L0,5 L-2,7 L-10,8 L-12,11 L-15,8 L-17,7 L-16,5 L-13,5 L-13,3 L-15,3 L-15,1 Z " fill="#B694FB" transform="translate(561,416)"/>
<path d="M0,0 L1,0 L1,15 L3,15 L3,0 L5,2 L4,8 L6,8 L5,16 L7,17 L6,24 L5,25 L5,34 L3,34 L3,40 L2,40 L2,34 L0,34 L0,24 L2,24 L2,16 L0,16 Z " fill="#8E78CA" transform="translate(376,632)"/>
<path d="M0,0 L2,1 L2,3 L26,4 L26,5 L7,6 L6,11 L37,12 L37,13 L23,14 L7,14 L2,12 L2,10 L-2,8 L0,8 L0,6 L-4,5 L0,4 Z " fill="#C6BBF7" transform="translate(538,508)"/>
<path d="M0,0 L1,4 L3,4 L3,10 L9,10 L9,14 L15,14 L15,24 L9,24 L9,22 L4,22 L8,21 L8,19 L5,19 L4,17 L4,11 L2,11 L1,6 L-1,5 Z " fill="#13071A" transform="translate(711,310)"/>
<path d="M0,0 L5,1 L5,5 L19,4 L17,9 L-1,10 L-3,9 L-4,2 Z M19,3 Z " fill="#998DDE" transform="translate(523,715)"/>
<path d="M0,0 L5,1 L5,5 L11,5 L14,10 L12,10 L11,14 L10,8 L5,8 L7,10 L6,14 L0,14 L-2,13 L-2,2 L0,2 Z " fill="#A081E2" transform="translate(665,445)"/>
<path d="M0,0 L2,0 L2,26 L0,26 L0,22 L-4,22 L-4,2 L-2,2 L-2,6 L0,6 Z " fill="#19081B" transform="translate(252,450)"/>
<path d="M0,0 L7,1 L7,4 L5,4 L3,9 L-2,14 L-5,17 L-8,20 L-8,12 L-6,10 L-4,3 L-1,2 Z " fill="#A484E8" transform="translate(360,412)"/>
<path d="M0,0 L3,0 L0,21 L-2,25 L-3,28 L-5,29 L-7,37 L-10,38 L-11,30 L-10,26 L-9,24 L-7,24 L-5,19 L-1,19 L-1,5 Z " fill="#B29EF6" transform="translate(663,565)"/>
<path d="M0,0 L13,1 L14,6 L21,6 L21,7 L14,7 L14,9 L24,8 L26,11 L22,11 L22,13 L25,14 L21,14 L21,10 L13,10 L13,8 L1,8 L1,10 L-1,10 L-1,8 L-3,8 L-3,10 L-5,9 L-3,6 L13,7 L13,5 L1,5 L-1,4 Z " fill="#958FDC" transform="translate(463,638)"/>
<path d="M0,0 L5,0 L5,4 L11,5 L12,11 L16,12 L15,19 L12,19 L12,12 L9,12 L9,9 L6,9 L6,7 L-1,7 L-4,12 L-5,8 L-6,5 L0,4 Z " fill="#C2AEF9" transform="translate(596,475)"/>
<path d="M0,0 L1,0 L2,11 L7,12 L9,21 L9,26 L5,26 L4,28 L4,26 L1,25 L4,24 L1,23 L1,20 L-1,20 Z " fill="#A98CE7" transform="translate(378,681)"/>
<path d="M0,0 L6,0 L6,4 L4,4 L4,12 L2,12 L2,14 L0,14 L0,6 L-2,6 L-2,12 L-4,12 L-4,22 L-6,22 L-6,16 L-8,16 L-8,14 L-6,14 L-6,10 L-4,10 L-4,4 L-2,4 L-2,2 L0,2 Z " fill="#18081B" transform="translate(284,320)"/>
<path d="M0,0 L2,0 L2,2 L14,3 L25,2 L29,4 L22,5 L19,5 L15,6 L11,8 L5,8 L1,7 L-7,7 L-3,6 L-2,2 L0,2 Z " fill="#8D84E1" transform="translate(609,677)"/>
<path d="M0,0 L1,4 L5,6 L5,22 L7,22 L7,30 L5,30 L5,40 L7,40 L7,46 L5,46 L4,50 L3,47 L3,22 L4,10 L2,10 L-1,5 Z " fill="#161220" transform="translate(371,626)"/>
<path d="M0,0 L10,0 L4,7 L0,8 L-10,8 L-12,6 L-7,3 L-6,1 Z " fill="#9A79DF" transform="translate(460,364)"/>
<path d="M0,0 L26,0 L26,2 L34,2 L34,4 L52,4 L52,10 L51,10 L51,5 L34,5 L34,7 L25,6 L25,4 L6,4 L6,3 L25,3 L25,1 L0,1 Z " fill="#876BC1" transform="translate(540,360)"/>
<path d="M0,0 L24,0 L24,3 L16,5 L0,6 Z " fill="#B899FD" transform="translate(448,428)"/>
<path d="M0,0 L1,0 L1,7 L3,7 L3,0 L4,0 L4,8 L2,8 L2,16 L0,16 L0,20 L-2,20 L-2,28 L-4,28 L-4,36 L-8,36 L-8,38 L-12,37 L-9,37 L-10,33 L-7,33 L-7,35 L-5,35 L-6,28 L-6,18 L-3,17 L-3,19 L-1,19 L-2,16 L-2,8 L-1,8 L-1,15 L1,15 L0,8 Z " fill="#8E76CB" transform="translate(426,672)"/>
<path d="M0,0 L7,0 L11,0 L18,1 L22,1 L22,5 L28,5 L29,2 L29,6 L21,6 L21,4 L19,4 L19,6 L15,6 L15,4 L11,4 L11,6 L7,6 L7,4 L-1,4 Z " fill="#0E0D15" transform="translate(523,674)"/>
<path d="M0,0 L1,0 L1,8 L3,8 L3,16 L1,16 L1,26 L-1,26 L-1,30 L-3,30 L-3,32 L-19,32 L-19,31 L-6,30 L-19,29 L-19,28 L-4,27 L-4,29 L-2,29 L-3,23 L-2,25 L0,25 L0,16 L-2,16 L-3,18 L-3,15 L-1,15 L-1,9 L-3,8 L0,8 Z " fill="#8274BE" transform="translate(661,694)"/>
<path d="M0,0 L5,0 L1,7 L-5,9 L-5,15 L-9,19 L-11,17 L-11,9 L-8,8 L-6,4 Z " fill="#ADA6F4" transform="translate(646,592)"/>
<path d="M0,0 L2,0 L2,2 L4,2 L4,0 L6,0 L6,2 L16,2 L16,4 L18,4 L17,8 L16,6 L12,7 L-4,6 L-7,5 L-8,8 L-8,4 L-4,4 L-4,2 L0,2 Z " fill="#14081C" transform="translate(692,302)"/>
<path d="M0,0 L2,3 L1,11 L-3,12 L-3,15 L-8,17 L-13,18 L-12,13 L-12,9 L-4,9 L-1,3 L-3,2 Z " fill="#BBB0FD" transform="translate(655,573)"/>
<path d="M0,0 L17,0 L17,3 L22,3 L21,5 L-3,5 L-4,3 L-1,3 Z " fill="#B7B7FE" transform="translate(517,622)"/>
<path d="M0,0 L4,0 L4,6 L8,8 L16,16 L15,18 L12,19 L6,16 L1,11 L3,1 Z " fill="#896CC6" transform="translate(592,370)"/>
<path d="M0,0 L2,0 L3,5 L3,18 L2,20 L1,37 L0,37 L0,18 L-2,18 L-2,43 L-3,43 L-3,17 L0,17 Z " fill="#9071D2" transform="translate(343,463)"/>
<path d="M0,0 L3,4 L6,10 L8,11 L9,18 L8,15 L2,15 L3,24 L1,27 L0,31 L-1,31 L-2,22 L0,18 L0,11 L2,11 L2,6 L0,6 Z " fill="#AC91EF" transform="translate(671,489)"/>
<path d="M0,0 L7,1 L7,4 L12,5 L13,11 L15,12 L15,22 L13,20 L11,21 L12,13 L8,12 L7,6 L1,5 L1,2 L-1,1 Z " fill="#AD92F8" transform="translate(653,463)"/>
<path d="M0,0 L1,0 L1,8 L3,9 L3,15 L6,16 L3,19 L1,19 L0,27 L-1,27 L-4,17 L-2,16 L-2,8 L-6,7 L-5,3 L-2,3 L-2,5 L0,5 Z " fill="#9F8DE7" transform="translate(397,625)"/>
<path d="M0,0 L7,0 L9,3 L9,9 L-3,9 L-3,1 Z " fill="#9F9DE8" transform="translate(471,626)"/>
<path d="M0,0 L2,0 L2,2 L0,2 L0,4 L-5,5 L-7,9 L-14,9 L-20,13 L-21,11 L-18,4 L-16,3 L-2,2 Z " fill="#9B8DE4" transform="translate(448,634)"/>
<path d="M0,0 L4,0 L4,4 L12,4 L12,6 L28,6 L28,4 L30,4 L30,6 L34,7 L28,8 L12,7 L12,9 L28,9 L28,10 L11,10 L11,8 L4,8 L4,7 L11,7 L11,5 L3,5 L3,7 L1,7 L1,5 L-3,4 L0,4 Z " fill="#847CCC" transform="translate(572,674)"/>
<path d="M0,0 L3,1 L3,13 L-2,17 L-7,16 L-5,12 L-3,5 L-1,5 Z " fill="#B9A6FB" transform="translate(657,511)"/>
<path d="M0,0 L4,0 L4,2 L6,2 L7,0 L7,3 L9,4 L4,3 L4,5 L6,6 L2,7 L-1,8 L-3,7 L-2,9 L-2,15 L-5,16 L-7,15 L-7,17 L-9,17 L-9,22 L-10,22 L-10,16 L-8,16 L-8,14 L-6,14 L-6,8 L-4,8 L-4,6 L-2,6 L-1,1 Z " fill="#886BC6" transform="translate(362,390)"/>
<path d="M0,0 L6,0 L6,2 L10,2 L10,4 L6,8 L4,8 L4,12 L-2,12 L-2,8 L-4,8 L-4,4 L4,4 L4,2 L0,2 Z " fill="#1A0A20" transform="translate(306,304)"/>
<path d="M0,0 L4,0 L5,4 L0,9 L-1,18 L-6,20 L-10,18 L-6,15 L-4,8 L-2,6 Z " fill="#B1ACF9" transform="translate(636,592)"/>
<path d="M0,0 L6,0 L6,2 L10,2 L10,0 L12,0 L12,2 L30,2 L30,0 L46,0 L46,1 L31,1 L31,3 L33,3 L31,7 L12,6 L12,5 L30,5 L30,3 L10,4 L6,3 L5,5 L1,3 L5,3 L5,1 L0,2 Z " fill="#8669C6" transform="translate(402,362)"/>
<path d="M0,0 L12,0 L14,3 L18,4 L18,10 L13,9 L11,7 L4,6 L4,1 Z " fill="#161523" transform="translate(600,666)"/>
<path d="M0,0 L4,1 L1,1 L1,3 L5,4 L1,4 L1,6 L-3,6 L-3,8 L-5,8 L-5,10 L-8,12 L-9,28 L-10,28 L-11,12 L-12,7 L-9,6 L-9,4 L-4,3 L0,5 L0,3 L-3,2 L0,2 Z " fill="#8879CA" transform="translate(441,644)"/>
<path d="M0,0 L1,0 L1,36 L-2,36 L-3,3 L-1,3 Z M-1,31 Z " fill="#AA87EE" transform="translate(347,535)"/>
<path d="M0,0 L2,0 L2,3 L4,3 L5,0 L5,4 L1,4 L1,6 L-3,6 L-3,8 L-5,8 L-5,6 L-7,6 L-7,8 L-9,8 L-9,6 L-11,6 L-11,8 L-13,8 L-13,6 L-15,6 L-15,8 L-17,8 L-17,6 L-19,6 L-19,8 L-25,8 L-25,7 L-20,7 L-21,1 L-17,3 L-19,3 L-19,5 L-15,4 L-13,5 L-13,3 L-11,3 L-11,5 L-5,5 L-5,2 L0,2 Z " fill="#8475C2" transform="translate(637,726)"/>
<path d="M0,0 L2,2 L-1,6 L-6,6 L-6,9 L-12,9 L-12,7 L-16,7 L-15,3 L-8,1 L-3,1 L0,2 Z " fill="#9487DF" transform="translate(638,722)"/>
<path d="M0,0 L8,0 L11,1 L14,1 L15,4 L17,4 L18,11 L14,10 L14,8 L10,8 L10,6 L6,6 L6,2 L3,4 L0,4 Z " fill="#190A24" transform="translate(682,320)"/>
<path d="M0,0 L1,0 L2,30 L1,30 L1,25 L-1,25 L0,30 L0,44 L-3,43 L-3,48 L-4,48 L-4,42 L-2,42 L-2,38 L-4,38 L-4,30 L-2,30 L-2,24 L0,24 Z " fill="#16121F" transform="translate(694,540)"/>
<path d="M0,0 L1,2 L1,44 L-1,44 L-1,22 L-3,22 L-3,10 L-1,10 L-1,2 L-3,1 Z " fill="#14101D" transform="translate(691,470)"/>
<path d="M0,0 L5,4 L19,4 L36,6 L36,7 L18,7 L5,6 L5,8 L0,7 L0,5 L-8,5 L-8,4 L0,4 Z " fill="#9285D8" transform="translate(568,721)"/>
<path d="M0,0 L3,0 L5,0 L5,3 L9,4 L13,9 L12,11 L7,12 L6,9 L2,9 L-1,4 Z " fill="#9D7FE4" transform="translate(652,435)"/>
<path d="M0,0 L1,0 L1,7 L3,7 L3,0 L4,0 L4,8 L2,8 L2,10 L4,10 L4,12 L2,12 L2,14 L-2,14 L-2,18 L-4,18 L-5,22 L-5,18 L-7,18 L-8,21 L-8,17 L-6,17 L-5,15 L-5,17 L-3,17 L-4,11 L-2,5 L0,5 Z " fill="#8E79CA" transform="translate(668,614)"/>
<path d="M0,0 L7,1 L11,6 L11,9 L9,9 L8,11 L8,9 L6,9 L5,11 L2,10 L-1,4 Z " fill="#8C6DCE" transform="translate(619,395)"/>
<path d="M0,0 L16,0 L16,1 L5,1 L5,3 L15,3 L15,5 L9,6 L0,9 L-8,9 L-5,8 L-5,6 L3,6 Z " fill="#8E70CC" transform="translate(496,352)"/>
<path d="M0,0 L5,0 L10,6 L10,12 L12,12 L11,14 L4,12 L4,4 L0,5 L-1,1 Z " fill="#A488EE" transform="translate(649,446)"/>
<path d="M0,0 L4,0 L5,15 L3,15 L1,13 L0,15 L-2,15 L-2,7 Z " fill="#A388E6" transform="translate(416,692)"/>
<path d="M0,0 L8,0 L8,3 L20,3 L20,4 L8,4 L8,6 L0,6 L0,4 L-24,4 L-24,3 L0,3 Z " fill="#7D76C0" transform="translate(558,658)"/>
<path d="M0,0 L4,2 L2,6 L-7,7 L-7,5 L-24,6 L-24,5 L-18,3 L-6,2 Z " fill="#8F8BDC" transform="translate(606,652)"/>
<path d="M0,0 L15,1 L17,2 L17,6 L12,6 L10,8 L5,6 L4,4 L-3,3 L-3,1 Z " fill="#BCB1FE" transform="translate(451,582)"/>
<path d="M0,0 L2,0 L3,8 L2,10 L2,24 L3,26 L-2,26 L-2,7 L0,7 Z " fill="#A382E7" transform="translate(343,417)"/>
<path d="M0,0 L5,0 L4,3 L11,4 L12,5 L25,6 L25,8 L18,9 L9,8 L1,8 Z " fill="#9E96E6" transform="translate(476,639)"/>
<path d="M0,0 L1,0 L1,6 L-1,11 L-4,12 L-6,18 L-9,18 L-8,6 L-3,3 Z " fill="#130A22" transform="translate(764,616)"/>
<path d="M0,0 L3,0 L3,12 L6,12 L6,34 L5,34 L5,13 L2,14 L-1,13 L-1,1 Z " fill="#8F76CF" transform="translate(684,480)"/>
<path d="M0,0 L4,1 L1,1 L1,3 L5,4 L0,9 L-5,12 L-9,11 L-6,10 L-11,9 L-11,6 L-4,6 L-4,2 L0,2 Z " fill="#9172D4" transform="translate(392,368)"/>
<path d="M0,0 L1,0 L1,10 L-1,10 L-1,12 L1,12 L1,18 L-2,20 L-3,26 L-5,26 L-5,34 L-6,34 L-6,25 L-4,25 L-5,17 L-4,14 L-5,11 L-2,8 L0,9 Z " fill="#0E0519" transform="translate(767,620)"/>
<path d="M0,0 L3,1 L1,5 L3,6 L1,8 L-9,9 L-8,2 L-4,1 Z " fill="#AFADF8" transform="translate(610,618)"/>
<path d="M0,0 L8,0 L8,3 L14,4 L14,7 L17,7 L17,10 L20,11 L19,14 L18,12 L12,10 L12,8 L9,8 L9,4 L2,4 L2,2 L0,2 Z " fill="#A896EE" transform="translate(378,609)"/>
<path d="M0,0 L2,1 L1,7 L3,7 L3,1 L4,1 L5,8 L3,8 L3,15 L8,15 L10,19 L10,22 L14,23 L9,23 L9,20 L7,20 L7,25 L14,25 L14,26 L6,26 L6,20 L4,20 L4,16 L2,16 L2,8 L0,8 Z " fill="#8A6FBD" transform="translate(338,576)"/>
<path d="M0,0 L4,1 L4,8 L6,9 L-4,10 L-7,7 L-5,7 L-3,3 Z " fill="#BDB3F4" transform="translate(528,522)"/>
<path d="M0,0 L3,1 L4,3 L5,16 L3,16 L3,19 L5,19 L6,17 L5,22 L4,20 L2,20 L2,16 L0,16 Z " fill="#977BD0" transform="translate(336,554)"/>
<path d="M0,0 L17,1 L17,2 L3,3 L-1,5 L-22,4 L-22,2 L-1,1 Z " fill="#A07EEA" transform="translate(471,359)"/>
<path d="M0,0 L30,1 L30,3 L2,3 L2,5 L-1,5 Z " fill="#9F8FEA" transform="translate(574,728)"/>
<path d="M0,0 L4,0 L4,9 L2,10 L2,13 L-3,12 L-3,8 L-5,6 L-3,6 L-2,2 Z " fill="#9F8CE5" transform="translate(657,710)"/>
<path d="M0,0 L8,0 L7,3 L3,7 L4,10 L7,11 L7,16 L5,16 L3,12 L-2,11 L-2,7 L0,7 Z " fill="#BBA5F8" transform="translate(620,485)"/>
<path d="M0,0 L1,4 L-1,4 L-1,10 L-3,10 L-3,12 L-5,12 L-5,14 L-9,14 L-9,16 L-11,16 L-11,18 L-13,18 L-13,26 L-14,26 L-15,17 L-13,11 L-9,12 L-6,13 L-6,9 L-2,9 L-2,4 L-5,3 L-3,3 L-2,1 L-2,3 L0,3 Z " fill="#866EBE" transform="translate(691,578)"/>
<path d="M0,0 L3,0 L3,3 L7,3 L7,7 L10,7 L11,14 L9,14 L9,12 L3,12 L2,5 L2,2 L0,2 Z " fill="#A586EA" transform="translate(625,421)"/>
<path d="M0,0 L2,0 L2,2 L4,2 L4,4 L11,4 L11,8 L14,8 L14,10 L12,10 L11,12 L7,9 L3,10 Z " fill="#A490E9" transform="translate(376,609)"/>
<path d="M0,0 L1,0 L1,8 L3,8 L3,18 L1,18 L1,36 L0,36 L-1,8 Z " fill="#14101E" transform="translate(341,444)"/>
<path d="M0,0 L2,0 L2,17 L7,18 L7,20 L5,20 L5,23 L3,23 L3,21 L1,21 L1,17 L-1,17 L-1,15 L-5,13 L0,13 Z " fill="#1C0C29" transform="translate(755,397)"/>
<path d="M0,0 L1,0 L1,6 L3,6 L2,10 L-5,10 L-7,9 L-7,7 L-9,7 L-9,9 L-12,10 L-12,8 L-10,8 L-10,6 L-8,6 L-8,4 L-10,4 L-10,2 L-6,3 L-4,5 L0,6 Z " fill="#857DD3" transform="translate(618,670)"/>
<path d="M0,0 L2,0 L2,2 L4,2 L4,0 L6,0 L6,2 L16,2 L16,4 L24,4 L24,5 L16,5 L15,8 L12,9 L12,7 L7,7 L6,5 L15,5 L15,3 L0,4 L-3,3 L-2,1 L0,2 Z " fill="#9073CE" transform="translate(516,354)"/>
<path d="M0,0 L8,0 L12,4 L12,8 L8,8 L7,4 L-12,3 L-12,2 L0,2 Z " fill="#0F0E16" transform="translate(560,726)"/>
<path d="M0,0 L10,0 L9,5 L-4,5 L-5,1 Z " fill="#978AE0" transform="translate(645,717)"/>
<path d="M0,0 L4,0 L5,6 L7,6 L8,12 L3,12 L3,7 L-1,6 L-2,2 L0,2 Z " fill="#080207" transform="translate(264,700)"/>
<path d="M0,0 L8,0 L8,6 L10,6 L10,8 L12,8 L12,14 L14,14 L13,16 L10,14 L10,10 L9,14 L7,14 L5,8 L1,6 L0,3 L5,3 L5,6 L7,6 L7,1 L0,1 Z " fill="#8568C3" transform="translate(628,406)"/>
<path d="M0,0 L3,0 L3,3 L6,4 L6,6 L10,5 L13,7 L13,12 L15,12 L15,16 L12,16 L11,11 L8,11 L8,7 L4,7 L4,4 L0,4 Z " fill="#A181E7" transform="translate(624,417)"/>
<path d="M0,0 L3,0 L3,2 L8,3 L8,6 L6,6 L6,10 L4,10 L4,8 L-2,8 L-2,6 L0,6 L0,4 L-4,4 L-4,2 L0,2 Z " fill="#15091E" transform="translate(634,230)"/>
<path d="M0,0 L7,0 L6,2 L5,12 L1,13 L1,8 L-2,7 Z " fill="#B597FB" transform="translate(387,448)"/>
<path d="M0,0 L3,0 L3,2 L8,3 L9,10 L0,10 L2,2 L0,2 Z " fill="#A484E9" transform="translate(608,403)"/>
<path d="M0,0 L3,0 L7,4 L10,4 L9,7 L6,9 L1,9 L-3,5 L-2,1 L-2,4 L0,4 Z " fill="#A588E3" transform="translate(355,601)"/>
<path d="M0,0 L4,0 L5,3 L7,5 L5,10 L4,8 L2,8 L2,5 L-6,5 L-6,1 Z " fill="#B5ABF4" transform="translate(534,533)"/>
<path d="M0,0 L9,1 L8,7 L0,7 L-4,4 Z " fill="#B591FC" transform="translate(512,414)"/>
<path d="M0,0 L6,1 L9,2 L9,4 L12,5 L9,6 L10,10 L8,9 L8,7 L4,7 L4,5 L1,6 L1,4 L-1,4 Z " fill="#8F86D4" transform="translate(448,637)"/>
<path d="M0,0 L3,1 L1,5 L3,5 L2,16 L0,19 L-4,18 L-3,14 L-1,12 L0,5 L-2,5 Z " fill="#A591E9" transform="translate(669,590)"/>
<path d="M0,0 L1,4 L-1,4 L-1,6 L-3,6 L-3,14 L-7,14 L-7,16 L-15,16 L-15,15 L-8,15 L-8,13 L-14,13 L-14,8 L-13,12 L-8,11 L-7,6 L-6,6 L-6,13 L-4,13 L-5,4 L-2,1 L-2,3 L0,3 Z " fill="#947AC8" transform="translate(413,710)"/>
<path d="M0,0 L5,1 L7,5 L6,15 L5,15 L5,10 L2,10 L2,8 L0,8 Z " fill="#09030B" transform="translate(630,215)"/>
<path d="M0,0 L6,1 L7,9 L3,9 L2,11 L2,9 L-1,8 L2,7 L-1,6 Z " fill="#A487E2" transform="translate(380,698)"/>
<path d="M0,0 L2,0 L2,11 L0,11 L2,17 L2,22 L0,22 L0,18 L-3,18 L-3,10 L0,10 Z " fill="#180B23" transform="translate(745,680)"/>
<path d="M0,0 L1,3 L-1,3 L-1,10 L-3,10 L-3,12 L-5,12 L-5,14 L-3,14 L-3,16 L-10,15 L-11,18 L-11,13 L-6,13 L-6,11 L-9,11 L-9,6 L-6,6 L-5,8 L-3,8 L-2,2 L0,2 Z " fill="#090410" transform="translate(761,662)"/>
<path d="M0,0 L3,3 L1,7 L2,10 L-1,13 L-1,9 L-6,9 L-6,4 L0,2 Z " fill="#B494F9" transform="translate(362,573)"/>
<path d="M0,0 L1,0 L4,11 L6,12 L8,17 L7,21 L5,19 L2,17 L2,12 L0,12 Z " fill="#A584EA" transform="translate(356,432)"/>
<path d="M0,0 L4,0 L4,16 L2,16 L2,12 L0,12 Z " fill="#10081A" transform="translate(778,524)"/>
<path d="M0,0 L4,0 L4,4 L6,4 L6,2 L30,2 L30,3 L7,3 L7,5 L1,5 L0,4 L-8,3 L-8,2 L0,2 Z " fill="#201E31" transform="translate(528,660)"/>
<path d="M0,0 L5,1 L5,4 L7,4 L7,7 L9,7 L12,20 L12,27 L11,27 L7,9 L4,7 L4,4 L1,3 Z " fill="#A58AEB" transform="translate(661,460)"/>
<path d="M0,0 L8,1 L8,7 L1,9 L0,7 Z " fill="#A282E5" transform="translate(593,386)"/>
<path d="M0,0 L6,0 L6,8 L1,7 L-2,8 L-2,2 Z " fill="#1A0C25" transform="translate(674,308)"/>
<path d="M0,0 L1,3 L3,3 L3,0 L5,0 L5,4 L3,4 L3,15 L-1,15 L-2,6 Z " fill="#9F90E6" transform="translate(658,632)"/>
<path d="M0,0 L1,0 L1,10 L-1,10 L-1,12 L1,12 L0,14 L-2,13 L-3,15 L-5,11 L-7,16 L-9,16 L-7,10 L-9,10 L-9,2 L-8,2 L-8,9 L-3,8 L0,9 Z " fill="#1F0E2F" transform="translate(749,396)"/>
<path d="M0,0 L15,0 L11,2 L0,4 L0,2 L-8,2 L-8,10 L-3,10 L-3,11 L-9,11 L-9,1 Z " fill="#887BC5" transform="translate(505,685)"/>
<path d="M0,0 L2,1 L5,2 L9,3 L9,7 L12,8 L9,8 L8,12 L8,8 L3,7 L0,4 L0,2 L-4,1 Z " fill="#8880C9" transform="translate(492,652)"/>
<path d="M0,0 L2,3 L2,5 L5,5 L6,13 L3,14 L-1,13 Z " fill="#AEABF8" transform="translate(477,606)"/>
<path d="M0,0 L8,0 L10,2 L8,2 L7,5 L0,5 L-6,7 L-4,1 Z " fill="#BFAFF9" transform="translate(506,517)"/>
<path d="M0,0 L4,1 L4,3 L10,4 L10,8 L2,8 L2,5 L-2,3 L0,3 Z " fill="#C5B0FD" transform="translate(582,464)"/>
<path d="M0,0 L4,1 L4,3 L8,4 L2,6 L-3,5 L-6,6 L-10,3 L-8,3 L-8,1 L-4,1 L-4,3 L0,3 Z " fill="#A281ED" transform="translate(438,383)"/>
<path d="M0,0 L2,1 L5,2 L9,3 L9,9 L4,8 L0,4 L0,2 L-6,2 L-6,1 Z " fill="#947BCA" transform="translate(388,708)"/>
<path d="M0,0 L1,0 L1,12 L-1,12 L0,16 L-1,28 L-2,28 L-3,14 L-2,12 L-4,12 L-5,14 L-5,8 L-4,8 L-3,1 L-2,1 L-2,11 L0,11 Z " fill="#8477C1" transform="translate(661,636)"/>
<path d="M0,0 L15,2 L20,4 L16,5 L7,6 L6,4 L5,6 L3,6 L3,3 L0,2 Z " fill="#A4A0ED" transform="translate(493,636)"/>
<path d="M0,0 L3,1 L2,7 L-3,11 L-5,11 L-4,7 L-6,7 L-6,5 L-4,5 L-2,1 Z " fill="#A5A1ED" transform="translate(642,611)"/>
<path d="M0,0 L5,1 L6,11 L3,13 L3,8 L0,9 Z " fill="#B1AAF8" transform="translate(464,592)"/>
<path d="M0,0 L4,2 L4,11 L-3,15 L-4,8 L0,8 Z M4,0 Z " fill="#9A79E1" transform="translate(359,397)"/>
<path d="M0,0 L7,2 L8,4 L6,4 L6,6 L2,6 L2,4 L0,4 L0,6 L-16,6 L-16,5 L-1,5 L-1,3 L-3,2 L0,2 Z " fill="#13121E" transform="translate(600,674)"/>
<path d="M0,0 L3,1 L2,5 L0,6 L-2,14 L-5,15 L-6,5 L0,4 Z " fill="#A99FEE" transform="translate(658,588)"/>
<path d="M0,0 L4,1 L-1,7 L-13,6 L-17,7 L-17,4 L-3,3 Z " fill="#B9AEF6" transform="translate(625,525)"/>
<path d="M0,0 L11,0 L19,3 L17,6 L12,4 L6,4 L4,3 L4,1 L0,3 L-4,2 Z " fill="#C9B2FE" transform="translate(518,464)"/>
<path d="M0,0 L2,0 L1,4 L5,4 L5,6 L3,6 L3,8 L-1,12 L-3,12 L-3,2 L0,2 Z " fill="#18081C" transform="translate(291,304)"/>
<path d="M0,0 L1,0 L1,20 L3,20 L3,24 L1,24 L1,40 L0,40 L-1,20 Z " fill="#231C30" transform="translate(335,530)"/>
<path d="M0,0 L11,1 L9,3 L-15,3 L-15,1 Z " fill="#B591F7" transform="translate(561,416)"/>
<path d="M0,0 L7,1 L10,2 L11,5 L0,5 L-3,2 Z " fill="#C2B6FB" transform="translate(609,520)"/>
<path d="M0,0 L4,0 L4,8 L2,8 L4,11 L4,14 L6,15 L4,15 L3,28 L2,28 L2,14 L-2,10 L-1,6 L0,8 L3,7 L3,1 Z " fill="#110616" transform="translate(774,432)"/>
<path d="M0,0 L4,0 L4,6 L7,7 L7,11 L5,11 L5,13 L7,13 L7,15 L9,15 L9,17 L5,15 L1,11 L3,1 Z " fill="#9072D0" transform="translate(592,370)"/>
<path d="M0,0 L2,0 L2,2 L5,1 L5,3 L2,3 L2,6 L0,6 L0,8 L-8,8 L-8,5 L0,5 L0,3 L-8,3 L-8,2 L0,2 Z " fill="#938ADB" transform="translate(564,678)"/>
<path d="M0,0 L3,0 L4,4 L8,6 L8,16 L6,14 L4,15 L5,7 L1,6 Z " fill="#B196F8" transform="translate(660,469)"/>
<path d="M0,0 L10,1 L11,7 L11,15 L9,13 L9,8 L7,8 L7,5 L5,5 L5,2 L0,1 Z " fill="#A386E7" transform="translate(661,459)"/>
<path d="M0,0 L17,1 L19,2 L19,5 L11,3 L-7,3 L-8,1 Z " fill="#C2AAFE" transform="translate(553,457)"/>
<path d="M0,0 L1,0 L1,10 L-1,10 L-1,14 L-3,14 L-3,12 L-7,11 L-4,11 L-4,5 L0,3 Z " fill="#190B24" transform="translate(767,432)"/>
<path d="M0,0 L3,0 L4,8 L5,9 L5,16 L1,16 Z " fill="#9F86E4" transform="translate(422,671)"/>
<path d="M0,0 L4,0 L4,6 L8,8 L10,10 L10,14 L6,14 L2,8 L3,1 Z M3,7 Z " fill="#13101B" transform="translate(356,610)"/>
<path d="M0,0 L6,0 L7,2 L0,3 L-3,6 L-5,6 L-5,4 L-15,4 L-14,2 L-1,1 Z " fill="#BDB2F9" transform="translate(625,523)"/>
<path d="M0,0 L31,1 L31,2 L17,3 L1,3 Z " fill="#C2B7F9" transform="translate(544,519)"/>
<path d="M0,0 L1,4 L5,6 L7,8 L7,14 L9,14 L8,16 L5,16 L4,11 L0,8 L-1,3 Z " fill="#13111C" transform="translate(513,710)"/>
<path d="M0,0 L1,0 L1,8 L3,8 L3,16 L-2,16 L-3,18 L-3,15 L-1,15 L-1,9 L-3,8 L0,8 Z " fill="#9181CD" transform="translate(661,694)"/>
<path d="M0,0 L1,0 L1,15 L3,15 L3,0 L5,2 L4,8 L6,8 L5,16 L0,16 Z " fill="#8A75C8" transform="translate(376,632)"/>
<path d="M0,0 L2,0 L2,8 L4,8 L4,19 L0,18 L0,16 L2,16 L2,10 L0,10 Z " fill="#170717" transform="translate(252,618)"/>
<path d="M0,0 L2,0 L3,13 L1,16 L0,20 L-1,20 L-2,11 L0,7 Z " fill="#B198F5" transform="translate(671,500)"/>
<path d="M0,0 L7,0 L5,7 L3,9 L0,9 Z " fill="#B2A3FA" transform="translate(392,544)"/>
<path d="M0,0 L6,0 L6,2 L10,2 L10,0 L12,0 L12,2 L30,2 L30,3 L10,4 L6,3 L5,5 L1,3 L5,3 L5,1 L0,2 Z " fill="#7A5FB5" transform="translate(402,362)"/>
<path d="M0,0 L2,0 L0,7 L-3,7 L-3,9 L-6,9 L-7,12 L-7,4 L-1,2 Z " fill="#9F86E1" transform="translate(387,653)"/>
<path d="M0,0 L2,0 L2,16 L-1,17 L-1,6 L0,4 L-2,3 Z M-3,4 Z " fill="#B7A9FC" transform="translate(657,566)"/>
<path d="M0,0 L6,2 L6,4 L11,5 L10,14 L8,14 L7,6 L4,5 L3,3 L0,2 Z " fill="#A285E8" transform="translate(651,444)"/>
<path d="M0,0 L4,0 L4,6 L2,6 L2,12 L0,12 L0,8 L-2,8 L-2,4 L0,4 Z " fill="#1A091B" transform="translate(250,438)"/>
<path d="M0,0 L2,0 L3,5 L3,13 L1,17 L-1,17 Z " fill="#1F0F2F" transform="translate(758,424)"/>
<path d="M0,0 L14,0 L17,2 L2,4 L-2,5 L-2,2 Z " fill="#B695FC" transform="translate(574,420)"/>
<path d="M0,0 L1,0 L1,5 L3,5 L3,0 L5,1 L5,3 L7,3 L5,9 L7,9 L7,6 L10,7 L10,12 L8,12 L8,10 L4,10 L4,6 L0,6 Z " fill="#897CC7" transform="translate(504,698)"/>
<path d="M0,0 L6,1 L6,2 L-1,3 L-4,3 L-8,4 L-12,6 L-18,6 L-20,4 L-10,3 L-9,1 Z " fill="#9087E3" transform="translate(632,679)"/>
<path d="M0,0 L6,0 L8,2 L7,7 L5,8 L5,4 L1,4 L1,6 L-7,6 L-7,5 L0,5 L0,3 L-2,2 L0,2 Z " fill="#847DC9" transform="translate(527,656)"/>
<path d="M0,0 L6,1 L5,4 L1,5 L0,4 L-10,4 L-10,2 Z M-12,4 L-10,5 L-10,7 L-13,6 Z " fill="#B1A5FB" transform="translate(446,590)"/>
<path d="M0,0 L2,2 L1,10 L5,12 L3,17 L1,18 L-1,13 L-1,5 Z " fill="#AA89ED" transform="translate(352,501)"/>
<path d="M0,0 L6,0 L7,1 L7,8 L3,8 L2,3 L0,3 Z " fill="#A083E6" transform="translate(682,471)"/>
<path d="M0,0 L2,0 L2,3 L12,4 L12,5 L2,5 L2,7 L13,7 L13,8 L1,8 L1,6 L-3,5 L1,5 L1,3 L-3,2 Z " fill="#867CC5" transform="translate(547,720)"/>
<path d="M0,0 L4,2 L2,2 L2,4 L4,4 L4,6 L2,6 L2,8 L-2,12 L-4,12 L-4,10 L-8,9 L-4,9 L-3,6 L0,4 Z " fill="#100D18" transform="translate(370,380)"/>
<path d="M0,0 L3,2 L2,7 L0,7 L0,11 L-3,12 L-3,4 Z " fill="#1B0A22" transform="translate(272,359)"/>
<path d="M0,0 L2,2 L2,8 L0,8 L0,18 L-2,18 L-2,12 L-4,12 L-4,10 L-2,10 L-2,6 L0,6 Z " fill="#150716" transform="translate(280,324)"/>
<path d="M0,0 L4,0 L4,2 L10,1 L11,8 L7,7 L7,5 L3,5 L3,2 L0,2 Z " fill="#1C0C28" transform="translate(689,323)"/>
<path d="M0,0 L6,1 L6,7 L0,8 Z " fill="#9D99E5" transform="translate(462,628)"/>
<path d="M0,0 L2,0 L2,12 L-2,12 L-2,4 L0,4 Z " fill="#13081A" transform="translate(778,584)"/>
<path d="M0,0 L6,0 L6,2 L4,2 L4,6 L2,6 L1,8 L1,5 L-1,5 L-1,14 L-2,14 L-2,4 L0,4 Z " fill="#110614" transform="translate(772,424)"/>
<path d="M0,0 L8,0 L8,1 L1,1 L1,3 L8,3 L4,5 L2,12 L1,12 L1,5 L-1,5 L-1,12 L-2,12 L-2,4 L0,4 Z " fill="#886CC2" transform="translate(344,412)"/>
<path d="M0,0 L17,0 L17,5 L15,5 L15,2 L0,2 Z " fill="#A280EA" transform="translate(574,365)"/>
<path d="M0,0 L3,0 L3,4 L5,5 L-5,6 L-5,3 Z " fill="#ABA9F4" transform="translate(509,631)"/>
<path d="M0,0 L7,1 L8,4 L13,5 L9,7 L8,6 L1,5 Z " fill="#B6B4FD" transform="translate(485,611)"/>
<path d="M0,0 L1,4 L3,4 L3,6 L1,6 L1,14 L3,14 L3,22 L2,22 L2,15 L0,15 L0,22 L-1,22 L-1,3 Z " fill="#181321" transform="translate(337,570)"/>
<path d="M0,0 L3,1 L3,5 L20,5 L20,6 L2,6 L2,4 L0,4 L0,6 L-4,5 L-1,5 L-1,3 L-3,2 L0,2 Z " fill="#181325" transform="translate(412,358)"/>
<path d="M0,0 L7,0 L10,2 L10,5 L-1,4 Z " fill="#08080D" transform="translate(523,674)"/>
<path d="M0,0 L15,0 L15,3 L2,3 Z " fill="#9879D9" transform="translate(574,367)"/>
<path d="M0,0 L4,0 L6,7 L4,7 L3,9 L-1,6 L-1,1 Z " fill="#9689D7" transform="translate(515,708)"/>
<path d="M0,0 L3,0 L4,5 L2,8 L-1,8 L-1,6 L-3,6 L-2,9 L-4,9 L-4,5 L-2,5 Z " fill="#9680D6" transform="translate(376,621)"/>
<path d="M0,0 L2,0 L1,6 L2,10 L-2,10 L-4,4 Z " fill="#0F0718" transform="translate(780,508)"/>
<path d="M0,0 L5,1 L5,3 L9,3 L10,6 L9,7 L3,7 L1,6 L1,4 L4,4 L4,2 L-1,3 Z " fill="#8E70CE" transform="translate(609,389)"/>
<path d="M0,0 L2,1 L-1,8 L3,9 L0,13 L-2,13 L-2,11 L-4,11 L-2,2 Z " fill="#9D7DE3" transform="translate(379,387)"/>
<path d="M0,0 L4,1 L-4,8 L-5,22 L-6,22 L-6,6 L-2,4 L-2,2 L0,2 Z " fill="#1B1829" transform="translate(438,650)"/>
<path d="M0,0 L1,0 L2,15 L0,15 L0,8 L-2,8 L-3,10 L-3,5 L-1,4 Z " fill="#A387E7" transform="translate(419,692)"/>
<path d="M0,0 L2,0 L4,2 L4,10 L0,10 Z " fill="#B090F3" transform="translate(352,550)"/>
<path d="M0,0 L10,1 L10,3 L3,3 L0,8 L-1,4 L-2,1 Z " fill="#C6B3FA" transform="translate(592,479)"/>
<path d="M0,0 L1,0 L1,6 L0,7 L-1,15 L-3,15 L-4,5 L-1,5 Z " fill="#1D0D2E" transform="translate(742,652)"/>
<path d="M0,0 L6,1 L1,6 L-1,4 L-2,6 L-5,5 L-4,1 L0,2 Z " fill="#A294EC" transform="translate(420,634)"/>
<path d="M0,0 L1,0 L1,5 L3,5 L3,0 L4,0 L4,6 L3,8 L5,8 L6,6 L6,9 L4,10 L6,12 L2,12 L2,10 L0,10 L0,8 L2,8 L2,6 L0,6 Z " fill="#8C72C2" transform="translate(376,696)"/>
<path d="M0,0 L2,0 L3,4 L5,3 L6,6 L3,9 L0,10 L-1,4 Z " fill="#AFA3FA" transform="translate(436,596)"/>
<path d="M0,0 L4,1 L5,6 L9,7 L4,7 L4,4 L2,4 L2,9 L9,9 L9,10 L1,10 Z " fill="#9577C9" transform="translate(343,592)"/>
<path d="M0,0 L2,0 L1,5 L8,5 L6,7 L1,8 L-1,7 L0,10 L-6,9 L-2,8 L-2,6 L0,6 Z " fill="#8669C4" transform="translate(380,372)"/>
<path d="M0,0 L1,0 L1,13 L3,13 L4,10 L4,13 L8,14 L4,14 L4,18 L2,18 L2,14 L0,14 Z " fill="#150511" transform="translate(252,674)"/>
<path d="M0,0 L16,0 L16,2 L12,3 L0,2 Z " fill="#9794E0" transform="translate(460,637)"/>
<path d="M0,0 L3,3 L3,9 L-1,9 L-2,3 Z " fill="#A19EEB" transform="translate(477,626)"/>
<path d="M0,0 L2,0 L2,2 L4,3 L0,4 L0,8 L-6,9 L-4,5 L-2,5 Z " fill="#AFA2F4" transform="translate(658,584)"/>
<path d="M0,0 L2,3 L1,11 L-3,12 L-3,10 L-1,10 L-1,3 L-3,2 Z " fill="#B9AEFE" transform="translate(655,573)"/>
<path d="M0,0 L3,0 L3,6 L0,7 L-2,6 L-2,8 L-4,8 L-4,13 L-5,13 L-5,7 L-3,7 L-3,5 L0,5 Z " fill="#8F71D0" transform="translate(357,399)"/>
<path d="M0,0 L2,0 L2,2 L4,2 L4,0 L6,0 L6,2 L16,2 L16,3 L0,4 L-3,3 L-2,1 L0,2 Z " fill="#8167B9" transform="translate(516,354)"/>
<path d="M0,0 L8,0 L8,2 L6,3 L6,6 L2,6 Z " fill="#200C27" transform="translate(303,309)"/>
<path d="M0,0 L3,1 L2,7 L0,7 L0,15 L-1,15 L-2,6 Z " fill="#937CCC" transform="translate(678,589)"/>
<path d="M0,0 L5,4 L6,7 L2,8 L0,7 L-1,2 Z " fill="#8D70C9" transform="translate(659,438)"/>
<path d="M0,0 L2,0 L2,3 L0,3 Z M-2,1 L0,4 L-2,12 L-4,12 L-4,5 L-4,2 Z " fill="#26113A" transform="translate(745,393)"/>
<path d="M0,0 L5,0 L5,2 L7,3 L1,5 L-3,2 Z M7,1 Z " fill="#A07FE9" transform="translate(411,384)"/>
<path d="M0,0 L1,2 L5,0 L5,2 L13,2 L12,5 L-1,4 Z " fill="#A181E5" transform="translate(579,377)"/>
<path d="M0,0 L4,0 L7,3 L9,5 L9,9 L7,9 L5,5 L0,4 Z " fill="#BEACFA" transform="translate(618,492)"/>
<path d="M0,0 L5,2 L6,5 L5,7 L0,6 L-1,1 Z " fill="#B59EF4" transform="translate(602,462)"/>
<path d="M0,0 L6,0 L9,3 L9,6 L7,6 L7,4 L1,5 Z " fill="#9977E2" transform="translate(620,397)"/>
<path d="M0,0 L1,4 L-1,4 L-1,6 L-3,6 L-3,14 L-7,13 L-4,13 L-5,4 L-2,1 L-2,3 L0,3 Z " fill="#8A72BD" transform="translate(413,710)"/>
<path d="M0,0 L4,0 L5,4 L4,6 L0,5 L-2,4 L-2,2 L0,2 Z " fill="#1A0816" transform="translate(264,700)"/>
<path d="M0,0 L2,3 L1,7 L3,8 L3,15 L1,16 L-2,1 Z " fill="#A88DEC" transform="translate(414,672)"/>
<path d="M0,0 L4,0 L4,6 L2,6 L1,10 L0,7 Z " fill="#100E17" transform="translate(374,666)"/>
<path d="M0,0 L6,1 L6,5 L2,5 L1,7 L1,5 L-2,5 L-2,3 L1,2 Z " fill="#9890E0" transform="translate(487,646)"/>
<path d="M0,0 L2,0 L2,2 L6,0 L5,5 L2,6 L2,4 L-2,4 Z " fill="#C0A1F9" transform="translate(458,444)"/>
<path d="M0,0 L10,0 L10,1 L3,2 L-1,6 L-2,3 L-4,2 Z " fill="#A787EA" transform="translate(578,386)"/>
<path d="M0,0 L1,0 L2,9 L3,13 L1,13 L1,11 L-2,10 Z " fill="#A488E7" transform="translate(422,678)"/>
<path d="M0,0 L2,0 L3,3 L11,4 L11,6 L2,7 L0,3 Z " fill="#9A91E9" transform="translate(553,677)"/>
<path d="M0,0 L2,0 L2,2 L6,3 L0,4 L-16,3 L-16,2 L0,2 Z " fill="#6E67AB" transform="translate(600,678)"/>
<path d="M0,0 L3,1 L3,5 L9,5 L10,2 L10,6 L2,6 L2,4 L-1,5 L-1,3 L-3,2 L0,2 Z " fill="#12111C" transform="translate(542,674)"/>
<path d="M0,0 L5,1 L5,7 L7,7 L6,9 L3,7 L3,3 L2,7 L0,7 Z " fill="#8B6DCC" transform="translate(635,413)"/>
<path d="M0,0 L3,0 L3,4 L3,5 L-4,5 L-4,1 Z " fill="#241034" transform="translate(740,393)"/>
<path d="M0,0 L2,0 L2,4 L4,4 L3,8 L3,5 L1,5 L0,8 L-1,6 L-4,4 L-2,4 Z " fill="#1D0D2C" transform="translate(744,388)"/>
<path d="M0,0 L2,0 L2,4 L4,4 L4,6 L2,6 L2,8 L-2,8 L-2,4 L0,4 Z " fill="#130818" transform="translate(764,376)"/>
<path d="M0,0 L17,1 L17,2 L3,3 L-1,5 Z " fill="#9979DE" transform="translate(471,359)"/>
<path d="M0,0 L9,0 L9,2 L11,2 L10,6 L9,4 L5,5 L5,1 L0,1 Z " fill="#100518" transform="translate(699,304)"/>
<path d="M0,0 L2,0 L2,10 L1,6 L-1,6 L-2,10 L-2,2 L0,2 Z " fill="#110E17" transform="translate(412,714)"/>
<path d="M0,0 L4,0 L3,7 L1,7 L1,5 L-3,4 L0,4 Z " fill="#7F77C8" transform="translate(572,674)"/>
<path d="M0,0 L4,0 L4,5 L-8,3 L-8,2 L0,2 Z " fill="#161522" transform="translate(528,660)"/>
<path d="M0,0 L17,1 L17,2 L5,2 L5,4 L3,4 L3,2 L1,2 L1,4 L-1,3 Z " fill="#7A72B5" transform="translate(459,644)"/>
<path d="M0,0 L6,2 L5,4 L-3,5 L-5,6 L-5,3 Z " fill="#A8A6F1" transform="translate(607,625)"/>
<path d="M0,0 L1,2 L5,1 L5,3 L7,4 L1,6 L1,4 L-3,4 L-3,2 Z " fill="#BBA1FC" transform="translate(569,441)"/>
<path d="M0,0 L6,0 L5,5 L-3,5 L-2,8 L-4,8 L-4,4 L4,4 L4,2 L0,2 Z " fill="#16091C" transform="translate(306,304)"/>
<path d="M0,0 L6,0 L2,1 L2,6 L5,6 L5,8 L0,8 Z " fill="#A294EB" transform="translate(497,687)"/>
<path d="M0,0 L4,1 L3,8 L0,8 Z " fill="#9F86E5" transform="translate(379,648)"/>
<path d="M0,0 L11,0 L13,2 L3,3 L1,4 Z " fill="#AAA8F3" transform="translate(618,617)"/>
<path d="M0,0 L5,3 L6,9 L3,7 L0,5 Z " fill="#A282E7" transform="translate(358,444)"/>
<path d="M0,0 L3,2 L3,5 L1,5 L2,10 L-1,10 L-2,12 L-1,3 Z " fill="#140717" transform="translate(771,398)"/>
<path d="M0,0 L3,2 L3,4 L9,3 L10,6 L5,7 L2,6 Z " fill="#9979DF" transform="translate(618,401)"/>
<path d="M0,0 L5,2 L3,3 L3,5 L5,6 L2,6 L2,4 L0,4 L-1,6 L-1,4 L-3,4 L-3,2 Z " fill="#8F6FD4" transform="translate(397,362)"/>
<path d="M0,0 L1,2 L6,4 L6,5 L0,5 L-3,3 L-3,5 L-6,5 L-6,2 L-3,1 L0,2 Z " fill="#180B22" transform="translate(700,329)"/>
<path d="M0,0 L2,0 L2,2 L8,2 L8,0 L10,0 L9,3 L0,4 L-6,3 L-6,2 L0,2 Z " fill="#181524" transform="translate(610,732)"/>
<path d="M0,0 L3,1 L2,2 L5,3 L5,6 L-2,5 L0,4 L0,2 L-2,1 Z " fill="#9888DF" transform="translate(612,727)"/>
<path d="M0,0 L2,0 L2,5 L8,5 L8,7 L1,7 L0,6 Z " fill="#AC8EE8" transform="translate(397,718)"/>
<path d="M0,0 L4,2 L0,3 L0,5 L3,6 L-1,6 L-1,2 L-9,2 L-9,1 Z " fill="#8079BD" transform="translate(485,646)"/>
<path d="M0,0 L5,0 L4,3 L8,5 L1,5 Z " fill="#9A93E1" transform="translate(476,639)"/>
<path d="M0,0 L1,0 L1,7 L-3,10 L-3,4 Z " fill="#A69DEF" transform="translate(449,608)"/>
<path d="M0,0 L3,0 L3,3 L6,1 L9,2 L5,5 L1,5 L-1,1 Z " fill="#BDBBFE" transform="translate(493,608)"/>
<path d="M0,0 L5,0 L6,4 L4,7 L2,7 L3,3 L-1,2 Z " fill="#B8B2FD" transform="translate(472,592)"/>
<path d="M0,0 L4,0 L4,2 L6,2 L5,6 L0,5 Z " fill="#AD8CF3" transform="translate(602,412)"/>
<path d="M0,0 L1,0 L1,8 L-3,8 L-3,10 L-7,9 L-4,9 L-5,5 L-2,5 L-2,7 L0,7 Z " fill="#846BBC" transform="translate(421,700)"/>
<path d="M0,0 L2,0 L2,2 L5,1 L5,3 L2,3 L2,6 L0,6 L0,3 L-8,3 L-8,2 L0,2 Z " fill="#7E76BE" transform="translate(564,678)"/>
<path d="M0,0 L2,0 L2,2 L4,2 L4,0 L16,0 L16,1 L5,1 L5,3 L0,4 Z " fill="#1B1928" transform="translate(460,646)"/>
<path d="M0,0 L4,0 L8,5 L4,6 L0,4 Z " fill="#0B0A11" transform="translate(452,644)"/>
<path d="M0,0 L2,0 L1,4 L-1,10 L-4,10 L-4,8 L-2,8 L-2,3 Z " fill="#160C28" transform="translate(759,624)"/>
<path d="M0,0 L4,1 L4,7 L0,6 L0,3 L-2,2 L0,2 Z " fill="#AD99F2" transform="translate(386,606)"/>
<path d="M0,0 L1,3 L3,3 L4,1 L4,3 L7,3 L7,5 L5,5 L5,7 L8,8 L4,8 L0,4 Z " fill="#9278C7" transform="translate(352,602)"/>
<path d="M0,0 L4,1 L4,6 L-1,6 L-1,1 Z " fill="#B193F5" transform="translate(357,576)"/>
<path d="M0,0 L2,0 L2,2 L8,2 L5,5 L1,7 Z " fill="#9D7DE3" transform="translate(355,405)"/>
<path d="M0,0 L4,0 L4,6 L1,5 L1,3 L-3,4 L-2,2 L0,2 Z " fill="#8D6FCB" transform="translate(372,386)"/>
<path d="M0,0 L2,0 L2,3 L4,3 L5,0 L5,4 L-3,5 L-2,2 L0,2 Z " fill="#8A7CCE" transform="translate(637,726)"/>
<path d="M0,0 L1,0 L1,11 L3,12 L-2,13 L-3,9 L0,9 Z " fill="#9486D9" transform="translate(656,652)"/>
<path d="M0,0 L1,0 L1,5 L3,5 L1,9 L-4,8 L-4,6 L0,6 Z " fill="#1C0E2D" transform="translate(740,644)"/>
<path d="M0,0 L2,0 L2,5 L4,6 L2,9 L0,9 L0,5 L-2,4 L0,4 Z " fill="#170C25" transform="translate(750,630)"/>
<path d="M0,0 L1,4 L4,5 L4,10 L2,10 L-1,5 Z " fill="#100E17" transform="translate(371,626)"/>
<path d="M0,0 L3,0 L5,0 L5,3 L7,4 L5,4 L5,6 L3,6 L3,4 L0,4 Z " fill="#9A7BE1" transform="translate(652,435)"/>
<path d="M0,0 L10,1 L10,2 L3,3 L2,5 L-1,5 Z " fill="#9A89E3" transform="translate(574,728)"/>
<path d="M0,0 L5,1 L2,3 L-2,3 L-2,9 L-3,9 L-4,2 Z " fill="#8F84D0" transform="translate(523,715)"/>
<path d="M0,0 L2,1 L1,4 L-9,5 L-9,3 Z " fill="#AB94F0" transform="translate(397,671)"/>
<path d="M0,0 L4,2 L3,5 L3,3 L-4,3 L-8,1 Z " fill="#9088D9" transform="translate(516,658)"/>
<path d="M0,0 L2,0 L2,6 L-2,8 L-2,3 Z " fill="#A398E8" transform="translate(658,610)"/>
<path d="M0,0 L6,0 L9,5 L7,5 L6,9 L5,7 L5,1 L0,1 Z " fill="#8E73CA" transform="translate(670,450)"/>
<path d="M0,0 L2,0 L1,3 L3,5 L-1,7 L-3,6 L-1,1 Z " fill="#9D7DE2" transform="translate(387,384)"/>
<path d="M0,0 L3,4 L-3,5 L-7,4 L-3,1 Z " fill="#A07FEA" transform="translate(461,377)"/>
<path d="M0,0 L2,1 L2,8 L0,8 L0,6 L-2,6 L-2,2 L0,2 Z " fill="#120613" transform="translate(266,360)"/>
<path d="M0,0 L2,4 L4,5 L0,5 L-5,4 L-5,2 L0,2 Z " fill="#9D7CE1" transform="translate(496,353)"/>
<path d="M0,0 L1,0 L1,6 L3,6 L3,8 L1,8 L1,10 L3,10 L2,12 L-1,12 Z " fill="#1B1625" transform="translate(375,696)"/>
<path d="M0,0 L4,0 L2,9 L-1,5 L1,4 Z " fill="#AB8BF0" transform="translate(370,444)"/>
<path d="M0,0 L2,0 L2,5 L6,6 L1,7 L0,6 Z " fill="#9D91E7" transform="translate(521,718)"/>
<path d="M0,0 L2,0 L2,2 L10,2 L10,3 L0,4 L-4,2 L0,2 Z " fill="#7972B7" transform="translate(542,678)"/>
<path d="M0,0 L8,2 L8,4 L0,5 Z " fill="#9A8EE6" transform="translate(521,677)"/>
<path d="M0,0 L2,0 L2,15 L1,15 L1,3 L-1,3 Z " fill="#030205" transform="translate(434,657)"/>
<path d="M0,0 L2,0 L2,3 L7,3 L7,5 L0,5 Z " fill="#AE8BEA" transform="translate(345,596)"/>
<path d="M0,0 L3,0 L5,5 L-1,4 Z " fill="#BAA5FD" transform="translate(633,493)"/>
<path d="M0,0 L5,1 L4,5 L4,2 L2,2 L1,6 L-2,4 L-2,2 L0,2 Z " fill="#8C70C8" transform="translate(665,445)"/>
<path d="M0,0 L11,0 L11,1 L3,2 L1,5 L-2,1 Z " fill="#B897FE" transform="translate(548,422)"/>
<path d="M0,0 L7,0 L7,5 L5,5 L5,2 L0,2 Z " fill="#A07DEA" transform="translate(628,407)"/>
<path d="M0,0 L2,0 L2,8 L0,8 L0,6 L-2,6 L-2,4 L0,4 Z " fill="#241033" transform="translate(294,356)"/>
<path d="M0,0 L1,3 L3,3 L3,0 L6,1 L6,6 L4,6 L4,4 L0,4 Z " fill="#8579C2" transform="translate(508,704)"/>
<path d="M0,0 L1,0 L1,6 L-2,7 L-5,6 L-5,3 L-2,3 L-2,5 L0,5 Z " fill="#A293EB" transform="translate(397,625)"/>
<path d="M0,0 L3,0 L3,6 L-1,5 Z " fill="#AA93EB" transform="translate(373,603)"/>
<path d="M0,0 L8,1 L6,3 L2,3 L1,5 L1,3 L-1,2 Z " fill="#C0B9FE" transform="translate(590,572)"/>
<path d="M0,0 L5,2 L0,7 L-1,2 Z " fill="#BBAFFB" transform="translate(640,563)"/>
<path d="M0,0 L2,0 L3,4 L2,5 L-6,5 L-2,3 L0,3 Z " fill="#C7B3FC" transform="translate(548,464)"/>
<path d="M0,0 L6,0 L6,2 L3,2 L2,5 L0,4 Z " fill="#140718" transform="translate(772,424)"/>
<path d="M0,0 L4,0 L4,3 L7,4 L4,4 L3,8 L3,4 L-1,3 L3,3 L3,1 Z " fill="#827BC2" transform="translate(497,656)"/>
<path d="M0,0 L3,0 L3,2 L-1,3 L-2,5 L-5,4 L-4,1 Z " fill="#BAB8FD" transform="translate(510,617)"/>
<path d="M0,0 L6,0 L2,4 L-1,4 Z " fill="#B7AAF7" transform="translate(641,528)"/>
<path d="M0,0 L7,2 L8,4 L4,5 L4,2 L0,3 Z " fill="#BAABFB" transform="translate(635,502)"/>
<path d="M0,0 L5,0 L5,6 L3,6 L2,1 Z " fill="#947AD6" transform="translate(682,473)"/>
<path d="M0,0 L5,1 L4,5 L0,4 Z " fill="#BB9FFC" transform="translate(560,440)"/>
<path d="M0,0 L2,0 L0,8 L-2,8 L-2,2 Z " fill="#130614" transform="translate(254,390)"/>
<path d="M0,0 L2,0 L1,5 L-4,5 L-4,3 L-1,2 Z " fill="#9A77E4" transform="translate(397,366)"/>
<path d="M0,0 L2,0 L2,5 L0,5 L-1,7 L-3,6 Z " fill="#9E81DE" transform="translate(417,700)"/>
<path d="M0,0 L4,1 L3,5 L1,5 L1,7 L-2,8 L-2,6 L0,6 L0,4 L2,4 L2,2 L0,2 Z " fill="#756CB9" transform="translate(608,672)"/>
<path d="M0,0 L4,1 L1,4 L-3,4 L-3,2 L0,2 Z " fill="#9184DA" transform="translate(445,643)"/>
<path d="M0,0 L2,4 L-2,6 L-2,1 Z " fill="#B196F5" transform="translate(370,584)"/>
<path d="M0,0 L3,0 L1,4 L-2,6 L-1,1 Z " fill="#B898FB" transform="translate(414,436)"/>
<path d="M0,0 L2,0 L0,4 L-4,8 L-4,4 L-2,4 Z " fill="#050207" transform="translate(314,308)"/>
<path d="M0,0 L4,0 L3,3 L-3,3 L-3,1 Z " fill="#190A23" transform="translate(635,235)"/>
<path d="M0,0 L4,1 L4,4 L2,4 L2,6 L0,6 Z " fill="#110615" transform="translate(630,216)"/>
<path d="M0,0 L4,0 L4,4 L0,4 Z " fill="#120817" transform="translate(316,828)"/>
<path d="M0,0 L4,0 L4,4 L0,4 Z " fill="#877FCD" transform="translate(534,678)"/>
<path d="M0,0 L4,0 L4,4 L0,4 Z " fill="#7970B8" transform="translate(604,668)"/>
<path d="M0,0 L4,1 L3,5 L-1,3 Z " fill="#07060A" transform="translate(352,607)"/>
<path d="M0,0 L3,0 L2,5 L4,6 L0,5 Z " fill="#A88FE9" transform="translate(370,603)"/>
<path d="M0,0 L2,0 L2,2 L5,2 L5,6 L2,6 Z " fill="#A585DD" transform="translate(346,592)"/>
<path d="M0,0 L3,2 L1,5 L-3,3 Z " fill="#BDAFFD" transform="translate(642,522)"/>
<path d="M0,0 L2,0 L1,8 L-2,7 Z " fill="#BCAAFC" transform="translate(654,516)"/>
<path d="M0,0 L2,2 L1,3 L-6,3 L-6,1 Z " fill="#C8B4FC" transform="translate(558,466)"/>
<path d="M0,0 L4,1 L1,5 L-1,5 Z " fill="#A281E9" transform="translate(378,395)"/>
<path d="M0,0 L1,0 L1,6 L3,6 L2,10 L0,10 Z " fill="#130617" transform="translate(288,306)"/>
<path d="M0,0 L6,0 L4,4 L0,3 Z " fill="#AE9FF7" transform="translate(391,608)"/>
<path d="M0,0 L5,1 L6,3 L4,5 L2,2 L-1,3 Z " fill="#AE94F0" transform="translate(367,590)"/>
<path d="M0,0 L5,0 L5,2 L-1,3 Z " fill="#B7AEF6" transform="translate(633,528)"/>
<path d="M0,0 L3,4 L3,10 L2,6 L0,6 Z " fill="#AF94F3" transform="translate(671,489)"/>
<path d="M0,0 L4,1 L4,4 L0,5 Z " fill="#BFA3F9" transform="translate(416,460)"/>
<path d="M0,0 L1,4 L-3,5 L-3,2 Z " fill="#BCA5F7" transform="translate(581,448)"/>
<path d="M0,0 L1,0 L1,6 L-2,7 L-2,2 L0,2 Z " fill="#12091B" transform="translate(762,415)"/>
<path d="M0,0 L2,1 L2,7 L-1,7 Z " fill="#28133E" transform="translate(743,406)"/>
<path d="M0,0 L2,0 L0,4 L-4,5 Z " fill="#100512" transform="translate(654,824)"/>
<path d="M0,0 L3,1 L0,6 L-2,5 Z " fill="#A488E1" transform="translate(408,710)"/>
<path d="M0,0 L2,0 L2,3 L4,3 L4,5 L0,5 Z " fill="#160713" transform="translate(268,707)"/>
<path d="M0,0 L4,1 L2,2 L1,5 L-2,4 L-2,2 L0,2 Z " fill="#160711" transform="translate(264,700)"/>
<path d="M0,0 L3,1 L3,4 L-4,4 L0,3 Z " fill="#8C84DB" transform="translate(606,680)"/>
<path d="M0,0 L4,0 L4,4 L1,4 Z " fill="#120E19" transform="translate(334,550)"/>
<path d="M0,0 L3,0 L3,3 L-3,4 L-3,2 Z " fill="#B0A8F3" transform="translate(577,538)"/>
<path d="M0,0 L2,1 L3,7 L0,6 Z " fill="#AB8FF3" transform="translate(665,468)"/>
<path d="M0,0 L4,1 L4,4 L0,4 Z " fill="#BEA1F7" transform="translate(464,448)"/>
<path d="M0,0 L4,0 L4,4 L1,4 Z " fill="#B69BF8" transform="translate(592,440)"/>
<path d="M0,0 L2,1 L2,3 L5,4 L4,6 L1,6 Z " fill="#9978DF" transform="translate(627,409)"/>
<path d="M0,0 L6,2 L6,3 L-2,3 Z " fill="#9978E3" transform="translate(412,376)"/>
<path d="M0,0 L9,1 L9,2 L1,3 Z " fill="#9272D7" transform="translate(403,366)"/>
<path d="M0,0 L4,1 L5,4 L1,3 Z " fill="#1D0E2C" transform="translate(672,320)"/>
<path d="M0,0 L5,1 L1,2 L1,4 L-1,4 L-1,2 L-3,1 Z " fill="#130615" transform="translate(605,868)"/>
<path d="M0,0 L5,0 L3,4 L0,4 Z " fill="#9386D4" transform="translate(499,689)"/>
<path d="M0,0 L3,0 L3,4 L0,4 L-1,1 Z " fill="#010102" transform="translate(614,671)"/>
<path d="M0,0 L2,3 L-1,6 L-2,2 Z " fill="#ACA0F6" transform="translate(440,599)"/>
<path d="M0,0 L4,2 L3,6 L1,7 Z " fill="#CBB7FA" transform="translate(590,480)"/>
<path d="M0,0 L5,0 L5,3 L2,3 L3,1 Z M6,0 Z " fill="#C3A8FD" transform="translate(476,458)"/>
<path d="M0,0 L2,0 L2,2 L6,3 L0,4 Z " fill="#7A73BE" transform="translate(600,678)"/>
<path d="M0,0 L3,0 L3,4 L0,4 Z " fill="#07040B" transform="translate(750,640)"/>
<path d="M0,0 L3,0 L3,4 L0,4 Z " fill="#A894E9" transform="translate(660,610)"/>
<path d="M0,0 L4,1 L5,3 L-1,2 Z " fill="#A98EEB" transform="translate(365,600)"/>
<path d="M0,0 L3,1 L1,5 L-2,3 L0,3 Z " fill="#CBC0FA" transform="translate(540,498)"/>
<path d="M0,0 L2,1 L2,7 L0,5 L-1,1 Z " fill="#A58AE8" transform="translate(675,486)"/>
<path d="M0,0 L3,0 L2,5 L0,5 Z " fill="#9878DD" transform="translate(346,446)"/>
<path d="M0,0 L3,2 L3,5 L-1,4 Z " fill="#100513" transform="translate(771,398)"/>
<path d="M0,0 L3,0 L1,4 L-2,2 Z " fill="#9F7EEC" transform="translate(401,385)"/>
<path d="M0,0 L2,0 L3,4 L1,6 Z " fill="#A88CE9" transform="translate(377,673)"/>
<path d="M0,0 L3,0 L2,3 L-2,3 L-2,1 Z " fill="#9F90E8" transform="translate(426,638)"/>
<path d="M0,0 L2,1 L2,4 L-2,3 Z " fill="#A4A1EE" transform="translate(477,626)"/>
<path d="M0,0 L3,1 L2,3 L-2,4 Z " fill="#C4ACF7" transform="translate(454,470)"/>
<path d="M0,0 L3,1 L1,5 L0,5 Z " fill="#B090F7" transform="translate(377,445)"/>
<path d="M0,0 L1,2 L3,3 L1,3 L0,5 L0,3 L-2,3 L-2,1 Z " fill="#8063BF" transform="translate(396,363)"/>
<path d="M0,0 L2,2 L1,4 L-2,4 L-2,1 Z " fill="#0D0512" transform="translate(696,330)"/>
<path d="M0,0 L3,1 L1,4 L-1,4 Z " fill="#CDB9FE" transform="translate(581,479)"/>
<path d="M0,0 L2,0 L3,4 L0,4 Z " fill="#A383E6" transform="translate(667,447)"/>
<path d="M0,0 L2,0 L1,3 L-2,4 L-2,1 Z " fill="#C0A7FB" transform="translate(534,449)"/>
<path d="M0,0 L4,2 L0,4 Z " fill="#9B7AE5" transform="translate(379,379)"/>
<path d="M0,0 L2,1 L1,5 L-1,5 Z " fill="#1F0C27" transform="translate(273,360)"/>
</svg>
