<?xml version="1.0" encoding="UTF-8"?>
<!-- Generator: visioncortex VTracer 0.6.4 -->
<svg version="1.1" xmlns="http://www.w3.org/2000/svg" width="1024" height="1024">
<path d="M0,0 L1024,0 L1024,1024 L0,1024 Z " fill="#000000" transform="translate(0,0)"/>
<path d="M0,0 L760,0 L760,18 L762,18 L762,34 L756,34 L756,36 L762,36 L762,50 L758,50 L758,52 L760,52 L760,58 L752,58 L752,60 L754,60 L754,66 L740,66 L740,64 L738,64 L738,68 L742,68 L742,74 L732,74 L732,80 L734,80 L734,82 L738,82 L738,98 L744,98 L744,100 L746,100 L746,110 L742,110 L742,114 L740,114 L740,118 L738,118 L738,122 L726,122 L726,118 L724,118 L724,122 L722,122 L722,126 L720,126 L720,132 L718,132 L718,134 L730,134 L730,140 L728,140 L728,142 L726,142 L726,146 L732,146 L734,149 L738,150 L738,154 L746,154 L746,156 L748,156 L748,162 L754,162 L754,158 L760,158 L762,161 L766,162 L766,156 L772,156 L772,162 L774,162 L774,166 L778,166 L778,160 L774,160 L774,154 L780,154 L780,156 L782,156 L782,154 L786,154 L786,146 L790,146 L790,140 L786,140 L786,136 L782,136 L782,130 L786,130 L786,126 L788,126 L788,124 L786,124 L786,118 L792,118 L792,110 L798,110 L798,106 L782,106 L782,102 L780,102 L780,94 L798,94 L798,86 L796,86 L796,88 L784,88 L784,86 L782,86 L782,82 L778,80 L778,78 L772,78 L772,70 L774,70 L774,62 L782,62 L782,60 L792,60 L792,62 L800,62 L802,65 L806,66 L806,68 L808,68 L808,72 L810,72 L810,68 L812,68 L812,66 L814,66 L814,64 L816,64 L816,62 L826,62 L826,64 L830,64 L830,60 L842,60 L842,66 L846,66 L846,70 L852,70 L852,74 L854,74 L854,76 L856,76 L856,94 L854,94 L854,96 L858,96 L858,106 L854,106 L854,152 L856,152 L856,162 L854,162 L854,182 L856,182 L856,196 L854,196 L854,206 L856,206 L856,212 L854,212 L854,228 L856,228 L856,230 L858,230 L858,234 L860,234 L860,254 L862,254 L862,260 L860,260 L860,262 L858,262 L858,264 L856,264 L856,268 L852,268 L852,272 L848,272 L848,274 L844,274 L844,276 L824,276 L824,272 L814,272 L814,270 L784,270 L784,272 L774,272 L774,270 L772,270 L772,272 L762,272 L762,270 L754,270 L754,268 L744,268 L744,270 L738,270 L738,268 L734,268 L734,266 L730,266 L730,264 L718,264 L718,260 L714,260 L714,258 L710,258 L710,252 L708,252 L708,246 L710,246 L710,240 L708,240 L708,234 L710,234 L710,232 L706,232 L706,224 L670,224 L670,222 L642,222 L642,224 L632,224 L632,226 L626,226 L626,224 L610,224 L610,220 L602,220 L602,218 L594,218 L594,216 L590,216 L590,214 L582,214 L582,212 L578,212 L574,207 L572,206 L572,194 L574,194 L574,190 L576,190 L576,180 L578,180 L578,174 L580,174 L580,172 L578,173 L562,172 L562,176 L556,176 L556,174 L544,174 L544,176 L538,176 L538,174 L522,174 L522,172 L506,172 L506,170 L498,170 L498,172 L492,172 L492,170 L490,170 L490,166 L488,166 L488,168 L474,168 L474,166 L460,166 L460,164 L456,164 L456,166 L446,166 L446,164 L442,168 L434,168 L434,170 L428,170 L428,174 L422,174 L422,186 L420,186 L420,196 L418,196 L418,246 L416,246 L416,256 L418,256 L418,272 L416,272 L416,286 L418,286 L418,306 L416,306 L416,324 L418,324 L418,330 L416,330 L416,334 L418,334 L418,346 L416,346 L416,348 L418,348 L418,358 L416,358 L416,372 L418,372 L418,382 L420,382 L420,394 L418,394 L418,418 L416,418 L416,422 L418,422 L418,434 L416,434 L416,446 L418,446 L418,486 L416,486 L416,512 L418,512 L418,526 L416,526 L416,544 L414,544 L414,548 L418,548 L418,610 L416,610 L416,654 L418,654 L418,674 L416,674 L416,702 L418,702 L418,710 L416,710 L416,716 L418,716 L418,722 L416,722 L416,742 L418,742 L418,754 L416,754 L416,762 L418,762 L418,770 L416,770 L416,804 L418,804 L418,810 L416,810 L416,816 L418,816 L418,844 L416,844 L416,846 L418,846 L418,854 L416,854 L416,884 L418,884 L418,890 L416,890 L416,906 L414,906 L414,908 L416,908 L416,916 L418,916 L418,924 L416,924 L416,926 L414,926 L414,928 L418,928 L418,942 L416,942 L416,960 L414,960 L414,966 L410,966 L410,968 L404,968 L404,980 L402,980 L402,982 L400,982 L400,986 L396,986 L396,990 L390,990 L390,992 L378,992 L378,990 L374,990 L374,988 L372,988 L372,984 L370,984 L370,980 L368,980 L368,1024 L0,1024 Z " fill="#F3FCFD" transform="translate(0,0)"/>
<path d="M0,0 L216,0 L216,50 L218,50 L218,56 L220,56 L220,58 L216,58 L216,82 L218,82 L218,110 L216,110 L216,118 L218,118 L218,256 L220,256 L220,264 L218,264 L218,290 L220,290 L220,302 L218,302 L218,410 L216,410 L216,416 L218,416 L218,440 L216,440 L216,660 L218,660 L218,696 L220,696 L220,700 L218,700 L218,716 L220,716 L220,732 L222,732 L222,736 L220,736 L220,748 L222,748 L222,750 L220,750 L220,810 L222,810 L222,818 L226,818 L226,824 L228,824 L228,834 L234,834 L234,840 L236,840 L236,846 L242,846 L242,838 L246,838 L246,834 L259,834 L259,838 L261,838 L261,841 L265,842 L266,850 L265,847 L263,847 L263,850 L260,850 L260,858 L258,858 L258,845 L261,845 L261,842 L259,842 L259,839 L253,839 L253,846 L250,846 L250,840 L244,840 L244,852 L240,852 L240,854 L238,854 L238,860 L232,860 L232,866 L230,866 L230,868 L228,868 L228,870 L226,870 L226,876 L224,876 L224,880 L222,880 L222,884 L220,884 L220,890 L218,890 L218,898 L216,898 L216,912 L218,912 L218,918 L220,918 L220,922 L222,922 L222,924 L226,924 L226,926 L230,926 L230,928 L236,928 L236,932 L242,932 L242,930 L246,930 L246,932 L252,932 L252,930 L254,930 L254,934 L262,934 L262,932 L264,932 L264,938 L278,938 L278,932 L276,932 L276,930 L274,930 L274,924 L268,924 L268,926 L258,926 L258,920 L264,920 L264,902 L266,902 L266,896 L268,896 L268,894 L276,894 L276,898 L278,898 L278,902 L290,902 L292,905 L298,906 L298,894 L300,894 L300,896 L302,896 L302,900 L310,900 L310,898 L318,898 L318,894 L320,894 L324,899 L326,900 L326,906 L330,908 L330,910 L328,910 L328,916 L330,916 L330,918 L328,918 L328,930 L326,930 L326,928 L318,928 L318,942 L310,942 L310,946 L306,946 L306,964 L302,964 L302,970 L298,970 L298,978 L302,978 L302,986 L306,986 L306,988 L302,988 L302,1004 L300,1004 L300,988 L294,988 L294,990 L290,990 L290,1024 L0,1024 Z " fill="#000000" transform="translate(0,0)"/>
<path d="M0,0 L140,0 L140,20 L138,20 L138,18 L132,18 L132,26 L136,26 L136,30 L140,30 L140,36 L128,36 L128,42 L132,42 L132,48 L134,48 L134,50 L136,50 L136,54 L140,56 L142,60 L140,60 L140,64 L136,64 L136,70 L138,70 L138,72 L136,72 L136,78 L132,78 L132,74 L126,74 L126,78 L124,78 L124,82 L122,82 L122,90 L116,90 L116,98 L128,98 L128,102 L130,102 L130,104 L132,104 L132,108 L134,108 L134,114 L136,114 L136,118 L132,118 L132,124 L134,124 L134,126 L128,126 L128,136 L136,136 L136,142 L124,142 L124,146 L122,146 L122,152 L124,152 L124,156 L128,156 L128,158 L116,158 L116,160 L114,160 L114,158 L102,158 L102,160 L100,160 L100,150 L92,150 L92,154 L80,154 L80,162 L92,162 L92,172 L84,172 L84,168 L80,168 L80,166 L76,166 L76,164 L68,164 L68,170 L72,170 L72,178 L60,178 L60,174 L52,174 L52,166 L54,166 L54,164 L56,164 L56,160 L58,160 L58,158 L60,158 L60,156 L68,156 L68,152 L70,152 L70,150 L74,150 L74,142 L60,142 L60,146 L52,146 L52,140 L58,140 L58,138 L60,138 L60,136 L62,136 L62,134 L64,134 L64,130 L66,130 L66,112 L64,112 L64,110 L62,110 L62,102 L58,100 L58,98 L52,98 L52,96 L46,96 L46,98 L40,98 L40,106 L36,106 L36,102 L22,102 L22,100 L20,100 L20,94 L16,94 L16,90 L20,90 L20,84 L16,84 L16,80 L10,80 L10,86 L8,86 L8,78 L12,78 L12,58 L8,58 L8,54 L12,54 L12,46 L8,46 L8,42 L6,42 L6,40 L8,40 L8,18 L4,18 L4,2 L0,2 Z " fill="#020202" transform="translate(558,0)"/>
<path d="M0,0 L11,1 L11,5 L13,5 L13,7 L15,7 L15,25 L13,25 L13,27 L17,27 L17,37 L13,37 L13,83 L15,83 L15,93 L13,93 L13,113 L15,113 L15,127 L13,127 L13,137 L15,137 L15,143 L13,143 L13,159 L15,159 L15,161 L17,161 L17,165 L19,165 L19,185 L21,185 L21,191 L19,191 L19,193 L17,193 L17,195 L15,195 L15,199 L11,199 L11,203 L7,203 L7,205 L3,205 L3,207 L-17,207 L-17,203 L-27,203 L-27,201 L-66,202 L-67,197 L-85,194 L-85,190 L-79,190 L-79,192 L-41,191 L-26,192 L-25,193 L-15,195 L-1,195 L3,194 L4,191 L6,191 L7,184 L7,168 L6,156 L7,136 L7,123 L9,119 L6,115 L6,109 L4,108 L6,106 L7,85 L5,75 L7,73 L7,24 L6,20 L6,11 L3,11 L2,5 L0,5 Z M5,85 L7,86 Z M5,115 Z " fill="#FEF8FE" transform="translate(841,69)"/>
<path d="M0,0 L56,0 L56,10 L64,10 L64,18 L56,18 L56,22 L54,22 L54,26 L44,26 L44,30 L42,30 L42,34 L30,34 L30,32 L28,32 L28,34 L24,34 L24,36 L12,36 L12,32 L8,30 L8,28 L6,28 L6,24 L0,24 Z " fill="#F5FCFC" transform="translate(570,0)"/>
<path d="M0,0 L3,0 L3,152 L2,153 L2,159 L3,160 L3,194 L2,195 L3,206 L2,207 L5,207 L5,234 L3,234 L3,236 L-1,237 L2,237 L2,243 L0,243 L0,275 L2,275 L3,280 L3,295 L-1,295 L-2,292 L-3,294 L-4,314 L-6,317 L-8,316 L-8,307 L-9,303 L-8,299 L-8,278 L-7,272 L-5,272 L-6,253 L-8,252 L-8,215 L-6,214 L-4,210 L-3,201 L-2,200 L-2,192 L-7,197 L-6,190 L-7,183 L-5,181 L-5,159 L-6,153 L-8,155 L-7,147 L-6,146 L-5,139 L-4,136 L-6,136 L-6,132 L-2,132 L-1,106 L-1,96 L0,93 Z " fill="#FEF1FD" transform="translate(412,610)"/>
<path d="M0,0 L1,2 L4,2 L5,0 L5,2 L7,2 L7,10 L5,10 L5,40 L7,40 L7,46 L5,46 L5,62 L3,62 L3,64 L5,64 L5,72 L7,72 L7,80 L5,80 L5,82 L3,82 L3,84 L7,84 L7,98 L5,98 L5,116 L3,116 L3,122 L-1,122 L-1,124 L-7,124 L-7,136 L-9,136 L-9,138 L-11,138 L-11,142 L-15,142 L-15,146 L-21,146 L-21,148 L-33,148 L-33,146 L-37,145 L-33,145 L-33,143 L-36,142 L-27,142 L-26,133 L-23,132 L-22,124 L-27,126 L-26,122 L-23,122 L-23,111 L-19,111 L-19,109 L-13,104 L-12,102 L-10,102 L-10,96 L-8,96 L-7,92 L-5,88 L-4,80 L-3,60 L-1,50 L2,54 L2,61 L4,61 L4,46 L1,45 L3,45 L3,41 L1,41 L1,9 L3,9 L3,3 L0,3 Z " fill="#FEE6F8" transform="translate(411,844)"/>
<path d="M0,0 L1,0 L1,49 L3,49 L3,30 L4,30 L4,50 L3,55 L5,55 L5,50 L6,50 L5,60 L1,59 L1,81 L3,81 L3,61 L6,61 L7,64 L5,64 L6,81 L8,83 L8,107 L7,110 L5,110 L5,82 L3,82 L4,118 L3,255 L5,255 L5,118 L6,118 L7,160 L8,166 L8,289 L9,295 L8,311 L8,404 L7,414 L6,416 L3,416 L3,440 L2,440 L2,416 L0,416 L0,410 L2,410 L2,302 L4,302 L4,290 L2,290 L2,264 L4,264 L4,256 L2,256 L2,118 L0,118 L0,110 L2,110 L2,82 L0,82 L0,58 L4,58 L4,56 L2,56 L2,50 L0,50 Z " fill="#D7F4F6" transform="translate(216,0)"/>
<path d="M0,0 L1,0 L1,219 L3,219 L3,30 L5,30 L6,56 L5,106 L5,180 L6,189 L6,202 L5,214 L7,214 L6,219 L8,221 L8,238 L12,239 L12,283 L10,287 L11,293 L10,297 L10,310 L12,311 L10,312 L9,320 L8,370 L7,377 L10,378 L6,378 L6,370 L4,370 L4,310 L6,310 L6,308 L4,308 L4,296 L6,296 L6,292 L4,292 L4,276 L2,276 L2,260 L4,260 L4,256 L2,256 L2,220 L0,220 Z " fill="#D5FDFD" transform="translate(216,440)"/>
<path d="M0,0 L1,0 L1,49 L3,49 L3,0 L4,0 L4,50 L2,50 L2,60 L4,60 L4,76 L2,76 L2,90 L4,90 L4,110 L2,110 L2,128 L4,128 L4,134 L2,134 L2,138 L4,138 L4,150 L2,150 L2,152 L4,152 L4,162 L2,162 L2,176 L4,176 L4,186 L6,186 L6,198 L4,198 L4,222 L2,222 L2,226 L4,226 L4,238 L2,238 L2,250 L4,250 L4,290 L2,290 L2,316 L4,316 L4,330 L2,330 L2,348 L1,348 L0,330 L0,316 L1,290 L-1,290 L-1,316 L-2,316 L-2,256 L-1,256 L1,238 L-1,238 L-1,250 L-2,250 L-2,193 L-3,189 L-2,162 L-1,162 L-1,176 L1,176 L0,153 L-2,152 L1,152 L1,150 L-2,149 L3,149 L3,139 L0,140 Z " fill="#FCF3FC" transform="translate(414,196)"/>
<path d="M0,0 L6,0 L6,4 L8,4 L8,6 L10,6 L10,24 L8,24 L8,26 L12,26 L12,36 L8,36 L8,82 L10,82 L10,92 L8,92 L8,112 L10,112 L10,126 L8,126 L8,136 L10,136 L10,142 L8,142 L8,158 L10,158 L10,160 L12,160 L12,164 L14,164 L14,184 L16,184 L16,190 L14,190 L14,192 L12,192 L12,194 L10,194 L10,198 L6,198 L6,202 L2,202 L2,204 L-2,204 L-2,206 L-22,206 L-22,202 L-32,202 L-32,200 L-62,200 L-62,199 L-32,199 L-32,197 L-62,197 L-62,196 L-30,196 L-19,197 L-10,197 L-1,194 L5,189 L7,177 L6,158 L6,137 L4,137 L4,123 L5,123 L6,113 L4,112 L7,112 L7,92 L4,91 L6,91 L6,83 L4,82 L7,82 L7,36 L4,37 L5,27 L7,27 L7,24 L4,23 L6,23 L5,16 L5,7 L3,7 L0,3 L5,3 L5,1 L0,1 Z " fill="#FEF2FC" transform="translate(846,70)"/>
<path d="M0,0 L6,0 L6,8 L10,8 L10,24 L12,24 L12,16 L18,16 L18,20 L20,20 L20,28 L22,28 L22,36 L20,36 L20,38 L18,38 L18,40 L20,40 L20,58 L0,58 L0,10 L4,10 L4,8 L0,8 Z " fill="#F8F8FC" transform="translate(266,966)"/>
<path d="M0,0 L1,0 L2,62 L2,358 L1,358 L1,346 L-1,346 L0,367 L-2,368 L-2,360 L-4,360 L-4,358 L-2,358 L-2,342 L0,342 L0,336 L-2,336 L-2,306 L0,306 L0,298 L-2,298 L-2,296 L0,296 L0,268 L-2,268 L-2,262 L0,262 L0,256 L-2,256 L-2,222 L0,222 L0,214 L-2,214 L-2,206 L0,206 L0,194 L-2,194 L-2,174 L0,174 L0,168 L-2,168 L-2,162 L0,162 L0,154 L-2,154 L-2,126 L0,126 L0,106 L-2,106 L-2,62 L0,62 Z " fill="#111011" transform="translate(418,548)"/>
<path d="M0,0 L6,0 L6,8 L12,8 L12,0 L24,0 L24,14 L26,14 L30,19 L32,20 L32,24 L40,24 L40,26 L42,26 L42,28 L24,28 L24,32 L12,32 L12,36 L6,36 L6,24 L2,22 L2,20 L-3,19 L-4,16 L-6,16 L-6,14 L-2,14 L-2,12 L2,12 L2,4 L0,4 Z " fill="#040404" transform="translate(550,110)"/>
<path d="M0,0 L3,0 L3,152 L2,153 L2,159 L0,159 L-1,191 L-6,197 L-6,194 L-7,183 L-5,181 L-5,159 L-6,153 L-8,155 L-7,147 L-6,146 L-5,139 L-4,136 L-6,136 L-6,132 L-2,132 L-1,106 L-1,96 L0,93 Z " fill="#FDF9FE" transform="translate(412,610)"/>
<path d="M0,0 L2,2 L1,14 L3,14 L3,8 L5,12 L6,15 L8,15 L10,20 L18,19 L23,20 L24,23 L26,23 L28,27 L38,26 L43,30 L64,33 L67,36 L65,37 L65,39 L74,39 L74,40 L64,40 L64,38 L62,38 L62,40 L52,40 L52,38 L44,38 L44,36 L34,36 L34,38 L28,38 L28,36 L24,36 L24,34 L20,34 L20,32 L8,32 L8,28 L4,28 L4,26 L0,26 L0,20 L-2,20 L-2,14 L0,14 L0,8 L-2,8 L-2,2 L0,2 Z " fill="#FEEBF3" transform="translate(710,232)"/>
<path d="M0,0 L1,0 L1,8 L3,8 L3,10 L5,10 L5,28 L3,28 L3,32 L1,32 L1,34 L-1,34 L-1,36 L-3,36 L-3,38 L-9,38 L-9,44 L-1,44 L-1,40 L13,40 L13,48 L9,48 L9,50 L7,50 L7,54 L-1,54 L-1,56 L-3,56 L-3,58 L-5,58 L-5,62 L-7,62 L-7,64 L-9,64 L-9,72 L-10,72 L-11,57 L-25,57 L-27,51 L-16,51 L-16,49 L-25,49 L-25,48 L-16,48 L-16,46 L-13,44 L-13,40 L-15,39 L-13,37 L-15,36 L-15,33 L-3,33 L0,29 L0,12 L-1,8 Z M-29,52 L-27,53 L-29,56 Z " fill="#E6E6E4" transform="translate(619,102)"/>
<path d="M0,0 L1,0 L2,10 L2,99 L4,99 L4,109 L2,110 L1,113 L2,122 L2,136 L-2,135 L-2,132 L-7,133 L-9,135 L-9,120 L-7,118 L-6,114 L-4,114 L-3,110 L-3,101 L-7,98 L-5,94 L-3,90 L-2,53 L-2,49 L-4,51 L-4,45 L-6,45 L-3,36 L-2,25 L-3,18 L-1,1 Z " fill="#FEF7FE" transform="translate(413,236)"/>
<path d="M0,0 L1,0 L1,219 L3,219 L3,30 L5,30 L6,56 L5,106 L5,170 L3,255 L5,255 L5,240 L6,240 L6,263 L5,261 L3,261 L3,276 L2,276 L2,260 L4,260 L4,256 L2,256 L2,220 L0,220 Z " fill="#BBE2E1" transform="translate(216,440)"/>
<path d="M0,0 L5,1 L10,2 L10,4 L7,5 L8,8 L10,8 L11,24 L12,28 L10,28 L10,37 L12,37 L12,83 L11,84 L11,92 L12,93 L12,113 L11,114 L11,126 L10,126 L9,138 L11,138 L10,159 L8,159 L7,128 L7,123 L9,119 L6,115 L6,109 L4,108 L6,106 L7,85 L5,75 L7,73 L7,24 L6,20 L6,11 L3,11 L2,5 L0,5 Z M5,85 L7,86 Z M5,115 Z " fill="#FDF5FA" transform="translate(841,69)"/>
<path d="M0,0 L5,1 L5,11 L4,24 L3,26 L3,50 L1,54 L0,243 L-2,243 L-2,24 L0,24 Z " fill="#DDFEFE" transform="translate(219,416)"/>
<path d="M0,0 L4,2 L2,2 L2,4 L6,4 L6,18 L4,18 L4,36 L2,36 L2,42 L-2,42 L-2,44 L-8,44 L-8,56 L-10,56 L-10,58 L-12,58 L-12,62 L-16,62 L-16,66 L-22,66 L-22,68 L-34,68 L-34,67 L-23,67 L-23,65 L-25,64 L-22,56 L-18,48 L-17,43 L-12,38 L-9,33 L-6,27 L-2,25 L0,18 L1,18 L1,35 L3,35 L2,18 L0,5 Z " fill="#FED5E9" transform="translate(412,924)"/>
<path d="M0,0 L10,0 L10,4 L18,4 L18,0 L24,0 L24,2 L26,2 L26,22 L0,22 L0,8 L-2,8 L-2,2 L0,2 Z " fill="#FBFBFE" transform="translate(220,1002)"/>
<path d="M0,0 L8,0 L8,12 L4,12 L4,18 L2,18 L2,20 L-4,20 L-4,24 L-8,24 L-8,28 L-10,28 L-10,30 L-12,30 L-12,32 L-14,32 L-14,34 L-16,34 L-16,36 L-20,36 L-20,40 L-28,40 L-28,32 L-24,32 L-24,20 L-16,20 L-16,16 L-4,16 L-4,12 L0,12 Z " fill="#0D0D0D" transform="translate(434,66)"/>
<path d="M0,0 L22,0 L22,6 L24,6 L24,10 L22,10 L22,14 L18,14 L18,12 L12,12 L12,32 L10,32 L10,30 L5,29 L4,26 L0,26 Z " fill="#0D0D0D" transform="translate(386,0)"/>
<path d="M0,0 L10,0 L10,2 L18,2 L19,7 L16,10 L12,10 L11,17 L14,18 L14,24 L5,24 L2,23 L1,18 L-4,19 L-10,18 L-10,10 L-8,10 L-8,2 L0,2 Z " fill="#FCFDFE" transform="translate(782,60)"/>
<path d="M0,0 L1,0 L1,44 L3,44 L3,64 L1,64 L1,92 L3,92 L3,100 L1,100 L1,106 L3,106 L3,112 L1,112 L1,132 L3,132 L3,144 L1,144 L1,152 L3,152 L3,160 L1,160 L1,194 L3,194 L3,200 L1,200 L1,206 L3,206 L3,234 L2,234 L2,207 L0,207 L0,233 L-1,233 L-1,207 L-3,207 L-3,200 L-2,200 L-2,206 L0,206 L-1,195 L-3,194 L0,194 L0,160 L-3,159 L-1,159 L-1,153 L-3,153 L-3,144 L-2,144 L-2,152 L0,152 L-1,144 L-1,44 Z " fill="#DDD3DC" transform="translate(415,610)"/>
<path d="M0,0 L2,2 L4,13 L4,30 L2,30 L1,15 L-1,21 L-5,22 L-6,27 L-9,30 L-12,35 L-16,40 L-17,45 L-20,51 L-23,59 L-22,62 L-33,62 L-37,60 L-33,60 L-33,58 L-36,57 L-27,57 L-26,48 L-23,47 L-22,39 L-27,41 L-26,37 L-23,37 L-22,32 L-17,29 L-15,29 L-14,26 L-12,26 L-12,23 L-7,18 L-4,10 L-2,4 Z " fill="#FEDFF3" transform="translate(411,929)"/>
<path d="M0,0 L1,0 L1,7 L3,8 L3,0 L4,0 L4,8 L16,8 L16,18 L8,18 L8,14 L4,14 L4,12 L0,12 L0,10 L-8,10 L-8,16 L-4,16 L-4,24 L-16,24 L-16,20 L-24,20 L-24,12 L-22,12 L-22,10 L-20,10 L-20,6 L-18,6 L-18,4 L-16,4 L-16,2 L-8,2 L-8,3 L-14,4 L-8,5 L-7,6 L0,6 Z " fill="#0C0C0C" transform="translate(634,154)"/>
<path d="M0,0 L6,0 L6,1 L1,1 L2,12 L2,22 L1,22 L1,16 L-1,16 L0,22 L0,50 L-1,50 L-1,26 L-3,26 L-2,82 L-2,208 L-4,208 L-4,198 L-6,198 L-6,184 L-4,184 L-4,174 L-6,174 L-6,172 L-4,172 L-4,160 L-6,160 L-6,156 L-4,156 L-4,150 L-6,150 L-6,132 L-4,132 L-4,112 L-6,112 L-6,98 L-4,98 L-4,82 L-6,82 L-6,72 L-4,72 L-4,22 L-2,22 L-2,12 L0,12 Z " fill="#1C1A1C" transform="translate(422,174)"/>
<path d="M0,0 L6,0 L6,4 L8,4 L8,6 L10,6 L10,24 L8,24 L8,26 L12,26 L12,36 L8,36 L8,82 L10,82 L10,92 L8,92 L8,112 L10,112 L10,126 L8,126 L8,136 L10,136 L10,142 L8,142 L8,158 L10,158 L9,160 L6,160 L6,137 L4,137 L4,123 L5,123 L6,113 L4,112 L7,112 L7,92 L4,91 L6,91 L6,83 L4,82 L7,82 L7,36 L4,37 L5,27 L7,27 L7,24 L4,23 L6,23 L5,16 L5,7 L3,7 L0,3 L5,3 L5,1 L0,1 Z " fill="#DACED5" transform="translate(846,70)"/>
<path d="M0,0 L1,0 L1,49 L3,49 L3,30 L4,30 L4,50 L3,55 L5,55 L5,50 L6,50 L5,60 L1,59 L1,81 L3,81 L3,61 L6,61 L7,64 L5,64 L6,81 L8,83 L8,107 L7,110 L5,110 L5,82 L3,82 L4,118 L3,256 L2,256 L2,118 L0,118 L0,110 L2,110 L2,82 L0,82 L0,58 L4,58 L4,56 L2,56 L2,50 L0,50 Z " fill="#C8E5E5" transform="translate(216,0)"/>
<path d="M0,0 L4,1 L1,1 L1,3 L4,3 L4,106 L5,121 L6,125 L6,128 L4,128 L4,124 L2,124 L2,122 L0,122 L0,106 L2,106 L2,100 L0,100 L0,90 L2,90 L2,76 L0,76 L0,56 L2,56 L2,46 L0,46 Z " fill="#131212" transform="translate(854,106)"/>
<path d="M0,0 L2,0 L3,34 L4,32 L6,33 L5,41 L5,72 L3,75 L2,173 L0,173 Z " fill="#E9FEFE" transform="translate(219,82)"/>
<path d="M0,0 L1,0 L1,49 L3,49 L3,0 L4,0 L4,50 L2,50 L2,60 L4,60 L4,76 L2,76 L2,90 L4,90 L4,110 L2,110 L2,128 L4,128 L4,134 L2,134 L2,138 L4,138 L4,150 L2,150 L2,152 L4,152 L4,162 L2,162 L2,176 L1,176 L0,153 L-2,152 L1,152 L1,150 L-2,149 L3,149 L3,139 L0,140 Z " fill="#DFDADE" transform="translate(414,196)"/>
<path d="M0,0 L1,0 L1,138 L3,138 L3,146 L1,146 L1,172 L3,172 L3,184 L1,184 L1,292 L0,292 L-1,172 L-1,138 Z " fill="#303839" transform="translate(217,118)"/>
<path d="M0,0 L2,0 L3,9 L3,12 L0,12 L1,24 L-3,24 L-3,26 L-1,26 L-2,30 L-6,31 L-5,34 L-8,38 L-9,41 L-12,42 L-13,45 L-16,46 L-18,50 L-18,56 L-23,63 L-24,60 L-23,58 L-26,58 L-26,63 L-27,63 L-27,57 L-23,57 L-23,39 L-19,39 L-19,35 L-11,35 L-11,21 L-3,21 L-3,23 L-1,23 L-1,11 L1,11 L1,9 L-1,9 L-1,3 L1,3 Z " fill="#F1E1ED" transform="translate(329,907)"/>
<path d="M0,0 L6,0 L6,17 L8,17 L8,21 L5,22 L5,36 L-4,36 L-4,2 L0,2 Z " fill="#F9F4FB" transform="translate(294,988)"/>
<path d="M0,0 L4,0 L4,4 L6,4 L6,8 L9,8 L9,10 L11,10 L12,8 L11,15 L14,14 L14,24 L17,27 L15,31 L14,28 L12,28 L12,32 L4,32 L4,34 L-4,34 L-4,30 L-6,30 L-6,28 L-8,28 L-8,40 L-14,40 L-14,39 L-9,39 L-9,28 L-13,28 L-13,26 L-15,25 L-9,25 L-5,25 L-3,27 L-5,27 L-5,29 L-2,28 L-2,30 L7,27 L8,20 L4,20 L4,16 L0,16 Z " fill="#E1E1E2" transform="translate(306,866)"/>
<path d="M0,0 L2,2 L1,14 L3,14 L3,8 L5,12 L6,15 L8,15 L10,20 L16,20 L16,23 L20,24 L22,25 L23,30 L27,31 L27,33 L25,33 L25,35 L33,34 L29,35 L29,37 L34,37 L34,38 L28,38 L28,36 L24,36 L24,34 L20,34 L20,32 L8,32 L8,28 L4,28 L4,26 L0,26 L0,20 L-2,20 L-2,14 L0,14 L0,8 L-2,8 L-2,2 L0,2 Z " fill="#FEE7EE" transform="translate(710,232)"/>
<path d="M0,0 L4,0 L4,62 L-2,62 L-2,30 L-1,3 L3,3 L3,1 Z " fill="#F1EDF1" transform="translate(414,548)"/>
<path d="M0,0 L1,0 L1,12 L3,12 L3,52 L1,52 L1,78 L3,78 L3,92 L1,92 L1,110 L0,110 L-1,92 L-1,78 L0,52 L-2,52 L-2,78 L-3,78 L-3,18 L-2,18 Z " fill="#EFE7EE" transform="translate(415,434)"/>
<path d="M0,0 L1,0 L1,15 L3,15 L3,8 L4,8 L4,94 L3,101 L6,102 L2,102 L2,94 L0,94 L0,34 L2,34 L2,32 L0,32 L0,20 L2,20 L2,16 L0,16 Z " fill="#C6E9E8" transform="translate(220,716)"/>
<path d="M0,0 L16,0 L16,8 L20,8 L20,12 L13,13 L12,24 L4,24 L4,12 L-4,12 L-4,8 L0,8 Z " fill="#F8FFFF" transform="translate(328,756)"/>
<path d="M0,0 L2,0 L2,2 L12,2 L11,4 L17,5 L18,3 L21,5 L19,5 L19,9 L11,9 L11,11 L9,11 L9,13 L7,13 L7,17 L5,17 L5,19 L3,19 L3,27 L2,27 L1,12 L-13,12 L-15,6 L-4,6 L-4,4 L-13,4 L-13,3 L-4,3 L-4,1 Z M-17,7 L-15,8 L-17,11 Z " fill="#F1EEEE" transform="translate(607,147)"/>
<path d="M0,0 L1,0 L2,28 L2,150 L1,150 L1,136 L-1,136 L-1,150 L-2,150 L-2,132 L0,132 L0,118 L-2,118 L-2,92 L0,92 L0,52 L-2,52 L-2,40 L0,40 L0,28 L-2,28 L-2,24 L0,24 Z " fill="#111011" transform="translate(418,394)"/>
<path d="M0,0 L1,0 L1,6 L3,6 L3,0 L4,0 L4,6 L14,6 L14,4 L20,4 L20,10 L22,10 L22,12 L24,12 L24,18 L10,18 L10,12 L8,12 L8,14 L0,14 L0,10 L-2,10 L-2,12 L-8,12 L-8,10 L-12,10 L-12,12 L-18,12 L-17,8 L-17,11 L-13,11 L-13,9 L-15,8 L-8,8 L0,6 Z " fill="#DFE2E5" transform="translate(254,920)"/>
<path d="M0,0 L1,2 L4,2 L5,0 L5,2 L7,2 L7,10 L5,10 L5,40 L7,40 L7,46 L5,46 L5,62 L3,62 L3,64 L5,64 L5,72 L7,72 L7,80 L6,80 L6,73 L4,73 L4,79 L3,79 L3,73 L1,73 L1,65 L-1,64 L2,64 L2,62 L-1,61 L1,61 L1,54 L2,54 L2,61 L4,61 L4,46 L1,45 L3,45 L3,41 L1,41 L1,9 L3,9 L3,3 L0,3 Z " fill="#EDDFEC" transform="translate(411,844)"/>
<path d="M0,0 L4,0 L4,58 L3,63 L6,63 L6,65 L2,65 L2,89 L1,89 L-1,63 L-3,61 L-3,58 L-1,57 L-1,45 L1,39 L0,29 L-1,25 L-1,3 Z M-2,8 Z M-2,46 Z " fill="#FEFAFE" transform="translate(411,486)"/>
<path d="M0,0 L3,1 L3,3 L6,1 L9,1 L9,6 L19,4 L26,5 L26,7 L44,6 L44,8 L48,8 L48,10 L17,9 L0,8 L-1,6 L-1,9 L-9,9 L-9,11 L-14,11 L-16,9 L-16,6 L-19,5 L-19,3 L-15,2 L-11,3 L-9,2 L-7,3 L-1,3 Z " fill="#FEF5FC" transform="translate(507,160)"/>
<path d="M0,0 L2,1 L51,4 L51,6 L53,7 L51,7 L51,9 L55,9 L56,6 L56,10 L50,10 L50,8 L38,8 L38,10 L32,10 L32,8 L16,8 L16,6 L0,6 L0,4 L-8,4 L-8,3 L0,3 Z " fill="#F2E8EF" transform="translate(506,166)"/>
<path d="M0,0 L1,0 L2,62 L2,106 L1,126 L0,126 L0,106 L-2,106 L-2,62 L0,62 Z " fill="#1D1C1D" transform="translate(418,548)"/>
<path d="M0,0 L2,2 L9,2 L12,5 L15,5 L15,7 L13,7 L13,9 L17,10 L16,13 L22,13 L23,16 L17,16 L17,14 L15,14 L15,10 L13,10 L13,12 L-1,12 L-1,10 L-15,10 L-15,8 L-19,7 L-15,7 L-15,5 L-19,4 L-14,2 L-14,5 L-3,4 L-3,1 Z " fill="#F1E5EE" transform="translate(475,156)"/>
<path d="M0,0 L3,1 L3,5 L5,5 L5,7 L17,7 L17,5 L19,5 L19,13 L-7,13 L-7,9 L-9,9 L-9,1 Z " fill="#141414" transform="translate(779,81)"/>
<path d="M0,0 L6,0 L6,1 L1,1 L1,5 L3,5 L3,3 L6,4 L4,4 L3,8 L5,8 L6,6 L7,9 L4,14 L12,15 L13,17 L10,17 L9,20 L13,20 L14,29 L1,29 L1,36 L0,36 L0,28 L4,28 L4,22 L0,22 L0,18 L-4,18 L-4,12 L0,12 L0,8 L2,8 L2,6 L0,6 Z " fill="#E7E2E4" transform="translate(786,118)"/>
<path d="M0,0 L4,0 L4,8 L8,8 L8,10 L4,10 L4,26 L2,26 L2,10 L-4,10 L-4,12 L-8,12 L-8,46 L-12,46 L-12,28 L-14,28 L-14,26 L-12,26 L-12,24 L-10,24 L-10,16 L-12,16 L-12,8 L-11,8 L-11,15 L-9,15 L-9,8 L-4,8 L-4,6 L0,6 L0,3 L3,3 L3,1 Z " fill="#222122" transform="translate(298,978)"/>
<path d="M0,0 L1,0 L2,38 L2,90 L1,90 L1,78 L-1,78 L0,99 L-2,100 L-2,92 L-4,92 L-4,90 L-2,90 L-2,74 L0,74 L0,68 L-2,68 L-2,38 L0,38 L0,30 L-2,30 L-2,28 L0,28 Z " fill="#110F11" transform="translate(418,816)"/>
<path d="M0,0 L1,0 L1,5 L-4,7 L-5,12 L-8,15 L-11,20 L-15,25 L-16,30 L-19,36 L-22,44 L-21,47 L-32,47 L-36,45 L-32,45 L-32,43 L-35,42 L-26,42 L-25,33 L-22,32 L-21,24 L-18,24 L-17,20 L-15,17 L-10,16 L-8,12 L-5,5 L-2,5 L-1,1 Z " fill="#FEDBEC" transform="translate(410,944)"/>
<path d="M0,0 L3,2 L1,2 L1,5 L36,5 L38,1 L39,3 L45,3 L43,4 L42,7 L39,8 L39,4 L37,4 L37,13 L40,14 L36,14 L36,6 L0,6 L0,4 L-28,4 L-28,6 L-38,6 L-38,8 L-44,8 L-44,7 L-39,7 L-39,5 L-43,5 L-43,3 L-31,1 Z " fill="#EEEEEE" transform="translate(670,218)"/>
<path d="M0,0 L7,0 L7,4 L9,4 L10,0 L10,4 L14,4 L14,10 L4,10 L4,16 L6,16 L6,18 L10,18 L10,34 L9,34 L9,22 L7,22 L7,34 L6,34 L5,21 L1,19 L1,16 L3,16 L3,10 L1,10 L1,14 L-1,14 L-1,18 L-7,18 L-8,13 L0,13 Z M-10,14 L-8,15 L-10,18 Z " fill="#E7EBE6" transform="translate(728,64)"/>
<path d="M0,0 L1,0 L1,50 L3,50 L3,56 L5,56 L5,58 L1,58 L1,82 L3,82 L3,110 L1,110 L1,118 L0,118 L-1,110 L-1,50 Z M0,51 L0,56 L2,53 L2,51 Z " fill="#111313" transform="translate(215,0)"/>
<path d="M0,0 L1,0 L1,107 L3,108 L2,114 L4,114 L4,138 L0,138 Z " fill="#060707" transform="translate(214,302)"/>
<path d="M0,0 L8,0 L7,4 L6,22 L5,23 L4,33 L3,33 L2,49 L0,49 Z " fill="#DEFDFD" transform="translate(217,0)"/>
<path d="M0,0 L6,0 L6,8 L10,8 L10,24 L12,24 L12,16 L18,16 L17,20 L17,17 L13,17 L14,25 L6,25 L5,27 L5,24 L5,15 L4,12 L1,11 L1,58 L0,58 L0,10 L4,10 L4,8 L0,8 Z " fill="#CACDCF" transform="translate(266,966)"/>
<path d="M0,0 L28,0 L28,2 L64,2 L64,10 L63,10 L63,3 L3,5 L0,6 L-9,6 L-16,5 L-16,4 L-10,4 L-10,2 L0,2 Z " fill="#1C1C1C" transform="translate(642,222)"/>
<path d="M0,0 L1,0 L2,36 L1,174 L0,174 L0,36 L-2,36 L-2,28 L0,28 Z " fill="#A9C1C3" transform="translate(218,82)"/>
<path d="M0,0 L1,4 L3,4 L3,24 L5,24 L5,30 L3,30 L3,32 L1,32 L1,34 L-1,34 L-1,38 L-5,37 L-2,37 L-2,35 L-5,35 L-4,28 L-2,28 L-3,1 L-2,3 L0,3 Z " fill="#FCEEF8" transform="translate(857,230)"/>
<path d="M0,0 L13,0 L13,4 L15,4 L15,7 L19,8 L20,16 L19,13 L17,13 L17,16 L14,16 L14,24 L12,24 L12,11 L15,11 L15,8 L13,8 L13,5 L7,5 L7,12 L4,12 L4,6 L-2,6 L-2,18 L-6,17 L-3,17 L-4,12 L-4,4 L0,4 Z " fill="#1B1D1D" transform="translate(246,834)"/>
<path d="M0,0 L32,0 L32,1 L40,2 L40,3 L31,3 L31,5 L42,5 L60,6 L63,7 L63,5 L60,4 L63,4 L64,2 L65,5 L67,5 L68,2 L68,6 L64,6 L64,8 L60,8 L60,10 L40,10 L40,6 L30,6 L30,4 L0,4 L0,3 L30,3 L30,1 L0,1 Z " fill="#E4D7E1" transform="translate(784,266)"/>
<path d="M0,0 L6,0 L6,1 L1,1 L2,12 L2,22 L1,22 L1,16 L-1,16 L0,22 L0,50 L-1,50 L-1,26 L-3,26 L-2,82 L-3,98 L-4,98 L-4,82 L-6,82 L-6,72 L-4,72 L-4,22 L-2,22 L-2,12 L0,12 Z " fill="#2A292A" transform="translate(422,174)"/>
<path d="M0,0 L6,0 L6,4 L8,4 L8,6 L10,6 L10,24 L8,24 L8,26 L12,26 L12,36 L4,37 L5,27 L7,27 L7,24 L4,23 L6,23 L5,16 L5,7 L3,7 L0,3 L5,3 L5,1 L0,1 Z " fill="#F3EBED" transform="translate(846,70)"/>
<path d="M0,0 L6,0 L6,24 L4,24 L4,30 L2,30 L2,38 L0,38 Z " fill="#171717" transform="translate(450,0)"/>
<path d="M0,0 L4,0 L4,44 L0,44 L-1,27 Z " fill="#FDF8FD" transform="translate(363,980)"/>
<path d="M0,0 L1,0 L1,11 L3,11 L3,0 L4,0 L4,12 L2,12 L2,14 L0,14 L0,18 L-4,18 L-4,22 L-10,22 L-10,24 L-22,24 L-22,23 L-11,23 L-11,21 L-13,20 L-10,12 L-5,4 L-3,8 L-3,11 L0,11 Z " fill="#F2CADC" transform="translate(400,968)"/>
<path d="M0,0 L2,0 L2,4 L4,4 L4,24 L2,24 L2,26 L-2,24 L-2,22 L-4,22 L-4,4 L0,4 Z " fill="#171717" transform="translate(374,842)"/>
<path d="M0,0 L12,0 L12,14 L0,14 Z " fill="#131313" transform="translate(530,0)"/>
<path d="M0,0 L4,0 L4,30 L-6,30 L-6,26 L-4,26 L-4,22 L-2,22 L-2,18 L0,18 Z " fill="#1C1C1C" transform="translate(498,0)"/>
<path d="M0,0 L4,0 L3,51 L0,49 L-1,39 L-2,39 L-2,14 L0,14 Z " fill="#FEF8FE" transform="translate(411,434)"/>
<path d="M0,0 L1,0 L1,18 L3,18 L3,34 L-3,34 L-3,36 L3,36 L3,50 L-1,49 L2,49 L2,37 L-7,37 L-7,28 L-3,28 L-3,18 L0,18 Z " fill="#D4E3E0" transform="translate(759,0)"/>
<path d="M0,0 L8,0 L8,10 L7,10 L7,1 L1,1 L1,3 L5,3 L5,10 L4,10 L4,5 L2,6 L1,22 L4,23 L3,25 L1,25 L1,23 L-8,23 L-8,22 L0,22 L0,12 L-12,12 L-12,4 L0,4 Z " fill="#DAD4D4" transform="translate(650,150)"/>
<path d="M0,0 L2,2 L2,9 L-3,9 L-3,18 L0,19 L-1,22 L-3,22 L-3,19 L-5,19 L-4,21 L-4,33 L-1,33 L-1,35 L3,36 L3,38 L9,38 L9,39 L3,39 L3,41 L10,41 L10,42 L2,42 L2,40 L-2,40 L-6,35 L-8,34 L-8,22 L-6,22 L-6,18 L-4,18 L-4,8 L-2,8 L-2,2 L0,2 Z " fill="#EEE6EA" transform="translate(580,172)"/>
<path d="M0,0 L4,2 L2,2 L2,4 L6,4 L6,18 L4,18 L4,36 L2,36 L2,42 L-2,42 L-2,44 L-8,44 L-8,43 L-3,43 L-3,41 L-8,41 L-5,40 L-4,35 L-1,34 L0,26 L1,26 L1,35 L3,35 L2,18 L0,5 Z " fill="#E2C0D3" transform="translate(412,924)"/>
<path d="M0,0 L4,0 L4,4 L6,4 L6,8 L8,8 L8,14 L10,14 L10,16 L12,16 L12,24 L8,24 L8,20 L4,20 L4,16 L0,16 Z " fill="#2B2B2B" transform="translate(306,866)"/>
<path d="M0,0 L4,0 L4,2 L18,2 L18,4 L32,4 L32,2 L34,2 L34,6 L36,6 L35,8 L18,8 L17,7 L4,6 L1,4 L-10,3 L-10,2 L0,2 Z " fill="#020202" transform="translate(456,164)"/>
<path d="M0,0 L1,0 L1,44 L3,44 L3,64 L1,64 L1,92 L0,92 L-1,64 L-1,44 Z " fill="#D9D5D8" transform="translate(415,610)"/>
<path d="M0,0 L12,0 L12,6 L10,6 L10,8 L8,8 L8,12 L14,12 L16,15 L20,16 L20,20 L28,20 L28,21 L16,21 L16,19 L19,19 L19,17 L14,19 L11,18 L11,16 L7,15 L7,13 L4,13 L4,8 L5,11 L7,11 L6,5 L-1,4 Z M10,18 Z " fill="#E7E3E3" transform="translate(718,134)"/>
<path d="M0,0 L14,0 L14,8 L7,9 L6,10 L-1,10 L0,8 L-9,7 L-9,5 L0,5 Z " fill="#F2F0EF" transform="translate(618,142)"/>
<path d="M0,0 L26,0 L26,2 L28,3 L18,5 L13,5 L13,7 L17,7 L17,9 L12,9 L12,7 L-3,7 L-3,5 L11,4 L0,3 Z " fill="#FEFEFD" transform="translate(614,216)"/>
<path d="M0,0 L8,0 L8,1 L1,1 L1,5 L3,5 L4,12 L8,12 L8,10 L15,4 L16,8 L14,8 L14,10 L12,10 L12,12 L10,12 L10,14 L8,14 L8,16 L4,16 L4,20 L-4,20 L-4,12 L0,12 Z " fill="#1C1C1C" transform="translate(410,86)"/>
<path d="M0,0 L5,0 L5,2 L13,2 L13,3 L5,3 L5,5 L14,5 L14,6 L4,6 L4,4 L0,8 L-8,8 L-8,10 L-14,10 L-14,14 L-20,14 L-20,13 L-15,13 L-15,11 L-20,11 L-18,10 L-18,8 L-16,8 L-16,6 L-8,3 L-1,3 Z " fill="#EFE4EA" transform="translate(442,160)"/>
<path d="M0,0 L1,0 L2,28 L2,52 L1,92 L0,92 L0,52 L-2,52 L-2,40 L0,40 L0,28 L-2,28 L-2,24 L0,24 Z " fill="#242123" transform="translate(418,394)"/>
<path d="M0,0 L1,0 L2,14 L2,30 L3,45 L4,49 L4,52 L2,52 L2,48 L0,48 L0,46 L-2,46 L-2,30 L0,30 L0,24 L-2,24 L-2,14 L0,14 Z " fill="#0B0A0A" transform="translate(856,182)"/>
<path d="M0,0 L2,0 L2,4 L4,4 L5,11 L3,11 L3,44 L0,44 Z " fill="#000000" transform="translate(368,980)"/>
<path d="M0,0 L4,1 L1,1 L1,5 L3,5 L4,3 L4,6 L7,6 L8,14 L6,18 L5,24 L4,24 L4,18 L-4,18 L-4,8 L2,8 L2,6 L0,6 Z " fill="#F2EFEE" transform="translate(690,118)"/>
<path d="M0,0 L2,4 L2,48 L0,46 L-1,32 L-2,32 L-3,22 L-2,6 L0,6 Z " fill="#FEF7FE" transform="translate(411,385)"/>
<path d="M0,0 L3,0 L3,4 L14,4 L14,7 L25,7 L26,9 L11,9 L11,11 L26,11 L26,12 L10,12 L10,8 L2,8 L2,6 L-6,6 L-6,4 L-10,3 L0,1 Z " fill="#EEEBEA" transform="translate(600,212)"/>
<path d="M0,0 L8,0 L8,2 L16,1 L16,3 L29,2 L30,5 L28,5 L28,7 L37,7 L37,8 L27,8 L27,6 L25,6 L25,8 L15,8 L15,6 L7,6 L7,4 L-3,4 L-3,3 L7,3 L7,1 L0,1 Z " fill="#E9DBE4" transform="translate(747,264)"/>
<path d="M0,0 L1,0 L1,34 L3,34 L3,40 L1,40 L1,46 L3,46 L3,74 L2,74 L2,47 L0,47 L0,73 L-1,73 L-1,47 L-3,47 L-3,40 L-2,40 L-2,46 L0,46 L-1,35 L-3,34 L0,34 Z " fill="#D7C6D5" transform="translate(415,770)"/>
<path d="M0,0 L1,0 L1,6 L7,6 L7,2 L13,2 L15,5 L19,6 L19,0 L25,0 L25,6 L27,6 L26,10 L26,7 L24,7 L23,10 L23,7 L15,7 L15,9 L9,8 L6,11 L0,10 L0,9 L7,9 L7,7 L-3,7 L-3,1 L-2,1 L-2,6 L0,6 Z " fill="#D9D2D5" transform="translate(747,156)"/>
<path d="M0,0 L10,0 L10,4 L18,4 L18,0 L24,0 L24,2 L26,2 L26,22 L25,22 L25,3 L20,5 L7,5 L2,4 L1,22 L0,22 L0,8 L-2,8 L-2,2 L0,2 Z " fill="#DFE0E1" transform="translate(220,1002)"/>
<path d="M0,0 L10,0 L10,2 L18,2 L18,3 L11,4 L17,5 L17,6 L9,6 L9,4 L1,4 L1,6 L-4,6 L-5,10 L-5,6 L-7,6 L-5,15 L-9,15 L-9,17 L-4,17 L-4,18 L-10,18 L-10,10 L-8,10 L-8,2 L0,2 Z " fill="#ECEDEE" transform="translate(782,60)"/>
<path d="M0,0 L1,0 L1,16 L3,16 L3,20 L1,20 L1,32 L3,32 L3,34 L1,34 L1,94 L3,94 L3,102 L2,102 L2,95 L0,95 L0,102 L-1,102 L-1,16 Z " fill="#2A3332" transform="translate(219,716)"/>
<path d="M0,0 L1,0 L1,18 L3,18 L3,24 L1,24 L1,28 L3,28 L3,40 L1,40 L1,42 L3,42 L3,52 L1,52 L1,66 L0,66 L-1,43 L-3,42 L0,42 L0,40 L-3,39 L2,39 L2,29 L-1,30 L-1,18 Z " fill="#DBD0DA" transform="translate(415,306)"/>
<path d="M0,0 L9,1 L9,3 L3,5 L1,9 L-2,10 L-2,12 L-7,13 L-7,5 L-9,5 L-9,1 Z " fill="#010101" transform="translate(420,86)"/>
<path d="M0,0 L1,0 L2,8 L2,34 L1,46 L0,46 L0,34 L-2,34 L-2,8 L0,8 Z " fill="#CDE5E6" transform="translate(220,256)"/>
<path d="M0,0 L1,0 L1,8 L13,8 L13,18 L5,18 L5,14 L1,14 L1,12 L-3,11 L-2,8 L0,8 Z " fill="#202020" transform="translate(637,154)"/>
<path d="M0,0 L6,0 L6,3 L8,3 L8,6 L5,6 L5,19 L4,19 L4,7 L2,7 L2,19 L0,17 L-1,14 L-6,14 L-6,7 L-3,7 L0,7 Z " fill="#F0F7FA" transform="translate(253,839)"/>
<path d="M0,0 L1,0 L1,10 L3,10 L3,22 L1,22 L1,46 L-1,46 L-1,50 L1,50 L1,62 L0,62 L0,51 L-3,52 L-3,36 L-2,36 L-2,45 L0,45 L-1,22 L-1,10 Z " fill="#DACDD9" transform="translate(417,372)"/>
<path d="M0,0 L30,0 L30,2 L40,2 L39,6 L39,3 L-10,3 L-10,2 L0,2 Z " fill="#1B191B" transform="translate(784,270)"/>
<path d="M0,0 L1,0 L2,22 L0,27 L-3,27 L-3,29 L3,29 L4,30 L4,36 L3,36 L2,31 L1,36 L0,36 L0,30 L-4,30 L-4,26 L-8,26 L-8,18 L-2,18 L-2,20 L0,20 Z " fill="#CBDDD9" transform="translate(698,0)"/>
<path d="M0,0 L2,2 L1,14 L3,15 L1,25 L9,24 L5,25 L5,27 L14,27 L20,28 L20,29 L9,29 L9,31 L20,31 L20,32 L8,32 L8,28 L4,28 L4,26 L0,26 L0,20 L-2,20 L-2,14 L0,14 L0,8 L-2,8 L-2,2 L0,2 Z " fill="#DEC8CE" transform="translate(710,232)"/>
<path d="M0,0 L2,1 L-1,5 L0,7 L2,8 L0,12 L0,16 L-2,16 L-2,12 L-4,12 L-4,8 L-6,8 L-6,52 L-7,52 L-7,8 L-10,8 L-8,4 L-3,4 L-3,2 Z " fill="#D4CAD4" transform="translate(374,972)"/>
<path d="M0,0 L3,0 L3,6 L6,7 L7,11 L9,11 L10,8 L10,12 L8,12 L8,14 L6,14 L6,22 L5,22 L4,7 L-10,7 L-10,2 L0,2 Z " fill="#DDDBDB" transform="translate(604,152)"/>
<path d="M0,0 L4,0 L4,8 L2,8 L2,34 L4,34 L4,46 L0,46 Z " fill="#1F2425" transform="translate(216,256)"/>
<path d="M0,0 L18,0 L18,2 L16,2 L16,8 L15,8 L15,3 L2,5 L-24,5 L-24,4 L-18,4 L-18,2 L-6,2 L-6,4 L0,4 Z " fill="#383638" transform="translate(562,172)"/>
<path d="M0,0 L6,0 L6,3 L10,4 L12,5 L13,10 L17,11 L17,13 L15,13 L15,15 L23,14 L19,15 L19,17 L24,17 L24,18 L18,18 L18,16 L14,16 L14,14 L10,14 L10,11 L-1,11 L-1,9 L10,9 L10,7 L8,7 L8,5 L4,5 L4,3 L1,3 Z " fill="#F3DEE5" transform="translate(720,252)"/>
<path d="M0,0 L1,3 L15,4 L15,6 L27,6 L27,7 L15,7 L15,9 L28,9 L28,10 L14,10 L14,8 L0,8 L0,6 L-4,5 L0,5 L0,3 L-4,2 Z " fill="#E9D8E2" transform="translate(460,158)"/>
<path d="M0,0 L12,0 L12,2 L14,2 L14,0 L26,0 L26,1 L15,1 L15,3 L26,3 L24,5 L17,5 L11,6 L9,5 L3,5 L-3,6 L0,5 L0,3 L-2,2 L0,2 Z " fill="#E8E1E2" transform="translate(660,158)"/>
<path d="M0,0 L1,0 L1,6 L3,6 L3,30 L-1,30 L-1,6 Z " fill="#101313" transform="translate(215,410)"/>
<path d="M0,0 L5,1 L6,7 L8,6 L8,24 L6,25 L2,26 L2,24 L4,24 L4,6 L2,6 L2,4 L0,4 Z " fill="#080707" transform="translate(852,70)"/>
<path d="M0,0 L1,0 L1,50 L3,50 L3,56 L5,56 L5,58 L1,58 L1,82 L0,82 L-1,50 Z M0,51 L0,56 L2,53 L2,51 Z " fill="#293131" transform="translate(215,0)"/>
<path d="M0,0 L1,0 L1,26 L3,26 L3,40 L1,40 L1,58 L0,58 L-1,40 L-1,26 Z " fill="#DAD1D9" transform="translate(415,486)"/>
<path d="M0,0 L6,0 L6,16 L5,16 L5,1 L1,1 L1,3 L3,3 L3,16 L0,16 L0,3 L-3,3 L-3,36 L-4,36 L-4,2 L0,2 Z " fill="#D4CFD7" transform="translate(294,988)"/>
<path d="M0,0 L2,1 L18,2 L19,5 L17,5 L17,7 L32,7 L32,8 L16,8 L16,6 L0,6 L0,4 L-8,4 L-8,3 L0,3 Z " fill="#E4DAE0" transform="translate(506,166)"/>
<path d="M0,0 L2,0 L2,2 L6,2 L8,5 L8,8 L6,8 L6,12 L-12,12 L-12,10 L0,10 Z " fill="#1C1B1C" transform="translate(718,168)"/>
<path d="M0,0 L4,0 L4,22 L2,22 L2,24 L4,24 L3,28 L3,25 L-1,26 L-1,24 L1,24 L1,22 L-2,21 L0,21 L0,3 L3,3 L3,1 Z " fill="#E8E6E6" transform="translate(562,18)"/>
<path d="M0,0 L4,0 L4,18 L2,18 L2,22 L0,22 L0,26 L-2,26 L-3,30 L-4,22 L-3,25 L-1,25 L-2,20 L1,21 L0,19 Z " fill="#E8E8E8" transform="translate(494,0)"/>
<path d="M0,0 L8,0 L8,2 L24,2 L24,4 L40,4 L40,5 L7,5 L1,4 Z " fill="#131112" transform="translate(498,170)"/>
<path d="M0,0 L10,0 L14,1 L14,8 L7,8 L7,4 L5,4 L4,8 L4,4 L2,4 L1,7 L1,5 L-1,5 L-2,8 L-2,4 L0,4 Z " fill="#1C1E1D" transform="translate(614,26)"/>
<path d="M0,0 L2,3 L3,10 L3,13 L1,13 L0,11 L-2,12 L-3,30 L-5,30 L-5,8 L-2,8 Z M-1,13 L1,14 L0,22 L-1,22 Z " fill="#E7FEFE" transform="translate(222,51)"/>
<path d="M0,0 L4,1 L1,1 L2,18 L1,36 L-3,36 L-3,22 L-5,21 L0,21 L0,17 L-2,16 L0,16 Z " fill="#918C92" transform="translate(302,988)"/>
<path d="M0,0 L1,4 L3,4 L3,7 L7,8 L8,16 L7,13 L5,13 L5,16 L2,16 L2,24 L0,24 L0,11 L3,11 L3,8 L1,8 L1,5 L-5,5 L-5,12 L-6,12 L-6,4 L0,4 Z " fill="#C6D1D1" transform="translate(258,834)"/>
<path d="M0,0 L1,2 L3,2 L4,0 L4,4 L17,4 L17,11 L19,11 L19,4 L20,4 L20,12 L16,12 L16,8 L2,8 L2,6 L0,6 Z " fill="#191919" transform="translate(578,94)"/>
<path d="M0,0 L12,0 L12,14 L14,14 L18,19 L20,20 L20,24 L28,24 L28,25 L16,25 L16,21 L12,19 L10,14 L11,1 L1,1 L1,8 L0,8 Z " fill="#232323" transform="translate(562,110)"/>
<path d="M0,0 L8,0 L8,12 L2,12 L2,8 L0,8 Z " fill="#DCDCDB" transform="translate(770,82)"/>
<path d="M0,0 L4,0 L4,18 L3,34 L2,34 L2,18 L0,18 Z " fill="#151817" transform="translate(760,0)"/>
<path d="M0,0 L6,4 L27,7 L27,8 L16,9 L16,7 L14,8 L8,8 L8,6 L1,6 L-3,5 L-3,3 L-8,3 L-6,1 Z " fill="#FEF0F8" transform="translate(747,258)"/>
<path d="M0,0 L1,4 L-4,10 L-1,10 L-2,18 L1,19 L-2,25 L-4,25 L-4,13 L-5,11 L-8,10 L-8,1 L-6,1 L-5,4 Z " fill="#FCF5F9" transform="translate(715,221)"/>
<path d="M0,0 L4,0 L4,2 L12,2 L12,4 L20,4 L20,8 L36,8 L36,9 L15,9 L12,7 L19,7 L19,5 L4,6 L0,2 Z " fill="#1A1A1A" transform="translate(590,216)"/>
<path d="M0,0 L1,0 L2,8 L2,22 L1,27 L3,27 L3,22 L4,22 L4,32 L2,32 L2,28 L0,28 L0,22 L-2,22 L-2,8 L0,8 Z " fill="#DDE2E3" transform="translate(218,890)"/>
<path d="M0,0 L4,5 L6,11 L5,27 L10,27 L10,28 L4,28 L4,18 L2,18 L2,11 L-1,11 L-1,4 Z " fill="#D5EDED" transform="translate(224,806)"/>
<path d="M0,0 L1,0 L0,18 L-1,20 L-4,20 L-4,44 L-5,44 L-5,20 L-7,20 L-7,14 L-1,14 L-1,2 Z " fill="#C5E6E7" transform="translate(223,396)"/>
<path d="M0,0 L3,1 L6,2 L6,4 L1,5 L0,16 L-2,17 L-2,26 L-4,26 L-5,12 L-5,5 L-1,4 Z " fill="#FEFCFD" transform="translate(421,169)"/>
<path d="M0,0 L1,2 L3,2 L4,0 L4,4 L14,4 L15,1 L15,5 L3,5 L3,3 L1,3 L1,5 L-3,5 L-3,7 L-15,7 L-15,3 L-17,2 L-13,1 L-13,3 L-3,3 L0,4 L0,2 L-2,1 Z " fill="#DDDEDF" transform="translate(597,29)"/>
<path d="M0,0 L6,0 L6,9 L9,9 L9,24 L7,24 L7,11 L5,11 L5,8 L0,8 Z " fill="#DDDFDF" transform="translate(266,966)"/>
<path d="M0,0 L1,0 L1,16 L-1,16 L-1,18 L1,18 L1,26 L3,26 L3,34 L2,34 L2,27 L0,27 L0,33 L-1,33 L-1,27 L-3,27 L-3,19 L-5,18 L-2,18 L-2,16 L-5,15 L-3,15 L-3,8 L-2,8 L-2,15 L0,15 Z " fill="#E1C8D9" transform="translate(415,890)"/>
<path d="M0,0 L3,0 L3,5 L1,6 L0,12 L4,12 L4,4 L8,4 L9,13 L-4,13 L-4,20 L-5,20 L-5,12 L-1,12 L-1,6 L-5,6 L-4,2 L-4,5 L0,5 Z " fill="#9A9396" transform="translate(791,134)"/>
<path d="M0,0 L1,4 L5,4 L5,24 L1,23 L4,23 L4,21 L1,21 L0,5 L-2,4 L0,4 Z " fill="#E7E4E5" transform="translate(565,54)"/>
<path d="M0,0 L4,2 L2,2 L2,4 L4,4 L4,22 L0,22 L0,5 L-2,4 L1,4 Z " fill="#EAE8EB" transform="translate(282,1002)"/>
<path d="M0,0 L6,0 L6,1 L1,1 L2,12 L2,22 L1,22 L1,16 L-1,16 L0,22 L0,50 L-1,50 L-1,26 L-3,26 L-2,12 L0,12 Z " fill="#121212" transform="translate(422,174)"/>
<path d="M0,0 L1,3 L-1,6 L-18,6 L-20,5 L-20,2 L-1,1 Z " fill="#FCF7F9" transform="translate(725,179)"/>
<path d="M0,0 L3,1 L3,6 L-1,11 L-10,13 L-10,18 L-13,17 L-13,8 L-2,7 Z " fill="#FEFDFD" transform="translate(696,135)"/>
<path d="M0,0 L4,0 L4,20 L0,20 Z " fill="#121112" transform="translate(416,722)"/>
<path d="M0,0 L4,0 L4,20 L0,20 Z " fill="#ECE5EB" transform="translate(414,286)"/>
<path d="M0,0 L8,0 L8,2 L12,2 L12,4 L16,4 L15,8 L15,5 L12,5 L11,8 L11,6 L6,6 L5,14 L4,14 L4,6 L0,6 Z " fill="#E2E0DF" transform="translate(626,164)"/>
<path d="M0,0 L1,0 L2,14 L2,32 L1,32 L1,18 L-1,18 L0,38 L-1,36 L-3,36 L-4,38 L-4,32 L-2,32 L-2,14 L0,14 Z " fill="#221B1E" transform="translate(418,928)"/>
<path d="M0,0 L3,0 L3,10 L5,10 L5,16 L3,16 L3,32 L5,32 L4,34 L1,34 L1,11 L-1,10 Z " fill="#E2DADF" transform="translate(851,196)"/>
<path d="M0,0 L12,0 L12,6 L16,6 L15,10 L15,7 L8,7 L6,6 L6,4 L-4,5 L0,4 Z " fill="#D9D2D3" transform="translate(830,60)"/>
<path d="M0,0 L5,1 L2,11 L-2,13 L-15,13 L-16,10 L-2,9 L-1,1 Z " fill="#FEFEFD" transform="translate(632,169)"/>
<path d="M0,0 L8,0 L8,12 L4,11 L7,11 L7,1 L1,1 L1,14 L3,15 L1,15 L1,17 L-15,17 L-16,20 L-16,16 L-4,16 L-4,12 L0,12 Z " fill="#2C2C2C" transform="translate(434,66)"/>
<path d="M0,0 L4,0 L4,6 L6,6 L6,8 L8,8 L8,12 L12,14 L14,18 L12,18 L12,22 L8,21 L11,21 L11,19 L8,18 L6,15 L6,11 L3,10 L2,6 L3,1 Z " fill="#212322" transform="translate(686,42)"/>
<path d="M0,0 L1,4 L3,4 L3,24 L5,24 L5,30 L3,30 L3,32 L1,32 L1,34 L-1,34 L-1,38 L-5,37 L-2,37 L-3,32 L-1,31 L1,25 L-1,24 L2,24 L2,5 L-1,6 Z " fill="#D7C5D0" transform="translate(857,230)"/>
<path d="M0,0 L1,2 L7,2 L5,3 L4,6 L1,7 L1,3 L-1,3 L-1,12 L2,13 L-2,13 L-2,5 L-38,5 L-38,4 L-2,4 Z " fill="#CCC9CC" transform="translate(708,219)"/>
<path d="M0,0 L2,2 L2,9 L-3,9 L-3,18 L0,19 L-1,22 L-3,22 L-3,19 L-5,19 L-4,23 L-7,23 L-6,34 L-8,34 L-8,22 L-6,22 L-6,18 L-4,18 L-4,8 L-2,8 L-2,2 L0,2 Z " fill="#DCD4D8" transform="translate(580,172)"/>
<path d="M0,0 L6,0 L6,2 L8,2 L8,0 L12,1 L9,1 L9,3 L12,4 L9,8 L7,12 L7,6 L5,6 L5,12 L4,12 L4,6 L0,6 Z " fill="#DFD6DA" transform="translate(774,154)"/>
<path d="M0,0 L4,1 L1,1 L2,6 L7,6 L7,8 L9,8 L10,12 L9,23 L13,23 L14,20 L14,24 L8,24 L8,12 L4,10 L4,8 L-1,7 L-2,4 L-4,4 L-4,2 L0,2 Z " fill="#252525" transform="translate(548,122)"/>
<path d="M0,0 L1,2 L3,2 L4,0 L4,2 L6,2 L6,8 L-8,8 L-8,6 L-10,5 L-8,5 L-7,3 L0,3 Z " fill="#D4DAD7" transform="translate(748,58)"/>
<path d="M0,0 L1,0 L2,13 L2,31 L0,35 L-1,31 L-1,12 Z " fill="#F9F4F9" transform="translate(413,513)"/>
<path d="M0,0 L2,0 L2,4 L4,4 L3,6 L-14,6 L-14,2 L0,2 Z " fill="#121112" transform="translate(488,166)"/>
<path d="M0,0 L2,2 L7,3 L10,6 L12,8 L0,8 L0,6 L-10,6 L-10,5 L-3,4 L-3,1 Z " fill="#FEEFFA" transform="translate(475,156)"/>
<path d="M0,0 L2,0 L2,6 L7,7 L7,15 L3,15 L3,11 L-1,11 L-1,6 L-4,6 L-4,4 L0,4 Z " fill="#1B1B1C" transform="translate(311,875)"/>
<path d="M0,0 L3,0 L3,22 L0,22 L0,4 L-2,4 L-2,2 L0,2 Z " fill="#151516" transform="translate(286,1002)"/>
<path d="M0,0 L1,2 L4,2 L4,4 L6,4 L6,1 L9,1 L9,4 L14,4 L15,7 L3,8 L3,6 L-4,6 L-4,2 Z " fill="#FDF7F9" transform="translate(587,207)"/>
<path d="M0,0 L7,0 L7,4 L0,6 L-4,10 L-10,10 L-10,7 L-5,6 L-4,2 Z " fill="#FDF8FC" transform="translate(473,128)"/>
<path d="M0,0 L1,0 L1,10 L9,10 L9,18 L1,18 L1,17 L8,17 L8,15 L0,15 L-2,10 L0,10 Z " fill="#D7E2DF" transform="translate(625,0)"/>
<path d="M0,0 L1,0 L1,5 L3,5 L3,0 L4,3 L11,3 L12,0 L12,4 L8,4 L8,12 L2,12 L2,6 L0,6 Z " fill="#C5CFD0" transform="translate(234,834)"/>
<path d="M0,0 L2,0 L1,5 L-5,5 L-5,9 L-9,8 L-6,8 L-6,6 L-17,6 L-16,2 L0,2 Z " fill="#0E0E0E" transform="translate(435,81)"/>
<path d="M0,0 L3,0 L3,23 L0,23 Z " fill="#020202" transform="translate(387,0)"/>
<path d="M0,0 L3,0 L2,33 L0,33 Z " fill="#FFFFFF" transform="translate(291,991)"/>
<path d="M0,0 L1,0 L1,36 L3,36 L3,40 L1,40 L1,56 L0,56 L-1,36 Z " fill="#2E3939" transform="translate(217,660)"/>
<path d="M0,0 L2,0 L2,18 L0,18 L0,16 L-4,16 L-4,10 L-2,10 L-2,6 L0,6 Z " fill="#202020" transform="translate(476,66)"/>
<path d="M0,0 L4,2 L2,2 L2,8 L4,8 L4,22 L0,22 Z " fill="#151516" transform="translate(216,1002)"/>
<path d="M0,0 L4,0 L4,24 L2,24 L2,14 L0,14 Z " fill="#191719" transform="translate(416,358)"/>
<path d="M0,0 L11,0 L11,4 L23,4 L23,5 L2,6 Z " fill="#E9E7E6" transform="translate(607,174)"/>
<path d="M0,0 L4,1 L1,1 L1,5 L3,5 L4,3 L4,6 L7,6 L8,13 L2,13 L3,9 L-3,9 L-3,17 L4,17 L4,18 L-4,18 L-4,8 L2,8 L2,6 L0,6 Z " fill="#D6D5D4" transform="translate(690,118)"/>
<path d="M0,0 L1,0 L1,9 L3,10 L2,16 L-2,16 L-2,18 L-8,18 L-8,17 L-3,17 L-3,15 L-8,15 L-5,14 L-4,9 L-1,8 Z " fill="#FAC9DE" transform="translate(412,950)"/>
<path d="M0,0 L2,0 L3,3 L5,4 L5,7 L7,7 L7,15 L7,19 L5,30 L4,30 L4,7 L1,7 Z " fill="#FBF3FA" transform="translate(327,900)"/>
<path d="M0,0 L2,0 L2,4 L14,4 L14,5 L-1,5 L1,13 L-2,14 L6,15 L6,16 L-6,16 L-6,14 L-4,14 L-4,8 L-2,8 L-2,4 L0,4 Z " fill="#262626" transform="translate(724,118)"/>
<path d="M0,0 L12,0 L12,6 L7,7 L6,5 L-1,4 Z " fill="#ECEBEA" transform="translate(718,134)"/>
<path d="M0,0 L4,0 L4,2 L2,2 L3,10 L5,11 L5,19 L1,20 L0,19 Z " fill="#FDFCFE" transform="translate(399,13)"/>
<path d="M0,0 L2,0 L2,4 L4,4 L4,8 L1,8 L1,44 L0,44 Z " fill="#393739" transform="translate(368,980)"/>
<path d="M0,0 L3,0 L3,4 L10,4 L10,5 L3,5 L3,7 L10,7 L10,8 L2,8 L2,6 L-6,6 L-6,4 L-10,3 L0,1 Z " fill="#E7E1E2" transform="translate(600,212)"/>
<path d="M0,0 L5,1 L6,2 L6,11 L14,11 L14,12 L3,12 L2,7 L0,6 L2,4 L0,3 Z M2,12 Z " fill="#EDECEB" transform="translate(604,135)"/>
<path d="M0,0 L1,0 L2,36 L-2,36 L-2,28 L0,28 Z " fill="#C0D7D8" transform="translate(218,82)"/>
<path d="M0,0 L1,0 L1,10 L-11,10 L-11,12 L7,12 L7,13 L-12,13 L-13,15 L-15,13 L-15,8 L0,9 Z " fill="#D0C7CA" transform="translate(717,168)"/>
<path d="M0,0 L8,0 L7,14 L5,14 L5,17 L8,18 L4,18 L4,2 L0,2 Z " fill="#171717" transform="translate(558,0)"/>
<path d="M0,0 L1,0 L2,14 L2,32 L1,32 L1,18 L-1,18 L-1,32 L-2,32 L-2,14 L0,14 Z " fill="#222022" transform="translate(418,512)"/>
<path d="M0,0 L4,0 L4,2 L10,2 L10,0 L20,0 L20,2 L28,2 L28,3 L0,4 Z " fill="#1F1C1D" transform="translate(734,268)"/>
<path d="M0,0 L6,0 L6,4 L8,4 L8,6 L10,6 L10,24 L9,24 L9,7 L6,7 L6,16 L5,16 L5,7 L3,7 L0,3 L5,3 L5,1 L0,1 Z " fill="#DDD0D2" transform="translate(846,70)"/>
<path d="M0,0 L2,1 L-1,6 L-2,10 L-1,13 L-12,13 L-16,11 L-12,11 L-12,9 L-15,8 L-11,8 L-11,10 L-3,9 L-2,2 Z " fill="#F8DBEA" transform="translate(390,978)"/>
<path d="M0,0 L1,0 L2,6 L2,24 L8,24 L8,25 L1,25 L1,10 L-1,10 L-1,24 L-2,24 L-2,6 L0,6 Z " fill="#1B1C1C" transform="translate(266,896)"/>
<path d="M0,0 L6,0 L5,4 L3,8 L-1,11 L-4,10 L-4,12 L-6,12 L-6,8 L-1,7 Z " fill="#FDFDFD" transform="translate(793,111)"/>
<path d="M0,0 L12,0 L12,4 L14,4 L14,6 L16,6 L16,10 L18,10 L18,16 L20,16 L19,18 L16,16 L17,11 L14,11 L14,9 L10,7 L10,4 L8,3 L11,3 L11,1 L0,1 Z " fill="#232323" transform="translate(674,98)"/>
<path d="M0,0 L6,0 L6,4 L10,5 L3,7 L1,8 L1,5 L-1,5 L0,9 L-3,9 L-3,16 L-4,16 L-4,8 L-2,8 L-2,4 L0,4 Z " fill="#DEDEDC" transform="translate(684,74)"/>
<path d="M0,0 L4,0 L4,14 L0,14 Z " fill="#121112" transform="translate(416,272)"/>
<path d="M0,0 L9,0 L9,2 L18,1 L16,5 L10,6 L4,4 L0,3 Z " fill="#FCFAFA" transform="translate(817,63)"/>
<path d="M0,0 L1,0 L1,11 L4,11 L4,13 L-2,14 L-2,22 L-3,19 L-5,19 L-5,12 L-1,11 L-1,1 Z " fill="#FDF5F7" transform="translate(565,64)"/>
<path d="M0,0 L2,4 L16,5 L16,7 L14,8 L0,8 L-1,1 Z " fill="#FDFBFC" transform="translate(592,154)"/>
<path d="M0,0 L3,1 L4,6 L15,7 L15,8 L5,8 L5,10 L16,10 L16,11 L4,11 L4,9 L2,9 L2,5 L-2,3 Z " fill="#DFDFDF" transform="translate(780,77)"/>
<path d="M0,0 L4,1 L1,1 L1,3 L5,3 L6,8 L5,15 L11,14 L12,18 L11,16 L9,16 L10,19 L8,19 L8,16 L4,16 L4,8 L0,8 Z " fill="#DED4DD" transform="translate(298,970)"/>
<path d="M0,0 L1,0 L1,16 L3,16 L3,0 L4,0 L4,20 L3,26 L2,26 L2,20 L0,20 Z " fill="#1F1B1D" transform="translate(860,234)"/>
<path d="M0,0 L1,0 L2,14 L2,24 L-2,24 L-2,14 L0,14 Z " fill="#1D1A1C" transform="translate(856,182)"/>
<path d="M0,0 L6,0 L6,8 L12,8 L12,9 L6,9 L6,11 L12,11 L12,12 L5,12 L5,5 L3,5 L3,12 L2,12 L2,4 L0,4 Z " fill="#242424" transform="translate(550,110)"/>
<path d="M0,0 L4,1 L3,16 L0,20 Z " fill="#E3FCF5" transform="translate(701,0)"/>
<path d="M0,0 L9,1 L9,17 L8,17 L8,5 L6,5 L6,17 L5,17 L4,4 L0,2 Z " fill="#E6E7E4" transform="translate(729,81)"/>
<path d="M0,0 L6,0 L6,2 L8,2 L8,22 L7,22 L7,3 L2,5 L-8,5 L-8,4 L0,4 Z " fill="#D0D1D2" transform="translate(238,1002)"/>
<path d="M0,0 L1,0 L1,8 L6,8 L6,15 L1,17 L-1,19 Z " fill="#FDE0F4" transform="translate(411,909)"/>
<path d="M0,0 L1,0 L2,20 L1,28 L0,28 L0,20 L-2,20 L-2,12 L0,12 Z " fill="#221F22" transform="translate(418,742)"/>
<path d="M0,0 L1,0 L2,28 L1,40 L0,40 L0,28 L-2,28 L-2,24 L0,24 Z " fill="#2F2C2F" transform="translate(418,394)"/>
<path d="M0,0 L2,0 L2,6 L-10,6 L-10,2 L0,2 Z " fill="#242424" transform="translate(604,152)"/>
<path d="M0,0 L2,0 L2,12 L-2,12 L-2,16 L-4,16 L-4,10 L-2,10 L-2,4 L0,4 Z " fill="#252525" transform="translate(420,130)"/>
<path d="M0,0 L6,0 L6,4 L8,4 L12,8 L12,12 L8,12 L4,7 L4,4 L-1,4 L-1,3 L5,3 L5,1 L0,1 Z " fill="#161616" transform="translate(570,24)"/>
<path d="M0,0 L6,0 L6,2 L12,2 L12,3 L6,3 L6,5 L11,5 L11,6 L5,6 L5,4 L0,5 L0,3 L-5,3 L-5,10 L-6,10 L-6,2 L0,2 Z " fill="#DDDDDB" transform="translate(604,96)"/>
<path d="M0,0 L2,0 L1,5 L-1,7 L-4,7 L-3,16 L-5,17 L-6,11 L-8,11 L-8,7 L-5,6 L-4,3 L-1,2 Z " fill="#FBFDFA" transform="translate(703,58)"/>
<path d="M0,0 L6,0 L6,10 L5,7 L3,7 L4,14 L3,11 L1,11 L0,14 L0,10 L2,10 L2,6 L0,6 Z " fill="#EAE6EA" transform="translate(408,0)"/>
<path d="M0,0 L1,0 L1,11 L3,11 L3,0 L4,0 L4,12 L2,12 L2,14 L0,14 L0,18 L-4,17 L-1,17 L-1,15 L-4,15 L-3,11 L0,11 Z " fill="#E1B4C6" transform="translate(400,968)"/>
<path d="M0,0 L2,0 L3,6 L3,23 L1,23 L0,8 L-1,4 Z " fill="#FED8F0" transform="translate(412,936)"/>
<path d="M0,0 L1,0 L1,16 L3,16 L3,20 L1,20 L1,32 L3,32 L3,34 L-1,34 L-1,16 Z " fill="#293232" transform="translate(219,716)"/>
<path d="M0,0 L3,0 L4,3 L13,4 L12,8 L5,8 L3,7 L3,4 L0,4 Z " fill="#FDFAFA" transform="translate(638,169)"/>
<path d="M0,0 L6,0 L7,4 L-1,5 L-2,8 L-6,8 L-6,4 Z " fill="#FDF7FB" transform="translate(563,167)"/>
<path d="M0,0 L6,0 L8,4 L4,4 L4,6 L-5,6 L-4,1 Z " fill="#FDF1F8" transform="translate(452,159)"/>
<path d="M0,0 L12,0 L12,1 L1,1 L1,5 L3,4 L4,2 L12,3 L8,4 L8,11 L7,11 L7,6 L5,6 L6,12 L4,12 L4,6 L0,6 Z " fill="#CFDCD8" transform="translate(686,36)"/>
<path d="M0,0 L5,2 L3,3 L4,6 L2,6 L2,4 L0,4 L0,16 L-6,16 L-6,15 L-1,15 L-1,4 L-5,4 L-5,2 L-7,1 L-1,1 Z " fill="#D2D5D6" transform="translate(298,890)"/>
<path d="M0,0 L4,0 L4,12 L0,13 Z " fill="#E7FFFD" transform="translate(284,436)"/>
<path d="M0,0 L1,0 L1,5 L3,5 L3,11 L1,11 L1,17 L3,17 L3,23 L2,23 L2,18 L0,18 L0,23 L-1,23 L-1,5 Z " fill="#201D1E" transform="translate(707,235)"/>
<path d="M0,0 L10,0 L13,3 L10,4 L1,4 L-6,3 L-6,2 L0,2 Z " fill="#141414" transform="translate(632,224)"/>
<path d="M0,0 L5,1 L7,4 L5,4 L7,7 L7,11 L9,11 L8,15 L7,12 L5,12 L4,15 L4,11 L6,11 L4,5 L0,5 L0,3 L-2,2 L0,2 Z " fill="#E3DBDD" transform="translate(720,165)"/>
<path d="M0,0 L13,1 L13,4 L5,4 L5,6 L0,6 Z " fill="#FBF1F7" transform="translate(493,165)"/>
<path d="M0,0 L1,0 L1,6 L8,6 L8,3 L12,3 L12,5 L10,5 L8,10 L2,11 L0,9 L7,9 L7,7 L-3,7 L-3,1 L-2,1 L-2,6 L0,6 Z " fill="#EDE6E9" transform="translate(747,156)"/>
<path d="M0,0 L4,0 L4,4 L1,5 L0,12 L-4,12 L-4,4 L0,4 Z " fill="#FFFFFD" transform="translate(832,92)"/>
<path d="M0,0 L1,2 L3,2 L4,5 L7,8 L7,15 L6,13 L4,13 L3,16 L3,12 L5,12 L1,7 L-1,6 L-1,2 L-3,1 Z " fill="#E3E8E5" transform="translate(695,48)"/>
<path d="M0,0 L4,0 L4,12 L0,12 Z " fill="#101313" transform="translate(216,290)"/>
<path d="M0,0 L4,0 L4,8 L-4,8 L-4,4 L0,4 Z " fill="#E8FFFF" transform="translate(284,184)"/>
<path d="M0,0 L3,0 L2,4 L-2,8 L-8,9 L-10,5 L-2,4 L-2,2 L0,2 Z " fill="#FDFBFC" transform="translate(671,176)"/>
<path d="M0,0 L12,0 L12,2 L18,2 L18,3 L-6,3 L-6,2 L0,2 Z " fill="#1E1C1D" transform="translate(544,174)"/>
<path d="M0,0 L11,0 L11,2 L2,2 L2,4 L11,4 L11,6 L0,6 Z " fill="#FFFFFE" transform="translate(639,155)"/>
<path d="M0,0 L2,0 L3,3 L2,5 L0,5 L-1,7 L-2,19 L-4,18 L-4,3 L0,2 Z " fill="#FEFDFE" transform="translate(307,986)"/>
<path d="M0,0 L4,0 L4,6 L1,7 L0,11 L-5,11 L-5,7 L0,6 Z " fill="#FCFAFB" transform="translate(565,47)"/>
<path d="M0,0 L3,0 L3,15 L1,17 L0,15 Z " fill="#EDECED" transform="translate(542,0)"/>
<path d="M0,0 L14,0 L15,3 L5,3 L5,5 L-1,5 L-1,4 L4,4 L4,2 L0,2 Z " fill="#E6E5E4" transform="translate(627,221)"/>
<path d="M0,0 L12,0 L12,1 L1,1 L2,10 L1,13 L4,14 L0,14 L0,10 L-2,10 L-2,4 L0,4 Z " fill="#D5D2D2" transform="translate(682,142)"/>
<path d="M0,0 L1,2 L3,3 L1,3 L1,5 L-5,5 L-5,3 L-9,3 L-9,5 L-15,5 L-14,1 L-14,4 L-10,4 L-10,2 L-12,1 L-5,1 Z " fill="#D9DCDE" transform="translate(251,927)"/>
<path d="M0,0 L2,0 L3,9 L3,12 L0,12 L0,23 L-1,23 L-1,11 L1,11 L1,9 L-1,9 L-1,3 L1,3 Z " fill="#D9D5D9" transform="translate(329,907)"/>
<path d="M0,0 L4,1 L1,1 L1,18 L3,18 L1,23 L-1,24 L0,19 L-3,19 L-3,24 L-4,24 L-4,18 L0,18 Z " fill="#D5C7D3" transform="translate(306,946)"/>
<path d="M0,0 L1,0 L2,30 L1,38 L0,38 L0,30 L-2,30 L-2,28 L0,28 Z " fill="#383237" transform="translate(418,816)"/>
<path d="M0,0 L1,0 L1,8 L6,8 L6,16 L0,16 L2,15 L2,9 L0,9 Z " fill="#EDE3ED" transform="translate(412,754)"/>
<path d="M0,0 L1,0 L2,12 L2,36 L1,36 L1,16 L-1,16 Z " fill="#141113" transform="translate(420,382)"/>
<path d="M0,0 L8,0 L8,2 L24,2 L24,3 L1,4 Z " fill="#232022" transform="translate(498,170)"/>
<path d="M0,0 L4,1 L1,4 L0,11 L-12,11 L-12,10 L-4,9 L-2,3 L0,3 Z " fill="#FAF3F6" transform="translate(717,164)"/>
<path d="M0,0 L6,0 L6,10 L0,10 L2,9 L2,1 Z " fill="#EBDFE6" transform="translate(850,152)"/>
<path d="M0,0 L10,0 L10,3 L8,3 L8,13 L7,13 L7,3 L3,3 L2,7 L2,3 L0,3 Z " fill="#040404" transform="translate(563,111)"/>
<path d="M0,0 L8,0 L8,1 L1,1 L3,13 L-1,13 L-1,15 L4,15 L4,16 L-2,16 L-2,8 L0,8 Z " fill="#D4D6D5" transform="translate(774,62)"/>
<path d="M0,0 L5,1 L6,6 L5,23 L4,23 L4,6 L2,6 L2,4 L0,4 Z " fill="#211F1F" transform="translate(852,70)"/>
<path d="M0,0 L1,0 L1,6 L3,6 L3,10 L1,10 L1,14 L-3,14 L-3,12 L-9,12 L-9,11 L-1,10 Z " fill="#2B2A2B" transform="translate(407,0)"/>
<path d="M0,0 L2,0 L2,7 L-7,7 L-7,3 L-2,2 Z " fill="#FCF2FB" transform="translate(782,264)"/>
<path d="M0,0 L1,0 L1,8 L3,8 L3,0 L6,0 L6,9 L-5,9 L-5,8 L0,8 Z " fill="#9D9C9D" transform="translate(438,54)"/>
<path d="M0,0 L1,0 L2,24 L1,28 L-1,28 Z " fill="#FBF1FB" transform="translate(412,306)"/>
<path d="M0,0 L3,3 L3,8 L4,10 L-1,13 L-1,2 L-4,1 Z " fill="#FAF2F5" transform="translate(800,136)"/>
<path d="M0,0 L5,0 L6,3 L3,5 L3,8 L0,10 L-6,10 L-6,8 L-1,7 Z " fill="#FDFDFC" transform="translate(599,99)"/>
<path d="M0,0 L4,0 L4,6 L8,7 L1,7 L1,9 L8,9 L8,10 L0,10 Z " fill="#181919" transform="translate(626,0)"/>
<path d="M0,0 L1,0 L1,11 L-2,11 L-3,13 L-4,7 L-3,2 Z " fill="#FED1E5" transform="translate(399,968)"/>
<path d="M0,0 L1,0 L1,26 L4,27 L2,27 L2,29 L-1,29 L-2,23 L-1,23 Z " fill="#FDEBFC" transform="translate(413,817)"/>
<path d="M0,0 L1,0 L2,12 L1,32 L0,32 L-1,9 Z " fill="#FAF2FA" transform="translate(412,710)"/>
<path d="M0,0 L2,0 L2,12 L-1,17 L-4,17 L-4,13 L-1,12 Z " fill="#FDFDFD" transform="translate(423,130)"/>
<path d="M0,0 L1,4 L-1,4 L-1,8 L-7,8 L-8,3 L0,3 Z M-10,4 L-8,5 L-10,8 Z " fill="#E2E2E0" transform="translate(728,74)"/>
<path d="M0,0 L1,0 L2,22 L4,25 L1,25 L1,27 L4,28 L0,28 L0,24 L-2,24 L-2,22 L0,22 Z " fill="#3A3939" transform="translate(566,18)"/>
<path d="M0,0 L1,0 L1,12 L3,12 L3,15 L6,16 L6,22 L4,22 L4,18 L2,18 L2,16 L0,16 Z " fill="#252324" transform="translate(854,212)"/>
<path d="M0,0 L1,0 L1,10 L5,11 L7,15 L5,15 L6,19 L2,16 L2,14 L0,14 Z " fill="#D8D8D8" transform="translate(574,110)"/>
<path d="M0,0 L6,0 L6,2 L8,2 L8,12 L4,11 L7,11 L7,3 L4,3 L3,5 L-1,4 Z " fill="#DEDFDD" transform="translate(738,98)"/>
<path d="M0,0 L4,0 L4,10 L0,10 Z " fill="#000000" transform="translate(534,0)"/>
<path d="M0,0 L8,1 L8,3 L10,4 L8,5 L-8,4 L-8,3 L0,3 Z " fill="#ECE6EA" transform="translate(570,168)"/>
<path d="M0,0 L3,1 L16,2 L16,4 L2,5 L2,3 L-1,4 Z " fill="#FEFEFD" transform="translate(577,101)"/>
<path d="M0,0 L1,0 L1,18 L-3,17 L-3,14 L-1,14 L-1,2 Z " fill="#060606" transform="translate(566,0)"/>
<path d="M0,0 L4,0 L4,2 L2,2 L2,17 L0,17 Z " fill="#FEF8FE" transform="translate(307,947)"/>
<path d="M0,0 L4,0 L4,2 L10,2 L10,6 L16,6 L16,7 L5,7 L4,5 L9,5 L9,3 L1,4 Z " fill="#232324" transform="translate(226,926)"/>
<path d="M0,0 L1,0 L2,14 L1,20 L0,20 L0,14 L-2,14 L-2,8 L0,8 Z " fill="#222022" transform="translate(418,702)"/>
<path d="M0,0 L4,0 L4,2 L18,2 L18,3 L1,4 L-10,3 L-10,2 L0,2 Z " fill="#2E2A2D" transform="translate(456,164)"/>
<path d="M0,0 L1,0 L1,6 L5,6 L5,12 L1,12 L1,8 L-1,8 L-1,2 Z " fill="#262425" transform="translate(773,154)"/>
<path d="M0,0 L5,0 L2,8 L0,10 L-4,10 L-4,8 L-1,7 Z " fill="#FCF6FA" transform="translate(787,147)"/>
<path d="M0,0 L2,0 L2,6 L0,6 L-1,11 L-3,12 L-8,11 L-8,9 L-3,8 L-2,4 L0,4 Z " fill="#FEFEFD" transform="translate(729,74)"/>
<path d="M0,0 L8,1 L8,6 L1,6 L0,5 Z " fill="#D9E7E7" transform="translate(274,32)"/>
<path d="M0,0 L3,2 L3,4 L1,4 L1,10 L3,10 L3,12 L1,12 L1,22 L0,22 L-1,10 L0,5 L-3,4 L0,2 Z " fill="#2B2A2B" transform="translate(327,906)"/>
<path d="M0,0 L6,1 L6,4 L3,4 L3,17 L2,17 L2,5 L0,5 Z " fill="#DDE5E6" transform="translate(255,841)"/>
<path d="M0,0 Z M-5,1 L0,1 L-1,4 L-1,10 L-5,10 Z " fill="#FCF6FA" transform="translate(582,180)"/>
<path d="M0,0 L2,0 L2,6 L6,7 L-1,7 L-1,9 L6,9 L6,10 L-2,10 L-2,2 L0,2 Z " fill="#202020" transform="translate(612,164)"/>
<path d="M0,0 L7,0 L7,6 L1,6 Z " fill="#040404" transform="translate(642,165)"/>
<path d="M0,0 L3,1 L7,5 L5,9 L4,6 L-2,6 L-2,2 L0,2 Z " fill="#1E1D1D" transform="translate(728,140)"/>
<path d="M0,0 L3,1 L2,5 L2,2 L0,2 L1,5 L-7,5 L-7,1 Z " fill="#A09D9D" transform="translate(715,142)"/>
<path d="M0,0 L2,3 L0,3 L0,5 L-2,5 L-2,7 L-4,7 L-4,11 L-6,11 L-6,7 L-8,7 L-8,5 Z " fill="#1B1A1B" transform="translate(814,61)"/>
<path d="M0,0 L6,0 L6,6 L0,6 Z " fill="#A4C1BC" transform="translate(172,956)"/>
<path d="M0,0 L4,0 L5,8 L3,6 L2,11 L0,11 Z " fill="#FBFDFD" transform="translate(245,841)"/>
<path d="M0,0 L7,1 L7,3 L2,3 L2,8 L-4,8 L-4,7 L1,7 L1,5 L-4,5 L-2,4 L-2,2 L0,2 Z " fill="#EEE9EC" transform="translate(426,166)"/>
<path d="M0,0 L3,1 L0,2 L0,4 L8,4 L8,5 L0,5 L0,7 L-6,7 L-6,6 L-1,6 L-1,4 L-6,4 L-6,2 Z " fill="#E3D9DF" transform="translate(434,163)"/>
<path d="M0,0 L9,0 L10,1 L10,7 L8,7 L6,4 L0,2 Z " fill="#FBF9FA" transform="translate(737,155)"/>
<path d="M0,0 L4,0 L5,4 L1,6 L0,5 Z M-4,6 L1,6 L0,9 L-4,9 Z " fill="#FCFBFB" transform="translate(569,81)"/>
<path d="M0,0 L6,0 L6,6 L0,6 Z " fill="#C0C2C0" transform="translate(684,64)"/>
<path d="M0,0 L10,0 L10,1 L1,1 L1,4 L3,5 L-1,7 L-1,5 L-3,5 L-3,7 L-5,7 L-6,10 L-6,6 L-4,6 L-4,4 L-2,4 L-2,2 L0,2 Z " fill="#D7D4D5" transform="translate(816,62)"/>
<path d="M0,0 L6,1 L8,5 L6,5 L6,9 L2,8 L5,8 L5,6 L2,5 Z " fill="#1B1B1B" transform="translate(692,55)"/>
<path d="M0,0 L6,0 L6,6 L0,6 Z " fill="#B9C1BE" transform="translate(622,28)"/>
<path d="M0,0 L4,1 L4,16 L2,16 L2,3 L0,3 Z " fill="#FDFEFE" transform="translate(271,974)"/>
<path d="M0,0 L1,2 L3,2 L4,0 L6,8 L5,14 L4,14 L4,8 L2,8 L2,6 L0,6 Z " fill="#1A1B1B" transform="translate(274,924)"/>
<path d="M0,0 L1,0 L1,11 L-4,11 L-5,7 L-3,7 L-3,9 L-1,9 L-1,3 L-3,3 L-3,1 Z " fill="#FCFCFC" transform="translate(296,894)"/>
<path d="M0,0 L6,0 L6,1 L1,1 L2,12 L2,22 L1,22 L1,16 L-1,16 Z " fill="#1F1E1E" transform="translate(422,174)"/>
<path d="M0,0 L6,2 L6,4 L14,4 L14,5 L2,5 L2,3 L-8,3 L-8,2 L-1,1 Z " fill="#FEEAF6" transform="translate(473,159)"/>
<path d="M0,0 L6,0 L7,9 L9,10 L9,12 L6,12 L6,10 L4,10 L4,2 L0,2 Z " fill="#FDFCFC" transform="translate(651,151)"/>
<path d="M0,0 L1,3 L0,5 L-2,5 L-2,7 L-8,7 L-9,3 L-2,2 Z " fill="#EBEBEA" transform="translate(618,133)"/>
<path d="M0,0 L6,0 L6,2 L2,2 L2,6 L7,6 L8,8 L0,8 Z " fill="#FDFDFD" transform="translate(687,127)"/>
<path d="M0,0 L4,0 L8,4 L8,16 L7,16 L6,8 L1,3 L3,3 L3,1 Z " fill="#DDDDDD" transform="translate(548,130)"/>
<path d="M0,0 L2,0 L2,4 L4,4 L5,0 L5,4 L9,4 L9,10 L11,10 L10,12 L7,12 L8,5 L-1,5 Z " fill="#E1E0E0" transform="translate(569,90)"/>
<path d="M0,0 L11,0 L11,2 L13,3 L10,4 L10,1 L8,1 L9,4 L3,4 L2,1 Z " fill="#E8E7E9" transform="translate(399,65)"/>
<path d="M0,0 L4,0 L4,15 L2,15 L2,2 L0,2 Z " fill="#FEFEFE" transform="translate(295,989)"/>
<path d="M0,0 L2,0 L2,3 L10,3 L10,1 L12,1 L12,5 L0,5 Z " fill="#FEFEFE" transform="translate(265,932)"/>
<path d="M0,0 L6,0 L6,2 L2,2 L2,13 L0,13 Z " fill="#FEFBFE" transform="translate(319,929)"/>
<path d="M0,0 L6,0 L6,2 L2,2 L2,13 L0,13 Z " fill="#000000" transform="translate(435,67)"/>
<path d="M0,0 L1,0 L2,26 L0,26 L0,18 L-2,18 L-2,16 L0,16 Z " fill="#322C30" transform="translate(416,890)"/>
<path d="M0,0 L8,1 L8,2 L2,2 L2,14 L-2,13 L1,13 L0,8 Z " fill="#292B2B" transform="translate(242,838)"/>
<path d="M0,0 L1,4 L-1,6 L-8,7 L-8,1 L-6,1 L-5,4 Z " fill="#FEFDFE" transform="translate(715,221)"/>
<path d="M0,0 L2,0 L2,2 L0,2 L1,5 L-7,5 L-7,1 Z " fill="#959293" transform="translate(669,176)"/>
<path d="M0,0 L5,0 L6,2 L0,3 L0,8 L-4,8 L-3,2 Z " fill="#FCF7F6" transform="translate(708,139)"/>
<path d="M0,0 L2,0 L3,3 L5,4 L5,7 L7,7 L7,11 L4,10 L4,7 L1,7 Z " fill="#FCFBFC" transform="translate(327,900)"/>
<path d="M0,0 L1,0 L1,6 L-1,6 L-1,8 L-3,8 L-3,10 L-5,10 L-5,16 L-6,16 L-6,8 L-1,3 Z " fill="#222223" transform="translate(231,860)"/>
<path d="M0,0 L4,0 L4,8 L0,8 Z " fill="#2A2A2A" transform="translate(330,850)"/>
<path d="M0,0 L4,0 L4,4 L2,4 L2,12 L0,12 Z " fill="#282A2A" transform="translate(258,846)"/>
<path d="M0,0 L6,0 L6,6 L4,6 L4,12 L3,12 L2,1 Z " fill="#E3D7E2" transform="translate(412,804)"/>
<path d="M0,0 L4,0 L4,8 L0,8 Z " fill="#E9E4E8" transform="translate(414,702)"/>
<path d="M0,0 L4,0 L4,4 L2,4 L2,20 L1,20 Z " fill="#212929" transform="translate(216,696)"/>
<path d="M0,0 L4,0 L4,8 L0,8 Z " fill="#EEFFFF" transform="translate(348,560)"/>
<path d="M0,0 L1,4 L3,4 L3,0 L8,0 L8,5 L0,5 Z " fill="#E2DDE0" transform="translate(754,206)"/>
<path d="M0,0 L8,1 L8,5 L0,5 Z " fill="#EFE6EB" transform="translate(802,192)"/>
<path d="M0,0 L4,2 L6,4 L5,11 L3,7 L-1,3 L-3,2 Z " fill="#FCF6FA" transform="translate(578,167)"/>
<path d="M0,0 L1,2 L6,2 L4,6 L-2,6 L-1,1 Z " fill="#F0E7E8" transform="translate(696,161)"/>
<path d="M0,0 L6,1 L6,3 L1,4 L0,8 L-3,8 L-4,5 Z " fill="#FDFBFD" transform="translate(463,126)"/>
<path d="M0,0 L2,0 L3,4 L-1,6 L-2,2 L0,2 Z M-6,6 L-1,6 L-3,9 L-6,9 Z " fill="#FEFCFE" transform="translate(813,67)"/>
<path d="M0,0 L1,3 L3,3 L3,9 L-2,9 L-2,4 L0,4 Z " fill="#161616" transform="translate(496,18)"/>
<path d="M0,0 L1,0 L2,6 L2,22 L1,22 L1,10 L-1,10 Z " fill="#100E0F" transform="translate(418,884)"/>
<path d="M0,0 L1,0 L2,12 L-2,12 L-2,6 L0,6 Z " fill="#1C191C" transform="translate(418,804)"/>
<path d="M0,0 L1,0 L1,6 L3,6 L3,12 L-1,12 Z " fill="#E1DBE0" transform="translate(415,710)"/>
<path d="M0,0 L1,0 L2,14 L1,24 L0,24 L0,14 L-2,14 L-2,12 L0,12 Z " fill="#302C30" transform="translate(418,334)"/>
<path d="M0,0 L3,0 L3,5 L1,6 L0,12 L-1,12 L-1,6 L-5,6 L-4,2 L-4,5 L0,5 Z " fill="#A19B9D" transform="translate(791,134)"/>
<path d="M0,0 L6,0 L9,4 L7,4 L7,11 L6,11 L5,5 L0,2 Z " fill="#F7F8F6" transform="translate(610,99)"/>
<path d="M0,0 L2,0 L2,2 L4,2 L5,6 L5,14 L3,14 L3,6 L-1,4 Z " fill="#212221" transform="translate(617,96)"/>
<path d="M0,0 L8,0 L6,4 L0,4 Z " fill="#EFEBEE" transform="translate(532,59)"/>
<path d="M0,0 L8,0 L6,5 L6,9 L4,9 L4,5 L2,5 L2,1 Z " fill="#E3D6E0" transform="translate(368,979)"/>
<path d="M0,0 L4,2 L3,8 L-1,8 L-1,1 Z " fill="#FDF9FD" transform="translate(304,977)"/>
<path d="M0,0 L5,3 L5,9 L3,7 L1,9 L-1,2 Z " fill="#131313" transform="translate(321,897)"/>
<path d="M0,0 L1,2 L3,2 L4,18 L3,18 L0,4 Z " fill="#FEF2F5" transform="translate(848,75)"/>
<path d="M0,0 L6,0 L6,6 L0,6 L2,5 L2,1 Z " fill="#EAD8E7" transform="translate(412,884)"/>
<path d="M0,0 L2,0 L2,3 L4,3 L4,6 L2,6 L2,11 L0,11 Z " fill="#020202" transform="translate(307,867)"/>
<path d="M0,0 L6,2 L7,5 L5,7 L0,3 Z " fill="#121112" transform="translate(571,207)"/>
<path d="M0,0 L5,0 L6,3 L1,4 L0,8 L-2,8 L-2,3 L0,3 Z " fill="#FDFAFC" transform="translate(757,202)"/>
<path d="M0,0 L11,0 L7,2 L3,3 L3,8 L0,7 Z " fill="#FAF2F3" transform="translate(683,145)"/>
<path d="M0,0 L1,0 L1,8 L-3,8 L-3,2 Z " fill="#FDFBFD" transform="translate(794,138)"/>
<path d="M0,0 L4,1 L1,1 L2,6 L4,8 L-1,7 L-2,4 L-4,4 L-4,2 L0,2 Z " fill="#2B2B2B" transform="translate(548,122)"/>
<path d="M0,0 L2,0 L2,4 L-10,4 L-10,2 L0,2 Z " fill="#FEFEFE" transform="translate(751,61)"/>
<path d="M0,0 L5,1 L1,2 L0,5 L-1,19 L-2,19 L-2,2 L0,2 Z " fill="#F0ECF1" transform="translate(403,13)"/>
<path d="M0,0 L11,0 L11,2 L8,4 L5,4 L5,2 L0,2 Z " fill="#FDFEFF" transform="translate(257,927)"/>
<path d="M0,0 L1,0 L1,17 L-3,16 L-1,16 L-2,4 L0,4 Z " fill="#191517" transform="translate(419,908)"/>
<path d="M0,0 L4,0 L3,5 L6,4 L6,10 L4,10 L4,6 L2,6 L2,4 L0,4 Z " fill="#E0E0DF" transform="translate(686,98)"/>
<path d="M0,0 L3,3 L-1,8 L-5,8 L-5,5 L-2,4 Z " fill="#FCF8FB" transform="translate(540,58)"/>
<path d="M0,0 L2,3 L2,5 L4,5 L4,0 L5,0 L5,6 L1,6 L1,8 L-5,8 L-5,7 L0,7 L-1,3 Z " fill="#D9AABC" transform="translate(409,960)"/>
<path d="M0,0 L1,0 L1,8 L-3,9 L-2,1 Z " fill="#FECFE3" transform="translate(411,950)"/>
<path d="M0,0 L2,0 L2,6 L0,8 L-6,8 L-6,6 L-1,5 Z " fill="#FCFDFE" transform="translate(239,855)"/>
<path d="M0,0 L2,2 L2,8 L-2,8 L-2,2 L0,2 Z " fill="#E5DEE1" transform="translate(710,232)"/>
<path d="M0,0 L2,0 L2,7 L0,9 L-5,9 L-5,7 L-1,6 Z " fill="#FEFAFD" transform="translate(779,160)"/>
<path d="M0,0 L1,2 L4,3 L3,5 L0,5 L0,3 L-7,3 L-7,1 Z " fill="#FEFEFE" transform="translate(590,130)"/>
<path d="M0,0 L2,0 L2,6 L-2,7 L-5,5 Z " fill="#FCFCFC" transform="translate(549,115)"/>
<path d="M0,0 L17,0 L17,1 L3,1 L3,4 L0,4 Z " fill="#F8F7F8" transform="translate(781,97)"/>
<path d="M0,0 L4,0 L4,4 L-6,4 L-6,2 L0,1 Z " fill="#FEFFFE" transform="translate(737,69)"/>
<path d="M0,0 L1,0 L1,6 L3,6 L3,8 L1,8 L1,14 L-3,14 L-2,10 L-2,13 L0,13 L-1,6 Z " fill="#333433" transform="translate(693,64)"/>
<path d="M0,0 L10,0 L10,5 L8,5 L8,2 L0,2 Z " fill="#FEFEFE" transform="translate(831,61)"/>
<path d="M0,0 L4,0 L4,4 L0,4 L0,2 L-10,2 L-10,1 Z " fill="#292929" transform="translate(826,60)"/>
<path d="M0,0 L3,2 L3,8 L0,8 L-2,1 Z " fill="#FCF6F8" transform="translate(727,168)"/>
<path d="M0,0 L3,1 L3,6 L0,8 L-1,7 L-1,1 Z " fill="#FCFAFA" transform="translate(696,135)"/>
<path d="M0,0 L3,1 L3,5 L0,5 L0,13 L-1,13 L-1,1 Z " fill="#292929" transform="translate(779,81)"/>
<path d="M0,0 Z M-3,2 L0,3 L1,9 L-3,9 L-4,4 Z " fill="#FCECF7" transform="translate(377,980)"/>
<path d="M0,0 L3,0 L1,7 L-4,8 L-4,6 L-1,5 Z " fill="#FDF7FC" transform="translate(303,965)"/>
<path d="M0,0 L2,0 L2,2 L4,2 L3,6 L1,5 L1,12 L0,12 Z " fill="#363737" transform="translate(298,894)"/>
<path d="M0,0 L2,1 L0,10 L-1,10 L-1,5 L-3,5 L-3,10 L-4,10 L-4,4 L-2,4 L-2,2 L0,2 Z " fill="#DADADD" transform="translate(230,866)"/>
<path d="M0,0 L2,0 L2,7 L-2,7 L-2,2 L0,2 Z " fill="#FAFDFD" transform="translate(239,838)"/>
<path d="M0,0 L4,0 L4,6 L0,6 Z " fill="#CBE6E7" transform="translate(216,410)"/>
<path d="M0,0 L3,0 L3,8 L0,8 Z " fill="#E5FCFC" transform="translate(221,256)"/>
<path d="M0,0 L1,4 L-1,4 L-1,6 L-3,6 L-3,14 L-4,14 L-4,3 L-2,1 L-2,3 L0,3 Z " fill="#D7D5D4" transform="translate(613,160)"/>
<path d="M0,0 L1,2 L3,2 L5,5 L5,8 L0,6 L-1,2 Z " fill="#EDEDED" transform="translate(543,124)"/>
<path d="M0,0 L8,1 L8,2 L2,2 L2,8 L0,8 Z " fill="#282828" transform="translate(566,78)"/>
<path d="M0,0 L3,0 L4,2 L9,3 L9,5 L2,5 L2,3 L0,3 Z " fill="#FEFEFF" transform="translate(398,66)"/>
<path d="M0,0 L4,0 L4,6 L0,6 Z " fill="#2C2C2C" transform="translate(482,44)"/>
<path d="M0,0 L1,0 L1,10 L-2,10 L-3,2 L-2,5 L0,5 Z " fill="#9C9C9C" transform="translate(481,44)"/>
<path d="M0,0 L2,0 L2,8 L-2,8 L-2,4 L0,4 Z " fill="#2C2C2C" transform="translate(488,34)"/>
<path d="M0,0 L2,0 L2,2 L14,2 L14,3 L0,4 L-4,2 L0,2 Z " fill="#2D2E2E" transform="translate(598,32)"/>
<path d="M0,0 L6,0 L6,4 L0,4 Z " fill="#C1BEC2" transform="translate(398,0)"/>
<path d="M0,0 L4,0 L5,2 L5,9 L3,9 L2,3 L0,2 Z " fill="#FEFDFD" transform="translate(604,149)"/>
<path d="M0,0 L2,0 L1,5 L-1,7 L-5,6 L-4,3 L-1,2 Z " fill="#F8FCF9" transform="translate(703,58)"/>
<path d="M0,0 L3,0 L4,8 L3,5 L1,5 L0,8 Z " fill="#929898" transform="translate(262,842)"/>
<path d="M0,0 L6,0 L6,2 L2,2 L2,7 L0,7 Z " fill="#FBFEFE" transform="translate(253,839)"/>
<path d="M0,0 L4,0 L4,2 L12,2 L12,3 L0,4 Z " fill="#242223" transform="translate(578,212)"/>
<path d="M0,0 L1,0 L1,6 L-4,5 L-4,2 L0,2 Z " fill="#2A2829" transform="translate(765,156)"/>
<path d="M0,0 L1,0 L1,7 L3,8 L2,11 L-2,11 L-2,8 L0,8 Z " fill="#040404" transform="translate(559,134)"/>
<path d="M0,0 L5,0 L4,5 L0,5 Z " fill="#0A0A0A" transform="translate(779,86)"/>
<path d="M0,0 L6,0 L6,7 L4,7 L4,2 L0,2 Z " fill="#FEFEFE" transform="translate(771,83)"/>
<path d="M0,0 L2,0 L2,4 L4,4 L4,8 L1,8 Z " fill="#211F21" transform="translate(368,980)"/>
<path d="M0,0 L2,0 L3,3 L5,4 L5,8 L1,6 Z " fill="#171717" transform="translate(371,860)"/>
<path d="M0,0 L4,0 L4,2 L12,2 L12,3 L1,4 Z " fill="#252424" transform="translate(590,216)"/>
<path d="M0,0 L2,0 L1,4 L-5,4 L-5,1 Z " fill="#FDF9FC" transform="translate(762,210)"/>
<path d="M0,0 L1,0 L1,6 L3,6 L3,8 L1,8 L1,12 L-3,11 L0,11 L-1,6 Z " fill="#2D2D2D" transform="translate(785,118)"/>
<path d="M0,0 L4,1 L1,1 L1,6 L-3,6 L-3,2 L0,2 Z " fill="#E9F7F5" transform="translate(755,31)"/>
<path d="M0,0 L2,0 L1,6 L-3,7 L-3,4 L-1,3 Z " fill="#FDFBFD" transform="translate(528,25)"/>
<path d="M0,0 L4,0 L4,6 L3,4 L1,4 L0,6 Z " fill="#161113" transform="translate(414,960)"/>
<path d="M0,0 L1,2 L3,2 L4,0 L3,7 L0,6 Z " fill="#E5E5E6" transform="translate(314,874)"/>
<path d="M0,0 L4,0 L4,5 L0,5 Z " fill="#FDFBFD" transform="translate(767,157)"/>
<path d="M0,0 L5,1 L5,3 L7,3 L6,7 L4,7 L4,2 L-1,3 Z " fill="#DBDBDC" transform="translate(801,65)"/>
<path d="M0,0 L2,0 L2,4 L-6,4 L-6,2 L0,2 Z " fill="#FEFEFE" transform="translate(757,53)"/>
<path d="M0,0 L4,0 L4,2 L2,2 L2,4 L-4,4 L-4,2 L0,2 Z " fill="#2D2D2E" transform="translate(522,26)"/>
<path d="M0,0 L2,4 L3,8 L1,8 L0,10 L-1,6 Z " fill="#F7FAFC" transform="translate(222,913)"/>
<path d="M0,0 L2,0 L2,5 L1,6 L-4,6 L-4,4 L0,4 Z " fill="#000000" transform="translate(311,875)"/>
<path d="M0,0 L4,0 L4,3 L-1,3 L-1,8 L-2,8 L-2,2 L0,2 Z " fill="#D6D8DA" transform="translate(240,852)"/>
<path d="M0,0 L5,0 L5,4 L0,3 Z " fill="#F9F0F6" transform="translate(577,207)"/>
<path d="M0,0 L1,0 L2,9 L-1,9 L-2,4 L0,4 Z " fill="#040404" transform="translate(623,102)"/>
<path d="M0,0 L5,1 L6,3 L3,3 L3,5 L6,6 L2,6 L2,2 L0,2 Z " fill="#232222" transform="translate(564,40)"/>
<path d="M0,0 L1,0 L1,6 L-2,6 L-3,8 L-2,3 Z " fill="#FECCDF" transform="translate(399,973)"/>
<path d="M0,0 L2,0 L1,4 L-1,4 L-1,8 L-5,7 L-2,7 L-3,2 L-1,1 Z " fill="#DACAD6" transform="translate(857,260)"/>
<path d="M0,0 L4,1 L1,8 L0,8 Z " fill="#FAF6F5" transform="translate(633,170)"/>
<path d="M0,0 L2,0 L1,4 L-5,3 L-5,1 Z " fill="#FCF3F7" transform="translate(700,166)"/>
<path d="M0,0 L2,4 L3,7 L-3,6 L-3,4 L-1,3 Z " fill="#FCFBFA" transform="translate(715,128)"/>
<path d="M0,0 L7,0 L5,3 L2,2 L2,4 L0,4 Z " fill="#FEFDFE" transform="translate(787,119)"/>
<path d="M0,0 L1,0 L1,10 L-2,9 L-2,6 L0,6 Z " fill="#050405" transform="translate(421,372)"/>
<path d="M0,0 L2,0 L2,3 L5,3 L5,5 L0,6 Z " fill="#FCE0E7" transform="translate(713,251)"/>
<path d="M0,0 L3,0 L3,5 L-2,5 L0,4 Z " fill="#040404" transform="translate(788,110)"/>
<path d="M0,0 L4,0 L4,4 L0,4 Z " fill="#141414" transform="translate(284,982)"/>
<path d="M0,0 L2,1 L-2,7 L-3,5 L-6,4 L-3,4 L-3,2 Z " fill="#FDEAF9" transform="translate(374,972)"/>
<path d="M0,0 L4,0 L4,4 L0,4 Z " fill="#ECFFFF" transform="translate(173,957)"/>
<path d="M0,0 L4,1 L4,5 L0,3 Z " fill="#FAFAFA" transform="translate(369,865)"/>
<path d="M0,0 L4,0 L3,10 L2,10 L2,2 L0,2 Z " fill="#292528" transform="translate(416,844)"/>
<path d="M0,0 L4,0 L4,4 L0,4 Z " fill="#1A181A" transform="translate(416,330)"/>
<path d="M0,0 L4,0 L4,4 L0,4 Z " fill="#343334" transform="translate(758,206)"/>
<path d="M0,0 L4,0 L4,4 L0,4 Z " fill="#FFFFFD" transform="translate(672,204)"/>
<path d="M0,0 L4,0 L4,4 L0,4 Z " fill="#FFFFFD" transform="translate(604,192)"/>
<path d="M0,0 L6,0 L2,4 L0,3 Z " fill="#FDF7F9" transform="translate(762,163)"/>
<path d="M0,0 L4,0 L4,4 L0,4 Z " fill="#F5EEEF" transform="translate(686,155)"/>
<path d="M0,0 L4,0 L4,4 L0,4 Z " fill="#F5F1F1" transform="translate(704,143)"/>
<path d="M0,0 L3,1 L2,5 L0,5 L-1,7 Z " fill="#E0DFDE" transform="translate(620,129)"/>
<path d="M0,0 L4,0 L4,4 L0,4 Z " fill="#343334" transform="translate(464,130)"/>
<path d="M0,0 L2,0 L2,6 L-2,6 L-2,4 L0,4 Z " fill="#2E2E2E" transform="translate(424,120)"/>
<path d="M0,0 L4,0 L5,5 L0,4 Z " fill="#FEFDFD" transform="translate(691,119)"/>
<path d="M0,0 L2,2 L-1,3 L-2,5 L-5,4 L-5,2 Z " fill="#FDFDFD" transform="translate(420,101)"/>
<path d="M0,0 L2,0 L2,4 L-4,4 L-4,2 L0,2 Z " fill="#010101" transform="translate(411,101)"/>
<path d="M0,0 L4,0 L4,4 L0,4 Z " fill="#FFFFFD" transform="translate(444,96)"/>
<path d="M0,0 L4,0 L4,4 L0,4 Z " fill="#343434" transform="translate(482,86)"/>
<path d="M0,0 L4,0 L4,4 L0,4 Z " fill="#343434" transform="translate(722,78)"/>
<path d="M0,0 L5,0 L6,3 L0,3 Z " fill="#848384" transform="translate(402,66)"/>
<path d="M0,0 L4,0 L4,4 L0,4 Z " fill="#FFFFFF" transform="translate(685,65)"/>
<path d="M0,0 L4,0 L4,4 L0,4 Z " fill="#FFF6FE" transform="translate(544,64)"/>
<path d="M0,0 L4,0 L4,4 L0,4 Z " fill="#FFFFFF" transform="translate(623,29)"/>
<path d="M0,0 L4,1 L4,7 L2,6 L2,4 L0,4 Z " fill="#D6D6D7" transform="translate(576,24)"/>
<path d="M0,0 L4,0 L4,2 L2,2 L2,6 L0,6 Z " fill="#FAFCFC" transform="translate(691,19)"/>
<path d="M0,0 L2,0 L3,3 L2,5 L0,5 L-1,7 L-2,4 Z " fill="#FEF2FE" transform="translate(307,986)"/>
<path d="M0,0 L2,0 L2,3 L-5,3 L-4,1 Z " fill="#FDFDFD" transform="translate(315,894)"/>
<path d="M0,0 L1,3 L6,3 L4,4 L4,6 L1,6 Z " fill="#F9EBF7" transform="translate(411,840)"/>
<path d="M0,0 L5,1 L6,3 L0,3 Z " fill="#FDFCFD" transform="translate(709,218)"/>
<path d="M0,0 L6,0 L5,3 L0,2 Z " fill="#FDF7FB" transform="translate(804,197)"/>
<path d="M0,0 L4,0 L4,4 L0,4 Z " fill="#FEFDFE" transform="translate(573,85)"/>
<path d="M0,0 L4,0 L5,3 L-1,3 Z " fill="#E8E7E8" transform="translate(386,26)"/>
<path d="M0,0 L3,0 L3,3 L-6,2 L-6,1 Z " fill="#1A191A" transform="translate(404,10)"/>
<path d="M0,0 L4,0 L4,5 L2,5 L2,2 L0,2 Z " fill="#FDFDFD" transform="translate(269,925)"/>
<path d="M0,0 L4,0 L4,4 L1,4 Z " fill="#181C1C" transform="translate(218,732)"/>
<path d="M0,0 L1,4 L-2,6 L-3,3 Z " fill="#FCF7FA" transform="translate(715,221)"/>
<path d="M0,0 L2,0 L2,5 L-2,5 L-2,3 L0,3 Z " fill="#FEFDFE" transform="translate(789,134)"/>
<path d="M0,0 L4,1 L4,4 L1,4 Z " fill="#FBFBFB" transform="translate(579,125)"/>
<path d="M0,0 L2,2 L2,7 L0,7 L-1,1 Z " fill="#FAEDF0" transform="translate(853,96)"/>
<path d="M0,0 L5,0 L4,3 L0,3 Z " fill="#FDFCFD" transform="translate(491,67)"/>
<path d="M0,0 L4,0 L3,4 L0,3 Z " fill="#171717" transform="translate(226,926)"/>
<path d="M0,0 L4,0 L3,4 L0,3 Z " fill="#040404" transform="translate(371,847)"/>
<path d="M0,0 L2,1 L2,3 L5,4 L0,6 Z " fill="#EFF7FA" transform="translate(247,846)"/>
<path d="M0,0 L3,0 L4,4 L0,4 Z " fill="#FBF8F8" transform="translate(638,169)"/>
<path d="M0,0 L4,1 L1,4 L-2,3 L0,3 Z " fill="#FCF4F6" transform="translate(717,164)"/>
<path d="M0,0 L4,0 L3,4 L0,4 Z " fill="#FFFEFE" transform="translate(775,155)"/>
<path d="M0,0 L2,1 L2,6 L0,6 L-1,1 Z " fill="#FDFDFC" transform="translate(717,125)"/>
<path d="M0,0 L4,1 L2,5 L0,5 Z " fill="#FAF5F7" transform="translate(795,113)"/>
<path d="M0,0 L5,1 L4,4 L2,4 L2,2 L0,2 Z " fill="#FBF3F4" transform="translate(841,69)"/>
<path d="M0,0 L3,0 L3,4 L0,4 Z " fill="#FEFAFF" transform="translate(299,1005)"/>
<path d="M0,0 L4,0 L5,3 L0,3 Z " fill="#1A191A" transform="translate(720,170)"/>
<path d="M0,0 L4,0 L4,3 L0,3 Z " fill="#FDF7F8" transform="translate(697,160)"/>
<path d="M0,0 L4,0 L4,3 L0,3 Z " fill="#FDF4FA" transform="translate(795,147)"/>
<path d="M0,0 L4,0 L4,3 L0,3 Z " fill="#FDFDFC" transform="translate(603,132)"/>
<path d="M0,0 L4,0 L4,4 L2,4 L2,2 L0,2 Z " fill="#333333" transform="translate(538,106)"/>
<path d="M0,0 L4,0 L4,4 L2,4 L2,2 L0,2 Z " fill="#333333" transform="translate(490,90)"/>
<path d="M0,0 L4,0 L4,4 L2,4 L2,2 L0,2 Z " fill="#333333" transform="translate(794,74)"/>
<path d="M0,0 L5,0 L5,2 L1,3 L-1,1 Z " fill="#FDFAFB" transform="translate(564,75)"/>
<path d="M0,0 L4,0 L4,2 L2,2 L2,4 L0,4 Z " fill="#FEFEFE" transform="translate(695,65)"/>
<path d="M0,0 L4,0 L4,3 L0,3 Z " fill="#FDFBFD" transform="translate(535,56)"/>
<path d="M0,0 L3,0 L3,4 L0,4 Z " fill="#FCF4F7" transform="translate(560,54)"/>
<path d="M0,0 L4,0 L4,4 L2,4 L2,2 L0,2 Z " fill="#303333" transform="translate(278,34)"/>
<path d="M0,0 L1,2 L3,2 L3,4 L1,4 L0,6 L-1,2 Z " fill="#F8F9FA" transform="translate(580,25)"/>
<path d="M0,0 L4,0 L4,3 L0,3 Z " fill="#FCFCFC" transform="translate(399,0)"/>
<path d="M0,0 L5,0 L5,3 L2,3 L2,1 Z " fill="#9C9FA1" transform="translate(291,891)"/>
<path d="M0,0 L4,1 L3,4 L1,4 Z " fill="#FAF2F8" transform="translate(848,267)"/>
<path d="M0,0 L3,0 L2,4 L0,4 Z " fill="#FDF4F8" transform="translate(671,176)"/>
<path d="M0,0 L2,0 L2,2 L4,3 L0,4 Z " fill="#FBFBFB" transform="translate(639,157)"/>
<path d="M0,0 L2,0 L2,4 L-1,4 Z " fill="#F9F9F9" transform="translate(549,115)"/>
<path d="M0,0 L3,0 L4,3 L2,4 L0,3 Z " fill="#FAFAFC" transform="translate(398,66)"/>
<path d="M0,0 L3,0 L2,4 L-1,1 Z " fill="#FCF9FA" transform="translate(562,43)"/>
<path d="M0,0 L3,0 L2,3 L-1,3 Z " fill="#050404" transform="translate(375,991)"/>
<path d="M0,0 L3,0 L2,4 L0,4 Z " fill="#FDFBFD" transform="translate(291,991)"/>
<path d="M0,0 L3,0 L2,4 L0,3 Z " fill="#1E1E1E" transform="translate(299,896)"/>
<path d="M0,0 L4,1 L3,3 L0,3 Z " fill="#969697" transform="translate(306,855)"/>
<path d="M0,0 L3,0 L3,3 L0,4 Z " fill="#969395" transform="translate(709,222)"/>
<path d="M0,0 L4,1 L3,3 L0,3 Z " fill="#979094" transform="translate(806,193)"/>
<path d="M0,0 L4,1 L3,3 L0,3 Z " fill="#979092" transform="translate(698,163)"/>
<path d="M0,0 L2,4 L1,6 L-1,6 Z " fill="#FDFCFA" transform="translate(605,142)"/>
<path d="M0,0 L4,1 L3,3 L0,3 Z " fill="#979796" transform="translate(604,135)"/>
<path d="M0,0 L4,1 L3,3 L0,3 Z " fill="#FBFBFB" transform="translate(590,132)"/>
<path d="M0,0 L5,0 L2,1 L2,3 L-1,2 Z " fill="#FDF5F8" transform="translate(790,130)"/>
<path d="M0,0 L3,0 L4,3 L0,3 Z " fill="#979795" transform="translate(694,128)"/>
<path d="M0,0 L2,1 L2,4 L-1,4 Z " fill="#FBFCFA" transform="translate(737,113)"/>
<path d="M0,0 L3,0 L3,3 L0,4 Z " fill="#FAF8F9" transform="translate(574,97)"/>
<path d="M0,0 L2,0 L1,4 L-1,4 Z " fill="#FBFBFB" transform="translate(438,84)"/>
<path d="M0,0 L4,1 L3,3 L0,3 Z " fill="#979496" transform="translate(536,59)"/>
<path d="M0,0 L1,4 L-2,4 L-2,1 Z " fill="#FCFAFB" transform="translate(514,27)"/>
<path d="M0,0 L4,1 L4,3 L0,3 Z " fill="#FEFEFE" transform="translate(517,24)"/>
<path d="M0,0 L4,0 L4,3 L0,2 Z " fill="#F0EFEF" transform="translate(554,0)"/>
<path d="M0,0 L3,1 L0,5 Z " fill="#F9EAF6" transform="translate(305,978)"/>
<path d="M0,0 L4,1 L2,2 L1,4 Z " fill="#F4F6F7" transform="translate(221,919)"/>
<path d="M0,0 L4,1 L2,4 L2,2 L0,2 Z " fill="#F7F8F9" transform="translate(310,889)"/>
<path d="M0,0 L2,0 L1,3 L-2,3 L-2,1 Z " fill="#ECF8F9" transform="translate(244,832)"/>
<path d="M0,0 L2,0 L1,4 L-1,3 Z " fill="#FDF7FB" transform="translate(810,193)"/>
<path d="M0,0 L5,1 L2,3 L0,2 Z " fill="#FEF7F9" transform="translate(672,161)"/>
<path d="M0,0 L2,0 L1,4 L-1,3 Z " fill="#FCFCFB" transform="translate(594,135)"/>
<path d="M0,0 L1,4 L-2,3 L-2,1 Z " fill="#FDFCFB" transform="translate(699,127)"/>
<path d="M0,0 L3,0 L3,3 L0,3 Z " fill="#FCFCFC" transform="translate(418,124)"/>
<path d="M0,0 L3,0 L3,3 L0,3 Z " fill="#030303" transform="translate(739,119)"/>
<path d="M0,0 L3,0 L3,3 L0,3 Z " fill="#FCFCFB" transform="translate(720,118)"/>
<path d="M0,0 L3,0 L3,3 L0,3 Z " fill="#FBF9FA" transform="translate(811,69)"/>
<path d="M0,0 L2,0 L2,3 L-1,3 Z " fill="#040303" transform="translate(402,983)"/>
<path d="M0,0 L2,0 L2,3 L-1,3 Z " fill="#040304" transform="translate(858,265)"/>
<path d="M0,0 L4,2 L0,3 Z " fill="#F9F9F8" transform="translate(619,111)"/>
<path d="M0,0 L2,3 L-1,4 Z " fill="#FDFDFE" transform="translate(318,877)"/>
<path d="M0,0 L2,3 L-1,4 Z " fill="#FEFEFD" transform="translate(690,99)"/>
<path d="M0,0 L2,0 L1,3 L-1,1 Z " fill="#FEFEFE" transform="translate(537,109)"/>
<path d="M0,0 L2,0 L1,3 L-1,1 Z " fill="#FEFEFE" transform="translate(489,93)"/>
</svg>
