<?xml version="1.0" encoding="utf-8" ?>
<svg baseProfile="tiny" height="512px" version="1.2" viewBox="0,0,512,512" width="512px" xmlns="http://www.w3.org/2000/svg" xmlns:ev="http://www.w3.org/2001/xml-events" xmlns:xlink="http://www.w3.org/1999/xlink"><defs /><polygon fill="none" points="381,49 368,39 358,40 350,45 341,43 339,47 332,41 325,44 324,50 320,51 323,51 324,55 320,57 319,63 316,63 319,64 320,58 324,56 325,45 331,42 339,47 337,50 340,51 340,57 332,60 328,71 332,61 341,57 339,47 342,43 349,44 349,47 359,40 368,39" stroke="#00E5FF" stroke-width="1.2" /><polygon fill="none" points="211,28 209,31 209,22 203,17 184,9 166,19 159,18 159,14 152,19 149,30 140,30 145,30 145,33 150,30 151,21 156,16 165,22 167,18 184,9 202,17" stroke="#00E5FF" stroke-width="1.2" /><polygon fill="none" points="180,341 183,339 194,345 183,339 178,348 183,346 192,357 197,357 206,367 203,370 209,371 213,377 218,374 214,377 207,371 205,364 181,346" stroke="#00E5FF" stroke-width="1.2" /><polygon fill="none" points="366,45 365,61 372,67 365,61 368,50" stroke="#00E5FF" stroke-width="1.2" /><polygon fill="none" points="380,77 359,85 362,87 366,84 366,92 350,94 352,96 368,91 367,85" stroke="#00E5FF" stroke-width="1.2" /><polygon fill="none" points="195,373 201,377 200,380 194,380 196,388 207,395 216,392 207,395 202,389 198,389 194,380 199,379 201,382 201,376 198,374 204,373" stroke="#00E5FF" stroke-width="1.2" /></svg>