<?xml version="1.0" encoding="UTF-8"?>
<!-- Generator: visioncortex VTracer 0.6.4 -->
<svg version="1.1" xmlns="http://www.w3.org/2000/svg" width="1024" height="1024">
<path d="M0,0 L1024,0 L1024,1024 L0,1024 Z " fill="#000000" transform="translate(0,0)"/>
<path d="M0,0 L14,0 L16,4 L22,4 L22,6 L26,6 L26,8 L34,8 L34,10 L38,10 L38,12 L42,12 L42,14 L48,14 L48,16 L52,16 L52,18 L56,18 L56,20 L66,20 L66,22 L74,22 L74,24 L82,24 L82,22 L90,22 L90,20 L102,20 L102,18 L112,18 L112,16 L136,16 L136,14 L140,14 L140,12 L144,12 L144,10 L150,10 L150,8 L162,8 L162,10 L170,10 L170,12 L176,12 L182,19 L186,20 L186,24 L188,24 L188,30 L190,30 L190,36 L196,36 L196,38 L200,38 L200,40 L204,40 L204,38 L216,38 L216,40 L222,40 L224,44 L228,44 L228,46 L232,46 L232,48 L237,49 L242,55 L247,57 L252,63 L254,64 L254,70 L256,70 L256,78 L258,78 L258,88 L260,88 L260,102 L262,102 L262,110 L260,110 L260,122 L262,122 L264,127 L268,130 L270,135 L272,136 L272,138 L276,138 L278,143 L280,144 L280,176 L282,176 L282,246 L280,246 L280,264 L278,264 L278,278 L276,278 L276,286 L278,286 L278,302 L280,302 L280,310 L282,310 L282,324 L284,324 L284,332 L286,332 L286,340 L284,340 L284,356 L282,356 L282,364 L279,366 L278,370 L270,377 L267,380 L262,383 L261,384 L254,384 L254,386 L240,386 L240,388 L234,388 L234,390 L226,390 L226,392 L221,394 L217,398 L216,402 L212,402 L212,404 L204,404 L204,402 L199,404 L198,406 L194,406 L194,408 L176,408 L176,410 L116,410 L116,408 L104,408 L104,406 L94,406 L94,404 L90,404 L90,402 L78,402 L76,399 L72,398 L72,394 L68,394 L68,392 L56,392 L56,390 L32,390 L32,388 L28,388 L28,386 L22,386 L20,384 L20,380 L16,380 L16,374 L14,374 L14,370 L12,370 L12,346 L16,344 L17,339 L20,338 L20,332 L24,330 L23,322 L20,319 L16,318 L16,314 L9,316 L8,320 L3,324 L2,326 L-2,326 L-2,328 L-8,328 L-8,326 L-12,326 L-12,318 L-14,318 L-14,314 L-16,314 L-16,310 L-20,308 L-22,306 L-22,302 L-26,300 L-26,296 L-30,294 L-30,288 L-32,288 L-32,280 L-34,280 L-34,266 L-32,266 L-32,254 L-30,254 L-30,246 L-28,246 L-28,236 L-26,236 L-26,224 L-24,224 L-24,200 L-22,200 L-22,178 L-20,178 L-20,142 L-18,142 L-20,138 L-20,130 L-18,130 L-20,126 L-20,86 L-22,86 L-22,80 L-24,80 L-24,66 L-22,66 L-22,52 L-24,52 L-24,20 L-20,20 L-20,14 L-16,14 L-16,10 L-12,10 L-12,8 L-8,8 L-6,4 L0,4 Z " fill="#E68EA0" transform="translate(386,318)"/>
<path d="M0,0 L14,0 L16,4 L22,4 L22,6 L26,6 L26,8 L34,8 L34,10 L38,10 L38,12 L42,12 L42,14 L48,14 L48,16 L52,16 L52,18 L56,18 L56,20 L66,20 L66,22 L74,22 L74,24 L82,24 L82,22 L90,22 L90,20 L102,20 L102,18 L112,18 L112,16 L136,16 L136,14 L140,14 L140,12 L144,12 L144,10 L150,10 L150,8 L162,8 L162,10 L170,10 L170,12 L176,12 L182,19 L186,20 L186,24 L188,24 L188,30 L190,30 L190,36 L196,36 L196,38 L200,38 L200,40 L204,40 L204,38 L216,38 L216,40 L222,40 L224,44 L228,44 L228,46 L232,46 L232,48 L237,49 L242,55 L247,57 L252,63 L254,64 L254,70 L256,70 L256,78 L258,78 L258,88 L260,88 L260,102 L262,102 L262,110 L260,110 L260,122 L262,122 L264,127 L268,130 L270,135 L272,136 L272,138 L276,138 L278,143 L280,144 L280,176 L282,176 L282,246 L280,246 L280,264 L278,261 L278,176 L279,145 L277,145 L277,176 L276,176 L276,145 L274,145 L273,143 L270,142 L266,137 L266,135 L262,135 L262,132 L259,131 L257,123 L256,123 L256,115 L254,114 L255,113 L256,88 L257,79 L254,80 L254,75 L252,75 L248,69 L248,67 L246,67 L246,64 L241,62 L237,58 L237,56 L230,54 L230,52 L222,52 L212,48 L180,47 L176,44 L174,35 L173,32 L174,27 L171,22 L169,21 L169,19 L162,19 L160,18 L151,19 L147,20 L146,24 L141,32 L140,33 L133,33 L133,32 L139,32 L138,26 L136,27 L136,25 L127,26 L126,23 L122,25 L113,26 L109,28 L106,29 L106,24 L100,26 L93,27 L90,27 L90,26 L86,28 L74,28 L70,26 L70,28 L64,28 L64,26 L61,28 L58,28 L58,26 L52,26 L50,24 L42,24 L42,21 L38,21 L38,19 L36,19 L36,17 L31,16 L26,13 L21,14 L17,15 L17,18 L-1,18 L-1,16 L-6,16 L-6,18 L-9,19 L-11,22 L-18,21 L-19,23 L-19,21 L-23,21 L-23,51 L-21,51 L-21,23 L-20,23 L-20,42 L-18,42 L-17,80 L-14,91 L-14,215 L-15,225 L-16,227 L-17,236 L-21,245 L-22,254 L-24,254 L-23,260 L-25,263 L-25,280 L-24,287 L-20,289 L-20,291 L-12,292 L-10,292 L-9,302 L-6,302 L-6,304 L-2,302 L-2,300 L2,298 L2,300 L5,297 L4,295 L8,294 L8,298 L10,299 L11,294 L14,294 L14,289 L22,287 L22,290 L26,290 L26,288 L30,288 L30,290 L34,290 L34,294 L38,295 L42,304 L42,315 L41,323 L39,324 L35,335 L33,341 L27,345 L21,345 L17,350 L17,358 L18,358 L19,373 L21,377 L24,380 L24,382 L29,383 L33,385 L66,386 L66,388 L71,386 L109,386 L114,385 L114,387 L118,385 L122,385 L122,387 L147,387 L147,385 L155,386 L222,386 L222,384 L227,383 L227,385 L230,384 L233,379 L234,377 L229,376 L226,377 L226,373 L222,371 L220,368 L214,367 L214,366 L232,366 L234,365 L235,367 L238,368 L238,366 L246,366 L253,365 L256,362 L265,360 L266,356 L267,354 L264,355 L262,353 L260,354 L260,348 L268,348 L268,352 L270,351 L272,347 L275,344 L277,341 L278,333 L276,333 L276,329 L274,329 L274,321 L276,321 L276,317 L273,316 L273,314 L275,314 L273,305 L274,296 L272,296 L272,278 L273,278 L273,286 L275,286 L274,278 L274,265 L275,265 L275,277 L277,277 L277,264 L278,264 L278,278 L276,278 L276,286 L278,286 L278,302 L280,302 L280,310 L282,310 L282,324 L284,324 L284,332 L286,332 L286,340 L284,340 L284,356 L282,356 L282,364 L279,366 L278,370 L270,377 L267,380 L262,383 L261,384 L254,384 L254,386 L240,386 L240,388 L234,388 L234,390 L226,390 L226,392 L221,394 L217,398 L216,402 L212,402 L212,404 L204,404 L204,402 L199,404 L198,406 L194,406 L194,408 L176,408 L176,410 L116,410 L116,408 L104,408 L104,406 L94,406 L94,404 L90,404 L90,402 L78,402 L76,399 L72,398 L72,394 L68,394 L68,392 L56,392 L56,390 L32,390 L32,388 L28,388 L28,386 L22,386 L20,384 L20,380 L16,380 L16,374 L14,374 L14,370 L12,370 L12,346 L16,344 L17,339 L20,338 L20,332 L24,330 L23,322 L20,319 L16,318 L16,314 L9,316 L8,320 L3,324 L2,326 L-2,326 L-2,328 L-8,328 L-8,326 L-12,326 L-12,318 L-14,318 L-14,314 L-16,314 L-16,310 L-20,308 L-22,306 L-22,302 L-26,300 L-26,296 L-30,294 L-30,288 L-32,288 L-32,280 L-34,280 L-34,266 L-32,266 L-32,254 L-30,254 L-30,246 L-28,246 L-28,236 L-26,236 L-26,224 L-24,224 L-24,200 L-22,200 L-22,178 L-20,178 L-20,142 L-18,142 L-20,138 L-20,130 L-18,130 L-20,126 L-20,86 L-22,86 L-22,80 L-24,80 L-24,66 L-22,66 L-22,52 L-24,52 L-24,20 L-20,20 L-20,14 L-16,14 L-16,10 L-12,10 L-12,8 L-8,8 L-6,4 L0,4 Z M139,24 Z M234,364 Z " fill="#D17786" transform="translate(386,318)"/>
<path d="M0,0 L10,0 L10,2 L14,2 L14,6 L16,6 L18,13 L20,14 L20,20 L22,20 L22,40 L18,40 L18,52 L12,52 L12,54 L-8,54 L-8,52 L-16,52 L-16,50 L-22,50 L-22,52 L-28,52 L-30,50 L-30,46 L-33,48 L-34,92 L-62,92 L-62,96 L-102,96 L-102,92 L-114,92 L-114,94 L-122,94 L-122,92 L-130,92 L-130,90 L-142,90 L-142,92 L-149,92 L-152,90 L-152,84 L-150,84 L-150,78 L-148,76 L-142,76 L-142,74 L-126,74 L-126,72 L-122,72 L-122,70 L-118,70 L-118,68 L-110,68 L-110,66 L-106,66 L-106,60 L-98,60 L-98,54 L-94,54 L-94,42 L-86,42 L-86,40 L-80,40 L-80,38 L-76,38 L-76,36 L-70,36 L-70,38 L-66,38 L-66,42 L-58,42 L-58,48 L-52,48 L-52,50 L-48,50 L-48,48 L-44,48 L-44,46 L-38,46 L-38,44 L-40,44 L-40,38 L-34,38 L-34,40 L-32,40 L-32,34 L-28,34 L-28,32 L-24,32 L-24,28 L-20,28 L-20,26 L-18,26 L-17,21 L-4,8 L-2,8 L-2,2 Z " fill="#38080E" transform="translate(724,730)"/>
<path d="M0,0 L14,0 L16,4 L22,4 L22,6 L26,6 L26,8 L34,8 L34,10 L38,10 L38,12 L42,12 L42,14 L48,14 L48,16 L52,16 L52,18 L56,18 L56,20 L66,20 L66,22 L74,22 L74,24 L82,24 L82,22 L90,22 L90,20 L102,20 L102,18 L112,18 L112,16 L136,16 L136,14 L140,14 L140,12 L144,12 L144,10 L150,10 L150,8 L162,8 L162,10 L170,10 L170,12 L176,12 L182,19 L186,20 L186,24 L188,24 L188,30 L190,30 L190,36 L196,36 L196,38 L200,38 L200,40 L204,40 L204,38 L216,38 L216,40 L222,40 L224,44 L228,44 L228,46 L232,46 L232,48 L237,49 L242,55 L247,57 L252,63 L254,64 L254,70 L256,70 L256,78 L258,78 L258,88 L260,88 L260,102 L262,102 L262,110 L260,110 L260,122 L262,122 L264,127 L268,130 L270,135 L272,136 L272,138 L276,138 L278,143 L280,144 L280,176 L282,176 L282,246 L280,246 L280,264 L278,261 L278,176 L279,145 L277,145 L277,176 L276,176 L276,145 L274,145 L273,143 L270,142 L266,137 L266,135 L262,135 L262,132 L259,131 L257,123 L256,123 L256,115 L254,114 L255,113 L256,88 L257,79 L254,80 L254,75 L252,75 L248,69 L248,67 L246,67 L246,64 L241,62 L237,58 L237,56 L230,54 L230,52 L222,52 L212,48 L180,47 L176,44 L174,35 L173,32 L174,27 L171,22 L169,21 L169,19 L162,19 L160,18 L151,19 L147,20 L146,24 L141,32 L140,33 L133,33 L133,32 L139,32 L138,26 L136,27 L136,25 L127,26 L126,23 L122,25 L113,26 L109,28 L106,29 L106,24 L100,26 L93,27 L90,27 L90,26 L86,28 L74,28 L70,26 L70,28 L64,28 L64,26 L61,28 L58,28 L58,26 L52,26 L50,24 L42,24 L42,21 L38,21 L38,19 L36,19 L36,17 L31,16 L26,13 L21,14 L17,15 L17,18 L-1,18 L-1,16 L-6,16 L-6,18 L-9,19 L-11,22 L-18,21 L-19,23 L-19,21 L-23,21 L-23,51 L-21,51 L-21,23 L-20,23 L-20,42 L-18,42 L-17,80 L-14,91 L-14,215 L-15,225 L-16,227 L-17,236 L-21,245 L-22,254 L-24,254 L-23,260 L-25,263 L-25,280 L-24,287 L-20,289 L-20,291 L-12,292 L-10,292 L-9,302 L-6,302 L-6,304 L-2,302 L-2,300 L2,298 L2,300 L5,297 L4,295 L8,294 L8,298 L10,299 L11,294 L14,294 L14,289 L22,287 L22,290 L26,290 L26,288 L30,288 L30,290 L34,290 L34,294 L38,295 L42,304 L42,315 L39,316 L39,310 L37,310 L37,307 L30,306 L30,301 L24,303 L16,307 L2,308 L-6,308 L-6,305 L-10,305 L-11,308 L-13,306 L-18,304 L-21,305 L-21,299 L-25,299 L-25,293 L-29,293 L-29,288 L-32,288 L-32,280 L-34,280 L-34,266 L-32,266 L-32,254 L-30,254 L-30,246 L-28,246 L-28,236 L-26,236 L-26,224 L-24,224 L-24,200 L-22,200 L-22,178 L-20,178 L-20,142 L-18,142 L-20,138 L-20,130 L-18,130 L-20,126 L-20,86 L-22,86 L-22,80 L-24,80 L-24,66 L-22,66 L-22,52 L-24,52 L-24,20 L-20,20 L-20,14 L-16,14 L-16,10 L-12,10 L-12,8 L-8,8 L-6,4 L0,4 Z M139,24 Z " fill="#D58D97" transform="translate(386,318)"/>
<path d="M0,0 L8,0 L8,6 L52,6 L52,12 L44,12 L44,16 L36,16 L36,12 L20,12 L20,16 L8,16 L8,18 L16,18 L16,28 L12,28 L12,30 L8,30 L8,34 L0,34 L0,28 L-22,28 L-22,30 L-32,31 L-34,36 L-38,40 L-42,40 L-42,42 L-46,42 L-46,46 L-50,46 L-50,48 L-86,48 L-86,42 L-84,40 L-80,40 L-80,38 L-76,38 L-76,36 L-60,36 L-60,32 L-56,32 L-54,28 L-52,26 L-48,26 L-48,24 L-44,24 L-44,20 L-39,18 L-38,16 L-44,16 L-44,10 L-40,10 L-38,6 L-24,6 L-24,4 L0,4 Z " fill="#2C060B" transform="translate(602,846)"/>
<path d="M0,0 L21,1 L21,2 L29,3 L29,5 L31,5 L32,8 L40,10 L40,25 L43,26 L50,26 L50,28 L59,29 L59,27 L71,27 L71,29 L77,29 L79,33 L83,33 L83,35 L87,35 L87,37 L92,38 L97,44 L102,46 L107,52 L109,53 L109,59 L111,59 L111,67 L113,67 L113,77 L115,77 L115,91 L117,91 L117,99 L115,99 L115,111 L117,111 L119,116 L123,119 L125,124 L127,125 L127,127 L131,127 L133,132 L135,133 L135,165 L137,165 L137,235 L135,235 L135,253 L133,250 L133,165 L134,134 L132,134 L132,165 L131,165 L131,134 L129,134 L128,132 L125,131 L121,126 L121,124 L117,124 L117,121 L114,120 L112,112 L111,112 L111,104 L109,103 L110,102 L111,77 L112,68 L109,69 L109,64 L107,64 L103,58 L103,56 L101,56 L101,53 L96,51 L92,47 L92,45 L85,43 L85,41 L77,41 L67,37 L35,36 L31,33 L29,24 L28,21 L29,16 L26,11 L24,10 L24,8 L17,8 L15,7 L6,8 L2,9 L1,13 L-4,21 L-5,22 L-12,22 L-12,21 L-6,21 L-7,15 L-9,16 L-9,14 L-18,15 L-19,12 L-23,14 L-32,15 L-36,17 L-39,18 L-39,13 L-54,12 L-54,10 L-42,10 L-42,8 L-32,8 L-32,6 L-8,6 L-8,4 L-4,4 L-4,2 L0,2 Z M-6,13 Z " fill="#DB95A7" transform="translate(531,329)"/>
<path d="M0,0 L10,0 L10,2 L14,2 L14,6 L16,6 L18,13 L20,14 L20,20 L22,20 L22,40 L18,40 L18,52 L12,52 L12,54 L-8,54 L-8,52 L-16,52 L-16,50 L-22,50 L-22,52 L-28,52 L-30,50 L-29,43 L-32,43 L-32,45 L-37,44 L-36,41 L-32,40 L-32,34 L-28,34 L-28,32 L-24,32 L-24,28 L-20,28 L-20,26 L-18,26 L-17,21 L-4,8 L-2,8 L-2,2 Z " fill="#31050B" transform="translate(724,730)"/>
<path d="M0,0 L14,0 L16,4 L22,4 L22,6 L26,6 L26,8 L34,8 L34,10 L38,10 L38,12 L42,12 L42,14 L48,14 L48,16 L52,16 L52,18 L56,18 L56,20 L66,20 L66,22 L74,22 L74,24 L82,24 L82,22 L90,22 L90,20 L102,20 L102,18 L112,18 L112,16 L136,16 L136,14 L140,14 L140,12 L144,12 L144,10 L150,10 L150,8 L162,8 L162,10 L170,10 L170,12 L176,12 L182,19 L186,20 L186,24 L188,24 L188,30 L190,30 L190,36 L196,36 L196,38 L200,38 L199,40 L190,40 L190,39 L195,39 L195,37 L187,38 L184,36 L184,23 L185,21 L177,20 L176,16 L174,16 L174,14 L162,14 L162,13 L145,11 L145,13 L147,14 L141,13 L141,15 L143,16 L137,15 L137,17 L113,17 L113,19 L103,19 L103,21 L91,21 L91,23 L101,23 L100,26 L93,27 L90,27 L90,26 L86,28 L74,28 L70,26 L70,28 L64,28 L64,26 L61,28 L58,28 L58,26 L52,26 L50,24 L42,24 L42,21 L38,21 L38,19 L36,19 L36,17 L31,16 L26,13 L21,14 L17,15 L17,18 L-1,18 L-1,16 L-6,16 L-6,18 L-9,19 L-11,22 L-18,21 L-19,23 L-19,21 L-23,21 L-23,51 L-21,51 L-21,23 L-20,23 L-20,42 L-18,42 L-18,125 L-17,126 L-17,131 L-19,131 L-17,138 L-17,143 L-19,143 L-18,145 L-18,206 L-19,210 L-20,223 L-21,223 L-21,201 L-23,201 L-23,224 L-24,224 L-24,200 L-22,200 L-22,178 L-20,178 L-20,142 L-18,142 L-20,138 L-20,130 L-18,130 L-20,126 L-20,86 L-22,86 L-22,80 L-24,80 L-24,66 L-22,66 L-22,52 L-24,52 L-24,20 L-20,20 L-20,14 L-16,14 L-16,10 L-12,10 L-12,8 L-8,8 L-6,4 L0,4 Z " fill="#CF8E9E" transform="translate(386,318)"/>
<path d="M0,0 L18,0 L25,1 L28,4 L34,5 L36,4 L44,4 L44,6 L49,8 L53,14 L56,20 L57,36 L54,44 L48,49 L44,56 L40,56 L40,58 L32,60 L30,64 L28,67 L23,69 L16,69 L15,66 L16,50 L24,51 L24,53 L26,53 L27,51 L30,52 L30,50 L32,50 L34,45 L35,35 L36,32 L32,36 L30,36 L30,31 L29,29 L31,29 L31,24 L33,24 L33,18 L31,18 L32,11 L24,10 L23,13 L22,11 L16,12 L12,10 L9,9 L1,14 L-3,20 L-7,24 L-8,26 L-10,25 L-10,14 L-12,18 L-12,11 L-10,11 L-10,6 L-6,2 L0,2 Z " fill="#EFA7B9" transform="translate(576,371)"/>
<path d="M0,0 L1,3 L7,4 L7,6 L3,7 L0,6 L-3,7 L-7,6 L-9,20 L-12,21 L-13,24 L-11,24 L-11,28 L-7,28 L-9,32 L-10,36 L-7,36 L-5,43 L-8,46 L-10,191 L-9,207 L-11,213 L-11,232 L-12,233 L-13,240 L-15,240 L-13,247 L-13,272 L-9,273 L-8,277 L-2,278 L0,282 L-4,284 L-9,283 L-9,278 L-16,279 L-21,276 L-21,274 L-24,273 L-25,266 L-25,249 L-23,246 L-23,240 L-21,240 L-21,231 L-17,222 L-16,213 L-15,211 L-14,201 L-14,77 L-17,66 L-17,28 L-19,28 L-20,37 L-22,37 L-22,7 L-10,7 L-8,4 L-5,4 L-5,2 L0,2 Z " fill="#DD939D" transform="translate(385,332)"/>
<path d="M0,0 L1,0 L1,5 L3,5 L3,0 L5,4 L6,9 L5,11 L7,11 L8,8 L10,11 L9,17 L11,17 L12,14 L13,16 L19,18 L24,17 L24,20 L32,19 L46,18 L54,14 L55,13 L60,13 L60,18 L67,19 L67,22 L69,22 L69,28 L71,28 L71,35 L69,36 L65,47 L63,53 L57,57 L51,57 L47,62 L47,70 L48,70 L49,85 L51,89 L54,92 L54,94 L59,95 L63,97 L96,98 L96,100 L98,101 L87,101 L87,103 L101,102 L99,103 L99,105 L102,106 L98,106 L98,104 L86,104 L86,102 L62,102 L62,100 L58,100 L58,98 L52,98 L50,96 L50,92 L46,92 L46,86 L44,86 L44,82 L42,82 L42,58 L46,56 L47,51 L50,50 L50,44 L54,42 L53,34 L50,31 L46,30 L46,26 L39,28 L38,32 L33,36 L32,38 L28,38 L28,40 L22,40 L22,38 L18,38 L18,30 L16,30 L16,26 L14,26 L14,22 L10,20 L8,18 L8,14 L4,12 L4,8 L0,6 Z " fill="#CD7986" transform="translate(356,606)"/>
<path d="M0,0 L14,0 L14,2 L26,2 L26,0 L40,0 L40,2 L50,2 L50,4 L54,4 L56,7 L60,8 L60,20 L58,20 L58,24 L52,24 L52,22 L50,22 L50,28 L46,28 L46,32 L20,32 L20,30 L16,30 L14,25 L8,24 L6,21 L0,19 L-4,16 L-4,6 L-2,6 L-1,1 Z " fill="#2F0708" transform="translate(420,806)"/>
<path d="M0,0 L1,0 L1,14 L-1,14 L-1,22 L1,22 L1,38 L3,38 L3,46 L5,46 L5,60 L7,60 L7,68 L9,68 L9,76 L7,76 L7,92 L4,92 L4,98 L2,98 L1,95 L-3,103 L-11,105 L-14,108 L-16,108 L-16,110 L-21,113 L-25,114 L-25,116 L-39,117 L-44,118 L-44,115 L-43,113 L-48,112 L-51,113 L-51,109 L-55,107 L-57,104 L-63,103 L-63,102 L-45,102 L-43,101 L-42,103 L-39,104 L-39,102 L-31,102 L-24,101 L-21,98 L-12,96 L-11,92 L-10,90 L-13,91 L-15,89 L-17,90 L-17,84 L-9,84 L-9,88 L-7,87 L-5,83 L-2,80 L0,77 L1,69 L-1,69 L-1,65 L-3,65 L-3,57 L-1,57 L-1,53 L-4,52 L-4,50 L-2,50 L-4,41 L-3,32 L-5,32 L-5,14 L-4,14 L-4,22 L-2,22 L-3,14 L-3,1 L-2,1 L-2,13 L0,13 Z M-43,100 Z " fill="#D17E90" transform="translate(663,582)"/>
<path d="M0,0 L1,0 L1,8 L-2,10 L-3,14 L-11,21 L-14,24 L-19,27 L-20,28 L-27,28 L-27,30 L-41,30 L-41,32 L-47,32 L-47,34 L-55,34 L-55,36 L-60,38 L-64,42 L-65,46 L-69,46 L-69,48 L-77,48 L-77,46 L-82,48 L-83,50 L-87,50 L-87,52 L-105,52 L-105,54 L-165,54 L-165,52 L-177,52 L-177,50 L-187,50 L-187,48 L-191,48 L-191,46 L-203,46 L-205,43 L-209,42 L-208,38 L-208,41 L-202,40 L-201,42 L-202,45 L-191,44 L-179,44 L-179,46 L-176,46 L-176,48 L-164,48 L-163,49 L-105,50 L-88,51 L-88,49 L-105,49 L-105,48 L-95,48 L-96,43 L-95,35 L-94,34 L-83,33 L-81,32 L-81,34 L-74,32 L-71,33 L-55,32 L-48,33 L-48,31 L-55,31 L-51,28 L-49,26 L-43,24 L-29,24 L-29,22 L-24,19 L-20,18 L-20,16 L-16,15 L-15,12 L-7,11 L-5,4 L-2,2 L-2,6 L0,6 Z M-81,31 Z " fill="#C97181" transform="translate(667,674)"/>
<path d="M0,0 L2,1 L1,6 L1,12 L0,15 L2,24 L1,30 L4,31 L4,70 L5,79 L4,81 L4,97 L5,98 L6,95 L7,97 L5,104 L4,105 L4,111 L5,114 L5,117 L6,133 L5,138 L7,139 L6,145 L4,150 L4,166 L3,170 L3,176 L1,179 L3,179 L4,182 L2,188 L1,188 L0,183 L0,191 L-4,194 L-6,203 L-8,201 L-8,196 L-6,196 L-6,189 L-5,185 L-5,169 L-3,163 L-4,140 L-2,2 Z M-1,20 Z " fill="#E898A5" transform="translate(378,376)"/>
<path d="M0,0 L28,0 L38,4 L46,5 L46,7 L51,8 L56,13 L62,17 L62,20 L64,20 L68,26 L68,28 L70,28 L71,32 L73,32 L72,63 L70,64 L70,56 L66,59 L67,64 L64,66 L62,64 L59,62 L54,65 L51,68 L49,68 L49,71 L43,73 L42,75 L34,77 L19,77 L16,75 L16,71 L21,72 L22,74 L30,74 L34,73 L35,69 L40,65 L46,64 L46,62 L50,62 L52,57 L55,53 L57,53 L58,50 L60,50 L61,45 L62,42 L61,26 L58,20 L54,14 L50,12 L50,10 L37,12 L32,9 L31,8 L24,7 L6,6 L6,8 L-2,9 L-3,12 L-6,11 L-4,11 L-4,6 L0,5 L4,6 L4,2 L-2,3 L0,2 Z M64,59 Z M62,61 Z " fill="#DEA0B0" transform="translate(570,365)"/>
<path d="M0,0 L12,0 L12,2 L18,2 L20,6 L24,6 L24,8 L28,8 L28,10 L33,11 L38,17 L43,19 L48,25 L50,26 L50,32 L52,32 L52,40 L54,40 L54,50 L56,50 L56,64 L58,64 L58,72 L56,72 L56,84 L58,84 L60,89 L64,92 L66,97 L68,98 L68,100 L72,100 L74,105 L76,106 L76,138 L78,138 L78,208 L76,208 L76,226 L74,223 L74,138 L75,107 L73,107 L73,138 L72,138 L72,107 L70,107 L69,105 L66,104 L62,99 L62,97 L58,97 L58,94 L55,93 L53,85 L52,85 L52,77 L50,76 L51,75 L52,50 L53,41 L50,42 L50,37 L48,37 L44,31 L44,29 L42,29 L42,26 L37,24 L33,20 L33,18 L26,16 L27,14 L18,11 L15,10 L15,8 L13,7 L18,7 L19,5 L14,6 L14,5 L0,4 L-4,2 L0,2 Z " fill="#D2A0AC" transform="translate(590,356)"/>
<path d="M0,0 L2,0 L2,3 L4,3 L7,9 L10,18 L11,22 L11,69 L5,87 L3,87 L3,89 L-1,93 L-3,95 L-3,89 L-2,87 L-6,87 L-6,77 L-2,75 L-1,72 L-3,72 L-4,69 L-1,67 L-2,49 L-2,19 L-1,16 L-1,9 L-6,11 L-14,10 L-14,8 L-6,7 L-6,4 L-1,4 L1,9 L3,10 L3,8 L1,8 Z " fill="#F0A0B2" transform="translate(646,493)"/>
<path d="M0,0 L4,0 L4,119 L2,119 L2,132 L0,133 L0,141 L-2,141 L-4,157 L-6,156 L-6,148 L-10,153 L-10,156 L-13,158 L-15,162 L-16,162 L-17,151 L-16,149 L-13,149 L-12,140 L-11,139 L-8,123 L-7,121 L-4,121 L-3,108 L-1,101 L-1,49 L-2,34 L-3,27 L-5,26 L-3,26 L-3,17 L-2,17 L-1,4 Z " fill="#D48C9B" transform="translate(661,463)"/>
<path d="M0,0 L2,2 L1,4 L2,9 L1,13 L5,12 L5,20 L7,20 L5,30 L1,33 L-2,35 L-8,35 L-12,40 L-12,48 L-11,48 L-10,63 L-8,67 L-5,70 L-5,72 L0,73 L4,75 L37,76 L37,78 L39,79 L28,79 L28,81 L42,80 L40,81 L40,83 L43,84 L39,84 L39,82 L27,82 L27,80 L3,80 L3,78 L-1,78 L-1,76 L-7,76 L-9,74 L-9,70 L-13,70 L-13,64 L-15,64 L-15,60 L-17,60 L-17,36 L-13,34 L-12,29 L-9,28 L-9,22 L-5,20 L-6,12 L-8,9 L-4,8 L-2,1 Z " fill="#C97783" transform="translate(415,628)"/>
<path d="M0,0 L9,0 L14,5 L14,7 L16,7 L18,12 L18,30 L16,33 L14,33 L12,37 L11,39 L3,40 L-1,38 L0,28 L1,25 L-3,29 L-5,29 L-5,24 L-6,22 L-4,22 L-4,17 L-2,17 L-2,11 L-4,11 L-3,4 L0,3 Z " fill="#F6B7C6" transform="translate(611,378)"/>
<path d="M0,0 L2,0 L2,3 L6,3 L6,1 L10,1 L10,3 L14,3 L14,7 L18,8 L22,17 L22,28 L19,29 L19,23 L17,23 L17,20 L10,19 L10,14 L4,16 L-4,20 L-18,21 L-26,21 L-26,18 L-31,17 L-34,12 L-34,10 L-39,11 L-39,4 L-32,5 L-30,5 L-29,15 L-26,15 L-26,17 L-22,15 L-22,13 L-18,11 L-18,13 L-15,10 L-16,8 L-12,7 L-12,11 L-10,12 L-9,7 L-6,7 L-6,2 Z " fill="#DD8291" transform="translate(406,605)"/>
<path d="M0,0 L1,3 L7,4 L7,6 L3,7 L0,6 L-3,7 L-7,6 L-9,20 L-12,21 L-12,64 L-11,83 L-11,152 L-12,164 L-13,164 L-14,96 L-14,77 L-17,66 L-17,28 L-19,28 L-20,37 L-22,37 L-22,7 L-10,7 L-8,4 L-5,4 L-5,2 L0,2 Z " fill="#D08F9D" transform="translate(385,332)"/>
<path d="M0,0 L6,0 L6,1 L1,1 L1,3 L6,3 L2,6 L-5,5 L-5,7 L-1,9 L-4,12 L-7,13 L-8,17 L-12,17 L-13,19 L-13,17 L-17,17 L-17,47 L-15,47 L-15,19 L-14,19 L-14,38 L-12,38 L-12,121 L-11,122 L-11,127 L-13,127 L-11,134 L-11,139 L-13,139 L-12,141 L-12,202 L-13,206 L-14,219 L-15,219 L-15,197 L-17,197 L-17,220 L-18,220 L-18,196 L-16,196 L-16,174 L-14,174 L-14,138 L-12,138 L-14,134 L-14,126 L-12,126 L-14,122 L-14,82 L-16,82 L-16,76 L-18,76 L-18,62 L-16,62 L-16,48 L-18,48 L-18,16 L-14,16 L-14,10 L-10,10 L-10,6 L-6,6 L-6,4 L-2,4 Z M-1,7 Z " fill="#CA8A99" transform="translate(380,322)"/>
<path d="M0,0 L1,3 L7,2 L8,4 L7,7 L18,6 L30,6 L30,8 L33,8 L33,10 L45,10 L46,11 L104,12 L121,13 L121,11 L104,11 L104,10 L116,10 L116,8 L120,8 L120,6 L125,4 L132,4 L128,5 L128,7 L132,6 L140,6 L143,7 L144,4 L144,8 L140,8 L140,10 L132,10 L132,8 L127,10 L126,12 L122,12 L122,14 L104,14 L104,16 L44,16 L44,14 L32,14 L32,12 L22,12 L22,10 L18,10 L18,8 L6,8 L4,5 L0,4 Z " fill="#BC6776" transform="translate(458,712)"/>
<path d="M0,0 L28,0 L38,4 L46,5 L46,7 L51,8 L56,13 L62,17 L62,20 L64,20 L66,27 L68,41 L65,48 L63,48 L62,52 L53,57 L55,53 L57,53 L58,50 L60,50 L61,45 L62,42 L61,26 L58,20 L54,14 L50,12 L50,10 L37,12 L32,9 L31,8 L24,7 L6,6 L6,8 L-2,9 L-3,12 L-6,11 L-4,11 L-4,6 L0,5 L4,6 L4,2 L-2,3 L0,2 Z " fill="#E3A3B1" transform="translate(570,365)"/>
<path d="M0,0 L1,0 L1,62 L-1,92 L-4,100 L-7,115 L-8,115 L-8,107 L-10,107 L-8,117 L-6,116 L-7,122 L-10,126 L-11,143 L-13,150 L-13,158 L-15,158 L-15,150 L-17,150 L-17,136 L-15,136 L-15,124 L-13,124 L-13,116 L-11,116 L-11,106 L-9,106 L-9,94 L-6,94 L-6,71 L-4,71 L-3,80 L-2,76 L-2,13 L0,13 L-2,7 L-2,1 Z " fill="#D08893" transform="translate(369,448)"/>
<path d="M0,0 L5,3 L7,8 L9,9 L9,11 L13,11 L15,16 L17,17 L17,49 L19,49 L19,119 L17,119 L17,137 L15,134 L15,49 L16,18 L14,18 L14,49 L13,49 L13,18 L11,18 L10,16 L7,15 L3,10 L4,4 L2,4 L1,7 L1,4 L-1,4 Z " fill="#BA7A89" transform="translate(649,445)"/>
<path d="M0,0 L5,1 L12,3 L14,7 L15,22 L15,74 L12,86 L10,86 L9,90 L8,86 L6,86 L9,76 L10,72 L10,25 L9,21 L6,12 L4,6 L2,6 L2,3 L0,3 Z " fill="#E399AA" transform="translate(646,490)"/>
<path d="M0,0 L7,0 L8,2 L10,3 L7,6 L1,7 L-2,10 L-4,10 L-4,12 L-9,15 L-13,16 L-13,18 L-27,19 L-32,20 L-32,17 L-31,15 L-36,14 L-39,15 L-39,11 L-41,10 L-39,8 L-33,7 L-33,10 L-31,10 L-30,7 L-9,5 L-4,3 Z M3,1 Z " fill="#D9748A" transform="translate(651,680)"/>
<path d="M0,0 L3,1 L3,40 L4,49 L3,51 L3,67 L4,68 L5,65 L6,67 L4,74 L3,75 L3,81 L4,84 L4,87 L5,103 L4,108 L6,109 L5,115 L3,120 L3,127 L1,130 L0,111 L-1,62 L-1,24 Z " fill="#EA9CAC" transform="translate(379,406)"/>
<path d="M0,0 L21,1 L17,3 L4,5 L-2,7 L-4,11 L-8,12 L-8,14 L-18,15 L-19,12 L-23,14 L-32,15 L-36,17 L-39,18 L-39,13 L-54,12 L-54,10 L-42,10 L-42,8 L-32,8 L-32,6 L-8,6 L-8,4 L-4,4 L-4,2 L0,2 Z " fill="#D0889A" transform="translate(531,329)"/>
<path d="M0,0 L12,0 L12,2 L20,2 L20,4 L26,4 L32,11 L36,12 L36,16 L38,16 L38,22 L40,22 L40,28 L46,28 L46,30 L50,30 L49,32 L40,32 L40,31 L45,31 L45,29 L37,30 L34,28 L34,15 L35,13 L27,12 L26,8 L24,8 L24,6 L12,6 L12,5 L-5,3 L-5,5 L-3,6 L-9,5 L-9,7 L-7,8 L-13,7 L-13,9 L-37,9 L-37,11 L-47,11 L-47,13 L-59,13 L-59,15 L-49,15 L-50,18 L-57,19 L-60,19 L-60,18 L-64,20 L-76,20 L-76,19 L-68,19 L-68,17 L-77,17 L-77,15 L-84,15 L-84,14 L-76,14 L-76,16 L-68,16 L-68,14 L-60,14 L-60,12 L-48,12 L-48,10 L-38,10 L-38,8 L-14,8 L-14,6 L-10,6 L-10,4 L-6,4 L-6,2 L0,2 Z " fill="#B97D8C" transform="translate(536,326)"/>
<path d="M0,0 L1,0 L1,8 L-2,10 L-3,14 L-11,21 L-14,24 L-19,27 L-20,28 L-27,28 L-27,30 L-47,31 L-51,29 L-51,27 L-43,24 L-29,24 L-29,22 L-24,19 L-20,18 L-20,16 L-16,15 L-15,12 L-7,11 L-5,4 L-2,2 L-2,6 L0,6 Z " fill="#C56E7F" transform="translate(667,674)"/>
<path d="M0,0 L2,1 L1,6 L1,12 L0,15 L-1,134 L-1,170 L-2,192 L-5,197 L-6,203 L-8,201 L-8,196 L-6,196 L-6,189 L-5,185 L-5,169 L-3,163 L-4,140 L-2,2 Z " fill="#E093A4" transform="translate(378,376)"/>
<path d="M0,0 L4,0 L4,2 L12,2 L12,4 L16,4 L16,6 L20,6 L20,8 L26,8 L26,10 L30,10 L30,12 L34,12 L34,14 L44,14 L44,17 L51,17 L51,19 L60,19 L60,21 L51,21 L48,20 L48,22 L42,22 L42,20 L39,22 L36,22 L36,20 L30,20 L28,18 L20,18 L20,15 L16,15 L16,13 L14,13 L14,11 L9,10 L4,7 L4,5 L11,5 L11,3 L9,4 L1,4 L3,3 L3,1 Z " fill="#CC7F93" transform="translate(408,324)"/>
<path d="M0,0 L2,0 L2,4 L6,4 L4,8 L3,12 L6,12 L8,19 L5,22 L4,90 L3,130 L2,138 L1,138 L1,59 L0,40 Z " fill="#D990A2" transform="translate(372,356)"/>
<path d="M0,0 L8,0 L8,18 L10,18 L10,22 L12,22 L12,30 L4,30 L4,28 L0,28 L0,24 L-2,24 L-2,20 L-4,20 L-4,8 L0,6 Z " fill="#2A050E" transform="translate(254,622)"/>
<path d="M0,0 L7,1 L10,3 L10,23 L9,26 L5,29 L2,26 L-3,25 L-4,14 L-4,4 Z " fill="#F7C1CE" transform="translate(616,382)"/>
<path d="M0,0 L6,0 L7,2 L10,3 L10,6 L12,6 L12,8 L14,8 L14,14 L16,14 L16,18 L18,18 L18,22 L20,22 L20,26 L22,26 L22,30 L26,30 L26,36 L20,36 L20,32 L15,31 L12,28 L12,24 L10,24 L10,20 L8,20 L6,13 L0,7 Z " fill="#2E070A" transform="translate(286,658)"/>
<path d="M0,0 L2,4 L3,11 L5,18 L5,28 L4,29 L3,53 L1,64 L-2,70 L-6,70 L-6,60 L-2,58 L-1,55 L-3,55 L-4,52 L-1,50 L-2,32 L-2,2 Z " fill="#F8A4B6" transform="translate(646,510)"/>
<path d="M0,0 L2,0 L2,3 L4,3 L7,9 L10,18 L11,22 L11,69 L5,87 L3,87 L3,89 L-1,93 L-3,95 L-3,89 L-1,88 L2,81 L3,73 L6,71 L8,59 L8,31 L6,27 L6,21 L7,18 L5,12 L3,12 L3,8 L1,8 Z M7,40 Z " fill="#ED9AAB" transform="translate(646,493)"/>
<path d="M0,0 L6,0 L15,2 L15,4 L19,6 L21,12 L19,18 L17,18 L16,20 L8,22 L8,18 L5,17 L1,18 L1,16 L4,16 L4,13 L9,13 L12,11 L12,8 L4,7 L-3,9 L-3,7 L-6,8 L-7,18 L-9,17 L-9,7 L-7,3 Z M-4,9 Z " fill="#EBA2B5" transform="translate(540,335)"/>
<path d="M0,0 L5,0 L5,5 L12,6 L12,9 L14,9 L14,15 L16,15 L16,22 L14,23 L11,29 L9,29 L9,21 L5,22 L4,12 L4,10 L2,11 L1,18 L-4,18 L-3,9 L-4,6 L-7,7 L-6,4 Z " fill="#D27786" transform="translate(411,619)"/>
<path d="M0,0 L10,0 L10,2 L12,2 L13,5 L21,7 L21,22 L24,23 L31,23 L31,25 L36,26 L40,27 L56,28 L59,29 L58,32 L53,31 L20,30 L20,26 L15,25 L14,8 L10,7 L7,3 L0,2 Z " fill="#D28D9E" transform="translate(550,332)"/>
<path d="M0,0 L1,0 L2,23 L2,39 L3,40 L3,45 L1,45 L3,52 L3,57 L1,57 L2,59 L2,120 L1,124 L0,137 L-1,137 L-1,115 L-3,115 L-3,138 L-4,138 L-4,114 L-2,114 L-2,92 L0,92 L0,56 L2,56 L0,52 L0,44 L2,44 L0,40 Z " fill="#AC717B" transform="translate(366,404)"/>
<path d="M0,0 L1,0 L1,48 L0,50 L-1,64 L-5,70 L-6,77 L-6,90 L-7,92 L-7,107 L-4,111 L-4,113 L-8,112 L-8,110 L-11,109 L-12,102 L-12,85 L-10,82 L-10,76 L-8,76 L-8,67 L-4,58 L-3,49 L-2,47 L-1,37 Z M-7,70 Z " fill="#D9919A" transform="translate(372,496)"/>
<path d="M0,0 L8,1 L8,3 L10,3 L11,1 L12,6 L11,7 L14,8 L14,6 L18,4 L25,3 L30,2 L28,6 L24,6 L24,8 L16,10 L14,14 L12,17 L7,19 L0,19 L-1,16 Z " fill="#EDA2B6" transform="translate(592,421)"/>
<path d="M0,0 L6,0 L6,8 L4,8 L4,12 L2,12 L2,18 L-6,18 L-6,20 L-8,20 L-8,22 L-12,22 L-12,24 L-14,24 L-14,26 L-20,26 L-20,18 L-18,16 L-15,16 L-15,14 L-11,12 L-8,12 L-8,10 L-2,8 L-2,4 L0,4 Z " fill="#280608" transform="translate(310,720)"/>
<path d="M0,0 L1,0 L4,11 L4,86 L3,98 L2,98 L1,50 L-1,45 L-1,6 Z " fill="#CF8998" transform="translate(368,398)"/>
<path d="M0,0 L2,2 L1,4 L2,9 L1,13 L5,12 L5,20 L7,20 L6,25 L1,26 L1,24 L-3,24 L-3,27 L-6,28 L-6,23 L-8,23 L-7,30 L-10,33 L-10,31 L-12,31 L-11,36 L-14,39 L-14,37 L-16,37 L-16,60 L-17,60 L-17,36 L-13,34 L-12,29 L-9,28 L-9,22 L-5,20 L-6,12 L-8,9 L-4,8 L-2,1 Z " fill="#CF7080" transform="translate(415,628)"/>
<path d="M0,0 L2,0 L2,3 L6,3 L6,1 L8,2 L6,6 L0,8 L-5,8 L-6,12 L-2,14 L-1,11 L1,13 L3,12 L2,15 L-4,16 L-10,15 L-15,16 L-16,18 L-22,21 L-26,21 L-26,18 L-31,17 L-34,12 L-34,10 L-39,11 L-39,4 L-32,5 L-30,5 L-29,15 L-26,15 L-26,17 L-22,15 L-22,13 L-18,11 L-18,13 L-15,10 L-16,8 L-12,7 L-12,11 L-10,12 L-9,7 L-6,7 L-6,2 Z " fill="#D5828F" transform="translate(406,605)"/>
<path d="M0,0 L1,0 L1,14 L-1,14 L-1,22 L1,22 L1,38 L3,38 L3,46 L5,46 L5,60 L7,60 L7,68 L9,68 L9,76 L7,76 L7,92 L6,92 L5,71 L3,71 L3,60 L4,47 L2,47 L2,52 L1,52 L2,39 L0,39 L0,46 L-3,46 L-4,41 L-3,32 L-5,32 L-5,14 L-4,14 L-4,22 L-2,22 L-3,14 L-3,1 L-2,1 L-2,13 L0,13 Z " fill="#BC7584" transform="translate(663,582)"/>
<path d="M0,0 L10,0 L10,2 L14,2 L14,10 L8,10 L8,8 L2,8 L2,12 L-2,12 L-2,16 L-4,16 L-4,22 L-10,22 L-10,8 L-4,2 L0,2 Z " fill="#29060A" transform="translate(760,792)"/>
<path d="M0,0 L1,0 L1,34 L2,53 L2,122 L1,134 L0,134 L-1,66 L-1,35 L-3,35 L-3,26 L-2,17 L-2,8 Z " fill="#D58D9E" transform="translate(372,362)"/>
<path d="M0,0 L6,1 L6,3 L19,4 L19,7 L12,8 L8,7 L7,10 L6,8 L0,9 L-4,7 L-7,6 L-15,11 L-19,17 L-23,19 L-23,10 L-18,5 L-16,5 L-16,3 L-12,1 Z " fill="#F6AFBF" transform="translate(592,374)"/>
<path d="M0,0 L8,0 L8,4 L12,6 L12,13 L9,15 L4,16 L0,19 L-15,21 L-25,22 L-26,24 L-28,24 L-28,21 L-34,23 L-39,22 L-40,20 L-46,19 L-46,18 L-28,18 L-26,17 L-25,19 L-22,20 L-22,18 L-14,18 L-7,17 L-4,14 L5,12 L6,8 L7,6 L4,7 L2,5 L0,6 Z M11,0 Z M10,3 Z M8,15 Z M-26,16 Z " fill="#E2768E" transform="translate(646,666)"/>
<path d="M0,0 L4,0 L4,31 L3,32 L2,67 L1,79 L0,79 L-1,49 L-2,34 L-3,27 L-5,26 L-3,26 L-3,17 L-2,17 L-1,4 Z " fill="#D391A1" transform="translate(661,463)"/>
<path d="M0,0 L18,0 L25,1 L28,4 L34,5 L36,4 L44,4 L44,5 L30,8 L22,6 L22,4 L4,5 L0,6 L0,8 L-4,10 L-6,13 L-7,24 L-8,26 L-10,25 L-10,14 L-12,18 L-12,11 L-10,11 L-10,6 L-6,2 L0,2 Z " fill="#E8A7B5" transform="translate(576,371)"/>
<path d="M0,0 L1,0 L2,24 L0,24 L0,37 L-2,38 L-2,46 L-4,46 L-6,62 L-8,61 L-8,53 L-12,57 L-10,48 L-6,28 L-4,22 L-1,5 Z " fill="#D18594" transform="translate(663,558)"/>
<path d="M0,0 L1,0 L1,8 L3,8 L3,18 L5,18 L5,32 L7,32 L7,40 L5,40 L5,52 L7,52 L8,59 L7,61 L12,61 L11,65 L7,65 L7,62 L4,61 L2,53 L1,53 L1,45 L-1,44 L0,43 L1,18 L2,9 L-1,10 L-1,3 Z " fill="#C48999" transform="translate(641,388)"/>
<path d="M0,0 L4,4 L4,6 L6,6 L7,10 L9,10 L8,41 L6,42 L6,34 L2,37 L3,42 L0,44 L-2,42 L-5,40 L-7,41 L-6,36 L-1,33 L1,33 L2,29 L4,29 L3,17 L1,5 Z M0,37 Z M-2,39 Z M-8,41 Z " fill="#D59EAC" transform="translate(634,387)"/>
<path d="M0,0 L1,0 L1,5 L3,5 L3,0 L7,4 L8,8 L13,9 L17,11 L50,12 L50,14 L52,15 L41,15 L41,17 L55,16 L53,17 L53,19 L56,20 L52,20 L52,18 L40,18 L40,16 L16,16 L16,14 L12,14 L12,12 L6,12 L4,10 L4,6 L0,6 Z " fill="#C87380" transform="translate(402,692)"/>
<path d="M0,0 L1,0 L2,21 L1,21 L1,13 L-1,13 L1,23 L3,22 L2,28 L-1,32 L-2,49 L-4,56 L-4,64 L-6,64 L-6,56 L-8,56 L-8,42 L-6,42 L-6,30 L-4,30 L-4,22 L-2,22 L-2,12 L0,12 Z " fill="#BF8589" transform="translate(360,542)"/>
<path d="M0,0 L5,2 L6,5 L7,20 L7,72 L4,84 L2,84 L1,88 L1,80 L3,80 L4,64 L4,21 L1,7 L-1,5 Z " fill="#DD96A6" transform="translate(654,492)"/>
<path d="M0,0 L6,0 L6,2 L10,2 L10,4 L16,4 L16,12 L14,12 L14,16 L4,16 L4,8 L0,8 Z " fill="#2A0709" transform="translate(370,846)"/>
<path d="M0,0 L1,0 L1,6 L5,14 L9,16 L10,18 L10,25 L15,24 L19,31 L18,35 L16,33 L11,31 L8,32 L8,26 L4,26 L4,20 L0,20 L-2,14 L-2,7 Z " fill="#CD8D93" transform="translate(357,591)"/>
<path d="M0,0 L5,1 L10,5 L12,6 L12,9 L14,9 L16,16 L18,30 L15,37 L13,37 L12,41 L3,46 L5,42 L7,42 L8,39 L10,39 L11,34 L12,31 L11,15 L8,9 L4,3 Z " fill="#DEABB7" transform="translate(620,376)"/>
<path d="M0,0 L6,0 L5,3 L1,4 L1,6 L-4,9 L-8,10 L-8,12 L-22,13 L-27,14 L-27,11 L-24,10 L-23,7 L-16,6 L-15,5 L-8,5 L-2,4 Z " fill="#D37287" transform="translate(646,686)"/>
<path d="M0,0 L4,0 L4,2 L12,2 L12,4 L16,4 L16,6 L20,6 L20,8 L26,8 L26,10 L30,10 L30,12 L34,12 L34,14 L44,14 L43,16 L29,16 L24,14 L24,12 L20,12 L20,10 L12,10 L4,7 L4,5 L11,5 L11,3 L9,4 L1,4 L3,3 L3,1 Z " fill="#BD788A" transform="translate(408,324)"/>
<path d="M0,0 L12,0 L12,12 L0,12 L0,10 L-2,10 L-2,2 Z " fill="#2F080D" transform="translate(630,830)"/>
<path d="M0,0 L4,1 L1,1 L1,3 L-23,3 L-23,5 L-33,5 L-33,7 L-45,7 L-45,9 L-35,9 L-36,12 L-43,13 L-46,13 L-46,12 L-50,14 L-62,14 L-62,13 L-54,13 L-54,11 L-63,11 L-63,9 L-70,9 L-70,8 L-62,8 L-62,10 L-54,10 L-54,8 L-46,8 L-46,6 L-34,6 L-34,4 L-24,4 L-24,2 L0,2 Z " fill="#AD6C7D" transform="translate(522,332)"/>
<path d="M0,0 L1,4 L-1,14 L-2,16 L-3,32 L-5,32 L-4,38 L-6,41 L-6,64 L-8,61 L-10,56 L-9,34 L-5,28 L-5,25 L-7,27 L-8,15 L-6,15 L-5,17 L-1,2 Z " fill="#D09196" transform="translate(367,540)"/>
<path d="M0,0 L7,1 L10,3 L10,23 L9,26 L5,29 L2,26 L-3,25 L-4,14 L-4,4 Z M1,4 L-1,7 L0,24 L7,25 L9,21 L9,8 L8,4 Z " fill="#F5BCCA" transform="translate(616,382)"/>
<path d="M0,0 L6,0 L6,1 L1,1 L1,3 L6,3 L2,6 L-5,5 L-5,7 L-1,9 L-4,12 L-7,13 L-8,17 L-12,17 L-13,19 L-13,17 L-17,17 L-17,48 L-18,48 L-18,16 L-14,16 L-14,10 L-10,10 L-10,6 L-6,6 L-6,4 L-2,4 Z M-1,7 Z " fill="#B27B87" transform="translate(380,322)"/>
<path d="M0,0 L6,0 L6,1 L1,1 L1,3 L5,3 L6,8 L8,9 L11,16 L13,20 L13,26 L15,26 L15,29 L19,28 L21,29 L22,26 L22,30 L26,30 L26,36 L20,36 L20,32 L15,31 L12,28 L12,24 L10,24 L10,20 L8,20 L6,13 L0,7 Z " fill="#260405" transform="translate(286,658)"/>
<path d="M0,0 L45,1 L45,5 L38,5 L38,3 L30,3 L30,5 L14,5 L10,4 L0,4 Z " fill="#32080C" transform="translate(608,852)"/>
<path d="M0,0 L7,0 L12,12 L15,14 L15,16 L17,16 L18,25 L18,29 L18,31 L16,31 L15,33 L14,24 L12,19 L12,17 L7,14 L3,5 L0,4 Z " fill="#E68596" transform="translate(420,608)"/>
<path d="M0,0 L1,0 L1,36 L0,58 L-3,63 L-4,69 L-6,67 L-6,62 L-4,62 L-4,55 L-3,51 L-3,35 L-1,29 L-1,14 Z " fill="#E395A0" transform="translate(376,510)"/>
<path d="M0,0 L5,3 L7,8 L9,9 L9,11 L13,11 L15,16 L17,17 L17,49 L16,49 L16,18 L14,18 L14,49 L13,49 L13,18 L11,18 L10,16 L7,15 L3,10 L4,4 L2,4 L1,7 L1,4 L-1,4 Z " fill="#AC7785" transform="translate(649,445)"/>
<path d="M0,0 L28,0 L38,4 L46,5 L46,7 L51,8 L53,9 L53,11 L50,11 L50,9 L41,9 L37,9 L35,7 L31,6 L31,4 L6,2 L-2,3 L0,2 Z " fill="#DD9FAD" transform="translate(570,365)"/>
<path d="M0,0 L6,0 L12,4 L15,9 L18,15 L19,31 L18,34 L11,40 L8,41 L10,37 L11,35 L13,35 L14,32 L14,14 L13,9 L11,9 L8,4 L-2,2 Z " fill="#E7B5C1" transform="translate(614,376)"/>
<path d="M0,0 L5,1 L4,6 L6,7 L6,5 L9,6 L8,8 L2,10 L-7,14 L-7,11 L-11,13 L-13,16 L-16,16 L-15,11 L-12,11 L-10,7 L-5,7 L-5,4 L-1,3 Z " fill="#D795A7" transform="translate(624,429)"/>
<path d="M0,0 L1,0 L1,5 L3,5 L3,0 L5,4 L6,9 L5,11 L7,11 L8,8 L10,11 L9,17 L11,17 L12,14 L13,16 L19,18 L24,17 L25,21 L21,23 L17,23 L17,25 L15,25 L15,22 L11,21 L8,18 L8,14 L4,12 L4,8 L0,6 Z " fill="#C98089" transform="translate(356,606)"/>
<path d="M0,0 L1,0 L3,12 L3,25 L2,28 L2,46 L-1,45 L-1,6 Z " fill="#CD8899" transform="translate(368,398)"/>
<path d="M0,0 L9,0 L14,5 L13,7 L10,5 L1,4 L0,15 L0,25 L-3,29 L-5,29 L-5,24 L-6,22 L-4,22 L-4,17 L-2,17 L-2,11 L-4,11 L-3,4 L0,3 Z " fill="#F2B3C1" transform="translate(611,378)"/>
<path d="M0,0 L1,2 L3,3 L-6,12 L-7,15 L-12,19 L-19,25 L-24,30 L-24,22 L-20,22 L-20,20 L-16,20 L-16,16 L-12,16 L-12,14 L-10,14 L-9,9 Z M3,1 Z " fill="#30090E" transform="translate(716,742)"/>
<path d="M0,0 L1,3 L7,2 L8,4 L7,7 L18,6 L30,6 L30,8 L33,8 L33,10 L40,10 L40,11 L33,11 L33,13 L44,13 L44,14 L32,14 L32,12 L22,12 L22,10 L18,10 L18,8 L6,8 L4,5 L0,4 Z " fill="#BC6674" transform="translate(458,712)"/>
<path d="M0,0 L8,0 L8,1 L2,1 L2,3 L10,2 L10,4 L13,5 L9,5 L9,7 L12,8 L8,8 L8,4 L1,6 L0,10 L-5,14 L-6,16 L-10,16 L-10,18 L-16,18 L-16,16 L-20,16 L-20,8 L-19,8 L-19,15 L-17,15 L-17,9 L-15,12 L-14,15 L-15,17 L-11,17 L-12,12 L-8,12 L-8,10 L-6,10 L-6,8 L-4,8 L-3,6 L-3,9 L-1,9 L-2,3 Z " fill="#BC6D79" transform="translate(394,628)"/>
<path d="M0,0 L27,0 L27,2 L29,2 L29,4 L38,6 L43,8 L40,9 L30,7 L22,4 L0,3 Z " fill="#D699A8" transform="translate(576,362)"/>
<path d="M0,0 L2,0 L2,3 L4,3 L7,9 L10,18 L11,22 L11,41 L8,40 L8,31 L6,27 L6,21 L7,18 L5,12 L3,12 L3,8 L1,8 Z M7,40 Z " fill="#E79CAE" transform="translate(646,493)"/>
<path d="M0,0 L26,0 L23,3 L2,4 L-5,7 L-22,6 L-22,4 L-10,4 L-10,2 L0,2 Z " fill="#CB8295" transform="translate(499,335)"/>
<path d="M0,0 L2,0 L3,31 L6,35 L6,37 L2,36 L2,34 L-1,33 L-2,26 L-2,9 L0,6 Z " fill="#D49399" transform="translate(362,572)"/>
<path d="M0,0 L1,0 L1,8 L3,8 L3,22 L5,22 L5,30 L7,30 L7,38 L5,38 L5,54 L4,54 L3,33 L1,33 L1,22 L2,9 L0,9 L0,14 L-1,14 Z " fill="#AE6A79" transform="translate(665,620)"/>
<path d="M0,0 L6,0 L7,2 L6,6 L2,8 L0,11 L-1,22 L-2,24 L-4,23 L-4,12 L-6,16 L-6,9 L-4,9 L-4,4 Z " fill="#F2A5B8" transform="translate(570,373)"/>
<path d="M0,0 L1,0 L1,12 L-2,24 L-5,27 L-7,31 L-8,31 L-9,20 L-8,18 L-5,18 L-4,9 L-1,6 Z " fill="#DD8799" transform="translate(653,594)"/>
<path d="M0,0 L1,0 L1,19 L-1,31 L-4,33 L-6,43 L-9,49 L-10,46 L-7,37 L-6,30 L-3,29 L-2,1 Z " fill="#F09DAE" transform="translate(654,533)"/>
<path d="M0,0 L2,4 L0,72 L-1,72 L-1,1 Z " fill="#E496AA" transform="translate(378,396)"/>
<path d="M0,0 L1,0 L2,21 L1,21 L1,13 L-1,13 L1,23 L3,22 L2,28 L-1,32 L-3,36 L-3,31 L-5,31 L-5,42 L-6,42 L-6,30 L-4,30 L-4,22 L-2,22 L-2,12 L0,12 Z " fill="#B37B80" transform="translate(360,542)"/>
<path d="M0,0 L1,0 L1,8 L-4,10 L-4,13 L-12,14 L-15,17 L-19,19 L-22,24 L-28,24 L-29,22 L-24,19 L-20,18 L-20,16 L-16,15 L-15,12 L-7,11 L-5,4 L-2,2 L-2,6 L0,6 Z " fill="#CF7185" transform="translate(667,674)"/>
<path d="M0,0 L8,0 L8,4 L12,6 L12,13 L9,15 L2,16 L4,12 L7,6 L4,7 L2,5 L0,6 Z M11,0 Z M10,3 Z M8,15 Z " fill="#DA798E" transform="translate(646,666)"/>
<path d="M0,0 L2,3 L2,22 L3,31 L2,33 L2,49 L3,50 L4,47 L5,49 L3,56 L0,56 Z " fill="#EE9FB0" transform="translate(380,424)"/>
<path d="M0,0 L1,3 L-1,3 L-1,39 L-3,39 L-3,61 L-4,61 L-5,38 L-5,3 L-4,3 L-4,36 L-2,36 L-3,1 L0,2 Z " fill="#1F1416" transform="translate(367,457)"/>
<path d="M0,0 L7,0 L7,2 L11,4 L13,10 L11,16 L9,16 L8,18 L0,20 L1,16 L4,14 L7,14 L6,4 L0,1 Z " fill="#E69DB0" transform="translate(548,337)"/>
<path d="M0,0 L2,0 L3,4 L5,4 L5,1 L9,1 L9,3 L13,3 L12,8 L6,12 L0,11 L0,7 Z " fill="#CD7381" transform="translate(407,651)"/>
<path d="M0,0 L3,0 L1,4 L-4,8 L-6,11 L-9,12 L-24,13 L-27,11 L-27,7 L-22,8 L-21,10 L-13,10 L-9,9 L-8,5 L-3,1 Z " fill="#E59CAF" transform="translate(613,429)"/>
<path d="M0,0 L1,0 L1,38 L-2,50 L-4,50 L-5,54 L-5,46 L-3,46 Z " fill="#DD91A1" transform="translate(660,526)"/>
<path d="M0,0 L8,1 L19,1 L15,6 L7,5 L-16,5 L-17,2 L0,2 Z " fill="#D98290" transform="translate(533,703)"/>
<path d="M0,0 L3,1 L-4,6 L-16,8 L-23,7 L-22,5 L-19,5 L-18,2 L-11,1 L-4,2 Z " fill="#D27F8B" transform="translate(409,618)"/>
<path d="M0,0 L10,0 L12,2 L12,10 L6,10 L6,8 L0,6 Z " fill="#25060D" transform="translate(718,422)"/>
<path d="M0,0 L3,1 L2,5 L-3,9 L-5,9 L-5,12 L-11,14 L-12,16 L-20,18 L-20,16 L-17,15 L-13,10 L-8,5 L-2,5 Z " fill="#DE9AAC" transform="translate(624,424)"/>
<path d="M0,0 L3,0 L3,2 L7,0 L11,0 L11,2 L18,2 L17,4 L7,5 L2,3 L-2,7 L-6,5 L-8,6 L-14,3 L-10,1 L-2,1 Z " fill="#D57D8B" transform="translate(497,703)"/>
<path d="M0,0 L5,0 L8,2 L8,6 L10,6 L10,12 L2,12 L2,8 L0,8 Z " fill="#27060D" transform="translate(688,402)"/>
<path d="M0,0 L6,1 L6,3 L19,4 L19,7 L12,8 L3,5 L3,3 L-13,4 L-14,2 L-12,1 Z " fill="#F0ACBB" transform="translate(592,374)"/>
<path d="M0,0 L12,2 L12,4 L16,4 L16,6 L30,8 L28,12 L22,12 L20,10 L12,10 L12,7 L8,7 L8,5 L6,5 L6,3 L1,2 Z " fill="#CF8498" transform="translate(416,332)"/>
<path d="M0,0 L12,0 L12,2 L18,2 L20,6 L24,6 L24,8 L28,8 L27,10 L21,10 L23,9 L23,7 L18,8 L19,5 L14,6 L14,5 L0,4 L-4,2 L0,2 Z " fill="#AF7B87" transform="translate(590,356)"/>
<path d="M0,0 L22,0 L22,2 L24,3 L13,3 L13,5 L27,4 L25,5 L25,7 L28,8 L24,8 L24,6 L12,6 L12,4 L-12,4 L-12,3 L12,3 L12,1 L0,1 Z " fill="#B06570" transform="translate(430,704)"/>
<path d="M0,0 L1,0 L1,12 L3,12 L3,7 L4,7 L4,33 L6,33 L5,36 L5,34 L3,34 L5,39 L2,37 L2,33 L0,33 L0,21 L2,21 L2,13 L0,13 Z " fill="#1B1214" transform="translate(646,407)"/>
<path d="M0,0 L2,0 L1,8 L-2,8 L-5,26 L-7,32 L-8,36 L-10,36 L-8,20 L-5,8 L-3,8 L-2,4 L0,4 Z " fill="#E08C9D" transform="translate(656,576)"/>
<path d="M0,0 L2,1 L-2,4 L-4,4 L-4,6 L-14,7 L-15,4 L-19,6 L-27,6 L-23,2 L-9,2 Z " fill="#D38B9E" transform="translate(527,337)"/>
<path d="M0,0 L3,0 L3,7 L8,6 L12,13 L11,17 L9,15 L4,13 L1,14 L1,8 L0,7 Z " fill="#CF8991" transform="translate(364,609)"/>
<path d="M0,0 L36,1 L39,2 L38,5 L33,4 L0,3 Z " fill="#CF92A1" transform="translate(570,359)"/>
<path d="M0,0 L7,1 L7,16 L10,17 L17,17 L17,19 L8,20 L6,19 L6,17 L4,17 L1,2 Z " fill="#CF8B9D" transform="translate(564,338)"/>
<path d="M0,0 L12,0 L12,3 L19,3 L19,5 L12,6 L12,5 L-5,3 L-5,5 L-3,6 L-9,5 L-9,7 L-7,8 L-11,7 L-10,4 L-6,4 L-6,2 L0,2 Z " fill="#B87F8D" transform="translate(536,326)"/>
<path d="M0,0 L1,2 L0,4 L7,4 L7,6 L-5,6 L-16,7 L-21,6 L-26,7 L-25,4 L-15,3 L-4,3 L-4,1 Z " fill="#CF7787" transform="translate(612,701)"/>
<path d="M0,0 L2,1 L2,9 L3,10 L3,15 L1,18 L-1,18 L-1,10 L-5,11 L-5,2 Z " fill="#D37082" transform="translate(421,630)"/>
<path d="M0,0 L2,0 L2,3 L6,3 L6,1 L8,2 L6,6 L0,8 L-5,8 L-7,11 L-10,11 L-9,7 L-6,7 L-6,2 Z " fill="#DD8996" transform="translate(406,605)"/>
<path d="M0,0 L6,0 L6,2 L-2,5 L-4,4 L-5,13 L-7,16 L-11,16 L-11,14 L-8,14 L-8,1 Z " fill="#3A0A11" transform="translate(638,771)"/>
<path d="M0,0 L2,0 L2,7 L1,11 L-2,11 L-2,16 L-9,16 L-10,13 L-9,11 L-5,11 L-3,5 Z " fill="#2E070A" transform="translate(313,721)"/>
<path d="M0,0 L2,0 L1,31 L-1,32 L-1,24 L-5,25 L-2,19 L-1,1 Z " fill="#D295A6" transform="translate(641,397)"/>
<path d="M0,0 L2,2 L3,5 L3,23 L1,26 L-1,26 L-2,29 L-5,28 L-3,28 L-3,25 L-1,25 Z " fill="#ECB9C5" transform="translate(626,385)"/>
<path d="M0,0 L1,0 L2,13 L2,33 L0,33 L0,27 L-2,27 L-2,13 L0,13 Z " fill="#B07785" transform="translate(364,371)"/>
<path d="M0,0 L4,0 L4,2 L12,2 L12,4 L16,4 L16,7 L19,7 L19,9 L12,10 L4,7 L4,5 L11,5 L11,3 L9,4 L1,4 L3,3 L3,1 Z " fill="#BA7C8B" transform="translate(408,324)"/>
<path d="M0,0 L1,0 L2,22 L1,37 L3,37 L3,32 L4,32 L3,46 L2,46 L2,38 L0,38 L0,22 L-2,22 L-2,14 L0,14 Z " fill="#211417" transform="translate(664,582)"/>
<path d="M0,0 L3,1 L1,5 L1,3 L-1,3 L0,10 L-3,13 L-3,11 L-5,11 L-4,16 L-7,19 L-7,17 L-9,17 L-9,40 L-10,40 L-10,16 L-6,14 L-5,9 L-2,8 L-2,2 Z " fill="#9D5C65" transform="translate(408,648)"/>
<path d="M0,0 L2,2 L3,17 L2,22 L4,23 L3,29 L1,33 L0,33 L-1,20 Z " fill="#F09FAD" transform="translate(381,492)"/>
<path d="M0,0 L1,0 L1,28 L-5,46 L-7,46 L-8,48 L-7,41 L-4,32 L-2,32 L-1,24 Z " fill="#E998A9" transform="translate(656,534)"/>
<path d="M0,0 Z M-2,1 L29,3 L29,5 L12,5 L-8,4 L-7,2 Z " fill="#CE7080" transform="translate(550,720)"/>
<path d="M0,0 L9,0 L15,3 L15,5 L17,5 L17,7 L21,7 L21,9 L17,10 L13,8 L13,5 L8,6 L4,4 L1,6 L-1,1 Z " fill="#D68D9F" transform="translate(407,332)"/>
<path d="M0,0 L6,0 L6,8 L5,8 L5,1 L3,3 L-2,12 L-6,12 L-7,14 L-10,16 L-15,16 L-15,14 L-11,12 L-8,12 L-8,10 L-2,8 L-2,4 L0,4 Z " fill="#250405" transform="translate(310,720)"/>
<path d="M0,0 L2,0 L2,24 L-1,25 L-1,1 Z " fill="#F5A1B1" transform="translate(650,538)"/>
<path d="M0,0 Z M-1,1 L4,5 L1,6 L0,8 L-2,8 L-2,5 L-8,7 L-13,6 L-14,4 L-20,3 L-20,2 L-2,2 Z " fill="#E07A90" transform="translate(620,682)"/>
<path d="M0,0 L12,0 L19,2 L26,8 L27,12 L24,18 L22,19 L23,11 L20,6 L18,5 L18,3 L11,3 L9,2 L0,2 Z " fill="#DE96A9" transform="translate(537,334)"/>
<path d="M0,0 L2,0 L0,4 L-12,5 L-22,5 L-21,2 Z " fill="#DE738B" transform="translate(642,685)"/>
<path d="M0,0 L2,0 L3,5 L4,10 L0,9 L-1,4 L-13,6 L-15,4 L-14,2 L0,2 Z " fill="#DE99A9" transform="translate(644,478)"/>
<path d="M0,0 L5,1 L10,7 L15,9 L20,15 L22,16 L22,22 L21,22 L21,17 L15,16 L15,13 L13,10 L8,10 L6,6 L4,6 L4,4 L2,3 L3,1 Z " fill="#A07982" transform="translate(618,366)"/>
<path d="M0,0 L1,3 L-1,9 L-2,20 L-5,20 L-6,11 L-5,6 L-2,2 L0,2 Z " fill="#E991A3" transform="translate(649,580)"/>
<path d="M0,0 L4,0 L4,3 L6,3 L6,9 L8,9 L8,16 L5,17 L3,14 L3,6 L1,5 L1,3 L-1,3 Z " fill="#DA7788" transform="translate(419,625)"/>
<path d="M0,0 L1,0 L1,21 L3,21 L3,0 L4,0 L4,24 L2,24 L2,36 L1,36 L0,23 Z " fill="#1E1415" transform="translate(358,518)"/>
<path d="M0,0 L4,1 L5,5 L11,6 L13,10 L9,12 L4,11 L4,6 L0,7 Z " fill="#DE8B97" transform="translate(372,604)"/>
<path d="M0,0 L1,0 L1,8 L-2,24 L-4,22 L-6,23 L-6,16 L-3,6 L0,6 Z " fill="#DA8A9B" transform="translate(657,578)"/>
<path d="M0,0 L1,0 L1,14 L-1,30 L-3,30 L-4,34 L-6,34 L-3,24 L-2,20 L-1,4 Z " fill="#E495A5" transform="translate(658,542)"/>
<path d="M0,0 L5,1 L11,1 L6,6 L-1,8 L-3,7 L-2,2 Z " fill="#F0AABC" transform="translate(611,416)"/>
<path d="M0,0 L1,0 L1,14 L3,15 L1,15 L1,21 L-1,21 L-2,18 L-4,23 L-5,23 L-5,17 L-1,7 Z " fill="#CC798B" transform="translate(666,659)"/>
<path d="M0,0 L1,0 L1,5 L3,5 L3,0 L5,4 L6,9 L5,11 L7,11 L8,8 L10,11 L10,17 L13,20 L12,22 L8,18 L8,14 L4,12 L4,8 L0,6 Z " fill="#A26D72" transform="translate(356,606)"/>
<path d="M0,0 L7,1 L9,1 L10,10 L7,10 L5,6 L0,7 Z " fill="#D68B94" transform="translate(367,609)"/>
<path d="M0,0 L1,4 L-1,14 L-3,24 L-7,27 L-8,15 L-6,15 L-5,17 L-1,2 Z " fill="#D08C93" transform="translate(367,540)"/>
<path d="M0,0 L14,0 L16,4 L22,4 L21,6 L16,5 L16,8 L12,6 L8,6 L8,4 L3,4 L3,3 L13,3 L13,1 L1,1 L0,4 Z " fill="#AD7985" transform="translate(386,318)"/>
<path d="M0,0 L1,4 L-7,11 L-10,13 L-10,11 L-13,11 L-11,7 L-7,3 L0,3 Z " fill="#C76E82" transform="translate(663,684)"/>
<path d="M0,0 L3,1 L5,5 L6,13 L3,19 L0,20 L1,13 L0,4 L-2,1 Z " fill="#C96D7C" transform="translate(409,636)"/>
<path d="M0,0 L1,0 L1,34 L-1,36 L-2,33 L-2,21 L0,21 Z " fill="#CA888F" transform="translate(363,521)"/>
<path d="M0,0 L1,0 L1,27 L-1,27 L-3,22 L-3,17 L-2,17 L-1,4 Z " fill="#CC8E9E" transform="translate(661,463)"/>
<path d="M0,0 L1,0 L1,48 L0,48 L-1,8 L-2,7 L-2,1 Z " fill="#C98392" transform="translate(369,448)"/>
<path d="M0,0 L1,0 L1,26 L-2,25 L-2,9 Z " fill="#C88495" transform="translate(369,418)"/>
<path d="M0,0 L4,1 L0,2 L-1,6 L-6,14 L-7,15 L-14,15 L-14,14 L-8,14 L-8,8 L-6,8 L-5,4 Z " fill="#E199AC" transform="translate(533,336)"/>
<path d="M0,0 L6,0 L12,4 L15,9 L18,15 L18,23 L17,23 L16,14 L14,14 L13,9 L11,9 L8,4 L-2,2 Z " fill="#E4B0BD" transform="translate(614,376)"/>
<path d="M0,0 L1,0 L1,14 L3,14 L3,22 L1,22 L1,34 L0,34 L-1,14 Z " fill="#A67280" transform="translate(645,406)"/>
<path d="M0,0 L10,0 L10,2 L15,3 L18,4 L19,9 L6,5 L2,3 L2,1 Z " fill="#CE96A2" transform="translate(603,363)"/>
<path d="M0,0 L6,0 L8,2 L-3,3 L-5,7 L-6,8 L-7,18 L-9,17 L-9,7 L-7,3 Z " fill="#E79FB1" transform="translate(540,335)"/>
<path d="M0,0 L5,0 L7,5 L9,6 L8,9 L5,9 L4,6 L1,5 L0,3 L-11,3 L-11,1 Z " fill="#CE7583" transform="translate(454,706)"/>
<path d="M0,0 L5,0 L9,5 L12,6 L13,8 L13,23 L18,24 L18,25 L11,25 L11,10 L6,5 L0,1 Z " fill="#D791A3" transform="translate(552,334)"/>
<path d="M0,0 L21,1 L17,3 L4,5 L-2,7 L0,4 L2,4 L2,2 L0,2 Z " fill="#D291A1" transform="translate(531,329)"/>
<path d="M0,0 L3,0 L3,3 L-2,5 L-3,14 L-7,16 L-7,7 L-2,2 L0,2 Z " fill="#F6A8BC" transform="translate(576,377)"/>
<path d="M0,0 L6,0 L6,3 L2,3 L-1,4 L-2,11 L-4,12 L-6,16 L-6,9 L-4,9 L-4,4 Z " fill="#EFA2B4" transform="translate(570,373)"/>
<path d="M0,0 L7,0 L7,1 L1,1 L1,3 L-3,4 L-1,5 L-3,9 L-7,11 L-7,9 L-9,9 L-10,12 L-9,7 L-4,2 L0,2 Z " fill="#1C0F11" transform="translate(612,708)"/>
<path d="M0,0 L1,4 L3,12 L5,12 L3,16 L-3,11 L-4,8 L-2,3 L0,3 Z " fill="#FBA2B5" transform="translate(627,551)"/>
<path d="M0,0 L1,0 L1,20 L-4,20 L-4,31 L-6,31 L-7,28 L-5,18 L-2,17 L-2,19 L0,19 Z " fill="#2B080B" transform="translate(745,750)"/>
<path d="M0,0 L2,3 L0,11 L-3,12 L-4,16 L-13,21 L-11,17 L-9,17 L-9,15 L-5,15 L-4,11 L-1,5 Z " fill="#E0A5B5" transform="translate(636,401)"/>
<path d="M0,0 L5,0 L9,2 L9,4 L17,4 L17,6 L6,7 L2,5 L2,3 L0,3 Z " fill="#CD8D9A" transform="translate(402,323)"/>
<path d="M0,0 L3,1 L2,3 L-4,5 L-13,9 L-11,4 L-8,1 L0,2 Z " fill="#D090A2" transform="translate(630,434)"/>
<path d="M0,0 L8,0 L8,4 L10,5 L4,7 L2,5 L0,6 Z M11,0 Z M10,3 Z " fill="#DF7C92" transform="translate(646,666)"/>
<path d="M0,0 L1,0 L1,9 L3,10 L1,10 L1,23 L-1,23 L-2,9 Z " fill="#CB8292" transform="translate(662,572)"/>
<path d="M0,0 L4,1 L2,4 L-2,4 L-2,6 L-10,8 L-8,2 L-1,1 Z " fill="#E7A3B5" transform="translate(618,423)"/>
<path d="M0,0 L1,2 L0,5 L-6,10 L-8,13 L-14,13 L-9,8 L-2,3 Z " fill="#E8A9BA" transform="translate(630,410)"/>
<path d="M0,0 L3,0 L3,2 L7,0 L11,0 L11,2 L18,2 L17,4 L7,5 L1,2 Z " fill="#DA818F" transform="translate(497,703)"/>
<path d="M0,0 L1,0 L2,21 L0,21 L-2,13 L-1,1 Z " fill="#CC7B86" transform="translate(403,676)"/>
<path d="M0,0 L8,0 L8,1 L2,1 L2,3 L10,2 L10,4 L13,5 L9,5 L9,7 L12,8 L8,8 L8,4 L-2,6 L-1,1 Z " fill="#B86C77" transform="translate(394,628)"/>
<path d="M0,0 L1,0 L0,10 L-3,16 L-7,16 L-6,12 L-1,4 Z " fill="#F79EB1" transform="translate(647,564)"/>
<path d="M0,0 L20,0 L20,2 L2,3 L-2,4 Z " fill="#ECA9B8" transform="translate(578,373)"/>
<path d="M0,0 L6,0 L6,4 L2,4 L2,6 L0,6 L-1,8 L-5,7 L-2,6 L-1,1 Z " fill="#1B1011" transform="translate(396,632)"/>
<path d="M0,0 L5,0 L4,3 L-1,8 L-4,10 L-4,2 L0,2 Z " fill="#370A11" transform="translate(696,762)"/>
<path d="M0,0 L1,4 L-3,4 L-3,6 L-11,6 L-11,4 L-15,3 L-11,2 L-3,2 L0,3 Z " fill="#B05F6F" transform="translate(601,716)"/>
<path d="M0,0 L6,0 L6,17 L4,17 L4,2 L1,3 Z " fill="#320812" transform="translate(255,623)"/>
<path d="M0,0 L6,0 L6,1 L1,1 L1,3 L6,3 L2,6 L-5,5 L-5,8 L-9,7 L-10,10 L-10,6 L-6,6 L-6,4 L-2,4 Z " fill="#AA7480" transform="translate(380,322)"/>
<path d="M0,0 L9,1 L9,6 L4,10 L4,4 L0,2 Z " fill="#3C0912" transform="translate(649,767)"/>
<path d="M0,0 L1,3 L7,2 L8,4 L7,7 L22,6 L19,7 L19,9 L22,10 L18,10 L18,8 L6,8 L4,5 L0,4 Z " fill="#9E5561" transform="translate(458,712)"/>
<path d="M0,0 L6,0 L6,1 L1,1 L1,3 L5,3 L6,8 L8,10 L4,11 L0,7 Z " fill="#280609" transform="translate(286,658)"/>
<path d="M0,0 L5,0 L4,3 L-1,7 L-5,6 L-7,7 L-9,5 L-4,2 L0,3 Z " fill="#ED889E" transform="translate(628,656)"/>
<path d="M0,0 L4,0 L5,3 L9,4 L12,13 L9,14 L9,8 L7,8 L7,5 L0,4 Z " fill="#DD7B8C" transform="translate(416,620)"/>
<path d="M0,0 L20,1 L16,3 L0,3 Z " fill="#D294A3" transform="translate(570,359)"/>
<path d="M0,0 L4,2 L6,8 L4,14 L2,13 L1,3 Z M0,13 L2,14 L1,16 L-1,16 Z " fill="#E39AAD" transform="translate(555,339)"/>
<path d="M0,0 L1,0 L1,5 L3,5 L3,0 L7,4 L7,10 L12,11 L12,12 L6,12 L4,10 L4,6 L0,6 Z " fill="#AA6770" transform="translate(402,692)"/>
<path d="M0,0 L8,2 L9,4 L20,8 L16,10 L12,10 L12,7 L8,7 L8,5 L6,5 L6,3 L1,2 Z " fill="#D3889C" transform="translate(416,332)"/>
<path d="M0,0 L1,0 L1,16 L-4,21 L-2,12 Z " fill="#D68596" transform="translate(655,594)"/>
<path d="M0,0 L5,0 L6,4 L6,6 L10,6 L10,8 L3,7 L3,4 L0,4 Z " fill="#2F0811" transform="translate(719,423)"/>
<path d="M0,0 L2,1 L-2,4 L-4,4 L-4,6 L-14,7 L-15,4 L-4,2 Z " fill="#D68EA0" transform="translate(527,337)"/>
<path d="M0,0 L3,0 L4,4 L4,11 L2,11 L2,8 L-1,7 L-1,1 Z " fill="#2E0812" transform="translate(261,640)"/>
<path d="M0,0 L11,0 L9,1 L9,3 L1,4 L0,7 L-3,6 L-1,6 L-1,1 Z " fill="#E99FB1" transform="translate(567,370)"/>
<path d="M0,0 L11,0 L14,2 L14,4 L6,3 L-1,5 Z M-2,5 Z " fill="#EEA5B8" transform="translate(538,339)"/>
<path d="M0,0 L13,0 L13,2 L11,3 L0,3 Z " fill="#CC6E7E" transform="translate(465,716)"/>
<path d="M0,0 L2,1 L3,4 L9,6 L10,9 L7,13 L7,10 L5,10 L0,5 Z " fill="#EA8A9B" transform="translate(430,614)"/>
<path d="M0,0 L7,0 L8,5 L5,7 L3,5 L0,3 L-2,4 L-2,1 Z M3,2 Z M-3,4 Z " fill="#D697A8" transform="translate(629,424)"/>
<path d="M0,0 L4,1 L1,2 L1,4 L-13,4 L-13,2 L-1,1 Z " fill="#32080C" transform="translate(578,851)"/>
<path d="M0,0 L6,0 L6,6 L0,6 Z " fill="#200609" transform="translate(716,852)"/>
<path d="M0,0 L6,0 L6,6 L0,6 Z " fill="#230709" transform="translate(668,848)"/>
<path d="M0,0 L6,0 L6,6 L0,6 Z " fill="#240709" transform="translate(648,830)"/>
<path d="M0,0 L9,0 L9,2 L4,4 L2,6 L-1,6 Z " fill="#3B0A13" transform="translate(724,731)"/>
<path d="M0,0 L6,0 L6,6 L0,6 Z " fill="#200607" transform="translate(310,698)"/>
<path d="M0,0 L1,0 L1,7 L0,10 L-7,16 L-10,17 L-8,13 L-7,11 L-2,8 Z " fill="#E8AFBE" transform="translate(632,400)"/>
<path d="M0,0 L3,1 L2,4 L-9,5 L-9,2 Z " fill="#280409" transform="translate(578,872)"/>
<path d="M0,0 L2,0 L1,4 L-2,8 L-4,8 L-4,4 L-6,3 L-4,1 Z " fill="#DA788D" transform="translate(616,687)"/>
<path d="M0,0 L3,1 L-1,8 L-8,9 L-8,7 L-3,4 L-1,4 Z " fill="#D99AAB" transform="translate(636,416)"/>
<path d="M0,0 L5,1 L5,6 L7,6 L6,11 L4,11 Z " fill="#CA97A3" transform="translate(634,382)"/>
<path d="M0,0 L4,2 L4,10 L3,13 L0,12 L1,9 Z " fill="#CB6D7D" transform="translate(413,639)"/>
<path d="M0,0 L6,0 L8,2 L7,4 L-1,5 L-2,3 Z " fill="#F3B2C3" transform="translate(615,413)"/>
<path d="M0,0 L4,0 L4,2 L8,2 L8,4 L18,4 L17,6 L4,6 L3,1 Z " fill="#A76878" transform="translate(434,334)"/>
<path d="M0,0 L2,1 L3,10 L1,14 L0,14 L-1,5 Z " fill="#ECA0B1" transform="translate(652,520)"/>
<path d="M0,0 L6,1 L2,6 L-4,8 L-4,6 L-2,6 L-2,4 L-4,4 L-4,2 L0,2 Z " fill="#D08B9C" transform="translate(527,331)"/>
<path d="M0,0 L8,0 L8,2 L14,2 L18,7 L12,5 L5,4 L7,3 L7,1 L0,1 Z " fill="#9C6875" transform="translate(548,328)"/>
<path d="M0,0 L2,1 L2,5 L0,5 L0,8 L-8,8 L-8,6 L-4,4 L-4,6 L-1,3 L-2,1 Z " fill="#D88793" transform="translate(392,612)"/>
<path d="M0,0 L4,4 L4,17 L2,14 L1,5 Z " fill="#D6A4B0" transform="translate(634,387)"/>
<path d="M0,0 L6,0 L6,2 L-2,5 L-7,4 L-7,2 L0,2 Z " fill="#450C14" transform="translate(638,771)"/>
<path d="M0,0 L3,0 L7,0 L8,4 L7,5 L0,4 L-1,1 Z " fill="#D0808B" transform="translate(373,623)"/>
<path d="M0,0 L4,0 L4,2 L12,2 L12,0 L16,1 L13,1 L13,3 L-2,4 Z " fill="#2A171A" transform="translate(586,720)"/>
<path d="M0,0 L1,0 L1,8 L-4,9 L-5,4 L-2,2 L-2,6 L0,6 Z " fill="#B86D7C" transform="translate(667,674)"/>
<path d="M0,0 L3,0 L5,9 L6,12 L4,12 L3,14 L2,5 Z " fill="#E58294" transform="translate(432,627)"/>
<path d="M0,0 L5,0 L6,2 L4,3 L-7,3 L-7,1 Z " fill="#CE7080" transform="translate(498,722)"/>
<path d="M0,0 L1,0 L1,7 L3,7 L3,1 L5,4 L6,7 L5,9 L10,9 L10,10 L4,10 L4,8 L0,8 Z " fill="#A5636C" transform="translate(374,636)"/>
<path d="M0,0 L5,1 L11,1 L10,3 L-3,5 L-1,1 Z " fill="#F2AEBE" transform="translate(611,416)"/>
<path d="M0,0 L2,0 L4,9 L8,10 L2,10 L2,7 L0,7 Z " fill="#340913" transform="translate(689,403)"/>
<path d="M0,0 L13,2 L18,4 L15,5 L5,3 L0,1 Z " fill="#D69BA9" transform="translate(601,366)"/>
<path d="M0,0 L4,0 L4,3 L1,3 L1,5 L8,5 L8,6 L0,6 L0,4 L-6,4 L-6,3 L0,3 Z " fill="#2B070B" transform="translate(708,776)"/>
<path d="M0,0 L7,5 L11,6 L10,10 L10,7 L2,6 L1,2 L-1,1 Z " fill="#B57686" transform="translate(561,332)"/>
<path d="M0,0 L1,0 L1,8 L3,9 L-1,9 L-1,5 L-3,5 L-3,1 Z " fill="#27030B" transform="translate(255,641)"/>
<path d="M0,0 L1,3 L3,3 L3,1 L6,1 L5,7 L2,8 L2,4 L0,4 Z " fill="#B6717A" transform="translate(370,628)"/>
<path d="M0,0 L1,0 L1,5 L3,5 L3,0 L5,4 L6,9 L1,7 L0,6 Z " fill="#AF797D" transform="translate(356,606)"/>
<path d="M0,0 L1,0 L1,19 L3,19 L3,22 L0,21 Z " fill="#040203" transform="translate(360,496)"/>
<path d="M0,0 L4,2 L4,10 L2,10 L0,5 Z " fill="#D091A0" transform="translate(658,480)"/>
<path d="M0,0 L2,1 L5,3 L2,6 L-2,6 L-1,1 Z " fill="#D2768B" transform="translate(656,680)"/>
<path d="M0,0 L4,1 L5,10 L2,9 Z " fill="#310A0C" transform="translate(296,665)"/>
<path d="M0,0 L2,0 L2,2 L0,3 L-2,9 L-5,9 L-6,5 L-2,4 Z " fill="#DC96A8" transform="translate(614,436)"/>
<path d="M0,0 L7,2 L7,3 L-7,3 L-7,1 Z " fill="#CC8F9E" transform="translate(583,357)"/>
<path d="M0,0 L7,0 L7,2 L0,6 Z " fill="#3E0A11" transform="translate(619,791)"/>
<path d="M0,0 L7,0 L8,6 L4,4 L0,2 Z " fill="#CF848E" transform="translate(368,620)"/>
<path d="M0,0 L4,1 L5,6 L0,7 Z " fill="#DC8F99" transform="translate(372,604)"/>
<path d="M0,0 L1,3 L-1,6 L-2,15 L-4,13 L-4,6 Z " fill="#ED94A6" transform="translate(647,582)"/>
<path d="M0,0 L4,0 L5,5 L3,5 L3,7 L1,7 Z " fill="#BD8191" transform="translate(644,440)"/>
<path d="M0,0 L4,1 L0,4 L-7,4 L-7,2 Z " fill="#3E0A11" transform="translate(614,797)"/>
<path d="M0,0 L1,0 L3,7 L5,8 L5,14 L4,11 L2,11 L0,8 Z " fill="#2A070C" transform="translate(739,736)"/>
<path d="M0,0 L4,2 L2,2 L2,5 L-5,6 L-3,3 L-1,3 Z " fill="#C97386" transform="translate(661,682)"/>
<path d="M0,0 L2,1 L4,7 L2,11 L1,11 L1,5 L-1,5 Z " fill="#DF8799" transform="translate(644,628)"/>
<path d="M0,0 L2,2 L3,5 L3,12 L1,12 L0,7 Z " fill="#E37F91" transform="translate(425,617)"/>
<path d="M0,0 L4,2 L4,5 L-1,4 L-3,1 Z " fill="#CA98A4" transform="translate(629,375)"/>
<path d="M0,0 L7,1 L6,7 L4,7 L1,2 Z " fill="#CC8799" transform="translate(564,338)"/>
<path d="M0,0 L12,0 L15,3 L3,2 L0,2 Z " fill="#DF9AAC" transform="translate(537,334)"/>
<path d="M0,0 L5,0 L8,3 L8,6 L6,6 L6,4 L4,4 L4,2 L0,2 Z " fill="#340B0F" transform="translate(287,659)"/>
<path d="M0,0 L4,1 L7,3 L7,9 L6,9 L6,4 L0,3 Z " fill="#B1838E" transform="translate(633,379)"/>
<path d="M0,0 L2,0 L2,3 L4,3 L4,9 L2,9 L0,4 Z " fill="#340910" transform="translate(735,733)"/>
<path d="M0,0 L2,1 L3,6 L5,7 L5,9 L7,10 L3,11 L3,8 L1,8 Z " fill="#2C0506" transform="translate(298,676)"/>
<path d="M0,0 L3,0 L2,3 L-2,7 L-3,4 Z " fill="#F19BAB" transform="translate(409,524)"/>
<path d="M0,0 L6,2 L4,6 L1,5 Z " fill="#CB8D9C" transform="translate(655,455)"/>
<path d="M0,0 L1,3 L7,2 L8,4 L6,7 L4,5 L0,4 Z " fill="#B1616E" transform="translate(458,712)"/>
<path d="M0,0 L4,1 L-1,7 L-2,3 L0,3 Z " fill="#C06C7B" transform="translate(605,708)"/>
<path d="M0,0 L3,0 L2,5 L-1,7 Z " fill="#D47384" transform="translate(417,654)"/>
<path d="M0,0 L2,1 L3,7 L1,8 L-1,5 Z " fill="#D77385" transform="translate(423,634)"/>
<path d="M0,0 L4,0 L6,5 L7,7 L2,7 L3,1 Z " fill="#B07A87" transform="translate(658,456)"/>
<path d="M0,0 L2,0 L2,9 L-1,9 L-1,1 Z " fill="#CC98A5" transform="translate(641,397)"/>
<path d="M0,0 L7,0 L9,5 L0,2 Z " fill="#EEB7C5" transform="translate(616,380)"/>
<path d="M0,0 L1,4 L-3,5 L-11,5 L-11,4 L-5,4 L-5,2 L0,3 Z " fill="#270408" transform="translate(555,888)"/>
<path d="M0,0 L2,4 L2,7 L-2,7 L-2,2 L0,2 Z " fill="#34090E" transform="translate(706,772)"/>
<path d="M0,0 L5,0 L5,2 L8,2 L8,4 L3,3 L0,2 Z " fill="#450D15" transform="translate(649,767)"/>
<path d="M0,0 L7,2 L6,4 L1,3 L-2,3 Z M4,0 Z " fill="#EB8097" transform="translate(626,664)"/>
<path d="M0,0 L1,2 L3,3 L1,5 L-5,4 L-4,2 L0,2 Z " fill="#CF7684" transform="translate(412,658)"/>
<path d="M0,0 L1,0 L1,6 L-2,7 L-4,6 L-4,4 L-2,4 Z " fill="#E68498" transform="translate(646,652)"/>
<path d="M0,0 L2,0 L2,12 L1,12 L0,4 L-2,1 Z " fill="#AF5F6C" transform="translate(409,636)"/>
<path d="M0,0 L3,0 L2,5 L-2,5 L-1,1 Z " fill="#D293A6" transform="translate(626,430)"/>
<path d="M0,0 L5,0 L5,6 L3,6 L3,2 L0,2 Z " fill="#32090B" transform="translate(380,851)"/>
<path d="M0,0 L1,2 L5,2 L5,5 L0,5 L-1,3 Z " fill="#CB7784" transform="translate(409,698)"/>
<path d="M0,0 L3,1 L1,5 L1,3 L-1,3 L-1,8 L-2,8 L-2,2 Z " fill="#A55B67" transform="translate(408,648)"/>
<path d="M0,0 L2,0 L3,3 L1,9 L0,9 L-1,1 Z M-2,3 Z " fill="#EB9BA6" transform="translate(379,555)"/>
<path d="M0,0 L6,3 L5,5 L3,4 L2,6 L0,4 Z " fill="#BB808F" transform="translate(652,451)"/>
<path d="M0,0 L6,0 L6,1 L1,1 L2,4 L-3,5 L-3,3 L0,3 Z " fill="#3D0B12" transform="translate(648,766)"/>
<path d="M0,0 L3,0 L2,4 L-3,4 L-3,2 L0,2 Z " fill="#2F080B" transform="translate(294,741)"/>
<path d="M0,0 L1,2 L0,6 L2,6 L1,9 L-2,9 L-1,1 Z " fill="#32090F" transform="translate(723,731)"/>
<path d="M0,0 L2,4 L0,6 L0,4 L-2,4 L-3,7 L-2,2 Z " fill="#261518" transform="translate(605,713)"/>
<path d="M0,0 L4,0 L4,5 L3,3 L-2,3 Z " fill="#C77082" transform="translate(622,700)"/>
<path d="M0,0 L4,1 L7,4 L3,5 L0,2 Z " fill="#280205" transform="translate(287,664)"/>
<path d="M0,0 L7,1 L6,3 L1,2 L1,5 L-2,4 L-2,2 L0,2 Z " fill="#B07B86" transform="translate(401,321)"/>
<path d="M0,0 L4,0 L4,4 L0,4 Z " fill="#2F070C" transform="translate(717,853)"/>
<path d="M0,0 L4,0 L4,4 L0,4 Z " fill="#33090C" transform="translate(669,849)"/>
<path d="M0,0 L6,0 L4,4 L0,3 Z " fill="#35090F" transform="translate(603,847)"/>
<path d="M0,0 L4,0 L4,4 L0,4 Z " fill="#34090C" transform="translate(649,831)"/>
<path d="M0,0 L5,2 L4,5 L1,5 Z " fill="#CB707F" transform="translate(458,710)"/>
<path d="M0,0 L4,0 L4,4 L0,4 Z " fill="#2F080A" transform="translate(311,699)"/>
<path d="M0,0 L1,3 L-2,6 L-2,4 L-4,4 L-3,1 Z " fill="#B56B75" transform="translate(403,661)"/>
<path d="M0,0 L2,0 L3,5 L-5,2 L-5,1 Z " fill="#CD9BA7" transform="translate(619,367)"/>
<path d="M0,0 L7,1 L6,3 L0,2 Z " fill="#CE8E9E" transform="translate(531,329)"/>
<path d="M0,0 L4,1 L0,4 L-3,4 L-3,2 L0,2 Z " fill="#400B11" transform="translate(602,801)"/>
<path d="M0,0 L7,0 L6,3 L0,2 Z " fill="#420B13" transform="translate(658,773)"/>
<path d="M0,0 L1,3 L4,4 L2,5 L-4,2 Z " fill="#D37B89" transform="translate(487,704)"/>
<path d="M0,0 L5,1 L0,5 L-1,1 Z " fill="#B76476" transform="translate(648,696)"/>
<path d="M0,0 L1,4 L-4,7 L-5,4 L0,3 Z " fill="#AF6474" transform="translate(663,684)"/>
<path d="M0,0 L2,1 L2,3 L0,3 L-1,5 L-1,3 L-4,3 L-4,1 Z " fill="#C9717F" transform="translate(407,632)"/>
<path d="M0,0 L4,1 L4,3 L-1,4 L-2,1 Z " fill="#CB8395" transform="translate(423,330)"/>
<path d="M0,0 L8,0 L4,2 L1,4 Z " fill="#E37F93" transform="translate(581,683)"/>
<path d="M0,0 L4,1 L2,4 L-1,4 Z " fill="#D98894" transform="translate(397,612)"/>
<path d="M0,0 L2,0 L1,4 L-5,4 L-1,3 Z " fill="#C96E80" transform="translate(646,695)"/>
<path d="M0,0 L1,2 L3,2 L4,7 L0,4 Z " fill="#1E0102" transform="translate(298,682)"/>
<path d="M0,0 L1,0 L1,5 L-2,5 L-1,1 Z " fill="#34080A" transform="translate(468,828)"/>
<path d="M0,0 L3,1 L3,3 L-3,4 Z " fill="#29171B" transform="translate(658,692)"/>
<path d="M0,0 L2,0 L0,4 L-2,4 L-2,1 Z " fill="#370A0F" transform="translate(709,751)"/>
<path d="M0,0 L2,0 L1,4 L-2,4 L-2,2 L0,2 Z " fill="#2E0809" transform="translate(301,737)"/>
<path d="M0,0 L3,1 L3,6 L0,2 Z " fill="#390C0F" transform="translate(296,665)"/>
<path d="M0,0 L2,0 L2,4 L-1,5 Z " fill="#C96F7E" transform="translate(410,651)"/>
<path d="M0,0 L3,0 L3,3 L-1,4 Z " fill="#EC8E9E" transform="translate(433,610)"/>
<path d="M0,0 L3,1 L0,4 L-2,2 Z " fill="#D293A6" transform="translate(634,427)"/>
<path d="M0,0 L3,0 L3,3 L-1,3 Z " fill="#E69DAE" transform="translate(567,370)"/>
<path d="M0,0 L7,0 L6,3 L0,1 Z " fill="#CB909D" transform="translate(602,361)"/>
<path d="M0,0 L5,0 L1,4 Z " fill="#D790A1" transform="translate(407,334)"/>
<path d="M0,0 L2,0 L0,4 L-2,4 Z " fill="#090102" transform="translate(566,882)"/>
<path d="M0,0 L1,4 L-3,2 Z " fill="#260408" transform="translate(567,878)"/>
<path d="M0,0 L4,1 L0,4 Z " fill="#BB687A" transform="translate(653,693)"/>
<path d="M0,0 L2,0 L1,3 L-2,4 L-2,1 Z " fill="#C88896" transform="translate(375,329)"/>
</svg>
