<?xml version="1.0" encoding="UTF-8"?>
<!-- Generator: visioncortex VTracer 0.6.4 -->
<svg version="1.1" xmlns="http://www.w3.org/2000/svg" width="1024" height="1024">
<path d="M0,0 L1024,0 L1024,1024 L0,1024 Z " fill="#000000" transform="translate(0,0)"/>
<path d="M0,0 L20,0 L26,7 L28,8 L28,36 L30,36 L30,50 L32,50 L32,53 L30,53 L30,58 L28,58 L28,64 L26,64 L26,66 L28,66 L28,68 L24,68 L24,70 L10,70 L10,72 L8,72 L8,74 L2,74 L2,72 L0,72 L0,68 L-4,68 L-4,70 L-6,70 L-6,68 L-8,68 L-8,72 L-10,72 L-10,76 L-12,76 L-12,88 L-14,88 L-14,94 L-12,94 L-12,98 L-10,98 L-10,104 L-8,104 L-8,106 L-4,106 L-4,104 L0,104 L0,112 L-12,112 L-12,114 L-8,116 L-8,118 L0,118 L0,120 L4,120 L4,122 L12,122 L12,124 L16,124 L16,126 L24,126 L24,128 L32,128 L32,130 L42,130 L42,128 L44,128 L44,126 L48,126 L48,122 L24,122 L24,120 L20,120 L20,118 L16,118 L16,116 L4,116 L4,114 L24,114 L24,116 L32,116 L32,118 L52,118 L50,113 L48,112 L48,114 L46,114 L46,110 L44,110 L44,108 L42,108 L42,110 L40,110 L40,108 L38,108 L38,94 L40,94 L40,92 L38,92 L38,76 L40,76 L40,72 L42,72 L42,68 L46,68 L46,64 L48,64 L48,62 L58,62 L58,64 L62,64 L68,71 L70,72 L70,76 L72,76 L72,78 L74,78 L74,82 L76,82 L76,96 L74,96 L74,100 L72,100 L72,104 L70,104 L70,108 L68,108 L68,110 L66,110 L66,112 L64,112 L64,122 L68,122 L68,128 L70,128 L70,130 L94,130 L94,133 L92,133 L92,136 L90,136 L90,138 L98,138 L98,140 L100,140 L100,142 L98,142 L98,144 L96,144 L96,148 L100,148 L100,150 L106,150 L106,152 L110,152 L110,154 L113,152 L116,152 L116,150 L140,150 L140,154 L144,154 L144,158 L148,160 L148,162 L150,162 L150,166 L154,166 L154,168 L158,168 L158,166 L160,166 L160,170 L170,170 L170,172 L174,172 L181,180 L188,187 L192,188 L192,194 L194,194 L194,200 L192,200 L192,202 L188,202 L188,204 L186,204 L186,208 L184,208 L184,210 L182,210 L182,212 L180,212 L180,216 L178,216 L178,218 L176,218 L176,224 L174,224 L174,226 L176,226 L176,234 L178,234 L178,240 L180,240 L180,246 L182,246 L182,256 L186,256 L186,258 L184,258 L184,262 L186,262 L186,268 L188,268 L188,274 L190,274 L192,279 L196,280 L197,284 L196,286 L198,286 L198,288 L202,288 L202,290 L198,290 L198,296 L196,296 L196,298 L194,298 L194,296 L190,296 L190,298 L184,298 L184,300 L162,300 L162,298 L154,298 L148,292 L148,290 L144,290 L142,285 L138,282 L136,277 L128,270 L128,266 L124,264 L116,256 L116,254 L112,254 L112,250 L110,250 L110,246 L108,246 L108,242 L110,242 L110,240 L108,240 L108,230 L104,228 L104,226 L100,226 L100,228 L96,228 L96,230 L94,230 L94,232 L92,232 L92,238 L90,238 L90,244 L88,244 L88,254 L86,254 L86,256 L82,256 L82,258 L78,258 L78,260 L76,260 L76,262 L74,262 L74,266 L72,266 L72,280 L70,280 L70,290 L68,290 L68,292 L66,292 L66,300 L62,300 L62,302 L60,302 L60,306 L54,306 L54,308 L50,308 L50,310 L46,310 L46,312 L42,312 L42,314 L38,314 L38,316 L36,316 L36,318 L34,318 L34,320 L32,320 L32,322 L30,322 L30,324 L28,324 L28,326 L26,326 L26,332 L24,332 L24,334 L22,334 L22,336 L20,336 L20,346 L18,346 L18,354 L22,354 L22,360 L26,360 L26,362 L22,362 L22,364 L26,364 L26,370 L28,370 L28,374 L30,374 L30,378 L32,378 L32,388 L40,388 L40,386 L42,386 L42,382 L44,382 L44,380 L54,380 L54,384 L56,384 L60,388 L61,404 L60,408 L62,408 L62,416 L64,416 L64,426 L66,426 L66,430 L64,430 L64,436 L66,436 L66,446 L68,446 L68,454 L70,454 L70,488 L72,488 L72,494 L70,494 L70,514 L68,514 L68,562 L66,562 L66,566 L64,566 L64,568 L62,568 L62,574 L60,574 L60,582 L58,582 L58,590 L56,590 L56,592 L54,592 L54,596 L52,596 L52,598 L48,602 L44,602 L44,604 L42,604 L42,606 L38,606 L38,608 L36,608 L36,612 L34,612 L34,616 L32,616 L32,620 L30,620 L30,622 L28,622 L28,626 L24,626 L24,628 L22,628 L22,630 L16,630 L16,632 L-6,632 L-6,634 L-38,634 L-38,632 L-42,632 L-42,630 L-48,630 L-48,628 L-52,628 L-52,626 L-57,625 L-58,622 L-60,622 L-60,624 L-64,623 L-66,622 L-66,618 L-68,618 L-68,614 L-70,614 L-70,610 L-72,610 L-72,612 L-74,612 L-76,607 L-82,602 L-84,597 L-86,596 L-86,592 L-88,592 L-88,588 L-90,588 L-90,582 L-92,582 L-92,576 L-94,576 L-94,558 L-92,558 L-92,550 L-90,550 L-90,546 L-88,546 L-88,544 L-86,544 L-86,538 L-84,538 L-84,536 L-82,536 L-81,531 L-78,530 L-78,526 L-76,526 L-75,530 L-76,532 L-68,532 L-68,536 L-66,536 L-66,538 L-64,538 L-64,542 L-62,542 L-56,549 L-52,550 L-52,554 L-48,554 L-48,556 L-34,556 L-34,554 L-32,554 L-32,556 L-29,556 L-29,554 L-24,554 L-24,552 L-18,552 L-18,550 L-10,550 L-8,546 L-6,546 L-4,542 L-2,542 L-2,540 L2,540 L2,538 L4,538 L4,536 L6,536 L6,534 L8,534 L8,530 L10,530 L10,524 L14,524 L14,522 L12,522 L12,520 L14,520 L14,512 L12,512 L12,504 L10,504 L10,502 L6,502 L6,500 L2,500 L2,496 L0,496 L0,494 L-4,494 L-4,492 L-8,492 L-8,490 L-12,490 L-12,486 L-22,486 L-22,482 L-24,482 L-24,476 L-22,476 L-22,462 L-20,462 L-20,458 L-18,458 L-18,456 L-20,456 L-20,444 L-18,444 L-18,442 L-16,442 L-18,435 L-20,434 L-20,428 L-22,428 L-22,424 L-26,422 L-28,418 L-32,418 L-32,414 L-38,414 L-38,412 L-42,412 L-42,410 L-44,410 L-44,406 L-46,406 L-46,402 L-48,402 L-49,392 L-52,390 L-52,386 L-54,386 L-54,382 L-58,382 L-58,376 L-60,376 L-62,371 L-64,370 L-64,366 L-68,366 L-68,364 L-70,364 L-70,358 L-75,357 L-76,354 L-80,354 L-80,352 L-86,352 L-86,350 L-92,350 L-92,348 L-108,348 L-108,350 L-114,350 L-114,352 L-122,352 L-122,354 L-118,354 L-118,356 L-122,356 L-122,358 L-124,358 L-124,370 L-126,370 L-126,374 L-128,374 L-128,372 L-130,372 L-130,376 L-132,376 L-132,380 L-134,380 L-134,386 L-136,386 L-136,388 L-134,388 L-134,390 L-138,394 L-140,394 L-140,398 L-142,398 L-142,400 L-144,400 L-144,398 L-148,398 L-148,400 L-150,400 L-150,398 L-155,397 L-160,392 L-160,390 L-164,390 L-164,388 L-178,388 L-180,384 L-184,384 L-191,376 L-196,372 L-198,365 L-200,364 L-200,344 L-198,344 L-198,342 L-200,342 L-200,338 L-202,338 L-202,336 L-208,336 L-208,330 L-212,330 L-212,328 L-216,328 L-216,324 L-218,324 L-218,322 L-222,322 L-226,318 L-228,313 L-232,310 L-232,304 L-234,304 L-234,290 L-236,290 L-236,288 L-234,288 L-234,276 L-232,276 L-231,271 L-228,270 L-228,268 L-224,268 L-224,266 L-222,266 L-222,264 L-216,264 L-216,262 L-208,262 L-208,260 L-206,260 L-206,258 L-208,258 L-208,256 L-206,256 L-206,246 L-208,246 L-208,242 L-206,242 L-206,234 L-204,234 L-203,229 L-200,226 L-198,226 L-198,224 L-196,224 L-196,220 L-194,220 L-194,218 L-192,218 L-192,212 L-190,212 L-190,208 L-188,208 L-188,204 L-186,204 L-186,202 L-184,202 L-184,198 L-182,198 L-182,196 L-178,196 L-178,194 L-176,194 L-176,192 L-172,192 L-172,190 L-170,190 L-170,188 L-166,188 L-166,186 L-162,186 L-162,184 L-160,184 L-160,182 L-158,182 L-158,176 L-156,176 L-156,172 L-154,172 L-154,168 L-152,168 L-151,163 L-142,154 L-140,154 L-140,152 L-136,152 L-136,150 L-132,150 L-132,148 L-128,148 L-128,146 L-124,146 L-122,142 L-118,140 L-118,138 L-116,138 L-114,134 L-110,132 L-110,130 L-106,130 L-106,128 L-100,128 L-100,126 L-86,126 L-86,124 L-84,124 L-84,122 L-80,122 L-78,118 L-76,118 L-76,116 L-70,116 L-70,114 L-60,114 L-60,112 L-58,112 L-56,115 L-52,116 L-52,118 L-44,118 L-44,116 L-42,116 L-42,112 L-46,112 L-46,108 L-44,108 L-44,106 L-46,106 L-44,100 L-48,100 L-48,98 L-46,98 L-46,96 L-48,96 L-48,92 L-46,92 L-46,90 L-48,90 L-48,88 L-46,88 L-46,76 L-44,76 L-44,68 L-42,68 L-42,56 L-40,56 L-40,46 L-38,46 L-38,40 L-36,40 L-36,38 L-34,38 L-33,33 L-30,32 L-30,30 L-26,30 L-26,28 L-24,28 L-24,26 L-22,26 L-22,22 L-20,22 L-20,20 L-16,20 L-16,18 L-18,18 L-18,16 L-14,16 L-14,14 L-12,14 L-12,10 L-10,10 L-10,8 L-8,8 L-8,6 L-6,6 L-6,4 L-4,4 L-4,2 L0,2 Z " fill="#EEF7BF" transform="translate(480,174)"/>
<path d="M0,0 L20,0 L26,7 L28,8 L28,36 L30,36 L31,52 L29,52 L29,57 L23,57 L16,60 L7,60 L6,61 L0,61 L-5,60 L-10,60 L-12,65 L-10,65 L-10,67 L-15,71 L-19,70 L-22,71 L-23,68 L-26,70 L-26,67 L-28,67 L-28,65 L-35,66 L-38,72 L-39,76 L-40,76 L-40,69 L-38,69 L-38,57 L-39,56 L-39,46 L-38,40 L-36,40 L-36,38 L-34,38 L-33,33 L-30,32 L-30,30 L-26,30 L-26,28 L-24,28 L-24,26 L-22,26 L-22,22 L-20,22 L-20,20 L-16,20 L-16,18 L-18,18 L-18,16 L-14,16 L-14,14 L-12,14 L-12,10 L-10,10 L-10,8 L-8,8 L-8,6 L-6,6 L-6,4 L-4,4 L-4,2 L0,2 Z " fill="#FDFEF5" transform="translate(480,174)"/>
<path d="M0,0 L10,0 L12,3 L20,4 L24,8 L24,12 L26,12 L26,16 L28,16 L28,24 L26,24 L26,44 L28,44 L28,58 L26,58 L26,64 L22,64 L22,66 L20,66 L20,68 L18,68 L18,70 L16,70 L16,72 L12,72 L12,74 L10,74 L10,72 L4,72 L4,64 L2,64 L0,59 L-2,58 L-2,54 L-4,54 L-6,47 L-24,29 L-26,28 L-26,24 L-28,24 L-28,10 L-24,10 L-24,8 L-22,8 L-22,6 L-16,6 L-16,4 L-8,4 L-8,2 L0,2 Z " fill="#EDF6BC" transform="translate(400,596)"/>
<path d="M0,0 L6,0 L6,2 L12,2 L16,7 L20,8 L20,14 L22,14 L22,34 L20,34 L20,42 L18,42 L18,44 L16,44 L16,48 L12,48 L12,50 L10,50 L10,52 L6,52 L6,54 L-12,54 L-12,52 L-17,51 L-20,48 L-20,46 L-25,45 L-26,42 L-28,42 L-28,38 L-30,38 L-30,24 L-28,24 L-28,20 L-26,20 L-26,18 L-22,18 L-22,14 L-20,14 L-20,12 L-18,12 L-18,10 L-16,10 L-16,8 L-12,8 L-12,6 L-10,6 L-10,4 L-6,4 L-6,2 L0,2 Z " fill="#020201" transform="translate(406,334)"/>
<path d="M0,0 L10,0 L10,2 L14,2 L20,9 L22,10 L22,14 L24,14 L24,16 L26,16 L26,20 L28,20 L28,34 L26,34 L26,38 L24,38 L24,42 L21,42 L21,45 L19,45 L18,43 L16,44 L15,47 L17,47 L17,49 L15,50 L15,60 L13,60 L12,56 L5,56 L2,51 L0,50 L0,52 L-2,52 L-2,48 L-4,48 L-4,46 L-6,46 L-6,48 L-8,48 L-8,46 L-10,46 L-10,32 L-8,32 L-8,30 L-10,30 L-10,14 L-8,14 L-8,10 L-6,10 L-6,6 L-2,6 L-2,2 L0,2 Z " fill="#F2F7D4" transform="translate(528,236)"/>
<path d="M0,0 L20,0 L26,7 L28,8 L28,36 L30,36 L31,52 L29,52 L29,57 L23,57 L16,60 L7,60 L6,61 L0,61 L-5,60 L-10,60 L-12,65 L-10,65 L-10,67 L-15,71 L-19,70 L-22,71 L-23,68 L-26,70 L-26,67 L-28,67 L-28,65 L-35,66 L-38,72 L-39,76 L-40,76 L-40,69 L-38,69 L-38,57 L-39,56 L-39,46 L-38,40 L-36,40 L-36,38 L-34,38 L-33,33 L-30,32 L-30,30 L-26,30 L-26,28 L-24,28 L-24,26 L-22,26 L-22,22 L-20,22 L-20,20 L-16,20 L-16,18 L-18,18 L-18,16 L-14,16 L-14,14 L-12,14 L-12,10 L-10,10 L-10,8 L-8,8 L-8,6 L-6,6 L-6,4 L-4,4 L-4,2 L0,2 Z M6,5 L2,6 L1,8 L-5,11 L-8,16 L-9,21 L-12,21 L-20,29 L-21,27 L-23,27 L-23,29 L-29,31 L-29,33 L-26,34 L-26,36 L-28,36 L-33,41 L-32,45 L-33,53 L-24,53 L-10,50 L-9,46 L-4,47 L-4,51 L2,51 L3,50 L12,49 L17,46 L22,45 L26,37 L27,36 L27,9 L18,9 L15,6 Z " fill="#FAFDE4" transform="translate(480,174)"/>
<path d="M0,0 L5,1 L6,2 L6,12 L8,12 L8,60 L6,60 L6,76 L8,76 L8,78 L6,78 L6,90 L8,90 L8,118 L6,118 L7,124 L6,130 L2,130 L2,136 L0,136 L0,128 L-2,128 L-2,124 L-4,124 L-4,122 L1,122 L1,116 L4,116 L4,104 L2,104 L2,92 L0,92 L0,98 L-2,98 L-2,62 L-5,62 L-5,65 L-7,65 L-7,72 L-10,72 L-10,44 L-8,44 L-8,36 L-12,36 L-12,30 L-10,30 L-10,24 L-8,24 L-8,14 L-10,14 L-10,8 L-8,8 L-8,12 L-6,12 L-6,8 L-4,8 L-4,4 L0,4 Z " fill="#2A3007" transform="translate(804,388)"/>
<path d="M0,0 L2,0 L2,2 L7,2 L10,4 L10,2 L12,2 L12,6 L22,6 L22,8 L26,8 L26,12 L28,12 L28,14 L18,14 L18,16 L10,16 L10,18 L6,18 L6,20 L0,20 L0,22 L-10,22 L-10,24 L-14,23 L-16,22 L-16,24 L-28,25 L-33,30 L-34,40 L-36,40 L-36,56 L-38,56 L-38,62 L-40,62 L-40,66 L-42,66 L-42,74 L-45,76 L-46,80 L-48,80 L-48,68 L-50,68 L-50,66 L-48,66 L-48,60 L-46,60 L-48,56 L-48,52 L-46,52 L-46,48 L-44,48 L-44,36 L-42,36 L-42,30 L-40,30 L-40,24 L-36,24 L-36,22 L-34,22 L-34,20 L-30,20 L-29,15 L-26,14 L-26,10 L-18,10 L-18,6 L-12,6 L-12,4 L-4,4 L-4,2 L0,2 Z " fill="#262D05" transform="translate(702,604)"/>
<path d="M0,0 L4,1 L1,1 L1,3 L3,3 L3,5 L0,5 L0,3 L-3,3 L-3,5 L-1,5 L-3,9 L-6,14 L-10,15 L-12,18 L-13,21 L-17,25 L-19,30 L-21,37 L-25,41 L-30,46 L-36,46 L-44,52 L-45,55 L-46,62 L-52,67 L-52,70 L-55,72 L-56,76 L-62,81 L-67,79 L-66,83 L-68,87 L-73,87 L-73,94 L-74,94 L-74,86 L-72,86 L-71,81 L-68,78 L-66,78 L-66,76 L-64,76 L-64,72 L-62,72 L-62,70 L-60,70 L-60,64 L-58,64 L-58,60 L-56,60 L-56,56 L-54,56 L-54,54 L-52,54 L-52,50 L-50,50 L-50,48 L-46,48 L-46,46 L-44,46 L-44,44 L-40,44 L-40,42 L-38,42 L-38,40 L-34,40 L-34,38 L-30,38 L-30,36 L-28,36 L-28,34 L-26,34 L-26,28 L-24,28 L-24,24 L-22,24 L-22,20 L-20,20 L-19,15 L-10,6 L-8,6 L-8,4 L-4,4 L-4,2 L0,2 Z M-54,68 Z " fill="#F4FACE" transform="translate(348,322)"/>
<path d="M0,0 L20,0 L26,7 L28,8 L28,36 L30,36 L30,50 L29,50 L29,37 L27,37 L27,50 L26,50 L26,36 L27,9 L25,9 L25,36 L24,36 L23,10 L18,10 L17,7 L6,6 L2,6 L1,9 L-5,12 L-9,22 L-12,22 L-20,30 L-21,27 L-23,27 L-23,29 L-26,30 L-26,28 L-24,28 L-24,26 L-22,26 L-22,22 L-20,22 L-20,20 L-16,20 L-16,18 L-18,18 L-18,16 L-14,16 L-14,14 L-12,14 L-12,10 L-10,10 L-10,8 L-8,8 L-8,6 L-6,6 L-6,4 L-4,4 L-4,2 L0,2 Z " fill="#F9FAF2" transform="translate(480,174)"/>
<path d="M0,0 L1,3 L-1,3 L-1,8 L-3,8 L-3,14 L-5,14 L-5,16 L-3,16 L-3,18 L-7,18 L-7,20 L-21,20 L-21,22 L-23,22 L-23,24 L-29,24 L-29,22 L-31,22 L-31,17 L-41,17 L-41,15 L-43,15 L-41,10 L-33,9 L-31,10 L-25,10 L-23,9 L-15,9 L-9,8 L-8,6 L-5,7 L-5,2 L-4,2 L-4,7 L-2,7 L-2,2 L0,2 Z " fill="#F1F6D6" transform="translate(511,224)"/>
<path d="M0,0 L12,0 L13,2 L16,2 L16,4 L28,4 L28,6 L32,6 L32,8 L36,8 L36,10 L60,10 L60,14 L56,14 L56,16 L54,16 L54,18 L44,18 L44,16 L36,16 L36,14 L28,14 L28,12 L24,12 L24,10 L16,10 L16,8 L12,8 L12,6 L4,6 L0,2 Z " fill="#151511" transform="translate(468,286)"/>
<path d="M0,0 L2,0 L2,2 L7,2 L9,4 L9,8 L7,8 L6,10 L4,10 L4,13 L-4,14 L-4,17 L-11,18 L-11,16 L-27,17 L-27,20 L-29,20 L-29,15 L-26,14 L-26,10 L-18,10 L-18,6 L-12,6 L-12,4 L-4,4 L-4,2 L0,2 Z " fill="#2E3507" transform="translate(702,604)"/>
<path d="M0,0 L4,1 L1,1 L1,3 L5,2 L4,6 L2,6 L0,10 L-1,11 L-7,11 L-7,16 L-5,17 L-5,33 L6,33 L10,34 L10,32 L18,28 L31,28 L34,27 L40,27 L42,26 L48,28 L46,30 L37,30 L36,31 L30,31 L25,30 L20,30 L18,35 L20,35 L20,37 L15,41 L11,40 L8,41 L7,38 L4,40 L4,37 L2,37 L2,35 L-5,36 L-8,42 L-9,46 L-10,46 L-10,39 L-8,39 L-8,27 L-9,26 L-9,16 L-8,10 L-6,10 L-6,8 L-4,8 L-3,3 L0,2 Z " fill="#F5FAD9" transform="translate(450,204)"/>
<path d="M0,0 L4,0 L4,13 L6,13 L6,15 L4,15 L4,20 L-2,20 L-3,21 L-14,20 L-15,21 L-21,21 L-23,20 L-24,22 L-33,22 L-35,21 L-34,18 L-25,19 L-25,16 L-13,15 L-13,13 L-9,13 L-7,9 L-3,7 Z " fill="#F6F9E3" transform="translate(505,211)"/>
<path d="M0,0 L1,0 L1,19 L3,19 L3,0 L4,0 L4,20 L2,20 L2,68 L0,68 L0,72 L-2,72 L-2,74 L-4,74 L-4,80 L-5,80 L-5,74 L-7,74 L-7,79 L-8,79 L-8,73 L-5,67 L-3,71 L-1,71 L-2,68 L-3,24 L-2,19 L0,19 Z " fill="#E3E7C8" transform="translate(546,668)"/>
<path d="M0,0 L1,0 L1,16 L3,16 L3,18 L1,18 L1,30 L3,30 L3,58 L1,58 L2,64 L1,70 L-3,70 L-3,76 L-5,76 L-5,68 L-7,68 L-7,64 L-9,64 L-9,62 L-4,62 L-4,56 L-1,56 L-1,44 L-3,44 L-3,32 L-5,31 L0,30 L-1,16 Z " fill="#232907" transform="translate(809,448)"/>
<path d="M0,0 L4,2 L2,2 L2,6 L0,6 L0,10 L-2,10 L-2,14 L-4,14 L-4,16 L-6,16 L-6,20 L-10,20 L-10,22 L-12,22 L-12,24 L-18,24 L-18,26 L-40,26 L-40,28 L-72,28 L-72,27 L-41,27 L-41,25 L-43,24 L-41,24 L-41,22 L-19,22 L-18,18 L-15,17 L-14,18 L-9,13 L-8,10 L-5,11 L-5,13 L-3,13 L-4,6 L-3,9 L-1,9 L-2,2 L-1,5 L1,5 Z " fill="#DCDECD" transform="translate(514,780)"/>
<path d="M0,0 L2,0 L2,6 L0,6 L0,8 L2,8 L2,10 L0,10 L0,18 L-2,18 L-2,22 L0,22 L0,30 L-2,30 L-2,34 L0,34 L0,42 L-2,42 L0,47 L0,52 L-2,52 L-4,47 L-4,42 L-6,42 L-6,30 L-8,30 L-8,22 L-6,22 L-6,14 L-4,14 L-4,8 L-2,8 L-2,2 Z " fill="#2A3207" transform="translate(294,714)"/>
<path d="M0,0 L2,0 L1,29 L0,31 L0,34 L-2,35 L-2,43 L-4,45 L-5,49 L-7,49 L-7,37 L-9,37 L-9,35 L-7,35 L-7,29 L-5,29 L-7,25 L-7,21 L-5,21 L-5,17 L-3,17 L-3,5 L0,5 Z " fill="#2B3207" transform="translate(661,635)"/>
<path d="M0,0 L1,0 L1,8 L3,8 L3,14 L5,14 L5,20 L7,20 L7,30 L11,30 L11,32 L9,32 L9,36 L11,36 L11,42 L13,42 L13,48 L15,48 L16,53 L14,53 L13,55 L14,49 L12,49 L11,53 L8,48 L8,43 L6,43 L3,31 L1,29 L2,25 L1,24 L-1,15 Z " fill="#E5EDAF" transform="translate(655,400)"/>
<path d="M0,0 L4,0 L4,2 L0,2 L0,8 L-2,8 L-2,10 L-4,10 L-4,8 L-8,8 L-8,10 L-14,10 L-14,12 L-36,12 L-36,10 L-44,10 L-48,5 L-43,4 L-43,6 L-35,6 L-31,7 L-23,6 L-17,7 L-8,5 L-8,7 L-4,7 L-3,1 Z " fill="#F1F9B7" transform="translate(678,462)"/>
<path d="M0,0 L1,0 L1,10 L3,11 L2,23 L0,23 L0,31 L-1,33 L-1,46 L-1,50 L0,54 L-3,54 L-3,58 L-5,57 L-4,54 L-8,54 L-8,52 L-6,52 L-6,50 L-8,50 L-8,46 L-6,46 L-6,44 L-8,44 L-8,42 L-6,42 L-6,30 L-4,30 L-4,22 L-2,22 L-2,10 L0,10 Z " fill="#E3E7C6" transform="translate(440,220)"/>
<path d="M0,0 L4,0 L4,27 L1,31 L-1,36 L-6,37 L-11,40 L-13,39 L-9,35 L-5,33 L-5,28 L-4,26 L-4,17 L-3,16 L-2,6 Z " fill="#FAFBF2" transform="translate(503,183)"/>
<path d="M0,0 L20,0 L20,2 L28,2 L28,4 L48,4 L49,1 L49,4 L51,4 L52,0 L52,5 L49,8 L45,8 L44,12 L44,8 L20,8 L20,6 L16,6 L16,4 L12,4 L12,2 L0,2 Z " fill="#E7EBC9" transform="translate(484,288)"/>
<path d="M0,0 L20,0 L26,7 L28,8 L28,36 L30,36 L30,50 L29,50 L29,37 L27,37 L27,50 L26,50 L26,36 L27,9 L25,9 L25,36 L24,36 L24,9 L20,9 L20,5 L0,5 L0,3 L-3,3 L-3,5 L-6,4 L-4,4 L-4,2 L0,2 Z " fill="#E0E1D8" transform="translate(480,174)"/>
<path d="M0,0 L3,1 L0,5 L2,6 L1,11 L-3,11 L-8,18 L-9,21 L-11,21 L-11,23 L-9,23 L-9,25 L-11,26 L-11,29 L-13,29 L-15,26 L-20,32 L-24,36 L-26,35 L-24,31 L-20,27 L-18,27 L-18,21 L-13,16 L-16,15 L-14,15 L-14,12 L-12,12 L-11,9 L-6,11 L-4,4 Z " fill="#F4FAC7" transform="translate(388,328)"/>
<path d="M0,0 L16,3 L16,5 L22,6 L26,10 L24,10 L25,14 L23,13 L23,11 L19,11 L19,9 L13,9 L13,7 L7,7 L7,5 L-9,5 L-9,7 L-15,7 L-15,9 L-23,9 L-23,8 L-16,8 L-16,5 L-18,4 L-10,1 Z " fill="#EFF7B9" transform="translate(381,517)"/>
<path d="M0,0 L1,4 L3,4 L3,8 L5,8 L5,16 L3,16 L3,36 L5,36 L5,50 L4,50 L4,37 L2,37 L2,49 L0,45 L-1,37 L-2,36 L-2,16 L0,13 L2,5 L0,5 L-1,8 L-3,5 L-2,1 L-2,4 L0,4 Z " fill="#DDE5AF" transform="translate(423,604)"/>
<path d="M0,0 L5,0 L3,1 L3,5 L1,5 L1,19 L-1,19 L-1,29 L-3,29 L-3,31 L-5,31 L-5,39 L-9,39 L-9,41 L-11,41 L-11,45 L-17,45 L-17,44 L-12,44 L-12,42 L-16,40 L-12,39 L-10,40 L-11,37 L-6,38 L-6,31 L-8,31 L-8,36 L-11,36 L-9,30 L-7,28 L-6,20 L-4,17 L-3,4 Z " fill="#EBF5AB" transform="translate(551,435)"/>
<path d="M0,0 L1,3 L-1,3 L-1,8 L-3,8 L-3,14 L-5,14 L-5,16 L-3,16 L-3,18 L-7,18 L-7,20 L-21,20 L-21,22 L-23,22 L-23,24 L-29,24 L-29,22 L-31,22 L-30,18 L-30,21 L-28,21 L-28,17 L-26,16 L-9,16 L-9,10 L-8,6 L-5,7 L-5,2 L-4,2 L-4,7 L-2,7 L-2,2 L0,2 Z " fill="#E8EDCB" transform="translate(511,224)"/>
<path d="M0,0 L2,1 L1,3 L3,3 L2,7 L0,31 L0,37 L-1,37 L-1,32 L-3,32 L-3,38 L-4,38 L-4,32 L-6,32 L-6,14 L-4,14 L-4,6 L-2,6 L-2,2 L0,2 Z " fill="#EEF3C2" transform="translate(392,718)"/>
<path d="M0,0 L4,3 L5,12 L5,16 L7,22 L14,28 L14,30 L16,30 L16,32 L18,32 L18,34 L15,34 L14,36 L7,29 L7,27 L3,27 L3,23 L1,23 L1,19 L-1,19 L-1,15 L1,15 L1,13 L-1,13 L-1,3 L-3,2 L0,2 Z " fill="#D4DE98" transform="translate(589,401)"/>
<path d="M0,0 L2,0 L2,6 L3,4 L11,2 L11,5 L17,5 L17,3 L24,4 L26,7 L24,7 L24,9 L30,9 L31,11 L27,11 L26,13 L23,10 L23,8 L17,8 L17,6 L11,6 L11,8 L5,8 L5,10 L1,10 L1,12 L-1,12 L-1,14 L-5,14 L-5,16 L-7,16 L-8,18 L-7,11 L-4,5 L-1,4 Z " fill="#E9F0BD" transform="translate(395,328)"/>
<path d="M0,0 L5,1 L9,6 L13,7 L13,9 L31,9 L31,7 L35,7 L35,5 L37,5 L37,3 L41,4 L38,4 L38,6 L42,7 L38,9 L32,8 L32,10 L35,11 L32,14 L22,15 L18,14 L13,13 L9,11 L12,10 L12,8 L7,9 L4,8 L4,6 L1,5 L4,4 L4,2 L-1,4 L-2,2 L0,2 Z " fill="#EFF7BB" transform="translate(381,379)"/>
<path d="M0,0 L5,1 L3,2 L3,8 L1,8 L1,10 L-1,10 L-1,12 L-3,12 L-3,22 L-5,22 L-5,30 L-1,30 L-1,36 L3,36 L3,38 L-1,38 L-1,40 L3,40 L3,46 L5,46 L4,50 L4,47 L2,47 L1,50 L0,46 L2,46 L2,41 L-4,42 L-7,41 L-7,38 L-5,38 L-6,31 L-8,30 L-6,30 L-6,22 L-8,22 L-8,15 L-6,12 L-6,21 L-4,21 L-5,11 L-2,11 L-2,9 L-4,8 Z " fill="#D3DCA0" transform="translate(503,498)"/>
<path d="M0,0 L2,2 L0,5 L-4,5 L-4,7 L-17,9 L-22,8 L-22,6 L-26,5 L-25,1 L-20,1 L-19,4 L-20,6 L-13,4 L-4,3 Z M-31,5 L-26,5 L-31,9 L-39,10 L-40,12 L-47,12 L-49,8 L-42,7 Z " fill="#FCFDE8" transform="translate(496,219)"/>
<path d="M0,0 L5,2 L9,6 L13,7 L13,11 L17,11 L17,13 L31,13 L31,14 L17,14 L17,16 L31,16 L31,17 L16,17 L16,15 L15,16 L14,19 L9,20 L5,19 L5,8 L6,6 L4,6 L4,4 L0,4 Z " fill="#E6EDC2" transform="translate(415,717)"/>
<path d="M0,0 L1,0 L1,48 L-3,48 L-3,15 L-2,4 Z " fill="#242C04" transform="translate(811,400)"/>
<path d="M0,0 L2,2 L0,6 L3,6 L3,8 L-1,8 L-2,10 L-5,8 L-5,10 L-3,10 L-3,12 L-6,12 L-6,14 L-9,15 L-9,18 L-11,19 L-11,22 L-13,23 L-13,26 L-15,26 L-16,20 L-17,18 L-16,10 L-13,11 L-13,7 L-8,6 L-8,8 L-6,7 L-4,2 L0,2 Z M-9,8 Z " fill="#F8FAEB" transform="translate(524,767)"/>
<path d="M0,0 L5,1 L0,5 L1,8 L-2,8 L-2,10 L-8,10 L-7,7 L-10,9 L-9,12 L-17,12 L-22,9 L-35,11 L-35,8 L-30,7 L-19,7 L-19,9 L-12,8 L-12,5 L-6,3 L-1,1 Z " fill="#2A3204" transform="translate(710,613)"/>
<path d="M0,0 L1,0 L1,5 L3,5 L1,9 L-1,13 L-2,26 L-6,30 L-6,28 L-8,28 L-8,12 L-6,12 L-6,8 L-4,8 L-4,4 L0,4 Z " fill="#E2E4C4" transform="translate(526,238)"/>
<path d="M0,0 L6,0 L6,18 L5,21 L3,21 L3,28 L0,28 Z " fill="#070801" transform="translate(794,432)"/>
<path d="M0,0 L2,4 L1,6 L-1,5 L-1,7 L1,7 L1,11 L0,18 L-3,17 L-3,19 L-1,20 L-3,22 L-8,22 L-4,21 L-4,19 L-8,19 L-8,14 L-11,14 L-11,8 L-10,6 L-2,6 L-2,4 L0,4 Z " fill="#D5DEA7" transform="translate(522,556)"/>
<path d="M0,0 L2,0 L2,2 L4,2 L4,6 L6,6 L6,4 L10,6 L10,10 L-10,10 L-10,8 L-18,8 L-17,4 L-10,4 L-2,5 L0,5 L0,3 L-2,2 L0,2 Z " fill="#070706" transform="translate(522,282)"/>
<path d="M0,0 L1,2 L4,2 L5,0 L5,2 L9,2 L9,4 L5,4 L5,6 L3,6 L3,18 L1,18 L1,22 L-1,22 L-1,20 L-3,20 L-3,24 L-5,24 L-5,28 L-7,28 L-7,34 L-9,34 L-9,36 L-7,36 L-8,38 L-11,36 L-10,34 L-12,34 L-13,36 L-11,27 L-8,24 L-8,27 L-6,27 L-8,21 L-6,20 L-6,23 L-4,23 L-5,17 L-2,14 L-1,6 L0,6 L0,17 L2,17 L1,4 L4,5 L4,3 L0,3 Z " fill="#D8E0AD" transform="translate(353,526)"/>
<path d="M0,0 L1,4 L5,6 L23,24 L23,30 L16,24 L1,9 L1,7 L-1,7 Z " fill="#1A1B15" transform="translate(373,620)"/>
<path d="M0,0 L4,0 L4,6 L6,6 L6,8 L30,8 L30,11 L28,11 L28,14 L26,14 L25,16 L25,14 L23,14 L22,17 L22,12 L4,13 L2,11 L3,9 L5,9 L5,7 L2,6 L3,1 Z " fill="#C7CDA5" transform="translate(544,296)"/>
<path d="M0,0 L10,0 L11,3 L2,3 L-1,6 L-7,9 L-9,9 L-9,11 L-13,12 L-17,11 L-24,10 L-25,5 L-19,6 L-17,5 L-12,6 L-3,3 Z " fill="#F8FCDF" transform="translate(469,227)"/>
<path d="M0,0 L2,1 L12,1 L14,3 L14,6 L-17,6 L-17,4 L-20,4 L-20,2 L-13,1 L0,2 Z " fill="#F7F9E8" transform="translate(459,801)"/>
<path d="M0,0 L2,1 L2,68 L1,68 L1,24 L-1,24 L0,72 L-1,69 L-3,69 L-4,72 L-4,68 L-2,68 L-2,20 L0,20 Z " fill="#20211C" transform="translate(550,668)"/>
<path d="M0,0 L16,0 L16,2 L22,2 L22,4 L28,4 L28,5 L16,6 L15,5 L3,5 L-5,6 L-14,6 L-14,4 L-6,4 L-6,2 L0,2 Z " fill="#11110D" transform="translate(372,522)"/>
<path d="M0,0 L1,0 L1,8 L-1,8 L-1,16 L-3,16 L-3,18 L-5,18 L-5,22 L-7,22 L-7,24 L-11,28 L-15,28 L-15,30 L-17,30 L-17,32 L-21,31 L-18,31 L-18,29 L-20,29 L-20,27 L-17,27 L-15,26 L-12,27 L-12,25 L-15,25 L-14,21 L-9,17 L-8,15 L-6,15 L-5,8 L-4,8 L-4,15 L-2,15 L-3,1 L-2,1 L-2,7 L0,7 Z " fill="#DDDFCE" transform="translate(539,748)"/>
<path d="M0,0 L5,2 L3,9 L4,27 L5,30 L4,35 L2,35 L2,30 L-2,28 L-2,9 L0,8 L0,5 L-2,5 L-1,1 Z " fill="#F4F9CA" transform="translate(283,510)"/>
<path d="M0,0 L5,0 L2,1 L2,3 L6,4 L2,4 L2,6 L-2,6 L-2,8 L-6,8 L-6,10 L-10,10 L-10,12 L-12,12 L-12,14 L-14,14 L-14,16 L-16,16 L-16,18 L-18,18 L-19,20 L-20,14 L-17,13 L-17,11 L-15,11 L-15,9 L-10,5 Z " fill="#DBE59F" transform="translate(528,478)"/>
<path d="M0,0 L2,0 L3,7 L1,13 L3,14 L2,18 L2,28 L-2,30 L-2,17 L-5,17 L-5,15 L-3,15 L-3,3 L0,3 Z " fill="#EAEDD7" transform="translate(249,447)"/>
<path d="M0,0 L4,0 L4,6 L6,6 L6,26 L4,26 L4,34 L2,34 L2,36 L0,36 L0,40 L-4,40 L-5,42 L-6,38 L-1,39 L-1,37 L-4,36 L-2,36 L-2,34 L2,31 L2,6 L3,1 Z " fill="#141510" transform="translate(422,342)"/>
<path d="M0,0 L1,3 L3,3 L4,0 L9,8 L9,10 L7,10 L7,19 L10,19 L11,17 L15,25 L22,28 L22,29 L17,29 L17,31 L22,31 L22,32 L16,32 L16,30 L12,30 L12,28 L10,28 L10,24 L8,24 L8,20 L6,20 L5,10 L2,8 L2,4 L0,4 Z " fill="#D4DCA5" transform="translate(426,556)"/>
<path d="M0,0 L1,0 L2,8 L2,48 L1,46 L-1,46 L-2,48 L-2,42 L0,42 L0,28 L-2,28 L-2,8 L0,8 Z " fill="#13140F" transform="translate(428,612)"/>
<path d="M0,0 L3,1 L3,4 L5,4 L6,2 L5,6 L1,5 L1,7 L-7,7 L-7,12 L-12,13 L-14,18 L-17,18 L-21,19 L-21,17 L-23,17 L-24,20 L-23,15 L-20,14 L-20,12 L-16,12 L-16,10 L-14,10 L-14,8 L-8,8 L-8,6 L0,6 L0,4 L2,4 L2,2 L0,2 Z " fill="#F2F6DC" transform="translate(272,430)"/>
<path d="M0,0 L4,0 L4,6 L6,6 L6,12 L4,12 L4,14 L-5,15 L-10,15 L-8,11 L-6,11 L-5,7 L-1,3 L1,3 L1,6 L3,6 L3,1 Z " fill="#EFF8C4" transform="translate(668,362)"/>
<path d="M0,0 L2,1 L1,3 L3,3 L3,5 L0,5 L-1,9 L-1,5 L-3,5 L-2,10 L-5,9 L-5,11 L-3,11 L-4,16 L-12,24 L-13,21 L-15,21 L-15,23 L-18,24 L-18,22 L-16,22 L-16,20 L-14,20 L-14,16 L-12,16 L-12,14 L-8,14 L-8,12 L-10,12 L-10,10 L-6,10 L-6,8 L-4,8 L-4,4 L-2,4 L-2,2 L0,2 Z " fill="#E8E9E4" transform="translate(472,180)"/>
<path d="M0,0 L2,0 L1,22 L-2,29 L-4,29 L-6,22 L-5,17 L-3,17 L-3,5 L0,5 Z " fill="#2C3307" transform="translate(661,635)"/>
<path d="M0,0 L6,1 L2,2 L2,4 L0,4 L0,2 L-2,2 L-2,6 L-4,6 L-4,10 L-6,10 L-6,22 L-8,22 L-8,28 L-9,28 L-10,22 L-10,8 L-8,8 L-9,4 L-7,4 L-6,1 Z " fill="#E0E4BE" transform="translate(474,240)"/>
<path d="M0,0 L1,4 L3,4 L3,10 L5,10 L5,12 L9,12 L9,10 L13,10 L13,18 L1,18 L1,20 L4,21 L0,22 L-2,20 L0,20 L0,14 L4,13 L4,11 L1,10 L2,5 L0,5 L0,10 L-1,10 Z " fill="#C8CDAA" transform="translate(467,268)"/>
<path d="M0,0 L4,2 L2,2 L2,6 L0,6 L0,10 L-2,10 L-2,14 L-4,14 L-4,16 L-6,16 L-6,20 L-10,20 L-10,22 L-12,23 L-18,23 L-18,19 L-15,17 L-14,18 L-9,13 L-8,10 L-5,11 L-5,13 L-3,13 L-4,6 L-3,9 L-1,9 L-2,2 L-1,5 L1,5 Z " fill="#E3E5D6" transform="translate(514,780)"/>
<path d="M0,0 L5,1 L8,2 L14,2 L16,5 L14,5 L15,9 L13,8 L13,6 L9,6 L9,8 L5,8 L5,10 L3,10 L3,12 L1,12 L1,18 L0,18 L-2,7 L0,6 L0,4 L-2,3 L3,3 L3,1 Z " fill="#DEE89F" transform="translate(571,394)"/>
<path d="M0,0 L1,2 L0,26 L2,26 L2,2 L3,2 L3,30 L2,43 L4,43 L4,30 L5,30 L5,52 L4,52 L3,44 L1,44 L1,30 L-1,30 L-1,2 L-3,1 Z " fill="#1B1C1A" transform="translate(509,180)"/>
<path d="M0,0 L6,1 L2,2 L2,4 L-5,10 L-6,12 L-14,12 L-14,14 L-20,14 L-20,16 L-25,16 L-25,18 L-28,17 L-26,17 L-26,15 L-21,15 L-21,13 L-26,13 L-26,12 L-20,12 L-20,10 L-14,10 L-14,8 L-6,8 L-6,6 L-4,6 L-4,4 Z " fill="#0D0D0B" transform="translate(476,712)"/>
<path d="M0,0 L1,4 L5,6 L11,12 L11,16 L15,18 L17,20 L17,24 L13,24 L11,19 L9,19 L9,15 L5,13 L-1,7 Z " fill="#1C1D14" transform="translate(607,440)"/>
<path d="M0,0 L2,0 L2,5 L4,5 L4,0 L5,0 L5,6 L3,6 L3,16 L1,16 L1,18 L-3,18 L-3,20 L-7,20 L-8,22 L-9,17 L-7,17 L-7,15 L-3,14 Z " fill="#DDE79D" transform="translate(565,412)"/>
<path d="M0,0 L2,0 L2,2 L5,1 L12,3 L12,4 L1,6 L0,9 L-10,17 L-12,16 L-12,14 L-14,14 L-14,12 L-10,12 L-10,10 L-6,11 L-6,6 L-4,6 L-3,2 Z " fill="#F7FACD" transform="translate(367,309)"/>
<path d="M0,0 L1,0 L1,8 L3,8 L3,14 L5,14 L6,20 L6,30 L1,30 L2,25 L1,24 L-1,15 Z " fill="#F1F8B6" transform="translate(655,400)"/>
<path d="M0,0 L4,1 L1,1 L1,3 L5,2 L4,6 L2,6 L0,10 L-1,11 L-7,11 L-7,16 L-5,17 L-6,26 L-9,26 L-9,16 L-8,10 L-6,10 L-6,8 L-4,8 L-3,3 L0,2 Z " fill="#FAFAF2" transform="translate(450,204)"/>
<path d="M0,0 L2,0 L2,10 L0,10 L0,8 L-2,8 L-2,14 L0,14 L0,16 L-4,16 L-4,22 L-6,22 L-6,28 L-10,28 L-10,24 L-8,24 L-8,18 L-6,18 L-6,14 L-4,14 L-4,6 L-2,6 L-2,2 L0,2 Z " fill="#202807" transform="translate(310,672)"/>
<path d="M0,0 L6,0 L6,1 L1,1 L1,3 L-1,3 L-1,5 L1,5 L0,9 L0,21 L-1,18 L-3,18 L-2,22 L-4,22 L-4,18 L-6,18 L-6,4 L-2,4 L-2,2 L0,2 Z " fill="#DAE2AC" transform="translate(378,602)"/>
<path d="M0,0 L2,0 L2,6 L0,6 L0,8 L2,8 L2,10 L0,10 L0,18 L-2,18 L-3,22 L-3,18 L-5,18 L-5,23 L-7,23 L-6,30 L-8,30 L-8,22 L-6,22 L-6,14 L-4,14 L-4,8 L-2,8 L-2,2 Z " fill="#222906" transform="translate(294,714)"/>
<path d="M0,0 L1,2 L4,2 L5,7 L-3,7 L-6,10 L-10,9 L-11,7 L-15,8 L-16,4 L-18,4 L-17,2 L-15,3 L-14,2 L0,2 Z M5,4 Z " fill="#F4F9D0" transform="translate(446,729)"/>
<path d="M0,0 L2,0 L2,4 L0,4 L-2,8 L-7,12 L-10,14 L-14,14 L-14,16 L-16,16 L-15,11 L-13,11 L-11,7 L-9,7 L-9,5 L-2,4 L-2,2 L0,2 Z " fill="#F0F3CF" transform="translate(487,709)"/>
<path d="M0,0 L5,0 L3,1 L3,5 L1,5 L1,19 L-1,19 L-1,29 L-2,29 L-2,19 L-4,19 L-3,4 Z " fill="#D9E29D" transform="translate(551,435)"/>
<path d="M0,0 L5,1 L18,14 L18,16 L21,16 L21,21 L17,22 L14,19 L15,14 L10,13 L11,10 L9,10 L9,8 L5,8 L3,5 L0,2 Z " fill="#F0F5CA" transform="translate(650,347)"/>
<path d="M0,0 L5,0 L5,6 L3,6 L3,13 L1,14 L1,21 L-1,21 L-2,16 L-5,19 L-4,14 L-2,11 L-4,10 L-3,4 L-1,4 Z " fill="#F8F9E4" transform="translate(536,742)"/>
<path d="M0,0 L5,1 L5,3 L7,4 L9,9 L6,9 L6,11 L13,12 L14,15 L16,15 L14,21 L18,22 L16,22 L16,27 L19,28 L15,28 L15,22 L13,22 L11,17 L9,16 L9,12 L5,12 L5,10 L3,10 L3,4 L-1,3 L3,3 L3,1 Z " fill="#D3DAA4" transform="translate(407,528)"/>
<path d="M0,0 L2,0 L3,4 L2,7 L4,7 L4,4 L7,4 L9,8 L10,11 L14,12 L16,19 L14,19 L14,17 L12,17 L13,20 L11,20 L9,15 L1,8 L1,4 L-3,2 Z " fill="#E5F1A4" transform="translate(607,436)"/>
<path d="M0,0 L1,4 L3,4 L3,14 L1,14 L1,16 L3,16 L3,18 L1,18 L1,20 L-7,20 L-7,22 L-13,22 L-13,21 L-8,21 L-8,19 L-13,19 L-13,18 L-1,16 L-1,4 Z " fill="#181915" transform="translate(271,416)"/>
<path d="M0,0 L2,0 L3,4 L5,5 L5,1 L7,1 L5,17 L2,25 L2,27 L-1,27 L0,16 L2,16 L2,6 L0,6 Z " fill="#2D3209" transform="translate(794,396)"/>
<path d="M0,0 L1,3 L-1,3 L-1,8 L-3,8 L-3,14 L-5,14 L-5,16 L-3,16 L-3,18 L-7,18 L-7,20 L-21,20 L-21,19 L-8,19 L-9,17 L-9,10 L-8,6 L-5,7 L-5,2 L-4,2 L-4,7 L-2,7 L-2,2 L0,2 Z " fill="#D5D9BF" transform="translate(511,224)"/>
<path d="M0,0 L2,0 L2,2 L7,3 L7,4 L1,4 L1,6 L-9,6 L-9,8 L-13,7 L-15,6 L-15,8 L-27,8 L-27,7 L-16,7 L-16,5 L-26,5 L-23,3 L-12,1 L-12,3 L0,5 L0,3 L-3,2 Z " fill="#252C02" transform="translate(701,620)"/>
<path d="M0,0 L8,0 L8,2 L16,2 L16,4 L26,4 L26,2 L28,2 L28,0 L32,1 L29,1 L29,3 L27,3 L29,6 L32,8 L28,9 L25,7 L26,5 L16,5 L15,7 L5,5 L0,4 L0,3 L7,3 L7,1 L0,1 Z " fill="#D7DDB4" transform="translate(496,300)"/>
<path d="M0,0 L1,4 L3,4 L3,18 L1,18 L1,22 L-1,22 L-2,26 L-3,19 L-2,21 L0,21 L-3,5 L-2,1 L-2,3 L0,3 Z " fill="#E0E3C3" transform="translate(553,252)"/>
<path d="M0,0 L2,1 L1,3 L3,3 L1,15 L-2,15 L-3,17 L-3,15 L-5,15 L-5,32 L-6,32 L-6,14 L-4,14 L-4,6 L-2,6 L-2,2 L0,2 Z " fill="#D9DEB0" transform="translate(392,718)"/>
<path d="M0,0 L4,1 L2,2 L2,6 L-7,15 L-9,18 L-10,14 L-12,18 L-12,12 L-10,12 L-10,10 L-8,10 L-8,8 L-6,8 L-6,6 L-4,6 L-4,4 L-2,4 L-2,2 L0,2 Z " fill="#11120C" transform="translate(518,488)"/>
<path d="M0,0 L4,1 L1,1 L1,3 L7,3 L6,7 L2,8 L-3,9 L-9,12 L-11,11 L-11,9 L-9,9 L-9,7 L-6,7 L-6,4 L-4,4 L-4,2 L0,2 Z " fill="#E8EEC5" transform="translate(314,360)"/>
<path d="M0,0 L12,0 L13,2 L16,2 L16,4 L28,4 L28,5 L13,5 L13,7 L16,8 L12,8 L12,6 L4,6 L0,2 Z " fill="#1D1D18" transform="translate(468,286)"/>
<path d="M0,0 L4,1 L1,1 L1,3 L3,3 L3,5 L0,5 L0,3 L-3,3 L-3,5 L-1,5 L-3,9 L-6,14 L-8,15 L-9,12 L-15,12 L-10,6 L-8,6 L-8,4 L-4,4 L-4,2 L0,2 Z " fill="#F9FCD0" transform="translate(348,322)"/>
<path d="M0,0 L1,0 L1,5 L4,5 L5,3 L7,9 L10,9 L10,16 L9,19 L11,19 L12,17 L15,21 L13,21 L12,23 L8,20 L6,15 L4,14 L4,10 L2,10 L2,6 L0,6 Z " fill="#F1F6CC" transform="translate(390,756)"/>
<path d="M0,0 L1,4 L3,4 L3,16 L2,22 L5,22 L4,26 L4,23 L2,23 L1,26 L-1,23 L-1,4 Z " fill="#E1E8B1" transform="translate(509,548)"/>
<path d="M0,0 L3,0 L3,2 L5,2 L5,4 L8,5 L8,7 L10,7 L12,10 L14,14 L14,20 L12,20 L12,16 L10,16 L10,14 L8,14 L8,10 L4,8 L0,4 L0,2 L-4,1 Z " fill="#1C1D19" transform="translate(542,236)"/>
<path d="M0,0 L4,1 L-2,6 L-2,22 L-3,22 L-3,12 L-5,12 L-4,22 L-4,32 L-5,32 L-5,26 L-7,26 L-7,32 L-8,32 L-8,22 L-6,22 L-6,8 L-4,8 L-4,4 L-2,4 L-2,2 L0,2 Z " fill="#212318" transform="translate(558,432)"/>
<path d="M0,0 L1,0 L1,30 L3,30 L3,0 L4,0 L4,34 L3,40 L2,40 L2,34 L0,34 Z " fill="#1C1E17" transform="translate(550,628)"/>
<path d="M0,0 L1,4 L3,4 L3,10 L7,12 L7,18 L5,18 L5,20 L3,20 L3,32 L5,32 L5,34 L3,34 L2,38 L1,32 L1,18 L3,18 L1,10 L2,5 L-1,5 Z " fill="#1C1D15" transform="translate(457,598)"/>
<path d="M0,0 L10,0 L10,2 L14,2 L20,9 L22,10 L22,14 L24,14 L23,16 L20,14 L21,11 L19,11 L18,15 L17,9 L12,11 L9,6 L9,4 L7,3 L9,3 L9,1 L0,1 Z " fill="#E2E5C8" transform="translate(528,236)"/>
<path d="M0,0 L4,3 L5,12 L5,16 L4,22 L2,22 L2,13 L-1,13 L-1,3 L-3,2 L0,2 Z " fill="#E1ECA0" transform="translate(589,401)"/>
<path d="M0,0 L2,0 L0,5 L0,14 L-2,19 L-4,20 L-2,22 L-6,22 L-6,14 L-4,14 L-4,4 L-2,4 L-2,2 L0,2 Z " fill="#10110C" transform="translate(504,506)"/>
<path d="M0,0 L6,1 L2,2 L2,4 L-1,6 L-2,10 L-4,10 L-4,22 L-6,22 L-6,24 L-4,24 L-4,38 L-5,38 L-5,25 L-8,26 L-8,10 L-7,10 L-7,21 L-5,21 L-6,6 L-5,9 L-3,9 L-4,4 Z " fill="#20211D" transform="translate(250,440)"/>
<path d="M0,0 L14,0 L14,1 L1,1 L1,3 L14,3 L14,4 L1,4 L1,6 L-6,7 L-6,5 L-9,5 L-9,9 L-16,11 L-12,6 L-10,6 L-10,4 L-6,4 L-6,2 L0,2 Z " fill="#DEE3B9" transform="translate(380,300)"/>
<path d="M0,0 L2,0 L2,5 L-1,5 L0,7 L0,20 L-1,20 L-1,12 L-3,12 L-2,27 L-2,30 L-4,30 L-4,26 L-6,26 L-6,20 L-4,20 L-4,8 L-2,8 L-2,4 L0,4 Z " fill="#22231C" transform="translate(472,242)"/>
<path d="M0,0 L6,0 L6,2 L10,2 L16,9 L18,10 L18,12 L12,12 L6,6 L6,4 L2,4 L2,2 L0,2 Z " fill="#242B06" transform="translate(266,628)"/>
<path d="M0,0 L1,4 L-1,4 L-1,10 L1,10 L1,20 L3,20 L3,28 L2,28 L2,21 L0,21 L0,28 L-1,28 L0,11 L-2,11 L-2,19 L-3,19 L-3,11 L-5,11 L-5,3 L-3,3 L-2,1 L-2,3 L0,3 Z " fill="#D5DDAB" transform="translate(545,600)"/>
<path d="M0,0 L1,0 L1,6 L5,8 L13,16 L11,20 L3,13 L-1,8 Z " fill="#1B1C16" transform="translate(283,540)"/>
<path d="M0,0 L15,0 L15,2 L18,2 L18,4 L15,4 L15,6 L3,5 L3,2 L0,2 Z " fill="#080807" transform="translate(481,291)"/>
<path d="M0,0 L1,0 L1,5 L3,5 L1,9 L-1,13 L-2,11 L-5,11 L-4,4 L0,4 Z M-4,13 L-2,13 L-2,26 L-4,27 Z " fill="#E5E9C7" transform="translate(526,238)"/>
<path d="M0,0 L2,0 L2,2 L10,2 L12,4 L10,4 L10,7 L31,7 L31,8 L9,8 L9,6 L1,6 L-3,1 Z " fill="#CDD699" transform="translate(633,466)"/>
<path d="M0,0 L6,0 L7,4 L7,8 L8,12 L5,12 L5,16 L3,15 L4,12 L0,12 L0,10 L2,10 L2,8 L0,8 L0,4 L2,4 L2,2 L0,2 Z " fill="#DDE2BE" transform="translate(432,262)"/>
<path d="M0,0 L10,0 L12,3 L20,4 L20,5 L12,5 L11,8 L7,5 L0,5 L0,3 L-8,3 L-8,2 L0,2 Z " fill="#D7DFA9" transform="translate(400,596)"/>
<path d="M0,0 L2,0 L0,4 L-4,10 L-6,14 L-10,15 L-10,17 L-12,17 L-12,19 L-18,20 L-18,18 L-16,18 L-14,13 L-9,11 L-6,8 L-4,8 L-3,3 Z " fill="#202306" transform="translate(778,568)"/>
<path d="M0,0 L2,0 L2,13 L4,13 L4,8 L5,8 L5,14 L1,14 L1,20 L-1,20 L-1,12 L-3,12 L-3,8 L-5,8 L-5,6 L0,6 Z " fill="#202406" transform="translate(805,504)"/>
<path d="M0,0 L2,3 L1,7 L3,7 L3,5 L5,5 L5,8 L3,8 L3,11 L5,11 L5,9 L7,9 L8,13 L10,13 L10,15 L12,15 L12,13 L14,14 L14,19 L12,18 L12,16 L10,16 L10,18 L6,17 L4,16 L4,12 L2,12 L2,8 L0,8 L0,4 L-2,3 L0,3 Z " fill="#D2D7B9" transform="translate(410,780)"/>
<path d="M0,0 L2,1 L3,11 L2,16 L-1,19 L-3,18 L-3,21 L-5,21 L-5,16 L-2,16 L-1,3 Z " fill="#EDF3CB" transform="translate(496,683)"/>
<path d="M0,0 L4,1 L3,5 L5,5 L6,1 L6,9 L5,15 L7,15 L7,9 L8,9 L8,25 L5,24 L6,29 L4,29 L4,23 L6,23 L6,19 L4,19 L4,9 L2,9 L2,1 Z " fill="#202219" transform="translate(540,581)"/>
<path d="M0,0 L6,0 L6,2 L12,2 L16,8 L14,10 L11,8 L11,6 L5,6 L5,4 L-6,3 L-6,2 L0,2 Z " fill="#13140F" transform="translate(406,334)"/>
<path d="M0,0 L8,0 L7,7 L2,7 L0,7 L-5,6 L-5,2 L0,2 Z " fill="#F5F7D0" transform="translate(462,725)"/>
<path d="M0,0 L2,1 L3,11 L4,16 L3,14 L1,14 L2,21 L1,17 L-1,17 L-2,20 L-2,16 L0,16 L0,14 L-2,14 L-2,2 L0,2 Z " fill="#DAE1AB" transform="translate(462,616)"/>
<path d="M0,0 L1,3 L7,3 L7,1 L14,2 L16,5 L14,5 L14,7 L20,7 L21,9 L17,9 L16,11 L13,8 L13,6 L7,6 L7,4 L1,4 L1,6 L-5,6 L-5,5 L0,5 L0,3 L-2,2 L0,2 Z " fill="#D4DCAA" transform="translate(405,330)"/>
<path d="M0,0 L6,1 L2,2 L2,4 L0,4 L0,6 L-14,6 L-14,8 L-20,8 L-20,7 L-15,7 L-15,5 L-20,5 L-20,4 L-1,2 Z " fill="#171813" transform="translate(394,294)"/>
<path d="M0,0 L3,1 L-3,8 L-6,14 L-12,16 L-16,15 L-14,15 L-14,12 L-12,12 L-11,9 L-6,11 L-4,4 Z " fill="#F7FDC9" transform="translate(388,328)"/>
<path d="M0,0 L1,0 L1,14 L3,14 L3,18 L10,20 L10,21 L1,21 L1,23 L10,23 L10,24 L0,24 L0,20 L-2,20 L-2,14 L0,14 Z " fill="#CED6A2" transform="translate(458,636)"/>
<path d="M0,0 L2,3 L2,22 L0,22 L0,18 L-2,18 L-2,4 L0,4 Z " fill="#161711" transform="translate(378,354)"/>
<path d="M0,0 L1,0 L1,5 L-2,8 L-6,8 L-7,12 L-7,8 L-31,8 L-31,7 L-3,7 L-3,5 L-23,5 L-23,4 L-3,4 L-2,1 L-2,4 L0,4 Z " fill="#C0C5A4" transform="translate(535,288)"/>
<path d="M0,0 L3,1 L3,4 L5,4 L6,2 L5,6 L8,7 L5,8 L5,12 L7,13 L3,13 L4,18 L-1,19 L-6,18 L-6,17 L2,17 L2,15 L-6,15 L-6,14 L2,14 L2,12 L4,12 L4,8 L0,8 L0,4 L2,4 L2,2 L0,2 Z " fill="#D6DCB6" transform="translate(434,278)"/>
<path d="M0,0 L6,1 L2,2 L2,4 L-6,11 L-9,14 L-10,18 L-12,18 L-13,22 L-14,14 L-13,17 L-11,17 L-12,12 L-10,12 L-10,10 L-8,10 L-8,8 L-6,8 L-6,6 L-4,6 L-4,4 Z " fill="#131410" transform="translate(338,324)"/>
<path d="M0,0 L5,1 L6,2 L6,12 L5,12 L4,4 L3,12 L2,12 L1,7 L-2,9 L-5,9 L-5,13 L-7,12 L-6,8 L-4,8 L-4,4 L0,4 Z " fill="#262A07" transform="translate(804,388)"/>
<path d="M0,0 L4,0 L4,4 L1,6 L0,10 L-2,10 L-2,12 L-4,12 L-4,18 L-6,18 L-6,20 L-8,20 L-9,24 L-10,18 L-6,15 L-4,9 L-2,4 L0,4 Z " fill="#1F2119" transform="translate(398,700)"/>
<path d="M0,0 L2,0 L2,16 L4,16 L4,20 L2,20 L2,28 L0,28 Z " fill="#292E09" transform="translate(794,432)"/>
<path d="M0,0 L13,0 L9,2 L3,3 L0,2 Z M-10,1 L0,2 L-3,5 L-5,5 L-5,7 L-12,7 L-12,5 L-10,5 Z " fill="#F2F7CB" transform="translate(381,304)"/>
<path d="M0,0 L1,0 L2,31 L0,31 L-4,26 L-3,22 L-1,17 Z " fill="#F3F8D9" transform="translate(543,708)"/>
<path d="M0,0 L4,0 L4,2 L6,2 L6,10 L8,10 L8,18 L6,18 L5,20 L4,19 L4,6 L0,4 Z " fill="#1B1C17" transform="translate(486,676)"/>
<path d="M0,0 L1,4 L3,4 L4,0 L4,4 L6,4 L6,12 L8,12 L8,22 L7,22 L7,13 L5,13 L5,18 L4,18 L4,13 L2,13 L1,6 L0,5 Z " fill="#D8E0AA" transform="translate(536,578)"/>
<path d="M0,0 L4,0 L4,4 L8,4 L7,11 L5,10 L6,8 L3,8 L3,11 L1,11 L1,4 L-4,5 L-5,2 L-1,2 Z " fill="#EDF9AB" transform="translate(608,432)"/>
<path d="M0,0 L1,0 L1,12 L4,12 L3,15 L1,17 L2,22 L5,24 L5,30 L3,30 L3,25 L1,25 L-1,19 L-2,2 Z " fill="#F7FCCB" transform="translate(396,733)"/>
<path d="M0,0 L4,1 L7,6 L13,8 L13,9 L8,9 L8,11 L13,11 L13,12 L7,12 L7,10 L3,10 L3,8 L1,8 Z " fill="#DCE4AB" transform="translate(435,576)"/>
<path d="M0,0 L9,2 L13,6 L11,6 L12,10 L10,9 L10,7 L6,7 L6,5 L0,5 L0,3 L-6,3 L-6,2 L0,2 Z " fill="#D8DFA8" transform="translate(394,521)"/>
<path d="M0,0 L6,0 L6,4 L-1,8 L-7,7 L-7,9 L-10,10 L-10,8 L-8,8 L-8,6 L-4,6 L-2,2 L0,2 Z " fill="#E3E9C1" transform="translate(404,290)"/>
<path d="M0,0 L5,0 L7,2 L7,5 L5,5 L5,10 L10,10 L13,15 L11,19 L11,13 L9,13 L9,19 L8,19 L6,12 L4,11 L4,5 L2,5 L2,1 Z " fill="#D5DDA7" transform="translate(456,597)"/>
<path d="M0,0 L4,0 L4,4 L6,4 L6,8 L10,10 L10,20 L9,20 L9,14 L7,14 L7,20 L6,20 L5,12 L4,7 L5,5 L2,6 L2,4 L0,3 L3,3 L3,1 Z " fill="#1B1D15" transform="translate(422,556)"/>
<path d="M0,0 L10,0 L10,4 L12,4 L16,8 L16,22 L15,22 L15,9 L13,9 L13,22 L12,22 L11,10 L9,9 L9,7 L11,7 L11,5 L8,4 L9,1 L0,1 Z " fill="#CCD4A0" transform="translate(524,554)"/>
<path d="M0,0 L1,3 L17,3 L17,4 L1,4 L1,6 L-5,6 L-5,8 L-13,8 L-13,7 L-6,7 L-6,4 L-8,3 Z " fill="#CED69F" transform="translate(371,518)"/>
<path d="M0,0 L4,0 L4,2 L0,2 L0,8 L-2,8 L-2,10 L-4,10 L-4,8 L-8,8 L-8,10 L-14,10 L-14,9 L-9,9 L-9,7 L-14,7 L-11,5 L-8,5 L-8,7 L-4,7 L-3,1 Z " fill="#CED89D" transform="translate(678,462)"/>
<path d="M0,0 L4,1 L1,1 L1,3 L-1,3 L-1,5 L1,5 L-1,9 L-5,10 L-5,7 L-7,7 L-5,13 L-7,13 L-7,11 L-9,11 L-9,13 L-11,13 L-12,16 L-12,12 L-10,12 L-10,10 L-8,10 L-8,6 L-6,6 L-6,4 L-2,4 L-2,2 L0,2 Z M-5,11 Z " fill="#D8DEB6" transform="translate(304,366)"/>
<path d="M0,0 L3,1 L3,4 L5,4 L6,2 L5,6 L1,5 L1,7 L-7,7 L-7,12 L-16,12 L-16,10 L-14,10 L-14,8 L-8,8 L-8,6 L0,6 L0,4 L2,4 L2,2 L0,2 Z " fill="#D6DABD" transform="translate(272,430)"/>
<path d="M0,0 L1,4 L5,6 L9,10 L9,14 L5,14 L1,9 L1,7 L-1,7 Z " fill="#1A1B16" transform="translate(397,772)"/>
<path d="M0,0 L2,0 L2,13 L0,13 L0,18 L2,18 L2,20 L0,20 L0,25 L-2,25 L-2,12 L0,12 Z " fill="#2C3208" transform="translate(809,492)"/>
<path d="M0,0 L2,0 L3,3 L1,8 L-1,8 Z M-6,8 L-1,8 L-1,16 L-4,17 L-6,16 L-6,18 L-8,18 Z " fill="#F4F9D4" transform="translate(281,401)"/>
<path d="M0,0 L4,1 L2,1 L2,5 L0,5 L0,7 L-5,11 L-6,15 L-8,15 L-8,23 L-9,23 L-10,11 L-9,14 L-7,14 L-6,7 L-4,7 L-4,5 L-2,5 L-1,1 Z " fill="#1B1B17" transform="translate(282,393)"/>
<path d="M0,0 L2,0 L0,4 L0,16 L-1,16 L-1,9 L-3,9 L-2,16 L-2,24 L-3,20 L-5,20 L-6,24 L-6,16 L-4,16 L-4,8 L-2,8 L-2,2 L0,2 Z " fill="#23231F" transform="translate(544,740)"/>
<path d="M0,0 L2,2 L2,10 L0,12 L-1,16 L-3,16 L-3,4 L-2,2 L0,2 Z " fill="#272E06" transform="translate(657,668)"/>
<path d="M0,0 L7,0 L10,2 L9,4 L27,5 L27,6 L7,6 L7,4 L-1,4 Z " fill="#1E1F1A" transform="translate(505,286)"/>
<path d="M0,0 L1,0 L2,12 L1,10 L-1,10 L0,12 L0,22 L-1,22 L-1,16 L-3,16 L-3,22 L-4,22 L-4,12 L-2,12 L-2,6 L0,6 Z " fill="#171810" transform="translate(572,406)"/>
<path d="M0,0 L2,0 L2,2 L10,2 L10,6 L-1,7 L-2,2 Z " fill="#9DA281" transform="translate(440,301)"/>
<path d="M0,0 L4,1 L7,13 L7,15 L3,14 L2,9 L-1,9 Z " fill="#F2F8D0" transform="translate(400,766)"/>
<path d="M0,0 L4,1 L1,1 L1,3 L5,4 L1,6 L-5,5 L-5,7 L-2,8 L-6,9 L-6,7 L-24,7 L-24,6 L-6,6 L-6,4 L-2,4 L-2,2 L0,2 Z " fill="#CBD39D" transform="translate(418,382)"/>
<path d="M0,0 L3,1 L4,5 L1,9 L-2,10 L-2,13 L-4,13 L-5,9 L-3,4 Z " fill="#F1F7C4" transform="translate(385,338)"/>
<path d="M0,0 L2,0 L2,13 L4,13 L4,15 L2,15 L2,20 L-2,20 L-3,15 L-1,13 Z " fill="#F9FAEB" transform="translate(507,211)"/>
<path d="M0,0 L5,1 L6,4 L8,5 L8,25 L6,24 L6,8 L2,6 L2,4 L0,4 Z " fill="#26281E" transform="translate(534,554)"/>
<path d="M0,0 L2,0 L2,6 L6,6 L6,12 L8,12 L8,15 L4,14 L3,10 L0,8 L0,4 L-2,4 Z " fill="#242A07" transform="translate(314,806)"/>
<path d="M0,0 L1,0 L1,7 L3,8 L2,12 L0,12 L0,14 L-2,14 L-2,20 L-3,20 L-3,14 L-5,14 L-5,19 L-6,19 L-6,13 L-3,7 L-1,11 L1,11 L0,8 Z " fill="#E0E4C9" transform="translate(544,728)"/>
<path d="M0,0 L2,4 L2,11 L1,13 L-1,13 L-1,15 L-3,15 L-3,13 L-6,14 L-6,12 L-4,12 L-4,10 L-2,10 L-2,4 L0,4 Z " fill="#E0E5BF" transform="translate(324,346)"/>
<path d="M0,0 L1,0 L1,8 L3,8 L3,14 L5,14 L5,20 L4,20 L4,15 L2,15 L2,20 L0,17 L-1,15 Z " fill="#D4DC9E" transform="translate(655,400)"/>
<path d="M0,0 L5,1 L9,6 L13,7 L13,12 L9,11 L12,10 L12,8 L7,9 L4,8 L4,6 L1,5 L4,4 L4,2 L-1,4 L-2,2 L0,2 Z " fill="#DDE6AE" transform="translate(381,379)"/>
<path d="M0,0 L1,0 L1,6 L5,8 L7,10 L7,14 L10,15 L8,16 L3,14 L-1,8 Z " fill="#20211D" transform="translate(247,478)"/>
<path d="M0,0 L2,1 L1,3 L-1,3 L0,7 L-2,11 L-7,11 L-7,18 L-8,18 L-8,10 L-6,10 L-5,5 L-2,2 L0,2 Z " fill="#D2D7B5" transform="translate(282,398)"/>
<path d="M0,0 L1,2 L-1,2 L-1,5 L-3,5 L-3,3 L-22,3 L-22,1 Z " fill="#F9FDCF" transform="translate(572,304)"/>
<path d="M0,0 L4,0 L4,6 L6,6 L6,12 L4,12 L4,14 L0,14 L1,6 L3,6 L3,1 Z " fill="#D7DDB1" transform="translate(668,362)"/>
<path d="M0,0 L2,1 L1,3 L3,3 L3,5 L0,5 L-1,9 L-1,5 L-3,5 L-2,10 L-5,9 L-5,11 L-3,11 L-4,16 L-6,12 L-10,12 L-10,10 L-6,10 L-6,8 L-4,8 L-4,4 L-2,4 L-2,2 L0,2 Z " fill="#D9DAD3" transform="translate(472,180)"/>
<path d="M0,0 L14,1 L14,2 L6,2 L6,4 L0,4 L0,6 L-5,6 L-5,8 L-8,7 L-6,7 L-6,5 L-1,5 L-1,3 L-6,3 L-6,2 L0,2 Z " fill="#252620" transform="translate(456,722)"/>
<path d="M0,0 L7,0 L8,4 L0,4 L0,6 L-8,6 L-8,5 L-1,5 L-1,3 L-8,3 L-8,2 L0,2 Z " fill="#151610" transform="translate(392,594)"/>
<path d="M0,0 L3,0 L4,2 L8,4 L4,4 L4,6 L2,6 L2,8 L0,8 L0,14 L-1,14 L-3,3 L0,3 Z " fill="#DAE49C" transform="translate(572,398)"/>
<path d="M0,0 L2,0 L3,4 L2,6 L10,6 L10,10 L12,10 L11,12 L8,10 L9,7 L0,8 L-3,7 L-4,10 L-3,5 L0,4 Z " fill="#C7CDA4" transform="translate(402,700)"/>
<path d="M0,0 L4,0 L4,4 L8,6 L8,10 L10,10 L10,16 L9,16 L9,11 L4,10 L2,7 L2,4 L0,3 L3,3 L3,1 Z " fill="#1E1F17" transform="translate(412,540)"/>
<path d="M0,0 L5,1 L3,2 L3,8 L1,8 L1,10 L-2,11 L-2,9 L-4,8 Z " fill="#DCE6A1" transform="translate(503,498)"/>
<path d="M0,0 L4,0 L4,2 L6,3 L4,3 L4,5 L7,6 L8,9 L4,9 L3,11 L2,6 L0,6 Z " fill="#1A1B14" transform="translate(668,442)"/>
<path d="M0,0 L1,0 L1,10 L5,10 L5,12 L3,12 L3,16 L5,16 L5,22 L4,22 L4,17 L1,16 L2,12 L0,12 L0,16 L-2,16 L-3,10 L0,10 Z " fill="#CCD49A" transform="translate(661,420)"/>
<path d="M0,0 L3,0 L3,2 L1,2 L1,5 L-3,5 L-3,7 L-11,8 L-11,6 L-8,6 L-7,3 Z " fill="#171A04" transform="translate(355,248)"/>
<path d="M0,0 L5,0 L2,1 L2,3 L6,4 L2,4 L2,6 L-6,7 L-5,3 Z " fill="#EDF6AD" transform="translate(528,478)"/>
<path d="M0,0 L2,0 L2,2 L7,2 L10,8 L10,10 L8,10 L8,8 L6,8 L7,11 L5,11 L3,6 L0,3 Z " fill="#EBF5A9" transform="translate(613,445)"/>
<path d="M0,0 L3,0 L4,10 L2,14 L0,14 L0,11 L-2,10 L0,10 Z " fill="#F3F8D2" transform="translate(275,420)"/>
<path d="M0,0 L4,1 L2,2 L3,5 L-4,6 L-11,14 L-12,10 L-10,10 L-10,8 L-8,8 L-8,6 L-6,6 L-6,4 L-2,4 L-2,2 L0,2 Z " fill="#25261E" transform="translate(396,338)"/>
<path d="M0,0 Z M-2,1 L0,2 L0,4 L-10,12 L-12,11 L-12,9 L-14,9 L-14,7 L-10,7 L-10,5 L-4,5 L-4,3 L-2,3 Z " fill="#FBFDD0" transform="translate(367,314)"/>
<path d="M0,0 L6,1 L2,2 L2,4 L-1,6 L-2,10 L-4,10 L-4,12 L-6,12 L-6,18 L-7,18 L-7,10 L-5,8 L-4,4 Z " fill="#21211F" transform="translate(448,202)"/>
<path d="M0,0 L1,3 L9,2 L12,5 L9,5 L9,7 L15,6 L13,7 L14,10 L12,10 L12,8 L8,8 L8,6 L4,6 L4,4 L0,4 Z " fill="#D3DAA8" transform="translate(468,660)"/>
<path d="M0,0 L1,0 L1,7 L8,5 L9,2 L12,4 L10,4 L10,8 L8,8 L8,10 L0,10 Z " fill="#1F2119" transform="translate(512,552)"/>
<path d="M0,0 L2,0 L3,7 L0,15 L-2,15 L-2,3 L0,3 Z " fill="#FEFEED" transform="translate(249,447)"/>
<path d="M0,0 L1,0 L1,16 L3,16 L3,18 L1,18 L1,32 L3,32 L2,34 L-1,34 L-1,16 Z " fill="#2E2E27" transform="translate(517,250)"/>
<path d="M0,0 L1,4 L5,6 L5,10 L7,10 L7,18 L6,18 L6,11 L1,10 L-1,7 Z " fill="#1E2018" transform="translate(397,650)"/>
<path d="M0,0 L4,0 L7,5 L8,8 L10,9 L7,9 L7,11 L10,12 L6,12 L6,8 L4,8 L0,4 Z " fill="#151611" transform="translate(624,328)"/>
<path d="M0,0 L2,0 L0,5 L0,11 L-3,11 L-3,13 L0,14 L-4,14 L-4,4 L-2,4 L-2,2 L0,2 Z " fill="#1B1C18" transform="translate(548,282)"/>
<path d="M0,0 L2,1 L1,3 L-1,3 L-1,8 L1,9 L0,18 L-3,18 L-3,8 L-2,2 L0,2 Z " fill="#EAEBDC" transform="translate(444,212)"/>
<path d="M0,0 L1,0 L1,5 L4,5 L5,3 L8,9 L7,13 L7,10 L5,10 L6,14 L4,14 L4,10 L2,10 L2,6 L0,6 Z " fill="#D8DEB4" transform="translate(390,756)"/>
<path d="M0,0 L3,1 L1,5 L-6,6 L-8,7 L-8,2 L0,2 Z M-9,7 Z " fill="#F3F7D5" transform="translate(273,435)"/>
<path d="M0,0 L1,3 L3,3 L4,0 L4,4 L2,4 L2,6 L0,6 L0,8 L-2,8 L-2,18 L-3,18 L-4,7 L-1,7 L-1,5 L-3,5 L-2,1 Z " fill="#D3D8B8" transform="translate(546,278)"/>
<path d="M0,0 L6,1 L2,2 L2,4 L0,4 L0,6 L-2,6 L-2,8 L-4,8 L-4,10 L-6,10 L-7,14 L-7,8 L-6,6 L-4,6 L-4,4 Z " fill="#1D1D1B" transform="translate(474,174)"/>
<path d="M0,0 L12,0 L12,1 L2,2 L-4,8 L-5,16 L-6,16 L-6,6 Z " fill="#080900" transform="translate(674,628)"/>
<path d="M0,0 L5,1 L5,3 L7,4 L9,9 L6,9 L5,11 L3,10 L3,4 L-1,3 L3,3 L3,1 Z " fill="#DBE3A9" transform="translate(407,528)"/>
<path d="M0,0 L1,4 L3,4 L3,6 L1,6 L1,26 L4,27 L0,28 L-1,26 L-1,3 Z " fill="#323429" transform="translate(279,512)"/>
<path d="M0,0 L4,1 L2,1 L2,9 L-2,9 L-2,11 L-4,11 L-4,15 L-10,15 L-10,14 L-5,14 L-5,12 L-9,10 L-5,9 L-3,10 L-4,7 L1,8 Z " fill="#C7D192" transform="translate(544,465)"/>
<path d="M0,0 L4,1 L-2,6 L-2,22 L-3,22 L-3,12 L-5,12 L-4,4 L-2,4 L-2,2 L0,2 Z " fill="#13140E" transform="translate(558,432)"/>
<path d="M0,0 L2,4 L1,7 L1,5 L-1,5 L-1,10 L2,11 L1,13 L-1,13 L-1,15 L-3,15 L-3,13 L-5,13 L-6,16 L-6,12 L-4,12 L-4,10 L-2,10 L-2,4 L0,4 Z " fill="#D5DBB5" transform="translate(290,382)"/>
<path d="M0,0 L4,0 L10,8 L8,10 L3,6 L3,4 L0,4 Z " fill="#0C0D0A" transform="translate(316,564)"/>
<path d="M0,0 L6,0 L9,3 L1,4 L-8,4 L-8,2 L0,2 Z " fill="#181912" transform="translate(366,524)"/>
<path d="M0,0 L5,1 L6,4 L8,4 L8,6 L10,6 L10,8 L7,8 L6,10 L3,7 L2,3 L0,2 Z " fill="#DDE69E" transform="translate(597,427)"/>
<path d="M0,0 L3,1 L3,5 L1,5 L1,7 L-1,7 L-1,5 L-3,5 L-2,11 L-3,9 L-5,9 L-6,12 L-6,8 L-4,8 L-3,3 Z " fill="#DBE1B8" transform="translate(332,334)"/>
<path d="M0,0 L2,0 L2,3 L6,3 L6,5 L8,5 L8,7 L6,7 L6,9 L2,9 L2,5 L0,5 Z " fill="#1C1D16" transform="translate(512,565)"/>
<path d="M0,0 L1,0 L2,15 L0,16 L2,18 L-2,18 L-2,10 L0,10 Z " fill="#4C5038" transform="translate(500,510)"/>
<path d="M0,0 L4,2 L2,2 L2,6 L0,6 L0,8 L-2,8 L-2,14 L-3,14 L-3,8 L-5,8 L-5,13 L-6,13 L-6,7 L-2,5 L-1,3 L-1,5 L1,5 Z " fill="#D4DBA2" transform="translate(658,384)"/>
<path d="M0,0 L2,0 L2,6 L-9,6 L-9,4 L-5,4 L-5,2 L-1,2 Z " fill="#FBFDDB" transform="translate(477,279)"/>
<path d="M0,0 L7,0 L7,3 L11,5 L10,12 L7,8 L5,5 L5,2 L0,2 Z " fill="#F5F9CC" transform="translate(404,707)"/>
<path d="M0,0 L1,0 L1,6 L3,6 L3,0 L4,0 L4,18 L2,18 L2,10 L0,10 Z " fill="#1E1F18" transform="translate(546,610)"/>
<path d="M0,0 L2,2 L2,8 L0,8 L0,13 L-2,13 L-2,2 Z " fill="#EDF7A9" transform="translate(569,404)"/>
<path d="M0,0 L1,0 L1,8 L-1,8 L-1,10 L-3,10 L-3,14 L-7,14 L-8,16 L-9,12 L-4,13 L-4,11 L-7,10 L-5,10 L-5,8 L-1,5 Z " fill="#1F2118" transform="translate(425,368)"/>
<path d="M0,0 L8,0 L8,2 L10,2 L10,4 L8,4 L8,6 L6,6 L5,10 L3,5 L-1,3 L6,2 L0,1 Z " fill="#CFD6A8" transform="translate(570,312)"/>
<path d="M0,0 L3,0 L2,7 L-3,10 L-4,5 L-1,4 Z " fill="#EFF5CA" transform="translate(529,296)"/>
<path d="M0,0 L2,0 L2,2 L4,2 L4,6 L6,6 L6,4 L8,5 L7,7 L-3,7 L-2,5 L0,5 L0,3 L-2,2 L0,2 Z " fill="#1A1B17" transform="translate(522,282)"/>
<path d="M0,0 L2,0 L2,4 L0,4 L0,6 L5,5 L3,8 L-3,8 L-3,6 L-6,6 L-6,4 L0,2 Z M-1,6 Z " fill="#F9FAF4" transform="translate(457,201)"/>
<path d="M0,0 L1,0 L1,11 L4,12 L6,17 L6,22 L4,22 L2,17 L2,12 L0,12 Z " fill="#202706" transform="translate(288,744)"/>
<path d="M0,0 L1,3 L3,3 L3,1 L7,2 L11,7 L8,7 L7,9 L4,6 L4,4 L0,4 Z " fill="#C7CF9A" transform="translate(448,588)"/>
<path d="M0,0 L1,2 L4,2 L5,0 L5,2 L9,2 L9,4 L5,4 L5,6 L3,6 L3,18 L2,18 L1,4 L4,5 L4,3 L0,3 Z " fill="#C7CF9C" transform="translate(353,526)"/>
<path d="M0,0 L2,0 L2,2 L4,2 L7,6 L6,8 L1,7 L-1,4 Z " fill="#F2F5DA" transform="translate(256,487)"/>
<path d="M0,0 L1,0 L1,16 L3,16 L3,18 L1,18 L1,30 L0,30 L-1,16 Z " fill="#1F2406" transform="translate(809,448)"/>
<path d="M0,0 L1,4 L1,6 L3,6 L2,1 L6,3 L4,3 L4,7 L0,7 L0,9 L-2,9 L-3,13 L-4,7 L-1,8 L-1,6 L-3,6 L-3,4 L-1,4 Z " fill="#D4DBAC" transform="translate(380,345)"/>
<path d="M0,0 L4,0 L4,4 L8,6 L8,8 L10,8 L9,12 L8,10 L6,11 L6,8 L4,7 L5,5 L3,5 L2,7 L0,3 L3,3 L3,1 Z " fill="#C6CD9D" transform="translate(620,328)"/>
<path d="M0,0 L5,0 L6,3 L3,6 L-1,5 L-4,6 L-3,2 Z " fill="#F2F8D2" transform="translate(462,239)"/>
<path d="M0,0 L2,3 L0,3 L0,5 L-2,5 L-2,7 L-8,8 L-8,6 L-6,6 L-4,1 Z " fill="#1A1C05" transform="translate(768,580)"/>
<path d="M0,0 L4,1 L4,5 L8,7 L6,9 L2,8 L0,6 Z " fill="#F3F6DF" transform="translate(249,478)"/>
<path d="M0,0 L2,0 L2,5 L-1,5 L0,7 L0,20 L-1,20 L-1,12 L-3,12 L-2,4 L0,4 Z " fill="#131410" transform="translate(472,242)"/>
<path d="M0,0 L1,0 L2,20 L1,18 L-1,18 L-2,20 L-2,14 L0,14 Z " fill="#21231A" transform="translate(428,640)"/>
<path d="M0,0 L1,3 L5,3 L6,0 L7,6 L5,6 L5,4 L1,4 L1,6 L-1,6 L-1,4 L-6,3 L-7,1 L-2,1 L-1,1 Z " fill="#CCD4A5" transform="translate(331,568)"/>
<path d="M0,0 L5,1 L3,2 L3,5 L16,5 L16,6 L2,6 L0,2 L-4,1 Z " fill="#C6CDA1" transform="translate(300,556)"/>
<path d="M0,0 L1,0 L1,12 L-3,12 L-3,8 L-5,8 L-5,6 L0,6 Z " fill="#070801" transform="translate(805,504)"/>
<path d="M0,0 L2,0 L0,4 L-3,7 L-11,7 L-11,5 L-5,3 L-5,5 L-3,5 L-3,3 L-1,3 Z " fill="#F7FCD3" transform="translate(326,356)"/>
<path d="M0,0 L3,1 L3,4 L-2,4 L-2,7 L-6,7 L-7,9 L-8,5 L-3,6 L-3,4 L-5,3 L-4,1 Z " fill="#E2EAB7" transform="translate(402,331)"/>
<path d="M0,0 L2,0 L4,3 L8,5 L2,7 L0,6 L0,3 L-10,3 L-10,2 L0,2 Z " fill="#CFD5B1" transform="translate(420,286)"/>
<path d="M0,0 L5,1 L6,10 L4,10 L4,6 L2,6 L2,4 L0,4 Z " fill="#161712" transform="translate(412,706)"/>
<path d="M0,0 L1,3 L9,2 L11,5 L9,5 L10,8 L8,8 L8,6 L4,6 L4,4 L0,4 Z " fill="#D5DBAE" transform="translate(482,670)"/>
<path d="M0,0 L4,2 L7,4 L5,10 L3,10 L3,6 L1,6 Z " fill="#232A07" transform="translate(303,664)"/>
<path d="M0,0 L8,0 L8,3 L0,4 L0,2 L-8,2 L-8,1 Z " fill="#E0E8B1" transform="translate(392,599)"/>
<path d="M0,0 L6,1 L8,3 L8,7 L4,7 L2,2 L0,2 Z " fill="#12130D" transform="translate(616,457)"/>
<path d="M0,0 L2,0 L3,8 L1,10 L-4,10 L-5,13 L-5,9 L-3,9 L-3,7 L0,7 Z " fill="#E5ECB4" transform="translate(427,369)"/>
<path d="M0,0 L3,0 L3,2 L6,2 L6,7 L2,8 L-1,5 Z " fill="#F2F8CB" transform="translate(665,361)"/>
<path d="M0,0 L6,0 L6,1 L1,1 L1,3 L3,4 L0,5 L0,3 L-3,3 L-3,7 L-10,9 L-6,4 L-4,4 L-4,2 L0,2 Z " fill="#C8CCA7" transform="translate(374,302)"/>
<path d="M0,0 L4,0 L4,3 L6,4 L4,9 L2,8 L2,5 L0,5 Z " fill="#FAFBED" transform="translate(443,215)"/>
<path d="M0,0 L4,4 L4,6 L7,6 L7,8 L1,8 L1,6 L-2,6 L-1,1 Z " fill="#F4F7E3" transform="translate(431,795)"/>
<path d="M0,0 L5,0 L5,2 L2,2 L0,6 L-8,6 L-8,4 L-1,3 Z " fill="#353D0A" transform="translate(685,611)"/>
<path d="M0,0 L1,0 L1,16 L-2,15 L-1,20 L-3,20 L-3,14 L-1,14 L-2,6 L0,6 Z " fill="#161712" transform="translate(547,590)"/>
<path d="M0,0 L5,2 L3,9 L0,8 L0,5 L-2,5 L-1,1 Z " fill="#F2F7CC" transform="translate(283,510)"/>
<path d="M0,0 L2,0 L0,4 L-4,6 L-4,9 L-8,9 L-8,5 L-3,3 Z " fill="#171B05" transform="translate(278,316)"/>
<path d="M0,0 L1,0 L1,11 L3,12 L2,16 L0,16 L0,13 L-2,13 L-1,8 Z " fill="#DFE8B0" transform="translate(352,532)"/>
<path d="M0,0 L6,0 L6,2 L12,2 L12,3 L0,4 Z " fill="#181913" transform="translate(388,524)"/>
<path d="M0,0 L2,2 L2,10 L0,13 L-2,3 L0,2 Z " fill="#EBF3AF" transform="translate(653,398)"/>
<path d="M0,0 L4,2 L2,2 L2,6 L0,6 L0,8 L-2,8 L-3,12 L-4,6 L-2,6 L-1,2 L0,2 Z " fill="#1B1C17" transform="translate(294,370)"/>
<path d="M0,0 L9,0 L10,2 L4,4 L0,4 L0,2 L-2,1 Z " fill="#F0F4D2" transform="translate(470,237)"/>
<path d="M0,0 L2,0 L2,5 L5,5 L5,11 L2,11 L2,6 L0,6 Z " fill="#F6F8CB" transform="translate(389,750)"/>
<path d="M0,0 L2,0 L1,9 L0,9 L-1,17 L-2,17 L-2,5 L0,5 Z " fill="#323A09" transform="translate(661,635)"/>
<path d="M0,0 L4,0 L4,2 L8,3 L4,3 L4,5 L0,5 L-1,7 L-2,2 L0,2 Z " fill="#D5DF98" transform="translate(558,427)"/>
<path d="M0,0 L2,0 L0,4 L0,18 L-2,18 L-2,10 L-4,10 L-4,8 L-2,8 L-2,2 L0,2 Z " fill="#282A1E" transform="translate(658,390)"/>
<path d="M0,0 L2,1 L1,3 L-1,3 L-1,8 L-5,7 L-4,10 L-10,9 L-6,8 L-4,4 L0,2 Z " fill="#CED0AA" transform="translate(362,312)"/>
<path d="M0,0 L1,0 L2,11 L1,9 L-1,9 L-2,13 L-4,13 L-4,11 L-2,11 L-2,5 L0,5 Z " fill="#1D1D1A" transform="translate(510,227)"/>
<path d="M0,0 L6,0 L6,2 L10,3 L7,3 L8,7 L6,6 L6,4 L2,4 L2,2 L0,2 Z " fill="#232907" transform="translate(266,628)"/>
<path d="M0,0 L4,0 L4,2 L0,2 L0,8 L-3,8 L-3,1 Z " fill="#D6DFA4" transform="translate(678,462)"/>
<path d="M0,0 L3,0 L4,4 L-1,8 L-2,4 L-4,4 L-4,2 L-1,2 L-1,4 L2,4 L2,2 L0,2 Z " fill="#FBFDD2" transform="translate(349,323)"/>
<path d="M0,0 L4,1 L1,1 L1,3 L3,3 L3,5 L0,5 L0,3 L-3,3 L-3,5 L-1,5 L-2,8 L-4,7 L-4,5 L-8,4 L-4,4 L-4,2 L0,2 Z " fill="#D3D6AE" transform="translate(348,322)"/>
<path d="M0,0 L1,0 L1,8 L3,8 L4,17 L2,15 L2,11 L0,11 L-1,2 Z " fill="#F0F6C5" transform="translate(392,744)"/>
<path d="M0,0 L4,0 L4,2 L6,2 L6,6 L1,5 Z " fill="#141510" transform="translate(476,668)"/>
<path d="M0,0 L1,0 L1,6 L-3,6 L-3,8 L-5,8 L-5,10 L-7,10 L-8,12 L-9,9 L-7,7 L-4,7 L-5,3 L-3,2 L-3,5 L0,5 Z " fill="#CCD4A1" transform="translate(425,654)"/>
<path d="M0,0 L4,0 L4,2 L6,2 L6,6 L1,5 Z " fill="#151512" transform="translate(258,496)"/>
<path d="M0,0 L2,0 L1,7 L-1,7 L-2,9 L-3,3 L0,2 Z " fill="#DFEAA2" transform="translate(511,489)"/>
<path d="M0,0 L2,1 L3,7 L1,9 L0,15 L-1,15 L-1,1 Z " fill="#F5FBD5" transform="translate(268,450)"/>
<path d="M0,0 L2,0 L0,4 L-6,10 L-8,10 L-6,6 Z " fill="#1C2005" transform="translate(366,238)"/>
<path d="M0,0 L6,1 L2,2 L2,4 L0,4 L0,2 L-2,2 L-3,6 L-3,4 L-6,4 L-6,1 Z " fill="#B6BA9C" transform="translate(474,240)"/>
<path d="M0,0 L4,1 L1,1 L1,5 L-1,5 L-1,7 L-7,8 L-6,6 L-4,6 L-2,2 L0,2 Z " fill="#CFD2B1" transform="translate(478,714)"/>
<path d="M0,0 L2,0 L2,20 L1,20 L1,4 L-1,4 Z " fill="#050504" transform="translate(552,668)"/>
<path d="M0,0 L2,0 L2,2 L7,3 L7,4 L1,4 L1,6 L-9,6 L-9,5 L0,5 L0,3 L-3,2 Z " fill="#212702" transform="translate(701,620)"/>
<path d="M0,0 L1,0 L1,19 L-3,19 L-3,17 L-1,17 Z " fill="#060605" transform="translate(543,562)"/>
<path d="M0,0 L3,1 L3,5 L0,5 L-1,7 L-4,3 L-2,3 L-2,1 Z " fill="#E8F1BD" transform="translate(297,550)"/>
<path d="M0,0 L2,0 L2,10 L1,6 L-1,6 L-2,10 L-2,2 L0,2 Z " fill="#191A12" transform="translate(548,464)"/>
<path d="M0,0 L4,0 L4,6 L2,6 L2,8 L-1,9 Z " fill="#F0F7B6" transform="translate(651,392)"/>
<path d="M0,0 L7,6 L8,8 L2,8 L1,6 L2,4 L0,4 Z " fill="#EEF4C9" transform="translate(659,353)"/>
<path d="M0,0 L3,3 L2,6 L-5,7 L-3,6 L-3,3 L-1,3 Z " fill="#FBFECD" transform="translate(377,337)"/>
<path d="M0,0 L6,1 L6,3 L1,3 L1,5 L-3,5 L-2,1 Z " fill="#F0F8AF" transform="translate(533,476)"/>
<path d="M0,0 L4,0 L4,2 L6,2 L6,0 L8,1 L7,3 L1,4 L-6,3 L-6,2 L0,2 Z " fill="#27291E" transform="translate(670,470)"/>
<path d="M0,0 L1,0 L2,12 L1,10 L-1,10 L-2,12 L-2,6 L0,6 Z " fill="#1C1E14" transform="translate(572,406)"/>
<path d="M0,0 L1,2 L3,2 L4,0 L3,12 L2,12 L2,6 L0,6 Z " fill="#1B1D16" transform="translate(672,362)"/>
<path d="M0,0 L2,1 L3,10 L1,10 L1,6 L-1,6 L-2,1 Z " fill="#131310" transform="translate(553,246)"/>
<path d="M0,0 L1,0 L1,8 L-4,7 L-4,2 L-2,1 L-1,3 Z " fill="#262D06" transform="translate(293,748)"/>
<path d="M0,0 L2,0 L2,10 L0,10 L-1,2 Z " fill="#282E08" transform="translate(310,672)"/>
<path d="M0,0 L1,0 L1,7 L8,6 L12,8 L8,8 L8,10 L6,10 L6,8 L0,8 Z " fill="#B6BD91" transform="translate(404,660)"/>
<path d="M0,0 L2,0 L1,5 L2,6 L2,11 L0,11 L-2,4 Z " fill="#343C09" transform="translate(657,653)"/>
<path d="M0,0 L9,0 L11,1 L11,3 L0,3 Z " fill="#2A3103" transform="translate(674,624)"/>
<path d="M0,0 L4,0 L4,3 L6,3 L6,1 L9,1 L9,6 L7,6 L7,4 L3,4 L3,1 L1,1 L1,6 L0,6 Z " fill="#B8C090" transform="translate(511,564)"/>
<path d="M0,0 L8,0 L10,4 L6,4 L6,2 L2,3 L0,4 Z " fill="#EDF5BA" transform="translate(525,557)"/>
<path d="M0,0 L3,1 L3,5 L-3,6 L-3,1 Z " fill="#040503" transform="translate(679,454)"/>
<path d="M0,0 L5,0 L3,1 L3,5 L-3,5 Z " fill="#DBE49E" transform="translate(551,435)"/>
<path d="M0,0 L2,2 L2,12 L0,12 L0,6 L-2,6 L-2,2 L0,2 Z " fill="#222419" transform="translate(666,430)"/>
<path d="M0,0 L4,0 L4,8 L3,4 L1,4 L0,8 Z " fill="#171715" transform="translate(538,756)"/>
<path d="M0,0 L2,0 L2,5 L0,6 L-2,5 L-2,8 L-4,8 L-4,3 L-1,3 Z " fill="#F6FAD8" transform="translate(495,696)"/>
<path d="M0,0 L1,0 L1,11 L3,11 L3,13 L1,13 L0,17 L-1,11 Z " fill="#2A2C21" transform="translate(459,619)"/>
<path d="M0,0 L3,0 L3,3 L1,4 L-7,4 L-7,2 L0,2 Z " fill="#363F0B" transform="translate(698,607)"/>
<path d="M0,0 L5,0 L7,2 L7,5 L2,5 L2,1 Z " fill="#DCE3AC" transform="translate(456,597)"/>
<path d="M0,0 L4,1 L3,5 L1,5 L0,9 L-2,3 Z " fill="#DBE3B0" transform="translate(339,563)"/>
<path d="M0,0 L6,1 L6,3 L1,3 L0,5 L0,3 L-7,3 L-7,2 Z " fill="#EBF5B4" transform="translate(663,468)"/>
<path d="M0,0 L2,0 L1,10 L-2,10 L-2,5 L0,5 Z " fill="#33390A" transform="translate(795,413)"/>
<path d="M0,0 L2,0 L2,8 L-2,9 L-2,4 L0,3 Z " fill="#F8FBD2" transform="translate(291,383)"/>
<path d="M0,0 L2,0 L1,8 L-2,7 L-2,3 L-4,2 L0,2 Z " fill="#B1B690" transform="translate(638,340)"/>
<path d="M0,0 L1,4 L2,8 L-4,9 L-4,7 L-2,7 L-1,2 L-3,1 Z " fill="#0C0D0A" transform="translate(581,312)"/>
<path d="M0,0 L4,1 L1,1 L1,3 L-1,3 L1,6 L4,8 L0,9 L-3,7 L-2,2 L0,2 Z " fill="#DAE1B6" transform="translate(524,300)"/>
<path d="M0,0 L1,4 L7,6 L7,4 L9,4 L10,7 L7,8 L-1,5 Z " fill="#292A24" transform="translate(413,792)"/>
<path d="M0,0 L4,0 L5,3 L1,4 L-3,3 L-3,5 L-6,4 L-4,4 L-4,2 L0,2 Z " fill="#232519" transform="translate(580,400)"/>
<path d="M0,0 L1,3 L3,3 L3,5 L-3,6 L-5,5 Z " fill="#CDD1AB" transform="translate(338,328)"/>
<path d="M0,0 L1,3 L0,12 L-2,12 L-3,2 L0,2 Z " fill="#EBF0CF" transform="translate(523,266)"/>
<path d="M0,0 L2,0 L1,3 L-3,7 L-6,7 L-5,4 L-3,5 L-3,1 Z " fill="#FBFDEE" transform="translate(514,773)"/>
<path d="M0,0 L2,3 L-4,8 L-4,3 L0,2 Z " fill="#FDFDDC" transform="translate(484,730)"/>
<path d="M0,0 L2,0 L3,3 L6,4 L6,6 L2,7 L0,6 Z " fill="#F5F9D1" transform="translate(425,725)"/>
<path d="M0,0 L2,4 L-2,6 L-6,10 L-6,6 L-4,6 L-2,2 L0,2 Z " fill="#26271E" transform="translate(346,562)"/>
<path d="M0,0 L1,0 L1,5 L3,5 L3,0 L5,4 L5,9 L0,6 Z " fill="#DAE1B2" transform="translate(284,540)"/>
<path d="M0,0 L2,0 L3,7 L1,11 L1,4 L-2,3 L0,3 Z " fill="#F3F6E0" transform="translate(249,447)"/>
<path d="M0,0 L2,2 L1,10 L0,6 L-2,6 L-2,2 L0,2 Z " fill="#CBD492" transform="translate(590,414)"/>
<path d="M0,0 L1,0 L1,10 L3,10 L3,12 L1,12 L0,16 L-1,10 Z " fill="#2A2D1E" transform="translate(587,404)"/>
<path d="M0,0 L1,0 L1,14 L-1,14 L-2,4 L0,4 Z " fill="#13140E" transform="translate(659,400)"/>
<path d="M0,0 L4,1 L3,5 L2,11 L1,11 Z " fill="#050503" transform="translate(583,403)"/>
<path d="M0,0 L5,0 L3,4 L-1,6 L-1,1 Z " fill="#F6FECF" transform="translate(329,384)"/>
<path d="M0,0 L4,1 L2,2 L3,5 L-2,6 L-2,2 L0,2 Z " fill="#151611" transform="translate(396,338)"/>
<path d="M0,0 L13,0 L9,2 L3,3 Z " fill="#EFF5C7" transform="translate(381,304)"/>
<path d="M0,0 L4,0 L4,4 L2,4 L2,6 L-6,6 L-6,5 L1,5 Z " fill="#2D2E26" transform="translate(434,286)"/>
<path d="M0,0 L4,0 L4,2 L2,2 L2,6 L4,6 L4,8 L2,8 L1,10 L0,6 Z " fill="#21221C" transform="translate(430,264)"/>
<path d="M0,0 L4,2 L2,2 L2,6 L0,6 L0,8 L-4,6 L-1,3 L-1,5 L1,5 Z " fill="#D8DACA" transform="translate(532,764)"/>
<path d="M0,0 L4,0 L6,4 L4,6 L0,4 Z " fill="#10110D" transform="translate(400,528)"/>
<path d="M0,0 L3,0 L3,2 L6,3 L5,6 L2,6 Z " fill="#F3F7D9" transform="translate(263,495)"/>
<path d="M0,0 L5,0 L2,1 L2,3 L6,4 L2,4 L2,6 L-2,5 L1,5 L1,3 L-1,3 Z " fill="#CFDA96" transform="translate(528,478)"/>
<path d="M0,0 L7,0 L9,2 L1,3 Z " fill="#030302" transform="translate(664,473)"/>
<path d="M0,0 L2,0 L3,7 L1,8 L1,4 L-3,2 Z " fill="#CBD492" transform="translate(607,436)"/>
<path d="M0,0 L4,0 L4,2 L1,3 L2,6 L-2,6 L-2,1 Z " fill="#ECF6AB" transform="translate(570,395)"/>
<path d="M0,0 L4,2 L2,2 L2,6 L0,6 L0,8 L-4,6 L-1,3 L-1,5 L1,5 Z " fill="#D3DAA9" transform="translate(664,376)"/>
<path d="M0,0 L2,1 L1,3 L3,3 L3,5 L0,5 L-1,9 L-1,5 L-3,4 L-2,2 L0,2 Z " fill="#E5E5DE" transform="translate(472,180)"/>
<path d="M0,0 L4,0 L4,2 L10,2 L10,3 L0,4 Z " fill="#20211E" transform="translate(428,802)"/>
<path d="M0,0 L5,1 L4,5 L4,2 L2,2 L1,6 L-2,4 L-2,2 L0,2 Z " fill="#D8E0B5" transform="translate(423,723)"/>
<path d="M0,0 L4,0 L4,4 L-2,5 L0,4 Z " fill="#11110E" transform="translate(398,700)"/>
<path d="M0,0 L4,0 L5,6 L0,4 Z " fill="#10100D" transform="translate(486,676)"/>
<path d="M0,0 L2,0 L2,5 L5,5 L5,7 L0,7 Z " fill="#F8FDC7" transform="translate(405,660)"/>
<path d="M0,0 L4,4 L4,6 L2,6 L2,4 L0,4 L1,7 L-1,7 L-2,2 L0,2 Z " fill="#D9E49E" transform="translate(619,449)"/>
<path d="M0,0 L4,1 L1,1 L1,5 L-3,5 L-4,8 L-3,3 L0,2 Z " fill="#CACDBA" transform="translate(252,442)"/>
<path d="M0,0 L3,0 L2,6 L0,8 L0,4 L-2,3 L0,3 Z " fill="#EEF4CA" transform="translate(293,379)"/>
<path d="M0,0 L6,1 L5,5 L2,5 L2,2 L0,2 Z M6,0 Z " fill="#F2F8CD" transform="translate(397,297)"/>
<path d="M0,0 L1,2 L3,2 L4,6 L6,8 L2,8 L2,6 L0,6 Z " fill="#23241E" transform="translate(470,272)"/>
<path d="M0,0 L5,1 L5,5 L7,5 L6,7 L3,5 L4,2 L2,2 L1,6 Z " fill="#DCDFBF" transform="translate(545,245)"/>
<path d="M0,0 L6,0 L8,2 L3,4 L0,3 Z " fill="#EDF1D2" transform="translate(529,239)"/>
<path d="M0,0 L4,1 L1,1 L1,5 L-3,5 L-4,8 L-3,3 L0,2 Z " fill="#CDCDC7" transform="translate(450,204)"/>
<path d="M0,0 L5,2 L5,5 L1,5 Z " fill="#F2F5DC" transform="translate(423,794)"/>
<path d="M0,0 L1,0 L1,7 L3,8 L-1,9 L-1,2 Z " fill="#EFF1DD" transform="translate(534,756)"/>
<path d="M0,0 L8,0 L5,4 L1,3 Z " fill="#F0F7CE" transform="translate(435,735)"/>
<path d="M0,0 L5,1 L4,5 L4,2 L2,2 L1,5 L-3,3 L0,2 Z " fill="#252B07" transform="translate(723,611)"/>
<path d="M0,0 L6,0 L7,5 L5,5 L5,2 L0,2 Z " fill="#323A0A" transform="translate(704,607)"/>
<path d="M0,0 L4,1 L4,4 L2,4 L1,8 Z " fill="#DFE6AD" transform="translate(435,576)"/>
<path d="M0,0 L1,3 L3,3 L4,0 L5,2 L7,3 L5,3 L6,7 L4,6 L4,4 L0,4 Z " fill="#C7D091" transform="translate(624,460)"/>
<path d="M0,0 L2,0 L3,4 L2,6 L-2,6 Z " fill="#F6FAD5" transform="translate(285,395)"/>
<path d="M0,0 L3,1 L2,4 L0,4 L0,2 L-9,3 L-9,1 Z " fill="#EAF4B9" transform="translate(617,327)"/>
<path d="M0,0 L5,0 L4,3 L6,3 L6,5 L4,5 L3,9 L2,3 L3,1 Z " fill="#1F211B" transform="translate(430,277)"/>
<path d="M0,0 L6,1 L2,2 L2,4 L-4,5 Z " fill="#181817" transform="translate(448,202)"/>
<path d="M0,0 L1,3 L3,3 L4,1 L7,5 L5,5 L4,7 L0,4 Z " fill="#DCE2BC" transform="translate(398,772)"/>
<path d="M0,0 L5,0 L4,4 L0,5 Z " fill="#FFFFE5" transform="translate(460,760)"/>
<path d="M0,0 L1,3 L0,5 L-2,5 L-3,9 L-4,3 Z " fill="#181914" transform="translate(392,715)"/>
<path d="M0,0 L4,1 L4,5 L2,5 L1,7 Z " fill="#040403" transform="translate(279,539)"/>
<path d="M0,0 L6,1 L5,5 L2,4 L2,2 L0,2 Z " fill="#0A0A09" transform="translate(252,493)"/>
<path d="M0,0 L9,0 L9,2 L4,4 L3,2 Z " fill="#E8F0BF" transform="translate(640,347)"/>
<path d="M0,0 L4,0 L5,5 L3,5 L2,7 L0,3 L3,3 L3,1 Z " fill="#D4DDA7" transform="translate(620,328)"/>
<path d="M0,0 L6,1 L3,3 L3,7 L1,7 Z " fill="#DFE3C3" transform="translate(525,281)"/>
<path d="M0,0 L2,0 L2,8 L0,8 L0,5 L-2,4 L0,4 Z " fill="#F5FAD2" transform="translate(437,274)"/>
<path d="M0,0 L2,0 L2,4 L4,4 L3,8 L3,5 L0,5 L0,3 L-2,2 L0,2 Z " fill="#272822" transform="translate(408,784)"/>
<path d="M0,0 L2,0 L2,2 L6,3 L-1,6 Z " fill="#EDF3D0" transform="translate(493,701)"/>
<path d="M0,0 L2,0 L2,6 L-2,6 L-1,3 Z " fill="#252B02" transform="translate(662,660)"/>
<path d="M0,0 L3,4 L1,13 L0,13 Z " fill="#E4EEB2" transform="translate(461,637)"/>
<path d="M0,0 L4,1 L7,3 L7,5 L2,4 L2,2 L0,2 Z " fill="#2A3208" transform="translate(277,635)"/>
<path d="M0,0 L4,1 L6,4 L3,4 L2,6 Z " fill="#DAE3A9" transform="translate(453,591)"/>
<path d="M0,0 L2,0 L2,2 L4,3 L2,3 L2,5 L-1,5 L-2,8 L-2,4 L0,4 Z " fill="#26281E" transform="translate(350,546)"/>
<path d="M0,0 L3,0 L4,2 L8,4 L4,4 L3,6 L3,3 L0,3 Z " fill="#9AA36E" transform="translate(572,398)"/>
<path d="M0,0 L2,0 L2,4 L0,4 L0,6 L-2,6 L-1,1 Z " fill="#222706" transform="translate(282,310)"/>
<path d="M0,0 L3,0 L4,4 L0,4 L0,2 L-4,1 Z " fill="#D2D8B5" transform="translate(500,290)"/>
<path d="M0,0 L2,0 L3,4 L1,4 L1,6 L-2,6 L-2,3 L0,3 Z " fill="#F4F6DB" transform="translate(523,243)"/>
<path d="M0,0 L3,1 L3,3 L5,4 L1,5 Z " fill="#F2F4E3" transform="translate(506,790)"/>
<path d="M0,0 L2,0 L2,3 L0,3 L-1,5 L-4,4 L-4,2 Z " fill="#F6F9D8" transform="translate(483,713)"/>
<path d="M0,0 L4,0 L3,5 L0,4 Z " fill="#131410" transform="translate(326,572)"/>
<path d="M0,0 L4,0 L4,4 L0,4 Z " fill="#EAF5B3" transform="translate(444,572)"/>
<path d="M0,0 L4,0 L4,6 L2,6 L2,2 L0,2 Z " fill="#242908" transform="translate(800,510)"/>
<path d="M0,0 L2,0 L2,3 L5,3 L5,5 L0,5 Z " fill="#F9FDD8" transform="translate(273,504)"/>
<path d="M0,0 L2,0 L0,4 L-4,6 L-2,2 Z " fill="#1C2105" transform="translate(278,316)"/>
<path d="M0,0 L6,0 L6,1 L1,1 L1,5 L-3,3 L0,2 Z " fill="#C8CDAA" transform="translate(404,290)"/>
<path d="M0,0 L3,0 L3,2 L1,2 L1,4 L-3,4 L-2,1 Z " fill="#232907" transform="translate(355,248)"/>
<path d="M0,0 L2,0 L0,4 L-4,6 L-2,2 L0,2 Z " fill="#2A2A27" transform="translate(532,770)"/>
<path d="M0,0 L5,1 L5,4 L1,3 Z " fill="#040403" transform="translate(392,771)"/>
<path d="M0,0 L2,1 L1,6 L-1,7 Z " fill="#282F05" transform="translate(657,673)"/>
<path d="M0,0 L1,0 L1,8 L-2,7 L-2,4 L0,4 Z " fill="#040403" transform="translate(551,620)"/>
<path d="M0,0 L6,0 L6,2 L3,2 L3,4 L1,4 Z " fill="#F9FDC6" transform="translate(514,563)"/>
<path d="M0,0 L2,0 L2,3 L4,4 L2,4 L1,7 L0,6 Z " fill="#ECF3B9" transform="translate(505,545)"/>
<path d="M0,0 L3,1 L1,7 L-1,4 Z M-2,4 Z " fill="#F4FBD5" transform="translate(266,470)"/>
<path d="M0,0 L4,1 L6,3 L1,4 Z " fill="#EDF7AE" transform="translate(629,463)"/>
<path d="M0,0 L3,3 L2,7 L-2,6 L0,6 Z " fill="#060605" transform="translate(284,386)"/>
<path d="M0,0 L1,2 L0,4 L-5,5 L-5,3 L-3,3 L-3,1 Z " fill="#F4F4EB" transform="translate(454,206)"/>
<path d="M0,0 L4,0 L3,4 L0,4 Z " fill="#151513" transform="translate(438,806)"/>
<path d="M0,0 L5,0 L3,4 L2,2 L-1,1 Z " fill="#EFF1E2" transform="translate(525,771)"/>
<path d="M0,0 L4,0 L3,4 L0,4 Z " fill="#141510" transform="translate(438,586)"/>
<path d="M0,0 L2,0 L0,4 L-4,5 Z " fill="#1B1E05" transform="translate(778,568)"/>
<path d="M0,0 L2,0 L2,3 L6,4 L0,5 Z " fill="#25261D" transform="translate(512,565)"/>
<path d="M0,0 L1,0 L1,7 L-2,5 L-2,2 L0,2 Z " fill="#040403" transform="translate(509,538)"/>
<path d="M0,0 L3,1 L3,4 L-1,3 L-2,1 Z " fill="#E6F0A6" transform="translate(623,456)"/>
<path d="M0,0 L4,0 L4,4 L1,4 Z " fill="#EBF5A7" transform="translate(585,399)"/>
<path d="M0,0 L2,0 L2,3 L-4,4 L-4,2 Z " fill="#F6FBD2" transform="translate(309,365)"/>
<path d="M0,0 L1,2 L4,2 L4,4 L-2,4 L-2,2 L0,2 Z " fill="#040403" transform="translate(495,291)"/>
<path d="M0,0 L1,2 L5,3 L-3,4 L-3,2 L0,2 Z " fill="#0E1002" transform="translate(347,252)"/>
<path d="M0,0 L2,0 L2,3 L4,3 L4,5 L0,4 Z " fill="#F5F7DD" transform="translate(415,792)"/>
<path d="M0,0 L1,4 L-2,7 L-4,7 L-3,4 L-1,3 Z " fill="#F5F8E7" transform="translate(444,784)"/>
<path d="M0,0 L3,4 L-2,6 Z " fill="#F6F7D2" transform="translate(479,721)"/>
<path d="M0,0 L4,1 L4,3 L-1,4 Z " fill="#242B08" transform="translate(306,685)"/>
<path d="M0,0 L1,4 L3,4 L3,6 L-1,6 Z " fill="#23241D" transform="translate(279,512)"/>
<path d="M0,0 L1,2 L3,2 L2,5 L0,4 L0,2 L-4,1 Z " fill="#DDE1B6" transform="translate(344,325)"/>
<path d="M0,0 L4,0 L3,4 L0,3 Z " fill="#EEF4CA" transform="translate(492,299)"/>
<path d="M0,0 L4,0 L3,4 L0,3 Z " fill="#EFF4CB" transform="translate(480,295)"/>
<path d="M0,0 L1,0 L1,5 L-3,5 L-3,2 L0,2 Z " fill="#E8EFC4" transform="translate(427,291)"/>
<path d="M0,0 L1,0 L1,5 L-2,6 L-1,1 Z " fill="#EFF5CC" transform="translate(466,283)"/>
<path d="M0,0 L4,0 L5,3 L0,3 Z " fill="#F3FAD0" transform="translate(472,281)"/>
<path d="M0,0 L2,0 L2,4 L-2,4 L-2,2 L0,2 Z " fill="#F5F8D8" transform="translate(487,709)"/>
<path d="M0,0 L6,1 L2,2 L2,4 L0,4 Z " fill="#C8D09F" transform="translate(410,666)"/>
<path d="M0,0 L2,2 L2,5 L-2,5 L-2,3 L0,3 Z " fill="#0D0E0B" transform="translate(542,576)"/>
<path d="M0,0 L6,0 L1,4 Z " fill="#E3ECB2" transform="translate(525,557)"/>
<path d="M0,0 L4,1 L3,3 L1,3 L0,5 Z " fill="#D4DE99" transform="translate(513,489)"/>
<path d="M0,0 L4,0 L3,2 L2,4 L-1,3 Z " fill="#EDF8AE" transform="translate(539,471)"/>
<path d="M0,0 L3,0 L3,4 L0,4 Z " fill="#2E340A" transform="translate(795,448)"/>
<path d="M0,0 L3,1 L3,3 L-3,4 Z " fill="#C5C8A5" transform="translate(332,334)"/>
<path d="M0,0 L4,2 L2,2 L2,4 L0,4 L0,2 L-2,1 Z " fill="#F2F7CB" transform="translate(335,333)"/>
<path d="M0,0 L4,0 L4,2 L2,2 L2,4 L0,4 Z " fill="#F5F7CB" transform="translate(361,315)"/>
<path d="M0,0 L1,4 L-1,5 L-3,3 Z " fill="#E9F1C2" transform="translate(549,304)"/>
<path d="M0,0 L4,1 L4,4 L2,4 L2,2 L0,2 Z " fill="#F2F7CC" transform="translate(419,721)"/>
<path d="M0,0 L3,1 L4,4 L1,4 Z " fill="#EAF3BF" transform="translate(401,707)"/>
<path d="M0,0 L3,0 L3,2 L1,2 L1,4 L-1,4 Z " fill="#2D3509" transform="translate(668,625)"/>
<path d="M0,0 L3,0 L3,3 L1,3 L0,5 Z " fill="#030302" transform="translate(456,603)"/>
<path d="M0,0 L3,1 L2,5 L0,5 Z " fill="#454935" transform="translate(676,455)"/>
<path d="M0,0 L3,0 L3,2 L1,2 L1,4 L-1,4 Z " fill="#040403" transform="translate(558,435)"/>
<path d="M0,0 L2,0 L3,4 L1,6 Z " fill="#F7FBD3" transform="translate(327,343)"/>
<path d="M0,0 L1,2 L3,2 L3,4 L-1,4 Z " fill="#F0F2C7" transform="translate(340,327)"/>
<path d="M0,0 L2,0 L3,4 L1,5 Z " fill="#F6F9DC" transform="translate(489,705)"/>
<path d="M0,0 L4,2 L4,4 L0,2 Z " fill="#1C2005" transform="translate(252,620)"/>
<path d="M0,0 L4,0 L3,4 Z " fill="#E8EFBD" transform="translate(289,549)"/>
<path d="M0,0 L2,1 L1,5 L-1,5 Z " fill="#F1F7B1" transform="translate(626,458)"/>
<path d="M0,0 L3,0 L4,3 L0,3 Z " fill="#5E6348" transform="translate(672,448)"/>
<path d="M0,0 L2,0 L3,4 L0,4 Z " fill="#373D0B" transform="translate(793,419)"/>
<path d="M0,0 L4,4 L0,4 Z " fill="#EAEFC6" transform="translate(659,353)"/>
<path d="M0,0 L2,2 L2,5 L0,5 L-1,1 Z " fill="#F4F8CB" transform="translate(381,346)"/>
<path d="M0,0 L4,4 L0,4 Z " fill="#EFEFE7" transform="translate(499,175)"/>
</svg>
