<?xml version="1.0" encoding="UTF-8"?>
<!-- Generator: visioncortex VTracer 0.6.4 -->
<svg version="1.1" xmlns="http://www.w3.org/2000/svg" width="1024" height="1024">
<path d="M0,0 L1024,0 L1024,1024 L0,1024 Z " fill="#000000" transform="translate(0,0)"/>
<path d="M0,0 L8,0 L8,2 L12,2 L12,4 L24,4 L24,6 L28,6 L28,8 L44,8 L44,10 L48,10 L48,12 L60,12 L60,14 L64,14 L64,16 L68,16 L68,18 L72,18 L72,20 L78,20 L78,24 L84,24 L90,31 L94,32 L101,40 L108,46 L108,50 L110,50 L114,55 L116,56 L116,66 L118,66 L118,68 L120,68 L120,88 L124,88 L124,104 L126,104 L126,112 L124,112 L124,114 L122,114 L122,116 L118,116 L118,118 L116,118 L116,124 L112,124 L112,128 L110,128 L110,130 L108,130 L108,134 L106,134 L106,136 L104,136 L104,140 L100,140 L100,152 L104,152 L104,204 L102,204 L102,220 L100,220 L100,246 L98,246 L98,248 L96,248 L96,250 L98,250 L98,254 L100,254 L100,280 L102,280 L102,300 L92,300 L92,332 L84,332 L84,348 L72,348 L72,352 L68,352 L68,376 L64,376 L64,380 L52,380 L52,394 L50,394 L50,396 L44,396 L44,400 L40,400 L40,408 L36,408 L36,412 L52,412 L52,418 L44,418 L44,420 L32,420 L32,422 L28,422 L28,424 L24,424 L24,426 L20,426 L20,428 L16,428 L16,430 L14,430 L14,432 L10,432 L10,434 L8,434 L8,436 L6,436 L6,438 L4,438 L4,440 L0,440 L0,442 L-2,442 L-2,444 L-6,444 L-6,446 L-8,446 L-8,448 L-12,448 L-12,450 L-18,450 L-18,452 L-22,452 L-22,454 L-28,454 L-28,460 L-38,460 L-38,462 L-40,462 L-40,464 L-44,464 L-44,466 L-46,466 L-46,468 L-50,468 L-50,470 L-52,470 L-52,472 L-56,472 L-56,474 L-58,474 L-58,476 L-64,476 L-64,478 L-66,478 L-66,480 L-70,480 L-70,482 L-76,482 L-76,486 L-78,486 L-78,488 L-84,488 L-84,490 L-90,490 L-90,492 L-118,492 L-118,488 L-122,488 L-122,486 L-126,486 L-126,484 L-128,484 L-128,480 L-132,480 L-132,476 L-134,476 L-134,472 L-138,470 L-140,466 L-144,466 L-144,460 L-148,460 L-150,455 L-152,454 L-152,450 L-156,450 L-156,448 L-160,448 L-160,444 L-164,444 L-166,439 L-168,438 L-168,434 L-172,434 L-172,432 L-176,432 L-178,427 L-180,426 L-180,422 L-182,422 L-182,420 L-187,419 L-188,416 L-192,416 L-192,412 L-198,412 L-200,408 L-220,408 L-220,412 L-226,412 L-226,416 L-232,416 L-232,418 L-236,418 L-236,422 L-242,422 L-242,424 L-246,424 L-246,426 L-248,426 L-248,428 L-256,428 L-256,430 L-268,430 L-268,428 L-276,428 L-278,423 L-280,422 L-282,417 L-284,416 L-284,404 L-286,404 L-286,396 L-288,396 L-288,372 L-286,372 L-286,370 L-284,370 L-284,366 L-282,366 L-282,356 L-280,356 L-280,352 L-278,352 L-278,348 L-283,347 L-284,344 L-288,344 L-288,340 L-292,338 L-296,334 L-296,332 L-302,332 L-302,324 L-300,324 L-300,320 L-298,320 L-298,318 L-296,318 L-296,312 L-294,312 L-294,308 L-292,308 L-292,304 L-288,304 L-288,296 L-276,296 L-276,328 L-256,328 L-256,316 L-252,316 L-252,312 L-240,312 L-240,296 L-236,296 L-236,284 L-232,284 L-232,272 L-228,272 L-228,264 L-220,264 L-220,232 L-216,232 L-216,188 L-212,188 L-212,184 L-208,184 L-208,140 L-216,140 L-216,104 L-192,104 L-192,108 L-188,108 L-188,116 L-184,116 L-184,120 L-132,120 L-132,116 L-128,116 L-128,104 L-112,104 L-112,96 L-80,96 L-80,92 L-76,92 L-76,84 L-72,84 L-72,72 L-52,72 L-52,84 L-48,84 L-48,86 L-44,86 L-44,96 L-12,96 L-12,100 L-4,100 L-4,96 L4,96 L4,92 L0,92 L0,88 L-4,88 L-4,86 L-6,86 L-6,80 L-12,80 L-12,72 L-6,72 L-6,70 L-4,70 L-2,66 L0,66 L0,64 L-4,64 L-4,60 L-18,60 L-18,56 L-28,56 L-28,52 L-32,52 L-32,40 L-24,40 L-24,12 L-22,12 L-22,10 L-20,10 L-20,8 L-16,8 L-16,6 L-10,6 L-10,4 L0,4 Z " fill="#4B3C3F" transform="translate(654,214)"/>
<path d="M0,0 L22,0 L22,8 L24,8 L24,56 L26,56 L26,62 L28,62 L28,64 L36,64 L36,88 L40,88 L40,60 L44,60 L44,52 L56,52 L56,60 L60,60 L60,72 L66,72 L66,80 L64,80 L64,92 L60,92 L60,120 L56,120 L56,128 L52,128 L52,132 L48,132 L48,140 L44,140 L44,144 L40,144 L40,152 L36,152 L36,156 L28,156 L28,172 L12,172 L12,156 L24,156 L24,140 L14,140 L14,142 L12,142 L12,146 L10,146 L10,148 L8,148 L8,152 L6,152 L6,156 L4,156 L4,160 L2,160 L2,162 L0,162 L0,166 L-2,166 L-2,172 L-6,172 L-6,178 L-8,178 L-8,182 L-10,182 L-10,184 L-12,184 L-12,188 L-16,188 L-16,192 L-18,192 L-18,194 L-20,194 L-20,198 L-22,198 L-22,200 L-24,200 L-24,204 L-28,204 L-28,206 L-36,206 L-36,204 L-44,204 L-44,208 L-32,208 L-32,214 L-34,214 L-34,216 L-36,216 L-36,220 L-40,220 L-40,224 L-42,224 L-42,226 L-48,226 L-48,212 L-64,212 L-64,204 L-56,204 L-56,200 L-52,200 L-52,190 L-50,190 L-50,188 L-44,188 L-44,182 L-42,182 L-42,180 L-32,180 L-32,166 L-30,166 L-30,164 L-26,164 L-26,162 L-24,162 L-24,158 L-22,158 L-22,154 L-20,154 L-20,148 L-16,146 L-16,136 L-14,136 L-14,132 L-12,132 L-12,126 L-10,126 L-10,120 L-8,120 L-8,108 L-10,108 L-10,100 L-8,100 L-8,96 L-6,96 L-6,72 L-4,72 L-4,40 L-2,40 L-2,24 L0,24 Z " fill="#47373A" transform="translate(862,502)"/>
<path d="M0,0 L20,0 L20,8 L28,8 L28,56 L12,56 L12,96 L16,96 L16,100 L28,100 L28,116 L36,116 L36,148 L44,148 L44,172 L60,172 L60,184 L40,184 L40,176 L24,176 L24,152 L20,152 L20,148 L16,148 L16,144 L12,144 L12,140 L8,140 L8,132 L4,132 L4,128 L0,128 L0,124 L-4,124 L-4,120 L-8,120 L-8,104 L-20,104 L-20,100 L-24,100 L-24,88 L-40,88 L-40,84 L-44,84 L-44,76 L-48,76 L-48,64 L-52,64 L-52,52 L-48,52 L-48,40 L-40,40 L-40,20 L-24,20 L-24,8 L-20,8 L-20,4 L-4,4 L-4,8 L0,8 Z " fill="#463535" transform="translate(102,554)"/>
<path d="M0,0 L22,0 L22,8 L24,8 L24,56 L26,56 L26,62 L28,62 L28,64 L36,64 L36,88 L40,88 L40,60 L44,60 L44,52 L56,52 L56,60 L60,60 L60,72 L66,72 L66,80 L64,80 L64,92 L60,92 L60,120 L56,120 L56,128 L52,128 L52,132 L48,132 L48,140 L44,140 L44,144 L40,144 L40,152 L36,152 L36,156 L28,156 L28,172 L12,172 L12,156 L24,156 L24,140 L14,140 L13,142 L12,138 L32,139 L32,137 L14,137 L14,114 L18,114 L18,74 L10,74 L10,63 L14,62 L14,55 L15,54 L20,54 L20,56 L23,56 L23,9 L21,9 L21,42 L14,42 L14,10 L10,10 L10,4 L4,4 L4,24 L3,24 L3,3 L19,3 L19,8 L21,8 L21,1 L1,1 L1,24 L0,24 Z " fill="#483638" transform="translate(862,502)"/>
<path d="M0,0 L12,0 L12,20 L24,20 L24,28 L28,28 L28,32 L44,32 L44,64 L60,64 L60,132 L56,132 L56,140 L52,140 L52,152 L48,152 L48,160 L44,160 L44,186 L38,186 L38,182 L36,182 L36,164 L32,164 L31,156 L28,154 L28,132 L26,132 L26,122 L28,122 L28,104 L30,104 L30,92 L32,92 L32,88 L34,88 L34,62 L32,62 L32,58 L30,58 L30,52 L28,52 L26,47 L24,46 L22,41 L20,40 L18,35 L12,30 L12,26 L10,26 L10,20 L6,20 L6,18 L4,18 L4,12 L2,12 L2,8 L0,8 Z " fill="#463637" transform="translate(150,510)"/>
<path d="M0,0 L4,0 L4,12 L10,12 L10,20 L8,20 L8,32 L4,32 L4,60 L0,60 L0,68 L-4,68 L-4,72 L-8,72 L-8,80 L-12,80 L-12,84 L-16,84 L-16,92 L-20,92 L-20,96 L-28,96 L-28,112 L-44,112 L-44,96 L-32,96 L-32,80 L-42,80 L-43,82 L-44,78 L-24,79 L-24,77 L-42,77 L-42,76 L-36,76 L-36,66 L-35,66 L-35,76 L-33,76 L-33,64 L-30,64 L-30,58 L-28,58 L-28,54 L-26,54 L-26,48 L-16,48 L-16,53 L-19,53 L-19,60 L-17,60 L-17,55 L-13,53 L-14,47 L-10,46 L-10,14 L-12,14 L-12,28 L-13,28 L-13,3 L-11,6 L0,6 L1,3 L1,12 L3,12 L3,1 Z " fill="#463436" transform="translate(918,562)"/>
<path d="M0,0 L22,0 L22,20 L20,20 L20,24 L16,24 L16,42 L14,42 L14,44 L12,44 L12,48 L10,48 L10,52 L8,52 L8,56 L6,56 L6,58 L4,58 L4,62 L2,62 L2,68 L-2,68 L-2,72 L-4,72 L-4,78 L-8,78 L-8,80 L-16,80 L-16,72 L-20,72 L-20,64 L-16,64 L-16,60 L-12,60 L-12,48 L-8,48 L-8,40 L-4,40 L-4,20 L0,20 Z " fill="#473437" transform="translate(938,574)"/>
<path d="M0,0 L12,0 L12,36 L8,36 L8,48 L4,48 L4,52 L0,52 L0,68 L-8,68 L-8,40 L-6,40 L-6,32 L-4,32 L-4,6 L-2,6 L-2,2 L0,2 Z " fill="#46393E" transform="translate(418,350)"/>
<path d="M0,0 L12,0 L12,14 L10,14 L10,16 L4,16 L4,26 L2,26 L2,28 L0,28 L0,32 L-4,32 L-4,36 L-8,36 L-8,44 L-12,44 L-12,48 L-24,48 L-24,32 L-20,32 L-20,28 L-16,28 L-16,24 L-12,24 L-12,12 L-4,12 L-4,8 L0,8 Z " fill="#433235" transform="translate(906,658)"/>
<path d="M0,0 L18,0 L20,3 L26,4 L26,18 L24,18 L24,20 L22,20 L22,22 L18,22 L18,24 L10,24 L10,22 L2,22 L2,20 L0,20 L-2,15 L-4,14 L-4,6 L-2,6 L-2,4 L0,4 Z " fill="#483D40" transform="translate(468,270)"/>
<path d="M0,0 L22,0 L22,8 L24,8 L24,56 L23,56 L23,9 L21,9 L21,42 L14,42 L14,10 L10,10 L10,4 L4,4 L4,24 L3,24 L3,3 L19,3 L19,8 L21,8 L21,1 L1,1 L1,24 L0,24 Z " fill="#433435" transform="translate(862,502)"/>
<path d="M0,0 L1,0 L3,20 L3,36 L5,36 L5,20 L6,20 L6,40 L2,40 L2,48 L-2,48 L-2,60 L-6,59 L-3,59 L-5,56 L-5,51 L-9,52 L-10,56 L-10,48 L-6,48 L-6,20 L-2,20 L-2,8 L0,8 Z " fill="#050304" transform="translate(928,574)"/>
<path d="M0,0 L1,0 L1,12 L5,12 L5,64 L3,64 L3,80 L1,80 L1,106 L0,106 L-1,80 L-1,64 L0,64 L0,79 L2,79 L1,64 L1,18 L-1,18 Z " fill="#453839" transform="translate(753,354)"/>
<path d="M0,0 L8,0 L8,4 L24,4 L24,12 L16,12 L16,16 L4,16 L4,8 L0,8 Z " fill="#3E3234" transform="translate(730,634)"/>
<path d="M0,0 L2,0 L2,31 L-12,31 L-12,17 L-1,16 Z " fill="#4C3A3D" transform="translate(887,642)"/>
<path d="M0,0 L10,0 L10,4 L6,4 L6,12 L2,12 L2,28 L-6,28 L-6,16 L-4,16 L-4,10 L-2,10 L-2,6 L0,6 Z " fill="#070505" transform="translate(892,610)"/>
<path d="M0,0 L22,0 L22,20 L20,20 L20,24 L16,24 L16,42 L15,42 L14,23 L14,4 L4,4 L4,20 L3,20 L3,3 L19,3 L19,19 L21,19 L21,1 L1,1 L1,20 L0,20 Z " fill="#403032" transform="translate(938,574)"/>
<path d="M0,0 L15,0 L15,6 L13,6 L13,8 L11,8 L11,12 L7,12 L7,16 L5,16 L5,18 L-1,18 L-1,4 L0,4 L0,17 L2,16 L2,3 L0,3 Z " fill="#433536" transform="translate(815,710)"/>
<path d="M0,0 L10,0 L10,4 L14,4 L14,18 L8,18 L8,16 L6,16 L4,11 L2,10 L2,6 L0,6 Z " fill="#413333" transform="translate(196,718)"/>
<path d="M0,0 L16,0 L16,8 L12,8 L12,12 L0,12 Z " fill="#3F3134" transform="translate(734,746)"/>
<path d="M0,0 L15,0 L15,10 L-3,10 L-3,2 Z " fill="#4C3A3B" transform="translate(146,727)"/>
<path d="M0,0 L10,0 L10,6 L8,6 L8,8 L6,8 L6,10 L4,10 L4,12 L-8,12 L-8,4 L0,4 Z " fill="#433737" transform="translate(722,618)"/>
<path d="M0,0 L15,0 L15,66 L13,66 L13,2 L0,2 Z " fill="#4B3C3D" transform="translate(194,575)"/>
<path d="M0,0 L12,0 L12,4 L18,4 L18,6 L20,6 L20,12 L12,12 L12,8 L0,8 Z " fill="#3B2F31" transform="translate(334,826)"/>
<path d="M0,0 L4,1 L1,1 L3,29 L-2,29 L-3,31 L4,31 L4,32 L-4,32 L-4,24 L-8,24 L-8,16 L-4,16 L-4,12 L0,12 Z " fill="#403033" transform="translate(926,622)"/>
<path d="M0,0 L1,0 L1,28 L3,28 L3,0 L4,0 L4,28 L16,28 L16,20 L17,20 L17,28 L19,28 L19,20 L20,20 L20,32 L0,32 Z " fill="#070606" transform="translate(378,510)"/>
<path d="M0,0 L14,0 L14,12 L6,12 L2,7 L0,6 Z " fill="#3F2F30" transform="translate(116,750)"/>
<path d="M0,0 L1,4 L3,4 L3,30 L1,30 L1,34 L-1,34 L-1,46 L-2,46 L-3,30 L-2,33 L0,33 L-1,30 L-1,3 Z " fill="#060505" transform="translate(181,568)"/>
<path d="M0,0 L12,0 L12,20 L11,20 L11,1 L1,1 L1,7 L3,7 L3,3 L9,3 L9,17 L7,17 L7,19 L10,20 L6,20 L6,18 L4,18 L4,12 L2,12 L2,8 L0,8 Z " fill="#403233" transform="translate(150,510)"/>
<path d="M0,0 L7,0 L7,46 L-8,46 L-8,44 L5,44 L5,2 L0,2 Z " fill="#4C3A3A" transform="translate(122,563)"/>
<path d="M0,0 L14,0 L14,6 L7,7 L6,10 L-4,10 L-4,3 L0,1 Z " fill="#4B3B3E" transform="translate(739,639)"/>
<path d="M0,0 L12,0 L12,12 L6,12 L2,7 L0,6 Z " fill="#3F2F30" transform="translate(134,766)"/>
<path d="M0,0 L12,0 L12,12 L6,12 L2,7 L0,6 Z " fill="#3F2F2F" transform="translate(102,734)"/>
<path d="M0,0 L22,0 L22,2 L2,2 L2,32 L7,32 L7,34 L0,34 Z " fill="#4F4145" transform="translate(439,319)"/>
<path d="M0,0 L1,0 L1,13 L-9,13 L-9,2 L-1,1 Z " fill="#483539" transform="translate(886,658)"/>
<path d="M0,0 L8,0 L8,4 L12,4 L12,8 L8,8 L8,12 L0,12 Z " fill="#0B090A" transform="translate(642,234)"/>
<path d="M0,0 L20,0 L20,18 L18,18 L18,2 L2,2 L2,20 L0,20 Z " fill="#4B393C" transform="translate(939,575)"/>
<path d="M0,0 L18,1 L18,2 L8,2 L8,8 L6,8 L6,12 L4,12 L4,18 L3,18 L3,12 L1,12 L1,17 L0,17 Z " fill="#433436" transform="translate(884,608)"/>
<path d="M0,0 L10,0 L10,16 L-2,16 L-2,15 L9,15 L9,13 L-1,13 L-1,12 L6,12 L6,4 L2,4 L1,6 L0,4 L-2,6 L-2,2 L0,2 Z " fill="#070505" transform="translate(876,642)"/>
<path d="M0,0 L16,0 L16,1 L1,1 L1,10 L8,10 L8,16 L1,16 L1,39 L4,40 L0,40 Z " fill="#0E0B0B" transform="translate(114,610)"/>
<path d="M0,0 L10,0 L10,31 L8,31 L8,2 L2,2 L2,8 L-1,10 L-4,10 L-4,8 L-1,7 Z " fill="#4E4044" transform="translate(367,511)"/>
<path d="M0,0 L2,0 L3,3 L18,4 L18,35 L16,35 L16,6 L3,6 L0,3 Z " fill="#4B3C3D" transform="translate(175,539)"/>
<path d="M0,0 L8,0 L8,12 L0,12 Z " fill="#3F3234" transform="translate(318,806)"/>
<path d="M0,0 L8,0 L8,12 L0,12 Z " fill="#3F3232" transform="translate(218,662)"/>
<path d="M0,0 L8,0 L8,12 L0,12 Z " fill="#3F3030" transform="translate(30,630)"/>
<path d="M0,0 L12,0 L12,8 L2,8 L2,6 L0,6 Z " fill="#423233" transform="translate(66,702)"/>
<path d="M0,0 L8,0 L8,10 L6,10 L6,12 L0,12 Z " fill="#433438" transform="translate(222,502)"/>
<path d="M0,0 L20,0 L20,7 L18,7 L18,2 L2,2 L2,23 L0,23 Z " fill="#4B3C3E" transform="translate(863,503)"/>
<path d="M0,0 L1,0 L1,26 L-5,26 L-5,22 L-7,22 L-7,4 L-6,4 L-6,21 L-4,21 L-4,5 L-2,4 L-2,23 L-4,23 L-4,25 L0,25 Z " fill="#3D2F30" transform="translate(193,670)"/>
<path d="M0,0 L11,0 L11,34 L9,34 L9,2 L1,2 L1,4 L-1,4 Z " fill="#4E4145" transform="translate(418,351)"/>
<path d="M0,0 L2,0 L2,24 L4,24 L4,11 L6,11 L6,26 L0,26 Z " fill="#4E4047" transform="translate(411,391)"/>
<path d="M0,0 L14,0 L14,6 L0,6 Z " fill="#483536" transform="translate(145,729)"/>
<path d="M0,0 L10,0 L10,6 L8,6 L8,8 L0,8 Z " fill="#423436" transform="translate(802,734)"/>
<path d="M0,0 L6,0 L6,2 L8,2 L8,10 L0,10 Z " fill="#423437" transform="translate(254,544)"/>
<path d="M0,0 L12,0 L12,6 L0,6 Z " fill="#423435" transform="translate(214,742)"/>
<path d="M0,0 L2,0 L2,21 L15,21 L15,23 L0,23 Z " fill="#4B393A" transform="translate(127,706)"/>
<path d="M0,0 L7,0 L7,31 L5,31 L5,2 L0,2 Z " fill="#4C3A3A" transform="translate(130,671)"/>
<path d="M0,0 L8,0 L8,6 L6,6 L6,10 L0,10 Z " fill="#413636" transform="translate(750,542)"/>
<path d="M0,0 L2,0 L2,31 L-5,31 L-5,29 L0,29 Z " fill="#4E4143" transform="translate(743,514)"/>
<path d="M0,0 L31,0 L31,2 L2,2 L2,7 L0,7 Z " fill="#4F4146" transform="translate(543,311)"/>
<path d="M0,0 L18,0 L18,11 L16,11 L16,2 L2,2 L2,10 L0,11 Z " fill="#4F4145" transform="translate(583,287)"/>
<path d="M0,0 L1,4 L-1,4 L-1,12 L1,12 L1,24 L-1,24 L-1,30 L-2,30 L-3,24 L-3,2 L0,3 Z " fill="#080606" transform="translate(853,598)"/>
<path d="M0,0 L14,0 L14,6 L12,6 L12,2 L2,2 L2,8 L10,8 L10,10 L0,10 Z " fill="#4C3C3F" transform="translate(735,747)"/>
<path d="M0,0 L1,3 L8,2 L20,2 L28,3 L28,4 L20,4 L20,6 L8,6 L8,4 L0,4 Z " fill="#433538" transform="translate(378,638)"/>
<path d="M0,0 L10,0 L10,13 L9,14 L3,14 L3,12 L8,12 L8,2 L2,2 L2,8 L0,8 Z " fill="#4B383B" transform="translate(907,659)"/>
<path d="M0,0 L10,0 L10,19 L6,18 L6,16 L8,16 L8,2 L2,2 L2,6 L0,6 Z " fill="#4C3C3D" transform="translate(151,511)"/>
<path d="M0,0 L8,0 L8,8 L0,8 Z " fill="#44363A" transform="translate(798,638)"/>
<path d="M0,0 L15,0 L15,2 L2,2 L2,19 L0,19 Z " fill="#4B3A3A" transform="translate(63,575)"/>
<path d="M0,0 L8,0 L8,8 L0,8 Z " fill="#45393C" transform="translate(538,250)"/>
<path d="M0,0 L8,0 L8,8 L2,8 L2,6 L0,6 Z " fill="#413232" transform="translate(90,722)"/>
<path d="M0,0 L7,0 L7,24 L5,24 L5,2 L0,2 Z " fill="#4C3A3A" transform="translate(138,703)"/>
<path d="M0,0 L10,0 L10,2 L2,2 L2,4 L16,4 L16,6 L0,6 Z " fill="#4C3C3F" transform="translate(335,827)"/>
<path d="M0,0 L7,0 L7,23 L5,23 L5,2 L0,2 Z " fill="#4C3A3D" transform="translate(890,567)"/>
<path d="M0,0 L2,0 L2,25 L-2,25 L-2,23 L0,23 Z " fill="#4C3C3D" transform="translate(191,670)"/>
<path d="M0,0 L10,0 L10,4 L6,4 L6,12 L2,11 L5,11 L5,4 L1,4 L0,6 Z " fill="#0A0808" transform="translate(892,610)"/>
<path d="M0,0 L4,0 L4,16 L6,16 L6,24 L4,24 L3,26 L2,24 L3,1 Z " fill="#413437" transform="translate(774,302)"/>
<path d="M0,0 L12,0 L12,10 L6,10 L6,8 L10,8 L10,2 L2,2 L2,4 L0,4 Z " fill="#4C393B" transform="translate(117,751)"/>
<path d="M0,0 L2,0 L2,2 L6,2 L6,4 L3,5 L2,17 L0,17 L0,9 L-2,9 L-2,4 L1,4 Z " fill="#000000" transform="translate(891,617)"/>
<path d="M0,0 L2,0 L2,18 L-7,18 L-7,16 L0,16 Z " fill="#4F4043" transform="translate(753,495)"/>
<path d="M0,0 L11,0 L11,15 L9,15 L9,2 L-1,2 Z " fill="#4C3B3B" transform="translate(118,655)"/>
<path d="M0,0 L8,0 L8,6 L0,6 Z " fill="#443437" transform="translate(814,666)"/>
<path d="M0,0 L6,0 L6,8 L0,8 Z " fill="#382C2E" transform="translate(826,650)"/>
<path d="M0,0 L6,0 L6,8 L0,8 Z " fill="#382E2F" transform="translate(742,574)"/>
<path d="M0,0 L2,0 L2,15 L-9,15 L-9,13 L0,13 Z " fill="#4E4143" transform="translate(735,546)"/>
<path d="M0,0 L15,0 L15,2 L2,2 L2,11 L0,11 Z " fill="#4F4246" transform="translate(527,319)"/>
<path d="M0,0 L6,0 L6,3 L3,3 L3,7 L6,7 L6,10 L0,10 Z " fill="#000000" transform="translate(643,235)"/>
<path d="M0,0 L2,0 L1,5 L0,6 L-6,6 L-6,16 L-8,16 L-8,4 L-1,3 Z " fill="#4B383B" transform="translate(903,667)"/>
<path d="M0,0 L18,0 L18,6 L17,2 L2,2 L0,6 Z " fill="#4C3A3A" transform="translate(103,555)"/>
<path d="M0,0 L4,1 L1,1 L1,8 L3,9 L2,14 L0,14 L-1,9 L-3,9 L-3,24 L-4,24 L-4,8 L0,8 Z " fill="#3D2E31" transform="translate(898,614)"/>
<path d="M0,0 L8,0 L8,2 L16,2 L12,4 L0,4 Z " fill="#0A0808" transform="translate(818,706)"/>
<path d="M0,0 L2,0 L2,12 L10,12 L10,14 L0,14 Z " fill="#4C393D" transform="translate(883,691)"/>
<path d="M0,0 L15,0 L15,4 L8,4 L8,2 L0,2 Z " fill="#4E4042" transform="translate(690,627)"/>
<path d="M0,0 L2,0 L0,5 L-1,15 L-3,14 L-3,11 L-5,11 L-6,14 L-6,10 L-4,10 L-4,6 L-2,6 L-2,2 L0,2 Z " fill="#070606" transform="translate(872,648)"/>
<path d="M0,0 L1,0 L1,25 L3,26 L2,28 L0,28 L-1,30 L-2,24 L0,24 Z " fill="#473A3A" transform="translate(750,434)"/>
<path d="M0,0 L10,0 L10,10 L6,9 L8,2 L1,2 L0,4 Z " fill="#4C3A3A" transform="translate(135,767)"/>
<path d="M0,0 L4,1 L1,1 L1,3 L4,4 L3,5 L2,16 L1,16 L1,5 L-1,5 L-1,16 L-2,16 L-2,2 L0,2 Z " fill="#403232" transform="translate(832,666)"/>
<path d="M0,0 L10,0 L10,10 L6,9 L8,9 L8,2 L1,2 L0,4 Z " fill="#4C3A3A" transform="translate(103,735)"/>
<path d="M0,0 L10,0 L10,7 L8,7 L8,2 L2,2 L2,7 L0,7 Z " fill="#4C3A3E" transform="translate(907,555)"/>
<path d="M0,0 L12,1 L12,8 L10,8 L10,3 L2,3 L2,5 L0,5 Z " fill="#4C3C3D" transform="translate(161,530)"/>
<path d="M0,0 L7,0 L7,2 L2,2 L2,4 L10,4 L10,6 L0,6 Z " fill="#4F4142" transform="translate(715,623)"/>
<path d="M0,0 L6,0 L6,6 L0,6 Z " fill="#392D2F" transform="translate(542,750)"/>
<path d="M0,0 L6,0 L6,6 L0,6 Z " fill="#392D2F" transform="translate(414,750)"/>
<path d="M0,0 L6,0 L6,6 L0,6 Z " fill="#352829" transform="translate(94,748)"/>
<path d="M0,0 L6,0 L6,6 L0,6 Z " fill="#392D2F" transform="translate(622,702)"/>
<path d="M0,0 L6,0 L6,6 L0,6 Z " fill="#352929" transform="translate(116,620)"/>
<path d="M0,0 L6,0 L6,6 L0,6 Z " fill="#382D2F" transform="translate(350,556)"/>
<path d="M0,0 L6,0 L6,6 L0,6 Z " fill="#362B2B" transform="translate(140,498)"/>
<path d="M0,0 L6,0 L6,6 L0,6 Z " fill="#392E2E" transform="translate(782,492)"/>
<path d="M0,0 L6,0 L6,6 L0,6 Z " fill="#392D2F" transform="translate(798,318)"/>
<path d="M0,0 L6,0 L6,6 L0,6 Z " fill="#382C2F" transform="translate(782,318)"/>
<path d="M0,0 L6,0 L6,6 L0,6 Z " fill="#392F32" transform="translate(546,270)"/>
<path d="M0,0 L6,0 L6,6 L0,6 Z " fill="#392F32" transform="translate(526,262)"/>
<path d="M0,0 L6,0 L6,6 L0,6 Z " fill="#392D31" transform="translate(734,220)"/>
<path d="M0,0 L14,0 L14,6 L7,6 L7,4 L12,4 L12,1 L0,1 Z " fill="#503F43" transform="translate(739,639)"/>
<path d="M0,0 L6,0 L5,5 L0,6 Z " fill="#4E3D42" transform="translate(731,635)"/>
<path d="M0,0 L4,1 L1,1 L1,3 L4,3 L4,8 L3,9 L-4,9 L0,8 Z " fill="#080707" transform="translate(694,614)"/>
<path d="M0,0 L6,0 L6,2 L1,2 L1,11 L-1,11 L-1,1 Z " fill="#4B3C3E" transform="translate(812,691)"/>
<path d="M0,0 L10,0 L10,2 L1,2 L1,7 L-1,7 L-1,1 Z " fill="#4B3C3E" transform="translate(820,683)"/>
<path d="M0,0 L5,0 L5,12 L3,12 L3,2 L0,2 Z " fill="#4F4346" transform="translate(488,275)"/>
<path d="M0,0 L7,0 L7,2 L2,2 L2,10 L0,10 Z " fill="#4F4246" transform="translate(623,255)"/>
<path d="M0,0 L6,0 L6,2 L2,2 L2,10 L0,10 Z " fill="#4D3D40" transform="translate(319,807)"/>
<path d="M0,0 L2,0 L2,12 L-2,12 L-2,10 L0,10 Z " fill="#4C3D3D" transform="translate(207,723)"/>
<path d="M0,0 L6,0 L6,2 L2,2 L2,10 L0,10 Z " fill="#4D3D3E" transform="translate(219,663)"/>
<path d="M0,0 L6,0 L6,2 L2,2 L2,10 L0,10 Z " fill="#4C3B3B" transform="translate(31,631)"/>
<path d="M0,0 L9,0 L9,1 L1,1 L1,3 L7,3 L3,4 L3,6 L-1,6 Z " fill="#44393B" transform="translate(641,314)"/>
<path d="M0,0 L2,0 L1,5 L0,6 L-8,6 L-8,4 L-1,3 Z " fill="#4D3C3F" transform="translate(807,703)"/>
<path d="M0,0 L2,0 L1,5 L-2,6 L-2,10 L-4,10 L-4,4 L-1,3 Z " fill="#4B393C" transform="translate(923,635)"/>
<path d="M0,0 L1,0 L2,15 L1,18 L-1,18 Z " fill="#423537" transform="translate(753,354)"/>
<path d="M0,0 L2,0 L2,5 L-7,5 L-7,3 L0,3 Z " fill="#4F3F42" transform="translate(623,668)"/>
<path d="M0,0 L4,0 L4,6 L0,6 Z " fill="#4F3D41" transform="translate(827,651)"/>
<path d="M0,0 L4,0 L4,6 L0,6 Z " fill="#504143" transform="translate(743,575)"/>
<path d="M0,0 L7,0 L7,2 L2,2 L2,7 L0,7 Z " fill="#4F4145" transform="translate(427,479)"/>
<path d="M0,0 L5,0 L5,2 L2,2 L2,4 L5,4 L5,6 L0,6 Z " fill="#504246" transform="translate(643,287)"/>
<path d="M0,0 L6,1 L2,2 L2,4 L0,4 L0,6 L-2,6 L-3,8 L-4,5 Z " fill="#423437" transform="translate(662,644)"/>
<path d="M0,0 L3,0 L3,7 L6,8 L2,8 L2,6 L0,6 Z " fill="#413233" transform="translate(154,522)"/>
<path d="M0,0 L2,0 L2,2 L9,2 L9,4 L1,4 Z " fill="#4E4245" transform="translate(469,287)"/>
<path d="M0,0 L8,0 L8,2 L2,2 L2,4 L0,4 Z " fill="#4D3D3E" transform="translate(197,719)"/>
<path d="M0,0 L1,0 L1,6 L3,7 L0,9 L0,7 L-6,7 L-6,6 L0,6 Z " fill="#3D3031" transform="translate(818,684)"/>
<path d="M0,0 L1,4 L3,4 L4,0 L4,5 L-2,5 Z " fill="#44393B" transform="translate(686,622)"/>
<path d="M0,0 L2,0 L3,3 L2,5 L0,5 L-1,7 L-2,4 Z " fill="#453839" transform="translate(728,621)"/>
<path d="M0,0 L4,0 L4,4 L0,4 Z " fill="#514145" transform="translate(543,751)"/>
<path d="M0,0 L4,0 L4,4 L0,4 Z " fill="#514145" transform="translate(415,751)"/>
<path d="M0,0 L4,0 L4,4 L0,4 Z " fill="#4D3A3B" transform="translate(95,749)"/>
<path d="M0,0 L4,0 L4,4 L0,4 Z " fill="#514145" transform="translate(623,703)"/>
<path d="M0,0 L4,0 L4,4 L0,4 Z " fill="#4E3D3D" transform="translate(117,621)"/>
<path d="M0,0 L4,0 L4,4 L0,4 Z " fill="#514245" transform="translate(351,557)"/>
<path d="M0,0 L6,0 L6,4 L4,4 L4,2 L0,2 Z " fill="#504243" transform="translate(751,543)"/>
<path d="M0,0 L4,0 L4,4 L0,4 Z " fill="#4E3D3E" transform="translate(141,499)"/>
<path d="M0,0 L4,0 L4,4 L0,4 Z " fill="#514242" transform="translate(783,493)"/>
<path d="M0,0 L4,0 L4,4 L0,4 Z " fill="#514145" transform="translate(799,319)"/>
<path d="M0,0 L4,0 L4,4 L0,4 Z " fill="#524245" transform="translate(783,319)"/>
<path d="M0,0 L1,2 L-1,8 L-3,8 L-3,3 L-1,3 Z " fill="#43383B" transform="translate(651,281)"/>
<path d="M0,0 L4,0 L4,4 L0,4 Z " fill="#514549" transform="translate(547,271)"/>
<path d="M0,0 L4,0 L4,4 L0,4 Z " fill="#514549" transform="translate(527,263)"/>
<path d="M0,0 L4,0 L4,4 L0,4 Z " fill="#514146" transform="translate(735,221)"/>
<path d="M0,0 L1,4 L-5,4 L-5,2 Z " fill="#4D3D40" transform="translate(352,833)"/>
<path d="M0,0 L2,2 L1,6 L-2,6 L-2,2 L0,2 Z " fill="#463639" transform="translate(259,545)"/>
<path d="M0,0 L3,1 L2,3 L0,3 L0,5 L-4,4 L-1,4 Z " fill="#42373B" transform="translate(490,287)"/>
<path d="M0,0 L2,0 L1,5 L-2,5 L-2,3 L0,3 Z " fill="#4A3639" transform="translate(943,626)"/>
</svg>
