<?xml version="1.0" encoding="UTF-8"?>
<!-- Generator: visioncortex VTracer 0.6.4 -->
<svg version="1.1" xmlns="http://www.w3.org/2000/svg" width="1024" height="1024">
<path d="M0,0 L1024,0 L1024,1024 L0,1024 Z " fill="#000000" transform="translate(0,0)"/>
<path d="M0,0 L6,0 L6,2 L24,2 L24,4 L36,4 L36,6 L44,6 L44,8 L48,8 L48,10 L56,10 L56,12 L64,12 L64,14 L72,14 L72,16 L76,16 L76,18 L80,18 L80,20 L84,20 L84,22 L90,22 L96,29 L100,30 L106,37 L110,38 L110,40 L112,40 L112,44 L116,44 L116,52 L118,52 L118,58 L112,58 L112,62 L108,62 L108,66 L104,66 L104,68 L106,68 L106,84 L104,84 L104,88 L108,88 L108,86 L114,86 L114,82 L120,82 L120,86 L122,86 L122,88 L130,88 L130,90 L138,90 L140,93 L144,94 L144,98 L150,98 L150,102 L152,102 L152,106 L156,106 L156,110 L158,110 L158,114 L160,114 L160,116 L162,116 L162,120 L164,120 L164,126 L166,126 L166,128 L168,128 L168,132 L170,132 L170,140 L172,140 L172,142 L176,142 L176,144 L178,144 L178,148 L180,148 L180,154 L182,154 L182,160 L184,160 L184,168 L188,168 L188,188 L190,188 L190,200 L192,200 L192,218 L196,218 L196,230 L198,230 L198,236 L200,236 L200,252 L202,252 L202,266 L200,266 L200,274 L198,274 L198,284 L194,284 L194,286 L192,286 L192,290 L190,290 L190,298 L185,298 L185,303 L182,302 L179,311 L175,315 L173,315 L173,317 L167,322 L166,333 L163,333 L162,331 L155,331 L155,334 L155,339 L155,342 L152,345 L123,345 L120,343 L120,340 L108,340 L107,345 L97,345 L92,344 L88,343 L85,343 L80,343 L79,347 L76,348 L76,351 L67,351 L63,354 L63,352 L59,354 L52,353 L50,354 L54,355 L54,357 L48,357 L45,356 L36,358 L33,361 L30,361 L34,362 L39,363 L39,365 L32,365 L32,368 L26,368 L26,370 L22,370 L22,372 L12,372 L12,374 L-28,374 L-28,376 L-38,376 L-38,374 L-46,374 L-46,376 L-56,376 L-56,374 L-68,374 L-68,372 L-88,372 L-88,370 L-92,370 L-92,368 L-100,368 L-100,366 L-105,365 L-108,362 L-108,360 L-112,360 L-112,358 L-118,358 L-118,356 L-136,356 L-136,354 L-140,354 L-140,352 L-146,352 L-148,348 L-154,348 L-154,346 L-156,346 L-156,342 L-158,342 L-160,337 L-162,336 L-162,330 L-164,330 L-164,324 L-166,324 L-166,310 L-168,310 L-168,294 L-170,294 L-170,286 L-172,286 L-172,280 L-174,280 L-174,272 L-176,272 L-176,266 L-178,266 L-178,262 L-180,262 L-180,252 L-182,252 L-182,248 L-184,248 L-184,244 L-186,244 L-186,234 L-188,234 L-188,230 L-190,230 L-190,224 L-192,224 L-192,212 L-194,212 L-194,182 L-192,182 L-192,166 L-190,166 L-190,162 L-188,162 L-188,156 L-186,156 L-186,148 L-184,148 L-184,144 L-182,144 L-182,140 L-180,140 L-180,136 L-178,136 L-178,130 L-176,130 L-176,126 L-174,126 L-174,122 L-172,122 L-172,120 L-170,120 L-170,114 L-166,114 L-165,109 L-160,104 L-158,104 L-158,102 L-154,102 L-154,100 L-152,100 L-152,98 L-140,98 L-140,100 L-136,100 L-136,102 L-132,102 L-128,107 L-124,108 L-124,110 L-120,110 L-120,112 L-116,112 L-116,114 L-112,114 L-112,116 L-108,116 L-108,118 L-98,118 L-96,114 L-94,114 L-94,112 L-92,112 L-92,110 L-88,110 L-88,108 L-84,108 L-84,106 L-80,106 L-80,104 L-78,104 L-77,99 L-74,96 L-72,96 L-72,94 L-68,94 L-68,92 L-66,92 L-66,88 L-64,88 L-64,86 L-62,86 L-62,76 L-66,76 L-72,69 L-74,68 L-74,64 L-78,64 L-78,60 L-80,60 L-80,56 L-82,56 L-82,52 L-84,52 L-84,48 L-86,48 L-86,40 L-84,40 L-84,34 L-82,34 L-82,30 L-78,30 L-76,26 L-74,26 L-74,24 L-72,24 L-72,22 L-68,22 L-68,20 L-66,20 L-66,18 L-62,18 L-62,16 L-60,16 L-60,14 L-56,14 L-56,12 L-50,12 L-50,10 L-46,10 L-46,8 L-40,8 L-40,6 L-36,6 L-36,4 L-26,4 L-26,2 L0,2 Z " fill="#CE102E" transform="translate(452,264)"/>
<path d="M0,0 L6,0 L6,2 L16,2 L16,0 L26,0 L26,2 L28,2 L28,0 L34,0 L36,3 L40,4 L40,6 L42,6 L42,18 L44,18 L44,20 L46,20 L46,26 L44,26 L44,42 L42,42 L42,56 L40,56 L40,62 L38,62 L38,68 L34,68 L34,72 L32,72 L32,78 L30,78 L30,80 L28,80 L28,82 L26,82 L26,84 L22,84 L22,88 L18,88 L18,92 L16,92 L16,96 L14,96 L14,98 L10,98 L10,100 L6,100 L6,102 L2,102 L2,104 L-4,104 L-4,106 L-6,106 L-6,108 L-32,108 L-32,106 L-44,106 L-44,104 L-48,104 L-48,102 L-66,102 L-66,104 L-70,104 L-70,108 L-74,108 L-74,110 L-78,110 L-78,112 L-82,112 L-82,114 L-86,114 L-86,116 L-90,116 L-90,118 L-98,118 L-98,120 L-100,120 L-100,122 L-102,122 L-102,124 L-106,124 L-106,126 L-110,126 L-110,128 L-114,128 L-114,130 L-122,130 L-122,132 L-126,132 L-126,134 L-133,136 L-134,138 L-146,138 L-146,140 L-156,140 L-156,138 L-186,138 L-186,140 L-192,140 L-192,142 L-194,142 L-194,144 L-198,144 L-198,146 L-202,146 L-202,152 L-208,152 L-206,157 L-204,158 L-204,162 L-200,162 L-200,166 L-198,166 L-198,168 L-196,168 L-196,172 L-192,174 L-192,178 L-184,178 L-184,194 L-192,194 L-192,198 L-194,198 L-194,200 L-199,204 L-200,206 L-206,206 L-206,208 L-210,208 L-210,210 L-214,210 L-214,212 L-218,212 L-218,214 L-226,214 L-226,216 L-228,216 L-228,220 L-232,220 L-232,222 L-238,222 L-238,224 L-242,224 L-242,226 L-246,226 L-246,228 L-250,228 L-250,230 L-262,230 L-262,234 L-286,234 L-286,232 L-290,232 L-290,226 L-280,226 L-280,224 L-296,224 L-296,218 L-280,218 L-280,216 L-284,216 L-284,214 L-302,214 L-302,218 L-320,218 L-320,212 L-318,212 L-318,210 L-332,210 L-332,214 L-338,214 L-338,210 L-342,210 L-342,216 L-344,216 L-344,218 L-352,218 L-352,214 L-356,214 L-356,218 L-354,218 L-354,224 L-360,224 L-360,218 L-366,218 L-366,220 L-362,220 L-362,226 L-370,226 L-370,228 L-374,228 L-374,230 L-372,230 L-372,236 L-360,236 L-360,242 L-374,242 L-374,244 L-382,244 L-382,242 L-384,242 L-384,244 L-400,244 L-400,242 L-468,242 L-468,244 L-484,244 L-484,246 L-502,246 L-502,248 L-518,248 L-518,250 L-538,250 L-538,252 L-568,252 L-568,250 L-574,250 L-574,248 L-582,248 L-582,246 L-586,246 L-586,244 L-592,244 L-594,240 L-599,239 L-600,236 L-605,235 L-614,226 L-614,224 L-616,224 L-616,220 L-618,220 L-618,216 L-620,216 L-620,214 L-622,214 L-622,210 L-624,210 L-624,202 L-626,202 L-626,200 L-628,200 L-628,176 L-624,176 L-624,166 L-616,166 L-616,162 L-618,162 L-618,156 L-616,156 L-618,150 L-622,150 L-622,144 L-620,144 L-620,136 L-618,136 L-618,122 L-624,122 L-624,116 L-622,116 L-622,114 L-624,114 L-624,108 L-622,108 L-622,98 L-624,98 L-624,86 L-622,86 L-622,82 L-618,82 L-618,76 L-616,76 L-616,72 L-610,72 L-610,74 L-608,74 L-608,66 L-606,66 L-606,64 L-578,64 L-576,66 L-576,70 L-574,70 L-574,74 L-572,74 L-572,76 L-566,76 L-564,79 L-558,80 L-558,82 L-554,82 L-554,84 L-536,84 L-536,86 L-530,86 L-530,88 L-526,88 L-522,93 L-518,94 L-518,96 L-510,96 L-510,98 L-506,98 L-506,100 L-486,100 L-486,102 L-474,102 L-474,104 L-464,104 L-464,102 L-456,102 L-456,104 L-446,104 L-446,102 L-406,102 L-406,100 L-396,100 L-396,98 L-392,98 L-392,96 L-386,96 L-386,93 L-379,93 L-379,91 L-388,91 L-388,89 L-383,86 L-378,84 L-371,83 L-364,85 L-364,83 L-370,83 L-366,80 L-358,81 L-353,80 L-349,78 L-342,79 L-342,76 L-339,74 L-338,71 L-331,69 L-329,71 L-323,71 L-321,72 L-311,72 L-310,68 L-298,68 L-298,71 L-294,72 L-282,72 L-274,73 L-273,70 L-273,73 L-266,72 L-263,68 L-264,67 L-264,62 L-266,60 L-261,58 L-256,58 L-255,61 L-252,61 L-252,50 L-247,45 L-245,45 L-245,43 L-242,40 L-239,39 L-237,30 L-235,27 L-235,31 L-233,31 L-233,26 L-232,26 L-232,32 L-234,32 L-234,40 L-236,40 L-236,44 L-240,44 L-240,48 L-244,48 L-244,52 L-248,52 L-248,58 L-246,58 L-246,64 L-243,62 L-240,62 L-240,60 L-234,60 L-234,62 L-230,62 L-230,68 L-228,68 L-228,62 L-222,62 L-222,66 L-220,66 L-220,62 L-218,62 L-218,60 L-212,60 L-210,63 L-210,68 L-208,68 L-208,66 L-204,66 L-204,64 L-208,64 L-208,58 L-204,58 L-204,56 L-198,56 L-198,62 L-202,62 L-202,64 L-198,64 L-198,66 L-196,66 L-196,64 L-180,64 L-180,54 L-184,54 L-184,58 L-188,58 L-188,62 L-193,62 L-196,60 L-196,54 L-192,52 L-192,50 L-190,50 L-190,44 L-184,44 L-184,46 L-180,46 L-180,44 L-178,44 L-178,42 L-188,42 L-188,36 L-186,36 L-186,32 L-180,32 L-180,30 L-176,30 L-176,28 L-174,28 L-174,26 L-172,26 L-172,24 L-168,24 L-168,16 L-166,16 L-166,14 L-158,14 L-158,12 L-156,12 L-156,10 L-146,10 L-146,8 L-140,8 L-140,4 L-72,4 L-72,6 L-70,6 L-70,8 L-66,8 L-66,10 L-64,10 L-64,6 L-48,6 L-48,4 L-34,4 L-34,6 L-30,6 L-30,12 L-32,12 L-32,14 L-28,14 L-28,4 L-24,4 L-24,2 L-18,2 L-18,4 L-16,4 L-16,14 L-14,14 L-14,4 L-8,4 L-8,6 L-4,6 L-4,2 L0,2 Z " fill="#4D0003" transform="translate(870,536)"/>
<path d="M0,0 Z M-25,-3 L-19,-3 L-19,0 L-9,0 L-4,1 L-2,0 L3,2 L7,0 L8,5 L13,4 L16,6 L16,40 L14,40 L14,49 L12,53 L10,54 L10,57 L10,63 L8,66 L2,68 L2,73 L-1,77 L-5,77 L-7,81 L-10,84 L-14,91 L-17,91 L-18,96 L-23,95 L-27,97 L-31,98 L-33,101 L-46,101 L-49,102 L-56,100 L-65,97 L-68,98 L-73,95 L-84,94 L-87,95 L-87,93 L-97,98 L-101,98 L-102,102 L-109,106 L-119,111 L-125,110 L-125,113 L-127,113 L-129,117 L-135,120 L-141,123 L-143,124 L-148,123 L-150,125 L-153,125 L-153,127 L-155,127 L-155,125 L-158,125 L-160,129 L-161,131 L-174,132 L-177,131 L-177,133 L-180,132 L-180,130 L-187,130 L-186,123 L-198,125 L-200,126 L-203,125 L-203,114 L-207,114 L-207,112 L-215,112 L-219,110 L-223,112 L-228,109 L-229,112 L-235,113 L-240,115 L-244,116 L-245,120 L-249,123 L-254,124 L-259,126 L-260,117 L-261,115 L-266,118 L-274,121 L-277,126 L-283,127 L-283,124 L-291,126 L-288,129 L-290,131 L-282,132 L-285,137 L-287,140 L-288,137 L-294,137 L-294,140 L-308,140 L-307,138 L-297,138 L-297,135 L-308,135 L-308,138 L-310,138 L-311,136 L-313,136 L-313,133 L-317,132 L-305,131 L-305,129 L-303,129 L-305,127 L-305,124 L-319,124 L-319,122 L-329,122 L-329,126 L-317,126 L-318,128 L-340,129 L-345,130 L-351,135 L-356,136 L-356,127 L-361,127 L-361,121 L-365,121 L-365,115 L-359,115 L-359,121 L-357,121 L-357,113 L-359,113 L-363,109 L-363,111 L-369,111 L-369,109 L-373,109 L-373,103 L-379,103 L-379,97 L-373,97 L-373,95 L-371,95 L-371,93 L-379,93 L-379,83 L-383,83 L-383,89 L-389,89 L-389,83 L-395,83 L-395,85 L-397,85 L-397,87 L-401,87 L-401,89 L-403,89 L-403,91 L-411,91 L-411,90 L-404,90 L-404,88 L-413,88 L-413,86 L-408,83 L-403,81 L-396,80 L-389,82 L-389,80 L-395,80 L-391,77 L-383,78 L-378,77 L-374,75 L-367,76 L-367,73 L-364,71 L-363,68 L-356,66 L-354,68 L-348,68 L-346,69 L-336,69 L-335,65 L-323,65 L-323,68 L-319,69 L-307,69 L-299,70 L-298,67 L-298,70 L-291,69 L-288,65 L-289,64 L-289,59 L-291,57 L-286,55 L-281,55 L-280,58 L-277,58 L-277,47 L-272,42 L-270,42 L-270,40 L-267,37 L-264,36 L-262,27 L-260,24 L-260,28 L-258,28 L-258,23 L-257,23 L-257,29 L-259,29 L-259,37 L-261,37 L-261,41 L-265,41 L-265,45 L-269,45 L-269,49 L-273,49 L-273,55 L-271,55 L-271,61 L-268,59 L-265,59 L-265,57 L-259,57 L-259,59 L-255,59 L-255,65 L-253,65 L-253,59 L-247,59 L-247,63 L-245,63 L-245,59 L-243,59 L-243,57 L-237,57 L-235,60 L-235,65 L-233,65 L-233,63 L-229,63 L-229,61 L-233,61 L-233,55 L-229,55 L-229,53 L-223,53 L-223,59 L-227,59 L-227,61 L-223,61 L-223,63 L-221,63 L-221,61 L-205,61 L-205,51 L-209,51 L-209,55 L-213,55 L-213,59 L-218,59 L-221,57 L-221,51 L-217,49 L-217,47 L-215,47 L-215,41 L-209,41 L-209,43 L-205,43 L-205,41 L-203,41 L-203,39 L-213,39 L-213,33 L-211,33 L-211,29 L-205,29 L-205,27 L-201,27 L-201,25 L-199,25 L-199,23 L-197,23 L-197,21 L-193,21 L-193,13 L-191,13 L-191,11 L-183,11 L-183,9 L-181,9 L-181,7 L-171,7 L-171,5 L-165,5 L-165,1 L-97,1 L-97,3 L-95,3 L-95,5 L-91,5 L-91,7 L-89,7 L-89,3 L-73,3 L-73,1 L-59,1 L-59,3 L-55,3 L-55,9 L-57,9 L-57,11 L-53,11 L-53,1 L-49,1 L-49,-1 L-43,-1 L-43,1 L-41,1 L-41,11 L-39,11 L-39,1 L-33,1 L-33,3 L-29,3 L-29,-1 L-25,-1 Z M-51,99 Z M-43,99 Z M-147,121 Z M-292,132 Z M11,54 Z M-235,113 Z " fill="#5E0009" transform="translate(895,539)"/>
<path d="M0,0 L2,0 L2,2 L8,2 L10,5 L16,6 L16,8 L20,8 L20,10 L38,10 L38,12 L44,12 L44,14 L48,14 L52,19 L56,20 L56,22 L64,22 L64,24 L68,24 L68,26 L88,26 L88,28 L100,28 L100,30 L110,30 L110,28 L118,28 L118,30 L128,30 L128,28 L168,28 L168,26 L178,26 L178,24 L182,24 L182,22 L188,22 L188,20 L196,20 L196,18 L198,18 L198,16 L202,16 L202,14 L204,14 L204,12 L210,12 L210,18 L216,18 L216,12 L220,12 L220,22 L228,22 L228,24 L226,24 L226,26 L220,26 L220,32 L226,32 L226,38 L230,38 L230,40 L236,40 L236,38 L240,40 L240,42 L242,42 L242,50 L240,50 L240,44 L234,44 L234,50 L238,50 L238,56 L242,56 L242,64 L240,64 L240,62 L234,62 L234,68 L230,68 L230,78 L234,78 L234,84 L228,84 L228,90 L226,90 L226,96 L228,96 L228,98 L224,98 L224,102 L222,102 L222,104 L217,103 L216,100 L210,100 L210,106 L208,106 L208,116 L206,116 L206,120 L204,120 L204,118 L202,118 L202,112 L196,112 L196,116 L194,116 L194,118 L186,118 L186,120 L184,120 L184,122 L182,122 L182,120 L166,120 L166,122 L158,122 L158,126 L156,126 L156,122 L118,122 L118,124 L112,124 L112,122 L106,122 L106,120 L86,120 L86,122 L74,122 L74,120 L66,120 L66,122 L64,122 L64,120 L52,120 L52,118 L38,118 L38,120 L30,120 L30,118 L24,118 L24,116 L18,116 L18,114 L14,114 L14,112 L20,112 L20,104 L16,104 L16,102 L14,102 L14,92 L6,92 L6,96 L-2,96 L-2,94 L0,94 L0,84 L-2,84 L-2,72 L0,72 L0,66 L-2,66 L-2,62 L-4,62 L-4,60 L-2,60 L-2,52 L4,52 L4,46 L6,46 L6,40 L4,40 L4,32 L6,32 L6,20 L4,20 L4,12 L2,12 L2,8 L0,8 Z " fill="#010000" transform="translate(296,610)"/>
<path d="M0,0 L28,0 L30,2 L30,6 L32,6 L32,18 L34,18 L34,22 L36,22 L36,30 L38,30 L38,42 L36,42 L36,50 L38,50 L38,56 L36,56 L36,62 L30,62 L30,70 L28,70 L28,72 L30,72 L30,76 L32,76 L32,82 L30,82 L30,94 L32,94 L32,104 L30,104 L30,106 L38,106 L38,102 L46,102 L46,112 L48,112 L48,114 L52,114 L52,122 L46,122 L46,124 L50,124 L50,126 L56,126 L56,128 L62,128 L62,130 L70,130 L70,128 L84,128 L84,130 L96,130 L96,132 L98,132 L98,130 L106,130 L106,132 L118,132 L118,130 L138,130 L138,132 L144,132 L144,134 L150,134 L150,132 L188,132 L188,136 L190,136 L190,132 L198,132 L198,130 L214,130 L214,132 L216,132 L216,130 L218,130 L218,128 L226,128 L226,126 L228,126 L228,122 L234,122 L235,133 L234,136 L230,136 L230,139 L226,140 L223,143 L216,141 L214,141 L210,145 L201,146 L202,149 L206,147 L208,151 L204,153 L199,151 L197,155 L193,155 L194,150 L187,151 L186,153 L182,153 L178,153 L174,153 L167,151 L159,148 L154,149 L152,149 L152,147 L115,147 L110,148 L106,148 L102,149 L85,149 L81,149 L70,150 L68,149 L68,147 L65,148 L55,147 L50,148 L48,151 L52,151 L52,157 L49,159 L48,158 L41,158 L38,159 L38,161 L40,161 L40,165 L44,165 L44,169 L48,169 L48,172 L36,173 L34,173 L18,175 L15,174 L11,175 L12,171 L6,170 L5,167 L2,167 L-1,162 L-1,160 L-6,159 L-8,156 L-8,153 L-10,152 L-9,149 L-11,149 L-14,143 L-14,135 L-12,131 L-13,115 L-12,107 L-7,102 L-5,101 L-4,110 L-7,111 L-5,120 L-4,120 L-3,102 L0,101 L0,96 L-3,96 L-3,101 L-6,98 L-8,98 L-7,89 L-9,85 L-9,79 L-8,77 L-9,72 L-11,72 L-11,58 L-18,58 L-18,52 L-16,52 L-16,50 L-18,50 L-18,44 L-16,44 L-16,34 L-18,34 L-18,22 L-16,22 L-16,18 L-12,18 L-12,12 L-10,12 L-10,8 L-4,8 L-4,10 L-2,10 L-2,2 L0,2 Z M0,167 L2,168 Z " fill="#5C0001" transform="translate(264,600)"/>
<path d="M0,0 L47,0 L43,2 L38,3 L37,7 L34,9 L36,3 L26,4 L24,6 L23,4 L20,3 L19,5 L19,3 L12,4 L9,4 L3,4 L-1,7 L-17,11 L-19,13 L-24,13 L-25,19 L-34,27 L-38,32 L-38,34 L-36,35 L-36,37 L-34,38 L-39,43 L-40,46 L-36,48 L-37,59 L-40,62 L-45,62 L-45,68 L-47,68 L-47,72 L-45,72 L-45,69 L-43,69 L-42,71 L-39,70 L-39,72 L-37,72 L-37,70 L-34,71 L-37,74 L-41,74 L-41,76 L-51,78 L-51,76 L-64,79 L-66,83 L-70,82 L-80,87 L-85,90 L-95,92 L-100,95 L-102,99 L-112,101 L-116,104 L-121,104 L-123,107 L-137,109 L-147,109 L-147,107 L-173,106 L-185,107 L-194,110 L-194,108 L-199,107 L-199,109 L-205,109 L-205,107 L-209,107 L-209,101 L-215,101 L-215,95 L-209,95 L-209,93 L-207,93 L-207,91 L-215,91 L-215,81 L-219,81 L-219,87 L-225,87 L-225,81 L-231,81 L-231,83 L-233,83 L-233,85 L-237,85 L-237,87 L-239,87 L-239,89 L-247,89 L-247,88 L-240,88 L-240,86 L-249,86 L-249,84 L-244,81 L-239,79 L-232,78 L-225,80 L-225,78 L-231,78 L-227,75 L-219,76 L-214,75 L-210,73 L-203,74 L-203,71 L-200,69 L-199,66 L-192,64 L-190,66 L-184,66 L-182,67 L-172,67 L-171,63 L-159,63 L-159,66 L-155,67 L-143,67 L-135,68 L-134,65 L-134,68 L-127,67 L-124,63 L-125,62 L-125,57 L-127,55 L-122,53 L-117,53 L-116,56 L-113,56 L-113,45 L-108,40 L-106,40 L-106,38 L-103,35 L-100,34 L-98,25 L-96,22 L-96,26 L-94,26 L-94,21 L-93,21 L-93,27 L-95,27 L-95,35 L-97,35 L-97,39 L-101,39 L-101,43 L-105,43 L-105,47 L-109,47 L-109,53 L-107,53 L-107,59 L-104,57 L-101,57 L-101,55 L-95,55 L-95,57 L-91,57 L-91,63 L-89,63 L-89,57 L-83,57 L-83,61 L-81,61 L-81,57 L-79,57 L-79,55 L-73,55 L-71,58 L-71,63 L-69,63 L-69,61 L-65,61 L-65,59 L-69,59 L-69,53 L-65,53 L-65,51 L-59,51 L-59,57 L-63,57 L-63,59 L-59,59 L-59,61 L-57,61 L-57,59 L-41,59 L-41,49 L-45,49 L-45,53 L-49,53 L-49,57 L-54,57 L-57,55 L-57,49 L-53,47 L-53,45 L-51,45 L-51,39 L-45,39 L-45,41 L-41,41 L-41,39 L-39,39 L-39,37 L-49,37 L-49,31 L-47,31 L-47,27 L-41,27 L-41,25 L-37,25 L-37,23 L-35,23 L-35,21 L-33,21 L-33,19 L-29,19 L-29,11 L-27,11 L-27,9 L-19,9 L-19,7 L-17,7 L-17,5 L-7,5 L-7,3 L0,3 Z M-69,80 Z " fill="#820005" transform="translate(731,541)"/>
<path d="M0,0 L6,0 L6,2 L24,2 L24,4 L36,4 L36,6 L44,6 L44,8 L48,8 L48,10 L56,10 L56,12 L64,12 L64,14 L72,14 L72,16 L76,16 L76,18 L80,18 L80,20 L84,20 L84,22 L90,22 L96,29 L100,30 L106,37 L110,38 L110,40 L112,40 L112,44 L116,44 L116,52 L118,52 L118,58 L112,58 L112,62 L108,62 L108,66 L104,66 L104,68 L106,68 L106,84 L104,84 L104,88 L108,88 L108,86 L114,86 L114,82 L120,82 L120,86 L122,86 L122,88 L130,88 L130,90 L138,90 L140,95 L143,95 L143,97 L139,98 L136,97 L135,95 L121,92 L118,89 L117,86 L115,90 L108,92 L101,91 L100,84 L101,81 L101,70 L100,66 L104,61 L107,61 L109,56 L112,54 L111,45 L107,43 L97,35 L92,32 L87,27 L80,26 L78,24 L76,28 L72,28 L72,26 L66,26 L62,27 L59,25 L30,25 L30,23 L23,25 L20,26 L11,25 L10,24 L0,24 L-14,25 L-16,26 L-18,25 L-18,23 L-28,26 L-34,28 L-36,27 L-36,24 L-46,25 L-50,24 L-57,27 L-57,25 L-62,27 L-62,25 L-66,26 L-71,29 L-78,36 L-80,46 L-77,47 L-78,50 L-76,50 L-76,57 L-73,56 L-72,63 L-70,63 L-67,68 L-64,68 L-62,72 L-58,76 L-57,85 L-56,88 L-59,89 L-66,97 L-73,103 L-79,111 L-85,116 L-86,113 L-94,120 L-99,123 L-107,123 L-109,126 L-111,132 L-112,134 L-114,134 L-116,130 L-116,128 L-114,128 L-115,119 L-125,114 L-129,114 L-134,113 L-135,107 L-139,105 L-148,105 L-151,105 L-157,109 L-161,115 L-161,121 L-163,128 L-163,130 L-161,132 L-163,138 L-168,143 L-164,145 L-163,148 L-162,151 L-160,152 L-163,155 L-161,157 L-163,160 L-163,167 L-166,170 L-167,182 L-170,183 L-172,191 L-172,197 L-176,207 L-177,214 L-178,217 L-175,220 L-174,229 L-171,230 L-172,236 L-170,240 L-171,246 L-170,251 L-173,251 L-171,254 L-170,261 L-169,263 L-171,270 L-169,270 L-166,280 L-166,285 L-169,285 L-171,285 L-171,279 L-173,279 L-173,272 L-176,272 L-176,266 L-178,266 L-178,262 L-180,262 L-180,252 L-182,252 L-182,248 L-184,248 L-184,244 L-186,244 L-186,234 L-188,234 L-188,230 L-190,230 L-190,224 L-192,224 L-192,212 L-194,212 L-194,182 L-192,182 L-192,166 L-190,166 L-190,162 L-188,162 L-188,156 L-186,156 L-186,148 L-184,148 L-184,144 L-182,144 L-182,140 L-180,140 L-180,136 L-178,136 L-178,130 L-176,130 L-176,126 L-174,126 L-174,122 L-172,122 L-172,120 L-170,120 L-170,114 L-166,114 L-165,109 L-160,104 L-158,104 L-158,102 L-154,102 L-154,100 L-152,100 L-152,98 L-140,98 L-140,100 L-136,100 L-136,102 L-132,102 L-128,107 L-124,108 L-124,110 L-120,110 L-120,112 L-116,112 L-116,114 L-112,114 L-112,116 L-108,116 L-108,118 L-98,118 L-96,114 L-94,114 L-94,112 L-92,112 L-92,110 L-88,110 L-88,108 L-84,108 L-84,106 L-80,106 L-80,104 L-78,104 L-77,99 L-74,96 L-72,96 L-72,94 L-68,94 L-68,92 L-66,92 L-66,88 L-64,88 L-64,86 L-62,86 L-62,76 L-66,76 L-72,69 L-74,68 L-74,64 L-78,64 L-78,60 L-80,60 L-80,56 L-82,56 L-82,52 L-84,52 L-84,48 L-86,48 L-86,40 L-84,40 L-84,34 L-82,34 L-82,30 L-78,30 L-76,26 L-74,26 L-74,24 L-72,24 L-72,22 L-68,22 L-68,20 L-66,20 L-66,18 L-62,18 L-62,16 L-60,16 L-60,14 L-56,14 L-56,12 L-50,12 L-50,10 L-46,10 L-46,8 L-40,8 L-40,6 L-36,6 L-36,4 L-26,4 L-26,2 L0,2 Z M-35,22 Z M79,22 Z M-36,23 Z M83,24 Z M-73,63 Z M-59,86 Z M-148,102 Z M-166,133 Z M-170,143 Z M-171,144 Z M-167,146 Z M-28,26 Z M-100,123 Z M-160,150 Z " fill="#C2233E" transform="translate(452,264)"/>
<path d="M0,0 L6,0 L6,2 L10,2 L10,4 L18,4 L18,6 L26,6 L30,10 L30,12 L34,12 L34,14 L42,14 L42,16 L44,16 L44,20 L50,20 L50,22 L54,22 L54,24 L58,24 L62,28 L62,34 L66,34 L66,36 L68,36 L68,42 L70,42 L70,44 L72,44 L72,38 L78,38 L78,40 L82,40 L86,45 L94,46 L96,49 L108,50 L108,48 L112,48 L112,46 L126,46 L126,48 L130,48 L130,50 L134,50 L134,52 L138,52 L140,55 L144,56 L144,60 L146,60 L150,64 L150,70 L148,70 L148,72 L150,72 L150,78 L146,78 L146,82 L150,82 L150,90 L142,90 L142,98 L146,98 L146,106 L144,106 L144,112 L142,112 L142,122 L138,122 L138,124 L130,124 L130,120 L120,120 L120,116 L118,116 L118,110 L124,110 L124,108 L120,108 L120,106 L104,106 L104,102 L100,102 L100,94 L96,94 L96,90 L91,89 L88,86 L88,84 L82,84 L82,76 L78,76 L78,68 L76,68 L76,66 L70,66 L70,62 L68,62 L68,66 L56,66 L56,62 L46,62 L46,64 L40,64 L40,62 L36,62 L36,66 L30,66 L28,62 L24,62 L24,52 L20,52 L20,48 L18,48 L18,46 L16,46 L15,36 L12,34 L12,20 L10,20 L10,14 L8,14 L8,8 L4,8 L4,6 L0,6 Z " fill="#430007" transform="translate(598,224)"/>
<path d="M0,0 L1,0 L1,14 L4,13 L5,20 L4,21 L4,30 L6,31 L4,40 L7,39 L8,42 L9,38 L12,38 L12,43 L10,44 L9,62 L6,62 L5,53 L7,52 L7,46 L6,44 L3,47 L1,49 L0,60 L1,73 L-1,77 L-1,86 L1,91 L3,91 L4,95 L6,101 L11,102 L14,106 L14,109 L18,108 L18,112 L24,113 L24,116 L28,115 L31,116 L46,114 L48,113 L48,115 L50,114 L60,114 L58,112 L56,111 L56,107 L52,107 L52,105 L60,105 L60,108 L64,106 L64,108 L68,106 L72,105 L72,107 L76,105 L76,107 L81,105 L82,104 L92,104 L92,115 L94,115 L94,109 L96,105 L108,104 L108,108 L110,108 L111,105 L112,107 L117,105 L119,103 L124,104 L124,106 L128,104 L128,106 L132,104 L136,105 L136,107 L147,101 L166,100 L171,99 L173,99 L173,101 L206,101 L206,103 L218,102 L219,101 L242,100 L246,98 L250,99 L252,96 L252,98 L256,98 L256,104 L248,104 L248,106 L244,106 L244,108 L246,108 L246,114 L258,114 L258,120 L244,120 L244,122 L236,122 L236,120 L234,120 L234,122 L218,122 L218,120 L150,120 L150,122 L134,122 L134,124 L116,124 L116,126 L100,126 L100,128 L80,128 L80,130 L50,130 L50,128 L44,128 L44,126 L36,126 L36,124 L32,124 L32,122 L26,122 L24,118 L19,117 L18,114 L13,113 L4,104 L4,102 L2,102 L2,98 L0,98 L0,94 L-2,94 L-2,92 L-4,92 L-4,88 L-6,88 L-6,80 L-8,80 L-8,78 L-10,78 L-10,54 L-6,54 L-6,44 L2,44 L2,40 L0,40 L0,34 L2,34 L0,28 L-4,28 L-4,22 L-2,22 L-2,14 L0,14 Z M12,109 Z " fill="#420000" transform="translate(252,658)"/>
<path d="M0,0 L6,0 L6,2 L24,2 L24,4 L36,4 L36,6 L44,6 L44,8 L48,8 L48,10 L56,10 L56,12 L64,12 L64,14 L72,14 L72,16 L76,16 L76,18 L80,18 L80,20 L84,20 L84,22 L90,22 L96,29 L100,30 L106,37 L110,38 L110,40 L112,40 L112,44 L116,44 L116,52 L118,52 L118,58 L112,58 L112,62 L108,62 L108,66 L104,66 L104,68 L106,68 L106,84 L104,84 L104,88 L108,88 L108,86 L114,86 L114,82 L120,82 L120,86 L122,86 L122,88 L130,88 L130,90 L138,90 L140,95 L143,95 L143,97 L139,98 L136,97 L135,95 L121,92 L118,89 L117,86 L115,90 L108,92 L101,91 L100,84 L101,81 L101,70 L100,66 L104,61 L107,61 L109,56 L112,54 L111,45 L107,43 L97,35 L92,32 L87,27 L80,26 L78,24 L76,28 L72,28 L72,26 L66,26 L62,27 L59,25 L30,25 L30,23 L23,25 L20,26 L11,25 L10,24 L0,24 L-14,25 L-16,26 L-18,25 L-18,23 L-28,26 L-34,28 L-36,27 L-36,24 L-46,25 L-50,24 L-57,27 L-57,25 L-62,27 L-62,25 L-69,26 L-71,25 L-71,23 L-68,23 L-68,20 L-66,20 L-66,18 L-62,18 L-62,16 L-60,16 L-60,14 L-56,14 L-56,12 L-50,12 L-50,10 L-46,10 L-46,8 L-40,8 L-40,6 L-36,6 L-36,4 L-26,4 L-26,2 L0,2 Z M-35,22 Z M79,22 Z M-36,23 Z M83,24 Z M-28,26 Z " fill="#BD2743" transform="translate(452,264)"/>
<path d="M0,0 L3,2 L1,4 L5,8 L11,9 L7,12 L2,15 L-2,20 L-7,22 L-8,25 L-6,23 L-2,21 L5,22 L9,20 L9,24 L4,25 L-2,28 L-2,25 L-9,28 L-27,27 L-27,25 L-32,28 L-44,29 L-49,28 L-50,25 L-54,27 L-63,27 L-63,29 L-66,31 L-73,32 L-76,35 L-80,35 L-80,38 L-86,40 L-88,43 L-97,45 L-106,46 L-108,47 L-117,47 L-128,46 L-130,50 L-134,50 L-136,51 L-136,49 L-140,49 L-149,51 L-149,49 L-156,49 L-156,46 L-162,46 L-165,48 L-178,48 L-185,47 L-190,50 L-195,50 L-197,54 L-197,46 L-200,46 L-201,43 L-199,43 L-199,45 L-190,41 L-175,40 L-155,41 L-152,42 L-152,44 L-128,42 L-126,38 L-121,38 L-117,35 L-107,33 L-104,28 L-95,25 L-86,22 L-77,17 L-74,16 L-74,18 L-71,17 L-69,13 L-60,11 L-56,10 L-54,12 L-46,11 L-46,9 L-36,8 L-34,11 L-30,12 L-29,11 L-20,10 L-16,8 L-16,6 L-12,6 L-12,8 L-3,8 L-1,2 Z M-1,5 Z M-74,15 Z M10,20 Z " fill="#730007" transform="translate(736,606)"/>
<path d="M0,0 L10,0 L10,2 L12,2 L12,0 L18,0 L20,3 L24,4 L24,6 L26,6 L26,18 L28,18 L28,20 L30,20 L30,26 L28,26 L28,42 L26,42 L26,56 L24,56 L24,62 L22,62 L22,68 L18,68 L18,72 L16,72 L16,78 L14,78 L14,80 L12,80 L12,82 L10,82 L10,84 L6,84 L6,88 L2,88 L2,92 L0,92 L0,96 L-2,96 L-2,98 L-6,98 L-6,100 L-10,100 L-10,102 L-14,102 L-14,104 L-20,104 L-20,106 L-22,106 L-22,108 L-48,108 L-48,106 L-60,106 L-60,104 L-64,104 L-64,102 L-82,102 L-82,104 L-86,104 L-86,108 L-90,108 L-90,110 L-94,110 L-94,112 L-98,112 L-98,114 L-102,114 L-102,116 L-106,116 L-106,118 L-114,118 L-114,120 L-116,120 L-116,122 L-118,122 L-118,124 L-122,124 L-122,126 L-126,126 L-126,128 L-130,128 L-130,130 L-138,130 L-138,132 L-142,132 L-142,134 L-149,136 L-150,138 L-162,138 L-162,140 L-172,140 L-172,138 L-202,138 L-202,140 L-208,140 L-208,142 L-210,142 L-210,144 L-214,144 L-214,146 L-218,146 L-218,152 L-224,152 L-222,157 L-220,158 L-220,162 L-216,162 L-216,166 L-214,166 L-214,168 L-212,168 L-212,172 L-208,174 L-208,178 L-200,178 L-200,194 L-208,194 L-208,198 L-210,198 L-210,200 L-215,204 L-216,206 L-222,206 L-222,208 L-226,208 L-226,210 L-230,210 L-230,212 L-234,212 L-234,214 L-242,214 L-242,216 L-244,216 L-244,220 L-248,220 L-248,222 L-254,222 L-254,224 L-258,224 L-258,226 L-262,226 L-262,228 L-266,228 L-266,230 L-278,230 L-278,234 L-302,234 L-302,232 L-306,232 L-306,226 L-296,226 L-296,224 L-312,224 L-312,218 L-296,218 L-296,219 L-311,219 L-311,223 L-295,223 L-293,226 L-293,230 L-288,229 L-286,227 L-282,227 L-281,230 L-279,231 L-279,229 L-276,229 L-277,226 L-270,224 L-268,225 L-267,221 L-260,220 L-256,219 L-256,216 L-251,218 L-248,213 L-245,211 L-240,210 L-239,206 L-238,209 L-224,202 L-217,202 L-217,200 L-212,195 L-208,191 L-204,190 L-203,181 L-208,181 L-212,176 L-214,171 L-216,171 L-217,166 L-220,165 L-219,163 L-222,162 L-224,161 L-227,156 L-227,152 L-223,150 L-224,148 L-222,148 L-222,146 L-217,145 L-218,142 L-213,140 L-208,135 L-201,134 L-201,131 L-207,130 L-206,125 L-194,124 L-194,128 L-189,127 L-181,126 L-177,126 L-178,133 L-171,133 L-168,136 L-168,134 L-154,133 L-152,134 L-150,130 L-149,128 L-146,128 L-146,130 L-144,130 L-144,128 L-138,125 L-133,126 L-127,122 L-123,120 L-119,118 L-118,116 L-116,116 L-116,113 L-110,113 L-94,105 L-92,101 L-82,97 L-78,96 L-78,98 L-75,96 L-64,97 L-59,100 L-56,99 L-47,102 L-40,104 L-34,103 L-26,103 L-24,104 L-22,100 L-18,99 L-12,97 L-9,99 L-8,94 L-5,93 L0,84 L4,80 L8,79 L10,76 L11,71 L15,68 L17,69 L18,60 L19,56 L21,56 L22,49 L22,42 L24,42 L24,17 L25,9 L21,8 L19,9 L17,8 L15,4 L9,7 L9,4 L3,5 L-10,3 L-10,2 L0,2 Z M9,3 Z M20,57 Z M-42,102 Z M-34,102 Z M-138,124 Z M-208,130 Z M-252,216 Z " fill="#350004" transform="translate(886,536)"/>
<path d="M0,0 L14,0 L14,2 L27,2 L33,3 L36,0 L37,3 L42,4 L43,1 L50,1 L57,3 L58,2 L73,2 L71,6 L65,11 L77,9 L83,6 L86,6 L86,4 L90,5 L87,11 L84,13 L88,14 L88,16 L82,16 L79,15 L70,17 L67,20 L64,20 L68,21 L73,22 L73,24 L66,24 L66,27 L60,27 L60,29 L56,29 L56,31 L46,31 L46,33 L-3,34 L-4,31 L-12,30 L-12,29 L-6,28 L-7,26 L-6,21 L-14,22 L-18,18 L-18,16 L-22,15 L-19,13 L-18,7 L-15,7 L-15,5 L-21,3 L-18,1 L-14,3 L-14,10 L-12,10 L-12,12 L-10,12 L-10,14 L-5,9 L-2,8 L-2,11 L10,11 L10,6 L1,6 L2,3 L-1,2 Z " fill="#C6011A" transform="translate(418,605)"/>
<path d="M0,0 L1,0 L1,6 L-1,6 L-1,14 L-3,14 L-3,18 L-7,18 L-7,22 L-11,22 L-11,26 L-15,26 L-15,32 L-13,32 L-13,38 L-10,36 L-7,36 L-7,34 L-1,34 L-1,37 L2,37 L2,42 L-3,45 L-9,46 L-10,42 L-14,41 L-14,38 L-18,38 L-18,40 L-22,40 L-22,36 L-28,38 L-27,41 L-23,41 L-23,43 L-18,41 L-11,42 L-11,45 L-13,46 L-14,49 L-19,49 L-24,52 L-25,49 L-32,52 L-38,55 L-47,55 L-47,57 L-49,58 L-49,63 L-51,67 L-79,67 L-81,67 L-92,68 L-97,70 L-97,68 L-102,69 L-107,70 L-107,68 L-112,69 L-120,69 L-120,60 L-125,60 L-125,66 L-131,66 L-131,60 L-137,60 L-137,62 L-139,62 L-139,64 L-143,64 L-143,66 L-145,66 L-145,68 L-153,68 L-153,67 L-146,67 L-146,65 L-155,65 L-155,63 L-150,60 L-145,58 L-138,57 L-131,59 L-131,57 L-137,57 L-133,54 L-125,55 L-120,54 L-116,52 L-109,53 L-109,50 L-106,48 L-105,45 L-98,43 L-96,45 L-90,45 L-88,46 L-78,46 L-77,42 L-65,42 L-65,45 L-61,46 L-49,46 L-41,47 L-40,44 L-40,47 L-33,46 L-30,42 L-31,41 L-31,36 L-33,34 L-28,32 L-23,32 L-22,35 L-19,35 L-19,24 L-14,19 L-12,19 L-12,17 L-9,14 L-6,13 L-4,4 L-2,1 L-2,5 L0,5 Z M-18,47 Z M-19,49 Z " fill="#A2000B" transform="translate(637,562)"/>
<path d="M0,0 L6,0 L6,6 L2,6 L2,9 L5,9 L4,16 L-5,21 L-10,23 L-13,23 L-23,26 L-27,29 L-29,29 L-35,29 L-44,36 L-49,38 L-54,39 L-57,41 L-60,41 L-60,45 L-68,46 L-68,49 L-70,49 L-70,47 L-74,46 L-75,44 L-80,45 L-82,47 L-100,46 L-103,44 L-112,47 L-128,49 L-132,51 L-133,50 L-138,51 L-141,51 L-141,55 L-143,55 L-143,50 L-150,50 L-150,44 L-144,44 L-144,42 L-142,42 L-142,40 L-150,40 L-150,30 L-149,30 L-149,39 L-141,38 L-140,37 L-135,37 L-136,40 L-131,38 L-128,37 L-124,38 L-121,37 L-110,36 L-108,35 L-108,37 L-80,37 L-79,28 L-76,27 L-76,25 L-78,24 L-67,24 L-61,21 L-57,19 L-54,19 L-52,21 L-47,19 L-43,19 L-42,15 L-40,13 L-44,13 L-44,11 L-52,13 L-52,11 L-57,12 L-57,8 L-54,6 L-51,6 L-51,10 L-47,10 L-47,8 L-43,8 L-43,11 L-38,12 L-36,14 L-31,13 L-27,12 L-27,7 L-30,6 L-26,6 L-26,12 L-24,12 L-24,6 L-18,6 L-18,10 L-16,10 L-16,6 L-14,6 L-14,4 L-8,4 L-6,7 L-6,12 L-4,12 L-4,10 L0,10 L0,8 L-4,8 L-4,2 L0,2 Z M-11,20 Z M-12,21 Z M-118,46 Z M-131,47 Z M-47,17 Z M-48,18 Z " fill="#8A0007" transform="translate(666,592)"/>
<path d="M0,0 L1,0 L1,14 L4,13 L5,20 L4,21 L4,30 L6,31 L4,40 L7,39 L8,42 L9,38 L12,38 L12,43 L10,44 L9,62 L6,62 L5,53 L7,52 L7,46 L6,44 L3,47 L1,49 L0,60 L1,73 L-1,77 L-1,86 L1,91 L3,91 L4,95 L6,101 L11,102 L14,106 L14,109 L18,108 L18,112 L24,113 L24,116 L28,115 L29,119 L28,120 L32,121 L32,119 L36,117 L38,121 L44,122 L44,123 L37,123 L37,125 L52,123 L52,126 L78,125 L80,124 L80,127 L99,127 L99,125 L83,125 L88,121 L89,123 L96,121 L96,124 L101,120 L104,120 L104,122 L108,121 L109,123 L101,123 L101,125 L115,125 L115,123 L110,123 L112,121 L115,120 L130,119 L130,117 L148,116 L150,112 L153,113 L152,115 L163,115 L168,116 L168,111 L180,110 L181,109 L208,109 L208,111 L218,110 L223,109 L228,109 L229,113 L227,115 L228,116 L238,116 L245,115 L245,108 L246,108 L246,114 L258,114 L258,120 L244,120 L244,122 L236,122 L236,120 L234,120 L234,122 L218,122 L218,120 L150,120 L150,122 L134,122 L134,124 L116,124 L116,126 L100,126 L100,128 L80,128 L80,130 L50,130 L50,128 L44,128 L44,126 L36,126 L36,124 L32,124 L32,122 L26,122 L24,118 L19,117 L18,114 L13,113 L4,104 L4,102 L2,102 L2,98 L0,98 L0,94 L-2,94 L-2,92 L-4,92 L-4,88 L-6,88 L-6,80 L-8,80 L-8,78 L-10,78 L-10,54 L-6,54 L-6,44 L2,44 L2,40 L0,40 L0,34 L2,34 L0,28 L-4,28 L-4,22 L-2,22 L-2,14 L0,14 Z M12,109 Z M194,110 Z M29,116 Z " fill="#370000" transform="translate(252,658)"/>
<path d="M0,0 L6,0 L6,22 L4,22 L4,24 L6,24 L6,44 L4,44 L4,50 L2,50 L4,55 L6,56 L6,64 L2,64 L2,66 L4,66 L4,68 L6,68 L6,98 L4,98 L4,114 L-2,114 L-4,109 L-8,106 L-8,102 L-10,102 L-10,98 L-12,98 L-12,94 L-14,94 L-14,90 L-16,90 L-16,80 L-18,80 L-18,50 L-16,50 L-16,42 L-14,42 L-14,34 L-12,34 L-12,30 L-10,30 L-10,24 L-8,24 L-8,18 L-6,18 L-6,14 L-4,14 L-4,10 L-2,10 L-2,2 L0,2 Z " fill="#3D0000" transform="translate(160,402)"/>
<path d="M0,0 L2,0 L2,2 L7,3 L17,7 L17,12 L19,12 L19,15 L31,17 L32,18 L32,23 L39,22 L40,27 L44,26 L45,28 L48,29 L49,31 L55,33 L58,38 L61,38 L63,43 L67,47 L67,49 L64,50 L65,54 L67,55 L67,57 L62,57 L62,54 L59,54 L59,58 L47,58 L47,54 L37,54 L37,56 L31,56 L31,54 L27,54 L27,58 L21,58 L19,54 L15,54 L15,44 L11,44 L11,40 L9,40 L9,38 L7,38 L6,28 L3,26 L3,12 L1,12 Z " fill="#480010" transform="translate(607,232)"/>
<path d="M0,0 L1,0 L1,7 L3,7 L3,2 L4,2 L3,13 L5,13 L5,8 L7,12 L10,15 L11,28 L12,36 L14,38 L14,48 L15,55 L18,56 L18,59 L16,59 L21,67 L23,71 L29,73 L29,75 L34,74 L35,76 L39,77 L39,79 L41,79 L42,77 L55,79 L58,77 L60,79 L62,78 L63,82 L69,86 L73,88 L73,90 L85,92 L86,94 L93,95 L95,91 L96,93 L99,94 L98,96 L102,93 L107,91 L108,90 L108,84 L109,82 L113,84 L114,86 L122,85 L126,90 L134,89 L135,93 L134,96 L136,99 L145,100 L145,101 L137,101 L137,103 L146,103 L146,104 L136,104 L136,102 L128,102 L128,104 L118,104 L118,102 L106,102 L106,100 L86,100 L86,98 L82,98 L82,96 L74,96 L74,94 L69,93 L66,90 L66,88 L62,88 L62,86 L56,86 L56,84 L38,84 L38,82 L34,82 L34,80 L28,80 L26,76 L20,76 L20,74 L18,74 L18,70 L16,70 L14,65 L12,64 L12,58 L10,58 L10,52 L8,52 L8,38 L6,38 L6,22 L4,22 L4,14 L2,14 L2,8 L0,8 Z M12,48 Z " fill="#BB1730" transform="translate(278,536)"/>
<path d="M0,0 L6,0 L6,2 L10,2 L10,4 L18,4 L18,6 L26,6 L30,10 L30,12 L34,12 L34,14 L42,14 L42,16 L44,16 L44,20 L50,20 L50,22 L54,22 L54,24 L58,24 L62,28 L62,34 L66,34 L66,36 L68,36 L68,42 L70,42 L70,44 L72,44 L72,38 L78,38 L78,40 L82,40 L86,45 L94,46 L96,49 L108,50 L108,48 L112,48 L112,46 L126,46 L126,48 L130,48 L130,50 L134,50 L134,52 L138,52 L140,55 L144,56 L144,60 L146,60 L150,64 L150,70 L148,70 L148,72 L150,72 L150,78 L146,78 L146,82 L150,82 L150,90 L142,90 L142,89 L149,89 L142,87 L144,86 L145,77 L149,77 L149,73 L147,73 L147,75 L145,75 L144,70 L146,70 L145,66 L143,65 L142,60 L139,60 L134,60 L135,56 L133,56 L133,54 L131,54 L131,51 L127,52 L124,50 L118,51 L118,49 L115,51 L112,51 L111,54 L99,56 L99,54 L94,53 L94,50 L84,49 L81,45 L77,43 L75,48 L77,49 L80,54 L79,57 L76,57 L76,55 L73,54 L71,49 L69,48 L64,43 L64,41 L56,40 L57,37 L53,36 L53,34 L49,35 L48,30 L41,31 L40,26 L28,23 L28,20 L26,20 L26,15 L17,13 L15,11 L11,10 L11,8 L9,8 L9,14 L8,14 L8,8 L4,8 L4,6 L0,6 Z M78,41 Z M74,48 Z M133,53 Z M74,57 L76,58 Z " fill="#3A000E" transform="translate(598,224)"/>
<path d="M0,0 L1,2 L5,0 L17,1 L17,3 L30,2 L34,2 L51,2 L57,0 L57,2 L61,0 L61,2 L65,0 L89,0 L101,1 L101,3 L105,1 L105,3 L109,1 L109,3 L115,3 L116,5 L101,6 L97,7 L92,6 L87,7 L83,7 L80,6 L79,9 L73,11 L73,9 L67,11 L52,11 L47,12 L43,10 L43,12 L33,11 L33,20 L31,27 L29,27 L29,16 L25,17 L19,17 L17,19 L12,18 L7,19 L1,20 L-3,20 L-3,17 L-7,18 L-11,17 L-11,15 L-13,15 L-13,13 L-10,11 L-3,11 L0,11 L1,5 L-3,5 L-1,1 Z M47,10 Z " fill="#560000" transform="translate(315,746)"/>
<path d="M0,0 L1,0 L1,6 L-1,6 L-1,14 L-3,14 L-3,18 L-7,18 L-7,22 L-11,22 L-11,26 L-15,26 L-15,32 L-13,32 L-13,38 L-10,36 L-7,36 L-7,34 L-1,34 L-1,37 L2,37 L2,42 L-3,45 L-9,46 L-10,42 L-14,41 L-14,38 L-18,38 L-18,40 L-22,40 L-22,36 L-28,38 L-27,41 L-23,41 L-23,43 L-18,41 L-15,41 L-15,43 L-19,43 L-19,45 L-25,48 L-30,48 L-31,50 L-37,51 L-41,51 L-41,49 L-44,51 L-53,51 L-58,50 L-63,51 L-67,51 L-71,51 L-75,51 L-79,51 L-83,51 L-86,50 L-92,53 L-101,55 L-103,57 L-109,59 L-125,59 L-125,66 L-131,66 L-131,60 L-137,60 L-137,62 L-139,62 L-139,64 L-143,64 L-143,66 L-145,66 L-145,68 L-153,68 L-153,67 L-146,67 L-146,65 L-155,65 L-155,63 L-150,60 L-145,58 L-138,57 L-131,59 L-131,57 L-137,57 L-133,54 L-125,55 L-120,54 L-116,52 L-109,53 L-109,50 L-106,48 L-105,45 L-98,43 L-96,45 L-90,45 L-88,46 L-78,46 L-77,42 L-65,42 L-65,45 L-61,46 L-49,46 L-41,47 L-40,44 L-40,47 L-33,46 L-30,42 L-31,41 L-31,36 L-33,34 L-28,32 L-23,32 L-22,35 L-19,35 L-19,24 L-14,19 L-12,19 L-12,17 L-9,14 L-6,13 L-4,4 L-2,1 L-2,5 L0,5 Z " fill="#AA000B" transform="translate(637,562)"/>
<path d="M0,0 L2,0 L3,2 L6,1 L6,3 L8,3 L8,1 L11,2 L8,5 L4,5 L4,7 L-6,9 L-6,7 L-19,10 L-21,14 L-25,13 L-35,18 L-40,21 L-50,23 L-55,26 L-57,30 L-67,32 L-71,35 L-76,35 L-78,38 L-92,40 L-102,40 L-102,38 L-128,37 L-140,38 L-149,41 L-149,39 L-154,38 L-154,40 L-160,40 L-160,38 L-164,38 L-164,32 L-163,32 L-163,37 L-161,37 L-161,33 L-154,32 L-151,30 L-150,32 L-148,30 L-132,28 L-122,25 L-122,27 L-102,28 L-98,25 L-98,27 L-94,25 L-94,28 L-90,29 L-90,31 L-82,30 L-80,29 L-80,31 L-78,31 L-78,29 L-74,30 L-70,27 L-65,25 L-62,22 L-56,24 L-48,20 L-45,16 L-36,17 L-36,13 L-30,10 L-30,12 L-20,8 L-10,5 L-13,3 L-10,1 L-10,3 L-7,1 L-2,1 L-2,3 L0,3 Z M-24,11 Z M-138,28 Z M-151,29 Z " fill="#7A0006" transform="translate(686,610)"/>
<path d="M0,0 L4,1 L1,1 L1,3 L3,3 L1,7 L-6,14 L-8,24 L-5,25 L-6,28 L-4,28 L-4,35 L-1,34 L0,41 L2,41 L5,46 L8,46 L10,50 L14,54 L15,63 L16,66 L13,67 L6,75 L-1,81 L-7,89 L-13,94 L-14,91 L-22,98 L-27,101 L-35,101 L-37,104 L-39,110 L-40,112 L-42,112 L-44,108 L-44,106 L-42,106 L-43,97 L-53,92 L-57,92 L-62,91 L-63,85 L-67,83 L-76,83 L-79,83 L-85,87 L-91,95 L-95,98 L-95,93 L-97,93 L-97,98 L-98,98 L-98,92 L-94,92 L-93,87 L-88,82 L-86,82 L-86,80 L-82,80 L-82,78 L-80,78 L-80,76 L-68,76 L-68,78 L-64,78 L-64,80 L-60,80 L-56,85 L-52,86 L-52,88 L-48,88 L-48,90 L-44,90 L-44,92 L-40,92 L-40,94 L-36,94 L-36,96 L-26,96 L-24,92 L-22,92 L-22,90 L-20,90 L-20,88 L-16,88 L-16,86 L-12,86 L-12,84 L-8,84 L-8,82 L-6,82 L-5,77 L-2,74 L0,74 L0,72 L4,72 L4,70 L6,70 L6,66 L8,66 L8,64 L10,64 L10,54 L6,54 L0,47 L-2,46 L-2,42 L-6,42 L-6,38 L-8,38 L-8,34 L-10,34 L-10,30 L-12,30 L-12,26 L-14,26 L-14,18 L-12,18 L-12,12 L-10,12 L-10,8 L-6,8 L-4,4 L-2,4 L-2,2 L0,2 Z M-1,41 Z M13,64 Z M-76,80 Z M-28,101 Z " fill="#AD1E36" transform="translate(380,286)"/>
<path d="M0,0 L4,0 L4,4 L10,4 L10,8 L12,8 L12,12 L16,12 L16,16 L18,16 L18,20 L20,20 L20,22 L22,22 L22,26 L24,26 L24,32 L26,32 L26,34 L28,34 L28,38 L30,38 L30,46 L32,46 L32,48 L36,48 L36,50 L38,50 L38,54 L40,54 L40,60 L42,60 L42,66 L44,66 L44,74 L48,74 L48,94 L50,94 L50,106 L52,106 L52,124 L56,124 L56,136 L58,136 L58,142 L60,142 L60,158 L62,158 L62,172 L60,172 L60,180 L58,180 L58,190 L54,190 L54,192 L52,192 L52,196 L50,196 L50,204 L45,204 L45,209 L43,209 L43,205 L41,204 L45,200 L48,192 L50,187 L48,187 L49,185 L52,184 L53,180 L55,180 L55,189 L57,189 L56,180 L55,176 L57,166 L58,160 L56,160 L55,155 L56,152 L54,152 L56,144 L54,144 L51,128 L46,123 L45,96 L42,93 L41,81 L42,75 L40,75 L39,66 L41,66 L41,61 L39,61 L38,65 L38,61 L36,61 L34,55 L29,50 L26,47 L26,43 L24,43 L23,39 L19,35 L15,33 L16,30 L18,30 L17,24 L12,20 L13,16 L9,14 L6,9 L3,9 L1,5 L0,3 L3,3 L3,1 Z " fill="#AE152F" transform="translate(592,358)"/>
<path d="M0,0 L5,0 L6,4 L15,6 L14,9 L9,11 L8,14 L10,12 L14,10 L21,11 L25,9 L25,13 L20,14 L14,17 L14,14 L7,17 L-11,16 L-11,14 L-16,17 L-28,18 L-33,17 L-34,14 L-38,16 L-47,16 L-47,18 L-50,20 L-57,21 L-60,24 L-64,24 L-64,27 L-70,29 L-72,32 L-81,34 L-90,35 L-92,36 L-101,36 L-103,34 L-97,31 L-89,29 L-86,25 L-84,25 L-84,28 L-82,27 L-82,20 L-73,19 L-69,16 L-60,15 L-55,11 L-49,11 L-44,9 L-42,10 L-41,6 L-40,8 L-32,6 L-30,7 L-30,5 L-18,6 L-16,6 L-14,8 L0,8 Z M15,5 Z M26,9 Z " fill="#680003" transform="translate(720,617)"/>
<path d="M0,0 L24,0 L24,9 L31,9 L31,17 L33,17 L33,21 L35,21 L35,29 L37,29 L37,41 L35,41 L36,54 L30,52 L30,50 L26,49 L26,47 L20,46 L20,41 L19,38 L17,38 L17,31 L13,30 L11,22 L8,20 L7,11 L5,11 L2,4 L2,2 L0,2 Z " fill="#910011" transform="translate(265,601)"/>
<path d="M0,0 L33,0 L33,1 L46,3 L46,5 L58,6 L58,8 L63,8 L63,10 L66,11 L66,13 L69,14 L50,14 L50,12 L43,14 L40,15 L31,14 L30,13 L20,13 L6,14 L4,15 L2,14 L2,12 L-8,15 L-14,17 L-16,16 L-16,13 L-26,14 L-28,13 L-28,10 L-22,6 L-15,4 L-14,3 L-2,1 Z M-15,11 Z M-16,12 Z M-8,15 Z " fill="#CC2847" transform="translate(432,275)"/>
<path d="M0,0 L4,1 L1,1 L1,3 L5,4 L7,5 L8,31 L9,32 L9,37 L11,37 L13,44 L18,43 L19,45 L19,62 L21,63 L21,77 L19,97 L17,93 L14,108 L17,109 L16,116 L13,117 L11,103 L12,102 L13,84 L16,83 L16,78 L13,78 L13,83 L10,80 L8,80 L9,71 L7,67 L7,61 L8,59 L7,54 L5,54 L5,40 L-2,40 L-2,34 L0,34 L0,32 L-2,32 L-2,26 L0,26 L0,16 L-2,16 L-2,4 L0,4 Z " fill="#4E0004" transform="translate(248,618)"/>
<path d="M0,0 L6,0 L7,2 L7,9 L5,9 L3,14 L2,15 L-5,16 L-10,18 L-14,20 L-21,22 L-22,24 L-33,26 L-34,29 L-38,28 L-38,31 L-47,32 L-54,32 L-54,30 L-52,29 L-61,27 L-62,21 L-64,20 L-53,20 L-47,17 L-43,15 L-40,15 L-38,17 L-33,15 L-29,15 L-28,11 L-26,9 L-30,9 L-30,7 L-38,9 L-38,7 L-43,8 L-43,4 L-40,2 L-37,2 L-37,6 L-33,6 L-33,4 L-29,4 L-29,7 L-24,8 L-22,10 L-17,9 L-13,8 L-13,3 L-16,2 L-12,2 L-12,8 L-10,8 L-10,2 L-4,2 L-4,6 L-2,6 L-2,2 L0,2 Z M-10,16 Z M-46,28 Z M-33,13 Z M-34,14 Z " fill="#970006" transform="translate(652,596)"/>
<path d="M0,0 L2,0 L5,9 L7,9 L9,18 L12,20 L13,26 L15,26 L15,29 L17,29 L17,36 L19,36 L21,40 L20,44 L24,43 L24,45 L26,45 L26,47 L30,48 L30,50 L32,50 L34,48 L34,52 L36,52 L36,47 L37,47 L37,53 L35,53 L35,59 L29,59 L29,67 L27,67 L28,73 L22,71 L20,70 L20,68 L14,71 L13,64 L14,56 L14,51 L12,51 L11,56 L10,56 L10,39 L4,40 L4,29 L1,18 L1,14 L-1,14 L-2,7 L0,7 Z " fill="#7C000B" transform="translate(265,603)"/>
<path d="M0,0 L6,1 L6,4 L13,4 L13,6 L24,2 L24,4 L28,4 L30,3 L30,5 L36,0 L42,1 L40,6 L36,6 L34,9 L29,10 L26,11 L16,12 L2,12 L2,10 L-8,10 L-8,14 L4,14 L3,16 L-19,17 L-24,18 L-30,23 L-35,24 L-35,15 L-40,15 L-40,9 L-44,9 L-44,3 L-38,3 L-38,9 L-36,9 L-36,1 L-35,1 L-34,7 L-31,4 L-26,3 L-21,1 L-16,2 L-3,2 Z " fill="#68000A" transform="translate(574,651)"/>
<path d="M0,0 L4,1 L1,7 L-2,9 L2,10 L2,12 L-4,12 L-7,11 L-16,13 L-19,16 L-22,16 L-18,17 L-13,18 L-13,20 L-20,20 L-20,23 L-26,23 L-26,25 L-30,25 L-30,27 L-40,27 L-40,29 L-89,30 L-90,27 L-98,26 L-98,25 L-91,24 L-89,22 L-84,24 L-84,22 L-87,22 L-87,20 L-90,19 L-84,19 L-84,17 L-76,17 L-78,22 L-72,21 L-71,19 L-44,19 L-43,22 L-40,23 L-40,19 L-33,18 L-29,14 L-20,9 L-18,9 L-18,7 L-9,5 L-3,2 L0,2 Z " fill="#BD0014" transform="translate(504,609)"/>
<path d="M0,0 L36,0 L36,16 L31,18 L30,20 L24,20 L24,24 L16,24 L16,20 L12,20 L12,16 L4,16 L4,12 L-4,12 L-4,4 L0,4 Z " fill="#360001" transform="translate(698,714)"/>
<path d="M0,0 L8,0 L8,2 L16,2 L16,4 L20,4 L20,6 L24,6 L24,8 L28,8 L28,10 L34,10 L40,17 L44,18 L50,25 L54,26 L54,28 L56,28 L56,32 L60,32 L60,40 L62,40 L62,46 L56,46 L56,50 L52,50 L52,54 L48,54 L48,56 L50,56 L50,72 L48,72 L48,76 L52,76 L52,74 L58,74 L58,70 L64,70 L64,74 L66,74 L66,76 L74,76 L74,78 L82,78 L84,83 L87,83 L87,85 L83,86 L80,85 L79,83 L65,80 L62,77 L61,74 L59,78 L52,80 L45,79 L44,72 L45,69 L45,58 L44,54 L48,49 L51,49 L53,44 L56,42 L55,33 L51,31 L41,23 L36,20 L31,15 L24,14 L23,11 L21,9 L23,9 L23,7 L16,8 L19,7 L19,5 L13,8 L2,7 L-4,5 L-11,4 L-11,3 L7,3 L7,1 L0,1 Z M27,12 Z " fill="#AB2940" transform="translate(508,276)"/>
<path d="M0,0 L1,0 L1,29 L3,29 L3,12 L4,12 L5,28 L6,28 L7,42 L5,42 L5,47 L7,47 L8,44 L12,49 L15,41 L17,41 L18,38 L19,38 L20,47 L23,48 L22,54 L24,58 L23,64 L24,69 L21,69 L23,72 L24,79 L25,81 L23,88 L25,88 L28,98 L28,103 L25,103 L23,103 L23,97 L21,97 L21,90 L18,90 L18,84 L16,84 L16,80 L14,80 L14,70 L12,70 L12,66 L10,66 L10,62 L8,62 L8,52 L6,52 L6,48 L4,48 L4,42 L2,42 L2,30 L0,30 Z " fill="#C0213A" transform="translate(258,446)"/>
<path d="M0,0 L47,0 L43,2 L38,3 L37,7 L34,9 L36,3 L26,4 L24,6 L23,4 L20,3 L19,5 L19,3 L12,4 L9,4 L3,4 L-1,7 L-17,11 L-19,13 L-24,13 L-25,19 L-34,27 L-38,32 L-38,34 L-36,35 L-36,37 L-34,38 L-39,43 L-41,48 L-45,48 L-45,53 L-49,53 L-49,57 L-54,57 L-57,55 L-57,49 L-53,47 L-53,45 L-51,45 L-51,39 L-45,39 L-45,41 L-41,41 L-41,39 L-39,39 L-39,37 L-49,37 L-49,31 L-47,31 L-47,27 L-41,27 L-41,25 L-37,25 L-37,23 L-35,23 L-35,21 L-33,21 L-33,19 L-29,19 L-29,11 L-27,11 L-27,9 L-19,9 L-19,7 L-17,7 L-17,5 L-7,5 L-7,3 L0,3 Z " fill="#920014" transform="translate(731,541)"/>
<path d="M0,0 L6,1 L6,3 L8,3 L8,5 L17,5 L18,8 L23,10 L25,14 L30,16 L33,15 L35,22 L44,24 L44,26 L50,27 L50,29 L40,29 L40,26 L29,26 L29,28 L23,28 L23,26 L19,26 L19,30 L13,30 L11,26 L7,26 L7,16 L3,16 L3,12 L1,12 L0,10 Z " fill="#5E0013" transform="translate(615,260)"/>
<path d="M0,0 L2,0 L2,19 L1,25 L-1,25 L1,30 L3,31 L3,39 L-1,39 L-1,41 L1,41 L2,43 L2,72 L0,72 L0,55 L-2,55 L-6,51 L-7,48 L-6,58 L-8,58 L-8,56 L-11,56 L-12,53 L-12,32 L-10,29 L-12,29 L-12,21 L-7,15 L-4,9 L-3,4 L-1,3 Z " fill="#430000" transform="translate(163,427)"/>
<path d="M0,0 L28,0 L30,2 L30,6 L32,6 L32,10 L25,10 L25,1 L1,1 L1,10 L0,11 L0,17 L2,17 L6,32 L6,47 L5,49 L7,49 L7,55 L1,55 L1,50 L-1,49 L-1,39 L-4,39 L-6,35 L-7,44 L-9,41 L-10,31 L-9,23 L-15,21 L-15,19 L-12,19 L-12,12 L-10,12 L-10,8 L-4,8 L-4,10 L-2,10 L-2,2 L0,2 Z " fill="#67000A" transform="translate(264,600)"/>
<path d="M0,0 L3,2 L1,4 L5,8 L11,9 L7,12 L2,15 L-1,17 L-8,17 L-12,13 L-16,11 L-16,19 L-22,20 L-31,20 L-32,17 L-38,18 L-46,16 L-46,18 L-56,19 L-57,18 L-58,21 L-64,22 L-65,23 L-72,23 L-75,25 L-76,21 L-70,21 L-68,17 L-63,14 L-57,11 L-54,12 L-46,11 L-46,9 L-36,8 L-34,11 L-30,12 L-29,11 L-20,10 L-16,8 L-16,6 L-12,6 L-12,8 L-3,8 L-1,2 Z M-1,5 Z M-80,25 L-75,25 L-77,27 Z " fill="#700001" transform="translate(736,606)"/>
<path d="M0,0 L5,0 L0,4 L-2,6 L-7,7 L-7,5 L-12,8 L-20,11 L-23,16 L-29,17 L-29,14 L-37,16 L-34,19 L-36,21 L-28,22 L-31,27 L-33,30 L-34,27 L-40,27 L-40,30 L-54,30 L-53,28 L-43,28 L-43,25 L-54,25 L-54,28 L-56,28 L-57,26 L-59,26 L-59,23 L-63,22 L-51,21 L-51,19 L-49,19 L-51,17 L-51,13 L-39,12 L-35,10 L-33,10 L-29,6 L-29,8 L-27,8 L-26,4 L-22,3 L-12,3 L-11,2 L-2,1 Z M-38,22 Z " fill="#610008" transform="translate(641,649)"/>
<path d="M0,0 L1,0 L1,7 L3,7 L3,2 L4,2 L3,13 L5,13 L5,8 L7,12 L10,15 L11,28 L12,36 L14,38 L14,48 L15,55 L18,56 L18,59 L16,59 L21,67 L23,71 L29,73 L29,75 L34,74 L35,76 L39,77 L39,79 L41,79 L42,77 L54,79 L52,81 L39,81 L39,83 L56,83 L56,84 L38,84 L38,82 L34,82 L34,80 L28,80 L26,76 L20,76 L20,74 L18,74 L18,70 L16,70 L14,65 L12,64 L12,58 L10,58 L10,52 L8,52 L8,38 L6,38 L6,22 L4,22 L4,14 L2,14 L2,8 L0,8 Z M12,48 Z " fill="#A6031B" transform="translate(278,536)"/>
<path d="M0,0 L1,2 L21,3 L25,0 L25,2 L29,0 L29,3 L33,4 L33,6 L35,7 L31,10 L26,11 L21,10 L21,8 L17,10 L1,9 L1,6 L-4,9 L-5,10 L-11,10 L-13,10 L-21,15 L-26,16 L-26,14 L-31,13 L-31,15 L-37,15 L-37,13 L-41,13 L-41,7 L-40,7 L-40,12 L-38,12 L-38,8 L-31,7 L-28,5 L-27,7 L-25,5 L-9,3 Z M-15,3 Z M-28,4 Z " fill="#7F000A" transform="translate(563,635)"/>
<path d="M0,0 L6,1 L7,7 L9,8 L6,11 L8,13 L6,16 L6,23 L3,26 L2,38 L-3,39 L-5,39 L-8,48 L-8,50 L-11,51 L-12,44 L-11,42 L-13,42 L-14,33 L-11,32 L-10,28 L-8,28 L-8,22 L-7,21 L-6,12 L-1,1 Z M2,2 Z M9,6 Z M-13,46 Z " fill="#C91C39" transform="translate(283,408)"/>
<path d="M0,0 L6,0 L6,22 L5,22 L4,12 L-1,14 L-1,11 L-3,11 L-2,16 L-5,15 L-4,18 L-4,28 L-7,29 L-7,25 L-9,25 L-8,35 L-10,44 L-11,45 L-12,56 L-13,57 L-14,79 L-15,89 L-13,89 L-13,81 L-12,81 L-11,88 L-9,93 L-11,97 L-9,97 L-9,95 L-6,95 L-4,98 L-3,105 L-3,109 L-8,106 L-8,102 L-10,102 L-10,98 L-12,98 L-12,94 L-14,94 L-14,90 L-16,90 L-16,80 L-18,80 L-18,50 L-16,50 L-16,42 L-14,42 L-14,34 L-12,34 L-12,30 L-10,30 L-10,24 L-8,24 L-8,18 L-6,18 L-6,14 L-4,14 L-4,10 L-2,10 L-2,2 L0,2 Z " fill="#340000" transform="translate(160,402)"/>
<path d="M0,0 L7,0 L11,2 L11,8 L9,12 L-19,12 L-21,12 L-32,13 L-37,15 L-37,13 L-42,14 L-47,15 L-46,12 L-36,9 L-28,4 L-17,1 Z " fill="#98000A" transform="translate(577,617)"/>
<path d="M0,0 L1,0 L1,14 L4,13 L5,20 L4,21 L4,30 L6,31 L4,40 L7,39 L8,42 L9,38 L12,38 L12,43 L10,44 L9,62 L6,62 L5,53 L7,52 L7,46 L6,44 L3,47 L1,49 L0,60 L1,73 L-2,77 L-4,76 L-6,65 L-8,72 L-9,72 L-9,55 L-6,55 L-6,44 L2,44 L2,40 L0,40 L0,34 L2,34 L0,28 L-4,28 L-4,22 L-2,22 L-2,14 L0,14 Z " fill="#3F0002" transform="translate(252,658)"/>
<path d="M0,0 L3,3 L12,5 L12,7 L17,8 L18,10 L23,10 L26,16 L31,17 L31,19 L34,20 L36,26 L38,26 L38,33 L36,32 L33,33 L28,30 L26,26 L22,24 L21,22 L12,21 L12,19 L10,19 L10,17 L8,17 L6,19 L6,16 L4,16 L4,26 L3,26 L2,16 L0,14 Z " fill="#520011" transform="translate(611,244)"/>
<path d="M0,0 L6,0 L6,2 L24,2 L24,4 L36,4 L36,6 L44,6 L44,8 L48,8 L48,10 L56,10 L56,11 L48,11 L48,13 L53,13 L53,14 L47,14 L45,11 L47,11 L47,9 L44,10 L36,10 L36,9 L43,9 L43,7 L36,8 L-24,8 L-25,9 L-32,10 L-40,10 L-45,9 L-45,11 L-43,12 L-49,11 L-49,13 L-47,14 L-50,15 L-50,13 L-56,13 L-56,12 L-50,12 L-50,10 L-46,10 L-46,8 L-40,8 L-40,6 L-36,6 L-36,4 L-26,4 L-26,2 L0,2 Z " fill="#B1243F" transform="translate(452,264)"/>
<path d="M0,0 L2,1 L2,8 L3,12 L1,16 L3,16 L2,20 L0,20 L-1,30 L-4,31 L-5,40 L-9,44 L-9,42 L-12,44 L-14,50 L-16,62 L-17,62 L-17,47 L-19,47 L-19,62 L-20,62 L-20,46 L-18,46 L-18,42 L-16,42 L-16,36 L-14,36 L-14,28 L-12,28 L-12,24 L-10,24 L-10,20 L-8,20 L-8,16 L-6,16 L-6,10 L-4,10 L-4,6 L-2,6 L-2,2 L0,2 Z " fill="#BC1B36" transform="translate(280,384)"/>
<path d="M0,0 L6,0 L6,1 L1,1 L1,3 L5,3 L5,11 L4,11 L4,4 L-3,3 L-2,13 L-6,17 L-7,14 L-12,14 L-12,17 L-7,17 L-8,20 L-13,19 L-16,16 L-14,11 L-11,10 L-12,7 L-19,6 L-24,8 L-35,8 L-40,12 L-43,11 L-43,7 L-48,8 L-52,6 L-71,7 L-78,6 L-78,5 L-72,4 L-115,3 L-116,6 L-116,2 L-48,2 L-48,4 L-46,4 L-46,6 L-42,6 L-42,8 L-40,8 L-40,4 L-24,4 L-24,2 L-10,2 L-10,4 L-6,4 L-6,10 L-8,10 L-8,12 L-4,12 L-4,2 L0,2 Z " fill="#610016" transform="translate(846,538)"/>
<path d="M0,0 L3,2 L9,2 L9,5 L4,10 L-3,13 L-10,16 L-26,16 L-26,23 L-32,23 L-32,17 L-38,17 L-38,19 L-40,19 L-40,21 L-44,21 L-44,23 L-46,23 L-46,25 L-54,25 L-54,24 L-47,24 L-47,22 L-56,22 L-56,20 L-51,17 L-46,15 L-39,14 L-32,16 L-32,14 L-38,14 L-34,11 L-26,12 L-21,11 L-17,9 L-10,10 L-10,7 L-7,5 L-6,2 Z " fill="#AC0010" transform="translate(538,605)"/>
<path d="M0,0 L6,0 L6,2 L10,2 L14,7 L22,8 L24,11 L36,12 L36,10 L40,10 L40,8 L54,8 L54,10 L58,10 L58,12 L62,12 L62,14 L66,14 L68,17 L72,18 L72,22 L74,22 L78,26 L78,32 L76,32 L76,34 L78,34 L78,40 L74,40 L74,44 L78,44 L78,52 L70,52 L70,51 L77,51 L70,49 L72,48 L73,39 L77,39 L77,35 L75,35 L75,37 L73,37 L72,32 L74,32 L73,28 L71,27 L70,22 L67,22 L62,22 L63,18 L61,18 L61,16 L59,16 L59,13 L55,14 L52,12 L46,13 L46,11 L43,13 L40,13 L39,16 L27,18 L27,16 L22,15 L22,12 L12,11 L9,7 L5,5 L3,6 L3,3 L5,3 L5,1 L1,1 L1,6 L0,6 Z M6,3 Z M61,15 Z " fill="#350001" transform="translate(670,262)"/>
<path d="M0,0 L4,1 L1,1 L1,3 L3,3 L1,7 L-6,14 L-8,24 L-5,25 L-6,28 L-4,28 L-4,35 L-1,34 L0,41 L2,41 L5,46 L8,46 L10,50 L14,54 L15,63 L16,66 L13,67 L9,71 L9,69 L7,69 L7,67 L9,67 L10,54 L6,54 L0,47 L-2,46 L-2,42 L-6,42 L-6,38 L-8,38 L-8,34 L-10,34 L-10,30 L-12,30 L-12,26 L-14,26 L-14,18 L-12,18 L-12,12 L-10,12 L-10,8 L-6,8 L-4,4 L-2,4 L-2,2 L0,2 Z M-1,41 Z M13,64 Z " fill="#A5263B" transform="translate(380,286)"/>
<path d="M0,0 L14,0 L20,2 L34,3 L40,4 L47,4 L49,5 L49,7 L56,7 L68,10 L75,9 L79,8 L80,10 L83,10 L82,15 L80,19 L76,19 L76,17 L70,17 L66,18 L63,16 L55,16 L50,15 L47,12 L47,10 L42,10 L42,8 L34,8 L30,7 L30,5 L22,5 L16,4 L16,3 L-10,2 L-10,1 Z " fill="#C12946" transform="translate(448,273)"/>
<path d="M0,0 L10,0 L10,11 L7,13 L4,13 L1,15 L-2,15 L-2,13 L-25,13 L-26,10 L-22,10 L-24,8 L-26,7 L-26,3 L-30,3 L-30,1 L-22,1 L-22,4 L-18,2 L-18,4 L-14,2 L-10,1 L-10,3 L-6,1 L-6,3 L-1,1 Z " fill="#470000" transform="translate(334,762)"/>
<path d="M0,0 L4,0 L4,2 L6,2 L6,0 L20,0 L20,1 L7,1 L7,3 L22,3 L23,0 L25,0 L25,2 L44,2 L44,3 L53,3 L55,5 L37,5 L37,7 L58,6 L56,7 L56,9 L64,10 L59,17 L44,17 L44,13 L59,13 L59,10 L55,10 L55,8 L37,8 L37,12 L19,12 L19,6 L21,6 L21,4 L7,4 L7,8 L1,8 L1,4 L-3,3 L0,3 Z M53,2 Z " fill="#440101" transform="translate(531,742)"/>
<path d="M0,0 L6,0 L6,4 L11,3 L19,2 L23,2 L22,9 L29,9 L30,12 L28,13 L-2,13 L-2,16 L-8,16 L-8,18 L-10,18 L-10,20 L-17,21 L-18,18 L-13,16 L-8,11 L-1,10 L-1,7 L-7,6 L-6,1 Z M-8,6 Z " fill="#3B0005" transform="translate(686,660)"/>
<path d="M0,0 L2,0 L3,3 L5,1 L7,1 L8,6 L6,13 L6,15 L8,17 L6,23 L-1,29 L-3,36 L-5,41 L-6,50 L-8,57 L-10,57 L-11,62 L-13,62 L-15,67 L-19,67 L-18,55 L-15,48 L-10,46 L-8,41 L-7,36 L-5,35 L-3,25 L-1,24 L0,21 L-2,21 L-1,14 L-2,12 L-2,6 Z M3,18 Z M0,28 Z M-1,29 Z " fill="#C21C37" transform="translate(283,379)"/>
<path d="M0,0 L4,2 L5,4 L13,3 L17,8 L25,7 L26,11 L25,14 L27,17 L36,18 L36,19 L28,19 L28,21 L37,21 L37,22 L27,22 L27,20 L19,20 L19,22 L9,22 L9,20 L-3,20 L-3,18 L-23,18 L-23,17 L-3,17 L-3,12 L-1,11 L2,14 L5,15 L5,17 L-2,17 L-2,19 L9,18 L11,17 L9,16 L10,13 L12,13 L3,10 L3,8 L-1,8 L-1,2 Z " fill="#BB0A23" transform="translate(387,618)"/>
<path d="M0,0 L8,0 L6,5 L12,4 L13,2 L40,2 L41,5 L53,7 L53,9 L44,9 L38,8 L38,6 L34,7 L33,6 L20,6 L16,7 L16,9 L43,9 L43,11 L4,11 L4,13 L-5,13 L-6,10 L-14,9 L-14,8 L-7,7 L-5,5 L0,7 L0,5 L-3,5 L-3,3 L-6,2 L0,2 Z " fill="#BB061D" transform="translate(420,626)"/>
<path d="M0,0 L1,0 L1,9 L9,8 L10,7 L15,7 L14,10 L19,8 L22,7 L26,8 L29,7 L40,6 L42,5 L43,8 L40,11 L29,12 L27,17 L21,20 L18,20 L16,21 L9,21 L9,25 L7,25 L7,20 L0,20 L0,14 L6,14 L6,12 L8,12 L8,10 L0,10 Z M19,17 Z " fill="#8E000E" transform="translate(516,622)"/>
<path d="M0,0 L7,0 L9,2 L8,10 L11,10 L11,15 L13,15 L15,19 L15,22 L21,23 L22,26 L20,27 L22,29 L22,34 L27,35 L29,36 L28,43 L32,42 L32,48 L34,48 L34,40 L35,40 L36,53 L30,51 L30,49 L26,48 L26,46 L20,45 L20,40 L19,37 L17,37 L17,30 L13,29 L11,21 L8,19 L7,10 L5,10 L2,3 L2,1 Z " fill="#87000E" transform="translate(265,602)"/>
<path d="M0,0 L12,0 L12,2 L16,2 L16,4 L20,4 L24,9 L28,10 L28,12 L32,12 L32,14 L36,14 L36,17 L39,17 L39,19 L33,19 L24,15 L22,16 L18,15 L17,9 L13,7 L4,7 L1,7 L-5,11 L-11,19 L-15,22 L-15,17 L-17,17 L-17,22 L-18,22 L-18,16 L-14,16 L-13,11 L-8,6 L-6,6 L-6,4 L-2,4 L-2,2 L0,2 Z M4,4 Z " fill="#B22B3F" transform="translate(300,362)"/>
<path d="M0,0 L16,0 L16,9 L23,9 L23,17 L25,17 L25,21 L27,21 L28,29 L28,40 L26,40 L25,36 L23,36 L23,30 L20,30 L19,26 L18,21 L14,20 L14,18 L11,17 L10,9 L8,8 L7,3 L0,1 Z " fill="#9C0014" transform="translate(273,601)"/>
<path d="M0,0 L3,0 L3,2 L5,2 L7,7 L8,16 L13,17 L15,24 L17,28 L19,29 L19,35 L21,35 L21,28 L22,28 L22,36 L20,36 L21,42 L15,40 L13,39 L13,37 L7,40 L6,33 L7,25 L7,20 L5,20 L4,25 L3,25 L3,8 L0,8 Z " fill="#700008" transform="translate(272,634)"/>
<path d="M0,0 L4,0 L4,2 L1,2 L1,7 L-3,7 L-3,9 L-1,9 L-1,25 L-3,25 L-3,29 L1,29 L1,27 L7,27 L7,23 L13,23 L13,27 L15,27 L15,29 L23,29 L23,31 L31,31 L33,36 L36,36 L36,38 L32,39 L29,38 L28,36 L14,33 L11,30 L10,27 L8,31 L1,33 L-6,32 L-7,25 L-6,22 L-6,11 L-7,7 L-3,2 L0,2 Z " fill="#AC3147" transform="translate(559,323)"/>
<path d="M0,0 L1,0 L1,9 L3,9 L3,2 L4,2 L6,9 L9,10 L9,14 L12,15 L15,20 L16,27 L17,29 L15,36 L17,36 L20,46 L20,51 L17,51 L15,51 L15,45 L13,45 L13,38 L10,38 L10,32 L8,32 L8,28 L6,28 L6,18 L4,18 L4,14 L2,14 L2,10 L0,10 Z " fill="#BA182F" transform="translate(266,498)"/>
<path d="M0,0 L2,0 L2,3 L4,3 L4,0 L6,0 L6,3 L8,3 L8,0 L17,2 L17,5 L22,3 L23,7 L20,8 L11,7 L10,6 L0,6 L-14,7 L-16,8 L-18,7 L-18,5 L-28,8 L-34,10 L-36,9 L-35,6 L-32,4 L-18,3 L-18,1 L-2,1 L-2,3 L0,3 Z M-28,8 Z " fill="#D42849" transform="translate(452,282)"/>
<path d="M0,0 L2,0 L2,4 L7,6 L7,14 L3,14 L3,16 L5,16 L6,18 L6,47 L4,47 L4,30 L2,30 L-2,26 L-2,20 L-4,20 L-3,15 L-2,6 Z " fill="#4A0001" transform="translate(159,452)"/>
<path d="M0,0 L3,0 L5,3 L15,3 L22,1 L26,0 L26,2 L23,4 L16,5 L15,7 L13,7 L13,5 L11,5 L11,7 L7,7 L-2,8 L-11,9 L-21,11 L-25,13 L-27,17 L-33,19 L-37,21 L-35,17 L-32,13 L-27,13 L-27,10 L-22,8 L-20,6 L-13,5 L-10,4 L-10,2 L-1,1 Z " fill="#600004" transform="translate(683,631)"/>
<path d="M0,0 L1,0 L1,5 L10,5 L11,3 L13,4 L13,6 L15,7 L10,12 L8,17 L4,17 L4,22 L0,22 L0,26 L-5,26 L-8,24 L-8,18 L-4,16 L-4,14 L-2,14 L-2,8 L4,8 L4,10 L8,10 L8,8 L10,8 L10,6 L0,6 Z " fill="#8E000D" transform="translate(682,572)"/>
<path d="M0,0 L2,3 L4,4 L1,7 L3,9 L1,12 L1,19 L-2,22 L-3,34 L-8,35 L-10,33 L-10,22 L-8,20 L-7,10 Z M4,2 Z " fill="#D11C3B" transform="translate(288,412)"/>
<path d="M0,0 L1,0 L1,7 L3,7 L3,2 L4,2 L3,13 L5,13 L5,8 L7,12 L10,15 L11,28 L12,36 L14,38 L14,47 L12,48 L11,51 L9,51 L8,39 L6,38 L6,22 L4,22 L4,14 L2,14 L2,8 L0,8 Z " fill="#B90B24" transform="translate(278,536)"/>
<path d="M0,0 L2,4 L2,6 L5,6 L5,16 L8,17 L7,22 L11,23 L12,30 L9,32 L8,28 L3,29 L1,25 L1,22 L-1,22 L-1,17 L-3,16 L-3,8 L-2,8 Z " fill="#5A0008" transform="translate(258,633)"/>
<path d="M0,0 L14,0 L14,2 L27,2 L33,3 L36,0 L37,3 L42,4 L40,8 L35,9 L33,7 L31,8 L31,6 L26,8 L21,7 L17,7 L1,6 L2,3 L-1,2 Z " fill="#D4001A" transform="translate(418,605)"/>
<path d="M0,0 L47,0 L43,2 L38,3 L37,7 L34,9 L36,3 L26,4 L24,6 L23,4 L20,3 L19,5 L19,3 L12,4 L9,4 L3,4 L-1,7 L-7,8 L-7,6 L-16,6 L-16,8 L-19,9 L-19,7 L-17,7 L-17,5 L-7,5 L-7,3 L0,3 Z " fill="#8E0015" transform="translate(731,541)"/>
<path d="M0,0 L33,0 L33,1 L46,3 L43,5 L31,3 L16,3 L0,4 L-10,5 L-10,7 L-16,7 L-18,11 L-28,13 L-28,10 L-22,6 L-15,4 L-14,3 L-2,1 Z " fill="#C52745" transform="translate(432,275)"/>
<path d="M0,0 L1,0 L1,8 L5,8 L5,16 L3,16 L3,22 L1,22 L1,32 L-3,31 L0,31 L0,22 L-2,22 L-3,19 L-4,24 L-2,24 L-2,29 L-5,28 L-5,26 L-8,25 L-8,28 L-12,28 L-12,20 L-10,20 L-10,18 L-4,16 L-3,11 L-1,11 Z " fill="#3E000A" transform="translate(739,314)"/>
<path d="M0,0 L6,0 L6,1 L1,1 L1,3 L5,4 L-25,3 L-25,5 L0,5 L0,6 L-24,8 L-25,9 L-32,10 L-40,10 L-45,9 L-45,11 L-43,12 L-49,11 L-49,13 L-47,14 L-50,15 L-50,13 L-56,13 L-56,12 L-50,12 L-50,10 L-46,10 L-46,8 L-40,8 L-40,6 L-36,6 L-36,4 L-26,4 L-26,2 L0,2 Z " fill="#A32039" transform="translate(452,264)"/>
<path d="M0,0 L3,2 L5,1 L6,5 L12,9 L16,11 L16,13 L25,15 L25,16 L18,16 L18,18 L28,17 L26,18 L26,20 L29,21 L25,21 L25,19 L17,19 L17,17 L12,16 L9,13 L9,11 L5,11 L5,9 L-1,9 L-1,6 L-18,6 L-18,4 L-5,3 Z " fill="#B2152B" transform="translate(335,613)"/>
<path d="M0,0 L1,0 L1,5 L19,6 L18,8 L-4,9 L-9,10 L-15,15 L-20,16 L-18,7 L-11,5 L-7,1 L-2,2 Z " fill="#5F000A" transform="translate(559,659)"/>
<path d="M0,0 L3,0 L2,4 L-7,12 L-16,12 L-18,15 L-20,21 L-21,23 L-23,23 L-25,19 L-25,17 L-23,17 L-24,8 L-25,6 L-22,6 L-22,4 L-25,3 L-21,3 L-21,5 L-17,5 L-17,7 L-5,6 L-4,4 L-2,4 L-2,2 L0,2 Z M-9,12 Z " fill="#AD2038" transform="translate(361,375)"/>
<path d="M0,0 L3,0 L4,2 L7,2 L6,7 L4,11 L0,11 L0,9 L-6,9 L-10,10 L-13,8 L-21,8 L-26,7 L-26,5 L-22,4 L-20,5 L-19,3 L-3,2 Z " fill="#C12C49" transform="translate(524,281)"/>
<path d="M0,0 L2,0 L2,2 L0,2 Z M-4,0 L0,2 L0,10 L4,10 L4,7 L8,8 L8,10 L10,11 L10,6 L8,6 L8,1 L10,0 L10,4 L12,4 L12,13 L9,13 L9,16 L1,16 L1,12 L-9,12 L-10,3 L-6,3 L-6,6 L-3,6 Z " fill="#46000D" transform="translate(727,332)"/>
<path d="M0,0 L4,0 L5,13 L4,16 L-12,16 L-12,8 L-4,8 L-4,4 L0,4 Z " fill="#ED0026" transform="translate(460,444)"/>
<path d="M0,0 L10,1 L10,3 L16,3 L16,5 L24,5 L24,3 L38,3 L38,6 L49,6 L48,9 L38,9 L37,10 L32,10 L32,7 L26,7 L22,9 L15,8 L9,6 L0,3 Z " fill="#6D0005" transform="translate(310,725)"/>
<path d="M0,0 L6,0 L7,2 L7,9 L5,9 L3,14 L2,15 L-5,16 L-10,18 L-7,12 L-4,12 L-5,10 L-9,9 L-9,3 L-5,3 L-5,6 L-2,6 L-2,2 L0,2 Z " fill="#92000A" transform="translate(652,596)"/>
<path d="M0,0 L2,4 L6,5 L7,10 L9,10 L9,12 L13,12 L13,14 L9,14 L9,19 L3,19 L1,15 L-3,15 L-3,4 L-6,4 L-6,2 Z " fill="#6E0016" transform="translate(625,271)"/>
<path d="M0,0 L4,0 L4,4 L10,4 L10,8 L12,8 L12,12 L16,12 L16,16 L18,16 L18,20 L20,20 L21,27 L23,27 L22,35 L21,33 L19,33 L19,35 L15,33 L16,30 L18,30 L17,24 L12,20 L13,16 L9,14 L6,9 L3,9 L1,5 L0,3 L3,3 L3,1 Z " fill="#BB1630" transform="translate(592,358)"/>
<path d="M0,0 L6,0 L6,3 L16,3 L15,6 L12,6 L12,8 L10,8 L10,6 L6,6 L6,4 L0,6 L-4,10 L-9,9 L-12,16 L-16,18 L-17,17 L-17,4 L-16,4 L-16,14 L-14,14 L-14,4 L-8,4 L-8,6 L-4,6 L-4,2 L0,2 Z " fill="#5B0014" transform="translate(870,536)"/>
<path d="M0,0 L2,1 L2,8 L3,12 L1,16 L3,16 L2,20 L0,20 L0,25 L-5,27 L-6,24 L-9,23 L-8,16 L-6,16 L-6,10 L-4,10 L-4,6 L-2,6 L-2,2 L0,2 Z " fill="#BA1E38" transform="translate(280,384)"/>
<path d="M0,0 L5,1 L4,13 L1,16 L-4,16 L-4,19 L-13,22 L-18,21 L-18,16 L-16,16 L-16,13 L0,13 L0,3 L-4,2 L0,2 Z " fill="#860008" transform="translate(690,587)"/>
<path d="M0,0 L2,0 L2,3 L8,3 L8,4 L2,4 L2,6 L-2,6 L-2,8 L-12,8 L-12,10 L-52,10 L-52,9 L-13,9 L-13,7 L-40,7 L-40,5 L-36,3 L-23,3 L-18,4 L-18,6 L-3,7 L-3,5 L-12,5 L-12,4 L-2,4 L1,5 L1,3 L-1,2 Z " fill="#A40518" transform="translate(476,628)"/>
<path d="M0,0 L2,0 L2,3 L4,4 L5,2 L4,10 L6,17 L4,31 L6,37 L7,42 L5,43 L4,41 L3,43 L1,43 L1,38 L2,37 L1,25 L0,25 Z " fill="#B9253E" transform="translate(262,450)"/>
<path d="M0,0 L1,0 L1,7 L3,7 L3,0 L4,0 L4,8 L2,8 L2,18 L-2,18 L-2,20 L-4,20 L-4,24 L-6,24 L-6,32 L-11,32 L-11,37 L-13,37 L-13,33 L-15,32 L-11,28 L-8,20 L-6,15 L-8,15 L-7,13 L-4,12 L-3,8 L-1,8 L-1,17 L1,17 L0,8 L-1,4 Z " fill="#9E0D25" transform="translate(648,530)"/>
<path d="M0,0 L2,0 L2,7 L7,7 L7,27 L9,27 L9,39 L8,39 L8,28 L6,28 L6,36 L5,36 L3,27 L1,26 L0,14 L1,8 L-1,7 Z " fill="#AE1429" transform="translate(633,425)"/>
<path d="M0,0 L3,1 L6,8 L8,12 L8,18 L10,18 L12,22 L12,26 L14,26 L14,34 L13,36 L15,36 L14,40 L11,39 L10,29 L8,29 L6,19 L3,15 L1,10 L0,9 Z " fill="#680009" transform="translate(256,613)"/>
<path d="M0,0 L1,0 L1,6 L-1,6 L-1,14 L-3,14 L-3,18 L-7,18 L-7,22 L-11,22 L-11,26 L-16,26 L-16,32 L-18,32 L-19,30 L-19,24 L-14,19 L-12,19 L-12,17 L-9,14 L-6,13 L-4,4 L-2,1 L-2,5 L0,5 Z " fill="#B90312" transform="translate(637,562)"/>
<path d="M0,0 L9,1 L9,3 L13,3 L13,10 L1,11 L0,6 L-1,8 L-9,10 L-7,5 Z " fill="#480006" transform="translate(679,650)"/>
<path d="M0,0 L4,1 L1,1 L1,3 L5,4 L7,5 L7,23 L3,24 L3,21 L1,21 L0,17 L-2,16 L-2,4 L0,4 Z " fill="#580009" transform="translate(248,618)"/>
<path d="M0,0 L68,0 L69,5 L63,4 L45,5 L38,4 L38,3 L44,2 L1,1 L0,4 Z " fill="#670115" transform="translate(730,540)"/>
<path d="M0,0 L2,0 L3,3 L5,3 L2,13 L-1,13 L-6,17 L-14,16 L-15,17 L-15,22 L-15,25 L-18,25 L-18,15 L-17,9 L-11,9 L-9,12 L-5,13 L-5,11 L-3,11 L-3,7 L1,7 Z " fill="#5A0005" transform="translate(523,701)"/>
<path d="M0,0 L12,0 L12,1 L1,1 L1,3 L21,1 L26,1 L23,6 L21,9 L20,6 L14,6 L14,9 L0,9 L1,7 L11,7 L11,4 L0,4 L0,7 L-2,7 L-3,5 L-5,5 L-5,2 L-9,1 Z " fill="#560007" transform="translate(587,670)"/>
<path d="M0,0 L1,0 L1,6 L13,6 L13,12 L-1,12 L-1,14 L-9,14 L-9,12 L-11,11 L-9,11 L-8,8 L0,7 Z " fill="#310100" transform="translate(497,766)"/>
<path d="M0,0 Z M-1,1 L0,4 L4,5 L3,6 L11,7 L11,9 L4,9 L4,11 L-2,11 L-2,8 L-4,8 L-3,13 L-16,12 L-16,8 L-9,7 L-5,3 Z " fill="#BA0318" transform="translate(480,620)"/>
<path d="M0,0 L5,2 L5,9 L7,9 L7,11 L9,12 L7,16 L15,15 L15,18 L15,20 L5,21 L1,17 L1,15 L-3,14 L0,12 L1,6 L4,6 L4,4 L-2,2 Z " fill="#C40722" transform="translate(399,606)"/>
<path d="M0,0 L3,1 L4,3 L7,4 L7,6 L0,6 L0,8 L11,7 L38,7 L38,8 L30,8 L30,10 L39,10 L39,11 L29,11 L29,9 L21,9 L21,11 L11,11 L11,9 L-1,9 L-1,7 L-21,7 L-21,6 L-1,6 L-1,1 Z " fill="#9F0B20" transform="translate(385,629)"/>
<path d="M0,0 L1,0 L1,6 L3,6 L3,12 L6,10 L9,10 L9,8 L15,8 L15,11 L18,11 L18,16 L13,19 L7,20 L6,16 L2,15 L2,7 L0,7 L-1,9 L-2,6 L0,6 Z " fill="#9D000A" transform="translate(621,588)"/>
<path d="M0,0 L22,0 L22,6 L0,6 Z " fill="#340001" transform="translate(432,162)"/>
<path d="M0,0 L4,4 L6,7 L16,8 L16,11 L19,12 L22,19 L21,22 L19,22 L19,20 L17,20 L15,15 L12,14 L10,11 L4,12 L4,14 L7,15 L3,15 L3,11 L1,11 L0,9 Z " fill="#620014" transform="translate(615,261)"/>
<path d="M0,0 L6,0 L6,2 L10,2 L10,4 L18,4 L18,6 L26,6 L29,10 L26,10 L24,12 L24,10 L22,9 L24,8 L18,8 L13,9 L9,8 L9,14 L8,14 L8,8 L4,8 L4,6 L0,6 Z " fill="#36000F" transform="translate(598,224)"/>
<path d="M0,0 L1,0 L1,29 L3,29 L3,12 L4,12 L5,28 L6,28 L7,42 L5,42 L5,47 L7,47 L8,44 L10,47 L9,51 L9,48 L7,48 L6,52 L6,48 L4,48 L4,42 L2,42 L2,30 L0,30 Z " fill="#A22237" transform="translate(258,446)"/>
<path d="M0,0 L3,1 L3,3 L8,2 L9,4 L13,5 L13,7 L15,7 L16,5 L28,7 L26,9 L13,9 L13,11 L30,11 L30,12 L12,12 L12,10 L8,10 L8,8 L2,8 Z " fill="#A30D22" transform="translate(304,608)"/>
<path d="M0,0 L6,0 L6,4 L8,4 L8,6 L16,6 L16,8 L24,8 L26,13 L29,13 L29,15 L25,16 L22,15 L21,13 L7,10 L4,7 L5,1 L1,1 L0,4 Z " fill="#A52940" transform="translate(566,346)"/>
<path d="M0,0 L1,0 L1,9 L3,9 L3,2 L4,2 L6,9 L9,10 L9,14 L12,15 L15,20 L14,23 L10,22 L9,27 L7,27 L7,18 L4,18 L4,14 L2,14 L2,10 L0,10 Z " fill="#BC1F37" transform="translate(266,498)"/>
<path d="M0,0 L4,1 L1,1 L1,3 L-1,3 L-1,5 L-3,5 L-3,7 L-1,8 L-5,13 L-6,17 L-15,17 L-14,8 L-8,8 L-8,6 L-4,6 L-4,4 L-2,4 L-2,2 L0,2 Z " fill="#8D0012" transform="translate(698,560)"/>
<path d="M0,0 L1,0 L1,6 L9,8 L9,4 L13,4 L13,0 L17,0 L17,10 L1,10 L1,12 L-1,12 L-1,10 L-5,10 L-5,8 L-1,8 L-1,2 Z " fill="#180001" transform="translate(673,590)"/>
<path d="M0,0 L2,0 L2,11 L4,11 L4,29 L-1,28 L-2,8 L0,8 Z " fill="#B91D33" transform="translate(639,453)"/>
<path d="M0,0 L4,1 L1,1 L1,3 L3,3 L1,7 L-6,14 L-8,14 L-8,19 L-11,21 L-11,19 L-13,19 L-13,26 L-14,26 L-14,18 L-12,18 L-12,12 L-10,12 L-10,8 L-6,8 L-4,4 L-2,4 L-2,2 L0,2 Z " fill="#AA273C" transform="translate(380,286)"/>
<path d="M0,0 L3,0 L3,2 L10,3 L14,5 L10,6 L9,8 L12,9 L9,11 L-2,11 L-2,9 L5,9 L5,7 L1,6 L1,4 L-2,4 L-3,6 L-9,6 L-7,3 Z " fill="#BA112A" transform="translate(387,626)"/>
<path d="M0,0 L2,4 L5,3 L5,8 L1,8 L1,10 L-3,10 L-3,6 L-9,8 L-8,11 L-4,11 L-4,13 L-11,14 L-12,6 L-14,4 L-9,2 L-4,2 L-3,5 L0,5 Z " fill="#B3010C" transform="translate(618,592)"/>
<path d="M0,0 L1,0 L1,10 L0,11 L-1,24 L-4,25 L-5,18 L-4,16 L-6,16 L-7,7 L-4,6 L-3,2 Z M-6,20 Z " fill="#C61F3B" transform="translate(276,434)"/>
<path d="M0,0 L9,1 L5,4 L0,6 L-1,7 L-11,7 L-14,6 L-14,8 L-12,8 L-12,10 L-14,10 L-14,12 L-16,12 L-16,14 L-20,14 L-20,12 L-23,13 L-23,11 L-21,11 L-21,9 L-17,9 L-17,7 L-15,7 L-15,5 L-5,4 L-5,6 L-3,5 L-4,2 L0,2 Z " fill="#B4243E" transform="translate(407,273)"/>
<path d="M0,0 L7,1 L7,9 L0,9 L0,12 L-2,12 L-6,8 L-6,6 L-8,6 L-8,1 L-6,1 L-5,5 L-3,6 L-2,1 Z " fill="#790004" transform="translate(309,713)"/>
<path d="M0,0 L4,2 L5,4 L13,3 L15,7 L13,7 L13,10 L15,10 L15,12 L8,11 L3,10 L3,8 L-1,8 L-1,2 Z " fill="#C00D27" transform="translate(387,618)"/>
<path d="M0,0 L28,0 L30,2 L30,6 L32,6 L32,10 L25,10 L25,1 L1,1 L1,10 L-1,10 L-1,2 Z " fill="#7C0111" transform="translate(264,600)"/>
<path d="M0,0 L2,1 L-3,2 L-5,6 L-12,7 L-15,10 L-20,11 L-21,14 L-25,13 L-29,14 L-31,13 L-31,11 L-25,9 L-25,11 L-21,11 L-21,9 L-19,9 L-19,7 L-17,7 L-17,5 L-19,5 L-19,3 L-6,3 L-4,1 Z " fill="#BA2741" transform="translate(412,276)"/>
<path d="M0,0 L6,0 L6,2 L10,2 L14,7 L22,8 L24,11 L36,12 L36,13 L24,14 L22,15 L22,12 L12,11 L9,7 L5,5 L3,6 L3,3 L5,3 L5,1 L1,1 L1,6 L0,6 Z M6,3 Z " fill="#2F000A" transform="translate(670,262)"/>
<path d="M0,0 L2,1 L1,7 L-3,7 L-3,9 L-5,9 L-5,11 L-13,11 L-13,10 L-6,10 L-6,8 L-15,8 L-15,6 L-10,3 L-5,1 Z " fill="#AF0114" transform="translate(497,619)"/>
<path d="M0,0 L16,0 L17,9 L22,10 L22,17 L20,17 L20,12 L16,12 L15,16 L15,14 L12,14 L13,10 L14,7 L11,7 L12,3 L0,1 Z " fill="#A80017" transform="translate(273,601)"/>
<path d="M0,0 L4,1 L1,1 L1,3 L3,3 L1,7 L-5,15 L-9,18 L-9,13 L-11,13 L-11,18 L-12,18 L-12,12 L-8,12 L-7,7 L-2,2 L0,2 Z " fill="#B6293F" transform="translate(294,366)"/>
<path d="M0,0 L8,0 L17,2 L15,3 L16,8 L19,9 L20,17 L22,18 L22,20 L18,18 L15,11 L15,8 L8,7 L7,2 L0,1 Z " fill="#950013" transform="translate(265,601)"/>
<path d="M0,0 L2,0 L3,3 L5,1 L7,1 L8,6 L6,13 L-1,14 L-2,12 L-2,6 Z " fill="#BA243D" transform="translate(283,379)"/>
<path d="M0,0 L4,0 L4,4 L10,4 L10,8 L12,8 L12,13 L15,13 L14,19 L12,20 L13,16 L9,14 L6,9 L3,9 L1,5 L0,3 L3,3 L3,1 Z " fill="#A71F38" transform="translate(592,358)"/>
<path d="M0,0 L2,0 L2,10 L1,11 L-1,20 L-5,20 L-4,8 L-1,1 Z " fill="#BC1D37" transform="translate(269,426)"/>
<path d="M0,0 L1,0 L1,7 L3,7 L3,2 L4,2 L3,13 L5,13 L5,8 L7,12 L8,13 L9,22 L7,22 L7,38 L6,38 L6,22 L4,22 L4,14 L2,14 L2,8 L0,8 Z " fill="#A01125" transform="translate(278,536)"/>
<path d="M0,0 L3,1 L5,8 L6,15 L3,16 L-1,20 L-1,18 L-3,18 L-3,16 L-1,16 L0,3 L-4,2 L0,2 Z M3,13 Z " fill="#BA213C" transform="translate(390,337)"/>
<path d="M0,0 L10,0 L22,1 L22,2 L10,2 L10,4 L0,4 L0,2 L-30,2 L-30,1 Z " fill="#2F0003" transform="translate(714,672)"/>
<path d="M0,0 L3,2 L-2,9 L-5,8 L-6,12 L-10,12 L-10,14 L-14,15 L-14,10 L-4,3 Z " fill="#560000" transform="translate(752,626)"/>
<path d="M0,0 L6,0 L6,9 L4,9 L4,2 L2,7 L3,10 L-3,9 L-7,8 L-9,7 L-9,4 L-1,3 Z " fill="#750005" transform="translate(303,703)"/>
<path d="M0,0 L1,3 L3,3 L4,1 L6,2 L5,8 L2,16 L-1,16 L-1,9 L-3,9 L-3,16 L-4,16 L-4,8 L-2,8 L-2,4 L0,4 Z " fill="#B91B36" transform="translate(270,404)"/>
<path d="M0,0 L10,0 L11,2 L14,2 L14,4 L4,6 L2,5 L-3,8 L-6,6 L-6,4 L0,2 Z M3,3 Z " fill="#B92E44" transform="translate(301,363)"/>
<path d="M0,0 L4,1 L1,1 L1,3 L4,4 L2,5 L0,9 L-1,21 L6,20 L6,24 L0,24 L0,26 L-4,26 L-4,22 L-2,22 L-2,6 L-4,6 L-4,4 L0,4 Z " fill="#1B070B" transform="translate(560,326)"/>
<path d="M0,0 L3,0 L4,2 L7,2 L6,7 L4,11 L0,11 L0,8 L-2,8 L-3,5 L-10,4 L-11,2 L-3,2 Z " fill="#BB2D47" transform="translate(524,281)"/>
<path d="M0,0 L2,0 L2,26 L0,26 L-1,19 L-3,15 L-3,5 Z " fill="#680004" transform="translate(293,677)"/>
<path d="M0,0 L1,0 L1,6 L3,6 L3,12 L1,21 L0,26 L-1,26 L-1,11 L-3,11 L-3,26 L-4,26 L-4,10 L-2,10 L-2,6 L0,6 Z " fill="#A51A31" transform="translate(264,420)"/>
<path d="M0,0 L1,0 L1,14 L4,13 L5,20 L4,21 L4,30 L6,31 L5,34 L3,34 L1,27 L1,22 L-1,22 Z " fill="#430005" transform="translate(252,658)"/>
<path d="M0,0 L1,0 L0,10 L3,11 L2,14 L4,14 L4,19 L-1,19 L-1,16 L-3,15 L-3,12 L-5,12 L-5,5 L-1,5 Z " fill="#B92C43" transform="translate(372,300)"/>
<path d="M0,0 L6,0 L6,6 L2,6 L2,9 L5,9 L5,11 L1,11 L1,8 L-4,8 L-4,2 L0,2 Z " fill="#8B010B" transform="translate(666,592)"/>
<path d="M0,0 L10,0 L10,2 L17,1 L17,3 L9,7 L9,4 L3,5 L-10,3 L-10,2 L0,2 Z M9,3 Z " fill="#3D000E" transform="translate(886,536)"/>
<path d="M0,0 L3,0 L3,4 L5,2 L6,4 L4,10 L1,13 L-1,13 L-2,8 L-4,8 L-3,4 L-2,1 Z M1,5 Z M-2,13 Z " fill="#C11F3B" transform="translate(285,392)"/>
<path d="M0,0 L2,0 L2,2 L4,3 L-3,7 L-6,6 L-7,8 L-10,9 L-11,12 L-13,12 L-13,10 L-15,9 L-11,7 L-10,4 L-7,4 L-7,2 Z " fill="#580000" transform="translate(497,741)"/>
<path d="M0,0 L6,0 L6,3 L16,3 L15,6 L12,6 L12,8 L10,8 L10,6 L6,6 L6,4 L0,6 L-2,7 L-1,3 L-3,3 L-4,6 L-4,2 L0,2 Z " fill="#500012" transform="translate(870,536)"/>
<path d="M0,0 L2,2 L2,7 L-1,7 L-1,9 L-5,9 L-5,11 L-7,11 L-7,14 L-9,14 L-9,7 L-5,5 L-4,2 L-1,3 Z " fill="#4B0005" transform="translate(799,610)"/>
<path d="M0,0 L6,0 L6,3 L9,4 L9,5 L3,7 L0,10 L1,14 L-3,15 L-3,7 L0,7 Z " fill="#58000B" transform="translate(530,672)"/>
<path d="M0,0 Z M-3,0 L0,1 L-2,5 L-7,5 L-12,8 L-12,5 L-19,8 L-20,6 L-16,3 L-12,1 L-5,2 Z " fill="#5F0000" transform="translate(746,626)"/>
<path d="M0,0 L2,0 L2,4 L4,5 L-1,8 L-3,12 L-4,14 L-6,14 L-9,9 L-8,7 L-4,7 L-4,3 Z " fill="#540003" transform="translate(786,607)"/>
<path d="M0,0 L2,1 L0,6 L7,7 L8,4 L8,8 L4,8 L4,12 L-1,12 L-4,10 L-4,4 L0,2 Z " fill="#89000C" transform="translate(678,586)"/>
<path d="M0,0 L5,0 L4,8 L1,9 L0,12 L-4,12 L-4,4 L0,4 Z " fill="#ED0022" transform="translate(448,428)"/>
<path d="M0,0 L5,0 L6,3 L8,4 L8,6 L-14,6 L-14,4 L-2,3 Z " fill="#3A0001" transform="translate(599,763)"/>
<path d="M0,0 L6,1 L7,8 L9,8 L8,16 L6,13 L5,11 L4,13 L2,13 L2,4 L0,4 Z " fill="#BA233C" transform="translate(265,494)"/>
<path d="M0,0 L16,0 L12,2 L7,3 L6,7 L3,9 L5,3 L-5,4 L-7,6 L-8,4 L-11,3 L-12,5 L-12,2 L0,2 Z " fill="#7D0015" transform="translate(762,541)"/>
<path d="M0,0 L1,4 L3,4 L3,10 L5,10 L5,16 L7,16 L7,24 L6,24 L6,17 L4,17 L4,24 L3,24 L2,16 L4,16 L4,11 L2,11 L1,15 L1,11 L-1,11 L-1,4 Z " fill="#A30D23" transform="translate(629,408)"/>
<path d="M0,0 L1,4 L3,4 L3,10 L5,10 L6,16 L5,21 L3,21 L2,17 L-1,14 L-2,11 L1,10 L2,5 L0,5 L0,10 L-1,10 Z " fill="#AC132B" transform="translate(613,380)"/>
<path d="M0,0 L4,0 L4,8 L6,8 L6,14 L0,14 L0,18 L-4,17 L-1,17 L-1,15 L-4,15 L-2,11 L1,8 L3,8 L3,1 Z " fill="#A4293F" transform="translate(564,308)"/>
<path d="M0,0 L4,1 L4,30 L2,30 L2,2 L0,2 Z " fill="#510104" transform="translate(161,469)"/>
<path d="M0,0 L3,0 L2,4 L-7,12 L-8,10 L-17,10 L-17,8 L-7,7 L-4,4 L-2,4 L-2,2 L0,2 Z M-9,12 Z " fill="#BA203B" transform="translate(361,375)"/>
<path d="M0,0 L2,0 L5,9 L7,9 L7,14 L5,14 L4,19 L3,19 L1,9 L-2,8 L0,7 Z " fill="#7D000E" transform="translate(265,603)"/>
<path d="M0,0 L1,0 L1,12 L3,12 L3,5 L6,9 L7,14 L6,25 L4,25 L4,19 L2,19 L2,13 L0,13 Z " fill="#A3051C" transform="translate(286,575)"/>
<path d="M0,0 L2,0 L3,2 L3,19 L5,20 L0,22 Z " fill="#540004" transform="translate(264,661)"/>
<path d="M0,0 L2,4 L2,15 L1,17 L3,17 L4,15 L5,20 L1,20 L1,18 L-1,18 L-1,22 L4,22 L4,23 L-2,23 L-2,17 L0,17 L0,15 L-2,15 L-2,9 L0,9 Z " fill="#410007" transform="translate(248,635)"/>
<path d="M0,0 L4,0 L4,2 L-2,7 L-3,9 L-9,9 L-12,13 L-14,13 L-14,11 L-12,11 L-10,6 L-6,5 L-4,2 L0,2 Z " fill="#420004" transform="translate(794,625)"/>
<path d="M0,0 L4,1 L1,1 L3,13 L1,17 L-2,16 L-2,4 L0,4 Z " fill="#4F0008" transform="translate(248,618)"/>
<path d="M0,0 L2,1 L2,7 L-1,13 L-2,11 L-5,11 L-5,16 L-3,17 L-5,19 L-5,17 L-7,17 L-8,20 L-8,16 L-6,16 L-6,10 L-4,10 L-4,6 L-2,6 L-2,2 L0,2 Z " fill="#A41E34" transform="translate(280,384)"/>
<path d="M0,0 L10,0 L10,6 L0,6 Z " fill="#5F0110" transform="translate(718,378)"/>
<path d="M0,0 L1,0 L1,6 L-1,6 L-1,8 L-9,8 L-9,4 L-13,3 L-6,1 L-2,1 L-2,5 L0,5 Z " fill="#450101" transform="translate(527,746)"/>
<path d="M0,0 L2,0 L3,3 L5,3 L2,13 L-1,13 L-4,12 L-4,14 L-9,14 L-5,13 L-5,11 L-3,11 L-3,7 L1,7 Z " fill="#5A0006" transform="translate(523,701)"/>
<path d="M0,0 L1,0 L1,6 L-1,6 L-1,14 L-3,14 L-3,18 L-7,17 L-4,17 L-6,13 L-4,4 L-2,1 L-2,5 L0,5 Z " fill="#A60518" transform="translate(637,562)"/>
<path d="M0,0 L15,0 L15,2 L4,2 L4,6 L2,6 L1,4 L-7,4 L-7,2 L0,2 Z " fill="#730003" transform="translate(462,731)"/>
<path d="M0,0 L3,1 L6,3 L-5,9 L-6,7 L-4,7 L-4,5 L-10,7 L-10,5 L-6,4 L-6,2 Z " fill="#C20117" transform="translate(480,615)"/>
<path d="M0,0 L3,0 L4,4 L-2,6 L-9,7 L-9,5 L-12,4 L-12,2 L0,2 Z " fill="#3A0005" transform="translate(706,273)"/>
<path d="M0,0 L11,0 L11,4 L-2,4 L-4,2 Z " fill="#3B0200" transform="translate(498,773)"/>
<path d="M0,0 L1,0 L1,6 L5,6 L5,8 L7,8 L7,14 L9,14 L8,16 L5,16 L6,9 L4,9 L4,7 L0,7 L0,10 L-3,10 L-3,8 L-7,8 L-7,5 L0,5 Z " fill="#30010C" transform="translate(659,252)"/>
<path d="M0,0 L8,0 L8,1 L2,2 L2,5 L9,6 L9,7 L-1,7 L-1,9 L10,9 L10,10 L-2,10 L-2,4 L-4,4 L-4,2 L0,2 Z " fill="#090000" transform="translate(500,762)"/>
<path d="M0,0 L3,1 L4,3 L7,4 L7,6 L0,6 L-1,8 L-21,7 L-21,6 L-1,6 L-1,1 Z " fill="#A41127" transform="translate(385,629)"/>
<path d="M0,0 L1,0 L1,18 L5,18 L5,30 L4,30 L4,19 L2,19 L2,30 L1,30 L0,22 L-2,18 L0,18 Z " fill="#991A2C" transform="translate(643,464)"/>
<path d="M0,0 L2,1 L3,12 L2,14 L1,23 L-1,23 L-1,8 L1,8 L0,6 Z " fill="#BB1029" transform="translate(286,550)"/>
<path d="M0,0 L2,0 L2,19 L0,19 L0,24 L-2,24 L-2,18 L0,18 L-1,13 Z " fill="#4D0002" transform="translate(163,427)"/>
<path d="M0,0 L2,0 L3,4 L8,6 L14,7 L14,1 L11,0 L15,0 L15,8 L8,8 L8,11 L6,11 L2,7 L2,5 L0,5 Z " fill="#6E0104" transform="translate(301,714)"/>
<path d="M0,0 L1,2 L5,2 L5,4 L7,4 L7,0 L23,0 L23,1 L8,1 L8,3 L12,4 L7,8 L4,7 L4,3 L-1,4 Z " fill="#510113" transform="translate(799,542)"/>
<path d="M0,0 L1,0 L1,9 L3,9 L3,2 L4,2 L7,12 L8,17 L7,14 L5,14 L4,18 L4,14 L2,14 L2,10 L0,10 Z " fill="#A31E33" transform="translate(266,498)"/>
<path d="M0,0 L5,0 L5,6 L1,6 L1,10 L-2,10 L-2,2 L0,2 Z " fill="#2F0008" transform="translate(729,332)"/>
<path d="M0,0 L6,1 L11,2 L11,3 L4,3 L4,5 L14,4 L12,5 L12,7 L15,8 L11,8 L11,6 L3,6 L3,4 L-2,3 L-3,1 Z " fill="#9A1529" transform="translate(349,626)"/>
<path d="M0,0 L4,1 L4,4 L2,4 L6,11 L5,14 L3,14 L3,11 L0,10 L-1,3 Z " fill="#B8041F" transform="translate(292,591)"/>
<path d="M0,0 L8,0 L8,4 L5,5 L4,8 L0,8 Z " fill="#C40B2A" transform="translate(556,492)"/>
<path d="M0,0 L4,2 L5,11 L-4,11 L-3,7 L1,7 L1,2 Z M4,0 L6,0 L6,2 L4,2 Z " fill="#4D000E" transform="translate(723,332)"/>
<path d="M0,0 L6,0 L6,14 L-1,14 L-1,12 L3,11 L4,2 L-1,2 Z " fill="#3B0004" transform="translate(679,715)"/>
<path d="M0,0 L10,0 L10,4 L5,4 L3,6 L-2,5 L-1,1 Z " fill="#CD0017" transform="translate(476,607)"/>
<path d="M0,0 L1,0 L1,9 L3,9 L3,0 L4,4 L6,4 L5,10 L3,10 L3,13 L8,13 L5,14 L5,20 L4,20 L4,14 L2,14 L2,10 L0,10 Z " fill="#A01A2D" transform="translate(272,516)"/>
<path d="M0,0 L14,0 L14,2 L12,2 L12,8 L11,8 L11,3 L0,4 Z " fill="#080000" transform="translate(538,746)"/>
<path d="M0,0 L2,0 L2,11 L4,11 L4,17 L3,19 L1,19 L0,14 Z " fill="#BC2037" transform="translate(645,483)"/>
<path d="M0,0 L8,0 L10,4 L13,4 L13,6 L9,7 L6,6 L5,4 L0,3 Z " fill="#B92943" transform="translate(582,355)"/>
<path d="M0,0 L1,0 L1,8 L5,8 L5,16 L4,16 L4,9 L1,12 L0,18 L-3,17 L-3,11 L-1,11 Z " fill="#360106" transform="translate(739,314)"/>
<path d="M0,0 L6,0 L6,8 L-2,8 L-2,7 L5,7 L-2,5 L0,4 Z " fill="#380104" transform="translate(742,306)"/>
<path d="M0,0 L2,0 L2,2 L4,2 L4,0 L7,1 L15,1 L18,0 L16,4 L-1,4 L-2,2 L0,2 Z " fill="#650002" transform="translate(370,739)"/>
<path d="M0,0 L4,2 L4,6 L6,6 L6,10 L0,10 Z " fill="#2A0006" transform="translate(290,600)"/>
<path d="M0,0 L3,0 L3,4 L7,4 L7,2 L10,2 L10,5 L2,7 L2,5 L-3,6 L-3,2 Z " fill="#9B0109" transform="translate(612,598)"/>
<path d="M0,0 L1,0 L1,8 L3,8 L3,0 L4,0 L4,8 L6,8 L6,12 L-2,12 L-2,10 L0,10 Z " fill="#0D0000" transform="translate(296,694)"/>
<path d="M0,0 L5,0 L5,3 L11,3 L10,6 L8,6 L8,10 L6,10 L5,5 L0,4 Z " fill="#900111" transform="translate(517,637)"/>
<path d="M0,0 L6,3 L6,4 L-2,4 L-2,6 L9,6 L9,7 L-3,7 L-3,5 L-7,4 L-4,4 L-4,1 Z " fill="#320006" transform="translate(829,635)"/>
<path d="M0,0 L5,2 L5,9 L7,9 L7,11 L9,12 L5,13 L5,11 L1,11 L1,6 L4,6 L4,4 L-2,2 Z " fill="#CE0623" transform="translate(399,606)"/>
<path d="M0,0 L2,0 L5,7 L3,13 L2,9 L-3,9 L-3,6 L-1,6 Z " fill="#BA1C33" transform="translate(278,520)"/>
<path d="M0,0 L12,0 L12,2 L16,2 L16,4 L20,4 L19,6 L17,5 L17,7 L19,8 L13,7 L13,5 L15,5 L15,3 L12,3 L11,5 L11,1 L1,1 L1,3 L-2,4 L-2,2 L0,2 Z " fill="#9A2739" transform="translate(300,362)"/>
<path d="M0,0 L5,1 L5,3 L11,4 L11,6 L1,6 L1,3 L-10,3 L-10,2 L0,2 Z " fill="#570012" transform="translate(654,283)"/>
<path d="M0,0 L7,0 L7,2 L19,2 L19,4 L8,5 L4,3 L0,2 Z " fill="#740006" transform="translate(363,731)"/>
<path d="M0,0 L4,1 L1,1 L1,5 L3,5 L4,3 L4,5 L7,5 L8,10 L2,12 L2,6 L0,6 Z " fill="#170001" transform="translate(622,588)"/>
<path d="M0,0 L1,0 L1,7 L3,7 L3,0 L4,0 L4,8 L-1,8 L-1,13 L-3,13 L-3,9 L-5,8 L-1,4 Z " fill="#AC081F" transform="translate(638,554)"/>
<path d="M0,0 L1,0 L1,10 L3,10 L3,0 L9,0 L9,1 L4,1 L4,10 L6,11 L3,14 L0,13 Z " fill="#4C0111" transform="translate(853,540)"/>
<path d="M0,0 L9,0 L8,3 L-1,5 L-3,6 L-10,5 L-10,4 L-3,3 L0,2 Z " fill="#9E0017" transform="translate(715,547)"/>
<path d="M0,0 L6,0 L6,1 L1,1 L1,3 L5,3 L5,11 L4,11 L4,4 L-3,3 L-2,13 L-4,15 L-4,13 L-8,12 L-4,12 L-4,2 L0,2 Z " fill="#570114" transform="translate(846,538)"/>
<path d="M0,0 L4,0 L4,2 L2,2 L1,12 L1,15 L-2,15 L-2,5 L0,5 Z " fill="#6C0005" transform="translate(507,711)"/>
<path d="M0,0 L2,0 L2,8 L-5,8 L-5,3 L0,3 Z " fill="#0C0000" transform="translate(687,591)"/>
<path d="M0,0 L6,0 L5,4 L5,1 L1,1 L1,7 L6,7 L6,10 L-1,12 L-2,9 L0,9 L0,7 L-2,6 L0,6 Z " fill="#880008" transform="translate(642,598)"/>
<path d="M0,0 L1,3 L3,3 L4,1 L3,6 L1,7 L1,5 L-1,5 L-1,8 L1,8 L0,16 L-1,16 L-1,9 L-3,9 L-3,16 L-4,16 L-4,8 L-2,8 L-2,4 L0,4 Z " fill="#9F182F" transform="translate(270,404)"/>
<path d="M0,0 L7,1 L8,7 L6,9 L1,4 Z " fill="#B20E27" transform="translate(621,405)"/>
<path d="M0,0 L2,0 L4,5 L0,9 L-4,9 L-4,12 L-6,12 L-6,7 L-1,6 Z " fill="#5C0009" transform="translate(531,688)"/>
<path d="M0,0 L4,0 L4,2 L2,2 L2,4 L0,4 L0,6 L-4,6 L-4,4 L-7,5 L-7,3 L-5,3 L-5,1 Z " fill="#AD253C" transform="translate(391,281)"/>
<path d="M0,0 L1,2 L3,3 L-1,3 L-1,5 L1,5 L1,7 L4,8 L-2,8 L-2,5 L-7,5 L-7,9 L-2,9 L-2,10 L-8,10 L-8,4 L-2,4 L-2,2 L0,2 Z " fill="#80010E" transform="translate(524,632)"/>
<path d="M0,0 L2,1 L1,5 L-8,6 L-9,4 L-7,1 L-1,1 Z " fill="#4B0003" transform="translate(777,627)"/>
<path d="M0,0 L14,0 L14,2 L18,2 L18,8 L17,8 L17,3 L15,3 L15,5 L6,4 L6,3 L13,3 L13,1 L0,1 Z " fill="#4F0113" transform="translate(822,540)"/>
<path d="M0,0 L4,0 L4,2 L8,2 L8,5 L11,5 L11,7 L5,7 L1,3 L3,3 L3,1 Z " fill="#AD263A" transform="translate(328,374)"/>
<path d="M0,0 L4,0 L4,4 L6,4 L6,8 L8,8 L8,10 L3,11 L2,4 L3,1 Z " fill="#A61931" transform="translate(604,370)"/>
<path d="M0,0 L12,0 L12,2 L14,2 L14,0 L22,0 L22,1 L15,1 L15,3 L17,4 L11,5 L11,1 L0,1 Z " fill="#5E0006" transform="translate(348,730)"/>
<path d="M0,0 L1,0 L1,10 L3,11 L-1,17 L-4,17 L-4,15 L-2,15 L-2,10 L0,10 Z " fill="#530002" transform="translate(504,716)"/>
<path d="M0,0 L6,0 L6,6 L0,6 Z " fill="#550105" transform="translate(484,716)"/>
<path d="M0,0 L1,0 L1,5 L10,5 L11,3 L13,4 L13,6 L15,7 L12,8 L11,10 L8,8 L10,8 L10,6 L0,6 Z " fill="#80000D" transform="translate(682,572)"/>
<path d="M0,0 L6,0 L6,6 L0,6 Z " fill="#4F010D" transform="translate(730,384)"/>
<path d="M0,0 L4,0 L4,2 L9,2 L9,6 L0,5 L-1,2 Z M3,3 Z " fill="#B82D46" transform="translate(532,285)"/>
<path d="M0,0 L3,3 L1,6 L-6,6 L-6,8 L-9,8 L-9,4 L0,4 Z " fill="#3F0100" transform="translate(590,759)"/>
<path d="M0,0 L4,0 L5,3 L8,4 L8,6 L2,7 L0,6 Z " fill="#9A000A" transform="translate(643,599)"/>
<path d="M0,0 L5,0 L5,2 L8,2 L8,7 L6,7 L6,4 L1,6 L0,5 Z " fill="#AB000C" transform="translate(631,597)"/>
<path d="M0,0 L1,0 L1,9 L3,9 L4,5 L8,6 L9,8 L5,9 L6,13 L4,12 L4,10 L0,10 Z " fill="#640114" transform="translate(622,276)"/>
<path d="M0,0 L9,0 L8,4 L0,5 Z " fill="#540001" transform="translate(564,716)"/>
<path d="M0,0 L6,0 L5,2 L1,1 L1,3 L3,4 L2,12 L-1,11 L-1,4 Z " fill="#61010C" transform="translate(254,608)"/>
<path d="M0,0 L3,1 L3,3 L7,4 L1,8 L-2,6 L-2,3 L0,3 Z " fill="#B80012" transform="translate(520,606)"/>
<path d="M0,0 L7,1 L7,3 L3,3 L2,10 L0,9 Z " fill="#650016" transform="translate(843,541)"/>
<path d="M0,0 L2,0 L2,5 L0,5 L0,16 L-1,16 L-3,5 Z " fill="#720007" transform="translate(293,677)"/>
<path d="M0,0 L8,0 L10,3 L22,4 L22,5 L10,6 L8,7 L8,4 L5,3 L7,3 L7,1 L0,1 Z " fill="#2F0006" transform="translate(684,270)"/>
<path d="M0,0 L4,1 L3,4 L7,6 L3,7 L-1,5 Z " fill="#930006" transform="translate(588,619)"/>
<path d="M0,0 L3,0 L4,9 L0,10 Z " fill="#BB233E" transform="translate(391,340)"/>
<path d="M0,0 L4,1 L1,1 L1,3 L3,3 L1,7 L-3,9 L-3,7 L-1,7 L-1,5 L-5,6 L-4,4 L-2,4 L-2,2 L0,2 Z " fill="#A42439" transform="translate(380,286)"/>
<path d="M0,0 L14,0 L13,2 L1,1 L1,3 L4,4 L-2,6 L-1,3 L-4,2 L0,2 Z " fill="#2E0002" transform="translate(710,270)"/>
<path d="M0,0 L3,1 L3,3 L8,2 L8,7 L2,7 Z " fill="#B80821" transform="translate(304,608)"/>
<path d="M0,0 L5,1 L4,9 L3,9 L3,3 L1,3 L1,13 L0,13 L0,3 L-4,2 L0,2 Z " fill="#7F0109" transform="translate(690,587)"/>
<path d="M0,0 L3,1 L3,13 L1,13 Z " fill="#3B0008" transform="translate(908,578)"/>
<path d="M0,0 L2,2 L2,6 L0,6 L0,13 L-2,13 L-2,3 Z " fill="#BC0A25" transform="translate(641,548)"/>
<path d="M0,0 L5,0 L6,1 L6,12 L4,12 L4,2 L0,2 Z " fill="#680017" transform="translate(847,539)"/>
<path d="M0,0 L2,0 L3,3 L6,4 L5,10 L3,11 L4,7 L0,5 L-1,2 Z " fill="#BA1F3A" transform="translate(601,367)"/>
<path d="M0,0 L2,3 L5,4 L5,11 L2,11 L1,4 L-1,4 Z " fill="#BC2D46" transform="translate(562,305)"/>
<path d="M0,0 L2,2 L2,13 L4,13 L4,15 L0,14 Z " fill="#570015" transform="translate(611,244)"/>
<path d="M0,0 L4,1 L2,7 L-1,9 L-3,6 L0,5 Z M4,0 Z M-4,7 Z " fill="#530000" transform="translate(758,626)"/>
<path d="M0,0 L10,0 L10,2 L8,2 L8,4 L4,4 L4,2 L-2,2 Z " fill="#170002" transform="translate(682,578)"/>
<path d="M0,0 L5,1 L5,4 L2,5 L1,8 L-1,8 L-1,5 L-3,4 L0,1 Z " fill="#BB0517" transform="translate(628,575)"/>
<path d="M0,0 L1,0 L1,5 L0,8 L-3,12 L-3,7 L-5,7 L-5,12 L-6,12 L-6,6 L-2,6 L-1,1 Z " fill="#9A2035" transform="translate(288,372)"/>
<path d="M0,0 L1,2 L10,2 L8,4 L0,5 L-3,4 L-3,2 L0,2 Z " fill="#B6233F" transform="translate(416,269)"/>
<path d="M0,0 L3,1 L3,8 L-1,8 L-1,1 Z " fill="#B60013" transform="translate(508,619)"/>
<path d="M0,0 L1,4 L-3,4 L-3,8 L-8,8 L-4,7 L-4,5 L-8,5 L-7,1 L0,3 Z " fill="#7C000A" transform="translate(685,590)"/>
<path d="M0,0 L9,0 L7,4 L1,3 L-1,1 Z " fill="#560008" transform="translate(624,663)"/>
<path d="M0,0 L2,0 L2,7 L7,7 L7,9 L0,9 Z " fill="#AE0111" transform="translate(517,622)"/>
<path d="M0,0 Z M-3,1 L0,2 L-3,7 L-5,8 Z M-6,8 L-6,11 L-5,14 L-8,16 L-8,10 Z " fill="#6A0001" transform="translate(755,606)"/>
<path d="M0,0 L1,0 L2,7 L0,7 L0,20 L-1,16 L-3,16 L-2,7 L0,6 Z " fill="#A81B32" transform="translate(649,494)"/>
<path d="M0,0 L5,1 L8,4 L0,5 Z " fill="#60000C" transform="translate(531,673)"/>
<path d="M0,0 L6,0 L6,1 L1,1 L2,14 L0,14 L0,10 L-2,10 L-2,8 L0,8 Z " fill="#160001" transform="translate(294,662)"/>
<path d="M0,0 L1,0 L1,6 L5,6 L5,8 L1,8 L1,10 L-1,10 L-3,3 L-1,3 Z " fill="#1B0002" transform="translate(661,594)"/>
<path d="M0,0 L2,0 L2,2 L6,2 L7,5 L6,7 L2,6 L2,4 L0,4 Z " fill="#CA0829" transform="translate(480,380)"/>
<path d="M0,0 L4,0 L4,2 L7,2 L7,4 L3,5 L-2,3 Z " fill="#B92B40" transform="translate(324,373)"/>
<path d="M0,0 L4,0 L4,2 L2,3 L0,7 L-6,6 L-6,4 L-1,3 Z " fill="#BF344D" transform="translate(567,347)"/>
<path d="M0,0 L4,1 L1,1 L1,3 L4,4 L2,5 L0,9 L-4,6 L-4,4 L0,4 Z " fill="#140508" transform="translate(560,326)"/>
<path d="M0,0 L3,2 L3,4 L10,4 L10,6 L1,6 L-1,2 Z " fill="#380009" transform="translate(681,267)"/>
<path d="M0,0 L6,0 L6,9 L4,9 L4,2 L0,2 Z " fill="#7E0007" transform="translate(303,703)"/>
<path d="M0,0 L4,0 L4,5 L-2,6 L-2,3 L0,3 Z " fill="#6F0004" transform="translate(493,723)"/>
<path d="M0,0 Z M-2,1 L0,2 L-3,7 L-11,6 L-11,3 L-3,3 Z " fill="#440008" transform="translate(659,667)"/>
<path d="M0,0 L0,3 L-5,9 L-7,9 L-6,5 Z " fill="#400002" transform="translate(771,641)"/>
<path d="M0,0 L1,0 L1,6 L0,11 L-3,10 L-3,7 L-5,7 L-4,5 L-1,4 Z " fill="#B70D29" transform="translate(645,538)"/>
<path d="M0,0 L4,0 L4,2 L2,2 L2,4 L4,5 L0,6 L0,8 L-2,8 Z " fill="#9C0110" transform="translate(681,581)"/>
<path d="M0,0 L2,0 L2,3 L4,3 L5,0 L5,4 L1,4 L1,8 L-3,7 L0,7 L-1,1 Z " fill="#9C0212" transform="translate(625,580)"/>
<path d="M0,0 L2,1 L1,3 L-1,3 L-1,5 L1,5 L0,9 L-3,11 L-3,8 L-4,6 L-2,6 L-2,2 L0,2 Z " fill="#A21D35" transform="translate(388,350)"/>
<path d="M0,0 L4,0 L4,6 L0,6 Z " fill="#0C0002" transform="translate(730,332)"/>
<path d="M0,0 L11,0 L10,3 L0,2 Z " fill="#760007" transform="translate(348,731)"/>
<path d="M0,0 L7,1 L2,5 L-1,5 Z " fill="#D2082B" transform="translate(413,388)"/>
<path d="M0,0 L4,1 L5,5 L2,5 L2,7 L5,8 L1,8 Z " fill="#AA293E" transform="translate(373,320)"/>
<path d="M0,0 L2,0 L2,2 L7,4 L7,6 L2,6 Z " fill="#47000C" transform="translate(687,307)"/>
<path d="M0,0 L4,2 L3,8 L0,8 Z " fill="#4C000E" transform="translate(677,291)"/>
<path d="M0,0 L6,0 L6,6 L4,8 L4,2 L0,2 Z " fill="#0C0000" transform="translate(504,754)"/>
<path d="M0,0 L4,0 L3,10 L2,10 L2,4 L0,4 Z " fill="#0E0000" transform="translate(514,750)"/>
<path d="M0,0 L4,0 L4,8 L2,8 L2,6 L-4,6 L-4,5 L2,5 L3,1 Z " fill="#120002" transform="translate(534,666)"/>
<path d="M0,0 L4,1 L4,7 L2,5 L2,8 L0,8 Z " fill="#0F0002" transform="translate(300,642)"/>
<path d="M0,0 L7,0 L9,2 L7,6 L4,4 L4,2 Z " fill="#8B0012" transform="translate(265,602)"/>
<path d="M0,0 L2,0 L2,2 L9,2 L9,4 L0,4 Z " fill="#A10013" transform="translate(683,573)"/>
<path d="M0,0 L1,0 L1,10 L-3,10 L-3,8 L-1,8 L-1,2 Z " fill="#100003" transform="translate(841,540)"/>
<path d="M0,0 L4,0 L4,2 L2,2 L2,9 L0,9 Z " fill="#680017" transform="translate(857,541)"/>
<path d="M0,0 L4,0 L4,4 L0,4 L0,2 L-6,2 L-6,1 Z " fill="#0E0003" transform="translate(862,538)"/>
<path d="M0,0 L2,0 L3,6 L0,7 L-2,3 L-2,1 Z " fill="#BD1F38" transform="translate(338,391)"/>
<path d="M0,0 L3,1 L3,3 L1,3 L1,13 L0,13 L0,3 L-4,2 L0,2 Z " fill="#9A1F34" transform="translate(390,337)"/>
<path d="M0,0 L8,0 L8,4 L5,4 L5,1 L1,1 L1,6 L0,6 Z " fill="#270007" transform="translate(716,334)"/>
<path d="M0,0 L4,0 L4,2 L10,2 L10,3 L0,4 Z " fill="#100003" transform="translate(634,286)"/>
<path d="M0,0 L8,0 L11,4 L8,4 L6,6 L6,4 L4,3 L6,2 L0,1 Z " fill="#2C000D" transform="translate(616,230)"/>
<path d="M0,0 L6,1 L2,2 L3,5 L1,5 L0,7 L0,4 L-2,4 L-2,2 L0,2 Z " fill="#3E0101" transform="translate(494,762)"/>
<path d="M0,0 L7,0 L7,3 L1,4 L-1,3 Z " fill="#D40019" transform="translate(461,606)"/>
<path d="M0,0 L3,0 L3,9 L1,10 Z " fill="#B50922" transform="translate(289,574)"/>
<path d="M0,0 L4,1 L1,1 L2,11 L0,13 L0,11 L-4,10 L0,10 Z " fill="#4E0111" transform="translate(842,540)"/>
<path d="M0,0 L4,1 L1,1 L1,5 L-5,6 L-2,2 L0,2 Z " fill="#991B31" transform="translate(380,358)"/>
<path d="M0,0 L2,2 L2,7 L0,8 L-3,7 L-3,5 L0,5 L-1,1 Z " fill="#BA2C43" transform="translate(378,320)"/>
<path d="M0,0 L2,0 L3,3 L2,6 L-2,5 L-2,3 L-4,2 L0,2 Z " fill="#CB2241" transform="translate(478,319)"/>
<path d="M0,0 L2,1 L3,5 L-2,6 L-2,1 Z " fill="#CD2443" transform="translate(486,315)"/>
<path d="M0,0 L2,0 L3,4 L5,5 L5,7 L0,7 Z " fill="#4F000E" transform="translate(681,300)"/>
<path d="M0,0 L1,3 L-2,5 L-7,5 L-7,2 L0,2 Z " fill="#B32B43" transform="translate(523,279)"/>
<path d="M0,0 L3,0 L4,4 L1,5 L-1,4 L-1,2 L-3,1 Z " fill="#520011" transform="translate(656,278)"/>
<path d="M0,0 L2,0 L2,3 L8,3 L8,4 L2,4 L2,6 L-2,5 L1,5 L-2,1 Z " fill="#2F0002" transform="translate(662,738)"/>
<path d="M0,0 L2,0 L2,4 L6,4 L6,6 L0,6 Z " fill="#3C0003" transform="translate(695,719)"/>
<path d="M0,0 L5,0 L5,4 L0,4 Z " fill="#9D0012" transform="translate(517,637)"/>
<path d="M0,0 L5,0 L5,7 L3,7 L3,2 L0,2 Z " fill="#B40118" transform="translate(290,611)"/>
<path d="M0,0 L4,1 L8,0 L4,4 L1,5 L-1,1 Z " fill="#610001" transform="translate(755,614)"/>
<path d="M0,0 L3,2 L5,1 L5,5 L0,5 L0,3 L-2,2 Z " fill="#B6172D" transform="translate(335,613)"/>
<path d="M0,0 L2,3 L2,8 L4,8 L4,10 L0,9 Z " fill="#6B0016" transform="translate(615,261)"/>
<path d="M0,0 L2,0 L2,2 L11,2 L11,3 L3,3 L2,5 L0,3 Z M0,4 Z " fill="#660004" transform="translate(291,704)"/>
<path d="M0,0 L1,0 L2,7 L0,7 L0,5 L-3,5 L-2,1 Z " fill="#A70017" transform="translate(287,603)"/>
<path d="M0,0 L2,1 L2,4 L4,4 L4,7 L0,7 Z " fill="#030000" transform="translate(291,602)"/>
<path d="M0,0 L3,0 L3,2 L6,2 L6,4 L-1,4 Z " fill="#000000" transform="translate(683,595)"/>
<path d="M0,0 L8,0 L8,3 L0,2 Z " fill="#480010" transform="translate(887,537)"/>
<path d="M0,0 L4,1 L1,1 L1,5 L-5,6 L-2,2 L0,2 Z " fill="#952435" transform="translate(294,366)"/>
<path d="M0,0 L4,0 L4,2 L1,3 L0,6 L-2,6 L-3,2 L0,2 Z " fill="#BF354E" transform="translate(559,323)"/>
<path d="M0,0 L4,0 L4,2 L12,2 L11,4 L5,4 L2,4 L3,1 Z " fill="#2D000C" transform="translate(604,226)"/>
<path d="M0,0 L2,0 L2,6 L-3,6 L-3,4 L0,4 Z " fill="#810105" transform="translate(313,715)"/>
<path d="M0,0 L2,0 L0,4 L-5,5 L-5,2 L0,2 Z " fill="#640004" transform="translate(519,713)"/>
<path d="M0,0 L3,0 L3,5 L-1,4 L-2,2 L0,2 Z " fill="#3A0008" transform="translate(664,682)"/>
<path d="M0,0 L1,2 L4,3 L3,5 L-2,4 Z " fill="#B9162E" transform="translate(373,627)"/>
<path d="M0,0 L2,0 L2,3 L0,3 L0,6 L-4,5 Z " fill="#CB021F" transform="translate(414,613)"/>
<path d="M0,0 L3,1 L2,5 L-2,5 Z " fill="#4D0008" transform="translate(814,603)"/>
<path d="M0,0 L4,0 L4,5 L2,5 L0,6 Z " fill="#110204" transform="translate(616,384)"/>
<path d="M0,0 L3,0 L2,8 L0,5 L-1,1 Z " fill="#B61833" transform="translate(610,380)"/>
<path d="M0,0 L5,1 L5,4 L0,3 Z " fill="#B72840" transform="translate(385,335)"/>
<path d="M0,0 L1,3 L9,2 L9,5 L0,4 Z " fill="#41010C" transform="translate(668,286)"/>
<path d="M0,0 L4,4 L4,8 L2,8 L2,6 L0,6 Z " fill="#110000" transform="translate(498,722)"/>
<path d="M0,0 L5,0 L6,4 L0,3 Z " fill="#2D0003" transform="translate(602,676)"/>
<path d="M0,0 L4,0 L4,5 L0,4 Z " fill="#820111" transform="translate(531,655)"/>
<path d="M0,0 L6,1 L6,3 L1,4 Z " fill="#B71931" transform="translate(345,623)"/>
<path d="M0,0 L4,0 L4,4 L0,5 Z " fill="#E20021" transform="translate(420,580)"/>
<path d="M0,0 L4,2 L4,5 L0,5 L0,2 L-2,1 Z " fill="#3D0003" transform="translate(159,510)"/>
<path d="M0,0 L6,0 L9,5 L5,6 L5,1 L0,1 Z " fill="#A2273D" transform="translate(536,286)"/>
<path d="M0,0 L2,0 L1,5 L-3,6 L-3,4 L-1,3 Z " fill="#690002" transform="translate(503,727)"/>
<path d="M0,0 L3,0 L3,6 L0,5 Z " fill="#3A0001" transform="translate(304,714)"/>
<path d="M0,0 L4,0 L4,4 L0,4 Z " fill="#7A0107" transform="translate(485,717)"/>
<path d="M0,0 L3,0 L3,5 L0,6 Z " fill="#260001" transform="translate(261,696)"/>
<path d="M0,0 L5,0 L6,3 L0,3 Z " fill="#33000B" transform="translate(834,552)"/>
<path d="M0,0 L4,0 L4,4 L0,4 Z " fill="#EE0026" transform="translate(436,452)"/>
<path d="M0,0 L3,3 L2,8 L0,7 Z " fill="#BC0F2A" transform="translate(617,408)"/>
<path d="M0,0 L4,0 L4,4 L0,4 Z " fill="#720013" transform="translate(731,385)"/>
<path d="M0,0 L5,1 L5,4 L1,5 Z " fill="#C5213D" transform="translate(533,382)"/>
<path d="M0,0 L3,0 L3,6 L0,5 Z " fill="#210005" transform="translate(736,326)"/>
<path d="M0,0 L2,0 L2,5 L-3,5 L-3,3 L0,3 Z " fill="#49000B" transform="translate(733,326)"/>
<path d="M0,0 L6,0 L6,4 L4,4 L4,2 L0,2 Z " fill="#0A0003" transform="translate(652,258)"/>
<path d="M0,0 L4,0 L4,3 L0,4 L-2,5 Z " fill="#C6102E" transform="translate(368,404)"/>
<path d="M0,0 L6,0 L4,4 L2,4 Z " fill="#D80126" transform="translate(440,392)"/>
<path d="M0,0 L8,1 L8,2 L-2,3 L0,2 Z M8,0 Z " fill="#CE1E40" transform="translate(446,324)"/>
<path d="M0,0 L2,1 L2,3 L4,4 L-2,5 L-2,3 L0,3 Z " fill="#BA0C24" transform="translate(315,612)"/>
<path d="M0,0 L4,0 L4,2 L2,2 L2,5 L0,5 Z " fill="#AD000C" transform="translate(643,599)"/>
<path d="M0,0 L1,0 L1,7 L-2,7 L-1,3 Z " fill="#4F000D" transform="translate(882,583)"/>
<path d="M0,0 L4,1 L2,5 L0,4 Z " fill="#670011" transform="translate(785,556)"/>
<path d="M0,0 L1,3 L4,3 L2,7 L2,5 L-1,4 Z " fill="#A61D34" transform="translate(276,390)"/>
<path d="M0,0 L2,0 L0,6 L-2,6 L-1,2 Z " fill="#BB213A" transform="translate(334,388)"/>
<path d="M0,0 L4,0 L4,2 L2,2 L2,5 L0,5 Z " fill="#3D000E" transform="translate(671,263)"/>
<path d="M0,0 L2,4 L1,8 L-1,8 Z " fill="#460001" transform="translate(513,750)"/>
<path d="M0,0 L3,0 L3,3 L-3,4 L0,3 Z " fill="#310000" transform="translate(531,742)"/>
<path d="M0,0 L2,1 L-3,6 L-3,2 Z " fill="#480001" transform="translate(760,639)"/>
<path d="M0,0 L2,0 L2,4 L-2,4 Z " fill="#270002" transform="translate(612,598)"/>
<path d="M0,0 Z M-1,1 Z M-3,2 L-1,3 L-2,9 L-4,8 Z " fill="#650006" transform="translate(782,588)"/>
<path d="M0,0 L3,0 L3,3 L-2,3 L-2,1 Z " fill="#610017" transform="translate(800,545)"/>
<path d="M0,0 L2,0 L3,4 L-1,4 Z " fill="#B92B42" transform="translate(380,327)"/>
<path d="M0,0 L1,0 L1,5 L-2,4 L-2,1 Z " fill="#380000" transform="translate(269,766)"/>
<path d="M0,0 L5,0 L5,2 L0,3 Z " fill="#730005" transform="translate(402,733)"/>
<path d="M0,0 L4,0 L4,4 L2,4 L2,2 L0,2 Z " fill="#D3092B" transform="translate(500,402)"/>
<path d="M0,0 L6,0 L6,2 L1,3 Z " fill="#B4203A" transform="translate(390,350)"/>
<path d="M0,0 L2,1 L2,4 L-2,3 L-2,1 Z " fill="#530001" transform="translate(532,737)"/>
<path d="M0,0 L5,0 L4,3 L0,2 Z " fill="#7A0006" transform="translate(320,729)"/>
<path d="M0,0 L3,0 L4,4 L0,3 Z " fill="#3E0000" transform="translate(280,702)"/>
<path d="M0,0 L2,1 L0,2 Z M-1,2 L1,4 L-2,6 L-2,3 Z " fill="#430009" transform="translate(673,660)"/>
<path d="M0,0 L4,0 L3,4 L0,1 Z " fill="#670016" transform="translate(838,551)"/>
<path d="M0,0 L2,0 L2,2 L4,2 L4,4 L0,3 Z " fill="#600114" transform="translate(611,255)"/>
<path d="M0,0 L4,2 L-2,3 Z " fill="#BA1A32" transform="translate(351,626)"/>
<path d="M0,0 L3,0 L3,3 L0,4 Z " fill="#5C0003" transform="translate(587,620)"/>
<path d="M0,0 L1,2 L3,2 L3,4 L-1,4 Z " fill="#C8112B" transform="translate(383,612)"/>
<path d="M0,0 L3,0 L3,3 L0,4 Z " fill="#650006" transform="translate(619,600)"/>
<path d="M0,0 L2,0 L3,4 L0,4 Z " fill="#BE1030" transform="translate(484,360)"/>
<path d="M0,0 L3,0 L1,4 L-1,1 Z " fill="#BB2C46" transform="translate(558,303)"/>
<path d="M0,0 L2,0 L2,4 L-1,4 Z " fill="#3F0002" transform="translate(745,297)"/>
<path d="M0,0 L4,1 L3,3 L0,3 Z " fill="#250007" transform="translate(672,275)"/>
<path d="M0,0 L2,0 L1,4 L-1,4 Z " fill="#3A0000" transform="translate(250,745)"/>
<path d="M0,0 L3,1 L-1,4 Z " fill="#940014" transform="translate(731,543)"/>
<path d="M0,0 L3,1 L0,4 L-1,2 Z " fill="#C51E39" transform="translate(584,386)"/>
<path d="M0,0 L4,1 L4,3 L0,2 Z " fill="#BD2D43" transform="translate(295,367)"/>
<path d="M0,0 L2,0 L1,4 L0,2 L-2,1 Z " fill="#BA2A41" transform="translate(382,320)"/>
<path d="M0,0 L4,1 L2,3 L0,2 Z " fill="#660001" transform="translate(279,705)"/>
<path d="M0,0 L3,1 L2,4 Z " fill="#790010" transform="translate(532,656)"/>
<path d="M0,0 L3,1 L0,4 Z " fill="#630000" transform="translate(747,618)"/>
<path d="M0,0 L3,0 L2,3 L0,3 Z " fill="#B72D46" transform="translate(544,293)"/>
<path d="M0,0 L1,3 L-2,3 Z " fill="#780002" transform="translate(751,594)"/>
<path d="M0,0 L2,0 L2,3 L-1,2 Z " fill="#650015" transform="translate(854,551)"/>
<path d="M0,0 L2,0 L2,3 L-1,2 Z " fill="#630118" transform="translate(797,542)"/>
<path d="M0,0 L2,1 L2,3 L-2,1 Z " fill="#350000" transform="translate(159,510)"/>
<path d="M0,0 L3,1 L2,3 L0,3 Z " fill="#CC0428" transform="translate(446,378)"/>
<path d="M0,0 L2,0 L1,3 L-1,1 Z " fill="#DD0529" transform="translate(500,476)"/>
<path d="M0,0 L2,0 L1,3 L-1,1 Z " fill="#39000D" transform="translate(677,265)"/>
</svg>
