<?xml version="1.0" encoding="UTF-8"?>
<!-- Generator: visioncortex VTracer 0.6.4 -->
<svg version="1.1" xmlns="http://www.w3.org/2000/svg" width="1024" height="1024">
<path d="M0,0 L1024,0 L1024,1024 L0,1024 Z " fill="#000000" transform="translate(0,0)"/>
<path d="M0,0 L26,0 L26,2 L38,2 L38,4 L42,4 L42,6 L48,6 L50,9 L56,10 L58,13 L62,14 L62,16 L66,16 L66,18 L70,18 L72,21 L76,22 L76,24 L80,24 L80,26 L84,26 L84,28 L88,28 L88,30 L92,30 L92,32 L96,32 L98,35 L102,36 L102,38 L108,38 L108,40 L112,40 L112,42 L116,42 L116,44 L120,44 L120,46 L124,46 L124,48 L128,48 L130,51 L134,52 L134,54 L138,54 L140,57 L144,58 L146,61 L150,62 L154,67 L158,68 L160,71 L164,72 L171,80 L174,83 L178,84 L178,86 L180,86 L180,90 L184,90 L184,94 L188,96 L194,103 L198,104 L204,111 L208,112 L210,115 L214,116 L214,118 L218,118 L220,121 L228,122 L228,124 L234,124 L236,127 L240,128 L246,135 L248,136 L248,140 L252,142 L252,144 L254,144 L254,150 L256,150 L256,154 L258,154 L258,164 L260,164 L260,170 L258,170 L258,188 L256,188 L256,190 L254,190 L254,198 L252,198 L252,202 L250,202 L250,206 L248,206 L248,210 L246,210 L246,214 L244,214 L244,216 L242,216 L242,218 L240,218 L240,222 L238,222 L238,224 L231,230 L230,232 L228,232 L228,236 L226,236 L226,238 L224,238 L224,240 L222,240 L222,238 L216,238 L216,240 L212,240 L212,246 L210,246 L210,282 L212,282 L212,314 L208,314 L208,316 L206,316 L206,320 L204,320 L204,324 L202,324 L202,328 L200,328 L200,332 L198,332 L198,334 L196,334 L196,338 L194,338 L194,340 L192,340 L192,342 L190,342 L190,346 L186,346 L186,350 L184,350 L184,352 L180,356 L178,356 L178,360 L176,360 L176,362 L174,362 L174,364 L170,364 L170,368 L168,368 L168,370 L163,374 L162,376 L158,376 L158,378 L156,378 L156,380 L151,384 L150,386 L146,386 L146,388 L144,388 L144,390 L140,390 L140,392 L138,392 L138,394 L134,394 L134,396 L130,396 L130,398 L128,398 L128,400 L124,400 L124,402 L120,402 L120,404 L116,404 L116,406 L112,406 L112,408 L108,408 L108,410 L102,410 L102,412 L96,412 L96,414 L92,414 L92,416 L84,416 L84,418 L78,418 L78,420 L68,420 L68,422 L34,422 L34,420 L20,420 L20,418 L10,418 L10,416 L4,416 L4,414 L-4,414 L-4,412 L-10,412 L-10,410 L-14,410 L-14,408 L-20,408 L-20,406 L-24,406 L-24,404 L-28,404 L-28,402 L-32,402 L-32,400 L-36,400 L-36,398 L-41,397 L-44,394 L-44,392 L-49,391 L-50,388 L-55,387 L-58,384 L-58,382 L-62,382 L-66,378 L-66,374 L-70,374 L-74,370 L-76,365 L-80,362 L-80,358 L-82,358 L-84,351 L-86,350 L-86,346 L-88,346 L-88,342 L-90,342 L-90,338 L-92,338 L-92,330 L-94,330 L-94,314 L-98,314 L-98,310 L-96,310 L-96,302 L-94,302 L-94,294 L-92,294 L-92,290 L-90,290 L-90,284 L-88,284 L-88,282 L-86,282 L-85,277 L-82,276 L-80,272 L-78,272 L-78,270 L-82,270 L-82,268 L-80,268 L-78,264 L-74,262 L-74,260 L-72,260 L-72,256 L-68,256 L-68,254 L-66,254 L-66,252 L-64,252 L-64,248 L-62,248 L-62,242 L-60,242 L-60,228 L-62,228 L-62,218 L-64,218 L-66,213 L-68,212 L-68,204 L-70,204 L-70,198 L-72,198 L-72,190 L-74,190 L-74,182 L-76,182 L-76,164 L-78,164 L-78,162 L-76,162 L-76,146 L-74,146 L-74,140 L-72,140 L-72,130 L-70,130 L-70,120 L-68,120 L-68,108 L-66,108 L-66,92 L-64,92 L-64,86 L-62,86 L-62,72 L-60,72 L-60,66 L-58,66 L-58,62 L-56,62 L-56,58 L-54,58 L-54,54 L-52,54 L-52,48 L-50,48 L-50,44 L-48,44 L-48,42 L-46,42 L-46,38 L-44,38 L-44,36 L-42,36 L-42,32 L-40,32 L-39,27 L-30,18 L-28,18 L-26,14 L-22,12 L-22,10 L-18,10 L-18,8 L-16,8 L-16,6 L-12,6 L-12,4 L-8,4 L-8,2 L0,2 Z " fill="#CEA8D0" transform="translate(482,422)"/>
<path d="M0,0 L26,0 L26,2 L38,2 L38,4 L42,4 L42,6 L48,6 L50,9 L56,10 L58,13 L62,14 L62,16 L66,16 L66,18 L70,18 L72,21 L76,22 L76,24 L80,24 L80,26 L84,26 L84,28 L88,28 L88,30 L92,30 L92,32 L96,32 L98,35 L102,36 L102,38 L108,38 L108,40 L112,40 L112,42 L116,42 L116,44 L120,44 L120,46 L124,46 L124,48 L128,48 L130,51 L134,52 L134,54 L138,54 L140,57 L144,58 L146,61 L150,62 L154,67 L158,68 L160,71 L164,72 L171,80 L174,83 L178,84 L178,86 L180,86 L180,90 L184,90 L184,94 L188,96 L194,103 L198,104 L204,111 L208,112 L210,115 L214,116 L214,118 L218,118 L220,121 L228,122 L228,124 L234,124 L236,127 L240,128 L246,135 L248,136 L248,140 L252,142 L252,144 L254,144 L254,150 L256,150 L256,154 L258,154 L258,164 L260,164 L260,170 L258,170 L258,188 L256,188 L256,190 L254,190 L254,198 L252,198 L252,202 L250,202 L250,206 L248,206 L248,210 L246,210 L246,214 L244,214 L244,216 L242,216 L242,218 L240,218 L240,222 L238,222 L238,224 L231,230 L230,232 L228,232 L228,236 L226,236 L226,238 L224,238 L224,240 L222,240 L222,238 L216,238 L216,240 L212,240 L212,246 L210,246 L210,282 L212,282 L212,314 L208,314 L208,316 L206,316 L206,320 L204,320 L204,324 L202,324 L202,328 L200,328 L200,332 L198,332 L198,334 L196,334 L196,338 L194,338 L194,340 L192,340 L192,342 L190,342 L190,346 L186,346 L186,350 L184,350 L184,352 L180,356 L178,356 L178,360 L176,360 L176,362 L174,362 L174,364 L170,364 L170,368 L168,368 L168,370 L163,374 L162,376 L158,376 L158,378 L156,378 L156,380 L151,384 L150,386 L146,386 L146,388 L144,388 L144,390 L140,390 L140,392 L138,392 L138,394 L134,394 L134,396 L130,396 L130,398 L128,398 L128,400 L124,400 L124,402 L120,402 L120,404 L116,404 L116,406 L112,406 L112,408 L108,408 L108,410 L102,410 L102,412 L96,412 L96,414 L92,414 L92,416 L84,416 L84,418 L78,418 L78,420 L68,420 L68,422 L34,422 L34,420 L20,420 L20,418 L10,418 L10,416 L4,416 L4,414 L-4,414 L-4,412 L-10,412 L-10,410 L-14,410 L-14,408 L-20,408 L-20,406 L-24,406 L-24,404 L-28,404 L-28,402 L-32,402 L-32,400 L-36,400 L-36,398 L-41,397 L-44,394 L-44,392 L-49,391 L-50,388 L-55,387 L-58,384 L-58,382 L-62,382 L-66,378 L-66,374 L-70,374 L-74,370 L-76,365 L-80,362 L-80,358 L-82,358 L-84,351 L-86,350 L-86,346 L-88,346 L-87,342 L-87,345 L-85,345 L-83,333 L-81,332 L-80,337 L-79,349 L-77,351 L-75,352 L-75,354 L-71,354 L-71,362 L-68,368 L-66,368 L-64,372 L-59,376 L-55,379 L-56,373 L-58,373 L-58,365 L-56,365 L-56,368 L-54,368 L-54,373 L-48,374 L-46,375 L-46,377 L-44,376 L-43,374 L-41,376 L-32,375 L-28,375 L-28,377 L-22,376 L-22,381 L-28,382 L-34,382 L-34,384 L-30,384 L-31,387 L-34,386 L-33,389 L-24,390 L-24,395 L-22,395 L-22,397 L4,397 L8,399 L8,401 L38,400 L54,400 L58,401 L58,403 L53,406 L64,406 L66,407 L64,411 L61,413 L60,415 L57,416 L56,418 L61,416 L75,415 L80,411 L84,407 L90,407 L92,406 L98,406 L98,404 L103,404 L105,405 L114,400 L116,400 L117,398 L120,398 L122,394 L127,394 L128,392 L130,392 L131,390 L136,388 L136,384 L138,384 L138,382 L146,382 L147,380 L151,377 L153,374 L154,371 L157,368 L158,365 L162,365 L162,362 L167,360 L172,355 L175,352 L176,346 L182,343 L184,343 L184,341 L190,337 L193,332 L195,327 L197,327 L200,318 L206,310 L208,310 L207,284 L206,282 L206,245 L209,238 L212,235 L217,233 L222,234 L231,224 L235,219 L241,211 L249,195 L251,188 L253,185 L254,169 L255,165 L254,164 L253,156 L250,150 L248,145 L243,139 L239,134 L231,129 L220,126 L213,122 L210,122 L210,119 L205,117 L200,114 L198,115 L197,109 L192,107 L184,99 L183,96 L179,95 L176,90 L173,88 L173,86 L169,84 L161,77 L157,74 L154,74 L149,68 L137,61 L137,59 L130,58 L125,53 L121,51 L115,50 L110,50 L110,48 L108,48 L106,44 L104,45 L104,42 L99,41 L94,38 L91,39 L88,38 L87,33 L83,34 L82,32 L80,33 L76,31 L48,30 L45,28 L47,27 L62,27 L61,21 L58,21 L55,16 L49,14 L49,12 L39,9 L37,7 L32,9 L30,8 L30,6 L23,5 L6,5 L3,7 L3,5 L-2,8 L-8,8 L-13,13 L-16,16 L-18,18 L-23,21 L-25,21 L-28,24 L-29,32 L-34,35 L-36,38 L-32,37 L-32,39 L-34,39 L-35,43 L-38,44 L-39,48 L-41,48 L-41,50 L-43,50 L-45,64 L-46,65 L-47,78 L-49,78 L-51,82 L-53,85 L-54,88 L-54,90 L-52,90 L-52,94 L-54,102 L-52,102 L-52,112 L-52,114 L-52,121 L-54,125 L-56,125 L-56,111 L-57,97 L-60,102 L-61,116 L-63,117 L-64,126 L-67,133 L-67,141 L-69,143 L-70,148 L-70,154 L-71,155 L-71,178 L-69,183 L-68,188 L-66,193 L-65,198 L-62,211 L-58,217 L-56,228 L-55,239 L-59,251 L-65,259 L-74,268 L-75,275 L-84,285 L-87,294 L-87,296 L-85,296 L-86,300 L-91,305 L-93,312 L-89,314 L-89,326 L-85,325 L-83,329 L-85,329 L-86,341 L-87,338 L-89,338 L-90,342 L-90,338 L-92,338 L-92,330 L-94,330 L-94,314 L-98,314 L-98,310 L-96,310 L-96,302 L-94,302 L-94,294 L-92,294 L-92,290 L-90,290 L-90,284 L-88,284 L-88,282 L-86,282 L-85,277 L-82,276 L-80,272 L-78,272 L-78,270 L-82,270 L-82,268 L-80,268 L-78,264 L-74,262 L-74,260 L-72,260 L-72,256 L-68,256 L-68,254 L-66,254 L-66,252 L-64,252 L-64,248 L-62,248 L-62,242 L-60,242 L-60,228 L-62,228 L-62,218 L-64,218 L-66,213 L-68,212 L-68,204 L-70,204 L-70,198 L-72,198 L-72,190 L-74,190 L-74,182 L-76,182 L-76,164 L-78,164 L-78,162 L-76,162 L-76,146 L-74,146 L-74,140 L-72,140 L-72,130 L-70,130 L-70,120 L-68,120 L-68,108 L-66,108 L-66,92 L-64,92 L-64,86 L-62,86 L-62,72 L-60,72 L-60,66 L-58,66 L-58,62 L-56,62 L-56,58 L-54,58 L-54,54 L-52,54 L-52,48 L-50,48 L-50,44 L-48,44 L-48,42 L-46,42 L-46,38 L-44,38 L-44,36 L-42,36 L-42,32 L-40,32 L-39,27 L-30,18 L-28,18 L-26,14 L-22,12 L-22,10 L-18,10 L-18,8 L-16,8 L-16,6 L-12,6 L-12,4 L-8,4 L-8,2 L0,2 Z M-23,18 Z M83,30 Z M107,42 Z M-55,94 Z M-55,102 Z M-65,373 Z M123,395 Z M58,400 Z M66,406 Z M88,406 Z " fill="#9D79A0" transform="translate(482,422)"/>
<path d="M0,0 L26,0 L26,2 L38,2 L38,4 L42,4 L42,6 L48,6 L50,9 L56,10 L58,13 L62,14 L62,16 L66,16 L66,18 L70,18 L72,21 L76,22 L76,24 L80,24 L80,26 L84,26 L84,28 L88,28 L88,30 L92,30 L92,32 L96,32 L98,35 L102,36 L102,38 L108,38 L108,40 L112,40 L112,42 L116,42 L116,44 L120,44 L120,46 L124,46 L124,48 L128,48 L130,51 L134,52 L134,54 L138,54 L140,57 L144,58 L146,61 L150,62 L154,67 L158,68 L160,71 L164,72 L171,80 L167,82 L161,77 L157,74 L154,74 L149,68 L137,61 L137,59 L130,58 L125,53 L121,51 L115,50 L110,50 L110,48 L108,48 L106,44 L104,45 L104,42 L99,41 L94,38 L91,39 L88,38 L87,33 L83,34 L82,32 L80,33 L76,31 L48,30 L45,28 L47,27 L62,27 L61,21 L58,21 L55,16 L49,14 L49,12 L39,9 L37,7 L32,9 L30,8 L30,6 L23,5 L6,5 L3,7 L3,5 L-2,8 L-8,8 L-13,13 L-16,16 L-18,18 L-23,21 L-25,21 L-28,24 L-29,32 L-34,35 L-36,38 L-32,37 L-32,39 L-34,39 L-35,43 L-38,44 L-39,48 L-41,48 L-41,50 L-43,50 L-45,64 L-46,65 L-47,78 L-49,78 L-51,82 L-53,85 L-54,88 L-54,90 L-52,90 L-52,94 L-54,102 L-52,102 L-52,112 L-52,114 L-52,121 L-54,125 L-56,125 L-56,111 L-57,97 L-60,102 L-61,116 L-63,117 L-64,126 L-67,133 L-67,141 L-69,143 L-70,148 L-70,154 L-71,155 L-71,178 L-69,183 L-68,188 L-66,193 L-65,198 L-62,211 L-58,217 L-56,228 L-55,239 L-59,251 L-65,259 L-74,268 L-75,275 L-84,285 L-87,294 L-87,296 L-85,296 L-86,300 L-91,305 L-93,312 L-89,314 L-89,326 L-85,325 L-83,329 L-85,329 L-86,341 L-87,338 L-89,338 L-90,342 L-90,338 L-92,338 L-92,330 L-94,330 L-94,314 L-98,314 L-98,310 L-96,310 L-96,302 L-94,302 L-94,294 L-92,294 L-92,290 L-90,290 L-90,284 L-88,284 L-88,282 L-86,282 L-85,277 L-82,276 L-80,272 L-78,272 L-78,270 L-82,270 L-82,268 L-80,268 L-78,264 L-74,262 L-74,260 L-72,260 L-72,256 L-68,256 L-68,254 L-66,254 L-66,252 L-64,252 L-64,248 L-62,248 L-62,242 L-60,242 L-60,228 L-62,228 L-62,218 L-64,218 L-66,213 L-68,212 L-68,204 L-70,204 L-70,198 L-72,198 L-72,190 L-74,190 L-74,182 L-76,182 L-76,164 L-78,164 L-78,162 L-76,162 L-76,146 L-74,146 L-74,140 L-72,140 L-72,130 L-70,130 L-70,120 L-68,120 L-68,108 L-66,108 L-66,92 L-64,92 L-64,86 L-62,86 L-62,72 L-60,72 L-60,66 L-58,66 L-58,62 L-56,62 L-56,58 L-54,58 L-54,54 L-52,54 L-52,48 L-50,48 L-50,44 L-48,44 L-48,42 L-46,42 L-46,38 L-44,38 L-44,36 L-42,36 L-42,32 L-40,32 L-39,27 L-30,18 L-28,18 L-26,14 L-22,12 L-22,10 L-18,10 L-18,8 L-16,8 L-16,6 L-12,6 L-12,4 L-8,4 L-8,2 L0,2 Z M-23,18 Z M83,30 Z M107,42 Z M-55,94 Z M-55,102 Z " fill="#A27CA4" transform="translate(482,422)"/>
<path d="M0,0 L2,4 L3,17 L5,19 L7,20 L7,22 L11,22 L11,30 L14,36 L16,36 L18,40 L23,44 L27,47 L26,41 L24,41 L24,33 L26,33 L26,36 L28,36 L28,41 L34,42 L36,43 L36,45 L38,44 L39,42 L41,44 L50,43 L54,43 L54,45 L60,44 L60,49 L54,50 L48,50 L48,52 L52,52 L51,55 L48,54 L49,57 L58,58 L58,63 L60,63 L60,65 L86,65 L90,67 L90,69 L120,68 L136,68 L140,69 L140,71 L135,74 L146,74 L148,75 L146,79 L143,81 L142,83 L139,84 L138,86 L116,87 L103,87 L103,81 L101,81 L101,79 L94,79 L94,77 L87,79 L86,81 L78,81 L72,80 L72,78 L68,78 L68,76 L62,76 L62,74 L58,74 L58,72 L54,72 L54,70 L50,70 L50,68 L46,68 L46,66 L41,65 L38,62 L38,60 L33,59 L32,56 L27,55 L24,52 L24,50 L20,50 L16,46 L16,42 L12,42 L8,38 L6,33 L2,30 L2,26 L0,26 L-2,19 L-4,18 L-4,14 L-6,14 L-5,10 L-5,13 L-3,13 L-1,1 Z M17,41 Z M140,68 Z M148,74 Z " fill="#B392B8" transform="translate(400,754)"/>
<path d="M0,0 L1,0 L1,6 L3,7 L1,9 L1,7 L-1,7 L-1,22 L1,23 L0,40 L-3,47 L-3,55 L-5,57 L-6,62 L-6,68 L-7,69 L-7,92 L-5,97 L-4,102 L-2,107 L-1,112 L2,125 L6,131 L8,142 L9,153 L5,165 L-1,173 L-10,182 L-11,189 L-20,199 L-23,208 L-23,210 L-21,210 L-22,214 L-27,219 L-29,226 L-25,228 L-25,240 L-21,239 L-19,243 L-21,243 L-22,255 L-23,252 L-25,252 L-26,256 L-26,252 L-28,252 L-28,244 L-30,244 L-30,228 L-34,228 L-34,224 L-32,224 L-32,216 L-30,216 L-30,208 L-28,208 L-28,204 L-26,204 L-26,198 L-24,198 L-24,196 L-22,196 L-21,191 L-18,190 L-16,186 L-14,186 L-14,184 L-18,184 L-18,182 L-16,182 L-14,178 L-10,176 L-10,174 L-8,174 L-8,170 L-4,170 L-4,168 L-2,168 L-2,166 L0,166 L0,162 L2,162 L2,156 L4,156 L4,142 L2,142 L2,132 L0,132 L-2,127 L-4,126 L-4,118 L-6,118 L-6,112 L-8,112 L-8,104 L-10,104 L-10,96 L-12,96 L-12,78 L-14,78 L-14,76 L-12,76 L-12,60 L-10,60 L-10,54 L-8,54 L-8,44 L-6,44 L-6,34 L-4,34 L-4,22 L-2,22 L-2,6 L0,6 Z " fill="#9F80A2" transform="translate(418,508)"/>
<path d="M0,0 L1,3 L3,3 L3,5 L1,6 L1,9 L-3,11 L-3,13 L-6,13 L-6,18 L-8,18 L-8,20 L-13,24 L-14,26 L-18,26 L-18,28 L-20,28 L-20,30 L-25,34 L-26,36 L-30,36 L-30,38 L-32,38 L-32,40 L-36,40 L-36,42 L-38,42 L-38,44 L-42,44 L-42,46 L-46,46 L-46,48 L-48,48 L-48,50 L-52,50 L-52,52 L-56,52 L-56,54 L-60,54 L-60,56 L-64,56 L-64,58 L-68,58 L-68,60 L-74,60 L-74,62 L-80,62 L-80,64 L-84,64 L-84,66 L-92,66 L-92,68 L-98,68 L-98,70 L-108,70 L-108,72 L-142,72 L-142,70 L-156,70 L-156,68 L-166,68 L-166,66 L-172,66 L-172,64 L-180,64 L-180,63 L-172,63 L-172,61 L-179,61 L-179,60 L-169,60 L-164,59 L-164,61 L-157,61 L-157,63 L-155,63 L-155,66 L-142,66 L-142,67 L-155,67 L-155,69 L-118,67 L-110,66 L-101,65 L-96,61 L-92,57 L-86,57 L-84,56 L-78,56 L-78,54 L-73,54 L-71,55 L-62,50 L-60,50 L-59,48 L-56,48 L-54,44 L-49,44 L-48,42 L-46,42 L-45,40 L-40,38 L-40,34 L-38,34 L-38,32 L-30,32 L-29,30 L-25,27 L-23,24 L-22,21 L-19,18 L-18,15 L-14,15 L-14,12 L-9,10 L-4,5 L-1,2 Z M-53,45 Z M-88,56 Z " fill="#A484A8" transform="translate(658,772)"/>
<path d="M0,0 L2,4 L-3,7 L-5,10 L-1,9 L-1,11 L-3,11 L-4,15 L-7,16 L-8,20 L-10,20 L-10,22 L-12,22 L-14,36 L-15,37 L-16,50 L-18,50 L-20,54 L-22,57 L-23,60 L-23,62 L-21,62 L-21,66 L-23,74 L-21,74 L-21,84 L-21,86 L-21,93 L-23,97 L-25,97 L-25,83 L-26,69 L-29,74 L-30,88 L-33,89 L-33,81 L-34,80 L-34,65 L-31,65 L-32,64 L-31,44 L-29,44 L-29,38 L-27,38 L-27,34 L-25,34 L-25,30 L-23,30 L-23,26 L-21,26 L-21,20 L-19,20 L-19,16 L-17,16 L-17,14 L-15,14 L-15,10 L-13,10 L-13,8 L-10,8 L-10,5 L-8,5 L-8,7 L-6,7 L-5,4 L-2,3 Z M-24,66 Z M-24,74 Z " fill="#B28FB5" transform="translate(451,450)"/>
<path d="M0,0 L2,1 L2,2 L7,2 L9,5 L8,6 L13,7 L19,10 L26,11 L27,13 L26,15 L23,15 L23,17 L31,16 L37,17 L37,19 L46,21 L70,20 L88,20 L89,19 L96,19 L96,21 L112,20 L116,21 L114,25 L111,27 L110,29 L107,30 L106,32 L84,33 L71,33 L71,27 L69,27 L69,25 L62,25 L62,23 L55,25 L54,27 L46,27 L40,26 L40,24 L36,24 L36,22 L30,22 L30,20 L26,20 L26,18 L22,18 L22,16 L18,16 L18,14 L14,14 L14,12 L9,11 L6,8 L6,6 L1,5 L0,2 L-4,1 Z M116,20 Z " fill="#B393B8" transform="translate(432,808)"/>
<path d="M0,0 L5,0 L2,6 L0,10 L-2,12 L-3,10 L-5,11 L-6,28 L-8,34 L-6,34 L-6,44 L-7,46 L-4,47 L-6,54 L-6,84 L-9,83 L-10,111 L-12,121 L-12,125 L-14,125 L-16,117 L-14,117 L-14,74 L-13,62 L-14,45 L-16,49 L-18,48 L-19,43 L-17,40 L-15,40 L-15,27 L-14,26 L-13,16 L-11,12 L-9,12 L-9,10 L-7,10 L-6,6 L-3,4 L-2,1 Z M-8,46 Z M-20,44 Z M-19,48 Z M-14,54 Z M-14,62 Z " fill="#C19DC4" transform="translate(450,460)"/>
<path d="M0,0 L26,0 L26,2 L38,2 L38,4 L42,4 L42,6 L48,6 L48,7 L42,7 L42,9 L47,9 L47,11 L39,9 L37,7 L32,9 L30,8 L30,6 L23,5 L6,5 L3,7 L3,5 L-2,8 L-8,8 L-13,13 L-16,16 L-18,18 L-23,21 L-25,21 L-28,24 L-29,28 L-33,32 L-36,33 L-37,35 L-39,35 L-39,33 L-41,33 L-42,36 L-42,32 L-40,32 L-39,27 L-30,18 L-28,18 L-26,14 L-22,12 L-22,10 L-18,10 L-18,8 L-16,8 L-16,6 L-12,6 L-12,4 L-8,4 L-8,2 L0,2 Z M-23,18 Z " fill="#A880A9" transform="translate(482,422)"/>
<path d="M0,0 Z M-61,-1 L-58,-1 L-58,1 L-20,0 L-4,0 L0,1 L0,3 L-5,6 L-6,7 L-12,7 L-12,5 L-19,6 L-20,7 L-40,7 L-65,8 L-71,5 L-71,3 L-73,3 L-73,1 L-62,0 Z " fill="#B797BC" transform="translate(540,822)"/>
<path d="M0,0 L1,0 L1,6 L3,6 L3,10 L5,10 L5,20 L7,20 L7,26 L5,26 L5,44 L3,44 L3,46 L1,46 L1,54 L-1,54 L-1,58 L-3,58 L-3,62 L-5,62 L-5,66 L-7,66 L-7,70 L-9,70 L-9,72 L-11,72 L-11,74 L-13,74 L-13,78 L-15,78 L-15,80 L-22,86 L-23,88 L-25,88 L-25,92 L-27,92 L-28,94 L-29,91 L-26,91 L-27,85 L-19,77 L-15,71 L-12,67 L-4,51 L-2,44 L0,41 L1,25 L2,21 L1,20 L0,12 L-2,9 L-2,6 L0,6 Z " fill="#9D769F" transform="translate(735,566)"/>
<path d="M0,0 L2,0 L3,4 L0,8 L-2,17 L0,17 L-1,21 L-6,26 L-8,33 L-4,35 L-4,47 L0,46 L2,50 L0,50 L-1,62 L-2,59 L-4,59 L-5,63 L-5,59 L-7,59 L-7,51 L-9,51 L-9,35 L-13,35 L-13,31 L-11,31 L-11,23 L-9,23 L-9,15 L-7,15 L-7,11 L-5,11 L-5,5 L-3,5 L-3,3 L0,3 Z " fill="#A388A9" transform="translate(397,701)"/>
<path d="M0,0 L7,0 L7,2 L9,2 L9,4 L12,4 L13,2 L16,5 L17,11 L16,12 L-9,12 L-10,14 L-15,14 L-16,11 L-16,4 L-15,2 L0,2 Z " fill="#CFB1D5" transform="translate(528,796)"/>
<path d="M0,0 L2,4 L3,17 L5,19 L7,20 L7,22 L11,22 L11,30 L14,36 L16,36 L18,40 L23,44 L27,47 L27,49 L26,50 L31,51 L33,53 L28,53 L27,55 L24,52 L24,50 L20,50 L16,46 L16,42 L12,42 L8,38 L6,33 L2,30 L2,26 L0,26 L-2,19 L-4,18 L-4,14 L-6,14 L-5,10 L-5,13 L-3,13 L-1,1 Z M17,41 Z " fill="#A38AA9" transform="translate(400,754)"/>
<path d="M0,0 L2,0 L2,3 L4,3 L4,8 L10,9 L12,10 L12,12 L14,11 L15,9 L17,11 L26,10 L30,10 L30,12 L36,11 L36,16 L30,17 L24,17 L24,19 L28,19 L27,22 L24,21 L25,24 L24,26 L20,26 L20,19 L12,18 L8,16 L8,13 L2,12 L2,8 L0,8 Z " fill="#B295B8" transform="translate(424,787)"/>
<path d="M0,0 L6,0 L8,2 L14,3 L16,6 L20,7 L20,9 L24,9 L24,11 L28,11 L30,16 L33,16 L33,18 L30,18 L30,23 L6,23 L3,21 L5,20 L20,20 L19,14 L16,14 L13,9 L7,7 L7,5 L5,5 L5,2 L0,2 Z " fill="#A67EA7" transform="translate(524,429)"/>
<path d="M0,0 L5,0 L2,6 L0,10 L-2,12 L-3,10 L-5,11 L-6,22 L-9,28 L-11,42 L-14,45 L-16,49 L-18,48 L-19,43 L-17,40 L-15,40 L-15,27 L-14,26 L-13,16 L-11,12 L-9,12 L-9,10 L-7,10 L-6,6 L-3,4 L-2,1 Z M-20,44 Z M-19,48 Z " fill="#B994BB" transform="translate(450,460)"/>
<path d="M0,0 L2,0 L2,6 L1,8 L4,9 L2,16 L2,46 L-1,45 L-2,73 L-4,71 L-4,37 L-3,28 L-2,8 Z M0,8 Z " fill="#C49FC7" transform="translate(442,498)"/>
<path d="M0,0 L3,0 L3,2 L10,2 L10,4 L12,4 L12,7 L25,7 L25,8 L12,8 L12,10 L49,8 L56,7 L58,8 L58,10 L26,10 L26,12 L59,12 L59,13 L25,13 L25,11 L11,11 L11,9 L1,9 L1,7 L-5,7 L-5,5 L-13,5 L-13,4 L-5,4 L-5,2 L-12,2 L-12,1 L-2,1 Z " fill="#A485A9" transform="translate(491,831)"/>
<path d="M0,0 L2,1 L1,3 L-1,3 L0,12 L-3,20 L-4,21 L-5,28 L-9,31 L-10,36 L-14,37 L-15,39 L-15,37 L-17,37 L-17,50 L-18,50 L-18,36 L-16,36 L-16,30 L-14,30 L-14,26 L-12,26 L-12,22 L-10,22 L-10,18 L-8,18 L-8,12 L-6,12 L-6,8 L-4,8 L-4,6 L-2,6 L-2,2 L0,2 Z " fill="#A181A4" transform="translate(438,458)"/>
<path d="M0,0 L2,1 L2,2 L7,2 L9,5 L8,6 L13,7 L19,10 L26,11 L27,13 L26,15 L23,15 L23,17 L31,16 L37,17 L37,19 L46,22 L46,23 L41,23 L41,25 L46,25 L46,26 L40,26 L40,24 L36,24 L36,22 L30,22 L30,20 L26,20 L26,18 L22,18 L22,16 L18,16 L18,14 L14,14 L14,12 L9,11 L6,8 L6,6 L1,5 L0,2 L-4,1 Z " fill="#A485A9" transform="translate(432,808)"/>
<path d="M0,0 L2,2 L2,5 L0,6 L-1,10 L-3,10 L-3,8 L-9,8 L-9,10 L-13,10 L-13,16 L-16,16 L-16,52 L-19,52 L-19,15 L-16,8 L-13,5 L-8,3 L-3,4 Z " fill="#AB81AC" transform="translate(707,652)"/>
<path d="M0,0 L1,0 L1,6 L3,6 L2,11 L-7,21 L-12,26 L-13,33 L-19,39 L-21,39 L-21,37 L-23,37 L-24,40 L-23,35 L-20,34 L-18,30 L-16,30 L-16,28 L-20,28 L-20,26 L-18,26 L-16,22 L-12,20 L-12,18 L-10,18 L-10,14 L-6,14 L-6,12 L-4,12 L-4,10 L-2,10 L-2,6 L0,6 Z " fill="#A586AA" transform="translate(420,664)"/>
<path d="M0,0 L1,4 L0,20 L-4,26 L-4,38 L-5,46 L-8,47 L-8,39 L-9,38 L-9,23 L-6,23 L-7,22 L-7,16 L-5,16 L-5,3 L0,3 Z M-2,18 Z " fill="#AF8DB3" transform="translate(426,492)"/>
<path d="M0,0 L40,0 L39,2 L36,3 L35,5 L13,6 L0,6 Z " fill="#AE8EB3" transform="translate(503,835)"/>
<path d="M0,0 L4,1 L1,1 L2,6 L2,42 L1,74 L0,74 L0,42 L-2,42 L-2,6 L0,6 Z " fill="#110D11" transform="translate(694,662)"/>
<path d="M0,0 L4,1 L1,1 L1,3 L4,4 L-1,9 L-6,14 L-7,18 L-11,22 L-14,23 L-15,25 L-17,25 L-17,23 L-19,23 L-20,26 L-20,22 L-18,22 L-17,17 L-8,8 L-6,8 L-4,4 L0,2 Z " fill="#A581A9" transform="translate(460,432)"/>
<path d="M0,0 L6,0 L7,3 L11,2 L14,2 L20,0 L19,4 L13,5 L13,11 L11,12 L11,10 L6,13 L3,16 L-1,17 L-1,10 L1,10 L1,3 L-1,3 Z " fill="#BD9CC1" transform="translate(629,766)"/>
<path d="M0,0 L1,3 L3,3 L3,5 L1,6 L1,9 L-3,11 L-3,13 L-6,14 L-7,17 L-12,20 L-15,23 L-15,25 L-20,24 L-22,23 L-22,21 L-19,18 L-18,15 L-14,15 L-14,12 L-9,10 L-4,5 L-1,2 Z " fill="#AE8CB2" transform="translate(658,772)"/>
<path d="M0,0 L2,4 L-3,7 L-5,10 L-1,9 L-1,11 L-3,11 L-4,15 L-7,16 L-8,20 L-10,20 L-10,22 L-12,22 L-14,28 L-18,31 L-16,27 L-14,20 L-14,11 L-12,11 L-10,5 L-8,5 L-8,7 L-6,7 L-5,4 L-2,3 Z " fill="#B38EB6" transform="translate(451,450)"/>
<path d="M0,0 L7,0 L7,2 L9,2 L9,4 L12,4 L13,2 L16,5 L16,7 L8,6 L7,8 L7,6 L4,8 L0,7 L-6,6 L-12,8 L-16,8 L-15,2 L0,2 Z " fill="#D5B6DB" transform="translate(528,796)"/>
<path d="M0,0 L4,1 L4,13 L8,12 L10,16 L8,16 L7,28 L6,25 L4,25 L3,29 L3,25 L1,25 L0,17 Z " fill="#A58CAA" transform="translate(389,735)"/>
<path d="M0,0 L1,2 L5,2 L6,5 L17,8 L17,15 L22,14 L21,19 L16,17 L12,17 L12,13 L6,13 L5,11 L1,11 L0,8 L4,8 L-2,7 L-2,5 L0,5 Z " fill="#AE90B3" transform="translate(427,798)"/>
<path d="M0,0 L2,3 L0,4 L0,7 L-3,7 L-3,12 L-5,12 L-5,14 L-9,18 L-11,18 L-11,22 L-13,22 L-13,24 L-15,24 L-15,26 L-19,25 L-16,25 L-16,23 L-18,22 L-12,21 L-13,16 L-10,17 L-10,15 L-12,15 L-13,8 L-7,5 L-5,5 L-5,3 Z " fill="#AF8DB2" transform="translate(671,760)"/>
<path d="M0,0 L5,1 L10,3 L10,5 L12,5 L12,9 L16,9 L16,13 L20,15 L24,19 L23,21 L20,22 L16,18 L15,15 L11,14 L8,9 L5,7 L5,5 L1,3 Z " fill="#A57EA7" transform="translate(650,503)"/>
<path d="M0,0 L8,1 L11,1 L14,1 L14,3 L11,3 L11,8 L-13,8 L-16,6 L-14,5 L1,5 Z " fill="#B08AB3" transform="translate(543,444)"/>
<path d="M0,0 L8,0 L6,5 L0,5 L-5,10 L-8,13 L-10,15 L-15,18 L-13,14 L-11,11 L-13,10 L-13,8 L-10,8 L-10,5 L-8,5 L-8,3 L-4,3 L-4,1 Z " fill="#A780A8" transform="translate(474,425)"/>
<path d="M0,0 L5,1 L8,4 L12,5 L14,8 L18,9 L25,17 L21,19 L15,14 L11,11 L8,11 L3,5 L-1,3 Z " fill="#A981AA" transform="translate(628,485)"/>
<path d="M0,0 L9,0 L9,2 L15,1 L15,6 L9,7 L0,8 L-1,6 L-5,5 L-4,1 Z " fill="#BE9EC2" transform="translate(445,797)"/>
<path d="M0,0 L8,1 L10,4 L14,5 L14,8 L19,8 L18,13 L16,14 L16,11 L11,10 L6,7 L3,8 L0,7 Z " fill="#AF89B3" transform="translate(570,453)"/>
<path d="M0,0 L4,1 L2,8 L4,8 L4,18 L4,20 L4,27 L2,31 L0,31 L0,17 L-1,1 Z M1,8 Z M-2,2 Z M-3,3 Z " fill="#B794B9" transform="translate(426,516)"/>
<path d="M0,0 L1,4 L-1,4 L-1,6 L-6,10 L-7,12 L-11,12 L-11,14 L-13,14 L-13,16 L-18,20 L-19,22 L-23,22 L-24,24 L-25,20 L-20,21 L-20,19 L-22,18 L-18,13 L-16,10 L-8,11 L-8,9 L-11,8 L-6,6 L-3,3 L0,3 Z " fill="#A383A6" transform="translate(651,786)"/>
<path d="M0,0 L6,1 L6,3 L-26,3 L-26,5 L7,5 L7,6 L-27,6 L-27,4 L-41,4 L-41,3 L-3,1 Z " fill="#937798" transform="translate(543,838)"/>
<path d="M0,0 L1,4 L3,4 L3,14 L5,14 L5,28 L3,28 L3,34 L1,34 L0,38 L-1,30 L0,33 L2,33 L1,28 L1,14 L2,5 L-1,5 Z " fill="#130F14" transform="translate(417,636)"/>
<path d="M0,0 L1,0 L1,30 L-2,29 L-3,31 L-3,14 L-2,13 L-1,2 Z " fill="#C7A1CA" transform="translate(443,514)"/>
<path d="M0,0 L8,3 L14,10 L14,12 L17,12 L17,14 L13,15 L10,13 L8,14 L7,8 L2,6 L-1,3 Z " fill="#A77FA8" transform="translate(672,523)"/>
<path d="M0,0 L1,0 L1,6 L3,6 L3,10 L5,10 L5,20 L7,20 L7,26 L6,26 L6,21 L4,21 L3,25 L1,20 L0,12 L-2,9 L-2,6 L0,6 Z " fill="#9F77A1" transform="translate(735,566)"/>
<path d="M0,0 L2,1 L1,3 L-1,3 L0,12 L-2,19 L-6,21 L-7,12 L-6,8 L-4,8 L-4,6 L-2,6 L-2,2 L0,2 Z " fill="#B08CB2" transform="translate(438,458)"/>
<path d="M0,0 L2,1 L2,2 L7,2 L9,5 L8,6 L13,7 L17,9 L17,11 L15,11 L15,13 L18,14 L14,14 L14,12 L9,11 L6,8 L6,6 L1,5 L0,2 L-4,1 Z " fill="#9C80A2" transform="translate(432,808)"/>
<path d="M0,0 L4,1 L1,1 L1,3 L4,4 L-1,9 L-6,14 L-9,13 L-11,11 L-8,8 L-6,8 L-4,4 L0,2 Z " fill="#AA84AD" transform="translate(460,432)"/>
<path d="M0,0 L1,0 L1,8 L3,9 L2,16 L1,18 L1,36 L0,36 L0,20 L-4,20 L-4,16 L-2,16 L-2,8 L0,8 Z " fill="#957D9A" transform="translate(388,716)"/>
<path d="M0,0 L4,1 L2,1 L2,5 L0,5 L0,7 L-7,13 L-8,15 L-10,15 L-10,19 L-12,19 L-13,21 L-14,18 L-11,18 L-12,12 L-4,4 L-3,2 L-1,2 L-1,4 L1,4 Z " fill="#A279A4" transform="translate(720,639)"/>
<path d="M0,0 L2,0 L5,3 L9,6 L9,8 L8,9 L13,10 L15,12 L10,12 L9,14 L6,11 L6,9 L2,9 L-2,5 L-2,1 Z " fill="#A58AAB" transform="translate(418,795)"/>
<path d="M0,0 L1,0 L1,10 L-1,10 L-3,14 L-5,17 L-7,12 L-7,7 Z " fill="#B692B8" transform="translate(434,490)"/>
<path d="M0,0 L6,0 L7,3 L7,10 L1,12 L-1,13 L-1,10 L1,10 L1,3 L-1,3 Z " fill="#C09FC4" transform="translate(629,766)"/>
<path d="M0,0 L12,0 L12,2 L16,2 L16,4 L22,4 L22,5 L16,5 L16,7 L21,7 L21,9 L13,7 L11,5 L6,7 L4,6 L4,3 L11,3 L11,1 L0,1 Z " fill="#957296" transform="translate(508,424)"/>
<path d="M0,0 L2,1 L1,7 L-2,7 L-2,9 L-7,9 L-7,11 L-11,11 L-11,13 L-17,12 L-12,8 L-6,6 L-5,4 L-2,4 Z " fill="#AE8DB3" transform="translate(604,816)"/>
<path d="M0,0 L1,0 L1,6 L-2,12 L-4,26 L-5,28 L-7,27 L-6,13 L-3,4 L-1,4 Z M-8,28 Z " fill="#BD98BF" transform="translate(443,476)"/>
<path d="M0,0 Z M-4,1 L2,2 L3,5 L1,6 L3,7 L3,9 L-11,8 L-8,5 Z M2,1 Z " fill="#AE8EB3" transform="translate(570,828)"/>
<path d="M0,0 L1,0 L1,6 L3,6 L2,11 L-3,17 L-9,15 L-10,18 L-10,14 L-6,14 L-6,12 L-4,12 L-4,10 L-2,10 L-2,6 L0,6 Z " fill="#9D7DA0" transform="translate(420,664)"/>
<path d="M0,0 L3,0 L4,11 L1,21 L-2,20 L-2,14 L0,14 Z " fill="#AE8AB1" transform="translate(423,650)"/>
<path d="M0,0 L2,0 L2,5 L0,5 L0,22 L-3,22 L-3,4 L-1,3 Z " fill="#B184B3" transform="translate(739,587)"/>
<path d="M0,0 L1,4 L5,3 L7,7 L5,7 L4,15 L-1,15 L-1,8 L0,7 Z " fill="#AC93B1" transform="translate(392,744)"/>
<path d="M0,0 L1,0 L1,7 L3,7 L3,2 L6,3 L7,14 L5,14 L5,22 L4,22 L4,14 L2,14 L2,8 L0,8 Z " fill="#A281A5" transform="translate(410,612)"/>
<path d="M0,0 L3,3 L3,5 L-1,5 L-2,9 L-8,8 L-10,7 L-10,4 L-8,4 L-8,2 L0,2 Z " fill="#AD8CB2" transform="translate(628,802)"/>
<path d="M0,0 L7,1 L9,4 L8,8 L0,6 L-5,4 L-5,1 L-2,1 L-2,3 L0,3 Z " fill="#AC85AF" transform="translate(545,439)"/>
<path d="M0,0 L7,1 L7,3 L2,3 L2,6 L-9,7 L-10,2 L-1,1 Z " fill="#A687AC" transform="translate(558,836)"/>
<path d="M0,0 L3,1 L3,20 L2,17 L-1,16 L2,16 L2,13 L-1,13 L-1,1 Z M1,20 Z " fill="#C6A0C9" transform="translate(447,478)"/>
<path d="M0,0 L4,0 L6,3 L10,4 L10,6 L14,7 L10,7 L10,9 L13,9 L13,11 L6,10 L6,7 L1,5 L0,3 L3,3 L3,1 Z " fill="#9E769E" transform="translate(686,534)"/>
<path d="M0,0 L5,1 L12,9 L8,11 L2,6 L-1,4 Z " fill="#A780A8" transform="translate(641,493)"/>
<path d="M0,0 L3,4 L3,9 L4,14 L3,19 L1,19 L1,12 L-1,12 L-1,4 Z " fill="#AF8CB2" transform="translate(410,600)"/>
<path d="M0,0 L1,0 L1,18 L-1,18 L-1,20 L-3,20 L-3,28 L-4,28 L-4,20 L-6,20 L-6,27 L-7,27 L-7,19 L-3,15 L-3,17 L0,17 Z " fill="#946E95" transform="translate(739,592)"/>
<path d="M0,0 L2,4 L-3,7 L-7,8 L-8,12 L-12,13 L-11,8 L-10,5 L-8,5 L-8,7 L-6,7 L-5,4 L-2,3 Z " fill="#B08BB4" transform="translate(451,450)"/>
<path d="M0,0 L9,1 L10,3 L9,5 L6,5 L5,7 L1,6 L1,3 L-2,3 L-2,1 Z " fill="#AC8BB1" transform="translate(449,818)"/>
<path d="M0,0 L5,1 L5,3 L2,3 L2,6 L0,6 L0,8 L-4,8 L-4,10 L-8,9 L-5,9 L-5,4 L-1,2 Z " fill="#A384A7" transform="translate(610,814)"/>
<path d="M0,0 L4,3 L4,5 L-4,4 L-5,6 L-5,4 L-8,6 L-12,5 L-16,3 L-12,2 L0,2 Z " fill="#D2B4D8" transform="translate(540,798)"/>
<path d="M0,0 L7,0 L8,2 L7,4 L10,4 L10,6 L4,7 L3,5 L-1,4 Z " fill="#B99BBE" transform="translate(441,798)"/>
<path d="M0,0 L5,0 L6,5 L2,9 L0,8 L-1,5 L-3,4 L-2,1 Z M-1,8 Z " fill="#B78FB9" transform="translate(463,444)"/>
<path d="M0,0 L4,0 L4,4 L8,6 L12,10 L11,12 L8,13 L4,9 L3,6 L2,4 L3,1 Z " fill="#977398" transform="translate(662,512)"/>
<path d="M0,0 L15,0 L15,3 L1,3 L-2,1 Z " fill="#B590B9" transform="translate(529,449)"/>
<path d="M0,0 L1,4 L5,6 L7,8 L7,12 L10,13 L8,14 L5,13 L5,11 L3,11 L3,9 L0,8 L-1,3 Z " fill="#161317" transform="translate(401,780)"/>
<path d="M0,0 L1,4 L-1,4 L-1,6 L-5,10 L-7,10 L-7,14 L-9,14 L-9,16 L-11,16 L-11,18 L-15,17 L-12,17 L-12,15 L-14,14 L-8,13 L-9,8 L-6,9 L-6,6 L-4,6 L-3,3 L0,3 Z " fill="#947696" transform="translate(667,768)"/>
<path d="M0,0 L2,1 L2,3 L6,3 L6,12 L4,12 L4,10 L2,10 L-1,4 Z " fill="#AC92B2" transform="translate(405,773)"/>
<path d="M0,0 L3,0 L4,2 L7,2 L7,6 L3,7 L-2,7 L-2,5 L-4,5 L-3,2 Z " fill="#B188B3" transform="translate(594,465)"/>
<path d="M0,0 L1,4 L-1,4 L-1,6 L-6,10 L-7,12 L-11,12 L-11,14 L-13,14 L-14,16 L-15,13 L-12,13 L-13,10 L-8,11 L-8,9 L-11,8 L-6,6 L-3,3 L0,3 Z " fill="#9A7C9E" transform="translate(651,786)"/>
<path d="M0,0 L2,3 L2,6 L0,7 L-1,10 L-4,11 L-4,14 L-6,14 L-7,10 L-2,4 Z " fill="#A87DAA" transform="translate(725,629)"/>
<path d="M0,0 L2,0 L4,10 L1,12 L0,15 L-2,15 L-2,9 L0,9 Z " fill="#B28EB5" transform="translate(411,553)"/>
<path d="M0,0 L6,0 L8,4 L13,4 L13,8 L7,7 L7,5 L5,5 L5,2 L0,2 Z " fill="#B187B2" transform="translate(524,429)"/>
<path d="M0,0 L2,0 L4,2 L5,2 L5,9 L-2,9 L-1,4 Z " fill="#CCADD1" transform="translate(455,782)"/>
<path d="M0,0 L4,0 L4,3 L8,4 L8,6 L0,6 L0,4 L-5,4 L-5,2 L0,2 Z " fill="#B08FB6" transform="translate(478,829)"/>
<path d="M0,0 L2,0 L3,4 L0,8 L-2,14 L-4,11 L-4,6 L-2,6 Z " fill="#AD8FB2" transform="translate(397,701)"/>
<path d="M0,0 L2,1 L2,2 L7,2 L9,5 L7,5 L8,9 L6,8 L6,6 L1,5 L0,2 L-4,1 Z " fill="#977C9A" transform="translate(432,808)"/>
<path d="M0,0 L1,4 L-1,4 L-1,8 L-7,9 L-7,4 L-6,3 L0,3 Z " fill="#A381A5" transform="translate(683,746)"/>
<path d="M0,0 L4,0 L4,2 L9,2 L8,7 L6,8 L6,5 L1,4 L-1,3 Z " fill="#AF88B2" transform="translate(580,459)"/>
<path d="M0,0 L5,1 L6,4 L9,4 L9,6 L5,7 L2,5 L0,6 Z " fill="#AF84AF" transform="translate(680,531)"/>
<path d="M0,0 L5,0 L2,6 L0,10 L-2,12 L-3,7 Z " fill="#BB95BE" transform="translate(450,460)"/>
<path d="M0,0 L8,0 L6,5 L-3,4 L-3,2 L0,2 Z " fill="#B389B4" transform="translate(474,425)"/>
<path d="M0,0 L5,0 L7,3 L5,3 L5,5 L10,5 L10,6 L4,6 L4,4 L0,4 L0,2 L-4,1 Z " fill="#987B9D" transform="translate(458,824)"/>
<path d="M0,0 L2,0 L0,4 L-8,12 L-10,14 L-10,10 L-8,10 L-6,6 L-2,2 L0,2 Z " fill="#1F171F" transform="translate(720,644)"/>
<path d="M0,0 L5,1 L6,4 L13,4 L13,6 L4,6 L3,2 L0,2 Z " fill="#B386B3" transform="translate(696,541)"/>
<path d="M0,0 L2,0 L3,3 L2,8 L-2,8 L-3,1 Z " fill="#D5B7D9" transform="translate(454,768)"/>
<path d="M0,0 L3,1 L3,3 L2,4 L7,5 L9,7 L4,7 L3,9 L0,6 L0,4 L-4,3 L0,3 Z " fill="#967D9B" transform="translate(424,800)"/>
<path d="M0,0 L1,4 L5,6 L5,12 L3,10 L1,12 L-1,3 Z " fill="#151116" transform="translate(395,768)"/>
<path d="M0,0 L2,4 L2,15 L0,15 L-1,13 L-1,1 Z " fill="#AE94B4" transform="translate(400,754)"/>
<path d="M0,0 L1,0 L1,7 L3,7 L3,2 L6,3 L6,8 L3,8 L3,14 L2,14 L2,8 L0,8 Z " fill="#977899" transform="translate(410,612)"/>
<path d="M0,0 L2,1 L1,3 L-1,3 L0,12 L-2,12 L-2,9 L-5,9 L-6,12 L-6,8 L-4,8 L-4,6 L-2,6 L-2,2 L0,2 Z " fill="#9B7A9C" transform="translate(438,458)"/>
<path d="M0,0 L4,1 L2,1 L2,5 L0,5 L0,7 L-7,8 L-3,2 L-1,2 L-1,4 L1,4 Z " fill="#9D759F" transform="translate(720,639)"/>
<path d="M0,0 L3,0 L4,9 L0,8 Z " fill="#AE8AB1" transform="translate(415,626)"/>
<path d="M0,0 L4,0 L6,3 L10,5 L4,7 L1,7 L0,3 L3,3 L3,1 Z " fill="#9E7BA1" transform="translate(574,454)"/>
<path d="M0,0 L3,1 L3,4 L0,5 L-1,10 L-3,10 L-3,3 Z " fill="#B386B3" transform="translate(694,657)"/>
<path d="M0,0 L4,1 L-4,8 L-8,10 L-6,6 L-2,4 L-2,2 L0,2 Z " fill="#1E181E" transform="translate(640,798)"/>
<path d="M0,0 L2,0 L2,2 L8,1 L8,6 L0,4 Z " fill="#C1A2C6" transform="translate(452,797)"/>
<path d="M0,0 L3,1 L0,8 L3,8 L3,10 L-2,9 L-4,8 L-4,6 L-1,3 Z " fill="#AF8EB3" transform="translate(640,787)"/>
<path d="M0,0 L4,0 L4,7 L0,7 Z " fill="#C7A7CC" transform="translate(456,791)"/>
<path d="M0,0 L2,0 L2,8 L0,8 L0,11 L-2,11 L-3,7 L-1,5 Z " fill="#B285B5" transform="translate(733,612)"/>
<path d="M0,0 L4,2 L6,3 L6,9 L3,9 L1,4 Z " fill="#B083B2" transform="translate(729,563)"/>
<path d="M0,0 L4,1 L8,6 L5,8 L2,5 L2,2 L0,2 Z " fill="#A87EAA" transform="translate(719,551)"/>
<path d="M0,0 L7,1 L8,4 L7,5 L2,5 L2,3 L0,3 Z " fill="#A781AA" transform="translate(545,439)"/>
<path d="M0,0 L6,0 L7,2 L6,4 L1,5 L1,3 L-1,3 Z " fill="#C5A3C8" transform="translate(629,766)"/>
<path d="M0,0 L4,0 L6,3 L10,4 L9,6 L4,7 L0,3 L3,3 L3,1 Z " fill="#9D789E" transform="translate(622,480)"/>
<path d="M0,0 L6,1 L6,3 L1,3 L1,6 L-5,6 L-5,5 L0,5 L0,3 L-5,3 L-5,2 L0,2 Z " fill="#A284A7" transform="translate(583,828)"/>
<path d="M0,0 L7,0 L6,2 L-2,5 L-4,3 L0,2 Z " fill="#AF8FB4" transform="translate(596,816)"/>
<path d="M0,0 L2,1 L1,4 L-5,4 L-4,2 Z M-7,4 L-5,5 L-5,11 L-7,12 L-7,10 L-9,9 Z " fill="#BA99BE" transform="translate(647,766)"/>
<path d="M0,0 L1,0 L1,12 L-1,16 L-2,6 L0,6 Z " fill="#DFB6E0" transform="translate(469,533)"/>
<path d="M0,0 L2,3 L5,4 L4,9 L1,8 L-1,4 Z " fill="#B388B4" transform="translate(660,509)"/>
<path d="M0,0 L4,0 L4,2 L7,2 L7,4 L0,5 L-1,1 Z " fill="#B187B2" transform="translate(612,475)"/>
<path d="M0,0 L2,0 L2,4 L0,4 L0,7 L-4,7 L-2,1 Z " fill="#B08BB2" transform="translate(683,742)"/>
<path d="M0,0 L4,1 L2,1 L2,5 L0,5 L-1,9 L-1,5 L-3,5 L-4,8 L-4,3 L-1,2 L-1,4 L1,4 Z " fill="#977799" transform="translate(686,737)"/>
<path d="M0,0 L2,1 L1,3 L-1,3 L-1,7 L-5,7 L-6,10 L-5,5 L-2,4 Z " fill="#8C738F" transform="translate(402,694)"/>
<path d="M0,0 L6,5 L2,7 L-1,4 Z " fill="#A981AA" transform="translate(647,497)"/>
<path d="M0,0 L2,0 L0,4 L-5,10 L-6,6 L-4,6 L-2,2 L0,2 Z " fill="#1C161D" transform="translate(666,772)"/>
<path d="M0,0 L5,1 L4,5 L0,5 L-1,1 Z " fill="#B187B2" transform="translate(636,491)"/>
<path d="M0,0 L3,1 L1,5 L-2,6 L-3,3 Z M-4,5 Z " fill="#BB95BE" transform="translate(466,447)"/>
<path d="M0,0 L4,2 L4,5 L-3,4 L-1,3 Z " fill="#AB8BB0" transform="translate(574,830)"/>
<path d="M0,0 L4,0 L4,3 L8,4 L4,4 L4,6 L0,5 L3,5 L3,3 L0,3 Z " fill="#987B9C" transform="translate(612,812)"/>
<path d="M0,0 L2,0 L0,4 L-4,8 L-6,8 L-4,4 L0,2 Z " fill="#1E181F" transform="translate(650,790)"/>
<path d="M0,0 L4,0 L4,2 L8,3 L-1,6 L-1,3 L3,3 L3,1 Z " fill="#99779C" transform="translate(566,450)"/>
<path d="M0,0 L2,3 L0,7 L-3,8 L-2,1 Z " fill="#AE87B0" transform="translate(451,443)"/>
<path d="M0,0 L1,0 L0,7 L-5,6 Z " fill="#8F7092" transform="translate(448,444)"/>
<path d="M0,0 L4,1 L1,1 L1,5 L-6,7 L-2,2 L0,2 Z " fill="#8B6C8E" transform="translate(460,432)"/>
<path d="M0,0 L2,4 L1,6 L3,7 L1,9 L-1,8 L-1,2 Z " fill="#C6A1CB" transform="translate(444,577)"/>
<path d="M0,0 L4,0 L4,2 L7,2 L7,4 L1,4 Z " fill="#B287B3" transform="translate(602,469)"/>
<path d="M0,0 L4,2 L2,3 L2,5 L5,6 L1,6 L1,3 L-2,3 L-2,1 Z " fill="#A283A7" transform="translate(449,818)"/>
<path d="M0,0 L1,4 L-1,4 L-1,6 L-6,9 L-6,6 L-4,6 L-3,3 L0,3 Z " fill="#9B7D9E" transform="translate(667,768)"/>
<path d="M0,0 L4,0 L3,4 L2,6 L0,6 Z " fill="#BA9CBE" transform="translate(408,742)"/>
<path d="M0,0 L2,1 L1,5 L-6,7 L-2,2 L0,2 Z " fill="#8A708D" transform="translate(408,682)"/>
<path d="M0,0 L2,0 L3,4 L1,4 L0,8 L0,6 L-2,6 L-2,3 L0,3 Z " fill="#B38EB5" transform="translate(429,477)"/>
<path d="M0,0 L6,1 L8,3 L1,3 L-2,1 Z " fill="#BA94BD" transform="translate(529,449)"/>
<path d="M0,0 L4,0 L4,2 L8,3 L5,3 L5,6 L3,6 L3,4 L0,3 L3,3 L3,1 Z " fill="#99759A" transform="translate(540,436)"/>
<path d="M0,0 L5,0 L3,4 L-2,4 Z " fill="#AC8CB1" transform="translate(580,826)"/>
<path d="M0,0 L1,3 L5,3 L5,7 L8,8 L4,8 L0,4 Z " fill="#937B99" transform="translate(408,788)"/>
<path d="M0,0 L2,1 L1,6 L-3,6 L-1,1 Z " fill="#AD8DB2" transform="translate(406,691)"/>
<path d="M0,0 L6,1 L4,5 L1,6 L2,2 L0,2 Z " fill="#B288B3" transform="translate(467,429)"/>
<path d="M0,0 L3,1 L2,5 L-2,4 Z " fill="#AB8AAE" transform="translate(654,777)"/>
<path d="M0,0 L5,1 L3,5 L0,3 Z " fill="#AF8CB2" transform="translate(411,679)"/>
<path d="M0,0 L3,2 L0,8 L-1,8 L-1,1 Z " fill="#C19CC5" transform="translate(447,478)"/>
<path d="M0,0 L1,3 L3,3 L2,6 L-1,5 L-3,3 Z " fill="#937396" transform="translate(452,440)"/>
<path d="M0,0 L1,3 L-2,6 L-4,6 L-3,2 L0,2 Z " fill="#AA89AD" transform="translate(663,769)"/>
<path d="M0,0 L3,0 L3,2 L1,3 L1,6 L-1,6 L-2,2 Z " fill="#B28CB4" transform="translate(686,735)"/>
<path d="M0,0 L1,0 L1,5 L-2,9 L-2,2 L0,2 Z " fill="#A58AAB" transform="translate(393,715)"/>
<path d="M0,0 L3,0 L3,2 L1,3 L1,6 L-1,6 L-2,2 Z " fill="#B184B3" transform="translate(720,637)"/>
<path d="M0,0 L1,3 L3,3 L1,7 L1,5 L-1,5 L-2,8 L-2,4 L0,4 Z " fill="#947697" transform="translate(426,480)"/>
<path d="M0,0 L2,0 L2,2 L0,2 L0,4 L-2,4 L-2,6 L-4,6 L-3,2 Z " fill="#AF88B3" transform="translate(457,437)"/>
<path d="M0,0 L3,2 L3,4 L1,4 L1,6 L-1,6 Z " fill="#AE93B2" transform="translate(396,747)"/>
<path d="M0,0 Z M-4,1 L0,1 L0,3 L-6,5 Z " fill="#AF8FB4" transform="translate(570,828)"/>
<path d="M0,0 L5,1 L5,3 L1,4 Z " fill="#AE8CB1" transform="translate(634,796)"/>
<path d="M0,0 L3,4 L1,6 L-2,5 L-2,3 L0,3 Z " fill="#AD91B3" transform="translate(415,790)"/>
<path d="M0,0 L3,3 L1,7 L-1,7 Z " fill="#B695BA" transform="translate(639,778)"/>
<path d="M0,0 L3,0 L3,4 L0,5 L-1,1 Z " fill="#B185B1" transform="translate(692,539)"/>
<path d="M0,0 L4,0 L4,5 L3,3 L0,3 Z " fill="#CAA4CD" transform="translate(446,500)"/>
<path d="M0,0 L7,0 L4,3 L0,2 Z " fill="#AE85AF" transform="translate(512,428)"/>
<path d="M0,0 L3,1 L2,5 L-1,3 Z " fill="#B086B1" transform="translate(672,523)"/>
<path d="M0,0 L2,3 L2,6 L0,6 L-1,1 Z " fill="#B084B2" transform="translate(725,629)"/>
<path d="M0,0 L4,0 L4,3 L0,3 Z " fill="#AD86B0" transform="translate(570,453)"/>
<path d="M0,0 L5,2 L5,3 L0,3 Z " fill="#AB8BB0" transform="translate(503,835)"/>
<path d="M0,0 L3,1 L1,5 L1,3 L-1,2 Z " fill="#A783AB" transform="translate(688,732)"/>
<path d="M0,0 L3,1 L3,4 L0,4 L-1,1 Z " fill="#030203" transform="translate(414,635)"/>
<path d="M0,0 L4,1 L4,4 L2,4 L2,2 L0,2 Z " fill="#B184B3" transform="translate(719,551)"/>
<path d="M0,0 L1,2 L3,2 L1,6 L0,6 Z " fill="#B592B8" transform="translate(427,510)"/>
<path d="M0,0 L5,1 L2,4 L0,3 Z " fill="#AC86AF" transform="translate(560,451)"/>
<path d="M0,0 L3,0 L3,4 L0,3 Z " fill="#B288B3" transform="translate(520,427)"/>
<path d="M0,0 L3,0 L1,5 L0,5 Z " fill="#B492B7" transform="translate(664,752)"/>
<path d="M0,0 L2,2 L2,5 L0,5 L-1,1 Z " fill="#B185B4" transform="translate(707,652)"/>
<path d="M0,0 L5,1 L1,3 Z " fill="#AC83AD" transform="translate(648,501)"/>
</svg>
