<?xml version="1.0" encoding="UTF-8"?>
<!-- Generator: visioncortex VTracer 0.6.4 -->
<svg version="1.1" xmlns="http://www.w3.org/2000/svg" width="1024" height="1024">
<path d="M0,0 L1024,0 L1024,1024 L0,1024 Z " fill="#000000" transform="translate(0,0)"/>
<path d="M0,0 L6,0 L6,6 L12,6 L12,8 L28,8 L28,10 L30,10 L30,6 L36,6 L36,12 L52,12 L52,18 L68,18 L68,22 L98,22 L98,24 L106,24 L106,28 L108,28 L108,30 L116,30 L116,32 L122,32 L122,34 L126,34 L126,38 L128,38 L128,40 L144,40 L144,42 L152,42 L152,48 L156,48 L160,52 L160,58 L164,58 L168,62 L168,70 L170,70 L170,72 L174,72 L174,76 L178,78 L178,80 L180,80 L180,86 L186,86 L186,90 L188,90 L188,92 L190,92 L190,96 L194,98 L198,103 L202,104 L202,108 L206,108 L206,110 L212,110 L212,114 L218,114 L218,118 L228,118 L228,122 L234,122 L234,124 L240,124 L244,129 L250,130 L250,132 L252,132 L252,128 L260,128 L260,132 L262,132 L262,136 L266,138 L266,140 L268,140 L268,150 L272,150 L272,160 L274,160 L274,162 L276,162 L276,176 L274,176 L274,180 L276,180 L276,186 L272,186 L272,188 L270,188 L270,192 L268,192 L268,194 L266,194 L266,200 L268,200 L268,206 L266,206 L266,210 L264,210 L264,212 L262,212 L262,216 L260,216 L260,220 L258,220 L258,226 L256,226 L256,232 L250,232 L250,234 L252,234 L252,240 L250,240 L250,242 L248,242 L248,246 L242,246 L242,248 L240,248 L240,250 L234,250 L234,252 L232,252 L232,254 L230,254 L230,256 L228,256 L228,258 L224,258 L224,260 L222,260 L222,262 L220,262 L220,264 L214,264 L214,270 L212,270 L212,272 L210,272 L210,274 L202,274 L202,278 L200,278 L200,284 L198,284 L198,290 L196,290 L196,294 L192,294 L192,296 L188,296 L188,302 L186,302 L186,308 L184,308 L184,310 L174,310 L174,314 L172,314 L172,320 L170,320 L170,322 L164,322 L164,326 L158,326 L158,328 L156,328 L156,332 L152,332 L152,336 L136,336 L136,334 L128,334 L128,326 L120,326 L120,324 L116,324 L116,326 L110,326 L110,322 L102,322 L102,324 L96,324 L96,322 L90,322 L90,326 L84,326 L84,330 L82,330 L82,336 L74,336 L74,334 L72,334 L72,340 L64,340 L64,342 L60,346 L52,346 L52,348 L44,348 L44,352 L32,352 L32,356 L24,356 L24,354 L4,354 L4,356 L-8,356 L-10,352 L-22,352 L-22,350 L-24,350 L-24,346 L-26,346 L-26,342 L-34,342 L-34,336 L-40,336 L-40,334 L-46,334 L-46,330 L-48,330 L-48,328 L-62,328 L-62,324 L-68,324 L-68,322 L-72,322 L-72,318 L-77,317 L-78,314 L-92,314 L-92,310 L-96,310 L-96,308 L-106,308 L-106,302 L-112,302 L-112,298 L-116,298 L-116,294 L-118,294 L-118,290 L-120,290 L-120,278 L-122,278 L-122,274 L-124,274 L-124,272 L-128,272 L-128,268 L-130,268 L-130,262 L-132,262 L-132,258 L-136,258 L-138,253 L-140,252 L-140,248 L-146,248 L-146,228 L-152,228 L-152,218 L-154,218 L-154,208 L-152,208 L-152,200 L-154,200 L-154,190 L-156,190 L-156,186 L-158,186 L-158,182 L-162,182 L-162,176 L-158,176 L-158,174 L-160,174 L-160,168 L-158,168 L-158,160 L-156,160 L-156,146 L-154,146 L-154,138 L-150,138 L-150,136 L-148,136 L-148,130 L-144,128 L-144,122 L-138,122 L-138,120 L-136,120 L-136,118 L-132,118 L-132,116 L-130,116 L-130,108 L-128,108 L-128,106 L-126,106 L-126,98 L-124,98 L-124,74 L-122,74 L-122,66 L-118,66 L-118,62 L-116,62 L-116,58 L-112,58 L-112,54 L-110,54 L-110,52 L-108,52 L-108,48 L-102,48 L-102,46 L-100,46 L-100,44 L-92,44 L-92,42 L-90,42 L-90,38 L-84,38 L-84,34 L-80,34 L-80,30 L-70,30 L-70,24 L-62,24 L-62,22 L-56,22 L-56,20 L-54,20 L-54,18 L-48,18 L-48,12 L-40,12 L-40,10 L-34,10 L-34,8 L-30,8 L-30,6 L-28,6 L-28,4 L-22,4 L-22,2 L-16,2 L-16,4 L-14,4 L-14,2 L-6,2 L-6,4 L0,4 Z " fill="#7064AB" transform="translate(430,348)"/>
<path d="M0,0 L6,0 L6,6 L12,6 L12,8 L28,8 L28,10 L30,10 L30,6 L36,6 L36,12 L52,12 L52,18 L68,18 L68,22 L98,22 L98,24 L106,24 L106,28 L108,28 L108,30 L116,30 L116,32 L122,32 L122,34 L126,34 L126,38 L128,38 L128,40 L144,40 L144,42 L152,42 L152,48 L156,48 L160,52 L160,58 L164,58 L168,62 L168,70 L170,70 L170,72 L174,72 L174,76 L178,78 L178,80 L180,80 L180,86 L186,86 L186,90 L188,90 L188,92 L190,92 L190,96 L194,98 L198,103 L202,104 L202,108 L206,108 L206,110 L212,110 L212,114 L218,114 L218,118 L228,118 L228,122 L234,122 L234,124 L240,124 L244,129 L250,130 L250,132 L252,132 L252,128 L260,128 L260,132 L262,132 L262,136 L266,138 L266,140 L268,140 L268,150 L272,150 L272,160 L274,160 L274,162 L276,162 L276,176 L274,176 L274,180 L276,180 L276,186 L272,186 L272,188 L270,188 L270,192 L268,192 L268,194 L266,194 L266,200 L268,200 L268,206 L266,206 L266,210 L264,210 L264,212 L262,212 L262,216 L260,216 L260,220 L258,220 L258,226 L256,226 L256,232 L250,232 L250,234 L252,234 L252,240 L250,240 L250,242 L248,242 L248,246 L242,246 L242,248 L240,248 L240,250 L234,250 L234,252 L232,252 L232,254 L230,254 L230,256 L228,256 L228,258 L224,258 L224,260 L222,260 L222,262 L220,262 L220,264 L214,264 L214,270 L212,270 L212,272 L210,272 L210,274 L202,274 L202,278 L200,278 L200,284 L198,284 L198,290 L196,290 L196,294 L192,294 L192,296 L188,296 L188,302 L186,302 L186,308 L184,308 L184,310 L174,310 L174,314 L172,314 L172,320 L170,320 L170,322 L164,322 L164,326 L158,326 L158,328 L156,328 L156,332 L152,332 L152,336 L136,336 L136,334 L128,334 L128,326 L120,326 L120,324 L116,324 L116,326 L110,326 L110,322 L102,322 L102,324 L96,324 L96,322 L90,322 L90,326 L84,326 L84,330 L82,330 L82,336 L74,336 L74,334 L72,334 L72,340 L64,340 L64,342 L60,346 L52,346 L52,348 L44,348 L44,352 L32,352 L32,356 L24,356 L24,354 L4,354 L4,356 L-8,356 L-10,352 L-22,352 L-22,350 L-24,350 L-24,346 L-26,346 L-26,342 L-34,342 L-34,336 L-40,336 L-40,334 L-46,334 L-46,330 L-48,330 L-48,328 L-62,328 L-62,324 L-68,324 L-68,322 L-72,322 L-72,318 L-77,317 L-78,314 L-92,314 L-92,310 L-96,310 L-96,308 L-106,308 L-106,302 L-112,302 L-112,298 L-116,298 L-116,294 L-118,294 L-118,290 L-120,290 L-120,278 L-122,278 L-122,274 L-124,274 L-124,272 L-128,272 L-128,268 L-130,268 L-130,262 L-132,262 L-132,258 L-136,258 L-138,253 L-140,252 L-140,248 L-146,248 L-146,228 L-152,228 L-152,218 L-154,218 L-154,208 L-152,208 L-152,200 L-154,200 L-154,190 L-156,190 L-156,186 L-158,186 L-158,182 L-162,182 L-162,176 L-158,176 L-158,174 L-160,174 L-160,168 L-158,168 L-158,160 L-156,160 L-156,146 L-154,146 L-154,138 L-150,138 L-150,136 L-148,136 L-148,130 L-144,128 L-144,122 L-138,122 L-138,120 L-136,120 L-136,118 L-132,118 L-132,116 L-130,116 L-130,108 L-128,108 L-128,106 L-126,106 L-126,98 L-124,98 L-124,74 L-122,74 L-122,66 L-118,66 L-118,62 L-116,62 L-116,58 L-112,58 L-112,54 L-110,54 L-110,52 L-108,52 L-108,48 L-102,48 L-102,46 L-100,46 L-100,44 L-92,44 L-92,42 L-90,42 L-90,38 L-84,38 L-84,34 L-80,34 L-80,30 L-70,30 L-70,24 L-62,24 L-62,22 L-56,22 L-56,20 L-54,20 L-54,18 L-48,18 L-48,12 L-40,12 L-40,10 L-34,10 L-34,8 L-30,8 L-30,6 L-28,6 L-28,4 L-22,4 L-22,2 L-16,2 L-16,4 L-14,4 L-14,2 L-6,2 L-6,4 L0,4 Z M31,12 L31,14 L28,14 L27,17 L26,16 L11,15 L8,15 L7,13 L-2,13 L-2,15 L-9,15 L-11,13 L-14,14 L-14,20 L-15,23 L-14,25 L-22,30 L-22,38 L-19,40 L-26,45 L-26,48 L-30,50 L-32,52 L-37,51 L-38,52 L-40,50 L-46,54 L-47,56 L-48,50 L-52,51 L-53,51 L-51,47 L-52,43 L-49,37 L-45,34 L-45,32 L-42,35 L-38,33 L-32,33 L-31,30 L-33,27 L-36,28 L-36,25 L-45,25 L-52,31 L-58,31 L-59,32 L-68,33 L-78,37 L-80,39 L-80,49 L-71,49 L-67,50 L-67,52 L-80,52 L-82,54 L-85,54 L-90,57 L-88,53 L-86,52 L-90,50 L-94,52 L-97,56 L-95,61 L-97,64 L-94,64 L-94,67 L-92,67 L-90,61 L-85,60 L-78,59 L-78,61 L-82,61 L-86,63 L-89,68 L-91,71 L-89,71 L-91,74 L-95,73 L-102,82 L-107,81 L-111,80 L-113,82 L-115,81 L-119,83 L-118,91 L-118,106 L-116,111 L-114,110 L-115,112 L-117,116 L-112,121 L-114,127 L-114,131 L-121,140 L-122,150 L-120,163 L-122,165 L-122,172 L-120,170 L-118,176 L-116,181 L-122,183 L-122,176 L-127,176 L-128,180 L-127,188 L-129,190 L-130,197 L-128,204 L-125,204 L-126,208 L-127,215 L-126,219 L-120,219 L-118,223 L-116,224 L-117,226 L-111,225 L-112,231 L-116,231 L-116,237 L-111,238 L-110,245 L-108,245 L-107,254 L-106,268 L-101,272 L-98,271 L-99,276 L-102,273 L-107,273 L-111,276 L-110,280 L-112,285 L-112,292 L-110,293 L-108,297 L-103,302 L-101,304 L-98,304 L-98,300 L-96,300 L-96,295 L-100,292 L-102,292 L-102,288 L-98,287 L-92,288 L-92,278 L-90,285 L-89,288 L-85,289 L-82,292 L-80,292 L-79,296 L-71,297 L-62,297 L-62,299 L-49,299 L-49,297 L-22,297 L-15,298 L-15,303 L19,303 L29,300 L34,298 L42,296 L42,298 L50,296 L53,290 L62,287 L62,285 L64,285 L64,281 L67,283 L95,283 L94,280 L98,280 L98,282 L96,282 L96,285 L103,286 L112,284 L112,287 L114,288 L126,287 L140,287 L147,286 L148,281 L146,276 L148,272 L147,271 L142,271 L142,269 L148,269 L149,266 L154,264 L154,262 L157,263 L161,259 L160,256 L156,258 L157,254 L161,253 L161,250 L164,249 L165,246 L164,245 L170,244 L174,243 L175,236 L176,229 L180,227 L181,220 L184,214 L183,196 L188,196 L189,181 L189,167 L184,164 L182,163 L182,158 L179,156 L176,156 L176,149 L172,149 L173,140 L172,137 L170,137 L170,135 L168,135 L167,132 L160,131 L157,124 L154,124 L153,122 L151,123 L151,119 L146,119 L145,112 L135,113 L133,113 L132,109 L132,108 L136,106 L137,101 L133,101 L132,98 L129,98 L128,95 L118,95 L116,98 L114,98 L114,96 L116,96 L116,93 L112,89 L99,88 L97,89 L95,85 L91,87 L88,88 L84,87 L81,89 L80,83 L83,81 L86,81 L87,84 L92,85 L106,85 L106,87 L120,87 L124,88 L124,86 L122,86 L122,79 L118,80 L116,81 L116,79 L114,79 L113,77 L109,75 L109,71 L104,71 L102,72 L91,71 L109,69 L112,68 L113,65 L110,64 L109,57 L113,57 L112,60 L118,61 L120,60 L120,62 L122,62 L123,58 L121,53 L115,51 L113,51 L108,50 L101,49 L101,52 L98,52 L98,50 L90,50 L83,51 L78,50 L71,52 L70,50 L57,50 L50,49 L37,49 L37,51 L19,51 L12,52 L11,50 L10,49 L18,48 L18,44 L16,43 L25,44 L33,43 L37,44 L37,42 L43,44 L44,48 L50,48 L53,44 L56,43 L56,39 L52,40 L52,38 L50,38 L50,36 L44,36 L41,37 L40,35 L55,35 L58,36 L61,41 L66,41 L66,43 L82,43 L82,41 L98,41 L102,40 L102,43 L107,43 L107,41 L112,41 L112,43 L118,43 L117,40 L109,36 L105,37 L100,36 L97,34 L86,34 L81,35 L77,33 L75,34 L73,32 L70,32 L64,31 L64,29 L62,29 L62,25 L51,25 L52,21 L48,16 L36,15 L33,12 Z M56,38 Z M-39,49 Z M-71,50 Z M147,270 Z M-58,49 Z M7,51 L10,52 Z M-78,58 Z M155,258 Z M146,282 Z " fill="#534B7E" transform="translate(430,348)"/>
<path d="M0,0 L15,0 L19,2 L22,6 L26,7 L26,9 L36,8 L42,9 L42,7 L58,6 L62,6 L62,9 L71,9 L77,11 L79,10 L80,16 L94,16 L109,18 L109,21 L106,23 L110,31 L110,34 L112,34 L112,37 L117,36 L122,41 L125,42 L127,46 L133,48 L132,55 L136,57 L140,62 L140,66 L144,66 L144,70 L147,70 L147,72 L151,74 L155,77 L155,79 L159,77 L162,75 L171,77 L171,79 L165,80 L164,82 L171,82 L172,81 L177,81 L177,83 L173,85 L177,86 L177,93 L181,93 L182,98 L192,98 L195,99 L195,105 L199,104 L201,105 L202,98 L204,98 L204,100 L209,100 L212,101 L217,99 L221,104 L224,109 L226,122 L226,128 L225,130 L223,130 L222,135 L220,169 L216,172 L212,171 L213,177 L208,178 L208,180 L210,180 L211,184 L210,187 L208,187 L208,191 L202,192 L200,198 L200,206 L194,207 L191,206 L191,212 L182,216 L179,217 L181,220 L181,223 L177,225 L173,224 L169,225 L169,231 L168,233 L160,234 L160,239 L161,243 L159,243 L158,241 L152,242 L148,246 L145,258 L140,260 L138,264 L133,268 L132,271 L124,273 L122,273 L118,278 L116,278 L116,280 L104,283 L101,280 L80,278 L81,273 L86,273 L86,270 L75,271 L73,274 L73,271 L66,271 L66,265 L62,265 L62,263 L54,265 L43,265 L42,271 L37,274 L31,276 L26,277 L23,276 L23,272 L18,274 L16,279 L12,279 L12,281 L5,280 L2,282 L-16,285 L-15,281 L-11,280 L-9,274 L-18,272 L-18,270 L-25,271 L-26,278 L-22,279 L-30,279 L-34,278 L-34,280 L-38,278 L-38,271 L-54,272 L-56,273 L-56,266 L-60,267 L-62,266 L-62,263 L-55,264 L-55,269 L-21,268 L-11,265 L-6,263 L2,262 L2,264 L6,262 L10,262 L12,256 L17,253 L22,253 L22,251 L24,251 L24,247 L32,248 L54,248 L54,246 L58,246 L58,248 L56,248 L56,251 L63,251 L72,249 L73,251 L72,253 L80,253 L86,252 L100,252 L107,251 L107,246 L105,242 L107,238 L102,237 L102,235 L108,234 L112,230 L114,230 L114,228 L118,227 L120,223 L116,224 L117,220 L121,219 L121,216 L124,213 L124,210 L134,209 L134,198 L136,194 L139,193 L140,186 L143,180 L143,162 L148,162 L148,133 L141,130 L141,124 L136,122 L136,115 L132,115 L132,103 L130,103 L130,101 L128,101 L127,99 L120,98 L118,96 L117,90 L111,89 L111,85 L106,85 L104,79 L95,80 L93,79 L91,76 L90,74 L92,74 L93,71 L94,73 L96,71 L97,67 L93,67 L91,65 L88,65 L88,61 L80,62 L78,62 L76,65 L74,64 L74,62 L76,62 L76,59 L73,58 L72,56 L59,55 L56,55 L55,52 L51,54 L49,53 L48,55 L44,54 L41,56 L39,52 L40,48 L43,46 L46,47 L49,50 L62,50 L66,51 L66,53 L80,52 L84,54 L84,52 L82,52 L82,45 L76,47 L76,45 L72,44 L72,42 L68,41 L68,38 L62,39 L49,38 L51,36 L72,34 L72,32 L69,30 L69,23 L73,23 L73,25 L80,26 L80,28 L82,28 L81,20 L75,18 L73,19 L72,17 L62,16 L61,18 L58,18 L58,16 L44,18 L38,17 L31,19 L30,16 L22,17 L10,16 L0,16 L-3,15 L-3,17 L-19,18 L-26,19 L-30,17 L-30,15 L-22,14 L-22,10 L-27,10 L-25,8 L-15,9 L-7,8 L-3,10 L-3,8 L3,9 L4,14 L10,13 L10,11 L12,9 L16,9 L16,5 L12,6 L12,4 L10,4 L10,2 L1,4 L-1,1 Z M16,4 Z M107,236 Z M-33,17 L-30,18 Z M115,224 Z M106,248 Z " fill="#584D86" transform="translate(470,382)"/>
<path d="M0,0 L4,1 L7,4 L20,4 L24,5 L24,7 L38,6 L42,7 L46,8 L47,10 L48,9 L53,9 L53,7 L55,7 L56,4 L65,6 L69,8 L69,10 L71,10 L71,15 L76,16 L76,20 L82,19 L81,23 L83,22 L83,21 L89,20 L91,25 L85,27 L84,29 L89,30 L89,35 L96,35 L98,38 L101,41 L101,45 L107,45 L107,52 L109,52 L111,54 L113,59 L116,62 L118,65 L126,69 L127,70 L128,68 L126,68 L127,64 L130,64 L134,69 L135,70 L136,77 L140,76 L140,83 L134,85 L133,83 L127,88 L125,88 L126,91 L124,100 L121,101 L120,108 L117,109 L114,116 L112,116 L112,120 L108,122 L107,128 L109,129 L106,139 L109,140 L114,140 L114,138 L111,135 L112,133 L116,134 L118,136 L121,129 L125,132 L124,140 L128,144 L126,151 L123,154 L122,157 L120,157 L120,159 L115,164 L111,164 L110,168 L107,168 L107,170 L102,171 L101,179 L97,180 L97,187 L92,188 L92,202 L90,207 L85,208 L76,211 L69,217 L64,222 L58,220 L58,218 L50,218 L39,219 L16,218 L12,219 L1,219 L0,225 L-5,228 L-11,230 L-16,231 L-19,230 L-19,226 L-24,228 L-26,233 L-30,233 L-30,235 L-37,234 L-40,236 L-58,239 L-57,235 L-53,234 L-51,228 L-60,226 L-60,224 L-67,225 L-68,232 L-64,233 L-72,233 L-76,232 L-76,234 L-80,232 L-80,225 L-96,226 L-98,227 L-98,220 L-102,221 L-104,220 L-104,217 L-97,218 L-97,223 L-63,222 L-53,219 L-48,217 L-40,216 L-40,218 L-36,216 L-32,216 L-30,210 L-25,207 L-20,207 L-20,205 L-18,205 L-18,201 L-10,202 L12,202 L12,200 L16,200 L16,202 L14,202 L14,205 L21,205 L30,203 L31,205 L30,207 L38,207 L44,206 L58,206 L65,205 L65,200 L63,196 L65,192 L60,191 L60,189 L66,188 L70,184 L72,184 L72,182 L76,181 L78,177 L74,178 L75,174 L79,173 L79,170 L82,167 L82,164 L92,163 L92,152 L94,148 L97,147 L98,140 L101,134 L101,116 L106,116 L106,87 L99,84 L99,78 L94,76 L94,69 L90,69 L90,57 L88,57 L88,55 L86,55 L85,53 L78,52 L76,50 L75,44 L69,43 L69,39 L64,39 L62,33 L53,34 L51,33 L49,30 L48,28 L50,28 L51,25 L52,27 L54,25 L55,21 L51,21 L49,19 L46,19 L46,15 L38,16 L36,16 L34,19 L32,18 L32,16 L34,16 L34,13 L31,12 L30,10 L17,9 L14,9 L13,6 L9,8 L7,7 L6,9 L2,8 L-1,10 L-3,6 L-2,2 Z M108,55 Z M114,134 Z M65,190 Z M73,178 Z M64,202 Z " fill="#6659A2" transform="translate(512,428)"/>
<path d="M0,0 L8,0 L8,7 L35,7 L35,4 L76,4 L76,8 L84,8 L84,14 L86,14 L86,8 L92,8 L92,16 L94,16 L94,22 L84,22 L84,20 L82,20 L82,14 L76,14 L76,10 L74,10 L74,14 L68,14 L68,20 L64,20 L64,28 L58,28 L58,20 L56,20 L56,40 L50,40 L50,38 L42,38 L42,44 L40,44 L40,46 L46,46 L46,50 L54,50 L54,58 L48,58 L48,64 L42,64 L42,66 L40,66 L40,76 L38,76 L38,78 L32,78 L32,82 L26,82 L26,86 L16,86 L16,88 L-4,88 L-4,86 L-6,86 L-6,92 L-10,92 L-10,94 L-16,94 L-16,96 L-18,96 L-18,102 L-22,102 L-22,106 L-26,106 L-26,110 L-28,110 L-28,112 L-40,112 L-40,106 L-48,106 L-48,108 L-50,108 L-50,118 L-58,118 L-58,112 L-56,112 L-56,110 L-60,110 L-60,90 L-58,90 L-58,88 L-52,88 L-52,86 L-46,86 L-46,80 L-42,80 L-42,78 L-40,78 L-40,64 L-34,64 L-34,62 L-32,62 L-32,44 L-24,44 L-24,42 L-22,42 L-22,40 L-14,40 L-14,34 L-12,32 L-8,32 L-8,16 L-6,16 L-6,10 L-4,10 L-4,7 L0,7 Z " fill="#160E38" transform="translate(346,206)"/>
<path d="M0,0 L6,0 L6,14 L18,14 L18,18 L22,18 L22,52 L32,52 L32,54 L36,54 L36,50 L42,50 L42,54 L46,54 L46,64 L52,64 L52,66 L64,66 L64,72 L58,72 L58,82 L62,82 L62,102 L60,102 L60,108 L58,108 L58,110 L56,110 L56,112 L54,112 L54,114 L52,114 L52,126 L54,126 L54,138 L50,138 L50,142 L48,142 L48,144 L50,144 L50,152 L54,154 L56,158 L60,158 L60,160 L64,160 L64,164 L66,164 L68,167 L72,168 L72,170 L76,170 L76,174 L80,174 L80,170 L90,170 L92,173 L102,174 L102,180 L100,180 L100,184 L94,184 L94,188 L92,188 L92,190 L74,190 L74,188 L70,188 L68,181 L66,180 L66,178 L62,178 L62,172 L58,172 L58,166 L56,166 L56,164 L52,164 L52,162 L48,162 L44,157 L42,156 L42,142 L40,142 L40,138 L38,138 L38,142 L32,142 L32,134 L30,134 L30,126 L28,126 L28,106 L20,106 L20,98 L14,98 L14,90 L12,90 L12,88 L-4,88 L-4,86 L-10,86 L-10,88 L-18,88 L-18,80 L-20,80 L-20,82 L-26,82 L-26,80 L-32,80 L-32,78 L-34,78 L-34,72 L-32,72 L-32,70 L-34,70 L-34,58 L-36,58 L-36,56 L-38,56 L-38,46 L-34,46 L-34,38 L-26,38 L-26,40 L-18,40 L-18,46 L4,46 L4,38 L2,38 L2,36 L-2,36 L-2,2 L0,2 Z " fill="#160E38" transform="translate(572,220)"/>
<path d="M0,0 L6,0 L6,6 L12,6 L12,8 L28,8 L28,10 L30,10 L30,6 L36,6 L36,12 L52,12 L52,18 L68,18 L68,22 L98,22 L98,24 L106,24 L106,28 L108,28 L108,30 L116,30 L116,32 L122,32 L122,34 L126,34 L126,38 L128,38 L128,40 L144,40 L144,42 L152,42 L152,48 L156,48 L160,52 L160,58 L164,58 L168,62 L168,70 L170,70 L170,72 L174,72 L174,76 L178,78 L178,80 L180,80 L180,86 L186,86 L186,90 L188,90 L188,92 L190,92 L190,96 L194,98 L198,103 L202,104 L202,108 L206,108 L205,110 L201,111 L200,113 L195,113 L190,108 L187,106 L187,104 L184,104 L184,100 L180,100 L177,93 L172,89 L171,85 L171,82 L166,80 L165,76 L161,75 L157,71 L152,71 L152,68 L150,68 L145,56 L149,54 L149,53 L130,51 L120,50 L118,46 L107,43 L107,41 L110,40 L112,41 L112,43 L117,42 L117,40 L112,39 L107,37 L104,37 L99,37 L97,35 L86,35 L81,36 L77,34 L74,34 L70,33 L66,33 L66,31 L64,31 L64,29 L62,29 L62,25 L51,25 L50,20 L48,19 L48,16 L36,16 L31,12 L31,14 L28,14 L27,18 L26,16 L8,16 L7,13 L-2,13 L-2,15 L-9,16 L-13,14 L-13,20 L-14,25 L-12,26 L-20,29 L-21,34 L-21,38 L-18,40 L-23,44 L-25,45 L-26,48 L-32,53 L-37,52 L-39,53 L-40,51 L-45,54 L-47,58 L-48,56 L-48,50 L-52,52 L-61,52 L-58,50 L-53,50 L-51,44 L-53,43 L-50,37 L-45,32 L-42,33 L-42,35 L-38,32 L-32,32 L-33,28 L-36,28 L-36,25 L-45,26 L-52,32 L-58,32 L-59,33 L-68,34 L-78,38 L-79,43 L-80,49 L-70,48 L-70,50 L-67,50 L-67,52 L-80,53 L-83,55 L-85,55 L-89,57 L-91,59 L-90,55 L-88,55 L-88,51 L-93,52 L-96,56 L-96,60 L-94,61 L-96,63 L-94,64 L-94,67 L-92,67 L-91,61 L-85,59 L-78,59 L-78,61 L-82,63 L-82,61 L-85,63 L-88,68 L-90,70 L-90,74 L-92,75 L-92,73 L-97,76 L-102,83 L-103,81 L-109,82 L-112,82 L-115,82 L-118,83 L-121,108 L-122,110 L-126,110 L-127,119 L-129,119 L-130,122 L-133,123 L-134,127 L-137,131 L-142,136 L-144,142 L-146,140 L-149,143 L-151,152 L-150,158 L-153,168 L-153,177 L-155,189 L-152,189 L-151,186 L-149,193 L-149,199 L-150,200 L-151,208 L-149,208 L-149,206 L-147,206 L-147,202 L-144,202 L-145,211 L-144,227 L-145,247 L-140,247 L-140,248 L-146,248 L-146,228 L-152,228 L-152,218 L-154,218 L-154,208 L-152,208 L-152,200 L-154,200 L-154,190 L-156,190 L-156,186 L-158,186 L-158,182 L-162,182 L-162,176 L-158,176 L-158,174 L-160,174 L-160,168 L-158,168 L-158,160 L-156,160 L-156,146 L-154,146 L-154,138 L-150,138 L-150,136 L-148,136 L-148,130 L-144,128 L-144,122 L-138,122 L-138,120 L-136,120 L-136,118 L-132,118 L-132,116 L-130,116 L-130,108 L-128,108 L-128,106 L-126,106 L-126,98 L-124,98 L-124,74 L-122,74 L-122,66 L-118,66 L-118,62 L-116,62 L-116,58 L-112,58 L-112,54 L-110,54 L-110,52 L-108,52 L-108,48 L-102,48 L-102,46 L-100,46 L-100,44 L-92,44 L-92,42 L-90,42 L-90,38 L-84,38 L-84,34 L-80,34 L-80,30 L-70,30 L-70,24 L-62,24 L-62,22 L-56,22 L-56,20 L-54,20 L-54,18 L-48,18 L-48,12 L-40,12 L-40,10 L-34,10 L-34,8 L-30,8 L-30,6 L-28,6 L-28,4 L-22,4 L-22,2 L-16,2 L-16,4 L-14,4 L-14,2 L-6,2 L-6,4 L0,4 Z M-39,49 Z M-71,50 Z M-135,124 Z M-58,49 Z M-78,58 Z " fill="#453A74" transform="translate(430,348)"/>
<path d="M0,0 L2,4 L2,22 L4,26 L5,24 L7,25 L3,30 L3,34 L9,36 L7,38 L6,42 L6,45 L5,50 L0,54 L-2,62 L0,79 L-2,81 L-1,85 L1,91 L3,93 L2,96 L6,97 L3,97 L2,100 L1,98 L-1,100 L-3,99 L-3,92 L-8,93 L-7,104 L-9,106 L-10,113 L-8,120 L-5,119 L-6,124 L-7,131 L-7,135 L-1,135 L1,138 L4,138 L3,141 L8,141 L8,148 L3,147 L3,153 L8,153 L9,154 L9,161 L11,161 L13,165 L14,184 L19,187 L21,187 L21,192 L18,192 L17,189 L11,191 L9,192 L8,196 L3,197 L2,192 L0,189 L0,184 L-5,185 L-5,187 L-8,187 L-7,175 L-8,174 L-8,168 L-12,170 L-16,167 L-16,165 L-18,165 L-18,167 L-20,167 L-21,164 L-26,163 L-26,138 L-27,126 L-25,118 L-28,118 L-28,122 L-30,122 L-30,124 L-32,124 L-32,116 L-31,111 L-32,105 L-36,105 L-36,97 L-35,90 L-34,79 L-32,72 L-33,67 L-30,58 L-25,53 L-22,49 L-20,49 L-19,46 L-15,42 L-14,38 L-11,37 L-10,35 L-8,35 L-7,26 L-3,26 Z M-5,174 Z M-16,40 Z " fill="#544C7C" transform="translate(311,432)"/>
<path d="M0,0 L4,3 L3,11 L7,15 L5,22 L2,25 L1,28 L-1,28 L-1,30 L-6,35 L-10,35 L-11,39 L-14,39 L-14,41 L-19,42 L-20,50 L-24,51 L-24,58 L-29,59 L-29,73 L-31,78 L-36,79 L-45,82 L-52,88 L-57,93 L-63,91 L-63,89 L-71,89 L-82,90 L-105,89 L-109,90 L-120,90 L-121,96 L-126,99 L-132,101 L-137,102 L-140,101 L-140,97 L-145,99 L-147,104 L-151,104 L-151,106 L-158,105 L-161,107 L-179,110 L-178,106 L-174,105 L-172,99 L-181,97 L-181,95 L-188,96 L-189,103 L-185,104 L-193,104 L-197,103 L-197,105 L-201,103 L-201,96 L-217,97 L-219,98 L-219,91 L-223,92 L-225,91 L-225,88 L-218,89 L-218,94 L-184,93 L-174,90 L-169,88 L-161,87 L-161,89 L-157,87 L-153,87 L-151,81 L-146,78 L-141,78 L-141,76 L-139,76 L-139,72 L-131,73 L-109,73 L-109,71 L-105,71 L-105,73 L-107,73 L-107,76 L-100,76 L-91,74 L-90,76 L-91,78 L-55,79 L-49,71 L-46,62 L-41,57 L-35,57 L-34,50 L-33,47 L-31,47 L-30,43 L-26,42 L-26,39 L-28,38 L-20,34 L-17,21 L-10,12 L-7,11 L-7,9 L-10,6 L-9,4 L-5,5 L-3,7 Z M-7,5 Z M-57,78 Z " fill="#5E5490" transform="translate(633,557)"/>
<path d="M0,0 L15,0 L19,2 L22,6 L26,7 L26,9 L36,8 L42,9 L42,7 L58,6 L62,6 L62,9 L71,9 L77,11 L79,10 L80,16 L94,16 L109,18 L109,21 L106,23 L110,31 L109,35 L107,35 L106,39 L112,42 L116,46 L120,47 L122,52 L125,55 L126,57 L131,60 L133,65 L138,71 L138,75 L144,75 L146,81 L150,82 L151,84 L154,85 L155,88 L158,91 L156,91 L156,97 L154,97 L153,92 L143,91 L141,86 L138,85 L138,81 L135,81 L134,84 L134,81 L131,81 L130,76 L126,75 L127,72 L132,71 L130,67 L126,68 L125,71 L125,69 L123,69 L124,65 L118,66 L118,62 L113,62 L112,58 L113,56 L111,56 L110,54 L99,51 L95,53 L95,55 L90,55 L89,58 L88,54 L82,52 L82,45 L76,47 L76,45 L72,44 L72,42 L68,41 L68,38 L62,39 L49,38 L51,36 L72,34 L72,32 L69,30 L69,23 L73,23 L73,25 L80,26 L80,28 L82,28 L81,20 L75,18 L73,19 L72,17 L62,16 L61,18 L58,18 L58,16 L44,18 L38,17 L31,19 L30,16 L22,17 L10,16 L0,16 L-3,15 L-3,17 L-19,18 L-26,19 L-30,17 L-30,15 L-22,14 L-22,10 L-27,10 L-25,8 L-15,9 L-7,8 L-3,10 L-3,8 L3,9 L4,14 L10,13 L10,11 L12,9 L16,9 L16,5 L12,6 L12,4 L10,4 L10,2 L1,4 L-1,1 Z M16,4 Z M-33,17 L-30,18 Z " fill="#55498D" transform="translate(470,382)"/>
<path d="M0,0 L8,0 L8,4 L16,4 L16,2 L22,2 L26,7 L28,8 L28,12 L32,12 L32,32 L28,32 L28,36 L24,36 L24,40 L36,40 L36,46 L34,46 L34,50 L26,50 L26,46 L24,46 L24,44 L-12,44 L-12,46 L-16,46 L-16,48 L-20,48 L-20,50 L-26,50 L-26,58 L-32,58 L-32,48 L-36,48 L-36,42 L-38,42 L-38,40 L-40,40 L-40,26 L-38,26 L-36,22 L-32,22 L-32,16 L-4,16 L-4,4 L0,4 Z " fill="#140E35" transform="translate(490,154)"/>
<path d="M0,0 L6,0 L6,4 L12,4 L12,8 L22,8 L22,12 L28,12 L28,14 L34,14 L38,19 L44,20 L44,22 L46,22 L46,18 L54,18 L54,22 L56,22 L56,26 L60,28 L60,30 L62,30 L62,40 L66,40 L66,50 L68,50 L68,52 L70,52 L70,66 L68,66 L68,70 L70,70 L70,76 L66,76 L66,78 L64,78 L64,82 L62,82 L62,84 L60,84 L60,90 L62,90 L62,96 L60,96 L60,100 L58,100 L58,102 L56,102 L56,106 L54,106 L54,110 L52,110 L52,116 L50,116 L50,122 L44,122 L44,124 L46,124 L46,130 L44,130 L44,132 L42,132 L42,136 L36,136 L36,138 L34,138 L34,140 L28,140 L28,142 L26,142 L26,144 L24,144 L24,146 L22,146 L22,148 L18,148 L18,150 L16,150 L16,152 L14,152 L14,154 L8,154 L8,160 L6,160 L6,162 L4,162 L4,164 L-4,164 L-4,168 L-6,168 L-6,174 L-8,174 L-8,180 L-10,180 L-10,184 L-14,184 L-14,186 L-18,186 L-18,192 L-20,192 L-20,198 L-22,198 L-22,200 L-32,200 L-32,204 L-34,204 L-34,210 L-35,210 L-36,202 L-33,203 L-34,197 L-32,194 L-34,194 L-32,190 L-28,187 L-25,182 L-21,182 L-20,174 L-18,169 L-15,168 L-14,165 L-7,164 L-7,167 L-5,167 L-7,161 L-6,157 L0,156 L2,157 L3,149 L7,147 L12,148 L15,147 L13,145 L13,141 L17,138 L22,136 L25,136 L24,132 L25,130 L34,130 L33,122 L36,116 L39,116 L40,114 L42,115 L42,111 L44,111 L44,104 L42,104 L42,102 L46,101 L46,95 L51,95 L53,93 L55,59 L57,54 L59,54 L59,45 L57,33 L51,24 L44,26 L38,24 L38,22 L36,22 L35,29 L30,28 L29,30 L28,26 L29,23 L16,22 L15,17 L11,17 L10,12 L11,10 L6,10 L6,7 L11,7 L11,5 L2,7 L-2,6 L-1,3 L5,3 L5,1 L0,1 Z " fill="#4C4173" transform="translate(636,458)"/>
<path d="M0,0 L6,0 L6,4 L10,5 L9,10 L19,9 L19,11 L22,11 L22,13 L9,14 L6,16 L4,16 L0,18 L-2,20 L-1,16 L1,16 L1,12 L-4,13 L-7,17 L-7,21 L-5,22 L-7,24 L-5,25 L-5,28 L-3,28 L-2,22 L4,20 L11,20 L11,22 L7,24 L7,22 L4,24 L1,29 L-1,31 L-1,35 L-3,36 L-3,34 L-8,37 L-13,44 L-14,42 L-20,43 L-23,43 L-26,43 L-29,44 L-32,69 L-33,71 L-37,71 L-38,80 L-40,80 L-41,83 L-44,84 L-45,88 L-48,92 L-53,97 L-55,103 L-57,101 L-60,104 L-62,113 L-61,119 L-64,129 L-64,138 L-66,150 L-63,150 L-62,147 L-60,154 L-60,160 L-61,161 L-62,169 L-60,169 L-60,167 L-58,167 L-58,163 L-55,163 L-56,172 L-55,188 L-56,208 L-51,208 L-51,209 L-57,209 L-57,189 L-63,189 L-63,179 L-65,179 L-65,169 L-63,169 L-63,161 L-65,161 L-65,151 L-67,151 L-67,147 L-69,147 L-69,143 L-73,143 L-73,137 L-69,137 L-69,135 L-71,135 L-71,129 L-69,129 L-69,121 L-67,121 L-67,107 L-65,107 L-65,99 L-61,99 L-61,97 L-59,97 L-59,91 L-55,89 L-55,83 L-49,83 L-49,81 L-47,81 L-47,79 L-43,79 L-43,77 L-41,77 L-41,69 L-39,69 L-39,67 L-37,67 L-37,59 L-35,59 L-35,35 L-33,35 L-33,27 L-29,27 L-29,23 L-27,23 L-27,19 L-23,19 L-23,15 L-21,15 L-21,13 L-19,13 L-19,9 L-13,9 L-13,7 L-11,7 L-11,5 L-3,5 L-3,3 L0,3 Z M18,11 Z M-46,85 Z M11,19 Z " fill="#4C4278" transform="translate(341,387)"/>
<path d="M0,0 L2,1 L2,3 L12,4 L12,16 L11,18 L16,19 L17,21 L30,20 L36,23 L36,26 L42,24 L43,26 L57,27 L63,29 L64,28 L103,29 L104,26 L111,24 L114,23 L114,20 L121,19 L124,13 L134,14 L138,16 L148,16 L148,14 L159,15 L164,13 L164,15 L171,15 L171,13 L175,12 L172,16 L162,18 L160,22 L136,22 L133,20 L133,24 L131,24 L131,26 L122,29 L119,35 L111,37 L111,35 L101,38 L98,39 L88,42 L54,42 L54,37 L47,36 L46,32 L39,30 L39,28 L36,29 L24,29 L23,31 L17,31 L13,31 L5,30 L-4,26 L-4,24 L2,25 L3,26 L11,27 L9,16 L5,16 L5,14 L0,15 L0,8 L-6,7 L-14,6 L-12,4 L-6,3 L-4,4 L-4,6 L1,6 Z M5,13 Z M-15,6 Z M30,19 Z " fill="#6C62A0" transform="translate(361,609)"/>
<path d="M0,0 L9,2 L13,4 L13,6 L15,6 L15,11 L20,12 L20,16 L26,15 L25,19 L27,18 L27,17 L33,16 L35,21 L29,23 L28,25 L33,26 L33,31 L40,31 L42,34 L45,37 L45,41 L51,41 L51,48 L53,48 L55,50 L57,55 L60,58 L62,61 L70,65 L71,66 L72,64 L70,64 L71,60 L74,60 L78,65 L79,66 L80,73 L84,72 L84,79 L78,81 L77,79 L71,84 L69,84 L70,87 L68,87 L67,79 L56,79 L53,76 L52,70 L48,69 L47,64 L45,63 L43,53 L41,49 L35,48 L35,41 L28,40 L27,35 L24,35 L23,33 L20,33 L20,26 L10,24 L10,16 L8,16 L6,11 L-3,5 L-3,3 L-1,3 Z M52,51 Z " fill="#5F5398" transform="translate(568,432)"/>
<path d="M0,0 L18,0 L18,4 L22,4 L22,8 L26,8 L26,12 L30,12 L30,64 L20,64 L20,60 L10,60 L6,56 L6,40 L10,38 L10,36 L14,36 L14,32 L10,32 L10,14 L6,14 L6,12 L2,12 L2,6 L0,6 Z " fill="#150E36" transform="translate(528,194)"/>
<path d="M0,0 L1,3 L3,3 L3,1 L5,1 L7,3 L10,5 L13,4 L14,10 L16,12 L14,12 L14,21 L13,23 L16,23 L16,21 L22,19 L22,25 L25,29 L25,32 L29,32 L30,30 L30,33 L28,44 L31,45 L33,48 L37,52 L39,55 L42,56 L42,52 L46,52 L47,49 L50,52 L53,53 L53,55 L55,55 L58,58 L62,60 L62,63 L49,63 L49,65 L71,64 L74,63 L75,69 L79,70 L79,72 L82,71 L82,73 L90,72 L90,74 L93,74 L96,79 L95,85 L106,84 L109,85 L110,90 L114,90 L114,85 L116,86 L116,88 L118,88 L119,97 L120,100 L130,100 L130,102 L145,102 L144,105 L164,104 L171,101 L172,102 L183,103 L184,100 L184,104 L172,104 L172,108 L164,108 L164,106 L144,106 L144,108 L132,108 L130,104 L118,104 L118,102 L116,102 L116,98 L114,98 L114,94 L106,94 L106,88 L100,88 L100,86 L94,86 L94,82 L92,82 L92,80 L78,80 L78,76 L72,76 L72,74 L68,74 L68,70 L63,69 L62,66 L48,66 L48,62 L44,62 L44,60 L34,60 L34,54 L28,54 L28,50 L24,50 L24,46 L22,46 L22,42 L20,42 L20,30 L18,30 L18,26 L16,26 L16,24 L12,24 L12,20 L10,20 L10,14 L8,14 L8,10 L4,10 L2,5 L0,4 Z M16,10 Z " fill="#473F6F" transform="translate(290,596)"/>
<path d="M0,0 L3,1 L5,0 L4,5 L3,12 L3,16 L9,16 L11,19 L14,19 L13,22 L18,22 L18,29 L13,28 L13,34 L18,34 L19,35 L19,42 L21,42 L23,46 L24,65 L29,68 L31,68 L31,73 L28,73 L27,70 L21,72 L19,73 L18,77 L13,78 L12,73 L10,70 L10,65 L5,66 L5,68 L2,68 L3,56 L2,52 L3,54 L5,54 L5,52 L3,51 L2,45 L2,25 L-1,24 L-1,14 Z M5,55 Z M-1,3 Z " fill="#5A5281" transform="translate(301,551)"/>
<path d="M0,0 L15,0 L19,2 L22,6 L26,7 L26,9 L36,8 L42,9 L42,7 L58,6 L62,6 L62,9 L71,9 L77,11 L79,10 L80,16 L94,16 L100,17 L100,18 L90,19 L89,21 L93,22 L83,21 L82,19 L75,18 L73,19 L72,17 L62,16 L61,18 L58,18 L58,16 L44,18 L38,17 L31,19 L30,16 L22,17 L10,16 L0,16 L-3,15 L-3,17 L-19,18 L-26,19 L-30,17 L-30,15 L-22,14 L-22,10 L-27,10 L-25,8 L-15,9 L-7,8 L-3,10 L-3,8 L3,9 L4,14 L10,13 L10,11 L12,9 L16,9 L16,5 L12,6 L12,4 L10,4 L10,2 L1,4 L-1,1 Z M16,4 Z M-33,17 L-30,18 Z " fill="#514486" transform="translate(470,382)"/>
<path d="M0,0 L4,0 L4,3 L8,3 L8,8 L38,9 L38,10 L27,11 L4,10 L0,11 L-11,11 L-12,17 L-17,20 L-23,22 L-28,23 L-31,22 L-31,18 L-36,20 L-38,25 L-42,25 L-42,27 L-49,26 L-52,28 L-70,31 L-69,27 L-65,26 L-63,20 L-65,19 L-56,19 L-56,17 L-50,17 L-49,12 L-47,12 L-47,9 L-44,9 L-44,11 L-36,7 L-34,5 L-25,5 L-20,1 L-19,3 L-16,1 L-12,2 L-11,1 Z " fill="#5C5388" transform="translate(524,636)"/>
<path d="M0,0 L3,0 L3,3 L8,2 L13,7 L16,8 L18,12 L24,14 L23,21 L27,23 L31,28 L31,32 L35,32 L35,36 L38,36 L38,38 L42,40 L46,43 L46,45 L50,43 L53,41 L62,43 L62,45 L56,46 L55,48 L62,48 L63,47 L68,47 L68,49 L64,51 L68,52 L68,59 L72,59 L73,64 L77,65 L74,65 L73,70 L75,71 L71,72 L62,72 L60,66 L60,64 L55,62 L54,57 L49,57 L45,54 L45,51 L41,50 L40,48 L37,47 L35,44 L35,41 L29,41 L27,36 L22,30 L20,25 L16,23 L15,19 L11,17 L11,13 L5,12 L2,8 L-3,6 L-4,2 Z " fill="#4E447C" transform="translate(579,416)"/>
<path d="M0,0 L4,0 L4,2 L2,2 L2,5 L9,5 L18,3 L19,5 L18,7 L50,8 L50,9 L0,9 L-11,10 L-14,11 L-17,10 L-20,12 L-21,10 L-25,14 L-34,14 L-37,17 L-41,19 L-44,19 L-44,17 L-47,17 L-47,20 L-49,20 L-50,25 L-56,25 L-56,27 L-61,28 L-72,26 L-72,24 L-79,25 L-80,32 L-76,33 L-84,33 L-88,32 L-88,34 L-92,32 L-92,25 L-108,26 L-110,27 L-110,20 L-114,21 L-116,20 L-116,17 L-109,18 L-109,23 L-75,22 L-65,19 L-60,17 L-52,16 L-52,18 L-48,16 L-44,16 L-42,10 L-37,7 L-32,7 L-32,5 L-30,5 L-30,1 L-22,2 L0,2 Z " fill="#665C97" transform="translate(524,628)"/>
<path d="M0,0 L2,1 L-2,6 L-2,10 L4,12 L2,14 L1,18 L1,21 L0,26 L-5,30 L-7,38 L-5,55 L-7,57 L-6,61 L-4,67 L-2,69 L-3,72 L1,73 L-2,73 L-3,76 L-4,74 L-6,76 L-8,75 L-8,68 L-14,69 L-14,53 L-16,56 L-19,56 L-18,59 L-18,71 L-20,72 L-21,59 L-22,55 L-24,54 L-21,32 L-20,27 L-15,24 L-11,21 L-8,11 L-4,9 L-3,2 L-1,2 Z M-22,54 Z " fill="#584F84" transform="translate(316,456)"/>
<path d="M0,0 L5,2 L6,8 L5,13 L7,14 L-1,17 L-2,22 L-2,26 L1,28 L-4,32 L-6,33 L-7,36 L-13,41 L-18,40 L-20,41 L-21,39 L-26,42 L-28,46 L-29,44 L-29,38 L-33,40 L-42,40 L-39,38 L-34,38 L-32,32 L-34,31 L-31,25 L-26,20 L-23,21 L-23,23 L-19,20 L-13,20 L-14,16 L-17,16 L-16,12 L-13,12 L-13,9 Z M-20,37 Z M5,1 Z M-39,37 Z " fill="#4C407E" transform="translate(411,360)"/>
<path d="M0,0 L6,0 L6,8 L8,8 L8,16 L6,16 L6,34 L8,34 L8,40 L-6,40 L-6,38 L-14,38 L-14,32 L-12,32 L-12,26 L-20,26 L-20,14 L-12,14 L-12,6 L-4,6 L-4,14 L-2,14 L-2,6 L0,6 Z " fill="#1A113D" transform="translate(490,796)"/>
<path d="M0,0 L2,0 L3,7 L2,10 L0,10 L-1,13 L-4,14 L-5,18 L-8,22 L-13,27 L-15,33 L-17,31 L-20,34 L-22,43 L-21,49 L-24,59 L-24,68 L-26,80 L-23,80 L-22,77 L-20,84 L-20,90 L-21,91 L-22,99 L-20,99 L-20,97 L-18,97 L-18,93 L-15,93 L-16,102 L-15,118 L-16,138 L-11,138 L-11,139 L-17,139 L-17,119 L-23,119 L-23,109 L-25,109 L-25,99 L-23,99 L-23,91 L-25,91 L-25,81 L-27,81 L-27,77 L-29,77 L-29,73 L-33,73 L-33,67 L-29,67 L-29,65 L-31,65 L-31,59 L-29,59 L-29,51 L-27,51 L-27,37 L-25,37 L-25,29 L-21,29 L-21,27 L-19,27 L-19,21 L-15,19 L-15,13 L-9,13 L-9,11 L-7,11 L-7,9 L0,8 Z M-6,15 Z " fill="#4A436D" transform="translate(301,457)"/>
<path d="M0,0 L8,0 L13,1 L13,4 L19,4 L19,2 L21,2 L21,5 L26,7 L34,10 L39,11 L42,9 L46,12 L45,9 L52,10 L52,8 L47,8 L47,5 L51,4 L52,5 L59,6 L59,7 L53,7 L53,11 L47,11 L47,13 L45,13 L45,17 L41,17 L41,21 L25,21 L25,19 L17,19 L17,11 L9,11 L9,9 L5,9 L5,11 L-1,11 L-1,7 L-9,7 L-9,9 L-15,9 L-15,7 L-21,7 L-21,11 L-27,11 L-27,15 L-29,15 L-29,21 L-37,21 L-37,19 L-39,18 L-37,18 L-36,16 L-34,16 L-32,12 L-30,12 L-30,14 L-28,14 L-30,10 L-33,8 L-30,7 L-29,4 L-27,4 L-26,6 L-23,3 L-21,3 L-21,1 L-14,3 L-14,5 L-9,5 L-9,2 L-1,1 Z " fill="#504476" transform="translate(541,663)"/>
<path d="M0,0 L8,0 L8,7 L35,7 L35,4 L76,4 L76,8 L84,8 L84,14 L86,14 L86,8 L92,8 L92,16 L94,16 L94,22 L84,22 L84,20 L82,20 L82,14 L76,14 L76,10 L74,10 L74,14 L68,14 L68,13 L73,13 L73,11 L50,11 L51,8 L41,8 L35,11 L3,12 L2,14 L-3,16 L-4,18 L-2,19 L-5,20 L-5,17 L-7,17 L-6,32 L-4,30 L-3,35 L-11,37 L-13,36 L-14,40 L-14,34 L-12,32 L-8,32 L-8,16 L-6,16 L-6,10 L-4,10 L-4,7 L0,7 Z " fill="#120C32" transform="translate(346,206)"/>
<path d="M0,0 L4,1 L-1,6 L-4,10 L-7,23 L-11,26 L-15,27 L-14,31 L-18,33 L-19,36 L-21,36 L-23,46 L-26,47 L-29,46 L-31,50 L-33,51 L-37,61 L-43,69 L-71,68 L-67,66 L-51,66 L-44,65 L-44,60 L-46,56 L-44,52 L-49,51 L-49,49 L-43,48 L-39,44 L-37,44 L-37,42 L-33,41 L-31,37 L-35,38 L-34,34 L-30,33 L-30,30 L-27,27 L-27,24 L-21,23 L-16,21 L-15,17 L-12,16 L-10,4 L-7,1 Z M-44,50 Z M-45,67 Z M-36,38 Z M-45,62 Z " fill="#655A9B" transform="translate(621,568)"/>
<path d="M0,0 L4,3 L3,11 L7,15 L5,22 L2,25 L1,28 L-1,28 L-1,30 L-6,35 L-10,35 L-11,39 L-14,39 L-14,41 L-19,42 L-19,45 L-22,46 L-24,49 L-30,48 L-33,49 L-33,47 L-31,47 L-30,43 L-26,42 L-26,39 L-28,38 L-20,34 L-17,21 L-10,12 L-7,11 L-7,9 L-10,6 L-9,4 L-5,5 L-3,7 Z M-7,5 Z " fill="#615693" transform="translate(633,557)"/>
<path d="M0,0 L1,4 L7,1 L22,1 L18,7 L15,8 L13,11 L7,11 L5,14 L10,15 L9,17 L6,17 L6,19 L0,21 L-3,20 L-8,21 L-10,22 L-20,22 L-24,27 L-28,27 L-31,31 L-33,30 L-29,24 L-27,22 L-23,22 L-22,19 L-24,19 L-24,16 L-22,16 L-22,14 L-24,14 L-25,10 L-23,7 L-13,6 L-8,5 L-4,2 Z M-24,11 Z M-22,18 Z " fill="#6659A9" transform="translate(408,418)"/>
<path d="M0,0 L1,3 L3,3 L3,1 L5,1 L7,3 L10,5 L13,4 L14,10 L16,12 L14,12 L14,21 L13,23 L16,23 L16,21 L22,19 L22,25 L25,29 L25,32 L29,32 L30,30 L30,33 L28,44 L31,45 L33,48 L37,52 L39,55 L42,56 L42,52 L46,52 L47,49 L50,52 L53,53 L53,55 L55,55 L58,58 L62,60 L62,63 L49,63 L44,62 L44,60 L34,60 L34,54 L28,54 L28,50 L24,50 L24,46 L22,46 L22,42 L20,42 L20,30 L18,30 L18,26 L16,26 L16,24 L12,24 L12,20 L10,20 L10,14 L8,14 L8,10 L4,10 L2,5 L0,4 Z M16,10 Z " fill="#4C4471" transform="translate(290,596)"/>
<path d="M0,0 L2,0 L1,9 L-1,10 L-1,16 L-2,17 L-9,17 L-12,16 L-14,18 L-9,19 L-9,21 L-15,21 L-15,23 L-20,21 L-22,23 L-27,22 L-35,19 L-40,16 L-40,13 L-42,13 L-42,15 L-48,15 L-48,12 L-61,12 L-62,13 L-71,13 L-74,11 L-74,8 L-78,9 L-80,7 L-72,6 L-69,5 L-68,7 L-56,9 L-36,11 L-29,12 L-29,16 L-27,16 L-24,11 L-16,10 L-16,8 L-11,3 L-8,1 L-8,3 L-3,1 Z " fill="#504679" transform="translate(602,652)"/>
<path d="M0,0 L1,0 L1,6 L7,5 L8,12 L12,13 L13,15 L13,21 L16,21 L16,24 L20,25 L18,34 L24,34 L25,38 L25,50 L23,54 L21,54 L21,58 L17,60 L16,66 L18,67 L15,77 L16,79 L9,80 L7,94 L3,95 L2,100 L1,98 L1,90 L3,86 L6,85 L7,78 L10,72 L10,54 L15,54 L15,25 L8,22 L8,16 L3,14 L3,7 L-1,7 L-1,1 Z " fill="#6A5BA7" transform="translate(603,490)"/>
<path d="M0,0 L3,0 L3,9 L1,11 L-2,11 L-2,17 L-3,19 L-11,20 L-11,25 L-10,29 L-12,29 L-13,27 L-19,28 L-23,32 L-26,44 L-31,46 L-33,50 L-38,53 L-42,48 L-40,48 L-38,41 L-34,41 L-31,32 L-29,28 L-27,21 L-25,20 L-24,16 L-16,16 L-14,12 L-11,13 L-9,9 L-6,4 L-2,3 Z " fill="#4F467A" transform="translate(641,596)"/>
<path d="M0,0 L6,0 L6,4 L12,4 L12,8 L22,8 L22,12 L28,12 L28,14 L34,14 L38,19 L44,20 L44,22 L46,22 L46,18 L54,18 L54,22 L56,22 L56,26 L60,28 L60,30 L62,30 L62,40 L61,40 L60,32 L59,40 L58,40 L56,31 L51,24 L44,26 L38,24 L38,22 L36,22 L35,29 L30,28 L29,30 L28,26 L29,23 L16,22 L15,17 L11,17 L10,12 L11,10 L6,10 L6,7 L11,7 L11,5 L2,7 L-2,6 L-1,3 L5,3 L5,1 L0,1 Z " fill="#483D73" transform="translate(636,458)"/>
<path d="M0,0 L4,1 L7,4 L20,4 L24,5 L24,7 L38,6 L42,7 L46,8 L47,10 L48,9 L54,9 L64,16 L64,20 L66,20 L67,23 L66,28 L74,28 L77,31 L72,31 L71,33 L64,30 L63,25 L59,28 L57,27 L58,25 L55,25 L55,21 L51,21 L49,19 L46,19 L46,15 L38,16 L36,16 L34,19 L32,18 L32,16 L34,16 L34,13 L31,12 L30,10 L17,9 L14,9 L13,6 L9,8 L7,7 L6,9 L2,8 L-1,10 L-3,6 L-2,2 Z " fill="#6356A7" transform="translate(512,428)"/>
<path d="M0,0 L1,3 L3,3 L5,5 L7,10 L10,13 L12,16 L20,20 L21,21 L22,19 L20,19 L21,15 L24,15 L28,20 L29,21 L30,28 L34,27 L34,34 L28,36 L27,34 L22,38 L19,37 L18,34 L13,30 L14,21 L12,21 L11,24 L5,24 L-3,17 L-3,10 L-4,6 Z M2,6 Z " fill="#5C5291" transform="translate(618,477)"/>
<path d="M0,0 L1,0 L1,8 L2,9 L3,32 L4,36 L2,36 L2,39 L9,39 L8,46 L9,49 L14,49 L15,69 L17,70 L13,72 L9,69 L9,67 L7,67 L7,69 L5,69 L4,66 L-1,65 L-1,40 L-2,28 L0,19 L0,12 L-2,5 L-2,1 Z " fill="#524B75" transform="translate(286,530)"/>
<path d="M0,0 L3,1 L1,1 L1,3 L-1,3 L-1,5 L-3,5 L-3,17 L-1,17 L-1,29 L-5,29 L-5,33 L-7,33 L-7,35 L-5,35 L-5,43 L-1,45 L1,49 L5,49 L5,51 L9,51 L9,55 L11,55 L13,58 L17,59 L17,61 L21,61 L21,65 L25,65 L25,61 L35,61 L37,64 L47,65 L47,71 L46,71 L46,66 L37,66 L37,68 L33,70 L27,69 L20,69 L14,67 L16,60 L13,60 L13,62 L6,61 L4,54 L-2,52 L-2,54 L1,55 L-3,55 L-3,53 L-7,52 L-3,52 L-3,50 L-6,50 L-6,48 L-8,48 L-8,46 L-10,46 L-10,35 L-9,34 L-10,30 L-8,30 L-8,32 L-6,32 L-5,26 L-4,5 L-6,5 L-7,7 L-6,3 L0,2 Z " fill="#110A2E" transform="translate(627,329)"/>
<path d="M0,0 L3,0 L3,3 L8,2 L13,7 L16,8 L18,12 L24,14 L23,21 L27,23 L31,28 L31,32 L35,32 L35,36 L38,36 L38,40 L41,41 L41,48 L37,47 L35,44 L35,41 L29,41 L27,36 L22,30 L20,25 L16,23 L15,19 L11,17 L11,13 L5,12 L2,8 L-3,6 L-4,2 Z " fill="#504580" transform="translate(579,416)"/>
<path d="M0,0 L3,1 L0,2 Z M-14,2 L-7,3 L0,2 L-3,5 L-5,6 L-8,12 L-16,14 L-16,12 L-26,15 L-29,16 L-39,19 L-73,19 L-73,14 L-75,13 L-48,13 L-28,12 L-24,10 L-22,11 L-23,5 L-16,4 Z " fill="#685E9C" transform="translate(488,632)"/>
<path d="M0,0 L8,1 L7,6 L13,6 L15,3 L19,6 L14,10 L12,11 L11,14 L5,19 L0,18 L-2,19 L-3,17 L-8,20 L-10,24 L-11,22 L-11,16 L-15,18 L-24,18 L-21,16 L-16,16 L-14,10 L-16,9 L-14,6 L-9,7 L-8,4 L-5,4 L-5,2 L0,2 Z M6,6 Z M-2,15 Z M-21,15 Z " fill="#504482" transform="translate(393,382)"/>
<path d="M0,0 L3,2 L4,10 L9,12 L9,14 L13,15 L14,19 L29,19 L30,21 L29,26 L31,27 L31,30 L33,31 L25,32 L22,30 L22,28 L15,30 L15,28 L13,28 L12,26 L8,24 L3,22 L2,17 L-4,18 L-9,15 L-10,10 L-5,9 L1,11 Z " fill="#574F7F" transform="translate(337,625)"/>
<path d="M0,0 L4,2 L2,3 L1,7 L1,10 L0,15 L-5,19 L-7,27 L-5,44 L-7,46 L-6,50 L-4,56 L-2,58 L-3,61 L1,62 L-2,62 L-3,65 L-4,63 L-6,65 L-8,64 L-8,57 L-14,58 L-14,42 L-15,42 L-15,36 L-14,32 L-11,20 L-8,14 L-5,13 L-4,8 L-2,7 Z " fill="#5D528C" transform="translate(316,467)"/>
<path d="M0,0 L10,2 L10,3 L4,3 L4,7 L-2,7 L-2,9 L-4,9 L-4,13 L-8,13 L-8,17 L-24,17 L-24,15 L-32,15 L-32,7 L-40,7 L-40,5 L-44,5 L-44,7 L-50,7 L-49,3 L-49,6 L-45,6 L-45,4 L-47,3 L-45,1 L-32,1 L-30,4 L-31,14 L-29,13 L-29,7 L-26,4 L-22,6 L-19,6 L-18,8 L-10,7 L-7,5 L-3,8 L-4,5 L3,6 L3,4 L-2,4 L-2,1 Z " fill="#483D6D" transform="translate(590,667)"/>
<path d="M0,0 L2,1 L2,3 L12,4 L12,16 L11,18 L16,19 L17,21 L25,25 L26,26 L35,27 L35,28 L24,29 L23,31 L17,31 L13,31 L5,30 L-4,26 L-4,24 L2,25 L3,26 L11,27 L9,16 L5,16 L5,14 L0,15 L0,8 L-6,7 L-14,6 L-12,4 L-6,3 L-4,4 L-4,6 L1,6 Z M5,13 Z M-15,6 Z " fill="#675E97" transform="translate(361,609)"/>
<path d="M0,0 L8,0 L8,6 L12,6 L12,14 L10,14 L10,16 L8,16 L8,18 L-6,18 L-6,14 L-18,14 L-18,8 L-10,8 L-10,6 L0,6 Z " fill="#1F1241" transform="translate(600,728)"/>
<path d="M0,0 L5,0 L0,5 L-1,12 L-5,13 L-6,17 L-12,20 L-17,25 L-19,25 L-20,30 L-26,31 L-26,38 L-31,39 L-32,42 L-35,42 L-37,51 L-39,48 L-38,41 L-34,40 L-33,33 L-30,32 L-28,24 L-23,23 L-23,21 L-20,20 L-19,17 L-15,16 L-12,12 L-10,12 L-10,10 L-8,9 L-7,5 Z " fill="#5B5089" transform="translate(642,575)"/>
<path d="M0,0 L3,0 L3,2 L12,0 L12,3 L16,3 L16,5 L23,4 L33,4 L40,5 L40,6 L34,7 L34,9 L53,12 L54,10 L54,13 L29,13 L29,11 L22,12 L15,12 L15,9 L1,7 L-4,6 L-4,1 Z " fill="#756AAC" transform="translate(407,624)"/>
<path d="M0,0 L8,0 L8,4 L12,4 L12,10 L6,10 L6,12 L0,12 L0,18 L-8,18 L-8,12 L-14,12 L-14,10 L-18,10 L-18,4 L-10,4 L-10,6 L-2,6 L-2,2 L0,2 Z " fill="#130C30" transform="translate(696,390)"/>
<path d="M0,0 L8,1 L3,7 L-4,12 L-8,12 L-8,14 L-12,14 L-13,18 L-26,21 L-26,24 L-36,26 L-35,22 L-31,21 L-29,15 L-31,14 L-22,14 L-22,12 L-16,12 L-15,7 L-13,7 L-13,4 L-10,4 L-10,6 L-2,2 Z " fill="#5F568E" transform="translate(490,641)"/>
<path d="M0,0 L5,1 L1,6 L-2,6 L-5,9 L-8,9 L-9,13 L-13,18 L-17,19 L-18,21 L-26,21 L-27,26 L-29,27 L-31,34 L-34,43 L-36,47 L-40,45 L-38,36 L-37,33 L-36,28 L-32,22 L-28,22 L-27,15 L-17,13 L-16,15 L-13,14 L-9,7 L-4,6 L-4,1 Z " fill="#564D83" transform="translate(643,591)"/>
<path d="M0,0 L20,0 L20,12 L-4,12 L-4,4 L0,4 Z " fill="#120C2E" transform="translate(366,822)"/>
<path d="M0,0 L1,2 L3,2 L4,11 L5,14 L15,14 L15,16 L30,16 L29,19 L49,18 L56,15 L57,16 L68,17 L69,14 L69,18 L57,18 L57,22 L49,22 L49,20 L29,20 L29,22 L17,22 L15,18 L3,18 L3,16 L1,16 L1,12 L-1,12 L-1,8 L-9,8 L-9,2 L-8,2 L-8,7 L0,7 Z " fill="#453D6C" transform="translate(405,682)"/>
<path d="M0,0 L4,1 L-1,6 L-4,10 L-5,14 L-10,18 L-12,18 L-13,23 L-17,26 L-19,30 L-27,33 L-25,37 L-29,37 L-29,41 L-33,43 L-31,37 L-35,38 L-34,34 L-30,33 L-30,30 L-27,27 L-27,24 L-21,23 L-16,21 L-15,17 L-12,16 L-10,4 L-7,1 Z M-36,38 Z " fill="#665B9F" transform="translate(621,568)"/>
<path d="M0,0 L2,2 L-3,7 L-6,8 L-6,11 L-10,14 L-16,15 L-17,17 L-21,18 L-56,17 L-59,18 L-63,16 L-77,15 L-79,13 L-84,14 L-85,11 L-90,9 L-89,7 L-78,8 L-68,10 L-59,12 L-59,15 L-52,14 L-45,14 L-45,16 L-19,15 L-17,13 L-10,11 L-8,9 L-6,4 Z " fill="#7268A7" transform="translate(481,621)"/>
<path d="M0,0 L6,0 L6,2 L12,2 L12,0 L28,0 L28,10 L8,10 L8,8 L0,8 Z " fill="#170F36" transform="translate(502,764)"/>
<path d="M0,0 L10,0 L10,3 L19,3 L25,5 L27,4 L28,10 L42,10 L48,11 L48,12 L38,13 L37,15 L41,16 L31,15 L30,13 L23,12 L21,13 L20,11 L10,10 L10,8 L8,8 L8,5 L-10,3 L-10,1 Z " fill="#4C4081" transform="translate(522,388)"/>
<path d="M0,0 L2,0 L2,3 L5,5 L20,6 L20,8 L13,9 L20,10 L22,15 L24,17 L4,16 L-3,15 L-5,11 L-16,8 L-16,6 L-13,5 L-11,6 L-11,8 L-6,7 L-4,6 L-1,7 Z " fill="#483C79" transform="translate(553,383)"/>
<path d="M0,0 L16,0 L16,2 L24,2 L24,8 L28,8 L32,12 L32,18 L36,18 L40,22 L40,30 L42,30 L41,32 L38,32 L39,23 L35,24 L32,23 L32,20 L28,19 L26,15 L24,15 L24,13 L19,12 L15,9 L15,5 L11,6 L0,4 L0,3 L15,3 L15,1 L0,1 Z " fill="#40366D" transform="translate(558,388)"/>
<path d="M0,0 L2,1 L1,3 L-7,3 L-7,6 L-4,7 L-10,12 L-13,12 L-14,19 L-15,25 L-20,23 L-23,31 L-27,32 L-27,25 L-29,25 L-29,32 L-30,32 L-30,24 L-26,24 L-26,20 L-24,20 L-24,16 L-20,16 L-20,12 L-18,12 L-18,10 L-16,10 L-16,6 L-10,6 L-10,4 L-8,4 L-8,2 L0,2 Z " fill="#483F74" transform="translate(338,390)"/>
<path d="M0,0 L6,0 L6,2 L22,2 L22,4 L24,4 L24,0 L30,0 L30,6 L46,6 L46,12 L62,12 L61,16 L61,13 L47,13 L47,15 L59,15 L59,17 L45,18 L44,14 L42,13 L42,10 L30,10 L27,7 L22,6 L6,6 L6,5 L21,5 L21,3 L0,4 L0,3 L5,3 L5,1 L0,1 Z " fill="#3E346B" transform="translate(436,354)"/>
<path d="M0,0 L15,0 L14,6 L9,7 L9,12 L0,13 L0,11 L-8,12 L-8,1 Z " fill="#6D61B4" transform="translate(432,446)"/>
<path d="M0,0 L2,0 L2,2 L4,2 L7,6 L10,7 L10,10 L14,11 L13,18 L15,18 L15,23 L11,22 L7,18 L2,18 L2,15 L0,15 L-5,3 Z " fill="#4A3F78" transform="translate(580,401)"/>
<path d="M0,0 L6,0 L6,4 L10,4 L10,14 L16,14 L16,16 L28,16 L28,22 L22,22 L22,21 L27,21 L27,17 L16,18 L14,19 L10,17 L15,17 L15,15 L8,15 L7,20 L5,21 L5,18 L2,17 L5,17 L5,15 L1,16 L0,13 L-3,14 L-4,7 L-2,7 L-2,9 L0,8 L0,5 L-4,4 L0,4 Z " fill="#120D2F" transform="translate(608,270)"/>
<path d="M0,0 L30,0 L30,2 L38,2 L38,6 L40,6 L40,8 L48,8 L48,10 L54,10 L54,12 L58,12 L58,16 L60,16 L59,18 L56,16 L57,13 L55,13 L54,20 L56,21 L51,20 L47,16 L46,13 L37,13 L37,9 L39,9 L39,7 L36,8 L37,3 L30,4 L0,4 L0,3 L29,3 L29,1 L0,1 Z " fill="#41366F" transform="translate(498,370)"/>
<path d="M0,0 L5,0 L8,2 L11,2 L13,8 L15,10 L15,15 L18,15 L19,25 L18,23 L16,23 L17,19 L11,20 L11,16 L6,16 L5,12 L6,10 L4,10 L3,8 L-4,6 Z " fill="#594E92" transform="translate(577,428)"/>
<path d="M0,0 L5,2 L0,7 L-2,8 L-3,11 L-9,16 L-14,15 L-16,16 L-17,14 L-22,17 L-24,21 L-25,19 L-25,13 L-29,15 L-38,15 L-35,13 L-30,13 L-29,12 L-20,13 L-20,11 L-15,9 L-15,7 L-9,6 L-8,3 L-1,3 Z M-16,12 Z M-35,12 Z " fill="#55498A" transform="translate(407,385)"/>
<path d="M0,0 L7,1 L7,6 L44,6 L40,8 L37,8 L36,15 L40,16 L32,16 L28,15 L28,17 L24,15 L24,8 L8,9 L6,10 L6,3 L2,4 L0,3 Z " fill="#635992" transform="translate(408,645)"/>
<path d="M0,0 L3,1 L2,4 L34,5 L34,6 L-16,6 L-27,7 L-30,8 L-33,7 L-36,9 L-37,7 L-41,11 L-46,11 L-44,6 L-40,5 L-22,4 L-22,2 L-16,1 L-16,3 L-4,1 Z " fill="#635A93" transform="translate(540,631)"/>
<path d="M0,0 L3,1 L5,0 L4,5 L3,12 L3,16 L9,16 L10,19 L8,21 L8,35 L7,41 L3,41 L2,26 L-1,24 L-1,14 Z M-1,3 Z " fill="#5D5586" transform="translate(301,551)"/>
<path d="M0,0 L3,3 L6,4 L6,6 L8,6 L11,9 L15,11 L15,14 L2,14 L-3,13 L-3,10 L-12,10 L-12,5 L-9,5 L-5,7 L-5,3 L-1,3 Z " fill="#4F4872" transform="translate(337,645)"/>
<path d="M0,0 L1,0 L1,14 L4,14 L4,20 L6,20 L6,25 L2,25 L-1,26 L0,35 L-2,36 L-2,39 L-4,39 L-4,36 L-8,37 L-9,41 L-11,41 L-11,34 L-13,34 L-13,32 L-9,31 L-9,25 L-4,25 L-2,23 L-1,3 Z " fill="#504577" transform="translate(691,528)"/>
<path d="M0,0 L6,1 L7,3 L22,3 L23,5 L26,6 L26,8 L23,8 L22,12 L21,10 L3,10 L2,7 L-7,7 L-7,9 L-14,10 L-14,6 L-7,5 L0,6 L-1,1 Z " fill="#453A75" transform="translate(435,354)"/>
<path d="M0,0 L1,0 L1,6 L-4,7 L-11,12 L-12,14 L-15,14 L-17,20 L-22,21 L-22,19 L-24,19 L-24,16 L-22,16 L-22,14 L-24,14 L-25,10 L-23,7 L-13,6 L-8,5 L-4,2 Z M-24,11 Z M-22,18 Z " fill="#6559A2" transform="translate(408,418)"/>
<path d="M0,0 L2,1 L-1,4 L-11,6 L-13,10 L-37,10 L-41,7 L-38,5 L-25,4 L-25,2 L-14,3 L-9,1 L-9,3 L-2,3 L-2,1 Z " fill="#695F9E" transform="translate(534,621)"/>
<path d="M0,0 L1,0 L1,6 L6,7 L9,9 L10,15 L8,19 L6,19 L6,15 L1,15 L-1,9 L-10,10 L-12,9 L-14,6 L-15,4 L-13,4 L-12,1 L-11,3 L-9,1 L-5,1 L-4,3 Z " fill="#675BA8" transform="translate(575,452)"/>
<path d="M0,0 L2,1 L13,2 L15,8 L19,6 L19,9 L22,10 L21,16 L28,16 L28,19 L26,20 L26,22 L30,24 L21,24 L19,18 L19,16 L14,14 L13,9 L8,9 L4,6 L4,3 L0,2 Z " fill="#524780" transform="translate(620,464)"/>
<path d="M0,0 L7,2 L7,4 L20,5 L20,6 L12,6 L12,8 L6,8 L6,6 L0,6 L0,10 L-6,10 L-6,14 L-8,14 L-8,20 L-16,20 L-16,18 L-18,17 L-16,17 L-15,15 L-13,15 L-11,11 L-9,11 L-9,13 L-7,13 L-9,9 L-12,7 L-9,6 L-8,3 L-6,3 L-5,5 L-2,2 L0,2 Z " fill="#48416F" transform="translate(520,664)"/>
<path d="M0,0 L1,3 L23,2 L26,1 L27,7 L31,8 L34,14 L31,15 L31,17 L44,17 L44,18 L30,18 L30,14 L24,14 L24,12 L20,12 L20,8 L15,7 L14,4 L0,4 Z " fill="#4E4675" transform="translate(338,658)"/>
<path d="M0,0 L4,1 L1,1 L1,8 L3,8 L3,3 L4,3 L3,14 L4,20 L1,30 L-2,31 L-2,39 L-7,39 L-7,43 L-4,44 L-8,44 L-8,38 L-4,38 L-4,36 L-6,36 L-6,30 L-4,30 L-4,22 L-2,22 L-2,8 L0,8 Z " fill="#463E6A" transform="translate(276,486)"/>
<path d="M0,0 L2,0 L2,5 L4,5 L4,0 L5,0 L5,6 L3,6 L3,12 L1,12 L1,14 L-9,14 L-9,18 L-11,18 L-11,24 L-12,24 L-13,16 L-10,17 L-11,11 L-9,8 L-11,8 L-9,4 L-5,1 L-2,2 Z " fill="#4A4271" transform="translate(613,644)"/>
<path d="M0,0 L2,1 L2,3 L12,4 L12,16 L11,18 L13,19 L10,20 L8,16 L5,16 L5,14 L0,15 L0,8 L-6,7 L-14,6 L-12,4 L-6,3 L-4,4 L-4,6 L1,6 Z M5,13 Z M-15,6 Z " fill="#6A6198" transform="translate(361,609)"/>
<path d="M0,0 L2,0 L3,5 L8,9 L8,11 L16,11 L17,9 L19,9 L19,18 L25,23 L26,27 L24,27 L25,30 L23,30 L22,22 L11,22 L8,19 L7,13 L3,12 L2,7 L0,6 Z " fill="#61579B" transform="translate(613,489)"/>
<path d="M0,0 L20,2 L20,7 L23,7 L23,9 L7,10 L0,11 L-4,9 L-4,7 L4,6 L4,2 L-1,2 Z M-7,9 L-4,10 Z " fill="#56498F" transform="translate(444,390)"/>
<path d="M0,0 L2,2 L3,6 L6,7 L5,15 L7,16 L6,21 L5,30 L4,35 L2,40 L1,47 L0,47 L0,42 L-3,42 L-1,36 L0,34 L0,26 L1,24 L3,24 L4,20 L0,20 Z " fill="#685E9E" transform="translate(339,444)"/>
<path d="M0,0 L1,0 L3,13 L1,15 L2,19 L4,25 L6,27 L5,30 L9,31 L6,31 L5,34 L4,32 L2,34 L0,33 L0,26 L-6,27 L-6,14 L-2,12 L-1,10 Z " fill="#615890" transform="translate(308,498)"/>
<path d="M0,0 L2,0 L2,6 L3,7 L3,12 L6,13 L7,17 L2,19 L2,17 L-2,16 L-2,14 L-6,13 L-6,10 L-12,11 L-25,10 L-23,8 L-2,6 Z " fill="#594D99" transform="translate(544,410)"/>
<path d="M0,0 L3,1 L4,6 L9,8 L13,9 L13,12 L15,12 L15,14 L18,12 L22,12 L25,15 L25,17 L27,18 L22,20 L2,20 L2,18 L15,18 L13,14 L9,13 L8,10 L6,10 L6,8 L2,7 L0,5 L-1,7 L-3,7 L-3,2 Z " fill="#524B78" transform="translate(337,641)"/>
<path d="M0,0 L4,1 L5,3 L6,2 L12,2 L22,9 L22,13 L24,13 L25,16 L24,21 L32,21 L35,24 L30,24 L29,26 L22,23 L20,13 L13,11 L11,5 L7,6 L4,6 L3,4 L2,6 L0,6 L-1,2 L-3,1 Z " fill="#6155A2" transform="translate(554,435)"/>
<path d="M0,0 L7,0 L9,1 L9,3 L11,3 L12,0 L13,4 L17,3 L23,5 L23,7 L27,9 L23,10 L13,7 L7,5 L5,9 L-5,8 L-4,3 L-1,2 Z " fill="#6254A3" transform="translate(469,420)"/>
<path d="M0,0 L6,0 L6,1 L1,1 L2,16 L0,20 L-2,20 L-4,24 L-10,27 L-15,28 L-16,29 L-16,35 L-18,35 L-19,45 L-16,46 L-20,46 L-20,26 L-18,26 L-18,24 L-12,24 L-12,22 L-6,22 L-6,16 L-2,16 L-2,14 L0,14 Z " fill="#110A2D" transform="translate(306,270)"/>
<path d="M0,0 L8,0 L8,7 L35,7 L35,4 L76,4 L75,8 L75,5 L51,6 L37,5 L37,8 L-4,8 L0,7 Z " fill="#080517" transform="translate(346,206)"/>
<path d="M0,0 L4,2 L5,10 L2,12 L4,14 L6,23 L5,27 L3,28 L3,24 L0,23 L-1,18 L-3,18 L-4,16 L-4,7 L0,7 Z " fill="#635991" transform="translate(336,597)"/>
<path d="M0,0 L6,0 L6,8 L8,8 L8,14 L-2,14 L-2,12 L-4,12 L-4,5 L-9,5 L-8,2 L-8,4 L-5,4 L-5,1 L-3,1 L-3,6 L0,6 Z " fill="#140E33" transform="translate(432,214)"/>
<path d="M0,0 L14,0 L27,2 L27,5 L29,6 L2,6 L2,1 Z " fill="#665D97" transform="translate(413,645)"/>
<path d="M0,0 L3,0 L2,7 L7,8 L17,8 L21,9 L24,8 L24,6 L33,6 L32,15 L26,15 L26,14 L31,14 L31,12 L18,12 L11,11 L0,9 L-1,6 L-3,6 L-3,2 L0,2 Z " fill="#150D35" transform="translate(640,389)"/>
<path d="M0,0 L7,1 L9,2 L9,0 L15,1 L16,6 L22,5 L22,3 L29,2 L30,7 L36,7 L34,9 L22,8 L12,8 L6,7 L6,2 L-3,2 Z " fill="#54488B" transform="translate(458,390)"/>
<path d="M0,0 L11,3 L15,5 L15,7 L17,7 L16,11 L15,14 L10,13 L9,8 L3,9 L-2,6 L-3,1 Z " fill="#564E7D" transform="translate(330,634)"/>
<path d="M0,0 L8,0 L8,4 L10,4 L10,8 L14,10 L14,12 L16,12 L16,22 L15,22 L14,14 L13,22 L12,22 L10,13 L5,6 L-2,8 L-8,6 L-8,5 L-3,5 L-3,3 L-8,3 L-8,2 L-2,2 L-2,4 L0,4 Z " fill="#3F3762" transform="translate(682,476)"/>
<path d="M0,0 Z M-7,1 L0,1 L0,3 L-4,5 L-4,3 L-7,5 L-10,10 L-12,12 L-12,16 L-14,17 L-14,15 L-19,18 L-21,20 L-21,15 L-20,11 L-19,6 L-16,6 L-16,9 L-14,9 L-13,3 Z " fill="#534982" transform="translate(352,406)"/>
<path d="M0,0 L4,3 L4,7 L10,7 L12,13 L16,14 L17,16 L20,17 L21,20 L24,23 L22,23 L22,29 L20,29 L19,24 L15,23 L15,15 L10,16 L6,14 L5,8 L1,7 L0,2 Z " fill="#55498A" transform="translate(604,450)"/>
<path d="M0,0 L6,0 L6,8 L8,8 L8,16 L6,16 L6,34 L8,34 L8,40 L-6,40 L-6,39 L7,39 L7,35 L5,35 L5,37 L-5,37 L-1,35 L2,35 L2,18 L3,18 L3,34 L5,34 L4,8 L5,1 L1,1 L1,6 L0,6 Z " fill="#170F35" transform="translate(490,796)"/>
<path d="M0,0 L4,0 L4,34 L14,34 L14,35 L3,35 L2,33 L1,34 L-5,34 L-5,33 L0,33 L0,19 L1,3 L3,3 L3,1 Z " fill="#130D30" transform="translate(590,238)"/>
<path d="M0,0 L2,0 L4,3 L4,8 L7,8 L7,10 L10,11 L10,16 L15,16 L18,19 L18,38 L16,38 L16,19 L7,19 L7,11 L1,11 Z " fill="#1B1240" transform="translate(585,307)"/>
<path d="M0,0 L28,0 L28,1 L1,1 L1,7 L-3,7 L-4,13 L-4,21 L-2,22 L-3,31 L0,32 L-4,32 L-4,26 L-6,26 L-6,24 L-8,24 L-8,10 L-6,10 L-4,6 L0,6 Z " fill="#110B2B" transform="translate(458,170)"/>
<path d="M0,0 L4,1 L2,7 L-6,10 L-4,14 L-8,14 L-8,18 L-12,20 L-10,14 L-14,15 L-13,11 L-9,10 L-9,7 L-6,4 L-6,1 Z M-15,15 Z " fill="#6A5FA2" transform="translate(600,591)"/>
<path d="M0,0 L4,0 L7,3 L9,4 L9,7 L13,7 L16,10 L18,10 L18,12 L23,11 L23,19 L17,19 L15,14 L12,13 L12,9 L9,9 L8,12 L8,9 L5,9 L4,4 L0,3 Z " fill="#5A4E91" transform="translate(596,454)"/>
<path d="M0,0 L1,4 L-11,4 L-11,8 L-19,8 L-19,6 L-39,6 L-39,8 L-51,8 L-51,7 L-40,7 L-40,5 L-47,5 L-45,2 L-38,2 L-39,5 L-19,4 L-12,1 L-11,2 L0,3 Z " fill="#403966" transform="translate(473,696)"/>
<path d="M0,0 L2,2 L2,9 L8,9 L9,35 L12,36 L11,38 L9,38 L8,32 L6,32 L5,25 L5,12 L0,12 L-2,7 L0,2 L-3,1 Z " fill="#57507C" transform="translate(295,567)"/>
<path d="M0,0 L1,0 L1,6 L-1,6 L-1,10 L-3,10 L-3,12 L-5,12 L-5,16 L-7,16 L-7,20 L-9,20 L-9,26 L-11,26 L-11,32 L-17,32 L-17,31 L-12,31 L-13,26 L-13,17 L-10,17 L-10,19 L-8,19 L-9,13 L-8,15 L-6,15 L-8,8 L-3,2 L-2,5 L0,5 Z " fill="#433965" transform="translate(697,548)"/>
<path d="M0,0 L2,1 L2,3 L10,3 L12,9 L18,13 L16,17 L19,18 L21,23 L18,22 L17,18 L13,16 L13,12 L7,11 L4,7 L-1,5 L-2,1 Z " fill="#524785" transform="translate(577,417)"/>
<path d="M0,0 L2,0 L2,47 L-6,47 L-6,45 L0,45 Z " fill="#17103A" transform="translate(555,210)"/>
<path d="M0,0 L9,2 L9,4 L3,5 L2,7 L9,7 L10,6 L15,6 L15,8 L11,10 L15,11 L14,16 L9,16 L7,10 L-1,8 L-3,2 Z " fill="#4B4077" transform="translate(632,457)"/>
<path d="M0,0 L47,0 L47,4 L45,4 L45,2 L39,2 L39,4 L36,4 L36,2 L0,2 Z " fill="#17103B" transform="translate(478,195)"/>
<path d="M0,0 L1,3 L-4,3 L-4,5 L3,5 L3,0 L4,0 L4,6 L-4,6 L-4,8 L-8,12 L-16,12 L-16,14 L-24,14 L-24,13 L-17,13 L-17,11 L-24,11 L-24,10 L-18,10 L-18,8 L-11,7 L-6,2 L0,2 Z " fill="#443D6B" transform="translate(498,682)"/>
<path d="M0,0 L2,4 L0,30 L-7,35 L-8,32 L-7,26 L-3,26 Z M-10,35 L-8,35 L-8,38 L-10,38 Z M-11,38 Z " fill="#50487B" transform="translate(311,432)"/>
<path d="M0,0 L30,0 L30,2 L38,2 L38,6 L40,6 L40,8 L48,8 L48,9 L40,9 L40,11 L42,12 L37,13 L37,9 L39,9 L39,7 L36,8 L37,3 L30,4 L0,4 L0,3 L29,3 L29,1 L0,1 Z " fill="#382F62" transform="translate(498,370)"/>
<path d="M0,0 L4,1 L1,1 L1,3 L-1,3 L0,6 L-3,13 L-7,15 L-9,18 L-9,13 L-11,13 L-10,21 L-11,19 L-14,20 L-14,18 L-12,18 L-12,12 L-8,10 L-8,4 L-2,4 L-2,2 L0,2 Z " fill="#423B66" transform="translate(294,466)"/>
<path d="M0,0 L18,0 L18,10 L-4,10 L-4,4 L-2,4 L-2,8 L16,8 L16,1 L13,2 L0,2 Z " fill="#150F37" transform="translate(367,823)"/>
<path d="M0,0 L3,1 L1,6 L2,8 L-5,9 L-7,23 L-11,24 L-12,29 L-13,27 L-13,19 L-11,15 L-8,14 L-7,8 L-4,8 L-3,2 L0,2 Z " fill="#685DA5" transform="translate(617,561)"/>
<path d="M0,0 L8,0 L8,1 L1,1 L2,8 L1,10 L-8,11 L-10,12 L-13,11 L-13,13 L-10,13 L-10,19 L-13,19 L-13,15 L-19,15 L-20,18 L-20,14 L-14,14 L-14,10 L-10,10 L-10,6 L0,6 Z " fill="#3C3266" transform="translate(360,372)"/>
<path d="M0,0 L2,0 L1,9 L-1,9 L-1,7 L-10,10 L-16,9 L-10,2 L-8,1 L-8,3 L-3,1 Z " fill="#504879" transform="translate(602,652)"/>
<path d="M0,0 L6,1 L2,2 L2,4 L0,4 L0,6 L-2,6 L-2,8 L-8,8 L-8,14 L-10,14 L-10,16 L-12,16 L-12,18 L-20,18 L-16,15 L-12,14 L-12,7 L-9,4 L1,3 Z " fill="#433B68" transform="translate(652,604)"/>
<path d="M0,0 L5,1 L1,6 L-2,6 L-5,9 L-8,9 L-9,13 L-13,18 L-17,19 L-19,21 L-20,17 L-19,14 L-16,13 L-16,15 L-13,14 L-9,7 L-4,6 L-4,1 Z " fill="#534880" transform="translate(643,591)"/>
<path d="M0,0 L1,4 L-1,4 L-1,10 L-3,10 L-3,16 L-5,16 L-5,20 L-9,20 L-9,22 L-13,21 L-10,21 L-11,17 L-6,19 L-6,17 L-9,17 L-9,12 L-7,12 L-7,3 L-4,3 L-4,9 L-2,9 L-3,2 L0,3 Z " fill="#433A68" transform="translate(631,622)"/>
<path d="M0,0 L5,1 L5,6 L7,6 L7,0 L11,1 L10,6 L8,10 L6,12 L8,13 L8,15 L4,13 L2,10 L2,7 L0,7 Z M1,10 Z " fill="#594D8E" transform="translate(619,473)"/>
<path d="M0,0 L15,0 L11,6 L8,7 L6,10 L1,7 L1,3 L-1,3 Z " fill="#6355A8" transform="translate(415,419)"/>
<path d="M0,0 L2,1 L2,9 L1,10 L-6,10 L-9,9 L-12,10 L-11,7 L-9,7 L-8,4 L-6,4 L-6,2 Z " fill="#4D4575" transform="translate(599,659)"/>
<path d="M0,0 L6,2 L16,4 L21,6 L29,7 L29,9 L33,10 L30,11 L26,9 L12,8 L10,6 L5,7 L4,4 L-1,2 Z " fill="#7066A2" transform="translate(392,628)"/>
<path d="M0,0 L1,2 L6,3 L8,6 L11,6 L11,8 L14,9 L12,11 L11,10 L-1,9 L-2,6 L-1,3 L-10,4 L-10,1 L-2,1 Z " fill="#7164B7" transform="translate(570,472)"/>
<path d="M0,0 L1,0 L1,6 L7,5 L8,12 L11,12 L12,22 L10,23 L8,21 L8,16 L3,14 L3,7 L-1,7 L-1,1 Z " fill="#6A5DAB" transform="translate(603,490)"/>
<path d="M0,0 L2,2 L4,0 L8,0 L9,6 L14,6 L16,14 L14,14 L12,8 L3,9 L1,8 L-1,5 L-2,3 L0,3 Z " fill="#685AAF" transform="translate(562,453)"/>
<path d="M0,0 L1,0 L2,33 L1,35 L-1,35 L-1,33 L-3,33 L-3,35 L-5,35 L-4,44 L-8,44 L-8,42 L-6,42 L-6,34 L-4,34 L-4,32 L-2,32 L-2,24 L0,24 Z " fill="#3E3761" transform="translate(306,422)"/>
<path d="M0,0 Z M-3,1 L0,1 L1,5 L-3,8 L-7,10 L-8,12 L-11,13 L-22,14 L-27,16 L-27,13 L-23,13 L-23,11 L-17,10 L-13,11 L-9,9 L-8,5 L-4,4 Z " fill="#5B5091" transform="translate(387,407)"/>
<path d="M0,0 L4,3 L4,5 L0,5 L0,12 L-5,15 L-8,16 L-7,9 L-10,6 L-9,4 L-5,5 L-3,7 Z M-7,5 Z " fill="#645899" transform="translate(633,557)"/>
<path d="M0,0 L1,4 L3,4 L3,14 L5,14 L5,22 L3,22 L3,32 L5,32 L5,42 L4,42 L4,33 L2,33 L2,42 L1,42 L1,14 L2,5 L-1,5 Z " fill="#0A090F" transform="translate(273,534)"/>
<path d="M0,0 L1,2 L13,1 L16,3 L9,3 L9,8 L7,8 L7,12 L5,12 L5,8 L-1,8 L-1,5 L-3,5 L-3,3 Z " fill="#6156A8" transform="translate(433,418)"/>
<path d="M0,0 L4,0 L2,7 L-1,9 L-4,9 L-10,13 L-11,20 L-15,21 L-13,14 L-11,10 L-7,6 L-1,6 L-1,1 Z M-16,21 Z " fill="#615794" transform="translate(599,608)"/>
<path d="M0,0 L2,1 L1,3 L-7,3 L-7,6 L-4,7 L-10,12 L-17,11 L-17,13 L-19,13 L-20,16 L-20,12 L-18,12 L-18,10 L-16,10 L-16,6 L-10,6 L-10,4 L-8,4 L-8,2 L0,2 Z " fill="#413767" transform="translate(338,390)"/>
<path d="M0,0 L15,0 L19,2 L22,6 L24,7 L22,9 L19,9 L19,7 L12,6 L12,4 L10,4 L10,2 L1,4 L-1,1 Z M16,4 Z " fill="#4D4080" transform="translate(470,382)"/>
<path d="M0,0 Z M-18,1 L-12,2 L-11,3 L-1,5 L0,1 L0,4 L5,5 L6,2 L8,5 L9,8 L3,8 L-1,8 L-9,7 L-18,3 Z " fill="#635A90" transform="translate(375,632)"/>
<path d="M0,0 L27,1 L26,5 L29,6 L23,9 L22,6 L23,3 L1,4 Z " fill="#675BB1" transform="translate(510,443)"/>
<path d="M0,0 L4,1 L0,2 L2,8 L-1,10 L-2,9 L-2,4 L-6,5 L-7,9 L-8,16 L-13,17 L-14,15 L-11,14 L-11,3 L-9,2 L-3,2 Z M1,4 Z " fill="#5C4D9A" transform="translate(418,396)"/>
<path d="M0,0 L2,1 L2,7 L3,10 L1,10 L1,17 L-9,18 L-9,16 L-4,16 L-4,14 L-2,14 L-3,7 L-6,6 L-6,4 L-1,3 Z " fill="#180F38" transform="translate(339,281)"/>
<path d="M0,0 L1,3 L4,2 L3,7 L7,5 L9,3 L11,6 L15,11 L13,17 L22,17 L22,18 L12,18 L12,12 L6,12 L6,8 L2,8 L2,4 L0,4 Z " fill="#443C66" transform="translate(312,638)"/>
<path d="M0,0 L6,1 L6,3 L9,4 L7,4 L7,8 L5,8 L5,10 L3,10 L3,16 L2,16 L2,10 L0,10 L0,16 L-1,16 Z " fill="#483F6C" transform="translate(693,532)"/>
<path d="M0,0 L5,0 L5,2 L2,2 L2,7 L5,7 L5,13 L2,13 L1,15 L0,11 L1,8 L-5,7 L-5,2 L0,2 Z " fill="#4C4177" transform="translate(664,473)"/>
<path d="M0,0 L16,0 L16,6 L32,6 L31,10 L31,7 L17,7 L17,9 L29,9 L29,11 L15,12 L14,6 L15,1 L0,1 Z " fill="#392F62" transform="translate(466,360)"/>
<path d="M0,0 L9,0 L9,6 L0,11 L-1,1 Z " fill="#7566C1" transform="translate(580,504)"/>
<path d="M0,0 L3,0 L3,2 L6,2 L6,4 L-7,5 L-10,7 L-12,7 L-16,9 L-18,11 L-17,7 L-15,7 L-14,3 L-10,1 Z M2,2 Z " fill="#4D427B" transform="translate(357,396)"/>
<path d="M0,0 L2,0 L2,31 L-1,31 L-1,1 Z " fill="#130D33" transform="translate(573,222)"/>
<path d="M0,0 L6,0 L6,4 L8,4 L8,6 L10,6 L10,10 L14,12 L13,14 L10,14 L10,12 L8,11 L8,8 L3,9 L-1,8 L0,3 L5,3 L5,1 L0,1 Z " fill="#443A6C" transform="translate(610,434)"/>
<path d="M0,0 L3,4 L4,23 L9,26 L11,26 L11,31 L8,31 L7,28 L5,28 L5,26 L2,25 L0,5 L-1,1 Z " fill="#5D5584" transform="translate(321,593)"/>
<path d="M0,0 L2,1 L2,26 L0,33 L-4,33 L-4,28 L-1,25 Z " fill="#5C518B" transform="translate(660,527)"/>
<path d="M0,0 L6,0 L6,4 L12,4 L12,8 L22,8 L21,12 L21,9 L12,9 L11,11 L6,10 L6,7 L11,7 L11,5 L2,7 L-2,6 L-1,3 L5,3 L5,1 L0,1 Z " fill="#3F3665" transform="translate(636,458)"/>
<path d="M0,0 L3,1 L1,5 L11,4 L14,4 L14,6 L5,6 L5,8 L-14,8 L-14,6 L-3,6 L-3,4 L-1,3 Z " fill="#1C1344" transform="translate(357,285)"/>
<path d="M0,0 L14,0 L14,8 L-4,8 L-4,6 L12,6 L12,2 L0,2 Z " fill="#1D1443" transform="translate(515,765)"/>
<path d="M0,0 L5,0 L3,8 L0,8 L0,6 L-5,5 L-7,4 L-7,2 L-15,3 L-15,1 Z " fill="#7769BA" transform="translate(496,479)"/>
<path d="M0,0 L2,2 L3,6 L6,7 L5,15 L7,16 L7,20 L5,20 L3,17 L0,20 Z " fill="#645A9A" transform="translate(339,444)"/>
<path d="M0,0 L6,0 L6,2 L10,2 L10,8 L0,8 Z " fill="#0F092E" transform="translate(638,318)"/>
<path d="M0,0 L1,0 L2,8 L4,9 L1,10 L1,7 L-1,7 L0,22 L2,20 L3,25 L-5,27 L-7,26 L-8,30 L-8,24 L-6,22 L-2,22 L-2,6 L0,6 Z " fill="#110B2C" transform="translate(340,216)"/>
<path d="M0,0 L2,0 L2,3 L8,3 L10,7 L7,8 L7,10 L20,10 L20,11 L6,11 L6,7 L0,7 L0,5 L-4,5 L-3,1 L-3,4 L-1,4 Z " fill="#423B66" transform="translate(362,665)"/>
<path d="M0,0 L2,0 L1,13 L-1,13 L-1,15 L-8,15 L-8,18 L-13,18 L-13,16 L-10,15 L-7,12 L-2,12 L-2,3 Z " fill="#1B123F" transform="translate(385,269)"/>
<path d="M0,0 L8,0 L4,4 L6,4 L6,6 L10,5 L9,9 L9,7 L2,10 L-1,12 L-2,9 L-1,5 Z " fill="#6B5EAB" transform="translate(388,439)"/>
<path d="M0,0 L1,0 L1,5 L-1,7 L-2,14 L-2,20 L-4,18 L-6,13 L-8,14 L-8,5 L-1,5 Z " fill="#5D5586" transform="translate(303,531)"/>
<path d="M0,0 L2,2 L2,21 L1,31 L-1,31 L-2,24 L-1,17 Z " fill="#7167A3" transform="translate(338,530)"/>
<path d="M0,0 L4,0 L4,8 L2,8 L2,10 L0,10 L0,12 L-14,12 L-13,8 L-13,11 L-1,11 L-1,9 L-8,9 L-5,6 L-2,5 L-1,3 L1,3 L1,7 L3,7 L3,1 Z " fill="#190F37" transform="translate(608,734)"/>
<path d="M0,0 L20,0 L22,2 L19,3 L-1,3 Z M22,0 Z " fill="#4A4275" transform="translate(435,698)"/>
<path d="M0,0 L16,0 L17,2 L16,4 L1,4 Z " fill="#130D33" transform="translate(352,224)"/>
<path d="M0,0 L4,1 L2,6 L-1,10 L-3,10 L-3,12 L-12,14 L-11,11 L-4,10 L-4,8 L-2,8 L-2,6 L-5,5 Z " fill="#544B80" transform="translate(589,650)"/>
<path d="M0,0 L4,1 L4,3 L14,4 L11,9 L9,9 L8,11 L3,10 L2,2 Z " fill="#514586" transform="translate(549,400)"/>
<path d="M0,0 L31,0 L31,3 L28,3 L28,1 L14,3 L8,2 L1,4 Z " fill="#55458A" transform="translate(500,397)"/>
<path d="M0,0 L4,1 L1,1 L1,3 L4,3 L4,5 L2,5 L1,7 L1,5 L-1,5 L-1,8 L1,8 L1,15 L-3,16 L-3,9 L-5,9 L-5,16 L-6,16 L-6,8 L-2,8 L-2,4 L0,4 Z " fill="#41396A" transform="translate(314,406)"/>
<path d="M0,0 L13,1 L16,0 L17,2 L12,4 L10,4 L10,7 L13,8 L15,11 L11,11 L7,7 L7,4 L4,5 L2,1 Z " fill="#524588" transform="translate(418,380)"/>
<path d="M0,0 L20,0 L20,2 L14,2 L14,4 L6,6 L6,2 L0,2 Z " fill="#030208" transform="translate(318,282)"/>
<path d="M0,0 L8,0 L8,6 L6,6 L6,8 L0,8 Z " fill="#170F36" transform="translate(638,734)"/>
<path d="M0,0 L4,0 L4,7 L6,7 L6,12 L-2,12 L-1,7 Z " fill="#17103B" transform="translate(433,215)"/>
<path d="M0,0 L3,2 L4,10 L9,12 L9,14 L13,15 L14,19 L18,20 L15,21 L12,20 L12,16 L8,16 L7,14 L1,11 Z " fill="#5B5384" transform="translate(337,625)"/>
<path d="M0,0 L2,0 L2,3 L5,5 L20,6 L20,8 L1,8 L-1,7 Z " fill="#453A76" transform="translate(553,383)"/>
<path d="M0,0 L11,0 L11,4 L15,5 L7,5 L3,4 L3,6 L-1,4 Z " fill="#5D548C" transform="translate(433,656)"/>
<path d="M0,0 L1,4 L-1,4 L-1,10 L-9,10 L-9,8 L-11,7 L-9,7 L-8,5 L-6,5 L-4,1 L-2,1 L-2,3 L0,3 Z " fill="#3E3762" transform="translate(513,674)"/>
<path d="M0,0 L6,1 L7,6 L4,16 L2,16 L2,5 L0,4 Z " fill="#695F99" transform="translate(322,523)"/>
<path d="M0,0 L2,0 L3,8 L1,16 L-1,16 L-2,13 L-5,12 L-5,8 L-1,7 Z " fill="#4C4474" transform="translate(274,517)"/>
<path d="M0,0 L1,4 L0,6 L3,6 L3,9 L-4,10 L-7,9 L-5,3 L0,2 Z " fill="#564D82" transform="translate(493,652)"/>
<path d="M0,0 L8,0 L9,5 L13,5 L13,0 L15,4 L14,8 L6,8 L5,3 L0,2 Z " fill="#4C4477" transform="translate(391,681)"/>
<path d="M0,0 L7,0 L6,3 L26,3 L26,4 L6,4 L6,6 L-6,6 L-6,5 L5,5 L5,3 L-2,3 Z " fill="#3D3660" transform="translate(428,698)"/>
<path d="M0,0 L3,0 L5,9 L4,13 L2,14 L2,10 L-1,9 L-2,2 Z " fill="#635B90" transform="translate(337,611)"/>
<path d="M0,0 L20,0 L19,3 L9,3 L4,4 L0,2 Z M-3,2 L0,3 Z " fill="#5B4B95" transform="translate(440,397)"/>
<path d="M0,0 L6,2 L10,3 L10,5 L12,6 L10,6 L10,8 L7,8 L7,4 L4,4 L3,7 L3,5 L-4,4 L-5,1 Z " fill="#6C5DAA" transform="translate(588,478)"/>
<path d="M0,0 L4,1 L5,3 L5,13 L1,14 Z M4,0 Z " fill="#1A113E" transform="translate(537,276)"/>
<path d="M0,0 L7,0 L7,2 L0,3 L-1,6 L-12,6 L-12,3 L-3,2 Z " fill="#4B4376" transform="translate(474,693)"/>
<path d="M0,0 L1,2 L3,2 L4,11 L2,16 L1,12 L-1,12 L-1,8 L-9,8 L-9,2 L-8,2 L-8,7 L0,7 Z " fill="#423A66" transform="translate(405,682)"/>
<path d="M0,0 L1,3 L3,3 L3,1 L5,1 L6,3 L6,11 L5,13 L8,13 L8,11 L10,12 L10,16 L8,16 L8,14 L4,14 L4,10 L2,10 L2,4 L0,4 Z " fill="#453F66" transform="translate(298,606)"/>
<path d="M0,0 L12,0 L14,1 L14,4 L8,5 L2,5 L2,1 Z " fill="#605690" transform="translate(430,652)"/>
<path d="M0,0 L6,0 L6,6 L5,9 L5,12 L-2,12 L-2,8 L3,7 L3,4 L5,4 L5,1 L1,1 L0,4 Z " fill="#3F356A" transform="translate(430,348)"/>
<path d="M0,0 L13,0 L11,1 L9,5 L-1,4 Z " fill="#6656A7" transform="translate(465,424)"/>
<path d="M0,0 L6,0 L6,8 L0,8 Z " fill="#181138" transform="translate(638,698)"/>
<path d="M0,0 L5,2 L2,6 L-5,6 L-7,5 L-8,8 L-15,8 L-11,6 L-9,6 L-8,3 L-1,3 Z " fill="#53468B" transform="translate(407,385)"/>
<path d="M0,0 L6,0 L6,8 L0,8 Z " fill="#110B2E" transform="translate(642,286)"/>
<path d="M0,0 L8,0 L8,6 L0,6 Z " fill="#171037" transform="translate(414,242)"/>
<path d="M0,0 L8,0 L8,6 L0,6 Z " fill="#160F35" transform="translate(404,238)"/>
<path d="M0,0 L8,0 L8,6 L0,6 Z " fill="#110A2D" transform="translate(346,206)"/>
<path d="M0,0 L8,0 L8,6 L0,6 Z " fill="#150F34" transform="translate(482,204)"/>
<path d="M0,0 L6,0 L6,8 L0,8 Z " fill="#100B27" transform="translate(570,202)"/>
<path d="M0,0 L2,1 L-1,4 L-12,5 L-22,5 L-25,4 L-25,2 L-14,3 L-9,1 L-9,3 L-2,3 L-2,1 Z " fill="#6A5FA1" transform="translate(534,621)"/>
<path d="M0,0 L2,1 L-3,3 L-7,8 L-11,8 L-14,12 L-16,11 L-12,5 L-10,3 L-5,2 Z " fill="#685CA5" transform="translate(391,437)"/>
<path d="M0,0 L1,0 L1,6 L-7,7 L-9,9 L-16,9 L-16,7 L-9,6 L-4,2 Z " fill="#6154A2" transform="translate(408,418)"/>
<path d="M0,0 L6,0 L6,2 L2,2 L2,8 L-2,10 L-2,16 L-4,16 L-4,8 L-1,7 Z " fill="#1B123F" transform="translate(539,259)"/>
<path d="M0,0 L2,4 L2,8 L-2,12 L-4,11 L-5,9 L-23,8 L-23,7 L0,7 Z " fill="#140E31" transform="translate(577,259)"/>
<path d="M0,0 L11,0 L9,4 L-2,4 L-7,3 L-4,1 Z " fill="#766CAB" transform="translate(519,596)"/>
<path d="M0,0 L14,0 L15,2 L14,4 L6,5 L5,3 L2,5 Z M2,2 Z " fill="#6155A1" transform="translate(450,419)"/>
<path d="M0,0 L4,3 L4,8 L9,8 L9,11 L1,11 L1,2 L-1,1 Z " fill="#1A123D" transform="translate(553,297)"/>
<path d="M0,0 L1,0 L1,6 L-1,6 L-1,10 L-6,11 L-8,10 L-7,6 L-2,2 L-2,5 L0,5 Z " fill="#463E69" transform="translate(697,548)"/>
<path d="M0,0 L2,0 L2,15 L1,15 L1,9 L-3,10 L-2,2 Z " fill="#6F60AF" transform="translate(611,542)"/>
<path d="M0,0 L22,1 L22,2 L2,2 L2,4 L8,4 L7,8 L7,5 L-2,7 L0,6 Z " fill="#130C2C" transform="translate(316,280)"/>
<path d="M0,0 L1,0 L1,5 L3,5 L3,0 L4,0 L4,6 L2,6 L2,12 L0,12 L0,14 L-10,14 L-10,13 L-1,13 L-1,7 L0,6 Z " fill="#3E3761" transform="translate(614,644)"/>
<path d="M0,0 L2,2 L-1,10 L-5,10 L-5,3 L0,2 Z " fill="#504976" transform="translate(319,626)"/>
<path d="M0,0 L1,2 L1,20 L0,26 L-1,26 L-1,20 L-3,20 L-3,16 L-1,16 L-1,2 L-3,1 Z " fill="#0C0B12" transform="translate(707,508)"/>
<path d="M0,0 L2,0 L2,4 L6,6 L4,10 L-1,8 L-2,1 Z " fill="#140C34" transform="translate(633,381)"/>
<path d="M0,0 L3,1 L-1,11 L-3,15 L-7,13 L-5,10 L-3,10 L-1,1 Z " fill="#534A81" transform="translate(610,623)"/>
<path d="M0,0 L8,0 L14,1 L16,6 L9,5 L9,2 L0,2 Z " fill="#4D4180" transform="translate(418,371)"/>
<path d="M0,0 L8,0 L8,2 L14,2 L14,3 L8,4 L0,4 L-2,2 L0,2 Z " fill="#3C3268" transform="translate(416,350)"/>
<path d="M0,0 L10,2 L10,3 L4,3 L4,7 L-2,7 L-3,9 L-4,5 L3,6 L3,4 L-2,4 L-2,1 Z " fill="#423A64" transform="translate(590,667)"/>
<path d="M0,0 L3,1 L2,5 L1,8 L-9,11 L-8,7 L-2,5 Z " fill="#5B518C" transform="translate(596,628)"/>
<path d="M0,0 L2,1 L2,3 L12,4 L8,8 L4,7 L1,6 Z " fill="#6D649D" transform="translate(361,609)"/>
<path d="M0,0 L1,3 L4,2 L4,5 L1,7 L0,5 L-2,7 L-2,15 L-3,20 L-4,20 L-5,11 L-3,4 L-1,3 Z " fill="#5B518D" transform="translate(336,428)"/>
<path d="M0,0 L2,0 L1,4 L-16,4 L-16,2 L0,2 Z " fill="#1C1241" transform="translate(663,405)"/>
<path d="M0,0 L4,0 L8,4 L8,10 L7,10 L7,5 L5,5 L4,9 L2,9 L2,7 L0,7 L0,3 L3,3 L3,1 Z " fill="#3D3369" transform="translate(582,396)"/>
<path d="M0,0 L14,1 L14,2 L6,2 L6,4 L0,4 L0,2 L-6,2 L-6,1 Z " fill="#423963" transform="translate(526,668)"/>
<path d="M0,0 L1,3 L3,3 L3,1 L5,1 L7,3 L9,7 L7,8 L5,7 L5,9 L8,10 L4,10 L2,5 L0,4 Z " fill="#474168" transform="translate(290,596)"/>
<path d="M0,0 L3,0 L3,7 L-2,6 L-2,12 L-4,10 L-4,3 L0,3 Z " fill="#62598E" transform="translate(316,573)"/>
<path d="M0,0 L1,4 L0,13 L-2,16 L-3,23 L-4,23 L-4,14 L-3,12 L-2,2 Z " fill="#6B60A2" transform="translate(343,468)"/>
<path d="M0,0 L4,1 L4,7 L-2,7 L-2,2 Z " fill="#180F36" transform="translate(691,400)"/>
<path d="M0,0 L3,0 L3,18 L1,18 Z " fill="#130C35" transform="translate(630,303)"/>
<path d="M0,0 L7,0 L5,2 L2,2 L3,8 L7,8 L7,10 L0,10 Z " fill="#1E1343" transform="translate(471,811)"/>
<path d="M0,0 L4,0 L4,2 L2,2 L2,4 L5,2 L11,2 L11,4 L7,4 L7,6 L0,6 Z " fill="#1B1241" transform="translate(503,765)"/>
<path d="M0,0 L4,1 L3,2 L9,3 L9,5 L-2,5 L-3,1 Z " fill="#4C4479" transform="translate(424,698)"/>
<path d="M0,0 L2,2 L2,5 L-1,5 L-2,10 L-4,10 L-5,7 L-4,4 L-6,4 L-6,2 L-1,3 Z " fill="#4C3F73" transform="translate(681,572)"/>
<path d="M0,0 L3,0 L3,2 L5,3 L-3,6 L-6,8 L-5,1 Z " fill="#4E4283" transform="translate(413,371)"/>
<path d="M0,0 L2,0 L2,12 L-1,12 L-2,2 L0,2 Z " fill="#130D34" transform="translate(621,334)"/>
<path d="M0,0 L7,0 L7,2 L11,2 L11,4 L0,4 Z " fill="#231449" transform="translate(583,737)"/>
<path d="M0,0 L4,2 L5,10 L1,9 L0,7 Z " fill="#685F98" transform="translate(336,597)"/>
<path d="M0,0 L4,0 L4,4 L8,6 L8,8 L10,8 L10,14 L8,10 L6,11 L6,8 L4,8 L3,7 L1,7 L1,4 L3,4 L3,1 Z " fill="#3B3260" transform="translate(600,420)"/>
<path d="M0,0 L6,0 L12,3 L11,5 L2,3 L-3,7 L-2,3 L0,3 Z " fill="#5A4F99" transform="translate(500,412)"/>
<path d="M0,0 L6,0 L6,6 L0,6 Z " fill="#0C0724" transform="translate(636,372)"/>
<path d="M0,0 L1,3 L17,2 L15,3 L19,5 L18,6 L20,8 L15,7 L14,4 L0,4 Z " fill="#3E395C" transform="translate(338,658)"/>
<path d="M0,0 L6,0 L6,1 L1,1 L1,3 L6,3 L1,7 L-8,5 L-8,4 L-2,4 L-2,2 L0,2 Z " fill="#3B3165" transform="translate(376,366)"/>
<path d="M0,0 L7,0 L7,6 L2,6 Z " fill="#1A1140" transform="translate(392,257)"/>
<path d="M0,0 L2,0 L2,14 L4,14 L4,16 L0,15 Z " fill="#18113C" transform="translate(535,235)"/>
<path d="M0,0 L16,0 L16,2 L2,2 L2,4 L0,4 Z " fill="#17103B" transform="translate(529,195)"/>
<path d="M0,0 L3,1 L0,4 L-1,9 L-8,9 L-8,7 L-3,7 L-3,2 Z " fill="#4C4478" transform="translate(502,678)"/>
<path d="M0,0 L4,0 L4,5 L-1,5 L-2,7 L-3,2 Z " fill="#4A4271" transform="translate(595,662)"/>
<path d="M0,0 L4,1 L2,2 L4,6 L0,6 L0,10 L-4,12 L-2,6 L-2,3 L0,3 Z " fill="#685D9E" transform="translate(592,599)"/>
<path d="M0,0 L1,2 L10,2 L8,6 L3,7 L3,4 L-1,5 L-3,3 L0,3 Z M3,3 Z " fill="#6F64B2" transform="translate(445,454)"/>
<path d="M0,0 L2,1 L2,4 L4,5 L-9,5 L-9,3 L-5,2 Z " fill="#574F84" transform="translate(450,669)"/>
<path d="M0,0 L7,2 L6,5 L-2,5 L-4,6 L-2,2 L0,2 Z " fill="#4D4575" transform="translate(520,664)"/>
<path d="M0,0 L13,0 L11,4 L0,2 Z " fill="#625990" transform="translate(393,644)"/>
<path d="M0,0 L2,0 L0,4 L-4,7 L-5,10 L-12,9 L-12,7 L-6,6 L-2,2 L0,2 Z M-7,8 Z " fill="#6A5FA1" transform="translate(584,610)"/>
<path d="M0,0 L1,2 L3,2 L4,0 L4,2 L6,2 L6,8 L4,8 L3,10 L0,3 Z " fill="#443868" transform="translate(676,580)"/>
<path d="M0,0 L6,0 L6,2 L4,2 L2,6 L-3,7 L-3,4 L0,3 Z " fill="#4B4176" transform="translate(683,477)"/>
<path d="M0,0 L3,1 L0,6 L-2,8 L-2,12 L-4,13 L-4,7 L-1,1 Z " fill="#564D86" transform="translate(342,410)"/>
<path d="M0,0 L2,0 L2,3 L10,3 L10,1 L12,1 L11,5 L0,5 Z " fill="#1B1241" transform="translate(307,312)"/>
<path d="M0,0 L4,1 L3,2 L2,15 L0,15 Z " fill="#140C35" transform="translate(315,253)"/>
<path d="M0,0 L1,3 L0,10 L-2,10 L-4,6 L-3,1 Z " fill="#504973" transform="translate(311,615)"/>
<path d="M0,0 L3,1 L3,3 L6,3 L5,8 L3,8 L2,6 L-1,6 Z " fill="#63569D" transform="translate(589,459)"/>
<path d="M0,0 L2,1 L-2,2 L-2,4 L-8,6 L-12,5 L-12,3 Z " fill="#695BB0" transform="translate(416,433)"/>
<path d="M0,0 L3,1 L4,4 L8,5 L3,6 L-1,4 L-4,4 L-5,1 Z " fill="#483C79" transform="translate(508,378)"/>
<path d="M0,0 L1,0 L2,7 L4,7 L4,9 L6,9 L6,11 L9,11 L9,13 L4,12 L0,8 Z " fill="#1A123D" transform="translate(615,368)"/>
<path d="M0,0 L1,2 L-6,4 L-8,9 L-11,8 L-10,2 Z " fill="#150D33" transform="translate(343,240)"/>
<path d="M0,0 L4,1 L1,1 L1,5 L-3,5 L-3,20 L-4,20 L-4,4 L0,2 Z " fill="#130D2E" transform="translate(538,230)"/>
<path d="M0,0 L1,3 L-4,3 L-4,5 L3,5 L3,0 L4,0 L4,6 L-4,6 L-5,8 L-5,5 L-7,5 L-6,2 L0,2 Z " fill="#3E3762" transform="translate(498,682)"/>
<path d="M0,0 L7,0 L7,1 L2,2 L1,6 L-1,6 L-2,11 L-4,11 L-4,6 L-1,4 Z " fill="#52497E" transform="translate(617,612)"/>
<path d="M0,0 L13,0 L11,4 L10,2 L4,3 L1,3 L-1,4 Z " fill="#50477F" transform="translate(317,427)"/>
<path d="M0,0 L4,2 L-4,5 L-12,5 L-10,3 L-3,2 Z " fill="#4E4285" transform="translate(452,377)"/>
<path d="M0,0 L3,0 L3,12 L0,10 Z " fill="#473F73" transform="translate(307,422)"/>
<path d="M0,0 L2,0 L2,11 L-1,10 L-1,2 Z " fill="#110A34" transform="translate(623,346)"/>
<path d="M0,0 L6,1 L5,6 L3,8 L0,7 L2,1 Z " fill="#605790" transform="translate(459,655)"/>
<path d="M0,0 L1,2 L1,11 L7,11 L7,12 L1,13 L-1,15 L-2,3 Z " fill="#7B70B3" transform="translate(385,588)"/>
<path d="M0,0 L4,0 L4,6 L0,9 Z " fill="#595182" transform="translate(295,536)"/>
<path d="M0,0 L18,0 L14,3 L5,2 L2,3 L2,1 Z " fill="#6759AC" transform="translate(491,435)"/>
<path d="M0,0 L4,0 L8,4 L8,12 L10,12 L9,14 L6,14 L7,5 L3,6 L3,1 Z " fill="#3B3360" transform="translate(590,406)"/>
<path d="M0,0 L7,0 L8,3 L0,3 Z M8,0 L11,0 L10,3 L8,2 Z " fill="#0D0921" transform="translate(562,272)"/>
<path d="M0,0 L8,0 L8,1 L1,1 L1,3 L4,3 L4,5 L2,6 L4,8 L-2,8 L-2,6 L0,6 Z " fill="#04020A" transform="translate(388,244)"/>
<path d="M0,0 L5,0 L1,2 L-2,5 L-6,7 L-9,6 L-4,1 Z " fill="#625992" transform="translate(489,640)"/>
<path d="M0,0 L2,1 L3,4 L9,7 L8,10 L5,10 L3,8 L2,5 L0,5 Z " fill="#6F64A4" transform="translate(383,619)"/>
<path d="M0,0 L7,1 L6,5 L4,7 L0,2 Z " fill="#524685" transform="translate(601,444)"/>
<path d="M0,0 L2,0 L3,3 L-1,7 L-4,6 L-4,4 L-6,3 L-2,2 L0,2 Z " fill="#5A5091" transform="translate(352,421)"/>
<path d="M0,0 L1,2 L3,2 L2,5 L-4,6 L-5,3 L-7,2 L-2,1 L0,2 Z " fill="#5C4F98" transform="translate(399,409)"/>
<path d="M0,0 L6,0 L7,4 L10,5 L12,8 L8,8 L4,4 L4,1 L1,2 Z " fill="#55488C" transform="translate(421,383)"/>
<path d="M0,0 L3,0 L3,6 L0,6 L0,2 L-6,2 L-7,5 L-7,1 Z " fill="#403669" transform="translate(347,385)"/>
<path d="M0,0 L2,0 L5,11 L7,12 L3,12 L2,7 L0,6 Z " fill="#63589D" transform="translate(613,489)"/>
<path d="M0,0 L4,1 L1,5 L-3,5 L-4,7 L-4,3 Z " fill="#4E4476" transform="translate(653,596)"/>
<path d="M0,0 L2,0 L2,12 L0,13 L-1,5 Z " fill="#5B5387" transform="translate(296,515)"/>
<path d="M0,0 L4,0 L4,4 L8,4 L7,6 L0,7 L0,3 L3,3 L3,1 Z " fill="#403865" transform="translate(628,452)"/>
<path d="M0,0 L4,0 L3,6 L0,8 L-1,3 Z " fill="#6C5DB2" transform="translate(496,443)"/>
<path d="M0,0 L5,0 L6,1 L15,2 L15,3 L6,4 L-1,3 Z " fill="#655AB3" transform="translate(425,432)"/>
<path d="M0,0 L8,0 L7,4 L7,1 L4,3 L1,5 L1,3 L-1,3 L-2,6 L-2,2 L0,2 Z " fill="#10092A" transform="translate(696,390)"/>
<path d="M0,0 L4,1 L2,5 L2,3 L-3,4 L-5,3 L-8,4 L-7,1 L0,2 Z " fill="#473C77" transform="translate(416,358)"/>
<path d="M0,0 L2,0 L2,5 L-1,5 L-1,7 L-7,7 L-7,5 L-2,5 L-2,3 L0,3 Z " fill="#1C1344" transform="translate(337,292)"/>
<path d="M0,0 L1,4 L8,4 L8,6 L-1,6 L-1,1 Z " fill="#514A78" transform="translate(326,649)"/>
<path d="M0,0 L3,1 L2,2 L1,9 L-4,11 L-6,9 L-1,7 Z " fill="#7E73B6" transform="translate(464,607)"/>
<path d="M0,0 L5,0 L4,2 L-1,5 L-3,5 L-4,8 L-7,7 L-7,5 L-2,3 Z " fill="#63589A" transform="translate(328,479)"/>
<path d="M0,0 L2,4 L-3,6 L-3,4 L-7,3 L-7,1 L-2,2 Z " fill="#5C4F9D" transform="translate(549,423)"/>
<path d="M0,0 L4,0 L4,2 L7,2 L7,4 L11,5 L1,4 Z " fill="#4E4281" transform="translate(552,399)"/>
<path d="M0,0 L4,2 L-1,7 L-4,7 L-3,3 L0,3 Z " fill="#493E78" transform="translate(398,369)"/>
<path d="M0,0 L4,0 L4,7 L2,7 L2,5 L0,5 Z " fill="#1C1342" transform="translate(491,797)"/>
<path d="M0,0 L5,0 L2,3 L-6,4 L-6,1 Z " fill="#584F87" transform="translate(470,661)"/>
<path d="M0,0 L1,4 L4,4 L4,6 L1,6 L1,10 L6,10 L6,11 L0,11 L-1,3 Z " fill="#7167A4" transform="translate(368,602)"/>
<path d="M0,0 L2,0 L2,7 L5,7 L5,9 L0,9 Z " fill="#534C78" transform="translate(279,566)"/>
<path d="M0,0 L3,0 L3,5 L2,6 L-5,6 L-5,4 L0,5 Z " fill="#7769BE" transform="translate(582,518)"/>
<path d="M0,0 L3,0 L3,2 L-10,3 L-13,5 L-12,1 Z " fill="#50457F" transform="translate(360,398)"/>
<path d="M0,0 L2,4 L4,3 L4,9 L0,9 Z " fill="#18113C" transform="translate(459,202)"/>
<path d="M0,0 L4,0 L4,6 L0,6 Z " fill="#150F38" transform="translate(571,203)"/>
<path d="M0,0 L9,0 L9,2 L-1,4 Z " fill="#5B528A" transform="translate(455,663)"/>
<path d="M0,0 L7,0 L7,1 L1,3 L-5,6 L-4,2 Z " fill="#776CAF" transform="translate(464,623)"/>
<path d="M0,0 L4,0 L4,6 L0,5 Z " fill="#7369A8" transform="translate(528,600)"/>
<path d="M0,0 L5,4 L4,8 L0,8 Z " fill="#6A6199" transform="translate(331,579)"/>
<path d="M0,0 L2,0 L2,5 L-1,7 L-5,6 L-2,2 L0,2 Z " fill="#7165B2" transform="translate(392,462)"/>
<path d="M0,0 L14,0 L15,2 L11,4 L10,2 L0,1 Z " fill="#514287" transform="translate(532,397)"/>
<path d="M0,0 L7,1 L8,5 L5,5 L5,3 L0,4 Z M5,2 Z " fill="#685F94" transform="translate(361,620)"/>
<path d="M0,0 L5,0 L9,3 L8,6 L8,4 L1,3 Z " fill="#6D5FB0" transform="translate(583,479)"/>
<path d="M0,0 L5,1 L6,7 L1,5 Z " fill="#544981" transform="translate(633,473)"/>
<path d="M0,0 L2,0 L2,9 L-1,9 Z " fill="#130C35" transform="translate(627,293)"/>
<path d="M0,0 L3,4 L3,10 L1,10 L0,5 L-1,1 Z " fill="#60588C" transform="translate(321,593)"/>
<path d="M0,0 L7,0 L3,5 L-1,3 Z " fill="#645A9A" transform="translate(316,496)"/>
<path d="M0,0 L4,1 L1,1 L1,3 L4,3 L4,5 L2,5 L1,7 L1,5 L-1,5 L-2,8 L-2,4 L0,4 Z " fill="#3C3362" transform="translate(314,406)"/>
<path d="M0,0 L2,1 L3,2 L3,8 L1,9 L0,7 Z " fill="#120C32" transform="translate(628,320)"/>
<path d="M0,0 L2,0 L2,5 L-1,6 L-2,9 L-4,9 L-3,4 L-1,3 Z " fill="#1C1343" transform="translate(325,302)"/>
<path d="M0,0 L6,0 L6,1 L1,1 L2,4 L-3,5 L-3,3 L-6,2 L0,2 Z " fill="#100929" transform="translate(294,292)"/>
<path d="M0,0 L5,0 L4,3 L-3,4 L-3,2 L0,2 Z " fill="#1A113E" transform="translate(327,287)"/>
<path d="M0,0 L2,1 L1,5 L0,6 L-6,6 L-6,4 L-1,3 Z " fill="#1B123F" transform="translate(339,281)"/>
<path d="M0,0 L4,0 L4,3 L-2,4 L-3,1 Z " fill="#5C5388" transform="translate(403,652)"/>
<path d="M0,0 L11,0 L9,3 L0,1 Z " fill="#7D6FBF" transform="translate(427,498)"/>
<path d="M0,0 L3,2 L2,9 L-1,8 Z " fill="#5C4D99" transform="translate(425,396)"/>
<path d="M0,0 L6,0 L5,3 L0,4 L-2,5 L-2,1 Z " fill="#4C4080" transform="translate(438,373)"/>
<path d="M0,0 L2,3 L2,6 L-2,6 L-2,1 Z " fill="#453E6E" transform="translate(384,672)"/>
<path d="M0,0 L1,4 L4,5 L3,9 L1,10 Z " fill="#7869C3" transform="translate(579,505)"/>
<path d="M0,0 L7,0 L7,2 L-1,3 Z " fill="#6457A4" transform="translate(457,421)"/>
<path d="M0,0 L7,1 L7,3 L0,4 Z " fill="#493E78" transform="translate(421,360)"/>
<path d="M0,0 L2,1 L2,6 L0,11 L-1,11 L-1,4 Z " fill="#18103D" transform="translate(607,324)"/>
<path d="M0,0 L2,0 L2,5 L-4,5 L-4,3 L0,3 Z " fill="#4D4479" transform="translate(509,678)"/>
<path d="M0,0 L1,3 L3,3 L3,1 L6,1 L6,3 L9,4 L0,4 Z " fill="#7E73B7" transform="translate(415,616)"/>
<path d="M0,0 L2,1 L3,7 L1,9 L-1,5 Z " fill="#8075B4" transform="translate(481,560)"/>
<path d="M0,0 L2,1 L0,2 Z M-1,2 L1,6 L-4,7 L-5,5 L-2,4 Z " fill="#7063B5" transform="translate(476,460)"/>
<path d="M0,0 L1,4 L5,6 L4,8 L1,8 L1,6 L-1,5 Z " fill="#3A325E" transform="translate(619,440)"/>
<path d="M0,0 Z M-6,1 L0,1 L-3,4 L-5,8 L-6,6 Z " fill="#574B8A" transform="translate(388,398)"/>
<path d="M0,0 L6,0 L6,5 L4,5 L4,2 L0,2 Z " fill="#463B78" transform="translate(575,391)"/>
<path d="M0,0 L5,0 L6,4 L0,3 Z " fill="#1A113D" transform="translate(386,253)"/>
<path d="M0,0 L4,1 L2,3 L-1,3 L-2,5 L-3,1 Z " fill="#484072" transform="translate(424,698)"/>
<path d="M0,0 L2,4 L0,8 L0,6 L-5,6 L-4,3 L-4,5 L0,5 Z " fill="#484071" transform="translate(404,681)"/>
<path d="M0,0 L1,0 L1,6 L-5,7 L-4,3 L-2,3 L-2,5 L0,5 Z " fill="#403764" transform="translate(627,632)"/>
<path d="M0,0 L6,2 L5,6 L3,7 L3,3 L0,2 Z " fill="#60588B" transform="translate(336,618)"/>
<path d="M0,0 L2,4 L0,10 L-1,10 L-1,1 Z " fill="#58497E" transform="translate(677,544)"/>
<path d="M0,0 L4,0 L4,4 L0,5 Z " fill="#7A6EB9" transform="translate(552,532)"/>
<path d="M0,0 L3,1 L7,3 L7,4 L1,4 Z " fill="#7C6FBD" transform="translate(406,496)"/>
<path d="M0,0 L2,0 L0,4 L-2,5 L-2,3 L-5,3 L-5,1 Z " fill="#473C77" transform="translate(352,382)"/>
<path d="M0,0 L4,2 L3,5 L0,5 Z " fill="#54457D" transform="translate(671,567)"/>
<path d="M0,0 L2,1 L2,7 L0,7 L0,4 L-2,4 Z " fill="#645B90" transform="translate(310,556)"/>
<path d="M0,0 L3,1 L3,6 L0,6 Z " fill="#6C5EAE" transform="translate(606,498)"/>
<path d="M0,0 L5,0 L5,2 L2,2 L2,5 L0,5 Z " fill="#4E4678" transform="translate(287,471)"/>
<path d="M0,0 L3,2 L2,6 L0,6 L-1,2 Z " fill="#463C6F" transform="translate(625,449)"/>
<path d="M0,0 L2,0 L2,4 L-4,4 L-4,2 L0,2 Z " fill="#181037" transform="translate(705,395)"/>
<path d="M0,0 L4,0 L4,4 L0,4 Z " fill="#140B36" transform="translate(637,373)"/>
<path d="M0,0 L2,0 L2,5 L-3,5 L-3,3 L0,3 Z " fill="#1C1343" transform="translate(391,264)"/>
<path d="M0,0 L2,1 L0,8 L-1,8 L-1,2 Z " fill="#514878" transform="translate(692,515)"/>
<path d="M0,0 L4,1 L3,6 L0,3 Z " fill="#4A4073" transform="translate(691,485)"/>
<path d="M0,0 L4,2 L3,4 L-2,4 L-3,1 Z " fill="#5F4F9B" transform="translate(475,410)"/>
<path d="M0,0 L4,1 L-1,4 L-3,6 L-2,2 L0,2 Z " fill="#50467C" transform="translate(342,401)"/>
<path d="M0,0 L3,1 L0,4 L-3,4 L-2,1 Z " fill="#494172" transform="translate(502,678)"/>
<path d="M0,0 L3,1 L2,3 L-7,2 L-7,1 Z " fill="#413963" transform="translate(369,670)"/>
<path d="M0,0 L5,1 L5,3 L0,3 Z " fill="#4B4373" transform="translate(364,665)"/>
<path d="M0,0 L1,0 L2,5 L4,6 L4,8 L0,7 Z " fill="#554D7C" transform="translate(308,601)"/>
<path d="M0,0 L3,1 L-1,6 L-2,2 Z " fill="#55487E" transform="translate(662,575)"/>
<path d="M0,0 L3,0 L2,5 L-1,5 Z " fill="#6A5F9F" transform="translate(322,512)"/>
<path d="M0,0 L5,0 L7,4 L3,4 L3,1 Z " fill="#7162B6" transform="translate(588,494)"/>
<path d="M0,0 L4,1 L-1,5 L-1,2 Z " fill="#63589D" transform="translate(385,425)"/>
<path d="M0,0 L4,0 L2,4 L1,2 L-3,1 Z " fill="#534A83" transform="translate(326,427)"/>
<path d="M0,0 L5,0 L0,5 L-2,4 Z " fill="#473C76" transform="translate(403,362)"/>
<path d="M0,0 L7,0 L6,3 L0,1 Z " fill="#19103D" transform="translate(562,275)"/>
<path d="M0,0 L4,1 L4,3 L0,4 Z " fill="#574F7E" transform="translate(304,598)"/>
<path d="M0,0 L4,1 L4,3 L0,4 L-1,1 Z M2,1 Z " fill="#655A9E" transform="translate(624,561)"/>
<path d="M0,0 L2,2 L2,6 L-1,6 Z " fill="#4E4774" transform="translate(276,531)"/>
<path d="M0,0 L8,0 L4,2 L1,3 Z " fill="#58498E" transform="translate(500,398)"/>
<path d="M0,0 L6,1 L4,3 L1,3 Z " fill="#484073" transform="translate(386,678)"/>
<path d="M0,0 L2,1 L2,5 L0,5 L-1,2 Z " fill="#5C5389" transform="translate(381,645)"/>
<path d="M0,0 L5,1 L3,3 L-1,2 Z " fill="#483B6F" transform="translate(674,588)"/>
<path d="M0,0 L2,0 L2,4 L-2,3 Z " fill="#7E73B8" transform="translate(414,508)"/>
<path d="M0,0 L4,1 L2,5 L2,3 L0,3 Z " fill="#635899" transform="translate(318,490)"/>
<path d="M0,0 L4,0 L4,4 L1,3 Z " fill="#6659AA" transform="translate(542,437)"/>
<path d="M0,0 L2,1 L2,4 L-2,3 L-2,1 Z " fill="#544986" transform="translate(354,408)"/>
<path d="M0,0 L4,0 L2,4 L0,3 Z " fill="#61509E" transform="translate(416,402)"/>
<path d="M0,0 L5,1 L4,3 L0,2 Z " fill="#483D77" transform="translate(437,361)"/>
<path d="M0,0 L3,0 L4,3 L2,4 L0,3 Z " fill="#190F3A" transform="translate(641,737)"/>
<path d="M0,0 L3,1 L3,4 L-2,3 L0,2 Z " fill="#5D5588" transform="translate(415,655)"/>
<path d="M0,0 L2,1 L0,5 L-3,3 L-1,3 Z " fill="#534A80" transform="translate(602,641)"/>
<path d="M0,0 L2,1 L2,6 L-1,3 Z " fill="#635A94" transform="translate(309,517)"/>
<path d="M0,0 L2,3 L1,6 L-1,6 Z " fill="#7F72BC" transform="translate(477,512)"/>
<path d="M0,0 L4,1 L4,3 L0,3 Z " fill="#7769C1" transform="translate(572,493)"/>
<path d="M0,0 L5,1 L6,3 L1,2 Z " fill="#776ABA" transform="translate(461,478)"/>
<path d="M0,0 L3,2 L0,4 L-3,3 Z " fill="#695EA4" transform="translate(352,463)"/>
<path d="M0,0 Z M-3,1 L0,2 L-5,5 Z " fill="#584B94" transform="translate(500,404)"/>
<path d="M0,0 L4,0 L3,3 L0,3 Z " fill="#574B92" transform="translate(489,404)"/>
<path d="M0,0 L3,0 L3,3 L1,3 L0,5 Z " fill="#110B29" transform="translate(353,286)"/>
<path d="M0,0 L4,0 L4,2 L0,4 Z " fill="#160F38" transform="translate(609,271)"/>
<path d="M0,0 L2,1 L1,5 L-1,1 Z " fill="#58507E" transform="translate(324,624)"/>
<path d="M0,0 L1,4 L-2,4 L-2,1 Z " fill="#585080" transform="translate(289,508)"/>
<path d="M0,0 L3,0 L2,4 L-1,3 Z " fill="#615796" transform="translate(316,496)"/>
<path d="M0,0 L3,2 L0,5 L-1,1 Z " fill="#7669BD" transform="translate(408,472)"/>
<path d="M0,0 L5,1 L2,3 L0,2 Z " fill="#685BB1" transform="translate(547,455)"/>
<path d="M0,0 L3,1 L-1,4 L-2,1 Z " fill="#64599D" transform="translate(372,433)"/>
<path d="M0,0 L2,0 L2,2 L4,3 L-1,3 Z " fill="#4F4486" transform="translate(564,408)"/>
<path d="M0,0 L3,0 L2,4 L1,2 L-1,1 Z " fill="#130B31" transform="translate(288,295)"/>
<path d="M0,0 L2,1 L2,3 L-4,3 Z " fill="#19103D" transform="translate(351,288)"/>
<path d="M0,0 L3,0 L3,3 L0,4 Z " fill="#0D0920" transform="translate(609,282)"/>
<path d="M0,0 L4,1 L3,3 L0,3 Z " fill="#0D0920" transform="translate(606,279)"/>
<path d="M0,0 L2,0 L1,4 L-1,4 Z " fill="#534C77" transform="translate(310,621)"/>
<path d="M0,0 L3,1 L2,3 L-1,3 Z " fill="#534B78" transform="translate(304,616)"/>
<path d="M0,0 L1,2 L3,3 L-1,4 Z " fill="#4A4170" transform="translate(692,555)"/>
<path d="M0,0 L3,0 L3,2 L-1,3 Z " fill="#1B1240" transform="translate(339,289)"/>
<path d="M0,0 L3,0 L2,3 L0,3 Z " fill="#473F70" transform="translate(396,681)"/>
<path d="M0,0 L3,0 L2,3 L0,3 Z " fill="#685DA3" transform="translate(384,434)"/>
<path d="M0,0 L2,1 L1,4 L-1,3 Z " fill="#1A1141" transform="translate(542,289)"/>
<path d="M0,0 L2,2 L0,5 L-1,1 Z " fill="#5B5387" transform="translate(365,644)"/>
<path d="M0,0 L2,0 L0,4 L-1,1 Z " fill="#463D69" transform="translate(659,600)"/>
<path d="M0,0 L3,0 L2,3 L0,2 Z " fill="#514279" transform="translate(672,569)"/>
<path d="M0,0 L3,3 L0,3 Z " fill="#4E4382" transform="translate(568,405)"/>
</svg>
