<?xml version="1.0" encoding="utf-8" ?>
<svg baseProfile="tiny" height="512px" version="1.2" viewBox="0,0,512,512" width="512px" xmlns="http://www.w3.org/2000/svg" xmlns:ev="http://www.w3.org/2001/xml-events" xmlns:xlink="http://www.w3.org/1999/xlink"><defs /><polygon fill="none" points="104,257 105,268 111,271 108,271 105,265 109,260 116,265 120,261 124,261 125,264 126,260 114,263 107,255" stroke="#00E5FF" stroke-width="1.2" /><polygon fill="none" points="399,12 400,16 407,20 407,24 417,16 422,18 422,22 417,26 413,24 418,26 422,23 421,16 416,16 408,23 408,19 403,18" stroke="#00E5FF" stroke-width="1.2" /><polygon fill="none" points="456,489 460,498 469,507 483,510 470,507" stroke="#00E5FF" stroke-width="1.2" /><polygon fill="none" points="143,58 148,64 143,58 140,66 147,82 151,83 153,79 150,73 153,81 148,82 146,72 140,65" stroke="#00E5FF" stroke-width="1.2" /></svg>