<?xml version="1.0" encoding="UTF-8"?>
<!-- Generator: visioncortex VTracer 0.6.4 -->
<svg version="1.1" xmlns="http://www.w3.org/2000/svg" width="1024" height="1024">
<path d="M0,0 L1024,0 L1024,1024 L0,1024 Z " fill="#000000" transform="translate(0,0)"/>
<path d="M0,0 L30,0 L30,2 L42,2 L42,4 L50,4 L50,6 L54,6 L54,8 L58,8 L58,10 L62,10 L64,13 L68,14 L68,16 L74,16 L76,19 L80,20 L80,22 L84,22 L86,25 L90,26 L90,28 L94,28 L94,30 L98,30 L98,32 L102,32 L104,35 L110,36 L110,38 L114,38 L121,46 L126,48 L126,52 L130,52 L134,57 L136,58 L136,62 L140,64 L140,66 L142,66 L142,70 L144,70 L144,72 L146,72 L146,80 L148,80 L148,84 L150,84 L150,88 L152,88 L152,94 L154,94 L154,100 L156,100 L156,102 L158,102 L158,108 L160,108 L164,113 L166,114 L166,118 L168,118 L168,122 L170,122 L170,126 L172,126 L172,128 L174,128 L174,132 L176,132 L176,136 L178,136 L178,144 L180,144 L180,146 L182,146 L182,154 L184,154 L184,158 L186,158 L186,164 L188,164 L188,168 L190,168 L190,176 L192,176 L192,178 L194,178 L194,184 L196,184 L196,192 L198,192 L198,194 L200,194 L200,204 L202,204 L202,212 L204,212 L204,216 L206,216 L206,226 L208,226 L208,230 L210,230 L210,242 L212,242 L212,252 L214,252 L214,296 L212,296 L212,304 L210,304 L210,308 L208,308 L208,314 L206,314 L206,322 L204,322 L204,328 L202,328 L202,342 L200,342 L200,348 L198,348 L198,352 L196,352 L196,356 L194,356 L194,360 L192,360 L192,362 L190,362 L190,366 L188,366 L188,368 L186,368 L186,372 L182,372 L182,374 L178,374 L178,376 L174,380 L170,380 L170,382 L168,382 L168,384 L166,384 L166,386 L160,386 L160,388 L154,388 L154,390 L142,390 L142,392 L126,392 L126,394 L104,394 L104,392 L98,392 L98,390 L90,390 L90,388 L86,388 L86,386 L82,386 L82,384 L74,384 L74,382 L69,381 L68,378 L63,377 L62,374 L56,374 L56,372 L48,372 L48,370 L30,370 L30,372 L14,372 L14,370 L4,370 L4,368 L-2,368 L-4,364 L-10,364 L-14,360 L-14,358 L-18,358 L-18,354 L-22,354 L-24,349 L-32,342 L-32,336 L-36,334 L-44,326 L-44,324 L-48,324 L-52,319 L-54,318 L-54,314 L-58,314 L-58,312 L-62,312 L-62,310 L-66,310 L-66,308 L-72,308 L-72,306 L-78,306 L-78,304 L-82,304 L-82,306 L-98,306 L-98,308 L-124,308 L-124,306 L-130,306 L-138,298 L-138,296 L-142,296 L-142,294 L-147,293 L-150,290 L-150,288 L-154,288 L-154,282 L-156,282 L-156,278 L-158,278 L-158,274 L-162,274 L-162,262 L-164,262 L-164,256 L-166,256 L-166,250 L-168,250 L-168,244 L-170,244 L-170,240 L-172,240 L-172,236 L-174,236 L-174,232 L-176,232 L-176,220 L-178,220 L-178,196 L-176,196 L-176,190 L-172,188 L-172,186 L-170,186 L-170,182 L-168,182 L-168,180 L-166,180 L-166,174 L-162,170 L-160,170 L-160,168 L-156,168 L-156,164 L-154,164 L-154,162 L-152,162 L-152,156 L-150,156 L-150,154 L-148,154 L-148,148 L-146,148 L-146,140 L-144,140 L-144,138 L-142,138 L-142,132 L-140,132 L-140,128 L-138,128 L-138,122 L-136,122 L-136,116 L-134,116 L-134,114 L-132,114 L-132,110 L-130,110 L-130,106 L-128,106 L-128,102 L-126,102 L-126,98 L-124,98 L-124,94 L-122,94 L-122,90 L-120,90 L-120,88 L-118,88 L-118,84 L-116,84 L-115,79 L-110,74 L-108,74 L-108,72 L-106,72 L-104,68 L-102,68 L-102,66 L-98,66 L-96,62 L-94,62 L-94,60 L-90,60 L-88,56 L-86,56 L-86,54 L-82,54 L-80,50 L-66,36 L-64,36 L-64,34 L-60,34 L-60,30 L-58,30 L-58,28 L-54,28 L-52,24 L-48,20 L-46,20 L-46,18 L-42,18 L-42,16 L-40,16 L-40,14 L-34,14 L-34,12 L-30,12 L-30,10 L-26,10 L-26,8 L-24,8 L-24,6 L-18,6 L-18,4 L-8,4 L-8,2 L0,2 Z " fill="#9DCB91" transform="translate(548,366)"/>
<path d="M0,0 L8,0 L8,2 L20,2 L20,4 L26,4 L26,6 L30,6 L32,9 L38,10 L38,12 L44,12 L44,14 L50,14 L50,16 L60,16 L60,18 L80,18 L80,20 L92,20 L92,22 L98,22 L98,24 L102,24 L104,27 L108,28 L110,31 L114,32 L116,35 L120,36 L122,39 L126,40 L126,42 L128,42 L128,40 L138,40 L140,43 L146,44 L146,46 L150,46 L156,53 L168,54 L174,61 L178,62 L180,65 L184,66 L186,69 L190,70 L192,73 L196,74 L196,76 L202,76 L202,82 L208,82 L208,84 L214,84 L214,86 L220,86 L220,88 L230,88 L230,90 L248,90 L248,88 L252,88 L252,84 L258,84 L258,82 L266,82 L268,78 L276,78 L276,76 L280,76 L280,74 L284,74 L284,72 L288,72 L288,68 L292,68 L292,66 L296,66 L296,64 L304,64 L304,62 L316,62 L316,60 L324,60 L324,58 L328,58 L328,54 L336,54 L336,52 L344,52 L344,54 L356,54 L356,52 L364,52 L364,50 L376,50 L376,52 L378,52 L378,50 L384,50 L384,52 L388,52 L388,50 L396,50 L396,54 L410,54 L410,60 L408,60 L408,62 L404,62 L404,66 L402,66 L402,68 L396,68 L396,70 L388,70 L388,72 L384,72 L384,74 L376,74 L376,78 L366,78 L366,80 L356,80 L356,82 L346,82 L346,84 L324,84 L324,86 L316,86 L316,88 L312,88 L312,90 L302,90 L302,92 L298,92 L298,94 L292,94 L292,96 L290,96 L290,98 L286,102 L280,102 L280,104 L276,104 L276,106 L268,106 L268,108 L264,108 L264,110 L228,110 L228,108 L220,108 L220,106 L210,106 L210,104 L206,104 L206,102 L200,102 L198,98 L192,98 L190,94 L186,94 L186,92 L181,91 L180,88 L176,88 L176,86 L172,86 L172,84 L167,83 L166,80 L162,80 L162,78 L158,78 L158,76 L153,75 L152,72 L148,72 L148,70 L143,69 L142,66 L138,66 L138,64 L132,64 L132,62 L128,62 L124,58 L124,54 L120,54 L120,52 L116,52 L116,50 L112,50 L112,46 L108,44 L106,40 L101,39 L98,36 L98,34 L92,34 L92,32 L88,32 L88,30 L78,30 L78,28 L56,28 L56,26 L46,26 L46,24 L40,24 L40,22 L36,22 L36,18 L26,18 L26,16 L20,16 L20,14 L16,14 L16,12 L8,12 L8,10 L4,10 L4,6 L0,6 Z " fill="#1E4613" transform="translate(374,784)"/>
<path d="M0,0 L30,0 L30,2 L42,2 L42,4 L50,4 L50,6 L54,6 L54,8 L58,8 L58,10 L62,10 L64,13 L68,14 L68,16 L74,16 L76,19 L80,20 L80,22 L84,22 L86,25 L90,26 L90,28 L94,28 L94,30 L98,30 L98,32 L102,32 L104,35 L110,36 L110,38 L114,38 L121,46 L126,48 L126,52 L130,52 L134,57 L136,58 L136,62 L140,64 L140,66 L142,66 L142,70 L144,70 L144,72 L146,72 L146,80 L148,80 L148,84 L150,84 L150,88 L152,88 L152,94 L154,94 L154,100 L156,100 L156,102 L158,102 L158,108 L160,108 L164,113 L166,114 L166,118 L168,118 L168,122 L170,122 L170,126 L172,126 L172,128 L174,128 L174,132 L176,132 L176,136 L178,136 L178,144 L180,144 L180,146 L182,146 L182,154 L184,154 L184,158 L186,158 L186,164 L188,164 L188,168 L190,168 L190,176 L192,176 L192,178 L194,178 L194,184 L196,184 L196,192 L198,192 L198,194 L200,194 L200,204 L202,204 L202,212 L204,212 L204,216 L206,216 L206,226 L208,226 L208,230 L210,230 L210,242 L212,242 L212,252 L214,252 L214,296 L212,296 L212,304 L210,304 L210,308 L208,308 L208,314 L206,314 L206,322 L204,322 L204,328 L202,328 L202,342 L200,342 L200,348 L198,348 L198,352 L196,352 L196,356 L194,356 L194,360 L192,360 L192,362 L190,362 L190,366 L188,366 L188,368 L186,368 L186,372 L182,372 L182,374 L178,374 L178,376 L174,380 L170,380 L170,382 L168,382 L168,384 L166,384 L166,386 L160,386 L160,388 L154,388 L154,390 L142,390 L142,392 L126,392 L126,394 L104,394 L104,392 L98,392 L98,390 L90,390 L90,388 L86,388 L86,386 L82,386 L82,384 L74,384 L74,382 L69,381 L68,378 L63,377 L62,374 L56,374 L56,372 L48,372 L48,370 L30,370 L30,372 L14,372 L14,370 L4,370 L4,368 L-2,368 L-4,364 L-10,364 L-14,360 L-14,358 L-18,358 L-18,354 L-22,354 L-24,349 L-32,342 L-32,336 L-36,334 L-44,326 L-44,324 L-48,324 L-52,319 L-54,318 L-54,314 L-58,314 L-58,312 L-62,312 L-62,310 L-66,310 L-66,308 L-72,308 L-72,306 L-78,306 L-78,304 L-82,304 L-82,306 L-98,306 L-98,308 L-124,308 L-124,306 L-130,306 L-138,298 L-138,296 L-142,296 L-142,294 L-147,293 L-150,290 L-150,288 L-154,288 L-154,282 L-156,282 L-156,278 L-158,278 L-158,274 L-162,274 L-162,262 L-164,262 L-164,256 L-166,256 L-166,250 L-168,250 L-168,244 L-170,244 L-170,240 L-172,240 L-172,236 L-174,236 L-174,232 L-176,232 L-176,220 L-178,220 L-178,196 L-176,196 L-176,190 L-172,188 L-172,186 L-170,186 L-170,182 L-168,182 L-168,180 L-166,180 L-166,174 L-162,170 L-160,170 L-160,168 L-156,168 L-156,164 L-154,164 L-154,162 L-152,162 L-152,156 L-150,156 L-150,154 L-148,154 L-148,148 L-146,148 L-146,140 L-144,140 L-144,138 L-142,138 L-142,132 L-140,132 L-140,128 L-138,128 L-138,122 L-136,122 L-136,116 L-134,116 L-134,114 L-132,114 L-132,110 L-130,110 L-130,106 L-128,106 L-128,102 L-126,102 L-126,98 L-124,98 L-124,94 L-122,94 L-122,90 L-120,90 L-120,88 L-118,88 L-118,84 L-116,84 L-115,79 L-110,74 L-108,74 L-108,72 L-106,72 L-104,68 L-102,68 L-102,66 L-98,66 L-96,62 L-94,62 L-94,60 L-90,60 L-88,56 L-86,56 L-86,54 L-82,54 L-80,50 L-66,36 L-64,36 L-64,34 L-60,34 L-60,30 L-58,30 L-58,28 L-54,28 L-52,24 L-48,20 L-46,20 L-46,18 L-42,18 L-42,16 L-40,16 L-40,14 L-34,14 L-34,12 L-30,12 L-30,10 L-26,10 L-26,8 L-24,8 L-24,6 L-18,6 L-18,4 L-8,4 L-8,2 L0,2 Z M1,5 L-5,7 L-15,8 L-19,10 L-23,12 L-29,16 L-35,18 L-42,21 L-42,23 L-46,25 L-50,30 L-49,31 L-52,32 L-52,36 L-38,37 L-51,37 L-52,42 L-56,43 L-58,45 L-58,49 L-62,50 L-71,54 L-77,54 L-88,62 L-102,73 L-112,83 L-120,97 L-123,104 L-126,113 L-129,116 L-130,127 L-135,130 L-137,134 L-136,138 L-140,140 L-144,151 L-152,167 L-162,177 L-166,186 L-172,193 L-173,200 L-172,210 L-174,210 L-174,217 L-172,225 L-171,231 L-165,243 L-160,259 L-158,265 L-157,272 L-154,273 L-152,279 L-149,285 L-149,289 L-146,288 L-136,294 L-131,299 L-124,299 L-123,303 L-121,304 L-101,304 L-96,302 L-96,299 L-84,301 L-77,301 L-61,307 L-57,309 L-54,310 L-53,309 L-53,311 L-51,311 L-49,317 L-43,321 L-41,321 L-38,326 L-29,335 L-26,342 L-19,348 L-18,351 L-16,351 L-16,353 L-7,360 L1,363 L5,362 L5,365 L10,366 L9,363 L14,362 L14,364 L24,364 L25,363 L46,363 L50,362 L50,364 L54,364 L54,366 L56,366 L57,369 L64,372 L69,375 L77,380 L85,381 L90,380 L90,382 L98,384 L105,384 L107,382 L112,383 L113,380 L115,379 L128,377 L134,377 L139,374 L150,373 L152,373 L154,374 L160,372 L161,370 L168,369 L168,366 L169,368 L172,368 L172,365 L177,364 L177,362 L180,362 L180,360 L183,360 L185,353 L189,352 L188,343 L189,341 L187,338 L183,340 L183,329 L180,329 L180,318 L182,318 L183,313 L180,306 L185,307 L185,311 L192,310 L192,312 L195,313 L196,310 L199,309 L199,305 L204,304 L204,297 L205,303 L207,303 L209,293 L209,253 L208,243 L207,242 L206,232 L203,227 L202,218 L199,217 L198,210 L197,210 L196,196 L193,195 L193,193 L188,191 L188,179 L186,179 L185,177 L184,178 L182,162 L181,162 L180,157 L178,158 L177,161 L177,147 L173,145 L174,139 L172,139 L171,133 L168,128 L166,125 L164,125 L163,119 L161,115 L159,115 L157,111 L155,111 L154,104 L152,101 L150,101 L150,96 L146,87 L144,87 L143,81 L142,74 L139,73 L138,69 L137,67 L134,67 L133,63 L132,61 L130,61 L129,58 L125,57 L123,53 L122,56 L113,57 L112,46 L110,45 L109,41 L101,38 L98,37 L97,35 L95,35 L95,33 L97,33 L97,31 L91,32 L82,27 L82,29 L80,29 L79,25 L77,24 L79,23 L79,21 L74,22 L62,16 L55,12 L57,11 L57,9 L53,9 L53,7 L42,7 L33,6 L27,5 Z M85,28 Z M-174,200 Z M183,310 Z M-17,353 Z M10,364 Z M-67,53 Z M-68,54 Z M186,344 Z " fill="#84A479" transform="translate(548,366)"/>
<path d="M0,0 L1,0 L2,7 L-3,5 L-3,9 L-7,9 L-7,11 L-5,12 L-9,16 L-11,19 L-12,24 L-18,26 L-24,30 L-37,40 L-47,49 L-52,55 L-59,67 L-62,74 L-65,83 L-68,86 L-69,97 L-75,101 L-75,104 L-76,108 L-80,112 L-85,126 L-91,137 L-101,147 L-105,156 L-111,163 L-112,170 L-112,180 L-114,180 L-111,195 L-110,201 L-104,213 L-99,229 L-97,235 L-96,242 L-93,245 L-88,255 L-89,259 L-87,259 L-86,257 L-76,263 L-71,268 L-64,268 L-62,270 L-64,270 L-61,273 L-41,273 L-36,272 L-36,269 L-28,269 L-24,270 L-17,270 L-1,276 L2,276 L5,279 L7,277 L8,279 L7,281 L9,281 L13,288 L19,290 L21,294 L32,305 L35,312 L42,318 L42,321 L44,321 L44,323 L48,325 L53,329 L61,332 L65,332 L65,335 L69,335 L69,333 L74,332 L74,334 L84,333 L85,332 L110,332 L110,334 L114,334 L114,336 L116,336 L119,339 L124,341 L128,342 L133,347 L137,349 L150,350 L150,352 L165,353 L168,350 L168,353 L172,352 L184,352 L186,353 L209,353 L212,354 L216,352 L225,352 L225,353 L220,353 L220,355 L226,355 L226,356 L220,356 L220,358 L214,358 L214,360 L202,360 L202,362 L186,362 L186,364 L164,364 L164,362 L158,362 L158,360 L150,360 L150,358 L146,358 L146,356 L142,356 L142,354 L134,354 L134,352 L129,351 L128,348 L123,347 L122,344 L116,344 L116,342 L108,342 L108,340 L90,340 L90,342 L74,342 L74,340 L64,340 L64,338 L58,338 L56,334 L50,334 L46,330 L46,328 L42,328 L42,324 L38,324 L36,319 L28,312 L28,306 L24,304 L16,296 L16,294 L12,294 L8,289 L6,288 L6,284 L2,284 L2,282 L-2,282 L-2,280 L-6,280 L-6,278 L-12,278 L-12,276 L-18,276 L-18,274 L-22,274 L-22,276 L-38,276 L-38,278 L-64,278 L-64,276 L-70,276 L-78,268 L-78,266 L-82,266 L-82,264 L-87,263 L-90,260 L-90,258 L-94,258 L-94,252 L-96,252 L-96,248 L-98,248 L-98,244 L-102,244 L-102,232 L-104,232 L-104,226 L-106,226 L-106,220 L-108,220 L-108,214 L-110,214 L-110,210 L-112,210 L-112,206 L-114,206 L-114,202 L-116,202 L-116,190 L-118,190 L-118,166 L-116,166 L-116,160 L-112,158 L-112,156 L-110,156 L-110,152 L-108,152 L-108,150 L-106,150 L-106,144 L-102,140 L-100,140 L-100,138 L-96,138 L-96,134 L-94,134 L-94,132 L-92,132 L-92,126 L-90,126 L-90,124 L-88,124 L-88,118 L-86,118 L-86,110 L-84,110 L-84,108 L-82,108 L-82,102 L-80,102 L-80,98 L-78,98 L-78,92 L-76,92 L-76,86 L-74,86 L-74,84 L-72,84 L-72,80 L-70,80 L-70,76 L-68,76 L-68,72 L-66,72 L-66,68 L-64,68 L-64,64 L-62,64 L-62,60 L-60,60 L-60,58 L-58,58 L-58,54 L-56,54 L-55,49 L-50,44 L-48,44 L-48,42 L-46,42 L-44,38 L-42,38 L-42,36 L-38,36 L-36,32 L-34,32 L-34,30 L-30,30 L-28,26 L-26,26 L-26,24 L-22,24 L-20,20 L-6,6 L-4,6 L-4,4 L0,4 Z M-114,170 Z M43,323 Z M70,334 Z " fill="#80AE75" transform="translate(488,396)"/>
<path d="M0,0 L6,0 L6,20 L8,20 L8,124 L10,124 L10,146 L12,146 L12,184 L10,184 L10,196 L8,196 L8,202 L6,202 L6,214 L4,214 L4,222 L2,222 L2,228 L0,228 L0,234 L-2,234 L-2,238 L-4,238 L-4,242 L-6,242 L-6,248 L-8,248 L-8,252 L-10,252 L-10,256 L-12,256 L-12,260 L-14,260 L-14,266 L-16,266 L-16,268 L-19,270 L-20,276 L-26,276 L-26,260 L-24,260 L-24,256 L-22,256 L-22,252 L-20,252 L-20,240 L-18,240 L-18,236 L-16,236 L-16,232 L-14,232 L-14,228 L-12,228 L-12,226 L-10,226 L-10,218 L-8,218 L-8,212 L-6,212 L-6,208 L-4,208 L-4,202 L0,202 L0,194 L2,194 L2,188 L4,188 L4,172 L6,172 L6,158 L0,158 L0,152 L6,152 L6,148 L4,148 L4,136 L0,136 L0,112 L-2,112 L-2,50 L-4,50 L-4,36 L0,36 L0,28 L2,28 L2,22 L0,22 L0,8 L-2,8 L-2,2 L0,2 Z " fill="#1A4114" transform="translate(860,490)"/>
<path d="M0,0 L4,0 L4,43 L3,51 L1,51 L1,55 L-1,55 L-1,61 L-3,61 L-3,69 L-5,69 L-5,75 L-7,75 L-7,89 L-9,89 L-9,95 L-11,95 L-11,99 L-13,99 L-13,103 L-15,103 L-15,107 L-17,107 L-17,109 L-19,109 L-19,113 L-21,113 L-21,115 L-23,115 L-23,119 L-27,119 L-27,121 L-31,121 L-31,123 L-35,127 L-39,127 L-39,129 L-41,129 L-41,131 L-43,132 L-49,132 L-50,130 L-55,130 L-58,132 L-65,131 L-84,131 L-85,130 L-96,129 L-95,125 L-84,124 L-75,123 L-70,120 L-59,119 L-57,118 L-55,120 L-49,119 L-48,116 L-41,116 L-41,113 L-37,115 L-37,112 L-33,111 L-32,109 L-29,109 L-29,107 L-26,107 L-25,100 L-20,99 L-22,90 L-21,88 L-22,86 L-26,88 L-27,88 L-27,81 L-26,76 L-29,76 L-29,65 L-27,65 L-28,58 L-29,58 L-29,53 L-26,52 L-23,54 L-23,57 L-17,57 L-17,59 L-14,59 L-11,56 L-10,52 L-5,51 L-7,40 L-5,39 L-4,41 L-4,50 L-2,50 L-1,40 L-1,6 Z M-26,57 Z M-23,91 Z " fill="#81B177" transform="translate(757,619)"/>
<path d="M0,0 L1,0 L1,5 L6,4 L5,7 L7,7 L8,5 L18,11 L23,16 L30,16 L32,18 L30,18 L33,21 L53,21 L58,20 L58,17 L66,17 L70,18 L77,18 L93,24 L96,24 L99,27 L101,25 L102,27 L101,29 L103,29 L107,36 L113,38 L115,42 L126,53 L129,60 L136,66 L136,69 L138,69 L138,71 L142,73 L147,77 L155,80 L159,80 L159,83 L172,83 L171,86 L183,86 L184,84 L184,87 L202,87 L202,88 L184,88 L184,90 L168,90 L168,88 L158,88 L158,86 L152,86 L150,82 L144,82 L140,78 L140,76 L136,76 L136,72 L132,72 L130,67 L122,60 L122,54 L118,52 L110,44 L110,42 L106,42 L102,37 L100,36 L100,32 L96,32 L96,30 L92,30 L92,28 L88,28 L88,26 L82,26 L82,24 L76,24 L76,22 L72,22 L72,24 L56,24 L56,26 L30,26 L30,24 L24,24 L16,16 L16,14 L12,14 L12,12 L7,11 L4,8 L4,6 L0,6 Z M137,71 Z " fill="#6E9E65" transform="translate(394,648)"/>
<path d="M0,0 L12,0 L12,2 L14,2 L14,0 L20,0 L20,2 L24,2 L24,0 L32,0 L32,4 L46,4 L46,10 L44,10 L44,12 L40,12 L40,16 L38,16 L38,18 L32,18 L32,20 L24,20 L24,22 L20,22 L20,24 L12,24 L12,28 L2,28 L2,30 L-8,30 L-8,32 L-18,32 L-18,34 L-40,34 L-40,36 L-48,36 L-48,38 L-52,38 L-52,40 L-62,40 L-62,42 L-66,42 L-66,44 L-72,44 L-72,46 L-74,46 L-74,48 L-78,52 L-84,52 L-84,54 L-88,54 L-88,56 L-96,56 L-96,55 L-89,55 L-89,53 L-91,52 L-88,52 L-88,50 L-84,50 L-84,48 L-79,47 L-76,44 L-74,43 L-72,42 L-72,40 L-67,40 L-66,38 L-62,38 L-61,36 L-53,36 L-52,34 L-50,34 L-50,32 L-40,32 L-40,30 L-21,30 L-18,28 L-10,27 L-5,26 L11,27 L10,22 L10,3 L11,1 L0,1 Z " fill="#1A4314" transform="translate(738,834)"/>
<path d="M0,0 L1,4 L3,4 L3,6 L5,6 L5,10 L7,10 L7,14 L9,14 L9,22 L11,22 L11,24 L13,24 L13,32 L15,32 L15,36 L17,36 L17,42 L19,42 L19,46 L21,46 L21,54 L23,54 L23,56 L25,56 L25,62 L27,62 L27,70 L29,70 L29,72 L31,72 L31,82 L33,82 L33,90 L35,90 L35,94 L37,94 L37,104 L39,104 L39,108 L41,108 L41,120 L43,120 L43,130 L45,130 L45,174 L44,174 L44,131 L42,131 L41,133 L41,131 L39,131 L38,121 L37,120 L36,110 L33,105 L32,97 L29,97 L29,91 L27,89 L26,74 L24,73 L24,71 L19,69 L18,71 L19,57 L15,57 L14,57 L12,41 L11,41 L11,35 L8,40 L7,40 L7,27 L8,25 L3,24 L5,17 L3,17 L-1,7 L-3,3 L0,4 Z " fill="#76A468" transform="translate(717,488)"/>
<path d="M0,0 L6,0 L8,3 L12,4 L12,6 L16,6 L18,9 L22,10 L22,12 L26,12 L26,14 L30,14 L30,16 L34,16 L36,19 L42,20 L42,22 L46,22 L53,30 L58,32 L58,36 L62,36 L66,41 L68,42 L68,46 L72,48 L72,50 L74,50 L74,54 L76,54 L76,56 L78,56 L78,64 L80,64 L80,68 L82,68 L82,72 L84,72 L84,78 L86,78 L86,84 L88,84 L88,86 L90,86 L90,92 L92,92 L96,97 L98,98 L98,102 L100,102 L101,110 L96,109 L93,99 L91,99 L86,93 L84,85 L82,85 L79,74 L78,71 L76,71 L74,65 L73,58 L71,57 L69,51 L66,51 L64,45 L62,45 L59,42 L56,39 L54,41 L52,40 L51,42 L45,41 L44,37 L44,30 L41,29 L41,26 L34,24 L29,21 L29,19 L27,19 L27,17 L29,17 L29,15 L23,17 L15,12 L12,13 L11,10 L8,7 L11,7 L11,5 L6,7 L0,4 L0,3 L5,3 L5,1 L0,1 Z M17,12 Z " fill="#7BA071" transform="translate(616,382)"/>
<path d="M0,0 L8,0 L8,4 L10,4 L10,8 L14,10 L22,18 L22,20 L26,20 L26,22 L30,22 L30,24 L34,24 L34,26 L38,26 L38,28 L42,28 L42,30 L48,30 L48,32 L52,32 L52,38 L48,38 L48,42 L42,42 L40,38 L34,38 L34,36 L30,36 L30,34 L24,34 L22,30 L16,30 L16,26 L12,24 L12,22 L8,22 L4,18 L4,14 L-1,13 L-2,10 L-6,10 L-6,8 L-8,8 L-8,2 L-2,2 L-2,4 L0,4 Z " fill="#1E4114" transform="translate(274,708)"/>
<path d="M0,0 L8,0 L8,2 L20,2 L20,4 L26,4 L26,6 L30,6 L32,9 L38,10 L38,12 L44,12 L44,14 L50,14 L50,15 L44,15 L44,17 L48,18 L46,18 L46,20 L48,20 L47,25 L54,22 L59,24 L78,24 L78,28 L56,28 L56,26 L46,26 L46,24 L40,24 L40,22 L36,22 L36,18 L26,18 L26,16 L20,16 L20,14 L16,14 L16,12 L8,12 L8,10 L4,10 L4,6 L0,6 Z " fill="#1E4014" transform="translate(374,784)"/>
<path d="M0,0 L1,3 L4,3 L3,0 L5,0 L5,3 L27,2 L31,1 L32,4 L55,3 L58,0 L59,2 L66,2 L71,5 L72,3 L77,4 L79,4 L79,6 L82,7 L84,10 L83,12 L76,14 L74,12 L73,13 L62,14 L59,15 L59,13 L56,12 L56,10 L59,10 L59,7 L55,9 L49,14 L38,14 L38,12 L47,12 L47,10 L51,9 L29,9 L17,8 L16,7 L0,6 L-1,1 Z " fill="#92C486" transform="translate(625,726)"/>
<path d="M0,0 L13,1 L13,2 L5,2 L5,4 L1,4 L1,6 L-7,6 L-7,10 L-17,10 L-17,12 L-27,12 L-27,14 L-37,14 L-37,16 L-59,16 L-59,18 L-67,18 L-67,20 L-71,20 L-71,22 L-81,22 L-81,24 L-85,24 L-85,26 L-91,26 L-91,28 L-93,28 L-93,30 L-97,34 L-103,34 L-103,36 L-107,36 L-107,38 L-115,38 L-115,37 L-108,37 L-108,35 L-110,34 L-107,34 L-107,32 L-103,32 L-103,30 L-98,29 L-95,26 L-93,25 L-91,24 L-91,22 L-86,22 L-85,20 L-81,20 L-80,18 L-72,18 L-71,16 L-69,16 L-69,14 L-59,14 L-59,12 L-40,12 L-37,10 L-29,9 L-24,8 L-8,9 L-8,5 L0,5 L0,3 L-2,2 Z " fill="#143A0B" transform="translate(757,852)"/>
<path d="M0,0 L1,0 L1,6 L-1,6 L-1,10 L-3,10 L-3,14 L-5,14 L-5,20 L-7,20 L-7,24 L-9,24 L-9,28 L-11,28 L-11,32 L-13,32 L-13,38 L-15,38 L-15,40 L-18,42 L-19,48 L-25,48 L-25,32 L-23,32 L-23,28 L-21,28 L-21,24 L-19,24 L-19,12 L-18,12 L-18,24 L-12,20 L-11,17 L-9,17 L-8,14 L-8,19 L-6,19 L-8,10 L-4,6 L-4,9 L-2,9 L-3,2 L-2,5 L0,5 Z " fill="#163D12" transform="translate(859,718)"/>
<path d="M0,0 L1,0 L1,5 L6,4 L5,7 L7,7 L8,5 L18,11 L23,16 L30,16 L32,18 L30,18 L33,21 L53,21 L54,20 L71,20 L71,21 L56,21 L56,23 L72,23 L72,24 L56,24 L56,26 L30,26 L30,24 L24,24 L16,16 L16,14 L12,14 L12,12 L7,11 L4,8 L4,6 L0,6 Z " fill="#72A06A" transform="translate(394,648)"/>
<path d="M0,0 L4,2 L4,5 L10,5 L10,7 L12,7 L11,12 L10,21 L8,25 L7,33 L2,36 L0,36 L0,29 L1,24 L-2,24 L-2,13 L0,13 L-1,6 L-2,6 L-2,1 Z M1,5 Z " fill="#8BBD80" transform="translate(730,671)"/>
<path d="M0,0 L1,0 L1,14 L-1,14 L-1,20 L-3,20 L-3,24 L-5,24 L-5,28 L-7,28 L-7,32 L-9,32 L-9,34 L-11,34 L-11,38 L-13,38 L-13,40 L-15,40 L-15,44 L-19,44 L-19,46 L-23,46 L-23,48 L-27,52 L-31,52 L-31,54 L-33,54 L-34,56 L-35,53 L-32,53 L-33,50 L-28,51 L-28,49 L-30,48 L-28,46 L-27,42 L-24,42 L-23,39 L-21,39 L-21,37 L-18,34 L-16,34 L-15,31 L-12,31 L-13,20 L-11,20 L-11,18 L-8,19 L-5,13 L-3,13 L-2,11 L-2,13 L0,13 Z " fill="#73A36B" transform="translate(749,694)"/>
<path d="M0,0 L1,0 L2,7 L-3,5 L-3,9 L-7,9 L-7,11 L-5,12 L-9,16 L-11,19 L-12,24 L-18,26 L-24,30 L-37,40 L-43,45 L-45,45 L-45,43 L-47,43 L-47,45 L-49,45 L-49,47 L-47,48 L-49,48 L-49,50 L-55,50 L-50,44 L-48,44 L-48,42 L-46,42 L-44,38 L-42,38 L-42,36 L-38,36 L-36,32 L-34,32 L-34,30 L-30,30 L-28,26 L-26,26 L-26,24 L-22,24 L-20,20 L-6,6 L-4,6 L-4,4 L0,4 Z " fill="#80A675" transform="translate(488,396)"/>
<path d="M0,0 L1,0 L1,5 L3,5 L3,0 L4,0 L4,6 L2,6 L2,14 L0,14 L0,20 L-3,20 L-3,33 L-8,34 L-11,40 L-12,38 L-14,38 L-14,40 L-16,40 L-17,35 L-14,34 L-14,32 L-12,32 L-12,20 L-8,14 L-6,13 L-5,6 L-2,6 L-1,3 Z M-7,10 Z M-18,36 Z " fill="#7FB277" transform="translate(752,674)"/>
<path d="M0,0 L5,0 L6,4 L13,4 L13,6 L22,5 L25,6 L25,13 L14,13 L13,14 L0,14 L0,10 L-6,10 L-15,8 L-14,6 L-7,5 L-3,4 L-3,6 L0,6 L1,3 L-1,1 Z " fill="#90B885" transform="translate(635,406)"/>
<path d="M0,0 L2,0 L2,2 L12,1 L13,0 L38,0 L38,2 L42,2 L42,4 L44,4 L47,7 L50,8 L50,11 L36,10 L36,7 L18,7 L17,6 L5,6 L5,4 L-2,4 L-3,1 Z M-2,2 Z " fill="#7CAF71" transform="translate(560,728)"/>
<path d="M0,0 L6,0 L6,20 L8,20 L8,124 L7,124 L7,21 L3,22 L3,28 L2,28 L2,22 L0,22 L0,8 L-2,8 L-2,2 L0,2 Z " fill="#13310E" transform="translate(860,490)"/>
<path d="M0,0 L1,4 L3,4 L3,6 L5,6 L5,10 L7,10 L7,14 L9,14 L9,22 L11,22 L11,24 L13,24 L13,32 L15,32 L15,36 L17,36 L17,42 L16,42 L16,37 L14,37 L14,42 L11,41 L11,35 L8,40 L7,40 L7,27 L8,25 L3,24 L5,17 L3,17 L-1,7 L-3,3 L0,4 Z " fill="#739C67" transform="translate(717,488)"/>
<path d="M0,0 L1,0 L1,6 L3,6 L3,1 L4,1 L4,7 L1,12 L-2,22 L-9,35 L-19,45 L-21,48 L-21,43 L-23,43 L-23,48 L-24,48 L-24,42 L-20,38 L-18,38 L-18,36 L-14,36 L-14,32 L-12,32 L-12,30 L-10,30 L-10,24 L-8,24 L-8,22 L-6,22 L-6,16 L-4,16 L-4,8 L-2,8 L-2,6 L0,6 Z " fill="#739769" transform="translate(406,498)"/>
<path d="M0,0 L4,1 L7,2 L11,1 L27,1 L25,3 L12,3 L11,7 L6,10 L5,14 L-3,18 L-9,20 L-9,14 L-4,6 L-4,4 L0,4 Z M-4,18 Z M-5,19 Z " fill="#87AF7D" transform="translate(485,401)"/>
<path d="M0,0 L2,2 L3,11 L6,12 L6,16 L4,16 L4,21 L-4,22 L-4,29 L-7,30 L-9,34 L-10,40 L-11,48 L-13,48 L-14,50 L-15,46 L-14,37 L-12,34 L-11,25 L-7,18 L-5,17 L-4,13 L1,12 L-1,1 Z M-6,26 Z " fill="#82B47A" transform="translate(751,658)"/>
<path d="M0,0 L6,0 L6,4 L8,4 L8,8 L10,8 L10,16 L12,16 L12,28 L6,28 L6,22 L4,22 L4,16 L2,16 L2,8 L0,8 Z " fill="#193B13" transform="translate(842,422)"/>
<path d="M0,0 L8,0 L8,4 L15,4 L18,6 L15,7 L17,9 L16,11 L23,10 L23,12 L29,12 L29,15 L33,17 L30,17 L30,19 L36,18 L41,20 L40,25 L45,24 L45,29 L43,28 L43,26 L39,26 L39,24 L34,23 L33,20 L29,20 L29,18 L25,18 L25,16 L20,15 L19,12 L15,12 L15,10 L11,10 L11,8 L6,7 L5,4 L1,4 L1,2 L-3,1 Z " fill="#153B0D" transform="translate(521,852)"/>
<path d="M0,0 L5,1 L12,2 L12,5 L25,5 L24,8 L36,8 L37,6 L37,9 L55,9 L55,10 L37,10 L37,12 L21,12 L21,10 L11,10 L11,8 L5,8 L3,6 L3,3 L-2,3 Z " fill="#78A96D" transform="translate(541,726)"/>
<path d="M0,0 L6,0 L8,3 L12,4 L12,6 L16,6 L18,9 L22,10 L22,12 L26,12 L26,14 L30,14 L30,16 L34,16 L36,19 L42,20 L42,22 L46,22 L47,25 L43,26 L45,25 L45,23 L36,25 L31,22 L29,21 L29,19 L27,19 L27,17 L29,17 L29,15 L23,17 L15,12 L12,13 L11,10 L8,7 L11,7 L11,5 L6,7 L0,4 L0,3 L5,3 L5,1 L0,1 Z M17,12 Z " fill="#7A9C70" transform="translate(616,382)"/>
<path d="M0,0 L4,0 L5,7 L6,9 L1,8 L0,10 L-2,10 L-3,13 L-5,13 L-5,15 L-8,18 L-11,18 L-12,23 L-12,27 L-17,26 L-18,25 L-30,24 L-29,22 L-22,20 L-19,18 L-14,17 L-13,13 L-9,12 L-8,10 L-5,10 L-5,8 L-2,8 L-1,1 Z " fill="#80B375" transform="translate(733,718)"/>
<path d="M0,0 L3,0 L4,2 L8,4 L12,8 L16,9 L16,14 L19,14 L19,16 L15,17 L14,16 L12,18 L10,17 L9,19 L3,18 L2,14 L2,7 L-1,6 L-1,3 L-3,1 Z " fill="#8AB27F" transform="translate(658,405)"/>
<path d="M0,0 L6,1 L8,1 L8,3 L11,4 L13,7 L12,9 L5,11 L3,9 L2,10 L-9,11 L-12,12 L-12,10 L-15,9 L-15,7 L-12,7 L-11,4 L-5,2 L-2,1 L0,2 Z " fill="#8EC083" transform="translate(696,729)"/>
<path d="M0,0 L2,0 L2,7 L-1,12 L-6,18 L-7,25 L-7,35 L-10,35 L-10,44 L-12,44 L-12,21 L-10,14 L-7,13 L-7,11 L-5,11 L-5,7 L-3,7 L-3,5 L0,5 Z M-9,25 Z " fill="#83AA78" transform="translate(383,541)"/>
<path d="M0,0 L4,1 L1,1 L1,3 L10,2 L19,2 L21,3 L21,5 L54,4 L58,6 L54,6 L54,8 L18,8 L18,6 L10,6 L10,4 L0,4 L0,2 L-4,1 Z M21,2 Z " fill="#1A3C11" transform="translate(584,886)"/>
<path d="M0,0 L5,2 L11,7 L15,9 L28,10 L28,15 L25,15 L25,17 L28,16 L36,16 L36,17 L29,17 L29,19 L36,19 L36,20 L28,20 L28,18 L24,18 L24,16 L20,16 L20,14 L12,14 L12,12 L7,11 L6,8 L1,7 L0,4 L-6,4 L-6,3 L0,3 Z " fill="#6D9963" transform="translate(610,736)"/>
<path d="M0,0 L4,2 L11,3 L8,7 L-22,7 L-38,6 L-38,4 L-42,3 L-30,2 L-26,1 L-25,4 L-2,3 Z " fill="#94C689" transform="translate(682,726)"/>
<path d="M0,0 L2,0 L2,36 L0,36 L0,25 L-2,25 L-2,11 L-9,11 L-9,5 L-2,5 L-2,1 Z " fill="#1A4214" transform="translate(869,637)"/>
<path d="M0,0 L7,0 L7,1 L1,1 L1,3 L13,3 L13,4 L1,4 L1,6 L-15,6 L-15,8 L-37,8 L-37,6 L-43,6 L-43,5 L-37,5 L-37,3 L-42,3 L-42,2 L-36,2 L-36,4 L-15,4 L0,5 L0,3 L-15,3 L-15,2 L-1,1 Z " fill="#729F69" transform="translate(689,752)"/>
<path d="M0,0 L1,0 L1,23 L3,23 L3,14 L4,14 L7,29 L8,35 L13,45 L13,47 L9,47 L9,44 L6,44 L6,40 L4,40 L4,36 L2,36 L2,24 L0,24 Z " fill="#779B6C" transform="translate(370,562)"/>
<path d="M0,0 L4,0 L4,2 L7,2 L7,0 L11,0 L11,3 L15,4 L15,6 L20,7 L20,10 L7,10 L7,6 L1,6 L-8,4 L-7,2 L0,1 Z " fill="#95BD89" transform="translate(628,410)"/>
<path d="M0,0 L8,0 L12,1 L19,1 L30,5 L30,8 L18,7 L18,5 L14,6 L-2,6 L-2,4 L0,3 Z " fill="#7DAC74" transform="translate(452,665)"/>
<path d="M0,0 L1,2 L5,2 L12,10 L17,14 L17,20 L21,22 L27,28 L27,32 L23,31 L16,23 L15,18 L13,20 L11,14 L8,12 L8,10 L6,10 L6,8 L4,8 L4,6 L1,6 L1,4 L-1,3 Z M1,3 Z M16,21 Z " fill="#050805" transform="translate(499,688)"/>
<path d="M0,0 L8,1 L11,4 L13,2 L14,4 L13,6 L15,6 L19,13 L23,16 L22,18 L17,17 L12,13 L12,9 L8,9 L8,7 L4,7 L4,5 L0,5 L0,3 L-6,3 L-6,2 L0,2 Z " fill="#6E9867" transform="translate(482,671)"/>
<path d="M0,0 L2,0 L3,3 L0,5 L-2,4 L-2,2 L0,2 Z M-2,5 L0,6 L-2,7 Z M-6,6 L-2,8 L-8,17 L-15,30 L-16,26 L-18,26 L-19,29 L-19,25 L-17,25 L-17,21 L-15,21 L-15,17 L-13,17 L-13,15 L-11,15 L-11,11 L-9,11 L-9,7 Z " fill="#7FA673" transform="translate(441,439)"/>
<path d="M0,0 L4,1 L2,1 L2,3 L4,3 L3,8 L10,5 L15,7 L34,7 L34,11 L12,11 L12,9 L2,9 L2,7 L-4,7 L-4,6 L2,6 L2,4 L-3,4 Z " fill="#1B3E12" transform="translate(418,801)"/>
<path d="M0,0 L10,0 L10,2 L3,3 L0,6 L-4,7 L-13,13 L-21,12 L-21,10 L-16,10 L-16,7 L-12,7 L-12,5 L-8,5 L-8,3 L-6,3 L-6,1 Z " fill="#89AA7D" transform="translate(530,371)"/>
<path d="M0,0 L8,0 L8,2 L28,1 L28,2 L22,4 L17,6 L7,5 L7,3 L-4,6 L-7,9 L-11,9 L-11,7 L-8,7 L-8,2 L0,2 Z " fill="#27521B" transform="translate(710,836)"/>
<path d="M0,0 L9,0 L7,6 L-3,8 L-4,7 L-15,6 L-14,2 L-3,1 Z " fill="#85B77C" transform="translate(676,742)"/>
<path d="M0,0 L2,1 L1,2 L1,8 L-3,8 L-4,10 L-1,10 L-1,12 L-4,12 L-4,15 L-8,15 L-8,17 L-12,21 L-16,21 L-16,23 L-18,23 L-19,25 L-20,22 L-17,22 L-18,19 L-13,20 L-13,18 L-15,17 L-13,15 L-12,11 L-9,11 L-8,8 L-6,8 L-6,6 L-3,3 L-1,3 Z " fill="#7CB172" transform="translate(734,725)"/>
<path d="M0,0 L1,0 L1,12 L3,12 L3,22 L5,22 L5,66 L4,66 L4,23 L2,23 L1,25 L1,23 L-1,23 L-2,13 L0,12 Z " fill="#6D9463" transform="translate(757,596)"/>
<path d="M0,0 L2,1 L1,3 L-1,3 L-1,8 L1,8 L-1,13 L-11,23 L-13,26 L-13,21 L-15,21 L-15,26 L-16,26 L-16,20 L-12,16 L-10,16 L-10,14 L-6,14 L-6,10 L-4,10 L-4,8 L-2,8 L-2,2 L0,2 Z " fill="#7AA370" transform="translate(398,520)"/>
<path d="M0,0 L5,0 L5,19 L1,20 L1,7 L-2,7 L-2,1 Z " fill="#1C4215" transform="translate(860,491)"/>
<path d="M0,0 L5,1 L10,6 L22,7 L27,13 L27,16 L24,16 L21,12 L21,10 L8,10 L3,4 L-1,1 Z " fill="#1F4617" transform="translate(520,831)"/>
<path d="M0,0 L5,0 L5,2 L8,2 L9,6 L19,8 L19,9 L-3,9 L-3,7 L-1,7 L-2,4 Z " fill="#A1CC97" transform="translate(603,411)"/>
<path d="M0,0 L11,0 L11,1 L6,1 L6,3 L12,3 L12,4 L6,4 L6,6 L0,7 L-12,7 L-12,5 L-9,2 L-5,1 L-2,2 Z " fill="#79AA6F" transform="translate(702,748)"/>
<path d="M0,0 L1,3 L19,3 L19,4 L1,4 L1,6 L-15,6 L-15,4 L-25,4 L-25,3 L-15,2 L0,2 Z " fill="#6E9C64" transform="translate(577,732)"/>
<path d="M0,0 L2,0 L3,10 L5,14 L6,35 L4,35 L3,24 L0,23 Z " fill="#1E4717" transform="translate(861,602)"/>
<path d="M0,0 L8,0 L8,2 L1,4 L-3,5 L-9,5 L-11,6 L-19,6 L-19,8 L-23,8 L-23,6 L-20,6 L-20,3 L-12,3 L-12,1 Z " fill="#244E1A" transform="translate(690,845)"/>
<path d="M0,0 L2,0 L2,11 L4,11 L4,23 L2,23 L2,28 L0,28 L1,21 L-2,21 L-2,15 L0,15 Z " fill="#1C4617" transform="translate(865,663)"/>
<path d="M0,0 L4,2 L4,5 L6,5 L4,11 L2,17 L1,23 L-2,24 L-2,13 L0,13 L-1,6 L-2,6 L-2,1 Z M1,5 Z " fill="#8FC285" transform="translate(730,671)"/>
<path d="M0,0 L13,0 L13,5 L10,5 L10,7 L13,6 L21,6 L21,7 L14,7 L14,9 L21,9 L21,10 L13,10 L13,8 L9,8 L9,6 L5,6 L5,3 L-2,3 L-2,1 Z " fill="#77A66E" transform="translate(625,746)"/>
<path d="M0,0 L12,0 L12,2 L17,2 L17,4 L9,6 L8,8 L1,8 L2,3 L0,2 Z " fill="#214516" transform="translate(382,787)"/>
<path d="M0,0 L5,0 L5,3 L8,0 L16,0 L16,2 L19,2 L19,0 L26,0 L26,2 L28,3 L27,4 L4,4 L3,2 L0,2 Z " fill="#97CA8D" transform="translate(653,726)"/>
<path d="M0,0 L16,0 L14,2 L1,2 L0,6 L-5,9 L-6,13 L-10,14 L-10,6 L-6,6 L-6,2 Z M-11,14 Z " fill="#8DB482" transform="translate(496,402)"/>
<path d="M0,0 L2,4 L11,13 L10,15 L6,15 L-3,6 L-3,4 L-7,3 L-3,3 L-3,1 Z " fill="#6F9E68" transform="translate(507,686)"/>
<path d="M0,0 L2,0 L1,7 L3,8 L2,12 L-2,14 L-3,20 L0,20 L0,22 L-4,22 L-4,7 L-3,3 L0,3 Z " fill="#194416" transform="translate(839,743)"/>
<path d="M0,0 L4,0 L3,5 L2,14 L0,18 L-1,26 L-3,26 L-2,6 Z M-4,26 Z " fill="#86B97E" transform="translate(738,678)"/>
<path d="M0,0 L2,0 L2,9 L5,9 L6,13 L6,25 L3,25 L2,15 L-1,10 Z " fill="#7DAD70" transform="translate(751,583)"/>
<path d="M0,0 L2,0 L2,3 L5,3 L5,7 L7,7 L8,19 L5,20 L2,9 L1,6 L-1,6 Z " fill="#80A776" transform="translate(693,447)"/>
<path d="M0,0 L5,1 L12,3 L12,5 L16,5 L17,8 L13,9 L15,8 L15,6 L6,8 L1,5 L-1,4 L-1,2 L-3,1 Z " fill="#81A777" transform="translate(646,399)"/>
<path d="M0,0 L5,1 L8,8 L12,12 L12,15 L8,14 L1,8 Z " fill="#78AC6E" transform="translate(515,700)"/>
<path d="M0,0 L6,0 L6,1 L1,1 L1,3 L6,3 L3,6 L1,7 L-5,7 L-5,9 L-7,9 L-7,11 L-13,12 L-8,6 L-6,6 L-6,4 L-2,4 L-2,2 L0,2 Z " fill="#82A478" transform="translate(508,380)"/>
<path d="M0,0 L14,0 L14,6 L12,6 L12,8 L8,8 L8,12 L6,12 L6,14 L0,14 L0,13 L5,13 L4,9 L6,9 L6,3 L12,3 L13,1 L0,1 Z " fill="#143812" transform="translate(770,838)"/>
<path d="M0,0 L4,0 L4,2 L8,2 L8,4 L12,5 L9,5 L9,7 L7,7 L7,3 L4,4 L4,7 L3,9 L0,10 L4,12 L-2,12 L-4,8 L-10,8 L-9,4 L-9,7 L1,6 L3,1 Z " fill="#1C3E13" transform="translate(300,730)"/>
<path d="M0,0 L9,1 L9,3 L18,3 L20,4 L20,6 L27,7 L27,8 L14,8 L14,4 L8,4 L-1,2 Z " fill="#98C18D" transform="translate(621,412)"/>
<path d="M0,0 L6,0 L10,7 L14,10 L13,12 L8,11 L3,7 L3,2 L0,2 Z " fill="#7CAF73" transform="translate(491,677)"/>
<path d="M0,0 L1,0 L1,5 L3,5 L3,0 L4,0 L4,6 L2,6 L2,14 L0,14 L0,20 L-1,20 L-1,14 L-3,14 L-3,19 L-4,19 L-4,13 L-2,13 L-2,3 Z " fill="#74A06D" transform="translate(752,674)"/>
<path d="M0,0 L1,0 L1,5 L6,4 L5,7 L7,7 L8,5 L16,10 L16,13 L8,12 L4,8 L4,6 L0,6 Z " fill="#749E6C" transform="translate(394,648)"/>
<path d="M0,0 L1,0 L1,6 L5,8 L11,14 L11,18 L7,17 L0,9 L-1,6 Z M0,7 Z " fill="#0F160E" transform="translate(515,702)"/>
<path d="M0,0 L2,0 L3,7 L0,14 L-4,17 L-6,15 L-6,12 L-3,12 L-4,8 L-1,8 L0,6 L-2,6 L-2,3 L0,3 Z " fill="#89B27E" transform="translate(423,465)"/>
<path d="M0,0 Z M-1,1 L3,4 L2,6 L-5,8 L-7,6 L-8,7 L-18,7 L-17,5 L-4,3 Z " fill="#89BB7E" transform="translate(706,732)"/>
<path d="M0,0 L1,0 L2,7 L-3,5 L-3,9 L-7,9 L-7,11 L-5,12 L-9,16 L-15,16 L-9,9 L-6,6 L-4,6 L-4,4 L0,4 Z " fill="#74986B" transform="translate(488,396)"/>
<path d="M0,0 L1,0 L1,8 L3,8 L3,12 L5,12 L5,22 L4,22 L4,13 L2,13 L2,18 L-1,15 L-3,15 L-2,8 L0,8 Z " fill="#709C63" transform="translate(749,570)"/>
<path d="M0,0 L1,0 L1,9 L3,9 L3,17 L0,18 L-2,16 L-1,1 Z " fill="#80B270" transform="translate(746,561)"/>
<path d="M0,0 L12,0 L12,2 L19,2 L19,4 L2,4 L2,2 L0,2 Z " fill="#90B284" transform="translate(578,369)"/>
<path d="M0,0 L7,1 L7,5 L-5,5 L-6,1 Z " fill="#8DB581" transform="translate(653,411)"/>
<path d="M0,0 L6,0 L6,2 L2,2 L0,6 L-3,8 L-6,8 L-6,6 L-8,6 L-8,2 L0,3 Z " fill="#1C3F14" transform="translate(275,709)"/>
<path d="M0,0 L6,0 L10,4 L14,5 L13,9 L13,6 L11,6 L11,9 L7,8 L7,6 L4,6 L3,2 L0,2 Z " fill="#86AE7C" transform="translate(660,409)"/>
<path d="M0,0 L1,0 L1,6 L-1,6 L-1,10 L-3,10 L-3,14 L-5,14 L-5,20 L-6,20 L-8,10 L-4,6 L-4,9 L-2,9 L-3,2 L-2,5 L0,5 Z " fill="#14390F" transform="translate(859,718)"/>
<path d="M0,0 L2,3 L4,0 L7,0 L7,7 L9,8 L8,11 L5,10 L5,8 L0,6 L-1,8 L-1,2 Z " fill="#81B370" transform="translate(736,551)"/>
<path d="M0,0 L1,3 L5,2 L17,2 L18,4 L13,6 L8,6 L3,5 L-2,4 Z " fill="#83B379" transform="translate(655,746)"/>
<path d="M0,0 L3,1 L8,3 L4,4 L4,6 L0,10 L-4,10 L-4,12 L-6,12 L-7,14 L-8,11 L-5,11 L-6,8 L-1,9 L-1,7 L-3,6 L-1,4 Z " fill="#6E9B64" transform="translate(722,736)"/>
<path d="M0,0 L1,4 L3,4 L3,6 L5,6 L5,10 L7,10 L6,14 L6,11 L4,11 L3,15 L-1,7 L-3,3 L0,4 Z " fill="#78A06D" transform="translate(717,488)"/>
<path d="M0,0 L1,3 L3,3 L1,7 L1,5 L-1,5 L-1,8 L1,9 L-1,11 L-1,9 L-3,9 L-1,15 L-4,17 L-4,15 L-7,15 L-7,20 L-8,20 L-8,14 L-6,14 L-6,12 L-4,12 L-4,8 L-2,8 L-2,4 L0,4 Z " fill="#73966A" transform="translate(420,468)"/>
<path d="M0,0 L4,2 L3,4 L-4,6 L-6,8 L-16,10 L-16,8 L-12,6 L-8,6 L-7,3 L0,3 Z " fill="#84B77A" transform="translate(716,732)"/>
<path d="M0,0 L1,0 L1,6 L3,6 L3,8 L5,8 L5,14 L7,14 L6,16 L1,15 L-1,6 Z " fill="#7A9F71" transform="translate(701,460)"/>
<path d="M0,0 L6,0 L6,2 L10,3 L12,5 L11,9 L10,6 L6,6 L6,4 L0,4 L0,2 L-4,1 Z " fill="#153A0D" transform="translate(506,844)"/>
<path d="M0,0 L1,3 L6,3 L8,9 L8,15 L7,15 L7,10 L5,10 L5,16 L4,16 L4,10 L2,10 L2,4 L0,4 Z " fill="#7A9F6F" transform="translate(378,606)"/>
<path d="M0,0 L8,0 L8,2 L-1,2 L-1,4 L-15,4 L-14,2 Z " fill="#16430A" transform="translate(721,863)"/>
<path d="M0,0 L6,0 L7,3 L20,4 L19,8 L19,6 L6,6 L4,3 L0,2 Z " fill="#1C4818" transform="translate(763,835)"/>
<path d="M0,0 L4,0 L9,6 L9,10 L6,11 L6,9 L4,9 L1,6 L-1,4 L3,3 L3,1 Z " fill="#81A876" transform="translate(674,418)"/>
<path d="M0,0 L4,1 L1,1 L1,3 L4,4 L-1,8 L-9,7 L-9,5 L-4,5 L-4,2 L0,2 Z " fill="#87A87C" transform="translate(518,376)"/>
<path d="M0,0 L4,5 L7,14 L3,14 L3,11 L1,11 L1,7 L-1,6 Z " fill="#86AF7A" transform="translate(376,595)"/>
<path d="M0,0 L2,0 L2,4 L1,11 L-4,13 L-5,9 L-1,1 Z " fill="#85B675" transform="translate(741,584)"/>
<path d="M0,0 L7,0 L6,4 L-3,7 L-3,2 L0,2 Z M2,5 Z M1,6 Z " fill="#8AB27F" transform="translate(479,414)"/>
<path d="M0,0 L4,0 L3,4 L6,4 L6,7 L4,7 L4,14 L2,14 L2,7 L0,7 Z " fill="#1E4516" transform="translate(843,423)"/>
<path d="M0,0 L2,0 L2,7 L0,10 L-2,10 L-2,14 L-4,14 L-4,16 L-6,16 L-5,9 L-3,9 L-3,7 L0,7 Z " fill="#1D4918" transform="translate(851,709)"/>
<path d="M0,0 L2,0 L2,3 L4,3 L4,11 L2,12 L1,14 L-1,12 L1,6 L-1,6 Z " fill="#85B177" transform="translate(721,499)"/>
<path d="M0,0 L7,0 L10,3 L10,6 L4,5 L1,4 Z " fill="#9BC591" transform="translate(620,414)"/>
<path d="M0,0 L1,3 L4,3 L3,0 L5,0 L5,3 L14,5 L14,6 L0,6 L-1,1 Z " fill="#8ABC7F" transform="translate(625,726)"/>
<path d="M0,0 L6,0 L8,3 L12,4 L12,6 L16,6 L15,8 L8,8 L11,7 L11,5 L6,7 L0,4 L0,3 L5,3 L5,1 L0,1 Z " fill="#799B6F" transform="translate(616,382)"/>
<path d="M0,0 L2,1 L1,3 L8,2 L11,4 L11,6 L13,7 L14,4 L14,8 L8,8 L6,4 L0,4 L0,2 L-4,1 Z " fill="#16340E" transform="translate(308,742)"/>
<path d="M0,0 L4,1 L2,1 L2,3 L4,3 L3,8 L12,8 L12,9 L2,9 L2,7 L-4,7 L-4,6 L2,6 L2,4 L-3,4 Z " fill="#193911" transform="translate(418,801)"/>
<path d="M0,0 L1,0 L1,9 L-1,9 L-1,14 L-3,14 L-3,3 Z " fill="#1A4214" transform="translate(868,677)"/>
<path d="M0,0 L4,0 L2,4 L2,7 L4,8 L2,13 L-2,12 L-2,10 L0,10 L-2,4 L0,4 Z " fill="#95C788" transform="translate(730,627)"/>
<path d="M0,0 L2,0 L2,7 L-1,13 L-4,13 L-4,8 L-2,8 Z " fill="#86B37B" transform="translate(401,515)"/>
<path d="M0,0 L8,0 L13,5 L13,8 L10,8 L7,4 L7,2 L1,2 Z " fill="#25501B" transform="translate(534,839)"/>
<path d="M0,0 L9,0 L11,4 L16,4 L16,6 L10,6 L10,4 L8,4 L8,2 L0,2 Z " fill="#244E1A" transform="translate(503,825)"/>
<path d="M0,0 L6,0 L6,6 L0,6 Z " fill="#1A3713" transform="translate(382,776)"/>
<path d="M0,0 L2,0 L1,10 L3,10 L1,16 L-1,17 L-1,4 Z " fill="#82B074" transform="translate(725,511)"/>
<path d="M0,0 L2,1 L-3,5 L-14,5 L-14,3 L-5,3 L-5,1 Z " fill="#8DBF83" transform="translate(677,735)"/>
<path d="M0,0 L2,0 L1,7 L0,15 L-2,15 L-2,3 L0,3 Z " fill="#1E4A18" transform="translate(843,727)"/>
<path d="M0,0 L5,1 L12,2 L12,4 L3,5 L3,3 L-2,3 Z " fill="#7CB071" transform="translate(541,726)"/>
<path d="M0,0 L8,0 L8,1 L2,3 L-3,5 L-6,5 L-6,3 L-12,2 L-12,1 Z " fill="#244D19" transform="translate(730,837)"/>
<path d="M0,0 L1,3 L4,2 L6,6 L10,7 L9,9 L12,8 L12,12 L8,10 L8,8 L4,8 L0,4 Z " fill="#18380F" transform="translate(278,722)"/>
<path d="M0,0 L2,2 L2,13 L-1,13 L-1,2 Z M0,3 Z " fill="#84AB7A" transform="translate(374,563)"/>
<path d="M0,0 L3,0 L3,6 L2,8 L0,8 L0,11 L-2,11 L-2,5 L0,5 Z " fill="#88B17E" transform="translate(413,483)"/>
<path d="M0,0 L4,1 L9,3 L10,8 L8,8 L8,6 L5,7 L4,4 L2,4 L2,2 L0,2 Z " fill="#204717" transform="translate(549,847)"/>
<path d="M0,0 L4,1 L7,8 L2,9 L2,4 L0,4 Z " fill="#84B27A" transform="translate(393,644)"/>
<path d="M0,0 L6,2 L6,5 L0,5 L0,3 L-5,3 L-5,1 Z " fill="#81B279" transform="translate(476,668)"/>
<path d="M0,0 L2,0 L5,5 L5,11 L2,11 L2,6 L0,6 Z " fill="#89B27C" transform="translate(383,616)"/>
<path d="M0,0 L2,0 L4,6 L3,9 L-2,9 L-2,3 L0,3 Z " fill="#89B27C" transform="translate(409,495)"/>
<path d="M0,0 L5,0 L6,5 L11,6 L11,8 L5,8 L5,6 L3,6 L3,2 L0,2 Z " fill="#24511B" transform="translate(570,861)"/>
<path d="M0,0 L2,4 L2,7 L-3,6 L-3,4 L-7,3 L-3,3 L-3,1 Z " fill="#72A16A" transform="translate(507,686)"/>
<path d="M0,0 L2,0 L2,11 L-1,11 L-1,2 Z " fill="#83B375" transform="translate(755,597)"/>
<path d="M0,0 L8,0 L8,2 L1,4 L-5,4 L-5,2 L0,2 Z " fill="#27521B" transform="translate(632,867)"/>
<path d="M0,0 L3,1 L2,4 L-1,4 L-1,6 L2,7 L-2,7 L-2,3 L-12,3 L-12,2 L-1,1 Z " fill="#193712" transform="translate(412,799)"/>
<path d="M0,0 L3,1 L3,4 L1,4 L1,6 L8,6 L8,7 L0,7 L0,5 L-4,5 L-3,1 L-3,4 L-1,4 Z " fill="#1B3811" transform="translate(382,789)"/>
<path d="M0,0 L4,0 L4,5 L6,6 L4,6 L4,13 L3,13 L3,6 L0,5 Z " fill="#7DAE6D" transform="translate(737,545)"/>
<path d="M0,0 L3,1 L-2,6 L-4,9 L-4,4 L-6,4 L-6,9 L-7,9 L-7,3 L0,2 Z " fill="#7AA271" transform="translate(389,537)"/>
<path d="M0,0 L2,0 L3,3 L0,5 L-2,4 L-2,2 L0,2 Z M-2,5 L0,6 L-2,7 Z M-6,6 L-2,8 L-4,9 L-6,8 L-6,10 L-8,10 L-8,7 Z " fill="#88B17B" transform="translate(441,439)"/>
<path d="M0,0 L1,3 L3,4 L-2,6 L-5,5 L-5,9 L-9,7 L-6,6 L-6,4 L-2,4 Z " fill="#719367" transform="translate(468,416)"/>
<path d="M0,0 L4,1 L4,4 L8,6 L2,6 L0,2 L-6,2 L-6,1 Z " fill="#15370E" transform="translate(572,880)"/>
<path d="M0,0 L1,3 L8,2 L10,6 L14,8 L8,8 L6,4 L0,4 Z " fill="#17350E" transform="translate(290,734)"/>
<path d="M0,0 L4,1 L6,2 L5,5 L9,7 L3,7 L0,2 Z " fill="#6E9D65" transform="translate(535,723)"/>
<path d="M0,0 L1,4 L-4,9 L-5,9 L-5,2 L-1,2 Z " fill="#8BBD82" transform="translate(741,666)"/>
<path d="M0,0 L2,0 L2,7 L-1,12 L-2,12 L-2,6 Z " fill="#89B47D" transform="translate(383,541)"/>
<path d="M0,0 L2,0 L3,3 L1,9 L-2,9 L-2,2 L0,2 Z " fill="#87B27B" transform="translate(405,505)"/>
<path d="M0,0 L10,0 L11,3 L1,3 L-1,1 Z " fill="#16420B" transform="translate(729,860)"/>
<path d="M0,0 L3,1 L3,3 L1,4 L0,7 L-6,7 L-6,5 L-1,2 Z " fill="#7DB172" transform="translate(714,744)"/>
<path d="M0,0 L5,1 L5,3 L10,3 L10,5 L3,5 L-2,1 Z " fill="#8EC083" transform="translate(639,729)"/>
<path d="M0,0 L4,0 L4,3 L6,3 L6,7 L1,6 Z " fill="#87B07B" transform="translate(711,485)"/>
<path d="M0,0 L1,4 L5,6 L4,8 L2,7 L2,9 L-1,9 L-2,4 L0,4 Z " fill="#779B6E" transform="translate(683,424)"/>
<path d="M0,0 L4,1 L1,1 L1,5 L-1,5 L-1,7 L-7,8 L-2,2 L0,2 Z " fill="#73926A" transform="translate(502,384)"/>
<path d="M0,0 L6,0 L8,6 L4,6 L3,3 L0,2 Z " fill="#7FB177" transform="translate(491,677)"/>
<path d="M0,0 L1,0 L2,7 L-3,5 L-3,9 L-9,10 L-6,6 L-4,6 L-4,4 L0,4 Z " fill="#709066" transform="translate(488,396)"/>
<path d="M0,0 L4,0 L4,2 L9,2 L9,4 L1,4 L-2,1 Z " fill="#8CB281" transform="translate(612,381)"/>
<path d="M0,0 L8,0 L8,2 L1,4 L-3,5 L-6,3 L0,3 Z " fill="#27541B" transform="translate(690,845)"/>
<path d="M0,0 L1,4 L-1,4 L-1,6 L-3,6 L-3,10 L-7,9 L-4,9 L-4,7 L-7,7 L-6,4 L0,3 Z " fill="#68955F" transform="translate(737,728)"/>
<path d="M0,0 L5,1 L6,7 L2,7 Z " fill="#7CB172" transform="translate(515,700)"/>
<path d="M0,0 L2,1 L1,3 L-1,3 L-1,5 L1,6 L-1,6 L-1,8 L-7,8 L-2,2 L0,2 Z " fill="#6F9165" transform="translate(440,438)"/>
<path d="M0,0 L4,1 L4,5 L6,6 L6,8 L2,8 L0,4 Z " fill="#8AB47F" transform="translate(685,431)"/>
<path d="M0,0 L6,0 L6,1 L1,1 L1,3 L5,4 L1,7 L-3,7 L-3,5 L0,5 Z " fill="#224718" transform="translate(626,868)"/>
<path d="M0,0 L1,4 L-1,4 L-1,6 L-4,6 L-4,9 L-7,9 L-6,4 L0,3 Z " fill="#72A268" transform="translate(741,722)"/>
<path d="M0,0 L1,3 L3,3 L3,1 L5,1 L3,7 L1,8 L1,5 L-1,5 L-2,8 L-2,4 L0,4 Z " fill="#789C6D" transform="translate(432,446)"/>
<path d="M0,0 L5,1 L7,3 L7,6 L3,4 L-1,1 Z " fill="#234C19" transform="translate(520,831)"/>
<path d="M0,0 L6,0 L6,2 L2,2 L0,6 L-3,6 L-3,4 L-1,3 Z " fill="#214717" transform="translate(275,709)"/>
<path d="M0,0 L6,0 L6,4 L0,4 Z " fill="#1F4A19" transform="translate(861,643)"/>
<path d="M0,0 L5,1 L3,5 L2,3 L-1,3 L-1,8 L-2,8 L-2,2 L0,2 Z " fill="#799D6E" transform="translate(414,480)"/>
<path d="M0,0 L3,0 L4,2 L7,3 L3,5 L0,6 L-1,3 L-3,1 Z " fill="#86AF7C" transform="translate(658,405)"/>
<path d="M0,0 L4,0 L4,2 L7,2 L7,4 L3,5 L-1,2 Z " fill="#8AB17F" transform="translate(634,393)"/>
<path d="M0,0 L6,1 L6,3 L-1,3 L-2,5 L-2,3 L-5,2 Z " fill="#1C4210" transform="translate(643,886)"/>
<path d="M0,0 L4,1 L5,4 L8,4 L8,6 L4,6 L4,4 L0,3 Z " fill="#24511B" transform="translate(561,855)"/>
<path d="M0,0 L4,0 L7,4 L1,5 L0,3 L-3,3 L-3,1 Z " fill="#82B37A" transform="translate(486,672)"/>
<path d="M0,0 L4,2 L1,8 L-2,6 L-2,1 Z " fill="#92C688" transform="translate(730,671)"/>
<path d="M0,0 L1,0 L1,6 L3,6 L4,3 L4,8 L1,9 L1,7 L-1,7 L-2,10 L-2,6 L0,6 Z " fill="#74986B" transform="translate(410,488)"/>
<path d="M0,0 L1,3 L4,3 L3,7 L1,9 L1,5 L-1,5 L-2,8 L-2,4 L0,4 Z " fill="#779C6E" transform="translate(424,460)"/>
<path d="M0,0 L1,3 L3,3 L3,1 L5,1 L3,5 L-1,7 L-2,2 Z " fill="#799E6E" transform="translate(444,434)"/>
<path d="M0,0 L3,0 L3,2 L-6,4 L-8,4 L-8,1 Z " fill="#89AD7F" transform="translate(598,373)"/>
<path d="M0,0 L8,0 L8,2 L-1,4 Z " fill="#27541C" transform="translate(642,863)"/>
<path d="M0,0 L7,1 L5,2 L5,4 L-4,3 L-3,1 Z " fill="#7EAF74" transform="translate(419,664)"/>
<path d="M0,0 L2,0 L2,7 L-1,9 L-2,5 Z " fill="#89B979" transform="translate(738,588)"/>
<path d="M0,0 L2,0 L2,3 L4,3 L4,7 L-1,6 Z " fill="#89B27E" transform="translate(693,447)"/>
<path d="M0,0 L4,2 L-1,5 L-4,4 L-4,2 Z " fill="#8FB283" transform="translate(523,375)"/>
<path d="M0,0 L2,0 L2,4 L0,4 L0,7 L-3,7 L-3,3 L0,3 Z " fill="#7EB174" transform="translate(741,718)"/>
<path d="M0,0 L3,1 L3,4 L0,4 L0,6 L3,7 L-1,7 L-2,2 L0,2 Z " fill="#6E9D64" transform="translate(527,713)"/>
<path d="M0,0 L2,1 L1,8 L-1,10 L-1,2 Z " fill="#8BBE7B" transform="translate(733,581)"/>
<path d="M0,0 L5,1 L4,4 L3,2 L1,2 L1,4 L-3,5 Z " fill="#88B17B" transform="translate(446,433)"/>
<path d="M0,0 L1,3 L3,4 L-3,3 L-3,7 L-7,5 L-4,4 L-4,2 L0,2 Z " fill="#729567" transform="translate(458,424)"/>
<path d="M0,0 L6,0 L6,2 L11,3 L11,4 L5,4 L4,1 Z " fill="#8EB483" transform="translate(614,394)"/>
<path d="M0,0 L3,1 L3,3 L-6,3 L-6,1 Z " fill="#16440C" transform="translate(746,858)"/>
<path d="M0,0 L2,0 L3,3 L0,6 L-4,6 L-4,4 L-1,3 Z " fill="#26541B" transform="translate(663,853)"/>
<path d="M0,0 L2,0 L0,4 L-2,6 L-4,10 L-4,4 L0,2 Z " fill="#030B03" transform="translate(844,756)"/>
<path d="M0,0 L4,1 L4,3 L6,4 L7,1 L7,5 L1,5 Z " fill="#193910" transform="translate(315,745)"/>
<path d="M0,0 L6,5 L2,7 L2,5 L0,5 Z " fill="#1B3A13" transform="translate(287,718)"/>
<path d="M0,0 L4,1 L1,1 L1,5 L-5,6 L-2,2 L0,2 Z " fill="#6B8E62" transform="translate(388,534)"/>
<path d="M0,0 L5,1 L4,5 L4,2 L2,2 L2,5 L-2,4 L-2,2 L0,2 Z " fill="#789C6E" transform="translate(669,413)"/>
<path d="M0,0 L6,1 L5,4 L1,4 Z " fill="#7DB073" transform="translate(617,743)"/>
<path d="M0,0 L9,0 L8,3 L0,2 Z " fill="#87B97E" transform="translate(676,742)"/>
<path d="M0,0 L6,1 L5,6 L0,2 Z " fill="#86AE7C" transform="translate(703,475)"/>
<path d="M0,0 L4,0 L4,5 L2,5 L0,6 Z " fill="#0C100B" transform="translate(702,460)"/>
<path d="M0,0 L2,0 L2,6 L-2,6 L-2,3 L0,3 Z " fill="#88B27D" transform="translate(427,457)"/>
<path d="M0,0 L4,0 L4,2 L0,4 L-3,4 L-3,2 Z " fill="#224E1A" transform="translate(753,835)"/>
<path d="M0,0 L4,1 L-2,6 L-4,6 L-2,2 L0,2 Z " fill="#151E13" transform="translate(726,740)"/>
<path d="M0,0 L1,0 L1,5 L6,5 L4,9 L0,6 Z " fill="#6C9B64" transform="translate(516,702)"/>
<path d="M0,0 L1,3 L6,3 L7,5 L5,5 L4,7 L0,4 Z " fill="#719F69" transform="translate(494,680)"/>
<path d="M0,0 L6,2 L7,4 L1,4 Z " fill="#19430F" transform="translate(565,877)"/>
<path d="M0,0 L3,0 L3,3 L-3,4 L-3,2 L0,2 Z " fill="#25521B" transform="translate(654,859)"/>
<path d="M0,0 L3,1 L3,3 L-4,3 L-4,1 Z " fill="#174211" transform="translate(767,850)"/>
<path d="M0,0 L4,0 L4,4 L0,4 Z " fill="#254E1A" transform="translate(383,777)"/>
<path d="M0,0 L3,3 L0,6 L-3,2 L0,2 Z " fill="#699462" transform="translate(509,691)"/>
<path d="M0,0 L4,1 L3,5 L-1,2 Z " fill="#87B877" transform="translate(721,532)"/>
<path d="M0,0 L2,0 L1,7 L-1,8 L-1,2 Z " fill="#82B275" transform="translate(729,521)"/>
<path d="M0,0 L2,0 L1,6 L-2,6 L-2,3 L0,3 Z " fill="#89B37F" transform="translate(423,465)"/>
<path d="M0,0 L6,0 L7,2 L5,2 L5,4 L3,4 L3,2 L0,2 Z " fill="#83AB79" transform="translate(660,409)"/>
<path d="M0,0 L5,0 L5,2 L7,3 L1,3 Z " fill="#A2C995" transform="translate(593,408)"/>
<path d="M0,0 L4,1 L1,1 L2,4 L-1,5 L-1,3 L-4,2 L0,2 Z " fill="#1F4417" transform="translate(658,856)"/>
<path d="M0,0 L2,0 L1,5 L-2,6 L-2,3 L0,3 Z " fill="#1C4818" transform="translate(839,743)"/>
<path d="M0,0 L2,0 L0,4 L-4,4 L-4,1 L0,2 Z " fill="#84AC78" transform="translate(463,423)"/>
<path d="M0,0 L2,1 L1,5 L-5,5 L-5,4 L0,4 L0,2 L-2,1 Z " fill="#17380C" transform="translate(659,881)"/>
<path d="M0,0 L3,1 L1,5 L0,3 L-2,2 Z " fill="#78A96D" transform="translate(721,740)"/>
<path d="M0,0 L1,2 L0,7 L-3,5 L-1,1 Z " fill="#84B37A" transform="translate(752,650)"/>
<path d="M0,0 L4,1 L4,4 L0,3 Z " fill="#224717" transform="translate(485,817)"/>
<path d="M0,0 L4,1 L4,4 L0,3 Z " fill="#224717" transform="translate(479,813)"/>
<path d="M0,0 L4,1 L4,4 L0,3 Z " fill="#224717" transform="translate(473,809)"/>
<path d="M0,0 L4,1 L2,2 L2,4 L5,5 L1,5 Z " fill="#1A3B12" transform="translate(273,717)"/>
<path d="M0,0 L4,1 L4,4 L1,4 Z " fill="#80AF78" transform="translate(411,661)"/>
<path d="M0,0 L2,1 L0,6 L-2,7 L-1,2 Z " fill="#85AD7A" transform="translate(424,469)"/>
<path d="M0,0 L5,1 L5,3 L-1,3 Z " fill="#A6D19C" transform="translate(589,413)"/>
<path d="M0,0 L4,0 L4,3 L0,3 Z " fill="#1A4111" transform="translate(580,884)"/>
<path d="M0,0 L4,0 L4,3 L0,3 Z " fill="#18410C" transform="translate(672,872)"/>
<path d="M0,0 L3,0 L3,3 L-2,2 Z " fill="#18410E" transform="translate(503,842)"/>
<path d="M0,0 L2,0 L2,3 L0,3 L-1,7 L-1,1 Z " fill="#7BAE71" transform="translate(738,718)"/>
<path d="M0,0 L4,0 L4,2 L2,2 L2,4 L0,4 Z " fill="#204617" transform="translate(267,711)"/>
<path d="M0,0 L4,2 L1,5 Z " fill="#84AD7A" transform="translate(685,431)"/>
<path d="M0,0 L4,1 L4,4 L2,4 L2,2 L0,2 Z " fill="#25531B" transform="translate(555,851)"/>
<path d="M0,0 L4,1 L4,4 L2,4 L2,2 L0,2 Z " fill="#24531B" transform="translate(549,847)"/>
<path d="M0,0 L4,1 L4,4 L2,4 L2,2 L0,2 Z " fill="#224918" transform="translate(491,821)"/>
<path d="M0,0 L4,1 L4,4 L2,4 L2,2 L0,2 Z " fill="#224818" transform="translate(401,791)"/>
<path d="M0,0 L5,2 L5,3 L-2,3 Z " fill="#8BBD82" transform="translate(655,737)"/>
<path d="M0,0 L5,0 L4,3 L0,2 Z " fill="#7EB473" transform="translate(527,717)"/>
<path d="M0,0 L2,4 L1,6 L-1,6 Z " fill="#89B37D" transform="translate(376,595)"/>
<path d="M0,0 L1,3 L3,4 L-1,5 Z " fill="#779C6E" transform="translate(468,416)"/>
<path d="M0,0 L3,0 L2,3 L-2,2 Z " fill="#A8D39E" transform="translate(579,413)"/>
<path d="M0,0 L4,2 L1,3 L-4,2 Z " fill="#A8D39E" transform="translate(568,412)"/>
<path d="M0,0 L3,0 L3,2 L1,2 L1,4 L-1,4 Z " fill="#8DB483" transform="translate(490,395)"/>
<path d="M0,0 L3,0 L3,2 L-1,3 L-3,1 Z " fill="#8BB281" transform="translate(628,389)"/>
<path d="M0,0 L3,0 L3,2 L-1,3 L-3,1 Z " fill="#8DB283" transform="translate(606,377)"/>
<path d="M0,0 L5,1 L1,4 Z " fill="#18410E" transform="translate(517,849)"/>
<path d="M0,0 L3,0 L1,4 Z " fill="#82AA76" transform="translate(381,549)"/>
<path d="M0,0 L3,0 L3,2 L-1,3 Z " fill="#8FB584" transform="translate(598,373)"/>
<path d="M0,0 L2,1 L1,4 L-1,3 Z " fill="#1A400C" transform="translate(661,879)"/>
<path d="M0,0 L3,1 L3,3 L0,3 Z " fill="#16430B" transform="translate(686,868)"/>
<path d="M0,0 L1,2 L3,3 L-1,4 Z " fill="#264F1A" transform="translate(642,863)"/>
<path d="M0,0 L4,1 L2,3 L0,2 Z " fill="#8BB57E" transform="translate(463,421)"/>
<path d="M0,0 L3,0 L2,3 L0,3 Z " fill="#84A97A" transform="translate(491,397)"/>
<path d="M0,0 L3,1 L2,3 L0,3 Z " fill="#8ABC7F" transform="translate(684,738)"/>
<path d="M0,0 L2,2 L-1,3 Z " fill="#88B87C" transform="translate(746,649)"/>
<path d="M0,0 L2,2 L-1,2 Z M2,0 Z " fill="#91B788" transform="translate(544,380)"/>
</svg>
