<?xml version="1.0" encoding="UTF-8"?>
<!-- Generator: visioncortex VTracer 0.6.4 -->
<svg version="1.1" xmlns="http://www.w3.org/2000/svg" width="1024" height="1024">
<path d="M0,0 L1024,0 L1024,1024 L0,1024 Z " fill="#000000" transform="translate(0,0)"/>
<path d="M0,0 L58,0 L58,2 L64,2 L66,6 L68,6 L70,11 L75,13 L76,16 L84,16 L84,18 L88,18 L88,20 L92,20 L92,22 L98,22 L98,24 L103,25 L106,31 L114,32 L116,36 L118,36 L118,44 L114,44 L114,48 L116,48 L116,52 L118,52 L118,60 L120,60 L120,66 L122,66 L122,112 L120,112 L120,166 L118,166 L118,178 L116,178 L116,188 L112,188 L112,192 L110,192 L110,196 L106,196 L106,204 L104,204 L104,216 L102,216 L102,220 L100,220 L100,226 L98,226 L98,232 L96,232 L96,236 L94,236 L94,244 L92,244 L92,250 L90,250 L90,254 L87,256 L86,260 L84,260 L84,264 L80,268 L82,268 L82,278 L80,278 L80,282 L72,283 L70,290 L66,290 L66,296 L64,296 L64,298 L56,298 L56,306 L54,306 L54,310 L52,310 L52,314 L50,314 L50,316 L46,316 L46,318 L41,320 L38,324 L28,324 L26,320 L18,321 L16,328 L11,332 L10,338 L8,338 L8,342 L4,346 L0,346 L0,348 L-16,349 L-18,352 L-26,353 L-28,356 L-32,356 L-32,358 L-42,358 L-42,360 L-46,360 L-46,362 L-52,362 L-52,364 L-60,364 L-60,366 L-80,366 L-80,364 L-94,364 L-94,366 L-99,368 L-100,370 L-104,370 L-104,372 L-126,372 L-126,370 L-132,370 L-132,368 L-140,368 L-140,366 L-144,366 L-146,363 L-152,362 L-154,359 L-158,358 L-158,354 L-162,352 L-164,349 L-168,348 L-170,345 L-176,344 L-176,340 L-178,340 L-178,336 L-180,336 L-180,332 L-184,332 L-184,328 L-186,328 L-186,324 L-188,324 L-188,316 L-190,316 L-190,312 L-192,312 L-192,304 L-194,304 L-194,298 L-196,298 L-196,288 L-198,288 L-198,284 L-200,284 L-200,280 L-202,280 L-202,264 L-204,264 L-204,260 L-208,260 L-208,256 L-210,256 L-210,252 L-212,252 L-212,248 L-216,248 L-216,244 L-218,244 L-218,240 L-220,240 L-220,236 L-224,234 L-224,230 L-228,228 L-228,224 L-230,224 L-230,220 L-232,220 L-232,216 L-236,214 L-236,208 L-238,208 L-238,204 L-240,204 L-240,200 L-242,200 L-242,196 L-244,196 L-244,188 L-246,188 L-246,184 L-250,184 L-250,180 L-252,180 L-252,176 L-256,174 L-256,168 L-260,166 L-260,162 L-264,160 L-264,152 L-266,152 L-266,138 L-264,138 L-264,120 L-262,120 L-262,96 L-260,96 L-260,82 L-258,82 L-258,78 L-256,78 L-256,72 L-254,70 L-248,70 L-248,68 L-244,68 L-242,64 L-240,64 L-240,54 L-236,50 L-228,50 L-228,48 L-222,48 L-222,46 L-214,46 L-214,50 L-212,50 L-212,48 L-204,48 L-204,46 L-200,46 L-200,38 L-192,38 L-192,36 L-186,36 L-186,42 L-184,42 L-184,38 L-180,38 L-180,36 L-160,36 L-160,34 L-152,34 L-152,36 L-140,36 L-140,38 L-136,38 L-136,46 L-124,46 L-124,38 L-122,36 L-118,36 L-118,34 L-112,34 L-112,32 L-106,32 L-106,36 L-104,36 L-104,34 L-90,34 L-90,32 L-84,32 L-84,28 L-80,28 L-80,24 L-76,24 L-76,20 L-68,20 L-66,16 L-60,16 L-60,14 L-52,14 L-52,12 L-48,12 L-48,10 L-40,10 L-40,8 L-36,8 L-36,6 L-32,6 L-32,4 L-20,4 L-20,2 L0,2 Z " fill="#F2BE8A" transform="translate(574,330)"/>
<path d="M0,0 L58,0 L58,2 L64,2 L66,6 L68,6 L70,11 L75,13 L76,16 L84,16 L84,18 L88,18 L88,20 L92,20 L92,22 L98,22 L98,24 L103,25 L106,31 L114,32 L116,36 L118,36 L118,44 L114,44 L114,48 L116,48 L116,52 L118,52 L118,60 L120,60 L120,66 L122,66 L122,112 L120,112 L120,166 L118,166 L118,178 L116,178 L116,188 L112,188 L112,192 L110,192 L110,196 L106,196 L106,204 L104,204 L104,216 L102,216 L102,220 L100,220 L100,226 L98,226 L98,232 L96,232 L96,236 L94,236 L94,244 L92,244 L92,250 L90,250 L90,254 L87,256 L86,260 L84,260 L84,264 L80,268 L82,268 L82,278 L80,278 L80,282 L72,283 L70,290 L66,290 L66,296 L64,296 L64,298 L56,298 L56,306 L54,306 L54,310 L52,310 L52,314 L50,314 L50,316 L46,316 L46,318 L41,320 L38,324 L28,324 L26,320 L18,321 L16,328 L11,332 L10,338 L8,338 L8,342 L4,346 L0,346 L0,348 L-16,349 L-18,352 L-26,353 L-28,356 L-32,356 L-32,358 L-42,358 L-42,360 L-46,359 L-43,359 L-43,357 L-45,356 L-44,354 L-32,354 L-29,355 L-29,353 L-32,353 L-32,350 L-29,350 L-27,346 L-20,343 L-14,344 L-14,342 L-12,342 L-12,340 L-10,340 L-10,338 L-7,337 L-7,339 L-2,339 L-2,342 L1,340 L2,331 L4,324 L2,320 L-2,318 L0,317 L0,315 L4,316 L6,319 L8,313 L11,316 L11,318 L16,316 L20,316 L20,314 L22,314 L22,311 L31,310 L30,316 L31,318 L34,318 L34,316 L37,317 L38,313 L49,315 L50,309 L53,309 L52,307 L52,297 L54,294 L62,294 L62,286 L64,286 L65,277 L70,276 L70,279 L76,278 L78,266 L79,260 L80,258 L76,257 L81,256 L82,254 L84,254 L83,247 L83,244 L87,243 L89,242 L90,233 L92,233 L93,231 L94,222 L89,222 L90,218 L95,218 L97,215 L97,200 L98,194 L94,195 L94,192 L97,192 L98,188 L98,185 L96,183 L99,177 L100,173 L100,170 L101,168 L99,168 L98,166 L98,154 L101,150 L98,151 L98,134 L100,134 L98,124 L98,96 L96,96 L97,92 L98,90 L98,71 L97,69 L96,63 L93,54 L92,48 L95,41 L97,37 L91,35 L89,34 L88,31 L85,30 L84,24 L72,21 L60,18 L60,14 L58,14 L58,16 L56,16 L55,14 L52,13 L53,6 L50,7 L45,7 L40,9 L35,9 L33,7 L27,11 L26,14 L19,14 L16,11 L12,10 L1,10 L0,13 L-6,10 L-6,6 L-11,9 L-14,9 L-15,7 L-20,8 L-27,9 L-30,11 L-34,10 L-34,15 L-30,15 L-30,18 L-35,18 L-40,21 L-42,24 L-44,24 L-44,17 L-48,16 L-52,18 L-59,19 L-62,22 L-66,22 L-68,18 L-66,16 L-60,16 L-60,14 L-52,14 L-52,12 L-48,12 L-48,10 L-40,10 L-40,8 L-36,8 L-36,6 L-32,6 L-32,4 L-20,4 L-20,2 L0,2 Z M-18,6 Z M-46,14 Z M98,168 Z M1,324 L3,325 L1,326 Z M0,326 Z M-2,327 L0,328 Z " fill="#E3A67A" transform="translate(574,330)"/>
<path d="M0,0 L6,0 L6,4 L8,4 L8,2 L22,2 L22,0 L28,0 L28,1 L23,1 L23,3 L25,4 L22,6 L9,7 L7,9 L6,14 L10,14 L11,21 L6,20 L5,18 L-8,20 L-22,20 L-20,19 L-20,17 L-26,19 L-44,20 L-48,21 L-48,19 L-52,19 L-52,21 L-56,21 L-59,20 L-60,22 L-68,22 L-72,20 L-78,19 L-78,21 L-82,22 L-90,22 L-90,24 L-92,25 L-105,26 L-108,27 L-109,29 L-113,31 L-115,31 L-116,34 L-118,34 L-119,38 L-124,41 L-127,42 L-127,45 L-129,45 L-129,50 L-132,53 L-136,54 L-137,53 L-140,59 L-141,64 L-142,67 L-142,74 L-139,74 L-139,77 L-142,79 L-142,93 L-140,94 L-142,100 L-142,117 L-143,123 L-139,125 L-139,122 L-136,123 L-138,129 L-134,129 L-134,126 L-131,127 L-129,136 L-127,136 L-128,144 L-125,154 L-125,166 L-118,167 L-113,166 L-113,159 L-111,158 L-111,163 L-109,163 L-109,166 L-111,166 L-112,184 L-107,183 L-106,186 L-106,208 L-108,208 L-108,204 L-112,202 L-112,198 L-116,196 L-116,192 L-118,192 L-118,188 L-120,188 L-120,184 L-124,182 L-124,176 L-126,176 L-126,172 L-128,172 L-128,168 L-130,168 L-130,164 L-132,164 L-132,156 L-134,156 L-134,152 L-138,152 L-138,148 L-140,148 L-140,144 L-144,142 L-144,136 L-148,134 L-148,130 L-152,128 L-152,120 L-154,120 L-154,106 L-152,106 L-152,88 L-150,88 L-150,64 L-148,64 L-148,50 L-146,50 L-146,46 L-144,46 L-144,40 L-142,38 L-136,38 L-136,36 L-132,36 L-130,32 L-128,32 L-128,22 L-124,18 L-116,18 L-116,16 L-110,16 L-110,14 L-102,14 L-102,18 L-100,18 L-100,16 L-92,16 L-92,14 L-88,14 L-88,6 L-80,6 L-80,4 L-74,4 L-74,10 L-72,10 L-72,6 L-68,6 L-68,4 L-48,4 L-48,2 L-40,2 L-40,4 L-28,4 L-28,6 L-24,6 L-24,14 L-12,14 L-12,6 L-10,4 L-6,4 L-6,2 L0,2 Z M-144,100 Z " fill="#DEA784" transform="translate(462,362)"/>
<path d="M0,0 L58,0 L58,2 L64,2 L66,6 L68,6 L70,11 L75,13 L76,16 L84,16 L84,19 L87,19 L87,21 L89,21 L91,21 L89,27 L95,29 L95,32 L97,32 L97,35 L99,35 L99,54 L102,61 L102,77 L105,78 L105,86 L111,86 L110,102 L109,110 L109,116 L108,118 L107,130 L105,130 L104,140 L104,155 L100,166 L98,166 L98,154 L101,150 L98,151 L98,134 L100,134 L98,124 L98,96 L96,96 L97,92 L98,90 L98,71 L97,69 L96,63 L93,54 L92,48 L95,41 L97,37 L91,35 L89,34 L88,31 L85,30 L84,24 L72,21 L60,18 L60,14 L58,14 L58,16 L56,16 L55,14 L52,13 L53,6 L50,7 L45,7 L40,9 L35,9 L33,7 L27,11 L26,14 L19,14 L16,11 L12,10 L1,10 L0,13 L-6,10 L-6,6 L-11,9 L-14,9 L-15,7 L-20,8 L-27,9 L-30,11 L-34,10 L-34,15 L-30,15 L-30,18 L-35,18 L-40,21 L-42,24 L-44,24 L-44,17 L-48,16 L-52,18 L-59,19 L-62,22 L-66,22 L-68,18 L-66,16 L-60,16 L-60,14 L-52,14 L-52,12 L-48,12 L-48,10 L-40,10 L-40,8 L-36,8 L-36,6 L-32,6 L-32,4 L-20,4 L-20,2 L0,2 Z M-18,6 Z M-46,14 Z " fill="#E9AC7F" transform="translate(574,330)"/>
<path d="M0,0 L3,0 L4,6 L3,8 L8,10 L9,12 L14,12 L13,15 L14,16 L14,32 L17,33 L16,36 L23,36 L22,40 L27,40 L27,47 L29,47 L29,52 L28,53 L28,63 L29,66 L29,73 L27,73 L29,84 L34,89 L34,94 L40,95 L40,97 L50,100 L50,103 L54,104 L54,112 L57,113 L53,113 L53,115 L64,114 L71,116 L79,117 L86,119 L94,118 L96,116 L103,113 L108,112 L115,112 L115,113 L124,114 L124,115 L110,115 L110,117 L130,115 L134,114 L134,116 L144,116 L151,117 L151,115 L146,115 L146,114 L158,115 L158,116 L152,116 L152,118 L144,118 L144,120 L124,120 L124,118 L110,118 L110,120 L105,122 L104,124 L100,124 L100,126 L78,126 L78,124 L72,124 L72,122 L64,122 L64,120 L60,120 L58,117 L52,116 L50,113 L46,112 L46,108 L42,106 L40,103 L36,102 L34,99 L28,98 L28,94 L26,94 L26,90 L24,90 L24,86 L20,86 L20,82 L18,82 L18,78 L16,78 L16,70 L14,70 L14,66 L12,66 L12,58 L10,58 L10,52 L8,52 L8,42 L6,42 L6,38 L4,38 L4,34 L2,34 L2,18 L0,18 L0,14 L-4,14 L-4,10 L-6,10 L-6,6 L-8,6 L-7,2 L-7,5 L-5,5 L-5,2 L-1,2 Z " fill="#E1B580" transform="translate(370,576)"/>
<path d="M0,0 L2,0 L2,2 L14,2 L28,0 L26,6 L20,11 L9,11 L5,13 L7,14 L21,15 L20,17 L12,19 L5,19 L0,22 L0,20 L-4,21 L-9,19 L-17,19 L-22,18 L-34,19 L-37,17 L-40,18 L-40,16 L-48,17 L-48,15 L-50,15 L-50,13 L-63,13 L-64,14 L-72,15 L-72,18 L-82,19 L-89,23 L-89,17 L-91,19 L-92,21 L-98,24 L-99,31 L-98,33 L-102,35 L-105,33 L-107,36 L-110,35 L-108,33 L-107,28 L-105,28 L-105,25 L-100,21 L-97,21 L-96,17 L-94,17 L-93,13 L-89,13 L-86,10 L-83,8 L-68,7 L-68,5 L-56,4 L-56,2 L-50,2 L-46,3 L-46,5 L-38,5 L-37,2 L-36,4 L-32,1 L-32,4 L-30,4 L-30,2 L-26,2 L-26,4 L-22,2 L-4,1 Z " fill="#E2AA87" transform="translate(440,379)"/>
<path d="M0,0 L4,0 L4,2 L8,2 L8,4 L14,4 L14,6 L19,7 L22,13 L30,14 L32,18 L34,18 L34,26 L30,26 L30,30 L32,30 L32,34 L34,34 L34,42 L36,42 L36,48 L38,48 L38,94 L36,94 L36,148 L34,148 L34,160 L32,160 L32,170 L28,170 L28,174 L26,174 L26,178 L22,178 L22,186 L20,186 L20,198 L19,198 L18,179 L19,179 L19,185 L21,185 L20,177 L16,169 L20,162 L17,163 L18,159 L21,158 L22,151 L27,145 L29,138 L30,102 L29,98 L31,84 L31,68 L30,58 L31,54 L30,52 L30,33 L31,31 L29,31 L29,33 L24,37 L24,35 L20,35 L19,32 L19,15 L17,15 L16,9 L17,7 L11,8 L12,11 L7,10 L5,9 L7,3 L1,5 L0,3 L3,3 L3,1 Z " fill="#DB9E71" transform="translate(658,348)"/>
<path d="M0,0 L1,3 L3,3 L4,0 L4,4 L2,4 L2,10 L0,10 L0,16 L-2,16 L-2,20 L-4,20 L-4,28 L-6,28 L-6,34 L-8,34 L-8,38 L-11,40 L-12,44 L-14,44 L-14,48 L-18,52 L-16,52 L-16,62 L-18,62 L-18,66 L-26,67 L-28,74 L-32,74 L-32,80 L-34,80 L-34,82 L-42,82 L-42,90 L-44,90 L-44,94 L-46,94 L-46,98 L-48,98 L-48,100 L-52,100 L-52,102 L-57,104 L-60,108 L-70,108 L-72,104 L-80,105 L-82,112 L-87,116 L-88,122 L-90,122 L-90,126 L-94,130 L-98,130 L-98,132 L-114,133 L-116,136 L-124,137 L-126,140 L-130,140 L-130,142 L-140,142 L-140,144 L-144,143 L-141,143 L-141,141 L-143,140 L-142,138 L-130,138 L-127,139 L-127,137 L-130,137 L-130,134 L-127,134 L-125,130 L-118,127 L-112,128 L-112,126 L-110,126 L-110,124 L-108,124 L-108,122 L-105,121 L-105,123 L-100,123 L-100,126 L-97,124 L-96,115 L-94,108 L-96,104 L-100,102 L-98,101 L-98,99 L-94,100 L-92,103 L-90,97 L-87,100 L-87,102 L-82,100 L-78,100 L-78,98 L-76,98 L-76,95 L-67,94 L-68,100 L-67,102 L-64,102 L-64,100 L-61,101 L-60,97 L-49,99 L-48,93 L-45,93 L-46,91 L-46,81 L-44,78 L-36,78 L-36,70 L-34,70 L-33,61 L-28,60 L-28,63 L-22,62 L-20,50 L-19,44 L-18,42 L-22,41 L-17,40 L-16,38 L-14,38 L-15,31 L-15,28 L-11,27 L-9,26 L-8,17 L-6,17 L-5,15 L-4,6 L-2,4 L-1,9 L1,9 Z M-97,108 L-95,109 L-97,110 Z M-98,110 Z M-100,111 L-98,112 Z " fill="#DBAE88" transform="translate(672,546)"/>
<path d="M0,0 L2,0 L3,7 L5,8 L5,11 L10,12 L11,18 L16,19 L18,24 L25,25 L31,26 L31,31 L33,31 L35,35 L35,39 L42,40 L42,42 L65,42 L65,44 L71,41 L75,42 L68,45 L63,47 L53,46 L52,45 L39,43 L37,42 L26,42 L27,39 L27,31 L23,30 L23,27 L17,26 L13,24 L13,22 L7,21 L7,16 L3,14 L0,7 Z M131,20 L135,20 L135,22 L138,23 L152,24 L148,31 L145,31 L145,34 L148,34 L148,36 L133,35 L134,40 L131,40 L131,42 L124,42 L124,44 L107,43 L107,41 L103,43 L97,44 L83,44 L83,42 L87,40 L75,41 L75,39 L77,39 L77,37 L90,33 L93,34 L97,35 L100,31 L107,30 L110,26 L123,26 L123,23 L131,24 Z " fill="#DFB58D" transform="translate(397,649)"/>
<path d="M0,0 L6,0 L6,4 L8,4 L8,2 L22,2 L22,0 L28,0 L28,1 L23,1 L23,3 L25,4 L22,6 L9,7 L7,9 L6,14 L10,14 L11,21 L6,20 L5,18 L-8,20 L-22,20 L-20,19 L-20,17 L-26,19 L-44,19 L-44,17 L-46,17 L-46,14 L-50,13 L-50,8 L-69,8 L-71,7 L-71,9 L-69,9 L-70,12 L-77,12 L-79,14 L-84,16 L-87,17 L-87,15 L-91,15 L-91,17 L-89,18 L-99,17 L-99,19 L-109,19 L-115,17 L-115,19 L-123,20 L-126,20 L-124,18 L-116,18 L-116,16 L-110,16 L-110,14 L-102,14 L-102,18 L-100,18 L-100,16 L-92,16 L-92,14 L-88,14 L-88,6 L-80,6 L-80,4 L-74,4 L-74,10 L-72,10 L-72,6 L-68,6 L-68,4 L-48,4 L-48,2 L-40,2 L-40,4 L-28,4 L-28,6 L-24,6 L-24,14 L-12,14 L-12,6 L-10,4 L-6,4 L-6,2 L0,2 Z " fill="#DAA07E" transform="translate(462,362)"/>
<path d="M0,0 L3,4 L5,4 L5,7 L2,9 L2,23 L4,24 L2,30 L2,47 L1,53 L5,55 L5,52 L8,53 L6,59 L10,59 L10,56 L13,57 L15,66 L17,66 L16,74 L19,84 L19,96 L26,97 L31,96 L31,89 L33,88 L33,93 L35,93 L35,96 L33,96 L32,114 L37,113 L38,116 L38,138 L36,138 L36,134 L32,132 L32,128 L28,126 L28,122 L26,122 L26,118 L24,118 L24,114 L20,112 L20,106 L18,106 L18,102 L16,102 L16,98 L14,98 L14,94 L12,94 L12,86 L10,86 L10,81 L7,81 L7,71 L5,71 L4,68 L3,71 L1,71 L2,60 L-1,60 L-1,63 L-3,63 L-2,57 L-2,48 L-4,48 L-3,36 L-2,20 L-1,16 Z M0,30 Z " fill="#E1B181" transform="translate(318,432)"/>
<path d="M0,0 L2,0 L2,6 L0,8 L2,9 L2,13 L7,14 L13,19 L13,21 L21,19 L26,19 L26,24 L30,25 L30,28 L32,28 L31,35 L36,36 L36,40 L41,39 L42,35 L44,35 L44,39 L54,39 L56,36 L54,35 L54,33 L60,33 L60,31 L64,28 L68,27 L74,27 L74,25 L81,25 L81,27 L83,27 L86,30 L86,27 L96,26 L100,23 L111,23 L109,26 L114,27 L114,28 L101,29 L98,33 L91,34 L88,38 L83,37 L81,36 L72,39 L68,39 L68,41 L66,41 L66,43 L56,46 L56,44 L33,44 L33,42 L26,41 L24,36 L24,33 L22,33 L22,28 L13,27 L9,26 L7,21 L2,20 L0,10 L-2,10 L-1,3 Z M28,25 Z " fill="#E6BE93" transform="translate(406,647)"/>
<path d="M0,0 L9,0 L9,2 L15,1 L15,4 L20,5 L23,4 L23,6 L33,6 L33,8 L56,8 L55,10 L47,12 L40,12 L35,15 L35,13 L31,14 L26,12 L18,12 L13,11 L1,12 L-2,10 L-5,11 L-5,9 L-13,10 L-13,8 L-15,8 L-15,6 L-28,6 L-29,7 L-37,8 L-37,11 L-47,12 L-54,16 L-54,10 L-56,12 L-57,14 L-63,17 L-64,24 L-63,26 L-67,28 L-70,26 L-72,29 L-75,28 L-73,26 L-72,21 L-70,21 L-70,18 L-65,14 L-62,14 L-61,10 L-59,10 L-58,6 L-41,6 L-34,4 L-33,2 L-25,2 L-15,1 L-1,1 Z " fill="#E9B08A" transform="translate(405,386)"/>
<path d="M0,0 L58,0 L58,2 L64,2 L66,6 L68,6 L70,11 L75,13 L76,16 L84,16 L83,18 L75,17 L73,14 L65,13 L65,11 L62,10 L62,8 L60,8 L60,6 L58,5 L63,5 L63,3 L58,4 L17,5 L16,6 L3,7 L-9,7 L-13,10 L-15,7 L-20,8 L-27,9 L-30,11 L-34,10 L-34,15 L-30,15 L-30,18 L-35,18 L-40,21 L-42,24 L-44,24 L-44,17 L-48,16 L-52,18 L-59,19 L-62,22 L-66,22 L-68,18 L-66,16 L-60,16 L-60,14 L-52,14 L-52,12 L-48,12 L-48,10 L-40,10 L-40,8 L-36,8 L-36,6 L-32,6 L-32,4 L-20,4 L-20,2 L0,2 Z M-18,6 Z M-46,14 Z " fill="#CEA37A" transform="translate(574,330)"/>
<path d="M0,0 L1,3 L3,3 L4,0 L6,3 L6,9 L5,11 L13,10 L14,12 L13,15 L18,14 L21,16 L23,13 L26,14 L26,17 L30,18 L30,26 L33,27 L29,27 L29,29 L40,28 L47,30 L55,31 L62,33 L70,32 L72,30 L79,27 L84,26 L91,26 L91,27 L100,28 L100,29 L86,29 L86,31 L106,29 L110,28 L110,30 L120,30 L127,31 L127,29 L122,29 L122,28 L134,29 L134,30 L128,30 L128,32 L120,32 L120,34 L100,34 L100,32 L86,32 L86,34 L81,36 L80,38 L76,38 L76,40 L54,40 L54,38 L48,38 L48,36 L40,36 L40,34 L36,34 L34,31 L28,30 L26,27 L22,26 L22,22 L18,20 L16,17 L12,16 L10,13 L4,12 L4,8 L2,8 L2,4 L0,4 Z " fill="#DBB38E" transform="translate(394,662)"/>
<path d="M0,0 L1,3 L3,3 L4,0 L4,4 L2,4 L2,10 L0,10 L0,16 L-2,16 L-2,20 L-4,20 L-4,28 L-6,28 L-6,34 L-8,34 L-8,38 L-11,40 L-12,44 L-14,44 L-14,48 L-18,52 L-16,52 L-16,62 L-18,62 L-18,66 L-26,67 L-28,74 L-32,74 L-32,80 L-34,80 L-34,82 L-42,82 L-42,90 L-44,90 L-44,94 L-46,94 L-46,98 L-48,98 L-48,100 L-52,100 L-52,102 L-57,104 L-60,108 L-70,108 L-70,107 L-61,107 L-61,103 L-59,103 L-58,100 L-53,101 L-53,99 L-55,98 L-49,99 L-48,93 L-45,93 L-46,91 L-46,81 L-44,78 L-36,78 L-36,70 L-34,70 L-33,61 L-28,60 L-28,63 L-22,62 L-20,50 L-19,44 L-18,42 L-22,41 L-17,40 L-16,38 L-14,38 L-15,31 L-15,28 L-11,27 L-9,26 L-8,17 L-6,17 L-5,15 L-4,6 L-2,4 L-1,9 L1,9 Z " fill="#DA9A7C" transform="translate(672,546)"/>
<path d="M0,0 L1,0 L2,14 L1,17 L3,17 L4,13 L3,23 L5,23 L5,18 L6,18 L6,24 L5,26 L7,26 L8,24 L11,25 L12,37 L14,42 L14,58 L13,65 L15,65 L17,53 L22,52 L22,49 L25,49 L25,58 L24,59 L22,68 L27,68 L25,75 L23,72 L20,73 L19,81 L21,81 L21,79 L24,80 L24,83 L21,83 L21,85 L24,86 L20,86 L20,82 L18,82 L18,78 L16,78 L16,70 L14,70 L14,66 L12,66 L12,58 L10,58 L10,52 L8,52 L8,42 L6,42 L6,38 L4,38 L4,34 L2,34 L2,18 L0,18 L0,14 L-4,14 L-4,10 L-6,10 L-6,6 L-8,6 L-7,2 L-7,5 L-5,5 L-5,2 L-1,2 Z " fill="#DCB17E" transform="translate(370,576)"/>
<path d="M0,0 L21,1 L22,6 L25,7 L25,10 L27,10 L27,13 L23,14 L23,12 L19,12 L19,14 L15,14 L12,13 L11,15 L3,15 L-1,13 L-17,13 L-24,14 L-25,16 L-31,17 L-47,17 L-47,15 L-52,16 L-53,24 L-54,24 L-55,14 L-52,12 L-44,12 L-44,10 L-39,10 L-38,11 L-28,12 L-28,10 L-20,10 L-20,8 L-16,8 L-16,10 L-12,7 L-7,5 L-6,4 L1,4 L2,2 L0,2 Z " fill="#DAA183" transform="translate(391,369)"/>
<path d="M0,0 L2,0 L3,10 L2,28 L4,28 L4,36 L2,36 L1,40 L-1,50 L-5,52 L-5,54 L-3,54 L-5,60 L-5,63 L-2,69 L-2,77 L-4,78 L-4,90 L-6,90 L-6,93 L-8,94 L-8,99 L-10,99 L-12,96 L-18,96 L-17,92 L-12,92 L-10,89 L-10,74 L-9,68 L-13,69 L-13,66 L-10,66 L-9,62 L-9,59 L-11,57 L-8,51 L-7,47 L-7,44 L-6,42 L-8,42 L-6,33 L-4,29 L-4,9 L-2,4 L0,4 Z M-9,42 Z " fill="#E1A27E" transform="translate(681,456)"/>
<path d="M0,0 L5,0 L5,2 L2,3 L2,5 L4,5 L7,8 L7,10 L15,10 L17,14 L25,14 L29,16 L29,18 L31,18 L33,18 L31,23 L27,22 L6,16 L2,15 L2,11 L0,11 L0,13 L-2,13 L-3,11 L-6,10 L-5,3 L-8,4 L-13,4 L-18,6 L-23,6 L-25,4 L-31,8 L-32,11 L-39,11 L-42,8 L-46,7 L-57,7 L-58,10 L-64,7 L-64,3 L-54,3 L-42,2 L-41,1 Z " fill="#DDAF84" transform="translate(632,333)"/>
<path d="M0,0 L5,0 L5,3 L7,3 L7,1 L9,1 L9,5 L18,6 L33,11 L34,15 L27,16 L27,18 L21,19 L21,17 L11,16 L5,15 L1,13 L-3,14 L-12,13 L-15,14 L-15,11 L-19,12 L-27,11 L-27,8 L-29,7 L-26,6 L-17,6 L-17,2 L-9,2 L-11,8 L-9,8 L-9,6 L2,5 L-1,1 Z M-9,1 Z " fill="#ECBC90" transform="translate(625,343)"/>
<path d="M0,0 L2,2 L1,8 L0,17 L3,18 L3,16 L5,16 L6,22 L3,29 L4,34 L6,34 L6,42 L3,43 L4,48 L8,49 L6,53 L5,59 L10,61 L10,63 L14,60 L14,62 L16,63 L13,64 L12,66 L10,66 L10,64 L5,65 L-2,62 L-2,58 L-5,57 L-3,55 L-2,49 L-5,48 L-3,44 L-5,42 L-7,29 L-6,18 L-4,17 L-4,10 L-5,3 L0,2 Z M2,48 Z M-8,26 Z M-9,27 Z " fill="#F0C58F" transform="translate(410,598)"/>
<path d="M0,0 L1,3 L3,3 L4,0 L3,11 L5,11 L5,5 L6,5 L6,13 L5,15 L7,15 L8,12 L9,14 L16,15 L21,14 L21,7 L23,6 L23,11 L25,11 L25,14 L23,14 L22,32 L27,31 L28,34 L28,56 L26,56 L26,52 L22,50 L22,46 L18,44 L18,40 L16,40 L16,36 L14,36 L14,32 L10,30 L10,24 L8,24 L8,20 L6,20 L6,16 L4,16 L4,12 L2,12 L2,4 L0,4 Z " fill="#D4A779" transform="translate(328,514)"/>
<path d="M0,0 L6,0 L6,4 L8,4 L8,2 L22,2 L22,0 L28,0 L28,1 L23,1 L23,3 L25,4 L22,6 L9,7 L7,9 L6,14 L10,14 L11,21 L6,20 L5,18 L-8,20 L-22,20 L-20,19 L-20,17 L-23,16 L-22,14 L-12,14 L-12,6 L-10,4 L-6,4 L-6,2 L0,2 Z " fill="#D79F79" transform="translate(462,362)"/>
<path d="M0,0 L3,4 L2,10 L3,18 L3,34 L1,50 L2,52 L1,88 L-2,96 L-4,97 L-4,94 L-2,94 L-3,88 L-2,86 L-4,86 L-5,79 L-4,67 L-5,61 L-4,58 L-6,58 L-6,50 L-3,42 L-2,32 L-1,10 L-1,2 Z M-5,97 L-5,100 Z M-7,100 Z " fill="#E0A275" transform="translate(687,398)"/>
<path d="M0,0 L5,2 L7,6 L5,16 L4,17 L4,26 L6,36 L8,49 L10,51 L9,54 L8,55 L7,62 L6,66 L8,66 L9,70 L4,69 L4,66 L1,65 L0,51 L-1,48 L-1,38 L1,32 L-1,32 L-1,21 L-2,2 Z M4,33 Z M3,34 L4,36 Z " fill="#EABF8B" transform="translate(398,591)"/>
<path d="M0,0 L2,1 L4,25 L4,30 L3,35 L3,38 L6,37 L7,61 L9,61 L9,65 L7,65 L6,75 L6,90 L2,101 L0,101 L0,89 L3,85 L0,86 L0,69 L2,69 L0,59 L0,31 L-2,31 L-1,27 L0,25 L0,6 L-1,4 Z " fill="#EBAE82" transform="translate(672,395)"/>
<path d="M0,0 L4,0 L4,2 L8,2 L8,4 L14,4 L14,6 L19,7 L22,13 L30,14 L32,18 L34,18 L34,26 L30,26 L30,30 L32,30 L31,34 L31,31 L29,31 L29,33 L24,37 L24,35 L20,35 L19,32 L19,15 L17,15 L16,9 L17,7 L11,8 L12,11 L7,10 L5,9 L7,3 L1,5 L0,3 L3,3 L3,1 Z " fill="#DAA276" transform="translate(658,348)"/>
<path d="M0,0 L1,0 L1,8 L3,8 L3,14 L5,14 L5,60 L3,60 L3,114 L1,114 L1,126 L-1,126 L-1,136 L-5,136 L-5,140 L-7,140 L-7,144 L-11,143 L-8,143 L-9,139 L-6,139 L-7,137 L-7,130 L-5,130 L-4,126 L-4,135 L-2,135 L-3,126 L-3,114 L-2,114 L-2,125 L0,125 L-1,114 L-1,98 L0,98 L0,113 L2,113 L1,60 L1,14 L2,9 L0,9 L0,14 L-1,14 Z " fill="#BF8962" transform="translate(691,382)"/>
<path d="M0,0 L3,0 L3,2 L7,3 L7,6 L13,7 L13,9 L15,9 L14,13 L11,20 L10,29 L8,35 L4,38 L3,29 L-1,24 L0,18 L2,9 L-7,7 L-12,6 L-12,4 L-4,3 L-4,1 Z " fill="#F0B282" transform="translate(656,358)"/>
<path d="M0,0 L1,2 L1,15 L-2,16 L-3,21 L-7,26 L-9,26 L-9,30 L-14,31 L-17,42 L-18,43 L-19,66 L-20,66 L-20,44 L-22,44 L-22,67 L-23,67 L-23,43 L-21,43 L-21,29 L-19,29 L-19,25 L-17,25 L-17,19 L-15,17 L-9,17 L-9,15 L-5,15 L-3,11 L-1,11 L-1,1 Z " fill="#CC9976" transform="translate(335,383)"/>
<path d="M0,0 L3,1 L4,8 L6,8 L6,18 L4,30 L6,30 L7,41 L5,45 L7,45 L7,42 L10,42 L10,51 L9,53 L11,53 L11,48 L13,50 L13,53 L15,53 L16,55 L16,61 L15,63 L18,64 L14,64 L14,60 L12,60 L12,56 L8,54 L8,48 L4,46 L4,42 L0,40 L0,32 L-2,32 L-2,18 L0,18 Z " fill="#DCAD80" transform="translate(310,450)"/>
<path d="M0,0 L2,2 L1,8 L6,10 L7,12 L12,12 L11,15 L12,16 L12,32 L15,33 L14,38 L14,48 L16,48 L15,59 L13,65 L11,65 L11,42 L9,37 L8,25 L3,26 L3,23 L1,23 L1,17 L-1,17 L-1,2 Z " fill="#DDAF79" transform="translate(372,576)"/>
<path d="M0,0 L4,1 L3,6 L4,8 L7,8 L7,6 L10,7 L11,3 L18,5 L18,7 L13,7 L12,9 L10,9 L10,13 L0,13 L-1,10 L-9,11 L-11,18 L-16,22 L-17,28 L-19,28 L-19,32 L-23,36 L-27,35 L-24,35 L-24,31 L-20,31 L-21,29 L-21,21 L-18,14 L-16,15 L-14,12 L-14,17 L-12,17 L-14,8 L-11,6 L-7,6 L-7,4 L-5,4 L-5,1 Z " fill="#DBAA83" transform="translate(601,640)"/>
<path d="M0,0 L1,0 L2,14 L1,17 L3,17 L4,13 L3,23 L5,23 L5,18 L6,18 L6,24 L5,26 L7,26 L8,24 L11,25 L12,38 L10,42 L9,51 L11,51 L11,42 L12,42 L12,58 L10,58 L10,52 L8,52 L8,42 L6,42 L6,38 L4,38 L4,34 L2,34 L2,18 L0,18 L0,14 L-4,14 L-4,10 L-6,10 L-6,6 L-8,6 L-7,2 L-7,5 L-5,5 L-5,2 L-1,2 Z " fill="#CFA471" transform="translate(370,576)"/>
<path d="M0,0 L11,0 L9,3 L14,4 L14,5 L1,6 L-2,10 L-9,11 L-12,15 L-17,14 L-19,13 L-28,16 L-32,16 L-32,18 L-34,18 L-32,13 L-26,9 L-22,7 L-15,7 L-14,4 L-4,3 Z " fill="#E6BC8F" transform="translate(506,670)"/>
<path d="M0,0 L7,0 L7,2 L9,2 L12,5 L12,7 L20,7 L22,11 L30,11 L34,13 L34,15 L36,15 L38,15 L36,20 L32,19 L11,13 L7,12 L7,8 L5,8 L5,10 L3,10 L2,8 L-1,7 Z " fill="#DCAE8A" transform="translate(627,336)"/>
<path d="M0,0 L6,0 L6,6 L8,6 L8,2 L12,2 L12,0 L31,0 L31,1 L13,1 L13,3 L9,3 L9,5 L11,5 L10,8 L3,8 L1,10 L-4,12 L-7,13 L-7,11 L-11,11 L-11,13 L-9,14 L-19,13 L-19,15 L-29,15 L-35,13 L-35,15 L-43,16 L-46,16 L-44,14 L-36,14 L-36,12 L-30,12 L-30,10 L-22,10 L-22,14 L-20,14 L-20,12 L-12,12 L-12,10 L-8,10 L-8,2 L0,2 Z " fill="#C99177" transform="translate(382,366)"/>
<path d="M0,0 L2,0 L2,2 L14,2 L28,0 L26,6 L20,11 L10,11 L8,10 L8,8 L0,8 L-1,5 L-6,4 L-16,3 L-16,2 L-8,1 Z " fill="#DCA580" transform="translate(440,379)"/>
<path d="M0,0 L1,3 L3,3 L4,0 L6,3 L6,9 L5,11 L13,10 L14,12 L13,15 L18,14 L21,16 L23,13 L26,14 L26,17 L30,18 L30,26 L33,27 L29,27 L29,29 L37,28 L38,30 L37,33 L39,32 L48,32 L48,33 L41,33 L41,35 L48,35 L48,36 L40,36 L40,34 L36,34 L34,31 L28,30 L26,27 L22,26 L22,22 L18,20 L16,17 L12,16 L10,13 L4,12 L4,8 L2,8 L2,4 L0,4 Z " fill="#DBB489" transform="translate(394,662)"/>
<path d="M0,0 L5,0 L5,3 L7,3 L7,1 L9,1 L9,5 L18,6 L33,11 L34,15 L27,16 L27,18 L21,19 L21,17 L17,17 L16,13 L12,11 L11,7 L5,6 L2,5 L-1,1 Z " fill="#E2B38E" transform="translate(625,343)"/>
<path d="M0,0 L10,0 L10,22 L0,22 L0,16 L2,16 L2,12 L0,12 Z " fill="#C6C79E" transform="translate(1014,110)"/>
<path d="M0,0 L5,1 L5,6 L9,6 L9,9 L4,9 L-1,12 L-3,15 L-5,15 L-5,8 L-9,7 L-13,9 L-20,10 L-23,13 L-27,13 L-29,9 L-27,7 L-21,7 L-21,5 L-13,5 L-13,3 L-9,2 L0,2 Z M-7,5 Z " fill="#DBB085" transform="translate(535,339)"/>
<path d="M0,0 L1,2 L1,25 L-2,25 L-1,29 L-4,29 L-4,38 L-6,38 L-6,50 L-7,50 L-8,31 L-7,31 L-7,37 L-5,37 L-6,29 L-10,21 L-6,14 L-9,15 L-8,11 L-5,10 L-4,3 Z " fill="#D59778" transform="translate(684,496)"/>
<path d="M0,0 L10,4 L11,8 L13,8 L17,21 L15,34 L13,34 L13,30 L11,30 L11,22 L9,22 L8,19 L5,18 L5,8 L3,8 L2,5 L1,8 L-1,8 Z " fill="#DBAF82" transform="translate(320,495)"/>
<path d="M0,0 L11,1 L15,0 L18,2 L33,5 L33,7 L31,7 L31,10 L22,9 L5,9 L5,7 L1,8 L1,6 L-3,4 L-1,4 Z M5,6 Z " fill="#F6C08F" transform="translate(613,355)"/>
<path d="M0,0 L3,3 L5,7 L5,15 L3,16 L3,28 L1,28 L1,31 L-1,32 L-1,37 L-3,37 L-5,34 L-11,34 L-10,30 L-5,30 L-3,27 L-3,12 L-2,4 Z " fill="#DB9E7D" transform="translate(674,518)"/>
<path d="M0,0 L2,2 L1,8 L0,17 L3,18 L3,16 L5,16 L6,22 L3,29 L4,34 L6,34 L6,42 L3,43 L2,45 L1,38 L1,26 L-3,25 L-4,20 L-4,10 L-5,3 L0,2 Z " fill="#F7CD91" transform="translate(410,598)"/>
<path d="M0,0 L2,1 L4,25 L4,30 L3,35 L4,38 L4,62 L3,74 L1,77 L0,69 L2,69 L0,59 L0,31 L-2,31 L-1,27 L0,25 L0,6 L-1,4 Z " fill="#EFB285" transform="translate(672,395)"/>
<path d="M0,0 L4,2 L4,7 L1,7 L1,14 L-1,14 L-1,16 L-9,16 L-9,24 L-11,24 L-11,28 L-13,28 L-13,32 L-15,32 L-15,34 L-19,34 L-19,36 L-24,38 L-27,42 L-37,42 L-37,41 L-28,41 L-28,37 L-26,37 L-25,34 L-20,35 L-20,33 L-22,32 L-16,33 L-15,27 L-12,27 L-13,25 L-13,15 L-11,12 L-3,12 L-3,4 L-1,4 Z " fill="#CD9B81" transform="translate(639,612)"/>
<path d="M0,0 L7,0 L7,2 L9,2 L11,6 L3,6 L-4,11 L-17,12 L-20,10 L-20,8 L-14,8 L-14,6 L-10,3 L-6,2 L0,2 Z " fill="#EEC496" transform="translate(480,672)"/>
<path d="M0,0 L2,0 L3,10 L2,21 L-1,26 L-1,32 L-3,37 L-4,42 L-6,43 L-8,42 L-6,33 L-4,29 L-4,9 L-2,4 L0,4 Z M-9,42 Z " fill="#E6A87F" transform="translate(681,456)"/>
<path d="M0,0 L2,3 L4,3 L6,13 L11,18 L11,23 L17,24 L17,26 L23,28 L22,32 L17,30 L14,30 L14,26 L6,26 L6,18 L5,16 L4,18 L2,18 L1,15 L-2,14 L-2,12 L1,12 L0,9 L-2,8 L-2,10 L-4,10 L-3,2 Z " fill="#DBB085" transform="translate(393,647)"/>
<path d="M0,0 L1,0 L2,45 L2,99 L1,99 L1,49 L-1,49 L-1,99 L-2,99 L-2,45 L0,45 Z " fill="#231912" transform="translate(696,397)"/>
<path d="M0,0 L13,1 L13,3 L15,3 L15,5 L23,4 L23,6 L25,6 L26,4 L27,7 L23,9 L13,7 L13,5 L1,6 L-8,7 L-11,10 L-14,9 L-12,6 L-9,6 L-10,2 L-1,1 Z " fill="#EFB48D" transform="translate(377,391)"/>
<path d="M0,0 L16,0 L18,2 L16,3 L8,3 L7,5 L5,4 L3,6 L2,8 L-4,11 L-5,18 L-4,20 L-8,22 L-11,20 L-13,23 L-16,22 L-14,20 L-13,15 L-11,15 L-11,12 L-6,8 L-3,8 L-2,4 L0,4 Z " fill="#E5AE85" transform="translate(346,392)"/>
<path d="M0,0 L5,2 L7,6 L5,16 L4,17 L3,26 L1,32 L-1,32 L-1,21 L-2,2 Z " fill="#EBBC85" transform="translate(398,591)"/>
<path d="M0,0 L4,1 L3,2 L10,1 L26,2 L26,3 L10,4 L8,7 L0,8 L-2,11 L-6,11 L-6,13 L-16,13 L-16,15 L-20,14 L-17,14 L-17,12 L-19,11 L-18,9 L-6,9 L-3,10 L-3,8 L-6,8 L-6,5 L-3,5 L-1,1 Z " fill="#D2A781" transform="translate(548,675)"/>
<path d="M0,0 L2,0 L3,16 L3,27 L1,28 L1,37 L-1,37 L-2,32 L-4,32 L-4,17 L-4,14 L-2,8 Z " fill="#DB9B77" transform="translate(688,480)"/>
<path d="M0,0 L6,0 L10,2 L10,4 L13,4 L14,9 L13,24 L12,26 L10,26 L6,21 L7,15 L9,6 L0,4 L-5,3 L-5,1 Z " fill="#F6B583" transform="translate(649,361)"/>
<path d="M0,0 L1,3 L3,3 L4,0 L4,4 L2,4 L2,10 L0,10 L0,16 L-2,16 L-2,20 L-4,20 L-4,28 L-6,28 L-6,34 L-8,34 L-8,38 L-11,39 L-13,32 L-9,29 L-9,33 L-7,33 L-8,28 L-8,17 L-6,17 L-5,15 L-4,6 L-2,4 L-1,9 L1,9 Z " fill="#C0876E" transform="translate(672,546)"/>
<path d="M0,0 L3,3 L3,5 L5,5 L7,9 L7,14 L3,14 L2,12 L0,14 L-3,21 L-6,24 L-6,18 L-4,11 L-6,7 L-10,5 L-8,4 L-8,2 L-4,3 L-2,6 Z M-7,11 L-5,12 L-7,13 Z M-8,13 Z M-10,14 L-8,15 Z " fill="#E4B58D" transform="translate(582,643)"/>
<path d="M0,0 L2,0 L2,9 L1,12 L0,28 L-2,38 L-4,38 L-5,40 L-5,31 L-7,30 L-5,30 L-5,7 L-1,5 Z " fill="#DCA97C" transform="translate(318,420)"/>
<path d="M0,0 L17,0 L23,7 L22,9 L11,7 L7,5 L3,6 L-6,5 L-9,6 L-8,2 L-5,1 Z " fill="#EFBD92" transform="translate(619,351)"/>
<path d="M0,0 L10,0 L10,1 L2,1 L2,3 L12,2 L12,7 L10,6 L10,4 L2,5 L0,12 L-5,16 L-6,22 L-8,22 L-8,26 L-12,30 L-16,29 L-13,29 L-13,25 L-9,25 L-10,23 L-10,15 L-7,8 L-5,9 L-3,6 L-3,11 L-1,11 L-3,2 Z " fill="#C59B76" transform="translate(590,646)"/>
<path d="M0,0 L1,4 L0,6 L2,7 L3,10 L3,26 L1,42 L-1,42 L-2,35 L-1,23 L-2,17 L-1,14 L-3,14 L-3,6 Z " fill="#E3A579" transform="translate(684,442)"/>
<path d="M0,0 L3,0 L3,2 L13,2 L20,3 L20,1 L15,1 L15,0 L27,1 L27,2 L21,2 L21,4 L13,4 L13,6 L-7,6 L-7,4 L-21,4 L-21,3 L-1,1 Z " fill="#C09C7B" transform="translate(501,690)"/>
<path d="M0,0 L6,1 L2,3 L0,6 L-4,6 L-4,8 L-26,8 L-26,6 L-32,6 L-32,5 L-26,4 L-4,4 L-1,5 Z " fill="#C7A280" transform="translate(474,694)"/>
<path d="M0,0 L3,1 L1,7 L5,7 L5,4 L8,5 L10,14 L12,14 L11,19 L8,19 L7,15 L1,13 L1,8 L-2,8 L-3,3 L0,3 Z " fill="#E3B789" transform="translate(323,484)"/>
<path d="M0,0 L3,2 L3,18 L4,20 L3,22 L5,22 L5,24 L7,25 L6,29 L8,29 L9,33 L4,32 L4,29 L1,28 L0,14 L-1,11 L-1,1 Z " fill="#E5BA88" transform="translate(398,628)"/>
<path d="M0,0 L3,0 L4,8 L4,16 L6,17 L10,19 L8,23 L7,29 L12,31 L12,33 L7,33 L4,28 L3,22 L3,14 L0,13 Z M4,18 Z " fill="#F2C88F" transform="translate(408,628)"/>
<path d="M0,0 L2,0 L2,4 L12,4 L13,2 L26,1 L24,7 L3,7 L-3,6 L-1,4 Z " fill="#E8BF98" transform="translate(448,682)"/>
<path d="M0,0 L7,1 L9,4 L12,3 L21,6 L20,8 L16,8 L16,10 L10,11 L10,9 L6,9 L5,5 L1,3 Z " fill="#EBB38A" transform="translate(636,351)"/>
<path d="M0,0 L4,0 L4,2 L17,2 L20,6 L6,6 L-1,8 L-4,5 L-7,4 L-1,2 Z " fill="#E6BA8E" transform="translate(575,346)"/>
<path d="M0,0 L6,0 L6,4 L8,4 L8,2 L22,2 L22,0 L28,0 L28,1 L23,1 L23,3 L25,4 L9,3 L9,5 L3,7 L2,4 L-5,3 L-5,5 L-8,5 L-7,9 L-9,13 L-9,7 L-11,7 L-11,14 L-12,14 L-12,6 L-10,4 L-6,4 L-6,2 L0,2 Z " fill="#B78A68" transform="translate(462,362)"/>
<path d="M0,0 L1,0 L1,15 L3,16 L2,28 L0,28 L0,38 L-4,38 L-4,42 L-6,42 L-6,46 L-10,45 L-7,45 L-8,41 L-5,41 L-6,39 L-6,32 L-4,32 L-3,28 L-3,37 L-1,37 L-2,28 L-2,16 L-1,16 L-1,27 L1,27 L0,16 Z " fill="#BB8364" transform="translate(690,480)"/>
<path d="M0,0 L2,2 L1,8 L0,17 L0,25 L-3,25 L-4,20 L-4,10 L-5,3 L0,2 Z " fill="#F4C78E" transform="translate(410,598)"/>
<path d="M0,0 L2,0 L3,3 L-4,9 L-9,11 L-9,9 L-13,10 L-15,8 L-13,8 L-13,6 L-11,6 L-12,2 L0,2 Z M-5,9 Z M-7,10 L-5,11 L-7,12 Z " fill="#DFAE82" transform="translate(491,378)"/>
<path d="M0,0 L3,1 L0,6 L-4,9 L-14,9 L-14,7 L-12,5 L-7,1 Z " fill="#E1A983" transform="translate(464,381)"/>
<path d="M0,0 L1,0 L2,18 L2,32 L1,39 L4,40 L4,42 L0,40 L0,32 L-2,32 L-2,18 L0,18 Z " fill="#B8916D" transform="translate(310,450)"/>
<path d="M0,0 L1,3 L3,3 L4,0 L6,3 L6,9 L5,11 L13,10 L14,12 L13,15 L18,14 L23,17 L23,19 L21,19 L22,22 L18,20 L16,17 L12,16 L10,13 L4,12 L4,8 L2,8 L2,4 L0,4 Z " fill="#C39E76" transform="translate(394,662)"/>
<path d="M0,0 L1,3 L3,3 L3,0 L6,0 L6,9 L5,11 L7,11 L7,6 L9,8 L9,11 L11,11 L12,13 L12,19 L11,21 L14,22 L10,22 L10,18 L8,18 L8,14 L4,12 L4,6 L0,4 Z " fill="#C79E75" transform="translate(314,492)"/>
<path d="M0,0 L10,0 L8,4 L5,5 L4,16 L0,17 Z " fill="#FBC389" transform="translate(600,448)"/>
<path d="M0,0 L2,0 L3,4 L3,20 L2,27 L4,27 L5,25 L5,32 L3,32 L3,28 L1,28 L0,13 L-2,13 L-2,4 Z " fill="#D0A674" transform="translate(381,614)"/>
<path d="M0,0 L6,0 L8,4 L10,4 L12,9 L17,11 L18,14 L26,14 L25,16 L17,15 L15,12 L7,11 L7,9 L4,8 L4,6 L2,6 L2,4 L0,3 L5,3 L5,1 L0,1 Z " fill="#BF9778" transform="translate(632,332)"/>
<path d="M0,0 L2,1 L1,3 L8,3 L7,6 L0,6 L0,8 L-17,7 L-17,5 L-8,4 Z " fill="#DAAE8B" transform="translate(521,685)"/>
<path d="M0,0 L4,2 L6,11 L7,12 L14,12 L16,10 L16,12 L18,13 L15,14 L14,16 L12,16 L12,14 L7,15 L0,12 L0,8 L-3,7 L-1,5 Z " fill="#EEC596" transform="translate(408,648)"/>
<path d="M0,0 L1,0 L2,14 L-4,14 L-4,10 L-6,10 L-6,6 L-8,6 L-7,2 L-7,5 L-5,5 L-5,2 L-1,2 Z " fill="#DBAC79" transform="translate(370,576)"/>
<path d="M0,0 L1,0 L1,7 L3,7 L3,1 L4,1 L4,9 L3,11 L5,11 L6,8 L8,8 L7,25 L9,25 L9,16 L10,16 L10,32 L8,32 L8,26 L6,26 L6,16 L4,16 L4,12 L2,12 L2,8 L0,8 Z " fill="#BB9468" transform="translate(372,602)"/>
<path d="M0,0 L8,0 L8,4 L10,4 L10,2 L18,2 L18,0 L22,1 L19,1 L19,3 L21,4 L11,3 L11,5 L1,5 L-5,3 L-5,5 L-13,6 L-16,6 L-14,4 L-6,4 L-6,2 L0,2 Z " fill="#B4846C" transform="translate(352,376)"/>
<path d="M0,0 L4,1 L1,1 L1,3 L4,4 L0,6 L-7,7 L-10,10 L-14,10 L-16,6 L-14,4 L-8,4 L-8,2 L0,2 Z " fill="#C69F78" transform="translate(522,342)"/>
<path d="M0,0 L9,0 L9,8 L4,8 L4,4 L-1,6 L-2,8 L-8,8 L-8,4 L0,4 Z " fill="#E3A585" transform="translate(640,580)"/>
<path d="M0,0 L1,0 L1,8 L3,8 L3,1 L4,1 L4,9 L2,9 L2,13 L0,13 L0,17 L-2,17 L-2,19 L-6,19 L-6,21 L-11,23 L-14,27 L-24,27 L-24,26 L-15,26 L-15,22 L-13,22 L-12,19 L-7,20 L-7,18 L-9,17 L-3,18 L-2,12 L1,12 L0,10 Z " fill="#B4886D" transform="translate(626,627)"/>
<path d="M0,0 L9,1 L11,5 L13,5 L13,13 L9,13 L9,17 L11,17 L10,21 L10,18 L8,18 L7,20 L5,19 L5,17 L8,17 L7,4 L8,2 L0,2 Z " fill="#BA8862" transform="translate(679,361)"/>
<path d="M0,0 L4,0 L4,2 L8,2 L8,4 L14,4 L14,6 L19,7 L20,12 L17,8 L11,8 L12,11 L7,10 L5,9 L7,3 L1,5 L0,3 L3,3 L3,1 Z " fill="#C19474" transform="translate(658,348)"/>
<path d="M0,0 L21,1 L20,4 L2,4 L1,5 L-4,5 L-2,1 Z " fill="#D9AC83" transform="translate(554,673)"/>
<path d="M0,0 L2,3 L3,5 L3,14 L6,16 L7,14 L7,21 L5,21 L5,17 L1,15 L1,11 L-3,9 L-3,5 L-5,5 L-4,1 L-4,4 L-2,4 L-2,1 Z " fill="#BF9668" transform="translate(349,549)"/>
<path d="M0,0 L3,0 L3,8 L5,8 L6,14 L6,25 L7,29 L3,29 L3,12 L1,6 L-2,5 L-3,1 Z " fill="#DEA57C" transform="translate(672,355)"/>
<path d="M0,0 L5,0 L5,5 L9,6 L9,9 L11,9 L10,12 L9,10 L5,10 L5,7 L-1,6 L-1,3 L-8,3 L-4,1 Z M7,6 Z " fill="#EDC594" transform="translate(427,666)"/>
<path d="M0,0 L7,2 L7,4 L2,4 L1,6 L-1,6 L-1,10 L-10,10 L-11,6 L-7,5 L-4,5 L-4,3 L-1,4 Z " fill="#D9A789" transform="translate(612,643)"/>
<path d="M0,0 L1,3 L3,3 L4,1 L3,7 L5,7 L6,4 L8,7 L8,14 L12,15 L13,19 L8,20 L8,16 L4,14 L4,8 L2,8 L2,4 L0,4 Z " fill="#C99F73" transform="translate(334,530)"/>
<path d="M0,0 L1,2 L1,15 L-2,16 L-2,19 L-16,19 L-15,17 L-9,17 L-9,15 L-5,15 L-3,11 L-1,11 L-1,1 Z " fill="#BB8C6D" transform="translate(335,383)"/>
<path d="M0,0 L1,4 L3,4 L3,8 L5,8 L5,12 L7,12 L9,19 L11,20 L11,24 L13,24 L12,28 L12,25 L7,24 L5,18 L6,13 L1,13 L1,7 L2,5 L-1,5 Z " fill="#1F1912" transform="translate(331,526)"/>
<path d="M0,0 L11,0 L11,1 L1,1 L1,3 L12,3 L12,4 L5,5 L2,7 L-7,5 L-7,7 L-4,8 L-16,7 L-16,6 L-8,6 L-8,4 L-4,4 L-4,2 L0,2 Z " fill="#BE9870" transform="translate(542,334)"/>
<path d="M0,0 L1,3 L3,3 L4,0 L4,4 L2,4 L2,10 L0,10 L0,16 L-3,16 L-3,19 L-7,19 L-5,15 L-4,6 L-2,4 L-1,9 L1,9 Z " fill="#C48B72" transform="translate(672,546)"/>
<path d="M0,0 L4,1 L1,1 L2,8 L2,20 L1,20 L1,12 L-1,12 L0,24 L-5,25 L-5,30 L-6,30 L-6,24 L-4,24 L-4,20 L-2,20 L-2,8 L0,8 Z " fill="#251A15" transform="translate(680,526)"/>
<path d="M0,0 L4,0 L4,3 L7,3 L7,5 L13,5 L14,2 L14,6 L6,7 L4,14 L0,13 L3,13 L3,8 L1,8 L0,11 L-1,1 Z " fill="#C69278" transform="translate(640,606)"/>
<path d="M0,0 L12,1 L8,5 L7,7 L0,7 L-3,4 L-7,2 Z " fill="#DFB388" transform="translate(593,337)"/>
<path d="M0,0 L1,0 L2,8 L1,14 L-1,14 L-1,18 L-5,22 L-9,21 L-6,21 L-6,17 L-2,17 L-3,15 L-3,7 Z " fill="#CFA583" transform="translate(583,654)"/>
<path d="M0,0 L3,3 L3,5 L5,5 L7,9 L7,14 L3,14 L2,12 L-1,14 L-2,9 Z " fill="#DFAF88" transform="translate(582,643)"/>
<path d="M0,0 L14,0 L12,2 L9,3 L-2,4 L-10,7 L-13,6 L-7,1 Z " fill="#F3B98E" transform="translate(376,396)"/>
<path d="M0,0 L1,0 L1,5 L3,5 L3,8 L1,8 L-1,24 L-3,21 L-3,8 L-1,8 L-1,1 Z " fill="#E1B17E" transform="translate(350,520)"/>
<path d="M0,0 L1,3 L6,2 L7,7 L15,6 L16,8 L15,11 L17,10 L26,10 L26,11 L19,11 L19,13 L26,13 L26,14 L18,14 L18,12 L14,12 L12,9 L6,8 L4,5 L0,4 Z " fill="#B89777" transform="translate(416,684)"/>
<path d="M0,0 L5,1 L6,5 L8,5 L12,18 L9,18 L7,13 L4,7 L2,6 L2,4 L0,4 Z " fill="#DFB286" transform="translate(325,498)"/>
<path d="M0,0 L5,0 L7,4 L-1,4 L-8,9 L-10,9 L-9,4 L-4,3 L-4,1 Z " fill="#EAC093" transform="translate(484,674)"/>
<path d="M0,0 L6,3 L9,9 L13,9 L13,11 L20,12 L21,14 L12,13 L8,12 L6,7 L1,6 Z " fill="#E5BD8E" transform="translate(407,661)"/>
<path d="M0,0 L2,3 L0,11 L-3,15 L-7,16 L-8,18 L-10,18 L-8,14 L-6,14 L-6,10 L-4,10 L-3,5 L0,4 Z " fill="#18110E" transform="translate(664,580)"/>
<path d="M0,0 L4,1 L4,4 L-6,5 L-13,9 L-12,3 Z " fill="#EAB487" transform="translate(364,393)"/>
<path d="M0,0 L1,0 L2,11 L3,0 L4,0 L4,14 L2,14 L2,38 L1,38 L0,13 Z " fill="#271E16" transform="translate(310,412)"/>
<path d="M0,0 L4,1 L1,1 L1,3 L6,4 L5,12 L7,12 L8,8 L8,16 L7,22 L6,22 L6,16 L4,16 L4,8 L2,8 L2,4 L0,4 Z " fill="#251B13" transform="translate(688,374)"/>
<path d="M0,0 L4,1 L4,4 L6,4 L7,8 L4,11 L-1,11 L0,8 Z " fill="#DCB68E" transform="translate(424,680)"/>
<path d="M0,0 L4,4 L4,14 L3,16 L-1,14 L-1,2 Z " fill="#DCAD78" transform="translate(352,549)"/>
<path d="M0,0 L1,0 L2,16 L3,1 L4,1 L4,19 L2,19 L2,33 L1,33 L0,18 Z " fill="#211A13" transform="translate(306,449)"/>
<path d="M0,0 L8,0 L8,1 L1,1 L1,3 L8,3 L8,4 L2,6 L-3,11 L-3,9 L-7,9 L-8,12 L-8,8 L-4,8 L-4,4 L0,4 Z M-5,11 L-3,12 L-5,13 Z " fill="#BD9672" transform="translate(498,350)"/>
<path d="M0,0 L2,1 L1,8 L-2,16 L-4,16 L-4,4 Z " fill="#E8AA83" transform="translate(676,480)"/>
<path d="M0,0 L12,0 L12,4 L2,4 L2,6 L-2,5 L1,5 L1,3 L-1,2 Z " fill="#C79E7D" transform="translate(530,684)"/>
<path d="M0,0 L1,0 L2,10 L-3,11 L-2,24 L-3,22 L-5,22 L-6,24 L-6,18 L-4,18 L-4,10 L-2,10 L-2,6 L0,6 Z " fill="#231914" transform="translate(672,556)"/>
<path d="M0,0 L8,0 L8,2 L20,2 L20,4 L24,4 L24,12 L23,12 L23,5 L21,5 L21,12 L18,9 L18,6 L14,5 L19,5 L19,3 L7,3 L7,1 L0,1 Z " fill="#B18265" transform="translate(414,364)"/>
<path d="M0,0 L5,1 L3,5 L2,11 L7,13 L7,15 L2,15 L-1,10 L-1,1 Z " fill="#F2C998" transform="translate(413,646)"/>
<path d="M0,0 L1,0 L1,8 L-3,8 L-3,10 L-11,10 L-11,12 L-13,12 L-13,8 L-11,8 L-11,6 L-3,6 L0,7 Z " fill="#1D1511" transform="translate(373,368)"/>
<path d="M0,0 L2,0 L2,9 L0,9 L0,12 L-6,12 L-7,9 L-3,9 Z " fill="#D99E80" transform="translate(653,599)"/>
<path d="M0,0 L6,0 L6,6 L8,6 L8,2 L12,2 L12,0 L31,0 L31,1 L13,1 L13,3 L9,3 L9,5 L11,5 L10,8 L3,7 L5,6 L5,1 L0,1 Z " fill="#9E735D" transform="translate(382,366)"/>
<path d="M0,0 L2,0 L4,6 L0,19 L-3,18 L-1,10 L1,10 Z " fill="#E9B789" transform="translate(332,430)"/>
<path d="M0,0 Z M-8,1 L0,1 L-2,6 L-6,8 L-7,7 L-17,6 L-17,5 L-8,5 Z " fill="#E5B98F" transform="translate(616,344)"/>
<path d="M0,0 L3,0 L3,11 L2,14 L-2,14 L-2,10 L0,10 Z " fill="#110C0A" transform="translate(656,598)"/>
<path d="M0,0 L1,0 L2,8 L2,19 L4,19 L4,24 L2,24 L2,27 L0,27 L1,21 L1,12 L-1,12 Z " fill="#DFB081" transform="translate(315,468)"/>
<path d="M0,0 L8,0 L8,1 L1,1 L2,12 L-3,13 L-3,15 L-1,16 L-3,18 L-6,18 L-6,16 L-4,16 L-4,12 L-2,12 L-2,8 L0,8 Z " fill="#231A15" transform="translate(630,628)"/>
<path d="M0,0 L9,0 L15,2 L12,4 L-5,3 L-5,1 Z " fill="#E7BA91" transform="translate(621,348)"/>
<path d="M0,0 L1,0 L1,12 L-2,11 L-5,1 Z " fill="#E8BC8E" transform="translate(335,487)"/>
<path d="M0,0 L1,3 L3,3 L3,0 L6,0 L6,9 L5,11 L8,12 L8,14 L4,12 L4,6 L0,4 Z " fill="#B9936C" transform="translate(314,492)"/>
<path d="M0,0 L3,0 L3,2 L5,3 L4,7 L6,7 L7,11 L2,10 L2,7 L0,7 Z " fill="#E6BB90" transform="translate(400,650)"/>
<path d="M0,0 L1,0 L1,7 L3,7 L3,0 L4,0 L4,8 L3,11 L5,11 L5,9 L8,10 L8,13 L5,13 L5,15 L8,16 L4,16 L4,12 L2,12 L2,8 L0,8 Z " fill="#B38F6A" transform="translate(386,646)"/>
<path d="M0,0 L1,4 L3,4 L4,0 L5,5 L4,7 L11,7 L11,0 L12,0 L12,8 L2,9 L0,8 Z " fill="#221913" transform="translate(438,368)"/>
<path d="M0,0 L4,1 L4,3 L6,3 L8,3 L6,8 L2,7 L-1,4 L-1,2 L-7,2 L-7,1 Z " fill="#DAA985" transform="translate(657,348)"/>
<path d="M0,0 L1,0 L2,12 L2,22 L1,22 L1,16 L-1,16 L-1,22 L-2,22 L-2,12 L0,12 Z " fill="#211711" transform="translate(692,496)"/>
<path d="M0,0 L7,1 L10,5 L10,7 L5,7 L5,5 L1,3 Z " fill="#EBB690" transform="translate(636,351)"/>
<path d="M0,0 L8,0 L9,3 L7,4 L1,4 L-1,3 L-1,8 L-2,8 L-2,2 Z " fill="#1D1711" transform="translate(592,650)"/>
<path d="M0,0 L1,4 L-1,4 L-1,8 L-5,12 L-3,12 L-3,22 L-4,22 L-4,13 L-7,14 L-7,8 L-2,7 L-3,3 L0,3 Z " fill="#B28269" transform="translate(659,586)"/>
<path d="M0,0 L1,2 L5,2 L3,7 L0,8 L-1,10 L-2,1 Z " fill="#DBA37E" transform="translate(321,401)"/>
<path d="M0,0 L2,1 L2,9 L-2,15 L-3,15 L-3,9 Z " fill="#DEB18F" transform="translate(579,652)"/>
<path d="M0,0 L13,1 L16,4 L16,6 L5,3 L3,2 L2,4 Z " fill="#E6B18A" transform="translate(643,352)"/>
<path d="M0,0 L6,0 L8,4 L10,4 L11,9 L8,9 L9,5 L5,5 L4,7 L2,6 L2,4 L0,3 L5,3 L5,1 L0,1 Z " fill="#BC9373" transform="translate(632,332)"/>
<path d="M0,0 L1,0 L1,9 L0,14 L-2,14 L-2,18 L-6,17 L-3,17 L-4,13 L-1,13 L-2,11 L-2,4 L0,4 Z " fill="#C48A6C" transform="translate(686,508)"/>
<path d="M0,0 L18,1 L18,2 L2,3 L0,6 L-8,6 L-8,5 L-1,5 Z " fill="#AB8768" transform="translate(556,676)"/>
<path d="M0,0 L5,0 L5,8 L0,8 Z " fill="#DEA081" transform="translate(644,580)"/>
<path d="M0,0 L2,4 L3,6 L-1,8 L-5,6 L-5,4 Z M-7,6 L-5,7 L-6,9 L-9,8 Z " fill="#E6B08A" transform="translate(339,406)"/>
<path d="M0,0 L1,2 L13,1 L12,3 L0,4 L-1,12 L-2,12 L-3,2 Z " fill="#D5A183" transform="translate(339,381)"/>
<path d="M0,0 L4,0 L4,2 L2,2 L3,5 L-3,8 L-6,6 L-6,4 L-1,3 Z " fill="#DBAA7F" transform="translate(491,359)"/>
<path d="M0,0 L4,0 L4,2 L7,3 L2,7 L-1,6 Z " fill="#E5B88C" transform="translate(528,669)"/>
<path d="M0,0 L8,1 L8,3 L2,4 L1,11 L-1,11 L-1,4 Z " fill="#DCA788" transform="translate(628,624)"/>
<path d="M0,0 L9,0 L9,2 L2,2 L2,10 L0,10 Z " fill="#DCDEB0" transform="translate(1015,111)"/>
<path d="M0,0 L9,0 L8,4 L0,4 Z " fill="#F7BB85" transform="translate(584,520)"/>
<path d="M0,0 L5,0 L1,1 L1,3 L-2,3 L-1,7 L-3,11 L-3,5 L-5,5 L-5,12 L-6,12 L-6,4 L-4,2 L0,2 Z " fill="#AF8061" transform="translate(456,364)"/>
<path d="M0,0 L8,0 L8,4 L0,4 Z " fill="#E4B488" transform="translate(576,620)"/>
<path d="M0,0 L2,4 L5,6 L6,11 L1,10 L-2,3 L0,3 Z " fill="#15100B" transform="translate(345,554)"/>
<path d="M0,0 L8,0 L8,4 L0,4 Z " fill="#FEC28E" transform="translate(608,380)"/>
<path d="M0,0 L1,2 L3,2 L2,5 L-21,5 L-21,4 L0,4 L-1,1 Z " fill="#D4997D" transform="translate(414,365)"/>
<path d="M0,0 L1,3 L3,3 L4,0 L6,3 L6,9 L2,8 L2,4 L0,4 Z " fill="#C49C78" transform="translate(394,662)"/>
<path d="M0,0 L1,3 L3,3 L4,0 L3,7 L5,7 L6,5 L8,9 L5,9 L5,11 L8,12 L4,12 L4,8 L2,8 L2,4 L0,4 Z " fill="#B18A61" transform="translate(362,578)"/>
<path d="M0,0 L1,4 L3,5 L2,9 L-1,10 L-3,3 Z " fill="#CB8E73" transform="translate(662,575)"/>
<path d="M0,0 L1,0 L3,6 L8,7 L9,11 L4,12 L4,8 L0,6 Z " fill="#B89066" transform="translate(338,538)"/>
<path d="M0,0 L4,1 L6,2 L6,6 L8,6 L7,10 L7,7 L2,6 Z " fill="#15110B" transform="translate(336,544)"/>
<path d="M0,0 L4,1 L1,1 L2,8 L2,20 L1,20 L1,12 L-1,12 Z " fill="#16100C" transform="translate(680,526)"/>
<path d="M0,0 L3,3 L2,6 L-3,7 L-4,4 Z " fill="#E7B683" transform="translate(358,540)"/>
<path d="M0,0 L1,0 L3,7 L5,8 L5,12 L7,12 L6,16 L6,13 L3,13 L4,9 L-1,8 Z " fill="#221B14" transform="translate(317,498)"/>
<path d="M0,0 L3,4 L3,9 L-1,9 L-2,2 Z " fill="#DAAC86" transform="translate(586,648)"/>
<path d="M0,0 L2,0 L1,4 L-2,8 L-12,8 L-12,7 L-3,7 L-3,3 L-1,3 Z " fill="#B98F76" transform="translate(614,646)"/>
<path d="M0,0 L2,4 L3,7 L0,10 L-4,9 L-2,8 L-2,4 L0,4 Z M-1,10 Z " fill="#E6A47E" transform="translate(660,530)"/>
<path d="M0,0 L1,0 L1,9 L-1,9 L-2,11 L-2,2 L-4,1 Z " fill="#D6A67B" transform="translate(315,449)"/>
<path d="M0,0 L2,0 L2,2 L7,3 L8,6 L6,6 L6,8 L9,9 L4,8 L3,3 L1,3 Z " fill="#201914" transform="translate(639,333)"/>
<path d="M0,0 L5,1 L6,7 L1,8 L3,2 L-1,1 Z " fill="#D99E7F" transform="translate(651,586)"/>
<path d="M0,0 L4,1 L2,7 L-1,8 L-1,2 Z " fill="#E5A485" transform="translate(641,560)"/>
<path d="M0,0 L1,3 L9,2 L10,4 L9,7 L12,8 L8,8 L6,5 L0,4 Z " fill="#B4916C" transform="translate(398,670)"/>
<path d="M0,0 L7,3 L7,5 L11,5 L12,8 L6,6 L6,4 L0,3 Z " fill="#DDB487" transform="translate(404,667)"/>
<path d="M0,0 L2,0 L3,8 L0,7 L-2,3 L-3,1 Z " fill="#E2B07B" transform="translate(353,545)"/>
<path d="M0,0 L3,1 L1,3 L-1,8 L-3,9 L-4,2 Z " fill="#EDB589" transform="translate(349,408)"/>
<path d="M0,0 L8,0 L13,2 L12,4 L0,2 Z " fill="#F9B887" transform="translate(644,362)"/>
<path d="M0,0 L11,5 L10,8 L10,6 L3,5 L0,2 Z " fill="#E2AB83" transform="translate(658,354)"/>
<path d="M0,0 L4,1 L3,7 L0,8 L-2,6 L0,5 Z " fill="#EDBF95" transform="translate(512,658)"/>
<path d="M0,0 L1,0 L1,5 L3,5 L3,0 L4,0 L4,6 L-1,9 L-2,3 Z " fill="#C19878" transform="translate(586,652)"/>
<path d="M0,0 L1,0 L1,5 L3,5 L3,8 L1,8 L0,11 L-1,9 L-1,1 Z " fill="#E6B783" transform="translate(350,520)"/>
<path d="M0,0 L1,0 L2,7 L3,0 L4,0 L4,10 L1,11 L0,9 Z " fill="#1B1410" transform="translate(330,384)"/>
<path d="M0,0 L7,0 L8,2 L2,2 L2,7 L0,7 Z " fill="#DD9F83" transform="translate(375,369)"/>
<path d="M0,0 L7,2 L8,5 L10,7 L8,8 L4,6 L3,3 L0,2 Z " fill="#E8AD81" transform="translate(659,358)"/>
<path d="M0,0 L10,1 L10,3 L4,4 L4,2 L0,2 Z " fill="#F2B68A" transform="translate(642,358)"/>
<path d="M0,0 L5,1 L5,3 L1,7 L-1,7 L-1,1 Z " fill="#DDB488" transform="translate(531,347)"/>
<path d="M0,0 L1,3 L3,3 L4,1 L7,4 L3,5 L3,7 L6,8 L2,8 L2,4 L0,4 Z " fill="#BA9164" transform="translate(356,570)"/>
<path d="M0,0 L2,3 L0,9 L-1,7 L-3,7 L-4,10 L-3,5 L0,4 Z " fill="#241914" transform="translate(664,580)"/>
<path d="M0,0 L4,1 L1,1 L2,8 L-2,8 L-2,4 L0,4 Z " fill="#1E1510" transform="translate(686,518)"/>
<path d="M0,0 L2,0 L3,6 L2,10 L0,10 Z " fill="#EAB986" transform="translate(347,509)"/>
<path d="M0,0 L1,0 L2,8 L5,10 L4,14 L4,11 L-1,10 Z " fill="#231C14" transform="translate(309,482)"/>
<path d="M0,0 L8,0 L8,2 L6,3 L0,3 Z " fill="#D7AF8B" transform="translate(442,696)"/>
<path d="M0,0 L1,0 L1,8 L0,14 L-1,14 L-2,4 L0,4 Z " fill="#130E0A" transform="translate(695,382)"/>
<path d="M0,0 L6,0 L6,6 L11,5 L10,8 L3,7 L5,6 L5,1 L0,1 Z " fill="#B28169" transform="translate(382,366)"/>
<path d="M0,0 L2,0 L2,2 L9,2 L9,4 L0,4 Z " fill="#DFDDB0" transform="translate(1015,127)"/>
<path d="M0,0 L5,0 L7,3 L6,6 L4,6 L3,3 L0,2 Z " fill="#DBAB78" transform="translate(359,575)"/>
<path d="M0,0 L1,2 L3,2 L4,7 L2,9 L0,5 Z " fill="#D7A97E" transform="translate(313,484)"/>
<path d="M0,0 L3,0 L2,5 L-2,5 L-3,1 Z " fill="#DAA481" transform="translate(672,355)"/>
<path d="M0,0 L3,3 L2,5 L-3,4 L-3,1 Z " fill="#D7A988" transform="translate(647,344)"/>
<path d="M0,0 L2,2 L1,8 L-2,5 L-2,2 L0,2 Z " fill="#F7C98E" transform="translate(410,598)"/>
<path d="M0,0 L4,0 L4,6 L3,4 L1,4 L0,6 Z " fill="#150E0C" transform="translate(666,574)"/>
<path d="M0,0 L1,3 L0,4 L-8,4 L-8,2 L-1,1 Z " fill="#DCB186" transform="translate(507,349)"/>
<path d="M0,0 L6,1 L2,3 L0,6 L-4,5 L-1,5 Z " fill="#B79674" transform="translate(474,694)"/>
<path d="M0,0 L1,3 L6,2 L7,7 L0,4 Z " fill="#BC9A78" transform="translate(416,684)"/>
<path d="M0,0 L3,1 L3,4 L0,4 L0,6 L3,7 L-1,7 Z " fill="#C19976" transform="translate(391,655)"/>
<path d="M0,0 L2,0 L3,3 L1,3 L1,6 L-4,5 L-3,3 L0,3 Z " fill="#D9A283" transform="translate(622,639)"/>
<path d="M0,0 L2,1 L4,6 L3,8 L1,8 L-1,2 Z " fill="#DBAB76" transform="translate(356,565)"/>
<path d="M0,0 L2,1 L2,4 L4,5 L2,5 L2,7 L0,7 L-1,1 Z " fill="#D59F7B" transform="translate(675,356)"/>
<path d="M0,0 L6,1 L5,5 L0,3 Z " fill="#E7BE96" transform="translate(436,682)"/>
<path d="M0,0 L7,0 L6,4 L2,3 L0,2 Z " fill="#EFC59A" transform="translate(460,680)"/>
<path d="M0,0 L1,4 L-3,8 L-7,7 L-4,7 L-4,3 L0,3 Z " fill="#B38D6F" transform="translate(581,668)"/>
<path d="M0,0 L4,1 L4,4 L-2,4 Z " fill="#D8A588" transform="translate(632,620)"/>
<path d="M0,0 L5,0 L4,4 L0,5 Z " fill="#F7BB85" transform="translate(568,528)"/>
<path d="M0,0 L2,0 L1,6 L-1,10 L-1,2 Z " fill="#D9AA7D" transform="translate(314,458)"/>
<path d="M0,0 L1,2 L5,3 L3,4 L2,7 L0,7 L0,2 L-2,1 Z " fill="#D49D79" transform="translate(321,401)"/>
<path d="M0,0 L10,1 L10,2 L2,3 L-1,5 Z " fill="#201814" transform="translate(336,378)"/>
<path d="M0,0 L4,0 L3,5 L0,4 Z " fill="#F6C189" transform="translate(580,368)"/>
<path d="M0,0 L1,2 L8,2 L8,3 L-3,4 L-3,2 L0,2 Z " fill="#D5AC81" transform="translate(526,341)"/>
<path d="M0,0 L2,1 L1,5 L-3,5 L-2,1 Z " fill="#E4AF8D" transform="translate(607,618)"/>
<path d="M0,0 L4,0 L4,4 L0,5 Z " fill="#EFBA84" transform="translate(564,580)"/>
<path d="M0,0 L4,0 L4,4 L0,5 Z " fill="#F9C588" transform="translate(580,448)"/>
<path d="M0,0 L5,1 L5,4 L1,3 Z " fill="#D7B086" transform="translate(415,681)"/>
<path d="M0,0 L2,0 L2,6 L0,7 L-1,3 Z M-1,7 Z " fill="#ECC291" transform="translate(406,647)"/>
<path d="M0,0 L1,0 L1,9 L0,5 L-2,5 L-1,1 Z " fill="#ECBD91" transform="translate(335,487)"/>
<path d="M0,0 L4,0 L4,4 L0,4 Z " fill="#F9C687" transform="translate(572,448)"/>
<path d="M0,0 L4,1 L4,4 L1,5 Z " fill="#FDC695" transform="translate(380,448)"/>
<path d="M0,0 L5,0 L5,3 L-1,2 Z " fill="#D5B088" transform="translate(475,692)"/>
<path d="M0,0 L3,4 L0,4 L0,6 L3,7 L-1,7 Z " fill="#BA9469" transform="translate(367,583)"/>
<path d="M0,0 L1,0 L0,8 L-2,8 L-3,4 L-1,3 Z " fill="#D9A877" transform="translate(347,545)"/>
<path d="M0,0 L1,2 L3,2 L2,5 L-1,6 L-1,1 Z " fill="#FAC291" transform="translate(349,443)"/>
<path d="M0,0 L1,4 L-3,8 L-2,3 Z " fill="#FABA83" transform="translate(660,412)"/>
<path d="M0,0 L1,0 L1,6 L-2,6 L-2,2 L0,2 Z " fill="#070503" transform="translate(697,390)"/>
<path d="M0,0 L4,1 L3,3 L-2,3 L-2,1 Z " fill="#D6B08B" transform="translate(470,694)"/>
<path d="M0,0 L6,1 L5,3 L0,3 Z " fill="#D8AE81" transform="translate(407,674)"/>
<path d="M0,0 L10,1 L10,2 L2,2 L1,4 Z " fill="#D1A384" transform="translate(601,649)"/>
<path d="M0,0 L3,0 L3,6 L2,4 L0,4 Z " fill="#050302" transform="translate(673,556)"/>
<path d="M0,0 L1,2 L5,3 L-3,4 Z " fill="#E6B185" transform="translate(469,390)"/>
<path d="M0,0 L4,0 L4,5 L2,5 L2,2 L0,2 Z " fill="#DFA183" transform="translate(383,367)"/>
<path d="M0,0 L3,1 L3,3 L-3,4 Z " fill="#2B221A" transform="translate(588,658)"/>
<path d="M0,0 L3,0 L1,4 L-2,3 L-2,1 Z " fill="#F6CD96" transform="translate(415,647)"/>
<path d="M0,0 L2,4 L2,6 L-1,6 L-1,1 Z " fill="#DAA383" transform="translate(625,633)"/>
<path d="M0,0 L3,1 L3,3 L-2,4 Z " fill="#261D17" transform="translate(580,672)"/>
<path d="M0,0 L3,1 L3,4 L-1,4 Z " fill="#D9997E" transform="translate(666,561)"/>
<path d="M0,0 L3,0 L3,3 L5,4 L0,3 Z " fill="#050403" transform="translate(310,493)"/>
<path d="M0,0 L1,2 L3,2 L2,5 L-1,4 Z " fill="#CE9777" transform="translate(414,365)"/>
<path d="M0,0 L3,1 L3,3 L-2,4 Z " fill="#261D18" transform="translate(614,650)"/>
<path d="M0,0 L3,1 L1,5 L1,3 L-1,3 Z " fill="#EBBD8F" transform="translate(545,648)"/>
<path d="M0,0 L3,1 L1,5 Z " fill="#D89F82" transform="translate(650,595)"/>
<path d="M0,0 L5,0 L4,4 L2,4 Z " fill="#E1B379" transform="translate(379,588)"/>
<path d="M0,0 L2,2 L2,6 L-1,5 Z " fill="#D7A874" transform="translate(353,559)"/>
<path d="M0,0 L3,0 L2,4 L-1,1 Z " fill="#D69979" transform="translate(678,522)"/>
<path d="M0,0 L3,1 L2,6 L0,4 Z " fill="#E5B285" transform="translate(327,427)"/>
<path d="M0,0 L3,0 L3,2 L1,2 L0,4 L0,2 L-2,1 Z " fill="#060403" transform="translate(587,661)"/>
<path d="M0,0 L4,1 L2,2 L1,5 Z " fill="#080704" transform="translate(349,565)"/>
<path d="M0,0 L3,0 L2,4 L0,4 Z " fill="#EBBE8C" transform="translate(333,464)"/>
<path d="M0,0 L4,2 L4,3 L-1,3 Z " fill="#CF956E" transform="translate(687,364)"/>
<path d="M0,0 L3,0 L3,2 L-2,3 Z " fill="#FABF89" transform="translate(611,363)"/>
</svg>
