<?xml version="1.0" encoding="UTF-8"?>
<!-- Generator: visioncortex VTracer 0.6.4 -->
<svg version="1.1" xmlns="http://www.w3.org/2000/svg" width="1024" height="1024">
<path d="M0,0 L1024,0 L1024,1024 L0,1024 Z " fill="#000000" transform="translate(0,0)"/>
<path d="M0,0 L40,0 L40,2 L54,2 L56,6 L60,6 L60,8 L68,8 L68,10 L72,10 L72,12 L80,12 L80,14 L84,14 L84,16 L89,17 L92,20 L92,22 L96,22 L96,24 L104,24 L106,28 L110,28 L110,30 L118,30 L120,34 L122,34 L122,42 L126,44 L128,48 L133,49 L134,52 L139,53 L144,59 L152,60 L154,64 L156,64 L156,68 L158,68 L158,78 L160,78 L160,82 L162,82 L162,98 L164,98 L164,124 L162,124 L162,130 L160,130 L160,136 L158,136 L158,138 L160,138 L160,148 L158,148 L158,160 L156,160 L156,200 L154,200 L154,204 L156,204 L156,214 L154,214 L154,220 L150,224 L143,226 L133,236 L132,242 L128,242 L128,248 L126,248 L126,252 L124,252 L124,260 L122,260 L122,264 L120,264 L120,268 L118,268 L118,272 L120,272 L120,282 L116,282 L116,284 L112,284 L112,286 L106,286 L106,288 L90,288 L90,290 L86,290 L86,292 L78,293 L76,296 L56,296 L56,298 L52,298 L52,300 L48,300 L48,302 L43,304 L42,310 L40,310 L40,316 L36,316 L36,318 L24,319 L22,322 L17,324 L14,328 L6,329 L4,332 L-6,332 L-6,334 L-12,334 L-12,336 L-24,336 L-24,338 L-28,338 L-28,340 L-24,340 L-24,346 L-31,348 L-32,350 L-40,350 L-40,352 L-54,352 L-54,354 L-62,354 L-62,356 L-67,358 L-70,362 L-74,362 L-74,366 L-78,370 L-96,370 L-96,372 L-108,372 L-108,376 L-112,376 L-112,378 L-118,378 L-118,380 L-132,380 L-132,378 L-140,378 L-144,373 L-148,372 L-150,369 L-154,368 L-156,365 L-160,364 L-160,358 L-164,356 L-164,352 L-166,352 L-166,348 L-168,348 L-168,344 L-170,344 L-170,340 L-172,340 L-172,336 L-176,336 L-176,328 L-178,328 L-178,324 L-180,324 L-180,316 L-182,316 L-182,300 L-184,300 L-184,290 L-186,290 L-186,270 L-184,270 L-184,264 L-188,262 L-190,260 L-190,252 L-192,252 L-192,240 L-190,240 L-190,236 L-188,236 L-188,224 L-192,222 L-192,218 L-196,218 L-196,212 L-198,212 L-198,216 L-203,220 L-204,224 L-218,224 L-218,220 L-223,219 L-226,216 L-226,212 L-228,212 L-228,206 L-230,206 L-230,188 L-228,188 L-228,168 L-230,166 L-230,146 L-232,146 L-232,140 L-230,140 L-230,132 L-226,132 L-226,128 L-224,128 L-224,124 L-222,124 L-222,118 L-218,116 L-218,110 L-216,110 L-216,98 L-212,96 L-212,88 L-208,88 L-208,80 L-204,78 L-204,72 L-200,68 L-194,68 L-194,66 L-184,66 L-184,64 L-180,64 L-180,62 L-170,62 L-168,58 L-164,58 L-164,56 L-160,56 L-160,52 L-154,52 L-152,56 L-144,56 L-144,52 L-128,52 L-128,50 L-120,50 L-120,48 L-114,48 L-112,44 L-108,44 L-108,38 L-104,34 L-100,34 L-98,30 L-82,30 L-82,28 L-74,28 L-74,24 L-68,24 L-68,20 L-66,20 L-66,16 L-62,16 L-62,14 L-50,14 L-50,12 L-42,12 L-42,10 L-36,10 L-36,8 L-32,8 L-32,6 L-28,6 L-28,2 L0,2 Z " fill="#EDC2A4" transform="translate(558,346)"/>
<path d="M0,0 L40,0 L40,2 L54,2 L56,6 L60,6 L60,8 L68,8 L68,10 L72,10 L72,12 L80,12 L80,14 L84,14 L84,16 L89,17 L92,20 L92,22 L96,22 L96,24 L104,24 L106,28 L110,28 L110,30 L118,30 L120,34 L122,34 L122,42 L126,44 L128,48 L133,49 L134,52 L139,53 L144,59 L152,60 L154,64 L156,64 L156,68 L158,68 L158,78 L160,78 L160,82 L162,82 L162,98 L164,98 L164,124 L162,124 L162,130 L160,130 L160,136 L158,136 L158,138 L160,138 L160,148 L158,148 L158,160 L156,160 L156,200 L154,200 L154,204 L156,204 L156,214 L154,214 L154,220 L150,224 L143,226 L136,233 L135,229 L137,229 L137,227 L139,227 L139,225 L141,225 L142,222 L149,223 L149,221 L144,221 L147,220 L148,216 L150,216 L150,213 L152,213 L152,192 L153,192 L153,199 L155,199 L154,160 L153,151 L151,153 L151,143 L152,139 L152,122 L153,112 L154,110 L154,99 L153,95 L151,93 L152,92 L152,78 L149,81 L150,71 L146,67 L138,64 L137,59 L130,58 L130,56 L128,56 L128,54 L124,53 L124,50 L122,50 L123,43 L121,43 L121,45 L118,45 L117,39 L112,38 L112,36 L110,36 L109,33 L106,33 L106,31 L109,31 L109,29 L107,30 L98,29 L88,28 L88,23 L78,21 L78,19 L70,20 L70,17 L62,15 L61,18 L58,17 L58,15 L55,16 L54,13 L50,13 L50,11 L34,11 L34,13 L30,13 L30,7 L26,8 L15,8 L13,10 L3,10 L0,9 L-5,9 L-6,6 L-13,7 L-14,9 L-18,10 L-28,10 L-34,14 L-35,16 L-38,15 L-49,13 L-49,15 L-61,15 L-61,17 L-50,17 L-52,18 L-53,21 L-53,18 L-61,21 L-65,24 L-65,21 L-67,21 L-68,24 L-68,20 L-66,20 L-66,16 L-62,16 L-62,14 L-50,14 L-50,12 L-42,12 L-42,10 L-36,10 L-36,8 L-32,8 L-32,6 L-28,6 L-28,2 L0,2 Z M150,144 Z " fill="#E2AC9B" transform="translate(558,346)"/>
<path d="M0,0 L4,1 L4,3 L7,4 L14,15 L16,17 L15,29 L13,29 L13,36 L15,37 L12,40 L14,49 L18,49 L19,45 L21,47 L21,55 L20,57 L19,92 L18,107 L20,107 L20,115 L22,115 L22,108 L23,112 L25,112 L26,117 L24,127 L26,127 L26,120 L29,121 L29,129 L28,131 L30,131 L31,128 L33,129 L33,137 L32,139 L34,139 L35,137 L37,139 L37,147 L40,149 L40,155 L45,154 L46,159 L52,158 L56,160 L66,161 L75,163 L87,163 L90,162 L102,163 L102,161 L95,161 L96,158 L117,158 L118,153 L120,148 L122,148 L122,144 L125,144 L125,142 L127,142 L127,140 L134,140 L135,141 L143,141 L144,140 L159,140 L166,141 L167,136 L174,137 L174,133 L171,132 L175,132 L175,138 L168,140 L167,142 L159,142 L159,144 L145,144 L145,146 L137,146 L137,148 L132,150 L129,154 L125,154 L125,158 L121,162 L103,162 L103,164 L91,164 L91,168 L87,168 L87,170 L81,170 L81,172 L67,172 L67,170 L59,170 L55,165 L51,164 L49,161 L45,160 L43,157 L39,156 L39,150 L35,148 L35,144 L33,144 L33,140 L31,140 L31,136 L29,136 L29,132 L27,132 L27,128 L23,128 L23,120 L21,120 L21,116 L19,116 L19,108 L17,108 L17,92 L15,92 L15,82 L13,82 L13,62 L15,62 L15,56 L11,54 L9,52 L9,44 L7,44 L7,32 L9,32 L9,28 L11,28 L11,16 L7,14 L7,10 L3,10 L3,4 L1,4 L1,8 L-2,9 L-4,7 L0,7 Z " fill="#E2C3A5" transform="translate(359,554)"/>
<path d="M0,0 L2,0 L1,4 L4,4 L4,51 L3,57 L1,57 L1,59 L3,59 L3,69 L1,69 L1,81 L-1,81 L-1,121 L-3,121 L-3,125 L-1,125 L-1,135 L-3,135 L-3,141 L-7,145 L-14,147 L-21,154 L-22,150 L-20,150 L-20,148 L-18,148 L-18,146 L-16,146 L-15,143 L-8,144 L-8,142 L-13,142 L-10,141 L-9,137 L-7,137 L-7,134 L-5,134 L-5,113 L-4,113 L-4,120 L-2,120 L-3,81 L-4,72 L-6,74 L-6,64 L-5,60 L-5,43 L-4,33 L-3,31 L-3,20 L-4,16 L-6,14 L-5,13 L-4,2 L0,3 Z M-7,65 Z " fill="#E5B99E" transform="translate(715,425)"/>
<path d="M0,0 L5,1 L8,4 L8,6 L12,6 L12,8 L20,8 L22,12 L26,12 L26,14 L34,14 L36,18 L38,18 L38,26 L42,28 L44,32 L49,33 L50,36 L55,37 L60,43 L68,44 L70,48 L72,48 L72,52 L74,52 L74,62 L76,62 L76,66 L78,66 L78,82 L80,82 L80,108 L78,108 L78,114 L77,114 L76,108 L76,82 L77,67 L74,67 L75,63 L73,63 L73,66 L69,65 L68,62 L65,65 L66,55 L62,51 L54,48 L53,43 L46,42 L46,40 L44,40 L44,38 L40,37 L40,34 L38,34 L39,27 L37,27 L37,29 L34,29 L33,23 L28,22 L28,20 L26,20 L25,17 L22,17 L22,15 L25,15 L25,13 L23,14 L14,13 L4,12 L4,10 L11,9 L11,7 L6,8 L5,4 Z " fill="#E0B298" transform="translate(642,362)"/>
<path d="M0,0 L4,1 L4,3 L7,4 L14,15 L16,17 L15,29 L13,29 L13,36 L15,37 L12,40 L14,49 L18,49 L19,45 L21,47 L21,55 L20,57 L19,92 L18,107 L20,107 L20,115 L22,115 L22,108 L23,112 L25,112 L26,117 L24,127 L26,127 L26,120 L29,121 L29,129 L28,131 L30,131 L31,128 L33,129 L33,137 L32,139 L34,139 L35,137 L37,139 L37,147 L40,149 L40,155 L45,154 L46,159 L51,158 L49,161 L45,160 L43,157 L39,156 L39,150 L35,148 L35,144 L33,144 L33,140 L31,140 L31,136 L29,136 L29,132 L27,132 L27,128 L23,128 L23,120 L21,120 L21,116 L19,116 L19,108 L17,108 L17,92 L15,92 L15,82 L13,82 L13,62 L15,62 L15,56 L11,54 L9,52 L9,44 L7,44 L7,32 L9,32 L9,28 L11,28 L11,16 L7,14 L7,10 L3,10 L3,4 L1,4 L1,8 L-2,9 L-4,7 L0,7 Z " fill="#E1B79F" transform="translate(359,554)"/>
<path d="M0,0 L11,1 L20,2 L22,2 L22,4 L19,4 L19,6 L27,5 L23,6 L23,9 L31,11 L31,18 L34,18 L34,16 L36,16 L35,23 L37,23 L37,26 L41,27 L41,29 L43,29 L43,31 L50,31 L52,33 L53,42 L48,43 L45,41 L40,41 L39,43 L33,43 L32,38 L34,36 L33,30 L35,30 L35,27 L31,28 L31,25 L27,25 L27,23 L23,23 L23,21 L21,21 L19,18 L19,11 L15,12 L11,13 L11,11 L14,8 L13,7 L-6,7 L-11,6 L-9,4 L1,3 L0,2 Z " fill="#E5B59B" transform="translate(645,373)"/>
<path d="M0,0 Z M-2,2 L0,3 L-1,18 L1,18 L2,26 L0,26 L1,44 L3,39 L5,40 L5,42 L12,42 L12,44 L10,44 L11,51 L12,58 L15,67 L17,70 L17,74 L19,74 L20,78 L24,78 L26,88 L29,88 L29,97 L25,97 L24,95 L19,95 L19,89 L15,87 L15,79 L11,79 L12,69 L10,69 L9,71 L7,71 L7,63 L8,61 L6,61 L5,67 L3,67 L3,60 L4,52 L2,52 L1,55 L-1,55 L-1,47 L-3,47 L-3,32 Z " fill="#E3BCA6" transform="translate(380,614)"/>
<path d="M0,0 L40,0 L40,2 L54,2 L56,6 L40,6 L40,5 L53,5 L53,3 L40,4 L10,4 L10,6 L5,8 L0,9 L-5,9 L-6,6 L-13,7 L-14,9 L-18,10 L-28,10 L-34,14 L-35,16 L-38,15 L-49,13 L-49,15 L-61,15 L-61,17 L-50,17 L-52,18 L-53,21 L-53,18 L-61,21 L-65,24 L-65,21 L-67,21 L-68,24 L-68,20 L-66,20 L-66,16 L-62,16 L-62,14 L-50,14 L-50,12 L-42,12 L-42,10 L-36,10 L-36,8 L-32,8 L-32,6 L-28,6 L-28,2 L0,2 Z " fill="#E0AA95" transform="translate(558,346)"/>
<path d="M0,0 L2,1 L1,3 L-1,3 L1,13 L-1,15 L-3,22 L-5,21 L-5,19 L-7,19 L-7,21 L-9,21 L-8,39 L-10,39 L-13,48 L-15,52 L-15,57 L-19,59 L-22,67 L-20,67 L-19,70 L-18,64 L-16,64 L-17,71 L-19,73 L-19,85 L-18,89 L-16,89 L-17,94 L-18,111 L-19,112 L-19,123 L-20,134 L-22,134 L-22,128 L-24,128 L-24,110 L-22,110 L-22,90 L-24,88 L-24,68 L-26,68 L-26,62 L-24,62 L-24,54 L-20,54 L-20,50 L-18,50 L-18,46 L-16,46 L-16,40 L-12,38 L-12,32 L-10,32 L-10,20 L-6,18 L-6,10 L-2,10 L-2,2 Z " fill="#D3A18E" transform="translate(352,424)"/>
<path d="M0,0 L4,1 L1,1 L1,6 L-2,8 L-8,10 L-15,11 L-22,13 L-31,13 L-32,16 L-39,17 L-40,18 L-53,19 L-56,22 L-62,24 L-64,25 L-64,22 L-69,25 L-71,28 L-72,27 L-81,27 L-87,31 L-89,33 L-89,29 L-91,29 L-91,34 L-92,34 L-92,28 L-88,24 L-82,24 L-82,22 L-72,22 L-72,20 L-68,20 L-68,18 L-58,18 L-56,14 L-52,14 L-52,12 L-48,12 L-48,8 L-42,8 L-40,12 L-32,12 L-32,8 L-16,8 L-16,6 L-8,6 L-8,4 L-2,4 Z " fill="#D19D89" transform="translate(446,390)"/>
<path d="M0,0 L6,1 L9,4 L8,6 L10,6 L9,10 L7,11 L6,17 L9,18 L9,25 L13,29 L17,30 L18,28 L25,30 L37,30 L37,32 L32,33 L19,33 L7,31 L3,26 L3,19 L2,10 L-2,10 L-2,8 L-5,10 L-8,10 L-9,7 L-9,1 Z " fill="#EFC5B2" transform="translate(408,682)"/>
<path d="M0,0 L5,2 L15,3 L24,5 L36,5 L40,5 L40,10 L36,10 L36,12 L30,12 L30,14 L16,14 L16,12 L8,12 L4,7 L0,6 L-1,1 Z " fill="#E1BEA8" transform="translate(410,712)"/>
<path d="M0,0 L1,0 L1,5 L3,5 L3,0 L4,0 L4,6 L2,6 L2,8 L4,8 L4,18 L2,18 L2,30 L0,30 L0,70 L-2,70 L-2,74 L0,74 L0,84 L-2,84 L-2,90 L-6,94 L-13,96 L-20,103 L-21,99 L-19,99 L-19,97 L-17,97 L-17,95 L-15,95 L-14,92 L-7,93 L-7,91 L-12,91 L-9,90 L-8,86 L-6,86 L-6,83 L-4,83 L-4,62 L-3,62 L-3,69 L-1,69 L-2,16 L-1,15 L0,6 Z " fill="#C0A086" transform="translate(714,476)"/>
<path d="M0,0 L2,0 L1,7 L-1,9 L-1,21 L0,25 L2,25 L1,30 L0,47 L-1,48 L-1,59 L-2,70 L-4,70 L-4,64 L-6,64 L-6,46 L-4,46 L-4,26 L-5,23 L-5,4 L-2,3 L-1,6 Z " fill="#E0AC96" transform="translate(334,488)"/>
<path d="M0,0 L5,1 L8,4 L8,6 L12,6 L12,8 L20,8 L22,12 L26,12 L26,14 L34,14 L36,18 L38,18 L38,26 L42,28 L44,32 L49,33 L50,35 L48,36 L42,36 L41,33 L40,32 L39,27 L37,27 L37,29 L34,29 L33,23 L28,22 L28,20 L26,20 L25,17 L22,17 L22,15 L25,15 L25,13 L23,14 L14,13 L4,12 L4,10 L11,9 L11,7 L6,8 L5,4 Z " fill="#CEA188" transform="translate(642,362)"/>
<path d="M0,0 L12,0 L13,4 L12,6 L16,6 L16,4 L24,3 L32,4 L32,6 L36,6 L36,8 L27,13 L26,15 L24,15 L24,13 L22,13 L22,11 L12,11 L11,9 L8,10 L8,8 L4,7 L0,5 Z " fill="#E7B2A3" transform="translate(576,353)"/>
<path d="M0,0 L2,0 L2,2 L6,2 L8,14 L9,19 L11,22 L23,24 L36,24 L45,22 L50,21 L50,19 L56,21 L56,22 L51,23 L50,25 L57,25 L57,27 L43,27 L40,28 L28,28 L21,26 L8,24 L3,23 L1,23 L1,21 L4,19 L5,12 L2,12 L-1,1 Z " fill="#E3C2AD" transform="translate(404,690)"/>
<path d="M0,0 L4,1 L4,3 L7,4 L14,15 L16,17 L15,29 L13,29 L13,36 L15,37 L12,40 L10,51 L16,52 L14,53 L15,56 L11,54 L9,52 L9,44 L7,44 L7,32 L9,32 L9,28 L11,28 L11,16 L7,14 L7,10 L3,10 L3,4 L1,4 L1,8 L-2,9 L-4,7 L0,7 Z " fill="#CEA28A" transform="translate(359,554)"/>
<path d="M0,0 L4,1 L4,3 L7,4 L2,6 L1,12 L-1,12 L-1,18 L-5,18 L-5,20 L-17,21 L-19,24 L-24,26 L-27,30 L-35,31 L-37,34 L-47,34 L-47,36 L-53,36 L-53,35 L-48,35 L-48,33 L-52,32 L-38,33 L-38,31 L-47,31 L-47,30 L-39,30 L-39,28 L-28,29 L-29,24 L-27,24 L-25,20 L-23,20 L-24,17 L-19,16 L-11,14 L-11,16 L-2,17 L-3,12 L-3,5 Z " fill="#DFC7A4" transform="translate(599,644)"/>
<path d="M0,0 L4,0 L4,2 L12,2 L12,4 L16,4 L16,6 L24,6 L24,8 L28,8 L28,11 L32,12 L35,15 L35,17 L39,17 L39,19 L32,20 L32,17 L22,15 L22,13 L14,14 L14,9 L4,8 L2,7 L1,3 L3,3 L3,1 Z " fill="#D6A592" transform="translate(614,352)"/>
<path d="M0,0 L40,0 L40,2 L54,2 L56,6 L40,6 L40,5 L53,5 L53,3 L40,4 L0,4 L-27,3 L-28,6 L-28,2 L0,2 Z " fill="#C79684" transform="translate(558,346)"/>
<path d="M0,0 L1,4 L3,4 L3,14 L-1,14 L-1,16 L-5,16 L-5,18 L-11,18 L-11,20 L-27,20 L-27,22 L-31,22 L-31,24 L-39,25 L-41,28 L-61,28 L-61,27 L-42,27 L-43,23 L-39,22 L-32,23 L-32,21 L-38,21 L-38,20 L-31,20 L-28,21 L-28,19 L-30,18 L-27,14 L-25,14 L-25,16 L-19,16 L-19,14 L-5,14 L-2,15 L-2,13 L-4,12 L2,13 L2,5 L-2,4 L0,4 Z " fill="#CCB195" transform="translate(675,614)"/>
<path d="M0,0 L1,0 L1,15 L3,15 L3,23 L5,23 L5,16 L6,20 L8,20 L9,25 L7,35 L9,35 L9,28 L12,29 L12,37 L11,39 L13,39 L14,36 L16,37 L16,45 L15,47 L17,47 L18,45 L20,47 L20,55 L23,57 L23,63 L28,62 L29,67 L34,66 L32,69 L28,68 L26,65 L22,64 L22,58 L18,56 L18,52 L16,52 L16,48 L14,48 L14,44 L12,44 L12,40 L10,40 L10,36 L6,36 L6,28 L4,28 L4,24 L2,24 L2,16 L0,16 Z " fill="#C6A290" transform="translate(376,646)"/>
<path d="M0,0 L2,0 L1,4 L4,4 L4,51 L0,50 L0,26 L1,23 L-1,17 L-2,3 L0,3 Z " fill="#E1B59C" transform="translate(715,425)"/>
<path d="M0,0 L3,2 L0,6 L-4,6 L-4,10 L-8,14 L-26,14 L-26,16 L-38,16 L-38,15 L-27,15 L-27,13 L-34,13 L-33,10 L-12,10 L-11,5 L-7,3 L-1,5 Z " fill="#CDB29C" transform="translate(488,702)"/>
<path d="M0,0 L4,1 L1,1 L1,6 L-2,8 L-8,10 L-15,11 L-22,13 L-41,13 L-43,10 L-47,9 L-48,12 L-48,8 L-42,8 L-40,12 L-32,12 L-32,8 L-16,8 L-16,6 L-8,6 L-8,4 L-2,4 Z " fill="#C49581" transform="translate(446,390)"/>
<path d="M0,0 L3,0 L3,9 L5,10 L2,13 L2,15 L4,16 L3,21 L4,23 L2,29 L5,30 L7,37 L7,42 L4,41 L1,34 L-2,25 L-3,18 L-3,11 L-1,10 L-1,2 Z " fill="#EBC2AD" transform="translate(393,647)"/>
<path d="M0,0 L6,0 L6,1 L1,1 L1,3 L6,3 L1,8 L-23,7 L-23,9 L-12,9 L-12,10 L-22,11 L-29,17 L-30,20 L-31,20 L-31,15 L-33,15 L-33,20 L-34,20 L-34,14 L-30,10 L-26,10 L-24,6 L-8,6 L-8,4 L0,4 Z " fill="#C2917E" transform="translate(484,370)"/>
<path d="M0,0 L1,4 L3,4 L3,20 L5,20 L5,46 L3,46 L3,52 L2,52 L1,46 L1,20 L2,5 L-1,5 Z " fill="#C6A18B" transform="translate(717,424)"/>
<path d="M0,0 L4,2 L2,4 L1,10 L-3,10 L-3,16 L-5,16 L-5,20 L-7,20 L-7,28 L-9,28 L-9,32 L-11,32 L-12,36 L-13,31 L-10,31 L-11,29 L-12,18 L-8,16 L-8,19 L-6,19 L-7,17 L-7,9 L-6,6 L-3,6 L-2,3 L-2,9 L0,9 L-1,1 Z M-13,20 Z " fill="#C3A78C" transform="translate(689,578)"/>
<path d="M0,0 L4,1 L1,1 L1,4 L-3,3 L-3,5 L-1,5 L-3,10 L-6,9 L-17,7 L-17,9 L-29,9 L-29,11 L-18,11 L-20,12 L-21,15 L-21,12 L-29,15 L-33,18 L-33,15 L-35,15 L-36,18 L-36,14 L-34,14 L-34,10 L-30,10 L-30,8 L-18,8 L-18,6 L-10,6 L-10,4 L-4,4 L-4,2 L0,2 Z " fill="#C69784" transform="translate(526,352)"/>
<path d="M0,0 L2,1 L2,3 L9,3 L9,5 L7,5 L8,12 L5,21 L2,21 L2,28 L0,28 L0,21 L1,17 L0,8 L-1,3 Z " fill="#E5BFA5" transform="translate(383,653)"/>
<path d="M0,0 L2,0 L3,3 L3,42 L1,42 L0,35 L0,6 L-2,6 L-1,1 Z " fill="#E4C09F" transform="translate(710,503)"/>
<path d="M0,0 L1,4 L-3,4 L-3,6 L-9,6 L-9,8 L-23,8 L-23,6 L-31,6 L-34,1 L-20,2 L-19,3 L-4,5 L-4,3 L-9,3 L-9,2 L-2,2 L0,3 Z " fill="#CDAC97" transform="translate(449,718)"/>
<path d="M0,0 L5,1 L6,4 L16,4 L15,7 L8,8 L7,9 L-6,10 L-8,10 L-8,6 L-4,6 L-4,4 L-1,3 Z " fill="#DFAB92" transform="translate(399,399)"/>
<path d="M0,0 L2,1 L2,3 L4,3 L6,7 L9,11 L13,12 L14,10 L21,12 L33,12 L33,14 L28,15 L15,15 L3,13 L-1,8 Z " fill="#E9C7B2" transform="translate(412,700)"/>
<path d="M0,0 L2,0 L2,9 L1,15 L-3,19 L-10,21 L-17,28 L-18,24 L-16,24 L-16,22 L-14,22 L-14,20 L-12,20 L-11,17 L-4,18 L-4,16 L-9,16 L-6,15 L-5,11 L-3,11 L-3,8 L-1,8 L-1,1 Z " fill="#E0BE9D" transform="translate(711,551)"/>
<path d="M0,0 L4,0 L4,6 L-3,8 L-4,10 L-12,10 L-12,12 L-26,12 L-26,14 L-34,14 L-34,13 L-27,13 L-27,11 L-32,11 L-28,9 L-27,8 L-12,8 L-5,9 L-4,4 L3,5 L3,1 Z " fill="#CCB192" transform="translate(530,686)"/>
<path d="M0,0 L3,1 L3,4 L1,4 L3,34 L2,45 L0,45 L0,39 L-2,39 L-2,21 L0,21 Z " fill="#C09783" transform="translate(330,513)"/>
<path d="M0,0 L4,1 L4,3 L7,4 L14,15 L16,17 L14,28 L12,28 L12,15 L8,13 L8,10 L3,10 L3,4 L1,4 L1,8 L-2,9 L-4,7 L0,7 Z " fill="#E1B297" transform="translate(359,554)"/>
<path d="M0,0 L18,1 L18,2 L6,2 L6,4 L2,4 L2,7 L5,7 L5,11 L-2,11 L-3,15 L-10,15 L-13,13 L-12,12 L-4,12 L-3,9 L-1,7 L-2,3 Z " fill="#D2BB99" transform="translate(528,680)"/>
<path d="M0,0 L4,5 L8,6 L9,4 L5,3 L10,2 L11,8 L20,7 L21,4 L25,6 L23,8 L22,12 L8,12 L8,8 L3,7 L0,4 Z " fill="#C79D88" transform="translate(332,558)"/>
<path d="M0,0 L5,1 L8,4 L8,6 L12,6 L12,8 L20,8 L22,12 L26,12 L25,14 L17,14 L4,12 L4,10 L11,9 L11,7 L6,8 L5,4 Z " fill="#C09782" transform="translate(642,362)"/>
<path d="M0,0 L1,0 L2,6 L2,36 L0,36 L0,26 L-2,26 L-2,6 L0,6 Z " fill="#C8A28C" transform="translate(374,610)"/>
<path d="M0,0 L2,4 L-5,4 L0,5 L-5,9 L-13,17 L-15,17 L-15,15 L-17,15 L-17,20 L-18,20 L-18,14 L-6,2 L0,2 Z " fill="#12100D" transform="translate(708,568)"/>
<path d="M0,0 L16,1 L18,2 L18,4 L21,5 L21,7 L11,10 L11,8 L14,5 L13,4 L-6,4 L-11,3 L-9,1 Z " fill="#E6B49A" transform="translate(645,376)"/>
<path d="M0,0 L5,0 L6,4 L5,6 L7,7 L7,9 L0,9 L-1,11 L-3,11 L-3,13 L-5,13 L-5,15 L-7,15 L-7,19 L-10,19 L-10,16 L-8,16 L-8,12 L-4,12 L-4,10 L-2,10 L-3,5 L-4,2 Z " fill="#DFC0A1" transform="translate(700,560)"/>
<path d="M0,0 L3,1 L3,13 L1,13 L1,17 L-1,17 L-1,29 L1,29 L1,37 L0,37 L0,30 L-2,30 L-2,37 L-3,37 L-2,14 L-1,2 Z " fill="#1A1512" transform="translate(367,569)"/>
<path d="M0,0 L6,2 L10,6 L10,8 L14,8 L14,10 L7,11 L7,8 L-3,6 L-3,4 L-11,5 L-10,2 L-3,2 Z " fill="#E2B09A" transform="translate(639,361)"/>
<path d="M0,0 L19,0 L19,3 L0,3 L0,6 L-4,6 L-4,8 L-8,7 L-5,7 L-5,5 L-7,5 L-6,2 L0,2 Z " fill="#E0C4A3" transform="translate(614,638)"/>
<path d="M0,0 L1,0 L2,54 L2,61 L1,58 L-1,58 L-2,60 L-2,54 L0,54 L0,44 L-2,44 L-2,40 L0,40 Z " fill="#302921" transform="translate(714,506)"/>
<path d="M0,0 L2,1 L1,3 L-1,3 L1,13 L-1,15 L-3,22 L-5,21 L-5,19 L-7,19 L-7,21 L-9,21 L-9,32 L-10,32 L-10,20 L-6,18 L-6,10 L-2,10 L-2,2 Z " fill="#C19383" transform="translate(352,424)"/>
<path d="M0,0 L2,0 L2,2 L6,2 L8,14 L7,17 L5,17 L5,12 L2,12 L-1,1 Z " fill="#EAC1AD" transform="translate(404,690)"/>
<path d="M0,0 L2,4 L4,4 L3,9 L2,26 L0,27 L-1,25 L-1,8 L1,8 L-1,3 Z " fill="#E0B199" transform="translate(332,509)"/>
<path d="M0,0 L4,1 L1,1 L1,3 L4,3 L3,7 L1,9 L1,7 L-1,7 L0,11 L-3,11 L-3,14 L-1,14 L-2,23 L-7,23 L-8,26 L-8,22 L-6,22 L-6,18 L-4,18 L-4,10 L-2,10 L-2,6 L0,6 Z " fill="#221D18" transform="translate(686,588)"/>
<path d="M0,0 L1,0 L2,15 L3,0 L4,0 L4,18 L2,18 L2,36 L4,36 L4,42 L3,42 L3,37 L1,37 L1,43 L0,43 Z " fill="#221B17" transform="translate(326,516)"/>
<path d="M0,0 L1,4 L8,5 L10,9 L9,13 L6,11 L1,12 L-1,11 Z " fill="#E3BE9F" transform="translate(698,516)"/>
<path d="M0,0 L12,0 L13,4 L12,6 L0,6 Z " fill="#E6B29D" transform="translate(576,353)"/>
<path d="M0,0 L1,0 L2,5 L3,0 L4,0 L4,8 L2,8 L2,14 L4,14 L4,34 L3,34 L3,15 L1,15 L1,34 L0,34 Z " fill="#1E1714" transform="translate(324,478)"/>
<path d="M0,0 L14,1 L14,2 L4,3 L-3,9 L-4,12 L-5,12 L-5,7 L-7,7 L-7,12 L-8,12 L-8,6 L-4,2 L0,2 Z " fill="#D8A18B" transform="translate(458,378)"/>
<path d="M0,0 L3,0 L3,9 L5,10 L2,13 L2,15 L4,16 L3,20 L1,19 L1,17 L-1,17 L-1,14 L-3,14 L-3,11 L-1,10 L-1,2 Z " fill="#EEC7AB" transform="translate(393,647)"/>
<path d="M0,0 L3,1 L3,7 L1,7 L1,27 L3,27 L3,37 L2,37 L2,28 L0,28 L0,38 L-1,38 L-1,2 Z " fill="#28211C" transform="translate(371,609)"/>
<path d="M0,0 L4,1 L1,5 L-7,6 L-9,9 L-19,9 L-19,11 L-25,11 L-25,10 L-20,10 L-20,8 L-24,7 L-10,8 L-10,6 L-19,6 L-19,5 L-11,5 L-11,3 L0,4 L-1,1 Z " fill="#BEAB8D" transform="translate(571,669)"/>
<path d="M0,0 L2,0 L3,2 L3,13 L-1,16 L-2,13 L-2,2 L0,2 Z " fill="#E1AC97" transform="translate(345,443)"/>
<path d="M0,0 L1,0 L1,12 L3,12 L3,1 L4,1 L4,16 L3,42 L2,42 L2,16 L0,16 Z " fill="#251F1B" transform="translate(720,428)"/>
<path d="M0,0 L1,4 L3,4 L3,14 L-1,14 L-1,16 L-11,17 L-19,16 L-19,14 L-5,14 L-2,15 L-2,13 L-4,12 L2,13 L2,5 L-2,4 L0,4 Z " fill="#C8AD94" transform="translate(675,614)"/>
<path d="M0,0 L3,2 L0,6 L-4,6 L-4,10 L-7,11 L-12,10 L-11,5 L-7,3 L-1,5 Z " fill="#DEC1A7" transform="translate(488,702)"/>
<path d="M0,0 L4,1 L4,3 L7,4 L2,6 L1,12 L-1,12 L-1,18 L-5,17 L-2,17 L-3,12 L-3,5 Z " fill="#CAB294" transform="translate(599,644)"/>
<path d="M0,0 L1,0 L1,15 L3,15 L3,23 L5,23 L5,16 L6,20 L8,20 L9,25 L8,28 L4,28 L4,24 L2,24 L2,16 L0,16 Z " fill="#BF9F8A" transform="translate(376,646)"/>
<path d="M0,0 L9,1 L11,5 L13,5 L13,9 L15,9 L15,19 L14,19 L14,10 L11,10 L12,6 L10,6 L9,10 L7,10 L7,7 L5,7 L5,5 L1,4 L8,4 L8,2 L0,2 Z " fill="#BF9780" transform="translate(701,405)"/>
<path d="M0,0 L3,4 L8,13 L8,20 L3,17 L3,9 L-1,9 Z " fill="#E0B8A3" transform="translate(392,684)"/>
<path d="M0,0 L1,0 L2,8 L2,31 L1,31 L1,22 L-1,22 L-1,30 L-2,30 L-2,18 L0,18 L0,8 L-2,8 L-2,6 L0,6 Z " fill="#181310" transform="translate(718,476)"/>
<path d="M0,0 L4,1 L1,1 L2,14 L2,35 L0,34 L0,14 L-2,14 L-2,8 L0,8 Z " fill="#B18776" transform="translate(328,478)"/>
<path d="M0,0 L1,0 L1,6 L-3,10 L-10,12 L-17,19 L-18,15 L-16,15 L-16,13 L-14,13 L-14,11 L-12,11 L-11,8 L-4,9 L-5,6 L0,5 Z " fill="#D3B79A" transform="translate(711,560)"/>
<path d="M0,0 L4,1 L1,1 L1,4 L-3,3 L-3,5 L-1,5 L-3,10 L-6,9 L-11,7 L-10,4 L-4,4 L-4,2 L0,2 Z " fill="#C99A87" transform="translate(526,352)"/>
<path d="M0,0 L4,2 L2,4 L1,10 L-4,10 L-4,15 L-6,15 L-7,9 L-6,6 L-3,6 L-2,3 L-2,9 L0,9 L-1,1 Z " fill="#DFBD9E" transform="translate(689,578)"/>
<path d="M0,0 L4,1 L1,1 L1,6 L-2,8 L-16,7 L-16,6 L-8,6 L-8,4 L-2,4 Z " fill="#C1927D" transform="translate(446,390)"/>
<path d="M0,0 L7,0 L10,2 L8,4 L-12,4 L-12,2 L0,2 Z " fill="#E1AC97" transform="translate(509,359)"/>
<path d="M0,0 L6,3 L5,6 L7,6 L6,10 L2,11 L0,9 Z " fill="#F6CCB8" transform="translate(411,682)"/>
<path d="M0,0 L3,2 L4,6 L5,11 L9,11 L8,14 L4,13 L1,10 L-1,6 L-1,1 Z " fill="#DFAF98" transform="translate(332,551)"/>
<path d="M0,0 L4,0 L4,2 L12,2 L12,4 L16,4 L15,6 L2,6 L1,3 L3,3 L3,1 Z " fill="#C79989" transform="translate(614,352)"/>
<path d="M0,0 L2,0 L4,6 L0,11 L-1,15 L-4,14 L-4,8 L-2,8 Z " fill="#E0AA97" transform="translate(355,419)"/>
<path d="M0,0 L3,0 L3,40 L2,40 L2,4 L0,4 Z " fill="#040303" transform="translate(715,506)"/>
<path d="M0,0 L2,0 L1,35 L0,35 L0,6 L-2,6 L-1,1 Z " fill="#DEB99A" transform="translate(710,503)"/>
<path d="M0,0 L5,5 L5,18 L7,18 L7,10 L8,10 L8,19 L6,19 L6,23 L4,23 L3,18 L4,6 L0,4 Z " fill="#C09882" transform="translate(366,564)"/>
<path d="M0,0 L4,1 L1,1 L1,3 L-3,3 L-2,8 L-4,10 L-11,10 L-11,9 L-6,9 L-6,7 L-16,7 L-16,6 L-6,6 L-4,2 L0,2 Z " fill="#BC8F7A" transform="translate(394,402)"/>
<path d="M0,0 L3,3 L-2,4 L-12,4 L-14,1 Z " fill="#DEA99B" transform="translate(612,351)"/>
<path d="M0,0 L2,2 L3,7 L6,7 L7,13 L3,13 L3,10 L-1,9 L-1,2 Z " fill="#DFB298" transform="translate(370,596)"/>
<path d="M0,0 L11,0 L11,3 L13,3 L13,5 L7,5 L6,3 L3,4 L3,2 L-1,1 Z " fill="#ECB7A4" transform="translate(581,359)"/>
<path d="M0,0 L1,3 L3,3 L4,0 L3,10 L5,10 L5,5 L6,5 L6,18 L4,18 L4,14 L2,14 L2,4 L0,4 Z " fill="#1D1713" transform="translate(714,410)"/>
<path d="M0,0 L6,0 L6,1 L1,1 L1,3 L-11,3 L-11,5 L-8,5 L-9,8 L-9,6 L-11,6 L-11,12 L-12,12 L-12,6 L-16,6 L-16,4 L-12,4 L-12,2 L0,2 Z " fill="#2E2A22" transform="translate(546,680)"/>
<path d="M0,0 L5,4 L5,6 L10,7 L11,9 L9,10 L3,10 L2,7 L1,6 Z " fill="#BD9580" transform="translate(681,388)"/>
<path d="M0,0 L11,1 L11,2 L3,3 L1,6 L-19,6 L-19,5 L0,5 L-1,1 Z " fill="#B19B81" transform="translate(633,636)"/>
<path d="M0,0 L2,2 L2,9 L-2,17 L-3,17 L-3,7 L0,6 Z M-4,8 Z " fill="#E1BB9E" transform="translate(712,482)"/>
<path d="M0,0 L18,4 L18,6 L10,4 L9,7 L6,6 L6,4 L3,5 L2,2 L0,2 Z " fill="#E5B19F" transform="translate(610,357)"/>
<path d="M0,0 L5,5 L5,11 L10,10 L11,15 L16,14 L14,17 L10,16 L8,13 L4,12 L4,6 L0,4 Z " fill="#B59989" transform="translate(394,698)"/>
<path d="M0,0 L11,1 L11,3 L4,3 L4,6 L-1,7 L-2,4 L3,5 L3,3 L-1,2 Z " fill="#D5BA9B" transform="translate(492,696)"/>
<path d="M0,0 L15,0 L18,2 L11,4 L11,2 L0,2 Z " fill="#E2A892" transform="translate(461,377)"/>
<path d="M0,0 L1,0 L1,12 L-1,12 L-1,18 L-4,19 L-4,15 L-2,15 L-3,12 L-3,1 L-2,1 L-2,11 L0,11 Z " fill="#201815" transform="translate(341,444)"/>
<path d="M0,0 L3,0 L3,9 L5,10 L3,10 L3,13 L1,13 L0,10 Z " fill="#DEB096" transform="translate(712,415)"/>
<path d="M0,0 L5,0 L1,1 L1,3 L6,3 L1,7 L-1,9 L-1,5 L-3,5 L-3,10 L-4,10 L-4,4 Z " fill="#BD8E7D" transform="translate(358,414)"/>
<path d="M0,0 L10,0 L10,2 L7,4 L4,6 L4,3 L-3,4 L-3,2 L0,2 Z " fill="#E0A993" transform="translate(378,409)"/>
<path d="M0,0 L1,3 L3,3 L4,10 L2,10 L1,12 L-1,12 L-1,4 L0,2 L-2,1 Z " fill="#E2B9A5" transform="translate(388,673)"/>
<path d="M0,0 L2,0 L1,16 L-2,15 L-1,2 Z " fill="#EABBA1" transform="translate(712,456)"/>
<path d="M0,0 L13,0 L13,2 L-3,4 L-5,2 Z " fill="#E4B09B" transform="translate(526,360)"/>
<path d="M0,0 L4,0 L4,6 L-3,8 L-4,10 L-12,10 L-12,9 L-5,9 L-4,4 L3,5 L3,1 Z " fill="#B09D80" transform="translate(530,686)"/>
<path d="M0,0 L2,0 L1,9 L-4,9 L-5,12 L-5,8 L-3,8 L-3,4 L0,4 Z " fill="#12100D" transform="translate(683,602)"/>
<path d="M0,0 L4,1 L4,9 L7,10 L3,10 L3,4 L1,4 L1,8 L-2,9 L-4,7 L0,7 Z " fill="#BF9781" transform="translate(359,554)"/>
<path d="M0,0 L8,0 L10,3 L5,3 L5,5 L0,4 Z " fill="#EEBD9F" transform="translate(672,408)"/>
<path d="M0,0 L6,0 L7,2 L6,6 L2,6 L2,2 L-2,3 L-2,1 Z " fill="#E4C9A8" transform="translate(494,678)"/>
<path d="M0,0 L2,0 L2,3 L11,3 L11,5 L2,5 L-2,4 L-2,1 Z " fill="#E3CDAA" transform="translate(550,672)"/>
<path d="M0,0 L8,0 L8,4 L0,4 Z " fill="#F7CFB5" transform="translate(408,648)"/>
<path d="M0,0 L8,0 L8,4 L0,4 Z " fill="#E5C3A0" transform="translate(664,588)"/>
<path d="M0,0 L9,0 L13,1 L13,3 L3,3 L-2,2 Z " fill="#EBB89D" transform="translate(636,377)"/>
<path d="M0,0 L7,3 L7,5 L5,5 L4,7 L0,6 L-1,1 Z " fill="#D1B3A2" transform="translate(410,712)"/>
<path d="M0,0 L6,0 L6,4 L2,4 L2,6 L-2,5 L1,5 L1,3 L-1,3 Z " fill="#C9B292" transform="translate(608,640)"/>
<path d="M0,0 L2,4 L2,10 L-2,9 L-1,1 Z " fill="#DEB49B" transform="translate(717,466)"/>
<path d="M0,0 L1,4 L3,4 L5,9 L7,10 L7,16 L6,16 L6,11 L2,11 L1,7 L2,5 L-1,5 Z " fill="#231D1A" transform="translate(391,694)"/>
<path d="M0,0 L12,1 L12,3 L1,3 L-1,1 Z " fill="#E2CBA6" transform="translate(533,678)"/>
<path d="M0,0 L3,1 L2,3 L4,3 L4,5 L1,5 L1,7 L-2,7 L-3,4 Z " fill="#DEC4A3" transform="translate(605,640)"/>
<path d="M0,0 L4,2 L4,8 L1,10 L1,4 L-1,4 Z " fill="#EBBCA2" transform="translate(708,439)"/>
<path d="M0,0 L3,2 L2,8 L-1,9 L-2,7 L-2,1 Z " fill="#050403" transform="translate(352,416)"/>
<path d="M0,0 L9,0 L12,3 L8,5 L5,3 L-1,3 Z " fill="#EABA9F" transform="translate(685,411)"/>
<path d="M0,0 L4,1 L1,1 L1,9 L-1,10 L-1,5 L-3,5 L-3,10 L-4,10 L-4,4 Z " fill="#B68875" transform="translate(454,380)"/>
<path d="M0,0 L8,0 L13,2 L9,4 L0,2 Z " fill="#E1C1AC" transform="translate(417,715)"/>
<path d="M0,0 L1,3 L0,6 L3,6 L1,11 L1,15 L-1,15 L-2,12 L-1,2 Z " fill="#EDC7AB" transform="translate(395,610)"/>
<path d="M0,0 L3,1 L3,5 L9,5 L10,2 L10,6 L2,6 L0,3 L-6,2 L-6,1 Z " fill="#271E1A" transform="translate(404,396)"/>
<path d="M0,0 L2,0 L1,7 L3,7 L3,10 L0,9 L-3,4 L-3,2 L0,2 Z " fill="#E1B298" transform="translate(679,389)"/>
<path d="M0,0 L14,1 L14,2 L2,3 L0,6 L-4,5 L-1,5 Z " fill="#B5A184" transform="translate(580,662)"/>
<path d="M0,0 L2,1 L1,14 L-1,12 L-1,2 Z " fill="#E5AF9D" transform="translate(346,480)"/>
<path d="M0,0 L11,1 L6,6 L4,6 L4,4 L2,4 L2,2 L0,2 Z " fill="#ECB6A5" transform="translate(596,362)"/>
<path d="M0,0 L1,0 L2,12 L1,10 L-1,10 L-2,12 L-2,6 L0,6 Z " fill="#1E1B16" transform="translate(600,650)"/>
<path d="M0,0 L8,0 L8,3 L0,3 Z " fill="#DCA78F" transform="translate(430,397)"/>
<path d="M0,0 L13,0 L12,2 L1,2 L-1,4 L-6,3 L-2,1 Z " fill="#E4B09B" transform="translate(572,352)"/>
<path d="M0,0 L2,0 L2,6 L0,6 L-1,9 L-4,10 L-4,6 L-1,5 Z " fill="#E0A992" transform="translate(451,385)"/>
<path d="M0,0 L4,1 L1,1 L1,3 L4,3 L3,7 L1,8 L1,5 L-1,5 L-2,8 L-2,4 L0,4 Z " fill="#C09280" transform="translate(492,362)"/>
<path d="M0,0 L3,2 L0,6 L-4,6 L-5,10 L-6,4 L-1,5 Z " fill="#BFA88E" transform="translate(488,702)"/>
<path d="M0,0 L3,2 L3,8 L-1,7 Z " fill="#D0AA96" transform="translate(393,691)"/>
<path d="M0,0 L1,0 L1,6 L7,7 L5,8 L6,11 L2,9 L0,7 Z " fill="#AF8C78" transform="translate(368,599)"/>
<path d="M0,0 L1,0 L2,8 L1,18 L0,18 L0,8 L-2,8 L-2,6 L0,6 Z " fill="#302822" transform="translate(718,476)"/>
<path d="M0,0 L0,3 L-3,4 L-11,3 L-8,1 Z " fill="#F1D2AD" transform="translate(507,662)"/>
<path d="M0,0 L3,1 L3,7 L-1,6 Z " fill="#181310" transform="translate(371,609)"/>
<path d="M0,0 L1,0 L1,6 L-3,10 L-9,10 L-9,9 L-4,9 L-5,6 L0,5 Z " fill="#B59B81" transform="translate(711,560)"/>
<path d="M0,0 L6,0 L7,3 L0,3 L-2,1 Z " fill="#E0CAA7" transform="translate(564,670)"/>
<path d="M0,0 L4,2 L2,4 L1,10 L-3,9 L0,9 L-1,1 Z " fill="#C0A58B" transform="translate(689,578)"/>
<path d="M0,0 L1,0 L1,5 L3,5 L3,7 L5,7 L4,11 L0,8 Z " fill="#1C1612" transform="translate(680,380)"/>
<path d="M0,0 L6,0 L6,3 L8,4 L6,5 L2,4 L2,2 L0,2 Z " fill="#E1AF95" transform="translate(668,380)"/>
<path d="M0,0 L5,3 L5,5 L-2,8 L-2,6 L1,3 Z " fill="#E8B69C" transform="translate(658,378)"/>
<path d="M0,0 L7,0 L8,3 L0,3 Z " fill="#E9B5A0" transform="translate(576,356)"/>
<path d="M0,0 L1,0 L2,12 L-1,9 Z " fill="#E8C2A9" transform="translate(391,661)"/>
<path d="M0,0 L1,3 L3,4 L1,4 L1,8 L-2,9 L-2,3 L0,3 Z " fill="#DCBDA1" transform="translate(674,610)"/>
<path d="M0,0 L1,3 L-1,7 L-1,5 L-3,5 L-3,10 L-4,10 L-4,4 Z " fill="#2D2721" transform="translate(694,578)"/>
<path d="M0,0 L2,3 L2,5 L0,5 L-1,7 L-1,5 L-3,5 L-4,8 L-3,3 Z " fill="#29201C" transform="translate(358,562)"/>
<path d="M0,0 L4,0 L4,7 L3,4 L1,4 L0,6 Z " fill="#14110E" transform="translate(712,560)"/>
<path d="M0,0 L1,0 L2,5 L3,0 L4,0 L4,8 L1,9 L0,7 Z " fill="#1B1512" transform="translate(342,434)"/>
<path d="M0,0 L5,1 L9,7 L7,7 L6,9 L3,2 Z " fill="#BA9580" transform="translate(692,398)"/>
<path d="M0,0 L4,1 L-1,5 L-4,4 L-4,2 Z " fill="#E9B5A0" transform="translate(561,359)"/>
<path d="M0,0 L2,0 L3,7 L0,8 Z " fill="#DFBE9D" transform="translate(708,543)"/>
<path d="M0,0 L1,0 L2,12 L1,10 L-1,10 Z " fill="#15110F" transform="translate(720,470)"/>
<path d="M0,0 L2,0 L2,2 L4,3 L2,7 L-2,2 Z " fill="#1F1915" transform="translate(699,398)"/>
<path d="M0,0 L2,1 L1,4 L-5,3 L-7,1 Z " fill="#DDAD96" transform="translate(661,372)"/>
<path d="M0,0 L4,1 L1,5 L-7,5 L-7,4 L0,4 L-1,1 Z " fill="#BBA98B" transform="translate(571,669)"/>
<path d="M0,0 L3,0 L3,7 L2,5 L-1,4 Z " fill="#F8D0B6" transform="translate(413,616)"/>
<path d="M0,0 L2,0 L2,10 L0,6 L-2,4 Z " fill="#E7B99F" transform="translate(711,435)"/>
<path d="M0,0 L4,0 L4,4 L11,4 L11,5 L3,5 Z " fill="#B89D8B" transform="translate(415,719)"/>
<path d="M0,0 L8,1 L8,3 L1,3 L-1,1 Z " fill="#E2C5A4" transform="translate(635,634)"/>
<path d="M0,0 L3,0 L3,4 L1,6 L-2,6 L-2,3 L0,3 Z " fill="#DFB199" transform="translate(356,557)"/>
<path d="M0,0 L2,4 L1,11 L-1,11 Z " fill="#E5C1A2" transform="translate(698,516)"/>
<path d="M0,0 L1,4 L-2,6 L-6,5 L-3,5 L-2,1 Z " fill="#DBBB9A" transform="translate(708,561)"/>
<path d="M0,0 L4,0 L4,7 L3,5 L1,5 Z " fill="#E4B09B" transform="translate(345,472)"/>
<path d="M0,0 L2,1 L1,5 L-4,6 L-2,2 Z " fill="#302B23" transform="translate(576,668)"/>
<path d="M0,0 L2,2 L2,5 L-4,5 Z " fill="#2C2620" transform="translate(699,573)"/>
<path d="M0,0 L4,0 L4,4 L0,4 Z " fill="#EDCCA9" transform="translate(608,544)"/>
<path d="M0,0 L4,0 L4,3 L-2,4 L-2,2 L0,2 Z " fill="#D9C4A0" transform="translate(572,666)"/>
<path d="M0,0 L4,1 L1,5 L-1,8 Z " fill="#E6B59F" transform="translate(347,500)"/>
<path d="M0,0 L3,0 L3,7 L2,4 L0,4 Z " fill="#040403" transform="translate(721,470)"/>
<path d="M0,0 L5,1 L5,3 L-1,3 Z " fill="#E1CAA7" transform="translate(528,680)"/>
<path d="M0,0 L6,1 L6,3 L-1,2 Z " fill="#E2CCA6" transform="translate(545,676)"/>
<path d="M0,0 L2,0 L2,4 L-2,4 L-2,1 Z " fill="#DFC9A1" transform="translate(550,672)"/>
<path d="M0,0 L1,0 L2,7 L-1,7 Z " fill="#E0C0A3" transform="translate(677,602)"/>
<path d="M0,0 L1,0 L0,8 L-2,6 L-1,2 Z " fill="#E3AC97" transform="translate(361,424)"/>
<path d="M0,0 L3,0 L3,5 L0,4 Z " fill="#EABFAC" transform="translate(397,684)"/>
<path d="M0,0 L4,2 L0,5 L-1,2 Z " fill="#050403" transform="translate(695,578)"/>
<path d="M0,0 L4,2 L2,4 L-1,4 Z " fill="#D4A891" transform="translate(353,562)"/>
<path d="M0,0 L4,1 L5,4 L1,3 Z M1,1 Z " fill="#0D0A08" transform="translate(326,512)"/>
<path d="M0,0 L1,0 L1,6 L-2,7 L-2,3 L0,3 Z " fill="#211916" transform="translate(353,418)"/>
<path d="M0,0 L3,3 L1,5 L-3,1 Z " fill="#DCAC96" transform="translate(645,364)"/>
<path d="M0,0 L3,1 L3,3 L-2,4 Z " fill="#26211D" transform="translate(482,712)"/>
<path d="M0,0 L4,0 L4,3 L0,3 Z " fill="#F7C5AB" transform="translate(636,488)"/>
<path d="M0,0 L2,1 Z M-1,1 Z M-5,2 L-1,3 L-5,5 Z " fill="#E0AB91" transform="translate(391,410)"/>
<path d="M0,0 L3,1 L2,3 L-3,3 Z " fill="#DCBAA6" transform="translate(447,716)"/>
<path d="M0,0 L3,1 L3,3 L-2,4 Z " fill="#27221C" transform="translate(490,704)"/>
<path d="M0,0 L2,0 L1,4 L-1,5 Z " fill="#D1BE9D" transform="translate(562,672)"/>
<path d="M0,0 L4,1 L4,3 L-1,2 Z " fill="#E1C4A3" transform="translate(643,632)"/>
<path d="M0,0 L4,1 L4,3 L-1,2 Z " fill="#E2C3A6" transform="translate(669,626)"/>
<path d="M0,0 L1,4 L-2,4 Z M-3,4 Z " fill="#DFBE9E" transform="translate(679,594)"/>
<path d="M0,0 L1,4 L-2,4 L-2,1 Z " fill="#1D1713" transform="translate(367,582)"/>
<path d="M0,0 L2,0 L1,3 L-3,4 L-3,2 Z " fill="#ECBAA0" transform="translate(659,382)"/>
</svg>
