<?xml version="1.0" encoding="UTF-8"?>
<!-- Generator: visioncortex VTracer 0.6.4 -->
<svg version="1.1" xmlns="http://www.w3.org/2000/svg" width="1024" height="1024">
<path d="M0,0 L1024,0 L1024,1024 L0,1024 Z " fill="#000000" transform="translate(0,0)"/>
<path d="M0,0 L8,0 L8,2 L42,2 L42,0 L82,0 L82,2 L88,2 L88,4 L92,4 L92,8 L96,8 L98,13 L100,15 L106,16 L106,18 L114,18 L114,20 L119,21 L128,31 L132,32 L132,40 L134,40 L134,46 L142,46 L142,48 L147,49 L148,54 L150,54 L152,59 L154,60 L154,64 L156,64 L156,68 L158,68 L158,78 L160,78 L160,82 L162,82 L162,120 L164,120 L164,148 L162,148 L162,170 L160,170 L160,184 L158,184 L158,188 L156,188 L156,194 L154,194 L154,200 L151,202 L150,206 L147,208 L146,212 L141,214 L140,216 L135,218 L134,224 L132,224 L132,230 L130,230 L130,232 L125,234 L124,236 L119,238 L118,240 L114,240 L114,242 L104,243 L102,246 L94,246 L94,248 L89,250 L88,254 L83,258 L82,260 L75,262 L74,264 L70,264 L70,266 L66,266 L66,268 L59,270 L57,272 L56,276 L53,278 L52,282 L50,282 L50,286 L48,286 L48,290 L46,290 L46,292 L42,292 L42,300 L40,300 L40,304 L36,304 L36,306 L31,308 L30,318 L28,318 L28,322 L24,322 L24,324 L20,324 L20,328 L14,328 L14,332 L10,332 L10,334 L2,334 L2,336 L-6,336 L-6,338 L-10,338 L-10,340 L-17,342 L-18,344 L-32,344 L-32,346 L-36,346 L-36,348 L-50,348 L-52,344 L-60,344 L-60,340 L-64,340 L-64,338 L-80,338 L-80,336 L-88,336 L-88,334 L-96,334 L-96,332 L-104,332 L-104,330 L-110,330 L-110,328 L-120,328 L-120,326 L-124,326 L-124,324 L-138,324 L-138,322 L-144,322 L-144,320 L-150,320 L-150,318 L-155,317 L-158,314 L-158,310 L-162,310 L-162,308 L-166,308 L-166,306 L-171,305 L-176,299 L-180,298 L-180,296 L-184,296 L-184,292 L-188,292 L-188,290 L-192,290 L-194,287 L-199,285 L-200,280 L-204,278 L-206,275 L-210,274 L-210,272 L-214,272 L-214,268 L-216,268 L-216,264 L-218,264 L-220,261 L-224,260 L-226,257 L-230,256 L-230,250 L-232,250 L-234,245 L-238,244 L-240,239 L-246,234 L-246,230 L-248,230 L-248,198 L-246,198 L-246,186 L-248,186 L-248,162 L-244,160 L-244,138 L-240,138 L-240,126 L-238,126 L-238,122 L-234,122 L-234,116 L-236,116 L-236,110 L-234,110 L-234,106 L-232,106 L-232,100 L-230,100 L-229,95 L-226,92 L-224,92 L-224,80 L-220,78 L-220,70 L-218,70 L-218,66 L-216,66 L-215,61 L-210,60 L-208,56 L-206,56 L-205,51 L-202,48 L-180,48 L-180,46 L-148,46 L-148,38 L-140,38 L-140,36 L-132,36 L-130,39 L-124,40 L-122,36 L-116,36 L-116,32 L-112,32 L-112,30 L-102,30 L-102,32 L-98,32 L-98,30 L-94,30 L-92,26 L-90,24 L-84,24 L-82,20 L-80,18 L-64,18 L-64,16 L-56,16 L-56,14 L-50,14 L-50,12 L-48,12 L-48,8 L-44,8 L-44,6 L-38,6 L-38,4 L-28,4 L-28,2 L0,2 Z " fill="#EFC07E" transform="translate(554,366)"/>
<path d="M0,0 L8,0 L8,2 L42,2 L42,0 L82,0 L82,2 L88,2 L88,4 L92,4 L92,8 L96,8 L98,13 L100,15 L106,16 L106,18 L114,18 L114,20 L119,21 L128,31 L132,32 L132,40 L134,40 L134,46 L142,46 L142,48 L147,49 L148,54 L150,54 L152,59 L154,60 L154,64 L156,64 L156,68 L158,68 L158,78 L160,78 L160,82 L162,82 L162,120 L164,120 L164,148 L162,148 L162,170 L160,170 L160,184 L158,184 L158,188 L156,188 L156,194 L154,194 L154,200 L151,202 L150,206 L147,208 L146,212 L141,214 L140,216 L135,218 L134,224 L132,224 L132,230 L130,230 L130,232 L125,234 L124,236 L119,238 L118,240 L114,240 L114,242 L104,243 L102,246 L94,246 L94,248 L89,250 L88,254 L83,258 L82,260 L75,262 L74,264 L70,264 L70,266 L66,266 L66,268 L59,270 L57,272 L56,276 L53,278 L52,282 L50,282 L50,286 L48,286 L48,290 L46,290 L46,292 L42,292 L42,300 L40,300 L40,304 L36,304 L36,306 L31,308 L30,318 L28,318 L28,322 L24,322 L24,324 L20,324 L20,328 L14,328 L14,332 L10,332 L10,334 L2,334 L2,336 L-6,336 L-6,338 L-10,338 L-10,340 L-17,342 L-18,344 L-32,344 L-32,346 L-36,346 L-36,348 L-50,348 L-52,344 L-60,344 L-60,340 L-64,340 L-64,338 L-80,338 L-80,336 L-88,336 L-88,334 L-96,334 L-96,332 L-104,332 L-104,330 L-110,330 L-110,328 L-120,328 L-120,326 L-124,326 L-124,324 L-138,324 L-138,322 L-144,322 L-144,320 L-150,320 L-150,318 L-155,317 L-158,314 L-158,310 L-162,310 L-162,308 L-166,308 L-166,306 L-171,305 L-176,299 L-180,298 L-180,296 L-184,296 L-183,292 L-183,295 L-181,295 L-181,292 L-176,290 L-173,290 L-174,294 L-171,294 L-169,298 L-169,301 L-166,300 L-166,302 L-161,303 L-149,307 L-150,312 L-148,312 L-148,314 L-144,313 L-142,314 L-142,316 L-127,317 L-125,318 L-111,319 L-106,323 L-106,325 L-104,327 L-109,327 L-109,329 L-104,328 L-96,328 L-96,329 L-103,329 L-103,331 L-96,330 L-71,330 L-63,332 L-50,334 L-50,336 L-41,335 L-38,334 L-24,334 L-23,333 L-12,332 L-7,328 L-6,323 L4,320 L12,317 L15,313 L15,308 L17,306 L21,305 L23,299 L24,299 L25,290 L28,289 L36,291 L39,279 L41,272 L41,268 L42,266 L45,266 L46,270 L49,270 L53,270 L54,259 L48,262 L42,262 L42,260 L50,260 L51,255 L49,254 L54,254 L54,256 L65,256 L66,241 L69,237 L66,236 L68,232 L71,230 L77,228 L78,227 L86,227 L86,224 L90,223 L96,221 L97,216 L100,220 L102,218 L103,214 L112,211 L112,208 L115,208 L115,206 L119,206 L119,204 L124,204 L127,195 L128,194 L136,193 L136,196 L133,199 L138,199 L138,194 L143,194 L142,191 L140,189 L142,189 L142,183 L145,182 L145,175 L142,174 L144,174 L145,170 L138,171 L134,169 L132,163 L131,168 L129,170 L124,171 L124,168 L126,168 L126,162 L131,162 L132,157 L133,154 L129,155 L127,154 L127,148 L129,148 L128,135 L129,127 L132,127 L132,134 L134,136 L134,144 L132,148 L136,146 L145,146 L144,133 L142,133 L143,127 L145,127 L144,113 L144,89 L145,82 L132,82 L131,75 L130,68 L128,68 L128,72 L126,73 L123,81 L120,77 L120,68 L121,63 L122,60 L120,60 L120,58 L118,58 L119,49 L117,50 L115,54 L111,50 L104,50 L103,48 L99,49 L99,47 L96,49 L91,49 L90,42 L92,42 L93,44 L93,37 L88,35 L87,36 L81,36 L81,35 L86,34 L79,34 L77,35 L77,33 L70,33 L70,35 L54,34 L55,30 L48,32 L39,34 L38,36 L22,36 L22,33 L17,33 L14,36 L13,34 L6,36 L2,37 L2,31 L-6,32 L-19,32 L-21,36 L-18,37 L-18,42 L-21,43 L-24,49 L-26,50 L-34,49 L-40,50 L-43,48 L-44,52 L-46,52 L-46,50 L-48,50 L-48,52 L-50,52 L-50,48 L-48,48 L-48,46 L-46,46 L-46,35 L-50,36 L-55,35 L-55,33 L-60,34 L-63,37 L-65,36 L-64,32 L-58,31 L-59,27 L-62,27 L-61,24 L-58,23 L-73,23 L-77,23 L-81,27 L-80,33 L-85,34 L-86,36 L-92,35 L-92,33 L-98,37 L-103,35 L-108,35 L-114,38 L-119,41 L-124,44 L-130,44 L-135,41 L-143,43 L-144,47 L-147,47 L-146,50 L-177,51 L-180,54 L-188,55 L-197,55 L-200,56 L-200,58 L-202,58 L-202,61 L-208,64 L-212,66 L-212,70 L-214,70 L-215,94 L-216,95 L-218,108 L-219,110 L-222,110 L-222,108 L-227,110 L-229,116 L-229,124 L-231,124 L-230,132 L-234,140 L-236,140 L-238,146 L-233,146 L-231,142 L-231,147 L-233,150 L-231,150 L-232,154 L-234,154 L-236,166 L-238,166 L-237,172 L-239,173 L-239,177 L-242,176 L-242,174 L-244,174 L-244,186 L-245,198 L-243,198 L-243,186 L-242,186 L-241,194 L-240,194 L-240,199 L-243,200 L-244,207 L-245,207 L-245,199 L-247,199 L-246,230 L-248,230 L-248,198 L-246,198 L-246,186 L-248,186 L-248,162 L-244,160 L-244,138 L-240,138 L-240,126 L-238,126 L-238,122 L-234,122 L-234,116 L-236,116 L-236,110 L-234,110 L-234,106 L-232,106 L-232,100 L-230,100 L-229,95 L-226,92 L-224,92 L-224,80 L-220,78 L-220,70 L-218,70 L-218,66 L-216,66 L-215,61 L-210,60 L-208,56 L-206,56 L-205,51 L-202,48 L-180,48 L-180,46 L-148,46 L-148,38 L-140,38 L-140,36 L-132,36 L-130,39 L-124,40 L-122,36 L-116,36 L-116,32 L-112,32 L-112,30 L-102,30 L-102,32 L-98,32 L-98,30 L-94,30 L-92,26 L-90,24 L-84,24 L-82,20 L-80,18 L-64,18 L-64,16 L-56,16 L-56,14 L-50,14 L-50,12 L-48,12 L-48,8 L-44,8 L-44,6 L-38,6 L-38,4 L-28,4 L-28,2 L0,2 Z M131,149 Z M130,150 Z " fill="#D49469" transform="translate(554,366)"/>
<path d="M0,0 L2,1 L0,2 Z M-2,2 L0,2 L1,6 L0,12 L0,22 L-3,24 L-6,29 L-12,29 L-14,29 L-17,32 L-28,32 L-29,31 L-30,39 L-15,39 L-15,43 L-12,42 L-11,38 L-7,36 L-8,44 L-8,50 L-5,51 L-8,51 L-6,57 L-2,57 L-3,62 L-4,64 L-2,64 L-2,66 L4,65 L4,60 L5,59 L14,59 L15,63 L18,62 L18,64 L20,64 L20,67 L22,68 L20,78 L24,79 L24,80 L16,80 L17,89 L20,93 L32,90 L40,91 L40,94 L44,94 L44,96 L47,97 L44,100 L45,105 L43,109 L46,110 L46,108 L52,109 L52,107 L57,109 L60,111 L60,120 L66,121 L66,123 L71,124 L72,119 L84,119 L84,121 L86,121 L86,123 L93,123 L94,121 L97,122 L98,119 L102,120 L102,123 L110,123 L110,120 L112,120 L112,122 L120,123 L120,125 L124,125 L125,123 L139,123 L154,121 L155,119 L172,119 L172,123 L182,124 L184,124 L185,119 L188,119 L188,124 L194,123 L202,123 L206,122 L206,115 L207,115 L207,131 L206,133 L204,133 L205,139 L202,142 L196,144 L192,144 L192,150 L188,152 L186,154 L175,155 L174,156 L158,156 L152,158 L148,157 L148,155 L135,154 L127,152 L95,152 L94,150 L89,150 L89,148 L92,147 L90,145 L90,143 L87,141 L73,140 L71,139 L56,137 L56,135 L50,135 L50,133 L48,133 L48,129 L37,125 L31,122 L29,122 L27,115 L24,115 L25,111 L21,113 L17,113 L17,116 L15,116 L14,113 L11,112 L11,110 L13,109 L8,107 L7,100 L4,99 L4,96 L0,96 L0,87 L-3,80 L-11,76 L-12,72 L-14,72 L-14,68 L-16,68 L-17,66 L-22,65 L-29,60 L-28,51 L-37,48 L-39,42 L-40,42 L-41,33 L-39,28 L-32,23 L-28,23 L-27,21 L-22,20 L-18,18 L-18,7 L-15,3 L-10,4 Z M-7,35 Z " fill="#DDCC81" transform="translate(356,545)"/>
<path d="M0,0 L2,2 L-2,6 L2,7 L-2,11 L-4,15 L-6,15 L-6,20 L-12,22 L-13,29 L-15,29 L-16,33 L-19,34 L-19,36 L-21,36 L-21,38 L-28,39 L-31,43 L-37,44 L-37,41 L-41,44 L-43,44 L-43,46 L-45,46 L-44,49 L-51,52 L-60,54 L-61,62 L-68,65 L-71,66 L-71,68 L-77,70 L-78,71 L-78,79 L-79,83 L-82,85 L-83,89 L-85,89 L-85,93 L-87,93 L-87,97 L-89,97 L-89,99 L-93,99 L-93,107 L-95,107 L-95,111 L-99,111 L-99,113 L-104,115 L-105,125 L-107,125 L-107,129 L-111,129 L-111,131 L-115,131 L-115,135 L-121,135 L-121,139 L-125,139 L-125,141 L-133,141 L-133,143 L-141,143 L-141,145 L-145,145 L-145,147 L-152,149 L-153,151 L-167,151 L-167,153 L-171,153 L-171,155 L-185,155 L-187,151 L-195,151 L-195,147 L-199,147 L-199,145 L-215,145 L-215,143 L-223,143 L-223,141 L-231,141 L-231,139 L-239,139 L-239,137 L-245,137 L-245,135 L-255,135 L-255,133 L-259,133 L-259,131 L-273,131 L-273,129 L-279,129 L-279,127 L-285,127 L-285,125 L-290,124 L-293,121 L-293,117 L-297,117 L-297,115 L-301,115 L-301,113 L-306,112 L-311,106 L-315,105 L-315,103 L-319,103 L-318,99 L-318,102 L-316,102 L-316,99 L-311,97 L-308,97 L-309,101 L-306,101 L-304,105 L-304,108 L-301,107 L-301,109 L-296,110 L-284,114 L-285,119 L-283,119 L-283,121 L-279,120 L-277,121 L-277,123 L-262,124 L-260,125 L-246,126 L-241,130 L-241,132 L-239,134 L-244,134 L-244,136 L-239,135 L-231,135 L-231,136 L-238,136 L-238,138 L-231,137 L-206,137 L-198,139 L-185,141 L-185,143 L-176,142 L-173,141 L-159,141 L-158,140 L-147,139 L-142,135 L-141,130 L-131,127 L-123,124 L-120,120 L-120,115 L-118,113 L-114,112 L-112,106 L-111,106 L-110,97 L-107,96 L-99,98 L-96,86 L-94,79 L-94,75 L-93,73 L-90,73 L-89,77 L-86,77 L-82,77 L-81,66 L-87,69 L-93,69 L-93,67 L-85,67 L-84,62 L-86,61 L-81,61 L-81,63 L-70,63 L-69,48 L-66,44 L-69,43 L-67,39 L-64,37 L-58,35 L-57,34 L-49,34 L-49,31 L-45,30 L-39,28 L-38,23 L-35,27 L-33,25 L-32,21 L-23,18 L-23,15 L-20,15 L-20,13 L-16,13 L-16,11 L-11,11 L-8,2 L-7,1 Z " fill="#DCAB73" transform="translate(689,559)"/>
<path d="M0,0 L8,0 L8,2 L42,2 L42,0 L82,0 L82,2 L88,2 L88,4 L92,4 L92,8 L96,8 L98,13 L100,15 L106,16 L106,18 L114,18 L114,20 L119,21 L128,31 L132,32 L132,40 L134,40 L134,46 L133,46 L133,41 L131,41 L131,47 L129,46 L128,36 L126,36 L126,34 L121,36 L114,31 L114,28 L108,28 L108,26 L102,26 L98,22 L80,19 L80,15 L70,12 L70,10 L62,10 L62,14 L60,15 L54,15 L53,8 L54,4 L46,4 L46,6 L29,7 L28,8 L22,8 L22,6 L11,7 L10,10 L6,9 L5,4 L2,6 L-25,7 L-26,8 L-38,8 L-43,7 L-43,9 L-38,9 L-42,12 L-45,13 L-46,16 L-42,17 L-47,20 L-50,20 L-50,18 L-63,17 L-63,19 L-79,19 L-79,21 L-77,21 L-79,26 L-81,27 L-80,33 L-85,34 L-86,36 L-92,35 L-92,33 L-98,37 L-103,35 L-108,35 L-114,38 L-119,41 L-124,44 L-130,44 L-135,41 L-143,43 L-144,47 L-147,47 L-146,50 L-177,51 L-180,54 L-188,55 L-197,55 L-200,56 L-200,58 L-202,58 L-202,61 L-208,64 L-212,66 L-212,70 L-214,70 L-215,94 L-216,95 L-218,108 L-219,110 L-222,110 L-222,108 L-227,110 L-229,116 L-229,124 L-231,124 L-230,132 L-234,140 L-236,140 L-238,146 L-233,146 L-231,142 L-231,147 L-233,150 L-231,150 L-232,154 L-234,154 L-236,166 L-238,166 L-237,172 L-239,173 L-239,177 L-242,176 L-242,174 L-244,174 L-244,186 L-245,198 L-243,198 L-243,186 L-242,186 L-241,194 L-240,194 L-240,199 L-243,200 L-244,207 L-245,207 L-245,199 L-247,199 L-246,230 L-248,230 L-248,198 L-246,198 L-246,186 L-248,186 L-248,162 L-244,160 L-244,138 L-240,138 L-240,126 L-238,126 L-238,122 L-234,122 L-234,116 L-236,116 L-236,110 L-234,110 L-234,106 L-232,106 L-232,100 L-230,100 L-229,95 L-226,92 L-224,92 L-224,80 L-220,78 L-220,70 L-218,70 L-218,66 L-216,66 L-215,61 L-210,60 L-208,56 L-206,56 L-205,51 L-202,48 L-180,48 L-180,46 L-148,46 L-148,38 L-140,38 L-140,36 L-132,36 L-130,39 L-124,40 L-122,36 L-116,36 L-116,32 L-112,32 L-112,30 L-102,30 L-102,32 L-98,32 L-98,30 L-94,30 L-92,26 L-90,24 L-84,24 L-82,20 L-80,18 L-64,18 L-64,16 L-56,16 L-56,14 L-50,14 L-50,12 L-48,12 L-48,8 L-44,8 L-44,6 L-38,6 L-38,4 L-28,4 L-28,2 L0,2 Z " fill="#CD8B60" transform="translate(554,366)"/>
<path d="M0,0 L9,0 L10,3 L9,9 L15,9 L11,11 L-1,12 L-11,13 L-13,15 L-12,18 L-13,27 L-15,29 L-14,33 L-10,33 L-11,38 L-8,38 L-8,34 L-6,35 L-7,44 L-10,46 L-14,62 L-17,69 L-18,82 L-20,87 L-20,94 L-21,96 L-19,96 L-20,99 L-18,100 L-19,103 L-25,103 L-24,105 L-20,106 L-21,111 L-25,112 L-25,114 L-27,114 L-27,116 L-29,116 L-29,123 L-31,125 L-31,141 L-33,146 L-39,151 L-40,155 L-41,161 L-40,166 L-38,170 L-38,173 L-31,174 L-28,176 L-28,182 L-29,185 L-20,190 L-17,191 L-17,193 L-15,193 L-15,197 L-13,197 L-11,201 L-4,204 L-2,207 L0,212 L-1,221 L3,221 L4,224 L6,225 L7,232 L12,233 L14,235 L10,235 L10,237 L13,238 L9,238 L9,236 L5,236 L3,233 L-2,231 L-3,226 L-7,224 L-9,221 L-13,220 L-13,218 L-17,218 L-17,214 L-19,214 L-19,210 L-21,210 L-23,207 L-27,206 L-29,203 L-33,202 L-33,196 L-35,196 L-37,191 L-41,190 L-43,185 L-49,180 L-50,175 L-50,145 L-46,145 L-43,145 L-45,141 L-46,144 L-48,144 L-48,132 L-47,120 L-45,120 L-45,122 L-42,122 L-41,120 L-43,119 L-40,118 L-41,112 L-39,112 L-39,104 L-37,100 L-35,100 L-34,96 L-36,96 L-36,92 L-41,92 L-40,88 L-39,86 L-37,86 L-35,81 L-34,76 L-34,70 L-32,70 L-33,63 L-32,57 L-29,54 L-25,54 L-25,56 L-22,56 L-20,41 L-19,40 L-17,16 L-15,16 L-15,12 L-10,8 L-5,7 L-5,4 L-3,4 L-3,2 Z M-33,128 Z " fill="#D5BB72" transform="translate(357,420)"/>
<path d="M0,0 L10,1 L22,3 L22,8 L24,8 L24,10 L27,10 L27,12 L32,11 L33,15 L36,12 L42,14 L47,16 L49,21 L51,22 L51,26 L53,26 L54,28 L58,29 L58,34 L62,33 L66,39 L68,41 L68,44 L77,47 L79,48 L82,55 L82,93 L85,93 L85,103 L86,108 L84,112 L88,111 L88,122 L87,133 L87,145 L85,153 L83,153 L83,165 L79,179 L78,180 L72,180 L72,175 L77,175 L76,172 L74,170 L76,170 L76,164 L79,163 L79,156 L76,155 L78,155 L79,151 L72,152 L68,150 L66,144 L65,149 L63,151 L58,152 L58,149 L60,149 L60,143 L65,143 L66,138 L67,135 L63,136 L61,135 L61,129 L63,129 L62,116 L63,108 L66,108 L66,115 L68,117 L68,125 L66,129 L70,127 L79,127 L78,114 L76,114 L77,108 L79,108 L78,94 L78,70 L79,63 L66,63 L65,56 L64,49 L62,49 L62,53 L60,54 L57,62 L54,58 L54,49 L55,44 L56,41 L54,41 L54,39 L52,39 L53,30 L51,31 L49,35 L45,31 L38,31 L37,29 L33,30 L33,28 L30,30 L25,30 L24,23 L26,23 L27,25 L27,18 L22,16 L21,17 L15,17 L15,16 L20,15 L13,15 L11,16 L11,14 L4,14 L4,16 L-12,15 L-11,11 L-18,13 L-27,15 L-28,17 L-44,17 L-43,14 L-32,13 L-31,12 L-22,11 L-22,5 L-20,4 L-15,6 L-14,4 L-5,2 Z M65,130 Z M64,131 Z " fill="#DF9B72" transform="translate(620,385)"/>
<path d="M0,0 L7,0 L7,3 L11,3 L11,8 L13,8 L15,15 L21,16 L21,19 L23,19 L23,16 L29,17 L29,21 L34,21 L36,20 L36,22 L43,23 L45,30 L48,32 L58,33 L63,35 L87,35 L89,42 L97,42 L97,44 L104,44 L105,49 L125,49 L134,50 L136,51 L154,52 L156,50 L167,49 L177,49 L186,48 L195,44 L197,48 L202,49 L201,51 L195,53 L191,53 L191,59 L187,61 L185,63 L174,64 L173,65 L157,65 L151,67 L147,66 L147,64 L134,63 L126,61 L94,61 L93,59 L88,59 L88,57 L91,56 L89,54 L89,52 L86,50 L72,49 L70,48 L55,46 L55,44 L49,44 L49,42 L47,42 L47,38 L36,34 L30,31 L28,31 L26,24 L23,24 L24,20 L20,22 L16,22 L16,25 L14,25 L13,22 L10,21 L10,19 L12,18 L7,16 L6,9 L3,8 L3,5 L-1,5 Z M175,48 Z " fill="#D9C681" transform="translate(357,636)"/>
<path d="M0,0 L1,0 L1,16 L0,18 L-2,18 L-1,24 L-6,25 L-10,24 L-11,21 L-19,25 L-33,26 L-44,26 L-50,28 L-52,29 L-69,28 L-71,27 L-80,26 L-100,25 L-101,20 L-108,20 L-108,18 L-116,18 L-118,14 L-118,11 L-134,11 L-135,7 L-134,4 L-122,4 L-122,6 L-120,6 L-120,8 L-113,8 L-112,6 L-109,7 L-108,4 L-104,5 L-104,8 L-96,8 L-96,5 L-94,5 L-94,7 L-86,8 L-86,10 L-82,10 L-81,8 L-67,8 L-52,6 L-51,4 L-34,4 L-34,8 L-24,9 L-22,9 L-21,4 L-18,4 L-18,9 L-12,8 L-4,8 L0,7 Z M-30,24 Z " fill="#E6D18B" transform="translate(562,660)"/>
<path d="M0,0 L7,1 L7,7 L5,9 L1,11 L0,18 L0,32 L-5,31 L-5,29 L-10,31 L-15,32 L-17,40 L-14,40 L-14,42 L-18,42 L-18,44 L-25,44 L-25,47 L-33,47 L-33,49 L-37,49 L-37,51 L-44,53 L-45,55 L-59,55 L-59,57 L-63,57 L-63,59 L-77,59 L-79,55 L-87,55 L-87,51 L-91,51 L-91,49 L-107,49 L-107,47 L-115,47 L-115,45 L-123,45 L-123,43 L-131,43 L-131,41 L-137,41 L-137,39 L-147,39 L-147,37 L-151,37 L-151,35 L-165,35 L-165,33 L-171,33 L-171,31 L-177,31 L-177,29 L-182,28 L-185,25 L-185,21 L-189,21 L-189,19 L-193,19 L-193,17 L-198,16 L-203,10 L-207,9 L-207,7 L-211,7 L-210,3 L-210,6 L-208,6 L-208,3 L-203,1 L-200,1 L-201,5 L-198,5 L-196,9 L-196,12 L-193,11 L-193,13 L-188,14 L-176,18 L-177,23 L-175,23 L-175,25 L-171,24 L-169,25 L-169,27 L-154,28 L-152,29 L-138,30 L-133,34 L-133,36 L-131,38 L-136,38 L-136,40 L-131,39 L-123,39 L-123,40 L-130,40 L-130,42 L-123,41 L-98,41 L-90,43 L-77,45 L-77,47 L-68,46 L-65,45 L-51,45 L-50,44 L-39,43 L-34,39 L-33,34 L-23,31 L-15,28 L-12,24 L-12,19 L-10,17 L-6,16 L-4,10 L-3,10 L-2,1 Z " fill="#CDB985" transform="translate(581,655)"/>
<path d="M0,0 L1,4 L3,4 L3,42 L5,42 L5,70 L3,70 L3,92 L1,92 L1,106 L-1,106 L-1,110 L-3,110 L-3,116 L-5,116 L-5,122 L-8,124 L-9,128 L-12,130 L-13,134 L-18,136 L-19,138 L-24,140 L-25,146 L-27,146 L-27,152 L-29,152 L-29,154 L-34,156 L-35,158 L-40,160 L-41,162 L-45,162 L-45,164 L-55,165 L-57,168 L-65,168 L-65,170 L-70,172 L-71,176 L-76,180 L-77,182 L-84,184 L-85,186 L-89,186 L-89,188 L-93,188 L-93,190 L-100,192 L-102,193 L-103,186 L-99,183 L-95,183 L-95,181 L-91,178 L-86,177 L-85,169 L-81,167 L-73,165 L-69,163 L-69,161 L-67,161 L-67,159 L-63,156 L-61,156 L-61,159 L-54,156 L-52,153 L-45,153 L-45,151 L-43,151 L-43,149 L-40,147 L-39,144 L-37,144 L-37,137 L-35,135 L-30,135 L-30,130 L-28,130 L-26,124 L-22,121 L-15,120 L-11,106 L-10,100 L-8,101 L-8,107 L-6,107 L-5,92 L-4,90 L-4,74 L-3,65 L0,65 L2,5 L-1,5 Z " fill="#D39E73" transform="translate(713,444)"/>
<path d="M0,0 L9,0 L10,3 L9,9 L15,9 L11,11 L-1,12 L-11,13 L-13,15 L-12,18 L-13,27 L-15,29 L-14,33 L-10,33 L-11,38 L-8,38 L-8,34 L-6,35 L-7,44 L-10,46 L-14,62 L-17,69 L-18,82 L-20,87 L-20,94 L-21,96 L-19,96 L-20,99 L-18,100 L-19,103 L-25,103 L-24,105 L-20,106 L-21,111 L-25,112 L-25,114 L-27,114 L-27,116 L-33,116 L-35,122 L-37,125 L-41,124 L-41,120 L-43,119 L-40,118 L-41,112 L-39,112 L-39,104 L-37,100 L-35,100 L-34,96 L-36,96 L-36,92 L-41,92 L-40,88 L-39,86 L-37,86 L-35,81 L-34,76 L-34,70 L-32,70 L-33,63 L-32,57 L-29,54 L-25,54 L-25,56 L-22,56 L-20,41 L-19,40 L-17,16 L-15,16 L-15,12 L-10,8 L-5,7 L-5,4 L-3,4 L-3,2 Z " fill="#D2A46E" transform="translate(357,420)"/>
<path d="M0,0 L53,0 L53,1 L24,2 L21,5 L13,6 L4,6 L1,7 L1,9 L-1,9 L-1,12 L-7,15 L-11,17 L-11,21 L-13,21 L-14,45 L-15,46 L-17,59 L-18,61 L-21,61 L-21,59 L-26,61 L-28,67 L-28,75 L-30,75 L-29,83 L-33,91 L-35,91 L-37,97 L-32,97 L-30,93 L-30,98 L-32,101 L-30,101 L-31,105 L-33,105 L-35,117 L-37,117 L-36,123 L-38,124 L-38,128 L-41,127 L-41,125 L-43,125 L-43,137 L-44,149 L-42,149 L-42,137 L-41,137 L-40,145 L-39,145 L-39,150 L-42,151 L-43,158 L-44,158 L-44,150 L-46,150 L-45,181 L-47,181 L-47,149 L-45,149 L-45,137 L-47,137 L-47,113 L-43,111 L-43,89 L-39,89 L-39,77 L-37,77 L-37,73 L-33,73 L-33,67 L-35,67 L-35,61 L-33,61 L-33,57 L-31,57 L-31,51 L-29,51 L-28,46 L-25,43 L-23,43 L-23,31 L-19,29 L-19,21 L-17,21 L-17,17 L-15,17 L-14,12 L-9,11 L-7,7 L-4,7 L-4,4 L0,3 Z " fill="#CDA36C" transform="translate(353,415)"/>
<path d="M0,0 L2,1 L0,2 Z M-2,2 L0,2 L1,6 L0,12 L0,22 L-3,24 L-6,29 L-12,29 L-14,29 L-17,32 L-28,32 L-29,31 L-30,39 L-15,39 L-15,43 L-12,42 L-11,38 L-7,36 L-8,44 L-8,50 L-5,51 L-8,51 L-6,57 L-2,57 L-3,62 L-4,64 L-2,64 L-2,66 L4,65 L4,60 L5,59 L14,59 L15,63 L18,62 L18,64 L20,64 L20,67 L22,68 L20,78 L24,79 L24,80 L16,80 L15,83 L15,80 L12,81 L7,78 L-1,78 L-2,71 L-4,67 L-8,66 L-8,64 L-11,63 L-11,61 L-15,60 L-17,55 L-16,52 L-21,51 L-22,49 L-30,48 L-31,43 L-33,43 L-33,40 L-35,40 L-35,31 L-28,27 L-22,24 L-17,24 L-17,21 L-15,21 L-17,5 L-15,3 L-10,4 Z M-7,35 Z " fill="#E6D386" transform="translate(356,545)"/>
<path d="M0,0 L6,1 L8,3 L10,4 L10,6 L14,8 L18,9 L21,13 L23,19 L26,21 L26,25 L32,26 L33,24 L35,24 L35,33 L37,33 L36,38 L39,38 L39,75 L38,102 L36,101 L35,98 L34,115 L34,123 L33,125 L32,137 L31,140 L28,141 L28,134 L27,133 L27,127 L29,127 L29,121 L30,119 L30,101 L32,85 L28,86 L29,81 L28,71 L29,67 L26,67 L25,57 L25,29 L23,25 L23,22 L16,21 L12,18 L9,13 L7,12 L6,8 L2,8 L2,3 L-1,3 Z " fill="#D3946F" transform="translate(676,411)"/>
<path d="M0,0 L1,0 L1,31 L4,31 L4,41 L5,46 L3,50 L7,49 L7,60 L6,71 L6,83 L4,91 L2,91 L2,103 L-2,117 L-3,118 L-9,118 L-9,113 L-4,113 L-5,110 L-7,108 L-5,108 L-5,102 L-2,101 L-2,94 L-5,93 L-3,93 L-2,89 L-9,90 L-13,88 L-15,82 L-16,87 L-18,89 L-23,90 L-23,87 L-21,87 L-21,81 L-16,81 L-15,76 L-14,73 L-18,74 L-20,73 L-20,67 L-18,67 L-19,54 L-18,46 L-15,46 L-15,53 L-13,55 L-13,63 L-15,67 L-11,65 L-2,65 L-3,52 L-5,52 L-4,46 L-2,46 L-3,32 L-3,23 Z M-16,68 Z M-17,69 Z " fill="#DC9D6F" transform="translate(701,447)"/>
<path d="M0,0 L3,1 L1,7 L0,14 L-2,14 L-3,18 L-4,35 L-6,35 L-6,43 L-9,45 L-5,47 L-6,54 L-2,53 L-2,56 L-6,58 L-9,58 L-9,60 L-12,61 L-12,81 L-15,93 L-15,103 L-20,106 L-30,109 L-35,113 L-38,113 L-37,110 L-32,107 L-30,103 L-29,99 L-29,85 L-27,83 L-26,76 L-24,76 L-24,74 L-22,74 L-22,72 L-18,70 L-17,66 L-22,66 L-22,63 L-16,62 L-15,60 L-18,59 L-16,56 L-18,56 L-18,47 L-16,42 L-15,29 L-12,22 L-8,6 L-6,4 L-1,2 Z M-30,88 Z " fill="#DEC478" transform="translate(354,460)"/>
<path d="M0,0 L7,0 L7,3 L11,3 L11,8 L13,8 L15,15 L21,16 L21,19 L23,19 L23,16 L29,17 L29,21 L34,21 L36,20 L36,22 L43,23 L45,30 L48,32 L58,33 L63,35 L79,35 L80,38 L81,36 L83,36 L83,44 L84,47 L107,54 L119,54 L120,57 L119,59 L121,60 L94,61 L93,59 L88,59 L88,57 L91,56 L89,54 L89,52 L86,50 L72,49 L70,48 L55,46 L55,44 L49,44 L49,42 L47,42 L47,38 L36,34 L30,31 L28,31 L26,24 L23,24 L24,20 L20,22 L16,22 L16,25 L14,25 L13,22 L10,21 L10,19 L12,18 L7,16 L6,9 L3,8 L3,5 L-1,5 Z " fill="#D7C67E" transform="translate(357,636)"/>
<path d="M0,0 L3,1 L2,6 L5,6 L5,2 L7,3 L6,12 L3,14 L-1,30 L-4,37 L-5,50 L-7,55 L-7,62 L-8,64 L-6,64 L-7,67 L-5,68 L-6,71 L-12,71 L-11,73 L-7,74 L-8,79 L-12,80 L-12,82 L-14,82 L-14,84 L-20,84 L-22,90 L-24,93 L-28,92 L-28,88 L-30,87 L-27,86 L-28,80 L-23,78 L-20,72 L-18,72 L-19,62 L-17,56 L-19,55 L-16,46 L-14,45 L-14,47 L-12,47 L-11,44 L-8,43 L-7,22 L-4,14 L-1,1 Z M-20,62 Z " fill="#D8B66E" transform="translate(344,452)"/>
<path d="M0,0 L8,0 L7,2 L1,1 L1,3 L-27,3 L-27,5 L-37,5 L-37,7 L-35,8 L-43,7 L-43,9 L-38,9 L-42,12 L-45,13 L-46,16 L-42,17 L-47,20 L-50,20 L-50,18 L-63,17 L-63,19 L-79,19 L-79,21 L-77,21 L-79,26 L-81,27 L-80,33 L-85,34 L-86,36 L-92,35 L-92,33 L-98,37 L-103,35 L-108,35 L-114,38 L-119,41 L-124,44 L-130,44 L-135,41 L-143,43 L-144,47 L-147,47 L-146,50 L-201,49 L-201,51 L-199,52 L-203,55 L-203,53 L-205,53 L-206,56 L-205,51 L-202,48 L-180,48 L-180,46 L-148,46 L-148,38 L-140,38 L-140,36 L-132,36 L-130,39 L-124,40 L-122,36 L-116,36 L-116,32 L-112,32 L-112,30 L-102,30 L-102,32 L-98,32 L-98,30 L-94,30 L-92,26 L-90,24 L-84,24 L-82,20 L-80,18 L-64,18 L-64,16 L-56,16 L-56,14 L-50,14 L-50,12 L-48,12 L-48,8 L-44,8 L-44,6 L-38,6 L-38,4 L-28,4 L-28,2 L0,2 Z " fill="#B3845B" transform="translate(554,366)"/>
<path d="M0,0 L10,1 L22,3 L22,8 L24,8 L24,10 L27,10 L27,12 L32,11 L33,15 L37,16 L36,18 L27,18 L22,16 L21,17 L15,17 L15,16 L20,15 L13,15 L11,16 L11,14 L4,14 L4,16 L-12,15 L-11,11 L-18,13 L-27,15 L-28,17 L-44,17 L-43,14 L-32,13 L-31,12 L-22,11 L-22,5 L-20,4 L-15,6 L-14,4 L-5,2 Z " fill="#E29C6C" transform="translate(620,385)"/>
<path d="M0,0 L3,0 L2,4 L5,4 L7,8 L7,11 L10,10 L10,12 L15,13 L27,17 L26,22 L28,22 L28,24 L32,23 L34,24 L34,26 L49,27 L51,28 L65,29 L70,33 L70,35 L72,37 L67,37 L67,39 L72,38 L80,38 L80,39 L73,39 L73,41 L80,40 L88,40 L88,41 L81,41 L81,43 L88,42 L96,42 L96,43 L89,43 L89,45 L96,45 L96,46 L88,46 L88,44 L80,44 L80,42 L72,42 L72,40 L66,40 L66,38 L56,38 L56,36 L52,36 L52,34 L38,34 L38,32 L32,32 L32,30 L26,30 L26,28 L21,27 L18,24 L18,20 L14,20 L14,18 L10,18 L10,16 L5,15 L0,9 L-4,8 L-4,6 L-8,6 L-7,2 L-7,5 L-5,5 L-5,2 Z " fill="#CEBE76" transform="translate(378,656)"/>
<path d="M0,0 L2,0 L3,5 L6,5 L8,10 L12,11 L13,12 L13,18 L15,18 L17,28 L21,28 L22,33 L28,34 L31,37 L38,40 L38,43 L44,44 L46,49 L46,53 L50,53 L51,56 L53,57 L54,64 L59,65 L61,67 L57,67 L57,69 L60,70 L56,70 L56,68 L52,68 L50,65 L45,63 L44,58 L40,56 L38,53 L34,52 L34,50 L30,50 L30,46 L28,46 L28,42 L26,42 L24,39 L20,38 L18,35 L14,34 L14,28 L12,28 L10,23 L6,22 L4,17 L-2,12 L-1,8 Z " fill="#CEC077" transform="translate(310,588)"/>
<path d="M0,0 L3,0 L4,4 L7,4 L13,4 L15,6 L14,10 L11,12 L10,16 L8,16 L8,20 L6,20 L6,24 L4,24 L4,26 L0,26 L0,34 L-2,34 L-2,38 L-6,38 L-6,40 L-11,42 L-12,52 L-14,52 L-14,56 L-18,56 L-18,58 L-22,58 L-22,62 L-28,62 L-28,66 L-32,66 L-32,68 L-40,68 L-40,67 L-33,67 L-33,65 L-40,65 L-40,64 L-31,64 L-29,65 L-29,63 L-32,63 L-30,55 L-25,53 L-20,51 L-18,48 L-19,53 L-15,55 L-16,52 L-16,41 L-15,33 L-9,30 L-8,25 L-6,25 L-3,13 L-1,6 L-1,2 Z " fill="#D1AF73" transform="translate(596,632)"/>
<path d="M0,0 L40,0 L40,2 L46,2 L46,4 L50,4 L50,8 L54,8 L56,13 L58,15 L64,16 L64,18 L72,18 L72,20 L77,21 L86,31 L90,32 L90,40 L92,40 L92,46 L91,46 L91,41 L89,41 L89,47 L87,46 L86,36 L84,36 L84,34 L79,36 L72,31 L72,28 L66,28 L66,26 L60,26 L56,22 L46,20 L43,18 L48,17 L52,18 L52,16 L48,16 L47,14 L42,14 L42,12 L39,11 L40,5 L45,5 L45,3 L34,4 L34,3 L39,3 L39,1 L1,1 L1,3 L-34,3 L-34,2 L0,2 Z " fill="#CE8D68" transform="translate(596,366)"/>
<path d="M0,0 L1,4 L3,4 L3,42 L5,42 L5,70 L3,70 L3,92 L1,92 L1,106 L-1,106 L-1,110 L-3,110 L-3,116 L-5,116 L-5,122 L-8,124 L-9,128 L-12,130 L-13,134 L-18,136 L-19,138 L-24,139 L-25,136 L-20,137 L-19,132 L-14,133 L-14,131 L-17,131 L-14,121 L-11,114 L-9,114 L-9,108 L-6,107 L-5,92 L-4,90 L-4,74 L-3,65 L0,65 L2,5 L-1,5 Z " fill="#CF9670" transform="translate(713,444)"/>
<path d="M0,0 L2,1 L0,2 Z M-2,2 L0,2 L1,6 L0,12 L0,22 L-3,24 L-6,29 L-12,29 L-14,29 L-17,32 L-28,32 L-28,30 L-31,31 L-32,33 L-32,39 L-28,43 L-28,45 L-22,46 L-17,48 L-16,52 L-21,51 L-22,49 L-30,48 L-31,43 L-33,43 L-33,40 L-35,40 L-35,31 L-28,27 L-22,24 L-17,24 L-17,21 L-15,21 L-17,5 L-15,3 L-10,4 Z " fill="#E7CF82" transform="translate(356,545)"/>
<path d="M0,0 L7,0 L10,4 L16,5 L16,7 L22,7 L24,11 L29,14 L34,13 L34,15 L36,15 L38,25 L39,20 L41,20 L41,25 L50,25 L50,27 L55,28 L56,33 L58,33 L60,38 L62,39 L62,43 L64,43 L64,47 L66,47 L66,57 L65,57 L65,48 L63,48 L63,53 L62,50 L56,49 L56,45 L52,43 L49,36 L48,33 L43,32 L38,28 L32,25 L30,25 L28,27 L27,24 L25,24 L25,20 L21,18 L22,11 L20,11 L20,9 L15,10 L7,8 L7,6 L5,6 L5,4 L3,4 Z " fill="#D39169" transform="translate(646,387)"/>
<path d="M0,0 L5,0 L3,1 L1,5 L-1,7 L6,8 L6,10 L-5,10 L-6,14 L-14,14 L-14,16 L-17,16 L-19,23 L-24,27 L-25,29 L-32,31 L-33,33 L-37,33 L-37,35 L-41,35 L-41,37 L-48,39 L-50,40 L-51,33 L-47,30 L-43,30 L-43,28 L-39,25 L-34,24 L-33,16 L-29,14 L-21,12 L-17,10 L-17,8 L-15,8 L-15,6 L-11,3 L-9,3 L-9,6 L-2,3 Z " fill="#D2A373" transform="translate(661,597)"/>
<path d="M0,0 L3,0 L4,3 L-14,3 L-16,7 L-13,8 L-13,13 L-16,14 L-19,20 L-21,21 L-29,20 L-35,21 L-38,19 L-39,23 L-41,23 L-41,21 L-43,21 L-43,23 L-45,23 L-45,19 L-43,19 L-43,17 L-41,17 L-41,7 L-33,7 L-33,4 L-35,4 L-34,1 L-15,1 Z " fill="#E4A173" transform="translate(549,395)"/>
<path d="M0,0 L4,0 L3,8 L4,13 L6,17 L6,20 L13,21 L16,23 L16,29 L15,32 L24,37 L27,38 L27,40 L29,40 L29,44 L31,44 L33,48 L40,51 L42,54 L44,59 L43,64 L41,62 L41,59 L35,58 L34,55 L27,52 L27,50 L19,48 L18,43 L14,43 L13,45 L12,33 L10,33 L8,26 L3,24 L3,20 L0,19 L-1,13 L-1,1 Z " fill="#D5C77D" transform="translate(313,573)"/>
<path d="M0,0 L3,1 L1,7 L0,14 L-2,14 L-3,18 L-4,35 L-6,35 L-6,43 L-9,45 L-5,47 L-6,54 L-2,53 L-2,56 L-8,58 L-8,56 L-10,56 L-9,52 L-13,51 L-13,48 L-18,48 L-16,42 L-15,29 L-12,22 L-8,6 L-6,4 L-1,2 Z " fill="#E5BE7C" transform="translate(354,460)"/>
<path d="M0,0 L2,1 L2,8 L4,10 L4,18 L2,22 L6,20 L15,20 L15,44 L8,45 L4,43 L2,37 L1,42 L-1,44 L-6,45 L-6,42 L-4,42 L-4,36 L1,36 L2,31 L3,28 L-1,29 L-3,28 L-3,22 L-1,22 L-2,9 L-1,1 Z M1,23 Z M0,24 Z " fill="#E7A876" transform="translate(684,492)"/>
<path d="M0,0 L2,0 L3,4 L3,14 L1,14 L1,17 L-5,19 L-14,23 L-17,24 L-17,33 L-15,33 L-15,36 L-13,36 L-12,41 L-3,41 L-3,44 L2,45 L2,50 L3,52 L-1,52 L-1,54 L2,54 L3,59 L5,59 L7,61 L7,68 L6,65 L4,65 L4,61 L2,61 L1,59 L-4,58 L-11,53 L-10,44 L-19,41 L-21,35 L-22,35 L-23,26 L-21,21 L-14,16 L-10,16 L-9,14 L-4,13 L0,11 Z " fill="#E0CA7F" transform="translate(338,552)"/>
<path d="M0,0 L2,2 L-1,4 L-6,13 L-11,15 L-14,16 L-14,20 L-17,21 L-19,24 L-20,31 L-26,34 L-35,36 L-44,36 L-46,31 L-41,28 L-39,28 L-38,23 L-35,27 L-33,25 L-32,21 L-23,18 L-23,15 L-20,15 L-20,13 L-16,13 L-16,11 L-11,11 L-8,2 L-7,1 Z " fill="#E2AD7C" transform="translate(689,559)"/>
<path d="M0,0 L5,1 L4,3 L-2,5 L-6,5 L-6,11 L-10,13 L-12,15 L-23,16 L-24,17 L-40,17 L-46,19 L-50,18 L-50,16 L-63,15 L-67,13 L-64,10 L-64,12 L-58,10 L-57,12 L-32,13 L-31,9 L-28,6 L-24,8 L-23,3 L-11,4 L-2,2 Z " fill="#D5C088" transform="translate(554,684)"/>
<path d="M0,0 L1,0 L1,5 L-1,8 L1,8 L0,12 L-2,12 L-4,24 L-6,24 L-5,30 L-7,31 L-7,35 L-10,34 L-10,32 L-12,32 L-12,44 L-13,56 L-11,56 L-11,44 L-10,44 L-9,52 L-8,52 L-8,57 L-11,58 L-12,65 L-13,65 L-13,57 L-15,57 L-14,88 L-16,88 L-16,56 L-14,56 L-14,44 L-16,44 L-16,20 L-14,18 L-11,18 L-11,13 L-9,13 L-8,6 L-6,4 L-1,4 Z " fill="#CDAC6C" transform="translate(322,508)"/>
<path d="M0,0 L7,1 L7,7 L5,9 L1,11 L0,18 L0,32 L-5,31 L-5,29 L-10,31 L-15,32 L-17,40 L-14,40 L-14,42 L-25,41 L-26,36 L-33,38 L-33,34 L-23,31 L-15,28 L-12,24 L-12,19 L-10,17 L-6,16 L-4,10 L-3,10 L-2,1 Z " fill="#D4B981" transform="translate(581,655)"/>
<path d="M0,0 L4,1 L4,4 L12,4 L12,1 L14,1 L14,3 L22,4 L22,6 L26,6 L27,4 L41,4 L56,2 L57,0 L74,0 L74,4 L84,6 L84,7 L77,8 L74,7 L70,11 L68,11 L68,9 L70,9 L70,7 L60,8 L50,7 L50,5 L37,8 L34,11 L32,8 L27,9 L26,12 L20,12 L18,8 L8,8 L-7,5 L-5,4 L-4,2 L-1,3 Z " fill="#EFD994" transform="translate(454,664)"/>
<path d="M0,0 L1,3 L3,3 L3,1 L5,1 L5,4 L3,4 L3,6 L1,6 L2,9 L-5,12 L-14,14 L-15,22 L-22,25 L-25,26 L-25,28 L-31,30 L-32,31 L-32,38 L-35,37 L-35,26 L-41,29 L-47,29 L-47,27 L-39,27 L-38,22 L-40,21 L-35,21 L-35,23 L-24,23 L-23,10 L-19,7 L-13,4 L-10,4 L-7,4 L-7,6 L-3,5 L-1,1 Z M-19,6 Z " fill="#D4A973" transform="translate(643,599)"/>
<path d="M0,0 L2,2 L2,11 L5,10 L5,26 L6,30 L7,40 L6,44 L8,44 L9,46 L10,60 L9,61 L8,78 L8,86 L7,88 L6,100 L5,103 L2,104 L2,97 L1,96 L1,90 L3,90 L3,84 L4,82 L4,64 L6,48 L2,49 L3,44 L2,34 L3,30 L0,30 L-1,20 Z " fill="#D6996F" transform="translate(702,448)"/>
<path d="M0,0 L2,2 L1,7 L-8,9 L-20,8 L-21,12 L-26,11 L-29,17 L-54,17 L-56,13 L-54,10 L-53,12 L-51,12 L-50,10 L-41,9 L-38,6 L-27,5 L-17,5 L-8,4 Z M-19,4 Z " fill="#DBC587" transform="translate(551,680)"/>
<path d="M0,0 L9,0 L10,4 L13,3 L13,5 L15,5 L15,8 L17,9 L15,19 L19,20 L19,21 L11,21 L10,24 L10,21 L7,22 L2,19 L0,19 L-1,17 L-4,16 L-4,11 L-6,10 L-5,6 L-1,6 L-1,1 Z " fill="#E9D88A" transform="translate(361,604)"/>
<path d="M0,0 L2,3 L4,0 L4,7 L2,7 L2,18 L0,18 L-2,23 L-7,25 L-7,30 L-11,35 L-16,37 L-17,34 L-17,29 L-15,29 L-14,11 L-13,8 L-15,8 L-15,6 L-13,6 L-12,4 L-10,6 L-9,10 L-3,9 L-2,10 Z " fill="#DBBC84" transform="translate(577,649)"/>
<path d="M0,0 L1,0 L1,16 L0,18 L-6,18 L-6,16 L-12,19 L-12,17 L-21,19 L-26,19 L-26,17 L-34,19 L-35,11 L-31,11 L-24,11 L-24,9 L-22,9 L-21,4 L-18,4 L-18,9 L-12,8 L-4,8 L0,7 Z " fill="#E4CC8E" transform="translate(562,660)"/>
<path d="M0,0 L8,0 L11,2 L3,2 L3,4 L-1,4 L-1,6 L-8,8 L-9,10 L-23,10 L-23,12 L-27,12 L-27,14 L-41,14 L-43,10 L-51,10 L-51,6 L-55,6 L-55,4 L-71,4 L-71,3 L-51,2 L-54,3 L-54,5 L-50,5 L-49,3 L-44,4 L-44,6 L-35,7 L-32,5 L-10,5 L-7,4 L-2,5 L-3,2 L2,3 L2,1 Z " fill="#BFAD79" transform="translate(545,700)"/>
<path d="M0,0 L40,0 L40,2 L46,2 L46,4 L50,4 L50,8 L54,8 L56,13 L58,15 L64,16 L64,18 L72,18 L72,20 L77,21 L80,25 L76,23 L73,22 L60,22 L60,20 L58,19 L63,19 L63,17 L55,18 L48,16 L47,14 L42,14 L42,12 L39,11 L40,5 L45,5 L45,3 L34,4 L34,3 L39,3 L39,1 L1,1 L1,3 L-34,3 L-34,2 L0,2 Z " fill="#B07653" transform="translate(596,366)"/>
<path d="M0,0 L2,3 L5,10 L5,18 L3,18 L4,26 L0,34 L-2,34 L-4,41 L-7,49 L-9,49 L-9,54 L-10,54 L-10,32 L-6,32 L-6,20 L-4,20 L-4,16 L0,16 L0,10 L-2,10 L-2,4 L0,4 Z " fill="#C19E67" transform="translate(320,472)"/>
<path d="M0,0 L20,0 L21,1 L29,2 L28,7 L30,8 L30,10 L36,9 L36,12 L40,12 L40,14 L32,14 L31,15 L26,15 L26,11 L16,8 L16,6 L8,6 L8,10 L6,11 L0,11 L-1,4 Z " fill="#D08D63" transform="translate(608,370)"/>
<path d="M0,0 L2,0 L2,9 L4,9 L3,14 L6,14 L6,51 L5,78 L3,77 L2,30 L0,26 L0,13 L-3,13 L-4,5 L-6,5 L-7,1 L-1,2 Z " fill="#CD926F" transform="translate(709,435)"/>
<path d="M0,0 L3,1 L2,6 L5,6 L5,2 L7,3 L6,12 L3,14 L-1,30 L-4,37 L-5,50 L-8,60 L-9,57 L-12,57 L-13,54 L-12,52 L-9,52 L-7,28 L-7,22 L-4,14 L-1,1 Z " fill="#DAB174" transform="translate(344,452)"/>
<path d="M0,0 L1,0 L3,8 L2,22 L3,41 L3,63 L4,64 L4,74 L0,88 L-1,89 L-7,89 L-7,84 L-2,84 L-3,81 L-5,79 L-3,79 L-3,73 L0,72 L0,65 L-3,64 L-1,64 L-1,23 L-3,23 L-2,17 L0,17 L-1,3 Z " fill="#E1A271" transform="translate(699,476)"/>
<path d="M0,0 L2,4 L1,19 L-3,21 L-4,23 L-7,22 L-10,31 L-9,36 L-10,41 L-10,48 L-12,49 L-15,55 L-18,56 L-18,48 L-16,44 L-14,44 L-13,40 L-15,40 L-14,32 L-11,22 L-7,10 L-5,10 L-4,8 L-2,5 L-4,4 L-1,4 Z M-12,38 Z " fill="#D2AF6A" transform="translate(336,476)"/>
<path d="M0,0 L53,0 L53,1 L24,2 L21,5 L13,6 L4,6 L1,7 L1,9 L-1,9 L-1,12 L-7,15 L-9,17 L-12,17 L-13,18 L-16,18 L-15,20 L-15,28 L-16,28 L-16,22 L-18,22 L-18,29 L-19,29 L-19,21 L-17,21 L-17,17 L-15,17 L-14,12 L-9,11 L-7,7 L-4,7 L-4,4 L0,3 Z " fill="#CB9E6E" transform="translate(353,415)"/>
<path d="M0,0 L10,1 L22,3 L22,8 L24,8 L24,10 L27,10 L27,12 L32,11 L33,14 L23,13 L18,12 L14,8 L12,7 L-12,8 L-16,10 L-22,11 L-22,5 L-20,4 L-15,6 L-14,4 L-5,2 Z " fill="#DD996C" transform="translate(620,385)"/>
<path d="M0,0 L2,1 L0,2 Z M-2,2 L0,2 L1,6 L0,12 L0,22 L-3,24 L-6,29 L-12,29 L-14,29 L-17,32 L-28,32 L-28,30 L-24,30 L-24,27 L-14,25 L-14,23 L-11,22 L-10,15 L-8,15 L-7,10 L-4,5 L-6,4 Z " fill="#EAD387" transform="translate(356,545)"/>
<path d="M0,0 L4,1 L0,5 L-2,9 L-4,9 L-4,14 L-10,16 L-11,23 L-13,23 L-14,27 L-17,28 L-17,30 L-19,30 L-19,32 L-26,33 L-29,37 L-35,38 L-35,35 L-39,37 L-39,35 L-41,35 L-41,37 L-43,37 L-43,33 L-34,32 L-23,29 L-19,28 L-18,18 L-15,14 L-12,14 L-12,10 L-8,7 L-4,7 L-2,2 Z " fill="#D8A475" transform="translate(687,565)"/>
<path d="M0,0 L7,0 L7,3 L11,3 L11,8 L13,8 L15,15 L21,16 L21,19 L26,19 L28,20 L28,22 L31,22 L32,28 L27,28 L26,24 L23,24 L24,20 L20,22 L16,22 L16,25 L14,25 L13,22 L10,21 L10,19 L12,18 L7,16 L6,9 L3,8 L3,5 L-1,5 Z " fill="#D1C47B" transform="translate(357,636)"/>
<path d="M0,0 L1,4 L3,4 L3,42 L5,42 L5,70 L3,70 L3,92 L1,92 L1,106 L-1,106 L-1,110 L-3,110 L-3,116 L-4,116 L-5,107 L-4,109 L-2,109 L-3,107 L-3,93 L-2,93 L-2,105 L0,105 L-1,92 L-1,78 L0,78 L0,91 L2,91 L1,70 L1,42 L2,5 L-1,5 Z " fill="#AE7C5E" transform="translate(713,444)"/>
<path d="M0,0 L8,0 L8,2 L13,3 L14,8 L16,8 L18,13 L20,14 L20,18 L22,18 L22,22 L24,22 L24,32 L23,32 L23,23 L21,23 L21,28 L20,25 L14,24 L14,20 L10,18 L7,11 L6,8 L2,8 L2,4 L0,3 L7,3 L7,1 L0,1 Z " fill="#C58765" transform="translate(688,412)"/>
<path d="M0,0 L22,0 L32,2 L32,5 L34,7 L29,7 L29,9 L34,8 L42,8 L42,9 L35,9 L35,11 L42,10 L50,10 L50,11 L43,11 L43,13 L50,12 L58,12 L58,13 L51,13 L51,15 L58,15 L58,16 L50,16 L50,14 L42,14 L42,12 L34,12 L34,10 L28,10 L28,8 L18,8 L18,6 L14,6 L14,4 L0,4 L0,2 L-6,2 L-6,1 Z " fill="#B9AB6B" transform="translate(416,686)"/>
<path d="M0,0 L5,0 L6,3 L9,4 L8,8 L10,8 L9,12 L6,13 L6,19 L1,24 L0,28 L-3,29 L-5,44 L-11,45 L-11,37 L-9,35 L-8,28 L-6,28 L-6,26 L-4,26 L-4,24 L0,22 L1,18 L-4,18 L-4,15 L2,14 L3,12 L0,11 L2,8 L0,8 Z M-12,40 Z " fill="#DEC076" transform="translate(336,508)"/>
<path d="M0,0 L1,2 L5,1 L10,0 L10,2 L20,2 L20,3 L7,3 L4,4 L4,8 L-18,9 L-19,8 L-41,9 L-44,10 L-47,7 L-47,5 L-31,5 L-31,3 L-18,4 L-18,6 L-13,3 L-3,3 Z " fill="#CF936D" transform="translate(522,380)"/>
<path d="M0,0 L7,0 L7,2 L9,2 L9,4 L11,4 L11,7 L16,8 L16,10 L18,10 L18,13 L23,14 L22,19 L10,19 L9,12 L8,5 L6,5 L6,9 L4,10 L1,18 L-2,14 L-2,5 Z " fill="#E39E79" transform="translate(676,429)"/>
<path d="M0,0 L17,1 L37,7 L49,7 L50,10 L49,12 L51,13 L24,14 L23,12 L18,12 L18,10 L21,9 L19,7 L19,5 L16,3 L2,2 Z " fill="#D3C27C" transform="translate(427,683)"/>
<path d="M0,0 L11,1 L19,2 L18,4 L21,5 L25,4 L28,5 L29,3 L32,3 L32,5 L49,5 L51,4 L60,4 L67,5 L66,7 L55,7 L49,9 L47,10 L30,9 L28,8 L19,7 L-1,6 L-2,2 Z " fill="#E1CD86" transform="translate(463,679)"/>
<path d="M0,0 L8,0 L10,7 L18,7 L18,9 L25,9 L26,14 L46,14 L55,15 L55,16 L35,16 L23,15 L20,14 L5,13 L3,7 L4,1 L2,1 L1,4 Z " fill="#DDCB7F" transform="translate(436,671)"/>
<path d="M0,0 L8,2 L4,4 L3,5 L2,15 L0,15 L0,19 L-4,19 L-4,21 L-8,21 L-8,25 L-14,25 L-14,29 L-18,29 L-18,31 L-26,31 L-26,30 L-19,30 L-19,28 L-26,28 L-26,27 L-17,27 L-15,28 L-15,26 L-18,26 L-16,18 L-11,16 L-6,14 L-4,11 L-5,16 L-1,18 L-2,15 L-2,4 Z " fill="#B79D6B" transform="translate(582,669)"/>
<path d="M0,0 L4,0 L4,2 L8,3 L6,7 L5,11 L1,12 L0,18 L-3,28 L-7,38 L-12,38 L-11,34 L-10,32 L-8,32 L-6,27 L-5,22 L-5,16 L-3,16 L-4,9 L-3,3 Z " fill="#CFA86A" transform="translate(328,474)"/>
<path d="M0,0 L8,0 L7,2 L1,1 L1,3 L-27,3 L-27,5 L-37,5 L-37,7 L-35,8 L-43,7 L-43,9 L-38,9 L-42,12 L-45,13 L-46,16 L-42,17 L-47,20 L-50,20 L-50,18 L-63,17 L-63,19 L-79,19 L-79,21 L-77,22 L-84,24 L-82,20 L-80,18 L-64,18 L-64,16 L-56,16 L-56,14 L-50,14 L-50,12 L-48,12 L-48,8 L-44,8 L-44,6 L-38,6 L-38,4 L-28,4 L-28,2 L0,2 Z " fill="#AD7857" transform="translate(554,366)"/>
<path d="M0,0 L3,1 L2,5 L-2,8 L-3,16 L-6,16 L-7,20 L-10,26 L-11,36 L-13,36 L-13,48 L-18,48 L-16,42 L-15,29 L-12,22 L-8,6 L-6,4 L-1,2 Z M-13,32 Z " fill="#E1B779" transform="translate(354,460)"/>
<path d="M0,0 L17,0 L25,2 L38,4 L38,5 L30,5 L29,9 L25,9 L24,7 L8,7 L8,5 L1,5 L0,3 L-7,3 L-7,1 Z " fill="#CDBE81" transform="translate(466,696)"/>
<path d="M0,0 L2,0 L3,5 L6,5 L8,10 L12,11 L13,12 L13,18 L15,18 L16,24 L15,27 L13,27 L13,24 L6,22 L4,17 L-2,12 L-1,8 Z " fill="#CFBD78" transform="translate(310,588)"/>
<path d="M0,0 L3,0 L2,4 L5,4 L7,8 L7,11 L10,10 L10,12 L15,13 L11,15 L11,17 L13,16 L19,16 L20,18 L20,23 L23,26 L32,26 L32,27 L27,27 L27,29 L32,29 L32,30 L26,30 L26,28 L21,27 L18,24 L18,20 L14,20 L14,18 L10,18 L10,16 L5,15 L0,9 L-4,8 L-4,6 L-8,6 L-7,2 L-7,5 L-5,5 L-5,2 Z " fill="#C4B671" transform="translate(378,656)"/>
<path d="M0,0 L7,0 L10,2 L4,4 L3,8 L0,8 L1,11 L-54,10 L-54,12 L-52,13 L-56,16 L-56,14 L-58,14 L-59,17 L-58,12 L-55,9 L-33,9 L-33,7 L0,7 Z " fill="#CF9E6E" transform="translate(407,405)"/>
<path d="M0,0 L1,4 L-4,8 L-5,10 L-12,12 L-13,14 L-17,14 L-17,16 L-21,16 L-21,18 L-28,20 L-30,21 L-31,14 L-27,11 L-23,11 L-23,9 L-19,6 L-14,6 L-13,8 L-6,9 L-6,7 L-9,6 L-6,3 L0,3 Z " fill="#CEA46E" transform="translate(641,616)"/>
<path d="M0,0 L2,1 L2,26 L1,38 L3,38 L3,26 L4,26 L5,34 L6,34 L6,39 L3,40 L2,47 L1,47 L1,39 L-1,39 L0,70 L-2,70 L-2,38 L0,38 L0,26 L-2,26 L-2,2 Z " fill="#B59C69" transform="translate(308,526)"/>
<path d="M0,0 L12,1 L14,5 L9,6 L9,13 L5,17 L3,12 L2,16 L-4,18 L-5,8 L-2,8 L-2,6 L0,6 Z M7,10 Z " fill="#EAB482" transform="translate(648,571)"/>
<path d="M0,0 L4,0 L8,1 L12,4 L9,8 L6,9 L6,21 L7,29 L5,28 L5,23 L3,23 L3,32 L0,30 Z " fill="#CDB97C" transform="translate(307,565)"/>
<path d="M0,0 L2,0 L2,2 L6,2 L7,4 L12,3 L13,6 L8,8 L8,21 L4,25 L2,21 L1,24 L-1,24 L-1,12 Z " fill="#D0B774" transform="translate(310,540)"/>
<path d="M0,0 L1,3 L3,3 L4,0 L5,4 L9,4 L10,9 L16,10 L15,13 L17,13 L18,19 L17,21 L19,21 L20,18 L27,21 L27,25 L23,25 L23,27 L28,26 L26,29 L22,28 L22,26 L18,26 L18,22 L16,22 L16,18 L14,18 L12,15 L8,14 L6,11 L2,10 L2,4 L0,4 Z " fill="#CCBE74" transform="translate(322,612)"/>
<path d="M0,0 L7,1 L7,7 L5,9 L1,11 L0,18 L0,32 L-5,31 L-5,29 L-10,31 L-15,32 L-13,31 L-13,29 L-7,26 L-4,16 L-3,15 L-2,1 Z " fill="#D2B47A" transform="translate(581,655)"/>
<path d="M0,0 L11,5 L16,11 L16,14 L19,14 L19,16 L23,15 L25,16 L25,18 L29,17 L32,23 L31,28 L29,26 L29,23 L23,22 L22,19 L15,16 L15,14 L7,12 L6,7 L2,7 L1,9 Z " fill="#D4C57A" transform="translate(325,609)"/>
<path d="M0,0 L2,1 L2,9 L4,9 L4,19 L2,22 L-2,21 L-5,24 L-7,28 L-7,23 L-9,23 L-9,28 L-10,28 L-10,22 L-8,22 L-7,17 L-4,14 L-2,14 L-2,2 Z " fill="#C29963" transform="translate(332,444)"/>
<path d="M0,0 L4,2 L3,6 L0,8 L-1,12 L-3,12 L-3,16 L-5,16 L-5,20 L-7,20 L-7,22 L-11,22 L-11,30 L-13,30 L-13,34 L-17,33 L-14,33 L-15,31 L-15,22 L-14,22 L-14,29 L-12,29 L-14,21 L-12,9 L-10,8 L-9,13 L-6,13 L-6,15 L-4,15 L-5,9 L-4,11 L-2,11 L-3,3 L-1,3 Z " fill="#B79761" transform="translate(607,636)"/>
<path d="M0,0 L2,0 L2,2 L4,3 L3,9 L1,9 L1,15 L-1,15 L-1,17 L-6,19 L-7,21 L-12,23 L-13,25 L-17,25 L-17,27 L-27,28 L-29,31 L-37,31 L-37,33 L-41,32 L-38,32 L-38,30 L-40,29 L-30,30 L-29,25 L-18,26 L-18,24 L-27,24 L-27,23 L-20,21 L-16,21 L-15,18 L-8,20 L-8,18 L-10,17 L-5,15 L-2,16 L-2,13 L0,13 L-1,9 L-1,2 Z " fill="#C99A6F" transform="translate(685,581)"/>
<path d="M0,0 L2,2 L-1,4 L-6,13 L-11,15 L-14,16 L-14,20 L-17,21 L-21,28 L-22,26 L-21,20 L-19,20 L-18,16 L-16,11 L-11,11 L-8,2 L-7,1 Z " fill="#DFA97A" transform="translate(689,559)"/>
<path d="M0,0 L4,1 L4,4 L12,4 L12,1 L14,1 L14,3 L22,4 L22,6 L28,7 L26,12 L20,12 L18,8 L8,8 L-7,5 L-5,4 L-4,2 L-1,3 Z " fill="#ECD98E" transform="translate(454,664)"/>
<path d="M0,0 L8,1 L8,4 L12,4 L12,6 L15,7 L12,10 L9,13 L5,12 L3,10 L1,10 L-1,6 L-5,4 L-5,1 Z " fill="#E5D488" transform="translate(388,635)"/>
<path d="M0,0 L2,2 L5,2 L5,12 L1,26 L0,27 L-6,27 L-6,22 L-1,22 L-2,19 L-4,17 L-2,17 L-2,11 L1,10 L1,3 L-2,2 L0,2 Z " fill="#D8A275" transform="translate(698,538)"/>
<path d="M0,0 L2,1 L2,7 L5,8 L2,15 L2,19 L4,19 L4,25 L5,28 L3,29 L3,33 L-1,36 L-2,31 L-2,24 L-3,22 L-1,22 L-2,11 L0,9 L0,6 L-2,6 L-2,3 L0,3 Z M2,25 Z " fill="#EBA97D" transform="translate(684,453)"/>
<path d="M0,0 L6,3 L8,3 L11,14 L13,16 L20,15 L20,17 L11,18 L6,16 L5,11 L1,10 L0,4 L-7,3 L-7,1 Z " fill="#E0D084" transform="translate(363,622)"/>
<path d="M0,0 L12,0 L12,6 L8,6 L8,8 L4,8 L4,14 L-2,14 L-2,8 L0,8 Z " fill="#40270A" transform="translate(702,690)"/>
<path d="M0,0 L2,1 L-2,5 L-1,11 L-6,12 L-7,14 L-13,13 L-13,11 L-19,15 L-24,13 L-23,11 L-18,11 L-18,9 L-12,9 L-8,6 L-10,5 L-10,3 Z " fill="#CD9567" transform="translate(475,388)"/>
<path d="M0,0 L2,1 L0,2 Z M-2,2 L0,2 L1,6 L-1,13 L-2,15 L-4,15 L-4,21 L-8,21 L-8,25 L-11,25 L-10,15 L-8,15 L-7,10 L-4,5 L-6,4 Z " fill="#EFD483" transform="translate(356,545)"/>
<path d="M0,0 L4,1 L4,3 L1,3 L0,6 L-2,6 L-2,9 L-10,10 L-10,12 L-8,13 L-8,15 L-16,15 L-15,7 L-7,4 L-4,1 Z " fill="#CDA26C" transform="translate(643,610)"/>
<path d="M0,0 L5,0 L5,2 L19,2 L17,5 L15,5 L15,7 L9,9 L8,10 L8,17 L5,16 L5,5 L-1,8 L-7,8 L-7,6 L1,6 L2,1 Z " fill="#D3AA6C" transform="translate(603,620)"/>
<path d="M0,0 L5,3 L9,7 L13,8 L13,16 L15,16 L15,22 L14,22 L14,17 L12,17 L12,23 L10,22 L9,12 L7,12 L7,10 L4,10 L4,8 L1,8 L0,3 L-2,3 L-2,1 Z " fill="#CB8C68" transform="translate(673,390)"/>
<path d="M0,0 L3,0 L4,3 L-14,3 L-17,7 L-20,6 L-20,3 L-27,6 L-29,8 L-33,8 L-33,4 L-35,4 L-34,1 L-15,1 Z " fill="#DF9C6D" transform="translate(549,395)"/>
<path d="M0,0 L4,1 L4,3 L2,3 L2,5 L5,4 L5,9 L8,11 L8,9 L6,9 L7,5 L9,1 L10,4 L12,5 L13,12 L18,13 L20,15 L16,15 L16,17 L19,18 L15,18 L15,16 L11,16 L9,13 L4,11 L3,6 L-1,4 L-2,1 Z " fill="#C9BC73" transform="translate(351,640)"/>
<path d="M0,0 L2,1 L3,4 L6,3 L6,5 L8,5 L8,8 L10,9 L8,19 L12,20 L12,21 L6,21 L3,19 L3,9 L0,8 Z " fill="#EFDC8E" transform="translate(368,604)"/>
<path d="M0,0 Z M-1,1 L0,3 L-1,9 L-1,15 L-5,16 L-5,13 L-11,12 L-13,8 L-18,7 L-18,5 L-8,4 L-8,8 L-5,7 L-4,3 Z " fill="#ECD78A" transform="translate(349,580)"/>
<path d="M0,0 L2,1 L2,8 L4,10 L4,18 L2,23 L2,28 L-1,29 L-3,28 L-3,22 L-1,22 L-2,9 L-1,1 Z M0,24 Z " fill="#EEAE7D" transform="translate(684,492)"/>
<path d="M0,0 L2,3 L5,10 L4,16 L2,16 L1,21 L-3,26 L-3,21 L-5,21 L-5,32 L-6,32 L-6,20 L-4,20 L-4,16 L0,16 L0,10 L-2,10 L-2,4 L0,4 Z " fill="#B9965F" transform="translate(320,472)"/>
<path d="M0,0 L1,2 L1,13 L-1,13 L-1,16 L-6,16 L-7,20 L-14,19 L-15,21 L-17,21 L-16,17 L-12,14 L-8,14 L-6,10 L-3,6 L-1,1 Z " fill="#CC986F" transform="translate(684,581)"/>
<path d="M0,0 L4,0 L4,4 L9,5 L9,7 L19,7 L21,8 L21,10 L24,10 L25,16 L20,16 L19,12 L16,12 L17,8 L13,10 L9,10 L9,13 L7,13 L6,10 L3,9 L3,7 L5,6 L0,4 Z " fill="#CEC076" transform="translate(364,648)"/>
<path d="M0,0 L3,2 L4,6 L7,7 L6,15 L3,16 L0,24 L-1,27 L-4,27 L-4,25 L-2,25 L-1,7 L0,4 L-2,4 L-2,2 L0,2 Z " fill="#E0C186" transform="translate(564,653)"/>
<path d="M0,0 L2,1 L3,9 L1,9 L1,13 L-2,13 L-2,15 L-8,14 L-10,13 L-11,9 L-5,6 L-4,1 Z M-11,13 Z " fill="#CEAD75" transform="translate(592,656)"/>
<path d="M0,0 L7,0 L7,2 L9,2 L8,6 L6,5 L6,9 L4,10 L1,18 L-2,14 L-2,5 Z " fill="#E8A277" transform="translate(676,429)"/>
<path d="M0,0 L1,0 L1,24 L3,24 L3,36 L1,36 L1,68 L0,68 L-1,24 Z " fill="#231E14" transform="translate(305,528)"/>
<path d="M0,0 L1,4 L1,9 L-1,11 L-1,22 L-4,35 L-6,38 L-8,38 L-6,23 L-5,22 L-4,9 Z " fill="#D2A772" transform="translate(343,438)"/>
<path d="M0,0 L1,3 L11,2 L11,4 L24,4 L27,5 L27,3 L25,2 L42,3 L42,4 L28,4 L28,6 L24,6 L24,8 L10,8 L8,4 L0,4 Z " fill="#AE9D6D" transform="translate(494,706)"/>
<path d="M0,0 L7,0 L4,12 L-1,21 L-3,21 L-1,12 L-3,12 L-1,7 Z " fill="#EBCA8A" transform="translate(561,636)"/>
<path d="M0,0 L3,1 L0,8 L3,8 L3,10 L-2,10 L-3,14 L-7,14 L-7,16 L-9,16 L-9,14 L-11,14 L-9,10 L-6,5 L-3,1 Z " fill="#CD9970" transform="translate(696,567)"/>
<path d="M0,0 L5,2 L8,4 L8,12 L3,10 L3,8 L-6,7 L-6,1 L0,2 Z " fill="#E3D182" transform="translate(408,652)"/>
<path d="M0,0 L2,4 L1,19 L-3,21 L-4,23 L-6,23 L-5,11 L-2,5 L-4,4 L-1,4 Z " fill="#D5AE6E" transform="translate(336,476)"/>
<path d="M0,0 L6,1 L6,3 L17,4 L16,8 L3,9 L2,7 L-3,7 L-3,5 L0,4 L-2,2 Z " fill="#CEBF7A" transform="translate(448,688)"/>
<path d="M0,0 L2,0 L3,2 L5,1 L4,6 L2,13 L5,13 L6,17 L4,18 L4,22 L1,21 L1,19 L-1,19 L-2,6 Z " fill="#CCAD72" transform="translate(311,521)"/>
<path d="M0,0 L2,0 L2,3 L7,5 L10,6 L11,11 L13,11 L15,13 L15,20 L14,17 L12,17 L12,13 L10,13 L9,11 L4,10 L-3,5 L-1,1 Z " fill="#D8CA80" transform="translate(330,600)"/>
<path d="M0,0 L1,0 L1,6 L-2,8 L-3,12 L-6,14 L-7,18 L-12,20 L-13,22 L-18,23 L-19,20 L-14,21 L-13,16 L-8,17 L-8,15 L-11,15 L-9,8 L-6,7 L-6,5 L-3,4 L0,5 Z " fill="#CB956B" transform="translate(707,560)"/>
<path d="M0,0 L1,4 L-7,10 L-4,11 L-4,13 L-9,13 L-9,18 L-13,18 L-13,20 L-21,20 L-21,19 L-14,19 L-14,17 L-21,17 L-21,16 L-12,16 L-10,17 L-10,15 L-13,15 L-11,7 L-6,5 L-1,3 Z " fill="#C1A875" transform="translate(577,680)"/>
<path d="M0,0 L3,0 L4,4 L7,3 L9,4 L10,8 L8,12 L3,15 L0,14 L3,11 L1,11 L-3,10 L1,6 L-1,2 Z M9,3 Z " fill="#E2B578" transform="translate(609,596)"/>
<path d="M0,0 L2,0 L2,2 L4,2 L5,9 L4,20 L2,21 L1,24 L-1,24 L-1,12 Z " fill="#CDB578" transform="translate(310,540)"/>
<path d="M0,0 L2,0 L1,3 Z M-8,3 L0,3 L0,5 L-7,8 L-11,12 L-20,13 L-18,8 L-15,6 L-9,4 Z " fill="#E1AF76" transform="translate(640,590)"/>
<path d="M0,0 L2,1 L1,3 L5,4 L1,5 L-1,9 L-5,10 L-6,11 L-9,11 L-8,13 L-8,21 L-9,21 L-9,15 L-11,15 L-11,22 L-12,22 L-12,14 L-10,14 L-10,10 L-8,10 L-7,5 L-2,4 Z " fill="#B28D5F" transform="translate(346,422)"/>
<path d="M0,0 L4,1 L1,3 L0,6 L4,7 L4,9 L-4,9 L-9,8 L-9,6 L-14,7 L-17,10 L-19,9 L-18,5 L-12,4 L-5,3 Z M-12,3 Z " fill="#DA996C" transform="translate(508,393)"/>
<path d="M0,0 L16,0 L22,1 L20,5 L19,3 L12,3 L12,5 L-4,4 L-3,1 Z " fill="#E59F6D" transform="translate(612,396)"/>
<path d="M0,0 L7,0 L12,2 L12,4 L20,5 L23,8 L23,11 L21,11 L21,9 L15,8 L8,6 L2,3 L0,3 Z " fill="#D0C27C" transform="translate(385,664)"/>
<path d="M0,0 L2,1 L1,10 L-2,12 L-6,28 L-9,35 L-10,35 L-10,27 L-7,21 L-5,12 L-2,4 L0,4 Z " fill="#DDB276" transform="translate(349,454)"/>
<path d="M0,0 L4,0 L3,8 L4,13 L5,17 L4,20 L0,19 L-1,13 L-1,1 Z " fill="#D7C380" transform="translate(313,573)"/>
<path d="M0,0 L5,0 L7,6 L5,12 L4,16 L2,16 L2,18 L-4,18 L-4,15 L2,14 L3,12 L0,11 L2,8 L0,8 Z " fill="#DCBA73" transform="translate(336,508)"/>
<path d="M0,0 L11,5 L13,7 L13,13 L7,12 L6,7 L2,7 L1,9 Z " fill="#CEC178" transform="translate(325,609)"/>
<path d="M0,0 L3,2 L9,3 L9,5 L17,5 L17,7 L22,8 L25,12 L21,10 L18,9 L5,9 L5,7 L3,6 L8,6 L8,4 L0,5 Z " fill="#B57B5B" transform="translate(651,379)"/>
<path d="M0,0 L32,0 L32,1 L1,1 L1,3 L-21,3 L-21,5 L-19,6 L-23,9 L-23,7 L-25,7 L-26,10 L-25,5 L-22,2 L0,2 Z " fill="#937250" transform="translate(374,412)"/>
<path d="M0,0 L2,0 L2,2 L0,2 L1,10 L-1,11 L-1,14 L-3,14 L-3,12 L-7,13 L-7,4 L-2,1 Z " fill="#CCAA6E" transform="translate(604,637)"/>
<path d="M0,0 L2,0 L3,4 L6,3 L8,4 L9,2 L11,4 L13,3 L14,7 L10,9 L0,9 L-1,6 Z M14,4 Z " fill="#D1A069" transform="translate(390,420)"/>
<path d="M0,0 L5,1 L7,3 L4,7 L1,8 L1,20 L2,28 L0,27 L0,22 L-2,22 L-2,8 Z " fill="#D1BF7F" transform="translate(312,566)"/>
<path d="M0,0 L27,1 L27,2 L2,4 L1,5 L-8,5 L-10,4 L-10,2 L0,2 Z " fill="#CD8D64" transform="translate(527,369)"/>
<path d="M0,0 L1,0 L2,9 L-1,11 L-4,16 L-10,16 L-9,12 L-6,12 L-6,8 L-2,8 L-2,2 L0,2 Z " fill="#F2D887" transform="translate(354,558)"/>
<path d="M0,0 L3,1 L2,6 L3,10 L-1,14 L-3,22 L-5,22 L-6,25 L-7,22 L-4,14 L-1,1 Z " fill="#D7AB74" transform="translate(344,452)"/>
<path d="M0,0 L5,1 L5,4 L7,5 L7,8 L3,9 L1,6 L-3,5 L-4,7 L-4,5 L-8,4 L-6,1 Z " fill="#EEDA87" transform="translate(427,652)"/>
<path d="M0,0 L1,0 L2,8 L3,8 L3,13 L0,14 L-1,21 L-2,21 L-2,13 L-4,13 L-3,44 L-5,44 L-5,12 L0,12 Z " fill="#AD9A67" transform="translate(311,552)"/>
<path d="M0,0 L1,0 L1,9 L0,11 L3,11 L3,13 L0,13 L0,22 L-2,22 L-2,26 L-6,25 L-3,25 L-4,23 L-4,14 L-3,14 L-3,21 L-1,21 L-3,13 L-1,1 Z " fill="#BE9F6A" transform="translate(596,644)"/>
<path d="M0,0 L1,2 L8,3 L8,5 L-3,5 L-4,9 L-11,9 L-13,7 L-4,1 Z " fill="#CDA174" transform="translate(659,602)"/>
<path d="M0,0 L3,0 L3,4 L7,4 L7,9 L4,13 L0,12 L0,8 L-2,7 L1,6 Z " fill="#D3B570" transform="translate(316,532)"/>
<path d="M0,0 L7,0 L7,2 L11,2 L11,6 L15,6 L14,10 L14,7 L12,7 L12,10 L8,9 L6,7 L3,6 L3,4 L1,3 L6,3 L6,1 L-5,2 L-5,1 Z " fill="#BA7B55" transform="translate(635,368)"/>
<path d="M0,0 L4,1 L2,1 L2,3 L4,2 L10,2 L11,4 L11,9 L14,12 L23,12 L23,13 L18,13 L18,15 L23,15 L23,16 L17,16 L17,14 L12,13 L9,10 L9,6 L5,6 L5,4 L1,4 L1,2 L-3,1 Z " fill="#A99D62" transform="translate(387,670)"/>
<path d="M0,0 L2,0 L2,2 L4,3 L3,9 L1,9 L1,15 L-1,15 L-1,17 L-6,19 L-7,21 L-11,20 L-8,20 L-8,18 L-10,17 L-5,15 L-2,16 L-2,13 L0,13 L-1,9 L-1,2 Z " fill="#BD8C68" transform="translate(685,581)"/>
<path d="M0,0 L2,0 L2,3 L6,3 L6,5 L8,5 L8,16 L6,16 L4,9 L-1,7 Z " fill="#D6C278" transform="translate(317,590)"/>
<path d="M0,0 L1,3 L1,11 L-1,17 L-3,18 L-5,14 L-5,9 L-2,2 L0,2 Z " fill="#E5C77D" transform="translate(341,530)"/>
<path d="M0,0 L5,2 L5,6 L7,6 L8,8 L12,9 L12,14 L7,12 L7,10 L4,11 L2,10 Z " fill="#DB986D" transform="translate(666,405)"/>
<path d="M0,0 L6,0 L6,1 L1,1 L1,3 L6,3 L2,6 L-1,8 L-7,7 L-7,9 L-13,9 L-13,7 L-22,7 L-22,6 L-12,6 L-12,8 L-8,8 L-8,6 L-4,6 L-2,2 Z " fill="#A97B56" transform="translate(464,390)"/>
<path d="M0,0 L2,4 L5,6 L5,10 L7,10 L7,14 L9,14 L9,24 L8,24 L8,15 L6,15 L6,20 L5,17 L3,17 L3,9 L4,7 L2,7 L2,9 L0,9 L-1,3 Z " fill="#AE7757" transform="translate(703,420)"/>
<path d="M0,0 L1,4 L-4,8 L-5,10 L-12,12 L-13,14 L-17,13 L-14,13 L-14,11 L-17,10 L-16,7 L-6,9 L-6,7 L-9,6 L-6,3 L0,3 Z " fill="#C49A66" transform="translate(641,616)"/>
<path d="M0,0 L8,1 L8,4 L12,4 L12,6 L15,7 L12,10 L8,9 L6,6 L0,3 Z " fill="#E9D88C" transform="translate(388,635)"/>
<path d="M0,0 L2,3 L4,0 L4,7 L2,7 L2,18 L-3,15 Z " fill="#DABA7D" transform="translate(577,649)"/>
<path d="M0,0 L8,3 L8,7 L4,7 L4,9 L9,8 L7,11 L3,10 L3,8 L-1,8 Z " fill="#BDB170" transform="translate(341,630)"/>
<path d="M0,0 L5,2 L6,11 L9,10 L10,12 L2,12 L3,9 L1,9 L1,7 L-1,7 L-1,1 Z " fill="#E09C70" transform="translate(673,417)"/>
<path d="M0,0 L2,1 L2,3 L-4,5 L-5,7 L-9,6 L-9,4 L-15,6 L-15,1 L-1,1 Z " fill="#EFA875" transform="translate(607,411)"/>
<path d="M0,0 L45,0 L45,2 L40,3 L33,3 L32,2 L0,1 Z " fill="#CA885E" transform="translate(596,369)"/>
<path d="M0,0 L23,0 L22,2 L6,2 L0,4 L-4,3 L-4,1 Z " fill="#D0BD88" transform="translate(508,699)"/>
<path d="M0,0 L4,2 L2,10 L0,10 L-2,17 L-5,19 L-6,16 L-6,13 L-3,13 L-2,7 Z " fill="#DCBF88" transform="translate(566,667)"/>
<path d="M0,0 L1,3 L3,3 L3,0 L6,0 L5,5 L11,5 L10,11 L9,13 L12,14 L8,14 L6,9 L0,4 Z " fill="#B4A56D" transform="translate(308,596)"/>
<path d="M0,0 L4,1 L-5,5 L-8,8 L-15,9 L-14,4 L-3,1 Z " fill="#CEA46F" transform="translate(643,608)"/>
<path d="M0,0 L9,1 L14,3 L13,8 L9,7 L8,9 L6,9 L6,3 L-2,3 L-2,1 Z " fill="#CDC07B" transform="translate(391,670)"/>
<path d="M0,0 L4,1 L4,4 L15,5 L16,7 L0,7 L-1,3 Z " fill="#E3D288" transform="translate(428,664)"/>
<path d="M0,0 L3,4 L3,12 L0,20 L-4,17 L-2,17 L-2,11 L1,10 L1,3 L-2,2 L0,2 Z " fill="#DDA67A" transform="translate(698,538)"/>
<path d="M0,0 L2,1 L2,7 L5,8 L2,15 L2,19 L0,19 L-2,14 L-1,10 L0,6 L-2,6 L-2,3 L0,3 Z " fill="#EAA77A" transform="translate(684,453)"/>
<path d="M0,0 L14,0 L17,3 L12,4 L12,2 L10,3 L0,3 L-2,6 L-4,6 L-5,1 Z " fill="#EDA676" transform="translate(564,412)"/>
<path d="M0,0 L4,1 L4,3 L1,3 L0,6 L-2,6 L-2,9 L-7,10 L-6,3 L-4,1 Z M-7,5 Z " fill="#CBA16B" transform="translate(643,610)"/>
<path d="M0,0 L6,0 L6,1 L1,1 L1,3 L3,4 L-7,3 L-7,5 L-23,5 L-23,7 L-21,8 L-28,10 L-26,6 L-24,4 L-8,4 L-8,2 L0,2 Z " fill="#996F51" transform="translate(498,380)"/>
<path d="M0,0 L3,1 L2,3 L-6,6 L-13,8 L-16,8 L-16,6 L-18,5 L-3,2 Z " fill="#DCA777" transform="translate(666,590)"/>
<path d="M0,0 L2,0 L3,5 L10,6 L10,8 L5,9 L4,12 L-1,8 L-3,7 L-4,2 L-2,1 L-1,5 Z " fill="#CE906E" transform="translate(685,407)"/>
<path d="M0,0 L2,0 L1,4 L6,4 L6,8 L1,9 L1,7 L-6,8 Z " fill="#E0BB75" transform="translate(578,624)"/>
<path d="M0,0 L1,3 L4,3 L5,9 L4,12 L2,12 L2,9 L-1,8 L-1,6 L-4,6 L-2,1 Z " fill="#CABE76" transform="translate(321,603)"/>
<path d="M0,0 L5,1 L5,3 L8,3 L9,7 L12,7 L13,10 L10,11 L3,6 L3,3 L-1,3 Z " fill="#D08D63" transform="translate(665,391)"/>
<path d="M0,0 L4,2 L1,3 L1,6 L6,6 L6,4 L4,3 L11,4 L7,5 L7,7 L0,9 L-2,10 L-3,3 Z " fill="#BB9861" transform="translate(613,627)"/>
<path d="M0,0 L1,0 L1,9 L-2,12 L-7,13 L-7,10 L-5,10 L-5,4 L0,4 Z " fill="#EEAE7C" transform="translate(685,524)"/>
<path d="M0,0 L2,3 L5,10 L4,16 L3,16 L3,10 L1,10 L1,16 L0,16 L0,10 L-2,10 L-2,4 L0,4 Z " fill="#B5905C" transform="translate(320,472)"/>
<path d="M0,0 L2,1 L0,7 L3,7 L3,9 L-8,8 L-7,3 L-2,4 Z " fill="#CEB580" transform="translate(564,688)"/>
<path d="M0,0 L5,1 L8,8 L8,15 L7,15 L7,10 L5,10 L5,8 L1,7 L2,4 L0,4 Z M0,8 Z " fill="#DC9672" transform="translate(694,432)"/>
<path d="M0,0 L6,0 L8,1 L8,6 L3,7 L0,7 Z M6,4 Z " fill="#D29F6D" transform="translate(428,418)"/>
<path d="M0,0 L5,1 L5,3 L8,3 L9,9 L4,9 L3,5 L0,5 Z " fill="#D2C277" transform="translate(380,655)"/>
<path d="M0,0 L2,1 L2,8 L0,9 L-1,14 L-3,14 L-4,9 L-5,7 L-3,7 L-2,1 Z " fill="#EBC47F" transform="translate(353,488)"/>
<path d="M0,0 L6,0 L16,2 L21,2 L21,6 L13,5 L0,1 Z " fill="#D6C57B" transform="translate(447,685)"/>
<path d="M0,0 L6,0 L3,12 L1,13 Z " fill="#E7C686" transform="translate(562,636)"/>
<path d="M0,0 L3,1 L2,5 L-2,6 L-10,3 L-14,2 L-13,1 L-4,1 L-4,3 Z " fill="#DAA66E" transform="translate(438,428)"/>
<path d="M0,0 L4,0 L3,5 L0,7 Z M-3,7 L0,7 L0,9 L-4,11 L-8,11 L-9,8 Z " fill="#D5A46B" transform="translate(384,420)"/>
<path d="M0,0 L5,3 L8,7 L6,7 L6,9 L1,8 L0,3 L-2,3 L-2,1 Z " fill="#C98861" transform="translate(673,390)"/>
<path d="M0,0 L10,1 L12,3 L5,4 L2,3 L-2,7 L-4,7 L-4,5 L-2,5 L-2,3 L-8,3 L-4,1 Z " fill="#EAD392" transform="translate(526,668)"/>
<path d="M0,0 L3,2 L3,8 L1,16 L-1,15 L-1,7 L0,4 L-2,4 L-2,2 L0,2 Z " fill="#E5C588" transform="translate(564,653)"/>
<path d="M0,0 L7,0 L10,2 L4,4 L3,8 L-1,9 Z " fill="#CC9869" transform="translate(407,405)"/>
<path d="M0,0 L2,1 L0,6 L2,7 L2,9 L-5,7 L-6,3 Z M-6,7 Z " fill="#CEAF79" transform="translate(587,662)"/>
<path d="M0,0 L1,3 L3,3 L4,0 L3,9 L8,8 L9,13 L14,12 L12,15 L8,14 L6,11 L2,10 L2,4 L0,4 Z " fill="#ABA061" transform="translate(322,612)"/>
<path d="M0,0 L5,0 L5,2 L8,3 L7,5 L-2,8 L-7,8 L-7,6 L1,6 L2,1 Z " fill="#D9B170" transform="translate(603,620)"/>
<path d="M0,0 L14,1 L14,3 L7,3 L6,5 L6,3 L-1,3 Z " fill="#CAB582" transform="translate(549,696)"/>
<path d="M0,0 L12,0 L12,6 L8,6 L8,8 L4,7 L7,7 L6,3 L9,3 L9,5 L11,5 L11,1 L1,1 L1,8 L0,8 Z " fill="#311E08" transform="translate(702,690)"/>
<path d="M0,0 L2,2 L3,0 L5,0 L6,2 L9,1 L9,4 L5,6 L5,4 L-3,6 L-4,3 Z M-1,5 Z " fill="#E5AB7E" transform="translate(683,540)"/>
<path d="M0,0 L3,0 L3,5 L9,4 L7,7 L-1,7 Z " fill="#EAD293" transform="translate(541,664)"/>
<path d="M0,0 L3,0 L3,2 L5,3 L4,7 L2,7 L2,9 L-2,8 L1,8 L1,6 L-2,6 Z " fill="#BA9A63" transform="translate(598,649)"/>
<path d="M0,0 L12,1 L12,2 L2,3 L0,6 L-8,6 L-8,8 L-12,7 L-9,7 L-9,5 L-11,4 L-1,5 Z " fill="#A4815C" transform="translate(656,606)"/>
<path d="M0,0 L7,0 L7,3 L11,3 L11,8 L10,5 L5,5 L0,3 Z " fill="#D4C87F" transform="translate(357,636)"/>
<path d="M0,0 L2,1 L2,5 L0,5 L-1,7 L-1,5 L-3,5 L-2,7 L-2,14 L-3,14 L-3,9 L-5,9 L-5,14 L-6,14 L-6,8 L-4,8 L-3,3 Z " fill="#A88455" transform="translate(328,458)"/>
<path d="M0,0 L4,1 L2,3 L3,6 L1,6 L-2,15 L-3,12 L-2,4 L0,4 Z " fill="#D0A572" transform="translate(342,432)"/>
<path d="M0,0 L4,0 L4,2 L7,0 L10,0 L11,3 L4,5 L0,6 Z " fill="#E29D6C" transform="translate(556,397)"/>
<path d="M0,0 L1,3 L1,17 L-4,16 L-3,14 L-2,4 Z " fill="#CDB078" transform="translate(580,670)"/>
<path d="M0,0 L1,2 L6,2 L2,5 L-3,7 L-6,7 L-6,5 L-4,5 L-4,1 Z " fill="#B9815E" transform="translate(510,373)"/>
<path d="M0,0 L4,1 L4,3 L2,3 L2,5 L5,4 L5,9 L9,12 L4,11 L3,6 L-1,4 L-2,1 Z " fill="#A79C5E" transform="translate(351,640)"/>
<path d="M0,0 L5,1 L7,3 L4,7 L0,8 Z " fill="#D4BC7C" transform="translate(312,566)"/>
<path d="M0,0 L4,0 L4,8 L6,8 L6,14 L5,14 L5,9 L3,9 L3,15 L1,14 L0,8 L3,8 L3,1 Z " fill="#AC785B" transform="translate(682,398)"/>
<path d="M0,0 L8,0 L7,3 L2,3 L2,5 L-3,5 L-3,2 Z " fill="#CAA36B" transform="translate(617,628)"/>
<path d="M0,0 L4,0 L4,2 L-2,4 L-3,5 L-3,12 L-6,11 L-6,5 Z " fill="#CFA86A" transform="translate(614,625)"/>
<path d="M0,0 L6,0 L4,5 L-1,8 L-4,7 L-1,4 Z " fill="#DDB477" transform="translate(613,603)"/>
<path d="M0,0 L6,2 L6,9 L2,11 L2,2 L0,2 Z " fill="#DBC77B" transform="translate(323,593)"/>
<path d="M0,0 L4,0 L5,4 L3,5 L3,9 L0,8 L0,6 L-2,5 Z " fill="#CFB173" transform="translate(312,534)"/>
<path d="M0,0 L0,3 L-8,6 L-15,5 L-15,3 L-4,2 Z " fill="#D8A56D" transform="translate(416,428)"/>
<path d="M0,0 L2,1 L-2,5 L-12,5 L-8,3 L-7,1 Z " fill="#D59F6C" transform="translate(456,420)"/>
<path d="M0,0 L4,1 L4,3 L1,3 L1,8 L-5,8 L-5,7 L0,7 L0,5 L-5,5 Z " fill="#BAA26F" transform="translate(573,686)"/>
<path d="M0,0 L1,2 L9,3 L12,6 L12,9 L10,9 L10,7 L4,6 L3,4 L0,3 Z " fill="#D2C480" transform="translate(396,666)"/>
<path d="M0,0 L1,0 L3,6 L6,9 L3,10 L-1,8 L-3,3 Z " fill="#D7C882" transform="translate(399,660)"/>
<path d="M0,0 L1,0 L1,6 L-1,6 L-1,8 L-6,10 L-7,12 L-11,11 L-8,11 L-8,9 L-10,8 L-5,6 L-2,7 L-2,4 L0,4 Z " fill="#A97D5C" transform="translate(685,590)"/>
<path d="M0,0 L2,4 L-1,13 L-2,16 L-5,16 L-5,14 L-3,14 L-3,7 Z " fill="#DEC48B" transform="translate(565,664)"/>
<path d="M0,0 L5,1 L8,2 L9,5 L7,7 L4,7 L3,2 L0,2 Z " fill="#DDCF86" transform="translate(337,604)"/>
<path d="M0,0 L7,1 L6,3 L1,5 L0,6 L-6,6 L-6,4 L-1,3 Z " fill="#CC9667" transform="translate(439,399)"/>
<path d="M0,0 L5,1 L11,2 L11,3 L4,5 L3,7 L-1,6 L2,6 L2,4 L-1,3 Z " fill="#B28D5F" transform="translate(625,623)"/>
<path d="M0,0 L2,0 L2,4 L5,4 L5,6 L-2,5 L-3,7 L-5,7 L-4,3 Z " fill="#CE9A6D" transform="translate(672,595)"/>
<path d="M0,0 L1,0 L2,16 L1,22 L0,19 L-2,19 L-1,15 Z " fill="#241E14" transform="translate(309,504)"/>
<path d="M0,0 L4,0 L4,3 L1,3 L0,6 L-4,5 L-4,2 Z " fill="#D29B6D" transform="translate(444,415)"/>
<path d="M0,0 L2,0 L0,4 L-1,2 L-8,2 L-8,4 L-16,3 L-12,1 Z " fill="#E8A170" transform="translate(632,397)"/>
<path d="M0,0 L2,0 L2,2 L4,2 L4,4 L6,5 L4,5 L5,9 L-1,4 L-2,1 Z " fill="#1C130E" transform="translate(677,388)"/>
<path d="M0,0 L3,1 L-2,6 L-13,6 L-13,5 L-3,3 Z " fill="#ECD78B" transform="translate(341,571)"/>
<path d="M0,0 L1,0 L2,9 L3,0 L4,0 L4,12 L1,13 L0,11 Z " fill="#19140D" transform="translate(326,446)"/>
<path d="M0,0 L2,0 L2,3 L5,3 L5,13 L4,13 L4,4 L2,4 L2,9 L1,6 L-1,6 Z " fill="#B57F5F" transform="translate(707,431)"/>
<path d="M0,0 L6,0 L4,6 L2,6 L2,4 L0,4 L0,6 L-2,6 L-2,2 L0,2 Z " fill="#E7A377" transform="translate(506,412)"/>
<path d="M0,0 L1,0 L1,6 L-2,8 L-3,12 L-6,13 L-6,10 L-4,10 L-5,5 L-3,4 L0,5 Z " fill="#AD7D5B" transform="translate(707,560)"/>
<path d="M0,0 L2,2 L1,5 L-1,5 L-3,12 L-4,12 L-4,5 Z " fill="#E3C37A" transform="translate(340,527)"/>
<path d="M0,0 L2,3 L-1,5 L-7,5 L-10,2 L0,2 Z " fill="#CB9769" transform="translate(431,405)"/>
<path d="M0,0 L5,3 L7,5 L6,9 L6,6 L4,6 L3,8 L0,3 Z " fill="#252317" transform="translate(309,601)"/>
<path d="M0,0 L4,0 L3,6 L2,8 L5,9 L1,9 Z " fill="#BAAD6D" transform="translate(315,601)"/>
<path d="M0,0 Z M-1,1 L0,3 L-3,10 L-5,10 L-5,4 Z " fill="#F1DC8C" transform="translate(349,580)"/>
<path d="M0,0 L1,4 L-4,6 L-5,8 L-10,9 L-11,6 L-6,7 L-5,2 L0,3 Z " fill="#AC7F5D" transform="translate(699,574)"/>
<path d="M0,0 L2,0 L0,4 L-5,12 L-7,11 L-7,8 L-5,8 L-5,6 L-3,6 L-2,2 L0,2 Z " fill="#F2B47B" transform="translate(673,534)"/>
<path d="M0,0 L2,3 L4,9 L0,12 L-1,7 Z " fill="#EEAD7E" transform="translate(683,477)"/>
<path d="M0,0 L8,0 L10,7 L8,7 L6,3 L2,1 L1,4 Z " fill="#E0CE82" transform="translate(436,671)"/>
<path d="M0,0 L3,0 L4,5 L1,5 L0,7 L0,5 L-3,4 Z " fill="#C9AA77" transform="translate(589,664)"/>
<path d="M0,0 L1,4 L-1,4 L-1,10 L-3,10 L-4,14 L-5,6 L-4,9 L-2,9 L-2,1 Z " fill="#261D13" transform="translate(323,462)"/>
<path d="M0,0 L3,0 L3,5 L7,5 L7,9 L3,8 Z " fill="#EAA471" transform="translate(665,425)"/>
<path d="M0,0 L5,0 L4,4 L-2,4 L-3,1 Z " fill="#E9D58E" transform="translate(476,672)"/>
<path d="M0,0 L2,0 L3,2 L10,3 L10,6 L6,6 L1,5 Z " fill="#DAC97C" transform="translate(385,652)"/>
<path d="M0,0 L4,0 L2,5 L-3,6 L-2,2 Z " fill="#E9C480" transform="translate(565,628)"/>
<path d="M0,0 L0,3 L-4,7 L-6,6 L-7,1 L-2,2 Z " fill="#D7BD76" transform="translate(324,563)"/>
<path d="M0,0 L1,4 L-1,4 L-1,16 L-5,15 L-2,15 L-2,1 Z " fill="#332A1B" transform="translate(315,488)"/>
<path d="M0,0 L2,0 L1,4 L-1,5 L-1,3 L-14,3 L-14,2 L-1,1 Z " fill="#C7B380" transform="translate(536,704)"/>
<path d="M0,0 L7,0 L11,2 L0,3 Z " fill="#CAB971" transform="translate(410,684)"/>
<path d="M0,0 L6,1 L8,3 L4,3 L4,5 L7,6 L3,6 L3,4 L-1,3 L2,3 L2,1 Z " fill="#B2A766" transform="translate(363,652)"/>
<path d="M0,0 L6,0 L6,1 L1,2 L0,7 L-1,5 L-3,5 L-4,8 L-3,3 Z " fill="#292115" transform="translate(614,634)"/>
<path d="M0,0 L4,1 L3,5 L2,7 L-2,6 L1,6 L1,4 L-2,3 Z " fill="#BA8D64" transform="translate(670,599)"/>
<path d="M0,0 L2,0 L2,5 L-5,7 L-5,4 Z " fill="#D8A37A" transform="translate(681,574)"/>
<path d="M0,0 L1,3 L-5,8 L-8,8 L-7,5 L-2,2 Z " fill="#DAC279" transform="translate(324,565)"/>
<path d="M0,0 L3,0 L3,2 L6,3 L3,4 L2,6 L2,4 L-2,3 Z " fill="#EBD784" transform="translate(421,653)"/>
<path d="M0,0 L2,0 L1,4 L1,13 L-2,13 L-1,1 Z " fill="#C7A46C" transform="translate(314,504)"/>
<path d="M0,0 L9,0 L5,3 L-1,3 Z " fill="#DB996C" transform="translate(515,396)"/>
<path d="M0,0 L2,1 L0,3 L-10,4 L-7,1 Z " fill="#D7976B" transform="translate(592,384)"/>
<path d="M0,0 L4,2 L2,2 L2,5 L-3,6 L-2,2 Z " fill="#C89E67" transform="translate(639,614)"/>
<path d="M0,0 L6,0 L8,4 L1,2 L0,3 L-6,3 L-6,2 Z " fill="#E59F6E" transform="translate(641,399)"/>
<path d="M0,0 L5,0 L5,4 L0,5 Z " fill="#DCB773" transform="translate(579,628)"/>
<path d="M0,0 L3,1 L3,8 L1,8 L1,4 L-1,4 L-2,1 Z " fill="#B1A567" transform="translate(337,626)"/>
<path d="M0,0 L4,1 L1,4 L-2,9 L-3,6 Z " fill="#D19C75" transform="translate(688,570)"/>
<path d="M0,0 L2,0 L3,8 L0,8 L0,6 L-2,5 L0,5 Z " fill="#C99E67" transform="translate(323,467)"/>
<path d="M0,0 L3,1 L2,8 L-1,8 Z " fill="#C98965" transform="translate(700,419)"/>
<path d="M0,0 L4,0 L3,5 L0,6 Z " fill="#D1A06C" transform="translate(384,420)"/>
<path d="M0,0 L2,0 L3,3 L2,5 L6,4 L6,7 L1,7 Z " fill="#E8A475" transform="translate(644,408)"/>
<path d="M0,0 L2,1 L2,3 L0,3 L0,5 L2,6 L-1,6 L-1,4 L-4,3 L-4,1 Z " fill="#CA8962" transform="translate(671,388)"/>
<path d="M0,0 L2,0 L1,5 L-4,6 L-2,5 L-2,2 L0,2 Z " fill="#F4B780" transform="translate(660,542)"/>
<path d="M0,0 L5,1 L1,5 L1,3 L-1,3 L-2,6 L-1,1 Z " fill="#AB855E" transform="translate(350,416)"/>
<path d="M0,0 L3,2 L9,3 L8,5 L0,5 Z " fill="#AF7758" transform="translate(651,379)"/>
<path d="M0,0 L4,2 L2,3 L3,7 L-2,2 Z " fill="#B3A669" transform="translate(381,664)"/>
<path d="M0,0 L3,0 L2,5 L-1,5 Z " fill="#EDDA8C" transform="translate(361,604)"/>
<path d="M0,0 L2,4 L-3,6 L-4,3 Z M-1,5 Z " fill="#E9AF81" transform="translate(683,540)"/>
<path d="M0,0 L5,0 L5,4 L1,5 Z " fill="#DDA070" transform="translate(475,420)"/>
<path d="M0,0 L2,1 L0,4 L-5,4 L-4,1 Z " fill="#C99269" transform="translate(475,388)"/>
<path d="M0,0 L13,0 L13,1 L4,2 L1,3 Z " fill="#C7916A" transform="translate(477,387)"/>
<path d="M0,0 L5,0 L4,4 L0,4 Z " fill="#ECCB7E" transform="translate(444,568)"/>
<path d="M0,0 L2,0 L2,2 L4,3 L-3,5 L-1,1 Z " fill="#A77958" transform="translate(473,385)"/>
<path d="M0,0 L4,0 L3,4 L3,1 L1,1 L1,4 L-3,3 Z " fill="#B37755" transform="translate(646,374)"/>
<path d="M0,0 L4,0 L4,4 L0,4 Z " fill="#F8DC92" transform="translate(520,636)"/>
<path d="M0,0 L3,2 L2,4 L-2,7 L-1,1 Z " fill="#E6C07C" transform="translate(570,626)"/>
<path d="M0,0 L3,0 L3,5 L-1,4 Z " fill="#E8B778" transform="translate(609,596)"/>
<path d="M0,0 L4,0 L4,4 L0,4 Z " fill="#F5DA89" transform="translate(448,596)"/>
<path d="M0,0 L4,0 L4,2 L0,5 L-2,5 Z " fill="#E4AC83" transform="translate(684,548)"/>
<path d="M0,0 L5,0 L4,4 L0,3 Z " fill="#CE8D63" transform="translate(560,372)"/>
<path d="M0,0 L3,0 L4,4 L0,5 Z " fill="#412709" transform="translate(705,693)"/>
<path d="M0,0 L3,0 L2,5 L-1,4 Z " fill="#D5B174" transform="translate(596,632)"/>
<path d="M0,0 L1,4 L-4,7 L-5,4 L0,3 Z " fill="#B08A5A" transform="translate(641,616)"/>
<path d="M0,0 L2,0 L3,6 L0,7 Z " fill="#CBA16D" transform="translate(339,430)"/>
<path d="M0,0 L2,0 L3,5 L-2,6 L0,5 Z " fill="#D2A06C" transform="translate(420,420)"/>
<path d="M0,0 L6,2 L6,3 L1,3 L0,5 Z " fill="#C6B773" transform="translate(444,690)"/>
<path d="M0,0 L5,0 L6,2 L4,4 L0,2 Z " fill="#CBBE74" transform="translate(367,655)"/>
<path d="M0,0 L4,1 L3,5 L0,4 Z " fill="#F1D38F" transform="translate(549,639)"/>
<path d="M0,0 L4,1 L4,4 L0,4 Z " fill="#FCE297" transform="translate(500,640)"/>
<path d="M0,0 L5,1 L6,4 L2,3 L2,1 Z " fill="#E1D284" transform="translate(346,608)"/>
<path d="M0,0 L2,1 L1,6 L-1,6 L-1,1 Z " fill="#D79F6D" transform="translate(465,420)"/>
<path d="M0,0 L4,4 L2,4 L2,6 L0,6 Z " fill="#BE825F" transform="translate(677,393)"/>
<path d="M0,0 L2,3 L6,5 L1,6 L-1,3 Z " fill="#C7B975" transform="translate(399,676)"/>
<path d="M0,0 L1,0 L1,7 L-2,8 L-1,4 Z " fill="#DAB878" transform="translate(580,649)"/>
<path d="M0,0 L4,0 L4,3 L1,4 Z " fill="#F4E290" transform="translate(432,640)"/>
<path d="M0,0 L3,2 L2,5 L-1,4 Z " fill="#EECF7F" transform="translate(417,564)"/>
<path d="M0,0 L2,0 L2,5 L-1,5 Z " fill="#CA936B" transform="translate(703,560)"/>
<path d="M0,0 L2,1 L0,2 Z M-2,2 L0,3 L-4,6 L-6,4 Z " fill="#EDD17F" transform="translate(356,545)"/>
<path d="M0,0 L3,0 L2,5 L-2,4 L1,4 Z " fill="#382208" transform="translate(708,693)"/>
<path d="M0,0 L1,3 L-3,6 L-3,2 L0,2 Z " fill="#E8D687" transform="translate(407,646)"/>
<path d="M0,0 L1,2 L0,5 L-3,6 L-2,2 Z " fill="#ECC784" transform="translate(565,628)"/>
<path d="M0,0 L5,1 L4,5 L4,2 L2,2 L1,4 Z " fill="#16150D" transform="translate(311,605)"/>
<path d="M0,0 L3,0 L2,4 L0,5 L-1,1 Z " fill="#F8B97E" transform="translate(670,511)"/>
<path d="M0,0 L4,2 L4,3 L-2,3 L-2,1 Z " fill="#C2835F" transform="translate(673,390)"/>
<path d="M0,0 L2,0 L1,4 L-1,5 Z " fill="#BFAC7C" transform="translate(536,704)"/>
<path d="M0,0 Z M-2,1 L0,2 L-2,5 L-4,5 L-4,2 Z " fill="#F8DF94" transform="translate(510,656)"/>
<path d="M0,0 L4,0 L3,3 L0,3 Z " fill="#E3BB7D" transform="translate(592,608)"/>
<path d="M0,0 L2,3 L-1,7 L-1,1 Z " fill="#EAB07F" transform="translate(677,544)"/>
<path d="M0,0 L1,4 L-2,5 L-1,1 Z " fill="#EBAD7C" transform="translate(685,516)"/>
<path d="M0,0 L1,4 L-2,5 L-2,1 Z " fill="#1A140E" transform="translate(347,418)"/>
<path d="M0,0 Z M-1,1 L2,5 L-1,6 Z " fill="#DCBB78" transform="translate(578,633)"/>
<path d="M0,0 L2,0 L2,3 L-2,3 L-2,1 Z " fill="#F6DE8A" transform="translate(482,610)"/>
<path d="M0,0 L4,2 L-1,3 Z " fill="#C4916A" transform="translate(697,572)"/>
<path d="M0,0 L1,4 L-2,4 L-2,1 Z " fill="#1B150E" transform="translate(315,488)"/>
<path d="M0,0 L1,4 L-2,4 L-2,1 Z " fill="#1A150D" transform="translate(323,462)"/>
<path d="M0,0 L2,0 L1,4 L-2,2 Z " fill="#C99E64" transform="translate(330,458)"/>
<path d="M0,0 L3,1 L2,3 L-2,2 Z " fill="#D8A56B" transform="translate(438,428)"/>
</svg>
