<?xml version="1.0" encoding="UTF-8"?>
<!-- Generator: visioncortex VTracer 0.6.4 -->
<svg version="1.1" xmlns="http://www.w3.org/2000/svg" width="1024" height="1024">
<path d="M0,0 L1024,0 L1024,1024 L0,1024 Z " fill="#000000" transform="translate(0,0)"/>
<path d="M0,0 L10,0 L10,2 L16,2 L16,4 L26,4 L26,6 L34,6 L34,8 L38,8 L38,10 L42,10 L42,12 L46,12 L46,14 L48,14 L48,20 L52,22 L54,26 L56,26 L56,30 L58,30 L58,32 L60,32 L60,36 L62,36 L62,40 L64,40 L64,44 L66,44 L66,48 L68,48 L68,56 L70,56 L70,62 L72,62 L72,64 L74,64 L74,74 L76,74 L76,88 L78,88 L78,100 L76,100 L76,112 L74,112 L74,132 L72,132 L72,134 L70,134 L70,138 L68,138 L68,168 L66,168 L66,190 L64,190 L64,198 L62,198 L62,204 L60,204 L60,210 L58,210 L58,212 L56,212 L56,216 L54,216 L54,218 L52,218 L52,230 L50,230 L50,238 L48,238 L48,260 L46,260 L46,266 L42,266 L42,268 L38,268 L38,274 L36,274 L36,276 L34,276 L34,286 L32,286 L32,294 L30,294 L30,298 L28,298 L28,300 L26,300 L26,304 L24,304 L24,306 L22,306 L22,312 L18,312 L18,316 L16,316 L16,328 L14,328 L14,330 L10,330 L10,332 L6,332 L6,334 L4,334 L4,336 L-2,336 L-2,340 L-4,340 L-4,344 L-8,344 L-8,348 L-14,348 L-14,350 L-16,350 L-16,352 L-21,356 L-22,358 L-26,358 L-26,360 L-28,360 L-28,362 L-32,362 L-32,364 L-36,364 L-36,366 L-38,366 L-38,370 L-40,370 L-40,372 L-44,372 L-44,374 L-46,374 L-46,376 L-52,376 L-52,378 L-54,378 L-54,380 L-66,380 L-66,382 L-78,382 L-78,384 L-100,384 L-100,386 L-104,386 L-104,388 L-106,388 L-106,390 L-110,390 L-110,392 L-120,392 L-120,394 L-140,394 L-140,392 L-144,392 L-144,394 L-168,394 L-168,396 L-176,396 L-176,394 L-190,394 L-190,390 L-192,390 L-192,388 L-196,388 L-196,386 L-200,386 L-200,384 L-208,384 L-208,382 L-232,382 L-232,380 L-246,380 L-246,378 L-256,378 L-256,376 L-262,376 L-262,374 L-268,374 L-268,372 L-272,372 L-272,370 L-276,370 L-276,368 L-280,368 L-280,366 L-286,366 L-286,364 L-291,363 L-292,360 L-296,360 L-296,358 L-304,358 L-304,354 L-306,354 L-308,349 L-312,346 L-313,336 L-320,330 L-320,312 L-324,312 L-324,300 L-326,300 L-326,296 L-328,296 L-328,292 L-332,292 L-334,287 L-338,284 L-338,280 L-340,280 L-340,274 L-342,274 L-342,266 L-344,266 L-344,236 L-346,236 L-346,226 L-344,226 L-344,212 L-342,212 L-341,207 L-338,204 L-336,204 L-336,202 L-328,202 L-328,200 L-326,200 L-325,195 L-322,194 L-322,192 L-318,192 L-318,190 L-316,190 L-316,178 L-312,178 L-312,176 L-310,176 L-310,172 L-308,172 L-308,162 L-306,162 L-306,158 L-304,158 L-304,154 L-302,154 L-301,149 L-296,144 L-294,144 L-294,142 L-292,142 L-292,138 L-290,138 L-290,136 L-288,136 L-288,132 L-284,132 L-284,126 L-280,126 L-280,112 L-276,112 L-276,110 L-270,110 L-270,112 L-260,112 L-260,114 L-256,114 L-256,120 L-254,120 L-254,122 L-252,122 L-252,128 L-248,128 L-246,131 L-210,132 L-208,135 L-196,136 L-196,138 L-184,138 L-184,140 L-182,140 L-182,138 L-148,138 L-148,136 L-126,136 L-126,134 L-124,134 L-124,132 L-120,132 L-120,128 L-118,128 L-118,126 L-114,126 L-114,124 L-112,124 L-112,118 L-110,118 L-110,114 L-108,114 L-108,108 L-106,108 L-106,104 L-102,104 L-102,100 L-98,100 L-98,98 L-96,98 L-96,96 L-92,96 L-92,92 L-90,92 L-90,90 L-88,90 L-88,84 L-90,84 L-90,76 L-88,76 L-88,74 L-86,74 L-86,70 L-84,70 L-84,68 L-82,68 L-82,64 L-80,64 L-80,58 L-78,58 L-78,54 L-76,54 L-76,42 L-74,42 L-74,40 L-72,40 L-72,32 L-68,30 L-68,28 L-64,28 L-64,26 L-56,26 L-56,24 L-54,24 L-54,22 L-52,22 L-52,16 L-48,12 L-46,12 L-46,10 L-44,10 L-44,8 L-36,8 L-36,6 L-28,6 L-28,4 L-20,4 L-20,2 L0,2 Z " fill="#EFB08F" transform="translate(650,334)"/>
<path d="M0,0 L10,0 L10,2 L16,2 L16,4 L26,4 L26,6 L34,6 L34,8 L38,8 L38,10 L42,10 L42,12 L46,12 L46,14 L48,14 L48,20 L52,22 L54,26 L56,26 L56,30 L58,30 L58,32 L60,32 L60,36 L62,36 L62,40 L64,40 L64,44 L66,44 L66,48 L68,48 L68,56 L70,56 L70,62 L72,62 L72,64 L74,64 L74,74 L76,74 L76,88 L78,88 L78,100 L76,100 L76,112 L74,112 L74,132 L72,132 L72,134 L70,134 L70,138 L68,138 L68,168 L66,168 L66,190 L64,190 L64,198 L62,198 L62,204 L60,204 L60,210 L58,210 L58,212 L56,212 L56,216 L54,216 L54,218 L52,218 L52,230 L50,230 L50,238 L48,238 L48,260 L46,260 L46,266 L42,266 L42,268 L38,268 L38,274 L36,274 L36,276 L34,276 L34,286 L32,286 L32,294 L30,294 L30,298 L28,298 L28,300 L26,300 L26,304 L24,304 L24,306 L22,306 L22,312 L18,312 L18,316 L16,316 L16,328 L14,328 L14,330 L10,330 L10,332 L6,332 L6,334 L4,334 L4,336 L-2,336 L-2,340 L-4,340 L-4,344 L-8,344 L-8,348 L-14,348 L-14,350 L-16,350 L-16,352 L-21,356 L-22,358 L-26,358 L-26,360 L-28,360 L-28,362 L-32,362 L-32,364 L-36,364 L-36,366 L-38,366 L-38,370 L-40,370 L-40,372 L-44,372 L-44,374 L-46,374 L-46,376 L-52,376 L-52,378 L-54,378 L-54,380 L-66,380 L-66,382 L-78,382 L-78,384 L-100,384 L-100,386 L-104,386 L-104,388 L-106,388 L-106,390 L-110,390 L-110,392 L-120,392 L-120,394 L-140,394 L-140,392 L-144,392 L-144,394 L-168,394 L-168,396 L-176,396 L-176,394 L-190,394 L-190,390 L-192,390 L-192,388 L-196,388 L-196,386 L-200,386 L-200,384 L-208,384 L-208,382 L-232,382 L-232,380 L-246,380 L-246,378 L-256,378 L-256,376 L-262,376 L-262,374 L-268,374 L-268,372 L-272,372 L-272,370 L-276,370 L-276,368 L-280,368 L-280,366 L-286,366 L-286,364 L-291,363 L-292,360 L-296,360 L-296,358 L-304,358 L-304,354 L-306,354 L-308,349 L-312,346 L-313,336 L-320,330 L-320,312 L-324,312 L-324,300 L-326,300 L-326,296 L-328,296 L-328,292 L-332,292 L-334,287 L-338,284 L-338,280 L-340,280 L-340,274 L-342,274 L-342,266 L-344,266 L-344,236 L-346,236 L-346,226 L-344,226 L-344,212 L-342,212 L-341,207 L-338,204 L-336,204 L-336,202 L-328,202 L-328,200 L-326,200 L-325,195 L-322,194 L-322,192 L-318,192 L-318,190 L-316,190 L-316,178 L-312,178 L-312,176 L-310,176 L-310,172 L-308,172 L-308,162 L-306,162 L-306,158 L-304,158 L-304,154 L-302,154 L-301,149 L-296,144 L-294,144 L-294,142 L-292,142 L-292,138 L-290,138 L-290,136 L-288,136 L-288,132 L-284,132 L-284,126 L-280,126 L-280,112 L-276,112 L-276,110 L-270,110 L-270,112 L-260,112 L-260,114 L-256,114 L-256,120 L-254,120 L-254,122 L-252,122 L-252,128 L-248,128 L-246,131 L-210,132 L-208,135 L-196,136 L-196,138 L-184,138 L-184,140 L-182,140 L-182,138 L-148,138 L-148,136 L-126,136 L-126,134 L-124,134 L-124,132 L-120,132 L-120,128 L-118,128 L-118,126 L-114,126 L-114,124 L-112,124 L-112,118 L-110,118 L-110,114 L-108,114 L-108,108 L-106,108 L-106,104 L-102,104 L-102,100 L-98,100 L-98,98 L-96,98 L-96,96 L-92,96 L-92,92 L-90,92 L-90,90 L-88,90 L-88,84 L-90,84 L-90,76 L-88,76 L-88,74 L-86,74 L-86,70 L-84,70 L-84,68 L-82,68 L-82,64 L-80,64 L-80,58 L-78,58 L-78,54 L-76,54 L-76,42 L-74,42 L-74,40 L-72,40 L-72,32 L-68,30 L-68,28 L-64,28 L-64,26 L-56,26 L-56,24 L-54,24 L-54,22 L-52,22 L-52,16 L-48,12 L-46,12 L-46,10 L-44,10 L-44,8 L-36,8 L-36,6 L-28,6 L-28,4 L-20,4 L-20,2 L0,2 Z M6,37 L6,40 L0,40 L0,42 L-5,41 L-24,43 L-25,40 L-32,41 L-39,46 L-39,48 L-42,48 L-46,58 L-48,64 L-48,75 L-51,80 L-52,90 L-54,94 L-55,114 L-60,114 L-63,119 L-65,126 L-69,127 L-75,137 L-78,146 L-81,150 L-85,153 L-86,161 L-87,165 L-92,171 L-96,178 L-103,180 L-112,180 L-117,179 L-118,182 L-120,182 L-121,179 L-126,181 L-130,179 L-135,178 L-139,176 L-140,179 L-142,179 L-142,176 L-153,175 L-154,180 L-153,182 L-155,181 L-169,181 L-172,180 L-179,179 L-185,181 L-186,180 L-195,180 L-196,177 L-201,179 L-203,182 L-209,178 L-211,180 L-217,180 L-219,175 L-214,174 L-214,170 L-216,169 L-215,167 L-216,164 L-221,162 L-214,159 L-214,161 L-202,161 L-200,155 L-198,153 L-196,147 L-195,144 L-202,142 L-202,144 L-212,145 L-214,146 L-214,143 L-210,143 L-211,137 L-222,138 L-222,136 L-232,137 L-234,136 L-246,136 L-251,132 L-253,132 L-253,129 L-255,128 L-257,123 L-259,123 L-260,118 L-263,116 L-273,114 L-276,117 L-276,122 L-274,122 L-274,130 L-278,130 L-279,133 L-286,139 L-294,149 L-299,155 L-301,160 L-304,166 L-304,168 L-302,168 L-306,178 L-309,182 L-310,189 L-306,188 L-308,192 L-307,194 L-298,193 L-298,196 L-301,197 L-297,200 L-303,205 L-300,207 L-299,208 L-305,213 L-308,218 L-309,219 L-310,210 L-314,212 L-318,212 L-319,213 L-319,220 L-319,222 L-322,230 L-323,232 L-321,233 L-321,242 L-319,242 L-321,250 L-319,250 L-319,270 L-318,278 L-316,278 L-317,285 L-315,290 L-313,291 L-312,298 L-309,298 L-307,281 L-309,277 L-310,275 L-313,275 L-312,268 L-309,271 L-307,263 L-308,261 L-306,261 L-306,257 L-308,257 L-308,255 L-304,254 L-303,268 L-301,268 L-304,273 L-305,283 L-304,290 L-302,290 L-301,292 L-304,294 L-303,302 L-302,305 L-299,306 L-300,311 L-292,311 L-292,307 L-290,306 L-290,300 L-290,298 L-289,297 L-289,292 L-290,291 L-291,283 L-289,283 L-288,278 L-288,294 L-287,303 L-285,303 L-285,308 L-286,313 L-284,316 L-287,319 L-288,325 L-286,332 L-284,333 L-284,335 L-282,335 L-282,332 L-278,332 L-279,327 L-278,325 L-272,327 L-270,333 L-270,335 L-271,338 L-269,339 L-267,343 L-255,346 L-255,348 L-251,350 L-250,353 L-240,353 L-240,355 L-232,359 L-214,362 L-200,362 L-187,364 L-158,364 L-140,362 L-133,360 L-128,361 L-121,361 L-117,362 L-110,361 L-103,361 L-101,359 L-97,357 L-98,355 L-92,355 L-91,350 L-97,348 L-88,347 L-83,345 L-80,345 L-80,342 L-76,342 L-76,344 L-60,344 L-58,345 L-55,343 L-54,339 L-57,333 L-57,330 L-54,330 L-49,328 L-46,327 L-46,325 L-44,325 L-44,323 L-42,323 L-42,312 L-37,310 L-37,303 L-33,304 L-32,303 L-30,309 L-35,314 L-36,318 L-37,323 L-34,324 L-34,327 L-27,327 L-25,322 L-22,322 L-22,314 L-27,316 L-29,317 L-27,314 L-22,311 L-21,306 L-21,293 L-17,293 L-19,306 L-17,307 L-20,312 L-13,311 L-12,309 L-13,300 L-12,299 L-12,294 L-6,294 L-5,290 L-6,281 L-7,277 L-5,274 L-5,247 L-2,242 L-4,233 L-4,231 L4,231 L6,228 L8,229 L8,223 L7,221 L11,220 L13,216 L12,212 L11,211 L12,201 L11,194 L13,192 L13,186 L11,186 L12,179 L14,178 L17,169 L18,168 L18,176 L22,176 L22,170 L25,170 L24,164 L26,164 L27,155 L26,151 L24,151 L23,146 L25,144 L27,138 L29,132 L34,129 L38,128 L43,126 L43,122 L45,122 L47,119 L47,114 L45,114 L45,119 L43,119 L45,110 L45,104 L43,104 L42,102 L44,102 L44,99 L42,99 L43,94 L43,77 L42,72 L39,74 L38,70 L32,70 L32,69 L32,66 L38,66 L38,63 L35,60 L34,55 L31,55 L29,57 L29,44 L27,44 L27,42 L11,43 L11,41 L9,40 L8,37 Z M-196,176 Z M-308,194 Z M-21,312 Z M-54,338 Z M29,72 Z M-298,155 Z M-298,192 Z M-296,208 Z M-316,218 Z M-317,219 Z M-5,240 Z M-7,284 Z " fill="#DB9580" transform="translate(650,334)"/>
<path d="M0,0 L10,0 L10,2 L16,2 L16,4 L26,4 L26,6 L34,6 L34,8 L38,8 L38,10 L42,10 L42,12 L46,12 L46,14 L48,14 L48,20 L52,22 L54,26 L56,26 L56,30 L58,30 L58,32 L60,32 L60,36 L62,36 L62,40 L64,40 L64,44 L66,44 L66,48 L68,48 L68,56 L70,56 L70,62 L72,62 L72,64 L74,64 L74,74 L76,74 L76,88 L78,88 L78,100 L76,100 L76,112 L74,112 L74,132 L72,132 L72,134 L70,134 L70,138 L68,138 L68,168 L66,168 L66,190 L64,190 L64,198 L62,198 L62,204 L60,204 L60,210 L58,210 L58,212 L56,212 L56,216 L54,216 L54,218 L52,218 L52,230 L50,230 L50,238 L48,238 L48,260 L46,260 L46,266 L42,266 L42,268 L38,268 L38,274 L36,274 L36,276 L34,276 L34,286 L32,286 L32,294 L30,294 L30,298 L28,298 L28,300 L26,300 L26,304 L24,304 L24,306 L22,306 L22,312 L18,312 L18,316 L16,316 L16,328 L14,328 L14,330 L10,330 L10,332 L6,332 L6,334 L4,334 L4,336 L-2,336 L-2,340 L-4,340 L-4,344 L-8,344 L-8,348 L-14,348 L-14,350 L-16,350 L-16,352 L-21,356 L-22,358 L-26,358 L-26,360 L-28,360 L-28,362 L-32,362 L-32,364 L-36,364 L-36,366 L-38,366 L-38,370 L-40,370 L-40,372 L-44,372 L-44,374 L-46,374 L-46,376 L-52,376 L-52,378 L-54,378 L-54,380 L-66,380 L-66,382 L-78,382 L-78,384 L-100,384 L-100,386 L-104,386 L-104,388 L-106,388 L-106,390 L-110,390 L-110,392 L-120,392 L-120,394 L-140,394 L-140,392 L-144,392 L-144,394 L-168,394 L-168,396 L-176,396 L-176,394 L-190,394 L-190,390 L-192,390 L-192,388 L-196,388 L-196,386 L-200,386 L-200,384 L-208,384 L-208,382 L-232,382 L-232,380 L-246,380 L-246,378 L-256,378 L-256,376 L-262,376 L-262,374 L-268,374 L-268,372 L-272,372 L-272,370 L-276,370 L-276,368 L-280,368 L-280,366 L-286,366 L-286,364 L-291,363 L-292,360 L-296,360 L-296,358 L-304,358 L-304,354 L-306,354 L-308,349 L-312,346 L-313,336 L-320,330 L-320,312 L-324,312 L-324,300 L-326,300 L-326,296 L-328,296 L-328,292 L-332,292 L-334,287 L-338,284 L-338,280 L-340,280 L-340,274 L-342,274 L-342,266 L-344,266 L-344,236 L-346,236 L-346,226 L-344,226 L-344,212 L-342,212 L-341,207 L-338,204 L-336,204 L-336,202 L-328,202 L-328,200 L-326,200 L-325,195 L-322,194 L-322,192 L-318,192 L-318,190 L-316,190 L-316,178 L-312,178 L-312,176 L-310,176 L-310,172 L-308,172 L-308,162 L-306,162 L-306,158 L-304,158 L-304,154 L-302,154 L-301,149 L-296,144 L-294,144 L-294,142 L-292,142 L-292,138 L-290,138 L-290,136 L-288,136 L-288,132 L-284,132 L-284,126 L-280,126 L-280,112 L-276,112 L-276,110 L-270,110 L-270,112 L-260,112 L-260,114 L-256,114 L-256,120 L-254,120 L-254,122 L-252,122 L-252,128 L-248,128 L-246,131 L-210,132 L-208,135 L-196,136 L-196,138 L-184,138 L-184,140 L-182,140 L-182,138 L-148,138 L-148,136 L-126,136 L-126,134 L-124,134 L-124,132 L-120,132 L-120,128 L-118,128 L-118,126 L-114,126 L-114,124 L-112,124 L-112,118 L-110,118 L-110,114 L-108,114 L-108,108 L-106,108 L-106,104 L-102,104 L-102,100 L-98,100 L-98,98 L-96,98 L-96,96 L-92,96 L-92,92 L-90,92 L-90,90 L-88,90 L-88,84 L-90,84 L-90,76 L-88,76 L-88,74 L-86,74 L-86,70 L-84,70 L-84,68 L-82,68 L-82,64 L-80,64 L-80,58 L-78,58 L-78,54 L-76,54 L-76,42 L-74,42 L-74,40 L-72,40 L-72,32 L-68,30 L-68,28 L-64,28 L-64,26 L-56,26 L-56,24 L-54,24 L-54,22 L-52,22 L-52,16 L-48,12 L-46,12 L-46,10 L-44,10 L-44,8 L-36,8 L-36,6 L-28,6 L-28,4 L-20,4 L-20,2 L0,2 Z M-10,7 L-11,8 L-22,10 L-22,12 L-34,12 L-34,14 L-36,14 L-36,17 L-38,17 L-41,20 L-46,21 L-48,22 L-48,24 L-51,25 L-51,27 L-53,27 L-53,25 L-63,27 L-64,29 L-67,29 L-67,31 L-65,31 L-65,33 L-67,33 L-69,43 L-71,43 L-71,41 L-73,41 L-73,68 L-75,68 L-78,76 L-78,79 L-82,80 L-83,92 L-84,96 L-86,108 L-88,118 L-86,118 L-89,124 L-89,128 L-91,129 L-90,132 L-90,142 L-93,141 L-96,144 L-102,146 L-104,149 L-104,153 L-106,153 L-106,156 L-109,155 L-110,160 L-122,161 L-154,161 L-155,159 L-160,158 L-160,160 L-164,161 L-164,158 L-170,158 L-170,161 L-176,160 L-182,160 L-186,159 L-186,161 L-190,160 L-202,161 L-200,155 L-198,153 L-196,147 L-195,144 L-202,142 L-202,144 L-212,145 L-214,146 L-214,143 L-210,143 L-211,137 L-222,138 L-222,136 L-232,137 L-234,136 L-246,136 L-251,132 L-253,132 L-253,129 L-255,128 L-257,123 L-259,123 L-260,118 L-263,116 L-273,114 L-276,117 L-276,122 L-274,122 L-274,130 L-278,130 L-279,133 L-286,139 L-294,149 L-299,155 L-301,160 L-304,166 L-304,168 L-302,168 L-306,178 L-309,182 L-310,189 L-306,188 L-308,192 L-307,194 L-298,193 L-298,196 L-301,197 L-297,200 L-303,205 L-300,207 L-299,208 L-305,213 L-308,218 L-309,219 L-310,210 L-314,212 L-318,212 L-319,213 L-319,220 L-319,222 L-322,230 L-323,232 L-321,233 L-321,242 L-319,242 L-321,250 L-319,250 L-319,270 L-318,278 L-316,278 L-317,285 L-315,290 L-313,291 L-312,298 L-310,298 L-310,305 L-312,305 L-312,314 L-309,314 L-307,328 L-302,329 L-303,338 L-299,339 L-298,344 L-294,344 L-294,346 L-291,349 L-284,351 L-279,354 L-278,357 L-268,362 L-257,365 L-255,367 L-244,369 L-239,368 L-237,375 L-227,377 L-204,378 L-188,381 L-187,382 L-173,383 L-172,385 L-152,385 L-151,384 L-140,383 L-138,384 L-122,383 L-121,382 L-108,381 L-102,379 L-86,378 L-83,375 L-73,374 L-70,371 L-62,369 L-62,365 L-58,363 L-50,359 L-48,355 L-40,355 L-31,348 L-24,346 L-21,340 L-14,331 L-12,330 L-12,327 L-8,326 L-7,322 L-10,322 L-9,320 L-5,318 L-1,305 L4,299 L4,294 L7,294 L10,290 L10,288 L12,288 L13,280 L16,279 L21,273 L23,272 L25,262 L27,262 L29,257 L32,234 L32,230 L35,230 L36,227 L38,226 L39,219 L40,216 L39,213 L43,208 L43,194 L42,186 L46,187 L47,178 L45,178 L43,174 L43,172 L45,172 L46,166 L46,157 L45,148 L43,149 L45,143 L52,139 L52,137 L60,137 L62,130 L64,130 L65,85 L64,82 L62,66 L59,59 L58,50 L55,50 L51,50 L49,32 L47,28 L45,28 L44,24 L38,23 L38,18 L36,18 L36,16 L33,16 L33,13 L28,13 L28,10 L25,9 L10,8 L2,7 Z M-89,118 Z M-308,194 Z M-298,155 Z M-298,192 Z M-296,208 Z M-316,218 Z M-317,219 Z " fill="#BF8D79" transform="translate(650,334)"/>
<path d="M0,0 L17,0 L20,1 L35,2 L38,3 L38,6 L43,6 L43,9 L46,9 L46,11 L48,11 L48,16 L54,17 L55,21 L58,22 L59,25 L60,38 L61,43 L65,43 L68,43 L69,52 L72,59 L74,75 L75,83 L74,123 L72,123 L70,130 L62,130 L62,132 L55,136 L53,142 L55,141 L56,155 L56,163 L55,165 L53,165 L54,169 L55,171 L57,171 L56,180 L52,179 L53,187 L53,201 L49,207 L50,211 L49,212 L48,219 L46,220 L45,223 L42,223 L41,237 L39,250 L37,255 L35,255 L33,265 L27,270 L25,273 L23,273 L22,281 L21,281 L20,266 L22,259 L23,255 L25,255 L27,251 L30,243 L32,239 L34,235 L36,235 L37,221 L40,213 L41,205 L43,205 L43,136 L54,126 L60,123 L64,119 L66,115 L66,75 L64,73 L64,69 L61,69 L60,66 L62,63 L62,56 L60,56 L59,52 L58,43 L55,34 L52,33 L52,31 L48,30 L44,26 L43,23 L32,19 L26,16 L18,16 L15,18 L11,17 L7,14 L2,13 L2,11 L-14,13 L-14,15 L-24,16 L-24,18 L-27,21 L-30,22 L-37,22 L-38,26 L-42,28 L-43,40 L-46,47 L-47,57 L-47,65 L-48,67 L-53,67 L-53,69 L-55,69 L-55,71 L-59,71 L-60,77 L-61,83 L-63,83 L-61,101 L-63,107 L-67,111 L-68,113 L-71,113 L-76,121 L-77,137 L-81,142 L-82,146 L-85,149 L-86,152 L-92,154 L-96,156 L-96,154 L-99,155 L-100,159 L-104,159 L-105,157 L-111,161 L-114,164 L-126,164 L-126,162 L-128,162 L-128,164 L-144,162 L-144,164 L-148,164 L-149,167 L-153,168 L-160,168 L-160,164 L-162,164 L-161,167 L-164,171 L-168,169 L-192,169 L-192,172 L-199,172 L-201,174 L-208,174 L-209,169 L-216,170 L-215,168 L-212,167 L-204,167 L-204,163 L-208,161 L-206,160 L-206,157 L-212,156 L-211,154 L-204,152 L-204,154 L-196,153 L-178,153 L-176,154 L-176,152 L-166,153 L-160,154 L-160,151 L-154,151 L-154,154 L-150,153 L-150,151 L-145,152 L-144,154 L-112,154 L-100,153 L-99,148 L-96,149 L-96,146 L-94,146 L-93,141 L-91,138 L-85,137 L-82,134 L-80,135 L-80,124 L-81,121 L-79,121 L-78,115 L-76,111 L-78,111 L-76,101 L-74,89 L-72,73 L-68,72 L-67,67 L-65,61 L-63,61 L-63,34 L-61,34 L-61,36 L-59,36 L-57,26 L-55,26 L-55,24 L-57,24 L-57,22 L-53,22 L-53,20 L-46,19 L-43,18 L-43,20 L-41,20 L-40,17 L-38,17 L-38,15 L-32,13 L-29,12 L-28,10 L-26,10 L-26,7 L-24,7 L-24,5 L-12,5 L-12,3 L-1,1 Z M-79,111 Z " fill="#C98677" transform="translate(640,341)"/>
<path d="M0,0 L8,0 L8,1 L1,1 L1,3 L3,4 L-3,3 L-3,5 L-1,5 L-1,7 L-3,7 L-5,17 L-7,17 L-7,15 L-9,15 L-8,17 L-8,29 L-9,42 L-11,42 L-12,48 L-14,53 L-17,54 L-18,66 L-19,70 L-21,82 L-24,92 L-22,92 L-25,102 L-25,106 L-25,114 L-26,116 L-29,116 L-32,119 L-37,120 L-40,127 L-42,127 L-42,130 L-45,130 L-46,134 L-48,135 L-58,136 L-90,136 L-96,132 L-95,135 L-100,135 L-100,132 L-106,132 L-106,135 L-118,135 L-122,133 L-122,135 L-138,135 L-138,130 L-135,127 L-133,121 L-133,118 L-138,116 L-138,118 L-150,120 L-150,117 L-146,117 L-147,111 L-149,112 L-158,112 L-158,110 L-162,112 L-168,112 L-170,111 L-182,111 L-189,106 L-189,103 L-192,102 L-193,98 L-195,97 L-197,92 L-209,89 L-211,91 L-212,96 L-210,96 L-210,104 L-214,104 L-215,108 L-221,113 L-229,123 L-234,129 L-236,134 L-240,142 L-238,142 L-239,147 L-242,153 L-244,156 L-245,160 L-246,163 L-242,162 L-242,166 L-244,170 L-254,176 L-256,176 L-256,178 L-258,178 L-258,181 L-262,185 L-266,185 L-267,183 L-271,189 L-273,193 L-274,207 L-271,217 L-271,220 L-273,221 L-273,229 L-274,235 L-271,237 L-272,247 L-269,254 L-269,257 L-267,257 L-264,261 L-264,263 L-267,263 L-267,265 L-264,266 L-268,266 L-270,261 L-274,258 L-274,254 L-276,254 L-276,248 L-278,248 L-278,240 L-280,240 L-280,210 L-282,210 L-282,200 L-280,200 L-280,186 L-278,186 L-277,181 L-274,178 L-272,178 L-272,176 L-264,176 L-264,174 L-262,174 L-261,169 L-258,168 L-258,166 L-254,166 L-254,164 L-252,164 L-252,152 L-248,152 L-248,150 L-246,150 L-246,146 L-244,146 L-244,136 L-242,136 L-242,132 L-240,132 L-240,128 L-238,128 L-237,123 L-232,118 L-230,118 L-230,116 L-228,116 L-228,112 L-226,112 L-226,110 L-224,110 L-224,106 L-220,106 L-220,100 L-216,100 L-216,86 L-212,86 L-212,84 L-206,84 L-206,86 L-196,86 L-196,88 L-192,88 L-192,94 L-190,94 L-190,96 L-188,96 L-188,102 L-184,102 L-182,105 L-146,106 L-144,109 L-132,110 L-132,112 L-120,112 L-120,114 L-118,114 L-118,112 L-84,112 L-84,110 L-62,110 L-62,108 L-60,108 L-60,106 L-56,106 L-56,102 L-54,102 L-54,100 L-50,100 L-50,98 L-48,98 L-48,92 L-46,92 L-46,88 L-44,88 L-44,82 L-42,82 L-42,78 L-38,78 L-38,74 L-34,74 L-34,72 L-32,72 L-32,70 L-28,70 L-28,66 L-26,66 L-26,64 L-24,64 L-24,58 L-26,58 L-26,50 L-24,50 L-24,48 L-22,48 L-22,44 L-20,44 L-20,42 L-18,42 L-18,38 L-16,38 L-16,32 L-14,32 L-14,28 L-12,28 L-12,16 L-10,16 L-10,14 L-8,14 L-8,6 L-4,4 L-4,2 L0,2 Z M-25,92 Z M-275,226 Z M-234,129 Z " fill="#C2886B" transform="translate(586,360)"/>
<path d="M0,0 L1,0 L2,14 L1,16 L3,16 L0,25 L1,37 L4,40 L1,42 L2,48 L1,50 L3,51 L2,53 L6,54 L4,59 L10,58 L12,58 L11,54 L14,54 L12,46 L14,45 L13,39 L13,31 L15,31 L15,23 L17,26 L17,51 L19,51 L20,56 L19,61 L21,65 L18,65 L16,73 L19,74 L18,75 L18,80 L20,80 L21,77 L20,83 L22,83 L22,80 L26,80 L24,74 L28,73 L31,74 L32,72 L34,80 L36,80 L34,85 L36,87 L37,90 L47,93 L49,94 L49,96 L54,98 L54,101 L62,100 L64,101 L64,103 L69,105 L82,108 L92,109 L104,109 L117,111 L146,111 L164,110 L165,108 L169,108 L171,106 L171,108 L184,108 L187,109 L194,108 L201,108 L206,105 L206,103 L210,102 L212,103 L212,98 L202,96 L202,95 L216,94 L221,92 L224,93 L224,90 L228,90 L228,92 L245,91 L248,91 L249,87 L246,81 L244,79 L248,76 L252,77 L255,75 L258,75 L258,73 L260,73 L260,71 L262,71 L261,60 L263,58 L266,58 L266,50 L269,50 L269,52 L273,50 L275,57 L270,62 L269,66 L268,70 L271,71 L270,75 L275,74 L274,77 L267,82 L265,86 L261,88 L256,93 L251,94 L250,98 L251,104 L248,107 L246,107 L245,110 L240,113 L227,113 L227,111 L211,112 L204,114 L204,120 L202,120 L202,122 L199,121 L190,124 L178,127 L164,128 L118,128 L114,127 L114,125 L104,123 L104,121 L94,120 L80,119 L79,117 L84,117 L59,112 L49,110 L38,106 L37,103 L31,103 L31,99 L29,99 L29,96 L22,95 L16,91 L15,89 L14,74 L10,73 L10,70 L7,71 L6,66 L5,63 L3,62 L2,54 L-1,55 L-4,39 L-4,29 L-6,27 L-6,23 L-9,23 L-10,25 L-10,18 L-8,15 L-6,18 L-4,9 L-2,9 L-2,5 L-4,5 L-4,3 L-1,2 Z M250,86 Z M247,98 L244,102 L248,101 L249,98 Z " fill="#D69E83" transform="translate(346,586)"/>
<path d="M0,0 L10,0 L10,2 L16,2 L16,4 L26,4 L26,6 L34,6 L34,8 L38,8 L38,10 L42,10 L42,12 L46,12 L46,14 L48,14 L48,20 L52,22 L54,26 L56,26 L56,30 L58,30 L58,32 L60,32 L60,36 L62,36 L62,40 L64,40 L64,44 L66,44 L66,48 L68,48 L68,56 L70,56 L70,62 L72,62 L72,64 L74,64 L74,74 L76,74 L76,88 L78,88 L78,100 L76,100 L76,112 L74,112 L74,132 L72,132 L72,134 L70,134 L70,138 L68,138 L68,168 L66,168 L66,190 L64,190 L64,198 L62,198 L62,204 L60,204 L60,210 L58,210 L58,212 L56,212 L56,216 L54,216 L54,218 L52,218 L52,230 L50,230 L50,238 L48,238 L48,260 L46,260 L46,266 L42,266 L42,268 L38,268 L38,274 L36,274 L35,276 L31,269 L31,262 L33,258 L33,246 L35,244 L37,240 L39,243 L43,238 L46,226 L47,196 L48,194 L48,188 L46,184 L47,178 L44,179 L42,177 L43,172 L45,172 L45,157 L44,149 L42,150 L43,146 L46,141 L52,139 L52,137 L60,136 L62,130 L64,130 L64,85 L63,82 L61,66 L58,59 L57,50 L53,52 L53,50 L51,50 L49,45 L48,32 L47,29 L45,28 L44,25 L38,23 L38,18 L36,18 L36,16 L33,16 L33,13 L28,13 L28,10 L10,9 L2,8 L-10,8 L-11,9 L-22,10 L-22,12 L-24,13 L-34,12 L-34,14 L-36,14 L-36,17 L-38,17 L-39,20 L-48,22 L-48,24 L-51,27 L-53,27 L-53,25 L-56,26 L-56,24 L-54,24 L-54,22 L-52,22 L-52,16 L-48,12 L-46,12 L-46,10 L-44,10 L-44,8 L-36,8 L-36,6 L-28,6 L-28,4 L-20,4 L-20,2 L0,2 Z " fill="#BE7B6B" transform="translate(650,334)"/>
<path d="M0,0 L7,0 L6,12 L1,17 L0,22 L-1,23 L1,25 L-2,30 L-5,40 L-9,42 L-10,44 L-7,45 L-8,48 L-12,49 L-12,52 L-17,57 L-22,63 L-25,69 L-32,71 L-40,77 L-48,77 L-51,81 L-59,86 L-62,87 L-62,91 L-71,94 L-73,96 L-83,97 L-86,100 L-102,101 L-108,103 L-121,104 L-122,105 L-138,106 L-142,105 L-151,106 L-152,107 L-172,107 L-173,105 L-187,104 L-194,102 L-204,100 L-227,99 L-237,97 L-239,90 L-246,91 L-255,89 L-257,87 L-270,83 L-278,79 L-280,75 L-285,72 L-291,71 L-294,68 L-294,66 L-298,66 L-299,61 L-303,60 L-302,51 L-307,50 L-309,36 L-312,36 L-312,27 L-310,27 L-309,13 L-307,13 L-305,25 L-304,28 L-302,28 L-301,36 L-298,37 L-297,44 L-294,44 L-293,47 L-290,48 L-288,63 L-285,66 L-282,68 L-275,70 L-275,73 L-273,73 L-273,77 L-267,77 L-264,80 L-252,84 L-228,88 L-218,91 L-218,92 L-224,92 L-210,93 L-200,95 L-200,97 L-194,97 L-190,99 L-190,101 L-140,101 L-120,99 L-112,96 L-103,94 L-102,94 L-100,88 L-93,85 L-77,85 L-77,87 L-64,86 L-59,83 L-54,78 L-55,71 L-53,67 L-47,65 L-44,64 L-42,60 L-39,60 L-37,55 L-27,48 L-25,44 L-22,44 L-23,38 L-22,36 L-27,39 L-29,39 L-27,35 L-23,33 L-22,28 L-22,15 L-18,14 L-16,15 L-18,27 L-16,29 L-19,33 L-13,32 L-14,22 L-12,16 L-6,16 L-6,8 L-4,4 L0,4 Z M-21,34 Z M-57,72 L-55,73 L-57,76 L-60,75 Z " fill="#CA937B" transform="translate(650,612)"/>
<path d="M0,0 L11,0 L21,1 L21,3 L25,3 L25,5 L29,5 L29,7 L32,8 L36,18 L48,19 L48,34 L50,34 L51,53 L52,54 L53,67 L56,72 L57,95 L55,101 L50,101 L48,105 L43,105 L43,108 L38,108 L36,113 L33,118 L31,118 L31,120 L27,121 L31,112 L33,106 L39,102 L43,101 L47,100 L48,96 L50,96 L52,88 L50,88 L50,93 L48,93 L49,79 L47,78 L47,76 L49,76 L49,73 L47,73 L47,51 L46,47 L43,49 L43,44 L35,46 L37,40 L43,40 L43,37 L40,36 L39,29 L36,29 L34,33 L33,29 L33,19 L32,16 L24,17 L16,17 L16,15 L13,14 L13,11 L11,11 L11,14 L7,15 L5,14 L5,16 L-9,17 L-19,17 L-20,15 L-27,16 L-33,20 L-34,22 L-37,22 L-38,26 L-42,38 L-42,49 L-45,54 L-46,64 L-48,68 L-50,88 L-53,89 L-55,88 L-56,92 L-60,100 L-64,102 L-68,110 L-72,120 L-75,125 L-79,127 L-80,135 L-81,139 L-86,145 L-90,152 L-96,155 L-107,155 L-112,154 L-113,156 L-115,156 L-116,154 L-121,156 L-125,154 L-130,153 L-134,151 L-135,153 L-137,153 L-137,150 L-131,148 L-125,148 L-124,147 L-117,147 L-114,144 L-109,144 L-109,149 L-101,148 L-99,143 L-91,144 L-91,138 L-89,138 L-89,135 L-86,133 L-84,129 L-83,129 L-81,121 L-79,121 L-79,119 L-77,119 L-76,103 L-73,102 L-71,96 L-69,96 L-67,92 L-66,86 L-64,86 L-64,70 L-59,64 L-55,64 L-51,58 L-48,40 L-44,28 L-42,28 L-41,21 L-40,18 L-32,16 L-29,11 L-27,9 L-29,8 L-27,4 L-23,3 L-14,2 L-13,1 Z M34,46 Z " fill="#DF9B8C" transform="translate(645,360)"/>
<path d="M0,0 L5,0 L7,2 L7,8 L6,10 L5,40 L1,54 L-4,58 L-5,56 L-8,60 L-8,72 L-10,76 L-10,83 L-7,88 L-8,100 L-10,100 L-10,108 L-12,108 L-12,112 L-14,112 L-14,114 L-16,114 L-16,118 L-18,118 L-18,120 L-20,120 L-20,126 L-24,126 L-24,130 L-26,130 L-26,142 L-28,142 L-28,144 L-32,144 L-32,146 L-36,146 L-36,148 L-38,148 L-38,150 L-44,150 L-44,154 L-46,154 L-46,158 L-50,158 L-50,162 L-56,162 L-56,164 L-58,164 L-58,166 L-63,170 L-64,172 L-68,172 L-68,174 L-70,174 L-70,176 L-74,176 L-74,178 L-78,178 L-78,180 L-80,180 L-80,184 L-82,184 L-82,186 L-86,186 L-86,188 L-88,188 L-88,190 L-94,190 L-94,192 L-96,192 L-96,194 L-108,194 L-108,193 L-99,192 L-95,191 L-96,188 L-89,189 L-89,187 L-94,187 L-92,186 L-91,182 L-88,182 L-89,181 L-94,182 L-93,179 L-87,177 L-87,175 L-82,176 L-81,171 L-76,163 L-73,161 L-67,160 L-64,154 L-56,144 L-54,144 L-54,141 L-50,140 L-50,137 L-52,136 L-51,133 L-48,132 L-44,119 L-39,113 L-38,108 L-35,108 L-33,104 L-32,102 L-30,102 L-29,94 L-24,89 L-21,86 L-19,86 L-17,76 L-15,76 L-13,62 L-10,44 L-7,44 L-6,40 L-4,40 L-4,33 L-3,30 L-4,27 L0,22 Z " fill="#C98678" transform="translate(692,520)"/>
<path d="M0,0 L2,1 L1,3 L-2,4 L-9,4 L-10,8 L-14,10 L-15,22 L-18,29 L-19,39 L-19,47 L-20,49 L-25,49 L-25,51 L-27,51 L-27,53 L-31,53 L-32,59 L-33,65 L-35,65 L-33,83 L-35,89 L-39,93 L-40,95 L-43,95 L-48,103 L-49,119 L-53,124 L-54,128 L-57,131 L-58,134 L-64,136 L-68,138 L-68,136 L-71,137 L-72,141 L-76,141 L-77,139 L-83,143 L-86,146 L-98,146 L-98,144 L-100,144 L-100,146 L-116,144 L-116,146 L-120,146 L-121,149 L-125,150 L-132,150 L-132,146 L-134,146 L-133,149 L-136,153 L-140,151 L-164,151 L-164,154 L-171,154 L-173,156 L-180,156 L-181,151 L-188,152 L-187,150 L-184,149 L-176,149 L-176,145 L-180,143 L-178,142 L-178,139 L-184,138 L-183,136 L-176,134 L-176,136 L-168,135 L-150,135 L-148,136 L-148,134 L-138,135 L-132,136 L-132,133 L-126,133 L-126,136 L-122,135 L-122,133 L-117,134 L-116,136 L-84,136 L-72,135 L-71,130 L-68,131 L-68,128 L-66,128 L-65,123 L-63,120 L-57,119 L-54,116 L-52,117 L-52,106 L-53,103 L-51,103 L-50,97 L-48,93 L-50,93 L-50,91 L-48,91 L-46,86 L-45,85 L-40,85 L-40,68 L-38,67 L-38,61 L-36,61 L-34,54 L-32,54 L-32,33 L-31,25 L-30,21 L-24,19 L-20,20 L-19,15 L-15,4 L-11,2 L-2,1 Z M-51,93 Z " fill="#CD9272" transform="translate(612,359)"/>
<path d="M0,0 L8,0 L8,2 L15,3 L18,6 L22,5 L24,4 L32,4 L42,9 L50,12 L50,15 L54,17 L55,19 L54,24 L56,24 L56,27 L46,27 L42,16 L40,15 L40,13 L36,13 L36,11 L32,11 L32,9 L11,9 L-2,10 L-6,12 L-14,12 L-18,16 L-15,17 L-19,21 L-21,25 L-29,26 L-31,36 L-33,36 L-36,48 L-39,66 L-44,73 L-48,74 L-52,78 L-53,94 L-55,94 L-55,100 L-60,105 L-62,110 L-64,111 L-66,127 L-68,127 L-68,129 L-70,129 L-71,137 L-73,138 L-76,143 L-78,143 L-78,146 L-80,146 L-80,152 L-88,152 L-90,156 L-92,157 L-98,157 L-98,152 L-104,154 L-107,156 L-113,156 L-116,157 L-124,158 L-137,158 L-136,160 L-138,160 L-137,164 L-154,164 L-154,162 L-160,163 L-163,162 L-169,164 L-170,163 L-180,163 L-180,160 L-184,161 L-188,165 L-188,163 L-191,162 L-191,161 L-186,161 L-186,158 L-176,157 L-162,157 L-158,159 L-156,155 L-156,153 L-154,153 L-154,157 L-145,156 L-144,154 L-143,155 L-142,153 L-138,153 L-138,151 L-122,153 L-122,151 L-120,151 L-120,153 L-114,152 L-106,152 L-104,148 L-98,145 L-98,148 L-94,146 L-93,143 L-89,144 L-85,141 L-80,141 L-79,136 L-76,135 L-75,130 L-72,126 L-71,110 L-66,101 L-62,102 L-60,97 L-57,96 L-57,91 L-56,88 L-57,82 L-57,72 L-55,72 L-55,66 L-53,60 L-49,60 L-49,58 L-47,58 L-47,56 L-42,56 L-42,40 L-39,30 L-38,29 L-36,17 L-32,14 L-31,11 L-21,10 L-20,7 L-18,7 L-18,5 L-8,4 L-8,2 Z M-180,158 Z " fill="#D4968A" transform="translate(634,352)"/>
<path d="M0,0 L1,0 L2,14 L1,16 L3,16 L0,25 L1,37 L4,40 L1,42 L2,48 L1,50 L3,51 L2,53 L6,54 L4,59 L10,58 L12,58 L11,54 L14,54 L12,46 L14,45 L13,39 L13,31 L15,31 L15,23 L17,26 L17,51 L19,51 L20,56 L19,61 L21,65 L18,65 L16,73 L19,74 L18,75 L18,80 L20,80 L21,77 L20,83 L22,83 L22,80 L26,80 L29,87 L29,90 L32,91 L35,96 L38,97 L38,102 L49,103 L49,107 L64,108 L70,110 L70,112 L98,113 L113,115 L120,117 L121,119 L128,121 L128,123 L140,123 L148,121 L166,120 L168,119 L174,120 L175,119 L180,119 L180,121 L185,116 L190,117 L191,112 L215,108 L225,107 L227,108 L236,109 L236,107 L246,108 L245,110 L240,113 L227,113 L227,111 L211,112 L204,114 L204,120 L202,120 L202,122 L199,121 L190,124 L178,127 L164,128 L118,128 L114,127 L114,125 L104,123 L104,121 L94,120 L80,119 L79,117 L84,117 L59,112 L49,110 L38,106 L37,103 L31,103 L31,99 L29,99 L29,96 L22,95 L16,91 L15,89 L14,74 L10,73 L10,70 L7,71 L6,66 L5,63 L3,62 L2,54 L-1,55 L-4,39 L-4,29 L-6,27 L-6,23 L-9,23 L-10,25 L-10,18 L-8,15 L-6,18 L-4,9 L-2,9 L-2,5 L-4,5 L-4,3 L-1,2 Z M241,108 Z " fill="#D49D84" transform="translate(346,586)"/>
<path d="M0,0 Z M-4,1 L0,1 L0,4 L-2,5 L2,7 L-3,12 L-4,13 L2,17 L0,19 L-2,17 L-6,21 L-9,26 L-12,28 L-13,19 L-17,21 L-17,19 L-20,21 L-21,28 L-19,29 L-21,31 L-23,38 L-23,40 L-22,41 L-23,50 L-21,50 L-22,57 L-21,58 L-20,72 L-20,86 L-18,86 L-18,93 L-14,99 L-13,105 L-16,109 L-21,101 L-21,90 L-25,89 L-25,97 L-27,98 L-33,93 L-33,91 L-35,91 L-39,81 L-38,71 L-41,69 L-40,60 L-40,55 L-37,54 L-39,49 L-41,41 L-40,25 L-36,20 L-32,16 L-32,19 L-28,18 L-26,15 L-24,15 L-24,12 L-22,12 L-22,10 L-10,3 Z M2,16 Z M-18,26 Z M-19,27 Z M-41,60 Z " fill="#C28973" transform="translate(352,526)"/>
<path d="M0,0 L6,0 L6,2 L16,2 L16,4 L20,4 L20,10 L22,10 L22,12 L24,12 L24,18 L28,18 L30,21 L66,22 L68,25 L80,26 L80,28 L92,28 L91,30 L80,29 L79,32 L79,30 L68,30 L68,29 L79,29 L79,27 L68,28 L65,29 L65,27 L63,28 L54,28 L54,26 L50,28 L44,28 L42,27 L30,27 L23,22 L23,19 L20,18 L19,14 L17,13 L15,8 L3,5 L1,7 L0,12 L2,12 L2,20 L-2,20 L-3,24 L-9,29 L-17,39 L-22,45 L-24,50 L-28,58 L-26,58 L-27,63 L-30,69 L-32,72 L-33,76 L-34,79 L-30,78 L-30,82 L-32,86 L-42,92 L-44,92 L-44,94 L-46,94 L-46,97 L-50,101 L-54,101 L-55,99 L-59,105 L-61,109 L-62,123 L-59,133 L-59,136 L-61,137 L-61,145 L-62,151 L-59,153 L-60,163 L-57,170 L-57,173 L-55,173 L-52,177 L-52,179 L-55,179 L-55,181 L-52,182 L-56,182 L-58,177 L-62,174 L-62,170 L-64,170 L-64,164 L-66,164 L-66,156 L-68,156 L-68,126 L-70,126 L-70,116 L-68,116 L-68,102 L-66,102 L-65,97 L-62,94 L-60,94 L-60,92 L-52,92 L-52,90 L-50,90 L-49,85 L-46,84 L-46,82 L-42,82 L-42,80 L-40,80 L-40,68 L-36,68 L-36,66 L-34,66 L-34,62 L-32,62 L-32,52 L-30,52 L-30,48 L-28,48 L-28,44 L-26,44 L-25,39 L-20,34 L-18,34 L-18,32 L-16,32 L-16,28 L-14,28 L-14,26 L-12,26 L-12,22 L-8,22 L-8,16 L-4,16 L-4,2 L0,2 Z M-63,142 Z M-22,45 Z " fill="#BD846F" transform="translate(374,444)"/>
<path d="M0,0 L1,4 L1,9 L7,9 L9,8 L9,24 L10,28 L9,33 L9,47 L7,51 L2,53 L-2,53 L-3,57 L-3,69 L-2,73 L-5,83 L-7,93 L-7,121 L-11,127 L-14,127 L-14,132 L-16,135 L-20,134 L-18,131 L-17,127 L-13,123 L-12,112 L-18,111 L-18,115 L-22,115 L-22,117 L-24,117 L-24,114 L-26,113 L-26,109 L-24,109 L-24,80 L-20,73 L-22,72 L-23,64 L-22,63 L-15,63 L-12,60 L-11,61 L-11,54 L-8,53 L-6,49 L-6,46 L-8,47 L-7,34 L-8,27 L-6,25 L-5,19 L-7,19 L-7,11 L-5,11 L-2,2 Z M-23,73 Z M-25,117 Z " fill="#DF9887" transform="translate(668,501)"/>
<path d="M0,0 L8,0 L8,1 L1,1 L1,3 L3,4 L-3,3 L-3,5 L-1,5 L-1,7 L-3,7 L-5,17 L-7,17 L-7,15 L-9,15 L-8,17 L-8,29 L-9,42 L-11,42 L-12,48 L-14,53 L-17,54 L-18,66 L-19,70 L-21,82 L-24,92 L-22,92 L-25,102 L-28,104 L-40,105 L-42,108 L-38,108 L-38,112 L-43,117 L-48,117 L-48,114 L-52,116 L-57,116 L-57,112 L-60,114 L-60,117 L-76,117 L-100,116 L-100,115 L-84,115 L-84,113 L-118,114 L-118,112 L-84,112 L-84,110 L-62,110 L-62,108 L-60,108 L-60,106 L-56,106 L-56,102 L-54,102 L-54,100 L-50,100 L-50,98 L-48,98 L-48,92 L-46,92 L-46,88 L-44,88 L-44,82 L-42,82 L-42,78 L-38,78 L-38,74 L-34,74 L-34,72 L-32,72 L-32,70 L-28,70 L-28,66 L-26,66 L-26,64 L-24,64 L-24,58 L-26,58 L-26,50 L-24,50 L-24,48 L-22,48 L-22,44 L-20,44 L-20,42 L-18,42 L-18,38 L-16,38 L-16,32 L-14,32 L-14,28 L-12,28 L-12,16 L-10,16 L-10,14 L-8,14 L-8,6 L-4,4 L-4,2 L0,2 Z M-25,92 Z M-59,107 L-59,109 L-54,110 L-53,108 Z M-53,107 Z " fill="#C08469" transform="translate(586,360)"/>
<path d="M0,0 L2,0 L3,7 L0,12 L-1,22 L-3,26 L-5,46 L-8,47 L-10,46 L-11,50 L-15,58 L-19,60 L-23,68 L-27,78 L-30,83 L-34,85 L-35,93 L-36,97 L-41,103 L-45,110 L-51,113 L-62,113 L-67,112 L-68,114 L-70,114 L-71,112 L-76,114 L-80,112 L-85,111 L-89,109 L-90,111 L-92,111 L-92,108 L-86,106 L-80,106 L-79,105 L-72,105 L-69,102 L-64,102 L-64,107 L-56,106 L-54,101 L-46,102 L-46,96 L-44,96 L-44,93 L-41,91 L-39,87 L-38,87 L-36,79 L-34,79 L-34,77 L-32,77 L-31,61 L-28,60 L-26,54 L-24,54 L-22,50 L-21,44 L-19,44 L-19,28 L-14,22 L-10,22 L-6,16 L-3,2 L0,2 Z " fill="#D89D7E" transform="translate(600,402)"/>
<path d="M0,0 L2,0 L3,3 L5,4 L5,6 L14,5 L16,7 L12,8 L5,8 L6,12 L-7,14 L-10,15 L-10,12 L-16,12 L-16,9 L-19,10 L-19,17 L-24,19 L-28,18 L-29,16 L-31,16 L-32,18 L-39,18 L-42,23 L-46,24 L-47,27 L-45,27 L-44,36 L-47,39 L-49,44 L-52,45 L-52,51 L-55,59 L-55,72 L-58,78 L-60,85 L-64,85 L-66,89 L-70,93 L-74,94 L-75,103 L-78,110 L-80,116 L-81,116 L-80,109 L-82,109 L-81,100 L-77,93 L-74,89 L-71,89 L-69,82 L-66,77 L-61,77 L-60,57 L-58,53 L-57,43 L-54,37 L-54,27 L-50,15 L-48,11 L-45,11 L-43,7 L-36,3 L-31,3 L-30,6 L-10,4 L-6,5 L-6,3 L0,3 Z " fill="#E6A38E" transform="translate(656,371)"/>
<path d="M0,0 L10,0 L10,2 L16,2 L16,4 L26,4 L26,7 L33,7 L34,9 L37,9 L38,11 L41,11 L42,13 L45,13 L45,15 L42,15 L43,21 L47,21 L49,22 L51,23 L51,25 L49,25 L50,29 L55,27 L55,30 L57,31 L57,33 L55,33 L56,36 L61,37 L61,40 L58,40 L60,48 L62,51 L63,60 L65,61 L66,77 L68,87 L66,108 L65,130 L64,130 L64,85 L63,82 L61,66 L58,59 L57,50 L53,52 L53,50 L51,50 L49,45 L48,32 L47,29 L45,28 L44,25 L38,23 L38,18 L36,18 L36,16 L33,16 L33,13 L28,13 L28,10 L10,9 L2,8 L-10,8 L-11,9 L-22,10 L-22,12 L-24,13 L-34,12 L-34,14 L-36,14 L-36,17 L-38,17 L-39,20 L-48,22 L-48,24 L-51,27 L-53,27 L-53,25 L-56,26 L-56,24 L-54,24 L-54,22 L-52,22 L-52,16 L-48,12 L-46,12 L-46,10 L-44,10 L-44,8 L-36,8 L-36,6 L-28,6 L-28,4 L-20,4 L-20,2 L0,2 Z " fill="#C07F6F" transform="translate(650,334)"/>
<path d="M0,0 L6,0 L5,7 L1,7 L1,10 L-4,12 L-6,18 L-6,38 L-8,38 L-8,44 L-13,49 L-15,54 L-17,55 L-19,71 L-21,71 L-21,73 L-23,73 L-24,81 L-26,82 L-29,87 L-31,87 L-31,90 L-33,90 L-33,96 L-41,96 L-43,100 L-45,101 L-51,101 L-51,96 L-57,98 L-60,100 L-66,100 L-69,101 L-77,102 L-90,102 L-89,104 L-91,104 L-90,108 L-107,108 L-107,106 L-113,107 L-116,106 L-122,108 L-123,107 L-133,107 L-133,104 L-137,105 L-141,109 L-141,107 L-144,106 L-144,105 L-139,105 L-139,102 L-129,101 L-115,101 L-111,103 L-109,99 L-109,97 L-107,97 L-107,101 L-98,100 L-97,98 L-96,99 L-95,97 L-91,97 L-91,95 L-75,97 L-75,95 L-73,95 L-73,97 L-67,96 L-59,96 L-57,92 L-51,89 L-51,92 L-47,90 L-46,87 L-42,88 L-38,85 L-33,85 L-32,80 L-29,79 L-28,74 L-25,70 L-24,54 L-19,45 L-15,46 L-13,41 L-10,40 L-10,35 L-9,32 L-10,26 L-10,16 L-8,16 L-8,10 L-6,4 L-2,4 L-2,2 L0,2 Z M-133,102 Z " fill="#D79A78" transform="translate(587,408)"/>
<path d="M0,0 L17,0 L20,1 L35,2 L38,3 L38,6 L43,6 L43,9 L46,9 L46,11 L48,11 L48,16 L54,17 L55,21 L58,22 L59,25 L59,33 L57,29 L55,23 L54,19 L42,16 L41,13 L37,11 L36,8 L27,5 L0,4 L0,6 L-14,8 L-16,10 L-24,12 L-26,18 L-30,20 L-39,21 L-43,22 L-45,31 L-48,38 L-57,39 L-58,43 L-59,51 L-59,69 L-60,72 L-62,73 L-64,79 L-66,79 L-65,85 L-68,86 L-68,103 L-74,105 L-77,109 L-75,93 L-74,86 L-73,85 L-72,73 L-68,72 L-67,67 L-65,61 L-63,61 L-63,34 L-61,34 L-61,36 L-59,36 L-57,26 L-55,26 L-55,24 L-57,24 L-57,22 L-53,22 L-53,20 L-46,19 L-43,18 L-43,20 L-41,20 L-40,17 L-38,17 L-38,15 L-32,13 L-29,12 L-28,10 L-26,10 L-26,7 L-24,7 L-24,5 L-12,5 L-12,3 L-1,1 Z " fill="#C1877A" transform="translate(640,341)"/>
<path d="M0,0 L2,0 L2,2 L10,1 L15,3 L26,4 L26,6 L30,4 L58,4 L58,7 L62,8 L63,5 L73,5 L74,8 L84,9 L89,10 L90,7 L93,6 L95,9 L92,12 L80,12 L80,10 L78,10 L78,12 L62,10 L62,12 L58,12 L57,15 L53,16 L46,16 L46,12 L44,12 L45,15 L42,19 L38,17 L14,17 L14,20 L7,20 L5,22 L-2,22 L-3,17 L-10,18 L-9,16 L-6,15 L2,15 L2,11 L-2,9 L0,8 L0,5 L-6,4 L-5,2 Z " fill="#D19476" transform="translate(434,493)"/>
<path d="M0,0 L7,0 L6,12 L1,17 L0,22 L-1,23 L1,25 L-2,30 L-5,40 L-9,42 L-11,47 L-18,48 L-20,53 L-22,56 L-25,57 L-28,60 L-34,62 L-37,67 L-42,69 L-42,71 L-51,72 L-54,75 L-55,71 L-53,67 L-47,65 L-44,64 L-42,60 L-39,60 L-37,55 L-27,48 L-25,44 L-22,44 L-23,38 L-22,36 L-27,39 L-29,39 L-27,35 L-23,33 L-22,28 L-22,15 L-18,14 L-16,15 L-18,27 L-16,29 L-19,33 L-13,32 L-14,22 L-12,16 L-6,16 L-6,8 L-4,4 L0,4 Z M-21,34 Z M-57,72 L-55,73 L-57,76 L-60,75 Z " fill="#D19379" transform="translate(650,612)"/>
<path d="M0,0 L5,0 L7,2 L7,8 L6,10 L5,40 L1,54 L-4,58 L-5,56 L-8,60 L-8,72 L-10,76 L-10,83 L-7,88 L-7,90 L-9,90 L-9,99 L-13,99 L-12,92 L-15,92 L-15,98 L-17,98 L-17,105 L-18,106 L-26,107 L-28,118 L-30,114 L-28,98 L-26,91 L-21,86 L-19,86 L-17,76 L-15,76 L-13,62 L-10,44 L-7,44 L-6,40 L-4,40 L-4,33 L-3,30 L-4,27 L0,22 Z " fill="#C48277" transform="translate(692,520)"/>
<path d="M0,0 L3,0 L4,2 L4,55 L3,57 L1,57 L1,59 L-7,62 L-8,64 L-13,64 L-13,66 L-15,66 L-15,69 L-20,74 L-22,74 L-22,79 L-19,80 L-17,91 L-15,91 L-16,96 L-19,97 L-18,101 L-21,106 L-19,110 L-19,115 L-20,116 L-21,125 L-19,125 L-18,135 L-21,138 L-19,141 L-21,148 L-25,152 L-27,161 L-28,175 L-31,181 L-34,181 L-35,186 L-37,187 L-40,192 L-43,197 L-45,204 L-47,202 L-45,195 L-44,191 L-42,191 L-40,187 L-37,179 L-35,175 L-33,171 L-31,171 L-30,157 L-27,149 L-26,141 L-24,141 L-24,72 L-13,62 L-7,59 L-3,55 L-1,51 L-1,11 L-3,9 L-3,1 Z " fill="#D08C7A" transform="translate(707,405)"/>
<path d="M0,0 L2,3 L3,8 L5,8 L3,13 L5,15 L6,18 L16,21 L18,22 L18,24 L23,26 L23,29 L31,28 L33,29 L33,31 L38,33 L51,36 L61,37 L73,37 L86,39 L115,39 L133,38 L134,36 L138,36 L140,34 L140,36 L153,36 L152,38 L141,39 L136,42 L133,42 L132,45 L121,46 L120,48 L99,48 L93,46 L91,46 L90,44 L80,42 L53,40 L38,36 L33,34 L27,33 L27,31 L23,32 L19,31 L19,29 L17,29 L15,26 L4,25 L0,19 L-2,18 L-5,12 L-6,5 L-6,2 L-3,1 L0,2 Z " fill="#E0A98E" transform="translate(377,658)"/>
<path d="M0,0 L6,0 L6,2 L16,2 L16,4 L20,4 L20,10 L22,10 L22,12 L24,12 L24,18 L28,18 L30,21 L66,22 L68,25 L80,26 L80,28 L92,28 L91,30 L80,29 L79,32 L79,30 L68,30 L68,29 L79,29 L79,27 L68,28 L65,29 L65,27 L63,28 L54,28 L54,26 L50,28 L44,28 L42,27 L30,27 L23,22 L23,19 L20,18 L19,14 L17,13 L15,8 L3,5 L1,7 L0,12 L2,12 L2,20 L-2,20 L-3,24 L-9,29 L-17,39 L-22,45 L-24,50 L-28,58 L-26,58 L-27,63 L-30,63 L-31,65 L-31,63 L-33,63 L-32,69 L-33,67 L-36,68 L-36,66 L-34,66 L-34,62 L-32,62 L-32,52 L-30,52 L-30,48 L-28,48 L-28,44 L-26,44 L-25,39 L-20,34 L-18,34 L-18,32 L-16,32 L-16,28 L-14,28 L-14,26 L-12,26 L-12,22 L-8,22 L-8,16 L-4,16 L-4,2 L0,2 Z M-22,45 Z " fill="#B27662" transform="translate(374,444)"/>
<path d="M0,0 L1,3 L5,2 L9,5 L10,10 L9,17 L11,17 L11,19 L9,19 L9,37 L11,37 L11,20 L15,22 L16,29 L19,31 L19,43 L18,44 L17,53 L19,53 L19,46 L21,46 L24,58 L23,61 L25,61 L26,57 L35,58 L37,63 L41,65 L41,67 L46,68 L57,71 L57,73 L60,73 L61,76 L66,78 L66,79 L61,79 L61,81 L66,80 L73,80 L83,82 L83,84 L88,84 L88,85 L83,85 L83,87 L96,86 L120,86 L120,87 L97,87 L97,89 L120,89 L120,90 L96,90 L96,88 L82,88 L82,86 L72,86 L72,84 L66,84 L66,82 L60,82 L60,80 L56,80 L56,78 L52,78 L52,76 L48,76 L48,74 L42,74 L42,72 L37,71 L36,68 L32,68 L32,66 L24,66 L24,62 L22,62 L20,57 L16,54 L15,44 L8,38 L8,20 L4,20 L4,8 L2,8 L2,4 L0,4 Z " fill="#BD846F" transform="translate(322,626)"/>
<path d="M0,0 L4,1 L5,12 L6,16 L8,17 L9,19 L10,17 L13,17 L13,24 L11,24 L12,30 L11,33 L14,33 L16,41 L16,47 L21,48 L20,57 L25,58 L25,63 L29,63 L29,65 L32,66 L32,68 L36,69 L37,76 L43,77 L48,79 L60,84 L68,88 L71,90 L77,91 L77,93 L70,93 L68,92 L56,92 L56,90 L60,89 L55,87 L55,84 L52,84 L52,82 L45,81 L36,78 L35,76 L30,73 L30,69 L23,69 L21,68 L20,72 L18,72 L17,64 L16,57 L14,57 L14,64 L12,64 L12,55 L13,54 L13,42 L10,40 L9,33 L6,31 L6,48 L4,48 L4,30 L6,30 L6,28 L4,28 L4,19 L3,16 L-1,14 L-4,14 L-5,11 L-8,10 L-8,8 L-4,7 L-1,8 Z " fill="#C08871" transform="translate(327,615)"/>
<path d="M0,0 L23,0 L35,1 L35,2 L23,2 L23,4 L1,4 L1,6 L-3,6 L-3,8 L-5,8 L-5,10 L-9,10 L-9,12 L-19,12 L-19,14 L-39,14 L-39,12 L-43,12 L-43,14 L-67,14 L-67,16 L-75,16 L-75,14 L-89,14 L-89,10 L-91,10 L-91,8 L-95,8 L-95,6 L-99,6 L-99,4 L-107,4 L-107,3 L-94,2 L-94,4 L-92,5 L-94,5 L-94,7 L-88,6 L-90,7 L-90,9 L-81,6 L-79,7 L-73,7 L-70,10 L-39,10 L-33,8 L-24,7 L-17,2 L-6,2 L0,5 L0,3 L-3,2 L0,2 Z " fill="#BC8973" transform="translate(549,714)"/>
<path d="M0,0 L27,0 L36,3 L40,9 L39,12 L38,14 L44,16 L44,18 L52,18 L52,23 L54,23 L54,30 L52,29 L52,27 L48,26 L44,22 L43,19 L32,15 L26,12 L18,12 L15,14 L11,13 L7,10 L2,9 L2,7 L-14,9 L-14,11 L-24,12 L-24,14 L-26,14 L-25,10 L-22,7 L-15,4 L-8,2 L0,2 Z " fill="#CB8D82" transform="translate(640,345)"/>
<path d="M0,0 L5,1 L5,4 L4,8 L3,13 L-1,14 L-3,13 L-3,15 L-17,16 L-27,16 L-28,14 L-35,15 L-41,19 L-42,21 L-45,21 L-46,25 L-51,41 L-53,41 L-53,43 L-56,43 L-55,37 L-52,27 L-50,27 L-49,20 L-48,17 L-40,15 L-37,10 L-35,8 L-37,7 L-35,3 L-31,2 L-16,2 L-13,1 L-10,3 L-3,2 Z " fill="#DF9E8D" transform="translate(653,361)"/>
<path d="M0,0 L12,2 L12,0 L22,1 L21,3 L16,6 L3,6 L3,4 L-13,5 L-20,7 L-20,13 L-22,13 L-22,15 L-25,14 L-34,17 L-46,20 L-60,21 L-106,21 L-110,20 L-110,18 L-120,16 L-120,14 L-130,13 L-144,12 L-145,10 L-126,11 L-110,15 L-98,18 L-84,18 L-52,17 L-50,16 L-48,17 L-46,13 L-44,12 L-44,14 L-39,9 L-34,10 L-33,5 L-9,1 Z M17,1 Z " fill="#CC9982" transform="translate(570,693)"/>
<path d="M0,0 L1,4 L1,9 L7,9 L9,8 L9,24 L10,28 L9,33 L8,37 L2,37 L2,39 L0,39 L0,41 L-2,41 L-1,43 L1,43 L0,48 L-2,49 L-4,55 L-6,56 L-7,65 L-9,66 L-10,64 L-14,64 L-12,60 L-11,61 L-11,54 L-8,53 L-6,49 L-6,46 L-8,47 L-7,34 L-8,27 L-6,25 L-5,19 L-7,19 L-7,11 L-5,11 L-2,2 Z M-3,44 Z " fill="#E19D85" transform="translate(668,501)"/>
<path d="M0,0 L4,1 L1,1 L1,3 L-1,3 L-1,5 L1,5 L-1,9 L-6,10 L-9,9 L-9,11 L-6,11 L-6,13 L-8,13 L-9,17 L-9,13 L-11,13 L-11,18 L-9,18 L-10,22 L-11,19 L-13,19 L-13,22 L-11,23 L-11,28 L-7,29 L-9,34 L-10,38 L-6,38 L-6,42 L-11,47 L-16,47 L-16,44 L-20,46 L-25,46 L-25,42 L-28,44 L-28,47 L-44,47 L-68,46 L-68,45 L-52,45 L-52,43 L-86,44 L-86,42 L-52,42 L-52,40 L-30,40 L-30,38 L-28,38 L-28,36 L-24,36 L-24,32 L-22,32 L-22,30 L-18,30 L-18,28 L-16,28 L-16,22 L-14,22 L-14,18 L-12,18 L-12,12 L-10,12 L-10,8 L-6,8 L-6,4 L-2,4 L-2,2 L0,2 Z M-13,29 Z M-27,37 L-27,39 L-22,40 L-21,38 Z M-21,37 Z " fill="#BA8163" transform="translate(554,430)"/>
<path d="M0,0 L8,0 L8,2 L12,2 L12,4 L16,4 L16,6 L20,6 L20,8 L22,8 L22,14 L26,16 L28,20 L30,20 L30,24 L32,24 L32,26 L34,26 L34,30 L36,30 L36,34 L38,34 L38,38 L40,38 L40,42 L42,42 L42,50 L44,50 L44,56 L46,56 L46,58 L48,58 L48,68 L50,68 L50,82 L52,82 L52,94 L50,94 L50,106 L48,106 L48,126 L47,126 L45,89 L48,82 L49,69 L47,69 L47,82 L45,79 L45,72 L40,70 L39,64 L39,55 L36,54 L35,45 L32,40 L32,34 L35,34 L35,31 L33,31 L32,33 L32,31 L29,30 L29,27 L31,27 L31,25 L28,24 L27,23 L24,23 L23,19 L25,19 L25,17 L22,18 L21,17 L17,15 L16,9 L19,9 L19,7 L12,8 L15,7 L15,5 L9,6 L11,5 L11,3 L6,4 L7,1 L0,1 Z " fill="#BC7969" transform="translate(676,340)"/>
<path d="M0,0 L1,0 L1,10 L-1,10 L-1,18 L-3,18 L-3,22 L-5,22 L-5,24 L-7,24 L-7,28 L-9,28 L-9,30 L-11,30 L-11,36 L-15,36 L-15,40 L-17,40 L-17,52 L-19,52 L-19,54 L-23,54 L-23,56 L-27,56 L-27,58 L-29,58 L-29,60 L-35,60 L-35,64 L-37,64 L-37,68 L-41,67 L-38,67 L-39,61 L-38,63 L-36,63 L-36,59 L-38,59 L-37,54 L-29,50 L-27,50 L-27,48 L-25,48 L-25,46 L-23,46 L-22,32 L-21,28 L-19,28 L-19,20 L-17,16 L-9,15 L-8,8 L-6,8 L-6,2 L-3,2 L-3,7 L-2,9 L0,9 Z " fill="#BD7B71" transform="translate(683,610)"/>
<path d="M0,0 L6,0 L8,1 L32,4 L42,5 L52,8 L98,8 L118,6 L126,3 L135,1 L136,1 L139,2 L138,4 L151,2 L148,6 L148,7 L136,8 L130,10 L117,11 L116,12 L100,13 L96,12 L87,13 L86,14 L66,14 L65,12 L51,11 L44,9 L34,7 L11,6 L1,4 Z " fill="#C4927C" transform="translate(412,705)"/>
<path d="M0,0 L6,1 L4,3 L0,2 Z M6,0 Z M2,3 L4,4 L2,8 L11,7 L9,11 L7,13 L-50,13 L-55,16 L-61,16 L-64,10 L-67,11 L-74,11 L-79,9 L-79,11 L-91,13 L-91,10 L-87,10 L-86,5 L-85,4 L-74,4 L-74,7 L-73,6 L-25,6 L-25,8 L-9,9 L-2,9 L0,5 Z " fill="#BC8265" transform="translate(527,467)"/>
<path d="M0,0 L10,0 L10,2 L16,2 L16,4 L26,4 L26,5 L16,5 L15,8 L15,6 L9,6 L9,4 L1,4 L1,6 L-10,7 L-11,9 L-22,10 L-22,12 L-24,13 L-34,12 L-34,14 L-36,14 L-36,17 L-38,17 L-39,20 L-48,22 L-48,24 L-51,27 L-53,27 L-53,25 L-56,26 L-56,24 L-54,24 L-54,22 L-52,22 L-52,16 L-48,12 L-46,12 L-46,10 L-44,10 L-44,8 L-36,8 L-36,6 L-28,6 L-28,4 L-20,4 L-20,2 L0,2 Z " fill="#BE8476" transform="translate(650,334)"/>
<path d="M0,0 L15,2 L16,6 L3,8 L0,9 L0,6 L-6,6 L-6,3 L-9,4 L-9,11 L-14,13 L-18,12 L-19,10 L-21,10 L-22,12 L-29,12 L-32,17 L-36,18 L-37,21 L-35,21 L-34,30 L-37,33 L-39,38 L-42,39 L-42,45 L-45,52 L-47,51 L-45,37 L-43,37 L-41,31 L-38,27 L-38,17 L-34,16 L-35,11 L-32,3 L-27,2 L-19,2 L-16,1 Z " fill="#EBA791" transform="translate(646,377)"/>
<path d="M0,0 L2,0 L3,3 L3,11 L2,13 L-1,13 L-4,16 L-9,17 L-12,24 L-14,24 L-14,27 L-17,27 L-18,31 L-20,32 L-30,33 L-62,33 L-58,31 L-57,29 L-36,29 L-36,32 L-34,32 L-34,30 L-22,29 L-22,14 L-20,13 L-15,13 L-12,9 L-10,9 L-10,5 L-14,5 L-12,1 Z " fill="#C68B69" transform="translate(558,463)"/>
<path d="M0,0 L2,1 L1,3 L-2,4 L-9,4 L-10,8 L-14,10 L-15,22 L-18,29 L-19,39 L-19,47 L-20,49 L-30,49 L-32,45 L-32,33 L-31,25 L-30,21 L-24,19 L-20,20 L-19,15 L-15,4 L-11,2 L-2,1 Z " fill="#CA907F" transform="translate(612,359)"/>
<path d="M0,0 L2,0 L3,7 L0,12 L-1,22 L-3,26 L-5,46 L-8,47 L-10,46 L-11,50 L-15,58 L-19,60 L-23,68 L-27,78 L-30,83 L-31,83 L-31,78 L-29,78 L-28,70 L-25,62 L-22,62 L-19,50 L-14,49 L-13,37 L-12,35 L-14,31 L-15,28 L-13,27 L-12,23 L-7,18 L-3,2 L0,2 Z " fill="#DFA487" transform="translate(600,402)"/>
<path d="M0,0 L4,2 L4,6 L8,4 L14,5 L14,8 L18,6 L18,8 L24,9 L24,11 L30,15 L31,17 L33,17 L34,19 L40,20 L40,22 L44,21 L50,21 L52,20 L60,20 L60,22 L76,23 L108,23 L109,21 L113,23 L124,24 L124,25 L106,27 L77,27 L64,25 L50,25 L32,22 L24,18 L24,16 L14,16 L13,13 L9,11 L9,9 L-1,6 L-2,4 Z " fill="#E8AF92" transform="translate(386,671)"/>
<path d="M0,0 L7,0 L4,3 L7,5 L6,8 L3,11 L5,13 L0,19 L-4,22 L-13,22 L-14,24 L-19,24 L-18,22 L-18,21 L-22,22 L-23,18 L-21,16 L-23,12 L-21,11 L-23,9 L-26,10 L-26,6 L-19,6 L-10,4 L-2,5 L-1,1 Z M2,12 Z " fill="#CF8E79" transform="translate(382,524)"/>
<path d="M0,0 L8,0 L10,4 L12,4 L12,6 L20,6 L20,8 L26,8 L36,11 L46,14 L73,16 L83,18 L84,21 L88,20 L92,22 L113,22 L116,20 L125,19 L126,17 L134,13 L145,13 L145,15 L139,16 L136,16 L129,21 L128,24 L110,25 L100,27 L90,26 L90,24 L83,23 L80,21 L75,19 L60,17 L34,16 L32,15 L32,13 L11,10 L11,6 L0,5 Z " fill="#DBA489" transform="translate(384,683)"/>
<path d="M0,0 L8,0 L8,1 L1,1 L1,3 L3,4 L-3,3 L-3,5 L-1,5 L-1,7 L-3,7 L-5,17 L-7,17 L-7,15 L-9,15 L-8,17 L-8,29 L-9,42 L-11,42 L-12,48 L-14,53 L-17,54 L-18,66 L-19,70 L-21,82 L-23,86 L-26,86 L-26,78 L-25,76 L-23,76 L-23,72 L-21,72 L-21,58 L-22,57 L-22,51 L-25,51 L-25,58 L-26,58 L-26,50 L-24,50 L-24,48 L-22,48 L-22,44 L-20,44 L-20,42 L-18,42 L-18,38 L-16,38 L-16,32 L-14,32 L-14,28 L-12,28 L-12,16 L-10,16 L-10,14 L-8,14 L-8,6 L-4,4 L-4,2 L0,2 Z " fill="#BD8471" transform="translate(586,360)"/>
<path d="M0,0 L3,2 L5,8 L6,21 L9,26 L10,49 L8,55 L3,55 L1,59 L-4,59 L-4,62 L-9,62 L-11,67 L-14,72 L-16,72 L-16,74 L-20,75 L-16,66 L-14,60 L-8,56 L-4,55 L0,54 L1,50 L3,50 L5,42 L3,42 L3,47 L1,47 L2,33 L0,32 L0,30 L2,30 L2,27 L0,27 Z " fill="#E49C84" transform="translate(692,406)"/>
<path d="M0,0 L2,0 L4,12 L5,15 L7,15 L8,23 L11,24 L13,35 L15,35 L16,43 L16,49 L15,51 L17,51 L22,56 L21,59 L18,58 L15,55 L15,53 L11,53 L10,48 L6,47 L7,38 L2,37 L0,23 L-3,23 L-3,14 L-1,14 Z " fill="#C78E78" transform="translate(341,625)"/>
<path d="M0,0 L5,0 L5,4 L10,5 L7,8 L7,13 L10,13 L10,11 L27,9 L27,11 L31,12 L43,12 L47,14 L47,12 L49,12 L49,14 L52,15 L51,17 L55,16 L56,14 L60,15 L69,16 L69,19 L45,19 L29,17 L29,15 L19,17 L9,17 L9,15 L2,15 L2,12 L-1,13 L-3,9 L-9,6 L-9,5 L1,3 Z M69,14 Z " fill="#EDB395" transform="translate(417,676)"/>
<path d="M0,0 L6,0 L5,7 L1,7 L1,10 L-4,12 L-6,18 L-6,38 L-8,38 L-8,44 L-13,49 L-15,54 L-17,55 L-19,71 L-21,71 L-21,73 L-23,73 L-23,75 L-26,75 L-27,80 L-29,80 L-31,84 L-33,84 L-31,79 L-29,79 L-28,74 L-25,70 L-24,54 L-19,45 L-15,46 L-13,41 L-10,40 L-10,35 L-9,32 L-10,26 L-10,16 L-8,16 L-8,10 L-6,4 L-2,4 L-2,2 L0,2 Z " fill="#D19677" transform="translate(587,408)"/>
<path d="M0,0 L1,3 L6,3 L7,0 L7,4 L1,4 L1,6 L-1,6 L-1,8 L-6,12 L-7,14 L-11,14 L-11,16 L-13,16 L-13,18 L-17,18 L-17,20 L-21,20 L-21,22 L-23,22 L-23,26 L-25,26 L-25,28 L-29,28 L-29,30 L-31,30 L-31,32 L-37,32 L-37,34 L-39,34 L-39,36 L-51,36 L-51,35 L-42,34 L-38,33 L-39,30 L-32,31 L-32,29 L-37,29 L-35,28 L-34,24 L-31,24 L-32,23 L-37,24 L-36,21 L-30,19 L-30,17 L-25,18 L-24,13 L-20,6 L-10,4 L-5,2 L-2,3 L-2,5 L0,5 L-1,1 Z " fill="#BD856E" transform="translate(635,678)"/>
<path d="M0,0 L1,0 L1,19 L2,0 L4,0 L4,22 L3,28 L-1,28 L-1,30 L-5,30 L-5,36 L-7,36 L-8,38 L-12,31 L-12,24 L-10,20 L-10,8 L-8,6 L-6,2 L-4,5 Z " fill="#BC7B75" transform="translate(693,572)"/>
<path d="M0,0 L1,0 L1,8 L-2,16 L-3,27 L-4,30 L-6,31 L-8,37 L-11,42 L-13,47 L-15,50 L-17,50 L-18,55 L-19,60 L-20,60 L-20,46 L-18,38 L-14,23 L-12,17 L-7,14 L-4,6 L0,4 Z " fill="#D59280" transform="translate(680,546)"/>
<path d="M0,0 L1,4 L0,10 L-2,10 L-2,12 L-4,12 L-4,14 L-14,19 L-15,23 L-13,23 L-13,27 L-15,28 L-15,31 L-18,32 L-19,35 L-24,35 L-25,34 L-25,37 L-27,37 L-27,35 L-34,36 L-41,38 L-44,37 L-41,35 L-35,34 L-32,28 L-24,18 L-14,15 L-12,12 L-10,12 L-10,10 L-6,8 L-4,2 Z " fill="#BE7F71" transform="translate(660,646)"/>
<path d="M0,0 L8,0 L8,2 L2,2 L-4,6 L-14,9 L-19,10 L-19,14 L-21,16 L-22,19 L-25,19 L-27,24 L-32,26 L-35,36 L-37,36 L-39,52 L-42,52 L-42,40 L-39,30 L-38,29 L-36,17 L-32,14 L-31,11 L-21,10 L-20,7 L-18,7 L-18,5 L-8,4 L-8,2 Z " fill="#CD9283" transform="translate(634,352)"/>
<path d="M0,0 L2,0 L2,2 L4,2 L4,5 L2,5 L3,25 L4,35 L3,38 L1,39 L-1,45 L-3,45 L-2,51 L-5,52 L-5,69 L-11,71 L-14,75 L-12,59 L-11,52 L-10,51 L-9,39 L-5,38 L-4,33 L-2,27 L0,27 Z " fill="#C28971" transform="translate(577,375)"/>
<path d="M0,0 L3,0 L5,2 L16,3 L16,18 L18,18 L18,32 L16,33 L16,30 L11,33 L11,28 L3,30 L5,24 L11,24 L11,21 L8,20 L7,13 L4,13 L2,17 L1,13 L1,3 Z M2,30 Z " fill="#E19988" transform="translate(677,376)"/>
<path d="M0,0 L1,0 L6,19 L6,27 L8,27 L9,34 L7,38 L8,40 L11,40 L12,45 L13,46 L13,86 L10,91 L9,91 L10,84 L12,68 L10,68 L9,64 L8,48 L7,46 L5,46 L5,30 L3,30 L1,23 L0,13 L-1,9 L-4,9 L-4,6 L-6,6 L-6,2 L-2,2 L-1,4 Z " fill="#D68F7C" transform="translate(694,370)"/>
<path d="M0,0 L4,1 L0,5 L3,6 L-1,10 L-3,14 L-11,15 L-13,25 L-15,25 L-18,37 L-21,55 L-26,62 L-30,63 L-34,67 L-35,73 L-36,73 L-36,63 L-34,57 L-32,55 L-28,55 L-28,52 L-24,52 L-24,43 L-23,41 L-21,41 L-21,30 L-19,25 L-17,25 L-16,19 L-14,14 L-9,13 L-7,8 L-4,7 L-3,3 L-1,3 Z " fill="#D79A88" transform="translate(616,363)"/>
<path d="M0,0 L5,0 L5,2 L7,3 L5,3 L5,5 L11,4 L9,5 L9,7 L18,4 L20,5 L26,5 L29,8 L72,8 L72,9 L61,9 L61,11 L80,11 L80,12 L60,12 L60,10 L56,10 L56,12 L32,12 L32,14 L24,14 L24,12 L10,12 L10,8 L8,8 L8,6 L4,6 L4,4 L0,4 L0,2 L-8,2 L-8,1 Z " fill="#BF8C75" transform="translate(450,716)"/>
<path d="M0,0 L4,3 L14,6 L17,11 L21,27 L21,30 L25,30 L28,30 L28,40 L29,42 L29,51 L25,53 L22,57 L20,53 L22,50 L22,43 L20,43 L19,39 L18,30 L14,16 L14,14 L12,14 L12,9 L4,9 L4,7 L-2,5 L-1,2 Z " fill="#CD8877" transform="translate(680,354)"/>
<path d="M0,0 L5,0 L4,10 L2,12 L1,16 L-2,18 L-2,28 L0,29 L-2,29 L-3,31 L-4,30 L-7,34 L-7,41 L-8,44 L-12,44 L-12,47 L-14,47 L-16,41 L-14,37 L-12,28 L-9,26 L-7,21 L-5,19 L-5,10 L-7,10 L-6,6 L-1,4 Z " fill="#EFAB93" transform="translate(616,388)"/>
<path d="M0,0 L2,0 L3,6 L3,15 L0,21 L-2,28 L-6,28 L-8,32 L-12,36 L-16,37 L-17,46 L-20,53 L-22,59 L-23,59 L-22,52 L-24,52 L-23,43 L-19,36 L-16,32 L-13,32 L-11,25 L-8,20 L-3,20 L-3,12 Z " fill="#E6AD8B" transform="translate(598,428)"/>
<path d="M0,0 L8,0 L8,2 L14,2 L15,1 L25,1 L25,3 L32,3 L33,5 L36,5 L37,7 L40,7 L41,9 L44,9 L44,11 L41,11 L42,17 L46,17 L48,18 L50,19 L50,21 L48,21 L50,25 L49,29 L47,28 L46,25 L44,24 L43,21 L37,19 L37,14 L35,14 L35,12 L32,12 L32,9 L27,9 L27,6 L9,5 L1,4 L-19,3 L-19,2 L0,2 Z " fill="#BD8075" transform="translate(651,338)"/>
<path d="M0,0 L1,0 L2,14 L1,16 L3,16 L0,25 L1,37 L4,40 L1,42 L2,48 L1,50 L3,51 L-1,55 L-4,39 L-4,29 L-6,27 L-6,23 L-9,23 L-10,25 L-10,18 L-8,15 L-6,18 L-4,9 L-2,9 L-2,5 L-4,5 L-4,3 L-1,2 Z " fill="#D6987D" transform="translate(346,586)"/>
<path d="M0,0 L1,3 L5,2 L9,5 L10,10 L9,17 L11,17 L11,19 L9,19 L9,37 L11,37 L11,20 L15,22 L16,29 L19,31 L19,43 L15,44 L8,38 L8,20 L4,20 L4,8 L2,8 L2,4 L0,4 Z " fill="#BA836C" transform="translate(322,626)"/>
<path d="M0,0 L2,1 L-3,11 L-8,10 L-8,12 L-17,17 L-21,19 L-23,23 L-39,25 L-45,27 L-49,26 L-47,26 L-46,23 L-36,22 L-33,19 L-25,18 L-25,14 L-20,10 L-15,9 L-13,5 L-11,3 L-3,3 Z " fill="#C18B78" transform="translate(613,685)"/>
<path d="M0,0 L3,0 L3,2 L7,0 L9,7 L4,12 L3,16 L-2,25 L-5,25 L-6,30 L-12,32 L-14,35 L-16,35 L-17,37 L-20,31 L-22,29 L-18,26 L-14,27 L-11,25 L-8,25 L-8,23 L-6,23 L-6,21 L-4,21 L-5,10 L-3,8 L0,8 Z " fill="#E3A588" transform="translate(612,636)"/>
<path d="M0,0 L5,0 L5,3 L0,7 L6,11 L4,13 L2,11 L-2,15 L-5,20 L-8,22 L-9,13 L-13,15 L-13,13 L-16,15 L-17,22 L-15,23 L-17,25 L-19,32 L-21,33 L-19,25 L-22,25 L-22,17 L-19,14 L-17,14 L-17,11 L-9,8 L-7,4 Z M6,10 Z M-14,20 Z M-15,21 Z " fill="#CC8F7A" transform="translate(348,532)"/>
<path d="M0,0 L3,1 L2,4 L-2,5 L-2,8 L-7,13 L-12,19 L-15,25 L-22,27 L-30,33 L-32,33 L-32,27 L-29,26 L-24,17 L-18,15 L-16,15 L-15,12 L-12,12 L-10,8 L-8,4 L-1,2 Z " fill="#C98F77" transform="translate(640,656)"/>
<path d="M0,0 L2,0 L2,4 L14,4 L14,6 L20,6 L18,7 L19,11 L2,11 L2,9 L-4,10 L-7,9 L-13,11 L-14,10 L-24,10 L-24,7 L-28,8 L-32,12 L-32,10 L-35,9 L-35,8 L-30,8 L-30,5 L-20,4 L-6,4 L-2,6 L0,2 Z M-24,5 Z " fill="#DE9E7D" transform="translate(478,505)"/>
<path d="M0,0 L1,0 L1,8 L3,8 L3,14 L5,14 L5,16 L7,16 L7,26 L9,26 L9,40 L11,40 L11,52 L9,52 L9,64 L7,64 L7,84 L6,84 L4,47 L7,40 L8,27 L6,27 L6,40 L4,37 L3,30 L3,16 L1,14 L2,9 L0,9 L0,14 L-1,14 Z " fill="#AC6D5C" transform="translate(717,382)"/>
<path d="M0,0 L3,1 L0,4 L0,5 L-12,6 L-18,8 L-31,9 L-32,10 L-48,11 L-52,10 L-61,11 L-62,12 L-82,12 L-83,9 L-72,9 L-60,8 L-32,7 L-22,3 L-4,1 Z " fill="#C1907B" transform="translate(560,707)"/>
<path d="M0,0 L1,0 L1,5 L3,6 L-3,5 L-3,7 L1,8 L-4,12 L-4,15 L-20,15 L-44,14 L-44,13 L-28,13 L-28,11 L-62,12 L-62,10 L-28,10 L-28,8 L-6,8 L-6,6 L-4,6 L-4,4 L0,4 Z " fill="#B0785D" transform="translate(530,462)"/>
<path d="M0,0 L3,2 L3,8 L2,10 L1,40 L-3,54 L-8,58 L-10,53 L-10,48 L-6,45 L-3,37 L-5,37 L-5,34 L-3,34 L-3,27 L-2,26 L-1,1 Z " fill="#BE7C6C" transform="translate(696,520)"/>
<path d="M0,0 L1,0 L1,5 L3,5 L3,0 L4,0 L4,6 L2,6 L2,12 L0,12 L0,14 L-2,14 L-2,18 L-4,18 L-4,20 L-6,20 L-6,32 L-8,32 L-8,40 L-10,40 L-10,62 L-11,62 L-11,40 L-13,40 L-13,59 L-15,61 L-14,39 L-12,39 L-12,31 L-11,30 L-10,14 L-4,10 L-1,6 L-1,11 L1,11 Z " fill="#C07D6C" transform="translate(708,532)"/>
<path d="M0,0 L2,0 L1,4 L-4,8 L-6,8 L-6,10 L-13,11 L-14,13 L-16,13 L-17,11 L-22,13 L-26,11 L-31,10 L-35,8 L-36,10 L-38,10 L-38,7 L-32,5 L-26,5 L-25,4 L-18,4 L-15,1 L-10,1 L-10,6 L-2,5 Z " fill="#DB9A7B" transform="translate(546,503)"/>
<path d="M0,0 L12,2 L12,0 L22,1 L21,3 L16,6 L3,6 L3,4 L-13,5 L-21,9 L-24,11 L-26,9 L-28,7 L-29,10 L-34,9 L-33,5 L-9,1 Z M17,1 Z " fill="#D2997E" transform="translate(570,693)"/>
<path d="M0,0 L7,0 L6,12 L1,17 L0,22 L-1,23 L1,25 L-2,30 L-5,40 L-10,42 L-10,38 L-11,34 L-5,32 L-5,19 L-2,12 L0,7 Z " fill="#D38E7F" transform="translate(650,612)"/>
<path d="M0,0 L1,0 L0,9 L2,9 L1,16 L2,17 L3,31 L3,45 L5,45 L5,52 L9,58 L10,64 L8,65 L7,60 L6,58 L4,58 L3,48 L1,48 L-1,30 L-4,29 L-4,11 L-2,6 Z " fill="#C88F78" transform="translate(329,567)"/>
<path d="M0,0 L10,0 L10,2 L16,2 L16,4 L26,4 L26,5 L16,5 L15,8 L15,6 L9,6 L9,4 L1,4 L1,6 L-18,7 L-19,8 L-28,9 L-28,7 L-36,7 L-36,6 L-28,6 L-28,4 L-20,4 L-20,2 L0,2 Z " fill="#B37A6F" transform="translate(650,334)"/>
<path d="M0,0 L14,0 L16,2 L11,8 L7,11 L-2,11 L-3,13 L-8,13 L-7,11 L-7,10 L-11,11 L-12,7 L-7,3 L-3,4 L-3,2 Z M13,1 Z " fill="#D99881" transform="translate(371,535)"/>
<path d="M0,0 Z M-1,1 Z M-2,2 Z M-9,2 L-2,3 L-5,6 L-19,8 L-24,9 L-51,9 L-54,7 L-54,5 L-61,6 L-62,4 L-36,4 Z " fill="#BB8B75" transform="translate(530,716)"/>
<path d="M0,0 L3,1 L1,5 L1,8 L-4,14 L-8,21 L-14,24 L-25,24 L-27,22 L-23,22 L-23,20 L-16,15 L-15,13 L-9,13 L-8,9 L-6,9 L-4,4 L-1,3 Z " fill="#E0A57F" transform="translate(563,491)"/>
<path d="M0,0 L1,0 L1,10 L-1,10 L-1,18 L-3,18 L-3,22 L-5,22 L-5,24 L-7,24 L-7,28 L-9,28 L-9,30 L-11,30 L-11,36 L-15,36 L-15,40 L-17,40 L-17,52 L-18,52 L-18,40 L-21,39 L-19,39 L-18,37 L-18,39 L-16,39 L-17,33 L-15,26 L-11,28 L-8,27 L-10,21 L-8,21 L-8,8 L-6,8 L-6,2 L-3,2 L-3,7 L-2,9 L0,9 Z " fill="#B2756F" transform="translate(683,610)"/>
<path d="M0,0 L6,0 L6,3 L10,2 L10,0 L15,1 L16,3 L34,4 L32,6 L17,7 L16,9 L12,8 L12,5 L8,6 L-17,6 L-20,7 L-20,5 L-31,5 L-32,3 L-18,2 L-16,3 L-16,1 L-6,2 L0,3 Z " fill="#CA9173" transform="translate(480,492)"/>
<path d="M0,0 L9,0 L18,1 L20,0 L20,3 L33,2 L33,4 L24,5 L24,7 L20,9 L18,8 L10,8 L9,6 L2,8 L-4,9 L-4,7 L-12,8 L-12,5 L-6,5 Z M-4,6 Z M18,6 Z " fill="#E9A389" transform="translate(384,540)"/>
<path d="M0,0 L8,0 L18,5 L26,8 L26,11 L30,13 L31,15 L30,20 L32,20 L32,23 L22,23 L19,13 L21,12 L21,9 L19,9 L19,7 L13,6 L9,4 L-3,3 Z " fill="#D09287" transform="translate(658,356)"/>
<path d="M0,0 L1,0 L1,12 L-1,16 L-6,18 L-10,18 L-12,34 L-15,35 L-16,26 L-14,20 L-12,20 L-10,13 L-8,11 L-7,8 L-10,9 L-10,6 L-8,6 L-8,4 L-6,4 L-6,2 L0,2 Z M-11,9 Z " fill="#E19E87" transform="translate(676,536)"/>
<path d="M0,0 L5,0 L3,13 L5,15 L2,19 L7,19 L7,21 L5,21 L5,24 L2,24 L0,34 L-3,37 L-7,38 L-7,40 L-13,40 L-8,35 L-5,32 L-4,30 L-1,30 L-2,24 L-1,22 L-6,25 L-8,25 L-6,21 L-2,19 L-1,14 L-1,1 Z M0,20 Z " fill="#D59779" transform="translate(629,626)"/>
<path d="M0,0 L4,0 L5,4 L2,9 L0,15 L-1,28 L-4,29 L-9,27 L-10,18 L-8,12 L-2,12 L-2,4 Z " fill="#D79482" transform="translate(646,616)"/>
<path d="M0,0 L1,4 L1,6 L3,6 L2,1 L6,3 L4,3 L4,7 L2,7 L2,37 L0,37 L0,59 L-2,59 L-2,67 L-3,67 L-3,59 L-6,58 L-4,58 L-4,53 L-3,53 L-3,58 L-1,58 L-2,37 L-2,6 Z " fill="#AA6D5F" transform="translate(716,465)"/>
<path d="M0,0 L3,1 L-2,6 L-4,8 L-7,8 L-7,10 L-11,11 L-15,17 L-15,31 L-17,43 L-19,49 L-23,50 L-23,43 L-20,43 L-20,40 L-22,39 L-21,37 L-19,37 L-19,24 L-21,24 L-21,19 L-19,19 L-19,17 L-17,17 L-16,13 L-12,7 L-7,7 L-7,4 L-1,2 Z M-18,37 Z " fill="#DE9881" transform="translate(695,461)"/>
<path d="M0,0 L2,3 L2,28 L4,28 L5,33 L4,38 L6,42 L3,42 L1,50 L4,51 L0,51 L0,39 L-4,38 L-3,33 L-4,31 L-1,31 L-3,23 L-1,22 L-2,16 L-2,8 L0,8 Z " fill="#E0A388" transform="translate(361,609)"/>
<path d="M0,0 L2,2 L2,6 L7,7 L9,19 L5,27 L3,29 L1,35 L-1,36 L0,23 L-1,16 L1,14 L2,8 L0,8 Z " fill="#EAA586" transform="translate(661,512)"/>
<path d="M0,0 L27,0 L33,2 L29,5 L22,5 L15,3 L1,3 L-8,6 L-14,6 L-14,8 L-20,10 L-20,12 L-24,12 L-24,14 L-26,14 L-25,10 L-22,7 L-15,4 L-8,2 L0,2 Z " fill="#C78A7D" transform="translate(640,345)"/>
<path d="M0,0 L8,0 L8,2 L12,2 L12,4 L16,4 L16,6 L20,6 L20,8 L22,8 L22,14 L26,16 L28,20 L30,20 L30,24 L32,24 L32,26 L34,26 L34,30 L36,30 L36,34 L38,34 L38,38 L40,38 L39,42 L39,39 L36,40 L37,35 L35,35 L34,38 L34,35 L32,34 L35,34 L35,31 L33,31 L32,33 L32,31 L29,30 L29,27 L31,27 L31,25 L28,24 L27,23 L24,23 L23,19 L25,19 L25,17 L22,18 L21,17 L17,15 L16,9 L19,9 L19,7 L12,8 L15,7 L15,5 L9,6 L11,5 L11,3 L6,4 L7,1 L0,1 Z " fill="#A36B5E" transform="translate(676,340)"/>
<path d="M0,0 L3,0 L3,26 L2,27 L1,34 L-1,34 L-1,37 L1,37 L0,41 L-2,47 L-6,48 L-7,41 L-4,40 L-4,33 L-3,30 L-4,27 L0,22 Z " fill="#C58372" transform="translate(692,520)"/>
<path d="M0,0 L1,0 L1,19 L2,0 L4,0 L4,22 L3,28 L-1,28 L-1,30 L-5,29 L-2,29 L-2,27 L-5,27 L-5,18 L-2,12 L-1,2 Z " fill="#BD7971" transform="translate(693,572)"/>
<path d="M0,0 L1,0 L2,21 L2,60 L1,69 L-1,69 L-1,55 L-3,38 L-3,27 L-2,25 L-1,12 L-1,1 Z " fill="#D5917F" transform="translate(682,477)"/>
<path d="M0,0 L5,0 L5,2 L1,6 L0,11 L2,11 L2,19 L-2,19 L-3,23 L-9,27 L-11,25 L-11,22 L-8,22 L-8,15 L-4,15 L-4,1 Z " fill="#B07865" transform="translate(374,445)"/>
<path d="M0,0 L1,0 L1,9 L3,9 L3,2 L5,2 L8,14 L7,17 L9,17 L10,13 L19,14 L20,19 L19,21 L17,21 L17,23 L22,22 L21,25 L25,24 L24,26 L26,28 L21,27 L20,24 L16,24 L16,22 L8,22 L8,18 L6,18 L4,13 L0,10 Z " fill="#B27C69" transform="translate(338,670)"/>
<path d="M0,0 L3,1 L1,1 L1,3 L6,2 L13,2 L23,4 L23,6 L28,6 L28,7 L23,7 L23,9 L36,8 L60,8 L60,9 L37,9 L37,11 L60,11 L60,12 L36,12 L36,10 L22,10 L22,8 L12,8 L12,6 L6,6 L6,4 L0,4 L0,2 L-4,1 Z " fill="#A67966" transform="translate(382,704)"/>
<path d="M0,0 L2,4 L2,10 L0,14 L0,21 L3,26 L3,28 L1,28 L1,37 L-3,37 L-2,30 L-5,30 L-5,36 L-10,38 L-8,34 L-7,25 L-4,20 L-3,12 L-2,11 Z " fill="#BE7E77" transform="translate(682,582)"/>
<path d="M0,0 L4,1 L2,14 L-3,21 L-7,22 L-11,26 L-12,32 L-13,32 L-13,22 L-11,16 L-9,14 L-5,14 L-5,11 L-1,11 L-1,2 Z " fill="#D59981" transform="translate(593,404)"/>
<path d="M0,0 L4,1 L1,1 L2,14 L-1,13 L-1,15 L2,15 L1,19 L-4,21 L-4,23 L-7,23 L-8,25 L-8,23 L-11,23 L-10,27 L-16,29 L-25,30 L-22,26 L-20,26 L-20,24 L-12,24 L-12,22 L-10,22 L-9,17 L-6,16 L-6,14 L-2,14 L-2,12 L0,12 Z " fill="#AF7865" transform="translate(334,512)"/>
<path d="M0,0 L2,0 L2,2 L0,4 L-1,7 L-4,7 L-6,12 L-11,14 L-14,24 L-16,24 L-18,40 L-21,40 L-21,28 L-18,18 L-11,9 L-5,4 L-2,4 Z " fill="#D19685" transform="translate(613,364)"/>
<path d="M0,0 L7,5 L7,8 L12,10 L23,14 L29,16 L36,18 L41,19 L46,19 L47,22 L35,22 L23,18 L16,14 L10,12 L3,9 L-1,8 L-2,1 Z " fill="#C78E78" transform="translate(365,683)"/>
<path d="M0,0 L1,3 L-2,11 L-3,22 L-4,25 L-6,26 L-8,32 L-9,32 L-8,23 L-7,15 L-5,15 L-4,10 Z M-13,31 L-12,33 L-10,34 L-13,42 L-15,45 L-17,45 L-18,50 L-19,55 L-20,55 L-20,44 L-17,39 L-15,33 L-13,33 Z M-10,32 Z " fill="#D48F7F" transform="translate(680,551)"/>
<path d="M0,0 L36,0 L38,3 L50,4 L50,6 L62,6 L61,8 L50,7 L49,10 L49,8 L38,8 L38,7 L49,7 L49,5 L38,6 L35,7 L35,5 L33,6 L24,6 L24,4 L20,6 L14,6 L10,3 L35,3 L35,1 L0,1 Z " fill="#A57159" transform="translate(404,466)"/>
<path d="M0,0 L23,0 L35,1 L35,2 L23,2 L23,4 L1,4 L1,6 L-3,6 L-3,8 L-5,8 L-5,10 L-9,10 L-9,12 L-19,12 L-19,11 L-10,11 L-10,9 L-15,9 L-15,8 L-6,9 L-6,7 L-9,7 L-9,5 L-3,4 L0,5 L0,3 L-3,2 L0,2 Z " fill="#A97A69" transform="translate(549,714)"/>
<path d="M0,0 L5,0 L4,5 L1,9 L0,13 L-1,16 L3,15 L3,19 L1,23 L-6,24 L-5,20 L-8,20 L-8,18 L-6,17 L-6,6 L0,4 Z " fill="#BE7F6C" transform="translate(341,507)"/>
<path d="M0,0 L2,0 L2,13 L-1,20 L-1,37 L-2,56 L-3,56 L-4,51 L-6,52 L-5,39 L-3,3 L-2,3 L-1,10 Z " fill="#BE7A66" transform="translate(723,409)"/>
<path d="M0,0 L5,0 L0,5 L-2,5 L-2,8 L-4,8 L-4,28 L-2,30 L-4,35 L-3,41 L-8,42 L-10,40 L-9,35 L-7,35 L-7,20 L-8,12 L-10,13 L-9,9 L-6,4 L0,2 Z " fill="#C6806D" transform="translate(702,471)"/>
<path d="M0,0 L1,4 L-3,5 L-7,7 L-8,10 L-14,14 L-17,21 L-16,34 L-19,34 L-21,23 L-23,22 L-23,17 L-21,17 L-19,13 L-16,12 L-16,9 L-14,9 L-14,7 L-9,7 L-7,3 L0,2 Z " fill="#CD8771" transform="translate(708,462)"/>
<path d="M0,0 L0,3 L-1,5 L-4,5 L-8,21 L-10,21 L-11,26 L-13,28 L-14,32 L-16,32 L-17,36 L-20,37 L-22,41 L-25,42 L-25,39 L-23,39 L-23,36 L-20,34 L-18,30 L-17,30 L-15,22 L-13,22 L-13,20 L-11,20 L-11,13 L-9,9 L-7,9 L-5,2 Z " fill="#DDA380" transform="translate(579,459)"/>
<path d="M0,0 L2,0 L2,2 L0,2 L0,6 L-4,8 L-5,11 L-8,11 L-9,15 L-18,21 L-27,22 L-24,19 L-18,18 L-15,12 L-7,2 Z " fill="#C28672" transform="translate(643,662)"/>
<path d="M0,0 L11,0 L21,1 L21,3 L25,3 L25,5 L29,5 L29,7 L31,8 L27,9 L27,7 L21,9 L18,6 L13,3 L8,2 L3,5 L-3,5 L-3,3 L-13,4 L-17,3 L-13,1 Z " fill="#D8998C" transform="translate(645,360)"/>
<path d="M0,0 L1,3 L22,2 L45,3 L45,1 L22,1 L22,0 L62,0 L62,1 L51,1 L51,3 L70,3 L70,4 L50,4 L50,2 L46,2 L46,4 L22,4 L22,6 L14,6 L14,4 L0,4 Z " fill="#9F7460" transform="translate(460,724)"/>
<path d="M0,0 L2,3 L3,8 L5,8 L3,13 L4,20 L7,23 L7,25 L3,24 L0,19 L-2,18 L-5,12 L-6,5 L-6,2 L-3,1 L0,2 Z " fill="#E0A285" transform="translate(377,658)"/>
<path d="M0,0 L2,0 L4,12 L5,15 L7,15 L8,23 L11,24 L12,28 L10,31 L8,31 L6,35 L3,34 L4,28 L4,23 L2,23 L0,10 Z " fill="#CC9179" transform="translate(341,625)"/>
<path d="M0,0 L2,1 L7,0 L7,2 L4,3 L3,6 L6,7 L6,9 L0,9 L0,11 L-2,13 L-13,13 L-14,15 L-14,13 L-25,13 L-25,12 L-14,12 L-13,9 L-6,6 L-1,1 Z " fill="#BC8573" transform="translate(597,700)"/>
<path d="M0,0 L2,1 L2,4 L-3,6 L-6,9 L-11,12 L-13,18 L-11,17 L-10,31 L-10,39 L-12,41 L-14,40 L-15,25 L-16,18 L-13,11 L-8,7 Z M-15,35 Z " fill="#CA836E" transform="translate(706,465)"/>
<path d="M0,0 L6,1 L6,2 L0,2 L0,4 L-6,4 L-7,9 L-8,11 L-15,12 L-20,13 L-24,12 L-22,8 L-16,4 L-13,4 L-7,4 L-7,2 Z " fill="#D7A186" transform="translate(536,694)"/>
<path d="M0,0 L2,1 L1,9 L-2,13 L-4,13 L-4,15 L-13,16 L-16,19 L-17,15 L-15,11 L-9,9 L-6,8 L-4,4 L-1,4 Z M-19,16 L-17,17 L-19,20 L-22,19 Z " fill="#D19880" transform="translate(612,668)"/>
<path d="M0,0 L2,1 L3,0 L6,1 L5,3 L-7,5 L-17,9 L-50,10 L-69,9 L-69,8 L-35,7 L-15,5 L-7,2 Z " fill="#C6957F" transform="translate(545,706)"/>
<path d="M0,0 L21,0 L21,3 L23,3 L23,1 L35,0 L39,2 L37,3 L27,4 L-5,4 L-1,2 Z " fill="#C98F70" transform="translate(501,492)"/>
<path d="M0,0 L1,0 L1,12 L-1,19 L-3,28 L-5,28 L-6,32 L-9,33 L-11,29 L-12,26 L-10,25 L-9,21 L-4,16 Z " fill="#DBA086" transform="translate(597,404)"/>
<path d="M0,0 L4,0 L4,2 L14,2 L12,7 L6,8 L2,7 L2,5 L-9,8 L-12,8 L-22,6 L-22,5 L-8,4 L-3,2 L0,3 Z " fill="#DDA68A" transform="translate(570,676)"/>
<path d="M0,0 L1,3 L5,2 L9,5 L10,10 L9,17 L11,17 L11,19 L9,19 L9,38 L8,38 L8,20 L4,20 L4,8 L2,8 L2,4 L0,4 Z " fill="#B78169" transform="translate(322,626)"/>
<path d="M0,0 L6,3 L6,5 L10,3 L18,1 L22,2 L20,2 L18,7 L14,8 L11,9 L10,11 L8,10 L8,9 L2,8 L2,6 L-8,7 L-7,5 L-2,5 L-2,2 L0,2 Z M6,2 Z " fill="#DF987E" transform="translate(402,524)"/>
<path d="M0,0 L4,2 L4,6 L8,4 L14,5 L14,8 L18,6 L18,8 L24,9 L22,13 L11,12 L9,11 L9,9 L-1,6 L-2,4 Z " fill="#E9B196" transform="translate(386,671)"/>
<path d="M0,0 L4,1 L1,1 L1,3 L-1,3 L-1,5 L1,5 L-1,9 L-6,10 L-9,9 L-9,11 L-6,11 L-6,13 L-8,13 L-9,17 L-9,13 L-11,13 L-11,18 L-9,18 L-10,22 L-11,19 L-13,19 L-13,22 L-11,23 L-13,31 L-14,29 L-18,30 L-18,28 L-16,28 L-16,22 L-14,22 L-14,18 L-12,18 L-12,12 L-10,12 L-10,8 L-6,8 L-6,4 L-2,4 L-2,2 L0,2 Z " fill="#A7725E" transform="translate(554,430)"/>
<path d="M0,0 L5,1 L2,8 L-1,11 L-6,12 L-6,16 L-10,15 L-11,17 L-17,20 L-16,15 L-10,10 L-6,9 L-5,5 L-2,5 Z " fill="#DEA184" transform="translate(612,656)"/>
<path d="M0,0 L2,4 L2,9 L1,5 L-1,5 L-1,10 L1,10 L1,13 L-1,13 L-1,11 L-3,11 L-1,15 L1,16 L0,20 L-2,20 L-2,22 L-4,22 L-4,24 L-6,25 L-8,29 L-8,23 L-11,23 L-11,30 L-12,30 L-12,22 L-10,22 L-10,20 L-8,20 L-8,16 L-6,16 L-6,14 L-4,14 L-4,10 L-2,10 L-2,4 L0,4 Z " fill="#AF7A68" transform="translate(572,388)"/>
<path d="M0,0 L4,0 L4,18 L8,20 L12,24 L12,34 L16,36 L18,38 L18,42 L20,42 L19,46 L19,43 L16,43 L16,41 L14,41 L14,39 L11,38 L10,34 L10,28 L9,25 L6,25 L6,23 L3,22 L2,18 L3,1 Z M3,19 Z M11,35 Z " fill="#19120E" transform="translate(326,646)"/>
<path d="M0,0 L4,1 L3,8 L0,11 L-3,12 L-4,17 L-6,20 L-7,18 L-7,6 L-5,2 Z " fill="#DB987E" transform="translate(671,552)"/>
<path d="M0,0 L3,2 L3,8 L2,10 L1,32 L-1,32 L-1,38 L-3,39 L-3,37 L-5,37 L-5,34 L-3,34 L-3,27 L-2,26 L-1,1 Z " fill="#C27F6E" transform="translate(696,520)"/>
<path d="M0,0 L1,3 L6,3 L7,0 L7,4 L1,4 L1,6 L-1,6 L-1,8 L-6,12 L-7,14 L-11,14 L-11,16 L-13,16 L-13,18 L-17,18 L-17,20 L-21,20 L-22,22 L-23,18 L-18,19 L-18,17 L-21,17 L-19,12 L-14,10 L-8,13 L-8,11 L-10,10 L-4,6 L0,5 L-1,1 Z " fill="#B07B65" transform="translate(635,678)"/>
<path d="M0,0 L8,0 L9,1 L17,0 L26,0 L25,2 L2,4 L-9,7 L-13,6 L-10,5 L-10,3 L-8,3 L-8,1 Z " fill="#BD8174" transform="translate(614,341)"/>
<path d="M0,0 L4,1 L1,1 L1,3 L5,4 L1,4 L1,6 L-3,6 L-3,8 L-5,8 L-5,10 L-11,10 L-11,14 L-13,14 L-13,18 L-17,17 L-14,17 L-15,11 L-14,13 L-12,13 L-12,9 L-14,9 L-13,4 L-7,1 L-5,1 L-5,4 L0,5 L0,3 L-2,2 Z " fill="#B2746A" transform="translate(659,660)"/>
<path d="M0,0 L1,0 L1,11 L3,11 L3,0 L4,0 L4,12 L2,12 L2,20 L0,20 L0,42 L-1,42 L-1,20 L-3,20 L-3,39 L-5,41 L-4,19 L-2,19 L-2,11 L-1,10 Z " fill="#A66B60" transform="translate(698,552)"/>
<path d="M0,0 L5,2 L5,4 L40,4 L40,6 L15,7 L5,8 L-2,3 L0,2 Z " fill="#C4866B" transform="translate(399,463)"/>
<path d="M0,0 L2,0 L1,4 L-4,8 L-6,8 L-6,10 L-13,11 L-14,13 L-16,13 L-17,11 L-22,13 L-26,11 L-26,9 L-18,8 L-18,6 L-10,5 L-2,5 Z " fill="#DE9F7D" transform="translate(546,503)"/>
<path d="M0,0 L1,0 L2,20 L4,20 L5,30 L9,31 L9,40 L5,36 L3,32 L3,21 L1,21 L-1,17 L-1,10 L-3,10 L-3,4 Z " fill="#C58C74" transform="translate(328,595)"/>
<path d="M0,0 L2,0 L0,7 L-4,9 L-6,15 L-10,16 L-10,18 L-15,22 L-13,16 L-15,15 L-11,9 L-8,7 L-4,7 L-4,3 L0,2 Z " fill="#C38176" transform="translate(660,640)"/>
<path d="M0,0 L2,1 L1,3 L-2,4 L-9,4 L-10,8 L-14,10 L-15,17 L-17,17 L-18,21 L-23,22 L-24,20 L-20,20 L-19,15 L-15,4 L-11,2 L-2,1 Z " fill="#C78E80" transform="translate(612,359)"/>
<path d="M0,0 L4,3 L14,6 L17,11 L17,22 L15,21 L14,14 L12,14 L12,9 L4,9 L4,7 L-2,5 L-1,2 Z " fill="#C7897C" transform="translate(680,354)"/>
<path d="M0,0 L3,2 L2,7 L2,15 L4,16 L5,27 L2,28 L-1,21 L-1,8 L-5,7 L-5,4 L-3,4 L-3,2 L0,2 Z " fill="#ECAB8C" transform="translate(377,636)"/>
<path d="M0,0 L2,3 L3,8 L3,16 L5,16 L6,25 L5,27 L7,28 L6,31 L3,30 L1,16 L-2,16 L-2,7 L0,7 Z " fill="#C58C73" transform="translate(340,632)"/>
<path d="M0,0 L2,0 L3,4 L-1,13 L1,13 L0,18 L-3,18 L-4,20 L-4,18 L-6,18 L-5,24 L-6,22 L-9,23 L-9,21 L-7,21 L-7,17 L-5,17 L-5,7 L-3,7 L-3,3 L0,3 Z " fill="#AE7461" transform="translate(347,489)"/>
<path d="M0,0 L4,0 L4,2 L8,1 L8,5 L6,5 L6,7 L2,7 L2,9 L0,9 L0,11 L-6,11 L-6,13 L-8,13 L-8,15 L-20,15 L-20,14 L-11,13 L-7,12 L-8,9 L-1,10 L-1,8 L-6,8 L-4,7 L-3,3 L0,3 Z " fill="#A77564" transform="translate(604,699)"/>
<path d="M0,0 L1,4 L3,5 L1,7 L1,5 L-1,5 L-1,18 L1,19 L1,28 L-1,28 L-1,58 L-2,58 L-2,28 L-4,28 L-4,18 L-2,18 L-2,4 L0,4 Z " fill="#9E6E5C" transform="translate(308,542)"/>
<path d="M0,0 L1,0 L1,7 L4,7 L5,5 L9,14 L9,17 L11,17 L14,21 L14,23 L11,23 L11,25 L14,26 L10,26 L8,21 L4,18 L4,14 L2,14 L2,8 L0,8 Z " fill="#B57D64" transform="translate(308,600)"/>
<path d="M0,0 L1,0 L2,14 L1,16 L3,16 L0,25 L-1,30 L-2,30 L-4,9 L-2,9 L-2,5 L-4,5 L-4,3 L-1,2 Z " fill="#DA9C82" transform="translate(346,586)"/>
<path d="M0,0 L5,2 L4,7 L2,8 L0,14 L-2,15 L-3,24 L-5,25 L-6,23 L-10,23 L-8,19 L-7,20 L-7,13 L-4,12 L-2,8 L-1,1 Z M1,3 Z " fill="#E6A284" transform="translate(664,542)"/>
<path d="M0,0 L11,1 L13,3 L6,5 L0,6 L-12,9 L-21,11 L-21,9 L-10,5 L-2,2 Z " fill="#D09487" transform="translate(636,353)"/>
<path d="M0,0 L1,4 L-4,9 L-6,14 L-8,15 L-10,31 L-12,31 L-13,33 L-12,26 L-11,11 L-7,6 L-2,2 L0,2 Z " fill="#D39979" transform="translate(578,448)"/>
<path d="M0,0 L1,3 L-1,6 L-5,8 L-9,16 L-13,26 L-16,31 L-17,31 L-17,26 L-15,26 L-14,18 L-11,10 L-8,10 L-6,5 L-3,1 Z " fill="#E2A885" transform="translate(586,454)"/>
<path d="M0,0 L22,3 L35,6 L37,8 L17,7 L17,4 L6,4 L0,2 Z " fill="#D1997E" transform="translate(395,696)"/>
<path d="M0,0 L1,4 L-1,4 L-1,6 L-3,6 L-3,10 L-5,10 L-5,12 L-7,12 L-7,18 L-11,18 L-11,22 L-13,22 L-13,34 L-14,34 L-14,22 L-17,21 L-15,21 L-14,19 L-14,21 L-12,21 L-13,15 L-11,8 L-7,10 L-4,9 L-6,3 L0,3 Z " fill="#A76D64" transform="translate(679,628)"/>
<path d="M0,0 L9,0 L12,1 L12,3 L8,3 L8,5 L-2,9 L-4,9 L-4,7 L-12,8 L-12,5 L-6,5 Z M-4,6 Z " fill="#E59E85" transform="translate(384,540)"/>
<path d="M0,0 L17,0 L20,1 L35,2 L38,4 L-12,4 L-8,2 L-1,1 Z " fill="#BF8278" transform="translate(640,341)"/>
<path d="M0,0 L5,0 L3,13 L5,15 L0,22 L-6,25 L-8,25 L-6,21 L-2,19 L-1,14 L-1,1 Z " fill="#DA9C7E" transform="translate(629,626)"/>
<path d="M0,0 L8,0 L8,1 L1,1 L1,3 L3,4 L-3,3 L-3,5 L-1,5 L-1,7 L-3,7 L-5,17 L-7,17 L-7,15 L-9,15 L-9,17 L-11,17 L-11,28 L-12,28 L-12,16 L-10,16 L-10,14 L-8,14 L-8,6 L-4,4 L-4,2 L0,2 Z " fill="#A47366" transform="translate(586,360)"/>
<path d="M0,0 L2,3 L-1,8 L-4,13 L-7,13 L-8,18 L-14,20 L-16,23 L-18,23 L-19,25 L-21,21 L-15,16 L-12,16 L-12,14 L-6,11 L-3,5 Z " fill="#E1A486" transform="translate(614,648)"/>
<path d="M0,0 L18,0 L14,2 L14,4 L4,6 L2,5 L2,3 L-2,4 L-6,8 L-6,6 L-9,5 L-9,4 L-4,4 L-4,1 Z M2,1 Z " fill="#DA987A" transform="translate(452,509)"/>
<path d="M0,0 L4,1 L2,2 L2,7 L-5,8 L-7,13 L-12,16 L-14,15 L-14,11 L-9,7 L-4,6 L-2,2 Z " fill="#C68E75" transform="translate(602,688)"/>
<path d="M0,0 L3,0 L3,12 L-2,13 L-3,11 L-3,15 L-8,14 L-8,10 L-6,10 L-6,8 L-4,8 L-4,6 L-1,6 Z " fill="#BC796D" transform="translate(662,650)"/>
<path d="M0,0 L1,0 L1,5 L-3,10 L-12,13 L-15,14 L-20,27 L-24,28 L-20,19 L-18,13 L-12,9 L-8,8 L-4,7 L-3,3 L-1,3 Z " fill="#E59F86" transform="translate(696,453)"/>
<path d="M0,0 L7,0 L7,3 L11,3 L11,7 L13,7 L13,10 L3,10 Z " fill="#D89282" transform="translate(677,369)"/>
<path d="M0,0 L2,1 L-3,11 L-8,10 L-8,12 L-18,17 L-16,11 L-10,9 L-9,5 L-2,2 Z " fill="#C18971" transform="translate(613,685)"/>
<path d="M0,0 L4,2 L-2,9 L-6,16 L-12,19 L-17,18 L-16,16 L-11,15 L-10,12 L-7,12 L-5,7 L-1,6 L-1,1 Z " fill="#E4A982" transform="translate(561,496)"/>
<path d="M0,0 L6,1 L8,4 L6,5 L4,3 L0,7 L-3,12 L-6,14 L-6,4 L-4,4 L-3,2 Z M8,2 Z " fill="#D59680" transform="translate(346,540)"/>
<path d="M0,0 L1,0 L1,5 L3,6 L-3,5 L-3,7 L1,8 L-4,12 L-4,15 L-12,15 L-14,13 L-6,13 L-6,9 L-28,9 L-28,8 L-6,8 L-6,6 L-4,6 L-4,4 L0,4 Z " fill="#A47158" transform="translate(530,462)"/>
<path d="M0,0 L1,0 L2,11 L2,23 L1,43 L0,43 L-2,6 Z " fill="#AF6F5D" transform="translate(723,423)"/>
<path d="M0,0 L8,0 L8,2 L12,2 L12,4 L16,4 L16,6 L20,6 L20,8 L22,8 L23,15 L21,15 L20,17 L16,13 L16,9 L19,9 L19,7 L12,8 L15,7 L15,5 L9,6 L11,5 L11,3 L6,4 L7,1 L0,1 Z " fill="#A77066" transform="translate(676,340)"/>
<path d="M0,0 L12,0 L18,2 L19,4 L22,4 L22,6 L24,7 L17,9 L16,7 L13,7 L13,2 L8,3 L0,3 Z " fill="#BB8B75" transform="translate(442,714)"/>
<path d="M0,0 L1,0 L1,9 L3,9 L3,2 L5,2 L8,14 L7,17 L9,17 L9,15 L11,15 L11,17 L13,18 L9,19 L9,21 L16,21 L16,22 L8,22 L8,18 L6,18 L4,13 L0,10 Z " fill="#AC7966" transform="translate(338,670)"/>
<path d="M0,0 L3,1 L2,4 L-2,5 L-2,8 L-7,13 L-13,20 L-13,17 L-10,10 L-8,4 L-1,2 Z " fill="#C98A73" transform="translate(640,656)"/>
<path d="M0,0 L3,0 L5,7 L4,21 L2,20 L2,16 L-2,16 L-3,19 L-3,15 L-1,15 L-1,13 L1,13 Z " fill="#B8826D" transform="translate(561,411)"/>
<path d="M0,0 L1,0 L1,14 L3,14 L3,26 L1,26 L1,38 L0,38 L-1,26 L-1,14 Z " fill="#A36756" transform="translate(725,408)"/>
<path d="M0,0 L2,1 L4,18 L6,18 L6,34 L5,34 L2,22 L2,12 L0,12 L-1,1 Z " fill="#DB9382" transform="translate(693,382)"/>
<path d="M0,0 L1,4 L5,4 L8,15 L4,18 L4,16 L2,16 L0,11 Z " fill="#C58170" transform="translate(699,368)"/>
<path d="M0,0 L4,0 L7,4 L9,11 L10,27 L8,25 L6,11 L5,7 L2,7 L2,4 L0,4 Z " fill="#D6907F" transform="translate(688,372)"/>
<path d="M0,0 L2,1 L1,2 L0,9 L2,10 L0,12 L-2,19 L-4,20 L-2,12 L-5,12 L-5,4 L-2,1 Z M3,7 Z M2,8 Z " fill="#C78F7B" transform="translate(331,545)"/>
<path d="M0,0 L3,1 L2,4 L-3,8 L-14,8 L-14,5 L-8,3 L-1,1 Z " fill="#D8917A" transform="translate(386,528)"/>
<path d="M0,0 L1,4 L0,18 L-5,17 L-6,12 L-2,2 Z " fill="#E6A182" transform="translate(668,501)"/>
<path d="M0,0 L1,0 L1,13 L0,32 L-1,32 L-2,27 L-4,28 L-3,15 Z " fill="#B87664" transform="translate(721,433)"/>
<path d="M0,0 L4,4 L2,5 L2,11 L-1,13 L-6,13 L-6,9 L-3,9 L-2,2 Z " fill="#CE8E78" transform="translate(638,647)"/>
<path d="M0,0 L20,0 L20,1 L1,1 L1,3 L3,4 L1,6 L-8,7 L-8,5 L-16,5 L-16,4 L-8,4 L-8,2 L0,2 Z " fill="#A26E63" transform="translate(630,336)"/>
<path d="M0,0 L8,0 L10,4 L12,4 L12,8 L16,8 L16,10 L11,10 L11,6 L0,5 Z " fill="#DCA28B" transform="translate(384,683)"/>
<path d="M0,0 Z M-2,1 L0,1 L0,10 L-1,12 L-3,12 L-5,20 L-6,22 L-8,22 L-6,12 L-3,2 Z " fill="#D99483" transform="translate(668,572)"/>
<path d="M0,0 L1,0 L1,5 L-3,5 L-5,21 L-8,22 L-9,13 L-7,7 L-5,7 L-3,2 Z " fill="#E19C80" transform="translate(669,549)"/>
<path d="M0,0 L1,0 L2,14 L3,15 L3,26 L2,28 L5,29 L1,29 L1,17 L-3,16 L-2,11 L-3,9 L0,9 L-2,1 Z " fill="#DA9F86" transform="translate(360,631)"/>
<path d="M0,0 Z M-5,1 L0,1 L-2,7 L-5,8 L-8,11 L-13,10 L-14,7 L-10,6 L-8,7 L-7,3 Z " fill="#DBA082" transform="translate(566,682)"/>
<path d="M0,0 L21,0 L21,3 L-1,3 Z " fill="#C58C6E" transform="translate(501,492)"/>
<path d="M0,0 L2,1 L-1,12 L-3,12 L-4,16 L-7,17 L-9,21 L-12,22 L-12,19 L-10,19 L-10,16 L-7,14 L-5,10 L-4,10 L-2,2 L0,2 Z " fill="#DAA07B" transform="translate(566,479)"/>
<path d="M0,0 L0,3 L-1,10 L-2,20 L-4,22 L-7,22 L-7,14 L-6,12 L-4,12 L-4,8 L-2,8 L-2,2 Z " fill="#BF866F" transform="translate(567,424)"/>
<path d="M0,0 L2,1 L-3,7 L-7,10 L-13,9 L-13,6 L-11,6 L-11,4 L-2,2 Z " fill="#E19A81" transform="translate(385,536)"/>
<path d="M0,0 L7,0 L6,4 L11,4 L8,11 L4,10 L4,4 L0,4 Z " fill="#FDC1A2" transform="translate(488,668)"/>
<path d="M0,0 L2,3 L5,11 L6,15 L5,17 L7,18 L3,22 L0,6 Z " fill="#D2967A" transform="translate(342,619)"/>
<path d="M0,0 L1,2 L3,2 L3,8 L5,8 L5,20 L3,20 L3,25 L1,25 L2,11 L0,10 L0,8 L2,8 L2,5 L0,5 Z " fill="#E9A288" transform="translate(692,428)"/>
<path d="M0,0 L4,0 L5,5 L4,9 L0,8 L-4,9 L-6,8 L-6,6 L-4,6 L-4,4 L-1,3 Z " fill="#BC836E" transform="translate(559,427)"/>
<path d="M0,0 L9,0 L10,5 L12,5 L11,7 L4,7 L3,2 L-4,3 L-3,1 Z M12,3 L14,4 L12,5 Z " fill="#D79276" transform="translate(428,508)"/>
<path d="M0,0 L2,0 L2,4 L8,4 L11,7 L20,10 L20,11 L11,11 L4,8 L4,6 L1,6 Z " fill="#D2977E" transform="translate(375,685)"/>
<path d="M0,0 L2,3 L-6,6 L-14,12 L-16,12 L-15,7 L-12,6 L-10,3 L-2,1 Z " fill="#C48C76" transform="translate(624,677)"/>
<path d="M0,0 L8,0 L7,2 L4,2 L3,5 L0,6 L-1,15 L-3,20 L-5,20 L-4,12 L-2,12 L-2,4 Z " fill="#C07E71" transform="translate(666,626)"/>
<path d="M0,0 L1,0 L1,29 L3,29 L3,37 L0,37 L0,30 L-2,29 L0,29 Z " fill="#B87F6B" transform="translate(309,570)"/>
<path d="M0,0 L3,0 L5,8 L0,12 L-2,7 L-2,2 Z " fill="#BF7D73" transform="translate(688,566)"/>
<path d="M0,0 L1,0 L1,11 L3,11 L3,0 L4,0 L5,9 L7,9 L7,11 L5,11 L5,30 L4,30 L4,12 L0,12 Z " fill="#9C6F5A" transform="translate(326,634)"/>
<path d="M0,0 L6,0 L5,7 L1,7 L1,10 L-4,11 L-2,7 Z M-5,11 Z M-6,12 Z " fill="#D2967D" transform="translate(587,408)"/>
<path d="M0,0 L3,2 L2,3 L1,10 L-3,14 L-5,14 L-5,10 L-7,10 L-6,6 L-1,4 Z " fill="#EEAA95" transform="translate(616,388)"/>
<path d="M0,0 L1,0 L1,6 L3,6 L2,10 L1,7 L-1,7 L-1,10 L1,11 L-1,19 L-2,17 L-6,18 L-6,16 L-4,16 L-4,10 L-2,10 L-2,6 L0,6 Z " fill="#A87158" transform="translate(542,442)"/>
<path d="M0,0 L4,0 L4,6 L6,6 L6,8 L8,8 L8,14 L12,14 L11,16 L9,15 L9,17 L7,17 L7,15 L4,14 L3,9 L2,8 L3,1 Z " fill="#AB725E" transform="translate(390,448)"/>
<path d="M0,0 L7,1 L5,6 L2,9 L2,5 L0,5 Z M-2,6 L0,6 L3,12 L-1,14 Z " fill="#BC7F63" transform="translate(543,443)"/>
<path d="M0,0 L1,0 L1,5 L-2,11 L-6,12 L-6,8 L-7,4 Z " fill="#CD8D7E" transform="translate(646,642)"/>
<path d="M0,0 L1,3 L6,3 L7,0 L7,4 L1,4 L1,6 L-1,6 L-1,8 L-6,12 L-7,14 L-11,14 L-12,16 L-13,12 L-8,13 L-8,11 L-10,10 L-4,6 L0,5 L-1,1 Z " fill="#A47260" transform="translate(635,678)"/>
<path d="M0,0 L1,0 L1,5 L3,5 L3,0 L4,0 L4,6 L2,6 L2,12 L0,12 L0,14 L-2,14 L-2,18 L-4,18 L-5,20 L-6,17 L-3,17 L-4,10 L-1,6 L-1,11 L1,11 Z " fill="#A36B60" transform="translate(708,532)"/>
<path d="M0,0 L3,1 L2,5 L0,5 L-1,13 L-4,18 L-9,18 L-9,16 L-5,16 L-4,11 Z " fill="#C38D7D" transform="translate(597,363)"/>
<path d="M0,0 L7,0 L7,2 L-2,3 L-2,5 L-6,7 L-11,5 L-10,2 Z M-8,4 Z " fill="#EBA88A" transform="translate(410,542)"/>
<path d="M0,0 L2,1 L0,4 L-7,6 L-9,5 L-9,7 L-11,7 L-11,1 Z " fill="#DB967D" transform="translate(383,535)"/>
<path d="M0,0 L2,0 L2,3 L5,4 L2,5 L2,7 L-6,7 L-7,4 L-4,1 Z " fill="#D3937D" transform="translate(366,532)"/>
<path d="M0,0 L10,0 L13,1 L13,4 L2,4 L0,3 Z " fill="#F6BEA0" transform="translate(429,676)"/>
<path d="M0,0 L7,0 L4,4 L2,7 L-6,8 L-6,6 L-2,5 L-1,1 Z " fill="#D28B73" transform="translate(382,524)"/>
<path d="M0,0 L2,2 L-1,7 L-4,12 L-6,19 L-8,17 L-6,10 L-5,6 L-3,6 L-1,2 Z " fill="#D28C7D" transform="translate(668,590)"/>
<path d="M0,0 L5,0 L6,2 L1,2 L1,4 L-2,4 L-2,6 L-6,6 L-6,9 L-10,10 L-7,4 Z " fill="#CA8C77" transform="translate(348,532)"/>
<path d="M0,0 L5,0 L5,2 L0,6 L-1,15 L-3,15 L-3,2 L0,2 Z " fill="#C48570" transform="translate(374,445)"/>
<path d="M0,0 L4,1 L1,1 L1,3 L5,4 L1,4 L1,6 L-3,6 L-3,8 L-5,8 L-5,10 L-11,10 L-7,8 L-11,6 L-5,5 L-3,4 L0,5 L0,3 L-2,2 Z " fill="#A1665B" transform="translate(659,660)"/>
<path d="M0,0 L1,0 L2,9 L-4,8 L-5,5 L-8,4 L-8,2 L-4,1 L-1,2 Z " fill="#BD846C" transform="translate(327,621)"/>
<path d="M0,0 L1,0 L1,7 L4,7 L5,5 L6,7 L6,18 L4,18 L4,14 L2,14 L2,8 L0,8 Z " fill="#A6735E" transform="translate(308,600)"/>
<path d="M0,0 L2,0 L2,2 L0,3 L-2,19 L-4,19 L-5,21 L-4,14 L-3,2 Z " fill="#D79C7B" transform="translate(570,460)"/>
<path d="M0,0 L2,4 L4,12 L4,25 L2,23 L1,10 L0,9 Z " fill="#E19780" transform="translate(695,404)"/>
<path d="M0,0 L3,1 L2,5 L2,3 L-1,3 L-1,8 L4,6 L2,10 L-1,13 L-3,13 L-3,11 L-6,12 L-6,10 L-4,10 L-4,8 L-2,8 L-2,2 Z " fill="#B08072" transform="translate(600,348)"/>
<path d="M0,0 L2,1 L0,4 L3,4 L3,6 L-1,6 L-1,9 L-3,9 L-4,12 L-4,10 L-6,10 L-6,8 L-10,7 L-3,6 L-2,1 Z " fill="#BC826C" transform="translate(614,691)"/>
<path d="M0,0 L1,0 L1,18 L-2,23 L-3,23 L-2,16 Z " fill="#D7927D" transform="translate(706,438)"/>
<path d="M0,0 L5,0 L5,2 L7,3 L5,3 L5,5 L11,4 L9,5 L10,8 L8,8 L8,6 L4,6 L4,4 L0,4 L0,2 L-8,2 L-8,1 Z " fill="#A37865" transform="translate(450,716)"/>
<path d="M0,0 L4,1 L4,4 L8,6 L8,9 L6,10 L4,9 L4,6 L0,6 Z " fill="#D29083" transform="translate(680,363)"/>
<path d="M0,0 L5,0 L5,4 L10,5 L9,7 L5,8 L1,5 L-2,3 L1,3 Z " fill="#F1B89B" transform="translate(417,676)"/>
<path d="M0,0 L2,1 L1,3 L-1,3 L1,8 L2,10 L0,11 L-2,15 L-2,9 L-5,9 L-5,16 L-6,16 L-6,8 L-4,8 L-4,6 L-2,6 L-2,2 L0,2 Z " fill="#A47260" transform="translate(566,402)"/>
<path d="M0,0 L5,2 L5,8 L3,8 L2,10 L-1,4 Z " fill="#B1746F" transform="translate(683,600)"/>
<path d="M0,0 L6,0 L5,7 L7,7 L8,10 L3,10 Z " fill="#DA9585" transform="translate(677,369)"/>
<path d="M0,0 L14,0 L14,1 L1,2 L-7,6 L-10,8 L-12,6 L-6,2 Z " fill="#D0977B" transform="translate(556,696)"/>
<path d="M0,0 L7,3 L7,5 L5,5 L5,7 L8,8 L4,8 L4,6 L0,6 L0,4 L-6,4 L-6,3 L0,3 Z " fill="#A77360" transform="translate(370,696)"/>
<path d="M0,0 L3,1 L0,2 L0,4 L-9,5 L-12,8 L-11,4 L-8,1 Z " fill="#CC967D" transform="translate(608,679)"/>
<path d="M0,0 L1,4 L5,6 L7,8 L7,12 L3,11 L3,9 L0,8 L-1,3 Z " fill="#160F0C" transform="translate(311,614)"/>
<path d="M0,0 L5,0 L0,5 L-5,9 L-8,15 L-9,15 L-9,10 L-7,10 L-5,6 L-2,5 L-2,2 L0,2 Z " fill="#D28A74" transform="translate(694,469)"/>
<path d="M0,0 L3,2 L-1,9 L-3,10 L-3,19 L-5,19 L-5,9 Z " fill="#D09577" transform="translate(568,453)"/>
<path d="M0,0 L11,0 L11,2 L4,4 L3,6 L1,6 L0,10 L-1,6 L0,4 L2,4 L2,2 L0,2 Z " fill="#BA8577" transform="translate(583,363)"/>
<path d="M0,0 L2,0 L3,10 L4,12 L7,12 L6,16 L1,13 L0,11 Z " fill="#D09881" transform="translate(361,664)"/>
<path d="M0,0 L2,1 Z M-3,1 L0,2 L-2,2 L-2,4 L-8,7 L-12,7 L-14,5 L-10,2 L-6,3 Z " fill="#E6A987" transform="translate(604,660)"/>
<path d="M0,0 L1,4 L-1,8 L-6,9 L-6,3 Z " fill="#DD9B86" transform="translate(676,544)"/>
<path d="M0,0 L4,1 L13,2 L13,5 L3,5 L0,2 Z M13,0 Z " fill="#EFB799" transform="translate(473,690)"/>
<path d="M0,0 L4,0 L5,11 L2,10 L2,8 L0,8 Z " fill="#C9927D" transform="translate(356,668)"/>
<path d="M0,0 L3,1 L0,8 L-3,11 L-5,9 L-3,6 Z M-7,10 L-5,11 L-7,12 Z " fill="#DC9E81" transform="translate(614,656)"/>
<path d="M0,0 L9,0 L9,4 L7,5 L-1,3 Z " fill="#F5B997" transform="translate(527,660)"/>
<path d="M0,0 L5,0 L2,8 L1,15 L-1,16 L-1,1 Z " fill="#DE9F80" transform="translate(629,626)"/>
<path d="M0,0 Z M-4,1 L0,1 L0,3 L-7,5 L-10,6 L-11,8 L-16,9 L-14,5 L-9,2 Z " fill="#C38472" transform="translate(352,526)"/>
<path d="M0,0 L6,3 L4,5 L-2,7 L-8,7 L-7,5 L-2,5 L-2,2 L0,2 Z M6,2 Z " fill="#DB957C" transform="translate(402,524)"/>
<path d="M0,0 L5,2 L5,6 L15,6 L15,7 L5,8 L-2,3 L0,2 Z " fill="#B87D65" transform="translate(399,463)"/>
<path d="M0,0 L1,0 L0,14 L-2,13 L-2,9 L-6,9 L-7,12 L-7,8 L-5,8 L-5,6 L0,6 Z " fill="#B07D69" transform="translate(565,418)"/>
<path d="M0,0 L1,0 L2,12 L4,13 L2,13 L1,15 L-2,13 L-1,3 Z M-3,8 Z " fill="#F2AD92" transform="translate(612,404)"/>
<path d="M0,0 L3,2 L5,13 L5,19 L3,15 L0,8 Z " fill="#C38070" transform="translate(708,385)"/>
<path d="M0,0 L2,3 L3,8 L5,8 L3,13 L0,14 L-1,2 Z " fill="#E5A688" transform="translate(377,658)"/>
<path d="M0,0 L1,0 L0,9 L2,9 L1,16 L-2,15 L-1,9 L-3,9 L-1,3 Z " fill="#CA917C" transform="translate(329,567)"/>
<path d="M0,0 L3,0 L3,2 L1,2 L1,12 L0,14 L-2,14 L-2,2 Z " fill="#C47D68" transform="translate(697,477)"/>
<path d="M0,0 L5,2 L5,0 L7,0 L7,2 L10,3 L7,5 L1,4 L1,2 L-5,2 L-5,1 Z " fill="#F0B698" transform="translate(459,688)"/>
<path d="M0,0 L4,0 L4,2 L9,2 L9,3 L-1,4 L-5,7 L-5,3 Z " fill="#E7AF91" transform="translate(533,675)"/>
<path d="M0,0 Z M-8,1 L0,1 L-1,4 L-6,4 L-8,7 L-10,6 L-12,3 Z " fill="#E29B82" transform="translate(420,528)"/>
<path d="M0,0 L8,0 L8,1 L1,1 L1,3 L8,3 L8,4 L-1,6 L-5,5 L-2,4 L-2,2 L0,2 Z " fill="#A16F63" transform="translate(606,342)"/>
<path d="M0,0 L10,0 L20,2 L20,3 L8,3 L0,1 Z " fill="#CF9C86" transform="translate(464,709)"/>
<path d="M0,0 L7,1 L8,8 L5,5 L0,4 Z " fill="#CD957F" transform="translate(368,681)"/>
<path d="M0,0 L5,2 L6,8 L4,10 L4,8 L2,8 L0,3 Z " fill="#CB8472" transform="translate(699,376)"/>
<path d="M0,0 Z M-5,1 L0,1 L-2,7 L-8,6 L-6,2 Z " fill="#DCA386" transform="translate(566,682)"/>
<path d="M0,0 L4,2 L4,6 L7,7 L4,8 L-2,5 Z " fill="#E8AC93" transform="translate(386,671)"/>
<path d="M0,0 L3,0 L6,7 L8,11 L4,10 L1,4 Z " fill="#DEA38A" transform="translate(376,672)"/>
<path d="M0,0 L1,0 L2,17 L4,18 L2,18 L1,21 L-2,17 L0,17 Z " fill="#B37F68" transform="translate(333,646)"/>
<path d="M0,0 L5,4 L6,7 L4,9 L1,9 L0,5 L2,5 L2,3 L-1,4 Z " fill="#A56F64" transform="translate(699,354)"/>
<path d="M0,0 L11,1 L11,2 L3,3 L-7,3 L-3,1 Z " fill="#E7B093" transform="translate(499,694)"/>
<path d="M0,0 L6,0 L2,2 L-6,10 L-8,10 L-6,6 L-2,4 L-2,2 L0,2 Z " fill="#201613" transform="translate(636,682)"/>
<path d="M0,0 L3,0 L3,9 L-1,11 Z " fill="#B67A67" transform="translate(337,515)"/>
<path d="M0,0 L4,1 L1,1 L3,7 L1,7 L1,9 L-1,9 L-1,7 L-3,7 L-4,10 L-4,6 L-2,6 L-2,4 L0,4 Z " fill="#A26E5C" transform="translate(362,466)"/>
<path d="M0,0 L6,0 L6,4 L-2,6 Z M-3,6 Z " fill="#E9A08C" transform="translate(682,400)"/>
<path d="M0,0 L3,1 L1,7 L0,8 L-1,19 L-2,19 L-2,7 Z " fill="#C58C7B" transform="translate(582,385)"/>
<path d="M0,0 L6,0 L1,6 L-2,5 L-2,1 Z " fill="#BD836D" transform="translate(311,541)"/>
<path d="M0,0 L3,1 L1,3 L-11,3 L-12,1 Z " fill="#C88E70" transform="translate(460,494)"/>
<path d="M0,0 L2,4 L2,11 L-2,9 L-2,3 L0,3 Z " fill="#E6A287" transform="translate(668,482)"/>
<path d="M0,0 L11,1 L12,3 L-1,3 Z " fill="#F8C0A3" transform="translate(468,678)"/>
<path d="M0,0 L1,4 L-1,4 L-1,6 L-3,6 L-3,10 L-5,10 L-6,12 L-7,9 L-4,9 L-6,3 L0,3 Z " fill="#A16A63" transform="translate(679,628)"/>
<path d="M0,0 Z M-5,1 L-1,3 L-3,5 L-5,12 L-7,13 L-6,2 Z M-1,1 Z " fill="#CC937E" transform="translate(334,552)"/>
<path d="M0,0 L1,3 L3,3 L3,1 L5,1 L5,3 L7,4 L3,5 L3,7 L10,7 L10,8 L2,8 L2,4 L0,4 Z " fill="#9E6D5C" transform="translate(344,684)"/>
<path d="M0,0 L3,0 L3,11 L1,9 L1,5 L-1,5 Z " fill="#D59C84" transform="translate(358,648)"/>
<path d="M0,0 L4,1 L0,4 L-3,4 L-4,8 L-6,8 L-6,4 L-4,4 L-3,2 Z " fill="#D1937D" transform="translate(346,540)"/>
<path d="M0,0 L4,0 L4,4 L-1,9 L-4,8 L-2,8 L-2,6 L0,6 Z " fill="#C18664" transform="translate(544,468)"/>
<path d="M0,0 L4,1 L1,7 L-3,6 L-1,1 Z " fill="#F8BFA1" transform="translate(495,672)"/>
<path d="M0,0 L1,3 L-3,5 L-5,9 L-8,10 L-8,7 L-6,7 L-6,4 Z " fill="#DDA37D" transform="translate(562,491)"/>
<path d="M0,0 L5,1 L10,3 L7,4 L0,4 Z " fill="#BA826D" transform="translate(378,701)"/>
<path d="M0,0 L1,0 L1,6 L-3,8 L-4,6 L-3,2 Z " fill="#E3A484" transform="translate(631,616)"/>
<path d="M0,0 L1,0 L1,6 L-3,6 L-3,8 L-7,7 L-4,7 L-4,5 L-7,5 L-7,3 L-2,3 L-2,5 L0,5 Z " fill="#9F6660" transform="translate(695,594)"/>
<path d="M0,0 L3,1 L0,2 L0,5 L-7,5 L-5,2 Z " fill="#DAA07A" transform="translate(556,493)"/>
<path d="M0,0 L1,3 L4,3 L3,9 L1,5 L-1,5 L-2,8 L-2,4 L0,4 Z M4,5 Z M1,9 Z " fill="#A76F5C" transform="translate(348,484)"/>
<path d="M0,0 L1,0 L2,6 L5,9 L1,12 L0,12 Z " fill="#D89A7E" transform="translate(345,617)"/>
<path d="M0,0 L3,3 L2,8 L0,8 L-1,10 L-1,3 Z " fill="#D1957B" transform="translate(337,601)"/>
<path d="M0,0 L1,4 L-4,7 L-6,6 L-3,1 L0,2 Z " fill="#CB916C" transform="translate(560,474)"/>
<path d="M0,0 L3,1 L-1,5 L-3,9 L-5,9 L-4,5 Z " fill="#DD9B89" transform="translate(616,368)"/>
<path d="M0,0 L2,0 L3,7 L0,9 L-1,4 Z " fill="#EFAA8C" transform="translate(645,556)"/>
<path d="M0,0 L8,0 L8,1 L1,1 L1,5 L-5,6 L-2,2 L0,2 Z " fill="#956755" transform="translate(314,536)"/>
<path d="M0,0 L14,1 L10,3 L1,3 L-1,1 Z " fill="#E7A487" transform="translate(418,536)"/>
<path d="M0,0 L2,1 L0,2 Z M-4,0 L-2,0 L-2,2 L0,2 L-1,4 L-8,4 L-8,1 Z " fill="#DB9679" transform="translate(440,511)"/>
<path d="M0,0 L5,0 L1,3 L-2,2 Z M-6,1 L-2,3 L-4,3 L-4,5 L-6,5 L-6,3 L-8,2 Z " fill="#BA8173" transform="translate(609,346)"/>
<path d="M0,0 L4,0 L4,3 L2,4 L-6,4 L-5,2 L0,3 Z " fill="#E1A98C" transform="translate(570,676)"/>
<path d="M0,0 L2,0 L2,6 L0,8 L-3,8 L-1,2 Z " fill="#C2886C" transform="translate(563,438)"/>
<path d="M0,0 L1,0 L1,10 L-2,11 L-1,1 Z " fill="#E1A987" transform="translate(594,438)"/>
<path d="M0,0 L6,0 L13,2 L13,3 L5,3 L0,2 Z " fill="#BB8873" transform="translate(405,708)"/>
<path d="M0,0 L4,2 L4,4 L1,4 L1,6 L4,7 L0,7 L-1,1 Z " fill="#A9755F" transform="translate(318,619)"/>
<path d="M0,0 L1,4 L1,7 L3,8 L-2,8 L-2,2 Z " fill="#B97868" transform="translate(700,544)"/>
<path d="M0,0 L1,0 L2,10 L-2,13 L-1,9 L-1,1 Z " fill="#CD8B7B" transform="translate(687,530)"/>
<path d="M0,0 L6,0 L4,3 L-4,4 L-4,2 Z " fill="#D48E76" transform="translate(380,528)"/>
<path d="M0,0 L4,0 L2,4 L-2,6 L-2,3 L0,3 Z " fill="#B67F6A" transform="translate(629,681)"/>
<path d="M0,0 L5,1 L4,5 L-2,5 L2,3 L-2,1 Z " fill="#A86B62" transform="translate(650,665)"/>
<path d="M0,0 L3,1 L1,3 L3,5 L-1,10 L-1,2 Z " fill="#CF8B7E" transform="translate(648,632)"/>
<path d="M0,0 L2,1 L0,4 L-8,3 L-5,1 Z " fill="#E5A386" transform="translate(461,528)"/>
<path d="M0,0 L2,0 L3,4 L2,6 L-2,6 L-2,3 L0,3 Z " fill="#BD7D68" transform="translate(347,489)"/>
<path d="M0,0 L13,2 L13,3 L0,3 Z " fill="#B4846F" transform="translate(461,722)"/>
<path d="M0,0 L3,0 L3,2 L8,3 L10,5 L4,4 L0,2 Z " fill="#CE9279" transform="translate(376,691)"/>
<path d="M0,0 L3,1 L3,4 L6,5 L7,8 L3,6 L2,3 L0,3 Z " fill="#DAA188" transform="translate(372,672)"/>
<path d="M0,0 L3,2 L3,7 L0,8 Z " fill="#E2A38B" transform="translate(359,589)"/>
<path d="M0,0 L4,1 L0,5 L-2,5 L-1,1 Z M-5,5 L-2,6 Z " fill="#ECAA89" transform="translate(528,528)"/>
<path d="M0,0 L7,0 L6,3 L2,4 L2,2 L0,2 Z " fill="#E39F82" transform="translate(434,528)"/>
<path d="M0,0 L4,2 L4,0 L7,1 L4,4 L0,5 Z " fill="#E29C82" transform="translate(426,527)"/>
<path d="M0,0 L1,0 L1,5 L-4,7 L-4,4 L-2,4 L-2,1 Z " fill="#E9AE88" transform="translate(562,506)"/>
<path d="M0,0 L2,0 L2,2 L0,2 L0,5 L-6,4 L-5,2 Z " fill="#C78A6E" transform="translate(434,493)"/>
<path d="M0,0 L2,0 L4,3 L3,7 L1,10 Z " fill="#EEA98A" transform="translate(660,470)"/>
<path d="M0,0 L5,0 L5,2 L0,6 L-1,2 Z " fill="#BD7E6A" transform="translate(374,445)"/>
<path d="M0,0 L2,0 L2,2 L4,2 L5,7 L2,7 L2,3 L0,3 Z " fill="#D39981" transform="translate(375,682)"/>
<path d="M0,0 L2,3 L0,9 L-1,9 L-1,1 Z " fill="#E6A286" transform="translate(668,526)"/>
<path d="M0,0 L5,0 L3,5 L0,4 Z " fill="#F4B991" transform="translate(620,468)"/>
<path d="M0,0 L1,0 L1,6 L5,6 L4,8 L2,7 L2,9 L0,9 L0,7 L-2,6 L0,6 Z " fill="#9D6B58" transform="translate(397,456)"/>
<path d="M0,0 L2,1 L-3,8 L-4,5 L-3,1 Z " fill="#DEA482" transform="translate(584,451)"/>
<path d="M0,0 L2,2 L1,5 L-3,5 L-3,1 Z " fill="#F9B397" transform="translate(639,435)"/>
<path d="M0,0 L4,0 L4,4 L0,5 Z " fill="#F8BA90" transform="translate(616,512)"/>
<path d="M0,0 L3,1 L2,5 L2,3 L-1,3 L-1,8 L-2,8 L-2,2 Z " fill="#9C6F63" transform="translate(600,348)"/>
<path d="M0,0 L3,4 L2,7 L-1,7 Z " fill="#BC8369" transform="translate(314,610)"/>
<path d="M0,0 L4,2 L2,8 L1,8 Z " fill="#E29B8B" transform="translate(644,594)"/>
<path d="M0,0 L4,0 L4,4 L0,4 Z " fill="#FDC29A" transform="translate(544,596)"/>
<path d="M0,0 L2,0 L1,5 L-3,5 L-3,3 L0,3 Z " fill="#BD796C" transform="translate(663,658)"/>
<path d="M0,0 L3,0 L3,5 L0,5 Z " fill="#D99C83" transform="translate(353,628)"/>
<path d="M0,0 L1,4 L-1,4 L-1,6 L-3,6 L-2,1 Z M-4,6 Z " fill="#DB9586" transform="translate(647,612)"/>
<path d="M0,0 L4,0 L2,6 L0,4 Z M0,6 Z " fill="#EAA391" transform="translate(644,574)"/>
<path d="M0,0 L3,1 L4,5 L2,8 Z " fill="#CE947D" transform="translate(349,648)"/>
<path d="M0,0 L3,2 L1,7 L-1,6 Z " fill="#E5A88B" transform="translate(608,644)"/>
<path d="M0,0 L3,1 L2,4 L-3,4 L-2,2 Z " fill="#DE9D87" transform="translate(366,544)"/>
<path d="M0,0 L4,1 L1,1 L1,5 L-3,3 L0,2 Z " fill="#9B6959" transform="translate(328,526)"/>
<path d="M0,0 L1,2 L3,3 L-2,4 L-4,3 Z " fill="#C68571" transform="translate(363,510)"/>
<path d="M0,0 L2,1 L2,4 L-2,5 L-2,2 Z " fill="#CB8772" transform="translate(706,465)"/>
<path d="M0,0 L6,0 L5,3 L0,2 Z " fill="#B97F6B" transform="translate(553,433)"/>
<path d="M0,0 L2,1 L2,4 L4,5 L2,5 L1,7 L0,6 Z " fill="#F7AF95" transform="translate(612,412)"/>
<path d="M0,0 L3,3 L0,7 L-1,3 Z " fill="#E69E8D" transform="translate(679,386)"/>
<path d="M0,0 L3,0 L4,3 L1,6 Z " fill="#E7A889" transform="translate(612,636)"/>
<path d="M0,0 L2,0 L2,5 L-2,3 L0,2 Z " fill="#E8A989" transform="translate(628,606)"/>
<path d="M0,0 L4,1 L2,4 L0,4 L0,2 L-2,1 Z " fill="#B57E68" transform="translate(311,541)"/>
<path d="M0,0 Z M-3,1 L0,2 L0,4 L-4,5 Z " fill="#CB916D" transform="translate(544,488)"/>
<path d="M0,0 L2,0 L2,2 L4,3 L1,5 Z M4,0 Z " fill="#BD7F6A" transform="translate(359,473)"/>
<path d="M0,0 L2,0 L1,4 L0,2 L-5,2 L-5,1 Z " fill="#B67D6E" transform="translate(603,705)"/>
<path d="M0,0 L7,0 L5,3 L3,3 L3,1 Z " fill="#E3AB8F" transform="translate(539,680)"/>
<path d="M0,0 L3,1 L3,3 L-3,4 Z " fill="#976453" transform="translate(352,480)"/>
<path d="M0,0 L3,0 L2,3 L-2,4 Z " fill="#D18A76" transform="translate(701,465)"/>
<path d="M0,0 L3,0 L3,2 L1,2 L0,6 L0,2 L-2,1 Z " fill="#B3795F" transform="translate(545,441)"/>
<path d="M0,0 L3,0 L3,4 L0,4 Z " fill="#D59A7C" transform="translate(581,436)"/>
<path d="M0,0 L2,1 L2,5 L0,5 L-1,1 Z " fill="#C07E73" transform="translate(665,644)"/>
<path d="M0,0 L3,1 L3,4 L0,4 Z " fill="#B7766D" transform="translate(670,633)"/>
<path d="M0,0 L3,0 L3,4 L1,4 Z " fill="#C07F74" transform="translate(644,669)"/>
<path d="M0,0 L2,0 L2,4 L-1,3 Z " fill="#E1A384" transform="translate(629,626)"/>
<path d="M0,0 L2,1 L0,5 L-1,1 Z " fill="#EEA988" transform="translate(376,612)"/>
<path d="M0,0 L2,2 L-1,6 L-2,2 Z " fill="#F4AE92" transform="translate(646,545)"/>
<path d="M0,0 L2,1 L1,4 L-2,3 L-2,1 Z " fill="#F2B48D" transform="translate(558,524)"/>
<path d="M0,0 L3,1 L3,3 L-1,3 Z " fill="#D48E74" transform="translate(417,508)"/>
<path d="M0,0 L5,1 L4,3 L0,2 Z " fill="#C68E71" transform="translate(490,492)"/>
<path d="M0,0 L3,0 L1,4 L-1,1 Z " fill="#E6A488" transform="translate(669,472)"/>
<path d="M0,0 L3,1 L1,3 L-2,2 Z " fill="#E3A489" transform="translate(360,604)"/>
<path d="M0,0 L2,3 L0,5 L-1,1 Z " fill="#F2AB8C" transform="translate(377,594)"/>
<path d="M0,0 L4,1 L4,3 L0,2 Z " fill="#C0826F" transform="translate(329,527)"/>
<path d="M0,0 L3,1 L3,4 L1,4 Z " fill="#C17C69" transform="translate(716,467)"/>
<path d="M0,0 L3,0 L1,4 Z " fill="#B47C62" transform="translate(533,463)"/>
<path d="M0,0 L2,0 L3,3 L0,3 Z " fill="#EDB698" transform="translate(414,680)"/>
<path d="M0,0 L1,3 L-2,4 Z " fill="#DD9D82" transform="translate(623,647)"/>
<path d="M0,0 L4,1 L1,3 Z " fill="#BF816C" transform="translate(345,514)"/>
<path d="M0,0 L2,2 L-1,3 Z " fill="#E9A188" transform="translate(381,546)"/>
</svg>
