<?xml version="1.0" encoding="UTF-8"?>
<!-- Generator: visioncortex VTracer 0.6.4 -->
<svg version="1.1" xmlns="http://www.w3.org/2000/svg" width="1024" height="1024">
<path d="M0,0 L1024,0 L1024,1024 L0,1024 Z " fill="#000000" transform="translate(0,0)"/>
<path d="M0,0 L10,0 L10,4 L16,4 L18,7 L24,8 L24,10 L30,10 L30,12 L36,12 L36,16 L46,16 L46,18 L50,18 L50,20 L52,20 L52,24 L54,24 L54,26 L58,26 L62,30 L62,34 L64,34 L64,36 L66,36 L66,40 L68,40 L68,42 L70,42 L70,46 L72,46 L72,62 L74,62 L74,68 L76,68 L76,76 L82,76 L82,80 L84,80 L84,84 L86,84 L86,152 L84,152 L84,176 L78,176 L78,180 L76,180 L76,188 L78,188 L78,190 L82,190 L82,198 L84,198 L84,214 L82,214 L82,218 L84,218 L84,234 L86,234 L86,248 L84,248 L84,274 L76,274 L76,262 L72,262 L72,274 L70,274 L70,276 L68,276 L68,280 L64,280 L64,282 L62,282 L62,288 L60,288 L60,290 L58,290 L58,292 L56,292 L56,300 L54,300 L54,306 L52,306 L52,308 L48,308 L48,310 L44,310 L44,312 L38,312 L38,314 L34,314 L34,316 L28,316 L28,318 L22,318 L22,320 L16,320 L16,322 L8,322 L8,324 L2,324 L2,326 L-6,326 L-6,328 L-14,328 L-14,330 L-16,330 L-16,334 L-24,334 L-24,330 L-30,330 L-30,328 L-32,328 L-32,330 L-36,330 L-36,332 L-38,332 L-38,334 L-40,334 L-40,340 L-48,340 L-48,342 L-58,342 L-58,344 L-64,344 L-64,342 L-68,342 L-68,344 L-116,344 L-116,342 L-134,342 L-134,344 L-154,344 L-154,342 L-158,342 L-158,340 L-162,340 L-162,338 L-166,338 L-166,336 L-171,335 L-172,332 L-176,332 L-176,338 L-180,338 L-180,340 L-184,340 L-184,342 L-194,342 L-194,340 L-200,340 L-200,336 L-204,336 L-204,330 L-210,330 L-210,328 L-222,328 L-222,326 L-228,326 L-228,324 L-232,324 L-232,322 L-236,322 L-236,320 L-240,320 L-240,316 L-242,316 L-242,312 L-244,312 L-246,307 L-248,306 L-248,302 L-250,302 L-250,298 L-254,296 L-254,294 L-258,294 L-258,292 L-262,292 L-268,285 L-270,284 L-270,280 L-274,280 L-274,276 L-278,276 L-282,272 L-282,268 L-284,268 L-284,264 L-286,264 L-286,260 L-288,260 L-288,256 L-292,256 L-292,254 L-294,254 L-294,244 L-296,244 L-296,236 L-298,236 L-298,228 L-300,228 L-300,224 L-302,224 L-302,216 L-304,216 L-304,212 L-308,212 L-308,206 L-306,206 L-306,200 L-304,200 L-304,186 L-302,186 L-302,184 L-300,184 L-300,176 L-298,176 L-298,152 L-296,152 L-296,148 L-298,148 L-298,144 L-300,144 L-300,140 L-306,140 L-306,132 L-300,132 L-300,128 L-298,128 L-298,122 L-296,122 L-296,116 L-294,116 L-294,114 L-292,114 L-292,106 L-290,106 L-290,102 L-286,102 L-286,98 L-284,98 L-284,94 L-282,94 L-282,92 L-276,92 L-276,90 L-272,90 L-272,88 L-270,88 L-270,82 L-266,82 L-266,80 L-264,80 L-264,78 L-262,78 L-262,76 L-264,76 L-264,60 L-260,60 L-260,58 L-250,58 L-250,60 L-246,60 L-246,58 L-244,58 L-244,56 L-246,56 L-246,50 L-244,50 L-244,48 L-238,48 L-238,46 L-234,46 L-234,42 L-228,42 L-228,38 L-222,38 L-222,40 L-216,40 L-216,42 L-206,42 L-206,40 L-188,40 L-188,42 L-182,42 L-178,47 L-172,48 L-172,54 L-174,54 L-174,56 L-170,58 L-170,60 L-164,60 L-164,58 L-162,58 L-162,56 L-158,56 L-158,52 L-156,52 L-156,48 L-152,48 L-152,44 L-144,44 L-144,42 L-136,42 L-136,36 L-128,36 L-128,32 L-126,32 L-126,28 L-116,28 L-116,26 L-114,26 L-114,24 L-80,24 L-80,22 L-78,22 L-78,18 L-72,18 L-72,16 L-66,16 L-66,14 L-62,14 L-62,12 L-54,12 L-54,10 L-40,10 L-40,8 L-20,8 L-20,6 L-16,6 L-16,4 L-10,4 L-10,2 L0,2 Z " fill="#F0C6A5" transform="translate(634,362)"/>
<path d="M0,0 L10,0 L10,4 L16,4 L18,7 L24,8 L24,10 L30,10 L30,12 L36,12 L36,16 L46,16 L46,18 L50,18 L50,20 L52,20 L52,24 L54,24 L54,26 L58,26 L62,30 L62,34 L64,34 L64,36 L66,36 L66,40 L68,40 L68,42 L70,42 L70,46 L72,46 L72,62 L74,62 L74,68 L76,68 L76,76 L82,76 L82,80 L84,80 L84,84 L86,84 L86,152 L84,152 L84,176 L78,176 L78,180 L76,180 L76,188 L78,188 L78,190 L82,190 L82,198 L84,198 L84,214 L82,214 L82,218 L84,218 L84,234 L86,234 L86,248 L84,248 L84,274 L76,274 L76,262 L72,262 L72,274 L70,274 L70,276 L68,276 L68,280 L64,280 L64,282 L62,282 L62,288 L60,288 L60,290 L58,290 L58,292 L56,292 L56,300 L54,300 L54,306 L52,306 L52,308 L48,308 L48,310 L44,310 L44,312 L38,312 L38,314 L34,314 L34,316 L28,316 L28,318 L22,318 L22,320 L16,320 L16,322 L8,322 L8,324 L2,324 L2,326 L-6,326 L-6,328 L-14,328 L-14,330 L-16,330 L-16,334 L-24,334 L-24,330 L-30,330 L-30,328 L-32,328 L-32,330 L-36,330 L-36,332 L-38,332 L-38,334 L-40,334 L-40,340 L-48,340 L-48,342 L-58,342 L-58,344 L-64,344 L-64,342 L-68,342 L-68,344 L-116,344 L-116,342 L-134,342 L-134,344 L-154,344 L-154,342 L-158,342 L-158,340 L-162,340 L-162,338 L-166,338 L-166,336 L-171,335 L-172,332 L-176,332 L-176,338 L-180,338 L-180,340 L-184,340 L-184,342 L-194,342 L-194,340 L-200,340 L-200,336 L-204,336 L-204,330 L-210,330 L-210,328 L-222,328 L-222,326 L-228,326 L-228,325 L-222,325 L-222,323 L-225,322 L-221,322 L-221,324 L-194,324 L-190,324 L-123,324 L-123,326 L-118,325 L-116,324 L-114,325 L-113,328 L-109,325 L-102,324 L-93,325 L-84,324 L-82,326 L-81,325 L-42,322 L-18,322 L-2,319 L4,316 L12,316 L12,314 L18,311 L28,309 L33,308 L34,305 L40,304 L41,293 L46,289 L48,289 L51,286 L47,286 L48,276 L50,274 L51,260 L51,255 L53,251 L53,247 L57,244 L58,236 L59,223 L64,215 L65,214 L65,197 L64,172 L65,164 L61,163 L60,162 L60,154 L63,147 L64,146 L64,136 L65,131 L65,126 L66,122 L65,116 L60,117 L59,113 L65,111 L64,106 L65,102 L65,100 L62,100 L63,96 L65,97 L64,90 L62,90 L63,83 L64,70 L61,70 L61,65 L64,64 L64,50 L65,47 L62,47 L62,56 L60,56 L58,53 L58,46 L57,43 L53,43 L51,38 L51,35 L45,34 L44,30 L32,29 L31,27 L37,25 L39,21 L35,20 L35,18 L32,18 L32,16 L24,17 L21,14 L18,14 L16,12 L10,11 L12,10 L12,8 L9,8 L8,6 L1,6 L-6,7 L-10,11 L-8,12 L-14,14 L-19,12 L-29,14 L-34,13 L-46,16 L-51,15 L-57,16 L-58,18 L-62,17 L-62,15 L-65,15 L-65,17 L-63,17 L-63,19 L-73,23 L-77,28 L-73,27 L-75,31 L-82,32 L-82,29 L-90,33 L-91,34 L-98,34 L-100,33 L-100,31 L-108,30 L-110,29 L-121,35 L-131,43 L-135,46 L-147,49 L-154,56 L-155,53 L-157,53 L-158,56 L-158,52 L-156,52 L-156,48 L-152,48 L-152,44 L-144,44 L-144,42 L-136,42 L-136,36 L-128,36 L-128,32 L-126,32 L-126,28 L-116,28 L-116,26 L-114,26 L-114,24 L-80,24 L-80,22 L-78,22 L-78,18 L-72,18 L-72,16 L-66,16 L-66,14 L-62,14 L-62,12 L-54,12 L-54,10 L-40,10 L-40,8 L-20,8 L-20,6 L-16,6 L-16,4 L-10,4 L-10,2 L0,2 Z M-11,11 Z M-79,29 Z M-8,10 Z M59,56 Z M-84,323 Z " fill="#D9C099" transform="translate(634,362)"/>
<path d="M0,0 L6,0 L6,2 L12,2 L12,4 L22,4 L22,2 L40,2 L40,4 L46,4 L50,9 L56,10 L56,16 L54,16 L54,18 L58,20 L58,22 L64,22 L64,20 L66,20 L66,18 L70,19 L67,19 L67,21 L70,22 L64,26 L58,26 L51,21 L51,19 L49,19 L50,14 L45,11 L45,9 L36,8 L35,7 L27,8 L25,7 L21,9 L14,10 L8,7 L4,6 L-4,12 L-12,16 L-13,23 L-21,27 L-22,25 L-29,25 L-31,27 L-31,35 L-30,42 L-37,49 L-41,55 L-50,60 L-59,71 L-62,83 L-65,84 L-63,89 L-70,97 L-70,100 L-67,100 L-63,113 L-66,120 L-64,121 L-64,129 L-65,132 L-66,140 L-66,153 L-65,158 L-65,164 L-68,169 L-68,174 L-66,175 L-65,188 L-63,193 L-62,202 L-63,205 L-57,207 L-57,209 L-54,208 L-53,199 L-51,199 L-54,191 L-53,188 L-51,189 L-50,180 L-48,183 L-46,186 L-46,193 L-48,196 L-48,216 L-46,216 L-46,218 L-44,218 L-40,231 L-40,233 L-35,233 L-32,237 L-32,239 L-28,240 L-30,241 L-30,245 L-25,246 L-24,249 L-20,248 L-20,251 L-15,253 L-16,265 L-14,265 L-13,269 L-15,273 L-13,273 L-13,271 L-6,270 L-5,272 L-7,272 L-6,279 L-11,279 L-11,281 L-5,280 L-7,281 L-7,283 L1,282 L-3,283 L-3,285 L0,286 L-4,286 L-4,284 L-8,284 L-8,282 L-12,282 L-12,278 L-14,278 L-14,274 L-16,274 L-18,269 L-20,268 L-20,264 L-22,264 L-22,260 L-26,258 L-26,256 L-30,256 L-30,254 L-34,254 L-40,247 L-42,246 L-42,242 L-46,242 L-46,238 L-50,238 L-54,234 L-54,230 L-56,230 L-56,226 L-58,226 L-58,222 L-60,222 L-60,218 L-64,218 L-64,216 L-66,216 L-66,206 L-68,206 L-68,198 L-70,198 L-70,190 L-72,190 L-72,186 L-74,186 L-74,178 L-76,178 L-76,174 L-80,174 L-80,168 L-78,168 L-78,162 L-76,162 L-76,148 L-74,148 L-74,146 L-72,146 L-72,138 L-70,138 L-70,114 L-68,114 L-68,110 L-70,110 L-70,106 L-72,106 L-72,102 L-78,102 L-78,94 L-72,94 L-72,90 L-70,90 L-70,84 L-68,84 L-68,78 L-66,78 L-66,76 L-64,76 L-64,68 L-62,68 L-62,64 L-58,64 L-58,60 L-56,60 L-56,56 L-54,56 L-54,54 L-48,54 L-48,52 L-44,52 L-44,50 L-42,50 L-42,44 L-38,44 L-38,42 L-36,42 L-36,40 L-34,40 L-34,38 L-36,38 L-36,22 L-32,22 L-32,20 L-22,20 L-22,22 L-18,22 L-18,20 L-16,20 L-16,18 L-18,18 L-18,12 L-16,12 L-16,10 L-10,10 L-10,8 L-6,8 L-6,4 L0,4 Z M-66,87 Z M-66,102 Z " fill="#D9C09D" transform="translate(406,400)"/>
<path d="M0,0 L10,0 L10,4 L16,4 L18,7 L24,8 L24,10 L30,10 L30,12 L36,12 L36,16 L46,16 L46,18 L50,18 L50,20 L52,20 L52,24 L54,24 L54,26 L58,26 L62,30 L62,34 L64,34 L64,36 L66,36 L66,40 L68,40 L68,42 L70,42 L70,46 L72,46 L72,62 L74,62 L74,68 L76,68 L76,76 L82,76 L82,80 L84,80 L84,84 L86,84 L86,152 L84,152 L84,176 L78,176 L78,175 L83,175 L83,152 L81,152 L81,173 L78,172 L80,172 L80,158 L78,158 L78,146 L79,142 L79,131 L81,131 L81,118 L79,118 L78,110 L71,110 L73,104 L70,96 L68,68 L70,62 L71,47 L69,47 L69,62 L66,62 L65,48 L62,47 L62,56 L60,56 L58,53 L58,46 L57,43 L53,43 L51,38 L51,35 L45,34 L44,30 L32,29 L31,27 L37,25 L39,21 L35,20 L35,18 L32,18 L32,16 L24,17 L21,14 L18,14 L16,12 L10,11 L12,10 L12,8 L9,8 L8,6 L1,6 L-6,7 L-10,11 L-8,12 L-14,14 L-19,12 L-29,14 L-34,13 L-46,16 L-51,15 L-57,16 L-58,18 L-62,17 L-62,15 L-65,15 L-65,17 L-63,17 L-63,19 L-73,23 L-77,28 L-73,27 L-75,31 L-82,32 L-82,29 L-90,33 L-91,34 L-98,34 L-100,33 L-100,31 L-108,30 L-110,29 L-121,35 L-131,43 L-135,46 L-147,49 L-154,56 L-155,53 L-157,53 L-158,56 L-158,52 L-156,52 L-156,48 L-152,48 L-152,44 L-144,44 L-144,42 L-136,42 L-136,36 L-128,36 L-128,32 L-126,32 L-126,28 L-116,28 L-116,26 L-114,26 L-114,24 L-80,24 L-80,22 L-78,22 L-78,18 L-72,18 L-72,16 L-66,16 L-66,14 L-62,14 L-62,12 L-54,12 L-54,10 L-40,10 L-40,8 L-20,8 L-20,6 L-16,6 L-16,4 L-10,4 L-10,2 L0,2 Z M-11,11 Z M-79,29 Z M-8,10 Z M59,56 Z " fill="#D89E8B" transform="translate(634,362)"/>
<path d="M0,0 L2,0 L2,15 L0,22 L2,49 L5,59 L3,62 L9,63 L10,71 L12,71 L12,84 L10,84 L11,98 L10,99 L9,111 L11,111 L11,125 L12,126 L12,105 L14,105 L14,128 L9,128 L9,133 L7,133 L7,141 L9,141 L9,143 L13,143 L13,151 L15,151 L15,167 L13,167 L13,171 L15,171 L15,187 L17,187 L17,201 L15,201 L15,227 L7,227 L7,215 L3,215 L3,227 L1,227 L1,229 L-1,229 L-1,233 L-5,232 L-2,232 L-3,227 L-1,214 L-1,209 L2,200 L1,195 L1,183 L0,180 L1,175 L2,167 L2,155 L0,154 L0,145 L-1,144 L-1,119 L0,102 L2,93 L0,93 L2,86 L4,85 L3,80 L4,77 L2,77 L3,71 L1,71 L-1,69 L-2,57 L-2,52 L-4,52 L-5,43 L-7,43 L-6,36 L-5,23 L-8,23 L-8,18 L-5,17 L-5,3 L-3,1 L-3,15 L0,15 Z " fill="#D2B39D" transform="translate(703,409)"/>
<path d="M0,0 L2,0 L2,5 L6,6 L6,10 L11,11 L12,20 L11,22 L13,22 L13,24 L16,24 L16,26 L24,27 L24,29 L30,29 L34,33 L38,35 L38,38 L44,38 L48,40 L49,42 L53,42 L54,44 L54,53 L52,55 L51,62 L53,62 L55,64 L60,65 L60,68 L66,70 L66,74 L102,75 L106,76 L156,77 L215,76 L228,75 L254,74 L256,73 L270,72 L276,70 L290,69 L288,70 L288,72 L278,74 L274,76 L258,79 L234,79 L195,82 L193,83 L192,81 L182,82 L172,81 L165,83 L162,85 L162,81 L158,82 L155,83 L152,81 L89,81 L86,80 L85,82 L82,81 L71,81 L55,80 L54,81 L48,81 L48,79 L45,79 L44,77 L41,77 L40,75 L37,75 L37,73 L42,73 L41,66 L41,65 L35,65 L35,67 L33,67 L34,59 L32,59 L32,47 L28,45 L28,42 L24,43 L22,40 L18,39 L16,33 L13,28 L8,27 L4,15 L4,12 L2,12 L2,10 L0,10 L-1,1 Z M192,79 Z " fill="#DFCEA3" transform="translate(358,606)"/>
<path d="M0,0 L4,0 L5,4 L3,5 L3,12 L7,12 L7,19 L3,21 L2,23 L-7,24 L-7,26 L-13,27 L-35,27 L-39,29 L-43,28 L-43,30 L-47,31 L-102,32 L-103,33 L-145,34 L-187,34 L-205,33 L-217,30 L-223,26 L-223,25 L-216,25 L-215,23 L-215,25 L-201,25 L-201,23 L-192,23 L-191,24 L-185,24 L-184,23 L-178,23 L-171,25 L-171,23 L-156,25 L-156,26 L-147,28 L-147,25 L-140,23 L-139,26 L-145,28 L-141,30 L-135,28 L-129,29 L-129,27 L-137,25 L-136,23 L-129,23 L-129,25 L-121,24 L-117,25 L-108,25 L-105,24 L-78,24 L-71,23 L-67,24 L-65,23 L-54,22 L-54,24 L-48,22 L-19,22 L-17,23 L-17,19 L-9,20 L-6,16 L0,16 L0,14 L1,13 L-1,9 Z M-213,29 Z " fill="#F2DFB2" transform="translate(649,644)"/>
<path d="M0,0 L3,1 L3,3 L5,3 L6,8 L7,19 L8,22 L10,22 L9,28 L11,28 L11,33 L12,37 L10,37 L7,44 L10,43 L9,48 L8,53 L7,70 L7,95 L8,96 L8,103 L7,105 L10,106 L10,119 L9,129 L8,132 L9,139 L9,146 L10,151 L7,161 L6,174 L5,183 L2,183 L2,186 L-1,186 L-1,191 L-3,191 L-4,186 L-6,186 L-6,182 L-9,183 L-10,190 L-15,190 L-14,180 L-12,178 L-11,164 L-11,159 L-9,155 L-9,151 L-5,148 L-4,140 L-3,127 L2,119 L3,118 L3,101 L2,76 L3,68 L-1,67 L-2,66 L-2,58 L1,51 L2,50 L2,40 L3,35 L3,30 L4,26 L3,20 L-2,21 L-3,17 L3,15 L2,10 L3,6 L3,4 L0,4 Z " fill="#DEBDA2" transform="translate(696,458)"/>
<path d="M0,0 L2,1 L3,8 L7,10 L7,28 L8,43 L8,60 L4,65 L2,69 L1,82 L0,90 L-5,94 L-4,99 L-6,101 L-6,113 L-7,120 L-9,122 L-11,132 L-7,132 L-8,135 L-12,137 L-14,137 L-16,140 L-17,148 L-20,151 L-24,152 L-25,154 L-32,157 L-40,158 L-41,159 L-62,162 L-64,163 L-78,164 L-80,165 L-106,166 L-119,167 L-132,167 L-130,165 L-106,163 L-84,162 L-77,159 L-62,159 L-53,157 L-44,154 L-40,154 L-40,152 L-29,150 L-29,148 L-25,148 L-25,133 L-22,124 L-21,120 L-19,120 L-18,113 L-15,105 L-12,100 L-10,99 L-9,92 L-7,92 L-7,84 L-6,82 L-6,68 L-4,66 L-5,61 L-2,58 L0,35 L0,29 L-3,27 L-2,22 L-1,17 L-2,10 L-1,10 L-1,1 Z " fill="#E8C0A6" transform="translate(692,516)"/>
<path d="M0,0 L2,2 L1,5 L-3,5 L-3,7 L-15,10 L-19,12 L-31,13 L-40,13 L-47,16 L-69,17 L-93,19 L-95,20 L-144,21 L-191,20 L-197,19 L-223,18 L-231,17 L-231,13 L-235,12 L-237,11 L-237,8 L-243,8 L-244,5 L-229,6 L-223,10 L-211,13 L-187,14 L-141,14 L-109,13 L-105,12 L-49,11 L-49,9 L-44,9 L-41,7 L-13,7 L-13,5 L-11,4 L-4,4 L-3,1 Z M-219,10 Z " fill="#EAD5AA" transform="translate(655,663)"/>
<path d="M0,0 L1,2 L6,1 L9,2 L9,4 L16,3 L20,2 L20,4 L17,4 L18,6 L20,6 L21,8 L22,6 L24,6 L24,9 L29,11 L29,15 L31,15 L31,17 L33,17 L33,21 L35,21 L35,37 L37,37 L37,43 L39,43 L39,51 L45,51 L45,55 L47,55 L47,59 L49,59 L49,127 L47,127 L47,151 L41,151 L41,150 L46,150 L46,127 L44,127 L44,148 L41,147 L43,147 L43,133 L41,133 L41,121 L42,117 L42,106 L44,106 L44,93 L42,93 L41,85 L34,85 L36,79 L33,71 L31,43 L33,37 L34,22 L32,22 L32,37 L29,37 L28,23 L25,22 L25,31 L23,31 L21,28 L21,21 L20,18 L16,18 L14,13 L14,10 L8,9 L7,5 L-5,4 L-6,2 Z M22,31 Z " fill="#D49E95" transform="translate(671,387)"/>
<path d="M0,0 L4,0 L4,2 L31,2 L35,2 L102,2 L102,4 L108,6 L107,12 L104,13 L103,16 L90,17 L90,18 L74,18 L71,17 L71,19 L63,18 L63,16 L59,16 L59,14 L54,13 L53,10 L49,10 L49,16 L45,16 L45,18 L41,18 L41,20 L31,20 L31,18 L25,18 L25,14 L21,14 L21,8 L15,8 L15,6 L3,6 L3,4 L-3,4 L-3,3 L3,3 L3,1 Z " fill="#D7C89D" transform="translate(409,684)"/>
<path d="M0,0 L6,0 L6,2 L12,2 L12,4 L22,4 L22,2 L40,2 L40,4 L46,4 L50,9 L56,10 L56,16 L54,16 L54,18 L58,20 L58,22 L64,22 L64,20 L66,20 L66,18 L70,19 L67,19 L67,21 L70,22 L64,26 L58,26 L51,21 L51,19 L49,19 L50,14 L45,11 L45,9 L36,8 L35,7 L27,8 L25,7 L21,9 L14,10 L8,7 L4,6 L-4,12 L-12,16 L-13,23 L-21,27 L-22,25 L-29,25 L-31,27 L-31,35 L-30,42 L-37,49 L-41,55 L-50,60 L-59,71 L-62,83 L-65,84 L-63,89 L-70,97 L-70,100 L-67,100 L-63,113 L-66,120 L-64,121 L-64,129 L-65,132 L-66,139 L-68,139 L-68,146 L-69,146 L-69,139 L-71,139 L-71,146 L-72,146 L-72,138 L-70,138 L-70,114 L-68,114 L-68,110 L-70,110 L-70,106 L-72,106 L-72,102 L-78,102 L-78,94 L-72,94 L-72,90 L-70,90 L-70,84 L-68,84 L-68,78 L-66,78 L-66,76 L-64,76 L-64,68 L-62,68 L-62,64 L-58,64 L-58,60 L-56,60 L-56,56 L-54,56 L-54,54 L-48,54 L-48,52 L-44,52 L-44,50 L-42,50 L-42,44 L-38,44 L-38,42 L-36,42 L-36,40 L-34,40 L-34,38 L-36,38 L-36,22 L-32,22 L-32,20 L-22,20 L-22,22 L-18,22 L-18,20 L-16,20 L-16,18 L-18,18 L-18,12 L-16,12 L-16,10 L-10,10 L-10,8 L-6,8 L-6,4 L0,4 Z M-66,87 Z M-66,102 Z " fill="#C69681" transform="translate(406,400)"/>
<path d="M0,0 L2,0 L2,15 L0,22 L2,49 L5,59 L3,62 L9,63 L10,71 L12,71 L12,84 L10,84 L11,98 L10,99 L9,111 L11,111 L11,125 L12,126 L12,105 L14,105 L14,128 L9,129 L8,132 L5,133 L4,141 L1,141 L0,145 L-1,144 L-1,119 L0,102 L2,93 L0,93 L2,86 L4,85 L3,80 L4,77 L2,77 L3,71 L1,71 L-1,69 L-2,57 L-2,52 L-4,52 L-5,43 L-7,43 L-6,36 L-5,23 L-8,23 L-8,18 L-5,17 L-5,3 L-3,1 L-3,15 L0,15 Z " fill="#DBAA9D" transform="translate(703,409)"/>
<path d="M0,0 L3,0 L3,4 L6,3 L6,9 L8,9 L8,4 L9,4 L9,10 L7,10 L7,12 L5,12 L5,14 L3,14 L3,22 L1,22 L1,28 L-1,28 L-1,30 L-5,30 L-5,32 L-9,32 L-9,34 L-15,34 L-15,36 L-19,36 L-19,38 L-25,38 L-25,40 L-31,40 L-31,42 L-37,42 L-37,44 L-45,44 L-45,46 L-51,46 L-51,48 L-59,48 L-59,50 L-67,50 L-67,52 L-69,52 L-69,56 L-77,56 L-77,52 L-83,52 L-83,50 L-85,50 L-85,52 L-89,52 L-89,54 L-91,54 L-91,56 L-93,56 L-93,62 L-101,62 L-101,61 L-94,61 L-94,56 L-96,56 L-95,52 L-92,49 L-97,50 L-97,48 L-91,47 L-91,45 L-73,46 L-55,43 L-55,41 L-49,38 L-41,38 L-41,36 L-35,33 L-25,31 L-20,30 L-19,27 L-13,26 L-12,15 L-7,11 L-5,11 L-2,8 L-1,1 Z " fill="#DBBA9F" transform="translate(687,640)"/>
<path d="M0,0 L2,0 L2,5 L6,6 L6,10 L11,11 L12,20 L11,22 L13,22 L13,24 L16,24 L16,26 L24,27 L24,29 L30,29 L34,33 L38,35 L38,38 L44,38 L48,40 L49,42 L53,42 L54,44 L54,53 L52,55 L51,62 L53,62 L55,64 L60,65 L60,68 L66,70 L65,74 L53,75 L51,71 L51,66 L49,66 L49,61 L42,60 L42,50 L35,50 L34,46 L33,42 L29,41 L28,39 L26,43 L24,43 L22,40 L18,39 L16,33 L13,28 L8,27 L4,15 L4,12 L2,12 L2,10 L0,10 L-1,1 Z " fill="#E4C8A4" transform="translate(358,606)"/>
<path d="M0,0 L5,1 L5,14 L6,19 L6,25 L3,30 L3,35 L5,36 L6,49 L8,54 L10,74 L17,78 L19,76 L22,88 L24,94 L26,94 L26,96 L28,96 L30,100 L26,100 L26,102 L29,103 L25,103 L25,99 L21,99 L17,95 L17,91 L15,91 L15,87 L13,87 L13,83 L11,83 L11,79 L7,79 L7,77 L5,77 L5,67 L3,67 L3,59 L1,59 L1,51 L-1,51 L-1,47 L-3,47 L-3,39 L-5,39 L-5,35 L-9,35 L-9,29 L-7,29 L-7,23 L-5,23 L-5,9 L-3,9 L-3,7 L0,7 Z " fill="#D2B197" transform="translate(335,539)"/>
<path d="M0,0 L10,0 L10,4 L16,4 L18,7 L24,8 L24,10 L30,10 L30,12 L36,12 L36,16 L46,16 L46,18 L50,18 L50,20 L52,20 L52,24 L54,24 L54,26 L58,26 L62,30 L62,34 L64,34 L63,36 L60,34 L61,31 L59,31 L58,35 L57,31 L54,32 L54,29 L57,29 L57,27 L53,29 L46,29 L46,27 L38,27 L39,21 L35,20 L35,18 L32,18 L32,16 L24,17 L21,14 L18,14 L16,12 L10,11 L12,10 L12,8 L9,8 L8,6 L1,6 L-6,7 L-10,11 L-8,12 L-14,14 L-19,12 L-29,14 L-34,13 L-38,14 L-39,9 L-20,9 L-20,6 L-16,6 L-16,4 L-10,4 L-10,2 L0,2 Z M-11,11 Z M-8,10 Z " fill="#C89186" transform="translate(634,362)"/>
<path d="M0,0 L2,2 L1,5 L-3,5 L-3,7 L-15,10 L-19,12 L-27,13 L-27,11 L-39,11 L-46,13 L-55,14 L-103,16 L-192,17 L-212,16 L-212,14 L-225,14 L-225,10 L-229,11 L-228,7 L-223,10 L-211,13 L-187,14 L-141,14 L-109,13 L-105,12 L-49,11 L-49,9 L-44,9 L-41,7 L-13,7 L-13,5 L-11,4 L-4,4 L-3,1 Z M-219,10 Z " fill="#EEDBAF" transform="translate(655,663)"/>
<path d="M0,0 L2,0 L2,20 L-1,23 L-3,34 L-6,40 L-8,52 L-10,54 L-13,62 L-15,70 L-17,70 L-17,72 L-21,72 L-21,65 L-19,64 L-17,56 L-13,53 L-11,45 L-18,48 L-19,46 L-19,34 L-15,34 L-15,27 L-11,23 L-11,15 L-6,14 L-6,12 L-3,11 L-2,4 Z M0,16 Z M-12,18 Z M-19,48 Z " fill="#F7D1B4" transform="translate(679,578)"/>
<path d="M0,0 L4,0 L4,2 L31,2 L35,2 L45,4 L47,5 L48,8 L53,9 L54,6 L56,9 L54,9 L55,13 L53,12 L53,10 L49,10 L49,16 L45,16 L45,18 L41,18 L41,20 L31,20 L31,18 L25,18 L25,14 L21,14 L21,8 L15,8 L15,6 L3,6 L3,4 L-3,4 L-3,3 L3,3 L3,1 Z " fill="#D2BF98" transform="translate(409,684)"/>
<path d="M0,0 L3,1 L3,3 L5,3 L6,8 L7,19 L8,22 L10,22 L9,28 L11,28 L11,33 L12,37 L10,37 L7,44 L10,43 L9,48 L8,53 L7,70 L7,95 L8,96 L8,103 L6,103 L3,87 L2,86 L2,72 L3,68 L-1,67 L-2,66 L-2,58 L1,51 L2,50 L2,40 L3,35 L3,30 L4,26 L3,20 L-2,21 L-3,17 L3,15 L2,10 L3,6 L3,4 L0,4 Z " fill="#E4B6A5" transform="translate(696,458)"/>
<path d="M0,0 L2,0 L2,8 L-1,14 L-2,20 L-4,21 L-5,30 L-10,33 L-11,37 L-14,46 L-14,56 L-16,62 L-23,65 L-31,66 L-32,67 L-53,70 L-55,71 L-69,72 L-71,73 L-97,74 L-110,75 L-123,75 L-121,73 L-97,71 L-75,70 L-68,67 L-53,67 L-44,65 L-35,62 L-31,62 L-31,60 L-20,58 L-20,56 L-16,56 L-16,41 L-13,32 L-12,28 L-10,28 L-9,21 L-6,13 L-3,8 L-1,7 Z " fill="#EAC8AA" transform="translate(683,608)"/>
<path d="M0,0 L2,2 L0,18 L2,18 L2,32 L3,33 L3,12 L5,12 L5,35 L0,36 L-1,39 L-4,40 L-5,48 L-8,48 L-9,52 L-10,51 L-10,26 L-9,9 L-7,3 L-5,2 L-4,6 L-2,6 L-1,2 Z M-6,4 Z M-7,5 Z " fill="#D6AC9E" transform="translate(712,502)"/>
<path d="M0,0 L4,0 L5,4 L3,5 L3,12 L7,12 L7,19 L3,21 L2,23 L-7,24 L-7,26 L-13,27 L-35,27 L-39,29 L-43,28 L-43,30 L-47,31 L-94,31 L-93,29 L-81,28 L-47,27 L-37,22 L-19,22 L-17,23 L-17,19 L-9,20 L-6,16 L0,16 L0,14 L1,13 L-1,9 Z " fill="#F6DCB3" transform="translate(649,644)"/>
<path d="M0,0 L2,1 L2,3 L7,3 L7,8 L9,9 L8,12 L15,12 L15,22 L22,23 L22,28 L24,28 L27,39 L36,38 L39,39 L62,41 L59,42 L58,44 L55,43 L44,43 L28,42 L27,43 L21,43 L21,41 L18,41 L17,39 L14,39 L13,37 L10,37 L10,35 L15,35 L14,28 L14,27 L8,27 L8,29 L6,29 L7,21 L5,21 L5,9 L1,7 Z " fill="#DBC39E" transform="translate(385,644)"/>
<path d="M0,0 L1,2 L7,0 L16,1 L15,3 L8,6 L-26,7 L-38,8 L-41,9 L-41,7 L-55,8 L-56,9 L-67,9 L-74,7 L-74,5 L-82,3 L-81,1 L-74,1 L-74,3 L-66,2 L-62,3 L-53,3 L-50,2 L-23,2 L-16,1 L-12,2 L-10,1 Z " fill="#FAE3B6" transform="translate(594,666)"/>
<path d="M0,0 L3,0 L4,16 L3,21 L4,24 L4,29 L6,31 L4,43 L10,42 L10,40 L14,41 L14,43 L19,43 L20,47 L18,47 L18,49 L12,49 L12,47 L6,47 L4,46 L4,44 L1,44 L1,42 L-1,42 L-2,31 L-6,30 L-8,25 L-8,14 L-6,10 L-2,10 L-2,4 Z M2,14 Z " fill="#EDCFA9" transform="translate(370,586)"/>
<path d="M0,0 L2,0 L3,8 L0,15 L-2,15 L0,20 L-7,28 L-7,31 L-4,31 L0,44 L-3,51 L-1,52 L-1,60 L-2,63 L-3,70 L-5,70 L-5,77 L-6,77 L-6,70 L-8,70 L-8,77 L-9,77 L-9,69 L-7,69 L-7,45 L-5,45 L-5,41 L-7,41 L-7,37 L-9,37 L-9,33 L-15,33 L-15,25 L-9,25 L-9,21 L-7,21 L-7,15 L-5,15 L-5,9 L-3,9 L-3,7 L0,7 Z M-3,18 Z M-3,33 Z " fill="#D7AD97" transform="translate(343,469)"/>
<path d="M0,0 L6,1 L21,1 L21,0 L42,0 L42,2 L89,2 L93,4 L89,4 L89,6 L41,6 L41,4 L23,4 L23,6 L3,6 L3,4 L-1,3 L3,3 L3,1 Z " fill="#CBB98F" transform="translate(477,700)"/>
<path d="M0,0 L1,0 L1,6 L-1,10 L2,10 L2,19 L-1,20 L-3,25 L-6,33 L-8,40 L-10,41 L-10,46 L-13,53 L-14,68 L-18,68 L-19,70 L-19,68 L-21,68 L-20,60 L-18,60 L-20,58 L-21,54 L-19,54 L-19,52 L-17,52 L-17,46 L-14,40 L-12,35 L-10,28 L-8,21 L-5,12 L-4,5 L-1,4 Z " fill="#F1CDAF" transform="translate(681,596)"/>
<path d="M0,0 L38,0 L38,2 L44,4 L43,10 L40,11 L39,14 L23,15 L19,14 L19,10 L15,11 L14,3 L12,3 L12,1 L9,1 L9,3 L7,3 L7,1 L0,1 Z " fill="#DACC9C" transform="translate(473,686)"/>
<path d="M0,0 L6,0 L6,4 L8,4 L8,8 L10,8 L10,76 L8,76 L8,100 L2,100 L2,99 L7,99 L6,76 L5,10 L4,7 L2,7 L2,4 L0,3 L5,3 L5,1 L0,1 Z " fill="#C7968B" transform="translate(710,438)"/>
<path d="M0,0 L6,0 L4,1 L4,3 L-6,5 L-10,7 L-26,10 L-50,10 L-89,13 L-91,14 L-92,11 L-86,9 L-82,8 L-56,6 L-30,5 L-28,4 L-14,3 L-8,1 Z " fill="#E0C5A1" transform="translate(642,675)"/>
<path d="M0,0 L12,1 L12,2 L6,2 L6,4 L-2,4 L-2,6 L-8,6 L-8,8 L-16,8 L-16,10 L-24,10 L-24,12 L-26,12 L-26,16 L-34,16 L-34,12 L-40,12 L-40,10 L-42,10 L-42,12 L-46,12 L-46,14 L-48,14 L-48,16 L-50,16 L-50,22 L-58,22 L-58,21 L-51,21 L-51,16 L-53,16 L-52,12 L-49,9 L-54,10 L-54,8 L-48,7 L-48,5 L-30,6 L-17,4 L-8,4 L-3,5 L-3,3 L-8,3 L-8,2 L5,3 L5,1 L0,1 Z " fill="#CBB090" transform="translate(644,680)"/>
<path d="M0,0 L1,3 L3,3 L4,1 L4,3 L7,3 L7,5 L9,5 L9,7 L24,9 L27,11 L26,23 L28,23 L29,27 L27,31 L29,31 L29,29 L36,28 L37,30 L35,30 L36,37 L31,37 L31,39 L37,38 L35,39 L35,41 L43,40 L39,41 L39,43 L42,44 L38,44 L38,42 L34,42 L34,40 L30,40 L30,36 L28,36 L28,32 L26,32 L24,27 L22,26 L22,22 L20,22 L20,18 L16,16 L16,14 L12,14 L12,12 L8,12 L2,5 L0,4 Z " fill="#D9BF9B" transform="translate(364,642)"/>
<path d="M0,0 L1,0 L1,7 L3,7 L3,1 L5,5 L8,15 L9,23 L16,27 L18,25 L21,37 L23,43 L25,43 L25,45 L27,45 L29,49 L25,49 L25,51 L28,52 L24,52 L24,48 L20,48 L16,44 L16,40 L14,40 L14,36 L12,36 L12,32 L10,32 L10,28 L6,28 L6,26 L4,26 L4,16 L2,16 L2,8 L0,8 Z " fill="#D8BA99" transform="translate(336,590)"/>
<path d="M0,0 L20,0 L20,1 L1,1 L1,3 L3,4 L1,4 L1,6 L-6,8 L-11,7 L-17,8 L-18,10 L-22,9 L-22,7 L-25,7 L-25,9 L-23,9 L-23,11 L-33,15 L-37,20 L-33,19 L-35,23 L-42,24 L-42,20 L-40,20 L-40,17 L-73,17 L-73,19 L-76,20 L-76,18 L-74,18 L-74,16 L-40,16 L-40,14 L-38,14 L-38,10 L-32,10 L-32,8 L-26,8 L-26,6 L-22,6 L-22,4 L-14,4 L-14,2 L0,2 Z M-39,21 Z " fill="#C48D80" transform="translate(594,370)"/>
<path d="M0,0 L2,2 L1,5 L-3,5 L-3,7 L-15,10 L-19,12 L-27,13 L-27,11 L-39,11 L-46,13 L-55,14 L-79,15 L-99,15 L-99,13 L-49,11 L-49,9 L-44,9 L-41,7 L-13,7 L-13,5 L-11,4 L-4,4 L-3,1 Z " fill="#F1D4AE" transform="translate(655,663)"/>
<path d="M0,0 L2,0 L2,15 L0,22 L1,38 L1,53 L-1,57 L-2,52 L-4,52 L-5,43 L-7,43 L-6,36 L-5,23 L-8,23 L-8,18 L-5,17 L-5,3 L-3,1 L-3,15 L0,15 Z " fill="#DDA39C" transform="translate(703,409)"/>
<path d="M0,0 L1,0 L2,8 L3,13 L2,25 L1,26 L2,57 L0,67 L-4,67 L-6,64 L-4,61 L-4,55 L-5,50 L-4,37 L-6,36 L-3,27 L-3,21 L-2,19 L0,19 L0,12 L-2,11 L0,11 L-2,4 Z M-1,33 Z M-6,53 Z " fill="#F2C9AB" transform="translate(685,541)"/>
<path d="M0,0 L1,2 L6,1 L9,2 L9,4 L16,3 L20,2 L20,4 L17,4 L18,6 L20,6 L21,8 L22,6 L24,6 L24,9 L28,11 L28,18 L26,18 L25,20 L27,20 L26,22 L25,24 L25,31 L23,31 L21,28 L21,21 L20,18 L16,18 L14,13 L14,10 L8,9 L7,5 L-5,4 L-6,2 Z M22,31 Z " fill="#DDA197" transform="translate(671,387)"/>
<path d="M0,0 L1,2 L3,3 L5,5 L6,10 L11,9 L11,11 L14,12 L13,14 L13,21 L15,21 L14,26 L9,26 L8,18 L3,19 L3,16 L-7,14 L-7,4 L-5,3 L0,4 Z " fill="#EED0A8" transform="translate(403,630)"/>
<path d="M0,0 L5,1 L8,4 L12,4 L13,6 L13,15 L11,17 L10,24 L12,24 L14,26 L19,27 L19,30 L25,32 L24,36 L12,37 L10,33 L10,28 L8,28 L8,15 L10,12 L7,12 L6,8 L3,7 L1,5 Z " fill="#E6CCA8" transform="translate(399,644)"/>
<path d="M0,0 L31,1 L37,2 L87,3 L133,3 L133,4 L117,5 L53,5 L21,4 L6,3 L0,1 Z " fill="#E3D1A6" transform="translate(427,680)"/>
<path d="M0,0 L9,0 L10,1 L16,1 L17,0 L23,0 L30,2 L30,0 L45,2 L45,3 L54,5 L54,2 L61,0 L62,3 L56,5 L55,6 L43,7 L34,7 L25,5 L10,6 L8,5 L0,3 Z " fill="#F9E8B9" transform="translate(448,667)"/>
<path d="M0,0 L2,1 L1,24 L-2,31 L-9,34 L-10,32 L-10,20 L-6,20 L-6,13 L-2,9 L-2,1 Z M-3,4 Z M-10,34 Z " fill="#FEDCBA" transform="translate(670,592)"/>
<path d="M0,0 L4,0 L5,4 L3,5 L3,12 L7,12 L7,19 L3,21 L2,23 L-11,24 L-13,25 L-24,25 L-25,23 L-19,22 L-17,23 L-17,19 L-9,20 L-6,16 L0,16 L0,14 L1,13 L-1,9 Z " fill="#F8D6B3" transform="translate(649,644)"/>
<path d="M0,0 L1,0 L1,6 L3,6 L3,1 L4,1 L4,7 L2,7 L2,9 L0,9 L0,11 L-2,11 L-2,19 L-4,19 L-4,25 L-6,25 L-6,27 L-10,27 L-10,29 L-14,29 L-14,31 L-20,31 L-20,33 L-24,33 L-24,35 L-30,35 L-30,37 L-36,37 L-36,36 L-31,36 L-31,34 L-36,34 L-36,33 L-25,34 L-25,32 L-27,31 L-21,32 L-21,30 L-23,29 L-21,29 L-21,27 L-10,23 L-10,26 L-9,21 L-8,13 L-7,9 L-5,9 L-5,18 L-3,18 L-4,9 L-3,8 L-2,1 Z " fill="#CCAC94" transform="translate(692,643)"/>
<path d="M0,0 L2,1 L2,9 L1,16 L-1,18 L-3,28 L1,28 L0,31 L-4,33 L-6,33 L-8,36 L-9,44 L-12,47 L-13,44 L-10,39 L-12,39 L-11,36 L-10,21 L-4,19 L-4,11 L-2,10 Z " fill="#E1C0A6" transform="translate(684,620)"/>
<path d="M0,0 L2,0 L3,8 L0,15 L-2,15 L0,20 L-7,28 L-8,37 L-9,33 L-15,33 L-15,25 L-9,25 L-9,21 L-7,21 L-7,15 L-5,15 L-5,9 L-3,9 L-3,7 L0,7 Z M-3,18 Z " fill="#D2A18E" transform="translate(343,469)"/>
<path d="M0,0 L2,3 L3,16 L6,25 L6,28 L10,28 L11,36 L15,37 L16,41 L12,40 L10,35 L8,35 L8,33 L6,33 L3,27 L1,17 L-1,18 L-8,14 L-9,13 L-9,5 L-4,7 L-4,9 L-1,8 Z " fill="#DDBF9C" transform="translate(353,600)"/>
<path d="M0,0 L10,0 L10,1 L1,1 L1,3 L3,3 L1,7 L0,9 L2,10 L-4,12 L-9,10 L-19,12 L-24,11 L-28,12 L-29,7 L-10,7 L-10,4 L-6,4 L-6,2 L0,2 Z M-1,9 Z M2,8 Z " fill="#D89E92" transform="translate(624,364)"/>
<path d="M0,0 L1,2 L15,2 L25,4 L25,6 L33,4 L40,4 L49,6 L72,6 L74,8 L59,9 L23,8 L23,6 L13,6 L13,4 L3,4 L-1,2 Z " fill="#F5E3B6" transform="translate(433,667)"/>
<path d="M0,0 L8,0 L8,6 L10,7 L12,12 L8,13 L7,18 L-4,19 L-3,16 L0,16 L0,14 L-8,15 L-8,13 L-6,11 L-3,10 L5,10 L3,6 L-2,4 Z M-3,4 Z " fill="#EEC6A2" transform="translate(376,528)"/>
<path d="M0,0 L6,0 L6,2 L12,2 L12,3 L6,3 L5,6 L-3,11 L-5,13 L-12,16 L-13,20 L-13,18 L-15,18 L-14,22 L-18,20 L-16,20 L-16,18 L-18,18 L-18,12 L-16,12 L-16,10 L-10,10 L-10,8 L-6,8 L-6,4 L0,4 Z " fill="#C1917D" transform="translate(406,400)"/>
<path d="M0,0 L8,0 L11,3 L9,4 L9,6 L21,5 L24,7 L22,7 L22,11 L14,11 L14,7 L8,7 L8,5 L6,5 L6,7 L2,7 L2,9 L0,9 L0,11 L-2,11 L-2,17 L-10,17 L-10,16 L-3,16 L-3,11 L-5,11 L-4,7 L-1,4 L-6,5 L-6,3 L0,2 Z " fill="#CFB591" transform="translate(596,685)"/>
<path d="M0,0 L3,0 L4,16 L3,21 L4,24 L4,29 L6,31 L4,36 L2,32 L2,29 L-2,29 L-1,22 L-3,21 L-2,4 Z M2,14 Z " fill="#F3D1AD" transform="translate(370,586)"/>
<path d="M0,0 L8,0 L8,1 L1,1 L1,6 L3,6 L3,3 L8,3 L3,9 L-7,12 L-12,14 L-19,20 L-19,17 L-21,17 L-22,20 L-22,16 L-20,16 L-20,12 L-16,12 L-16,8 L-8,8 L-8,6 L0,6 Z " fill="#C3907B" transform="translate(498,398)"/>
<path d="M0,0 L1,4 L-1,10 L-2,27 L-2,52 L-1,53 L-1,60 L-3,60 L-5,49 L-5,28 L-6,23 L-6,10 L-2,1 Z " fill="#DEB4A3" transform="translate(705,501)"/>
<path d="M0,0 L3,1 L3,3 L5,3 L6,8 L7,19 L8,22 L10,22 L9,28 L11,28 L11,33 L12,37 L10,37 L8,40 L8,26 L4,26 L3,20 L-2,21 L-3,17 L3,15 L2,10 L3,6 L3,4 L0,4 Z " fill="#E1ADA1" transform="translate(696,458)"/>
<path d="M0,0 L1,2 L0,5 L2,5 L2,3 L4,3 L5,7 L7,7 L8,11 L6,15 L8,15 L8,13 L15,12 L16,14 L14,14 L15,21 L10,21 L10,23 L16,22 L14,23 L14,25 L22,24 L18,25 L18,27 L21,28 L17,28 L17,26 L13,26 L13,24 L9,24 L9,20 L7,20 L7,16 L5,16 L3,11 L1,10 L1,6 L-1,6 L-1,2 L-3,1 Z " fill="#C9B191" transform="translate(385,658)"/>
<path d="M0,0 L14,0 L18,2 L4,3 L2,4 L-24,5 L-37,6 L-50,6 L-48,4 L-24,2 L-2,1 Z " fill="#E6CBA5" transform="translate(610,677)"/>
<path d="M0,0 L1,4 L-1,4 L-1,12 L1,12 L1,14 L5,14 L5,22 L7,22 L7,38 L5,38 L4,42 L4,38 L2,37 L2,24 L1,24 L-1,17 L-2,15 L0,15 L0,13 L-3,14 L-3,1 L-2,3 L0,3 Z " fill="#C5A391" transform="translate(711,538)"/>
<path d="M0,0 L4,1 L1,1 L1,3 L4,4 L-3,9 L-11,19 L-12,24 L-13,24 L-13,17 L-15,17 L-15,24 L-16,24 L-16,16 L-14,16 L-14,12 L-10,12 L-10,8 L-8,8 L-8,4 L-6,4 L-6,2 L0,2 Z " fill="#C99982" transform="translate(358,452)"/>
<path d="M0,0 L2,1 L4,7 L4,16 L1,19 L0,23 L-2,23 L-3,25 L-3,23 L-5,23 L-5,27 L-2,28 L-6,28 L-6,22 L-4,22 L-4,16 L-2,16 L-2,2 L0,2 Z " fill="#C9A98F" transform="translate(332,546)"/>
<path d="M0,0 L3,1 L4,14 L6,19 L7,28 L5,29 L3,21 L2,23 L0,23 L0,16 L-2,16 L-2,12 L-1,11 L-4,11 L-4,4 L-1,4 Z " fill="#DABB9E" transform="translate(337,574)"/>
<path d="M0,0 L1,0 L1,7 L3,7 L3,1 L5,5 L8,15 L9,23 L13,27 L11,27 L11,32 L10,28 L6,28 L6,26 L4,26 L4,16 L2,16 L2,8 L0,8 Z " fill="#C0A58A" transform="translate(336,590)"/>
<path d="M0,0 L4,1 L7,0 L7,4 L14,5 L18,9 L18,13 L20,13 L19,15 L16,13 L17,10 L15,10 L14,14 L13,10 L10,11 L10,8 L13,8 L13,6 L9,8 L2,8 L2,6 L-6,6 L-5,1 Z " fill="#D89D93" transform="translate(678,383)"/>
<path d="M0,0 Z M-27,1 L0,1 L0,7 L-3,7 L-4,11 L-5,8 L-8,7 L-13,6 L-13,3 L-24,5 L-27,7 L-29,5 L-29,3 L-27,3 Z " fill="#F4C9A3" transform="translate(417,541)"/>
<path d="M0,0 L2,4 L3,7 L-1,13 L-3,13 L-4,16 L-9,18 L-10,22 L-8,22 L-8,24 L-12,24 L-12,26 L-17,26 L-17,23 L-19,21 L-15,19 L-12,19 L-11,16 L-5,15 L-4,4 Z " fill="#DDBCA3" transform="translate(679,651)"/>
<path d="M0,0 L6,0 L6,6 L4,6 L4,8 L8,10 L8,12 L14,12 L14,10 L16,10 L16,8 L20,9 L17,9 L17,11 L20,12 L14,16 L8,16 L1,11 L1,9 L-1,9 L0,3 L3,3 L3,5 L5,5 L5,1 L0,1 Z " fill="#BF937C" transform="translate(456,410)"/>
<path d="M0,0 L6,2 L2,3 L-48,5 L-48,3 L-51,2 L-48,1 L-44,2 L-35,2 L-32,1 L-5,1 Z " fill="#FEE8BA" transform="translate(576,667)"/>
<path d="M0,0 L1,4 L3,4 L3,6 L5,6 L5,10 L7,10 L7,26 L6,26 L6,11 L4,11 L4,26 L1,26 L0,12 L-1,9 L-3,9 L-2,5 L-2,7 L0,7 L-1,4 Z " fill="#D79D99" transform="translate(699,398)"/>
<path d="M0,0 L2,3 L4,6 L4,13 L2,16 L1,28 L-1,28 L-3,19 L-1,19 L-4,11 L-3,8 L-1,9 Z " fill="#E6C49E" transform="translate(356,580)"/>
<path d="M0,0 L2,2 L1,3 L0,18 L-2,21 L0,21 L-2,26 L-3,29 L-6,29 L-6,16 L-3,7 L-2,2 L0,2 Z " fill="#E6C4AB" transform="translate(674,638)"/>
<path d="M0,0 L2,0 L2,2 L5,3 L4,5 L4,12 L6,12 L5,17 L0,17 L-1,9 L-4,8 L-4,2 Z " fill="#EED4AE" transform="translate(412,639)"/>
<path d="M0,0 L2,0 L3,3 L3,21 L2,42 L-1,41 L1,41 L1,27 L-1,27 L-1,15 L0,11 Z " fill="#D4A798" transform="translate(713,493)"/>
<path d="M0,0 L2,1 L1,24 L-2,31 L-4,30 L-4,24 L-2,20 L-3,11 L-2,7 L-2,1 Z M-3,4 Z M-5,26 Z " fill="#FCD6B9" transform="translate(670,592)"/>
<path d="M0,0 L0,3 L-1,7 L-2,7 L-2,2 Z M-3,7 L-2,7 L-2,12 L0,12 L-1,22 L0,25 L-2,25 L-2,36 L-1,46 L-3,50 L-4,49 L-4,24 Z " fill="#DAB1A1" transform="translate(706,504)"/>
<path d="M0,0 L3,0 L2,5 L-6,14 L-10,18 L-14,17 L-14,15 L-11,15 L-11,12 L-9,12 L-9,6 L-2,5 L-2,3 L0,2 Z " fill="#C89880" transform="translate(373,438)"/>
<path d="M0,0 L2,0 L3,8 L5,8 L5,10 L7,10 L11,23 L11,25 L8,24 L8,20 L4,20 L1,9 L0,8 Z " fill="#E0C3A0" transform="translate(355,608)"/>
<path d="M0,0 L1,0 L1,6 L-3,6 L-3,8 L-9,8 L-9,10 L-13,10 L-13,12 L-19,12 L-19,14 L-25,14 L-25,13 L-20,13 L-20,11 L-25,11 L-25,10 L-14,11 L-14,9 L-16,8 L-10,9 L-10,7 L-12,6 L-10,6 L-10,4 Z " fill="#C2A48D" transform="translate(681,666)"/>
<path d="M0,0 L1,0 L1,24 L3,24 L3,3 L4,6 L6,7 L6,15 L5,18 L4,25 L2,25 L2,32 L1,32 L1,25 L-1,25 L-1,32 L-2,32 L-2,24 L0,24 Z " fill="#BE9B86" transform="translate(336,514)"/>
<path d="M0,0 L1,0 L1,6 L4,7 L3,9 L1,9 L1,7 L-1,7 L0,13 L-1,22 L-2,18 L-8,18 L-8,10 L-2,10 L-2,6 L0,6 Z " fill="#B68D7E" transform="translate(336,484)"/>
<path d="M0,0 L1,2 L3,3 L1,3 L1,5 L-9,7 L-14,6 L-18,7 L-19,2 L0,2 Z " fill="#D99E92" transform="translate(614,369)"/>
<path d="M0,0 L1,0 L1,15 L-3,15 L-4,17 L-4,15 L-6,15 L-5,7 L-3,7 L-4,2 Z " fill="#EDCBB0" transform="translate(666,649)"/>
<path d="M0,0 L1,3 L3,3 L4,1 L4,3 L7,3 L7,5 L9,5 L9,7 L15,9 L15,11 L13,11 L13,13 L16,13 L16,11 L19,11 L19,13 L17,13 L18,17 L16,16 L16,14 L12,14 L12,12 L8,12 L2,5 L0,4 Z " fill="#C6AF8F" transform="translate(364,642)"/>
<path d="M0,0 L2,0 L2,25 L-4,25 L-4,14 L-2,14 L-2,23 L0,23 Z " fill="#E2C2A8" transform="translate(715,610)"/>
<path d="M0,0 L2,1 L1,7 L-7,9 L-18,9 L-19,7 L-13,6 L-11,7 L-11,3 L-3,4 Z " fill="#FDDBBA" transform="translate(643,660)"/>
<path d="M0,0 L1,0 L2,8 L3,13 L2,25 L-2,27 L-3,21 L-2,19 L0,19 L0,12 L-2,11 L0,11 L-2,4 Z " fill="#F6C5AA" transform="translate(685,541)"/>
<path d="M0,0 L3,0 L2,14 L0,14 L1,22 L1,34 L0,34 L-2,6 Z " fill="#D79F99" transform="translate(704,424)"/>
<path d="M0,0 L4,1 L1,1 L1,3 L3,4 L1,4 L1,6 L-2,9 L-3,12 L-3,10 L-5,10 L-4,14 L-8,12 L-6,12 L-6,10 L-8,10 L-8,4 L-6,4 L-6,2 L0,2 Z " fill="#BB8C78" transform="translate(396,408)"/>
<path d="M0,0 L3,0 L3,2 L0,2 L1,4 L3,4 L4,6 L5,4 L7,4 L7,7 L11,9 L11,16 L6,16 L7,10 L1,9 L-2,5 L-1,1 Z " fill="#D99F96" transform="translate(688,389)"/>
<path d="M0,0 L1,0 L3,7 L8,8 L8,6 L13,7 L13,5 L10,4 L12,4 L13,0 L13,3 L15,3 L16,0 L16,4 L14,4 L14,8 L10,8 L10,10 L8,10 L8,12 L2,12 L-2,8 L-2,6 L0,6 Z " fill="#18130F" transform="translate(462,410)"/>
<path d="M0,0 L4,1 L35,3 L33,5 L7,4 L-1,3 Z " fill="#E6D3AA" transform="translate(425,677)"/>
<path d="M0,0 L1,2 L0,5 L2,5 L2,3 L4,3 L5,7 L7,7 L8,11 L6,15 L8,15 L8,13 L10,13 L11,19 L10,16 L8,16 L7,20 L7,16 L5,16 L3,11 L1,10 L1,6 L-1,6 L-1,2 L-3,1 Z " fill="#C4AC8B" transform="translate(385,658)"/>
<path d="M0,0 L1,0 L1,7 L3,7 L3,0 L4,0 L4,44 L2,44 L2,28 L0,28 L0,24 L2,24 L2,8 L0,8 Z " fill="#27211D" transform="translate(716,552)"/>
<path d="M0,0 L5,1 L5,10 L3,13 L2,19 L1,19 L-2,8 L-1,7 Z " fill="#D8B59A" transform="translate(335,539)"/>
<path d="M0,0 L5,2 L5,4 L8,4 L8,9 L9,13 L4,11 L0,8 Z " fill="#D7BA9A" transform="translate(344,605)"/>
<path d="M0,0 L2,2 L1,8 L4,7 L6,13 L5,21 L3,19 L3,16 L1,16 L0,7 L-2,7 Z " fill="#DFA69E" transform="translate(698,445)"/>
<path d="M0,0 L8,0 L8,6 L10,7 L8,9 L5,9 L3,6 L-2,4 Z M-3,4 Z " fill="#E6BA98" transform="translate(376,528)"/>
<path d="M0,0 L1,0 L2,23 L-1,27 L-2,23 L-1,10 L-3,9 Z M-3,26 Z " fill="#F7CBAE" transform="translate(682,568)"/>
<path d="M0,0 L7,0 L7,2 L4,4 L-3,11 L-4,8 L-6,8 L-7,11 L-7,7 L-5,7 L-5,3 L0,3 Z " fill="#DBA48B" transform="translate(483,407)"/>
<path d="M0,0 L6,0 L6,4 L8,4 L8,8 L10,8 L10,12 L8,12 L8,36 L7,36 L6,7 L7,5 L4,6 L4,4 L0,3 L5,3 L5,1 L0,1 Z " fill="#241D19" transform="translate(328,502)"/>
<path d="M0,0 L5,3 L4,10 L2,12 L-1,10 L-5,14 L-6,12 L-4,10 L-3,7 L-1,5 Z " fill="#ECB1A1" transform="translate(690,459)"/>
<path d="M0,0 L2,1 L2,9 L1,16 L-1,18 L-3,22 L-4,19 L-4,11 L-2,10 Z " fill="#E3C1A1" transform="translate(684,620)"/>
<path d="M0,0 L7,0 L7,2 L0,5 L-8,6 L-12,7 L-9,2 Z " fill="#E2C1A4" transform="translate(660,668)"/>
<path d="M0,0 L6,0 L10,4 L10,6 L15,6 L15,10 L13,10 L13,8 L8,8 L5,6 L5,4 L0,3 Z " fill="#D5A289" transform="translate(446,405)"/>
<path d="M0,0 L10,0 L10,2 L14,2 L14,4 L16,4 L16,8 L18,8 L17,10 L14,10 L15,5 L13,5 L12,7 L8,6 L5,6 L3,4 L4,3 L9,3 L9,1 L0,1 Z " fill="#C08980" transform="translate(670,378)"/>
<path d="M0,0 L9,0 L9,2 L7,3 L1,3 L1,5 L-6,6 L-9,4 L-9,2 L0,2 Z " fill="#DAA094" transform="translate(634,363)"/>
<path d="M0,0 L1,0 L1,5 L6,4 L13,7 L11,8 L11,11 L20,11 L20,12 L10,12 L10,10 L4,10 L4,6 L0,6 Z " fill="#B8A784" transform="translate(430,692)"/>
<path d="M0,0 L16,0 L16,4 L13,5 L12,4 L4,5 L3,3 L0,2 Z " fill="#DBA78F" transform="translate(429,403)"/>
<path d="M0,0 L1,2 L7,0 L12,1 L12,2 L5,4 L4,5 L-2,5 L-2,3 L-12,3 L-10,1 Z " fill="#FEE6BC" transform="translate(594,666)"/>
<path d="M0,0 L3,0 L4,2 L4,11 L2,13 L1,20 L-1,19 L-1,11 L0,10 Z " fill="#E9CFAB" transform="translate(408,648)"/>
<path d="M0,0 L1,0 L1,6 L3,6 L3,1 L4,1 L4,7 L2,7 L2,9 L0,9 L0,11 L-2,11 L-2,19 L-3,19 L-4,9 L-3,8 L-2,1 Z " fill="#BFA48D" transform="translate(692,643)"/>
<path d="M0,0 L2,1 L1,4 L6,4 L6,7 L1,12 L-2,12 L-2,3 L0,3 Z " fill="#F5E0B3" transform="translate(426,636)"/>
<path d="M0,0 L2,0 L2,23 L-3,23 L-3,21 L0,21 Z " fill="#E0B3A2" transform="translate(715,514)"/>
<path d="M0,0 L5,0 L8,4 L8,6 L12,7 L10,8 L10,12 L15,13 L15,14 L8,14 L5,4 L0,2 Z " fill="#DEC2A0" transform="translate(366,633)"/>
<path d="M0,0 L1,3 L3,3 L4,1 L3,7 L5,7 L5,5 L7,5 L9,11 L11,13 L9,13 L9,15 L12,16 L8,16 L4,12 L4,8 L2,8 L2,4 L0,4 Z " fill="#C4A889" transform="translate(348,622)"/>
<path d="M0,0 L3,1 L3,14 L2,24 L0,26 Z " fill="#D8B8A2" transform="translate(703,563)"/>
<path d="M0,0 L1,3 L5,4 L1,4 L1,6 L-1,6 L-1,8 L-3,8 L-3,14 L-11,14 L-11,13 L-4,13 L-4,8 L-6,8 L-5,4 Z " fill="#B8A07F" transform="translate(597,688)"/>
<path d="M0,0 L9,1 L7,2 L7,6 L-1,6 L-1,1 Z " fill="#C7AD8B" transform="translate(611,690)"/>
<path d="M0,0 L8,0 L8,2 L12,3 L8,4 L-10,4 L-6,2 L0,2 Z " fill="#E9BC9A" transform="translate(396,530)"/>
<path d="M0,0 L3,2 L2,11 L0,18 L-2,15 L-1,5 Z " fill="#E7B4A6" transform="translate(700,487)"/>
<path d="M0,0 L4,1 L2,1 L1,6 L-4,6 L-5,8 L-5,6 L-10,6 L-8,2 Z " fill="#D8B99B" transform="translate(660,673)"/>
<path d="M0,0 L12,1 L13,3 L0,4 L-1,5 L-8,5 L-6,3 Z " fill="#F8DCB4" transform="translate(612,666)"/>
<path d="M0,0 L4,5 L4,12 L1,17 L0,17 Z " fill="#EDB8A6" transform="translate(692,490)"/>
<path d="M0,0 L1,4 L3,4 L3,6 L5,6 L5,10 L7,10 L7,26 L6,26 L6,11 L4,11 L3,13 L3,11 L1,11 L2,5 L-1,4 Z " fill="#B58581" transform="translate(699,398)"/>
<path d="M0,0 L10,0 L10,1 L1,1 L1,3 L3,4 L1,4 L1,6 L-6,7 L-6,5 L-10,4 L-6,4 L-6,2 L0,2 Z " fill="#BE8B80" transform="translate(624,364)"/>
<path d="M0,0 L1,0 L1,11 L3,11 L3,0 L4,0 L4,12 L2,12 L2,14 L0,14 L0,18 L-4,17 L-1,17 L-2,12 Z " fill="#BBA18C" transform="translate(702,624)"/>
<path d="M0,0 L5,0 L6,3 L15,4 L15,6 L7,8 L5,7 L5,5 L2,5 L2,3 L0,2 Z " fill="#DC9F94" transform="translate(664,375)"/>
<path d="M0,0 L6,0 L6,4 L8,4 L9,9 L7,9 L6,11 L4,7 L2,7 L2,4 L0,3 L5,3 L5,1 L0,1 Z " fill="#C48F88" transform="translate(710,438)"/>
<path d="M0,0 L4,2 L2,2 L2,8 L4,8 L4,10 L2,10 L2,12 L-2,12 L-2,10 L-12,10 L-12,9 L-2,9 L-2,7 L1,7 Z " fill="#261C18" transform="translate(386,410)"/>
<path d="M0,0 L20,0 L20,1 L1,1 L1,3 L3,4 L1,4 L1,6 L-6,8 L-10,6 L0,5 Z " fill="#BA887D" transform="translate(594,370)"/>
<path d="M0,0 L10,0 L10,4 L16,4 L16,5 L10,5 L10,7 L15,7 L14,9 L9,8 L8,6 L2,6 L1,4 L9,3 L9,1 L0,1 Z " fill="#BB897F" transform="translate(634,362)"/>
<path d="M0,0 L3,2 L2,9 L-2,15 L-3,15 L-3,8 L-1,6 Z " fill="#E6C09D" transform="translate(355,554)"/>
<path d="M0,0 L4,0 L6,5 L3,7 L0,6 Z M3,3 Z M-2,7 L0,7 L0,9 L2,10 L-1,12 Z M2,7 Z " fill="#D9A695" transform="translate(337,484)"/>
<path d="M0,0 L2,1 L3,7 L5,7 L5,10 L7,10 L7,12 L11,14 L10,16 L4,14 L0,2 Z " fill="#E3C6A4" transform="translate(362,619)"/>
<path d="M0,0 L2,0 L2,2 L8,2 L7,6 L7,3 L-2,4 L-6,8 L-8,12 L-8,6 L-6,6 L-6,4 L-4,4 L-4,2 L0,2 Z " fill="#231E18" transform="translate(602,690)"/>
<path d="M0,0 L2,0 L1,5 L0,7 L2,7 L0,12 L-1,15 L-4,15 L-3,10 L-1,4 Z " fill="#E2C1AA" transform="translate(672,652)"/>
<path d="M0,0 L2,0 L4,7 L4,12 L2,13 L2,11 L0,11 L-1,3 Z " fill="#E8CCAB" transform="translate(369,617)"/>
<path d="M0,0 L4,0 L8,4 L8,8 L10,8 L9,10 L6,8 L7,5 L5,5 L4,9 L3,5 L0,6 L0,3 L3,3 L3,1 Z " fill="#C08E84" transform="translate(688,388)"/>
<path d="M0,0 L6,0 L6,3 L1,5 L-5,4 L-5,2 L0,2 Z " fill="#DA9D8F" transform="translate(562,379)"/>
<path d="M0,0 L1,0 L1,9 L0,16 L-2,15 L-2,4 Z " fill="#EECCA6" transform="translate(364,596)"/>
<path d="M0,0 L1,4 L3,5 L0,9 L-3,9 L-4,4 Z " fill="#E4BE9A" transform="translate(356,544)"/>
<path d="M0,0 L2,0 L3,3 L-1,7 L-7,9 L-7,5 L-3,5 L-3,3 L0,2 Z " fill="#D8A28B" transform="translate(391,418)"/>
<path d="M0,0 L2,0 L2,5 L1,6 L-6,6 L-6,9 L-8,9 L-8,4 L-1,3 Z " fill="#E2A68F" transform="translate(507,395)"/>
<path d="M0,0 L7,1 L7,3 L5,3 L5,5 L8,6 L4,6 L4,4 L0,4 L0,2 L-4,1 Z " fill="#C0B38B" transform="translate(468,696)"/>
<path d="M0,0 L8,1 L8,3 L1,3 L1,6 L-7,6 L-7,5 L0,5 L0,3 L-6,3 L-6,2 L0,2 Z " fill="#CBAF91" transform="translate(627,684)"/>
<path d="M0,0 L4,0 L4,2 L6,2 L8,6 L4,6 L4,8 L7,9 L3,9 L3,4 L0,4 Z " fill="#CCB28F" transform="translate(357,633)"/>
<path d="M0,0 L4,1 L1,1 L1,3 L5,4 L3,7 L2,12 L1,12 L1,5 L-1,5 L-1,12 L-2,12 L-2,4 L0,4 Z " fill="#BB8E7C" transform="translate(344,464)"/>
<path d="M0,0 L2,2 L1,5 L-3,5 L-3,7 L-9,8 L-9,6 L-4,5 L-3,1 Z " fill="#F1CFAC" transform="translate(655,663)"/>
<path d="M0,0 L4,0 L4,8 L0,8 Z " fill="#FFE9B8" transform="translate(608,620)"/>
<path d="M0,0 L4,0 L5,4 L3,5 L1,9 L-1,9 Z " fill="#FCDAB8" transform="translate(649,644)"/>
<path d="M0,0 L3,0 L2,5 L-3,9 L-5,8 L-4,5 L-2,5 L-2,3 L0,2 Z " fill="#D9A38B" transform="translate(373,438)"/>
<path d="M0,0 L6,0 L4,1 L4,3 L-2,4 L-12,4 L-12,3 L-2,1 Z " fill="#F8D5B3" transform="translate(638,667)"/>
<path d="M0,0 L4,1 L1,1 L1,3 L4,4 L0,7 L-2,7 L-2,5 L-8,5 L-8,4 L-2,4 L-2,2 L0,2 Z " fill="#BE927B" transform="translate(472,418)"/>
<path d="M0,0 L10,0 L10,1 L1,1 L1,3 L4,4 L2,9 L1,5 L-1,5 L-2,8 L-2,4 L0,4 Z " fill="#B68775" transform="translate(508,390)"/>
<path d="M0,0 L6,0 L7,4 L5,7 L0,6 L2,5 L2,3 L5,2 L0,2 Z " fill="#D99E91" transform="translate(644,367)"/>
<path d="M0,0 L7,1 L7,6 L3,5 L3,3 L0,3 Z " fill="#E1C5A1" transform="translate(400,666)"/>
<path d="M0,0 L1,0 L1,8 L-1,12 L-2,11 L-2,1 Z " fill="#F4DEB6" transform="translate(426,653)"/>
<path d="M0,0 L2,4 L4,10 L0,10 L-1,9 Z " fill="#DAA49C" transform="translate(704,458)"/>
<path d="M0,0 L9,2 L9,5 L3,5 L0,3 Z " fill="#D9A58C" transform="translate(461,421)"/>
<path d="M0,0 L3,3 L3,10 L1,10 L-1,7 Z M0,10 Z " fill="#E2A49D" transform="translate(693,408)"/>
<path d="M0,0 L7,0 L7,1 L-4,4 L-9,4 L-9,2 Z " fill="#E6C5A6" transform="translate(660,668)"/>
<path d="M0,0 L2,0 L2,9 L5,9 L5,11 L0,10 Z " fill="#DDBE9F" transform="translate(341,606)"/>
<path d="M0,0 L3,3 L3,8 L2,5 L-3,6 L-4,2 Z " fill="#E6B2A1" transform="translate(697,473)"/>
<path d="M0,0 L12,0 L8,2 L-2,3 L-2,1 Z " fill="#D7BC98" transform="translate(584,686)"/>
<path d="M0,0 L4,0 L4,2 L0,4 L-6,6 L-6,3 Z " fill="#F0CEA3" transform="translate(434,542)"/>
<path d="M0,0 L7,0 L8,2 L6,2 L6,4 L-2,5 L-2,3 L0,1 Z " fill="#E9C29E" transform="translate(370,538)"/>
<path d="M0,0 L2,0 L2,2 L4,3 L1,6 L-4,6 L-4,4 L-1,3 Z M4,0 Z " fill="#DCA791" transform="translate(349,461)"/>
<path d="M0,0 L3,1 L0,3 L-10,4 L-7,1 Z " fill="#E8C6A6" transform="translate(648,672)"/>
<path d="M0,0 L1,0 L1,6 L-2,6 L-2,11 L-4,11 L-4,4 L-2,3 L-2,5 L0,5 L-1,1 Z " fill="#D3B69C" transform="translate(697,638)"/>
<path d="M0,0 L2,1 L2,7 L-3,5 L-3,2 Z " fill="#F3D3B1" transform="translate(372,608)"/>
<path d="M0,0 L5,0 L5,2 L2,2 L2,4 L5,4 L5,6 L0,6 Z " fill="#E2B09E" transform="translate(329,495)"/>
<path d="M0,0 L9,0 L7,3 L0,3 Z " fill="#D99E8C" transform="translate(536,393)"/>
<path d="M0,0 L4,0 L5,3 L5,6 L0,6 Z " fill="#191712" transform="translate(458,694)"/>
<path d="M0,0 L8,1 L9,3 L-3,3 L-3,1 Z " fill="#DEC9A3" transform="translate(415,680)"/>
<path d="M0,0 L3,0 L3,3 L7,4 L8,8 L4,7 L2,2 L0,2 Z " fill="#D7BD99" transform="translate(361,633)"/>
<path d="M0,0 L1,3 L3,3 L4,1 L7,5 L5,5 L5,7 L8,8 L4,8 L0,4 Z " fill="#BBA182" transform="translate(352,630)"/>
<path d="M0,0 L3,0 L4,3 L2,7 L0,7 L0,5 L-2,4 L0,4 Z " fill="#D5AD95" transform="translate(339,510)"/>
<path d="M0,0 L2,0 L4,7 L3,9 L1,9 L0,7 Z " fill="#DFC6A3" transform="translate(407,672)"/>
<path d="M0,0 L3,1 L4,10 L2,11 Z " fill="#D7B89A" transform="translate(340,592)"/>
<path d="M0,0 L2,4 L1,11 L-1,11 L-1,2 Z " fill="#FED5BA" transform="translate(672,577)"/>
<path d="M0,0 L3,0 L2,4 L-1,5 L-4,4 L-4,2 Z " fill="#DAA68C" transform="translate(363,451)"/>
<path d="M0,0 L6,0 L6,2 L1,2 L1,6 L-1,6 L-1,1 Z " fill="#DFA68E" transform="translate(390,411)"/>
<path d="M0,0 L2,0 L2,5 L-5,5 L-5,3 L0,3 Z " fill="#E2C49C" transform="translate(591,696)"/>
<path d="M0,0 L4,2 L5,5 L1,5 L1,3 L-2,3 L-2,1 Z " fill="#DBCB9F" transform="translate(475,698)"/>
<path d="M0,0 L7,2 L7,3 L-4,3 L-5,1 Z " fill="#FCDBB7" transform="translate(629,666)"/>
<path d="M0,0 L5,0 L6,2 L5,4 L1,4 Z M-1,2 Z " fill="#F7E1B8" transform="translate(427,648)"/>
<path d="M0,0 L2,1 L2,8 L-1,11 Z " fill="#EBC8A0" transform="translate(358,585)"/>
<path d="M0,0 L3,1 L4,4 L0,5 L0,3 L-3,2 Z " fill="#EEC29E" transform="translate(384,536)"/>
<path d="M0,0 L2,0 L2,2 L4,3 L2,5 L-1,5 L-3,1 Z " fill="#E9BE9C" transform="translate(382,532)"/>
<path d="M0,0 L3,0 L2,6 L-1,6 L-1,1 Z " fill="#E0A59E" transform="translate(696,426)"/>
<path d="M0,0 L4,1 L1,1 L1,3 L3,3 L2,8 L1,5 L-1,5 L-2,8 L-2,4 L0,4 Z " fill="#B68B75" transform="translate(478,410)"/>
<path d="M0,0 L10,0 L9,2 L2,3 L0,2 Z " fill="#D1A088" transform="translate(418,407)"/>
<path d="M0,0 L6,0 L6,1 L1,1 L1,3 L4,4 L3,6 L-2,6 L-2,4 L0,4 Z " fill="#B68377" transform="translate(556,380)"/>
<path d="M0,0 L7,0 L7,4 L4,4 L3,2 L0,2 Z " fill="#DEC4A1" transform="translate(395,679)"/>
<path d="M0,0 L5,0 L4,5 L0,4 Z " fill="#DCBA9D" transform="translate(327,569)"/>
<path d="M0,0 L7,1 L4,2 L3,6 L2,3 L-1,2 Z " fill="#F7CFA7" transform="translate(410,546)"/>
<path d="M0,0 L1,3 L4,4 L3,7 L1,7 L1,5 L-1,5 L-2,8 L-2,4 L0,4 Z " fill="#BB8E7A" transform="translate(350,456)"/>
<path d="M0,0 L2,0 L1,5 L-3,4 L-3,1 Z " fill="#D8A38B" transform="translate(400,408)"/>
<path d="M0,0 L6,0 L4,1 L4,3 L-4,3 L0,2 Z " fill="#E2C1A2" transform="translate(642,675)"/>
<path d="M0,0 L2,3 L0,9 L-1,9 L-1,1 Z " fill="#D8BAA4" transform="translate(704,604)"/>
<path d="M0,0 L2,0 L1,5 L-4,6 L-4,4 L-1,3 Z " fill="#DDAA90" transform="translate(477,415)"/>
<path d="M0,0 L4,0 L4,3 L-1,6 Z " fill="#F8E3B5" transform="translate(428,640)"/>
<path d="M0,0 L4,1 L5,4 L0,5 Z " fill="#F0D1AB" transform="translate(380,626)"/>
<path d="M0,0 L2,0 L2,8 L0,8 L-1,5 Z " fill="#D1AE9B" transform="translate(705,542)"/>
<path d="M0,0 L3,0 L3,2 L6,2 L6,4 L2,5 L0,3 Z " fill="#DA9E92" transform="translate(615,369)"/>
<path d="M0,0 L4,0 L4,4 L0,4 Z " fill="#151210" transform="translate(716,576)"/>
<path d="M0,0 L4,0 L3,5 L1,6 Z " fill="#DFA892" transform="translate(407,401)"/>
<path d="M0,0 L3,0 L3,2 L5,2 L5,4 L0,4 Z " fill="#DBA192" transform="translate(560,392)"/>
<path d="M0,0 L5,1 L0,5 L-1,1 Z " fill="#D69D8A" transform="translate(519,389)"/>
<path d="M0,0 L5,0 L1,4 L-1,3 Z " fill="#D5A088" transform="translate(369,443)"/>
<path d="M0,0 L6,1 L5,4 L1,3 Z " fill="#D69C90" transform="translate(656,375)"/>
<path d="M0,0 L2,1 L0,2 Z M-6,2 L0,2 L-1,5 L-4,5 L-4,3 Z " fill="#D49A8E" transform="translate(625,368)"/>
<path d="M0,0 L5,0 L5,4 L3,4 L3,2 L0,2 Z " fill="#E5AE93" transform="translate(456,411)"/>
<path d="M0,0 L2,0 L2,5 L-1,6 Z " fill="#DAA18B" transform="translate(507,395)"/>
<path d="M0,0 L5,0 L1,4 Z " fill="#D09D86" transform="translate(353,457)"/>
<path d="M0,0 L5,0 L5,2 L0,3 Z " fill="#110D0B" transform="translate(385,418)"/>
<path d="M0,0 L2,0 L1,4 L-2,4 L-2,1 Z " fill="#DBA28E" transform="translate(526,416)"/>
<path d="M0,0 L2,2 L2,7 L0,7 L-1,4 Z " fill="#E9A59C" transform="translate(684,402)"/>
<path d="M0,0 L3,1 L3,4 L-1,3 Z " fill="#040302" transform="translate(386,669)"/>
<path d="M0,0 L2,0 L1,5 L-1,5 Z " fill="#DCAD98" transform="translate(336,500)"/>
<path d="M0,0 L5,0 L0,4 Z " fill="#DECB9F" transform="translate(520,687)"/>
<path d="M0,0 L6,1 L3,3 L0,2 Z " fill="#DDC39E" transform="translate(361,639)"/>
<path d="M0,0 L1,2 L3,3 L2,6 L0,5 Z " fill="#F3D5AD" transform="translate(403,630)"/>
<path d="M0,0 L3,1 L3,5 L0,4 Z " fill="#D3AF9C" transform="translate(711,560)"/>
<path d="M0,0 L3,0 L2,4 L0,4 Z " fill="#E8B59A" transform="translate(508,492)"/>
<path d="M0,0 L2,0 L2,3 L-3,3 Z " fill="#CFB38F" transform="translate(589,696)"/>
<path d="M0,0 L2,3 L2,5 L-1,5 Z M2,2 Z " fill="#D2A791" transform="translate(338,500)"/>
<path d="M0,0 L2,0 L1,3 L-2,3 L-2,1 Z " fill="#D8BC96" transform="translate(595,692)"/>
<path d="M0,0 L2,0 L0,5 L-1,1 Z " fill="#EFD9B0" transform="translate(421,649)"/>
<path d="M0,0 L2,0 L1,4 L0,2 L-2,1 Z " fill="#FEE0BE" transform="translate(644,648)"/>
<path d="M0,0 L3,1 L2,4 L0,4 Z " fill="#FADAAC" transform="translate(484,566)"/>
<path d="M0,0 L2,1 L1,4 L-2,1 Z " fill="#D2AF9B" transform="translate(711,552)"/>
<path d="M0,0 L4,1 L1,3 L-1,1 Z " fill="#F6CCA6" transform="translate(389,545)"/>
<path d="M0,0 L4,0 L4,2 L1,3 Z " fill="#E6A996" transform="translate(572,408)"/>
<path d="M0,0 L3,2 L-1,2 Z " fill="#D3C098" transform="translate(435,696)"/>
<path d="M0,0 L3,1 L2,3 L0,3 Z " fill="#F8E3B0" transform="translate(496,578)"/>
</svg>
