<?xml version="1.0" encoding="UTF-8"?>
<!-- Generator: visioncortex VTracer 0.6.4 -->
<svg version="1.1" xmlns="http://www.w3.org/2000/svg" width="1024" height="1024">
<path d="M0,0 L1024,0 L1024,1024 L0,1024 Z " fill="#000000" transform="translate(0,0)"/>
<path d="M0,0 L36,0 L36,2 L42,2 L44,5 L48,6 L48,8 L46,8 L46,10 L50,10 L50,12 L52,12 L52,16 L56,16 L56,18 L58,18 L58,36 L60,36 L60,42 L62,42 L62,52 L64,52 L64,56 L66,56 L66,64 L70,64 L70,72 L72,72 L72,88 L70,88 L70,94 L68,94 L68,92 L66,92 L66,96 L64,96 L64,118 L62,118 L62,124 L64,124 L64,128 L66,128 L66,132 L64,132 L64,148 L62,148 L62,156 L60,156 L61,168 L60,202 L62,202 L62,206 L60,206 L60,222 L58,222 L58,226 L56,226 L56,234 L54,234 L54,236 L52,236 L52,240 L50,240 L50,242 L48,242 L48,248 L46,248 L46,254 L44,254 L44,258 L40,258 L40,264 L38,264 L38,266 L36,266 L36,262 L34,262 L34,264 L30,264 L30,272 L28,272 L28,280 L26,280 L26,288 L24,288 L24,300 L22,300 L22,302 L20,302 L20,298 L16,302 L12,302 L12,306 L10,306 L10,312 L6,312 L6,316 L2,316 L2,320 L-2,320 L-2,322 L-6,322 L-6,324 L-4,324 L-4,328 L-6,328 L-6,332 L-10,332 L-10,334 L-16,334 L-16,336 L-18,336 L-18,340 L-22,340 L-22,348 L-24,348 L-24,350 L-34,350 L-34,352 L-40,352 L-40,354 L-52,354 L-52,358 L-60,358 L-60,362 L-64,362 L-64,364 L-66,364 L-66,366 L-70,366 L-70,368 L-80,368 L-80,370 L-88,370 L-88,372 L-100,372 L-100,374 L-110,374 L-110,376 L-112,376 L-112,374 L-114,374 L-114,376 L-124,376 L-124,374 L-126,374 L-126,376 L-128,376 L-128,374 L-132,374 L-132,372 L-138,372 L-138,374 L-144,374 L-144,372 L-156,372 L-156,370 L-180,370 L-180,368 L-186,368 L-186,370 L-190,370 L-190,368 L-204,368 L-204,366 L-208,366 L-212,362 L-212,360 L-210,360 L-210,358 L-212,358 L-212,354 L-214,354 L-214,352 L-218,352 L-218,350 L-222,350 L-222,352 L-224,352 L-228,348 L-228,338 L-232,336 L-232,334 L-236,334 L-238,329 L-240,328 L-238,322 L-240,322 L-240,318 L-242,318 L-242,294 L-244,294 L-244,286 L-242,286 L-242,280 L-244,280 L-244,250 L-248,248 L-252,244 L-252,242 L-258,242 L-258,240 L-260,240 L-260,236 L-264,236 L-264,238 L-272,238 L-272,236 L-274,236 L-274,226 L-276,226 L-276,216 L-278,216 L-278,208 L-280,208 L-280,196 L-284,196 L-284,188 L-286,188 L-286,176 L-288,176 L-288,168 L-290,168 L-290,152 L-292,152 L-292,124 L-290,124 L-290,102 L-288,102 L-288,98 L-284,98 L-284,96 L-280,96 L-280,92 L-278,92 L-278,84 L-276,84 L-276,80 L-272,80 L-272,74 L-270,74 L-270,72 L-272,72 L-272,66 L-268,66 L-268,64 L-264,64 L-262,60 L-258,58 L-256,54 L-254,54 L-254,56 L-252,56 L-252,54 L-250,54 L-250,56 L-248,56 L-248,54 L-246,54 L-246,52 L-242,52 L-242,50 L-240,50 L-240,48 L-228,48 L-228,44 L-220,44 L-220,46 L-216,46 L-216,44 L-212,44 L-212,42 L-206,42 L-206,40 L-210,40 L-210,38 L-204,38 L-204,34 L-196,34 L-196,32 L-184,32 L-184,30 L-182,30 L-182,32 L-176,32 L-176,30 L-174,30 L-174,32 L-150,32 L-150,30 L-128,30 L-128,28 L-120,28 L-120,26 L-118,26 L-118,28 L-115,28 L-115,26 L-110,26 L-110,24 L-104,24 L-104,22 L-92,22 L-92,20 L-80,20 L-80,18 L-72,18 L-72,16 L-48,16 L-48,14 L-46,14 L-46,16 L-36,16 L-36,14 L-34,14 L-34,16 L-31,16 L-31,14 L-24,14 L-24,12 L-16,12 L-14,8 L-12,8 L-12,6 L-6,6 L-6,4 L-4,4 L-4,2 L0,2 Z " fill="#F4A78C" transform="translate(620,328)"/>
<path d="M0,0 L4,1 L1,1 L1,3 L5,4 L2,7 L2,5 L-1,5 L-1,12 L2,13 L0,23 L-1,40 L-1,70 L-2,72 L3,72 L3,78 L1,84 L0,89 L2,89 L2,101 L1,106 L2,111 L0,115 L1,116 L2,127 L4,134 L6,139 L5,146 L7,147 L6,153 L12,153 L12,155 L16,155 L17,153 L17,155 L21,156 L21,158 L26,159 L29,161 L29,163 L33,165 L36,168 L37,171 L37,197 L38,199 L41,201 L38,206 L38,214 L41,217 L39,221 L39,232 L41,241 L44,242 L45,245 L44,248 L49,253 L53,256 L54,261 L53,264 L60,265 L63,268 L65,269 L65,271 L63,271 L64,274 L62,274 L62,272 L58,272 L58,270 L54,270 L54,272 L52,272 L48,268 L48,258 L44,256 L44,254 L40,254 L38,249 L36,248 L38,242 L36,242 L36,238 L34,238 L34,214 L32,214 L32,206 L34,206 L34,200 L32,200 L32,170 L28,168 L24,164 L24,162 L18,162 L18,160 L16,160 L16,156 L12,156 L12,158 L4,158 L4,156 L2,156 L2,146 L0,146 L0,136 L-2,136 L-2,128 L-4,128 L-4,116 L-8,116 L-8,108 L-10,108 L-10,96 L-12,96 L-12,88 L-14,88 L-14,72 L-16,72 L-16,44 L-14,44 L-14,22 L-12,22 L-12,18 L-8,18 L-8,16 L-4,16 L-4,12 L-2,12 L-2,4 L0,4 Z " fill="#E59982" transform="translate(344,408)"/>
<path d="M0,0 L36,0 L36,2 L42,2 L44,5 L48,6 L48,8 L46,8 L46,10 L50,11 L40,11 L41,7 L36,8 L35,6 L29,5 L27,7 L27,5 L24,5 L24,7 L19,6 L14,5 L7,5 L2,8 L-6,11 L-8,14 L-3,14 L-3,16 L4,14 L4,16 L11,15 L13,18 L10,21 L4,21 L0,22 L-5,22 L-10,23 L-11,21 L-12,22 L-26,23 L-28,23 L-34,25 L-34,23 L-41,24 L-43,27 L-54,30 L-60,30 L-63,29 L-68,30 L-70,31 L-77,31 L-77,29 L-82,29 L-87,33 L-94,32 L-94,30 L-102,31 L-104,32 L-104,30 L-109,31 L-119,29 L-120,26 L-118,26 L-118,28 L-115,28 L-115,26 L-110,26 L-110,24 L-104,24 L-104,22 L-92,22 L-92,20 L-80,20 L-80,18 L-72,18 L-72,16 L-48,16 L-48,14 L-46,14 L-46,16 L-36,16 L-36,14 L-34,14 L-34,16 L-31,16 L-31,14 L-24,14 L-24,12 L-16,12 L-14,8 L-12,8 L-12,6 L-6,6 L-6,4 L-4,4 L-4,2 L0,2 Z M-104,29 Z M-110,31 Z " fill="#EA9A8F" transform="translate(620,328)"/>
<path d="M0,0 L1,4 L5,4 L5,6 L7,6 L7,24 L9,24 L9,30 L11,30 L11,40 L13,40 L13,44 L15,44 L15,52 L19,52 L19,60 L21,60 L21,76 L19,76 L19,82 L17,82 L17,80 L15,80 L15,84 L13,84 L13,106 L11,106 L11,112 L13,112 L13,116 L15,116 L15,120 L13,120 L13,136 L11,136 L11,144 L9,144 L9,154 L8,154 L8,144 L6,144 L5,139 L5,125 L4,128 L2,127 L5,118 L4,111 L3,105 L4,103 L5,89 L5,64 L4,60 L4,54 L3,51 L3,47 L2,49 L0,48 L1,44 L4,42 L5,27 L3,28 L1,32 L0,29 L1,27 L1,15 L-2,16 L-3,21 L-5,21 L-4,12 L-1,11 L0,7 L-2,7 L-2,5 L-5,4 L-5,1 L-2,1 L-2,4 L0,4 Z " fill="#E79B8A" transform="translate(671,340)"/>
<path d="M0,0 L1,3 L7,3 L7,4 L1,4 L1,6 L-11,6 L-11,10 L-19,10 L-19,14 L-23,14 L-23,16 L-25,16 L-25,18 L-29,18 L-29,20 L-39,20 L-39,22 L-47,22 L-47,24 L-59,24 L-59,26 L-69,26 L-69,28 L-71,28 L-71,26 L-73,26 L-73,28 L-83,28 L-83,26 L-85,26 L-85,28 L-87,28 L-87,26 L-91,26 L-91,24 L-97,24 L-97,26 L-103,26 L-103,24 L-115,24 L-115,22 L-139,22 L-139,20 L-145,20 L-145,22 L-149,22 L-149,20 L-163,20 L-163,18 L-167,18 L-171,14 L-171,12 L-169,12 L-169,10 L-171,10 L-170,6 L-170,9 L-168,9 L-168,5 L-166,5 L-164,13 L-162,13 L-162,15 L-146,16 L-141,15 L-139,13 L-138,16 L-133,17 L-136,13 L-131,13 L-131,15 L-122,16 L-117,16 L-113,18 L-111,16 L-111,18 L-108,18 L-107,16 L-107,18 L-102,19 L-102,21 L-98,21 L-98,19 L-85,19 L-83,17 L-77,18 L-74,16 L-67,17 L-67,19 L-62,15 L-59,14 L-59,17 L-56,18 L-55,16 L-50,16 L-49,18 L-40,18 L-40,16 L-28,16 L-28,14 L-24,15 L-24,13 L-27,12 L-26,7 L-23,3 L-12,3 L-12,5 L0,5 L0,3 L-2,2 L0,2 Z " fill="#E79D86" transform="translate(579,676)"/>
<path d="M0,0 L1,0 L1,11 L3,11 L3,0 L5,0 L6,11 L8,18 L10,23 L9,30 L11,31 L10,37 L16,37 L16,39 L20,39 L21,37 L21,39 L25,40 L25,42 L30,43 L33,45 L33,47 L37,49 L40,52 L41,55 L41,81 L42,83 L45,85 L42,90 L42,98 L45,101 L43,105 L43,116 L45,125 L48,126 L49,129 L48,132 L53,137 L57,140 L58,145 L57,148 L64,149 L67,152 L69,153 L69,155 L67,155 L68,158 L66,158 L66,156 L62,156 L62,154 L58,154 L58,156 L56,156 L52,152 L52,142 L48,140 L48,138 L44,138 L42,133 L40,132 L42,126 L40,126 L40,122 L38,122 L38,98 L36,98 L36,90 L38,90 L38,84 L36,84 L36,54 L32,52 L28,48 L28,46 L22,46 L22,44 L20,44 L20,40 L16,40 L16,42 L8,42 L8,40 L6,40 L6,30 L4,30 L4,20 L2,20 L2,12 L0,12 Z " fill="#E59980" transform="translate(340,524)"/>
<path d="M0,0 L2,0 L4,8 L6,8 L6,10 L22,11 L27,10 L29,8 L30,11 L35,12 L32,8 L37,8 L37,10 L46,11 L51,11 L55,13 L57,11 L57,13 L60,13 L61,11 L61,13 L66,14 L66,16 L70,16 L70,14 L77,14 L80,17 L78,18 L78,20 L85,20 L85,18 L83,17 L86,16 L86,19 L88,20 L86,20 L86,22 L94,22 L95,18 L95,20 L99,19 L109,20 L109,21 L99,21 L99,23 L97,23 L97,21 L95,21 L95,23 L85,23 L85,21 L83,21 L83,23 L81,23 L81,21 L77,21 L77,19 L71,19 L71,21 L65,21 L65,19 L53,19 L53,17 L29,17 L29,15 L23,15 L23,17 L19,17 L19,15 L5,15 L5,13 L1,13 L-3,9 L-3,7 L-1,7 L-1,5 L-3,5 L-2,1 L-2,4 L0,4 Z " fill="#E39681" transform="translate(411,681)"/>
<path d="M0,0 L1,0 L1,8 L-1,8 L-1,20 L-3,20 L-3,22 L-5,22 L-5,18 L-9,22 L-13,22 L-13,26 L-15,26 L-15,32 L-19,32 L-19,36 L-23,36 L-23,40 L-27,40 L-27,42 L-31,42 L-31,44 L-29,44 L-29,48 L-31,48 L-31,52 L-35,52 L-35,54 L-41,54 L-41,56 L-43,56 L-43,60 L-47,60 L-47,68 L-49,68 L-49,70 L-59,70 L-59,69 L-50,69 L-50,67 L-57,67 L-59,66 L-59,64 L-53,64 L-54,60 L-57,61 L-57,58 L-49,54 L-44,52 L-38,49 L-37,43 L-38,40 L-34,39 L-31,39 L-31,41 L-28,41 L-28,39 L-30,38 L-24,39 L-24,37 L-28,37 L-28,35 L-26,35 L-25,33 L-23,33 L-21,28 L-17,20 L-13,19 L-13,17 L-10,15 L-9,11 L-7,11 L-6,5 L-3,3 L-2,7 L0,7 Z " fill="#D9977F" transform="translate(645,608)"/>
<path d="M0,0 L6,0 L6,1 L1,1 L1,3 L6,3 L6,4 L0,5 L0,3 L-3,3 L-3,5 L-1,5 L-3,9 L-5,12 L-7,12 L-7,10 L-14,12 L-16,14 L-24,14 L-25,11 L-33,17 L-36,20 L-36,15 L-40,16 L-42,15 L-42,17 L-40,18 L-44,18 L-45,23 L-50,28 L-46,26 L-47,32 L-50,38 L-52,38 L-53,33 L-55,32 L-55,30 L-57,30 L-56,32 L-56,38 L-57,38 L-57,33 L-59,33 L-59,38 L-60,38 L-60,32 L-58,32 L-58,30 L-60,30 L-60,24 L-56,24 L-56,22 L-52,22 L-50,18 L-46,16 L-44,12 L-42,12 L-42,14 L-40,14 L-40,12 L-38,12 L-38,14 L-36,14 L-36,12 L-34,12 L-34,10 L-30,10 L-30,8 L-28,8 L-28,6 L-16,6 L-16,2 L-8,2 L-8,4 L-4,4 L-4,2 L0,2 Z " fill="#E79787" transform="translate(408,370)"/>
<path d="M0,0 L2,0 L4,2 L5,2 L5,8 L7,8 L9,2 L11,2 L8,12 L2,17 L1,24 L-2,28 L-3,39 L-5,41 L-4,43 L-5,46 L-3,46 L-3,65 L-4,76 L-6,80 L-9,80 L-9,42 L-7,26 L-6,21 L-8,20 L-8,13 L-3,12 L-6,11 L-6,9 L-3,8 L-2,3 L0,2 Z " fill="#E99D8A" transform="translate(351,400)"/>
<path d="M0,0 L36,0 L36,2 L42,2 L44,5 L48,6 L48,8 L46,8 L46,10 L50,11 L40,11 L41,7 L36,8 L35,6 L29,5 L27,7 L27,5 L24,5 L24,7 L19,6 L14,5 L7,5 L2,8 L-6,11 L-8,14 L-3,14 L-3,16 L-24,17 L-24,15 L-31,15 L-31,14 L-24,14 L-24,12 L-16,12 L-14,8 L-12,8 L-12,6 L-6,6 L-6,4 L-4,4 L-4,2 L0,2 Z " fill="#EA978B" transform="translate(620,328)"/>
<path d="M0,0 L4,1 L1,1 L1,3 L3,4 L0,12 L-1,13 L-2,29 L-4,29 L-3,56 L-5,56 L-5,71 L-3,71 L-3,66 L-2,66 L-2,71 L0,71 L2,79 L3,83 L3,89 L4,91 L4,97 L3,97 L3,92 L1,92 L1,99 L4,100 L0,100 L0,92 L-2,92 L-2,80 L-4,80 L-4,72 L-6,72 L-6,56 L-8,56 L-8,28 L-6,28 L-6,6 L-4,6 L-4,2 L0,2 Z " fill="#DE927C" transform="translate(336,424)"/>
<path d="M0,0 L7,1 L7,7 L5,13 L4,18 L6,18 L6,30 L5,35 L6,40 L4,45 L3,56 L1,56 L0,45 L-3,44 L-3,37 L-1,36 L-2,34 L-2,26 L-4,22 L-5,7 L-3,7 L-2,1 Z " fill="#E49A82" transform="translate(340,479)"/>
<path d="M0,0 L1,0 L1,11 L3,11 L3,0 L5,0 L6,11 L8,18 L10,23 L9,30 L11,31 L10,37 L16,37 L16,39 L20,39 L21,37 L21,39 L25,40 L25,42 L30,43 L33,45 L33,47 L37,49 L38,54 L37,84 L36,84 L36,54 L32,52 L28,48 L28,46 L22,46 L22,44 L20,44 L20,40 L16,40 L16,42 L8,42 L8,40 L6,40 L6,30 L4,30 L4,20 L2,20 L2,12 L0,12 Z " fill="#DB947C" transform="translate(340,524)"/>
<path d="M0,0 L8,0 L8,1 L1,1 L1,3 L8,3 L8,4 L1,4 L1,6 L-6,7 L-12,8 L-13,7 L-22,7 L-22,5 L-46,6 L-48,8 L-64,9 L-67,12 L-72,12 L-74,14 L-77,14 L-77,12 L-82,12 L-82,10 L-76,10 L-76,6 L-68,6 L-68,4 L-56,4 L-56,2 L-54,2 L-54,4 L-48,4 L-48,2 L-46,2 L-46,4 L-22,4 L-22,2 L0,2 Z M-70,10 Z " fill="#D68B7E" transform="translate(492,356)"/>
<path d="M0,0 L2,0 L2,2 L12,2 L12,0 L14,0 L13,3 L0,4 L-23,3 L-23,5 L-21,6 L-23,6 L-23,8 L-31,8 L-31,10 L-43,10 L-44,13 L-52,14 L-56,16 L-61,17 L-71,15 L-72,12 L-70,12 L-70,14 L-67,14 L-67,12 L-62,12 L-62,10 L-56,10 L-56,8 L-44,8 L-44,6 L-32,6 L-32,4 L-24,4 L-24,2 L0,2 Z M-62,17 Z " fill="#E7978A" transform="translate(572,342)"/>
<path d="M0,0 L1,4 L3,4 L3,12 L7,12 L7,20 L9,20 L9,36 L7,36 L7,42 L5,42 L5,40 L3,40 L3,44 L1,44 L1,66 L0,66 L0,44 L-2,44 L-2,65 L-3,65 L-3,43 L-1,43 L0,41 L0,43 L2,43 L1,37 L3,37 L3,24 L5,20 L6,13 L4,13 L4,20 L-1,19 L-4,7 L-4,1 L-3,5 L-1,4 Z " fill="#D48D7C" transform="translate(683,380)"/>
<path d="M0,0 L1,0 L1,6 L3,6 L3,10 L5,10 L5,14 L3,14 L3,30 L1,30 L1,38 L-1,38 L-1,48 L-2,48 L-2,38 L-4,38 L-5,33 L-5,19 L-6,22 L-8,21 L-3,6 L0,6 Z " fill="#D9907F" transform="translate(681,446)"/>
<path d="M0,0 L1,0 L1,8 L-1,8 L-1,20 L-3,20 L-3,22 L-5,22 L-5,18 L-9,22 L-13,22 L-13,26 L-15,26 L-15,32 L-19,32 L-19,36 L-23,36 L-23,40 L-27,40 L-27,42 L-31,41 L-28,41 L-28,39 L-30,38 L-24,39 L-24,37 L-28,37 L-28,35 L-26,35 L-25,33 L-23,33 L-21,28 L-17,20 L-13,19 L-13,17 L-10,15 L-9,11 L-7,11 L-6,5 L-3,3 L-2,7 L0,7 Z " fill="#D28D78" transform="translate(645,608)"/>
<path d="M0,0 L1,3 L7,3 L7,4 L1,4 L1,6 L-11,6 L-11,10 L-19,10 L-19,14 L-23,14 L-23,16 L-25,16 L-25,18 L-29,18 L-29,20 L-39,20 L-39,22 L-47,22 L-47,24 L-59,24 L-59,23 L-48,23 L-48,21 L-59,21 L-59,20 L-47,20 L-40,21 L-40,19 L-47,19 L-47,18 L-40,18 L-40,16 L-28,16 L-28,14 L-24,15 L-24,13 L-27,12 L-26,7 L-23,3 L-12,3 L-12,5 L0,5 L0,3 L-2,2 L0,2 Z " fill="#E59D86" transform="translate(579,676)"/>
<path d="M0,0 L1,3 L4,3 L5,1 L5,3 L8,4 L9,7 L8,10 L13,15 L17,18 L18,23 L17,26 L24,27 L27,30 L29,31 L29,33 L27,33 L28,36 L26,36 L26,34 L22,34 L22,32 L18,32 L18,34 L16,34 L12,30 L12,20 L8,18 L8,16 L4,16 L2,11 L0,10 L2,4 L0,4 Z " fill="#E79580" transform="translate(380,646)"/>
<path d="M0,0 L4,1 L1,1 L1,3 L5,4 L2,7 L2,5 L-1,5 L-1,12 L2,13 L0,23 L-1,40 L-1,64 L-3,65 L-4,58 L-4,43 L-5,30 L-6,34 L-8,34 L-9,44 L-10,44 L-10,29 L-8,27 L-6,20 L-7,17 L-4,17 L-4,12 L-2,12 L-2,4 L0,4 Z " fill="#E49985" transform="translate(344,408)"/>
<path d="M0,0 L6,1 L6,3 L1,4 L7,6 L7,7 L-2,7 L-4,11 L-5,16 L-3,17 L-3,19 L-7,18 L-7,20 L-5,21 L-19,20 L-19,22 L-26,22 L-26,20 L-22,20 L-22,17 L-18,16 L-17,11 L-12,8 L-8,8 L-8,5 L-5,4 L-5,1 Z " fill="#E59D85" transform="translate(558,672)"/>
<path d="M0,0 L1,2 L4,2 L5,0 L5,2 L10,3 L10,5 L14,5 L14,3 L21,3 L24,6 L22,7 L22,9 L29,9 L29,7 L27,6 L30,5 L30,8 L32,9 L30,9 L30,11 L38,11 L39,7 L39,9 L43,8 L53,9 L53,10 L43,10 L43,12 L41,12 L41,10 L39,10 L39,12 L29,12 L29,10 L27,10 L27,12 L25,12 L25,10 L21,10 L21,8 L15,8 L15,10 L9,10 L9,8 L-3,8 L-3,6 L-27,6 L-27,5 L-3,5 L-2,2 Z " fill="#D48C78" transform="translate(467,692)"/>
<path d="M0,0 L21,0 L21,1 L1,3 L-1,7 L-3,7 L-3,9 L-8,10 L-13,10 L-18,14 L-25,13 L-25,11 L-33,12 L-35,13 L-34,10 L-32,8 L-23,7 L-22,5 L-10,5 L-10,3 L-2,3 L-2,1 Z " fill="#E49487" transform="translate(551,347)"/>
<path d="M0,0 L1,4 L5,4 L5,6 L7,6 L7,24 L9,24 L9,30 L11,30 L11,40 L10,40 L10,31 L8,31 L7,33 L7,31 L5,31 L5,27 L3,28 L1,32 L0,29 L1,27 L1,15 L-2,16 L-3,21 L-5,21 L-4,12 L-1,11 L0,7 L-2,7 L-2,5 L-5,4 L-5,1 L-2,1 L-2,4 L0,4 Z " fill="#DE9085" transform="translate(671,340)"/>
<path d="M0,0 L8,0 L7,4 L13,6 L13,7 L2,10 L-4,10 L-7,9 L-12,10 L-14,11 L-21,11 L-18,8 L-16,8 L-16,6 L-12,2 Z " fill="#EC988C" transform="translate(564,348)"/>
<path d="M0,0 L6,0 L6,1 L1,1 L1,3 L6,3 L6,4 L0,5 L0,3 L-3,3 L-3,5 L-1,5 L-3,9 L-5,12 L-7,12 L-7,10 L-14,12 L-16,14 L-24,14 L-24,11 L-27,10 L-27,7 L-16,7 L-16,2 L-8,2 L-8,4 L-4,4 L-4,2 L0,2 Z " fill="#E69B8C" transform="translate(408,370)"/>
<path d="M0,0 L6,0 L5,4 L10,7 L11,16 L9,16 L9,12 L7,12 L7,14 L3,14 L3,22 L1,22 L1,30 L0,30 L0,22 L-2,22 L-2,29 L-4,25 L-3,14 L0,6 L-3,7 L-3,5 L-1,5 Z " fill="#DD927F" transform="translate(647,578)"/>
<path d="M0,0 L1,0 L1,34 L3,34 L3,38 L1,38 L1,54 L-1,54 L-1,58 L-3,58 L-3,66 L-4,66 L-4,58 L-6,58 L-6,65 L-7,65 L-8,57 L-4,54 L-4,57 L-2,57 L-4,53 L-5,39 L-4,38 L-3,16 L-2,16 L-2,34 L0,34 Z " fill="#D4907C" transform="translate(679,496)"/>
<path d="M0,0 L13,0 L13,2 L22,3 L22,5 L13,5 L13,7 L7,7 L6,7 L6,9 L-6,9 L-7,6 L-6,2 L0,2 Z " fill="#E7A38A" transform="translate(573,672)"/>
<path d="M0,0 L1,2 L5,2 L6,0 L6,2 L10,3 L10,5 L15,6 L18,8 L18,10 L22,12 L23,17 L22,47 L21,47 L21,17 L17,15 L13,11 L13,9 L7,9 L7,7 L5,7 L5,3 L1,3 L1,5 L-7,5 L-7,4 L0,4 L0,2 L-2,1 Z " fill="#BD7D67" transform="translate(355,561)"/>
<path d="M0,0 L36,0 L36,2 L42,2 L44,5 L48,6 L48,8 L46,8 L46,10 L50,11 L40,11 L41,7 L36,8 L35,6 L20,4 L20,3 L35,3 L35,1 L5,2 L-3,3 L-3,5 L-6,6 L-6,4 L-4,4 L-4,2 L0,2 Z " fill="#C27D73" transform="translate(620,328)"/>
<path d="M0,0 L4,4 L7,3 L4,0 L9,0 L9,2 L18,3 L23,3 L25,5 L25,8 L1,8 L1,6 L-5,6 L-6,3 L-1,2 Z " fill="#E79782" transform="translate(439,689)"/>
<path d="M0,0 L3,1 L3,11 L5,11 L5,13 L3,13 L3,47 L1,47 L0,30 L-1,30 L-1,7 Z " fill="#E89D89" transform="translate(676,483)"/>
<path d="M0,0 L20,0 L20,3 L4,4 L1,7 L-4,7 L-6,9 L-9,9 L-9,7 L-14,7 L-14,5 L-8,5 L-8,1 Z M-2,5 Z " fill="#E69789" transform="translate(424,361)"/>
<path d="M0,0 L1,0 L1,15 L3,15 L3,10 L4,10 L4,15 L6,15 L8,23 L9,27 L9,33 L10,35 L10,41 L9,41 L9,36 L7,36 L7,43 L10,44 L6,44 L6,36 L4,36 L4,24 L2,24 L2,16 L0,16 Z " fill="#CF8974" transform="translate(330,480)"/>
<path d="M0,0 L12,0 L12,1 L1,1 L1,4 L3,5 L-5,11 L-8,14 L-8,9 L-12,10 L-14,9 L-14,11 L-12,12 L-16,12 L-16,16 L-21,17 L-21,15 L-19,15 L-19,13 L-23,14 L-20,10 L-18,10 L-16,6 L-14,6 L-14,8 L-12,8 L-12,6 L-10,6 L-10,8 L-8,8 L-8,6 L-6,6 L-6,4 L-2,4 L-2,2 L0,2 Z " fill="#E29385" transform="translate(380,376)"/>
<path d="M0,0 L3,2 L3,8 L8,8 L9,15 L4,16 L3,21 L2,18 L-3,19 L-4,18 L-4,12 L0,10 L-1,1 Z " fill="#F5A491" transform="translate(664,404)"/>
<path d="M0,0 L4,2 L2,2 L2,6 L0,6 L0,8 L-2,8 L-2,14 L-4,14 L-4,20 L-6,20 L-6,24 L-10,24 L-10,30 L-11,30 L-12,21 L-9,20 L-9,23 L-7,23 L-10,15 L-7,6 L-3,5 L-3,2 L-1,2 L-1,5 L1,5 Z " fill="#E49780" transform="translate(670,562)"/>
<path d="M0,0 L1,2 L4,3 L5,17 L6,18 L6,25 L5,26 L3,37 L1,39 L1,14 L0,10 L0,4 Z " fill="#EB9E8C" transform="translate(675,390)"/>
<path d="M0,0 L6,0 L6,1 L1,1 L1,4 L6,4 L4,8 L9,8 L9,10 L-12,11 L-12,9 L-19,9 L-19,8 L-12,8 L-12,6 L-4,6 L-2,2 L0,2 Z " fill="#DB9187" transform="translate(608,334)"/>
<path d="M0,0 L1,0 L1,30 L3,30 L3,36 L1,36 L1,44 L3,44 L3,68 L2,68 L2,45 L0,45 L0,68 L-1,68 L-1,30 Z " fill="#211612" transform="translate(375,578)"/>
<path d="M0,0 L1,4 L-3,4 L-3,6 L-5,6 L-5,8 L-9,8 L-9,10 L-19,10 L-19,12 L-27,12 L-27,14 L-39,14 L-39,13 L-28,13 L-28,11 L-39,11 L-39,10 L-27,10 L-20,11 L-20,9 L-27,9 L-27,8 L-20,8 L-20,6 L-8,6 L-8,4 L-4,5 L-5,2 L0,3 Z " fill="#CC8B75" transform="translate(559,686)"/>
<path d="M0,0 L3,1 L0,4 L-2,11 L-9,11 L-14,10 L-12,5 L-12,3 L-8,4 L-6,5 L-6,1 Z M-17,10 L-14,10 L-16,15 L-17,15 Z M-18,15 Z " fill="#EBA087" transform="translate(648,572)"/>
<path d="M0,0 L5,1 L6,3 L13,4 L9,5 L9,10 L1,10 L1,4 L-1,5 L0,8 L-7,8 L-6,2 L-1,1 Z " fill="#E79B86" transform="translate(496,693)"/>
<path d="M0,0 L2,0 L2,2 L12,2 L12,0 L14,0 L13,3 L0,4 L-23,3 L-23,5 L-21,6 L-23,6 L-23,8 L-31,8 L-32,10 L-32,7 L-44,7 L-44,6 L-32,6 L-32,4 L-24,4 L-24,2 L0,2 Z " fill="#CE877B" transform="translate(572,342)"/>
<path d="M0,0 L2,2 L1,3 L4,4 L5,2 L10,2 L11,4 L20,5 L20,7 L12,7 L12,9 L1,9 L-5,6 L-4,2 Z " fill="#EBA289" transform="translate(519,690)"/>
<path d="M0,0 L4,1 L6,3 L4,7 L4,18 L5,27 L2,27 L2,24 L0,24 Z " fill="#E89C82" transform="translate(379,622)"/>
<path d="M0,0 L6,1 L6,3 L1,4 L7,6 L7,7 L-2,7 L-2,9 L-9,10 L-17,14 L-17,11 L-12,8 L-8,8 L-8,5 L-5,4 L-5,1 Z " fill="#E7A189" transform="translate(558,672)"/>
<path d="M0,0 L1,4 L3,4 L4,20 L-1,19 L-4,7 L-4,1 L-3,5 L-1,4 Z " fill="#DA8F80" transform="translate(683,380)"/>
<path d="M0,0 L1,0 L1,9 L4,9 L4,6 L10,6 L15,10 L17,11 L17,13 L15,13 L16,16 L14,16 L14,14 L10,14 L10,12 L6,12 L6,14 L4,14 L0,10 Z " fill="#CD8773" transform="translate(392,666)"/>
<path d="M0,0 L7,0 L2,5 L-2,7 L-3,5 L-4,6 L-10,6 L-12,6 L-16,7 L-16,5 L-20,5 L-20,3 L-14,1 L-12,2 L-2,1 Z " fill="#F39B8E" transform="translate(572,355)"/>
<path d="M0,0 L8,2 L8,0 L13,2 L11,3 L11,5 L34,5 L34,6 L10,6 L10,4 L8,4 L8,6 L2,6 L2,4 L-12,3 L-12,2 L0,2 Z " fill="#19100F" transform="translate(436,354)"/>
<path d="M0,0 L1,0 L1,11 L3,11 L3,0 L5,0 L7,20 L5,20 L5,30 L4,30 L4,20 L2,20 L2,12 L0,12 Z " fill="#CE8B75" transform="translate(340,524)"/>
<path d="M0,0 L2,0 L2,6 L0,12 L-1,17 L1,17 L1,29 L-1,31 L-1,21 L-4,21 L-4,11 Z " fill="#E69D85" transform="translate(345,480)"/>
<path d="M0,0 L2,0 L2,7 L0,13 L0,22 L-1,24 L-3,24 L-4,21 L-5,6 L-3,4 L0,7 Z " fill="#E39686" transform="translate(687,393)"/>
<path d="M0,0 L6,0 L6,5 L13,4 L13,7 L8,9 L4,10 L2,11 L2,8 L0,8 L0,6 L-2,6 L-2,3 L0,2 Z " fill="#E9998A" transform="translate(366,385)"/>
<path d="M0,0 L24,0 L23,4 L2,4 L0,3 Z " fill="#E69789" transform="translate(446,361)"/>
<path d="M0,0 L1,0 L1,18 L3,18 L3,24 L5,24 L5,34 L4,34 L4,25 L2,25 L1,27 L1,25 L-1,25 L-1,21 L-3,22 L-5,26 L-6,23 L-4,17 L0,18 Z " fill="#CB8379" transform="translate(677,346)"/>
<path d="M0,0 L1,3 L4,3 L5,1 L5,3 L8,4 L9,7 L8,10 L9,13 L5,13 L5,15 L8,16 L4,16 L2,11 L0,10 L2,4 L0,4 Z " fill="#D18A75" transform="translate(380,646)"/>
<path d="M0,0 L8,0 L8,2 L1,2 L-6,4 L-9,7 L-14,8 L-14,11 L-21,11 L-18,8 L-16,8 L-16,6 L-12,2 Z " fill="#E8968A" transform="translate(564,348)"/>
<path d="M0,0 L6,0 L6,5 L8,5 L8,9 L5,9 L5,12 L-1,11 L0,4 L-1,1 Z " fill="#D3937B" transform="translate(608,647)"/>
<path d="M0,0 L4,1 L1,1 L1,3 L3,4 L0,12 L-2,13 L-3,7 L-5,7 L-5,28 L-6,28 L-6,6 L-4,6 L-4,2 L0,2 Z " fill="#CB8572" transform="translate(336,424)"/>
<path d="M0,0 L2,2 L3,13 L2,24 L0,24 L-1,13 L-4,12 L-4,5 L-1,5 Z " fill="#E89D84" transform="translate(341,511)"/>
<path d="M0,0 L1,0 L1,6 L3,6 L3,14 L1,14 L1,38 L0,38 L0,14 L-2,14 L-2,6 L0,6 Z " fill="#C4846E" transform="translate(378,608)"/>
<path d="M0,0 L2,3 L2,5 L4,5 L4,0 L5,0 L5,6 L1,6 L1,10 L-3,10 L-3,14 L-7,14 L-7,16 L-11,15 L-8,15 L-8,13 L-10,12 L-4,13 L-4,11 L-8,11 L-8,9 L-6,9 L-5,7 L-3,7 L-1,2 Z " fill="#D48F78" transform="translate(625,634)"/>
<path d="M0,0 L12,0 L12,1 L1,1 L1,3 L12,3 L12,4 L0,5 L0,3 L-5,3 L-4,8 L-12,8 L-15,7 L-16,4 L-14,4 L-14,6 L-11,6 L-11,4 L-6,4 L-6,2 L0,2 Z " fill="#CB8479" transform="translate(516,350)"/>
<path d="M0,0 L2,4 L-3,3 L-3,5 L1,6 L-2,9 L-4,10 L-4,18 L-5,18 L-5,13 L-7,13 L-7,18 L-8,18 L-8,12 L-6,12 L-6,10 L-8,10 L-8,4 L-4,4 L-4,2 L0,2 Z " fill="#CD8777" transform="translate(356,390)"/>
<path d="M0,0 L1,4 L3,5 L1,7 L3,11 L-4,17 L-6,10 L-2,6 Z " fill="#F09F8E" transform="translate(361,404)"/>
<path d="M0,0 L1,2 L10,3 L9,5 L0,8 L-7,6 L-7,2 L0,2 Z " fill="#E59486" transform="translate(500,355)"/>
<path d="M0,0 L1,4 L-3,4 L-3,6 L-9,6 L-9,8 L-11,8 L-11,12 L-15,11 L-12,11 L-12,9 L-15,9 L-13,5 L-9,2 L0,3 Z " fill="#D29078" transform="translate(613,656)"/>
<path d="M0,0 L2,0 L1,5 L-3,5 L-3,9 L-6,9 L-6,14 L-8,14 L-9,8 L-7,3 L0,2 Z " fill="#E1977C" transform="translate(635,625)"/>
<path d="M0,0 L2,0 L2,2 L8,2 L8,0 L10,0 L10,2 L34,2 L34,3 L10,4 L8,5 L8,3 L0,4 L-12,3 L-12,2 L0,2 Z " fill="#B6776C" transform="translate(436,358)"/>
<path d="M0,0 L2,0 L2,3 L4,4 L2,4 L2,6 L10,6 L11,2 L11,4 L15,3 L25,4 L25,5 L15,5 L15,7 L13,7 L13,5 L11,5 L11,7 L1,7 L1,5 L-1,5 L-1,7 L-3,7 L-3,5 L-7,4 L1,4 L1,2 L-1,1 Z " fill="#BD806F" transform="translate(495,697)"/>
<path d="M0,0 L1,0 L1,14 L-2,23 L-5,20 L-3,14 L-6,13 L-4,13 L-4,11 L-2,11 Z " fill="#E99F86" transform="translate(666,541)"/>
<path d="M0,0 L6,0 L6,1 L1,1 L1,3 L6,3 L6,4 L0,5 L0,3 L-3,3 L-3,5 L-1,6 L-3,6 L-3,8 L-8,8 L-9,3 L-15,3 L-16,6 L-16,2 L-8,2 L-8,4 L-4,4 L-4,2 L0,2 Z " fill="#C6867A" transform="translate(408,370)"/>
<path d="M0,0 L1,2 L5,2 L6,0 L6,2 L10,3 L10,5 L13,5 L13,8 L7,8 L5,7 L5,3 L1,3 L1,5 L-7,5 L-7,4 L0,4 L0,2 L-2,1 Z " fill="#E4967B" transform="translate(355,561)"/>
<path d="M0,0 L1,0 L1,16 L-1,16 L-1,20 L-3,20 L-3,28 L-4,28 L-4,20 L-6,20 L-6,27 L-7,27 L-8,19 L-4,16 L-4,19 L-2,19 L-3,10 L-2,10 L-2,15 L0,15 Z " fill="#C38472" transform="translate(679,534)"/>
<path d="M0,0 L1,0 L1,10 L5,12 L5,14 L7,14 L7,12 L11,12 L11,14 L15,15 L4,16 L0,14 L-1,10 Z M0,11 Z " fill="#1E1311" transform="translate(391,666)"/>
<path d="M0,0 L2,1 L2,32 L0,32 L0,28 L-2,28 L-2,22 L0,22 Z " fill="#231715" transform="translate(684,424)"/>
<path d="M0,0 L4,1 L3,7 L8,7 L8,11 L1,11 L0,10 Z " fill="#E69A80" transform="translate(347,554)"/>
<path d="M0,0 L4,0 L4,8 L6,8 L6,24 L5,24 L5,9 L3,9 L2,23 L1,23 L0,12 L2,8 L3,1 Z " fill="#C27E70" transform="translate(686,392)"/>
<path d="M0,0 L28,2 L26,5 L26,3 L23,3 L23,5 L18,4 L13,3 L4,3 L-1,2 Z " fill="#DB8C82" transform="translate(621,330)"/>
<path d="M0,0 L1,3 L7,3 L7,4 L1,4 L1,6 L-11,6 L-11,10 L-19,10 L-19,9 L-12,9 L-12,7 L-19,7 L-19,6 L-14,6 L-14,4 L0,5 L0,3 L-2,2 L0,2 Z " fill="#BF8471" transform="translate(579,676)"/>
<path d="M0,0 L12,0 L12,1 L1,1 L1,4 L3,5 L-2,9 L-7,9 L-7,7 L-5,7 L-5,5 L-2,5 L-2,2 L0,2 Z " fill="#D38E80" transform="translate(380,376)"/>
<path d="M0,0 L2,0 L2,2 L12,2 L12,0 L14,0 L13,3 L0,4 L-24,3 L-24,2 L0,2 Z " fill="#AC7067" transform="translate(572,342)"/>
<path d="M0,0 L1,0 L2,7 L3,8 L3,15 L-1,15 L-2,11 L-2,2 Z " fill="#E69A87" transform="translate(678,468)"/>
<path d="M0,0 L10,0 L6,2 L0,4 L-1,7 L-3,7 L-3,3 L-7,4 L-7,2 Z " fill="#ED9D8B" transform="translate(387,390)"/>
<path d="M0,0 L2,0 L2,8 L0,8 L0,15 L-2,15 L-4,7 L-1,4 Z " fill="#E99C86" transform="translate(645,600)"/>
<path d="M0,0 L4,2 L5,11 L3,11 L3,7 L1,7 L1,9 L-3,8 L0,8 L0,6 L-3,6 L-3,4 L-1,4 Z " fill="#CF8675" transform="translate(653,583)"/>
<path d="M0,0 L2,0 L5,3 L7,4 L7,6 L5,6 L6,9 L4,9 L4,7 L0,7 L0,4 L-4,4 L-4,2 L0,2 Z " fill="#DB937E" transform="translate(402,673)"/>
<path d="M0,0 L8,0 L8,1 L1,1 L1,3 L6,4 L2,8 L-1,8 L-1,6 L-6,6 L-6,4 L0,4 Z " fill="#CA8679" transform="translate(416,362)"/>
<path d="M0,0 L3,1 L9,3 L5,5 L-2,7 L-1,4 L-5,4 L-5,2 Z " fill="#ECA68D" transform="translate(541,676)"/>
<path d="M0,0 L2,1 L2,21 L0,21 L-1,17 Z " fill="#0F0A09" transform="translate(682,476)"/>
<path d="M0,0 L4,1 L4,19 L2,19 L2,2 L0,2 Z " fill="#ED9B8F" transform="translate(673,345)"/>
<path d="M0,0 L4,0 L4,2 L10,2 L10,3 L4,3 L4,5 L0,5 L0,3 L-14,3 L-14,2 L0,2 Z " fill="#C27F6E" transform="translate(430,693)"/>
<path d="M0,0 L6,1 L6,3 L-4,6 L-8,7 L-8,5 L-5,4 L-5,1 Z " fill="#EBA48B" transform="translate(558,672)"/>
<path d="M0,0 L4,0 L4,8 L0,10 L0,13 L-2,13 L-3,9 L-2,7 L0,7 Z " fill="#E99C86" transform="translate(671,554)"/>
<path d="M0,0 L4,1 L1,1 L1,3 L-1,3 L-1,5 L2,6 L-2,10 L-2,5 L-6,6 L-9,5 L-10,2 L-8,2 L-8,4 L-6,4 L-6,2 L-4,2 L-4,4 L-2,4 L-2,2 L0,2 Z " fill="#CD887B" transform="translate(374,380)"/>
<path d="M0,0 L1,0 L1,6 L3,6 L3,10 L5,10 L4,14 L4,11 L1,11 L0,13 L-2,8 L-3,6 L0,6 Z M-4,8 Z " fill="#CD8779" transform="translate(681,446)"/>
<path d="M0,0 L4,1 L1,1 L1,3 L5,4 L2,7 L2,5 L-1,5 L-1,12 L2,13 L0,13 L-1,15 L-1,13 L-3,13 L-4,16 L-4,12 L-2,12 L-2,4 L0,4 Z " fill="#BC7E6E" transform="translate(344,408)"/>
<path d="M0,0 L7,1 L7,2 L1,2 L1,4 L6,4 L6,5 L-3,5 L-5,4 L-15,3 L-15,2 L0,2 Z " fill="#D38A7E" transform="translate(655,329)"/>
<path d="M0,0 L5,4 L2,9 L-1,9 L-1,3 L-3,2 L0,2 Z " fill="#E3987F" transform="translate(380,605)"/>
<path d="M0,0 L1,0 L1,6 L-1,6 L-1,10 L-5,10 L-5,16 L-6,16 L-7,7 L-4,6 L-4,9 L-2,9 L-3,1 L-2,5 L0,5 Z " fill="#BC7A69" transform="translate(665,576)"/>
<path d="M0,0 L2,0 L2,2 L4,3 L2,3 L2,5 L4,6 L2,6 L2,26 L1,26 Z " fill="#060303" transform="translate(686,420)"/>
<path d="M0,0 L7,0 L6,2 L8,4 L5,7 L4,4 L0,6 L-2,4 L0,2 Z M3,7 Z " fill="#F59F90" transform="translate(662,387)"/>
<path d="M0,0 L1,2 L4,3 L1,8 L-5,8 L-5,3 L0,3 Z " fill="#E1988C" transform="translate(414,368)"/>
<path d="M0,0 L6,0 L6,5 L-2,6 L-2,3 L0,2 Z " fill="#E49586" transform="translate(366,385)"/>
<path d="M0,0 L4,2 L2,2 L2,6 L0,6 L0,8 L-2,8 L-2,14 L-3,14 L-4,6 L-3,2 L-1,2 L-1,5 L1,5 Z " fill="#C78471" transform="translate(670,562)"/>
<path d="M0,0 L9,0 L8,4 L0,4 Z " fill="#F9AC91" transform="translate(396,452)"/>
<path d="M0,0 L2,0 L2,6 L-1,15 L-2,15 L-2,5 Z " fill="#EAA089" transform="translate(345,480)"/>
<path d="M0,0 L11,2 L11,3 L4,4 L12,5 L12,6 L2,6 L2,4 L-1,3 Z " fill="#18100F" transform="translate(572,338)"/>
<path d="M0,0 L2,0 L2,7 L-1,13 L-3,9 L-4,4 L0,7 Z " fill="#E99888" transform="translate(687,393)"/>
<path d="M0,0 L4,5 L2,5 L1,8 L1,6 L-5,6 L-6,3 L-1,2 Z " fill="#E69782" transform="translate(439,689)"/>
<path d="M0,0 L6,0 L6,1 L1,1 L1,4 L5,5 L1,5 L1,7 L-4,6 L-2,2 L0,2 Z " fill="#C88178" transform="translate(608,334)"/>
<path d="M0,0 Z M-6,0 L0,1 L0,4 L-12,4 L-13,2 Z " fill="#F8AF93" transform="translate(544,662)"/>
<path d="M0,0 L4,0 L4,4 L6,4 L5,6 L0,4 L-8,3 L-8,2 L0,2 Z " fill="#231713" transform="translate(356,564)"/>
<path d="M0,0 L11,0 L7,5 L3,5 L3,2 Z " fill="#DF9788" transform="translate(381,379)"/>
<path d="M0,0 L2,1 L1,11 L-5,16 L-6,13 L-2,11 Z " fill="#F59C92" transform="translate(666,371)"/>
<path d="M0,0 L2,0 L3,5 L-1,9 L-3,9 L-3,7 L-1,7 L-1,5 L-3,5 L-2,1 L-2,4 L0,4 Z " fill="#CD8978" transform="translate(411,681)"/>
<path d="M0,0 L1,2 L5,4 L5,8 L1,8 L-1,2 Z M0,3 Z " fill="#180F0D" transform="translate(379,654)"/>
<path d="M0,0 L5,1 L4,10 L3,7 L1,7 L0,10 L0,6 L2,6 L2,2 L0,2 Z " fill="#1A120F" transform="translate(614,650)"/>
<path d="M0,0 L3,2 L3,8 L0,10 L-1,1 Z " fill="#FAA394" transform="translate(664,404)"/>
<path d="M0,0 L1,4 L-1,4 L-1,9 L-4,10 L-4,13 L-6,12 L-5,8 L-3,8 L-2,2 Z " fill="#E29981" transform="translate(641,611)"/>
<path d="M0,0 L2,0 L4,4 L4,11 L2,11 L2,4 L-1,3 L-2,1 Z " fill="#E99682" transform="translate(655,581)"/>
<path d="M0,0 L1,2 L5,2 L6,0 L6,2 L8,3 L6,3 L5,7 L5,3 L1,3 L1,5 L-7,5 L-7,4 L0,4 L0,2 L-2,1 Z " fill="#BE7E68" transform="translate(355,561)"/>
<path d="M0,0 L5,1 L5,3 L3,3 L3,5 L7,6 L0,6 L-1,2 Z " fill="#CA837A" transform="translate(663,333)"/>
<path d="M0,0 L2,3 L2,5 L4,5 L4,0 L5,0 L5,6 L1,6 L1,10 L-3,9 L0,9 L-1,2 Z " fill="#C08069" transform="translate(625,634)"/>
<path d="M0,0 L1,0 L3,8 L3,15 L1,15 L0,10 Z " fill="#DF957E" transform="translate(333,480)"/>
<path d="M0,0 Z M-2,1 L0,2 L-2,3 Z M0,3 Z M-4,3 L0,5 L-1,6 L-12,7 L-11,5 L-4,5 Z " fill="#EFA98D" transform="translate(580,661)"/>
<path d="M0,0 L1,0 L2,8 L0,14 L-2,11 L-2,7 L0,7 Z " fill="#EDA185" transform="translate(662,513)"/>
<path d="M0,0 L2,0 L3,9 L0,9 L0,6 L-2,5 L0,5 Z " fill="#E29780" transform="translate(381,640)"/>
<path d="M0,0 L1,4 L-2,4 L-2,9 L-4,9 L-5,3 L-3,3 L-2,1 L-2,3 L0,3 Z " fill="#DB9278" transform="translate(631,630)"/>
<path d="M0,0 L1,0 L1,6 L-7,6 L-7,4 L-1,4 Z " fill="#E19E85" transform="translate(593,668)"/>
<path d="M0,0 L1,0 L1,6 L3,6 L3,8 L1,8 L1,14 L-3,13 L0,13 L-1,6 Z " fill="#291B18" transform="translate(347,394)"/>
<path d="M0,0 L5,2 L3,3 L2,5 L0,4 L0,6 L-6,6 L-6,5 L-1,5 Z " fill="#19100F" transform="translate(444,354)"/>
<path d="M0,0 L2,0 L2,2 L12,2 L12,0 L14,0 L13,3 L0,4 Z " fill="#BC7C73" transform="translate(572,342)"/>
<path d="M0,0 L4,1 L2,2 L1,6 L-6,5 L-2,4 L-2,2 L0,2 Z " fill="#1D1310" transform="translate(556,690)"/>
<path d="M0,0 L1,4 L3,5 L-1,7 L-3,6 L-3,3 L-1,3 Z " fill="#F2A08E" transform="translate(383,393)"/>
<path d="M0,0 L1,4 L5,5 L-4,5 L-5,1 L-2,1 L-2,4 L0,4 Z " fill="#C9847C" transform="translate(671,340)"/>
<path d="M0,0 L11,0 L9,3 L9,1 L6,1 L6,3 L1,2 Z " fill="#E29488" transform="translate(638,332)"/>
<path d="M0,0 L1,4 L3,4 L3,6 L1,6 L1,8 L4,9 L0,10 L-1,8 Z " fill="#271B17" transform="translate(407,682)"/>
<path d="M0,0 L6,0 L5,5 L3,5 L3,2 L1,2 L0,4 L-1,1 Z " fill="#E39E85" transform="translate(608,647)"/>
<path d="M0,0 L3,1 L3,8 L1,8 L-1,5 Z " fill="#E89B83" transform="translate(664,567)"/>
<path d="M0,0 L4,1 L1,1 L1,3 L3,4 L0,6 L-1,3 L-3,3 L-4,6 L-4,2 L0,2 Z " fill="#C2806F" transform="translate(336,424)"/>
<path d="M0,0 L2,1 L2,3 L-1,5 L-2,10 L-4,10 L-3,1 Z " fill="#E69389" transform="translate(670,351)"/>
<path d="M0,0 L6,0 L8,3 L3,4 L3,2 L0,2 Z " fill="#E8967E" transform="translate(385,659)"/>
<path d="M0,0 L2,0 L2,5 L1,6 L-4,6 L-4,4 L-1,3 Z " fill="#EB9D89" transform="translate(341,421)"/>
<path d="M0,0 L5,0 L5,4 L0,4 Z " fill="#E79588" transform="translate(511,353)"/>
<path d="M0,0 L1,2 L4,3 L2,3 L2,7 L-2,6 L1,6 L1,4 L-2,4 Z " fill="#C68871" transform="translate(600,661)"/>
<path d="M0,0 L3,0 L4,3 L0,3 L0,5 L3,6 L-1,6 L-2,1 Z " fill="#CC846F" transform="translate(385,656)"/>
<path d="M0,0 L7,0 L6,3 L0,3 Z " fill="#F1A288" transform="translate(358,512)"/>
<path d="M0,0 L2,1 L2,8 L0,8 L0,3 L-2,3 L-2,1 Z " fill="#DD9181" transform="translate(685,392)"/>
<path d="M0,0 L7,0 L8,5 L6,5 L6,2 L0,1 Z " fill="#E8988F" transform="translate(663,339)"/>
<path d="M0,0 L5,1 L4,6 L2,6 Z " fill="#E99D8A" transform="translate(407,679)"/>
<path d="M0,0 L4,0 L4,2 L8,3 L1,4 Z " fill="#221714" transform="translate(398,678)"/>
<path d="M0,0 L4,1 L1,1 L1,3 L5,4 L2,7 L2,5 L-1,4 Z " fill="#CB897A" transform="translate(344,408)"/>
<path d="M0,0 L1,2 L0,6 L-6,7 L-3,3 L-1,3 Z " fill="#B7776C" transform="translate(363,383)"/>
<path d="M0,0 L1,4 L-2,5 L-3,9 L-5,8 L-4,4 Z " fill="#EB9B8D" transform="translate(676,380)"/>
<path d="M0,0 L3,0 L3,3 L1,3 L1,6 L-1,6 L-2,3 Z " fill="#E9A188" transform="translate(612,653)"/>
<path d="M0,0 L3,3 L1,7 L-1,5 Z " fill="#E2927D" transform="translate(386,649)"/>
<path d="M0,0 L2,1 L1,7 L-1,5 L-4,6 L-4,4 L0,3 Z " fill="#EFA38D" transform="translate(668,444)"/>
<path d="M0,0 L7,1 L7,3 L1,3 L-1,1 Z " fill="#DD9580" transform="translate(498,698)"/>
<path d="M0,0 L4,1 L3,5 L-1,3 Z " fill="#0A0706" transform="translate(408,691)"/>
<path d="M0,0 L2,1 L1,3 L-4,4 L-7,3 L-7,1 L0,2 Z " fill="#110B0A" transform="translate(658,592)"/>
<path d="M0,0 L3,1 L4,4 L0,6 L-2,4 L0,2 Z " fill="#FAA294" transform="translate(662,387)"/>
<path d="M0,0 L2,0 L1,10 L0,10 L-1,1 Z " fill="#CA8270" transform="translate(659,582)"/>
<path d="M0,0 L2,0 L2,2 L4,3 L2,3 L2,5 L4,6 L0,5 Z " fill="#19110F" transform="translate(686,420)"/>
<path d="M0,0 L2,2 L0,4 L-4,4 L-4,2 Z " fill="#EBA28A" transform="translate(519,690)"/>
<path d="M0,0 L4,0 L4,4 L1,4 Z " fill="#E3967B" transform="translate(369,569)"/>
<path d="M0,0 L2,0 L0,5 L-2,6 L-1,1 Z " fill="#F9A793" transform="translate(662,414)"/>
<path d="M0,0 L6,0 L6,3 L0,2 Z " fill="#E7998B" transform="translate(366,385)"/>
<path d="M0,0 L2,0 L2,2 L4,2 L4,0 L6,0 L6,4 L1,3 Z " fill="#BE7D72" transform="translate(364,382)"/>
<path d="M0,0 L3,3 L4,5 L-1,4 L-2,2 L0,2 Z " fill="#DD937F" transform="translate(413,686)"/>
<path d="M0,0 L2,1 L2,5 L-1,5 Z " fill="#EAA282" transform="translate(610,619)"/>
<path d="M0,0 L5,0 L4,3 L0,3 Z " fill="#E5997C" transform="translate(356,560)"/>
<path d="M0,0 L3,0 L3,4 L0,5 Z " fill="#EBA188" transform="translate(664,480)"/>
<path d="M0,0 L3,0 L4,3 L2,3 L1,7 Z " fill="#C58475" transform="translate(684,417)"/>
<path d="M0,0 L6,0 L2,1 L2,3 L-1,3 Z " fill="#040302" transform="translate(604,665)"/>
<path d="M0,0 L3,0 L2,4 L-2,2 Z " fill="#C27C69" transform="translate(390,662)"/>
<path d="M0,0 L4,0 L4,3 L0,3 Z " fill="#FEB49C" transform="translate(528,648)"/>
<path d="M0,0 L3,0 L3,3 L-2,3 L0,2 Z " fill="#EFA48F" transform="translate(503,681)"/>
<path d="M0,0 L3,1 L0,4 L-1,1 Z " fill="#DE9880" transform="translate(554,685)"/>
<path d="M0,0 L2,0 L1,3 L-2,4 L-2,1 Z " fill="#E7A187" transform="translate(590,665)"/>
<path d="M0,0 L2,0 L1,4 L-2,2 Z " fill="#36241E" transform="translate(638,626)"/>
<path d="M0,0 L3,1 L2,6 L0,3 Z " fill="#F2A990" transform="translate(645,559)"/>
<path d="M0,0 L2,0 L2,3 L-2,3 L-2,1 Z " fill="#EB9D85" transform="translate(490,415)"/>
<path d="M0,0 L4,0 L2,4 L2,2 L0,2 Z " fill="#E3958B" transform="translate(669,345)"/>
</svg>
